<svg xmlns="http://www.w3.org/2000/svg" width="500" height="500" fill="none" viewBox="0 0 50 50"><rect height="100%" width="100%" fill="#97fedd"/><path fill="#000" fill-rule="evenodd" d="M32.165 20.898c-1.501 0-2.522.832-2.814 2.215h5.628c-.243-1.444-1.274-2.215-2.814-2.215m-.103-3.59c4.47 0 7.306 3.209 7.306 7.213l-.001 1.493-10.016-.012c.09 1.13 1.365 2.258 3.625 2.258 1.756 0 3.04-.482 3.659-.97l1.75 3.401c-1.038.614-3.237 1.439-5.82 1.439-5.32 0-8.04-3.398-8.04-7.609 0-3.982 2.955-7.213 7.537-7.213m-13.698 4.08c-.499-.067-1.62-.159-1.62 2.895l-.043 7.846h-5.163V17.598l4.739-.017v1.843c1.128-2.188 4.462-2.548 6.393-1.675v6.19c-.21.05-.593.12-.786.147-2.551.358-3.554-1.14-3.52-2.696" clip-rule="evenodd"/></svg>
