<svg xmlns="http://www.w3.org/2000/svg" width="404" height="404" fill="none" viewBox="0 0 404 404"><path fill="#f9f9f9" d="M404 202C404 90.439 313.562 0 202 0S0 90.439 0 202s90.439 202 202 202 202-90.438 202-202"/><path fill="url(#a)" fill-rule="evenodd" d="M80.765 238.772c38.828 38.829 91.143 49.466 116.848 23.761s15.066-78.02-23.761-116.848c-38.829-38.828-91.143-49.466-116.848-23.761s-15.067 78.019 23.761 116.848m20.497 5.167c34.643 27.048 74.644 33.712 89.345 14.884s-1.466-56.019-36.108-83.067c-34.643-27.048-74.644-33.712-89.344-14.883-14.701 18.828 1.465 56.018 36.107 83.066" clip-rule="evenodd"/><path fill="url(#b)" fill-rule="evenodd" d="M323.235 166.964c-38.828-38.828-91.142-49.466-116.849-23.761-25.704 25.705-15.066 78.019 23.762 116.848s91.142 49.465 116.848 23.761c25.705-25.705 15.068-78.02-23.761-116.848m-20.091-4.773c-34.643-27.048-74.643-33.712-89.344-14.883-14.701 18.828 1.464 56.019 36.107 83.067s74.643 33.712 89.345 14.883c14.701-18.828-1.465-56.019-36.108-83.067" clip-rule="evenodd"/><path fill="#171717" d="M211.514 78.551h38.327l-56.427 246.895h-38.328z"/><defs><linearGradient id="a" x1="145.389" x2="167.255" y1="238.887" y2="274.415" gradientUnits="userSpaceOnUse"><stop offset=".073" stop-color="#171717"/><stop offset="1" stop-color="#171717" stop-opacity="0"/></linearGradient><linearGradient id="b" x1="250.485" x2="236.745" y1="185.001" y2="131.32" gradientUnits="userSpaceOnUse"><stop stop-color="#171717"/><stop offset="1" stop-color="#171717" stop-opacity="0"/></linearGradient></defs></svg>
