<svg xmlns="http://www.w3.org/2000/svg" xml:space="preserve" viewBox="0 0 397.1 397.1"><path d="M198.6 7.1c105.8 0 191.5 85.7 191.5 191.5 0 105.7-85.7 191.5-191.5 191.5S7.1 304.3 7.1 198.6C7.1 92.8 92.8 7.1 198.6 7.1z" style="fill:#111;stroke:#111;stroke-width:7.0536"/><radialGradient id="a" cx="-105.949" cy="595.938" r="1" gradientTransform="matrix(0 411.151 289.409 0 -172270.75 43621.418)" gradientUnits="userSpaceOnUse"><stop offset=".031" style="stop-color:#3a3a3a"/><stop offset="1" style="stop-color:#1c1c1c"/></radialGradient><path d="M198.6 3.6c-107.7 0-195 87.3-195 195s87.3 195 195 195 195-87.3 195-195-87.3-195-195-195" style="fill:url(#a);fill-opacity:.7"/><linearGradient id="b" x1="198.575" x2="198.575" y1="399.143" y2="1.994" gradientTransform="matrix(1 0 0 -1 0 399.143)" gradientUnits="userSpaceOnUse"><stop offset="0" style="stop-color:#fff"/><stop offset="1" style="stop-color:#111"/></linearGradient><path d="M198.6 3.6c-107.7 0-195 87.3-195 195s87.3 195 195 195 195-87.3 195-195-87.3-195-195-195z" style="fill:none;stroke:url(#b);stroke-width:7.1429"/><path d="M167.4 38.1C92.1 52.6 35.2 118.9 35.2 198.4s56.9 145.8 132.2 160.3v-15.3c-67-14.3-117.2-73.8-117.2-145s50.2-130.7 117.2-145zm62.4 15.4V38.2C305 52.8 361.7 119 361.7 198.4S305 344 229.8 358.6v-15.3c66.8-14.4 116.9-73.8 116.9-144.9S296.6 67.9 229.8 53.5" style="fill-rule:evenodd;clip-rule:evenodd;fill:#fff"/><path d="M221.7 193c12.5 2.4 22.1 7 29 13.7 6.9 6.6 10.3 15.1 10.3 25.4v16.3c0 12.4-4.5 22.4-13.4 30-8.9 7.5-20.7 11.2-35.2 11.2h-5v25.9h-17.2v-25.9h-5.3c-9.6 0-18-2.1-25.4-6.4-7.3-4.4-13.1-10.5-17.2-18.3-4-8-6-17.1-6-27.5h17.2c0 10.5 2.9 19.1 8.6 25.7 5.9 6.4 13.7 9.7 23.2 9.7h26.6q14.1 0 22.8-6.6c5.7-4.6 8.6-10.5 8.6-17.8v-16.3c0-5.8-2.2-10.7-6.5-14.8-4.2-4.1-9.9-6.7-17.2-7.9l-43.1-7.6c-12.1-2.2-21.6-6.8-28.3-13.7-6.7-7-10.1-15.7-10.1-26.2v-13.7c0-12.4 4.3-22.2 12.9-29.5 8.8-7.5 20.4-11.2 34.7-11.2h4.3V81.6h17.2v25.9h5.5c13.6 0 24.5 4.4 32.8 13.2 8.3 8.6 12.5 20.1 12.5 34.3h-17.2c0-9.3-2.6-16.8-7.7-22.4q-7.65-8.4-20.4-8.4h-27.1c-9.1 0-16.4 2.2-21.8 6.6-5.4 4.2-8.1 10-8.1 17.3v13.7q0 8.85 6 15c4.2 4.1 9.8 6.8 17 8.1z" style="fill:#fff"/></svg>
