<svg width="200" height="200" viewBox="0 0 200 200" fill="none" xmlns="http://www.w3.org/2000/svg">
<rect width="200" height="200" rx="100" fill="#F0C15A"/>
<path d="M167.005 101.311C166.306 137.716 136.579 167.013 100.008 167.013C81.5261 167.013 64.7922 159.53 52.6688 147.43L75.5719 123.106C81.7021 129.587 90.3826 133.631 100.008 133.631C108.947 133.631 117.069 130.14 123.091 124.451L100.199 101.323H133.609C133.609 101.319 133.609 101.315 133.609 101.311H167.005Z" fill="#0A0A0A"/>
<path d="M100.008 32.9868C118.615 32.9868 135.448 40.5722 147.59 52.8172L124.679 77.1488C118.536 70.5203 109.757 66.37 100.008 66.37C81.4345 66.37 66.3782 81.4265 66.378 99.9998C66.378 100.406 66.3876 100.811 66.4019 101.214H33.0074C33.0003 100.81 32.9948 100.405 32.9948 99.9998C32.9948 62.9899 62.9979 32.9868 100.008 32.9868Z" fill="#0A0A0A"/>
</svg>
