<?xml version="1.0" encoding="UTF-8" standalone="no" ?>
<!DOCTYPE svg PUBLIC "-//W3C//DTD SVG 1.1//EN" "http://www.w3.org/Graphics/SVG/1.1/DTD/svg11.dtd">
<svg xmlns="http://www.w3.org/2000/svg" xmlns:xlink="http://www.w3.org/1999/xlink" version="1.1" width="500" height="500" viewBox="0 0 283.46 283.46" xml:space="preserve">
<desc>Created with Fabric.js 5.3.0</desc>
<defs>
</defs>
<g transform="matrix(1 0 0 1 141.73 141.73)" id="LfBqGF5pyZXINzr0BKe-v"  >
<g style=""   >
		<g transform="matrix(1 0 0 1 0 0)" id="H96SVaAWRAHUhW4zQ7DgK"  >
<path style="stroke: none; stroke-width: 1; stroke-dasharray: none; stroke-linecap: butt; stroke-dashoffset: 0; stroke-linejoin: miter; stroke-miterlimit: 4; fill: rgb(255,255,255); fill-rule: nonzero; opacity: 1;"  transform=" translate(-141.73, -141.73)" d="M 141.73 283.46 C 122.6 283.46 104.03999999999999 279.71 86.55999999999999 272.32 C 69.67999999999999 265.18 54.52999999999999 254.95999999999998 41.50999999999999 241.95 C 28.499999999999993 228.94 18.27999999999999 213.77999999999997 11.13999999999999 196.89999999999998 C 3.75 179.42 0 160.86 0 141.73 C 0 122.59999999999997 3.75 104.03999999999999 11.14 86.55999999999999 C 18.28 69.67999999999999 28.5 54.52999999999999 41.510000000000005 41.50999999999999 C 54.53 28.5 69.68 18.28 86.56 11.14 C 104.04 3.75 122.6 0 141.73 0 C 160.85999999999999 0 179.42 3.75 196.89999999999998 11.14 C 213.77999999999997 18.28 228.92999999999998 28.5 241.95 41.510000000000005 C 254.95999999999998 54.52 265.18 69.68 272.32 86.56 C 279.71 104.04 283.46 122.6 283.46 141.73000000000002 C 283.46 160.86000000000004 279.71 179.42000000000002 272.32 196.90000000000003 C 265.18 213.78000000000003 254.95999999999998 228.93000000000004 241.95 241.95000000000005 C 228.94 254.96000000000004 213.77999999999997 265.18000000000006 196.89999999999998 272.32000000000005 C 179.42 279.72 160.86 283.46 141.73 283.46 z" stroke-linecap="round" />
</g>
		<g transform="matrix(1 0 0 1 0 0)" id="3ID6o8RnU_iEWfBoYdorx"  >
<path style="stroke: none; stroke-width: 1; stroke-dasharray: none; stroke-linecap: butt; stroke-dashoffset: 0; stroke-linejoin: miter; stroke-miterlimit: 4; fill: rgb(0,0,0); fill-rule: nonzero; opacity: 1;"  transform=" translate(-134.22, -134.22)" d="M 0 134.22 C 0 60.09233999999999 60.09234 0 134.22 0 C 208.34766000000002 0 268.44 60.09234 268.44 134.22 C 268.44 208.34766000000002 208.34766 268.44 134.22 268.44 C 60.09233999999999 268.44 0 208.34766 0 134.22 z" stroke-linecap="round" />
</g>
		<g transform="matrix(1 0 0 1 0 0.005)" id="7toPAQlCY_fXkXMg06IIi"  >
<path style="stroke: none; stroke-width: 1; stroke-dasharray: none; stroke-linecap: butt; stroke-dashoffset: 0; stroke-linejoin: miter; stroke-miterlimit: 4; fill: rgb(255,255,255); fill-rule: nonzero; opacity: 1;"  transform=" translate(-141.73, -141.735)" d="M 212.43 141.73 C 212.43 127.35 208.11 113.96999999999998 200.71 102.78999999999999 L 222.66 80.83999999999999 L 202.92 61.1 L 181.02999999999997 82.99000000000001 C 169.78999999999996 75.44000000000001 156.26999999999998 71.03 141.73999999999998 71.03 C 127.35999999999999 71.03 113.97999999999998 75.35 102.79999999999998 82.75 L 80.84 60.8 L 61.1 80.54 L 82.99000000000001 102.43 C 75.44000000000001 113.67 71.03 127.19000000000001 71.03 141.72 C 71.03 156.1 75.35 169.48 82.75 180.66 L 60.8 202.62 L 80.53999999999999 222.36 L 102.42999999999999 200.47000000000003 C 113.66999999999999 208.02000000000004 127.19 212.43000000000004 141.72 212.43000000000004 C 156.1 212.43000000000004 169.48 208.11000000000004 180.66 200.71000000000004 L 202.62 222.67000000000004 L 222.36 202.93000000000004 L 200.47000000000003 181.04000000000002 C 208.02 169.78 212.43 156.26 212.43 141.73 z M 98.96 141.73 C 98.96 118.13999999999999 118.14999999999999 98.94999999999999 141.74 98.94999999999999 C 165.33000000000004 98.94999999999999 184.52 118.13999999999999 184.52 141.73 C 184.52 165.32 165.33 184.51 141.74 184.51 C 118.15 184.51 98.96 165.32 98.96 141.73 z" stroke-linecap="round" />
</g>
</g>
</g>
<g transform="matrix(0.9492995317 0 0 0.9492995317 141.73 142.73)" id="cQoI-WYI5KCRor5RTQ95y"  >
<path style="stroke: none; stroke-width: 1; stroke-dasharray: none; stroke-linecap: butt; stroke-dashoffset: 0; stroke-linejoin: miter; stroke-miterlimit: 4; fill: rgb(255,255,255); fill-rule: nonzero; opacity: 1;"  transform=" translate(-141.4215, -143.9125)" d="M 133.517 164.276 L 125.125 164.276 L 113.471 123.549 L 122.878 123.549 L 129.619 151.847 L 129.957 151.847 L 137.395 123.549 L 145.449 123.549 L 152.866 151.907 L 153.224 151.907 L 159.966 123.549 L 169.372 123.549 L 157.719 164.276 L 149.327 164.276 L 141.571 137.648 L 141.253 137.648 L 133.517 164.276 Z" stroke-linecap="round" />
</g>
</svg>