<svg width="160" height="160" viewBox="0 0 160 160" fill="none" xmlns="http://www.w3.org/2000/svg">
<path d="M159.998 80.0245C160.098 65.1735 156.587 51.7776 149.867 41.091C136.174 16.607 109.993 0 80 0C35.9134 0 0.0522463 35.8731 0.00209088 79.9743C-0.09822 94.8252 3.41267 108.221 10.1335 118.908C23.8259 143.392 50.0071 159.999 80 159.999C124.087 159.999 159.948 124.126 159.998 80.0245Z" fill="#EAAC00"/>
<path d="M80.0031 144.995C44.1622 144.995 15.0062 115.839 15.0062 79.9977C15.0062 44.1564 44.1622 15 80.0031 15C115.844 15 145 44.1564 145 79.9977C145 115.839 115.844 144.995 80.0031 144.995ZM80.0031 23.5062C48.8556 23.5062 23.5124 48.8499 23.5124 79.9977C23.5124 111.146 48.8556 136.489 80.0031 136.489C111.151 136.489 136.494 111.146 136.494 79.9977C136.494 48.8499 111.151 23.5062 80.0031 23.5062Z" fill="white"/>
<path d="M51.1428 129.019C50.0522 129.019 48.9465 128.949 47.8308 128.809C39.2107 127.723 30.8357 122.344 24.8521 114.043C18.3332 104.996 14.9261 93.2125 15.0012 79.9728L23.5063 80.0228C23.4062 98.021 32.2665 118.281 48.8915 120.372C59.0025 121.638 67.0273 114.448 70.3493 101.118L81.391 56.8208C83.6023 47.9442 87.7548 40.8891 93.3882 36.4208C98.8014 32.1326 105.29 30.3213 112.159 31.1819C120.78 32.2677 129.155 37.6467 135.138 45.9478C141.657 54.9944 145.064 66.7781 144.989 80.0178L136.484 79.9678C136.584 61.9695 127.724 41.7097 111.099 39.6181C100.988 38.3422 92.9629 45.5425 89.6409 58.8723L78.5993 103.17C76.388 112.046 72.2355 119.101 66.6021 123.57C62.0694 127.162 56.7812 129.014 51.1428 129.014V129.019Z" fill="white"/>
<path d="M62.614 66.1174L62.0518 74.6051L98.5737 77.0248L99.1359 68.5371L62.614 66.1174Z" fill="white"/>
<path d="M61.4865 83.0938L60.9243 91.5815L97.4462 94.0012L98.0084 85.5135L61.4865 83.0938Z" fill="white"/>
</svg>
