<svg id="svg" version="1.1" xmlns="http://www.w3.org/2000/svg" xmlns:xlink="http://www.w3.org/1999/xlink" width="400" height="400" viewBox="0, 0, 400,400"><g id="svgg"><path id="path0" d="M232.908 64.500 C 230.138 70.330,228.803 72.689,227.083 74.789 C 225.454 76.778,225.132 77.404,225.467 77.936 C 225.937 78.685,225.921 78.675,246.622 90.600 C 260.182 98.411,290.605 116.023,292.278 117.030 C 294.772 118.532,295.706 118.408,296.457 116.475 C 297.710 113.253,299.340 110.258,301.124 107.900 C 303.906 104.224,303.976 103.856,302.121 102.652 C 301.284 102.109,293.580 97.623,285.000 92.683 C 253.076 74.304,238.549 65.896,236.765 64.764 C 234.562 63.367,233.481 63.293,232.908 64.500 M178.875 81.900 C 178.680 82.285,178.112 83.860,177.611 85.400 C 177.111 86.940,176.372 89.190,175.969 90.400 C 175.566 91.610,175.035 93.320,174.788 94.200 C 174.541 95.080,173.983 97.060,173.548 98.600 C 169.665 112.358,166.159 128.456,164.184 141.600 C 163.870 143.690,163.525 145.771,163.418 146.225 C 163.310 146.678,162.945 149.468,162.607 152.425 C 162.268 155.381,161.826 159.060,161.624 160.600 C 159.669 175.529,159.803 239.568,161.795 242.792 C 161.888 242.943,162.167 245.121,162.414 247.633 C 163.313 256.761,166.017 273.517,168.250 283.800 C 169.135 287.875,172.393 301.230,172.788 302.400 C 172.974 302.950,173.614 305.020,174.211 307.000 C 178.942 322.698,179.083 322.935,182.338 320.619 C 184.894 318.800,187.676 317.472,191.047 316.462 C 195.259 315.200,195.204 315.456,192.869 308.113 C 190.993 302.214,190.244 299.632,188.368 292.600 C 186.607 285.997,186.273 284.552,184.077 274.000 C 175.178 231.238,174.646 179.388,182.663 136.200 C 184.854 124.399,186.158 118.463,188.399 110.096 C 190.380 102.696,190.992 100.588,192.869 94.687 C 195.166 87.462,195.181 87.564,191.648 86.542 C 188.525 85.640,185.584 84.298,183.061 82.623 C 180.699 81.055,179.413 80.833,178.875 81.900 M107.008 123.187 C 106.877 123.400,106.719 125.875,106.659 128.687 C 106.580 132.305,106.334 134.460,105.815 136.057 C 104.666 139.591,104.533 139.490,112.600 141.214 C 120.216 142.841,127.253 144.633,133.800 146.613 C 135.780 147.211,138.218 147.929,139.219 148.207 C 140.219 148.485,142.649 149.292,144.619 150.001 C 152.020 152.664,152.404 152.634,152.892 149.359 C 153.053 148.282,153.558 144.932,154.014 141.915 C 154.767 136.943,154.722 134.800,153.867 134.800 C 153.809 134.800,151.700 134.098,149.181 133.239 C 142.215 130.866,126.166 126.437,120.000 125.188 C 119.010 124.987,116.044 124.368,113.409 123.811 C 108.114 122.694,107.358 122.620,107.008 123.187 M300.452 151.100 C 299.813 151.705,297.425 154.267,295.145 156.794 C 285.296 167.710,262.946 188.252,259.490 189.566 C 258.312 190.014,257.355 189.558,253.317 186.628 C 238.036 175.539,219.418 164.411,198.155 153.655 C 190.422 149.744,190.803 149.609,189.880 156.600 C 188.252 168.935,187.894 167.976,195.600 171.917 C 211.065 179.828,231.219 191.990,241.700 199.737 C 243.369 200.971,243.135 202.114,240.900 203.647 C 224.730 214.740,212.118 222.378,197.067 230.192 C 187.688 235.061,188.230 233.871,189.870 246.000 C 190.732 252.375,191.159 252.908,194.089 251.262 C 194.811 250.857,198.372 249.028,202.001 247.198 C 213.301 241.501,223.523 235.683,235.600 228.074 C 238.911 225.988,248.958 219.237,252.733 216.562 C 259.353 211.870,258.277 211.794,265.047 217.431 C 275.653 226.260,288.291 238.354,296.890 247.900 C 301.974 253.545,302.206 253.634,304.806 250.944 C 306.745 248.938,311.822 245.200,312.609 245.200 C 313.348 245.200,315.200 243.614,315.200 242.981 C 315.200 241.145,295.612 220.932,283.998 210.784 C 280.589 207.805,276.945 204.679,275.900 203.836 C 273.210 201.666,273.334 201.055,277.100 197.957 C 287.414 189.472,302.343 175.059,311.143 165.089 C 316.134 159.435,316.152 159.254,311.965 157.212 C 310.177 156.340,307.944 154.742,305.957 152.912 C 302.418 149.653,302.092 149.546,300.452 151.100 M150.000 250.759 C 149.357 251.117,139.657 254.438,137.000 255.209 C 136.120 255.464,134.230 256.026,132.800 256.457 C 126.202 258.445,113.552 261.572,108.717 262.411 C 105.105 263.037,104.865 263.391,105.784 266.732 C 106.217 268.307,106.617 271.530,106.759 274.600 L 107.000 279.800 108.096 279.926 C 110.711 280.227,128.851 275.893,142.400 271.729 C 154.810 267.916,154.603 268.041,154.240 264.600 C 152.904 251.919,152.177 249.545,150.000 250.759 M281.394 292.079 C 274.137 296.262,264.579 301.780,260.153 304.342 C 255.727 306.904,246.157 312.420,238.886 316.600 C 223.767 325.292,224.427 324.604,227.427 328.542 C 228.623 330.112,230.244 332.748,231.029 334.398 C 232.999 338.541,232.971 338.495,233.734 338.973 C 234.243 339.292,234.693 339.237,235.508 338.759 C 244.338 333.573,257.639 325.878,280.200 312.901 C 283.060 311.256,285.940 309.575,286.600 309.167 C 287.260 308.758,288.430 308.083,289.200 307.666 C 289.970 307.250,293.390 305.285,296.800 303.300 C 304.237 298.971,304.224 298.996,301.181 294.975 C 299.347 292.552,297.718 289.569,296.457 286.325 C 295.531 283.940,295.481 283.959,281.394 292.079 " stroke="none" fill="#235033" fill-rule="evenodd"></path><path id="path1" d="M0.000 200.000 L 0.000 400.000 200.000 400.000 L 400.000 400.000 400.000 200.000 L 400.000 0.000 200.000 0.000 L 0.000 0.000 0.000 200.000 M210.759 35.072 C 211.764 35.661,212.830 36.336,213.126 36.572 C 214.530 37.689,217.382 40.496,217.768 41.142 C 218.006 41.539,218.606 42.480,219.103 43.232 C 221.955 47.551,223.049 56.990,221.197 61.295 C 216.396 72.456,201.784 79.021,192.510 74.184 C 191.900 73.866,191.274 73.604,191.120 73.602 C 189.776 73.591,183.959 68.364,182.132 65.528 C 175.526 55.269,179.363 40.493,190.032 35.105 C 193.375 33.417,207.896 33.394,210.759 35.072 M236.019 62.623 C 236.304 62.966,237.091 63.505,237.768 63.821 C 238.446 64.136,239.720 64.851,240.600 65.409 C 241.480 65.967,242.695 66.615,243.300 66.851 C 243.905 67.086,244.400 67.404,244.400 67.559 C 244.400 67.713,245.030 68.067,245.800 68.346 C 246.570 68.624,247.200 69.020,247.200 69.226 C 247.200 69.432,247.403 69.600,247.651 69.600 C 248.057 69.600,249.224 70.244,253.944 73.073 C 254.745 73.552,255.940 74.227,256.600 74.571 C 257.260 74.915,258.385 75.557,259.100 75.998 C 262.425 78.049,263.091 78.438,264.400 79.096 C 265.170 79.483,265.894 79.924,266.008 80.075 C 266.123 80.226,266.663 80.550,267.208 80.796 C 267.754 81.041,268.920 81.681,269.800 82.218 C 270.680 82.755,271.940 83.478,272.600 83.825 C 273.260 84.171,274.457 84.848,275.261 85.327 C 276.064 85.807,277.933 86.920,279.414 87.800 C 280.895 88.680,282.758 89.793,283.553 90.273 C 284.349 90.752,285.540 91.429,286.200 91.775 C 286.860 92.122,288.120 92.842,289.000 93.375 C 289.880 93.909,291.140 94.624,291.800 94.964 C 292.460 95.305,293.270 95.760,293.600 95.976 C 293.930 96.191,296.360 97.574,299.000 99.048 C 304.751 102.260,305.200 102.618,305.200 103.984 C 305.200 105.069,303.654 107.514,302.592 108.108 C 302.266 108.291,302.000 108.642,302.000 108.888 C 302.000 109.135,301.746 109.621,301.435 109.969 C 300.577 110.926,298.046 116.003,297.581 117.696 C 296.953 119.987,294.326 120.263,291.496 118.335 C 288.431 116.247,288.002 116.000,287.440 116.000 C 287.114 116.000,286.725 115.802,286.575 115.559 C 286.425 115.317,285.739 114.854,285.051 114.532 C 284.363 114.209,283.143 113.552,282.339 113.073 C 281.536 112.593,279.646 111.495,278.139 110.634 C 276.633 109.773,275.310 108.960,275.200 108.826 C 275.090 108.693,274.550 108.359,274.000 108.084 C 273.450 107.809,272.280 107.150,271.400 106.620 C 270.520 106.089,269.260 105.371,268.600 105.025 C 267.940 104.678,266.680 103.955,265.800 103.418 C 264.920 102.881,263.754 102.241,263.208 101.996 C 262.663 101.750,262.123 101.426,262.008 101.275 C 261.894 101.124,260.585 100.370,259.101 99.600 C 257.616 98.830,256.401 98.083,256.401 97.939 C 256.400 97.796,255.905 97.474,255.300 97.223 C 254.695 96.973,253.543 96.371,252.739 95.884 C 251.936 95.398,250.136 94.321,248.739 93.491 C 247.343 92.662,245.840 91.769,245.400 91.507 C 244.960 91.246,244.123 90.718,243.540 90.334 C 242.957 89.950,241.998 89.514,241.408 89.366 C 240.818 89.218,240.241 88.850,240.125 88.549 C 240.009 88.247,239.602 88.000,239.219 88.000 C 238.837 88.000,238.198 87.640,237.800 87.200 C 237.402 86.760,236.904 86.400,236.693 86.400 C 235.695 86.400,224.489 79.513,224.000 78.600 C 223.352 77.389,223.851 76.179,225.898 73.996 C 226.622 73.225,227.503 72.055,227.856 71.396 C 229.684 67.984,230.748 65.678,230.992 64.600 C 231.537 62.183,234.641 60.963,236.019 62.623 M182.854 80.700 C 185.770 82.701,187.995 83.743,191.600 84.797 C 193.250 85.280,194.828 85.743,195.106 85.827 C 196.825 86.345,196.372 89.813,193.542 97.800 C 193.309 98.460,192.854 100.080,192.531 101.400 C 192.209 102.720,191.778 103.971,191.573 104.180 C 191.368 104.389,191.203 104.929,191.206 105.380 C 191.209 105.831,190.864 107.370,190.439 108.800 C 190.013 110.230,189.288 112.660,188.827 114.200 C 188.366 115.740,187.996 117.270,188.005 117.600 C 188.014 117.930,187.657 119.730,187.212 121.600 C 185.764 127.692,184.272 135.381,183.565 140.400 C 183.332 142.050,182.794 145.380,182.370 147.800 C 181.945 150.220,181.591 153.100,181.585 154.200 C 181.578 155.300,181.309 157.640,180.987 159.400 C 180.666 161.160,180.219 165.930,179.995 170.000 C 179.771 174.070,179.414 178.930,179.202 180.800 C 177.528 195.558,178.887 229.762,182.046 252.400 C 182.276 254.050,182.632 256.660,182.837 258.200 C 183.344 262.019,184.714 269.876,185.592 274.000 C 187.007 280.651,188.061 285.423,188.464 287.000 C 188.688 287.880,189.123 289.590,189.430 290.800 C 190.295 294.211,191.429 298.097,191.881 299.200 C 192.107 299.750,192.416 301.051,192.569 302.091 C 192.721 303.131,193.004 304.079,193.196 304.198 C 193.389 304.317,193.758 305.446,194.016 306.707 C 194.275 307.968,194.670 309.225,194.893 309.501 C 197.289 312.454,195.977 317.600,192.829 317.600 C 191.054 317.600,185.352 320.188,182.440 322.315 C 179.636 324.363,178.615 324.127,177.183 321.100 C 176.533 319.725,176.000 318.186,176.000 317.680 C 176.000 317.174,175.745 316.268,175.434 315.666 C 175.123 315.065,174.736 313.859,174.574 312.986 C 174.412 312.114,174.046 311.040,173.760 310.600 C 173.474 310.160,173.120 308.990,172.973 308.000 C 172.826 307.010,172.454 305.796,172.146 305.303 C 171.838 304.810,171.474 303.550,171.338 302.503 C 171.201 301.456,170.940 300.408,170.757 300.174 C 170.416 299.737,170.116 298.614,168.037 290.000 C 165.848 280.931,165.610 279.828,165.196 276.800 C 164.970 275.150,164.610 273.260,164.397 272.600 C 164.184 271.940,163.835 269.780,163.623 267.800 C 163.410 265.820,163.047 263.570,162.815 262.800 C 162.583 262.030,162.292 259.870,162.167 258.000 C 162.043 256.130,161.670 253.340,161.340 251.800 C 161.009 250.260,160.649 246.660,160.539 243.800 C 160.429 240.940,160.037 237.250,159.669 235.600 C 158.656 231.059,158.655 170.147,159.668 165.600 C 160.036 163.950,160.441 160.350,160.568 157.600 C 160.695 154.850,161.063 151.520,161.385 150.200 C 161.708 148.880,161.979 146.810,161.989 145.600 C 161.998 144.390,162.364 141.904,162.803 140.075 C 163.241 138.246,163.602 136.086,163.605 135.275 C 163.607 134.464,163.965 132.360,164.400 130.600 C 164.835 128.840,165.193 126.983,165.195 126.474 C 165.203 125.009,167.743 114.127,169.835 106.600 C 170.385 104.620,171.020 102.100,171.247 101.000 C 171.473 99.900,171.915 98.601,172.229 98.114 C 172.543 97.627,172.808 96.817,172.818 96.314 C 172.827 95.811,173.108 94.680,173.442 93.800 C 173.775 92.920,174.305 91.166,174.619 89.903 C 174.932 88.640,175.359 87.290,175.567 86.903 C 175.775 86.516,176.125 85.480,176.344 84.600 C 177.800 78.757,178.986 78.046,182.854 80.700 M76.000 106.394 C 80.669 107.292,83.112 108.265,86.000 110.376 C 87.577 111.529,90.663 114.733,91.348 115.929 C 96.010 124.068,96.119 132.117,91.662 139.000 C 89.826 141.835,86.915 144.824,85.012 145.829 C 84.566 146.065,83.840 146.464,83.400 146.715 C 76.160 150.850,65.938 149.768,59.638 144.200 C 57.501 142.311,56.849 141.575,54.861 138.810 L 53.000 136.221 52.876 128.278 C 52.736 119.272,52.766 119.151,56.220 114.912 C 59.428 110.974,63.489 108.146,67.352 107.160 C 72.166 105.932,73.146 105.845,76.000 106.394 M333.135 106.838 C 340.099 108.792,344.510 112.408,347.964 118.994 C 349.378 121.690,349.220 134.217,347.737 137.003 C 340.925 149.801,325.804 153.254,314.993 144.478 C 312.967 142.834,309.302 138.385,309.227 137.478 C 309.212 137.301,308.795 136.311,308.300 135.278 C 307.490 133.588,307.400 132.799,307.400 127.400 C 307.400 121.917,307.478 121.263,308.300 119.806 C 308.795 118.929,309.200 118.083,309.200 117.926 C 309.200 117.429,311.496 114.214,313.078 112.498 C 315.091 110.313,318.666 108.215,322.163 107.164 C 323.723 106.696,325.180 106.256,325.400 106.188 C 326.682 105.788,330.555 106.114,333.135 106.838 M113.400 122.206 C 114.280 122.489,116.080 122.847,117.400 123.000 C 118.720 123.153,120.358 123.510,121.039 123.793 C 121.720 124.076,123.250 124.439,124.439 124.598 C 125.628 124.758,127.140 125.111,127.800 125.382 C 128.460 125.653,129.720 126.002,130.600 126.157 C 131.480 126.312,133.010 126.679,134.000 126.972 C 134.990 127.265,137.510 128.002,139.600 128.609 C 141.690 129.217,143.580 129.852,143.800 130.021 C 144.020 130.190,144.920 130.455,145.800 130.609 C 146.680 130.763,147.779 131.126,148.242 131.416 C 148.704 131.705,149.784 132.069,150.642 132.225 C 155.491 133.107,157.224 135.506,155.973 139.603 C 155.738 140.371,155.313 143.478,155.028 146.508 C 154.340 153.826,152.668 155.282,147.800 152.800 C 146.937 152.360,145.987 152.000,145.690 152.000 C 145.392 152.000,144.305 151.657,143.274 151.237 C 140.814 150.237,130.423 147.051,124.200 145.390 C 122.880 145.038,120.415 144.502,118.722 144.200 C 117.029 143.898,115.319 143.478,114.922 143.266 C 114.525 143.054,113.120 142.760,111.800 142.613 C 109.105 142.312,105.284 141.288,104.449 140.643 C 103.721 140.080,104.077 134.984,104.966 133.266 C 105.446 132.338,105.600 130.822,105.600 127.040 C 105.600 120.793,106.769 120.069,113.400 122.206 M305.600 150.677 C 306.810 151.866,308.070 153.068,308.400 153.349 C 309.434 154.229,314.844 157.200,315.412 157.200 C 316.131 157.200,317.200 158.764,317.200 159.817 C 317.200 160.279,316.213 161.721,315.003 163.028 C 313.795 164.333,311.501 166.840,309.906 168.600 C 308.312 170.360,303.300 175.490,298.769 180.000 C 291.499 187.236,288.720 189.874,284.758 193.299 C 284.184 193.795,282.586 195.190,281.207 196.400 C 279.827 197.610,278.406 198.764,278.049 198.965 C 277.692 199.165,277.256 199.570,277.080 199.865 C 276.904 200.159,276.499 200.400,276.180 200.400 C 275.828 200.400,275.600 200.793,275.600 201.400 C 275.600 201.950,275.757 202.400,275.949 202.400 C 276.434 202.400,280.818 205.914,283.978 208.835 C 284.831 209.624,286.130 210.770,286.865 211.382 C 288.222 212.513,298.297 221.975,300.559 224.244 C 302.000 225.689,308.707 232.905,311.254 235.751 C 312.214 236.824,313.640 238.354,314.423 239.151 C 317.716 242.503,317.786 244.433,314.669 245.839 C 313.971 246.154,313.040 246.630,312.600 246.896 C 309.879 248.543,308.561 249.459,308.280 249.899 C 308.104 250.174,307.784 250.400,307.568 250.400 C 307.352 250.400,306.506 251.135,305.688 252.033 C 303.199 254.764,300.873 255.220,299.609 253.223 C 297.739 250.267,271.469 224.000,270.383 224.000 C 270.194 224.000,269.896 223.747,269.720 223.437 C 269.544 223.127,267.816 221.598,265.879 220.038 C 263.943 218.478,261.783 216.662,261.079 216.003 C 258.983 214.038,258.488 214.143,253.859 217.535 C 248.727 221.296,242.220 225.600,241.666 225.600 C 241.410 225.600,241.200 225.753,241.200 225.940 C 241.200 226.319,237.360 228.800,236.773 228.800 C 236.568 228.800,236.400 228.986,236.400 229.213 C 236.400 229.439,236.085 229.742,235.700 229.885 C 235.315 230.028,233.520 231.096,231.710 232.257 C 229.901 233.419,227.921 234.652,227.310 234.997 C 226.700 235.342,225.660 235.976,225.000 236.406 C 224.340 236.836,223.350 237.371,222.800 237.594 C 222.250 237.817,221.530 238.183,221.200 238.408 C 220.870 238.632,220.060 239.095,219.400 239.436 C 218.740 239.776,217.480 240.485,216.600 241.011 C 215.720 241.537,214.370 242.307,213.600 242.722 C 212.830 243.138,211.030 244.134,209.600 244.937 C 208.170 245.740,204.079 247.848,200.508 249.623 C 196.938 251.398,193.912 253.018,193.785 253.225 C 193.657 253.431,192.781 253.600,191.838 253.600 C 189.202 253.600,188.888 253.003,188.581 247.393 C 188.437 244.757,188.067 241.712,187.760 240.627 C 186.220 235.199,186.975 233.593,192.280 231.018 C 194.436 229.972,196.470 228.957,196.800 228.764 C 197.130 228.570,198.030 228.083,198.800 227.682 C 199.570 227.280,200.560 226.751,201.000 226.505 C 201.440 226.259,202.070 225.947,202.400 225.810 C 202.730 225.674,203.720 225.122,204.600 224.584 C 205.480 224.046,206.740 223.329,207.400 222.990 C 208.060 222.652,209.140 222.029,209.800 221.607 C 211.081 220.788,216.034 217.865,218.133 216.690 C 218.830 216.300,219.940 215.624,220.600 215.189 C 221.260 214.754,222.354 214.139,223.032 213.822 C 223.709 213.505,224.496 212.966,224.781 212.623 C 225.065 212.280,225.524 212.000,225.800 212.000 C 226.076 212.000,226.543 211.710,226.837 211.355 C 227.131 211.001,227.653 210.596,227.995 210.455 C 229.603 209.796,240.761 202.129,240.882 201.600 C 241.017 201.012,238.417 198.800,237.591 198.800 C 237.362 198.800,237.071 198.530,236.945 198.200 C 236.818 197.870,236.526 197.600,236.295 197.600 C 236.064 197.600,235.286 197.150,234.564 196.600 C 233.843 196.050,233.162 195.600,233.051 195.600 C 232.940 195.600,230.847 194.250,228.400 192.600 C 225.953 190.950,223.804 189.600,223.624 189.600 C 223.445 189.600,223.065 189.320,222.781 188.977 C 222.496 188.634,221.709 188.093,221.032 187.774 C 220.354 187.455,219.080 186.755,218.200 186.218 C 217.320 185.681,216.240 185.043,215.800 184.800 C 215.360 184.557,214.280 183.919,213.400 183.382 C 212.520 182.845,211.260 182.122,210.600 181.775 C 209.940 181.429,208.680 180.709,207.800 180.175 C 206.920 179.642,205.660 178.927,205.000 178.587 C 204.340 178.246,203.080 177.534,202.200 177.004 C 201.320 176.475,200.150 175.852,199.600 175.621 C 199.050 175.390,198.330 175.017,198.000 174.792 C 197.670 174.568,196.860 174.115,196.200 173.786 C 195.540 173.457,194.730 173.031,194.400 172.839 C 194.070 172.646,192.720 171.988,191.400 171.375 C 187.118 169.388,186.411 167.598,187.800 162.265 C 188.130 160.998,188.415 158.845,188.434 157.480 C 188.521 151.067,189.228 149.200,191.568 149.200 C 192.470 149.200,204.446 154.970,208.600 157.407 C 209.480 157.923,210.740 158.624,211.400 158.964 C 212.060 159.305,212.870 159.768,213.200 159.992 C 213.530 160.217,214.250 160.585,214.800 160.810 C 215.350 161.035,216.520 161.647,217.400 162.170 C 218.280 162.692,220.080 163.689,221.400 164.385 C 222.720 165.081,225.060 166.446,226.600 167.420 C 228.140 168.393,229.985 169.464,230.700 169.800 C 231.415 170.136,232.000 170.588,232.000 170.805 C 232.000 171.022,232.225 171.201,232.500 171.202 C 232.775 171.204,234.170 172.013,235.600 173.000 C 237.030 173.987,238.425 174.796,238.700 174.798 C 238.975 174.799,239.200 174.986,239.200 175.213 C 239.200 175.439,239.515 175.740,239.900 175.881 C 240.618 176.144,248.228 181.047,249.068 181.787 C 249.325 182.014,250.810 183.083,252.368 184.161 C 253.925 185.240,255.200 186.275,255.200 186.461 C 255.200 186.648,255.442 186.800,255.738 186.800 C 256.034 186.800,256.602 187.160,257.000 187.600 C 258.107 188.823,259.624 188.352,262.060 186.029 C 262.422 185.683,263.489 184.770,264.431 184.000 C 268.512 180.661,272.624 177.051,272.920 176.546 C 273.096 176.246,273.386 176.000,273.565 176.000 C 274.551 176.000,296.400 154.114,296.400 153.126 C 296.400 152.947,296.558 152.800,296.751 152.800 C 296.945 152.800,297.858 151.821,298.782 150.624 C 301.268 147.401,302.274 147.409,305.600 150.677 M153.179 249.579 C 154.209 250.609,154.676 252.594,154.972 257.200 C 155.106 259.290,155.521 262.229,155.893 263.730 C 156.959 268.030,156.109 268.899,148.400 271.395 C 146.530 272.001,144.433 272.744,143.740 273.048 C 143.046 273.352,142.282 273.600,142.041 273.600 C 141.800 273.600,140.567 273.944,139.302 274.365 C 138.036 274.786,136.280 275.253,135.400 275.401 C 134.520 275.550,133.600 275.837,133.355 276.039 C 133.110 276.241,131.850 276.594,130.555 276.822 C 129.260 277.051,127.570 277.478,126.800 277.771 C 126.030 278.065,124.428 278.437,123.239 278.598 C 122.050 278.760,120.520 279.123,119.839 279.406 C 119.158 279.689,117.347 280.053,115.816 280.216 C 114.284 280.378,112.445 280.756,111.729 281.056 C 107.005 283.029,105.600 281.802,105.600 275.700 C 105.600 271.973,105.444 270.459,104.966 269.534 C 104.617 268.859,104.235 267.023,104.118 265.453 C 103.842 261.766,104.303 261.288,108.668 260.741 C 110.391 260.525,112.430 260.111,113.200 259.822 C 113.970 259.532,115.590 259.171,116.800 259.019 C 118.010 258.867,119.540 258.504,120.200 258.212 C 120.860 257.921,122.390 257.561,123.600 257.412 C 124.810 257.264,126.340 256.900,127.000 256.604 C 127.660 256.308,128.920 255.946,129.800 255.798 C 130.680 255.650,131.940 255.290,132.600 254.998 C 133.260 254.706,134.520 254.338,135.400 254.180 C 136.280 254.023,137.352 253.712,137.782 253.490 C 138.211 253.267,139.381 252.851,140.382 252.566 C 141.990 252.106,144.688 251.146,149.200 249.427 C 151.225 248.655,152.296 248.696,153.179 249.579 M331.219 253.846 C 337.405 254.909,341.800 257.675,346.305 263.342 C 348.987 266.715,350.050 279.807,348.008 284.307 C 345.362 290.136,339.541 294.564,332.100 296.406 L 328.400 297.322 324.700 296.399 C 317.261 294.545,312.039 290.454,308.872 284.000 L 307.400 281.000 307.400 274.800 L 307.400 268.600 308.895 265.549 C 311.156 260.934,313.796 258.288,319.200 255.221 C 320.239 254.631,325.182 253.314,326.630 253.242 C 327.086 253.219,329.151 253.491,331.219 253.846 M77.967 254.058 C 82.669 254.875,91.200 260.655,91.200 263.022 C 91.200 263.340,91.341 263.600,91.514 263.600 C 92.167 263.600,94.019 268.333,94.620 271.542 C 95.530 276.397,93.632 285.504,91.537 286.333 C 91.351 286.407,91.200 286.712,91.200 287.011 C 91.200 290.936,76.511 298.018,71.561 296.479 C 70.813 296.246,69.390 295.933,68.400 295.783 C 63.476 295.038,58.302 291.129,54.463 285.254 L 52.800 282.709 52.800 275.000 L 52.800 267.291 54.463 264.746 C 57.260 260.465,60.094 257.852,64.752 255.259 C 67.354 253.809,73.386 253.261,77.967 254.058 M296.800 283.600 C 297.240 284.040,297.600 284.670,297.600 284.999 C 297.600 286.443,301.869 294.165,303.085 294.920 C 303.368 295.096,303.600 295.411,303.600 295.620 C 303.600 295.829,303.960 296.360,304.400 296.800 C 306.341 298.741,305.178 300.631,300.736 302.757 C 299.270 303.458,297.853 304.295,297.587 304.616 C 297.320 304.937,296.764 305.200,296.351 305.200 C 295.938 305.200,295.600 305.360,295.600 305.557 C 295.600 305.753,294.925 306.213,294.100 306.580 C 293.275 306.947,291.880 307.685,291.000 308.221 C 290.120 308.756,288.827 309.463,288.127 309.791 C 287.427 310.119,286.735 310.582,286.588 310.819 C 286.442 311.056,285.935 311.415,285.461 311.618 C 284.988 311.820,283.880 312.434,283.000 312.982 C 282.120 313.530,280.860 314.252,280.200 314.588 C 279.540 314.924,278.460 315.559,277.800 316.000 C 277.140 316.441,275.989 317.085,275.242 317.431 C 274.495 317.776,273.627 318.316,273.313 318.630 C 272.999 318.943,272.499 319.200,272.200 319.200 C 271.901 319.200,271.401 319.457,271.087 319.770 C 270.773 320.084,269.905 320.624,269.158 320.969 C 268.411 321.315,267.260 321.954,266.600 322.389 C 265.305 323.243,263.314 324.395,261.400 325.397 C 260.740 325.743,259.660 326.371,259.000 326.793 C 256.703 328.261,248.379 333.054,245.400 334.623 C 244.740 334.971,243.480 335.686,242.600 336.213 C 241.720 336.739,240.301 337.582,239.446 338.085 C 238.591 338.588,237.575 339.187,237.188 339.416 C 236.802 339.644,236.209 340.061,235.870 340.342 C 234.146 341.772,231.415 340.552,230.964 338.150 C 230.826 337.413,230.165 335.773,229.496 334.505 C 228.827 333.237,228.039 331.736,227.745 331.169 C 227.451 330.602,226.398 329.278,225.405 328.227 C 223.112 325.799,223.143 322.800,225.462 322.800 C 225.758 322.800,226.000 322.640,226.000 322.443 C 226.000 322.247,226.675 321.787,227.500 321.420 C 228.325 321.053,229.652 320.359,230.450 319.876 C 235.469 316.842,243.322 312.316,246.600 310.570 C 249.160 309.206,251.290 307.935,255.423 305.306 C 255.851 305.034,256.740 304.540,257.400 304.207 C 258.060 303.874,259.140 303.241,259.800 302.800 C 260.460 302.359,261.540 301.722,262.200 301.385 C 262.860 301.048,264.390 300.155,265.600 299.402 C 266.810 298.648,268.012 298.024,268.271 298.016 C 268.531 298.007,269.012 297.731,269.341 297.402 C 269.670 297.072,270.358 296.626,270.870 296.408 C 271.381 296.191,272.520 295.560,273.400 295.004 C 274.280 294.449,275.540 293.714,276.200 293.370 C 276.860 293.026,278.120 292.311,279.000 291.780 C 279.880 291.250,281.050 290.589,281.600 290.311 C 282.150 290.033,282.780 289.659,283.000 289.479 C 283.722 288.890,286.162 287.459,288.288 286.379 C 289.436 285.796,290.653 285.088,290.992 284.806 C 293.309 282.884,295.607 282.407,296.800 283.600 M204.675 327.401 C 224.350 331.740,228.814 357.729,211.400 366.547 C 208.866 367.830,193.242 368.189,191.200 367.011 C 190.650 366.694,189.765 366.240,189.232 366.001 C 185.704 364.423,180.487 356.750,179.555 351.768 C 176.967 337.944,190.955 324.375,204.675 327.401 " stroke="none" fill="#ebebeb" fill-rule="evenodd"></path><path id="path2" d="M192.304 34.953 C 183.173 38.310,177.423 50.577,180.563 60.000 C 186.005 76.329,205.983 79.788,216.967 66.304 C 224.797 56.692,221.340 41.827,209.800 35.482 C 207.770 34.365,194.956 33.978,192.304 34.953 M69.086 107.616 C 64.218 108.434,59.182 112.116,55.461 117.576 L 53.400 120.600 53.400 127.615 L 53.400 134.629 54.800 136.973 C 61.454 148.110,74.540 151.660,84.521 145.035 C 103.531 132.417,91.731 103.809,69.086 107.616 M323.200 107.757 C 312.148 110.218,305.148 123.001,308.850 133.961 C 314.879 151.814,338.149 153.532,346.749 136.759 L 348.400 133.538 348.400 127.800 L 348.400 122.062 346.754 118.853 C 342.195 109.961,332.921 105.592,323.200 107.757 M68.901 254.823 C 63.897 255.810,58.239 260.187,54.970 265.600 L 53.400 268.200 53.400 275.000 L 53.400 281.800 54.861 284.200 C 62.633 296.967,78.067 299.469,87.968 289.568 C 102.432 275.104,89.115 250.835,68.901 254.823 M323.200 254.682 C 319.275 255.361,312.991 260.051,310.671 264.032 C 298.834 284.349,324.964 306.309,342.099 290.444 C 347.439 285.500,348.527 282.666,348.324 274.229 C 348.169 267.762,348.276 268.155,345.470 263.710 C 341.296 257.099,331.705 253.211,323.200 254.682 M196.213 328.427 C 178.136 332.943,174.753 357.288,191.000 365.936 C 193.886 367.472,207.900 367.588,210.687 366.099 C 216.776 362.845,221.600 354.970,221.600 348.285 C 221.600 336.101,208.019 325.478,196.213 328.427 " stroke="none" fill="#60be8b" fill-rule="evenodd"></path><path id="path3" d="M190.032 35.105 C 179.363 40.493,175.526 55.269,182.132 65.528 C 183.959 68.364,189.776 73.591,191.120 73.602 C 191.274 73.604,191.900 73.866,192.510 74.184 C 200.099 78.143,211.162 74.730,218.200 66.260 C 223.079 60.388,223.491 49.878,219.103 43.232 C 218.606 42.480,218.006 41.539,217.768 41.142 C 217.382 40.496,214.530 37.689,213.126 36.572 C 209.315 33.541,194.939 32.628,190.032 35.105 M209.800 35.482 C 227.120 45.006,223.802 69.733,204.600 74.227 C 182.148 79.481,170.379 48.948,189.904 36.098 C 192.966 34.082,206.493 33.663,209.800 35.482 M231.893 62.700 C 231.546 63.085,231.141 63.940,230.992 64.600 C 230.748 65.678,229.684 67.984,227.856 71.396 C 227.503 72.055,226.622 73.225,225.898 73.996 C 223.851 76.179,223.352 77.389,224.000 78.600 C 224.489 79.513,235.695 86.400,236.693 86.400 C 236.904 86.400,237.402 86.760,237.800 87.200 C 238.198 87.640,238.837 88.000,239.219 88.000 C 239.602 88.000,240.009 88.247,240.125 88.549 C 240.241 88.850,240.818 89.218,241.408 89.366 C 241.998 89.514,242.957 89.950,243.540 90.334 C 244.123 90.718,244.960 91.246,245.400 91.507 C 245.840 91.769,247.343 92.662,248.739 93.491 C 250.136 94.321,251.936 95.398,252.739 95.884 C 253.543 96.371,254.695 96.973,255.300 97.223 C 255.905 97.474,256.400 97.796,256.401 97.939 C 256.401 98.083,257.616 98.830,259.101 99.600 C 260.585 100.370,261.894 101.124,262.008 101.275 C 262.123 101.426,262.663 101.750,263.208 101.996 C 263.754 102.241,264.920 102.881,265.800 103.418 C 266.680 103.955,267.940 104.678,268.600 105.025 C 269.260 105.371,270.520 106.089,271.400 106.620 C 272.280 107.150,273.450 107.809,274.000 108.084 C 274.550 108.359,275.090 108.693,275.200 108.826 C 275.310 108.960,276.633 109.773,278.139 110.634 C 279.646 111.495,281.536 112.593,282.339 113.073 C 283.143 113.552,284.363 114.209,285.051 114.532 C 285.739 114.854,286.425 115.317,286.575 115.559 C 286.725 115.802,287.114 116.000,287.440 116.000 C 288.002 116.000,288.431 116.247,291.496 118.335 C 294.326 120.263,296.953 119.987,297.581 117.696 C 298.046 116.003,300.577 110.926,301.435 109.969 C 301.746 109.621,302.000 109.135,302.000 108.888 C 302.000 108.642,302.266 108.291,302.592 108.108 C 303.654 107.514,305.200 105.069,305.200 103.984 C 305.200 102.618,304.751 102.260,299.000 99.048 C 296.360 97.574,293.930 96.191,293.600 95.976 C 293.270 95.760,292.460 95.305,291.800 94.964 C 291.140 94.624,289.880 93.909,289.000 93.375 C 288.120 92.842,286.860 92.122,286.200 91.775 C 285.540 91.429,284.349 90.752,283.553 90.273 C 282.758 89.793,280.895 88.680,279.414 87.800 C 277.933 86.920,276.064 85.807,275.261 85.327 C 274.457 84.848,273.260 84.171,272.600 83.825 C 271.940 83.478,270.680 82.755,269.800 82.218 C 268.920 81.681,267.754 81.041,267.208 80.796 C 266.663 80.550,266.123 80.226,266.008 80.075 C 265.894 79.924,265.170 79.483,264.400 79.096 C 263.091 78.438,262.425 78.049,259.100 75.998 C 258.385 75.557,257.260 74.915,256.600 74.571 C 255.940 74.227,254.745 73.552,253.944 73.073 C 249.224 70.244,248.057 69.600,247.651 69.600 C 247.403 69.600,247.200 69.432,247.200 69.226 C 247.200 69.020,246.570 68.624,245.800 68.346 C 245.030 68.067,244.400 67.713,244.400 67.559 C 244.400 67.404,243.905 67.086,243.300 66.851 C 242.695 66.615,241.480 65.967,240.600 65.409 C 239.720 64.851,238.446 64.136,237.768 63.821 C 237.091 63.505,236.304 62.966,236.019 62.623 C 235.306 61.764,232.693 61.813,231.893 62.700 M245.603 69.100 C 251.560 72.565,257.102 75.796,257.917 76.281 C 258.733 76.765,259.670 77.289,260.000 77.443 C 260.511 77.683,264.686 80.083,266.875 81.395 C 267.247 81.618,269.947 83.179,272.875 84.864 C 309.640 106.021,305.937 103.186,302.387 107.451 C 300.307 109.948,298.456 113.166,297.363 116.185 C 296.404 118.833,295.259 119.556,293.529 118.604 C 291.021 117.225,251.192 94.127,248.238 92.338 C 247.159 91.685,245.237 90.577,243.967 89.875 C 235.439 85.166,225.103 78.965,224.782 78.366 C 224.180 77.242,224.302 76.891,225.919 75.091 C 228.196 72.556,229.132 70.948,231.733 65.100 C 233.174 61.860,233.136 61.849,245.603 69.100 M178.442 79.565 C 177.848 79.942,176.995 81.987,176.344 84.600 C 176.125 85.480,175.775 86.516,175.567 86.903 C 175.359 87.290,174.932 88.640,174.619 89.903 C 174.305 91.166,173.775 92.920,173.442 93.800 C 173.108 94.680,172.827 95.811,172.818 96.314 C 172.808 96.817,172.543 97.627,172.229 98.114 C 171.915 98.601,171.473 99.900,171.247 101.000 C 171.020 102.100,170.385 104.620,169.835 106.600 C 167.743 114.127,165.203 125.009,165.195 126.474 C 165.193 126.983,164.835 128.840,164.400 130.600 C 163.965 132.360,163.607 134.464,163.605 135.275 C 163.602 136.086,163.241 138.246,162.803 140.075 C 162.364 141.904,161.998 144.390,161.989 145.600 C 161.979 146.810,161.708 148.880,161.385 150.200 C 161.063 151.520,160.695 154.850,160.568 157.600 C 160.441 160.350,160.036 163.950,159.668 165.600 C 158.655 170.147,158.656 231.059,159.669 235.600 C 160.037 237.250,160.429 240.940,160.539 243.800 C 160.649 246.660,161.009 250.260,161.340 251.800 C 161.670 253.340,162.043 256.130,162.167 258.000 C 162.292 259.870,162.583 262.030,162.815 262.800 C 163.047 263.570,163.410 265.820,163.623 267.800 C 163.835 269.780,164.184 271.940,164.397 272.600 C 164.610 273.260,164.970 275.150,165.196 276.800 C 165.610 279.828,165.848 280.931,168.037 290.000 C 170.116 298.614,170.416 299.737,170.757 300.174 C 170.940 300.408,171.201 301.456,171.338 302.503 C 171.474 303.550,171.838 304.810,172.146 305.303 C 172.454 305.796,172.826 307.010,172.973 308.000 C 173.120 308.990,173.474 310.160,173.760 310.600 C 174.046 311.040,174.412 312.114,174.574 312.986 C 174.736 313.859,175.123 315.065,175.434 315.666 C 175.745 316.268,176.000 317.174,176.000 317.680 C 176.000 318.186,176.533 319.725,177.183 321.100 C 178.615 324.127,179.636 324.363,182.440 322.315 C 185.352 320.188,191.054 317.600,192.829 317.600 C 195.977 317.600,197.289 312.454,194.893 309.501 C 194.670 309.225,194.275 307.968,194.016 306.707 C 193.758 305.446,193.389 304.317,193.196 304.198 C 193.004 304.079,192.721 303.131,192.569 302.091 C 192.416 301.051,192.107 299.750,191.881 299.200 C 191.429 298.097,190.295 294.211,189.430 290.800 C 189.123 289.590,188.688 287.880,188.464 287.000 C 188.061 285.423,187.007 280.651,185.592 274.000 C 184.714 269.876,183.344 262.019,182.837 258.200 C 182.632 256.660,182.276 254.050,182.046 252.400 C 180.521 241.472,179.779 232.814,178.739 213.800 C 178.294 205.662,178.564 186.428,179.202 180.800 C 179.414 178.930,179.771 174.070,179.995 170.000 C 180.219 165.930,180.666 161.160,180.987 159.400 C 181.309 157.640,181.578 155.300,181.585 154.200 C 181.591 153.100,181.945 150.220,182.370 147.800 C 182.794 145.380,183.332 142.050,183.565 140.400 C 184.272 135.381,185.764 127.692,187.212 121.600 C 187.657 119.730,188.014 117.930,188.005 117.600 C 187.996 117.270,188.366 115.740,188.827 114.200 C 189.288 112.660,190.013 110.230,190.439 108.800 C 190.864 107.370,191.209 105.831,191.206 105.380 C 191.203 104.929,191.368 104.389,191.573 104.180 C 191.778 103.971,192.209 102.720,192.531 101.400 C 192.854 100.080,193.309 98.460,193.542 97.800 C 196.372 89.813,196.825 86.345,195.106 85.827 C 194.828 85.743,193.250 85.280,191.600 84.797 C 187.995 83.743,185.770 82.701,182.854 80.700 C 180.670 79.202,179.494 78.899,178.442 79.565 M183.152 81.769 C 186.056 83.664,189.759 85.316,192.084 85.752 C 195.697 86.430,196.063 87.500,194.389 92.495 C 192.766 97.340,190.056 106.479,189.435 109.200 C 189.159 110.410,188.732 112.030,188.487 112.800 C 187.919 114.588,186.857 119.059,186.208 122.400 C 185.930 123.830,185.501 125.810,185.253 126.800 C 184.291 130.650,183.236 136.712,181.564 148.000 C 175.496 188.970,177.054 238.705,185.637 278.000 C 187.009 284.278,188.016 288.497,188.598 290.400 C 188.901 291.390,189.270 292.830,189.419 293.600 C 189.568 294.370,190.011 296.080,190.404 297.400 C 190.796 298.720,191.519 301.150,192.008 302.800 C 192.498 304.450,193.507 307.616,194.250 309.835 C 196.146 315.502,195.899 316.169,191.507 317.222 C 188.794 317.873,185.565 319.315,182.985 321.028 C 180.237 322.852,178.675 322.874,178.008 321.100 C 177.739 320.385,177.352 319.440,177.148 319.000 C 176.944 318.560,176.520 317.300,176.207 316.200 C 175.893 315.100,175.251 312.940,174.778 311.400 C 172.960 305.472,172.327 303.345,171.921 301.800 C 171.690 300.920,171.169 299.030,170.764 297.600 C 170.359 296.170,169.566 293.020,169.002 290.600 C 168.437 288.180,167.817 285.570,167.622 284.800 C 167.290 283.483,165.895 276.191,164.600 269.000 C 164.283 267.240,163.838 264.387,163.610 262.659 C 163.383 260.932,163.116 259.388,163.018 259.229 C 162.920 259.071,162.555 256.093,162.207 252.612 C 161.860 249.131,161.499 246.161,161.407 246.011 C 161.314 245.861,160.951 241.883,160.599 237.169 C 160.247 232.456,159.793 226.440,159.592 223.800 C 159.129 217.753,159.124 182.019,159.585 176.400 C 159.775 174.090,160.127 169.590,160.367 166.400 C 160.608 163.210,161.078 158.530,161.412 156.000 C 161.746 153.470,162.287 149.330,162.614 146.800 C 164.269 134.002,167.711 116.774,170.764 106.000 C 171.169 104.570,171.711 102.590,171.968 101.600 C 173.155 97.028,175.948 87.779,177.608 82.924 C 178.373 80.687,178.761 80.243,180.121 80.046 C 180.298 80.021,181.662 80.796,183.152 81.769 M70.400 106.416 C 65.169 107.626,62.892 108.652,59.898 111.146 C 53.651 116.352,52.726 118.610,52.876 128.278 L 53.000 136.221 54.861 138.810 C 58.223 143.487,60.279 145.265,64.800 147.406 C 70.418 150.067,78.026 149.784,83.400 146.715 C 83.840 146.464,84.566 146.065,85.012 145.829 C 85.459 145.593,86.140 145.130,86.525 144.800 C 95.698 136.942,97.433 126.553,91.348 115.929 C 87.747 109.641,77.187 104.846,70.400 106.416 M325.400 106.188 C 325.180 106.256,323.723 106.696,322.163 107.164 C 318.666 108.215,315.091 110.313,313.078 112.498 C 311.496 114.214,309.200 117.429,309.200 117.926 C 309.200 118.083,308.795 118.929,308.300 119.806 C 307.478 121.263,307.400 121.917,307.400 127.400 C 307.400 132.799,307.490 133.588,308.300 135.278 C 308.795 136.311,309.212 137.301,309.227 137.478 C 309.302 138.385,312.967 142.834,314.993 144.478 C 325.804 153.254,340.925 149.801,347.737 137.003 C 349.220 134.217,349.378 121.690,347.964 118.994 C 343.429 110.347,332.309 104.036,325.400 106.188 M78.052 107.776 C 93.101 110.966,99.119 130.016,88.688 141.443 C 78.834 152.240,62.645 150.104,54.800 136.973 L 53.400 134.629 53.400 127.615 L 53.400 120.600 55.461 117.576 C 61.201 109.154,68.866 105.829,78.052 107.776 M332.608 107.635 C 338.174 108.664,343.830 113.149,346.754 118.853 L 348.400 122.062 348.400 127.800 L 348.400 133.538 346.749 136.759 C 336.615 156.522,308.000 149.580,308.000 127.358 C 308.000 114.257,319.325 105.180,332.608 107.635 M106.300 121.617 C 105.693 121.983,105.600 122.706,105.600 127.040 C 105.600 130.822,105.446 132.338,104.966 133.266 C 104.077 134.984,103.721 140.080,104.449 140.643 C 105.284 141.288,109.105 142.312,111.800 142.613 C 113.120 142.760,114.525 143.054,114.922 143.266 C 115.319 143.478,117.029 143.898,118.722 144.200 C 120.415 144.502,122.880 145.038,124.200 145.390 C 130.423 147.051,140.814 150.237,143.274 151.237 C 144.305 151.657,145.392 152.000,145.690 152.000 C 145.987 152.000,146.937 152.360,147.800 152.800 C 152.668 155.282,154.340 153.826,155.028 146.508 C 155.313 143.478,155.738 140.371,155.973 139.603 C 157.224 135.506,155.491 133.107,150.642 132.225 C 149.784 132.069,148.704 131.705,148.242 131.416 C 147.779 131.126,146.680 130.763,145.800 130.609 C 144.920 130.455,144.020 130.190,143.800 130.021 C 143.580 129.852,141.690 129.217,139.600 128.609 C 137.510 128.002,134.990 127.265,134.000 126.972 C 133.010 126.679,131.480 126.312,130.600 126.157 C 129.720 126.002,128.460 125.653,127.800 125.382 C 127.140 125.111,125.628 124.758,124.439 124.598 C 123.250 124.439,121.720 124.076,121.039 123.793 C 120.358 123.510,118.720 123.153,117.400 123.000 C 116.080 122.847,114.280 122.489,113.400 122.206 C 111.039 121.445,107.121 121.120,106.300 121.617 M114.200 123.117 C 116.400 123.562,119.820 124.315,121.800 124.790 C 123.780 125.264,126.480 125.911,127.800 126.227 C 129.930 126.736,132.315 127.386,139.400 129.385 C 149.536 132.245,154.770 134.268,155.241 135.508 C 155.543 136.303,154.180 148.082,153.389 151.514 C 152.956 153.388,151.567 153.355,146.073 151.342 C 143.283 150.319,139.920 149.161,138.600 148.768 C 137.280 148.375,134.940 147.670,133.400 147.201 C 126.669 145.152,115.908 142.556,108.248 141.133 C 104.587 140.453,103.241 137.760,105.314 135.263 C 105.620 134.894,105.845 132.586,105.938 128.843 C 106.133 121.062,105.663 121.388,114.200 123.117 M301.330 148.306 C 300.852 148.384,299.705 149.427,298.782 150.624 C 297.858 151.821,296.945 152.800,296.751 152.800 C 296.558 152.800,296.400 152.947,296.400 153.126 C 296.400 154.114,274.551 176.000,273.565 176.000 C 273.386 176.000,273.096 176.246,272.920 176.546 C 272.624 177.051,268.512 180.661,264.431 184.000 C 263.489 184.770,262.422 185.683,262.060 186.029 C 259.624 188.352,258.107 188.823,257.000 187.600 C 256.602 187.160,256.034 186.800,255.738 186.800 C 255.442 186.800,255.200 186.648,255.200 186.461 C 255.200 186.275,253.925 185.240,252.368 184.161 C 250.810 183.083,249.325 182.014,249.068 181.787 C 248.228 181.047,240.618 176.144,239.900 175.881 C 239.515 175.740,239.200 175.439,239.200 175.213 C 239.200 174.986,238.975 174.799,238.700 174.798 C 238.425 174.796,237.030 173.987,235.600 173.000 C 234.170 172.013,232.775 171.204,232.500 171.202 C 232.225 171.201,232.000 171.022,232.000 170.805 C 232.000 170.588,231.415 170.136,230.700 169.800 C 229.985 169.464,228.140 168.393,226.600 167.420 C 225.060 166.446,222.720 165.081,221.400 164.385 C 220.080 163.689,218.280 162.692,217.400 162.170 C 216.520 161.647,215.350 161.035,214.800 160.810 C 214.250 160.585,213.530 160.217,213.200 159.992 C 212.870 159.768,212.060 159.305,211.400 158.964 C 210.740 158.624,209.480 157.923,208.600 157.407 C 204.446 154.970,192.470 149.200,191.568 149.200 C 189.228 149.200,188.521 151.067,188.434 157.480 C 188.415 158.845,188.130 160.998,187.800 162.265 C 186.411 167.598,187.118 169.388,191.400 171.375 C 192.720 171.988,194.070 172.646,194.400 172.839 C 194.730 173.031,195.540 173.457,196.200 173.786 C 196.860 174.115,197.670 174.568,198.000 174.792 C 198.330 175.017,199.050 175.390,199.600 175.621 C 200.150 175.852,201.320 176.475,202.200 177.004 C 203.080 177.534,204.340 178.246,205.000 178.587 C 205.660 178.927,206.920 179.642,207.800 180.175 C 208.680 180.709,209.940 181.429,210.600 181.775 C 211.260 182.122,212.520 182.845,213.400 183.382 C 214.280 183.919,215.360 184.557,215.800 184.800 C 216.240 185.043,217.320 185.681,218.200 186.218 C 219.080 186.755,220.354 187.455,221.032 187.774 C 221.709 188.093,222.496 188.634,222.781 188.977 C 223.065 189.320,223.445 189.600,223.624 189.600 C 223.804 189.600,225.953 190.950,228.400 192.600 C 230.847 194.250,232.940 195.600,233.051 195.600 C 233.162 195.600,233.843 196.050,234.564 196.600 C 235.286 197.150,236.064 197.600,236.295 197.600 C 236.526 197.600,236.818 197.870,236.945 198.200 C 237.071 198.530,237.362 198.800,237.591 198.800 C 238.417 198.800,241.017 201.012,240.882 201.600 C 240.761 202.129,229.603 209.796,227.995 210.455 C 227.653 210.596,227.131 211.001,226.837 211.355 C 226.543 211.710,226.076 212.000,225.800 212.000 C 225.524 212.000,225.065 212.280,224.781 212.623 C 224.496 212.966,223.709 213.505,223.032 213.822 C 222.354 214.139,221.260 214.754,220.600 215.189 C 219.940 215.624,218.830 216.300,218.133 216.690 C 216.034 217.865,211.081 220.788,209.800 221.607 C 209.140 222.029,208.060 222.652,207.400 222.990 C 206.740 223.329,205.480 224.046,204.600 224.584 C 203.720 225.122,202.730 225.674,202.400 225.810 C 202.070 225.947,201.440 226.259,201.000 226.505 C 200.560 226.751,199.570 227.280,198.800 227.682 C 198.030 228.083,197.130 228.570,196.800 228.764 C 196.470 228.957,194.436 229.972,192.280 231.018 C 186.975 233.593,186.220 235.199,187.760 240.627 C 188.067 241.712,188.437 244.757,188.581 247.393 C 188.888 253.003,189.202 253.600,191.838 253.600 C 192.781 253.600,193.657 253.431,193.785 253.225 C 193.912 253.018,196.938 251.398,200.508 249.623 C 204.079 247.848,208.170 245.740,209.600 244.937 C 211.030 244.134,212.830 243.138,213.600 242.722 C 214.370 242.307,215.720 241.537,216.600 241.011 C 217.480 240.485,218.740 239.776,219.400 239.436 C 220.060 239.095,220.870 238.632,221.200 238.408 C 221.530 238.183,222.250 237.817,222.800 237.594 C 223.350 237.371,224.340 236.836,225.000 236.406 C 225.660 235.976,226.700 235.342,227.310 234.997 C 227.921 234.652,229.901 233.419,231.710 232.257 C 233.520 231.096,235.315 230.028,235.700 229.885 C 236.085 229.742,236.400 229.439,236.400 229.213 C 236.400 228.986,236.568 228.800,236.773 228.800 C 237.360 228.800,241.200 226.319,241.200 225.940 C 241.200 225.753,241.410 225.600,241.666 225.600 C 242.220 225.600,248.727 221.296,253.859 217.535 C 258.488 214.143,258.983 214.038,261.079 216.003 C 261.783 216.662,263.943 218.478,265.879 220.038 C 267.816 221.598,269.544 223.127,269.720 223.437 C 269.896 223.747,270.194 224.000,270.383 224.000 C 271.469 224.000,297.739 250.267,299.609 253.223 C 300.873 255.220,303.199 254.764,305.688 252.033 C 306.506 251.135,307.352 250.400,307.568 250.400 C 307.784 250.400,308.104 250.174,308.280 249.899 C 308.561 249.459,309.879 248.543,312.600 246.896 C 313.040 246.630,313.971 246.154,314.669 245.839 C 317.786 244.433,317.716 242.503,314.423 239.151 C 313.640 238.354,312.214 236.824,311.254 235.751 C 308.707 232.905,302.000 225.689,300.559 224.244 C 298.297 221.975,288.222 212.513,286.865 211.382 C 286.130 210.770,284.831 209.624,283.978 208.835 C 280.818 205.914,276.434 202.400,275.949 202.400 C 275.757 202.400,275.600 201.950,275.600 201.400 C 275.600 200.793,275.828 200.400,276.180 200.400 C 276.499 200.400,276.904 200.159,277.080 199.865 C 277.256 199.570,277.692 199.165,278.049 198.965 C 278.406 198.764,279.827 197.610,281.207 196.400 C 282.586 195.190,284.184 193.795,284.758 193.299 C 288.720 189.874,291.499 187.236,298.769 180.000 C 303.300 175.490,308.312 170.360,309.906 168.600 C 311.501 166.840,313.795 164.333,315.003 163.028 C 316.213 161.721,317.200 160.279,317.200 159.817 C 317.200 158.764,316.131 157.200,315.412 157.200 C 314.844 157.200,309.434 154.229,308.400 153.349 C 308.070 153.068,306.810 151.866,305.600 150.677 C 303.267 148.385,302.718 148.080,301.330 148.306 M303.319 149.664 C 303.795 149.918,304.515 150.547,304.919 151.061 C 306.119 152.586,310.144 155.502,313.172 157.041 C 317.617 159.299,317.772 158.914,308.200 169.425 C 299.775 178.677,284.264 193.339,276.912 199.000 C 274.054 201.201,274.091 201.597,277.400 204.201 C 287.212 211.920,299.803 224.138,313.671 239.400 C 317.049 243.118,316.936 243.917,312.730 246.003 C 310.230 247.244,306.288 250.192,304.225 252.363 C 302.117 254.583,301.661 254.359,296.569 248.600 C 285.379 235.942,261.260 213.900,258.600 213.900 C 258.074 213.900,256.773 214.539,255.710 215.319 C 251.295 218.560,243.300 224.018,238.600 226.999 C 236.194 228.525,235.791 228.782,230.600 232.088 C 229.060 233.069,226.630 234.538,225.200 235.352 C 223.770 236.166,222.330 236.997,222.000 237.197 C 213.125 242.596,192.029 253.339,191.044 252.961 C 189.977 252.552,189.644 251.533,189.204 247.343 C 188.976 245.174,188.596 241.564,188.358 239.321 C 187.798 234.039,187.662 234.213,195.558 230.161 C 203.497 226.087,210.526 222.136,219.671 216.606 C 220.040 216.383,221.480 215.529,222.871 214.708 C 229.531 210.780,241.800 202.157,241.800 201.404 C 241.800 200.581,225.921 189.646,219.800 186.255 C 218.448 185.505,217.618 185.009,215.600 183.739 C 212.889 182.034,197.748 173.722,193.445 171.576 C 187.888 168.805,187.780 168.644,188.331 163.896 C 188.567 161.863,188.871 158.760,189.008 157.000 C 189.452 151.269,190.257 149.428,192.106 149.912 C 193.152 150.185,202.338 154.879,213.000 160.588 C 216.001 162.195,227.752 168.949,229.528 170.088 C 230.117 170.466,231.135 171.077,231.790 171.445 C 234.367 172.893,247.083 181.278,251.400 184.375 C 257.062 188.437,257.806 188.900,258.671 188.900 C 259.403 188.900,266.757 183.453,268.200 181.842 C 268.420 181.596,269.230 180.876,270.000 180.241 C 275.927 175.357,290.901 160.679,296.769 154.000 C 301.342 148.796,301.501 148.691,303.319 149.664 M149.200 249.427 C 144.688 251.146,141.990 252.106,140.382 252.566 C 139.381 252.851,138.211 253.267,137.782 253.490 C 137.352 253.712,136.280 254.023,135.400 254.180 C 134.520 254.338,133.260 254.706,132.600 254.998 C 131.940 255.290,130.680 255.650,129.800 255.798 C 128.920 255.946,127.660 256.308,127.000 256.604 C 126.340 256.900,124.810 257.264,123.600 257.412 C 122.390 257.561,120.860 257.921,120.200 258.212 C 119.540 258.504,118.010 258.867,116.800 259.019 C 115.590 259.171,113.970 259.532,113.200 259.822 C 112.430 260.111,110.391 260.525,108.668 260.741 C 104.303 261.288,103.842 261.766,104.118 265.453 C 104.235 267.023,104.617 268.859,104.966 269.534 C 105.444 270.459,105.600 271.973,105.600 275.700 C 105.600 281.802,107.005 283.029,111.729 281.056 C 112.445 280.756,114.284 280.378,115.816 280.216 C 117.347 280.053,119.158 279.689,119.839 279.406 C 120.520 279.123,122.050 278.760,123.239 278.598 C 124.428 278.437,126.030 278.065,126.800 277.771 C 127.570 277.478,129.260 277.051,130.555 276.822 C 131.850 276.594,133.110 276.241,133.355 276.039 C 133.600 275.837,134.520 275.550,135.400 275.401 C 136.280 275.253,138.036 274.786,139.302 274.365 C 140.567 273.944,141.800 273.600,142.041 273.600 C 142.282 273.600,143.046 273.352,143.740 273.048 C 144.433 272.744,146.530 272.001,148.400 271.395 C 156.109 268.899,156.959 268.030,155.893 263.730 C 155.521 262.229,155.106 259.290,154.972 257.200 C 154.474 249.459,153.292 247.867,149.200 249.427 M152.900 250.532 C 153.889 252.039,155.560 266.813,154.865 267.908 C 154.523 268.447,151.402 269.747,148.400 270.601 C 147.410 270.883,146.150 271.301,145.600 271.531 C 144.624 271.937,140.239 273.261,134.600 274.850 C 133.060 275.284,131.260 275.795,130.600 275.986 C 128.571 276.570,121.204 278.304,117.200 279.138 C 110.918 280.447,109.441 280.769,108.537 281.027 C 106.604 281.580,106.000 280.110,106.000 274.852 C 106.000 271.206,105.814 269.523,105.200 267.600 C 103.728 262.992,104.071 262.490,109.400 261.446 C 115.601 260.231,126.039 257.683,131.800 255.977 C 133.340 255.521,135.500 254.900,136.600 254.598 C 139.406 253.827,145.586 251.675,148.800 250.350 C 150.631 249.595,152.334 249.671,152.900 250.532 M323.000 253.968 C 321.460 254.345,319.750 254.909,319.200 255.221 C 313.796 258.288,311.156 260.934,308.895 265.549 L 307.400 268.600 307.400 274.800 L 307.400 281.000 308.872 284.000 C 312.039 290.454,317.261 294.545,324.700 296.399 L 328.400 297.322 332.100 296.406 C 339.541 294.564,345.362 290.136,348.008 284.307 C 350.050 279.807,348.987 266.715,346.305 263.342 C 339.935 255.328,331.427 251.906,323.000 253.968 M68.152 254.196 C 66.805 254.489,65.275 254.967,64.752 255.259 C 60.094 257.852,57.260 260.465,54.463 264.746 L 52.800 267.291 52.800 275.000 L 52.800 282.709 54.463 285.254 C 58.302 291.129,63.476 295.038,68.400 295.783 C 69.390 295.933,70.813 296.246,71.561 296.479 C 76.511 298.018,91.200 290.936,91.200 287.011 C 91.200 286.712,91.351 286.407,91.537 286.333 C 93.632 285.504,95.530 276.397,94.620 271.542 C 94.019 268.333,92.167 263.600,91.514 263.600 C 91.341 263.600,91.200 263.340,91.200 263.022 C 91.200 261.926,86.185 257.395,83.357 255.937 C 79.005 253.693,73.409 253.053,68.152 254.196 M77.625 254.805 C 93.386 257.794,99.429 278.107,87.968 289.568 C 78.067 299.469,62.633 296.967,54.861 284.200 L 53.400 281.800 53.400 275.000 L 53.400 268.200 54.970 265.600 C 60.119 257.074,68.509 253.076,77.625 254.805 M332.480 254.844 C 336.956 255.781,343.120 259.989,345.470 263.710 C 348.276 268.155,348.169 267.762,348.324 274.229 C 348.491 281.166,348.237 282.460,346.052 285.823 C 334.494 303.611,308.000 295.967,308.000 274.844 C 308.000 263.131,316.016 254.654,327.280 254.454 C 328.974 254.425,331.314 254.600,332.480 254.844 M292.905 283.596 C 292.192 283.980,291.332 284.525,290.992 284.806 C 290.653 285.088,289.436 285.796,288.288 286.379 C 286.162 287.459,283.722 288.890,283.000 289.479 C 282.780 289.659,282.150 290.033,281.600 290.311 C 281.050 290.589,279.880 291.250,279.000 291.780 C 278.120 292.311,276.860 293.026,276.200 293.370 C 275.540 293.714,274.280 294.449,273.400 295.004 C 272.520 295.560,271.381 296.191,270.870 296.408 C 270.358 296.626,269.670 297.072,269.341 297.402 C 269.012 297.731,268.531 298.007,268.271 298.016 C 268.012 298.024,266.810 298.648,265.600 299.402 C 264.390 300.155,262.860 301.048,262.200 301.385 C 261.540 301.722,260.460 302.359,259.800 302.800 C 259.140 303.241,258.060 303.874,257.400 304.207 C 256.740 304.540,255.851 305.034,255.423 305.306 C 251.290 307.935,249.160 309.206,246.600 310.570 C 243.322 312.316,235.469 316.842,230.450 319.876 C 229.652 320.359,228.325 321.053,227.500 321.420 C 226.675 321.787,226.000 322.247,226.000 322.443 C 226.000 322.640,225.758 322.800,225.462 322.800 C 223.143 322.800,223.112 325.799,225.405 328.227 C 226.398 329.278,227.451 330.602,227.745 331.169 C 228.039 331.736,228.827 333.237,229.496 334.505 C 230.165 335.773,230.826 337.413,230.964 338.150 C 231.415 340.552,234.146 341.772,235.870 340.342 C 236.209 340.061,236.802 339.644,237.188 339.416 C 237.575 339.187,238.591 338.588,239.446 338.085 C 240.301 337.582,241.720 336.739,242.600 336.213 C 243.480 335.686,244.740 334.971,245.400 334.623 C 248.379 333.054,256.703 328.261,259.000 326.793 C 259.660 326.371,260.740 325.743,261.400 325.397 C 263.314 324.395,265.305 323.243,266.600 322.389 C 267.260 321.954,268.411 321.315,269.158 320.969 C 269.905 320.624,270.773 320.084,271.087 319.770 C 271.401 319.457,271.901 319.200,272.200 319.200 C 272.499 319.200,272.999 318.943,273.313 318.630 C 273.627 318.316,274.495 317.776,275.242 317.431 C 275.989 317.085,277.140 316.441,277.800 316.000 C 278.460 315.559,279.540 314.924,280.200 314.588 C 280.860 314.252,282.120 313.530,283.000 312.982 C 283.880 312.434,284.988 311.820,285.461 311.618 C 285.935 311.415,286.442 311.056,286.588 310.819 C 286.735 310.582,287.427 310.119,288.127 309.791 C 288.827 309.463,290.120 308.756,291.000 308.221 C 291.880 307.685,293.275 306.947,294.100 306.580 C 294.925 306.213,295.600 305.753,295.600 305.557 C 295.600 305.360,295.938 305.200,296.351 305.200 C 296.764 305.200,297.320 304.937,297.587 304.616 C 297.853 304.295,299.270 303.458,300.736 302.757 C 305.178 300.631,306.341 298.741,304.400 296.800 C 303.960 296.360,303.600 295.829,303.600 295.620 C 303.600 295.411,303.368 295.096,303.085 294.920 C 301.869 294.165,297.600 286.443,297.600 284.999 C 297.600 283.104,295.167 282.377,292.905 283.596 M296.951 285.429 C 297.702 287.932,300.290 292.689,302.297 295.254 C 305.534 299.391,305.680 299.143,297.200 303.951 C 294.010 305.759,291.130 307.404,290.800 307.606 C 290.470 307.807,289.149 308.563,287.864 309.286 C 286.580 310.009,284.917 310.960,284.169 311.400 C 280.456 313.585,272.838 318.017,271.600 318.712 C 269.147 320.088,262.223 324.024,261.600 324.396 C 261.270 324.592,256.590 327.307,251.200 330.427 C 245.810 333.548,239.924 336.978,238.119 338.050 C 233.645 340.709,232.841 340.582,231.392 336.985 C 229.825 333.095,228.460 330.851,225.183 326.778 C 223.523 324.715,223.908 324.412,239.871 315.210 C 247.972 310.540,258.110 304.668,262.400 302.161 C 266.690 299.654,270.920 297.224,271.800 296.760 C 273.627 295.798,273.648 295.786,284.187 289.600 C 295.605 282.897,296.140 282.723,296.951 285.429 M196.166 327.570 C 185.271 330.212,177.609 341.373,179.555 351.768 C 180.487 356.750,185.704 364.423,189.232 366.001 C 189.765 366.240,190.650 366.694,191.200 367.011 C 193.242 368.189,208.866 367.830,211.400 366.547 C 221.885 361.238,225.631 346.975,219.088 337.272 C 213.795 329.422,204.593 325.527,196.166 327.570 M207.200 329.076 C 222.520 335.423,226.319 352.111,214.887 362.839 C 210.528 366.929,210.292 367.000,201.000 367.000 C 189.952 367.000,185.878 364.636,181.907 355.922 C 175.035 340.838,192.035 322.794,207.200 329.076 " stroke="none" fill="#9eb3a5" fill-rule="evenodd"></path><path id="path4" d="M231.733 65.100 C 229.132 70.948,228.196 72.556,225.919 75.091 C 224.302 76.891,224.180 77.242,224.782 78.366 C 225.103 78.965,235.439 85.166,243.967 89.875 C 245.237 90.577,247.159 91.685,248.238 92.338 C 251.192 94.127,291.021 117.225,293.529 118.604 C 295.259 119.556,296.404 118.833,297.363 116.185 C 298.456 113.166,300.307 109.948,302.387 107.451 C 305.937 103.186,309.640 106.021,272.875 84.864 C 269.947 83.179,267.247 81.618,266.875 81.395 C 264.686 80.083,260.511 77.683,260.000 77.443 C 259.670 77.289,258.733 76.765,257.917 76.281 C 245.372 68.827,234.573 62.800,233.764 62.800 C 232.922 62.800,232.587 63.179,231.733 65.100 M236.765 64.764 C 238.549 65.896,253.076 74.304,285.000 92.683 C 293.580 97.623,301.284 102.109,302.121 102.652 C 303.976 103.856,303.906 104.224,301.124 107.900 C 299.340 110.258,297.710 113.253,296.457 116.475 C 295.706 118.408,294.772 118.532,292.278 117.030 C 290.605 116.023,260.182 98.411,246.622 90.600 C 225.921 78.675,225.937 78.685,225.467 77.936 C 225.132 77.404,225.454 76.778,227.083 74.789 C 228.803 72.689,230.138 70.330,232.908 64.500 C 233.481 63.293,234.562 63.367,236.765 64.764 M179.128 80.270 C 178.501 80.436,177.772 82.160,176.200 87.200 C 174.383 93.025,172.765 98.528,171.968 101.600 C 171.711 102.590,171.169 104.570,170.764 106.000 C 167.711 116.774,164.269 134.002,162.614 146.800 C 162.287 149.330,161.746 153.470,161.412 156.000 C 161.078 158.530,160.608 163.210,160.367 166.400 C 160.127 169.590,159.775 174.090,159.585 176.400 C 159.124 182.019,159.129 217.753,159.592 223.800 C 159.793 226.440,160.247 232.456,160.599 237.169 C 160.951 241.883,161.314 245.861,161.407 246.011 C 161.499 246.161,161.860 249.131,162.207 252.612 C 162.555 256.093,162.920 259.071,163.018 259.229 C 163.116 259.388,163.383 260.932,163.610 262.659 C 163.838 264.387,164.283 267.240,164.600 269.000 C 165.895 276.191,167.290 283.483,167.622 284.800 C 167.817 285.570,168.437 288.180,169.002 290.600 C 169.566 293.020,170.359 296.170,170.764 297.600 C 171.169 299.030,171.690 300.920,171.921 301.800 C 172.327 303.345,172.960 305.472,174.778 311.400 C 175.251 312.940,175.893 315.100,176.207 316.200 C 176.520 317.300,176.944 318.560,177.148 319.000 C 177.352 319.440,177.739 320.385,178.008 321.100 C 178.675 322.874,180.237 322.852,182.985 321.028 C 185.565 319.315,188.794 317.873,191.507 317.222 C 195.899 316.169,196.146 315.502,194.250 309.835 C 193.507 307.616,192.498 304.450,192.008 302.800 C 191.519 301.150,190.796 298.720,190.404 297.400 C 190.011 296.080,189.568 294.370,189.419 293.600 C 189.270 292.830,188.901 291.390,188.598 290.400 C 188.016 288.497,187.009 284.278,185.637 278.000 C 177.054 238.705,175.496 188.970,181.564 148.000 C 183.236 136.712,184.291 130.650,185.253 126.800 C 185.501 125.810,185.930 123.830,186.208 122.400 C 186.857 119.059,187.919 114.588,188.487 112.800 C 188.732 112.030,189.159 110.410,189.435 109.200 C 190.056 106.479,192.766 97.340,194.389 92.495 C 196.063 87.500,195.697 86.430,192.084 85.752 C 189.759 85.316,186.056 83.664,183.152 81.769 C 181.662 80.796,180.298 80.021,180.121 80.046 C 179.945 80.072,179.497 80.173,179.128 80.270 M183.061 82.623 C 185.584 84.298,188.525 85.640,191.648 86.542 C 195.181 87.564,195.166 87.462,192.869 94.687 C 190.992 100.588,190.380 102.696,188.399 110.096 C 177.508 150.762,174.169 200.688,179.409 244.526 C 181.032 258.109,181.868 263.387,184.077 274.000 C 186.273 284.552,186.607 285.997,188.368 292.600 C 190.244 299.632,190.993 302.214,192.869 308.113 C 195.204 315.456,195.259 315.200,191.047 316.462 C 187.676 317.472,184.894 318.800,182.338 320.619 C 179.083 322.935,178.942 322.698,174.211 307.000 C 173.614 305.020,172.974 302.950,172.788 302.400 C 172.393 301.230,169.135 287.875,168.250 283.800 C 166.017 273.517,163.313 256.761,162.414 247.633 C 162.167 245.121,161.888 242.943,161.795 242.792 C 159.803 239.568,159.669 175.529,161.624 160.600 C 161.826 159.060,162.268 155.381,162.607 152.425 C 162.945 149.468,163.310 146.678,163.418 146.225 C 163.525 145.771,163.870 143.690,164.184 141.600 C 166.159 128.456,169.665 112.358,173.548 98.600 C 173.983 97.060,174.541 95.080,174.788 94.200 C 175.035 93.320,175.566 91.610,175.969 90.400 C 176.372 89.190,177.111 86.940,177.611 85.400 C 179.212 80.475,179.559 80.298,183.061 82.623 M106.520 122.466 C 106.267 122.776,106.023 125.452,105.938 128.843 C 105.845 132.586,105.620 134.894,105.314 135.263 C 103.241 137.760,104.587 140.453,108.248 141.133 C 115.908 142.556,126.669 145.152,133.400 147.201 C 134.940 147.670,137.280 148.375,138.600 148.768 C 139.920 149.161,143.283 150.319,146.073 151.342 C 151.567 153.355,152.956 153.388,153.389 151.514 C 154.180 148.082,155.543 136.303,155.241 135.508 C 154.770 134.268,149.536 132.245,139.400 129.385 C 132.315 127.386,129.930 126.736,127.800 126.227 C 126.480 125.911,123.780 125.264,121.800 124.790 C 111.904 122.418,107.147 121.695,106.520 122.466 M113.409 123.811 C 116.044 124.368,119.010 124.987,120.000 125.188 C 126.166 126.437,142.215 130.866,149.181 133.239 C 151.700 134.098,153.809 134.800,153.867 134.800 C 154.722 134.800,154.767 136.943,154.014 141.915 C 153.558 144.932,153.053 148.282,152.892 149.359 C 152.404 152.634,152.020 152.664,144.619 150.001 C 142.649 149.292,140.219 148.485,139.219 148.207 C 138.218 147.929,135.780 147.211,133.800 146.613 C 127.253 144.633,120.216 142.841,112.600 141.214 C 104.533 139.490,104.666 139.591,105.815 136.057 C 106.334 134.460,106.580 132.305,106.659 128.687 C 106.807 121.841,106.189 122.287,113.409 123.811 M300.731 149.700 C 300.388 149.975,298.606 151.910,296.769 154.000 C 290.901 160.679,275.927 175.357,270.000 180.241 C 269.230 180.876,268.420 181.596,268.200 181.842 C 266.757 183.453,259.403 188.900,258.671 188.900 C 257.806 188.900,257.062 188.437,251.400 184.375 C 247.083 181.278,234.367 172.893,231.790 171.445 C 231.135 171.077,230.117 170.466,229.528 170.088 C 227.752 168.949,216.001 162.195,213.000 160.588 C 202.338 154.879,193.152 150.185,192.106 149.912 C 190.257 149.428,189.452 151.269,189.008 157.000 C 188.871 158.760,188.567 161.863,188.331 163.896 C 187.780 168.644,187.888 168.805,193.445 171.576 C 197.748 173.722,212.889 182.034,215.600 183.739 C 217.618 185.009,218.448 185.505,219.800 186.255 C 225.921 189.646,241.800 200.581,241.800 201.404 C 241.800 202.157,229.531 210.780,222.871 214.708 C 221.480 215.529,220.040 216.383,219.671 216.606 C 210.526 222.136,203.497 226.087,195.558 230.161 C 187.662 234.213,187.798 234.039,188.358 239.321 C 188.596 241.564,188.976 245.174,189.204 247.343 C 189.644 251.533,189.977 252.552,191.044 252.961 C 192.029 253.339,213.125 242.596,222.000 237.197 C 222.330 236.997,223.770 236.166,225.200 235.352 C 226.630 234.538,229.060 233.069,230.600 232.088 C 235.791 228.782,236.194 228.525,238.600 226.999 C 243.300 224.018,251.295 218.560,255.710 215.319 C 256.773 214.539,258.074 213.900,258.600 213.900 C 261.260 213.900,285.379 235.942,296.569 248.600 C 301.661 254.359,302.117 254.583,304.225 252.363 C 306.288 250.192,310.230 247.244,312.730 246.003 C 316.936 243.917,317.049 243.118,313.671 239.400 C 299.803 224.138,287.212 211.920,277.400 204.201 C 274.091 201.597,274.054 201.201,276.912 199.000 C 284.264 193.339,299.775 178.677,308.200 169.425 C 317.772 158.914,317.617 159.299,313.172 157.041 C 310.144 155.502,306.119 152.586,304.919 151.061 C 303.562 149.336,301.869 148.785,300.731 149.700 M305.957 152.912 C 307.944 154.742,310.177 156.340,311.965 157.212 C 316.152 159.254,316.134 159.435,311.143 165.089 C 302.343 175.059,287.414 189.472,277.100 197.957 C 273.334 201.055,273.210 201.666,275.900 203.836 C 283.979 210.351,301.047 226.486,308.233 234.400 C 312.390 238.979,315.200 242.440,315.200 242.981 C 315.200 243.614,313.348 245.200,312.609 245.200 C 311.822 245.200,306.745 248.938,304.806 250.944 C 302.206 253.634,301.974 253.545,296.890 247.900 C 288.291 238.354,275.653 226.260,265.047 217.431 C 258.277 211.794,259.353 211.870,252.733 216.562 C 248.958 219.237,238.911 225.988,235.600 228.074 C 223.523 235.683,213.301 241.501,202.001 247.198 C 198.372 249.028,194.811 250.857,194.089 251.262 C 191.159 252.908,190.732 252.375,189.870 246.000 C 188.230 233.871,187.688 235.061,197.067 230.192 C 212.118 222.378,224.730 214.740,240.900 203.647 C 243.135 202.114,243.369 200.971,241.700 199.737 C 231.219 191.990,211.065 179.828,195.600 171.917 C 187.894 167.976,188.252 168.935,189.880 156.600 C 190.803 149.609,190.422 149.744,198.155 153.655 C 219.418 164.411,238.036 175.539,253.317 186.628 C 257.355 189.558,258.312 190.014,259.490 189.566 C 262.946 188.252,285.296 167.710,295.145 156.794 C 302.449 148.700,301.682 148.975,305.957 152.912 M148.800 250.350 C 145.586 251.675,139.406 253.827,136.600 254.598 C 135.500 254.900,133.340 255.521,131.800 255.977 C 126.039 257.683,115.601 260.231,109.400 261.446 C 104.071 262.490,103.728 262.992,105.200 267.600 C 105.814 269.523,106.000 271.206,106.000 274.852 C 106.000 280.110,106.604 281.580,108.537 281.027 C 109.441 280.769,110.918 280.447,117.200 279.138 C 121.204 278.304,128.571 276.570,130.600 275.986 C 131.260 275.795,133.060 275.284,134.600 274.850 C 140.239 273.261,144.624 271.937,145.600 271.531 C 146.150 271.301,147.410 270.883,148.400 270.601 C 153.938 269.025,155.182 268.219,155.196 266.200 C 155.203 265.073,153.747 253.544,153.377 251.800 C 152.944 249.758,151.412 249.273,148.800 250.350 M151.796 250.948 C 152.388 251.380,152.697 252.622,153.266 256.848 C 154.567 266.505,154.586 266.918,153.746 267.661 C 151.143 269.965,112.278 280.408,108.096 279.926 L 107.000 279.800 106.759 274.600 C 106.617 271.530,106.217 268.307,105.784 266.732 C 104.865 263.391,105.105 263.037,108.717 262.411 C 113.552 261.572,126.202 258.445,132.800 256.457 C 134.230 256.026,136.120 255.464,137.000 255.209 C 139.657 254.438,149.357 251.117,150.000 250.759 C 150.814 250.305,150.934 250.318,151.796 250.948 M293.286 284.355 C 292.592 284.710,288.497 287.070,284.187 289.600 C 273.648 295.786,273.627 295.798,271.800 296.760 C 270.920 297.224,266.690 299.654,262.400 302.161 C 258.110 304.668,247.972 310.540,239.871 315.210 C 223.908 324.412,223.523 324.715,225.183 326.778 C 228.460 330.851,229.825 333.095,231.392 336.985 C 232.841 340.582,233.645 340.709,238.119 338.050 C 239.924 336.978,245.810 333.548,251.200 330.427 C 256.590 327.307,261.270 324.592,261.600 324.396 C 262.223 324.024,269.147 320.088,271.600 318.712 C 272.838 318.017,280.456 313.585,284.169 311.400 C 284.917 310.960,286.580 310.009,287.864 309.286 C 289.149 308.563,290.470 307.807,290.800 307.606 C 291.130 307.404,294.010 305.759,297.200 303.951 C 305.680 299.143,305.534 299.391,302.297 295.254 C 300.290 292.689,297.702 287.932,296.951 285.429 C 296.496 283.911,295.008 283.475,293.286 284.355 M296.457 286.325 C 297.718 289.569,299.347 292.552,301.181 294.975 C 304.224 298.996,304.237 298.971,296.800 303.300 C 293.390 305.285,289.970 307.250,289.200 307.666 C 288.430 308.083,287.260 308.758,286.600 309.167 C 285.940 309.575,283.060 311.256,280.200 312.901 C 257.639 325.878,244.338 333.573,235.508 338.759 C 234.693 339.237,234.243 339.292,233.734 338.973 C 232.971 338.495,232.999 338.541,231.029 334.398 C 230.244 332.748,228.623 330.112,227.427 328.542 C 224.427 324.604,223.767 325.292,238.886 316.600 C 246.157 312.420,255.727 306.904,260.153 304.342 C 298.100 282.378,295.437 283.699,296.457 286.325 " stroke="none" fill="#7e7e7c" fill-rule="evenodd"></path></g></svg>