<?xml version="1.0" standalone="no"?>
<!DOCTYPE svg PUBLIC "-//W3C//DTD SVG 20010904//EN"
 "http://www.w3.org/TR/2001/REC-SVG-20010904/DTD/svg10.dtd">
<svg version="1.0" xmlns="http://www.w3.org/2000/svg"
 width="256.000000pt" height="256.000000pt" viewBox="0 0 256.000000 256.000000"
 preserveAspectRatio="xMidYMid meet">

<g transform="translate(0.000000,256.000000) scale(0.100000,-0.100000)"
fill="#000000" stroke="none">
<path d="M1175 2163 c-36 -5 -38 -6 -15 -13 21 -7 19 -8 -15 -9 -54 -2 -212
-38 -203 -46 2 -3 20 0 39 6 51 15 190 28 213 20 13 -5 -6 -10 -55 -14 -176
-15 -354 -96 -488 -221 -42 -39 -43 -40 -21 -8 12 18 51 56 86 84 35 29 64 53
64 54 0 2 -18 -7 -41 -19 -58 -31 -188 -170 -239 -256 -126 -212 -157 -477
-84 -731 65 -228 263 -454 482 -549 204 -89 371 -99 618 -36 421 107 688 498
643 941 -38 369 -291 675 -640 774 -76 22 -261 34 -344 23z m148 -20 c-13 -2
-35 -2 -50 0 -16 2 -5 4 22 4 28 0 40 -2 28 -4z m60 -10 c-7 -2 -19 -2 -25 0
-7 3 -2 5 12 5 14 0 19 -2 13 -5z m44 -9 c-3 -3 -12 -4 -19 -1 -8 3 -5 6 6 6
11 1 17 -2 13 -5z m53 -14 c18 -12 2 -12 -25 0 -13 6 -15 9 -5 9 8 0 22 -4 30
-9z m50 -20 c8 -5 11 -10 5 -10 -5 0 -17 5 -25 10 -8 5 -10 10 -5 10 6 0 17
-5 25 -10z m79 -34 c129 -66 280 -214 341 -336 27 -54 18 -46 -42 40 -61 87
-208 226 -291 274 -62 36 -76 46 -62 46 3 0 27 -11 54 -24z m-29 -364 c-25
-20 -68 -57 -96 -82 -28 -25 -19 -15 20 22 39 37 78 74 86 82 8 8 20 15 25 15
6 0 -10 -17 -35 -37z m-674 -164 c100 -89 127 -118 109 -118 -4 0 -114 97
-239 211 -6 6 -5 9 3 9 7 0 64 -46 127 -102z m-32 -123 c23 -71 33 -112 26
-119 -5 -5 -11 -8 -13 -5 -3 2 -25 67 -51 144 -42 127 -44 137 -22 115 14 -15
39 -71 60 -135z m546 151 c0 -2 -35 -34 -77 -71 l-78 -67 75 71 c74 70 80 75
80 67z m-211 -190 l-56 -52 186 -160 c195 -168 294 -258 275 -252 -10 3 -304
251 -434 367 l-45 40 60 55 c33 30 62 55 65 55 3 0 -20 -24 -51 -53z m-239 -9
c0 -2 -10 -12 -22 -23 l-23 -19 19 23 c18 21 26 27 26 19z m90 -110 c0 -5
-229 -207 -255 -226 -20 -15 39 40 175 162 73 65 80 71 80 64z m580 -568 c-50
-45 -179 -111 -255 -129 -50 -12 -222 -16 -233 -6 -3 3 22 6 55 6 137 0 310
54 415 130 68 49 74 49 18 -1z m-185 -34 c-16 -8 -37 -14 -45 -14 -8 0 1 7 20
14 46 18 64 17 25 0z m-72 -22 c-7 -2 -19 -2 -25 0 -7 3 -2 5 12 5 14 0 19 -2
13 -5z m-75 -10 c-15 -2 -42 -2 -60 0 -18 2 -6 4 27 4 33 0 48 -2 33 -4z"/>
<path d="M870 2070 c-8 -5 -10 -10 -5 -10 6 0 17 5 25 10 8 5 11 10 5 10 -5 0
-17 -5 -25 -10z"/>
<path d="M818 2044 c-38 -20 -36 -28 2 -9 17 9 30 18 30 20 0 7 -1 6 -32 -11z"/>
</g>
</svg>
