<?xml version="1.0" encoding="UTF-8" standalone="no"?>
<!-- Generator: Adobe Illustrator 25.3.0, SVG Export Plug-In . SVG Version: 6.00 Build 0)  -->

<svg
   xmlns:dc="http://purl.org/dc/elements/1.1/"
   xmlns:cc="http://creativecommons.org/ns#"
   xmlns:rdf="http://www.w3.org/1999/02/22-rdf-syntax-ns#"
   xmlns:svg="http://www.w3.org/2000/svg"
   xmlns="http://www.w3.org/2000/svg"
   xmlns:sodipodi="http://sodipodi.sourceforge.net/DTD/sodipodi-0.dtd"
   xmlns:inkscape="http://www.inkscape.org/namespaces/inkscape"
   version="1.1"
   id="Layer_1"
   x="0px"
   y="0px"
   viewBox="0 0 140 140"
   xml:space="preserve"
   sodipodi:docname="HODL-Logomark.svg"
   width="140"
   height="140"
   inkscape:version="0.92.3 (2405546, 2018-03-11)"><metadata
   id="metadata21"><rdf:RDF><cc:Work
       rdf:about=""><dc:format>image/svg+xml</dc:format><dc:type
         rdf:resource="http://purl.org/dc/dcmitype/StillImage" /><dc:title></dc:title></cc:Work></rdf:RDF></metadata><defs
   id="defs19" /><sodipodi:namedview
   pagecolor="#ffffff"
   bordercolor="#666666"
   borderopacity="1"
   objecttolerance="10"
   gridtolerance="10"
   guidetolerance="10"
   inkscape:pageopacity="0"
   inkscape:pageshadow="2"
   inkscape:window-width="1920"
   inkscape:window-height="1017"
   id="namedview17"
   showgrid="false"
   inkscape:zoom="4.7860385"
   inkscape:cx="72.270118"
   inkscape:cy="78.671435"
   inkscape:window-x="-8"
   inkscape:window-y="-8"
   inkscape:window-maximized="1"
   inkscape:current-layer="Layer_1" />
<style
   type="text/css"
   id="style2">
	.st0{fill:#0098FF;}
	.st1{fill:#FFFFFF;}
</style>
<g
   id="g14"
   transform="matrix(1.220469,0,0,1.220469,-15.109406,-15.109406)">
	<g
   id="g12">
		<g
   id="g10">
			<path
   class="st0"
   d="m 105.61,24.99 v 81.27 h -7.62 -8.5 -7.4 V 81.87 80.77 H 80.99 64 62.9 v 1.1 24.39 H 56.6 V 74.47 h 7.4 16.99 7.4 v 24.39 1.1 h 1.1 8.22 1.1 V 98.86 20.3 c -8.53,-5.03 -18.46,-7.92 -29.07,-7.92 -31.68,0 -57.36,25.68 -57.36,57.36 0,20.45 10.71,38.38 26.81,48.54 v -29.16 -1.1 h -1.1 -11.22 v -6.3 h 11.22 1.1 v -1.1 -6.85 -1.1 h -1.1 -18.62 v -6.3 h 18.62 1.1 v -1.1 -7.24 -1.1 h -1.1 -11.22 v -6.3 h 11.22 1.1 v -1.1 -17.14 h 7.82 8.5 7.4 v 24.39 1.1 h 1.09 16.99 1.1 v -1.1 -24.39 h 6.3 V 64.18 H 80.99 64 56.6 v -24.39 -1.1 h -1.1 -8.42 -1.1 v 1.1 82.15 c 7.24,3.3 15.27,5.15 23.75,5.15 31.68,0 57.36,-25.68 57.36,-57.36 0,-18.09 -8.39,-34.22 -21.48,-44.74 z"
   id="path4"
   inkscape:connector-curvature="0"
   style="fill:#0098ff" />
			<path
   class="st1"
   d="M 80.99,80.78 H 64 62.9 v 1.1 24.39 h -6.3 v -31.8 h 7.4 16.99 7.4 v 24.39 1.1 h 1.1 8.22 1.1 V 98.86 20.3 c 2.38,1.4 4.65,2.98 6.8,4.7 v 81.27 h -7.62 -8.5 -7.4 v -24.4 -1.1 h -1.1 z"
   id="path6"
   inkscape:connector-curvature="0"
   style="fill:#ffffff" />
			<path
   class="st1"
   d="m 45.99,38.69 h 1.1 8.42 1.1 v 1.1 24.39 H 64 80.99 88.39 V 32.39 h -6.3 v 24.39 1.1 H 80.99 64 62.9 V 56.78 32.39 H 55.5 47 39.18 v 17.15 1.1 h -1.1 -11.21 v 6.3 h 11.22 1.1 v 1.1 7.24 1.1 h -1.1 -18.62 v 6.3 h 18.62 1.1 v 1.1 6.85 1.1 h -1.1 -11.22 v 6.3 h 11.22 1.1 v 1.1 29.15 c 2.17,1.37 4.44,2.6 6.8,3.67 V 39.79 Z"
   id="path8"
   inkscape:connector-curvature="0"
   style="fill:#ffffff" />
		</g>
	</g>
</g>
</svg>