<svg xmlns="http://www.w3.org/2000/svg" width="40" height="40" viewBox="0 0 40 40"><circle cx="20" cy="20" r="20" fill="#dbdeea"/><rect x="6" y="6" width="28" height="28" rx="7.9799999999999995" ry="7.9799999999999995" fill="#122371"/><g transform="translate(11.517272727272728, 11.32)"><svg width="16.965454545454545" height="17.36" viewBox="0 0 1548 1584" xmlns="http://www.w3.org/2000/svg"><path xmlns="http://www.w3.org/2000/svg" fill="#ffffff" d="M1526.9 1371 940.8 118.1C907.1 44 853.2.2 775.7.2S637.6 44 603.9 118.1L17.7 1367.7C4.3 1398 .9 1421.6.9 1441.8c0 84.2 57.3 141.4 141.5 141.4 57.2 0 104.4-30.3 128-87.5L775.7 394.3h3.4l144.8 313.2h30.3c185.3 0 313.3 181.9 249.3 353.7q0 6.7-3.3 13.4c-13.5 40.5-37.1 74.1-60.7 97.7l144.9 316.6c23.6 57.3 67.3 94.3 128 94.3 80.8 0 134.7-53.9 134.7-134.7 0-20.2-3.3-43.8-20.2-77.5"/><path xmlns="http://www.w3.org/2000/svg" fill="#ffffff" d="M1122.7 1041q-3.4 3.3-3.4 10.1c-64 171.7-309.9 171.7-373.9-3.4q0-3.4-3.4-10.1c-43.8-128 50.5-259.4 188.7-259.4h6.7c134.7 0 229.1 134.8 185.3 262.8"/></svg></g></svg>