<svg xmlns="http://www.w3.org/2000/svg" width="40" height="40" viewBox="0 0 40 40"><circle cx="20" cy="20" r="20" fill="#f8e5de"/><rect x="6" y="6" width="28" height="28" rx="7.9799999999999995" ry="7.9799999999999995" fill="#D15420"/><g transform="translate(12.9092180546726, 11.32)"><svg width="14.181563890654798" height="17.36" viewBox="0 0 1285 1573" xmlns="http://www.w3.org/2000/svg">
	<title xmlns="http://www.w3.org/2000/svg">logo (24)-svg</title>
	<defs xmlns="http://www.w3.org/2000/svg">
		<linearGradient id="g1" x1=".3" y1="787.1" x2="267.7" y2="787.1" gradientUnits="userSpaceOnUse">
			<stop offset="0" stop-color="#ffffff"/>
			<stop offset="1" stop-color="#ffffff"/>
		</linearGradient>
		<linearGradient id="g2" x1="339.8" y1="787.1" x2="606.9" y2="787.1" gradientUnits="userSpaceOnUse">
			<stop offset="0" stop-color="#ffffff"/>
			<stop offset="1" stop-color="#ffffff"/>
		</linearGradient>
		<linearGradient id="g3" x1="679.2" y1="787.1" x2="946.2" y2="787.1" gradientUnits="userSpaceOnUse">
			<stop offset="0" stop-color="#ffffff"/>
			<stop offset="1" stop-color="#ffffff"/>
		</linearGradient>
		<linearGradient id="g4" x1="1016.5" y1="787.1" x2="1283.6" y2="787.1" gradientUnits="userSpaceOnUse">
			<stop offset="0" stop-color="#ffffff"/>
			<stop offset="1" stop-color="#ffffff"/>
		</linearGradient>
	</defs>
	
	<g xmlns="http://www.w3.org/2000/svg" id="Layer">
		<path id="Layer" class="s0" d="m251.7 1068.7c-24.9 46.9-55.5 96.6-55.5 152.2c0 55.5 29.7 105.2 53.6 148.3c12.4 20.1 19.1 44 19.1 68.9c0 74.6-60.3 134-133.9 134c-73.7 0-134-60.3-134-134c0-23.9 6.7-46 17.2-65.1l2.9-4.8c24.9-44 51.7-92.8 51.7-147.3c0-56.5-28.7-108.2-54.6-152.2c-0.9-1-0.9-2.9-1.9-4.8c-3.8-7.6-6.7-14.3-8.6-22c-1-1.9-1-4.8-1.9-6.7c-2.9-10.5-4.8-21.1-4.8-32.5c0-24 6.7-46 17.2-65.1l2.9-4.8c24.9-43.1 51.7-91.9 51.7-146.4c0-52.6-25.9-101.4-49.8-143.6c-14.3-21-22-46.8-22-73.6c0-27.8 7.7-53.6 22-74.7c23.9-42.1 49.8-89.9 49.8-142.6c0-56.4-29.7-108.1-55.5-152.1c-11.5-19.2-17.3-41.2-17.3-65.1c0-74.6 60.3-134 134-134c73.7 0 133 60.3 133 134c0 23.9-6.7 46.9-17.2 66c-24.9 46.9-55.5 96.7-55.5 152.2c0 52.6 28.7 101.4 51.7 143.5c13.4 21.1 21 46 21 72.8q0 40.2-20.1 71.7c-23.9 44.1-52.6 91.9-52.6 145.5c0 55.5 29.6 105.3 53.6 149.3c12.4 19.1 18.1 42.1 19.1 66c0 1 1 1.9 1 2.9c0 4.8-1 9.5-2 14.3c-0.9 3.9-0.9 8.6-1.9 13.4q-2.8 8.6-5.7 17.3c-1 3.8-1.9 7.6-3.8 10.5c-1.9 2.9-1.9 6.7-2.9 8.6z" fill="#ffffff"/>
		<path id="Layer" class="s1" d="m590.4 418.9c-25.8 46-80.4 95.7-80.4 151.2c0 53.6 52.7 101.5 74.7 144.5c13.4 21.1 21 46 21 72.7c0 26.8-7.6 50.8-20.1 71.8c-23.9 44-76.5 91.9-76.5 145.5c0 55.5 54.5 105.2 78.5 148.3c12.4 20.1 19.1 44 19.1 68.9c0 73.7-60.3 133-134 133c-73.6 0-133.9-59.3-133.9-133c0-23.9 6.7-45.9 17.2-65.1l2.9-4.8c25.8-44 76.5-92.8 76.5-147.3c0-52.7-50.7-101.5-74.6-143.6c-13.4-21-22-46.9-22-73.7c0-27.7 7.6-53.5 22-74.6c24.9-42.1 74.6-89.9 74.6-142.6c0-56.4-53.6-108.1-79.4-152.1c-11.5-19.2-17.2-41.2-17.2-65.1c0-73.7 60.3-133 133.9-133c74.7 0 134 59.3 134 133c0 23.9-5.8 45.9-16.3 66z" fill="#ffffff"/>
		<path id="Layer" class="s2" d="m930.1 635.2c-25.8 46.9-96.6 96.6-96.6 152.1c0 54.6 69.8 105.3 93.7 148.4c12.5 20.1 19.2 44 19.2 68.9c0.9 74.6-59.4 134-133 134c-73.7 0-134-60.3-134-134c0-23.9 6.7-46 17.2-65.1l2.9-4.8c25.8-44 92.8-92.8 92.8-147.4c0-56.4-69.8-108.1-95.7-152.1c-11.4-19.1-17.2-41.2-17.2-65.1c0-74.6 60.3-134 134-134c73.6 0 133 60.3 133 134c0 23.9-6.7 46-16.3 65.1z" fill="#ffffff"/>
		<path id="Layer" class="s3" d="m1284.1 787.3c0 74.7-60.2 134-133.9 134c-74.6 0-134-60.3-134-134c0-74.6 60.3-133.9 134-133.9c73.7 0 133 60.3 133.9 133.9z" fill="#ffffff"/>
	</g>
</svg></g></svg>