<svg xmlns="http://www.w3.org/2000/svg" width="40" height="40" viewBox="0 0 40 40"><circle cx="20" cy="20" r="20" fill="#f2efe6"/><rect x="6" y="6" width="28" height="28" rx="7.9799999999999995" ry="7.9799999999999995" fill="#AA925A"/><g transform="translate(11.32, 17.220802103879027)"><svg width="17.36" height="5.558395792241946" viewBox="0 0 1521 487" xmlns="http://www.w3.org/2000/svg"><clipPath xmlns="http://www.w3.org/2000/svg" id="a"><path d="M.64.67h1519.88V486.6H.64z"/></clipPath><g xmlns="http://www.w3.org/2000/svg" clip-path="url(#a)"><path fill="#ffffff" fill-rule="evenodd" d="M1520.5 302.8v21.7q0 67-15.7 97.9-20.3 40.3-78.4 54-28.6 6.7-84.9 8.8-38.5 1.4-152.5 1.4-93.4 0-142.4-6.3c-23.6-3-43.9-9-60.9-17.8 2.2-.9 4.3-1.9 6.2-2.9q52.4-28.8 52.5-125.3-.1-104.2-62.7-130.5c-14.5-6.1-37.4-10.3-68.3-12.6-8.3-.6-17-1.1-26.4-1.4q-57.7-2.1-71.4-2.1H680.3q-45.5 0-58.8-3.5-30.7-8.1-30.7-38.3-.1-22.4 15.3-31.6 10.9-6.3 36.1-8 46.1-3.2 131.8-3.2 61.2 0 69.6 1.8 38.8 8 39.2 45.2h141.6v-16.5q0-53.6-19.2-82.1c-5.7-8.5-13.2-15.8-22.3-22.1 6.6-3.8 13.5-7.3 21.1-10.1Q1052.9.7 1201.2.7q187.5 0 229.1 12.6 49.7 15.1 68.9 54.4 15 30.9 15 87.7v16.5h-138.8q-1.8-23.9-7.4-33.7-10.8-19-62.9-22.5-3.9-.3-69.6-.3-104.2 0-123.1 3.5c-33.6 6.3-51.8 28.8-54.6 67.4q-1.4 19.6-1.4 62.4 0 79.3 20 99.7c10.7 10.9 31.6 17.8 62.6 20.7q15.7 1.4 67.8 1.4 122.8 0 144.8-9.5 27.6-11.9 28.3-58.2zm-620.2 35.7q0 29.2-28.7 39-15.4 5.3-53.5 5.9-94.4 1.8-107 1.4l-56.3-1.7q-27-.7-39.2-4.9-15.1-4.9-19.9-19-2.8-8-3.5-28.7h-55.1c-4.2 4.2-8.7 8.1-13.5 11.2q-24.5 15.8-66.8 20.3c-2.3.3-4.9.5-7.4.7-18.5 1.6-41.9 2.5-71 2.5H144.8v117.9H0V4.2h365.8q59.1 0 74.2 1 44 3.2 71.7 16.9c.7.3 1.3.7 2 1.1 25.7 13.5 43.5 35.5 53.2 66.2q10.5 33 10.5 89.8c0 47.1-5.7 84.4-16.7 112.5 23.7 2.4 54.4 3.7 92.7 3.7h131.5q62.9 0 73.4 1.4 42 5.6 42 41.7M432.6 190.8q0-43.5-16.8-57.5Q401.1 121 356 121H144.8v127.7H356q40.2 0 55.6-9.1 21-12.3 21-48.8"/></g></svg></g></svg>