<svg xmlns="http://www.w3.org/2000/svg" width="40" height="40" viewBox="0 0 40 40"><circle cx="20" cy="20" r="20" fill="#dde6f7"/><rect x="6" y="6" width="28" height="28" rx="7.9799999999999995" ry="7.9799999999999995" fill="#1d57cc"/><g transform="translate(11.336843467011644, 11.32)"><svg width="17.326313065976713" height="17.36" viewBox="0 0 1543 1546" xmlns="http://www.w3.org/2000/svg">
	<title xmlns="http://www.w3.org/2000/svg">RMBS_BIG</title>
	
	<path xmlns="http://www.w3.org/2000/svg" class="s0" d="m1229 20.8q-24.2-5.6-49-9.6-24.3-4.1-49.1-6.6-24.7-2.5-49.5-3.5-24.8-0.6-49.5 0h-681.5l-64.7 284.6h647.1c83.9 0 228 10.6 228 175.9 0 87.5-46 170.4-103.2 207.3-47.5 32.8-126.3 38.9-179.4 38.9h-688.1l-190 837.7h383.2l124.8-551.6h272l203.2 551.1h420.6l-252.2-609.7c127.4-43.5 223.9-78.4 298.2-183.5q23.3-32.9 41-69.3 17.7-35.9 29.3-74.3 11.6-38.4 17.2-78.4 5.6-39.9 5.1-79.8c0-269.5-166.9-392.3-313.5-429.2z" fill="#ffffff"/>
</svg></g></svg>