<svg xmlns="http://www.w3.org/2000/svg" width="40" height="40" viewBox="0 0 40 40"><circle cx="20" cy="20" r="20" fill="#fbf2e4"/><rect x="6" y="6" width="28" height="28" rx="7.9799999999999995" ry="7.9799999999999995" fill="#e4a54c"/><g transform="translate(12.934096228868661, 11.32)"><svg width="14.13180754226268" height="17.36" viewBox="0 0 1252 1538" xmlns="http://www.w3.org/2000/svg"><path xmlns="http://www.w3.org/2000/svg" fill="#ffffff" d="M549.4 33.3c49.2-17.5 101.5-22.6 153-29.8 84.9-8.8 170.5 1.3 253.5 19.3 48.5 14.8 98.3 28.1 142.6 53.2-79.9-19.7-161.6-37.5-244.4-34.9-61.9 5.2-124.3 11.8-184 29.9-144.2 42.2-272.8 133.3-364.4 251.9-48.1 58.3-80.6 127.6-107.9 197.5-23.4 72.9-40 149.1-39.1 226-3 116.9 26.2 234.2 79.5 338.1 43 84.7 106.1 157.2 176.9 219.9 99.9 82.4 221.6 137.7 349.4 158.5 119.3 15.1 243.1 7.4 355.9-36.5 45.6-16.3 87.7-40.8 131.3-61.5-28.1 27.7-61.9 48.5-95.9 68.2-96 56-204.2 90.5-315.1 99.6-72.2 10-145.3 1-216.8-10.3-62.6-12.6-123.5-33.1-181.9-59-129.5-61.8-241.9-159.5-319.3-280.5C38.7 1054.3-2.7 899.6.6 746.4c1.1-30.1 5.1-59.9 7-89.9 25.2-161.7 102.6-314.8 218.8-430.2 89.8-89.2 201-157.7 323-193m113.3 220.8c94.8-44.8 202.3-59.3 306.1-47.1 57.9 10.7 116.9 22 169.2 50.5-72.2-17.3-147.7-31.2-221.8-19.5-195.6 17.3-372.1 158.9-437.4 343-37.1 99.8-39.5 210.7-14.5 313.7 26.5 88.9 72.6 173.2 139.7 238 80.4 80.8 188.5 132.9 301.2 148.1 70.2 3.8 142.8 7.1 210.5-15.6 45.9-11.3 87.8-33.3 130.4-52.8-12.8 11.4-26 22.5-40.7 31.4-64.7 38.9-135 71-210.4 81.5-168.2 30.9-349.5-20.9-475.6-136.6-76.9-70.1-136.5-160.3-165.1-260.7-37.7-124.5-30.5-262.6 22.5-381.6C432 418.5 535.8 312 662.7 254.1m129 299.2c56.7-59.6 139-94.7 221.4-93 39 .3 79.7 3.5 114.3 23.1-60.7-9.8-124.8-10.3-182.3 14.5-79.6 33.8-142.9 104.2-166.9 187.5-23 76.2-10.1 161.8 32.7 228.8 53.3 87.8 156.8 142.4 259.3 136.3 45.8-.3 88.7-18.7 130.2-36.4-44.1 38.1-102.1 55.7-158.9 63.2-103.7 9.1-210.6-36.9-273.1-120.4-36.8-45.4-56.4-102.2-63.8-159.6-7.9-88.7 24.4-180.6 87.1-244"/></svg></g></svg>