<svg xmlns="http://www.w3.org/2000/svg" width="40" height="40" viewBox="0 0 40 40"><circle cx="20" cy="20" r="20" fill="#D5E5CF"/><rect x="6" y="6" width="28" height="28" rx="7.9799999999999995" ry="7.9799999999999995" fill="#004830"/><g transform="translate(11.32, 18.16508428860418)"><svg width="17.36" height="3.669831422791638" viewBox="0 0 296.6 62.7" xmlns="http://www.w3.org/2000/svg">
 
 <metadata xmlns="http://www.w3.org/2000/svg">
  <sfw xmlns="ns_sfw;">
   <slices>
   </slices>
   <sliceSourceBounds bottomLeftOrigin="true" height="62.7" width="296.6" x="-155.2" y="-18.2">
   </sliceSourceBounds>
  </sfw>
 </metadata>
 <desc xmlns="http://www.w3.org/2000/svg">
  Created with Sketch.
 </desc>
 <g xmlns="http://www.w3.org/2000/svg" id="logo-ishares">
  <g id="Shape">
   <path class="st0" d="M0,12V1h13.5V12H0z M0,61.5V16.8h13.5v44.7L0,61.5z M241,42.7h-30.4c0.6,4.7,4,8.4,10.7,8.4    c4.1,0.1,8-1.5,10.8-4.5l8.1,8.5c-4.2,4.8-10.8,7.7-18.9,7.7c-15.5,0-24.7-9.1-24.7-23.9c0-13.6,8.8-23.5,22.8-23.5    s22.1,8.7,22.1,21.6C241.6,38.9,241.4,40.8,241,42.7z M228,34.1c-0.3-4.6-3.3-7.9-8.5-7.9s-8.2,3.3-8.9,7.9H228z M264.1,62.6    c-6.7,0-14.9-1.8-20.9-7.7l7.7-8.5c3.6,3.4,8.3,5.3,13.2,5.4c4.7,0,6.8-1.3,6.8-3.2c0-1.5-1-2.3-3.6-3.1c-2.3-0.7-5.8-1.3-8.8-2.2    c-6.5-1.9-13-4.7-13-14.1c0-8.7,6.9-14,18.5-14c6.4,0,13.6,1.3,19.7,6.8l-7.8,8.3c-3.4-3.4-8.2-4.6-12-4.6c-3.5,0-5.4,1.3-5.4,3    c0,1.4,1,2.3,3.7,3.2c2.3,0.7,6.1,1.5,9,2.3c6.2,1.8,12.7,4.5,12.7,13.4C283.9,57.8,275.6,62.6,264.1,62.6L264.1,62.6z M55.5,18.5    c-3.4-4.1-8.5-6.3-13.8-6.2c-5.7,0-8.7,2.1-8.7,5.1c0,4,4.5,5.4,13.2,7.9c9.5,2.7,20.3,5.8,20.3,18.6S56,62.6,42.9,62.6    c-11.1,0-20.1-3.2-26-11.3L27,42.8c3.9,5.3,9.7,7.4,15.7,7.4c7.1,0,9.7-2.5,9.7-5.2c0-4-4.1-4.9-14.1-7.8    c-10.2-2.9-19.1-6.9-19.1-19.3C19.2,7.1,27.9,0,42.2,0c9,0,17.3,2.4,23.3,10.1L55.5,18.5z M191.6,15.9c2.6-0.1,5.1,1,6.8,2.9    L193,30.5c-1.3-1-3-1.6-4.7-1.5c-3.5,0-6.4,3-6.4,8.6v23.9h-13.7V16.8h13.4V23C184,18.7,187.1,15.9,191.6,15.9z M112.6,31.3v30.1    H99.1V36.2c0-4.8-2.5-7.8-7.1-7.8s-7.6,2.9-7.6,8v25.1H71V1h13.5v21.7c3.2-4.4,8.2-7,13.5-6.9C106.3,15.9,112.6,21.4,112.6,31.3z     M163.8,51.1v9.5c-2.5,1-5.2,1.5-7.9,1.5c-3.7,0-7.5-1.2-9.2-5.6c-2.9,3.4-8.4,5.9-14.6,5.9c-9,0-14.9-4.7-14.9-13.7    c0-8.8,7-14,17.7-14c3.6,0,7.1,0.5,10.6,1.3v-1.5c0-5-2.8-8-8.7-8c-4,0.1-7.8,1.7-10.7,4.4l-7.4-8.6c4.4-4.1,11.6-7.1,19.9-7.1    c12.7,0,20.4,6.3,20.4,18v15.7c0,1.7,0.8,2.5,2.6,2.5C162.3,51.4,163.1,51.3,163.8,51.1L163.8,51.1z M145.5,43.4    c-2.5-0.6-5-1-7.6-1c-4.7,0-7,2.3-7,5.5c0,3,2,5.2,6.2,5.2c4.4,0,8.3-2.7,8.3-6.8V43.4z M296.6,57.5c0.1,1.2-0.4,2.4-1.2,3.3    c-0.9,0.9-2,1.3-3.2,1.2c-2.8,0-4.4-1.8-4.4-4.5c0-2.7,1.6-4.5,4.4-4.5c1.2-0.1,2.4,0.3,3.2,1.2C296.2,55.1,296.6,56.3,296.6,57.5    z M295.8,57.5c0.1-1.4-0.5-2.8-1.7-3.6c-1.2-0.8-2.7-0.8-3.9,0c-1.2,0.8-1.9,2.1-1.7,3.6c0,2.5,1.5,3.9,3.7,3.9    S295.8,60,295.8,57.5z M293,58l0.8,1.6H293l-0.8-1.5h-1v1.5h-0.8v-4.4h1.8c1.1,0,1.6,0.6,1.6,1.4C293.9,57.2,293.6,57.8,293,58z     M293.1,56.7c0-0.5-0.3-0.8-0.8-0.8h-1v1.6h0.9C292.7,57.4,293.1,57.2,293.1,56.7z" fill="#ffffff">
   </path>
  </g>
 </g>
</svg></g></svg>