<svg xmlns="http://www.w3.org/2000/svg" width="40" height="40" viewBox="0 0 40 40"><circle cx="20" cy="20" r="20" fill="#FFD6BF"/><rect x="6" y="6" width="28" height="28" rx="7.9799999999999995" ry="7.9799999999999995" fill="#964D22"/><g transform="translate(11.32, 12.113182112767337)"><svg width="17.36" height="15.773635774465328" viewBox="0 0 1543 1402" xmlns="http://www.w3.org/2000/svg">
	<title xmlns="http://www.w3.org/2000/svg">dac19728-792b-4405-9852-c2dd549efd95-svg</title>
	
	<g xmlns="http://www.w3.org/2000/svg" id="#00aeefff">
		<path id="Layer" fill-rule="evenodd" class="s0" d="m272.1 183.9c117.8-100.5 266.7-164.1 420.9-179 140.6-14.5 285.3 10.5 412.1 73.1 119.6 57.9 223.3 147.5 299.3 256.3 86.8 124 136.6 274.2 138 425.8 2.5 135.2-29.1 270.3-87.9 391.8-40.1 81.2-92.6 156.8-159.3 218.4-21.5 20.8-58.5 21.9-81.7 3.2-11.5-8.8-18-22.2-25.3-34.5-119.2-204.2-238.7-408.3-357.8-612.5-7.6-14.3-18.1-28-33.3-34.5-27.7-13.4-63.8-1.7-78.5 25.3-123 218.2-245.6 436.6-368.8 654.8-18.1 32-66.2 40.1-93.7 15.7-52.3-46.2-95.2-102.2-131-161.8-74.6-125.8-117.1-270.2-125.1-416.1v-74.9c3.4-52 10.3-103.9 23.5-154.5 39-153.8 127.5-294.3 248.6-396.6zm419.3-35c-181.7 22.2-350.1 129.4-448.6 283.5-65.2 100.6-101.2 220.5-100.2 340.5-1.2 23.7 24.9 42.9 47.1 35.1 14.9-4.7 26-19.2 26.1-34.9-0.2-72.4 13.9-144.8 41.6-211.7 49.3-120.2 142.2-221.8 257.6-281.6 109.5-57.5 238.7-76.1 360.1-52.7 125.5 23.3 241.7 92.4 323.1 190.7 76.4 91.4 122.1 208 127.6 327.1 1.6 18.8-3.6 42.1 13.5 55.5 20.5 20.3 59.5 4.2 60.4-24.5 1.2-111.7-29-223.4-85.6-319.6-60.1-103.1-150.1-188.6-256.4-242.9-111.7-58.1-241.4-80.7-366.3-64.5zm35.8 229.9c-113.5 12.1-219.5 76.6-283.4 171.1-44.8 65-69 143.8-69.2 222.8 0.1 18.6 15.3 35.6 33.9 36.8 21.4 2.1 41-17.1 39.7-38.5-0.3-103.8 53.6-205.2 139-263.8 68.4-47.9 155.8-67.1 238-52.9 66.7 11.1 129.5 44 176.7 92.5 54.5 55.4 88.2 131 91.5 208.8 0.6 11.7-0.9 24.4 5.4 34.9 7.7 14.5 26.1 22.9 41.9 17.6 14.5-4 25.7-17.7 26.5-32.7 2.6-132.5-68.4-262.2-179.2-334.1-76.2-50.4-170.1-72.9-260.8-62.5z" fill="#ffffff"/>
	</g>
	<g xmlns="http://www.w3.org/2000/svg" id="#233454ff">
		<path id="Layer" class="s1" d="m750.1 888.4c19.3-8.8 44.4-1.2 54.6 17.6 85.1 137.1 170 274.3 255.1 411.3 6.2 10.3 14.5 20.4 14.2 33.1 2.2 22.4-16.7 45.2-39.6 44.8-175.9 0.1-351.8 0.1-527.6 0-30.2 0.4-49.6-37.6-34.3-62.8 85.5-141.8 171.6-283.3 257.3-425.1 4.7-8.1 11.5-15.3 20.3-18.9z" fill="#ffffff"/>
	</g>
</svg></g></svg>