<svg xmlns="http://www.w3.org/2000/svg" width="40" height="40" viewBox="0 0 40 40"><circle cx="20" cy="20" r="20" fill="#ffd9df"/><rect x="6" y="6" width="28" height="28" rx="7.9799999999999995" ry="7.9799999999999995" fill="#ff002b"/><g transform="translate(11.32, 17.527275097783573)"><svg width="17.36" height="4.945449804432855" viewBox="0 0 1534 437" xmlns="http://www.w3.org/2000/svg"><path xmlns="http://www.w3.org/2000/svg" fill="#ffffff" fill-rule="evenodd" d="M1532.97 244.34c0 105.82-86.05 192.33-192.2 192.33-105.75 0-192.2-86.51-192.2-192.33 0-105.83 86.05-192.34 192.2-192.34 105.75 0 192.2 86.51 192.2 192.34m-112.19.4c0-44.26-35.78-80.07-80.01-80.07s-80.02 35.81-80.02 80.07 35.79 80.07 80.02 80.07c43.83 0 80.01-35.81 80.01-80.07m-1035.36 0c0 105.82-86.45 192.33-192.2 192.33S1.02 350.56 1.02 244.74C1.02 138.51 87.07 52.41 193.22 52c106.15 0 192.6 86.51 192.2 192.74m-112.19 0c0-44.26-35.78-80.07-80.01-80.07h-.4c-43.83.4-79.62 36.21-79.62 80.07 0 44.26 35.79 80.07 80.02 80.07s80.01-36.21 80.01-80.07m531.56 188.71H692.61V249.16c0-44.26-35.79-80.07-80.02-80.07h-59.91v263.96H440.5V56.83h172.09c105.75 0 191.8 86.11 192.2 192.33zm302.37-357.3v93.35H865.5V56.83L977.69.1v76.05zm0 248.66v112.26h-49.46c-106.15 0-192.2-86.11-192.2-192.33v-37.02h112.19v37.02c0 44.26 35.78 80.07 80.01 80.07z"/></svg></g></svg>