<svg xmlns="http://www.w3.org/2000/svg" width="40" height="40" viewBox="0 0 40 40"><circle cx="20" cy="20" r="20" fill="#e2ebf5"/><rect x="6" y="6" width="28" height="28" rx="7.9799999999999995" ry="7.9799999999999995" fill="#3c79bc"/><g transform="translate(11.32, 12.17617131732641)"><svg width="17.36" height="15.647657365347179" viewBox="0 0 1541 1389" xmlns="http://www.w3.org/2000/svg"><path xmlns="http://www.w3.org/2000/svg" fill="#ffffff" d="m1189.2 1252.5 59.8 102.1 11 22.5 5.6 11.5H71.4q-19.8 0-34-8.7-17-8.3-28.5-25.3-8.3-19.8-8.3-36.8 0-19.7 8.3-36.8l337-586.1L725.3 34.7l11-22.5L745 .7l8.3 11.5 11.5 22.5 56.6 102.1q11.5 17 11.5 36.7 0 17-11.5 34.1L243.8 1215.8h883.4q19.7 0 36.7 11.5 14.3 8.2 25.3 25.2m-107.6-119H512.8q-19.7 0-36.7-8.3-17.1-11.5-25.3-28.5-11.5-17-11.5-34 0-19.8 11.5-36.8l379.3-662.5q11.1-17 25.3-25.3 17-11.5 36.8-11.5t34 11.5q17 8.3 25.3 25.3l568.8 991.2 14.3 22.5 5.9 11.5h-155.8q-19.8 0-36.8-8.7-14.3-8.3-25.3-25.3L892.2 601.1l-45.5 76.8-161 283.2H980q19.8 0 36.8 8.2 17 11.5 25.3 28.5l59.3 102.1 11.5 19.8 8.7 13.8h-14.2z"/></svg></g></svg>