<svg xmlns="http://www.w3.org/2000/svg" width="40" height="40" viewBox="0 0 40 40"><circle cx="20" cy="20" r="20" fill="#d9e4f2"/><rect x="6" y="6" width="28" height="28" rx="7.9799999999999995" ry="7.9799999999999995" fill="#004baa"/><g transform="translate(11.32, 17.25807275047862)"><svg width="17.36" height="5.4838544990427565" viewBox="0 0 1567 495" xmlns="http://www.w3.org/2000/svg"><linearGradient xmlns="http://www.w3.org/2000/svg" id="a"><stop offset="0" stop-color="#ffffff"/><stop offset="1" stop-color="#ffffff"/></linearGradient><linearGradient xmlns="http://www.w3.org/2000/svg" xmlns:xlink="http://www.w3.org/1999/xlink" xlink:href="#a" id="b" x1="114.9" x2="1560.4" y1="311.5" y2="311.5" gradientUnits="userSpaceOnUse"/><linearGradient xmlns="http://www.w3.org/2000/svg" xmlns:xlink="http://www.w3.org/1999/xlink" xlink:href="#a" id="c" x1="114.1" x2="1559" y1="56.5" y2="56.5" gradientUnits="userSpaceOnUse"/><path xmlns="http://www.w3.org/2000/svg" fill="#ffffff" fill-rule="evenodd" d="M1559.2 131.5c1.3.6 2.6 1.4 3.6 2.5 1.1 1 1.9 2.3 2.5 3.7.5 1.4.9 2.8.9 4.3v74.7c0 1.5-.3 3-.9 4.3-.6 1.4-1.4 2.7-2.4 3.8-1.1 1-2.3 1.9-3.7 2.5s-2.8.9-4.3.9c-94.8 1.3-105.2 21.4-105.2 63.8v179.9c0 1.5-.3 3-.9 4.4s-1.4 2.7-2.5 3.7c-1.1 1.1-2.3 1.9-3.7 2.5s-2.9.9-4.4.9H1350c-1.5 0-3-.3-4.4-.9s-2.7-1.4-3.7-2.5c-1.1-1-2-2.3-2.5-3.7-.6-1.4-.9-2.9-.9-4.4v-52.3c-20.8 39.5-65.6 75.3-156.7 75.3-69.9 0-120.2-19.8-149.6-58.8-18.4-24.5-28.9-56.5-31.8-97.2L962.3 475q-.5 1.8-1.6 3.4-1.1 1.5-2.6 2.7-1.5 1.1-3.2 1.7-1.8.6-3.7.6H834.1q-1.9 0-3.8-.7-1.9-.6-3.4-1.9-1.5-1.2-2.6-2.9-1-1.7-1.4-3.6l-34.2-186.5c-.4-1.6-1.4-3.1-2.7-4.2-1.3-1-3-1.6-4.7-1.6s-3.4.6-4.7 1.7-2.2 2.6-2.6 4.3l-34.5 186.2q-.4 1.9-1.4 3.6t-2.6 3q-1.5 1.2-3.4 1.9-1.8.7-3.8.7H616.6q-1.9 0-3.7-.6t-3.3-1.8q-1.5-1.1-2.5-2.7-1.1-1.5-1.6-3.4l-38.2-139.7c-3.1 40.2-14.2 73.3-33.2 98.4-29.1 38.4-76.4 57.9-140.7 57.9-57 0-100.7-15.3-129.7-45.5q-3.5-3.6-6.6-7.4-3.2-3.9-6.1-8t-5.4-8.3q-2.6-4.3-4.8-8.8v58.4c0 1.5-.3 3-.9 4.4s-1.4 2.7-2.5 3.7c-1.1 1.1-2.3 1.9-3.7 2.5s-2.9.9-4.4.9H126.4c-1.5 0-3-.3-4.4-.9s-2.6-1.4-3.7-2.5-1.9-2.3-2.5-3.7-.9-2.9-.9-4.4V139.5c0-1.5.3-3 .9-4.4s1.4-2.7 2.5-3.7c1.1-1.1 2.3-1.9 3.7-2.5s2.9-.9 4.4-.9h102.8c1.5 0 3 .3 4.4.9s2.7 1.4 3.8 2.5c1 1 1.9 2.3 2.5 3.7s.9 2.9.9 4.4V211q1.3-2.6 2.7-5.3 1.5-2.6 3.1-5.2 1.5-2.5 3.2-5 1.6-2.6 3.4-5c29.2-39.8 76.8-60 141.5-60 57.1 0 100.8 16.1 130.2 47.9l-7.3-26.8c-.4-1.7-.5-3.5-.1-5.2q.45-2.7 2.1-4.8c1.65-2.1 2.5-2.5 4-3.3 1.6-.8 3.4-1.2 5.1-1.2h94.6q2 0 3.8.6 1.8.7 3.4 1.9 1.5 1.2 2.5 2.8 1.1 1.6 1.5 3.5l37.9 177.9c.4 1.7 1.4 3.2 2.7 4.2 1.4 1 3.1 1.6 4.8 1.5 1.7 0 3.3-.7 4.6-1.8s2.2-2.6 2.5-4.3l32-176.8q.3-2 1.3-3.7 1-1.8 2.6-3.1 1.5-1.3 3.5-2 1.9-.7 3.9-.7h101.6q1.9 0 3.8.7 1.9.6 3.4 1.9 1.5 1.2 2.6 2.9 1 1.7 1.4 3.6l37.2 177.3q.3 1.2.9 2.3.7 1.1 1.7 1.9 1 .9 2.2 1.3 1.3.4 2.5.3 1.3 0 2.5-.3 1.2-.4 2.2-1.2t1.6-1.8q.7-1.1 1-2.3l41-177.9q.5-1.9 1.5-3.5 1.1-1.6 2.6-2.8t3.3-1.8 3.8-.6h94.5q2.7 0 5.1 1.2c2.4 1.2 3 1.9 4.1 3.3q1.65 2.25 2.1 4.8c.3 1.8.3 3.6-.2 5.3l-7.3 26.1c30-29.2 75.6-44.1 135.7-44.1 56.8 0 100.1 14.6 128.6 43.2q4.7 4.8 8.8 10.1 4.2 5.2 7.8 10.8 3.7 5.6 6.7 11.6 3 5.9 5.5 12.1v-73c0-1.6.3-3 .8-4.4.6-1.4 1.5-2.7 2.5-3.8 1.1-1 2.4-1.9 3.8-2.5 1.4-.5 2.9-.8 4.4-.8h87.8c1.5 0 3 .3 4.4.8 1.3.6 2.6 1.4 3.7 2.5 1 1.1 1.9 2.3 2.5 3.7s.9 2.8.9 4.3l.1 7.5c0 3.1.4 10.2 2.9 10.2q1.4-.4 2.7-1 1.3-.5 2.6-1.2 1.3-.6 2.5-1.4 1.2-.7 2.4-1.6c26.1-18.7 49.9-30.4 87.1-30.4q2.6 0 5.2.1c1.5 0 3 .4 4.4 1M451.7 311.6c0-55.5-17-79.2-57-79.2H242.4q-.3-.1-.6-.1-.2 0-.5-.1t-.5-.1v16h97.5c1.4 0 2.8.4 4 1.1 1.2.6 2.3 1.6 3 2.8s1.2 2.5 1.3 3.9c0 1.4-.2 2.8-.8 4q-2.6 6.1-4.5 12.5t-3.1 12.9-1.6 13.1q-.5 6.6-.1 13.3c0 53.6 18 78.6 56.9 78.6 40.9 0 58.3-23.5 58.3-78.7m670.9-41q0 .5.2.9.1.5.3.9t.5.7q.4.3.7.6.4.3.8.5t.9.3q.4.1.9.1h93.6q.5 0 .9-.1.5-.1.9-.3t.8-.5l.6-.6q.3-.3.6-.7.2-.4.3-.9.2-.4.2-.8v-.9c-4.7-38.8-17.5-51.9-50.4-51.9-32.6 0-47.1 14.5-51.8 51.8q-.1.5 0 .9m215.9 87.5v-15.7l-111 .2h-100.8q-.9 0-1.8.4-.8.4-1.4 1-.6.7-.9 1.6-.3.8-.2 1.8c3.9 42.8 20.8 62 54.7 62 33.6 0 43.7-22.6 47.7-44.3q.3-1.5 1-2.8t1.9-2.2q1.1-1 2.5-1.5t2.8-.5z"/><path xmlns="http://www.w3.org/2000/svg" fill="#ffffff" d="M248.2 112.1h95.2c1.5 0 3-.3 4.4-.8 1.4-.6 2.7-1.5 3.7-2.5 1.1-1.1 2-2.4 2.5-3.8.6-1.4.9-2.9.9-4.4V12.3c0-1.5-.3-3-.9-4.4-.5-1.4-1.4-2.7-2.5-3.7-1-1.1-2.3-2-3.7-2.5-1.4-.6-2.9-.9-4.4-.9H12.3c-1.6 0-3 .3-4.4.9-1.4.5-2.7 1.4-3.8 2.5-1 1-1.9 2.3-2.5 3.7-.5 1.4-.8 2.9-.8 4.4v88.3c0 1.5.3 3 .8 4.4.6 1.4 1.5 2.7 2.5 3.8 1.1 1 2.4 1.9 3.8 2.5 1.4.5 2.8.8 4.4.8h95.1q.2 0 .3.1h.4q.2 0 .3.1h138.9q.1-.1.2-.1h.5q.1-.1.2-.1"/></svg></g></svg>