<?xml version="1.0" encoding="UTF-8"?>
<svg id="Layer_1" data-name="Layer 1" xmlns="http://www.w3.org/2000/svg" viewBox="0 0 963.17 963.17">
  <defs>
    <style>
      .cls-1 {
        fill: #d02129;
      }

      .cls-2 {
        fill: #fff;
      }

      .cls-3 {
        fill: none;
      }

      .cls-4 {
        fill: #fad215;
      }

      .cls-5 {
        fill: #1d439c;
      }

      .cls-6 {
        fill: #386fac;
      }
    </style>
  </defs>
  <path class="cls-3" d="M481.57,0c127.71,0,250.19,50.73,340.51,141.02,90.31,90.3,141.06,212.77,141.09,340.48,0,.03,0,.06,0,.09h0V0h-481.6Z"/>
  <path class="cls-3" d="M141.07,822.16c-67.36-67.35-113.24-153.16-131.83-246.58C3.62,547.32.59,518.75.08,490.2v472.89h472.98c-28.55-.5-57.12-3.53-85.38-9.15-93.43-18.57-179.25-64.43-246.61-131.78Z"/>
  <path class="cls-3" d="M214.01,81.17C293.21,28.25,386.32,0,481.57,0H.08v473.08c1.06-60.06,13.34-119.7,36.56-175.76,36.45-88,98.17-163.22,177.37-216.15Z"/>
  <path class="cls-3" d="M882.05,749.08c-52.91,79.21-128.11,140.95-216.11,177.42-56.12,23.25-115.83,35.54-175.96,36.59h473.19v-481.5h0c0,95.22-28.23,188.31-81.12,267.49Z"/>
  <path class="cls-6" d="M489.98,963.09h-16.93c5.64.1,11.29.1,16.93,0Z"/>
  <path class="cls-6" d="M.08,473.08C.03,475.92,0,478.75,0,481.59h.08v-8.52Z"/>
  <path class="cls-6" d="M0,481.59c0,2.87.02,5.74.08,8.61v-8.61H0Z"/>
  <path class="cls-5" d="M321.11,481.59v-188.8c0-37.44,30.63-68.07,68.07-68.07h118.64c107.46,0,194.49,87.03,195.46,194.49,0,22.63-3.87,43.5-10.97,62.38h270.85s0-.06,0-.09c-.03-127.71-50.77-250.18-141.09-340.48C731.77,50.73,609.29,0,481.57,0c-95.25,0-188.37,28.25-267.57,81.17-79.2,52.92-140.93,128.14-177.37,216.15C13.42,353.38,1.14,413.02.08,473.08v8.52h321.03Z"/>
  <path class="cls-1" d="M882.05,749.08c52.89-79.18,81.12-172.27,81.12-267.49h-270.85c-26.6,70.77-98.69,113.3-183.52,113.3h-41.33c-8.75,0-15.56,6.81-15.56,15.56v120.92c0,11.18-8.75,19.93-19.94,19.93h-91.86c-4.46,0-18.81-3.08-18.02-19.93v-130.56c114.18-89.51,189.37-19.51,210.71-159.74l-9.94-7.22-13.24,9.62c-21.37,84.07-59.97,44.99-188.5,93.07v-54.94H.08v8.61c.51,28.55,3.54,57.12,9.17,85.38,18.59,93.42,64.47,179.23,131.83,246.58,67.36,67.35,153.18,113.21,246.61,131.78,28.26,5.62,56.83,8.64,85.38,9.15h16.93c60.13-1.05,119.84-13.34,175.96-36.59,88-36.47,163.21-98.21,216.11-177.42Z"/>
  <path class="cls-2" d="M507.82,224.72h-118.64c-37.44,0-68.07,30.63-68.07,68.07v243.74c128.53-48.08,167.13-9,188.5-93.07l-33.59,24.41,17.89-55.06-46.83-34.03h57.89l17.89-55.06,17.89,55.06h57.89l-46.83,34.03,17.89,55.06-36.89-26.81c-21.34,140.23-96.52,70.23-210.71,159.74v130.56c-.79,16.86,13.56,19.92,18.02,19.93h91.86c11.18,0,19.94-8.75,19.94-19.93v-120.92c0-8.75,6.81-15.56,15.56-15.56h41.33c84.83,0,156.92-42.53,183.52-113.3,7.1-18.88,10.97-39.76,10.97-62.38-.97-107.46-88.01-194.49-195.46-194.49Z"/>
  <polygon class="cls-4" points="551.79 412.81 598.63 378.79 540.74 378.79 522.85 323.73 504.96 378.79 447.07 378.79 493.9 412.81 476.02 467.87 509.61 443.46 522.85 433.84 532.79 441.06 569.68 467.87 551.79 412.81"/>
</svg>