<svg xmlns="http://www.w3.org/2000/svg" width="40" height="40" viewBox="0 0 40 40"><circle cx="20" cy="20" r="20" fill="#fff8e0"/><rect x="6" y="6" width="28" height="28" rx="7.9799999999999995" ry="7.9799999999999995" fill="#ffcd30"/><g transform="translate(15.500334448160535, 11.32)"><svg width="8.99933110367893" height="17.36" viewBox="0 0 1550 2990" xmlns="http://www.w3.org/2000/svg"><path xmlns="http://www.w3.org/2000/svg" class="a" d="m327.4 1920.8v-1227c-0.3-179.1-0.7-382.2 103.6-522.7 74.9-101 170.4-157.8 283.9-168.7 104.1-10 198 22.4 244.7 42.6 78.4 33.8 227.4 8.6 347.1-11.7 43.2-7.4 84-14.3 116.1-17.4 52.2-5.1 87.3 1.7 104.4 20.2 12.5 13.7 11.3 29 10.2 35l-1.5 8.2-8.2 0.7c-124 11.7-237.3 76.4-311 177.4-54.7 74.9-83.5 163.7-83.5 256.6 0 0.7 1 76.5 25.6 147.6 25.2 72.6 308.1 753.6 310.9 760.5l0.1 0.2c122.9 316.9 80.9 638 24 851.5-65.8 246.8-190.4 485.9-325.1 623.9-57.1 58.4-137 92-219.1 92h-949.6c0 0 59.1-302.1 383-407.1v383.2c34.3-7.4 146.7-35.8 286.6-117.3 155-90.3 376.3-266.2 551-591 76.7-142.7 107.3-322.8 90.9-535.4-13.2-170.8-56.6-362.8-129-570.5-123.4-354.2-290.7-635-292.3-637.8l-2-3.3c-19.8-32.6-49.3-59.3-83.2-77.7-79.1-43-178.1-29.5-241 34.8-29.4 30.1-54.9 74.5-61.4 139.3-23.8 238.4 67.4 354.6 340.3 699.7 42.5 53.8 90.6 114.6 142.8 181.8 119.3 153.3 166.3 313.3 139.8 475.7-27.8 170.4-132.1 312.9-216.3 400.9-113.8 118.9-194.5 165.7-194.5 165.7 0-326.8 6.9-390.7-50.2-490.7-48.2-84.5-126.2-119.2-219.6-119.2z" fill="#ffffff"/></svg></g></svg>