<svg xmlns="http://www.w3.org/2000/svg" width="40" height="40" viewBox="0 0 40 40"><circle cx="20" cy="20" r="20" fill="#f2dbdd"/><rect x="6" y="6" width="28" height="28" rx="7.9799999999999995" ry="7.9799999999999995" fill="#ab0d1c"/><g transform="translate(11.32, 14.795325670498084)"><svg width="17.36" height="10.409348659003832" viewBox="0 0 1566 939" xmlns="http://www.w3.org/2000/svg"><g xmlns="http://www.w3.org/2000/svg" fill="#ffffff"><path d="M902 240.8q0 4.8-.1 9.6t-.3 9.6-.5 9.6c-8.1 119.7-69.5 261.6-176.3 389.2-13.2-7.8-25.4-15.8-37.1-24.3 94.5-111.1 150.5-237 147.5-335.7l-.2-5.6q-.2-2.9-.4-5.7l-.6-5.6q-.3-2.8-.7-5.6-.6-5-1.6-9.9-.9-5-2.1-9.9t-2.7-9.7-3.3-9.5q-2.5-6.9-5.7-13.4-3.3-6.5-7.3-12.7-3.9-6.1-8.6-11.7-4.7-5.7-9.9-10.7c-7.6-6.6-15.7-12.5-24.5-17.5-8.7-5-17.8-9.1-27.4-12.2-9.5-3.2-19.3-5.4-29.3-6.6-9.9-1.2-20-1.4-30-.6-106 3.2-240.4 78.3-350 195.7-109.6 117.5-175.9 257-172.7 364.2-.3 10.1.5 20.2 2.3 30.1 1.8 10 4.6 19.7 8.2 29.1 3.7 9.5 8.4 18.5 13.8 27 5.5 8.5 11.8 16.4 18.8 23.7 7.5 6.6 15.7 12.5 24.4 17.5s17.9 9.1 27.4 12.3q14.4 4.8 29.4 6.6c9.9 1.2 20 1.4 30 .6 81.2-2.3 178.7-46.9 269.2-120.3 11.6 9.8 24 19.3 37 28.4-198.6 172.3-432.5 224.9-550 113.1-11.1-11.3-21-23.7-29.7-37-8.6-13.3-15.9-27.4-21.8-42.1-5.9-14.8-10.3-30.1-13.1-45.7-2.9-15.6-4.2-31.4-3.9-47.3C-4 565.4 77.1 387.1 212 242.6 346.9 98 518.4 5.7 659.5 1.5 675.3.3 691 .7 706.7 2.7c15.6 2 31 5.6 45.9 10.7 14.9 5 29.3 11.6 42.9 19.5s26.4 17.2 38.2 27.7c11 11.2 20.9 23.5 29.5 36.7 8.5 13.2 15.8 27.2 21.6 41.8 5.9 14.6 10.3 29.8 13.1 45.2 2.9 15.5 4.2 31.2 4 46.9q.1 4.8.1 9.6"/><path d="M1537.9 509.9c7.4 14 13.4 28.8 17.9 44s7.5 30.8 9 46.6c1.4 15.8 1.3 31.8-.4 47.5-25.5 181.2-294 293.1-598.2 249.5-31-4-61.7-9.8-92-17.3-30.2-7.5-60.1-16.8-89.3-27.8-29.2-10.9-57.8-23.6-85.5-37.8-27.8-14.3-54.7-30.2-80.7-47.5q-19.5-13.9-37.1-28.6C495.2 665.7 448 577.7 460.4 489.7c18.7-132.3 166.7-227.5 363.4-252.4q1.8 4.7 3.2 9.5 1.5 4.9 2.7 9.7 1.2 4.9 2.2 9.9.9 4.9 1.5 9.9c-16.5 1.9-32.9 4.8-49 8.7-16.2 4-32.1 8.8-47.7 14.7-15.6 5.8-30.8 12.6-45.5 20.3-14.8 7.7-29 16.3-42.7 25.8-8.7 5.9-16.8 12.7-24.1 20.3-7.3 7.5-13.9 15.8-19.6 24.6s-10.5 18.2-14.4 28c-3.8 9.8-6.7 20-8.6 30.3-1 10.5-1.1 21.1-.1 31.6s3.1 20.8 6.1 30.9 7.1 19.9 12 29.2c5 9.3 10.8 18 17.5 26.2q7.5 9.7 15.7 18.8 8.1 9.2 17 17.7 8.8 8.5 18.2 16.3 9.5 7.8 19.5 14.9c11.6 8.5 23.9 16.7 37 24.4 19.7 11.2 40 21.4 60.8 30.7 20.7 9.3 41.9 17.5 63.5 24.8 21.5 7.2 43.4 13.4 65.5 18.5 22.2 5.1 44.6 9.1 67.1 12.1 238.5 34.2 447.5-42.7 465.6-171.8s-161.2-262-399.7-296.2q-18.1-2.6-36.4-4.4-18.2-1.8-36.6-2.8-18.3-.9-36.7-.9-18.3-.1-36.7.7 1.4-19.6.8-38.5 19.7-.5 39.3-.2 19.7.3 39.3 1.4 19.7 1.1 39.2 3.1 19.6 1.9 39 4.7c194.7 27.9 368.3 116.1 453 230.2 10 12.2 18.8 25.4 26.2 39.5"/></g></svg></g></svg>