<svg xmlns="http://www.w3.org/2000/svg" width="40" height="40" viewBox="0 0 40 40"><circle cx="20" cy="20" r="20" fill="#d9dee2"/><rect x="6" y="6" width="28" height="28" rx="7.9799999999999995" ry="7.9799999999999995" fill="#00263e"/><g transform="translate(11.32, 17.883633934535737)"><svg width="17.36" height="4.2327321309285235" viewBox="0 0 1497 365" xmlns="http://www.w3.org/2000/svg"><g xmlns="http://www.w3.org/2000/svg" fill="#ffffff" fill-rule="evenodd"><path d="M1496.2 182.4c0 100.7-57.4 182.3-128.2 182.3H128.2C57.4 364.7 0 283.1 0 182.4S57.4.1 128.2.1H1368c70.8 0 128.2 81.6 128.2 182.3m-35.9 0c0-79.5-41.3-144-92.3-144H128.2c-51 0-92.3 64.5-92.3 144 0 79.6 41.3 144 92.3 144H1368c51 0 92.3-64.5 92.3-144"/><path d="M171.6 95.6c43.2 0 64.5 34.8 64.5 87.8s-21.3 87.7-64.5 87.7-64.5-34.7-64.5-87.7c0-53.1 21.3-87.8 64.5-87.8m0 142.7c18.5 0 27.5-15 27.5-54.9s-9-54.9-27.5-54.9-27.5 15-27.5 54.9 9 54.9 27.5 54.9M334 165.8c-.9-30.3-9.9-37.3-23.5-37.3-16.4 0-29 14.5-29 54.9 0 40.3 12.6 54.9 29 54.9 18.6 0 22.6-17.8 23.5-35.9h36.6c-.3 38.5-22.1 68.7-62.9 68.7-38 0-62.8-28.6-62.8-87.7s24.8-87.8 62.8-87.8c42 0 63.3 30.8 62.9 70.2zm287.3 103h-38.4l-9.5-32.3h-42.3l-9 32.3h-38.3l50.3-169.7H569zm-69-120h-.5l-11.5 54.8h23.4zm190.3-49.7v169.7h-29.9L662.3 174v94.8H631V99.1h33.1l46.7 88.1V99.1zm513.7 0v169.7h-29.9L1176 174v94.8h-31.3V99.1h33.2l46.7 88.1V99.1zM868.4 268.8V99.1h88.3v34h-51v31.2h51v32.5h-51v39.5h51v32.5zm103.5 0V99.1h56c30.4 0 50.5 25.3 50.5 54.6 0 19-10 43.2-35 46.7l42.5 68.4h-40.7l-37.4-66.1h-.4v66.1h-35.6zm35.5-94.7h11.6c14.5 0 23-7 23-21.1 0-14-8.5-21.1-23-21.1h-11.6zm388.8-15.6h-37c-.2-16.4-9-30-26.6-30-13.7 0-26.5 14.6-26.5 54.9 0 40.4 12.8 54.9 26.5 54.9 20.7 0 26.8-16.4 26.6-30h-30.1v-32.9h67.1v33.3c0 35.2-23.2 62.5-63.6 62.5-38.4 0-63.5-28.7-63.5-87.8s25.1-87.8 63.5-87.8c36.6 0 61.2 24.4 63.6 62.9M762.1 268.8V99.1h88.2v34h-51v31.2h51v32.5h-51v39.5h51v32.5zm-375.9 0V99.1h88.2v34h-51v31.2h51v32.5h-51v39.5h51v32.5zm744.2 0h-33.7V99.1h33.7z"/></g></svg></g></svg>