<svg xmlns="http://www.w3.org/2000/svg" width="40" height="40" viewBox="0 0 40 40"><circle cx="20" cy="20" r="20" fill="#E9D4FC"/><rect x="6" y="6" width="28" height="28" rx="7.9799999999999995" ry="7.9799999999999995" fill="#450E78"/><g transform="translate(11.32, 18.154645669291337)"><svg width="17.36" height="3.690708661417323" viewBox="0 0 127 27" xmlns="http://www.w3.org/2000/svg"><g xmlns="http://www.w3.org/2000/svg" fill="#ffffff" fill-rule="evenodd"><path d="M47.76 19.665v.166h-6.154v-2.396l.044-.007h-.046c.002-.002 0-6.292 0-6.292-.013-.367.122-2.006-1.742-1.988.001.005-1.914.032-1.87 2.338v.002l-.006 6.226c.055 1.916 1.199 1.956 1.203 1.956v.16h-6.222v-.001h-3.544c-.137.016-4.463.157-4.637-3.872v-2.178s-1.714.381-2.25.792c0 0-1.372.87-.467 2.363 0 0 .673 1.18 2.848.744l-1.061 2.157H21.76s-4.892.1-5.465-3.494c0-.025-.44-2.82 2.9-3.952 0 0 1.143-.402 3.316-.786.024 0 1.857-.262 2.028-1.256a.983.983 0 0 0-.061-.599c.03.078-.833-2.188-6.11.103.022.025 1.086-3.312 1.086-3.312s4.97-1.461 8.438.668c-.023.023 1.812.998 1.787 4.057l.055 4.23c-.007.06-.004 2.167 2.07 2.285 0 .02.736.014 1.158.012V8.557c0-.052.113-1.974-1.17-2.06V6.32l6.202-.241-.002 1.57c.337-.333 1.706-1.552 3.73-1.59 0 0 4.827-.169 4.819 4.56.002 0 .008 6.806.008 6.806-.038 2.208 1.212 2.24 1.212 2.24zM.018.275V.072h6.73l4.83 14.103L15.15 2.86s.73-1.904-1.224-2.658V.04h5.391l-6.812 19.942-2.835-1.093s-2.296-.678-3.518-4.122L1.72 2.53S1.162.553.018.275zM119.97 17.428c-.032 2.365 1.226 2.24 1.228 2.24v.167l-6.332-.004v-.002l-.002.002v-8.507l-.002-.176c0 .08 0-2.173-1.975-2.197-.024.024-2.318-.22-2.318 4.067-.023.023-.023 5.014 3.855 4.373 0 .02-1.36 2.431-1.36 2.431s-3.144 1.084-5.751-1.701c0 0-1.983-1.724-1.983-5.103.023.023-.066-3.182 1.983-5.214-.021.066 3.163-3.531 7.549-.756V2.55c0-.049.111-1.973-1.172-2.059V.317l6.275-.243.004 17.354zM101.126 7.863c1.375-2.588 4.014-1.786 4.014-1.786v3.384c-4.185-.694-4.01 2.457-4.014 2.438h-.002l-.002 5.523c-.027 2.342 1.174 2.25 1.233 2.247v.162h-6.26v-.002h-3.622c-.131.016-4.46.157-4.63-3.872v-2.178s-1.72.381-2.255.792c0 0-1.368.87-.463 2.363 0 0 .67 1.18 2.846.744l-1.061 2.159h-2.1s-4.888.098-5.461-3.497c0-.025-.44-2.821 2.9-3.949 0 0 1.142-.404 3.314-.788.025 0 1.857-.262 2.028-1.255a.964.964 0 0 0-.06-.6c.026.08-.833-2.188-6.112.103.03.025 1.09-3.312 1.09-3.312s4.972-1.461 8.44.668c-.026.026 1.807 1 1.785 4.054l.054 4.233c-.009.063-.007 2.167 2.07 2.283 0 .02.83.016 1.234.014v-1.09l.002-8.144c0-.052.11-1.977-1.171-2.062v-.172l6.203-.243v1.783z"/><path d="M54.924 13.555c1.897 0 1.677-2.637 1.677-2.677-.04-2.264-1.673-2.197-1.673-2.197-1.799 0-1.727 2.26-1.748 2.237-.197 2.507 1.609 2.668 1.744 2.637zM69.092 6.06v8.814s-.044 1.91 1.698 1.893c-.008-.031 1.842.279 1.91-2.35.003.003.003.007.006.007l.002-1.602V8.557c0-.052.111-1.974-1.172-2.06V6.32l6.202-.241v11.346c-.003.048-.114 2.182 1.23 2.244v.16H72.7l.002-1.61c-.255.261-1.653 1.588-3.763 1.628 0 0-4.914.172-4.904-4.562-.018-.036-.008-5.041-.003-6.75h-3.78c.143.118.329.367.33.367 2.122 2.717.06 4.977.041 4.998-1.361 1.905-5.755 2.44-5.755 2.44l-.273.031c-1.488.052-1.015.807-1.01.811.215.503 1.287.424 1.287.424h2.516c5.094-.017 5.637 3.32 5.658 3.32.837 4.681-3.875 6.077-8.58 5.954-4.668.03-6.398-2.002-6.38-1.986-1.185-1.373-.559-3.29 1.54-3.871 1.552-.428 3.386 0 3.386 0-1.394.195-1.147 1.614-1.144 1.624.467 1.677 2.852 1.694 2.996 1.696 3.046-.157 3.133-1.64 3.133-2.365 0-.957-.795-1.532-.795-1.532-1.104-.811-3.193-.555-4.647-.618-2.038-.116-2.567-2.031-2.664-2.617-.095-.592.015-.83.355-1.048.615-.362 2.013-.521 1.854-.518l.03-.006c-.026-.006-.042-.006-.044-.006-1.753-.557-2.794-2.033-2.813-2.033-2.228-3.186.37-5.698.37-5.698 1.491-1.438 3.385-1.76 5.077-1.842h14.373zM122.001 2.573c0 1.18.969 2.142 2.161 2.142 1.19 0 2.157-.962 2.157-2.142S125.353.43 124.162.43c-1.192 0-2.16.962-2.16 2.143zm-.346 0c0-1.369 1.122-2.486 2.507-2.486 1.381 0 2.506 1.117 2.506 2.486 0 1.37-1.125 2.486-2.506 2.486a2.498 2.498 0 0 1-2.507-2.486z"/><path d="M123.619 2.73v1.322h-.413V1.124h1.056c.497 0 1.006.155 1.006.734a.698.698 0 0 1-.552.706v.009c.353.083.4.272.446.599.045.292.079.604.186.88h-.44c-.036-.173-.084-.364-.105-.54-.032-.262-.032-.501-.167-.65-.118-.132-.283-.12-.446-.132h-.571zm-.01-.348h.676c.454-.021.556-.225.556-.455 0-.232-.102-.436-.556-.455h-.677v.91z"/></g></svg></g></svg>