<svg xmlns="http://www.w3.org/2000/svg" width="40" height="40" viewBox="0 0 40 40"><circle cx="20" cy="20" r="20" fill="#d9e8f1"/><rect x="6" y="6" width="28" height="28" rx="7.9799999999999995" ry="7.9799999999999995" fill="#0064a4"/><g transform="translate(11.32, 11.32)"><svg width="17.36" height="17.36" viewBox="0 0 1550 1550" xmlns="http://www.w3.org/2000/svg"><g xmlns="http://www.w3.org/2000/svg" fill="#ffffff"><path d="M775 .6C347.1.6.2 347.5.2 775c0 427.9 346.9 774.4 774.8 774.4 427.8 0 774.7-346.5 774.7-774.4C1549.7 347.5 1202.8.6 775 .6m0 145.3c347.8 0 629.4 281.6 629.4 629.1 0 347.6-281.6 629.2-629.4 629.2-347.6 0-629.5-281.6-629.5-629.2 0-347.5 281.9-629.1 629.5-629.1"/><path d="M922.2 500.8 782.3 742.7h289.3l139.8-241.9zM349.7 500.8l425.3 736 143.6-248.6L637 500.8z"/></g></svg></g></svg>