<?xml version="1.0" encoding="UTF-8" standalone="no"?>
<!DOCTYPE svg PUBLIC "-//W3C//DTD SVG 1.1//EN" "http://www.w3.org/Graphics/SVG/1.1/DTD/svg11.dtd">
<svg xmlns="http://www.w3.org/2000/svg" version="1.1" viewBox="0.00 0.00 1448.00 1448.00">
<path fill="#d10a0a" d="
  M 711.38 0.00
  L 736.75 0.00
  L 760.86 1.08
  L 782.65 2.51
  L 804.26 4.55
  L 825.68 7.21
  L 846.92 10.48
  L 867.98 14.37
  L 888.86 18.87
  L 909.55 24.00
  L 930.06 29.73
  L 930.06 29.73
  L 945.93 34.63
  L 961.69 39.91
  L 977.34 45.56
  L 992.88 51.58
  L 1008.31 57.98
  L 1023.62 64.76
  L 1038.83 71.91
  L 1053.92 79.43
  L 1067.27 86.45
  L 1080.45 93.74
  L 1093.46 101.30
  L 1106.31 109.12
  L 1119.04 117.24
  L 1131.59 125.61
  L 1143.95 134.24
  L 1156.13 143.12
  L 1168.17 152.29
  L 1180.02 161.71
  L 1191.66 171.36
  L 1203.10 181.26
  L 1214.33 191.38
  L 1225.35 201.73
  L 1236.15 212.31
  L 1246.72 223.11
  L 1257.08 234.13
  L 1267.21 245.37
  L 1277.10 256.81
  L 1286.75 268.45
  L 1296.13 280.26
  L 1305.27 292.27
  L 1314.15 304.46
  L 1322.79 316.85
  L 1331.13 329.35
  L 1339.20 342.03
  L 1347.02 354.89
  L 1354.57 367.91
  L 1361.84 381.07
  L 1368.83 394.40
  L 1375.50 407.79
  L 1381.90 421.34
  L 1391.61 443.43
  L 1400.56 465.75
  L 1408.74 488.31
  L 1416.16 511.10
  L 1416.16 511.10
  L 1419.81 523.35
  L 1423.23 535.67
  L 1426.44 548.06
  L 1429.43 560.51
  L 1432.21 573.03
  L 1434.77 585.61
  L 1437.11 598.26
  L 1439.23 610.98
  L 1439.16 611.29
  L 1438.88 611.44
  L 1438.85 611.44
  L 1061.04 611.44
  L 1060.59 611.29
  L 1060.41 610.83
  L 1060.35 607.07
  L 1060.28 602.79
  L 1060.01 599.65
  L 1059.67 595.92
  L 1059.20 590.37
  L 1058.27 583.01
  L 1057.34 577.83
  L 1057.02 575.38
  L 1056.56 572.43
  L 1055.64 568.46
  L 1054.24 562.28
  L 1054.15 562.08
  L 1054.00 561.92
  L 1053.76 561.37
  L 1053.78 560.62
  L 1053.78 560.62
  L 1053.64 559.38
  L 1053.26 558.15
  L 1052.32 555.01
  L 1051.01 550.24
  L 1050.66 549.27
  L 1050.51 548.67
  L 1050.50 548.16
  L 1050.38 547.31
  L 1049.98 546.66
  L 1049.67 546.21
  L 1049.52 545.79
  L 1048.79 543.70
  L 1048.71 543.49
  L 1048.52 542.37
  L 1048.33 541.26
  L 1048.13 540.87
  L 1047.34 539.20
  L 1044.28 531.01
  L 1041.03 523.21
  L 1037.58 515.81
  L 1033.95 508.79
  L 1029.99 501.74
  L 1026.20 495.37
  L 1022.56 489.68
  L 1019.09 484.67
  L 1013.05 476.29
  L 1012.18 475.41
  L 1011.21 474.34
  L 1011.08 474.07
  L 1011.01 473.90
  L 1010.52 473.11
  L 1009.71 472.26
  L 1008.50 470.86
  L 1007.57 469.56
  L 1006.16 468.00
  L 1004.19 465.72
  L 1002.42 463.61
  L 1000.29 461.63
  L 1000.07 461.43
  L 999.28 460.29
  L 998.57 459.24
  L 993.59 454.14
  L 988.78 449.73
  L 985.06 446.30
  L 981.22 442.89
  L 975.20 437.75
  L 974.13 437.05
  L 972.98 436.24
  L 971.49 434.89
  L 963.51 429.09
  L 955.54 423.73
  L 947.58 418.80
  L 939.63 414.31
  L 929.09 409.01
  L 918.06 404.20
  L 906.54 399.88
  L 894.53 396.05
  L 892.55 395.58
  L 890.28 394.93
  L 888.63 394.43
  L 887.26 394.22
  L 886.55 394.22
  L 886.34 394.20
  L 886.12 394.11
  L 885.92 393.96
  L 885.85 393.88
  L 885.45 393.59
  L 884.95 393.55
  L 884.11 393.57
  L 883.06 393.17
  L 882.58 392.96
  L 882.01 392.90
  L 881.01 392.96
  L 880.43 392.88
  L 879.93 392.58
  L 879.32 392.24
  L 878.50 392.25
  L 878.00 392.27
  L 877.56 392.06
  L 876.70 391.62
  L 875.33 391.62
  L 874.81 391.64
  L 874.31 391.43
  L 873.51 391.03
  L 872.63 390.88
  L 871.68 390.96
  L 870.98 390.98
  L 870.34 390.75
  L 869.40 390.36
  L 867.61 390.26
  L 866.92 390.24
  L 866.49 390.11
  L 865.32 389.80
  L 863.68 389.73
  L 862.07 389.65
  L 861.04 389.28
  L 860.59 389.08
  L 860.17 389.03
  L 856.24 388.70
  L 852.28 388.35
  L 850.95 388.32
  L 848.74 388.06
  L 845.23 387.66
  L 602.93 387.66
  L 599.60 387.99
  L 598.04 388.20
  L 596.26 388.35
  L 591.27 388.76
  L 579.69 390.32
  L 578.20 390.62
  L 576.52 390.94
  L 575.17 390.96
  L 575.00 390.94
  L 574.46 390.98
  L 573.99 391.24
  L 573.31 391.57
  L 572.22 391.68
  L 570.99 391.83
  L 567.19 392.78
  L 563.24 393.48
  L 562.60 393.67
  L 562.24 393.89
  L 561.81 394.10
  L 561.38 394.17
  L 559.44 394.38
  L 558.02 394.76
  L 556.64 395.35
  L 555.73 395.50
  L 554.90 395.53
  L 554.24 395.86
  L 553.79 396.10
  L 553.28 396.21
  L 551.76 396.50
  L 539.39 400.60
  L 526.91 405.45
  L 518.62 409.15
  L 511.14 412.88
  L 503.86 416.82
  L 496.78 420.98
  L 489.90 425.35
  L 483.22 429.94
  L 476.73 434.74
  L 470.45 439.75
  L 464.36 444.98
  L 462.66 446.63
  L 460.04 449.03
  L 457.01 451.54
  L 453.05 455.50
  L 450.76 457.85
  L 448.51 460.36
  L 446.11 463.19
  L 437.86 472.90
  L 428.28 485.31
  L 427.88 485.89
  L 422.03 495.07
  L 417.17 503.16
  L 412.42 511.86
  L 408.07 520.79
  L 404.13 529.97
  L 400.60 539.39
  L 400.10 540.45
  L 399.48 542.09
  L 398.96 544.17
  L 397.66 548.05
  L 394.62 558.50
  L 394.23 561.01
  L 394.14 561.58
  L 394.01 561.91
  L 393.40 563.43
  L 393.00 565.12
  L 392.41 568.36
  L 391.50 572.18
  L 391.04 574.52
  L 390.95 576.78
  L 390.71 577.74
  L 390.33 578.59
  L 390.30 580.16
  L 390.29 580.60
  L 390.08 581.00
  L 389.87 581.25
  L 389.58 581.81
  L 389.56 582.44
  L 389.69 584.21
  L 389.41 585.85
  L 389.40 585.88
  L 389.13 587.14
  L 389.03 588.77
  L 388.92 590.41
  L 388.63 591.65
  L 388.25 593.54
  L 388.27 594.44
  L 388.33 596.77
  L 388.09 598.96
  L 387.71 603.21
  L 387.72 837.50
  L 387.89 845.75
  L 388.41 853.47
  L 389.37 862.18
  L 390.49 869.32
  L 390.66 870.01
  L 390.89 871.28
  L 391.03 873.46
  L 391.47 875.56
  L 392.46 879.95
  L 393.52 884.96
  L 393.97 886.00
  L 394.21 886.64
  L 394.30 887.56
  L 394.45 888.81
  L 397.46 899.68
  L 398.43 902.30
  L 399.00 903.67
  L 399.34 905.05
  L 400.14 907.63
  L 400.72 908.93
  L 403.55 916.56
  L 406.65 924.04
  L 410.03 931.38
  L 413.68 938.57
  L 413.68 938.57
  L 416.84 944.29
  L 420.18 949.92
  L 425.07 957.80
  L 430.32 965.32
  L 435.07 971.68
  L 436.21 972.93
  L 436.64 973.40
  L 437.04 974.22
  L 437.34 974.80
  L 437.75 975.21
  L 438.68 976.08
  L 439.65 977.38
  L 441.18 979.27
  L 443.52 981.90
  L 446.11 984.79
  L 448.65 987.62
  L 450.66 990.06
  L 453.62 993.08
  L 455.68 995.15
  L 460.29 999.23
  L 462.52 1001.22
  L 464.65 1003.44
  L 465.32 1004.04
  L 466.26 1004.53
  L 467.12 1005.15
  L 469.52 1007.55
  L 470.81 1008.47
  L 472.21 1009.68
  L 473.14 1010.55
  L 473.99 1011.07
  L 474.09 1011.11
  L 474.67 1011.43
  L 475.00 1011.71
  L 475.97 1012.57
  L 485.21 1019.42
  L 496.24 1026.68
  L 505.95 1032.39
  L 516.36 1037.80
  L 519.92 1039.41
  L 523.31 1040.94
  L 525.79 1042.26
  L 526.37 1042.49
  L 526.81 1042.55
  L 527.50 1042.70
  L 528.32 1043.11
  L 529.14 1043.52
  L 540.50 1047.75
  L 552.20 1051.62
  L 553.02 1051.76
  L 553.97 1051.97
  L 554.26 1052.16
  L 554.76 1052.43
  L 555.26 1052.50
  L 556.33 1052.60
  L 557.51 1053.00
  L 558.41 1053.37
  L 558.41 1053.37
  L 559.79 1053.71
  L 561.24 1053.81
  L 561.77 1053.90
  L 562.19 1054.17
  L 562.73 1054.47
  L 563.37 1054.48
  L 564.04 1054.47
  L 564.60 1054.69
  L 565.52 1055.06
  L 566.92 1055.06
  L 567.45 1055.06
  L 567.93 1055.33
  L 568.52 1055.70
  L 569.69 1055.78
  L 570.17 1055.79
  L 570.62 1056.03
  L 571.41 1056.44
  L 572.43 1056.40
  L 573.03 1056.35
  L 573.60 1056.56
  L 574.64 1057.01
  L 576.35 1057.04
  L 577.03 1057.03
  L 577.61 1057.24
  L 578.44 1057.61
  L 578.44 1057.61
  L 579.40 1057.79
  L 580.42 1057.76
  L 580.91 1057.75
  L 581.45 1057.89
  L 582.42 1058.21
  L 583.98 1058.43
  L 585.62 1058.32
  L 586.33 1058.35
  L 587.01 1058.72
  L 587.51 1058.99
  L 588.08 1059.03
  L 589.59 1058.96
  L 591.03 1059.15
  L 592.34 1059.57
  L 592.92 1059.75
  L 593.64 1059.77
  L 595.77 1059.65
  L 597.87 1059.78
  L 597.87 1059.78
  L 598.97 1059.94
  L 600.29 1060.14
  L 603.52 1060.34
  L 847.47 1060.34
  L 847.71 1060.32
  L 848.06 1060.19
  L 848.56 1059.92
  L 848.99 1059.75
  L 849.44 1059.70
  L 850.79 1059.74
  L 854.31 1059.74
  L 856.78 1059.25
  L 857.65 1059.02
  L 859.57 1059.02
  L 860.50 1058.90
  L 861.26 1058.60
  L 861.26 1058.60
  L 862.85 1058.31
  L 864.57 1058.40
  L 865.25 1058.40
  L 865.87 1058.18
  L 866.90 1057.78
  L 868.69 1057.76
  L 869.73 1057.58
  L 870.68 1057.17
  L 870.68 1057.17
  L 871.83 1056.98
  L 873.06 1057.09
  L 873.55 1057.09
  L 873.96 1056.86
  L 874.27 1056.61
  L 874.75 1056.36
  L 875.30 1056.37
  L 876.55 1056.39
  L 877.50 1055.97
  L 878.01 1055.74
  L 878.58 1055.75
  L 879.32 1055.75
  L 879.85 1055.49
  L 880.29 1055.24
  L 880.77 1055.13
  L 884.09 1054.61
  L 885.21 1054.36
  L 885.85 1054.12
  L 886.09 1053.97
  L 886.35 1053.83
  L 887.01 1053.73
  L 887.06 1053.73
  L 888.42 1053.59
  L 896.14 1051.44
  L 903.71 1049.08
  L 911.13 1046.49
  L 918.40 1043.68
  L 925.51 1040.64
  L 932.48 1037.39
  L 939.29 1033.91
  L 945.96 1030.21
  L 954.04 1025.29
  L 962.11 1019.90
  L 970.17 1014.04
  L 978.21 1007.70
  L 979.64 1006.39
  L 981.92 1004.47
  L 983.49 1003.29
  L 985.37 1001.44
  L 987.95 999.01
  L 991.38 996.06
  L 995.89 991.56
  L 998.54 988.86
  L 999.14 987.87
  L 999.77 986.89
  L 1002.24 984.50
  L 1005.14 981.12
  L 1007.04 978.85
  L 1012.27 972.53
  L 1017.45 965.64
  L 1022.36 958.57
  L 1022.36 958.57
  L 1022.36 958.57
  L 1027.37 950.73
  L 1032.05 942.69
  L 1036.43 934.43
  L 1040.49 925.96
  L 1043.35 919.32
  L 1046.11 912.21
  L 1047.82 907.82
  L 1048.57 905.43
  L 1049.30 902.98
  L 1050.57 899.19
  L 1054.25 885.85
  L 1055.36 880.82
  L 1056.60 875.27
  L 1057.02 873.19
  L 1057.11 872.23
  L 1057.56 869.05
  L 1058.23 865.26
  L 1058.76 861.04
  L 1059.40 855.96
  L 1059.72 852.55
  L 1059.78 849.26
  L 1059.84 848.75
  L 1060.00 848.32
  L 1060.19 847.80
  L 1060.23 847.50
  L 1060.29 837.69
  L 1060.42 837.37
  L 1060.74 837.23
  L 1060.74 837.23
  L 1438.78 837.23
  L 1439.05 837.35
  L 1439.14 837.62
  L 1439.14 837.62
  L 1439.14 837.65
  L 1436.15 855.05
  L 1432.76 872.31
  L 1428.98 889.43
  L 1424.80 906.40
  L 1420.22 923.22
  L 1415.24 939.90
  L 1409.87 956.43
  L 1404.10 972.82
  L 1404.10 972.82
  L 1404.10 972.82
  L 1404.10 972.82
  L 1397.20 990.91
  L 1389.80 1008.83
  L 1381.92 1026.56
  L 1373.53 1044.12
  L 1364.66 1061.49
  L 1355.29 1078.69
  L 1345.43 1095.70
  L 1335.07 1112.53
  L 1324.10 1129.21
  L 1316.24 1140.48
  L 1308.23 1151.55
  L 1300.07 1162.43
  L 1291.75 1173.13
  L 1283.27 1183.63
  L 1274.64 1193.95
  L 1265.86 1204.07
  L 1256.92 1214.00
  L 1247.83 1223.75
  L 1238.58 1233.30
  L 1229.18 1242.66
  L 1219.63 1251.83
  L 1209.92 1260.82
  L 1200.06 1269.61
  L 1190.04 1278.21
  L 1179.87 1286.62
  L 1165.74 1297.79
  L 1151.33 1308.60
  L 1136.63 1319.06
  L 1121.65 1329.16
  L 1102.16 1341.54
  L 1082.43 1353.23
  L 1062.47 1364.25
  L 1042.28 1374.59
  L 1021.86 1384.25
  L 1001.20 1393.23
  L 980.31 1401.53
  L 959.19 1409.15
  L 959.19 1409.15
  L 959.19 1409.15
  L 959.19 1409.15
  L 945.96 1413.54
  L 932.63 1417.68
  L 919.21 1421.54
  L 905.71 1425.15
  L 892.11 1428.50
  L 878.43 1431.58
  L 864.65 1434.40
  L 850.79 1436.96
  L 836.83 1439.26
  L 822.79 1441.29
  L 808.65 1443.06
  L 794.43 1444.57
  L 780.11 1445.82
  L 765.71 1446.81
  L 751.21 1447.54
  L 736.63 1448.00
  L 711.26 1448.00
  L 687.08 1447.11
  L 663.12 1445.47
  L 639.37 1443.08
  L 615.83 1439.95
  L 592.51 1436.08
  L 569.41 1431.46
  L 546.51 1426.09
  L 523.84 1419.98
  L 523.84 1419.98
  L 523.84 1419.98
  L 523.84 1419.98
  L 523.84 1419.98
  L 504.19 1414.02
  L 484.70 1407.50
  L 465.38 1400.41
  L 446.22 1392.74
  L 427.22 1384.51
  L 408.39 1375.71
  L 389.72 1366.33
  L 371.22 1356.39
  L 353.97 1346.44
  L 336.01 1335.32
  L 318.46 1323.78
  L 301.32 1311.81
  L 284.59 1299.41
  L 268.28 1286.58
  L 252.37 1273.33
  L 236.88 1259.64
  L 221.81 1245.53
  L 221.81 1245.53
  L 221.81 1245.53
  L 221.81 1245.53
  L 221.81 1245.53
  L 211.45 1235.35
  L 201.30 1224.96
  L 191.35 1214.36
  L 181.61 1203.55
  L 172.07 1192.52
  L 162.73 1181.29
  L 153.60 1169.84
  L 144.67 1158.18
  L 137.18 1148.02
  L 129.88 1137.74
  L 122.77 1127.35
  L 115.85 1116.85
  L 109.09 1106.21
  L 102.53 1095.46
  L 96.16 1084.61
  L 89.98 1073.66
  L 83.99 1062.59
  L 78.20 1051.43
  L 72.61 1040.17
  L 67.22 1028.83
  L 62.03 1017.40
  L 57.03 1005.88
  L 52.25 994.28
  L 47.66 982.60
  L 42.89 969.78
  L 38.37 956.86
  L 34.10 943.86
  L 30.06 930.78
  L 26.28 917.61
  L 22.75 904.37
  L 19.46 891.05
  L 16.43 877.67
  L 13.65 864.25
  L 11.13 850.76
  L 8.86 837.22
  L 6.85 823.61
  L 5.09 810.00
  L 3.60 796.34
  L 2.35 782.63
  L 1.37 768.88
  L 0.68 755.34
  L 0.00 736.88
  L 0.00 711.00
  L 0.74 691.54
  L 1.52 676.75
  L 2.71 661.07
  L 4.23 645.49
  L 6.06 630.00
  L 8.23 614.61
  L 10.71 599.31
  L 13.52 584.11
  L 16.65 569.00
  L 20.10 553.99
  L 23.74 539.56
  L 27.66 525.25
  L 31.86 511.05
  L 36.34 496.98
  L 41.09 483.02
  L 46.13 469.18
  L 51.45 455.46
  L 57.04 441.86
  L 57.04 441.86
  L 57.04 441.86
  L 65.72 422.21
  L 74.99 402.81
  L 84.85 383.66
  L 95.32 364.77
  L 106.37 346.12
  L 118.03 327.73
  L 130.27 309.60
  L 143.12 291.71
  L 155.32 275.83
  L 163.57 265.66
  L 171.95 255.67
  L 180.46 245.87
  L 189.10 236.24
  L 197.87 226.80
  L 206.77 217.54
  L 215.79 208.46
  L 224.95 199.56
  L 234.24 190.84
  L 243.66 182.31
  L 253.21 173.95
  L 262.89 165.78
  L 272.70 157.79
  L 282.64 149.98
  L 292.71 142.35
  L 302.91 134.90
  L 302.91 134.90
  L 302.91 134.90
  L 302.91 134.90
  L 313.69 127.33
  L 324.61 119.95
  L 335.67 112.77
  L 346.87 105.79
  L 358.21 99.00
  L 369.70 92.41
  L 381.32 86.02
  L 393.09 79.83
  L 408.34 72.20
  L 423.70 64.95
  L 439.18 58.09
  L 454.76 51.61
  L 470.47 45.51
  L 486.28 39.79
  L 502.21 34.45
  L 518.25 29.50
  L 518.25 29.50
  L 518.25 29.50
  L 518.25 29.50
  L 518.25 29.50
  L 518.25 29.50
  L 529.88 26.17
  L 541.57 23.03
  L 553.32 20.10
  L 565.12 17.36
  L 576.99 14.82
  L 588.91 12.48
  L 600.89 10.34
  L 612.93 8.40
  L 625.03 6.65
  L 637.19 5.11
  L 649.41 3.76
  L 661.69 2.61
  L 674.02 1.66
  L 686.42 0.91
  L 698.87 0.35
  L 711.38 0.00
  Z"
/>
</svg>
