<svg xmlns="http://www.w3.org/2000/svg" width="40" height="40" viewBox="0 0 40 40"><circle cx="20" cy="20" r="20" fill="#f3dde0"/><rect x="6" y="6" width="28" height="28" rx="7.9799999999999995" ry="7.9799999999999995" fill="#ac1e2d"/><g transform="translate(11.32, 17.134327597195664)"><svg width="17.36" height="5.731344805608668" viewBox="0 0 1569 518" xmlns="http://www.w3.org/2000/svg">
<path xmlns="http://www.w3.org/2000/svg" d="M1140 362.601C1153.2 362.601 1156.7 366.201 1156.7 379.001C1156.7 395.301 1157.3 401.4 1140 401.4H1108.7V362.601H1140Z" fill="#ffffff"/>
<path xmlns="http://www.w3.org/2000/svg" d="M819.102 92.5C846.301 92.5 856.001 95.3002 856.001 124V167.8C856.001 196.9 846.301 199.8 819.102 199.8C791.902 199.8 783.001 196.9 782.201 167.8V124.1C783.001 95.3 791.902 92.5 819.102 92.5Z" fill="#ffffff"/>
<path xmlns="http://www.w3.org/2000/svg" fill-rule="evenodd" clip-rule="evenodd" d="M1313.3 0C1340.9 0 1363.3 22.4 1363.3 50V216.4H1515.9C1544.4 216.1 1567.7 238.9 1568.1 267.4V467C1567.7 495.5 1544.4 518.3 1515.9 518H264.302C235.902 518.3 212.502 495.5 212.102 467V290.4H50C22.4001 290.4 0.000214683 268 0 240.4V50C0 22.4 22.4 0 50 0H1313.3ZM850.701 327.4C803.201 327.4 774.602 334.401 774.602 381.601V418.4C774.602 470.7 806.701 472.601 850.701 472.601C869.501 472.601 887.402 473.001 902.002 462.101C916.702 451.201 916.901 437.2 916.901 421.5V417.301H872.401V421.601C872.401 438.3 863.701 439.5 845.901 439.5C820.002 439.5 818.901 431.3 818.901 409.9V387.601C818.901 367.201 821.302 360.601 845.901 360.601C860.501 360.601 870.601 361.501 872.201 374.301V379.801H916.701V374.301C915.801 331.501 895.201 327.4 850.701 327.4ZM1363.9 327.5C1317.9 327.5 1290 334.401 1290 381.601V418.4C1290 470.6 1321.2 472.5 1363.9 472.5C1382.1 472.5 1399.5 472.9 1413.7 462C1427.9 451.2 1428.2 437.1 1428.2 421.5L1428.4 417.301H1385.2V421.601C1385.2 438.4 1376.9 439.5 1359.5 439.5C1334.4 439.5 1333.3 431.3 1333.3 410V387.7C1333.3 367.3 1335.7 360.601 1359.5 360.601C1373.6 360.601 1383.5 361.601 1385 374.301V379.9H1427.9V374.301C1427.1 331.501 1407 327.5 1363.9 327.5ZM925.602 361.9H966.201V471.5H1008.5V361.801H1051L1051.2 328.7H925.602V361.9ZM1066.2 471.5H1107.6V433.5H1139.5C1151.8 433.5 1156.8 440.701 1156.4 451.4V471.4H1197.7V442.7L1197.9 442.801C1197.9 426.601 1186.9 418.001 1169.9 417.301V415.9C1199.2 409.6 1199.2 395.7 1199.2 371.9C1199.2 336.3 1181.7 329.3 1145.9 328.7H1066.2V471.5ZM371.201 471.4H488.002V440.301H413.802V412.5H482.102V386H413.802V359.9H486.502V328.7H371.201V471.4ZM640.701 471.4H757.502V440.301H683.401V412.5H751.602V386H683.401V359.9H756.102V328.601H640.701V471.4ZM1222.9 471.4H1267.1L1267.2 328.7H1222.9V471.4ZM510.401 471.301H620.701V438.301H553.401V328.601H510.401V471.301ZM630.8 48.7998C573.9 48.7998 539.6 58.1 539.6 122.1V172.5C539.6 243.1 578.1 245.7 630.8 245.7C653.3 245.7 674.7 246.2 692.3 231.5C709.9 216.8 710.1 197.6 710.1 176.5L710.2 170.7H656.9V176.4C656.9 199.1 646.499 200.6 625.1 200.6C594.1 200.6 592.8 189.499 592.8 160.6V130.4C592.8 102.801 595.7 93.7003 625.1 93.7002C642.7 93.7002 654.8 95 656.6 112.3V119.9H709.9V112.4C708.8 54.2004 684 48.7998 630.8 48.7998ZM818.9 48.7998C766.5 48.7998 729.3 60.1 729.3 119.8V174.7C729.3 234.3 766.4 245.7 818.9 245.7C871.4 245.7 908.6 234.3 908.6 174.7V119.8C908.6 60.1001 871.4 48.7999 818.9 48.7998ZM1086.1 244.1H1138L1134.8 95.2998H1136.9L1191.5 244.2H1279.6L1279.7 50.2998H1228L1231.2 199.1H1229.2L1173.5 50.2998H1086.1V244.1ZM930 244.1H1064.5L1064.6 199.1H982.5V50.2998H930V244.1ZM79.4004 244H211.9V199H131.2V50.2998H79.4004V244ZM235.7 244H287.4V50.2002H235.7V244ZM317.1 244H368.9L365.7 95.2002H367.7L422.5 244H510.6V50.2998H459L462.1 199.1H460L404.4 50.2998H317.1V244Z" fill="#ffffff"/>
</svg></g></svg>