<svg xmlns="http://www.w3.org/2000/svg" width="40" height="40" viewBox="0 0 40 40"><circle cx="20" cy="20" r="20" fill="#fff6de"/><rect x="6" y="6" width="28" height="28" rx="7.9799999999999995" ry="7.9799999999999995" fill="#ffc222"/><g transform="translate(11.32, 13.418712220762156)"><svg width="17.36" height="13.16257555847569" viewBox="0 0 1522 1154" xmlns="http://www.w3.org/2000/svg">
<path xmlns="http://www.w3.org/2000/svg" d="M401.049 825.6C408.848 825.6 416.248 829.2 420.948 835.3C425.748 841.5 427.548 849.4 425.648 856.9L357.049 1134C354.249 1145.3 344.148 1153.2 332.448 1153.2H25.2477C17.5479 1153.2 10.1476 1149.6 5.24773 1143.5C0.64783 1137.3 -1.15225 1129.4 0.747728 1121.8L69.3483 844.8C72.0484 833.5 82.148 825.6 93.7477 825.6H401.049Z" fill="#ffffff"/>
<path xmlns="http://www.w3.org/2000/svg" d="M846.648 825.6C854.448 825.6 861.749 829.2 866.549 835.3C871.348 841.5 873.048 849.4 871.248 856.9L802.648 1134C799.848 1145.3 789.748 1153.2 778.049 1153.2H470.848C463.048 1153.2 455.748 1149.6 450.948 1143.5C446.148 1137.3 444.348 1129.4 446.248 1121.8L514.848 844.8C517.648 833.5 527.848 825.6 539.448 825.6H846.648Z" fill="#ffffff"/>
<path xmlns="http://www.w3.org/2000/svg" d="M1292.25 825.6C1300.05 825.6 1307.35 829.2 1312.15 835.3C1317.05 841.5 1318.65 849.4 1316.75 856.9L1248.25 1134C1245.45 1145.3 1235.25 1153.2 1223.75 1153.2H916.348C908.648 1153.2 901.348 1149.6 896.448 1143.5C891.648 1137.3 890.048 1129.4 891.848 1121.8L960.549 844.8C963.249 833.5 973.349 825.6 985.049 825.6H1292.25Z" fill="#ffffff"/>
<path xmlns="http://www.w3.org/2000/svg" d="M503.248 412.8C511.048 412.8 518.348 416.4 523.148 422.5C527.948 428.7 529.648 436.6 527.848 444.1L459.248 721.2C456.448 732.4 446.348 740.3 434.748 740.3H127.348C119.648 740.3 112.348 736.8 107.448 730.6C102.648 724.6 100.948 716.6 102.848 709L171.448 432C174.248 420.7 184.449 412.8 196.049 412.8H503.248Z" fill="#ffffff"/>
<path xmlns="http://www.w3.org/2000/svg" d="M948.847 412.8C956.647 412.8 964.048 416.4 968.748 422.5C973.548 428.7 975.348 436.6 973.448 444.1L904.847 721.2C902.047 732.4 891.947 740.3 880.347 740.3H573.048C565.248 740.3 557.948 736.8 553.048 730.6C548.348 724.6 546.648 716.6 548.448 709L617.048 432C619.848 420.7 629.947 412.8 641.647 412.8H948.847Z" fill="#ffffff"/>
<path xmlns="http://www.w3.org/2000/svg" d="M1394.45 412.8C1402.25 412.8 1409.55 416.4 1414.45 422.5C1419.25 428.7 1420.85 436.6 1419.05 444.1L1350.45 721.2C1347.65 732.4 1337.55 740.3 1325.95 740.3H1018.65C1010.85 740.3 1003.45 736.8 998.748 730.6C993.848 724.6 992.248 716.6 994.048 709L1062.65 432C1065.45 420.7 1075.55 412.8 1087.25 412.8H1394.45Z" fill="#ffffff"/>
<path xmlns="http://www.w3.org/2000/svg" d="M605.448 0C613.248 0 620.648 3.5002 625.348 9.7002C630.148 15.8002 631.948 23.8005 630.049 31.4004L561.448 308.4C558.748 319.6 548.548 327.6 536.948 327.6H229.648C221.848 327.6 214.548 324.1 209.648 317.9C204.948 311.8 203.249 303.8 205.049 296.2L273.648 19.2002C276.448 8.0002 286.548 0 298.148 0H605.448Z" fill="#ffffff"/>
<path xmlns="http://www.w3.org/2000/svg" d="M1051.05 0C1058.85 0 1066.15 3.5002 1070.95 9.7002C1075.85 15.8002 1077.55 23.8005 1075.65 31.4004L1007.05 308.4C1004.25 319.6 994.147 327.6 982.548 327.6H675.248C667.448 327.6 660.147 324.1 655.347 317.9C650.547 311.8 648.848 303.8 650.748 296.2L719.248 19.2002C722.048 8.00024 732.247 7.0158e-05 743.847 0H1051.05Z" fill="#ffffff"/>
<path xmlns="http://www.w3.org/2000/svg" d="M1496.75 0C1504.45 5.54858e-05 1511.75 3.5003 1516.65 9.7002C1521.35 15.8002 1523.15 23.8004 1521.25 31.4004L1452.65 308.4C1449.85 319.6 1439.75 327.6 1428.05 327.6H1120.85C1113.05 327.6 1105.75 324.1 1100.95 317.9C1096.15 311.8 1094.45 303.8 1096.25 296.2L1164.95 19.2002C1167.65 8.0002 1177.85 0 1189.45 0H1496.75Z" fill="#ffffff"/>
</svg></g></svg>