<svg width="500" height="500" viewBox="0 0 500 500" fill="none" xmlns="http://www.w3.org/2000/svg">
<rect width="500" height="500" fill="#51FFD6"/>
<g clip-path="url(#clip0_8439_27895)">
<path d="M80.0981 210.541L62.251 289.454H102.212L120.06 210.541H80.0981Z" fill="#18191A"/>
<path d="M297.436 210.541L275.719 240.878H274.125L266.265 210.541H222.973L248.282 270.738L244.015 289.454H283.982L288.243 270.738L340.729 210.541H297.436Z" fill="#18191A"/>
<path d="M417.196 210.541H359.518C346.199 210.541 338.601 215.171 336.473 224.718L334.067 235.116C333.768 236.464 333.643 237.726 333.67 238.912C333.828 245.611 338.884 249.911 345.595 252.564C352.763 255.402 361.815 256.36 368.787 256.36H391.048L390.205 260.157L386.814 273.386H365.5L368.433 260.157H328.466L325.805 272.444C323.274 283.876 329.8 289.454 345.916 289.454H403.191C416.646 289.454 424.239 284.731 426.367 275.276L429.725 260.157C430.025 258.808 430.15 257.546 430.128 256.36C429.97 249.662 424.914 245.362 418.197 242.708C411.029 239.876 401.978 238.912 395.005 238.912H373.087L373.931 235.116L375.885 226.608H397.199L395.337 235.116H435.304L437.166 227.551C439.833 216.119 433.312 210.541 417.19 210.541H417.196Z" fill="#18191A"/>
<path d="M202.067 210.541H125.627L107.775 289.454H147.736L154.409 260.157H175.707L169.051 289.454H209.012L211.483 278.726L213.132 271.561C215.576 261.083 210.525 255.586 197.266 254.747C196.058 254.665 194.784 254.627 193.435 254.627H193.674L194.441 250.761H196.559C197.343 250.761 198.099 250.745 198.845 250.712C210.873 250.192 217.726 245.486 219.74 236.589L221.77 227.486C224.426 216.048 218.183 210.541 202.067 210.541ZM177.852 244.75H157.865L161.997 226.603H181.977L177.852 244.75Z" fill="#18191A"/>
</g>
<defs>
<clipPath id="clip0_8439_27895">
<rect width="375.497" height="78.918" fill="white" transform="translate(62.251 210.541)"/>
</clipPath>
</defs>
</svg>