<svg xmlns="http://www.w3.org/2000/svg" width="40" height="40" viewBox="0 0 40 40"><circle cx="20" cy="20" r="20" fill="#fad9d9"/><rect x="6" y="6" width="28" height="28" rx="7.9799999999999995" ry="7.9799999999999995" fill="#dc0000"/><g transform="translate(11.32, 17.052603092783507)"><svg width="17.36" height="5.894793814432989" viewBox="0 0 1552 527" xmlns="http://www.w3.org/2000/svg"><path xmlns="http://www.w3.org/2000/svg" fill="#ffffff" fill-rule="evenodd" d="M1188.8 517h-102.7V326c0-39-15.4-69.9-56.1-69.9-34.6 0-66.7 25.4-66.7 70.7V517H860.7V176.6h96.1v76.2c18.4-62.2 77.7-86.2 119.1-86.2 69.6 0 112.9 48.1 112.9 125.6zM107 346.8c0 76 59.6 97.5 113.5 97.5 26.6 0 54.8-5.4 70.6-11.8v78.1c-18.7 8.7-60.4 16.4-96.7 16.4C96.2 527 0 478.8 0 346.1c0-86.9 66.5-179.4 189.5-179.4 30.6 0 65.9 6.7 88.2 16.9v78c-19.4-8.1-40-12.2-59.9-12.2-58.6 0-110.9 34.8-110.9 97.4zm1444.8 170.3h-96.3v-50.8c-20 37.1-60.4 60.7-110.3 60.7-79.7 0-115.5-54.6-115.5-108.7 0-67.4 53.4-109.1 139.7-109.1 26.7 0 57.5 5.5 79.9 13.4 0-50.3-28.2-73.3-79.5-73.3-36.3 0-70.8 7.5-114.6 25.1v-78c24.2-10.2 86.1-29.8 147.1-29.8 75.4 0 149.5 26.4 149.5 142.3zm-102.7-132.9v-9c-13.3-9.5-34-15.4-51.8-15.4-38.4 0-62.7 21.7-62.7 52.3 0 25.7 18.5 46.5 49.1 46.5 41.5 0 65.3-37.5 65.3-74.2zm-1063.4-259c-34.2 0-61.8-27.8-61.8-62.1 0-34.4 27.6-62.1 61.8-62.1s61.8 27.7 61.8 62.1c0 34.3-27.6 62.1-61.8 62.1m343.6 320.7c25.3 0 51.3-5.2 74.5-15v76.5c-20.7 9.5-65.2 19.5-108.4 19.5-52.7 0-97.2-14.1-130.5-39.7-34.3 21-76.3 39.7-125.6 39.7s-82.5-25-95.2-58.8c-8.3-22.1-9.7-48.5-9.7-78.5V176.5H437v211.7c0 22.1 2.3 39 11.3 51.5 8.9 12.4 22.8 19.1 40.6 19.1 12.4 0 26.3-3.7 40.5-9.2-19.4-28.7-30-64.7-30-106.2 0-98.7 78.3-177 183.2-177 82.5 0 121.2 55.3 121.2 104.5 0 77.7-65.6 121.4-142.8 159.7 20.1 10.1 43.7 15.1 68.3 15.1zM605.9 341.8c0 23.4 6.7 42.7 18 58.2 40.4-27.6 75.9-65.1 75.9-110.8 0-22-11.6-39.9-33.2-39.9-29.2 0-60.7 37.1-60.7 92.5"/></svg></g></svg>