<svg xmlns="http://www.w3.org/2000/svg" width="40" height="40" viewBox="0 0 40 40"><circle cx="20" cy="20" r="20" fill="#d9dee6"/><rect x="6" y="6" width="28" height="28" rx="7.9799999999999995" ry="7.9799999999999995" fill="#00205b"/><g transform="translate(11.32, 16.9)"><svg width="17.36" height="6.2" viewBox="0 0 1568 560" xmlns="http://www.w3.org/2000/svg"><path xmlns="http://www.w3.org/2000/svg" fill="#ffffff" d="M878.9 216.7c44.8-.3 89.6-.8 134.4-1.3q2.3 2.5 4.7 5c3.2 61.5 6.9 123 10.4 184.5 27.5-56.8 53.8-114.2 79.6-171.8 2.7-6.2 5-13.1 11.2-16.7 44.4-.1 88.7-.1 133-.8l4.8 5.4c-18 109-34.2 218.3-49.9 327.6-.2 3.8-3.9 5.8-6.1 8.4-32 .2-64 1-96 1.4q-2.4-3-4.8-6.1c15.2-73.9 28.1-148.1 43-222-26 53.2-51.8 106.4-76.6 160.1q-11.1 23.7-22.3 47.2c-3.6 6.9-5.5 15.4-12.9 19.3-26.5-.7-53 .9-79.5 1q-2.3-2.6-4.5-5.1c-5.1-75.2-7.6-150.5-13-225.7-17.8 75.1-36.1 150.1-54.3 225.1-2.5 1.9-4.8 5.1-8.3 4.6-26.6.2-53 1.2-79.5 1.6l-5.8-6.4c29-104.4 57.7-208.8 83.5-314 2.2-7.4 1.9-16.4 8.9-21.3M479.6 13.4C584.7 2.4 690.5-1 796.1 1c151.8 3 303.2 18.2 453.1 42.3 66.1 10.7 131.9 23.2 197.3 37.7 40.5 9 80.9 18.5 120.9 29.6-53-8.7-106.4-15.3-159.8-21.2-148.1-16-296.8-25.4-445.7-30.9-79.2-3.1-158.6-3.7-237.8-1.2C610.5 61 496.9 70.2 384.8 89.6c-40.5 7.1-80.8 15.5-120.5 26.3-44.1 12.2-87.9 26.7-128.6 47.9-22.4 11.9-44.2 26-61.4 44.9C62.4 221.8 53 238 51.1 255.8c-1.6 12.7 1.7 25.4 6.6 37 8.2 19.4 20.9 36.6 35.7 51.5-32.3-19.1-63-43.8-80.9-77.3C3.9 250.5-1.1 231.6 1 212.9c1.8-16.1 8.9-31.2 18.6-44.1 11.7-15.7 26.9-28.5 43-39.7 23.8-16.4 49.9-29.2 76.6-40.3 41.8-17.2 85.4-30 129.3-40.5C338 31.7 408.7 20.9 479.6 13.4M352 225.7c.7-3.9 3.8-6.4 6.3-9.2 55.2.5 110.4.9 165.5.6 36.6.3 73.1-.9 109.7-.3 75.8.6 151.6.7 227.4-.2q3 2.9 5.9 5.9c-6.5 23.2-11.9 46.7-18.1 70q-3.2 2.7-6.5 5.3c-22.4-.3-44.8-1.3-67.3-1.8-20 83.8-38.3 168-54.8 252.5-.1 4.2-3.2 7.1-6.1 9.7-34.9-.4-69.9.7-104.8 1.2q-2.3-2.9-4.7-5.9c21.6-85 41.5-170.5 60.6-256.1-24.4-.6-48.8 0-73.2.4-22.7-.2-45.4-1.4-68.1-1.8-20.3 84.7-38.7 169.9-55.5 255.3-.7 3-3.6 4.7-5.5 6.9-34.9-.4-69.8.7-104.8 1.2q-2.3-3-4.6-5.9c21.6-85 41.5-170.5 60.5-256.1-25.2-.6-50.5.1-75.8.4q-2.1-3.9-4.2-8c5.8-21.4 12.5-42.6 18.1-64.1"/></svg></g></svg>