<svg xmlns="http://www.w3.org/2000/svg" width="40" height="40" viewBox="0 0 40 40"><circle cx="20" cy="20" r="20" fill="#dee0e5"/><rect x="6" y="6" width="28" height="28" rx="7.9799999999999995" ry="7.9799999999999995" fill="#243354"/><g transform="translate(11.32, 17.69479060265577)"><svg width="17.36" height="4.610418794688457" viewBox="0 0 979 260" xmlns="http://www.w3.org/2000/svg">
  <path xmlns="http://www.w3.org/2000/svg" fill="#ffffff" fill-rule="evenodd" d="     M 250.00 74.00 L 247.00 75.00 L 245.00 77.00 L 244.00 80.00 L 243.00 85.00 L 241.00 96.00 L 240.00 106.00 L 229.00 162.00 L 212.00 243.00 L 213.00 250.00 L 215.00 251.00 L 219.00 251.00 L 252.00 251.00 L 256.00 251.00 L 259.00 250.00 L 261.00 248.00 L 262.00 245.00 L 263.00 240.00 L 264.00 230.00 L 268.00 215.00 L 294.00 84.00 L 293.00 75.00 L 291.00 74.00 L 285.00 74.00 L 256.00 74.00 Z M 682.00 70.00 L 675.00 71.00 L 671.00 72.00 L 662.00 75.00 L 656.00 78.00 L 646.00 83.00 L 637.00 89.00 L 633.00 92.00 L 628.00 96.00 L 623.00 100.00 L 613.00 109.00 L 600.00 119.00 L 600.00 110.00 L 599.00 104.00 L 598.00 101.00 L 597.00 98.00 L 594.00 92.00 L 592.00 89.00 L 585.00 82.00 L 582.00 80.00 L 579.00 78.00 L 577.00 77.00 L 572.00 75.00 L 569.00 74.00 L 566.00 73.00 L 562.00 72.00 L 557.00 71.00 L 533.00 71.00 L 527.00 72.00 L 522.00 73.00 L 515.00 75.00 L 510.00 77.00 L 505.00 79.00 L 499.00 82.00 L 494.00 85.00 L 491.00 87.00 L 488.00 89.00 L 484.00 92.00 L 477.00 99.00 L 473.00 98.00 L 472.00 96.00 L 471.00 93.00 L 469.00 90.00 L 459.00 80.00 L 456.00 78.00 L 448.00 74.00 L 445.00 73.00 L 442.00 72.00 L 437.00 71.00 L 411.00 71.00 L 405.00 72.00 L 401.00 73.00 L 397.00 74.00 L 388.00 77.00 L 382.00 80.00 L 372.00 85.00 L 362.00 90.00 L 362.00 85.00 L 363.00 84.00 L 363.00 79.00 L 362.00 77.00 L 360.00 75.00 L 338.00 74.00 L 319.00 74.00 L 317.00 75.00 L 315.00 76.00 L 314.00 77.00 L 313.00 79.00 L 312.00 81.00 L 311.00 87.00 L 311.00 97.00 L 309.00 107.00 L 305.00 127.00 L 293.00 188.00 L 292.00 193.00 L 291.00 198.00 L 286.00 218.00 L 281.00 243.00 L 281.00 248.00 L 282.00 250.00 L 284.00 250.00 L 285.00 251.00 L 290.00 251.00 L 327.00 250.00 L 329.00 249.00 L 330.00 247.00 L 331.00 245.00 L 332.00 241.00 L 335.00 226.00 L 341.00 189.00 L 342.00 184.00 L 344.00 175.00 L 346.00 166.00 L 347.00 162.00 L 348.00 158.00 L 350.00 151.00 L 351.00 148.00 L 353.00 143.00 L 354.00 141.00 L 355.00 139.00 L 358.00 134.00 L 361.00 130.00 L 369.00 122.00 L 372.00 120.00 L 375.00 118.00 L 381.00 115.00 L 384.00 114.00 L 387.00 113.00 L 391.00 112.00 L 404.00 112.00 L 408.00 113.00 L 410.00 114.00 L 412.00 115.00 L 415.00 117.00 L 419.00 121.00 L 421.00 124.00 L 422.00 127.00 L 423.00 130.00 L 424.00 138.00 L 424.00 145.00 L 423.00 153.00 L 421.00 163.00 L 404.00 244.00 L 404.00 248.00 L 405.00 250.00 L 410.00 251.00 L 444.00 251.00 L 448.00 251.00 L 451.00 250.00 L 453.00 248.00 L 454.00 246.00 L 455.00 243.00 L 456.00 237.00 L 459.00 222.00 L 467.00 178.00 L 469.00 169.00 L 471.00 160.00 L 473.00 152.00 L 474.00 148.00 L 476.00 143.00 L 479.00 137.00 L 481.00 134.00 L 483.00 131.00 L 492.00 122.00 L 495.00 120.00 L 498.00 118.00 L 500.00 117.00 L 502.00 116.00 L 511.00 113.00 L 515.00 112.00 L 530.00 112.00 L 533.00 113.00 L 535.00 114.00 L 537.00 115.00 L 543.00 121.00 L 546.00 127.00 L 547.00 131.00 L 547.00 145.00 L 546.00 152.00 L 545.00 159.00 L 544.00 165.00 L 542.00 176.00 L 536.00 206.00 L 534.00 211.00 L 528.00 241.00 L 529.00 250.00 L 532.00 251.00 L 535.00 251.00 L 567.00 251.00 L 572.00 251.00 L 576.00 249.00 L 577.00 247.00 L 578.00 244.00 L 579.00 238.00 L 583.00 214.00 L 585.00 208.00 L 588.00 209.00 L 589.00 211.00 L 591.00 216.00 L 597.00 225.00 L 610.00 238.00 L 619.00 244.00 L 627.00 248.00 L 632.00 250.00 L 635.00 251.00 L 639.00 252.00 L 643.00 253.00 L 648.00 254.00 L 673.00 254.00 L 679.00 253.00 L 684.00 252.00 L 688.00 251.00 L 700.00 247.00 L 706.00 244.00 L 720.00 236.00 L 723.00 238.00 L 721.00 243.00 L 721.00 247.00 L 722.00 249.00 L 724.00 250.00 L 727.00 251.00 L 737.00 251.00 L 799.00 251.00 L 804.00 251.00 L 809.00 250.00 L 811.00 249.00 L 814.00 247.00 L 854.00 206.00 L 864.00 196.00 L 868.00 196.00 L 870.00 198.00 L 872.00 201.00 L 876.00 208.00 L 898.00 246.00 L 902.00 250.00 L 905.00 250.00 L 906.00 251.00 L 908.00 251.00 L 953.00 251.00 L 957.00 250.00 L 957.00 247.00 L 956.00 245.00 L 955.00 243.00 L 946.00 228.00 L 906.00 163.00 L 904.00 160.00 L 904.00 156.00 L 976.00 85.00 L 978.00 83.00 L 978.00 76.00 L 928.00 76.00 L 926.00 77.00 L 923.00 79.00 L 888.00 115.00 L 884.00 119.00 L 881.00 120.00 L 878.00 117.00 L 875.00 112.00 L 858.00 82.00 L 853.00 77.00 L 851.00 76.00 L 758.00 76.00 L 756.00 77.00 L 755.00 78.00 L 754.00 80.00 L 753.00 83.00 L 753.00 87.00 L 752.00 89.00 L 749.00 90.00 L 746.00 88.00 L 727.00 78.00 L 722.00 76.00 L 713.00 73.00 L 709.00 72.00 L 705.00 71.00 L 698.00 70.00 Z M 692.00 112.00 L 703.00 112.00 L 710.00 113.00 L 719.00 116.00 L 721.00 117.00 L 723.00 118.00 L 726.00 120.00 L 734.00 128.00 L 736.00 131.00 L 737.00 133.00 L 738.00 135.00 L 739.00 138.00 L 740.00 142.00 L 741.00 148.00 L 741.00 154.00 L 740.00 161.00 L 739.00 166.00 L 738.00 169.00 L 737.00 172.00 L 735.00 177.00 L 734.00 179.00 L 731.00 184.00 L 729.00 187.00 L 724.00 193.00 L 721.00 196.00 L 715.00 201.00 L 712.00 203.00 L 709.00 205.00 L 701.00 209.00 L 692.00 212.00 L 687.00 213.00 L 668.00 213.00 L 663.00 212.00 L 660.00 211.00 L 654.00 208.00 L 651.00 206.00 L 641.00 196.00 L 638.00 191.00 L 636.00 186.00 L 635.00 182.00 L 634.00 176.00 L 634.00 169.00 L 635.00 163.00 L 636.00 159.00 L 637.00 156.00 L 638.00 153.00 L 640.00 148.00 L 641.00 146.00 L 644.00 141.00 L 646.00 138.00 L 652.00 131.00 L 654.00 129.00 L 660.00 124.00 L 663.00 122.00 L 668.00 119.00 L 670.00 118.00 L 672.00 117.00 L 681.00 114.00 L 685.00 113.00 Z M 804.00 90.00 L 804.00 91.00 L 808.00 96.00 L 814.00 106.00 L 841.00 150.00 L 844.00 155.00 L 844.00 159.00 L 828.00 175.00 L 775.00 224.00 L 775.00 222.00 L 776.00 217.00 L 777.00 211.00 L 780.00 196.00 L 791.00 145.00 L 791.00 140.00 L 800.00 95.00 Z M 53.00 13.00 L 51.00 14.00 L 50.00 15.00 L 49.00 17.00 L 48.00 19.00 L 47.00 22.00 L 46.00 28.00 L 44.00 38.00 L 40.00 64.00 L 28.00 125.00 L 14.00 191.00 L 4.00 242.00 L 4.00 248.00 L 5.00 250.00 L 7.00 250.00 L 8.00 251.00 L 13.00 251.00 L 46.00 251.00 L 49.00 251.00 L 52.00 250.00 L 55.00 247.00 L 56.00 243.00 L 57.00 238.00 L 58.00 233.00 L 61.00 217.00 L 72.00 157.00 L 73.00 153.00 L 74.00 151.00 L 78.00 147.00 L 155.00 147.00 L 158.00 150.00 L 158.00 157.00 L 157.00 162.00 L 153.00 177.00 L 150.00 192.00 L 150.00 197.00 L 146.00 217.00 L 142.00 232.00 L 141.00 237.00 L 140.00 242.00 L 141.00 250.00 L 144.00 251.00 L 148.00 251.00 L 181.00 251.00 L 185.00 251.00 L 188.00 250.00 L 191.00 247.00 L 192.00 243.00 L 194.00 233.00 L 199.00 208.00 L 207.00 167.00 L 220.00 102.00 L 236.00 21.00 L 236.00 15.00 L 234.00 13.00 L 189.00 13.00 L 187.00 14.00 L 185.00 16.00 L 184.00 18.00 L 183.00 23.00 L 182.00 28.00 L 179.00 44.00 L 176.00 64.00 L 169.00 99.00 L 168.00 101.00 L 167.00 102.00 L 165.00 103.00 L 84.00 102.00 L 84.00 97.00 L 85.00 91.00 L 88.00 76.00 L 92.00 55.00 L 98.00 25.00 L 100.00 20.00 L 100.00 16.00 L 99.00 14.00 L 97.00 13.00 Z M 277.00 5.00 L 273.00 6.00 L 270.00 7.00 L 264.00 10.00 L 260.00 13.00 L 256.00 17.00 L 253.00 21.00 L 252.00 23.00 L 251.00 25.00 L 250.00 28.00 L 249.00 31.00 L 249.00 46.00 L 250.00 49.00 L 251.00 51.00 L 253.00 54.00 L 257.00 58.00 L 260.00 60.00 L 263.00 61.00 L 266.00 62.00 L 271.00 63.00 L 277.00 63.00 L 282.00 62.00 L 285.00 61.00 L 288.00 60.00 L 290.00 59.00 L 293.00 57.00 L 296.00 55.00 L 304.00 47.00 L 306.00 44.00 L 309.00 38.00 L 310.00 35.00 L 310.00 22.00 L 309.00 19.00 L 308.00 17.00 L 307.00 15.00 L 301.00 9.00 L 295.00 6.00 L 291.00 5.00 Z   "/>
</svg></g></svg>