<svg xmlns="http://www.w3.org/2000/svg" width="40" height="40" viewBox="0 0 40 40"><circle cx="20" cy="20" r="20" fill="#fcdfe0"/><rect x="6" y="6" width="28" height="28" rx="7.9799999999999995" ry="7.9799999999999995" fill="#e82b2d"/><g transform="translate(11.32, 11.337702243371856)"><svg width="17.36" height="17.324595513256288" viewBox="0 0 1471 1468" xmlns="http://www.w3.org/2000/svg">
  <path xmlns="http://www.w3.org/2000/svg" d="M 716.0 0.0 L 627.0 8.0 L 575.0 17.0 L 522.0 31.0 L 440.0 62.0 L 374.0 95.0 L 313.0 133.0 L 257.0 176.0 L 202.0 228.0 L 155.0 283.0 L 109.0 350.0 L 68.0 426.0 L 45.0 480.0 L 26.0 539.0 L 10.0 612.0 L 1.0 690.0 L 0.0 762.0 L 9.0 848.0 L 25.0 923.0 L 62.0 1029.0 L 68.0 1030.0 L 70.0 1024.0 L 63.0 997.0 L 56.0 940.0 L 56.0 860.0 L 65.0 792.0 L 86.0 721.0 L 125.0 643.0 L 173.0 573.0 L 228.0 514.0 L 260.0 487.0 L 302.0 458.0 L 366.0 425.0 L 436.0 401.0 L 519.0 385.0 L 602.0 382.0 L 690.0 394.0 L 778.0 422.0 L 850.0 459.0 L 924.0 515.0 L 982.0 576.0 L 1027.0 641.0 L 1063.0 717.0 L 1085.0 792.0 L 1097.0 880.0 L 1095.0 956.0 L 1080.0 1035.0 L 1049.0 1121.0 L 1010.0 1192.0 L 958.0 1258.0 L 901.0 1310.0 L 820.0 1362.0 L 750.0 1393.0 L 660.0 1417.0 L 607.0 1423.0 L 548.0 1423.0 L 494.0 1416.0 L 486.0 1420.0 L 489.0 1427.0 L 530.0 1440.0 L 618.0 1460.0 L 684.0 1467.0 L 781.0 1467.0 L 845.0 1460.0 L 927.0 1443.0 L 985.0 1425.0 L 1044.0 1401.0 L 1107.0 1368.0 L 1162.0 1332.0 L 1217.0 1288.0 L 1281.0 1225.0 L 1318.0 1181.0 L 1360.0 1121.0 L 1395.0 1058.0 L 1425.0 987.0 L 1442.0 933.0 L 1458.0 860.0 L 1466.0 797.0 L 1470.0 720.0 L 1463.0 642.0 L 1453.0 581.0 L 1436.0 515.0 L 1408.0 440.0 L 1378.0 380.0 L 1336.0 313.0 L 1289.0 253.0 L 1242.0 204.0 L 1190.0 159.0 L 1125.0 113.0 L 1084.0 89.0 L 997.0 49.0 L 934.0 28.0 L 870.0 13.0 L 803.0 4.0 Z M 419.0 716.0 L 387.0 721.0 L 360.0 728.0 L 332.0 738.0 L 299.0 754.0 L 251.0 787.0 L 212.0 826.0 L 193.0 851.0 L 176.0 879.0 L 163.0 906.0 L 152.0 936.0 L 143.0 973.0 L 139.0 1003.0 L 138.0 1036.0 L 140.0 1064.0 L 152.0 1121.0 L 160.0 1144.0 L 168.0 1158.0 L 333.0 1311.0 L 361.0 1328.0 L 389.0 1336.0 L 429.0 1341.0 L 489.0 1340.0 L 546.0 1328.0 L 578.0 1316.0 L 608.0 1301.0 L 629.0 1288.0 L 660.0 1264.0 L 702.0 1219.0 L 718.0 1196.0 L 738.0 1159.0 L 756.0 1109.0 L 765.0 1058.0 L 766.0 1017.0 L 764.0 993.0 L 753.0 939.0 L 743.0 910.0 L 728.0 878.0 L 697.0 831.0 L 649.0 783.0 L 602.0 752.0 L 570.0 737.0 L 544.0 728.0 L 511.0 720.0 L 483.0 716.0 Z" fill="#ffffff" fill-rule="evenodd"/>
</svg></g></svg>