<svg xmlns="http://www.w3.org/2000/svg" width="40" height="40" viewBox="0 0 40 40"><circle cx="20" cy="20" r="20" fill="#d9e6f0"/><rect x="6" y="6" width="28" height="28" rx="7.9799999999999995" ry="7.9799999999999995" fill="#005a9b"/><g transform="translate(11.32, 15.465923525599482)"><svg width="17.36" height="9.068152948801037" viewBox="0 0 1543 806" xmlns="http://www.w3.org/2000/svg"><path xmlns="http://www.w3.org/2000/svg" fill="#ffffff" fill-rule="evenodd" d="M394 621.3c-92.6 44.9-176.8 69.2-240.6 69.2-42.1 0-73-11.3-88.1-31.9-26.3-36.5-11.2-103.8 43.2-185.2 12.2-17.9 26.2-36.7 41.3-56.4l15.8-18.6 18.7 16.8c37.5 34.7 79.6 67.4 123.7 98.2 31.9 21.7 63.6 41.4 95.5 60q2.8-15.8 6.6-29.9c-27.3-15-52.6-31.8-85.2-53.3-44.2-30.8-85.3-63.7-121.8-97.4L185.3 377l16.8-17.1c47.7-50.5 106.7-100 168.7-145.9 26-18.9 53.4-36.5 79.6-53.3l12-7.7 12.3 7.7c17.8 11.2 36.5 22.4 53.3 34.4 11.3 7.7 21.7 15.1 31.9 22.7q4.6-4.8 9.5-10.4h.7q5.6-4.6 9.5-9.5 1 0 1-.7-17.9-13.3-35.7-25.3-10.2-7.6-21.5-15l-32.9-21.5 34.7-17.8c106.9-56.1 204.2-87.2 276.4-87.2 42.1 0 71.2 10.4 87 31.8 7.4 10.5 11.3 24.5 12.3 40.3q15 3.9 29.1 9.5.7-26.3-7.7-47.7-1.8-2.8-2.8-5.6-2.8-7.7-7.4-13.3C890.4 16.3 852.1.5 799.6.5c-86 0-202.2 40.3-325.9 112.2l-11.3 6.7-12-6.7c-115.3-65.3-226.8-101-311.8-101-57.2 0-99.6 16.9-121 48.8-44.9 63.7-1 179.8 113.3 302.2l14.1 15-13.1 16.1c-17.8 21.4-33.6 42.9-47.7 63.5-62 93.6-76.8 170.4-42.1 218.1 20.4 30.1 57.9 45.2 109.5 45.2 53.3 0 119.9-16.1 194.7-47 12.3-5.6 17.9-8.4 20.7-8.4q13-5.6 27-12.2-.7-15.9 0-31.7M41.1 77.3c16.8-24.2 49.5-36.5 96.5-36.5 70.1 0 162.8 27 261.3 76.8l34.7 18.6-32.9 21.7q-23.5 15.8-46.7 32.6c-64.9 47-122.8 96.4-172.5 148l-16.9 17.8-16.8-17.8C46.7 229 5.4 128.8 41.1 77.3M1494 249.5l48.7-126.6h-190.9c-53.6 0-136.8 1.8-182.7 39.3-64.6 52.6-80.6 107.7-100.3 164.8l-147 474.7 161-1.8 82.5-273.4 178.1 1.7 30.9-108.4-176.1-2 32.7-99.2c17.8-54.4 30.8-63.5 89-67.4 19.7-1.7 42.1-1.7 70.2-1.7zM972.4 474.2c10.4-31.2 33.7-102.3 41.3-136.8 23.5-114.2-36.5-196.6-146.2-210.6-10.2-2.1-13-2.1-17.6-2.1h-27.3c-70.2 2.8-141.4 31.1-199.6 76-12 7.4-21.4 18.7-32.7 29.1-32.6 30.9-59.9 67.3-77.8 107.6-14.8 32.7-65.3 178.8-73 211.5q-5.6 20.7-10.2 41.3c-30.1 123.5 49.5 214.3 182.5 214.3 27.3 0 58.1 1 88 1 48.8 0 93.7-1 114.3-7.4l47-138.8c-35.7 7.7-76.8 9.5-116.1 9.5-30.1 0-59.2-1-83.5-2.8-72.2-5.6-65.6-85.2-46.9-137.8h1l46.9-135.7c5.7-19.6 13.1-43.1 15.9-50.5 18.6-45.9 79.6-85.2 124.5-85.2s79.6 39.3 66.6 85.2c-2.8 14.1-8.4 27.1-21.7 77.8H721.5l-30.1 108.4h263.4z"/></svg></g></svg>