<svg xmlns="http://www.w3.org/2000/svg" width="40" height="40" viewBox="0 0 40 40"><circle cx="20" cy="20" r="20" fill="#d9e6f8"/><rect x="6" y="6" width="28" height="28" rx="7.9799999999999995" ry="7.9799999999999995" fill="#0057d2"/><g transform="translate(11.32, 15.705583195135434)"><svg width="17.36" height="8.588833609729132" viewBox="0 0 1809 895" xmlns="http://www.w3.org/2000/svg">
<path xmlns="http://www.w3.org/2000/svg" d="M914.18 894.681H0V0H1808.99L914.18 894.681ZM246.018 158.711C170.238 158.711 107.087 183.411 67.917 223.841C40.6971 252.131 25.967 287.911 25.2969 327.73C24.2969 382.29 44.3875 421.011 86.4375 451.971C122.017 478.041 167.417 494.821 207.507 507.401C256.977 522.651 297.357 535.961 296.888 564.351C296.488 574.681 292.637 584.371 285.167 592.031C272.847 604.821 253.927 609.551 227.757 610.141C177.307 611.151 139.887 603.291 80.2871 568.071L25.2969 677.331C84.7169 711.151 155.058 730.931 226.848 730.931H236.138C298.607 729.721 349.057 711.901 389.377 679.501L395.897 673.801L378.087 721.671H539.787L566.947 639.091C595.357 648.701 627.718 654.101 661.968 654.101C695.397 654.101 726.927 649.061 754.837 639.871L780.947 721.671H1044.78V550.631H1102.35C1241.37 550.631 1323.7 479.881 1323.7 361.141C1323.7 230.013 1244.99 169.312 1077.5 168.372L1073.55 168.181H895.497V591.501L739.947 168.181H585.768L452.867 522.101C438.817 432.901 346.397 402.011 273.737 378.991C225.847 363.571 174.867 340.931 175.327 315.851C175.737 295.341 202.718 276.321 255.928 279.161C291.788 280.981 323.428 283.881 386.228 314.241L448.087 206.501C390.787 177.231 311.377 158.851 246.417 158.711H246.018ZM662.577 342.341L717.877 520.911C701.217 526.881 682.257 530.541 661.987 530.541H661.928C641.178 530.541 621.708 526.761 604.888 520.431L661.367 342.341H662.577ZM1083.95 284.661C1136.3 284.661 1177.97 301.911 1177.97 355.441C1177.97 410.721 1136.3 428.041 1083.95 428.041H1044.74V284.661H1083.95Z" fill="#ffffff"/>
</svg></g></svg>