<svg xmlns="http://www.w3.org/2000/svg" width="40" height="40" viewBox="0 0 40 40"><circle cx="20" cy="20" r="20" fill="#dde7ef"/><rect x="6" y="6" width="28" height="28" rx="7.9799999999999995" ry="7.9799999999999995" fill="#1a5e97"/><g transform="translate(11.32, 17.36325612177366)"><svg width="17.36" height="5.27348775645268" viewBox="0 0 1511 459" xmlns="http://www.w3.org/2000/svg"><path xmlns="http://www.w3.org/2000/svg" fill="#ffffff" d="M358.4 201.7c-55.6 0-100.6-45-100.6-100.6S302.8.5 358.4.5c55.7 0 100.7 45 100.7 100.6s-45 100.6-100.7 100.6m.7 249.3c-55.6 0-100.6-44.9-100.6-100.6 0-55.6 45-100.5 100.6-100.5 55.7 0 100.7 44.9 100.7 100.5 0 55.7-45 100.6-100.7 100.6m-257.9.7C45.5 451.7.5 406.8.5 351.1c0-55.6 45-100.5 100.7-100.5 55.6 0 100.6 44.9 100.6 100.5 0 55.7-45 100.6-100.6 100.6M954 259.6v192.8h-69.9V277.1c0-18.2-4.9-44-57.3-44-49.6 0-55.9 25.8-55.9 44v175.3H701V277.1c0-18.2-5.6-44-58.1-44-52.4 0-58.7 25.8-58.7 44v175.3h-69.9V214.2l9.1-.7c20.3-2.1 62.2-21.6 126.5-21.6 46.9 0 68.5 11.2 87.4 32.8 16.8-19.5 53.2-32.8 97.9-32.8 69.9 0 118.8 20.9 118.8 67.7m95.1 192.8h-69.9V101.8h69.9V275l93.7-68.4h100l-157.3 97.7c72 1.4 116.7 22.4 130.7 44 11.2 17.5 16.8 60.8 16.8 104.1h-69.9c0-34.2-4.2-67.7-13.3-80.3-18.2-25.1-55.2-30-100.7-32.1zm457.2-174h-67.1c0-21.6-7-49.6-60.1-49.6-46.9 0-52.5 15.4-52.5 36.4 0 20.9 14.7 28.6 72.1 34.2 51.7 4.9 111.8 2.1 111.8 72.6 0 73.4-79 86.7-127.9 86.7-68.5 0-134.2-17.5-134.2-88.8h69.9c0 48.2 34.9 51.7 62.2 51.7 39.8 0 62.2-13.9 62.2-37.7 0-34.9-28.7-32.8-79-37-65.7-7-107.7-10.5-107.7-74 0-69.9 65.8-81.1 123.1-81.1 90.9 0 127.2 31.5 127.2 86.6"/></svg></g></svg>