<svg xmlns="http://www.w3.org/2000/svg" width="40" height="40" viewBox="0 0 40 40"><circle cx="20" cy="20" r="20" fill="#f1d9f0"/><rect x="6" y="6" width="28" height="28" rx="7.9799999999999995" ry="7.9799999999999995" fill="#a00098"/><g transform="translate(11.325706771860618, 11.32)"><svg width="17.348586456278763" height="17.36" viewBox="0 0 1520 1521" xmlns="http://www.w3.org/2000/svg"><linearGradient xmlns="http://www.w3.org/2000/svg" id="a"><stop offset="0" stop-color="#ffffff"/><stop offset="1" stop-color="#ffffff"/></linearGradient><linearGradient xmlns="http://www.w3.org/2000/svg" xmlns:xlink="http://www.w3.org/1999/xlink" xlink:href="#a" id="b" x1="874.2" x2="1529.3" y1="1530.3" y2="874.8" gradientUnits="userSpaceOnUse"/><linearGradient xmlns="http://www.w3.org/2000/svg" xmlns:xlink="http://www.w3.org/1999/xlink" xlink:href="#a" id="c" x1="-9" x2="646.5" y1="646.5" y2="-8.7" gradientUnits="userSpaceOnUse"/><linearGradient xmlns="http://www.w3.org/2000/svg" xmlns:xlink="http://www.w3.org/1999/xlink" xlink:href="#a" id="d" x1="-8.7" x2="646.5" y1="874.8" y2="1530" gradientUnits="userSpaceOnUse"/><linearGradient xmlns="http://www.w3.org/2000/svg" xmlns:xlink="http://www.w3.org/1999/xlink" xlink:href="#a" id="e" x1="874.5" x2="1529.6" y1="-8.7" y2="646.8" gradientUnits="userSpaceOnUse"/><linearGradient xmlns="http://www.w3.org/2000/svg" xmlns:xlink="http://www.w3.org/1999/xlink" xlink:href="#a" id="f" x1="461.3" x2="1059.3" y1="1060" y2="461.6" gradientUnits="userSpaceOnUse"/><path xmlns="http://www.w3.org/2000/svg" fill="#ffffff" d="M1472.5 817.7c14.8 15.1 26.8 32.9 35 52.4 7.8 19.6 12.2 40.6 12.2 61.6 0 21.2-4.4 42.2-12.2 61.8-8.2 19.5-20.2 37.3-35 52.2L1045 1473.4c-14.8 14.9-32.6 26.9-52.2 35-19.5 7.9-40.5 12.3-61.5 12.3-21.3 0-42.3-4.4-61.8-12.3-19.5-8.1-37.3-20.1-52.2-35z"/><path xmlns="http://www.w3.org/2000/svg" fill="#ffffff" d="M475.3 48.2c15.2-14.9 32.9-26.9 52.5-35C547.3 5 568.3.9 589.3.9c21.3 0 42.3 4.1 61.8 12.3 19.6 8.1 37.3 20.1 52.2 35L48.2 703.6c-14.9-14.8-26.9-32.6-35-52.2C5 631.9.9 610.9.9 589.6c0-21 4.1-42 12.3-61.5 8.1-19.5 20.1-37.3 35-52.5z"/><path xmlns="http://www.w3.org/2000/svg" fill="#ffffff" d="M703.3 1473.1c-14.9 14.9-32.6 26.9-52.2 35-19.5 7.9-40.5 12.3-61.5 12.3-21.3 0-42.3-4.4-61.8-12.3-19.6-8.1-37.3-20.1-52.2-35L48.2 1045.7c-14.9-15.2-26.9-33-35-52.5C5.3 973.7.9 952.7.9 931.7c0-21.3 4.4-42.3 12.3-61.9 8.1-19.5 20.1-37.3 35-52.1z"/><path xmlns="http://www.w3.org/2000/svg" fill="#ffffff" d="M1472.5 475.9c15.1 14.9 26.8 32.7 35 52.2 8.1 19.5 12.2 40.5 12.2 61.8 0 21-4.1 42-12.2 61.5-8.2 19.6-19.9 37.4-35 52.5L817.3 48.2c15.2-14.9 32.7-26.9 52.5-35C889.3 5.3 910 .9 931.3.9s42.3 4.4 61.8 12.3c19.6 8.1 37.4 20.1 52.2 35z"/><path xmlns="http://www.w3.org/2000/svg" fill="#ffffff" d="m1002.5 404.5 114 114-598.3 598.6-114-114z"/></svg></g></svg>