<svg xmlns="http://www.w3.org/2000/svg" width="40" height="40" viewBox="0 0 40 40"><circle cx="20" cy="20" r="20" fill="#f8dce2"/><rect x="6" y="6" width="28" height="28" rx="7.9799999999999995" ry="7.9799999999999995" fill="#cd163f"/><g transform="translate(11.32, 11.331199999999999)"><svg width="17.36" height="17.337600000000002" viewBox="0 0 1550 1548" xmlns="http://www.w3.org/2000/svg"><path xmlns="http://www.w3.org/2000/svg" fill="#ffffff" fill-rule="evenodd" d="M1549.8 533.2v481.6c0 51.1-20.7 100.4-57 136.3l-323 321.7c-14.7 14.2-35.8 18.6-54.9 10.3L111.5 1063.3c-12.9-5.6-21.6-18.2-21.6-32.9V808.2c0-11.7 5.6-23 15.2-29.4L211.8 707v349.8h177.7V846.6h50.6c25.5 0 51.4 4.4 58.4 30.3l51.8 150.9c3.1 17.3 16.9 29.4 33.8 29.4h312.5l40.7-108.9h209.2l22.5 63.1c12.1 27.2 39.3 45.8 67.8 45.8h142.7l-230.4-576.4H975.7c-18.6 0-35 11.3-42.3 28.6l-197.2 493.3-45.8-138.8c-2.2-9.9-6.5-19.4-13.4-27.6-18.2-23.4-43.2-40.7-80.8-48V787C677 777 725 722.1 725 633.5c0-101.6-66.6-145.8-176.4-152.7l579.7-390c19.9-13.8 46.7-11.2 63.2 5.2l301.3 301.4c36.3 35.9 57 84.7 57 135.8M441 479.1H211.8V649L85.6 742.4c-18.2 13.4-29.4 35.1-29.4 58V1020c0 40.3 23.8 77 60.1 94.3l874.1 411.6c11.7 5.7 7.8 22.1-4.7 22.1H545.6c-58.4 0-115.4-23.3-157-64.9L64.8 1159.7c-41.5-41.5-64.8-98.2-64.8-157V545.3c0-58.8 23.3-115.5 64.8-157L389.1 64.9C430.2 23.3 487.2 0 545.6 0h508.8c10.8 0 15.6 14.3 6.5 20.8L441 479.5zM1101.1 819H983.9l59.7-162.6zm-636.8-92.6h-72.6V603.6h75.6c37.2 0 73.1 7.4 73.1 59.3 0 57.9-37.6 63.1-76.1 63.5"/></svg></g></svg>