<svg xmlns="http://www.w3.org/2000/svg" width="40" height="40" viewBox="0 0 40 40"><circle cx="20" cy="20" r="20" fill="#e1f8f3"/><rect x="6" y="6" width="28" height="28" rx="7.9799999999999995" ry="7.9799999999999995" fill="#36d0ac"/><g transform="translate(11.32, 13.479122807017543)"><svg width="17.36" height="13.041754385964913" viewBox="0 0 1596 1199" xmlns="http://www.w3.org/2000/svg"><linearGradient xmlns="http://www.w3.org/2000/svg" id="a" x2="1" gradientTransform="matrix(1331.631 711.079 -655.703 1227.929 351.375 440.75)" gradientUnits="userSpaceOnUse"><stop offset="0" stop-color="#ffffff"/><stop offset="1" stop-color="#ffffff"/></linearGradient><path xmlns="http://www.w3.org/2000/svg" fill="#ffffff" d="M842.5 601c-12-3-23.5-7.2-34.6-12.5-11-5.4-21.5-11.8-31.3-19.3-9.7-7.4-18.7-15.9-26.7-25.2s-15.1-19.3-21-30.1c-.8-1.5-1.2-3.3-1.2-5.1.1-1.7.6-3.5 1.5-5s2.2-2.8 3.7-3.7c1.6-.9 3.3-1.3 5.1-1.4h49.6c-18.2-13.8-34.8-29.8-49.4-47.5-14.5-17.6-27-37-37.1-57.5-10.2-20.5-17.9-42.2-23-64.5-5.2-22.3-7.7-45.2-7.6-68.1.8-24.1 4.5-48 11.2-71.1 6.7-23.2 16.2-45.4 28.4-66.2s27-39.9 43.9-57.1c17-17.1 36-32.1 56.7-44.5Q831.8 9.9 854.3 0c-49.5 3.1-98 14.5-143.6 33.9-45.5 19.4-87.4 46.4-123.9 79.9-36.5 33.4-67 72.9-90.2 116.6-23.1 43.7-38.7 91-46 139.9h-30c-46.9 0-93.5 7.9-137.9 23.2-44.3 15.4-85.8 38.1-122.6 67.1-36.9 29.1-68.6 64.1-93.8 103.6-25.3 39.5-43.8 82.9-54.7 128.5s-14.2 92.7-9.5 139.4c4.6 46.6 17 92.2 36.6 134.7 19.7 42.6 46.3 81.6 78.8 115.4 32.6 33.8 70.5 61.9 112.3 83.2 2.3-35.2 11.2-69.6 26.5-101.4 15.2-31.8 36.4-60.4 62.4-84.3 26-23.8 56.4-42.4 89.4-54.8s68.1-18.4 103.4-17.5l166.4 3.9c20.3-.1 40.4-3.9 59.4-11.2 18.9-7.3 36.4-18.1 51.4-31.7 15.1-13.6 27.5-29.9 36.7-48s15-37.8 17-58c5.3-55.2 10.9-111.8 14.4-140.5.2-2.3 0-4.6-.6-6.8s-1.6-4.3-2.9-6.2-2.9-3.6-4.7-4.9c-1.9-1.4-4-2.4-6.1-3m473.7-201.5c-2.9-35.6-10.2-70.6-21.6-104.4-11.5-33.8-27.1-66-46.4-96s-42.3-57.5-68.3-81.9c-26.1-24.4-55-45.5-86.2-62.8-19.9-9.5-41-16.4-62.7-20.6s-43.8-5.6-65.8-4.3c-22.1 1.4-43.8 5.5-64.8 12.4-21 6.8-41.1 16.3-59.7 28.2-16.6 9.9-32 21.8-45.7 35.4-13.7 13.7-25.6 29-35.6 45.6-9.9 16.7-17.7 34.4-23.2 53-5.6 18.5-8.8 37.7-9.5 57q-.1 14.9 1.6 29.6 1.8 14.8 5.4 29.2 3.5 14.4 8.9 28.3 5.3 13.8 12.4 26.9-.1-.9-.2-1.9v-3.9l.2-2c0-24.7 4.8-49.2 14.3-72.1 9.5-22.8 23.4-43.6 40.9-61.1s38.3-31.4 61.2-40.9c22.8-9.4 47.3-14.3 72.1-14.3h22.6l-22.6 56.5c-17.3-.3-34.5 2.8-50.7 9.1-16.1 6.3-30.9 15.7-43.4 27.7s-22.5 26.3-29.4 42.2c-7 15.9-10.7 33-11 50.3-.4 17.3 2.7 34.5 9 50.6s15.8 30.9 27.8 43.4c12 12.4 26.3 22.4 42.2 29.4 15.9 6.9 32.9 10.7 50.3 11.1h167.1c5 .2 9.8 1.8 13.8 4.7 4.1 2.8 7.2 6.8 9.1 11.4 1.8 4.6 2.3 9.6 1.3 14.5-.9 4.8-3.3 9.3-6.7 12.9l-60.6 53.5c-5.9 5.3-11.2 11.4-15.5 18.1-4.4 6.7-7.9 14-10.4 21.6-2.4 7.6-3.9 15.5-4.3 23.5s.2 16 1.9 23.9c12.7 57.4 31.4 147.9 38.4 189.6 4.7 24.7 7 49.8 7 74.9-.1 25.1-2.6 50.1-7.5 74.7-4.9 24.7-12.1 48.8-21.6 72-9.5 23.3-21.2 45.5-35 66.6 50.7 23 105.5 35.6 161.1 36.8 55.7 1.3 111-8.8 162.6-29.6 51.6-20.9 98.4-51.9 137.6-91.4s70-86.5 90.4-138.3c20.4-51.7 30.1-107 28.4-162.6-1.6-55.6-14.6-110.3-38.1-160.7-23.4-50.4-56.9-95.5-98.3-132.6-41.5-37.1-90.1-65.4-142.8-83.2"/></svg></g></svg>