<svg xmlns="http://www.w3.org/2000/svg" width="256" height="256" viewBox="0 0 256 256">
<g>
<path d="M 162.69 209.41 C161.59,210.92 159.44,211.26 148.94,211.60 C131.53,212.17 124.06,209.99 118.70,202.77 C114.11,196.59 114.00,195.21 114.00,146.38 L 114.00 100.07 L 91.50 99.50 L 91.21 90.58 C91.00,84.13 91.27,81.44 92.21,80.85 C92.92,80.40 98.10,80.02 103.73,80.02 L 113.95 80.00 L 114.50 47.50 L 136.50 47.50 L 136.77 63.75 L 137.05 80.00 L 148.59 80.00 C154.94,80.00 161.00,80.47 162.07,81.04 C163.71,81.92 164.00,83.18 164.00,89.45 C164.00,90.03 164.00,90.57 164.00,91.08 C164.02,95.12 164.03,97.34 162.93,98.55 C161.60,100.02 158.63,100.02 152.07,100.00 C151.39,100.00 150.66,100.00 149.89,100.00 L 137.00 100.00 L 137.00 185.65 L 139.31 187.83 C141.37,189.76 142.74,190.00 151.61,190.00 C158.05,190.00 162.03,190.43 162.80,191.20 C164.47,192.87 164.38,207.09 162.69,209.41 Z" fill="rgb(1,2,3)"/>
<path d="M 154.00 250.12 C146.27,251.89 121.09,253.54 117.00,252.54 C116.18,252.34 112.12,251.63 108.00,250.97 C85.86,247.38 60.09,234.25 42.98,217.84 C3.68,180.14 -7.01,123.02 15.95,73.51 C31.74,39.48 61.00,15.40 98.91,5.23 C107.59,2.91 110.36,2.65 128.00,2.58 C146.38,2.50 148.13,2.67 158.50,5.37 C189.06,13.32 213.09,30.29 230.95,56.50 C245.17,77.37 252.26,100.50 252.39,126.50 C252.50,147.30 249.20,162.40 240.56,180.63 C234.18,194.10 227.95,203.06 217.30,214.08 C198.93,233.06 179.01,244.41 154.00,250.12 ZM 162.69 209.41 C164.38,207.09 164.47,192.87 162.80,191.20 C162.03,190.43 158.05,190.00 151.61,190.00 C142.74,190.00 141.37,189.76 139.31,187.83 L 137.00 185.65 L 137.00 100.00 L 149.89 100.00 C150.66,100.00 151.39,100.00 152.07,100.00 C158.63,100.02 161.60,100.02 162.93,98.55 C164.03,97.34 164.02,95.12 164.00,91.08 C164.00,90.57 164.00,90.03 164.00,89.45 C164.00,83.18 163.71,81.92 162.07,81.04 C161.00,80.47 154.94,80.00 148.59,80.00 L 137.05 80.00 L 136.77 63.75 L 136.50 47.50 L 114.50 47.50 L 113.95 80.00 L 103.73 80.02 C98.10,80.02 92.92,80.40 92.21,80.85 C91.27,81.44 91.00,84.13 91.21,90.58 L 91.50 99.50 L 114.00 100.07 L 114.00 146.38 C114.00,195.21 114.11,196.59 118.70,202.77 C124.06,209.99 131.53,212.17 148.94,211.60 C159.44,211.26 161.59,210.92 162.69,209.41 Z" fill="rgb(7,136,149)"/>
<path d="M 0.00 128.00 L 0.00 0.00 L 128.00 0.00 L 256.00 0.00 L 256.00 128.00 L 256.00 256.00 L 128.00 256.00 L 0.00 256.00 L 0.00 128.00 ZM 154.00 250.12 C179.01,244.41 198.93,233.06 217.30,214.08 C227.95,203.06 234.18,194.10 240.56,180.63 C249.20,162.40 252.50,147.30 252.39,126.50 C252.26,100.50 245.17,77.37 230.95,56.50 C213.09,30.29 189.06,13.32 158.50,5.37 C148.13,2.67 146.38,2.50 128.00,2.58 C110.36,2.65 107.59,2.91 98.91,5.23 C61.00,15.40 31.74,39.48 15.95,73.51 C-7.01,123.02 3.68,180.14 42.98,217.84 C60.09,234.25 85.86,247.38 108.00,250.97 C112.12,251.63 116.18,252.34 117.00,252.54 C121.09,253.54 146.27,251.89 154.00,250.12 Z" fill="rgb(251,253,253)"/>
</g>
</svg>
