<svg xmlns="http://www.w3.org/2000/svg" width="40" height="40" viewBox="0 0 40 40"><circle cx="20" cy="20" r="20" fill="#fdeade"/><rect x="6" y="6" width="28" height="28" rx="7.9799999999999995" ry="7.9799999999999995" fill="#f37021"/><g transform="translate(11.32, 13.055062128579147)"><svg width="17.36" height="13.889875742841706" viewBox="0 0 1851 1481" xmlns="http://www.w3.org/2000/svg">
	<title xmlns="http://www.w3.org/2000/svg">nvent-seeklogo</title>
	<defs xmlns="http://www.w3.org/2000/svg">
		<clipPath clipPathUnits="userSpaceOnUse" id="cp1">
			<path d="M-1140.2 -851.59L3319.64 -851.59L3319.64 3606.99L-1140.2 3606.99L-1140.2 -851.59Z"/>
		</clipPath>
	</defs>
	
	<g xmlns="http://www.w3.org/2000/svg" id="Clip-Path: Page 1" clip-path="url(#cp1)">
		<g id="Page 1">
			<path id="Path 2" class="shp0" d="M1.56 1111.43C-6.47 1071.44 19.4 1032.47 59.41 1024.4L494.33 936.66C534.38 928.59 573.36 954.49 581.43 994.53C589.5 1034.57 563.59 1073.54 523.54 1081.61L88.71 1169.31C48.66 1177.33 9.68 1151.43 1.56 1111.43Z" fill="#ffffff"/>
			<path id="Path 3" class="shp1" d="M632.9 732.01C610.29 766.03 564.39 775.3 530.37 752.74L530.37 752.7L161.09 507.3C126.88 485.09 117.16 439.3 139.42 405.11C161.67 370.91 207.43 361.19 241.68 383.44C242.08 383.7 242.53 383.97 242.93 384.28L612.16 629.68C646.14 652.2 655.42 698.03 632.85 732.01C632.85 732.01 632.85 732.05 632.81 732.05" fill="#ffffff"/>
			<path id="Path 4" class="shp2" d="M912.8 495.75C920.29 535.92 893.75 574.49 853.61 581.98C814.32 589.29 776.33 564.05 767.85 525.04L680.13 90.38C671.43 50.47 696.72 11.06 736.63 2.36C776.55 -6.33 815.93 18.95 824.63 58.85C824.8 59.61 824.94 60.37 825.12 61.08L912.8 495.75Z" fill="#ffffff"/>
			<path id="Path 5" class="shp0" d="M1096.77 531.86L1342.24 162.74C1364.85 128.76 1410.74 119.53 1444.72 142.14C1478.71 164.74 1487.94 210.62 1465.33 244.6L1219.9 613.72C1198.09 648.23 1152.47 658.49 1117.95 636.68C1083.48 614.88 1073.17 569.23 1094.98 534.76C1095.61 533.83 1096.19 532.89 1096.85 532" fill="#ffffff"/>
			<path id="Path 6" class="shp1" d="M1788.62 826.49L1353.83 914.19C1313.78 922.26 1274.76 896.35 1266.64 856.31C1258.57 816.28 1284.48 777.26 1324.53 769.19L1759.41 681.54C1799.28 672.71 1838.75 697.86 1847.63 737.72C1856.46 777.58 1831.3 817.08 1791.43 825.91C1790.49 826.13 1789.56 826.31 1788.62 826.49Z" fill="#ffffff"/>
			<path id="Path 7" class="shp2" d="M1707.9 1446.14C1685.38 1480.16 1639.53 1489.43 1605.54 1466.87C1605.5 1466.87 1605.46 1466.83 1605.41 1466.83L1235.87 1221.47C1202.11 1198.51 1193.37 1152.59 1216.29 1118.83C1238.9 1085.57 1283.95 1076.52 1317.71 1098.41L1686.94 1343.81C1720.97 1366.24 1730.38 1412.03 1707.94 1446.09C1707.94 1446.09 1707.94 1446.14 1707.9 1446.14Z" fill="#ffffff"/>
		</g>
	</g>
</svg></g></svg>