<svg xmlns="http://www.w3.org/2000/svg" width="40" height="40" viewBox="0 0 40 40"><circle cx="20" cy="20" r="20" fill="#fdefdd"/><rect x="6" y="6" width="28" height="28" rx="7.9799999999999995" ry="7.9799999999999995" fill="#F0941D"/><g transform="translate(11.657555555555556, 11.32)"><svg width="16.68488888888889" height="17.36" viewBox="0 0 865 900" xmlns="http://www.w3.org/2000/svg">
<title xmlns="http://www.w3.org/2000/svg">Quanta Services logo vector trace</title>
<desc xmlns="http://www.w3.org/2000/svg">Vectorized from the provided PNG, preserving the transparent background and original antialiased alpha levels as SVG paths.</desc>
<path xmlns="http://www.w3.org/2000/svg" d="M113 871ZM116 869ZM108 868L109 869ZM101 860L102 861ZM93 851L94 852ZM113 848ZM221 846ZM112 846ZM87 845ZM111 844ZM66 844ZM806 843ZM110 842ZM241 841ZM60 841ZM352 840ZM528 839ZM330 839ZM202 839ZM828 837ZM527 836ZM247 836L246 837ZM54 836L56 838ZM197 834ZM404 832ZM51 832ZM252 829ZM777 828ZM221 825ZM109 825ZM218 824ZM83 824ZM72 823ZM522 822ZM191 822ZM231 821ZM70 821ZM214 820ZM87 820ZM521 819ZM213 818ZM88 818ZM233 817ZM824 814ZM256 814ZM45 814ZM400 809ZM759 803ZM515 802ZM760 797ZM337 796ZM820 791ZM338 790ZM396 786ZM509 785ZM508 782ZM373 780ZM816 768ZM503 768ZM794 766ZM524 766ZM502 765ZM523 763ZM392 763ZM767 754ZM768 748ZM345 747ZM791 746ZM812 745ZM346 741ZM515 740ZM388 740ZM514 737ZM88 727ZM87 725ZM110 723ZM808 722ZM73 721ZM48 718ZM384 717ZM49 716ZM506 714ZM505 711ZM104 711ZM54 709L53 710ZM504 708ZM57 706L56 707ZM98 705ZM95 703ZM93 702ZM381 701ZM189 701ZM726 671L725 672ZM710 662L712 664ZM699 650L701 652ZM720 649ZM719 647ZM718 645ZM688 638L689 639ZM676 625L678 627ZM708 624ZM707 622ZM706 620ZM665 613L667 615ZM654 601L655 602ZM696 599ZM695 597ZM694 595ZM642 588L644 590ZM685 576ZM631 576L633 578ZM684 574ZM683 572ZM473 567ZM620 564L621 565ZM359 564ZM351 563ZM331 560ZM539 559ZM305 555ZM292 552ZM673 551ZM608 551L610 553ZM288 551ZM284 550ZM672 549ZM582 548ZM671 547ZM273 547ZM266 545ZM573 540L574 541ZM250 540ZM597 539L599 541ZM247 539ZM233 534ZM564 532L565 533ZM661 526ZM585 526L587 528ZM213 526ZM660 524ZM554 523L555 524ZM659 522ZM204 522ZM675 515ZM673 515ZM545 515L546 516ZM677 514ZM574 514L576 516ZM679 513ZM176 508ZM670 507ZM536 507L537 508ZM174 507ZM692 506ZM167 503ZM699 502ZM563 502L565 504ZM649 501ZM162 500ZM704 499ZM667 499ZM648 499ZM526 498L527 499ZM647 497ZM389 497ZM157 497ZM482 496ZM154 495ZM712 494ZM494 494ZM715 492ZM504 492ZM355 491ZM718 490ZM517 490L518 491ZM551 489L553 491ZM721 488ZM343 488ZM142 487ZM336 486ZM139 485ZM728 483ZM135 482ZM732 480ZM660 480ZM318 480ZM638 478ZM736 477ZM540 477L542 479ZM310 477ZM637 476ZM127 476ZM636 474ZM741 473ZM657 472ZM122 472ZM294 470ZM292 469ZM747 468L746 469ZM116 467ZM529 465L531 467ZM284 465ZM654 464ZM282 464ZM755 461L754 462ZM273 459ZM105 457L108 460ZM651 456ZM268 456ZM265 454ZM626 453ZM517 452L519 454ZM625 451ZM624 449ZM256 448ZM253 446ZM93 445L95 447ZM249 443ZM774 442L772 444ZM506 440L508 442ZM244 439ZM644 437ZM415 437ZM410 437ZM85 436L86 437ZM780 435ZM418 435ZM238 434L239 435ZM405 432ZM81 431ZM784 430ZM641 429ZM425 429L424 430ZM614 428ZM495 428L497 430ZM613 426ZM400 425ZM612 424ZM431 424ZM75 423ZM790 422ZM397 421ZM437 419ZM72 419ZM643 417L641 419ZM70 416ZM483 415L485 417ZM392 414ZM444 413ZM68 413ZM216 412L217 413ZM649 410ZM389 410ZM450 408ZM65 408ZM800 407ZM212 407ZM653 405ZM602 403ZM472 403L474 405ZM384 403ZM209 403ZM62 403ZM457 402L456 403ZM656 401ZM601 401ZM804 400ZM381 399ZM206 399ZM805 398ZM463 397ZM204 396ZM378 395ZM202 393ZM662 392ZM809 390ZM810 388ZM373 388ZM199 388ZM665 387ZM53 385ZM370 384ZM813 381ZM591 380ZM194 379ZM590 378ZM365 377ZM589 376ZM49 375ZM816 373ZM362 373ZM674 369ZM359 369ZM818 367ZM46 366ZM676 364ZM354 362ZM351 358ZM679 355ZM579 355ZM578 353ZM577 351ZM346 351ZM42 350ZM343 347ZM338 340ZM683 338ZM335 336ZM180 334ZM332 332ZM567 330ZM566 328ZM565 326ZM327 325ZM324 321ZM319 314ZM316 310ZM39 310ZM556 307ZM313 306ZM555 305ZM825 304ZM554 303ZM684 301ZM308 299ZM305 295ZM683 293ZM300 288ZM297 284ZM544 282ZM480 282ZM489 281ZM543 280ZM542 278ZM477 278ZM292 277ZM44 277ZM496 275L495 276ZM289 273ZM678 272ZM472 271ZM188 271ZM502 270ZM677 269ZM286 269ZM818 268ZM469 267ZM508 265ZM281 262ZM674 261ZM464 260ZM815 259ZM515 259L514 260ZM278 258ZM50 258ZM532 257ZM461 256ZM531 255ZM196 255ZM813 254ZM521 254ZM52 253ZM529 252L530 253ZM458 252ZM273 251ZM199 250ZM810 247ZM667 247ZM270 247ZM201 247ZM55 246ZM453 245ZM56 244ZM267 243ZM664 242ZM450 241ZM662 239ZM448 239ZM207 239ZM59 238ZM660 236ZM262 236ZM60 236ZM804 235ZM803 233ZM212 233L211 234ZM657 232ZM440 231L444 235V236V235L445 234L444 235ZM265 231ZM800 228ZM441 228ZM432 228ZM271 227ZM651 225L652 226ZM439 225ZM432 224ZM425 224ZM276 224ZM67 224ZM797 223ZM423 223ZM421 222ZM436 221ZM419 221ZM224 221L223 222ZM795 220ZM427 220ZM793 217ZM433 217ZM423 217ZM293 216ZM230 216ZM73 215ZM419 214ZM234 213ZM638 212L639 213ZM429 212ZM416 212ZM392 211ZM788 210ZM413 210ZM312 210ZM379 208ZM632 207ZM408 207ZM243 207ZM785 206ZM424 206L425 207ZM628 204ZM248 204ZM83 202ZM397 201ZM780 200ZM621 199ZM264 196ZM613 194ZM269 194ZM91 193L89 195ZM772 191L774 193ZM606 190ZM350 186ZM299 186ZM592 183ZM400 182ZM102 182L100 184ZM394 177ZM575 176ZM756 175L758 177ZM604 175ZM110 175L109 176ZM602 174ZM389 173ZM564 172ZM561 171ZM115 171ZM593 170ZM385 170ZM748 168L749 169ZM590 168ZM382 168ZM119 168ZM586 167ZM548 167ZM583 165ZM581 165ZM541 165ZM743 164ZM578 163ZM126 163ZM573 162ZM129 161ZM738 160ZM370 160ZM517 159ZM734 157ZM591 157ZM365 157ZM137 156ZM588 155ZM586 155ZM730 154ZM549 154ZM581 153ZM486 153ZM546 152ZM356 152ZM354 151ZM146 151ZM539 150ZM352 150ZM148 150ZM723 149ZM570 149ZM531 149ZM457 149ZM350 149ZM150 149ZM567 148ZM527 148ZM152 148ZM720 147ZM564 147ZM523 147ZM154 147ZM561 146ZM717 145ZM411 145ZM339 144ZM714 143ZM553 143ZM505 143ZM163 143ZM548 142ZM500 142ZM334 142ZM711 141ZM546 141ZM168 141ZM495 140ZM489 140ZM483 139ZM326 139ZM706 138ZM535 138ZM323 138ZM176 138ZM531 137ZM320 137ZM179 137ZM527 136ZM462 136ZM317 136ZM517 134ZM310 134ZM189 134ZM514 133ZM444 133L443 134ZM696 132ZM206 130ZM494 129ZM689 128ZM687 127ZM272 127ZM227 127ZM508 124ZM406 118ZM445 114ZM436 113ZM655 111ZM414 111ZM646 107ZM483 105ZM639 104ZM470 103ZM634 102ZM463 102ZM629 100ZM448 100ZM624 98ZM431 98ZM410 96ZM616 95ZM416 94ZM494 93ZM605 91ZM602 90ZM470 89ZM587 85ZM430 85ZM584 84ZM435 83ZM571 80ZM529 77ZM516 75ZM421 75ZM550 74ZM515 73ZM498 71ZM502 70ZM483 66ZM473 66ZM396 66ZM510 64ZM456 63ZM501 62ZM450 62ZM456 61ZM444 59ZM431 57ZM424 56ZM408 54Z" fill="#ffffff" fill-opacity="0.062745" fill-rule="evenodd"/>
<path xmlns="http://www.w3.org/2000/svg" d="M110 870ZM119 867ZM116 854ZM115 852ZM114 850ZM80 846ZM211 844ZM829 843ZM237 843ZM64 843ZM239 842ZM62 842ZM205 841ZM753 840ZM405 838ZM754 834ZM526 833ZM331 833ZM250 832ZM381 831ZM195 831ZM106 831ZM804 830ZM354 827ZM332 827ZM225 825ZM192 825ZM76 825ZM254 824ZM47 824ZM825 820ZM379 818ZM190 817ZM68 817ZM520 816ZM779 815ZM401 815ZM212 814ZM519 813ZM189 801ZM514 799ZM821 797ZM513 796ZM397 792ZM761 791ZM762 785ZM339 784ZM796 779ZM507 779ZM340 778ZM817 774ZM526 772ZM525 769ZM393 769ZM501 762ZM370 760ZM793 759ZM500 759ZM813 751ZM517 746ZM389 746ZM516 743ZM769 742ZM367 740ZM770 736ZM347 735ZM45 731ZM348 729ZM809 728ZM385 723ZM47 721ZM508 720ZM109 720ZM81 720ZM507 717ZM805 705ZM60 704ZM804 701ZM776 701ZM530 701ZM353 701ZM211 701ZM66 701ZM69 700ZM82 699ZM74 699ZM728 666ZM727 664ZM717 643ZM716 641ZM690 640ZM715 639ZM705 618ZM704 616ZM703 614ZM656 603ZM693 593ZM692 591ZM691 589ZM682 570ZM681 568ZM452 568ZM680 566ZM622 566ZM486 566ZM368 565ZM344 562ZM527 561ZM533 560ZM320 558ZM315 557ZM310 556ZM559 555ZM568 553ZM572 552ZM580 550ZM670 545ZM263 544ZM669 543ZM668 541ZM236 535ZM228 532ZM223 530ZM588 529ZM218 528ZM556 525ZM211 525ZM202 521ZM658 520ZM200 520ZM657 518ZM656 516ZM672 512ZM178 509ZM688 508ZM690 507ZM669 504ZM169 504ZM697 503ZM702 500ZM528 500ZM410 499ZM466 498ZM707 497ZM475 497ZM666 496ZM646 495ZM375 495ZM645 493ZM364 493ZM151 493ZM554 492ZM644 491ZM148 491ZM513 490ZM145 489ZM663 488ZM725 485ZM315 479ZM131 479ZM305 475ZM635 472ZM298 472ZM296 471ZM634 470ZM656 469ZM633 468ZM280 463ZM653 461ZM756 460ZM650 453ZM96 448ZM623 447ZM647 445ZM622 445ZM621 443ZM245 440ZM419 434ZM403 429ZM78 427ZM787 426ZM640 426ZM227 424ZM611 422ZM610 420ZM609 418ZM438 418ZM395 418ZM798 410ZM801 405ZM61 401ZM600 399ZM599 397ZM806 396ZM598 395ZM807 394ZM808 392ZM376 392ZM200 390ZM664 389ZM54 387ZM812 383ZM196 383ZM668 382ZM368 381ZM195 381ZM669 380ZM51 380ZM670 378ZM193 377ZM671 376ZM192 375ZM672 374ZM588 374ZM587 372ZM48 372ZM817 370ZM586 370ZM47 369ZM189 368ZM357 366ZM820 360ZM186 360ZM185 357ZM821 356ZM349 355ZM576 349ZM681 348ZM575 347ZM574 345ZM330 329ZM564 324ZM563 322ZM562 320ZM322 318ZM179 310ZM311 303ZM553 301ZM180 300ZM552 299ZM551 297ZM824 295ZM181 294ZM303 292ZM483 286ZM42 286ZM184 282ZM821 279ZM185 279ZM541 276ZM186 276ZM820 275ZM679 275ZM540 274ZM474 274ZM539 272ZM501 271ZM46 270ZM676 266ZM284 266ZM817 265ZM191 264ZM466 263ZM816 262ZM192 262ZM49 261ZM193 260ZM520 255ZM276 255ZM197 253ZM809 245ZM666 245ZM203 244ZM808 243ZM57 242ZM807 241ZM265 240ZM206 240ZM58 240ZM806 239ZM805 237ZM443 231ZM268 229ZM64 229ZM278 223ZM280 222ZM282 221ZM69 221ZM284 220ZM286 219ZM412 218ZM71 218ZM407 216ZM296 215ZM305 212ZM76 211ZM388 210ZM79 207ZM364 206ZM784 205ZM246 205ZM403 204ZM401 203ZM399 202ZM624 201ZM395 200ZM393 199ZM618 197ZM386 196ZM378 193ZM375 192ZM608 191ZM372 191ZM281 190ZM343 185ZM306 185ZM401 183ZM590 182ZM616 181ZM614 180ZM612 179ZM583 179ZM759 178ZM610 178ZM578 177ZM605 175L606 176H607L608 177L607 176H606ZM603 174ZM570 174ZM601 173ZM567 173ZM599 172ZM558 170ZM555 169ZM588 167ZM379 166ZM376 164ZM530 162ZM373 162ZM573 161ZM570 161ZM134 158ZM562 157ZM559 156ZM363 156ZM552 155ZM139 155ZM492 154ZM583 153ZM578 152ZM542 152ZM473 151ZM575 150ZM572 149ZM569 148ZM448 148ZM566 147ZM563 146ZM341 145ZM515 144L514 145ZM161 144ZM551 143ZM539 139ZM537 139ZM411 139ZM533 138ZM477 137ZM470 136ZM701 135ZM523 135ZM521 135ZM454 134ZM306 133ZM193 133ZM302 132ZM197 132ZM694 131ZM287 129ZM483 127ZM685 126ZM477 126ZM492 121ZM440 121ZM488 120ZM418 120ZM388 116L389 117ZM453 115ZM659 113ZM657 112ZM425 111ZM388 111ZM411 109ZM648 108ZM641 105ZM459 101ZM452 100ZM437 98ZM621 97ZM421 97ZM510 96ZM613 94ZM416 91ZM480 90ZM599 89ZM596 88ZM593 87ZM456 87ZM590 86ZM440 85ZM427 82ZM574 81ZM423 81ZM564 78ZM557 76ZM520 76ZM546 73ZM507 73ZM406 73ZM511 72ZM397 72ZM493 70ZM488 69ZM483 68ZM488 67ZM478 67ZM514 65ZM478 65ZM418 65ZM473 64ZM462 62ZM496 61ZM437 60ZM430 59ZM438 58ZM413 58ZM471 56ZM460 54ZM442 51Z" fill="#ffffff" fill-opacity="0.125490" fill-rule="evenodd"/>
<path xmlns="http://www.w3.org/2000/svg" d="M111 871ZM103 862L104 863ZM95 853L96 854ZM77 846ZM231 845ZM88 845ZM70 845ZM242 840ZM382 837ZM805 836ZM198 835L201 838ZM776 834ZM353 833ZM525 830ZM755 828ZM524 827ZM826 826ZM228 824ZM756 822ZM402 821ZM333 821ZM255 820ZM46 820ZM802 817ZM111 816ZM334 815ZM356 814ZM518 810ZM234 810ZM67 810ZM822 803ZM398 798ZM512 793ZM783 788ZM360 787ZM784 781ZM818 780ZM763 779ZM528 778ZM506 776ZM527 775ZM394 775ZM785 774ZM764 773ZM505 773ZM372 773ZM795 772ZM341 772ZM786 767ZM342 766ZM787 760ZM814 757ZM788 753ZM369 753ZM792 752ZM519 752ZM390 752ZM518 749ZM789 746ZM810 734ZM771 730ZM386 729ZM510 726ZM772 724ZM509 723ZM349 723ZM75 720ZM692 719ZM350 717ZM693 716ZM106 714ZM694 713ZM51 713ZM806 711ZM351 711ZM695 710ZM103 710ZM55 708ZM696 707ZM382 706ZM99 706ZM697 704ZM624 701ZM550 701ZM501 701ZM256 701ZM235 701ZM87 700ZM727 670ZM713 665L715 667ZM726 662ZM702 653L704 655ZM691 641L692 642ZM679 628L681 630ZM668 616L670 618ZM657 604L658 605ZM645 591L647 593ZM634 579L636 581ZM623 567L624 568ZM392 567ZM496 565ZM679 564ZM505 564ZM513 563ZM520 562ZM544 558ZM554 556ZM611 554L613 556ZM301 554ZM576 551ZM277 548ZM270 546ZM260 543ZM600 542L602 544ZM575 542L576 543ZM239 536ZM566 534L567 535ZM589 530L590 531ZM557 526L558 527ZM577 517L579 519ZM547 517L548 518ZM180 510ZM538 509L539 510ZM566 505L567 506ZM529 501ZM164 501ZM159 498ZM381 496ZM710 495ZM369 494ZM555 493L556 494ZM519 492L520 493ZM359 492ZM509 491ZM722 487ZM339 487ZM662 485ZM329 484ZM138 484ZM326 483ZM729 482ZM323 482ZM543 480L545 482ZM733 479ZM659 477ZM737 476ZM126 475ZM742 472ZM121 471ZM532 468L533 469ZM748 467ZM114 465L115 466ZM278 462ZM760 456L757 459ZM520 455L522 457ZM263 453ZM260 451ZM257 449ZM97 449L104 456ZM771 445L768 448ZM509 443L511 445ZM646 442ZM87 438ZM779 436L778 437ZM240 436ZM643 434ZM420 433ZM406 433ZM82 432ZM783 431ZM498 431L499 432ZM426 428ZM228 425L232 429ZM432 423ZM398 422ZM73 420ZM792 419ZM222 419L226 423ZM486 418L488 420ZM439 417ZM794 416ZM645 415L644 416ZM796 413ZM445 412ZM390 411ZM215 411ZM67 411ZM650 409ZM387 407ZM475 406L477 408ZM452 406L451 407ZM211 406ZM654 404ZM208 402ZM458 401ZM60 399ZM659 397ZM464 396ZM379 396ZM661 394ZM597 393ZM371 385ZM814 378ZM363 374ZM360 370ZM675 367ZM187 363ZM45 362ZM352 359ZM680 352ZM183 350ZM344 348ZM341 344ZM181 341ZM824 340ZM333 333ZM825 331ZM684 331ZM325 322ZM317 311ZM314 307ZM306 296ZM550 295ZM823 289ZM682 287ZM482 285ZM298 285ZM488 282ZM479 281ZM295 281ZM494 277ZM500 272ZM471 270ZM287 270ZM47 267ZM507 266ZM48 264ZM513 261ZM463 259ZM279 259ZM519 256ZM460 255ZM53 251ZM455 248ZM271 248ZM452 244ZM268 244ZM449 240ZM210 235ZM441 234ZM438 232ZM435 230ZM438 229L439 230ZM653 227L654 228ZM430 227ZM438 224ZM431 223ZM225 220ZM426 219ZM432 216ZM422 216ZM299 214ZM790 213ZM302 213ZM395 212ZM637 211ZM428 211ZM238 210ZM787 209ZM410 208ZM241 208ZM631 206ZM336 206ZM422 204L423 205ZM627 203ZM84 201ZM779 199ZM615 195ZM381 194ZM365 189ZM356 187ZM293 187ZM99 185L92 192ZM402 184ZM320 184ZM760 179L771 190ZM395 178ZM108 177ZM390 174ZM114 172ZM595 171ZM386 171ZM750 170ZM118 169ZM588 168ZM552 168ZM545 166ZM122 166ZM744 165ZM581 164ZM578 164ZM534 163ZM739 161ZM526 161ZM567 160ZM131 160ZM368 159ZM565 158L564 159ZM513 158ZM558 157ZM508 157ZM591 156ZM503 156ZM556 155L555 156ZM553 154ZM545 153ZM727 152ZM480 152ZM578 151ZM575 151ZM543 151ZM538 151ZM532 148ZM528 147ZM524 146ZM560 145ZM554 144ZM550 142ZM494 141ZM331 141ZM709 140ZM543 140L544 141ZM171 140ZM529 137ZM525 136ZM453 135ZM430 135ZM313 135ZM186 135ZM519 134ZM512 133ZM397 130ZM492 129ZM212 129ZM526 128ZM489 128ZM396 128ZM280 128ZM521 127H522ZM517 126ZM474 126ZM396 126ZM244 126ZM512 125H513ZM464 124ZM460 124ZM452 123ZM402 123ZM398 123ZM443 122ZM417 120ZM477 118ZM474 118ZM471 117ZM458 115ZM443 113ZM414 110ZM398 110ZM489 106ZM476 104ZM636 103ZM472 103ZM403 103ZM626 99ZM445 99ZM514 97ZM504 95ZM501 94ZM499 94ZM610 93ZM496 93ZM491 92ZM488 92ZM482 91ZM476 90ZM417 89ZM469 88ZM463 87V88ZM450 85ZM443 84ZM577 82ZM567 79ZM528 78ZM524 77ZM528 76ZM423 76ZM553 75ZM524 75ZM414 74ZM542 72ZM507 71ZM396 71ZM493 68ZM425 68ZM418 67ZM518 66ZM426 66ZM467 65ZM402 65ZM397 65ZM413 64ZM505 63ZM491 60ZM476 57ZM417 55ZM454 53ZM448 52ZM421 48ZM413 47Z" fill="#ffffff" fill-opacity="0.188235" fill-rule="evenodd"/>
<path xmlns="http://www.w3.org/2000/svg" d="M120 862ZM119 860ZM118 858ZM117 856ZM222 846H224ZM89 846ZM78 846H79ZM215 845ZM383 843ZM209 843ZM806 842ZM207 842ZM753 841ZM775 840ZM330 840ZM405 839ZM352 839ZM828 838ZM754 835ZM331 834ZM776 833ZM404 833ZM105 833ZM827 832ZM381 830ZM804 829ZM107 829ZM332 828ZM777 827ZM403 827ZM108 827ZM354 826ZM81 825ZM380 824ZM73 824ZM803 823ZM825 821ZM778 821ZM110 821ZM355 820ZM379 817ZM802 816ZM757 816ZM401 816ZM190 816ZM824 815ZM212 815ZM111 815ZM779 814ZM89 814V815ZM356 813ZM256 812V813ZM45 812V813ZM234 811V812ZM67 811V812ZM758 810ZM400 810ZM823 809ZM335 809ZM759 804ZM399 804ZM336 803ZM821 798ZM760 798ZM337 797ZM397 793ZM820 792ZM761 792ZM360 792H374ZM798 791L797 792H783H797ZM338 791ZM783 787ZM396 787ZM819 786ZM762 786ZM374 786ZM797 785ZM339 785ZM529 781ZM395 781ZM784 780ZM361 780ZM373 779ZM340 779ZM796 778ZM817 775ZM785 773ZM362 773ZM372 772ZM795 771ZM393 770ZM816 769ZM765 767ZM786 766ZM371 766ZM363 766ZM794 765ZM392 764ZM815 763ZM766 761ZM343 760ZM787 759ZM370 759ZM364 759ZM793 758ZM391 758ZM767 755ZM344 754ZM813 752ZM788 752ZM369 752ZM365 752ZM768 749ZM345 748ZM389 747ZM812 746ZM368 746ZM791 745ZM789 745ZM366 745ZM769 743ZM346 742ZM388 741ZM811 740ZM367 739ZM770 737ZM347 736ZM387 735ZM67 733V735ZM45 732V733ZM771 731ZM89 731ZM348 730ZM809 729ZM111 729V730ZM69 725ZM46 725ZM385 724ZM349 724ZM808 723ZM646 722V843ZM773 718ZM384 718ZM807 717ZM774 712ZM383 712ZM805 706ZM775 706ZM352 705ZM62 703ZM777 701H803ZM625 701H697ZM531 701H549ZM480 701H500ZM354 701H380ZM236 701H255ZM190 701L189 702V800V702L190 701H210ZM75 699H81ZM725 660ZM724 658ZM693 643ZM714 637ZM713 635ZM712 633ZM702 612ZM701 610ZM700 608ZM659 606ZM690 587ZM689 585ZM688 583ZM442 568H451ZM413 568H423ZM470 567H472ZM393 567H395ZM484 566H485ZM379 566H381ZM495 565ZM369 565H370ZM504 564ZM360 564ZM512 563ZM352 563ZM678 562ZM519 562ZM345 562ZM526 561ZM338 561ZM677 560ZM532 560ZM332 560ZM538 559ZM326 559ZM321 558ZM549 557ZM306 555ZM563 554ZM297 553ZM281 549ZM577 544ZM667 539ZM666 537ZM665 535ZM231 533ZM216 527ZM209 524ZM198 519ZM196 518ZM655 514ZM654 512ZM184 512ZM182 511ZM653 510ZM686 509ZM568 507ZM171 505ZM695 504ZM530 502ZM668 501ZM454 499H456ZM407 499H409ZM467 498H468ZM396 498H397ZM476 497ZM388 497ZM483 496ZM380 496ZM156 496ZM489 495ZM374 495ZM495 494ZM713 493ZM665 493ZM500 493ZM716 491ZM350 490ZM719 489ZM643 489ZM642 487ZM307 476ZM300 473ZM534 470ZM632 466ZM631 464ZM630 462ZM652 458ZM271 458ZM266 455ZM649 450ZM250 444ZM620 441ZM619 439ZM88 439ZM618 437ZM500 433ZM79 428ZM401 426ZM433 422ZM221 418ZM71 417ZM608 416ZM393 415ZM607 414ZM69 414ZM606 412ZM64 406ZM802 403ZM657 400ZM382 400ZM205 398ZM59 397ZM466 396ZM203 395ZM58 395ZM57 393ZM663 391ZM596 391ZM56 391ZM595 389ZM374 389ZM55 389ZM197 385ZM667 384ZM191 373ZM673 372ZM585 368ZM584 366ZM583 364ZM355 363ZM184 354ZM43 354ZM347 352ZM822 351ZM42 349ZM823 346ZM182 346ZM682 344ZM41 344ZM573 343ZM572 341ZM824 339ZM683 339ZM571 339ZM336 337ZM40 336V337ZM180 335ZM684 332ZM825 329V330ZM328 326ZM179 324V326ZM561 318ZM560 316ZM685 314V318ZM559 314ZM39 311V325ZM179 307V309ZM825 305V307ZM309 300ZM684 299V300ZM180 299ZM40 299V300ZM824 296ZM549 293ZM683 292ZM41 292ZM548 291ZM301 289ZM182 289ZM183 285ZM822 284ZM487 283ZM681 282ZM43 282ZM680 278ZM476 277ZM290 274ZM45 274ZM187 273ZM538 270ZM537 268ZM506 267ZM536 266ZM468 266ZM190 266ZM675 263ZM282 263ZM194 258ZM814 257ZM672 256ZM51 256ZM671 254ZM812 252ZM670 252ZM663 240ZM263 237ZM658 233ZM264 232ZM63 231ZM801 230ZM437 228ZM273 226ZM66 226ZM798 225ZM430 222ZM435 220ZM414 219ZM226 219ZM291 217ZM792 216ZM231 215ZM74 214ZM235 212ZM636 210ZM383 209ZM317 209ZM378 208ZM322 208ZM372 207ZM328 207ZM362 206H363ZM337 206H338ZM244 206ZM80 206ZM405 205ZM783 204ZM251 202ZM253 201ZM255 200ZM257 199ZM778 198ZM391 198ZM259 198ZM266 195ZM610 192ZM284 189ZM361 188ZM288 188ZM599 186ZM351 186ZM298 186ZM403 185ZM344 185ZM305 185ZM329 184H333ZM315 184H319ZM588 181ZM611 178ZM609 177ZM573 175ZM751 171ZM597 171ZM595 170ZM583 166ZM538 164ZM125 164ZM576 162ZM128 162ZM522 160ZM568 159ZM735 158ZM588 156ZM731 155ZM498 155ZM361 155ZM586 154ZM583 154ZM493 154ZM141 154ZM487 153ZM481 152ZM474 151ZM724 150ZM466 150H467ZM536 149ZM458 149H459ZM449 148H450ZM437 147H439ZM518 146ZM422 146H425ZM343 146ZM520 145ZM557 144ZM509 144ZM511 143ZM504 143ZM336 143ZM712 142ZM506 142ZM499 142ZM166 142ZM501 141ZM496 140ZM488 140ZM490 139ZM482 139ZM428 139H429ZM484 138ZM476 138ZM704 137ZM478 137ZM469 137ZM471 136ZM461 136ZM463 135H464ZM452 135ZM699 134ZM516 134ZM455 134ZM441 134H442ZM445 133H446ZM510 132ZM507 132ZM433 132H435ZM505 131ZM502 131ZM417 131H420ZM297 131ZM202 131ZM692 130ZM500 130ZM497 130ZM292 130ZM207 130ZM495 129ZM286 129ZM213 129ZM525 128ZM486 128ZM279 128ZM219 128H220ZM484 127ZM480 127ZM396 127ZM270 127H271ZM228 127H229ZM518 126ZM478 126ZM245 126H255ZM683 125ZM471 125ZM467 125ZM681 124ZM509 124ZM507 124ZM465 124ZM459 124ZM504 123ZM502 123ZM457 123ZM399 123H401ZM499 122ZM497 122ZM449 122H450L451 123L450 122ZM494 121ZM441 121L442 122ZM489 120ZM486 120ZM431 120L430 121H432V120ZM483 119ZM480 119ZM420 119H422ZM473 118ZM407 118H409ZM467 117ZM390 117H392ZM465 116ZM663 115ZM459 115L460 116ZM661 114ZM451 114L452 115ZM444 113L443 114H444ZM435 112L434 113H435L436 112ZM426 111L425 112H424H425L426 111H427ZM411 111H413ZM415 110H416ZM394 110H397ZM650 109ZM495 107ZM643 106ZM488 106ZM484 105ZM482 105ZM478 104ZM469 103ZM404 103H405ZM466 102ZM462 102ZM631 101ZM460 101ZM455 101ZM453 100ZM446 99L447 100ZM438 98V99H439ZM515 97ZM429 97V98H430V97ZM509 96ZM419 96V97H420V96ZM408 96H409ZM506 95ZM493 93ZM416 92V93ZM486 91ZM481 90ZM475 89ZM469 89ZM423 89H424ZM462 88ZM455 87ZM457 86ZM447 86H448ZM451 85ZM439 85ZM444 84ZM436 83ZM428 82ZM560 77ZM422 75ZM520 74ZM511 74ZM415 74ZM516 73ZM407 73ZM502 72ZM398 72ZM538 71ZM497 71ZM534 70ZM530 69ZM498 69ZM526 68ZM424 68ZM522 67ZM417 67ZM472 66ZM427 66ZM409 66H410ZM419 65ZM401 65ZM509 64ZM461 64ZM468 63ZM455 63ZM500 62ZM463 62ZM449 62ZM457 61ZM443 61ZM451 60ZM436 60ZM486 59ZM445 59ZM429 59ZM481 58ZM439 58ZM422 58ZM432 57ZM425 56ZM465 55ZM418 55ZM459 54ZM409 54H410ZM447 52ZM441 51ZM435 50ZM428 49ZM405 49ZM420 48ZM412 47Z" fill="#ffffff" fill-opacity="0.250980" fill-rule="evenodd"/>
<path xmlns="http://www.w3.org/2000/svg" d="M114 870ZM117 868ZM86 845ZM234 844ZM529 841ZM59 840ZM382 836ZM805 835ZM249 833ZM52 833ZM353 832ZM50 830ZM755 829ZM194 829ZM826 827ZM193 827ZM220 825ZM523 824ZM756 823ZM402 822ZM333 822ZM191 821ZM778 820ZM232 820ZM334 816ZM45 811ZM517 807ZM822 804ZM516 804ZM398 799ZM511 790ZM510 787ZM360 786ZM374 785ZM818 781ZM763 780ZM361 779ZM394 776ZM764 774ZM341 773ZM362 772ZM504 770ZM342 767ZM363 765ZM814 758ZM521 758ZM364 758ZM520 755ZM390 753ZM792 751ZM365 751ZM366 744ZM790 739ZM810 735ZM512 732ZM386 730ZM89 730ZM511 729ZM68 727ZM772 725ZM110 724ZM85 722ZM773 719ZM350 718ZM108 718ZM107 716ZM806 712ZM351 712ZM382 707ZM503 706ZM96 704ZM502 703ZM64 702ZM90 701ZM722 674ZM716 668ZM723 656ZM625 569ZM441 568ZM469 567ZM361 564ZM676 558ZM316 557ZM311 556ZM558 555ZM567 553ZM293 552ZM289 551ZM285 550ZM257 542ZM254 541ZM245 538ZM242 537ZM591 532ZM226 531ZM221 529ZM549 519ZM194 517ZM684 510ZM671 509ZM700 501ZM457 499ZM705 498ZM387 497ZM557 495ZM521 494ZM368 494ZM363 493ZM505 492ZM354 491ZM346 489ZM141 486ZM641 485ZM332 485ZM320 481ZM134 481ZM312 478ZM130 478ZM658 474ZM749 466ZM655 466ZM276 461ZM523 458ZM254 447ZM246 441ZM241 437ZM83 433ZM642 431ZM404 430ZM233 430ZM786 427ZM427 427ZM76 424ZM789 423ZM639 423ZM396 419ZM646 414ZM446 411ZM214 410ZM799 408ZM651 408ZM385 404ZM377 393ZM201 392ZM594 387ZM666 386ZM811 385ZM52 382ZM366 378ZM50 377ZM358 367ZM188 366ZM819 363ZM677 362ZM678 359ZM44 358ZM679 356ZM350 356ZM41 343ZM339 341ZM331 330ZM825 328ZM179 327ZM685 319ZM320 315ZM312 304ZM304 293ZM181 293ZM823 290ZM547 289ZM42 287ZM821 280ZM493 278ZM293 278ZM44 278ZM819 272ZM678 271ZM285 267ZM512 262ZM465 262ZM524 252ZM274 252ZM457 251ZM198 251ZM669 250ZM200 248ZM266 241ZM205 241ZM661 237ZM445 237ZM209 236ZM440 227ZM428 226ZM796 222ZM794 219ZM404 215ZM401 214ZM418 213ZM398 213ZM415 211ZM391 211ZM309 211ZM313 210ZM77 210ZM371 207ZM329 207ZM421 203ZM623 200ZM85 200ZM620 198ZM271 193ZM274 192ZM277 191ZM369 190ZM334 184ZM396 179ZM581 178ZM391 175ZM113 173ZM597 172ZM383 169ZM549 167ZM586 166ZM542 165ZM575 163ZM371 161ZM518 159ZM561 158ZM592 157ZM136 157ZM550 153ZM572 150ZM534 150ZM530 149ZM721 148ZM526 148ZM522 147ZM718 146ZM557 145ZM159 145ZM715 144ZM554 143ZM547 141V142ZM540 140ZM328 140ZM174 139ZM536 138ZM475 138ZM532 137ZM468 137ZM528 136ZM460 136ZM316 136ZM183 136ZM451 135ZM456 134ZM440 134ZM309 134ZM515 133ZM301 132ZM421 131ZM490 128L491 129ZM516 126ZM472 125L473 126ZM466 125ZM679 123ZM458 123ZM491 121ZM442 121L441 122ZM416 121ZM478 118ZM472 117ZM459 116ZM452 114ZM423 112ZM389 110ZM499 108ZM490 106ZM475 104ZM473 103ZM454 101ZM396 101ZM446 100ZM396 97ZM618 96ZM511 96ZM421 96ZM407 96ZM498 94ZM607 92ZM487 92ZM481 91ZM475 90ZM422 89ZM470 88ZM464 87ZM438 85ZM580 83ZM437 83ZM570 80ZM515 75ZM549 74ZM506 73ZM399 72ZM503 70ZM492 70ZM487 69ZM482 68ZM489 67ZM477 67ZM484 66ZM479 65ZM466 65ZM474 64ZM495 61ZM421 58ZM470 56ZM453 53ZM405 52ZM434 50ZM427 49ZM406 47Z" fill="#ffffff" fill-opacity="0.313725" fill-rule="evenodd"/>
<path xmlns="http://www.w3.org/2000/svg" d="M121 864ZM105 864L106 865ZM97 855L98 856ZM90 847ZM67 844ZM383 842ZM775 839ZM108 839ZM528 838ZM352 838ZM107 837ZM106 835ZM827 833ZM105 832ZM251 830ZM403 828ZM253 826ZM48 826ZM226 825ZM75 825ZM380 823ZM47 823ZM803 822ZM215 822L216 823ZM86 822L85 823ZM522 821ZM69 820ZM355 819ZM255 819ZM46 819ZM521 818ZM233 818ZM757 817ZM190 815ZM234 813ZM758 811ZM256 811ZM823 810ZM335 810ZM399 805ZM336 804ZM515 801ZM819 787ZM797 784ZM509 784ZM395 782ZM765 768ZM524 767ZM503 767ZM371 765ZM815 764ZM794 764ZM523 764ZM502 764ZM766 762ZM522 761ZM343 761ZM391 759ZM344 755ZM368 745ZM791 744ZM811 741ZM515 741ZM514 738ZM387 736ZM513 735ZM45 734ZM67 732ZM86 723ZM807 718ZM506 715ZM774 713ZM383 713ZM505 712ZM504 709ZM775 707ZM100 707L102 709ZM352 706ZM70 700ZM728 669ZM717 669L718 670ZM705 656L707 658ZM722 654ZM721 652ZM720 650ZM694 644L695 645ZM711 631ZM682 631L684 633ZM710 629ZM709 627ZM671 619L672 620ZM660 607L661 608ZM699 606ZM698 604ZM697 602ZM648 594L650 596ZM637 582L638 583ZM687 581ZM686 579ZM685 577ZM626 570L627 571ZM483 566ZM494 565ZM353 563ZM339 561ZM327 559ZM543 558ZM614 557L616 559ZM675 556ZM553 556ZM674 554ZM302 554ZM571 552ZM579 550ZM274 547ZM603 545L604 546ZM578 545ZM267 545ZM251 540ZM248 539ZM568 536L569 537ZM234 534ZM664 533ZM592 533L593 534ZM663 531ZM662 529ZM559 528L560 529ZM214 526ZM207 523ZM580 520L582 522ZM550 520ZM192 516ZM190 515ZM188 514ZM186 513ZM680 512ZM682 511ZM540 511L541 512ZM652 508ZM569 508L570 509ZM670 506ZM651 506ZM173 506ZM693 505ZM650 504ZM531 503L532 504ZM166 502ZM161 499ZM667 498ZM558 496L559 497ZM484 496ZM522 495ZM490 495ZM358 492ZM664 490ZM514 490ZM342 488ZM335 486ZM726 484ZM640 483ZM546 483L548 485ZM661 482ZM639 481ZM317 480ZM638 479ZM738 475ZM302 474ZM125 474ZM743 471ZM535 471L536 472ZM120 470ZM289 468ZM287 467ZM750 465ZM654 463ZM112 463L113 464ZM629 460ZM524 459L525 460ZM628 458ZM627 456ZM651 455ZM767 449L761 455ZM648 447ZM512 446L514 448ZM89 440ZM645 439ZM777 438ZM414 437ZM411 437ZM617 435ZM501 434L502 435ZM407 434ZM616 433ZM782 432ZM421 432ZM615 431ZM234 431ZM489 421L491 423ZM434 421ZM440 416ZM219 416L220 417ZM647 413ZM605 410ZM447 410ZM478 409L479 410ZM604 408ZM388 408ZM603 406ZM453 405ZM210 405ZM63 404ZM803 401ZM207 401ZM459 400ZM467 397L468 398ZM465 395ZM810 387ZM198 387ZM593 385ZM592 383ZM369 382ZM591 381ZM813 380ZM815 375ZM49 374ZM816 372ZM361 371ZM190 371ZM674 370ZM818 366ZM676 365ZM46 365ZM582 362ZM581 360ZM820 359ZM580 358ZM821 355ZM681 349ZM823 345ZM342 345ZM181 342ZM570 337ZM180 336ZM569 335ZM684 333ZM568 333ZM323 319ZM558 312ZM557 310ZM556 308ZM315 308ZM824 297ZM41 293ZM546 287ZM682 286ZM545 285ZM486 284ZM481 284ZM296 282ZM820 276ZM679 274ZM499 273ZM473 273ZM46 271ZM818 269ZM677 268ZM505 268ZM189 268ZM535 264ZM534 262ZM815 260ZM533 260ZM50 259ZM673 258ZM518 257ZM277 256ZM195 256ZM811 250ZM54 249ZM454 247ZM269 245ZM202 245ZM665 243ZM445 235ZM62 233ZM802 232ZM267 230ZM655 229ZM433 229ZM436 227ZM426 225ZM68 223ZM416 220ZM425 218ZM289 218ZM227 218ZM644 217L648 221ZM409 217ZM294 216ZM431 215ZM427 210ZM387 210ZM635 209ZM786 208ZM407 206ZM361 206ZM249 203ZM419 201L420 202ZM86 199ZM777 197ZM389 197ZM261 197ZM384 195ZM612 193ZM280 190ZM605 189ZM603 188ZM601 187ZM357 187ZM292 187ZM404 186L405 187ZM597 185ZM345 185ZM304 185ZM595 184ZM618 182ZM586 180ZM613 179ZM107 178L106 179ZM576 176ZM599 173ZM752 172ZM565 172ZM387 172ZM562 171ZM559 170ZM593 169ZM590 169ZM121 167ZM745 166ZM580 165ZM579 163ZM740 162ZM531 162ZM571 160ZM366 158ZM509 157ZM504 156ZM589 155ZM499 155ZM548 154ZM359 154ZM357 153ZM143 153ZM581 152L580 153ZM547 152ZM541 152ZM540 150ZM569 149ZM566 148ZM347 148ZM563 147ZM345 147ZM560 146ZM157 146ZM513 145ZM516 144ZM338 144ZM493 141ZM540 139ZM536 139ZM491 139ZM427 139ZM325 139ZM485 138ZM322 138ZM177 138ZM319 137ZM180 137ZM524 135V136ZM520 135ZM190 134ZM511 133ZM305 133ZM194 133ZM198 132ZM690 129ZM527 128ZM485 128ZM479 127ZM269 127ZM230 127ZM514 125ZM450 123ZM677 122ZM496 122ZM675 121ZM673 120ZM433 120ZM671 119ZM484 119L485 120ZM479 119ZM669 118ZM667 117ZM665 116ZM466 116V117ZM451 115ZM652 110ZM417 110ZM393 110ZM500 108ZM645 107ZM493 107H494ZM487 106ZM481 105ZM638 104ZM479 104ZM411 104ZM406 103ZM467 102L468 103ZM461 102ZM623 98ZM439 98ZM513 97ZM615 95ZM502 94L503 95ZM497 93ZM492 92ZM604 91ZM601 90ZM476 89ZM458 86ZM586 85ZM583 84ZM429 82ZM563 78ZM556 76ZM519 76ZM423 75ZM545 73ZM408 73ZM512 72ZM494 68ZM396 67ZM513 65ZM420 65ZM400 65ZM504 63ZM469 63ZM442 61ZM490 60ZM452 60ZM446 59ZM480 58ZM475 57ZM433 57ZM426 56Z" fill="#ffffff" fill-opacity="0.376471" fill-rule="evenodd"/>
<path xmlns="http://www.w3.org/2000/svg" d="M120 866ZM230 845ZM71 845ZM212 844ZM806 841ZM330 841ZM109 841ZM828 839ZM243 839ZM527 835ZM404 834ZM526 832ZM196 832ZM381 829ZM804 828ZM49 828ZM777 826ZM354 825ZM192 824ZM109 824ZM254 823ZM68 818ZM824 816ZM520 815ZM111 814ZM67 813ZM400 811ZM759 805ZM760 799ZM514 798ZM337 798ZM820 793ZM798 792ZM375 792ZM338 792ZM396 788ZM508 781ZM507 778ZM373 778ZM796 777ZM526 773ZM816 770ZM525 770ZM392 765ZM501 761ZM370 758ZM793 757ZM767 756ZM768 750ZM345 749ZM812 747ZM517 747ZM516 744ZM346 743ZM388 742ZM347 737ZM46 726ZM808 724ZM71 722ZM47 722ZM691 721ZM508 721ZM109 721ZM82 720ZM384 719ZM48 719ZM507 718ZM59 705ZM86 700ZM708 625ZM673 621ZM639 584ZM424 568ZM396 567ZM503 564ZM511 563ZM346 562ZM525 561ZM333 560ZM548 557ZM673 552ZM575 551ZM582 549ZM278 548ZM605 547ZM579 546ZM264 544ZM237 535ZM229 532ZM551 521ZM673 514L674 515ZM571 510ZM395 498ZM477 497ZM708 496ZM153 494ZM501 493ZM150 492ZM510 491ZM147 490ZM144 488ZM663 487ZM338 487ZM730 481ZM660 479ZM734 478ZM309 477ZM657 471ZM291 469ZM269 457ZM626 454ZM647 444ZM90 441ZM644 436ZM235 432ZM641 428ZM428 426ZM399 423ZM639 422ZM791 420ZM391 412ZM797 411ZM480 411ZM66 409ZM655 403ZM380 397ZM372 386ZM53 384ZM48 371ZM817 369ZM47 368ZM186 361ZM353 360ZM185 358ZM579 356ZM680 353ZM183 351ZM345 349ZM182 347ZM682 345ZM824 338ZM40 335ZM334 334ZM326 323ZM685 313ZM825 308ZM40 301ZM180 298ZM307 297ZM683 291ZM299 286ZM822 285ZM544 283ZM184 281ZM492 279ZM185 278ZM288 271ZM188 270ZM470 269ZM47 268ZM817 266ZM676 265ZM816 263ZM511 263ZM49 262ZM280 260ZM462 258ZM813 255ZM52 254ZM668 248ZM55 247ZM451 243ZM208 237ZM442 235ZM444 233ZM263 233ZM442 230ZM270 228ZM799 227ZM435 226ZM275 225ZM429 221ZM70 220ZM72 217ZM643 216ZM421 215ZM232 214ZM789 212ZM306 212ZM412 209ZM318 209ZM377 208ZM323 208ZM339 206ZM630 205ZM81 205ZM782 203ZM617 196ZM268 194ZM379 193ZM376 192ZM373 191ZM366 189ZM362 188ZM352 186ZM297 186ZM593 183ZM617 182ZM397 180ZM568 173ZM117 170ZM556 169ZM591 168ZM585 167ZM380 167ZM546 166ZM584 165ZM377 165ZM535 163ZM374 163ZM572 162ZM574 161ZM527 161ZM523 160ZM736 159ZM514 158ZM590 157ZM560 156ZM585 155ZM557 155ZM551 155ZM728 153ZM584 153ZM488 153ZM145 152ZM475 151ZM573 149ZM570 148ZM533 148ZM567 147ZM529 147ZM440 147ZM564 146ZM525 146ZM426 146ZM561 145ZM508 144ZM164 143ZM551 142L550 143ZM507 142ZM498 142ZM333 142ZM502 141ZM169 141ZM544 140L543 141ZM487 140ZM707 139ZM481 139ZM430 139ZM532 138ZM528 137ZM479 137ZM472 136ZM430 136ZM520 134ZM697 133ZM447 133ZM511 132ZM436 132ZM506 131V132ZM296 131ZM501 130V131ZM291 130ZM496 129V130ZM523 127ZM520 127ZM511 125ZM458 124ZM505 123L506 124ZM500 122L501 123ZM495 121ZM410 118ZM388 115ZM445 113ZM433 113ZM437 112ZM388 112ZM654 111ZM410 111ZM504 109H505ZM485 105ZM633 102ZM628 100ZM454 100ZM447 99ZM428 98ZM431 97ZM418 97ZM507 95L508 96ZM492 93ZM487 91ZM598 89ZM468 89ZM595 88ZM592 87ZM454 87ZM589 86ZM430 86ZM573 81ZM527 78ZM523 77ZM529 76ZM525 75ZM510 74ZM416 74ZM541 72ZM501 72ZM508 71ZM499 69ZM429 67ZM416 67ZM517 66ZM471 66ZM460 64ZM454 63ZM448 62ZM458 61ZM435 60ZM485 59ZM428 59ZM464 55ZM419 55ZM440 51ZM419 48ZM411 47Z" fill="#ffffff" fill-opacity="0.439216" fill-rule="evenodd"/>
<path xmlns="http://www.w3.org/2000/svg" d="M91 848ZM112 847ZM216 845ZM111 845ZM85 845ZM110 843ZM753 842ZM383 841ZM240 841ZM806 840ZM405 840ZM204 840ZM775 838ZM352 837ZM754 836ZM382 835ZM331 835ZM805 834ZM776 832ZM353 831ZM755 830ZM403 829ZM332 829ZM826 828ZM252 828ZM756 824ZM402 823ZM333 823ZM825 822ZM380 822ZM803 821ZM110 820ZM778 819ZM213 819ZM88 819ZM757 818ZM355 818ZM46 818ZM401 817ZM334 817ZM379 816ZM212 816ZM89 816ZM802 815ZM234 814ZM67 814ZM779 813ZM190 813V814ZM111 813ZM758 812ZM335 811ZM256 807V810ZM45 807V810ZM399 806ZM822 805ZM336 805ZM398 800ZM821 799ZM513 795ZM397 794ZM761 793ZM375 791ZM798 790ZM762 787ZM783 786ZM339 786ZM360 785ZM374 784ZM797 783ZM395 783ZM818 782ZM763 781ZM340 780ZM784 779ZM361 778ZM394 777ZM373 777ZM817 776ZM796 776ZM764 775ZM341 774ZM785 772ZM393 771ZM372 771ZM362 771ZM795 770ZM765 769ZM342 768ZM786 765ZM371 764ZM363 764ZM794 763ZM766 763ZM343 762ZM391 760ZM814 759ZM787 758ZM767 757ZM370 757ZM364 757ZM344 756ZM390 754ZM813 753ZM788 751ZM369 751ZM792 750ZM365 750ZM345 750ZM389 748ZM789 744ZM769 744ZM368 744ZM791 743ZM366 743ZM90 740V804ZM790 738ZM770 738ZM387 737ZM810 736ZM45 735V738ZM771 732ZM386 731ZM348 731ZM111 731V732ZM67 731ZM809 730ZM89 729ZM772 726ZM88 726ZM385 725ZM349 725ZM110 725ZM668 722V843ZM84 721ZM773 720ZM74 720ZM350 719ZM49 717ZM50 715ZM774 714ZM383 714ZM806 713ZM351 713ZM105 713ZM52 712ZM775 708ZM382 708ZM805 707ZM352 707ZM94 703ZM530 702V783ZM381 702ZM211 702V807ZM92 702ZM719 648ZM718 646ZM696 646ZM707 623ZM706 621ZM662 609ZM696 600ZM695 598ZM694 596ZM684 575ZM683 573ZM628 572ZM682 571ZM425 568H440ZM465 567H468ZM397 567H399ZM481 566H482ZM382 566H384ZM492 565H493ZM371 565H372ZM502 564ZM362 564H363ZM510 563ZM354 563ZM518 562ZM347 562ZM340 561ZM531 560ZM537 559ZM328 559ZM542 558ZM322 558ZM317 557ZM312 556ZM307 555ZM562 554ZM298 553ZM672 550ZM671 548ZM271 546ZM570 538ZM224 530ZM219 528ZM661 527ZM660 525ZM659 523ZM205 522ZM676 514ZM678 513ZM175 507ZM691 506ZM168 503ZM698 502ZM649 502ZM648 500ZM422 500H442ZM703 499ZM458 499H460ZM404 499H406ZM647 498ZM469 498H470ZM394 498ZM478 497ZM386 497ZM158 497ZM523 496ZM485 496ZM379 496ZM666 495ZM491 495ZM373 495ZM711 494ZM496 494ZM367 494ZM362 493ZM506 492ZM349 490ZM723 486ZM137 483ZM314 479ZM637 477ZM129 477ZM636 475ZM304 475ZM635 473ZM537 473ZM295 471ZM744 470ZM293 470ZM119 469ZM285 466ZM283 465ZM281 464ZM274 460ZM264 454ZM650 452ZM625 452ZM261 452ZM624 450ZM258 450ZM251 445ZM247 442ZM776 439ZM242 438ZM412 437H413ZM503 436ZM416 436ZM409 436ZM84 434ZM422 431ZM614 429ZM80 429ZM785 428ZM613 427ZM402 427ZM612 425ZM74 421ZM793 417ZM441 415ZM795 414ZM68 412ZM213 409ZM652 407ZM800 406ZM602 404ZM601 402ZM62 402ZM383 401ZM600 400ZM804 399ZM469 399ZM460 399ZM805 397ZM660 396ZM375 390ZM809 389ZM199 389ZM665 388ZM194 380ZM590 379ZM51 379ZM193 378ZM589 377ZM364 375ZM189 369ZM356 364ZM45 361ZM44 357ZM578 354ZM43 353ZM577 352ZM822 350ZM42 348ZM823 344ZM41 342ZM683 340ZM337 338ZM824 337ZM180 337ZM684 334ZM40 334ZM567 331ZM566 329ZM179 328V329ZM565 327ZM329 327ZM825 323V327ZM685 320V324ZM318 312ZM825 309V313ZM685 308V312ZM555 306ZM179 305V306ZM554 304ZM553 302ZM40 302ZM310 301ZM824 298ZM684 297V298ZM41 294ZM823 291ZM182 288ZM42 288ZM43 283ZM681 281ZM543 281ZM478 280ZM542 279ZM291 275ZM186 275ZM498 274ZM467 265ZM283 264ZM674 260ZM532 258ZM517 258ZM531 256ZM530 254ZM459 254ZM196 254ZM272 249ZM810 248ZM56 245ZM446 238ZM264 238ZM60 237ZM61 235ZM803 234ZM659 234ZM439 233ZM436 231ZM65 228ZM424 224ZM437 223ZM422 223ZM420 222ZM418 221ZM434 219ZM287 219ZM394 212ZM426 209ZM382 209ZM239 209ZM370 207ZM330 207ZM242 207ZM357 206H360ZM340 206H342ZM247 204ZM626 202ZM398 201ZM776 196ZM263 196ZM607 190ZM287 188ZM346 185ZM303 185ZM335 184H337ZM312 184H314ZM591 182ZM615 180V181ZM613 180ZM584 179ZM579 177ZM392 176ZM603 175ZM601 174ZM112 174ZM753 173ZM592 170ZM746 167ZM124 165ZM539 164ZM519 159ZM133 159ZM563 157ZM364 157ZM732 156ZM505 156ZM138 156ZM494 154ZM577 152ZM482 152ZM355 152ZM725 151ZM544 151ZM537 151ZM476 151ZM353 151ZM147 151ZM468 150H469ZM351 150ZM149 150ZM460 149H461ZM349 149ZM151 149ZM451 148H452ZM153 148ZM441 147H442ZM155 147ZM517 146ZM427 146H429ZM521 145ZM512 143ZM503 143ZM710 141ZM492 141ZM497 140ZM424 139H426ZM486 138ZM474 138ZM467 137ZM430 137V138ZM702 136ZM473 136ZM459 136ZM465 135ZM449 135H450ZM312 135ZM187 135ZM457 134ZM437 134H439ZM516 133L515 134ZM448 133ZM437 132H438ZM422 131H425ZM203 131ZM398 130H401ZM208 130ZM529 129ZM285 129ZM214 129ZM688 128ZM524 128ZM491 128L490 129ZM277 128H278ZM221 128H222ZM485 127L484 128ZM267 127H268ZM231 127H232ZM519 126ZM479 126L478 127ZM473 125L472 126ZM510 124ZM466 124L465 125ZM457 124ZM459 123ZM449 123ZM451 122H452ZM439 122H440ZM443 121ZM427 121H429ZM490 120V121ZM484 120ZM434 120ZM423 119H424ZM479 118L478 119ZM411 118H412ZM473 117L472 118ZM465 117ZM393 117H397ZM467 116ZM458 116ZM460 115ZM450 115ZM453 114ZM441 114H442ZM446 113ZM432 113ZM388 113V114ZM656 112ZM438 112ZM421 112H422ZM428 111H429ZM408 111H409ZM511 110ZM418 110H419ZM390 110H392ZM506 109ZM501 108ZM498 108ZM496 107ZM491 106L492 107ZM486 106ZM480 104V105ZM474 103V104ZM407 103H408ZM468 102L467 103ZM461 101L460 102ZM453 101ZM455 100ZM445 100ZM448 99ZM436 99H437ZM440 98ZM427 98ZM396 98V100ZM432 97ZM416 97H417ZM422 96H423ZM404 96H406ZM612 94ZM497 94ZM486 92ZM480 91ZM482 90ZM474 90ZM467 89ZM420 89H421ZM471 88ZM461 88ZM465 87ZM453 87ZM459 86ZM445 86H446ZM452 85ZM436 85H437ZM445 84ZM438 83ZM430 82ZM423 80ZM566 79ZM423 77ZM552 75ZM514 75ZM521 74ZM417 74ZM517 73ZM409 73ZM400 72H401ZM537 71ZM496 71ZM533 70ZM504 70ZM491 70ZM529 69ZM486 69ZM525 68ZM481 68ZM423 68ZM396 68V70ZM521 67ZM490 67ZM476 67ZM415 67ZM485 66ZM428 66ZM407 66H408ZM480 65ZM465 65ZM421 65ZM398 65H399ZM508 64ZM475 64ZM499 62ZM464 62ZM441 61ZM453 60ZM434 60ZM447 59ZM427 59ZM440 58ZM419 58H420ZM434 57ZM469 56ZM427 56ZM420 55ZM458 54ZM411 54H412ZM452 53ZM446 52ZM433 50ZM405 50V51ZM426 49ZM418 48ZM410 47Z" fill="#ffffff" fill-opacity="0.501961" fill-rule="evenodd"/>
<path xmlns="http://www.w3.org/2000/svg" d="M99 857ZM236 843ZM330 842ZM61 841ZM58 839ZM404 835ZM827 834ZM248 834ZM53 834ZM525 829ZM381 828ZM804 827ZM777 825ZM82 825ZM354 824ZM84 824ZM214 821ZM87 821ZM191 820ZM255 818ZM519 812ZM400 812ZM111 812ZM823 811ZM518 809ZM759 806ZM45 806ZM90 805ZM760 800ZM337 799ZM338 793ZM512 792ZM359 791ZM375 790ZM396 789ZM819 788ZM783 785ZM528 779ZM784 778ZM527 776ZM506 775ZM785 771ZM392 766ZM815 765ZM786 764ZM500 758ZM787 757ZM793 756ZM519 753ZM768 751ZM788 750ZM518 750ZM769 745ZM346 744ZM789 743ZM388 743ZM811 742ZM347 738ZM111 733ZM67 730ZM510 727ZM46 727ZM509 724ZM87 724ZM70 723ZM624 721ZM384 720ZM807 719ZM692 718ZM693 715ZM694 712ZM695 709ZM696 706ZM697 703ZM776 702ZM67 701ZM723 673ZM719 671ZM717 644ZM685 634ZM400 567ZM480 566ZM517 562ZM524 561ZM334 560ZM547 557ZM557 555ZM566 553ZM294 552ZM290 551ZM286 550ZM282 549ZM670 546ZM261 543ZM240 536ZM594 535ZM212 525ZM203 521ZM542 513ZM672 511ZM177 508ZM669 503ZM421 500ZM163 500ZM560 498ZM393 498ZM385 497ZM714 492ZM353 491ZM717 490ZM345 489ZM720 488ZM328 484ZM325 483ZM133 480ZM659 476ZM739 474ZM656 468ZM751 464ZM526 461ZM653 460ZM623 448ZM255 448ZM781 433ZM643 433ZM405 431ZM640 425ZM77 425ZM788 424ZM492 424ZM435 420ZM72 418ZM394 416ZM70 415ZM386 405ZM454 404ZM658 399ZM204 397ZM662 393ZM808 391ZM54 386ZM367 379ZM588 375ZM359 368ZM187 364ZM819 362ZM184 355ZM821 354ZM348 353ZM181 343ZM340 342ZM40 333ZM321 316ZM313 305ZM40 303ZM180 297ZM181 292ZM683 290ZM302 290ZM682 285ZM485 285ZM183 284ZM821 281ZM294 279ZM44 279ZM680 277ZM541 277ZM475 276ZM45 275ZM819 273ZM48 265ZM464 261ZM275 253ZM456 250ZM667 246ZM57 243ZM267 242ZM204 242ZM59 239ZM431 228ZM797 224ZM277 224ZM411 218ZM406 216ZM791 215ZM297 215ZM300 214ZM303 213ZM75 213ZM310 211ZM236 211ZM386 210ZM314 210ZM78 209ZM376 208ZM324 208ZM409 207ZM369 207ZM331 207ZM87 198ZM387 196ZM614 194ZM382 194ZM370 190ZM283 189ZM406 188ZM358 187ZM291 187ZM353 186ZM296 186ZM571 174ZM384 170ZM553 168ZM577 164ZM741 163ZM127 163ZM569 161ZM130 161ZM566 160ZM369 160ZM566 158ZM557 157ZM510 157ZM554 156ZM500 155ZM554 154ZM544 153ZM489 153ZM576 150ZM533 150ZM537 149ZM529 149ZM525 148ZM521 147ZM512 145ZM340 145ZM558 144ZM553 144ZM517 144ZM411 144ZM713 143ZM548 141ZM330 141ZM539 140ZM486 140ZM411 140ZM492 139ZM480 139ZM423 139ZM537 138ZM533 137ZM480 137ZM466 137ZM529 136ZM458 136ZM519 135ZM466 135ZM458 134ZM510 133ZM449 133ZM695 132ZM300 132ZM199 132ZM495 130ZM290 130ZM528 129ZM284 129ZM266 127ZM233 127ZM515 126ZM467 124ZM397 124ZM460 123ZM448 123ZM495 122ZM444 121ZM435 120ZM485 119ZM425 119ZM413 118ZM457 116ZM454 114ZM431 113ZM407 111ZM509 110H510ZM503 109ZM647 108ZM411 108ZM640 105ZM397 102ZM462 101ZM452 101ZM444 100ZM620 97ZM512 96V97ZM502 95ZM417 95ZM498 93ZM493 92ZM488 91ZM477 89ZM460 88ZM453 85ZM446 84ZM576 82ZM431 82ZM559 77ZM505 73ZM513 72ZM495 68ZM422 68ZM512 65ZM459 64ZM470 63ZM453 63ZM447 62ZM494 61ZM459 61ZM489 60ZM479 58ZM441 58ZM474 57ZM463 55ZM439 51Z" fill="#ffffff" fill-opacity="0.560784" fill-rule="evenodd"/>
<path xmlns="http://www.w3.org/2000/svg" d="M112 871ZM107 866L108 867ZM121 865ZM100 858ZM116 855ZM115 853ZM114 851ZM113 849ZM92 849ZM229 845ZM72 845ZM233 844ZM753 843ZM530 843ZM351 843ZM65 843ZM238 842ZM405 841ZM828 840ZM529 840ZM244 838ZM754 837ZM331 836ZM382 834ZM776 831ZM353 830ZM332 830ZM524 826ZM219 825ZM523 823ZM230 823ZM401 818ZM824 817ZM379 815ZM234 815ZM802 814ZM211 808ZM517 806ZM256 806ZM397 795ZM820 794ZM761 794ZM359 792ZM798 789ZM511 789ZM762 788ZM339 787ZM510 786ZM360 784ZM529 782ZM340 781ZM361 777ZM341 775ZM505 772ZM393 772ZM816 771ZM372 770ZM362 770ZM795 769ZM504 769ZM363 763ZM521 759ZM520 756ZM364 756ZM369 750ZM792 749ZM389 749ZM365 749ZM812 748ZM366 742ZM770 739ZM90 739ZM45 739ZM771 733ZM512 733ZM348 732ZM511 730ZM385 726ZM349 726ZM808 725ZM503 707ZM502 704ZM381 703ZM804 702ZM89 701ZM71 700ZM724 672ZM720 672L721 673ZM728 667ZM727 665ZM726 663ZM708 659L710 661ZM697 647L698 648ZM716 642ZM715 640ZM714 638ZM686 635L687 636ZM674 622L676 624ZM705 619ZM704 617ZM703 615ZM663 610L664 611ZM651 597L653 599ZM693 594ZM692 592ZM691 590ZM640 585L641 586ZM629 573L630 574ZM681 569ZM680 567ZM464 567ZM679 565ZM373 565ZM501 564ZM355 563ZM617 560L619 562ZM530 560ZM536 559ZM552 556ZM303 554ZM570 552ZM578 550ZM606 548L607 549ZM580 547L581 548ZM275 547ZM268 545ZM669 544ZM668 542ZM258 542ZM255 541ZM667 540ZM571 539ZM246 538ZM243 537ZM595 536L596 537ZM232 533ZM561 530L562 531ZM217 527ZM583 523L585 525ZM552 522L553 523ZM658 521ZM201 520ZM657 519ZM656 517ZM543 514ZM572 511L573 512ZM179 509ZM671 508ZM689 507ZM533 505L534 506ZM668 500ZM561 499L562 500ZM524 497L525 498ZM646 496ZM378 496ZM372 495ZM645 494ZM497 494ZM502 493ZM665 492ZM644 492ZM357 492ZM515 490ZM341 488ZM549 486L551 488ZM331 485ZM140 485ZM662 484ZM322 482ZM319 481ZM311 478ZM538 474L539 475ZM124 473ZM297 472ZM634 471ZM745 469ZM633 469ZM118 468ZM632 467ZM655 465ZM752 463ZM279 463ZM527 462L528 463ZM110 461L111 462ZM272 459ZM652 457ZM649 449ZM515 449L517 451ZM622 446ZM621 444ZM91 442L92 443ZM646 441ZM775 440ZM243 439ZM504 437L505 438ZM408 435ZM85 435ZM236 433ZM423 430ZM493 425L494 426ZM429 425ZM611 423ZM610 421ZM641 420L640 421ZM397 420ZM609 419ZM442 414ZM217 414L218 415ZM648 412ZM481 412L483 414ZM448 409ZM65 407ZM209 404ZM470 400L471 401ZM61 400ZM599 398ZM461 398ZM598 396ZM806 395ZM597 394ZM378 394ZM202 394ZM807 393ZM55 388ZM370 383ZM812 382ZM195 382ZM669 381ZM670 379ZM814 377ZM671 377ZM192 376ZM50 376ZM672 375ZM191 374ZM587 373ZM586 371ZM585 369ZM675 368ZM46 364ZM677 363ZM678 360ZM820 358ZM679 357ZM351 357ZM681 350ZM576 350ZM575 348ZM574 346ZM683 341ZM332 331ZM179 330ZM685 325ZM564 325ZM563 323ZM825 322ZM562 321ZM324 320ZM685 307ZM179 304ZM552 300ZM824 299ZM551 298ZM550 296ZM305 294ZM822 286ZM491 280ZM820 277ZM540 275ZM497 275ZM539 273ZM472 272ZM187 272ZM538 271ZM678 270ZM504 269ZM286 268ZM510 264ZM191 263ZM675 262ZM192 261ZM516 259ZM814 258ZM278 257ZM51 257ZM812 253ZM523 253ZM528 252ZM53 252ZM809 246ZM453 246ZM808 244ZM807 242ZM58 241ZM806 240ZM805 238ZM207 238ZM804 236ZM656 230ZM64 230ZM800 229ZM439 226ZM434 225ZM67 225ZM279 223ZM221 223L213 231ZM649 222L651 224ZM281 222ZM283 221ZM285 220ZM424 217ZM292 217ZM228 217ZM403 215ZM430 214ZM400 214ZM640 213L642 215ZM397 213ZM390 211ZM319 209ZM634 208ZM425 208ZM785 207ZM343 206ZM82 204ZM402 203ZM781 202ZM400 202ZM396 200ZM394 199ZM88 197ZM775 195ZM265 195ZM273 192ZM609 191ZM276 191ZM407 189L418 200ZM302 185ZM311 184ZM617 181ZM589 181ZM398 181ZM105 180L104 181ZM611 179ZM609 178ZM608 176L607 177ZM606 175L605 176ZM574 175ZM111 175ZM754 174L755 175ZM604 174ZM602 173ZM388 173ZM600 172ZM598 171ZM594 171ZM116 171ZM747 168ZM587 168ZM589 167ZM550 167ZM582 166ZM543 165ZM582 164ZM577 162ZM569 159ZM563 159ZM560 158ZM515 158ZM592 156ZM587 156ZM140 155ZM587 154ZM582 154ZM547 154ZM551 153ZM540 152ZM483 152ZM579 151ZM574 151ZM571 150ZM541 150ZM722 149ZM556 145ZM507 144ZM162 144ZM555 143ZM335 143ZM546 142ZM508 142ZM497 142ZM167 142ZM503 141ZM172 140ZM541 139ZM535 139ZM175 139ZM705 138ZM473 138ZM523 136ZM315 136ZM184 136ZM700 135ZM525 135ZM431 134ZM308 134ZM191 134ZM304 133ZM195 133ZM505 132ZM507 131ZM500 131ZM295 131ZM502 130ZM209 130ZM497 129ZM215 129ZM528 128ZM686 127ZM486 127ZM684 126ZM480 126ZM471 126ZM515 125ZM510 125ZM464 125ZM505 124ZM501 122L500 123ZM438 122ZM496 121ZM426 121ZM471 118ZM461 115ZM449 115ZM658 113ZM420 112ZM513 111H516ZM430 111ZM508 110ZM486 105ZM473 104ZM635 103ZM409 103ZM630 101ZM625 99ZM441 98ZM426 98ZM617 96ZM507 96ZM503 94ZM609 93ZM491 93ZM606 92ZM473 90ZM419 89ZM582 84ZM579 83ZM439 83ZM569 80ZM529 78ZM531 77H533ZM518 76ZM548 74ZM410 73ZM500 72ZM470 66ZM429 66ZM422 65ZM503 63ZM484 59ZM413 59ZM457 54ZM445 52ZM432 50ZM425 49ZM409 47Z" fill="#ffffff" fill-opacity="0.623529" fill-rule="evenodd"/>
<path xmlns="http://www.w3.org/2000/svg" d="M115 869ZM118 867ZM93 850ZM217 845ZM68 844ZM210 843ZM528 837ZM247 835ZM54 835ZM805 833ZM197 833ZM755 831ZM106 830ZM108 826ZM756 825ZM227 825ZM48 825ZM402 824ZM333 824ZM217 824ZM825 823ZM109 823ZM71 823ZM254 822ZM231 822ZM47 822ZM380 821ZM522 820ZM110 819ZM778 818ZM334 818ZM355 817ZM212 817ZM67 815ZM516 803ZM398 801ZM821 800ZM515 800ZM782 792ZM509 783ZM374 783ZM797 782ZM763 782ZM394 778ZM817 777ZM764 776ZM765 770ZM342 769ZM503 766ZM523 765ZM371 763ZM343 763ZM794 762ZM522 762ZM390 755ZM813 754ZM368 743ZM791 742ZM514 739ZM367 738ZM513 736ZM386 732ZM809 731ZM772 727ZM773 721ZM72 721ZM350 720ZM351 714ZM505 713ZM53 711ZM504 710ZM382 709ZM805 708ZM58 706ZM97 705ZM85 700ZM702 613ZM642 587ZM385 566ZM491 565ZM509 563ZM341 561ZM323 558ZM308 555ZM561 554ZM574 551ZM608 550ZM572 540ZM252 540ZM249 539ZM227 531ZM222 529ZM210 524ZM199 519ZM655 515ZM544 515ZM574 513ZM170 504ZM696 503ZM443 500ZM403 499ZM471 498ZM706 497ZM479 497ZM155 495ZM511 491ZM516 490ZM664 489ZM334 486ZM727 483ZM661 481ZM735 477ZM540 476ZM306 476ZM658 473ZM109 460ZM267 456ZM648 446ZM620 442ZM774 441ZM506 439ZM645 438ZM417 435ZM237 434ZM642 430ZM81 430ZM400 424ZM436 419ZM798 409ZM389 409ZM212 408ZM653 406ZM801 404ZM455 403ZM656 402ZM206 400ZM381 398ZM664 390ZM373 387ZM196 384ZM668 383ZM52 381ZM815 374ZM49 373ZM362 372ZM188 367ZM47 367ZM818 365ZM354 361ZM680 354ZM183 352ZM43 352ZM822 349ZM182 348ZM42 347ZM682 346ZM343 346ZM573 344ZM41 341ZM180 338ZM824 336ZM684 335ZM335 335ZM327 324ZM825 314ZM316 309ZM308 298ZM684 296ZM41 295ZM823 292ZM42 289ZM484 286ZM43 284ZM480 283ZM297 283ZM679 273ZM289 272ZM46 272ZM818 270ZM503 270ZM469 268ZM677 267ZM190 265ZM281 261ZM461 257ZM199 249ZM270 246ZM201 246ZM664 241ZM662 238ZM262 234V235ZM266 231ZM441 229ZM272 227ZM795 221ZM428 220ZM413 219ZM793 218ZM73 216ZM417 212ZM788 211ZM414 210ZM381 209ZM245 205ZM629 204ZM622 199ZM392 198ZM619 197ZM385 195ZM774 194ZM270 193ZM279 190ZM367 189ZM363 188ZM347 185ZM338 184ZM582 178ZM563 171ZM560 170ZM120 168ZM587 166ZM574 163ZM536 163ZM532 162ZM372 162ZM528 161ZM737 160ZM572 160ZM524 160ZM362 156ZM729 154ZM495 154ZM582 152ZM548 152ZM568 149ZM565 148ZM453 148ZM719 147ZM562 147ZM530 147ZM559 146ZM526 146ZM516 146ZM430 146ZM342 146ZM716 145ZM412 145ZM549 143ZM513 143ZM502 143ZM498 140ZM327 140ZM324 139ZM531 138ZM321 138ZM178 138ZM527 137ZM318 137ZM181 137ZM474 136ZM448 135ZM521 134ZM436 134ZM512 132ZM439 132ZM204 131ZM402 130ZM276 128ZM524 127ZM519 127ZM474 125ZM456 124ZM506 123ZM489 121ZM491 120ZM480 118ZM474 117ZM464 117ZM398 117ZM660 114ZM447 113ZM518 112H519ZM439 112ZM420 110ZM649 109ZM507 109ZM502 108ZM497 107V108ZM642 106ZM411 105ZM475 103ZM466 103ZM459 102ZM435 99ZM433 97ZM424 96ZM403 96ZM508 95ZM485 92ZM603 91ZM479 91ZM483 90ZM429 90ZM472 88ZM466 87ZM452 87ZM444 86ZM585 85ZM572 81ZM562 78ZM536 78ZM526 78ZM534 77ZM522 77ZM555 76ZM530 76V77ZM526 75ZM522 74ZM509 74ZM544 73ZM540 72ZM509 71ZM495 71ZM500 69ZM475 67ZM516 66ZM414 64ZM498 62ZM465 62ZM440 61ZM435 57ZM468 56ZM428 56ZM413 54ZM451 53ZM417 48Z" fill="#ffffff" fill-opacity="0.686275" fill-rule="evenodd"/>
<path xmlns="http://www.w3.org/2000/svg" d="M119 861ZM118 859ZM101 859ZM117 857ZM228 845ZM84 845ZM73 845ZM213 844ZM774 843ZM330 843ZM351 842ZM208 842ZM63 842ZM828 841ZM206 841ZM383 840ZM806 839ZM203 839ZM754 838ZM57 838ZM775 837ZM331 837ZM404 836ZM352 836ZM827 835ZM382 833ZM805 832ZM332 831ZM250 831ZM51 831ZM776 830ZM403 830ZM195 830ZM826 829ZM353 829ZM107 828ZM381 827ZM804 826ZM193 826ZM253 825ZM74 825ZM777 824ZM354 823ZM803 820ZM757 819ZM191 819ZM824 818ZM521 817ZM255 817ZM89 817ZM46 817ZM379 814ZM758 813ZM400 813ZM823 812ZM780 812H801L802 813L801 812ZM357 812H378ZM335 812ZM190 810V812ZM211 809V811ZM111 808V811ZM759 807ZM399 807ZM822 806ZM336 806ZM90 806V810ZM760 801ZM337 800ZM820 795ZM761 795ZM338 794ZM782 791ZM396 790ZM359 790ZM819 789ZM762 789ZM375 789ZM798 788ZM339 788ZM783 784ZM395 784ZM818 783ZM763 783ZM360 783ZM374 782ZM340 782ZM797 781ZM784 777ZM373 776ZM361 776ZM341 776ZM796 775ZM816 772ZM785 770ZM372 769ZM362 769ZM795 768ZM524 768ZM392 767ZM815 766ZM766 764ZM786 763ZM371 762ZM363 762ZM391 761ZM814 760ZM767 758ZM344 757ZM787 756ZM370 756ZM793 755ZM364 755ZM768 752ZM345 751ZM812 749ZM788 749ZM369 749ZM792 748ZM365 748ZM769 746ZM346 745ZM388 744ZM811 743ZM66 743V802ZM789 742ZM366 741ZM770 740ZM45 740V805ZM347 739ZM387 738ZM810 737ZM90 735V738ZM771 734ZM111 734V736ZM348 733ZM67 729ZM89 728ZM46 728ZM349 727ZM808 726ZM110 726ZM68 726ZM47 723ZM669 721H690ZM384 721ZM807 720ZM108 719ZM77 719H79ZM774 715ZM383 715ZM106 715ZM806 714ZM104 712ZM775 709ZM352 708ZM61 704ZM804 703ZM776 703ZM624 702V720L625 721H645H625L624 720ZM550 702V843ZM353 702ZM256 702V805ZM235 702V802ZM65 702ZM725 661ZM724 659ZM723 657ZM699 649ZM713 636ZM712 634ZM711 632ZM665 612ZM701 611ZM700 609ZM690 588ZM689 586ZM688 584ZM631 575ZM460 567H463ZM401 567H405ZM477 566H479ZM386 566H387ZM490 565ZM374 565H375ZM500 564ZM364 564H365ZM678 563ZM508 563ZM356 563ZM516 562ZM348 562ZM677 561ZM523 561ZM529 560ZM335 560ZM676 559ZM535 559ZM329 559ZM541 558ZM546 557ZM318 557ZM313 556ZM556 555ZM299 553ZM295 552ZM279 548ZM265 544ZM666 538ZM597 538ZM665 536ZM235 534ZM563 532ZM197 518ZM195 517ZM654 513ZM185 512ZM653 511ZM183 511ZM181 510ZM685 509ZM687 508ZM563 501ZM165 501ZM701 500ZM444 500H448ZM415 500H420ZM461 499H462ZM401 499H402ZM472 498ZM392 498ZM160 498ZM667 497ZM480 497ZM384 497ZM486 496ZM377 496ZM492 495ZM371 495ZM366 494ZM361 493ZM152 493ZM507 492ZM352 491ZM149 491ZM643 490ZM348 490ZM146 489ZM642 488ZM143 487ZM641 486ZM136 482ZM731 480ZM316 480ZM128 476ZM740 473ZM299 473ZM631 465ZM630 463ZM753 462ZM277 462ZM629 461ZM651 454ZM252 446ZM248 443ZM619 440ZM618 438ZM780 434ZM784 429ZM403 428ZM430 424ZM75 422ZM790 421ZM608 417ZM607 415ZM606 413ZM392 413ZM649 411ZM449 408ZM472 402ZM384 402ZM60 398ZM59 396ZM58 394ZM596 392ZM57 392ZM200 391ZM595 390ZM56 390ZM594 388ZM197 386ZM667 385ZM811 384ZM365 376ZM673 373ZM190 372ZM817 368ZM584 367ZM583 365ZM357 365ZM582 363ZM45 360ZM44 356ZM346 350ZM181 344ZM823 343ZM572 342ZM571 340ZM41 340ZM338 339ZM684 336ZM824 335ZM179 331ZM40 331V332ZM685 326V327ZM561 319ZM560 317ZM825 315V321ZM559 315ZM319 313ZM685 304V306ZM40 304V305ZM179 303ZM311 302ZM824 300V301ZM180 296ZM41 296ZM684 295ZM549 294ZM548 292ZM181 291ZM547 290ZM683 289ZM300 287ZM182 287ZM682 284ZM821 282ZM490 281ZM681 280ZM477 279ZM292 276ZM537 269ZM536 267ZM189 267ZM815 261ZM193 259ZM194 257ZM672 255ZM522 254ZM671 253ZM458 253ZM197 252ZM670 251ZM273 250ZM54 250ZM666 244ZM450 242ZM447 239ZM265 239ZM443 236ZM660 235ZM444 234ZM443 232ZM63 232ZM434 230ZM269 229ZM429 227ZM433 224ZM436 222ZM69 222ZM71 219ZM433 218ZM408 217ZM420 214ZM233 213ZM307 212ZM315 210ZM411 208ZM375 208ZM325 208ZM633 207ZM367 207H368ZM332 207ZM344 206H356ZM404 204ZM625 201ZM252 201ZM254 200ZM256 199ZM258 198ZM89 196ZM616 195ZM611 192ZM286 188ZM359 187ZM600 186ZM354 186ZM295 186ZM348 185ZM301 185ZM339 184H340ZM309 184H310ZM399 182ZM610 177ZM393 177ZM577 176ZM596 172ZM566 172ZM596 170ZM589 169ZM381 168ZM547 166ZM378 166ZM742 164ZM540 164ZM375 164ZM520 159ZM367 159ZM135 158ZM733 157ZM511 157ZM506 156ZM550 155ZM501 155ZM360 155ZM142 154ZM579 153ZM490 153ZM484 152ZM536 151ZM477 151ZM470 150ZM462 149H463ZM534 148ZM454 148ZM520 147ZM443 147H444ZM344 147ZM431 146H432ZM522 145ZM413 145H415ZM160 145ZM552 142ZM542 141ZM491 141ZM411 141V143ZM708 140ZM545 140ZM485 140ZM493 139ZM479 139ZM418 139H422ZM487 138ZM472 138ZM481 137ZM465 137ZM456 136H457ZM467 135ZM447 135ZM514 134ZM459 134H460ZM433 134H435ZM517 133ZM450 133H451ZM440 132H441ZM299 132ZM693 131ZM426 131H428ZM503 130ZM494 130ZM403 130H410ZM289 130ZM210 130ZM489 129ZM283 129ZM216 129ZM523 128ZM492 128ZM483 128ZM275 128ZM223 128H224ZM487 127ZM477 127ZM263 127H265ZM234 127H236ZM520 126ZM514 126ZM481 126ZM470 126ZM682 125ZM475 125ZM463 125ZM680 124ZM511 124ZM468 124ZM455 124ZM413 124H415ZM461 123ZM446 123H447ZM494 122ZM453 122H454ZM436 122H437ZM416 122ZM445 121H446ZM423 121H425ZM483 120ZM436 120H437ZM486 119ZM477 119ZM426 119H427ZM470 118ZM414 118H416ZM463 117ZM399 117H401ZM664 116ZM468 116ZM456 116ZM662 115ZM462 115ZM448 115ZM455 114ZM439 114H440ZM448 113ZM429 113H430ZM520 112H521L522 113H523H522L521 112ZM440 112ZM418 112H419ZM431 111ZM404 111H406ZM512 110ZM421 110H422ZM502 109ZM492 106L491 107ZM485 106ZM411 106V107ZM487 105ZM479 105ZM481 104ZM472 104ZM465 103ZM410 103H411ZM469 102ZM458 102ZM398 102ZM463 101ZM451 101ZM456 100ZM443 100ZM449 99ZM434 99ZM442 98ZM424 98H425ZM516 97ZM434 97ZM414 97H415ZM513 96ZM425 96ZM401 96H402ZM501 95ZM496 94ZM499 93ZM490 93ZM494 92ZM489 91ZM600 90ZM472 90ZM428 90ZM478 89ZM466 89ZM418 89ZM459 88ZM451 87ZM430 87ZM588 86ZM460 86ZM443 86ZM454 85ZM434 85H435ZM447 84ZM440 83ZM432 82ZM424 81ZM537 78ZM535 78ZM423 78V79ZM513 75ZM418 74ZM518 73ZM504 73ZM411 73ZM402 72H403ZM536 71ZM532 70ZM505 70ZM490 70ZM528 69ZM485 69ZM524 68ZM496 68ZM480 68ZM429 68L428 69ZM421 68ZM520 67ZM491 67ZM413 67H414ZM486 66ZM469 66ZM405 66H406ZM481 65ZM464 65ZM423 65ZM507 64ZM476 64ZM458 64ZM415 64ZM471 63ZM452 63ZM413 63ZM446 62ZM493 61ZM460 61ZM488 60ZM454 60ZM433 60ZM448 59ZM425 59H426ZM478 58ZM442 58ZM417 58H418ZM473 57ZM429 56ZM462 55ZM421 55H422ZM414 54ZM444 52ZM438 51ZM431 50ZM424 49ZM416 48ZM407 47H408Z" fill="#ffffff" fill-opacity="0.749020" fill-rule="evenodd"/>
<path xmlns="http://www.w3.org/2000/svg" d="M109 868L110 869ZM102 860ZM94 851L95 852ZM218 845ZM405 842ZM383 839ZM775 836ZM246 836L245 837ZM55 836L56 837ZM527 834ZM105 834ZM755 832ZM526 831ZM756 826ZM333 825ZM825 824ZM229 824ZM192 823ZM70 822ZM380 820ZM803 819ZM401 819ZM334 819ZM233 819ZM778 817ZM355 816ZM234 816ZM46 816ZM520 814ZM66 803ZM821 801ZM514 797ZM397 796ZM530 784ZM508 780ZM817 778ZM764 777ZM526 774ZM393 773ZM765 771ZM525 771ZM342 770ZM343 764ZM502 763ZM794 761ZM501 760ZM813 755ZM389 750ZM516 745ZM515 742ZM368 742ZM791 741ZM367 737ZM111 737ZM809 732ZM772 728ZM385 727ZM69 724ZM773 722ZM109 722ZM646 721ZM350 721ZM48 720ZM507 719ZM506 716ZM351 715ZM51 714ZM54 710ZM805 709ZM57 707ZM381 704ZM84 700ZM72 700ZM725 671ZM711 662L713 664ZM700 650L701 651ZM688 637L690 639ZM677 625L679 627ZM666 613L667 614ZM699 607ZM654 600L656 602ZM643 588L645 590ZM632 576L633 577ZM459 567ZM489 565ZM499 564ZM620 563L622 565ZM349 562ZM342 561ZM324 558ZM551 556ZM304 554ZM565 553ZM609 551L611 553ZM291 551ZM287 550ZM283 549ZM272 546ZM573 541L574 542ZM598 539L599 540ZM664 534ZM564 533ZM586 526L588 528ZM554 524L555 525ZM208 523ZM545 516L546 517ZM575 514L576 515ZM673 513ZM535 507L536 508ZM670 505ZM172 505ZM694 504ZM564 502L565 503ZM526 499L527 500ZM463 499ZM391 498ZM709 495ZM498 494ZM356 492ZM517 491L518 492ZM552 489L554 491ZM344 489ZM337 487ZM724 485ZM132 479ZM660 478ZM541 477L542 478ZM123 472ZM657 470ZM746 468ZM116 466L117 467ZM529 464L531 466ZM654 462ZM755 460L754 461ZM270 458ZM105 456L108 459ZM262 453ZM518 452L520 454ZM259 451ZM93 444L96 447ZM773 442L772 443ZM507 440L508 441ZM244 440ZM617 436ZM86 436ZM779 435ZM644 435ZM238 435ZM418 434ZM406 432ZM82 431ZM424 429ZM641 427ZM495 427L497 429ZM78 426ZM787 425ZM431 423ZM398 421ZM73 419ZM792 418ZM437 418ZM644 417L642 419ZM395 417ZM794 415ZM484 415L486 417ZM443 413ZM216 413ZM796 412ZM650 410ZM67 410ZM450 407ZM211 407ZM387 406ZM64 405ZM473 403L474 404ZM208 403ZM802 402ZM456 402ZM659 398ZM462 397ZM661 395ZM379 395ZM376 391ZM368 380ZM813 379ZM816 371ZM48 370ZM360 369ZM676 366ZM186 362ZM819 361ZM185 359ZM352 358ZM349 354ZM821 353ZM822 348ZM42 346ZM341 343ZM683 342ZM180 339ZM570 338ZM333 332ZM179 332ZM40 330ZM685 328ZM330 328ZM322 317ZM314 306ZM40 306ZM179 302ZM306 295ZM823 293ZM303 291ZM822 287ZM482 286ZM183 283ZM489 282ZM295 280ZM184 280ZM44 280ZM185 277ZM680 276ZM496 276ZM45 276ZM474 275ZM819 274ZM502 271ZM287 269ZM47 269ZM817 267ZM535 265ZM509 265L508 266ZM284 265ZM816 264ZM466 264ZM515 260ZM463 260ZM50 260ZM521 255ZM276 254ZM529 253ZM525 252ZM811 251ZM455 249ZM268 243ZM203 243ZM206 239ZM440 234ZM437 232ZM212 232L211 233ZM801 231ZM657 231ZM441 231L443 233ZM798 226ZM652 225L653 226ZM432 223ZM223 221L222 222ZM427 219ZM290 218ZM423 216ZM295 216ZM229 216ZM790 214ZM429 213ZM393 212ZM76 212ZM638 211L639 212ZM311 211ZM385 210ZM237 210ZM320 209ZM240 208ZM79 208ZM333 207ZM784 206ZM423 206L424 207ZM406 205ZM83 203ZM250 202ZM780 201ZM390 197ZM260 197ZM380 193ZM92 193L90 195ZM772 192L773 193ZM377 192ZM374 191ZM282 189ZM290 187ZM598 185ZM400 183ZM103 182L101 184ZM587 180ZM612 178ZM394 178ZM756 176L758 178ZM110 176ZM389 174ZM569 173ZM115 172ZM385 171ZM748 169ZM594 169ZM557 169ZM554 168ZM123 166ZM579 165ZM580 163ZM571 162ZM132 160ZM561 156ZM553 156ZM590 155ZM558 155ZM496 154ZM543 153ZM726 152ZM545 151ZM478 151ZM532 150ZM471 150ZM574 149ZM538 149ZM528 149ZM571 148ZM524 148ZM568 147ZM445 147ZM565 146ZM433 146ZM562 145ZM511 145ZM416 145ZM518 144ZM337 144ZM509 142ZM496 142ZM332 142ZM504 141ZM538 140ZM499 140ZM534 137ZM464 137ZM530 136ZM475 136ZM526 135ZM518 135ZM468 135ZM446 135ZM311 135ZM188 135ZM698 134ZM509 133ZM504 132ZM200 132ZM508 131ZM499 131ZM294 131ZM691 130ZM527 129ZM498 129ZM262 127ZM237 127ZM516 125ZM509 125ZM504 124ZM412 124ZM499 123ZM502 122ZM497 121ZM488 121ZM476 119ZM481 118ZM475 117ZM402 117ZM469 116ZM528 114H529ZM524 113H525ZM517 111V112ZM512 111ZM432 111ZM403 111ZM651 110ZM507 110ZM496 108ZM637 104ZM476 103ZM470 102ZM399 102ZM450 101ZM457 100ZM442 100ZM450 99ZM622 98ZM511 97ZM413 97ZM506 96ZM426 96ZM400 96ZM397 96ZM614 95ZM504 94ZM484 92ZM478 91ZM484 90ZM427 90ZM597 89ZM465 89ZM594 88ZM458 88ZM430 88V89ZM591 87ZM467 87ZM461 86ZM431 85ZM575 82ZM433 82ZM565 79ZM538 78L539 79H541H539ZM558 77ZM517 76ZM551 75ZM419 74ZM514 72ZM511 65ZM502 63ZM466 62ZM439 61ZM432 60ZM483 59ZM436 57ZM456 54ZM450 53ZM406 53Z" fill="#ffffff" fill-opacity="0.811765" fill-rule="evenodd"/>
<path xmlns="http://www.w3.org/2000/svg" d="M120 863ZM83 845ZM241 840ZM108 840ZM806 838ZM107 838ZM106 836ZM352 835ZM198 834ZM826 830ZM251 829ZM50 829ZM525 828ZM194 828ZM49 827ZM381 826ZM402 825ZM72 824ZM777 823ZM354 822ZM232 821ZM757 820ZM68 819ZM110 818ZM255 816ZM67 816ZM758 814ZM335 813ZM779 812ZM356 812ZM519 811ZM190 809ZM822 807ZM336 807ZM235 803ZM398 802ZM337 801ZM513 794ZM512 791ZM782 790ZM359 789ZM818 784ZM783 783ZM528 780ZM394 779ZM527 777ZM507 777ZM784 776ZM373 775ZM796 774ZM506 774ZM785 769ZM766 765ZM786 762ZM814 761ZM767 759ZM344 758ZM500 757ZM390 756ZM787 755ZM370 755ZM793 754ZM519 754ZM345 752ZM518 751ZM788 748ZM517 748ZM789 741ZM810 738ZM90 734ZM386 733ZM46 729ZM510 728ZM509 725ZM508 722ZM668 721ZM691 720ZM83 720ZM692 717ZM107 717ZM774 716ZM806 715ZM693 714ZM694 711ZM775 710ZM382 710ZM352 709ZM695 708ZM56 708ZM98 706ZM696 705ZM353 703ZM63 703ZM697 702ZM91 702ZM68 701ZM722 655ZM721 653ZM702 652ZM720 651ZM710 630ZM709 628ZM708 626ZM668 615ZM698 605ZM697 603ZM687 582ZM686 580ZM685 578ZM388 566ZM357 563ZM515 562ZM522 561ZM336 560ZM675 557ZM674 555ZM673 553ZM569 552ZM573 551ZM581 549ZM262 543ZM241 536ZM238 535ZM565 534ZM663 532ZM230 532ZM662 530ZM225 530ZM661 528ZM220 528ZM215 526ZM206 522ZM577 516ZM193 516ZM191 515ZM189 514ZM187 513ZM681 511ZM683 510ZM672 510ZM652 509ZM537 509ZM651 507ZM174 506ZM650 505ZM669 502ZM699 501ZM449 500ZM704 498ZM383 497ZM487 496ZM157 496ZM493 495ZM666 494ZM712 493ZM503 493ZM715 491ZM718 489ZM721 487ZM663 486ZM330 485ZM640 484ZM327 484ZM139 484ZM324 483ZM728 482ZM639 482ZM638 480ZM543 479ZM313 479ZM308 477ZM736 476ZM127 475ZM301 474ZM741 472ZM122 471ZM290 469ZM288 468ZM656 467ZM286 467ZM275 461ZM653 459ZM628 459ZM627 457ZM626 455ZM265 455ZM650 451ZM256 449ZM647 443ZM509 442ZM87 437ZM616 434ZM615 432ZM783 430ZM614 430ZM425 428ZM640 424ZM226 424ZM71 416ZM69 413ZM444 412ZM215 412ZM605 411ZM390 410ZM604 409ZM799 407ZM603 407ZM654 405ZM475 405ZM803 400ZM382 399ZM463 396ZM203 396ZM663 392ZM198 388ZM666 387ZM810 386ZM593 386ZM592 384ZM371 384ZM53 383ZM591 382ZM51 378ZM363 373ZM674 371ZM189 370ZM187 365ZM581 361ZM580 359ZM820 357ZM579 357ZM184 356ZM681 351ZM43 351ZM682 347ZM344 347ZM823 342ZM569 336ZM336 336ZM824 334ZM568 334ZM325 321ZM558 313ZM557 311ZM317 310ZM556 309ZM42 290ZM546 288ZM545 286ZM544 284ZM298 284ZM479 282ZM820 278ZM495 277ZM186 274ZM290 273ZM471 271ZM188 269ZM48 266ZM676 264ZM534 263ZM49 263ZM533 261ZM674 259ZM532 259ZM279 258ZM673 257ZM813 256ZM460 256ZM195 255ZM52 255ZM669 249ZM55 248ZM271 247ZM452 245ZM663 239ZM62 234ZM265 232ZM66 227ZM427 226ZM274 226ZM438 225ZM796 223ZM417 221ZM415 220ZM224 220ZM792 217ZM405 216ZM298 215ZM301 214ZM304 213ZM389 211ZM787 210ZM380 209ZM243 206ZM628 203ZM248 203ZM84 202ZM779 200ZM262 196ZM267 194ZM771 191ZM371 190ZM604 188ZM602 187ZM100 185ZM596 184ZM594 183ZM614 179ZM580 177ZM600 174ZM572 174ZM598 173ZM749 170ZM119 169ZM592 168ZM584 167ZM743 165ZM585 165ZM544 165ZM126 164ZM129 162ZM738 161ZM575 161ZM568 161ZM529 161ZM370 161ZM565 160ZM592 158ZM567 158ZM559 158ZM516 158ZM589 157ZM564 157ZM556 157ZM137 157ZM730 155ZM584 155ZM555 154ZM358 154ZM585 153ZM552 153ZM356 153ZM144 153ZM576 152ZM723 150ZM577 150ZM348 149ZM455 148ZM346 148ZM156 147ZM158 146ZM559 144ZM552 144ZM506 144ZM501 143ZM165 143ZM711 142ZM545 142ZM549 141ZM170 141ZM534 139ZM478 139ZM538 138ZM488 138ZM703 137ZM482 137ZM522 136ZM522 134ZM432 134ZM307 134ZM192 134ZM303 133ZM196 133ZM513 132ZM429 131ZM205 131ZM488 129ZM397 129ZM282 129ZM529 128ZM493 128ZM482 128ZM518 127ZM476 127ZM462 125ZM469 124ZM678 123ZM507 123ZM462 123ZM676 122ZM674 121ZM672 120ZM492 120ZM482 120ZM670 119ZM668 118ZM666 117ZM455 116ZM447 115ZM530 114L531 115ZM456 114ZM438 114ZM526 113L527 114ZM417 112ZM653 111ZM503 108ZM644 107ZM498 107ZM490 107ZM484 106ZM478 105ZM482 104ZM632 102ZM627 100ZM433 99ZM443 98ZM619 97ZM435 97ZM509 95ZM611 94ZM495 94ZM430 90ZM417 90ZM473 88ZM433 85ZM448 84ZM578 83ZM441 83ZM542 79L543 80ZM521 77ZM547 74ZM508 74ZM412 73ZM499 72ZM510 71ZM501 69ZM427 69ZM420 68ZM474 67ZM515 66ZM463 65ZM416 64ZM455 60ZM413 60ZM449 59ZM467 56ZM437 51ZM423 49Z" fill="#ffffff" fill-opacity="0.874510" fill-rule="evenodd"/>
<path xmlns="http://www.w3.org/2000/svg" d="M113 870ZM111 870ZM116 868ZM119 866ZM103 861L104 862ZM96 853L97 854ZM112 848ZM111 846ZM74 845ZM232 844ZM110 844ZM88 844L89 845ZM69 844ZM235 843ZM66 843ZM774 842ZM530 842ZM109 842ZM351 841ZM60 840ZM827 836ZM199 835L202 838ZM249 832ZM52 832ZM403 831ZM196 831ZM105 831ZM252 827ZM804 825ZM524 825ZM218 825ZM83 825ZM523 822ZM254 821ZM69 821ZM47 821ZM213 820ZM88 820ZM823 813ZM379 813ZM211 812ZM759 808ZM518 808ZM399 808ZM517 805ZM760 802ZM761 796ZM338 795ZM819 790ZM339 789ZM511 788ZM375 788ZM798 787ZM395 785ZM529 783ZM360 782ZM361 775ZM505 771ZM504 768ZM372 768ZM362 768ZM815 767ZM795 767ZM391 762ZM363 761ZM521 760ZM520 757ZM364 754ZM768 753ZM369 748ZM792 747ZM769 747ZM365 747ZM346 746ZM811 744ZM66 742ZM366 740ZM347 740ZM387 739ZM790 737ZM512 734ZM511 731ZM110 727ZM88 725ZM86 722ZM807 721ZM73 720ZM80 719ZM76 719ZM49 718ZM383 716ZM50 716ZM102 710L103 711ZM55 709ZM503 708ZM99 707ZM502 705ZM60 705ZM776 704ZM95 704ZM93 703ZM501 702ZM88 701ZM727 669L726 670ZM714 665L716 667ZM703 653L704 654ZM719 649ZM718 647ZM717 645ZM691 640L693 642ZM680 628L682 630ZM707 624ZM706 622ZM705 620ZM669 616L670 617ZM657 603L659 605ZM696 601ZM695 599ZM694 597ZM646 591L648 593ZM634 578L636 580ZM684 576ZM683 574ZM682 572ZM406 567ZM623 566L625 568ZM376 565ZM366 564ZM507 563ZM330 559ZM540 558ZM319 557ZM314 556ZM309 555ZM612 554L614 556ZM560 554ZM300 553ZM672 551ZM577 550ZM671 549ZM670 547ZM276 547ZM269 545ZM575 543L576 544ZM259 542ZM600 541L602 543ZM256 541ZM247 538ZM244 537ZM566 535L567 536ZM233 533ZM589 529L591 531ZM660 526ZM556 526L557 527ZM213 525ZM659 524ZM658 522ZM204 521ZM547 518L548 519ZM578 517L580 519ZM675 514ZM677 513ZM679 512ZM538 510L539 511ZM176 507ZM690 506ZM692 505ZM566 504L568 506ZM649 503ZM697 502ZM167 502ZM648 501ZM528 501L529 502ZM668 499ZM647 499ZM400 499ZM162 499ZM473 498ZM707 496ZM365 494ZM154 494ZM519 493L520 494ZM555 492L557 494ZM151 492ZM665 491ZM512 491ZM148 490ZM340 488ZM145 488ZM333 486ZM142 486ZM725 484ZM662 483ZM321 482ZM318 481ZM135 481ZM544 480L545 481ZM732 479ZM637 478ZM131 478ZM636 476ZM737 475ZM659 475ZM303 475ZM635 474ZM742 471ZM294 471ZM292 470ZM121 470ZM532 467L534 469ZM748 466L747 467ZM284 466ZM282 465ZM114 464L115 465ZM273 460ZM268 457ZM759 456L756 459ZM652 456ZM521 455L523 457ZM625 453ZM624 451ZM623 449ZM649 448ZM97 448L104 455ZM253 447ZM771 444L768 447ZM249 444ZM510 443L511 444ZM245 441ZM646 440ZM88 438ZM778 436ZM410 436ZM239 436L240 437ZM407 433ZM643 432ZM420 432L419 433ZM83 432ZM782 431ZM498 430L500 432ZM404 429ZM613 428ZM426 427ZM79 427ZM786 426ZM612 426ZM401 425ZM227 425L232 430ZM611 424ZM76 423ZM789 422ZM432 422ZM221 419L225 423ZM487 418L489 420ZM396 418ZM439 416L438 417ZM646 415L645 416ZM393 414ZM445 411ZM214 411ZM797 410ZM651 409ZM66 408ZM388 407ZM476 406L477 407ZM451 406ZM210 406ZM602 405ZM601 403ZM385 403ZM63 403ZM207 402ZM657 401ZM600 401ZM458 400L457 401ZM205 399ZM804 398ZM805 396ZM380 396ZM466 395ZM464 395ZM201 393ZM377 392ZM808 390ZM665 389ZM809 388ZM374 388ZM54 385ZM812 381ZM369 381ZM590 380ZM193 379ZM589 378ZM366 377ZM814 376ZM588 376ZM361 370ZM675 369ZM358 366ZM818 364ZM46 363ZM355 362ZM678 361ZM679 358ZM578 355ZM350 355ZM577 353ZM183 353ZM576 351ZM347 351ZM182 349ZM342 344ZM339 340ZM334 333ZM567 332ZM566 330ZM331 329ZM565 328ZM328 325ZM323 318ZM320 314ZM555 307ZM315 307ZM554 305ZM553 303ZM312 303ZM309 299ZM304 292ZM301 288ZM483 287ZM481 285ZM43 285ZM488 283ZM543 282ZM296 281ZM542 280ZM541 278ZM494 278ZM476 278ZM293 277ZM473 274ZM46 273ZM501 272L500 273ZM818 271ZM288 270ZM507 267ZM468 267ZM285 266ZM465 263ZM282 262ZM514 261L513 262ZM814 259ZM462 259ZM531 257ZM520 256ZM530 255ZM277 255ZM527 252ZM457 252ZM274 251ZM198 250ZM810 249ZM454 248ZM668 247ZM200 247ZM56 246ZM269 244ZM202 244ZM57 244ZM665 242ZM448 240L449 241ZM266 240ZM205 240ZM60 238ZM444 237ZM661 236ZM263 236ZM61 236ZM803 235ZM210 234L209 235ZM802 233ZM658 232ZM442 231ZM268 230ZM432 229ZM65 229ZM799 228ZM438 228L440 230L439 229L440 228L439 229ZM271 228ZM654 227ZM425 225ZM276 225ZM423 224ZM68 224ZM421 223ZM431 222ZM419 222ZM435 221ZM70 221ZM794 220ZM288 219ZM225 219ZM426 218ZM410 218ZM72 218ZM432 217ZM422 215ZM402 215ZM230 215ZM74 215ZM399 214ZM789 213ZM419 213ZM396 213ZM234 212ZM427 211L428 212ZM416 211ZM77 211ZM637 210ZM413 209ZM374 208ZM326 208ZM80 207ZM632 206ZM408 206ZM783 205ZM421 204L422 205ZM246 204ZM399 201ZM85 201ZM624 200ZM778 199ZM621 198ZM618 196ZM388 196ZM383 194ZM613 193ZM272 192ZM275 191ZM608 190ZM278 190ZM606 189ZM364 188ZM99 186L93 192ZM300 185ZM401 184L402 185ZM308 184ZM616 182ZM592 182ZM614 181ZM616 180ZM759 179L770 190ZM585 179ZM395 179ZM109 177L108 178ZM604 176ZM602 175ZM575 175ZM390 175ZM114 173ZM386 172ZM750 171ZM591 170ZM382 169ZM586 168ZM590 167ZM551 167ZM379 167ZM122 167ZM744 166ZM376 165ZM576 164ZM537 163ZM373 163ZM739 162ZM578 162ZM533 162ZM525 160ZM570 159ZM562 159ZM134 159ZM734 158ZM365 158ZM507 156ZM139 156ZM588 154ZM581 154ZM546 154ZM727 153ZM549 152ZM539 152ZM354 152ZM146 152ZM580 151ZM573 151ZM352 151ZM148 151ZM570 150ZM542 150ZM350 150ZM150 150ZM152 149ZM720 148ZM154 148ZM531 147ZM717 146ZM558 146ZM527 146ZM515 146ZM555 145ZM339 145ZM714 144ZM163 144ZM556 143ZM514 143ZM490 141ZM329 141ZM484 140ZM173 140ZM706 139ZM542 139ZM494 139ZM412 139ZM530 138ZM471 138ZM526 137ZM701 136ZM314 136ZM185 136ZM513 134ZM696 133ZM452 133ZM411 130ZM689 129ZM217 129ZM687 128ZM274 128ZM225 128ZM525 127ZM469 126ZM397 125ZM512 124ZM454 124ZM438 120ZM487 119ZM428 119ZM469 118ZM462 117ZM389 116ZM532 115H534L535 116H536H535L534 115ZM463 115ZM526 114ZM449 113ZM428 113ZM655 112ZM522 112ZM441 112ZM508 109ZM501 109ZM412 109ZM646 108ZM493 106ZM639 105ZM464 101ZM624 99ZM516 98ZM608 93ZM479 89ZM450 87ZM442 86ZM455 85ZM581 84ZM568 80ZM561 78ZM525 78ZM535 77ZM554 76ZM531 76ZM527 75ZM424 75ZM523 74ZM543 73ZM404 72ZM494 71ZM489 70ZM484 69ZM429 69ZM479 68ZM519 67ZM492 67ZM487 66ZM397 66ZM482 65ZM424 65ZM506 64ZM477 64ZM457 64ZM451 63ZM497 62ZM445 62ZM461 61ZM443 58ZM414 58ZM472 57ZM461 55ZM415 54ZM430 50ZM415 48ZM406 48Z" fill="#ffffff" fill-opacity="0.937255" fill-rule="evenodd"/>
<path xmlns="http://www.w3.org/2000/svg" d="M777 702V704L776 705V710L775 711V716L774 717V722L773 723V728L772 729V734L771 735V740L770 741V747L769 748V753L768 754V759L767 760V765L766 766V771L765 772V777L764 778V783L763 784V789L762 790V796L761 797V802L760 803V808L759 809V814L758 815V820L757 821V826L756 827V832L755 833V838L754 839V843H773V842L774 841V836L775 835V830L776 829V823L777 822V817L778 816V812L779 811H801L803 813V818L804 819V824L805 825V831L806 832V837L807 838V843H828V842L827 841V837L826 836V831L825 830V825L824 824V819L823 818V814L822 813V808L821 807V802L820 801V796L819 795V791L818 790V785L817 784V779L816 778V773L815 772V768L814 767V762L813 761V756L812 755V750L811 749V745L810 744V739L809 738V733L808 732V727L807 726V722L806 721V716L805 715V710L804 709V704L803 703V702ZM789 737L790 736L791 737V740L792 741V746L793 747V753L794 754V760L795 761V766L796 767V773L797 774V780L798 781V786L799 787V792L798 793H782L781 792V790L782 789V783L783 782V776L784 775V769L785 768V762L786 761V755L787 754V748L788 747V741L789 740ZM625 702V720H646L647 721V843H667V721L668 720H690L691 719V717L692 716V714L693 713V711L694 710V708L695 707V705L696 704V702ZM480 702V843H499V757L500 756L501 757V759L502 760V762L503 763V765L504 766V767L505 768V770L506 771V773L507 774V776L508 777V779L509 780V782L510 783V785L511 786V787L512 788V790L513 791V793L514 794V796L515 797V799L516 800V802L517 803V804L518 805V807L519 808V810L520 811V813L521 814V816L522 817V819L523 820V821L524 822V824L525 825V827L526 828V830L527 831V833L528 834V836L529 837V839L530 840V841L531 842V843H549V702H531V784L530 785L528 783V781L527 780V778L526 777V775L525 774V772L524 771V769L523 768V766L522 765V763L521 762V761L520 760V758L519 757V755L518 754V752L517 751V749L516 748V746L515 745V743L514 742V740L513 739V737L512 736V735L511 734V732L510 731V729L509 728V726L508 725V723L507 722V720L506 719V717L505 716V714L504 713V711L503 710V709L502 708V706L501 705V703L500 702ZM354 702V703L353 704V709L352 710V715L351 716V721L350 722V727L349 728V733L348 734V740L347 741V746L346 747V752L345 753V758L344 759V764L343 765V770L342 771V776L341 777V782L340 783V789L339 790V795L338 796V801L337 802V807L336 808V813L335 814V819L334 820V825L333 826V831L332 832V837L331 838V843H350V841L351 840V835L352 834V829L353 828V822L354 821V816L355 815V812L356 811H378L380 813V819L381 820V825L382 826V832L383 833V838L384 839V843H405L404 842V837L403 836V832L402 831V826L401 825V820L400 819V814L399 813V809L398 808V803L397 802V797L396 796V791L395 790V786L394 785V780L393 779V774L392 773V768L391 767V763L390 762V757L389 756V751L388 750V745L387 744V740L386 739V734L385 733V728L384 727V722L383 721V717L382 716V711L381 710V705L380 704V702ZM366 737L367 736L368 737V741L369 742V747L370 748V754L371 755V761L372 762V767L373 768V774L374 775V781L375 782V787L376 788V792L375 793H359L358 792V789L359 788V782L360 781V775L361 774V768L362 767V761L363 760V754L364 753V747L365 746V740L366 739ZM190 702V808L191 809V818L192 819V822L193 823V825L194 826V827L195 828V829L197 831V832L205 840H206L207 841H208L209 842H210L211 843H213L214 844H218L219 845H227L228 844H231L232 843H234L235 842H237L238 841H239L241 839H242L248 833V832L250 830V829L251 828V827L252 826V825L253 824V821L254 820V816L255 815V702H236V803L235 804V816L234 817V819L233 820V821L229 825H228L227 826H218L212 820V818L211 817V813L210 812V702ZM73 700L72 701H69L68 702H66L65 703H64L63 704H62L60 706H59L52 713V714L51 715V716L50 717V718L49 719V720L48 721V723L47 724V729L46 730V815L47 816V820L48 821V824L49 825V826L50 827V828L51 829V830L53 832V833L59 839H60L62 841H63L64 842H66L67 843H69L70 844H74L75 845H82L83 844H87L88 843L90 845V846L98 854V855L105 862V863L112 870L113 869H114L116 867H117L119 865H120V864L119 863V862L118 861V860L117 859V858L116 857V856L115 855V854L114 853V852L113 851V850L111 848V847L110 846V845L109 844V843L108 842V841L107 840V839L106 838V837L105 836V835L104 834V831L106 829V828L107 827V826L108 825V823L109 822V818L110 817V808L111 807V738L110 737V728L109 727V723L108 722V720L107 719V718L106 717V716L105 715V714L101 710V709L100 708H99L96 705H95L94 704H93L92 703H91L90 702H88L87 701H84L83 700ZM75 719L76 718H80L81 719H83L85 721H86L87 722V723L89 725V727L90 728V733L91 734V810L90 811V817L89 818V820L83 826H74L73 825H72L68 821V820L67 819V817L66 816V804L65 803V742L66 741V729L67 728V726L68 725V724L73 719ZM334 207L333 208H327L326 209H321L320 210H316L315 211H312L311 212H308L307 213H305L304 214H302L301 215H299L298 216H296L295 217H293L292 218H291L290 219H289L288 220H286L285 221H284L283 222H282L281 223H280L279 224H278L276 226H275L274 227H273L271 229H270L268 231H267L265 233H264L263 234V235L264 236V237L267 240V241L270 244V245L272 247V248L275 251V252L278 255V256L280 258V259L283 262V263L286 266V267L289 270V271L291 273V274L294 277V278L297 281V282L299 284V285L302 288V289L305 292V293L307 295V296L310 299V300L313 303V304L316 307V308L318 310V311L321 314V315L324 318V319L326 321V322L329 325V326L332 329V330L335 333V334L337 336V337L340 340V341L343 344V345L345 347V348L348 351V352L351 355V356L353 358V359L356 362V363L359 366V367L362 370V371L364 373V374L367 377V378L370 381V382L372 384V385L375 388V389L378 392V393L381 396V397L383 399V400L386 403V404L389 407V408L391 410V411L394 414V415L397 418V419L399 421V422L402 425V426L405 429V430L408 433V434L409 435H410L411 436H415L420 431H421L426 426H427L432 421H433L439 415H440L445 410H446L451 405H452L458 399H459L464 394H466L467 395V396L478 407V408L490 420V421L501 432V433L512 444V445L524 457V458L535 469V470L546 481V482L558 494V495L569 506V507L581 519V520L592 531V532L603 543V544L615 556V557L626 568V569L637 580V581L649 593V594L660 605V606L671 617V618L683 630V631L694 642V643L705 654V655L717 667V668L722 673L727 668H728L727 667V666L726 665V664L725 663V662L724 661V660L723 659V658L722 657V656L721 655V654L720 653V652L719 651V650L718 649V648L717 647V646L716 645V643L715 642V641L714 640V639L713 638V637L712 636V635L711 634V633L710 632V631L709 630V629L708 628V627L707 626V625L706 624V623L705 622V621L704 620V618L703 617V616L702 615V614L701 613V612L700 611V610L699 609V608L698 607V606L697 605V604L696 603V602L695 601V600L694 599V598L693 597V595L692 594V593L691 592V591L690 590V589L689 588V587L688 586V585L687 584V583L686 582V581L685 580V579L684 578V577L683 576V575L682 574V573L681 572V570L680 569V568L679 567V566L678 565V564L677 563V562L676 561V560L675 559V558L674 557V556L673 555V554L672 553V552L671 551V550L670 549V548L669 547V545L668 544V543L667 542V541L666 540V539L665 538V537L664 536V535L663 534V533L662 532V531L661 530V529L660 528V527L659 526V525L658 524V523L657 522V520L656 519V518L655 517V516L654 515V514L653 513V512L652 511V510L651 509V508L650 507V506L649 505V504L648 503V502L647 501V500L646 499V497L645 496V495L644 494V493L643 492V491L642 490V489L641 488V487L640 486V485L639 484V483L638 482V481L637 480V479L636 478V477L635 476V475L634 474V472L633 471V470L632 469V468L631 467V466L630 465V464L629 463V462L628 461V460L627 459V458L626 457V456L625 455V454L624 453V452L623 451V450L622 449V447L621 446V445L620 444V443L619 442V441L618 440V439L617 438V437L616 436V435L615 434V433L614 432V431L613 430V429L612 428V427L611 426V425L610 424V422L609 421V420L608 419V418L607 417V416L606 415V414L605 413V412L604 411V410L603 409V408L602 407V406L601 405V404L600 403V402L599 401V399L598 398V397L597 396V395L596 394V393L595 392V391L594 390V389L593 388V387L592 386V385L591 384V383L590 382V381L589 380V379L588 378V377L587 376V374L586 373V372L585 371V370L584 369V368L583 367V366L582 365V364L581 363V362L580 361V360L579 359V358L578 357V356L577 355V354L576 353V352L575 351V349L574 348V347L573 346V345L572 344V343L571 342V341L570 340V339L569 338V337L568 336V335L567 334V333L566 332V331L565 330V329L564 328V326L563 325V324L562 323V322L561 321V320L560 319V318L559 317V316L558 315V314L557 313V312L556 311V310L555 309V308L554 307V306L553 305V304L552 303V301L551 300V299L550 298V297L549 296V295L548 294V293L547 292V291L546 290V289L545 288V287L544 286V285L543 284V283L542 282V281L541 280V279L540 278V276L539 275V274L538 273V272L537 271V270L536 269V268L535 267V266L534 265V264L533 263V262L532 261V260L531 259V258L530 257V256L529 255V254L528 253H527L526 252L525 253H524L520 257H519L513 263H512L507 268H506L500 274H499L494 279H493L488 284H487L483 288L480 285V284L478 282V281L475 278V277L472 274V273L470 271V270L467 267V266L464 263V262L461 259V258L459 256V255L456 252V251L453 248V247L451 245V244L445 238H444L441 235H440L438 233H437L435 231H434L433 230H432L430 228H429L428 227H427L426 226H425L424 225H423L422 224H421L420 223H419L418 222H417L416 221H415L414 220H413L412 219H410L409 218H408L407 217H405L404 216H402L401 215H399L398 214H396L395 213H393L392 212H389L388 211H385L384 210H380L379 209H374L373 208H367L366 207ZM238 127L237 128H226L225 129H218L217 130H211L210 131H206L205 132H201L200 133H197L196 134H193L192 135H189L188 136H186L185 137H182L181 138H179L178 139H176L175 140H174L173 141H171L170 142H168L167 143H166L165 144H164L163 145H161L160 146H159L158 147H157L156 148H155L154 149H153L152 150H151L150 151H149L148 152H147L146 153H145L144 154H143L142 155H141L139 157H138L137 158H136L134 160H133L132 161H131L129 163H128L126 165H125L122 168H121L119 170H118L114 174H113L108 179H107L86 200V201L81 206V207L78 210V211L75 214V215L73 217V218L71 220V221L69 223V224L67 226V227L66 228V229L64 231V232L63 233V234L62 235V236L61 237V238L59 240V241L58 242V244L57 245V246L56 247V248L55 249V250L54 251V252L53 253V255L52 256V257L51 258V260L50 261V263L49 264V266L48 267V269L47 270V273L46 274V276L45 277V280L44 281V285L43 286V290L42 291V296L41 297V306L40 307V329L41 330V339L42 340V345L43 346V350L44 351V355L45 356V359L46 360V362L47 363V366L48 367V369L49 370V372L50 373V375L51 376V377L52 378V380L53 381V382L54 383V384L55 385V387L56 388V389L57 390V391L58 392V393L59 394V395L60 396V397L61 398V399L62 400V401L64 403V404L65 405V406L67 408V409L68 410V411L70 413V414L72 416V417L74 419V420L77 423V424L80 427V428L84 432V433L89 438V439L113 463H114L120 469H121L126 474H127L130 477H131L134 480H135L138 483H139L141 485H142L144 487H145L147 489H148L150 491H151L153 493H154L156 495H157L159 497H160L161 498H162L164 500H165L166 501H167L169 503H170L171 504H172L173 505H174L175 506H176L178 508H179L180 509H181L182 510H183L184 511H185L186 512H187L188 513H189L190 514H191L192 515H193L194 516H195L196 517H197L198 518H199L200 519H201L202 520H204L205 521H206L207 522H208L209 523H210L211 524H213L214 525H215L216 526H217L218 527H220L221 528H222L223 529H225L226 530H227L228 531H230L231 532H233L234 533H235L236 534H238L239 535H241L242 536H244L245 537H247L248 538H249L250 539H252L253 540H256L257 541H259L260 542H262L263 543H265L266 544H269L270 545H272L273 546H276L277 547H279L280 548H283L284 549H287L288 550H291L292 551H295L296 552H300L301 553H304L305 554H309L310 555H314L315 556H319L320 557H324L325 558H330L331 559H336L337 560H342L343 561H349L350 562H357L358 563H366L367 564H376L377 565H388L389 566H406L407 567H458L459 566H476L477 565H488L489 564H498L499 563H506L507 562H514L515 561H521L522 560H528L529 559H534L535 558H539L540 557H545L546 556H550L551 555H555L556 554H559L560 553H564L565 552H568L569 551H572L573 550H576L577 549H580V548L577 545H576L568 537H567L558 528H557L549 520H548L540 512H539L530 503H529L521 495H520L516 491H513L512 492H508L507 493H504L503 494H499L498 495H494L493 496H488L487 497H481L480 498H474L473 499H464L463 500H450L449 501H415L414 500H400L399 499H391L390 498H383L382 497H377L376 496H371L370 495H365L364 494H361L360 493H356L355 492H352L351 491H348L347 490H344L343 489H340L339 488H337L336 487H333L332 486H330L329 485H327L326 484H324L323 483H321L320 482H318L317 481H316L315 480H313L312 479H311L310 478H308L307 477H306L305 476H303L302 475H301L300 474H299L298 473H297L296 472H294L293 471H292L291 470H290L289 469H288L287 468H286L285 467H284L283 466H282L280 464H279L278 463H277L276 462H275L274 461H273L271 459H270L269 458H268L266 456H265L263 454H262L260 452H259L257 450H256L254 448H253L250 445H249L246 442H245L241 438H240L233 431H232L220 419V418L213 411V410L209 406V405L206 402V401L204 399V398L202 396V395L200 393V392L199 391V390L197 388V387L196 386V385L195 384V383L194 382V381L192 379V377L191 376V375L190 374V373L189 372V371L188 370V368L187 367V366L186 365V363L185 362V360L184 359V357L183 356V354L182 353V350L181 349V345L180 344V340L179 339V333L178 332V302L179 301V296L180 295V291L181 290V287L182 286V283L183 282V280L184 279V277L185 276V274L186 273V272L187 271V269L188 268V267L189 266V265L190 264V263L191 262V261L192 260V259L193 258V257L194 256V255L196 253V252L197 251V250L199 248V247L201 245V244L204 241V240L208 236V235L225 218H226L230 214H231L234 211H235L237 209H238L240 207H241L243 205H244L246 203H247L248 202H249L250 201H251L252 200H253L254 199H255L256 198H257L258 197H259L260 196H261L262 195H264L265 194H266L267 193H269L270 192H271L272 191H274L275 190H277L278 189H281L282 188H285L286 187H289L290 186H294L295 185H299L300 184H307L308 183H340L341 184H348L349 185H354L355 186H359L360 187H364L365 188H367L368 189H371L372 190H374L375 191H377L378 192H380L381 193H383L384 194H385L386 195H388L389 196H390L391 197H392L393 198H394L395 199H396L397 200H399L401 202H402L403 203H404L405 204H406L407 205H408L410 207H411L412 208H413L415 210H416L418 212H419L421 214H422L425 217H426L430 221H431L437 227H438L441 230L439 228V227L437 225V224L434 221V220L431 217V216L426 211V210L420 204V203L403 186H402L396 180H395L391 176H390L387 173H386L383 170H382L380 168H379L377 166H376L374 164H373L371 162H370L368 160H367L366 159H365L363 157H362L361 156H360L359 155H358L357 154H356L355 153H354L353 152H352L351 151H350L349 150H348L347 149H346L345 148H344L343 147H342L341 146H339L338 145H337L336 144H335L334 143H332L331 142H329L328 141H327L326 140H324L323 139H321L320 138H318L317 137H314L313 136H311L310 135H307L306 134H303L302 133H299L298 132H294L293 131H289L288 130H282L281 129H274L273 128H262L261 127ZM407 48L406 49V52L407 53H415L416 54H422L423 55H429L430 56H436L437 57H443L444 58H449L450 59H455L456 60H461L462 61H466L467 62H471L472 63H477L478 64H482L483 65H487L488 66H492L493 67H496L497 68H501L502 69H505L506 70H510L511 71H514L515 72H518L519 73H523L524 74H527L528 75H531L532 76H535L536 77H538L539 78L538 79H535L534 78H530L529 79H525L524 78H521L520 77H517L516 76H513L512 75H508L507 74H504L503 73H499L498 72H494L493 71H489L488 70H484L483 69H479L478 68H474L473 67H469L468 66H463L462 65H457L456 64H451L450 63H445L444 62H439L438 61H432L431 60H425L424 59H417L416 58H415L414 59V60L413 61V62L414 63H416L417 64H424L425 65H429L430 66V69L429 70H427L426 69H420L419 68H413L412 67H405L404 66H398L397 67V71H404L405 72H412L413 73H419L420 74H424L425 75L424 76V80L425 81H433L434 82H441L442 83H448L449 84H455L456 85H461L462 86H467L468 87H473L474 88H479L480 89H484L485 90H489L490 91H494L495 92H499L500 93H504L505 94H509L510 95H513L514 96H516L517 97V98L516 99L515 98H511L510 97H506L505 96H501L500 95H495L494 94H490L489 93H484L483 92H478L477 91H472L471 90H465L464 89H458L457 88H450L449 87H442L441 86H433L432 85L431 86V90L430 91H427L426 90H418L417 91V94L418 95H426L427 96H435L436 97H443L444 98H450L451 99H457L458 100H464L465 101H470L471 102H476L477 103H482L483 104H487L488 105H493L494 106H498L499 107H503L504 108H508L509 109H512L513 110H517L518 111H522L523 112H526L527 113H530L531 114L530 115H526L525 114H522L521 113H517L516 112H512L511 111H507L506 110H501L500 109H496L495 108H490L489 107H484L483 106H478L477 105H472L471 104H465L464 103H458L457 102H450L449 101H442L441 100H433L432 99H424L423 98H413L412 97H400L399 96H398L397 97V101H399L400 102H411L412 103V108L413 109H422L423 110H432L433 111H441L442 112H449L450 113H456L457 114H463L464 115H469L470 116H475L476 117H481L482 118H487L488 119H492L493 120H497L498 121H502L503 122H507L508 123H512L513 124H516L517 125H520L521 126H525L526 127H529L530 128V129L529 130H527L526 129H523L522 128H518L517 127H514L513 126H509L508 125H504L503 124H499L498 123H494L493 122H488L487 121H482L481 120H476L475 119H469L468 118H462L461 117H455L454 116H447L446 115H438L437 114H428L427 113H417L416 112H403L402 111H389V115L390 116H402L403 117H416L417 118H428L429 119H438L439 120H446L447 121H454L455 122H462L463 123H469L470 124H475L476 125H481L482 126H487L488 127H493L494 128H498L499 129H503L504 130H508L509 131H513L514 132H517L518 133H522L523 134H526L527 135H530L531 136H534L535 137H538L539 138H542L543 139H545L546 140H549L550 141H552L553 142H556L557 143H559L560 144H562L563 145H565L566 146H568L569 147H571L572 148H574L575 149H577L578 150H580L581 151H582L583 152H585L586 153H588L589 154H590L591 155H592L593 156V158L592 159L591 158H589L588 157H587L586 156H584L583 155H581L580 154H579L578 153H576L575 152H573L572 151H570L569 150H568L567 149H565L564 148H562L561 147H558L557 146H555L554 145H552L551 144H549L548 143H545L544 142H542L541 141H538L537 140H534L533 139H530L529 138H526L525 137H522L521 136H518L517 135H513L512 134H509L508 133H504L503 132H499L498 131H494L493 130H488L487 129H482L481 128H476L475 127H469L468 126H462L461 125H454L453 124H446L445 123H436L435 122H423L422 121H417V122L416 123V124L415 125H412L411 124H398V125L397 126V128L398 129H411L412 130H429L430 131H441L442 132H452L453 133H460L461 134H468L469 135H475L476 136H482L483 137H488L489 138H494L495 139H499L500 140H504L505 141H509L510 142H514L515 143H518L519 144H522L523 145H527L528 146H531L532 147H534L535 148H538L539 149H542L543 150H545L546 151H549L550 152H552L553 153H555L556 154H558L559 155H561L562 156H564L565 157H567L568 158H570L571 159H572L573 160H575L576 161H578L579 162H580L581 163H582L583 164H585L586 165H587L588 166H590L591 167H592L593 168H594L595 169H596L597 170H598L599 171H600L601 172H602L603 173H604L605 174H606L607 175H608L609 176H610L611 177H612L613 178H614L615 179H616L619 182L618 183H616L615 182H614L612 180H611L610 179H609L608 178H607L606 177H604L603 176H602L601 175H600L599 174H598L597 173H596L595 172H594L593 171H591L590 170H589L588 169H586L585 168H584L583 167H582L581 166H579L578 165H576L575 164H574L573 163H571L570 162H568L567 161H565L564 160H562L561 159H559L558 158H556L555 157H553L552 156H550L549 155H546L545 154H543L542 153H539L538 152H536L535 151H532L531 150H528L527 149H524L523 148H520L519 147H515L514 146H511L510 145H506L505 144H501L500 143H496L495 142H490L489 141H484L483 140H478L477 139H471L470 138H464L463 137H456L455 136H446L445 135H431V139L430 140H418L417 139H413L412 140V144H416L417 145H433L434 146H445L446 147H455L456 148H463L464 149H471L472 150H478L479 151H484L485 152H490L491 153H496L497 154H501L502 155H507L508 156H511L512 157H516L517 158H520L521 159H525L526 160H529L530 161H533L534 162H537L538 163H540L541 164H544L545 165H547L548 166H551L552 167H554L555 168H557L558 169H560L561 170H563L564 171H566L567 172H569L570 173H572L573 174H575L576 175H577L578 176H580L581 177H582L583 178H585L586 179H587L588 180H589L590 181H592L593 182H594L595 183H596L597 184H598L599 185H600L601 186H602L603 187H604L605 188H606L607 189H608L610 191H611L612 192H613L615 194H616L617 195H618L620 197H621L623 199H624L627 202H628L631 205H632L636 209H637L655 227V228L659 232V233L662 236V237L664 239V240L666 242V243L667 244V245L669 247V248L670 249V250L671 251V252L672 253V254L673 255V256L674 257V258L675 259V261L676 262V263L677 264V266L678 267V269L679 270V272L680 273V275L681 276V279L682 280V283L683 284V288L684 289V294L685 295V303L686 304V328L685 329V336L684 337V342L683 343V347L682 348V351L681 352V354L680 355V358L679 359V361L678 362V363L677 364V366L676 367V369L675 370V371L674 372V373L673 374V375L672 376V377L671 378V379L670 380V381L669 382V383L668 384V385L667 386V387L666 388V389L664 391V392L662 394V395L660 397V398L658 400V401L655 404V405L652 408V409L647 414V415L640 422V423L641 424V426L642 427V429L643 430V431L644 432V434L645 435V437L646 438V439L647 440V442L648 443V445L649 446V447L650 448V450L651 451V453L652 454V455L653 456V458L654 459V461L655 462V464L656 465V466L657 467V469L658 470V472L659 473V474L660 475V477L661 478V480L662 481V482L663 483V485L664 486V488L665 489V490L666 491V493L667 494V496L668 497V498L669 499V501L670 502V504L671 505V507L672 508V509L673 510V512L674 513V514L675 513H676L677 512H678L679 511H680L681 510H682L683 509H684L685 508H686L687 507H688L690 505H691L692 504H693L694 503H695L697 501H698L699 500H700L701 499H702L704 497H705L707 495H708L709 494H710L712 492H713L715 490H716L718 488H719L721 486H722L725 483H726L728 481H729L732 478H733L737 474H738L742 470H743L748 465H749L759 455H760L767 448V447L777 437V436L781 432V431L785 427V426L788 423V422L791 419V418L793 416V415L795 413V412L796 411V410L798 408V407L800 405V404L801 403V402L802 401V400L803 399V398L804 397V396L806 394V393L807 392V390L808 389V388L809 387V386L810 385V384L811 383V381L812 380V379L813 378V376L814 375V374L815 373V371L816 370V368L817 367V364L818 363V361L819 360V357L820 356V353L821 352V348L822 347V342L823 341V334L824 333V302L823 301V294L822 293V288L821 287V283L820 282V279L819 278V275L818 274V272L817 271V268L816 267V265L815 264V262L814 261V260L813 259V257L812 256V254L811 253V252L810 251V250L809 249V247L808 246V245L807 244V243L806 242V241L805 240V239L804 238V237L802 235V234L801 233V232L800 231V230L798 228V227L797 226V225L795 223V222L793 220V219L791 217V216L788 213V212L786 210V209L782 205V204L777 199V198L751 172H750L745 167H744L740 163H739L735 159H734L731 156H730L728 154H727L724 151H723L721 149H720L718 147H717L715 145H714L712 143H711L709 141H708L707 140H706L704 138H703L702 137H701L699 135H698L697 134H696L694 132H693L692 131H691L690 130H689L688 129H687L685 127H684L683 126H682L681 125H680L679 124H678L677 123H676L675 122H674L673 121H672L671 120H670L669 119H668L667 118H666L665 117H664L663 116H662L661 115H660L659 114H658L657 113H655L654 112H653L652 111H651L650 110H649L648 109H646L645 108H644L643 107H642L641 106H639L638 105H637L636 104H635L634 103H632L631 102H630L629 101H627L626 100H624L623 99H622L621 98H619L618 97H617L616 96H614L613 95H611L610 94H608L607 93H606L605 92H603L602 91H600L599 90H597L596 89H594L593 88H591L590 87H588L587 86H585L584 85H581L580 84H578L577 83H575L574 82H572L571 81H568L567 80H565L564 79H561L560 78H558L557 77H554L553 76H551L550 75H547L546 74H543L542 73H540L539 72H536L535 71H532L531 70H528L527 69H524L523 68H519L518 67H515L514 66H511L510 65H506L505 64H502L501 63H497L496 62H493L492 61H488L487 60H483L482 59H478L477 58H472L471 57H467L466 56H461L460 55H456L455 54H450L449 53H444L443 52H437L436 51H430L429 50H423L422 49H415L414 48ZM534 116L535 115H536L537 116L536 117H535ZM530 115L531 114H534L535 115L534 116H531ZM542 80L543 79L544 80L543 81ZM538 79L539 78H542L543 79L542 80H539Z" fill="#ffffff" fill-opacity="1.000000" fill-rule="evenodd"/>
</svg></g></svg>