<svg xmlns="http://www.w3.org/2000/svg" width="40" height="40" viewBox="0 0 40 40"><circle cx="20" cy="20" r="20" fill="#dbe4ee"/><rect x="6" y="6" width="28" height="28" rx="7.9799999999999995" ry="7.9799999999999995" fill="#0f4c8d"/><g transform="translate(11.32, 12.530380890897355)"><svg width="17.36" height="14.939238218205292" viewBox="0 0 1549 1333" xmlns="http://www.w3.org/2000/svg"><path xmlns="http://www.w3.org/2000/svg" fill="#ffffff" fill-rule="evenodd" d="M1064.9 459.8s256.1 548.9 298 638.4c-140.9 143.7-352.3 234.5-588.2 234.5-427.1 0-774-298.1-774-665.6C.7 298.4 347.6.3 774.7.3s774.1 298.1 774.1 666.8c0 99-25.9 192.6-70.6 278.1l-244.1-513.8c-55.4-119.5-102.9-160-172-160-70.6 0-117.8 40.5-173.5 160l-74.5 167.9h187zm-5.4 273.9H751.6L581 1099.9h186.9l100.4-215.7h191.2z"/></svg></g></svg>