<svg xmlns="http://www.w3.org/2000/svg" width="40" height="40" viewBox="0 0 40 40"><circle cx="20" cy="20" r="20" fill="#e1ebef"/><rect x="6" y="6" width="28" height="28" rx="7.9799999999999995" ry="7.9799999999999995" fill="#3a7894"/><g transform="translate(11.32, 12.904224633056796)"><svg width="17.36" height="14.191550733886407" viewBox="0 0 1567 1281" xmlns="http://www.w3.org/2000/svg"><path xmlns="http://www.w3.org/2000/svg" fill="#ffffff" d="M674.5 0h690.4c62.6 3.1 122.9 35.5 160 86 27.7 37.2 43.1 83.7 41.9 130.2v194.2h-135.2V231.5c-.1-12.8.9-25.8-2.7-38.2-6.9-26.1-28.3-47.7-54.2-54.9-13.3-4-27.4-2.9-41-3H686c-30.5-.1-60.4 16.9-75.6 43.5-151.6 261.3-303.2 522.7-454.9 784-6.8 11.2-12.8 23.2-16 36-7.7 28.2-3.7 59.3 10.4 84.8 12.9 24.8 35.6 43.8 61.8 53.2 15.3 5.7 31.8 8 48.2 8.2h1279.2c.8 32.1-11.1 64.2-31.9 88.6-24.4 28.7-61.3 46.3-99 46.7-383.4 0-766.8 0-1150.2.1-65.8-1.1-131.9-25.4-180.2-70.7-47.2-44.2-75.1-107.7-77.8-172.2V1019c1.7-39.8 12.7-79.3 32.4-114.1 154-265.5 308.1-530.9 462.1-796.4C531.6 45.4 601.4 3.5 674.5 0m35.2 229.2c68.9-.2 137.7 0 206.5-.1v273.4c54.2-91.1 108.2-182.3 162.5-273.4h233.9q.1 407.5 0 815.1h-219.7V731.5c-64.4 104.3-129.1 208.4-193.5 312.7H702.7c0-104.3-.1-208.5 0-312.7-59.8 104.1-119.3 208.3-178.8 312.6-94.6.2-189.3 0-283.9 0C396.6 772.5 553.3 501 709.7 229.2"/></svg></g></svg>