<svg xmlns="http://www.w3.org/2000/svg" width="40" height="40" viewBox="0 0 40 40"><circle cx="20" cy="20" r="20" fill="#fdf3da"/><rect x="6" y="6" width="28" height="28" rx="7.9799999999999995" ry="7.9799999999999995" fill="#f2b207"/><g transform="translate(11.32, 14.487636363636364)"><svg width="17.36" height="11.024727272727272" viewBox="0 0 1540 978" xmlns="http://www.w3.org/2000/svg"><path xmlns="http://www.w3.org/2000/svg" fill="#ffffff" d="M80.8 197.2C36.1 197.2 0 161.1 0 116.4s36.1-80.9 80.8-80.9c44.6 0 80.7 36.2 80.7 80.9s-36.1 80.8-80.7 80.8m332.2-35c-44.7 0-80.8-36.2-80.8-80.9S368.3.5 413 .5s80.8 36.1 80.8 80.8-36.1 80.9-80.8 80.9m239.2 229.2c-44.7 0-80.8-36.1-80.8-80.9 0-44.7 36.1-80.8 80.8-80.8 44.6 0 80.7 36.1 80.7 80.8 0 44.8-36.1 80.9-80.7 80.9m304.9 175.5c-44.7 0-80.8-36.2-80.8-80.9s36.1-80.8 80.8-80.8 80.8 36.1 80.8 80.8-36.1 80.9-80.8 80.9m0 290.2c-44.7 0-80.8-36.1-80.8-80.8s36.1-80.8 80.8-80.8 80.8 36.1 80.8 80.8-36.1 80.8-80.8 80.8m336.7 120.4c-44.7 0-80.8-36.1-80.8-80.8s36.1-80.9 80.8-80.9c44.6 0 80.7 36.2 80.7 80.9s-36.1 80.8-80.7 80.8m165.3-279.8c-44.7 0-80.8-36.1-80.8-80.8s36.1-80.8 80.8-80.8c44.6 0 80.7 36.1 80.7 80.8s-36.1 80.8-80.7 80.8"/></svg></g></svg>