<svg xmlns="http://www.w3.org/2000/svg" width="40" height="40" viewBox="0 0 40 40"><circle cx="20" cy="20" r="20" fill="#e7e4ed"/><rect x="6" y="6" width="28" height="28" rx="7.9799999999999995" ry="7.9799999999999995" fill="#5E4884"/><g transform="translate(11.32, 15.833122420907841)"><svg width="17.36" height="8.333755158184319" viewBox="0 0 727 349" xmlns="http://www.w3.org/2000/svg"><path xmlns="http://www.w3.org/2000/svg" fill="#ffffff" fill-rule="evenodd" d="M469.1 327.7c-5.1-2.4-10.7-1.7-16.1-2.6-28.5-4.6-53.4-16.2-73.8-36.9-1.1-1.1-2.3-2.1-3.5-3-.5-.4-1.1-.6-1.7-.8-1.8 1.4-.6 2.7-.1 4 3.3 8.1 6.8 16.1 10.1 24.2.8 2 2.3 3.8 1.6 6.2-1.9 1.6-4.2 1-6.3 1-25.8.1-51.7-.1-77.5.2-4.9 0-7.3-1.7-9.3-6.1q-40.35-91.35-81-182.4c-1.1-2.6-1.8-5.4-4-7.4-3.3 3.8-44.7 97.9-47.3 107.4 2 2.4 4.8 1.5 7.3 1.5 17 .1 34.1.1 51.2.2 2.3 0 4.7-.3 6.9.5.6 2.5-.7 4.1-1.5 5.9-10.7 24.6-21.7 49.2-32.2 74-2.1 4.8-4.6 6.4-9.8 6.4-49-.2-98.1-.1-147.1-.2-2.1 0-4.4.5-6.4-.7.9-4.9 130.4-299.9 136.3-310.3h84.3q47.7 105.7 95.6 211.9c2.6-1.6 1.7-3.2 1.6-4.6-1.6-23.4-3.8-46.7-2.9-70.2.8-21.5 4-42.7 10.8-63.2 11.4-34.2 33.8-58.5 67.5-71.6C460.7-4 500.2-3.6 539 11.7c34.1 13.4 56.4 38.3 67.5 73.1 2.2 6.9 4 13.9 6.1 20.8.5 1.6.2 3.5 2.9 5.4 0-11.8.1-22.9.1-33.9V43.6c0-11.1-.1-22.2 0-33.6h80.8c2.2 2.2 1.6 4.7 1.6 7.1v297.6c0 2.2.4 4.4-1.2 6.8h-79.9c-.6-16.6-.3-33.3-.7-50.1-.5-16.8-.7-33.6-2.1-50.6-.6 2.2-1.2 4.4-1.7 6.7-10.2 47.9-39.8 78.1-85.7 93.1-9.3 3.1-19.1 4.8-28.9 5.6-2.2.1-4.4.2-6.3 1.5zm-35.7-163c0 5-.3 10.1 0 15.1.8 11.8 2.4 23.5 6.7 34.6 2.4 6.5 6.2 12.1 12.1 15.9 13.7 8.8 28.5 11.1 44 6.2 15.5-5 23.6-16.8 27-32 5.2-23.2 5.1-46.5 2.1-69.9-1-7.8-2.8-15.5-5.8-22.8-3.6-8.5-9.6-14.6-17.9-18.3-15-6.5-29.9-5.3-44.6 1.1-7.1 3.1-12.2 8.4-15.5 15.3-1.9 4-3.3 8.1-4.3 12.4-3.2 14-4.2 28.1-3.8 42.4M0 333.2h726.7v15.4H0z"/></svg></g></svg>