<svg xmlns="http://www.w3.org/2000/svg" width="40" height="40" viewBox="0 0 40 40"><circle cx="20" cy="20" r="20" fill="#f9dfe2"/><rect x="6" y="6" width="28" height="28" rx="7.9799999999999995" ry="7.9799999999999995" fill="#d7283f"/><g transform="translate(11.32, 12.969871134020618)"><svg width="17.36" height="14.060257731958762" viewBox="0 0 1552 1257" xmlns="http://www.w3.org/2000/svg">
	<title xmlns="http://www.w3.org/2000/svg">STLD</title>
	
	<path xmlns="http://www.w3.org/2000/svg" id="path1" fill-rule="evenodd" class="s0" d="m180.7 841.1l36.1 35.4c44.4 43.7 112.9 55.1 178.9-12.3 60.3-61.3 56.8-130.1-7.9-193.7-40.9-40.2-73.3-52.3-107.3-51.9-33.8 0.3-68.9 12.7-115 21.6-25.1 4.2-45.1 3.8-63.3-18.2-13.1-16.5-13.4-34.1 2.8-47.8 25.4-22.4 51.6 4.8 72.2 23.4l66.8-67.8c-60.2-65.7-138.4-78.1-201-14.1-56.1 57.1-58.5 124.5 5.2 186.8 29.6 29.2 58.1 41.6 88.4 45.1 30.6 2.7 62.3-3.5 98.4-12.4 31.7-6.9 63.7-18.3 92.3 9.6 17.2 16.9 26.1 40.6 9.3 57.8-22.8 23.7-45.8 12.7-65.1-6.2l-23.7-23.7z" fill="#ffffff"/>
	<path xmlns="http://www.w3.org/2000/svg" id="path2" class="s0" d="m592.2 647.5c22.1-22.8 43.1-48.2 48.2-80.9 6.6-35.4-8.6-69.5-42-102.8l-150-147.3c-32.4-32-69.5-59.5-115.6-48.8-38.2 9.3-70.6 40.9-97.1 67.4l-78.4 80.2 337.6 331.6zm-301.8-246.3c36.1-35.1 50.2-45.1 90.1-6.6l110.5 108.4c46.1 42.6 67.4 64.3 15.5 110.4z" fill="#ffffff"/>
	<path xmlns="http://www.w3.org/2000/svg" id="path3" class="s0" d="m708.9 528.4l-337.6-331.2 72.3-74 337.6 331.6z" fill="#ffffff"/>
	<path xmlns="http://www.w3.org/2000/svg" id="path4" class="s1" d="m522.4 0.4h405.4l623.5 616.1-620.8 640.5h-408.1l623.9-629.8z" fill="#ffffff"/>
</svg></g></svg>