<?xml version="1.0" encoding="UTF-8"?>
<svg xmlns="http://www.w3.org/2000/svg" xmlns:xlink="http://www.w3.org/1999/xlink" width="256px" height="256px" viewBox="0 0 256 256" version="1.1">
<g id="surface1">
<path style=" stroke:none;fill-rule:nonzero;fill:rgb(100%,80.784315%,24.705882%);fill-opacity:1;" d="M 114.300781 239.898438 C 88.398438 236.601562 65.898438 225 47.398438 205.800781 C 33.699219 191.5 24.300781 174.898438 19.199219 156.199219 C 16.898438 147.398438 16.601562 144.800781 16.601562 128 C 16.601562 111.101562 16.898438 108.601562 19.300781 99.5 C 22.898438 86 32.101562 67.800781 40.601562 57.199219 C 55.898438 38 75.601562 25.5 101 18.800781 C 110.800781 16.199219 134.800781 15.199219 145.800781 17 C 183.5 23.101562 217.601562 50 232.101562 85.300781 C 238.800781 101.5 241.5 120 239.898438 137.898438 C 237.601562 164.898438 226.699219 188.101562 207.5 207.398438 C 182.601562 232.5 148.398438 244.398438 114.300781 239.898438 Z M 144.699219 216.101562 C 161.699219 212.601562 180.898438 201.5 193.101562 188.199219 C 203 177.398438 212.101562 161.199219 215.601562 148.5 C 223.300781 120 211.5 82.398438 188 60.699219 C 176.398438 49.898438 156.199219 39.5 144.601562 38.398438 C 141.800781 38.101562 138.800781 37.601562 138 37.300781 C 134.5 36.101562 112.101562 36.898438 105.5 38.5 C 97 40.398438 79.601562 48.699219 75.101562 52.898438 C 73.300781 54.601562 71.5 56 71.199219 56 C 70 56 58 68.398438 58 69.601562 C 58 70.300781 57.300781 71 56.5 71.398438 C 55.699219 71.699219 55 72.5 55 73.199219 C 55 73.898438 54.101562 75.101562 53 75.800781 C 51.898438 76.5 51 77.898438 51 78.898438 C 51 79.898438 50.398438 81 49.601562 81.300781 C 48.898438 81.601562 48 83.199219 47.699219 84.800781 C 47.398438 86.398438 46.5 88.398438 45.699219 89.101562 C 44.898438 89.898438 44.101562 91.699219 43.699219 93 C 43.398438 94.398438 41.898438 99.300781 40.5 104 C 37.300781 114.300781 36.101562 130.199219 37.898438 140.601562 C 40.199219 154.199219 45.5 169.101562 49.601562 173.5 C 50.800781 174.898438 52.199219 176.898438 52.601562 178.199219 C 53.601562 181.398438 69.300781 196.800781 76.5 201.699219 C 97.800781 216 121.101562 221 144.699219 216.101562 Z M 144.699219 216.101562 "/>
<path style=" stroke:none;fill-rule:nonzero;fill:rgb(100%,80.784315%,24.705882%);fill-opacity:1;" d="M 151 115.5 C 151 112.199219 151.199219 112 154.5 112 C 157.800781 112 158 112.199219 158 115.5 C 158 118.800781 157.800781 119 154.5 119 C 151.199219 119 151 118.800781 151 115.5 Z M 151 115.5 "/>
<path style=" stroke:none;fill-rule:nonzero;fill:rgb(98.039216%,73.333335%,12.156863%);fill-opacity:1;" d="M 107.5 219.300781 C 91.898438 216 77.800781 208.898438 65.101562 198 C 57.300781 191.199219 47.699219 180.300781 48.5 178.898438 C 48.800781 178.5 48.398438 178 47.699219 177.699219 C 45.898438 177 38.699219 163.199219 39.5 162 C 39.800781 161.398438 39.601562 161 39 161 C 38.300781 161 38 160.300781 38.398438 159.5 C 38.699219 158.699219 38.5 158 37.898438 158 C 37.300781 158 37 157.300781 37.398438 156.5 C 37.699219 155.699219 37.5 155 36.898438 155 C 36.300781 155 36 154.300781 36.398438 153.5 C 36.699219 152.699219 36.5 152 35.898438 152 C 35.199219 152 35 151 35.398438 149.5 C 35.800781 148 35.601562 147 34.898438 147 C 34.199219 147 34.101562 145.898438 34.5 144 C 34.898438 142.398438 34.800781 141 34.300781 141 C 33.898438 141 33.5 134.898438 33.5 127.5 C 33.5 120.101562 33.800781 114 34.199219 114 C 34.601562 114 34.699219 112.699219 34.398438 111 C 34 109.199219 34.199219 108 34.800781 108 C 35.300781 108 35.601562 107.101562 35.300781 106 C 35 104.898438 35.199219 104 35.800781 104 C 36.398438 104 36.601562 103.101562 36.300781 102 C 36 100.898438 36.300781 100 36.898438 100 C 37.398438 100 37.699219 99.300781 37.398438 98.5 C 37 97.699219 37.300781 97 37.898438 97 C 38.5 97 38.699219 96.300781 38.398438 95.5 C 38 94.699219 38.300781 94 39 94 C 39.601562 94 39.800781 93.601562 39.5 93 C 39.199219 92.5 39.300781 92 39.898438 92 C 40.5 92 40.699219 91.398438 40.398438 90.601562 C 40.101562 89.898438 40.601562 88.601562 41.398438 87.699219 C 42.199219 86.898438 42.601562 86 42.300781 85.601562 C 41.898438 85.300781 42.199219 85 42.898438 85 C 43.601562 85 43.800781 84.601562 43.5 84 C 43.199219 83.5 43.398438 83 44 83 C 44.601562 83 44.898438 82.601562 44.5 82 C 44.199219 81.5 44.699219 80.199219 45.699219 79.199219 C 46.699219 78.199219 47.601562 76.699219 47.800781 75.898438 C 48 75.101562 49 73.699219 50.199219 72.800781 C 51.300781 71.800781 51.800781 71 51.398438 71 C 50.898438 70.898438 51.601562 70 52.898438 69 C 54.199219 67.898438 54.800781 67 54.398438 67 C 53.898438 67 56.699219 63.898438 60.5 60 C 64.300781 56.199219 67.699219 53 68.101562 53 C 68.5 53 70.300781 51.601562 72.101562 49.898438 C 81 41.601562 108.398438 32.101562 119.398438 33.5 C 122.898438 33.898438 124.5 33.699219 125.101562 32.800781 C 125.800781 31.800781 126.398438 31.800781 127.800781 32.699219 C 128.898438 33.398438 131.5 33.601562 133.800781 33.300781 C 136.101562 33 138.699219 33.101562 139.699219 33.5 C 140.699219 34 142.101562 34.199219 142.800781 34.101562 C 145 33.699219 158.800781 37.898438 165.5 40.898438 C 189.898438 52 207.300781 71.601562 216.300781 98 C 220.101562 109.101562 221.300781 119.101562 220.699219 133.199219 C 220.199219 147.300781 218.5 154.199219 213 165.699219 C 199.800781 193.398438 175.398438 213.300781 147.699219 219.101562 C 136.5 221.398438 117.699219 221.5 107.5 219.300781 Z M 97.300781 141.398438 L 96.699219 109.898438 L 100.601562 110.199219 C 104.398438 110.5 104.699219 110.800781 116 127.199219 C 122.300781 136.398438 127.800781 143.898438 128.101562 144 C 128.398438 144 133.699219 136.601562 139.898438 127.5 C 150.699219 111.5 151.199219 111 154.601562 111 L 158 111 L 158 173 L 173 173 L 173 83 L 158.101562 83 L 144.800781 102 C 131.800781 120.5 131.398438 120.898438 127.898438 121 C 124.398438 121 124.199219 120.800781 111.5 102 L 98.601562 83 L 83 83 L 83 173 L 98 173 Z M 97.300781 141.398438 "/>
<path style=" stroke:none;fill-rule:nonzero;fill:rgb(89.803922%,63.529414%,11.372549%);fill-opacity:1;" d="M 47.800781 177.300781 C 43.101562 170.199219 42.300781 168.5 39.5 161 C 35.699219 150.300781 34 140.398438 34 128.199219 C 34 100.800781 44.398438 77.300781 65 57.601562 C 72.699219 50.300781 75.898438 48.101562 85.398438 43.5 C 114.5 29.199219 147.300781 30.398438 175.199219 46.699219 C 183.5 51.5 183.398438 52.699219 175.101562 48.5 C 159.699219 40.800781 150 38.199219 133.5 37.300781 C 91.898438 35.199219 56.398438 59.699219 41.699219 100.5 C 38 110.898438 36.699219 121.101562 37.300781 134.699219 C 37.898438 149 40.398438 159.101562 46.5 171.800781 C 48.898438 176.800781 50.800781 181 50.601562 181 C 50.398438 181 49.199219 179.300781 47.800781 177.300781 Z M 47.800781 177.300781 "/>
<path style=" stroke:none;fill-rule:nonzero;fill:rgb(0%,0%,0%);fill-opacity:1;" d="M 80 128 L 80 80 L 101.601562 80 L 114.5 99 C 121.601562 109.5 127.601562 118 127.898438 118 C 128.199219 117.898438 134.5 109.398438 141.800781 99 L 155.101562 80 L 176 80 L 176 176 L 155 176 L 154.800781 144.800781 L 154.5 113.5 L 141.699219 132.300781 C 134.601562 142.601562 128.398438 151 128 150.800781 C 127.5 150.601562 121.398438 142.300781 114.5 132.300781 C 107.601562 122.300781 101.5 113.800781 100.800781 113.398438 C 100 112.898438 99.898438 120.898438 100.398438 144.300781 L 101.199219 176 L 80 176 Z M 80 128 "/>
</g>
</svg>