<svg xmlns="http://www.w3.org/2000/svg" width="40" height="40" viewBox="0 0 40 40"><circle cx="20" cy="20" r="20" fill="#e1e6ef"/><rect x="6" y="6" width="28" height="28" rx="7.9799999999999995" ry="7.9799999999999995" fill="#3a5896"/><g transform="translate(11.32, 13.81646017699115)"><svg width="17.36" height="12.367079646017698" viewBox="0 0 1582 1127" xmlns="http://www.w3.org/2000/svg"><g xmlns="http://www.w3.org/2000/svg" fill="#ffffff"><path d="M3 51.7C9.8 22.8 37.4 1.2 67.1 1.4c75.1-.3 150.3 0 225.4-.2 20-.9 40.2 6.6 54 21.2 13 13.2 17 32 22.6 49 99.2 303 198.6 605.9 297.7 908.9 23.2-69.5 45.5-139.2 68.7-208.6 15.8 47.1 31.1 94.4 46.5 141.7-15.9 57.3-36.9 113.2-54.4 170-7.3 24.3-30.8 43.7-56.6 43.2-93.8 0-187.6.1-281.4-.1-28.2-.3-54-21-61.4-48-104.4-318.3-208.6-636.6-313-954.9C8 100.4-4.1 76.4 3 51.7m977.9-29.5c2.6-8.9 7.5-18.9 17.8-20.4 19.6-.9 39.4-1.3 59.1.3 14 2.4 19 19.2 13.7 31.1-34.3 104.9-68.3 209.9-103.3 314.7-15.8-47.9-31.6-95.7-47.2-143.6 20.4-60.6 40-121.4 59.9-182.1"/><path d="M511.3 51.5c6.9-29.8 36.6-51.3 67-50.2 75.1-.1 150.3 0 225.5-.1 20.8-.2 42.1 9 54.8 25.8 10.7 13.8 14 31.3 19.6 47.4 14.5 43.2 28.2 86.7 42.8 129.9 15.6 47.9 31.4 95.7 47.2 143.6 68.4 210.9 138 421.4 206.9 632.3 105.1-319.6 209.6-639.4 314.4-959.2 2.2-9.6 9.2-19.3 20-19.4 18.3-.6 36.8-.9 55.1.2 15.2 1.7 21.4 20.2 14.8 32.7-114.9 350.5-229.7 701-344.6 1051.4-7.6 24.5-32.6 41.7-58.2 40.8-92-.2-184.1-.1-276.1-.1-28.4.9-55.3-19.5-63.5-46.3-18.5-55.6-36.1-111.5-55-166.9-15.4-47.3-30.7-94.6-46.5-141.7-69.9-215.8-141.3-431.1-211.6-646.8-7.5-23.6-19.4-48.1-12.6-73.4"/></g></svg></g></svg>