<svg xmlns="http://www.w3.org/2000/svg" width="40" height="40" viewBox="0 0 40 40"><circle cx="20" cy="20" r="20" fill="#E9D4FC"/><rect x="6" y="6" width="28" height="28" rx="7.9799999999999995" ry="7.9799999999999995" fill="#450E78"/><g transform="translate(11.32, 11.32)"><svg width="17.36" height="17.36" viewBox="0 0 24 24" xmlns="http://www.w3.org/2000/svg">
<g xmlns="http://www.w3.org/2000/svg" clip-path="url(#clip0_1693_459)">
<path d="M-0.00152588 10.4303V9.54026H1.09081V10.4303H-0.00152588ZM-0.00152588 14.4355V10.8187H1.09081V14.4355H-0.00152588ZM19.4987 12.9144H17.0389C17.0874 13.2947 17.3625 13.594 17.9047 13.594C18.2364 13.6021 18.552 13.4727 18.7785 13.2299L19.4339 13.9177C19.0941 14.3061 18.5601 14.5407 17.9047 14.5407C16.6505 14.5407 15.9061 13.8044 15.9061 12.6069C15.9061 11.5065 16.6181 10.7054 17.7509 10.7054C18.8837 10.7054 19.5391 11.4094 19.5391 12.4532C19.5472 12.6069 19.531 12.7606 19.4987 12.9144ZM18.4468 12.2185C18.4225 11.8463 18.1798 11.5793 17.759 11.5793C17.3383 11.5793 17.0955 11.8463 17.0389 12.2185H18.4468ZM21.3678 14.5245C20.8256 14.5245 20.1621 14.3789 19.6767 13.9015L20.2997 13.2137C20.591 13.4888 20.9713 13.6426 21.3678 13.6507C21.7481 13.6507 21.918 13.5455 21.918 13.3918C21.918 13.2704 21.8371 13.2057 21.6267 13.1409C21.4406 13.0843 21.1574 13.0357 20.9146 12.9629C20.3887 12.8092 19.8628 12.5826 19.8628 11.822C19.8628 11.1181 20.4211 10.6892 21.3597 10.6892C21.8775 10.6892 22.4601 10.7944 22.9537 11.2394L22.3225 11.911C22.0474 11.6359 21.659 11.5388 21.3516 11.5388C21.0684 11.5388 20.9146 11.644 20.9146 11.7816C20.9146 11.8949 20.9956 11.9677 21.214 12.0405C21.4001 12.0971 21.7076 12.1619 21.9422 12.2266C22.4439 12.3722 22.9698 12.5907 22.9698 13.3108C22.9698 14.1362 22.2983 14.5245 21.3678 14.5245ZM4.48918 10.9563C4.21407 10.6245 3.80141 10.4465 3.37257 10.4546C2.91136 10.4546 2.66862 10.6245 2.66862 10.8672C2.66862 11.1909 3.03273 11.3042 3.73668 11.5065C4.50536 11.7249 5.37923 11.9758 5.37923 13.0115C5.37923 14.0472 4.52964 14.5245 3.46967 14.5245C2.57153 14.5245 1.8433 14.2656 1.36591 13.6102L2.18314 12.9225C2.4987 13.3513 2.968 13.5212 3.45349 13.5212C4.02797 13.5212 4.23835 13.3189 4.23835 13.1005C4.23835 12.7768 3.9066 12.704 3.09747 12.4693C2.27215 12.2347 1.55202 11.911 1.55202 10.9077C1.55202 10.0338 2.25596 9.45935 3.41303 9.45935C4.14125 9.45935 4.81283 9.65354 5.29832 10.2766L4.48918 10.9563ZM15.5015 10.7459C15.7119 10.7378 15.9142 10.8268 16.0517 10.9805L15.6148 11.9272C15.5096 11.8463 15.3721 11.7978 15.2345 11.8058C14.9513 11.8058 14.7167 12.0486 14.7167 12.5017V14.4355H13.6081V10.8187H14.6924V11.3204C14.8866 10.9724 15.1374 10.7459 15.5015 10.7459ZM9.10935 11.9919V14.4274H8.01701V12.3884C8.01701 12 7.81473 11.7573 7.44253 11.7573C7.07032 11.7573 6.82758 11.9919 6.82758 12.4046V14.4355H5.74334V9.54026H6.83567V11.2961C7.0946 10.9401 7.49917 10.7297 7.92801 10.7378C8.59959 10.7459 9.10935 11.1909 9.10935 11.9919ZM13.2521 13.594V14.3627C13.0498 14.4436 12.8314 14.4841 12.6129 14.4841C12.3135 14.4841 12.0061 14.387 11.8685 14.031C11.6339 14.3061 11.1888 14.5084 10.6872 14.5084C9.95894 14.5084 9.48155 14.1281 9.48155 13.3998C9.48155 12.6878 10.0479 12.2671 10.9137 12.2671C11.205 12.2671 11.4882 12.3075 11.7714 12.3722V12.2509C11.7714 11.8463 11.5448 11.6036 11.0675 11.6036C10.7438 11.6117 10.4363 11.7411 10.2017 11.9596L9.60292 11.2637C9.95894 10.932 10.5415 10.6892 11.2131 10.6892C12.2407 10.6892 12.8637 11.199 12.8637 12.1457V13.416C12.8637 13.5536 12.9285 13.6183 13.0741 13.6183C13.1308 13.6183 13.1955 13.6102 13.2521 13.594ZM11.7714 12.971C11.5691 12.9225 11.3668 12.8901 11.1565 12.8901C10.7762 12.8901 10.5901 13.0762 10.5901 13.3351C10.5901 13.5779 10.7519 13.7559 11.0917 13.7559C11.4477 13.7559 11.7633 13.5374 11.7633 13.2057V12.971H11.7714ZM23.9974 14.1119C24.0055 14.209 23.9651 14.3061 23.9004 14.3789C23.8275 14.4517 23.7385 14.4841 23.6414 14.476C23.4149 14.476 23.2854 14.3303 23.2854 14.1119C23.2854 13.8934 23.4149 13.7478 23.6414 13.7478C23.7385 13.7397 23.8356 13.772 23.9004 13.8449C23.9651 13.9177 23.9974 14.0148 23.9974 14.1119ZM23.9327 14.1119C23.9408 13.9986 23.8923 13.8853 23.7952 13.8206C23.6981 13.7559 23.5767 13.7559 23.4796 13.8206C23.3825 13.8853 23.3259 13.9905 23.342 14.1119C23.342 14.3142 23.4634 14.4274 23.6414 14.4274C23.8194 14.4274 23.9327 14.3142 23.9327 14.1119ZM23.7062 14.1523L23.7709 14.2818H23.7062L23.6414 14.1604H23.5605V14.2818H23.4958V13.9258H23.6414C23.7304 13.9258 23.7709 13.9743 23.7709 14.0391C23.779 14.0876 23.7547 14.1362 23.7062 14.1523ZM23.7143 14.0472C23.7143 14.0067 23.69 13.9824 23.6495 13.9824H23.5686V14.1119H23.6414C23.6819 14.1038 23.7143 14.0876 23.7143 14.0472Z" fill="#ffffff"/>
</g>
<defs xmlns="http://www.w3.org/2000/svg">
<clipPath id="clip0_1693_459">
<rect width="24" height="24" fill="#ffffff"/>
</clipPath>
</defs>
</svg></g></svg>