<svg xmlns="http://www.w3.org/2000/svg" width="40" height="40" viewBox="0 0 40 40"><circle cx="20" cy="20" r="20" fill="#d9e7f5"/><rect x="6" y="6" width="28" height="28" rx="7.9799999999999995" ry="7.9799999999999995" fill="#005cb9"/><g transform="translate(11.32, 18.350580808080807)"><svg width="17.36" height="3.2988383838383837" viewBox="0 0 1584 301" xmlns="http://www.w3.org/2000/svg"><g xmlns="http://www.w3.org/2000/svg" fill="#ffffff" fill-rule="evenodd"><path d="M51.9 234.1H0L83.7 0H140l83.1 234.1h-53.5l-15.1-48.5H68zm29-88.6h59.7L112.2 53h-.6zM502 234.1h-46.3V128.8c0-25.7-11.7-34-25.1-34-22.9 0-31.3 15-31.3 35.6v103.7h-46.2V129.3c0-14.5 0-35.1-27.9-35.1-21.8 0-28.5 15.1-28.5 34v105.9H251V60.2h44v25.6h.6c6.1-11.1 19-30.1 49.6-30.1 25.1 0 36.9 9 48.6 27.9 6.1-8.4 18.9-27.9 46.8-27.9 34.6 0 61.4 20.1 61.4 58zm88.1-148.8h.6c8.3-14 21.1-29.6 51.3-29.6 37.9 0 71.4 29.6 71.4 89.2 0 47.4-21.2 93.1-72.5 93.1-31.8 0-43-17.3-48.6-26.7h-.5V301h-45.2V60.2h43.5zm39.6 115.4c29 0 37.4-31.8 37.4-52.4 0-27.3-9.5-53-38.5-53-31.3 0-38.5 27.9-38.5 55.8 0 25.6 11.2 49.6 39.6 49.6m273.8 33.4h-45.7V128.8c0-12.8-.5-34-29.5-34-20.1 0-35.7 13.9-35.7 40.1v99.2h-45.2V0h45.2v83.1h.5c5.6-14.5 25.1-27.3 50.2-27.3 34 0 60.2 20 60.2 57.9zm193-54c-12.2 40.6-47.4 54-77.5 54-49.6 0-87.6-22.8-87.6-92.5 0-20.6 7.3-85.8 84.3-85.8 34.5 0 83.1 16.1 83.1 93v7.8H977.7c1.1 12.9 3.9 41.3 41.3 41.3 12.8 0 26.2-6.1 29.6-18.4h47.9zm-45.7-51.8c-2.8-27.3-20.6-35.7-35.7-35.7-21.8 0-33.5 13.4-36.3 35.7zM1294 234.2h-45.2V128.8c0-12.8-.5-34-29.5-34-20.1 0-35.7 14-35.7 40.2v99.2h-45.7V60.3h43.5v25.6h.5c6.2-10.6 19-30.1 51.9-30.1 34 0 60.2 20.1 60.2 58zm122.7 0c-46.8 0-89.2-27.9-89.2-89.2s42.4-89.2 89.2-89.2c46.9 0 89.3 27.9 89.3 89.2s-42.4 89.2-89.3 89.2m0-141.1c-35.1 0-41.8 30.1-41.8 51.9 0 21.7 6.7 51.8 41.8 51.8 35.7 0 41.9-30.1 41.9-51.8 0-21.8-6.2-51.9-41.9-51.9m122.7-93h44.7v234.1h-44.7z"/></g></svg></g></svg>