<svg xmlns="http://www.w3.org/2000/svg" width="40" height="40" viewBox="0 0 40 40"><circle cx="20" cy="20" r="20" fill="#D5E5CF"/><rect x="6" y="6" width="28" height="28" rx="7.9799999999999995" ry="7.9799999999999995" fill="#004830"/><g transform="translate(11.32, 11.32)"><svg width="17.36" height="17.36" viewBox="0 0 54 54" xmlns="http://www.w3.org/2000/svg">
<path xmlns="http://www.w3.org/2000/svg" d="M0 0V54H54V0H0ZM53.25 53.25H0.75V0.75H53.25V53.25ZM13.87 26.34H40.12V27.66H13.87V26.34ZM23.76 22.4H19.76L24.54 6.79H29.43V6.88L34.24 22.4H30.24L29.41 19.4H24.59L23.76 22.4ZM25.48 16.2H28.48L27 10.73L25.48 16.2ZM41.41 6.79V10.07H43.92V43.93H41.41V47.21H47.2V6.79H41.41ZM6.8 6.79V47.21H12.59V43.93H10.08V10.07H12.59V6.79H6.8ZM33 34.94V36.27C33.0034 36.8853 32.8116 37.4859 32.4523 37.9854C32.0929 38.4849 31.5845 38.8576 31 39.05C31.5853 39.2411 32.0946 39.6134 32.4542 40.1132C32.8138 40.613 33.0049 41.2143 33 41.83V43.34C33 45.53 31.71 47.21 28.61 47.21H21.27V31.6H29.12C31.59 31.6 33 32.89 33 34.94ZM24.76 37.94H28.15C28.3384 37.958 28.5284 37.9346 28.7068 37.8716C28.8852 37.8085 29.0477 37.7072 29.1829 37.5749C29.3181 37.4425 29.4228 37.2822 29.4897 37.1052C29.5565 36.9282 29.584 36.7387 29.57 36.55V35.66C29.57 34.61 28.75 34.4 27.66 34.4H24.76V37.94ZM29.57 42.32C29.584 42.1313 29.5565 41.9418 29.4897 41.7648C29.4228 41.5878 29.3181 41.4275 29.1829 41.2951C29.0477 41.1628 28.8852 41.0615 28.7068 40.9984C28.5284 40.9354 28.3384 40.912 28.15 40.93H24.76V44.48H27.66C28.75 44.48 29.57 44.27 29.57 43.22V42.32Z" fill="#ffffff"/>
</svg></g></svg>