<svg xmlns="http://www.w3.org/2000/svg" width="40" height="40" viewBox="0 0 40 40"><circle cx="20" cy="20" r="20" fill="#d9e6ec"/><rect x="6" y="6" width="28" height="28" rx="7.9799999999999995" ry="7.9799999999999995" fill="#015983"/><g transform="translate(11.32, 14.987131782945736)"><svg width="17.36" height="10.025736434108527" viewBox="0 0 1548 894" xmlns="http://www.w3.org/2000/svg"><path xmlns="http://www.w3.org/2000/svg" class="a" d="m1547.9 0.8h-395.3l-169.4 313.2q-10.3 20.3-19.8 40.6-10 20.2-18.8 40.5-9.5 19.9-17.5 40.9-8.8 20.3-16.9 41.3h4.6c-1.5-63.1-3.8-122-7.2-159.1l-21.1-317.4h-312.7l-573.7 892.3h348.2c0 0 208.7-316.3 248.9-377.9 40.5-61.2 46.2-77.6 62.3-104.8h2.3c1.5 82.2-3.1 162.9-3.1 226l-5.7 256.7h314.2l151.8-281.9q13.7-24.9 26.3-50.9 13-24.8 25.3-50.8 11.8-25.7 23.3-51.7 11.1-25.6 22.5-52.4h1.6c-5 55.1-10.4 122-12.3 167.9l-11.8 319.8h324.9z" fill="#ffffff"/></svg></g></svg>