<svg xmlns="http://www.w3.org/2000/svg" width="40" height="40" viewBox="0 0 40 40"><circle cx="20" cy="20" r="20" fill="#d9f0fa"/><rect x="6" y="6" width="28" height="28" rx="7.9799999999999995" ry="7.9799999999999995" fill="#009add"/><g transform="translate(11.32, 11.336745980707395)"><svg width="17.36" height="17.32650803858521" viewBox="0 0 1555 1552" xmlns="http://www.w3.org/2000/svg"><path xmlns="http://www.w3.org/2000/svg" fill="#ffffff" d="M302.9 52.5 538.7 288c88.9 88.6 88.9 232.1 0 320.7l-88.9 88.9-69.9 69.9c-6.8 6.5-17 6.5-23.5 0-4.4-4.8-5.8-10.6-4.4-16.4 24.2-109.4-41.6-190.5-56.9-207.5L52.9 302c-69.2-69.2-69.2-180.7 0-249.5 69.1-68.8 180.9-68.8 250 0m949.9 1447.3-236.1-235.4c-88.6-88.3-88.6-232.1 0-320.7l89.3-89 69.5-69.5c6.8-6.5 17-6.5 23.5 0 4.7 4.4 5.8 10.6 4.4 16-24.2 109.8 41.6 190.5 57.2 207.9l241.9 241.6c69.2 68.9 69.2 180.3 0 249.1-69.1 68.9-180.9 68.9-249.7 0M52.2 1251.4 1253.8 52.8c35.1-34.7 81.1-51.8 126.8-51.4 44.6.7 88.9 17.7 122.6 51.4 34.1 34.1 51.1 79.4 51.5 124.1 0 45.3-17.1 90.6-51.5 124.7L301.6 1500.2c-34.4 34.1-79.4 51.1-124.7 51.1s-90.7-17-125.1-51.1c-33.4-33.4-50.4-77-51.1-121.3-.7-46.1 16.4-92.4 51.5-127.5"/></svg></g></svg>