<?xml version="1.0" encoding="UTF-8"?>
<svg version="1.1" xmlns="http://www.w3.org/2000/svg" width="256" height="256">
<path d="M0 0 C1.14001465 0.00563965 2.2800293 0.0112793 3.45458984 0.01708984 C31.12508075 0.4146883 55.69750384 12.14639253 75.0300293 31.8059082 C95.3322072 53.09679578 101.91851002 79.66780189 101.49609375 108.33203125 C100.57120004 136.8425516 86.13254613 160.43337232 65.8125 179.5625 C43.20012947 198.98491112 15.98585653 203.54554096 -12.8125 202.3125 C-37.70109101 200.2292253 -61.71701469 185.86192595 -77.8125 167.3125 C-97.11342835 144.01462995 -102.5036498 117.01358862 -100.8125 87.3125 C-98.1724165 61.81849573 -83.5524195 39.13163932 -64.8125 22.3125 C-46.13103779 7.39112827 -23.85162763 -0.12446801 0 0 Z " fill="#001C41" transform="translate(127.8125,25.6875)"/>
<path d="M0 0 C0 9.24 0 18.48 0 28 C-1.65 27.34 -3.3 26.68 -5 26 C-6.32676508 25.64141484 -7.65835921 25.2981424 -9 25 C-17.33115524 38.49677685 -25.63664919 52.00884468 -33.875 65.5625 C-34.41072632 66.4428894 -34.41072632 66.4428894 -34.95727539 67.34106445 C-38.427856 73.04685389 -41.88114188 78.76027188 -45.22265625 84.54296875 C-45.69010254 85.35113037 -46.15754883 86.15929199 -46.63916016 86.99194336 C-47.47803234 88.45089952 -48.31023087 89.91372251 -49.13427734 91.38110352 C-50.03555103 92.95293623 -51.00949467 94.4828146 -52 96 C-52.66 96 -53.32 96 -54 96 C-55.75369366 92.23087436 -57.50278766 88.4596344 -59.25 84.6875 C-59.78415527 83.53443359 -60.31831055 82.38136719 -60.86865234 81.19335938 C-63.76081178 74.92715484 -66.61597677 68.64776498 -69.3984375 62.33203125 C-69.67099365 61.71406174 -69.9435498 61.09609222 -70.22436523 60.45939636 C-71.54481638 57.46245658 -72.85867286 54.46282655 -74.16503906 51.4597168 C-74.6390918 50.37988525 -75.11314453 49.30005371 -75.6015625 48.1875 C-76.01744629 47.23230469 -76.43333008 46.27710938 -76.86181641 45.29296875 C-77.90790582 42.87944226 -77.90790582 42.87944226 -80 41 C-80.51949219 42.03898437 -81.03898437 43.07796875 -81.57421875 44.1484375 C-85.3828125 51.765625 -89.19140625 59.3828125 -93 67 C-87.39 67 -81.78 67 -76 67 C-70 78.75 -70 78.75 -70 81 C-79.9 81.33 -89.8 81.66 -100 82 C-103.3 88.6 -106.6 95.2 -110 102 C-115.28 102 -120.56 102 -126 102 C-119.68797244 87.70285389 -112.98877278 73.63362382 -106.0625 59.625 C-98.76608375 44.86711893 -91.7278406 30.02645436 -85 15 C-81.37 15 -77.74 15 -74 15 C-72.89442408 17.35351368 -71.79051018 19.7077841 -70.6875 22.0625 C-70.2244043 23.04766602 -70.2244043 23.04766602 -69.75195312 24.05273438 C-68.07860042 27.62842488 -66.46716887 31.21932613 -64.92651367 34.85473633 C-63.673519 37.75593902 -62.37650216 40.63660332 -61.08203125 43.51953125 C-60.55029297 44.70611328 -60.01855469 45.89269531 -59.47070312 47.11523438 C-58.63635975 48.97699436 -57.80090232 50.83821601 -56.9621582 52.69799805 C-56.14455151 54.51198151 -55.33195979 56.32822275 -54.51953125 58.14453125 C-53.79407104 59.75871948 -53.79407104 59.75871948 -53.05395508 61.40551758 C-52 64 -52 64 -52 66 C-49.8081626 63.93515662 -48.16201712 61.87903423 -46.57421875 59.32421875 C-46.11394287 58.58905029 -45.65366699 57.85388184 -45.17944336 57.09643555 C-44.68710205 56.30148682 -44.19476074 55.50653809 -43.6875 54.6875 C-42.62037561 52.97880184 -41.55264114 51.27048458 -40.484375 49.5625 C-39.92169922 48.66144531 -39.35902344 47.76039062 -38.77929688 46.83203125 C-36.93627198 43.89856681 -35.07304408 40.97888756 -33.203125 38.0625 C-32.57575439 37.08321533 -31.94838379 36.10393066 -31.30200195 35.0949707 C-30.08115233 33.19119983 -28.85840472 31.28864444 -27.63354492 29.38745117 C-24.83709378 25.01666591 -22.18686359 20.70837178 -20 16 C-20.99 15.38125 -21.98 14.7625 -23 14.125 C-23.99 13.42375 -24.98 12.7225 -26 12 C-26 11.34 -26 10.68 -26 10 C-22.04406422 8.32760079 -18.0848716 6.66305618 -14.125 5 C-12.99707031 4.52304688 -11.86914062 4.04609375 -10.70703125 3.5546875 C-9.63066406 3.10351562 -8.55429688 2.65234375 -7.4453125 2.1875 C-6.45031738 1.76855469 -5.45532227 1.34960938 -4.43017578 0.91796875 C-2 0 -2 0 0 0 Z " fill="#0BCCF8" transform="translate(192,63)"/>
<path d="M0 0 C5.48305579 5.51564453 10.3171998 11.12543963 14 18 C13.67 18.66 13.34 19.32 13 20 C12.40832031 19.15695313 11.81664062 18.31390625 11.20703125 17.4453125 C10.4094643 16.33810191 9.61125304 15.23135524 8.8125 14.125 C8.42513672 13.56941406 8.03777344 13.01382813 7.63867188 12.44140625 C5.72477476 9.81572922 4.48782947 8.17646447 1.38671875 7.0546875 C-1 6 -1 6 -2.4140625 2.69140625 C-2.64512695 2.0689502 -2.87619141 1.44649414 -3.11425781 0.80517578 C-4.67855841 -2.38292747 -7.50153713 -4.14816089 -10.375 -6.0625 C-10.99568359 -6.48805176 -11.61636719 -6.91360352 -12.25585938 -7.35205078 C-32.69010739 -20.997357 -57.88512982 -25.73643501 -81.9609375 -21.31640625 C-96.51773274 -18.2809084 -109.44859951 -11.63956963 -121.36328125 -2.8828125 C-123.53939284 -1.32890763 -125.57216734 -0.09569645 -128 1 C-124.5531859 -8.21918951 -109.50277973 -14.25665526 -101.015625 -18.2734375 C-67.2883345 -33.37057093 -26.24496369 -25.63231091 0 0 Z " fill="#003675" transform="translate(193,60)"/>
<path d="M0 0 C-0.66644531 0.35191406 -1.33289063 0.70382813 -2.01953125 1.06640625 C-22.98352369 12.2151211 -22.98352369 12.2151211 -38.5625 29.625 C-40 32 -40 32 -41.5 33.4375 C-43.1773034 35.02997624 -43.1773034 35.02997624 -44.3125 37.625 C-45.70840017 40.41680034 -47.15411845 42.71383428 -48.9375 45.25 C-53.48670037 51.955273 -55.9045165 59.21677557 -58 67 C-58.31453125 67.83273438 -58.6290625 68.66546875 -58.953125 69.5234375 C-60.37579812 74.2479863 -60.97660847 78.99221484 -61.625 83.875 C-61.82609375 85.33679688 -61.82609375 85.33679688 -62.03125 86.828125 C-62.35928596 89.21810126 -62.68204739 91.60866503 -63 94 C-63.33 94 -63.66 94 -64 94 C-64.76997976 70.25895747 -57.60790777 47.14419278 -42 29 C-41.29875 28.17757812 -40.5975 27.35515625 -39.875 26.5078125 C-32.43658941 18.01046151 -12.34557236 -4.11519079 0 0 Z " fill="#00102A" transform="translate(92,35)"/>
<path d="M0 0 C1.0625 1.625 1.0625 1.625 1.0625 2.625 C-2.5675 2.625 -6.1975 2.625 -9.9375 2.625 C-10.35265869 3.94048828 -10.76781738 5.25597656 -11.19555664 6.61132812 C-12.73317197 11.21681011 -14.64806838 15.50225875 -16.80859375 19.84375 C-17.17219498 20.58653198 -17.5357962 21.32931396 -17.91041565 22.09460449 C-19.0599752 24.4407186 -20.2170754 26.7830049 -21.375 29.125 C-22.89697983 32.21755049 -24.41585101 35.31161815 -25.93359375 38.40625 C-26.29238617 39.13666504 -26.65117859 39.86708008 -27.02084351 40.61962891 C-29.44594571 45.57261779 -31.75843541 50.55794848 -33.9375 55.625 C-34.9275 54.965 -35.9175 54.305 -36.9375 53.625 C-36.39222656 52.46097656 -36.39222656 52.46097656 -35.8359375 51.2734375 C-32.51767822 44.14343423 -29.35409258 36.97835738 -26.33203125 29.71875 C-25.04559805 26.86481415 -23.56081142 24.29516282 -21.9375 21.625 C-21.669375 20.738125 -21.40125 19.85125 -21.125 18.9375 C-19.68937418 14.93285956 -17.61845937 11.59293979 -15.375 7.9921875 C-13.92251523 5.70290289 -13.92251523 5.70290289 -12.9375 3.4453125 C-11.9375 1.625 -11.9375 1.625 -8.9375 -0.375 C-2.60110856 -1.84594801 -2.60110856 -1.84594801 0 0 Z " fill="#014582" transform="translate(116.9375,75.375)"/>
<path d="M0 0 C-1.63195312 0.81791016 -1.63195312 0.81791016 -3.296875 1.65234375 C-27.66553372 14.07034518 -48.03359741 32.61753751 -56.796875 59.2265625 C-58.82102313 65.73572578 -60.80687024 72.28007378 -62 79 C-62.33 79 -62.66 79 -63 79 C-62.54477548 59.09427326 -52.36286114 39.37720373 -39 25 C-38.15695313 24.07703125 -37.31390625 23.1540625 -36.4453125 22.203125 C-29.30106541 14.70684255 -10.90206697 -3.63402232 0 0 Z " fill="#00326B" transform="translate(91,34)"/>
<path d="M0 0 C19.28833229 1.53505759 37.5037438 16.10536416 49.671875 30.15625 C52.5340238 33.65229753 54.91954087 36.98768597 57 41 C56.505 41.99 56.505 41.99 56 43 C55.40832031 42.15695313 54.81664062 41.31390625 54.20703125 40.4453125 C53.4094643 39.33810191 52.61125304 38.23135524 51.8125 37.125 C51.42513672 36.56941406 51.03777344 36.01382813 50.63867188 35.44140625 C48.72477476 32.81572922 47.48782947 31.17646447 44.38671875 30.0546875 C42 29 42 29 40.5859375 25.69140625 C40.35487305 25.0689502 40.12380859 24.44649414 39.88574219 23.80517578 C38.32144159 20.61707253 35.49846287 18.85183911 32.625 16.9375 C32.00431641 16.51194824 31.38363281 16.08639648 30.74414062 15.64794922 C20.56350759 8.84966356 9.76766631 4.99925528 -2 2 C-1.34 1.34 -0.68 0.68 0 0 Z " fill="#003068" transform="translate(150,37)"/>
<path d="M0 0 C1.32 1.32 2.64 2.64 4 4 C-1.56820285 13.20853664 -7.18060636 22.38500017 -13 31.4375 C-13.68412964 32.50955688 -13.68412964 32.50955688 -14.38208008 33.60327148 C-14.81286865 34.26915283 -15.24365723 34.93503418 -15.6875 35.62109375 C-16.25017578 36.49399048 -16.25017578 36.49399048 -16.82421875 37.38452148 C-18.0763949 39.10496368 -19.45994433 40.53567113 -21 42 C-21 38 -21 38 -20 35 C-19.34 35 -18.68 35 -18 35 C-17.71125 34.0925 -17.4225 33.185 -17.125 32.25 C-16.23468224 29.67797092 -15.28505587 27.38653234 -14 25 C-13.34 25 -12.68 25 -12 25 C-11.72929687 24.28714844 -11.45859375 23.57429688 -11.1796875 22.83984375 C-8.65786212 16.76909193 -5.40218748 10.88249216 -1.625 5.5 C0.27249418 3.07773071 0.27249418 3.07773071 0 0 Z " fill="#003C76" transform="translate(169,76)"/>
<path d="M0 0 C1.89213369 2.38573379 3.02391783 4.07175348 4 7 C3.01 7 2.02 7 1 7 C0.7525 7.680625 0.505 8.36125 0.25 9.0625 C-0.93459093 11.84628869 -2.32130978 14.41034275 -3.84765625 17.01953125 C-5.17965198 19.30875781 -6.46623635 21.62090667 -7.75 23.9375 C-8.17796875 24.70964844 -8.6059375 25.48179688 -9.046875 26.27734375 C-9.36140625 26.84582031 -9.6759375 27.41429687 -10 28 C-10.99 28 -11.98 28 -13 28 C-11.35156456 22.5082015 -8.96970898 17.46890518 -6.5 12.3125 C-6.09652344 11.45849609 -5.69304687 10.60449219 -5.27734375 9.72460938 C-3.65659434 6.31996581 -2.09634666 3.14451998 0 0 Z " fill="#00315F" transform="translate(112,102)"/>
<path d="M0 0 C0.33 1.32 0.66 2.64 1 4 C-9.89 8.455 -9.89 8.455 -21 13 C-21.33 12.01 -21.66 11.02 -22 10 C-20.64068647 7.28137293 -19.31729353 7.1771374 -16.5 6.125 C-12.19047322 4.47796821 -7.99635604 2.67687959 -3.8125 0.734375 C-2 0 -2 0 0 0 Z " fill="#00417F" transform="translate(187,61)"/>
<path d="M0 0 C0.99 0.66 1.98 1.32 3 2 C2.2265625 2.70382813 1.453125 3.40765625 0.65625 4.1328125 C-10.39707622 14.49074844 -16.59172116 25.80326804 -22 40 C-23.75546552 35.22558104 -21.7350851 31.93173504 -19.78125 27.4921875 C-14.61547507 17.3645498 -7.91283258 8.15596431 0 0 Z " fill="#002655" transform="translate(64,60)"/>
<path d="M0 0 C0 7.26 0 14.52 0 22 C-0.33 22 -0.66 22 -1 22 C-1.495 12.595 -1.495 12.595 -2 3 C-7.61 5.31 -13.22 7.62 -19 10 C-18.67 11.32 -18.34 12.64 -18 14 C-22.75 12.125 -22.75 12.125 -25 11 C-25 10.34 -25 9.68 -25 9 C-21.3993541 7.49144661 -17.79394041 5.99464176 -14.1875 4.5 C-13.16333984 4.07074219 -12.13917969 3.64148438 -11.08398438 3.19921875 C-10.10107422 2.79316406 -9.11816406 2.38710937 -8.10546875 1.96875 C-7.19949951 1.59169922 -6.29353027 1.21464844 -5.36010742 0.82617188 C-3 0 -3 0 0 0 Z " fill="#29F4FB" transform="translate(191,64)"/>
<path d="M0 0 C8.58 0 17.16 0 26 0 C26.33 0.99 26.66 1.98 27 3 C16.44 3 5.88 3 -5 3 C-5 2.67 -5 2.34 -5 2 C-3.35 2 -1.7 2 0 2 C0 1.34 0 0.68 0 0 Z " fill="#001534" transform="translate(115,26)"/>
<path d="M0 0 C3.63 0 7.26 0 11 0 C10.67 0.99 10.34 1.98 10 3 C7.36 3 4.72 3 2 3 C-3.52326286 13.91431996 -8.83919758 24.909765 -14 36 C-15.16630786 33.17278099 -15.02580472 32.07024918 -13.9519043 29.14672852 C-13.41476807 28.06834717 -12.87763184 26.98996582 -12.32421875 25.87890625 C-11.74349609 24.69619141 -11.16277344 23.51347656 -10.56445312 22.29492188 C-9.93924583 21.0505582 -9.31359051 19.80641953 -8.6875 18.5625 C-7.77146213 16.71619783 -6.85876458 14.86828423 -5.94721985 13.01976013 C-5.11578179 11.33797747 -4.27623987 9.66020839 -3.4362793 7.98266602 C-2.17940785 5.37256939 -1.07590092 2.6897523 0 0 Z " fill="#27E7F6" transform="translate(107,78)"/>
<path d="M0 0 C1.78218882 3.56437765 0.10270145 7.32642488 -1 11 C-2.383122 14.43646464 -3.97815969 17.74566069 -5.625 21.0625 C-6.04523438 21.92810547 -6.46546875 22.79371094 -6.8984375 23.68554688 C-7.92386714 25.7946692 -8.95774537 27.89915547 -10 30 C-10.99 29.34 -11.98 28.68 -13 28 C-12.45472656 26.83597656 -12.45472656 26.83597656 -11.8984375 25.6484375 C-8.51944681 18.38793957 -5.29751142 11.08698259 -2.19921875 3.703125 C-1 1 -1 1 0 0 Z " fill="#013A72" transform="translate(93,101)"/>
<path d="M0 0 C0.99 0.33 1.98 0.66 3 1 C-1.2700557 4.53250062 -5.76394673 7.41782477 -10.4765625 10.31640625 C-12.97875019 11.86615963 -12.97875019 11.86615963 -14.7109375 13.71484375 C-16 15 -16 15 -18 15 C-16.49000177 10.67725998 -13.22571835 8.77711039 -9.5625 6.375 C-8.68368164 5.78332031 -8.68368164 5.78332031 -7.78710938 5.1796875 C-6.19710471 4.11126212 -4.59889849 3.05506932 -3 2 C-2.01 1.34 -1.02 0.68 0 0 Z " fill="#00306A" transform="translate(83,46)"/>
<path d="M0 0 C3.69341424 0.22920124 4.84177637 0.8313132 7.421875 3.58203125 C8.19015625 4.64808594 8.9584375 5.71414062 9.75 6.8125 C10.52859375 7.87082031 11.3071875 8.92914063 12.109375 10.01953125 C13.6903946 12.51192371 14.5829703 14.12944556 15 17 C12.2927317 14.50098311 10.17269452 11.87398446 8.0625 8.875 C5.71937264 5.66736 4.00077495 3.94135881 0 3 C0 2.01 0 1.02 0 0 Z " fill="#002A5C" transform="translate(192,63)"/>
<path d="M0 0 C0.66 0 1.32 0 2 0 C0.50829734 4.9723422 -1.60457417 9.41845739 -4 14 C-4.66 13.67 -5.32 13.34 -6 13 C-2.98165138 2.98165138 -2.98165138 2.98165138 0 0 Z " fill="#01376D" transform="translate(80,131)"/>
<path d="M0 0 C2.86724686 0.57344937 3.8614515 0.8614515 6 3 C-0.625 6 -0.625 6 -4 6 C-2.68 4.02 -1.36 2.04 0 0 Z " fill="#00315F" transform="translate(183,87)"/>
<path d="M0 0 C1.32 1.32 2.64 2.64 4 4 C2.68 6.31 1.36 8.62 0 11 C-1.125 9.3125 -1.125 9.3125 -2 7 C-1.125 4.375 -1.125 4.375 0 2 C0 1.34 0 0.68 0 0 Z " fill="#014682" transform="translate(169,76)"/>
<path d="M0 0 C0.66 0.33 1.32 0.66 2 1 C-0.475 5.455 -0.475 5.455 -3 10 C-3.66 10 -4.32 10 -5 10 C-5.66 8.35 -6.32 6.7 -7 5 C-6.34 4.67 -5.68 4.34 -5 4 C-5 4.66 -5 5.32 -5 6 C-4.34 6 -3.68 6 -3 6 C-2.690625 5.38125 -2.38125 4.7625 -2.0625 4.125 C-1.375 2.75 -0.6875 1.375 0 0 Z " fill="#03B3EE" transform="translate(143,149)"/>
<path d="M0 0 C0.33 1.32 0.66 2.64 1 4 C0.15695313 3.70802734 0.15695313 3.70802734 -0.703125 3.41015625 C-3.52615562 2.90604364 -5.07636135 3.45454461 -7.75 4.4375 C-8.94882813 4.86869141 -8.94882813 4.86869141 -10.171875 5.30859375 C-10.77515625 5.53675781 -11.3784375 5.76492187 -12 6 C-8.88481051 2.59901331 -4.74375762 0 0 0 Z " fill="#003974" transform="translate(187,61)"/>
<path d="M0 0 C1.89213369 2.38573379 3.02391783 4.07175348 4 7 C3.01 7 2.02 7 1 7 C0.67 7.66 0.34 8.32 0 9 C0 7.68 0 6.36 0 5 C-0.66 5 -1.32 5 -2 5 C-1.34 3.35 -0.68 1.7 0 0 Z " fill="#023E72" transform="translate(112,102)"/>
<path d="M0 0 C0 1.32 0 2.64 0 4 C-3.10551666 4 -4.35261084 3.4606285 -7 2 C-7 1.34 -7 0.68 -7 0 C-3.86650268 -1.04449911 -3.01031744 -0.93423645 0 0 Z " fill="#21DBEE" transform="translate(173,73)"/>
<path d="M0 0 C0 0.66 0 1.32 0 2 C-2.75 3.625 -2.75 3.625 -6 5 C-8.375 4.1875 -8.375 4.1875 -10 3 C-3.375 0 -3.375 0 0 0 Z " fill="#2AE6F4" transform="translate(181,68)"/>
<path d="M0 0 C0 0.66 0 1.32 0 2 C-3.3 2 -6.6 2 -10 2 C-9.67 1.34 -9.34 0.68 -9 0 C-2.57142857 -1.28571429 -2.57142857 -1.28571429 0 0 Z " fill="#003C79" transform="translate(117,75)"/>
<path d="M0 0 C0.66 0 1.32 0 2 0 C1.25 5.75 1.25 5.75 -1 8 C-2.2077558 4.37673261 -1.54311128 3.35853631 0 0 Z " fill="#012F61" transform="translate(76,137)"/>
<path d="M0 0 C4.75 0.875 4.75 0.875 7 2 C7 2.66 7 3.32 7 4 C2.25 3.125 2.25 3.125 0 2 C0 1.34 0 0.68 0 0 Z " fill="#001432" transform="translate(171,36)"/>
</svg>
