<svg xmlns="http://www.w3.org/2000/svg" width="40" height="40" viewBox="0 0 40 40"><circle cx="20" cy="20" r="20" fill="#d9eaf2"/><rect x="6" y="6" width="28" height="28" rx="7.9799999999999995" ry="7.9799999999999995" fill="#0072a8"/><g transform="translate(11.32, 16.847535515750465)"><svg width="17.36" height="6.304928968499073" viewBox="0 0 1619 588" xmlns="http://www.w3.org/2000/svg"><path xmlns="http://www.w3.org/2000/svg" fill="#ffffff" d="M451.7 2.9 334.5 194.5 213.9 1H0v586h219.3V353l115.2 168.7 120.9-180V587h219.3V325.4zm944.8 334.5c87.1-6.6 155.7-79.3 155.7-167.9 0-93.2-75.5-168.5-168.6-168.5h-137.4l-232.4 326.1v259.7h219.3V414.5L1386.2 587h232.2zM843.9 159.5 728.7.9H514.9l219.3 309.6v276.4h219.5V310.5L1173 .9H959.1z"/></svg></g></svg>