<svg xmlns:xlink="http://www.w3.org/1999/xlink" xmlns="http://www.w3.org/2000/svg" id="Group_30952" width="250" height="250" viewBox="0 0 256 256" style="position: absolute; top: 0px; left: 0px; width: 100%; height: 100%;"><defs id="defs10"><linearGradient id="linear-gradient" x1=".843" x2=".206" y1=".135" y2=".886" gradientUnits="objectBoundingBox"><stop offset="0" stop-color="#b6509e" id="stop2"></stop><stop offset="1" stop-color="#2ebac6" id="stop4"></stop></linearGradient><linearGradient id="linear-gradient" x1=".843" x2=".206" y1=".135" y2=".886" gradientUnits="objectBoundingBox"><stop offset="0" stop-color="#b6509e" id="stop2"></stop><stop offset="1" stop-color="#2ebac6" id="stop4"></stop></linearGradient></defs><g id="Group_29109"><path id="Subtraction_108" fill="url(&quot;#linear-gradient&quot;)" d="M128 256a128.976 128.976 0 0 1-25.8-2.6 127.309 127.309 0 0 1-45.77-19.261 128.366 128.366 0 0 1-46.375-56.315A127.357 127.357 0 0 1 2.6 153.8a129.251 129.251 0 0 1 0-51.593 127.31 127.31 0 0 1 19.26-45.77 128.372 128.372 0 0 1 56.317-46.378A127.33 127.33 0 0 1 102.2 2.6a129.244 129.244 0 0 1 51.593 0 127.308 127.308 0 0 1 45.77 19.26 128.367 128.367 0 0 1 46.375 56.316A127.343 127.343 0 0 1 253.4 102.2a129.248 129.248 0 0 1 0 51.593 127.3 127.3 0 0 1-19.26 45.77 128.382 128.382 0 0 1-56.316 46.375A127.4 127.4 0 0 1 153.8 253.4 128.977 128.977 0 0 1 128 256zm0-242.287a115.145 115.145 0 0 0-23.033 2.322A113.657 113.657 0 0 0 64.1 33.232a114.622 114.622 0 0 0-41.4 50.283 113.7 113.7 0 0 0-6.659 21.452 115.4 115.4 0 0 0 0 46.065 113.66 113.66 0 0 0 17.2 40.866 114.627 114.627 0 0 0 50.282 41.407 113.75 113.75 0 0 0 21.453 6.658 115.381 115.381 0 0 0 46.065 0 113.609 113.609 0 0 0 40.866-17.2 114.622 114.622 0 0 0 41.393-50.278 113.741 113.741 0 0 0 6.659-21.453 115.4 115.4 0 0 0 0-46.065 113.662 113.662 0 0 0-17.2-40.865A114.619 114.619 0 0 0 172.485 22.7a113.74 113.74 0 0 0-21.453-6.659A115.145 115.145 0 0 0 128 13.714z"></path></g><svg xmlns="http://www.w3.org/2000/svg" width="206" height="206" viewBox="0 0 976 977" fill="none" x="25" y="25"><circle cx="488.008" cy="488.324" r="487.965" fill="#00B988"></circle><path d="M238.48 233.252h499.053v110.9H543.459v110.902H432.557V344.152H238.48v-110.9Z" fill="#FFFFFF"></path><path d="M432.557 455.054v221.802H321.656V455.054h110.901Zm110.918 221.802H654.36V455.054H543.459v221.802H432.574v110.901h110.901V676.856Z" fill="#FFFFFF"></path></svg></svg>
