<svg xmlns:xlink="http://www.w3.org/1999/xlink" xmlns="http://www.w3.org/2000/svg" id="Group_30952" width="250" height="250" viewBox="0 0 256 256" style="position: absolute; top: 0px; left: 0px; width: 100%; height: 100%;"><defs id="defs10"><linearGradient id="linear-gradient" x1=".843" x2=".206" y1=".135" y2=".886" gradientUnits="objectBoundingBox"><stop offset="0" stop-color="#b6509e" id="stop2"></stop><stop offset="1" stop-color="#2ebac6" id="stop4"></stop></linearGradient><linearGradient id="linear-gradient" x1=".843" x2=".206" y1=".135" y2=".886" gradientUnits="objectBoundingBox"><stop offset="0" stop-color="#b6509e" id="stop2"></stop><stop offset="1" stop-color="#2ebac6" id="stop4"></stop></linearGradient></defs><g id="Group_29109"><path id="Subtraction_108" fill="url(&quot;#linear-gradient&quot;)" d="M128 256a128.976 128.976 0 0 1-25.8-2.6 127.309 127.309 0 0 1-45.77-19.261 128.366 128.366 0 0 1-46.375-56.315A127.357 127.357 0 0 1 2.6 153.8a129.251 129.251 0 0 1 0-51.593 127.31 127.31 0 0 1 19.26-45.77 128.372 128.372 0 0 1 56.317-46.378A127.33 127.33 0 0 1 102.2 2.6a129.244 129.244 0 0 1 51.593 0 127.308 127.308 0 0 1 45.77 19.26 128.367 128.367 0 0 1 46.375 56.316A127.343 127.343 0 0 1 253.4 102.2a129.248 129.248 0 0 1 0 51.593 127.3 127.3 0 0 1-19.26 45.77 128.382 128.382 0 0 1-56.316 46.375A127.4 127.4 0 0 1 153.8 253.4 128.977 128.977 0 0 1 128 256zm0-242.287a115.145 115.145 0 0 0-23.033 2.322A113.657 113.657 0 0 0 64.1 33.232a114.622 114.622 0 0 0-41.4 50.283 113.7 113.7 0 0 0-6.659 21.452 115.4 115.4 0 0 0 0 46.065 113.66 113.66 0 0 0 17.2 40.866 114.627 114.627 0 0 0 50.282 41.407 113.75 113.75 0 0 0 21.453 6.658 115.381 115.381 0 0 0 46.065 0 113.609 113.609 0 0 0 40.866-17.2 114.622 114.622 0 0 0 41.393-50.278 113.741 113.741 0 0 0 6.659-21.453 115.4 115.4 0 0 0 0-46.065 113.662 113.662 0 0 0-17.2-40.865A114.619 114.619 0 0 0 172.485 22.7a113.74 113.74 0 0 0-21.453-6.659A115.145 115.145 0 0 0 128 13.714z"></path></g><svg xmlns="http://www.w3.org/2000/svg" viewBox="0 0 32 32" x="25" width="206" y="25" height="206"><g fill="none"><circle cx="16" cy="16" r="16" fill="#2775C9"></circle><path fill="#FFFFFF" d="M15.75 27.5A11.75 11.75 0 1 1 27.5 15.75 11.75 11.75 0 0 1 15.75 27.5zm-.7-16.11a2.58 2.58 0 0 0-2.45 2.47c0 1.21.74 2 2.31 2.33l1.1.26c1.07.25 1.51.61 1.51 1.22s-.77 1.21-1.77 1.21a1.9 1.9 0 0 1-1.8-.91.68.68 0 0 0-.61-.39h-.59a.35.35 0 0 0-.28.41 2.73 2.73 0 0 0 2.61 2.08v.84a.7.7 0 0 0 1.41 0v-.85a2.62 2.62 0 0 0 2.59-2.58c0-1.27-.73-2-2.46-2.37l-1-.22c-1-.25-1.47-.58-1.47-1.14 0-.56.6-1.18 1.6-1.18a1.64 1.64 0 0 1 1.59.81.8.8 0 0 0 .72.46h.47a.42.42 0 0 0 .31-.5 2.65 2.65 0 0 0-2.38-2v-.69a.7.7 0 0 0-1.41 0v.74zm-8.11 4.36a8.79 8.79 0 0 0 6 8.33h.14a.45.45 0 0 0 .45-.45v-.21a.94.94 0 0 0-.58-.87 7.36 7.36 0 0 1 0-13.65.93.93 0 0 0 .58-.86v-.23a.42.42 0 0 0-.56-.4 8.79 8.79 0 0 0-6.03 8.34zm17.62 0a8.79 8.79 0 0 0-6-8.32h-.15a.47.47 0 0 0-.47.47v.15a1 1 0 0 0 .61.9 7.36 7.36 0 0 1 0 13.64 1 1 0 0 0-.6.89v.17a.47.47 0 0 0 .62.44 8.79 8.79 0 0 0 5.99-8.34z"></path></g></svg></svg>
