<svg width="64" height="64" viewBox="0 0 64 64" fill="none" xmlns="http://www.w3.org/2000/svg">
<rect width="64" height="64" rx="32" fill="url(#paint0_linear_975_73)"/>
<path fill-rule="evenodd" clip-rule="evenodd" d="M26.166 19.7655L20.9823 38.9293C20.8317 39.4861 20.9289 40.0809 21.2489 40.5609L21.2824 40.6112C21.7761 41.3517 21.721 42.3293 21.1473 43.0098L15.1166 50.1624C14.9091 50.4085 14.9246 50.7725 15.1522 51.0002C15.3243 51.1723 15.5812 51.2277 15.809 51.1419L38.9904 42.4069C39.0466 42.3857 39.1004 42.3627 39.154 42.3359C39.5963 42.1148 41.7755 40.9915 42.8434 39.8056C44.0101 38.5098 44.9237 35.9471 45.0543 35.5698C45.0655 35.5374 45.0744 35.5083 45.0831 35.4751C45.1882 35.0749 45.8824 32.2622 45.0703 30.7265C44.6214 29.8776 43.5604 29.132 42.7711 28.6656C42.4039 28.4487 42.4045 27.8673 42.7787 27.6626C43.4974 27.2694 44.4571 26.6895 45.0703 26.1013C46.1818 25.0353 46.739 24.282 47.2972 22.8466C48.0394 20.9382 48.7159 17.652 49.1237 15.4244C49.3473 14.2032 48.3884 13.1043 47.1472 13.1283L23.8689 13.5789C23.4774 13.5864 23.2461 14.0208 23.4584 14.3498L25.916 18.159C26.223 18.6349 26.3139 19.2187 26.166 19.7655ZM30.8784 25.1505L32.5652 19.0779H37.8018C37.851 19.0779 37.9001 19.0787 37.949 19.0836C38.2745 19.116 39.5862 19.326 39.9312 20.6197C40.6164 23.1892 36.8478 25.1505 34.8183 25.1505H30.8784ZM27.2548 38.6065L29.4769 30.3839L34.8653 30.5522C34.9307 30.5542 34.9951 30.5576 35.06 30.5657C35.5241 30.6233 37.5107 30.9557 37.7043 32.4396C38.2182 36.3795 34.2782 38.2475 30.3383 38.4352C27.9427 38.5492 27.2548 38.6065 27.2548 38.6065Z" fill="white"/>
<defs>
<linearGradient id="paint0_linear_975_73" x1="0" y1="0" x2="64" y2="64" gradientUnits="userSpaceOnUse">
<stop stop-color="#9D52DB"/>
<stop offset="1" stop-color="#4424AD"/>
</linearGradient>
</defs>
</svg>
