<svg width="64" height="64" viewBox="0 0 64 64" fill="none" xmlns="http://www.w3.org/2000/svg">
<rect width="64" height="64" rx="32" fill="#008AFF"/>
<path d="M33.1839 12.2277C32.2774 11.9241 31.7226 11.9241 30.8161 12.2277C28.6045 12.9684 28.7005 17.6556 29.3839 22.2802C27.6536 17.9374 25.3838 13.8353 23.0993 14.3048C22.1628 14.4972 21.683 14.7757 21.0513 15.4933C19.5322 17.2192 21.8778 21.1367 24.7349 24.7508C21.1145 21.9017 17.1918 19.5647 15.4693 21.0876C14.7531 21.7208 14.4757 22.2012 14.2853 23.1381C13.824 25.4081 17.8722 27.6537 22.1858 29.37C17.592 28.6993 12.9633 28.6196 12.2277 30.8161C11.9241 31.7226 11.9241 32.2774 12.2277 33.1839C12.9633 35.3804 17.592 35.3007 22.1858 34.63C17.8722 36.3463 13.8239 38.5919 14.2852 40.8619C14.4756 41.7988 14.753 42.2792 15.4693 42.9124C17.1918 44.4353 21.1144 42.0984 24.7348 39.2493C21.8777 42.8634 19.5322 46.7808 21.0513 48.5067C21.6829 49.2243 22.1627 49.5028 23.0992 49.6952C25.3838 50.1647 27.6536 46.0624 29.3839 41.7196C28.7005 46.3442 28.6045 51.0316 30.8161 51.7723C31.7226 52.0759 32.2774 52.0759 33.1839 51.7723C35.3955 51.0316 35.2995 46.344 34.6161 41.7193C36.3463 46.0623 38.6162 50.1647 40.9009 49.6952C41.8373 49.5028 42.3171 49.2243 42.9488 48.5067C44.4679 46.7808 42.1223 42.8634 39.2653 39.2493C42.8857 42.0984 46.8083 44.4353 48.5308 42.9124C49.247 42.2792 49.5244 41.7988 49.7148 40.8619C50.1761 38.5919 46.1279 36.3463 41.8143 34.63C46.408 35.3007 51.0367 35.3804 51.7723 33.1839C52.0759 32.2774 52.0759 31.7226 51.7723 30.8161C51.0367 28.6196 46.408 28.6993 41.8143 29.37C46.1279 27.6537 50.1761 25.4081 49.7148 23.1381C49.5244 22.2012 49.247 21.7208 48.5308 21.0876C46.8082 19.5647 42.8856 21.9017 39.2652 24.7508C42.1222 21.1367 44.4679 17.2192 42.9487 15.4933C42.3171 14.7757 41.8373 14.4972 40.9008 14.3048C38.6162 13.8353 36.3464 17.9376 34.6161 22.2805C35.2995 17.6558 35.3955 12.9684 33.1839 12.2277Z" fill="white"/>
</svg>
