<svg width="64" height="64" viewBox="0 0 64 64" fill="none" xmlns="http://www.w3.org/2000/svg">
<rect width="64" height="64" rx="32" fill="#FF3D00"/>
<path d="M46 39.7655C46 42.6694 44.8907 45.1067 42.6722 47.0772C40.4711 49.0304 37.6546 50.1713 34.2228 50.4997V54H30.6091V50.4997C28.2346 50.2923 25.9208 49.6873 23.6676 48.6847C21.4318 47.6822 19.5426 46.4117 18 44.8733L21.6137 39.8173C22.8443 40.9409 24.2482 41.9002 25.8254 42.6953C27.4027 43.4905 28.9972 44.0004 30.6091 44.2251V34.891C28.9625 34.4416 27.4807 33.9057 26.1634 33.2834C24.8635 32.6439 23.6849 31.8833 22.6277 31.0018C21.5704 30.1202 20.7558 29.0744 20.1838 27.8645C19.6119 26.6545 19.3259 25.3322 19.3259 23.8975C19.3259 21.0799 20.3485 18.7378 22.3937 16.8709C24.4562 14.9868 27.1947 13.8806 30.6091 13.5522V10H34.2228V13.5003C36.32 13.7077 38.2439 14.209 39.9944 15.0041C41.7623 15.7993 43.2269 16.7845 44.3881 17.9599L40.9824 22.99C40.2197 22.2294 39.2318 21.5639 38.0186 20.9935C36.8053 20.4058 35.5401 20.0082 34.2228 19.8008V28.7201C35.1588 28.9621 36.06 29.2387 36.9266 29.5498C37.8106 29.8436 38.8332 30.3017 39.9944 30.924C41.1557 31.5463 42.1523 32.2377 42.9842 32.9982C43.8162 33.7415 44.5268 34.7095 45.1161 35.9022C45.7054 37.0776 46 38.3653 46 39.7655ZM26.4494 23.69C26.4494 25.384 27.836 26.7496 30.6091 27.7867V19.8527C29.3439 20.0947 28.3299 20.5614 27.5673 21.2528C26.822 21.9269 26.4494 22.7393 26.4494 23.69ZM34.2228 44.1732C35.5921 43.9658 36.6927 43.5078 37.5246 42.7991C38.3739 42.0731 38.7985 41.1569 38.7985 40.0507C38.7985 39.0308 38.3825 38.1925 37.5506 37.5357C36.736 36.8788 35.6267 36.317 34.2228 35.8503V44.1732Z" fill="white"/>
</svg>
