<svg width="1000" height="1000" viewBox="0 0 1000 1000" fill="none" xmlns="http://www.w3.org/2000/svg">
<circle cx="500" cy="500" r="500" fill="#196D8F"/>
<g clip-path="url(#clip0_3881_3424)">
<path d="M536.912 749.197L516.98 805.178C525.13 804.646 533.192 803.792 541.152 802.629V737.286L536.908 749.201L536.912 749.197Z" fill="#004B69"/>
<path d="M799.551 503.321C799.551 336.253 664.114 200.816 497.046 200.816C329.977 200.816 194.54 336.253 194.54 503.321C194.54 670.39 323.531 799.282 485.032 805.592L466.181 797.665L519.18 648.804L542.436 658.583H591.018V703.853V790.939C712.078 751.409 799.547 637.578 799.547 503.317L799.551 503.321Z" fill="#004B69"/>
<path d="M591.025 658.581H577.328L591.025 703.856V658.581Z" fill="#004B69"/>
<path d="M591.025 658.581H577.328L591.025 703.856V658.581Z" fill="url(#paint0_linear_3881_3424)"/>
<path d="M577.33 658.581H542.444L549.603 661.592L577.33 658.581Z" fill="#004B69"/>
<path d="M577.33 658.581H542.444L549.603 661.592L577.33 658.581Z" fill="url(#paint1_linear_3881_3424)"/>
<path d="M550.119 712.113L541.157 737.287V802.63C549.43 801.421 557.6 799.883 565.642 798.015L550.119 712.113V712.113Z" fill="#004B69"/>
<path d="M565.694 668.359L550.117 712.108L565.64 798.01C574.247 796.014 582.714 793.651 591.024 790.937V703.852L577.328 658.581L549.601 661.592L565.694 668.359V668.359Z" fill="#004B69"/>
<path d="M565.694 668.359L550.117 712.108L565.64 798.01C574.247 796.014 582.714 793.651 591.024 790.937V703.852L577.328 658.581L549.601 661.592L565.694 668.359V668.359Z" fill="url(#paint2_linear_3881_3424)"/>
<path d="M536.913 749.198L541.157 737.283L536.913 749.198Z" fill="#004B69"/>
<path d="M536.913 749.198L541.157 737.283L536.913 749.198Z" fill="url(#paint3_linear_3881_3424)"/>
<path d="M517.88 652.465L541.152 659.456V658.582H542.439L519.183 648.803L466.184 797.664L485.035 805.591C487.646 805.694 490.265 805.764 492.896 805.797L517.884 652.465H517.88Z" fill="#004B69"/>
<path d="M541.157 659.455L548.626 661.699L549.603 661.592L542.444 658.581H541.157V659.455Z" fill="#004B69"/>
<path d="M541.157 659.455L548.626 661.699L549.603 661.592L542.444 658.581H541.157V659.455Z" fill="url(#paint4_linear_3881_3424)"/>
<path d="M541.157 659.455L548.626 661.699L549.603 661.592L542.444 658.581H541.157V659.455Z" fill="url(#paint5_linear_3881_3424)"/>
<path d="M549.602 661.591L548.625 661.699L552.922 662.989L550.662 710.582L550.117 712.112L565.694 668.359L549.602 661.591Z" fill="#004B69"/>
<path d="M549.602 661.591L548.625 661.699L552.922 662.989L550.662 710.582L550.117 712.112L565.694 668.359L549.602 661.591Z" fill="url(#paint6_linear_3881_3424)"/>
<path d="M549.602 661.591L548.625 661.699L552.922 662.989L550.662 710.582L550.117 712.112L565.694 668.359L549.602 661.591Z" fill="url(#paint7_linear_3881_3424)"/>
<path d="M516.98 805.179L536.912 749.198L516.98 805.179Z" fill="#004B69"/>
<path d="M541.155 662.512V659.456L517.882 652.465L492.894 805.797C494.276 805.817 495.661 805.825 497.047 805.825C503.745 805.825 510.389 805.607 516.979 805.178L536.911 749.197L541.155 737.282V662.512V662.512Z" fill="#004B69"/>
<path d="M541.155 662.512V659.456L517.882 652.465L492.894 805.797C494.276 805.817 495.661 805.825 497.047 805.825C503.745 805.825 510.389 805.607 516.979 805.178L536.911 749.197L541.155 737.282V662.512V662.512Z" fill="url(#paint8_linear_3881_3424)"/>
<path d="M541.157 737.282L550.119 712.113L541.157 662.512V737.282Z" fill="#004B69"/>
<path d="M541.157 737.282L550.119 712.113L541.157 662.512V737.282Z" fill="url(#paint9_linear_3881_3424)"/>
<path d="M541.157 737.282L550.119 712.113L541.157 662.512V737.282Z" fill="url(#paint10_linear_3881_3424)"/>
<path d="M548.626 661.7L541.157 659.456V662.512L548.626 661.7Z" fill="#004B69"/>
<path d="M548.626 661.7L541.157 659.456V662.512L548.626 661.7Z" fill="url(#paint11_linear_3881_3424)"/>
<path d="M548.626 661.7L541.157 659.456V662.512L548.626 661.7Z" fill="url(#paint12_linear_3881_3424)"/>
<path d="M541.157 662.512L550.119 712.113L550.663 710.583L552.923 662.991L548.626 661.7L541.157 662.512Z" fill="#004B69"/>
<path d="M541.157 662.512L550.119 712.113L550.663 710.583L552.923 662.991L548.626 661.7L541.157 662.512Z" fill="url(#paint13_linear_3881_3424)"/>
<path d="M541.157 662.512L550.119 712.113L550.663 710.583L552.923 662.991L548.626 661.7L541.157 662.512Z" fill="url(#paint14_linear_3881_3424)"/>
<path d="M536.911 749.198L516.979 805.179C525.128 804.647 533.191 803.793 541.151 802.63V737.288L536.907 749.202L536.911 749.198Z" fill="#004B69"/>
<path d="M799.55 503.323C799.55 336.254 664.113 200.817 497.044 200.817C329.975 200.817 194.539 336.254 194.539 503.323C194.539 670.392 323.529 799.283 485.031 805.593L466.179 797.666L519.178 648.806L542.434 658.584H591.017V703.855V790.94C712.077 751.41 799.545 637.58 799.545 503.319L799.55 503.323Z" fill="#004B69"/>
<path d="M591.023 658.583H577.327L591.023 703.857V658.583Z" fill="#004B69"/>
<path d="M591.023 658.583H577.327L591.023 703.857V658.583Z" fill="url(#paint15_linear_3881_3424)"/>
<path d="M577.328 658.583H542.442L549.602 661.593L577.328 658.583Z" fill="#004B69"/>
<path d="M577.328 658.583H542.442L549.602 661.593L577.328 658.583Z" fill="url(#paint16_linear_3881_3424)"/>
<path d="M550.117 712.114L541.156 737.288V802.631C549.429 801.422 557.598 799.884 565.641 798.016L550.117 712.114V712.114Z" fill="#004B69"/>
<path d="M565.692 668.361L550.115 712.11L565.639 798.011C574.246 796.015 582.713 793.652 591.023 790.938V703.853L577.326 658.583L549.6 661.593L565.692 668.361V668.361Z" fill="#004B69"/>
<path d="M565.692 668.361L550.115 712.11L565.639 798.011C574.246 796.015 582.713 793.652 591.023 790.938V703.853L577.326 658.583L549.6 661.593L565.692 668.361V668.361Z" fill="url(#paint17_linear_3881_3424)"/>
<path d="M536.912 749.199L541.155 737.284L536.912 749.199Z" fill="#004B69"/>
<path d="M536.912 749.199L541.155 737.284L536.912 749.199Z" fill="url(#paint18_linear_3881_3424)"/>
<path d="M517.878 652.467L541.151 659.457V658.583H542.438L519.182 648.805L466.182 797.665L485.034 805.592C487.644 805.695 490.263 805.765 492.894 805.798L517.883 652.467H517.878Z" fill="#004B69"/>
<path d="M541.156 659.457L548.624 661.7L549.602 661.593L542.442 658.583H541.156V659.457Z" fill="#004B69"/>
<path d="M541.156 659.457L548.624 661.7L549.602 661.593L542.442 658.583H541.156V659.457Z" fill="url(#paint19_linear_3881_3424)"/>
<path d="M541.156 659.457L548.624 661.7L549.602 661.593L542.442 658.583H541.156V659.457Z" fill="url(#paint20_linear_3881_3424)"/>
<path d="M549.6 661.593L548.623 661.7L552.92 662.991L550.66 710.583L550.116 712.113L565.693 668.36L549.6 661.593Z" fill="#004B69"/>
<path d="M549.6 661.593L548.623 661.7L552.92 662.991L550.66 710.583L550.116 712.113L565.693 668.36L549.6 661.593Z" fill="url(#paint21_linear_3881_3424)"/>
<path d="M549.6 661.593L548.623 661.7L552.92 662.991L550.66 710.583L550.116 712.113L565.693 668.36L549.6 661.593Z" fill="url(#paint22_linear_3881_3424)"/>
<path d="M516.979 805.18L536.911 749.199L516.979 805.18Z" fill="#004B69"/>
<path d="M541.153 662.513V659.457L517.881 652.467L492.893 805.798C494.274 805.819 495.66 805.827 497.046 805.827C503.743 805.827 510.387 805.608 516.978 805.179L536.91 749.198L541.153 737.284V662.513V662.513Z" fill="#004B69"/>
<path d="M541.153 662.513V659.457L517.881 652.467L492.893 805.798C494.274 805.819 495.66 805.827 497.046 805.827C503.743 805.827 510.387 805.608 516.978 805.179L536.91 749.198L541.153 737.284V662.513V662.513Z" fill="url(#paint23_linear_3881_3424)"/>
<path d="M541.156 737.283L550.117 712.114L541.156 662.513V737.283Z" fill="#004B69"/>
<path d="M541.156 737.283L550.117 712.114L541.156 662.513V737.283Z" fill="url(#paint24_linear_3881_3424)"/>
<path d="M541.156 737.283L550.117 712.114L541.156 662.513V737.283Z" fill="url(#paint25_linear_3881_3424)"/>
<path d="M548.624 661.701L541.156 659.458V662.514L548.624 661.701Z" fill="#004B69"/>
<path d="M548.624 661.701L541.156 659.458V662.514L548.624 661.701Z" fill="url(#paint26_linear_3881_3424)"/>
<path d="M548.624 661.701L541.156 659.458V662.514L548.624 661.701Z" fill="url(#paint27_linear_3881_3424)"/>
<path d="M541.156 662.514L550.117 712.115L550.662 710.585L552.922 662.992L548.624 661.701L541.156 662.514Z" fill="#004B69"/>
<path d="M541.156 662.514L550.117 712.115L550.662 710.585L552.922 662.992L548.624 661.701L541.156 662.514Z" fill="url(#paint28_linear_3881_3424)"/>
<path d="M541.156 662.514L550.117 712.115L550.662 710.585L552.922 662.992L548.624 661.701L541.156 662.514Z" fill="url(#paint29_linear_3881_3424)"/>
<path d="M449.827 91.1136C449.827 91.1136 484.882 79.9784 483.645 40.3867C483.645 40.3867 500.141 80.8032 473.747 101.836L449.827 91.1136Z" fill="#B61C0C"/>
<path d="M463.792 100.954C463.792 100.954 500.419 104.319 514.668 67.3584C514.668 67.3584 514.16 111.008 481.666 120.131L463.792 100.954Z" fill="#B61C0C"/>
<path d="M423.438 77.4958C423.438 77.4958 459.697 83.6696 476.746 47.9175C476.746 47.9175 472.878 91.3982 439.778 97.9927L423.434 77.4958H423.438Z" fill="#B61C0C"/>
<mask id="mask0_3881_3424" style="mask-type:luminance" maskUnits="userSpaceOnUse" x="250" y="75" width="497" height="725">
<path d="M360.101 198.721C368.563 210.808 380.342 220.405 394.117 226.192L394.084 226.179C391.044 298.191 250.584 276.848 250.584 420.496C250.584 456.487 263.254 489.518 284.377 515.372C291.867 524.54 300.42 532.805 309.848 539.98L326.947 551.244L704.429 799.875C730.77 759.884 746.099 711.994 746.099 660.525C746.099 576.892 705.629 502.715 643.202 456.504C575.475 406.371 513.143 401.232 432.595 413.955C429.7 414.413 426.73 414.652 423.707 414.652C392.327 414.652 367.207 389.177 367.207 358.151C367.207 282.181 506.112 310.048 506.112 171.629C506.112 146.971 497.43 75.1079 424.524 75.1079C403.317 75.1079 383.15 83.6078 368.349 98.7351C354.484 112.906 345.934 132.301 345.934 153.697C345.934 170.446 351.172 185.965 360.101 198.717" fill="white"/>
</mask>
<g mask="url(#mask0_3881_3424)">
<path d="M746.098 75.1162H250.583V799.88H746.098V75.1162Z" fill="url(#paint30_linear_3881_3424)"/>
</g>
<mask id="mask1_3881_3424" style="mask-type:luminance" maskUnits="userSpaceOnUse" x="345" y="75" width="162" height="227">
<path d="M360.099 198.72C368.562 210.808 380.34 220.405 394.115 226.191L394.082 226.178L404.467 262.302L411.741 301.926C452.368 279.495 506.114 257.732 506.114 171.633C506.114 146.974 497.433 75.1113 424.526 75.1113C403.32 75.1113 383.153 83.6112 368.351 98.7385C354.486 112.909 345.937 132.305 345.937 153.701C345.937 170.449 351.174 185.968 360.103 198.72" fill="white"/>
</mask>
<g mask="url(#mask1_3881_3424)">
<path d="M506.114 75.1113H345.937V301.926H506.114V75.1113Z" fill="url(#paint31_linear_3881_3424)"/>
</g>
<path fill-rule="evenodd" clip-rule="evenodd" d="M471.892 262.912C491.568 243.793 506.114 216.421 506.114 171.633C506.114 146.974 497.433 75.1113 424.526 75.1113C403.32 75.1113 383.153 83.6112 368.351 98.7385C354.486 112.909 345.937 132.305 345.937 153.701C345.937 160.37 346.77 166.84 348.329 173.022C348.37 172.998 469.578 91.8264 471.892 262.908" fill="#51F4E9"/>
<mask id="mask2_3881_3424" style="mask-type:luminance" maskUnits="userSpaceOnUse" x="352" y="405" width="428" height="448">
<path d="M607.923 730.726L723.906 852.466C758.915 805.806 779.66 747.824 779.66 684.997C779.66 564.127 702.881 461.189 595.435 422.29C565.753 411.546 533.733 405.686 500.349 405.686C456.74 405.686 415.466 415.679 378.695 433.499C337.231 453.592 351.583 461.663 378.93 490.367L607.927 730.73L607.923 730.726Z" fill="white"/>
</mask>
<g mask="url(#mask2_3881_3424)">
<path d="M779.652 405.686H337.223V852.466H779.652V405.686Z" fill="url(#paint32_linear_3881_3424)"/>
</g>
<path fill-rule="evenodd" clip-rule="evenodd" d="M607.921 730.726L723.904 852.467C740.013 831 753.095 807.134 762.531 781.507L357.632 467.507C362.288 473.661 369.897 480.886 378.925 490.363L607.921 730.726V730.726Z" fill="#3E005D"/>
<mask id="mask3_3881_3424" style="mask-type:luminance" maskUnits="userSpaceOnUse" x="250" y="226" width="178" height="337">
<path d="M343.386 562.069C248.7 385.927 402.006 307.515 402.006 307.515C405.136 305.622 408.394 303.77 411.739 301.922C448.963 254.924 411.619 233.569 398.36 227.828C395.972 226.793 394.368 226.265 394.117 226.187L394.084 226.174C391.044 298.186 250.584 276.843 250.584 420.491C250.584 456.483 263.254 489.513 284.377 515.367C291.867 524.535 300.42 532.8 309.848 539.976L326.947 551.239L343.386 562.065V562.069Z" fill="white"/>
</mask>
<g mask="url(#mask3_3881_3424)">
<path d="M448.964 226.176H248.7V562.067H448.964V226.176Z" fill="url(#paint33_linear_3881_3424)"/>
</g>
<path fill-rule="evenodd" clip-rule="evenodd" d="M320.558 507.273C280.698 369.572 402.005 307.52 402.005 307.52C402.005 307.52 267.959 366.978 320.525 507.19L320.558 507.273V507.273Z" fill="#FFCE4B"/>
<path fill-rule="evenodd" clip-rule="evenodd" d="M346.532 281.892C304.747 305.713 250.584 331.29 250.584 420.496C250.584 448.795 258.42 475.26 272.034 497.852C223.918 352.625 346.532 281.896 346.532 281.896V281.892Z" fill="#FFBBD7"/>
<path fill-rule="evenodd" clip-rule="evenodd" d="M368.903 98.1817C377.791 96.231 483.641 75.0495 501.696 168.651C503.354 177.246 504.274 186.805 504.307 197.441C505.486 189.54 506.117 180.961 506.117 171.628C506.117 162.296 504.975 147.56 500.055 131.892C498.83 127.995 497.37 124.065 495.638 120.192C485.109 96.6517 464.443 75.1113 424.529 75.1113C407.992 75.1113 392.085 80.283 378.859 89.7355C375.597 92.0698 372.516 94.6474 369.654 97.4435C369.402 97.6869 369.155 97.9343 368.903 98.1817" fill="#5EF9F6"/>
<path fill-rule="evenodd" clip-rule="evenodd" d="M343.384 562.07C343.384 562.07 301.961 450.487 387.121 401.212C374.913 390.819 367.209 375.337 367.209 358.156C367.209 333.333 382.04 319.595 402.009 307.52C402.009 307.52 248.702 385.932 343.388 562.074" fill="#102770"/>
<path fill-rule="evenodd" clip-rule="evenodd" d="M360.016 470.464C383.029 506.942 456.43 626.134 427.359 617.378L622.2 745.713L607.922 730.726L378.925 490.363C371.304 482.362 364.689 475.966 360.012 470.464" fill="url(#paint34_linear_3881_3424)"/>
<path fill-rule="evenodd" clip-rule="evenodd" d="M576.786 432.995C691.433 474.501 773.359 584.339 773.359 713.313C773.359 728.494 772.225 743.407 770.035 757.977C776.316 734.713 779.665 710.244 779.665 684.992C779.665 564.122 702.886 461.184 595.44 422.285C565.758 411.542 533.739 405.681 500.354 405.681C463.088 405.681 427.53 412.981 395.023 426.223C420.572 419.093 447.503 415.282 475.324 415.282C510.949 415.282 545.117 421.534 576.786 432.999" fill="#FCE2A6"/>
<path fill-rule="evenodd" clip-rule="evenodd" d="M398.36 227.833C411.619 233.574 448.963 254.929 411.739 301.927C415.925 299.614 420.251 297.312 424.643 294.945C448.291 254.702 418.779 236.019 402.922 229.289C398.076 227.231 394.504 226.291 394.116 226.196C394.368 226.274 395.976 226.802 398.36 227.837" fill="#1296DF"/>
<path fill-rule="evenodd" clip-rule="evenodd" d="M405.546 268.184C412.227 281.801 411.74 301.927 411.74 301.927C448.964 254.929 411.62 233.574 398.361 227.833C395.973 226.798 394.369 226.27 394.118 226.192L394.085 226.179C393.54 239.067 388.595 248.965 380.838 257.354C393.639 253.069 401.145 259.214 405.546 268.184" fill="#102770"/>
<path fill-rule="evenodd" clip-rule="evenodd" d="M607.921 730.726L622.195 745.705L364.313 460.958C364.313 460.958 352.674 448.973 376.912 434.37C337.65 453.831 351.977 462.08 378.925 490.363L607.921 730.726Z" fill="#FCE2A6"/>
<path d="M368.359 98.5666V98.3169H368.309C368.318 98.4048 368.327 98.4973 368.336 98.5851L368.359 98.5666V98.5666Z" fill="url(#paint35_linear_3881_3424)"/>
<path d="M368.352 98.7425V99.2827C368.793 98.8084 369.239 98.33 369.692 97.8681C369.68 97.7279 369.664 97.5877 369.651 97.4434L368.352 98.5404V98.7383V98.7425Z" fill="#FCE2A6"/>
<path d="M348.593 133.377L349.677 132.524L349.958 132.412C353.331 119.846 359.74 108.53 368.351 99.2873V98.7471C359.039 108.261 352.135 120.135 348.597 133.382L348.593 133.377Z" fill="#FCE2A6"/>
<path d="M368.355 98.7655V98.5435L368.332 98.562C368.341 98.6313 368.346 98.7007 368.355 98.7655Z" fill="#FCE2A6"/>
<path d="M127.456 307.735C152.432 306.869 233.137 295.717 360.099 198.718C351.17 185.966 345.932 170.442 345.932 153.698C345.932 146.667 346.86 139.858 348.592 133.371L127.456 307.735Z" fill="url(#paint36_linear_3881_3424)"/>
<path d="M368.331 98.5561C368.323 98.4777 368.315 98.3953 368.307 98.3169L120.413 307.712C120.504 307.716 120.603 307.72 120.702 307.728L368.331 98.5561Z" fill="url(#paint37_linear_3881_3424)"/>
<path d="M127.457 307.738L348.593 133.378C352.132 120.131 359.04 108.258 368.348 98.7432C368.34 98.6813 368.336 98.6195 368.327 98.5576L120.702 307.73C122.063 307.796 124.319 307.849 127.457 307.738Z" fill="#FCE2A6"/>
</g>
<defs>
<linearGradient id="paint0_linear_3881_3424" x1="591.812" y1="725.767" x2="612.173" y2="904.866" gradientUnits="userSpaceOnUse">
<stop stop-color="#0067AF"/>
<stop offset="1" stop-color="#3AB6A8"/>
</linearGradient>
<linearGradient id="paint1_linear_3881_3424" x1="567.832" y1="728.494" x2="588.193" y2="907.594" gradientUnits="userSpaceOnUse">
<stop stop-color="#0067AF"/>
<stop offset="1" stop-color="#3AB6A8"/>
</linearGradient>
<linearGradient id="paint2_linear_3881_3424" x1="572.837" y1="727.924" x2="593.198" y2="907.023" gradientUnits="userSpaceOnUse">
<stop stop-color="#0067AF"/>
<stop offset="1" stop-color="#3AB6A8"/>
</linearGradient>
<linearGradient id="paint3_linear_3881_3424" x1="568.766" y1="652.743" x2="493.845" y2="881.184" gradientUnits="userSpaceOnUse">
<stop stop-color="#0067AF"/>
<stop offset="1" stop-color="#3AB6A8"/>
</linearGradient>
<linearGradient id="paint4_linear_3881_3424" x1="553.294" y1="730.148" x2="573.655" y2="909.248" gradientUnits="userSpaceOnUse">
<stop stop-color="#0067AF"/>
<stop offset="1" stop-color="#3AB6A8"/>
</linearGradient>
<linearGradient id="paint5_linear_3881_3424" x1="549.868" y1="646.544" x2="474.945" y2="874.988" gradientUnits="userSpaceOnUse">
<stop stop-color="#0067AF"/>
<stop offset="1" stop-color="#3AB6A8"/>
</linearGradient>
<linearGradient id="paint6_linear_3881_3424" x1="562.325" y1="729.12" x2="582.686" y2="908.219" gradientUnits="userSpaceOnUse">
<stop stop-color="#0067AF"/>
<stop offset="1" stop-color="#3AB6A8"/>
</linearGradient>
<linearGradient id="paint7_linear_3881_3424" x1="561.964" y1="650.512" x2="487.046" y2="878.956" gradientUnits="userSpaceOnUse">
<stop stop-color="#0067AF"/>
<stop offset="1" stop-color="#3AB6A8"/>
</linearGradient>
<linearGradient id="paint8_linear_3881_3424" x1="545.846" y1="645.228" x2="470.93" y2="873.668" gradientUnits="userSpaceOnUse">
<stop stop-color="#0067AF"/>
<stop offset="1" stop-color="#3AB6A8"/>
</linearGradient>
<linearGradient id="paint9_linear_3881_3424" x1="546.345" y1="730.939" x2="566.706" y2="910.034" gradientUnits="userSpaceOnUse">
<stop stop-color="#0067AF"/>
<stop offset="1" stop-color="#3AB6A8"/>
</linearGradient>
<linearGradient id="paint10_linear_3881_3424" x1="558.163" y1="649.267" x2="483.243" y2="877.706" gradientUnits="userSpaceOnUse">
<stop stop-color="#0067AF"/>
<stop offset="1" stop-color="#3AB6A8"/>
</linearGradient>
<linearGradient id="paint11_linear_3881_3424" x1="552.634" y1="730.222" x2="572.995" y2="909.322" gradientUnits="userSpaceOnUse">
<stop stop-color="#0067AF"/>
<stop offset="1" stop-color="#3AB6A8"/>
</linearGradient>
<linearGradient id="paint12_linear_3881_3424" x1="549.569" y1="646.447" x2="474.651" y2="874.892" gradientUnits="userSpaceOnUse">
<stop stop-color="#0067AF"/>
<stop offset="1" stop-color="#3AB6A8"/>
</linearGradient>
<linearGradient id="paint13_linear_3881_3424" x1="554.684" y1="729.991" x2="575.045" y2="909.09" gradientUnits="userSpaceOnUse">
<stop stop-color="#0067AF"/>
<stop offset="1" stop-color="#3AB6A8"/>
</linearGradient>
<linearGradient id="paint14_linear_3881_3424" x1="558.179" y1="649.27" x2="483.262" y2="877.713" gradientUnits="userSpaceOnUse">
<stop stop-color="#0067AF"/>
<stop offset="1" stop-color="#3AB6A8"/>
</linearGradient>
<linearGradient id="paint15_linear_3881_3424" x1="591.811" y1="725.769" x2="612.172" y2="904.868" gradientUnits="userSpaceOnUse">
<stop stop-color="#0067AF"/>
<stop offset="1" stop-color="#3AB6A8"/>
</linearGradient>
<linearGradient id="paint16_linear_3881_3424" x1="567.831" y1="728.495" x2="588.192" y2="907.595" gradientUnits="userSpaceOnUse">
<stop stop-color="#0067AF"/>
<stop offset="1" stop-color="#3AB6A8"/>
</linearGradient>
<linearGradient id="paint17_linear_3881_3424" x1="572.835" y1="727.926" x2="593.196" y2="907.025" gradientUnits="userSpaceOnUse">
<stop stop-color="#0067AF"/>
<stop offset="1" stop-color="#3AB6A8"/>
</linearGradient>
<linearGradient id="paint18_linear_3881_3424" x1="568.765" y1="652.744" x2="493.844" y2="881.185" gradientUnits="userSpaceOnUse">
<stop stop-color="#0067AF"/>
<stop offset="1" stop-color="#3AB6A8"/>
</linearGradient>
<linearGradient id="paint19_linear_3881_3424" x1="553.293" y1="730.149" x2="573.654" y2="909.249" gradientUnits="userSpaceOnUse">
<stop stop-color="#0067AF"/>
<stop offset="1" stop-color="#3AB6A8"/>
</linearGradient>
<linearGradient id="paint20_linear_3881_3424" x1="549.866" y1="646.546" x2="474.944" y2="874.989" gradientUnits="userSpaceOnUse">
<stop stop-color="#0067AF"/>
<stop offset="1" stop-color="#3AB6A8"/>
</linearGradient>
<linearGradient id="paint21_linear_3881_3424" x1="562.323" y1="729.121" x2="582.684" y2="908.22" gradientUnits="userSpaceOnUse">
<stop stop-color="#0067AF"/>
<stop offset="1" stop-color="#3AB6A8"/>
</linearGradient>
<linearGradient id="paint22_linear_3881_3424" x1="561.963" y1="650.514" x2="487.045" y2="878.957" gradientUnits="userSpaceOnUse">
<stop stop-color="#0067AF"/>
<stop offset="1" stop-color="#3AB6A8"/>
</linearGradient>
<linearGradient id="paint23_linear_3881_3424" x1="545.845" y1="645.23" x2="470.929" y2="873.67" gradientUnits="userSpaceOnUse">
<stop stop-color="#0067AF"/>
<stop offset="1" stop-color="#3AB6A8"/>
</linearGradient>
<linearGradient id="paint24_linear_3881_3424" x1="546.344" y1="730.94" x2="566.705" y2="910.035" gradientUnits="userSpaceOnUse">
<stop stop-color="#0067AF"/>
<stop offset="1" stop-color="#3AB6A8"/>
</linearGradient>
<linearGradient id="paint25_linear_3881_3424" x1="558.161" y1="649.268" x2="483.241" y2="877.707" gradientUnits="userSpaceOnUse">
<stop stop-color="#0067AF"/>
<stop offset="1" stop-color="#3AB6A8"/>
</linearGradient>
<linearGradient id="paint26_linear_3881_3424" x1="552.633" y1="730.224" x2="572.994" y2="909.324" gradientUnits="userSpaceOnUse">
<stop stop-color="#0067AF"/>
<stop offset="1" stop-color="#3AB6A8"/>
</linearGradient>
<linearGradient id="paint27_linear_3881_3424" x1="549.568" y1="646.449" x2="474.65" y2="874.893" gradientUnits="userSpaceOnUse">
<stop stop-color="#0067AF"/>
<stop offset="1" stop-color="#3AB6A8"/>
</linearGradient>
<linearGradient id="paint28_linear_3881_3424" x1="554.683" y1="729.993" x2="575.044" y2="909.092" gradientUnits="userSpaceOnUse">
<stop stop-color="#0067AF"/>
<stop offset="1" stop-color="#3AB6A8"/>
</linearGradient>
<linearGradient id="paint29_linear_3881_3424" x1="558.178" y1="649.271" x2="483.26" y2="877.715" gradientUnits="userSpaceOnUse">
<stop stop-color="#0067AF"/>
<stop offset="1" stop-color="#3AB6A8"/>
</linearGradient>
<linearGradient id="paint30_linear_3881_3424" x1="380.786" y1="551.277" x2="515.748" y2="420.653" gradientUnits="userSpaceOnUse">
<stop stop-color="#15FF86"/>
<stop offset="1" stop-color="#1887C8"/>
</linearGradient>
<linearGradient id="paint31_linear_3881_3424" x1="395.661" y1="271.874" x2="469.434" y2="69.3417" gradientUnits="userSpaceOnUse">
<stop stop-color="#0067AF"/>
<stop offset="1" stop-color="#51F4E9"/>
</linearGradient>
<linearGradient id="paint32_linear_3881_3424" x1="516.516" y1="356.283" x2="587.488" y2="818.083" gradientUnits="userSpaceOnUse">
<stop stop-color="#FFCE4B"/>
<stop offset="1" stop-color="#BC25C1"/>
</linearGradient>
<linearGradient id="paint33_linear_3881_3424" x1="374.16" y1="405.255" x2="275.507" y2="361.889" gradientUnits="userSpaceOnUse">
<stop stop-color="#003780"/>
<stop offset="1" stop-color="#C13FF9"/>
</linearGradient>
<linearGradient id="paint34_linear_3881_3424" x1="360.016" y1="608.091" x2="622.2" y2="608.091" gradientUnits="userSpaceOnUse">
<stop offset="0.07" stop-color="#188FC4"/>
<stop offset="1" stop-color="#15FF86"/>
</linearGradient>
<linearGradient id="paint35_linear_3881_3424" x1="-68.4973" y1="325.28" x2="429.962" y2="66.5154" gradientUnits="userSpaceOnUse">
<stop stop-color="#FFCE4B"/>
<stop offset="1" stop-color="#B91C58"/>
</linearGradient>
<linearGradient id="paint36_linear_3881_3424" x1="6.19007" y1="353.55" x2="450.706" y2="122.755" gradientUnits="userSpaceOnUse">
<stop stop-color="#FFCE4B"/>
<stop offset="1" stop-color="#B91C58"/>
</linearGradient>
<linearGradient id="paint37_linear_3881_3424" x1="-4.76693" y1="332.444" x2="439.749" y2="101.653" gradientUnits="userSpaceOnUse">
<stop stop-color="#FFCE4B"/>
<stop offset="1" stop-color="#B91C58"/>
</linearGradient>
<clipPath id="clip0_3881_3424">
<rect width="679.138" height="812.08" fill="white" transform="translate(120.415 40.3857)"/>
</clipPath>
</defs>
</svg>
