<svg width="512" height="512" viewBox="0 0 512 512" fill="none" xmlns="http://www.w3.org/2000/svg">
<rect width="512" height="512" rx="256" fill="#2C3CFE"/>
<path d="M256.716 287.424H177.673C167.009 287.424 157.353 279.394 155.191 268.89C154.717 266.608 154.42 264.208 154.45 261.808C154.524 252.578 154.494 243.348 154.48 234.118C154.48 227.525 149.666 221.836 143.194 220.488C141.358 220.103 139.536 219.999 137.685 219.999C129.998 219.999 122.311 220.132 114.625 219.895C108.049 219.703 102.747 216.562 98.4667 211.673C96.3744 209.286 94.8098 206.484 93.8754 203.45C93.2238 201.332 92.8387 199.11 92.8091 196.902C92.7202 189.909 92.5869 182.902 92.8091 175.909C93.1941 164.753 100.673 155.434 111.915 153.182C113.203 152.93 114.551 152.99 115.884 152.99C123.304 152.975 130.724 153.064 138.144 152.945C141.091 152.901 144.098 152.634 146.749 151.167C151.547 148.486 154.465 144.545 154.48 138.841C154.48 130.574 154.406 122.292 154.524 114.025C154.569 110.218 155.146 106.381 156.864 102.958C159.234 98.2471 162.759 94.4988 167.528 92.0691C171.067 90.2616 174.844 89.4912 178.813 89.4912H333.567C344.675 89.4912 354.035 96.7803 356.627 107.566C357.116 109.61 357.323 111.744 357.353 113.848C357.442 119.892 357.323 125.937 357.397 131.981C357.486 139.922 354.643 146.5 348.496 151.552C345.268 154.219 341.565 155.76 337.374 156.442C333.819 157.019 330.294 156.871 326.769 156.871C283.241 156.901 239.714 156.871 196.186 156.901C188.766 156.901 181.346 156.842 173.926 157.034C167.365 157.212 161.441 162.264 160.433 168.901C160.196 170.427 160.152 171.953 160.152 173.479C160.152 184.25 160.315 195.021 160.093 205.776C159.93 213.184 166.891 220.073 174.414 220.058C227.066 219.94 279.702 219.97 332.353 220.029C340.143 220.029 346.926 222.607 352.006 228.844C355.546 233.185 357.308 238.178 357.353 243.748C357.427 253.452 357.442 263.156 357.353 272.86C357.279 280.223 364.403 286.905 371.008 286.831C379.272 286.742 387.551 286.624 395.815 286.861C407.545 287.201 417.468 295.35 418.742 307.632C419.601 315.973 419.334 324.373 418.949 332.729C418.52 341.899 411.826 350.418 402.539 353.085C399.814 353.87 397.104 354.285 394.275 354.255C388.336 354.196 382.397 354.107 376.458 354.255C365.528 354.537 356.716 347.9 353.221 338.67C352.214 336.003 351.74 333.144 351.725 330.299C351.666 320.758 351.606 311.202 351.725 301.661C351.814 294.757 346.023 288.357 339.699 287.69C338.277 287.542 336.87 287.409 335.433 287.409H256.701L256.716 287.424Z" fill="white"/>
<path d="M256.242 422.48C230.531 422.48 204.835 422.45 179.124 422.509C174.415 422.509 170.001 421.68 165.987 419.191C160.863 416.006 157.338 411.561 155.665 405.739C154.82 402.835 154.524 399.842 154.494 396.835C154.465 391.264 154.406 385.693 154.509 380.138C154.569 376.982 154.894 373.767 156.035 370.819C158.167 365.293 161.752 360.907 167.098 358.122C170.623 356.285 174.355 355.47 178.354 355.47C230.087 355.515 281.82 355.515 333.538 355.47C343.046 355.47 349.992 359.781 354.583 367.885C356.435 371.145 357.382 374.819 357.382 378.656C357.353 385.501 357.412 392.331 357.382 399.175C357.323 409.353 350.599 418.495 340.898 421.591C338.247 422.435 335.493 422.509 332.738 422.509H256.257L256.242 422.48Z" fill="white"/>
<path d="M385.537 153.004C389.358 153.004 393.164 152.975 396.986 153.004C407.871 153.123 417.839 162.382 418.772 173.242C419.482 181.494 419.29 189.776 418.979 198.013C418.594 208.295 411.692 216.206 402.065 219.184C399.948 219.836 397.741 220.058 395.49 220.029C388.277 219.97 381.064 220.132 373.866 219.925C364.329 219.658 355.383 212.577 352.85 203.11C352.033 200.047 351.639 196.887 351.68 193.717C351.725 188.368 351.606 183.005 351.71 177.657C351.814 172.072 352.969 166.783 356.538 162.249C360.981 156.605 366.58 153.167 373.911 153.034C377.776 152.96 381.642 153.034 385.522 153.034L385.537 153.004Z" fill="white"/>
<path d="M126.355 354.315C122.385 354.315 118.401 354.359 114.432 354.315C106.168 354.226 97.5632 347.781 94.5419 339.722C93.3126 336.462 92.7646 333.114 92.7646 329.662C92.7646 323.514 92.6758 317.365 92.7943 311.217C92.9127 304.402 95.2084 298.387 100.274 293.69C104.598 289.675 109.693 287.394 115.706 287.394C122.652 287.394 129.598 287.349 136.529 287.394C145.89 287.483 152.91 291.72 157.412 299.854C159.175 303.039 160.152 306.595 160.152 310.328C160.152 317.217 160.256 324.121 160.122 331.01C159.93 341.648 153.798 349.84 143.875 353.426C141.595 354.255 139.136 354.433 136.692 354.404C133.242 354.359 129.806 354.404 126.355 354.404V354.315Z" fill="white"/>
</svg>
