<svg width="48" height="50" viewBox="0 0 48 50" fill="none" xmlns="http://www.w3.org/2000/svg">
<path d="M24 1.58362C36.8979 1.58362 47.3564 12.0679 47.3564 25.0045C47.3564 37.9411 36.8978 48.4254 24 48.4254C11.1022 48.4254 0.643614 37.9411 0.643555 25.0045C0.643555 12.0679 11.1021 1.58362 24 1.58362Z" fill="black" stroke="#B8BFFB" stroke-width="1.28686"/>
<rect x="12.981" y="31.9744" width="1.28524" height="4.7554" rx="0.642622" fill="#B8BFFB" fill-opacity="0.6"/>
<rect x="15.1659" y="31.9744" width="1.28524" height="4.7554" rx="0.642622" fill="#B8BFFB" fill-opacity="0.6"/>
<rect x="17.3506" y="22.4852" width="1.30153" height="14.2445" rx="0.650764" fill="#B8BFFB" fill-opacity="0.6"/>
<rect x="17.3508" y="37.6295" width="1.28524" height="4.7554" rx="0.642622" fill="#B8BFFB" fill-opacity="0.6"/>
<rect x="19.5198" y="22.4852" width="1.30153" height="14.2445" rx="0.650764" fill="#B8BFFB" fill-opacity="0.6"/>
<rect x="19.5357" y="37.6295" width="1.28524" height="4.7554" rx="0.642622" fill="#B8BFFB" fill-opacity="0.6"/>
<rect x="21.7206" y="31.9744" width="1.28524" height="4.7554" rx="0.642622" fill="#B8BFFB" fill-opacity="0.6"/>
<rect x="21.7206" y="22.4636" width="1.28524" height="4.7554" rx="0.642622" fill="#B8BFFB" fill-opacity="0.6"/>
<rect x="23.9055" y="31.9744" width="1.28524" height="4.7554" rx="0.642622" fill="#B8BFFB" fill-opacity="0.6"/>
<rect x="23.9055" y="22.4636" width="1.28524" height="4.7554" rx="0.642622" fill="#B8BFFB" fill-opacity="0.6"/>
<rect x="26.0905" y="7.2977" width="1.28524" height="4.7554" rx="0.642622" fill="#B8BFFB" fill-opacity="0.6"/>
<rect x="26.0905" y="37.6295" width="1.28524" height="4.7554" rx="0.642622" fill="#B8BFFB" fill-opacity="0.6"/>
<rect x="26.0905" y="12.9528" width="1.28524" height="4.7554" rx="0.642622" fill="#B8BFFB" fill-opacity="0.6"/>
<rect x="13.1095" y="12.9528" width="11.9528" height="3.72721" rx="0.642622" fill="#B8BFFB"/>
<rect x="20.821" y="8.3259" width="13.1095" height="3.47016" rx="0.642622" transform="rotate(90 20.821 8.3259)" fill="#B8BFFB"/>
<rect x="26.0905" y="31.9744" width="1.28524" height="4.7554" rx="0.642622" fill="#B8BFFB" fill-opacity="0.6"/>
<rect x="26.0905" y="22.4636" width="1.28524" height="4.7554" rx="0.642622" fill="#B8BFFB" fill-opacity="0.6"/>
<rect x="28.2754" y="12.9528" width="1.28524" height="5.65507" rx="0.642622" fill="#B8BFFB" fill-opacity="0.6"/>
<rect x="28.2754" y="31.0747" width="1.28524" height="5.65507" rx="0.642622" fill="#B8BFFB" fill-opacity="0.6"/>
<rect x="28.2754" y="7.2977" width="1.28524" height="4.7554" rx="0.642622" fill="#B8BFFB" fill-opacity="0.6"/>
<rect x="28.2754" y="37.6295" width="1.28524" height="4.7554" rx="0.642622" fill="#B8BFFB" fill-opacity="0.6"/>
<rect x="28.2754" y="21.5639" width="1.28524" height="6.55474" rx="0.642622" fill="#B8BFFB" fill-opacity="0.6"/>
<rect x="30.4603" y="12.9528" width="1.28524" height="23.777" rx="0.642622" fill="#B8BFFB" fill-opacity="0.6"/>
<rect x="32.6452" y="15.3305" width="1.28524" height="19.0216" rx="0.642622" fill="#B8BFFB" fill-opacity="0.6"/>
<rect x="34.8301" y="17.7082" width="1.28524" height="4.7554" rx="0.642622" fill="#B8BFFB" fill-opacity="0.6"/>
<rect x="34.8301" y="27.219" width="1.28524" height="4.7554" rx="0.642622" fill="#B8BFFB" fill-opacity="0.6"/>
</svg>
