<svg width="100" height="100" viewBox="0 0 100 100" fill="none" xmlns="http://www.w3.org/2000/svg">
<g clip-path="url(#clip0_6976_2134)">
<path d="M98.5034 62.0956C91.8246 88.8813 64.692 105.183 37.9001 98.5031C11.1191 91.825 -5.18421 64.694 1.49775 37.9099C8.17346 11.1211 35.3061 -5.18183 62.0902 1.49623C88.8805 8.17429 105.182 35.3084 98.5034 62.0956Z" fill="url(#paint0_linear_6976_2134)"/>
<path fill-rule="evenodd" clip-rule="evenodd" d="M58.4228 22.9759C58.8696 21.3086 60.5834 20.3192 62.2507 20.7659C63.918 21.2127 64.9075 22.9265 64.4607 24.5938L63.1369 29.5346L63.9579 29.7546C69.8693 31.3385 73.3774 37.4147 71.7934 43.3261L71.7199 43.6006C70.4849 48.2097 66.447 51.3194 61.9315 51.587L61.9304 51.5909L61.8586 51.5913L61.8531 51.5914L61.8311 51.5925C61.5023 51.6195 61.4409 52.0927 61.7686 52.1947L61.7682 52.1965C67.4575 54.4494 70.6788 60.6598 69.0567 66.7135C67.3103 73.2312 60.6109 77.0991 54.0931 75.3527L52.1745 74.8386L50.8509 79.7781C50.4042 81.4454 48.6904 82.4348 47.0231 81.9881C45.3557 81.5413 44.3663 79.8275 44.813 78.1602L46.1366 73.2208L40.647 71.7498L39.3236 76.689C38.8768 78.3563 37.163 79.3458 35.4957 78.899C33.8284 78.4523 32.8389 76.7385 33.2857 75.0712L34.6091 70.132L29.1182 68.6607L29.1182 68.6605L26.1003 67.8518C24.2814 67.3644 23.202 65.4948 23.6894 63.6759C24.1767 61.8571 26.0463 60.7776 27.8652 61.265L30.8832 62.0737L39.4138 30.237L36.6722 29.5024C34.8533 29.015 33.7739 27.1454 34.2613 25.3266C34.7487 23.5077 36.6183 22.4282 38.4372 22.9156L41.1817 23.651L41.1815 23.6517L45.5717 24.828L46.8955 19.8873C47.3423 18.22 49.0561 17.2306 50.7234 17.6773C52.3907 18.1241 53.3802 19.8379 52.9334 21.5052L51.6096 26.4459L57.099 27.9167L58.4228 22.9759ZM43.5995 44.0734C43.0252 41.9301 44.2971 39.7272 46.4403 39.1529L57.6823 36.1406C59.8255 35.5664 62.0285 36.8382 62.6027 38.9814C63.177 41.1247 61.9051 43.3276 59.7619 43.9019L48.5199 46.9142C46.3767 47.4884 44.1737 46.2166 43.5995 44.0734ZM38.4586 62.2523C37.8843 60.1091 39.1562 57.9061 41.2994 57.3319L52.5414 54.3196C54.6846 53.7453 56.8876 55.0172 57.4618 57.1604C58.0361 59.3036 56.7642 61.5066 54.621 62.0808L43.379 65.0931C41.2358 65.6674 39.0328 64.3955 38.4586 62.2523Z" fill="white"/>
</g>
<defs>
<linearGradient id="paint0_linear_6976_2134" x1="50" y1="0" x2="50" y2="100" gradientUnits="userSpaceOnUse">
<stop stop-color="#FEDF70"/>
<stop offset="1" stop-color="#D88528"/>
</linearGradient>
<clipPath id="clip0_6976_2134">
<rect width="100" height="100" fill="white"/>
</clipPath>
</defs>
</svg>
