<svg width="200" height="200" viewBox="0 0 200 200" fill="none" xmlns="http://www.w3.org/2000/svg">
<path d="M83.8174 152.178L69.209 148.453L63.8304 169.84L78.4388 173.565L83.8174 152.178Z" fill="#664AED"/>
<path d="M109.137 158.612L94.5288 154.887L89.1502 176.275L103.759 180L109.137 158.612Z" fill="#146AF4"/>
<path d="M141.459 30.2488L126.851 26.5239L121.472 47.9117L136.081 51.6365L141.459 30.2488Z" fill="#146AF4"/>
<path d="M116.175 23.7249L101.566 20L96.1878 41.3877L110.796 45.1126L116.175 23.7249Z" fill="#664AED"/>
<path d="M117.657 154.272L45 138.576L49.363 123.866L122.02 139.562C128.253 140.927 134.486 137.969 135.91 133.041C137.335 128.112 133.506 123.032 127.273 121.667L81.8627 111.886L86.2257 97.1763L131.636 106.958C148.02 110.521 158.259 124.018 154.342 136.984C150.424 149.95 133.951 157.759 117.568 154.196L117.657 154.272Z" fill="#B9B9FC"/>
<path d="M110.796 45.1705L86.1499 38.8862L59.2116 146.005L83.8576 152.29L110.796 45.1705Z" fill="#664AED"/>
<path d="M115.805 105.901L68.1539 94.4401L72.7322 77.2043L120.384 88.6652C126.924 90.2644 133.465 86.7995 134.96 81.0246C136.455 75.2497 132.437 69.2972 125.896 67.698L59.3711 51.706L63.9494 34.4702L130.475 50.4622C147.667 54.6379 158.412 70.4521 154.301 85.6445C150.189 100.837 132.904 109.988 115.712 105.812L115.805 105.901Z" fill="#9FF7EC"/>
<path d="M110.796 45.1241L86.1499 38.8398L80.9983 59.3252L105.644 65.6094L110.796 45.1241Z" fill="#664AED"/>
</svg>
