<svg width="128" height="128" viewBox="0 0 128 128" fill="none" xmlns="http://www.w3.org/2000/svg">
<path d="M126.084 79.4824C117.535 113.768 82.8057 134.634 48.5121 126.084C14.2325 117.536 -6.63578 82.8083 1.91712 48.5247C10.462 14.235 45.1918 -6.63274 79.4754 1.91517C113.767 10.4631 134.633 45.1947 126.084 79.4824Z" fill="#E5A441"/>
<path d="M97.0356 103.118C88.119 110.656 76.5902 115.2 64 115.2C50.2182 115.2 37.7081 109.755 28.504 100.898L24.883 104.519C35.0142 114.302 48.8043 120.32 64 120.32C78.0043 120.32 90.8148 115.209 100.668 106.75L97.0356 103.118Z" fill="#F4EDFF"/>
<path d="M100.898 28.5041C109.755 37.7082 115.2 50.2182 115.2 64.0001C115.2 77.8439 109.706 90.4044 100.779 99.62L104.399 103.241C114.253 93.0983 120.32 79.2577 120.32 64.0001C120.32 48.8044 114.302 35.0143 104.519 24.8831L100.898 28.5041Z" fill="#F4EDFF"/>
<path d="M100.799 21.363C90.9284 12.8368 78.0664 7.68005 64 7.68005C48.7423 7.68005 34.9018 13.7473 24.7593 23.6007L28.3801 27.2215C37.5957 18.2944 50.1562 12.8001 64 12.8001C76.6523 12.8001 88.2328 17.3893 97.1675 24.9941L100.799 21.363Z" fill="#F4EDFF"/>
<path d="M24.8822 30.9644L21.2503 27.3324C12.7914 37.1853 7.68 49.9958 7.68 64.0001C7.68 78.0664 12.8368 90.9284 21.363 100.799L24.9941 97.1675C17.3893 88.2328 12.8 76.6524 12.8 64.0001C12.8 51.4099 17.3443 39.8811 24.8822 30.9644Z" fill="#F4EDFF"/>
<path fill-rule="evenodd" clip-rule="evenodd" d="M72.2063 36.1887C72.662 34.4881 74.41 33.4789 76.1106 33.9346C77.8111 34.3903 78.8203 36.1382 78.3647 37.8388L77.0154 42.8742L77.8583 43.1C83.8876 44.7156 87.4656 50.913 85.8501 56.9423L85.7751 57.2222C84.5166 61.9191 80.4043 65.0893 75.8036 65.3672L75.8024 65.3717L75.7291 65.3721C75.3694 65.3743 75.294 65.8806 75.6374 65.9875L75.6357 65.9938C81.4317 68.2953 84.7121 74.6255 83.0587 80.7961C81.2775 87.4438 74.4445 91.3889 67.7968 89.6076L65.8259 89.0795L64.4738 94.1258C64.0181 95.8264 62.2701 96.8356 60.5696 96.3799C58.869 95.9242 57.8598 94.1762 58.3155 92.4757L59.6676 87.4294L54.073 85.9304L52.7205 90.9779C52.2648 92.6785 50.5169 93.6877 48.8163 93.232C47.1157 92.7763 46.1065 91.0284 46.5622 89.3278L47.9147 84.2802L42.3237 82.7821L54.6246 36.8746L59.1043 38.0749L60.4531 33.0414C60.9087 31.3408 62.6567 30.3316 64.3573 30.7873C66.0579 31.2429 67.0671 32.9909 66.6114 34.6915L65.2626 39.7251L70.8571 41.2241L72.2063 36.1887ZM50.0153 42.8444C48.1602 42.3473 47.0592 40.4404 47.5563 38.5853C48.0534 36.7301 49.9603 35.6291 51.8155 36.1262L54.6147 36.8763L52.8146 43.5945L50.0153 42.8444ZM39.2382 81.9588C37.383 81.4617 36.2821 79.5548 36.7792 77.6997C37.2763 75.8445 39.1832 74.7435 41.0383 75.2406L44.1175 76.0657L42.3174 82.7839L39.2382 81.9588ZM57.0993 57.7055C56.5136 55.5196 57.8108 53.2727 59.9968 52.6869L71.463 49.6146C73.649 49.0288 75.8959 50.3261 76.4816 52.512C77.0673 54.698 75.7701 56.9449 73.5841 57.5306L62.1179 60.603C59.9319 61.1887 57.685 59.8915 57.0993 57.7055ZM51.8402 76.2423C51.2545 74.0564 52.5518 71.8095 54.7377 71.2238L66.204 68.1514C68.3899 67.5657 70.6368 68.8629 71.2225 71.0489C71.8083 73.2348 70.511 75.4817 68.3251 76.0674L56.8588 79.1398C54.6729 79.7255 52.426 78.4283 51.8402 76.2423Z" fill="#F4EDFF"/>
</svg>
