<svg version="1.2" xmlns="http://www.w3.org/2000/svg" viewBox="0 0 32 32" width="256" height="256">
	<defs>
		<clipPath clipPathUnits="userSpaceOnUse" id="cp1">
			<path d="m16 0c8.84 0 16 7.16 16 16 0 8.84-7.16 16-16 16-8.84 0-16-7.16-16-16 0-8.84 7.16-16 16-16z"/>
		</clipPath>
	</defs>
	<style>
		.s0 { fill: #f7931a } 
		.s1 { fill: #ffffff } 
	</style>
	<g id="Clip-Path" clip-path="url(#cp1)">
		<g>
			<path class="s0" d="m31.52 19.87c-2.14 8.57-10.82 13.79-19.39 11.65-8.57-2.14-13.79-10.82-11.65-19.39 2.14-8.57 10.82-13.79 19.39-11.65 8.57 2.14 13.79 10.82 11.65 19.39z"/>
			<path class="s1" d="m23.06 13.72c0.31-2.13-1.31-3.27-3.52-4.04l0.72-2.88-1.76-0.44-0.7 2.81q-0.7-0.17-1.41-0.33l0.71-2.83-1.76-0.44-0.72 2.89q-0.57-0.13-1.12-0.27v-0.01l-2.42-0.6-0.46 1.88c0 0 1.3 0.29 1.27 0.31 0.71 0.18 0.84 0.65 0.82 1.02l-0.82 3.29q0.08 0.02 0.18 0.06-0.09-0.02-0.18-0.05l-1.15 4.61c-0.09 0.21-0.31 0.54-0.81 0.41 0.02 0.03-1.27-0.32-1.27-0.32l-0.87 2.01 2.28 0.57q0.64 0.17 1.25 0.33l-0.72 2.91 1.75 0.44 0.72-2.89q0.72 0.2 1.4 0.37l-0.72 2.87 1.76 0.44 0.72-2.91c3 0.56 5.25 0.33 6.2-2.37 0.76-2.18-0.04-3.44-1.62-4.26 1.15-0.27 2.02-1.02 2.25-2.58zm-4.02 5.63c-0.54 2.18-4.21 1-5.4 0.7l0.96-3.86c1.19 0.29 5.01 0.88 4.44 3.16zm0.55-5.66c-0.5 1.98-3.55 0.97-4.54 0.73l0.87-3.51c0.99 0.25 4.18 0.71 3.67 2.78z"/>
		</g>
	</g>
</svg>