<svg width="391" height="391" viewBox="0 0 391 391" fill="none" xmlns="http://www.w3.org/2000/svg">
<g clip-path="url(#clip0_288_333)">
<path d="M195.5 391C303.472 391 391 303.472 391 195.5C391 87.5283 303.472 0 195.5 0C87.5283 0 0 87.5283 0 195.5C0 303.472 87.5283 391 195.5 391Z" fill="#075A5A"/>
<g style="mix-blend-mode:screen" opacity="0.3">
<path opacity="0.8" d="M201.583 20.4868V149.853L310.924 198.715L201.583 20.4868Z" fill="white"/>
<path d="M201.583 20.4868L92.2233 198.715L201.583 149.853V20.4868Z" fill="white"/>
<path opacity="0.8" d="M201.583 282.549V370.454L311 219.072L201.583 282.549Z" fill="white"/>
<path d="M201.583 370.454V282.537L92.2232 219.072L201.583 370.454Z" fill="white"/>
<path opacity="0.5" d="M201.583 262.205L310.923 198.715L201.583 149.885V262.205Z" fill="white"/>
<path d="M92.2236 198.715L201.583 262.205V149.885L92.2236 198.715Z" fill="white" fill-opacity="0.3"/>
</g>
<g style="mix-blend-mode:screen" opacity="0.3">
<path opacity="0.8" d="M201.585 27V146.905L302.929 192.194L201.585 27Z" fill="white"/>
<path d="M201.585 27L100.223 192.194L201.585 146.905V27Z" fill="white"/>
<path opacity="0.8" d="M201.588 288.452V361.089L292 236L201.588 288.452Z" fill="white"/>
<path d="M201.588 361.089V288.441L111.223 236L201.588 361.089Z" fill="white"/>
<path opacity="0.5" d="M201.585 258.106L302.929 199.259L201.585 154V258.106Z" fill="white"/>
<path d="M100.223 199.259L201.585 258.106V154L100.223 199.259Z" fill="white" fill-opacity="0.3"/>
</g>
<path d="M201.589 58.8782V159.862L286.941 198.003L201.589 58.8782Z" fill="#C1DCDC"/>
<path d="M201.589 58.8782L116.223 198.003L201.589 159.862V58.8782Z" fill="white"/>
<path d="M201.589 263.444V332.063L287 213.894L201.589 263.444Z" fill="#C1DCDC"/>
<path d="M201.589 332.063V263.434L116.223 213.894L201.589 332.063Z" fill="white"/>
<path opacity="0.5" d="M201.589 247.563L286.941 198.003L201.589 159.886V247.563Z" fill="white"/>
<path d="M116.223 198.003L201.589 247.563V159.886L116.223 198.003Z" fill="white" fill-opacity="0.3"/>
</g>
<defs>
<clipPath id="clip0_288_333">
<rect width="391" height="391" fill="white"/>
</clipPath>
</defs>
</svg>
