<?xml version="1.0" encoding="UTF-8" standalone="no"?>
<svg
   fill="none"
   viewBox="0 0 444 443"
   style="max-height: 500px"
   width="444"
   height="443"
   version="1.1"
   id="svg6"
   sodipodi:docname="MegaSIR.svg"
   xml:space="preserve"
   inkscape:version="1.4.2 (f4327f4, 2025-05-13)"
   xmlns:inkscape="http://www.inkscape.org/namespaces/inkscape"
   xmlns:sodipodi="http://sodipodi.sourceforge.net/DTD/sodipodi-0.dtd"
   xmlns="http://www.w3.org/2000/svg"
   xmlns:svg="http://www.w3.org/2000/svg"><defs
     id="defs6"><clipPath
       clipPathUnits="userSpaceOnUse"
       id="clipPath1"><path
         fill="#383838"
         d="m 203.74584,186.57409 v -28.48934 c 0,-35.26842 3.58966,-70.446509 10.71478,-104.989492 l 6.10088,-29.581668 16.81567,-65.224899 c 0,-9.005548 -7.30022,-16.306046 -16.30564,-16.306046 H 203.74584 153.29886 L 133.68568,25.664883 C 121.32408,78.407694 115.08144,132.40126 115.08144,186.57409 Z"
         id="path7"
         style="stroke-width:1.38972" /></clipPath></defs><sodipodi:namedview
     id="namedview6"
     pagecolor="#ffffff"
     bordercolor="#999999"
     borderopacity="1"
     inkscape:showpageshadow="2"
     inkscape:pageopacity="0"
     inkscape:pagecheckerboard="0"
     inkscape:deskcolor="#d1d1d1"
     inkscape:zoom="0.10369639"
     inkscape:cx="125.36599"
     inkscape:cy="139.83129"
     inkscape:window-width="1920"
     inkscape:window-height="1111"
     inkscape:window-x="-9"
     inkscape:window-y="-9"
     inkscape:window-maximized="1"
     inkscape:current-layer="svg6" /><circle
     fill="#e0e0e0"
     r="220"
     cy="221.5"
     cx="222"
     id="circle1" /><g
     transform="translate(44 34)"
     id="g6"><path
       fill="#C6A85B"
       d="M66 275L77 220H275L288.2 275L263.439 278.994C234.526 283.657 205.286 286 176 286C146.717 286 117.484 283.581 88.5987 278.766L66 275Z"
       id="path1" /><path
       fill="black"
       d="M272.8 220V199.5C272.8 174.122 275.383 148.809 280.51 123.953L284.9 102.667L297 55.7333C297 49.2532 291.747 44 285.267 44H272.8H236.5H176H115.5H79.2H66.7333C60.2532 44 55 49.2532 55 55.7333L67.1 102.667L71.4903 123.953C76.6168 148.809 79.2 174.122 79.2 199.5V220H272.8Z"
       id="path2" /><path
       fill="black"
       d="M253.854 272.629L242 275C198.301 282.283 153.699 282.283 110 275L98.1455 272.629C69.452 266.89 40.2618 264 11 264C3.95258 264 0.96206 272.972 6.6 277.2L30.049 294.787C31.994 296.245 34.2276 297.273 36.6009 297.8L98.6071 311.579C120.802 316.512 143.471 319 166.208 319H176H185.792C208.529 319 231.198 316.512 253.393 311.579L315.399 297.8C317.772 297.273 320.006 296.245 321.951 294.787L345.4 277.2C351.038 272.972 348.047 264 341 264C311.738 264 282.548 266.89 253.854 272.629Z"
       id="path3" /><path
       fill="#383838"
       d="M272.8 220V199.5C272.8 174.122 275.383 148.809 280.51 123.953L284.9 102.667L297 55.7333C297 49.2532 291.747 44 285.267 44H272.8H236.5L222.387 104.215C213.492 142.167 209 181.019 209 220H272.8Z"
       id="path4" /><path
       fill="#E7CE8F"
       d="M286 264L230.436 282.521C223.524 284.825 216.286 286 209 286V220H275L286 264Z"
       id="path5" /><path
       fill="#383838"
       d="M253.854 272.629L242 275L209 279.4V297L220 317.02L269.5 307.01L315.228 297.763C317.711 297.261 320.052 296.211 322.079 294.691L345.4 277.2C351.038 272.972 348.047 264 341 264C311.738 264 282.548 266.89 253.854 272.629Z"
       id="path6" /></g><g
     style="display:inline;fill:#dfd9d9;fill-opacity:0.7973761"
     id="g1"
     transform="matrix(1.8535734,0,0,1.8535734,124.49824,76.471182)"><path
       d="m 62.7534,81.6321 c 3.2247,0 5.8291,-2.6024 5.8291,-5.8126 0,-3.2102 -2.6044,-5.8127 -5.8291,-5.8127 -3.1998,0 -5.8042,2.6025 -5.8042,5.8127 0,3.2102 2.6044,5.8126 5.8042,5.8126 z"
       fill="#19191a"
       id="path1-09"
       style="fill:#dfd9d9;fill-opacity:0.7973761" /><path
       d="m 41.8648,81.805 c 3.2246,0 5.8045,-2.6024 5.8045,-5.8127 0,-3.2102 -2.5799,-5.8126 -5.8045,-5.8126 -3.1998,0 -5.8043,2.6024 -5.8043,5.8126 0,3.2103 2.6045,5.8127 5.8043,5.8127 z"
       fill="#19191a"
       id="path2-4"
       style="fill:#dfd9d9;fill-opacity:0.7973761" /><path
       d="m 29.1376,21.0791 h 13.8479 c 2.6058,7.0495 9.4056,27.023 9.9019,28.1359 0.1241,-0.5564 6.9734,-22.3231 8.9092,-28.0122 H 76.1904 V 70.8582 C 74.4036,69.8687 72.6166,68.8795 70.6809,67.7662 69.3407,67.0863 68.1,66.344 66.7351,65.7875 66.611,56.1409 66.487,46.5561 66.1892,36.5385 64.2535,42.2894 57.5776,62.5721 57.0316,63.1286 h -8.9091 c 0,0 -8.6612,-24.6114 -9.0831,-25.7244 -0.124,9.4611 -0.2481,18.9222 -0.5707,28.6926 -5.3108,2.7207 -8.4624,4.2667 -9.455,4.6376 V 21.0791 Z"
       fill="#19191a"
       id="path3-8"
       style="fill:#dfd9d9;fill-opacity:0.7973761" /></g><path
     id="path8"
     style="max-height:500px;fill:#dfd9d9;fill-opacity:1"
     d="M 221.72266 107.08594 C 217.12339 127.23564 213.76263 147.63408 211.6543 168.16406 C 215.18689 170.19392 218.45511 172.00299 221.72266 173.8125 L 221.72266 107.08594 z "
     transform="translate(44,34)" /></svg>
