<svg xmlns="http://www.w3.org/2000/svg" width="1021" height="1021" fill="none"><g clip-path="url(#a)"><path fill="#292929" stroke="#292929" stroke-width="10.667" d="M510 1015c278.904 0 505-226.096 505-505S788.904 5 510 5 5 231.096 5 510s226.096 505 505 505Z"/><path fill="#fff" d="M430.37 100v38.474l-1.365 1.012c-93.091 19.673-176.275 75.89-230.539 153.497-86.596 123.87-90.95 288.992-10.778 417.239 53.723 85.914 141.637 148.767 241.317 169.687l1.365 1.035v38.475c-104.221-19.249-198.607-80.738-260.142-166.322C62.335 603.036 66.336 398.122 180.441 252.744c61.676-78.549 151.19-134.483 249.953-152.72l-.024-.024Zm159.499 819.393v-39.651c98.504-20.402 186.465-82.831 239.999-167.427 85.232-134.743 76.949-309.371-20.99-434.983-54.146-69.441-132.318-119.399-218.844-137.801l-.141-39.51c105.445 20.685 200.301 82.549 261.718 170.299 101.987 145.661 100.339 340.479-3.976 484.375-61.559 84.902-154.533 144.414-257.766 164.745v-.047Z"/><g filter="url(#b)"><path fill="#D1F019" d="M540.424 481.574c62.733 11.501 118.146 30.32 117.623 104.031-.523 60.641-44.435 104.031-113.963 113.441v54.89H479.26v-55.413c-71.619-11.501-115.009-56.459-115.531-120.76l76.847 1.046c2.613 35.548 30.843 60.118 75.801 60.118 36.071 0 62.732-15.683 62.732-44.435 0-30.843-29.798-37.117-90.962-49.14-61.686-11.501-116.054-31.366-116.054-105.6 0-56.981 41.299-99.326 107.167-108.735v-55.414h64.824v55.936c65.346 10.979 105.599 52.277 106.644 112.396h-76.847c-3.659-30.844-27.183-52.277-65.346-52.277-33.457 0-57.504 14.114-57.504 42.344 0 29.798 28.752 36.071 89.393 47.572Z"/></g></g><defs><clipPath id="a"><path fill="#fff" d="M0 0h1021v1021H0z"/></clipPath><filter id="b" width="307.778" height="491.789" x="357.001" y="275.603" color-interpolation-filters="sRGB" filterUnits="userSpaceOnUse"><feFlood flood-opacity="0" result="BackgroundImageFix"/><feColorMatrix in="SourceAlpha" result="hardAlpha" values="0 0 0 0 0 0 0 0 0 0 0 0 0 0 0 0 0 0 127 0"/><feOffset dy="6.728"/><feGaussianBlur stdDeviation="3.364"/><feComposite in2="hardAlpha" operator="out"/><feColorMatrix values="0 0 0 0 0 0 0 0 0 0 0 0 0 0 0 0 0 0 0.25 0"/><feBlend in2="BackgroundImageFix" result="effect1_dropShadow_215_15"/><feBlend in="SourceGraphic" in2="effect1_dropShadow_215_15" result="shape"/></filter></defs></svg>