<svg xmlns="http://www.w3.org/2000/svg" fill="none" viewBox="0 0 605 605">
  <path fill="#EA3249" d="M279.902 47.6c-8.2 22.5-12.1 44.5-10.9 67.2.4 7.5 2.1 15.2 4.8 22.2 3.8 9.9 11.9 13.1 22 9.7 19-6.5 29.8-20.7 33.2-39.7 6.9-38.7-4.4-72.6-29.3-102.4-.8-1-1.8-2-2.7-3 0-.1 0-.3.6-1.6 8.4 5.8 17.1 11.1 25 17.5 17.7 14.1 32 31 40.4 52.4 9.1 23.3 5.8 44.7-11.5 62.9-9 9.5-19.6 17.5-29.3 26.3-6.4 5.8-13.2 11.4-18.7 18-11.2 13.4-14.2 29.2-8.1 45.4 4 10.8 10.1 20.9 16 30.9 6.1 10.3 13.1 20.1 19.7 30.1 30.3 46 18.8 97.8-8.6 132.5-5.1 6.5-11 12.5-17.2 18.2 2.5-8.5 5.2-16.8 7.3-25.4 5.4-21.8 7-43.7-.8-65.4-7.3-20.4-21.5-35.4-38.6-47.9-12.2-8.9-25.3-16.7-37.5-25.7-10.1-7.5-20-15.6-28.8-24.5-9.1-9.2-13.4-21.2-14.1-34.4-1.9-40.3 10.8-75.9 34-108.3 14.7-20.6 32.8-38 52.9-55h.2Z"/>
  <path fill="#EA3249" d="M303.502 572.9c7.4-8.2 14-15.4 20.4-22.8.8-.9.8-3.3.2-4.3-10-14.3-7.8-30.9-8.5-46.8-.2-4.4 3-10.1 6.4-13.4 6.6-6.2 14-11.8 21.8-16.4 13.5-7.8 26.3-16.3 37.6-27.1 1.3-1.2 3.5-2.3 5.1-2.1 1 .1 2 2.7 2.5 4.3 1.7 6.4-.2 12.5-4.1 17.4-6.2 7.7-13.3 14.8-20 22.2-2.5 2.8-7.3 4.9-4.5 9.8 2.8 5 7.1 1.9 10.7.9 8.5-2.4 16.8-5.3 25.3-7.6 6.5-1.8 10.6-5.7 13.2-11.8 9.8-23.7 19.6-47.3 29.7-70.8 2.1-4.8 4.7-9.6 7.9-13.7 1.5-2 5-2.4 7.6-3.5.6 2.6 2.1 5.3 1.7 7.7-5.8 35.4-11.9 70.8-17.9 106.2-1.3 8.1-5.5 13.2-13.5 15.4-38.2 10.8-69.9 32.1-96.7 61.1-8.2 8.9-16.4 17.9-25 27.3-7.2-7.8-14.2-15.3-21.1-23-24.2-27.3-52.6-48.4-87-61.1-4.5-1.7-9.1-3.1-13.8-4.4-7.6-2.1-11.9-6.9-13.1-14.6-4.4-26.2-8.8-52.5-13.3-78.7-1.5-8.9-3-17.7-4.5-26.6-.3-1.8-.6-3.6-.6-5.4.1-3.9 2.9-5.8 6-3.4s6.2 5.4 7.7 8.8c6.6 14.5 12.7 29.2 19 43.9 4.9 11.6 9.9 23.3 14.6 35 2.4 6 6.6 9.7 12.8 11.5 9.6 2.7 19.1 5.8 28.6 8.8 3.1 1 6 1.2 7.8-2.1 1.7-3.1-.2-5.3-2.3-7.4-6.1-6.1-12.5-12-18.2-18.5-5.8-6.6-10.3-14-8.3-23.5 1.2-5.4 3.4-6 7.4-2.2 11.4 11 24.3 19.6 37.9 27.5 7.6 4.4 14.6 9.9 21.3 15.6 5.9 5 8 11.9 7.2 19.8-.9 8.4-.7 17-2.1 25.4-.8 4.9-3.6 9.5-6.1 14-1.7 3.1-1.8 5.3.7 7.9 6.3 6.6 12.4 13.4 19.4 21l.1-.3Z"/>
  <path fill="#EA3249" d="M392.202 119.6c-11.4 18.5-19.5 38.1-19.7 60.1-.2 33.4 13.4 60.5 38.5 82.1 1.9 1.6 4.1 2.8 6.3 4 10.9 5.6 18.9 4 26.2-5.9 8.8-11.8 13.3-25.6 16.7-39.7.2-.8.4-1.5.7-2.6 37.4 99.1-25.8 200.7-132.9 217.1 7.3-9.1 15.6-18.2 22.5-28.3 18-26.1 27.5-55.2 27.5-87.1 0-18.7-4.9-36.2-13.6-52.6-5.3-10-11-19.8-15.9-30-15.9-32.4-11.7-63 12.2-90.2 9.2-10.4 19.6-19.4 31.3-26.8l.2-.1Zm-229.1 71c-21 43.2-14.6 84.2 8.3 124 6.5 11.3 14.5 21.6 25.3 29.3 11.9 8.6 23.6 7.5 33.4-3.4 9.3-10.4 13.3-22.1 7.3-35.8 29.5 5.7 56.7 37 58.6 66.8 1.3 21.2-3.8 40.9-12.4 60-1.4 3.2-3 3.8-6.5 3.1-72.4-14.3-120.2-56.3-140-127.5-11.5-41.5-3.6-80.5 24.1-114.5.4-.5.8-1 1.3-1.5 0-.1.3-.1.7-.3l-.1-.2Z"/>
</svg>