<svg xmlns="http://www.w3.org/2000/svg" viewBox="0 0 390.2 390.2"><style>.st0{fill:#111;stroke:#111;stroke-width:7.0571;}.st1{fill:url(#SVGID_1_);fill-opacity:.7;}.st2{fill:none;stroke:url(#SVGID_2_);stroke-width:7.1464;}.st3{fill-rule:evenodd;clip-rule:evenodd;fill:#FFF;}</style><path class="st0" d="M195.1 3.5L195.1 3.5c105.8 0 191.6 85.8 191.6 191.6v0c0 105.8-85.8 191.6-191.6 191.6h0C89.3 386.7 3.5 300.9 3.5 195.1v0C3.5 89.3 89.3 3.5 195.1 3.5z"/><radialGradient id="SVGID_1_" cx="-109.5109" cy="592.3765" r="1" gradientTransform="matrix(2.5e-14 411.352 289.55 -1.77e-14 -171327.0781 45104.4883)" gradientUnits="userSpaceOnUse"><stop offset="3.125e-02" style="stop-color:#3A3A3A"/><stop offset="1" style="stop-color:#1C1C1C"/></radialGradient><path class="st1" d="M195.1 0L195.1 0C87.3 0 0 87.3 0 195.1v0c0 107.7 87.3 195.1 195.1 195.1h0c107.7 0 195.1-87.3 195.1-195.1v0C390.2 87.3 302.8 0 195.1 0z"/><linearGradient id="SVGID_2_" gradientUnits="userSpaceOnUse" x1="195.0981" y1="395.6811" x2="195.0981" y2="-1.878" gradientTransform="matrix(1 0 0 -1 0 392)"><stop offset="0" style="stop-color:#FFF"/><stop offset="1" style="stop-color:#111"/></linearGradient><path class="st2" d="M195.1 3.6L195.1 3.6c105.8 0 191.5 85.7 191.5 191.5v0c0 105.8-85.7 191.5-191.5 191.5h0C89.3 386.6 3.6 300.9 3.6 195.1v0C3.6 89.3 89.3 3.6 195.1 3.6z"/><path class="st3" d="M152.4 104.4h-4.2l-2.7 3.2-69.6 81.7-5 5.8 5 5.8 69.6 81.7 2.7 3.2h4.2h125.3h9v-9v-52h-18v43h-96.6l57.8-66.8 5.1-5.9-5.1-5.9-57.8-66.8h96.6v43h18v-52v-9h-9H152.4zM152.5 127.2l-57.8 67.9 57.8 67.9 58.7-67.9L152.5 127.2z"/></svg>
