<svg width="64" height="64" viewBox="0 0 64 64" fill="none" xmlns="http://www.w3.org/2000/svg">
<rect width="64" height="64" rx="32" fill="white"/>
<path d="M32.659 8.79981L40.2773 19.7301L32.659 22.5154L24.8942 19.7301L32.659 8.79981Z" fill="#D82292"/>
<path d="M24.8937 35.0303L40.2769 35.0303L40.2767 19.7303L32.6586 22.508L24.8936 19.7303L24.8937 35.0303Z" fill="#EF6FC4"/>
<path d="M40.2775 19.7303L40.2775 35.0303L32.6592 32.2617L32.6592 22.5088L40.2775 19.7303Z" fill="#FF8ABC"/>
<path d="M32.6584 45.957L24.8936 35.0301L32.6584 32.2616L40.2768 35.0301L32.6584 45.957Z" fill="#D82292"/>
<path d="M35.2171 54.5459L36.6418 45.9258L41.021 46.3046L42.9967 50.3501L35.2171 54.5459Z" fill="#E748B1"/>
<path d="M49.468 41.1581L43.1838 36.7402L36.7185 45.9317L41.016 46.3092L42.9916 50.3545L49.468 41.1581Z" fill="#FF8ABC"/>
<path d="M36.6367 45.9281L43.1111 36.734L45.1344 40.4561L41.0144 46.3069L36.6367 45.9281Z" fill="#DA33A2"/>
<path d="M50.8519 32.4402L49.4635 41.1625L45.1325 40.4613L43.1084 36.7381L50.8519 32.4402Z" fill="#E748B1"/>
<path d="M30.1208 54.5459L28.6961 45.9258L24.3169 46.3046L22.3412 50.3501L30.1208 54.5459Z" fill="#D82292"/>
<path d="M15.8699 41.1581L22.1541 36.7402L28.6194 45.9317L24.3219 46.3092L22.3463 50.3545L15.8699 41.1581Z" fill="#E748B1"/>
<path d="M28.7012 45.9281L22.2268 36.734L20.2035 40.4561L24.3235 46.3069L28.7012 45.9281Z" fill="#DA33A2"/>
<path d="M14.486 32.4402L15.8744 41.1625L20.2054 40.4613L22.2295 36.7381L14.486 32.4402Z" fill="#FF8ABC"/>
</svg>
