<svg width="48" height="48" viewBox="0 0 48 48" fill="none" xmlns="http://www.w3.org/2000/svg">
<circle cx="24" cy="24" r="24" fill="#00FF00"/>
<path d="M24.0017 9.60001C21.1535 9.5996 18.3691 10.4438 16.0007 12.026C13.6323 13.6081 11.7863 15.8571 10.6961 18.4884C9.60598 21.1197 9.32065 24.0153 9.87621 26.8088C10.4318 29.6023 11.8033 32.1683 13.8173 34.1823C15.8313 36.1963 18.3973 37.5678 21.1908 38.1234C23.9843 38.679 26.8799 38.3936 29.5112 37.3035C32.1426 36.2133 34.3915 34.3673 35.9736 31.9989C37.5558 29.6305 38.4 26.8462 38.3996 23.9979C38.3996 20.1794 36.8827 16.5172 34.1826 13.8171C31.4824 11.1169 27.8203 9.60001 24.0017 9.60001ZM24.0017 35.2552C21.1544 35.2577 18.4122 34.1801 16.3285 32.2397C14.2448 30.2993 12.9747 27.6408 12.7746 24.8005C12.5745 21.9603 13.4594 19.1499 15.2505 16.9366C17.0416 14.7233 19.6056 13.2718 22.4251 12.8752V19.7586C21.4282 20.1284 20.5929 20.837 20.0655 21.7603C19.5381 22.6836 19.352 23.763 19.5399 24.8096C19.7277 25.8562 20.2776 26.8035 21.0932 27.4858C21.9088 28.168 22.9383 28.5418 24.0017 28.5418C25.065 28.5418 26.0945 28.168 26.9102 27.4858C27.7258 26.8035 28.2756 25.8562 28.4635 24.8096C28.6514 23.763 28.4653 22.6836 27.9379 21.7603C27.4104 20.837 26.5752 20.1284 25.5782 19.7586V12.8648C28.3977 13.2615 30.9618 14.7129 32.7529 16.9263C34.544 19.1396 35.4288 21.95 35.2288 24.7902C35.0287 27.6304 33.7586 30.289 31.6749 32.2293C29.5912 34.1697 26.8489 35.2474 24.0017 35.2448V35.2552Z" fill="black"/>
</svg>
