<svg width="93" height="93" viewBox="0 0 93 93" fill="none" xmlns="http://www.w3.org/2000/svg">
    <path
        d="M46.3646 0.847386H46.3663C71.5107 0.847386 91.8943 21.2309 91.8943 46.3753V46.3771C91.8943 71.5215 71.5107 91.905 46.3663 91.905H46.3646C21.2202 91.905 0.836644 71.5215 0.836644 46.3771V46.3753C0.836644 21.2309 21.2202 0.847386 46.3646 0.847386Z"
        fill="white" stroke="black" stroke-width="1.67719" />
    <path fill-rule="evenodd" clip-rule="evenodd"
        d="M32.8559 9.92773C18.0602 15.4053 7.51416 29.6425 7.51416 46.3428C7.51416 63.0431 18.0602 77.2802 32.8559 82.7578V78.9285C20.0724 73.6357 11.0791 61.0395 11.0791 46.3428C11.0791 31.6461 20.0724 19.0498 32.8559 13.7571V9.92773ZM59.8099 13.7575V9.92814C74.605 15.406 85.1505 29.6429 85.1505 46.3428C85.1505 63.0427 74.605 77.2795 59.8099 82.7574V78.928C72.5928 73.635 81.5856 61.0391 81.5856 46.3428C81.5856 31.6465 72.5928 19.0505 59.8099 13.7575Z"
        fill="black" />
    <path fill-rule="evenodd" clip-rule="evenodd"
        d="M46.3345 13.7539L48.3678 17.2473L60.8128 38.6288H68.6824V42.1938H24.002V38.6288H31.8532L44.3009 17.2471L46.3345 13.7539ZM46.3341 23.1077L55.368 38.6288H37.2983L46.3341 23.1077ZM60.8348 53.8392H68.6824V50.2743H24.002V53.8392H31.8312L44.3009 75.2589L46.3345 78.752L48.3678 75.2587L60.8348 53.8392ZM55.3901 53.8392H37.2762L46.3341 69.3982L55.3901 53.8392Z"
        fill="black" />
</svg>
    