<svg width="24" height="24" viewBox="0 0 24 24" fill="none" xmlns="http://www.w3.org/2000/svg">
<path d="M12 24C18.6274 24 24 18.6274 24 12C24 5.37258 18.6274 0 12 0C5.37258 0 0 5.37258 0 12C0 18.6274 5.37258 24 12 24Z" fill="#F5F5F5"/>
<path d="M23.5 12C23.5 18.3513 18.3513 23.5 12 23.5C5.64873 23.5 0.5 18.3513 0.5 12C0.5 5.64873 5.64873 0.5 12 0.5C18.3513 0.5 23.5 5.64873 23.5 12Z" stroke="black" stroke-opacity="0.097"/>
<path d="M17.6771 6.77765L17.1829 7.27188C18.3622 8.56155 19.0162 10.2459 19.0162 11.9935C19.0162 13.741 18.3622 15.4254 17.1829 16.715L17.6771 17.2093C18.9886 15.7867 19.7168 13.9226 19.7168 11.9877C19.7168 10.0528 18.9886 8.18871 17.6771 6.76611V6.77765Z" fill="#5A5564"/>
<path d="M7.28335 6.82054C8.57303 5.64121 10.2573 4.98722 12.0049 4.98722C13.7525 4.98722 15.4368 5.64121 16.7265 6.82054L17.2207 6.3263C15.7981 5.01477 13.9341 4.28662 11.9992 4.28662C10.0642 4.28662 8.20019 5.01477 6.77759 6.3263L7.28335 6.82054Z" fill="#5A5564"/>
<path d="M6.82041 16.7201C5.64249 15.4307 4.98935 13.7474 4.98935 12.0009C4.98935 10.2545 5.64249 8.57122 6.82041 7.28183L6.32618 6.7876C5.01465 8.2102 4.2865 10.0743 4.2865 12.0092C4.2865 13.9441 5.01465 15.8082 6.32618 17.2308L6.82041 16.7201Z" fill="#5A5564"/>
<path d="M16.7199 17.1763C15.4303 18.3556 13.7459 19.0096 11.9983 19.0096C10.2508 19.0096 8.56644 18.3556 7.27677 17.1763L6.78253 17.6705C8.20513 18.982 10.0692 19.7102 12.0041 19.7102C13.939 19.7102 15.8031 18.982 17.2257 17.6705L16.7199 17.1763Z" fill="#5A5564"/>
<path d="M15.1203 10.351C15.0214 9.31974 14.1318 8.97378 13.0066 8.86834V7.44824H12.1367V8.84198C11.9077 8.84198 11.6738 8.84198 11.4415 8.84198V7.44824H10.5783V8.87823H8.81384V9.80903C8.81384 9.80903 9.45635 9.7975 9.44646 9.80903C9.56231 9.79629 9.67858 9.82901 9.77078 9.90031C9.86297 9.97161 9.92389 10.0759 9.9407 10.1912V14.1056C9.93822 14.1462 9.92761 14.186 9.9095 14.2225C9.89139 14.259 9.86615 14.2915 9.83526 14.3181C9.80495 14.3452 9.76948 14.3659 9.73098 14.3789C9.69247 14.3919 9.65173 14.397 9.61121 14.3939C9.62274 14.4038 8.97859 14.3939 8.97859 14.3939L8.81384 15.4334H10.5618V16.8865H11.4316V15.4548H12.1269V16.8799H12.9984V15.4433C14.4679 15.3543 15.4926 14.9919 15.6211 13.6163C15.7249 12.5092 15.2043 12.015 14.3723 11.8156C14.8781 11.5669 15.1911 11.1056 15.1203 10.351ZM13.9012 13.4449C13.9012 14.5257 12.0494 14.4021 11.4596 14.4021V12.4845C12.0494 12.4861 13.9012 12.3164 13.9012 13.4449ZM13.4975 10.7431C13.4975 11.7316 11.9522 11.6113 11.4613 11.6113V9.86834C11.9522 9.86834 13.4975 9.71348 13.4975 10.7431Z" fill="#F09242"/>
<path d="M11.9984 21C10.2185 20.9997 8.47863 20.4716 6.99884 19.4825C5.51905 18.4935 4.36576 17.0879 3.68477 15.4434C3.00379 13.7989 2.8257 11.9895 3.17302 10.2438C3.52034 8.49811 4.37747 6.89462 5.63604 5.63604C6.89462 4.37747 8.49811 3.52034 10.2438 3.17302C11.9895 2.8257 13.7989 3.00379 15.4434 3.68477C17.0879 4.36576 18.4935 5.51905 19.4825 6.99884C20.4716 8.47863 20.9997 10.2185 21 11.9984C21.0002 13.1805 20.7675 14.3512 20.3152 15.4434C19.8629 16.5356 19.1999 17.528 18.364 18.364C17.528 19.1999 16.5356 19.8629 15.4434 20.3152C14.3512 20.7675 13.1805 21.0002 11.9984 21ZM11.9984 3.70182C10.3585 3.70312 8.75589 4.19053 7.39301 5.10245C6.03014 6.01437 4.96819 7.30986 4.34141 8.82517C3.71463 10.3405 3.55114 12.0076 3.87162 13.6158C4.19209 15.224 4.98214 16.7011 6.1419 17.8604C7.30166 19.0197 8.77908 19.8092 10.3874 20.129C11.9958 20.4489 13.6628 20.2847 15.1779 19.6573C16.6929 19.0299 17.988 17.9675 18.8994 16.6042C19.8108 15.241 20.2975 13.6382 20.2982 11.9984C20.2986 10.9084 20.0842 9.82912 19.6672 8.82213C19.2502 7.81514 18.6388 6.90022 17.868 6.12968C17.0971 5.35915 16.182 4.74812 15.1748 4.33152C14.1677 3.91493 13.0883 3.70095 11.9984 3.70182Z" fill="#282138"/>
</svg>
