<svg width="24" height="24" viewBox="0 0 24 24" fill="none" xmlns="http://www.w3.org/2000/svg">
<path d="M12 24C18.6274 24 24 18.6274 24 12C24 5.37258 18.6274 0 12 0C5.37258 0 0 5.37258 0 12C0 18.6274 5.37258 24 12 24Z" fill="#E0E0E0"/>
<path d="M7.28984 5.51758L19.6753 13.9743L16.6122 18.5023L4.22678 9.97899L7.28984 5.51758Z" fill="url(#paint0_linear)"/>
<path d="M19.6753 13.9742C18.6099 15.5058 15.0141 14.9065 11.6181 12.5093C8.15549 10.1787 6.29101 7.04905 7.28984 5.51752C8.35525 3.98598 11.951 4.58528 15.347 6.98246C18.8096 9.24646 20.6741 12.4427 19.6753 13.9742Z" fill="url(#paint1_linear)"/>
<path d="M16.6122 18.4358C15.5468 19.9674 11.951 19.3681 8.55501 16.9709C5.15901 14.5737 3.22795 11.5107 4.29336 9.91253C5.35877 8.381 8.95454 8.9803 12.3505 11.3775C15.7466 13.7747 17.611 16.9043 16.6122 18.4358Z" fill="url(#paint2_linear)"/>
<path d="M19.6753 13.9743L16.6122 18.5023C15.5468 20.0339 11.951 19.368 8.55501 17.0374C7.88913 16.5713 7.28983 16.1051 6.69054 15.5724C7.15665 15.5059 7.75595 15.2395 8.35524 14.5736C9.42066 13.4416 9.95336 13.1753 10.4195 13.2419C10.8856 13.2419 11.4183 13.708 12.284 14.84C13.1496 15.972 14.3482 16.3049 15.0807 15.7056C15.1473 15.639 15.2138 15.639 15.2804 15.5724C15.8797 15.1063 16.0795 14.9066 17.2115 12.7757C17.4778 12.243 18.4101 11.3774 19.6753 11.7769C20.0082 12.6426 20.0082 13.375 19.6753 13.9743Z" fill="#0E0F23"/>
<path fill-rule="evenodd" clip-rule="evenodd" d="M19.2091 13.7077C18.2769 15.0394 15.0141 14.3736 11.8844 12.1761C8.68818 9.97873 6.82371 7.18202 7.75595 5.85026C8.68818 4.51849 11.951 5.18437 15.0807 7.38179C18.2103 9.5792 20.0748 12.3759 19.2091 13.7077ZM16.2793 11.71C15.8131 12.3759 14.215 12.043 12.6169 10.9776C11.0854 9.91214 10.1531 8.51379 10.6192 7.8479C11.0854 7.18202 12.6835 7.51496 14.2816 8.58038C15.8131 9.64579 16.7454 11.0441 16.2793 11.71Z" fill="white"/>
<path d="M7.02348 7.04925C7.02348 6.98266 6.95689 6.91607 6.8903 6.98266C6.82371 7.04925 6.75713 7.04925 6.75713 7.11584C6.82371 7.3156 6.8903 7.44878 6.8903 7.58195C6.8903 7.64854 6.95689 7.71513 7.02348 7.64854C7.09007 7.64854 7.15666 7.58195 7.09007 7.51537C7.09007 7.38219 7.09007 7.24901 7.02348 7.04925Z" fill="white"/>
<path d="M7.35642 8.11419C7.35642 8.0476 7.28983 7.98101 7.22324 8.0476C7.15665 8.11419 7.15665 8.11419 7.15665 8.18078C7.88913 9.84549 9.42066 11.6434 11.4183 12.9751C11.4849 13.0417 11.5515 12.9751 11.6181 12.9751C11.6847 12.9085 11.6181 12.842 11.6181 12.7754C9.55383 11.4436 8.08889 9.71231 7.35642 8.11419Z" fill="white"/>
<path d="M15.4136 14.6401C15.347 14.6401 15.2804 14.6401 15.2804 14.7067C15.2804 14.7733 15.2804 14.8399 15.347 14.8399C15.5468 14.9065 15.8131 14.9731 16.0129 15.0397C16.0795 15.0397 16.1461 15.0397 16.1461 14.9731C16.1461 14.9065 16.1461 14.8399 16.0795 14.8399C15.8797 14.7733 15.6134 14.7067 15.4136 14.6401Z" fill="white"/>
<path d="M16.6122 14.9062C16.5456 14.9062 16.479 14.9728 16.479 15.0394C16.479 15.106 16.5456 15.1726 16.6122 15.1726C17.1449 15.2392 17.7442 15.3058 18.2103 15.2392C18.2769 15.2392 18.3435 15.1726 18.3435 15.106C18.3435 15.0394 18.2769 14.9728 18.2103 14.9728C17.6776 15.0394 17.1449 14.9728 16.6122 14.9062Z" fill="white"/>
<path d="M23.5 12C23.5 18.3513 18.3513 23.5 12 23.5C5.64873 23.5 0.5 18.3513 0.5 12C0.5 5.64873 5.64873 0.5 12 0.5C18.3513 0.5 23.5 5.64873 23.5 12Z" stroke="black" stroke-opacity="0.097"/>
<defs>
<linearGradient id="paint0_linear" x1="9.71645" y1="4.31519" x2="12.1726" y2="12.7494" gradientUnits="userSpaceOnUse">
<stop stop-color="#03B8FF"/>
<stop offset="1" stop-color="#FA52A0"/>
</linearGradient>
<linearGradient id="paint1_linear" x1="11.7391" y1="3.72602" x2="14.1954" y2="12.1603" gradientUnits="userSpaceOnUse">
<stop stop-color="#03B8FF"/>
<stop offset="1" stop-color="#FA52A0"/>
</linearGradient>
<linearGradient id="paint2_linear" x1="7.70002" y1="4.9025" x2="10.1563" y2="13.3368" gradientUnits="userSpaceOnUse">
<stop stop-color="#03B8FF"/>
<stop offset="1" stop-color="#FA52A0"/>
</linearGradient>
</defs>
</svg>
