<?xml version="1.0" encoding="UTF-8"?>
<svg id="Layer_1" xmlns="http://www.w3.org/2000/svg" version="1.1" viewBox="0 0 299.83 299.83">
  <!-- Generator: Adobe Illustrator 29.6.0, SVG Export Plug-In . SVG Version: 2.1.1 Build 207)  -->
  <defs>
    <style>
      .st0 {
        fill: #3a9dd7;
      }

      .st1 {
        fill: #2797d2;
      }

      .st2 {
        fill: #fff;
      }

      .st3 {
        fill: #21326f;
      }

      .st4 {
        fill: #2188c6;
      }

      .st5 {
        fill: #162b4e;
      }
    </style>
  </defs>
  <g id="Ellipse_528">
    <circle class="st2" cx="149.92" cy="149.91" r="149.91"/>
  </g>
  <g id="Path_11311">
    <path class="st4" d="M238.72,64.31c-10.57-10.8-23-19.59-36.72-25.94,1.91-3.74,3.1-7.8,3.56-11.97l-.61-.25c-1.98,3.71-4.17,7.29-6.61,10.7-2.69,3.84-5.59,7.52-8.66,11.05l7.06.13c-9.07,18.7-34.61,26.76-34.61,26.76-.1,5.79-9.02,16.01-9.02,16.01,10.19-2.9,19.79-7.5,28.43-13.62,60.96,3.18,75.62,38.98,79.76,45.74.58.97.13,1.85,0,1.7-13.57-21.17-33.24-28.23-34.56-27.01l6.4,8c-16.06-7.85-33.44-12.65-51.28-14.15,0,0,42.31,7.62,65.3,38.11,11.54,15.12,19.16,32.85,22.18,51.61.13,1.02.23,1.8.25,2.39,2.77-10.19,4.24-20.68,4.37-31.23.48-32.88-12.22-64.57-35.27-87.99v-.03ZM172.76,29.09l-1.75-.3-1.52-.25h-.23l-2.72-.38h-.18l-1.5-.2c-.99-.13-1.96-.23-2.95-.3h-.36l-1.12-.1c-1.17-.1-2.34-.18-3.51-.25-1.02-.05-2.03-.1-3.07-.13h-1.6l-3.28-.03c-1.58,0-3.15.05-4.73.13l-1.55.08c-53.08,3.02-98.33,39.51-112.56,90.74-2.85,10.52-4.29,21.34-4.32,32.24-.08,2.39.05,4.78.33,7.14.15,1.04.38,2.11.69,3.13,0,.13.08.23.1.36,2.06,6.3,4.83,12.96,8.31,18.63,2.08,3.71,4.4,7.27,6.96,10.67,1.07,1.47,2.21,2.9,3.43,4.24l.38.41.46.51c.43.48.86.97,1.3,1.4l.28.3c6.3,6.4,13.64,11.71,21.7,15.65,12.37,6.1,25.84,9.71,39.64,10.6,4.78.36,9.6.36,14.38,0h.71c5.16-.36,10.27-1.4,15.17-3.1,4.12-1.25,7.98-3.23,11.41-5.84,4.32-3.15,8.05-7.06,10.98-11.54,4.34-6.45,6.76-14.03,7.01-21.8.79-18.37-17.61-39.1-43.65-41.65h0c-.84-.08-1.68-.15-2.54-.18h-4.85l-1.4.05-1.19.08-1.07.1c-.71.05-1.4.15-2.11.25-1.8.23-3.63.53-5.49.91-17.02,3.79-11.18,17.46-11,17.89-4.01-.38-7.95-1.22-11.79-2.46l-.18-.05-.76-.25c-4.09-1.45-7.85-3.68-11.05-6.61h-.05l-.3-.3c-2.08-2.08-3.86-4.45-5.29-7.04h-.05c-2.36,1.45-4.62,3.05-6.84,4.73-1.6-8.72-1.88-17.63-.84-26.45,2.13-9.96,18.09-21.85,18.09-21.85,0,0-2.06,10.24,7.06,10.39s19.82-14.13,20.23-12.86,8.72,1.4,8.72,1.4c0,0-3.74,0-6.94-6.73s6.96-16.47,23.71-22.39c11.28-4.55,21.47-11.43,29.91-20.2,4.14.48,5.18,12.12,5.18,12.12,11.03-6.66,21.01-14.92,29.6-24.55h0c-6.94-2.74-14.08-4.83-21.39-6.28h.03l-.03-.05ZM139.83,112.59v.03"/>
  </g>
  <g id="Path_11313">
    <path class="st5" d="M223.27,243.78c-11.18,14.43-27.11,24.44-44.97,28.23-3.13.61-6.3,1.12-9.48,1.52l-1.27.15-1.22.13h-.38c-22.13,1.91-44.39-1.32-65.05-9.43-7.24-2.85-14.13-6.45-20.58-10.77-6.89-4.7-13.29-10.06-19.11-16.01-20-22.16-32.27-50.18-34.99-79.91.15,1.04.38,2.08.69,3.13,2.06,6.45,4.88,12.6,8.41,18.37,2.08,3.71,4.4,7.27,6.96,10.67,1.07,1.47,2.21,2.87,3.43,4.24l.38.41.46.51c.43.48.86.94,1.3,1.4l.28.3c6.3,6.4,13.64,11.71,21.7,15.65,12.37,6.1,25.84,9.71,39.64,10.6,4.78.36,9.58.36,14.38,0h.74c5.16-.36,10.27-1.42,15.17-3.1,4.12-1.25,7.98-3.23,11.41-5.84,4.32-3.15,8.03-7.06,10.95-11.54,4.34-6.48,6.76-14.03,7.01-21.8.36-19.34-20.23-41.42-49.29-41.34-.66,0-1.32,0-1.98.05h-1.4l-1.35.1c-.76.05-1.5.13-2.26.23h-.18c-1.91.25-3.81.58-5.74,1.02-9.94,2.21-12.09,7.8-12.12,12.15,0,1.96.38,3.91,1.12,5.74h-.08c-4.01-.38-7.95-1.22-11.79-2.46l-.18-.05-.76-.25c-4.09-1.45-7.85-3.68-11.05-6.61h-.05l-.3-.28c-1.12-1.09-2.11-2.26-3.02-3.51-.81-1.14-1.58-2.31-2.26-3.56,15.63-9.73,33.57-15.14,51.96-15.7l1.91-.08c2.59-.08,5.18-.05,7.78.05,4.09.15,8.18.48,12.3,1.04,6.23.74,12.35,2.06,18.32,3.94h.08v-.05h.05c-1.47-2.69-3.25-5.18-5.26-7.5-2.52-2.95-9.1-10.72-13.49-10.67h0l1.3-.08c2.69-.1,5.41-.1,8.13.05,26.76.91,51.81,13.26,68.86,33.9l.33.36.41.53c4.83,6.48,8.87,13.54,11.99,20.99h0c3.07,8.87,5.08,18.07,5.97,27.39,1.78,17.1-3.15,34.23-13.75,47.77l-.03-.08Z"/>
  </g>
  <g id="Path_11315">
    <path class="st3" d="M223.27,243.78c-11.18,14.43-27.11,24.44-44.97,28.23-3.13.61-6.28,1.12-9.45,1.52l-1.27.15-1.22.13h-.38c-.86.08-1.7.15-2.57.2-8.44.61-16.9.43-25.31-.51-12.83-.84-25.41-3.91-37.17-9.12l-.94-.51c1.58-.08,3.23,0,4.83.03,21.24-.1,41.67-8.03,57.43-22.28,16.74-14.1,26.76-34.58,27.62-56.43,0-2.21-.08-4.45-.25-6.68l-.1-1.02-.43.94c-5.11,11.51-14.94,20.23-26.96,23.94l-.28.08c2.41-3.43,4.24-7.22,5.41-11.23,1.07-3.46,1.65-7.04,1.78-10.65.33-18.45-18.42-39.41-45.38-41.19h-.36l-1.45-.08h-5.41c-.46,0-.91.05-1.37.1-.74.05-1.5.13-2.26.23h-.18c-1.91.23-3.89.58-5.87,1.02-17,3.79-11.18,17.46-11,17.89h0c-12.15.13-23.4-6.3-29.5-16.8,15.65-9.73,33.62-15.17,52.04-15.7l1.91-.08c2.59-.08,5.18-.05,7.78.05,4.07.15,8.13.51,12.22,1.04,6.25.74,12.4,2.06,18.4,3.94h.05c-1.5-2.67-3.25-5.18-5.26-7.5-2.49-2.95-9.02-10.62-13.42-10.67h-.13c.46,0,.97-.05,1.4-.08,2.69-.1,5.41-.1,8.13.05,26.71.94,51.76,13.26,68.78,33.9l.33.36c.15.18.33.36.48.53,5.34,6.15,9.4,13.29,11.99,20.99h0c3.07,8.87,5.06,18.07,5.97,27.39,1.83,17.13-3.07,34.28-13.67,47.85l.03-.03Z"/>
  </g>
  <path class="st5" d="M208.81,11.23s-12.45,32.24-20.73,35.85c-8.26,3.61,7.14.58,7.14.58l-31.74,23.96s-6.61,15.7-10.37,18.7c0,0,23.15-2.82,41.9-26.63,17.61-22.33,13.77-52.5,13.77-52.5l.03.03Z"/>
  <path class="st2" d="M163.81,60.17s28.28-15.47,45.08-49.14c0,0-6.96,24.19-19.18,35.65l8-1.25s-12.3,19.74-34.84,28.18c0,0-.03-9.17.94-13.47v.03Z"/>
  <g>
    <path class="st0" d="M71.98,119.3c2.54-.66,3.81.99,4.4,2.52h.13c.33-1.93.38-6.28-3.48-5.29s-7.01,7.37-7.01,7.37l.53-.1c1.55-1.78,3.43-3.99,5.44-4.5Z"/>
    <path class="st5" d="M73.41,113.71c-4.17.91-7.39,10.19-7.39,10.19l.53-.99c1.07-1.83,3.56-5.62,6.48-6.38,3.05-.79,3.66,1.75,3.61,3.79,0-.03.05-.05.05-.1.41-2.49,1.91-7.65-3.28-6.5Z"/>
  </g>
  <g>
    <path class="st5" d="M119.68,90.81s-.53-5.46,3.99-8.41,11.31-4.88,15.42-6.68,9.15-4.32,9.22-5.46c0,0-1.32,8.41-5.51,12.25s-8.66,8.39-23.12,8.28v.03Z"/>
    <path class="st1" d="M125.27,89.16c2.82-1.04,6.68-2.85,9.1-5.46,2.41-2.62,3.43-4.6,3.86-5.77.43-1.19.38-1.85.38-1.96-4.17,1.75-10.6,3.63-14.94,6.48-4.27,2.8-4.01,7.83-3.99,8.36.1,0,2.59-.53,5.59-1.65Z"/>
  </g>
  <path class="st5" d="M261.33,124.63s-18.9-12.76-31.89-12.35c-24.85-15.8-36.51-18.09-47.54-20.84.38-.76,31.51,3.58,51.28,14.15l-6.66-8.21s10.32-.76,26.98,17.08c10.88,11.66,7.83,10.14,7.83,10.14v.03Z"/>
</svg>