<svg width="200" height="200" viewBox="0 0 200 200" fill="none" xmlns="http://www.w3.org/2000/svg">
<rect width="200" height="200" rx="100" fill="#F00500"/>
<path d="M132.498 46.9014C128.895 50.5039 125.595 54.4084 122.661 58.5717L121.733 58.2697C116.384 56.5224 110.84 55.4438 105.253 55.0771C103.57 54.9477 97.2927 54.9477 95.2434 55.0771C89.0523 55.4869 84.3066 56.4145 78.9137 58.2913C78.698 58.3775 78.5038 58.4423 78.3097 58.507C75.2681 54.3652 71.8813 50.4823 68.1494 46.923C86.0539 37.7551 107 36.6549 125.746 43.8814C127.752 44.6364 129.715 45.5208 131.635 46.47L132.498 46.9014Z" fill="#F00500"/>
<path d="M137.891 102.945C137.826 103.29 136.812 104.325 135.798 105.08C132.821 107.259 127.493 109.287 122.079 110.257C118.994 110.818 115.909 110.904 114.981 110.451C114.377 110.149 114.291 109.912 114.507 109.136C114.96 107.518 116.427 105.749 118.713 104.088C119.878 103.247 124.602 100.378 126.803 99.1695C130.427 97.1849 133.361 95.9985 135.345 95.718C135.971 95.6318 136.726 95.6102 136.963 95.718C137.351 95.869 137.783 97.0123 137.955 98.3929C138.042 99.1264 137.998 102.362 137.891 102.945Z" fill="black"/>
<path d="M87.0677 110.085C86.9383 110.344 86.2911 110.624 85.5577 110.732C84.8243 110.84 82.5808 110.775 81.3081 110.624C76.7349 110.02 71.8813 108.618 68.3435 106.892C66.359 105.922 64.9352 104.951 63.8782 103.894L63.2742 103.268L63.2095 102.448C63.1016 101.025 63.1232 98.7813 63.2958 97.9832C63.4036 97.3145 63.6409 96.6673 63.9645 96.0849C64.1371 95.8691 64.1371 95.8691 64.9136 95.8691C65.8628 95.8691 66.6609 96.0202 67.9552 96.43C70.6086 97.2497 74.5562 99.2343 79.3666 102.125C83.3358 104.498 84.8243 105.663 85.9676 107.259C86.7441 108.251 87.2619 109.653 87.0677 110.085Z" fill="black"/>
<path d="M117.613 140.112C117.613 140.177 117.354 141.213 117.031 142.442C116.707 143.672 116.448 144.664 116.448 144.707C116.211 144.729 115.995 144.75 115.758 144.729H115.068L114.118 146.972C113.601 148.202 113.126 149.345 113.061 149.518L112.932 149.82L112.479 149.086L112.026 148.353V142.377L111.853 142.421C111.487 142.507 108.877 142.852 107.733 142.96C103.009 143.435 98.2632 143.327 93.5606 142.658C92.8056 142.55 92.1585 142.464 92.1369 142.485C92.1153 142.507 92.1369 143.888 92.1801 145.592L92.2448 148.655L91.8781 149.216C91.6839 149.518 91.4898 149.777 91.4898 149.798C91.425 149.863 91.2093 149.518 90.7132 148.525C90.1739 147.49 89.7856 146.39 89.5052 145.247L89.3542 144.621L88.6854 144.664L88.0167 144.729L87.8441 143.931C87.7579 143.499 87.65 142.83 87.6069 142.464L87.5422 141.773L86.9813 141.277C86.6577 140.997 86.3341 140.716 86.2694 140.673C86.1616 140.587 86.1184 140.436 86.1184 140.307V140.048L88.8149 140.069L91.5113 140.091L91.5976 140.371L91.6839 140.652L92.6115 140.695C93.1292 140.716 94.7686 140.76 96.2355 140.803L98.932 140.867L99.6223 139.789L100.334 138.71H101.24L101.219 136.467L101.197 134.223L100.011 133.706C96.1924 132.023 93.9489 130.103 93.1076 127.773C92.9351 127.299 92.9351 127.126 92.8919 124.969C92.8703 122.834 92.8703 122.639 93.0213 122.165C93.3233 121.086 94.1646 120.245 95.2432 119.965C95.6099 119.857 96.5807 119.857 101.672 119.857L107.668 119.878L108.337 120.202C109.135 120.59 109.502 120.871 109.955 121.475C110.473 122.165 110.624 122.704 110.624 124.02C110.624 125.897 110.494 127.515 110.3 128.162C110.02 129.046 109.588 129.888 109.049 130.643C107.97 132.023 106.007 133.404 104.217 134.029L103.699 134.223L103.721 136.488L103.742 138.753L104.217 138.797L104.692 138.84L105.339 139.81L105.964 140.781H108.855C110.451 140.781 111.853 140.803 111.983 140.824C112.199 140.867 112.242 140.846 112.457 140.479L112.716 140.091H115.197C117.052 140.005 117.613 140.048 117.613 140.112Z" fill="black"/>
<path d="M106.223 146.304C105.813 146.541 105.533 146.649 105.468 146.606C105.404 146.584 105.102 146.325 104.778 146.088L104.196 145.613L103.592 146.26C102.276 147.684 102.233 147.749 101.844 147.77C101.24 147.835 101.111 147.727 100.377 146.627C99.9891 146.066 99.687 145.592 99.687 145.592C99.687 145.592 99.4066 145.549 99.0831 145.527L98.479 145.462L98.1986 146.045L97.9182 146.627L97.422 146.476C97.0337 146.347 96.6455 146.196 96.2787 146.023L95.6316 145.7V144.47L101.37 144.492L107.108 144.513L107.129 145.096C107.151 145.786 107.172 145.764 106.223 146.304Z" fill="black"/>
<path d="M160.152 119.986C160.131 119.9 160.131 119.749 160.109 119.512C154.932 118.951 140.156 118.606 126.436 129.931C126.436 129.931 122.014 109.653 101.305 109.653C80.5962 109.653 72.9167 129.931 72.9167 129.931C61.3112 117.441 45.7796 118.347 40.171 119.166C40.171 119.296 40.1494 119.447 40.1494 119.576C39.9768 122.704 40.0631 124.193 40.5808 126.156C42.1987 132.304 47.1817 139.077 54.9907 145.721C67.7827 156.593 85.1263 164.445 98.2634 165.351C111.961 166.279 132.174 158.276 145.635 146.584C147.749 144.707 149.733 142.723 151.589 140.609C152.926 139.055 154.911 136.381 154.76 136.381C154.716 136.381 154.76 136.337 154.846 136.294C154.911 136.251 154.975 136.186 154.932 136.143C154.911 136.122 154.954 136.057 155.018 136.035C155.083 136.014 155.126 135.971 155.105 135.928C155.083 135.884 155.105 135.841 155.191 135.82C155.256 135.798 155.277 135.733 155.256 135.69C155.234 135.647 155.256 135.604 155.299 135.604C155.342 135.604 155.385 135.539 155.385 135.496C155.385 135.453 155.428 135.388 155.471 135.388C155.515 135.388 155.558 135.345 155.558 135.302C155.622 135.129 155.73 134.957 155.838 134.806C156.162 134.31 157.456 132.002 157.629 131.613C158.858 128.831 159.635 126.35 160.001 123.869C160.131 122.683 160.239 120.504 160.152 119.986ZM106.223 146.304C105.813 146.541 105.533 146.649 105.468 146.606C105.404 146.584 105.102 146.325 104.778 146.088L104.196 145.613L103.592 146.26C102.276 147.684 102.233 147.749 101.844 147.77C101.24 147.835 101.111 147.727 100.377 146.627C99.9891 146.066 99.6871 145.592 99.6871 145.592C99.6871 145.592 99.4067 145.549 99.0831 145.527L98.4791 145.462L98.1987 146.045L97.9183 146.627L97.4221 146.476C97.0338 146.347 96.6455 146.196 96.2788 146.023L95.6317 145.7V144.47L101.37 144.492L107.108 144.513L107.129 145.096C107.151 145.786 107.173 145.764 106.223 146.304ZM117.009 142.421C116.686 143.65 116.427 144.643 116.427 144.686C116.189 144.707 115.974 144.729 115.736 144.707H115.046L114.119 146.972C113.601 148.202 113.126 149.345 113.062 149.518L112.932 149.82L112.479 149.086L112.026 148.353V142.378L111.854 142.421C111.487 142.507 108.877 142.852 107.733 142.96C103.009 143.435 98.2634 143.327 93.5608 142.658C92.8058 142.55 92.1586 142.464 92.1371 142.485C92.1155 142.507 92.1371 143.888 92.1802 145.592L92.2449 148.655L91.8782 149.216C91.6841 149.518 91.4899 149.777 91.4899 149.798C91.4252 149.863 91.2095 149.518 90.7133 148.525C90.174 147.49 89.7858 146.39 89.5053 145.247L89.3543 144.621L88.6856 144.664L88.0169 144.729L87.8443 143.931C87.758 143.499 87.6501 142.831 87.607 142.464L87.5423 141.774L86.9814 141.277C86.6578 140.997 86.3343 140.716 86.2696 140.673C86.1617 140.587 86.1186 140.436 86.1186 140.307V140.048L88.815 140.069L91.5115 140.091L91.5978 140.371L91.6841 140.652L92.6116 140.695C93.1294 140.717 94.7688 140.76 96.2357 140.803L98.9321 140.868L99.6224 139.789L100.334 138.71H101.24L101.219 136.467L101.197 134.223L100.011 133.706C96.1925 132.023 93.9491 130.103 93.1078 127.774C92.9352 127.299 92.9352 127.126 92.8921 124.969C92.8705 122.834 92.8705 122.639 93.0215 122.165C93.3235 121.086 94.1648 120.245 95.2434 119.965C95.6101 119.857 96.5808 119.857 101.672 119.857L107.669 119.878L108.337 120.202C109.136 120.59 109.502 120.871 109.955 121.475C110.473 122.165 110.624 122.704 110.624 124.02C110.624 125.897 110.495 127.515 110.3 128.162C110.02 129.046 109.589 129.888 109.049 130.643C107.971 132.023 106.008 133.404 104.217 134.029L103.699 134.223L103.721 136.488L103.743 138.753L104.217 138.797L104.692 138.84L105.339 139.81L105.964 140.781H108.855C110.451 140.781 111.854 140.803 111.983 140.824C112.199 140.867 112.242 140.846 112.458 140.479L112.716 140.091H115.197C117.117 140.091 117.678 140.112 117.678 140.177C117.613 140.156 117.333 141.213 117.009 142.421Z" fill="white"/>
<path d="M159.98 117.786C159.937 116.815 159.851 115.456 159.786 114.787C158.858 104.994 156.356 96.9908 151.61 88.5131C151.416 88.1895 151.243 87.866 151.136 87.6071C151.092 87.5424 151.071 87.4777 151.049 87.4345C151.718 85.4284 154.458 77.037 156.636 67.4376C159.592 54.4083 161.468 39.1788 155.73 34.6056C155.73 34.6056 145.807 33.8721 132.519 46.9014C128.917 50.5039 125.616 54.4083 122.683 58.5717L121.755 58.2697C116.405 56.5224 110.861 55.4438 105.274 55.0771C103.592 54.9476 97.3144 54.9476 95.2651 55.0771C89.074 55.4869 84.3282 56.4145 78.9353 58.2912C78.7196 58.3775 78.5255 58.4422 78.3313 58.507C75.2897 54.3652 71.903 50.4823 68.1711 46.923C54.3436 33.829 44.054 34.584 44.054 34.584C37.9708 39.3082 40.0416 55.2281 43.1911 68.6888C45.262 77.5979 47.8074 85.4284 48.7566 88.2543C48.6919 88.4053 48.6056 88.5778 48.5193 88.7288C43.4931 98.9107 40.7751 108.726 40.1279 119.166C45.7581 118.347 61.2682 117.419 72.8953 129.931C72.8953 129.931 80.5748 109.653 101.284 109.653C121.992 109.653 126.415 129.931 126.415 129.931C140.134 118.606 154.911 118.972 160.088 119.512C160.066 119.08 160.023 118.433 159.98 117.786ZM52.8336 80.1218C52.8336 80.1218 44.7658 59.9523 46.8367 48.433C47.1819 46.4916 47.829 44.7874 48.8429 43.4931C48.8429 43.4931 57.9892 44.3991 72.7443 60.7936C72.7443 60.7936 69.94 62.1526 66.1865 65.0432C66.1865 65.0432 66.1649 65.0647 66.1433 65.0647C62.0663 68.1926 56.846 73.1541 52.8336 80.1218ZM87.0678 110.085C86.9384 110.344 86.2913 110.624 85.5578 110.732C84.8244 110.84 82.5809 110.775 81.3082 110.624C76.735 110.02 71.8814 108.618 68.3437 106.892C66.3591 105.921 64.9353 104.951 63.8783 103.894L63.2743 103.268L63.2096 102.448C63.1017 101.025 63.1233 98.7812 63.2959 97.9831C63.4037 97.3144 63.641 96.6672 63.9646 96.0848C64.1372 95.869 64.1372 95.869 64.9138 95.869C65.8629 95.869 66.6611 96.0201 67.9554 96.4299C70.6087 97.2496 74.5563 99.2342 79.3668 102.125C83.3359 104.498 84.8244 105.663 85.9677 107.259C86.7443 108.251 87.262 109.653 87.0678 110.085ZM137.891 102.945C137.826 103.29 136.812 104.325 135.798 105.08C132.821 107.259 127.493 109.287 122.079 110.257C118.994 110.818 115.909 110.904 114.982 110.451C114.378 110.149 114.291 109.912 114.507 109.136C114.96 107.518 116.427 105.749 118.713 104.088C119.878 103.247 124.603 100.378 126.803 99.1695C130.427 97.1849 133.361 95.9985 135.345 95.7181C135.971 95.6318 136.726 95.6102 136.963 95.7181C137.351 95.8691 137.783 97.0123 137.955 98.3929C138.042 99.1264 137.998 102.362 137.891 102.945ZM134.31 65.0432L134.267 65.0216C130.643 62.131 127.925 60.772 127.925 60.772C142.183 44.3775 151.006 43.4715 151.006 43.4715C151.977 44.7874 152.603 46.47 152.948 48.4114C154.954 59.9307 147.166 80.1218 147.166 80.1218C143.909 74.319 139.53 69.1849 134.31 65.0432Z" fill="#FFA409"/>
<path d="M152.969 48.4113C151.287 48.1956 143.327 48.1525 134.31 65.0431L134.267 65.0215C130.643 62.1309 127.925 60.7719 127.925 60.7719C142.183 44.3774 151.006 43.4714 151.006 43.4714C151.999 44.7873 152.624 46.4699 152.969 48.4113Z" fill="#FF9300"/>
<path d="M147.188 80.1216C143.909 74.2972 139.552 69.1848 134.31 65.043C143.327 48.1524 151.265 48.1955 152.969 48.4113C154.975 59.9521 147.188 80.1216 147.188 80.1216Z" fill="#FF8300"/>
<path d="M153.293 48.4761C153.185 48.4545 153.077 48.4329 152.969 48.4114L153.293 48.4761Z" fill="#FF8300"/>
<path d="M72.7441 60.7719C72.7441 60.7719 69.9398 62.1309 66.1863 65.0215C66.1863 65.0215 66.1647 65.0431 66.1431 65.0431C56.8026 48.1309 48.5838 48.1956 46.8149 48.4113C47.1601 46.4699 47.8072 44.7657 48.8211 43.4714C48.8427 43.4714 57.989 44.3774 72.7441 60.7719Z" fill="#FF9300"/>
<path d="M66.1647 65.043C62.0661 68.1925 56.8458 73.1324 52.8334 80.1216C52.8334 80.1216 44.7656 59.9521 46.8365 48.4113C48.5838 48.1955 56.8242 48.1524 66.1647 65.043Z" fill="#FF8300"/>
<path d="M46.8366 48.4114C46.7287 48.4329 46.5993 48.4545 46.4915 48.4761L46.8366 48.4114Z" fill="#FF8300"/>
<path d="M125.357 91.3174C125.357 91.3174 118.454 91.7488 119.317 86.3559C120.18 80.963 125.573 80.3158 127.083 80.5315C128.593 80.7473 134.633 82.9044 133.555 87.4345C132.476 91.9645 130.966 91.1016 130.103 91.3174C129.24 91.5331 125.357 91.3174 125.357 91.3174Z" fill="white"/>
<path d="M74.4484 91.3174C74.4484 91.3174 67.5455 91.7488 68.4084 86.3559C69.2712 80.963 74.6642 80.3158 76.1742 80.5315C77.6842 80.7473 83.7243 82.9044 82.6457 87.4345C81.5671 91.9645 80.0571 91.1016 79.1942 91.3174C78.3313 91.5331 74.4484 91.3174 74.4484 91.3174Z" fill="white"/>
</svg>
