<svg width="200" height="200" viewBox="0 0 200 200" fill="none" xmlns="http://www.w3.org/2000/svg">
<path d="M100 0C155.234 0 200 44.7754 200 100C200 155.234 155.234 200 100 200C44.7754 200 0 155.229 0 100C0 44.7754 44.7754 0 100 0Z" fill="#F5AC37"/>
<path d="M106.934 109.343H144.932C145.742 109.343 146.125 109.343 146.183 108.281C146.494 104.416 146.494 100.528 146.183 96.6577C146.183 95.9062 145.81 95.5957 144.995 95.5957H69.3718C68.4358 95.5957 68.1838 95.9062 68.1838 96.7837V107.908C68.1838 109.343 68.1838 109.343 69.6823 109.343H106.934ZM141.94 82.5951C142.048 82.3116 142.048 82.0011 141.94 81.7221C141.305 80.3406 140.554 79.0221 139.68 77.7846C138.366 75.6695 136.818 73.721 135.054 71.9705C134.222 70.913 133.259 69.9635 132.179 69.158C126.77 64.5544 120.339 61.2964 113.427 59.6584C109.94 58.8754 106.376 58.5019 102.803 58.5334H69.2413C68.3053 58.5334 68.1793 58.9069 68.1793 59.7214V81.9066C68.1793 82.8426 68.1793 83.0946 69.3673 83.0946H141.49C141.49 83.0946 142.115 82.9686 142.241 82.5951H141.935H141.94ZM141.94 122.344C140.878 122.227 139.807 122.227 138.744 122.344H69.4348C68.4988 122.344 68.1838 122.344 68.1838 123.595V145.285C68.1838 146.284 68.1838 146.536 69.4348 146.536H101.435C102.965 146.653 104.495 146.545 105.993 146.226C110.637 145.893 115.205 144.885 119.561 143.224C121.145 142.675 122.675 141.96 124.119 141.1H124.556C132.057 137.199 138.15 131.07 141.994 123.546C141.994 123.546 142.43 122.601 141.94 122.353V122.344ZM55.6242 157.782V157.408V142.846V137.91V123.222C55.6242 122.407 55.6242 122.286 54.6251 122.286H41.062C40.3105 122.286 40 122.286 40 121.286V109.411H54.4991C55.3092 109.411 55.6242 109.411 55.6242 108.349V96.5992C55.6242 95.8477 55.6242 95.6632 54.6251 95.6632H41.062C40.3105 95.6632 40 95.6632 40 94.6642V83.6661C40 82.9776 40 82.7931 40.999 82.7931H54.4361C55.3722 82.7931 55.6242 82.7931 55.6242 81.6051V47.9178C55.6242 46.9188 55.6242 46.6667 56.8752 46.6667H103.748C107.15 46.8017 110.529 47.1753 113.873 47.7918C120.762 49.0653 127.382 51.5268 133.434 55.0413C137.448 57.4039 141.143 60.2569 144.433 63.5419C146.908 66.1114 149.14 68.8925 151.12 71.8535C153.086 74.855 154.72 78.0636 156.002 81.4161C156.16 82.2891 156.997 82.8786 157.87 82.7301H169.057C170.492 82.7301 170.492 82.7301 170.555 84.1071V94.3582C170.555 95.3572 170.182 95.6092 169.178 95.6092H160.552C159.679 95.6092 159.427 95.6092 159.49 96.7342C159.832 100.541 159.832 104.362 159.49 108.169C159.49 109.231 159.49 109.357 160.682 109.357H170.551C170.987 109.919 170.551 110.482 170.551 111.049C170.614 111.773 170.614 112.507 170.551 113.231V120.796C170.551 121.858 170.24 122.173 169.3 122.173H157.487C156.664 122.016 155.863 122.542 155.674 123.361C152.861 130.674 148.361 137.23 142.547 142.486C140.423 144.399 138.191 146.199 135.86 147.859C133.358 149.299 130.923 150.798 128.358 151.986C123.638 154.11 118.688 155.676 113.607 156.67C108.783 157.534 103.892 157.926 98.9821 157.858H55.6062V157.795L55.6242 157.782Z" fill="#FEFEFD"/>
</svg>
