<svg width="200" height="200" viewBox="0 0 200 200" fill="none" xmlns="http://www.w3.org/2000/svg">
<rect width="200" height="200" rx="100" fill="#26A17B"/>
<path d="M100 0C155.226 0 200 44.774 200 100C200 155.226 155.224 200 100 200C44.776 200 0 155.238 0 100C0 44.762 44.768 0 100 0Z" fill="#26A17B"/>
<path d="M112.342 86.676V71.8H146.36V49.134H53.7281V71.8H87.7501V86.664C60.1001 87.934 39.3101 93.41 39.3101 99.97C39.3101 106.53 60.1101 112.006 87.7501 113.284V160.934H112.35V113.28C139.95 112.006 160.698 106.534 160.698 99.98C160.698 93.426 139.95 87.954 112.35 86.68M112.35 109.244V109.232C111.656 109.276 108.09 109.49 100.15 109.49C93.8021 109.49 89.3361 109.31 87.7621 109.228V109.248C63.3341 108.166 45.1001 103.912 45.1001 98.822C45.1001 93.732 63.3361 89.484 87.7621 88.4V105.01C89.3621 105.12 93.9381 105.39 100.254 105.39C107.84 105.39 111.654 105.074 112.354 105.01V88.4C136.734 89.486 154.926 93.744 154.926 98.816C154.926 103.888 136.726 108.148 112.354 109.234" fill="white"/>
</svg>
