<svg width="200" height="200" viewBox="0 0 200 200" fill="none" xmlns="http://www.w3.org/2000/svg">
<path d="M197.007 124.19C183.649 177.762 129.384 210.365 75.8 197.006C22.2385 183.65 -10.3678 129.387 2.99517 75.8197C16.3464 22.2419 70.6119 -10.3634 124.179 2.99234C177.759 16.3481 210.365 70.6161 197.007 124.19Z" fill="black"/>
<path d="M57.2415 125.771C58.0059 125.006 59.057 124.561 60.1717 124.561H161.263C163.11 124.561 164.034 126.79 162.728 128.096L142.758 148.066C141.994 148.83 140.943 149.276 139.828 149.276H38.7368C36.8895 149.276 35.9659 147.047 37.2717 145.741L57.2415 125.771Z" fill="url(#paint0_linear_7132_4529)"/>
<path d="M57.2415 51.2103C58.0378 50.4459 59.0888 50 60.1717 50H161.263C163.11 50 164.034 52.2295 162.728 53.5353L142.758 73.5052C141.994 74.2696 140.943 74.7155 139.828 74.7155H38.7368C36.8895 74.7155 35.9659 72.486 37.2717 71.1801L57.2415 51.2103Z" fill="url(#paint1_linear_7132_4529)"/>
<path d="M142.758 88.2516C141.994 87.4872 140.943 87.0413 139.828 87.0413H38.7368C36.8895 87.0413 35.9659 89.2707 37.2717 90.5766L57.2415 110.546C58.0059 111.311 59.057 111.757 60.1717 111.757H161.263C163.11 111.757 164.034 109.527 162.728 108.221L142.758 88.2516Z" fill="url(#paint2_linear_7132_4529)"/>
<defs>
<linearGradient id="paint0_linear_7132_4529" x1="151.606" y1="38.0707" x2="81.6426" y2="172.078" gradientUnits="userSpaceOnUse">
<stop stop-color="#00FFA3"/>
<stop offset="1" stop-color="#DC1FFF"/>
</linearGradient>
<linearGradient id="paint1_linear_7132_4529" x1="121.014" y1="22.0991" x2="51.0509" y2="156.107" gradientUnits="userSpaceOnUse">
<stop stop-color="#00FFA3"/>
<stop offset="1" stop-color="#DC1FFF"/>
</linearGradient>
<linearGradient id="paint2_linear_7132_4529" x1="136.213" y1="30.0339" x2="66.2493" y2="164.042" gradientUnits="userSpaceOnUse">
<stop stop-color="#00FFA3"/>
<stop offset="1" stop-color="#DC1FFF"/>
</linearGradient>
</defs>
</svg>
