<svg width="200" height="200" viewBox="0 0 200 200" fill="none" xmlns="http://www.w3.org/2000/svg">
<rect width="200" height="200" rx="100" fill="white"/>
<path fill-rule="evenodd" clip-rule="evenodd" d="M99.9998 146.235L131.417 114.817C131.417 99.3495 131.417 78.9987 131.417 63.5148L121.668 73.2645V110.77L99.9998 132.437L78.3321 110.77V73.2645L68.5824 63.5148C68.5824 78.9826 68.5824 99.3495 68.5824 114.817L99.9998 146.235ZM99.9998 81.1672L68.5824 49.7497H58.8487V118.849L93.1093 153.109L86.2187 160L49.0991 122.88V40H72.63L99.9998 67.3698L127.37 40H150.901V122.88L113.781 160L106.891 153.109L141.151 118.849V49.7497H131.417L99.9998 81.1672Z" fill="black"/>
</svg>
