<svg width="200" height="200" viewBox="0 0 200 200" fill="none" xmlns="http://www.w3.org/2000/svg">
<g id="TON">
<rect width="200" height="200" rx="100" fill="#0098EA"/>
<path id="Vector" d="M134.355 56.0239H66.0631C53.5067 56.0239 45.5481 69.5686 51.8652 80.5182L94.0124 153.571C96.7627 158.341 103.655 158.341 106.406 153.571L148.561 80.5182C154.87 69.5861 146.911 56.0239 134.363 56.0239H134.355ZM93.9781 131.664L84.7992 113.899L62.6513 74.2871C61.1902 71.7518 62.9949 68.5029 66.0545 68.5029H93.9695V131.672L93.9781 131.664ZM137.75 74.2786L115.61 113.908L106.431 131.664V68.4943H134.346C137.406 68.4943 139.211 71.7432 137.75 74.2786Z" fill="white"/>
</g>
</svg>
