<svg width="200" height="200" viewBox="0 0 200 200" fill="none" xmlns="http://www.w3.org/2000/svg">
<path d="M193.125 123.223L197.007 124.19L193.125 123.223C180.303 174.651 128.209 205.95 76.7678 193.125C25.3496 180.304 -5.95196 128.212 6.87623 76.7879L6.87648 76.7869C19.6935 25.353 71.7878 -5.94774 123.212 6.87353L123.212 6.87358C174.648 19.6949 205.95 71.7919 193.125 123.223ZM3.00937 75.8233L2.99531 75.8198L3.00937 75.8233Z" fill="white" stroke="#0052FF" stroke-width="8"/>
<path d="M144.096 85.7528C146.086 72.445 135.954 65.2915 122.1 60.5194L126.594 42.4928L115.621 39.7585L111.246 57.3105C108.361 56.591 105.398 55.9131 102.454 55.241L106.861 37.5732L95.8944 34.8389L91.3976 52.8596C89.0103 52.3161 86.6656 51.7789 84.3908 51.2129L84.4035 51.1562L69.271 47.3773L66.3519 59.0976C66.3519 59.0976 74.4932 60.9638 74.3217 61.0786C78.7653 62.1877 79.5688 65.1292 79.4354 67.4608L74.3158 87.9973C74.6218 88.075 75.0187 88.1874 75.4566 88.3634C75.0905 88.2725 74.701 88.1733 74.2967 88.0765L67.1208 116.845C66.5778 118.195 65.1994 120.221 62.0926 119.452C62.2026 119.611 54.117 117.462 54.117 117.462L48.6689 130.023L62.949 133.582C65.6055 134.249 68.2089 134.946 70.7726 135.601L66.2317 153.834L77.1923 156.569L81.6892 138.529C84.6835 139.342 87.5894 140.092 90.4342 140.798L85.9524 158.753L96.9263 161.487L101.467 143.288C120.179 146.83 134.248 145.402 140.171 128.477C144.943 114.85 139.933 106.991 130.089 101.865C137.259 100.212 142.66 95.4958 144.099 85.7542L144.096 85.7518L144.096 85.7528ZM119.024 120.91C115.633 134.536 92.6899 127.17 85.2515 125.323L91.2773 101.167C98.7153 103.024 122.568 106.698 119.025 120.91H119.024ZM122.418 85.5553C119.324 97.9501 100.229 91.653 94.0341 90.1089L99.4973 68.2008C105.692 69.7449 125.64 72.6268 122.419 85.5553H122.418Z" fill="#0052FF"/>
</svg>
