<svg width="200" height="200" viewBox="0 0 200 200" fill="none" xmlns="http://www.w3.org/2000/svg">
<g clip-path="url(#clip0_7132_4524)">
<path fill-rule="evenodd" clip-rule="evenodd" d="M100 0C155.232 0 200 44.7676 200 100C200 155.232 155.232 200 100 200C44.7676 200 0 155.232 0 100C0 44.7676 44.7676 0 100 0Z" fill="#F0B90B"/>
<path d="M54.9599 100L55.0321 126.442L77.5 139.663V155.144L41.883 134.255V92.2676L54.9599 100ZM54.9599 73.5577V88.9663L41.875 81.2259V65.8173L54.9599 58.0769L68.109 65.8173L54.9599 73.5577ZM86.883 65.8173L99.9679 58.0769L113.117 65.8173L99.9679 73.5577L86.883 65.8173Z" fill="white"/>
<path d="M64.415 120.962V105.481L77.5 113.221V128.63L64.415 120.962ZM86.883 145.208L99.9679 152.949L113.117 145.208V160.617L99.9679 168.357L86.883 160.617V145.208ZM131.883 65.8173L144.968 58.0769L158.117 65.8173V81.2259L144.968 88.9663V73.5577L131.883 65.8173ZM144.968 126.442L145.04 100L158.125 92.2596V134.247L122.508 155.136V139.655L144.968 126.442Z" fill="white"/>
<path d="M135.585 120.961L122.5 128.63V113.221L135.585 105.481V120.961Z" fill="white"/>
<path d="M135.585 79.0384L135.657 94.5192L113.125 107.74V134.247L100.04 141.915L86.9551 134.247V107.74L64.423 94.5192V79.0384L77.5641 71.298L99.9599 84.5833L122.492 71.298L135.641 79.0384H135.585ZM64.415 52.6041L99.9679 31.6426L135.585 52.6041L122.5 60.3445L99.9679 47.0592L77.5 60.3445L64.415 52.6041Z" fill="white"/>
</g>
<defs>
<clipPath id="clip0_7132_4524">
<rect width="200" height="200" rx="100" fill="white"/>
</clipPath>
</defs>
</svg>
