<svg width="200" height="200" viewBox="0 0 200 200" fill="none" xmlns="http://www.w3.org/2000/svg">
<mask id="mask0_7225_151" style="mask-type:luminance" maskUnits="userSpaceOnUse" x="2" y="2" width="196" height="196">
<path d="M99.9999 197.964C154.104 197.964 197.964 154.104 197.964 99.9999C197.964 45.8959 154.104 2.03589 99.9999 2.03589C45.8959 2.03589 2.03589 45.8959 2.03589 99.9999C2.03589 154.104 45.8959 197.964 99.9999 197.964Z" fill="white"/>
</mask>
<g mask="url(#mask0_7225_151)">
<path d="M207.24 -7.23999H-7.23999V207.24H207.24V-7.23999Z" fill="url(#paint0_linear_7225_151)"/>
</g>
<path d="M128.332 121.14L156.048 105.136C157.516 104.288 158.424 102.712 158.424 101.016V69.0119C158.424 67.3199 157.512 65.7399 156.048 64.8919L128.332 48.8879C126.864 48.0399 125.044 48.0439 123.576 48.8879L95.8599 64.8919C94.3919 65.7399 93.4839 67.3199 93.4839 69.0119V126.208L74.0479 137.428L54.6119 126.208V103.764L74.0479 92.5439L86.8679 99.9439V84.8879L76.4239 78.8599C75.7039 78.4439 74.8799 78.2239 74.0439 78.2239C73.2079 78.2239 72.3839 78.4439 71.6679 78.8599L43.9519 94.8639C42.4839 95.7119 41.5759 97.2879 41.5759 98.9839V130.988C41.5759 132.68 42.4879 134.26 43.9519 135.108L71.6679 151.112C73.1319 151.956 74.9559 151.956 76.4239 151.112L104.14 135.112C105.608 134.264 106.516 132.684 106.516 130.992V73.7959L106.868 73.5959L125.952 62.5759L145.388 73.7959V96.2399L125.952 107.46L113.152 100.068V115.124L123.576 121.144C125.044 121.988 126.864 121.988 128.332 121.144V121.14Z" fill="white"/>
<defs>
<linearGradient id="paint0_linear_7225_151" x1="-46.436" y1="10.388" x2="174.98" y2="145.884" gradientUnits="userSpaceOnUse">
<stop stop-color="#A229C5"/>
<stop offset="1" stop-color="#7B3FE4"/>
</linearGradient>
</defs>
</svg>
