<svg width="200" height="200" viewBox="0 0 200 200" fill="none" xmlns="http://www.w3.org/2000/svg">
<g clip-path="url(#clip0_7926_827)">
<rect width="200" height="200" rx="100" fill="#3A963D"/>
<path d="M150.512 78.843L153.976 81.1526L150.858 90.5065L149.01 92.1232L129.148 91.1993L128.917 87.1576L131.227 80.1133L132.15 79.4204L136.77 77.8037L140.58 77.2263L150.512 78.843Z" fill="black"/>
<path d="M82.0328 77.1106L101.433 77.5725L104.551 82.3072L103.627 88.774L100.163 92.9313L82.9566 88.1966L77.8755 84.2703L71.1777 81.0369L69.33 79.1892L82.0328 77.1106Z" fill="black"/>
<path d="M102.166 79.7993C103.27 83.0525 102.88 86.1585 101.717 89.1986C101.354 90.1487 100.763 91.012 100.212 92.0355C103.024 92.6124 105.914 92.8809 108.74 92.3068C111.509 91.7443 114.19 90.7489 117.151 89.8719C117.1 89.5032 117.12 88.899 116.923 88.3762C116.104 86.1973 115.252 84.0292 114.349 81.8836C113.597 80.0943 112.174 78.8518 110.658 77.7258C110.413 77.5439 110.019 77.5007 109.694 77.4989C106.722 77.4824 103.75 77.4892 100.479 77.4892C101.21 78.4671 101.675 79.0901 102.166 79.7993Z" fill="white"/>
<path d="M150.35 87.2095C149.714 88.6466 149.108 89.9879 148.533 91.2603C152.247 91.2697 154.863 90.0299 157.452 87.1405C158.015 86.5126 158.573 85.8804 159.144 85.2605C159.894 84.4465 159.823 83.9486 158.745 83.4403C156.848 82.5453 154.915 81.7244 153.007 80.8496C151.63 80.2179 150.273 79.5399 148.897 78.9067C148.67 78.8025 148.386 78.823 147.884 78.7505C149.968 81.31 150.713 84.0641 150.35 87.2095Z" fill="white"/>
<path d="M72.1668 78.8811C71.2184 79.0706 70.3686 79.2398 69.2946 79.4536C72.3387 81.2545 75.9918 81.3667 78.5816 84.0211C78.9544 81.5269 80.4196 79.7519 82.2112 77.8154C78.7427 78.18 75.504 78.5203 72.1668 78.8811Z" fill="white"/>
<path d="M92.6334 83.703C92.21 85.4239 93.2369 86.7047 94.8922 86.7626C96.285 86.8113 97.515 86.5985 98.1872 85.2237C99.3157 82.9157 98.3276 81.6893 96.0712 81.3996C94.7817 81.234 93.2028 82.3512 92.6334 83.703Z" fill="white"/>
<path d="M130.089 85.616C130.54 84.0418 130.982 82.5665 131.424 81.0912C131.362 81.04 131.3 80.9887 131.238 80.9375C129.782 82.7815 128.285 84.5953 126.897 86.4884C126.493 87.0388 126.407 87.8191 126.161 88.4887C125.77 89.5507 126.359 89.9401 127.262 90.1477C128.218 90.3676 129.169 90.6112 130.08 90.8342C130.08 89.1317 130.08 87.4234 130.089 85.616Z" fill="white"/>
<path d="M143.532 87.1906C144.293 87.2683 145.002 87.4464 145.641 87.3077C146.593 87.1013 147.064 85.8932 146.924 84.4382C146.826 83.4178 146.155 83.042 145.234 82.9029C144.27 82.7572 143.343 82.5787 142.801 83.7273C142.238 84.9199 142.444 86.154 143.532 87.1906Z" fill="white"/>
<path d="M87.3795 80.9559C87.6173 79.9136 87.0437 79.3367 86.2631 79.2259C85.8035 79.1607 85.0486 79.5527 84.8186 79.9603C84.5986 80.3501 84.7133 81.1427 84.9884 81.551C85.4686 82.2637 86.5532 81.9765 87.3795 80.9559Z" fill="white"/>
<path d="M85.5236 85.9045C86.0814 86.792 86.8573 87.0618 87.5352 86.4013C87.8939 86.0519 87.9552 85.2418 87.8786 84.6765C87.8475 84.4465 87.0529 84.1063 86.6779 84.1806C85.8866 84.3374 85.3208 84.8587 85.5236 85.9045Z" fill="white"/>
<path d="M136.837 83.0689C137.617 82.3514 137.728 81.6699 136.953 80.986C136.354 80.4569 135.764 80.5313 135.302 81.1593C134.797 81.8459 134.665 82.6131 135.478 83.1268C135.787 83.3226 136.336 83.1409 136.837 83.0689Z" fill="white"/>
<path d="M137.479 88.0906C137.351 87.5081 137.328 86.8542 136.991 86.56C136.758 86.3559 135.937 86.4909 135.663 86.762C135.402 87.0207 135.351 87.7079 135.491 88.1073C135.768 88.8968 136.608 88.8888 137.479 88.0906Z" fill="white"/>
<mask id="path-14-outside-1_7926_827" maskUnits="userSpaceOnUse" x="1.95752" y="25.1287" width="162" height="172" fill="black">
<rect fill="white" x="1.95752" y="25.1287" width="162" height="172"/>
<path d="M16.9734 96.437C16.9734 96.437 16.8833 96.6009 16.8858 96.6807C16.3103 98.2066 15.6606 99.7364 15.1245 101.222C14.4437 103.11 13.7555 104.995 13.0599 106.877C12.8772 107.371 12.4976 108.113 12.2666 108.806C11.9931 109.773 10.8809 112.848 10.1352 115.147C9.56718 118.966 9.02846 122.79 8.42313 126.603C7.78894 130.598 7.01025 134.572 6.45064 138.577C6.11235 140.998 6.0878 143.462 5.88922 145.904C5.76555 147.424 5.59616 148.942 5.41898 150.457C5.11314 153.073 4.46933 155.697 4.55072 158.299C4.6418 161.21 5.20245 164.145 5.89392 166.988C6.48598 169.422 7.3864 171.818 8.44283 174.095C10.4507 178.423 13.6463 181.756 17.8344 184.043C22.2041 186.429 26.6597 188.656 31.433 190.151C33.5873 190.826 35.7322 191.578 37.9346 192.043C40.7684 192.641 43.6465 193.059 46.5225 193.419C49.4808 193.789 52.4542 194.114 55.4305 194.248C60.1385 194.46 64.8553 194.595 69.5669 194.561C71.6537 194.546 73.7315 193.986 75.8234 193.771C77.6111 193.587 79.4125 193.47 81.2092 193.452C89.3419 193.771 91.3289 196.276 104.29 192.964C106.728 192.216 109.168 191.472 111.604 190.716C112.148 190.547 112.666 190.27 113.22 190.153C114.912 189.796 115.693 188.425 116.765 187.278C119.611 184.233 118.412 180.642 118.405 177.201C118.405 176.986 118.312 176.737 118.185 176.56C116.374 174.05 114.914 171.309 112.584 169.143C111.371 168.016 110.468 166.397 109.851 164.832C109.227 163.247 109.637 161.629 110.926 160.282C113.181 157.927 116.026 157.168 118.759 158.447C119.529 158.807 120.156 159.469 120.717 159.893C121.872 159.156 123.04 158.453 124.161 157.682C125.202 156.966 126.288 156.275 127.19 155.403C129.984 152.702 132.811 150.015 136.169 148.055C138.191 146.875 140.297 145.722 142.74 145.412C144.902 145.138 146.656 145.764 148.215 147.209C149.135 148.062 150.116 148.849 151.047 149.646C154.947 146.404 156.941 141.634 155.721 138.352C155.333 138.606 154.962 138.823 154.619 139.077C151.713 141.228 148.564 142.361 144.848 142.017C139.943 141.562 135.026 141.917 130.123 142.308C126.488 142.597 119.098 142.48 119.098 142.48C119.098 142.48 116.91 142.285 115.638 142.262C112.644 142.36 109.826 142.391 107.009 142.395C103.855 142.017 103.602 141.637 99.914 140.849C95.0756 140.313 90.3265 139.497 85.929 137.009C83.0332 135.371 79.8852 134.184 76.8859 132.721C74.787 131.698 72.751 130.545 70.6823 129.459C67.8724 127.984 64.9844 126.639 62.2696 125.007C60.1777 123.749 58.1685 122.279 56.3611 120.64C53.891 118.401 54.3017 114.625 56.2696 112.421C57.1133 111.476 58.3417 111.345 59.4833 111.607C62.5796 112.317 65.6543 113.123 68.7276 113.93C72.6886 114.969 76.611 116.172 80.602 117.075C86.5487 118.421 92.5215 119.672 98.5204 120.759C102.437 121.469 106.41 121.917 110.375 122.299C114.805 122.725 119.256 122.934 123.696 123.257C126.49 123.461 129.28 123.702 132.242 123.851C134.115 123.752 135.819 123.704 137.522 123.713C138.3 123.718 139.078 123.835 139.855 123.901C143.342 123.761 146.84 123.712 150.233 122.751C152.165 122.204 153.893 121.209 155.188 119.714C157.791 116.709 159.983 113.445 160.757 109.421C161.282 106.692 160.807 104.253 158.946 102.124C157.943 100.976 156.992 99.7844 155.937 98.516C155.35 99.2314 154.9 99.8326 154.395 100.384C153.499 101.363 152.492 102.198 151.09 102.289C149.711 102.378 148.328 102.464 146.95 102.434C146.632 102.427 146.324 101.943 146.012 101.678C146.346 101.39 146.653 100.901 147.021 100.849C148.194 100.686 149.391 100.707 150.576 100.614C152.044 100.499 152.974 99.6061 153.785 98.2759C151.983 98.2759 150.311 98.2734 148.639 98.2771C148.017 98.2785 147.371 98.1704 147.416 97.4148C147.461 96.6481 148.126 96.4953 148.796 96.5342C149.179 96.5565 149.56 96.614 149.942 96.6543C154.68 97.1533 156.979 94.8228 159.214 90.8696C159.92 89.6218 159.981 87.3094 159.85 86.2876C159.775 85.7114 159.932 86.6721 159.062 87.8263C156.546 91.1655 153.161 92.7354 149.041 93.2232C143.802 93.8437 138.61 93.2352 133.405 92.995C131.397 92.9023 129.409 92.3751 127.411 92.0566C124.062 91.5227 123.309 89.8096 124.778 86.5386C125.59 84.7318 127.067 83.2086 128.324 81.6212C129.632 79.9698 130.857 78.184 132.443 76.8391C134.506 75.0896 136.814 73.586 139.168 72.2436C140.165 71.6755 141.544 71.7449 142.758 71.5972C146.567 71.1336 150.337 71.3891 154.078 72.242C156.336 72.7568 157.422 74.5392 158.59 76.2554C159.094 76.9969 160.238 80.9755 160.349 78.3884C160.349 77.0335 160.421 75.6732 160.32 74.3257C160.264 73.5697 160.152 72.4572 159.666 72.1607C158.152 71.2377 156.504 70.2123 154.806 69.9812C151.085 69.4752 147.305 69.3204 143.544 69.2287C138.001 69.0936 133.398 71.2797 129.655 75.3323C129.499 75.5018 129.36 75.7823 129.178 75.8151C128.684 76.0506 128.331 76.2041 127.849 75.8603C127.367 75.5166 127.75 74.9013 127.966 74.6475C129.621 72.7015 131.607 71.1585 133.813 69.8516C137.605 67.6064 141.757 67.3584 145.971 67.5458C149.226 67.6905 152.473 68.0313 155.72 68.3168C156.247 68.3631 156.76 68.5751 157.376 68.6005C157.458 68.2959 157.444 68.1014 157.429 67.9069C155.924 66.3347 153.955 65.9417 151.911 65.7202C147.526 65.245 143.157 65.3652 138.833 66.2146C137.579 66.4609 136.412 67.1252 135.173 67.4872C134.722 67.6189 133.917 67.8183 133.675 67.3846C133.287 66.6893 134.038 66.1929 134.397 66.0543C136.243 65.3403 138.109 64.5264 140.043 64.2253C142.687 63.8136 145.396 63.7526 148.08 63.6973C149.634 63.6653 151.194 63.9398 153.095 64.1063C152.66 63.3654 152.385 62.8142 152.035 62.3159C150.297 59.844 148.263 57.6409 145.667 56.0718C142.59 54.2119 139.566 52.1618 136.268 50.8015C133.3 49.5774 130.023 49.0088 126.83 48.4515C122.85 47.757 118.86 48.2783 114.945 49.134C112.979 49.5636 111.076 50.2784 109.152 50.8617C110.371 52.3606 111.784 53.7903 112.828 55.4521C114.678 58.3959 116.406 61.4294 117.961 64.5374C118.439 65.4921 117.957 67.467 118.046 68.6192C117.013 68.7957 109.15 67.4184 102.787 67.4184C97.0597 65.5353 97.2799 65.275 94.3845 65.0963C91.0949 64.9689 88.8296 64.9239 84.4575 65.074C82.2303 64.9967 80.0027 64.9312 77.7761 64.8391C74.5009 64.7037 71.513 65.7861 68.5731 67.0289C68.0273 67.2596 67.5466 67.7102 67.118 68.141C65.1673 70.1019 63.2221 72.0697 61.3333 74.0896C60.9388 74.5116 60.6496 75.1449 60.5699 75.7168C60.4892 76.2951 60.7288 76.9181 60.8281 77.5215C61.5398 77.3131 62.3633 77.2608 62.9324 76.8533C63.5259 76.4282 63.9002 75.6781 64.325 75.0399C66.2403 72.162 68.9573 70.4532 72.1984 69.3873C77.7338 67.5669 83.4533 67.0782 89.2154 66.8795C93.6386 66.7269 97.5197 68.21 101.163 70.6944C103.394 72.2154 105.863 73.4291 108.33 74.5516C112.21 76.3174 115.186 78.8412 116.581 83.0071C117.26 85.0349 118.079 87.0158 118.855 89.0105C118.926 89.1949 119.111 89.3696 119.288 89.4738C122.448 91.3387 122.561 93.9052 119.522 96.0225C118.49 96.7414 117.315 97.2545 116.281 97.9716C115.254 98.6841 114.267 99.4762 113.361 100.336C111.055 102.525 108.868 104.842 106.511 106.972C104.403 108.876 101.604 109.407 99.0142 110.337C96.924 111.088 94.8823 111.983 92.7691 112.657C91.6222 113.023 90.375 113.119 89.1637 113.208C88.8538 113.23 88.508 112.763 88.1787 112.52C88.4863 112.201 88.7946 111.604 89.1013 111.605C91.9091 111.612 94.2185 110.114 96.7264 109.218C98.7452 108.497 100.861 108.011 102.814 107.15C105.688 105.882 108.01 103.82 110.026 101.415C110.604 100.725 111.25 100.092 111.967 99.3229C108.97 99.0455 108.156 99.3229 101.548 98.833C97.6952 98.4268 93.8404 98.0349 89.9893 97.6098C86.8653 97.265 83.7135 96.9641 80.8272 95.6051C79.5914 95.0232 78.4059 94.2592 77.3456 93.3961C75.1475 91.6071 73.0362 89.7101 70.9249 87.8178C70.6773 87.5958 70.4484 86.9412 70.5687 86.806C70.8208 86.5231 71.3614 86.2562 71.6929 86.3402C72.2236 86.4746 72.7395 86.8346 73.1584 87.2134C74.7824 88.6818 76.3389 90.225 77.9701 91.6849C80.4873 93.9377 83.5452 95.0647 86.8245 95.4665C91.0534 95.9847 95.305 96.3297 99.5529 96.6761C102.415 96.9095 105.288 97.0181 108.156 97.1789C109.643 97.2623 111.177 97.6057 112.608 97.3586C115.217 96.908 117.52 95.6165 119.459 93.7905C120.383 92.9214 120.073 91.9904 118.978 91.3191C117.852 91.5897 116.946 91.7838 116.054 92.0288C115.247 92.2505 114.408 92.4335 113.664 92.7975C111.043 94.0786 108.251 94.5203 105.393 94.4092C100.705 94.227 96.0866 93.5686 91.6228 92.0156C90.032 91.4622 88.3707 91.1143 86.7676 90.5926C83.3354 89.4757 79.9077 88.3236 77.3653 85.5476C76.1 84.166 74.4472 83.4963 72.7525 82.8272C69.763 81.6469 66.8322 80.3177 63.8407 79.1427C63.3184 78.9375 62.6056 79.1154 62.0039 79.2337C60.2493 79.5787 58.6627 78.6607 58.7137 76.9904C58.7517 75.7445 59.0223 74.2433 59.7701 73.3328C61.6895 70.9954 63.9078 68.8991 66.0534 66.7532C67.9337 64.8726 70.4911 64.4327 72.8956 63.6697C75.1915 62.9411 77.536 63.2555 79.8702 63.226C82.596 63.1914 85.3204 63.0288 88.0462 63.0037C93.345 62.9551 98.6443 62.9625 103.943 62.9493C105.393 62.9457 106.844 62.9993 108.29 62.9424C111.198 62.8279 113.506 64.009 115.4 66.1216C115.73 66.4904 116.26 66.8235 116.545 67.2334C116.722 67.1368 116.614 67.1523 116.791 67.0557C116.706 66.5059 116.748 65.8951 116.516 65.4158C114.024 60.2501 111.268 55.2834 106.965 51.3081C104.82 49.3264 102.452 47.7462 99.9368 46.34C99.3466 46.01 98.656 45.7471 97.9898 45.6843C93.9786 45.3063 89.9643 44.9475 85.9446 44.6761C82.0058 44.4102 78.1415 44.9618 74.3233 45.9372C71.9606 46.5409 69.9297 47.6579 68.115 49.2966C66.6974 50.5766 65.1382 51.7094 63.5698 52.8042C63.2669 53.0156 62.4912 53.2662 62.1469 52.7018C61.8026 52.1373 62.2665 51.7543 62.5346 51.5332C64.6627 49.7783 66.815 48.0501 69.0134 46.3843C71.3229 44.6343 74.1132 44.1361 76.8624 43.5902C82.361 42.4984 87.8812 42.9204 93.3957 43.4486C95.0628 43.6082 96.7207 43.8633 98.7308 44.1189C98.3883 42.7833 98.2088 41.661 97.8144 40.6201C96.2683 36.5388 93.7096 33.2932 89.9152 31.0163C87.4383 29.5299 84.7561 28.871 81.9441 28.6163C79.4589 28.3913 76.9587 28.0619 74.4766 28.1405C71.2279 28.2434 67.9838 28.6474 64.7532 29.0468C63.9636 29.1444 63.2486 29.7636 62.4745 30.0826C58.3111 31.798 55.1378 34.6297 52.896 38.5204C51.8623 40.3142 50.8682 42.1316 49.7991 43.9039C49.288 44.7513 48.6816 45.5493 48.0529 46.3161C46.5474 48.1522 45.0105 49.9628 43.4718 51.7714C42.5839 52.8152 41.6253 53.8013 40.7738 54.8731C39.1852 56.8729 37.5577 58.8523 36.1194 60.9583C34.4548 63.3955 32.8664 65.8991 31.441 68.4821C28.537 73.7444 25.7381 79.0654 22.9493 84.3903C21.5892 86.9871 20.3493 89.6468 19.0576 92.4449C18.4918 93.7816 17.6762 95.1442 16.9734 96.437ZM136.417 99.8621C136 99.8221 135.582 99.7821 134.999 99.7263C136.541 101.45 137.996 102.977 139.333 104.602C140.301 105.779 141.167 107.053 141.952 108.359C142.129 108.654 142.142 109.508 141.675 109.729C141.27 109.921 140.781 109.509 140.547 109.224C139.018 107.364 137.503 105.489 136.073 103.552C134.042 100.801 131.285 99.0728 128.232 97.7137C127.817 97.5288 127.371 97.3158 127.074 96.9919C126.839 96.7351 126.811 96.2884 126.691 95.9261C127.128 95.8071 127.59 95.5359 127.994 95.6052C128.581 95.7058 129.117 96.0759 129.69 96.2895C133.656 97.7673 137.661 98.8564 141.943 97.6938C142.239 97.6135 142.793 97.9694 142.996 98.2757C143.1 98.4331 142.772 99.0255 142.499 99.2459C142.194 99.4911 141.735 99.6257 141.332 99.6534C139.765 99.7612 138.193 99.8075 136.417 99.8621ZM56.2449 108.995C59.0746 108.022 62.0118 107.794 64.969 107.848C65.3775 107.855 66.067 108.414 66.1163 108.785C66.214 109.522 65.5308 109.558 64.9063 109.596C63.1163 109.703 61.3296 109.871 59.5436 110.037C56.4098 110.328 53.9423 111.696 52.2868 114.455C52.1118 114.746 51.4275 114.995 51.112 114.885C50.4674 114.66 50.5712 114.1 50.8737 113.551C52.0564 111.406 53.8638 110.002 56.2449 108.995ZM60.4001 102.041C61.0505 102.015 61.7007 101.974 62.3512 101.969C62.9125 101.965 63.5627 101.845 63.6448 102.705C63.727 103.566 63.0971 103.536 62.5245 103.649C60.7027 104.007 58.8782 104.36 57.0753 104.799C56.4734 104.946 55.8343 105.362 55.4652 104.642C55.0559 103.843 55.5927 103.326 56.34 103.106C57.6153 102.731 58.9074 102.415 60.4001 102.041Z"/>
</mask>
<path d="M16.9734 96.437C16.9734 96.437 16.8833 96.6009 16.8858 96.6807C16.3103 98.2066 15.6606 99.7364 15.1245 101.222C14.4437 103.11 13.7555 104.995 13.0599 106.877C12.8772 107.371 12.4976 108.113 12.2666 108.806C11.9931 109.773 10.8809 112.848 10.1352 115.147C9.56718 118.966 9.02846 122.79 8.42313 126.603C7.78894 130.598 7.01025 134.572 6.45064 138.577C6.11235 140.998 6.0878 143.462 5.88922 145.904C5.76555 147.424 5.59616 148.942 5.41898 150.457C5.11314 153.073 4.46933 155.697 4.55072 158.299C4.6418 161.21 5.20245 164.145 5.89392 166.988C6.48598 169.422 7.3864 171.818 8.44283 174.095C10.4507 178.423 13.6463 181.756 17.8344 184.043C22.2041 186.429 26.6597 188.656 31.433 190.151C33.5873 190.826 35.7322 191.578 37.9346 192.043C40.7684 192.641 43.6465 193.059 46.5225 193.419C49.4808 193.789 52.4542 194.114 55.4305 194.248C60.1385 194.46 64.8553 194.595 69.5669 194.561C71.6537 194.546 73.7315 193.986 75.8234 193.771C77.6111 193.587 79.4125 193.47 81.2092 193.452C89.3419 193.771 91.3289 196.276 104.29 192.964C106.728 192.216 109.168 191.472 111.604 190.716C112.148 190.547 112.666 190.27 113.22 190.153C114.912 189.796 115.693 188.425 116.765 187.278C119.611 184.233 118.412 180.642 118.405 177.201C118.405 176.986 118.312 176.737 118.185 176.56C116.374 174.05 114.914 171.309 112.584 169.143C111.371 168.016 110.468 166.397 109.851 164.832C109.227 163.247 109.637 161.629 110.926 160.282C113.181 157.927 116.026 157.168 118.759 158.447C119.529 158.807 120.156 159.469 120.717 159.893C121.872 159.156 123.04 158.453 124.161 157.682C125.202 156.966 126.288 156.275 127.19 155.403C129.984 152.702 132.811 150.015 136.169 148.055C138.191 146.875 140.297 145.722 142.74 145.412C144.902 145.138 146.656 145.764 148.215 147.209C149.135 148.062 150.116 148.849 151.047 149.646C154.947 146.404 156.941 141.634 155.721 138.352C155.333 138.606 154.962 138.823 154.619 139.077C151.713 141.228 148.564 142.361 144.848 142.017C139.943 141.562 135.026 141.917 130.123 142.308C126.488 142.597 119.098 142.48 119.098 142.48C119.098 142.48 116.91 142.285 115.638 142.262C112.644 142.36 109.826 142.391 107.009 142.395C103.855 142.017 103.602 141.637 99.914 140.849C95.0756 140.313 90.3265 139.497 85.929 137.009C83.0332 135.371 79.8852 134.184 76.8859 132.721C74.787 131.698 72.751 130.545 70.6823 129.459C67.8724 127.984 64.9844 126.639 62.2696 125.007C60.1777 123.749 58.1685 122.279 56.3611 120.64C53.891 118.401 54.3017 114.625 56.2696 112.421C57.1133 111.476 58.3417 111.345 59.4833 111.607C62.5796 112.317 65.6543 113.123 68.7276 113.93C72.6886 114.969 76.611 116.172 80.602 117.075C86.5487 118.421 92.5215 119.672 98.5204 120.759C102.437 121.469 106.41 121.917 110.375 122.299C114.805 122.725 119.256 122.934 123.696 123.257C126.49 123.461 129.28 123.702 132.242 123.851C134.115 123.752 135.819 123.704 137.522 123.713C138.3 123.718 139.078 123.835 139.855 123.901C143.342 123.761 146.84 123.712 150.233 122.751C152.165 122.204 153.893 121.209 155.188 119.714C157.791 116.709 159.983 113.445 160.757 109.421C161.282 106.692 160.807 104.253 158.946 102.124C157.943 100.976 156.992 99.7844 155.937 98.516C155.35 99.2314 154.9 99.8326 154.395 100.384C153.499 101.363 152.492 102.198 151.09 102.289C149.711 102.378 148.328 102.464 146.95 102.434C146.632 102.427 146.324 101.943 146.012 101.678C146.346 101.39 146.653 100.901 147.021 100.849C148.194 100.686 149.391 100.707 150.576 100.614C152.044 100.499 152.974 99.6061 153.785 98.2759C151.983 98.2759 150.311 98.2734 148.639 98.2771C148.017 98.2785 147.371 98.1704 147.416 97.4148C147.461 96.6481 148.126 96.4953 148.796 96.5342C149.179 96.5565 149.56 96.614 149.942 96.6543C154.68 97.1533 156.979 94.8228 159.214 90.8696C159.92 89.6218 159.981 87.3094 159.85 86.2876C159.775 85.7114 159.932 86.6721 159.062 87.8263C156.546 91.1655 153.161 92.7354 149.041 93.2232C143.802 93.8437 138.61 93.2352 133.405 92.995C131.397 92.9023 129.409 92.3751 127.411 92.0566C124.062 91.5227 123.309 89.8096 124.778 86.5386C125.59 84.7318 127.067 83.2086 128.324 81.6212C129.632 79.9698 130.857 78.184 132.443 76.8391C134.506 75.0896 136.814 73.586 139.168 72.2436C140.165 71.6755 141.544 71.7449 142.758 71.5972C146.567 71.1336 150.337 71.3891 154.078 72.242C156.336 72.7568 157.422 74.5392 158.59 76.2554C159.094 76.9969 160.238 80.9755 160.349 78.3884C160.349 77.0335 160.421 75.6732 160.32 74.3257C160.264 73.5697 160.152 72.4572 159.666 72.1607C158.152 71.2377 156.504 70.2123 154.806 69.9812C151.085 69.4752 147.305 69.3204 143.544 69.2287C138.001 69.0936 133.398 71.2797 129.655 75.3323C129.499 75.5018 129.36 75.7823 129.178 75.8151C128.684 76.0506 128.331 76.2041 127.849 75.8603C127.367 75.5166 127.75 74.9013 127.966 74.6475C129.621 72.7015 131.607 71.1585 133.813 69.8516C137.605 67.6064 141.757 67.3584 145.971 67.5458C149.226 67.6905 152.473 68.0313 155.72 68.3168C156.247 68.3631 156.76 68.5751 157.376 68.6005C157.458 68.2959 157.444 68.1014 157.429 67.9069C155.924 66.3347 153.955 65.9417 151.911 65.7202C147.526 65.245 143.157 65.3652 138.833 66.2146C137.579 66.4609 136.412 67.1252 135.173 67.4872C134.722 67.6189 133.917 67.8183 133.675 67.3846C133.287 66.6893 134.038 66.1929 134.397 66.0543C136.243 65.3403 138.109 64.5264 140.043 64.2253C142.687 63.8136 145.396 63.7526 148.08 63.6973C149.634 63.6653 151.194 63.9398 153.095 64.1063C152.66 63.3654 152.385 62.8142 152.035 62.3159C150.297 59.844 148.263 57.6409 145.667 56.0718C142.59 54.2119 139.566 52.1618 136.268 50.8015C133.3 49.5774 130.023 49.0088 126.83 48.4515C122.85 47.757 118.86 48.2783 114.945 49.134C112.979 49.5636 111.076 50.2784 109.152 50.8617C110.371 52.3606 111.784 53.7903 112.828 55.4521C114.678 58.3959 116.406 61.4294 117.961 64.5374C118.439 65.4921 117.957 67.467 118.046 68.6192C117.013 68.7957 109.15 67.4184 102.787 67.4184C97.0597 65.5353 97.2799 65.275 94.3845 65.0963C91.0949 64.9689 88.8296 64.9239 84.4575 65.074C82.2303 64.9967 80.0027 64.9312 77.7761 64.8391C74.5009 64.7037 71.513 65.7861 68.5731 67.0289C68.0273 67.2596 67.5466 67.7102 67.118 68.141C65.1673 70.1019 63.2221 72.0697 61.3333 74.0896C60.9388 74.5116 60.6496 75.1449 60.5699 75.7168C60.4892 76.2951 60.7288 76.9181 60.8281 77.5215C61.5398 77.3131 62.3633 77.2608 62.9324 76.8533C63.5259 76.4282 63.9002 75.6781 64.325 75.0399C66.2403 72.162 68.9573 70.4532 72.1984 69.3873C77.7338 67.5669 83.4533 67.0782 89.2154 66.8795C93.6386 66.7269 97.5197 68.21 101.163 70.6944C103.394 72.2154 105.863 73.4291 108.33 74.5516C112.21 76.3174 115.186 78.8412 116.581 83.0071C117.26 85.0349 118.079 87.0158 118.855 89.0105C118.926 89.1949 119.111 89.3696 119.288 89.4738C122.448 91.3387 122.561 93.9052 119.522 96.0225C118.49 96.7414 117.315 97.2545 116.281 97.9716C115.254 98.6841 114.267 99.4762 113.361 100.336C111.055 102.525 108.868 104.842 106.511 106.972C104.403 108.876 101.604 109.407 99.0142 110.337C96.924 111.088 94.8823 111.983 92.7691 112.657C91.6222 113.023 90.375 113.119 89.1637 113.208C88.8538 113.23 88.508 112.763 88.1787 112.52C88.4863 112.201 88.7946 111.604 89.1013 111.605C91.9091 111.612 94.2185 110.114 96.7264 109.218C98.7452 108.497 100.861 108.011 102.814 107.15C105.688 105.882 108.01 103.82 110.026 101.415C110.604 100.725 111.25 100.092 111.967 99.3229C108.97 99.0455 108.156 99.3229 101.548 98.833C97.6952 98.4268 93.8404 98.0349 89.9893 97.6098C86.8653 97.265 83.7135 96.9641 80.8272 95.6051C79.5914 95.0232 78.4059 94.2592 77.3456 93.3961C75.1475 91.6071 73.0362 89.7101 70.9249 87.8178C70.6773 87.5958 70.4484 86.9412 70.5687 86.806C70.8208 86.5231 71.3614 86.2562 71.6929 86.3402C72.2236 86.4746 72.7395 86.8346 73.1584 87.2134C74.7824 88.6818 76.3389 90.225 77.9701 91.6849C80.4873 93.9377 83.5452 95.0647 86.8245 95.4665C91.0534 95.9847 95.305 96.3297 99.5529 96.6761C102.415 96.9095 105.288 97.0181 108.156 97.1789C109.643 97.2623 111.177 97.6057 112.608 97.3586C115.217 96.908 117.52 95.6165 119.459 93.7905C120.383 92.9214 120.073 91.9904 118.978 91.3191C117.852 91.5897 116.946 91.7838 116.054 92.0288C115.247 92.2505 114.408 92.4335 113.664 92.7975C111.043 94.0786 108.251 94.5203 105.393 94.4092C100.705 94.227 96.0866 93.5686 91.6228 92.0156C90.032 91.4622 88.3707 91.1143 86.7676 90.5926C83.3354 89.4757 79.9077 88.3236 77.3653 85.5476C76.1 84.166 74.4472 83.4963 72.7525 82.8272C69.763 81.6469 66.8322 80.3177 63.8407 79.1427C63.3184 78.9375 62.6056 79.1154 62.0039 79.2337C60.2493 79.5787 58.6627 78.6607 58.7137 76.9904C58.7517 75.7445 59.0223 74.2433 59.7701 73.3328C61.6895 70.9954 63.9078 68.8991 66.0534 66.7532C67.9337 64.8726 70.4911 64.4327 72.8956 63.6697C75.1915 62.9411 77.536 63.2555 79.8702 63.226C82.596 63.1914 85.3204 63.0288 88.0462 63.0037C93.345 62.9551 98.6443 62.9625 103.943 62.9493C105.393 62.9457 106.844 62.9993 108.29 62.9424C111.198 62.8279 113.506 64.009 115.4 66.1216C115.73 66.4904 116.26 66.8235 116.545 67.2334C116.722 67.1368 116.614 67.1523 116.791 67.0557C116.706 66.5059 116.748 65.8951 116.516 65.4158C114.024 60.2501 111.268 55.2834 106.965 51.3081C104.82 49.3264 102.452 47.7462 99.9368 46.34C99.3466 46.01 98.656 45.7471 97.9898 45.6843C93.9786 45.3063 89.9643 44.9475 85.9446 44.6761C82.0058 44.4102 78.1415 44.9618 74.3233 45.9372C71.9606 46.5409 69.9297 47.6579 68.115 49.2966C66.6974 50.5766 65.1382 51.7094 63.5698 52.8042C63.2669 53.0156 62.4912 53.2662 62.1469 52.7018C61.8026 52.1373 62.2665 51.7543 62.5346 51.5332C64.6627 49.7783 66.815 48.0501 69.0134 46.3843C71.3229 44.6343 74.1132 44.1361 76.8624 43.5902C82.361 42.4984 87.8812 42.9204 93.3957 43.4486C95.0628 43.6082 96.7207 43.8633 98.7308 44.1189C98.3883 42.7833 98.2088 41.661 97.8144 40.6201C96.2683 36.5388 93.7096 33.2932 89.9152 31.0163C87.4383 29.5299 84.7561 28.871 81.9441 28.6163C79.4589 28.3913 76.9587 28.0619 74.4766 28.1405C71.2279 28.2434 67.9838 28.6474 64.7532 29.0468C63.9636 29.1444 63.2486 29.7636 62.4745 30.0826C58.3111 31.798 55.1378 34.6297 52.896 38.5204C51.8623 40.3142 50.8682 42.1316 49.7991 43.9039C49.288 44.7513 48.6816 45.5493 48.0529 46.3161C46.5474 48.1522 45.0105 49.9628 43.4718 51.7714C42.5839 52.8152 41.6253 53.8013 40.7738 54.8731C39.1852 56.8729 37.5577 58.8523 36.1194 60.9583C34.4548 63.3955 32.8664 65.8991 31.441 68.4821C28.537 73.7444 25.7381 79.0654 22.9493 84.3903C21.5892 86.9871 20.3493 89.6468 19.0576 92.4449C18.4918 93.7816 17.6762 95.1442 16.9734 96.437ZM136.417 99.8621C136 99.8221 135.582 99.7821 134.999 99.7263C136.541 101.45 137.996 102.977 139.333 104.602C140.301 105.779 141.167 107.053 141.952 108.359C142.129 108.654 142.142 109.508 141.675 109.729C141.27 109.921 140.781 109.509 140.547 109.224C139.018 107.364 137.503 105.489 136.073 103.552C134.042 100.801 131.285 99.0728 128.232 97.7137C127.817 97.5288 127.371 97.3158 127.074 96.9919C126.839 96.7351 126.811 96.2884 126.691 95.9261C127.128 95.8071 127.59 95.5359 127.994 95.6052C128.581 95.7058 129.117 96.0759 129.69 96.2895C133.656 97.7673 137.661 98.8564 141.943 97.6938C142.239 97.6135 142.793 97.9694 142.996 98.2757C143.1 98.4331 142.772 99.0255 142.499 99.2459C142.194 99.4911 141.735 99.6257 141.332 99.6534C139.765 99.7612 138.193 99.8075 136.417 99.8621ZM56.2449 108.995C59.0746 108.022 62.0118 107.794 64.969 107.848C65.3775 107.855 66.067 108.414 66.1163 108.785C66.214 109.522 65.5308 109.558 64.9063 109.596C63.1163 109.703 61.3296 109.871 59.5436 110.037C56.4098 110.328 53.9423 111.696 52.2868 114.455C52.1118 114.746 51.4275 114.995 51.112 114.885C50.4674 114.66 50.5712 114.1 50.8737 113.551C52.0564 111.406 53.8638 110.002 56.2449 108.995ZM60.4001 102.041C61.0505 102.015 61.7007 101.974 62.3512 101.969C62.9125 101.965 63.5627 101.845 63.6448 102.705C63.727 103.566 63.0971 103.536 62.5245 103.649C60.7027 104.007 58.8782 104.36 57.0753 104.799C56.4734 104.946 55.8343 105.362 55.4652 104.642C55.0559 103.843 55.5927 103.326 56.34 103.106C57.6153 102.731 58.9074 102.415 60.4001 102.041Z" fill="#3B963D"/>
<path d="M16.9734 96.437C16.9734 96.437 16.8833 96.6009 16.8858 96.6807C16.3103 98.2066 15.6606 99.7364 15.1245 101.222C14.4437 103.11 13.7555 104.995 13.0599 106.877C12.8772 107.371 12.4976 108.113 12.2666 108.806C11.9931 109.773 10.8809 112.848 10.1352 115.147C9.56718 118.966 9.02846 122.79 8.42313 126.603C7.78894 130.598 7.01025 134.572 6.45064 138.577C6.11235 140.998 6.0878 143.462 5.88922 145.904C5.76555 147.424 5.59616 148.942 5.41898 150.457C5.11314 153.073 4.46933 155.697 4.55072 158.299C4.6418 161.21 5.20245 164.145 5.89392 166.988C6.48598 169.422 7.3864 171.818 8.44283 174.095C10.4507 178.423 13.6463 181.756 17.8344 184.043C22.2041 186.429 26.6597 188.656 31.433 190.151C33.5873 190.826 35.7322 191.578 37.9346 192.043C40.7684 192.641 43.6465 193.059 46.5225 193.419C49.4808 193.789 52.4542 194.114 55.4305 194.248C60.1385 194.46 64.8553 194.595 69.5669 194.561C71.6537 194.546 73.7315 193.986 75.8234 193.771C77.6111 193.587 79.4125 193.47 81.2092 193.452C89.3419 193.771 91.3289 196.276 104.29 192.964C106.728 192.216 109.168 191.472 111.604 190.716C112.148 190.547 112.666 190.27 113.22 190.153C114.912 189.796 115.693 188.425 116.765 187.278C119.611 184.233 118.412 180.642 118.405 177.201C118.405 176.986 118.312 176.737 118.185 176.56C116.374 174.05 114.914 171.309 112.584 169.143C111.371 168.016 110.468 166.397 109.851 164.832C109.227 163.247 109.637 161.629 110.926 160.282C113.181 157.927 116.026 157.168 118.759 158.447C119.529 158.807 120.156 159.469 120.717 159.893C121.872 159.156 123.04 158.453 124.161 157.682C125.202 156.966 126.288 156.275 127.19 155.403C129.984 152.702 132.811 150.015 136.169 148.055C138.191 146.875 140.297 145.722 142.74 145.412C144.902 145.138 146.656 145.764 148.215 147.209C149.135 148.062 150.116 148.849 151.047 149.646C154.947 146.404 156.941 141.634 155.721 138.352C155.333 138.606 154.962 138.823 154.619 139.077C151.713 141.228 148.564 142.361 144.848 142.017C139.943 141.562 135.026 141.917 130.123 142.308C126.488 142.597 119.098 142.48 119.098 142.48C119.098 142.48 116.91 142.285 115.638 142.262C112.644 142.36 109.826 142.391 107.009 142.395C103.855 142.017 103.602 141.637 99.914 140.849C95.0756 140.313 90.3265 139.497 85.929 137.009C83.0332 135.371 79.8852 134.184 76.8859 132.721C74.787 131.698 72.751 130.545 70.6823 129.459C67.8724 127.984 64.9844 126.639 62.2696 125.007C60.1777 123.749 58.1685 122.279 56.3611 120.64C53.891 118.401 54.3017 114.625 56.2696 112.421C57.1133 111.476 58.3417 111.345 59.4833 111.607C62.5796 112.317 65.6543 113.123 68.7276 113.93C72.6886 114.969 76.611 116.172 80.602 117.075C86.5487 118.421 92.5215 119.672 98.5204 120.759C102.437 121.469 106.41 121.917 110.375 122.299C114.805 122.725 119.256 122.934 123.696 123.257C126.49 123.461 129.28 123.702 132.242 123.851C134.115 123.752 135.819 123.704 137.522 123.713C138.3 123.718 139.078 123.835 139.855 123.901C143.342 123.761 146.84 123.712 150.233 122.751C152.165 122.204 153.893 121.209 155.188 119.714C157.791 116.709 159.983 113.445 160.757 109.421C161.282 106.692 160.807 104.253 158.946 102.124C157.943 100.976 156.992 99.7844 155.937 98.516C155.35 99.2314 154.9 99.8326 154.395 100.384C153.499 101.363 152.492 102.198 151.09 102.289C149.711 102.378 148.328 102.464 146.95 102.434C146.632 102.427 146.324 101.943 146.012 101.678C146.346 101.39 146.653 100.901 147.021 100.849C148.194 100.686 149.391 100.707 150.576 100.614C152.044 100.499 152.974 99.6061 153.785 98.2759C151.983 98.2759 150.311 98.2734 148.639 98.2771C148.017 98.2785 147.371 98.1704 147.416 97.4148C147.461 96.6481 148.126 96.4953 148.796 96.5342C149.179 96.5565 149.56 96.614 149.942 96.6543C154.68 97.1533 156.979 94.8228 159.214 90.8696C159.92 89.6218 159.981 87.3094 159.85 86.2876C159.775 85.7114 159.932 86.6721 159.062 87.8263C156.546 91.1655 153.161 92.7354 149.041 93.2232C143.802 93.8437 138.61 93.2352 133.405 92.995C131.397 92.9023 129.409 92.3751 127.411 92.0566C124.062 91.5227 123.309 89.8096 124.778 86.5386C125.59 84.7318 127.067 83.2086 128.324 81.6212C129.632 79.9698 130.857 78.184 132.443 76.8391C134.506 75.0896 136.814 73.586 139.168 72.2436C140.165 71.6755 141.544 71.7449 142.758 71.5972C146.567 71.1336 150.337 71.3891 154.078 72.242C156.336 72.7568 157.422 74.5392 158.59 76.2554C159.094 76.9969 160.238 80.9755 160.349 78.3884C160.349 77.0335 160.421 75.6732 160.32 74.3257C160.264 73.5697 160.152 72.4572 159.666 72.1607C158.152 71.2377 156.504 70.2123 154.806 69.9812C151.085 69.4752 147.305 69.3204 143.544 69.2287C138.001 69.0936 133.398 71.2797 129.655 75.3323C129.499 75.5018 129.36 75.7823 129.178 75.8151C128.684 76.0506 128.331 76.2041 127.849 75.8603C127.367 75.5166 127.75 74.9013 127.966 74.6475C129.621 72.7015 131.607 71.1585 133.813 69.8516C137.605 67.6064 141.757 67.3584 145.971 67.5458C149.226 67.6905 152.473 68.0313 155.72 68.3168C156.247 68.3631 156.76 68.5751 157.376 68.6005C157.458 68.2959 157.444 68.1014 157.429 67.9069C155.924 66.3347 153.955 65.9417 151.911 65.7202C147.526 65.245 143.157 65.3652 138.833 66.2146C137.579 66.4609 136.412 67.1252 135.173 67.4872C134.722 67.6189 133.917 67.8183 133.675 67.3846C133.287 66.6893 134.038 66.1929 134.397 66.0543C136.243 65.3403 138.109 64.5264 140.043 64.2253C142.687 63.8136 145.396 63.7526 148.08 63.6973C149.634 63.6653 151.194 63.9398 153.095 64.1063C152.66 63.3654 152.385 62.8142 152.035 62.3159C150.297 59.844 148.263 57.6409 145.667 56.0718C142.59 54.2119 139.566 52.1618 136.268 50.8015C133.3 49.5774 130.023 49.0088 126.83 48.4515C122.85 47.757 118.86 48.2783 114.945 49.134C112.979 49.5636 111.076 50.2784 109.152 50.8617C110.371 52.3606 111.784 53.7903 112.828 55.4521C114.678 58.3959 116.406 61.4294 117.961 64.5374C118.439 65.4921 117.957 67.467 118.046 68.6192C117.013 68.7957 109.15 67.4184 102.787 67.4184C97.0597 65.5353 97.2799 65.275 94.3845 65.0963C91.0949 64.9689 88.8296 64.9239 84.4575 65.074C82.2303 64.9967 80.0027 64.9312 77.7761 64.8391C74.5009 64.7037 71.513 65.7861 68.5731 67.0289C68.0273 67.2596 67.5466 67.7102 67.118 68.141C65.1673 70.1019 63.2221 72.0697 61.3333 74.0896C60.9388 74.5116 60.6496 75.1449 60.5699 75.7168C60.4892 76.2951 60.7288 76.9181 60.8281 77.5215C61.5398 77.3131 62.3633 77.2608 62.9324 76.8533C63.5259 76.4282 63.9002 75.6781 64.325 75.0399C66.2403 72.162 68.9573 70.4532 72.1984 69.3873C77.7338 67.5669 83.4533 67.0782 89.2154 66.8795C93.6386 66.7269 97.5197 68.21 101.163 70.6944C103.394 72.2154 105.863 73.4291 108.33 74.5516C112.21 76.3174 115.186 78.8412 116.581 83.0071C117.26 85.0349 118.079 87.0158 118.855 89.0105C118.926 89.1949 119.111 89.3696 119.288 89.4738C122.448 91.3387 122.561 93.9052 119.522 96.0225C118.49 96.7414 117.315 97.2545 116.281 97.9716C115.254 98.6841 114.267 99.4762 113.361 100.336C111.055 102.525 108.868 104.842 106.511 106.972C104.403 108.876 101.604 109.407 99.0142 110.337C96.924 111.088 94.8823 111.983 92.7691 112.657C91.6222 113.023 90.375 113.119 89.1637 113.208C88.8538 113.23 88.508 112.763 88.1787 112.52C88.4863 112.201 88.7946 111.604 89.1013 111.605C91.9091 111.612 94.2185 110.114 96.7264 109.218C98.7452 108.497 100.861 108.011 102.814 107.15C105.688 105.882 108.01 103.82 110.026 101.415C110.604 100.725 111.25 100.092 111.967 99.3229C108.97 99.0455 108.156 99.3229 101.548 98.833C97.6952 98.4268 93.8404 98.0349 89.9893 97.6098C86.8653 97.265 83.7135 96.9641 80.8272 95.6051C79.5914 95.0232 78.4059 94.2592 77.3456 93.3961C75.1475 91.6071 73.0362 89.7101 70.9249 87.8178C70.6773 87.5958 70.4484 86.9412 70.5687 86.806C70.8208 86.5231 71.3614 86.2562 71.6929 86.3402C72.2236 86.4746 72.7395 86.8346 73.1584 87.2134C74.7824 88.6818 76.3389 90.225 77.9701 91.6849C80.4873 93.9377 83.5452 95.0647 86.8245 95.4665C91.0534 95.9847 95.305 96.3297 99.5529 96.6761C102.415 96.9095 105.288 97.0181 108.156 97.1789C109.643 97.2623 111.177 97.6057 112.608 97.3586C115.217 96.908 117.52 95.6165 119.459 93.7905C120.383 92.9214 120.073 91.9904 118.978 91.3191C117.852 91.5897 116.946 91.7838 116.054 92.0288C115.247 92.2505 114.408 92.4335 113.664 92.7975C111.043 94.0786 108.251 94.5203 105.393 94.4092C100.705 94.227 96.0866 93.5686 91.6228 92.0156C90.032 91.4622 88.3707 91.1143 86.7676 90.5926C83.3354 89.4757 79.9077 88.3236 77.3653 85.5476C76.1 84.166 74.4472 83.4963 72.7525 82.8272C69.763 81.6469 66.8322 80.3177 63.8407 79.1427C63.3184 78.9375 62.6056 79.1154 62.0039 79.2337C60.2493 79.5787 58.6627 78.6607 58.7137 76.9904C58.7517 75.7445 59.0223 74.2433 59.7701 73.3328C61.6895 70.9954 63.9078 68.8991 66.0534 66.7532C67.9337 64.8726 70.4911 64.4327 72.8956 63.6697C75.1915 62.9411 77.536 63.2555 79.8702 63.226C82.596 63.1914 85.3204 63.0288 88.0462 63.0037C93.345 62.9551 98.6443 62.9625 103.943 62.9493C105.393 62.9457 106.844 62.9993 108.29 62.9424C111.198 62.8279 113.506 64.009 115.4 66.1216C115.73 66.4904 116.26 66.8235 116.545 67.2334C116.722 67.1368 116.614 67.1523 116.791 67.0557C116.706 66.5059 116.748 65.8951 116.516 65.4158C114.024 60.2501 111.268 55.2834 106.965 51.3081C104.82 49.3264 102.452 47.7462 99.9368 46.34C99.3466 46.01 98.656 45.7471 97.9898 45.6843C93.9786 45.3063 89.9643 44.9475 85.9446 44.6761C82.0058 44.4102 78.1415 44.9618 74.3233 45.9372C71.9606 46.5409 69.9297 47.6579 68.115 49.2966C66.6974 50.5766 65.1382 51.7094 63.5698 52.8042C63.2669 53.0156 62.4912 53.2662 62.1469 52.7018C61.8026 52.1373 62.2665 51.7543 62.5346 51.5332C64.6627 49.7783 66.815 48.0501 69.0134 46.3843C71.3229 44.6343 74.1132 44.1361 76.8624 43.5902C82.361 42.4984 87.8812 42.9204 93.3957 43.4486C95.0628 43.6082 96.7207 43.8633 98.7308 44.1189C98.3883 42.7833 98.2088 41.661 97.8144 40.6201C96.2683 36.5388 93.7096 33.2932 89.9152 31.0163C87.4383 29.5299 84.7561 28.871 81.9441 28.6163C79.4589 28.3913 76.9587 28.0619 74.4766 28.1405C71.2279 28.2434 67.9838 28.6474 64.7532 29.0468C63.9636 29.1444 63.2486 29.7636 62.4745 30.0826C58.3111 31.798 55.1378 34.6297 52.896 38.5204C51.8623 40.3142 50.8682 42.1316 49.7991 43.9039C49.288 44.7513 48.6816 45.5493 48.0529 46.3161C46.5474 48.1522 45.0105 49.9628 43.4718 51.7714C42.5839 52.8152 41.6253 53.8013 40.7738 54.8731C39.1852 56.8729 37.5577 58.8523 36.1194 60.9583C34.4548 63.3955 32.8664 65.8991 31.441 68.4821C28.537 73.7444 25.7381 79.0654 22.9493 84.3903C21.5892 86.9871 20.3493 89.6468 19.0576 92.4449C18.4918 93.7816 17.6762 95.1442 16.9734 96.437ZM136.417 99.8621C136 99.8221 135.582 99.7821 134.999 99.7263C136.541 101.45 137.996 102.977 139.333 104.602C140.301 105.779 141.167 107.053 141.952 108.359C142.129 108.654 142.142 109.508 141.675 109.729C141.27 109.921 140.781 109.509 140.547 109.224C139.018 107.364 137.503 105.489 136.073 103.552C134.042 100.801 131.285 99.0728 128.232 97.7137C127.817 97.5288 127.371 97.3158 127.074 96.9919C126.839 96.7351 126.811 96.2884 126.691 95.9261C127.128 95.8071 127.59 95.5359 127.994 95.6052C128.581 95.7058 129.117 96.0759 129.69 96.2895C133.656 97.7673 137.661 98.8564 141.943 97.6938C142.239 97.6135 142.793 97.9694 142.996 98.2757C143.1 98.4331 142.772 99.0255 142.499 99.2459C142.194 99.4911 141.735 99.6257 141.332 99.6534C139.765 99.7612 138.193 99.8075 136.417 99.8621ZM56.2449 108.995C59.0746 108.022 62.0118 107.794 64.969 107.848C65.3775 107.855 66.067 108.414 66.1163 108.785C66.214 109.522 65.5308 109.558 64.9063 109.596C63.1163 109.703 61.3296 109.871 59.5436 110.037C56.4098 110.328 53.9423 111.696 52.2868 114.455C52.1118 114.746 51.4275 114.995 51.112 114.885C50.4674 114.66 50.5712 114.1 50.8737 113.551C52.0564 111.406 53.8638 110.002 56.2449 108.995ZM60.4001 102.041C61.0505 102.015 61.7007 101.974 62.3512 101.969C62.9125 101.965 63.5627 101.845 63.6448 102.705C63.727 103.566 63.0971 103.536 62.5245 103.649C60.7027 104.007 58.8782 104.36 57.0753 104.799C56.4734 104.946 55.8343 105.362 55.4652 104.642C55.0559 103.843 55.5927 103.326 56.34 103.106C57.6153 102.731 58.9074 102.415 60.4001 102.041Z" stroke="black" stroke-width="4.15726" mask="url(#path-14-outside-1_7926_827)"/>
<path d="M173.802 197.173L173.248 197.686M173.802 197.173L173.809 197.167L173.248 197.686M173.802 197.173C173.377 197.567 173.274 197.663 173.249 197.686C173.248 197.686 173.248 197.686 173.248 197.686M173.802 197.173L173.248 197.686M127.507 158.617C127.331 158.475 127.15 158.328 126.964 158.171L126.159 157.493L126.937 156.783C127.406 156.354 127.875 155.93 128.342 155.507C129.372 154.576 130.396 153.651 131.401 152.695C134.227 150.009 137.482 147.99 141.096 146.614C142.247 146.175 143.463 145.935 144.669 146.107C145.897 146.282 147.039 146.874 148.035 147.962C148.327 148.281 148.677 148.569 149.084 148.892C149.132 148.93 149.182 148.969 149.233 149.009C149.587 149.289 149.984 149.601 150.346 149.949L150.346 149.949C150.945 150.524 151.46 151.179 151.906 151.828C152.9 153.272 153.844 154.414 155.313 155.052C156.366 155.509 157.399 156.108 158.375 156.673C158.806 156.923 159.226 157.166 159.632 157.388L159.188 158.199L159.632 157.388C165.009 160.329 168.678 165.014 172.197 169.507C172.731 170.188 173.261 170.865 173.793 171.531C175.255 173.36 176.4 175.466 177.492 177.475C177.744 177.939 177.994 178.398 178.244 178.847L177.436 179.297L178.244 178.847C180.079 182.146 181.794 185.614 182.663 189.431L181.763 189.636L182.663 189.431C182.78 189.942 182.783 190.529 182.693 191.068C182.606 191.594 182.412 192.19 182.031 192.642C181.098 193.751 179.847 194.587 178.759 195.301C177.755 195.96 176.689 196.56 175.657 197.141C175.281 197.353 174.909 197.562 174.546 197.77L127.507 158.617ZM127.507 158.617C127.434 158.577 127.363 158.538 127.294 158.5C127.123 158.407 126.962 158.318 126.815 158.234L126.815 158.234C126.469 158.035 126.076 157.978 125.771 157.987M127.507 158.617L174.52 197.793C174.313 197.96 174.087 198.004 173.908 197.999C173.903 198 173.898 198.001 173.893 198.002C173.453 198.106 173.091 198.191 172.614 198.355L172.594 198.362L172.573 198.368C171.871 198.573 171.196 198.741 170.559 198.9C170.512 198.912 170.465 198.924 170.418 198.935C169.733 199.106 169.094 199.269 168.47 199.463L168.195 198.581L168.47 199.463C164.227 200.786 159.955 201.135 155.54 200.81C153.74 200.678 151.897 200.599 150.037 200.52C146.976 200.389 143.868 200.256 140.83 199.879C138.103 199.541 135.321 198.97 132.827 197.345C132.392 197.062 131.957 196.779 131.522 196.495C128.714 194.666 125.902 192.835 123.103 190.985C123.027 190.934 122.934 190.875 122.832 190.811C122.602 190.664 122.326 190.489 122.096 190.32C121.747 190.063 121.344 189.713 121.083 189.229C119.631 186.539 119.443 183.63 119.728 180.76C119.963 178.388 119.593 176.317 117.976 174.609L118.647 173.974L117.976 174.609C117.749 174.369 117.581 174.103 117.458 173.902C117.435 173.864 117.413 173.828 117.392 173.794C117.291 173.629 117.22 173.511 117.135 173.402C116.092 172.046 115.043 170.698 113.982 169.361C113.708 169.015 113.425 168.684 113.129 168.338C113.016 168.206 112.901 168.072 112.785 167.934C112.372 167.447 111.949 166.929 111.568 166.368L112.333 165.849L111.568 166.368C110.879 165.352 110.548 164.346 110.564 163.379C110.581 162.409 110.946 161.566 111.495 160.882C112.567 159.547 114.362 158.771 115.97 158.568L116.085 159.485L115.97 158.568C117.264 158.405 118.599 158.964 119.576 159.805C120.335 160.459 120.97 161.361 121.214 162.397C121.312 161.634 121.591 160.901 121.992 160.27C122.784 159.022 124.14 158.033 125.771 157.987M125.771 157.987C125.771 157.987 125.771 157.987 125.771 157.987L125.798 158.91L125.771 157.987ZM133.895 165.328C131.839 166.975 129.606 167.614 127.278 167.49C127.372 167.526 127.465 167.567 127.553 167.611C127.698 167.684 127.859 167.782 128.005 167.908C128.141 168.027 128.331 168.229 128.424 168.527L127.542 168.802L128.424 168.527L128.438 168.571C128.755 169.588 129.132 170.796 129.157 172.019C129.206 174.51 130.178 176.486 132.025 178.107C132.687 178.687 133.367 179.24 134.062 179.805C134.319 180.014 134.578 180.225 134.839 180.439C135.52 180.998 136.204 181.575 136.864 182.189C136.559 181.789 136.274 181.378 136.005 180.964C135.577 180.306 135.235 179.555 135.19 178.731C135.144 177.876 135.423 177.049 136.047 176.273C136.315 175.939 136.548 175.563 136.812 175.129L136.842 175.08C137.089 174.674 137.368 174.217 137.7 173.792C138.734 172.471 139.925 171.249 141.679 170.45L142.062 171.291L141.679 170.45C143.853 169.46 145.967 168.272 147.969 166.947L147.515 166.496L147.395 166.378L147.276 166.259L146.753 165.74L147.143 165.115C147.343 164.795 147.541 164.486 147.735 164.183C148.217 163.431 148.676 162.716 149.078 161.955C149.077 161.918 149.072 161.869 149.06 161.816C149.06 161.813 149.059 161.811 149.059 161.808C148.856 161.705 148.657 161.603 148.461 161.502C147.224 160.867 146.095 160.286 144.895 160.019C142.839 159.56 140.945 159.766 139.305 161.181C138.421 161.943 137.491 162.64 136.577 163.311C136.436 163.415 136.296 163.518 136.156 163.621C135.381 164.188 134.626 164.742 133.895 165.328ZM144.475 186.372C143.955 186.321 143.397 186.261 142.836 186.16C143.362 186.283 143.907 186.355 144.475 186.372ZM146.786 185.915C146.603 186.062 146.405 186.179 146.194 186.265L146.824 186.181L146.909 186.506C146.941 186.243 147.007 185.98 147.11 185.72L147.969 186.058L147.11 185.72C147.137 185.65 147.165 185.581 147.193 185.511C147.072 185.658 146.937 185.794 146.786 185.915ZM149.965 190.396C149.306 190.313 148.704 190.036 148.21 189.632C148.211 189.632 148.211 189.633 148.211 189.633C148.681 190.078 149.339 190.382 150.266 190.468C150.753 190.514 151.244 190.576 151.716 190.637C151.84 190.653 151.963 190.668 152.084 190.684C152.676 190.758 153.242 190.822 153.798 190.847C154.132 190.862 154.458 190.864 154.778 190.846C153.17 190.748 151.563 190.598 149.965 190.396ZM157.916 189.254C157.613 189.708 157.252 190.103 156.804 190.39C156.84 190.374 156.876 190.358 156.911 190.342L157.862 189.906L157.879 189.959C157.864 189.725 157.875 189.489 157.916 189.254ZM170.312 187.626C169.902 188.127 169.49 188.63 169.078 189.13C170.054 188.068 170.951 186.918 171.867 185.735C171.352 186.355 170.833 186.989 170.312 187.626ZM155.012 161.765C155.012 161.765 155.012 161.765 155.011 161.764L155.012 161.765Z" fill="#3B963D" stroke="black" stroke-width="1.84767"/>
<path d="M152.075 130.004L152.016 130.039C152.258 129.922 152.495 129.792 152.726 129.647C152.674 129.675 152.624 129.701 152.576 129.727C152.403 129.82 152.246 129.904 152.075 130.004ZM149.071 130.772C150.102 130.714 151.055 130.487 151.935 130.077L151.874 130.092C151.867 130.095 151.859 130.099 151.848 130.104C151.845 130.105 151.834 130.111 151.817 130.119C151.771 130.141 151.686 130.181 151.652 130.196C151.579 130.23 151.467 130.279 151.347 130.315C151.286 130.334 151.198 130.356 151.096 130.366C151.049 130.371 150.983 130.375 150.904 130.369C149.987 130.412 149.069 130.456 148.151 130.499C145.922 130.604 143.691 130.71 141.461 130.807C141.045 130.825 140.628 130.844 140.209 130.864C138.56 130.94 136.886 131.018 135.216 131.02C134.269 131.022 133.327 130.975 132.41 130.927L132.305 130.921C131.418 130.875 130.555 130.83 129.695 130.825C129.092 130.821 128.481 130.868 127.825 130.919L127.802 130.92C127.166 130.97 126.486 131.023 125.801 131.019C124.129 131.01 122.455 130.93 120.791 130.786L120.871 129.865L120.791 130.786C118.832 130.615 116.882 130.377 114.945 130.109C114.142 129.999 113.334 129.872 112.529 129.741C113.901 129.995 115.269 130.236 116.642 130.447C119.345 130.861 122.096 131.016 124.89 131.172C125.164 131.188 125.439 131.203 125.714 131.219C126.376 131.257 127.053 131.221 127.781 131.172C127.865 131.167 127.949 131.161 128.034 131.155C128.674 131.112 129.357 131.065 130.038 131.072C130.989 131.081 131.942 131.128 132.873 131.173C133.033 131.181 133.193 131.188 133.352 131.196C134.443 131.248 135.508 131.289 136.565 131.267C140.735 131.176 144.905 131.008 149.071 130.772ZM82.6556 125.445C83.512 125.719 84.3706 125.97 85.2323 126.197C84.37 125.956 83.5112 125.703 82.6556 125.445ZM68.7266 120.913C69.8043 121.275 70.9061 121.626 72.0195 121.974C71.7336 121.872 71.4452 121.77 71.155 121.668C69.679 121.148 68.1589 120.612 66.6945 119.958C67.336 120.348 68.0106 120.672 68.7266 120.913ZM157.774 125.493C158.019 125.307 158.256 125.124 158.481 124.943L159.079 124.464L159.661 124.964C160.916 126.042 161.336 127.405 161.254 128.699C161.173 129.954 160.627 131.125 159.983 131.967C159.655 132.396 159.307 132.812 158.975 133.21C158.917 133.28 158.858 133.349 158.801 133.418C158.411 133.887 158.045 134.336 157.715 134.801C154.693 139.065 150.617 141.43 145.217 141.217C144.651 141.195 144.089 141.17 143.529 141.145C141.362 141.049 139.232 140.956 137.102 141.017C135.205 141.071 133.307 141.196 131.39 141.324L131.318 141.328C129.43 141.454 127.522 141.581 125.61 141.639C123.938 141.689 122.229 141.61 120.563 141.532C119.72 141.493 118.888 141.454 118.078 141.433C116.774 141.399 115.463 141.37 114.15 141.342C112.193 141.3 110.23 141.258 108.276 141.196C107.493 141.171 106.714 141.032 106.016 140.908C105.931 140.893 105.847 140.878 105.765 140.864C105.366 140.794 104.967 140.724 104.567 140.654C102.113 140.224 99.6502 139.793 97.1954 139.321C96.5924 139.204 95.9646 139.099 95.3235 138.992C93.4527 138.68 91.4688 138.348 89.6578 137.664C87.4109 136.816 85.2203 135.718 83.0808 134.644C82.08 134.143 81.0905 133.646 80.1115 133.184L80.5061 132.348L80.1115 133.184C79.5604 132.923 78.9995 132.686 78.4189 132.439C78.3086 132.393 78.1976 132.345 78.0858 132.298C77.3946 132.004 76.681 131.693 75.9842 131.332C74.6806 130.658 73.4225 129.972 72.1746 129.291C70.4251 128.337 68.6957 127.394 66.8893 126.509C63.5219 124.859 60.4359 122.825 57.5373 120.505C55.5398 118.907 55.0871 115.959 56.3696 113.793C56.6305 113.352 56.9799 112.915 57.4672 112.623C57.9797 112.316 58.5721 112.213 59.2134 112.334C59.6124 112.409 60.018 112.482 60.428 112.556C61.9003 112.821 63.4283 113.096 64.9026 113.516C66.4276 113.951 67.9389 114.438 69.4323 114.92C69.6881 115.003 69.9433 115.085 70.1979 115.167C71.9474 115.729 73.6778 116.272 75.4269 116.719C77.5212 117.254 79.6285 117.621 81.7764 117.996C82.8596 118.184 83.9532 118.375 85.0606 118.59C87.1369 118.993 89.2074 119.403 91.2757 119.814C95.1685 120.586 99.0535 121.356 102.955 122.071C109.346 123.241 115.833 123.627 122.381 123.921C123.814 123.985 125.247 124.103 126.659 124.219C126.909 124.239 127.159 124.26 127.408 124.28C129.07 124.415 130.707 124.534 132.339 124.556C136.968 124.618 141.586 124.617 146.163 124.287C149.07 124.077 151.863 123.539 154.074 121.761C158.052 118.56 160.539 114.401 161.736 109.419C161.795 109.175 161.846 108.936 161.9 108.685C161.926 108.563 161.953 108.438 161.982 108.309L162.396 106.43L163.603 107.928C164.416 108.936 164.982 109.981 165.498 110.934C165.579 111.084 165.66 111.233 165.74 111.378C166.571 112.894 166.734 114.635 165.646 116.179L165.646 116.179C164.492 117.817 163.188 119.345 161.921 120.83L161.874 120.885L161.172 120.285L161.874 120.885C160.551 122.436 159.201 123.999 157.774 125.493Z" fill="#9E2B16" stroke="black" stroke-width="1.84767"/>
<path d="M137.696 43.5452L136.916 44.0408L137.696 43.5452C138.595 44.9589 139.431 46.4288 140.255 47.8755C140.616 48.5095 140.974 49.1391 141.334 49.7575C141.334 49.7575 141.334 49.7575 141.334 49.7575L141.339 49.7649C141.375 49.8269 141.433 49.9274 141.482 50.0273C141.508 50.0802 141.541 50.1512 141.568 50.231C141.591 50.2963 141.637 50.441 141.635 50.6197C141.633 50.8094 141.564 51.2073 141.166 51.4467C140.839 51.6437 140.518 51.5821 140.414 51.5584C140.193 51.5076 139.982 51.3873 139.825 51.2882C136.33 49.4054 132.511 48.5129 128.436 47.749C126.507 47.5473 121.626 47.4289 118.345 47.769C116.949 47.9137 115.555 48.241 114.121 48.6242C113.712 48.7334 113.297 48.8481 112.877 48.9641C111.847 49.2484 110.791 49.5402 109.739 49.7759C109.354 49.8624 108.849 49.9684 108.35 50.0003C107.875 50.0306 107.247 50.0069 106.711 49.6931C104.757 48.55 102.908 47.2302 101.103 45.9419C100.946 45.8296 100.789 45.7175 100.632 45.6058C100.331 45.3914 100.095 45.0981 99.9268 44.8136C99.7576 44.527 99.6216 44.1883 99.569 43.8425C99.2519 41.758 98.7273 39.8233 97.6908 38.1013C97.4202 37.6517 97.1936 37.0825 97.3924 36.4613C97.5697 35.9073 98.0239 35.5504 98.3523 35.3138L98.4195 35.2655C100.23 33.9618 102.005 32.6838 103.623 31.2474L104.236 31.9383L103.623 31.2474C105.934 29.1962 108.6 28.2552 111.614 28.2931C112.473 28.3039 113.333 28.3449 114.174 28.3849C114.329 28.3923 114.483 28.3996 114.636 28.4067C115.631 28.4529 116.602 28.4902 117.565 28.4726C119.882 28.4304 122.117 28.8029 124.233 30.0332C124.732 30.3234 125.256 30.5696 125.822 30.8353C125.937 30.8894 126.054 30.9443 126.173 31.0006C126.854 31.3233 127.583 31.6848 128.257 32.1583C129.71 33.1791 131.308 34.359 132.483 35.8606L131.755 36.4299L132.483 35.8606C134.261 38.1327 135.815 40.5813 137.335 42.9764C137.455 43.1664 137.576 43.356 137.696 43.5452Z" fill="#3B963D" stroke="black" stroke-width="1.84767"/>
<path d="M93.7969 76.9196H93.7691L93.7413 76.918C90.7198 76.7356 88.5146 76.7777 86.1078 76.8238C84.9678 76.8456 83.7826 76.8683 82.444 76.8683C79.9198 76.9068 78.2163 77.1739 76.37 77.4634C75.7827 77.5555 75.181 77.6499 74.5339 77.7398C72.4984 78.0229 70.4691 78.4428 68.5056 79.0147C67.7963 79.2213 67.0511 79.3449 66.2929 79.1977C65.512 79.046 64.825 78.629 64.1951 77.9496L63.6638 77.3765L64.1409 76.7575C64.3381 76.5017 64.539 76.2362 64.7434 75.966C65.2039 75.3575 65.6825 74.7249 66.1784 74.1241C69.0163 70.6855 73.098 69.7127 76.7886 68.9845C80.5966 68.2331 84.4908 67.8903 88.3221 67.6501C91.2613 67.4658 94.3919 67.6667 97.2333 69.2618C98.7909 70.1362 99.9657 70.7413 100.828 71.1385C101.717 71.5478 102.203 71.7021 102.413 71.7347C102.949 71.818 103.661 72.1382 104.324 72.4765C105.027 72.8352 105.81 73.2867 106.538 73.7274C107.269 74.1694 107.954 74.6071 108.466 74.942C108.721 75.1094 108.935 75.2523 109.091 75.3584C109.168 75.4111 109.233 75.4565 109.283 75.4923C109.308 75.5098 109.333 75.5278 109.355 75.5445L109.356 75.5449C109.362 75.5498 109.422 75.5939 109.477 75.6489L111.814 77.9861L108.604 77.1995C107.222 76.861 104.617 76.7785 101.727 76.7948C100.304 76.8027 98.8454 76.8338 97.4786 76.863L97.4468 76.8637C96.0965 76.8926 94.8317 76.9196 93.7969 76.9196ZM108.243 77.0199C108.242 77.0195 108.242 77.0189 108.241 77.0183C108.25 77.0261 108.253 77.0274 108.243 77.0199Z" fill="#3B963D" stroke="black" stroke-width="1.84767"/>
<path d="M110.462 71.9387L110.414 71.8943L110.373 71.8436C107.85 68.7115 104.523 66.8949 100.677 65.6548L99.0902 65.1434L100.365 64.0692C100.737 63.7553 101.113 63.5902 101.553 63.592L101.552 63.9971L101.553 63.592C102.172 63.5947 102.793 63.5954 103.416 63.5961C105.178 63.598 106.954 63.5999 108.725 63.647L108.725 63.647C110.927 63.7056 112.913 64.4453 114.499 66.1978L114.499 66.1978C114.932 66.6759 115.426 67.1105 115.968 67.5869L115.972 67.591C116.499 68.054 117.072 68.558 117.585 69.1296L116.897 69.7465L117.585 69.1296C117.811 69.3812 118.044 69.6366 118.282 69.8965C119.463 71.1859 120.743 72.5846 121.636 74.1786C122.358 75.4653 122.562 76.8343 122.619 78.1246C122.646 78.7408 122.64 79.3598 122.634 79.9476C122.633 79.9737 122.633 79.9998 122.633 80.0258C122.627 80.6464 122.622 81.2324 122.653 81.8012L122.798 84.4836L121.034 82.4576C120.677 82.0478 120.344 81.6488 120.021 81.2612C119.347 80.4518 118.713 79.6919 117.985 78.9851C116.327 77.3745 114.635 75.8089 112.915 74.2172C112.104 73.466 111.286 72.709 110.462 71.9387Z" fill="#3B963D" stroke="black" stroke-width="1.84767"/>
<path d="M151.354 78.8261C152.653 79.5083 153.928 80.5508 155.285 81.6703C155.312 81.6925 155.339 81.7149 155.366 81.7372C156.687 82.8265 158.093 83.9871 159.557 84.7444L159.995 84.9707L160.427 84.7337C160.618 84.6288 160.722 84.4853 160.762 84.4269C160.81 84.355 160.842 84.2888 160.86 84.2466C160.897 84.1614 160.921 84.0782 160.937 84.0183C160.97 83.8923 160.996 83.7455 161.018 83.5993C161.062 83.3008 161.098 82.921 161.115 82.5313C161.131 82.1435 161.131 81.7197 161.094 81.3396C161.076 81.1498 161.047 80.9527 161 80.7676C160.957 80.5958 160.882 80.3664 160.735 80.16M151.354 78.8261L160.735 80.16M151.354 78.8261C151.016 78.7228 150.662 78.6008 150.334 78.4879C150.128 78.4169 149.933 78.3496 149.759 78.2928C149.24 78.1238 148.786 78.0037 148.349 77.9638C146.304 77.7771 144.262 77.6692 142.2 77.5603C141.277 77.5115 140.349 77.4625 139.416 77.4061C139.017 77.382 138.143 77.5085 137.123 77.7206C136.143 77.9241 135.159 78.1774 134.61 78.3419L132.906 78.8533L133.468 77.1649C133.693 76.4926 134.395 75.7151 135.714 75.1339C136.148 74.8966 136.543 74.644 136.966 74.3742C137.245 74.1958 137.536 74.0099 137.858 73.8159C138.621 73.3559 139.48 72.9036 140.434 72.7029C144.497 71.8475 148.635 71.9284 152.697 72.6615C154.527 72.9918 156.289 73.7132 157.443 75.7131L156.643 76.1747L157.443 75.7131C157.873 76.4579 158.401 77.1624 158.979 77.8932C159.11 78.0593 159.245 78.2279 159.381 78.3987C159.833 78.9637 160.304 79.5535 160.735 80.16M151.354 78.8261L160.735 80.16" fill="#3B963D" stroke="black" stroke-width="1.84767"/>
<path d="M134.532 164.67L134.532 164.67L134.537 164.665C135.138 164.206 135.73 163.755 136.316 163.309C137.373 162.504 138.41 161.714 139.445 160.918L139.445 160.918C140.89 159.807 142.493 159.737 144.366 160.163L145.744 160.477L144.903 161.613C141.462 166.268 137.64 169.672 133.537 173.324C132.865 173.923 132.186 174.528 131.499 175.146L130.991 175.603L130.405 175.252C129.84 174.913 129.531 174.319 129.343 173.804C129.145 173.263 129.019 172.629 128.927 172.004C128.835 171.372 128.772 170.702 128.715 170.081C128.711 170.039 128.707 169.998 128.703 169.957C128.65 169.372 128.601 168.84 128.537 168.384L128.406 167.447L129.346 167.338C131.193 167.125 132.753 166.05 134.532 164.67Z" fill="#3B963D" stroke="black" stroke-width="1.84767"/>
<path d="M56.2963 108.979C53.9957 109.948 52.1882 111.352 51.0055 113.497C50.703 114.046 50.5993 114.605 51.2438 114.831C51.5594 114.941 52.2437 114.692 52.4187 114.401C54.0742 111.641 56.5416 110.274 59.6755 109.983C61.4614 109.817 63.2482 109.649 65.0381 109.541C65.6627 109.504 66.3459 109.467 66.2482 108.731C66.1989 108.36 65.5093 107.801 65.1008 107.794C62.1437 107.74 59.2065 107.968 56.2963 108.979Z" fill="black"/>
<path d="M60.4284 102.003C59.0395 102.36 57.7474 102.677 56.4722 103.052C55.7248 103.271 55.188 103.789 55.5973 104.588C55.9664 105.308 56.6055 104.892 57.2074 104.745C59.0103 104.306 60.8348 103.952 62.6566 103.595C63.2292 103.482 63.8591 103.511 63.7769 102.651C63.6949 101.791 63.0446 101.911 62.4833 101.915C61.8328 101.92 61.1826 101.961 60.4284 102.003Z" fill="black"/>
<path d="M121.694 81.8172C122.682 83.1277 121.367 83.6936 120.587 83.8128L121.44 86.5698L123.724 87.781L124.324 86.3045L123.551 81.3789C123.155 82.1448 122.148 81.698 121.694 81.3789V81.8172Z" fill="#3B963D"/>
</g>
<defs>
<clipPath id="clip0_7926_827">
<rect width="200" height="200" rx="100" fill="white"/>
</clipPath>
</defs>
</svg>
