<?xml version="1.0" encoding="UTF-8" standalone="no"?>
<svg
   viewBox="0 0 511.99998 512.00001"
   version="1.1"
   id="svg3"
   sodipodi:docname="tether-gold.svg"
   width="512"
   height="512"
   inkscape:version="1.4 (e7c3feb1, 2024-10-09)"
   xmlns:inkscape="http://www.inkscape.org/namespaces/inkscape"
   xmlns:sodipodi="http://sodipodi.sourceforge.net/DTD/sodipodi-0.dtd"
   xmlns="http://www.w3.org/2000/svg"
   xmlns:svg="http://www.w3.org/2000/svg"
   xmlns:rdf="http://www.w3.org/1999/02/22-rdf-syntax-ns#"
   xmlns:cc="http://creativecommons.org/ns#"
   xmlns:dc="http://purl.org/dc/elements/1.1/">
  <sodipodi:namedview
     id="namedview3"
     pagecolor="#ffffff"
     bordercolor="#000000"
     borderopacity="0.25"
     inkscape:showpageshadow="2"
     inkscape:pageopacity="0.0"
     inkscape:pagecheckerboard="0"
     inkscape:deskcolor="#d1d1d1"
     inkscape:zoom="0.46391694"
     inkscape:cx="164.90021"
     inkscape:cy="435.42277"
     inkscape:window-width="1728"
     inkscape:window-height="699"
     inkscape:window-x="0"
     inkscape:window-y="31"
     inkscape:window-maximized="0"
     inkscape:current-layer="svg3" />
  <defs
     id="defs2">
    <style
       id="style1">.cls-1,.cls-2{fill-rule:evenodd;}.cls-1{fill:url(#linear-gradient);}.cls-2{fill:#fff;}</style>
    <linearGradient
       id="linear-gradient"
       x1="4846.23"
       y1="-4671.46"
       x2="13324.84"
       y2="-4671.46"
       gradientTransform="matrix(0.07,0,0,-0.07,-348.93,-70.13)"
       gradientUnits="userSpaceOnUse">
      <stop
         offset="0"
         stop-color="#d8b35d"
         id="stop1" />
      <stop
         offset="1"
         stop-color="#f5e7bf"
         id="stop2" />
    </linearGradient>
  </defs>
  <title
     id="title2">tether-gold</title>
  <g
     id="Layer_2"
     data-name="Layer 2"
     transform="matrix(0.69000442,0,0,0.69000442,44.897251,72.309818)">
    <g
       id="Layer_1-2"
       data-name="Layer 1">
      <g
         id="Layer_1-3"
         data-name="Layer_1">
        <path
           class="cls-1"
           d="M 112.11,2.71 0.49,237.12 a 4.36,4.36 0 0 0 0.9,5.23 L 302.7,531.22 a 4.72,4.72 0 0 0 6.32,0 L 610.51,242.35 a 4.41,4.41 0 0 0 0.9,-5.23 L 499.79,2.71 A 4.12,4.12 0 0 0 495.79,0 H 116.07 a 4.49,4.49 0 0 0 -4,2.71 z"
           id="path2"
           style="fill:url(#linear-gradient)" />
        <path
           class="cls-2"
           d="m 344.72,261.1 v 0 c -2.16,0.18 -13.34,0.9 -38.23,0.9 -19.83,0 -33.9,-0.54 -38.95,-0.9 v 0 c -76.63,-3.42 -133.79,-16.77 -133.79,-32.64 0,-15.87 57.16,-29.39 133.79,-32.81 v 52.11 c 5,0.36 19.3,1.26 39.13,1.26 23.8,0 35.7,-1.08 37.87,-1.26 v -52.11 c 76.45,3.42 133.61,16.77 133.61,32.63 0,15.86 -57,29.4 -133.43,32.82 z m 0,-70.68 V 143.71 H 451.47 V 72.49 H 160.8 v 71.22 h 106.74 v 46.71 c -86.73,4 -152,21.09 -152,41.83 0,20.74 65.27,37.69 152,41.83 v 149.49 h 77.18 V 274.08 c 86.55,-4 151.65,-21.1 151.65,-41.65 0,-20.55 -65.1,-38.05 -151.65,-42 v 0 z"
           id="path3" />
      </g>
    </g>
  </g>
  <metadata
     id="metadata3">
    <rdf:RDF>
      <cc:Work
         rdf:about="">
        <dc:title>tether-gold</dc:title>
      </cc:Work>
    </rdf:RDF>
  </metadata>
</svg>
