<?xml version="1.0" encoding="UTF-8" standalone="no"?>
<svg
   viewBox="0 0 512 512"
   width="512"
   height="512"
   version="1.1"
   id="svg1"
   sodipodi:docname="erc20:0x5555555555555555555555555555555555555555.svg"
   inkscape:version="1.4 (e7c3feb1, 2024-10-09)"
   xmlns:inkscape="http://www.inkscape.org/namespaces/inkscape"
   xmlns:sodipodi="http://sodipodi.sourceforge.net/DTD/sodipodi-0.dtd"
   xmlns="http://www.w3.org/2000/svg"
   xmlns:svg="http://www.w3.org/2000/svg">
  <defs
     id="defs1" />
  <sodipodi:namedview
     id="namedview1"
     pagecolor="#ffffff"
     bordercolor="#000000"
     borderopacity="0.25"
     inkscape:showpageshadow="2"
     inkscape:pageopacity="0.0"
     inkscape:pagecheckerboard="0"
     inkscape:deskcolor="#d1d1d1"
     inkscape:zoom="1.2788972"
     inkscape:cx="179.45149"
     inkscape:cy="220.11152"
     inkscape:window-width="1640"
     inkscape:window-height="920"
     inkscape:window-x="0"
     inkscape:window-y="31"
     inkscape:window-maximized="0"
     inkscape:current-layer="svg1" />
  <rect
     style="fill:#1d1d1d;fill-opacity:1;stroke-width:4.14677"
     id="rect1"
     width="512"
     height="512"
     x="0"
     y="0"
     ry="0" />
  <circle
     cx="256"
     cy="256"
     r="256"
     fill="#1d1d1d"
     id="circle1" />
  <path
     d="M446.774 254.221c0 126.141-77.195 166.617-117.868 130.577-33.478-29.387-43.44-91.487-93.796-97.863-63.914-8.04-69.448 77.071-111.503 77.071-48.974 0-58.381-71.25-58.381-107.844 0-37.427 10.514-88.438 52.293-88.438 48.697 0 51.464 72.913 112.334 69.031 60.594-4.158 61.7-80.12 100.991-112.557 34.308-28 115.93 2.218 115.93 130.023z"
     fill="#97fce4"
     id="path1" />
</svg>
