<svg width="200" height="200" viewBox="0 0 200 200" fill="none" xmlns="http://www.w3.org/2000/svg">
<rect width="200" height="200" fill="#CAEAE5"/>
<path d="M148.993 87.9352C148.993 91.2903 148.905 94.6453 148.993 98.0004C149.081 99.936 148.335 100.538 146.449 100.409C144.563 100.28 142.677 100.409 140.748 100.409C138.248 100.409 136.274 101.355 134.651 103.205C129.213 109.27 123.774 115.292 118.292 121.314C116.8 122.948 114.827 123.808 112.502 123.894C105.309 124.067 104.52 123.55 104.739 116.453C104.871 111.894 104.739 107.291 104.783 102.732C104.783 100.925 104.125 100.28 102.327 100.409C99.9145 100.538 98.0285 101.441 96.4496 103.205C91.1864 109.098 85.8356 114.991 80.5286 120.841C77.9848 123.636 72.5462 125.056 69.0813 123.765C67.3708 123.12 66.5375 121.83 66.5813 119.937C66.6691 114.345 66.5813 108.797 66.5813 103.205C66.5813 100.581 66.4936 100.452 63.6866 100.452C59.8709 100.452 56.0989 100.366 52.327 100.452C50.4849 100.495 49.9586 99.8499 50.0025 98.0864C50.1341 93.785 50.0025 89.5267 50.0464 85.2254C50.0902 79.7626 54.4761 75.4613 60.0024 75.4183C62.4147 75.4183 64.827 75.5473 67.2392 75.3753C69.0813 75.2462 69.3883 75.9774 69.3883 77.5689C69.3006 83.2897 69.3883 89.0105 69.3883 94.7313C69.3883 95.8067 69.3883 96.882 70.441 97.6132C71.8006 98.6025 72.8532 98.1294 73.862 97.011C78.2918 92.1075 82.9847 87.376 87.1075 82.2144C92.2391 75.8914 98.9934 74.8161 106.493 75.3753C107.897 75.5043 107.502 76.5796 107.546 77.3109C107.546 82.8166 107.546 88.3223 107.546 93.8281C107.546 94.4733 107.546 95.1185 107.59 95.7637C107.721 96.839 108.204 97.6993 109.3 98.0434C110.353 98.3445 111.23 98.0004 112.02 97.1401C116.625 91.9785 121.362 86.9459 125.923 81.7413C129.739 77.3969 134.344 75.1172 140.221 75.3753C142.458 75.4613 144.739 75.4613 147.019 75.3753C148.467 75.3322 148.949 75.8484 148.949 77.2248C148.905 80.795 148.949 84.3651 148.949 87.9352H148.993Z" fill="black"/>
</svg>
