<svg
  width="20"
  height="20"
  viewBox="0 0 20 20"
  fill="none"
  xmlns="http://www.w3.org/2000/svg"
>
  <path
    d="M10 20C15.5228 20 20 15.5228 20 10C20 4.47715 15.5228 0 10 0C4.47715 0 0 4.47715 0 10C0 15.5228 4.47715 20 10 20Z"
    fill="#FF6C15"
  />
  <path
    d="M14.6 8.85016C14.8056 7.58016 13.9067 6.99239 13.4022 6.66794C12.9 6.3435 12.1322 6.11016 12.1322 6.11016L12.6233 4.13239L11.49 3.84794L10.9989 5.82572L10.0933 5.59683L10.5845 3.61905L9.43779 3.3335L8.94668 5.31127L6.55001 4.70905L6.2589 5.88239C6.2589 5.88239 7.44224 6.17794 7.57224 6.21239C7.70557 6.24461 7.68779 6.31239 7.67668 6.35683C7.66557 6.40127 6.18779 12.3624 6.16557 12.4413C6.14779 12.5213 6.13446 12.5668 6.02446 12.5413L4.76779 12.2257L4.44446 13.5291L6.76446 14.1102L6.29446 16.0013L7.53112 16.3113L8.00113 14.4191L8.77112 14.6124L8.30113 16.5046L9.4789 16.8002L9.95001 14.9091L10.8367 15.1313C11.4256 15.2791 13.6633 15.3068 14.15 13.3413C14.6378 11.3746 13.0256 10.5424 13.0256 10.5424C13.0256 10.5424 14.3922 10.1202 14.6 8.85016ZM11.9145 12.4968C11.6811 13.4379 10.6311 13.5102 10.3922 13.4491L8.28668 12.9224L8.9089 10.4091L11.0922 10.9557C11.5111 11.0624 12.1489 11.5557 11.9145 12.4968ZM12.3033 8.66905C12.0545 9.67127 11.0545 9.62572 10.7389 9.54794L9.20001 9.16239L9.79335 6.77016L11.1978 7.12127C11.4378 7.18127 12.5533 7.66794 12.3033 8.66905Z"
    fill="#FFF6ED"
  />
</svg>
