<svg width="827" height="827" viewBox="0 0 827 827" fill="none" xmlns="http://www.w3.org/2000/svg">
<g clip-path="url(#clip0_5636_166)">
<path d="M0 0H827V827H0V0Z" fill="#EBE2D9"/>
<path d="M598.543 459.871C598.543 451.01 603.859 445.103 614.345 445.103C626.454 445.103 629.999 449.534 634.281 467.403C635.758 473.605 639.302 477.297 648.901 477.297C661.749 477.297 668.838 470.209 668.838 459.576C668.838 450.272 659.534 442.74 641.517 431.074C621.729 418.669 610.948 406.854 610.948 389.428C610.948 362.551 640.188 346.454 667.066 346.454C697.34 346.454 708.859 359.597 708.859 372.002C708.859 380.272 703.542 384.703 694.534 384.703C683.015 384.703 679.471 380.125 675.779 366.095C674.007 359.154 670.462 356.348 663.522 356.348C652.741 356.348 645.357 361.96 645.357 372.298C645.357 382.192 654.956 388.247 675.927 401.833C695.715 413.648 704.429 426.643 704.429 441.854C704.429 466.96 677.846 487.339 644.766 487.339C611.834 486.896 598.543 473.162 598.543 459.871Z" fill="black" fill-opacity="0.88"/>
<path d="M132.912 316.032C132.026 311.011 128.925 310.716 121.393 308.648C118.735 308.058 118.145 306.138 118.145 304.218C118.145 301.264 118.44 301.117 126.562 299.492C142.364 295.653 158.313 290.188 171.161 282.509C173.819 280.589 174.41 280.589 175.001 280.589C177.216 280.589 177.216 283.1 177.216 286.496V362.699C177.216 368.606 177.659 366.834 181.351 363.437C192.51 352.817 207.297 346.849 222.701 346.749C234.958 346.749 246.182 350.589 254.452 359.745C261.836 367.572 265.823 378.943 265.823 391.791V465.631C265.823 474.787 270.253 477.888 279.41 477.888C284.283 477.888 286.203 477.15 286.203 477.15C295.063 474.491 295.359 472.128 295.359 457.804C295.211 433.732 296.54 407.298 295.359 383.964C294.473 379.091 291.667 377.023 284.135 375.104C281.477 374.513 280.886 372.593 280.886 370.526C280.886 367.867 281.182 367.572 289.304 365.8C304.108 362.512 318.276 356.825 331.245 348.964C333.755 347.045 334.346 347.045 334.937 347.045C337.152 347.045 339.662 349.555 339.662 352.952V458.985C339.662 471.981 338.186 474.344 347.489 476.854C346.456 477.297 356.055 477.74 358.565 476.854C369.346 474.196 369.198 471.095 369.198 457.804V387.213C368.903 377.171 367.869 377.023 355.021 374.808C351.772 374.217 351.477 372.593 351.477 370.378C351.477 367.129 352.953 366.834 357.679 365.948C369.05 363.289 386.624 358.564 401.983 349.555C407.004 346.602 410.105 346.602 410.843 346.602C412.763 346.602 413.502 348.817 413.502 350.441V362.256C413.502 366.391 415.274 364.618 418.227 361.665C423.826 356.459 430.404 352.42 437.58 349.784C444.755 347.147 452.384 345.965 460.02 346.306C473.607 346.306 484.387 350.737 492.362 361.665C496.349 367.277 496.792 367.572 497.678 367.572C498.269 367.572 498.712 367.572 503.733 362.846C516.379 352.147 532.36 346.194 548.923 346.011C583.627 346.011 590.716 382.488 590.716 409.66V464.744C590.716 469.323 590.125 473.901 598.691 476.116C601.94 477.002 603.859 477.593 603.859 481.284C603.859 483.943 603.269 487.044 599.429 487.339H539.471C536.961 487.339 533.564 485.272 533.564 480.546C533.564 477.888 535.041 477.297 537.995 476.411C543.459 474.787 546.412 473.901 546.412 460.462V386.032C546.117 381.454 544.936 365.061 526.623 365.061C521.159 365.061 502.109 369.344 502.109 384.703V464.006C502.109 472.128 502.256 474.048 510.97 476.116C513.923 477.002 515.695 477.593 515.695 480.546C515.695 485.272 513.332 487.339 506.096 487.339H451.455C447.763 487.339 444.81 485.567 444.81 481.137C444.81 478.479 445.843 477.888 448.649 477.002C458.396 474.048 457.805 470.209 457.805 457.804C457.805 444.66 459.134 390.905 457.805 382.044C455.885 370.673 445.696 367.129 438.607 367.129C429.303 367.129 416.16 373.627 413.502 380.715V466.369C414.092 473.753 418.375 475.525 424.135 476.854C426.793 477.74 428.122 477.888 428.122 481.284C428.122 485.715 424.725 487.339 420.738 487.339H209.41C207.195 487.044 206.456 483.5 206.456 481.432C206.456 478.774 207.785 477.888 210.148 477.297C220.19 474.787 221.224 464.449 221.667 455.145C221.963 428.12 221.667 427.529 221.667 397.108C221.667 385.293 220.043 366.095 199.663 366.095C190.359 366.095 183.714 371.707 181.499 373.922C176.33 378.943 177.364 380.863 177.364 391.201V464.597C177.364 471.538 179.283 475.525 184.452 476.706C186.963 477.297 189.473 477.74 189.473 480.546C189.473 485.567 186.077 487.339 181.203 487.339H125.381C120.507 487.339 118.292 485.862 118.292 481.432C118.292 478.626 119.769 478.036 122.723 477.15C131.731 473.901 132.912 470.356 132.912 456.622V316.032Z" fill="black" fill-opacity="0.88"/>
<path d="M316.329 290.779C303.038 290.779 292.996 302.446 292.996 314.851C292.996 330.062 304.81 338.036 315.443 338.036C327.701 338.036 338.776 327.846 338.776 313.669C338.776 301.56 329.325 290.779 316.329 290.779Z" fill="black" fill-opacity="0.88"/>
</g>
<defs>
<clipPath id="clip0_5636_166">
<rect width="827" height="827" fill="white"/>
</clipPath>
</defs>
</svg>
