<!-- by TradingView --><svg xmlns="http://www.w3.org/2000/svg" width="56" height="56" viewBox="0 0 56 56"><path fill="#16687E" d="M0 0h56v56H0z"/><path d="M8 24.27c0-.82.95-1.27 2.19-1.27.6 0 1.58.11 2.96.27l.42.05.2-1.86A20.03 20.03 0 0 0 9.94 21C7.77 21 6 22.11 6 24.44c0 2.16 1.86 2.82 3.7 3.34h.02c.78.23 2.28.66 2.28 1.67 0 1-.93 1.55-2.14 1.55-.8 0-1.96-.15-3.49-.35l-.23 1.82.6.12c1.3.27 2.37.41 3.26.41 2.26 0 4-1.35 4-3.7 0-1.99-1.51-2.76-3.26-3.32l-.45-.13C9.4 25.6 8 25.22 8 24.27ZM42 26h1.98v-2H42v-2h-2v2h-1v2h1v3.79c0 1.83.34 3.21 2.4 3.21.36 0 .9-.08 1.6-.25l-.1-1.81-1.2.03c-.7 0-.7-.69-.7-1.23V26Zm6 0h1.98v-2H48v-2h-2v2h-1v2h1v3.79c0 1.83.34 3.21 2.4 3.21.36 0 .9-.08 1.6-.25l-.1-1.81-1.2.03c-.7 0-.7-.69-.7-1.23V26Zm-17.08-.81c.62-.8 1.64-1.19 3.08-1.19 1.44 0 2.46.4 3.08 1.19.61.77.92 1.87.92 3.3 0 3-1.33 4.51-4 4.51s-4-1.5-4-4.52c0-1.42.3-2.52.92-3.3ZM34 31c1.44 0 2-1 2-2.52S35.43 26 34 26c-1.45 0-2 .93-2 2.48 0 1.55.55 2.52 2 2.52Zm-10-7v9h2v-6.2c.66-.2 2.08-.54 3-.74V24c-.86.18-2.04.56-3 1.14V24h-2Zm-9 12V24h2v.74a5.3 5.3 0 0 1 2.29-.74c2.69 0 3.42 2.32 3.42 4.62 0 2.76-1.07 4.38-3.94 4.38h-.01c-.38 0-.79 0-1.23-.07L17 32.9V36h-2Zm3.84-10c-.64 0-1.3.16-1.84.47v4.48c.44.06 1.05.05 1.42.05h.17c1.53 0 2.07-1.22 2.07-2.5 0-1.58-.82-2.5-1.82-2.5Z" fill="#fff"/></svg>