<svg width="827" height="827" viewBox="0 0 827 827" fill="none" xmlns="http://www.w3.org/2000/svg">
<g clip-path="url(#clip0_5628_173)">
<path d="M0 0H827V827H0V0Z" fill="#24344B"/>
<path d="M135.424 515V311.364H272.64V346.861H178.478V395.384H265.58V430.881H178.478V479.503H273.038V515H135.424ZM347.107 515L288.84 311.364H335.871L369.579 452.855H371.269L408.457 311.364H448.727L485.815 453.153H487.604L521.312 311.364H568.343L510.076 515H468.116L429.337 381.861H427.746L389.067 515H347.107ZM649.82 311.364H692.377V453.352C692.377 466.477 689.427 477.879 683.528 487.557C677.695 497.235 669.574 504.692 659.167 509.929C648.76 515.166 636.662 517.784 622.874 517.784C610.611 517.784 599.475 515.63 589.465 511.321C579.522 506.946 571.634 500.317 565.801 491.435C559.967 482.486 557.084 471.25 557.15 457.727H600.005C600.138 463.097 601.231 467.704 603.286 471.548C605.408 475.327 608.291 478.243 611.937 480.298C615.649 482.287 620.024 483.281 625.062 483.281C630.365 483.281 634.839 482.154 638.485 479.901C642.197 477.58 645.015 474.2 646.937 469.759C648.859 465.317 649.82 459.848 649.82 453.352V311.364Z" fill="#F9BD29"/>
</g>
<defs>
<clipPath id="clip0_5628_173">
<rect width="827" height="827" fill="white"/>
</clipPath>
</defs>
</svg>
