<svg width="827" height="827" viewBox="0 0 827 827" fill="none" xmlns="http://www.w3.org/2000/svg">
<rect width="827" height="827" fill="white"/>
<path d="M342.671 274.003C320.774 278.137 288.321 298.011 288.44 333.134C288.508 365.03 314.608 384.376 314.693 426.157C314.814 457.61 297.476 478.8 278.722 490.53C286.305 489.862 294.606 489.421 303.727 489.402C322.892 489.354 334.438 491.178 335.155 491.299L433.368 370.819C406.09 329.993 374.235 298.318 342.671 274.003Z" fill="#E31837"/>
<path d="M425.167 599.362C437.551 580.118 439.105 549.452 440.147 518.239C441.326 489.092 447.389 467.168 486.384 467.031C495.009 467.014 503.242 468.193 518.136 468.159C575.253 467.917 612.54 448.25 635.735 435.341C588.354 405.135 519.178 374.281 433.366 370.815C427.764 386.592 384.277 507.482 380.98 517.249C381.476 517.83 389.094 526.35 398.607 542.998C412.648 565.861 420.18 585.224 425.167 599.362Z" fill="#E31837"/>
<path d="M217.738 500.623C212.768 500.64 210.291 497.346 209.625 491.624C208.993 485.955 184.415 261.301 180.776 227.305C180.247 222.336 179.017 213.218 179 209.974C178.983 204.749 182.399 202.017 186.413 202C198.045 201.952 261.481 216.804 328.778 263.982C309.375 269.429 274.309 289.594 274.463 331.342C274.598 368.31 301.057 388.646 301.193 425.715C301.416 486.007 232.086 500.588 217.738 500.623Z" fill="#F58025"/>
<path d="M430.809 615.395C431.867 618.197 432.858 620.552 433.866 622.191C435.42 624.805 437.419 626 439.913 626C441.467 625.983 443.38 625.453 445.515 624.5C450.69 622.109 655.775 526.678 686.708 512.42C691.183 510.271 699.706 506.461 702.49 504.822C705.393 503.167 706.726 500.756 706.726 498.299C706.709 496.915 706.314 495.531 705.53 494.267C701.653 488.018 681.823 466.965 648.653 443.965C622.315 458.462 581.185 480.881 520.003 481.12C505.006 481.154 501.624 480.147 491.376 480.181C461.52 480.278 454.055 493.056 452.962 519.232C452.793 524.183 452.691 530.825 452.399 538.134C451.459 561.526 448.692 593.795 430.809 615.395Z" fill="#F58025"/>
</svg>
