<svg width="96" height="96" viewBox="0 0 96 96" fill="none" xmlns="http://www.w3.org/2000/svg">
<rect x="0" y="0" width="96" height="96" fill="#D9D9D9"/>
<path d="M96 0H0V96H96V0Z" fill="#24344B"/>
<path d="M13.1172 43.7165V37.9588H20.0821C21.2894 37.9588 21.9859 37.3088 21.9859 36.1015V31.4582H28.8579V63.9612H21.9859V45.5738C21.9859 44.3666 21.2894 43.7165 20.0821 43.7165H13.1172ZM43.998 64.6577C36.2437 64.6577 31.7397 58.3893 31.7397 47.7097C31.7397 37.0302 36.2437 30.7617 43.998 30.7617C51.7987 30.7617 56.3027 37.0302 56.3027 47.7097C56.3027 58.3893 51.7987 64.6577 43.998 64.6577ZM43.998 58.9C47.434 58.9 49.2449 55.0461 49.2449 47.7562C49.2449 40.4198 47.434 36.5194 43.998 36.5194C40.6084 36.5194 38.751 40.4198 38.751 47.7562C38.751 55.0461 40.6084 58.9 43.998 58.9ZM70.3667 64.6577C62.6124 64.6577 58.1085 58.3893 58.1085 47.7097C58.1085 37.0302 62.6124 30.7617 70.3667 30.7617C78.1675 30.7617 82.6715 37.0302 82.6715 47.7097C82.6715 58.3893 78.1675 64.6577 70.3667 64.6577ZM70.3667 58.9C73.8028 58.9 75.6137 55.0461 75.6137 47.7562C75.6137 40.4198 73.8028 36.5194 70.3667 36.5194C66.9771 36.5194 65.1198 40.4198 65.1198 47.7562C65.1198 55.0461 66.9771 58.9 70.3667 58.9Z" fill="#F9BD29"/>
</svg>