<svg width="827" height="827" viewBox="0 0 827 827" fill="none" xmlns="http://www.w3.org/2000/svg">
    <rect width="827" height="827" fill="#ADABB8" />
    <g clip-path="url(#clip0_5483_13)">
        <path d="M46 46H782V782H46V46Z" fill="#ADABB8" />
        <path
            d="M325.246 329.294H506.421L480.004 258.415C478.976 255.507 477.099 252.975 474.615 251.147L325.246 329.294ZM324.747 245.167C331.174 227.923 345.289 216.857 360.85 216.857H467.965C483.539 216.857 497.668 227.923 504.081 245.167L530.485 316.046C538.397 337.311 525.609 361.429 506.421 361.429H322.421C303.232 361.429 290.431 337.311 298.343 316.046L324.747 245.167ZM180.504 513.294H361.31L334.92 442.415C333.886 439.503 331.999 436.971 329.505 435.147L180.504 513.294ZM180.005 429.167C186.432 411.923 200.56 400.857 216.108 400.857H322.881C338.442 400.857 352.557 411.923 358.984 429.167L385.388 500.046C393.313 521.311 380.512 545.429 361.297 545.429H177.652C158.464 545.429 145.676 521.311 153.601 500.046L180.005 429.167ZM651.702 513.294H469.673L619.896 435.16C622.236 436.816 624.141 439.313 625.311 442.428L651.702 513.294ZM505.251 400.857C489.69 400.857 475.574 411.923 469.161 429.167L442.744 500.046C434.845 521.311 447.633 545.429 466.834 545.429H651.702C670.89 545.429 683.692 521.311 675.766 500.046L649.349 429.167C642.975 411.923 628.833 400.857 613.285 400.857H505.251Z"
            fill="white" />
    </g>
    <defs>
        <clipPath id="clip0_5483_13">
            <rect width="736" height="736" fill="white" transform="translate(46 46)" />
        </clipPath>
    </defs>
</svg>