<svg width="827" height="827" viewBox="0 0 827 827" fill="none" xmlns="http://www.w3.org/2000/svg">
<g clip-path="url(#clip0_5665_155)">
<path d="M0 0H827V827H0V0Z" fill="#00B8D4"/>
<path fill-rule="evenodd" clip-rule="evenodd" d="M641.148 262.646C651.072 274.505 656.624 289.642 656.875 307.496C657.141 326.045 650.673 343.648 641.827 359.08C632.937 374.616 620.916 389.251 608.186 402.306C589.682 421.268 568.578 438.015 550.606 450.493C540.564 457.464 526.918 454.097 520.583 443.626C514.233 433.171 517.6 419.555 527.598 412.511C543.104 401.597 560.973 387.258 576.479 371.367C587.57 359.981 596.933 348.329 603.386 337.062C609.884 325.705 612.69 316.017 612.587 308.117C612.454 299.551 610.002 294.471 607.167 291.074C604.066 287.353 599.148 284.089 592.074 281.638C577.365 276.558 558.256 276.75 544.965 278.95L537.699 235.252C555.228 232.328 582.445 231.442 606.547 239.771C618.863 244.024 631.475 251.098 641.148 262.646ZM187.08 563.468C177.156 551.594 171.589 536.472 171.338 518.618C171.072 500.069 177.54 482.466 186.386 467.033C195.277 451.498 207.312 436.863 220.042 423.808C238.546 404.831 259.635 388.099 277.607 375.62C287.664 368.65 301.31 372.017 307.645 382.487C313.995 392.943 310.614 406.559 300.616 413.603C285.124 424.517 267.24 438.856 251.749 454.747C240.643 466.133 231.281 477.785 224.842 489.052C218.344 500.409 215.538 510.097 215.641 517.997C215.76 526.563 218.211 531.643 221.061 535.039C224.162 538.761 229.065 542.025 236.154 544.476C250.848 549.556 269.972 549.364 283.263 547.164L290.529 590.862C272.985 593.786 245.783 594.687 221.681 586.343C209.365 582.09 196.739 575.031 187.08 563.468ZM405.423 148.535C421.048 146.97 436.953 150.647 452.341 159.877C483.501 178.588 499.613 216.512 508.311 249.813C514.897 274.933 518.131 300.954 519.328 322.22C520.007 334.211 509.788 344.017 497.353 344.076C491.462 344.111 485.78 341.894 481.47 337.877C477.16 333.861 474.548 328.35 474.168 322.471C472.986 304.159 470.136 282.096 464.627 261.081C456.357 229.433 443.687 206.292 428.151 196.974C420.176 192.189 414.048 191.362 409.381 191.849C404.404 192.337 399.014 194.507 393.24 198.746C381.13 207.621 371.117 222.847 365.934 234.573L324.54 218.033C331.554 202.113 345.687 179.37 366.347 164.219C376.965 156.436 390.109 150.071 405.423 148.535ZM422.79 678.435C407.166 680.001 391.276 676.324 375.873 667.094C344.712 648.383 328.601 610.459 319.902 577.157C313.316 552.037 310.082 526.016 308.886 504.751C308.206 492.759 318.426 482.953 330.86 482.894C336.751 482.859 342.433 485.077 346.743 489.093C351.053 493.109 353.665 498.621 354.046 504.5C355.227 522.812 358.092 544.875 363.586 565.89C371.856 597.537 384.527 620.678 400.062 629.997C408.037 634.782 414.166 635.609 418.832 635.121C423.809 634.634 429.199 632.463 434.974 628.225C447.083 619.349 457.096 604.123 462.294 592.383L503.674 608.953C496.659 624.858 482.541 647.6 461.866 662.752C451.263 670.535 438.104 676.899 422.79 678.435ZM659.711 531.288C653.951 545.318 643.245 557.132 627.635 565.993C596.032 583.892 553.559 580.155 518.752 572.225C492.494 566.244 466.946 557.014 446.729 548.227C444.081 547.104 441.696 545.442 439.726 543.347C437.756 541.252 436.243 538.77 435.285 536.058C434.326 533.346 433.943 530.465 434.159 527.597C434.375 524.729 435.185 521.938 436.539 519.4C442.166 508.767 455.708 504.736 467.153 509.609C484.623 517.037 506.347 524.761 528.292 529.753C561.357 537.284 588.618 537.181 604.45 528.202C612.572 523.609 616.16 518.751 617.888 514.542C619.705 510.082 620.192 504.5 618.922 497.632C616.308 483.249 606.871 467.728 598.409 457.907L632.7 430.291C644.175 443.612 658.707 466.133 663.211 490.765C665.515 503.392 665.352 517.54 659.711 531.288ZM167.395 291.03C173.14 277.015 183.846 265.186 199.441 256.34C231.074 238.427 273.531 242.163 308.339 250.108C334.596 256.075 360.145 265.319 380.347 274.091C382.995 275.214 385.38 276.876 387.35 278.972C389.32 281.067 390.833 283.549 391.791 286.261C392.75 288.972 393.133 291.854 392.917 294.721C392.701 297.589 391.891 300.381 390.537 302.918C384.925 313.551 371.383 317.583 359.938 312.709C342.453 305.281 320.744 297.558 298.799 292.566C265.734 285.034 238.473 285.153 222.641 294.117C214.519 298.709 210.93 303.568 209.203 307.777C207.386 312.252 206.899 317.834 208.169 324.701C210.783 339.07 220.219 354.606 228.681 364.412L194.39 392.028C182.916 378.722 168.384 356.186 163.88 331.568C161.576 318.927 161.754 304.779 167.395 291.03Z" fill="white"/>
<path d="M548.774 478.611C571.442 464.095 621.239 423.705 646.744 391.836M278.729 347.872C256.075 362.388 206.263 402.779 180.773 434.648M393.268 253.83C368.635 242.961 307.467 223.748 266.826 220.085M543.369 328.289C542.025 301.412 531.732 238.132 516.742 200.164M431.399 566.643C455.84 577.896 516.698 598.083 557.28 602.381M284.68 503.525C286.452 530.388 297.809 593.491 313.418 631.208" stroke="#00B8D4" stroke-width="3"/>
</g>
<defs>
<clipPath id="clip0_5665_155">
<rect width="827" height="827" fill="white"/>
</clipPath>
</defs>
</svg>
