<svg width="827" height="827" viewBox="0 0 827 827" fill="none" xmlns="http://www.w3.org/2000/svg">
<g clip-path="url(#clip0_5536_19)">
<path d="M0 0H827V827H0V0Z" fill="#F0F3FA"/>
<path d="M326.224 315.589C322.827 321.496 316.772 324.893 310.274 324.893H272.026C265.38 324.893 259.178 328.585 255.781 334.492L212.659 403.901C209.41 409.808 209.41 417.192 212.659 423.099L253.123 492.508C256.519 498.415 262.574 502.107 269.367 502.107H346.751C353.544 502.107 359.747 505.799 362.996 511.854L397.552 577.571C400.801 583.478 396.666 590.714 390.168 590.714H231.709C219.895 590.714 209.115 584.216 203.207 573.879L122.575 430.335C116.668 419.998 116.668 407.15 122.575 396.665L203.207 253.121C209.115 242.784 220.043 236.286 231.709 236.286H352.953C359.599 236.286 363.734 243.67 360.337 249.577L326.224 315.589Z" fill="#173ADE"/>
<path d="M587.611 300.526L554.531 240.864C553.775 239.511 552.672 238.384 551.335 237.6C549.998 236.816 548.476 236.402 546.926 236.402C545.376 236.402 543.854 236.816 542.517 237.6C541.18 238.384 540.077 239.511 539.32 240.864L401.684 497.677C397.844 505.061 397.697 513.921 401.536 521.305L434.469 585.989C437.718 592.339 446.578 592.486 449.827 586.136L587.759 324.745C591.746 317.361 591.746 308.205 587.611 300.674V300.526ZM705.754 300.526L672.674 240.864C671.918 239.511 670.814 238.384 669.477 237.6C668.141 236.816 666.619 236.402 665.069 236.402C663.519 236.402 661.997 236.816 660.66 237.6C659.323 238.384 658.22 239.511 657.463 240.864L519.827 497.677C515.987 505.061 515.839 513.921 519.679 521.305L552.611 585.989C555.86 592.339 564.721 592.486 567.97 586.136L705.902 324.745C709.889 317.361 709.889 308.205 705.754 300.674V300.526ZM357.823 299.049L392.971 240.716C396.515 234.809 405.819 234.809 409.216 240.716L454.553 322.53C458.836 329.766 458.983 338.332 454.848 345.568L419.701 408.774C416.304 414.977 406.705 415.124 403.161 408.922L357.528 322.53C353.245 315.146 353.393 306.285 357.823 298.901V299.049Z" fill="black"/>
</g>
<defs>
<clipPath id="clip0_5536_19">
<rect width="827" height="827" fill="white"/>
</clipPath>
</defs>
</svg>
