<svg xmlns="http://www.w3.org/2000/svg" width="827" height="827" fill="none" viewBox="0 0 827 827"><path fill="#000" d="M0 0h827v827H0z"/><path fill="#b1060f" fill-rule="evenodd" stroke="#000" stroke-width=".31" d="m446.911 202.483-.164 93.391-.165 93.391-7.683-21.68-.015-.042-9.929 207.913c9.762 27.567 14.992 42.284 15.051 42.342.077.077 5.64.413 12.362.747 20.369 1.01 45.609 3.176 64.756 5.555 4.433.551 8.248.833 8.478.627s.355-95.295.278-211.309l-.14-210.935zm-149.814-.278v211.149c0 116.132.113 211.263.252 211.402.14.139 7.331-.54 15.983-1.509 8.651-.969 20.607-2.174 26.569-2.677 9.144-.772 36.445-2.527 39.606-2.547.919-.005.978-4.75 1.112-89.433l.14-89.428 6.606 18.69 2.336 6.605 9.926-207.862c-2.103-5.947-1.001-2.825-3.411-9.64-8.11-22.931-14.993-42.38-15.294-43.221l-.549-1.529z" clip-rule="evenodd"/><path fill="url(#a)" fill-rule="evenodd" d="M297.097 202.205v118.524l83.494 221.48c.009-5.075.019-7.818.028-13.619l.14-89.428 6.606 18.69c36.77 104.044 56.525 159.83 56.641 159.946.077.077 5.64.413 12.363.747 20.368 1.01 45.608 3.176 64.755 5.555 4.433.551 8.248.833 8.478.627.158-.141.261-46.766.288-112.54l-83.103-238.922-.04 22.609-.165 93.391-7.683-21.68c-7.508-21.184-12.521-35.351-42.683-120.63-8.11-22.931-14.993-42.38-15.294-43.221l-.549-1.529z" clip-rule="evenodd"/><path fill="#e50914" fill-rule="evenodd" d="M297.099 202.205 380.76 439.27v-.108l6.605 18.69c36.77 104.044 56.525 159.83 56.641 159.946.077.077 5.64.413 12.363.747 20.368 1.01 45.608 3.176 64.755 5.555 4.41.548 8.206.829 8.471.63l-83.013-235.508v.043l-7.683-21.68c-7.508-21.184-12.521-35.351-42.683-120.63-8.11-22.931-14.992-42.38-15.294-43.221l-.549-1.529z" clip-rule="evenodd"/><path fill="#b1060f" fill-rule="evenodd" stroke="#000" stroke-width=".31" d="m446.911 202.483-.164 93.391-.165 93.391-7.683-21.68-.015-.042-9.929 207.913c9.762 27.567 14.992 42.284 15.051 42.342.077.077 5.64.413 12.362.747 20.369 1.01 45.609 3.176 64.756 5.555 4.433.551 8.248.833 8.478.627s.355-95.295.278-211.309l-.14-210.935zm-149.814-.278v211.149c0 116.132.113 211.263.252 211.402.14.139 7.331-.54 15.983-1.509 8.651-.969 20.607-2.174 26.569-2.677 9.144-.772 36.445-2.527 39.606-2.547.919-.005.978-4.75 1.112-89.433l.14-89.428 6.606 18.69 2.336 6.605 9.926-207.862c-2.103-5.947-1.001-2.825-3.411-9.64-8.11-22.931-14.993-42.38-15.294-43.221l-.549-1.529z" clip-rule="evenodd"/><path fill="url(#b)" fill-rule="evenodd" d="M297.097 202.205v118.524l83.494 221.48c.009-5.075.019-7.818.028-13.619l.14-89.428 6.606 18.69c36.77 104.044 56.525 159.83 56.641 159.946.077.077 5.64.413 12.363.747 20.368 1.01 45.608 3.176 64.755 5.555 4.433.551 8.248.833 8.478.627.158-.141.261-46.766.288-112.54l-83.103-238.922-.04 22.609-.165 93.391-7.683-21.68c-7.508-21.184-12.521-35.351-42.683-120.63-8.11-22.931-14.993-42.38-15.294-43.221l-.549-1.529z" clip-rule="evenodd"/><path fill="#e50914" fill-rule="evenodd" d="M297.099 202.205 380.76 439.27v-.108l6.605 18.69c36.77 104.044 56.525 159.83 56.641 159.946.077.077 5.64.413 12.363.747 20.368 1.01 45.608 3.176 64.755 5.555 4.41.548 8.206.829 8.471.63l-83.013-235.508v.043l-7.683-21.68c-7.508-21.184-12.521-35.351-42.683-120.63-8.11-22.931-14.992-42.38-15.294-43.221l-.549-1.529z" clip-rule="evenodd"/><defs><radialGradient id="a" cx="0" cy="0" r="1" gradientTransform="rotate(-19.098 1426.53 -1011.99)scale(52.764 1932.697)" gradientUnits="userSpaceOnUse"><stop/><stop offset="1" stop-opacity="0"/></radialGradient><radialGradient id="b" cx="0" cy="0" r="1" gradientTransform="rotate(-19.098 1426.53 -1011.99)scale(52.764 1932.697)" gradientUnits="userSpaceOnUse"><stop/><stop offset="1" stop-opacity="0"/></radialGradient></defs></svg>