<svg width="827" height="827" viewBox="0 0 827 827" fill="none" xmlns="http://www.w3.org/2000/svg">
<rect width="827" height="827" fill="white"/>
<path d="M600.205 543.278C389.649 621.851 258.976 556.111 175.328 516.183C170.152 513.666 161.354 516.771 168.987 523.646C196.855 550.14 288.182 614 407.391 614C526.681 614 597.648 562.962 606.526 554.059C615.343 545.231 609.115 540.362 600.203 543.278H600.205ZM659.339 517.672C653.685 511.898 624.957 510.822 606.878 512.563C588.77 514.255 561.591 522.932 563.954 528.142C565.167 530.094 567.642 529.218 580.081 528.341C592.554 527.365 627.496 523.908 634.777 531.371C642.092 538.885 623.633 574.683 620.261 580.457C617.004 586.23 621.506 587.719 627.624 583.874C633.659 580.03 644.583 570.076 651.914 555.989C659.195 541.825 663.637 522.067 659.339 517.672Z" fill="#FF9900"/>
<path fill-rule="evenodd" clip-rule="evenodd" d="M458.63 382.952C458.63 403.568 459.294 420.761 446.004 439.069C435.278 453.956 418.287 463.11 399.303 463.11C373.389 463.11 358.297 447.629 358.297 424.78C358.297 379.676 409.838 371.49 458.63 371.49V382.952ZM526.687 511.936C522.225 515.061 515.771 515.285 510.741 513.2C488.34 498.613 484.352 491.84 472.013 477.922C434.994 507.545 408.795 516.401 360.766 516.401C304.003 516.401 259.769 488.937 259.769 433.934C259.769 390.991 289.481 361.739 331.718 347.45C368.359 334.796 419.522 332.564 458.63 329.067V322.219C458.63 309.64 459.862 294.755 450.466 283.889C442.207 274.138 426.45 270.119 412.591 270.119C386.868 270.119 363.897 280.464 358.297 301.899C357.156 306.664 352.696 311.353 346.622 311.576L281.125 306.069C275.621 305.1 269.547 301.603 271.065 294.977C286.157 232.757 357.82 214 421.987 214C454.83 214 497.733 220.848 523.648 240.349C556.491 264.388 553.358 296.466 553.358 331.373V413.839C553.358 438.624 566.457 449.49 578.796 462.887C583.162 467.65 584.113 473.383 578.606 476.954C564.843 485.959 540.353 502.706 526.875 512.085L526.685 511.936" fill="black"/>
<path d="M600.205 543.278C389.649 621.851 258.976 556.111 175.328 516.183C170.152 513.666 161.354 516.771 168.987 523.646C196.855 550.14 288.182 614 407.391 614C526.681 614 597.648 562.962 606.526 554.059C615.343 545.231 609.115 540.362 600.203 543.278H600.205ZM659.339 517.672C653.685 511.898 624.957 510.822 606.878 512.563C588.77 514.255 561.591 522.932 563.954 528.142C565.167 530.094 567.642 529.218 580.081 528.341C592.554 527.365 627.496 523.908 634.777 531.371C642.092 538.885 623.633 574.683 620.261 580.457C617.004 586.23 621.506 587.719 627.624 583.874C633.659 580.03 644.583 570.076 651.914 555.989C659.195 541.825 663.637 522.067 659.339 517.672Z" fill="#FF9900"/>
<path fill-rule="evenodd" clip-rule="evenodd" d="M458.63 382.952C458.63 403.568 459.294 420.761 446.004 439.069C435.278 453.956 418.287 463.11 399.303 463.11C373.389 463.11 358.297 447.629 358.297 424.78C358.297 379.676 409.838 371.49 458.63 371.49V382.952ZM526.687 511.936C522.225 515.061 515.771 515.285 510.741 513.2C488.34 498.613 484.352 491.84 472.013 477.922C434.994 507.545 408.795 516.401 360.766 516.401C304.003 516.401 259.769 488.937 259.769 433.934C259.769 390.991 289.481 361.739 331.718 347.45C368.359 334.796 419.522 332.564 458.63 329.067V322.219C458.63 309.64 459.862 294.755 450.466 283.889C442.207 274.138 426.45 270.119 412.591 270.119C386.868 270.119 363.897 280.464 358.297 301.899C357.156 306.664 352.696 311.353 346.622 311.576L281.125 306.069C275.621 305.1 269.547 301.603 271.065 294.977C286.157 232.757 357.82 214 421.987 214C454.83 214 497.733 220.848 523.648 240.349C556.491 264.388 553.358 296.466 553.358 331.373V413.839C553.358 438.624 566.457 449.49 578.796 462.887C583.162 467.65 584.113 473.383 578.606 476.954C564.843 485.959 540.353 502.706 526.875 512.085L526.685 511.936" fill="black"/>
</svg>
