<svg width="827" height="827" viewBox="0 0 827 827" fill="none" xmlns="http://www.w3.org/2000/svg">
<rect width="827" height="827" fill="#3A190B"/>
<path d="M641.044 522.718C630.004 522.718 620.885 531.837 620.885 543.357C620.885 554.876 630.004 563.996 641.044 563.996C652.083 563.996 661.203 554.876 661.203 543.357C661.683 532.317 652.563 522.718 641.044 522.718ZM641.044 560.636C631.444 560.636 623.765 552.956 623.765 543.357C623.765 533.757 631.444 526.078 641.044 526.078C650.644 526.078 658.323 533.757 658.323 543.357C658.323 552.956 650.644 560.636 641.044 560.636Z" fill="#FB3D04"/>
<path d="M645.846 545.277C645.366 544.797 644.886 544.797 643.926 544.317C645.846 543.837 647.286 543.357 648.246 542.397C649.206 541.437 649.685 539.997 649.685 538.557C649.685 537.117 649.206 536.157 648.726 535.197C648.246 534.237 647.286 533.757 646.326 533.277C645.366 532.797 643.926 532.797 642.006 532.797H632.406V554.396H635.286V544.797H638.646C639.606 544.797 640.086 544.797 640.086 544.797C640.566 544.797 641.046 545.277 641.526 545.277C642.006 545.757 642.486 546.237 642.966 546.717C643.446 547.197 644.406 548.157 644.886 549.597L647.766 553.916H651.125L647.286 548.157C647.766 546.717 646.806 545.757 645.846 545.277ZM642.006 541.917H635.766V534.717H642.486C643.926 534.717 645.366 535.197 645.846 535.677C646.326 536.157 646.806 537.117 646.806 538.077C646.806 538.557 646.806 539.517 646.326 539.997C645.846 540.477 645.366 540.957 644.886 541.437C644.406 541.437 643.446 541.917 642.006 541.917Z" fill="#FB3D04"/>
<path d="M466.331 488.639C499.449 444.481 561.847 382.564 563.766 338.886C567.606 282.248 510.489 263.529 451.451 264.009C410.173 264.489 367.935 276.488 339.136 286.568C238.821 322.086 176.423 378.244 136.585 441.121C94.8267 503.039 108.746 562.076 197.062 563.996C264.739 561.116 308.897 542.397 354.975 518.878C355.455 518.878 227.781 555.356 181.223 528.478C176.423 525.598 171.143 521.758 169.703 511.198C169.223 489.119 206.182 466.08 226.821 458.881V420.482C242.18 426.242 258.5 429.602 275.779 429.602C308.897 429.602 339.136 417.602 362.655 397.923C363.615 401.283 364.095 405.123 363.615 408.963H372.735C373.695 398.883 368.415 391.203 368.415 391.203C360.255 377.764 345.376 378.244 345.376 378.244C345.376 378.244 353.056 381.604 358.815 389.764C337.216 408.003 309.377 418.562 279.139 418.562C266.179 418.562 253.7 416.642 242.18 412.803L272.419 382.564L264.259 360.485C325.217 339.366 376.095 323.046 459.611 308.167L440.412 294.248L450.011 288.488C500.409 302.407 533.528 312.487 531.608 339.366C530.648 343.686 529.208 348.965 526.808 354.725C512.409 383.524 468.731 432.002 450.971 452.161C439.452 465.6 427.932 478.56 419.773 491.039C411.613 503.519 406.333 515.518 405.853 526.558C406.813 614.394 664.082 485.759 714 451.681C640.563 483.359 561.367 513.598 474.01 519.358C449.531 520.798 452.411 507.838 466.331 488.639Z" fill="#FB3D04"/>
</svg>
