<svg width="827" height="827" viewBox="0 0 827 827" fill="none" xmlns="http://www.w3.org/2000/svg">
<g clip-path="url(#clip0_5723_155)">
<rect width="827" height="827" fill="#24344B"/>
<path d="M0 0H827V827H0V0Z" fill="#24344B"/>
<path d="M113.139 515V311.364H250.355V346.861H156.193V395.384H243.295V430.881H156.193V479.503H250.752V515H113.139ZM324.822 515L266.555 311.364H313.586L347.294 452.855H348.984L386.172 311.364H426.441L463.529 453.153H465.319L499.027 311.364H546.058L487.791 515H445.831L407.052 381.861H405.461L366.782 515H324.822ZM561.314 515V489.446L662.933 346.861H561.115V311.364H717.024V336.918L615.305 479.503H717.223V515H561.314Z" fill="#F9BD29"/>
</g>
<defs>
<clipPath id="clip0_5723_155">
<rect width="827" height="827" fill="white"/>
</clipPath>
</defs>
</svg>
