<svg xmlns="http://www.w3.org/2000/svg" width="827" height="827" fill="none"><g clip-path="url(#a)"><path fill="#000" d="M0 0h827v827H0z"/><path fill="#000" d="M0 0h827v827H0z"/><path fill="#fff" d="M404.996 178c82.18 0 163.093 27.588 163.093 109.08 0 63.776-62.905 100.222-99.937 109.331C541.206 405.268 614 441.462 614 514.096 614 604.697 541.206 650 450.143 650H214v-17.715h36.271c27.141-8.858 27.141-8.858 27.141-36.445V232.919c0-27.331 0-27.331-27.141-27.331L214 196.73V178zm-54.788 27.588v190.823h45.909c63.161 0 99.937-27.583 99.937-100.218 0-54.416-36.776-99.463-99.937-99.463-18.768 0-45.909 8.858-45.909 8.858m0 208.538v163.999c0 45.302 27.141 54.16 81.926 54.16 73.05 0 109.072-45.303 109.072-118.189 0-72.634-73.054-99.97-145.089-99.97z"/></g><defs><clipPath id="a"><path fill="#fff" d="M0 0h827v827H0z"/></clipPath></defs></svg>