<svg width="827" height="827" viewBox="0 0 827 827" fill="none" xmlns="http://www.w3.org/2000/svg">
<rect width="827" height="827" fill="white"/>
<g clip-path="url(#clip0_5352_25)">
<path d="M598.704 307.522L589.444 291.573C586.872 286.943 581.213 285.4 576.583 287.972C576.068 288.487 575.039 289.001 574.525 289.516L553.432 310.608C550.345 313.695 549.831 318.84 552.403 322.441C560.12 334.273 566.293 347.135 570.924 360.511C600.248 447.454 553.432 541.6 466.489 570.924C449.512 576.583 431.506 579.67 413.499 579.67C386.233 579.67 359.481 572.982 335.816 560.12L371.828 524.108C433.049 547.259 501.472 516.392 524.622 455.171C535.94 424.818 534.397 390.864 520.507 361.54C518.449 356.91 512.79 354.852 507.645 356.91C506.616 357.424 505.587 357.939 505.073 358.967L483.466 380.06C480.893 382.633 480.379 385.719 480.893 388.806L482.951 396.523C491.697 434.593 468.032 473.177 429.962 481.923C412.471 486.039 393.95 483.466 378.516 474.206L369.256 468.547C365.655 466.489 361.025 467.004 357.938 470.09L270.48 557.548C266.879 561.149 266.879 567.323 270.48 570.924C270.995 571.439 270.995 571.439 271.509 571.953L284.371 581.728C320.897 611.566 366.684 627 413.499 627C531.31 627 626.999 531.311 626.999 412.986C626.999 375.945 617.225 339.933 598.704 307.522Z" fill="url(#paint0_linear_5352_25)"/>
<path d="M543.143 244.243C506.102 215.434 460.316 200 413.5 200C295.689 200 200 295.689 200 414.014C200 451.055 209.775 487.582 227.781 519.478L237.041 535.426C239.613 540.057 245.272 541.6 249.902 539.028C250.417 538.513 251.446 537.999 251.96 537.484L273.053 516.392C276.14 513.305 276.654 508.16 274.082 504.559C266.365 492.727 260.192 479.865 255.561 466.489C226.237 379.546 273.053 285.4 359.996 256.076C376.973 250.417 394.98 247.33 412.986 247.33C440.252 247.33 467.004 254.018 490.669 266.88L454.657 302.892C393.436 279.741 325.013 310.608 301.863 371.829C296.718 385.205 294.146 399.61 294.146 414.014C294.146 416.072 294.66 424.818 294.66 426.361C296.204 439.737 299.805 453.113 305.978 465.46C308.036 470.09 313.695 472.148 318.84 470.09C319.869 469.576 320.898 469.061 321.412 468.033L343.019 446.425C345.592 443.853 346.106 440.766 345.592 437.68L344.048 429.963C335.302 391.893 358.967 353.308 397.037 344.563C414.529 340.447 433.049 343.019 448.483 352.28L457.743 357.939C461.345 359.996 465.975 359.482 469.061 356.395L556.519 268.937C560.121 265.336 560.121 259.163 556.519 255.561C556.005 255.047 556.005 255.047 555.49 254.533L543.143 244.243Z" fill="url(#paint1_linear_5352_25)"/>
</g>
<defs>
<linearGradient id="paint0_linear_5352_25" x1="338.196" y1="640.581" x2="638.753" y2="340.024" gradientUnits="userSpaceOnUse">
<stop stop-color="#B090F5"/>
<stop offset="1" stop-color="#5FBFFF"/>
</linearGradient>
<linearGradient id="paint1_linear_5352_25" x1="188.156" y1="486.99" x2="488.755" y2="186.409" gradientUnits="userSpaceOnUse">
<stop stop-color="#68D7FA"/>
<stop offset="1" stop-color="#4EE498"/>
</linearGradient>
<clipPath id="clip0_5352_25">
<rect width="427" height="427" fill="white" transform="translate(200 200)"/>
</clipPath>
</defs>
</svg>
