<svg width="827" height="827" viewBox="0 0 827 827" fill="none" xmlns="http://www.w3.org/2000/svg">
    <rect width="827" height="827" fill="#D69A00" />
    <g clip-path="url(#clip0_5480_13)">
        <mask id="mask0_5480_13" style="mask-type:luminance" maskUnits="userSpaceOnUse" x="53"
            y="75" width="737" height="736">
            <path d="M789.773 75H53.7734V811H789.773V75Z" fill="white" />
        </mask>
        <g mask="url(#mask0_5480_13)">
            <path
                d="M54 443C54 239.759 218.759 75 422 75C625.241 75 790 239.759 790 443C790 646.241 625.241 811 422 811C218.759 811 54 646.241 54 443Z"
                fill="#D69A00" />
            <path
                d="M333.259 358.294H514.42L488.003 287.415C486.977 284.506 485.1 281.974 482.616 280.147L333.259 358.294ZM332.761 274.167C339.173 256.923 353.29 245.857 368.85 245.857H475.977C491.54 245.857 505.654 256.923 512.082 274.167L538.486 345.046C546.41 366.311 533.61 390.427 514.42 390.427H330.42C311.233 390.427 298.445 366.311 306.357 345.046L332.774 274.167H332.761ZM188.517 542.294H369.323L342.906 471.415C341.88 468.506 340.001 465.974 337.517 464.147L188.517 542.294ZM188.005 458.167C194.432 440.923 208.56 429.857 224.108 429.857H330.88C346.441 429.857 360.57 440.923 366.985 458.167L393.389 529.046C401.314 550.311 388.526 574.428 369.323 574.428H185.652C166.464 574.428 153.676 550.311 161.601 529.046L188.005 458.167ZM659.701 542.294H477.674L627.897 464.16C630.248 465.816 632.141 468.313 633.325 471.428L659.716 542.294H659.701ZM513.278 429.857C497.717 429.857 483.587 440.923 477.173 458.167L450.769 529.046C442.844 550.311 455.632 574.428 474.834 574.428H659.716C678.903 574.428 691.691 550.311 683.766 529.046L657.35 458.167C650.976 440.923 636.859 429.857 621.298 429.857H513.278Z"
                fill="white" />
        </g>
    </g>
    <defs>
        <clipPath id="clip0_5480_13">
            <rect width="736" height="736" fill="white" transform="translate(67 75)" />
        </clipPath>
    </defs>
</svg>