<svg width="827" height="827" viewBox="0 0 827 827" fill="none" xmlns="http://www.w3.org/2000/svg">
<rect width="827" height="827" fill="#ECECEC"/>
<path d="M732.12 398.913C713.868 398.913 671.437 398.98 645.978 398.98C636.953 398.98 634.327 397.364 628.669 391.305C623.012 385.246 594.859 355.084 594.859 355.084C559.096 316.574 471.877 231.476 440.02 204.613C428.032 194.514 414.495 194.851 414.293 194.851C414.09 194.851 400.553 194.514 388.565 204.613C356.708 231.476 269.489 316.574 233.726 355.084C233.726 355.084 205.573 385.246 199.916 391.305C194.258 397.364 191.632 398.98 182.607 398.98C157.081 398.98 114.717 398.913 96.4654 398.913C92.0202 398.913 89.2589 393.527 92.2896 390.093C128.861 352.391 326.737 148.397 363.78 118.976C376.711 108.608 393.347 101 414.293 101C435.171 101 451.874 108.608 464.805 118.976C501.848 148.397 699.724 352.391 736.295 390.093C739.259 393.527 736.632 398.913 732.12 398.913ZM96.398 429.815C114.65 429.815 157.081 429.747 182.539 429.747C191.564 429.747 194.191 431.296 199.848 437.355C205.506 443.414 233.658 473.576 233.658 473.576C269.422 512.086 356.64 597.184 388.497 624.047C400.486 634.146 414.023 633.809 414.225 633.809C414.427 633.809 427.965 634.146 439.953 624.047C471.81 597.252 559.029 512.153 594.792 473.576C594.792 473.576 622.944 443.414 628.602 437.355C634.259 431.296 636.886 429.747 645.911 429.747C671.437 429.747 713.8 429.815 732.052 429.815C736.497 429.815 739.259 435.201 736.228 438.634C699.657 476.336 501.848 680.263 464.738 709.752C451.874 720.12 435.171 727.727 414.225 727.727C393.347 727.727 376.711 720.12 363.78 709.752C326.669 680.263 128.861 476.336 92.2896 438.634C89.2589 435.201 91.9529 429.815 96.398 429.815ZM398.667 499.563V584.056C398.667 588.028 394.828 589.779 391.595 586.951C355.226 553.289 274.203 473.037 246.994 441.933C234.063 428.132 235.207 414.195 235.207 414.195C235.207 414.195 233.995 400.124 246.994 386.39C274.203 355.286 355.226 275.035 391.595 241.372C394.694 238.477 398.667 240.632 398.667 243.998V328.693C398.667 336.368 397.051 340.273 390.383 346.467C374.084 361.413 345.326 389.218 334.617 401.74C329.768 407.261 330.104 414.128 330.104 414.128C330.104 414.128 329.768 421.062 334.617 426.583C345.326 439.038 374.084 466.911 390.383 481.79C397.051 487.983 398.667 491.888 398.667 499.563ZM438.202 481.857C454.501 466.978 483.259 439.106 493.968 426.65C498.817 421.13 498.481 414.195 498.481 414.195C498.481 414.195 498.817 407.328 493.968 401.808C483.259 389.285 454.501 361.48 438.202 346.534C431.534 340.34 429.918 336.435 429.918 328.76V244.335C429.918 240.363 433.757 238.545 436.99 241.372C473.359 275.035 554.382 355.286 581.524 386.39C594.523 400.192 593.31 414.195 593.31 414.195C593.31 414.195 594.523 428.199 581.524 442.001C554.382 473.105 473.359 553.356 436.99 587.018C433.757 589.846 429.918 588.096 429.918 584.056V499.631C429.985 491.956 431.534 488.051 438.202 481.857Z" fill="#FFB100"/>
</svg>
