<?xml version="1.0" encoding="UTF-8" standalone="no"?>
<svg
   xmlns:dc="http://purl.org/dc/elements/1.1/"
   xmlns:cc="http://creativecommons.org/ns#"
   xmlns:rdf="http://www.w3.org/1999/02/22-rdf-syntax-ns#"
   xmlns:svg="http://www.w3.org/2000/svg"
   xmlns="http://www.w3.org/2000/svg"
   xmlns:sodipodi="http://sodipodi.sourceforge.net/DTD/sodipodi-0.dtd"
   xmlns:inkscape="http://www.inkscape.org/namespaces/inkscape"
   width="101.1"
   height="24.899994"
   viewBox="0 0 26.749374 6.5881237"
   version="1.1"
   id="svg16"
   inkscape:version="1.0.1 (c497b03c, 2020-09-10)"
   sodipodi:docname="palantir.svg">
  <defs
     id="defs10" />
  <sodipodi:namedview
     id="base"
     pagecolor="#00ffff"
     bordercolor="#666666"
     borderopacity="1.0"
     inkscape:pageopacity="0"
     inkscape:pageshadow="2"
     inkscape:zoom="2.7724204"
     inkscape:cx="32.385514"
     inkscape:cy="20.544602"
     inkscape:document-units="px"
     inkscape:current-layer="layer1"
     inkscape:document-rotation="0"
     showgrid="false"
     units="px"
     fit-margin-top="0.5"
     lock-margins="true"
     fit-margin-left="0.5"
     fit-margin-right="0.5"
     fit-margin-bottom="0.5"
     inkscape:window-width="1440"
     inkscape:window-height="872"
     inkscape:window-x="0"
     inkscape:window-y="28"
     inkscape:window-maximized="0" />
  <metadata
     id="metadata13">
    <rdf:RDF>
      <cc:Work
         rdf:about="">
        <dc:format>image/svg+xml</dc:format>
        <dc:type
           rdf:resource="http://purl.org/dc/dcmitype/StillImage" />
        <dc:title></dc:title>
      </cc:Work>
    </rdf:RDF>
  </metadata>
  <g
     inkscape:label="Layer 1"
     inkscape:groupmode="layer"
     id="layer1"
     transform="translate(8.3149988,-121.31111)">
    <path
       d="m -1.7268776,122.10486 h 1.6404167 c 0.60854169,0 1.0054167,0.0265 1.349375,0.39688 0.238125,0.26458 0.3704167,0.58208 0.3704167,0.9525 0,0.37041 -0.1322917,0.68791 -0.396875,0.9525 -0.26458334,0.26458 -0.60854168,0.42333 -1.4816667,0.42333 h -0.79375 v 2.19604 h -0.6879167 z m 0.6879167,2.16958 h 0.79375 c 0.44979168,0 1.13770836,-0.0264 1.13770836,-0.84666 0,-0.76729 -0.63500001,-0.76729 -1.00541669,-0.76729 H -1.0389609 Z m 4.8683334,2.75167 c -0.052917,-0.15875 -0.052917,-0.34396 -0.052917,-0.50271 -0.3175,0.55563 -0.7672917,0.60854 -1.0583334,0.60854 -0.79375,0 -1.2170834,-0.44979 -1.2170834,-1.00541 0,-0.26459 0.1058334,-0.71438 0.6085417,-1.00542 0.3704167,-0.21167 0.8995834,-0.21167 1.1906251,-0.21167 0.15875,0 0.2645833,0 0.4497916,0.0265 0,-0.42333 0,-0.60854 -0.1322916,-0.76729 -0.1322917,-0.15875 -0.396875,-0.21167 -0.5820834,-0.21167 -0.635,0 -0.6879167,0.4498 -0.6879167,0.58209 h -0.635 c 0.026458,-0.18521 0.052917,-0.42334 0.238125,-0.635 0.2645834,-0.29104 0.7408334,-0.37042 1.11125,-0.37042 0.5027084,0 1.0318751,0.15875 1.2170834,0.50271 0.1058333,0.21167 0.1058333,0.37042 0.1058333,0.52917 l -0.026458,1.64041 c 0,0.0529 0,0.50271 0.052917,0.84667 H 3.8293725 Z m -0.4497916,-1.69333 c -0.2645834,0 -1.2435417,0 -1.2435417,0.68791 0,0.21167 0.1322916,0.58209 0.714375,0.58209 0.3175,0 0.5820833,-0.13229 0.7408333,-0.37042 0.1322917,-0.23812 0.15875,-0.42333 0.15875,-0.89958 -0.1058333,0.0265 -0.2116666,0 -0.3704166,0 z m 1.5610417,-3.22792 h 0.635 v 4.92125 h -0.635 z m 3.3866667,4.92125 c -0.052917,-0.15875 -0.052917,-0.34396 -0.052917,-0.50271 -0.3175,0.55563 -0.7672916,0.60854 -1.0583333,0.60854 -0.79375,0 -1.2170834,-0.44979 -1.2170834,-1.00541 0,-0.26459 0.1058334,-0.71438 0.6085417,-1.00542 0.3704167,-0.21167 0.8995834,-0.21167 1.190625,-0.21167 0.15875,0 0.2645834,0 0.4497917,0.0265 0,-0.42333 0,-0.60854 -0.1322917,-0.76729 -0.1322916,-0.15875 -0.396875,-0.21167 -0.5820833,-0.21167 -0.635,0 -0.6879167,0.4498 -0.6879167,0.58209 h -0.635 c 0.026458,-0.18521 0.052917,-0.42334 0.238125,-0.635 0.2645833,-0.29104 0.7408334,-0.37042 1.11125,-0.37042 0.5027084,0 1.0318751,0.15875 1.2170834,0.50271 0.1058333,0.21167 0.1058333,0.37042 0.1058333,0.52917 l -0.026458,1.64041 c 0,0.0529 0,0.50271 0.052917,0.84667 H 8.3272893 Z M 7.903956,125.33278 c -0.2645834,0 -1.2435417,0 -1.2435417,0.68791 0,0.21167 0.1322916,0.58209 0.714375,0.58209 0.3175,0 0.5820833,-0.13229 0.7408333,-0.37042 0.1322917,-0.23812 0.15875,-0.42333 0.15875,-0.89958 -0.1322916,0.0265 -0.2116666,0 -0.3704166,0 z m 1.5610417,-1.32292 v -0.39687 h 0.6350003 v 0.55562 c 0.07938,-0.13229 0.3175,-0.60854 1.084791,-0.60854 0.3175,0 1.243542,0.10583 1.243542,1.16417 v 2.32833 h -0.661458 v -2.16958 c 0,-0.21167 -0.02646,-0.42334 -0.185209,-0.58209 -0.15875,-0.15875 -0.396875,-0.23812 -0.608541,-0.23812 -0.47625,0 -0.899584,0.34396 -0.899584,1.03187 v 1.95792 H 9.4385393 v -3.04271 z m 3.1750003,-0.39687 h 0.608541 v -0.74084 l 0.635,-0.21166 v 0.92604 h 0.767292 v 0.47625 h -0.767292 v 2.03729 c 0,0.15875 0,0.44979 0.449792,0.44979 0.132292,0 0.264583,-0.0265 0.3175,-0.0265 v 0.50271 c -0.105833,0.0265 -0.291042,0.0529 -0.529167,0.0529 -0.608541,0 -0.873125,-0.18521 -0.873125,-0.74084 v -2.27541 h -0.608541 z m 2.460625,-1.50813 h 0.767292 v 0.71438 h -0.767292 z m 0.05292,1.50813 h 0.635001 v 3.41312 h -0.635001 z m 1.243542,0.68791 c 0,-0.23812 -0.02646,-0.47625 -0.02646,-0.68791 h 0.635 l 0.02646,0.66145 c 0.132292,-0.47625 0.529167,-0.635 0.820209,-0.66145 0.185208,-0.0265 0.343958,-0.0265 0.449791,-0.0265 v 0.635 c -0.02646,0 -0.07938,-0.0265 -0.132291,-0.0265 -0.05292,0 -0.105834,0 -0.185209,0 -0.767291,0 -0.926041,0.44979 -0.926041,1.03187 v 1.82563 h -0.635 v -2.75167 z m -22.0662504,-2.8575 c -1.3229167,0 -2.4077084,1.08479 -2.4077084,2.40771 0,1.32292 1.0847917,2.40771 2.4077084,2.40771 1.3229167,0 2.4077084,-1.08479 2.4077084,-2.40771 0,-1.32292 -1.0847917,-2.40771 -2.4077084,-2.40771 z m 0,4.07459 c -0.9260417,0 -1.666875,-0.74084 -1.666875,-1.66688 0,-0.92604 0.7408333,-1.66687 1.666875,-1.66687 0.9260417,0 1.6668751,0.74083 1.6668751,1.66687 -0.026458,0.92604 -0.7672917,1.66688 -1.6668751,1.66688 z m 2.1431251,0.52916 -2.1431251,0.92604 -2.143125,-0.92604 -0.3704167,0.66146 2.5135417,1.05833 2.5135418,-1.05833 z"
       id="path132860"
       style="fill:#000000;stroke-width:0.264583" />
  </g>
</svg>
