<svg width="827" height="827" viewBox="0 0 827 827" fill="none" xmlns="http://www.w3.org/2000/svg">
<g clip-path="url(#clip0_5500_13)">
<path d="M0 0H827V827H0V0Z" fill="#C26A44"/>
<g clip-path="url(#clip1_5500_13)">
<path d="M783 413.5C783 209.431 617.569 44 413.5 44C209.431 44 44 209.431 44 413.5C44 617.569 209.431 783 413.5 783C617.569 783 783 617.569 783 413.5Z" fill="#C26A44"/>
<path fill-rule="evenodd" clip-rule="evenodd" d="M330.173 214.053C335.046 208.677 341.653 205.656 348.544 205.656H478.43C485.319 205.656 491.929 208.677 496.799 214.053C501.672 219.429 504.409 226.721 504.409 234.324V363.331C504.409 370.934 501.672 378.227 496.799 383.603C491.929 388.979 485.319 392 478.43 392H348.544C341.653 392 335.046 388.979 330.173 383.603C325.303 378.227 322.564 370.934 322.564 363.331V234.324C322.564 226.721 325.303 219.429 330.173 214.053ZM478.43 234.324H348.544V363.331H478.43V234.324ZM213.265 443.397C218.138 438.021 224.746 435 231.636 435H361.521C368.412 435 375.019 438.021 379.892 443.397C384.764 448.773 387.501 456.066 387.501 463.669V592.675C387.501 600.28 384.764 607.571 379.892 612.947C375.019 618.323 368.412 621.344 361.521 621.344H231.636C224.746 621.344 218.138 618.323 213.265 612.947C208.393 607.571 205.656 600.28 205.656 592.675V463.669C205.656 456.066 208.393 448.773 213.265 443.397ZM361.521 463.669H231.636V592.675H361.521V463.669ZM447.094 443.397C451.967 438.021 458.577 435 465.466 435H595.363C602.254 435 608.862 438.021 613.734 443.397C618.607 448.773 621.344 456.066 621.344 463.669V592.675C621.344 600.28 618.607 607.571 613.734 612.947C608.862 618.323 602.254 621.344 595.363 621.344H465.466C458.577 621.344 451.967 618.323 447.094 612.947C442.224 607.571 439.485 600.28 439.485 592.675V463.669C439.485 456.066 442.224 448.773 447.094 443.397ZM595.363 463.669H465.466V592.675H595.363V463.669Z" fill="white"/>
<path d="M348.526 234.324L478.43 234.324L348.526 363.331V234.324ZM231.617 463.669H361.521L231.617 592.675V463.669ZM465.433 463.669H595.333L465.433 592.675V463.669Z" fill="white"/>
</g>
</g>
<defs>
<clipPath id="clip0_5500_13">
<rect width="827" height="827" fill="white"/>
</clipPath>
<clipPath id="clip1_5500_13">
<rect width="739" height="739" fill="white" transform="translate(44 44)"/>
</clipPath>
</defs>
</svg>
