<svg width="827" height="827" viewBox="0 0 827 827" fill="none" xmlns="http://www.w3.org/2000/svg">
<g clip-path="url(#clip0_5655_181)">
<path d="M827 0H0V827H827V0Z" fill="#61B50E"/>
<path d="M120.633 292.207C120.633 292.207 216.344 365.589 278.865 456.173C297.997 477.896 301.194 480.432 324.185 483.74C324.185 483.74 282.063 455.677 327.989 426.953C373.915 398.228 442.226 365.038 583.257 361.234C638.114 359.965 615.785 408.648 615.785 408.648C615.785 408.648 641.312 390.565 650.905 318.45C660.498 246.336 698.099 156.413 706.369 135.959C706.369 135.959 655.978 128.957 647.708 188.942C647.708 188.942 617.715 176.813 594.063 181.278C594.063 181.278 596.654 208.845 629.844 224.007C629.844 224.007 611.981 264.861 574.325 264.861C536.669 264.861 532.81 240.602 532.81 240.602C532.81 240.602 529.281 264.64 495.815 264.64C462.349 264.64 430.041 224.613 423.094 184.421C423.094 184.421 458.159 185.027 471.556 154.428C471.556 154.428 455.623 135.297 413.501 144.229C413.501 144.229 412.233 100.122 373.309 78.4547C373.309 78.4547 349.05 104.643 365.645 158.233C355.871 160.141 346.703 164.387 338.927 170.609C331.15 176.83 324.995 184.842 320.987 193.959C320.987 193.959 321.594 205.482 381.634 201.623C381.634 201.623 399.497 280.132 353.571 305.659C332.51 314.756 306.983 302.461 306.983 302.461C306.983 302.461 315.309 327.988 285.316 343.315C255.324 358.642 213.147 336.313 213.147 336.313C213.147 336.313 230.348 324.184 231.561 281.18C222.145 281.663 212.987 284.424 204.872 289.226C196.758 294.027 189.93 300.726 184.973 308.747C184.973 308.747 141.032 268.665 120.633 292.207Z" fill="white"/>
<path d="M362.225 422.432V613.413C362.225 613.413 362.666 624.054 342.266 624.054C342.266 624.054 354.175 638.554 401.81 638.554C449.446 638.554 463.119 623.007 463.119 623.007C463.119 623.007 446.082 623.007 446.082 611.098V410.523C446.082 410.523 533.744 396.464 533.744 522.388C533.744 648.313 445.531 660.663 406.552 660.663C367.573 660.663 312.494 650.849 311.667 612.145C311.667 585.792 344.747 588.769 344.747 588.769C344.747 588.769 343.479 530.052 291.158 530.052C238.836 530.052 239.663 591.305 239.663 591.305C239.663 591.305 223.95 701.572 407.71 701.572C591.469 701.572 615.342 583.641 615.342 518.253C615.342 452.865 578.347 378.601 514.558 378.601C450.769 378.601 360.185 421.164 360.185 421.164" fill="white"/>
</g>
<defs>
<clipPath id="clip0_5655_181">
<rect width="827" height="827" fill="white"/>
</clipPath>
</defs>
</svg>
