<svg width="827" height="827" viewBox="0 0 827 827" fill="none" xmlns="http://www.w3.org/2000/svg">
<g clip-path="url(#clip0_5706_155)">
<path d="M0 0H827V827H0V0Z" fill="#ECE9E2"/>
<path d="M317.852 629.52C319.313 625.835 429.023 359.819 442.999 323.069C450.082 338.951 458.563 354.833 467.266 371.032C489.246 412.165 511.988 454.696 511.988 496.178C511.988 588.291 449.637 604.173 430.548 607.095C423.385 608.115 416.876 611.814 412.333 617.444C407.79 623.074 405.55 630.217 406.066 637.434C406.582 644.65 409.815 651.402 415.112 656.329C420.41 661.256 427.379 663.991 434.613 663.983C435.995 663.985 437.375 663.89 438.743 663.697C498.902 654.962 569.162 605.888 569.162 496.178C569.162 440.339 541.814 389.232 517.674 344.097C497.187 305.759 478.478 270.533 483.401 244.551C486.927 225.747 500.299 215.075 520.977 213.741C522.508 213.606 523.969 213.039 525.189 212.106C526.41 211.172 527.339 209.91 527.87 208.468L538.034 182.105C539.015 180.282 539.248 178.15 538.685 176.158C538.122 174.166 536.806 172.472 535.016 171.433C530.601 167.907 517.324 164 506.08 164C476.159 164 439.664 173.783 407.869 252.937C406.567 256.113 266.587 602.934 264.554 608.111C261.807 615.161 261.952 623.009 264.958 629.952C267.965 636.894 273.589 642.37 280.609 645.19C287.63 648.01 295.479 647.946 302.453 645.012C309.426 642.078 314.96 636.51 317.852 629.52Z" fill="#212121"/>
</g>
<defs>
<clipPath id="clip0_5706_155">
<rect width="827" height="827" fill="white"/>
</clipPath>
</defs>
</svg>
