<svg width="827" height="827" viewBox="0 0 827 827" fill="none" xmlns="http://www.w3.org/2000/svg">
    <rect width="827" height="827" fill="#1565C0" />
    <g clip-path="url(#clip0_5468_13)">
        <rect width="700" height="700" transform="translate(64 64)" fill="#1565C0" />
        <path d="M64 64H764V764H64V64Z" fill="#1565C0" />
        <path
            d="M412.055 141.778L426.444 186.111H473.111L435.388 213.333L449.777 257.667L412.055 230.444L374.722 257.667L388.722 213.722L351.388 186.5H398.055L411.666 141.778H412.055ZM221.111 221.111L262.722 242.111L295.388 209.444L288.388 255.333L329.611 276.333L283.722 283.722L276.333 329.611L255.333 288.389L209.444 295.389L242.111 262.722L221.111 221.111ZM141.777 412.056L186.111 397.667V351L213.333 388.722L258.055 375.111L230.833 412.444L258.055 450.167L214.111 435.778L186.888 473.5V426.833L141.777 412.056ZM221.111 603L242.111 561.778L209.444 528.722L255.333 536.111L276.333 494.5L283.722 540.778L329.611 547.778L288.388 569.167L295.388 615.056L262.722 582L221.111 603ZM412.055 682.333L397.666 638H351L388.722 610.778L375.111 566.444L412.444 593.667L450.166 566.444L435.777 610.778L473.5 638H426.833L412.444 682.333H412.055ZM603 603L561.777 582L528.722 615.056L536.111 569.167L494.5 547.778L540.777 540.778L547.777 494.5L569.166 536.111L615.055 528.722L582 561.778L603 603ZM682.333 412.056L638 426.444V473.111L610.777 435.389L566.444 449.778L593.666 412.056L566.444 374.722L610.777 388.722L638 351.389V398.056L682.333 412.056ZM603 221.111L582 262.722L615.055 295.389L569.166 288.389L547.777 329.611L540.777 283.722L494.5 276.333L536.111 255.333L528.722 209.444L561.777 242.111L603 221.111Z"
            fill="#FDD835" />
    </g>
    <defs>
        <clipPath id="clip0_5468_13">
            <rect width="700" height="700" fill="white" transform="translate(64 64)" />
        </clipPath>
    </defs>
</svg>