<svg width="827" height="827" viewBox="0 0 827 827" fill="none" xmlns="http://www.w3.org/2000/svg">
<g clip-path="url(#clip0_5647_155)">
<path d="M0 0H827V827H0V0Z" fill="#D6002A"/>
<g clip-path="url(#clip1_5647_155)">
<mask id="mask0_5647_155" style="mask-type:luminance" maskUnits="userSpaceOnUse" x="84" y="227" width="1719" height="373">
<path d="M84 227H1802.74V599.734H84V227Z" fill="white"/>
</mask>
<g mask="url(#mask0_5647_155)">
<path d="M279.789 520.665C279.789 532.129 277.919 541.973 274.138 550.239C270.343 558.491 265.467 565.594 259.512 571.547C250.121 580.935 238.695 587.664 225.274 591.651C211.839 595.666 197.559 597.674 182.434 597.674C169.36 597.674 156.451 595.777 143.709 591.983C130.967 588.19 119.554 581.71 109.471 572.544C102.13 565.898 96.0498 557.716 91.2299 547.996C86.41 538.235 84 527.518 84 515.847H129.415C129.415 521.828 130.62 527.352 133.03 532.503C135.44 537.695 138.473 542.098 142.172 545.753C147.448 551.028 153.806 554.517 161.243 556.262C168.695 557.979 175.98 558.837 183.099 558.837C191.617 558.837 199.637 557.84 207.199 555.888C214.761 553.95 220.842 550.571 225.44 545.753C228.182 542.804 230.468 539.647 232.337 536.283C234.166 532.96 235.08 528.349 235.08 522.368C235.08 513.437 232.171 506.75 226.312 502.264C220.454 497.82 213.764 494.87 206.16 493.5C197.905 491.894 188.847 490.758 178.986 490.094C169.097 489.388 160.163 488.349 152.144 486.979C143.64 485.594 135.662 483.185 128.21 479.751C120.759 476.317 114.221 471.79 108.598 466.169C102.975 460.547 98.5013 453.777 95.1772 445.857C91.8532 437.965 90.1911 428.979 90.1911 418.9C90.1911 409.263 92.144 400.457 96.0498 392.399C99.9556 384.397 105.122 377.183 111.548 370.759C119.554 362.728 129.872 356.429 142.504 351.859C155.135 347.263 168.667 344.964 183.099 344.964C196.174 344.964 208.736 346.972 220.786 350.987C232.836 355.016 243.016 360.914 251.243 368.682C258.598 375.577 264.498 383.344 268.985 392.067C273.431 400.79 275.8 410.302 276.008 420.603H230.592C230.384 416.241 229.263 411.963 227.351 407.726C225.357 403.49 222.905 399.751 219.955 396.553C216.022 392.427 210.509 389.215 203.418 386.916C196.313 384.632 189.415 383.469 182.767 383.469C175.869 383.469 168.82 384.383 161.617 386.21C154.388 388.066 148.252 391.624 143.21 396.885C140.662 399.627 138.654 402.604 137.185 405.816C135.69 409.028 134.942 412.932 134.942 417.529C134.942 425.532 137.227 431.652 141.798 435.888C146.396 440.153 152.365 442.853 159.706 443.988C167.518 445.151 176.299 446.176 186.049 447.062C195.8 448.003 204.678 449.042 212.684 450.177C221.866 451.548 230.551 454.04 238.695 457.57C246.839 461.115 253.944 465.809 260.01 471.651C266.077 477.508 270.938 484.569 274.47 492.794C278.002 501.059 279.789 510.322 279.789 520.665Z" fill="white"/>
</g>
<mask id="mask1_5647_155" style="mask-type:luminance" maskUnits="userSpaceOnUse" x="84" y="227" width="1719" height="373">
<path d="M84 227H1802.74V599.734H84V227Z" fill="white"/>
</mask>
<g mask="url(#mask1_5647_155)">
<path fill-rule="evenodd" clip-rule="evenodd" d="M471.923 593.562L454.721 574.289C444.859 583.011 434.014 589.436 422.186 593.562C410.386 597.688 398.17 599.751 385.538 599.751C374.763 599.751 364.444 598.02 354.583 594.559C344.693 591.153 336.092 586.293 328.779 579.979C321.439 573.666 315.58 565.926 311.203 556.76C306.84 547.581 304.68 537.28 304.68 525.815C304.68 510.696 308.627 497.737 316.563 486.937C324.458 476.179 334.97 466.792 348.059 458.775C344.112 454.621 340.58 450.551 337.38 446.522C334.139 442.534 331.397 438.464 329.112 434.31C326.826 430.198 325.04 425.836 323.793 421.267C322.505 416.698 321.882 411.506 321.882 405.816C321.882 396.179 323.669 387.581 327.242 380.021C330.788 372.462 335.538 365.982 341.494 360.582C347.45 355.21 354.513 351.14 362.685 348.37C370.801 345.629 379.458 344.258 388.654 344.258C397.588 344.258 406.147 345.587 414.291 348.204C422.435 350.835 429.61 354.739 435.815 359.918C442.006 365.068 446.909 371.382 450.607 378.817C454.264 386.266 456.092 394.808 456.092 404.445C456.092 412.462 454.97 419.606 452.643 425.919C450.358 432.233 447.158 437.965 443.003 443.116C438.89 448.266 433.987 453.001 428.377 457.363C422.768 461.724 416.618 465.836 409.97 469.741L452.311 515.805C454.361 511.928 455.787 507.401 456.59 502.222C457.421 497.072 458.045 491.631 458.502 485.899C458.973 480.416 459.208 475.03 459.208 469.741V456.034H522.158V490.052H493.945C493.488 499.689 492.241 509.201 490.164 518.588C488.086 528.017 484.43 536.698 479.153 544.756L524.236 593.562H471.923ZM373.156 485.566C369.028 488.114 365.233 490.523 361.771 492.794C358.364 495.12 355.289 497.737 352.671 500.727C350.053 503.718 347.976 507.082 346.48 510.862C344.984 514.642 344.236 519.045 344.236 524.112C344.236 530.287 345.441 535.784 347.851 540.602C350.261 545.421 353.475 549.436 357.491 552.648C361.522 555.846 366.134 558.256 371.411 559.876C376.688 561.454 382.214 562.243 387.948 562.243C395.289 562.243 402.629 561.219 409.97 559.169C417.325 557.093 423.599 553.105 428.876 547.124L373.156 485.566ZM415.87 406.148C415.87 397.674 413.28 391.139 408.1 386.543C402.948 381.974 396.466 379.689 388.654 379.689C381.549 379.689 375.233 381.807 369.749 386.044C364.236 390.281 361.48 396.636 361.48 405.11C361.48 409.014 362.228 412.683 363.724 416.117C365.192 419.578 367.02 422.846 369.209 425.919C371.411 429.035 373.862 431.942 376.605 434.684C379.347 437.425 382.006 440.084 384.541 442.576C388.197 440.54 391.937 438.422 395.718 436.221C399.485 434.061 402.865 431.596 405.857 428.827C408.848 426.086 411.258 422.873 413.086 419.191C414.915 415.577 415.87 411.215 415.87 406.148Z" fill="white"/>
</g>
<mask id="mask2_5647_155" style="mask-type:luminance" maskUnits="userSpaceOnUse" x="84" y="227" width="1719" height="373">
<path d="M84 227H1802.74V599.734H84V227Z" fill="white"/>
</mask>
<g mask="url(#mask2_5647_155)">
<path fill-rule="evenodd" clip-rule="evenodd" d="M738.386 427.498C738.386 439.17 736.558 449.803 732.86 459.481C729.204 469.09 723.76 477.342 716.531 484.237C709.301 491.091 700.284 496.449 689.522 500.229C678.719 503.995 666.323 505.878 652.334 505.878H600.728V593.23H556.684V349.45H652.334C666.323 349.45 678.719 351.333 689.522 355.099C700.298 358.893 709.301 364.168 716.531 370.925C723.76 377.681 729.204 385.878 732.86 395.515C736.544 405.151 738.386 415.812 738.386 427.498ZM693.636 427.83C693.636 416.117 690.229 406.646 683.331 399.294C676.434 391.984 665.547 388.287 650.631 388.287H600.728V467.041H650.631C665.547 467.041 676.434 463.427 683.331 456.2C690.187 448.972 693.636 439.544 693.636 427.83Z" fill="white"/>
</g>
<mask id="mask3_5647_155" style="mask-type:luminance" maskUnits="userSpaceOnUse" x="84" y="227" width="1719" height="373">
<path d="M84 227H1802.74V599.734H84V227Z" fill="white"/>
</mask>
<g mask="url(#mask3_5647_155)">
<path d="M84 227H743V266.585H84V227Z" fill="white"/>
</g>
</g>
</g>
<defs>
<clipPath id="clip0_5647_155">
<rect width="827" height="827" fill="white"/>
</clipPath>
<clipPath id="clip1_5647_155">
<rect width="659" height="373" fill="white" transform="translate(84 227)"/>
</clipPath>
</defs>
</svg>
