<svg width="827" height="827" viewBox="0 0 827 827" fill="none" xmlns="http://www.w3.org/2000/svg">
<rect width="827" height="827" fill="white"/>
<g clip-path="url(#clip0_5253_274)">
<path d="M565.819 332.471C539.193 348.941 522.747 377.176 522.747 408.549C522.747 443.843 543.892 476 576 489.333C569.735 509.726 560.337 528.549 548.59 545.804C531.361 570.118 513.349 595.216 486.723 595.216C460.096 595.216 452.265 579.529 420.94 579.529C390.398 579.529 379.434 596 354.373 596C329.313 596 312.084 573.255 292.506 545.02C266.663 505.804 251.783 460.314 251 412.471C251 334.824 301.12 293.255 351.241 293.255C377.867 293.255 399.795 310.51 416.241 310.51C431.904 310.51 456.964 292.471 486.723 292.471C518.048 291.686 547.807 306.588 565.819 332.471ZM472.627 259.529C485.94 243.843 492.988 224.235 493.771 203.843C493.771 201.49 493.771 198.353 492.988 196C470.277 198.353 449.133 209.333 434.253 226.588C420.94 241.49 413.108 260.314 412.325 280.706C412.325 283.059 412.325 285.412 413.108 287.765C414.675 287.765 417.024 288.549 418.59 288.549C439.735 286.98 459.313 276 472.627 259.529Z" fill="black"/>
</g>
<defs>
<clipPath id="clip0_5253_274">
<rect width="325" height="400" fill="white" transform="translate(251 196)"/>
</clipPath>
</defs>
</svg>
