<svg width="827" height="827" viewBox="0 0 827 827" fill="none" xmlns="http://www.w3.org/2000/svg">
<g clip-path="url(#clip0_5500_17)">
<path d="M0 0H827V827H0V0Z" fill="url(#paint0_linear_5500_17)"/>
<path d="M494.836 214H579.406V473.766C579.406 502.932 572.44 528.453 558.508 550.328C544.706 572.203 525.37 589.26 500.5 601.5C475.63 613.609 446.659 619.664 413.586 619.664C380.383 619.664 351.346 613.609 326.477 601.5C301.607 589.26 282.271 572.203 268.469 550.328C254.667 528.453 247.766 502.932 247.766 473.766V214H332.336V466.539C332.336 481.773 335.656 495.315 342.297 507.164C349.068 519.013 358.573 528.323 370.812 535.094C383.052 541.865 397.31 545.25 413.586 545.25C429.992 545.25 444.25 541.865 456.359 535.094C468.599 528.323 478.039 519.013 484.68 507.164C491.451 495.315 494.836 481.773 494.836 466.539V214Z" fill="white"/>
</g>
<defs>
<linearGradient id="paint0_linear_5500_17" x1="153.852" y1="143.425" x2="1006.39" y2="1122.61" gradientUnits="userSpaceOnUse">
<stop stop-color="#1A1E21"/>
<stop offset="1" stop-color="#06060A"/>
</linearGradient>
<clipPath id="clip0_5500_17">
<rect width="827" height="827" fill="white"/>
</clipPath>
</defs>
</svg>
