<svg width="827" height="827" viewBox="0 0 827 827" fill="none" xmlns="http://www.w3.org/2000/svg">
<g clip-path="url(#clip0_5765_155)">
<rect width="827" height="827" fill="black"/>
<path d="M0 0H827V827H0V0Z" fill="white"/>
<g clip-path="url(#clip1_5765_155)">
<path d="M507.156 422.025C475.349 423.069 455.586 428.819 455.586 449.805C455.586 463.391 466.399 478.12 493.851 478.12C530.655 478.12 550.301 458.025 550.301 425.066L550.303 421.441C537.4 421.441 521.487 421.554 507.156 422.025ZM585.382 465.57C585.382 475.796 585.677 485.889 586.568 494.978H553.938C553.068 487.494 552.75 480.058 552.75 472.844C535.109 494.567 514.126 500.811 485.017 500.811C441.843 500.811 418.727 477.953 418.727 451.513C418.727 413.22 450.168 399.719 504.75 398.466C519.676 398.125 536.442 398.074 550.302 398.074L550.3 394.333C550.3 368.697 533.89 358.156 505.453 358.156C484.342 358.156 468.783 366.907 467.179 382.029H430.323C434.224 344.325 473.77 334.79 508.541 334.79C550.197 334.79 585.382 349.636 585.382 393.77L585.382 465.57Z" fill="#FFBC13"/>
<path d="M203.745 403.326C202.384 370.457 178.7 358.156 153.386 358.156C126.091 358.156 104.298 371.992 100.48 403.326H203.745ZM99.7241 426.693C101.617 458.585 123.573 477.448 153.762 477.448C174.679 477.448 193.284 468.911 199.514 450.34H235.693C228.657 488.021 188.685 500.811 154.281 500.811C91.7245 500.811 64 466.302 64 419.762C64 368.531 92.6759 334.79 154.852 334.79C204.341 334.79 240.602 360.733 240.602 417.358V426.693H99.7241Z" fill="#F12C2D"/>
<path d="M330.583 476.78C363.183 476.78 385.491 453.275 385.491 417.805C385.491 382.338 363.183 358.829 330.583 358.829C298.165 358.829 275.672 382.338 275.672 417.805C275.672 453.275 298.165 476.78 330.583 476.78ZM240.6 273H275.672L275.669 361.263C292.858 340.746 316.541 334.79 339.851 334.79C378.936 334.79 422.347 361.208 422.347 418.251C422.347 466.017 387.822 500.811 339.201 500.811C313.75 500.811 289.794 491.666 275.02 473.547C275.02 480.784 274.617 488.078 273.826 494.978H239.406C240.005 483.823 240.6 469.933 240.6 458.694L240.6 273Z" fill="#0968F6"/>
<path d="M764.001 340.634L655.54 554H616.265L647.448 494.753L565.824 340.634H606.863L666.926 461.049L726.82 340.634H764.001Z" fill="#93C822"/>
</g>
</g>
<defs>
<clipPath id="clip0_5765_155">
<rect width="827" height="827" fill="white"/>
</clipPath>
<clipPath id="clip1_5765_155">
<rect width="700" height="281" fill="white" transform="translate(64 273)"/>
</clipPath>
</defs>
</svg>
