<svg xmlns="http://www.w3.org/2000/svg" width="56" height="56"><path fill="#00C805" d="M0 0h56v56H0z"/><path d="M35.89 14c1.4.05 2.32.31 2.93.84.75.62 1.53 3.09 1.01 6.3-.04.18-.1.32-.26.54a147 147 0 00-4.93 6.2 82.4 82.4 0 01-.29-7.93c0-.38-.3-.57-.65-.57a69 69 0 00-7.72 1.24l-.17.04c-.05.04-.1 0-.14-.04-.04-.05-.04-.09 0-.14l.14-.13a81.22 81.22 0 015-5.16c.21-.17.39-.3.65-.4 1.7-.52 3.2-.83 4.43-.79zm-9.25 24.34l-.22.09h-.01c-1.32.45-3.28 1.1-4.98 1.94-.1.04-.18.17-.18.17-.04.1-.1.18-.13.27l-.16.38c-.16.38-.34.8-.41 1.03l-.08.22v.09l.03.04h.05l.21-.08c.28-.13.59-.3.92-.47l.8-.41h.04c1.13-.53 2.25-1.08 3.37-1.64 0 0 .13-.08.22-.21l.62-1.24v-.09c0-.09-.05-.13-.09-.09zm-4.9-1.94c.08-.18.47-.93.57-1.1v-.04a78.2 78.2 0 019.63-14.2l.09-.13c.05-.05.05-.1 0-.14-.05-.04-.1-.09-.13-.04h-.17c-2.46.35-4.96.8-7.4 1.41-.25.08-.38.2-.44.25l-.01.01a89.88 89.88 0 00-5.18 6.93c.05.13.05.4.05.4s.4 3.08.97 5.37C18.32 39.32 17 45 17 45h1.02a50.98 50.98 0 013.71-8.6zM33.2 22v-.18c0-.04-.03-.08-.07-.12l-.01-.01c-.05 0-.1 0-.14.04l-.08.13A74.77 74.77 0 0022 38.61l-.1.13v.13l.04.04h.09l.13-.04a78.76 78.76 0 017.45-2.65.68.68 0 00.35-.26c1.1-2.11 3.63-6.26 3.63-6.26.1-.13.05-.27.05-.27s-.44-4.93-.44-7.44z" fill="#fff"/></svg>