<svg width="827" height="827" viewBox="0 0 827 827" fill="none" xmlns="http://www.w3.org/2000/svg">
<g clip-path="url(#clip0_5534_54)">
<rect width="827" height="827" fill="#C2B8AB"/>
<g clip-path="url(#clip1_5534_54)">
<path d="M46 46H782V782H46V46Z" fill="#C2B8AB"/>
<path d="M325.311 359.649H506.459L480.055 288.77C479.028 285.862 477.15 283.329 474.666 281.502L325.311 359.649ZM324.798 275.522C331.225 258.279 345.34 247.212 360.901 247.212H468.016C483.59 247.212 497.705 258.279 504.119 275.522L530.536 346.401C538.448 367.667 525.647 391.784 506.459 391.784H322.459C303.27 391.784 290.482 367.667 298.407 346.401L324.824 275.522H324.798ZM180.555 543.649H361.361L334.957 472.77C333.93 469.862 332.053 467.33 329.569 465.502L180.555 543.649ZM180.056 459.522C186.469 442.279 200.598 431.212 216.159 431.212H322.932C338.493 431.212 352.608 442.279 359.035 459.522L385.426 530.401C393.351 551.667 380.563 575.784 361.375 575.784H177.69C158.501 575.784 145.713 551.667 153.625 530.401L180.043 459.522H180.056ZM651.753 543.649H469.724L619.947 465.515C622.287 467.171 624.192 469.668 625.362 472.783L651.753 543.649ZM505.302 431.212C489.741 431.212 475.625 442.279 469.199 459.522L442.795 530.401C434.869 551.667 447.671 575.784 466.859 575.784H651.74C670.928 575.784 683.716 551.667 675.804 530.401L649.387 459.522C643.013 442.279 628.884 431.212 613.336 431.212H505.302Z" fill="white"/>
</g>
</g>
<defs>
<clipPath id="clip0_5534_54">
<rect width="827" height="827" fill="white"/>
</clipPath>
<clipPath id="clip1_5534_54">
<rect width="736" height="736" fill="white" transform="translate(46 46)"/>
</clipPath>
</defs>
</svg>
