<svg width="827" height="827" viewBox="0 0 827 827" fill="none" xmlns="http://www.w3.org/2000/svg">
<g clip-path="url(#clip0_5710_172)">
<rect width="827" height="827" fill="#24344B"/>
<path d="M0 0H827V827H0V0Z" fill="#24344B"/>
<path d="M156.069 494H99.35V334H156.538C172.631 334 186.485 337.203 198.1 343.609C209.715 349.964 218.647 359.104 224.897 371.031C231.199 382.958 234.35 397.229 234.35 413.844C234.35 430.51 231.199 444.833 224.897 456.812C218.647 468.792 209.663 477.984 197.944 484.391C186.277 490.797 172.319 494 156.069 494ZM133.178 465.016H154.663C164.663 465.016 173.074 463.245 179.897 459.703C186.772 456.109 191.928 450.562 195.366 443.062C198.855 435.51 200.6 425.771 200.6 413.844C200.6 402.021 198.855 392.359 195.366 384.859C191.928 377.359 186.798 371.839 179.975 368.297C173.152 364.755 164.741 362.984 154.741 362.984H133.178V465.016ZM255.009 494V334H318.134C330.217 334 340.529 336.161 349.071 340.484C357.665 344.755 364.201 350.823 368.68 358.688C373.212 366.5 375.477 375.693 375.477 386.266C375.477 396.891 373.186 406.031 368.602 413.687C364.019 421.292 357.378 427.125 348.68 431.187C340.035 435.25 329.566 437.281 317.274 437.281H275.009V410.094H311.805C318.264 410.094 323.628 409.208 327.899 407.438C332.17 405.667 335.347 403.01 337.43 399.469C339.566 395.927 340.634 391.526 340.634 386.266C340.634 380.953 339.566 376.474 337.43 372.828C335.347 369.182 332.144 366.422 327.821 364.547C323.55 362.62 318.16 361.656 311.649 361.656H288.837V494H255.009ZM341.415 421.188L381.18 494H343.837L304.93 421.188H341.415ZM422.562 494H386.312L441.546 334H485.14L540.296 494H504.046L463.968 370.562H462.718L422.562 494ZM420.296 431.109H505.921V457.516H420.296V431.109ZM555.154 334H596.873L640.935 441.5H642.81L686.873 334H728.591V494H695.779V389.859H694.451L653.045 493.219H630.701L589.295 389.469H587.966V494H555.154V334Z" fill="#F9BD29"/>
</g>
<defs>
<clipPath id="clip0_5710_172">
<rect width="827" height="827" fill="white"/>
</clipPath>
</defs>
</svg>
