<svg width="827" height="827" viewBox="0 0 827 827" fill="none" xmlns="http://www.w3.org/2000/svg">
<g clip-path="url(#clip0_5698_155)">
<path d="M0 0H827V827H0V0Z" fill="black"/>
<path d="M291.033 505H355.666L323.353 476.009L291.033 505ZM493.222 505H537L468.442 443.33H490.275C500.135 443.319 509.589 439.392 516.561 432.409C523.533 425.426 527.454 415.959 527.465 406.083V360.247C527.454 350.371 523.533 340.904 516.561 333.921C509.589 326.938 500.135 323.01 490.275 323H291L323.366 352.149H490.275C492.419 352.153 494.473 353.007 495.988 354.525C497.504 356.042 498.357 358.1 498.36 360.247V406.083C498.359 408.23 497.506 410.289 495.99 411.807C494.474 413.325 492.419 414.179 490.275 414.181H392.318L493.222 505Z" fill="white"/>
<path d="M30 413.86L311.812 433.816C332.382 435.276 352.556 427.977 367 413.86C352.358 399.863 332.422 392.764 312.142 394.177L30 413.86Z" fill="#E42727"/>
</g>
<defs>
<clipPath id="clip0_5698_155">
<rect width="827" height="827" fill="white"/>
</clipPath>
</defs>
</svg>
