<svg width="827" height="827" viewBox="0 0 827 827" fill="none" xmlns="http://www.w3.org/2000/svg">
<g clip-path="url(#clip0_5498_19)">
<path d="M0 0H827V827H0V0Z" fill="#42A5F5"/>
<path d="M566.583 291.172C566.583 295.289 552.662 378.934 510.928 413.316C566.806 237.762 414.238 139 414.238 139C414.238 139 390.585 269.395 344.662 318.672C342.121 262.527 309.896 228.145 309.896 228.145C286.69 329.672 206 417.434 206 483.211C205.763 597.328 298.516 689 414 689C529.247 689 622 597.328 622 483.211C622 400.934 598.585 340.672 566.583 291.172Z" fill="white"/>
</g>
<defs>
<clipPath id="clip0_5498_19">
<rect width="827" height="827" fill="white"/>
</clipPath>
</defs>
</svg>
