<?xml version="1.0" encoding="UTF-8"?>
<svg xmlns="http://www.w3.org/2000/svg" xmlns:xlink="http://www.w3.org/1999/xlink" width="64px" height="64px" viewBox="0 0 64 64" version="1.1">
<g id="surface1">
<rect x="0" y="0" width="64" height="64" style="fill:rgb(18.039216%,36.078432%,100%);fill-opacity:1;stroke:none;"/>
<path style=" stroke:none;fill-rule:nonzero;fill:rgb(100%,100%,100%);fill-opacity:1;" d="M 46.980469 48.679688 C 46.980469 50.445312 46.980469 51.332031 46.402344 51.769531 C 45.824219 52.207031 44.972656 51.96875 43.269531 51.492188 L 15.902344 43.8125 C 14.875 43.523438 14.363281 43.378906 14.066406 42.988281 C 13.769531 42.597656 13.769531 42.0625 13.769531 41 L 13.769531 23 C 13.769531 21.9375 13.769531 21.402344 14.066406 21.011719 C 14.363281 20.621094 14.875 20.476562 15.902344 20.1875 L 43.269531 12.507812 C 44.972656 12.03125 45.824219 11.792969 46.402344 12.230469 C 46.980469 12.667969 46.980469 13.554688 46.980469 15.320312 Z M 20.59375 41.308594 L 43.253906 47.667969 L 43.253906 34.949219 Z M 17.496094 38.359375 L 40.148438 32 L 17.496094 25.640625 Z M 20.59375 22.691406 L 43.253906 29.050781 L 43.253906 16.332031 Z M 20.59375 22.691406 "/>
</g>
</svg>
