<svg width="32" height="32" viewBox="0 0 32 32" fill="none" xmlns="http://www.w3.org/2000/svg">
<path fill-rule="evenodd" clip-rule="evenodd" d="M16 0C15.3806 0 14.8202 0.36971 14.5766 0.939516L10.4839 10.4839L0.939516 14.5766C0.36971 14.8202 0 15.3806 0 16C0 16.6194 0.36971 17.1798 0.939516 17.4234L10.4839 21.5161L14.5766 31.0605C14.8202 31.6303 15.3806 32 16 32C16.6194 32 17.1798 31.6303 17.4234 31.0605L21.5161 21.5161L31.0605 17.4234C31.6303 17.1798 32 16.6194 32 16C32 15.3806 31.6303 14.8202 31.0605 14.5766L21.5161 10.4839L17.4234 0.939516C17.1798 0.36971 16.6194 0 16 0ZM5.91532 4.2379C5.46716 4.19919 5.01374 4.35723 4.68548 4.68548C4.24781 5.12316 4.11151 5.77884 4.34274 6.35484L5.8871 10.2097L8.91129 8.91129L10.2097 5.8871L6.35484 4.34274C6.21084 4.28493 6.06471 4.25081 5.91532 4.2379ZM26.0847 4.2379C25.9353 4.25081 25.7892 4.28493 25.6452 4.34274L21.7903 5.8871L23.0887 8.91129L26.1129 10.2097L27.6573 6.35484C27.8885 5.77884 27.7522 5.12316 27.3145 4.68548C26.9863 4.35723 26.5328 4.19919 26.0847 4.2379ZM5.8871 21.7903L4.34274 25.6452C4.11151 26.2212 4.24781 26.8768 4.68548 27.3145C5.12316 27.7522 5.77884 27.8885 6.35484 27.6573L10.2097 26.1129L8.91129 23.0887L5.8871 21.7903ZM26.1129 21.7903L23.0887 23.0887L21.7903 26.1129L25.6452 27.6573C26.2212 27.8885 26.8768 27.7522 27.3145 27.3145C27.7522 26.8768 27.8885 26.2212 27.6573 25.6452L26.1129 21.7903Z" fill="url(#paint0_radial_116_991)"/>
<path fill-rule="evenodd" clip-rule="evenodd" d="M18.9153 17.7367C18.8091 17.7573 18.7218 17.8188 18.7885 17.9589C18.8365 18.0597 18.8957 18.1284 18.9082 18.1405C18.9976 18.2278 19.194 18.4572 19.17 18.6015C19.1486 18.7308 18.9486 18.801 18.8149 18.8404C17.9992 19.0805 17.1975 18.8948 17.1129 18.8743C16.7891 18.7957 16.4308 18.7087 16.0298 18.4465C15.4872 18.0918 14.9503 17.4711 15.0867 17.2217C15.1192 17.1624 15.1783 17.1451 15.9629 17.0733C16.5531 17.0192 16.8825 16.9965 16.9018 16.8793C16.9067 16.8503 16.8935 16.8167 16.8571 16.778C16.6591 16.5674 16.4793 16.3823 16.2751 16.1612C16.084 15.9545 15.8817 15.6938 15.7159 15.4542C15.6929 15.4209 15.6608 15.3944 15.6167 15.3901C14.8765 15.3181 14.6201 15.2093 14.1737 14.6385C13.4372 13.6967 13.6665 12.1345 14.7856 11.6648C14.8808 11.6248 14.9475 11.6089 15.0357 11.5705C15.0656 11.5575 15.0821 11.5443 15.0883 11.5115C15.2136 10.8553 15.4924 10.3463 16.0277 9.9398C16.1163 9.87244 16.2067 9.80752 16.2973 9.74278C16.373 9.6886 16.4855 9.65405 16.5451 9.58041C16.5714 9.54795 16.5781 9.52535 16.5721 9.50921C16.5555 9.46524 16.4552 9.46358 16.4199 9.46314C14.8451 9.44447 13.4887 10.4666 13.4875 10.4674C12.494 11.2162 11.7647 12.3109 11.4658 13.5273C10.8163 16.1709 12.4477 19.0491 14.8052 20.2087C17.0828 21.3289 19.9084 20.7911 21.5385 18.8047C21.8217 18.4596 22.0514 18.074 22.2377 17.6675C22.2554 17.6289 22.2897 17.5474 22.2621 17.5135C22.225 17.4681 22.1491 17.5222 22.1065 17.5378C21.4388 17.7818 20.7127 17.7908 20.0114 17.7683C19.75 17.76 19.4887 17.7462 19.2273 17.7356C19.1604 17.7329 19.0934 17.7305 19.0265 17.7284C18.9909 17.7272 18.952 17.7295 18.9153 17.7366V17.7367Z" fill="white"/>
<path d="M16.7631 12.9619C17.0715 13.8229 16.7345 14.7524 15.952 14.9902C15.2978 15.1885 14.5664 14.7867 14.227 14.0836C14.0653 13.75 14.0092 13.3988 14.0406 13.0785C14.0625 12.8548 14.2487 12.7183 14.4358 12.7912L14.8813 12.9643C14.9168 12.978 14.9424 13.0161 14.944 13.0588C14.9503 13.2106 14.993 13.3683 15.0784 13.5189C15.2711 13.8557 15.6411 14.0375 15.9694 13.9457C16.3367 13.8424 16.5284 13.4627 16.4716 13.0656C16.4656 13.0253 16.4856 12.9892 16.5178 12.9742L16.6587 12.9088C16.6978 12.8906 16.747 12.9154 16.7633 12.962L16.7631 12.9619Z" fill="white"/>
<path d="M19.1641 15.0113C19.823 15.7421 21.1632 15.9461 21.7334 15.282C22.3036 14.6179 22.0487 13.5356 21.3898 12.8045C20.731 12.0737 19.7345 12.0196 19.164 12.6838C18.5937 13.3479 18.5053 14.2804 19.164 15.0113L19.1641 15.0113ZM19.6432 13.9557L20.2946 13.1971C20.327 13.1592 20.3855 13.1683 20.4165 13.2162C20.5081 13.3563 20.6172 13.5543 20.7013 13.8056C20.7522 13.9584 20.7837 14.0999 20.8027 14.2243C20.8289 14.3944 20.7084 14.5291 20.5582 14.4971C20.4551 14.475 20.3412 14.443 20.2193 14.3961C19.9934 14.309 19.8077 14.1973 19.6669 14.097C19.6212 14.0645 19.6094 13.9951 19.6433 13.9558L19.6432 13.9557Z" fill="white"/>
<defs>
<radialGradient id="paint0_radial_116_991" cx="0" cy="0" r="1" gradientUnits="userSpaceOnUse" gradientTransform="translate(16 16) rotate(135) scale(16.1688)">
<stop stop-color="#6C2DAA"/>
<stop offset="0.35" stop-color="#5466C0"/>
<stop offset="0.711538" stop-color="#34B9AC"/>
<stop offset="1" stop-color="#2CDEA3"/>
</radialGradient>
</defs>
</svg>
