<svg width="500" height="500" viewBox="0 0 25 26" fill="none" xmlns="http://www.w3.org/2000/svg">
<path d="M12.4869 24.9978C19.1144 24.9978 24.4869 19.6252 24.4869 12.9978C24.4869 6.37039 19.1144 0.997803 12.4869 0.997803C5.85952 0.997803 0.486938 6.37039 0.486938 12.9978C0.486938 19.6252 5.85952 24.9978 12.4869 24.9978Z" fill="white" stroke="#002664" stroke-width="0.444444" stroke-miterlimit="10"/>
<path d="M11.9673 1.04936C11.8708 1.05358 11.7746 1.05913 11.6782 1.06647C11.5677 1.07491 11.4573 1.08358 11.3468 1.09247C11.2471 1.10069 11.1482 1.11669 11.0482 1.12336C10.9675 1.13936 10.8853 1.14447 10.804 1.15669C10.6695 1.17736 10.5355 1.19713 10.4017 1.2218C10.1328 1.27091 10.0966 1.27869 9.85529 1.33202C9.5864 1.39158 9.32018 1.46225 9.0564 1.54225C8.29018 1.77425 7.55351 2.08202 6.84684 2.46425C6.62862 2.58225 6.41484 2.70736 6.20396 2.83891C6.19173 2.84647 6.17973 2.85447 6.16773 2.86225C6.15529 2.87025 6.14751 2.88425 6.15418 2.88802C6.15996 2.89113 6.16596 2.8958 6.17218 2.89602C6.21507 2.89713 6.25796 2.89758 6.30062 2.89758C10.4144 2.89758 14.5286 2.89758 18.6424 2.89758C18.6782 2.89758 18.714 2.8978 18.7497 2.89713C18.7602 2.89691 18.7711 2.89536 18.7815 2.89358C18.7844 2.89313 18.788 2.89091 18.7897 2.88825C18.7948 2.88091 18.7933 2.87447 18.7873 2.86869C18.7688 2.85136 18.7464 2.83958 18.7248 2.82625C18.0971 2.43536 17.44 2.10669 16.7535 1.83936C16.3424 1.67936 15.9237 1.5438 15.4984 1.43002C15.3153 1.38091 15.1306 1.3378 14.9453 1.2978C14.7984 1.26625 14.6508 1.23869 14.5031 1.21202C14.4468 1.20202 14.3902 1.19291 14.334 1.18425C14.2493 1.17113 14.1646 1.15802 14.0795 1.14625C14.0017 1.13558 13.9235 1.1258 13.8455 1.11758C13.746 1.10713 13.6468 1.09336 13.5468 1.08802C13.5397 1.08758 13.5326 1.08669 13.5255 1.08558C13.476 1.07758 13.426 1.07536 13.376 1.07269C13.3402 1.07091 13.3044 1.07047 13.2688 1.06625C13.1726 1.05536 13.0764 1.05291 12.9797 1.04847C12.944 1.04691 12.9084 1.0438 12.8728 1.04091C12.8584 1.0398 12.8453 1.0338 12.8328 1.02625C12.5971 1.02625 12.3611 1.02625 12.1251 1.02625C12.1091 1.03469 12.092 1.04047 12.0742 1.0418C12.0388 1.04491 12.0031 1.0478 11.9673 1.04936Z" fill="url(#paint0_linear_591_4260)"/>
<path d="M24.4846 12.1556C24.4837 12.1485 24.4811 12.1416 24.4795 12.1343C24.478 12.1271 24.4635 12.1134 24.4569 12.1125C24.4106 12.106 24.364 12.1089 24.3175 12.1089C20.3864 12.1087 16.4551 12.1087 12.524 12.1087C8.59641 12.1087 4.66885 12.1087 0.741074 12.1087C0.698185 12.1087 0.655074 12.1085 0.612185 12.1091C0.597963 12.1094 0.583519 12.1105 0.569741 12.1136C0.563519 12.1149 0.557074 12.1209 0.553074 12.1265C0.549297 12.1323 0.547074 12.14 0.546408 12.1474C0.538852 12.2505 0.529741 12.3536 0.527074 12.4574C0.51863 12.7903 0.518185 13.1227 0.527519 13.4554C0.528852 13.5034 0.531074 13.5516 0.533963 13.5994C0.537963 13.6694 0.54263 13.7394 0.546852 13.8096C0.548852 13.8429 0.550408 13.8758 0.552852 13.9091C0.553741 13.92 0.556852 13.9309 0.558852 13.9418C0.56063 13.9523 0.578852 13.9703 0.588408 13.9711C0.599074 13.9723 0.609741 13.9747 0.620408 13.9749C0.659741 13.9756 0.699074 13.9758 0.73863 13.9758C8.59019 13.9758 16.442 13.9758 24.2935 13.9758C24.3329 13.9758 24.3722 13.9758 24.4117 13.9751C24.4257 13.9749 24.4402 13.972 24.4542 13.9703C24.466 13.9687 24.4804 13.9531 24.482 13.9407C24.4829 13.9334 24.4848 13.926 24.4851 13.9189C24.486 13.8856 24.4866 13.8523 24.4866 13.8191C24.4866 13.3018 24.4866 12.784 24.4866 12.2665C24.4866 12.2407 24.4866 12.2147 24.4864 12.1889C24.4864 12.1778 24.486 12.1667 24.4846 12.1556Z" fill="url(#paint1_linear_591_4260)"/>
<path d="M0.90794 10.2895C0.914384 10.2922 0.921273 10.2953 0.928162 10.2953C0.974384 10.2962 1.02061 10.2968 1.06661 10.2968C4.88305 10.2968 8.6995 10.2968 12.5159 10.2968C16.3395 10.2968 20.1631 10.2968 23.9866 10.2968C24.0293 10.2968 24.0719 10.2968 24.1146 10.2964C24.1253 10.2962 24.1357 10.2944 24.1464 10.2931C24.1546 10.2922 24.1664 10.2786 24.1659 10.2697C24.1653 10.2551 24.1659 10.2397 24.1628 10.2255C24.1482 10.1602 24.1331 10.0948 24.1166 10.03C24.0004 9.56817 23.8628 9.11351 23.6979 8.66795C23.6748 8.60551 23.6513 8.54284 23.6279 8.4804C23.6228 8.46662 23.6164 8.45306 23.6111 8.43929C23.6013 8.4124 23.5844 8.3964 23.5555 8.3964C23.5057 8.3964 23.4559 8.39551 23.4062 8.39551C16.1499 8.39551 8.89372 8.39551 1.6375 8.39551C1.6055 8.39551 1.5735 8.39551 1.5415 8.39551C1.52727 8.39551 1.51305 8.39573 1.49883 8.3964C1.49172 8.39662 1.48483 8.39817 1.47772 8.39929C1.46616 8.40084 1.45794 8.40906 1.45305 8.4184C1.43083 8.46106 1.41594 8.50706 1.39905 8.55195C1.24483 8.96551 1.11261 9.38684 1.0015 9.81551C0.965051 9.95573 0.929718 10.0964 0.900384 10.2386C0.898162 10.2493 0.896829 10.2606 0.896606 10.2715C0.896606 10.2804 0.901273 10.2868 0.90794 10.2895Z" fill="url(#paint2_linear_591_4260)"/>
<path d="M24.1429 15.7931C24.1291 15.79 24.1149 15.788 24.1007 15.7878C24.0544 15.7871 24.0082 15.7871 23.962 15.7871C20.1569 15.7871 16.3515 15.7871 12.5464 15.7871C8.74132 15.7871 4.93598 15.7871 1.13087 15.7871C1.0882 15.7871 1.04554 15.7869 1.00287 15.7878C0.988871 15.788 0.974649 15.7907 0.960649 15.7922C0.947316 15.7938 0.934205 15.8111 0.936871 15.8231C0.943983 15.8556 0.950427 15.8885 0.958427 15.9207C1.02754 16.1974 1.10376 16.4718 1.18998 16.7431C1.27509 17.0109 1.36932 17.2756 1.47109 17.5367C1.48443 17.5711 1.49909 17.6049 1.51465 17.6382C1.52087 17.6516 1.53243 17.6618 1.5482 17.6622C1.59798 17.6631 1.64754 17.664 1.69732 17.664C8.93465 17.664 16.172 17.664 23.4093 17.664C23.4484 17.664 23.4875 17.6642 23.5266 17.6638C23.5409 17.6636 23.5549 17.6622 23.5691 17.6614C23.5811 17.6607 23.588 17.652 23.5942 17.6436C23.6113 17.6194 23.6195 17.5905 23.6302 17.5631C23.7691 17.2131 23.8893 16.8558 23.9935 16.4931C24.0527 16.2869 24.1073 16.0794 24.156 15.87C24.1593 15.8556 24.162 15.8409 24.1635 15.8265C24.1642 15.8196 24.1635 15.8107 24.16 15.8051C24.1569 15.7991 24.1493 15.7947 24.1429 15.7931Z" fill="url(#paint3_linear_591_4260)"/>
<path d="M22.5369 19.479C22.4942 19.4734 22.4516 19.4763 22.4087 19.4763C19.1191 19.4761 15.8296 19.4761 12.54 19.4761C9.25045 19.4761 5.9609 19.4761 2.67134 19.4761C2.63934 19.4761 2.60712 19.4761 2.57512 19.4761C2.5609 19.4761 2.54667 19.4766 2.53223 19.4768C2.50245 19.4774 2.49179 19.4937 2.50667 19.5181C2.52956 19.5561 2.5529 19.5939 2.5769 19.6312C2.95356 20.2172 3.37401 20.7657 3.83734 21.2777C3.85934 21.3021 3.88245 21.3259 3.90512 21.3497C3.91556 21.3608 3.92867 21.367 3.94334 21.3672C3.99334 21.3683 4.04312 21.369 4.0929 21.369C9.20734 21.369 14.3216 21.369 19.436 21.369C19.9636 21.369 20.4909 21.3694 21.0185 21.3688C21.1505 21.3686 21.1171 21.3823 21.212 21.2821C21.2196 21.2741 21.2267 21.2657 21.234 21.2577C21.6893 20.753 22.1022 20.2123 22.4733 19.6363C22.4973 19.599 22.5207 19.5612 22.5438 19.5234C22.5476 19.5174 22.5491 19.5097 22.552 19.5028C22.5553 19.495 22.5458 19.4801 22.5369 19.479Z" fill="url(#paint4_linear_591_4260)"/>
<path d="M2.4427 6.58002C2.48892 6.58691 2.53537 6.5838 2.58159 6.5838C5.89959 6.58402 9.21781 6.58402 12.5356 6.58402C15.8465 6.58402 19.1574 6.58402 22.4683 6.58402C22.5076 6.58402 22.5469 6.58402 22.5863 6.58357C22.5967 6.58335 22.6076 6.58113 22.618 6.58024C22.6271 6.57957 22.6345 6.56335 22.6296 6.5538C22.6209 6.53735 22.6134 6.52024 22.6031 6.50468C22.5269 6.38602 22.4518 6.26668 22.3738 6.14957C22.0545 5.67091 21.7047 5.21824 21.326 4.79046C21.3067 4.76846 21.286 4.74757 21.2658 4.72624C21.2554 4.71513 21.2418 4.71024 21.2271 4.71024C21.1807 4.71002 21.1343 4.70935 21.088 4.70935C15.3734 4.70935 9.65892 4.70935 3.94425 4.70935C3.91203 4.70935 3.87981 4.70935 3.84781 4.70957C3.83714 4.70957 3.82625 4.71024 3.81559 4.71068C3.80048 4.71113 3.78737 4.71802 3.77737 4.72891C3.74448 4.76357 3.71203 4.79868 3.6807 4.83446C3.22914 5.34668 2.82803 5.90002 2.46648 6.4858C2.4567 6.50157 2.44737 6.51757 2.43803 6.53402C2.43448 6.54046 2.43225 6.5478 2.42937 6.55446C2.42537 6.56268 2.43381 6.57868 2.4427 6.58002Z" fill="url(#paint5_linear_591_4260)"/>
<path d="M18.7617 23.1825C18.7215 23.182 18.6815 23.1809 18.6413 23.1809C16.5899 23.1809 14.5388 23.1809 12.4877 23.1809C10.4366 23.1809 8.38528 23.1809 6.33417 23.1809C6.29751 23.1809 6.26106 23.1811 6.22439 23.1814C6.20484 23.1816 6.19639 23.1862 6.19928 23.1947C6.20128 23.2011 6.20417 23.2076 6.21062 23.2118C6.22284 23.2198 6.23506 23.2278 6.24773 23.2351C7.00328 23.6816 7.79728 24.0429 8.62995 24.3187C9.00484 24.4427 9.38506 24.5482 9.77039 24.6349C9.97017 24.6798 10.1708 24.72 10.3722 24.756C10.4837 24.7758 10.5955 24.7936 10.7077 24.8091C10.7766 24.8187 10.8453 24.828 10.9142 24.8367C11.0046 24.8485 11.0953 24.8611 11.1862 24.8696C11.3026 24.88 11.4186 24.8958 11.5357 24.9C11.5504 24.9005 11.5648 24.9029 11.5795 24.9042C11.6342 24.9082 11.6888 24.9127 11.7437 24.9158C11.8093 24.9196 11.8753 24.9205 11.9408 24.9251C12.0137 24.9305 12.0871 24.9336 12.16 24.9349C12.3866 24.9396 12.6133 24.9396 12.8399 24.9345C12.8875 24.9334 12.9351 24.9316 12.9824 24.9291C13.0664 24.9249 13.1502 24.9194 13.2344 24.916C13.3662 24.9107 13.4966 24.8938 13.6282 24.8871C13.6317 24.8869 13.6355 24.8862 13.6391 24.8858C13.7406 24.8718 13.8428 24.8671 13.9444 24.8525C14.0277 24.8405 14.1115 24.834 14.1946 24.8214C14.3137 24.8029 14.4331 24.7858 14.552 24.7656C14.6888 24.7425 14.8257 24.7178 14.9615 24.6896C15.2515 24.6296 15.5391 24.56 15.8242 24.4798C16.658 24.2454 17.4571 23.9251 18.2233 23.5211C18.3948 23.4307 18.5637 23.3356 18.7308 23.2374C18.7435 23.23 18.7557 23.2222 18.768 23.2138C18.7744 23.2094 18.7766 23.2025 18.7764 23.1954C18.776 23.1862 18.7713 23.1827 18.7617 23.1825Z" fill="url(#paint6_linear_591_4260)"/>
<path d="M12.5564 5.0647C16.9627 5.0647 20.5349 8.63692 20.5349 13.0431C20.5349 17.4494 16.9627 21.0216 12.5564 21.0216C8.15022 21.0216 4.578 17.4494 4.578 13.0431C4.578 8.63692 8.15022 5.0647 12.5564 5.0647Z" fill="#002664" stroke="white" stroke-width="0.444444" stroke-miterlimit="10"/>
<path d="M17.3929 11.9395C17.3564 10.0148 14.7255 7.70618 14.7255 7.70618C14.7255 7.70618 15.7851 9.50018 15.9215 10.1853C14.7697 8.79951 12.6342 8.04107 12.6342 8.04107C12.6342 8.04107 14.9584 10.3195 15.15 10.746C13.3149 9.41195 9.84574 8.98507 9.84574 8.98507C9.84574 8.98507 13.7855 10.8222 14.1037 11.2486C11.2366 10.0308 8.25441 10.6453 8.25441 10.6453C8.25441 10.6453 12.1324 11.3653 12.8144 11.8677C10.1033 11.5197 7.19352 12.7162 7.19352 12.7162C7.19352 12.7162 11.2246 12.562 11.846 12.7446C9.50463 12.672 6.81463 14.6957 6.81463 14.6957C6.81463 14.6957 9.47886 13.9606 10.7973 13.7626C8.2213 14.8286 6.52686 17.0864 6.52686 17.0864C6.52686 17.0864 8.61974 15.6966 9.45308 15.4833C9.28641 15.9553 8.76708 16.934 9.49441 17.0864C10.0764 17.2082 11.5329 16.8224 11.8462 16.7208C11.9371 16.9493 12.0353 17.0864 12.5735 17.0864C13.0433 17.0864 13.4777 16.8833 13.6495 16.7208C13.8162 16.9493 14.054 17.0864 14.392 17.0864C14.8011 17.0864 15.0033 16.9951 15.1497 16.8733C15.2862 16.9951 15.4226 17.0575 15.8317 17.0295C16.5137 16.9828 16.544 16.188 16.6046 15.5028C16.6653 14.8177 17.3473 14.0411 18.1353 13.6451C18.9233 13.2491 18.9233 12.5335 18.4384 12.7162C17.802 12.8684 18.6506 13.2035 17.802 13.5688C16.3622 14.3606 15.7864 15.244 15.4682 16.0357C15.15 16.8275 14.1951 16.5382 14.1951 16.3708C14.1951 16.2033 14.7104 15.4724 14.1951 15.3657C13.638 15.2504 12.9826 15.7464 11.9975 16.1424C11.4215 16.374 10.0349 16.7515 10.1031 16.4775C10.6071 14.4522 12.9371 13.8888 14.3011 13.4168C13.3766 13.2493 11.6793 13.4168 11.6793 13.4168C11.6793 13.4168 13.5973 12.8733 14.4306 12.8733C13.4911 12.5077 12.1409 12.2353 12.1409 12.2353C12.1409 12.2353 14.1973 12.3862 14.854 12.4673C14.3537 12.1171 12.8142 11.3073 12.8142 11.3073C12.8142 11.3073 15.0126 11.9095 15.3157 12.0617C15.2189 11.7206 13.8917 10.476 13.8917 10.476C13.8917 10.476 15.7104 11.5484 15.9982 11.8682C15.9375 11.4266 15.1495 10.0313 15.1495 10.0313C15.1495 10.0313 16.4475 11.3297 16.7204 11.7715C16.7811 11.2691 16.374 9.91529 16.374 9.91529C16.374 9.91529 17.0746 11.3457 17.3929 11.9395Z" fill="white"/>
<path d="M12.4869 24.9978C19.1144 24.9978 24.4869 19.6252 24.4869 12.9978C24.4869 6.37039 19.1144 0.997803 12.4869 0.997803C5.85952 0.997803 0.486938 6.37039 0.486938 12.9978C0.486938 19.6252 5.85952 24.9978 12.4869 24.9978Z" stroke="#002664" stroke-width="0.444444" stroke-miterlimit="10"/>
<defs>
<linearGradient id="paint0_linear_591_4260" x1="4.94357" y1="1.78118" x2="22.0384" y2="2.45597" gradientUnits="userSpaceOnUse">
<stop stop-color="#BF092E"/>
<stop offset="1" stop-color="#BF092E"/>
</linearGradient>
<linearGradient id="paint1_linear_591_4260" x1="0.522443" y1="12.5684" x2="24.501" y2="13.5149" gradientUnits="userSpaceOnUse">
<stop stop-color="#BF092E"/>
<stop offset="1" stop-color="#BF092E"/>
</linearGradient>
<linearGradient id="paint2_linear_591_4260" x1="0.950711" y1="8.90012" x2="24.1838" y2="9.81722" gradientUnits="userSpaceOnUse">
<stop stop-color="#BF092E"/>
<stop offset="1" stop-color="#BF092E"/>
</linearGradient>
<linearGradient id="paint3_linear_591_4260" x1="0.919331" y1="16.2551" x2="24.1106" y2="17.1705" gradientUnits="userSpaceOnUse">
<stop stop-color="#BF092E"/>
<stop offset="1" stop-color="#BF092E"/>
</linearGradient>
<linearGradient id="paint4_linear_591_4260" x1="2.48027" y1="19.9976" x2="22.5018" y2="20.788" gradientUnits="userSpaceOnUse">
<stop stop-color="#BF092E"/>
<stop offset="1" stop-color="#BF092E"/>
</linearGradient>
<linearGradient id="paint5_linear_591_4260" x1="2.42834" y1="5.64692" x2="22.6311" y2="5.64692" gradientUnits="userSpaceOnUse">
<stop stop-color="#BF092E"/>
<stop offset="1" stop-color="#BF092E"/>
</linearGradient>
<linearGradient id="paint6_linear_591_4260" x1="6.17894" y1="23.6928" x2="18.7373" y2="24.1885" gradientUnits="userSpaceOnUse">
<stop stop-color="#BF092E"/>
<stop offset="1" stop-color="#BF092E"/>
</linearGradient>
</defs>
</svg>
