<?xml version="1.0" encoding="UTF-8"?>
<svg id="Layer_3" xmlns="http://www.w3.org/2000/svg" xmlns:xlink="http://www.w3.org/1999/xlink" viewBox="-25 -25 350 350">
  <defs>
    <linearGradient id="linear-gradient" x1="0" y1="150" x2="300" y2="150" gradientUnits="userSpaceOnUse">
      <stop offset="0" stop-color="#ff00b4"/>
      <stop offset="1" stop-color="#00cbf4"/>
    </linearGradient>
  </defs>
  <path style="fill: url(#linear-gradient); fill-rule: evenodd;" d="M226.45,21.04c-6.42-.69-12.94-1.04-19.54-1.04C106.52,20,24.85,101.67,24.85,202.05c0,12.3,1.23,24.32,3.57,35.94C10.54,213.3,0,182.94,0,150.13,0,67.29,67.16.13,150,.13c27.92,0,54.06,7.63,76.45,20.91ZM245.35,34.33c-12.37-2.83-25.23-4.33-38.44-4.33-94.87,0-172.06,77.18-172.06,172.05,0,18.71,3,36.73,8.55,53.61,10.24,10.34,21.98,19.2,34.86,26.24-5.2-16.55-8-34.14-8-52.38,0-96.57,78.57-175.14,175.15-175.14,7.14,0,14.18.43,21.09,1.26-6.32-7.78-13.41-14.93-21.15-21.31ZM290.66,97.91c-2.46-6.63-5.38-13.03-8.72-19.18-11.72-2.84-23.95-4.35-36.53-4.35-85.55,0-155.15,69.6-155.15,155.14,0,22.56,4.84,44.01,13.54,63.36,11.84,3.83,24.32,6.23,37.25,6.99-3.94-13.81-6.05-28.39-6.05-43.46,0-86.46,69.57-156.97,155.66-158.5ZM298.37,127.97c-1.61-.06-3.22-.09-4.84-.09-70.87,0-128.53,57.66-128.53,128.53,0,14.74,2.49,28.9,7.08,42.1,72.37-10.67,127.92-73.04,127.92-148.38,0-7.53-.55-14.93-1.63-22.16Z"/>
</svg>