<svg
  width="500"
  height="500"
  viewBox="0 0 40 40"
  fill="none"
  xmlns="http://www.w3.org/2000/svg"
>
  <rect width="40" height="40" rx="0" fill="url(#paint0_radial_8038_4610)"/>
  <rect width="40" height="40" rx="0" fill="url(#paint1_radial_8038_4610)"/>
  <path fill-rule="evenodd" clip-rule="evenodd" d="M14.0055 10.5804C13.8432 10.6216 13.8513 10.4979 13.8573 12.8457L13.8626 14.9197L13.9007 14.9578C13.9216 14.9787 13.9736 15.0026 14.0162 15.0108C14.1687 15.0403 25.9135 15.0308 25.9707 15.0012C26.0627 14.9537 26.0606 15.0047 26.0606 12.7707V10.6792L26.0177 10.6329C25.9542 10.5645 25.9846 10.5659 24.7013 10.5713L23.5108 10.5763L23.4539 10.619C23.3702 10.6819 23.3704 10.6804 23.3695 11.1747C23.3686 11.6914 23.3729 11.6745 23.2151 11.788L23.1363 11.8447L22.408 11.8481C21.3819 11.8529 21.4182 11.8778 21.4328 11.1797C21.443 10.6946 21.4367 10.6655 21.3092 10.6038C21.2049 10.5533 18.6648 10.5461 18.5886 10.596C18.5169 10.6429 18.5062 10.7288 18.5109 11.2224C18.5154 11.6944 18.5066 11.765 18.4363 11.8229C18.4184 11.8376 18.1779 11.845 17.5909 11.8492C16.6695 11.8555 16.7525 11.8671 16.6492 11.7179L16.5989 11.6454L16.5978 11.1997C16.5965 10.6903 16.5998 10.7031 16.4508 10.6237L16.3452 10.5674L15.1927 10.5695C14.5589 10.5706 14.0246 10.5755 14.0055 10.5804ZM15.5792 18.5587C15.5096 18.6162 15.5054 18.7218 15.5103 20.2672C15.5149 21.7104 15.5159 21.7473 15.5497 21.772C15.5795 21.7937 16.1972 21.7966 19.9713 21.7927L24.3582 21.7882L24.401 21.7349L24.4437 21.6816L24.4432 20.269C24.4427 18.7556 24.4374 18.6557 24.3545 18.5727C24.3015 18.5198 15.6431 18.5059 15.5792 18.5587ZM13.7471 25.3459C13.7227 25.3502 13.6571 25.3739 13.6015 25.3986C13.4337 25.4732 13.445 25.3284 13.445 27.3953C13.445 29.464 13.4213 29.2445 13.6494 29.287C13.8458 29.3236 26.3645 29.3184 26.4287 29.2817C26.5062 29.2374 26.507 29.2151 26.5014 27.323C26.4953 25.3089 26.502 25.413 26.3751 25.36C26.3178 25.336 13.8838 25.3222 13.7471 25.3459Z" fill="white"/>
  <defs>
    <radialGradient id="paint0_radial_8038_4610" cx="0" cy="0" r="1" gradientUnits="userSpaceOnUse" gradientTransform="translate(17.25 -3.625) rotate(82.1998) scale(46.0511)">
      <stop stop-color="#D9326F"/>
      <stop offset="1" stop-color="#3A34DD"/>
    </radialGradient>
    <radialGradient id="paint1_radial_8038_4610" cx="0" cy="0" r="1" gradientUnits="userSpaceOnUse" gradientTransform="translate(19.9277 -20.0719) rotate(87.0723) scale(60.1504)">
      <stop stop-color="#FF5558"/>
      <stop offset="1" stop-color="#623FFC"/>
    </radialGradient>
  </defs>
</svg>
