<svg width="500" height="500" viewBox="0 0 25 26" fill="none" xmlns="http://www.w3.org/2000/svg">
<g id="Spiko Token">
<path id="Vector" d="M12.5 1C19.1273 1 24.5 6.37267 24.5 13C24.5 19.6273 19.1273 25 12.5 25C5.87267 25 0.5 19.6273 0.5 13C0.5 6.37267 5.87267 1 12.5 1Z" fill="#003399" stroke="#FFCC00" stroke-width="0.444444" stroke-miterlimit="10"/>
<path id="Vector_2" d="M17.2438 11.8942C17.2074 9.96956 14.5765 7.66089 14.5765 7.66089C14.5765 7.66089 15.636 9.45489 15.7725 10.14C14.6207 8.75422 12.4851 7.99578 12.4851 7.99578C12.4851 7.99578 14.8094 10.2742 15.0009 10.7007C13.1658 9.36667 9.6967 8.93978 9.6967 8.93978C9.6967 8.93978 13.6365 10.7769 13.9547 11.2033C11.0876 9.98556 8.10536 10.6 8.10536 10.6C8.10536 10.6 11.9834 11.32 12.6654 11.8224C9.95425 11.4744 7.04447 12.6709 7.04447 12.6709C7.04447 12.6709 11.0756 12.5167 11.6969 12.6993C9.35559 12.6267 6.66559 14.6504 6.66559 14.6504C6.66559 14.6504 9.32981 13.9153 10.6483 13.7173C8.07225 14.7833 6.37781 17.0411 6.37781 17.0411C6.37781 17.0411 8.4707 15.6513 9.30403 15.438C9.13736 15.91 8.61803 16.8887 9.34536 17.0411C9.92736 17.1629 11.3838 16.7771 11.6971 16.6756C11.788 16.904 11.8863 17.0411 12.4245 17.0411C12.8943 17.0411 13.3287 16.838 13.5005 16.6756C13.6671 16.904 13.9049 17.0411 14.2429 17.0411C14.652 17.0411 14.8543 16.9498 15.0007 16.828C15.1371 16.9498 15.2736 17.0122 15.6827 16.9842C16.3647 16.9376 16.3949 16.1427 16.4556 15.4576C16.5163 14.7724 17.1983 13.9958 17.9863 13.5998C18.7743 13.2038 18.7743 12.4882 18.2894 12.6709C17.6529 12.8231 18.5016 13.1582 17.6529 13.5236C16.2131 14.3153 15.6374 15.1987 15.3191 15.9904C15.0009 16.7822 14.046 16.4929 14.046 16.3256C14.046 16.158 14.5614 15.4271 14.046 15.3204C13.4889 15.2051 12.8336 15.7011 11.8485 16.0971C11.2725 16.3287 9.88581 16.7062 9.95403 16.4322C10.458 14.4069 12.788 13.8436 14.152 13.3716C13.2276 13.204 11.5303 13.3716 11.5303 13.3716C11.5303 13.3716 13.4483 12.828 14.2816 12.828C13.342 12.4624 11.9918 12.19 11.9918 12.19C11.9918 12.19 14.0483 12.3409 14.7049 12.422C14.2047 12.0718 12.6651 11.262 12.6651 11.262C12.6651 11.262 14.8636 11.8642 15.1667 12.0164C15.0698 11.6753 13.7427 10.4307 13.7427 10.4307C13.7427 10.4307 15.5614 11.5031 15.8491 11.8229C15.7885 11.3813 15.0005 9.986 15.0005 9.986C15.0005 9.986 16.2985 11.2844 16.5714 11.7262C16.632 11.2238 16.2249 9.87 16.2249 9.87C16.2249 9.87 16.9256 11.3004 17.2438 11.8942Z" fill="#FFCC00" stroke="#1A4BC6" stroke-width="0.0111111"/>
<path id="path8347" d="M12.524 2.46973L12.8742 3.54817L13.9904 3.54684L13.0842 4.21684L13.4304 5.28973L12.5202 4.62528L11.618 5.28973L11.9618 4.20928L11.058 3.54706L12.1807 3.54373L12.524 2.46973Z" fill="#FFCC00" stroke="#1A4BC6" stroke-width="0.0111111"/>
<path id="path8347_00000047739948534360255710000008031035743862640303_" d="M17.0711 3.6687L17.4213 4.74715L18.5375 4.74581L17.6313 5.41581L17.9775 6.4887L17.0673 5.82426L16.1651 6.4887L16.5089 5.40826L15.6051 4.74603L16.7278 4.7427L17.0711 3.6687Z" fill="#FFCC00"/>
<path id="path8347_00000000922268559110154960000014300531547063170984_" d="M20.4025 7.04663L20.7527 8.12508L21.8689 8.12374L20.9627 8.79374L21.3087 9.86663L20.3985 9.20219L19.4963 9.86663L19.8401 8.78619L18.9363 8.12396L20.0589 8.12063L20.4025 7.04663Z" fill="#FFCC00"/>
<path id="path8347_00000054253624629383963770000013922381965791653288_" d="M21.638 11.582L21.9882 12.6605L23.1044 12.6591L22.1982 13.3291L22.5444 14.402L21.6342 13.7376L20.732 14.402L21.0758 13.3216L20.172 12.6594L21.2947 12.656L21.638 11.582Z" fill="#FFCC00"/>
<path id="path8347_00000048459031960285523640000013556312090341529006_" d="M20.4164 16.1248L20.7667 17.2032L21.8829 17.2019L20.9767 17.8719L21.3229 18.9448L20.4127 18.2803L19.5104 18.9448L19.8542 17.8643L18.9504 17.2021L20.0731 17.1988L20.4164 16.1248Z" fill="#FFCC00"/>
<path id="path8347_00000070836531760217961500000015347745282496107190_" d="M17.0702 19.4536L17.4205 20.5321L18.5367 20.5307L17.6305 21.2007L17.9767 22.2736L17.0665 21.6092L16.1642 22.2736L16.508 21.1932L15.6042 20.5309L16.7269 20.5276L17.0702 19.4536Z" fill="#FFCC00"/>
<path id="path8347_00000026134899152323735960000015097508039353641120_" d="M12.524 20.6616L12.8742 21.7401L13.9904 21.7387L13.0842 22.4087L13.4304 23.4816L12.5202 22.8172L11.618 23.4816L11.9618 22.4012L11.058 21.739L12.1807 21.7356L12.524 20.6616Z" fill="#FFCC00"/>
<path id="path8347_00000131352402289254045090000017932094030974266002_" d="M7.97027 19.4363L8.32049 20.5147L9.43672 20.5134L8.53049 21.1834L8.87672 22.2563L7.96649 21.5918L7.06427 22.2563L7.40805 21.1758L6.50427 20.5136L7.62694 20.5103L7.97027 19.4363Z" fill="#FFCC00"/>
<path id="path8347_00000103246934361922054250000005521067583858246544_" d="M4.64129 16.1248L4.99152 17.2032L6.10774 17.2019L5.20152 17.8719L5.54774 18.9448L4.63752 18.2803L3.73529 18.9448L4.07907 17.8643L3.17529 17.2021L4.29796 17.1988L4.64129 16.1248Z" fill="#FFCC00"/>
<path id="path8347_00000169520033006964787340000017160208349462192012_" d="M3.41583 11.5875L3.76605 12.666L4.88227 12.6646L3.97605 13.3346L4.32227 14.4075L3.41205 13.7431L2.50983 14.4075L2.85361 13.3271L1.94983 12.6649L3.0725 12.6615L3.41583 11.5875Z" fill="#FFCC00"/>
<path id="path8347_00000135671873091462990040000012861659370794655642_" d="M4.63263 7.01575L4.98285 8.09419L6.09907 8.09286L5.19285 8.76286L5.53907 9.83575L4.62885 9.1713L3.72663 9.83575L4.0704 8.7553L3.16663 8.09308L4.28929 8.08975L4.63263 7.01575Z" fill="#FFCC00"/>
<path id="path8347_00000058590259283197673550000008576208483351679652_" d="M7.96161 3.6958L8.31183 4.77425L9.42805 4.77291L8.52183 5.44291L8.86805 6.5158L7.95783 5.85136L7.05561 6.5158L7.39938 5.43536L6.49561 4.77313L7.61827 4.7698L7.96161 3.6958Z" fill="#FFCC00"/>
</g>
</svg>
