<?xml version="1.0" encoding="UTF-8" standalone="no"?>
<svg
   width="512"
   height="512"
   viewBox="318.5 7 120 100"
   fill="none"
   version="1.1"
   id="svg5"
   xml:space="preserve"
   xmlns="http://www.w3.org/2000/svg"
   xmlns:svg="http://www.w3.org/2000/svg"><defs
     id="defs5" /><path
       d="m 410.286,48.4286 v -5.379 h -5.393 -5.404 v -5.3849 h -5.399 -5.398 -5.399 v 5.3849 5.379 h -5.392 -5.405 v -5.379 -5.3849 h -5.398 -5.399 -5.398 v 5.3849 h -5.399 -5.392 v 5.379 5.3848 h -5.405 v 5.3731 5.3849 5.379 5.3849 5.379 h 5.405 v 5.3849 5.3731 h 5.392 v 5.3848 h 5.399 5.398 v 5.3789 h 5.399 5.398 5.405 5.392 5.399 5.398 v -5.3789 h 5.399 5.404 v -5.3848 h 5.393 v -5.3731 -5.3849 h 5.398 v -5.379 -5.3849 -5.379 -5.3849 -5.3731 h -5.398 z"
       fill="#38ff9c"
       id="path1" /><path
       d="m 388.692,21.5277 v -5.379 h 21.594 v 10.7639 h -26.993 v -5.379 z m 10.797,-5.3848 h 5.398 v -5.379 h -16.201 v 5.379 h 10.797 z m -10.797,0 h -5.399 v 5.3789 h 5.399 z m -5.399,21.5218 v -5.379 h 21.6 v -5.379 h -21.6 v -5.379 h -10.791 v 16.1429 h 10.791 z"
       fill="#2a9660"
       id="path2" /></svg>
