<svg
  xmlns="http://www.w3.org/2000/svg"
  width="500"
  height="500"
  viewBox="0 0 40 40"
  fill="none"
>
  <!-- Background layers (perfectly aligned) -->
  <rect width="100%" height="100%" fill="url(#paint0_radial_8038_5832)"/>
  <rect width="100%" height="100%" fill="url(#paint1_radial_8038_5832)"/>
  <rect width="100%" height="100%" fill="url(#paint2_radial_8038_5832)"/>

  <!-- Foreground glyph -->
  <path
    fill-rule="evenodd"
    clip-rule="evenodd"
    d="M14.1532 10.6373C14.0154 10.66 13.9074 10.761 13.8714 10.9009C13.8335 11.0486 13.834 13.4661 13.872 13.5968C13.9018 13.6995 13.9651 13.7696 14.0808 13.8282L14.1606 13.8687H17.9466L21.7326 13.8687L21.8271 13.8236C21.9415 13.7692 21.962 13.747 22.0146 13.621L22.0556 13.523V12.2454C22.0556 10.8486 22.0618 10.9578 21.9721 10.7805C21.9469 10.7307 21.8071 10.646 21.7289 10.6331C21.6491 10.6199 14.2341 10.624 14.1532 10.6373ZM14.1041 18.5348C13.9982 18.5587 13.9051 18.6525 13.8731 18.7674C13.8287 18.9273 13.8328 29.2086 13.8774 29.3553C13.9126 29.471 13.9479 29.514 14.0609 29.5786L14.1419 29.625H20.8503H27.5587L27.6157 29.591C27.8381 29.4583 27.8265 29.5486 27.8233 27.9641C27.8203 26.4407 27.835 26.5549 27.6255 26.4329L27.5467 26.3871L22.3189 26.3792C17.695 26.3722 17.0895 26.3686 17.0763 26.3477C17.0669 26.333 17.0627 25.4716 17.065 24.0647L17.0687 21.8054L17.1132 21.7722L17.1577 21.739L20.9348 21.7311C24.4201 21.7238 24.7149 21.7212 24.7507 21.6971C24.8425 21.635 24.8886 21.5766 24.9135 21.491C24.9555 21.3464 24.9519 18.8742 24.9094 18.7509C24.8787 18.6616 24.806 18.5747 24.7355 18.543C24.6838 18.5198 14.2067 18.5117 14.1041 18.5348Z"
    fill="#F9F9F9"
    stroke="white"
    stroke-width="0.5"
  />

  <defs>
    <radialGradient
      id="paint0_radial_8038_5832"
      cx="0"
      cy="0"
      r="1"
      gradientUnits="userSpaceOnUse"
      gradientTransform="translate(17.75 -3.625) rotate(82.1998) scale(46.0511)"
    >
      <stop stop-color="#D9326F"/>
      <stop offset="1" stop-color="#3A34DD"/>
    </radialGradient>

    <radialGradient
      id="paint1_radial_8038_5832"
      cx="0"
      cy="0"
      r="1"
      gradientUnits="userSpaceOnUse"
      gradientTransform="translate(20 -15.25) rotate(86.892) scale(55.3314)"
    >
      <stop stop-color="#FE4D8B"/>
      <stop offset="1" stop-color="#483FFC"/>
    </radialGradient>

    <radialGradient
      id="paint2_radial_8038_5832"
      cx="0"
      cy="0"
      r="1"
      gradientUnits="userSpaceOnUse"
      gradientTransform="translate(20 0) rotate(90) scale(26)"
    >
      <stop stop-color="#628CBF"/>
      <stop offset="1" stop-color="#1D507D"/>
    </radialGradient>
  </defs>
</svg>
