<?xml version="1.0" encoding="UTF-8"?>
<svg id="Capa_1" xmlns="http://www.w3.org/2000/svg" version="1.1" viewBox="0 0 256 256">
  <!-- Generator: Adobe Illustrator 30.3.0, SVG Export Plug-In . SVG Version: 2.1.3 Build 182)  -->
  <defs>
    <style>
      .st0 {
        fill: #2775ca;
      }

      .st1 {
        fill: #fff;
      }
    </style>
  </defs>
  <rect class="st0" width="256" height="256"/>
  <g>
    <path class="st1" d="M151.8,55.8c-.2,0-.4-.1-.7-.1-1.1-.1-1.9.3-2.4.5-.3.2-.8.7-1,1.6-.1.4-.1.8-.1,1v5.9c0,2.2.9,3.4,2.6,4.3,17.3,6.3,31.2,19.9,37.6,37.6,12.2,32.4-4.6,69.2-37.6,81-.7.2-1.1.5-1.3.8-.1.2-.5.6-.5.6-.7,1.1-.7,2.1-.6,4.9.2,5.3.4,5.9,1,6.3.4.3,1.2.7,3,.2,23.6-7.6,41.7-25.7,49.3-49.3,1.2-3.8,3.5-12.1,3.5-22.8,0-7.5-1.1-22.9-10.2-38.5-13.7-23.5-36.2-31.9-42.5-34Z"/>
    <path class="st1" d="M153.7,151.4c1.3-3,1.7-6,1.7-8.3,0-14.7-8.9-19.9-26.6-21.9-12.7-1.7-15.2-5-15.2-11s4.3-9.7,12.7-9.7,11.8,2.6,13.9,8.9c.4,1.3,1.7,2.1,3,2.1h6.7c1.7,0,3-1.3,3-3v-.4c-1.7-9.3-9.3-16.3-18.9-17.3v-11.1c0-1.4-1.2-2.6-2.6-2.6h-8.2c-.6,0-1.1.2-1.5.5,0,0-.2.2-.3.3-.5.5-.8,1.1-.8,1.8v10.7c-12.6,1.8-20.5,10.1-20.5,20.7s8.4,19.4,26.2,21.6c11.8,2.1,15.6,4.6,15.6,11.4s-5.9,11.4-13.9,11.4-14.7-4.6-16-11c-.4-1.7-1.7-2.6-3-2.6h-7.2c-1.7,0-3,1.3-3,3v.4c1.7,10.5,8.3,18,22.1,20.3v11.5c0,1.1.9,2,2,2h9.4c1.1,0,2-.9,2-2v-11.5c2.2-.5,14.7-3.3,19.3-14.1h.1Z"/>
    <path class="st1" d="M106,187.4c-32.9-11.8-49.7-48.5-37.6-81,6.3-17.7,20.3-31.2,37.6-37.6,1.7-.9,2.6-2.1,2.6-4.3v-5.9c0-.5,0-1.5-.8-2.4-.2-.2-.4-.4-.6-.5-.3,0-.7-.3-1.2-.3s-1.3,0-1.6.2c-40,12.7-62,55.3-49.3,95.3,7.6,23.6,25.7,41.7,49.3,49.3,1.8.5,2.6,0,3-.2.6-.4.8-1,1-6.3,0-3.1,0-3.9-.6-4.9-.6-.8-1.3-1.2-1.8-1.4h0Z"/>
  </g>
</svg>