<?xml version="1.0" encoding="UTF-8"?>
<svg id="Capa_1" xmlns="http://www.w3.org/2000/svg" version="1.1" viewBox="0 0 256 256">
  <!-- Generator: Adobe Illustrator 30.3.0, SVG Export Plug-In . SVG Version: 2.1.3 Build 182)  -->
  <defs>
    <style>
      .st0 {
        fill: #3d91e7;
      }

      .st1 {
        fill: #fff;
      }

      .st2 {
        fill: #7ab3ed;
      }

      .st3 {
        fill: #6aaaeb;
      }
    </style>
  </defs>
  <rect width="256" height="256"/>
  <path class="st1" d="M180.4,101.7c-1.4-6.3-4.2-12.2-8-17.4-4.6-6.1-11-10.6-18.4-12.8-3.2-1-6.5-1.6-9.9-1.8-4.5-.3-8.9-.5-13.4-.5h-13.8c0,.1-11.8.3-11.8.3-2.7,0-5,1.7-6.2,4-.6,1.2-.8,2.3-1.1,3.6l-2.1,13.8c0,.6-.6,1-1.2,1h-9.7c-1.1,0-2,.1-3,.5-2.1.8-3.4,2.6-3.6,4.9-.1,2.3,1.1,4.4,3.2,5.4.8.4,1.7.6,2.6.6h8.6c.3,0,.6.1.8.3.1.2.2.5.2.8l-1.5,9.4c-.1.7-.7,1.2-1.4,1.2h-10.4c-.8,0-1.4.2-2.1.4-2.3.8-3.7,3-3.6,5.4.1,3.4,2.8,5.3,6.2,5.3h8.3c.3,0,.6.1.7.3.2.2.2.5.2.9l-5.4,34.3-2.4,15.5c-.6,3.7.7,7.3,4.2,8.8,1.5.7,3,.9,4.6.9h24.9c3.2,0,6.1-1.8,7.3-4.8.5-1.1.8-2.2,1-3.4l2.3-14.9,2.2-13.8c0-.6.6-1,1.2-1h6.1s5.8,0,5.8,0c10.1-.3,19.1-3.6,26.4-10.6,2.3-2.3,4.4-4.8,6.2-7.5,5.8-8.7,8.2-18.7,5.9-29.1ZM103.6,113.9c.6-3.1,1.1-6.1,1.4-9.3,0-.7.5-1.3,1.3-1.3l34.2.2c1.7,0,3.4.7,4.5,2,1.6,2,1.8,4.9.4,7.1-1.1,1.6-2.7,2.4-4.7,2.5h-36c-.4,0-.7-.1-.9-.3-.2-.2-.3-.6-.3-.9ZM160.7,129.7c-3,2.7-6.5,4.9-10.4,6.2-3.3,1.1-6.7,1.6-10.2,1.6h-14.1c-3.8,0-7,2.8-7.6,6.5l-4.9,30.2c-.1.7-.6,1.2-1.4,1.2h-16.7c-.3,0-.7-.2-.9-.3-.2-.2-.3-.6-.3-.9l7.2-46.7c.1-.7.6-1.2,1.3-1.2h13.4s24.1,0,24.1,0c9.2,0,16.8-6.9,17.3-16.1.3-5.2-1.7-10.1-5.6-13.5-3-2.7-6.9-4.4-11.1-4.4h-32.5c-.4-.1-.7-.3-.8-.5-.2-.2-.3-.6-.3-.9.6-2.9.9-5.7,1.3-8.5,0-.8.6-1.4,1.5-1.4h14.5s17.9,0,17.9,0c3.8,0,7.4,1,10.8,2.6,2.9,1.4,5.5,3.2,7.8,5.4,4.6,4.4,7.4,10.1,8.3,16.4,1.2,9.1-2,18.2-8.9,24.5Z"/>
  <path class="st3" d="M-283.7,144.3h-.1v-1.1c0,0,.1,0,.1.2v.9Z"/>
  <path class="st0" d="M-283.8,137.5v-.8c0,0,0,0,.1,0,0,.3,0,.6-.1.8Z"/>
  <polygon class="st2" points="-283.7 136.7 -283.8 136.7 -283.8 136 -283.7 136 -283.7 136.7"/>
</svg>