<?xml version="1.0" encoding="UTF-8"?>
<svg id="Capa_1" xmlns="http://www.w3.org/2000/svg" version="1.1" viewBox="0 0 256 256">
  <!-- Generator: Adobe Illustrator 30.3.0, SVG Export Plug-In . SVG Version: 2.1.3 Build 182)  -->
  <defs>
    <style>
      .st0 {
        isolation: isolate;
      }

      .st0, .st1 {
        fill: #546deb;
      }

      .st2 {
        fill: #ededee;
      }

      .st3 {
        fill: #fefefe;
      }
    </style>
  </defs>
  <g>
    <rect class="st0" width="256" height="256"/>
    <path class="st1" d="M107.7,145.2v45.5s-26.4,0-26.4,0v-74.6s22.6,0,22.6,0v14.8c0,0,43.5-26.5,43.5-26.5l-5.5-3.3-38-23.7v13.7c-.5.3-1.1.2-1.7,0h-21s0-25.3,0-25.3h38.9c14.4.2,30.3,3.1,41,13,6.8,6.3,10.5,14.8,10.4,24,0,.6.4,1.3,0,1.9.3,10.6-4.4,20.4-12.7,27-4.7,3.8-10,6.4-16,8.6l42.1,50.4h-32.7c0,.1-36.1-45.4-36.1-45.4h-8.3Z"/>
  </g>
  <g>
    <path class="st1" d="M134.9,47.2c0,.3.3.3.5.3,38.7,3.5,69.5,34.3,73,73,0,.2,0,.5.3.5v14.2c-.1,0-.3,0-.3.2-3.5,38.7-34.3,69.5-73,73-.2,0-.5,0-.5.3h-14.2c0-.1,0-.3-.2-.3-38.7-3.5-69.5-34.3-73-73,0-.1-.1-.2-.3-.2l.2-14.3c3.5-39.2,34.6-70.2,73.8-73.5l13.7-.2ZM201.9,128c0-40.8-33.1-73.9-73.9-73.9S54.1,87.2,54.1,128s33.1,73.9,73.9,73.9,73.9-33.1,73.9-73.9Z"/>
    <g>
      <path class="st3" d="M201.9,128c0,40.8-33.1,73.9-73.9,73.9s-73.9-33.1-73.9-73.9S87.2,54.1,128,54.1s73.9,33.1,73.9,73.9ZM197.3,128c0-38.3-31-69.3-69.3-69.3s-69.3,31-69.3,69.3,31,69.3,69.3,69.3,69.3-31,69.3-69.3Z"/>
      <path class="st1" d="M197.3,128c0,38.3-31,69.3-69.3,69.3s-69.3-31-69.3-69.3,31-69.3,69.3-69.3,69.3,31,69.3,69.3ZM99.1,116.5h27.3s29-29,29-29c4.4,0,7.5-3.6,7-7.9-.4-3.9-4.1-6.7-8.1-5.9s-6.5,4.5-5.5,8.7l-25.8,25.8h-23.2c-2.3-3.6-7-4.3-10.1-1.8s-3.5,7.1-.8,10,7.2,3.1,10.2,0ZM172.6,155.3l-29.1-29.1c.2-1.2,0-2.1-.1-3.3l9.4-9.4c4.4.6,7.9-2.8,7.9-6.9s-3.4-7.2-7.4-6.9-7,3.8-6.4,8l-10.3,10.3c-4.1.1-7,3.5-6.8,7.3.2,4,3.6,6.9,7.7,6.6l29.5,29.5c-.4,4.4,2.8,7.8,7,7.8s7.3-3.6,6.8-7.8c-.5-3.8-4-6.5-8.1-6ZM104.8,134.6h12.6s23.7,23.8,23.7,23.8c-.7,4.2,2.3,8,6.5,8.2s7.4-3.1,7.3-7.2-3.5-7-7.8-6.7l-26.5-26.5h-21.3s-9.9,9.9-9.9,9.9h-9.4c-2.6-3.4-7.4-3.7-10.3-.9s-2.8,7.6.2,10.2,7.7,2.4,10.2-1.1h14.9s9.7-9.8,9.7-9.8Z"/>
      <g>
        <path class="st2" d="M104.8,134.6l-9.7,9.8h-14.9c-2.5,3.5-7.2,3.7-10.2,1.1s-3.1-7.4-.2-10.2,7.8-2.6,10.3.8h9.4s9.9-9.9,9.9-9.9h21.3s26.5,26.5,26.5,26.5c4.3-.3,7.6,2.7,7.8,6.7s-3.3,7.4-7.3,7.2-7.2-4-6.5-8.2l-23.7-23.7h-12.6Z"/>
        <path class="st2" d="M172.6,155.3c4.2-.5,7.7,2.2,8.1,6,.5,4.2-2.8,7.8-6.8,7.8s-7.4-3.4-7-7.8l-29.5-29.5c-4.1.3-7.5-2.6-7.7-6.6-.2-3.8,2.7-7.2,6.8-7.3l10.3-10.3c-.6-4.2,2.4-7.7,6.4-8s7.4,2.9,7.4,6.9-3.5,7.4-7.9,6.9l-9.4,9.4c.2,1.2.3,2,.1,3.3l29.1,29.1Z"/>
        <path class="st2" d="M99.1,116.5c-3.1,3.1-7.6,2.9-10.2,0s-2.3-7.6.8-10,7.8-1.9,10.1,1.7h23.2s25.8-25.8,25.8-25.8c-1.1-4.2,1.6-8,5.5-8.7s7.7,2.1,8.1,5.9c.5,4.3-2.7,7.8-7,7.9l-29,29h-27.3Z"/>
      </g>
    </g>
  </g>
</svg>