<?xml version="1.0" encoding="UTF-8"?>
<svg id="Capa_1" xmlns="http://www.w3.org/2000/svg" version="1.1" viewBox="0 0 256 256">
  <!-- Generator: Adobe Illustrator 30.3.0, SVG Export Plug-In . SVG Version: 2.1.3 Build 182)  -->
  <defs>
    <style>
      .st0 {
        fill: #fff;
      }

      .st1 {
        fill: #0b53bf;
      }
    </style>
  </defs>
  <path class="st1" d="M0,0h256v256H0V0Z"/>
  <g>
    <path class="st0" d="M64,128c0-29,19.3-53.4,45.6-61.4v-13.2c-33.5,8.2-58.4,38.5-58.4,74.6s24.8,66.4,58.4,74.6v-13.2c-26.3-7.9-45.6-32.4-45.6-61.4Z"/>
    <path class="st0" d="M146.4,53.4v13.2c26.3,7.9,45.6,32.4,45.6,61.4s-19.3,53.4-45.6,61.4v13.2c33.5-8.2,58.4-38.5,58.4-74.6s-24.8-66.4-58.4-74.6Z"/>
  </g>
  <path class="st0" d="M149.7,152.2c-4.4,1.8-9.3,2.8-13.9,2.8-9.2,0-17.8-3.9-22-13.3h20.2l3.9-9.5h-26.5c0-1.3-.2-2.7-.2-4.1s0-2.8.2-4.1h29.8l3.9-9.5h-31.4c4.1-9.4,12.8-13.3,22-13.3s9.5,1,13.9,2.8l4.1-9.6c-5.5-2.9-11.6-4.3-17.8-4.3-14.9,0-29.9,8.3-35.3,24.4h-9.7v9.5h7.8c0,1.3-.2,2.7-.2,4.1s0,2.8.2,4.1h-7.8v9.5h9.7c1.3,3.8,3.9,9.9,9.6,15.1,10,9.1,22.2,9.3,25.7,9.3,5.4,0,9.9-1.2,10.5-1.3,3.1-.9,5.6-2,7.3-3l-4-9.6Z"/>
</svg>