<?xml version="1.0" encoding="UTF-8"?>
<svg id="Capa_1" xmlns="http://www.w3.org/2000/svg" version="1.1" viewBox="0 0 256 256">
  <!-- Generator: Adobe Illustrator 30.3.0, SVG Export Plug-In . SVG Version: 2.1.3 Build 182)  -->
  <defs>
    <style>
      .st0 {
        fill: #fff;
        fill-rule: evenodd;
      }

      .st1 {
        fill: #122a5f;
      }
    </style>
  </defs>
  <path class="st1" d="M0,0h256v256H0V0Z"/>
  <path class="st0" d="M178.8,128c0-28.1-22.7-50.8-50.8-50.8v-18.5c4.8,0,9.4.5,14,1.4,31.6,6.5,55.3,34.4,55.3,67.9s-31,69.3-69.3,69.3-55.8-19.3-65.3-46.2h20.1c8.4,16.4,25.5,27.7,45.3,27.7,28.1,0,50.8-22.7,50.8-50.8ZM66.7,95.7c11.6,22,34.7,36.9,61.3,36.9v-18.5c-22.8,0-42-15-48.5-35.6-5.1,5-9.4,10.8-12.8,17.1ZM87.3,71.9c4,18.8,20.7,33,40.7,33s23.1,10.3,23.1,23.1-10.3,23.1-23.1,23.1h-34.6c7.5,11.1,20.2,18.5,34.6,18.5,23,0,41.6-18.6,41.6-41.6s-18.6-41.6-41.6-41.6-23.1-10.3-23.1-23.1v-.7c-6.3,2.2-12.2,5.4-17.6,9.3Z"/>
</svg>