<?xml version="1.0" encoding="UTF-8"?>
<svg id="Capa_1" xmlns="http://www.w3.org/2000/svg" version="1.1" viewBox="0 0 256 256">
  <!-- Generator: Adobe Illustrator 30.3.0, SVG Export Plug-In . SVG Version: 2.1.3 Build 182)  -->
  <defs>
    <style>
      .st0, .st1 {
        fill: #101727;
      }

      .st0, .st2 {
        isolation: isolate;
      }

      .st2 {
        fill: #fff;
      }
    </style>
  </defs>
  <rect class="st0" width="256" height="256"/>
  <path class="st2" d="M180.4,75.6c-13.4-13.4-32-21.7-52.4-21.7s-39,8.3-52.4,21.7-21.7,32-21.7,52.4c0,38.4,29.1,69.9,66.5,73.8h.4c.5,0,1.1,0,1.6.1,1.9.2,3.8.2,5.7.2,20.5,0,39-8.3,52.4-21.7,13.4-13.4,21.7-32,21.7-52.4s-8.3-39-21.7-52.4h-.1Z"/>
  <g>
    <path class="st1" d="M146.5,71.3c-.3,0-.7-.2-1.3-.2s-.7.1-.9.2c0,0-.3.2-.4.4-.6.7-.6,1.5-.6,1.9v4.6c0,1.7.7,2.6,2,3.3,13.5,4.9,24.4,15.5,29.3,29.3,9.5,25.3-3.6,54.1-29.3,63.3-.4.2-.9.6-1.3,1.2h0c-.6,1-.6,1.8-.5,3.9.2,4.2.3,4.6.8,4.9.3.2.9.5,2.3.2,18.5-5.9,32.6-20.1,38.5-38.5,9.9-31.3-7.3-64.6-38.5-74.5Z"/>
    <path class="st1" d="M148.3,146c1-2.3,1.2-4.6,1.1-6.5,0-11.5-7-15.5-20.8-17.1-9.9-1.3-11.9-3.9-11.9-8.6s3.3-7.6,9.9-7.6,9.2,2,10.9,7c.3,1,1.3,1.6,2.3,1.6h5.3c1.3,0,2.3-1,2.3-2.3v-.3c-1.3-7.3-7.3-12.8-14.8-13.5v-8c0-1.4-1.1-2.5-2.5-2.5h-5.1c-1.4,0-2.5,1.1-2.5,2.5v7.7c-9.9,1.3-16,7.9-16,16.1s6.6,15.1,20.5,16.8c9.2,1.6,12.2,3.6,12.2,8.9s-4.6,8.9-10.9,8.9-11.5-3.6-12.5-8.6c-.3-1.3-1.3-2-2.3-2h-5.6c-1.3,0-2.3,1-2.3,2.3v.3c1.3,8.3,6.5,14,17.3,15.8v8.3c0,1.2,1,2.2,2.2,2.2h5.9c1.2,0,2.2-1,2.2-2.2v-8.3c1.4-.3,11.6-2.4,15.1-10.9Z"/>
    <path class="st1" d="M110.9,174.2h-.1c-25.7-9.3-38.8-38-29.3-63.4,4.9-13.8,15.8-24.4,29.3-29.3,1.3-.7,2-1.6,2-3.3v-4.6c0-.1.1-1.5-.8-2.1-.4-.3-.8-.3-.9-.4-.7-.1-1.2,0-1.5.2-31.3,9.9-48.4,43.2-38.5,74.5,5.9,18.5,20.1,32.6,38.5,38.5,1.4.4,2.1,0,2.3-.2.4-.3.6-.8.8-4.9,0-2.1,0-2.9-.5-3.8-.4-.6-.9-1-1.3-1.2Z"/>
  </g>
</svg>