<?xml version="1.0" encoding="UTF-8"?>
<svg id="Capa_1" xmlns="http://www.w3.org/2000/svg" version="1.1" viewBox="0 0 256 256">
  <!-- Generator: Adobe Illustrator 30.3.0, SVG Export Plug-In . SVG Version: 2.1.3 Build 182)  -->
  <defs>
    <style>
      .st0 {
        fill: #fff;
      }

      .st1 {
        fill: #4600ff;
      }
    </style>
  </defs>
  <rect class="st0" width="256" height="256"/>
  <g>
    <path class="st1" d="M120.4,143l-23.1-54.3c-.2-.5-.6-.7-1-.7s-.8.2-1,.7l-23.1,54.3c-.2.4,0,.8.2,1,.2.3.5.3.9.3h8c.4,0,.7-.2.9-.6l3.6-8.4c.2-.6.6-.8,1.2-.8h19c.5,0,.8.3,1,.8l3.6,8.5c.2.4.5.6.9.6h8.1c.4,0,.6-.2.8-.4.2-.3.2-.5,0-.9h0ZM102.1,124.6c0,.2-.3.5-.8.5h-9.9c-.4,0-.6-.2-.8-.4,0-.2-.2-.5,0-.9l5-11.7c.2-.5,1.3-.4,1.5,0l5,11.6c0,.3.2.6,0,.9Z"/>
    <path class="st1" d="M169.6,145.7c-.4,9.8-7,18.1-16.5,20.4-.5.1-.9.4-.9,1v7.8c0,.5-.7.7-1.1.7h-8.1c-.5,0-1-.3-1-.9v-7.9c0-.5-.5-.7-.8-.7-5.3-1.3-9.9-4.5-12.8-9-1.6-2.5-2.6-5.2-3.3-8-.3-1.4-.4-2.8-.3-4.2l.2-.3c.2,0,.4-.2.7-.2h8.3c.5,0,.9.4.9.9.2,1.7.5,3.4,1.3,5,2.1,4.6,6.8,6.6,11.7,6.5,6.7-.2,11.8-5.6,11.6-12.3-.2-5.1-3.4-7.8-7.7-10.1-4.7-2.5-9.6-3.7-14.2-6.1-2.8-1.5-5.3-3.2-7.4-5.6-2.7-3-4.3-6.7-4.6-10.7-.9-10.6,5.5-19.6,15.9-22.1.4,0,.6-.5.6-.8v-7.5c0-.5.4-.9.9-.9h8.4c.5,0,.9.4.9.9v8.6c9.2,2.5,14.6,9.8,15.2,19.2,0,.4-.4.9-.8.9h-8.5c-.6,0-.9-.4-.9-.9-.6-6.1-4.6-9.5-10.6-9.7-5.9-.2-10.7,4.3-10.8,10.2,0,4.9,2.9,7.4,7.1,9.5,4.6,2.4,9.5,3.6,14.4,6.2,2.3,1.3,4.4,2.7,6.3,4.5,1.6,1.5,5.8,5.9,6.1,12.1,0,1.5,0,2.7-.2,3.5Z"/>
  </g>
  <path class="st1" d="M128,60.8c37.2,0,67.3,30.1,67.3,67.3h0c0,37.2-30.1,67.3-67.3,67.3h0c-37.2,0-67.3-30.1-67.3-67.3h0c0-37.2,30.1-67.3,67.3-67.3h0M128,49.8c-43.2,0-78.3,35.1-78.3,78.3s35.1,78.3,78.3,78.3,78.3-35.1,78.3-78.3-35.1-78.3-78.3-78.3h0Z"/>
</svg>