<svg width="1024" height="1024" viewBox="0 0 1024 1024" fill="none" xmlns="http://www.w3.org/2000/svg">
<g clip-path="url(#clip0_195_1693)">
<rect width="1024" height="1024" rx="512" fill="#E5FFC3"/>
<circle cx="511.248" cy="511.248" r="511.248" fill="#CCE7FF"/>
<g clip-path="url(#clip1_195_1693)">
<path d="M874.786 1424.83L694.575 1371.5L558.671 1452.24L463.852 1452.2L327.87 1371.5L147.738 1424.83L92.9443 1241L147.738 1036.98L92.9443 864.492L147.738 650.709L429.209 817.83H593.315L874.786 650.709L929.579 864.492L874.786 1036.98L929.579 1241L874.786 1424.83Z" fill="#FF5C16"/>
<path d="M147.782 650.709L429.234 817.936L418.041 932.701L147.782 650.709Z" fill="#FF5C16"/>
<path d="M441.881 1086.06L418.08 932.794L265.728 1037.01L265.649 1036.97V1037.05L266.121 1144.33L327.902 1086.06H327.941H441.881Z" fill="#FF5C16"/>
<path d="M874.79 650.709L593.338 817.936L604.492 932.701L874.79 650.709Z" fill="#FF5C16"/>
<path d="M756.879 1037.05H756.918H756.879V1036.97L756.839 1037.01L604.488 932.794L580.687 1086.06H694.626L756.447 1144.33L756.879 1037.05Z" fill="#FF5C16"/>
<path d="M593.357 817.839H511.304H429.251L418.096 932.612L476.267 1307.48H546.34L604.551 932.612L593.357 817.839Z" fill="#FF8D5D"/>
<path d="M147.738 650.709L92.9443 864.492L147.738 1036.98H265.574L418.014 932.72L147.738 650.709Z" fill="#661800"/>
<path d="M874.802 650.709L929.595 864.492L874.802 1036.98H756.966L604.525 932.72L874.802 650.709Z" fill="#661800"/>
</g>
<path d="M304.264 647.155V540.092H577.052V486.618H376.828L304.264 423.809V295.483L376.828 222.407H444.545V152.132H577.052V222.407H717.334V329.47H444.545V382.944H645.791L718.356 451.929V574.079L645.791 647.155H577.052V717.43L444.545 718.339V647.155H304.264Z" fill="#190066"/>
</g>
<defs>
<clipPath id="clip0_195_1693">
<rect width="1024" height="1024" rx="512" fill="white"/>
</clipPath>
<clipPath id="clip1_195_1693">
<rect width="836.635" height="836.635" fill="white" transform="translate(92.9443 650.709)"/>
</clipPath>
</defs>
</svg>
