<svg width="128" height="128" viewBox="0 0 128 128" fill="none" xmlns="http://www.w3.org/2000/svg">
<circle cx="64" cy="64" r="62.6667" fill="url(#paint0_linear_153_15586)" stroke="url(#paint1_linear_153_15586)" stroke-width="2.66667"/>
<g clip-path="url(#clip0_153_15586)">
<path d="M108.117 68.9465L104.732 55.7521C104.635 55.3642 104.322 55.0623 103.934 54.9652L90.8586 51.742C90.7615 51.7206 90.6537 51.7097 90.5566 51.7097C90.2442 51.6775 89.9207 51.7745 89.6836 52.0116L67.6174 74.0778L64.6963 62.6727C64.5991 62.2846 64.2865 61.9829 63.8985 61.8859L52.666 59.1155L74.7213 37.0601C74.8508 36.9307 74.9262 36.7691 74.9801 36.6073C75.0771 36.3918 75.1095 36.1439 75.0448 35.9067L71.6599 22.7123C71.5628 22.3242 71.2502 22.0224 70.8623 21.9254L57.7864 18.7023C57.5277 18.6376 57.2688 18.6807 57.0425 18.7885L57.0318 18.7885C56.9671 18.8208 56.9132 18.864 56.8485 18.9071C56.7946 18.9502 56.7192 18.9718 56.676 19.0257L19.0333 56.6469C19.0333 56.6469 18.9687 56.7547 18.9255 56.8086C18.6884 57.0889 18.6022 57.4554 18.7099 57.8111L22.3643 70.5635C22.4721 70.93 22.7523 71.2102 23.1081 71.3074L35.3538 74.8214L38.8681 87.0566C38.9758 87.423 39.2561 87.7032 39.6117 87.8003L51.9007 91.3251L55.4256 103.614C55.5335 103.981 55.8137 104.261 56.1694 104.358L68.9757 108.034C69.0728 108.066 69.1806 108.077 69.2775 108.077C69.2991 108.077 69.3208 108.066 69.353 108.066C69.353 108.066 69.3638 108.066 69.3746 108.066C69.6548 108.066 69.9352 107.958 70.1507 107.743L107.804 70.0891C107.933 69.9598 108.009 69.7981 108.063 69.6365C108.16 69.4208 108.193 69.1729 108.128 68.9357L108.117 68.9465ZM91.2357 83.5745L88.487 72.8489L94.5775 66.769L105.045 69.7765L91.2466 83.5854L91.2357 83.5745ZM69.8813 104.929L67.1324 94.2035L78.1493 83.1866L88.6164 86.1942L69.8813 104.929ZM78.3756 79.8771L75.7454 70.7144L85.1992 73.0428L78.3756 79.8665L78.3756 79.8771ZM86.6975 74.6381L89.1122 84.049L79.9171 81.4078L86.6975 74.6275L86.6975 74.6381ZM87.0101 71.2426L76.2951 68.6017L90.0609 54.8358L93.036 65.2168L87.0101 71.2426ZM73.6326 71.2533L76.6077 81.6343L65.6448 92.5973L54.9299 89.9563L73.6326 71.2533ZM102.781 56.9057L105.53 67.6313L95.1381 64.6455L92.1628 54.2861L102.781 56.9057ZM53.3129 88.3607L50.5639 77.635L54.5309 73.668L64.998 76.6756L53.3129 88.3607ZM54.7573 70.3587L52.127 61.1959L61.5808 63.5244L54.7573 70.3479L54.7573 70.3587ZM65.4939 74.5412L56.2988 71.9002L63.0792 65.1197L65.4939 74.5304L65.4939 74.5412ZM53.0003 72.1265L49.0871 76.0397L38.3722 73.3986L50.0249 61.7457L53.0003 72.1265ZM40.6682 38.095L43.6434 48.476L32.5834 59.5359L21.8684 56.8949L40.6682 38.095ZM56.9995 21.7637L59.9748 32.1446L54.0458 38.0735L43.3308 35.4324L56.9995 21.7637ZM58.2714 50.4054L55.5227 39.6903L61.5161 33.6969L71.9832 36.6936L58.2714 50.4054ZM45.4113 46.7187L42.781 37.556L52.2347 39.8844L45.4113 46.708L45.4113 46.7187ZM53.7332 41.4798L56.1479 50.8904L46.9636 48.2495L53.744 41.469L53.7332 41.4798ZM45.1958 50.0173L55.6629 53.0141L36.8307 71.8463L34.0818 61.1312L45.1958 50.0173ZM69.7195 23.855L72.4683 34.5808L62.0766 31.5948L59.1016 21.2355L69.7195 23.855ZM21.3294 59.0184L30.7833 61.3468L23.9597 68.1705L21.3294 59.0075L21.3294 59.0184ZM25.5012 69.7226L32.2816 62.9421L34.6963 72.353L25.5119 69.712L25.5012 69.7226ZM40.7976 85.8815L37.8224 75.5221L48.4404 78.1417L51.1892 88.8674L40.7976 85.8815ZM54.3907 92.0798L63.8446 94.4081L57.0211 101.232L54.3907 92.069L54.3907 92.0798ZM58.5625 102.784L65.3429 96.0036L67.7576 105.414L58.5625 102.773L58.5625 102.784Z" fill="url(#paint2_linear_153_15586)"/>
<path d="M108.117 68.9465L104.732 55.7521C104.635 55.3642 104.322 55.0623 103.934 54.9652L90.8586 51.742C90.7615 51.7206 90.6537 51.7097 90.5566 51.7097C90.2442 51.6775 89.9207 51.7745 89.6836 52.0116L67.6174 74.0778L64.6963 62.6727C64.5991 62.2846 64.2865 61.9829 63.8985 61.8859L52.666 59.1155L74.7213 37.0601C74.8508 36.9307 74.9262 36.7691 74.9801 36.6073C75.0771 36.3918 75.1095 36.1439 75.0448 35.9067L71.6599 22.7123C71.5628 22.3242 71.2502 22.0224 70.8623 21.9254L57.7864 18.7023C57.5277 18.6376 57.2688 18.6807 57.0425 18.7885L57.0318 18.7885C56.9671 18.8208 56.9132 18.864 56.8485 18.9071C56.7946 18.9502 56.7192 18.9718 56.676 19.0257L19.0333 56.6469C19.0333 56.6469 18.9687 56.7547 18.9255 56.8086C18.6884 57.0889 18.6022 57.4554 18.7099 57.8111L22.3643 70.5635C22.4721 70.93 22.7523 71.2102 23.1081 71.3074L35.3538 74.8214L38.8681 87.0566C38.9758 87.423 39.2561 87.7032 39.6117 87.8003L51.9007 91.3251L55.4256 103.614C55.5335 103.981 55.8137 104.261 56.1694 104.358L68.9757 108.034C69.0728 108.066 69.1806 108.077 69.2775 108.077C69.2991 108.077 69.3208 108.066 69.353 108.066C69.353 108.066 69.3638 108.066 69.3746 108.066C69.6548 108.066 69.9352 107.958 70.1507 107.743L107.804 70.0891C107.933 69.9598 108.009 69.7981 108.063 69.6365C108.16 69.4208 108.193 69.1729 108.128 68.9357L108.117 68.9465ZM91.2357 83.5745L88.487 72.8489L94.5775 66.769L105.045 69.7765L91.2466 83.5854L91.2357 83.5745ZM69.8813 104.929L67.1324 94.2035L78.1493 83.1866L88.6164 86.1942L69.8813 104.929ZM78.3756 79.8771L75.7454 70.7144L85.1992 73.0428L78.3756 79.8665L78.3756 79.8771ZM86.6975 74.6381L89.1122 84.049L79.9171 81.4078L86.6975 74.6275L86.6975 74.6381ZM87.0101 71.2426L76.2951 68.6017L90.0609 54.8358L93.036 65.2168L87.0101 71.2426ZM73.6326 71.2533L76.6077 81.6343L65.6448 92.5973L54.9299 89.9563L73.6326 71.2533ZM102.781 56.9057L105.53 67.6313L95.1381 64.6455L92.1628 54.2861L102.781 56.9057ZM53.3129 88.3607L50.5639 77.635L54.5309 73.668L64.998 76.6756L53.3129 88.3607ZM54.7573 70.3587L52.127 61.1959L61.5808 63.5244L54.7573 70.3479L54.7573 70.3587ZM65.4939 74.5412L56.2988 71.9002L63.0792 65.1197L65.4939 74.5304L65.4939 74.5412ZM53.0003 72.1265L49.0871 76.0397L38.3722 73.3986L50.0249 61.7457L53.0003 72.1265ZM40.6682 38.095L43.6434 48.476L32.5834 59.5359L21.8684 56.8949L40.6682 38.095ZM56.9995 21.7637L59.9748 32.1446L54.0458 38.0735L43.3308 35.4324L56.9995 21.7637ZM58.2714 50.4054L55.5227 39.6903L61.5161 33.6969L71.9832 36.6936L58.2714 50.4054ZM45.4113 46.7187L42.781 37.556L52.2347 39.8844L45.4113 46.708L45.4113 46.7187ZM53.7332 41.4798L56.1479 50.8904L46.9636 48.2495L53.744 41.469L53.7332 41.4798ZM45.1958 50.0173L55.6629 53.0141L36.8307 71.8463L34.0818 61.1312L45.1958 50.0173ZM69.7195 23.855L72.4683 34.5808L62.0766 31.5948L59.1016 21.2355L69.7195 23.855ZM21.3294 59.0184L30.7833 61.3468L23.9597 68.1705L21.3294 59.0075L21.3294 59.0184ZM25.5012 69.7226L32.2816 62.9421L34.6963 72.353L25.5119 69.712L25.5012 69.7226ZM40.7976 85.8815L37.8224 75.5221L48.4404 78.1417L51.1892 88.8674L40.7976 85.8815ZM54.3907 92.0798L63.8446 94.4081L57.0211 101.232L54.3907 92.069L54.3907 92.0798ZM58.5625 102.784L65.3429 96.0036L67.7576 105.414L58.5625 102.773L58.5625 102.784Z" fill="white" fill-opacity="0.2"/>
</g>
<defs>
<linearGradient id="paint0_linear_153_15586" x1="81.0219" y1="-6.40592" x2="47.312" y2="130.931" gradientUnits="userSpaceOnUse">
<stop stop-color="#302A92"/>
<stop offset="1" stop-color="#151160"/>
</linearGradient>
<linearGradient id="paint1_linear_153_15586" x1="8.86889" y1="84.0926" x2="119.73" y2="43.7775" gradientUnits="userSpaceOnUse">
<stop stop-color="#29BCFA"/>
<stop offset="0.43" stop-color="#6464E4"/>
<stop offset="1" stop-color="#B45AFA"/>
</linearGradient>
<linearGradient id="paint2_linear_153_15586" x1="24.8652" y1="77.4085" x2="102.361" y2="49.1981" gradientUnits="userSpaceOnUse">
<stop stop-color="#29BCFA"/>
<stop offset="0.43" stop-color="#6464E4"/>
<stop offset="1" stop-color="#B45AFA"/>
</linearGradient>
<clipPath id="clip0_153_15586">
<rect width="90.6667" height="90.6667" fill="white" transform="translate(18.6641 18.6719)"/>
</clipPath>
</defs>
</svg>
