<svg width="128" height="128" viewBox="0 0 128 128" fill="none" xmlns="http://www.w3.org/2000/svg">
<rect x="3.76471" y="3.76471" width="120.471" height="120.471" rx="60.2353" fill="#99F7DF"/>
<rect x="3.76471" y="3.76471" width="120.471" height="120.471" rx="60.2353" stroke="#99F7DF" stroke-width="7.52941"/>
<path d="M112.69 63.5462C112.69 95.7406 92.9883 106.071 82.6075 96.8727C74.0629 89.3724 71.5206 73.523 58.6683 71.8956C42.3559 69.8437 40.9435 91.5661 30.2098 91.5661C17.7105 91.5661 15.3096 73.3815 15.3096 64.0415C15.3096 54.4893 17.993 41.47 28.6561 41.47C41.0848 41.47 41.7909 60.0791 57.3267 59.0885C72.7917 58.0272 73.0742 38.6396 83.1021 30.361C91.8583 23.2145 112.69 30.9271 112.69 63.5462Z" fill="#072821"/>
</svg>
