<svg width="128" height="128" viewBox="0 0 128 128" fill="none" xmlns="http://www.w3.org/2000/svg">
<g clip-path="url(#clip0_153_18079)">
<path d="M63.9997 128C99.4666 128 128 99.4669 128 64C128 28.5331 99.4666 0 63.9997 0C28.5328 0 -0.000305176 28.5331 -0.000305176 64C-0.000305176 99.4669 28.5328 128 63.9997 128Z" fill="white"/>
<path d="M63.9938 0C72.3984 -1.25238e-07 80.7207 1.65541 88.4855 4.87171C96.2503 8.08801 103.306 12.8022 109.249 18.7452C115.192 24.6881 119.906 31.7434 123.122 39.5082C126.338 47.2731 127.994 55.5954 127.994 64C127.994 72.4046 126.338 80.7269 123.122 88.4917C119.906 96.2566 115.192 103.312 109.249 109.255C103.306 115.198 96.2503 119.912 88.4855 123.128C80.7207 126.345 72.3984 128 63.9938 128C47.0199 128 30.7413 121.257 18.7389 109.255C6.73661 97.2525 -0.00622559 80.9738 -0.00622559 64C-0.00622559 47.0261 6.73661 30.7475 18.7389 18.7452C30.7413 6.74284 47.0199 2.5293e-07 63.9938 0ZM52.4738 17.4009C42.0546 19.9639 32.7968 25.949 26.1828 34.3977C19.5687 42.8465 15.9809 53.2702 15.9938 64C15.9809 74.7297 19.5687 85.1535 26.1828 93.6022C32.7968 102.051 42.0546 108.036 52.4738 110.599V102.364C44.2336 99.8803 37.0133 94.807 31.8833 87.8965C26.7533 80.9861 23.9867 72.6064 23.9938 64C23.9981 55.3963 26.769 47.0221 31.8973 40.1139C37.0256 33.2057 44.2395 28.1297 52.4738 25.6355V17.4009ZM75.5138 25.6355C83.748 28.1297 90.9619 33.2057 96.0902 40.1139C101.219 47.0221 103.989 55.3963 103.994 64C103.989 72.6037 101.219 80.9779 96.0902 87.8861C90.9619 94.7943 83.748 99.8703 75.5138 102.364V110.599C85.9329 108.036 95.1907 102.051 101.805 93.6022C108.419 85.1535 112.007 74.7297 111.994 64C112.007 53.2702 108.419 42.8465 101.805 34.3977C95.1907 25.949 85.9329 19.9639 75.5138 17.4009V25.6355ZM68.9502 40C59.5849 40 50.12 45.2409 46.6924 55.4027H40.5555V61.4044H45.4622C45.304 63.1312 45.304 64.8688 45.4622 66.5955H40.5555V72.5973H46.6924C50.12 82.7662 59.5849 88 68.9502 88C72.8474 88.0227 76.6923 87.1029 80.1573 85.3191L77.5973 79.2462C74.8115 80.3709 71.8405 80.9666 68.8364 81.0026C63.0551 81.0026 57.6009 78.5351 54.9911 72.5973H67.72L70.1947 66.5955H53.512C53.3538 64.8688 53.3538 63.1312 53.512 61.4044H72.3138L74.7955 55.4027H54.9911C57.6009 49.4649 63.048 46.9973 68.8364 46.9973C71.752 46.9973 74.7884 47.6444 77.5902 48.7609L80.1502 42.6809C76.6873 40.8982 72.845 39.9785 68.9502 40Z" fill="#2775CA"/>
</g>
<defs>
<clipPath id="clip0_153_18079">
<rect width="128" height="128" fill="white"/>
</clipPath>
</defs>
</svg>
