<svg width="128" height="128" viewBox="0 0 128 128" fill="none" xmlns="http://www.w3.org/2000/svg">
<g clip-path="url(#clip0_10012_53269)">
<rect width="128" height="128" rx="64" fill="url(#paint0_linear_10012_53269)"/>
<g clip-path="url(#clip1_10012_53269)">
<path d="M128 64C128 28.6538 99.3462 0 64 0C28.6538 0 0 28.6538 0 64C0 99.3462 28.6538 128 64 128C99.3462 128 128 99.3462 128 64Z" fill="#0E0B31"/>
<path d="M63.9893 123.029C96.5962 123.029 123.029 96.5962 123.029 63.9893C123.029 31.3824 96.5962 4.94922 63.9893 4.94922C31.3824 4.94922 4.94922 31.3824 4.94922 63.9893C4.94922 96.5962 31.3824 123.029 63.9893 123.029Z" stroke="#FAF8F0" stroke-width="2.24"/>
<path d="M63.9893 123.029C96.5962 123.029 123.029 96.5962 123.029 63.9893C123.029 31.3824 96.5962 4.94922 63.9893 4.94922C31.3824 4.94922 4.94922 31.3824 4.94922 63.9893C4.94922 96.5962 31.3824 123.029 63.9893 123.029Z" stroke="#F09242" stroke-width="2.24"/>
<path d="M86.1744 52.2654C85.4717 44.9328 79.1466 42.4731 71.1466 41.7234V31.6265H64.9616V41.536C63.3336 41.536 61.6703 41.536 60.0188 41.536V31.6265H53.881V41.7937H41.3359V48.4117C41.3359 48.4117 45.9041 48.3297 45.8339 48.4117C46.6575 48.3211 47.4842 48.5538 48.1398 49.0607C48.7953 49.5676 49.2284 50.3092 49.3478 51.1292V78.9602C49.3302 79.2495 49.2549 79.5317 49.1261 79.7916C48.9973 80.0514 48.8179 80.2825 48.5982 80.4713C48.3827 80.6639 48.1305 80.8105 47.8568 80.9033C47.583 80.9961 47.2933 81.0319 47.0052 81.0101C47.0872 81.0805 42.5073 81.0101 42.5073 81.0101L41.3359 88.4009H53.7638V98.7324H59.9485V88.5532H64.8912V98.6857H71.0877V88.4713C81.5363 87.8389 88.8221 85.2617 89.7354 75.4812C90.4733 67.6098 86.7722 64.0956 80.8566 62.6786C84.4528 60.9099 86.6781 57.6301 86.1744 52.2654ZM77.5069 74.2633C77.5069 81.9471 64.3408 81.0684 60.1476 81.0684V67.4345C64.3408 67.446 77.5069 66.2396 77.5069 74.2633ZM74.6371 55.0532C74.6371 62.0812 63.6499 61.2261 60.1593 61.2261V48.8334C63.6499 48.8334 74.6371 47.7323 74.6371 55.0532Z" fill="url(#paint1_linear_10012_53269)"/>
</g>
</g>
<defs>
<linearGradient id="paint0_linear_10012_53269" x1="8.86889" y1="84.0926" x2="119.73" y2="43.7775" gradientUnits="userSpaceOnUse">
<stop stop-color="#29BCFA"/>
<stop offset="0.43" stop-color="#6464E4"/>
<stop offset="1" stop-color="#B45AFA"/>
</linearGradient>
<linearGradient id="paint1_linear_10012_53269" x1="44.6959" y1="75.7135" x2="89.1786" y2="64.0239" gradientUnits="userSpaceOnUse">
<stop stop-color="#29BCFA"/>
<stop offset="0.43" stop-color="#6464E4"/>
<stop offset="1" stop-color="#B45AFA"/>
</linearGradient>
<clipPath id="clip0_10012_53269">
<rect width="128" height="128" rx="64" fill="white"/>
</clipPath>
<clipPath id="clip1_10012_53269">
<rect width="128" height="128" fill="white"/>
</clipPath>
</defs>
</svg>
