<svg id="Layer_1" xmlns="http://www.w3.org/2000/svg" viewBox="0 0 400 400"><defs><style>.cls-1{fill:#fecb17;}.cls-2{fill:#030e24;}</style></defs><rect class="cls-1" x="-3" y="-3.4507" width="406.9014" height="406.9014"/><path class="cls-2" d="M330.8955,106.2967l-.0102.027-26.3353,40.7849c8.0566,15.8933,12.6253,33.8535,12.6253,52.8913,0,64.7141-52.4615,117.1753-117.1756,117.1753-19.0129,0-36.9514-4.5569-52.8292-12.5939l-40.7977,26.3682c26.3868,18.9002,58.6942,30.0613,93.6268,30.0613,88.924,0,161.0112-72.0871,161.0112-161.0109,0-34.9667-11.1818-67.3025-30.1154-93.7032Z"/><path class="cls-2" d="M200,280.6325c39.6392,0,72.5941-28.527,79.512-66.166-12.5457-2.6831-25.5507-4.1271-38.8974-4.1271-40.1867,0-77.3518,12.8448-107.7015,34.5947,14.5293,21.5356,39.1536,35.6985,67.0869,35.6985Z"/><path class="cls-2" d="M239.86,195.6341c14.0761,0,27.7872,1.5405,41.01,4.3941,0-.0095.0007-.0188.0007-.0283,0-44.6637-36.2074-80.8707-80.8707-80.8707s-80.8707,36.207-80.8707,80.8707c0,3.6694.2734,7.2721.7492,10.8105-.0084.0064-.0157.011-.0241.0174-20.365,15.4663-30.0226,27.7221-30.3288,28.1143-4.3108-12.1857-6.7008-25.2768-6.7008-38.9421,0-64.7141,52.4608-117.1753,117.1749-117.1753,18.9504,0,36.8337,4.5262,52.6728,12.5137l40.8222-26.3821c-26.3627-18.8428-58.62-29.9671-93.4949-29.9671-88.9232,0-161.0105,72.0869-161.0105,161.0107,0,35.7913,11.6964,68.837,31.4559,95.5639,7.6326-13.7796,16.8977-26.5209,27.5332-37.9807,0,0,15.8811-16.5717,28.0496-24.9031,31.9514-23.2776,71.2749-37.0459,113.8322-37.0459Z"/></svg>