<?xml version="1.0" encoding="UTF-8"?>
<svg xmlns="http://www.w3.org/2000/svg" xmlns:xlink="http://www.w3.org/1999/xlink" viewBox="0 0 32 32">
  <defs>
    <style>
      .cls-1 {
        fill: #7c7c7c;
      }

      .cls-2 {
        fill: url(#linear-gradient-8);
      }

      .cls-3 {
        fill: url(#linear-gradient-7);
      }

      .cls-4 {
        fill: url(#linear-gradient-5);
      }

      .cls-5 {
        fill: url(#linear-gradient-6);
      }

      .cls-6 {
        fill: url(#linear-gradient-9);
      }

      .cls-7 {
        fill: url(#linear-gradient-4);
      }

      .cls-8 {
        fill: url(#linear-gradient-3);
      }

      .cls-9 {
        fill: url(#linear-gradient-2);
      }

      .cls-10 {
        fill: url(#linear-gradient);
      }

      .cls-11 {
        fill: #fff;
      }

      .cls-12 {
        fill: url(#linear-gradient-10);
      }

      .cls-13 {
        fill: url(#linear-gradient-11);
      }

      .cls-14 {
        fill: url(#linear-gradient-12);
      }

      .cls-15 {
        fill: #282828;
      }
    </style>
    <linearGradient id="linear-gradient" x1="10.89" y1="15.98" x2="21.1" y2="15.98" gradientUnits="userSpaceOnUse">
      <stop offset="0" stop-color="#a67ffd"/>
      <stop offset="1" stop-color="#4127c3"/>
    </linearGradient>
    <linearGradient id="linear-gradient-2" x1="10.65" y1="15.98" x2="21.34" y2="15.98" gradientUnits="userSpaceOnUse">
      <stop offset="0" stop-color="#dccefe"/>
      <stop offset="1" stop-color="#000074"/>
    </linearGradient>
    <linearGradient id="linear-gradient-3" x1="11.35" y1="18.71" x2="20.98" y2="13.1" gradientUnits="userSpaceOnUse">
      <stop offset="0" stop-color="#2f1864"/>
      <stop offset=".08" stop-color="#463078"/>
      <stop offset=".24" stop-color="#7360a1"/>
      <stop offset=".4" stop-color="#9987c2"/>
      <stop offset=".56" stop-color="#b6a6dc"/>
      <stop offset=".72" stop-color="#cbbcef"/>
      <stop offset=".86" stop-color="#d7c9fa"/>
      <stop offset="1" stop-color="#dccefe"/>
    </linearGradient>
    <linearGradient id="linear-gradient-4" x1="14.77" y1="4.3" x2="17.24" y2="4.3" gradientTransform="translate(20.31 -11.7) rotate(90)" gradientUnits="userSpaceOnUse">
      <stop offset="0" stop-color="#414042"/>
      <stop offset=".03" stop-color="#4a494b"/>
      <stop offset=".2" stop-color="#79797b"/>
      <stop offset=".37" stop-color="#a0a0a2"/>
      <stop offset=".54" stop-color="#bebfc0"/>
      <stop offset=".7" stop-color="#d4d5d6"/>
      <stop offset=".86" stop-color="#e1e2e3"/>
      <stop offset="1" stop-color="#e6e7e8"/>
    </linearGradient>
    <linearGradient id="linear-gradient-5" x1="14.78" y1="27.68" x2="17.25" y2="27.68" gradientTransform="translate(-11.66 43.69) rotate(-90)" xlink:href="#linear-gradient-4"/>
    <linearGradient id="linear-gradient-6" x1="6.48" y1="7.73" x2="9" y2="7.73" gradientTransform="translate(7.73 -3.21) rotate(45)" xlink:href="#linear-gradient-4"/>
    <linearGradient id="linear-gradient-7" x1="3.1" y1="15.99" x2="5.55" y2="15.99" gradientTransform="matrix(1,0,0,1,0,0)" xlink:href="#linear-gradient-4"/>
    <linearGradient id="linear-gradient-8" x1="6.24" y1="23.96" x2="8.69" y2="23.96" gradientTransform="translate(-14.76 12.3) rotate(-45)" xlink:href="#linear-gradient-4"/>
    <linearGradient id="linear-gradient-9" x1="23.04" y1="24.25" x2="25.5" y2="24.25" gradientTransform="translate(24.29 58.57) rotate(-135)" xlink:href="#linear-gradient-4"/>
    <linearGradient id="linear-gradient-10" x1="23.29" y1="8.02" x2="25.82" y2="8.02" gradientTransform="translate(47.95 -2.94) rotate(136.8)" xlink:href="#linear-gradient-4"/>
    <linearGradient id="linear-gradient-11" x1="26.44" y1="15.99" x2="28.96" y2="15.99" gradientTransform="translate(45.89 42.29) rotate(-154.66)" xlink:href="#linear-gradient-4"/>
    <linearGradient id="linear-gradient-12" x1="11.37" y1="18.98" x2="20.57" y2="13.06" gradientUnits="userSpaceOnUse">
      <stop offset="0" stop-color="#2f18b9"/>
      <stop offset=".05" stop-color="#3922bf"/>
      <stop offset=".25" stop-color="#6047d5"/>
      <stop offset=".45" stop-color="#7f64e7"/>
      <stop offset=".64" stop-color="#9579f3"/>
      <stop offset=".83" stop-color="#a285fb"/>
      <stop offset="1" stop-color="#a78afe"/>
    </linearGradient>
  </defs>
  <g id="Layer_8" data-name="Layer 8">
    <path class="cls-11" d="M17.27,4.33c-.17,1.75-2.83,1.38-2.5-.35.27-1.41,2.36-1.3,2.5.14,0,.06,0,.15,0,.21Z"/>
    <path class="cls-11" d="M14.77,27.97c-.24-1.77,2.33-1.99,2.5-.36s-2.29,1.86-2.5.36Z"/>
    <path class="cls-11" d="M7.69,8.94c-1.71-.01-1.6-2.66.12-2.51,1.59.14,1.45,2.52-.12,2.51Z"/>
    <path class="cls-11" d="M4.04,14.75c1.69-.23,1.99,2.18.46,2.47-1.7.32-2.04-2.25-.46-2.47Z"/>
    <path class="cls-11" d="M6.38,23.29c1.12-1.47,3.13.38,1.93,1.61-1.09,1.11-2.81-.44-1.93-1.61Z"/>
    <path class="cls-11" d="M23.53,25.27c-1.21-.99.16-2.83,1.44-2.04,1.52.94-.09,3.15-1.44,2.04Z"/>
    <path class="cls-11" d="M24.65,6.71c1.74.06,1.5,2.75-.22,2.5-1.57-.23-1.32-2.56.22-2.5Z"/>
    <path class="cls-11" d="M28.19,17.17c-1.64.57-2.39-2.01-.71-2.41,1.55-.37,2.17,1.9.71,2.41Z"/>
  </g>
  <g id="Layer_3_copy_2" data-name="Layer 3 copy 2">
    <path class="cls-1" d="M16.12,3.14c1.74.16,1.37,2.81-.34,2.48-1.4-.27-1.29-2.35.14-2.48.06,0,.15,0,.21,0Z"/>
    <path class="cls-1" d="M15.79,26.35c1.76-.24,1.97,2.32.35,2.48s-1.85-2.28-.35-2.48Z"/>
    <path class="cls-1" d="M8.68,8.69c-1.21,1.19-2.99-.75-1.68-1.85,1.22-1.02,2.79.75,1.68,1.85Z"/>
    <path class="cls-1" d="M4.22,14.76c1.68-.23,1.98,2.17.45,2.45-1.69.32-2.02-2.24-.45-2.45Z"/>
    <path class="cls-1" d="M7.32,22.67c1.82-.25,1.93,2.47.22,2.48-1.55.01-1.66-2.29-.22-2.48Z"/>
    <path class="cls-1" d="M24.07,22.95c1.54-.15,1.88,2.1.42,2.45-1.73.41-2.15-2.28-.42-2.45Z"/>
    <path class="cls-1" d="M23.6,8.96c-1.21-1.23.78-3.01,1.86-1.66.99,1.24-.78,2.76-1.86,1.66Z"/>
    <path class="cls-1" d="M26.72,15.1c1.23-1.21,3.01.79,1.66,1.86-1.24.99-2.76-.78-1.66-1.86Z"/>
    <path class="cls-15" d="M15.71,10.88c3.68-.17,6.44,2.97,5.52,6.61-1.3,5.12-9.08,5.19-10.53.15-1.01-3.49,1.47-6.6,5.01-6.76ZM18.85,18.98c1.97-1.96,1.28-5.62-1.39-6.58-3.26-1.17-6.35,1.57-5.37,4.96.83,2.86,4.71,3.66,6.76,1.62Z"/>
  </g>
  <g id="Layer_6" data-name="Layer 6">
    <path class="cls-10" d="M15.78,11.08c3.44-.16,6.02,2.78,5.16,6.17-1.21,4.79-8.48,4.84-9.84.14-.94-3.26,1.37-6.16,4.68-6.31ZM18.71,18.66c1.84-1.83,1.2-5.25-1.29-6.14-3.04-1.09-5.93,1.47-5.02,4.63.78,2.67,4.4,3.42,6.31,1.51Z"/>
  </g>
  <g id="Layer_7" data-name="Layer 7">
    <path class="cls-9" d="M15.77,10.86c3.6-.17,6.29,2.91,5.39,6.46-1.27,5.01-8.87,5.07-10.29.15-.99-3.41,1.43-6.44,4.9-6.6ZM18.84,18.78c1.92-1.91,1.25-5.49-1.35-6.42-3.18-1.14-6.21,1.54-5.25,4.84.81,2.8,4.6,3.57,6.6,1.58Z"/>
  </g>
  <g id="Layer_9" data-name="Layer 9">
    <path class="cls-8" d="M15.76,10.64c3.75-.17,6.56,3.03,5.63,6.74-1.32,5.22-9.25,5.29-10.73.15-1.03-3.56,1.5-6.72,5.11-6.89ZM18.96,18.9c2-1.99,1.31-5.73-1.41-6.7-3.32-1.19-6.47,1.6-5.48,5.05.85,2.92,4.8,3.73,6.89,1.65Z"/>
  </g>
  <g id="Layer_3" data-name="Layer 3">
    <path class="cls-7" d="M17.26,4.4c-.16,1.74-2.81,1.37-2.48-.34.27-1.4,2.35-1.29,2.48.14,0,.06,0,.15,0,.21Z"/>
    <path class="cls-4" d="M14.77,27.9c-.24-1.76,2.32-1.97,2.48-.35s-2.28,1.85-2.48.35Z"/>
    <path class="cls-5" d="M7.74,8.98c-1.7-.01-1.59-2.65.12-2.49,1.58.14,1.44,2.5-.12,2.49Z"/>
    <path class="cls-3" d="M4.11,14.76c1.68-.23,1.98,2.17.45,2.45-1.69.32-2.02-2.24-.45-2.45Z"/>
    <path class="cls-2" d="M6.44,23.24c1.12-1.46,3.11.38,1.91,1.6-1.08,1.1-2.79-.44-1.91-1.6Z"/>
    <path class="cls-6" d="M23.48,25.22c-1.2-.99.16-2.81,1.43-2.03,1.51.94-.09,3.13-1.43,2.03Z"/>
    <path class="cls-12" d="M24.6,6.77c1.72.06,1.49,2.73-.22,2.49-1.56-.23-1.32-2.54.22-2.49Z"/>
    <path class="cls-13" d="M28.12,17.16c-1.63.57-2.38-2-.71-2.39,1.54-.36,2.16,1.89.71,2.39Z"/>
    <path class="cls-14" d="M15.77,10.74c3.68-.17,6.44,2.97,5.52,6.61-1.3,5.12-9.08,5.19-10.53.15-1.01-3.49,1.47-6.6,5.01-6.76ZM18.9,18.85c1.97-1.96,1.28-5.62-1.39-6.58-3.26-1.17-6.35,1.57-5.37,4.96.83,2.86,4.71,3.66,6.76,1.62Z"/>
  </g>
</svg>