<svg xmlns="http://www.w3.org/2000/svg" viewBox="0 0 360 360"><path d="M-7-6h373v373H-7V-6z" fill="#e2ded5"/><path d="M-7-6v-1h374v374h-1V-6H-7z" fill="#fdfdfd"/><path d="M249 84c-1 13-14 28-23 37a84 84 0 0 1-22 154l-1-1v-9l1-1 2-1c59-17 71-97 19-129l-11 12c2 1 2 10 1 11-1 2-5 3-6 2l-1-1-3 1h-36l-1-1h-6c-2-1-2-10 0-11l-14-15a72 72 0 0 0-24 101v2l1 1v1c1-1 2 0 1 1l2 2v1h1c-2 3-5 6-8 7a83 83 0 0 1 17-123l2-1-5-3v-1l6-4 6-3 8-5 5-2a7 7 0 0 1 1-1l16-5h2l1-1c1-1 11-3 13-2h1l11-1h5l21-4h2a85 85 0 0 0 16-12v4z" fill="#111a23"/><path d="m208 158 1 6h-2c0 2 0 4-2 4a92 92 0 0 0 0 11 83 83 0 0 0 8 4c2 0 2 1 2 2 1 3-3 8-5 10l9 5v12l-2 1 2 11-3 2 2 8-1 3 1 6c1 2 1 3-1 3l-13 5v24l-1 2v14l1 1v5c0 2-4 5-4 6l-1 4-11 15h-1l-10-16c1-3-5-6-5-9v-20l-2-1c-1 0-4 5-6 5 0 1 4 3 2 4l-57 34 31-32-30-30 11-9 8-7 1-1 15-12 9-41 16-7v-12c-3-2-3-6-3-9l1-1h40z" fill="#111a22"/><path d="M197 24c13 2 29 11 39 20 11 10 14 21 14 36l-1 4v-3l-16 11v-1c3-4 6-9 6-14v-2c-2 3-6 9-9 10-2 0-3 1-2-1 4-8 5-17 3-26-3-9-9-14-16-20l-1-1-1 1c2 0 3 3 3 4l1 5c4 20-10 25-26 30-4 1-7 3-10 6-3 4-3-1-2-4 0-6 3-10 7-14-17 5-39 22-30 42l-1 1-8 5-2-5c-7-17 9-33 23-41l16-7c6-4 10-6 9-15 4 3 4 8 4 12-1 6-3 10-7 14 13-3 22-13 19-26-2-9-8-14-13-21h1Z" fill="#582228"/><path d="M197 24h-2 2Z" fill="#773539"/><path d="M109 320h-1l1-1v1Z" fill="#817676"/><path d="M193 45v-1 1Z" fill="#7a4649"/><path d="M109 319a2 2 0 0 1 0 1v-1z" fill="#2b3438"/><path d="M204 264v-14l13-4 1-1-2-9 1-1c1-1-2-7-2-9l3-2c1-2-2-9-2-11l2-1v-12l-9-5c2-2 7-7 5-11l-9-4-1-1v-11l2-1v-3h2v-6c2 1 6 1 6-1v-9l-1-1 11-14 6 4a72 72 0 0 1-26 127zm-36-106c0 4-2 8 3 10v12l-17 8-8 40-16 13h-2v-1l-2-2-1-1v-1l-1-1a73 73 0 0 1 24-104 97 97 0 0 1 15 16l-1 1v9c1 2 4 1 6 1z" fill="#5c222a"/><path d="M214 37c15 9 22 22 17 40l-3 8c4-2 7-5 9-8l3-4c1 7-2 14-7 19-8 3-18 4-26 5l1-2c20-11 22-34 9-52 0-1 0-1 0 0 6 8 7 23-2 30l-12 9c-6 3-8 8-9 14v1a106 106 0 0 0-16 3c-3 1-7-3-8-6-3-7 2-20 8-24 1 0 1 0 0 0-8 7-17 16-18 26v10l-4 2c-2-2-3-4-3-7-2-20 19-33 36-38-5 5-10 12-10 20v1c1-3 4-4 7-5 11-6 27-7 31-21 1-5 0-16-3-20v-1Z" fill="#bd3434"/><path d="M207 97h-13l1-7c4-11 20-13 24-24 3-6 2-17-2-23 7 7 10 20 9 29-2 12-9 19-19 24Z" fill="#f8f1cc"/><path d="m199 122-2 4-1 5h-20c-6 1-14 2-20 5l-15-15 3-1 11 7c6-3 12-4 18-5h26zm11-18 1 1c-3 1-15 4-16 6s2 4 3 5c7 2 16 3 22 6 1 0 4 2 2 2l-10-3a100 100 0 0 0-56 2l-3-2c6-5 14-7 21-9a201 201 0 0 1 35-8h1z" fill="#fcfcfc"/><path d="M178 70c-7 7-14 27 0 29v1l-18 6v-1c-2-8-1-13 3-20 3-4 10-13 15-15Z" fill="#faf1d2"/><path d="M234 97c-9 6-27 6-38 8-15 2-28 4-41 12l-4 2-4-2 3-2c27-15 55-13 84-18zm-70 53h47v4h-47z" fill="#fcfcfc"/><path d="m176 134 3 13h-2l-6-13h5zm19 0-2 12-3 1 1-13h4zm-11 0 2 13h-3l-3-13h4zm20 1-5 11-2 1 4-13 3 1z" fill="#fbfbfb"/><path d="M204 147h-1l6-11s3 0 2 1l-7 10Z" fill="#f9fafa"/><path d="M173 147h-2l-6-11h2l6 11Z" fill="#f9f9fa"/><path d="m209 147 6-10s3 1 2 2l-7 7-1 1zm-41 0h-1l-7-8-1-1 2-1 7 10z" fill="#f8f9f9"/><path d="M225 128v1l-5 5h-2l5-6h2Z" fill="#f5f7f7"/><path d="m212 104-1 1-1-1h2Z" fill="#a8bcbd"/><path d="M212 104h1-1Z" fill="#48555c"/><path d="M179 100h-1v-1l1 1Z" fill="#c99989"/><path d="M235 97h-1l1-1Z" fill="#b1c7c9"/><path d="M235 97v-1 1-1Z" fill="#5a656a"/><path d="M199 179v6l10 3h1l-2 2c-4 1-13 0-17-2l-3-2c-3 5-8 6-13 6l1 2-3-1 3 4c4 9 1 31-6 38-5 5-12 5-18 4 1 3 5 6 8 7l7 3c-8 1-13 9-18 14h-1l-16-18 1-1c5-5 11-9 15-15l10-40c9-5 20-9 30-13l11 3Z" fill="#f9f9f9"/><path d="m183 228 2 3 3 1v59h-6l1-62v-1zm31-27c1 1 2 8 1 9l-19 3c0-1 0-5-2-6 0-1-2 0-1-2 1-1 19-5 21-4zm1 22-21 5c1-2 1-7-3-7-1 0-3 1-3-1l24-4c2 0 2 5 3 7z" fill="#f7f7f7"/><path d="m178 239 1 5v47c1 2-3 2-3 0 1-16-1-34 1-50l1-2Z" fill="#eaebec"/><path d="M203 164v2h-11v8l-4-1-7 2v-9h-9v-2h31Z" fill="#fbfcfc"/><path d="M201 249v42c-1 2-3-1-2-2v-39c-1-1 1-1 2-1Z" fill="#e3e5e7"/><path d="m195 305-8 12-7-12h15z" fill="#fcfcfc"/><path d="m199 238-1-2v-3l14-3c1-1 2 4 1 4l-14 4Z" fill="#f4f4f4"/><path d="M175 294h27v3h-27z" fill="#fafafa"/><path d="m214 239 1 6-12 2v-4l-1-1 7-2 5-1Z" fill="#f6f7f7"/><path d="M194 242v49h-1v-46c0-2-1-3 1-3Z" fill="#eff0f0"/><path d="M189 214h-4l-1-4c1-1 8-2 9-1 3 4-1 5-4 5zm-5 14v-5l7-1c2 0 2 4 1 5 0 0-7 2-8 1z" fill="#f3f3f3"/><path d="M211 187c-1 0-10-2-11-4l1-3 4 2 6 3v2Z" fill="#f1f1f1"/><path d="M177 300h22v2h-22z" fill="#f3f6f6"/><path d="M178 168v9l-4 1v-10h4Z" fill="#f9f9f9"/><path d="M195 234c1 0 2 0 3 2 0 2-1 2-4 3-2 0-2 0-3-2 0-3 2-3 4-3Z" fill="#f0f0f0"/><path d="m191 215 12-1-2 1-4 1h-11c-1-1 1-1 2-1h3Z" fill="#dfe2e4"/><path d="M188 202v4l-5 2c0-3 2-5 5-6Z" fill="#eff0f0"/><path d="M209 191c-4 4-11 2-15 0h1l8 1 6-1Z" fill="#dee2e4"/><path d="M199 247h-2v-3h4l1 2-3 1Z" fill="#f1f2f2"/><path d="M205 228v1l-12 2c-1-1 1-1 2-2l10-1Z" fill="#dce0e2"/><path d="m192 240 14-2-6 2h-8Z" fill="#bdbfbd"/><path d="M201 167v11h-1v-11h1Z" fill="#f5f5f6"/><path d="m198 247 1 1 8-1-1 1-2 1-7-1h1l-1-1h1Z" fill="#d3d9dc"/><path d="m189 214 2 1h-4v-1h2z" fill="#401e26"/><path d="M183 228v1-2c0-1 0 0 0 0v1z" fill="#b4bbbd"/><path d="M187 214v1l-2-1h2z" fill="#dfe2e4"/><path d="M199 247v1l-1-1h1Z" fill="#74434a"/><path d="M183 226c0 1 0 1 0 0Z" fill="#6c7b7f"/><path d="M183 227v-1 1z" fill="#aab1b3"/><path d="m214 37-1 1-1-1h2Z" fill="#902c2f"/><path d="m217 43-1-1h1Z" fill="#d48f7e"/><path d="M178 70h1-1Z" fill="#d37a6e"/><path d="M178 70Z" fill="#ddbfa7"/><path d="M217 43v-1 1z" fill="#edd3b4"/></svg>
