<svg width="32" height="32" viewBox="0 0 32 32" fill="none" xmlns="http://www.w3.org/2000/svg">
<rect width="33" height="33" fill="#1ACC6C"/>
<path d="M24.9983 21.0425C24.9983 20.8223 24.8166 20.6572 24.5895 20.6572C23.0794 20.6572 21.785 20.4591 20.6155 20.0629C19.9002 19.8318 19.253 19.4796 18.7194 19.0613L18.6853 19.0283L18.7194 18.9953C19.9683 17.9497 20.9221 16.783 21.5806 15.5283C21.8872 14.934 22.2165 14.1415 22.1029 13.316C21.9553 12.2814 21.0924 11.566 19.8889 11.5C18.1516 11.3569 16.5053 12.3255 15.7105 13.9544C15.3244 14.7248 15.1541 15.5723 15.2109 16.4308C15.2563 17.3223 15.5742 18.2028 16.1192 18.9843L16.1419 19.0173L16.1079 19.0393C14.6545 19.9308 13.0763 20.4041 11.5435 20.4151C11.0552 20.4151 10.6805 20.3821 10.3399 20.316C9.89709 20.217 9.55646 20.0519 9.32938 19.8318C8.76166 19.2484 8.87521 18.412 9.04552 17.7406C9.43156 16.3978 10.2945 15.022 11.6116 13.6352C12.4177 12.7987 14.03 11.3239 15.8581 10.8836C16.335 10.7626 16.6983 10.3774 16.7664 9.89308C16.8005 9.69497 16.8118 9.49686 16.8118 9.32075C16.8118 9.08962 16.7891 8.84748 16.7437 8.57233C16.6756 8.24214 16.3804 8 16.0398 8C15.6991 8 15.9943 8 15.983 8C15.6764 8.02201 15.3585 8.07704 15.0519 8.15409C13.4169 8.58333 11.7933 9.67296 10.2264 11.4009C8.28478 13.6022 7.06988 16.1667 7.00175 18.2689C6.95633 19.9748 7.79655 21.2406 9.30667 21.7469C9.81761 21.923 10.3853 22 11.0552 22C11.0779 22 11.112 22 11.1347 22C13.1558 22 15.2336 21.3616 17.1638 20.1509L17.1865 20.1289L17.2092 20.1509C17.5839 20.4591 18.004 20.7233 18.4355 20.9214C20.3544 21.8679 22.5457 21.978 24.2375 21.967C24.3397 21.967 24.4646 21.967 24.5895 21.967C24.7031 21.967 24.8052 21.923 24.8847 21.8569C24.9642 21.7799 25.0096 21.6808 24.9983 21.5708V21.0425ZM17.7202 17.8396L17.6748 17.8726L17.6521 17.8286C17.5158 17.5645 17.4023 17.2893 17.3455 17.0031C16.9481 15.3742 17.9813 13.9214 19.1849 13.5912C19.4233 13.5252 19.6845 13.4921 19.9456 13.5031C20.0024 13.5031 20.0592 13.5142 20.1159 13.5252C20.1614 13.5362 20.2068 13.5582 20.2295 13.5912C20.3203 13.6792 20.2976 13.8553 20.2749 13.9984V14.0204C20.2295 14.3506 20.0932 14.7469 19.8548 15.1871C19.3211 16.1447 18.5831 17.0692 17.7202 17.8396Z" fill="white"/>
</svg>
