<svg version="1.1" id="Layer_1" xmlns="http://www.w3.org/2000/svg" xmlns:xlink="http://www.w3.org/1999/xlink" x="0px" y="0px"
	 width="100%" viewBox="0 0 2048 2048" enable-background="new 0 0 2048 2048" xml:space="preserve">
<path fill="#1F2747" opacity="1.000000" stroke="none" 
	d="
M1348.000000,2049.000000 
	C898.666687,2049.000000 449.833344,2049.000000 1.000000,2049.000000 
	C1.000000,1366.333374 1.000000,683.666687 1.000000,1.000000 
	C683.666687,1.000000 1366.333374,1.000000 2049.000000,1.000000 
	C2049.000000,683.666687 2049.000000,1366.333374 2049.000000,2049.000000 
	C1815.500000,2049.000000 1582.000000,2049.000000 1348.000000,2049.000000 
M1033.380005,856.380615 
	C907.796936,730.800171 782.213806,605.219727 656.473999,479.482574 
	C563.779907,545.089111 491.570801,628.040222 441.327454,729.314026 
	C383.977234,844.912964 361.528015,967.272278 376.127075,1095.829102 
	C390.225372,1219.976685 436.306671,1331.252563 512.864624,1429.856445 
	C553.834473,1482.624268 601.873840,1528.048218 656.766357,1566.456177 
	C658.625000,1564.508545 659.975464,1563.034058 661.388000,1561.621460 
	C784.160034,1438.840698 906.936157,1316.064087 1029.720459,1193.295532 
	C1031.127075,1191.889160 1032.641968,1190.590942 1034.121338,1190.292114 
	C1034.136230,1192.458618 1034.164062,1194.625244 1034.164062,1196.791748 
	C1034.166138,1357.786133 1034.166016,1518.780518 1034.166016,1679.774902 
	C1034.166016,1681.721558 1034.166016,1683.668091 1034.166016,1685.598511 
	C1151.280762,1687.349854 1317.152100,1651.418457 1461.455078,1528.037598 
	C1567.551514,1437.324097 1638.578491,1324.172241 1675.297729,1188.833130 
	C1672.565674,1188.833130 1670.583984,1188.833130 1668.602417,1188.833130 
	C1459.276367,1188.833130 1249.950317,1188.834106 1040.624268,1188.820557 
	C1038.466919,1188.820435 1036.309692,1188.629883 1034.193481,1187.651001 
	C1034.184692,1077.502319 1034.175903,967.353577 1035.077881,857.219421 
	C1037.077393,857.201904 1039.076904,857.169250 1041.076416,857.169250 
	C1250.395630,857.166931 1459.714966,857.166992 1669.034180,857.166931 
	C1670.947510,857.166931 1672.860840,857.166931 1675.704224,857.166931 
	C1624.563843,677.167236 1519.918335,539.357788 1358.568604,445.926178 
	C1258.615234,388.047028 1150.067261,360.379456 1034.166016,360.145416 
	C1034.166016,362.452881 1034.166016,364.424591 1034.166016,366.396301 
	C1034.166016,527.718750 1034.167236,689.041260 1034.151611,850.363708 
	C1034.151367,852.520020 1033.935425,854.676392 1033.380005,856.380615 
z"/>
<path fill="#FFFFFF" opacity="1.000000" stroke="none" 
	d="
M1034.106201,1189.242188 
	C1032.641968,1190.590942 1031.127075,1191.889160 1029.720459,1193.295532 
	C906.936157,1316.064087 784.160034,1438.840698 661.388000,1561.621460 
	C659.975464,1563.034058 658.625000,1564.508545 656.766357,1566.456177 
	C601.873840,1528.048218 553.834473,1482.624268 512.864624,1429.856445 
	C436.306671,1331.252563 390.225372,1219.976685 376.127075,1095.829102 
	C361.528015,967.272278 383.977234,844.912964 441.327454,729.314026 
	C491.570801,628.040222 563.779907,545.089111 656.473999,479.482574 
	C782.213806,605.219727 907.796936,730.800171 1033.688477,856.698242 
	C1033.996826,857.015869 1034.167114,857.204895 1034.167114,857.204895 
	C1034.175903,967.353577 1034.184692,1077.502319 1034.150879,1188.268433 
	C1034.108276,1188.885864 1034.106201,1189.242188 1034.106201,1189.242188 
z"/>
<path fill="#FFFFFF" opacity="1.000000" stroke="none" 
	d="
M1033.908447,856.924316 
	C1033.935425,854.676392 1034.151367,852.520020 1034.151611,850.363708 
	C1034.167236,689.041260 1034.166016,527.718750 1034.166016,366.396301 
	C1034.166016,364.424591 1034.166016,362.452881 1034.166016,360.145416 
	C1150.067261,360.379456 1258.615234,388.047028 1358.568604,445.926178 
	C1519.918335,539.357788 1624.563843,677.167236 1675.704224,857.166931 
	C1672.860840,857.166931 1670.947510,857.166931 1669.034180,857.166931 
	C1459.714966,857.166992 1250.395630,857.166931 1041.076416,857.169250 
	C1039.076904,857.169250 1037.077393,857.201904 1034.622559,857.212158 
	C1034.167114,857.204895 1033.996826,857.015869 1033.908447,856.924316 
z"/>
<path fill="#FFFFFF" opacity="1.000000" stroke="none" 
	d="
M1034.113770,1189.767090 
	C1034.106201,1189.242188 1034.108276,1188.885864 1034.130371,1188.707031 
	C1036.309692,1188.629883 1038.466919,1188.820435 1040.624268,1188.820557 
	C1249.950317,1188.834106 1459.276367,1188.833130 1668.602417,1188.833130 
	C1670.583984,1188.833130 1672.565674,1188.833130 1675.297729,1188.833130 
	C1638.578491,1324.172241 1567.551514,1437.324097 1461.455078,1528.037598 
	C1317.152100,1651.418457 1151.280762,1687.349854 1034.166016,1685.598511 
	C1034.166016,1683.668091 1034.166016,1681.721558 1034.166016,1679.774902 
	C1034.166016,1518.780518 1034.166138,1357.786133 1034.164062,1196.791748 
	C1034.164062,1194.625244 1034.136230,1192.458618 1034.113770,1189.767090 
z"/>
</svg>