<?xml version="1.0" standalone="no"?>
<!DOCTYPE svg PUBLIC "-//W3C//DTD SVG 20010904//EN"
 "http://www.w3.org/TR/2001/REC-SVG-20010904/DTD/svg10.dtd">
<svg version="1.0" xmlns="http://www.w3.org/2000/svg"
 width="716.000000pt" height="716.000000pt" viewBox="0 0 716.000000 716.000000"
 preserveAspectRatio="xMidYMid meet">

<g transform="translate(0.000000,716.000000) scale(0.100000,-0.100000)"
fill="#000000" stroke="none">
<path d="M0 3580 l0 -3580 3580 0 3580 0 0 3580 0 3580 -3580 0 -3580 0 0
-3580z m3563 759 c-7 -6 -177 -85 -272 -126 -18 -8 -31 -16 -29 -18 3 -3 69
24 147 60 79 36 147 65 152 65 5 0 9 -395 9 -915 0 -503 -3 -915 -6 -915 -6 0
-228 129 -344 200 -25 15 -124 74 -220 130 -96 56 -206 122 -245 145 -38 23
-149 88 -245 145 -530 312 -683 405 -682 415 0 6 47 31 104 57 56 26 137 63
178 82 41 19 171 78 287 130 117 53 248 112 290 132 103 47 489 222 532 241
18 8 31 16 29 18 -2 3 -139 -56 -304 -131 -164 -75 -436 -198 -604 -274 -168
-76 -351 -159 -407 -186 -57 -26 -106 -45 -109 -42 -3 4 53 102 124 220 334
552 374 620 379 637 3 13 -21 32 -99 79 -254 152 -858 518 -876 532 -21 15
-18 21 146 292 92 153 172 278 179 278 6 0 206 -118 445 -262 537 -324 544
-328 556 -328 6 0 38 46 72 103 57 94 145 241 640 1062 l175 289 3 -1054 c1
-580 -1 -1057 -5 -1061z m106 1996 c27 -44 180 -298 341 -565 161 -267 331
-548 377 -625 46 -77 88 -141 93 -143 11 -4 28 6 584 341 224 136 413 247 420
247 6 0 86 -125 178 -278 163 -271 167 -277 147 -292 -23 -17 -715 -437 -877
-532 -75 -44 -102 -65 -99 -77 3 -9 84 -146 180 -306 97 -159 210 -348 253
-418 42 -70 74 -130 70 -134 -3 -3 -74 25 -157 63 -84 38 -157 70 -163 72 -30
9 44 -29 173 -88 80 -36 146 -70 147 -75 2 -6 -119 -82 -269 -170 -150 -87
-315 -184 -367 -215 -52 -31 -174 -103 -270 -160 -96 -57 -206 -122 -245 -145
-38 -24 -149 -89 -245 -145 -96 -57 -211 -125 -255 -151 -43 -27 -83 -49 -87
-49 -4 0 -8 412 -8 915 0 557 4 915 9 915 5 0 53 -20 107 -45 53 -25 99 -44
101 -42 2 2 -46 27 -107 55 l-110 51 0 1058 c1 957 2 1056 16 1038 9 -11 37
-56 63 -100z m-1807 -3184 c35 -19 180 -105 371 -218 61 -36 173 -102 247
-146 139 -82 265 -156 455 -269 61 -36 223 -131 360 -212 138 -81 256 -153
263 -160 9 -9 12 -163 10 -726 l-3 -715 -28 40 c-93 130 -412 579 -485 683
-48 67 -141 198 -208 291 l-120 168 -374 -264 -374 -265 -23 29 c-13 15 -40
53 -60 83 -21 30 -77 110 -125 176 -49 67 -88 126 -88 130 1 5 45 40 98 78
335 236 619 439 630 450 10 10 -32 75 -224 347 -373 526 -369 519 -360 519 3
0 20 -8 38 -19z m3465 5 c-3 -8 -137 -199 -298 -426 -282 -399 -291 -413 -273
-430 17 -16 599 -430 687 -489 20 -13 37 -29 37 -34 0 -5 -39 -64 -87 -131
-49 -66 -105 -146 -126 -176 -20 -30 -47 -68 -60 -84 l-23 -28 -294 209 c-162
115 -331 234 -376 265 l-81 57 -193 -272 c-106 -150 -234 -330 -284 -400 -50
-70 -120 -169 -156 -220 -36 -51 -94 -132 -130 -182 -35 -49 -67 -94 -72 -99
-4 -6 -8 314 -8 710 l0 720 53 30 c28 17 180 106 337 199 608 359 680 402 850
502 380 225 495 293 499 293 2 0 1 -6 -2 -14z"/>
<path d="M3854 4210 c22 -12 152 -73 290 -135 138 -62 280 -127 316 -143 223
-104 534 -241 538 -238 2 3 -11 11 -29 19 -58 25 -430 193 -514 232 -136 64
-609 277 -625 282 -8 2 3 -6 24 -17z"/>
</g>
</svg>
