<svg width="336" height="336" viewBox="0 0 336 336" fill="none" xmlns="http://www.w3.org/2000/svg">
<rect width="336" height="336" fill="black"/>
<g clip-path="url(#clip0_3089_99789)">
<path d="M189.35 234.036C187.929 239.055 184.953 243.494 180.85 246.716C176.738 249.928 171.715 251.756 166.5 251.936H131.75L61 104.006H131.66L167 178.006C167 178.006 192.79 221.876 189.35 234.036Z" fill="#CDADEF"/>
<path d="M189.35 234.036C192.79 221.876 167.01 178.036 167.01 178.036H205.22L189.35 234.036Z" fill="url(#paint0_linear_3089_99789)"/>
<path d="M205.221 178.036H274.221V104.036H246.661C241.425 104.039 236.327 105.706 232.101 108.796C227.874 111.892 224.743 116.252 223.161 121.246L205.221 178.036Z" fill="#CDADEF"/>
</g>
<defs>
<linearGradient id="paint0_linear_3089_99789" x1="187.23" y1="174.116" x2="170.73" y2="232.616" gradientUnits="userSpaceOnUse">
<stop stop-color="#CDADEF"/>
<stop offset="1" stop-color="#8458B3"/>
</linearGradient>
<clipPath id="clip0_3089_99789">
<rect width="213.22" height="147.93" fill="white" transform="translate(61 104.006)"/>
</clipPath>
</defs>
</svg>
