
<svg xmlns="http://www.w3.org/2000/svg" xmlns:xlink="http://www.w3.org/1999/xlink" width="250px" height="250px" viewBox="0 0 250 250" version="1.1">
<g id="surface1">
<rect x="0" y="0" width="250" height="250" style="fill:rgb(0%,0%,0%);fill-opacity:1;stroke:none;"/>
<path style=" stroke:none;fill-rule:evenodd;fill:rgb(100%,100%,100%);fill-opacity:1;" d="M 112.6875 87.683594 L 112.320312 87.683594 C 109.175781 87.683594 106.914062 85.410156 106.914062 82.257812 L 106.914062 81.886719 C 106.914062 79.414062 106.179688 77.226562 104.621094 75.660156 C 103.066406 74.097656 100.886719 73.359375 98.425781 73.359375 L 61.8125 73.359375 C 59.351562 73.359375 57.171875 74.097656 55.617188 75.660156 C 54.058594 77.226562 53.324219 79.414062 53.324219 81.886719 L 53.324219 82.257812 C 53.324219 85.410156 51.058594 87.683594 47.917969 87.683594 L 47.550781 87.683594 C 45.089844 87.683594 42.910156 88.425781 41.355469 89.988281 C 39.796875 91.550781 39.0625 93.738281 39.0625 96.210938 L 39.0625 153.800781 C 39.0625 156.273438 39.796875 158.464844 41.355469 160.027344 C 42.910156 161.589844 45.089844 162.328125 47.550781 162.328125 L 47.917969 162.328125 C 51.058594 162.328125 53.324219 164.605469 53.324219 167.757812 L 53.324219 168.128906 C 53.324219 170.601562 54.058594 172.789062 55.617188 174.351562 C 57.171875 175.917969 59.351562 176.65625 61.8125 176.65625 L 98.453125 176.65625 C 100.914062 176.65625 103.09375 175.917969 104.652344 174.351562 C 106.207031 172.789062 106.941406 170.601562 106.941406 168.128906 L 106.941406 167.757812 C 106.941406 164.605469 109.207031 162.328125 112.347656 162.328125 L 112.714844 162.328125 C 115.175781 162.328125 117.355469 161.589844 118.910156 160.027344 C 120.46875 158.464844 121.203125 156.273438 121.203125 153.800781 L 121.203125 96.210938 C 121.203125 93.738281 120.46875 91.550781 118.910156 89.988281 C 117.328125 88.425781 115.148438 87.683594 112.6875 87.683594 Z M 58.191406 141.125 L 58.191406 96.554688 C 58.191406 93.570312 60.59375 91.125 63.59375 91.125 L 93.277344 91.125 C 96.5 91.125 98.425781 94.765625 96.613281 97.433594 L 65.519531 143.398438 C 63.3125 146.695312 58.191406 145.105469 58.191406 141.125 Z M 103.488281 153.433594 C 103.488281 156.417969 101.085938 158.863281 98.085938 158.863281 L 69.28125 158.863281 C 66.054688 158.863281 64.132812 155.222656 65.972656 152.550781 L 96.164062 108.207031 C 98.398438 104.941406 103.488281 106.53125 103.488281 110.484375 Z M 103.488281 153.433594 "/>
<path style=" stroke:none;fill-rule:evenodd;fill:rgb(100%,100%,100%);fill-opacity:1;" d="M 202.421875 87.683594 L 202.054688 87.683594 C 198.914062 87.683594 196.648438 85.410156 196.648438 82.257812 L 196.648438 81.886719 C 196.648438 79.414062 195.914062 77.226562 194.355469 75.660156 C 192.800781 74.097656 190.621094 73.359375 188.160156 73.359375 L 151.546875 73.359375 C 149.085938 73.359375 146.90625 74.097656 145.347656 75.660156 C 143.792969 77.226562 143.058594 79.414062 143.058594 81.886719 L 143.058594 82.257812 C 143.058594 85.410156 140.792969 87.683594 137.652344 87.683594 L 137.285156 87.683594 C 134.824219 87.683594 132.644531 88.425781 131.089844 89.988281 C 129.535156 91.550781 128.796875 93.738281 128.796875 96.210938 L 128.796875 153.800781 C 128.796875 156.273438 129.535156 158.464844 131.089844 160.027344 C 132.644531 161.589844 134.824219 162.328125 137.285156 162.328125 L 137.652344 162.328125 C 140.792969 162.328125 143.058594 164.605469 143.058594 167.757812 L 143.058594 168.128906 C 143.058594 170.601562 143.792969 172.789062 145.347656 174.351562 C 146.90625 175.917969 149.085938 176.65625 151.546875 176.65625 L 188.1875 176.65625 C 190.648438 176.65625 192.828125 175.917969 194.386719 174.351562 C 195.941406 172.789062 196.675781 170.601562 196.675781 168.128906 L 196.675781 167.757812 C 196.675781 164.605469 198.941406 162.328125 202.082031 162.328125 L 202.449219 162.328125 C 204.910156 162.328125 207.089844 161.589844 208.644531 160.027344 C 210.203125 158.464844 210.9375 156.273438 210.9375 153.800781 L 210.9375 96.210938 C 210.9375 93.738281 210.203125 91.550781 208.644531 89.988281 C 207.0625 88.425781 204.882812 87.683594 202.421875 87.683594 Z M 147.925781 141.125 L 147.925781 96.554688 C 147.925781 93.570312 150.328125 91.125 153.328125 91.125 L 183.011719 91.125 C 186.238281 91.125 188.160156 94.765625 186.347656 97.433594 L 155.253906 143.398438 C 153.046875 146.695312 147.925781 145.105469 147.925781 141.125 Z M 187.820312 158.863281 C 190.820312 158.863281 193.226562 156.417969 193.226562 153.433594 L 193.199219 110.484375 C 193.199219 106.53125 188.105469 104.941406 185.867188 108.210938 L 155.679688 152.550781 C 153.839844 155.222656 155.761719 158.863281 158.988281 158.863281 Z M 187.820312 158.863281 "/>
</g>
</svg>
