<svg height="250" viewBox="0 0 250 250" width="250" xmlns="http://www.w3.org/2000/svg"><path d="m0 0h250v250h-250z"/><g fill="#fff" fill-rule="evenodd"><path d="m112.6875 87.683594h-.367188c-3.144531 0-5.40625-2.273438-5.40625-5.425782v-.371093c0-2.472657-.734374-4.660157-2.292968-6.226563-1.554688-1.5625-3.734375-2.300781-6.195313-2.300781h-36.613281c-2.460938 0-4.640625.738281-6.195312 2.300781-1.558594 1.566406-2.292969 3.753906-2.292969 6.226563v.371093c0 3.152344-2.265625 5.425782-5.40625 5.425782h-.367188c-2.460937 0-4.640625.742187-6.195312 2.304687-1.558594 1.5625-2.292969 3.75-2.292969 6.222657v57.589843c0 2.472657.734375 4.664063 2.292969 6.226563 1.554687 1.5625 3.734375 2.300781 6.195312 2.300781h.367188c3.140625 0 5.40625 2.277344 5.40625 5.429687v.371094c0 2.472656.734375 4.660156 2.292969 6.222656 1.554687 1.566407 3.734374 2.304688 6.195312 2.304688h36.640625c2.460937 0 4.640625-.738281 6.199219-2.304688 1.554687-1.5625 2.289062-3.75 2.289062-6.222656v-.371094c0-3.152343 2.265625-5.429687 5.40625-5.429687h.367188c2.460937 0 4.640625-.738281 6.195312-2.300781 1.558594-1.5625 2.292969-3.753906 2.292969-6.226563v-57.589843c0-2.472657-.734375-4.660157-2.292969-6.222657-1.582031-1.5625-3.761718-2.304687-6.222656-2.304687zm-54.496094 53.441406v-44.570312c0-2.984376 2.402344-5.429688 5.402344-5.429688h29.683594c3.222656 0 5.148437 3.640625 3.335937 6.308594l-31.09375 45.964844c-2.207031 3.296874-7.328125 1.707031-7.328125-2.273438zm45.296875 12.308594c0 2.984375-2.402343 5.429687-5.402343 5.429687h-28.804688c-3.226562 0-5.148438-3.640625-3.308594-6.3125l30.191406-44.34375c2.234376-3.265625 7.324219-1.675781 7.324219 2.277344zm0 0"/><path d="m202.421875 87.683594h-.367187c-3.140626 0-5.40625-2.273438-5.40625-5.425782v-.371093c0-2.472657-.734376-4.660157-2.292969-6.226563-1.554688-1.5625-3.734375-2.300781-6.195313-2.300781h-36.613281c-2.460937 0-4.640625.738281-6.199219 2.300781-1.554687 1.566406-2.289062 3.753906-2.289062 6.226563v.371093c0 3.152344-2.265625 5.425782-5.40625 5.425782h-.367188c-2.460937 0-4.640625.742187-6.195312 2.304687-1.554688 1.5625-2.292969 3.75-2.292969 6.222657v57.589843c0 2.472657.738281 4.664063 2.292969 6.226563 1.554687 1.5625 3.734375 2.300781 6.195312 2.300781h.367188c3.140625 0 5.40625 2.277344 5.40625 5.429687v.371094c0 2.472656.734375 4.660156 2.289062 6.222656 1.558594 1.566407 3.738282 2.304688 6.199219 2.304688h36.640625c2.460938 0 4.640625-.738281 6.199219-2.304688 1.554687-1.5625 2.289062-3.75 2.289062-6.222656v-.371094c0-3.152343 2.265625-5.429687 5.40625-5.429687h.367188c2.460937 0 4.640625-.738281 6.195312-2.300781 1.558594-1.5625 2.292969-3.753906 2.292969-6.226563v-57.589843c0-2.472657-.734375-4.660157-2.292969-6.222657-1.582031-1.5625-3.761719-2.304687-6.222656-2.304687zm-54.496094 53.441406v-44.570312c0-2.984376 2.402344-5.429688 5.402344-5.429688h29.683594c3.226562 0 5.148437 3.640625 3.335937 6.308594l-31.09375 45.964844c-2.207031 3.296874-7.328125 1.707031-7.328125-2.273438zm39.894531 17.738281c3 0 5.40625-2.445312 5.40625-5.429687l-.027343-42.949219c0-3.953125-5.09375-5.542969-7.332031-2.273437l-30.1875 44.339843c-1.839844 2.671875.082031 6.3125 3.308593 6.3125zm0 0"/></g></svg>