<!-- Generator: Adobe Illustrator 16.0.0, SVG Export Plug-In . SVG Version: 6.00 Build 0)  -->
<svg xmlns="http://www.w3.org/2000/svg" xmlns:xlink="http://www.w3.org/1999/xlink" width="250px" height="250px" viewBox="0 0 250 250" version="1.1">
<g id="surface1">
<path style=" stroke:none;fill-rule:nonzero;fill:rgb(100%,49.803922%,0%);fill-opacity:1;" d="M 124.875 6.214844 C 60.328125 6.214844 8 58.542969 8 123.089844 C 8 187.640625 60.328125 239.964844 124.875 239.964844 C 189.421875 239.964844 241.75 187.640625 241.75 123.089844 C 241.75 58.542969 189.421875 6.214844 124.875 6.214844 Z M 236.625 123.125 C 236.625 138.210938 233.671875 152.84375 227.839844 166.625 C 222.214844 179.929688 214.15625 191.882812 203.894531 202.144531 C 193.632812 212.40625 181.679688 220.460938 168.375 226.089844 C 154.59375 231.917969 139.960938 234.875 124.875 234.875 C 109.789062 234.875 95.15625 231.917969 81.375 226.089844 C 68.070312 220.460938 56.117188 212.40625 45.855469 202.144531 C 35.59375 191.882812 27.535156 179.929688 21.90625 166.625 C 16.078125 152.84375 13.125 138.210938 13.125 123.125 C 13.125 108.039062 16.078125 93.40625 21.90625 79.625 C 27.535156 66.316406 35.59375 54.367188 45.855469 44.105469 C 56.117188 33.84375 68.070312 25.785156 81.375 20.15625 C 95.15625 14.328125 109.789062 11.375 124.875 11.375 C 139.960938 11.375 154.59375 14.328125 168.375 20.15625 C 181.679688 25.785156 193.632812 33.84375 203.894531 44.105469 C 214.15625 54.367188 222.214844 66.316406 227.839844 79.625 C 233.671875 93.40625 236.625 108.039062 236.625 123.125 Z M 236.625 123.125 "/>
<path style=" stroke:none;fill-rule:nonzero;fill:rgb(100%,49.803922%,0%);fill-opacity:1;" d="M 124.875 17.375 C 66.5625 17.375 19.125 64.8125 19.125 123.125 C 19.125 181.433594 66.5625 228.875 124.875 228.875 C 183.1875 228.875 230.625 181.433594 230.625 123.125 C 230.625 64.8125 183.1875 17.375 124.875 17.375 Z M 174.4375 139.382812 C 172.269531 147.3125 108.816406 204.902344 104.011719 203.304688 C 99.207031 201.703125 75.214844 114.984375 77.382812 107.054688 C 79.550781 99.128906 143.007812 41.535156 147.808594 43.136719 C 152.613281 44.738281 176.605469 131.457031 174.4375 139.382812 Z M 174.4375 139.382812 "/>
<path style=" stroke:none;fill-rule:nonzero;fill:rgb(100%,100%,100%);fill-opacity:1;" d="M 147.808594 43.136719 C 143.007812 41.535156 79.550781 99.128906 77.382812 107.054688 C 75.214844 114.984375 99.207031 201.703125 104.011719 203.304688 C 108.816406 204.902344 172.269531 147.3125 174.4375 139.382812 C 176.605469 131.457031 152.613281 44.738281 147.808594 43.136719 Z M 147.808594 43.136719 "/>
<path style=" stroke:none;fill-rule:nonzero;fill:rgb(100%,100%,100%);fill-opacity:1;" d="M 168.375 20.15625 C 154.59375 14.328125 139.960938 11.375 124.875 11.375 C 109.789062 11.375 95.15625 14.328125 81.375 20.15625 C 68.070312 25.785156 56.117188 33.84375 45.855469 44.105469 C 35.59375 54.367188 27.535156 66.316406 21.90625 79.625 C 16.078125 93.40625 13.125 108.039062 13.125 123.125 C 13.125 138.210938 16.078125 152.84375 21.90625 166.625 C 27.535156 179.929688 35.59375 191.882812 45.855469 202.144531 C 56.117188 212.40625 68.070312 220.460938 81.375 226.089844 C 95.15625 231.917969 109.789062 234.875 124.875 234.875 C 139.960938 234.875 154.59375 231.917969 168.375 226.089844 C 181.679688 220.460938 193.632812 212.40625 203.894531 202.144531 C 214.15625 191.882812 222.214844 179.929688 227.839844 166.625 C 233.671875 152.84375 236.625 138.210938 236.625 123.125 C 236.625 108.039062 233.671875 93.40625 227.839844 79.625 C 222.214844 66.316406 214.15625 54.367188 203.894531 44.105469 C 193.632812 33.84375 181.683594 25.785156 168.375 20.15625 Z M 230.625 123.125 C 230.625 181.433594 183.1875 228.875 124.875 228.875 C 66.5625 228.875 19.125 181.433594 19.125 123.125 C 19.125 64.8125 66.5625 17.375 124.875 17.375 C 183.1875 17.375 230.625 64.8125 230.625 123.125 Z M 230.625 123.125 "/>
</g>
</svg>
