<svg height="250" viewBox="0 0 250 250" width="250" xmlns="http://www.w3.org/2000/svg"><path d="m124.875 6.214844c-64.546875 0-116.875 52.328125-116.875 116.875 0 64.550781 52.328125 116.875 116.875 116.875s116.875-52.324219 116.875-116.875c0-64.546875-52.328125-116.875-116.875-116.875zm111.75 116.910156c0 15.085938-2.953125 29.71875-8.785156 43.5-5.625 13.304688-13.683594 25.257812-23.945313 35.519531s-22.214843 18.316407-35.519531 23.945313c-13.78125 5.828125-28.414062 8.785156-43.5 8.785156s-29.71875-2.957031-43.5-8.785156c-13.304688-5.628906-25.257812-13.683594-35.519531-23.945313s-18.320313-22.214843-23.949219-35.519531c-5.828125-13.78125-8.78125-28.414062-8.78125-43.5s2.953125-29.71875 8.78125-43.5c5.628906-13.308594 13.6875-25.257812 23.949219-35.519531s22.214843-18.320313 35.519531-23.949219c13.78125-5.828125 28.414062-8.78125 43.5-8.78125s29.71875 2.953125 43.5 8.78125c13.304688 5.628906 25.257812 13.6875 35.519531 23.949219s18.320313 22.210937 23.945313 35.519531c5.832031 13.78125 8.785156 28.414062 8.785156 43.5zm0 0" fill="#ff7f00"/><path d="m124.875 17.375c-58.3125 0-105.75 47.4375-105.75 105.75 0 58.308594 47.4375 105.75 105.75 105.75s105.75-47.441406 105.75-105.75c0-58.3125-47.4375-105.75-105.75-105.75zm49.5625 122.007812c-2.167969 7.929688-65.621094 65.519532-70.425781 63.921876-4.804688-1.601563-28.796875-88.320313-26.628907-96.25 2.167969-7.925782 65.625-65.519532 70.425782-63.917969 4.804687 1.601562 28.796875 88.320312 26.628906 96.246093zm0 0" fill="#ff7f00"/><g fill="#fff"><path d="m147.808594 43.136719c-4.800782-1.601563-68.257813 55.992187-70.425782 63.917969-2.167968 7.929687 21.824219 94.648437 26.628907 96.25 4.804687 1.597656 68.257812-55.992188 70.425781-63.921876 2.167969-7.925781-21.824219-94.644531-26.628906-96.246093zm0 0"/><path d="m168.375 20.15625c-13.78125-5.828125-28.414062-8.78125-43.5-8.78125s-29.71875 2.953125-43.5 8.78125c-13.304688 5.628906-25.257812 13.6875-35.519531 23.949219s-18.320313 22.210937-23.949219 35.519531c-5.828125 13.78125-8.78125 28.414062-8.78125 43.5s2.953125 29.71875 8.78125 43.5c5.628906 13.304688 13.6875 25.257812 23.949219 35.519531s22.214843 18.316407 35.519531 23.945313c13.78125 5.828125 28.414062 8.785156 43.5 8.785156s29.71875-2.957031 43.5-8.785156c13.304688-5.628906 25.257812-13.683594 35.519531-23.945313s18.320313-22.214843 23.945313-35.519531c5.832031-13.78125 8.785156-28.414062 8.785156-43.5s-2.953125-29.71875-8.785156-43.5c-5.625-13.308594-13.683594-25.257812-23.945313-35.519531s-22.210937-18.320313-35.519531-23.949219zm62.25 102.96875c0 58.308594-47.4375 105.75-105.75 105.75s-105.75-47.441406-105.75-105.75c0-58.3125 47.4375-105.75 105.75-105.75s105.75 47.4375 105.75 105.75zm0 0"/></g></svg>