<?xml version="1.0" encoding="UTF-8"?>
<svg id="Layer_1" data-name="Layer 1" xmlns="http://www.w3.org/2000/svg" viewBox="0 0 1080 1080">
  <defs>
    <style>
      .cls-1 {
        fill: #a5a9ad;
      }

      .cls-2 {
        fill: #b1b4b7;
      }

      .cls-3 {
        fill: #dbdee0;
      }

      .cls-4 {
        fill: #444c52;
      }

      .cls-5 {
        fill: #f8f1cc;
      }

      .cls-6 {
        fill: #fcfcfc;
      }

      .cls-7 {
        fill: #bdbdbb;
      }

      .cls-8 {
        fill: #f6f6f6;
      }

      .cls-9 {
        fill: #b8bbbd;
      }

      .cls-10 {
        fill: #9fa3a5;
      }

      .cls-11 {
        fill: #ccbcbe;
      }

      .cls-12 {
        fill: #f0f0f0;
      }

      .cls-13 {
        fill: #eceded;
      }

      .cls-14 {
        fill: #582228;
      }

      .cls-15 {
        fill: #5c6268;
      }

      .cls-16 {
        fill: #31393f;
      }

      .cls-17 {
        fill: #d3796d;
      }

      .cls-18 {
        fill: #8b8f93;
      }

      .cls-19 {
        fill: #6d7277;
      }

      .cls-20 {
        fill: #fbfbfb;
      }

      .cls-21 {
        fill: #eac6a9;
      }

      .cls-22 {
        fill: #f9f9f9;
      }

      .cls-23 {
        fill: #f1f2f2;
      }

      .cls-24 {
        fill: #fafbfb;
      }

      .cls-25 {
        fill: #ac9194;
      }

      .cls-26 {
        fill: #4d545a;
      }

      .cls-27 {
        fill: #e0e2e4;
      }

      .cls-28 {
        fill: #74474c;
      }

      .cls-29 {
        fill: #b3b6b9;
      }

      .cls-30 {
        fill: #e1b49f;
      }

      .cls-31 {
        fill: #de9f8b;
      }

      .cls-32 {
        fill: #474e55;
      }

      .cls-33 {
        fill: #73797e;
      }

      .cls-34 {
        fill: #dddfe1;
      }

      .cls-35 {
        fill: #f4f4f4;
      }

      .cls-36 {
        fill: #faf1d2;
      }

      .cls-37 {
        fill: #babdbf;
      }

      .cls-38 {
        fill: #f2f3f3;
      }

      .cls-39 {
        fill: #c1adaf;
      }

      .cls-40 {
        fill: #bd3434;
      }

      .cls-41 {
        fill: #5c222a;
      }

      .cls-42 {
        fill: #fefefe;
      }

      .cls-43 {
        fill: #e2e4e6;
      }

      .cls-44 {
        fill: #f8f8f8;
      }

      .cls-45 {
        fill: #ebeced;
      }

      .cls-46 {
        fill: #111a22;
      }

      .cls-47 {
        fill: #f7f7f7;
      }

      .cls-48 {
        fill: #d2d4d7;
      }

      .cls-49 {
        fill: #585e64;
      }

      .cls-50 {
        fill: #eff1f1;
      }

      .cls-51 {
        fill: #3f464c;
      }

      .cls-52 {
        fill: #f0f0f1;
      }
    </style>
  </defs>
  <rect class="cls-42" width="1080" height="1080"/>
  <path class="cls-46" d="M740.16,261.12c-2.37,39.23-41.5,80.67-66.19,108.85.25,1.19,17.63,11.32,20.42,13.25,86.17,59.78,125.27,165.47,94.76,267.2-24.88,82.93-95.88,147.48-180.4,165.67l-1.12,47.38c.23,1.15,2.79-.1,3.01,1.05.41,2.1.23,13.96-.3,16.04-1.11,4.37-12.18,13.64-13.64,18.04-1.13,3.39.35,6.78-1.63,9.89l-30.59,44.78-1.98-.6-29.94-46.74c-1.02-1.84.62-3.45-.19-5.39-2.14-5.09-14.36-15.98-15.63-20.93-.55-2.14-.67-11.99-.26-14.2.46-2.5,2.72-1.56,2.99-3.77.63-5.32-.95-10.48-1.08-15.36-.23-8.93.22-17.92.08-26.86-.06-.35-5.62-1.46-6.36-1.42-2.71.14-14.38,14.32-17.67,16.72,0,1.42,10.04,7.22,6.68,9.57-53.44,32.48-106.56,65.47-160.29,97.47-1.38.97-1.87.56-.96-.96,3.02-3.08,5.73-7.06,8.61-10.11,25.32-26.74,52.23-52.15,77.77-78.69l-86.35-88.38,29.79-24.95c-5.83-8.91-13.15-17.03-19.08-26.04-53.72-81.62-52.5-187.74,3.45-267.87,18.77-26.88,42.74-49.28,70.27-66.99,0-.89-11.07-7.14-12.8-8.3-.59-.4-2.06-1.02-1.11-1.79,11.43-7.76,23.02-15.29,35.06-22.07,6.42-7.06,16.44-12.29,25.92-13.44,2.15-4.23,7.93-6.95,12.48-5.76.35-.68.73-1.33,1.2-1.9,2.72-3.26,38.43-15.68,44.72-16.71,2.06-.34,3.91-.63,5.92.37.56-.68,1.2-.45,1.92,0,.75-.69,1.51-1.36,2.36-1.9,4.59-2.98,32.7-8.05,37.98-6.79.98.23,1.93.61,2.87,1.01,1.64-1.06,3.39-2.06,5.35-2.33,10.17-1.4,23.23-1.57,33.05.41l7.14-2.37c20.47-2.08,40.98-4.96,60.62-11.33l5.2.26c16.46-9.05,31.49-20.03,45.09-32.92,5.29-3.01,4.11,5.57,2.91,8.92Z"/>
  <path class="cls-14" d="M587.52,87.36l3.84.96c37.86,5.55,88.09,36.21,116.17,61.91,30.99,28.36,37.74,63.87,34.53,104.64-.16,1.99-.56,4.7-1.91,6.26.16-2.72.29-6.02-.48-8.64-14.12,13.52-28.97,26.03-47.52,32.64l.43-3.04c10.53-9.97,17-22.91,19.64-36.82l2.01-.94c-3.47-1.57-2.41-11.26,0-13.92-3.69,10.58-11.75,21.28-22.22,29.31-12.53,9.62-15.82,8.61-7.98-8.92,13.89-42,9.37-78.46-25.43-108.16-2.4-2.05-15.31-12.09-16.79-11.87-.05,0,0,.47.1,1.06,3.02,6.76,5.68,13.82,7.2,21.09,12.19,58.14-31.16,75.75-77.29,89.37-10.87,3.43-20.47,8.66-28.78,15.69-8.49,11.67-8.19-1.87-6.84-9.98,2.75-16.48,12.15-30.28,23.4-42.24-40.56,13.7-93.37,48.19-94.96,95.54-.38,11.3,1.68,21.51,6.7,30.86-8.77,4.13-17.48,8.68-25.92,13.44-34.91-52.69,16.79-108.46,61.42-132.98,16.65-9.15,61.36-23.93,69.34-40.1,3.36-6.83,3.25-15.47,1.73-22.75-.7-1.33-.42-1.74.96-.96,19.24,21.47,9.44,53.67-6.72,73.92-.36.83.28,1.15,1.92.96,73.91-21.32,59.45-92.58,12.48-134.4l-.96-.96c-1.97-1.63-.08-1.67,1.92-.96Z"/>
  <path class="cls-16" d="M340.8,941.76c-.87.52-2.2,1.9-3.84,2.88h-.96c.64-1.97,2.7-2.68,3.84-3.84l.96.96Z"/>
  <path class="cls-39" d="M587.52,87.36c-.99-.14-2.06-.13-1.92.96-.58-.53-1.96-.76-1.92-1.91,1.64-.7,3.01.8,3.84.95Z"/>
  <path class="cls-11" d="M574.08,223.68c-.99.29-2.11,1.6-3.84.95-.1-1.16,1.51-1.4,1.92-1.91l1.92.96Z"/>
  <path class="cls-28" d="M591.36,88.32c-1.64-.24-3.13-.86-3.84-.96,1.16.22,3.14-.58,3.84.96Z"/>
  <path class="cls-25" d="M578.88,148.8l-.96.96c-.12-.59-1.57-1.37-.95-2.88,1.15-.04,1.38,1.33,1.91,1.92Z"/>
  <path class="cls-10" d="M335.04,945.6c-.27.14-.13,1.49-1.92.95l1.92-1.91c.74.28.73.6,0,.96Z"/>
  <path class="cls-26" d="M336.96,944.64c-.7.42-1.25.62-1.92.96v-.96h1.92Z"/>
  <path class="cls-28" d="M586.56,89.28c-.34-.3-.63-.66-.96-.96,0,.07.95.19.96.96Z"/>
  <path class="cls-41" d="M608.64,784.32v-38.88c0-.73,2.45-2.05,3.31-2.45,10.76-4.99,25.14-7.27,36.37-11.63,1.18-.37,1.46-1.13,1.65-2.26.96-5.63-4.3-19.5-4.55-25.97.21-1.18,2.53-1.44,3.12-2.34,1-1.52-5.44-23.57-5.96-27.39.27-2.25,8.57-4.77,10.28-6.83-.38-7.58-7.72-24.99-6.86-31.45.16-1.18,4.52-.54,4.91-2.15-1.38-9.87,1.71-24.18-.04-33.45-.28-1.48-.73-1.47-1.55-2.29-4.41-4.43-18.52-10.08-24.37-13.56-1.04-1.42,6.36-7.53,7.65-9.14,4.25-5.3,12.07-15.99,7.61-22.92-2.02-3.14-24.15-9.88-28.77-12.68l.02-34.29c.27-1.15,3.82-.99,5.09-3.75,2.43-5.25-2.76-8.71,6.47-7.45v-16.32h14.88c1.06,0,3.08-3.93,3.3-5.34.66-4.15.58-16.76.07-21.08s-2-5.1-5.77-6.7l33.72-38.76c1.71-.99,8.89,4.54,10.74,5.81,43.51,29.96,75.75,80.99,84.84,133.08,19.14,109.72-49.44,212.93-156.18,240.18Z"/>
  <path class="cls-41" d="M504.96,477.12v18.72c0,2.96,5.85,7.1,8.7,7.8l-.22,37.64-47.32,21.32-25.06,117.02-46.99,38.23c-42.2-46.98-59.5-112.32-48.16-174.66,10.9-59.92,50.23-115.24,103.89-143.8,15.59,12.87,28.87,28.91,41.69,44.68.47,2.03-3.28,1.92-3.81,4.73-.68,3.58.07,10.36.05,14.45s-2.3,6.61.5,10.95c3.11,4.82,11.87,2.37,16.74,2.93Z"/>
  <path class="cls-22" d="M500.16,739.2c-24.46,5.97-32.82,29.12-50.38,41.3-.81.56-1,1.31-2.4.93l-45.17-52.31c0-3.09,17.49-16.61,20.7-19.65,9-8.55,17.58-17.66,26.16-26.64l27.1-116.9,82.57-35.51c1.69-.68,3.38-1.45,5.25-1.46,3.34-.02,28.67,6.51,31.16,8.21,4.28,2.91-.34,9.11.06,13.31.85,8.73,25.22,13.93,32.63,13.05.89,4.1-4.87,5.39-8.15,5.76-18.39,2.05-41.87-1.7-57.11-12.48-4.68,15.24-21.74,17.76-35.53,19.21-.37.35,1.02,1.33.96,1.91,1.06,2.16-.12,2.08-1.92.96-.52.05-1.52.11-1.92,0-1.48-.31-1.8,0-.96.96,18.48,27.49,12.56,72.7-.14,102.1s-33.92,36.16-64.18,28.47c7.76,16.5,22.9,22.54,39.36,26.87,1.72.46,2.36,1.1,1.92,1.92Z"/>
  <path class="cls-40" d="M471.36,332.16c-4.44-1.25-6.43-10.29-7.25-14.35-11.91-58.83,53.65-102.21,102.29-116.2-15.4,14.95-30.08,34.39-28.8,57.13.06,1.08-.63,2.63.95,2.37,3.83-7.75,14.04-12.62,21.75-16.18,31.27-14.41,76.59-17.74,86.46-57.54,5.22-21.03.67-43.26-10.28-61.63,18.05,8.69,36.51,24.9,46.24,42.55,16.71,30.3,12.07,65.43-2.08,95.68,2.33,2.34,19.95-14.24,22.05-16.82,3.99-4.89,6.18-10.55,9.39-15.54.61-.95-.11-1.7,2.15-1.24v13.92c0,2.67-2.74,11.42-3.82,14.42-3.57,9.88-10.54,19.36-18.26,26.38-22.84,8.14-48.8,11.7-72.96,13.44l2.02-3.38c41.44-22.72,57.87-61.73,47.86-107.48-3.53-16.13-10.41-28.65-18.21-42.74-1.19-.2-2.15-1.16-2.88-2.88-1-.5-.59.13,0,.96,1.12.34,2.35,1.74,1.92,2.88,13.78,20.33,17.15,54.49,1.47,75.06-13.39,13.41-28.61,24.99-45.64,34.76-14.63,10.09-23.48,25.55-23.14,43.29l-1.81,1.45c-14.56,1.28-29.06,4.13-43.2,7.68-.89-.19-1.53-.51-1.92-.96-4.7,1.78-9.79-1.54-13.63-4.34-18.32-13.32-13.67-39.36-5.24-57.13,3.7-7.79,9.89-19.24,17.91-22.05,1.11-1.08.47-1.4-1.92-.96l-.19,1.43c-22.57,17.46-44.27,43.12-49.42,71.85-.31,11.15-.1,21.28.65,30.4-4.13,1.76-8.4,3.84-12.48,5.76Z"/>
  <path class="cls-5" d="M619.2,298.56c-12.8.92-25.62.8-38.4,1.92-.61-5.43.94-13.74,2.59-19.01,12.28-39.14,71.74-39.92,76-86.24,1.47-16.02-2.74-34.8-9.48-49.32-1.23-1.34-.7-1.85.96-.96,19.62,21.5,26.99,61.55,20.82,89.46-6.74,30.44-26.25,49.3-52.5,64.14Z"/>
  <path class="cls-6" d="M587.42,397.34c-39.32-2.74-79.32.81-116.42,14.3l-41.87-41.57,7.97-5.09c6.04,2.28,26.79,20.33,31.04,20.73,1.07.1,16.92-6.27,20.29-7.21,33.61-9.35,69.85-8.35,104.37-6.03,1.3.22,2.45.67,2.29,2.26-.07.68-3.96,7.43-4.72,9.71-1.4,4.19-2.02,8.6-2.95,12.89Z"/>
  <path class="cls-6" d="M626.88,321.6c1.4-.77,2.8-.69,1.92.96-8.88,2.65-38.69,10.41-43.83,15.69-5.83,5.99,2.25,12.6,7.8,15.05,18.55,8.21,49.5,9.38,67.41,19.95,2.53,1.49,4.96,5.68,1.74,5.92-1.2.09-19.26-6.91-22.8-7.91-46.8-13.14-96.28-14.94-143.78-4.08-3.69.84-23.68,7.15-24.9,6.74-1.86-.63-8.26-5.48-5.79-7.66,3.51-3.1,16.52-9.06,21.41-11.23,34.75-15.48,79.78-24.46,117.45-30.39,6.63-1.04,17.07-3.35,23.36-3.04Z"/>
  <path class="cls-47" d="M550.08,677.76c1.13,4.88,1.46,9.48,6.71,12.01,1.59.76,5.77,1.14,5.77,1.43v171.84h-13.92c-.79,0-1.7-2.33-1.49-3.31.99-51.96-.35-104.12,1.01-156.05.36-8.32.64-16.71.85-25.17l1.07-.75Z"/>
  <path class="cls-36" d="M534.72,223.68c-22.22,21.08-39.55,72.29.96,83.52.84.27.83.59,0,.96-16.46,4.28-36.14,11.56-51.84,18.24-2.91.54-1.85-1.47-1.92-3.31-.52-12.13-2.3-22.82.69-34.88,4.99-20.09,31.59-56.33,50.19-65.49,2.04-.74,2.68-.42,1.92.96Z"/>
  <path class="cls-6" d="M695.04,299.52c1.34-.77,2.78-.65,1.92.96-28.14,17.75-89.48,17.76-124.16,23.2-27.61,4.33-54.17,9.94-80.01,20.79-13.03,5.47-25.14,12.66-37.76,18.87-.94-1.68-8.34-4.87-8.63-5.28-.84-1.19.81-2.14,1.58-2.72,7.39-5.57,24.96-13.17,33.96-16.92,54.12-22.51,106.45-25.28,163.64-32.2,13.9-1.68,36.8-7.53,49.45-6.71Z"/>
  <path class="cls-47" d="M585.6,637.43c1.39-4.49.32-15.26-2.85-18.74-1.7-1.86-6.67-2.22-4.78-5.18.51-.79,15.54-4.88,17.97-5.56,6.34-1.77,41.98-10.45,44.91-6.1.58.87,2.44,18.5,2.43,20.72,0,1.61-.04,3.28-1.44,4.4l-56.24,10.46Z"/>
  <rect class="cls-6" x="494.4" y="454.08" width="138.24" height="11.52"/>
  <path class="cls-47" d="M581.76,676.8c2.57-5.51.43-17.82-6.47-19.05-4-.71-9.28,4.24-11.77-.14l72.8-13.28c1.42.89,5.82,19.06,4.94,19.97-19.64,3.92-38.92,9.41-58.54,13.46-1.33.7-1.74.42-.96-.96Z"/>
  <path class="cls-45" d="M538.56,864h-8.64c.71-1.45.97-2.64,1.02-4.27.39-15.42-.87-30.85-1.06-46.1-.41-34.18.38-68.31,3.88-102.27,4.74.27,2.27,8.38,3.88,11.96l.92,140.69Z"/>
  <path class="cls-6" d="M607.68,495.36c.13.14.19,3.84,0,3.84h-32.64v21.6c0,.46,2.55,2.81-.46,2.4-3.34-.46-6.33-3.16-8.9-3.66-5.72-1.13-15.26,6.63-21.36,7.51v-26.88c-3.23-.6-25.03-.03-25.92-.96-.13-.14-.19-3.84,0-3.84h89.28Z"/>
  <path class="cls-43" d="M599.99,740.16c3.69,40.61,1.25,81.57-.15,122.24-4.86,5.83-5.41-5.86-5.64-9.4-2.35-35.57,1.88-73.68,0-109.53-.21-3.83,2.74-3.5,5.8-3.31Z"/>
  <polygon class="cls-6" points="583.68 902.4 561.61 937.92 541.44 902.4 583.68 902.4"/>
  <path class="cls-38" d="M636.44,684.52c-.51,3.22,3.83,10.84,1.01,12.94l-42.25,11.02c.75-4.92-1.51-8.59-3.05-12.81-.36-.98-1.39-.97.16-2.07l44.13-9.07Z"/>
  <path class="cls-22" d="M602.88,870.72v7.68h-76.32c-1.85,0-1.53-6.13-1.44-7.68h77.76Z"/>
  <path class="cls-8" d="M641.15,712.46c-.48,2.66,2.64,14.08.48,15.27-4.22,0-31.76,6.85-32.97,5.69-.88-.85.05-12.83-5.78-12.48-1.26-1.74,15.61-6.09,17.08-6.42,3.26-.75,19.88-4.22,21.19-2.06Z"/>
  <path class="cls-35" d="M581.76,719.04v144h-2.88c.52-48.06-1.68-95.92-.96-144h3.84Z"/>
  <path class="cls-38" d="M555.84,640.32c-.96-1.41-3.43-12.98-1.95-13.94,2.53-1.65,20.09-3.83,23.59-3.41,3.1.37,4.51,9.25,2.43,12.15s-12.76,4.56-16.39,5.2c-1.89,1.43-4.45,1.43-7.68,0Z"/>
  <path class="cls-20" d="M528.84,406.2c1.69,1.1,7.64,34.58,9.72,39.23-1.95-.12-4.88.7-6.24-.95l-16.77-36.01c.08-1.3,12.19-2.99,13.3-2.27Z"/>
  <path class="cls-38" d="M576.84,675.71c-.6.92-19.81,5.2-21.45,4.97-4.15-.58-5.76-12.4-1.44-14.89,1.51-.87,18.21-4.38,19.55-4.13,3.77.71,4.47,12.3,3.34,14.05Z"/>
  <polygon class="cls-20" points="584.64 406.09 577.91 443.51 570.24 443.52 572.16 406.08 584.64 406.09"/>
  <path class="cls-20" d="M553.92,406.07l4.79,39.36-7.58-.09c-1.49-12.32-7.25-25.82-8.7-37.88-.23-1.93,0-1.2,1.38-1.39,3.12-.42,6.89.3,10.11,0Z"/>
  <path class="cls-24" d="M610.56,408.97l-13.89,33.62c-1.74,1.79-5.77.68-8.19.92l12.59-35.39,9.49.85Z"/>
  <path class="cls-52" d="M629.66,560.56c-2.07,1.45-25.47-5.46-28.67-8.11-3.43-2.84-2.4-12.79,2.56-11.26,2.55.79,5.82,4.08,8.91,5.56,3.8,1.82,17.93,5.96,18.28,9.6.13,1.36-.68,2.9-1.07,4.21Z"/>
  <rect class="cls-23" x="530.88" y="888" width="63.36" height="4.8"/>
  <path class="cls-22" d="M534.72,504.96v26.4c0,.64-8.02,4.08-9.6,4.32v-30.72h9.6Z"/>
  <path class="cls-22" d="M630.72,412.81c1.31,1.3-17.29,27.93-18.73,31.67l-5.27.96,16.28-32.2c2.03-2.66,4.93-.12,7.72-.43Z"/>
  <path class="cls-22" d="M502.86,411.07c2.39,1.41,14.74,30.14,18.42,34.36-2.31-.01-5.07.64-6.77-1.38l-18.18-31.74c-.22-.65,5.08-2.09,6.53-1.24Z"/>
  <path class="cls-12" d="M582.48,696.25c4.59-.57,7.94-1.35,8.81,4.13.26,1.61.41,5.11-.07,6.53-.67,2-15.87,6.64-17.11.11-1.53-8.05.85-9.83,8.37-10.76Z"/>
  <path class="cls-27" d="M570.24,641.28c12.55.26,24.93-1.71,37.44-1.91l-8.87,4.08c-12.97,3.72-27.27,3.24-40.55,1.67l1.43-2.88c3.08-.77,6.6-1.09,10.56-.96Z"/>
  <path class="cls-44" d="M506.88,445.43l-4.79-.48-21.62-26.4c1.48-.92,4.7-3.44,6.26-2.46l20.16,29.34Z"/>
  <polygon class="cls-44" points="623.04 443.51 641.38 415.75 648.5 418.55 628.39 442.63 623.04 443.51"/>
  <path class="cls-12" d="M563.52,602.88c.17,3.84,1.66,9.93-.49,13.42-.53.86-11.54,6.27-11.98,5.77-.04-3.88-.46-7.93,1.48-11.47l10.99-7.72Z"/>
  <path class="cls-3" d="M624,573.13c-7.49,7.43-19.43,6.22-29,4.51-1.81-.32-13.67-3.07-14.2-3.57-2.88-2.66,6.97-1.91,8.05-1.79,11.62,3.19,23.36,2.52,35.16.85Z"/>
  <path class="cls-50" d="M590.4,735.36c-1.22-2.57-1.89-5.78-1.93-8.64l15.24-1.79c1.95,4.57,2.13,8.9-3.71,9.47-1.96,1.49-7.52,2.47-9.6.96Z"/>
  <path class="cls-7" d="M576.48,715.2c-.39-.05-2.75-.94-2.4-1.91,13.16.47,26.95-4.4,39.8-4.85,1.06-.04,3.65-.6,3.39.99l-19.67,5.77c-6.61-.65-14.73.89-21.12,0Z"/>
  <path class="cls-13" d="M601.92,534.72c-.49.55-3.9-1.17-4.39-1.92-1.13-1.76.55-2.83.55-3.36v-26.4c1.12-.39,3.84.42,3.84,1.44v30.24Z"/>
  <path class="cls-34" d="M606.72,679.68c1.81-.77,6.37-1.29,5.76.96-9.65,4.68-24.82,6.44-35.52,6.71,1.48-2.6,5.86-3.55,8.63-4.32,6.13-1.71,14.76-3.14,21.13-3.35Z"/>
  <path class="cls-8" d="M672,389.77c-5.18,5.33-10.12,11.55-15.84,16.31-1.08.9-1.55,2.33-3.36,1.91l11.93-18.31c2.18-1.95,4.78.08,7.26.08Z"/>
  <path class="cls-48" d="M615.36,735.36c1.71-.74,4.51-1.23,3.84.96-5.8,2.11-23.47,5.36-27.84.96,3.58-2.04,7.99-2.48,13.22-1.31l2.14-.61c2.83-.15,5.8-.07,8.64,0Z"/>
  <path class="cls-49" d="M550.08,677.76c-1.98,7.36-.68,15.9-.92,23.6-.04,1.24-1,2.2-1,2.32v-31.68c2.25.38,1.59,4.32,1.92,5.76Z"/>
  <path class="cls-51" d="M600,734.4c.83,0,4.61,1.99,6.72.96-.13,0-1.09.92-2.32,1-4.31.27-9.08-.96-13.04.92-.29-.29-.7-1.38-.96-1.92,3.16.89,7.03-.97,9.6-.96Z"/>
  <path class="cls-4" d="M563.52,640.32c1.9.18,3.78.9,6.72.96-2.1,1.43-7.89,1.37-10.56.96-.51-.08-3.51-1.44-3.84-1.92,2.53.16,5.17-.24,7.68,0Z"/>
  <path class="cls-1" d="M606.72,679.68c1.66-1.92,5.27-.66,7.68-.95-.05,1.04-1.1,1.51-1.92,1.91-1.01-1.55-3.98-1.02-5.76-.96Z"/>
  <path class="cls-29" d="M631.68,320.64c1.7-.36,2.34-.04,1.92.96-1.43.41-3.17.47-4.8.96-.26-.91-1.11-.92-1.92-.96.82-1.69,3.36-.72,4.8-.96Z"/>
  <path class="cls-33" d="M615.36,735.36c1.32-1.9,7.68-1.39,5.76.96-.6.14-1.47-.16-1.92,0-.67-1.44-2.58-.93-3.84-.96Z"/>
  <path class="cls-32" d="M631.68,320.64c1.04-.17,2.87-1.76,4.8-.95-.18,1.61-1.72,1.58-2.88,1.91l-1.92-.96Z"/>
  <path class="cls-9" d="M528,577.92c1.35.67,2.26,1.26,1.92,2.88-1.61.27-2.82-.73-3.84-1.92.73-.08,1.83-.08,1.92-.96Z"/>
  <path class="cls-37" d="M498.24,737.28c1.61.42,4.95.12,4.79,1.91-.9.15-2.08-.18-2.87,0l-1.92-1.92Z"/>
  <path class="cls-19" d="M524.16,578.88l-.96.96c-.49-.74-2.61-.83-1.91-2.88.37-.47,2.43,1.8,2.87,1.92Z"/>
  <path class="cls-2" d="M698.88,298.56c.61.28.6.6,0,.96-.55.39-1.33.59-1.92.96-.26-.93-1.11-.91-1.92-.96.7-1.56,2.73-.71,3.84-.96Z"/>
  <path class="cls-18" d="M582.72,677.76c-.59.12-1.37,1.57-2.88.95-.15-1.12,1.73-1.5,1.92-1.91l.96.96Z"/>
  <path class="cls-15" d="M698.88,298.56c.12-.03.22-1.49,1.92-.95,0,1.14-1.23,1.42-1.92,1.91v-.96Z"/>
  <path class="cls-30" d="M537.6,308.16c-.56.14-1.37-.14-1.92,0v-.96c.74.2,1.57.02,1.92.96Z"/>
  <path class="cls-17" d="M532.8,222.72c1.54-.76,2.8-2.26,4.8-1.91-.23,1.51-2.01,2.04-2.88,2.87l-1.92-.96Z"/>
  <path class="cls-21" d="M650.88,144.96l-.96.96c-.37-.8-1.66-1.33-1.92-2.88-.54-.26-.52-.58,0-.96.92-.37,2.28,2.23,2.88,2.88Z"/>
  <path class="cls-31" d="M648,142.08c.04.32-.05.65,0,.96-1.25.06-1.47-1.81-.48-1.92l.48.96Z"/>
</svg>