
<svg xmlns="http://www.w3.org/2000/svg" xmlns:xlink="http://www.w3.org/1999/xlink" width="250px" height="250px" viewBox="0 0 250 250" version="1.1">
<g id="surface1">
<path style=" stroke:none;fill-rule:nonzero;fill:rgb(92.54902%,95.294118%,100%);fill-opacity:1;" d="M 125 248.339844 C 194.035156 248.339844 250 195.058594 250 129.332031 C 250 63.605469 194.035156 10.324219 125 10.324219 C 55.964844 10.324219 0 63.605469 0 129.332031 C 0 195.058594 55.964844 248.339844 125 248.339844 Z M 125 248.339844 "/>
<path style=" stroke:none;fill-rule:nonzero;fill:rgb(100%,100%,100%);fill-opacity:1;" d="M 91.257812 56.742188 L 47.507812 40.078125 L 47.507812 46.03125 L 85.007812 78.164062 L 82.507812 111.484375 L 71.257812 156.707031 L 56.257812 176.9375 L 60.007812 205.5 L 78.757812 207.882812 L 93.757812 205.5 L 108.757812 207.882812 L 135.007812 192.410156 L 140.007812 167.417969 L 171.257812 138.855469 L 185.007812 148.378906 L 198.757812 167.417969 L 198.757812 205.5 L 217.507812 200.742188 L 236.257812 161.46875 L 241.257812 111.484375 L 173.757812 17.46875 L 162.507812 15.089844 Z M 91.257812 56.742188 "/>
<path style=" stroke:none;fill-rule:nonzero;fill:rgb(58.039218%,65.098041%,76.862746%);fill-opacity:1;" d="M 24.992188 125.523438 C 25.492188 121.476562 25.742188 117.429688 26.992188 113.621094 C 30.492188 97.914062 37.242188 82.917969 47.242188 70.78125 C 48.992188 68.636719 50.492188 66.734375 52.492188 64.828125 L 41.242188 54.832031 C 39.242188 57.6875 37.242188 60.542969 35.492188 63.402344 C 26.242188 78.632812 21.242188 95.769531 19.992188 112.671875 C 19.492188 116.953125 19.742188 121.238281 19.742188 125.285156 C 19.742188 129.570312 20.242188 133.617188 20.992188 137.898438 C 22.242188 146.230469 24.492188 154.324219 27.492188 161.941406 C 25.492188 153.847656 24.492188 145.753906 24.242188 137.425781 C 24.242188 133.617188 24.242188 129.570312 24.992188 125.523438 Z M 24.992188 125.523438 "/>
<path style=" stroke:none;fill-rule:nonzero;fill:rgb(58.039218%,65.098041%,76.862746%);fill-opacity:1;" d="M 76.242188 48.414062 C 69.992188 45.558594 61.242188 41.75 54.992188 38.894531 C 60.742188 33.65625 71.242188 28.183594 79.992188 24.613281 C 73.742188 29.371094 73.742188 39.371094 76.242188 48.414062 Z M 76.242188 48.414062 "/>
<path style=" stroke:none;fill-rule:nonzero;fill:rgb(58.039218%,65.098041%,76.862746%);fill-opacity:1;" d="M 50.992188 88.867188 C 47.492188 97.199219 45.242188 106.007812 44.492188 114.574219 C 44.242188 116.714844 43.992188 118.859375 44.242188 121 C 44.242188 123.144531 44.242188 125.285156 44.492188 127.425781 L 44.742188 130.757812 C 44.742188 131.710938 44.992188 132.902344 45.242188 133.855469 L 46.242188 140.28125 L 46.492188 133.855469 C 46.492188 132.902344 46.492188 131.710938 46.742188 130.757812 L 47.242188 127.664062 C 47.492188 125.523438 47.992188 123.382812 48.242188 121.476562 C 48.492188 119.335938 49.242188 117.429688 49.742188 115.527344 C 51.992188 107.433594 55.742188 100.054688 60.242188 93.152344 C 63.242188 88.628906 66.742188 84.585938 70.492188 80.777344 L 60.742188 71.96875 C 56.492188 77.445312 53.492188 82.917969 50.992188 88.867188 Z M 50.992188 88.867188 "/>
<path style=" stroke:none;fill-rule:nonzero;fill:rgb(58.039218%,65.098041%,76.862746%);fill-opacity:1;" d="M 195.753906 48.164062 C 182.503906 43.640625 177.253906 45.070312 177.253906 45.070312 C 177.253906 45.070312 169.003906 66.253906 137.503906 67.679688 C 137.753906 67.917969 166.003906 83.628906 195.753906 48.164062 Z M 195.753906 48.164062 "/>
<path style=" stroke:none;fill-rule:nonzero;fill:rgb(58.039218%,65.098041%,76.862746%);fill-opacity:1;" d="M 204.753906 90.292969 C 203.503906 116.472656 182.253906 126.234375 165.753906 124.328125 C 156.753906 123.136719 143.503906 127.183594 143.503906 127.183594 L 126.753906 154.792969 L 121.253906 156.699219 L 130.753906 140.039062 C 130.753906 140.039062 108.253906 147.890625 106.503906 148.605469 C 104.753906 149.320312 97.753906 159.078125 92.003906 169.3125 C 90.753906 162.171875 86.003906 157.175781 86.003906 156.9375 C 86.003906 158.128906 88.503906 179.546875 85.753906 185.5 C 83.003906 191.6875 70.753906 195.734375 70.753906 195.734375 L 88.753906 202.160156 L 90.003906 202.636719 L 103.503906 190.496094 L 108.503906 172.40625 L 114.753906 168.125 C 114.753906 168.125 130.253906 166.457031 128.003906 179.785156 C 127.003906 186.214844 119.503906 185.738281 111.003906 190.734375 C 106.003906 193.589844 99.503906 198.113281 96.253906 201.207031 L 105.253906 207.394531 C 105.253906 207.394531 116.003906 205.730469 131.253906 194.304688 C 146.753906 182.40625 139.003906 169.550781 139.003906 169.550781 L 164.253906 140.75 L 180.753906 141.941406 C 180.753906 141.941406 209.253906 148.84375 218.503906 174.550781 C 237.003906 125.28125 207.253906 92.671875 204.753906 90.292969 Z M 204.753906 90.292969 "/>
<path style=" stroke:none;fill-rule:nonzero;fill:rgb(10.980392%,19.607843%,30.980393%);fill-opacity:1;" d="M 233.75 69.835938 C 238.25 71.738281 241.75 74.585938 245 77.203125 C 222.5 2.941406 149.5 11.273438 148 11.75 C 149.75 9.132812 156.25 5.085938 162.25 2.941406 C 162.25 2.941406 131.25 -7.53125 103 11.035156 C 103.5 6.75 109 0.324219 109 0.324219 C 70 16.28125 67.5 35.320312 75 46.738281 C 68.75 43.882812 62.5 41.261719 56.25 38.40625 C 37 29.601562 20.5 22.222656 19.5 21.984375 C 17.75 21.507812 17 22.222656 17 22.222656 C 17 22.222656 16.25 22.9375 17.75 24.363281 C 40.5 46.023438 55 59.125 79.25 80.296875 C 75.25 88.867188 74.75 93.152344 76.75 97.671875 C 79.5 103.863281 79.25 106.957031 78.25 111.003906 C 77 115.050781 67 150.988281 65.25 155.035156 C 63.5 159.320312 50.25 173.601562 50 178.363281 C 49.75 183.121094 53.75 204.066406 59.25 207.160156 C 63.5 209.304688 73.75 213.824219 81.25 214.777344 C 83.75 215.253906 86.25 215.015625 87.5 214.0625 C 92.5 210.96875 93.75 210.492188 97 210.730469 L 97.75 210.96875 C 99 211.207031 100.5 211.683594 102.5 211.921875 C 106.75 212.398438 112.25 212.398438 116.75 209.542969 C 123.25 204.78125 134.25 198.832031 138 195.738281 C 142.5 191.453125 145.5 185.5 145.5 178.835938 C 145.5 172.886719 149.75 168.125 154.5 163.367188 C 159 159.082031 170.25 148.609375 174.75 144.085938 C 186.25 147.894531 190.5 163.605469 190.5 172.171875 C 190.5 195.976562 170.25 230.726562 123.75 233.34375 C 122 233.34375 120.25 233.582031 118.25 233.582031 C 57.75 233.582031 8.25 182.644531 8.25 122.902344 C 8.25 75.777344 37.992188 43.863281 38.242188 43.625 C 14.242188 65.285156 0 95.53125 0 129.328125 C 0 195.023438 56 248.347656 125 248.347656 C 194 248.347656 250 195.023438 250 129.328125 C 250 107.910156 244.25 87.210938 233.75 69.835938 Z M 63 54.59375 C 59.5 51.738281 56 48.878906 52.5 46.023438 C 57.25 48.40625 62 50.785156 66.25 52.925781 C 79.25 59.351562 90 65.066406 92 66.492188 C 92 66.492188 92.25 66.730469 92.5 66.96875 C 93.75 68.398438 95 70.777344 92.75 73.871094 C 91.5 75.539062 90 75.0625 87.75 73.632812 C 85.75 72.445312 75 64.351562 63 54.59375 Z M 135.75 178.363281 C 135.75 182.40625 133.75 185.976562 131.25 188.597656 C 130 189.785156 125 192.878906 121.5 195.023438 C 118 197.402344 114.25 199.542969 111.25 201.6875 C 110 202.402344 108 202.878906 104.75 202.402344 L 97 201.449219 C 101.75 196.925781 114.75 187.167969 119 185.261719 C 124 182.882812 127 180.265625 124.75 174.789062 C 122.75 169.078125 115 169.316406 115 169.316406 C 115 169.316406 119.75 168.125 123.5 168.601562 C 118.75 166.699219 112.25 167.175781 109 169.316406 C 105.5 171.695312 104.5 181.457031 102.25 187.40625 C 100 193.59375 95 196.210938 87.5 201.210938 C 83.25 203.828125 80.5 204.542969 78.5 204.304688 C 74.25 203.113281 69.25 200.972656 65.75 199.308594 C 63.75 195.738281 61.25 184.550781 61 180.027344 C 62 177.648438 66 172.886719 68 170.03125 C 72 164.792969 74.25 161.699219 75.25 158.84375 C 77 154.796875 84.25 129.328125 87 118.617188 C 89.75 123.140625 93.5 130.757812 91.75 135.042969 C 100.75 125.996094 96.75 115.285156 94.75 111.003906 C 93 106.71875 91 98.386719 95 90.296875 C 98.75 82.203125 111.75 60.304688 111.75 60.304688 C 111.75 60.304688 114 66.019531 118.75 65.542969 C 123.25 65.066406 166.5 18.890625 166.5 18.890625 C 166.5 18.890625 173.25 40.3125 160.75 53.402344 C 148.25 66.492188 137.75 67.921875 137.75 67.921875 C 137.75 67.921875 151.75 72.207031 166.25 65.066406 C 170 77.917969 173.25 91.246094 173.25 92.914062 C 172.25 94.578125 158.25 116.953125 157 118.382812 C 156.5 118.855469 152.5 119.332031 150 119.332031 C 145.5 120.046875 142.75 120.285156 141.5 121 C 139.5 122.1875 128 142.898438 122.5 152.894531 C 117.5 153.609375 112.5 155.273438 108.5 159.796875 C 110.5 158.84375 116.25 158.84375 120.5 158.84375 C 124.25 159.082031 134.5 166.222656 135.75 177.410156 C 135.75 178.125 135.75 178.125 135.75 178.363281 Z M 106.5 188.359375 C 109.25 185.5 109.75 180.027344 110.25 178.363281 C 110.75 176.695312 111.75 173.601562 114 173.363281 C 116.25 173.125 121 174.554688 120.5 178.125 C 120 181.457031 116.25 181.695312 113.25 183.359375 C 111.25 184.550781 107 187.882812 106.5 188.359375 Z M 215.25 191.453125 C 212.25 160.984375 190.25 146.703125 180.5 141.945312 C 191.75 140.753906 220.75 132.425781 204.75 90.296875 C 205.25 92.199219 209.75 113.144531 197 124.09375 C 184 135.28125 165 130.519531 162.75 130.519531 C 160.75 130.28125 151.25 139.089844 138.25 155.988281 C 137 155.273438 131.75 153.371094 125.25 153.609375 C 131.75 141.945312 141.5 125.285156 143 123.855469 C 143.5 123.378906 147.75 122.902344 150.25 122.664062 C 155.25 122.1875 157.75 121.714844 158.75 120.761719 C 159.25 120.046875 162.75 114.8125 166.25 109.097656 C 168.5 109.335938 174.5 109.8125 175.25 109.574219 C 175.75 109.097656 182.5 97.671875 182.75 96.246094 C 183 95.292969 178.25 77.441406 175.25 66.019531 C 237 93.867188 246.75 155.273438 215.25 191.453125 Z M 215.25 191.453125 "/>
<path style=" stroke:none;fill-rule:nonzero;fill:rgb(10.980392%,19.607843%,30.980393%);fill-opacity:1;" d="M 155.75 49.832031 C 162.75 43.882812 161.75 33.648438 161.75 33.648438 L 140.75 55.78125 C 140.5 55.78125 147 56.972656 155.75 49.832031 Z M 155.75 49.832031 "/>
<path style=" stroke:none;fill-rule:nonzero;fill:rgb(10.980392%,19.607843%,30.980393%);fill-opacity:1;" d="M 77.25 175.742188 L 80.75 166.222656 C 80.75 166.222656 70 179.3125 69 181.21875 C 68 183.359375 68.5 187.40625 72 187.644531 C 75.5 187.882812 80.25 183.597656 80.75 180.265625 C 81.5 175.742188 77.25 175.742188 77.25 175.742188 Z M 77.25 175.742188 "/>
<path style=" stroke:none;fill-rule:nonzero;fill:rgb(10.980392%,19.607843%,30.980393%);fill-opacity:1;" d="M 110.25 118.144531 C 117.75 117.429688 131.25 111.714844 137 107.195312 C 142.75 102.433594 141.75 91.960938 132.75 88.867188 C 135.75 84.105469 140.75 74.109375 140.75 74.109375 C 140.75 74.109375 108.5 110.050781 106 110.527344 C 103.5 111.003906 102.5 101.957031 102.5 101.957031 C 95 119.332031 107.75 123.617188 110.25 118.144531 Z M 110.25 118.144531 "/>
<path style=" stroke:none;fill-rule:nonzero;fill:rgb(100%,85.09804%,14.509805%);fill-opacity:1;" d="M 112.996094 113.621094 L 129.746094 93.390625 C 129.746094 93.390625 136.996094 98.152344 132.246094 103.625 C 126.246094 110.050781 112.996094 113.621094 112.996094 113.621094 Z M 112.996094 113.621094 "/>
<path style=" stroke:none;fill-rule:nonzero;fill:rgb(84.705883%,14.117648%,13.725491%);fill-opacity:1;" d="M 157.515625 23.414062 L 146.015625 35.316406 C 136.765625 37.933594 127.765625 42.691406 119.265625 50.546875 C 119.265625 46.023438 133.015625 26.269531 157.515625 23.414062 Z M 157.515625 23.414062 "/>
<path style=" stroke:none;fill-rule:nonzero;fill:rgb(84.705883%,14.117648%,13.725491%);fill-opacity:1;" d="M 172.015625 33.648438 C 172.265625 30.554688 172.015625 26.984375 171.515625 23.652344 C 186.515625 25.554688 204.265625 33.886719 224.515625 52.691406 C 207.765625 43.882812 190.015625 35.789062 172.015625 33.648438 Z M 172.015625 33.648438 "/>
<path style=" stroke:none;fill-rule:nonzero;fill:rgb(84.705883%,14.117648%,13.725491%);fill-opacity:1;" d="M 176.515625 49.121094 C 176.515625 49.121094 232.265625 72.445312 242.515625 137.898438 C 244.015625 52.691406 180.515625 48.40625 176.515625 49.121094 Z M 176.515625 49.121094 "/>
<path style=" stroke:none;fill-rule:nonzero;fill:rgb(84.705883%,14.117648%,13.725491%);fill-opacity:1;" d="M 95.265625 11.511719 C 94.515625 13.417969 63.015625 45.550781 102.265625 58.164062 C 80.765625 39.835938 95.015625 11.75 95.265625 11.511719 Z M 95.265625 11.511719 "/>
<path style=" stroke:none;fill-rule:nonzero;fill:rgb(84.705883%,14.117648%,13.725491%);fill-opacity:1;" d="M 112.015625 53.164062 C 112.015625 53.164062 115.265625 16.75 138.265625 6.992188 C 136.515625 7.464844 89.765625 21.035156 112.015625 53.164062 Z M 112.015625 53.164062 "/>
</g>
</svg>
