<svg height="250" viewBox="0 0 250 250" width="250" xmlns="http://www.w3.org/2000/svg" xmlns:xlink="http://www.w3.org/1999/xlink"><linearGradient id="a" gradientUnits="userSpaceOnUse" x1="151.39810122264" x2="97.43119877736" y1="498.7109693736" y2="-265.29536369808"><stop offset=".3" stop-color="#17936f"/><stop offset=".41" stop-color="#14a073"/><stop offset=".63" stop-color="#0bc27e"/><stop offset=".79" stop-color="#04e087"/></linearGradient><path d="m250 125c0 69.035156-55.964844 125-125 125s-125-55.964844-125-125 55.964844-125 125-125 125 55.964844 125 125zm0 0" fill="url(#a)"/><path d="m212.027344 123.382812c-1.441406 0-2.609375 1.164063-2.613282 2.605469 0 1.9375-.058593 3.769531-.175781 5.496094-.394531 3.636719-1.566406 6.863281-3.191406 8.511719-.765625.839844-1.859375 1.308594-2.996094 1.277344s-2.203125-.554688-2.921875-1.433594c-2.492187-2.800782-3.257812-8.945313-2.722656-13.570313.113281-1.402343-.90625-2.640625-2.304688-2.800781-1.394531-.164062-2.667968.808594-2.878906 2.199219-.269531 2.394531-.269531 4.8125 0 7.207031-.023437.210938-.046875.421875-.074218.632812-1.128907 9.070313-5.007813 10.988282-8.0625 10.988282-.972657-.03125-1.933594-.214844-2.84375-.542969l.152343-.171875c2.921875-3.304688 4.671875-7.585938 4.671875-11.453125 0-2.480469-.722656-4.648437-2.113281-6.210937-1.082031-1.269532-3.101563-2.746094-6.558594-2.746094-2.855469-.011719-5.503906 1.476562-6.980469 3.917968-2.335937 3.625-2.558593 9.003907-.558593 13.394532.535156 1.160156 1.234375 2.230468 2.078125 3.1875-1.097656.394531-2.253906.605468-3.421875.625-3.664063 0-8.957031-4.5-12-7.75 3.34375-2.648438 6.289062-5.765625 8.742187-9.257813.828125-1.175781.542969-2.804687-.636718-3.632812-1.175782-.828125-2.804688-.546875-3.632813.632812-2.472656 3.539063-5.527344 6.636719-9.03125 9.15625l.019531-7.648437c-.054687-1.398438-1.207031-2.503906-2.609375-2.503906-1.402343 0-2.554687 1.105468-2.609375 2.503906l-.042968 15.292968c-.046876-.042968.265624 7.292969.636718 7.660157l.027344.023437c.382812.363282.871094.601563 1.394531.683594.1875.042969.375.0625.566407.0625 1.441406.003906 2.609374-1.160156 2.613281-2.601562v-7.695313c2.863281 3.222656 9.914062 10.296875 16.582031 10.296875 2.847656.003906 5.648438-.722656 8.132812-2.113281 2.265626 1.296875 4.816407 2.023437 7.425782 2.113281 4.988281 0 8.832031-2.730469 11.136718-7.695312.304688.460937.644532.898437 1.007813 1.3125 1.738281 2.023437 4.28125 3.1875 6.949219 3.175781.488281 0 1.621094-.164063 2.113281-.679688-.421875.421875-.667969 1.761719-.945313 2.351563-.386718.800781-.742187 1.617187-1.144531 2.410156-.808593 1.589844-1.703125 3.132812-2.683593 4.621094-1.984376 3.019531-4.339844 5.777344-7.011719 8.210937-5.863281 5.300781-12.925781 8.25-20.640625 9.652344-4.011719.703125-8.09375.929687-12.164063.675781-4.171875-.257812-8.324219-.832031-12.410156-1.714844-8.285156-1.75-16.484375-4.527343-24.597656-7.695312-4.699219-1.824219-9.378907-3.804688-14.074219-5.820312 2.46875-2.28125 4.855469-4.652344 7.160156-7.113282 3.257813-3.488281 6.320313-7.15625 9.171875-10.988281 2.902344-3.890625 5.523438-7.988281 7.84375-12.257813 2.398438-4.382812 4.378907-8.984374 5.914063-13.742187 1.613281-4.984375 2.550781-10.164063 2.78125-15.398437.105468-2.71875-.023438-5.441407-.378906-8.140626-.359376-2.726562-.976563-5.414062-1.84375-8.027343-1.679688-5.164063-4.191407-10.019531-7.4375-14.371094-3.394532-4.558594-7.695313-8.367187-12.632813-11.179687-4.984375-2.773438-10.5-4.460938-16.183594-4.945313-1.378906-.132813-2.746093-.195313-4.101562-.195313-.683594 0-1.355469 0-2.027344.023438l-1 .046875c-.339844 0-.699219.046875-1.042969.070313-2.8125.214843-5.59375.710937-8.300781 1.484374-5.332031 1.546876-10.328125 4.070313-14.734375 7.441407-4.175781 3.195312-7.894531 6.945312-11.0625 11.140625-1.542969 2.035156-2.972656 4.152344-4.285156 6.339844-.652344 1.097656-1.265625 2.207031-1.875 3.347656-.296875.566406-.589844 1.148437-.878906 1.75l-.421876.917968-.222656.484376-.261718.609374c-1.808594 4.335938.167968 9.324219 4.457031 11.242188 4.292969 1.917969 9.328125.066406 11.351562-4.175781l.40625-.84375.285157-.59375c.199218-.421875.425781-.816407.640624-1.234375.421876-.84375.921876-1.652344 1.417969-2.460938 1-1.625 2.085938-3.195312 3.257813-4.699218 2.226562-2.921876 4.835937-5.53125 7.753906-7.757813 2.699219-2.054687 5.75-3.597656 9-4.558594 1.582031-.445312 3.203125-.730469 4.839844-.847656.210937 0 .421875-.035156.625-.046875l.667968-.027344c.421876 0 .882813-.027344 1.320313 0 .871094 0 1.730469.039063 2.574219.121094 3.234375.265625 6.375 1.203125 9.226562 2.757812 2.832032 1.585938 5.308594 3.746094 7.269532 6.339844 2.105468 2.816406 3.738281 5.957032 4.832031 9.296875.546875 1.617188.945312 3.28125 1.183593 4.96875.25 1.722657.351563 3.460938.304688 5.199219-.128906 3.6875-.757812 7.34375-1.859375 10.867188-1.164063 3.746093-2.679687 7.375-4.527344 10.835937-3.898437 7.238281-8.671875 13.964844-14.21875 20.03125-3.570312 3.957031-7.394531 7.675781-11.445312 11.128906-2.09375-.886719-4.203125-1.769531-6.339844-2.628906-4.386719-1.796875-8.871094-3.339844-13.4375-4.613281-2.515625-.683594-5.082031-1.164063-7.675781-1.4375-1.460938-.144532-2.929688-.179688-4.398438-.105469-1.683594.082031-3.351562.363281-4.964844.84375-1.878906.5625-3.640624 1.453125-5.210937 2.625-1.601563 1.207031-2.96875 2.695313-4.03125 4.394531-.9375 1.5-1.667969 3.117188-2.175781 4.8125-.441406 1.472656-.753906 2.976563-.941406 4.503906-.171876 1.378907-.269532 2.761719-.296876 4.152344-.03125 1.527344.066407 3.058594.289063 4.570313.253906 1.761719.746094 3.476562 1.460937 5.105469.824219 1.898437 2.003907 3.617187 3.476563 5.074218 1.503906 1.464844 3.277344 2.625 5.226563 3.414063 1.703124.6875 3.496093 1.128906 5.324218 1.3125 3.019532.269531 6.0625.078125 9.019532-.574219 5.402343-1.144531 10.039062-3.101562 14.441406-5.292969 4.308594-2.191406 8.460937-4.679687 12.421875-7.445312 1.066406-.738281 2.117187-1.492188 3.152343-2.265625 6.898438 2.726562 13.886719 5.472656 21.042969 7.9375 8.628907 2.957031 17.5 5.535156 26.753907 7.074218 4.675781.800782 9.40625 1.226563 14.144531 1.269532 4.855469.046875 9.699219-.476563 14.429687-1.554688 9.664063-2.203125 18.375-7.425781 24.875-14.90625 3.117188-3.609375 5.796875-7.574218 7.984375-11.808594 1.921875-3.695312 3.644531-7.445312 4.769531-11.542968 1.09375-3.984375 1.527344-8.316406 1.933594-12.433594.113282-1.074219.164063-2.152344.152344-3.230469.027344-.84375.039062-1.691406.039062-2.585937.011719-.699219-.257812-1.371094-.75-1.867188-.488281-.5-1.160156-.777344-1.855468-.777344zm-35.4375 17.804688c-.820313-.75-1.488282-1.652344-1.964844-2.660156-1.265625-2.75-1.167969-6.289063.195312-8.40625.523438-.941406 1.515626-1.527344 2.59375-1.523438 1.199219 0 2.078126.316406 2.617188.941406.675781.78125.820312 1.953126.820312 2.792969 0 3.707031-1.816406 6.742188-4.261718 8.855469zm-111.316406 26.703125c-1.152344.210937-2.320313.320313-3.492188.320313-3.382812 0-4.582031-3.804688-4.226562-6.078126.230468-1.691406.96875-3.277343 2.113281-4.542968 1.554687-1.566406 3.832031-1.234375 5.777343-.988282 2.847657.414063 5.652344 1.085938 8.378907 2.015626 1.328125.421874 5.914062 1.996093 6.453125 2.222656-4.648438 2.976562-9.539063 6.070312-15.003906 7.050781zm0 0" fill="#fff"/></svg>