<svg height="250" viewBox="0 0 250 250" width="250" xmlns="http://www.w3.org/2000/svg" xmlns:xlink="http://www.w3.org/1999/xlink"><linearGradient id="a" gradientUnits="userSpaceOnUse" x1="223.6975" x2="43.2775" y1="58.7975" y2="210.6025"><stop offset="0" stop-color="#b6509e"/><stop offset="1" stop-color="#2ebac6"/></linearGradient><path d="m246.25 125c0 66.964844-54.285156 121.25-121.25 121.25s-121.25-54.285156-121.25-121.25 54.285156-121.25 121.25-121.25 121.25 54.285156 121.25 121.25zm0 0" fill="url(#a)"/><path d="m178.058594 173.304688-41.011719-99.109376c-2.316406-5.121093-5.742187-7.632812-10.277344-7.632812h-3.625c-4.535156 0-7.960937 2.511719-10.28125 7.632812l-17.832031 43.179688h-13.503906c-4.046875.015625-7.324219 3.285156-7.355469 7.332031v.097657c.03125 4.046874 3.308594 7.316406 7.355469 7.332031h7.253906l-17.027344 41.167969c-.320312.90625-.492187 1.855468-.503906 2.8125 0 2.3125.707031 4.117187 2.015625 5.523437s3.125 2.109375 5.441406 2.109375c1.519531-.019531 3-.511719 4.230469-1.40625 1.308594-.902344 2.21875-2.210938 2.921875-3.714844l18.742187-46.492187h13c4.042969-.015625 7.324219-3.285157 7.355469-7.332031v-.203126c-.03125-4.042968-3.3125-7.3125-7.355469-7.328124h-6.953124l14.308593-35.648438 38.996094 97.003906c.703125 1.507813 1.609375 2.8125 2.921875 3.714844 1.230469.894531 2.707031 1.386719 4.230469 1.40625 2.316406 0 4.132812-.703125 5.441406-2.109375s2.015625-3.210937 2.015625-5.523437c.039062-.960938-.132812-1.921876-.503906-2.8125zm0 0" fill="#fff"/></svg>