<svg xmlns="http://www.w3.org/2000/svg" data-name="Group 27021" viewBox="0 0 24 24"><defs><linearGradient id="a" x1=".907" x2=".163" y1=".227" y2=".853" gradientUnits="objectBoundingBox"><stop offset="0" stop-color="#b6509e"/><stop offset="1" stop-color="#2ebac6"/></linearGradient></defs><circle cx="12" cy="12" r="12" fill="url(#a)" data-name="Ellipse 991"/><path fill="#fff" d="M17.251 16.78l-4.059-9.809a1.091 1.091 0 00-1.017-.755h-.359a1.091 1.091 0 00-1.017.755l-1.766 4.274H7.697a.731.731 0 00-.728.725v.01a.731.731 0 00.728.725h.718L6.73 16.78a.86.86 0 00-.05.278.767.767 0 00.2.547.7.7 0 00.539.209.729.729 0 00.419-.139.885.885 0 00.289-.368l1.853-4.601h1.287a.731.731 0 00.728-.725v-.02a.731.731 0 00-.728-.725h-.687l1.415-3.529 3.859 9.6a.885.885 0 00.289.368.729.729 0 00.419.139.7.7 0 00.539-.209.767.767 0 00.2-.547.657.657 0 00-.05-.278z" data-name="Path 2434"/></svg>