
<svg xmlns="http://www.w3.org/2000/svg" xmlns:xlink="http://www.w3.org/1999/xlink" width="250px" height="250px" viewBox="0 0 250 250" version="1.1">
<defs>
<linearGradient id="linear0" gradientUnits="userSpaceOnUse" x1="0.843" y1="0.135" x2="0.206" y2="0.886" gradientTransform="matrix(250,0,0,250,0,0)">
<stop offset="0" style="stop-color:rgb(71.372551%,31.37255%,61.960787%);stop-opacity:1;"/>
<stop offset="1" style="stop-color:rgb(18.039216%,72.941178%,77.64706%);stop-opacity:1;"/>
</linearGradient>
<linearGradient id="linear1" gradientUnits="userSpaceOnUse" x1="0.5" y1="1.142" x2="0.5" y2="-0.105" gradientTransform="matrix(191.960938,0,0,191.960938,29.019531,29.019531)">
<stop offset="0" style="stop-color:rgb(97.647059%,65.098041%,2.352941%);stop-opacity:1;"/>
<stop offset="1" style="stop-color:rgb(98.431373%,80.000001%,37.254903%);stop-opacity:1;"/>
</linearGradient>
</defs>
<g id="surface1">
<path style=" stroke:none;fill-rule:nonzero;fill:rgb(100%,100%,100%);fill-opacity:1;" d="M 250 125 C 250 194.035156 194.035156 250 125 250 C 55.964844 250 0 194.035156 0 125 C 0 55.964844 55.964844 0 125 0 C 194.035156 0 250 55.964844 250 125 Z M 250 125 "/>
<path style=" stroke:none;fill-rule:nonzero;fill:url(#linear0);" d="M 125 250 C 116.539062 250.003906 108.097656 249.152344 99.804688 247.460938 C 83.816406 244.1875 68.628906 237.792969 55.105469 228.652344 C 35.011719 215.085938 19.277344 195.980469 9.820312 173.65625 C 6.625 166.09375 4.1875 158.238281 2.539062 150.195312 C -0.847656 133.570312 -0.847656 116.433594 2.539062 99.8125 C 5.8125 83.824219 12.203125 68.632812 21.347656 55.113281 C 34.914062 35.015625 54.019531 19.285156 76.34375 9.824219 C 83.90625 6.625 91.761719 4.1875 99.804688 2.539062 C 116.429688 -0.847656 133.566406 -0.847656 150.1875 2.539062 C 166.175781 5.8125 181.367188 12.203125 194.886719 21.347656 C 214.984375 34.914062 230.714844 54.019531 240.175781 76.34375 C 243.371094 83.90625 245.8125 91.761719 247.460938 99.804688 C 250.847656 116.429688 250.847656 133.566406 247.460938 150.1875 C 244.1875 166.179688 237.796875 181.367188 228.652344 194.886719 C 215.085938 214.980469 195.980469 230.714844 173.65625 240.171875 C 166.09375 243.371094 158.238281 245.8125 150.195312 247.460938 C 141.902344 249.152344 133.460938 250.003906 125 250 Z M 125 13.390625 C 117.445312 13.390625 109.910156 14.148438 102.507812 15.660156 C 88.230469 18.582031 74.667969 24.289062 62.597656 32.453125 C 44.65625 44.566406 30.613281 61.625 22.167969 81.558594 C 19.3125 88.308594 17.136719 95.328125 15.664062 102.507812 C 12.640625 117.347656 12.640625 132.648438 15.664062 147.492188 C 18.589844 161.769531 24.296875 175.328125 32.460938 187.398438 C 44.574219 205.34375 61.632812 219.390625 81.566406 227.835938 C 88.316406 230.691406 95.335938 232.867188 102.515625 234.339844 C 117.359375 237.363281 132.660156 237.363281 147.5 234.339844 C 161.777344 231.414062 175.339844 225.707031 187.410156 217.542969 C 205.347656 205.429688 219.386719 188.371094 227.832031 168.441406 C 230.6875 161.691406 232.863281 154.671875 234.335938 147.492188 C 237.359375 132.648438 237.359375 117.347656 234.335938 102.507812 C 231.410156 88.230469 225.703125 74.671875 217.539062 62.601562 C 205.425781 44.660156 188.371094 30.613281 168.441406 22.167969 C 161.691406 19.3125 154.671875 17.136719 147.492188 15.664062 C 140.089844 14.152344 132.554688 13.390625 125 13.390625 Z M 125 13.390625 "/>
<path style=" stroke:none;fill-rule:nonzero;fill:url(#linear1);" d="M 220.980469 125 C 220.980469 178.007812 178.007812 220.980469 125 220.980469 C 71.988281 220.980469 29.019531 178.007812 29.019531 125 C 29.019531 71.988281 71.988281 29.019531 125 29.019531 C 178.007812 29.019531 220.980469 71.988281 220.980469 125 Z M 220.980469 125 "/>
<path style=" stroke:none;fill-rule:nonzero;fill:rgb(100%,100%,100%);fill-opacity:1;" d="M 181.917969 109.164062 L 170.527344 109.164062 C 164.257812 91.757812 147.394531 79.824219 125.160156 79.824219 L 88.589844 79.824219 L 88.589844 109.164062 L 75.890625 109.164062 L 75.890625 119.6875 L 88.589844 119.6875 L 88.589844 130.722656 L 75.890625 130.722656 L 75.890625 141.25 L 88.589844 141.25 L 88.589844 170.234375 L 125.160156 170.234375 C 147.140625 170.234375 163.871094 158.398438 170.304688 141.25 L 181.917969 141.25 L 181.917969 130.726562 L 172.863281 130.726562 C 173.09375 128.835938 173.210938 126.933594 173.214844 125.03125 L 173.214844 124.773438 C 173.214844 123.046875 173.117188 121.351562 172.957031 119.6875 L 181.949219 119.6875 L 181.949219 109.164062 Z M 98.828125 89.199219 L 125.160156 89.199219 C 141.476562 89.199219 153.601562 97.230469 159.203125 109.132812 L 98.828125 109.132812 Z M 125.160156 160.769531 L 98.828125 160.769531 L 98.828125 141.21875 L 159.136719 141.21875 C 153.507812 152.929688 141.417969 160.769531 125.160156 160.769531 Z M 162.625 125.253906 C 162.628906 127.074219 162.5 128.894531 162.242188 130.695312 L 98.828125 130.695312 L 98.828125 119.660156 L 162.273438 119.660156 C 162.503906 121.433594 162.621094 123.214844 162.625 125.003906 Z M 162.625 125.253906 "/>
</g>
</svg>
