
<svg xmlns="http://www.w3.org/2000/svg" xmlns:xlink="http://www.w3.org/1999/xlink" width="250px" height="250px" viewBox="0 0 250 250" version="1.1">
<defs>
<linearGradient id="linear0" gradientUnits="userSpaceOnUse" x1="0.843" y1="0.135" x2="0.206" y2="0.886" gradientTransform="matrix(250,0,0,250,0,0)">
<stop offset="0" style="stop-color:rgb(71.372551%,31.37255%,61.960787%);stop-opacity:1;"/>
<stop offset="1" style="stop-color:rgb(18.039216%,72.941178%,77.64706%);stop-opacity:1;"/>
</linearGradient>
<radialGradient id="radial0" gradientUnits="userSpaceOnUse" cx="0.197" cy="0.16" fx="0.197" fy="0.16" r="0.555" gradientTransform="matrix(178.710938,0,0,178.710938,35.652344,35.628906)">
<stop offset="0" style="stop-color:rgb(46.666667%,100%,100%);stop-opacity:1;"/>
<stop offset="0.394" style="stop-color:rgb(52.941179%,89.411765%,100%);stop-opacity:1;"/>
<stop offset="0.861" style="stop-color:rgb(38.431373%,45.09804%,100%);stop-opacity:1;"/>
<stop offset="1" style="stop-color:rgb(58.039218%,40.784314%,100%);stop-opacity:1;"/>
</radialGradient>
<clipPath id="clip1">
  <path d="M 54 95 L 208 95 L 208 215 L 54 215 Z M 54 95 "/>
</clipPath>
<clipPath id="clip2">
  <path d="M 214.113281 118.414062 C 217.75 167.632812 180.800781 210.476562 131.582031 214.113281 C 82.363281 217.75 39.519531 180.800781 35.882812 131.585938 C 32.246094 82.367188 69.195312 39.519531 118.414062 35.882812 C 167.628906 32.246094 210.476562 69.199219 214.113281 118.414062 Z M 214.113281 118.414062 "/>
</clipPath>
<radialGradient id="radial1" gradientUnits="userSpaceOnUse" cx="0.502" cy="0.478" fx="0.502" fy="0.478" r="0.554" gradientTransform="matrix(125.099052,-13.343578,15.427356,144.765231,59.590598,91.482586)">
<stop offset="0.497" style="stop-color:rgb(0%,100%,100%);stop-opacity:1;"/>
<stop offset="1" style="stop-color:rgb(0%,95.686275%,100%);stop-opacity:0;"/>
</radialGradient>
<linearGradient id="linear1" gradientUnits="userSpaceOnUse" x1="0.636" y1="0.506" x2="0.997" y2="0.764" gradientTransform="matrix(134.433594,0,0,123.019531,53.917969,65.320313)">
<stop offset="0" style="stop-color:rgb(35.294119%,15.294118%,92.941177%);stop-opacity:1;"/>
<stop offset="1" style="stop-color:rgb(67.058825%,21.568628%,95.686275%);stop-opacity:1;"/>
</linearGradient>
<linearGradient id="linear2" gradientUnits="userSpaceOnUse" x1="0.039" y1="0.245" x2="0.877" y2="0.957" gradientTransform="matrix(112.957031,0,0,33.578125,66.085938,151.226562)">
<stop offset="0" style="stop-color:rgb(46.27451%,9.411765%,95.686275%);stop-opacity:1;"/>
<stop offset="0.504" style="stop-color:rgb(34.117648%,37.254903%,97.254902%);stop-opacity:1;"/>
<stop offset="1" style="stop-color:rgb(3.529412%,100%,100%);stop-opacity:1;"/>
</linearGradient>
<linearGradient id="linear3" gradientUnits="userSpaceOnUse" x1="0.17" y1="0.498" x2="0.918" y2="0.744" gradientTransform="matrix(105.710937,0,0,32.5,78.335938,75.910156)">
<stop offset="0" style="stop-color:rgb(49.803922%,29.803923%,100%);stop-opacity:1;"/>
<stop offset="1" style="stop-color:rgb(18.82353%,58.431375%,100%);stop-opacity:1;"/>
</linearGradient>
<linearGradient id="linear4" gradientUnits="userSpaceOnUse" x1="0.14" y1="0.056" x2="0.791" y2="1.241" gradientTransform="matrix(105.800781,0,0,32.5,78.894531,116.289063)">
<stop offset="0" style="stop-color:rgb(49.803922%,32.156864%,100%);stop-opacity:1;"/>
<stop offset="1" style="stop-color:rgb(18.82353%,58.823532%,100%);stop-opacity:1;"/>
</linearGradient>
<linearGradient id="linear5" gradientUnits="userSpaceOnUse" x1="0.81" y1="0.81" x2="0.575" y2="0.511" gradientTransform="matrix(130.527344,0,0,102.695312,55.523437,66.589844)">
<stop offset="0" style="stop-color:rgb(100%,100%,100%);stop-opacity:1;"/>
<stop offset="0.157" style="stop-color:rgb(98.431373%,100%,100%);stop-opacity:1;"/>
<stop offset="0.319" style="stop-color:rgb(93.725491%,100%,100%);stop-opacity:1;"/>
<stop offset="0.483" style="stop-color:rgb(85.490197%,100%,100%);stop-opacity:1;"/>
<stop offset="0.648" style="stop-color:rgb(74.117649%,100%,99.607843%);stop-opacity:1;"/>
<stop offset="0.814" style="stop-color:rgb(59.607846%,100%,99.607843%);stop-opacity:1;"/>
<stop offset="0.979" style="stop-color:rgb(41.960785%,100%,99.215686%);stop-opacity:1;"/>
<stop offset="1" style="stop-color:rgb(39.607844%,100%,99.215686%);stop-opacity:1;"/>
</linearGradient>
<linearGradient id="linear6" gradientUnits="userSpaceOnUse" x1="0.126" y1="0.992" x2="0.692" y2="-0.06" gradientTransform="matrix(119.058594,0,0,110.925781,50.945313,45.992188)">
<stop offset="0" style="stop-color:rgb(100%,100%,100%);stop-opacity:0;"/>
<stop offset="0.515" style="stop-color:rgb(90.196079%,100%,100%);stop-opacity:1;"/>
<stop offset="1" style="stop-color:rgb(80.784315%,100%,100%);stop-opacity:0.502;"/>
</linearGradient>
<filter id="alpha" filterUnits="objectBoundingBox" x="0%" y="0%" width="100%" height="100%">
  <feColorMatrix type="matrix" in="SourceGraphic" values="0 0 0 0 1 0 0 0 0 1 0 0 0 0 1 0 0 0 1 0"/>
</filter>
<mask id="mask0">
  <g filter="url(#alpha)">
<rect x="0" y="0" width="250" height="250" style="fill:rgb(0%,0%,0%);fill-opacity:0.4;stroke:none;"/>
  </g>
</mask>
<linearGradient id="linear7" gradientUnits="userSpaceOnUse" x1="0" y1="0.5" x2="1" y2="0.5" gradientTransform="matrix(139.226562,0,0,114.257813,35.644531,35.597656)">
<stop offset="0" style="stop-color:rgb(100%,100%,100%);stop-opacity:1;"/>
<stop offset="0.867" style="stop-color:rgb(100%,100%,100%);stop-opacity:0.306;"/>
<stop offset="1" style="stop-color:rgb(100%,100%,100%);stop-opacity:0.2;"/>
</linearGradient>
<clipPath id="clip3">
  <rect x="0" y="0" width="250" height="250"/>
</clipPath>
<g id="surface5" clip-path="url(#clip3)">
<path style=" stroke:none;fill-rule:nonzero;fill:url(#linear7);" d="M 124.925781 35.597656 C 96.875 35.753906 70.511719 49.011719 53.660156 71.433594 C 36.804688 93.855469 31.398438 122.867188 39.042969 149.855469 C 39.042969 149.855469 39.003906 148.992188 38.953125 147.421875 C 38.667969 138.082031 39.875 103.714844 57.410156 106.707031 C 74.949219 109.703125 100.625 114.898438 131.007812 106.519531 C 161.390625 98.144531 185.597656 69.738281 169.996094 47.800781 C 170.003906 47.796875 151.730469 35.597656 124.925781 35.597656 Z M 124.925781 35.597656 "/>
</g>
</defs>
<g id="surface1">
<path style=" stroke:none;fill-rule:nonzero;fill:rgb(100%,100%,100%);fill-opacity:1;" d="M 250 125 C 250 194.035156 194.035156 250 125 250 C 55.964844 250 0 194.035156 0 125 C 0 55.964844 55.964844 0 125 0 C 194.035156 0 250 55.964844 250 125 Z M 250 125 "/>
<path style=" stroke:none;fill-rule:nonzero;fill:url(#linear0);" d="M 125 250 C 116.539062 250.003906 108.097656 249.152344 99.804688 247.460938 C 83.816406 244.1875 68.628906 237.792969 55.105469 228.652344 C 35.011719 215.085938 19.277344 195.980469 9.820312 173.65625 C 6.625 166.09375 4.1875 158.238281 2.539062 150.195312 C -0.847656 133.570312 -0.847656 116.433594 2.539062 99.8125 C 5.8125 83.824219 12.203125 68.632812 21.347656 55.113281 C 34.914062 35.015625 54.019531 19.285156 76.34375 9.824219 C 83.90625 6.625 91.761719 4.1875 99.804688 2.539062 C 116.429688 -0.847656 133.566406 -0.847656 150.1875 2.539062 C 166.175781 5.8125 181.367188 12.203125 194.886719 21.347656 C 214.984375 34.914062 230.714844 54.019531 240.175781 76.34375 C 243.371094 83.90625 245.8125 91.761719 247.460938 99.804688 C 250.847656 116.429688 250.847656 133.566406 247.460938 150.1875 C 244.1875 166.179688 237.796875 181.367188 228.652344 194.886719 C 215.085938 214.980469 195.980469 230.714844 173.65625 240.171875 C 166.09375 243.371094 158.238281 245.8125 150.195312 247.460938 C 141.902344 249.152344 133.460938 250.003906 125 250 Z M 125 13.390625 C 117.445312 13.390625 109.910156 14.148438 102.507812 15.660156 C 88.230469 18.582031 74.667969 24.289062 62.597656 32.453125 C 44.65625 44.566406 30.613281 61.625 22.167969 81.558594 C 19.3125 88.308594 17.136719 95.328125 15.664062 102.507812 C 12.640625 117.347656 12.640625 132.648438 15.664062 147.492188 C 18.589844 161.769531 24.296875 175.328125 32.460938 187.398438 C 44.574219 205.34375 61.632812 219.390625 81.566406 227.835938 C 88.316406 230.691406 95.335938 232.867188 102.515625 234.339844 C 117.359375 237.363281 132.660156 237.363281 147.5 234.339844 C 161.777344 231.414062 175.339844 225.707031 187.410156 217.542969 C 205.347656 205.429688 219.386719 188.371094 227.832031 168.441406 C 230.6875 161.691406 232.863281 154.671875 234.335938 147.492188 C 237.359375 132.648438 237.359375 117.347656 234.335938 102.507812 C 231.410156 88.230469 225.703125 74.671875 217.539062 62.601562 C 205.425781 44.660156 188.371094 30.613281 168.441406 22.167969 C 161.691406 19.3125 154.671875 17.136719 147.492188 15.664062 C 140.089844 14.152344 132.554688 13.390625 125 13.390625 Z M 125 13.390625 "/>
<path style=" stroke:none;fill-rule:nonzero;fill:url(#radial0);" d="M 214.363281 124.984375 C 214.363281 174.332031 174.355469 214.339844 125.007812 214.339844 C 75.65625 214.339844 35.652344 174.332031 35.652344 124.984375 C 35.652344 75.632812 75.65625 35.628906 125.007812 35.628906 C 174.355469 35.628906 214.363281 75.632812 214.363281 124.984375 Z M 214.363281 124.984375 "/>
<g clip-path="url(#clip1)" clip-rule="nonzero">
<g clip-path="url(#clip2)" clip-rule="nonzero">
<path style=" stroke:none;fill-rule:nonzero;fill:url(#radial1);" d="M 183.636719 96.964844 C 195.945312 108.917969 205.320312 123.851562 207.21875 141.730469 C 211.398438 181.085938 180.785156 216.601562 138.84375 221.058594 C 96.898438 225.511719 59.507812 197.21875 55.328125 157.859375 C 51.148438 118.503906 74.867188 121.171875 116.808594 116.714844 C 139.691406 114.289062 176.179688 89.730469 183.636719 96.964844 Z M 183.636719 96.964844 "/>
</g>
</g>
<path style=" stroke:none;fill-rule:nonzero;fill:url(#linear1);" d="M 187.910156 104.652344 L 187.820312 103.5 L 173.1875 103.5 L 187.917969 90.90625 L 187.894531 90.300781 C 187.589844 81.675781 184.996094 73.285156 180.382812 65.992188 L 180.03125 65.320312 L 101 65.320312 C 93.535156 65.320312 79.03125 67.632812 68.382812 79.539062 C 63.738281 84.726562 53.792969 100.3125 53.917969 117.792969 C 53.992188 127.632812 54.949219 135.28125 58.660156 143.835938 C 60.421875 147.945312 62.523438 151.898438 64.949219 155.652344 C 72.449219 169.105469 80.625 178.472656 89.246094 183.496094 C 95.046875 186.863281 101.675781 188.535156 108.382812 188.320312 L 153.175781 188.320312 L 153.441406 188.171875 C 153.589844 188.097656 168.242188 180.4375 181.480469 172.394531 L 181.863281 172.164062 L 182.011719 171.75 C 182.054688 171.621094 182.109375 171.5 182.148438 171.382812 C 182.261719 171.125 182.359375 170.863281 182.441406 170.601562 C 184.070312 165.933594 185.429688 155.898438 186.089844 150.347656 C 186.355469 148.324219 186.507812 146.992188 186.507812 146.980469 L 186.675781 145.589844 L 186.621094 145.589844 L 186.734375 144.46875 L 171.101562 144.46875 L 187.863281 131.773438 L 187.914062 131.214844 C 188.496094 122.371094 188.496094 113.496094 187.910156 104.652344 Z M 187.910156 104.652344 "/>
<path style=" stroke:none;fill-rule:nonzero;fill:rgb(100%,100%,100%);fill-opacity:1;" d="M 122.105469 159.570312 C 122.105469 159.570312 107.425781 160.984375 64.148438 149.6875 C 81.808594 184.128906 98.34375 186.003906 110.648438 186.003906 L 152.644531 186.003906 C 152.644531 186.003906 166.597656 178.441406 179.832031 170.402344 Z M 122.105469 159.570312 "/>
<path style=" stroke:none;fill-rule:nonzero;fill:url(#linear2);" d="M 110.652344 184.796875 C 105.347656 184.796875 97.902344 184.84375 90.515625 180.027344 C 77.667969 171.65625 73.425781 165.050781 66.085938 151.226562 C 99.078125 159.695312 114.90625 160.636719 120.238281 160.636719 C 121.207031 160.636719 121.800781 160.601562 122.0625 160.582031 L 179.042969 169.820312 C 167.367188 176.796875 153.589844 183.972656 152.003906 184.804688 L 110.652344 184.804688 Z M 110.652344 184.796875 "/>
<path style=" stroke:none;fill-rule:nonzero;fill:rgb(100%,100%,100%);fill-opacity:1;" d="M 94.335938 146.117188 C 94.335938 146.117188 87.242188 137.894531 84.765625 131.648438 L 165.039062 146.117188 L 185.613281 130.539062 C 185.589844 117.761719 185.535156 105.539062 185.535156 105.539062 L 84.769531 105.539062 C 84.769531 105.539062 88.332031 95.332031 94.746094 91.273438 L 168.246094 105 L 185.585938 90.164062 C 184.886719 76.210938 178.207031 67.703125 178.207031 67.703125 L 100.640625 67.703125 C 93.871094 67.703125 80.035156 69.195312 69.609375 80.851562 C 59.179688 92.507812 49.902344 118.476562 59.890625 142.675781 C 70.039062 167.25 83.210938 170.410156 90.652344 170.410156 L 179.832031 170.410156 C 179.953125 170.050781 180.125 169.714844 180.25 169.296875 C 182.398438 162.039062 184.234375 146.128906 184.234375 146.128906 L 94.335938 146.128906 Z M 94.335938 146.117188 "/>
<path style=" stroke:none;fill-rule:nonzero;fill:url(#linear3);" d="M 115.785156 75.910156 C 115.785156 75.910156 86.816406 81.558594 85.402344 82.265625 C 83.992188 82.976562 78.335938 108.410156 78.335938 108.410156 L 162.476562 108.410156 L 184.046875 90.160156 Z M 115.785156 75.910156 "/>
<path style=" stroke:none;fill-rule:nonzero;fill:url(#linear4);" d="M 116.335938 116.289062 C 116.335938 116.289062 87.367188 121.941406 85.960938 122.648438 C 84.550781 123.359375 78.894531 148.789062 78.894531 148.789062 L 159.925781 148.789062 L 184.695312 130.085938 Z M 116.335938 116.289062 "/>
<path style=" stroke:none;fill-rule:nonzero;fill:url(#linear5);" d="M 185.609375 130.539062 L 84.847656 130.539062 C 87.320312 136.789062 94.417969 145.011719 94.417969 145.011719 L 184.324219 145.011719 C 184.324219 145.011719 182.554688 162.75 180.261719 169.285156 L 93.386719 169.285156 C 82.3125 169.285156 70.402344 165.574219 59.988281 141.558594 C 49.570312 117.542969 59.28125 91.390625 69.703125 79.734375 C 80.121094 68.078125 93.960938 66.589844 100.726562 66.589844 L 178.296875 66.589844 C 182.808594 73.644531 185.332031 81.789062 185.597656 90.160156 L 94.824219 90.160156 C 88.40625 94.222656 84.84375 104.425781 84.84375 104.425781 L 185.605469 104.425781 C 186.199219 113.121094 186.199219 121.84375 185.609375 130.539062 Z M 185.609375 130.539062 "/>
<path style=" stroke:none;fill-rule:nonzero;fill:url(#linear6);" d="M 170.003906 60.738281 C 170.003906 60.738281 134.957031 46.832031 103.324219 64.722656 C 75.601562 80.40625 44.152344 105.472656 67.507812 156.917969 C 46.410156 126.808594 46.183594 102.347656 62.753906 76.714844 C 78.417969 52.488281 124.519531 30.398438 170.003906 60.738281 Z M 170.003906 60.738281 "/>
<use xlink:href="#surface5" mask="url(#mask0)"/>
<path style=" stroke:none;fill-rule:nonzero;fill:rgb(100%,100%,100%);fill-opacity:1;" d="M 110.339844 67.070312 C 112.515625 72.609375 105.085938 79.242188 95.777344 81.273438 C 86.472656 83.300781 77.089844 80.257812 75.445312 74.539062 C 72.835938 65.464844 81.890625 62.234375 91.195312 60.210938 C 100.496094 58.1875 105.96875 55.925781 110.339844 67.070312 Z M 110.339844 67.070312 "/>
</g>
</svg>
