<svg height="250" viewBox="0 0 250 250" width="250" xmlns="http://www.w3.org/2000/svg" xmlns:xlink="http://www.w3.org/1999/xlink"><linearGradient id="a" gradientTransform="matrix(1.393647 0 0 1.285891 -452.935241 -253.650102)" gradientUnits="userSpaceOnUse" x1="403.201691" x2="403.201691" y1="391.18399" y2="292.934296"><stop offset="0" stop-color="#878787"/><stop offset=".9976" stop-color="#3b3b3b"/></linearGradient><linearGradient id="b" gradientTransform="matrix(1.393647 0 0 1.285891 -452.935241 -253.650102)" gradientUnits="userSpaceOnUse" x1="414.2995" x2="414.2995" y1="386.18399" y2="226.180801"><stop offset="0" stop-color="#bebebe"/><stop offset=".9976" stop-color="#3b3b3b"/></linearGradient><path d="m157.621094 34.902344c18.257812 0 32.75 9.132812 38.046875 14.53125 6.828125 6.6875 17.558593 19.289062 12.820312 43.464844-2.089843 10.285156-9.613281 19.160156-17.417969 25.589843l27.035157 24.945313c13.796875-11.445313 27.035156-28.289063 30.382812-47.320313 2.230469-12.730469 4.875-33.433593-15.191406-60.953125-12.683594-17.488281-38.046875-28.546875-48.777344-31.503906-22.71875-6.171875-48.917969-1.671875-53.378906-.386719-18.117187 4.886719-31.632813 12.347657-41.667969 21.605469l28.429688 26.230469c7.945312-9 20.347656-15.816407 39.71875-16.203125zm0 0" fill="#f73aa9"/><path d="m218.105469 143.433594-27.035157-24.945313c-3.765624 3.085938-7.527343 5.65625-10.871093 7.585938-9.894531 5.65625-24.527344 11.058593-45.574219 18.644531l-37.070312 13.117188-7.386719 2.570312c-20.347657 6.945312-54.351563 18.644531-72.328125 40.632812-14.773438 18.003907-17.421875 39.351563-17.839844 47.578126v.902343h39.859375l.136719-.773437c.558594-6.171875 2.648437-18 10.316406-27.386719 11.148438-13.632813 39.4375-23.277344 54.628906-28.546875l12.542969-4.246094 37.070313-13.242187c20.207031-7.460938 34.425781-14.015625 45.433593-19.546875 5.714844-3.214844 12.125-7.328125 18.117188-12.34375zm0 0" fill="url(#a)"/><path d="m165.984375 194.097656c-3.066406-5.144531-7.109375-11.574218-11.847656-18.902344l-19.511719-30.605468c-2.648438-4.371094-23.828125-29.316406-27.730469-55.164063-1.394531-9.257812.277344-25.847656 11.148438-38.449219l-28.429688-26.230468c-20.488281 18.902344-25.644531 44.875-22.996093 68.28125 3.761718 33.558594 29.125 61.851562 30.9375 64.679687l19.652343 30.601563c5.433594 8.617187 10.3125 16.203125 13.796875 21.992187 10.730469 17.871094 12.261719 31.632813 12.261719 38.1875v.902344h39.71875v-.902344c0-11.957031-2.925781-31.117187-17-54.390625zm0 0" fill="url(#b)"/></svg>