<!-- Generator: Adobe Illustrator 21.1.0, SVG Export Plug-In . SVG Version: 6.00 Build 0)  -->
<svg xmlns="http://www.w3.org/2000/svg" xmlns:xlink="http://www.w3.org/1999/xlink" width="250px" height="250px" viewBox="0 0 250 250" version="1.1">
<defs>
<linearGradient id="linear0" gradientUnits="userSpaceOnUse" x1="403.201691" y1="391.18399" x2="403.201691" y2="292.934296" gradientTransform="matrix(1.393647,0,0,1.285891,-452.935241,-253.650102)">
<stop offset="0" style="stop-color:rgb(52.941179%,52.941179%,52.941179%);stop-opacity:1;"/>
<stop offset="0.9976" style="stop-color:rgb(23.137255%,23.137255%,23.137255%);stop-opacity:1;"/>
</linearGradient>
<linearGradient id="linear1" gradientUnits="userSpaceOnUse" x1="414.2995" y1="386.18399" x2="414.2995" y2="226.180801" gradientTransform="matrix(1.393647,0,0,1.285891,-452.935241,-253.650102)">
<stop offset="0" style="stop-color:rgb(74.509805%,74.509805%,74.509805%);stop-opacity:1;"/>
<stop offset="0.9976" style="stop-color:rgb(23.137255%,23.137255%,23.137255%);stop-opacity:1;"/>
</linearGradient>
</defs>
<g id="surface1">
<path style=" stroke:none;fill-rule:nonzero;fill:rgb(96.862745%,22.745098%,66.274512%);fill-opacity:1;" d="M 157.621094 34.902344 C 175.878906 34.902344 190.371094 44.035156 195.667969 49.433594 C 202.496094 56.121094 213.226562 68.722656 208.488281 92.898438 C 206.398438 103.183594 198.875 112.058594 191.070312 118.488281 L 218.105469 143.433594 C 231.902344 131.988281 245.140625 115.144531 248.488281 96.113281 C 250.71875 83.382812 253.363281 62.679688 233.296875 35.160156 C 220.613281 17.671875 195.25 6.613281 184.519531 3.65625 C 161.800781 -2.515625 135.601562 1.984375 131.140625 3.269531 C 113.023438 8.15625 99.507812 15.617188 89.472656 24.875 L 117.902344 51.105469 C 125.847656 42.105469 138.25 35.289062 157.621094 34.902344 Z M 157.621094 34.902344 "/>
<path style=" stroke:none;fill-rule:nonzero;fill:url(#linear0);" d="M 218.105469 143.433594 L 191.070312 118.488281 C 187.304688 121.574219 183.542969 124.144531 180.199219 126.074219 C 170.304688 131.730469 155.671875 137.132812 134.625 144.71875 L 97.554688 157.835938 L 90.167969 160.40625 C 69.820312 167.351562 35.816406 179.050781 17.839844 201.039062 C 3.066406 219.042969 0.417969 240.390625 0 248.617188 L 0 249.519531 L 39.859375 249.519531 L 39.996094 248.746094 C 40.554688 242.574219 42.644531 230.746094 50.3125 221.359375 C 61.460938 207.726562 89.75 198.082031 104.941406 192.8125 L 117.484375 188.566406 L 154.554688 175.324219 C 174.761719 167.863281 188.980469 161.308594 199.988281 155.777344 C 205.703125 152.5625 212.113281 148.449219 218.105469 143.433594 Z M 218.105469 143.433594 "/>
<path style=" stroke:none;fill-rule:nonzero;fill:url(#linear1);" d="M 165.984375 194.097656 C 162.917969 188.953125 158.875 182.523438 154.136719 175.195312 L 134.625 144.589844 C 131.976562 140.21875 110.796875 115.273438 106.894531 89.425781 C 105.5 80.167969 107.171875 63.578125 118.042969 50.976562 L 89.613281 24.746094 C 69.125 43.648438 63.96875 69.621094 66.617188 93.027344 C 70.378906 126.585938 95.742188 154.878906 97.554688 157.707031 L 117.207031 188.308594 C 122.640625 196.925781 127.519531 204.511719 131.003906 210.300781 C 141.734375 228.171875 143.265625 241.933594 143.265625 248.488281 L 143.265625 249.390625 L 182.984375 249.390625 L 182.984375 248.488281 C 182.984375 236.53125 180.058594 217.371094 165.984375 194.097656 Z M 165.984375 194.097656 "/>
</g>
</svg>
