<svg height="250" viewBox="0 0 250 250" width="250" xmlns="http://www.w3.org/2000/svg"><g fill="#de3f6b"><path d="m54 0h10.273438c16.050781 3.351562 30.902343 20.53125 41.902343 45.265625 22.824219 50.957031 35.375 122.871094 64.425781 160.796875 21 27.449219 50.375 5 60.699219-41.328125 5.25-.214844 10.523438-.214844 15.773438-.160156-7.222657 47.074219-28.273438 80.90625-51.300781 85.425781h-8.472657c-14.175781-2.5-27.949219-14.097656-38.675781-34.148438-15.574219-28.085937-25.574219-66.597656-37.675781-100.90625-10.398438-30.316406-21.023438-64.414062-38.25-78.191406-21.273438-16.964844-47.273438 9.574219-55.023438 54.683594-6.824219 37.125-1.277343 83.191406 13.972657 106.964844 11.425781 18.832031 27.351562 25.851562 41.078124 14.894531 15.25-11.699219 26.574219-38.296875 35.25-66.488281 3.421876 10.425781 6.75 21.011718 10.046876 31.648437-13.5 36.171875-32.222657 67.234375-54.5 71.542969h-9.125c-28.074219-4.148438-52.472657-54.894531-54.398438-114.839844v-19.628906c1.824219-59.839844 25.898438-111.167969 54-115.53125"/><path d="m186.726562 0h8.523438c28.324219 3.9375 52.425781 55.691406 54.75 115.636719v30.746093c-23.375.480469-46.773438.160157-70.148438.214844.023438-8.992187.023438-17.925781 0-26.917968 18.472657-.105469 36.921876.160156 55.375-.105469-1.300781-15.902344-3-32.179688-7.425781-45.636719-10.800781-35.109375-33.625-49.46875-51.875-34.257812-14.550781 11.492187-25.5 36.648437-33.949219 63.511718-3.25-9.945312-6.476562-20-9.601562-30.160156 13.324219-36.703125 31.925781-68.457031 54.351562-73.03125"/></g></svg>