
<svg xmlns="http://www.w3.org/2000/svg" xmlns:xlink="http://www.w3.org/1999/xlink" width="250px" height="250px" viewBox="0 0 250 250" version="1.1">
<g id="surface1">
<path style=" stroke:none;fill-rule:nonzero;fill:rgb(87.058824%,24.705882%,41.960785%);fill-opacity:1;" d="M 54 0 L 64.273438 0 C 80.324219 3.351562 95.175781 20.53125 106.175781 45.265625 C 129 96.222656 141.550781 168.136719 170.601562 206.0625 C 191.601562 233.511719 220.976562 211.0625 231.300781 164.734375 C 236.550781 164.519531 241.824219 164.519531 247.074219 164.574219 C 239.851562 211.648438 218.800781 245.480469 195.773438 250 L 187.300781 250 C 173.125 247.5 159.351562 235.902344 148.625 215.851562 C 133.050781 187.765625 123.050781 149.253906 110.949219 114.945312 C 100.550781 84.628906 89.925781 50.53125 72.699219 36.753906 C 51.425781 19.789062 25.425781 46.328125 17.675781 91.4375 C 10.851562 128.5625 16.398438 174.628906 31.648438 198.402344 C 43.074219 217.234375 59 224.253906 72.726562 213.296875 C 87.976562 201.597656 99.300781 175 107.976562 146.808594 C 111.398438 157.234375 114.726562 167.820312 118.023438 178.457031 C 104.523438 214.628906 85.800781 245.691406 63.523438 250 L 54.398438 250 C 26.324219 245.851562 1.925781 195.105469 0 135.160156 L 0 115.53125 C 1.824219 55.691406 25.898438 4.363281 54 0 "/>
<path style=" stroke:none;fill-rule:nonzero;fill:rgb(87.058824%,24.705882%,41.960785%);fill-opacity:1;" d="M 186.726562 0 L 195.25 0 C 223.574219 3.9375 247.675781 55.691406 250 115.636719 L 250 146.382812 C 226.625 146.863281 203.226562 146.542969 179.851562 146.597656 C 179.875 137.605469 179.875 128.671875 179.851562 119.679688 C 198.324219 119.574219 216.773438 119.839844 235.226562 119.574219 C 233.925781 103.671875 232.226562 87.394531 227.800781 73.9375 C 217 38.828125 194.175781 24.46875 175.925781 39.679688 C 161.375 51.171875 150.425781 76.328125 141.976562 103.191406 C 138.726562 93.246094 135.5 83.191406 132.375 73.03125 C 145.699219 36.328125 164.300781 4.574219 186.726562 0 "/>
</g>
</svg>
