<svg xmlns="http://www.w3.org/2000/svg" width="200" height="200" viewBox="0 0 200 200" version="1.1"><path d="M 90.500 35.559 C 89.400 35.812, 86.025 36.504, 83 37.097 C 58.459 41.904, 37.991 57.726, 29.962 78.097 C 27.231 85.024, 26.267 98.733, 27.993 106.092 C 33.098 127.863, 52.239 145.739, 78.500 153.263 C 88.568 156.147, 111.092 156.822, 121.127 154.539 C 149.075 148.184, 169.681 130.367, 175.485 107.540 C 182.968 78.107, 162.630 48.854, 127.463 38.467 C 120.298 36.351, 115.892 35.747, 105.500 35.459 C 98.350 35.260, 91.600 35.305, 90.500 35.559 M 89.691 63.501 C 81.243 65.823, 74.312 69.878, 69.166 75.509 C 63.350 81.873, 61 87.907, 61 96.482 C 61 114.233, 79.379 129, 101.471 129 C 122.590 129, 139.498 117.449, 142.974 100.646 C 147.123 80.591, 126.794 61.758, 101.356 62.089 C 97.585 62.139, 92.336 62.774, 89.691 63.501" stroke="none" fill="#e4c658" fill-rule="evenodd"/><path d="M -0 100.005 L -0 200.010 100.250 199.755 L 200.500 199.500 200.755 99.750 L 201.010 0 100.505 0 L 0 0 -0 100.005 M 0.481 100.500 C 0.481 155.500, 0.602 178.147, 0.750 150.826 C 0.898 123.506, 0.898 78.506, 0.750 50.826 C 0.602 23.147, 0.481 45.500, 0.481 100.500 M 90.500 35.559 C 89.400 35.812, 86.025 36.504, 83 37.097 C 58.459 41.904, 37.991 57.726, 29.962 78.097 C 27.231 85.024, 26.267 98.733, 27.993 106.092 C 33.098 127.863, 52.239 145.739, 78.500 153.263 C 88.568 156.147, 111.092 156.822, 121.127 154.539 C 149.075 148.184, 169.681 130.367, 175.485 107.540 C 182.968 78.107, 162.630 48.854, 127.463 38.467 C 120.298 36.351, 115.892 35.747, 105.500 35.459 C 98.350 35.260, 91.600 35.305, 90.500 35.559 M 89.691 63.501 C 81.243 65.823, 74.312 69.878, 69.166 75.509 C 63.350 81.873, 61 87.907, 61 96.482 C 61 114.233, 79.379 129, 101.471 129 C 122.590 129, 139.498 117.449, 142.974 100.646 C 147.123 80.591, 126.794 61.758, 101.356 62.089 C 97.585 62.139, 92.336 62.774, 89.691 63.501" stroke="none" fill="#0d0d0c" fill-rule="evenodd"/></svg>