<?xml version="1.0" encoding="UTF-8"?>
<svg version="1.1" viewBox="0 0 800 800" width="1280" height="1280" xmlns="http://www.w3.org/2000/svg">
<path transform="translate(0)" d="m0 0h800v800h-800z" fill="#0D0C0C"/>
<path transform="translate(377,139)" d="m0 0h59l33 4 36 8 37 12 24 11 21 11 12 8 17 12 13 10 5 5 7 8 8 6 6 8 8 10 6 8 7 11 8 14 4 5 8 19 11 33 2 17 1 16v23l-4 26-5 17-7 20-6 14-5 6-7 14-7 9-14 19-8 9-6 5-4 5-11 9-9 8-24 16-23 13-19 9-15 6-24 8-18 5-28 6-19 3-26 1h-32l-23-2-46-9-24-7-15-5-28-12-16-8-17-10-22-15-10-9-8-7-16-16-9-11-9-12-11-17-8-16-7-17-6-16-5-21-2-15v-38l2-13 5-23 12-31 8-15 11-17 11-15 9-10 7-8 16-16 16-12 10-7 15-10 27-14 21-9 25-9 26-7 25-5 16-2z" fill="#E5C55D"/>
<path transform="translate(393,248)" d="m0 0h32l17 2 31 8 12 5 20 10 15 10 14 11 16 16 12 22 7 16 4 16 1 6v20l-1 13-1 5-3 7-5 13-8 16-6 9-15 16-10 9-11 8-18 10-13 6-23 8-23 5-18 1h-31l-19-3-17-4-18-6-17-8-15-9-10-8-9-7-7-7v-2l-4-2-7-10-12-20-6-16-2-7-2-19v-16l1-13 7-21 8-15 11-17 17-17 19-14 15-8 25-10 28-7 5-1z" fill="#0D0C0C"/>
</svg>
