<?xml version="1.0" standalone="no"?>
<!DOCTYPE svg PUBLIC "-//W3C//DTD SVG 20010904//EN"
 "http://www.w3.org/TR/2001/REC-SVG-20010904/DTD/svg10.dtd">
<svg version="1.0" xmlns="http://www.w3.org/2000/svg"
 width="512.000000pt" height="512.000000pt" viewBox="0 0 512.000000 512.000000"
 preserveAspectRatio="xMidYMid meet">

<g transform="translate(0.000000,512.000000) scale(0.100000,-0.100000)"
fill="#000000" stroke="none">
<path d="M2360 5114 c-202 -24 -306 -41 -425 -71 -912 -228 -1630 -946 -1858
-1858 -55 -222 -72 -365 -72 -625 0 -260 17 -403 72 -625 228 -912 946 -1630
1858 -1858 222 -55 365 -72 625 -72 260 0 403 17 625 72 912 228 1630 946
1858 1858 55 222 72 365 72 625 0 260 -17 403 -72 625 -225 902 -929 1614
-1828 1851 -207 54 -368 75 -610 79 -115 2 -226 1 -245 -1z m-424 -2302 c43
-64 103 -177 157 -294 l45 -97 -56 -32 -56 -31 -55 17 c-83 26 -320 150 -455
238 -65 43 -120 76 -122 74 -3 -2 24 -29 58 -59 138 -120 264 -209 409 -287
55 -30 69 -42 56 -47 -15 -5 -17 -22 -17 -131 l0 -124 -32 5 c-18 3 -103 13
-188 22 -247 26 -344 58 -478 159 -103 77 -190 199 -247 346 -22 56 -85 265
-85 282 0 4 233 7 518 7 l517 0 31 -48z m514 -178 c-5 -19 -10 -37 -12 -38
-18 -13 -100 -57 -102 -54 -1 1 -13 21 -27 43 -14 22 -31 50 -38 63 l-12 22
100 0 99 0 -8 -36z m397 29 c-2 -5 -28 -47 -56 -95 l-52 -86 -104 60 c-101 58
-105 62 -105 94 l0 34 161 0 c88 0 158 -3 156 -7z m813 -18 c0 -10 -197 -152
-275 -197 -144 -85 -307 -140 -367 -125 -14 4 -35 15 -47 24 l-21 18 61 143
61 142 294 0 c162 0 294 -2 294 -5z m504 -62 c-95 -254 -287 -429 -539 -491
-97 -24 -131 -29 -305 -42 -74 -5 -159 -13 -187 -16 l-53 -6 0 104 0 104 58
24 c197 80 377 195 484 310 l73 78 247 1 248 1 -26 -67z m-1488 -334 l174
-101 0 -211 -1 -212 -180 -103 -179 -102 -180 102 -180 103 3 214 2 213 170
99 c94 54 176 99 184 99 8 0 92 -45 187 -101z m-793 -364 c15 -6 17 -18 15
-87 l-3 -80 -60 -22 c-65 -24 -166 -75 -150 -75 6 -1 35 6 65 14 30 8 76 15
103 15 45 0 47 -1 47 -28 0 -24 11 -34 85 -77 47 -27 85 -51 84 -54 -1 -15
-125 -110 -185 -142 -161 -89 -312 -78 -539 36 -71 36 -140 74 -153 83 l-22
17 58 90 c107 165 210 256 342 303 57 20 79 22 180 19 63 -2 123 -8 133 -12z
m1650 -5 c126 -39 243 -140 353 -304 30 -44 54 -86 54 -92 0 -18 -300 -163
-370 -179 -120 -27 -230 -16 -330 35 -58 29 -260 194 -250 203 3 2 24 14 48
27 40 23 42 26 42 71 0 33 4 49 16 53 45 17 172 -6 269 -49 66 -29 80 -27 36
4 -46 33 -136 70 -231 95 -82 22 -85 24 -88 54 -4 37 4 42 119 76 110 33 238
35 332 6z"/>
<path d="M2393 2104 l-93 -55 0 -112 0 -112 95 -53 95 -54 95 54 95 53 0 112
0 112 -94 55 c-52 31 -96 56 -98 56 -2 -1 -45 -26 -95 -56z"/>
</g>
</svg>
