<svg height="250" viewBox="0 0 250 250" width="250" xmlns="http://www.w3.org/2000/svg" xmlns:xlink="http://www.w3.org/1999/xlink"><linearGradient id="a" gradientUnits="userSpaceOnUse" x1="210.74795868691" x2="51.499024384" y1="33.75081361654" y2="221.50116891581"><stop offset="0" stop-color="#b6509e"/><stop offset="1" stop-color="#2ebac6"/></linearGradient><path d="m124.996094 249.988281c-8.460938 0-16.902344-.851562-25.195313-2.539062-15.988281-3.277344-31.175781-9.667969-44.695312-18.8125-20.097657-13.5625-35.828125-32.667969-45.289063-54.992188-3.195312-7.558593-5.632812-15.417969-7.28125-23.460937-3.382812-16.621094-3.382812-33.757813 0-50.382813 3.277344-15.988281 9.667969-31.175781 18.808594-44.695312 13.566406-20.097657 32.671875-35.832031 54.996094-45.292969 7.5625-3.195312 15.421875-5.636719 23.460937-7.28125 16.625-3.386719 33.757813-3.386719 50.382813 0 15.988281 3.273438 31.179687 9.664062 44.699218 18.804688 20.09375 13.566406 35.828126 32.671874 45.285157 55 3.199219 7.558593 5.640625 15.417968 7.289062 23.457031 3.386719 16.625 3.386719 33.761719 0 50.382812-3.277343 15.992188-9.667969 31.179688-18.808593 44.699219-13.566407 20.097656-32.671876 35.828125-54.996094 45.289062-7.5625 3.195313-15.421875 5.636719-23.460938 7.285157-8.292968 1.691406-16.734375 2.542969-25.195312 2.539062zm0-236.609375c-7.554688 0-15.089844.757813-22.492188 2.269532-14.277344 2.921874-27.839844 8.628906-39.910156 16.792968-17.941406 12.113282-31.984375 29.171875-40.429688 49.105469-2.855468 6.75-5.03125 13.765625-6.503906 20.949219-3.023437 14.839844-3.023437 30.140625 0 44.984375 2.925782 14.273437 8.632813 27.835937 16.796875 39.90625 12.113281 17.941406 29.167969 31.988281 49.101563 40.4375 6.753906 2.851562 13.769531 5.03125 20.949218 6.5 14.84375 3.023437 30.144532 3.023437 44.988282 0 14.273437-2.921875 27.835937-8.628907 39.90625-16.796875 17.9375-12.113282 31.976562-29.167969 40.421875-49.097656 2.851562-6.753907 5.03125-13.769532 6.503906-20.949219 3.019531-14.84375 3.019531-30.144531 0-44.988281-2.925781-14.273438-8.632813-27.835938-16.796875-39.90625-12.113281-17.941407-29.167969-31.984376-49.097656-40.429688-6.75-2.851562-13.769532-5.03125-20.949219-6.503906-7.402344-1.507813-14.9375-2.269532-22.492187-2.269532zm0 0" fill="url(#a)"/><path d="m151.253906 39.570312c-30.167968.171876-55.445312 22.871094-58.839844 52.847657-31.148437 3.503906-54.164062 30.691406-52.480468 61.992187 1.6875 31.300782 27.484375 55.859375 58.828125 56 30.164062-.175781 55.429687-22.875 58.828125-52.84375 31.144531-3.507812 54.160156-30.6875 52.476562-61.984375-1.679687-31.300781-27.46875-55.859375-58.8125-56.011719zm45.316406 65.859376c-3.023437 19.949218-18.675781 35.613281-38.625 38.652343v-38.652343zm-143.136718 39.121093c3.023437-19.949219 18.675781-35.613281 38.621094-38.648437v38.621094zm90.660156 13.382813c-3.25 22.527344-22.554688 39.25-45.316406 39.25-22.761719 0-42.066406-16.722656-45.316406-39.25zm.5-52.503906v39.121093h-39.152344v-39.121093zm51.976562-13.382813h-90.660156c3.296875-22.492187 22.585938-39.160156 45.316406-39.160156 22.730469 0 42.019532 16.667969 45.316407 39.160156zm0 0" fill="#26ddf9"/></svg>