<svg height="250" viewBox="0 0 250 250" width="250" xmlns="http://www.w3.org/2000/svg" xmlns:xlink="http://www.w3.org/1999/xlink"><linearGradient id="a" gradientUnits="userSpaceOnUse" x1="210.75" x2="51.5" y1="33.75" y2="221.5"><stop offset="0" stop-color="#b6509e"/><stop offset="1" stop-color="#2ebac6"/></linearGradient><path d="m250 125c0 69.035156-55.964844 125-125 125s-125-55.964844-125-125 55.964844-125 125-125 125 55.964844 125 125zm0 0" fill="#fff"/><path d="m125 250c-8.460938.003906-16.902344-.847656-25.195312-2.539062-15.988282-3.273438-31.175782-9.667969-44.699219-18.808594-20.09375-13.566406-35.828125-32.671875-45.285157-54.996094-3.195312-7.5625-5.632812-15.417969-7.28125-23.460938-3.386718-16.625-3.386718-33.761718 0-50.382812 3.273438-15.988281 9.664063-31.179688 18.808594-44.699219 13.566406-20.097656 32.671875-35.828125 54.996094-45.289062 7.5625-3.199219 15.417969-5.636719 23.460938-7.285157 16.625-3.386718 33.761718-3.386718 50.382812 0 15.988281 3.273438 31.179688 9.664063 44.699219 18.808594 20.097656 13.566406 35.828125 32.671875 45.289062 54.996094 3.195313 7.5625 5.636719 15.417969 7.285157 23.460938 3.386718 16.625 3.386718 33.761718 0 50.382812-3.273438 15.992188-9.664063 31.179688-18.808594 44.699219-13.566406 20.09375-32.671875 35.828125-54.996094 45.285156-7.5625 3.199219-15.417969 5.640625-23.460938 7.289063-8.292968 1.691406-16.734374 2.542968-25.195312 2.539062zm0-236.609375c-7.554688 0-15.089844.757813-22.492188 2.269531-14.277343 2.921875-27.839843 8.628906-39.910156 16.792969-17.941406 12.113281-31.984375 29.171875-40.429687 49.105469-2.855469 6.75-5.03125 13.769531-6.503907 20.949218-3.023437 14.839844-3.023437 30.140626 0 44.984376 2.925782 14.277343 8.632813 27.835937 16.796876 39.90625 12.113281 17.945312 29.171874 31.992187 49.105468 40.4375 6.75 2.855468 13.769532 5.03125 20.949219 6.503906 14.84375 3.023437 30.144531 3.023437 44.984375 0 14.277344-2.925782 27.839844-8.632813 39.910156-16.796875 17.9375-12.113281 31.976563-29.171875 40.421875-49.101563 2.855469-6.75 5.03125-13.769531 6.503907-20.949218 3.023437-14.84375 3.023437-30.144532 0-44.984376-2.925782-14.277343-8.632813-27.835937-16.796876-39.90625-12.113281-17.941406-29.167968-31.988281-49.097656-40.433593-6.75-2.855469-13.769531-5.03125-20.949218-6.503907-7.402344-1.511718-14.9375-2.273437-22.492188-2.273437zm0 0" fill="url(#a)"/><g fill="#31cb9e"><path d="m114.859375 125.003906 71.582031 41.003906c1.171875.707032 2.632813.722657 3.820313.046876 1.1875-.675782 1.914062-1.941407 1.90625-3.308594v-75.539063c.015625-1.371093-.714844-2.640625-1.90625-3.3125-1.191407-.675781-2.65625-.644531-3.820313.078125zm0 0"/><path d="m184.929688 65.816406-48.9375-35.992187c-1.027344-.789063-2.382813-1.015625-3.613282-.601563-1.226562.414063-2.167968 1.410156-2.511718 2.664063l-17.871094 80.175781 72.503906-40.089844c1.117188-.578125 1.855469-1.699218 1.945312-2.957031.085938-1.253906-.488281-2.46875-1.515624-3.195313"/><path d="m135.933594 220.15625 48.996094-35.992188c1.042968-.734374 1.632812-1.960937 1.550781-3.234374-.082031-1.273438-.824219-2.414063-1.953125-3.007813l-72.53125-40.089844 17.871094 80.175781c.300781 1.265626 1.21875 2.296876 2.441406 2.738282 1.222656.445312 2.585937.246094 3.628906-.53125"/><path d="m96.246094 123.515625 18.613281-87.050781c.289063-1.476563-.34375-2.980469-1.601563-3.804688-1.257812-.824218-2.890624-.800781-4.125.054688l-47.675781 36.566406c-2.449219 1.878906-3.878906 4.789062-3.867187 7.875v92.773438c-.046875 3.125 1.386718 6.085937 3.863281 7.988281l47.449219 36.453125c1.234375.855468 2.867187.875 4.125.050781 1.257812-.824219 1.890625-2.328125 1.601562-3.800781zm0 0"/></g></svg>