<?xml version="1.0" encoding="UTF-8" standalone="no"?>
<svg
   xmlns:dc="http://purl.org/dc/elements/1.1/"
   xmlns:cc="http://creativecommons.org/ns#"
   xmlns:rdf="http://www.w3.org/1999/02/22-rdf-syntax-ns#"
   xmlns:svg="http://www.w3.org/2000/svg"
   xmlns="http://www.w3.org/2000/svg"
   xmlns:xlink="http://www.w3.org/1999/xlink"
   id="svg20"
   version="1.1"
   viewBox="0 0 85 85"
   height="85px"
   width="85px">
  <metadata
     id="metadata24">
    <rdf:RDF>
      <cc:Work
         rdf:about="">
        <dc:format>image/svg+xml</dc:format>
        <dc:type
           rdf:resource="http://purl.org/dc/dcmitype/StillImage" />
        <dc:title>Logo Copy 2</dc:title>
      </cc:Work>
    </rdf:RDF>
  </metadata>
  <title
     id="title2">Logo Copy 2</title>
  <defs
     id="defs5">
    <circle
       r="42.5"
       cy="42.5"
       cx="42.5"
       id="path-1" />
    <mask
       fill="white"
       id="mask-2">
      <use
         height="100%"
         width="100%"
         y="0"
         x="0"
         id="use7"
         xlink:href="#path-1" />
    </mask>
    <clipPath
       id="clipPath943"
       clipPathUnits="userSpaceOnUse">
      <circle
         r="42.754677"
         cy="42.5"
         cx="42.5"
         id="circle945"
         style="fill:#0054ff;fill-rule:evenodd;stroke:none;stroke-width:1.00599241" />
    </clipPath>
  </defs>
  <circle
     style="fill:#0054ff;fill-rule:evenodd;stroke:none;stroke-width:1"
     id="Oval"
     cx="42.5"
     cy="42.5"
     r="42.5" />
  <path
     style="fill:#ffffff"
     clip-path="url(#clipPath943)"
     id="path11"
     d="m 65.690137,67.190136 c 1.348039,-1.348039 3.533641,-1.34804 4.881681,0 l 8.452331,8.452331 c 1.348042,1.348042 1.348039,3.533642 0,4.881681 -1.348039,1.348039 -3.533639,1.348043 -4.881682,0 l -8.45233,-8.452331 c -1.34804,-1.348039 -1.348039,-3.533642 0,-4.881681 z M 52.683019,55.045986 c 2.359069,-2.359069 6.170966,-2.371977 8.514112,-0.02883 2.343146,2.343145 2.330238,6.155043 -0.02883,8.514112 -2.359068,2.359069 -6.170967,2.371977 -8.514113,0.02883 -2.343146,-2.343146 -2.330237,-6.155045 0.02883,-8.514113 z m -9.424285,12.203689 c 1.338941,-1.338941 3.509793,-1.338941 4.848734,0 1.33894,1.338941 1.338939,3.509792 -10e-7,4.848732 L 39.531574,80.6743 c -1.338941,1.338941 -3.509792,1.338942 -4.848732,10e-7 -1.338941,-1.338941 -1.338941,-3.509792 0,-4.848733 z m -8.42574,-30.916682 c 1.348039,-1.348039 3.533642,-1.348039 4.881681,0 l 8.452332,8.452332 c 1.348039,1.348039 1.348039,3.533642 0,4.881681 -1.348039,1.348039 -3.533643,1.348039 -4.881682,0 l -8.452331,-8.452332 c -1.348039,-1.348039 -1.348039,-3.533642 0,-4.881681 z M 21.825876,24.188843 c 2.359069,-2.359069 6.170966,-2.371977 8.514112,-0.02883 2.343146,2.343145 2.330238,6.155043 -0.02883,8.514112 -2.359068,2.359069 -6.170967,2.371977 -8.514112,0.02883 -2.343147,-2.343146 -2.330238,-6.155044 0.02883,-8.514113 z M 43.468426,5.3256988 c 1.338941,-1.3389406 3.509792,-1.3389413 4.848733,-7e-7 1.33894,1.3389406 1.33894,3.5097917 -10e-7,4.8487319 l -8.575893,8.575893 c -1.338941,1.338941 -3.509792,1.338942 -4.848732,10e-7 -1.338941,-1.338941 -1.33894,-3.509792 0,-4.848732 z M 3.97585,5.4758498 c 1.348039,-1.3480389 3.5336425,-1.3480389 4.8816817,3e-7 l 8.4523323,8.4523319 c 1.348039,1.348039 1.348039,3.533642 0,4.881681 -1.348039,1.348039 -3.533643,1.348039 -4.881682,0 L 3.9758503,10.357531 C 2.6278112,9.0094923 2.6278111,6.8238888 3.97585,5.4758498 Z" />
</svg>
