
<svg xmlns="http://www.w3.org/2000/svg" xmlns:xlink="http://www.w3.org/1999/xlink" width="250px" height="250px" viewBox="0 0 250 250" version="1.1">
<g id="surface1">
<path style=" stroke:none;fill-rule:evenodd;fill:rgb(0%,32.941177%,100%);fill-opacity:1;" d="M 125 0 C 194.035156 0 250 55.964844 250 125 C 250 156.988281 237.984375 186.167969 218.222656 208.277344 L 207.5625 197.617188 C 203.597656 193.652344 197.171875 193.652344 193.207031 197.617188 C 189.242188 201.582031 189.242188 208.011719 193.207031 211.976562 L 203.507812 222.277344 C 182.050781 239.617188 154.738281 250 125 250 C 55.964844 250 0 194.035156 0 125 C 0 95.261719 10.382812 67.949219 27.722656 46.492188 L 36.554688 55.324219 C 40.519531 59.289062 46.945312 59.289062 50.910156 55.324219 C 54.875 51.359375 54.875 44.929688 50.910156 40.964844 L 41.722656 31.777344 C 63.832031 12.015625 93.011719 0 125 0 Z M 141.492188 197.792969 C 137.554688 193.855469 131.167969 193.855469 127.230469 197.792969 L 102.007812 223.015625 C 98.070312 226.953125 98.070312 233.339844 102.007812 237.277344 C 105.945312 241.214844 112.332031 241.214844 116.269531 237.277344 L 141.492188 212.054688 C 145.429688 208.117188 145.429688 201.730469 141.492188 197.792969 Z M 179.992188 161.816406 C 173.101562 154.921875 161.886719 154.960938 154.949219 161.898438 C 148.011719 168.839844 147.972656 180.050781 154.867188 186.941406 C 161.757812 193.832031 172.96875 193.796875 179.90625 186.855469 C 186.84375 179.917969 186.882812 168.707031 179.992188 161.816406 Z M 116.808594 106.863281 C 112.84375 102.898438 106.414062 102.898438 102.449219 106.863281 C 98.484375 110.828125 98.484375 117.253906 102.449219 121.21875 L 127.308594 146.078125 C 131.273438 150.042969 137.703125 150.042969 141.667969 146.078125 C 145.632812 142.113281 145.632812 135.6875 141.667969 131.722656 Z M 89.234375 71.058594 C 82.34375 64.167969 71.132812 64.207031 64.195312 71.144531 C 57.253906 78.082031 57.21875 89.292969 64.109375 96.183594 C 71 103.078125 82.210938 103.039062 89.152344 96.101562 C 96.089844 89.160156 96.125 77.949219 89.234375 71.058594 Z M 142.109375 15.664062 C 138.171875 11.726562 131.785156 11.726562 127.847656 15.664062 L 102.625 40.886719 C 98.6875 44.824219 98.6875 51.210938 102.625 55.148438 C 106.5625 59.085938 112.949219 59.085938 116.886719 55.148438 L 142.109375 29.925781 C 146.046875 25.988281 146.046875 19.601562 142.109375 15.664062 Z M 142.109375 15.664062 "/>
<path style=" stroke:none;fill-rule:evenodd;fill:rgb(100%,100%,100%);fill-opacity:1;" d="M 141.492188 197.792969 C 145.429688 201.730469 145.429688 208.117188 141.492188 212.054688 L 116.269531 237.277344 C 112.332031 241.214844 105.945312 241.214844 102.007812 237.277344 C 98.070312 233.339844 98.070312 226.953125 102.007812 223.015625 L 127.230469 197.792969 C 131.167969 193.855469 137.554688 193.855469 141.492188 197.792969 Z M 207.5625 197.617188 L 218.222656 208.277344 C 213.707031 213.328125 208.785156 218.011719 203.507812 222.277344 L 193.207031 211.976562 C 189.242188 208.011719 189.242188 201.582031 193.207031 197.617188 C 197.171875 193.652344 203.597656 193.652344 207.5625 197.617188 Z M 179.992188 161.816406 C 186.882812 168.707031 186.84375 179.917969 179.90625 186.855469 C 172.96875 193.796875 161.757812 193.832031 154.867188 186.941406 C 147.972656 180.050781 148.011719 168.839844 154.949219 161.898438 C 161.886719 154.960938 173.101562 154.921875 179.992188 161.816406 Z M 116.808594 106.863281 L 141.667969 131.722656 C 145.632812 135.6875 145.632812 142.113281 141.667969 146.078125 C 137.703125 150.042969 131.273438 150.042969 127.308594 146.078125 L 102.449219 121.21875 C 98.484375 117.253906 98.484375 110.828125 102.449219 106.863281 C 106.414062 102.898438 112.84375 102.898438 116.808594 106.863281 Z M 89.234375 71.058594 C 96.125 77.949219 96.089844 89.160156 89.152344 96.101562 C 82.210938 103.039062 71 103.078125 64.109375 96.183594 C 57.21875 89.292969 57.253906 78.082031 64.195312 71.144531 C 71.132812 64.207031 82.34375 64.167969 89.234375 71.058594 Z M 41.722656 31.777344 L 50.910156 40.964844 C 54.875 44.929688 54.875 51.359375 50.910156 55.324219 C 46.945312 59.289062 40.519531 59.289062 36.554688 55.324219 L 27.722656 46.492188 C 31.988281 41.214844 36.671875 36.292969 41.722656 31.777344 Z M 142.109375 15.664062 C 146.046875 19.601562 146.046875 25.988281 142.109375 29.925781 L 116.886719 55.148438 C 112.949219 59.085938 106.5625 59.085938 102.625 55.148438 C 98.6875 51.210938 98.6875 44.824219 102.625 40.886719 L 127.847656 15.664062 C 131.785156 11.726562 138.171875 11.726562 142.109375 15.664062 Z M 142.109375 15.664062 "/>
</g>
</svg>
