<?xml version="1.0" encoding="UTF-8" standalone="no"?>
<svg
   xmlns:dc="http://purl.org/dc/elements/1.1/"
   xmlns:cc="http://creativecommons.org/ns#"
   xmlns:rdf="http://www.w3.org/1999/02/22-rdf-syntax-ns#"
   xmlns:svg="http://www.w3.org/2000/svg"
   xmlns="http://www.w3.org/2000/svg"
   xmlns:xlink="http://www.w3.org/1999/xlink"
   xmlns:sodipodi="http://sodipodi.sourceforge.net/DTD/sodipodi-0.dtd"
   xmlns:inkscape="http://www.inkscape.org/namespaces/inkscape"
   width="28.762077mm"
   height="28.762077mm"
   viewBox="0 0 28.762078 28.762078"
   version="1.1"
   id="svg8"
   inkscape:version="0.92.5 (2060ec1f9f, 2020-04-08)"
   sodipodi:docname="Allspot.svg">
  <defs
     id="defs2">
    <linearGradient
       x1="0"
       y1="0"
       x2="1"
       y2="0"
       gradientUnits="userSpaceOnUse"
       gradientTransform="matrix(-2.9633333e-6,-68.018069,68.018069,-2.9633333e-6,-264.81167,83.584756)"
       spreadMethod="pad"
       id="linearGradient1404">
      <stop
         style="stop-opacity:1;stop-color:#26527b"
         offset="0"
         id="stop1398" />
      <stop
         style="stop-opacity:1;stop-color:#3dc5c4"
         offset="0.38946118"
         id="stop1400" />
      <stop
         style="stop-opacity:1;stop-color:#3dc5c4"
         offset="1"
         id="stop1402" />
    </linearGradient>
    <linearGradient
       inkscape:collect="always"
       xlink:href="#linearGradient4931"
       id="linearGradient1858"
       gradientUnits="userSpaceOnUse"
       gradientTransform="translate(856.26813,-219.23537)"
       x1="-548.36401"
       y1="318.07834"
       x2="-134.50798"
       y2="318.07834" />
    <linearGradient
       x1="0"
       y1="0"
       x2="1"
       y2="0"
       gradientUnits="userSpaceOnUse"
       gradientTransform="matrix(-2.9633333e-6,-68.018069,68.018069,-2.9633333e-6,-5280.1605,1417.6518)"
       spreadMethod="pad"
       id="linearGradient4931">
      <stop
         style="stop-opacity:1;stop-color:#26527b"
         offset="0"
         id="stop4925" />
      <stop
         style="stop-opacity:1;stop-color:#3dc5c4"
         offset="0.58631384"
         id="stop4927" />
      <stop
         style="stop-opacity:1;stop-color:#3dc5c4"
         offset="1"
         id="stop4929" />
    </linearGradient>
    <linearGradient
       inkscape:collect="always"
       xlink:href="#linearGradient4931"
       id="linearGradient1027"
       gradientUnits="userSpaceOnUse"
       gradientTransform="translate(856.26813,-219.23537)"
       x1="-548.36401"
       y1="318.07834"
       x2="-134.50798"
       y2="318.07834" />
  </defs>
  <sodipodi:namedview
     id="base"
     pagecolor="#ffffff"
     bordercolor="#666666"
     borderopacity="1.0"
     inkscape:pageopacity="0.0"
     inkscape:pageshadow="2"
     inkscape:zoom="4"
     inkscape:cx="46.559634"
     inkscape:cy="48.603164"
     inkscape:document-units="mm"
     inkscape:current-layer="layer1"
     showgrid="false"
     inkscape:window-width="1680"
     inkscape:window-height="986"
     inkscape:window-x="0"
     inkscape:window-y="27"
     inkscape:window-maximized="1"
     inkscape:snap-page="true"
     inkscape:document-rotation="0"
     inkscape:snap-bbox="true"
     inkscape:bbox-paths="true"
     inkscape:bbox-nodes="true"
     inkscape:snap-bbox-edge-midpoints="true"
     inkscape:snap-bbox-midpoints="true"
     inkscape:object-paths="true"
     inkscape:snap-intersection-paths="true"
     inkscape:snap-smooth-nodes="true"
     inkscape:snap-midpoints="true"
     inkscape:snap-object-midpoints="true"
     inkscape:snap-center="true"
     inkscape:snap-text-baseline="true"
     inkscape:pagecheckerboard="0"
     inkscape:snap-global="false">
    <inkscape:grid
       spacingy="10"
       spacingx="10"
       units="cm"
       id="grid1020"
       type="xygrid"
       originx="-55.475603"
       originy="-378.0692" />
  </sodipodi:namedview>
  <metadata
     id="metadata5">
    <rdf:RDF>
      <cc:Work
         rdf:about="">
        <dc:format>image/svg+xml</dc:format>
        <dc:type
           rdf:resource="http://purl.org/dc/dcmitype/StillImage" />
        <dc:title />
      </cc:Work>
    </rdf:RDF>
  </metadata>
  <g
     inkscape:label="Layer 1"
     inkscape:groupmode="layer"
     id="layer1"
     transform="translate(-28.002383,-78.938746)">
    <g
       id="g62246"
       transform="matrix(0.19754479,0,0,0.19754479,-32.822467,73.793866)">
      <circle
         style="fill:url(#linearGradient1858);fill-opacity:1;fill-rule:evenodd;stroke-width:2.98463988"
         id="circle1847"
         cx="380.70297"
         cy="98.842995"
         r="72.798874" />
      <path
         id="path1698"
         style="font-style:normal;font-variant:normal;font-weight:normal;font-stretch:normal;font-size:24.05920029px;line-height:1.25;font-family:'Magnolia Script';-inkscape-font-specification:'Magnolia Script, Normal';font-variant-ligatures:normal;font-variant-caps:normal;font-variant-numeric:normal;font-feature-settings:normal;text-align:start;letter-spacing:0px;word-spacing:0px;writing-mode:lr-tb;direction:rtl;text-anchor:start;fill:#ececec;fill-opacity:1;stroke:none;stroke-width:1.44410002"
         d="m 404.03208,52.631624 c -17.6219,0 -25.26243,7.270671 -30.93093,23.044071 l -4.94801,13.737661 h -14.70143 c -0.54208,0 -0.97824,0.429853 -0.97824,0.964285 v 5.299932 c 0,0.534432 0.43616,0.9648 0.97824,0.9648 h 12.09745 l -1.81332,5.034837 -0.92295,2.46135 h -9.36118 c -0.54208,0 -0.97824,0.43036 -0.97824,0.96479 v 5.29942 c 0,0.53443 0.43616,0.9648 0.97824,0.9648 h 6.65024 l -0.063,0.16795 c -6.0383,14.6644 -11.83007,18.85466 -17.25217,18.85466 -2.9579,0 -4.31292,-0.98598 -4.31292,-0.98598 0,0 -1.72496,1.84879 -1.72496,6.16189 0,5.6686 3.45013,9.4878 8.62583,9.4878 6.9009,0 11.82984,-3.81965 18.97714,-23.53655 l 3.66851,-10.14977 h 21.43693 l -0.21291,1.27693 c -1.10909,6.5312 -1.72547,11.4611 -1.72547,17.1297 0,9.3655 6.03843,15.27969 14.78773,15.27969 11.3372,0 21.19548,-10.72013 22.30458,-18.23713 0.2464,-1.9717 -0.49276,-3.20497 -2.34146,-3.20497 -1.7252,3.4504 -6.90045,10.7213 -12.93875,10.7213 -4.18979,0 -6.77769,-3.08049 -5.54539,-10.2278 L 413.8904,66.064396 c 1.602,-9.2422 0.12348,-13.432772 -9.85832,-13.432772 z m -5.9154,6.777879 c 0,0 1.2e-4,2.341491 -0.61598,6.038392 l -4.23385,23.965461 h -17.31781 l 5.03897,-13.984158 c 2.9575,-8.3796 8.87227,-16.019695 17.12867,-16.019695 z m -24.77265,37.23287 h 18.64589 l -1.32395,7.496187 H 370.6398 l 0.4899,-1.35186 z"
         inkscape:connector-curvature="0" />
    </g>
    <g
       id="g103625"
       transform="matrix(0.19754479,0,0,0.19754479,-32.822467,73.793866)"
       inkscape:export-xdpi="255.53"
       inkscape:export-ydpi="255.53">
      <circle
         style="fill:url(#linearGradient1027);fill-opacity:1;fill-rule:evenodd;stroke-width:2.98463988"
         id="circle103621"
         cx="380.70297"
         cy="98.842995"
         r="72.798874" />
      <path
         id="path103623"
         style="font-style:normal;font-variant:normal;font-weight:normal;font-stretch:normal;font-size:24.05920029px;line-height:1.25;font-family:'Magnolia Script';-inkscape-font-specification:'Magnolia Script, Normal';font-variant-ligatures:normal;font-variant-caps:normal;font-variant-numeric:normal;font-feature-settings:normal;text-align:start;letter-spacing:0px;word-spacing:0px;writing-mode:lr-tb;direction:rtl;text-anchor:start;fill:#ececec;fill-opacity:1;stroke:none;stroke-width:1.44410002"
         d="m 404.03208,52.631624 c -17.6219,0 -25.26243,7.270671 -30.93093,23.044071 l -4.94801,13.737661 h -14.70143 c -0.54208,0 -0.97824,0.429853 -0.97824,0.964285 v 5.299932 c 0,0.534432 0.43616,0.9648 0.97824,0.9648 h 12.09745 l -1.81332,5.034837 -0.92295,2.46135 h -9.36118 c -0.54208,0 -0.97824,0.43036 -0.97824,0.96479 v 5.29942 c 0,0.53443 0.43616,0.9648 0.97824,0.9648 h 6.65024 l -0.063,0.16795 c -6.0383,14.6644 -11.83007,18.85466 -17.25217,18.85466 -2.9579,0 -4.31292,-0.98598 -4.31292,-0.98598 0,0 -1.72496,1.84879 -1.72496,6.16189 0,5.6686 3.45013,9.4878 8.62583,9.4878 6.9009,0 11.82984,-3.81965 18.97714,-23.53655 l 3.66851,-10.14977 h 21.43693 l -0.21291,1.27693 c -1.10909,6.5312 -1.72547,11.4611 -1.72547,17.1297 0,9.3655 6.03843,15.27969 14.78773,15.27969 11.3372,0 21.19548,-10.72013 22.30458,-18.23713 0.2464,-1.9717 -0.49276,-3.20497 -2.34146,-3.20497 -1.7252,3.4504 -6.90045,10.7213 -12.93875,10.7213 -4.18979,0 -6.77769,-3.08049 -5.54539,-10.2278 L 413.8904,66.064396 c 1.602,-9.2422 0.12348,-13.432772 -9.85832,-13.432772 z m -5.9154,6.777879 c 0,0 1.2e-4,2.341491 -0.61598,6.038392 l -4.23385,23.965461 h -17.31781 l 5.03897,-13.984158 c 2.9575,-8.3796 8.87227,-16.019695 17.12867,-16.019695 z m -24.77265,37.23287 h 18.64589 l -1.32395,7.496187 H 370.6398 l 0.4899,-1.35186 z"
         inkscape:connector-curvature="0" />
    </g>
  </g>
  <inkscape:templateinfo>
    <inkscape:name>ldco</inkscape:name>
    <inkscape:date>2020-11-03</inkscape:date>
  </inkscape:templateinfo>
  <inkscape:templateinfo>
    <inkscape:name>new</inkscape:name>
    <inkscape:date>2021-09-16</inkscape:date>
  </inkscape:templateinfo>
</svg>
