
<svg xmlns="http://www.w3.org/2000/svg" xmlns:xlink="http://www.w3.org/1999/xlink" width="250px" height="250px" viewBox="0 0 250 250" version="1.1">
<defs>
<linearGradient id="linear0" gradientUnits="userSpaceOnUse" x1="0.843" y1="0.135" x2="0.206" y2="0.886" gradientTransform="matrix(250,0,0,250,0,0)">
<stop offset="0" style="stop-color:rgb(71.372551%,31.37255%,61.960787%);stop-opacity:1;"/>
<stop offset="1" style="stop-color:rgb(18.039216%,72.941178%,77.64706%);stop-opacity:1;"/>
</linearGradient>
<linearGradient id="linear1" gradientUnits="userSpaceOnUse" x1="0.854" y1="0.146" x2="0.146" y2="0.854" gradientTransform="matrix(191.960938,0,0,191.960938,29.019531,29.019531)">
<stop offset="0" style="stop-color:rgb(100%,17.647059%,33.333334%);stop-opacity:1;"/>
<stop offset="1" style="stop-color:rgb(100%,73.725492%,35.686275%);stop-opacity:1;"/>
</linearGradient>
<linearGradient id="linear2" gradientUnits="userSpaceOnUse" x1="0.5" y1="0" x2="0.5" y2="1" gradientTransform="matrix(59.933594,0,0,71.921875,96.960937,91.347656)">
<stop offset="0" style="stop-color:rgb(64.705884%,14.117648%,70.19608%);stop-opacity:1;"/>
<stop offset="1" style="stop-color:rgb(100%,17.647059%,33.333334%);stop-opacity:1;"/>
</linearGradient>
<linearGradient id="linear3" gradientUnits="userSpaceOnUse" x1="0.5" y1="0" x2="0.5" y2="1" gradientTransform="matrix(43.96875,0,0,52.742188,157.660156,129.707031)">
<stop offset="0" style="stop-color:rgb(64.705884%,14.117648%,70.19608%);stop-opacity:1;"/>
<stop offset="1" style="stop-color:rgb(100%,17.647059%,33.333334%);stop-opacity:1;"/>
</linearGradient>
</defs>
<g id="surface1">
<path style=" stroke:none;fill-rule:nonzero;fill:rgb(100%,100%,100%);fill-opacity:1;" d="M 250 125 C 250 194.035156 194.035156 250 125 250 C 55.964844 250 0 194.035156 0 125 C 0 55.964844 55.964844 0 125 0 C 194.035156 0 250 55.964844 250 125 Z M 250 125 "/>
<path style=" stroke:none;fill-rule:nonzero;fill:url(#linear0);" d="M 125 250 C 116.539062 250.003906 108.097656 249.152344 99.804688 247.460938 C 83.816406 244.1875 68.628906 237.792969 55.105469 228.652344 C 35.011719 215.085938 19.277344 195.980469 9.820312 173.65625 C 6.625 166.09375 4.1875 158.238281 2.539062 150.195312 C -0.847656 133.570312 -0.847656 116.433594 2.539062 99.8125 C 5.8125 83.824219 12.203125 68.632812 21.347656 55.113281 C 34.914062 35.015625 54.019531 19.285156 76.34375 9.824219 C 83.90625 6.625 91.761719 4.1875 99.804688 2.539062 C 116.429688 -0.847656 133.566406 -0.847656 150.1875 2.539062 C 166.175781 5.8125 181.367188 12.203125 194.886719 21.347656 C 214.984375 34.914062 230.714844 54.019531 240.175781 76.34375 C 243.371094 83.90625 245.8125 91.761719 247.460938 99.804688 C 250.847656 116.429688 250.847656 133.566406 247.460938 150.1875 C 244.1875 166.179688 237.796875 181.367188 228.652344 194.886719 C 215.085938 214.980469 195.980469 230.714844 173.65625 240.171875 C 166.09375 243.371094 158.238281 245.8125 150.195312 247.460938 C 141.902344 249.152344 133.460938 250.003906 125 250 Z M 125 13.390625 C 117.445312 13.390625 109.910156 14.148438 102.507812 15.660156 C 88.230469 18.582031 74.667969 24.289062 62.597656 32.453125 C 44.65625 44.566406 30.613281 61.625 22.167969 81.558594 C 19.3125 88.308594 17.136719 95.328125 15.664062 102.507812 C 12.640625 117.347656 12.640625 132.648438 15.664062 147.492188 C 18.589844 161.769531 24.296875 175.328125 32.460938 187.398438 C 44.574219 205.34375 61.632812 219.390625 81.566406 227.835938 C 88.316406 230.691406 95.335938 232.867188 102.515625 234.339844 C 117.359375 237.363281 132.660156 237.363281 147.5 234.339844 C 161.777344 231.414062 175.339844 225.707031 187.410156 217.542969 C 205.347656 205.429688 219.386719 188.371094 227.832031 168.441406 C 230.6875 161.691406 232.863281 154.671875 234.335938 147.492188 C 237.359375 132.648438 237.359375 117.347656 234.335938 102.507812 C 231.410156 88.230469 225.703125 74.671875 217.539062 62.601562 C 205.425781 44.660156 188.371094 30.613281 168.441406 22.167969 C 161.691406 19.3125 154.671875 17.136719 147.492188 15.664062 C 140.089844 14.152344 132.554688 13.390625 125 13.390625 Z M 125 13.390625 "/>
<path style=" stroke:none;fill-rule:nonzero;fill:url(#linear1);" d="M 220.980469 125 C 220.980469 178.007812 178.007812 220.980469 125 220.980469 C 71.988281 220.980469 29.019531 178.007812 29.019531 125 C 29.019531 71.988281 71.988281 29.019531 125 29.019531 C 178.007812 29.019531 220.980469 71.988281 220.980469 125 Z M 220.980469 125 "/>
<path style=" stroke:none;fill-rule:evenodd;fill:url(#linear2);" d="M 96.960938 91.347656 L 96.960938 163.269531 L 156.894531 163.269531 Z M 96.960938 91.347656 "/>
<path style=" stroke:none;fill-rule:evenodd;fill:rgb(100%,100%,100%);fill-opacity:1;" d="M 37.023438 163.269531 L 96.960938 163.269531 L 96.960938 91.351562 Z M 37.023438 163.269531 "/>
<path style=" stroke:none;fill-rule:evenodd;fill:rgb(98.823529%,60.000002%,39.607844%);fill-opacity:1;" d="M 48.195312 182.449219 C 53.671875 189.699219 60.125 196.152344 67.375 201.628906 L 182.449219 201.628906 C 189.699219 196.152344 196.152344 189.699219 201.628906 182.449219 Z M 48.195312 182.449219 "/>
<path style=" stroke:none;fill-rule:evenodd;fill:rgb(100%,17.647059%,33.333334%);fill-opacity:1;" d="M 67.375 201.628906 C 101.472656 227.199219 148.351562 227.199219 182.449219 201.628906 Z M 67.375 201.628906 "/>
<path style=" stroke:none;fill-rule:evenodd;fill:url(#linear3);" d="M 157.660156 129.707031 L 157.660156 182.449219 L 201.628906 182.449219 Z M 157.660156 129.707031 "/>
<path style=" stroke:none;fill-rule:evenodd;fill:rgb(100%,73.725492%,35.686275%);fill-opacity:1;" d="M 157.660156 163.269531 L 37.023438 163.269531 C 39.988281 170.074219 43.738281 176.511719 48.195312 182.449219 L 157.707031 182.449219 L 157.707031 163.269531 Z M 157.660156 163.269531 "/>
<path style=" stroke:none;fill-rule:evenodd;fill:rgb(100%,100%,100%);fill-opacity:1;" d="M 113.742188 182.449219 L 157.660156 182.449219 L 157.660156 129.707031 Z M 113.742188 182.449219 "/>
<path style=" stroke:none;fill-rule:nonzero;fill:rgb(100%,78.823531%,35.686275%);fill-opacity:1;" d="M 181.632812 91.347656 C 181.632812 104.589844 170.902344 115.324219 157.660156 115.324219 C 144.417969 115.324219 133.6875 104.589844 133.6875 91.347656 C 133.6875 78.109375 144.417969 67.375 157.660156 67.375 C 170.902344 67.375 181.632812 78.109375 181.632812 91.347656 Z M 181.632812 91.347656 "/>
<path style=" stroke:none;fill-rule:nonzero;fill:rgb(100%,78.823531%,35.686275%);fill-opacity:1;" d="M 108.949219 64.980469 C 108.949219 71.597656 103.582031 76.964844 96.960938 76.964844 C 90.339844 76.964844 84.972656 71.597656 84.972656 64.980469 C 84.972656 58.359375 90.339844 52.992188 96.960938 52.992188 C 103.582031 52.992188 108.949219 58.359375 108.949219 64.980469 Z M 108.949219 64.980469 "/>
</g>
</svg>
