<svg height="250" viewBox="0 0 250 250" width="250" xmlns="http://www.w3.org/2000/svg"><path d="m.160156 249.976562c-.207031-3.472656-.2148435-6.949218-.03125-10.421874 1.179688-.355469 2.386719-.605469 3.613282-.742188 3.5625-.605469 7.082031-1.425781 10.539062-2.453125.949219-.300781 1.886719-.617187 2.816406-.976563 4.558594-1.738281 8.570313-4.617187 11.632813-8.355468 2.121093-2.613282 3.984375-5.417969 5.5625-8.375 2.222656-4.074219 4.214843-8.261719 5.964843-12.550782 3.550782-8.65625 7.078126-17.328124 10.589844-26.011718 12.054688-29.859375 24.105469-59.722656 36.152344-89.585938 11.429688-28.398437 22.640625-56.867187 33.636719-85.414062.21875-.578125.46875-1.15625.714843-1.734375 4.054688-1.125 8.066407-2.265625 12.203126-3.339844.25.578125.480468 1.09375.667968 1.613281 4.660156 12.734375 9.3125 25.484375 13.964844 38.246094 15.871094 43.460938 31.804688 86.898438 48.140625 130.191406 4.464844 11.835938 8.964844 23.65625 13.507813 35.460938 1.785156 4.824218 3.890624 9.53125 6.300781 14.085937 1.058593 1.945313 2.210937 3.847657 3.441406 5.691407 3.785156 5.765624 9.652344 9.921874 16.429687 11.632812 3.644532.945312 7.351563 1.667969 11.089844 2.15625l2.660156.378906c.378907 1.160156.148438 2.277344.183594 3.386719.035156 1.113281 0 2.363281 0 3.542969.035156 1.140625.015625 2.285156-.066406 3.421875-.378906.058593-.671875.128906-.972656.144531-.421875 0-.839844 0-1.261719 0h-92.296875c-.097656-.199219-.171875-.410156-.210938-.628906 0-3.132813 0-6.261719 0-9.390625.027344-.140625.066407-.277344.125-.410157.773438-.214843 1.5625-.359374 2.363282-.433593 3.84375-.5 7.652344-1.226563 11.40625-2.183594 1.503906-.410156 2.988281-.945313 4.457031-1.484375.730469-.28125 1.4375-.621094 2.113281-1.011719 3.695313-2.042969 5.179688-5.210937 4.867188-9.261719-.164063-1.839843-.5-3.664062-.992188-5.445312-.738281-2.785156-1.773437-5.484375-2.742187-8.1875-19.382813-52.957031-38.550781-105.992188-57.507813-159.101562-.199218-.578126-.265625-1.214844-.863281-1.734376-.1875.113282-.449219.199219-.589844.375-.152343.269532-.269531.554688-.347656.851563-9.265625 26.113281-19.144531 52.011719-28.96875 77.933594-7.253906 19.1875-14.519531 38.378906-21.28125 57.734375-2.714844 7.761718-5.320313 15.570312-7.875 23.375-.992187 2.988281-1.722656 6.050781-2.1875 9.15625-.371094 2.078125-.433594 4.195312-.191406 6.289062.3125 2.738282 1.789062 5.226563 4.0625 6.851563 1.496093 1.046875 3.136719 1.871093 4.878906 2.449219 2.765625.957031 5.617187 1.671874 8.511719 2.140624 3.199218.582032 6.410156 1.015626 9.617187 1.519532.207031.035156.410157.074218.6875.125.082031.230468.136719.464844.164063.707031v9.082031c-.023438.179688-.066406.359375-.125.535156-.285156.058594-.574219.105469-.867188.136719-.417968 0-.839844 0-1.257812 0h-82.429688zm0 0"/></svg>