
<svg xmlns="http://www.w3.org/2000/svg" xmlns:xlink="http://www.w3.org/1999/xlink" width="250px" height="250px" viewBox="0 0 250 250" version="1.1">
<g id="surface1">
<path style=" stroke:none;fill-rule:nonzero;fill:rgb(0%,0%,0%);fill-opacity:1;" d="M 0.160156 249.976562 C -0.046875 246.503906 -0.0546875 243.027344 0.128906 239.554688 C 1.308594 239.199219 2.515625 238.949219 3.742188 238.8125 C 7.304688 238.207031 10.824219 237.386719 14.28125 236.359375 C 15.230469 236.058594 16.167969 235.742188 17.097656 235.382812 C 21.65625 233.644531 25.667969 230.765625 28.730469 227.027344 C 30.851562 224.414062 32.714844 221.609375 34.292969 218.652344 C 36.515625 214.578125 38.507812 210.390625 40.257812 206.101562 C 43.808594 197.445312 47.335938 188.773438 50.847656 180.089844 C 62.902344 150.230469 74.953125 120.367188 87 90.503906 C 98.429688 62.105469 109.640625 33.636719 120.636719 5.089844 C 120.855469 4.511719 121.105469 3.933594 121.351562 3.355469 C 125.40625 2.230469 129.417969 1.089844 133.554688 0.015625 C 133.804688 0.59375 134.035156 1.109375 134.222656 1.628906 C 138.882812 14.363281 143.535156 27.113281 148.1875 39.875 C 164.058594 83.335938 179.992188 126.773438 196.328125 170.066406 C 200.792969 181.902344 205.292969 193.722656 209.835938 205.527344 C 211.621094 210.351562 213.726562 215.058594 216.136719 219.613281 C 217.195312 221.558594 218.347656 223.460938 219.578125 225.304688 C 223.363281 231.070312 229.230469 235.226562 236.007812 236.9375 C 239.652344 237.882812 243.359375 238.605469 247.097656 239.09375 L 249.757812 239.472656 C 250.136719 240.632812 249.90625 241.75 249.941406 242.859375 C 249.976562 243.972656 249.941406 245.222656 249.941406 246.402344 C 249.976562 247.542969 249.957031 248.6875 249.875 249.824219 C 249.496094 249.882812 249.203125 249.953125 248.902344 249.96875 C 248.480469 249.96875 248.0625 249.96875 247.640625 249.96875 L 155.34375 249.96875 C 155.246094 249.769531 155.171875 249.558594 155.132812 249.339844 C 155.132812 246.207031 155.132812 243.078125 155.132812 239.949219 C 155.160156 239.808594 155.199219 239.671875 155.257812 239.539062 C 156.03125 239.324219 156.820312 239.179688 157.621094 239.105469 C 161.464844 238.605469 165.273438 237.878906 169.027344 236.921875 C 170.53125 236.511719 172.015625 235.976562 173.484375 235.4375 C 174.214844 235.15625 174.921875 234.816406 175.597656 234.425781 C 179.292969 232.382812 180.777344 229.214844 180.464844 225.164062 C 180.300781 223.324219 179.964844 221.5 179.472656 219.71875 C 178.734375 216.933594 177.699219 214.234375 176.730469 211.53125 C 157.347656 158.574219 138.179688 105.539062 119.222656 52.429688 C 119.023438 51.851562 118.957031 51.214844 118.359375 50.695312 C 118.171875 50.808594 117.910156 50.894531 117.769531 51.070312 C 117.617188 51.339844 117.5 51.625 117.421875 51.921875 C 108.15625 78.035156 98.277344 103.933594 88.453125 129.855469 C 81.199219 149.042969 73.933594 168.234375 67.171875 187.589844 C 64.457031 195.351562 61.851562 203.160156 59.296875 210.964844 C 58.304688 213.953125 57.574219 217.015625 57.109375 220.121094 C 56.738281 222.199219 56.675781 224.316406 56.917969 226.410156 C 57.230469 229.148438 58.707031 231.636719 60.980469 233.261719 C 62.476562 234.308594 64.117188 235.132812 65.859375 235.710938 C 68.625 236.667969 71.476562 237.382812 74.371094 237.851562 C 77.570312 238.433594 80.78125 238.867188 83.988281 239.371094 C 84.195312 239.40625 84.398438 239.445312 84.675781 239.496094 C 84.757812 239.726562 84.8125 239.960938 84.839844 240.203125 C 84.839844 243.234375 84.839844 246.261719 84.839844 249.285156 C 84.816406 249.464844 84.773438 249.644531 84.714844 249.820312 C 84.429688 249.878906 84.140625 249.925781 83.847656 249.957031 C 83.429688 249.957031 83.007812 249.957031 82.589844 249.957031 L 0.160156 249.957031 Z M 0.160156 249.976562 "/>
</g>
</svg>
