<svg fill="none" height="155" width="155" xmlns="http://www.w3.org/2000/svg"><linearGradient id="a" gradientUnits="userSpaceOnUse" x1="131.43" x2="22.779" y1="66.408" y2="66.408"><stop offset="0" stop-color="#faf1e7"/><stop offset=".26" stop-color="#fdceaa"/><stop offset=".612" stop-color="#f4837d"/><stop offset="1" stop-color="#b9aafd"/></linearGradient><circle cx="77.059" cy="77.964" fill="#faf1e7" r="77"/><path d="M122.377 95.798L77.105 50.416 31.834 95.798l22.636 22.691 22.636-22.691 22.635 22.69z" fill="#fff"/><g stroke="#1f2333" stroke-linejoin="round" stroke-width="1.713"><path d="M77.106 95.797l22.635 22.694 4.527-11.238-27.162-27.228z" fill="#faf1e7"/><path d="M122.38 95.792l-22.638 22.692 4.527-11.231 27.163-27.228zm-45.274.005L54.47 118.491l-4.527-11.238 27.163-27.228z" fill="#1f2333"/><path d="M31.831 95.792l22.639 22.692-4.527-11.231L22.78 80.025z" fill="#faf1e7"/><path d="M131.431 80.023L77.105 25.565 22.78 80.023l27.164 27.229 27.163-27.23 27.162 27.229 27.163-27.228z" fill="url(#a)"/></g></svg>