<?xml version="1.0" encoding="UTF-8" standalone="no"?><!DOCTYPE svg PUBLIC "-//W3C//DTD SVG 1.1//EN"
        "http://www.w3.org/Graphics/SVG/1.1/DTD/svg11.dtd">
<svg width="100%" height="100%" viewBox="0 0 4166 4287" version="1.1" xmlns="http://www.w3.org/2000/svg"
     xmlns:xlink="http://www.w3.org/1999/xlink" xml:space="preserve" xmlns:serif="http://www.serif.com/"
     style="fill-rule:evenodd;clip-rule:evenodd;stroke-linejoin:round;stroke-miterlimit:2;"><g transform="matrix(4.16667,0,0,4.16667,0,0)"><rect x="0" y="18.72" width="1000" height="1010.39"/></g>
    <g transform="matrix(4.16667,0,0,4.16667,0,0)"><circle cx="509.13" cy="506.85" r="489.93" style="fill:url(#_Linear1);"/></g>
    <g transform="matrix(4.16667,0,0,4.16667,0,0)"><circle cx="509.13" cy="490.57" r="104.43" style="fill:#fffbe5;"/></g>
    <g transform="matrix(4.16667,0,0,4.16667,0,78)"><g style="filter:url(#_Effect2);"><path d="M713.1,317.59c0,-0 -1.37,40 40.41,54.24c0,-0 -43.85,13.56 -40.42,58.77l-5.47,-0c0,-0 2.74,-43.84 -38.36,-56.51c0,-0 37.67,-14.72 43.84,-56.5Z" style="fill:#f748e7;fill-rule:nonzero;"/></g></g>
    <g transform="matrix(4.16667,0,0,4.16667,0,78)"><path d="M713.1,317.59c0,-0 -1.37,40 40.41,54.24c0,-0 -43.85,13.56 -40.42,58.77l-5.47,-0c0,-0 2.74,-43.84 -38.36,-56.51c0,-0 37.67,-14.72 43.84,-56.5Z" style="fill:#efd32b;fill-rule:nonzero;"/></g>
    <g transform="matrix(4.16667,0,0,4.16667,0,78)"><g style="filter:url(#_Effect3);"><path d="M937.17,334.9c-0.11,-7.59 -5,-8.9 -5,-8.9l-21.31,-9.56l3.28,-26.74c-147.92,-105.41 -271,-2.77 -271,-2.77c-5.95,-208.33 -121.41,-267.31 -121.41,-267.31c-0,-0 -14,19.54 -25.12,21.09c-11.12,1.55 -25.87,-15.48 -25.87,-15.48c-107.2,70.16 -108.9,261.63 -108.92,264.35c3.18,1.893 6.353,3.873 9.52,5.94c3.167,2.067 3.54,0.1 5.24,7.08c11.48,-159.48 84.22,-207.6 89.56,-217.26c5.34,-9.66 15.11,-4.34 23.59,8.66c8.48,13 31.48,-17.74 31.48,-17.74c82.79,41.49 110.87,240.74 110.87,240.74c120.87,-99.39 230,-4.43 230,-4.43c0,-0 -5.29,14.8 -7,20.35c-1.71,5.55 25,11.58 25,11.58c12.39,148.89 -192.24,187 -192.24,187c127.65,103.88 95.7,241 93.44,243.81c-2.26,2.81 -31.28,4.14 -31.28,4.14c0.76,20.23 -5.15,24.92 -5.15,24.92c-162.33,35.6 -239,-154.18 -239,-154.18c-66.85,178.6 -216.12,177.68 -227.18,176.47c-11.06,-1.21 -1.78,-26.2 -7.33,-28.53c-5.55,-2.33 -30.36,0.46 -30.36,0.46c-50.61,-150.72 82.49,-262.47 82.49,-262.47c-189.76,-13.67 -201.47,-175.91 -201.47,-175.91l26.08,-9.6l-4.08,-29.85c123.94,-79.64 229.08,-3.49 229.08,-3.49l4.15,0.55c0.58,-7.09 0.18,-11.92 -0.62,-15.22c-0.09,1.19 -0.17,2.38 -0.25,3.58l-10.86,-12.4l-1.65,-1.88l-2,-2.29c-24.273,-14.221 -50.165,-25.478 -77.12,-33.53c-119.41,-13.86 -190.28,45.66 -190.28,45.66c2.9,9.15 2.28,28.95 2.28,28.95c-20.67,2.15 -25.54,14.65 -25.54,14.65c11.31,198.59 220.27,203.23 220.27,203.23c-147.65,154.08 -93.32,276.87 -94,289.45c-0.68,12.58 30.12,4.14 32.59,5c2.47,0.86 1.19,17.77 0.07,24.53c-1.12,6.76 -0.32,9.52 -0.32,9.52c203.32,27.27 276.58,-198.38 276.58,-198.38c1,2.7 1.95,5.35 2.95,8c76.56,199.87 271.79,168.2 271.79,168.2c8.28,-0.13 6,-30.46 6,-30.46c1.79,0.48 32.58,-5.73 32.58,-5.73c40,-178.38 -103.79,-284.43 -103.79,-284.43c220.31,-35.1 221.38,-191.78 221.26,-199.37Z" style="fill:#ff5e9c;fill-rule:nonzero;"/></g></g>
    <g transform="matrix(4.16667,0,0,4.16667,0,78)"><path d="M377.2,317.82l-4.15,-0.55c0,0 -105.14,-76.15 -229.05,3.49l4.14,29.85l-26.14,9.6c0,-0 11.68,162.24 201.44,175.91c0,0 -133.1,111.75 -82.49,262.47c0,0 24.8,-2.79 30.36,-0.46c5.56,2.33 -3.73,27.32 7.33,28.53c11.06,1.21 160.36,2.13 227.26,-176.47c0,0 76.64,189.78 239,154.18c0,0 5.91,-4.69 5.15,-24.92c0,0 29,-1.36 31.22,-4.16c2.22,-2.8 34.21,-139.93 -93.44,-243.81c0,0 204.63,-38.08 192.24,-187c0,0 -26.78,-6 -25,-11.58c1.78,-5.58 7,-20.35 7,-20.35c0,0 -109.11,-95 -230,4.43c0,0 -28.11,-199.26 -110.87,-240.79c0,0 -23,30.72 -31.48,17.74c-8.48,-12.98 -18.22,-18.36 -23.59,-8.62c-5.37,9.74 -78.08,57.78 -89.56,217.26c0.81,3.33 1.21,8.16 0.63,15.25Z" style="fill:none;fill-rule:nonzero;"/></g>
    <g transform="matrix(4.16667,0,0,4.16667,0,78)"><path d="M363.82,291.9l1.65,1.88l10.86,12.4c0.08,-1.2 0.16,-2.39 0.25,-3.58c-1.7,-7 -5.24,-7.08 -5.24,-7.08c-3.16,-2.073 -6.333,-4.053 -9.52,-5.94l2,2.32Z" style="fill:#ff5e9c;fill-rule:nonzero;"/></g>
    <g transform="matrix(4.16667,0,0,4.16667,0,78)"><path d="M937.17,334.9c-0.11,-7.59 -5,-8.9 -5,-8.9l-21.31,-9.56l3.28,-26.74c-147.92,-105.41 -271,-2.77 -271,-2.77c-5.95,-208.33 -121.41,-267.31 -121.41,-267.31c-0,-0 -14,19.54 -25.12,21.09c-11.12,1.55 -25.87,-15.48 -25.87,-15.48c-107.2,70.16 -108.9,261.63 -108.92,264.35c3.18,1.893 6.353,3.873 9.52,5.94c3.167,2.067 3.54,0.1 5.24,7.08c11.48,-159.48 84.22,-207.6 89.56,-217.26c5.34,-9.66 15.11,-4.34 23.59,8.66c8.48,13 31.48,-17.74 31.48,-17.74c82.79,41.49 110.87,240.74 110.87,240.74c120.87,-99.39 230,-4.43 230,-4.43c0,-0 -5.29,14.8 -7,20.35c-1.71,5.55 25,11.58 25,11.58c12.39,148.89 -192.24,187 -192.24,187c127.65,103.88 95.7,241 93.44,243.81c-2.26,2.81 -31.28,4.14 -31.28,4.14c0.76,20.23 -5.15,24.92 -5.15,24.92c-162.33,35.6 -239,-154.18 -239,-154.18c-66.85,178.6 -216.12,177.68 -227.18,176.47c-11.06,-1.21 -1.78,-26.2 -7.33,-28.53c-5.55,-2.33 -30.36,0.46 -30.36,0.46c-50.61,-150.72 82.49,-262.47 82.49,-262.47c-189.76,-13.67 -201.47,-175.91 -201.47,-175.91l26.08,-9.6l-4.08,-29.85c123.94,-79.64 229.08,-3.49 229.08,-3.49l4.15,0.55c0.58,-7.09 0.18,-11.92 -0.62,-15.22c-0.09,1.19 -0.17,2.38 -0.25,3.58l-10.86,-12.4l-1.65,-1.88l-2,-2.29c-24.273,-14.221 -50.165,-25.478 -77.12,-33.53c-119.41,-13.86 -190.28,45.66 -190.28,45.66c2.9,9.15 2.28,28.95 2.28,28.95c-20.67,2.15 -25.54,14.65 -25.54,14.65c11.31,198.59 220.27,203.23 220.27,203.23c-147.65,154.08 -93.32,276.87 -94,289.45c-0.68,12.58 30.12,4.14 32.59,5c2.47,0.86 1.19,17.77 0.07,24.53c-1.12,6.76 -0.32,9.52 -0.32,9.52c203.32,27.27 276.58,-198.38 276.58,-198.38c1,2.7 1.95,5.35 2.95,8c76.56,199.87 271.79,168.2 271.79,168.2c8.28,-0.13 6,-30.46 6,-30.46c1.79,0.48 32.58,-5.73 32.58,-5.73c40,-178.38 -103.79,-284.43 -103.79,-284.43c220.31,-35.1 221.38,-191.78 221.26,-199.37Z" style="fill:#ff5e9c;fill-rule:nonzero;"/></g>
    <g transform="matrix(4.16667,0,0,4.16667,0,78)"><g style="filter:url(#_Effect4);"><path d="M332.94,187.55c0,0 -2.1,58.67 61.91,79.57c0,0 -67.17,19.91 -61.92,86.23l-8.39,0c0,0 4.2,-64.31 -58.76,-82.9c-0,-0 57.71,-21.61 67.16,-82.9Z" style="fill:#f748e7;fill-rule:nonzero;"/></g></g>
    <g transform="matrix(4.16667,0,0,4.16667,0,78)"><path d="M332.94,187.55c0,0 -2.1,58.67 61.91,79.57c0,0 -67.17,19.91 -61.92,86.23l-8.39,0c0,0 4.2,-64.31 -58.76,-82.9c-0,-0 57.71,-21.61 67.16,-82.9Z" style="fill:#efd32b;fill-rule:nonzero;"/></g>
    <g transform="matrix(4.16667,0,0,4.16667,0,78)"><g style="filter:url(#_Effect5);"><path d="M370.47,576.28c0,0 -1,27.89 28.19,37.83c0,0 -30.58,9.46 -28.19,41l-3.82,0c0,0 1.91,-30.57 -26.75,-39.41c-0,-0.01 26.27,-10.28 30.57,-39.42Z" style="fill:#f748e7;fill-rule:nonzero;"/></g></g>
    <g transform="matrix(4.16667,0,0,4.16667,0,78)"><path d="M370.47,576.28c0,0 -1,27.89 28.19,37.83c0,0 -30.58,9.46 -28.19,41l-3.82,0c0,0 1.91,-30.57 -26.75,-39.41c-0,-0.01 26.27,-10.28 30.57,-39.42Z" style="fill:#efd32b;fill-rule:nonzero;"/></g>
    <g transform="matrix(4.16667,0,0,4.16667,0,78)"><g style="filter:url(#_Effect6);"><path d="M630.77,668.56c0.108,9.075 6.086,17.1 14.75,19.8c8.664,2.7 -16,4.95 -14.75,21.45l-2,-0c0,-0 1,-16 -14,-20.62c0,0 13.75,-5.38 16,-20.63Z" style="fill:#f748e7;fill-rule:nonzero;"/></g></g>
    <g transform="matrix(4.16667,0,0,4.16667,0,78)"><path d="M630.77,668.56c0.108,9.075 6.086,17.1 14.75,19.8c8.664,2.7 -16,4.95 -14.75,21.45l-2,-0c0,-0 1,-16 -14,-20.62c0,0 13.75,-5.38 16,-20.63Z" style="fill:#efd32b;fill-rule:nonzero;"/></g>
    <defs><linearGradient id="_Linear1" x1="0" y1="0" x2="1" y2="0" gradientUnits="userSpaceOnUse" gradientTransform="matrix(5.70349e-14,931.45,-931.45,5.70349e-14,509.13,40.55)"><stop offset="0" style="stop-color:#132442;stop-opacity:1"/><stop
            offset="1" style="stop-color:#0b488b;stop-opacity:1"/></linearGradient>
        <filter id="_Effect2" filterUnits="userSpaceOnUse" x="611.66" y="259.99" width="199.45" height="228.21"><feGaussianBlur in="SourceGraphic" stdDeviation="9.6"/></filter>
        <filter id="_Effect3" filterUnits="userSpaceOnUse" x="-72.81" y="-124.38" width="1153.98" height="1147.74"><feGaussianBlur in="SourceGraphic" stdDeviation="24"/></filter>
        <filter id="_Effect4" filterUnits="userSpaceOnUse" x="195.276" y="117.046" width="270.078" height="306.808"><feGaussianBlur in="SourceGraphic" stdDeviation="11.7507"/></filter>
        <filter id="_Effect5" filterUnits="userSpaceOnUse" x="282.33" y="518.71" width="173.9" height="193.97"><feGaussianBlur in="SourceGraphic" stdDeviation="9.59502"/></filter>
        <filter id="_Effect6" filterUnits="userSpaceOnUse" x="557.209" y="610.999" width="147.72" height="156.371"><feGaussianBlur in="SourceGraphic" stdDeviation="9.59344"/></filter></defs></svg>