<svg height="250" viewBox="0 0 250 250" width="250" xmlns="http://www.w3.org/2000/svg"><path d="m0 0h250v250h-250z" fill="#f2f2f2"/><g fill-rule="evenodd"><path d="m158.074219 168.984375c11.605469 0 21.015625-9.378906 21.015625-20.949219 0-11.566406-9.410156-20.949218-21.015625-20.949218s-21.015625 9.382812-21.015625 20.949218c0 11.570313 9.410156 20.949219 21.015625 20.949219zm27.996093-20.949219c0 15.414063-12.535156 27.90625-27.996093 27.90625-15.460938 0-27.996094-12.492187-27.996094-27.90625 0-15.410156 12.535156-27.902344 27.996094-27.902344 15.460937 0 27.996093 12.492188 27.996093 27.902344zm0 0"/><path d="m140.839844 162.46875c1.394531 1.707031 1.136718 4.21875-.578125 5.609375-14.535157 11.800781-29.675781 20.039063-43.058594 23.636719-13.195313 3.550781-25.796875 2.824218-33.769531-5.125-8.855469-8.824219-8.800782-23.300782-3.757813-38.199219.707031-2.085937 2.976563-3.207031 5.066407-2.503906 2.09375.703125 3.21875 2.964843 2.511718 5.050781-4.785156 14.140625-3.644531 24.554688 1.835938 30.015625 4.921875 4.90625 13.824218 6.34375 26.03125 3.0625 12.011718-3.226563 26.164062-10.8125 40.089844-22.121094 1.714843-1.390625 4.230468-1.132812 5.628906.574219zm0 0"/><path d="m112.929688 84.410156c-1.34375-1.746094-1.007813-4.25.746093-5.585937 13.949219-10.636719 28.277344-17.960938 40.925781-21 12.496094-3.003907 24.347657-2.007813 31.964844 5.585937 8.855469 8.824219 8.800782 23.300782 3.757813 38.199219-.707031 2.085937-2.976563 3.207031-5.066407 2.503906-2.09375-.703125-3.21875-2.964843-2.511718-5.050781 4.785156-14.140625 3.644531-24.550781-1.832032-30.015625-4.703124-4.683594-13.019531-6.214844-24.4375-3.46875-11.269531 2.707031-24.597656 9.402344-37.941406 19.578125-1.753906 1.335938-4.265625 1.003906-5.605468-.746094zm0 0"/><path d="m126.085938 100.199219c0 15.410156-12.535157 27.90625-27.996094 27.90625-15.460938 0-27.996094-12.496094-27.996094-27.90625 0-15.414063 12.535156-27.90625 27.996094-27.90625 15.460937 0 27.996094 12.492187 27.996094 27.90625zm-30.796876-13.957031h5.597657v11.164062h11.195312v5.578125h-11.195312v11.164063h-5.597657v-11.164063h-11.203124v-5.578125h11.203124zm0 0"/></g><path d="m168.074219 150.433594v-5.582032h-19.996094v5.582032zm0 0"/></svg>