
<svg xmlns="http://www.w3.org/2000/svg" xmlns:xlink="http://www.w3.org/1999/xlink" width="250px" height="250px" viewBox="0 0 250 250" version="1.1">
<g id="surface1">
<rect x="0" y="0" width="250" height="250" style="fill:rgb(94.901961%,94.901961%,94.901961%);fill-opacity:1;stroke:none;"/>
<path style=" stroke:none;fill-rule:evenodd;fill:rgb(0%,0%,0%);fill-opacity:1;" d="M 158.074219 168.984375 C 169.679688 168.984375 179.089844 159.605469 179.089844 148.035156 C 179.089844 136.46875 169.679688 127.085938 158.074219 127.085938 C 146.46875 127.085938 137.058594 136.46875 137.058594 148.035156 C 137.058594 159.605469 146.46875 168.984375 158.074219 168.984375 Z M 186.070312 148.035156 C 186.070312 163.449219 173.535156 175.941406 158.074219 175.941406 C 142.613281 175.941406 130.078125 163.449219 130.078125 148.035156 C 130.078125 132.625 142.613281 120.132812 158.074219 120.132812 C 173.535156 120.132812 186.070312 132.625 186.070312 148.035156 Z M 186.070312 148.035156 "/>
<path style=" stroke:none;fill-rule:evenodd;fill:rgb(0%,0%,0%);fill-opacity:1;" d="M 140.839844 162.46875 C 142.234375 164.175781 141.976562 166.6875 140.261719 168.078125 C 125.726562 179.878906 110.585938 188.117188 97.203125 191.714844 C 84.007812 195.265625 71.40625 194.539062 63.433594 186.589844 C 54.578125 177.765625 54.632812 163.289062 59.675781 148.390625 C 60.382812 146.304688 62.652344 145.183594 64.742188 145.886719 C 66.835938 146.589844 67.960938 148.851562 67.253906 150.9375 C 62.46875 165.078125 63.609375 175.492188 69.089844 180.953125 C 74.011719 185.859375 82.914062 187.296875 95.121094 184.015625 C 107.132812 180.789062 121.285156 173.203125 135.210938 161.894531 C 136.925781 160.503906 139.441406 160.761719 140.839844 162.46875 Z M 140.839844 162.46875 "/>
<path style=" stroke:none;fill-rule:evenodd;fill:rgb(0%,0%,0%);fill-opacity:1;" d="M 112.929688 84.410156 C 111.585938 82.664062 111.921875 80.160156 113.675781 78.824219 C 127.625 68.1875 141.953125 60.863281 154.601562 57.824219 C 167.097656 54.820312 178.949219 55.816406 186.566406 63.410156 C 195.421875 72.234375 195.367188 86.710938 190.324219 101.609375 C 189.617188 103.695312 187.347656 104.816406 185.257812 104.113281 C 183.164062 103.410156 182.039062 101.148438 182.746094 99.0625 C 187.53125 84.921875 186.390625 74.511719 180.914062 69.046875 C 176.210938 64.363281 167.894531 62.832031 156.476562 65.578125 C 145.207031 68.285156 131.878906 74.980469 118.535156 85.15625 C 116.78125 86.492188 114.269531 86.160156 112.929688 84.410156 Z M 112.929688 84.410156 "/>
<path style=" stroke:none;fill-rule:evenodd;fill:rgb(0%,0%,0%);fill-opacity:1;" d="M 126.085938 100.199219 C 126.085938 115.609375 113.550781 128.105469 98.089844 128.105469 C 82.628906 128.105469 70.09375 115.609375 70.09375 100.199219 C 70.09375 84.785156 82.628906 72.292969 98.089844 72.292969 C 113.550781 72.292969 126.085938 84.785156 126.085938 100.199219 Z M 95.289062 86.242188 L 100.886719 86.242188 L 100.886719 97.40625 L 112.082031 97.40625 L 112.082031 102.984375 L 100.886719 102.984375 L 100.886719 114.148438 L 95.289062 114.148438 L 95.289062 102.984375 L 84.085938 102.984375 L 84.085938 97.40625 L 95.289062 97.40625 Z M 95.289062 86.242188 "/>
<path style=" stroke:none;fill-rule:nonzero;fill:rgb(0%,0%,0%);fill-opacity:1;" d="M 168.074219 150.433594 L 168.074219 144.851562 L 148.078125 144.851562 L 148.078125 150.433594 Z M 168.074219 150.433594 "/>
</g>
</svg>
