<svg height="250" viewBox="0 0 250 250" width="250" xmlns="http://www.w3.org/2000/svg" xmlns:xlink="http://www.w3.org/1999/xlink"><linearGradient id="a" gradientTransform="scale(.883392 .880282)" gradientUnits="userSpaceOnUse" x1="141.5" x2="141.5" y1="99.375198" y2="287.733002"><stop offset="0" stop-color="#01e8f8" stop-opacity=".05"/><stop offset="1" stop-color="#01e8f8" stop-opacity="0"/></linearGradient><linearGradient id="b"><stop offset="0" stop-color="#01e8f7"/><stop offset="1" stop-color="#00c2ff"/></linearGradient><linearGradient id="c" gradientTransform="scale(.883392 .880282)" gradientUnits="userSpaceOnUse" x1="232.389008" x2="237.798004" xlink:href="#b" y1="111.720001" y2="181.287003"/><linearGradient id="d" gradientTransform="scale(.883392 .880282)" gradientUnits="userSpaceOnUse" x1="111.560997" x2="184.824005" y1="63.190498" y2="179.059006"><stop offset="0" stop-color="#01e8f7"/><stop offset="1" stop-color="#00b3ec"/></linearGradient><linearGradient id="e" gradientTransform="scale(.883392 .880282)" gradientUnits="userSpaceOnUse" x1="138.643997" x2="145.197998" xlink:href="#b" y1="120.788002" y2="308.102997"/><path d="m0 0h250v250h-250z" fill="#fff"/><path d="m250 125c0 69.035156-55.964844 125-125 125s-125-55.964844-125-125 55.964844-125 125-125 125 55.964844 125 125zm0 0" fill="url(#a)"/><path d="m222.6875 116.734375c.867188-18.011719-11.714844-29.957031-25.910156-38.160156l-9.226563 54.210937c6.390625-.359375 9.511719 2.066406 10.648438 3.207032 1.417969 1.425781 4.96875 5.707031.707031 12.484374 8.875-1.429687 22.734375-9.988281 23.78125-31.742187zm0 0" fill="url(#c)"/><g fill-rule="evenodd"><path d="m101.644531 53.621094-11.003906-11.054688c16.5625-2.023437 60.265625.570313 102.566406 27.101563.710938 2.855469 0 7.132812 0 7.132812l3.550781 1.785157c3.074219 4.398437 8.304688 16.90625 4.613282 31.742187s-10.054688 21.160156-12.777344 22.464844c-5.675781 0-15.332031 3.28125-18.453125 17.832031-3.125 14.554688-9.109375 17.714844-11.710937 17.476562l-62.464844.714844-41.167969-24.253906-6.03125-50.285156 11.710937-15.691406 20.9375-17.121094 14.90625-6.0625zm73.769531 20.773437c-2.753906 2.867188-5.328124 4.246094-6.0625 4.617188-16.085937-3.421875-21.878906-11.742188-21.878906-11.742188 15.171875-.09375 28.863282 3.515625 38.878906 9.621094 0 0-5.421874-1.757813-10.9375-2.496094zm0 0" fill="url(#d)"/><path d="m169.589844 150.632812c-11.023438 5.410157-24.097656 8.542969-38.113282 8.542969-39.394531 0-71.335937-24.75-71.335937-55.28125 0-22.550781 17.429687-41.949219 42.417969-50.546875-47.523438 2.738282-85.714844 40.914063-85.714844 88.023438 0 54.367187 48.464844 99.289062 108.246094 99.289062 44.640625 0 81.800781-25.882812 101.226562-60.507812-26.734375 6.011718-58.378906-5.421875-56.726562-29.519532zm0 0" fill="url(#e)"/></g></svg>