<svg height="250" viewBox="0 0 250 250" width="250" xmlns="http://www.w3.org/2000/svg" xmlns:xlink="http://www.w3.org/1999/xlink"><linearGradient id="a" gradientTransform="scale(.641026 .639386)" gradientUnits="userSpaceOnUse" x1="126.300003" x2="338.299988" y1="41.799999" y2="318.899994"><stop offset="0" stop-color="#00efff"/><stop offset="1" stop-color="#00b3ec"/></linearGradient><path d="m249.9375 124.746094c0 68.890625-55.9375 124.742187-124.9375 124.742187s-124.9375-55.851562-124.9375-124.742187c0-68.894532 55.9375-124.746094 124.9375-124.746094s124.9375 55.851562 124.9375 124.746094zm0 0" fill="url(#a)"/><path d="m222.691406 116.496094c.835938-17.964844-11.730468-29.921875-25.898437-38.105469l-9.230469 54.089844c6.410156-.320313 9.488281 2.046875 10.644531 3.199219 1.410157 1.46875 4.933594 5.753906.640625 12.464843 8.972656-1.40625 22.753906-9.972656 23.84375-31.648437zm0 0" fill="#9bf9ff"/><g fill-rule="evenodd"><path d="m101.667969 53.515625-10.960938-11.058594c16.535157-1.984375 60.253907.636719 102.5 27.042969.703125 2.878906 0 7.164062 0 7.164062l3.523438 1.726563c3.078125 4.410156 8.332031 16.878906 4.617187 31.710937-3.65625 14.769532-10.066406 21.101563-12.757812 22.378907-5.707032 0-15.320313 3.324219-18.460938 17.839843-3.078125 14.511719-9.101562 17.644532-11.667968 17.390626l-62.433594.703124-41.15625-24.167968-6.023438-50.191406 11.664063-15.664063 20.960937-17.007813 14.875-6.011718 5.320313-1.789063zm73.714843 20.71875c-1.738281 1.851563-3.777343 3.40625-6.023437 4.601563-16.027344-3.386719-21.859375-11.699219-21.859375-11.699219 15.128906-.128907 28.847656 3.515625 38.847656 9.589843 0 0-5.386718-1.789062-10.898437-2.558593zm0 0" fill="#fdffff"/><path d="m170.0625 150.253906c-11.917969 5.710938-24.980469 8.644532-38.203125 8.570313-39.488281 0-71.539063-24.679688-71.539063-55.179688 0-22.507812 17.5-41.816406 42.5625-50.449219-47.753906 2.75-85.960937 40.859376-85.960937 87.851563 0 54.285156 48.589844 99.105469 108.527344 99.105469 44.742187 0 82.050781-25.832032 101.539062-60.421875-26.859375 6.011719-58.589843-5.371094-56.925781-29.410157zm0 0" fill="#a0f9ff"/></g></svg>