<svg height="250" viewBox="0 0 250 250" width="250" xmlns="http://www.w3.org/2000/svg" xmlns:xlink="http://www.w3.org/1999/xlink"><clipPath id="a"><path d="m42 50h166v150h-166zm0 0"/></clipPath><clipPath id="b"><path d="m207.707031 162.058594v12.292968c0 .601563-.484375 1.113282-1.109375 1.113282h-163.195312c-.601563 0-1.109375-.511719-1.109375-1.113282v-12.292968c0-.601563.484375-1.109375 1.109375-1.109375h163.195312c.601563 0 1.109375.484375 1.109375 1.109375zm-1.109375 23.082031h-163.195312c-.601563 0-1.109375.484375-1.109375 1.109375v12.292969c0 .601562.484375 1.109375 1.109375 1.109375h163.195312c.601563 0 1.109375-.484375 1.109375-1.109375v-12.292969c0-.625-.507812-1.109375-1.109375-1.109375zm-163.542968-33.867187h30.925781c.671875-.09375 1.226562-.507813 1.503906-1.113282 0 0 1.136719-2.984375 3.242187-7.542968 3.613282-7.800782 6.597657-12.917969 6.597657-12.917969 7.824219-14.027344 19.234375-31.179688 33.101562-36.320313 2.105469-.761718 4.304688-1.226562 6.527344-1.320312h.09375c2.222656.09375 4.445313.558594 6.527344 1.320312 13.867187 5.140625 25.277343 22.269532 33.101562 36.320313 0 0 3.007813 5.117187 6.621094 12.917969 2.105469 4.558593 3.238281 7.542968 3.238281 7.542968.28125.605469.859375 1.042969 1.507813 1.113282h30.902343c.136719 0 .253907-.046876.371094-.117188.300782-.230469.390625-.648438.207032-.996094 0 0-2.039063-5.230468-5.671876-13.214844-.996093-2.175781-2.105468-4.5625-3.378906-7.152343-8.265625-16.828125-16.851562-32.871094-28.054687-49.121094-11.273438-16.367187-28.242188-29.722656-44.886719-30.324219h-1.132812c-16.644532.601563-33.613282 13.957032-44.882813 30.324219-11.183594 16.25-19.769531 32.292969-28.058594 49.121094-1.25 2.589843-2.382812 4.953125-3.378906 7.152343-3.65625 7.984376-5.671875 13.101563-5.671875 13.101563-.207031.371094-.113281.832031.210938 1.109375.136718.070312.277343.117188.4375.117188zm0 0"/></clipPath><linearGradient id="c" gradientTransform="matrix(.231481 0 0 -.231481 0 250)" gradientUnits="userSpaceOnUse" x1="313.433502" x2="853.780579" y1="735.713074" y2="201.504395"><stop offset="0" stop-color="#fcb23a"/><stop offset="1" stop-color="#f5833d"/></linearGradient><g clip-path="url(#a)"><g clip-path="url(#b)"><path d="m40.117188 46.667969h169.652343v169.652343h-169.652343zm0 0" fill="url(#c)"/></g></g></svg>