<svg height="250" viewBox="0 0 250 250" width="250" xmlns="http://www.w3.org/2000/svg" xmlns:xlink="http://www.w3.org/1999/xlink"><linearGradient id="a" gradientUnits="userSpaceOnUse" x1="210.75" x2="51.5" y1="33.75" y2="221.5"><stop offset="0" stop-color="#b6509e"/><stop offset="1" stop-color="#2ebac6"/></linearGradient><path d="m250 125c0 69.035156-55.964844 125-125 125s-125-55.964844-125-125 55.964844-125 125-125 125 55.964844 125 125zm0 0" fill="#fff"/><path d="m125 250c-8.460938.003906-16.902344-.847656-25.195312-2.539062-15.988282-3.273438-31.175782-9.667969-44.699219-18.808594-20.09375-13.566406-35.828125-32.671875-45.285157-54.996094-3.195312-7.5625-5.632812-15.417969-7.28125-23.460938-3.386718-16.625-3.386718-33.761718 0-50.382812 3.273438-15.988281 9.664063-31.179688 18.808594-44.699219 13.566406-20.097656 32.671875-35.828125 54.996094-45.289062 7.5625-3.199219 15.417969-5.636719 23.460938-7.285157 16.625-3.386718 33.761718-3.386718 50.382812 0 15.988281 3.273438 31.179688 9.664063 44.699219 18.808594 20.097656 13.566406 35.828125 32.671875 45.289062 54.996094 3.195313 7.5625 5.636719 15.417969 7.285157 23.460938 3.386718 16.625 3.386718 33.761718 0 50.382812-3.273438 15.992188-9.664063 31.179688-18.808594 44.699219-13.566406 20.09375-32.671875 35.828125-54.996094 45.285156-7.5625 3.199219-15.417969 5.640625-23.460938 7.289063-8.292968 1.691406-16.734374 2.542968-25.195312 2.539062zm0-236.609375c-7.554688 0-15.089844.757813-22.492188 2.269531-14.277343 2.921875-27.839843 8.628906-39.910156 16.792969-17.941406 12.113281-31.984375 29.171875-40.429687 49.105469-2.855469 6.75-5.03125 13.769531-6.503907 20.949218-3.023437 14.839844-3.023437 30.140626 0 44.984376 2.925782 14.277343 8.632813 27.835937 16.796876 39.90625 12.113281 17.945312 29.171874 31.992187 49.105468 40.4375 6.75 2.855468 13.769532 5.03125 20.949219 6.503906 14.84375 3.023437 30.144531 3.023437 44.984375 0 14.277344-2.925782 27.839844-8.632813 39.910156-16.796875 17.9375-12.113281 31.976563-29.171875 40.421875-49.101563 2.855469-6.75 5.03125-13.769531 6.503907-20.949218 3.023437-14.84375 3.023437-30.144532 0-44.984376-2.925782-14.277343-8.632813-27.835937-16.796876-39.90625-12.113281-17.941406-29.167968-31.988281-49.097656-40.433593-6.75-2.855469-13.769531-5.03125-20.949218-6.503907-7.402344-1.511718-14.9375-2.273437-22.492188-2.273437zm0 0" fill="url(#a)"/><path d="m220.703125 125c0 52.855469-42.847656 95.703125-95.703125 95.703125s-95.703125-42.847656-95.703125-95.703125 42.847656-95.703125 95.703125-95.703125 95.703125 42.847656 95.703125 95.703125zm0 0" fill="#0e3158"/><g fill="#fff"><path d="m86.28125 88.148438 9.34375-5.371094 1.253906 2.167968 34.421875-19.863281-2.515625-1.445312-2.527344-1.464844-1.253906-.726563-56.082031 32.398438v1.445312l16.109375-9.3125zm0 0"/><path d="m86.28125 108.542969 26.976562-15.585938 1.265626 2.1875 34.421874-19.863281-2.515624-1.464844-2.527344-1.445312-1.265625-.726563-73.714844 42.5625v1.445313l16.109375-9.3125zm0 0"/><path d="m86.28125 118.742188 35.800781-20.683594 1.261719 2.171875 34.421875-19.890625-2.523437-1.414063-2.519532-1.476562-1.261718-.722657-82.539063 47.65625v1.480469l16.109375-9.3125zm0 0"/><path d="m86.28125 128.917969 44.875-25.90625 1.265625 2.171875 34.167969-19.726563-2.527344-1.464843-2.515625-1.449219-1.261719-.722657-91.363281 52.761719v1.445313l16.109375-9.3125zm0 0"/><path d="m86.28125 139.085938 53.699219-30.992188 1.261719 2.203125 34.167968-19.746094-2.523437-1.457031-2.519531-1.464844-1.261719-.722656-100.183594 57.851562v1.449219l16.109375-9.292969zm0 0"/><path d="m179.191406 92.742188-1.265625-.746094-109.003906 62.960937v1.445313l16.109375-9.292969 1.25 2.171875 53.699219-30.988281 1.261719 2.167969 39.832031-22.984376v-3.636718zm0 0"/><path d="m75.832031 162.585938 9.035157-5.207032 1.253906 2.171875 53.605468-30.9375 1.261719 2.1875 40.089844-23.144531v-7.285156l-106.480469 61.492187zm0 0"/><path d="m139.726562 138.8125 1.261719 2.1875 40.085938-23.144531v-7.285157l-97.65625 56.378907 1.253906.734375 9.167969-5.300782 1.265625 2.191407"/><path d="m93.496094 172.789062 9.167968-5.316406 1.261719 2.191406 35.800781-20.675781 1.261719 2.191407 40.085938-23.144532v-7.285156l-88.867188 51.292969zm0 0"/><path d="m102.316406 177.878906 9.171875-5.296875 1.261719 2.167969 26.976562-15.566406 1.265626 2.171875 40.085937-23.15625v-7.253907l-80.023437 46.210938zm0 0"/><path d="m109.875 182.238281 1.265625.722657 9.199219-5.296876 1.230468 2.191407 18.15625-10.503907 1.261719 2.199219 40.089844-23.15625v-7.273437zm0 0"/><path d="m119.960938 188.074219 9.171874-5.328125 1.261719 2.203125 9.332031-5.421875 1.265626 2.199218 40.085937-23.132812v-7.273438l-62.378906 36.035157zm0 0"/><path d="m140.121094 70.179688-2.515625-1.449219-2.527344-1.445313-1.25-.753906-64.90625 37.480469v1.445312l16.109375-9.277343 1.25 2.171874 18.164062-10.484374 1.285157 2.199218zm0 0"/></g></svg>