<?xml version="1.0" encoding="UTF-8"?>
<!DOCTYPE svg PUBLIC "-//W3C//DTD SVG 1.1//EN" "http://www.w3.org/Graphics/SVG/1.1/DTD/svg11.dtd">
<svg xmlns="http://www.w3.org/2000/svg" version="1.1" width="81px" height="80px" style="shape-rendering:geometricPrecision; text-rendering:geometricPrecision; image-rendering:optimizeQuality; fill-rule:evenodd; clip-rule:evenodd" xmlns:xlink="http://www.w3.org/1999/xlink">
<g><path style="opacity:0.967" fill="#0eccfe" d="M 29.5,-0.5 C 36.8333,-0.5 44.1667,-0.5 51.5,-0.5C 60.2132,3.03409 67.7132,8.36742 74,15.5C 76.7741,20.3668 78.9407,25.3668 80.5,30.5C 80.5,36.5 80.5,42.5 80.5,48.5C 78.3539,55.7889 74.8539,62.4556 70,68.5C 66.5976,69.8999 63.7643,72.0665 61.5,75C 57.7344,76.5591 54.0677,78.0591 50.5,79.5C 43.8333,79.5 37.1667,79.5 30.5,79.5C 6.21876,70.6247 -3.28124,53.2914 2,27.5C 6.49859,13.4417 15.6653,4.10833 29.5,-0.5 Z"/></g>
<g><path style="opacity:1" fill="#f7fdff" d="M 37.5,13.5 C 40.6021,13.154 43.4355,13.8207 46,15.5C 50.6092,27.1666 55.1092,38.8333 59.5,50.5C 59.1822,51.6473 58.5156,52.4806 57.5,53C 48.8333,53.3333 40.1667,53.6667 31.5,54C 29.6644,56.4929 28.6644,59.3262 28.5,62.5C 24.8183,62.6653 21.1516,62.4986 17.5,62C 21.8585,50.5931 26.0251,39.0931 30,27.5C 32.4098,22.7577 34.9098,18.0911 37.5,13.5 Z"/></g>
<g><path style="opacity:1" fill="#38d1ff" d="M 37.5,27.5 C 42.8744,26.9369 47.0411,28.9369 50,33.5C 50.9523,43.5476 46.4523,47.7143 36.5,46C 29.5941,39.3469 29.9275,33.1803 37.5,27.5 Z"/></g>
<g><path style="opacity:1" fill="#f7fdff" d="M 39.5,32.5 C 46.8073,34.6201 47.3073,37.9534 41,42.5C 39.108,40.9458 37.608,39.1124 36.5,37C 37.3146,35.3566 38.3146,33.8566 39.5,32.5 Z"/></g>
<g><path style="opacity:1" fill="#f7fdff" d="M 51.5,55.5 C 54.8984,55.1796 58.2317,55.513 61.5,56.5C 62.1667,58.1667 62.8333,59.8333 63.5,61.5C 59.8927,62.4892 56.226,62.8226 52.5,62.5C 52.3259,60.139 51.9926,57.8056 51.5,55.5 Z"/></g>
</svg>
