<svg id="Layer_1" data-name="Layer 1" xmlns="http://www.w3.org/2000/svg" xmlns:xlink="http://www.w3.org/1999/xlink" viewBox="0 0 250 250"><defs><style>.cls-1{fill:url(#radial-gradient);}.cls-2{fill:#1d9cbd;}</style><radialGradient id="radial-gradient" cx="131.9309" cy="130.309" r="113.3624" gradientUnits="userSpaceOnUse"><stop offset="0" stop-color="#d5cfe2"/><stop offset="0.3663" stop-color="#253646"/><stop offset="0.5695" stop-color="#702b79"/><stop offset="0.9358" stop-color="#010101"/></radialGradient></defs><title>DESIGN (4)</title><path class="cls-1" d="M123.9463,20.6237l43.9337,74.67H149.6471a14.9308,14.9308,0,0,1-12.957-7.5116l-23.9969-41.909a7.1007,7.1007,0,0,1,.1239-7.2647Z"/><path class="cls-2" d="M123.9463,20.6237l43.9337,74.67H149.6471a14.9308,14.9308,0,0,1-12.957-7.5116L112.6932,45.8727a7.1005,7.1005,0,0,1,.1239-7.2646l11.1292-17.9844m.044-3.9436-1.7768,2.8713L111.0843,37.5358a9.13,9.13,0,0,0-.1595,9.3495l23.9969,41.9091a17.0075,17.0075,0,0,0,14.7254,8.5368h21.7961L169.6363,94.26,125.7026,19.59,123.99,16.68Z"/><path class="cls-1" d="M59.2689,133.3792,3.5205,231.1912l83.4533-.5625a10.0344,10.0344,0,0,0,9.6431-7.3165,19.5024,19.5024,0,0,1,1.8044-4.3369c3.2159-5.6356,8.9258-14.9541,25.0155-14.9541s21.2266,7.09,25.1748,13.4577,9.1274,13.7123,17.66,13.7123h15.4954L152.39,181.7864H100.3885a8.77,8.77,0,0,0-7.1667,3.715L80.8227,203.0793a16.0755,16.0755,0,0,1-9.7154,6.2642,27.363,27.363,0,0,1-9.9862.5924L42.224,207.6722l27.8509-46.9713a15.4758,15.4758,0,0,0-2.3375-18.8048Z"/><path class="cls-2" d="M59.2689,133.3792l8.4685,8.5169a15.4757,15.4757,0,0,1,2.3375,18.8047L42.224,207.6722l18.8971,2.2637a29.044,29.044,0,0,0,3.4529.2081,26.54,26.54,0,0,0,6.5334-.8,16.0755,16.0755,0,0,0,9.7153-6.2642l12.3991-17.5779a8.77,8.77,0,0,1,7.1667-3.715H152.39l29.3776,49.4048H166.2721c-8.5331,0-13.7124-7.3444-17.66-13.7123s-9.085-13.4577-25.1748-13.4577-21.8,9.3185-25.0155,14.9541a19.5024,19.5024,0,0,0-1.8044,4.3369,10.0344,10.0344,0,0,1-9.6431,7.3165l-83.4533.5625,55.7484-97.812m-.4438-3.3365L57.4986,132.37,1.75,230.1822,0,233.2527l3.5342-.0238,83.4455-.5624a12.0722,12.0722,0,0,0,11.5973-8.7973,17.4756,17.4756,0,0,1,1.6142-3.8839c2.7772-4.867,7.9467-13.9263,23.2456-13.9263,15.6968,0,20.1739,7.221,23.4429,12.4936a45.6653,45.6653,0,0,0,7.4615,9.6686,17.3239,17.3239,0,0,0,11.9309,5.0078H185.35l-1.831-3.0793-29.3776-49.4048-.5924-.9963H100.3885a10.8216,10.8216,0,0,0-8.8319,4.5782l-12.3991,17.578c-1.93,2.7362-4.6474,4.4723-8.5516,5.4636a24.5313,24.5313,0,0,1-6.0319.7379,27.0949,27.0949,0,0,1-3.21-.1937l-15.7914-1.8917L71.8277,161.74a17.5124,17.5124,0,0,0-2.6453-21.2808l-8.4684-8.5169-1.8889-1.9Z"/><path class="cls-1" d="M198.8124,150.1694l45.2126,80.7459-17.3513.3641a12.4922,12.4922,0,0,1-11.1132-6.3L180.1617,162.92A25.1666,25.1666,0,0,0,158.1,150.2237l-40.7126.3257a14.0965,14.0965,0,0,1-12.3223-7.05L81.3143,102.342a7.1755,7.1755,0,0,1,.0342-7.2317L92.4036,76.3646l25.6782,44.6217a16.4791,16.4791,0,0,0,14.31,8.258l94.9261-.1656a11.6446,11.6446,0,0,1,10.1047,5.8178l9.0094,15.2729Z"/><path class="cls-2" d="M92.4036,76.3646l25.6782,44.6217a16.48,16.48,0,0,0,14.2815,8.258h.0286l94.9261-.1656h.0214a11.6442,11.6442,0,0,1,10.0833,5.8178l9.0094,15.2729h-47.62l45.2126,80.7459-17.3513.3641c-.0878.0018-.1757.0027-.2632.0027a12.492,12.492,0,0,1-10.85-6.3027L180.1617,162.92a25.1685,25.1685,0,0,0-21.8594-12.6974c-.0677,0-.1343,0-.2022.0008l-40.7126.3257-.1133.0005a14.0962,14.0962,0,0,1-12.209-7.0508L81.3143,102.342a7.1757,7.1757,0,0,1,.0342-7.2317L92.4036,76.3646m.0216-4.048L90.6484,75.33,79.5932,94.0752a9.2275,9.2275,0,0,0-.0438,9.2853L103.3,144.5176a16.1782,16.1782,0,0,0,13.9739,8.07l.13-.0006,40.7123-.3257c.0622-.0005.1235-.0007.1859-.0007A23.1771,23.1771,0,0,1,178.3917,163.93L213.79,225.989a14.5591,14.5591,0,0,0,12.62,7.3309c.1016,0,.2038-.0011.3058-.0032l17.3514-.3641,3.3936-.0712-1.6584-2.9617-43.5141-77.7125H250l-1.8128-3.0731-9.0052-15.2659a13.7206,13.7206,0,0,0-11.8425-6.8273h-.0288l-94.9224.1655h-.025A14.476,14.476,0,0,1,119.848,119.97L94.17,75.3483l-1.7446-3.0317Z"/></svg>