<svg xmlns="http://www.w3.org/2000/svg" xmlns:xlink="http://www.w3.org/1999/xlink" width="600" height="600" viewBox="0 0 600 600"><defs><linearGradient id="a" x1="0.843" y1="0.135" x2="0.206" y2="0.886" gradientUnits="objectBoundingBox"><stop offset="0" stop-color="#b6509e"/><stop offset="1" stop-color="#2ebac6"/></linearGradient><clipPath id="c"><rect width="600" height="600"/></clipPath></defs><g id="b" clip-path="url(#c)"><path d="M-461,16584a282.152,282.152,0,0,1-56.43-5.689A278.714,278.714,0,0,1-569.989,16562a279.879,279.879,0,0,1-47.562-25.816,281.908,281.908,0,0,1-41.439-34.189,282.092,282.092,0,0,1-34.191-41.439A279.938,279.938,0,0,1-719,16412.988a278.581,278.581,0,0,1-16.315-52.56A282.074,282.074,0,0,1-741,16304a282.074,282.074,0,0,1,5.688-56.43A278.581,278.581,0,0,1-719,16195.011a280.059,280.059,0,0,1,25.816-47.563,282,282,0,0,1,34.191-41.438,282.062,282.062,0,0,1,41.439-34.191A280.058,280.058,0,0,1-569.989,16046a278.57,278.57,0,0,1,52.559-16.315A282.1,282.1,0,0,1-461,16024a282.1,282.1,0,0,1,56.43,5.688A278.568,278.568,0,0,1-352.011,16046a280.059,280.059,0,0,1,47.562,25.815,282.07,282.07,0,0,1,41.439,34.191,282,282,0,0,1,34.191,41.438A280.073,280.073,0,0,1-203,16195.011a278.559,278.559,0,0,1,16.315,52.559A282.066,282.066,0,0,1-181,16304a282.066,282.066,0,0,1-5.689,56.43,278.583,278.583,0,0,1-16.315,52.56,279.941,279.941,0,0,1-25.816,47.563,282.087,282.087,0,0,1-34.191,41.439,281.917,281.917,0,0,1-41.439,34.189A279.889,279.889,0,0,1-352.011,16562a278.707,278.707,0,0,1-52.559,16.316A282.154,282.154,0,0,1-461,16584Zm0-530a251.866,251.866,0,0,0-50.384,5.079,248.733,248.733,0,0,0-46.928,14.567,249.955,249.955,0,0,0-42.466,23.05,251.827,251.827,0,0,0-37,30.527,251.764,251.764,0,0,0-30.527,37,250.02,250.02,0,0,0-23.05,42.466,248.736,248.736,0,0,0-14.567,46.928A251.844,251.844,0,0,0-711,16304a251.844,251.844,0,0,0,5.079,50.384,248.793,248.793,0,0,0,14.567,46.928,250.029,250.029,0,0,0,23.05,42.467,251.933,251.933,0,0,0,30.527,37,252.012,252.012,0,0,0,37,30.527,250.162,250.162,0,0,0,42.466,23.051,248.874,248.874,0,0,0,46.928,14.564A251.767,251.767,0,0,0-461,16554a251.767,251.767,0,0,0,50.384-5.08,248.86,248.86,0,0,0,46.928-14.564,250.155,250.155,0,0,0,42.466-23.051,251.893,251.893,0,0,0,37-30.527,251.934,251.934,0,0,0,30.527-37,250.046,250.046,0,0,0,23.05-42.467,248.792,248.792,0,0,0,14.567-46.928A251.838,251.838,0,0,0-211,16304a251.838,251.838,0,0,0-5.079-50.384,248.74,248.74,0,0,0-14.567-46.928,250,250,0,0,0-23.05-42.466,251.77,251.77,0,0,0-30.527-37,251.831,251.831,0,0,0-37-30.527,249.951,249.951,0,0,0-42.466-23.05,248.723,248.723,0,0,0-46.928-14.567A251.867,251.867,0,0,0-461,16054Z" transform="translate(761.001 -16003.998)" fill="url(#a)"/><path d="M430,215C430,96.259,333.741,0,215,0S0,96.259,0,215,96.259,430,215,430s215-96.259,215-215Z" transform="translate(85 85)" fill="#1e1a31" fill-rule="evenodd"/><g transform="translate(0 -4.002)"><path d="M1454.739,18494.635a10.591,10.591,0,0,1,0-21.176h70.616a27.025,27.025,0,1,0,0-54.051h-33.15a48.205,48.205,0,1,1,0-96.41l70.612.006a10.59,10.59,0,0,1,0,21.174h-70.612a27.025,27.025,0,0,0,0,54.051h33.15a48.205,48.205,0,1,1,0,96.41Z" transform="translate(-1208.998 -18104.996)" fill="#fff"/><path d="M18.059,168.231.7,155.622,109.866,1.167l17.356,12.609Z" transform="translate(236.297 218.832)" fill="rgba(255,255,255,0.5)" fill-rule="evenodd"/></g></g></svg>