
<svg xmlns="http://www.w3.org/2000/svg" xmlns:xlink="http://www.w3.org/1999/xlink" width="250px" height="250px" viewBox="0 0 250 250" version="1.1">
<defs>
<linearGradient id="linear0" gradientUnits="userSpaceOnUse" x1="0.843" y1="0.135" x2="0.206" y2="0.886" gradientTransform="matrix(250,0,0,250,0,0)">
<stop offset="0" style="stop-color:rgb(71.372551%,31.37255%,61.960787%);stop-opacity:1;"/>
<stop offset="1" style="stop-color:rgb(18.039216%,72.941178%,77.64706%);stop-opacity:1;"/>
</linearGradient>
</defs>
<g id="surface1">
<path style=" stroke:none;fill-rule:nonzero;fill:rgb(100%,100%,100%);fill-opacity:1;" d="M 250 125 C 250 194.035156 194.035156 250 125 250 C 55.964844 250 0 194.035156 0 125 C 0 55.964844 55.964844 0 125 0 C 194.035156 0 250 55.964844 250 125 Z M 250 125 "/>
<path style=" stroke:none;fill-rule:nonzero;fill:url(#linear0);" d="M 125 250 C 116.539062 250.003906 108.097656 249.152344 99.804688 247.460938 C 83.816406 244.1875 68.628906 237.792969 55.105469 228.652344 C 35.011719 215.085938 19.277344 195.980469 9.820312 173.65625 C 6.625 166.09375 4.1875 158.238281 2.539062 150.195312 C -0.847656 133.570312 -0.847656 116.433594 2.539062 99.8125 C 5.8125 83.824219 12.203125 68.632812 21.347656 55.113281 C 34.914062 35.015625 54.019531 19.285156 76.34375 9.824219 C 83.90625 6.625 91.761719 4.1875 99.804688 2.539062 C 116.429688 -0.847656 133.566406 -0.847656 150.1875 2.539062 C 166.175781 5.8125 181.367188 12.203125 194.886719 21.347656 C 214.984375 34.914062 230.714844 54.019531 240.175781 76.34375 C 243.371094 83.90625 245.8125 91.761719 247.460938 99.804688 C 250.847656 116.429688 250.847656 133.566406 247.460938 150.1875 C 244.1875 166.179688 237.796875 181.367188 228.652344 194.886719 C 215.085938 214.980469 195.980469 230.714844 173.65625 240.171875 C 166.09375 243.371094 158.238281 245.8125 150.195312 247.460938 C 141.902344 249.152344 133.460938 250.003906 125 250 Z M 125 13.390625 C 117.445312 13.390625 109.910156 14.148438 102.507812 15.660156 C 88.230469 18.582031 74.667969 24.289062 62.597656 32.453125 C 44.65625 44.566406 30.613281 61.625 22.167969 81.558594 C 19.3125 88.308594 17.136719 95.328125 15.664062 102.507812 C 12.640625 117.347656 12.640625 132.648438 15.664062 147.492188 C 18.589844 161.769531 24.296875 175.328125 32.460938 187.398438 C 44.574219 205.34375 61.632812 219.390625 81.566406 227.835938 C 88.316406 230.691406 95.335938 232.867188 102.515625 234.339844 C 117.359375 237.363281 132.660156 237.363281 147.5 234.339844 C 161.777344 231.414062 175.339844 225.707031 187.410156 217.542969 C 205.347656 205.429688 219.386719 188.371094 227.832031 168.441406 C 230.6875 161.691406 232.863281 154.671875 234.335938 147.492188 C 237.359375 132.648438 237.359375 117.347656 234.335938 102.507812 C 231.410156 88.230469 225.703125 74.671875 217.539062 62.601562 C 205.425781 44.660156 188.371094 30.613281 168.441406 22.167969 C 161.691406 19.3125 154.671875 17.136719 147.492188 15.664062 C 140.089844 14.152344 132.554688 13.390625 125 13.390625 Z M 125 13.390625 "/>
<path style=" stroke:none;fill-rule:nonzero;fill:rgb(5.490196%,1.960784%,18.431373%);fill-opacity:1;" d="M 220.667969 124.980469 C 220.667969 177.828125 177.828125 220.667969 124.980469 220.667969 C 72.136719 220.667969 29.296875 177.828125 29.296875 124.980469 C 29.296875 72.136719 72.136719 29.296875 124.980469 29.296875 C 177.828125 29.296875 220.667969 72.136719 220.667969 124.980469 Z M 220.667969 124.980469 "/>
<path style=" stroke:none;fill-rule:nonzero;fill:rgb(19.215687%,84.705883%,64.313728%);fill-opacity:1;" d="M 188.648438 65.183594 C 187.527344 62.984375 186.414062 60.789062 185.304688 58.589844 C 184.75 57.472656 184.191406 56.359375 183.640625 55.25 C 182.03125 52.003906 180.453125 48.828125 178.683594 45.785156 L 177.152344 44.761719 C 179.25 48.1875 181.058594 51.828125 182.929688 55.585938 C 183.484375 56.707031 184.039062 57.824219 184.597656 58.9375 C 185.703125 61.132812 186.816406 63.332031 187.9375 65.527344 C 197.550781 84.457031 207.300781 103.652344 212.660156 123.753906 C 214.808594 131.828125 217.339844 141.375 217.292969 150.230469 C 217.546875 149.289062 217.792969 148.339844 218.039062 147.390625 C 217.621094 139.234375 215.363281 130.75 213.441406 123.5625 C 208.039062 103.367188 198.238281 84.089844 188.648438 65.183594 Z M 188.648438 65.183594 "/>
<path style=" stroke:none;fill-rule:nonzero;fill:rgb(19.215687%,84.705883%,64.313728%);fill-opacity:1;" d="M 51.804688 71.90625 C 52.226562 68.816406 52.445312 65.703125 52.46875 62.585938 C 52.191406 62.898438 51.929688 63.214844 51.660156 63.535156 C 51.609375 66.3125 51.402344 69.082031 51.035156 71.835938 C 49.632812 81.074219 47.257812 90.136719 43.945312 98.875 C 39.554688 110.988281 34.878906 123.164062 29.84375 135.222656 C 29.902344 135.753906 29.960938 136.292969 30.027344 136.832031 C 35.261719 124.332031 40.144531 111.707031 44.695312 99.136719 C 48.039062 90.339844 50.421875 81.210938 51.804688 71.90625 Z M 51.804688 71.90625 "/>
<path style=" stroke:none;fill-rule:nonzero;fill:rgb(19.215687%,84.705883%,64.313728%);fill-opacity:1;" d="M 220.667969 122.28125 C 215.03125 103.832031 206.464844 85.996094 197.949219 68.460938 L 195.039062 62.433594 C 194.234375 60.753906 193.457031 59.046875 192.679688 57.335938 C 192.15625 56.8125 191.625 56.289062 191.085938 55.78125 L 191.894531 57.554688 C 192.695312 59.296875 193.492188 61.042969 194.324219 62.785156 C 195.289062 64.796875 196.261719 66.800781 197.222656 68.8125 C 206.121094 87.230469 215.121094 105.882812 220.703125 125.21875 L 220.703125 124.980469 C 220.667969 124.078125 220.667969 123.179688 220.667969 122.28125 Z M 220.667969 122.28125 "/>
<path style=" stroke:none;fill-rule:nonzero;fill:rgb(19.215687%,84.705883%,64.313728%);fill-opacity:1;" d="M 48.835938 67.039062 C 48.53125 67.4375 48.230469 67.832031 47.9375 68.238281 C 46.996094 78.515625 43.902344 89.046875 40.464844 98.617188 C 36.949219 108.480469 33.257812 118.410156 29.332031 128.292969 C 29.332031 128.945312 29.382812 129.59375 29.414062 130.238281 C 33.605469 119.800781 37.519531 109.285156 41.253906 98.890625 C 44.785156 88.9375 48.03125 77.890625 48.835938 67.039062 Z M 48.835938 67.039062 "/>
<path style=" stroke:none;fill-rule:nonzero;fill:rgb(19.215687%,84.705883%,64.313728%);fill-opacity:1;" d="M 191.660156 66.089844 C 190.550781 63.863281 189.445312 61.644531 188.351562 59.4375 C 187.765625 58.265625 187.207031 57.09375 186.636719 55.941406 C 185.5 53.597656 184.390625 51.289062 183.175781 49.03125 C 182.675781 48.640625 182.167969 48.285156 181.683594 47.882812 C 183.175781 50.585938 184.546875 53.398438 185.941406 56.28125 C 186.511719 57.453125 187.085938 58.621094 187.664062 59.785156 L 190.972656 66.4375 C 200.617188 85.746094 210.40625 105.304688 215.800781 125.785156 C 217.078125 130.628906 218.421875 135.878906 219.320312 141.191406 C 219.453125 140.398438 219.582031 139.601562 219.699219 138.800781 C 218.820312 134.210938 217.660156 129.722656 216.570312 125.574219 C 211.113281 105.039062 201.296875 85.363281 191.660156 66.089844 Z M 191.660156 66.089844 "/>
<path style=" stroke:none;fill-rule:nonzero;fill:rgb(19.215687%,84.705883%,64.313728%);fill-opacity:1;" d="M 194.90625 67.503906 C 193.929688 65.523438 192.960938 63.542969 191.992188 61.566406 C 191.183594 59.90625 190.40625 58.234375 189.621094 56.550781 C 189.0625 55.332031 188.496094 54.117188 187.917969 52.910156 C 187.414062 52.46875 186.90625 52.042969 186.421875 51.617188 C 187.265625 53.339844 188.082031 55.085938 188.894531 56.851562 C 189.710938 58.613281 190.480469 60.246094 191.296875 61.933594 C 192.273438 63.914062 193.238281 65.886719 194.203125 67.871094 C 203.773438 87.371094 213.484375 107.160156 218.871094 127.792969 C 219.351562 129.640625 219.847656 131.53125 220.316406 133.472656 C 220.390625 132.628906 220.457031 131.785156 220.511719 130.933594 L 219.644531 127.59375 C 214.207031 106.855469 204.46875 87 194.90625 67.503906 Z M 194.90625 67.503906 "/>
<path style=" stroke:none;fill-rule:nonzero;fill:rgb(19.215687%,84.705883%,64.313728%);fill-opacity:1;" d="M 44.246094 73.609375 C 43.855469 74.230469 43.5 74.851562 43.089844 75.480469 C 41.417969 83.1875 39.238281 90.777344 36.554688 98.199219 C 34.308594 104.714844 31.976562 111.242188 29.566406 117.78125 C 29.5 118.679688 29.445312 119.585938 29.402344 120.496094 C 32.148438 113.144531 34.785156 105.796875 37.3125 98.453125 C 40.265625 90.363281 42.582031 82.058594 44.246094 73.609375 Z M 44.246094 73.609375 "/>
<path style=" stroke:none;fill-rule:nonzero;fill:rgb(19.215687%,84.705883%,64.313728%);fill-opacity:1;" d="M 175.117188 206.285156 L 174.496094 206.871094 C 175.679688 206.121094 176.828125 205.375 177.972656 204.625 C 181 201.753906 184.058594 198.933594 187.21875 196.273438 C 188.996094 194.792969 190.898438 193.472656 192.910156 192.335938 C 193.527344 191.714844 194.132812 191.078125 194.734375 190.441406 C 191.863281 191.871094 189.167969 193.625 186.703125 195.675781 C 182.71875 199.046875 178.902344 202.652344 175.117188 206.285156 Z M 175.117188 206.285156 "/>
<path style=" stroke:none;fill-rule:nonzero;fill:rgb(19.215687%,84.705883%,64.313728%);fill-opacity:1;" d="M 182.371094 62.867188 C 181.085938 60.445312 179.816406 58.027344 178.5625 55.609375 L 178.210938 55.796875 L 178.5625 55.609375 L 177.367188 53.308594 C 175.207031 48.867188 172.726562 44.589844 169.945312 40.515625 C 169.398438 40.222656 168.859375 39.9375 168.3125 39.660156 C 171.601562 43.914062 174.023438 48.585938 176.664062 53.691406 C 177.054688 54.441406 177.445312 55.1875 177.851562 55.988281 L 181.660156 63.253906 C 182.257812 64.382812 182.851562 65.511719 183.441406 66.640625 C 184.113281 67.3125 184.769531 68 185.421875 68.695312 Z M 182.371094 62.867188 "/>
<path style=" stroke:none;fill-rule:nonzero;fill:rgb(19.215687%,84.705883%,64.313728%);fill-opacity:1;" d="M 128.144531 220.605469 L 129.023438 220.605469 C 131.046875 216.003906 133.1875 211.457031 135.378906 206.964844 L 134.441406 207.070312 C 132.269531 211.507812 130.148438 216.03125 128.144531 220.605469 Z M 128.144531 220.605469 "/>
<path style=" stroke:none;fill-rule:nonzero;fill:rgb(19.215687%,84.705883%,64.313728%);fill-opacity:1;" d="M 208.652344 157.410156 C 210.160156 155.542969 211.113281 153.289062 211.394531 150.90625 C 212.890625 141.105469 209.96875 129.78125 207.464844 120.535156 C 207.523438 121.691406 207.554688 122.859375 207.570312 124.023438 C 209.816406 132.570312 211.875 142.285156 210.609375 150.78125 C 210.339844 153.019531 209.453125 155.136719 208.046875 156.898438 C 206.730469 158.414062 205.070312 159.597656 203.203125 160.34375 C 201.84375 160.910156 200.433594 161.355469 198.992188 161.675781 C 198.84375 161.980469 198.695312 162.289062 198.539062 162.585938 C 200.242188 162.246094 201.910156 161.746094 203.519531 161.09375 C 205.5 160.292969 207.261719 159.027344 208.652344 157.410156 Z M 208.652344 157.410156 "/>
<path style=" stroke:none;fill-rule:nonzero;fill:rgb(19.215687%,84.705883%,64.313728%);fill-opacity:1;" d="M 135.8125 220.054688 L 136.824219 219.933594 C 139.8125 215.007812 142.929688 210.148438 146.023438 205.355469 L 146.390625 204.769531 L 145.253906 205.070312 C 142.085938 209.992188 138.902344 214.976562 135.8125 220.054688 Z M 135.8125 220.054688 "/>
<path style=" stroke:none;fill-rule:nonzero;fill:rgb(19.215687%,84.705883%,64.313728%);fill-opacity:1;" d="M 197.351562 169.59375 L 198.253906 169.421875 C 202.546875 168.621094 206.882812 167.816406 210.363281 166.035156 C 210.855469 165.820312 211.332031 165.570312 211.792969 165.289062 C 212.023438 164.796875 212.257812 164.292969 212.476562 163.792969 C 211.707031 164.402344 210.878906 164.925781 210 165.363281 C 206.621094 167.089844 202.398438 167.875 198.039062 168.683594 L 197.160156 168.847656 L 194.6875 169.296875 C 194.492188 169.601562 194.289062 169.910156 194.089844 170.214844 Z M 197.351562 169.59375 "/>
<path style=" stroke:none;fill-rule:nonzero;fill:rgb(19.215687%,84.705883%,64.313728%);fill-opacity:1;" d="M 121.730469 220.605469 L 122.558594 220.605469 C 123.871094 216.210938 125.273438 211.851562 126.773438 207.53125 L 125.921875 207.53125 C 124.4375 211.863281 123.039062 216.21875 121.730469 220.605469 Z M 121.730469 220.605469 "/>
<path style=" stroke:none;fill-rule:nonzero;fill:rgb(19.215687%,84.705883%,64.313728%);fill-opacity:1;" d="M 172.425781 53.914062 C 172.0625 53.246094 171.679688 52.582031 171.359375 51.929688 C 168.367188 46.292969 165.566406 41.144531 161.511719 36.523438 L 159.816406 35.839844 C 164.414062 40.691406 167.359375 46.171875 170.664062 52.332031 C 171.015625 52.972656 171.367188 53.632812 171.722656 54.296875 C 172.472656 55.695312 173.21875 57.109375 174.011719 58.511719 C 174.535156 58.894531 175.042969 59.261719 175.550781 59.679688 C 174.503906 57.753906 173.457031 55.828125 172.425781 53.914062 Z M 172.425781 53.914062 "/>
<path style=" stroke:none;fill-rule:nonzero;fill:rgb(19.215687%,84.705883%,64.313728%);fill-opacity:1;" d="M 203.511719 150.636719 C 204.363281 149.046875 204.875 147.292969 205.003906 145.496094 C 204.570312 147.230469 204.0625 148.941406 203.511719 150.636719 Z M 203.511719 150.636719 "/>
<path style=" stroke:none;fill-rule:nonzero;fill:rgb(19.215687%,84.705883%,64.313728%);fill-opacity:1;" d="M 196.378906 173.371094 C 198.335938 172.980469 200.292969 172.621094 202.222656 172.167969 C 204.675781 171.628906 207.039062 171.09375 209.210938 170.402344 C 209.398438 170.066406 209.570312 169.730469 209.75 169.394531 C 207.222656 170.199219 204.652344 170.863281 202.050781 171.390625 C 200.152344 171.808594 198.214844 172.1875 196.257812 172.578125 L 191.847656 173.476562 L 191.144531 174.4375 C 192.886719 174.066406 194.636719 173.714844 196.378906 173.371094 Z M 196.378906 173.371094 "/>
<path style=" stroke:none;fill-rule:nonzero;fill:rgb(19.215687%,84.705883%,64.313728%);fill-opacity:1;" d="M 149.066406 207.375 L 148.246094 208.503906 C 145.644531 212.097656 143.011719 215.738281 140.417969 219.417969 L 141.515625 219.238281 C 143.96875 215.769531 146.449219 212.339844 148.910156 208.9375 L 149.71875 207.839844 C 150.9375 206.164062 152.160156 204.378906 153.394531 202.566406 C 152.976562 202.722656 152.542969 202.871094 152.117188 203.019531 C 151.09375 204.511719 150.078125 205.976562 149.066406 207.375 Z M 149.066406 207.375 "/>
<path style=" stroke:none;fill-rule:nonzero;fill:rgb(19.215687%,84.705883%,64.313728%);fill-opacity:1;" d="M 190.226562 178.714844 C 193.425781 177.800781 196.679688 177.070312 199.90625 176.34375 C 201.902344 175.886719 203.898438 175.4375 205.886719 174.953125 L 206.742188 174.734375 C 206.9375 174.414062 207.132812 174.09375 207.316406 173.757812 L 205.695312 174.179688 C 203.757812 174.65625 201.777344 175.105469 199.78125 175.554688 C 196.527344 176.300781 193.230469 177.046875 190.015625 177.945312 C 189.269531 178.15625 188.519531 178.378906 187.808594 178.609375 C 187.472656 179.007812 187.125 179.390625 186.777344 179.78125 C 187.914062 179.410156 189.066406 179.054688 190.226562 178.714844 Z M 190.226562 178.714844 "/>
<path style=" stroke:none;fill-rule:nonzero;fill:rgb(19.215687%,84.705883%,64.313728%);fill-opacity:1;" d="M 157.875 203.234375 L 157.65625 203.515625 C 156.003906 205.691406 154.390625 207.824219 152.78125 209.820312 L 149.949219 213.308594 C 148.589844 214.992188 147.214844 216.679688 145.847656 218.386719 L 147.105469 218.09375 L 150.582031 213.804688 L 153.40625 210.3125 C 155.027344 208.316406 156.648438 206.171875 158.292969 204.003906 L 158.511719 203.71875 C 159.796875 202.023438 161.113281 200.316406 162.449219 198.628906 C 161.890625 198.90625 161.335938 199.1875 160.769531 199.457031 C 159.765625 200.722656 158.800781 201.980469 157.875 203.234375 Z M 157.875 203.234375 "/>
<path style=" stroke:none;fill-rule:nonzero;fill:rgb(19.215687%,84.705883%,64.313728%);fill-opacity:1;" d="M 182.21875 192.515625 C 176.976562 197.128906 171.984375 202.027344 167.269531 207.179688 C 165.21875 209.355469 163.1875 211.5 161.140625 213.585938 C 161.773438 213.324219 162.402344 213.0625 163.03125 212.789062 C 164.65625 211.113281 166.277344 209.417969 167.890625 207.703125 C 172.546875 202.570312 177.5 197.710938 182.714844 193.144531 C 187.148438 189.40625 192.289062 187.058594 197.664062 185.191406 C 198.414062 184.929688 199.160156 184.679688 199.910156 184.441406 L 200.789062 183.320312 C 199.652344 183.679688 198.542969 184.070312 197.402344 184.429688 C 191.882812 186.15625 186.734375 188.898438 182.21875 192.515625 Z M 182.21875 192.515625 "/>
<path style=" stroke:none;fill-rule:nonzero;fill:rgb(19.215687%,84.705883%,64.313728%);fill-opacity:1;" d="M 124.832031 220.664062 L 125.675781 220.664062 C 127.304688 216.179688 129.054688 211.761719 130.871094 207.375 L 129.992188 207.433594 C 128.1875 211.792969 126.476562 216.179688 124.832031 220.664062 Z M 124.832031 220.664062 "/>
<path style=" stroke:none;fill-rule:nonzero;fill:rgb(19.215687%,84.705883%,64.313728%);fill-opacity:1;" d="M 205.386719 155.011719 C 206.941406 153.15625 207.925781 150.886719 208.21875 148.484375 C 209.046875 142.960938 208.472656 136.925781 207.359375 131.066406 C 207.285156 132.082031 207.1875 133.097656 207.074219 134.109375 C 207.90625 138.816406 208.027344 143.621094 207.433594 148.367188 C 207.164062 150.621094 206.246094 152.746094 204.785156 154.488281 C 203.71875 155.664062 202.433594 156.625 201.003906 157.320312 C 200.855469 157.679688 200.691406 158.066406 200.535156 158.394531 C 202.382812 157.644531 204.042969 156.488281 205.386719 155.011719 Z M 205.386719 155.011719 "/>
<path style=" stroke:none;fill-rule:nonzero;fill:rgb(19.215687%,84.705883%,64.313728%);fill-opacity:1;" d="M 179.296875 61.890625 C 178.027344 59.515625 176.757812 57.144531 175.488281 54.765625 C 175.113281 54.019531 174.742188 53.339844 174.367188 52.644531 C 171.652344 47.476562 169.136719 42.699219 165.675781 38.363281 L 164.007812 37.617188 C 167.964844 42.222656 170.675781 47.335938 173.675781 53.054688 L 174.792969 55.164062 C 176.015625 57.46875 177.261719 59.777344 178.527344 62.085938 C 179.097656 62.574219 179.664062 63.0625 180.226562 63.578125 Z M 179.296875 61.890625 "/>
<path style=" stroke:none;fill-rule:nonzero;fill:rgb(19.215687%,84.705883%,64.313728%);fill-opacity:1;" d="M 201.894531 178.910156 C 199.039062 179.65625 196.167969 180.40625 193.351562 181.285156 C 187.730469 183.082031 182.308594 185.449219 177.695312 189.324219 C 172.074219 194.046875 167.089844 199.886719 162.230469 205.589844 C 160.285156 207.835938 158.363281 210.074219 156.4375 212.257812 L 152.445312 216.660156 L 153.941406 216.210938 L 157.042969 212.78125 C 159.007812 210.597656 160.949219 208.296875 162.894531 206.054688 C 167.746094 200.371094 172.660156 194.609375 178.226562 189.929688 C 182.714844 186.148438 188.035156 183.820312 193.613281 182.050781 C 196.398438 181.160156 199.253906 180.40625 202.109375 179.679688 L 203.484375 179.320312 L 203.820312 179.238281 L 204.503906 178.253906 L 203.300781 178.566406 Z M 201.894531 178.910156 "/>
<path style=" stroke:none;fill-rule:nonzero;fill:rgb(19.215687%,84.705883%,64.313728%);fill-opacity:1;" d="M 218.707031 105.644531 C 218.363281 103.96875 217.976562 102.3125 217.550781 100.679688 C 213.546875 91.035156 209.125 81.503906 204.699219 72.054688 C 203.855469 70.777344 202.972656 69.523438 202.066406 68.320312 C 202.410156 69.066406 202.761719 69.8125 203.105469 70.566406 C 208.535156 82.117188 214 93.789062 218.707031 105.644531 Z M 218.707031 105.644531 "/>
<path style=" stroke:none;fill-rule:nonzero;fill:rgb(19.215687%,84.705883%,64.313728%);fill-opacity:1;" d="M 200.1875 69.738281 C 207.445312 85.011719 214.765625 100.433594 220.257812 116.234375 C 220.160156 115.113281 220.042969 113.988281 219.90625 112.886719 C 214.535156 98.109375 207.683594 83.667969 200.914062 69.410156 C 199.914062 67.363281 198.945312 65.320312 198.003906 63.28125 C 197.960938 63.191406 197.921875 63.101562 197.886719 63.019531 C 197.273438 62.273438 196.652344 61.589844 196.023438 60.894531 C 196.441406 61.808594 196.855469 62.710938 197.289062 63.617188 C 198.257812 65.65625 199.222656 67.695312 200.1875 69.738281 Z M 200.1875 69.738281 "/>
<path style=" stroke:none;fill-rule:nonzero;fill:rgb(19.215687%,84.705883%,64.313728%);fill-opacity:1;" d="M 205.617188 107.039062 C 205.992188 108.714844 206.3125 110.410156 206.582031 112.128906 C 207.667969 115.316406 208.664062 118.519531 209.574219 121.742188 C 212.167969 131.34375 215.300781 143.109375 213.8125 153.207031 C 213.546875 155.429688 212.691406 157.539062 211.328125 159.316406 C 210.066406 160.84375 208.464844 162.058594 206.648438 162.859375 C 203.582031 164.136719 200.355469 165 197.058594 165.429688 L 196.558594 166.320312 C 200.152344 165.867188 203.671875 164.945312 207.023438 163.574219 C 208.949219 162.734375 210.652344 161.457031 211.996094 159.839844 C 213.441406 157.953125 214.355469 155.714844 214.640625 153.355469 C 216.136719 143.0625 212.960938 131.132812 210.378906 121.578125 C 208.988281 116.628906 207.40625 111.800781 205.617188 107.039062 Z M 205.617188 107.039062 "/>
<path style=" stroke:none;fill-rule:nonzero;fill:rgb(19.215687%,84.705883%,64.313728%);fill-opacity:1;" d="M 131.777344 220.425781 L 132.695312 220.351562 C 135.207031 215.542969 137.824219 210.804688 140.46875 206.148438 L 139.453125 206.332031 C 136.835938 210.945312 134.25 215.648438 131.777344 220.425781 Z M 131.777344 220.425781 "/>
<path style=" stroke:none;fill-rule:nonzero;fill:rgb(19.215687%,84.705883%,64.313728%);fill-opacity:1;" d="M 185.597656 64.191406 C 184.476562 62.027344 183.363281 59.871094 182.257812 57.71875 C 181.71875 56.664062 181.195312 55.617188 180.671875 54.578125 C 178.761719 50.601562 176.640625 46.726562 174.324219 42.96875 L 172.710938 42.003906 C 175.414062 46.140625 177.835938 50.453125 179.953125 54.914062 C 180.476562 55.957031 181.007812 57.003906 181.554688 58.054688 L 184.886719 64.535156 C 186.382812 67.40625 187.878906 70.285156 189.328125 73.171875 C 190.246094 74.304688 191.132812 75.46875 191.996094 76.660156 C 189.890625 72.503906 187.773438 68.339844 185.597656 64.191406 Z M 185.597656 64.191406 "/>
<path style=" stroke:none;fill-rule:nonzero;fill:rgb(19.215687%,84.705883%,64.313728%);fill-opacity:1;" d="M 90.886719 44.417969 C 88.835938 42.285156 86.664062 40.253906 84.488281 38.273438 L 83.742188 38.632812 C 85.988281 40.683594 88.226562 42.765625 90.351562 44.96875 C 91.480469 46.136719 92.554688 47.347656 93.578125 48.582031 L 94.328125 48.269531 C 93.226562 46.945312 92.089844 45.660156 90.886719 44.417969 Z M 90.886719 44.417969 "/>
<path style=" stroke:none;fill-rule:nonzero;fill:rgb(19.215687%,84.705883%,64.313728%);fill-opacity:1;" d="M 41.699219 172.113281 L 42.242188 173.070312 C 43.949219 167.226562 45.988281 161.484375 48.359375 155.875 L 47.984375 154.828125 C 45.546875 160.460938 43.445312 166.230469 41.695312 172.113281 Z M 41.699219 172.113281 "/>
<path style=" stroke:none;fill-rule:nonzero;fill:rgb(19.215687%,84.705883%,64.313728%);fill-opacity:1;" d="M 94.332031 215.65625 L 95.164062 215.925781 C 94.609375 211.113281 94.191406 206.3125 93.90625 201.527344 L 93.09375 201.230469 C 93.375 206.003906 93.796875 210.835938 94.332031 215.65625 Z M 94.332031 215.65625 "/>
<path style=" stroke:none;fill-rule:nonzero;fill:rgb(19.215687%,84.705883%,64.313728%);fill-opacity:1;" d="M 128.375 29.363281 L 127.074219 29.296875 C 132.132812 33.328125 135.429688 38.101562 138.988281 43.539062 L 140.0625 43.734375 C 136.539062 38.351562 133.277344 33.496094 128.375 29.363281 Z M 128.375 29.363281 "/>
<path style=" stroke:none;fill-rule:nonzero;fill:rgb(19.215687%,84.705883%,64.313728%);fill-opacity:1;" d="M 127.925781 41.429688 C 124.980469 37.183594 122.058594 33.03125 118.300781 29.535156 L 117.199219 29.613281 C 121.160156 33.164062 124.144531 37.417969 127.257812 41.875 L 127.65625 42.433594 L 128.65625 42.472656 Z M 127.925781 41.429688 "/>
<path style=" stroke:none;fill-rule:nonzero;fill:rgb(19.215687%,84.705883%,64.313728%);fill-opacity:1;" d="M 81.625 210.289062 C 81.917969 210.441406 82.210938 210.589844 82.503906 210.730469 C 81.625 205.328125 80.871094 199.898438 80.3125 194.503906 L 79.460938 193.941406 C 79.980469 199.394531 80.703125 204.84375 81.625 210.289062 Z M 81.625 210.289062 "/>
<path style=" stroke:none;fill-rule:nonzero;fill:rgb(19.215687%,84.705883%,64.313728%);fill-opacity:1;" d="M 78.238281 208.480469 L 79.128906 208.980469 C 78.207031 203.414062 77.46875 197.820312 76.980469 192.207031 L 76.140625 191.59375 C 76.609375 197.25 77.324219 202.882812 78.238281 208.480469 Z M 78.238281 208.480469 "/>
<path style=" stroke:none;fill-rule:nonzero;fill:rgb(19.215687%,84.705883%,64.313728%);fill-opacity:1;" d="M 124.71875 40.660156 C 122.113281 36.746094 119.148438 33.089844 115.863281 29.730469 L 114.816406 29.835938 C 118.269531 33.277344 121.371094 37.058594 124.078125 41.113281 C 124.375 41.539062 124.683594 41.960938 124.988281 42.378906 L 125.976562 42.378906 Z M 124.71875 40.660156 "/>
<path style=" stroke:none;fill-rule:nonzero;fill:rgb(19.215687%,84.705883%,64.313728%);fill-opacity:1;" d="M 111.015625 42.753906 C 109.207031 40.683594 107.429688 38.632812 105.742188 36.613281 C 104.429688 35.046875 103.148438 33.542969 101.835938 32.128906 L 100.96875 32.347656 C 102.359375 33.839844 103.722656 35.472656 105.125 37.152344 C 106.839844 39.203125 108.632812 41.253906 110.441406 43.335938 L 110.695312 43.628906 C 110.996094 43.566406 111.308594 43.523438 111.617188 43.46875 C 111.414062 43.238281 111.210938 43.007812 111.015625 42.753906 Z M 111.015625 42.753906 "/>
<path style=" stroke:none;fill-rule:nonzero;fill:rgb(19.215687%,84.705883%,64.313728%);fill-opacity:1;" d="M 57.621094 192.933594 L 58.367188 193.679688 C 58.527344 187.480469 58.9375 181.382812 59.566406 175.433594 C 59.324219 175.125 59.085938 174.820312 58.863281 174.511719 C 58.234375 180.523438 57.800781 186.683594 57.621094 192.933594 Z M 57.621094 192.933594 "/>
<path style=" stroke:none;fill-rule:nonzero;fill:rgb(19.215687%,84.705883%,64.313728%);fill-opacity:1;" d="M 91.394531 214.59375 L 92.238281 214.917969 C 91.566406 209.984375 91.027344 205.042969 90.640625 200.121094 L 89.847656 199.734375 C 90.199219 204.683594 90.71875 209.636719 91.394531 214.59375 Z M 91.394531 214.59375 "/>
<path style=" stroke:none;fill-rule:nonzero;fill:rgb(19.215687%,84.705883%,64.313728%);fill-opacity:1;" d="M 125.730469 29.296875 L 124.488281 29.296875 C 129.300781 33.226562 132.515625 37.847656 136.03125 43.109375 L 137.082031 43.261719 C 133.613281 38.035156 130.421875 33.335938 125.730469 29.296875 Z M 125.730469 29.296875 "/>
<path style=" stroke:none;fill-rule:nonzero;fill:rgb(19.215687%,84.705883%,64.313728%);fill-opacity:1;" d="M 74.394531 206.207031 L 75.273438 206.753906 C 74.476562 201.078125 73.910156 195.367188 73.570312 189.628906 L 72.738281 188.953125 C 73.042969 194.71875 73.609375 200.480469 74.394531 206.207031 Z M 74.394531 206.207031 "/>
<path style=" stroke:none;fill-rule:nonzero;fill:rgb(19.215687%,84.705883%,64.313728%);fill-opacity:1;" d="M 122.621094 41.398438 L 122.097656 40.695312 C 119.433594 36.933594 116.496094 33.371094 113.308594 30.042969 L 112.273438 30.132812 C 115.632812 33.570312 118.703125 37.273438 121.460938 41.210938 L 121.953125 41.878906 C 122.089844 42.0625 122.230469 42.242188 122.367188 42.421875 L 123.34375 42.421875 C 123.121094 42.074219 122.867188 41.734375 122.621094 41.398438 Z M 122.621094 41.398438 "/>
<path style=" stroke:none;fill-rule:nonzero;fill:rgb(19.215687%,84.705883%,64.313728%);fill-opacity:1;" d="M 119.394531 40.605469 L 118.886719 39.9375 C 116.441406 36.578125 113.792969 33.367188 110.957031 30.324219 L 109.980469 30.476562 C 112.964844 33.613281 115.738281 36.945312 118.28125 40.453125 L 118.757812 41.089844 L 119.878906 42.546875 L 120.828125 42.488281 Z M 119.394531 40.605469 "/>
<path style=" stroke:none;fill-rule:nonzero;fill:rgb(19.215687%,84.705883%,64.313728%);fill-opacity:1;" d="M 70.636719 203.734375 L 71.503906 204.339844 C 70.851562 198.515625 70.433594 192.683594 70.285156 186.871094 L 69.46875 186.121094 C 69.597656 191.996094 69.988281 197.867188 70.636719 203.734375 Z M 70.636719 203.734375 "/>
<path style=" stroke:none;fill-rule:nonzero;fill:rgb(19.215687%,84.705883%,64.313728%);fill-opacity:1;" d="M 112.203125 38.101562 C 110.230469 35.628906 108.339844 33.296875 106.3125 31.121094 L 105.394531 31.308594 C 107.519531 33.554688 109.496094 35.988281 111.585938 38.601562 C 112.742188 40.097656 113.929688 41.511719 115.113281 42.96875 L 116.046875 42.863281 C 114.753906 41.257812 113.46875 39.6875 112.203125 38.101562 Z M 112.203125 38.101562 "/>
<path style=" stroke:none;fill-rule:nonzero;fill:rgb(19.215687%,84.705883%,64.313728%);fill-opacity:1;" d="M 63.683594 198.433594 L 64.5 199.117188 C 64.230469 193.078125 64.207031 187.066406 64.4375 181.175781 L 63.683594 180.296875 C 63.40625 186.277344 63.414062 192.339844 63.683594 198.433594 Z M 63.683594 198.433594 "/>
<path style=" stroke:none;fill-rule:nonzero;fill:rgb(19.215687%,84.705883%,64.313728%);fill-opacity:1;" d="M 113.65625 43 C 112.078125 41.109375 110.507812 39.261719 108.976562 37.355469 C 107.324219 35.335938 105.722656 33.417969 104.066406 31.601562 L 103.167969 31.796875 C 104.925781 33.695312 106.605469 35.710938 108.398438 37.859375 C 109.898438 39.667969 111.394531 41.472656 112.886719 43.269531 L 113.8125 43.144531 Z M 113.65625 43 "/>
<path style=" stroke:none;fill-rule:nonzero;fill:rgb(19.215687%,84.705883%,64.313728%);fill-opacity:1;" d="M 60.523438 195.699219 L 61.328125 196.445312 C 61.261719 190.308594 61.449219 184.238281 61.867188 178.289062 L 61.121094 177.410156 C 60.695312 183.378906 60.476562 189.5 60.523438 195.699219 Z M 60.523438 195.699219 "/>
<path style=" stroke:none;fill-rule:nonzero;fill:rgb(19.215687%,84.705883%,64.313728%);fill-opacity:1;" d="M 116.175781 39.8125 L 115.71875 39.226562 C 113.320312 36.140625 111.097656 33.300781 108.632812 30.691406 L 107.691406 30.855469 C 110.324219 33.691406 112.804688 36.664062 115.128906 39.757812 L 115.554688 40.304688 C 116.179688 41.113281 116.824219 41.917969 117.460938 42.71875 L 118.410156 42.636719 C 117.664062 41.699219 116.914062 40.761719 116.175781 39.8125 Z M 116.175781 39.8125 "/>
<path style=" stroke:none;fill-rule:nonzero;fill:rgb(19.215687%,84.705883%,64.313728%);fill-opacity:1;" d="M 66.480469 183.289062 C 66.410156 189.210938 66.601562 195.160156 67.054688 201.140625 L 67.898438 201.78125 C 67.4375 195.851562 67.222656 189.945312 67.261719 184.066406 Z M 66.480469 183.289062 "/>
<path style=" stroke:none;fill-rule:nonzero;fill:rgb(19.215687%,84.705883%,64.313728%);fill-opacity:1;" d="M 84.9375 211.898438 L 85.804688 212.300781 C 84.9375 207.070312 84.21875 201.789062 83.6875 196.527344 C 83.402344 196.363281 83.121094 196.199219 82.84375 196.027344 C 83.359375 201.320312 84.070312 206.621094 84.9375 211.898438 Z M 84.9375 211.898438 "/>
<path style=" stroke:none;fill-rule:nonzero;fill:rgb(19.215687%,84.705883%,64.313728%);fill-opacity:1;" d="M 120.609375 29.402344 L 119.488281 29.460938 C 123.835938 33.242188 126.960938 37.683594 130.371094 42.558594 L 131.378906 42.625 C 128.007812 37.761719 124.882812 33.28125 120.609375 29.402344 Z M 120.609375 29.402344 "/>
<path style=" stroke:none;fill-rule:nonzero;fill:rgb(19.215687%,84.705883%,64.313728%);fill-opacity:1;" d="M 115.503906 220.195312 L 116.292969 220.269531 C 117.171875 215.910156 118.164062 211.597656 119.21875 207.378906 L 118.410156 207.324219 C 117.363281 211.539062 116.371094 215.84375 115.503906 220.195312 Z M 115.503906 220.195312 "/>
<path style=" stroke:none;fill-rule:nonzero;fill:rgb(19.215687%,84.705883%,64.313728%);fill-opacity:1;" d="M 166.894531 53.375 C 166.308594 52.320312 165.738281 51.28125 165.167969 50.242188 C 161.871094 44.21875 158.742188 38.523438 153.800781 33.714844 L 152.066406 33.191406 C 157.597656 38.117188 160.902344 44.113281 164.46875 50.617188 C 164.9375 51.484375 165.414062 52.351562 165.902344 53.21875 C 166.359375 53.472656 166.808594 53.742188 167.257812 54.007812 Z M 166.894531 53.375 "/>
<path style=" stroke:none;fill-rule:nonzero;fill:rgb(19.215687%,84.705883%,64.313728%);fill-opacity:1;" d="M 110.253906 219.535156 L 111.054688 219.65625 C 111.464844 215.28125 111.996094 210.941406 112.617188 206.65625 L 111.824219 206.527344 C 111.203125 210.820312 110.679688 215.15625 110.253906 219.535156 Z M 110.253906 219.535156 "/>
<path style=" stroke:none;fill-rule:nonzero;fill:rgb(19.215687%,84.705883%,64.313728%);fill-opacity:1;" d="M 146.324219 31.691406 L 144.699219 31.339844 C 150.839844 36.472656 154.554688 42.605469 158.523438 49.480469 L 159.769531 50.050781 C 155.832031 43.210938 152.199219 36.96875 146.324219 31.691406 Z M 146.324219 31.691406 "/>
<path style=" stroke:none;fill-rule:nonzero;fill:rgb(19.215687%,84.705883%,64.313728%);fill-opacity:1;" d="M 162.113281 49.519531 C 158.644531 43.320312 155.382812 37.484375 150.078125 32.632812 L 148.351562 32.175781 C 154.261719 37.125 157.679688 43.230469 161.410156 49.898438 L 162.15625 51.191406 C 162.589844 51.417969 163.023438 51.632812 163.449219 51.863281 Z M 162.113281 49.519531 "/>
<path style=" stroke:none;fill-rule:nonzero;fill:rgb(19.215687%,84.705883%,64.313728%);fill-opacity:1;" d="M 112.847656 219.917969 L 113.640625 220.007812 C 114.269531 215.65625 115.023438 211.335938 115.886719 207.089844 L 115.09375 207 C 114.234375 211.230469 113.484375 215.539062 112.847656 219.917969 Z M 112.847656 219.917969 "/>
<path style=" stroke:none;fill-rule:nonzero;fill:rgb(19.215687%,84.705883%,64.313728%);fill-opacity:1;" d="M 118.253906 220.425781 L 119.066406 220.480469 C 120.210938 216.09375 121.476562 211.765625 122.804688 207.554688 L 121.984375 207.519531 C 120.644531 211.695312 119.390625 216.039062 118.253906 220.425781 Z M 118.253906 220.425781 "/>
<path style=" stroke:none;fill-rule:nonzero;fill:rgb(19.215687%,84.705883%,64.313728%);fill-opacity:1;" d="M 169.992188 54.265625 C 169.386719 53.152344 168.792969 52.058594 168.210938 50.96875 C 165.117188 45.21875 162.171875 39.753906 157.6875 35.039062 C 157.109375 34.828125 156.535156 34.621094 155.953125 34.425781 C 161.011719 39.285156 164.136719 45.085938 167.5 51.335938 C 168.085938 52.449219 168.691406 53.582031 169.289062 54.644531 C 169.46875 54.960938 169.644531 55.28125 169.820312 55.601562 C 170.308594 55.917969 170.78125 56.230469 171.253906 56.550781 Z M 169.992188 54.265625 "/>
<path style=" stroke:none;fill-rule:nonzero;fill:rgb(19.215687%,84.705883%,64.313728%);fill-opacity:1;" d="M 105.148438 218.601562 L 105.949219 218.765625 C 105.949219 214.28125 106.136719 209.878906 106.390625 205.476562 L 105.644531 205.289062 C 105.34375 209.691406 105.1875 214.144531 105.148438 218.601562 Z M 105.148438 218.601562 "/>
<path style=" stroke:none;fill-rule:nonzero;fill:rgb(19.215687%,84.705883%,64.313728%);fill-opacity:1;" d="M 139.78125 30.441406 L 138.285156 30.21875 C 144.15625 34.925781 147.847656 40.496094 151.652344 46.773438 L 152.832031 47.195312 C 149.042969 40.929688 145.425781 35.277344 139.78125 30.441406 Z M 139.78125 30.441406 "/>
<path style=" stroke:none;fill-rule:nonzero;fill:rgb(19.215687%,84.705883%,64.313728%);fill-opacity:1;" d="M 102.554688 218.019531 L 103.355469 218.214844 C 103.222656 213.730469 103.214844 209.183594 103.3125 204.707031 L 102.554688 204.488281 C 102.429688 208.972656 102.429688 213.496094 102.554688 218.019531 Z M 102.554688 218.019531 "/>
<path style=" stroke:none;fill-rule:nonzero;fill:rgb(19.215687%,84.705883%,64.313728%);fill-opacity:1;" d="M 136.695312 30.042969 L 135.246094 29.84375 C 140.976562 34.425781 144.558594 39.675781 148.328125 45.730469 L 149.480469 46.066406 C 145.742188 40.023438 142.210938 34.6875 136.695312 30.042969 Z M 136.695312 30.042969 "/>
<path style=" stroke:none;fill-rule:nonzero;fill:rgb(19.215687%,84.705883%,64.313728%);fill-opacity:1;" d="M 30.5625 140.515625 C 30.636719 141.003906 30.71875 141.480469 30.800781 141.964844 C 35.285156 131.769531 39.523438 121.457031 43.507812 111.136719 C 43.761719 109.601562 44.0625 108.085938 44.40625 106.585938 C 40.085938 117.949219 35.480469 129.296875 30.5625 140.515625 Z M 30.5625 140.515625 "/>
<path style=" stroke:none;fill-rule:nonzero;fill:rgb(19.215687%,84.705883%,64.313728%);fill-opacity:1;" d="M 55.214844 72.371094 C 55.832031 67.929688 56.003906 63.433594 55.730469 58.960938 C 55.46875 59.222656 55.21875 59.496094 54.980469 59.765625 C 55.191406 63.941406 55.007812 68.125 54.429688 72.265625 C 53.65625 77.796875 52.453125 83.257812 50.824219 88.597656 C 51.394531 87.4375 51.992188 86.28125 52.621094 85.128906 C 53.753906 80.933594 54.621094 76.671875 55.214844 72.371094 Z M 55.214844 72.371094 "/>
<path style=" stroke:none;fill-rule:nonzero;fill:rgb(19.215687%,84.705883%,64.313728%);fill-opacity:1;" d="M 142.996094 31.003906 C 142.464844 30.898438 141.941406 30.800781 141.410156 30.710938 C 147.40625 35.613281 151.140625 41.445312 155.03125 48.023438 L 156.242188 48.511719 C 152.394531 42.003906 148.769531 36.027344 142.996094 31.003906 Z M 142.996094 31.003906 "/>
<path style=" stroke:none;fill-rule:nonzero;fill:rgb(19.215687%,84.705883%,64.313728%);fill-opacity:1;" d="M 107.714844 219.113281 L 108.503906 219.25 C 108.722656 214.847656 109.050781 210.476562 109.480469 206.128906 L 108.691406 205.972656 C 108.265625 210.3125 107.929688 214.6875 107.714844 219.113281 Z M 107.714844 219.113281 "/>
<path style=" stroke:none;fill-rule:nonzero;fill:rgb(19.215687%,84.705883%,64.313728%);fill-opacity:1;" d="M 97.1875 216.5625 L 98.011719 216.808594 C 97.582031 212.113281 97.28125 207.429688 97.105469 202.753906 L 96.296875 202.460938 C 96.484375 207.148438 96.78125 211.847656 97.1875 216.5625 Z M 97.1875 216.5625 "/>
<path style=" stroke:none;fill-rule:nonzero;fill:rgb(19.215687%,84.705883%,64.313728%);fill-opacity:1;" d="M 130.960938 29.492188 L 129.617188 29.410156 C 134.910156 33.675781 138.378906 38.535156 142.011719 44.144531 L 143.117188 44.382812 C 139.507812 38.78125 136.097656 33.835938 130.960938 29.492188 Z M 130.960938 29.492188 "/>
<path style=" stroke:none;fill-rule:nonzero;fill:rgb(19.215687%,84.705883%,64.313728%);fill-opacity:1;" d="M 133.78125 29.699219 L 132.390625 29.582031 C 137.90625 34 141.429688 39.015625 145.164062 44.859375 L 146.292969 45.152344 C 142.59375 39.335938 139.117188 34.207031 133.78125 29.699219 Z M 133.78125 29.699219 "/>
<path style=" stroke:none;fill-rule:nonzero;fill:rgb(19.215687%,84.705883%,64.313728%);fill-opacity:1;" d="M 99.921875 217.347656 L 100.738281 217.5625 C 100.449219 212.988281 100.285156 208.402344 100.246094 203.808594 L 99.453125 203.554688 C 99.492188 208.148438 99.648438 212.746094 99.921875 217.347656 Z M 99.921875 217.347656 "/>
<path style=" stroke:none;fill-rule:nonzero;fill:rgb(19.215687%,84.705883%,64.313728%);fill-opacity:1;" d="M 36.242188 160.863281 L 36.644531 161.839844 C 39.351562 156.4375 42.140625 151.082031 45.015625 145.777344 C 44.914062 145.394531 44.820312 145.027344 44.734375 144.625 C 41.832031 149.964844 39.015625 155.363281 36.242188 160.863281 Z M 36.242188 160.863281 "/>
<path style=" stroke:none;fill-rule:nonzero;fill:rgb(19.215687%,84.705883%,64.313728%);fill-opacity:1;" d="M 76.757812 50.820312 C 75.925781 48.535156 74.757812 46.386719 73.296875 44.441406 L 72.613281 44.890625 C 74.042969 46.777344 75.1875 48.867188 76.007812 51.089844 C 76.722656 53.089844 77.304688 55.132812 77.75 57.210938 L 78.496094 56.722656 C 78.039062 54.71875 77.460938 52.746094 76.753906 50.816406 Z M 76.757812 50.820312 "/>
<path style=" stroke:none;fill-rule:nonzero;fill:rgb(19.215687%,84.705883%,64.313728%);fill-opacity:1;" d="M 35.484375 158.898438 L 35.867188 159.898438 C 38.675781 154.351562 41.53125 148.832031 44.433594 143.34375 C 44.34375 142.9375 44.253906 142.535156 44.171875 142.132812 C 41.230469 147.695312 38.335938 153.285156 35.484375 158.898438 Z M 35.484375 158.898438 "/>
<path style=" stroke:none;fill-rule:nonzero;fill:rgb(19.215687%,84.705883%,64.313728%);fill-opacity:1;" d="M 73.324219 49.867188 L 72.953125 50.003906 L 73.324219 49.867188 C 72.804688 48.429688 72.140625 47.046875 71.34375 45.742188 L 70.6875 46.199219 C 71.445312 47.449219 72.078125 48.773438 72.578125 50.144531 C 73.65625 53.125 74.429688 56.199219 74.894531 59.332031 L 75.644531 58.78125 C 75.15625 55.742188 74.382812 52.757812 73.324219 49.871094 Z M 73.324219 49.867188 "/>
<path style=" stroke:none;fill-rule:nonzero;fill:rgb(19.215687%,84.705883%,64.313728%);fill-opacity:1;" d="M 107.789062 41.898438 C 105.980469 39.882812 104.191406 37.886719 102.515625 35.917969 C 101.558594 34.8125 100.621094 33.738281 99.6875 32.691406 L 98.816406 32.921875 C 99.839844 34.050781 100.867188 35.222656 101.902344 36.4375 C 103.617188 38.433594 105.410156 40.441406 107.21875 42.460938 L 108.601562 44.011719 L 109.507812 43.839844 Z M 107.789062 41.898438 "/>
<path style=" stroke:none;fill-rule:nonzero;fill:rgb(19.215687%,84.705883%,64.313728%);fill-opacity:1;" d="M 56.714844 172.449219 C 55.96875 178.191406 55.347656 184.132812 54.96875 190.195312 L 55.714844 191.003906 C 56.082031 184.726562 56.679688 178.566406 57.492188 172.621094 C 57.261719 172.300781 57.039062 171.980469 56.820312 171.644531 Z M 56.714844 172.449219 "/>
<path style=" stroke:none;fill-rule:nonzero;fill:rgb(19.215687%,84.705883%,64.313728%);fill-opacity:1;" d="M 78.269531 41.464844 L 77.519531 41.871094 C 80.8125 44.859375 83.523438 48.429688 85.519531 52.402344 L 86.222656 52.027344 C 84.230469 48.058594 81.535156 44.480469 78.269531 41.464844 Z M 78.269531 41.464844 "/>
<path style=" stroke:none;fill-rule:nonzero;fill:rgb(19.215687%,84.705883%,64.313728%);fill-opacity:1;" d="M 38.269531 165.5 C 38.417969 165.820312 38.5625 166.140625 38.714844 166.460938 C 41.058594 160.980469 43.589844 155.578125 46.3125 150.25 C 46.191406 149.894531 46.078125 149.503906 45.976562 149.191406 C 43.230469 154.535156 40.660156 159.972656 38.269531 165.5 Z M 38.269531 165.5 "/>
<path style=" stroke:none;fill-rule:nonzero;fill:rgb(19.215687%,84.705883%,64.313728%);fill-opacity:1;" d="M 83.613281 52.867188 C 82.0625 48.921875 79.71875 45.34375 76.722656 42.347656 L 76.011719 42.769531 C 78.992188 45.710938 81.324219 49.246094 82.867188 53.144531 L 83.089844 53.785156 L 83.792969 53.367188 Z M 83.613281 52.867188 "/>
<path style=" stroke:none;fill-rule:nonzero;fill:rgb(19.215687%,84.705883%,64.313728%);fill-opacity:1;" d="M 80.183594 51.8125 C 78.992188 48.707031 77.253906 45.839844 75.046875 43.351562 L 74.363281 43.777344 C 76.539062 46.214844 78.257812 49.027344 79.433594 52.078125 C 79.835938 53.167969 80.179688 54.269531 80.5 55.367188 L 81.203125 54.925781 C 80.878906 53.890625 80.5625 52.851562 80.183594 51.8125 Z M 80.183594 51.8125 "/>
<path style=" stroke:none;fill-rule:nonzero;fill:rgb(19.215687%,84.705883%,64.313728%);fill-opacity:1;" d="M 36.980469 162.613281 C 37.117188 162.917969 37.25 163.230469 37.390625 163.539062 C 38.542969 161.191406 39.71875 158.859375 40.921875 156.542969 C 39.765625 158.964844 38.628906 161.402344 37.519531 163.851562 L 37.960938 164.828125 C 40.421875 159.347656 43.035156 153.929688 45.800781 148.578125 C 45.617188 147.964844 45.445312 147.335938 45.273438 146.714844 C 42.40625 151.949219 39.644531 157.25 36.980469 162.613281 Z M 36.980469 162.613281 "/>
<path style=" stroke:none;fill-rule:nonzero;fill:rgb(19.215687%,84.705883%,64.313728%);fill-opacity:1;" d="M 58.773438 55.902344 L 58.023438 56.605469 C 58.804688 63.808594 58.417969 71.09375 56.878906 78.175781 C 57.238281 77.652344 57.628906 77.136719 57.980469 76.621094 C 59.332031 69.800781 59.601562 62.808594 58.773438 55.902344 Z M 58.773438 55.902344 "/>
<path style=" stroke:none;fill-rule:nonzero;fill:rgb(19.215687%,84.705883%,64.313728%);fill-opacity:1;" d="M 31.375 144.890625 C 31.464844 145.324219 31.5625 145.757812 31.660156 146.191406 C 35.40625 138.03125 39.007812 129.808594 42.460938 121.519531 C 42.460938 120.722656 42.535156 119.929688 42.585938 119.136719 C 39 127.777344 35.261719 136.363281 31.375 144.890625 Z M 31.375 144.890625 "/>
<path style=" stroke:none;fill-rule:nonzero;fill:rgb(19.215687%,84.705883%,64.313728%);fill-opacity:1;" d="M 39.015625 167.097656 L 39.492188 168.0625 C 41.675781 162.496094 44.089844 157.019531 46.765625 151.691406 C 46.648438 151.332031 46.527344 150.941406 46.414062 150.617188 C 43.714844 155.980469 41.261719 161.492188 39.015625 167.097656 Z M 39.015625 167.097656 "/>
<path style=" stroke:none;fill-rule:nonzero;fill:rgb(19.215687%,84.705883%,64.313728%);fill-opacity:1;" d="M 80.78125 41.527344 C 80.457031 41.21875 80.128906 40.921875 79.804688 40.621094 L 79.054688 41.019531 C 79.453125 41.378906 79.847656 41.765625 80.226562 42.101562 C 83.128906 44.789062 85.644531 47.867188 87.703125 51.246094 L 88.449219 50.894531 C 86.339844 47.429688 83.761719 44.277344 80.78125 41.527344 Z M 80.78125 41.527344 "/>
<path style=" stroke:none;fill-rule:nonzero;fill:rgb(19.215687%,84.705883%,64.313728%);fill-opacity:1;" d="M 32.21875 148.523438 C 32.316406 148.917969 32.421875 149.3125 32.527344 149.710938 C 35.925781 142.589844 39.234375 135.417969 42.453125 128.203125 C 42.453125 127.597656 42.410156 126.984375 42.402344 126.371094 C 39.097656 133.800781 35.703125 141.1875 32.21875 148.523438 Z M 32.21875 148.523438 "/>
<path style=" stroke:none;fill-rule:nonzero;fill:rgb(19.215687%,84.705883%,64.313728%);fill-opacity:1;" d="M 61.621094 53.285156 L 60.9375 53.898438 C 62.078125 59.972656 62.21875 66.191406 61.355469 72.308594 L 62.289062 71.210938 C 63.027344 65.238281 62.800781 59.1875 61.621094 53.285156 Z M 61.621094 53.285156 "/>
<path style=" stroke:none;fill-rule:nonzero;fill:rgb(19.215687%,84.705883%,64.313728%);fill-opacity:1;" d="M 64.175781 51.09375 L 63.503906 51.667969 C 64.832031 57.066406 65.335938 62.628906 65 68.171875 C 65.273438 67.875 65.558594 67.585938 65.835938 67.292969 C 66.089844 61.839844 65.53125 56.375 64.175781 51.082031 Z M 64.175781 51.09375 "/>
<path style=" stroke:none;fill-rule:nonzero;fill:rgb(19.215687%,84.705883%,64.313728%);fill-opacity:1;" d="M 33.035156 151.644531 L 33.371094 152.765625 C 36.550781 146.289062 39.679688 139.765625 42.757812 133.203125 C 42.707031 132.679688 42.660156 132.148438 42.617188 131.617188 C 39.5 138.316406 36.304688 144.992188 33.035156 151.644531 Z M 33.035156 151.644531 "/>
<path style=" stroke:none;fill-rule:nonzero;fill:rgb(19.215687%,84.705883%,64.313728%);fill-opacity:1;" d="M 66.761719 49.046875 L 66.097656 49.554688 C 67.664062 54.449219 68.484375 59.554688 68.527344 64.691406 L 69.308594 63.945312 C 69.199219 58.878906 68.339844 53.859375 66.761719 49.046875 Z M 66.761719 49.046875 "/>
<path style=" stroke:none;fill-rule:nonzero;fill:rgb(19.215687%,84.705883%,64.313728%);fill-opacity:1;" d="M 33.902344 154.367188 C 34.011719 154.726562 34.132812 155.113281 34.253906 155.441406 C 37.277344 149.371094 40.289062 143.292969 43.28125 137.210938 C 43.214844 136.746094 43.148438 136.273438 43.085938 135.8125 C 40.050781 142.003906 36.988281 148.191406 33.902344 154.367188 Z M 33.902344 154.367188 "/>
<path style=" stroke:none;fill-rule:nonzero;fill:rgb(19.215687%,84.705883%,64.313728%);fill-opacity:1;" d="M 69.902344 48.988281 C 69.695312 48.390625 69.445312 47.808594 69.15625 47.246094 L 68.492188 47.722656 C 68.722656 48.222656 68.933594 48.730469 69.121094 49.253906 C 70.542969 53.296875 71.429688 57.511719 71.757812 61.785156 L 72.503906 61.164062 C 72.152344 57.011719 71.277344 52.917969 69.902344 48.984375 Z M 69.902344 48.988281 "/>
<path style=" stroke:none;fill-rule:nonzero;fill:rgb(19.215687%,84.705883%,64.313728%);fill-opacity:1;" d="M 34.703125 156.75 C 34.828125 157.09375 34.949219 157.445312 35.066406 157.789062 C 37.984375 152.027344 40.910156 146.273438 43.851562 140.523438 C 43.769531 140.097656 43.6875 139.671875 43.613281 139.246094 C 40.636719 145.074219 37.667969 150.910156 34.703125 156.75 Z M 34.703125 156.75 "/>
<path style=" stroke:none;fill-rule:nonzero;fill:rgb(19.215687%,84.705883%,64.313728%);fill-opacity:1;" d="M 49.773438 175.371094 C 49.339844 177.78125 48.957031 180.195312 48.601562 182.617188 L 49.273438 183.496094 C 49.664062 180.832031 50.082031 178.171875 50.550781 175.519531 C 51.195312 172.050781 51.898438 168.527344 52.71875 165.050781 L 52.152344 164.003906 C 51.222656 167.785156 50.460938 171.621094 49.773438 175.371094 Z M 49.773438 175.371094 "/>
<path style=" stroke:none;fill-rule:nonzero;fill:rgb(19.215687%,84.705883%,64.313728%);fill-opacity:1;" d="M 98.25 39.695312 C 96.617188 38.003906 95.011719 36.332031 93.464844 34.664062 L 92.640625 34.957031 L 92.910156 35.242188 L 93.203125 34.972656 L 92.910156 35.242188 C 94.480469 36.929688 96.101562 38.613281 97.730469 40.320312 C 99.359375 42.027344 101.019531 43.742188 102.652344 45.484375 L 103.511719 45.253906 C 101.753906 43.34375 99.992188 41.503906 98.25 39.695312 Z M 98.25 39.695312 "/>
<path style=" stroke:none;fill-rule:nonzero;fill:rgb(19.215687%,84.705883%,64.313728%);fill-opacity:1;" d="M 47.558594 176.449219 C 47.3125 177.710938 47.089844 178.976562 46.863281 180.246094 C 47.074219 180.546875 47.289062 180.832031 47.507812 181.136719 C 47.769531 179.640625 48.042969 178.109375 48.34375 176.597656 C 49.242188 172.039062 50.25 167.382812 51.511719 162.769531 C 51.332031 162.425781 51.160156 162.074219 50.988281 161.722656 C 49.605469 166.632812 48.515625 171.605469 47.558594 176.449219 Z M 47.558594 176.449219 "/>
<path style=" stroke:none;fill-rule:nonzero;fill:rgb(19.215687%,84.705883%,64.313728%);fill-opacity:1;" d="M 95.011719 38.910156 C 93.816406 37.707031 92.652344 36.511719 91.496094 35.328125 C 91.222656 35.425781 90.960938 35.53125 90.691406 35.636719 C 91.929688 36.910156 93.191406 38.199219 94.472656 39.492188 C 96.582031 41.625 98.703125 43.777344 100.765625 45.988281 L 101.617188 45.742188 C 99.460938 43.402344 97.21875 41.136719 95.011719 38.910156 Z M 95.011719 38.910156 "/>
<path style=" stroke:none;fill-rule:nonzero;fill:rgb(19.215687%,84.705883%,64.313728%);fill-opacity:1;" d="M 101.523438 40.511719 C 99.894531 38.777344 98.285156 37.058594 96.738281 35.34375 L 96.171875 34.71875 L 95.46875 33.96875 L 94.636719 34.246094 L 95.605469 35.277344 L 96.152344 35.882812 C 97.714844 37.617188 99.335938 39.34375 100.964844 41.117188 C 102.160156 42.386719 103.351562 43.667969 104.539062 44.957031 L 105.417969 44.742188 C 104.125 43.304688 102.824219 41.902344 101.523438 40.511719 Z M 101.523438 40.511719 "/>
<path style=" stroke:none;fill-rule:nonzero;fill:rgb(19.215687%,84.705883%,64.313728%);fill-opacity:1;" d="M 52.011719 174.320312 C 51.4375 177.789062 50.914062 181.351562 50.457031 184.988281 L 51.140625 185.839844 C 51.621094 181.960938 52.179688 178.15625 52.792969 174.457031 C 53.183594 172.125 53.609375 169.746094 54.082031 167.371094 L 53.46875 166.34375 C 52.925781 169.035156 52.472656 171.710938 52.011719 174.320312 Z M 52.011719 174.320312 "/>
<path style=" stroke:none;fill-rule:nonzero;fill:rgb(19.215687%,84.705883%,64.313728%);fill-opacity:1;" d="M 54.355469 173.347656 C 53.652344 177.953125 53.054688 182.699219 52.589844 187.550781 L 53.335938 188.371094 C 53.808594 183.273438 54.429688 178.289062 55.167969 173.472656 C 55.347656 172.308594 55.527344 171.140625 55.726562 169.96875 L 55.085938 168.972656 C 54.808594 170.4375 54.582031 171.90625 54.355469 173.347656 Z M 54.355469 173.347656 "/>
<path style=" stroke:none;fill-rule:nonzero;fill:rgb(19.215687%,84.705883%,64.313728%);fill-opacity:1;" d="M 104.589844 41.109375 C 102.757812 39.113281 100.957031 37.152344 99.242188 35.21875 C 98.675781 34.566406 98.105469 33.925781 97.539062 33.296875 L 96.6875 33.550781 C 97.335938 34.296875 97.988281 34.992188 98.644531 35.742188 C 100.371094 37.707031 102.1875 39.679688 104.027344 41.675781 L 106.566406 44.441406 L 107.464844 44.246094 C 106.507812 43.195312 105.546875 42.140625 104.589844 41.109375 Z M 104.589844 41.109375 "/>
<path style=" stroke:none;fill-rule:nonzero;fill:rgb(19.215687%,84.705883%,64.313728%);fill-opacity:1;" d="M 91.761719 38.140625 C 91.015625 37.4375 90.332031 36.742188 89.628906 36.039062 L 88.824219 36.367188 C 89.613281 37.160156 90.421875 37.945312 91.230469 38.738281 C 93.824219 41.289062 96.460938 43.875 98.945312 46.574219 L 99.773438 46.304688 C 97.191406 43.5 94.453125 40.785156 91.761719 38.140625 Z M 91.761719 38.140625 "/>
<path style=" stroke:none;fill-rule:nonzero;fill:rgb(19.215687%,84.705883%,64.313728%);fill-opacity:1;" d="M 45.429688 177.539062 C 45.414062 177.703125 45.382812 177.863281 45.332031 178.019531 L 45.957031 178.945312 L 46.207031 177.710938 C 47.417969 172.074219 48.792969 166.394531 50.546875 160.863281 L 50.054688 159.800781 C 48.214844 165.632812 46.671875 171.554688 45.429688 177.539062 Z M 45.429688 177.539062 "/>
<path style=" stroke:none;fill-rule:nonzero;fill:rgb(19.215687%,84.705883%,64.313728%);fill-opacity:1;" d="M 87.5 43.394531 C 86.003906 41.898438 84.464844 40.449219 82.894531 39.03125 L 82.148438 39.421875 C 83.785156 40.914062 85.40625 42.410156 86.964844 43.964844 C 88.65625 45.667969 90.242188 47.476562 91.710938 49.378906 L 92.457031 49.046875 C 90.929688 47.058594 89.273438 45.171875 87.5 43.398438 Z M 87.5 43.394531 "/>
<path style=" stroke:none;fill-rule:nonzero;fill:rgb(19.215687%,84.705883%,64.313728%);fill-opacity:1;" d="M 40.75 170.410156 C 40.921875 170.730469 41.101562 171.050781 41.28125 171.367188 C 43.132812 165.609375 45.308594 159.964844 47.796875 154.457031 C 47.671875 154.105469 47.535156 153.761719 47.402344 153.410156 C 44.863281 158.945312 42.644531 164.621094 40.75 170.40625 Z M 40.75 170.410156 "/>
<path style=" stroke:none;fill-rule:nonzero;fill:rgb(19.215687%,84.705883%,64.313728%);fill-opacity:1;" d="M 94.25 45.464844 C 91.671875 42.695312 88.878906 40.078125 86.109375 37.519531 L 85.363281 37.878906 C 88.1875 40.496094 91.050781 43.171875 93.695312 46.003906 C 94.273438 46.617188 94.824219 47.238281 95.371094 47.867188 L 96.164062 47.566406 C 95.519531 46.855469 94.894531 46.152344 94.25 45.464844 Z M 94.25 45.464844 "/>
<path style=" stroke:none;fill-rule:nonzero;fill:rgb(19.215687%,84.705883%,64.313728%);fill-opacity:1;" d="M 42.753906 173.914062 L 43.328125 174.871094 C 44.867188 168.9375 46.757812 163.101562 48.988281 157.390625 C 48.835938 157.039062 48.695312 156.6875 48.554688 156.339844 C 46.261719 162.074219 44.324219 167.941406 42.753906 173.917969 Z M 42.753906 173.914062 "/>
<path style=" stroke:none;fill-rule:nonzero;fill:rgb(19.215687%,84.705883%,64.313728%);fill-opacity:1;" d="M 39.867188 168.742188 C 40.039062 169.0625 40.210938 169.382812 40.375 169.703125 C 42.390625 164.046875 44.699219 158.496094 47.292969 153.082031 C 47.164062 152.726562 47.039062 152.332031 46.917969 152.011719 C 44.273438 157.460938 41.921875 163.042969 39.867188 168.738281 Z M 39.867188 168.742188 "/>
<path style=" stroke:none;fill-rule:nonzero;fill:rgb(19.215687%,84.705883%,64.313728%);fill-opacity:1;" d="M 83.769531 42.042969 C 82.988281 41.292969 82.175781 40.546875 81.363281 39.796875 L 80.613281 40.191406 C 81.492188 40.984375 82.363281 41.785156 83.207031 42.613281 C 85.640625 44.929688 87.84375 47.480469 89.78125 50.222656 L 90.527344 49.886719 C 88.542969 47.054688 86.277344 44.425781 83.769531 42.039062 Z M 83.769531 42.042969 "/>
<path style=" stroke:none;fill-rule:nonzero;fill:rgb(19.215687%,84.705883%,64.313728%);fill-opacity:1;" d="M 97.253906 46.132812 C 94.464844 43.097656 91.429688 40.195312 88.472656 37.371094 L 87.84375 36.773438 L 87.042969 37.117188 L 87.949219 37.984375 C 90.894531 40.792969 93.929688 43.648438 96.671875 46.683594 C 96.828125 46.847656 96.976562 47.027344 97.136719 47.199219 L 97.949219 46.90625 Z M 97.253906 46.132812 "/>
<path style=" stroke:none;fill-rule:nonzero;fill:rgb(19.215687%,84.705883%,64.313728%);fill-opacity:1;" d="M 43.980469 175.917969 C 44.175781 176.238281 44.375 176.554688 44.578125 176.867188 C 45.960938 170.839844 47.675781 164.890625 49.710938 159.046875 C 49.554688 158.695312 49.398438 158.335938 49.25 157.984375 C 47.148438 163.855469 45.386719 169.84375 43.976562 175.917969 Z M 43.980469 175.917969 "/>
<path style=" stroke:none;fill-rule:nonzero;fill:rgb(100%,100%,100%);fill-opacity:1;" d="M 198.539062 162.589844 C 198.695312 162.289062 198.84375 161.984375 198.996094 161.675781 C 199.53125 160.601562 200.046875 159.5 200.535156 158.394531 C 200.691406 158.035156 200.855469 157.648438 201.003906 157.320312 C 201.941406 155.136719 202.777344 152.910156 203.507812 150.636719 C 204.0625 148.941406 204.570312 147.230469 205.003906 145.496094 C 205.960938 141.753906 206.652344 137.949219 207.066406 134.109375 C 207.179688 133.101562 207.277344 132.085938 207.351562 131.070312 C 207.492188 129.058594 207.578125 127.03125 207.578125 124.984375 L 207.578125 124.027344 C 207.578125 122.859375 207.53125 121.695312 207.472656 120.535156 C 207.320312 117.714844 207.027344 114.902344 206.59375 112.109375 C 206.324219 110.390625 206.003906 108.695312 205.628906 107.019531 C 203.199219 96.085938 198.558594 85.765625 191.996094 76.691406 C 191.140625 75.503906 190.25 74.339844 189.328125 73.199219 C 188.082031 71.644531 186.773438 70.140625 185.421875 68.714844 C 184.773438 68.019531 184.113281 67.332031 183.441406 66.65625 C 182.386719 65.597656 181.304688 64.570312 180.1875 63.570312 C 179.628906 63.070312 179.058594 62.578125 178.492188 62.074219 C 177.527344 61.253906 176.554688 60.460938 175.554688 59.691406 C 175.046875 59.292969 174.539062 58.945312 174.015625 58.523438 C 173.109375 57.851562 172.1875 57.199219 171.253906 56.566406 C 170.785156 56.246094 170.304688 55.929688 169.820312 55.617188 C 168.976562 55.070312 168.121094 54.542969 167.253906 54.023438 C 166.808594 53.753906 166.359375 53.488281 165.902344 53.234375 C 165.085938 52.761719 164.257812 52.3125 163.425781 51.878906 C 163 51.648438 162.566406 51.429688 162.132812 51.207031 C 161.386719 50.816406 160.566406 50.460938 159.773438 50.0625 L 158.523438 49.476562 C 157.777344 49.140625 157.027344 48.820312 156.242188 48.5 L 155.03125 48.011719 C 154.285156 47.71875 153.539062 47.453125 152.785156 47.183594 L 151.605469 46.761719 C 150.859375 46.523438 150.171875 46.285156 149.457031 46.058594 L 148.328125 45.730469 C 147.652344 45.53125 146.964844 45.335938 146.265625 45.144531 L 145.167969 44.847656 L 143.148438 44.367188 L 142.042969 44.128906 C 141.398438 43.992188 140.75 43.867188 140.097656 43.746094 L 139.023438 43.550781 L 137.132812 43.253906 L 136.078125 43.105469 C 134.539062 42.902344 132.984375 42.730469 131.414062 42.609375 L 130.40625 42.542969 L 128.691406 42.453125 L 127.691406 42.417969 C 127.128906 42.417969 126.570312 42.417969 126.007812 42.378906 L 122.433594 42.378906 L 120.878906 42.4375 L 119.929688 42.5 L 118.433594 42.597656 L 117.484375 42.679688 L 116.070312 42.820312 L 115.132812 42.9375 L 113.792969 43.109375 L 112.867188 43.238281 L 111.632812 43.433594 C 111.328125 43.484375 111.015625 43.53125 110.714844 43.589844 L 109.511719 43.808594 L 108.605469 43.980469 L 107.484375 44.21875 L 106.589844 44.414062 L 105.4375 44.691406 L 104.558594 44.90625 L 103.503906 45.183594 L 102.644531 45.414062 L 101.621094 45.742188 L 100.769531 45.996094 L 99.773438 46.3125 L 98.945312 46.582031 L 97.949219 46.917969 L 97.136719 47.238281 L 96.132812 47.605469 L 95.339844 47.902344 L 94.332031 48.269531 L 93.585938 48.582031 L 92.488281 49.046875 L 91.738281 49.375 L 90.558594 49.90625 L 89.8125 50.242188 L 88.464844 50.890625 L 87.71875 51.242188 C 87.21875 51.496094 86.710938 51.757812 86.222656 52.023438 L 85.519531 52.398438 C 84.917969 52.714844 84.34375 53.035156 83.792969 53.363281 L 83.089844 53.78125 C 82.457031 54.15625 81.832031 54.535156 81.207031 54.925781 L 80.503906 55.367188 C 79.820312 55.808594 79.136719 56.257812 78.464844 56.71875 L 77.714844 57.207031 C 76.96875 57.722656 76.257812 58.238281 75.539062 58.777344 L 74.792969 59.332031 C 74.011719 59.929688 73.238281 60.535156 72.476562 61.160156 L 71.730469 61.78125 C 70.890625 62.492188 70.054688 63.21875 69.246094 63.957031 L 68.464844 64.703125 C 67.554688 65.558594 66.671875 66.425781 65.796875 67.3125 C 65.519531 67.605469 65.238281 67.890625 64.960938 68.191406 C 64.027344 69.191406 63.117188 70.203125 62.226562 71.226562 L 61.292969 72.328125 C 60.132812 73.722656 59.046875 75.167969 57.957031 76.640625 C 57.582031 77.15625 57.210938 77.671875 56.859375 78.195312 C 55.320312 80.4375 53.886719 82.753906 52.5625 85.148438 C 51.976562 86.289062 51.394531 87.441406 50.820312 88.601562 C 48.003906 94.328125 45.867188 100.363281 44.449219 106.585938 C 44.105469 108.082031 43.808594 109.601562 43.554688 111.136719 C 43.101562 113.792969 42.78125 116.472656 42.597656 119.160156 C 42.542969 119.953125 42.5 120.746094 42.46875 121.542969 C 42.417969 122.6875 42.386719 123.832031 42.386719 124.984375 L 42.386719 126.375 C 42.386719 126.988281 42.386719 127.597656 42.441406 128.203125 C 42.441406 129.355469 42.542969 130.492188 42.636719 131.621094 C 42.679688 132.152344 42.726562 132.683594 42.777344 133.207031 C 42.859375 134.085938 42.964844 134.949219 43.074219 135.816406 C 43.136719 136.28125 43.203125 136.75 43.269531 137.214844 C 43.375 137.898438 43.480469 138.574219 43.601562 139.246094 C 43.675781 139.671875 43.757812 140.101562 43.839844 140.527344 C 43.9375 141.0625 44.042969 141.601562 44.160156 142.132812 C 44.242188 142.535156 44.332031 142.941406 44.421875 143.34375 C 44.511719 143.746094 44.617188 144.179688 44.722656 144.59375 C 44.824219 145.003906 44.902344 145.339844 45.003906 145.742188 C 45.109375 146.148438 45.175781 146.394531 45.265625 146.71875 C 45.4375 147.339844 45.609375 147.96875 45.796875 148.582031 L 45.976562 149.1875 C 46.082031 149.539062 46.195312 149.890625 46.3125 150.25 C 46.332031 150.375 46.375 150.5 46.433594 150.613281 C 46.542969 150.972656 46.664062 151.363281 46.785156 151.6875 C 46.820312 151.792969 46.859375 151.90625 46.902344 152.011719 C 47.023438 152.367188 47.148438 152.757812 47.277344 153.078125 L 47.390625 153.410156 C 47.523438 153.761719 47.660156 154.105469 47.785156 154.457031 C 47.839844 154.582031 47.882812 154.710938 47.933594 154.828125 L 48.347656 155.882812 L 48.53125 156.332031 C 48.675781 156.683594 48.816406 157.035156 48.964844 157.386719 L 49.234375 157.984375 C 49.386719 158.335938 49.542969 158.691406 49.699219 159.042969 C 49.855469 159.394531 49.929688 159.53125 50.042969 159.792969 L 50.535156 160.851562 C 50.679688 161.152344 50.828125 161.4375 50.976562 161.730469 C 51.125 162.023438 51.320312 162.433594 51.5 162.777344 C 51.679688 163.121094 51.921875 163.578125 52.136719 163.976562 L 52.707031 165.023438 C 52.953125 165.46875 53.207031 165.910156 53.453125 166.359375 L 54.066406 167.382812 C 54.378906 167.921875 54.707031 168.453125 55.042969 168.984375 L 55.683594 169.976562 C 56.050781 170.546875 56.421875 171.105469 56.804688 171.660156 C 57.023438 171.988281 57.246094 172.308594 57.480469 172.636719 C 57.929688 173.277344 58.390625 173.914062 58.871094 174.542969 C 59.09375 174.847656 59.332031 175.15625 59.574219 175.460938 C 60.074219 176.113281 60.582031 176.761719 61.113281 177.398438 L 61.859375 178.277344 C 62.445312 178.972656 63.046875 179.667969 63.652344 180.339844 L 64.402344 181.164062 C 65.074219 181.910156 65.753906 182.605469 66.457031 183.3125 L 67.203125 184.058594 C 67.949219 184.761719 68.699219 185.464844 69.449219 186.136719 L 70.265625 186.882812 C 71.066406 187.597656 71.882812 188.292969 72.714844 188.96875 L 73.546875 189.644531 C 74.394531 190.316406 75.253906 190.972656 76.125 191.609375 L 76.960938 192.222656 C 77.777344 192.808594 78.605469 193.375 79.445312 193.925781 L 80.296875 194.488281 C 81.125 195.023438 81.972656 195.539062 82.824219 196.042969 C 83.097656 196.214844 83.382812 196.378906 83.667969 196.542969 C 85.675781 197.679688 87.738281 198.746094 89.855469 199.742188 L 90.6875 200.132812 C 91.496094 200.5 92.316406 200.878906 93.140625 201.207031 L 93.953125 201.535156 C 94.746094 201.855469 95.546875 202.171875 96.347656 202.46875 L 97.152344 202.761719 C 97.902344 203.039062 98.707031 203.308594 99.496094 203.5625 L 100.289062 203.816406 C 101.035156 204.054688 101.785156 204.28125 102.535156 204.5 L 103.328125 204.71875 C 104.085938 204.917969 104.847656 205.113281 105.613281 205.304688 L 106.363281 205.488281 C 107.109375 205.667969 107.894531 205.832031 108.664062 205.984375 L 109.457031 206.140625 C 110.203125 206.28125 111.011719 206.425781 111.800781 206.542969 L 112.59375 206.671875 C 113.398438 206.796875 114.214844 206.902344 115.035156 207 L 115.824219 207.089844 C 116.679688 207.1875 117.53125 207.269531 118.390625 207.335938 L 119.199219 207.390625 C 120.101562 207.457031 121.015625 207.5 121.925781 207.53125 L 122.75 207.566406 L 126.785156 207.566406 C 127.859375 207.566406 128.933594 207.492188 130 207.433594 L 130.878906 207.375 C 132.074219 207.292969 133.265625 207.179688 134.453125 207.042969 L 135.386719 206.941406 C 136.757812 206.769531 138.117188 206.5625 139.460938 206.320312 L 140.476562 206.132812 C 142.09375 205.824219 143.6875 205.472656 145.261719 205.078125 L 146.398438 204.78125 C 148.335938 204.265625 150.25 203.675781 152.125 203.023438 C 152.550781 202.875 152.984375 202.722656 153.40625 202.566406 C 155.898438 201.652344 158.347656 200.617188 160.753906 199.464844 C 161.320312 199.195312 161.875 198.910156 162.433594 198.632812 C 171.652344 193.929688 179.90625 187.539062 186.773438 179.796875 C 187.125 179.40625 187.46875 179.050781 187.804688 178.625 C 188.964844 177.265625 190.085938 175.875 191.15625 174.445312 L 191.859375 173.480469 C 192.644531 172.394531 193.40625 171.292969 194.136719 170.179688 C 194.339844 169.871094 194.542969 169.566406 194.734375 169.257812 C 195.347656 168.28125 195.945312 167.304688 196.53125 166.304688 L 197.03125 165.414062 C 197.542969 164.480469 198.050781 163.546875 198.539062 162.589844 Z M 198.539062 162.589844 "/>
<path style=" stroke:none;fill-rule:nonzero;fill:rgb(5.490196%,1.960784%,18.431373%);fill-opacity:1;" d="M 197.769531 125.394531 C 197.769531 165.820312 164.996094 198.589844 124.570312 198.589844 C 84.144531 198.589844 51.371094 165.820312 51.371094 125.394531 C 51.371094 84.964844 84.144531 52.195312 124.570312 52.195312 C 164.996094 52.195312 197.769531 84.964844 197.769531 125.394531 Z M 197.769531 125.394531 "/>
<path style=" stroke:none;fill-rule:nonzero;fill:rgb(100%,100%,100%);fill-opacity:1;" d="M 122.410156 158.164062 C 119.328125 157.929688 116.304688 157.222656 113.441406 156.066406 C 110.765625 154.933594 108.308594 153.347656 106.179688 151.378906 C 104.160156 149.5 102.507812 147.265625 101.308594 144.785156 C 100.082031 142.25 99.429688 139.480469 99.394531 136.667969 L 111.152344 136.667969 C 111.195312 139.59375 112.355469 142.398438 114.394531 144.5 C 116.578125 146.578125 119.417969 147.828125 122.425781 148.035156 L 122.425781 129.117188 L 117.9375 128.441406 C 112.78125 127.738281 108.671875 125.796875 105.613281 122.613281 C 102.519531 119.347656 100.898438 114.960938 101.125 110.472656 C 101.101562 107.980469 101.683594 105.519531 102.816406 103.304688 C 103.972656 101.023438 105.5625 98.992188 107.496094 97.324219 C 109.5 95.519531 111.796875 94.066406 114.285156 93.027344 C 116.875 91.949219 119.613281 91.269531 122.410156 91.015625 L 122.410156 82.097656 L 129.382812 82.097656 L 129.382812 91.171875 C 132.132812 91.519531 134.808594 92.292969 137.316406 93.464844 C 139.648438 94.488281 141.785156 95.914062 143.625 97.675781 C 145.386719 99.363281 146.8125 101.375 147.824219 103.597656 C 148.917969 105.839844 149.539062 108.285156 149.652344 110.777344 L 137.890625 110.777344 C 137.792969 108.550781 136.875 106.4375 135.3125 104.851562 C 133.734375 103.105469 131.671875 101.875 129.386719 101.320312 L 129.386719 118.800781 L 132.636719 119.28125 C 135.003906 119.652344 137.316406 120.328125 139.515625 121.292969 C 141.601562 122.191406 143.507812 123.457031 145.152344 125.027344 C 146.820312 126.570312 148.125 128.460938 148.976562 130.566406 C 149.953125 132.8125 150.4375 135.242188 150.398438 137.691406 C 150.476562 142.984375 148.304688 148.066406 144.417969 151.667969 C 142.4375 153.472656 140.160156 154.929688 137.691406 155.972656 C 135.039062 157.082031 132.238281 157.789062 129.378906 158.074219 L 129.378906 167.914062 L 122.40625 167.914062 L 122.40625 158.195312 Z M 129.386719 147.9375 C 131.996094 147.617188 134.4375 146.480469 136.359375 144.6875 C 138.027344 142.945312 138.925781 140.601562 138.847656 138.191406 C 139.007812 136.117188 138.105469 134.101562 136.457031 132.839844 C 134.851562 131.625 132.984375 130.804688 131.007812 130.445312 L 129.386719 130.160156 Z M 122.410156 101.011719 C 119.882812 101.339844 117.496094 102.375 115.535156 104.003906 C 113.6875 105.527344 112.664062 107.824219 112.761719 110.214844 C 112.621094 112.085938 113.28125 113.925781 114.578125 115.28125 C 116.003906 116.433594 117.726562 117.160156 119.546875 117.382812 L 122.417969 117.863281 L 122.417969 101.011719 Z M 122.410156 101.011719 "/>
</g>
</svg>
