<svg xmlns="http://www.w3.org/2000/svg" xmlns:xlink="http://www.w3.org/1999/xlink" width="600" height="600" viewBox="0 0 600 600">
  <defs>
    <linearGradient id="linear-gradient" x1="0.843" y1="0.135" x2="0.206" y2="0.886" gradientUnits="objectBoundingBox">
      <stop offset="0" stop-color="#b6509e"/>
      <stop offset="1" stop-color="#2ebac6"/>
    </linearGradient>
    <clipPath id="clip-aSUSD">
      <rect width="600" height="600"/>
    </clipPath>
  </defs>
  <g id="aSUSD" clip-path="url(#clip-aSUSD)">
    <path id="Subtraction_108" data-name="Subtraction 108" d="M-461,16584a282.152,282.152,0,0,1-56.43-5.689A278.714,278.714,0,0,1-569.989,16562a279.879,279.879,0,0,1-47.562-25.816,281.908,281.908,0,0,1-41.439-34.189,282.092,282.092,0,0,1-34.191-41.439A279.938,279.938,0,0,1-719,16412.988a278.581,278.581,0,0,1-16.315-52.56A282.074,282.074,0,0,1-741,16304a282.074,282.074,0,0,1,5.688-56.43A278.581,278.581,0,0,1-719,16195.011a280.059,280.059,0,0,1,25.816-47.563,282,282,0,0,1,34.191-41.438,282.062,282.062,0,0,1,41.439-34.191A280.058,280.058,0,0,1-569.989,16046a278.57,278.57,0,0,1,52.559-16.315A282.1,282.1,0,0,1-461,16024a282.1,282.1,0,0,1,56.43,5.688A278.568,278.568,0,0,1-352.011,16046a280.059,280.059,0,0,1,47.562,25.815,282.07,282.07,0,0,1,41.439,34.191,282,282,0,0,1,34.191,41.438A280.073,280.073,0,0,1-203,16195.011a278.559,278.559,0,0,1,16.315,52.559A282.066,282.066,0,0,1-181,16304a282.066,282.066,0,0,1-5.689,56.43,278.583,278.583,0,0,1-16.315,52.56,279.941,279.941,0,0,1-25.816,47.563,282.087,282.087,0,0,1-34.191,41.439,281.917,281.917,0,0,1-41.439,34.189A279.889,279.889,0,0,1-352.011,16562a278.707,278.707,0,0,1-52.559,16.316A282.154,282.154,0,0,1-461,16584Zm0-530a251.866,251.866,0,0,0-50.384,5.079,248.733,248.733,0,0,0-46.928,14.567,249.955,249.955,0,0,0-42.466,23.05,251.827,251.827,0,0,0-37,30.527,251.764,251.764,0,0,0-30.527,37,250.02,250.02,0,0,0-23.05,42.466,248.736,248.736,0,0,0-14.567,46.928A251.844,251.844,0,0,0-711,16304a251.844,251.844,0,0,0,5.079,50.384,248.793,248.793,0,0,0,14.567,46.928,250.029,250.029,0,0,0,23.05,42.467,251.933,251.933,0,0,0,30.527,37,252.012,252.012,0,0,0,37,30.527,250.162,250.162,0,0,0,42.466,23.051,248.874,248.874,0,0,0,46.928,14.564A251.767,251.767,0,0,0-461,16554a251.767,251.767,0,0,0,50.384-5.08,248.86,248.86,0,0,0,46.928-14.564,250.155,250.155,0,0,0,42.466-23.051,251.893,251.893,0,0,0,37-30.527,251.934,251.934,0,0,0,30.527-37,250.046,250.046,0,0,0,23.05-42.467,248.792,248.792,0,0,0,14.567-46.928A251.838,251.838,0,0,0-211,16304a251.838,251.838,0,0,0-5.079-50.384,248.74,248.74,0,0,0-14.567-46.928,250,250,0,0,0-23.05-42.466,251.77,251.77,0,0,0-30.527-37,251.831,251.831,0,0,0-37-30.527,249.951,249.951,0,0,0-42.466-23.05,248.723,248.723,0,0,0-46.928-14.567A251.867,251.867,0,0,0-461,16054Z" transform="translate(761.001 -16003.998)" fill="url(#linear-gradient)"/>
    <g id="Page-1" transform="translate(85 86.541)">
      <g id="Home-Page-Variant" transform="translate(0 0.458)">
        <g id="sUSD_blue" transform="translate(0 0)">
          <ellipse id="Oval-Copy" cx="215" cy="212.637" rx="215" ry="212.637" transform="translate(0 0)" fill="#1e1a31"/>
          <g id="Group-19" transform="translate(109.547 123.524)">
            <g id="Group-Copy" transform="translate(0 0)">
              <g id="Group-6" transform="translate(0 0)">
                <g id="Group-5" transform="translate(0 0)">
                  <g id="Group-4" transform="translate(0)">
                    <path id="Rectangle-2" d="M75.024,75.753a10.577,10.577,0,0,1,0,21.152H47.948C21.723,96.905.464,75.351.464,48.763S21.723.621,47.948.621h69.829A10.5,10.5,0,0,1,128.208,11.2a10.5,10.5,0,0,1-10.431,10.576H47.948a26.993,26.993,0,0,0,0,53.98Z" transform="translate(-0.464 -0.621)" fill="#fff" fill-rule="evenodd"/>
                    <path id="Rectangle-2-Copy" d="M74.56,75.132a10.577,10.577,0,0,1,0,21.152H47.484C21.259,96.284,0,74.73,0,48.142S21.259,0,47.484,0h69.829a10.5,10.5,0,0,1,10.431,10.576,10.5,10.5,0,0,1-10.431,10.576H47.484a26.993,26.993,0,0,0,0,53.98Z" transform="translate(127.744 171.416) rotate(180)" fill="#fff" fill-rule="evenodd"/>
                    <path id="Path-3" d="M17.662,164.4.7,152.083,107.365,1.167l16.958,12.32Z" transform="translate(1.012 2.746)" fill="rgba(255,255,255,0.5)" fill-rule="evenodd"/>
                  </g>
                </g>
              </g>
            </g>
            <g id="USD" transform="translate(144.048 163.446) rotate(-90)">
              <g id="Group_17807" data-name="Group 17807" transform="translate(0 0)">
                <path id="Path_8760" data-name="Path 8760" d="M12.323.5V34.316q0,7.08,2.711,10.661t8.544,3.581q5.833,0,8.585-3.581t2.752-10.661V.5H47.237v33.15q0,12.494-6.038,19.074T23.577,59.3Q11.994,59.3,6,52.723T0,33.649V.5ZM66.46,39.813a9.588,9.588,0,0,0,3.491,6.955,12.769,12.769,0,0,0,8.42,2.624,12.377,12.377,0,0,0,7.106-1.874,5.956,5.956,0,0,0,2.752-5.206,4.749,4.749,0,0,0-1.52-3.706,10.7,10.7,0,0,0-4.272-2.166q-2.752-.791-8.5-1.957a44.384,44.384,0,0,1-9.53-2.79,15.123,15.123,0,0,1-6.285-5.081A15.027,15.027,0,0,1,55.7,17.658,15.631,15.631,0,0,1,58.45,8.579a18.617,18.617,0,0,1,7.64-6.288A25.737,25.737,0,0,1,77.14,0,26.438,26.438,0,0,1,88.518,2.374a19.725,19.725,0,0,1,7.969,6.538,16.483,16.483,0,0,1,3,9.412H87.409a8.854,8.854,0,0,0-3.122-6.039,10.7,10.7,0,0,0-7.147-2.29,11.136,11.136,0,0,0-6.572,1.749,5.759,5.759,0,0,0-2.465,5,4.554,4.554,0,0,0,1.479,3.623,11.018,11.018,0,0,0,4.19,2.082q2.711.791,8.379,1.874a50.082,50.082,0,0,1,9.694,2.707,14.67,14.67,0,0,1,6.367,4.914q2.423,3.29,2.423,8.787a16.5,16.5,0,0,1-2.875,9.537,19.489,19.489,0,0,1-8.01,6.622A26.788,26.788,0,0,1,78.208,59.3a28.44,28.44,0,0,1-12.282-2.54,20.414,20.414,0,0,1-8.42-7.038,18.087,18.087,0,0,1-3.122-10.078ZM108.029.5h19.963A30.639,30.639,0,0,1,143.23,4.206a25.512,25.512,0,0,1,10.187,10.328,31.323,31.323,0,0,1,3.574,15.117,31.323,31.323,0,0,1-3.574,15.117A25.512,25.512,0,0,1,143.23,55.1,30.639,30.639,0,0,1,127.991,58.8H108.029Zm19.963,47.892q7.8,0,12.117-5.122t4.313-13.618q0-8.5-4.313-13.618t-12.117-5.122h-7.64V48.392Z"/>
                <path id="Path_8761" data-name="Path 8761" d="M12.323.5V34.316q0,7.08,2.711,10.661t8.544,3.581q5.833,0,8.585-3.581t2.752-10.661V.5H47.237v33.15q0,12.494-6.038,19.074T23.577,59.3Q11.994,59.3,6,52.723T0,33.649V.5ZM66.46,39.813a9.588,9.588,0,0,0,3.491,6.955,12.769,12.769,0,0,0,8.42,2.624,12.377,12.377,0,0,0,7.106-1.874,5.956,5.956,0,0,0,2.752-5.206,4.749,4.749,0,0,0-1.52-3.706,10.7,10.7,0,0,0-4.272-2.166q-2.752-.791-8.5-1.957a44.384,44.384,0,0,1-9.53-2.79,15.123,15.123,0,0,1-6.285-5.081A15.027,15.027,0,0,1,55.7,17.658,15.631,15.631,0,0,1,58.45,8.579a18.617,18.617,0,0,1,7.64-6.288A25.737,25.737,0,0,1,77.14,0,26.438,26.438,0,0,1,88.518,2.374a19.725,19.725,0,0,1,7.969,6.538,16.483,16.483,0,0,1,3,9.412H87.409a8.854,8.854,0,0,0-3.122-6.039,10.7,10.7,0,0,0-7.147-2.29,11.136,11.136,0,0,0-6.572,1.749,5.759,5.759,0,0,0-2.465,5,4.554,4.554,0,0,0,1.479,3.623,11.018,11.018,0,0,0,4.19,2.082q2.711.791,8.379,1.874a50.082,50.082,0,0,1,9.694,2.707,14.67,14.67,0,0,1,6.367,4.914q2.423,3.29,2.423,8.787a16.5,16.5,0,0,1-2.875,9.537,19.489,19.489,0,0,1-8.01,6.622A26.788,26.788,0,0,1,78.208,59.3a28.44,28.44,0,0,1-12.282-2.54,20.414,20.414,0,0,1-8.42-7.038,18.087,18.087,0,0,1-3.122-10.078ZM108.029.5h19.963A30.639,30.639,0,0,1,143.23,4.206a25.512,25.512,0,0,1,10.187,10.328,31.323,31.323,0,0,1,3.574,15.117,31.323,31.323,0,0,1-3.574,15.117A25.512,25.512,0,0,1,143.23,55.1,30.639,30.639,0,0,1,127.991,58.8H108.029Zm19.963,47.892q7.8,0,12.117-5.122t4.313-13.618q0-8.5-4.313-13.618t-12.117-5.122h-7.64V48.392Z" fill="#fff"/>
              </g>
            </g>
          </g>
        </g>
      </g>
    </g>
  </g>
</svg>
