<svg height="250" viewBox="0 0 250 250" width="250" xmlns="http://www.w3.org/2000/svg"><g fill="#e41c24" fill-rule="evenodd"><path d="m139.011719 26.179688c-.015625.492187-.035157.984374-.035157 1.476562v186.03125 1.542969c-9.199218 0-18.320312 0-27.585937 0 0-.476563 0-.957031 0-1.4375 0-62.046875 0-124.089844 0-186.136719 0-.492188-.019531-.984375-.03125-1.476562zm0 0"/><path d="m159.273438 26.179688c-.0625 1.507812-.164063 3.019531-.179688 4.527343-.125 12.527344.273438 25.039063 1.25 37.53125 1.199219 15.328125 3.109375 30.554688 6.945312 45.484375 2.101563 8.183594 4.53125 16.304688 8.925782 23.570313 9.75 16.128906 22.105468 29.785156 38.683594 39.207031 8.574218 4.871094 17.765624 8.035156 27.480468 9.703125.34375.058594.683594.148437 1.078125.234375v28.953125c-2.351562-.355469-4.644531-.617187-6.90625-1.054687-19.054687-3.683594-35.722656-12.40625-50.875-24.257813-7.316406-5.726563-13.894531-12.210937-19.449219-19.683594-5.992187-8.066406-10.101562-17.09375-13.28125-26.566406-2.71875-8.09375-4.257812-16.449219-5.285156-24.902344-2.035156-16.71875-2.519531-33.519531-2.753906-50.332031-.191406-13.679688-.230469-27.367188-.339844-41.046875-.003906-.457031-.042968-.910156-.066406-1.367187zm0 0"/><path d="m105.871094 26.179688c-.023438.351562-.0625.699218-.066406 1.046874-.121094 14.703126-.058594 29.410157-.414063 44.109376-.304687 12.6875-.890625 25.378906-1.714844 38.042968-.71875 10.984375-2.324219 21.882813-5.621093 32.441406-3.175782 10.183594-7.476563 19.851563-13.855469 28.484376-6.089844 8.238281-13.4375 15.230468-21.582031 21.398437-12.292969 9.316406-25.710938 16.464844-40.585938 20.746094-4.671875 1.34375-9.425781 2.261719-14.253906 2.789062-.269532.027344-.542969.003907-.867188.003907 0-9.589844 0-19.148438 0-28.757813 2.285156-.488281 4.585938-.925781 6.859375-1.472656 15.230469-3.648438 28.390625-11.101563 39.703125-21.847657 8.4375-8.015624 15.761719-16.953124 21.398438-27.15625 4.277344-7.742187 6.746094-16.183593 8.820312-24.738281 2.421875-9.988281 3.988282-20.121093 5.125-30.328125 1.898438-17.007812 2.609375-34.074218 2.445313-51.183594-.011719-1.191406-.109375-2.386718-.167969-3.578124zm0 0"/></g></svg>