<?xml version="1.0" standalone="no"?>
<!DOCTYPE svg PUBLIC "-//W3C//DTD SVG 20010904//EN"
 "http://www.w3.org/TR/2001/REC-SVG-20010904/DTD/svg10.dtd">
<svg version="1.0" xmlns="http://www.w3.org/2000/svg"
 width="574.000000pt" height="572.000000pt" viewBox="0 0 574.000000 572.000000"
 preserveAspectRatio="xMidYMid meet">

<g transform="translate(0.000000,572.000000) scale(0.100000,-0.100000)"
fill="#000000" stroke="none">
<path d="M2685 5493 c-717 -52 -1411 -416 -1861 -978 -295 -368 -470 -760
-556 -1245 -15 -87 -21 -176 -25 -366 -5 -221 -3 -268 16 -400 44 -302 123
-560 251 -819 306 -620 826 -1081 1485 -1316 702 -251 1524 -182 2170 183 559
316 972 803 1195 1408 l30 80 -40 25 -40 25 -331 0 -332 0 -135 -141 c-74 -77
-170 -182 -213 -232 -42 -51 -104 -119 -138 -152 -35 -34 -61 -68 -61 -80 0
-26 -106 -110 -140 -110 -14 -1 -56 -22 -95 -47 -180 -118 -416 -213 -628
-253 -87 -16 -108 -28 -90 -46 16 -16 227 31 368 83 247 91 482 236 658 407
59 57 110 101 113 98 30 -30 -291 -302 -480 -405 -183 -101 -445 -193 -620
-218 -58 -8 -66 0 -66 74 0 55 5 62 25 35 11 -15 18 -15 96 1 257 55 581 202
690 314 45 47 128 112 143 112 14 0 148 136 206 210 24 30 113 126 199 213
l156 157 336 0 c320 0 337 -1 378 -21 36 -17 45 -18 52 -7 15 24 9 33 -41 60
l-50 28 -347 0 -347 0 -103 -103 c-57 -57 -103 -96 -103 -87 0 8 41 59 92 114
l91 98 371 -4 c366 -3 371 -3 410 -26 31 -18 41 -20 47 -10 16 25 9 36 -37 62
l-47 26 -384 0 -384 0 -91 -95 c-64 -67 -94 -93 -102 -85 -7 7 18 39 84 105
l95 95 400 0 400 0 42 -24 41 -24 7 25 c7 30 10 25 -40 51 -43 21 -107 23
-625 21 -102 0 -200 0 -219 1 -18 1 -41 -6 -50 -14 -10 -9 -26 -16 -37 -16
-16 0 -15 3 8 27 18 17 42 29 70 32 34 5 43 10 43 26 0 17 -8 20 -51 23 l-51
3 -63 -66 c-45 -46 -67 -62 -74 -55 -8 8 8 30 55 76 66 63 68 64 122 64 59 0
72 8 62 40 -8 24 -47 27 -65 5 -10 -12 -40 -15 -147 -15 l-134 0 3 38 3 37
125 3 c96 2 127 0 135 -11 27 -37 94 -23 79 17 -5 13 -24 16 -114 16 l-107 0
-142 145 c-78 80 -146 145 -150 145 -15 0 -21 31 -11 51 6 10 17 19 25 19 10
0 15 11 15 36 0 31 -3 35 -22 32 -35 -5 -38 39 -4 52 34 13 37 57 4 62 -15 2
-23 10 -23 23 0 13 8 21 23 23 17 3 22 10 22 32 0 15 -7 30 -15 34 -10 4 -15
20 -15 50 0 45 10 56 51 56 21 0 23 8 10 43 -8 20 -15 24 -36 19 -25 -4 -26
-3 -23 29 3 33 4 34 56 37 47 3 52 1 52 -18 0 -11 -5 -29 -12 -39 -15 -24 3
-71 27 -71 11 0 15 -12 15 -49 0 -52 -8 -61 -56 -61 -14 0 -27 -7 -30 -15 -10
-26 16 -45 62 -45 23 0 46 -5 49 -10 13 -21 -17 -40 -61 -40 -47 0 -59 -10
-49 -40 5 -15 17 -20 58 -22 44 -3 52 -6 52 -23 0 -17 -8 -20 -52 -23 -47 -3
-54 -6 -59 -29 -9 -34 16 -53 68 -53 36 0 38 -2 38 -30 0 -29 -1 -30 -50 -30
-27 0 -50 -3 -50 -8 0 -4 57 -65 128 -135 l127 -127 97 0 c76 0 97 3 102 15
13 36 -4 45 -83 45 l-77 0 -47 48 -46 47 -4 180 c-5 199 -17 277 -73 445 -94
283 -273 528 -522 715 -90 67 -308 185 -342 185 -11 0 -28 4 -38 9 -9 5 -39
20 -67 32 -45 21 -48 24 -23 27 36 4 223 -67 334 -129 50 -28 129 -79 175
-114 104 -78 254 -230 243 -246 -4 -8 -3 -9 4 -5 16 9 111 -128 176 -254 113
-219 155 -387 163 -653 l6 -178 42 -47 43 -47 83 6 c115 10 417 11 422 2 3 -5
43 -4 89 0 190 18 274 19 287 3 8 -9 28 -16 46 -16 18 0 49 -7 69 -15 45 -19
51 -19 51 2 0 9 -21 29 -47 44 l-48 28 -452 6 -453 6 -46 45 -46 45 -6 142
c-4 81 -15 183 -26 237 -28 133 -72 270 -86 270 -15 0 -70 115 -68 142 1 11
-21 57 -49 102 -182 295 -491 536 -833 651 -90 30 -113 45 -71 45 68 0 285
-91 434 -181 201 -124 420 -351 529 -550 16 -30 32 -48 40 -45 7 3 17 -3 22
-12 6 -9 11 -12 11 -6 0 17 -93 168 -157 253 -73 99 -215 239 -328 324 -107
80 -325 192 -462 237 -107 35 -133 50 -89 50 45 0 224 -64 333 -118 171 -86
403 -257 387 -284 -4 -6 -2 -8 3 -5 16 10 164 -152 229 -250 112 -169 190
-346 239 -542 20 -78 45 -258 45 -324 0 -41 5 -53 38 -88 28 -30 49 -43 82
-50 69 -13 474 -11 487 2 14 14 226 12 231 -1 2 -6 23 -10 48 -10 24 0 58 -8
78 -19 19 -11 37 -17 40 -14 16 16 2 35 -46 63 l-53 30 -381 0 -381 0 -55 58
c-55 57 -55 57 -62 137 -11 118 -33 227 -73 350 -43 134 -117 295 -135 295
-15 0 -83 107 -83 132 -1 26 -60 102 -164 211 -203 211 -424 350 -698 439 -73
24 -133 48 -133 54 0 28 193 -33 366 -116 240 -114 441 -275 598 -478 27 -34
62 -69 78 -77 l30 -14 -17 27 c-54 85 -184 230 -280 314 -215 187 -468 319
-753 394 -126 32 -158 32 -166 -2 -12 -47 -23 -11 -17 56 l6 65 45 -2 c137 -7
382 -83 565 -176 194 -99 352 -214 495 -362 41 -43 80 -78 87 -79 6 -1 22 -11
34 -22 l23 -19 -21 30 c-40 58 -145 165 -236 242 -218 182 -456 307 -742 387
-101 29 -281 60 -301 52 -9 -4 -14 -33 -16 -98 -2 -51 -7 -93 -12 -93 -12 0
-7 196 5 211 20 24 267 -19 448 -78 211 -68 381 -156 555 -287 98 -74 276
-249 352 -346 161 -206 275 -440 345 -704 l31 -116 71 -72 71 -73 269 0 c249
0 271 -1 307 -20 39 -20 40 -20 40 -2 0 13 -19 29 -57 50 l-58 30 -235 5 -234
5 -81 83 c-75 78 -82 89 -99 154 -40 152 -118 336 -204 480 -57 97 -195 276
-207 271 -17 -6 -115 95 -115 118 0 10 -6 24 -14 30 -7 6 -58 48 -113 93 -126
103 -207 155 -363 233 -219 110 -495 188 -682 193 l-93 2 -3 -133 c-4 -180
-22 -164 -22 19 0 120 2 140 16 146 26 10 240 -15 360 -42 341 -77 674 -250
901 -468 24 -23 46 -38 50 -34 10 10 123 -104 123 -123 0 -9 31 -58 70 -108
138 -183 234 -370 309 -607 l42 -130 82 -82 82 -83 228 0 c243 0 243 0 306
-54 23 -20 23 -20 13 -1 -6 11 -18 74 -27 140 -127 915 -762 1718 -1632 2064
-203 80 -464 149 -648 170 -97 11 -438 20 -520 14z m-751 -338 c19 -44 31 -81
27 -83 -5 -2 -48 19 -97 46 l-89 48 33 -69 c18 -38 32 -71 30 -73 -2 -1 -23
33 -46 78 -23 45 -40 83 -37 86 3 3 42 -13 88 -36 45 -23 85 -42 89 -42 4 0
-7 33 -23 72 -40 97 -19 74 25 -27z m952 40 c5 -21 12 -25 46 -25 31 0 41 4
45 20 5 18 13 20 77 19 39 0 107 -6 151 -12 72 -11 80 -14 83 -35 6 -41 86
-58 95 -21 7 26 27 23 186 -24 100 -30 106 -34 109 -60 3 -22 12 -32 39 -43
31 -14 37 -13 52 0 10 9 23 16 29 16 7 0 67 -27 133 -60 116 -59 120 -62 114
-88 -5 -23 -1 -30 30 -46 30 -16 39 -17 59 -7 22 12 30 9 100 -38 120 -81 148
-109 141 -140 -4 -21 1 -33 25 -56 28 -27 32 -28 56 -14 26 13 28 12 121 -85
62 -64 93 -104 90 -115 -3 -9 -7 -23 -10 -31 -4 -9 6 -29 22 -48 24 -28 32
-32 49 -23 15 8 23 6 40 -12 25 -28 142 -206 142 -218 0 -4 -8 -12 -17 -18
-16 -8 -16 -12 1 -49 17 -37 16 -62 -2 -62 -4 0 -17 18 -30 40 -23 40 -36 48
-47 30 -13 -21 -27 -7 -102 107 -77 116 -77 116 -55 131 l22 14 -31 39 c-27
35 -32 37 -55 27 -24 -11 -30 -7 -120 88 -51 54 -94 102 -94 105 0 4 7 12 15
19 14 12 12 17 -16 46 -31 32 -33 33 -59 17 -26 -15 -28 -14 -112 48 -47 35
-98 74 -114 85 -28 21 -28 22 -11 42 18 19 17 20 -16 41 -41 25 -45 26 -68 5
-16 -14 -27 -11 -143 44 -121 58 -140 74 -115 99 8 8 3 15 -19 27 -38 20 -61
20 -68 2 -10 -26 -31 -25 -120 4 -49 15 -109 33 -132 40 -36 9 -43 15 -39 31
3 12 -2 24 -16 34 -31 22 -61 19 -72 -7 -6 -14 -18 -22 -30 -21 -11 1 -75 8
-142 15 -120 12 -122 12 -125 37 -3 22 -9 26 -41 29 -32 3 -38 0 -47 -23 -5
-14 -15 -27 -22 -29 -7 -3 -73 -7 -145 -10 -125 -5 -133 -4 -133 13 0 23 -21
32 -60 25 -22 -5 -30 -13 -32 -32 -3 -25 -10 -28 -128 -59 -150 -38 -157 -39
-165 -13 -7 23 -23 25 -60 8 -20 -9 -26 -18 -22 -35 5 -27 -3 -34 -68 -58 -27
-10 -81 -33 -119 -52 l-70 -33 -22 21 c-22 21 -23 21 -53 3 -27 -16 -30 -23
-26 -49 5 -27 2 -32 -37 -54 -24 -13 -73 -46 -110 -72 -73 -53 -79 -55 -107
-37 -15 9 -24 7 -50 -11 -30 -22 -31 -24 -17 -46 14 -22 12 -25 -52 -86 -155
-145 -140 -135 -164 -120 -20 13 -24 11 -50 -20 -26 -31 -27 -34 -11 -51 15
-17 14 -21 -11 -56 -15 -20 -52 -72 -82 -114 -51 -72 -57 -77 -84 -71 -25 4
-32 1 -50 -28 l-20 -34 20 -17 c21 -17 20 -17 -41 -143 -57 -117 -64 -126 -88
-123 -21 2 -29 -4 -43 -32 -17 -35 -17 -35 8 -55 l24 -21 -23 -69 c-13 -39
-30 -93 -36 -122 -13 -55 -24 -69 -56 -74 -12 -3 -23 -17 -29 -37 -8 -30 -7
-36 18 -55 25 -21 26 -25 17 -72 -5 -27 -12 -87 -16 -132 -5 -59 -11 -83 -20
-83 -23 0 -45 -30 -45 -60 0 -32 -10 -43 -29 -31 -8 5 -12 23 -9 47 3 34 0 39
-19 42 -13 2 -23 9 -24 15 -3 43 15 229 27 270 3 10 15 17 29 17 24 0 35 22
35 73 0 17 -5 27 -15 27 -27 0 -17 59 37 228 18 56 22 62 47 62 20 0 31 7 39
25 16 36 15 62 -4 73 -14 8 -12 17 14 78 16 38 45 96 64 129 29 52 38 60 66
63 26 3 36 10 49 38 16 32 16 35 -2 48 -17 12 -16 15 15 62 42 61 115 158 136
178 12 13 20 14 36 5 17 -9 25 -6 51 19 29 29 29 32 14 55 -15 24 -14 25 51
89 37 35 87 81 110 102 41 35 45 37 62 21 17 -16 20 -15 49 6 34 25 36 31 21
59 -8 16 6 29 110 99 66 45 127 81 135 81 8 0 18 -7 23 -16 8 -14 12 -14 46 3
32 15 37 21 32 44 -6 29 -3 31 158 100 100 44 114 46 131 23 10 -14 17 -15 48
-5 28 9 36 18 39 39 3 26 9 28 141 61 l139 35 18 -23 c14 -20 23 -23 53 -17
26 5 37 13 41 31 5 20 14 24 64 30 31 3 66 7 77 9 11 2 53 4 92 5 70 1 73 0
79 -24z m1114 -6 c0 -5 4 -8 9 -5 5 4 11 2 13 -3 1 -5 10 -11 18 -13 8 -2 21
-10 28 -18 10 -11 12 -11 6 -1 -4 9 -3 12 4 7 8 -5 8 -15 2 -32 -18 -45 -31
-65 -41 -59 -5 4 -3 13 6 22 22 21 15 35 -28 58 -20 11 -37 27 -37 35 -1 8 -7
0 -15 -19 -8 -18 -12 -37 -9 -42 3 -5 -2 -6 -10 -3 -10 4 -18 -1 -22 -12 -11
-35 -38 -84 -46 -84 -12 0 -10 5 14 47 49 87 82 133 95 133 7 0 13 -5 13 -11z
m-2295 -28 c3 -5 -5 -17 -17 -25 -27 -19 -42 -21 -32 -3 4 6 4 9 0 5 -4 -3 -6
-8 -4 -11 2 -3 -5 -14 -15 -24 -17 -19 -16 -21 3 -45 10 -14 16 -29 12 -33 -4
-5 -1 -5 6 -1 7 4 10 11 7 16 -6 9 45 40 65 40 22 0 8 -21 -25 -37 -35 -17
-43 -35 -25 -63 8 -12 14 -12 45 3 41 20 65 22 65 6 0 -6 -7 -8 -16 -5 -8 3
-12 2 -9 -4 3 -5 -10 -18 -31 -27 l-36 -18 -22 27 c-11 15 -36 54 -54 87 l-33
61 47 30 c52 32 60 35 69 21z m2469 -65 c21 -9 53 -27 70 -39 17 -12 33 -23
35 -25 3 -1 0 -7 -6 -13 -14 -14 -76 20 -69 38 3 7 1 15 -4 18 -6 4 -10 -1
-10 -9 0 -13 -6 -12 -35 5 -19 12 -35 28 -35 36 0 8 3 13 8 11 4 -2 24 -12 46
-22z m-202 0 c-3 -5 2 -6 12 -3 11 5 15 3 10 -5 -5 -8 -2 -9 10 -5 9 4 15 3
12 -2 -3 -5 1 -11 9 -15 21 -8 19 -45 -5 -81 -23 -34 -27 -23 -5 15 8 14 14
28 15 31 0 3 -22 16 -50 29 -53 25 -66 49 -26 46 13 0 22 -5 18 -10z m-2411
-70 c6 -13 21 -28 33 -34 11 -6 31 -29 44 -51 26 -47 12 -57 -15 -11 -20 34
-24 35 -62 16 -49 -26 -54 -39 -30 -80 37 -63 6 -38 -46 36 -66 95 -68 98 -55
98 6 0 19 -13 28 -30 20 -36 42 -38 78 -7 26 23 27 25 11 48 -19 27 -21 39 -7
39 6 0 15 -11 21 -24z m1584 3 c221 -24 456 -94 681 -203 288 -140 518 -318
722 -561 210 -250 357 -543 442 -880 l37 -150 42 -3 c32 -2 41 0 41 12 0 11
-9 16 -28 16 -28 0 -29 2 -61 131 -32 132 -32 148 3 149 5 0 5 17 1 38 -4 20
-7 45 -8 55 -1 10 -6 16 -12 14 -51 -20 -52 -20 -75 40 -13 32 -36 84 -52 115
-35 72 -35 84 2 97 17 5 38 17 46 26 30 29 45 16 89 -77 55 -120 73 -170 60
-175 -36 -12 -37 -20 -16 -67 17 -39 24 -46 40 -41 25 8 26 6 55 -106 39 -153
41 -176 17 -184 -12 -3 -21 -15 -21 -26 0 -26 -41 -41 -104 -36 l-51 4 -18 74
c-35 149 -68 262 -103 352 -343 874 -1217 1433 -2138 1367 -703 -50 -1328
-431 -1690 -1030 -150 -248 -248 -524 -291 -815 -19 -130 -22 -415 -5 -555 77
-645 470 -1251 1023 -1575 282 -164 589 -266 892 -296 149 -14 438 -6 560 16
446 80 826 272 1139 574 168 162 302 342 411 550 57 109 85 144 85 106 0 -25
-93 -201 -157 -296 -132 -198 -246 -328 -407 -466 -145 -124 -292 -221 -461
-303 -220 -107 -430 -172 -663 -204 -149 -21 -455 -21 -604 0 -608 84 -1153
426 -1502 942 -229 339 -350 717 -363 1132 -9 297 19 498 107 762 203 610 670
1104 1271 1342 331 131 685 176 1064 135z m1045 6 c0 -10 -82 -136 -86 -132
-6 6 69 137 79 137 4 0 7 -2 7 -5z m139 -52 c-13 -15 -12 -15 10 -4 15 8 21 9
17 2 -4 -6 -2 -12 3 -12 6 -1 15 -2 20 -3 5 0 13 -5 18 -10 5 -5 3 -6 -4 -2
-7 4 -13 5 -13 2 0 -3 10 -10 21 -17 17 -9 20 -8 14 3 -6 10 -5 10 4 2 10 -10
9 -19 -4 -48 -22 -45 -27 -49 -50 -32 -17 12 -16 13 6 12 37 -2 34 28 -7 59
-28 22 -40 26 -53 18 -9 -6 -15 -18 -15 -26 1 -9 -4 -13 -11 -11 -7 3 -15 1
-19 -4 -3 -5 8 -8 24 -7 23 1 36 -6 55 -31 14 -18 25 -38 25 -45 0 -16 -51
-82 -58 -75 -3 4 6 19 21 34 30 31 28 37 -32 80 l-44 32 -18 -30 c-10 -16 -23
-30 -29 -30 -13 0 32 61 85 118 40 42 60 57 34 25z m-1266 -13 c268 -22 537
-100 782 -225 200 -103 365 -227 541 -406 180 -185 279 -324 387 -546 68 -139
143 -353 134 -378 -6 -13 -51 -20 -84 -13 -5 0 -27 56 -51 122 -115 327 -315
624 -580 860 -296 263 -720 448 -1114 487 -144 14 -391 7 -523 -15 -634 -106
-1185 -513 -1471 -1088 -92 -183 -161 -398 -188 -579 -22 -149 -23 -493 -2
-629 61 -386 241 -758 507 -1047 22 -24 42 -43 44 -43 20 0 -6 43 -66 113
-244 282 -403 634 -459 1020 -75 504 74 1058 391 1464 27 35 49 72 49 83 0 26
96 130 120 130 9 0 48 27 86 61 200 176 420 306 661 389 133 46 280 83 300 76
10 -4 13 -37 13 -136 0 -85 -4 -129 -10 -125 -6 4 -10 53 -10 115 0 60 -4 111
-8 114 -13 8 -153 -28 -272 -69 -187 -65 -367 -161 -525 -280 -106 -80 -195
-164 -195 -183 0 -19 -99 -122 -116 -122 -30 0 -177 -217 -259 -380 -99 -197
-158 -387 -191 -610 -20 -138 -15 -457 9 -585 54 -285 151 -525 305 -756 84
-126 201 -263 227 -267 25 -5 114 -89 126 -119 21 -55 321 -243 513 -322 97
-41 265 -93 339 -106 l37 -7 1 63 c1 35 2 69 4 74 1 6 3 15 4 20 1 6 6 3 11
-5 14 -22 12 -153 -2 -173 -12 -15 -19 -15 -101 3 -253 56 -511 175 -726 335
-53 40 -110 74 -126 77 -29 6 -29 5 15 -33 114 -100 327 -228 506 -304 147
-63 461 -151 478 -134 3 2 6 55 7 117 2 105 9 133 23 96 3 -9 6 -63 6 -120 0
-97 1 -104 20 -104 19 0 20 7 20 120 0 67 4 120 9 120 5 0 11 -10 13 -22 3
-20 10 -23 52 -26 37 -2 52 1 58 12 11 20 29 21 22 1 -5 -11 1 -15 20 -15 16
0 26 6 26 15 0 8 3 15 8 15 14 0 33 -59 30 -92 l-3 -33 -107 -3 c-144 -4 -141
-22 3 -22 l111 0 -4 -46 -3 -46 29 6 c16 4 31 7 32 9 2 1 4 58 5 125 1 67 6
122 11 122 4 0 8 -42 8 -94 0 -51 3 -108 7 -126 l6 -33 86 7 c215 17 464 87
678 191 281 135 520 326 702 558 52 66 64 76 76 58 14 -24 -270 -324 -400
-423 -275 -208 -574 -338 -920 -399 -163 -29 -468 -32 -635 -6 -450 71 -840
270 -1151 589 -281 287 -466 636 -544 1023 -108 537 -1 1077 304 1532 541 810
1558 1124 2468 762 533 -211 978 -684 1159 -1228 33 -100 54 -135 70 -119 10
11 -70 228 -131 355 -112 233 -230 396 -426 589 -133 130 -223 201 -371 291
-191 117 -446 217 -664 263 -237 49 -575 49 -817 -1 -316 -64 -651 -224 -900
-427 -101 -83 -270 -261 -349 -365 -238 -319 -379 -694 -409 -1087 -41 -532
122 -1055 458 -1470 83 -102 260 -273 360 -347 250 -186 545 -316 853 -379
177 -36 499 -45 680 -20 637 89 1194 464 1515 1021 32 55 66 119 76 141 20 47
36 62 45 41 6 -17 -57 -146 -119 -247 -114 -183 -308 -404 -467 -533 -264
-213 -585 -365 -915 -432 -946 -193 -1903 281 -2321 1150 -68 142 -147 377
-176 530 -20 107 -23 149 -23 390 1 255 2 277 28 397 98 461 329 865 663 1163
447 398 1004 584 1597 535z m-1663 -20 c19 -10 100 -117 100 -132 0 -20 -17
-4 -45 43 -16 28 -38 58 -48 66 -16 15 -20 15 -45 -3 -43 -32 -56 -39 -48 -26
4 7 3 12 -3 12 -21 0 -18 -17 9 -55 16 -22 37 -52 46 -67 21 -32 43 -43 58
-28 8 8 5 9 -9 4 -13 -4 -7 5 15 24 26 22 38 27 48 20 9 -8 9 -14 1 -24 -17
-21 -34 -17 -18 4 13 15 12 16 -4 3 -9 -8 -15 -16 -12 -19 10 -10 -18 -32 -40
-32 -15 0 -35 17 -65 57 -23 31 -44 62 -47 70 -3 7 -9 10 -14 7 -11 -6 -11 7
-1 24 13 19 74 62 90 62 7 0 22 -5 32 -10z m3180 -156 c0 -6 -8 -22 -19 -35
-10 -13 -21 -33 -25 -45 -8 -25 -76 -93 -76 -75 0 6 12 23 26 36 l25 24 -40
39 c-44 43 -49 52 -27 52 7 0 30 -18 50 -40 20 -22 36 -36 36 -32 0 4 -5 13
-12 20 -7 7 -8 12 -2 12 5 0 20 10 34 21 14 11 20 18 14 15 -16 -8 -78 59 -70
76 4 7 1 4 -6 -7 -7 -11 -25 -31 -40 -46 -16 -15 -28 -30 -28 -34 0 -17 -49
-64 -56 -54 -3 6 -3 14 2 18 5 3 32 33 59 66 28 33 54 63 59 67 11 7 95 -61
96 -78z m-3343 38 c-9 -10 -17 -23 -17 -28 0 -5 25 -38 55 -74 29 -36 52 -67
49 -69 -3 -3 -31 24 -63 60 l-59 64 -31 -18 c-52 -30 -57 -9 -10 39 58 59 75
56 19 -3 -25 -26 -33 -37 -18 -24 24 21 30 22 45 10 16 -13 17 -12 4 4 -12 15
-11 20 4 37 10 11 15 20 11 20 -4 0 -4 5 0 11 4 8 9 8 17 0 7 -7 6 -16 -6 -29z
m1601 -66 c2 -22 -2 -50 -9 -63 -10 -18 -10 -26 -1 -35 17 -17 14 -99 -3 -122
-14 -18 -16 -18 -33 -2 -17 15 -20 15 -32 1 -12 -14 -15 -14 -30 0 -19 17 -82
20 -111 5 -18 -10 -19 -6 -19 118 0 71 3 132 7 136 4 3 57 5 117 4 l111 -3 3
-39z m1813 -53 c-18 -31 -131 -147 -131 -135 0 11 127 152 137 152 2 0 -1 -8
-6 -17z m-2183 -86 c2 -60 -1 -87 -8 -82 -5 3 -10 37 -10 76 0 82 1 82 -120
43 -196 -62 -382 -155 -557 -281 -119 -85 -183 -143 -285 -257 -249 -280 -408
-618 -463 -988 -30 -198 -16 -510 31 -703 60 -244 185 -508 330 -697 38 -48
49 -57 56 -45 6 12 -9 39 -57 104 -155 210 -271 483 -320 753 -23 130 -31 395
-15 529 37 317 160 623 354 882 51 68 112 142 135 164 24 22 41 48 41 61 0 27
108 124 138 124 12 0 55 25 98 55 42 30 120 80 173 109 147 83 361 166 394
153 16 -6 28 -75 15 -83 -5 -3 -16 -3 -25 0 -12 5 -14 9 -5 18 19 19 14 38 -8
38 -33 0 -195 -66 -319 -131 -128 -66 -270 -163 -286 -194 -14 -28 -122 -125
-139 -125 -16 0 -94 -82 -157 -165 -172 -224 -282 -458 -345 -731 -24 -106
-28 -144 -32 -339 -3 -190 -1 -237 16 -340 37 -213 100 -396 201 -576 63 -114
159 -250 186 -264 30 -15 112 -107 116 -130 5 -25 150 -150 258 -223 160 -107
507 -262 587 -262 19 0 24 -5 24 -24 0 -14 -5 -37 -10 -51 -9 -25 -13 -26 -53
-20 -54 9 -218 66 -322 112 -314 137 -635 418 -822 718 -377 604 -391 1344
-38 1960 202 353 549 659 921 812 117 48 263 93 294 90 24 -2 25 -4 28 -90z
m-1308 -119 c0 -14 -8 -9 -79 59 -95 89 -91 103 4 16 41 -37 75 -71 75 -75z
m3654 70 c45 -39 69 -75 60 -89 -4 -7 -15 -2 -30 12 l-23 22 -71 -58 c-39 -32
-74 -55 -77 -51 -4 4 8 19 27 34 19 15 50 41 69 58 l34 31 -21 31 c-38 53 -22
58 32 10z m-3838 -33 c18 -14 39 -25 46 -25 16 0 84 -67 76 -75 -2 -3 -13 4
-23 15 -26 29 -60 25 -84 -9 -27 -37 -26 -39 6 -73 36 -38 14 -36 -30 3 l-35
31 26 25 27 24 -32 -22 -33 -23 -30 29 c-16 16 -30 32 -30 37 0 9 70 88 78 88
3 0 20 -11 38 -25z m1374 -3 c0 -5 -33 -21 -72 -37 -103 -39 -289 -135 -383
-197 -94 -61 -301 -259 -390 -373 -165 -211 -282 -471 -336 -747 -18 -91 -23
-149 -23 -297 l-1 -183 70 -64 70 -64 211 0 c240 0 272 4 283 34 5 11 16 21
26 21 10 0 20 6 22 13 3 8 -9 12 -41 12 -32 0 -45 -4 -44 -12 2 -10 -43 -14
-195 -16 l-197 -2 -85 81 c-64 61 -86 90 -91 116 -10 53 14 297 40 413 73 316
221 584 453 819 68 69 123 132 123 140 1 21 117 105 149 107 14 1 59 20 99 43
83 47 246 121 267 121 35 0 10 -19 -62 -49 -105 -44 -273 -139 -273 -155 0
-16 -129 -106 -151 -106 -24 0 -235 -223 -308 -325 -72 -103 -178 -312 -217
-430 -52 -160 -75 -281 -81 -443 l-6 -153 59 -60 c95 -97 94 -96 285 -98 l166
-2 -4 25 c-6 32 -24 36 -165 36 l-118 0 -96 87 -96 87 6 96 c37 511 311 975
741 1256 85 55 272 152 302 157 47 6 15 -19 -74 -59 -319 -144 -604 -418 -764
-735 -103 -206 -165 -436 -170 -629 l-2 -80 83 -78 c46 -42 94 -81 108 -86 13
-4 120 -5 237 -1 205 7 214 8 235 30 l22 23 -31 7 c-17 4 -44 4 -61 0 -16 -4
-30 -3 -30 2 0 5 -17 7 -37 5 -21 -2 -96 -6 -166 -9 l-128 -4 -100 92 -100 92
7 61 c30 293 163 618 330 807 114 129 231 245 294 292 36 26 72 60 81 75 21
37 124 94 174 97 22 1 57 9 78 19 20 9 37 13 37 9 0 -14 -107 -51 -122 -42
-21 11 -158 -66 -158 -90 0 -11 -34 -44 -87 -84 -222 -167 -437 -481 -527
-764 -34 -109 -66 -269 -66 -331 l0 -50 95 -86 95 -86 86 0 85 0 -3 28 c-3 26
-6 27 -69 32 l-67 5 -91 87 c-73 69 -91 92 -91 115 1 40 36 194 66 288 49 151
177 385 199 364 3 -4 -19 -51 -50 -105 -87 -155 -158 -362 -179 -519 l-7 -50
83 -76 c46 -42 92 -80 103 -86 12 -5 105 -8 225 -7 l204 3 19 25 19 26 -76 0
c-61 0 -77 -3 -85 -17 -10 -17 -12 -17 -25 0 -16 21 -64 23 -72 2 -4 -8 -12
-15 -19 -15 -7 0 -15 7 -19 15 -4 11 -21 15 -59 15 -52 0 -54 1 -151 87 l-98
88 5 50 c8 75 63 237 118 350 57 114 74 139 88 131 5 -4 -11 -46 -39 -99 -52
-98 -126 -305 -136 -378 l-6 -44 97 -87 97 -88 193 0 194 0 20 29 21 29 -182
4 c-209 3 -187 -5 -308 112 -74 71 -79 78 -73 109 11 57 54 170 103 267 57
112 73 135 88 126 7 -4 -1 -27 -24 -67 -64 -108 -134 -286 -134 -338 0 -20 21
-45 89 -108 l89 -81 104 -7 c57 -3 139 -5 183 -3 l80 3 53 118 c55 118 136
385 123 400 -4 4 -66 6 -137 5 -125 -3 -129 -4 -132 -25 -4 -30 -20 -30 -24
-1 -4 33 -36 35 -44 4 -7 -29 -24 -25 -24 5 0 47 -36 10 -88 -91 l-55 -105 68
-62 c37 -34 73 -59 80 -57 7 3 15 -6 19 -20 7 -29 33 -35 43 -10 10 26 -11 49
-48 54 -32 5 -34 7 -34 45 l0 40 57 3 c55 3 58 2 64 -23 4 -15 1 -38 -5 -51
-6 -14 -11 -38 -11 -54 l0 -30 64 0 c36 0 68 -4 71 -10 7 -11 -169 -13 -197
-2 -21 9 -184 152 -192 169 -6 14 84 201 108 226 15 15 43 17 221 17 l203 0 6
28 c20 111 37 335 45 621 6 207 12 275 21 281 24 15 209 21 495 18 225 -2 275
-5 255 -15 -23 -11 -21 -12 26 -12 l51 -1 6 -67 c4 -38 7 -125 7 -195 0 -426
70 -835 186 -1091 151 -336 509 -657 799 -718 33 -6 64 -15 68 -19 5 -4 5 -83
1 -175 l-7 -167 -61 7 c-231 24 -463 129 -626 283 -36 34 -68 62 -71 62 -4 0
-45 43 -92 95 -94 106 -149 201 -215 375 -101 267 -135 553 -148 1258 l-7 362
-44 0 -43 0 0 -1225 0 -1225 -167 0 -168 0 3 1217 c1 669 -1 1220 -5 1223 -5
4 -27 5 -50 3 l-41 -5 -2 -326 c-2 -807 -54 -1139 -232 -1485 -36 -70 -63
-103 -192 -233 -157 -158 -261 -236 -388 -293 -65 -29 -199 -66 -278 -76 -84
-11 -92 -15 -85 -33 4 -9 8 -26 10 -37 2 -11 7 -31 10 -45 l7 -25 -20 24 c-32
40 -128 239 -163 339 l-32 94 67 66 66 67 173 5 c129 4 178 9 195 20 12 8 22
18 22 22 0 5 -99 8 -220 8 l-220 0 -76 72 -76 73 5 205 c3 158 9 228 26 305
107 499 413 925 847 1181 93 55 136 75 259 125 72 29 105 36 105 21z m2594
-120 c43 -63 35 -84 -59 -146 -22 -14 -48 -26 -57 -26 -20 0 -80 77 -76 96 4
19 128 114 148 114 9 0 29 -17 44 -38z m-4057 -50 c70 -42 105 -72 86 -72 -6
0 -18 9 -28 20 -25 28 -36 25 -67 -19 -35 -48 -35 -66 -3 -87 14 -9 23 -19 21
-22 -9 -8 -156 116 -156 133 0 11 64 95 70 92 3 -1 37 -21 77 -45z m4118 -78
c-11 -9 -29 -22 -40 -30 -19 -14 -19 -14 2 -57 12 -23 24 -49 27 -57 3 -10 5
-8 5 5 1 22 56 61 65 47 3 -5 -8 -16 -25 -26 -16 -9 -29 -23 -29 -31 0 -7 -21
-25 -46 -39 -53 -29 -54 -30 -54 -16 0 10 48 35 62 32 8 -2 -5 37 -22 66 -25
44 -25 44 -64 21 -20 -12 -39 -20 -41 -17 -7 6 148 116 165 117 11 0 10 -4 -5
-15z m-4285 -47 c0 -7 -7 -23 -16 -35 -19 -27 -21 -25 64 -79 37 -23 62 -43
55 -43 -6 0 -38 17 -70 39 -32 21 -64 36 -71 34 -7 -3 -19 -18 -27 -34 -10
-18 -20 -26 -30 -23 -20 8 -21 8 27 85 39 64 68 87 68 56z m1600 -5 c0 -4 -37
-25 -82 -47 -46 -21 -132 -72 -191 -113 -100 -67 -138 -85 -108 -48 23 27 161
117 256 166 91 48 125 59 125 42z m-6 -71 c3 -4 -7 -14 -21 -20 -15 -7 -74
-39 -131 -72 -109 -63 -160 -76 -79 -20 49 33 207 121 219 121 4 0 9 -4 12 -9z
m2840 -77 c28 -50 32 -64 17 -64 -6 0 -21 19 -35 42 -19 32 -22 45 -13 51 15
11 0 6 -35 -12 -33 -17 -34 -26 -7 -70 13 -22 17 -37 11 -43 -7 -7 -18 4 -34
31 -26 46 -26 46 -61 28 l-26 -13 25 -43 c26 -46 29 -61 15 -61 -10 0 -61 82
-61 98 0 11 148 102 167 102 6 0 23 -21 37 -46z m-4486 -54 c71 -29 126 -60
106 -60 -5 0 -18 6 -29 13 -29 20 -64 27 -72 15 -3 -7 -1 -8 5 -4 17 10 15 1
-8 -44 -26 -51 -26 -52 11 -74 17 -10 29 -20 26 -22 -4 -4 -32 11 -132 71 -22
13 -39 30 -37 37 3 18 46 98 52 98 3 0 38 -13 78 -30z m4524 -92 c-11 -18 -36
-64 -57 -103 -45 -82 -43 -80 -51 -73 -3 3 15 47 40 96 l46 91 -68 -34 c-37
-18 -69 -31 -71 -29 -5 5 -11 1 78 47 95 47 109 48 83 5z m4 -133 c-44 -19
-81 -33 -84 -30 -3 2 6 9 19 14 13 5 44 18 69 30 25 11 52 21 60 21 8 -1 -21
-16 -64 -35z m-3346 -211 c0 -4 -22 -45 -50 -93 -57 -99 -112 -228 -108 -252
2 -9 43 -53 92 -98 l89 -81 91 -1 c94 -1 178 -7 185 -15 2 -2 -63 -4 -145 -4
l-149 0 -99 93 c-95 89 -99 94 -93 125 14 67 109 260 155 315 15 17 32 23 32
11z m208 -180 c2 -19 -3 -38 -12 -47 -9 -9 -13 -23 -10 -31 3 -9 1 -16 -5 -16
-6 0 -11 9 -11 19 0 16 -8 20 -42 23 -43 3 -43 3 -46 46 l-3 43 63 -3 c63 -3
63 -3 66 -34z m-88 -85 c0 -11 -4 -17 -10 -14 -5 3 -10 13 -10 21 0 8 5 14 10
14 6 0 10 -9 10 -21z m-1297 -616 l6 -131 -26 -7 c-24 -6 -25 -9 -19 -47 9
-53 14 -60 36 -53 27 9 23 21 87 -251 4 -16 -1 -23 -17 -27 -20 -5 -22 -10
-15 -44 4 -21 7 -42 8 -47 1 -6 -5 -11 -14 -13 -11 -3 -19 8 -28 37 -10 35
-16 40 -40 40 -27 0 -30 4 -49 78 -48 183 -50 212 -17 212 11 0 15 10 15 36 0
45 -17 77 -36 70 -23 -9 -32 31 -36 165 l-3 124 60 5 c34 3 65 1 71 -5 7 -6
14 -64 17 -142z m1127 33 c-14 -14 -24 0 -16 21 6 15 8 15 16 3 6 -9 5 -19 0
-24z m110 3 c0 -5 -4 -9 -10 -9 -5 0 -10 7 -10 16 0 8 5 12 10 9 6 -3 10 -10
10 -16z m-1059 -769 c27 -63 51 -119 52 -123 2 -7 -14 -20 -41 -34 -5 -2 48
-93 54 -93 2 0 13 6 25 13 17 10 22 9 31 -8 7 -11 40 -62 75 -113 35 -51 63
-98 63 -103 0 -5 -7 -12 -15 -15 -22 -9 -18 -24 13 -63 26 -31 30 -32 50 -20
21 13 28 9 117 -84 52 -54 95 -102 95 -106 0 -5 -7 -14 -15 -21 -14 -12 -13
-16 11 -42 30 -30 45 -34 72 -17 15 9 32 0 103 -52 47 -35 99 -73 115 -85 25
-18 27 -23 16 -37 -17 -20 -10 -33 30 -53 27 -14 31 -14 49 2 18 16 24 14 145
-46 121 -60 126 -63 121 -90 -5 -24 -2 -28 33 -40 37 -12 41 -11 57 9 18 21
19 22 63 6 25 -9 83 -27 130 -39 82 -22 85 -24 88 -54 2 -22 9 -32 20 -32 9 0
27 -3 39 -6 18 -5 25 -1 33 21 9 25 13 27 48 20 36 -7 200 -24 234 -25 11 0
18 -10 20 -27 3 -25 7 -28 43 -28 34 0 40 3 43 22 4 28 13 30 174 37 126 6
127 6 130 -16 2 -19 8 -22 33 -20 47 4 55 10 55 36 0 20 6 26 33 31 17 3 81
18 141 33 66 16 111 23 113 17 12 -34 20 -37 57 -25 20 6 41 21 47 32 8 15 8
19 0 14 -6 -4 -11 0 -11 9 0 8 8 18 18 22 9 3 68 28 131 56 l113 50 17 -21 16
-22 33 20 c29 18 33 24 27 49 -6 27 -2 31 49 60 30 18 82 52 116 76 65 49 78
53 86 30 8 -21 18 -19 54 11 29 25 30 27 14 45 -10 12 -14 23 -8 27 5 4 53 50
107 102 90 87 99 93 119 81 18 -11 24 -10 46 13 24 23 25 27 12 51 -12 23 -11
28 8 53 12 15 50 67 84 115 57 80 65 87 89 82 20 -5 30 -1 43 19 20 31 21 56
1 56 -8 0 -15 4 -15 10 0 5 27 66 61 135 42 87 66 125 77 125 35 -1 102 -39
102 -58 0 -21 -94 -219 -116 -243 -8 -9 -24 -14 -38 -12 -18 4 -28 -3 -44 -29
-21 -32 -21 -33 -2 -52 17 -18 18 -21 2 -45 -40 -63 -155 -211 -163 -211 -6 0
-19 5 -29 10 -16 8 -24 4 -46 -25 -25 -33 -26 -37 -10 -54 15 -17 10 -23 -88
-119 -58 -56 -110 -102 -117 -102 -7 0 -20 6 -28 14 -14 13 -20 11 -50 -16
-24 -22 -30 -33 -22 -41 6 -6 11 -17 11 -23 0 -14 -92 -82 -185 -139 -55 -33
-60 -34 -77 -18 -17 15 -21 15 -54 0 -30 -15 -35 -22 -32 -45 3 -25 -3 -30
-82 -69 -47 -23 -109 -50 -138 -60 -51 -17 -54 -17 -63 0 -20 34 -93 9 -94
-33 0 -23 -8 -27 -125 -57 -149 -38 -170 -40 -177 -13 -10 37 -93 24 -93 -15
0 -27 -24 -33 -192 -42 l-116 -6 -4 24 c-2 20 -9 24 -44 27 -35 3 -42 0 -52
-23 -14 -30 -28 -31 -192 -7 -107 16 -115 19 -120 42 -4 17 -16 27 -39 34 -29
8 -35 7 -51 -14 l-18 -24 -114 31 c-161 45 -168 48 -168 78 0 21 -8 29 -37 41
-33 14 -38 14 -49 0 -18 -26 -44 -19 -165 41 -109 56 -114 59 -112 88 2 25 -4
33 -36 52 -33 19 -40 20 -45 8 -3 -8 -13 -15 -22 -15 -20 0 -139 79 -200 133
-41 36 -44 41 -30 56 14 16 13 20 -18 50 -31 30 -35 31 -61 19 -28 -12 -29
-11 -127 91 -89 95 -97 106 -83 121 20 22 19 30 -14 69 -25 30 -30 32 -51 21
-12 -7 -25 -8 -29 -4 -36 50 -151 228 -151 234 0 5 7 13 17 18 15 9 15 13 -3
56 -17 42 -21 46 -46 40 -25 -5 -29 -1 -57 53 -36 71 -81 182 -81 198 0 13 95
54 118 51 7 0 35 -53 63 -116z m-197 -56 c-18 -9 -21 -12 -7 -8 21 5 19 0 -16
-64 -46 -84 -44 -99 11 -71 22 11 42 18 45 16 5 -6 -116 -67 -133 -67 -11 0
-11 5 -2 25 6 13 15 22 21 18 6 -3 7 -1 3 6 -4 6 6 37 23 68 17 31 29 58 28
60 -2 1 -32 -8 -66 -23 -35 -14 -68 -23 -73 -22 -6 2 23 17 63 32 41 16 83 35
93 42 11 7 24 10 29 7 5 -3 -3 -12 -19 -19z m3426 -40 c0 -28 -97 -137 -113
-127 -6 3 -7 1 -3 -5 8 -14 -119 -123 -219 -189 -45 -29 -75 -55 -75 -65 0
-23 -134 -92 -163 -84 -12 3 -68 -11 -125 -30 -57 -20 -106 -33 -109 -31 -12
13 14 28 101 57 52 17 100 37 106 45 16 19 147 85 170 85 32 0 183 117 300
233 107 106 130 125 130 111z m66 -35 c4 -7 -48 -65 -122 -138 -184 -182 -402
-320 -624 -394 -106 -35 -133 -41 -128 -26 2 7 58 32 124 54 169 60 224 86
349 169 122 82 254 196 330 286 53 62 60 67 71 49z m88 2 c11 -17 -178 -220
-286 -307 -41 -33 -65 -60 -62 -68 7 -18 -133 -108 -157 -101 -9 3 -58 -15
-108 -40 -51 -25 -138 -61 -194 -79 -135 -45 -160 -50 -155 -34 2 6 58 30 124
53 146 50 271 108 304 141 34 34 141 103 161 104 32 0 229 185 319 298 34 43
44 49 54 33z m858 -24 c51 -27 128 -78 128 -84 0 -2 -4 -2 -8 1 -8 5 -38 -62
-34 -76 1 -5 -3 -8 -9 -8 -5 0 -7 -4 -4 -10 8 -14 2 -13 -45 6 -22 9 -40 20
-40 25 0 14 16 11 30 -6 12 -14 15 -14 31 0 9 9 23 30 30 46 10 26 9 33 -4 46
-13 14 -18 14 -36 1 -11 -8 -18 -18 -14 -21 3 -4 0 -7 -7 -7 -7 0 -11 -3 -8
-6 3 -3 -4 -16 -17 -30 -23 -25 -23 -25 -61 -7 -49 22 -49 22 -42 29 4 3 18
-2 32 -11 31 -20 40 -15 67 38 l21 41 -33 28 c-41 34 -34 35 23 5z m-3564 -59
c62 -78 217 -229 297 -290 122 -92 301 -189 459 -247 69 -26 97 -51 56 -51
-26 0 -175 57 -260 100 -100 50 -228 133 -315 203 -77 62 -240 231 -299 310
-27 35 -27 37 -8 37 13 0 38 -23 70 -62z m2765 55 c8 -8 -27 -56 -110 -150
-179 -202 -500 -409 -763 -491 -129 -41 -163 -47 -158 -32 2 7 62 32 133 55
139 45 287 111 388 171 142 86 353 274 448 399 41 55 50 61 62 48z m-3568 -13
c-3 -5 -11 -10 -16 -10 -6 0 -7 5 -4 10 3 6 11 10 16 10 6 0 7 -4 4 -10z m35
-55 c0 -9 -6 -12 -15 -9 -8 4 -15 10 -15 15 0 5 7 9 15 9 8 0 15 -7 15 -15z
m26 -46 c7 -13 13 -29 14 -35 0 -18 -52 -48 -80 -46 -18 1 -21 -1 -11 -7 11
-7 7 -13 -18 -25 -17 -9 -37 -14 -43 -10 -7 4 -8 3 -4 -4 4 -7 1 -12 -8 -12
-17 0 -78 98 -70 112 10 15 24 8 39 -22 18 -35 19 -43 3 -34 -7 4 -9 3 -5 -1
18 -21 68 -22 80 -3 9 13 7 21 -6 36 -19 20 -23 37 -7 27 6 -3 10 -1 10 4 0 6
-7 11 -16 11 -8 0 -12 5 -9 10 3 6 10 10 14 10 11 0 32 -50 26 -60 -8 -13 41
-17 59 -4 16 11 16 15 2 43 -20 37 -20 40 0 37 9 -1 22 -13 30 -27z m3646 -10
c60 37 14 -60 -63 -133 -33 -31 -59 -65 -59 -75 0 -23 -113 -131 -137 -131
-11 0 -38 -16 -60 -35 -75 -64 -236 -166 -364 -230 -193 -96 -443 -171 -641
-191 l-68 -7 0 97 c0 53 0 99 -1 103 0 4 3 9 8 10 4 2 10 -36 11 -85 2 -48 5
-89 7 -91 2 -1 64 7 137 19 224 37 519 148 704 265 100 63 234 168 234 183 0
16 119 131 136 132 6 0 21 11 34 25 20 21 22 29 13 44 -7 12 -8 23 -2 30 6 8
5 8 -3 1 -14 -12 -28 -13 -28 -2 0 4 18 27 40 51 40 43 41 44 61 25 17 -15 23
-16 41 -5z m-3621 -99 l-35 -30 17 -36 c10 -19 15 -39 13 -42 -8 -14 44 -5 61
10 27 22 43 30 43 20 0 -10 -154 -122 -169 -122 -22 0 -10 17 24 33 41 20 44
36 11 74 -24 28 -25 28 -55 10 -16 -9 -32 -13 -35 -9 -3 5 5 14 18 20 14 6 27
20 31 31 3 12 10 21 15 21 5 0 7 -7 4 -15 -4 -8 -1 -15 4 -15 6 0 9 9 7 20 -3
15 3 24 20 32 14 6 25 15 25 20 0 4 8 8 18 8 13 -1 8 -8 -17 -30z m4260 -66
c10 -12 9 -21 -4 -49 -17 -35 -37 -47 -37 -22 0 7 8 23 17 36 16 23 15 25 -11
46 -16 13 -48 32 -72 45 -24 12 -44 25 -44 30 0 11 133 -65 151 -86z m62 70
c4 -4 -4 -21 -16 -38 -12 -17 -21 -32 -19 -33 1 -2 2 -8 2 -15 0 -6 -6 -3 -14
7 -11 16 -11 23 6 52 20 33 29 39 41 27z m-1789 -54 c8 0 17 8 20 17 6 15 9
14 19 -7 11 -23 19 -25 87 -28 86 -3 123 -22 43 -22 -89 0 -110 -8 -127 -49
-11 -29 -16 -33 -21 -18 -9 22 -31 22 -39 1 -4 -9 -9 -14 -13 -11 -12 13 -20
103 -11 127 8 22 10 23 19 8 6 -10 16 -18 23 -18z m-1114 -10 c0 -14 27 -12
34 3 10 25 38 -26 31 -58 -9 -40 -8 -74 0 -108 10 -39 -9 -57 -61 -57 -43 0
-44 0 -44 34 0 19 5 38 10 41 6 3 10 17 10 31 0 13 -4 24 -10 24 -14 0 -13 41
3 73 12 27 27 36 27 17z m914 -21 c6 -5 -145 -9 -392 -9 -247 0 -402 4 -402 9
0 14 69 16 445 13 191 -2 344 -8 349 -13z m1742 -15 c34 -23 49 -52 34 -69 -6
-7 -9 -18 -8 -24 2 -6 -8 -21 -22 -33 -14 -13 -24 -22 -21 -20 2 1 14 -7 27
-19 l22 -20 26 34 c28 37 32 57 14 75 -9 9 -15 9 -27 -1 -14 -10 -14 -10 -3 5
8 9 10 23 6 30 -4 7 9 -3 29 -24 19 -20 38 -34 41 -30 4 3 5 -4 3 -16 -2 -12
-7 -25 -12 -29 -4 -5 -5 -1 -1 7 4 8 1 6 -8 -4 -8 -10 -13 -22 -11 -26 5 -9
-26 -37 -40 -36 -23 2 -165 95 -165 108 0 5 15 -2 33 -16 36 -28 43 -26 75 21
29 41 28 57 -5 82 -33 24 -23 28 13 5z m-3903 -81 c27 -37 28 -43 15 -62 -20
-28 -115 -102 -135 -105 -19 -3 -83 73 -83 98 0 21 130 116 155 113 10 -1 32
-21 48 -44z m2217 27 c8 -5 11 -10 6 -10 -5 0 -70 -3 -145 -6 -171 -7 -641 6
-641 17 0 12 761 11 780 -1z m-107 -57 c202 -13 84 -23 -278 -23 -224 0 -375
4 -375 9 0 5 8 12 18 14 27 7 527 8 635 0z m1722 -85 c41 -35 75 -65 75 -69 0
-9 -72 -99 -80 -99 -3 0 -17 11 -30 25 -13 14 -31 25 -39 25 -9 0 -33 14 -54
31 -36 30 -47 49 -27 49 6 0 10 -7 10 -16 0 -8 4 -13 9 -10 5 4 18 -6 30 -21
18 -25 22 -27 41 -15 12 8 19 9 16 4 -3 -5 3 -17 13 -26 17 -16 20 -14 56 26
l38 42 -31 10 c-18 6 -31 15 -31 19 0 5 -3 12 -7 15 -4 4 -4 2 0 -5 8 -14 -50
-83 -70 -83 -21 0 -17 12 16 43 37 35 38 61 5 83 -22 15 -34 34 -20 34 3 0 39
-28 80 -62z m-1682 14 c83 -2 137 -7 137 -13 0 -7 -138 -10 -400 -8 -220 1
-400 5 -400 9 0 3 3 10 7 14 7 6 358 5 656 -2z m-2053 -26 c0 -2 -29 -32 -65
-66 l-64 -63 20 -25 c13 -17 16 -29 10 -35 -12 -12 -38 8 -83 66 -24 30 -28
41 -19 50 10 9 14 8 22 -5 6 -10 17 -18 24 -18 19 0 19 -10 1 -24 -11 -9 -7
-17 23 -41 l36 -29 -29 32 -29 31 68 66 c60 57 85 75 85 61z m2014 -42 c25 -4
46 -11 46 -16 0 -5 -159 -8 -385 -7 -344 1 -415 5 -372 22 18 8 656 8 711 1z
m1581 -115 c39 -40 60 -65 48 -57 -25 16 -133 117 -133 124 0 14 24 -4 85 -67z
m-1477 45 c13 -2 20 -9 17 -14 -7 -11 -540 -14 -709 -3 -99 6 -127 16 -66 25
36 5 731 -2 758 -8z m-1968 -55 c0 -14 -131 -151 -138 -144 -4 4 125 151 136
154 1 1 2 -4 2 -10z m40 -94 l-22 -36 33 -30 c18 -16 37 -29 43 -29 5 0 22 15
37 33 51 59 30 9 -23 -55 -28 -35 -52 -64 -53 -66 -11 -15 -49 -5 -79 20 -41
34 -44 47 -16 73 11 10 20 26 20 37 0 18 69 102 78 94 2 -3 -6 -21 -18 -41z
m3315 -87 c43 34 51 11 10 -33 -19 -22 -35 -34 -35 -28 0 6 5 13 10 15 6 2 2
8 -8 14 -16 11 -18 9 -14 -15 2 -17 -3 -33 -16 -44 -29 -26 -38 -3 -13 29 l21
26 -48 57 c-26 31 -50 58 -54 59 -5 2 -8 10 -8 18 0 8 29 -16 63 -53 l64 -67
28 22z m-156 -32 c28 -35 51 -70 51 -78 0 -7 -23 -31 -52 -52 -39 -30 -55 -36
-67 -29 -9 6 -16 14 -16 19 0 5 -19 34 -43 65 -23 31 -42 61 -42 66 0 18 73
72 97 73 14 0 37 -20 72 -64z m-3008 6 c-28 -39 -27 -43 13 -70 18 -13 33 -31
32 -40 -1 -11 6 -16 17 -16 12 1 4 -11 -25 -41 -47 -47 -49 -47 -106 2 l-34
28 34 55 c42 70 80 121 86 115 2 -2 -5 -17 -17 -33z m2854 -121 c41 -60 54
-86 46 -94 -8 -8 -11 -7 -11 5 0 8 -10 26 -23 40 -13 14 -21 31 -19 39 2 8 -2
6 -8 -4 -6 -9 -29 -26 -51 -38 -34 -17 -43 -18 -57 -7 -15 12 -16 11 -3 -5 8
-10 20 -16 27 -13 7 3 20 -6 28 -19 30 -45 16 -47 -27 -3 -50 50 -80 95 -74
111 2 6 12 -3 22 -21 11 -18 25 -32 33 -32 16 0 51 18 74 37 16 14 16 17 -7
48 -14 17 -22 35 -18 38 3 4 7 6 9 5 1 -2 27 -41 59 -87z m-2725 70 c0 -5 -13
-23 -29 -40 -29 -31 -51 -40 -51 -21 0 6 7 10 15 10 8 0 24 14 37 30 23 32 28
35 28 21z m66 -135 c-20 -37 -42 -66 -49 -66 -13 -1 33 -45 55 -53 10 -3 10
-7 1 -17 -9 -9 -21 -6 -57 15 -25 15 -44 31 -41 35 3 5 0 12 -6 16 -8 4 -9 3
-5 -4 10 -16 -5 -14 -28 3 -31 24 -5 42 28 20 14 -10 32 -15 40 -12 7 3 30 35
51 72 20 37 39 64 42 61 3 -3 -11 -34 -31 -70z m2473 4 c25 -47 20 -63 -25
-90 -65 -37 -78 -15 -15 25 37 23 39 26 28 50 -15 31 -18 31 -73 -1 -35 -21
-44 -23 -44 -11 0 16 74 67 96 67 7 0 21 -18 33 -40z m-2344 -20 c-8 -16 -15
-36 -15 -44 0 -8 -5 -16 -12 -18 -7 -3 -5 -7 6 -11 10 -4 15 -3 11 3 -9 14 1
12 43 -9 45 -22 58 -19 78 21 8 16 18 27 21 24 6 -5 -44 -96 -53 -96 -3 0 -2
5 2 12 4 7 3 8 -5 4 -6 -4 -9 -12 -5 -17 7 -11 -33 -79 -47 -79 -5 0 -32 11
-59 25 l-50 25 21 48 c56 125 65 142 72 142 4 0 1 -13 -8 -30z m2206 -85 c31
-59 52 -115 43 -115 -3 0 -41 20 -85 45 -44 25 -91 50 -104 55 -25 10 -34 30
-14 30 6 0 45 -18 86 -41 41 -23 77 -38 81 -35 3 4 -6 31 -21 62 -45 91 -35
91 14 -1z m189 15 c11 -21 20 -41 20 -44 0 -5 -104 -66 -114 -66 -3 0 -6 6 -6
13 0 6 21 25 46 40 35 21 44 32 39 45 -26 61 -15 70 15 12z m-308 -86 c24 -55
41 -112 30 -98 -8 9 -62 131 -62 140 0 16 14 -3 32 -42z"/>
<path d="M4465 4440 c21 -22 41 -40 44 -40 3 0 -13 18 -34 40 -21 22 -41 40
-44 40 -3 0 13 -18 34 -40z"/>
<path d="M4550 4346 c0 -2 8 -10 18 -17 15 -13 16 -12 3 4 -13 16 -21 21 -21
13z"/>
<path d="M1565 4970 c-3 -5 -1 -10 4 -10 6 0 11 5 11 10 0 6 -2 10 -4 10 -3 0
-8 -4 -11 -10z"/>
<path d="M1499 4923 c-13 -16 -12 -17 4 -4 9 7 17 15 17 17 0 8 -8 3 -21 -13z"/>
<path d="M2670 1025 c0 -11 11 -15 40 -15 29 0 40 4 40 15 0 11 -11 15 -40 15
-29 0 -40 -4 -40 -15z"/>
<path d="M2692 913 c-35 -7 -20 -28 22 -31 32 -3 37 0 34 15 -3 19 -19 23 -56
16z"/>
<path d="M1339 4929 l-24 -20 28 17 c15 9 27 18 27 20 0 8 -8 4 -31 -17z"/>
<path d="M2633 4783 c-7 -2 -13 -16 -13 -29 0 -23 3 -25 37 -22 28 2 39 8 41
22 6 28 -29 44 -65 29z"/>
<path d="M2627 4703 c-4 -3 -7 -15 -7 -25 0 -14 8 -18 38 -19 20 -1 44 0 52 1
24 3 31 24 13 38 -18 13 -85 17 -96 5z"/>
<path d="M2756 4684 c-9 -23 -8 -24 19 -24 18 0 25 5 25 20 0 24 -35 28 -44 4z"/>
<path d="M2627 4623 c-19 -19 -5 -33 33 -33 33 0 40 3 40 20 0 16 -7 20 -33
20 -19 0 -37 -3 -40 -7z"/>
<path d="M1540 1566 c0 -10 136 -134 206 -187 139 -107 358 -221 545 -283 112
-38 153 -44 147 -24 -5 13 -16 18 -158 63 -202 64 -449 208 -620 359 -47 41
-93 75 -102 76 -10 0 -18 -2 -18 -4z"/>
<path d="M4810 4538 c-10 -18 -10 -21 0 -11 7 6 20 9 29 6 9 -3 12 -1 6 4 -5
4 -13 12 -17 16 -3 5 -12 -2 -18 -15z"/>
<path d="M915 4533 c-31 -33 -53 -69 -36 -59 6 4 11 3 11 -3 0 -6 10 -16 22
-22 19 -10 25 -8 50 20 23 26 27 35 17 47 -17 20 -29 18 -61 -13 -15 -15 -28
-22 -28 -16 0 7 10 20 23 30 24 18 42 43 33 43 -3 0 -17 -12 -31 -27z"/>
<path d="M992 4489 c-7 -11 -11 -23 -9 -25 7 -7 29 24 25 36 -2 6 -9 1 -16
-11z"/>
<path d="M1020 4506 c0 -2 7 -7 16 -10 8 -3 12 -2 9 4 -6 10 -25 14 -25 6z"/>
<path d="M2680 3260 l0 -1180 120 0 120 0 0 1180 0 1180 -120 0 -120 0 0
-1180z"/>
<path d="M2420 4275 c0 -191 -27 -563 -50 -700 -99 -581 -459 -1053 -910
-1195 l-85 -27 0 -129 0 -129 44 4 c64 4 178 35 264 71 196 81 438 296 575
509 49 77 147 339 172 459 39 193 60 511 60 915 l0 367 -35 0 -35 0 0 -145z"/>
<path d="M3113 4018 c8 -522 31 -793 86 -978 30 -105 98 -278 132 -337 71
-125 278 -344 405 -430 127 -86 286 -153 400 -168 27 -3 59 -8 72 -11 22 -4
22 -4 22 128 l0 133 -65 17 c-308 81 -621 375 -787 738 -129 284 -174 526
-184 995 -7 323 -5 315 -51 315 l-36 0 6 -402z"/>
<path d="M1982 2838 c-14 -14 -16 -38 -3 -38 5 0 16 11 25 25 13 19 13 25 3
25 -7 0 -18 -5 -25 -12z"/>
<path d="M3380 2556 c0 -2 8 -10 18 -17 15 -13 16 -12 3 4 -13 16 -21 21 -21
13z"/>
<path d="M1270 2435 l-54 -55 12 -47 c17 -63 70 -195 84 -208 7 -7 9 30 5 127
l-6 137 37 6 c86 15 252 73 252 89 0 4 -62 6 -138 6 l-138 0 -54 -55z"/>
<path d="M4905 4439 c4 -6 0 -9 -10 -7 -9 2 -40 -15 -70 -37 -53 -39 -76 -67
-52 -62 7 1 12 -7 12 -18 0 -11 3 -18 6 -15 4 3 16 -4 28 -14 24 -22 40 -17
98 32 31 26 49 76 28 77 -16 1 -35 15 -35 27 0 6 7 5 18 -3 14 -11 13 -10 -2
9 -20 23 -32 30 -21 11z"/>
<path d="M784 4373 c-31 -42 -36 -53 -26 -53 4 0 20 18 35 40 29 45 22 55 -9
13z"/>
<path d="M805 4355 c-15 -19 -25 -42 -23 -52 6 -32 34 -25 63 16 23 34 25 43
15 56 -18 22 -26 19 -55 -20z"/>
<path d="M880 4352 c0 -4 -16 -27 -35 -49 -20 -23 -32 -44 -28 -46 12 -7 84
91 73 98 -6 3 -10 2 -10 -3z"/>
<path d="M694 4238 c-4 -7 -14 -23 -22 -35 -8 -13 -10 -23 -5 -23 5 0 17 16
26 35 16 33 16 49 1 23z"/>
<path d="M637 4144 c-10 -13 -14 -24 -10 -24 9 0 36 40 31 45 -2 2 -11 -8 -21
-21z"/>
<path d="M575 4031 c-8 -17 -12 -31 -7 -31 10 0 35 50 28 57 -2 3 -12 -9 -21
-26z"/>
<path d="M595 4010 c-30 -48 -31 -56 -6 -69 21 -12 29 -6 55 46 20 40 20 40
-4 53 -17 9 -23 5 -45 -30z"/>
<path d="M550 3975 c0 -8 2 -15 4 -15 2 0 6 7 10 15 3 8 1 15 -4 15 -6 0 -10
-7 -10 -15z"/>
<path d="M642 3958 c-11 -18 -18 -37 -14 -42 3 -6 8 -4 10 4 3 8 11 27 19 43
19 37 10 34 -15 -5z"/>
<path d="M4639 1493 c-13 -16 -12 -17 4 -4 16 13 21 21 13 21 -2 0 -10 -8 -17
-17z"/>
<path d="M4359 1193 c-13 -16 -12 -17 4 -4 9 7 17 15 17 17 0 8 -8 3 -21 -13z"/>
<path d="M4199 1063 c-13 -16 -12 -17 4 -4 16 13 21 21 13 21 -2 0 -10 -8 -17
-17z"/>
<path d="M5120 1794 c0 -8 5 -12 10 -9 6 4 8 11 5 16 -9 14 -15 11 -15 -7z"/>
<path d="M585 1660 c3 -5 8 -10 11 -10 2 0 4 5 4 10 0 6 -5 10 -11 10 -5 0 -7
-4 -4 -10z"/>
<path d="M4235 1478 l-40 -43 43 40 c39 36 47 45 39 45 -2 0 -21 -19 -42 -42z"/>
<path d="M780 1530 c6 -11 13 -20 16 -20 2 0 0 9 -6 20 -6 11 -13 20 -16 20
-2 0 0 -9 6 -20z"/>
<path d="M2232 1439 c1 -13 8 -23 13 -21 15 3 12 35 -3 40 -9 3 -13 -3 -10
-19z"/>
<path d="M898 1453 c-5 -13 -86 -73 -97 -73 -6 0 -3 -9 7 -19 9 -10 27 -31 39
-45 12 -14 25 -26 30 -26 5 0 31 20 58 44 l50 43 -28 42 c-25 38 -50 52 -59
34z"/>
<path d="M885 1210 c3 -5 11 -10 16 -10 6 0 7 5 4 10 -3 6 -11 10 -16 10 -6 0
-7 -4 -4 -10z"/>
<path d="M1230 1008 c0 -9 17 -28 38 -43 l37 -28 -35 39 c-19 21 -36 41 -37
43 -2 2 -3 -3 -3 -11z"/>
<path d="M1210 955 c-11 -13 -8 -21 15 -45 36 -38 21 -39 -19 -2 l-31 27 29
-33 c31 -34 55 -35 86 -6 12 12 10 18 -15 44 -32 34 -47 37 -65 15z"/>
<path d="M4317 943 c-20 -14 -37 -29 -37 -32 0 -3 20 -32 45 -64 49 -62 54
-63 104 -16 19 18 25 19 32 8 5 -9 9 -10 9 -2 0 12 -75 112 -94 125 -16 11
-18 10 -59 -19z"/>
<path d="M1410 850 c19 -16 30 -30 23 -30 -6 0 -15 4 -18 10 -3 5 -14 14 -25
20 -15 8 -22 4 -37 -23 l-20 -32 43 -33 c24 -18 41 -26 38 -19 -3 8 6 18 21
25 26 12 32 26 15 37 -6 4 -7 11 -4 17 7 10 -43 57 -61 57 -5 0 6 -13 25 -29z
m-4 -88 c-6 -6 -56 29 -56 39 0 5 13 0 30 -12 16 -13 28 -24 26 -27z"/>
<path d="M1550 649 c26 -17 70 -40 70 -35 0 5 -69 46 -78 46 -4 0 0 -5 8 -11z"/>
<path d="M1764 635 c11 -8 26 -15 33 -15 22 0 14 8 -19 19 -30 10 -31 9 -14
-4z"/>
<path d="M1696 624 c-8 -21 7 -38 44 -54 61 -25 83 16 28 50 -40 24 -64 25
-72 4z"/>
<path d="M1680 581 c0 -8 70 -44 76 -39 1 2 -15 13 -37 25 -21 12 -39 18 -39
14z"/>
<path d="M3971 564 c0 -11 3 -14 6 -6 3 7 2 16 -1 19 -3 4 -6 -2 -5 -13z"/>
<path d="M4560 4926 c0 -2 8 -10 18 -17 15 -13 16 -12 3 4 -13 16 -21 21 -21
13z"/>
<path d="M4630 4866 c0 -2 8 -10 18 -17 15 -13 16 -12 3 4 -13 16 -21 21 -21
13z"/>
<path d="M4750 4755 c19 -19 36 -35 39 -35 3 0 -10 16 -29 35 -19 19 -36 35
-39 35 -3 0 10 -16 29 -35z"/>
<path d="M3110 4643 c0 -15 15 -21 98 -36 114 -21 326 -90 433 -140 189 -91
351 -209 509 -374 134 -139 224 -265 305 -428 93 -188 167 -433 177 -587 2
-25 6 -44 9 -43 3 2 30 -20 59 -50 l54 -55 176 0 c117 0 180 4 187 11 14 14
214 12 228 -2 5 -5 27 -9 50 -9 22 0 57 -8 77 -19 21 -10 40 -16 43 -13 15 15
0 33 -52 61 l-57 31 -306 0 -306 0 -63 64 -63 64 -28 125 c-16 69 -43 167 -60
219 -54 161 -201 434 -239 445 -21 6 -91 96 -96 125 -10 50 -258 272 -411 366
-204 127 -484 234 -669 257 -50 7 -55 5 -55 -12z"/>
<path d="M4960 4516 c0 -2 8 -10 18 -17 15 -13 16 -12 3 4 -13 16 -21 21 -21
13z"/>
<path d="M4240 4246 c0 -2 8 -10 18 -17 15 -13 16 -12 3 4 -13 16 -21 21 -21
13z"/>
<path d="M4300 4185 c13 -14 26 -25 28 -25 3 0 -5 11 -18 25 -13 14 -26 25
-28 25 -3 0 5 -11 18 -25z"/>
<path d="M4389 3937 c5 -19 29 -68 54 -109 99 -158 194 -400 232 -588 19 -97
37 -131 100 -189 l45 -41 299 0 c303 0 331 -3 374 -38 15 -14 17 -13 17 11 0
23 -9 31 -60 57 l-61 31 -261 -1 -261 -1 -74 73 c-59 58 -76 82 -87 123 -8 27
-26 93 -41 145 -14 52 -47 144 -72 203 -45 108 -157 305 -193 341 -18 19 -18
18 -11 -17z"/>
<path d="M3925 3920 c10 -11 20 -20 23 -20 3 0 -3 9 -13 20 -10 11 -20 20 -23
20 -3 0 3 -9 13 -20z"/>
<path d="M4330 3800 c6 -11 13 -20 16 -20 2 0 0 9 -6 20 -6 11 -13 20 -16 20
-2 0 0 -9 6 -20z"/>
<path d="M4376 3704 c-3 -8 8 -42 24 -74 80 -158 139 -358 165 -558 l15 -117
47 -47 47 -48 379 0 c371 0 380 0 418 -22 21 -12 42 -18 46 -14 13 13 -13 40
-63 68 -50 28 -93 35 -109 19 -15 -14 -214 -16 -228 -2 -7 7 -74 11 -203 11
l-192 0 -60 59 c-57 58 -59 62 -66 126 -16 152 -110 449 -181 571 -29 49 -30
50 -39 28z"/>
<path d="M4320 3547 c0 -4 7 -22 16 -39 13 -24 14 -36 6 -49 -9 -14 -7 -28 8
-62 50 -113 94 -372 88 -519 -1 -47 0 -85 3 -83 3 2 25 -16 49 -40 l44 -45
443 0 c424 0 446 -1 483 -20 48 -25 50 -25 50 -1 0 39 -146 102 -165 71 -4 -6
-53 -10 -115 -10 -62 0 -111 4 -115 10 -4 6 -105 10 -271 10 l-265 0 -48 45
-48 45 -7 108 c-9 133 -37 275 -82 412 -31 94 -72 188 -74 167z"/>
<path d="M4965 2600 c-3 -11 -3 -24 0 -30 4 -6 87 -10 221 -10 221 0 246 -4
294 -45 13 -12 15 -9 17 19 3 30 -1 34 -52 59 -58 28 -85 33 -100 18 -15 -15
-213 -17 -227 -3 -7 7 -41 12 -79 12 -59 0 -68 -3 -74 -20z"/>
<path d="M4964 2525 c-13 -32 7 -35 216 -35 202 0 209 -1 251 -24 46 -27 59
-26 59 4 0 11 -17 28 -46 44 -46 26 -49 26 -261 26 -177 0 -215 -2 -219 -15z"/>
<path d="M4970 2455 c-7 -8 -10 -22 -6 -30 4 -13 37 -15 213 -15 202 0 209 -1
251 -25 23 -13 42 -20 42 -15 0 4 3 15 6 23 3 10 -12 25 -46 46 l-50 31 -199
0 c-164 0 -201 -3 -211 -15z"/>
<path d="M4968 2383 c-6 -7 -8 -20 -4 -28 4 -13 36 -15 203 -15 192 0 199 -1
242 -25 23 -14 45 -25 47 -25 2 0 4 11 4 24 0 18 -11 31 -43 49 -42 25 -50 26
-241 29 -148 2 -200 0 -208 -9z"/>
<path d="M4034 1478 l-19 -23 23 19 c21 18 27 26 19 26 -2 0 -12 -10 -23 -22z"/>
<path d="M4929 1153 c-13 -16 -12 -17 4 -4 9 7 17 15 17 17 0 8 -8 3 -21 -13z"/>
<path d="M4869 1083 c-13 -16 -12 -17 4 -4 9 7 17 15 17 17 0 8 -8 3 -21 -13z"/>
<path d="M4649 863 c-13 -16 -12 -17 4 -4 16 13 21 21 13 21 -2 0 -10 -8 -17
-17z"/>
<path d="M4584 808 l-19 -23 23 19 c21 18 27 26 19 26 -2 0 -12 -10 -23 -22z"/>
<path d="M4519 753 c-13 -16 -12 -17 4 -4 9 7 17 15 17 17 0 8 -8 3 -21 -13z"/>
</g>
</svg>
