<svg height="250" viewBox="0 0 250 250" width="250" xmlns="http://www.w3.org/2000/svg" xmlns:xlink="http://www.w3.org/1999/xlink"><linearGradient id="a" gradientUnits="userSpaceOnUse" x1="11.3315452486" x2="209.5616464073" y1="224.16341858208" y2="93.53578633751"><stop offset="0" stop-color="#7754ab"/><stop offset="1" stop-color="#fe6c77"/></linearGradient><path d="m249.980469 189.816406c-.25-7.96875-2.332031-15.472656-5.84375-22.109375-.019531-.039062-.039063-.054687-.058594-.09375l-.828125-1.488281c0-.019531-.019531-.019531-.019531-.035156 0-.019532-.019531-.039063-.019531-.039063 0-.019531-.019532-.019531-.019532-.039062l-2.046875-3.703125-.636719-1.160156-3.105468-5.613282-1.621094-2.910156-4.722656-8.527344-3.105469-5.613281-2.703125-4.863281-1.582031-2.871094s0 0 0-.019531c0 0-.019531-.019531-.019531-.019531-.460938-.773438-.945313-1.523438-1.445313-2.277344-1.332031-1.96875-2.777344-3.839844-4.359375-5.613282-2.835938-3.164062-6.058594-6-9.605469-8.371093-1.660156-1.121094-3.394531-2.140625-5.191406-3.066407-3.742187-1.929687-7.773437-3.398437-11.976563-4.34375-2.277343-.519531-4.613281-.886718-7.003906-1.078124-1.425781-.117188-2.855468-.175782-4.300781-.175782h-84.296875l-1.3125 2.355469-1.796875 3.261719-6.324219 11.4375-3.105468 5.613281h35.859374l-3.492187 6.308594-2.0625 3.722656h-35.882813l-3.105468 5.613281-.925782 1.679688-2.71875 4.917968-2.679687 4.839844-2.855469 5.152344c.328125.152344.636719.289062.945313.441406h34.683593l-4.128906 7.464844-3.394531 6.136719-8.101563 14.640625-8.644531 15.585937c-.230469.445313-.480469.886719-.730469 1.332031-4.957031 8.410157-14.121093 14.042969-24.613281 14.023438-4.035156 0-7.851562-.828125-11.324219-2.351562-1.738281-.753907-3.375-1.660157-4.902343-2.722657-7.464844-5.148437-12.34375-13.734375-12.324219-23.476562.019531-4.878907 1.253906-9.488281 3.453125-13.519531.058594-.097657.097656-.175782.152344-.273438l9.046875-16.355469.253906-.464843 3.105469-5.613282 4.761719-8.621094 1.5625-2.816406 1.796874-3.222656 1.308594-2.390625 5.558594-10.050781 3.105469-5.613282 6.328125-11.4375 3.105468-5.597656 13.40625-24.148437.039063-.058594 3.160156-5.730469.175781-.308594 6.367188-11.496093 1.886719-3.394531 1.3125-2.371094 7.503906-13.542969s0-.019531.019531-.019531c.078125-.15625.175782-.328125.269532-.484375.039062-.054688.078124-.132813.117187-.191407 4.917969-8.566406 14.179687-14.3125 24.769531-14.292968 3.992188.019531 7.773438.828125 11.226563 2.3125 1.734375.734375 3.375 1.660156 4.898437 2.722656 3.703125 2.546875 6.769532 5.960938 8.933594 9.914062l7.519531 13.582032 1.410157 2.542968 1.792968 3.222657 6.210938 11.226562.328125.578125 3.050781 5.5.152344.269532 7.5625 13.65625 3.007812 5.441406c2.277344.058594 4.515625.25 6.714844.558594 5.378906.769531 10.511719 2.316406 15.277344 4.511718h.289062l.097656.175782c3.238282 1.523437 6.324219 3.335937 9.199219 5.421874h.210938l-3.105469-5.597656-2.121094-3.835937-24.226562-43.671875-3.203125-5.789063-6.539063-11.785156-3.203125-5.789063-.019531.039063c-.210938-.441406-.441406-.867187-.675781-1.292969-.09375-.171875-.191407-.367187-.289063-.539062-3.894531-6.945313-9.394531-12.867188-15.992187-17.304688-.460938-.308594-.925781-.617187-1.40625-.90625-1.582031-.984375-3.222657-1.890625-4.898438-2.699218-3.414062-1.640626-7.0625-2.933594-10.863281-3.78125-2.273438-.519532-4.609375-.867188-7-1.082032-1.484375-.113281-2.972656-.191406-4.476562-.171875-1.464844 0-2.914063.058594-4.339844.191407-2.390625.214843-4.726563.582031-7.023438 1.101562-6.25 1.425781-12.054687 3.992188-17.1875 7.464844-7.117187 4.804687-12.960937 11.34375-16.914062 19.039062l-.019532-.058594-3.203124 5.789063-6.539063 11.804687-3.183594 5.769532-26.3125 47.507812-3.105469 5.597656-6.328124 11.4375-3.105469 5.613282-5.554688 10.050781-3.125 5.613281-6.328125 11.4375-3.105468 5.613282-3.105469 5.632812c-.113281.195312-.210938.386719-.328125.578125-3.683594 6.734375-5.882813 14.429687-6.1328128 22.589844-.0195312.597656-.0195312 1.214843-.0195312 1.8125.0195312 5.847656 1.023438 11.480469 2.855469 16.707031.789062 2.257812 1.714843 4.4375 2.796875 6.519531 4.203125 8.199219 10.550781 15.105469 18.285156 19.984375 1.582031 1.003906 3.203125 1.910156 4.902344 2.71875 6.730468 3.28125 14.273437 5.113282 22.257812 5.152344 1.507813 0 2.992188-.058594 4.457032-.175781 2.394531-.191407 4.707031-.558594 6.984374-1.058594 6.230469-1.390625 12.015626-3.917969 17.148438-7.371094 6.386719-4.28125 11.746094-9.992187 15.644531-16.664062.019531-.039063.039063-.078125.058594-.117188.019531-.019531.019531-.039062.039063-.058593l.90625-1.617188c0-.019531.019531-.019531.019531-.039062l23.839843-43.09375 4.03125-7.292969.8125-1.449219 20.988282 37.867188 5.4375 9.839843c.136718.078125.269531.152344.40625.210938.617187 1.464843 1.3125 2.875 2.0625 4.265625.117187.210937.234375.421875.367187.632812 3.898438 6.90625 9.375 12.828125 15.953125 17.246094 5.132813 3.453125 10.9375 6 17.167969 7.410156 2.277344.519532 4.609375.886719 7.003906 1.078125 1.484375.136719 2.96875.195313 4.492188.195313 19.832031-.019532 36.980469-11.304688 45.449219-27.800782 1.082031-2.082031 2.007812-4.261718 2.796874-6.519531 1.832032-5.246093 2.816407-10.878906 2.835938-16.742187 0-.597656 0-1.195313-.019531-1.773438zm-51.0625 30.324219c-10.839844.015625-20.273438-6-25.09375-14.894531l-1.96875-3.566406-6.90625-12.445313-1.273438-2.3125-6.847656-12.386719-3.355469-6.054687-4.070312-7.351563-9.894532-17.859375c-.945312-1.699219-.945312-3.78125 0-5.480469l3.238282-5.863281c1.195312-2.140625 3.453125-3.472656 5.902344-3.472656h32.5625c9.433593 0 18.132812 5.132813 22.703124 13.386719l1.253907 2.257812.773437 1.386719.714844 1.273437 4.859375 8.777344 2.21875 4.011719.886719 1.582031.15625.273438 7.078125 12.769531 2.121093 3.835937c2.199219 4.03125 3.472657 8.664063 3.492188 13.5625.097656 15.777344-12.789062 28.53125-28.550781 28.570313zm0 0" fill="url(#a)"/></svg>