<svg height="250" viewBox="0 0 250 250" width="250" xmlns="http://www.w3.org/2000/svg" xmlns:xlink="http://www.w3.org/1999/xlink"><linearGradient id="a" gradientUnits="userSpaceOnUse" x1="210.75" x2="51.5" y1="33.75" y2="221.5"><stop offset="0" stop-color="#b6509e"/><stop offset="1" stop-color="#2ebac6"/></linearGradient><path d="m250 125c0 69.035156-55.964844 125-125 125s-125-55.964844-125-125 55.964844-125 125-125 125 55.964844 125 125zm0 0" fill="#fff"/><path d="m125 250c-8.460938.003906-16.902344-.847656-25.195312-2.539062-15.988282-3.273438-31.175782-9.667969-44.699219-18.808594-20.09375-13.566406-35.828125-32.671875-45.285157-54.996094-3.195312-7.5625-5.632812-15.417969-7.28125-23.460938-3.386718-16.625-3.386718-33.761718 0-50.382812 3.273438-15.988281 9.664063-31.179688 18.808594-44.699219 13.566406-20.097656 32.671875-35.828125 54.996094-45.289062 7.5625-3.199219 15.417969-5.636719 23.460938-7.285157 16.625-3.386718 33.761718-3.386718 50.382812 0 15.988281 3.273438 31.179688 9.664063 44.699219 18.808594 20.097656 13.566406 35.828125 32.671875 45.289062 54.996094 3.195313 7.5625 5.636719 15.417969 7.285157 23.460938 3.386718 16.625 3.386718 33.761718 0 50.382812-3.273438 15.992188-9.664063 31.179688-18.808594 44.699219-13.566406 20.09375-32.671875 35.828125-54.996094 45.285156-7.5625 3.199219-15.417969 5.640625-23.460938 7.289063-8.292968 1.691406-16.734374 2.542968-25.195312 2.539062zm0-236.609375c-7.554688 0-15.089844.757813-22.492188 2.269531-14.277343 2.921875-27.839843 8.628906-39.910156 16.792969-17.941406 12.113281-31.984375 29.171875-40.429687 49.105469-2.855469 6.75-5.03125 13.769531-6.503907 20.949218-3.023437 14.839844-3.023437 30.140626 0 44.984376 2.925782 14.277343 8.632813 27.835937 16.796876 39.90625 12.113281 17.945312 29.171874 31.992187 49.105468 40.4375 6.75 2.855468 13.769532 5.03125 20.949219 6.503906 14.84375 3.023437 30.144531 3.023437 44.984375 0 14.277344-2.925782 27.839844-8.632813 39.910156-16.796875 17.9375-12.113281 31.976563-29.171875 40.421875-49.101563 2.855469-6.75 5.03125-13.769531 6.503907-20.949218 3.023437-14.84375 3.023437-30.144532 0-44.984376-2.925782-14.277343-8.632813-27.835937-16.796876-39.90625-12.113281-17.941406-29.167968-31.988281-49.097656-40.433593-6.75-2.855469-13.769531-5.03125-20.949218-6.503907-7.402344-1.511718-14.9375-2.273437-22.492188-2.273437zm0 0" fill="url(#a)"/><path d="m125 220.980469c-52.789062 0-95.980469-43.191407-95.980469-95.980469s43.191407-95.980469 95.980469-95.980469 95.980469 43.191407 95.980469 95.980469-43.191407 95.980469-95.980469 95.980469zm0 0" fill="#002868"/><path d="m173.375 182.585938h-96.75c-5.082031-.011719-9.199219-4.128907-9.214844-9.210938v-96.75c.015625-5.082031 4.132813-9.199219 9.214844-9.214844h96.75c5.082031.015625 9.199219 4.132813 9.210938 9.214844v96.75c-.011719 5.082031-4.128907 9.199219-9.210938 9.210938zm0 0" fill="#fff"/><g fill="#002868"><path d="m89.882812 170.992188c-.308593-.011719-.550781-.269532-.546874-.578126v-15.476562c.003906-.308594-.238282-.5625-.550782-.578125h-5.460937c-.308594.003906-.566407-.238281-.582031-.550781v-2.992188c.011718-.3125.265624-.566406.582031-.578125h16.816406c.316406.011719.570313.265625.578125.578125v2.996094c-.011719.308594-.269531.550781-.578125.550781h-5.433594c-.316406.007813-.570312.261719-.582031.578125v15.472656c.003906.308594-.238281.566407-.546875.582032zm0 0"/><path d="m117.5 150.820312c0-.308593.242188-.566406.550781-.582031h3.664063c.3125.011719.566406.265625.578125.582031v10.558594c0 6.257813-3.539063 9.890625-9.15625 9.890625-5.585938 0-9.09375-3.632812-9.09375-9.890625v-10.558594c-.003907-.308593.238281-.566406.546875-.582031h3.664062c.316406.011719.570313.265625.578125.582031v10.707032c0 3.082031 1.585938 5.28125 4.335938 5.28125s4.335937-2.199219 4.335937-5.28125v-10.707032zm0 0"/><path d="m139.117188 157.019531c-.371094.035157-.71875-.195312-.824219-.550781-.734375-1.617188-2.410157-2.597656-4.183594-2.441406-1.921875 0-3.539063.671875-3.539063 1.953125 0 1.40625 1.496094 1.988281 4.792969 2.382812 5.003907.578125 7.871094 2.105469 7.871094 6.074219 0 4.457031-3.90625 6.804688-8.910156 6.804688-4.335938 0-8.058594-2.105469-8.636719-6.53125-.0625-.425782.152344-.578126.578125-.578126h3.359375c.355469-.035156.683594.179688.796875.519532.457031 1.464844 2.015625 2.59375 4.273437 2.59375 1.984376 0 3.722657-.734375 3.722657-2.289063 0-1.859375-1.832031-2.195312-5.496094-2.65625-4.210937-.546875-7.140625-1.769531-7.140625-5.648437 0-3.875 3.332031-6.652344 8.546875-6.652344 4.699219 0 7.96875 2.535156 8.640625 6.320312.089844.425782-.03125.703126-.488281.703126h-3.363281zm0 0"/><path d="m147.386719 170.992188c-.308594-.011719-.550781-.269532-.550781-.578126v-19.59375c0-.308593.242187-.566406.550781-.582031h8.300781c6.164062 0 10.957031 4.242188 10.957031 10.441407 0 6.101562-4.730469 10.316406-10.957031 10.316406zm8.300781-4.121094c3.324219-.183594 5.925781-2.941406 5.917969-6.273438-.007813-3.332031-2.621094-6.074218-5.949219-6.242187h-3.445312c-.3125.011719-.554688.269531-.550782.578125v11.378906c0 .304688.246094.550781.550782.550781h3.476562zm0 0"/><path d="m179.519531 138.820312h-109.035156c-.847656 0-1.535156-.6875-1.539063-1.535156v-60.660156c.011719-4.234375 3.445313-7.667969 7.679688-7.679688h96.75c4.234375.011719 7.667969 3.445313 7.679688 7.679688v60.660156c-.003907.847656-.691407 1.535156-1.535157 1.535156zm0 0"/></g><path d="m130.65625 126.367188h-9.984375c-.636719-.003907-1.148437-.515626-1.152344-1.152344v-42.230469c.003907-.636719.515625-1.152344 1.152344-1.152344h9.984375c.632812 0 1.148438.515625 1.148438 1.152344v42.230469c0 .636718-.515626 1.148437-1.148438 1.152344zm0 0" fill="#fff"/><path d="m147.652344 94.117188h-45.304688c-.636718-.003907-1.148437-.515626-1.152344-1.152344v-9.980469c.003907-.636719.515626-1.152344 1.152344-1.152344h45.304688c.632812 0 1.148437.515625 1.152344 1.152344v9.980469c-.003907.636718-.519532 1.148437-1.152344 1.152344zm0 0" fill="#fff"/></svg>