<svg height="250" viewBox="0 0 250 250" width="250" xmlns="http://www.w3.org/2000/svg" xmlns:xlink="http://www.w3.org/1999/xlink"><linearGradient id="a" gradientUnits="userSpaceOnUse" x1="210.75" x2="51.5" y1="33.75" y2="221.5"><stop offset="0" stop-color="#b6509e"/><stop offset="1" stop-color="#2ebac6"/></linearGradient><path d="m250 125c0 69.035156-55.964844 125-125 125s-125-55.964844-125-125 55.964844-125 125-125 125 55.964844 125 125zm0 0" fill="#fff"/><path d="m125 250c-8.460938.003906-16.902344-.847656-25.195312-2.539062-15.988282-3.273438-31.175782-9.667969-44.699219-18.808594-20.09375-13.566406-35.828125-32.671875-45.285157-54.996094-3.195312-7.5625-5.632812-15.417969-7.28125-23.460938-3.386718-16.625-3.386718-33.761718 0-50.382812 3.273438-15.988281 9.664063-31.179688 18.808594-44.699219 13.566406-20.097656 32.671875-35.828125 54.996094-45.289062 7.5625-3.199219 15.417969-5.636719 23.460938-7.285157 16.625-3.386718 33.761718-3.386718 50.382812 0 15.988281 3.273438 31.179688 9.664063 44.699219 18.808594 20.097656 13.566406 35.828125 32.671875 45.289062 54.996094 3.195313 7.5625 5.636719 15.417969 7.285157 23.460938 3.386718 16.625 3.386718 33.761718 0 50.382812-3.273438 15.992188-9.664063 31.179688-18.808594 44.699219-13.566406 20.09375-32.671875 35.828125-54.996094 45.285156-7.5625 3.199219-15.417969 5.640625-23.460938 7.289063-8.292968 1.691406-16.734374 2.542968-25.195312 2.539062zm0-236.609375c-7.554688 0-15.089844.757813-22.492188 2.269531-14.277343 2.921875-27.839843 8.628906-39.910156 16.792969-17.941406 12.113281-31.984375 29.171875-40.429687 49.105469-2.855469 6.75-5.03125 13.769531-6.503907 20.949218-3.023437 14.839844-3.023437 30.140626 0 44.984376 2.925782 14.277343 8.632813 27.835937 16.796876 39.90625 12.113281 17.945312 29.171874 31.992187 49.105468 40.4375 6.75 2.855468 13.769532 5.03125 20.949219 6.503906 14.84375 3.023437 30.144531 3.023437 44.984375 0 14.277344-2.925782 27.839844-8.632813 39.910156-16.796875 17.9375-12.113281 31.976563-29.171875 40.421875-49.101563 2.855469-6.75 5.03125-13.769531 6.503907-20.949218 3.023437-14.84375 3.023437-30.144532 0-44.984376-2.925782-14.277343-8.632813-27.835937-16.796876-39.90625-12.113281-17.941406-29.167968-31.988281-49.097656-40.433593-6.75-2.855469-13.769531-5.03125-20.949218-6.503907-7.402344-1.511718-14.9375-2.273437-22.492188-2.273437zm0 0" fill="url(#a)"/><path d="m220.703125 125c0 52.855469-42.847656 95.703125-95.703125 95.703125s-95.703125-42.847656-95.703125-95.703125c0-52.851562 42.847656-95.703125 95.703125-95.703125s95.703125 42.851563 95.703125 95.703125zm0 0" fill="#fff"/><g fill="#ff007a"><path d="m125 220.703125c-6.476562.003906-12.941406-.648437-19.285156-1.945313-12.246094-2.503906-23.871094-7.398437-34.222656-14.398437-15.386719-10.386719-27.433594-25.011719-34.675782-42.105469-2.445312-5.789062-4.3125-11.808594-5.574218-17.96875-2.59375-12.726562-2.59375-25.847656 0-38.574218 2.507812-12.242188 7.398437-23.867188 14.398437-34.21875 10.386719-15.386719 25.011719-27.433594 42.109375-34.675782 5.789062-2.449218 11.808594-4.316406 17.96875-5.578125 12.726562-2.59375 25.84375-2.59375 38.574219 0 12.238281 2.507813 23.867187 7.402344 34.21875 14.402344 15.382812 10.386719 27.425781 25.011719 34.667969 42.105469 2.445312 5.789062 4.3125 11.808594 5.574218 17.964844 2.59375 12.726562 2.59375 25.847656 0 38.574218-2.507812 12.242188-7.398437 23.871094-14.398437 34.21875-10.386719 15.390625-25.011719 27.433594-42.101563 34.679688-5.792968 2.449218-11.8125 4.316406-17.96875 5.574218-6.347656 1.296876-12.808594 1.949219-19.285156 1.945313zm0-189.160156c-6.324219-.003907-12.636719.632812-18.835938 1.898437-11.953124 2.445313-23.308593 7.226563-33.417968 14.0625-15.027344 10.140625-26.789063 24.425782-33.863282 41.121094-2.390624 5.652344-4.214843 11.527344-5.445312 17.542969-2.53125 12.429687-2.53125 25.242187 0 37.671875 2.449219 11.953125 7.226562 23.308594 14.0625 33.417968 10.144531 15.023438 24.429688 26.785157 41.121094 33.859376 5.652344 2.390624 11.53125 4.214843 17.542968 5.445312 12.429688 2.53125 25.242188 2.53125 37.671876 0 11.953124-2.449219 23.308593-7.226562 33.417968-14.0625 15.027344-10.144531 26.789063-24.425781 33.863282-41.121094 2.390624-5.652344 4.214843-11.527344 5.445312-17.539062 2.53125-12.429688 2.53125-25.242188 0-37.671875-2.449219-11.957031-7.226562-23.3125-14.0625-33.421875-10.144531-15.023438-24.425781-26.785156-41.121094-33.859375-5.652344-2.390625-11.527344-4.214844-17.542968-5.445313-6.199219-1.265625-12.507813-1.902344-18.835938-1.898437zm0 0"/><path d="m103.4375 73.160156c-1.507812-.234375-1.570312-.261718-.859375-.371094 2.277344-.132812 4.5625.070313 6.777344.601563 5.164062 1.226563 9.863281 4.371094 14.875 9.953125l1.332031 1.484375 1.90625-.308594c7.796875-1.320312 15.804688-.3125 23.03125 2.894531 1.835938.832032 3.582031 1.851563 5.210938 3.039063.25.652344.410156 1.332031.480468 2.027344.507813 3.363281.253906 5.941406-.773437 7.867187-.523438.644532-.609375 1.542969-.214844 2.277344.363281.753906 1.128906 1.238281 1.96875 1.242188 1.695313 0 3.523437-2.746094 4.371094-6.566407l.335937-1.515625.667969.753906c3.652344 4.140626 6.523437 9.789063 7.015625 13.808594l.128906 1.046875-.613281-.953125c-.882813-1.453125-2.070313-2.703125-3.480469-3.65625-2.453125-1.621094-5.042968-2.171875-11.914062-2.539062-6.199219-.324219-9.710938-.855469-13.191406-1.988282-5.921876-1.933593-8.90625-4.503906-15.9375-13.730468-2.101563-2.914063-4.4375-5.652344-6.976563-8.195313-3.808594-3.863281-8.769531-6.382812-14.140625-7.171875zm0 0"/><path d="m157.113281 82.308594c.023438-2.132813.457031-4.242188 1.277344-6.210938.164063-.417968.371094-.816406.617187-1.191406-.046874.371094-.144531.730469-.289062 1.074219-.566406 2.070312-.65625 4.246093-.257812 6.355469.476562 3.242187.746093 3.710937 4.171874 7.210937 1.609376 1.644531 3.476563 3.710937 4.15625 4.605469l1.230469 1.617187-1.230469-1.15625c-1.804687-1.652343-3.722656-3.179687-5.738281-4.5625-.515625-.265625-.585937-.261719-.90625.054688-.292969.292969-.355469.726562-.390625 2.789062.085938 2.539063-.453125 5.058594-1.5625 7.339844-.574218 1.117187-.664062.878906-.144531-.378906.390625-.941407.425781-1.355469.421875-4.46875-.007812-6.25-.75-7.753907-5.101562-10.332031-1.105469-.652344-2.921876-1.589844-4.039063-2.089844-.679687-.273438-1.339844-.59375-1.972656-.964844 2.066406.441406 4.097656 1.03125 6.078125 1.773438 2.539062.976562 2.960937 1.105468 3.269531.988281.207031-.078125.308594-.679688.410156-2.453125zm0 0"/><path d="m106.367188 93.007812c-3.15625-4.535156-4.75-9.976562-4.542969-15.5l.125-1.492187.699219.125c1.609374.355469 3.167968.933594 4.617187 1.71875 2.898437 1.757813 4.152344 4.078125 5.429687 10.027344.371094 1.742187.863282 3.710937 1.089844 4.382812.773438 1.832031 1.726563 3.578125 2.851563 5.214844.804687 1.171875.269531 1.730469-1.507813 1.570313-2.714844-.246094-6.390625-2.78125-8.761718-6.046876zm0 0"/><path d="m153.402344 124.355469c-14.300782-5.753907-19.335938-10.753907-19.335938-19.183594-.03125-.753906 0-1.507813.097656-2.257813.429688.277344.839844.582032 1.226563.910157 2.902344 2.328125 6.148437 3.320312 15.136719 4.632812 3.734375.433594 7.417968 1.207031 11.011718 2.304688 8.726563 2.894531 14.128907 8.765625 15.414063 16.765625.34375 3 .191406 6.035156-.449219 8.984375-.480468 1.816406-1.941406 5.085937-2.328125 5.210937-.109375.035156-.214843-.375-.242187-.9375-.230469-3.167968-1.753906-6.101562-4.210938-8.117187-2.90625-2.496094-6.800781-4.476563-16.320312-8.3125zm0 0"/><path d="m143.363281 126.75c-.167969-1.023438-.398437-2.035156-.691406-3.027344l-.363281-1.089844.675781.761719c1.039063 1.230469 1.824219 2.65625 2.308594 4.191407.472656 1.28125.652343 2.648437.527343 4.003906.121094 1.316406-.054687 2.636718-.507812 3.875-.613281 1.816406-1.648438 3.460937-3.015625 4.800781-2.613281 2.660156-5.96875 4.128906-10.816406 4.742187-.84375.105469-3.296875.285157-5.457031.394532-5.4375.285156-9.019532.867187-12.234376 2-.289062.128906-.597656.203125-.917968.21875-.128906-.128906 2.0625-1.4375 3.871094-2.308594 2.550781-1.226562 5.089843-1.898438 10.777343-2.84375 2.8125-.46875 5.714844-1.039062 6.445313-1.265625 6.964844-2.132813 10.542968-7.636719 9.398437-14.453125zm0 0"/><path d="m149.917969 138.390625c-1.851563-3.609375-2.3125-7.777344-1.296875-11.703125.113281-.390625.292968-.714844.398437-.714844.359375.128906.695313.308594.996094.539063.878906.585937 2.632813 1.582031 7.308594 4.128906 5.839843 3.183594 9.164062 5.648437 11.425781 8.464844 2.007812 2.515625 3.316406 5.515625 3.800781 8.695312.296875 2.859375.175781 5.742188-.359375 8.5625-1.355468 5.875-5.144531 10.898438-10.417968 13.816407-.492188.285156-1 .535156-1.523438.757812.128906-.550781.335938-1.082031.617188-1.570312 1.742187-3.480469 1.96875-7.523438.628906-11.179688-.8125-2.421875-2.464844-5.382812-5.796875-10.382812-3.878907-5.816407-4.828125-7.363282-5.78125-9.414063zm0 0"/><path d="m96.210938 160.421875c5.121093-4.390625 11.296874-7.371094 17.921874-8.640625 3.101563-.398438 6.25-.277344 9.308594.363281 3.847656.984375 7.289063 3.1875 9.082032 5.816407 1.75 2.566406 2.5 4.804687 3.28125 9.78125.308593 1.964843.644531 3.9375.746093 4.382812.363281 2.199219 1.476563 4.203125 3.144531 5.679688 2.246094 1.644531 6.117188 1.746093 9.921876.261718.394531-.183594.816406-.316406 1.246093-.390625.136719.136719-1.777343 1.421875-3.132812 2.097657-1.59375.851562-3.378907 1.289062-5.1875 1.257812-3.488281 0-6.382813-1.773438-8.796875-5.390625-.886719-1.527344-1.679688-3.109375-2.375-4.734375-2.546875-5.816406-3.808594-7.589844-6.769532-9.527344-2.480468-1.679687-5.652343-1.964844-8.398437-.761718-1.539063.714843-2.660156 2.113281-3.023437 3.773437-.359376 1.660156.074218 3.398437 1.175781 4.691406 1.097656 1.144531 2.539062 1.898438 4.101562 2.148438 1.261719.167969 2.53125-.21875 3.484375-1.0625.949219-.84375 1.488282-2.054688 1.476563-3.328125.117187-1.574219-.859375-3.023438-2.363281-3.507813-2.3125-1.042969-4.792969.175781-4.785157 2.34375-.035156.867188.507813 1.65625 1.335938 1.925781.59375.269532.609375.292969.121093.191407-2.117187-.441407-2.617187-2.996094-.910156-4.6875 2.046875-2.035157 6.277344-1.136719 7.730469 1.640625.621094 1.566406.675781 3.300781.148437 4.898437-1.324218 3.207031-4.863281 4.890625-8.1875 3.894531-2.398437-.609374-3.375-1.273437-6.265624-4.253906-5.027344-5.175781-6.976563-6.179687-14.222657-7.308594l-1.386719-.21875zm0 0"/><path d="m75.90625 69.144531c16.78125 20.371094 25.066406 27.402344 26.351562 29.179688 1.058594 1.464843.660157 2.785156-1.15625 3.816406-1.285156.652344-2.6875 1.042969-4.128906 1.15625-1.296875-.050781-2.53125-.578125-3.464844-1.484375-.683593-.644531-3.433593-4.757812-9.789062-14.617188-4.863281-7.542968-8.933594-13.804687-9.042969-13.910156-.257812-.242187-.253906-.234375 8.546875 15.511719 5.523438 9.886719 7.394532 13.382813 7.394532 13.851563 0 .949218-.261719 1.449218-1.433594 2.757812-1.953125 2.179688-2.832032 4.632812-3.460938 9.703125-.707031 5.6875-2.695312 9.703125-8.207031 16.578125-3.222656 4.023438-3.753906 4.761719-4.566406 6.382812-.957031 1.769532-1.449219 3.753907-1.421875 5.761719-.164063 2.40625.15625 4.820313.945312 7.097657.796875 2.425781 1.957032 4.722656 3.4375 6.804687 1.679688 2.601563 2.644532 4.53125 2.644532 5.289063 0 .601562.117187.601562 2.71875.015624 6.230468-1.40625 11.285156-3.878906 14.132812-6.910156 1.558594-1.375 2.371094-3.414062 2.1875-5.484375.125-1.027343-.050781-2.070312-.507812-3.003906-.738282-1.574219-2.085938-2.882813-5.054688-4.914063-3.890625-2.660156-5.554688-4.800781-6.011719-7.742187-.378906-2.417969.058594-4.121094 2.210938-8.632813 2.230469-4.671874 2.78125-6.660156 3.15625-11.367187.238281-3.039063.574219-4.242187 1.449219-5.203125.910156-1.003906 1.730468-1.34375 3.984374-1.652344 3.675782-.5 6.019532-1.453125 7.941407-3.222656 1.558593-1.300781 2.464843-3.21875 2.476562-5.25l.078125-1.695312-.933594-1.085938c-3.378906-3.9375-32.738281-30.828125-32.945312-30.828125-.046875 0 1.066406 1.394531 2.46875 3.097656zm4.542969 77.777344c.761719-1.355469.363281-3.066406-.921875-3.941406-1.207032-.804688-3.082032-.425781-3.082032.621093 0 .320313.179688.550782.574219.753907.671875.347656.71875.734375.195313 1.527343-.523438.789063-.488282 1.507813.121094 1.984376.984374.773437 2.382812.347656 3.113281-.945313zm0 0" fill-rule="evenodd"/><path d="m109.636719 109.019531c-1.910157.726563-3.363281 2.3125-3.925781 4.277344-.308594 1.285156-.191407 2.640625.339843 3.855469.765625 1.023437 1.507813 1.292968 3.515625 1.28125 3.929688-.027344 7.347656-1.714844 7.746094-3.824219.324219-1.726563-1.171875-4.121094-3.242188-5.175781-1.40625-.570313-2.949218-.714844-4.433593-.414063zm4.59375 3.589844c.289062-.394531.382812-.902344.246093-1.378906-.132812-.472657-.480468-.855469-.9375-1.039063-1.960937-1.199218-4.929687-.207031-4.929687 1.644532 0 .925781 1.546875 1.933593 2.964844 1.933593 1.003906-.023437 1.957031-.441406 2.65625-1.160156zm0 0" fill-rule="evenodd"/></g></svg>