
<svg xmlns="http://www.w3.org/2000/svg" xmlns:xlink="http://www.w3.org/1999/xlink" width="250px" height="250px" viewBox="0 0 250 250" version="1.1">
<defs>
<linearGradient id="linear0" gradientUnits="userSpaceOnUse" x1="0.843" y1="0.135" x2="0.206" y2="0.886" gradientTransform="matrix(250,0,0,250,0,0)">
<stop offset="0" style="stop-color:rgb(71.372551%,31.37255%,61.960787%);stop-opacity:1;"/>
<stop offset="1" style="stop-color:rgb(18.039216%,72.941178%,77.64706%);stop-opacity:1;"/>
</linearGradient>
</defs>
<g id="surface1">
<path style=" stroke:none;fill-rule:nonzero;fill:rgb(100%,100%,100%);fill-opacity:1;" d="M 250 125 C 250 194.035156 194.035156 250 125 250 C 55.964844 250 0 194.035156 0 125 C 0 55.964844 55.964844 0 125 0 C 194.035156 0 250 55.964844 250 125 Z M 250 125 "/>
<path style=" stroke:none;fill-rule:nonzero;fill:url(#linear0);" d="M 125 250 C 116.539062 250.003906 108.097656 249.152344 99.804688 247.460938 C 83.816406 244.1875 68.628906 237.792969 55.105469 228.652344 C 35.011719 215.085938 19.277344 195.980469 9.820312 173.65625 C 6.625 166.09375 4.1875 158.238281 2.539062 150.195312 C -0.847656 133.570312 -0.847656 116.433594 2.539062 99.8125 C 5.8125 83.824219 12.203125 68.632812 21.347656 55.113281 C 34.914062 35.015625 54.019531 19.285156 76.34375 9.824219 C 83.90625 6.625 91.761719 4.1875 99.804688 2.539062 C 116.429688 -0.847656 133.566406 -0.847656 150.1875 2.539062 C 166.175781 5.8125 181.367188 12.203125 194.886719 21.347656 C 214.984375 34.914062 230.714844 54.019531 240.175781 76.34375 C 243.371094 83.90625 245.8125 91.761719 247.460938 99.804688 C 250.847656 116.429688 250.847656 133.566406 247.460938 150.1875 C 244.1875 166.179688 237.796875 181.367188 228.652344 194.886719 C 215.085938 214.980469 195.980469 230.714844 173.65625 240.171875 C 166.09375 243.371094 158.238281 245.8125 150.195312 247.460938 C 141.902344 249.152344 133.460938 250.003906 125 250 Z M 125 13.390625 C 117.445312 13.390625 109.910156 14.148438 102.507812 15.660156 C 88.230469 18.582031 74.667969 24.289062 62.597656 32.453125 C 44.65625 44.566406 30.613281 61.625 22.167969 81.558594 C 19.3125 88.308594 17.136719 95.328125 15.664062 102.507812 C 12.640625 117.347656 12.640625 132.648438 15.664062 147.492188 C 18.589844 161.769531 24.296875 175.328125 32.460938 187.398438 C 44.574219 205.34375 61.632812 219.390625 81.566406 227.835938 C 88.316406 230.691406 95.335938 232.867188 102.515625 234.339844 C 117.359375 237.363281 132.660156 237.363281 147.5 234.339844 C 161.777344 231.414062 175.339844 225.707031 187.410156 217.542969 C 205.347656 205.429688 219.386719 188.371094 227.832031 168.441406 C 230.6875 161.691406 232.863281 154.671875 234.335938 147.492188 C 237.359375 132.648438 237.359375 117.347656 234.335938 102.507812 C 231.410156 88.230469 225.703125 74.671875 217.539062 62.601562 C 205.425781 44.660156 188.371094 30.613281 168.441406 22.167969 C 161.691406 19.3125 154.671875 17.136719 147.492188 15.664062 C 140.089844 14.152344 132.554688 13.390625 125 13.390625 Z M 125 13.390625 "/>
<path style=" stroke:none;fill-rule:nonzero;fill:rgb(100%,100%,100%);fill-opacity:1;" d="M 220.703125 125 C 220.703125 177.855469 177.855469 220.703125 125 220.703125 C 72.144531 220.703125 29.296875 177.855469 29.296875 125 C 29.296875 72.148438 72.144531 29.296875 125 29.296875 C 177.855469 29.296875 220.703125 72.148438 220.703125 125 Z M 220.703125 125 "/>
<path style=" stroke:none;fill-rule:nonzero;fill:rgb(100%,0%,47.843137%);fill-opacity:1;" d="M 125 220.703125 C 118.523438 220.707031 112.058594 220.054688 105.714844 218.757812 C 93.46875 216.253906 81.84375 211.359375 71.492188 204.359375 C 56.105469 193.972656 44.058594 179.347656 36.816406 162.253906 C 34.371094 156.464844 32.503906 150.445312 31.242188 144.285156 C 28.648438 131.558594 28.648438 118.4375 31.242188 105.710938 C 33.75 93.46875 38.640625 81.84375 45.640625 71.492188 C 56.027344 56.105469 70.652344 44.058594 87.75 36.816406 C 93.539062 34.367188 99.558594 32.5 105.71875 31.238281 C 118.445312 28.644531 131.5625 28.644531 144.292969 31.238281 C 156.53125 33.746094 168.160156 38.640625 178.511719 45.640625 C 193.894531 56.027344 205.9375 70.652344 213.179688 87.746094 C 215.625 93.535156 217.492188 99.554688 218.753906 105.710938 C 221.347656 118.4375 221.347656 131.558594 218.753906 144.285156 C 216.246094 156.527344 211.355469 168.15625 204.355469 178.503906 C 193.96875 193.894531 179.34375 205.9375 162.253906 213.183594 C 156.460938 215.632812 150.441406 217.5 144.285156 218.757812 C 137.9375 220.054688 131.476562 220.707031 125 220.703125 Z M 125 31.542969 C 118.675781 31.539062 112.363281 32.175781 106.164062 33.441406 C 94.210938 35.886719 82.855469 40.667969 72.746094 47.503906 C 57.71875 57.644531 45.957031 71.929688 38.882812 88.625 C 36.492188 94.277344 34.667969 100.152344 33.4375 106.167969 C 30.90625 118.597656 30.90625 131.410156 33.4375 143.839844 C 35.886719 155.792969 40.664062 167.148438 47.5 177.257812 C 57.644531 192.28125 71.929688 204.042969 88.621094 211.117188 C 94.273438 213.507812 100.152344 215.332031 106.164062 216.5625 C 118.59375 219.09375 131.40625 219.09375 143.835938 216.5625 C 155.789062 214.113281 167.144531 209.335938 177.253906 202.5 C 192.28125 192.355469 204.042969 178.074219 211.117188 161.378906 C 213.507812 155.726562 215.332031 149.851562 216.5625 143.839844 C 219.09375 131.410156 219.09375 118.597656 216.5625 106.167969 C 214.113281 94.210938 209.335938 82.855469 202.5 72.746094 C 192.355469 57.722656 178.074219 45.960938 161.378906 38.886719 C 155.726562 36.496094 149.851562 34.671875 143.835938 33.441406 C 137.636719 32.175781 131.328125 31.539062 125 31.542969 Z M 125 31.542969 "/>
<path style=" stroke:none;fill-rule:nonzero;fill:rgb(100%,0%,47.843137%);fill-opacity:1;" d="M 103.4375 73.160156 C 101.929688 72.925781 101.867188 72.898438 102.578125 72.789062 C 104.855469 72.65625 107.140625 72.859375 109.355469 73.390625 C 114.519531 74.617188 119.21875 77.761719 124.230469 83.34375 L 125.5625 84.828125 L 127.46875 84.519531 C 135.265625 83.199219 143.273438 84.207031 150.5 87.414062 C 152.335938 88.246094 154.082031 89.265625 155.710938 90.453125 C 155.960938 91.105469 156.121094 91.785156 156.191406 92.480469 C 156.699219 95.84375 156.445312 98.421875 155.417969 100.347656 C 154.894531 100.992188 154.808594 101.890625 155.203125 102.625 C 155.566406 103.378906 156.332031 103.863281 157.171875 103.867188 C 158.867188 103.867188 160.695312 101.121094 161.542969 97.300781 L 161.878906 95.785156 L 162.546875 96.539062 C 166.199219 100.679688 169.070312 106.328125 169.5625 110.347656 L 169.691406 111.394531 L 169.078125 110.441406 C 168.195312 108.988281 167.007812 107.738281 165.597656 106.785156 C 163.144531 105.164062 160.554688 104.613281 153.683594 104.246094 C 147.484375 103.921875 143.972656 103.390625 140.492188 102.257812 C 134.570312 100.324219 131.585938 97.753906 124.554688 88.527344 C 122.453125 85.613281 120.117188 82.875 117.578125 80.332031 C 113.769531 76.46875 108.808594 73.949219 103.4375 73.160156 Z M 103.4375 73.160156 "/>
<path style=" stroke:none;fill-rule:nonzero;fill:rgb(100%,0%,47.843137%);fill-opacity:1;" d="M 157.113281 82.308594 C 157.136719 80.175781 157.570312 78.066406 158.390625 76.097656 C 158.554688 75.679688 158.761719 75.28125 159.007812 74.90625 C 158.960938 75.277344 158.863281 75.636719 158.71875 75.980469 C 158.152344 78.050781 158.0625 80.226562 158.460938 82.335938 C 158.9375 85.578125 159.207031 86.046875 162.632812 89.546875 C 164.242188 91.191406 166.109375 93.257812 166.789062 94.152344 L 168.019531 95.769531 L 166.789062 94.613281 C 164.984375 92.960938 163.066406 91.433594 161.050781 90.050781 C 160.535156 89.785156 160.464844 89.789062 160.144531 90.105469 C 159.851562 90.398438 159.789062 90.832031 159.753906 92.894531 C 159.839844 95.433594 159.300781 97.953125 158.191406 100.234375 C 157.617188 101.351562 157.527344 101.113281 158.046875 99.855469 C 158.4375 98.914062 158.472656 98.5 158.46875 95.386719 C 158.460938 89.136719 157.71875 87.632812 153.367188 85.054688 C 152.261719 84.402344 150.445312 83.464844 149.328125 82.964844 C 148.648438 82.691406 147.988281 82.371094 147.355469 82 C 149.421875 82.441406 151.453125 83.03125 153.433594 83.773438 C 155.972656 84.75 156.394531 84.878906 156.703125 84.761719 C 156.910156 84.683594 157.011719 84.082031 157.113281 82.308594 Z M 157.113281 82.308594 "/>
<path style=" stroke:none;fill-rule:nonzero;fill:rgb(100%,0%,47.843137%);fill-opacity:1;" d="M 106.367188 93.007812 C 103.210938 88.472656 101.617188 83.03125 101.824219 77.507812 L 101.949219 76.015625 L 102.648438 76.140625 C 104.257812 76.496094 105.816406 77.074219 107.265625 77.859375 C 110.164062 79.617188 111.417969 81.9375 112.695312 87.886719 C 113.066406 89.628906 113.558594 91.597656 113.785156 92.269531 C 114.558594 94.101562 115.511719 95.847656 116.636719 97.484375 C 117.441406 98.65625 116.90625 99.214844 115.128906 99.054688 C 112.414062 98.808594 108.738281 96.273438 106.367188 93.007812 Z M 106.367188 93.007812 "/>
<path style=" stroke:none;fill-rule:nonzero;fill:rgb(100%,0%,47.843137%);fill-opacity:1;" d="M 153.402344 124.355469 C 139.101562 118.601562 134.066406 113.601562 134.066406 105.171875 C 134.035156 104.417969 134.066406 103.664062 134.164062 102.914062 C 134.59375 103.191406 135.003906 103.496094 135.390625 103.824219 C 138.292969 106.152344 141.539062 107.144531 150.527344 108.457031 C 154.261719 108.890625 157.945312 109.664062 161.539062 110.761719 C 170.265625 113.65625 175.667969 119.527344 176.953125 127.527344 C 177.296875 130.527344 177.144531 133.5625 176.503906 136.511719 C 176.023438 138.328125 174.5625 141.597656 174.175781 141.722656 C 174.066406 141.757812 173.960938 141.347656 173.933594 140.785156 C 173.703125 137.617188 172.179688 134.683594 169.722656 132.667969 C 166.816406 130.171875 162.921875 128.191406 153.402344 124.355469 Z M 153.402344 124.355469 "/>
<path style=" stroke:none;fill-rule:nonzero;fill:rgb(100%,0%,47.843137%);fill-opacity:1;" d="M 143.363281 126.75 C 143.195312 125.726562 142.964844 124.714844 142.671875 123.722656 L 142.308594 122.632812 L 142.984375 123.394531 C 144.023438 124.625 144.808594 126.050781 145.292969 127.585938 C 145.765625 128.867188 145.945312 130.234375 145.820312 131.589844 C 145.941406 132.90625 145.765625 134.226562 145.3125 135.464844 C 144.699219 137.28125 143.664062 138.925781 142.296875 140.265625 C 139.683594 142.925781 136.328125 144.394531 131.480469 145.007812 C 130.636719 145.113281 128.183594 145.292969 126.023438 145.402344 C 120.585938 145.6875 117.003906 146.269531 113.789062 147.402344 C 113.5 147.53125 113.191406 147.605469 112.871094 147.621094 C 112.742188 147.492188 114.933594 146.183594 116.742188 145.3125 C 119.292969 144.085938 121.832031 143.414062 127.519531 142.46875 C 130.332031 142 133.234375 141.429688 133.964844 141.203125 C 140.929688 139.070312 144.507812 133.566406 143.363281 126.75 Z M 143.363281 126.75 "/>
<path style=" stroke:none;fill-rule:nonzero;fill:rgb(100%,0%,47.843137%);fill-opacity:1;" d="M 149.917969 138.390625 C 148.066406 134.78125 147.605469 130.613281 148.621094 126.6875 C 148.734375 126.296875 148.914062 125.972656 149.019531 125.972656 C 149.378906 126.101562 149.714844 126.28125 150.015625 126.511719 C 150.894531 127.097656 152.648438 128.09375 157.324219 130.640625 C 163.164062 133.824219 166.488281 136.289062 168.75 139.105469 C 170.757812 141.621094 172.066406 144.621094 172.550781 147.800781 C 172.847656 150.660156 172.726562 153.542969 172.191406 156.363281 C 170.835938 162.238281 167.046875 167.261719 161.773438 170.179688 C 161.28125 170.464844 160.773438 170.714844 160.25 170.9375 C 160.378906 170.386719 160.585938 169.855469 160.867188 169.367188 C 162.609375 165.886719 162.835938 161.84375 161.496094 158.1875 C 160.683594 155.765625 159.03125 152.804688 155.699219 147.804688 C 151.820312 141.988281 150.871094 140.441406 149.917969 138.390625 Z M 149.917969 138.390625 "/>
<path style=" stroke:none;fill-rule:nonzero;fill:rgb(100%,0%,47.843137%);fill-opacity:1;" d="M 96.210938 160.421875 C 101.332031 156.03125 107.507812 153.050781 114.132812 151.78125 C 117.234375 151.382812 120.382812 151.503906 123.441406 152.144531 C 127.289062 153.128906 130.730469 155.332031 132.523438 157.960938 C 134.273438 160.527344 135.023438 162.765625 135.804688 167.742188 C 136.113281 169.707031 136.449219 171.679688 136.550781 172.125 C 136.914062 174.324219 138.027344 176.328125 139.695312 177.804688 C 141.941406 179.449219 145.8125 179.550781 149.617188 178.066406 C 150.011719 177.882812 150.433594 177.75 150.863281 177.675781 C 151 177.8125 149.085938 179.097656 147.730469 179.773438 C 146.136719 180.625 144.351562 181.0625 142.542969 181.03125 C 139.054688 181.03125 136.160156 179.257812 133.746094 175.640625 C 132.859375 174.113281 132.066406 172.53125 131.371094 170.90625 C 128.824219 165.089844 127.5625 163.316406 124.601562 161.378906 C 122.121094 159.699219 118.949219 159.414062 116.203125 160.617188 C 114.664062 161.332031 113.542969 162.730469 113.179688 164.390625 C 112.820312 166.050781 113.253906 167.789062 114.355469 169.082031 C 115.453125 170.226562 116.894531 170.980469 118.457031 171.230469 C 119.71875 171.398438 120.988281 171.011719 121.941406 170.167969 C 122.890625 169.324219 123.429688 168.113281 123.417969 166.839844 C 123.535156 165.265625 122.558594 163.816406 121.054688 163.332031 C 118.742188 162.289062 116.261719 163.507812 116.269531 165.675781 C 116.234375 166.542969 116.777344 167.332031 117.605469 167.601562 C 118.199219 167.871094 118.214844 167.894531 117.726562 167.792969 C 115.609375 167.351562 115.109375 164.796875 116.816406 163.105469 C 118.863281 161.070312 123.09375 161.96875 124.546875 164.746094 C 125.167969 166.3125 125.222656 168.046875 124.695312 169.644531 C 123.371094 172.851562 119.832031 174.535156 116.507812 173.539062 C 114.109375 172.929688 113.132812 172.265625 110.242188 169.285156 C 105.214844 164.109375 103.265625 163.105469 96.019531 161.976562 L 94.632812 161.757812 Z M 96.210938 160.421875 "/>
<path style=" stroke:none;fill-rule:evenodd;fill:rgb(100%,0%,47.843137%);fill-opacity:1;" d="M 75.90625 69.144531 C 92.6875 89.515625 100.972656 96.546875 102.257812 98.324219 C 103.316406 99.789062 102.917969 101.109375 101.101562 102.140625 C 99.816406 102.792969 98.414062 103.183594 96.972656 103.296875 C 95.675781 103.246094 94.441406 102.71875 93.507812 101.8125 C 92.824219 101.167969 90.074219 97.054688 83.71875 87.195312 C 78.855469 79.652344 74.785156 73.390625 74.675781 73.285156 C 74.417969 73.042969 74.421875 73.050781 83.222656 88.796875 C 88.746094 98.683594 90.617188 102.179688 90.617188 102.648438 C 90.617188 103.597656 90.355469 104.097656 89.183594 105.40625 C 87.230469 107.585938 86.351562 110.039062 85.722656 115.109375 C 85.015625 120.796875 83.027344 124.8125 77.515625 131.6875 C 74.292969 135.710938 73.761719 136.449219 72.949219 138.070312 C 71.992188 139.839844 71.5 141.824219 71.527344 143.832031 C 71.363281 146.238281 71.683594 148.652344 72.472656 150.929688 C 73.269531 153.355469 74.429688 155.652344 75.910156 157.734375 C 77.589844 160.335938 78.554688 162.265625 78.554688 163.023438 C 78.554688 163.625 78.671875 163.625 81.273438 163.039062 C 87.503906 161.632812 92.558594 159.160156 95.40625 156.128906 C 96.964844 154.753906 97.777344 152.714844 97.59375 150.644531 C 97.71875 149.617188 97.542969 148.574219 97.085938 147.640625 C 96.347656 146.066406 95 144.757812 92.03125 142.726562 C 88.140625 140.066406 86.476562 137.925781 86.019531 134.984375 C 85.640625 132.566406 86.078125 130.863281 88.230469 126.351562 C 90.460938 121.679688 91.011719 119.691406 91.386719 114.984375 C 91.625 111.945312 91.960938 110.742188 92.835938 109.78125 C 93.746094 108.777344 94.566406 108.4375 96.820312 108.128906 C 100.496094 107.628906 102.839844 106.675781 104.761719 104.90625 C 106.320312 103.605469 107.226562 101.6875 107.238281 99.65625 L 107.316406 97.960938 L 106.382812 96.875 C 103.003906 92.9375 73.644531 66.046875 73.4375 66.046875 C 73.390625 66.046875 74.503906 67.441406 75.90625 69.144531 Z M 80.449219 146.921875 C 81.210938 145.566406 80.8125 143.855469 79.527344 142.980469 C 78.320312 142.175781 76.445312 142.554688 76.445312 143.601562 C 76.445312 143.921875 76.625 144.152344 77.019531 144.355469 C 77.691406 144.703125 77.738281 145.089844 77.214844 145.882812 C 76.691406 146.671875 76.726562 147.390625 77.335938 147.867188 C 78.320312 148.640625 79.71875 148.214844 80.449219 146.921875 Z M 80.449219 146.921875 "/>
<path style=" stroke:none;fill-rule:evenodd;fill:rgb(100%,0%,47.843137%);fill-opacity:1;" d="M 109.636719 109.019531 C 107.726562 109.746094 106.273438 111.332031 105.710938 113.296875 C 105.402344 114.582031 105.519531 115.9375 106.050781 117.152344 C 106.816406 118.175781 107.558594 118.445312 109.566406 118.433594 C 113.496094 118.40625 116.914062 116.71875 117.3125 114.609375 C 117.636719 112.882812 116.140625 110.488281 114.070312 109.433594 C 112.664062 108.863281 111.121094 108.71875 109.636719 109.019531 Z M 114.230469 112.609375 C 114.519531 112.214844 114.613281 111.707031 114.476562 111.230469 C 114.34375 110.757812 113.996094 110.375 113.539062 110.191406 C 111.578125 108.992188 108.609375 109.984375 108.609375 111.835938 C 108.609375 112.761719 110.15625 113.769531 111.574219 113.769531 C 112.578125 113.746094 113.53125 113.328125 114.230469 112.609375 Z M 114.230469 112.609375 "/>
</g>
</svg>
