
<svg xmlns="http://www.w3.org/2000/svg" xmlns:xlink="http://www.w3.org/1999/xlink" width="250px" height="250px" viewBox="0 0 250 250" version="1.1">
<defs>
<linearGradient id="linear0" gradientUnits="userSpaceOnUse" x1="0.843" y1="0.135" x2="0.206" y2="0.886" gradientTransform="matrix(250,0,0,250,0,0)">
<stop offset="0" style="stop-color:rgb(71.372551%,31.37255%,61.960787%);stop-opacity:1;"/>
<stop offset="1" style="stop-color:rgb(18.039216%,72.941178%,77.64706%);stop-opacity:1;"/>
</linearGradient>
</defs>
<g id="surface1">
<path style=" stroke:none;fill-rule:nonzero;fill:rgb(100%,100%,100%);fill-opacity:1;" d="M 250 125 C 250 194.035156 194.035156 250 125 250 C 55.964844 250 0 194.035156 0 125 C 0 55.964844 55.964844 0 125 0 C 194.035156 0 250 55.964844 250 125 Z M 250 125 "/>
<path style=" stroke:none;fill-rule:nonzero;fill:url(#linear0);" d="M 125 250 C 116.539062 250.003906 108.097656 249.152344 99.804688 247.460938 C 83.816406 244.1875 68.628906 237.792969 55.105469 228.652344 C 35.011719 215.085938 19.277344 195.980469 9.820312 173.65625 C 6.625 166.09375 4.1875 158.238281 2.539062 150.195312 C -0.847656 133.570312 -0.847656 116.433594 2.539062 99.8125 C 5.8125 83.824219 12.203125 68.632812 21.347656 55.113281 C 34.914062 35.015625 54.019531 19.285156 76.34375 9.824219 C 83.90625 6.625 91.761719 4.1875 99.804688 2.539062 C 116.429688 -0.847656 133.566406 -0.847656 150.1875 2.539062 C 166.175781 5.8125 181.367188 12.203125 194.886719 21.347656 C 214.984375 34.914062 230.714844 54.019531 240.175781 76.34375 C 243.371094 83.90625 245.8125 91.761719 247.460938 99.804688 C 250.847656 116.429688 250.847656 133.566406 247.460938 150.1875 C 244.1875 166.179688 237.796875 181.367188 228.652344 194.886719 C 215.085938 214.980469 195.980469 230.714844 173.65625 240.171875 C 166.09375 243.371094 158.238281 245.8125 150.195312 247.460938 C 141.902344 249.152344 133.460938 250.003906 125 250 Z M 125 13.390625 C 117.445312 13.390625 109.910156 14.148438 102.507812 15.660156 C 88.230469 18.582031 74.667969 24.289062 62.597656 32.453125 C 44.65625 44.566406 30.613281 61.625 22.167969 81.558594 C 19.3125 88.308594 17.136719 95.328125 15.664062 102.507812 C 12.640625 117.347656 12.640625 132.648438 15.664062 147.492188 C 18.589844 161.769531 24.296875 175.328125 32.460938 187.398438 C 44.574219 205.34375 61.632812 219.390625 81.566406 227.835938 C 88.316406 230.691406 95.335938 232.867188 102.515625 234.339844 C 117.359375 237.363281 132.660156 237.363281 147.5 234.339844 C 161.777344 231.414062 175.339844 225.707031 187.410156 217.542969 C 205.347656 205.429688 219.386719 188.371094 227.832031 168.441406 C 230.6875 161.691406 232.863281 154.671875 234.335938 147.492188 C 237.359375 132.648438 237.359375 117.347656 234.335938 102.507812 C 231.410156 88.230469 225.703125 74.671875 217.539062 62.601562 C 205.425781 44.660156 188.371094 30.613281 168.441406 22.167969 C 161.691406 19.3125 154.671875 17.136719 147.492188 15.664062 C 140.089844 14.152344 132.554688 13.390625 125 13.390625 Z M 125 13.390625 "/>
<path style=" stroke:none;fill-rule:nonzero;fill:rgb(32.549021%,68.235296%,58.039218%);fill-opacity:1;" d="M 125 29.019531 C 178.007812 29.019531 220.980469 71.988281 220.980469 125 C 220.980469 178.007812 178.007812 220.980469 125 220.980469 C 71.988281 220.980469 29.019531 178.007812 29.019531 125 C 29.019531 71.992188 71.992188 29.019531 125 29.019531 "/>
<path style=" stroke:none;fill-rule:nonzero;fill:rgb(100%,100%,100%);fill-opacity:1;" d="M 136.847656 112.210938 L 136.847656 97.933594 L 169.496094 97.933594 L 169.496094 76.175781 L 80.585938 76.175781 L 80.585938 97.933594 L 113.242188 97.933594 L 113.242188 112.199219 C 86.703125 113.417969 66.75 118.671875 66.75 124.96875 C 66.75 131.265625 86.714844 136.523438 113.242188 137.75 L 113.242188 183.484375 L 136.855469 183.484375 L 136.855469 137.746094 C 163.34375 136.523438 183.257812 131.269531 183.257812 124.980469 C 183.257812 118.6875 163.34375 113.4375 136.855469 112.214844 M 136.855469 133.871094 L 136.855469 133.859375 C 136.1875 133.902344 132.765625 134.109375 125.144531 134.109375 C 119.050781 134.109375 114.765625 133.933594 113.253906 133.855469 L 113.253906 133.875 C 89.808594 132.835938 72.304688 128.753906 72.304688 123.867188 C 72.304688 118.984375 89.808594 114.90625 113.253906 113.867188 L 113.253906 129.808594 C 114.789062 129.914062 119.179688 130.171875 125.242188 130.171875 C 132.523438 130.171875 136.179688 129.867188 136.859375 129.808594 L 136.859375 113.867188 C 160.257812 114.90625 177.71875 118.996094 177.71875 123.863281 C 177.71875 128.730469 160.25 132.820312 136.859375 133.863281 "/>
</g>
</svg>
