
<svg xmlns="http://www.w3.org/2000/svg" xmlns:xlink="http://www.w3.org/1999/xlink" width="250px" height="250px" viewBox="0 0 250 250" version="1.1">
<defs>
<linearGradient id="linear0" gradientUnits="userSpaceOnUse" x1="0.843" y1="0.135" x2="0.206" y2="0.886" gradientTransform="matrix(250,0,0,250,0,0)">
<stop offset="0" style="stop-color:rgb(71.372551%,31.37255%,61.960787%);stop-opacity:1;"/>
<stop offset="1" style="stop-color:rgb(18.039216%,72.941178%,77.64706%);stop-opacity:1;"/>
</linearGradient>
</defs>
<g id="surface1">
<path style=" stroke:none;fill-rule:nonzero;fill:rgb(100%,100%,100%);fill-opacity:1;" d="M 250 125 C 250 194.035156 194.035156 250 125 250 C 55.964844 250 0 194.035156 0 125 C 0 55.964844 55.964844 0 125 0 C 194.035156 0 250 55.964844 250 125 Z M 250 125 "/>
<path style=" stroke:none;fill-rule:nonzero;fill:url(#linear0);" d="M 125 250 C 116.539062 250.003906 108.097656 249.152344 99.804688 247.460938 C 83.816406 244.1875 68.628906 237.792969 55.105469 228.652344 C 35.011719 215.085938 19.277344 195.980469 9.820312 173.65625 C 6.625 166.09375 4.1875 158.238281 2.539062 150.195312 C -0.847656 133.570312 -0.847656 116.433594 2.539062 99.8125 C 5.8125 83.824219 12.203125 68.632812 21.347656 55.113281 C 34.914062 35.015625 54.019531 19.285156 76.34375 9.824219 C 83.90625 6.625 91.761719 4.1875 99.804688 2.539062 C 116.429688 -0.847656 133.566406 -0.847656 150.1875 2.539062 C 166.175781 5.8125 181.367188 12.203125 194.886719 21.347656 C 214.984375 34.914062 230.714844 54.019531 240.175781 76.34375 C 243.371094 83.90625 245.8125 91.761719 247.460938 99.804688 C 250.847656 116.429688 250.847656 133.566406 247.460938 150.1875 C 244.1875 166.179688 237.796875 181.367188 228.652344 194.886719 C 215.085938 214.980469 195.980469 230.714844 173.65625 240.171875 C 166.09375 243.371094 158.238281 245.8125 150.195312 247.460938 C 141.902344 249.152344 133.460938 250.003906 125 250 Z M 125 13.390625 C 117.445312 13.390625 109.910156 14.148438 102.507812 15.660156 C 88.230469 18.582031 74.667969 24.289062 62.597656 32.453125 C 44.65625 44.566406 30.613281 61.625 22.167969 81.558594 C 19.3125 88.308594 17.136719 95.328125 15.664062 102.507812 C 12.640625 117.347656 12.640625 132.648438 15.664062 147.492188 C 18.589844 161.769531 24.296875 175.328125 32.460938 187.398438 C 44.574219 205.34375 61.632812 219.390625 81.566406 227.835938 C 88.316406 230.691406 95.335938 232.867188 102.515625 234.339844 C 117.359375 237.363281 132.660156 237.363281 147.5 234.339844 C 161.777344 231.414062 175.339844 225.707031 187.410156 217.542969 C 205.347656 205.429688 219.386719 188.371094 227.832031 168.441406 C 230.6875 161.691406 232.863281 154.671875 234.335938 147.492188 C 237.359375 132.648438 237.359375 117.347656 234.335938 102.507812 C 231.410156 88.230469 225.703125 74.671875 217.539062 62.601562 C 205.425781 44.660156 188.371094 30.613281 168.441406 22.167969 C 161.691406 19.3125 154.671875 17.136719 147.492188 15.664062 C 140.089844 14.152344 132.554688 13.390625 125 13.390625 Z M 125 13.390625 "/>
<path style=" stroke:none;fill-rule:nonzero;fill:rgb(15.294118%,45.882353%,79.215688%);fill-opacity:1;" d="M 125 220.980469 C 178.007812 220.980469 220.980469 178.007812 220.980469 125 C 220.980469 71.992188 178.007812 29.019531 125 29.019531 C 71.992188 29.019531 29.019531 71.988281 29.019531 125 C 28.957031 150.472656 39.046875 174.921875 57.0625 192.9375 C 75.074219 210.949219 99.523438 221.042969 125 220.980469 Z M 125 220.980469 "/>
<path style=" stroke:none;fill-rule:nonzero;fill:rgb(100%,100%,100%);fill-opacity:1;" d="M 151.394531 140.195312 C 151.394531 126.199219 142.996094 121.398438 126.199219 119.402344 C 114.203125 117.800781 111.800781 114.601562 111.800781 109.003906 C 111.800781 103.402344 115.804688 99.804688 123.796875 99.804688 C 130.996094 99.804688 134.996094 102.203125 136.996094 108.203125 C 137.417969 109.390625 138.535156 110.1875 139.792969 110.203125 L 146.191406 110.203125 C 146.941406 110.21875 147.664062 109.929688 148.191406 109.402344 C 148.722656 108.871094 149.011719 108.148438 148.992188 107.402344 L 148.992188 107.003906 C 147.402344 98.089844 140.015625 91.363281 130.996094 90.605469 L 130.996094 81.007812 C 130.996094 79.410156 129.796875 78.207031 127.796875 77.808594 L 121.796875 77.808594 C 120.199219 77.808594 118.996094 79.007812 118.597656 81.007812 L 118.597656 90.207031 C 106.597656 91.804688 99 99.804688 99 109.804688 C 99 123 107 128.199219 123.796875 130.199219 C 134.996094 132.199219 138.59375 134.59375 138.59375 140.996094 C 138.59375 147.402344 132.996094 151.796875 125.398438 151.796875 C 115 151.796875 111.398438 147.394531 110.199219 141.398438 C 109.953125 140.035156 108.785156 139.03125 107.402344 138.996094 L 100.601562 138.996094 C 99.851562 138.980469 99.128906 139.269531 98.601562 139.796875 C 98.074219 140.328125 97.785156 141.050781 97.800781 141.796875 L 97.800781 142.199219 C 99.402344 152.195312 105.800781 159.394531 118.992188 161.394531 L 118.992188 170.992188 C 118.992188 172.589844 120.195312 173.792969 122.191406 174.191406 L 128.191406 174.191406 C 129.792969 174.191406 130.992188 172.992188 131.390625 170.992188 L 131.390625 161.394531 C 143.390625 159.394531 151.386719 150.996094 151.386719 140.199219 Z M 151.394531 140.195312 "/>
<path style=" stroke:none;fill-rule:nonzero;fill:rgb(100%,100%,100%);fill-opacity:1;" d="M 104.605469 182.1875 C 81.027344 173.546875 65.355469 151.109375 65.355469 126 C 65.355469 100.890625 81.027344 78.453125 104.605469 69.8125 C 106.175781 69.125 107.140625 67.515625 107.003906 65.808594 L 107.003906 60.207031 C 107.117188 58.691406 106.089844 57.324219 104.605469 57.007812 C 104.039062 56.949219 103.472656 57.089844 103.003906 57.410156 C 73.125 66.902344 52.832031 94.644531 52.832031 125.996094 C 52.832031 157.34375 73.125 185.085938 103.003906 194.582031 C 103.679688 194.972656 104.5 195.019531 105.210938 194.699219 C 105.925781 194.382812 106.441406 193.746094 106.605469 192.984375 C 107.003906 192.582031 107.003906 192.183594 107.003906 191.382812 L 107.003906 185.785156 C 107.003906 184.589844 105.804688 182.988281 104.605469 182.1875 Z M 146.992188 57.414062 C 146.316406 57.019531 145.496094 56.976562 144.785156 57.292969 C 144.070312 57.609375 143.554688 58.25 143.394531 59.011719 C 142.992188 59.414062 142.992188 59.8125 142.992188 60.613281 L 142.992188 66.210938 C 143.128906 67.84375 144.015625 69.320312 145.390625 70.214844 C 168.964844 78.855469 184.640625 101.292969 184.640625 126.402344 C 184.640625 151.511719 168.964844 173.949219 145.390625 182.59375 C 143.820312 183.277344 142.855469 184.886719 142.992188 186.597656 L 142.992188 192.195312 C 142.878906 193.710938 143.902344 195.078125 145.390625 195.394531 C 145.957031 195.453125 146.523438 195.3125 146.992188 194.996094 C 176.847656 185.367188 197.085938 157.578125 197.085938 126.207031 C 197.085938 94.835938 176.847656 67.046875 146.992188 57.421875 Z M 146.992188 57.414062 "/>
</g>
</svg>
