<svg xmlns="http://www.w3.org/2000/svg" xmlns:xlink="http://www.w3.org/1999/xlink" width="600" height="600" viewBox="0 0 600 600"><defs><linearGradient id="a" x1="0.843" y1="0.135" x2="0.206" y2="0.886" gradientUnits="objectBoundingBox"><stop offset="0" stop-color="#b6509e"/><stop offset="1" stop-color="#2ebac6"/></linearGradient><clipPath id="c"><rect width="600" height="600"/></clipPath></defs><g id="b" clip-path="url(#c)"><path d="M-461,16584a282.152,282.152,0,0,1-56.43-5.689A278.714,278.714,0,0,1-569.989,16562a279.879,279.879,0,0,1-47.562-25.816,281.908,281.908,0,0,1-41.439-34.189,282.092,282.092,0,0,1-34.191-41.439A279.938,279.938,0,0,1-719,16412.988a278.581,278.581,0,0,1-16.315-52.56A282.074,282.074,0,0,1-741,16304a282.074,282.074,0,0,1,5.688-56.43A278.581,278.581,0,0,1-719,16195.011a280.059,280.059,0,0,1,25.816-47.563,282,282,0,0,1,34.191-41.438,282.062,282.062,0,0,1,41.439-34.191A280.058,280.058,0,0,1-569.989,16046a278.57,278.57,0,0,1,52.559-16.315A282.1,282.1,0,0,1-461,16024a282.1,282.1,0,0,1,56.43,5.688A278.568,278.568,0,0,1-352.011,16046a280.059,280.059,0,0,1,47.562,25.815,282.07,282.07,0,0,1,41.439,34.191,282,282,0,0,1,34.191,41.438A280.073,280.073,0,0,1-203,16195.011a278.559,278.559,0,0,1,16.315,52.559A282.066,282.066,0,0,1-181,16304a282.066,282.066,0,0,1-5.689,56.43,278.583,278.583,0,0,1-16.315,52.56,279.941,279.941,0,0,1-25.816,47.563,282.087,282.087,0,0,1-34.191,41.439,281.917,281.917,0,0,1-41.439,34.189A279.889,279.889,0,0,1-352.011,16562a278.707,278.707,0,0,1-52.559,16.316A282.154,282.154,0,0,1-461,16584Zm0-530a251.866,251.866,0,0,0-50.384,5.079,248.733,248.733,0,0,0-46.928,14.567,249.955,249.955,0,0,0-42.466,23.05,251.827,251.827,0,0,0-37,30.527,251.764,251.764,0,0,0-30.527,37,250.02,250.02,0,0,0-23.05,42.466,248.736,248.736,0,0,0-14.567,46.928A251.844,251.844,0,0,0-711,16304a251.844,251.844,0,0,0,5.079,50.384,248.793,248.793,0,0,0,14.567,46.928,250.029,250.029,0,0,0,23.05,42.467,251.933,251.933,0,0,0,30.527,37,252.012,252.012,0,0,0,37,30.527,250.162,250.162,0,0,0,42.466,23.051,248.874,248.874,0,0,0,46.928,14.564A251.767,251.767,0,0,0-461,16554a251.767,251.767,0,0,0,50.384-5.08,248.86,248.86,0,0,0,46.928-14.564,250.155,250.155,0,0,0,42.466-23.051,251.893,251.893,0,0,0,37-30.527,251.934,251.934,0,0,0,30.527-37,250.046,250.046,0,0,0,23.05-42.467,248.792,248.792,0,0,0,14.567-46.928A251.838,251.838,0,0,0-211,16304a251.838,251.838,0,0,0-5.079-50.384,248.74,248.74,0,0,0-14.567-46.928,250,250,0,0,0-23.05-42.466,251.77,251.77,0,0,0-30.527-37,251.831,251.831,0,0,0-37-30.527,249.951,249.951,0,0,0-42.466-23.05,248.723,248.723,0,0,0-46.928-14.567A251.867,251.867,0,0,0-461,16054Z" transform="translate(761.001 -16003.998)" fill="url(#a)"/><g transform="translate(-138.139 505.602)"><path d="M438.995-420.6c-119.2-.476-216.2,96.573-215.855,215.087S319.982,9.42,438.227,9.4c117.183-.021,214.091-96.444,215.018-212.2C654.186-320.7,560.124-420.116,438.995-420.6ZM437.22-7.916c-108.29-.44-196.742-89.135-196.741-197.922,0-109.514,88.792-197.589,199.267-197.45,107.249.135,197.759,89.2,196.185,200.545C634.4-94.685,545.272-7.478,437.22-7.916Z" transform="translate(0 0)" fill="#282138"/><path d="M428.538-55.007c-45.266-.6-85.569-15.549-120.39-45.312-3.084-2.637-3.582-4.127-.391-7.191,8.556-8.218,8.4-8.381,17.611-.98,62.131,49.913,151.988,48.064,212.866-4.522,2.89-2.5,4.317-2.527,6.978.191,9.12,9.317,9.243,9.216-1.286,17.527C510.24-68.7,471.9-55.433,428.538-55.007Z" transform="translate(9.092 33.715)" fill="#82808a"/><path d="M571.523-220.6c-.174-35.85-14.075-71.973-40.605-103.3-2.487-2.937-2.566-4.312.159-6.983,9.174-8.992,9.2-9.212,17.2.879,23.1,29.134,36.689,62.118,39.687,99.3,4.174,51.778-10.988,97.261-44.46,136.845-2.644,3.127-4.1,3.592-7.167.413-8.191-8.5-8.254-8.266-.987-17.585C559.223-141.647,571.577-176.289,571.523-220.6Z" transform="translate(33.734 9.153)" fill="#83808a"/><path d="M428.169-393.062c46.307.313,86.563,15.421,121.544,44.944,3.471,2.93,3.954,4.637.367,7.987-8.254,7.713-8,7.829-16.8.9-27.953-22-59.531-34.459-95.226-36.236-44.744-2.226-84.017,11.478-118.064,40.349-2.9,2.461-4.352,2.541-7.021-.177-9.1-9.269-9.216-9.168.9-17.214C347.462-379.236,385.773-392.577,428.169-393.062Z" transform="translate(9.161 3.037)" fill="#83808a"/><path d="M250.823-215.737c.42-44.645,15.405-84.728,44.792-119.547,3.211-3.8,4.992-3.844,8.37-.214,7.393,7.944,7.6,7.751.975,16.078-25.23,31.714-37.761,67.9-36.9,108.352.837,39.433,14.353,74.369,39.95,104.437,3.014,3.541,3.454,5.436-.2,8.844-8.611,8.036-8.414,8.26-15.727-.866C264.881-132.6,251.146-171.307,250.823-215.737Z" transform="translate(3.053 9.089)" fill="#83808a"/><path d="M510.578-192.077c-1.693-13.452-9.82-21.858-22.305-26.466-1.834-.677-4.076-.615-5.592-2.64,14.894-8.458,18.427-21.991,15.934-37.574-2.4-15-12.571-23.207-26.41-27.638a78.283,78.283,0,0,0-19.467-4c-2.954-.167-4.3-1.221-4.157-4.386.214-4.612.054-9.241.054-13.862,0-17.3,0-17.224-17.324-16.35-2.939.148-3.81,1.1-3.739,3.9.151,5.912.044,11.831.043,17.747,0,11.8,0,11.666-11.682,11.816-3.648.048-4.805-1.047-4.7-4.691.234-8.313-.029-16.638.127-24.953.053-2.906-.9-3.924-3.808-3.8-4.428.194-8.88.216-13.306-.008-3.113-.159-4.178.84-4.1,4.036.2,8.5-.1,17.011.143,25.508.105,3.62-.95,4.82-4.638,4.731-9.607-.23-19.224-.14-28.837-.059-9.908.083-8.585-1.372-8.637,8.378-.076,13.906-.021,13.907,14.082,14.024,9.452.079,13.14,3.7,13.155,13.026q.035,23.571.007,47.14c0,12.756.022,25.512-.008,38.268-.019,8.4-2.191,10.605-10.371,10.681a80.45,80.45,0,0,1-8.314-.048c-3.239-.308-4.759.933-5.189,4.125-.766,5.67-1.572,11.345-2.681,16.954-.633,3.2.158,4.188,3.465,4.108,8.315-.2,16.638-.122,24.956-.049,12.809.113,12.809.151,12.809,12.689,0,2.033-.108,4.074.021,6.1.324,5.107-2.252,11.753,1.043,14.915,3.256,3.127,9.871.531,14.98,1.009,3.773.353,5.217-.854,5.071-4.859-.293-7.938.149-15.906-.181-23.841-.177-4.237,1.251-5.3,5.333-5.256,11.268.119,11.269-.064,11.269,11.464,0,2.034-.12,4.076.023,6.1.374,5.276-2.372,12.173,1.157,15.4,3.445,3.154,10.254.527,15.557.99,3.517.308,4.418-1.175,4.341-4.459-.183-7.945.185-15.908-.152-23.843-.194-4.568.787-6.487,5.914-6.628a97.938,97.938,0,0,0,23.958-4.044C504.931-145.936,513.785-166.589,510.578-192.077Zm-98.985-54.5q0-8.3,0-16.594c0-1.881-.094-3.795,2.678-3.85,10.873-.215,21.764-.685,32.242,3.144,8.867,3.241,13.484,9.206,13.52,17.506.034,8.146-4.637,14.061-13.685,17.32-10.263,3.7-20.962,3.6-31.65,3.671-2.96.019-3.133-1.844-3.121-4.049C411.615-235.148,411.594-240.864,411.594-246.58Zm49.974,79.866C455-162.066,447.3-160.61,439.6-159.8c-7.876.83-15.85.679-23.77,1.152-3.314.2-4.614-.794-4.47-4.308.259-6.273.073-12.565.073-18.848h.159c0-6.282.066-12.565-.031-18.845-.041-2.665.648-4.069,3.7-4.1,12.013-.14,24-.169,35.751,2.873A31.228,31.228,0,0,1,461.6-197.22C472.487-189.408,472.5-174.455,461.567-166.714Z" transform="translate(13.784 10.51)" fill="#ef9142"/></g></g></svg>