<svg height="250" viewBox="0 0 250 250" width="250" xmlns="http://www.w3.org/2000/svg" xmlns:xlink="http://www.w3.org/1999/xlink"><linearGradient id="a" gradientUnits="userSpaceOnUse" x1="210.75" x2="51.5" y1="33.75" y2="221.5"><stop offset="0" stop-color="#b6509e"/><stop offset="1" stop-color="#2ebac6"/></linearGradient><path d="m250 125c0 69.035156-55.964844 125-125 125s-125-55.964844-125-125 55.964844-125 125-125 125 55.964844 125 125zm0 0" fill="#fff"/><path d="m125 250c-8.460938.003906-16.902344-.847656-25.195312-2.539062-15.988282-3.273438-31.175782-9.667969-44.699219-18.808594-20.09375-13.566406-35.828125-32.671875-45.285157-54.996094-3.195312-7.5625-5.632812-15.417969-7.28125-23.460938-3.386718-16.625-3.386718-33.761718 0-50.382812 3.273438-15.988281 9.664063-31.179688 18.808594-44.699219 13.566406-20.097656 32.671875-35.828125 54.996094-45.289062 7.5625-3.199219 15.417969-5.636719 23.460938-7.285157 16.625-3.386718 33.761718-3.386718 50.382812 0 15.988281 3.273438 31.179688 9.664063 44.699219 18.808594 20.097656 13.566406 35.828125 32.671875 45.289062 54.996094 3.195313 7.5625 5.636719 15.417969 7.285157 23.460938 3.386718 16.625 3.386718 33.761718 0 50.382812-3.273438 15.992188-9.664063 31.179688-18.808594 44.699219-13.566406 20.09375-32.671875 35.828125-54.996094 45.285156-7.5625 3.199219-15.417969 5.640625-23.460938 7.289063-8.292968 1.691406-16.734374 2.542968-25.195312 2.539062zm0-236.609375c-7.554688 0-15.089844.757813-22.492188 2.269531-14.277343 2.921875-27.839843 8.628906-39.910156 16.792969-17.941406 12.113281-31.984375 29.171875-40.429687 49.105469-2.855469 6.75-5.03125 13.769531-6.503907 20.949218-3.023437 14.839844-3.023437 30.140626 0 44.984376 2.925782 14.277343 8.632813 27.835937 16.796876 39.90625 12.113281 17.945312 29.171874 31.992187 49.105468 40.4375 6.75 2.855468 13.769532 5.03125 20.949219 6.503906 14.84375 3.023437 30.144531 3.023437 44.984375 0 14.277344-2.925782 27.839844-8.632813 39.910156-16.796875 17.9375-12.113281 31.976563-29.171875 40.421875-49.101563 2.855469-6.75 5.03125-13.769531 6.503907-20.949218 3.023437-14.84375 3.023437-30.144532 0-44.984376-2.925782-14.277343-8.632813-27.835937-16.796876-39.90625-12.113281-17.941406-29.167968-31.988281-49.097656-40.433593-6.75-2.855469-13.769531-5.03125-20.949218-6.503907-7.402344-1.511718-14.9375-2.273437-22.492188-2.273437zm0 0" fill="url(#a)"/><path d="m125.382812 29.019531c-53.21875-.214843-96.519531 43.113281-96.363281 96.019531.152344 52.90625 43.230469 95.953126 96.019531 95.941407 52.3125-.007813 95.574219-43.054688 95.988282-94.730469.421875-52.632812-41.570313-97.015625-95.644532-97.230469zm-.796874 184.230469c-48.339844-.195312-87.832032-39.789062-87.832032-88.355469 0-48.890625 39.640625-88.210937 88.957032-88.148437 47.878906.0625 88.28125 39.820312 87.582031 89.527344-.675781 48.242187-40.464844 87.171874-88.707031 86.976562zm0 0" fill="#282138"/><path d="m124.773438 207.28125c-19.769532-.054688-38.851563-7.234375-53.746094-20.230469-1.378906-1.175781-1.597656-1.84375-.175782-3.210937 3.820313-3.667969 3.75-3.742188 7.863282-.4375 27.734375 22.285156 67.851562 21.457031 95.027344-2.015625 1.292968-1.117188 1.929687-1.128907 3.117187.082031 4.070313 4.160156 4.125 4.117188-.574219 7.824219-15.039062 11.871093-32.15625 17.796875-51.511718 17.988281zm0 0" fill="#82808a"/><g fill="#83808a"><path d="m199.605469 122.386719c-.078125-16.003907-6.285157-32.128907-18.128907-46.113281-1.109374-1.3125-1.144531-1.925782.074219-3.117188 4.09375-4.015625 4.101563-4.113281 7.675781.390625 10.257813 12.640625 16.4375 28.101563 17.71875 44.328125 1.863282 23.117188-4.90625 43.421875-19.847656 61.089844-1.179687 1.398437-1.832031 1.605468-3.199218.1875-3.65625-3.796875-3.683594-3.691406-.441407-7.851563 10.65625-13.664062 16.171875-29.128906 16.148438-48.914062zm0 0"/><path d="m124.636719 42.667969c19.917969-.089844 39.195312 7.039062 54.261719 20.066406 1.550781 1.304687 1.765624 2.070313.164062 3.5625-3.683594 3.445313-3.570312 3.496094-7.5.402344-12.089844-9.773438-26.980469-15.4375-42.511719-16.175781-19.972656-.996094-37.507812 5.125-52.707031 18.011718-1.296875 1.097656-1.941406 1.136719-3.132812-.078125-4.0625-4.136719-4.117188-4.09375.398437-7.683593 14.445313-11.679688 32.453125-18.070313 51.027344-18.105469zm0 0"/><path d="m42.738281 124.53125c.1875-19.929688 6.878907-37.824219 19.996094-53.367188 1.433594-1.699218 2.230469-1.71875 3.738281-.097656 3.300782 3.546875 3.390625 3.457032.433594 7.175782-11.125 13.621093-16.972656 30.792968-16.472656 48.371093.238281 17.164063 6.558594 33.683594 17.832031 46.625 1.347656 1.582031 1.542969 2.425781-.085937 3.949219-3.847657 3.585938-3.757813 3.6875-7.023438-.390625-12.140625-15.148437-18.273438-32.433594-18.417969-52.265625zm0 0"/></g><path d="m163.496094 135.726562c-.753906-6.007812-4.382813-9.757812-9.960938-11.816406-.816406-.304687-1.820312-.273437-2.496094-1.179687 6.648438-3.777344 8.226563-9.816407 7.113282-16.773438-1.074219-6.699219-5.613282-10.359375-11.789063-12.339843-2.8125-.964844-5.730469-1.5625-8.691406-1.789063-1.320313-.074219-1.921875-.542969-1.855469-1.953125.097656-2.058594.023438-4.125.023438-6.1875 0-7.722656 0-7.6875-7.734375-7.296875-1.3125.066406-1.699219.488281-1.667969 1.742187.066406 2.636719.019531 5.28125.019531 7.921876 0 5.273437 0 5.207031-5.214843 5.273437-1.628907.023437-2.148438-.46875-2.101563-2.09375.105469-3.710937-.011719-7.425781.058594-11.140625.023437-1.296875-.402344-1.75-1.699219-1.695312-1.976562.089843-3.964844.097656-5.941406 0-1.390625-.070313-1.867188.375-1.832032 1.804687.085938 3.792969-.046874 7.59375.0625 11.386719.046876 1.617187-.421874 2.148437-2.070312 2.113281-4.289062-.105469-8.582031-.0625-12.875-.027344-4.421875.035157-3.832031-.613281-3.855469 3.738281-.03125 6.210938-.007812 6.210938 6.289063 6.261719 4.21875.035157 5.863281 1.652344 5.871094 5.816407.011718 7.015624.011718 14.027343 0 21.042968 0 5.695313.011718 11.390625 0 17.085938-.007813 3.75-.976563 4.734375-4.628907 4.769531-1.238281.054687-2.476562.046875-3.710937-.023437-.566406-.15625-1.167969-.03125-1.625.332031-.460938.363281-.714844.925781-.691406 1.511719-.34375 2.53125-.703126 5.0625-1.199219 7.566406-.28125 1.425781.070312 1.871094 1.546875 1.835937 3.710937-.089843 7.429687-.054687 11.140625-.023437 5.71875.050781 5.71875.066406 5.71875 5.664062 0 .90625-.046875 1.820313.011719 2.722656.144531 2.28125-1.003907 5.246094.464843 6.660157 1.453125 1.394531 4.40625.234375 6.6875.449219 1.683594.15625 2.328125-.382813 2.265625-2.167969-.132812-3.546875.066406-7.101563-.082031-10.644531-.078125-1.894532.558594-2.367188 2.378906-2.34375 5.03125.050781 5.03125-.03125 5.03125 5.117187 0 .90625-.050781 1.816406.011719 2.722656.167969 2.355469-1.058594 5.433594.515625 6.875 1.539063 1.410157 4.578125.234375 6.945313.441407 1.570312.140624 1.972656-.523438 1.941406-1.988282-.082032-3.546875.082031-7.101562-.070313-10.644531-.085937-2.039063.351563-2.898437 2.636719-2.960937 3.625-.15625 7.21875-.761719 10.695312-1.804688 11.839844-3.355469 15.792969-12.578125 14.363282-23.960938zm-44.1875-24.332031c0-2.46875 0-4.9375 0-7.40625 0-.839843-.042969-1.695312 1.195312-1.71875 4.851563-.097656 9.714844-.308593 14.390625 1.402344 3.960938 1.445313 6.019531 4.109375 6.035157 7.8125.015624 3.636719-2.070313 6.277344-6.109376 7.730469-4.582031 1.652344-9.355468 1.609375-14.128906 1.640625-1.320312.007812-1.398437-.824219-1.390625-1.808594.011719-2.546875.003907-5.097656.003907-7.648437zm22.308594 35.65625c-2.929688 2.074219-6.371094 2.722657-9.804688 3.085938-3.515625.371093-7.078125.304687-10.613281.515625-1.480469.089844-2.058594-.355469-1.996094-1.921875.117187-2.800781.035156-5.609375.035156-8.414063h.070313c0-2.804687.03125-5.609375-.011719-8.414062-.019531-1.191406.292969-1.816406 1.648437-1.832032 5.363282-.0625 10.714844-.074218 15.960938 1.28125 1.6875.394532 3.285156 1.101563 4.714844 2.082032 2.28125 1.515625 3.652344 4.074218 3.652344 6.8125-.003907 2.738281-1.378907 5.296875-3.660157 6.808594zm0 0" fill="#ef9142"/></svg>