
<svg xmlns="http://www.w3.org/2000/svg" xmlns:xlink="http://www.w3.org/1999/xlink" width="250px" height="250px" viewBox="0 0 250 250" version="1.1">
<defs>
<linearGradient id="linear0" gradientUnits="userSpaceOnUse" x1="0.843" y1="0.135" x2="0.206" y2="0.886" gradientTransform="matrix(250,0,0,250,0,0)">
<stop offset="0" style="stop-color:rgb(71.372551%,31.37255%,61.960787%);stop-opacity:1;"/>
<stop offset="1" style="stop-color:rgb(18.039216%,72.941178%,77.64706%);stop-opacity:1;"/>
</linearGradient>
</defs>
<g id="surface1">
<path style=" stroke:none;fill-rule:nonzero;fill:rgb(100%,100%,100%);fill-opacity:1;" d="M 250 125 C 250 194.035156 194.035156 250 125 250 C 55.964844 250 0 194.035156 0 125 C 0 55.964844 55.964844 0 125 0 C 194.035156 0 250 55.964844 250 125 Z M 250 125 "/>
<path style=" stroke:none;fill-rule:nonzero;fill:url(#linear0);" d="M 125 250 C 116.539062 250.003906 108.097656 249.152344 99.804688 247.460938 C 83.816406 244.1875 68.628906 237.792969 55.105469 228.652344 C 35.011719 215.085938 19.277344 195.980469 9.820312 173.65625 C 6.625 166.09375 4.1875 158.238281 2.539062 150.195312 C -0.847656 133.570312 -0.847656 116.433594 2.539062 99.8125 C 5.8125 83.824219 12.203125 68.632812 21.347656 55.113281 C 34.914062 35.015625 54.019531 19.285156 76.34375 9.824219 C 83.90625 6.625 91.761719 4.1875 99.804688 2.539062 C 116.429688 -0.847656 133.566406 -0.847656 150.1875 2.539062 C 166.175781 5.8125 181.367188 12.203125 194.886719 21.347656 C 214.984375 34.914062 230.714844 54.019531 240.175781 76.34375 C 243.371094 83.90625 245.8125 91.761719 247.460938 99.804688 C 250.847656 116.429688 250.847656 133.566406 247.460938 150.1875 C 244.1875 166.179688 237.796875 181.367188 228.652344 194.886719 C 215.085938 214.980469 195.980469 230.714844 173.65625 240.171875 C 166.09375 243.371094 158.238281 245.8125 150.195312 247.460938 C 141.902344 249.152344 133.460938 250.003906 125 250 Z M 125 13.390625 C 117.445312 13.390625 109.910156 14.148438 102.507812 15.660156 C 88.230469 18.582031 74.667969 24.289062 62.597656 32.453125 C 44.65625 44.566406 30.613281 61.625 22.167969 81.558594 C 19.3125 88.308594 17.136719 95.328125 15.664062 102.507812 C 12.640625 117.347656 12.640625 132.648438 15.664062 147.492188 C 18.589844 161.769531 24.296875 175.328125 32.460938 187.398438 C 44.574219 205.34375 61.632812 219.390625 81.566406 227.835938 C 88.316406 230.691406 95.335938 232.867188 102.515625 234.339844 C 117.359375 237.363281 132.660156 237.363281 147.5 234.339844 C 161.777344 231.414062 175.339844 225.707031 187.410156 217.542969 C 205.347656 205.429688 219.386719 188.371094 227.832031 168.441406 C 230.6875 161.691406 232.863281 154.671875 234.335938 147.492188 C 237.359375 132.648438 237.359375 117.347656 234.335938 102.507812 C 231.410156 88.230469 225.703125 74.671875 217.539062 62.601562 C 205.425781 44.660156 188.371094 30.613281 168.441406 22.167969 C 161.691406 19.3125 154.671875 17.136719 147.492188 15.664062 C 140.089844 14.152344 132.554688 13.390625 125 13.390625 Z M 125 13.390625 "/>
<path style=" stroke:none;fill-rule:nonzero;fill:rgb(15.686275%,12.941177%,21.960784%);fill-opacity:1;" d="M 125.382812 29.019531 C 72.164062 28.804688 28.863281 72.132812 29.019531 125.039062 C 29.171875 177.945312 72.25 220.992188 125.039062 220.980469 C 177.351562 220.972656 220.613281 177.925781 221.027344 126.25 C 221.449219 73.617188 179.457031 29.234375 125.382812 29.019531 Z M 124.585938 213.25 C 76.246094 213.054688 36.753906 173.460938 36.753906 124.894531 C 36.753906 76.003906 76.394531 36.683594 125.710938 36.746094 C 173.589844 36.808594 213.992188 76.566406 213.292969 126.273438 C 212.617188 174.515625 172.828125 213.445312 124.585938 213.25 Z M 124.585938 213.25 "/>
<path style=" stroke:none;fill-rule:nonzero;fill:rgb(50.980395%,50.196081%,54.11765%);fill-opacity:1;" d="M 124.773438 207.28125 C 105.003906 207.226562 85.921875 200.046875 71.027344 187.050781 C 69.648438 185.875 69.429688 185.207031 70.851562 183.839844 C 74.671875 180.171875 74.601562 180.097656 78.714844 183.402344 C 106.449219 205.6875 146.566406 204.859375 173.742188 181.386719 C 175.035156 180.269531 175.671875 180.257812 176.859375 181.46875 C 180.929688 185.628906 180.984375 185.585938 176.285156 189.292969 C 161.246094 201.164062 144.128906 207.089844 124.773438 207.28125 Z M 124.773438 207.28125 "/>
<path style=" stroke:none;fill-rule:nonzero;fill:rgb(51.372552%,50.196081%,54.11765%);fill-opacity:1;" d="M 199.605469 122.386719 C 199.527344 106.382812 193.320312 90.257812 181.476562 76.273438 C 180.367188 74.960938 180.332031 74.347656 181.550781 73.15625 C 185.644531 69.140625 185.652344 69.042969 189.226562 73.546875 C 199.484375 86.1875 205.664062 101.648438 206.945312 117.875 C 208.808594 140.992188 202.039062 161.296875 187.097656 178.964844 C 185.917969 180.363281 185.265625 180.570312 183.898438 179.152344 C 180.242188 175.355469 180.214844 175.460938 183.457031 171.300781 C 194.113281 157.636719 199.628906 142.171875 199.605469 122.386719 Z M 199.605469 122.386719 "/>
<path style=" stroke:none;fill-rule:nonzero;fill:rgb(51.372552%,50.196081%,54.11765%);fill-opacity:1;" d="M 124.636719 42.667969 C 144.554688 42.578125 163.832031 49.707031 178.898438 62.734375 C 180.449219 64.039062 180.664062 64.804688 179.0625 66.296875 C 175.378906 69.742188 175.492188 69.792969 171.5625 66.699219 C 159.472656 56.925781 144.582031 51.261719 129.050781 50.523438 C 109.078125 49.527344 91.542969 55.648438 76.34375 68.535156 C 75.046875 69.632812 74.402344 69.671875 73.210938 68.457031 C 69.148438 64.320312 69.09375 64.363281 73.609375 60.773438 C 88.054688 49.09375 106.0625 42.703125 124.636719 42.667969 Z M 124.636719 42.667969 "/>
<path style=" stroke:none;fill-rule:nonzero;fill:rgb(51.372552%,50.196081%,54.11765%);fill-opacity:1;" d="M 42.738281 124.53125 C 42.925781 104.601562 49.617188 86.707031 62.734375 71.164062 C 64.167969 69.464844 64.964844 69.445312 66.472656 71.066406 C 69.773438 74.613281 69.863281 74.523438 66.90625 78.242188 C 55.78125 91.863281 49.933594 109.035156 50.433594 126.613281 C 50.671875 143.777344 56.992188 160.296875 68.265625 173.238281 C 69.613281 174.820312 69.808594 175.664062 68.179688 177.1875 C 64.332031 180.773438 64.421875 180.875 61.15625 176.796875 C 49.015625 161.648438 42.882812 144.363281 42.738281 124.53125 Z M 42.738281 124.53125 "/>
<path style=" stroke:none;fill-rule:nonzero;fill:rgb(93.725491%,56.862748%,25.882354%);fill-opacity:1;" d="M 163.496094 135.726562 C 162.742188 129.71875 159.113281 125.96875 153.535156 123.910156 C 152.71875 123.605469 151.714844 123.636719 151.039062 122.730469 C 157.6875 118.953125 159.265625 112.914062 158.152344 105.957031 C 157.078125 99.257812 152.539062 95.597656 146.363281 93.617188 C 143.550781 92.652344 140.632812 92.054688 137.671875 91.828125 C 136.351562 91.753906 135.75 91.285156 135.816406 89.875 C 135.914062 87.816406 135.839844 85.75 135.839844 83.6875 C 135.839844 75.964844 135.839844 76 128.105469 76.390625 C 126.792969 76.457031 126.40625 76.878906 126.4375 78.132812 C 126.503906 80.769531 126.457031 83.414062 126.457031 86.054688 C 126.457031 91.328125 126.457031 91.261719 121.242188 91.328125 C 119.613281 91.351562 119.09375 90.859375 119.140625 89.234375 C 119.246094 85.523438 119.128906 81.808594 119.199219 78.09375 C 119.222656 76.796875 118.796875 76.34375 117.5 76.398438 C 115.523438 76.488281 113.535156 76.496094 111.558594 76.398438 C 110.167969 76.328125 109.691406 76.773438 109.726562 78.203125 C 109.8125 81.996094 109.679688 85.796875 109.789062 89.589844 C 109.835938 91.207031 109.367188 91.738281 107.71875 91.703125 C 103.429688 91.597656 99.136719 91.640625 94.84375 91.675781 C 90.421875 91.710938 91.011719 91.0625 90.988281 95.414062 C 90.957031 101.625 90.980469 101.625 97.277344 101.675781 C 101.496094 101.710938 103.140625 103.328125 103.148438 107.492188 C 103.160156 114.507812 103.160156 121.519531 103.148438 128.535156 C 103.148438 134.230469 103.160156 139.925781 103.148438 145.621094 C 103.140625 149.371094 102.171875 150.355469 98.519531 150.390625 C 97.28125 150.445312 96.042969 150.4375 94.808594 150.367188 C 94.242188 150.210938 93.640625 150.335938 93.183594 150.699219 C 92.722656 151.0625 92.46875 151.625 92.492188 152.210938 C 92.148438 154.742188 91.789062 157.273438 91.292969 159.777344 C 91.011719 161.203125 91.363281 161.648438 92.839844 161.613281 C 96.550781 161.523438 100.269531 161.558594 103.980469 161.589844 C 109.699219 161.640625 109.699219 161.65625 109.699219 167.253906 C 109.699219 168.160156 109.652344 169.074219 109.710938 169.976562 C 109.855469 172.257812 108.707031 175.222656 110.175781 176.636719 C 111.628906 178.03125 114.582031 176.871094 116.863281 177.085938 C 118.546875 177.242188 119.191406 176.703125 119.128906 174.917969 C 118.996094 171.371094 119.195312 167.816406 119.046875 164.273438 C 118.96875 162.378906 119.605469 161.90625 121.425781 161.929688 C 126.457031 161.980469 126.457031 161.898438 126.457031 167.046875 C 126.457031 167.953125 126.40625 168.863281 126.46875 169.769531 C 126.636719 172.125 125.410156 175.203125 126.984375 176.644531 C 128.523438 178.054688 131.5625 176.878906 133.929688 177.085938 C 135.5 177.226562 135.902344 176.5625 135.871094 175.097656 C 135.789062 171.550781 135.953125 167.996094 135.800781 164.453125 C 135.714844 162.414062 136.152344 161.554688 138.4375 161.492188 C 142.0625 161.335938 145.65625 160.730469 149.132812 159.6875 C 160.972656 156.332031 164.925781 147.109375 163.496094 135.726562 Z M 119.308594 111.394531 C 119.308594 108.925781 119.308594 106.457031 119.308594 103.988281 C 119.308594 103.148438 119.265625 102.292969 120.503906 102.269531 C 125.355469 102.171875 130.21875 101.960938 134.894531 103.671875 C 138.855469 105.117188 140.914062 107.78125 140.929688 111.484375 C 140.945312 115.121094 138.859375 117.761719 134.820312 119.214844 C 130.238281 120.867188 125.464844 120.824219 120.691406 120.855469 C 119.371094 120.863281 119.292969 120.03125 119.300781 119.046875 C 119.3125 116.5 119.304688 113.949219 119.304688 111.398438 Z M 141.617188 147.050781 C 138.6875 149.125 135.246094 149.773438 131.8125 150.136719 C 128.296875 150.507812 124.734375 150.441406 121.199219 150.652344 C 119.71875 150.742188 119.140625 150.296875 119.203125 148.730469 C 119.320312 145.929688 119.238281 143.121094 119.238281 140.316406 L 119.308594 140.316406 C 119.308594 137.511719 119.339844 134.707031 119.296875 131.902344 C 119.277344 130.710938 119.589844 130.085938 120.945312 130.070312 C 126.308594 130.007812 131.660156 129.996094 136.90625 131.351562 C 138.59375 131.746094 140.191406 132.453125 141.621094 133.433594 C 143.902344 134.949219 145.273438 137.507812 145.273438 140.246094 C 145.269531 142.984375 143.894531 145.542969 141.613281 147.054688 Z M 141.617188 147.050781 "/>
</g>
</svg>
