
<svg xmlns="http://www.w3.org/2000/svg" xmlns:xlink="http://www.w3.org/1999/xlink" width="250px" height="250px" viewBox="0 0 250 250" version="1.1">
<defs>
<linearGradient id="linear0" gradientUnits="userSpaceOnUse" x1="0.843" y1="0.135" x2="0.206" y2="0.886" gradientTransform="matrix(250,0,0,250,0,0)">
<stop offset="0" style="stop-color:rgb(71.372551%,31.37255%,61.960787%);stop-opacity:1;"/>
<stop offset="1" style="stop-color:rgb(18.039216%,72.941178%,77.64706%);stop-opacity:1;"/>
</linearGradient>
</defs>
<g id="surface1">
<path style=" stroke:none;fill-rule:nonzero;fill:rgb(100%,100%,100%);fill-opacity:1;" d="M 250 125 C 250 194.035156 194.035156 250 125 250 C 55.964844 250 0 194.035156 0 125 C 0 55.964844 55.964844 0 125 0 C 194.035156 0 250 55.964844 250 125 Z M 250 125 "/>
<path style=" stroke:none;fill-rule:nonzero;fill:url(#linear0);" d="M 125 250 C 116.539062 250.003906 108.097656 249.152344 99.804688 247.460938 C 83.816406 244.1875 68.628906 237.792969 55.105469 228.652344 C 35.011719 215.085938 19.277344 195.980469 9.820312 173.65625 C 6.625 166.09375 4.1875 158.238281 2.539062 150.195312 C -0.847656 133.570312 -0.847656 116.433594 2.539062 99.8125 C 5.8125 83.824219 12.203125 68.632812 21.347656 55.113281 C 34.914062 35.015625 54.019531 19.285156 76.34375 9.824219 C 83.90625 6.625 91.761719 4.1875 99.804688 2.539062 C 116.429688 -0.847656 133.566406 -0.847656 150.1875 2.539062 C 166.175781 5.8125 181.367188 12.203125 194.886719 21.347656 C 214.984375 34.914062 230.714844 54.019531 240.175781 76.34375 C 243.371094 83.90625 245.8125 91.761719 247.460938 99.804688 C 250.847656 116.429688 250.847656 133.566406 247.460938 150.1875 C 244.1875 166.179688 237.796875 181.367188 228.652344 194.886719 C 215.085938 214.980469 195.980469 230.714844 173.65625 240.171875 C 166.09375 243.371094 158.238281 245.8125 150.195312 247.460938 C 141.902344 249.152344 133.460938 250.003906 125 250 Z M 125 13.390625 C 117.445312 13.390625 109.910156 14.148438 102.507812 15.660156 C 88.230469 18.582031 74.667969 24.289062 62.597656 32.453125 C 44.65625 44.566406 30.613281 61.625 22.167969 81.558594 C 19.3125 88.308594 17.136719 95.328125 15.664062 102.507812 C 12.640625 117.347656 12.640625 132.648438 15.664062 147.492188 C 18.589844 161.769531 24.296875 175.328125 32.460938 187.398438 C 44.574219 205.34375 61.632812 219.390625 81.566406 227.835938 C 88.316406 230.691406 95.335938 232.867188 102.515625 234.339844 C 117.359375 237.363281 132.660156 237.363281 147.5 234.339844 C 161.777344 231.414062 175.339844 225.707031 187.410156 217.542969 C 205.347656 205.429688 219.386719 188.371094 227.832031 168.441406 C 230.6875 161.691406 232.863281 154.671875 234.335938 147.492188 C 237.359375 132.648438 237.359375 117.347656 234.335938 102.507812 C 231.410156 88.230469 225.703125 74.671875 217.539062 62.601562 C 205.425781 44.660156 188.371094 30.613281 168.441406 22.167969 C 161.691406 19.3125 154.671875 17.136719 147.492188 15.664062 C 140.089844 14.152344 132.554688 13.390625 125 13.390625 Z M 125 13.390625 "/>
<path style=" stroke:none;fill-rule:nonzero;fill:rgb(0%,0%,0%);fill-opacity:1;" d="M 97.363281 194.90625 C 133.144531 194.90625 133.144531 194.375 139.210938 192.574219 C 147.140625 190.21875 116.828125 169.234375 97.363281 169.234375 C 77.898438 169.234375 62.121094 174.984375 62.121094 182.070312 C 62.121094 189.160156 77.898438 194.90625 97.363281 194.90625 Z M 97.363281 194.90625 "/>
<path style=" stroke:none;fill-rule:nonzero;fill:rgb(0%,0%,0%);fill-opacity:1;" d="M 178.613281 85.753906 L 180.257812 87.527344 L 178.820312 89.472656 C 132.152344 152.566406 105.269531 181.136719 93.863281 177.304688 C 86.917969 174.96875 79.949219 167.953125 72.984375 157.757812 C 70.535156 154.175781 68.234375 150.40625 66.148438 146.652344 C 64.753906 144.152344 63.574219 141.871094 62.964844 140.585938 C 62.324219 139.332031 61.867188 137.996094 61.597656 136.613281 L 61.566406 136.453125 C 61.457031 135.890625 61.417969 135.714844 61.335938 135.40625 C 54.785156 110.726562 63.621094 84.519531 83.78125 68.847656 C 103.941406 53.179688 131.515625 51.078125 153.816406 63.519531 L 154.058594 63.671875 C 161.742188 69.03125 169.929688 76.390625 178.613281 85.753906 Z M 150.828125 68.546875 C 130.570312 57.328125 105.570312 59.289062 87.304688 73.527344 C 69.039062 87.765625 61.035156 111.527344 66.964844 133.914062 C 67.089844 134.390625 67.148438 134.660156 67.28125 135.347656 L 67.308594 135.488281 C 67.488281 136.390625 67.792969 137.265625 68.222656 138.082031 C 68.78125 139.253906 69.90625 141.421875 71.238281 143.816406 C 73.25 147.421875 75.457031 151.046875 77.796875 154.472656 C 84.09375 163.679688 90.335938 169.96875 95.722656 171.777344 C 102.90625 174.191406 129.945312 145.566406 172.679688 87.960938 C 166.0625 80.777344 158.742188 74.273438 150.828125 68.546875 Z M 150.828125 68.546875 "/>
<path style=" stroke:none;fill-rule:nonzero;fill:rgb(92.54902%,10.980392%,47.450981%);fill-opacity:1;" d="M 150.832031 68.546875 C 130.570312 57.328125 105.570312 59.289062 87.304688 73.527344 C 69.039062 87.765625 61.035156 111.527344 66.964844 133.914062 C 67.09375 134.390625 67.148438 134.660156 67.28125 135.347656 L 67.308594 135.488281 C 67.488281 136.390625 67.792969 137.265625 68.226562 138.082031 C 68.785156 139.253906 69.90625 141.421875 71.238281 143.816406 C 73.25 147.421875 75.457031 151.046875 77.800781 154.472656 C 84.09375 163.679688 90.335938 169.96875 95.722656 171.777344 C 102.90625 174.191406 129.949219 145.570312 172.683594 87.960938 C 166.0625 80.777344 158.742188 74.273438 150.832031 68.546875 Z M 150.832031 68.546875 "/>
<path style=" stroke:none;fill-rule:nonzero;fill:rgb(0%,0%,0%);fill-opacity:1;" d="M 134.46875 194.324219 C 99.34375 194.324219 70.871094 165.851562 70.871094 130.730469 C 70.871094 95.605469 99.34375 67.132812 134.46875 67.132812 C 169.589844 67.132812 198.0625 95.605469 198.0625 130.730469 C 198.0625 165.851562 169.589844 194.324219 134.46875 194.324219 Z M 134.46875 188.488281 C 166.367188 188.488281 192.226562 162.628906 192.226562 130.730469 C 192.226562 98.828125 166.367188 72.96875 134.464844 72.96875 C 102.566406 72.96875 76.707031 98.828125 76.707031 130.730469 C 76.707031 162.628906 102.566406 188.488281 134.46875 188.488281 Z M 134.46875 188.488281 "/>
<path style=" stroke:none;fill-rule:nonzero;fill:rgb(100%,100%,100%);fill-opacity:1;" d="M 134.464844 188.488281 C 166.363281 188.492188 192.226562 162.632812 192.226562 130.730469 C 192.226562 98.832031 166.367188 72.972656 134.46875 72.96875 C 102.570312 72.96875 76.707031 98.828125 76.707031 130.726562 C 76.707031 162.625 102.566406 188.488281 134.464844 188.488281 Z M 134.464844 188.488281 "/>
<path style=" stroke:none;fill-rule:evenodd;fill:rgb(0%,0%,0%);fill-opacity:1;" d="M 91.261719 142.558594 L 83.617188 119.527344 L 90.3125 119.527344 L 94.296875 132.757812 L 98.710938 119.460938 L 104.164062 119.460938 L 108.578125 132.757812 L 112.558594 119.527344 L 119.128906 119.527344 L 111.484375 142.558594 L 105.964844 142.558594 L 101.355469 129.394531 L 96.78125 142.558594 Z M 121.640625 142.398438 L 121.640625 119.527344 L 140.042969 119.527344 L 140.042969 124.917969 L 127.917969 124.917969 L 127.917969 128.378906 L 138.898438 128.378906 L 138.898438 133.378906 L 127.917969 133.378906 L 127.917969 137.007812 L 140.203125 137.007812 L 140.203125 142.398438 Z M 149.023438 142.398438 L 149.023438 125.082031 L 142.164062 125.082031 L 142.164062 119.527344 L 162.226562 119.527344 L 162.226562 125.082031 L 155.363281 125.082031 L 155.363281 142.398438 Z M 165 142.398438 L 165 119.527344 L 171.335938 119.527344 L 171.335938 128.085938 L 179.472656 128.085938 L 179.472656 119.527344 L 185.8125 119.527344 L 185.8125 142.398438 L 179.472656 142.398438 L 179.472656 133.707031 L 171.335938 133.707031 L 171.335938 142.398438 Z M 165 142.398438 "/>
<path style=" stroke:none;fill-rule:nonzero;fill:rgb(0%,0%,0%);fill-opacity:1;" d="M 62.992188 112.648438 C 61.410156 111.824219 60.777344 109.882812 61.578125 108.285156 C 62.375 106.691406 64.308594 106.027344 65.914062 106.804688 L 75.25 111.472656 C 76.3125 111.980469 77.019531 113.027344 77.09375 114.203125 C 77.171875 115.378906 76.609375 116.507812 75.621094 117.152344 C 74.632812 117.796875 73.375 117.859375 72.328125 117.316406 Z M 62.992188 112.648438 "/>
<path style=" stroke:none;fill-rule:nonzero;fill:rgb(0%,0%,0%);fill-opacity:1;" d="M 61.921875 128.125 C 60.832031 127.65625 60.085938 126.632812 59.964844 125.453125 C 59.847656 124.273438 60.378906 123.121094 61.351562 122.445312 C 62.328125 121.765625 63.589844 121.671875 64.65625 122.191406 L 73.992188 126.5 C 75.078125 126.972656 75.828125 127.996094 75.945312 129.175781 C 76.0625 130.355469 75.53125 131.507812 74.558594 132.183594 C 73.585938 132.859375 72.320312 132.957031 71.257812 132.433594 Z M 61.921875 128.125 "/>
</g>
</svg>
