<svg height="250" viewBox="0 0 250 250" width="250" xmlns="http://www.w3.org/2000/svg" xmlns:xlink="http://www.w3.org/1999/xlink"><linearGradient id="a" gradientUnits="userSpaceOnUse" x1="210.75" x2="51.5" y1="33.75" y2="221.5"><stop offset="0" stop-color="#b6509e"/><stop offset="1" stop-color="#2ebac6"/></linearGradient><path d="m250 125c0 69.035156-55.964844 125-125 125s-125-55.964844-125-125 55.964844-125 125-125 125 55.964844 125 125zm0 0" fill="#fff"/><path d="m125 250c-8.460938.003906-16.902344-.847656-25.195312-2.539062-15.988282-3.273438-31.175782-9.667969-44.699219-18.808594-20.09375-13.566406-35.828125-32.671875-45.285157-54.996094-3.195312-7.5625-5.632812-15.417969-7.28125-23.460938-3.386718-16.625-3.386718-33.761718 0-50.382812 3.273438-15.988281 9.664063-31.179688 18.808594-44.699219 13.566406-20.097656 32.671875-35.828125 54.996094-45.289062 7.5625-3.199219 15.417969-5.636719 23.460938-7.285157 16.625-3.386718 33.761718-3.386718 50.382812 0 15.988281 3.273438 31.179688 9.664063 44.699219 18.808594 20.097656 13.566406 35.828125 32.671875 45.289062 54.996094 3.195313 7.5625 5.636719 15.417969 7.285157 23.460938 3.386718 16.625 3.386718 33.761718 0 50.382812-3.273438 15.992188-9.664063 31.179688-18.808594 44.699219-13.566406 20.09375-32.671875 35.828125-54.996094 45.285156-7.5625 3.199219-15.417969 5.640625-23.460938 7.289063-8.292968 1.691406-16.734374 2.542968-25.195312 2.539062zm0-236.609375c-7.554688 0-15.089844.757813-22.492188 2.269531-14.277343 2.921875-27.839843 8.628906-39.910156 16.792969-17.941406 12.113281-31.984375 29.171875-40.429687 49.105469-2.855469 6.75-5.03125 13.769531-6.503907 20.949218-3.023437 14.839844-3.023437 30.140626 0 44.984376 2.925782 14.277343 8.632813 27.835937 16.796876 39.90625 12.113281 17.945312 29.171874 31.992187 49.105468 40.4375 6.75 2.855468 13.769532 5.03125 20.949219 6.503906 14.84375 3.023437 30.144531 3.023437 44.984375 0 14.277344-2.925782 27.839844-8.632813 39.910156-16.796875 17.9375-12.113281 31.976563-29.171875 40.421875-49.101563 2.855469-6.75 5.03125-13.769531 6.503907-20.949218 3.023437-14.84375 3.023437-30.144532 0-44.984376-2.925782-14.277343-8.632813-27.835937-16.796876-39.90625-12.113281-17.941406-29.167968-31.988281-49.097656-40.433593-6.75-2.855469-13.769531-5.03125-20.949218-6.503907-7.402344-1.511718-14.9375-2.273437-22.492188-2.273437zm0 0" fill="url(#a)"/><path d="m97.363281 194.90625c35.78125 0 35.78125-.53125 41.847657-2.332031 7.929687-2.355469-22.382813-23.339844-41.847657-23.339844-19.464843 0-35.242187 5.75-35.242187 12.835937 0 7.089844 15.777344 12.835938 35.242187 12.835938zm0 0"/><path d="m178.613281 85.753906 1.644531 1.773438-1.4375 1.945312c-46.667968 63.09375-73.550781 91.664063-84.957031 87.832032-6.945312-2.335938-13.914062-9.351563-20.878906-19.546876-2.449219-3.582031-4.75-7.351562-6.835937-11.105468-1.394532-2.5-2.574219-4.78125-3.183594-6.066406-.640625-1.253907-1.097656-2.589844-1.367188-3.972657l-.03125-.160156c-.109375-.5625-.148437-.738281-.230468-1.046875-6.550782-24.679688 2.285156-50.886719 22.445312-66.558594 20.160156-15.667968 47.734375-17.769531 70.035156-5.328125l.242188.152344c7.683594 5.359375 15.871094 12.71875 24.554687 22.082031zm-27.785156-17.207031c-20.257813-11.21875-45.257813-9.257813-63.523437 4.980469-18.265626 14.238281-26.269532 38-20.339844 60.386718.125.476563.183594.746094.316406 1.433594l.027344.140625c.179687.902344.484375 1.777344.914062 2.59375.558594 1.171875 1.683594 3.339844 3.015625 5.734375 2.011719 3.605469 4.21875 7.230469 6.558594 10.65625 6.296875 9.207032 12.539063 15.496094 17.925781 17.304688 7.183594 2.414062 34.222656-26.210938 76.957032-83.816406-6.617188-7.183594-13.9375-13.6875-21.851563-19.414063zm0 0"/><path d="m150.832031 68.546875c-20.261719-11.21875-45.261719-9.257813-63.527343 4.980469-18.265626 14.238281-26.269532 38-20.339844 60.386718.128906.476563.183594.746094.316406 1.433594l.027344.140625c.179687.902344.484375 1.777344.917968 2.59375.558594 1.171875 1.679688 3.339844 3.011719 5.734375 2.011719 3.605469 4.21875 7.230469 6.5625 10.65625 6.292969 9.207032 12.535157 15.496094 17.921875 17.304688 7.183594 2.414062 34.226563-26.207032 76.960938-83.816406-6.621094-7.183594-13.941406-13.6875-21.851563-19.414063zm0 0" fill="#ec1c79"/><path d="m134.46875 194.324219c-35.125 0-63.597656-28.472657-63.597656-63.59375 0-35.125 28.472656-63.597657 63.597656-63.597657 35.121094 0 63.59375 28.472657 63.59375 63.597657 0 35.121093-28.472656 63.59375-63.59375 63.59375zm0-5.835938c31.898438 0 57.757812-25.859375 57.757812-57.757812 0-31.902344-25.859374-57.761719-57.761718-57.761719-31.898438 0-57.757813 25.859375-57.757813 57.761719 0 31.898437 25.859375 57.757812 57.761719 57.757812zm0 0"/><path d="m134.464844 188.488281c31.898437.003907 57.761718-25.855469 57.761718-57.757812 0-31.898438-25.859374-57.757813-57.757812-57.761719-31.898438 0-57.761719 25.859375-57.761719 57.757812 0 31.898438 25.859375 57.761719 57.757813 57.761719zm0 0" fill="#fff"/><path d="m91.261719 142.558594-7.644531-23.03125h6.695312l3.984375 13.230468 4.414063-13.296874h5.453124l4.414063 13.296874 3.980469-13.230468h6.570312l-7.644531 23.03125h-5.519531l-4.609375-13.164063-4.574219 13.164063zm30.378906-.160156v-22.871094h18.402344v5.390625h-12.125v3.460937h10.980469v5h-10.980469v3.628906h12.285156v5.390626zm27.382813 0v-17.316407h-6.859376v-5.554687h20.0625v5.554687h-6.863281v17.316407zm15.976562 0v-22.871094h6.335938v8.558594h8.136718v-8.558594h6.339844v22.871094h-6.339844v-8.691407h-8.136718v8.691407zm0 0" fill-rule="evenodd"/><path d="m62.992188 112.648438c-1.582032-.824219-2.214844-2.765626-1.414063-4.363282.796875-1.59375 2.730469-2.257812 4.335937-1.480468l9.335938 4.667968c1.0625.507813 1.769531 1.554688 1.84375 2.730469.078125 1.175781-.484375 2.304687-1.472656 2.949219-.988282.644531-2.246094.707031-3.292969.164062zm0 0"/><path d="m61.921875 128.125c-1.089844-.46875-1.835937-1.492188-1.957031-2.671875-.117188-1.179687.414062-2.332031 1.386718-3.007813.976563-.679687 2.238282-.773437 3.304688-.253906l9.335938 4.308594c1.085937.472656 1.835937 1.496094 1.953124 2.675781.117188 1.179688-.414062 2.332031-1.386718 3.007813-.972656.675781-2.238282.773437-3.300782.25zm0 0"/></svg>