<?xml version="1.0" encoding="utf-8"?>
<!-- Generator: Adobe Illustrator 25.0.1, SVG Export Plug-In . SVG Version: 6.00 Build 0)  -->
<svg version="1.1" id="Layer_1" xmlns="http://www.w3.org/2000/svg" xmlns:xlink="http://www.w3.org/1999/xlink" x="0px" y="0px"
	 viewBox="0 0 936 936" style="enable-background:new 0 0 936 936;" xml:space="preserve">
<style type="text/css">
	.st0{fill:#4C598E;}
</style>
<path class="st0" d="M132.9,467.6c0.1,1.8,0.2,3.5,0.4,5.3c0.8,7.1,3.5,13.6,7.1,19.7c21.6,37.2,43.2,74.4,64.9,111.6
	c8.9,15.3,17.8,30.7,26.8,46c3.7,6.4,9.2,10.6,16.3,12.6c3.5,1,7,0.9,10.4-0.3c5.5-2,9.8-5.5,13.2-10.3c10.9-15,21.8-30,32.7-45
	c28.7-39.5,57.4-78.9,86-118.4c2.3-3.2,4.3-6.6,5.9-10.1c4.3-9.5,4.3-19.1-0.1-28.6c-1.7-3.6-3.7-7.1-6.1-10.3
	c-27.1-37.4-54.2-74.7-81.3-112c-11.6-16-23.2-32-34.8-48c-3.4-4.7-7.6-8.4-13.2-10.4c-3.3-1.2-6.7-1.4-10.1-0.5
	c-7.1,1.9-12.7,5.9-16.5,12.3c-2.3,3.9-4.6,7.9-6.9,11.8c-24.4,42-48.8,83.9-73.2,125.9c-4.8,8.3-9.7,16.6-14.5,24.9
	C135.7,451.1,133,459,132.9,467.6z"/>
<path class="st0" d="M803.3,466.6c-0.1-1.2-0.3-3.5-0.6-5.8c-1-6.7-3.8-12.7-7.1-18.5c-22.8-39.1-45.5-78.3-68.2-117.4
	c-7.8-13.4-15.6-26.8-23.4-40.2c-3.6-6.2-8.7-10.3-15.4-12.6c-4.5-1.5-8.8-1.2-13.1,0.7c-4.7,2.1-8.4,5.4-11.4,9.6
	c-11.4,15.9-22.8,31.7-34.2,47.5c-26.1,36.2-52.2,72.4-78.2,108.7c-2,2.8-3.9,5.9-5.3,9.1c-4.6,9.9-4.6,20,0,29.9
	c1.6,3.4,3.7,6.8,5.9,9.9c30.1,41.6,60.3,83.1,90.5,124.6c8.4,11.5,16.8,23,25.1,34.6c2.6,3.6,5.7,6.4,9.6,8.5
	c5.1,2.7,10.3,3.4,15.7,1.2c1.9-0.8,3.8-1.7,5.6-2.7c4.4-2.6,7.3-6.6,9.8-10.9c23.6-40.6,47.2-81.2,70.7-121.8
	c5.6-9.6,11.1-19.2,16.8-28.8C800.4,484.7,803.2,476.6,803.3,466.6z"/>
<path class="st0" d="M471.7,762.1c38.1,0,76.1,0,114.2,0c0.8,0,1.6,0,2.4,0c8.5-0.3,15.1-3.9,19-11.7c1.1-2.3,2-4.7,2.8-7.1
	c1-3,0.6-5.8-1.4-8.4c-3.8-5.1-7.4-10.2-11.1-15.4c-29.7-40.8-59.3-81.6-89-122.5c-9.7-13.4-19.5-26.7-30.2-39.4
	c-1.2-1.5-2.5-2.9-3.7-4.4c-2.3-2.8-5.8-2.8-8,0.3c-9.3,12.8-18.8,25.5-28.1,38.3c-30.1,41.4-60.2,82.8-90.3,124.2
	c-4.2,5.8-8.5,11.5-12.4,17.4c-4.1,6.2-4.1,7.6-1.1,14.5c3.5,8.2,9.4,13.4,18.6,14.1c1.1,0.1,2.2,0.1,3.4,0.1
	C395.1,762.1,433.4,762.1,471.7,762.1z"/>
<path class="st0" d="M473,173.4c-29.5,0-59,0-88.5,0c-7.9,0-15.8-0.1-23.8,0c-8.2,0.1-14.7,3.5-18.7,10.9c-1.2,2.2-2.2,4.6-3,7
	c-1.2,3.6-0.6,7,1.8,10.2c8.2,11.2,16.3,22.4,24.4,33.6c19.3,26.8,38.7,53.5,57.9,80.4c15,21,29.8,42.2,45.7,62.6
	c0.4,0.6,0.9,1.2,1.3,1.7c1.8,2,3.5,2,5.3,0.1c0.3-0.3,0.6-0.7,0.9-1.1c9.1-10.4,17.3-21.4,25.2-32.6c28.7-41,57.9-81.7,87.2-122.3
	c5.5-7.7,11-15.3,16.6-23c2-2.7,2.7-5.6,1.5-8.8c-0.7-2-1.3-4-2.2-5.8c-3.6-7.7-9.4-12.1-18-12.8c-1.1-0.1-2.2-0.1-3.4-0.1
	C546.6,173.4,509.8,173.4,473,173.4z"/>
<path class="st0" d="M204.3,186.5c-0.1-0.1-0.2-0.1-0.3-0.2c-0.7,1.1-1.5,2.2-2.2,3.3c-60.3,91.9-120.7,183.8-181,275.8
	c-0.3,0.5-0.6,1-0.9,1.4c-0.8,1-0.7,1.9,0.1,2.8c0.3,0.3,0.4,0.7,0.7,1C78.7,559.3,136.7,648,194.8,736.7c2.1,3.2,4.2,6.4,6.3,9.6
	c-0.1-0.9-0.4-1.7-0.8-2.5c-11.3-24.1-22.6-48.2-33.9-72.3c-26.7-56.9-53.4-113.9-80.2-170.8c-4.9-10.4-9.8-20.8-14.7-31.2
	c-0.7-1.4-0.9-2.7,0-4.1c0.3-0.4,0.4-0.9,0.6-1.3c17.6-37,35.3-74,52.9-111.1c26-54.7,52.1-109.4,78.1-164.1
	C203.5,188.2,203.9,187.3,204.3,186.5z"/>
<path class="st0" d="M733.1,183.4c-0.1,0.1-0.2,0.1-0.3,0.2c0.3,0.7,0.6,1.4,0.9,2.1c27.1,56.9,54.2,113.9,81.3,170.8
	c16.7,35.1,33.4,70.1,50.1,105.2c0.8,1.8,0.8,3.2,0,4.9c-5.4,11.3-10.6,22.6-15.9,33.8c-36.2,77.2-72.5,154.4-108.7,231.6
	c-1.7,3.5-3.3,7.1-4.9,10.6c0.1,0,0.2,0.1,0.2,0.1c60.6-92.6,121.3-185.2,182-277.9C856.1,370.9,794.6,277.2,733.1,183.4z"/>
<path class="st0" d="M678.9,99.6c0-0.2,0-0.3,0-0.5c-1.7-0.2-3.5-0.4-5.2-0.6c-6.3-0.7-12.5-1.4-18.8-2.1
	c-7.7-0.9-15.4-1.8-23.1-2.7c-6.5-0.7-13-1.5-19.5-2.2c-6.3-0.7-12.5-1.4-18.8-2.1c-6.3-0.7-12.5-1.4-18.8-2.1
	c-6.3-0.7-12.5-1.4-18.8-2.2c-7.7-0.9-15.4-1.7-23.1-2.6c-7.9-0.9-15.9-1.8-23.8-2.7c-6.3-0.7-12.5-1.4-18.8-2.2
	c-6.2-0.7-12.4-1.4-18.6-2.1c-5.4-0.6-10.7,0.6-16,1.2c-7.5,0.8-15.1,1.8-22.6,2.7c-7.3,0.9-14.6,1.7-21.9,2.6
	c-7.5,0.9-14.9,1.8-22.4,2.7c-7.4,0.9-14.8,1.7-22.1,2.6c-7.5,0.9-14.9,1.8-22.4,2.7c-8.7,1-17.5,2-26.2,3.1
	c-8.8,1-17.6,2.1-26.4,3.2c-8.6,1-17.3,2-26,3c-0.2,0-0.4,0.2-0.9,0.5c2.9,0.4,5.4,0.7,7.9,1c10.2,1.2,20.3,2.3,30.5,3.6
	c12.7,1.5,25.4,3.1,38.1,4.6c13.4,1.6,26.8,3.2,40.2,4.8c12.9,1.5,25.7,3,38.6,4.5c14.1,1.7,28.2,3.4,42.4,5.1
	c2.5,0.3,4.9,0.6,7.4,0.5c3.2-0.1,6.4-0.7,9.5-1.1c7.8-0.9,15.6-1.8,23.3-2.7c6.3-0.7,12.5-1.4,18.8-2.2c6.3-0.7,12.5-1.4,18.8-2.1
	c6.2-0.7,12.4-1.4,18.6-2.1c7.8-0.9,15.6-1.8,23.3-2.7c6.3-0.7,12.5-1.5,18.8-2.2c7.6-0.9,15.2-1.7,22.9-2.6
	c6.2-0.7,12.4-1.4,18.6-2.1c7.8-0.9,15.6-1.8,23.3-2.7C670.1,100.6,674.5,100.1,678.9,99.6z"/>
<path class="st0" d="M264.5,835.6c0,0.1,0,0.2,0,0.4c6.8,0.8,13.6,1.7,20.5,2.5c7.5,0.9,14.9,1.7,22.4,2.6
	c7.5,0.9,15.1,1.8,22.6,2.7c7.4,0.9,14.8,1.8,22.1,2.7c7.3,0.9,14.6,1.7,21.9,2.6c7.5,0.9,14.9,1.8,22.4,2.6
	c7.4,0.9,14.8,1.8,22.1,2.6c7.3,0.9,14.6,1.7,21.9,2.6c7.4,0.9,14.8,1.8,22.1,2.7c2.5,0.3,5,0.6,7.4,0.4c10.4-1.1,20.8-2.4,31.2-3.6
	c11.9-1.4,23.8-2.7,35.7-4c11.8-1.4,23.7-2.8,35.5-4.1c10.5-1.2,21-2.3,31.4-3.5c11.8-1.4,23.7-2.8,35.5-4.1
	c11.8-1.4,23.7-2.7,35.5-4c1.4-0.2,2.7-0.4,4.1-0.6c-6.1-1-12.1-1.7-18.1-2.4c-6.3-0.7-12.5-1.4-18.8-2.1
	c-7.9-0.9-15.7-1.8-23.6-2.7c-6.3-0.7-12.5-1.4-18.8-2.2c-6.3-0.7-12.5-1.4-18.8-2.1c-6.4-0.7-12.9-1.5-19.3-2.2
	c-6.3-0.7-12.5-1.4-18.8-2.1c-6.3-0.7-12.5-1.4-18.8-2.1c-7.7-0.9-15.4-1.8-23.1-2.7c-7.9-0.9-15.9-1.8-23.8-2.7
	c-4.9-0.6-9.8-1.2-14.8-0.3c-3.1,0.6-6.2,0.7-9.3,1.1c-7.3,0.9-14.6,1.7-21.9,2.6c-7.4,0.9-14.8,1.8-22.1,2.7
	c-7.7,0.9-15.4,1.8-23.1,2.7c-7.4,0.9-14.8,1.7-22.1,2.6c-7.3,0.9-14.6,1.7-21.9,2.6c-7.4,0.9-14.8,1.8-22.1,2.6
	c-7.4,0.9-14.8,1.7-22.1,2.6c-7.8,0.9-15.6,1.8-23.3,2.8C270.8,834.8,267.7,835.2,264.5,835.6z"/>
</svg>
