<?xml version="1.0" standalone="no"?>
<!DOCTYPE svg PUBLIC "-//W3C//DTD SVG 20010904//EN"
 "http://www.w3.org/TR/2001/REC-SVG-20010904/DTD/svg10.dtd">
<svg version="1.0" xmlns="http://www.w3.org/2000/svg"
 width="512.000000pt" height="512.000000pt" viewBox="0 0 512.000000 512.000000"
 preserveAspectRatio="xMidYMid meet">

<g transform="translate(0.000000,512.000000) scale(0.100000,-0.100000)"
fill="#000000" stroke="none">
<path d="M2365 4685 c-49 -7 -155 -20 -235 -29 -155 -18 -292 -35 -515 -62
-158 -20 -169 -16 110 -48 77 -9 194 -23 260 -31 66 -8 176 -21 245 -30 353
-42 323 -42 670 0 133 16 313 37 525 60 288 32 279 28 120 48 -77 10 -196 24
-265 32 -322 36 -404 46 -522 60 -148 17 -267 18 -393 0z"/>
<path d="M1930 4163 c-28 -10 -59 -46 -71 -81 -13 -39 -17 -32 170 -287 154
-211 211 -291 331 -460 144 -204 213 -295 223 -295 13 0 63 61 152 185 47 66
181 253 297 415 321 447 292 402 279 442 -6 19 -23 46 -37 59 l-26 24 -651 2
c-359 1 -659 -1 -667 -4z"/>
<path d="M4040 4057 c0 -3 30 -68 66 -144 36 -76 103 -217 149 -313 45 -96
107 -227 138 -290 97 -204 258 -542 303 -637 l44 -92 -56 -118 c-31 -65 -100
-213 -155 -330 -54 -116 -128 -273 -164 -348 -36 -76 -65 -139 -65 -140 0 -2
-24 -54 -54 -116 -175 -370 -179 -379 -172 -379 2 0 20 24 39 53 18 28 87 133
152 232 65 99 160 243 210 320 51 77 135 205 187 285 52 80 147 224 210 320
136 208 141 217 132 233 -10 16 -172 264 -299 457 -56 85 -155 236 -220 335
-189 288 -297 452 -373 569 -40 60 -72 107 -72 103z"/>
<path d="M1019 3951 c-31 -47 -112 -171 -181 -276 -139 -212 -263 -402 -376
-575 -41 -63 -112 -171 -157 -240 -45 -69 -108 -165 -139 -213 l-57 -88 44
-67 c24 -37 84 -128 132 -202 117 -180 281 -428 374 -570 42 -63 78 -119 81
-125 3 -5 54 -84 114 -175 60 -91 125 -190 144 -220 45 -68 55 -81 46 -55 -4
11 -10 25 -14 30 -4 6 -31 62 -60 125 -29 63 -75 162 -102 220 -28 58 -64 134
-80 170 -52 111 -94 201 -146 312 -28 59 -61 128 -73 155 -12 26 -46 100 -76
163 -71 149 -113 240 -113 244 0 2 36 80 81 172 45 93 99 206 120 252 95 200
121 256 189 397 40 83 91 191 115 240 23 50 77 162 119 249 42 87 75 160 74
161 -2 1 -28 -36 -59 -84z"/>
<path d="M1345 3636 c-17 -7 -35 -19 -41 -27 -12 -15 -204 -339 -204 -345 0
-2 -52 -92 -115 -200 -64 -108 -127 -217 -141 -243 -15 -25 -43 -76 -65 -112
-43 -74 -57 -143 -40 -204 6 -22 54 -115 107 -205 53 -91 107 -185 121 -210
111 -198 310 -530 332 -553 37 -38 78 -48 121 -30 35 14 57 41 225 273 38 52
104 143 147 203 43 59 115 158 160 220 45 61 106 145 136 185 66 90 91 145 92
197 0 50 -18 84 -119 224 -45 61 -118 162 -163 224 -158 218 -209 288 -275
380 -174 241 -196 259 -278 223z"/>
<path d="M3663 3603 c-18 -16 -92 -111 -164 -213 -172 -241 -306 -427 -409
-570 -94 -129 -120 -179 -120 -230 0 -66 10 -80 362 -562 43 -60 115 -159 160
-220 174 -240 186 -255 222 -272 34 -16 38 -16 78 2 24 10 48 25 54 33 11 13
229 384 282 478 14 25 69 120 122 211 136 231 133 226 134 300 1 69 -11 99
-89 230 -49 82 -309 529 -335 575 -78 141 -134 226 -159 244 -42 31 -99 28
-138 -6z"/>
<path d="M2468 1973 c-158 -215 -536 -737 -614 -849 -34 -50 -35 -52 -21 -86
8 -19 27 -44 42 -56 l28 -22 678 0 678 0 25 23 c14 12 32 39 41 59 l15 37 -87
118 c-48 65 -116 159 -152 208 -36 50 -88 122 -116 160 -29 39 -107 147 -175
240 -152 210 -220 295 -236 295 -6 0 -54 -57 -106 -127z"/>
<path d="M2435 664 c-178 -24 -268 -36 -355 -44 -47 -5 -141 -16 -210 -24 -69
-9 -168 -21 -220 -27 -52 -6 -101 -15 -108 -19 -7 -3 33 -12 90 -19 340 -40
613 -73 801 -97 116 -14 138 -15 250 0 67 8 187 22 267 31 80 9 195 23 255 30
61 8 157 19 215 25 154 16 217 26 200 32 -8 3 -80 13 -160 23 -80 9 -203 23
-275 31 -71 8 -191 21 -265 30 -74 8 -187 21 -250 29 -63 8 -119 14 -125 14
-5 -1 -55 -8 -110 -15z"/>
</g>
</svg>
