<svg height="250" viewBox="0 0 250 250" width="250" xmlns="http://www.w3.org/2000/svg" xmlns:xlink="http://www.w3.org/1999/xlink"><linearGradient id="a" gradientTransform="matrix(0 -.25 -.25 0 242.262497 242.725006)" gradientUnits="userSpaceOnUse" x1="722.150024" x2="76.110001" y1="544.650024" y2="147.080002"><stop offset="0" stop-color="#00aeef"/><stop offset="1" stop-color="#fff"/></linearGradient><linearGradient id="b" gradientTransform="matrix(0 -.25 -.25 0 242.262497 242.725006)" gradientUnits="userSpaceOnUse" x1="646.969971" x2="309.019989" y1="835.669983" y2="284.649994"><stop offset="0" stop-color="#3499cc"/><stop offset="1" stop-color="#2e3192"/></linearGradient><path d="m234.984375 56.859375v79.027344c0 5.527343-2.132813 10.75-5.75 14.046875l-27.695313 25.34375-71.085937 65.046875c-5.089844 4.660156-12.078125 4.660156-17.167969 0l-71.082031-65.046875 54.945313-50.277344 20.035156 18.335938c2.777344 2.542968 6.59375 2.542968 9.371094 0l20.039062-18.335938 54.945312-50.28125 25.101563-22.96875c3.441406-3.152344 8.34375-.148438 8.34375 5.109375zm0 0" fill="url(#a)"/><path d="m201.539062 74.71875-54.945312 50.28125-20.039062-18.335938c-2.777344-2.542968-6.59375-2.542968-9.371094 0l-20.039063 18.335938-54.941406 50.277344-24.726563 22.625-.382812.347656c-3.4375 3.148438-8.34375.144531-8.34375-5.109375v-79.023437c0-5.53125 2.132812-10.75 5.75-14.058594l27.703125-25.339844 71.074219-65.039062c5.09375-4.664063 12.089844-4.664063 17.183594 0zm0 0" fill="url(#b)"/><path d="m201.539062 74.71875-54.945312 50.277344 48.355469-56.304688zm0 0" fill="#2e3192"/><path d="m42.203125 175.277344 54.941406-50.28125-48.351562 56.3125zm0 0" fill="#00aeef"/></svg>