
<svg xmlns="http://www.w3.org/2000/svg" xmlns:xlink="http://www.w3.org/1999/xlink" width="250px" height="250px" viewBox="0 0 250 250" version="1.1">
<defs>
<linearGradient id="linear0" gradientUnits="userSpaceOnUse" x1="0.843" y1="0.135" x2="0.206" y2="0.886" gradientTransform="matrix(250,0,0,250,0,0)">
<stop offset="0" style="stop-color:rgb(71.372551%,31.37255%,61.960787%);stop-opacity:1;"/>
<stop offset="1" style="stop-color:rgb(18.039216%,72.941178%,77.64706%);stop-opacity:1;"/>
</linearGradient>
<linearGradient id="linear1" gradientUnits="userSpaceOnUse" x1="1" y1="0.527" x2="0" y2="0.53" gradientTransform="matrix(191.40625,0,0,191.40625,29.296875,29.296875)">
<stop offset="0" style="stop-color:rgb(2.745098%,36.862746%,71.372551%);stop-opacity:1;"/>
<stop offset="1" style="stop-color:rgb(1.176471%,46.666667%,98.823529%);stop-opacity:1;"/>
</linearGradient>
</defs>
<g id="surface1">
<path style=" stroke:none;fill-rule:nonzero;fill:rgb(100%,100%,100%);fill-opacity:1;" d="M 250 125 C 250 194.035156 194.035156 250 125 250 C 55.964844 250 0 194.035156 0 125 C 0 55.964844 55.964844 0 125 0 C 194.035156 0 250 55.964844 250 125 Z M 250 125 "/>
<path style=" stroke:none;fill-rule:nonzero;fill:url(#linear0);" d="M 125 250 C 116.539062 250.003906 108.097656 249.152344 99.804688 247.460938 C 83.816406 244.1875 68.628906 237.792969 55.105469 228.652344 C 35.011719 215.085938 19.277344 195.980469 9.820312 173.65625 C 6.625 166.09375 4.1875 158.238281 2.539062 150.195312 C -0.847656 133.570312 -0.847656 116.433594 2.539062 99.8125 C 5.8125 83.824219 12.203125 68.632812 21.347656 55.113281 C 34.914062 35.015625 54.019531 19.285156 76.34375 9.824219 C 83.90625 6.625 91.761719 4.1875 99.804688 2.539062 C 116.429688 -0.847656 133.566406 -0.847656 150.1875 2.539062 C 166.175781 5.8125 181.367188 12.203125 194.886719 21.347656 C 214.984375 34.914062 230.714844 54.019531 240.175781 76.34375 C 243.371094 83.90625 245.8125 91.761719 247.460938 99.804688 C 250.847656 116.429688 250.847656 133.566406 247.460938 150.1875 C 244.1875 166.179688 237.796875 181.367188 228.652344 194.886719 C 215.085938 214.980469 195.980469 230.714844 173.65625 240.171875 C 166.09375 243.371094 158.238281 245.8125 150.195312 247.460938 C 141.902344 249.152344 133.460938 250.003906 125 250 Z M 125 13.390625 C 117.445312 13.390625 109.910156 14.148438 102.507812 15.660156 C 88.230469 18.582031 74.667969 24.289062 62.597656 32.453125 C 44.65625 44.566406 30.613281 61.625 22.167969 81.558594 C 19.3125 88.308594 17.136719 95.328125 15.664062 102.507812 C 12.640625 117.347656 12.640625 132.648438 15.664062 147.492188 C 18.589844 161.769531 24.296875 175.328125 32.460938 187.398438 C 44.574219 205.34375 61.632812 219.390625 81.566406 227.835938 C 88.316406 230.691406 95.335938 232.867188 102.515625 234.339844 C 117.359375 237.363281 132.660156 237.363281 147.5 234.339844 C 161.777344 231.414062 175.339844 225.707031 187.410156 217.542969 C 205.347656 205.429688 219.386719 188.371094 227.832031 168.441406 C 230.6875 161.691406 232.863281 154.671875 234.335938 147.492188 C 237.359375 132.648438 237.359375 117.347656 234.335938 102.507812 C 231.410156 88.230469 225.703125 74.671875 217.539062 62.601562 C 205.425781 44.660156 188.371094 30.613281 168.441406 22.167969 C 161.691406 19.3125 154.671875 17.136719 147.492188 15.664062 C 140.089844 14.152344 132.554688 13.390625 125 13.390625 Z M 125 13.390625 "/>
<path style=" stroke:none;fill-rule:nonzero;fill:url(#linear1);" d="M 220.703125 125 C 220.703125 177.855469 177.855469 220.703125 125 220.703125 C 72.144531 220.703125 29.296875 177.855469 29.296875 125 C 29.296875 72.144531 72.144531 29.296875 125 29.296875 C 177.855469 29.296875 220.703125 72.144531 220.703125 125 Z M 220.703125 125 "/>
<path style=" stroke:none;fill-rule:nonzero;fill:rgb(100%,100%,100%);fill-opacity:1;" d="M 133.289062 126.414062 C 135.625 127.839844 137.886719 129.382812 140.0625 131.042969 C 142.753906 133.363281 145.328125 135.816406 147.769531 138.394531 C 151.503906 142.277344 153.117188 147.132812 153.894531 152.359375 C 155.203125 161.148438 152.769531 168.710938 147.429688 175.796875 C 139.910156 185.785156 123.300781 189.652344 113.390625 185.105469 C 107.910156 182.589844 102.953125 179.457031 99.753906 174.691406 C 94.871094 167.417969 91.785156 159.332031 95.394531 150.304688 C 96.328125 147.972656 97.203125 145.617188 98.191406 143.054688 C 94.457031 143.800781 90.769531 144.53125 87.058594 145.273438 C 86.417969 142.714844 85.789062 140.503906 85.375 138.25 C 85.445312 137.582031 85.855469 137 86.460938 136.710938 C 94.65625 134.976562 102.882812 133.386719 111.078125 131.648438 C 112.535156 131.339844 112.945312 131.769531 113.105469 133.066406 C 113.679688 137.734375 114.261719 142.402344 114.910156 147.058594 C 115.390625 150.53125 115.910156 154.007812 116.546875 157.449219 C 116.8125 158.898438 116.488281 159.5625 114.984375 159.695312 C 112.785156 159.886719 110.589844 160.175781 108.320312 160.429688 C 107.628906 155.839844 106.992188 151.613281 106.257812 146.710938 C 103.191406 152.222656 101.136719 157.113281 103.230469 162.863281 C 104.902344 167.453125 107.234375 171.660156 111.28125 174.398438 C 117.800781 178.816406 124.878906 180.039062 132.410156 176.855469 C 136.59375 175.199219 140.132812 172.234375 142.492188 168.40625 C 145.726562 163.355469 146.664062 157.167969 145.070312 151.386719 C 143.832031 146.066406 140.449219 141.492188 135.726562 138.75 C 134.003906 137.949219 132.992188 136.128906 133.222656 134.246094 C 133.378906 131.636719 133.402344 129.023438 133.289062 126.414062 Z M 133.289062 126.414062 "/>
<path style=" stroke:none;fill-rule:nonzero;fill:rgb(100%,100%,100%);fill-opacity:1;" d="M 152.367188 104.902344 L 163.125 101.253906 C 163.894531 103.464844 164.742188 105.519531 165.261719 107.652344 C 165.222656 108.472656 164.765625 109.21875 164.050781 109.625 C 156.839844 112.394531 149.59375 115.089844 142.320312 117.703125 C 139.242188 118.816406 139.253906 118.558594 138.4375 115.410156 C 136.832031 109.242188 134.945312 103.148438 133.1875 97.019531 C 132.707031 95.34375 132.257812 93.65625 131.730469 91.738281 C 134.082031 90.898438 136.484375 90.207031 138.921875 89.667969 C 139.410156 89.582031 140.484375 91.167969 140.804688 92.144531 C 141.503906 94.257812 141.839844 96.484375 142.417969 98.640625 C 142.703125 99.707031 143.1875 100.710938 143.726562 102.132812 C 146.101562 97.785156 146.28125 93.511719 145.5625 89.171875 C 144.558594 82.46875 140.339844 76.679688 134.261719 73.675781 C 130.96875 72.035156 127.328125 71.210938 123.644531 71.269531 C 115.789062 71.40625 109.597656 75.203125 105.425781 81.925781 C 100.738281 89.617188 101.539062 99.453125 107.40625 106.285156 C 109.746094 108.75 112.328125 110.976562 115.113281 112.925781 C 116.421875 113.703125 117.191406 115.148438 117.109375 116.667969 C 117.019531 119.222656 117.085938 121.777344 117.085938 124.914062 C 114.816406 123.339844 112.875 122.15625 111.121094 120.742188 C 107.859375 118.105469 104.589844 115.460938 101.535156 112.597656 C 97.226562 108.550781 95.253906 103.207031 94.382812 97.558594 C 92.683594 87.90625 96.023438 78.054688 103.234375 71.421875 C 111.070312 63.839844 120.617188 61.476562 131.320312 63.796875 C 138.925781 65.417969 145.539062 70.070312 149.636719 76.675781 C 154.003906 83.402344 155.4375 91.621094 153.605469 99.429688 C 153.246094 101.136719 152.835938 102.828125 152.367188 104.902344 Z M 152.367188 104.902344 "/>
<path style=" stroke:none;fill-rule:nonzero;fill:rgb(100%,100%,100%);fill-opacity:1;" d="M 129.25 85.6875 L 129.25 164 C 126.75 164 124.375 164.039062 122.003906 163.984375 C 120.28125 163.949219 120.808594 162.558594 120.808594 161.640625 C 120.78125 149.226562 120.777344 136.808594 120.796875 124.394531 C 120.796875 112.382812 120.847656 100.371094 120.753906 88.351562 C 120.738281 86.265625 121.25 85.429688 123.425781 85.644531 C 125.246094 85.832031 127.101562 85.6875 129.25 85.6875 Z M 129.25 85.6875 "/>
</g>
</svg>
