<svg height="250" viewBox="0 0 250 250" width="250" xmlns="http://www.w3.org/2000/svg" xmlns:xlink="http://www.w3.org/1999/xlink"><linearGradient id="a" gradientUnits="userSpaceOnUse" x1="210.75" x2="51.5" y1="33.75" y2="221.5"><stop offset="0" stop-color="#b6509e"/><stop offset="1" stop-color="#2ebac6"/></linearGradient><linearGradient id="b" gradientUnits="userSpaceOnUse" x1="220.703125" x2="29.296875" y1="130.16796875" y2="130.7421875"><stop offset="0" stop-color="#075eb6"/><stop offset="1" stop-color="#0377fc"/></linearGradient><path d="m250 125c0 69.035156-55.964844 125-125 125s-125-55.964844-125-125 55.964844-125 125-125 125 55.964844 125 125zm0 0" fill="#fff"/><path d="m125 250c-8.460938.003906-16.902344-.847656-25.195312-2.539062-15.988282-3.273438-31.175782-9.667969-44.699219-18.808594-20.09375-13.566406-35.828125-32.671875-45.285157-54.996094-3.195312-7.5625-5.632812-15.417969-7.28125-23.460938-3.386718-16.625-3.386718-33.761718 0-50.382812 3.273438-15.988281 9.664063-31.179688 18.808594-44.699219 13.566406-20.097656 32.671875-35.828125 54.996094-45.289062 7.5625-3.199219 15.417969-5.636719 23.460938-7.285157 16.625-3.386718 33.761718-3.386718 50.382812 0 15.988281 3.273438 31.179688 9.664063 44.699219 18.808594 20.097656 13.566406 35.828125 32.671875 45.289062 54.996094 3.195313 7.5625 5.636719 15.417969 7.285157 23.460938 3.386718 16.625 3.386718 33.761718 0 50.382812-3.273438 15.992188-9.664063 31.179688-18.808594 44.699219-13.566406 20.09375-32.671875 35.828125-54.996094 45.285156-7.5625 3.199219-15.417969 5.640625-23.460938 7.289063-8.292968 1.691406-16.734374 2.542968-25.195312 2.539062zm0-236.609375c-7.554688 0-15.089844.757813-22.492188 2.269531-14.277343 2.921875-27.839843 8.628906-39.910156 16.792969-17.941406 12.113281-31.984375 29.171875-40.429687 49.105469-2.855469 6.75-5.03125 13.769531-6.503907 20.949218-3.023437 14.839844-3.023437 30.140626 0 44.984376 2.925782 14.277343 8.632813 27.835937 16.796876 39.90625 12.113281 17.945312 29.171874 31.992187 49.105468 40.4375 6.75 2.855468 13.769532 5.03125 20.949219 6.503906 14.84375 3.023437 30.144531 3.023437 44.984375 0 14.277344-2.925782 27.839844-8.632813 39.910156-16.796875 17.9375-12.113281 31.976563-29.171875 40.421875-49.101563 2.855469-6.75 5.03125-13.769531 6.503907-20.949218 3.023437-14.84375 3.023437-30.144532 0-44.984376-2.925782-14.277343-8.632813-27.835937-16.796876-39.90625-12.113281-17.941406-29.167968-31.988281-49.097656-40.433593-6.75-2.855469-13.769531-5.03125-20.949218-6.503907-7.402344-1.511718-14.9375-2.273437-22.492188-2.273437zm0 0" fill="url(#a)"/><path d="m220.703125 125c0 52.855469-42.847656 95.703125-95.703125 95.703125s-95.703125-42.847656-95.703125-95.703125 42.847656-95.703125 95.703125-95.703125 95.703125 42.847656 95.703125 95.703125zm0 0" fill="url(#b)"/><g fill="#fff"><path d="m133.289062 126.414062c2.335938 1.425782 4.597657 2.96875 6.773438 4.628907 2.691406 2.320312 5.265625 4.773437 7.707031 7.351562 3.734375 3.882813 5.347657 8.738281 6.125 13.964844 1.308594 8.789063-1.125 16.351563-6.464843 23.4375-7.519532 9.988281-24.128907 13.855469-34.039063 9.308594-5.480469-2.515625-10.4375-5.648438-13.636719-10.414063-4.882812-7.273437-7.96875-15.359375-4.359375-24.386718.933594-2.332032 1.808594-4.6875 2.796875-7.25-3.734375.746093-7.421875 1.476562-11.132812 2.21875-.640625-2.558594-1.269532-4.769532-1.683594-7.023438.070312-.667969.480469-1.25 1.085938-1.539062 8.195312-1.734376 16.421874-3.324219 24.617187-5.0625 1.457031-.308594 1.867187.121093 2.027344 1.417968.574219 4.667969 1.15625 9.335938 1.804687 13.992188.480469 3.472656 1 6.949218 1.636719 10.390625.265625 1.449219-.058594 2.113281-1.5625 2.246093-2.199219.191407-4.394531.480469-6.664063.734376-.691406-4.589844-1.328124-8.816407-2.0625-13.71875-3.066406 5.511718-5.121093 10.402343-3.027343 16.152343 1.671875 4.589844 4.003906 8.796875 8.050781 11.535157 6.519531 4.417968 13.597656 5.640624 21.128906 2.457031 4.183594-1.65625 7.722656-4.621094 10.082032-8.449219 3.234374-5.050781 4.171874-11.238281 2.578124-17.019531-1.238281-5.320313-4.621093-9.894531-9.34375-12.636719-1.722656-.800781-2.734374-2.621094-2.503906-4.503906.15625-2.609375.179688-5.222656.066406-7.832032zm0 0"/><path d="m152.367188 104.902344 10.757812-3.648438c.769531 2.210938 1.617188 4.265625 2.136719 6.398438-.039063.820312-.496094 1.566406-1.210938 1.972656-7.210937 2.769531-14.457031 5.464844-21.730469 8.078125-3.078124 1.113281-3.066406.855469-3.882812-2.292969-1.605469-6.167968-3.492188-12.261718-5.25-18.390625-.480469-1.675781-.929688-3.363281-1.457031-5.28125 2.351562-.839843 4.753906-1.53125 7.191406-2.070312.488281-.085938 1.5625 1.5 1.882813 2.476562.699218 2.113281 1.035156 4.339844 1.613281 6.496094.285156 1.066406.769531 2.070313 1.308593 3.492187 2.375-4.347656 2.554688-8.621093 1.835938-12.960937-1.003906-6.703125-5.222656-12.492187-11.300781-15.496094-3.292969-1.640625-6.933594-2.464843-10.617188-2.40625-7.855469.136719-14.046875 3.933594-18.21875 10.65625-4.6875 7.691407-3.886719 17.527344 1.980469 24.359375 2.339844 2.464844 4.921875 4.691406 7.707031 6.640625 1.308594.777344 2.078125 2.222657 1.996094 3.742188-.089844 2.554687-.023437 5.109375-.023437 8.246093-2.269532-1.574218-4.210938-2.757812-5.964844-4.171874-3.261719-2.636719-6.53125-5.28125-9.585938-8.144532-4.308594-4.046875-6.28125-9.390625-7.152344-15.039062-1.699218-9.652344 1.640626-19.503906 8.851563-26.136719 7.835937-7.582031 17.382813-9.945313 28.085937-7.625 7.605469 1.621094 14.21875 6.273437 18.316407 12.878906 4.367187 6.726563 5.800781 14.945313 3.96875 22.753907-.359375 1.707031-.769531 3.398437-1.238281 5.472656zm0 0"/><path d="m129.25 85.6875v78.3125c-2.5 0-4.875.039062-7.246094-.015625-1.722656-.035156-1.195312-1.425781-1.195312-2.34375-.027344-12.414063-.03125-24.832031-.011719-37.246094 0-12.011719.050781-24.023437-.042969-36.042969-.015625-2.085937.496094-2.921874 2.671875-2.707031 1.820313.1875 3.675781.042969 5.824219.042969zm0 0"/></g></svg>