<svg height="250" viewBox="0 0 250 250" width="250" xmlns="http://www.w3.org/2000/svg" xmlns:xlink="http://www.w3.org/1999/xlink"><linearGradient id="a" gradientUnits="userSpaceOnUse" x1="210.75" x2="51.5" y1="33.75" y2="221.5"><stop offset="0" stop-color="#b6509e"/><stop offset="1" stop-color="#2ebac6"/></linearGradient><path d="m250 125c0 69.035156-55.964844 125-125 125s-125-55.964844-125-125 55.964844-125 125-125 125 55.964844 125 125zm0 0" fill="#fff"/><path d="m125 250c-8.460938.003906-16.902344-.847656-25.195312-2.539062-15.988282-3.273438-31.175782-9.667969-44.699219-18.808594-20.09375-13.566406-35.828125-32.671875-45.285157-54.996094-3.195312-7.5625-5.632812-15.417969-7.28125-23.460938-3.386718-16.625-3.386718-33.761718 0-50.382812 3.273438-15.988281 9.664063-31.179688 18.808594-44.699219 13.566406-20.097656 32.671875-35.828125 54.996094-45.289062 7.5625-3.199219 15.417969-5.636719 23.460938-7.285157 16.625-3.386718 33.761718-3.386718 50.382812 0 15.988281 3.273438 31.179688 9.664063 44.699219 18.808594 20.097656 13.566406 35.828125 32.671875 45.289062 54.996094 3.195313 7.5625 5.636719 15.417969 7.285157 23.460938 3.386718 16.625 3.386718 33.761718 0 50.382812-3.273438 15.992188-9.664063 31.179688-18.808594 44.699219-13.566406 20.09375-32.671875 35.828125-54.996094 45.285156-7.5625 3.199219-15.417969 5.640625-23.460938 7.289063-8.292968 1.691406-16.734374 2.542968-25.195312 2.539062zm0-236.609375c-7.554688 0-15.089844.757813-22.492188 2.269531-14.277343 2.921875-27.839843 8.628906-39.910156 16.792969-17.941406 12.113281-31.984375 29.171875-40.429687 49.105469-2.855469 6.75-5.03125 13.769531-6.503907 20.949218-3.023437 14.839844-3.023437 30.140626 0 44.984376 2.925782 14.277343 8.632813 27.835937 16.796876 39.90625 12.113281 17.945312 29.171874 31.992187 49.105468 40.4375 6.75 2.855468 13.769532 5.03125 20.949219 6.503906 14.84375 3.023437 30.144531 3.023437 44.984375 0 14.277344-2.925782 27.839844-8.632813 39.910156-16.796875 17.9375-12.113281 31.976563-29.171875 40.421875-49.101563 2.855469-6.75 5.03125-13.769531 6.503907-20.949218 3.023437-14.84375 3.023437-30.144532 0-44.984376-2.925782-14.277343-8.632813-27.835937-16.796876-39.90625-12.113281-17.941406-29.167968-31.988281-49.097656-40.433593-6.75-2.855469-13.769531-5.03125-20.949218-6.503907-7.402344-1.511718-14.9375-2.273437-22.492188-2.273437zm0 0" fill="url(#a)"/><path d="m177.367188 158.394531c6.933593 9.324219 14.09375 18.863281 21.246093 28.40625-14.308593 16.910157-32.089843 27.753907-53.554687 32.304688-23.851563 4.988281-46.398438 1.300781-68.300782-10.839844 19.515626-14.53125 38.597657-28.835937 57.894532-43.144531 4.335937 4.121094 8.453125 8.238281 12.574218 12.144531 4.554688 4.335937 2.820313 4.550781 8.671876 1.300781 7.96875-4.542968 14.792968-10.847656 19.949218-18.429687.21875-.433594.652344-.867188.867188-1.300781-.214844 0 0 0 .652344-.433594zm-85.214844 19.082031c-5.417969 4.121094-10.40625 7.804688-15.394532 11.710938-3.683593 2.816406-7.371093 5.417969-11.054687 8.238281-1.519531 1.300781-2.601563 1.300781-4.339844-.21875-16.476562-14.746093-26.882812-32.957031-30.789062-54.636719-3.90625-21.902343-.433594-42.714843 9.976562-62.445312.214844-.433594.648438-1.085938.867188-1.519531 0-.214844.214843-.214844.648437-.433594 14.3125 18.863281 28.839844 37.730469 43.148438 56.589844-.308594.542969-.671875 1.050781-1.082032 1.519531-4.339843 4.550781-8.675781 9.105469-13.226562 13.441406-1.300781 1.300782-1.519531 2.386719-.652344 3.90625 4.507813 8.539063 10.878906 15.949219 18.648438 21.679688 1.082031.652344 1.949218 1.300781 3.25 2.167968zm80.875-134.648437c-6.933594 4.988281-13.875 9.976563-20.8125 14.746094-11.925782 8.457031-23.851563 17.128906-35.5625 25.585937-1.515625 1.085938-2.601563 1.300782-3.90625-.214844-3.90625-4.121093-8.019532-7.804687-11.925782-11.925781-.914062-1.070312-2.457031-1.339843-3.683593-.652343-9.09375 4.703124-16.90625 11.550781-22.761719 19.949218-.484375.539063-.921875 1.117188-1.300781 1.734375-3.46875-4.554687-6.722657-8.671875-9.976563-13.007812-3.46875-4.554688-6.71875-9.109375-9.972656-13.445313-1.082031-1.515625-1.300781-2.601562.21875-4.121094 16.699219-18.429687 37.292969-29.269531 62.011719-31.871093 19.511719-2.167969 38.160156 1.734375 55.503906 11.058593.652344.433594 1.300781.648438 1.953125 1.082032 0 .648437 0 .867187.214844 1.082031zm35.34375 130.09375c-4.554688-5.851563-8.671875-11.273437-12.792969-16.699219-9.539063-12.574218-19.078125-25.367187-28.835937-37.941406-1.300782-1.734375-1.300782-2.820312.214843-4.339844 4.121094-4.117187 8.023438-8.238281 12.144531-12.359375 1.082032-1.082031 1.515626-2.167969.648438-3.683593-4.679688-9.046876-11.4375-16.847657-19.726562-22.765626-.683594-.558593-1.410157-1.066406-2.167969-1.519531.652343-.648437 1.300781-1.082031 1.734375-1.515625 8.238281-6.289062 16.480468-12.359375 24.71875-18.648437 1.300781-1.082031 2.382812-1.515625 3.90625 0 20.597656 18.648437 31.65625 41.847656 32.738281 69.816406.414063 16.046875-3.242187 31.933594-10.621094 46.183594-.792969 1.074219-1.449219 2.242187-1.960937 3.472656zm0 0" fill="#231815"/></svg>