
<svg xmlns="http://www.w3.org/2000/svg" xmlns:xlink="http://www.w3.org/1999/xlink" width="250px" height="250px" viewBox="0 0 250 250" version="1.1">
<defs>
<linearGradient id="linear0" gradientUnits="userSpaceOnUse" x1="0.843" y1="0.135" x2="0.206" y2="0.886" gradientTransform="matrix(250,0,0,250,0,0)">
<stop offset="0" style="stop-color:rgb(71.372551%,31.37255%,61.960787%);stop-opacity:1;"/>
<stop offset="1" style="stop-color:rgb(18.039216%,72.941178%,77.64706%);stop-opacity:1;"/>
</linearGradient>
</defs>
<g id="surface1">
<path style=" stroke:none;fill-rule:nonzero;fill:rgb(100%,100%,100%);fill-opacity:1;" d="M 250 125 C 250 194.035156 194.035156 250 125 250 C 55.964844 250 0 194.035156 0 125 C 0 55.964844 55.964844 0 125 0 C 194.035156 0 250 55.964844 250 125 Z M 250 125 "/>
<path style=" stroke:none;fill-rule:nonzero;fill:url(#linear0);" d="M 125 250 C 116.539062 250.003906 108.097656 249.152344 99.804688 247.460938 C 83.816406 244.1875 68.628906 237.792969 55.105469 228.652344 C 35.011719 215.085938 19.277344 195.980469 9.820312 173.65625 C 6.625 166.09375 4.1875 158.238281 2.539062 150.195312 C -0.847656 133.570312 -0.847656 116.433594 2.539062 99.8125 C 5.8125 83.824219 12.203125 68.632812 21.347656 55.113281 C 34.914062 35.015625 54.019531 19.285156 76.34375 9.824219 C 83.90625 6.625 91.761719 4.1875 99.804688 2.539062 C 116.429688 -0.847656 133.566406 -0.847656 150.1875 2.539062 C 166.175781 5.8125 181.367188 12.203125 194.886719 21.347656 C 214.984375 34.914062 230.714844 54.019531 240.175781 76.34375 C 243.371094 83.90625 245.8125 91.761719 247.460938 99.804688 C 250.847656 116.429688 250.847656 133.566406 247.460938 150.1875 C 244.1875 166.179688 237.796875 181.367188 228.652344 194.886719 C 215.085938 214.980469 195.980469 230.714844 173.65625 240.171875 C 166.09375 243.371094 158.238281 245.8125 150.195312 247.460938 C 141.902344 249.152344 133.460938 250.003906 125 250 Z M 125 13.390625 C 117.445312 13.390625 109.910156 14.148438 102.507812 15.660156 C 88.230469 18.582031 74.667969 24.289062 62.597656 32.453125 C 44.65625 44.566406 30.613281 61.625 22.167969 81.558594 C 19.3125 88.308594 17.136719 95.328125 15.664062 102.507812 C 12.640625 117.347656 12.640625 132.648438 15.664062 147.492188 C 18.589844 161.769531 24.296875 175.328125 32.460938 187.398438 C 44.574219 205.34375 61.632812 219.390625 81.566406 227.835938 C 88.316406 230.691406 95.335938 232.867188 102.515625 234.339844 C 117.359375 237.363281 132.660156 237.363281 147.5 234.339844 C 161.777344 231.414062 175.339844 225.707031 187.410156 217.542969 C 205.347656 205.429688 219.386719 188.371094 227.832031 168.441406 C 230.6875 161.691406 232.863281 154.671875 234.335938 147.492188 C 237.359375 132.648438 237.359375 117.347656 234.335938 102.507812 C 231.410156 88.230469 225.703125 74.671875 217.539062 62.601562 C 205.425781 44.660156 188.371094 30.613281 168.441406 22.167969 C 161.691406 19.3125 154.671875 17.136719 147.492188 15.664062 C 140.089844 14.152344 132.554688 13.390625 125 13.390625 Z M 125 13.390625 "/>
<path style=" stroke:none;fill-rule:nonzero;fill:rgb(13.725491%,9.411765%,8.235294%);fill-opacity:1;" d="M 177.367188 158.394531 C 184.300781 167.71875 191.460938 177.257812 198.613281 186.800781 C 184.304688 203.710938 166.523438 214.554688 145.058594 219.105469 C 121.207031 224.09375 98.660156 220.40625 76.757812 208.265625 C 96.273438 193.734375 115.355469 179.429688 134.652344 165.121094 C 138.988281 169.242188 143.105469 173.359375 147.226562 177.265625 C 151.78125 181.601562 150.046875 181.816406 155.898438 178.566406 C 163.867188 174.023438 170.691406 167.71875 175.847656 160.136719 C 176.066406 159.703125 176.5 159.269531 176.714844 158.835938 C 176.5 158.835938 176.714844 158.835938 177.367188 158.402344 Z M 92.152344 177.476562 C 86.734375 181.597656 81.746094 185.28125 76.757812 189.1875 C 73.074219 192.003906 69.386719 194.605469 65.703125 197.425781 C 64.183594 198.726562 63.101562 198.726562 61.363281 197.207031 C 44.886719 182.460938 34.480469 164.25 30.574219 142.570312 C 26.667969 120.667969 30.140625 99.855469 40.550781 80.125 C 40.765625 79.691406 41.199219 79.039062 41.417969 78.605469 C 41.417969 78.390625 41.632812 78.390625 42.066406 78.171875 C 56.378906 97.035156 70.90625 115.902344 85.214844 134.761719 C 84.90625 135.304688 84.542969 135.8125 84.132812 136.28125 C 79.792969 140.832031 75.457031 145.386719 70.90625 149.722656 C 69.605469 151.023438 69.386719 152.109375 70.253906 153.628906 C 74.761719 162.167969 81.132812 169.578125 88.902344 175.308594 C 89.984375 175.960938 90.851562 176.609375 92.152344 177.476562 Z M 173.027344 42.828125 C 166.09375 47.816406 159.152344 52.804688 152.214844 57.574219 C 140.289062 66.03125 128.363281 74.703125 116.652344 83.160156 C 115.136719 84.246094 114.050781 84.460938 112.746094 82.945312 C 108.839844 78.824219 104.726562 75.140625 100.820312 71.019531 C 99.90625 69.949219 98.363281 69.679688 97.136719 70.367188 C 88.042969 75.070312 80.230469 81.917969 74.375 90.316406 C 73.890625 90.855469 73.453125 91.433594 73.074219 92.050781 C 69.605469 87.496094 66.351562 83.378906 63.097656 79.042969 C 59.628906 74.488281 56.378906 69.933594 53.125 65.597656 C 52.042969 64.082031 51.824219 62.996094 53.34375 61.476562 C 70.042969 43.046875 90.636719 32.207031 115.355469 29.605469 C 134.867188 27.4375 153.515625 31.339844 170.859375 40.664062 C 171.511719 41.097656 172.160156 41.3125 172.8125 41.746094 C 172.8125 42.394531 172.8125 42.613281 173.027344 42.828125 Z M 208.371094 172.921875 C 203.816406 167.070312 199.699219 161.648438 195.578125 156.222656 C 186.039062 143.648438 176.5 130.855469 166.742188 118.28125 C 165.441406 116.546875 165.441406 115.460938 166.957031 113.941406 C 171.078125 109.824219 174.980469 105.703125 179.101562 101.582031 C 180.183594 100.5 180.617188 99.414062 179.75 97.898438 C 175.070312 88.851562 168.3125 81.050781 160.023438 75.132812 C 159.339844 74.574219 158.613281 74.066406 157.855469 73.613281 C 158.507812 72.964844 159.15625 72.53125 159.589844 72.097656 C 167.828125 65.808594 176.070312 59.738281 184.308594 53.449219 C 185.609375 52.367188 186.691406 51.933594 188.214844 53.449219 C 208.8125 72.097656 219.871094 95.296875 220.953125 123.265625 C 221.367188 139.3125 217.710938 155.199219 210.332031 169.449219 C 209.539062 170.523438 208.882812 171.691406 208.371094 172.921875 Z M 208.371094 172.921875 "/>
</g>
</svg>
