<svg xmlns="http://www.w3.org/2000/svg" xmlns:xlink="http://www.w3.org/1999/xlink" width="600" height="600" viewBox="0 0 600 600"><defs><linearGradient id="a" x1="0.843" y1="0.135" x2="0.206" y2="0.886" gradientUnits="objectBoundingBox"><stop offset="0" stop-color="#b6509e"/><stop offset="1" stop-color="#2ebac6"/></linearGradient><clipPath id="c"><rect width="600" height="600"/></clipPath></defs><g id="b" clip-path="url(#c)"><path d="M-461,16584a282.152,282.152,0,0,1-56.43-5.689A278.714,278.714,0,0,1-569.989,16562a279.879,279.879,0,0,1-47.562-25.816,281.908,281.908,0,0,1-41.439-34.189,282.092,282.092,0,0,1-34.191-41.439A279.938,279.938,0,0,1-719,16412.988a278.581,278.581,0,0,1-16.315-52.56A282.074,282.074,0,0,1-741,16304a282.074,282.074,0,0,1,5.688-56.43A278.581,278.581,0,0,1-719,16195.011a280.059,280.059,0,0,1,25.816-47.563,282,282,0,0,1,34.191-41.438,282.062,282.062,0,0,1,41.439-34.191A280.058,280.058,0,0,1-569.989,16046a278.57,278.57,0,0,1,52.559-16.315A282.1,282.1,0,0,1-461,16024a282.1,282.1,0,0,1,56.43,5.688A278.568,278.568,0,0,1-352.011,16046a280.059,280.059,0,0,1,47.562,25.815,282.07,282.07,0,0,1,41.439,34.191,282,282,0,0,1,34.191,41.438A280.073,280.073,0,0,1-203,16195.011a278.559,278.559,0,0,1,16.315,52.559A282.066,282.066,0,0,1-181,16304a282.066,282.066,0,0,1-5.689,56.43,278.583,278.583,0,0,1-16.315,52.56,279.941,279.941,0,0,1-25.816,47.563,282.087,282.087,0,0,1-34.191,41.439,281.917,281.917,0,0,1-41.439,34.189A279.889,279.889,0,0,1-352.011,16562a278.707,278.707,0,0,1-52.559,16.316A282.154,282.154,0,0,1-461,16584Zm0-530a251.866,251.866,0,0,0-50.384,5.079,248.733,248.733,0,0,0-46.928,14.567,249.955,249.955,0,0,0-42.466,23.05,251.827,251.827,0,0,0-37,30.527,251.764,251.764,0,0,0-30.527,37,250.02,250.02,0,0,0-23.05,42.466,248.736,248.736,0,0,0-14.567,46.928A251.844,251.844,0,0,0-711,16304a251.844,251.844,0,0,0,5.079,50.384,248.793,248.793,0,0,0,14.567,46.928,250.029,250.029,0,0,0,23.05,42.467,251.933,251.933,0,0,0,30.527,37,252.012,252.012,0,0,0,37,30.527,250.162,250.162,0,0,0,42.466,23.051,248.874,248.874,0,0,0,46.928,14.564A251.767,251.767,0,0,0-461,16554a251.767,251.767,0,0,0,50.384-5.08,248.86,248.86,0,0,0,46.928-14.564,250.155,250.155,0,0,0,42.466-23.051,251.893,251.893,0,0,0,37-30.527,251.934,251.934,0,0,0,30.527-37,250.046,250.046,0,0,0,23.05-42.467,248.792,248.792,0,0,0,14.567-46.928A251.838,251.838,0,0,0-211,16304a251.838,251.838,0,0,0-5.079-50.384,248.74,248.74,0,0,0-14.567-46.928,250,250,0,0,0-23.05-42.466,251.77,251.77,0,0,0-30.527-37,251.831,251.831,0,0,0-37-30.527,249.951,249.951,0,0,0-42.466-23.05,248.723,248.723,0,0,0-46.928-14.567A251.867,251.867,0,0,0-461,16054Z" transform="translate(761.001 -16003.998)" fill="url(#a)"/><path d="M358.381,315.638c15.542,20.885,31.57,42.255,47.6,63.625-32.055,37.884-71.882,62.168-119.965,72.367-53.426,11.171-103.937,2.914-152.992-24.284,43.712-32.541,86.452-64.6,129.679-96.652,9.714,9.228,18.942,18.456,28.17,27.2,10.2,9.714,6.314,10.2,19.427,2.914a134.689,134.689,0,0,0,44.683-41.283c.486-.971,1.457-1.943,1.943-2.914-.486,0,0,0,1.457-.971ZM167.506,358.379c-12.142,9.228-23.313,17.485-34.484,26.227-8.257,6.314-16.513,12.142-24.77,18.456-3.4,2.914-5.828,2.914-9.714-.486C61.626,369.55,38.313,328.752,29.571,280.183c-8.742-49.054-.971-95.68,22.342-139.878.486-.971,1.457-2.428,1.943-3.4,0-.486.486-.486,1.457-.971,32.055,42.255,64.6,84.51,96.652,126.764a20.56,20.56,0,0,1-2.428,3.4c-9.714,10.2-19.428,20.4-29.627,30.113-2.914,2.914-3.4,5.343-1.457,8.742a143.693,143.693,0,0,0,41.769,48.569C162.649,354.979,164.592,356.436,167.506,358.379ZM348.668,56.767c-15.542,11.171-31.084,22.342-46.626,33.027-26.713,18.942-53.426,38.369-79.653,57.311-3.4,2.428-5.828,2.914-8.742-.486-8.742-9.228-17.97-17.485-26.713-26.713-2.428-2.428-4.857-2.914-8.257-1.457-20.885,10.685-37.4,25.741-51,44.683a26.938,26.938,0,0,0-2.914,3.885c-7.771-10.2-15.056-19.428-22.342-29.141-7.771-10.2-15.056-20.4-22.342-30.113-2.428-3.4-2.914-5.828.486-9.228,37.4-41.283,83.538-65.568,138.907-71.4,43.712-4.857,85.481,3.886,124.336,24.77,1.457.971,2.914,1.457,4.371,2.428C348.182,55.8,348.182,56.281,348.668,56.767Zm79.167,291.413c-10.2-13.114-19.428-25.256-28.656-37.4-21.37-28.17-42.741-56.825-64.6-85-2.914-3.886-2.914-6.314.486-9.714,9.228-9.228,17.97-18.456,27.2-27.684,2.429-2.428,3.4-4.857,1.457-8.257a143.973,143.973,0,0,0-44.2-51,42.009,42.009,0,0,0-4.857-3.4c1.457-1.457,2.914-2.428,3.886-3.4,18.456-14.085,36.912-27.684,55.368-41.769,2.914-2.428,5.343-3.4,8.742,0,46.14,41.769,70.91,93.738,73.339,156.391.971,36.427-7.285,70.91-23.8,103.452A36.807,36.807,0,0,0,427.835,348.179Z" transform="translate(58.918 59.171)" fill="#231815"/></g></svg>