<svg height="250" viewBox="0 0 250 250" width="250" xmlns="http://www.w3.org/2000/svg"><path d="m0 125v125h250v-250h-250zm193.125-14c0 .1875-1.5625 4.0625-3.4375 8.625l-3.5 8.3125 3.0625 7.125c1.6875 3.9375 3.25 7.75 3.5 8.5625l.5 1.4375-17.25-.375-2.4375-5.8125c-1.375-3.1875-2.625-5.625-2.8125-5.5-.125.1875-.25 2.875-.1875 6l.125 5.625h-17.5625v-34.4375l8.625.1875 8.5625.1875v5.8125c0 3.125.25 5.6875.5625 5.5625s1.5-2.5625 2.6875-5.4375c1.25-2.9375 2.4375-5.625 2.6875-5.9375.5-.625 16.875-.5625 16.875.0625zm-123.5 16 5.875 17.1875c.1875.625-1.6875.8125-8.1875.8125h-8.4375l-1.5-4.5-1.5625-4.5625-1.375 4.5625-1.375 4.5h-8.375c-4.625 0-8.4375-.1875-8.4375-.5 0-.25 2.5625-7.9375 5.75-17.1875l5.8125-16.6875h16.25zm42.25-15.8125c0 .3125-1.8125 4.5-4.0625 9.375l-4.0625 9.125c0 .1875 1.8125.3125 4.0625.3125h4.0625v15h-34.3125l1.125-2.6875 4.375-9.4375c1.75-3.6875 3.1875-6.875 3.1875-7s-1.9375-.25-4.375-.25h-4.375v-15h17.1875c9.625 0 17.1875.25 17.1875.5625zm19.5 8.3125c.125 6.375.375 8.9375 1 9.125.5625.1875.75-1.875.75-8.875v-9.125h16.875v10.4375c0 9.6875-.125 10.75-1.5 13.625-3.0625 6.625-8.875 10.3125-16.375 10.3125-5.4375 0-9.6875-1.9375-13.375-6.0625-3.625-4.125-4.375-7.3125-4.375-18.75v-9.5625h16.8125zm81.125 8.3125v17.1875h-16.875v-34.375h16.875zm0 0"/></svg>