<svg xmlns="http://www.w3.org/2000/svg" width="99.99" height="99.99" viewBox="0 0 900 900">
  <defs>
    <style>
      .cls-1 {
        fill: #fff;
      }

      .cls-1, .cls-2 {
        fill-rule: evenodd;
      }
    </style>
  </defs>
  <path id="Color_Fill_2" data-name="Color Fill 2" class="cls-1" d="M423,75h6c8.157,10.3,23.136,17.349,34,25,20.524,14.453,39.3,32.894,61,46-0.631,1.754-.193.971-1,2-1.237,4.088-3.959,6.655-6,10-12.7-5.775-23.7-14.848-35-22-18.043-11.423-35.68-22.437-53-34-7.292-4.869-29.053-14.634-32-22Zm26,0h29c5.633,8.357,15.963,14.936,24,21,10.688,8.064,19.316,19.93,30,28,5.68,4.29,14.435,8.83,17,16-3.249,2.518-5.895,7.415-8,11l-1-1c-7.009-4.1-12.589-10.383-19-15-16.641-11.984-32.488-23.878-49-36-8.952-6.572-16.7-15.766-26-22V76C448.076,75.628,447.925,75.758,449,75Zm43,3c50.18-.163,54.749,38.342,84,58l-1,1c-2.345,2.384-11.9,8.232-14,7-13.7-7.011-22.243-21.105-34-30C514.522,104.56,500.4,91.3,492,78ZM381,80c11.335,1.921,22.143,13.4,31,19,21.464,13.579,43.107,26.247,64,40,6.551,4.312,25.482,12.205,28,19l-7,7c-1.754-.631-0.971-0.193-2-1-13.306-3.185-27.878-14.2-39-21-4.516-2.761-9.478-3.248-14-6-15.921-9.689-33.638-19.087-50-28-8.116-4.421-34.513-14.1-38-21C361.19,87.281,375.917,84.12,381,80Zm157,4c10.029,3.609,29.491,5.106,37,11,4.134,3.245,6.113,11.413,9,16,6.378,10.135,14.663,19.781,20,31h-5c-2.759-1.777-11.373-1.811-15-2l-13-13c-7.549-9.985-15.494-18.759-23-29C544.627,93.4,539.85,90.352,538,84ZM334,94c12.306,1.515,24.93,11.722,35,17,16.657,8.731,33.317,15.318,50,24,10.32,5.371,21.374,12.3,32,17,7.994,3.536,33.8,12.659,37,19-3.432,2.931-2.552,6.78-8,8-11.551-8.635-28.3-11.969-42-18-27.61-12.157-56.3-25.862-84-38-8.75-3.834-40.339-13.573-44-20C315.137,102.4,330.57,96.829,334,94Zm249,7c5.837,1.319,33.38,12.977,35,17,4.479,5.805,6.122,16.007,9,23h-6c-3.366-2.2-10.348-2.548-14-4C600.759,124.313,587.057,114.915,583,101Zm-291,9c13.082,2.92,26.214,10.958,38,16,31.153,13.328,62.528,25.026,93,38,8.086,3.443,42.184,13.608,44,20-2.966,3.111-2.8,6.862-8,8-9.819-7.269-25.089-8.087-37-13-33.527-13.829-70.46-24.2-104-38-11.489-4.727-23.321-7.61-34-12-5.163-2.122-11.513-1.252-14-6C276.807,121.286,287.344,114.652,292,110Zm350,36c-0.585,10.664-6.02,21-9,30-6.369,19.225-10.934,38.676-17,57-11.837,35.755-20.5,72.185-32,107-5.059,15.309-7.056,30.724-13,45-2.73-1.452-6.574-3.088-8-6,7.311-11.075,8.428-33.186,13-47,13.4-40.484,22.781-84.457,36-125,4.774-14.641,7.549-29.318,12-43,2.046-6.291,1.389-13.4,5-18,1.295-.877,2.467-0.894,5-1a5.291,5.291,0,0,0,6,0,34.094,34.094,0,0,1-8-1q-4.5-13.5-9-27h2c3.107,3.9,7.842,5.087,12,8,10.1,7.074,19.669,16.229,31,22v2h-4C659.494,146.1,648.36,146.026,642,146ZM253,131c17.86,3.475,36.474,11.8,53,18,31.9,11.962,64.767,20.34,96,32,12.186,4.549,24.5,7.712,36,12,5.171,1.928,11.574,1.363,14,6-2.424,1.916-3.636,5.075-5,8-17.3-3.362-35.758-9.674-52-15-34.973-11.469-70.973-17.9-105-29-13.614-4.44-27.3-6.823-40-11-5.787-1.9-14.349-1.021-17-6C239.243,142.471,248.963,136.83,253,131ZM554,342h-8c0.8-16.678,5.912-34.918,10-50,6.4-23.593,7.89-48.368,14-71,7.082-26.23,6.207-55.894,16-80,3.983,0.713,11.028,1.209,15,2v2c-3.743,5.657-2.889,13.616-5,21-3.437,12.023-5.277,24.944-9,38-7,24.533-10.736,50.4-18,76C563.486,299.436,556.752,321.054,554,342Zm-8-195h13a418.757,418.757,0,0,1-10,58c-5.031,20.331-5.22,41.661-10,61-2.892,11.7-1.9,37.185-8,45-1.756-1.325-5.183-1.675-7-3-1.049-1.549-1.031-4.085-1-7,5.3-8.69,4.105-35.729,7-48,3.553-15.063,3.113-31.782,7-48A402.964,402.964,0,0,0,546,147Zm123,5c5.688,0.912,10.23,4.645,15,7-25.86,62.606-46.206,128.6-72,191-6.679,16.16-11.658,32.593-18,48-2.423,5.887-1.561,14.158-8,16-2.7-2.663-4.318-1.862-5-7,3.58-4.909,3.49-11.893,6-18,7.182-17.476,11.475-36.683,19-55,10.922-26.586,19.111-56.4,30-83,3.722-9.092,4.271-17.911,8-27,6.4-15.612,10.817-32.375,17-49C663.7,167.736,667.648,160.686,669,152ZM433,225c-10.584.018-20.349-3.551-29-6-12.651-3.581-25.454-4.738-37-8-36.741-10.38-76-13.879-112-24-14.316-4.025-28.683-5.381-42-9-5.18-1.408-11.478-.052-14-4,6.429-4.39,9.126-13.355,19-14,4.348,2.863,10.359,2.271,16,4,16.456,5.045,33.794,7.738,51,13l149,38v5C433.123,221.3,433.106,222.467,433,225Zm63,44q3.5-36,7-72c2.092-9.532-1.664-22.867,3-30,2.805-2.683,7.8-4.9,12-6v4L508,270h-5C501.451,268.951,498.915,268.969,496,269Zm206-90c4.3,2.552,11.822,7.462,13,13-3.271,3.875-3.763,8.933-6,14-6.787,15.375-13.915,30.93-21,47-18.268,41.433-38.748,83.568-57,125-6.828,15.5-12.786,30.447-20,45-2.551,5.145-3.017,13.388-8,16v-1c-3.742-1.147-5.282-2.727-6-7,5.286-6.008,6.654-16.163,10-24,7.788-18.244,14.795-37.084,23-56,15.33-35.341,30.708-72.643,46-108C685.325,221.439,691.988,199.652,702,179ZM420,232v10c-12.271.051-25.3-2.512-36-5-17.582-4.09-35.579-3.186-52-7l-15-1c-25.673-6.117-55.313-5.943-81-12-17.47-4.119-35.558-3.164-52-7-6.406-1.5-13.686.322-18-3,5.9-4.718,8.46-15.286,17-17,4.6,2.817,10.958,1.48,17,3,16.184,4.072,33.846,4.585,51,9,30.773,7.921,64.287,8.893,96,17,14.207,3.632,29.689,4.093,45,8C400.442,229.154,410.014,231.629,420,232Zm56-41c2.467,1.295.681-.429,2,2-2.772,4.318-2.088,15.812-2,22h-2c-1.691-5.5-6.162-9.342-9-14C468.62,198.7,473.609,194.581,476,191Zm256,20c5.149,1.174,12.292,5.148,13,11-4.875,5.11-6.446,12.458-10,19-7.285,13.41-13.777,28.482-22,42-23.871,39.241-44.039,82.65-66,123-7.7,14.139-14.606,28.4-22,42-3.5,6.44-5,14.135-10,19v-1c-2.885-2.089-4.574-4.288-5-9,5.2-5.871,7.229-14.753,11-22,9.933-19.088,18.816-39.425,29-59,18.555-35.665,35.168-72.772,54-109,6.422-12.354,12.361-25.225,19-38C725.956,223.312,730.164,217.784,732,211ZM407,252q-1,5-2,10L139,241v-1c6.791-7.154,5.085-16.328,20-16,4.645,2.794,11.806.6,18,2,16.768,3.779,35.156,1.982,53,6,25.283,5.693,53.915,3.136,80,9,14.074,3.164,29.814,1.589,45,5A270.122,270.122,0,0,0,407,252Zm352-8c4.925,1.66,11.01,9.482,12,15-5.2,4.385-7.3,12.063-11,18-7.942,12.755-15.731,25.867-24,39-23.118,36.716-46.857,74.311-70,111-9.308,14.756-18.022,29.6-27,44-3.561,5.712-5.862,15.038-12,18-2.046-3.054-4.635-4.161-6-8,5.479-4.646,7.117-12.673,11-19,10.947-17.836,20.775-36.707,32-55,22.045-35.925,41.76-73.6,64-110,7.11-11.638,13.585-24.009,21-36C752.264,255.722,756.907,250.436,759,244ZM393,272c-0.322,3.456-1.249,6.9-3,9-5.34,3.382-36.045,1.111-45,1-3.522-2.177-12.692-1-18-1H116c0.273-2.572,6.894-19.422,8-20h11Zm389,7c6.1,3.024,7.779,11.9,13,16-8.488,17.56-23.992,32.385-35,48-26.047,36.947-51.964,73.03-78,110-13.619,19.338-32.05,37.591-43,59-0.8-1.021-.355-0.274-1-2-2.531-1.805-5.179-6.6-4-9,1.825-6.051,6.823-10.253,10-15,7.728-11.545,15.516-22.817,23-34,26.393-39.44,51.715-78.5,78-118,8.815-13.246,17.956-26.406,27-40C775.208,289.177,780,285.064,782,279ZM102,301l281-7v2c-5.993,7.137-1.335,8.524-16,8-3.954,2.39-11.554-.181-17,1-10.693,2.319-25.3.693-36,3H296L98,320v-5C100.317,311.779,101.447,305.61,102,301ZM88,344l123-12,55-4c13.682-3.023,29.176-.728,44-4,15.994-3.53,35.507-4.755,53-5v2c-0.961,1.418-.976,3.273-1,6-2.95,1.588-5.721,2.075-11,2-6.412,3.869-16.69,1.111-25,3-18.653,4.241-39.221,2.508-59,7-18.5,4.2-40.469,3.8-59,8l-17,1c-18.658,4.229-39.161,2.507-59,7-14.3,3.239-31.539,5.2-47,6v-2C87.127,355.794,87.726,348.471,88,344Zm709-19c4.2,3.4,7.5,13.272,8,20L650,531l-1-1a13.011,13.011,0,0,1-6-5c7.977-5.793,13.128-17,19-25,10.585-14.43,22.218-28.3,33-43,22.256-30.341,46.539-59.377,69-90C774.387,352.839,787.389,339.97,797,325ZM80,403c0.686,9.793,6.4,16.687,8,26,14.181-1.307,29.17-6.327,42-10,26.132-7.481,52.893-10.842,78-18,31.776-9.059,64.279-13.291,95-22,9.491-2.69,18.549-2.786,27-6v10c-20.715,2-42.957,10.208-62,16-39.261,11.941-79.593,18.353-118,30-14.7,4.457-29.147,6.8-43,11-5.831,1.767-13.928,1.141-16,4-5.652,5.769-8.548,18.427-16,22V426c3.732-6.153,2.166-30.46,5-39,12.519-.063,26-3.306,37-6,19.188-4.7,38.949-4.59,57-9l26-3c24.275-5.9,50.57-5.87,76-12,16.173-3.9,33.73-3.852,51-8,5.078-1.22,16.832-4.8,21-3,1.142,1.69,1.066,4.9,1,8l-1,1c-18.594.341-42.974,6.574-60,11l-17,2c-31.429,8.165-65.478,9.627-98,18-17.464,4.5-36.456,5.244-55,10C106.428,398.968,93.171,402.537,80,403Zm728-38c2.984,2.625,8.334,21.611,7,24L656,554h-1c-1-4.027-2.886-6-4-10,0.259-4.19,5.932-6.939,9-11,10.029-13.275,23.165-23.973,33-37,25.122-33.276,56.988-60.653,82-94C782.254,392.329,804.32,375.534,808,365Zm13,42h2q1,13,2,26c-4.312,1.529-4.889,4.652-8,7-11.408,8.609-20.838,19.573-32,28-30.886,23.317-57.109,51.726-88,75-10.82,8.152-20.471,24.459-34,29v-1a13.2,13.2,0,0,1-4-6c-0.963-.739,6-8.488,8-10,10.674-8.052,19.3-17.97,29-27,17.277-16.085,33.086-34.723,52-49l24-25c10.122-7.64,17.139-18.556,27-26C806.723,422.17,815.664,415.08,821,407Zm-511,1c0.564,3.637,2.025,4.837,1,7-10.866,7.845-32.283,9.9-46,15-33.2,12.348-68.809,22.637-102,35-12.19,4.541-24.5,7.721-36,12-5.117,1.9-12.443,1.594-15,6,3.67,3.775,1.32,12.934-1,20-6.092,18.55-14.884,36.838-20,55H90c-1.168-7.966-11.078-31.422-9-39,1.2-4.379,5.953-9.889,8-14,5.6-11.243,9.719-21.928,15-33,2.2,2.008,2.164,3.08,4,3-1.5-1.624-1.552-2.023-2-5,15.514-1.57,31.192-9.421,45-14,33.994-11.272,67.005-18.672,101-30C270.223,419.928,289.916,410.976,310,408ZM116,499c3.588,0.55,11.34,6.067,12,5-0.8-1.021-.355-0.274-1-2l161-58q1,5,2,10c-15.254,3.018-30.436,11.327-44,17-24.747,10.35-49.329,16.592-74,27-12.165,5.132-25.816,12.953-40,15-0.842-2.389-.4-1.645-2-3-0.62,32.027-15.181,63.653-22,91-0.8-1.021-.355-0.274-1-2-3.143-3.372-3.209-8.1-5-13-1.7-4.658-5.024-10.9-6-16-1.292-6.75,4.173-15.915,6-21ZM91,449c4.98,3.989,6.461,11.563,11,16-4.09,16.739-16.357,30.179-21,47H79v-9c-1.832-2.759-4.553-28.562-3-31C78.722,463.253,86.856,457.008,91,449Zm732,4h2v25c-16.064,9.967-29.939,23.932-45,35-21.525,15.818-42.453,31.2-64,47-11.376,8.344-22.267,17.565-34,26-4.3,3.09-7.556,8.021-13,10v-1a20.047,20.047,0,0,1-5-11c13.432-6.786,23.283-20.205,35-29,25.666-19.264,48.574-41.917,74-61,11.834-8.881,22.358-19.334,34-28C812.372,462,819.175,458.463,823,453ZM263,487c2.543,1.455,1.128-.217,2,3-1.05,1.438-1.558,3.922-2,6-8.749,2.187-16.55,8.122-24,12-14.041,7.309-27.954,12.7-42,20-5.307,2.758-17.823,12.857-23,11-3.711-1.109-8.636-4.41-10-8,8.132-1.873,15.082-6.961,22-10,15.392-6.762,30.333-13.557,45-20C240.094,497.005,256.423,493.177,263,487Zm558,13c3.04,5.163-2.47,19.644-3,27-15.812,8.927-30.841,20.391-46,30-20.386,12.922-40.582,24.112-61,37-10.1,6.372-26.674,21.894-39,24-1-4.027-2.886-6-4-10ZM131,520a117.419,117.419,0,0,0,14,1,15.7,15.7,0,0,1,1,5c-4.836,8.029-1.69,21.93-4,32-5.933,25.866-4.067,60.291-13,84-7.114-7.178-9.754-18.964-17-26Q121.5,568,131,520Zm19,18,14,1c0.284,49.744-3.8,96.24-6,143h-1l-10-10c-3.469-4.61-5.9-10.05-10-14Zm79,2c1.243,1.567.642,0.51,0,2-1.422,5.168-5.782,12.379-12,13-2.41-2.193-6.592-2.787-9-5C214.308,547.61,224.271,544.453,229,540Zm582,6c2.467,1.295.681-.429,2,2-4.258,5.6-6.379,17.6-8,25-13.562,3.274-27.74,14.124-39,21-19.35,11.817-39.983,20.547-60,31-4.347,2.27-29.419,17.263-31,16a28.039,28.039,0,0,1-6-11c10.98-3.213,20.83-12.344,30-18,19.692-12.145,39.761-23.159,59-35,13.112-8.07,26.349-15.122,39-23C801.771,551.029,807.14,549.78,811,546Zm-626,2c-0.118,55.813-1.8,113.982,2,168h-1c-10.195-15.065-19.23-10.5-19-38,4.436-7.194-.985-22.716,1-32,1.943-9.088-1.211-22.66,1-33,3.665-17.144,2.035-44.475,2-64C174.366,547.842,180.15,547.932,185,548Zm8,9,11,1c6.521,20.461,1.149,44.946,6,67,3.8,17.26.954,36.6,5,55,4.412,20.067,5.764,44.087,6,66h-1c-4.961-7.02-14.69-13.1-21-19Q196,642.009,193,557Zm21,8,12,1,1,1,34,205h-1c-5.5-5.034-17.685-7.087-21-14-5.655-9.354-3.911-41.527-7-55-5.1-22.243-3.651-46.64-9-70C218.218,612.119,215.175,587.271,214,565Zm32,6c3.014,3.653,2.364,8.657,4,14,4.754,15.529,6.957,32.493,12,49,11.527,37.733,18.51,79.186,30,117,4.314,14.2,5.069,28.479,10,42h-2c-6.048-5.043-21.263-4.933-22-15-6.34-10.084-5.515-32.979-9-46-9.631-35.981-12.5-76.247-23-112-3.527-12.01-3.734-24.825-7-36-0.927-3.17-1.577-10.316-1-11C239.628,571.994,244.386,572.041,246,571Zm20,5h4q37.5,116.488,75,233h-4l-18-5q-31-112.989-62-226C262.3,577.526,264.959,576.786,266,576ZM368,817c-0.8-6.859-4.7-13.467-7-19-6.152-14.777-10.188-30-16-44-12.674-30.54-19.413-61.432-32-92-6.177-15-10.494-31.151-17-47-4.484-10.925-10.105-22.755-13-35a18.324,18.324,0,0,1,6-1c1.3-.877,2.467-0.894,5-1,1.945,8.466,6.9,16.525,10,24,6.111,14.754,11.116,29.12,17,43,16.354,38.579,28.644,77.4,45,116,7.2,16.983,19.748,39.112,23,58h-2C383.4,816.68,373.01,816.983,368,817ZM308,582l12,1c2.579,1.49,6.378,14.315,8,18,4.886,11.1,10.779,22.14,16,34,20.014,45.468,43.685,89.767,64,136,6.558,14.925,22.5,37.47,25,54h-2c-4.282-2.557-13.081-.349-17-3-5.6-6.407-7.358-16.749-11-25-8.539-19.349-17.162-38.908-26-59-15.1-34.316-30.623-68.948-46-104C323.75,617.474,312.413,600.383,308,582ZM478,824l-19,1c-1.44-5.992-5.24-10.476-8-15-7.963-13.053-13.327-27.419-21-40-7.695-12.617-11.332-26.383-19-39-18.4-30.281-33.357-63.083-50-95-6.5-12.464-13.262-25.045-20-38-2.4-4.624-5.909-7.988-7-14h2c1.828-1.274,5.257-1.706,8-2,2.023,8.519,8.8,16.153,13,23,8.329,13.584,14.925,27.855,23,41,24.042,39.136,42.091,80.752,66,120,8,13.141,14.711,27.38,23,41C472.216,812.285,476.817,816.581,478,824ZM369,582h3c1.665,5.559,6.1,9.662,9,14,7.8,11.663,15.71,23.513,23,35,28.385,44.727,56.718,88.2,85,133,7.261,11.5,15.23,23.319,23,35,3.543,5.327,8.806,10.349,11,17-6.867.846-11.284,3.555-19,4-2-6.861-7.525-12.446-11-18-9.014-14.4-17.226-28.96-26-43-25.423-40.68-47.421-82.367-73-123-7.726-12.273-15-25.282-23-38-3.04-4.832-7.257-8.6-9-15C364.9,583.06,367.468,583.048,369,582Zm61,1c6.521,4.518,11.218,12.649,16,19,8.844,11.746,19.965,22,29,34,5.083,6.751,12.912,12.252,18,19,16.775,22.251,36.234,41.732,53,64l12,12c10.884,14.437,24.287,26.79,35,41,3.465,4.6,6.141,10.889,12,13,4.455-7.475,13.015-12.49,16-21-6.216-4.257-11.437-11.961-16-18-6.989-9.25-16.821-16.5-24-26l-12-11c-18.147-24.011-41.857-42.987-60-67-10.522-13.926-25.289-24.824-36-39-4.334-5.736-11.433-8.273-14-16l8-4c4.023,11.19,22.78,21.449,30,31,8.491,11.233,20.7,19.025,29,30,8.491,11.233,20.705,19.025,29,30,10.192,13.484,23.1,26.054,35,38,8.87,8.9,17.313,17.873,26,27,4.444,4.669,11.625,8.459,14,15a21.41,21.41,0,0,0-7,10c7.271,0.652,24.785-.775,30,3h-1c-9.14,8.535-42.194,25.6-56,29v-2l5-5h-2a15.246,15.246,0,0,1-9,5c-9.343-15-23.555-27.034-34-41-27.685-37.019-58.348-70.956-86-108-10.942-14.659-23.855-28.07-35-43-3.756-5.032-9.671-8.412-12-15C426.225,586.265,428.285,585.223,430,583Zm74,1c10.737,3.77,17.471,16.547,26,23,21.976,16.628,40.013,37.386,62,54l19,19c8.513,6.441,38.108,29.78,42,38-2.828,2.15-5.17,5.893-7,9l-1-1-9-9c-19.86-15.015-35.137-34.99-55-50l-16-17a246.2,246.2,0,0,1-25-22l-10-11c-9.981-7.547-23.094-17.551-30-28A16.137,16.137,0,0,0,504,584Zm46,0c11.229,3.138,23.831,19.2,33,26,19.824,14.706,38.189,30.333,58,45,8.207,6.076,15.339,14.275,24,20l-6,11c-10.234-5.174-17.191-15.363-26-22-20.882-15.734-39.332-34.482-60-50-6.8-5.1-26.222-17.572-29-25A16.83,16.83,0,0,0,550,584Zm-150,1c5.991,2.543,9.332,10.942,13,16,10.674,14.721,22.2,28.974,33,44,26.695,37.137,56.117,72.6,83,110,11.605,16.146,27.668,31.05,37,49h-2c-3.353,2.651-9.855,4.573-15,5-9.31-18.981-28.7-39.551-41-57-25.665-36.4-50.394-72.558-76-109-8.813-12.542-17.972-25.149-27-38-3.847-5.476-9.661-9.987-12-17A17.055,17.055,0,0,0,400,585Zm203,0c10.714,1.779,35.286,24.449,45,31,3.229,2.178,14.307,7.346,16,10v9c-0.877,1.295-.894,2.467-1,5h-2c-4.714-6.766-13.356-11.081-20-16-9.676-7.163-18.3-16.869-28-24-5.25-3.86-13.124-6.94-16-13h2C599.86,586.351,602.144,585.662,603,585Zm193,2c2.467,1.295.681-.429,2,2-5.38,8.234-4.108,24.561-13,29-4.776,3.675-11.057,4.4-17,7-20.781,9.088-42.959,17.818-64,28-5.806,2.81-21.659,12.932-27,11-2.683-2.8-4.9-7.8-6-12,11.421-2.751,23.5-12.191,33-18,16.774-10.252,35.619-17.01,52-27C768.172,599.576,785.959,596.706,796,587Zm-21,45c2.542,1.455,1.128-.217,2,3-5.727,6.4-7.684,21.629-16,25-7.74,5.739-20.416,6.451-30,10-16.475,6.1-41.908,18.2-60,20l-6-13c8.825-2.07,17.278-7.633,25-11,15.575-6.792,31.026-12.632,46-19C746.082,642.712,767.563,637.975,775,632ZM660,714V698c28.5-10.789,59.281-22.316,93-27v1c-6.759,6.373-14.379,21.748-22,26l-20,4C695.59,706.585,677.216,713.105,660,714Zm62-7c2.467,1.295.681-.429,2,2l-19,19c-3.267,2.47-6.28,4.079-9,7l-53,3v-1c3.521-3.955,4.1-12.517,9-15,9.861-6.659,34.951-8.792,48-12C706.8,708.328,716.705,710.449,722,707Zm-92,54c1.124-6.941,6.124-12.247,9-18l50-4v2l-31,23C650.316,761.464,638.887,761.129,630,761Z"/>
  <path id="Color_Fill_1" data-name="Color Fill 1" class="cls-2" d="M419,0c28.544-.507,68-2.72,92,3,31.609,7.534,63.263,10.59,91,22C726.81,76.342,813.465,154.519,866,278c9.371,22.026,16.9,46.9,24,72q4,23.5,8,47c3.628,15.639,4.713,67.587,1,84-3.908,17.276-.856,33.043-5,49-8.719,33.577-15.324,65.764-28,95C813.62,745.8,725.032,824.441,602,875c-25.689,10.557-55.116,13.912-84,21l-37,4c-10.489,2.389-52.826,1.075-62-1-17.276-3.908-33.043-.856-49-5-35.771-9.289-68.9-17.822-99-31C171.274,819.334,84.638,740.051,41,641c-9.753-22.138-15.961-43.335-24-68C5.3,537.111.013,496.793,0,449c-0.006-20.993-1.369-41.644,3-60,7.524-31.611,10.595-63.262,22-91C75.594,174.954,154.178,86.412,275,34c29.22-12.676,61.417-19.343,95-28Zm6,75c-4.544,2.732-21.941,3.552-28,6l1,1c8.419,8.31,21.017,13.363,31,20,19.331,12.851,38.887,27.147,59,39,4.236,2.5,27.985,16.805,29,16,2.71-2.624,4.293-6.377,7-9v-2c-22.835-13.2-42.774-32.7-64-48-9.476-6.829-24.36-13.489-31-23h-4Zm27,0c-1.418.961-3.273,0.976-6,1v1c7.6,4.947,13.769,12.685,21,18,15.165,11.147,29.79,21.845,45,33,8.684,6.369,18.4,19.562,30,22,1.611-4.824,5.328-7.034,7-12-17.464-11.361-30.521-29.547-47-42-7.979-6.029-18.487-12.634-24-21H452Zm40,3c8.669,13.267,22.4,26.481,35,36l18,18c5.286,3.986,12.187,7.618,16,13,4.692-2.055,11.972-5.121,15-9C545.866,115.944,543.578,78.768,492,78ZM381,80c-7.34,5.351-20.64,3.609-28,9h1c7.39,6.6,18.285,8.7,27,14,25.663,15.611,54.355,28.376,80,44,10.747,6.547,25.249,9.429,34,18,1.754-.631.971-0.193,2-1,2.968-1.853,5.764-4.362,7-8-12.1-5.84-22.907-14.994-34-22-18.382-11.609-36.614-21.413-55-33C404.549,94.414,393.7,83.608,381,80ZM554,342c0.976-18.007,8.4-37.613,13-54,9.607-34.239,13.3-67.741,23-102,3.726-13.165,10.77-31.825,10-45,2.206,0.518,1.984,1.128,4,0-6.785-6.822-16.558-24.38-22-33-2.494-3.95-3.633-9.972-7-13-4.255-3.827-29.115-9.7-37-10v1c9.066,8.691,16.413,20.946,24,31,6.446,8.541,19.307,15.248,24,25-2.756,3.83-1.542,8.366-3,14-3.693,14.27-4.9,29.814-9,45-6.136,22.748-7.652,47.393-14,71a556.569,556.569,0,0,0-14,69A25.086,25.086,0,0,0,554,342ZM334,94c-5.955,4.329-20.372,4.573-24,11,13.69,1.8,27.255,11.876,39,17,30.362,13.246,59.652,24.741,90,38,13.646,5.962,28.228,16.278,44,19,1.625-3.446,3.293-5.491,4-10-16.166-6.207-31.127-15.24-46-23-21.3-11.113-42.684-19.917-64-31C363.719,108.1,349.052,98.259,334,94Zm248,7,26,37,19,3v-1c-4.22-5.528-7.282-16.845-9-24C606.4,111.435,594.711,103.183,582,101Zm-290,9c-5.613,5.443-18.446,7.894-22,15,6.879,1.345,13.17,4.767,19,7,16.283,6.235,32.686,10.651,48,17,27.476,11.391,55.485,16.7,83,28,12.569,5.162,27.638,12.911,42,15,1.806-3.829,4.119-6.342,5-11h-2c-3.731-2.8-8.286-2.956-13-5-14.14-6.133-29.084-11.533-44-18C370.057,141.549,330.486,126.469,292,110Zm350,36,27,3v-1h-1c-4.081-5.141-38.295-28.78-45-31v2c4.965,5.635,8.137,19.081,10,27-2.471-.708-2.526-0.727-5,0-1.833,19-12.212,46.3-18,64-12.215,37.351-17.774,74.675-30,112-4.439,13.553-8.36,29.366-13,43-1.238,3.637-3.836,13.684-3,15,1.471,2,5.876,4.848,7,4,4.518-6.321,4.295-15.924,7-24,5.369-16.032,9.328-33.043,15-50,11.332-33.878,19.431-69.193,31-104C630.2,187.353,639.218,166.538,642,146ZM254,131c-6.36,6.34-16.814,9.586-22,17,8.894,0.464,17.572,4.537,25,7,12.178,4.037,24.742,6.309,36,10,32.741,10.734,65.2,15.861,98,26,12.849,3.971,26.323,6.784,40,11,4.333,1.335,12.424,5.372,16,4,2.166-2.286,3.6-6.027,5-9h-2Zm292,16q-11.5,80.492-23,161l1,1a19.857,19.857,0,0,1,8,2l27-164H546Zm123,5c-0.763,7.6-4.674,13.931-7,20-6.741,17.592-11.132,35.442-18,52-3.761,9.067-4.254,17.926-8,27-14.219,34.445-23.52,71.3-37,107-5.639,14.935-16.541,36.083-18,53,3.654,0.973,4,2.238,8,3,1.791-9.248,6.672-18.034,10-26,7.122-17.049,12.2-34.686,19-51,16.017-38.448,26.11-77.5,42-116,5.653-13.7,10.042-28.526,16-43,2.414-5.866,5.948-11.577,7-19C678.611,156.5,674.437,153.474,669,152ZM433,225q0.5-5,1-10h-2c-4.325-2.875-10.367-2.288-16-4-16.643-5.057-34.517-7.654-52-13-30.543-9.34-63.38-14.4-95-24-17.284-5.245-36.686-12.734-56-14-3.882,5.792-11.524,9.1-14,16,17.456,0.383,40.2,7.587,56,12,34.318,9.587,68.625,11.364,103,21,13.23,3.709,27.716,5,42,9C410.07,220.822,421.031,224.426,433,225Zm75,45,10-109h-1l-12,6c0.162,19.357-2.146,48.361-6,66-2.673,12.233.7,25.117-3,36h9C506.073,269.752,505.946,269.6,508,270Zm194-91c-23.846,57.453-46.039,115.448-71,173-8.173,18.844-15.679,38.336-24,58-3.148,7.439-8.575,15.124-10,24,2.971,1.95,3.939,3.843,8,5,1.014-7.8,6.282-13.829,9-20,5.453-12.38,10.874-24.342,16-36,18.073-41.105,34.907-80.873,53-122,6.724-15.284,13.945-30.927,21-47,3.436-7.827,9.343-15.514,11-25C709.892,186.416,706.715,182.043,702,179ZM420,242v-9l-1-1c-7.838-.154-15.58-2.34-22-4-15.267-3.948-30.889-4.359-45-8-24.9-6.425-49.129-5.607-74-12-30.29-7.785-66.389-13.849-98-18l-14,18Zm56-51c-2.465,3.768-7.247,7.564-11,10l1,1c1.9,4.025,5.945,11.1,10,13V203C477.582,200.821,477.554,193.181,476,191Zm256,20c-1.461,6.108-5.388,11-8,16-7.234,13.857-14.908,28.174-21,42-13.286,30.15-28.131,58.478-43,87-7.06,13.544-11.979,27.5-19,41-7.11,13.676-13.673,27.9-21,42-3.529,6.79-8.984,12.93-10,22,2.277,1.559,3.594,3.614,5,6h1c2.371-9.712,10.111-19.985,15-28,7.953-13.038,13.324-27.411,21-40,3.528-5.786,4.48-12.208,8-18,15.743-25.9,28.243-55.118,44-81,3.91-6.423,5.1-13.573,9-20,7.65-12.6,13.061-26.926,21-40,3.913-6.445,9.5-13.323,11-22C739.487,216.531,737.2,212.766,732,211ZM405,262q1-5,2-10L149,224c-1.951,6.392-7.016,11.243-10,17h11Zm354-18c-1.677,6.685-6.78,11.785-10,17-8.834,14.309-16.451,29.131-25,43-7.53,12.216-12.5,24.765-20,37q-25.213,41.127-49,84c-7.927,14.347-17.888,28.662-26,43-1.751,3.1-8.423,13.156-7,15,1.71,2.739,3.614,4.853,7,6,1.841-6.308,6.836-10.953,10-16,8.863-14.137,17.32-28.285,26-42,24.327-38.439,45.767-77.507,70-116,8-12.706,15.739-25.868,24-39,3.86-6.136,10.443-11.77,12-20C766.41,252.672,764.668,246.12,759,244ZM391,281q1-4.5,2-9L124,261c-2.84,6.453-6.207,12.677-8,20H391Zm391-1c-8.449,17.68-25.677,37.9-37,54-21.384,30.4-40.866,61.919-62,92-12.047,17.148-23.605,34.92-35,52-5.03,7.54-8.6,16.824-15,23,1.207,4.546,3.693,6.37,5,11,0.8-1.021.355-.274,1-2,5.063-3.7,7.321-9.865,11-15,10.221-14.266,20.691-28.361,31-43,23.715-33.676,50.251-66.34,74-100,9.6-13.6,19.627-26.712,29-40,3.842-5.446,6.256-11.53,11-16C792.384,291.315,787.3,281.919,782,280ZM102,301l-4,18,281-15,4-9H349c-4.429,2.718-16.6,1-23,1l-51,1ZM88,344a62.75,62.75,0,0,1-3,17h4c6.3-3.8,16.919-1.144,25-3,16.008-3.678,33.817-2.1,51-6,13.134-2.983,27.716-1.758,42-5,49.083-11.141,104.214-9,154-19v-2c0.884-1.341,1.461-5.446,2-7h-7Zm709-19c-10.21,16.511-24.646,30.557-36,46-24.828,33.77-50.209,66.2-75,100-9.6,13.09-20.316,25.547-30,39-3.951,5.489-10.427,9.13-12,17a10.665,10.665,0,0,1,5,4l1-1c6.332-4.319,10.408-11.87,15-18,7.7-10.282,17.114-19.473,25-30,21.1-28.169,47.893-52.861,69-81,9.452-12.6,20.73-23.641,30-36,5.145-6.86,9.8-14.216,16-20C804.731,338.458,801.065,328.178,797,325ZM330,383v-9c-9.382.157-18.249,3.767-26,6-13.356,3.849-26.724,5.244-39,9-33.163,10.146-66.563,12.5-100,22-16.574,4.711-34.38,7.012-52,12-7.588,2.148-16.135,5.253-25,6-1.1-8.814-5.71-18.263-9-26h6c9.987-6.262,41.057-6.406,55-10,47.405-12.218,99.539-15.9,147-28,14.949-3.811,30.132-4.469,44-8,5.818-1.481,11.8-.117,16-3,1.238-1.838,1.089-5.7,1-9h-2c-3.283,2.011-7.449.88-12,2-14.281,3.514-29.677,3.284-45,7-48.969,11.877-102.971,12.917-152,25-14.843,3.658-30.223,3.7-44,7-4.926,1.181-9.546-.3-13,2-2.541,4.216,2.042,8.221,0,13-6.923,16.2-5.058,43.408-5,66h1v-1c5.452-5.374,12.523-16.349,15-24,12.726,1.453,49-10.718,63-15,36.589-11.188,73.256-15.819,110-27C282.642,394.327,310.027,384.9,330,383Zm478-18c-3.845,10.8-25.578,27.181-33,37-25.143,33.26-56.874,60.728-82,94-9.835,13.024-22.991,23.743-33,37-3.632,4.81-8.125,4.824-9,13,2.066,2.237,2.891,5.8,5,8v-1c6.76-4.472,12.12-11.541,17-18,8.855-11.721,21.949-20.019,31-32l30-29c11.79-15.611,28.119-31.119,42-45,9.167-9.167,17.836-18.829,27-28,4.725-4.729,11.337-7.169,12-16C811.36,379.575,812.338,369.715,808,365Zm13,42c-6.346,9.553-16.794,16.19-25,24-16.625,15.823-31.559,34.067-50,48l-17,18c-11.281,11.278-23.234,23.355-36,33s-21.422,24.983-35,34c1.528,3.069,3.419,4.96,5,8h2c4.933-6.291,12.568-11.147,19-16,10.792-8.143,19.945-18.664,31-27l14-14c14.312-10.815,26.681-23.195,41-34l14-14c8.911-6.734,40.65-28.968,41-41-2.478-3.83-2.079-13.352-2-19h-2ZM106,470v3c-5.362.7-10.071,17.1-13,24-3.063,7.212-10.291,15.049-12,23-1.166,5.423,7.526,34.945,10,38v-2c4.461-5.033,5.2-13.318,8-20,6.215-14.838,17.209-37.319,13-55,8.639-.941,16.708-5.291,24-8,17.134-6.364,34.557-10.895,51-17,41.226-15.306,84.815-24.046,125-41l-3-7c-19.455,3.643-38.912,12-57,18-34,11.266-67,18.676-101,30C136.853,460.712,121.824,467.658,106,470Zm10,29-14,50c-1.819,5.091-7.3,14.246-6,21l11,31c0.8-1.021.355-.274,1-2,8.041-10.922,13.8-47.28,18-63,2.149-8.049.593-19.912,5-26,1.456,2.5.586,2.156,4,3,10.792-7.838,27.17-9.684,40-15,25.313-10.489,52.722-20.511,78-31,7.966-3.306,33.611-9.056,37-15-1.756-2.671-1.125-6.27-4-8-11.1,8.1-35.888,12.182-50,18-35.99,14.839-75.468,27.054-111,42C122.928,501.2,120.337,499.618,116,499ZM91,449c-3.632,7.592-10.054,17.34-16,23l5,40c0.8-1.021.355-.274,1-2,4.659-5.97,20.25-40.8,20-47C96.608,459.382,95.514,452.513,91,449Zm732,4c-8.06,11.177-32.177,27.173-44,36-25.339,18.917-47.675,43.065-73,62-8.606,6.434-38.151,26.88-42,35,2.178,2.413,3.59,6.986,5,10,12.76-6.321,22.767-17.9,34-26,27.3-19.689,52.964-41.495,80-61,10-7.212,19.266-14.984,29-22,3-2.16,10.462-4.763,12-8V453h-1ZM263,487c-6.367,5.612-16.767,7.38-25,11-16.682,7.336-34.313,16.675-51,24-6.538,2.87-19.849,4.926-23,11h1c2.685,2.675,6.658,3.973,9,7,22.108-9.711,43.814-21.946,65-33,6.656-3.473,20.69-6.4,24-13,1.284-1.748,1.683-4.222,2-7h-2Zm558,13c-6.183,6.3-14.63,9.834-22,15-11.2,7.849-22.476,15.924-34,24-32.13,22.518-63.194,48.633-97,69,0.631,1.754.193,0.971,1,2,0.82,3.992,1.883,7,6,8,7.442-8.864,22.013-13.7,32-20,24.949-15.75,50.082-33.229,75-49,8.761-5.545,35.632-16.312,36-28C820.287,517.718,822.49,502.711,821,500ZM131,521l-13,68c-4.143,15.78-7.462,22.915,0,35,3.6,5.829,5.276,14.415,12,17q8-59.495,16-119A128.317,128.317,0,0,0,131,521Zm19,17a296.358,296.358,0,0,1-7,62q-1,13.5-2,27c-1.485,6.652-5.905,25.573-3,31,2.759,8.485,12.941,19.429,20,24v-8c4.269-6.956-.077-26.32,2-36,2.739-12.766-1.016-27.94,2-42,3.65-17.019,2-37.92,2-57Zm79,2c-4.45,4.147-14.771,8.321-21,10,1.021,0.8.274,0.355,2,1a19.1,19.1,0,0,0,11,4l10-15h-2Zm582,6c-10.839,10.512-27.866,15.946-41,24-21.382,13.112-43.679,26.721-65,40-7.99,4.976-32.342,14.7-36,22,3.126,2.561,4.131,7.183,7,10,8.642-7.906,21.7-10.744,32-17,19.446-11.815,40.822-23.346,61-34,7.322-3.866,32.961-13.992,36-20,4.106-5.923,6.27-17.67,8-25h-2Zm-639,2q-2.5,73.992-5,148l19,19V649c-3.391-5.458-1-21.323-1-29q-0.5-36-1-72H172Zm21,9q3.5,85.992,7,172l21,17v-9q-8.5-89.491-17-179A50.073,50.073,0,0,1,193,557Zm21,9q12.5,96.99,25,194c8,2.377,14.836,8.3,22,12v-2c-5.411-8.84-4.937-35.71-8-48-8.642-34.673-10.445-73.3-19-108-2.808-11.388-2.821-39.461-8-47v-1H214Zm25,6-2,2c6.086,9.7,6.535,37.61,10,51,8.912,34.442,12.732,72.486,22,107q4.5,25,9,50c1.2,2.132,20.384,10.086,24,11v-1q-27.5-109.49-55-219v-1h-8Zm27,4c-1.065.778-3.692,1.489-5,2,3.382,18.732,10.25,38.524,16,56,11.491,34.927,17.759,70.977,29,105,4.8,14.523,7.554,29.387,12,43,2.374,7.268,1.745,16.561,6,22,4.429,3.128,14.707,4.546,21,5v-2c-4.687-6.492-5.029-17.041-8-25-6.743-18.065-11.58-36.847-18-56-11.861-35.389-22.885-71.607-35-108-4.485-13.473-10.531-27.437-14-42h-4ZM368,817l21,1v-2c-8.563-10.174-15.051-39.013-21-53-17.375-40.847-33.632-84.1-51-125-6.461-15.216-11.838-30.481-18-45-2.7-6.367-1.42-14.257-10-15-1.187.814-4.59,1.489-6,2,1.656,8.55,5.961,16.7,9,24,6.549,15.74,10.77,31.985,17,47,15.631,37.671,24.485,76.227,40,114C355.085,779.815,365.617,800.474,368,817ZM308,582c1.52,7.619,6.218,13.724,9,20,6.509,14.682,12.836,29.064,19,43q28.768,65.039,57,129c5.173,11.759,10.174,23.022,15,34,1.674,3.808,2.648,13.122,6,15l19,1v-2c-5.442-6.222-7.466-16.013-11-24-7.437-16.81-16.242-33.434-24-51-6.986-15.817-17-32.189-24-48-17.453-39.421-35.576-77.533-54-116Zm33,0c-2.626,1.763-5.333,1.069-7,4,4.386,4.952,5.424,12.122,9,18,7.663,12.6,13.062,26.948,21,40,23.562,38.741,41.411,82.286,65,121,8.46,13.884,15.435,30.094,23,44,3.162,5.812,3.56,14.439,11,16,2.747-1.733,11.758-1.414,15-2v-2c-11.094-12.218-16.237-30.628-25-45-20.742-34.019-38-70.517-59-105-11.18-18.356-20.544-38.178-32-57-5.882-9.664-14.816-20.313-18-32h-3Zm29,0c-1.515.976-6.271,1.417-8,2,11.468,24.433,28.784,47.5,43,70,23.236,36.772,43.432,74.963,67,111,8.8,13.451,16.658,27.779,25,41,3.533,5.6,3.482,13.247,12,14,3.8-2.7,11.6-1.835,14-6-5.219-4.271-7.192-11.245-11-17-9.351-14.135-18.7-28.27-28-43-25.224-39.937-52.787-79.669-79-119-8.936-13.407-17.273-26.909-26-40C375.932,590.4,374.477,585.14,370,582Zm60,1c-1.686,2.148-4.616,3.627-7,5l1,1c8.678,14.849,22.869,26.458,33,40,22.305,29.815,46.727,57.164,69,87,6.477,8.676,15.542,16.295,22,25,9.551,12.874,20.605,24.379,30,37,3.915,5.26,7.61,14.463,15,16,1.521-1.954,2.172-2.221,5-3v2c-1.623,1.254-2.007,2.1-3,4h1c4.311-3.724,10.368-4.523,16-7,9.675-4.256,34.372-17.063,41-24l-31-1v-2a24.538,24.538,0,0,0,8-11c-6.427-4.274-11.352-10.849-16-17-8.293-10.976-20.511-18.765-29-30l-54-54c-22.1-22.188-42.151-46.573-65-68-2.315,2.261-5.452,2.886-7,6,5.827,4.141,10.659,11.255,15,17,6.989,9.25,16.821,16.5,24,26l12,11c18.147,24.011,41.857,42.987,60,67,10.522,13.926,25.289,24.824,36,39,4.546,6.017,12.22,9.052,15,17-6.678,4.829-9.949,15.982-18,19-7.642-11.928-19.611-20.875-28-32-22.061-29.253-47.961-54.73-70-84-5.084-6.751-12.912-12.252-18-19-12.733-16.887-28.438-31.338-41-48C441.248,595.7,436.531,587.419,430,583Zm74,1a15.664,15.664,0,0,1-4,5l1,1c3.226,4.836,7.744,7.212,12,11,11.988,10.669,22.028,23.2,35,33l15,16c13.546,10.239,25.325,22.72,38,34l15,16c9.644,7.29,22.319,16.915,29,27,1.766-.961,1.68-1.257,4-2v2c-2.6,2.759-4.321,7.445-6,11h10c3.528-2.187,38.327-3.744,45-4,6.587-9.782,21.827-15.369,26-27h-1c-7.026,4.225-19.478,1.831-28,4-14.779,3.762-30.521,7.736-45,11v-1a9.975,9.975,0,0,0,3-5c-11.885-4.236-20.342-19.7-30-27-29.488-22.3-53.509-50.721-83-73C529.939,608.4,515.528,588.185,504,584Zm46,0c-1.639,2.508-3.233,3.6-6,5v2c7.712,4.518,13.1,11.83,20,17,23.357,17.511,43.854,38.672,67,56,4.948,3.7,26.965,22.016,28,21,2.5-2.512,3.545-6.44,6-9-5.9-8.687-17.547-14.743-26-21-19.12-14.152-36.622-30.657-56-45C572.723,602.393,562.779,588.277,550,584Zm-150,1a18.334,18.334,0,0,1-7,3v2c6.25,5.017,9.326,13.334,14,20,8.121,11.583,16.653,23.119,25,35,25.654,36.517,53.3,72.519,79,109,9.724,13.8,19.629,27.343,29,41,3.557,5.185,5.274,12.989,13,14,2.861-2.6,8.714-4.039,13-5v-1c-0.8-1.021-.355-0.274-1-2-5.353-3.9-8.1-10.579-12-16-7.668-10.667-16.042-21.151-24-32-27.682-37.738-58.63-74-86-112-10.125-14.057-21.08-27.227-31-41C408.493,595.131,405.85,587.362,400,585Zm203,0c-1.579,1.218-4.443,1.749-6,3,22.811,14.6,42.044,39.45,66,52v-7c1.049-1.549,1.031-4.085,1-7-12.363-4.034-27.416-19.553-38-27-6.563-4.618-15.214-7.692-20-14h-3Zm193,2c-5.966,5.326-14.934,6.706-22,11-22.4,13.614-47.895,25.806-71,38-7.27,3.837-29.966,11.771-31,20,2.166,2.286,3.6,6.027,5,9,28.6-10.843,56.466-24.92,84-37,6.483-2.844,23.026-6.711,26-12,5.9-6.376,8.89-19.276,11-29h-2Zm-21,45c-7.854,5.747-19.706,7.059-29,11-18.032,7.646-37.161,16.277-55,24-8.4,3.635-19.82,5.041-26,11,3.629,4.183,2.825,11.134,10,12,7.893-5.828,20.411-6.07,30-10,17.944-7.353,38.412-15.179,58-20,4.371-9.441,11.312-17.106,14-28h-2ZM660,714l71-16c5.489-3.065,18.519-21.008,22-27h-3c-5.829,3.654-14.854,2.827-22,5-16.739,5.09-34.767,9.758-50,16-5.877,2.408-12.48,2.344-17,6h-1v16Zm26,25-48,5c-1.673,6.617-6.115,10.3-8,17h8c4.409,2.835,15.547,2.1,22,2,7.353-10.167,22.959-13.613,30-24h-4Z"/>
</svg>
