<?xml version="1.0" encoding="utf-8"?>
<!-- Generator: Adobe Illustrator 27.0.0, SVG Export Plug-In . SVG Version: 6.00 Build 0)  -->
<svg version="1.1" id="Layer_1" xmlns="http://www.w3.org/2000/svg" xmlns:xlink="http://www.w3.org/1999/xlink" x="0px" y="0px"
	 viewBox="0 0 64 64" style="enable-background:new 0 0 64 64;" xml:space="preserve">
<style type="text/css">
	.st0{fill:#C48417;}
	.st1{fill:#FFFFFF;}
	.st2{fill:url(#SVGID_1_);}
	.st3{fill:url(#SVGID_00000003784615947852624960000011190305489888037278_);}
	.st4{fill:url(#SVGID_00000130614332966701403350000001122939813772471184_);}
</style>
<g transform="matrix( 1, 0, 0, 1, -0.25,-0.55) ">
	<g>
		<g id="Layer0_0_FILL">
			<path class="st0" d="M62.2,32.6c0-8.3-2.9-15.3-8.8-21.1c-5.9-5.9-13-8.9-21.2-8.9c-8.3,0-15.3,3-21,8.9
				c-5.9,5.8-8.9,12.8-8.9,21.1c0,8.2,3,15.3,8.9,21.1c5.8,5.9,12.8,8.8,21,8.8s15.2-2.9,21.2-8.8l0,0
				C59.3,47.9,62.2,40.8,62.2,32.6 M51.5,13.4c5.2,5.2,7.8,11.6,7.8,19.1c0,7.4-2.6,13.8-7.8,19.1c-5.4,5.3-11.8,7.9-19.2,7.9
				c-7.5,0-13.8-2.6-19-7.9h-0.1C8,46.4,5.3,40,5.3,32.6c0-7.5,2.7-13.9,7.9-19.1l0.1-0.1c5.2-5.3,11.5-7.9,19-7.9
				S46.1,8.2,51.5,13.4z"/>
			<path class="st1" d="M59.2,32.6c0-7.5-2.6-13.9-7.8-19.1c-5.3-5.3-11.7-7.9-19.2-7.9s-13.8,2.7-19,7.9l-0.1,0.1
				c-5.1,5.1-7.8,11.5-7.8,19c0,7.4,2.7,13.8,7.9,19.1h0.1c5.2,5.3,11.5,7.9,19,7.9c7.4,0,13.8-2.6,19.2-7.9
				C56.6,46.4,59.2,40,59.2,32.6 M47.5,23.6c0,0.2,0,0.4,0,0.6c0,1.6-0.5,3-1.5,4.2c-0.3,0.5-0.8,0.9-1.4,1.2
				c-0.3,0.3-0.8,0.5-1.3,0.7c0.8,0.2,1.5,0.6,2.2,1.1c1.1,0.7,2,1.6,2.6,2.7c0.6,0.9,0.9,2,1,3.1c0,0.2,0,0.4,0,0.6
				c0,1.6-0.3,3-0.9,4c-0.5,1.3-1.2,2.2-2.2,3c-1,0.6-2.2,1.1-3.5,1.5s-2.7,0.6-4.2,0.6h-9.6h-3.4H22h-3.5v-30H22h3.3h3.4V17h8.9
				c2.2,0,4,0.3,5.5,0.8c1.5,0.6,2.6,1.4,3.3,2.5C47,21.1,47.3,22.3,47.5,23.6 M43.5,35.4c-0.6-0.6-1.4-1-2.3-1.4
				c-1-0.3-2.1-0.4-3.2-0.4h-9.4v8.6h9.6c1.2,0,2.3-0.2,3.2-0.5s1.6-0.8,2.1-1.5c0.6-0.7,0.9-1.5,0.9-2.4c0-0.2,0-0.4-0.1-0.6
				C44.2,36.5,44,35.9,43.5,35.4 M42.8,24.5c-0.2-1-0.7-1.8-1.5-2.3c-1-0.6-2.3-1-4-1h-8.6v7.9h9.2c0.9,0,1.7-0.2,2.5-0.5
				s1.4-0.8,1.8-1.4c0.4-0.7,0.7-1.4,0.7-2C42.8,24.9,42.8,24.7,42.8,24.5z"/>
			<path d="M47.3,24.3c0-0.2,0-0.4,0-0.6c-0.1-1.3-0.5-2.5-1.1-3.5c-0.8-1.1-1.9-1.9-3.3-2.5c-1.4-0.5-3.2-0.8-5.5-0.8h-8.9v4.4h8.6
				c1.6,0,3,0.3,4,1c0.8,0.5,1.3,1.3,1.5,2.3c0,0.1,0,0.4,0,0.7c0,0.7-0.2,1.4-0.7,2c-0.4,0.6-1,1.1-1.8,1.4
				c-0.7,0.4-1.5,0.5-2.5,0.5h-9.2v4.5h9.4c1.1,0,2.2,0.1,3.2,0.4c0.9,0.3,1.7,0.8,2.3,1.4c0.5,0.5,0.7,1.1,0.8,1.9
				c0.1,0.2,0.1,0.4,0.1,0.6c0,0.9-0.3,1.7-0.9,2.4c-0.5,0.7-1.2,1.2-2.1,1.5c-1,0.4-2.1,0.5-3.2,0.5h-9.6v4.5h9.6
				c1.5,0,2.9-0.2,4.2-0.6c1.3-0.3,2.5-0.8,3.5-1.5c1-0.7,1.7-1.6,2.2-2.8c0.6-1.1,0.9-2.5,0.9-4c0-0.2,0-0.4,0-0.6
				c-0.1-1.2-0.4-2.2-1-3.1c-0.6-1.1-1.5-2-2.6-2.7c-0.7-0.5-1.4-0.8-2.2-1.1c0.5-0.2,1-0.4,1.3-0.7c0.6-0.3,1-0.7,1.4-1.2
				C46.8,27.3,47.3,25.9,47.3,24.3z"/>
			
				<linearGradient id="SVGID_1_" gradientUnits="userSpaceOnUse" x1="20.75" y1="451.025" x2="20.75" y2="466.975" gradientTransform="matrix(1 0 0 1 -0.5 -434)">
				<stop  offset="0" style="stop-color:#FAC565"/>
				<stop  offset="1" style="stop-color:#5F3400"/>
			</linearGradient>
			<path class="st2" d="M18.5,16.8v30H22v-30H18.5z"/>
			
				<linearGradient id="SVGID_00000055694306926160768240000008427225421513028017_" gradientUnits="userSpaceOnUse" x1="24.1289" y1="465.9111" x2="20.5039" y2="484.9611" gradientTransform="matrix(1 0 0 1 -0.5 -434)">
				<stop  offset="0" style="stop-color:#FFDDA1"/>
				<stop  offset="1" style="stop-color:#5F3400"/>
			</linearGradient>
			<path style="fill:url(#SVGID_00000055694306926160768240000008427225421513028017_);" d="M25.2,16.8H22v30h3.3L25.2,16.8
				L25.2,16.8z"/>
			
				<linearGradient id="SVGID_00000141415695213880595500000017386997262814935461_" gradientUnits="userSpaceOnUse" x1="27.4" y1="454.175" x2="27.4" y2="467.425" gradientTransform="matrix(1 0 0 1 -0.5 -434)">
				<stop  offset="0" style="stop-color:#FAC565"/>
				<stop  offset="1" style="stop-color:#5F3400"/>
			</linearGradient>
			<path style="fill:url(#SVGID_00000141415695213880595500000017386997262814935461_);" d="M28.6,16.9L28.6,16.9l-3.4-0.1v30h3.4
				v-4.5v-8.6v-4.5v-7.9V16.9z"/>
		</g>
	</g>
</g>
</svg>
