<svg height="250" viewBox="0 0 250 250" width="250" xmlns="http://www.w3.org/2000/svg"><path d="m250 125c0 69.035156-55.964844 125-125 125s-125-55.964844-125-125 55.964844-125 125-125 125 55.964844 125 125zm0 0" fill="#fff" fill-rule="evenodd"/><path d="m159.644531 132.636719c30.066407 4.441406 51.039063 14.488281 51.039063 26.171875 0 15.796875-38.359375 28.605468-85.683594 28.605468s-85.683594-12.808593-85.683594-28.605468c0-11.683594 20.972656-21.730469 51.039063-26.171875 10.324219 2.097656 22.121093 3.285156 34.644531 3.285156 12.210938 0 23.726562-1.128906 33.863281-3.128906zm0 0"/><path d="m146.6875 85.601562c27.230469 3.027344 46.859375 11.605469 46.859375 21.714844 0 12.640625-30.6875 22.886719-68.546875 22.886719s-68.546875-10.246094-68.546875-22.886719c0-10.109375 19.628906-18.6875 46.859375-21.714844 6.671875 1.089844 13.996094 1.691407 21.6875 1.691407 7.421875 0 14.503906-.5625 20.984375-1.578125zm0 0"/><path d="m176.410156 65.550781c0 9.480469-23.015625 17.164063-51.410156 17.164063s-51.410156-7.683594-51.410156-17.164063 23.015625-17.164062 51.410156-17.164062 51.410156 7.683593 51.410156 17.164062zm0 0"/></svg>