<svg height="250" viewBox="0 0 250 250" width="250" xmlns="http://www.w3.org/2000/svg" xmlns:xlink="http://www.w3.org/1999/xlink"><linearGradient id="a"><stop offset="0" stop-color="#070f29"/><stop offset=".6788" stop-color="#1c2951"/></linearGradient><linearGradient id="b" gradientUnits="userSpaceOnUse" x1="183.72101" x2="107.003" xlink:href="#a" y1="93.908995" y2="9.0035"/><linearGradient id="c"><stop offset="0" stop-color="#3f7fc1"/><stop offset=".67" stop-color="#1c2a77"/><stop offset="1" stop-color="#1e2c5a"/></linearGradient><linearGradient id="d" gradientUnits="userSpaceOnUse" x1="26.738" x2="114.9755" xlink:href="#c" y1="218.325005" y2="25.5975"/><linearGradient id="e" gradientUnits="userSpaceOnUse" x1="74.4975" x2="37.324" xlink:href="#a" y1="95.76" y2="190.130995"/><linearGradient id="f" gradientUnits="userSpaceOnUse" x1="222.999495" x2="66.922" xlink:href="#c" y1="214.183005" y2="135"/><linearGradient id="g" gradientUnits="userSpaceOnUse" x1="128.063" x2="245.394495" xlink:href="#a" y1="199.466495" y2="171.08101"/><linearGradient id="h" gradientUnits="userSpaceOnUse" x1="74.6595" x2="237.74851" xlink:href="#c" y1="2.104" y2="161.25601"/><path d="m181.5 95c0-1-.5-2-.5-3 0 0 0 0 0-.5-.5-2.5-1-5-2-8-7-24.5-24-44.5-46-56-11-5.5-23-9-36-10 39 24.5 53 48.5 58 61.5 1 .5 1.5 1 2.5 1 .5.5 1.5 1 2 1 4 2 7.5 4.5 10.5 6.5.5.5 1 1 2 1 2.5 1.5 4.5 3 6 4 .5 0 .5.5 1 .5 0 0 .5.5.5.5s.5.5.5.5c1 1 1.5 1.5 1.5 1v.5.5c0-.5 0-1 0-1zm0 0" fill="url(#b)"/><path d="m73.5 95.5c1.5-3 34.5-24.5 54-24.5 8 0 18.5 4 27.5 8.5-5-13-19-37-57.5-61.5-1.5 0-3 0-4 0-18 0-34 5.5-48 14.5-26.5 22.5-43.5 56.5-43.5 94 0 57 38.5 105.5 90.5 120.5-16-7.5-29.5-18-39.5-35.5-7-12-10.5-25.5-11-38.5-1.5-28 8.5-58.5 31.5-77.5zm0 0" fill="url(#d)"/><path d="m74 128.5c-2.5-15-1.5-27.5-.5-33-23 19-33 49.5-31.5 77.5.5 7 1.5 13.5 3.5 20.5 6.5-36.5 20.5-56 28.5-65zm0 0" fill="url(#e)"/><path d="m242.5 156c-7 12-18 26-29 33-24 15-57 19-85.5 8-36.5-15.5-49.5-45-53.5-68.5-8 9-22 28.5-28.5 65 2 6 4.5 12.5 8 18 10 17.5 24 28 39.5 35.5 11 3 22.5 5 34.5 5 68 0 123-54.5 125-122-3 9-6 18-10.5 26zm0 0" fill="url(#f)"/><path d="m236.5 159.5c-44.5 23.5-73 22-83.5 20-7 6-15 12-25.5 17h-.5c28.5 11 62 7 85.5-8 11-7 22-20 29-32-1 1-3 2-5 3zm0 0" fill="url(#g)"/><path d="m127 1.5c-31 0-60 11.5-81.5 30.5 14-9.5 30-14.5 48-14.5 14.5 0 28 3.5 40 10 25.5 13.5 44 38 48.5 68.5.5 4 7.5 50.5-28.5 84 10.5 2 39.5 3.5 83.5-20 2-1 3.5-2 5.5-3 0 0 .5-.5.5-.5 4.5-8 8-17 9.5-26 0-1 0-2 0-3.5-.5-69.5-56.5-125.5-125.5-125.5zm0 0" fill="url(#h)"/></svg>