<!-- Generator: Adobe Illustrator 24.0.0, SVG Export Plug-In . SVG Version: 6.00 Build 0)  -->
<svg xmlns="http://www.w3.org/2000/svg" xmlns:xlink="http://www.w3.org/1999/xlink" width="250px" height="250px" viewBox="0 0 250 250" version="1.1">
<defs>
<linearGradient id="linear0" gradientUnits="userSpaceOnUse" x1="36.744202" y1="18.781799" x2="21.4006" y2="1.8007" gradientTransform="matrix(5,0,0,5,0,0)">
<stop offset="0" style="stop-color:rgb(2.745098%,5.882353%,16.078432%);stop-opacity:1;"/>
<stop offset="0.6788" style="stop-color:rgb(10.980392%,16.078432%,31.764707%);stop-opacity:1;"/>
</linearGradient>
<linearGradient id="linear1" gradientUnits="userSpaceOnUse" x1="5.3476" y1="43.665001" x2="22.9951" y2="5.1195" gradientTransform="matrix(5,0,0,5,0,0)">
<stop offset="0" style="stop-color:rgb(24.705882%,49.803922%,75.686276%);stop-opacity:1;"/>
<stop offset="0.67" style="stop-color:rgb(10.980392%,16.470589%,46.666667%);stop-opacity:1;"/>
<stop offset="1" style="stop-color:rgb(11.764706%,17.254902%,35.294119%);stop-opacity:1;"/>
</linearGradient>
<linearGradient id="linear2" gradientUnits="userSpaceOnUse" x1="14.8995" y1="19.152" x2="7.4648" y2="38.026199" gradientTransform="matrix(5,0,0,5,0,0)">
<stop offset="0" style="stop-color:rgb(2.745098%,5.882353%,16.078432%);stop-opacity:1;"/>
<stop offset="0.6788" style="stop-color:rgb(10.980392%,16.078432%,31.764707%);stop-opacity:1;"/>
</linearGradient>
<linearGradient id="linear3" gradientUnits="userSpaceOnUse" x1="44.599899" y1="42.836601" x2="13.3844" y2="27" gradientTransform="matrix(5,0,0,5,0,0)">
<stop offset="0" style="stop-color:rgb(24.705882%,49.803922%,75.686276%);stop-opacity:1;"/>
<stop offset="0.67" style="stop-color:rgb(10.980392%,16.470589%,46.666667%);stop-opacity:1;"/>
<stop offset="1" style="stop-color:rgb(11.764706%,17.254902%,35.294119%);stop-opacity:1;"/>
</linearGradient>
<linearGradient id="linear4" gradientUnits="userSpaceOnUse" x1="25.6126" y1="39.893299" x2="49.078899" y2="34.216202" gradientTransform="matrix(5,0,0,5,0,0)">
<stop offset="0" style="stop-color:rgb(2.745098%,5.882353%,16.078432%);stop-opacity:1;"/>
<stop offset="0.6788" style="stop-color:rgb(10.980392%,16.078432%,31.764707%);stop-opacity:1;"/>
</linearGradient>
<linearGradient id="linear5" gradientUnits="userSpaceOnUse" x1="14.9319" y1="0.4208" x2="47.549702" y2="32.251202" gradientTransform="matrix(5,0,0,5,0,0)">
<stop offset="0" style="stop-color:rgb(24.705882%,49.803922%,75.686276%);stop-opacity:1;"/>
<stop offset="0.67" style="stop-color:rgb(10.980392%,16.470589%,46.666667%);stop-opacity:1;"/>
<stop offset="1" style="stop-color:rgb(11.764706%,17.254902%,35.294119%);stop-opacity:1;"/>
</linearGradient>
</defs>
<g id="surface1">
<path style=" stroke:none;fill-rule:nonzero;fill:url(#linear0);" d="M 181.5 95 C 181.5 94 181 93 181 92 C 181 92 181 92 181 91.5 C 180.5 89 180 86.5 179 83.5 C 172 59 155 39 133 27.5 C 122 22 110 18.5 97 17.5 C 136 42 150 66 155 79 C 156 79.5 156.5 80 157.5 80 C 158 80.5 159 81 159.5 81 C 163.5 83 167 85.5 170 87.5 C 170.5 88 171 88.5 172 88.5 C 174.5 90 176.5 91.5 178 92.5 C 178.5 92.5 178.5 93 179 93 C 179 93 179.5 93.5 179.5 93.5 C 179.5 93.5 180 94 180 94 C 181 95 181.5 95.5 181.5 95 C 181.5 95.5 181.5 95.5 181.5 95.5 C 181.5 95.5 181.5 95.5 181.5 96 C 181.5 95.5 181.5 95 181.5 95 Z M 181.5 95 "/>
<path style=" stroke:none;fill-rule:nonzero;fill:url(#linear1);" d="M 73.5 95.5 C 75 92.5 108 71 127.5 71 C 135.5 71 146 75 155 79.5 C 150 66.5 136 42.5 97.5 18 C 96 18 94.5 18 93.5 18 C 75.5 18 59.5 23.5 45.5 32.5 C 19 55 2 89 2 126.5 C 2 183.5 40.5 232 92.5 247 C 76.5 239.5 63 229 53 211.5 C 46 199.5 42.5 186 42 173 C 40.5 145 50.5 114.5 73.5 95.5 Z M 73.5 95.5 "/>
<path style=" stroke:none;fill-rule:nonzero;fill:url(#linear2);" d="M 74 128.5 C 71.5 113.5 72.5 101 73.5 95.5 C 50.5 114.5 40.5 145 42 173 C 42.5 180 43.5 186.5 45.5 193.5 C 52 157 66 137.5 74 128.5 Z M 74 128.5 "/>
<path style=" stroke:none;fill-rule:nonzero;fill:url(#linear3);" d="M 242.5 156 C 235.5 168 224.5 182 213.5 189 C 189.5 204 156.5 208 128 197 C 91.5 181.5 78.5 152 74.5 128.5 C 66.5 137.5 52.5 157 46 193.5 C 48 199.5 50.5 206 54 211.5 C 64 229 78 239.5 93.5 247 C 104.5 250 116 252 128 252 C 196 252 251 197.5 253 130 C 250 139 247 148 242.5 156 Z M 242.5 156 "/>
<path style=" stroke:none;fill-rule:nonzero;fill:url(#linear4);" d="M 236.5 159.5 C 192 183 163.5 181.5 153 179.5 C 146 185.5 138 191.5 127.5 196.5 C 127.5 196.5 127 196.5 127 196.5 C 155.5 207.5 189 203.5 212.5 188.5 C 223.5 181.5 234.5 168.5 241.5 156.5 C 240.5 157.5 238.5 158.5 236.5 159.5 Z M 236.5 159.5 "/>
<path style=" stroke:none;fill-rule:nonzero;fill:url(#linear5);" d="M 127 1.5 C 96 1.5 67 13 45.5 32 C 59.5 22.5 75.5 17.5 93.5 17.5 C 108 17.5 121.5 21 133.5 27.5 C 159 41 177.5 65.5 182 96 C 182.5 100 189.5 146.5 153.5 180 C 164 182 193 183.5 237 160 C 239 159 240.5 158 242.5 157 C 242.5 157 243 156.5 243 156.5 C 247.5 148.5 251 139.5 252.5 130.5 C 252.5 129.5 252.5 128.5 252.5 127 C 252 57.5 196 1.5 127 1.5 Z M 127 1.5 "/>
</g>
</svg>
