<?xml version="1.0" encoding="UTF-8"?>
<!DOCTYPE svg PUBLIC "-//W3C//DTD SVG 1.1//EN" "http://www.w3.org/Graphics/SVG/1.1/DTD/svg11.dtd">
<svg xmlns="http://www.w3.org/2000/svg" version="1.1" width="130px" height="130px" style="shape-rendering:geometricPrecision; text-rendering:geometricPrecision; image-rendering:optimizeQuality; fill-rule:evenodd; clip-rule:evenodd" xmlns:xlink="http://www.w3.org/1999/xlink">
<g><path style="opacity:0.98" fill="#010101" d="M 56.5,9.5 C 88.0895,7.88443 108.59,22.2178 118,52.5C 122.226,83.5299 109.726,105.03 80.5,117C 45.2479,123.964 22.0812,110.464 11,76.5C 6.75446,50.3647 15.9211,30.1981 38.5,16C 44.6958,14.0546 50.6958,11.8879 56.5,9.5 Z"/></g>
<g><path style="opacity:1" fill="#e9e9e9" d="M 65.5,24.5 C 65.5,23.5 65.5,22.5 65.5,21.5C 65.5,20.5 65.5,19.5 65.5,18.5C 68.2776,18.0217 70.2776,19.0217 71.5,21.5C 70.2776,23.9783 68.2776,24.9783 65.5,24.5 Z"/></g>
<g><path style="opacity:1" fill="#dadada" d="M 53.5,19.5 C 54.8333,19.5 56.1667,19.5 57.5,19.5C 57.9202,21.674 57.9202,23.674 57.5,25.5C 56.8076,24.9747 56.3076,24.3081 56,23.5C 55.6924,24.3081 55.1924,24.9747 54.5,25.5C 53.5344,23.604 53.2011,21.604 53.5,19.5 Z"/></g>
<g><path style="opacity:1" fill="#e9e9e9" d="M 63.5,19.5 C 62.7611,19.369 62.0944,19.5357 61.5,20C 62.8333,21 62.8333,22 61.5,23C 62.7375,23.2321 63.7375,23.7321 64.5,24.5C 62.8333,24.5 61.1667,24.5 59.5,24.5C 59.5,22.5 59.5,20.5 59.5,18.5C 61.099,18.2322 62.4324,18.5655 63.5,19.5 Z"/></g>
<g><path style="opacity:1" fill="#e0e0e0" d="M 76.5,19.5 C 77.7251,20.1522 78.3917,21.3189 78.5,23C 78.815,26.6597 77.9817,27.1597 76,24.5C 75.1072,25.7112 74.2739,25.7112 73.5,24.5C 74.7629,22.9713 75.7629,21.3046 76.5,19.5 Z"/></g>
<g><path style="opacity:1" fill="#dadada" d="M 46.5,26.5 C 45.6779,20.7907 47.5112,19.4573 52,22.5C 52.8104,27.2718 50.9771,28.6052 46.5,26.5 Z"/></g>
<g><path style="opacity:1" fill="#080808" d="M 48.5,22.5 C 50.4646,22.9483 50.7979,23.9483 49.5,25.5C 47.4807,24.8671 47.1474,23.8671 48.5,22.5 Z"/></g>
<g><path style="opacity:1" fill="#6c6c6c" d="M 63.5,19.5 C 63.1307,21.9935 63.7973,22.6602 65.5,21.5C 65.5,22.5 65.5,23.5 65.5,24.5C 65.1667,24.5 64.8333,24.5 64.5,24.5C 63.7375,23.7321 62.7375,23.2321 61.5,23C 62.8333,22 62.8333,21 61.5,20C 62.0944,19.5357 62.7611,19.369 63.5,19.5 Z"/></g>
<g><path style="opacity:1" fill="#666666" d="M 66.5,19.5 C 69.8606,20.2032 70.1939,21.5365 67.5,23.5C 66.5713,22.3112 66.238,20.9778 66.5,19.5 Z"/></g>
<g><path style="opacity:1" fill="#bebebe" d="M 85.5,25.5 C 78.8685,28.533 77.8685,27.1997 82.5,21.5C 84.5499,22.0766 85.5499,23.4099 85.5,25.5 Z"/></g>
<g><path style="opacity:1" fill="#c9c9c9" d="M 46.5,26.5 C 44.0798,31.7464 42.0798,31.5797 40.5,26C 40.6667,24.5 41.5,23.6667 43,23.5C 44.1739,24.5442 45.3406,25.5442 46.5,26.5 Z"/></g>
<g><path style="opacity:1" fill="#dadada" d="M 85.5,25.5 C 87.5442,24.2216 89.5442,24.3883 91.5,26C 90.5,26.3333 89.5,26.6667 88.5,27C 89.6341,28.016 89.3008,28.6827 87.5,29C 88.4506,29.7175 88.6172,30.5509 88,31.5C 84.6418,30.4586 83.8085,28.4586 85.5,25.5 Z"/></g>
<g><path style="opacity:1" fill="#f2f2f2" d="M 78.5,64.5 C 76.3452,62.466 74.0118,62.1326 71.5,63.5C 68.1476,65.4582 66.6476,68.4582 67,72.5C 62.4816,70.593 57.6483,69.9264 52.5,70.5C 50.0576,69.2741 47.7242,67.9408 45.5,66.5C 46.1217,65.3734 46.955,64.3734 48,63.5C 48.5946,62.1011 48.4279,60.7678 47.5,59.5C 50.179,54.9543 52.179,50.121 53.5,45C 56.6571,44.7602 59.8238,44.9269 63,45.5C 66.6077,43.7883 70.441,42.7883 74.5,42.5C 85.9154,44.0531 89.4154,50.0531 85,60.5C 83.134,62.8086 80.9673,64.1419 78.5,64.5 Z"/></g>
<g><path style="opacity:1" fill="#080808" d="M 56.5,46.5 C 58.4841,46.484 59.4841,47.484 59.5,49.5C 59.6001,54.4026 57.2667,56.4026 52.5,55.5C 52.5,54.5 52.5,53.5 52.5,52.5C 53.2216,52.9175 53.7216,53.5842 54,54.5C 55.0395,52.2537 56.2062,50.087 57.5,48C 56.944,47.6174 56.6107,47.1174 56.5,46.5 Z"/></g>
<g><path style="opacity:1" fill="#050505" d="M 64.5,48.5 C 68.8497,47.0057 70.683,48.6724 70,53.5C 68.2869,57.5715 65.4536,58.5715 61.5,56.5C 61.5188,49.4694 62.0188,49.136 63,55.5C 63.3034,53.1116 64.1367,50.9449 65.5,49C 65.2716,48.6012 64.9382,48.4346 64.5,48.5 Z"/></g>
<g><path style="opacity:1" fill="#8c8c8c" d="M 56.5,46.5 C 56.6107,47.1174 56.944,47.6174 57.5,48C 56.2062,50.087 55.0395,52.2537 54,54.5C 53.7216,53.5842 53.2216,52.9175 52.5,52.5C 53.3507,50.1184 54.684,48.1184 56.5,46.5 Z"/></g>
<g><path style="opacity:1" fill="#adadad" d="M 71.5,46.5 C 72.7899,47.0577 73.6232,48.0577 74,49.5C 74.2069,53.0894 74.7069,56.5894 75.5,60C 74.5509,60.6172 73.7175,60.4506 73,59.5C 72.7083,55.118 72.2083,50.7847 71.5,46.5 Z"/></g>
<g><path style="opacity:1" fill="#1e1e1e" d="M 51.5,57.5 C 59.3222,59.8588 59.3222,62.8588 51.5,66.5C 50.5,66.1667 49.8333,65.5 49.5,64.5C 52.1905,64.4367 53.0239,62.7701 52,59.5C 51.6667,60.5 51.3333,61.5 51,62.5C 50.3603,60.735 50.5269,59.0683 51.5,57.5 Z"/></g>
<g><path style="opacity:1" fill="#3e3e3e" d="M 71.5,63.5 C 74.0118,62.1326 76.3452,62.466 78.5,64.5C 77.8333,64.5 77.1667,64.5 76.5,64.5C 76.1667,64.5 75.8333,64.5 75.5,64.5C 74.4324,63.5655 73.099,63.2322 71.5,63.5 Z"/></g>
<g><path style="opacity:1" fill="#e9e9e9" d="M 93.5,61.5 C 94.6063,62.1494 95.6063,62.4827 96.5,62.5C 95.0992,66.2136 94.0992,65.8803 93.5,61.5 Z"/></g>
<g><path style="opacity:1" fill="#c0c0c0" d="M 100.5,60.5 C 103.674,60.9522 104.007,61.9522 101.5,63.5C 102.167,63.8333 102.833,64.1667 103.5,64.5C 102.311,65.4287 100.978,65.762 99.5,65.5C 99.366,63.7085 99.6993,62.0418 100.5,60.5 Z"/></g>
<g><path style="opacity:1" fill="#fbfbfb" d="M 71.5,63.5 C 73.099,63.2322 74.4324,63.5655 75.5,64.5C 74.0735,66.1484 73.2401,68.1484 73,70.5C 71.6439,71.3802 70.1439,71.7135 68.5,71.5C 68.5721,68.4475 69.5721,65.7808 71.5,63.5 Z"/></g>
<g><path style="opacity:1" fill="#dcdcdc" d="M 23.5,61.5 C 24.8333,61.5 26.1667,61.5 27.5,61.5C 27.5,62.8333 27.5,64.1667 27.5,65.5C 26.1667,65.5 24.8333,65.5 23.5,65.5C 23.5,64.1667 23.5,62.8333 23.5,61.5 Z"/></g>
<g><path style="opacity:1" fill="#e3e3e3" d="M 31.5,61.5 C 33.8324,62.1617 34.4991,63.495 33.5,65.5C 32.5745,64.3595 31.7412,64.3595 31,65.5C 30.4209,64.0715 30.5876,62.7382 31.5,61.5 Z"/></g>
<g><path style="opacity:1" fill="#eeeeee" d="M 76.5,64.5 C 77.1667,64.5 77.8333,64.5 78.5,64.5C 77.8042,68.4517 77.3042,72.4517 77,76.5C 75.9542,78.0905 74.7875,79.5905 73.5,81C 66.5896,82.7511 59.5896,83.4178 52.5,83C 47.7965,82.819 44.7965,80.4856 43.5,76C 44.4158,75.7216 45.0825,75.2216 45.5,74.5C 45.369,73.7611 45.5357,73.0944 46,72.5C 51.1744,72.8566 51.6744,74.3566 47.5,77C 48.448,77.4828 49.448,77.6495 50.5,77.5C 52.6199,78.0974 54.7865,78.4308 57,78.5C 59.0197,77.9681 59.853,76.6348 59.5,74.5C 64.2203,74.2254 64.5537,75.0588 60.5,77C 63.8825,77.3091 66.5491,75.9758 68.5,73C 70.1667,72.6667 71.8333,72.3333 73.5,72C 74.2735,69.4028 75.2735,66.9028 76.5,64.5 Z"/></g>
<g><path style="opacity:1" fill="#b2b2b2" d="M 45.5,66.5 C 47.7242,67.9408 50.0576,69.2741 52.5,70.5C 52.5,71.1667 52.5,71.8333 52.5,72.5C 50.7988,72.0338 49.2988,72.0338 48,72.5C 47.6667,71.8333 47.3333,71.1667 47,70.5C 46.3333,71.8333 45.6667,71.8333 45,70.5C 44.51,71.7932 44.3433,73.1266 44.5,74.5C 43.6091,73.7387 42.9424,72.7387 42.5,71.5C 43.6963,69.8554 44.6963,68.1887 45.5,66.5 Z"/></g>
<g><path style="opacity:1" fill="#929292" d="M 71.5,63.5 C 69.5721,65.7808 68.5721,68.4475 68.5,71.5C 70.1439,71.7135 71.6439,71.3802 73,70.5C 73.2401,68.1484 74.0735,66.1484 75.5,64.5C 75.8333,64.5 76.1667,64.5 76.5,64.5C 75.2735,66.9028 74.2735,69.4028 73.5,72C 71.8333,72.3333 70.1667,72.6667 68.5,73C 66.5491,75.9758 63.8825,77.3091 60.5,77C 64.5537,75.0588 64.2203,74.2254 59.5,74.5C 59.853,76.6348 59.0197,77.9681 57,78.5C 54.7865,78.4308 52.6199,78.0974 50.5,77.5C 51.5,77.5 52.5,77.5 53.5,77.5C 53.7845,75.5853 53.4511,73.9187 52.5,72.5C 52.5,71.8333 52.5,71.1667 52.5,70.5C 57.6483,69.9264 62.4816,70.593 67,72.5C 66.6476,68.4582 68.1476,65.4582 71.5,63.5 Z"/></g>
<g><path style="opacity:1" fill="#5b5b5b" d="M 52.5,72.5 C 51.5592,74.0495 50.8925,75.7162 50.5,77.5C 49.448,77.6495 48.448,77.4828 47.5,77C 51.6744,74.3566 51.1744,72.8566 46,72.5C 45.5357,73.0944 45.369,73.7611 45.5,74.5C 45.1667,74.5 44.8333,74.5 44.5,74.5C 44.3433,73.1266 44.51,71.7932 45,70.5C 45.6667,71.8333 46.3333,71.8333 47,70.5C 47.3333,71.1667 47.6667,71.8333 48,72.5C 49.2988,72.0338 50.7988,72.0338 52.5,72.5 Z"/></g>
<g><path style="opacity:1" fill="#f4f4f4" d="M 54.5,71.5 C 55.4972,71.4701 56.1639,71.9701 56.5,73C 54.9061,77.3143 54.2394,76.8143 54.5,71.5 Z"/></g>
<g><path style="opacity:1" fill="#fcfcfc" d="M 52.5,72.5 C 53.4511,73.9187 53.7845,75.5853 53.5,77.5C 52.5,77.5 51.5,77.5 50.5,77.5C 50.8925,75.7162 51.5592,74.0495 52.5,72.5 Z"/></g>
<g><path style="opacity:1" fill="#c1c1c1" d="M 39.5,97.5 C 40.9311,97.8807 41.7645,98.8807 42,100.5C 42.8928,99.2888 43.7261,99.2888 44.5,100.5C 38.9628,106.303 37.2962,105.303 39.5,97.5 Z"/></g>
<g><path style="opacity:1" fill="#cbcbcb" d="M 85.5,99.5 C 87.8731,95.3582 90.2065,95.5249 92.5,100C 92.3333,101.5 91.5,102.333 90,102.5C 88.3566,101.685 86.8566,100.685 85.5,99.5 Z"/></g>
<g><path style="opacity:1" fill="#dddddd" d="M 85.5,99.5 C 85.7031,101.044 86.3698,102.378 87.5,103.5C 84.7424,107.59 82.409,107.257 80.5,102.5C 80.8333,102.167 81.1667,101.833 81.5,101.5C 82.2807,102.737 83.2807,103.737 84.5,104.5C 84.8333,104.167 85.1667,103.833 85.5,103.5C 84.8333,102.5 84.1667,101.5 83.5,100.5C 83.9569,99.7025 84.6236,99.3691 85.5,99.5 Z"/></g>
<g><path style="opacity:1" fill="#d6d6d6" d="M 45.5,101.5 C 46.7251,102.152 47.3917,103.319 47.5,105C 47.1769,109.477 46.1769,109.644 44.5,105.5C 43.6043,106.506 42.9377,106.506 42.5,105.5C 43.5244,104.148 44.5244,102.815 45.5,101.5 Z"/></g>
<g><path style="opacity:1" fill="#d8d8d8" d="M 75.5,104.5 C 74.791,105.404 73.791,105.737 72.5,105.5C 72.5,106.5 72.5,107.5 72.5,108.5C 77.1001,108.345 77.4334,109.012 73.5,110.5C 72.5581,110.392 71.7247,110.059 71,109.5C 69.9003,105.024 71.4003,103.358 75.5,104.5 Z"/></g>
<g><path style="opacity:1" fill="#cacaca" d="M 49.5,103.5 C 51.6648,103.116 53.3315,103.783 54.5,105.5C 53.3131,105.554 51.9798,105.887 50.5,106.5C 51.2634,107.719 52.2634,108.719 53.5,109.5C 48.8556,110.154 47.5222,108.154 49.5,103.5 Z"/></g>
<g><path style="opacity:1" fill="#dcdcdc" d="M 55.5,104.5 C 56.8589,105.007 57.8589,106.007 58.5,107.5C 61.2249,105.571 64.2249,105.071 67.5,106C 66.0798,107.53 65.0798,109.363 64.5,111.5C 62.8333,104.833 61.1667,104.833 59.5,111.5C 58.5522,108.285 57.2189,107.952 55.5,110.5C 55.1667,110.167 54.8333,109.833 54.5,109.5C 55.3094,107.929 55.6427,106.262 55.5,104.5 Z"/></g>
<g><path style="opacity:1" fill="#dedede" d="M 75.5,104.5 C 75.56,103.957 75.8933,103.624 76.5,103.5C 77.8986,105.103 79.5653,106.437 81.5,107.5C 78.1469,109.14 76.1469,108.14 75.5,104.5 Z"/></g>
</svg>
