<svg width="231" height="231" viewBox="0 0 231 231" fill="none" xmlns="http://www.w3.org/2000/svg">
<circle cx="115.5" cy="115.5" r="115.5" fill="#FFA859"/>
<path d="M158 76.0051C157.987 76.8201 157.968 77.6351 157.916 78.4501C157.452 85.9343 154.667 93.2496 150.035 99.1396C148.258 101.464 146.086 103.435 144.044 105.517C131.728 117.858 109.406 130.19 97.0901 142.535C93.537 146.048 91.5012 151 91.4947 155.997C85.3287 156 79.1627 156.003 73 155.993C73.013 155.286 73.0292 154.581 73.0584 153.876C73.5219 144.967 77.3181 136.281 83.5425 129.901C96.9863 116.43 120.44 102.965 133.884 89.4897C137.45 85.9732 139.492 81.0119 139.502 76.0051C145.668 76.0019 151.834 75.9954 158 76.0051Z" fill="white"/>
<path d="M157.002 147.122C157.666 150.024 157.987 153.005 158 155.987C151.894 156 145.785 155.97 139.679 156C139.657 152.146 138.549 148.296 136.437 145.112C133.987 141.337 130.212 136.274 126 135C131.5 130.5 134 127.5 139.83 123C147.5 129 154.748 137.119 157.002 147.122Z" fill="white"/>
<path d="M106 96C100.5 100.5 96 104 91.1715 108C83.6185 103.519 77.7443 96.2771 74.9517 87.932C73.6548 84.0973 73.0128 80.0503 73 76.0032C79.1085 76 85.2139 76.0032 91.3225 76C91.332 80.2658 92.8086 84.5091 95.4954 87.8226C97.9157 90.8467 102.289 94.9159 106 96Z" fill="white"/>
<rect x="73" y="64" width="85" height="12" fill="white"/>
<rect x="73" y="156" width="85" height="12" fill="white"/>
<rect x="100" y="45" width="12" height="19" fill="white"/>
<rect x="120" y="45" width="12" height="19" fill="white"/>
<rect x="100" y="167" width="12" height="19" fill="white"/>
<rect x="120" y="167" width="12" height="19" fill="white"/>
</svg>
