<?xml version="1.0" encoding="UTF-8" standalone="no"?>
<!DOCTYPE svg PUBLIC "-//W3C//DTD SVG 1.1//EN" "http://www.w3.org/Graphics/SVG/1.1/DTD/svg11.dtd">
<svg width="100%" height="100%" viewBox="0 0 64 64" version="1.1" xmlns="http://www.w3.org/2000/svg" xmlns:xlink="http://www.w3.org/1999/xlink" xml:space="preserve" xmlns:serif="http://www.serif.com/" style="fill-rule:evenodd;clip-rule:evenodd;stroke-linejoin:round;stroke-miterlimit:2;">
    <rect id="bC3M" x="0" y="0" width="64" height="64" style="fill:none;"/>
    <circle cx="32" cy="32" r="32" style="fill:rgb(12,61,172);"/>
    <g>
        <clipPath id="_clip1">
            <path d="M32,4C47.454,4 60,16.546 60,32C60,47.454 47.454,60 32,60C16.546,60 4,47.454 4,32C4,16.546 16.546,4 32,4ZM32,8C18.754,8 8,18.754 8,32C8,45.246 18.754,56 32,56C45.246,56 56,45.246 56,32C56,18.754 45.246,8 32,8Z"/>
        </clipPath>
        <g clip-path="url(#_clip1)">
            <path d="M0.049,30.18C0.317,25.385 1.671,20.58 4.211,16.133C4.236,16.089 4.261,16.045 4.287,16C4.313,15.956 4.338,15.912 4.364,15.868C7.698,10.156 12.537,5.857 18.089,3.185C24.064,0.309 30.864,-0.684 37.502,0.471C41.102,1.098 44.653,2.356 48,4.288C48.525,4.591 49.039,4.907 49.541,5.236C43.029,2.175 35.136,4.568 31.474,10.912L12.969,42.963C6.113,42.463 0.621,37.016 0.049,30.18Z" style="fill:url(#_Linear2);"/>
            <path d="M49.551,5.24C53.57,7.869 57.054,11.445 59.635,15.868C59.661,15.912 59.687,15.956 59.712,16C59.738,16.044 59.763,16.089 59.789,16.133C63.069,21.876 64.372,28.216 63.91,34.361C63.413,40.973 60.873,47.359 56.554,52.53C54.211,55.334 51.346,57.781 48,59.713C47.474,60.016 46.943,60.303 46.408,60.574C52.315,56.464 54.188,48.432 50.525,42.088L32.021,10.038C35.882,4.35 43.345,2.317 49.551,5.24Z" style="fill:url(#_Linear3);"/>
            <path d="M46.399,60.58C42.113,62.746 37.274,63.976 32.153,64C32.102,64 32.051,64 32,64C31.949,64 31.898,64 31.847,64C25.233,63.969 19.091,61.927 14,58.455C8.522,54.718 4.262,49.326 1.944,43C0.686,39.569 -0,35.864 -0,32C-0,31.393 0.017,30.79 0.05,30.191C0.656,37.361 6.675,43 14,43L51.009,43C54.004,49.187 52.034,56.667 46.399,60.58Z" style="fill:url(#_Linear4);"/>
        </g>
    </g>
    <path d="M31.62,15.047C31.673,14.882 31.827,14.771 32,14.771C32.173,14.771 32.327,14.882 32.38,15.047C32.661,15.909 32.993,16.932 32.993,16.932C32.993,16.932 34.068,16.932 34.975,16.932C35.148,16.932 35.302,17.044 35.355,17.209C35.409,17.373 35.35,17.554 35.21,17.656C34.477,18.189 33.606,18.821 33.606,18.821C33.606,18.821 33.939,19.843 34.219,20.706C34.272,20.87 34.214,21.051 34.074,21.153C33.933,21.255 33.744,21.255 33.603,21.153C32.87,20.62 32,19.988 32,19.988C32,19.988 31.13,20.62 30.397,21.153C30.256,21.255 30.067,21.255 29.926,21.153C29.786,21.051 29.728,20.87 29.781,20.706C30.061,19.843 30.394,18.821 30.394,18.821C30.394,18.821 29.523,18.189 28.79,17.656C28.65,17.554 28.591,17.373 28.645,17.209C28.698,17.044 28.852,16.932 29.025,16.932C29.932,16.932 31.007,16.932 31.007,16.932C31.007,16.932 31.339,15.909 31.62,15.047Z" style="fill:white;"/>
    <path d="M21.633,19.184C21.686,19.019 21.84,18.908 22.013,18.908C22.186,18.908 22.34,19.019 22.394,19.184C22.674,20.046 23.006,21.069 23.006,21.069C23.006,21.069 24.081,21.069 24.988,21.069C25.161,21.069 25.315,21.18 25.368,21.345C25.422,21.51 25.363,21.691 25.223,21.792C24.49,22.325 23.62,22.957 23.62,22.957C23.62,22.957 23.952,23.98 24.232,24.842C24.286,25.007 24.227,25.188 24.087,25.289C23.947,25.391 23.757,25.391 23.616,25.289C22.883,24.757 22.013,24.125 22.013,24.125C22.013,24.125 21.143,24.757 20.41,25.289C20.27,25.391 20.08,25.391 19.939,25.289C19.799,25.188 19.741,25.007 19.794,24.842C20.074,23.98 20.407,22.957 20.407,22.957C20.407,22.957 19.537,22.325 18.803,21.792C18.663,21.691 18.604,21.51 18.658,21.345C18.711,21.18 18.865,21.069 19.038,21.069C19.945,21.069 21.02,21.069 21.02,21.069C21.02,21.069 21.353,20.046 21.633,19.184Z" style="fill:white;"/>
    <path d="M17.62,29.047C17.673,28.882 17.827,28.771 18,28.771C18.173,28.771 18.327,28.882 18.38,29.047C18.661,29.909 18.993,30.932 18.993,30.932C18.993,30.932 20.068,30.932 20.975,30.932C21.148,30.932 21.302,31.044 21.355,31.209C21.409,31.373 21.35,31.554 21.21,31.656C20.477,32.189 19.606,32.821 19.606,32.821C19.606,32.821 19.939,33.843 20.219,34.706C20.272,34.87 20.214,35.051 20.074,35.153C19.933,35.255 19.744,35.255 19.603,35.153C18.87,34.62 18,33.988 18,33.988C18,33.988 17.13,34.62 16.397,35.153C16.256,35.255 16.067,35.255 15.926,35.153C15.786,35.051 15.728,34.87 15.781,34.706C16.061,33.843 16.394,32.821 16.394,32.821C16.394,32.821 15.523,32.189 14.79,31.656C14.65,31.554 14.591,31.373 14.645,31.209C14.698,31.044 14.852,30.932 15.025,30.932C15.932,30.932 17.007,30.932 17.007,30.932C17.007,30.932 17.339,29.909 17.62,29.047Z" style="fill:white;"/>
    <path d="M21.633,38.983C21.686,38.818 21.84,38.707 22.013,38.707C22.186,38.707 22.34,38.818 22.394,38.983C22.674,39.845 23.006,40.868 23.006,40.868C23.006,40.868 24.081,40.868 24.988,40.868C25.161,40.868 25.315,40.979 25.368,41.144C25.422,41.309 25.363,41.49 25.223,41.591C24.49,42.124 23.62,42.756 23.62,42.756C23.62,42.756 23.952,43.779 24.232,44.641C24.286,44.806 24.227,44.987 24.087,45.088C23.947,45.19 23.757,45.19 23.616,45.088C22.883,44.556 22.013,43.924 22.013,43.924C22.013,43.924 21.143,44.556 20.41,45.088C20.27,45.19 20.08,45.19 19.939,45.088C19.799,44.987 19.741,44.806 19.794,44.641C20.074,43.779 20.407,42.756 20.407,42.756C20.407,42.756 19.537,42.124 18.803,41.591C18.663,41.49 18.604,41.309 18.658,41.144C18.711,40.979 18.865,40.868 19.038,40.868C19.945,40.868 21.02,40.868 21.02,40.868C21.02,40.868 21.353,39.845 21.633,38.983Z" style="fill:white;"/>
    <path d="M45.62,29.047C45.673,28.882 45.827,28.771 46,28.771C46.173,28.771 46.327,28.882 46.38,29.047C46.661,29.909 46.993,30.932 46.993,30.932C46.993,30.932 48.068,30.932 48.975,30.932C49.148,30.932 49.302,31.044 49.355,31.209C49.409,31.373 49.35,31.554 49.21,31.656C48.477,32.189 47.606,32.821 47.606,32.821C47.606,32.821 47.939,33.843 48.219,34.706C48.272,34.87 48.214,35.051 48.074,35.153C47.933,35.255 47.744,35.255 47.603,35.153C46.87,34.62 46,33.988 46,33.988C46,33.988 45.13,34.62 44.397,35.153C44.256,35.255 44.067,35.255 43.926,35.153C43.786,35.051 43.728,34.87 43.781,34.706C44.061,33.843 44.394,32.821 44.394,32.821C44.394,32.821 43.523,32.189 42.79,31.656C42.65,31.554 42.591,31.373 42.645,31.209C42.698,31.044 42.852,30.932 43.025,30.932C43.932,30.932 45.007,30.932 45.007,30.932C45.007,30.932 45.339,29.909 45.62,29.047Z" style="fill:white;"/>
    <path d="M41.432,19.184C41.485,19.019 41.639,18.908 41.812,18.908C41.985,18.908 42.139,19.019 42.193,19.184C42.473,20.046 42.805,21.069 42.805,21.069C42.805,21.069 43.88,21.069 44.787,21.069C44.96,21.069 45.114,21.18 45.167,21.345C45.221,21.51 45.162,21.691 45.022,21.792C44.289,22.325 43.419,22.957 43.419,22.957C43.419,22.957 43.751,23.98 44.031,24.842C44.085,25.007 44.026,25.188 43.886,25.29C43.746,25.391 43.556,25.391 43.416,25.29C42.682,24.757 41.812,24.125 41.812,24.125C41.812,24.125 40.942,24.757 40.209,25.29C40.069,25.391 39.879,25.391 39.738,25.29C39.598,25.188 39.54,25.007 39.593,24.842C39.873,23.98 40.206,22.957 40.206,22.957C40.206,22.957 39.336,22.325 38.602,21.792C38.462,21.691 38.403,21.51 38.457,21.345C38.51,21.18 38.664,21.069 38.837,21.069C39.744,21.069 40.819,21.069 40.819,21.069C40.819,21.069 41.152,20.046 41.432,19.184Z" style="fill:white;"/>
    <path d="M31.62,43.047C31.673,42.882 31.827,42.771 32,42.771C32.173,42.771 32.327,42.882 32.38,43.047C32.661,43.909 32.993,44.932 32.993,44.932C32.993,44.932 34.068,44.932 34.975,44.932C35.148,44.932 35.302,45.044 35.355,45.209C35.409,45.373 35.35,45.554 35.21,45.656C34.477,46.189 33.606,46.821 33.606,46.821C33.606,46.821 33.939,47.843 34.219,48.706C34.272,48.87 34.214,49.051 34.074,49.153C33.933,49.255 33.744,49.255 33.603,49.153C32.87,48.62 32,47.988 32,47.988C32,47.988 31.13,48.62 30.397,49.153C30.256,49.255 30.067,49.255 29.926,49.153C29.786,49.051 29.728,48.87 29.781,48.706C30.061,47.843 30.394,46.821 30.394,46.821C30.394,46.821 29.523,46.189 28.79,45.656C28.65,45.554 28.591,45.373 28.645,45.209C28.698,45.044 28.852,44.932 29.025,44.932C29.932,44.932 31.007,44.932 31.007,44.932C31.007,44.932 31.339,43.909 31.62,43.047Z" style="fill:white;"/>
    <path d="M41.432,38.983C41.485,38.818 41.639,38.707 41.812,38.707C41.985,38.707 42.139,38.818 42.193,38.983C42.473,39.845 42.805,40.868 42.805,40.868C42.805,40.868 43.88,40.868 44.787,40.868C44.96,40.868 45.114,40.979 45.167,41.144C45.221,41.309 45.162,41.49 45.022,41.591C44.289,42.124 43.419,42.756 43.419,42.756C43.419,42.756 43.751,43.779 44.031,44.641C44.085,44.806 44.026,44.987 43.886,45.088C43.746,45.19 43.556,45.19 43.415,45.088C42.682,44.556 41.812,43.924 41.812,43.924C41.812,43.924 40.942,44.556 40.209,45.088C40.069,45.19 39.879,45.19 39.738,45.088C39.598,44.987 39.54,44.806 39.593,44.641C39.873,43.779 40.206,42.756 40.206,42.756C40.206,42.756 39.336,42.124 38.602,41.591C38.462,41.49 38.403,41.309 38.457,41.144C38.51,40.979 38.664,40.868 38.837,40.868C39.744,40.868 40.819,40.868 40.819,40.868C40.819,40.868 41.152,39.845 41.432,38.983Z" style="fill:white;"/>
    <defs>
        <linearGradient id="_Linear2" x1="0" y1="0" x2="1" y2="0" gradientUnits="userSpaceOnUse" gradientTransform="matrix(19.0519,-32.924,32.924,19.0519,12.9694,42.9626)"><stop offset="0" style="stop-color:white;stop-opacity:0.25"/><stop offset="1" style="stop-color:white;stop-opacity:0.75"/></linearGradient>
        <linearGradient id="_Linear3" x1="0" y1="0" x2="1" y2="0" gradientUnits="userSpaceOnUse" gradientTransform="matrix(18.9869,32.9611,-32.9611,18.9869,32.0214,10.0386)"><stop offset="0" style="stop-color:white;stop-opacity:0.25"/><stop offset="1" style="stop-color:white;stop-opacity:0.75"/></linearGradient>
        <linearGradient id="_Linear4" x1="0" y1="0" x2="1" y2="0" gradientUnits="userSpaceOnUse" gradientTransform="matrix(38.0386,0.0374306,-0.0374306,38.0386,12.9697,42.9623)"><stop offset="0" style="stop-color:white;stop-opacity:0.75"/><stop offset="1" style="stop-color:white;stop-opacity:0.25"/></linearGradient>
    </defs>
</svg>
