<svg height="250" viewBox="0 0 250 250" width="250" xmlns="http://www.w3.org/2000/svg" xmlns:xlink="http://www.w3.org/1999/xlink"><filter id="a" height="100%" width="100%" x="0%" y="0%"><feColorMatrix in="SourceGraphic" type="matrix" values="0 0 0 0 1 0 0 0 0 1 0 0 0 0 1 0 0 0 1 0"/></filter><mask id="b"><g filter="url(#a)"><path d="m0 0h250v250h-250z" fill-opacity=".9"/></g></mask><clipPath id="c"><path d="m0 0h250v250h-250z"/></clipPath><mask id="d"><g filter="url(#a)"><path d="m0 0h250v250h-250z" fill-opacity=".8"/></g></mask><clipPath id="e"><path d="m0 0h250v250h-250z"/></clipPath><mask id="f"><g filter="url(#a)"><path d="m0 0h250v250h-250z" fill-opacity=".7"/></g></mask><clipPath id="g"><path d="m0 0h250v250h-250z"/></clipPath><mask id="h"><g filter="url(#a)"><path d="m0 0h250v250h-250z" fill-opacity=".6"/></g></mask><clipPath id="i"><path d="m0 0h250v250h-250z"/></clipPath><mask id="j"><g filter="url(#a)"><path d="m0 0h250v250h-250z" fill-opacity=".5"/></g></mask><clipPath id="k"><path d="m0 0h250v250h-250z"/></clipPath><mask id="l"><g filter="url(#a)"><path d="m0 0h250v250h-250z" fill-opacity=".4"/></g></mask><clipPath id="m"><path d="m0 0h250v250h-250z"/></clipPath><mask id="n"><g filter="url(#a)"><path d="m0 0h250v250h-250z" fill-opacity=".9"/></g></mask><clipPath id="o"><path d="m0 0h250v250h-250z"/></clipPath><mask id="p"><g filter="url(#a)"><path d="m0 0h250v250h-250z" fill-opacity=".8"/></g></mask><clipPath id="q"><path d="m0 0h250v250h-250z"/></clipPath><mask id="r"><g filter="url(#a)"><path d="m0 0h250v250h-250z" fill-opacity=".7"/></g></mask><clipPath id="s"><path d="m0 0h250v250h-250z"/></clipPath><mask id="t"><g filter="url(#a)"><path d="m0 0h250v250h-250z" fill-opacity=".6"/></g></mask><clipPath id="u"><path d="m0 0h250v250h-250z"/></clipPath><mask id="v"><g filter="url(#a)"><path d="m0 0h250v250h-250z" fill-opacity=".5"/></g></mask><clipPath id="w"><path d="m0 0h250v250h-250z"/></clipPath><mask id="x"><g filter="url(#a)"><path d="m0 0h250v250h-250z" fill-opacity=".9"/></g></mask><clipPath id="y"><path d="m0 0h250v250h-250z"/></clipPath><mask id="z"><g filter="url(#a)"><path d="m0 0h250v250h-250z" fill-opacity=".8"/></g></mask><clipPath id="A"><path d="m0 0h250v250h-250z"/></clipPath><mask id="B"><g filter="url(#a)"><path d="m0 0h250v250h-250z" fill-opacity=".7"/></g></mask><clipPath id="C"><path d="m0 0h250v250h-250z"/></clipPath><mask id="D"><g filter="url(#a)"><path d="m0 0h250v250h-250z" fill-opacity=".6"/></g></mask><clipPath id="E"><path d="m0 0h250v250h-250z"/></clipPath><mask id="F"><g filter="url(#a)"><path d="m0 0h250v250h-250z" fill-opacity=".5"/></g></mask><clipPath id="G"><path d="m0 0h250v250h-250z"/></clipPath><mask id="H"><g filter="url(#a)"><path d="m0 0h250v250h-250z" fill-opacity=".4"/></g></mask><clipPath id="I"><path d="m0 0h250v250h-250z"/></clipPath><mask id="J"><g filter="url(#a)"><path d="m0 0h250v250h-250z" fill-opacity=".9"/></g></mask><clipPath id="K"><path d="m0 0h250v250h-250z"/></clipPath><mask id="L"><g filter="url(#a)"><path d="m0 0h250v250h-250z" fill-opacity=".8"/></g></mask><clipPath id="M"><path d="m0 0h250v250h-250z"/></clipPath><mask id="N"><g filter="url(#a)"><path d="m0 0h250v250h-250z" fill-opacity=".7"/></g></mask><clipPath id="O"><path d="m0 0h250v250h-250z"/></clipPath><mask id="P"><g filter="url(#a)"><path d="m0 0h250v250h-250z" fill-opacity=".6"/></g></mask><clipPath id="Q"><path d="m0 0h250v250h-250z"/></clipPath><mask id="R"><g filter="url(#a)"><path d="m0 0h250v250h-250z" fill-opacity=".5"/></g></mask><clipPath id="S"><path d="m0 0h250v250h-250z"/></clipPath><mask id="T"><g filter="url(#a)"><path d="m0 0h250v250h-250z" fill-opacity=".4"/></g></mask><clipPath id="U"><path d="m0 0h250v250h-250z"/></clipPath><mask id="V"><g filter="url(#a)"><path d="m0 0h250v250h-250z" fill-opacity=".9"/></g></mask><clipPath id="W"><path d="m0 0h250v250h-250z"/></clipPath><mask id="X"><g filter="url(#a)"><path d="m0 0h250v250h-250z" fill-opacity=".8"/></g></mask><clipPath id="Y"><path d="m0 0h250v250h-250z"/></clipPath><mask id="Z"><g filter="url(#a)"><path d="m0 0h250v250h-250z" fill-opacity=".7"/></g></mask><clipPath id="aa"><path d="m0 0h250v250h-250z"/></clipPath><mask id="ab"><g filter="url(#a)"><path d="m0 0h250v250h-250z" fill-opacity=".6"/></g></mask><clipPath id="ac"><path d="m0 0h250v250h-250z"/></clipPath><mask id="ad"><g filter="url(#a)"><path d="m0 0h250v250h-250z" fill-opacity=".5"/></g></mask><clipPath id="ae"><path d="m0 0h250v250h-250z"/></clipPath><mask id="af"><g filter="url(#a)"><path d="m0 0h250v250h-250z" fill-opacity=".4"/></g></mask><clipPath id="ag"><path d="m0 0h250v250h-250z"/></clipPath><path d="m155.074219 152.175781c0 4.800781-3.894531 8.695313-8.699219 8.695313-4.800781 0-8.695312-3.894532-8.695312-8.695313 0-4.804687 3.894531-8.699219 8.695312-8.699219 4.804688 0 8.699219 3.894532 8.699219 8.699219zm0 0" fill="#4178b7"/><g clip-path="url(#c)" mask="url(#b)"><path d="m168.839844 169.566406c0 4.402344-3.566406 7.96875-7.96875 7.96875s-7.972656-3.566406-7.972656-7.96875 3.570312-7.972656 7.972656-7.972656 7.96875 3.570312 7.96875 7.972656zm0 0" fill="#4178b7"/></g><g clip-path="url(#e)" mask="url(#d)"><path d="m180.433594 186.230469c0 4.003906-3.242188 7.246093-7.246094 7.246093-4 0-7.246094-3.242187-7.246094-7.246093 0-4 3.246094-7.246094 7.246094-7.246094 4.003906 0 7.246094 3.246094 7.246094 7.246094zm0 0" fill="#4178b7"/></g><g clip-path="url(#g)" mask="url(#f)"><path d="m188.40625 202.535156c0 3.203125-2.597656 5.796875-5.796875 5.796875-3.203125 0-5.796875-2.59375-5.796875-5.796875 0-3.199218 2.59375-5.796875 5.796875-5.796875 3.199219 0 5.796875 2.597657 5.796875 5.796875zm0 0" fill="#4178b7"/></g><g clip-path="url(#i)" mask="url(#h)"><path d="m194.925781 218.117188c0 2.601562-2.105469 4.707031-4.707031 4.707031s-4.710938-2.105469-4.710938-4.707031c0-2.601563 2.109376-4.710938 4.710938-4.710938s4.707031 2.109375 4.707031 4.710938zm0 0" fill="#4178b7"/></g><g clip-path="url(#k)" mask="url(#j)"><path d="m199.636719 233.695312c0 2.402344-1.945313 4.347657-4.347657 4.347657-2.402343 0-4.347656-1.945313-4.347656-4.347657 0-2.402343 1.945313-4.347656 4.347656-4.347656 2.402344 0 4.347657 1.945313 4.347657 4.347656zm0 0" fill="#4178b7"/></g><g clip-path="url(#m)" mask="url(#l)"><path d="m201.449219 248.1875c0 1.800781-1.460938 3.261719-3.261719 3.261719s-3.261719-1.460938-3.261719-3.261719 1.460938-3.261719 3.261719-3.261719 3.261719 1.460938 3.261719 3.261719zm0 0" fill="#4178b7"/></g><path d="m157.246094 122.824219c0 4.804687-3.894532 8.699219-8.695313 8.699219s-8.695312-3.894532-8.695312-8.699219c0-4.800781 3.894531-8.695313 8.695312-8.695313s8.695313 3.894532 8.695313 8.695313zm0 0" fill="#4178b7"/><g clip-path="url(#o)" mask="url(#n)"><path d="m177.535156 114.492188c0 4.402343-3.566406 7.972656-7.96875 7.972656s-7.972656-3.570313-7.972656-7.972656c0-4.402344 3.570312-7.96875 7.972656-7.96875s7.96875 3.566406 7.96875 7.96875zm0 0" fill="#4178b7"/></g><g clip-path="url(#q)" mask="url(#p)"><path d="m196.375 107.609375c0 4-3.242188 7.246094-7.246094 7.246094-4 0-7.246094-3.246094-7.246094-7.246094 0-4.003906 3.246094-7.246094 7.246094-7.246094 4.003906 0 7.246094 3.242188 7.246094 7.246094zm0 0" fill="#4178b7"/></g><g clip-path="url(#s)" mask="url(#r)"><path d="m213.042969 103.625c0 3.199219-2.59375 5.796875-5.796875 5.796875s-5.796875-2.597656-5.796875-5.796875c0-3.203125 2.59375-5.800781 5.796875-5.800781s5.796875 2.597656 5.796875 5.800781zm0 0" fill="#4178b7"/></g><g clip-path="url(#u)" mask="url(#t)"><path d="m229.347656 101.449219c0 2.601562-2.109375 4.710937-4.710937 4.710937-2.601563 0-4.710938-2.109375-4.710938-4.710937 0-2.601563 2.109375-4.710938 4.710938-4.710938 2.601562 0 4.710937 2.109375 4.710937 4.710938zm0 0" fill="#4178b7"/></g><g clip-path="url(#w)" mask="url(#v)"><path d="m245.289062 101.449219c0 2.402343-1.945312 4.347656-4.347656 4.347656s-4.347656-1.945313-4.347656-4.347656c0-2.402344 1.945312-4.347657 4.347656-4.347657s4.347656 1.945313 4.347656 4.347657zm0 0" fill="#4178b7"/></g><path d="m129.710938 111.59375c0 4.804688-3.894532 8.695312-8.695313 8.695312-4.804687 0-8.695313-3.890624-8.695313-8.695312 0-4.800781 3.890626-8.695312 8.695313-8.695312 4.800781 0 8.695313 3.894531 8.695313 8.695312zm0 0" fill="#4178b7"/><g clip-path="url(#y)" mask="url(#x)"><path d="m127.535156 88.769531c0 4.402344-3.566406 7.96875-7.96875 7.96875s-7.972656-3.566406-7.972656-7.96875c0-4.402343 3.570312-7.972656 7.972656-7.972656s7.96875 3.570313 7.96875 7.972656zm0 0" fill="#4178b7"/></g><g clip-path="url(#A)" mask="url(#z)"><path d="m126.449219 68.117188c0 4-3.246094 7.246093-7.246094 7.246093-4.003906 0-7.246094-3.246093-7.246094-7.246093 0-4.003907 3.242188-7.246094 7.246094-7.246094 4 0 7.246094 3.242187 7.246094 7.246094zm0 0" fill="#4178b7"/></g><g clip-path="url(#C)" mask="url(#B)"><path d="m126.8125 49.636719c0 3.203125-2.597656 5.796875-5.796875 5.796875-3.203125 0-5.796875-2.59375-5.796875-5.796875 0-3.199219 2.59375-5.796875 5.796875-5.796875 3.199219 0 5.796875 2.597656 5.796875 5.796875zm0 0" fill="#4178b7"/></g><g clip-path="url(#E)" mask="url(#D)"><path d="m128.984375 32.609375c0 2.601563-2.109375 4.710937-4.710937 4.710937-2.597657 0-4.707032-2.109374-4.707032-4.710937s2.109375-4.710937 4.707032-4.710937c2.601562 0 4.710937 2.109374 4.710937 4.710937zm0 0" fill="#4178b7"/></g><g clip-path="url(#G)" mask="url(#F)"><path d="m133.332031 17.027344c0 2.402344-1.945312 4.347656-4.347656 4.347656-2.398437 0-4.347656-1.945312-4.347656-4.347656 0-2.398438 1.949219-4.347656 4.347656-4.347656 2.402344 0 4.347656 1.949218 4.347656 4.347656zm0 0" fill="#4178b7"/></g><g clip-path="url(#I)" mask="url(#H)"><path d="m138.40625 3.261719c0 1.800781-1.460938 3.261719-3.261719 3.261719s-3.261719-1.460938-3.261719-3.261719 1.460938-3.261719 3.261719-3.261719 3.261719 1.460938 3.261719 3.261719zm0 0" fill="#4178b7"/></g><path d="m110.507812 134.421875c0 4.800781-3.894531 8.695313-8.695312 8.695313-4.804688 0-8.695312-3.894532-8.695312-8.695313 0-4.804687 3.890624-8.695313 8.695312-8.695313 4.800781 0 8.695312 3.890626 8.695312 8.695313zm0 0" fill="#4178b7"/><g clip-path="url(#K)" mask="url(#J)"><path d="m87.679688 128.625c0 4.402344-3.566407 7.96875-7.96875 7.96875-4.402344 0-7.972657-3.566406-7.972657-7.96875s3.570313-7.972656 7.972657-7.972656c4.402343 0 7.96875 3.570312 7.96875 7.972656zm0 0" fill="#4178b7"/></g><g clip-path="url(#M)" mask="url(#L)"><path d="m67.390625 122.464844c0 4-3.242187 7.246094-7.246094 7.246094-4 0-7.246093-3.246094-7.246093-7.246094 0-4.003906 3.246093-7.246094 7.246093-7.246094 4.003907 0 7.246094 3.242188 7.246094 7.246094zm0 0" fill="#4178b7"/></g><g clip-path="url(#O)" mask="url(#N)"><path d="m48.914062 114.855469c0 3.203125-2.597656 5.796875-5.796874 5.796875-3.203126 0-5.796876-2.59375-5.796876-5.796875s2.59375-5.796875 5.796876-5.796875c3.199218 0 5.796874 2.59375 5.796874 5.796875zm0 0" fill="#4178b7"/></g><g clip-path="url(#Q)" mask="url(#P)"><path d="m32.246094 106.523438c0 2.601562-2.109375 4.707031-4.710938 4.707031-2.601562 0-4.710937-2.105469-4.710937-4.707031 0-2.601563 2.109375-4.710938 4.710937-4.710938 2.601563 0 4.710938 2.109375 4.710938 4.710938zm0 0" fill="#4178b7"/></g><g clip-path="url(#S)" mask="url(#R)"><path d="m18.839844 97.101562c0 2.402344-1.945313 4.347657-4.347656 4.347657-2.402344 0-4.347657-1.945313-4.347657-4.347657 0-2.402343 1.945313-4.347656 4.347657-4.347656 2.402343 0 4.347656 1.945313 4.347656 4.347656zm0 0" fill="#4178b7"/></g><g clip-path="url(#U)" mask="url(#T)"><path d="m6.523438 87.320312c0 1.800782-1.460938 3.257813-3.261719 3.257813s-3.261719-1.457031-3.261719-3.257813c0-1.800781 1.460938-3.261718 3.261719-3.261718s3.261719 1.460937 3.261719 3.261718zm0 0" fill="#4178b7"/></g><path d="m126.085938 159.421875c0 4.800781-3.890626 8.695313-8.695313 8.695313-4.800781 0-8.695313-3.894532-8.695313-8.695313 0-4.804687 3.894532-8.695313 8.695313-8.695313 4.804687 0 8.695313 3.890626 8.695313 8.695313zm0 0" fill="#4178b7"/><g clip-path="url(#W)" mask="url(#V)"><path d="m113.40625 178.625c0 4.402344-3.570312 7.96875-7.972656 7.96875s-7.96875-3.566406-7.96875-7.96875 3.566406-7.972656 7.96875-7.972656 7.972656 3.570312 7.972656 7.972656zm0 0" fill="#4178b7"/></g><g clip-path="url(#Y)" mask="url(#X)"><path d="m100.726562 195.652344c0 4-3.246093 7.246094-7.25 7.246094-4 0-7.246093-3.246094-7.246093-7.246094 0-4.003906 3.246093-7.246094 7.246093-7.246094 4.003907 0 7.25 3.242188 7.25 7.246094zm0 0" fill="#4178b7"/></g><g clip-path="url(#aa)" mask="url(#Z)"><path d="m86.59375 209.421875c0 3.199219-2.59375 5.796875-5.796875 5.796875s-5.796875-2.597656-5.796875-5.796875c0-3.203125 2.59375-5.796875 5.796875-5.796875s5.796875 2.59375 5.796875 5.796875zm0 0" fill="#4178b7"/></g><g clip-path="url(#ac)" mask="url(#ab)"><path d="m73.1875 221.375c0 2.601562-2.109375 4.710938-4.710938 4.710938-2.601562 0-4.707031-2.109376-4.707031-4.710938 0-2.597656 2.105469-4.707031 4.707031-4.707031 2.601563 0 4.710938 2.109375 4.710938 4.707031zm0 0" fill="#4178b7"/></g><g clip-path="url(#ae)" mask="url(#ad)"><path d="m59.78125 231.160156c0 2.402344-1.945312 4.347656-4.347656 4.347656-2.398438 0-4.347656-1.945312-4.347656-4.347656s1.949218-4.347656 4.347656-4.347656c2.402344 0 4.347656 1.945312 4.347656 4.347656zm0 0" fill="#4178b7"/></g><g clip-path="url(#ag)" mask="url(#af)"><path d="m45.652344 238.40625c0 1.800781-1.460938 3.261719-3.261719 3.261719s-3.261719-1.460938-3.261719-3.261719 1.460938-3.261719 3.261719-3.261719 3.261719 1.460938 3.261719 3.261719zm0 0" fill="#4178b7"/></g></svg>