<!-- Generator: Adobe Illustrator 21.1.0, SVG Export Plug-In . SVG Version: 6.00 Build 0)  -->
<svg xmlns="http://www.w3.org/2000/svg" xmlns:xlink="http://www.w3.org/1999/xlink" width="250px" height="250px" viewBox="0 0 250 250" version="1.1">
<g id="surface1">
<path style=" stroke:none;fill-rule:nonzero;fill:rgb(100%,75.686276%,2.745098%);fill-opacity:1;" d="M 24.820312 123.820312 L 0 112.449219 L 0 45.570312 L 99.375 0.0195312 L 124.019531 11.390625 L 24.820312 56.941406 Z M 24.820312 123.820312 "/>
<path style=" stroke:none;fill-rule:nonzero;fill:rgb(100%,75.686276%,2.745098%);fill-opacity:1;" d="M 249.019531 68.238281 L 149.820312 22.6875 L 50.535156 68.238281 L 50.535156 135.117188 L 75.355469 123.75 L 75.355469 79.609375 L 149.820312 45.429688 L 149.820312 89.566406 L 249.019531 135.117188 Z M 249.019531 68.238281 "/>
<path style=" stroke:none;fill-rule:nonzero;fill:rgb(100%,75.686276%,2.745098%);fill-opacity:1;" d="M 65.355469 229.640625 C 67.589844 226.25 68.660156 222.4375 68.660156 218.199219 C 68.660156 214.035156 67.5 210.292969 65.269531 206.902344 C 63.035156 203.511719 59.910156 200.898438 55.980469 198.992188 C 52.054688 197.085938 47.589844 196.167969 42.589844 196.167969 C 37.589844 196.167969 33.125 197.085938 29.105469 198.992188 C 25.179688 200.898438 22.054688 203.511719 19.730469 206.902344 C 17.5 210.292969 16.339844 214.035156 16.339844 218.199219 C 16.339844 222.507812 17.5 226.394531 19.730469 229.710938 C 21.964844 233.03125 25.089844 235.644531 29.105469 237.550781 C 33.035156 239.457031 37.589844 240.375 42.589844 240.375 C 47.589844 240.375 52.054688 239.457031 56.070312 237.550781 C 60 235.644531 63.125 233.03125 65.355469 229.640625 Z M 75.179688 202.027344 C 78.304688 206.832031 79.910156 212.339844 79.910156 218.554688 C 79.910156 224.699219 78.394531 230.136719 75.269531 234.867188 C 72.144531 239.597656 67.855469 243.34375 62.144531 245.953125 C 56.519531 248.566406 50.089844 249.910156 42.769531 249.910156 C 36.160156 249.910156 30.445312 248.78125 25.445312 246.589844 C 20.445312 244.402344 16.519531 241.222656 13.660156 237.128906 L 13.660156 249.484375 L 0 249.484375 L 0 162.058594 L 13.660156 162.058594 L 13.660156 199.558594 C 16.519531 195.460938 20.445312 192.351562 25.355469 190.09375 C 30.269531 187.902344 35.980469 186.773438 42.5 186.773438 C 49.730469 186.773438 56.25 188.117188 61.875 190.800781 C 67.589844 193.484375 72.054688 197.226562 75.179688 202.027344 Z M 75.179688 202.027344 "/>
<path style=" stroke:none;fill-rule:nonzero;fill:rgb(100%,75.686276%,2.745098%);fill-opacity:1;" d="M 152.945312 213.964844 C 152.589844 208.3125 150.179688 203.792969 145.804688 200.546875 C 141.429688 197.296875 135.714844 195.601562 128.660156 195.601562 C 121.785156 195.601562 115.980469 197.296875 111.429688 200.546875 C 106.875 203.863281 104.105469 208.3125 103.214844 213.964844 Z M 155.625 195.320312 C 161.785156 201.039062 164.910156 208.949219 164.910156 219.117188 C 164.910156 220.671875 164.820312 221.871094 164.730469 222.648438 L 103.214844 222.648438 C 104.285156 228.230469 107.230469 232.679688 111.964844 235.996094 C 116.695312 239.316406 122.589844 240.941406 129.554688 240.941406 C 134.195312 240.941406 138.480469 240.304688 142.410156 238.964844 C 146.339844 237.621094 149.820312 235.714844 152.769531 233.3125 L 160.269531 239.597656 C 156.429688 242.917969 151.785156 245.460938 146.429688 247.296875 C 141.070312 249.132812 135 249.980469 128.480469 249.980469 C 120.804688 249.980469 114.019531 248.636719 108.125 246.027344 C 102.144531 243.414062 97.589844 239.667969 94.285156 234.867188 C 90.980469 230.066406 89.375 224.628906 89.375 218.484375 C 89.375 212.339844 90.980469 206.902344 94.285156 202.097656 C 97.589844 197.367188 102.144531 193.625 108.035156 190.871094 C 113.929688 188.1875 120.625 186.773438 128.214844 186.773438 C 140.355469 186.773438 149.464844 189.597656 155.625 195.320312 Z M 155.625 195.320312 "/>
<path style=" stroke:none;fill-rule:nonzero;fill:rgb(100%,75.686276%,2.745098%);fill-opacity:1;" d="M 238.035156 213.964844 C 237.679688 208.3125 235.269531 203.792969 230.894531 200.546875 C 226.519531 197.296875 220.804688 195.601562 213.75 195.601562 C 206.875 195.601562 201.070312 197.296875 196.519531 200.546875 C 191.964844 203.863281 189.195312 208.3125 188.304688 213.964844 Z M 240.714844 195.320312 C 246.875 201.039062 250 208.949219 250 219.117188 C 250 220.671875 249.910156 221.871094 249.820312 222.648438 L 188.304688 222.648438 C 189.375 228.230469 192.320312 232.679688 197.054688 235.996094 C 201.785156 239.316406 207.679688 240.941406 214.644531 240.941406 C 219.285156 240.941406 223.570312 240.304688 227.5 238.964844 C 231.429688 237.621094 234.910156 235.714844 237.855469 233.3125 L 245.355469 239.597656 C 241.519531 242.917969 236.875 245.460938 231.519531 247.296875 C 226.160156 249.132812 220.089844 249.980469 213.570312 249.980469 C 205.894531 249.980469 199.105469 248.636719 193.214844 246.027344 C 187.230469 243.414062 182.679688 239.667969 179.375 234.867188 C 176.070312 230.066406 174.464844 224.628906 174.464844 218.484375 C 174.464844 212.339844 176.070312 206.902344 179.375 202.097656 C 182.679688 197.367188 187.230469 193.625 193.125 190.871094 C 199.019531 188.1875 205.714844 186.773438 213.304688 186.773438 C 225.445312 186.773438 234.554688 189.597656 240.714844 195.320312 Z M 240.714844 195.320312 "/>
</g>
</svg>
