
<svg xmlns="http://www.w3.org/2000/svg" xmlns:xlink="http://www.w3.org/1999/xlink" width="250px" height="250px" viewBox="0 0 250 250" version="1.1">
<defs>
<clipPath id="clip1">
  <path d="M 3 32 L 195 32 L 195 217 L 3 217 Z M 3 32 "/>
</clipPath>
<clipPath id="clip2">
  <path d="M 125 246.28125 C 57.8125 246.28125 3.71875 192.1875 3.71875 125 C 3.71875 57.8125 57.8125 3.71875 125 3.71875 C 192.1875 3.71875 246.28125 57.8125 246.28125 125 C 246.28125 192.1875 192.1875 246.28125 125 246.28125 Z M 125 246.28125 "/>
</clipPath>
</defs>
<g id="surface1">
<path style=" stroke:none;fill-rule:nonzero;fill:rgb(0%,0%,0%);fill-opacity:1;" d="M 246.25 125 C 246.25 191.964844 191.964844 246.25 125 246.25 C 58.035156 246.25 3.75 191.964844 3.75 125 C 3.75 58.035156 58.035156 3.75 125 3.75 C 191.964844 3.75 246.25 58.035156 246.25 125 Z M 246.25 125 "/>
<path style=" stroke:none;fill-rule:nonzero;fill:rgb(0%,0%,0%);fill-opacity:1;" d="M 125 246.28125 C 57.8125 246.28125 3.71875 192.1875 3.71875 125 C 3.71875 57.8125 57.8125 3.71875 125 3.71875 C 192.1875 3.71875 246.28125 57.8125 246.28125 125 C 246.28125 192.1875 192.1875 246.28125 125 246.28125 Z M 125 246.28125 "/>
<g clip-path="url(#clip1)" clip-rule="nonzero">
<g clip-path="url(#clip2)" clip-rule="nonzero">
<path style=" stroke:none;fill-rule:nonzero;fill:rgb(100%,100%,100%);fill-opacity:1;" d="M 194.84375 125.375 L 193.09375 125.21875 L 194.8125 124.875 L 192.46875 113.21875 L 190.75 113.5625 L 192.3125 112.78125 L 186.71875 101.59375 L 185.15625 102.375 L 186.53125 101.3125 L 178.125 90.59375 L 176.75 91.65625 L 177.9375 90.375 L 166.75 80.125 L 165.5625 81.40625 L 166.53125 79.96875 L 152.0625 70.15625 L 151.09375 71.59375 L 151.90625 70.0625 L 135.125 61.1875 L 134.3125 62.71875 L 134.96875 61.09375 L 116.3125 53.625 L 115.65625 55.25 L 116.15625 53.5625 L 96.09375 47.5 L 95.59375 49.1875 L 96.09375 47.5 L 75.09375 41.4375 L 74.59375 43.125 L 74.875 41.40625 L 52.5 37.65625 L 52.21875 39.375 L 52.4375 37.625 L 30.5 34.8125 L 30.28125 36.5625 L 30.375 34.8125 L 8.03125 33.4375 L 7.9375 35.1875 L 7.96875 33.4375 L -13.96875 32.96875 L -14 34.71875 L -14.09375 32.96875 L -33.6875 33.90625 L -33.59375 35.65625 L -33.75 33.90625 L -53.34375 35.78125 L -53.1875 37.53125 L -53.46875 35.8125 L -70.71875 38.625 L -70.4375 40.34375 L -70.90625 38.65625 L -86.3125 42.84375 L -85.84375 44.53125 L -86.4375 42.875 L -99.5 47.53125 L -98.90625 49.1875 L -99.65625 47.59375 L -110.375 52.71875 L -109.625 54.3125 L -110.65625 52.90625 L -119.0625 58.96875 L -118.03125 60.375 L -119.3125 59.1875 L -124.90625 65.25 L -123.625 66.4375 L -125.28125 65.875 L -129 77.0625 L -127.34375 77.625 L -129.09375 77.40625 L -131.65625 98.625 L -131.84375 98.6875 L -131.75 98.96875 L -138.8125 129.125 L -144.03125 142.75 L -144.0625 142.75 L -144.0625 142.8125 L -150.46875 159.53125 L -148.84375 160.15625 L -150.59375 160.0625 L -151.0625 168 L -149.3125 168.09375 L -150.96875 168.65625 L -148.625 175.65625 L -146.96875 175.09375 L -148.375 176.125 L -143.25 183.125 L -141.84375 182.09375 L -143 183.40625 L -135.53125 189.9375 L -134.375 188.625 L -135.25 190.15625 L -124.53125 196.21875 L -123.65625 194.6875 L -124.28125 196.3125 L -111.21875 201.4375 L -110.59375 199.8125 L -111.15625 201.46875 L -96.21875 206.59375 L -95.65625 204.9375 L -96.0625 206.65625 L -78.34375 210.84375 L -77.9375 209.125 L -78.21875 210.84375 L -58.625 214.125 L -58.34375 212.40625 L -58.5 214.15625 L -37.5 216.03125 L -37.34375 214.28125 L -37.40625 216.03125 L -14.9375 216.9375 L -14.9375 216.96875 L 7.90625 216.96875 L 7.90625 215.21875 L 8 216.96875 L 31.78125 215.5625 L 31.6875 213.8125 L 31.90625 215.5625 L 55.21875 212.75 L 55 211 L 55.3125 212.71875 L 78.15625 208.53125 L 77.84375 206.8125 L 78.28125 208.5 L 99.75 202.90625 L 99.3125 201.21875 L 99.84375 202.90625 L 120.84375 196.375 L 120.3125 194.6875 L 120.9375 196.3125 L 139.125 189.3125 L 138.5 187.6875 L 139.3125 189.25 L 156.09375 180.375 L 155.28125 178.8125 L 156.28125 180.25 L 169.8125 170.90625 L 168.8125 169.46875 L 170.03125 170.71875 L 181.21875 160 L 180 158.75 L 181.4375 159.75 L 188.90625 149.03125 L 187.46875 148.03125 L 189.09375 148.71875 L 193.75 137.53125 L 192.125 136.84375 L 193.875 137 Z M -117.40625 101.3125 L -112.875 104.6875 L -118.78125 114.40625 L -122.15625 110.75 Z M 50.8125 134.09375 Z M 45.4375 133.3125 L 40.40625 133.78125 L 40.5625 135.53125 L 40.34375 133.78125 L 33.4375 134.6875 L 8.90625 134.6875 L -0.78125 133.75 L -0.9375 135.5 L -0.875 133.75 L -12 133.28125 L -22.65625 131.875 L -34.1875 130.03125 L -45.8125 127.71875 L -57.875 124.46875 L -58.3125 126.15625 L -57.90625 124.46875 L -69 121.6875 L -69.53125 121.5 L -68.75 121.34375 L -56.25 119.03125 L -43.28125 118.09375 L -43.40625 116.34375 L -43.28125 118.09375 L -30.6875 117.15625 L -18.21875 116.6875 L -7.03125 116.6875 L 4.09375 117.15625 L 13.8125 117.625 L 22.625 118.5625 L 31 119.5 L 37.4375 120.40625 L 43.875 121.78125 L 48.90625 123.15625 L 53.0625 124.53125 L 53.625 122.875 L 53.1875 124.5625 L 56.59375 125.40625 L 58.0625 126.5 L 59.28125 127.71875 L 59.9375 128.71875 L 59.71875 129.125 L 58.71875 129.78125 L 59.3125 130.65625 L 58.71875 129.78125 L 57.59375 130.53125 L 54.15625 131.40625 L 50.46875 132.34375 Z M 59.21875 125.25 Z M 49.25 119.625 L 48.5625 119.4375 L 62.125 110.78125 L 65.03125 111.875 Z M 43.96875 118.25 L 41.71875 117.75 L 53.21875 108.375 L 57.625 109.53125 Z M 37.25 116.875 L 34.8125 116.53125 L 44.5 106.21875 L 48.96875 107.34375 Z M 30.5625 115.9375 L 25.96875 115.4375 L 33.8125 104.28125 L 40.4375 105.4375 Z M 22 115 L 16.65625 114.4375 L 22.4375 102.875 L 29.875 103.78125 Z M 12.90625 114.09375 L 6.5625 113.78125 L 10.65625 101.46875 L 18.78125 102.40625 Z M 2.9375 113.625 L -4.90625 113.3125 L -2.59375 100.90625 L 7.0625 101.25 Z M -8.46875 113.21875 L -16.375 113.21875 L -15.71875 100.84375 L -6.15625 100.84375 Z M -19.875 113.28125 L -29.125 113.625 L -29.5625 101.28125 L -19.25 100.9375 Z M -32.625 113.8125 L -41.875 114.5 L -43.375 102.53125 L -33.0625 101.5 Z M -45.375 114.75 L -55.03125 115.4375 L -57.125 103.90625 L -46.84375 102.875 Z M -58.5 115.90625 L -67.71875 117.625 L -70.28125 106.125 L -60.59375 104.40625 Z M -71.15625 118.25 L -76.03125 119.15625 L -80.59375 117.5 L -81.625 117.09375 L -83.53125 108.78125 L -73.75 106.75 Z M -85.5625 115.59375 L -91.1875 113.375 L -93.8125 112 L -86.90625 109.6875 Z M -91.3125 117.09375 L -84 119.96875 L -92.46875 131.03125 L -99.34375 127.90625 Z M -80.59375 121.25 L -72.375 124.21875 L -80.875 135.4375 L -89.09375 132.34375 Z M -68.84375 125.34375 L -61.25 127.25 L -69.5625 138.96875 L -77.34375 136.5625 Z M -57.625 128.1875 L -49 130.5 L -57.0625 142.8125 L -66.03125 140.0625 Z M -45.40625 131.375 L -37.25 133 L -44.125 145.25 L -53.40625 143.59375 Z M -33.625 133.6875 L -25.4375 135 L -31.0625 147.53125 L -40.46875 145.90625 Z M -21.8125 135.53125 L -14.4375 136.5 L -18.40625 148.96875 L -27.40625 148 Z M -10.875 136.84375 L -3 137.15625 L -5.25 149.96875 L -14.8125 149.28125 Z M 0.5 137.375 L 7.09375 138 L 6.9375 150.0625 L -1.75 150.0625 Z M 10.5625 138.1875 L 16.6875 138.1875 L 18.75 150.09375 L 10.4375 150.09375 Z M 20.25 138.1875 L 24.90625 138.1875 L 29.375 149.71875 L 22.3125 150 Z M 28.65625 138.1875 L 32.59375 138.1875 L 39.34375 148.90625 L 33.03125 149.46875 Z M 36.5 137.8125 L 39.875 137.375 L 48.84375 147.40625 L 43.1875 148.4375 Z M 44.1875 136.9375 L 45.15625 136.84375 L 56.34375 145.8125 L 52.84375 146.625 Z M 49.78125 136.0625 L 50.46875 135.9375 L 63.78125 144.09375 L 60.65625 144.78125 Z M 59.375 137.25 L 70.0625 142.09375 L 68.53125 142.84375 Z M 89.0625 125.6875 L 89 125.53125 L 111.53125 123.28125 L 112.0625 125.21875 Z M 78.40625 119.96875 L 80.03125 119.53125 L 80.15625 119.65625 Z M 70.78125 118.40625 L 75.84375 116.53125 L 76.375 116.90625 Z M 56.5625 119.9375 L 69.46875 113.59375 L 71.40625 114.4375 Z M 69.34375 109.78125 L 65.8125 108.46875 L 80.34375 99.21875 L 85.96875 101.625 Z M 61.625 107 L 56.5625 105.65625 L 69.15625 95.40625 L 76.15625 97.75 Z M 52.34375 104.5625 L 47.21875 103.28125 L 57.59375 92.25 L 65.03125 94.25 Z M 43.28125 102.375 L 36 101.125 L 44.21875 89.4375 L 53.625 91.375 Z M 32.1875 100.5 L 24.125 99.53125 L 30.375 87.0625 L 40.46875 88.75 Z M 20.40625 99.09375 L 11.75 98.09375 L 15.875 85.59375 L 26.625 86.59375 Z M 8.1875 97.78125 L -1.9375 97.40625 L 0.375 85.03125 L 12.3125 85.40625 Z M -5.5 97.375 L -15.53125 97.375 L -14.875 84.59375 L -3.1875 84.9375 Z M -19.0625 97.40625 L -29.6875 97.75 L -30.125 85.34375 L -18.40625 84.625 Z M -33.1875 98 L -43.8125 99.0625 L -45.40625 86.28125 L -33.625 85.5625 Z M -47.28125 99.40625 L -57.75 100.46875 L -59.9375 88.4375 L -48.84375 86.71875 Z M -61.21875 100.9375 L -71.0625 102.6875 L -73.71875 90.75 L -63.375 88.96875 Z M -74.5 103.375 L -84.3125 105.40625 L -86.9375 93.84375 L -77.15625 91.46875 Z M -87.6875 106.28125 L -96.1875 109.125 L -98.59375 97.875 L -90.3125 94.875 Z M -99.8125 108.875 L -100.84375 108.34375 L -109 103.1875 L -109.125 102.5 L -101.90625 99.21875 Z M -110 106.65625 L -104.1875 110.34375 L -111.4375 120.8125 L -116.21875 116.9375 Z M -118.03125 119.9375 L -113.4375 123.6875 L -120.09375 133.3125 L -123.84375 129.5625 Z M -101.15625 112.09375 L -94.53125 115.5625 L -102.5 126.28125 L -108.5625 122.78125 Z M -101.46875 130.75 L -94.625 133.84375 L -103.0625 144.875 L -109.21875 141.1875 Z M -91.3125 135.28125 L -83.09375 138.375 L -91.78125 149.8125 L -99.875 146.4375 Z M -79.59375 139.53125 L -71.6875 141.96875 L -80.125 153.875 L -88.3125 151.03125 Z M -68.15625 143.0625 L -59.03125 145.875 L -66.8125 157.78125 L -76.59375 155 Z M -55.46875 146.78125 L -45.90625 148.5 L -52.6875 160.59375 L -63.15625 158.5625 Z M -42.28125 149.125 L -32.53125 150.8125 L -38 162.9375 L -49.0625 161.21875 Z M -28.9375 151.34375 L -19.5 152.34375 L -23.4375 164.8125 L -34.375 163.4375 Z M -15.9375 152.71875 L -5.875 153.4375 L -8.0625 165.84375 L -19.875 165.125 Z M -2.34375 153.5625 L 6.875 153.5625 L 6.71875 166.34375 L -4.5625 166 Z M 10.375 153.5625 L 19.375 153.5625 L 21.46875 165.5625 L 10.21875 166.28125 Z M 22.9375 153.46875 L 30.71875 153.15625 L 35.1875 164.6875 L 25 165.34375 Z M 34.34375 152.875 L 41.4375 152.21875 L 48.21875 163 L 38.78125 164.34375 Z M 45.1875 151.625 L 51.59375 150.46875 L 60.9375 160.90625 L 52 162.4375 Z M 55.5 149.59375 L 59.8125 148.59375 L 71.65625 158.0625 L 64.90625 160.125 Z M 64.1875 147.59375 L 68.09375 146.71875 L 81.625 155 L 75.6875 156.8125 Z M 72.0625 145.03125 L 74.15625 143.96875 L 90.5 151.375 L 85.96875 153.53125 Z M 68.125 137.40625 L 75.09375 139.75 L 74.15625 140.125 Z M 89.4375 129.1875 L 112.53125 128.6875 L 112.53125 130.59375 L 89.4375 129.28125 Z M 115.6875 125.125 L 115.09375 122.90625 L 137.96875 120.625 L 138.46875 124.65625 Z M 87.34375 122.1875 L 87.15625 121.9375 L 108.8125 118 L 109.9375 119.90625 Z M 84.625 118.84375 L 84.125 118.4375 L 104.21875 113.03125 L 106.15625 114.96875 Z M 80.78125 115.71875 L 79.84375 115.0625 L 98.25 108.21875 L 100.875 110.28125 Z M 76.1875 112.65625 L 73.625 111.5625 L 90.09375 103.46875 L 94.4375 105.875 Z M 90.125 99.59375 L 83.9375 96.9375 L 98.5625 87.625 L 106.46875 91.59375 Z M 79.9375 95.3125 L 72.34375 92.78125 L 84.71875 82.71875 L 94.4375 86.0625 Z M 68.375 91.53125 L 60.3125 89.375 L 70.6875 78.34375 L 80.75 81.5 Z M 56.4375 88.375 L 46.4375 86.3125 L 54.46875 74.875 L 66.75 77.40625 Z M 42.6875 85.5625 L 32 83.78125 L 38.03125 71.71875 L 50.71875 74.125 Z M 28.34375 83.25 L 17.03125 82.1875 L 21.15625 69.78125 L 34.375 71.21875 Z M 13.4375 81.9375 L 1 81.5625 L 3.40625 68.75 L 17.5625 69.5 Z M -2.53125 81.4375 L -14.6875 81.0625 L -14.03125 68.25 L -0.125 68.625 Z M -18.1875 81.15625 L -30.21875 81.875 L -30.65625 69.03125 L -17.5 68.3125 Z M -33.71875 82.09375 L -45.8125 82.8125 L -47.375 70.375 L -34.1875 69.28125 Z M -49.28125 83.21875 L -60.5625 84.96875 L -62.8125 72.5625 L -50.84375 70.75 Z M -64.03125 85.53125 L -74.5 87.34375 L -77.125 75.65625 L -66.28125 73.21875 Z M -77.90625 88.0625 L -87.71875 90.4375 L -90.15625 79.71875 L -80.46875 76.59375 Z M -91.09375 91.40625 L -99.34375 94.375 L -101.59375 83.875 L -93.53125 80.84375 Z M -102.625 95.6875 L -109.71875 98.90625 L -111.5 88.46875 L -104.84375 85.3125 Z M -113.03125 100.21875 L -116.78125 97.40625 L -119.15625 94.0625 L -114.65625 90.625 Z M -122.25 95.78125 L -120.09375 98.8125 L -124.53125 107.6875 L -125.875 105.21875 Z M -123.84375 114.125 L -120.6875 117.53125 L -126.25 126.6875 L -128.59375 123.625 Z M -130.3125 127.125 L -128.15625 129.90625 L -133.625 138.90625 L -134.78125 136.03125 Z M -125.71875 132.625 L -122.125 136.21875 L -128.96875 146.09375 L -131.84375 142.6875 Z M -110.5625 125.65625 L -104.625 129.09375 L -112.1875 139.25 L -117.4375 135.53125 Z M -111.3125 144 L -105.1875 147.65625 L -113.34375 158.3125 L -119.1875 154.625 Z M -102.0625 149.3125 L -93.96875 152.6875 L -102.625 164.09375 L -110.3125 160.09375 Z M -90.5625 154 L -82.25 156.875 L -90.40625 168.375 L -99.21875 165.4375 Z M -78.75 158 L -68.84375 160.84375 L -76.59375 172.6875 L -86.90625 169.5 Z M -65.25 161.71875 L -54.5 163.8125 L -61.5625 176.40625 L -73.03125 173.625 Z M -50.875 164.46875 L -39.46875 166.25 L -45.15625 178.875 L -57.90625 177.0625 Z M -35.875 166.78125 L -24.53125 168.1875 L -28.5 180.6875 L -41.5 179.28125 Z M -20.96875 168.5625 L -8.65625 169.3125 L -10.84375 181.71875 L -24.90625 180.96875 Z M -5.15625 169.46875 L 6.6875 169.84375 L 6.5625 181.78125 L -7.28125 181.78125 Z M 10.1875 169.78125 L 22.09375 169.03125 L 24.25 181.375 L 10.0625 181.75 Z M 25.59375 168.8125 L 36.5 168.09375 L 41 179.6875 L 27.75 181.125 Z M 40.09375 167.71875 L 50.25 166.28125 L 57.0625 177.09375 L 44.53125 179.25 Z M 54 165.65625 L 63.65625 164 L 72.65625 174.0625 L 60.78125 176.4375 Z M 67.46875 162.96875 L 74.96875 160.6875 L 86.84375 170.1875 L 76.59375 173.15625 Z M 79.03125 159.4375 L 85.625 157.4375 L 99.4375 165.875 L 90.875 168.9375 Z M 89.53125 155.71875 L 94.6875 153.28125 L 110.90625 160.625 L 103.59375 164.28125 Z M 78.5 142.09375 L 80.09375 141.4375 L 98 147.46875 L 94.59375 149.375 Z M 83.65625 138.9375 L 84.03125 138.65625 L 103.875 143.1875 L 101.8125 145.0625 Z M 87.1875 135.78125 L 108.15625 138.71875 L 106.90625 140.28125 Z M 91.84375 132.90625 L 111.3125 134.03125 L 110.5 135.53125 Z M 116.03125 128.625 L 138.53125 128.15625 L 138.28125 132.0625 L 116.03125 130.78125 Z M 141.96875 124.5625 L 141.4375 120.28125 L 163.6875 118.0625 L 164.90625 124.09375 Z M 113.75 119.53125 L 112.46875 117.34375 L 133.875 113.46875 L 136.40625 117.28125 Z M 110.34375 114.1875 L 108.125 111.96875 L 128.375 106.5 L 131.4375 110.34375 Z M 105.125 109.15625 L 102.125 106.78125 L 120.71875 99.875 L 125.3125 103.6875 Z M 98.75 104.3125 L 93.90625 101.625 L 110.3125 93.5625 L 117.03125 97.53125 Z M 110.40625 89.625 L 102 85.40625 L 116.40625 76.21875 L 127.125 81.40625 Z M 98.21875 83.65625 L 87.9375 80.09375 L 100.5625 69.8125 L 112.46875 74.5625 Z M 84 78.8125 L 73.34375 75.5 L 83.375 64.8125 L 96.53125 68.625 Z M 69.5625 74.375 L 56.65625 71.71875 L 64.90625 60 L 79.53125 63.75 Z M 52.90625 70.96875 L 39.625 68.46875 L 45.71875 56.28125 L 61.15625 59.21875 Z M 36.03125 67.875 L 22.28125 66.375 L 26.40625 53.90625 L 42.09375 55.78125 Z M 18.6875 66.0625 L 4.0625 65.28125 L 6.4375 52.5 L 22.6875 53.96875 Z M 0.53125 65.125 L -13.84375 64.75 L -13.1875 52.34375 L 2.90625 52.34375 Z M -17.34375 64.78125 L -30.8125 65.53125 L -31.25 53.1875 L -16.6875 52.4375 Z M -34.3125 65.78125 L -47.8125 66.90625 L -49.34375 54.53125 L -34.75 53.40625 Z M -51.28125 67.28125 L -63.46875 69.125 L -65.71875 56.71875 L -52.8125 54.875 Z M -66.875 69.78125 L -77.84375 72.25 L -80.53125 60.28125 L -69.125 57.4375 Z M -81.25 73.15625 L -90.9375 76.28125 L -93.5625 64.78125 L -83.875 61.3125 Z M -94.28125 77.40625 L -102.3125 80.40625 L -104.6875 69.28125 L -96.875 66.03125 Z M -105.59375 81.8125 L -112.125 84.90625 L -113.84375 74.78125 L -107.90625 71.03125 Z M -115.34375 86.75 L -119.90625 90.25 L -120.6875 80.9375 L -116.9375 77.4375 Z M -123.625 87.71875 L -124.875 85.90625 L -123.875 84.6875 Z M -126.09375 90.28125 L -124.65625 92.34375 L -127.65625 100.15625 L -128.09375 98.84375 Z M -127.5 109.5 L -126.4375 111.5 L -130.25 119.15625 L -130.6875 117.78125 Z M -132.53125 123.6875 L -134.34375 127.34375 L -132.71875 123.0625 Z M -135.90625 142.65625 L -140.71875 150.59375 L -140.96875 148.40625 L -136.875 140.21875 Z M -133.75 145.84375 L -131.03125 149.0625 L -138.03125 159.15625 L -139.875 155.9375 Z M -119.40625 138.46875 L -114.25 142.125 L -122.03125 152.59375 L -126.5 148.71875 Z M -121.3125 157.46875 L -115.5 161.15625 L -124.0625 172.34375 L -129.625 168.65625 Z M -112.4375 162.90625 L -104.71875 166.9375 L -113.4375 178.4375 L -121.03125 174.15625 Z M -101.46875 168.375 L -92.53125 171.34375 L -101.21875 183.625 L -110.25 179.9375 Z M -89.03125 172.5 L -78.59375 175.75 L -86.625 188.0625 L -97.75 184.84375 Z M -75.0625 176.71875 L -63.34375 179.5625 L -70.21875 191.84375 L -83.03125 188.90625 Z M -59.75 180.3125 L -46.65625 182.1875 L -52.28125 194.6875 L -66.59375 192.5 Z M -43 182.65625 L -29.5625 184.09375 L -33.65625 197 L -48.625 195.1875 Z M -26 184.40625 L -11.4375 185.1875 L -13.625 197.625 L -30.0625 197.25 Z M -7.90625 185.28125 L 6.53125 185.28125 L 6.375 197.65625 L -10.0625 197.65625 Z M 10 185.25 L 24.84375 184.875 L 26.9375 196.8125 L 9.875 197.59375 Z M 28.375 184.59375 L 42.3125 183.09375 L 46.78125 194.65625 L 30.4375 196.5625 Z M 45.84375 182.5625 L 59.09375 180.28125 L 66.1875 191.5625 L 50.34375 194.15625 Z M 62.78125 179.59375 L 75.375 177.0625 L 84.4375 187.21875 L 69.875 190.84375 Z M 79.15625 176.0625 L 90.1875 172.875 L 101.59375 182 L 88.21875 186.21875 Z M 94.09375 171.5 L 103.28125 168.21875 L 117.03125 176.625 L 105.5625 180.65625 Z M 107.09375 166.46875 L 115 162.5 L 131.0625 169.78125 L 121.15625 175.0625 Z M 98.53125 151.1875 L 102.46875 148.96875 L 120.5 155.0625 L 114.84375 158.5625 Z M 105.59375 146.34375 L 108 144.125 L 128.1875 148.75 L 124.09375 152.59375 Z M 110.6875 141.15625 L 112.1875 139.28125 L 133.9375 142.34375 L 131.1875 145.84375 Z M 114.1875 136.03125 L 115.15625 134.21875 L 137.34375 135.5 L 136 139.09375 Z M 142.03125 128.0625 L 165.15625 127.5625 L 164.84375 133.5625 L 141.78125 132.25 Z M 168.4375 124 L 167.1875 117.6875 L 189.375 115.46875 L 191 123.53125 Z M 140.34375 116.875 L 137.625 112.78125 L 159.40625 108.84375 L 162.3125 114.6875 Z M 135.375 109.625 L 132.0625 105.5 L 152.625 99.96875 L 157.125 105.6875 Z M 129.40625 102.59375 L 124.46875 98.5 L 143.4375 91.46875 L 149.6875 97.125 Z M 121.25 95.9375 L 114.0625 91.6875 L 130.96875 83.375 L 139.90625 89 Z M 131.09375 79.46875 L 119.84375 74.03125 L 134.40625 64.75 L 147.25 71.53125 Z M 116.0625 72.28125 L 103.625 67.3125 L 115.96875 57.25 L 130.5 63.0625 Z M 99.8125 65.90625 L 86.0625 61.9375 L 96.15625 51.1875 L 112.03125 55.96875 Z M 82.28125 60.84375 L 67.0625 56.9375 L 75.34375 45.15625 L 92.40625 50.09375 Z M 63.375 56.09375 L 47.34375 53.03125 L 53.1875 41.3125 L 71.5625 44.375 Z M 43.75 52.4375 L 27.53125 50.5 L 31.5 38.5 L 49.5625 40.8125 Z M 23.8125 50.59375 L 7.09375 49.0625 L 9.34375 37.03125 L 27.9375 38.1875 Z M 3.5625 48.84375 L -13 48.84375 L -12.34375 36.53125 L 5.8125 36.90625 Z M -16.5 48.90625 L -31.34375 49.65625 L -31.78125 37.3125 L -15.84375 36.5625 Z M -34.875 49.90625 L -49.78125 51.0625 L -51.25 39.125 L -35.3125 37.59375 Z M -53.25 51.4375 L -66.34375 53.3125 L -68.4375 41.78125 L -54.71875 39.5625 Z M -69.75 53.96875 L -81.3125 56.84375 L -83.78125 45.75 L -71.84375 42.5 Z M -84.65625 57.875 L -94.34375 61.34375 L -96.84375 50.3125 L -87.09375 46.84375 Z M -97.65625 62.59375 L -105.40625 65.8125 L -107.65625 55.28125 L -100.15625 51.6875 Z M -108.65625 67.375 L -114.46875 71.03125 L -116.15625 61.15625 L -110.8125 57.3125 Z M -117.625 73.3125 L -121.0625 76.5 L -121.84375 67.09375 L -119.1875 64.21875 Z M -124.28125 79.71875 L -125.40625 81.09375 L -125.59375 77.90625 L -124.65625 75.09375 Z M -143.8125 154.125 L -143.65625 155.5 L -147.125 161.25 L -147.09375 160.71875 Z M -141.9375 159.375 L -140.21875 162.34375 L -146.40625 171.25 L -147.375 168.34375 Z M -128.5 151.5625 L -124.125 155.375 L -132.25 166.3125 L -135.96875 162.3125 Z M -131.6875 171.4375 L -126.1875 175.125 L -134.625 186.15625 L -139.46875 181.90625 Z M -123.1875 176.9375 L -115.59375 181.21875 L -124.09375 192.4375 L -131.75 188.125 Z M -112.4375 182.84375 L -103.3125 186.5625 L -111.25 197.75 L -120.875 193.96875 Z M -99.90625 187.8125 L -88.65625 191.09375 L -96.375 202.90625 L -107.8125 198.96875 Z M -85.09375 192.0625 L -72 195.0625 L -78.8125 207.21875 L -92.8125 203.90625 Z M -68.375 195.75 L -53.71875 198 L -59.34375 210.5 L -75.15625 207.875 Z M -50.15625 198.5 L -34.75 200.375 L -38.59375 212.46875 L -55.75 210.9375 Z M -31.1875 200.71875 L -14.25 201.125 L -16.40625 213.4375 L -34.96875 212.6875 Z M -10.6875 201.15625 L 6.34375 201.15625 L 6.1875 213.53125 L -12.875 213.53125 Z M 9.8125 201.09375 L 27.53125 200.28125 L 29.625 212.21875 L 9.6875 213.40625 Z M 31.0625 199.96875 L 48.09375 198 L 52.59375 209.59375 L 33.15625 211.9375 Z M 51.625 197.46875 L 68.1875 194.78125 L 75 205.625 L 56.09375 209.09375 Z M 71.84375 193.96875 L 87.09375 190.15625 L 96.15625 200.28125 L 78.71875 204.84375 Z M 90.78125 189.0625 L 104.875 184.625 L 116.65625 194.0625 L 99.875 199.28125 Z M 108.78125 183.28125 L 120.875 179.03125 L 134.59375 187.40625 L 120.65625 192.78125 Z M 124.65625 177.1875 L 135.09375 171.625 L 151.34375 179 L 138.59375 185.71875 Z M 118.65625 160.3125 L 124.78125 156.5 L 142.625 162.53125 L 134.90625 167.6875 Z M 127.875 153.875 L 132.3125 149.71875 L 152.15625 154.25 L 146.0625 160.03125 Z M 134.9375 146.71875 L 137.9375 142.90625 L 159.28125 145.90625 L 155.0625 151.3125 Z M 139.5625 139.59375 L 141.03125 135.71875 L 163.78125 137.03125 L 161.375 142.65625 Z M 168.65625 127.5 L 191.21875 127.03125 L 190.59375 135.0625 L 168.375 133.78125 Z M 188.0625 112.09375 L 166.03125 114.3125 L 162.96875 108.1875 L 184.1875 104.34375 Z M 182.03125 101.15625 L 161.0625 104.96875 L 156.3125 98.96875 L 176.125 93.625 Z M 173.25 90.78125 L 153.71875 96.0625 L 147.125 90.09375 L 165.1875 83.40625 Z M 161.78125 80.9375 L 144.0625 87.5 L 134.6875 81.59375 L 150.96875 73.59375 Z M -144.8125 175.125 L -137.96875 165.25 L -134.34375 169.15625 L -141.8125 179.21875 Z M 155.15625 176.875 L 138.65625 169.40625 L 146.8125 163.96875 L 165 170.09375 Z M 168.40625 167.5625 L 149.84375 161.28125 L 156.28125 155.1875 L 176.5 159.8125 Z M 179.28125 156.84375 L 158.8125 152.15625 L 163.25 146.4375 L 184.4375 149.40625 Z M 186.40625 146.1875 L 164.9375 143.1875 L 167.46875 137.25 L 189.59375 138.5 Z M 186.40625 146.1875 "/>
</g>
</g>
</g>
</svg>
