<?xml version="1.0" encoding="utf-8"?>
<svg version="1.1" id="Layer_1" xmlns="http://www.w3.org/2000/svg" xmlns:xlink="http://www.w3.org/1999/xlink" x="0px" y="0px"
	 width="800px" height="800px" viewBox="0 0 800 800" style="enable-background:new 0 0 800 800;" xml:space="preserve">
<style type="text/css">
	.st0{fill:none;}
	.st1{clip-path:url(#SVGID_00000100359319992447600590000010699906615128311198_);fill:#FFFFFF;}
</style>
<rect class="st0" width="800" height="800"/>
<g id="b">
	<circle cx="400" cy="400" r="388"/>
	<g>
		<path d="M400,788.1L400,788.1C185,788.1,11.9,615,11.9,400l0,0C11.9,185,185,11.9,400,11.9l0,0C615,11.9,788.1,185,788.1,400l0,0
			C788.1,615,615,788.1,400,788.1z"/>
	</g>
</g>
<g>
	<defs>
		<path id="SVGID_1_" d="M400,788.1L400,788.1C185,788.1,11.9,615,11.9,400l0,0C11.9,185,185,11.9,400,11.9l0,0
			C615,11.9,788.1,185,788.1,400l0,0C788.1,615,615,788.1,400,788.1z"/>
	</defs>
	<clipPath id="SVGID_00000018239333029612270090000015175352270418973071_">
		<use xlink:href="#SVGID_1_"  style="overflow:visible;"/>
	</clipPath>
	<path style="clip-path:url(#SVGID_00000018239333029612270090000015175352270418973071_);fill:#FFFFFF;" d="M623.5,401.2l-5.6-0.5
		v0l5.5-1.1l-7.5-37.3l-5.5,1.1l5-2.5l-17.9-35.8l-5,2.5l4.4-3.4l-26.9-34.3l-4.4,3.4l3.8-4.1l-35.8-32.8l-3.8,4.1l3.1-4.6
		l-46.3-31.4l-3.1,4.6l2.6-4.9l-53.7-28.4l-2.6,4.9l2.1-5.2l-59.7-23.9l-2.1,5.2l1.6-5.4l-64.2-19.4l-1.6,5.4l1.6-5.4l-67.2-19.4
		l-1.6,5.4l0.9-5.5L168,120.5l-0.9,5.5l0.7-5.6l-70.2-9l-0.7,5.6l0.3-5.6L25.7,107l-0.3,5.6l0.1-5.6l-70.2-1.5l-0.1,5.6l-0.3-5.6
		l-62.7,3l0.3,5.6l-0.5-5.6l-62.7,6l0.5,5.6l-0.9-5.5l-55.2,9l0.9,5.5l-1.5-5.4l-49.3,13.4l1.5,5.4l-1.9-5.3l-41.8,14.9l1.9,5.3
		l-2.4-5.1l-34.3,16.4l2.4,5.1l-3.3-4.5l-26.9,19.4l3.3,4.5l-4.1-3.8l-17.9,19.4l4.1,3.8l-5.3-1.8l-11.9,35.8l5.3,1.8l-5.6-0.7
		l-8.2,67.9l-0.6,0.2l0.3,0.9l-22.6,96.5l-16.7,43.6l-0.1,0l0,0.2l-20.5,53.5l5.2,2l-5.6-0.3l-1.5,25.4l5.6,0.3l-5.3,1.8l7.5,22.4
		l5.3-1.8l-4.5,3.3l16.4,22.4l4.5-3.3l-3.7,4.2l23.9,20.9l3.7-4.2l-2.8,4.9l34.3,19.4l2.8-4.9l-2,5.2l41.8,16.4l2-5.2l-1.8,5.3
		l47.8,16.4l1.8-5.3l-1.3,5.5l56.7,13.4l1.3-5.5l-0.9,5.5l62.7,10.5l0.9-5.5l-0.5,5.6l67.2,6l0.5-5.6l-0.2,5.6l71.9,2.9v0.1h73.1
		v-5.6l0.3,5.6l76.1-4.5l-0.3-5.6l0.7,5.6l74.6-9l-0.7-5.6l1,5.5l73.1-13.4l-1-5.5l1.4,5.4l68.7-17.9l-1.4-5.4l1.7,5.4l67.2-20.9
		l-1.7-5.4l2,5.2l58.2-22.4l-2-5.2l2.6,5l53.7-28.4l-2.6-5l3.2,4.6l43.3-29.9l-3.2-4.6l3.9,4l35.8-34.3l-3.9-4l4.6,3.2l23.9-34.3
		l-4.6-3.2l5.2,2.2l14.9-35.8l-5.2-2.2l5.6,0.5L623.5,401.2z M-375.7,324.2l14.5,10.8l-18.9,31.1l-10.8-11.7L-375.7,324.2z
		 M162.6,429.1L162.6,429.1L162.6,429.1L162.6,429.1z M145.4,426.6l-16.1,1.5l0.5,5.6l-0.7-5.6L107,431H83.5H58.1H28.5l-31-3
		l-0.5,5.6l0.2-5.6l-35.6-1.5l-34.1-4.5l0,0l-36.9-5.9l0,0l-37.2-7.4l-38.6-10.4l-1.4,5.4l1.3-5.4l-35.5-8.9l-1.7-0.6l2.5-0.5v0
		l40-7.4l41.5-3l-0.4-5.6l0.4,5.6l40.3-3v0l39.9-1.5h35.8l35.6,1.5v0l31.1,1.5l28.2,3v0l26.8,3l20.6,2.9l20.6,4.4l16.1,4.4l13.3,4.4
		l1.8-5.3l-1.4,5.4l10.9,2.7l4.7,3.5l3.9,3.9l2.1,3.2l-0.7,1.3l-3.2,2.1l1.9,2.8l0,0l-1.9-2.8l-3.6,2.4l-11,2.8l-11.8,3L145.4,426.6
		z M189.5,400.8L189.5,400.8L189.5,400.8L189.5,400.8z M157.6,382.8l-2.2-0.6l43.4-27.7l9.3,3.5L157.6,382.8z M140.7,378.4l-7.2-1.6
		l36.8-30l14.1,3.7L140.7,378.4z M119.2,374l-7.8-1.1l31-33l14.3,3.6L119.2,374z M97.8,371l-14.7-1.6l25.1-35.7l21.2,3.7L97.8,371z
		 M70.4,368l-17.1-1.8l18.5-37l23.8,2.9L70.4,368z M41.3,365.1l-20.3-1l13.1-39.4l26,3L41.3,365.1z M9.4,363.6l-25.1-1l7.4-39.7
		l30.9,1.1L9.4,363.6z M-27.1,362.3h-25.3l2.1-39.6h30.6L-27.1,362.3z M-63.6,362.5l-29.6,1.1l-1.4-39.5l33-1.1L-63.6,362.5z
		 M-104.4,364.2l-29.6,2.2l-4.8-38.3l33-3.3L-104.4,364.2z M-145.2,367.2l-30.9,2.2l-6.7-36.9l32.9-3.3L-145.2,367.2z M-187.2,370.9
		l-29.5,5.5l-8.2-36.8l31-5.5L-187.2,370.9z M-227.7,378.4l-15.6,2.9l-14.6-5.3v0l-3.3-1.3l-6.1-26.6l31.3-6.5L-227.7,378.4z
		 M-273.8,369.9l-18-7.1l-8.4-4.4l22.1-7.4L-273.8,369.9z M-292.2,374.7l23.4,9.2l-27.1,35.4l-22-10L-292.2,374.7z M-257.9,388
		l26.3,9.5l-27.2,35.9l-26.3-9.9L-257.9,388z M-220.3,401.1l24.3,6.1l-26.6,37.5l-24.9-7.7L-220.3,401.1z M-184.4,410.2l27.6,7.4
		l-25.8,39.4l-28.7-8.8L-184.4,410.2z M-145.3,420.4l26.1,5.2l-22,39.2l-29.7-5.3L-145.3,420.4z M-107.6,427.8l26.2,4.2l-18,40.1
		l-30.1-5.2L-107.6,427.8z M-69.8,433.7l23.6,3.1l-12.7,39.9l-28.8-3.1L-69.8,433.7z M-34.8,437.9l25.2,1l-7.2,41l-30.6-2.2
		L-34.8,437.9z M1.6,439.6l21.1,2l-0.5,38.6H-5.6L1.6,439.6z M33.8,442.2h19.6l6.6,38.1H33.4L33.8,442.2z M64.8,442.2h14.9L94,479.1
		L71.4,480L64.8,442.2z M91.7,442.2h12.6l21.6,34.3l-20.2,1.8L91.7,442.2z M116.8,441l10.8-1.4l28.7,32.1l-18.1,3.3L116.8,441z
		 M141.4,438.2l3.1-0.3l35.8,28.7l-11.2,2.6L141.4,438.2z M159.3,435.4l2.2-0.4l42.6,26.1l-10,2.2L159.3,435.4z M190,439.2
		l34.2,15.5l-4.9,2.4L190,439.2z M285,402.2l-0.2-0.5l72.1-7.2l1.7,6.2L285,402.2z M250.9,383.9l5.2-1.4l0.4,0.4L250.9,383.9z
		 M226.5,378.9l16.2-6l1.7,1.2L226.5,378.9z M181,383.8l41.3-20.3l6.2,2.7L181,383.8z M221.9,351.3l-11.3-4.2l46.5-29.6l18,7.7
		L221.9,351.3z M197.2,342.4l-16.2-4.3l40.3-32.8l22.4,7.5L197.2,342.4z M167.5,334.6l-16.4-4.1l33.2-35.3l23.8,6.4L167.5,334.6z
		 M138.5,327.6l-23.3-4l26.3-37.4l30.1,6.2L138.5,327.6z M103,321.6l-25.8-3.1l20-39.9l32.3,5.4L103,321.6z M65.3,317.1l-27.7-3.2
		l13.2-40l34.4,3.2L65.3,317.1z M26.2,312.9l-32.4-1.2l7.4-39.6l38.2,1.2L26.2,312.9z M-17.6,311.6h-32.1l2.1-40.9l37.4,1.1
		L-17.6,311.6z M-61,311.7l-34,1.1l-1.4-39.7l37.5-2.3L-61,311.7z M-106.2,313.6l-34,3.4l-5.1-40.9l37.7-2.3L-106.2,313.6z
		 M-151.3,318.1l-33.5,3.4l-7-38.5l35.5-5.5L-151.3,318.1z M-195.9,323l-31.5,5.6l-8.5-38.2l33.1-5.7L-195.9,323z M-238.4,330.8
		l-31.4,6.5l-8.4-37l31.3-7.6L-238.4,330.8z M-280.6,340.1l-27.2,9.1l-7.7-36l26.5-9.6L-280.6,340.1z M-319.4,348.4l-3.3-1.7
		l-26.1-16.5l-0.4-2.2l23.1-10.5L-319.4,348.4z M-352,341.3l18.6,11.8l-23.2,33.5l-15.3-12.4L-352,341.3z M-377.7,383.8l14.7,12
		l-21.3,30.8l-12-12L-377.7,383.8z M-323.7,358.7l21.2,11.1l-25.5,34.3l-19.4-11.2L-323.7,358.7z M-324.7,418.4l21.9,9.9l-27,35.3
		l-19.7-11.8L-324.7,418.4z M-292.2,432.9l26.3,9.9l-27.8,36.6l-25.9-10.8L-292.2,432.9z M-254.7,446.5l25.3,7.8l-27,38.1l-26.2-9.1
		L-254.7,446.5z M-218.1,457.8l29.2,9l-24.9,38.1l-31.3-8.9L-218.1,457.8z M-177.5,469.7l30.6,5.5l-21.7,38.7l-33.5-6.5
		L-177.5,469.7z M-135.3,477.2l31.2,5.4l-17.5,38.8l-35.4-5.5L-135.3,477.2z M-92.6,484.3l30.2,3.2L-75,527.4l-35-4.4L-92.6,484.3z
		 M-51,488.7l32.2,2.3l-7,39.7l-37.8-2.3L-51,488.7z M-7.5,491.4H22l-0.5,40.9l-36.1-1.1L-7.5,491.4z M33.2,491.4H62l6.7,38.4
		l-36,2.3L33.2,491.4z M73.4,491.1l24.9-1l14.3,36.9L80,529.1L73.4,491.1z M109.9,489.2l22.7-2.1l21.7,34.5l-30.2,4.3L109.9,489.2z
		 M144.6,485.2l20.5-3.7l29.9,33.4l-28.6,4.9L144.6,485.2z M177.6,478.7l13.8-3.2l37.9,30.3l-21.6,6.6L177.6,478.7z M205.4,472.3
		l12.5-2.8l43.3,26.5l-19,5.8L205.4,472.3z M230.6,464.1l6.7-3.4l52.3,23.7l-14.5,6.9L230.6,464.1z M218,439.7l22.3,7.5l-3,1.2
		L218,439.7z M286.2,413.4l73.9-1.6v6.1l-73.9-4.2V413.4z M370.2,400.4l-1.9-7.1l73.2-7.3l1.6,12.9L370.2,400.4z M279.5,391
		l-0.6-0.8l69.3-12.6l3.6,6.1L279.5,391z M270.8,380.3l-1.6-1.3l64.3-17.3l6.2,6.2L270.8,380.3z M258.5,370.3l-3-2.1l58.9-21.9
		l8.4,6.6L258.5,370.3z M243.8,360.5l-8.2-3.5l52.7-25.9l13.9,7.7L243.8,360.5z M288.4,318.7l-19.8-8.5l46.8-29.8l25.3,12.7
		L288.4,318.7z M255.8,305l-24.3-8.1l39.6-32.2l31.1,10.7L255.8,305z M218.8,292.9l-25.8-6.9l33.2-35.3l32.2,10.1L218.8,292.9z
		 M180.6,282.8l-32-6.6l25.7-36.6l39.3,8.1L180.6,282.8z M136.6,273.8l-34.2-5.7l19.3-38.6l40.6,7.7L136.6,273.8z M90.7,266.4
		L54.5,263l13.2-39.7l42.3,4.6L90.7,266.4z M43,262.2L3.2,261l7.7-41l45.3,2.4L43,262.2z M-8.1,260.6l-38.9-1.2l2.1-41l44.5,1.2
		L-8.1,260.6z M-58.2,259.7l-38.5,2.3l-1.4-41.1l42.1-2.3L-58.2,259.7z M-107.9,262.7l-38.7,2.3l-5-39.8l42.2-3.5L-107.9,262.7z
		 M-157.7,266.3l-36.1,5.6l-7.2-39.7l38.3-5.8L-157.7,266.3z M-204.9,273.7l-33.5,5.8l-8.4-37.4l34.7-7.8L-204.9,273.7z
		 M-249.3,281.8l-31.4,7.6l-7.8-34.3l31-10L-249.3,281.8z M-291.5,292.5l-26.4,9.5l-7.2-33.6l25.8-9.7L-291.5,292.5z M-328.4,306.2
		l-22.7,10.3l-5.7-33.4l21.3-10.1L-328.4,306.2z M-361.7,320.7l-12-9l-7.6-10.7l14.4-11L-361.7,320.7z M-391.2,306.5l6.9,9.7
		l-14.2,28.4l-4.3-7.9L-391.2,306.5z M-396.3,365.2l10.1,10.9l-17.8,29.3l-7.5-9.8L-396.3,365.2z M-417,406.8l6.9,8.9l-17.5,28.8
		l-3.7-9.2L-417,406.8z M-402.3,424.4l11.5,11.5l-21.9,31.6l-9.2-10.9L-402.3,424.4z M-353.8,402.1l19,11l-24.2,32.5l-16.8-11.9
		L-353.8,402.1z M-356.2,460.8l19.6,11.7l-26.1,34.1l-18.7-11.8L-356.2,460.8z M-326.6,477.8l25.9,10.8l-27.7,36.5l-24.6-12.8
		L-326.6,477.8z M-289.8,492.8l26.6,9.2l-26.1,36.8l-28.2-9.4L-289.8,492.8z M-252,505.6l31.7,9.1l-24.8,37.9l-33-10.2L-252,505.6z
		 M-208.8,517.5l34.4,6.7l-22.6,40.3l-36.7-8.9L-208.8,517.5z M-162.8,526.3l36.5,5.7l-18.2,40.4l-40.8-5.8L-162.8,526.3z
		 M-114.8,533.7l36.3,4.5l-12.7,40l-41.6-4.5L-114.8,533.7z M-67.1,539.4l39.4,2.4l-7,39.7l-45-2.4L-67.1,539.4z M-16.5,542.3
		l37.9,1.2L21,581.7h-44.3L-16.5,542.3z M32.6,543.3l38.1-2.4l6.9,39.5l-45.4,1.2L32.6,543.3z M81.9,540.2l34.9-2.3l14.4,37.1
		l-42.4,4.6L81.9,540.2z M128.3,536.7l32.5-4.6l21.8,34.6l-40.1,6.9L128.3,536.7z M172.8,530.1l30.9-5.3l28.8,32.2l-38,7.6
		L172.8,530.1z M215.9,521.5l24-7.3l38,30.4l-32.8,9.5L215.9,521.5z M252.9,510.2l21.1-6.4l44.2,27l-27.4,9.8L252.9,510.2z
		 M286.5,498.3l16.5-7.8l51.9,23.5l-23.4,11.7L286.5,498.3z M251.2,454.7l5.1-2.1l57.3,19.3l-10.9,6.1L251.2,454.7z M267.7,444.6
		l1.2-0.9l63.5,14.5l-6.6,6L267.7,444.6z M279,434.5l67.1,9.4l-4,5L279,434.5z M293.9,425.3l62.3,3.6l-2.6,4.8L293.9,425.3z
		 M371.3,411.6l72-1.5l-0.8,12.5l-71.2-4.1V411.6z M454.3,398.6l-1.7-13.7l71.2-7.1l3.9,19.3L454.3,398.6z M364,382.5l-4.1-7
		l68.5-12.4l8.1,12.2L364,382.5z M353.1,365.4l-7.1-7.1l64.8-17.5l9.8,12.3L353.1,365.4z M336.4,349.3l-9.6-7.6l59.5-22.1l14.7,12.2
		L336.4,349.3z M316,333.8l-15.5-8.6l52.5-25.8l21.5,12.7L316,333.8z M353.3,286.8l-26.9-13.5l46.1-29.4l34.3,16.6L353.3,286.8z
		 M314.3,267.7l-32.9-11.4l40.4-32.9l38.1,15.2L314.3,267.7z M268.8,252.2l-34.1-10.6l32.1-34.2l42.1,12.2L268.8,252.2z M222.6,238
		l-41.3-8.5l26.4-37.5l46.8,12L222.6,238z M169.3,227.1l-42.5-8l19.5-39l49.4,9.4L169.3,227.1z M115.3,217.2l-44-4.8l13.2-39.9
		l50.2,6L115.3,217.2z M59.8,211.4L13,208.9l7.6-40.9l52,4.7L59.8,211.4z M1.7,208.4l-46-1.2l2.1-39.7H9.3L1.7,208.4z M-55.5,207.3
		l-43.1,2.4l-1.4-39.5l46.6-2.4L-55.5,207.3z M-109.8,210.5l-43.2,3.6l-4.9-39.6l46.7-3.6L-109.8,210.5z M-164.1,215.3l-39,5.9
		l-7.2-39.7l41.3-5.9L-164.1,215.3z M-214,223.3l-35.1,7.9l-8.6-38.3l36.5-9.1L-214,223.3z M-260,234.1l-31,10l-8.4-36.8l31-11.1
		L-260,234.1z M-301.7,247.7l-25.7,9.6l-7.6-35.6l25-10.4L-301.7,247.7z M-337.9,261.8l-20.9,9.9l-5.5-32.4l19-12L-337.9,261.8z
		 M-369.1,277.6l-14.6,11.2l-2.5-29.8l12-11.2L-369.1,277.6z M-395.6,280.7l-4-5.8l3.2-3.9L-395.6,280.7z M-403.5,288.9l4.6,6.6
		l-9.6,25l-1.4-4.2L-403.5,288.9z M-408,350.4l3.4,6.4l-12.2,24.5l-1.4-4.4L-408,350.4z M-424.1,395.8l-5.8,11.7l5.2-13.7
		L-424.1,395.8z M-434.9,456.5l-15.4,25.4l-0.8-7l13.1-26.2L-434.9,456.5z M-428,466.7l8.7,10.3l-22.4,32.3l-5.9-10.3L-428,466.7z
		 M-382.1,443.1l16.5,11.7l-24.9,33.5l-14.3-12.4L-382.1,443.1z M-388.2,503.9l18.6,11.8l-27.4,35.8l-17.8-11.8L-388.2,503.9z
		 M-359.8,521.3l24.7,12.9l-27.9,36.8l-24.3-13.7L-359.8,521.3z M-324.7,538.8l28.6,9.5l-27.8,39.3l-28.9-11.8L-324.7,538.8z
		 M-284.9,552l33.4,10.4l-25.7,39.4l-35.6-10.3L-284.9,552z M-240.2,565.5l37.5,9.1l-22,39.3l-41-9.4L-240.2,565.5z M-191.2,577
		l41.9,6l-18,40l-45.8-7L-191.2,577z M-137.6,584.5l43,4.6l-13.1,41.3l-47.9-5.8L-137.6,584.5z M-83.2,590.1l46.6,2.5l-7,39.8
		l-52.6-1.2L-83.2,590.1z M-25.3,592.9h46.2l-0.5,39.6h-52.6L-25.3,592.9z M32,592.8l47.5-1.2l6.7,38.2l-54.6,2.5L32,592.8z
		 M90.8,590.7l44.6-4.8l14.3,37l-52.3,6.1L90.8,590.7z M146.7,584.2l42.4-7.3l22.7,36.1l-50.7,8.3L146.7,584.2z M200.9,574.7
		l40.3-8.1l29,32.5l-46.6,11.6L200.9,574.7z M253.3,563.4l35.3-10.2l36.5,29.2l-42.8,13.5L253.3,563.4z M301.1,548.8l29.4-10.5
		l44,26.9l-36.7,12.9L301.1,548.8z M342.7,532.7L368,520l51.4,23.3l-31.7,16.9L342.7,532.7z M315.3,483.8l12.6-7.1l57.7,19.5
		l-18.1,11.2L315.3,483.8z M337.9,468.3l7.7-7.1l64.6,14.8l-13.1,12.3L337.9,468.3z M354.2,451.7l4.8-6l69.6,9.8l-8.8,11.2
		L354.2,451.7z M365.4,435.3l3.1-5.8l71,4.1l-4.3,11.5L365.4,435.3z M454.5,409.8l74-1.6l-1,19.2l-73.8-4.2L454.5,409.8z M539,396.8
		l-4-20.2l71-7.1l5.2,25.8L539,396.8z M449.1,374l-8.7-13.1l69.7-12.6l9.3,18.7L449.1,374z M433.2,350.8l-10.6-13.2l65.8-17.7
		l14.4,18.3L433.2,350.8z M414.1,328.3l-15.8-13.1l60.7-22.5l20,18.1L414.1,328.3z M388,307l-23-13.6l54.1-26.6l28.6,18L388,307z
		 M419.5,254.3l-36-17.4l46.6-29.7l41.1,21.7L419.5,254.3z M371.4,231.3l-39.8-15.9l39.5-32.2l46.5,18.6L371.4,231.3z M319.4,210.9
		l-44-12.7l32.3-34.4l50.8,15.3L319.4,210.9z M263.3,194.7l-48.7-12.5l26.5-37.7l54.6,15.8L263.3,194.7z M202.8,179.5l-51.3-9.8
		l18.7-37.5l58.8,9.8L202.8,179.5z M140,167.8l-51.9-6.2l12.7-38.4l57.8,7.4L140,167.8z M76.2,161.9L22.7,157l7.2-38.5l59.5,3.7
		L76.2,161.9z M11.4,156.3h-53l2.1-39.4l58.1,1.2L11.4,156.3z M-52.8,156.5l-47.5,2.4l-1.4-39.5l51-2.4L-52.8,156.5z M-111.6,159.7
		l-47.7,3.7l-4.7-38.2l51-4.9L-111.6,159.7z M-170.4,164.6l-41.9,6l-6.7-36.9l43.9-7.1L-170.4,164.6z M-223.2,172.7l-37,9.2
		l-7.9-35.5l38.2-10.4L-223.2,172.7z M-270.9,185.2l-31,11.1l-8-35.3l31.2-11.1L-270.9,185.2z M-312.5,200.3l-24.8,10.3l-7.2-33.7
		l24-11.5L-312.5,200.3z M-347.7,215.6l-18.6,11.7l-5.4-31.6l17.1-12.3L-347.7,215.6z M-376.4,234.6l-11,10.2l-2.5-30.1l8.5-9.2
		L-376.4,234.6z M-397.7,255.1l-3.6,4.4l-0.6-10.2l3-9L-397.7,255.1z M-460.2,493.2l0.5,4.4l-11.1,18.4l0.1-1.7L-460.2,493.2z
		 M-454.2,510l5.5,9.5l-19.8,28.5l-3.1-9.3L-454.2,510z M-411.2,485l14,12.2l-26,35l-11.9-12.8L-411.2,485z M-421.4,548.6l17.6,11.8
		l-27,35.3l-15.5-13.6L-421.4,548.6z M-394.2,566.2l24.3,13.7l-27.2,35.9l-24.5-13.8L-394.2,566.2z M-359.8,585.1l29.2,11.9
		l-25.4,35.8l-30.8-12.1L-359.8,585.1z M-319.7,601l36,10.5l-24.7,37.8l-36.6-12.6L-319.7,601z M-272.3,614.6l41.9,9.6l-21.8,38.9
		l-44.8-10.6L-272.3,614.6z M-218.8,626.4l46.9,7.2l-18,40l-50.6-8.4L-218.8,626.4z M-160.5,635.2l49.3,6l-12.3,38.7l-54.9-4.9
		L-160.5,635.2z M-99.8,642.3l54.2,1.3l-6.9,39.4l-59.4-2.4L-99.8,642.3z M-34.2,643.7h54.5l-0.5,39.6h-61L-34.2,643.7z M31.4,643.5
		l56.7-2.6l6.7,38.2L31,682.9L31.4,643.5z M99.4,639.9l54.5-6.3l14.4,37.1l-62.2,7.5L99.4,639.9z M165.2,631.9l53-8.6l21.8,34.7
		l-60.5,11.1L165.2,631.9z M229.9,620.7l48.8-12.2l29,32.4l-55.8,14.6L229.9,620.7z M290.5,605l45.1-14.2l37.7,30.2l-53.7,16.7
		L290.5,605z M348.1,586.5l38.7-13.6l43.9,26.8l-44.6,17.2L348.1,586.5z M398.9,567l33.4-17.8l52,23.6l-40.8,21.5L398.9,567z
		 M379.7,513l19.6-12.2l57.1,19.3l-24.7,16.5L379.7,513z M409.2,492.4l14.2-13.3l63.5,14.5l-19.5,18.5L409.2,492.4z M431.8,469.5
		l9.6-12.2l68.3,9.6l-13.5,17.3L431.8,469.5z M446.6,446.7l4.7-12.4l72.8,4.2l-7.7,18L446.6,446.7z M539.7,408l72.2-1.5l-2,25.7
		l-71.1-4.1L539.7,408z M601.8,358.7l-70.5,7.1l-9.8-19.6l67.9-12.3L601.8,358.7z M582.5,323.7l-67.1,12.2l-15.2-19.2l63.4-17.1
		L582.5,323.7z M554.4,290.5l-62.5,16.9l-21.1-19.1l57.8-21.4L554.4,290.5z M517.7,259L461,280l-30-18.9l52.1-25.6L517.7,259z
		 M-463.4,560.4l21.9-31.6l11.6,12.5l-23.9,32.2L-463.4,560.4z M496.5,566l-52.8-23.9l26.1-17.4l58.2,19.6L496.5,566z M538.9,536.2
		l-59.4-20.1l20.6-19.5l64.7,14.8L538.9,536.2z M573.7,501.9l-65.5-15l14.2-18.3l67.8,9.5L573.7,501.9z M596.5,467.8l-68.7-9.6
		l8.1-19l70.8,4L596.5,467.8z"/>
</g>
</svg>
