<?xml version="1.0" encoding="UTF-8"?>
<!DOCTYPE svg PUBLIC "-//W3C//DTD SVG 1.1//EN" "http://www.w3.org/Graphics/SVG/1.1/DTD/svg11.dtd">
<svg xmlns="http://www.w3.org/2000/svg" version="1.1" width="400px" height="400px" style="shape-rendering:geometricPrecision; text-rendering:geometricPrecision; image-rendering:optimizeQuality; fill-rule:evenodd; clip-rule:evenodd" xmlns:xlink="http://www.w3.org/1999/xlink">
<g><path style="opacity:1" fill="#5c33b3" d="M -0.5,-0.5 C 132.833,-0.5 266.167,-0.5 399.5,-0.5C 399.5,132.833 399.5,266.167 399.5,399.5C 266.167,399.5 132.833,399.5 -0.5,399.5C -0.5,266.167 -0.5,132.833 -0.5,-0.5 Z"/></g>
<g><path style="opacity:1" fill="#fdfdfe" d="M 264.5,199.5 C 253.861,192.187 243.528,184.521 233.5,176.5C 238.813,172.03 244.313,167.697 250,163.5C 252.835,158.657 253.168,153.657 251,148.5C 230.923,132.879 210.757,117.379 190.5,102C 182.792,95.5382 175.625,96.0382 169,103.5C 167.889,112.085 167.056,120.752 166.5,129.5C 152.337,132.662 140.17,139.329 130,149.5C 129.107,132.465 129.44,115.465 131,98.5C 140.383,71.0553 159.55,58.5553 188.5,61C 195.268,62.145 201.601,64.4783 207.5,68C 228.321,83.9102 249.321,99.5769 270.5,115C 286.564,128.52 292.731,145.687 289,166.5C 285.168,180.817 277.001,191.817 264.5,199.5 Z"/></g>
<g><path style="opacity:1" fill="#2ccdd5" d="M 197.5,152.5 C 194.884,161.35 191.884,170.017 188.5,178.5C 189.902,179.842 189.569,180.676 187.5,181C 188.167,181.333 188.833,181.667 189.5,182C 188.101,182.595 186.768,182.428 185.5,181.5C 184.808,182.025 184.308,182.692 184,183.5C 183.667,183.167 183.333,182.833 183,182.5C 181.812,183.563 181.312,184.897 181.5,186.5C 179.901,186.232 178.568,186.566 177.5,187.5C 177.167,187.5 176.833,187.5 176.5,187.5C 173.167,175.5 169.833,163.5 166.5,151.5C 176.903,148.812 187.236,149.145 197.5,152.5 Z"/></g>
<g><path style="opacity:1" fill="#13c6d1" d="M 197.5,152.5 C 200.473,153.987 203.473,155.487 206.5,157C 215.529,163.509 224.529,170.009 233.5,176.5C 243.528,184.521 253.861,192.187 264.5,199.5C 288.174,216.022 295.34,238.022 286,265.5C 282.355,273.152 277.189,279.652 270.5,285C 250.217,299.615 230.217,314.615 210.5,330C 189.586,342.951 168.919,342.618 148.5,329C 139.785,321.282 133.952,311.782 131,300.5C 129.443,283.869 129.109,267.202 130,250.5C 140.359,260.265 152.526,266.765 166.5,270C 167.317,277.754 167.817,285.588 168,293.5C 173.711,303.442 181.211,304.942 190.5,298C 210.757,282.621 230.923,267.121 251,251.5C 253.226,246.314 252.893,241.314 250,236.5C 244.212,231.533 238.046,227.199 231.5,223.5C 221.899,215.36 211.899,207.693 201.5,200.5C 196.732,196.909 192.065,193.075 187.5,189C 184.312,187.684 180.978,187.184 177.5,187.5C 178.568,186.566 179.901,186.232 181.5,186.5C 181.312,184.897 181.812,183.563 183,182.5C 183.333,182.833 183.667,183.167 184,183.5C 184.308,182.692 184.808,182.025 185.5,181.5C 186.768,182.428 188.101,182.595 189.5,182C 188.833,181.667 188.167,181.333 187.5,181C 189.569,180.676 189.902,179.842 188.5,178.5C 191.884,170.017 194.884,161.35 197.5,152.5 Z"/></g>
<g><path style="opacity:1" fill="#5dd7de" d="M 166.5,151.5 C 169.833,163.5 173.167,175.5 176.5,187.5C 172.206,188.798 169.206,191.465 167.5,195.5C 165.605,193.557 163.272,192.057 160.5,191C 151.398,187.581 142.398,184.081 133.5,180.5C 139.819,165.515 150.819,155.848 166.5,151.5 Z"/></g>
<g><path style="opacity:1" fill="#5c35b3" d="M 176.5,187.5 C 176.833,187.5 177.167,187.5 177.5,187.5C 180.978,187.184 184.312,187.684 187.5,189C 192.065,193.075 196.732,196.909 201.5,200.5C 196.431,203.695 191.765,207.362 187.5,211.5C 184.236,212.324 180.902,212.658 177.5,212.5C 176.833,212.5 176.167,212.5 175.5,212.5C 171.75,210.419 169.084,207.419 167.5,203.5C 167.5,202.833 167.5,202.167 167.5,201.5C 167.5,199.5 167.5,197.5 167.5,195.5C 169.206,191.465 172.206,188.798 176.5,187.5 Z"/></g>
<g><path style="opacity:1" fill="#80dee5" d="M 133.5,180.5 C 142.398,184.081 151.398,187.581 160.5,191C 163.272,192.057 165.605,193.557 167.5,195.5C 167.5,197.5 167.5,199.5 167.5,201.5C 156.726,201.89 146.226,202.89 136,204.5C 134.236,204.456 132.569,204.122 131,203.5C 130.536,204.094 130.369,204.761 130.5,205.5C 128.966,196.999 129.966,188.666 133.5,180.5 Z"/></g>
<g><path style="opacity:1" fill="#fbfcfd" d="M 201.5,200.5 C 211.899,207.693 221.899,215.36 231.5,223.5C 225.356,228.803 219.022,233.969 212.5,239C 209.273,241.112 205.94,242.945 202.5,244.5C 197.402,237.661 194.069,230.328 192.5,222.5C 192.704,223.529 192.204,224.529 191,225.5C 190.078,220.727 188.911,216.06 187.5,211.5C 191.765,207.362 196.431,203.695 201.5,200.5 Z"/></g>
<g><path style="opacity:1" fill="#9de7eb" d="M 167.5,201.5 C 167.5,202.167 167.5,202.833 167.5,203.5C 166.722,204.156 166.056,204.989 165.5,206C 166.424,207.15 166.424,208.15 165.5,209C 161.368,210.253 157.868,212.42 155,215.5C 154.667,215.167 154.333,214.833 154,214.5C 152.167,215.667 150.667,217.167 149.5,219C 146.208,218.529 143.375,219.696 141,222.5C 140.667,222.167 140.333,221.833 140,221.5C 138.53,222.267 137.03,222.933 135.5,223.5C 132.321,217.951 130.655,211.951 130.5,205.5C 130.369,204.761 130.536,204.094 131,203.5C 132.569,204.122 134.236,204.456 136,204.5C 146.226,202.89 156.726,201.89 167.5,201.5 Z"/></g>
<g><path style="opacity:1" fill="#baecf0" d="M 167.5,203.5 C 169.084,207.419 171.75,210.419 175.5,212.5C 173.766,214.322 172.766,216.655 172.5,219.5C 172.709,220.086 173.043,220.586 173.5,221C 169.228,225.026 166.061,229.86 164,235.5C 163.25,236.126 162.416,236.626 161.5,237C 164.345,240.605 163.678,243.438 159.5,245.5C 148.64,241.308 140.64,233.974 135.5,223.5C 137.03,222.933 138.53,222.267 140,221.5C 140.333,221.833 140.667,222.167 141,222.5C 143.375,219.696 146.208,218.529 149.5,219C 150.667,217.167 152.167,215.667 154,214.5C 154.333,214.833 154.667,215.167 155,215.5C 157.868,212.42 161.368,210.253 165.5,209C 166.424,208.15 166.424,207.15 165.5,206C 166.056,204.989 166.722,204.156 167.5,203.5 Z"/></g>
<g><path style="opacity:1" fill="#d6f4f6" d="M 175.5,212.5 C 176.167,212.5 176.833,212.5 177.5,212.5C 178.209,213.404 179.209,213.737 180.5,213.5C 179.403,225.284 179.403,237.284 180.5,249.5C 178.5,249.5 176.5,249.5 174.5,249.5C 169.023,249.549 164.023,248.216 159.5,245.5C 163.678,243.438 164.345,240.605 161.5,237C 162.416,236.626 163.25,236.126 164,235.5C 166.061,229.86 169.228,225.026 173.5,221C 173.043,220.586 172.709,220.086 172.5,219.5C 172.766,216.655 173.766,214.322 175.5,212.5 Z"/></g>
<g><path style="opacity:1" fill="#e9f7f9" d="M 187.5,211.5 C 188.911,216.06 190.078,220.727 191,225.5C 192.204,224.529 192.704,223.529 192.5,222.5C 194.069,230.328 197.402,237.661 202.5,244.5C 195.64,248.425 188.14,250.425 180,250.5C 177.967,250.494 176.134,250.161 174.5,249.5C 176.5,249.5 178.5,249.5 180.5,249.5C 179.403,237.284 179.403,225.284 180.5,213.5C 179.209,213.737 178.209,213.404 177.5,212.5C 180.902,212.658 184.236,212.324 187.5,211.5 Z"/></g>
</svg>
