<?xml version="1.0" encoding="UTF-8"?>
<!-- Generator: visioncortex VTracer 0.6.2 -->
<svg version="1.1" xmlns="http://www.w3.org/2000/svg" width="1280" height="1280">
<path d="M0 0 C422.4 0 844.8 0 1280 0 C1280 422.4 1280 844.8 1280 1280 C857.6 1280 435.2 1280 0 1280 C0 857.6 0 435.2 0 0 Z " fill="#FCFCFC" transform="translate(0,0)"/>
<path d="M0 0 C0.73689056 -0.00350464 1.47378113 -0.00700928 2.23300171 -0.01062012 C4.66975311 -0.0194254 7.10621438 -0.01359261 9.54296875 -0.00683594 C11.23543351 -0.00818294 12.92789789 -0.01012376 14.62036133 -0.01263428 C18.16784346 -0.01558391 21.71522489 -0.01129309 25.26269531 -0.00195312 C29.81254593 0.00944134 34.3621606 0.00288101 38.91200256 -0.00909805 C42.40695985 -0.01632101 45.9018611 -0.01402672 49.39682007 -0.00884247 C51.07457507 -0.00750718 52.75233514 -0.00914948 54.43008423 -0.01380157 C56.77383934 -0.01887397 59.11721098 -0.01114672 61.4609375 0 C62.15609467 -0.00404846 62.85125183 -0.00809692 63.56747437 -0.01226807 C67.18842818 0.01967633 68.62494421 0.18843937 71.73046875 2.25878906 C73.74151691 2.60463367 73.74151691 2.60463367 75.91796875 2.69628906 C80.62332397 3.1128287 84.38297569 4.44074651 88.73046875 6.25878906 C88.73046875 6.91878906 88.73046875 7.57878906 88.73046875 8.25878906 C89.96796875 8.56816406 91.20546875 8.87753906 92.48046875 9.19628906 C98.12674294 11.04562254 102.32199378 14.44253908 106.93359375 18.10253906 C109.63782633 20.28150161 109.63782633 20.28150161 112.4453125 21.84863281 C115.54709454 23.76272395 116.93439603 26.13229211 118.73046875 29.25878906 C118.73046875 29.91878906 118.73046875 30.57878906 118.73046875 31.25878906 C119.34921875 31.52691406 119.96796875 31.79503906 120.60546875 32.07128906 C122.73046875 33.25878906 122.73046875 33.25878906 124.73046875 36.25878906 C124.73046875 37.57878906 124.73046875 38.89878906 124.73046875 40.25878906 C125.72046875 40.58878906 126.71046875 40.91878906 127.73046875 41.25878906 C129.01171875 43.91894531 129.01171875 43.91894531 130.23046875 47.32128906 C130.87242187 49.09826172 130.87242187 49.09826172 131.52734375 50.91113281 C131.924375 52.01585937 132.32140625 53.12058594 132.73046875 54.25878906 C133.31220976 55.63446351 133.89522043 57.00960306 134.48046875 58.38378906 C136.00833498 62.41257598 136.19729506 66.44071094 136.48046875 70.71191406 C136.77934947 73.7567614 137.70485856 76.38708054 138.73046875 79.25878906 C138.91796875 82.07128906 138.91796875 82.07128906 138.73046875 84.25878906 C138.40046875 84.58878906 138.07046875 84.91878906 137.73046875 85.25878906 C137.6316636 87.31694666 137.60491163 89.37856382 137.60462761 91.43909168 C137.60317417 92.09511611 137.60172073 92.75114053 137.60022324 93.42704448 C137.59653766 95.65278633 137.60006146 97.87846078 137.60348511 100.10420227 C137.60233427 101.70518552 137.60074701 103.3061685 137.59875786 104.90715092 C137.59455884 109.32834509 137.59665785 113.74951784 137.59974408 118.17071211 C137.60199585 122.93102456 137.59851955 127.69133319 137.59576416 132.4516449 C137.59130394 141.78882068 137.59228437 151.12598844 137.5951768 160.46316455 C137.59743134 168.0545726 137.59774313 175.64597841 137.59665298 183.2373867 C137.59649975 184.31617742 137.59634652 185.39496814 137.59618864 186.50644949 C137.59586892 188.69784918 137.59554471 190.88924887 137.59521605 193.08064856 C137.59236014 213.6618128 137.59564924 234.24297259 137.60101642 254.8241361 C137.60547759 272.47691654 137.60471441 290.12969039 137.60009766 307.7824707 C137.59474183 328.27082989 137.59264219 348.75918516 137.59570992 369.24754494 C137.59602847 371.43443596 137.59634284 373.62132698 137.59665298 375.808218 C137.59680726 376.88423747 137.59696154 377.96025694 137.59712049 379.06888307 C137.59798313 386.64398424 137.59652804 394.21908294 137.59417343 401.79418373 C137.59136374 411.03696041 137.59213807 420.2797286 137.59745418 429.52250431 C137.60007648 434.23679793 137.60112132 438.95107743 137.59780502 443.66537094 C137.59481128 447.98670635 137.59648591 452.30801461 137.60178258 456.62934759 C137.60289376 458.1873941 137.60234463 459.74544293 137.59990679 461.30348793 C137.58856708 469.15739152 137.73043081 476.92725219 138.54250443 484.7470414 C138.83466021 488.6510887 138.44163704 492.39136275 137.91796875 496.25878906 C137.82177246 497.0220752 137.72557617 497.78536133 137.62646484 498.57177734 C137.43074972 500.09361462 137.22880974 501.61466702 137.02001953 503.13476562 C136.75664785 505.06675013 136.52129719 507.00250244 136.2890625 508.93847656 C136.07443359 510.52015625 136.07443359 510.52015625 135.85546875 512.13378906 C135.73429687 513.03871094 135.613125 513.94363281 135.48828125 514.87597656 C134.54014624 517.85722581 132.97529649 519.12641898 130.73046875 521.25878906 C129.74917851 523.18812274 129.74917851 523.18812274 129.16796875 525.19628906 C128.03071475 528.5219886 126.61435768 531.27596492 124.73046875 534.25878906 C124.04984375 535.74378906 124.04984375 535.74378906 123.35546875 537.25878906 C120.55512409 542.42865613 116.28108389 545.66619816 111.73046875 549.25878906 C110.92609375 550.09410156 110.92609375 550.09410156 110.10546875 550.94628906 C108.73046875 552.25878906 108.73046875 552.25878906 105.73046875 553.25878906 C105.29734375 554.10441406 104.86421875 554.95003906 104.41796875 555.82128906 C103.86109375 556.62566406 103.30421875 557.43003906 102.73046875 558.25878906 C99.54296875 558.57128906 99.54296875 558.57128906 96.73046875 558.25878906 C96.45009766 559.44408203 96.45009766 559.44408203 96.1640625 560.65332031 C94.73046875 563.25878906 94.73046875 563.25878906 91.578125 564.33300781 C89.70447266 564.63658203 89.70447266 564.63658203 87.79296875 564.94628906 C82.45123143 565.79123869 82.45123143 565.79123869 77.73046875 568.25878906 C70.88276133 570.31713727 63.73422191 570.63467612 56.63671875 571.01269531 C53.79390832 571.07283963 53.79390832 571.07283963 51.73046875 572.25878906 C49.5550483 572.35606408 47.37654653 572.38616806 45.19895267 572.38742352 C44.51712918 572.38917655 43.83530569 572.39092959 43.13282087 572.39273575 C40.82543029 572.39742438 38.51810193 572.39492294 36.21070862 572.39250183 C34.54882551 572.39436836 32.88694284 572.39666843 31.22506088 572.39936715 C26.64053219 572.40551104 22.05602166 572.40534853 17.47148979 572.40417278 C12.53413158 572.40396942 7.5967793 572.40948125 2.65942383 572.41423035 C-7.02017125 572.42255151 -16.69976023 572.42528584 -26.37935858 572.42584272 C-34.24351291 572.42631717 -42.10766523 572.42836832 -49.97181892 572.43154335 C-72.2458306 572.44035373 -94.51983746 572.4449621 -116.79385089 572.44421288 C-117.99569113 572.44417292 -119.19753137 572.44413296 -120.43579102 572.4440918 C-122.24074074 572.44403048 -122.24074074 572.44403048 -124.0821541 572.44396792 C-143.59275212 572.44356128 -163.10333086 572.45313422 -182.6139233 572.46723016 C-202.62539208 572.48157444 -222.63685145 572.48850143 -242.6483255 572.48763639 C-253.89206351 572.48730375 -265.1357813 572.4900798 -276.37951469 572.50081444 C-285.95117857 572.50989383 -295.52281307 572.51211586 -305.09447937 572.50530501 C-309.98185359 572.50202686 -314.86917136 572.50202949 -319.7565403 572.51065826 C-324.22542357 572.51846735 -328.69420509 572.5171497 -333.16308571 572.50837413 C-334.78487252 572.50682671 -336.40666671 572.50870145 -338.02844482 572.51423421 C-340.22314667 572.52122909 -342.41748511 572.51605264 -344.61217403 572.50767803 C-345.83416907 572.5078954 -347.05616411 572.50811277 -348.3151893 572.50833672 C-351.26953125 572.25878906 -351.26953125 572.25878906 -354.26953125 570.25878906 C-357.90893057 570.5760943 -357.90893057 570.5760943 -361.26953125 571.25878906 C-361.26953125 570.59878906 -361.26953125 569.93878906 -361.26953125 569.25878906 C-362.17316406 569.20980469 -363.07679688 569.16082031 -364.0078125 569.11035156 C-365.18730469 569.03558594 -366.36679687 568.96082031 -367.58203125 568.88378906 C-369.33966797 568.779375 -369.33966797 568.779375 -371.1328125 568.67285156 C-374.26953125 568.25878906 -374.26953125 568.25878906 -377.26953125 566.25878906 C-380.41175092 566.57385533 -380.41175092 566.57385533 -383.26953125 567.25878906 C-387.26953125 562.50878906 -387.26953125 562.50878906 -387.26953125 560.25878906 C-389.57953125 560.58878906 -391.88953125 560.91878906 -394.26953125 561.25878906 C-394.26953125 560.59878906 -394.26953125 559.93878906 -394.26953125 559.25878906 C-395.25953125 558.92878906 -396.24953125 558.59878906 -397.26953125 558.25878906 C-398.40509399 557.15763732 -399.53320942 556.04788627 -400.625 554.90332031 C-402.71277608 552.81554423 -404.92656048 550.89500694 -407.14453125 548.94628906 C-410.99939519 545.50506179 -414.48089958 541.94496841 -417.796875 537.98535156 C-419.23204931 536.23355387 -419.23204931 536.23355387 -420.90234375 534.75097656 C-422.26953125 533.25878906 -422.26953125 533.25878906 -423.20703125 529.75878906 C-423.88791385 526.21179046 -423.88791385 526.21179046 -426.30078125 524.85253906 C-428.26953125 523.25878906 -428.26953125 523.25878906 -428.7734375 520.88378906 C-428.79277344 520.01753906 -428.81210937 519.15128906 -428.83203125 518.25878906 C-428.84100791 515.66567461 -428.84100791 515.66567461 -429.26953125 513.25878906 C-429.75817657 512.87247818 -430.2468219 512.4861673 -430.75027466 512.08815002 C-433.09694183 509.26249086 -432.8414116 506.13844134 -432.94873047 502.61401367 C-432.98181746 501.85846915 -433.01490444 501.10292463 -433.04899406 500.32448483 C-433.3670621 492.41020807 -433.41506154 484.49472106 -433.40234375 476.57519531 C-433.40301998 475.05728642 -433.40399264 473.53937764 -433.40524292 472.02146912 C-433.40669817 468.88303569 -433.40463206 465.74463118 -433.39990234 462.60620117 C-433.39413164 458.58134264 -433.39754331 454.55654974 -433.40347481 450.53169346 C-433.40707682 447.41683958 -433.40594478 444.30200148 -433.40334702 441.18714714 C-433.40268055 439.70115081 -433.40349637 438.21515305 -433.40582657 436.7291584 C-433.40835509 434.66941587 -433.40451311 432.60978313 -433.39892578 430.55004883 C-433.39813019 429.37998795 -433.39733459 428.20992706 -433.39651489 427.00440979 C-433.26953125 424.25878906 -433.26953125 424.25878906 -432.26953125 422.25878906 C-428.61499439 421.23041779 -425.10337146 421.13064445 -421.3238163 421.12291718 C-420.12482346 421.11805943 -418.92583062 421.11320168 -417.69050467 421.10819674 C-416.37681446 421.10790075 -415.06312425 421.10760476 -413.70962524 421.1072998 C-412.29706781 421.10344869 -410.88451152 421.09916101 -409.47195661 421.09447432 C-405.59007193 421.08284195 -401.70819898 421.07735189 -397.82630038 421.0728395 C-393.63927772 421.06688714 -389.45227064 421.05521971 -385.26525879 421.04420471 C-378.00749752 421.02585349 -370.74973589 421.01100791 -363.49196243 420.99842834 C-352.98208913 420.98012207 -342.47223799 420.95545575 -331.96238224 420.92905444 C-314.88947947 420.88624963 -297.81657054 420.84714378 -280.74365234 420.81103516 C-279.72164303 420.80887235 -278.69963371 420.80670955 -277.64665441 420.80448121 C-270.39594688 420.78916015 -263.14523908 420.77396701 -255.89453125 420.75878906 C-247.62939431 420.74147656 -239.36425755 420.72408591 -231.09912109 420.70654297 C-230.08138928 420.7043841 -229.06365747 420.70222523 -228.01508529 420.70000094 C-211.01832943 420.66382797 -194.02158446 420.62386429 -177.02484357 420.58124018 C-166.54879325 420.55515312 -156.07274615 420.53247718 -145.59667914 420.5142566 C-138.40846993 420.50153908 -131.22027363 420.48539437 -124.03207774 420.46660745 C-119.89053944 420.45590613 -115.74901346 420.44676461 -111.60746384 420.4419117 C-107.8060913 420.43743247 -104.00475607 420.42840601 -100.20340149 420.41596848 C-98.19760442 420.41054423 -96.19179623 420.40984112 -94.18599188 420.40938139 C-76.34874104 420.6137025 -76.34874104 420.6137025 -59.26953125 416.25878906 C-58.39167969 415.91203125 -57.51382812 415.56527344 -56.609375 415.20800781 C-54.88020249 414.52380286 -53.15449506 413.83072662 -51.43359375 413.12597656 C-49.73451496 412.44511828 -48.00601997 411.83761864 -46.26953125 411.25878906 C-46.26953125 410.59878906 -46.26953125 409.93878906 -46.26953125 409.25878906 C-45.7590625 409.03707031 -45.24859375 408.81535156 -44.72265625 408.58691406 C-39.30461236 405.93553088 -35.0258202 402.53260778 -30.70703125 398.38378906 C-30.17045898 397.89040039 -29.63388672 397.39701172 -29.08105469 396.88867188 C-26.16867654 393.98764803 -25.29294392 392.52628556 -24.9296875 388.37597656 C-25.04183594 387.34730469 -25.15398437 386.31863281 -25.26953125 385.25878906 C-23.61953125 384.92878906 -21.96953125 384.59878906 -20.26953125 384.25878906 C-20.15996094 383.69289063 -20.05039062 383.12699219 -19.9375 382.54394531 C-19.77894531 381.81046875 -19.62039063 381.07699219 -19.45703125 380.32128906 C-19.23080078 379.22494141 -19.23080078 379.22494141 -19 378.10644531 C-18.75894531 377.49671875 -18.51789063 376.88699219 -18.26953125 376.25878906 C-17.27953125 375.92878906 -16.28953125 375.59878906 -15.26953125 375.25878906 C-15.26953125 374.59878906 -15.26953125 373.93878906 -15.26953125 373.25878906 C-15.92953125 372.92878906 -16.58953125 372.59878906 -17.26953125 372.25878906 C-16.79515625 371.37191406 -16.32078125 370.48503906 -15.83203125 369.57128906 C-11.76698413 360.02877055 -13.13057081 347.84449477 -13.16946411 337.67628479 C-13.17118055 336.25041036 -13.17244055 334.82453533 -13.17328918 333.39866012 C-13.17684394 329.51745666 -13.18661896 325.63629085 -13.19744277 321.7551018 C-13.20799813 317.55545439 -13.21257143 313.35580004 -13.21777344 309.15614319 C-13.22745069 301.89085239 -13.24047979 294.62557404 -13.25549698 287.36029243 C-13.27893895 275.87732165 -13.29188905 264.39434992 -13.30319214 252.91136169 C-13.30719266 248.97774977 -13.31126141 245.04413792 -13.31535149 241.11052608 C-13.31688033 239.63638021 -13.31688033 239.63638021 -13.31844006 238.13245361 C-13.33016347 226.96663673 -13.34404895 215.80082291 -13.35888672 204.63500977 C-13.36091537 203.10524062 -13.36091537 203.10524062 -13.362985 201.54456704 C-13.38520368 184.98866062 -13.41508055 168.4327743 -13.44685413 151.87688387 C-13.47922277 134.86524221 -13.50010345 117.85361112 -13.5111264 100.84194225 C-13.51835243 90.35453605 -13.53506176 79.86723017 -13.56392716 69.37986081 C-13.58289952 62.20114132 -13.59101305 55.02246194 -13.59052218 47.84371758 C-13.5905853 43.70114923 -13.59559333 39.5587385 -13.61368942 35.41620636 C-13.63015518 31.62481882 -13.63280668 27.83368275 -13.62444066 24.04227101 C-13.62359407 22.02023353 -13.63759604 19.99820669 -13.65211308 17.97622114 C-13.64407841 16.17289522 -13.64407841 16.17289522 -13.63588142 14.33313847 C-13.63756266 13.29747338 -13.63924389 12.2618083 -13.64097607 11.19475943 C-13.19462701 7.66673171 -12.10784346 5.29063262 -10.26953125 2.25878906 C-6.68656468 -0.12985532 -4.13531258 -0.02408327 0 0 Z " fill="#06070A" transform="translate(900.26953125,503.7412109375)"/>
<path d="M0 0 C1.76452179 -0.00230717 3.52904262 -0.00548541 5.29356146 -0.00945449 C10.12001358 -0.01777522 14.94638624 -0.01368968 19.77283859 -0.00748205 C24.98611734 -0.00294768 30.19938264 -0.00994603 35.41265869 -0.01544189 C45.61440905 -0.02432552 55.81612995 -0.02241891 66.01788145 -0.01661661 C74.30563986 -0.01209806 82.59339001 -0.01148805 90.88114929 -0.01366425 C92.06109662 -0.01397071 93.24104395 -0.01427718 94.45674726 -0.01459293 C96.8537552 -0.01523238 99.25076313 -0.01588081 101.64777106 -0.01653811 C124.11053117 -0.02223787 146.57327495 -0.01568803 169.03603238 -0.00493738 C188.32265442 0.0040071 207.60925241 0.00243802 226.89587402 -0.0067749 C249.29120324 -0.01746778 271.68651817 -0.02169837 294.08184958 -0.01555037 C296.46754551 -0.01491326 298.85324144 -0.01428452 301.23893738 -0.01366425 C302.99970334 -0.01320142 302.99970334 -0.01320142 304.79604033 -0.01272924 C313.08081198 -0.01100004 321.36557459 -0.01392204 329.65034485 -0.01862335 C339.73599227 -0.02422086 349.82160854 -0.02273923 359.90725237 -0.01206186 C365.0559454 -0.00679132 370.20458642 -0.00477198 375.35327911 -0.01136017 C380.06050961 -0.01729266 384.76763956 -0.01408953 389.47486085 -0.00340506 C391.18318684 -0.00115963 392.89152123 -0.00233271 394.59984189 -0.00715664 C396.91113871 -0.0131858 399.22208523 -0.00705401 401.53336334 0.002285 C403.46384073 0.00277206 403.46384073 0.00277206 405.43331766 0.00326896 C408.52478027 0.25396729 408.52478027 0.25396729 411.52478027 2.25396729 C412.06489746 1.87756104 412.60501465 1.50115479 413.16149902 1.11334229 C415.52478027 0.25396729 415.52478027 0.25396729 418.29431152 1.08209229 C419.29849121 1.55131104 420.3026709 2.02052979 421.33728027 2.50396729 C426.27722347 4.74311192 426.27722347 4.74311192 431.46228027 6.25396729 C434.52478027 7.25396729 434.52478027 7.25396729 437.08728027 9.87896729 C437.89165527 10.66271729 438.69603027 11.44646729 439.52478027 12.25396729 C440.51478027 12.21271729 441.50478027 12.17146729 442.52478027 12.12896729 C445.52478027 12.25396729 445.52478027 12.25396729 446.84118652 13.65240479 C447.68366514 14.90423822 448.50491684 16.1705795 449.30603027 17.44927979 C450.97713069 19.92379386 453.17143413 21.44370102 455.52478027 23.25396729 C456.48384277 24.46052979 456.48384277 24.46052979 457.46228027 25.69146729 C459.46780947 28.40204814 459.46780947 28.40204814 462.46228027 30.44146729 C466.00295625 33.25973834 467.50509108 36.78354926 469.36071777 40.83599854 C470.54183171 43.46926336 470.54183171 43.46926336 472.77478027 46.37896729 C474.46584295 49.15714167 474.79663387 50.27873894 475.08728027 53.37896729 C475.16164697 57.14017783 475.16164697 57.14017783 477.01080322 59.10069275 C479.0340253 61.97824798 479.0166968 64.08543386 479.18591309 67.58135986 C479.2824115 69.45339584 479.2824115 69.45339584 479.38085938 71.36325073 C479.42835327 72.64718719 479.47584717 73.93112366 479.52478027 75.25396729 C479.59263733 77.03884048 479.59263733 77.03884048 479.66186523 78.85977173 C479.78178196 82.57823256 479.87022094 86.29608294 479.94665527 90.01568604 C479.96051521 90.6841688 479.97437515 91.35265156 479.98865509 92.04139137 C480.06103321 95.56831202 480.12855324 99.09528811 480.19226074 102.62237549 C480.25847336 106.22642329 480.34319328 109.82979677 480.43183517 113.43335247 C480.49740232 116.24473353 480.54862456 119.0562523 480.59616852 121.86799049 C480.6330663 123.8327013 480.68522864 125.7971069 480.737854 127.76145935 C480.76338348 129.58439262 480.76338348 129.58439262 480.78942871 131.44415283 C480.81083923 132.49668747 480.83224976 133.54922211 480.85430908 134.63365173 C480.55089086 137.96710752 479.90478098 140.76982235 479.00418472 143.98023701 C478.72872071 144.96850682 478.45325669 145.95677662 478.16944528 146.974994 C477.95670583 147.72705519 477.74396637 148.47911637 477.52478027 149.25396729 C476.7668284 149.25456437 476.00887653 149.25516146 475.22795641 149.25577664 C430.3018666 149.29167346 385.37584399 149.34831686 340.44981626 149.43188824 C335.05504542 149.44190565 329.66027428 149.45174979 324.26550293 149.46148682 C323.19150472 149.46342819 322.1175065 149.46536956 321.01096289 149.46736977 C303.62276546 149.49838772 286.23458123 149.51536985 268.84636135 149.52716151 C251.00337961 149.53957412 233.16046711 149.56707804 215.31752908 149.60858035 C204.30818622 149.63371254 193.29895819 149.64708476 182.28958623 149.64539686 C174.73922638 149.64536709 167.18898348 149.66000109 159.63866921 149.68613157 C155.28303411 149.7007738 150.92763884 149.70898364 146.57198334 149.69976997 C142.58053039 149.6914697 138.58955887 149.70167417 134.59817724 149.72630391 C133.15791179 149.7319774 131.71760056 149.73098776 130.27734907 149.72247973 C122.73767215 149.68177342 116.50106207 150.00906228 109.64118326 153.31176353 C107.38421471 154.31654582 105.33406136 154.75076646 102.89978027 155.12896729 C98.60314838 155.9776847 95.88133132 157.84394005 92.54431152 160.62115479 C90.52478027 162.25396729 90.52478027 162.25396729 87.67712402 164.10162354 C84.25699639 166.43680362 81.29849727 169.00167546 78.27478027 171.81646729 C77.74626465 172.29793213 77.21774902 172.77939697 76.67321777 173.27545166 C71.958883 177.62484427 70.15667127 181.07609424 68.52478027 187.25396729 C67.53478027 187.25396729 66.54478027 187.25396729 65.52478027 187.25396729 C65.4036084 187.95263916 65.28243652 188.65131104 65.15759277 189.37115479 C64.90622559 190.73627197 64.90622559 190.73627197 64.64978027 192.12896729 C64.40614746 193.4863501 64.40614746 193.4863501 64.15759277 194.87115479 C63.52478027 197.25396729 63.52478027 197.25396729 61.52478027 199.25396729 C61.52478027 200.57396729 61.52478027 201.89396729 61.52478027 203.25396729 C62.18478027 203.91396729 62.84478027 204.57396729 63.52478027 205.25396729 C63.05040527 205.76959229 62.57603027 206.28521729 62.08728027 206.81646729 C58.67657949 212.13716051 59.38428372 219.13199438 59.41125488 225.27464294 C59.41103159 226.60642349 59.41103159 226.60642349 59.41080379 227.96510869 C59.41149671 230.93405924 59.41933502 233.90294744 59.42712402 236.87188721 C59.42904521 239.00980087 59.43050806 241.147715 59.43154907 243.28562927 C59.43471617 247.90867627 59.44099863 252.53170508 59.44961548 257.1547451 C59.46331118 264.60125454 59.46907544 272.04775815 59.47375488 279.49427795 C59.48111397 290.07620677 59.4912028 300.65812827 59.50427246 311.24005127 C59.50510027 311.91144984 59.50592808 312.5828484 59.50678098 313.27459238 C59.51587887 320.61515028 59.5254407 327.95570754 59.53515625 335.29626465 C59.55892109 353.37981831 59.57821516 371.46336847 59.58728027 389.54693604 C59.58792229 390.82717573 59.5885643 392.10741542 59.58922577 393.42645025 C59.60638757 433.65116636 59.4514213 473.87239298 59.11906052 514.09556413 C59.08738516 517.97938768 59.05739942 521.86322135 59.02774048 525.74706078 C58.98111165 531.77427417 58.92892884 537.80141296 58.87190247 543.82853675 C58.85156807 546.04013678 58.83280767 548.25175189 58.81568909 550.46337914 C58.79190813 553.46654497 58.76192737 556.46958173 58.73010254 559.47267151 C58.72434739 560.35798858 58.71859224 561.24330566 58.7126627 562.15545052 C58.63913748 568.13961008 58.63913748 568.13961008 57.52478027 569.25396729 C49.76469886 570.42041282 41.88874461 570.41391951 34.05993652 570.42193604 C32.9053746 570.42526443 31.75081268 570.42859283 30.56126404 570.43202209 C28.13512568 570.43705351 25.70898049 570.4394316 23.28283691 570.43927002 C19.60099773 570.44145913 15.91945737 570.45966295 12.2376709 570.47857666 C9.86592712 570.48151098 7.49418193 570.48349552 5.12243652 570.48443604 C4.03769547 570.49162155 2.95295441 570.49880707 1.83534241 570.50621033 C-4.57313199 570.48733762 -10.62078968 569.9019538 -16.9223175 568.72380066 C-20.01478378 568.1546665 -23.09016267 567.85289993 -26.22521973 567.62896729 C-27.23068848 567.55420166 -28.23615723 567.47943604 -29.27209473 567.40240479 C-29.99912598 567.35342041 -30.72615723 567.30443604 -31.47521973 567.25396729 C-31.47521973 566.59396729 -31.47521973 565.93396729 -31.47521973 565.25396729 C-34.76218206 564.45443591 -36.18545165 564.15737793 -39.47521973 565.25396729 C-41.17451702 564.35433931 -42.86838769 563.43896188 -44.50256348 562.42584229 C-46.52532829 561.22419982 -48.58053256 560.28019412 -50.72521973 559.31646729 C-54.33962304 557.55081049 -55.52667158 555.7967821 -57.47521973 552.25396729 C-59.45710317 550.89385119 -61.45473841 549.55605524 -63.47521973 548.25396729 C-63.47521973 547.59396729 -63.47521973 546.93396729 -63.47521973 546.25396729 C-64.21771973 546.04771729 -64.96021973 545.84146729 -65.72521973 545.62896729 C-69.30031152 543.84142139 -70.3899219 541.61735088 -72.47521973 538.25396729 C-73.08881348 537.64552979 -73.70240723 537.03709229 -74.33459473 536.41021729 C-79.68877332 531.0169571 -84.75770535 524.51983014 -85.28771973 516.75396729 C-85.27354004 515.98052979 -85.25936035 515.20709229 -85.24475098 514.41021729 C-85.2934119 512.14947636 -85.2934119 512.14947636 -86.92443848 510.41021729 C-90.30888136 505.70439242 -89.61967204 499.12026902 -89.59826756 493.50537205 C-89.5994214 492.75272234 -89.60057524 492.00007264 -89.60176405 491.22461537 C-89.60440773 488.70642785 -89.59992714 486.18830446 -89.59547424 483.67012024 C-89.5959104 481.84504174 -89.59678614 480.0199633 -89.59806341 478.19488519 C-89.60029953 473.18259859 -89.59629912 468.17033335 -89.59128535 463.15804946 C-89.5869684 457.75185069 -89.58842816 452.34565313 -89.58918762 446.93945312 C-89.58971207 437.57378415 -89.58657355 428.20812214 -89.58094978 418.84245491 C-89.57282404 405.30125787 -89.57021846 391.76006419 -89.56896179 378.21886497 C-89.56677297 356.24936266 -89.56011746 334.27986406 -89.55065918 312.31036377 C-89.54148069 290.96856693 -89.53440199 269.62677152 -89.53015137 248.28497314 C-89.52988864 246.96954716 -89.52962592 245.65412117 -89.52935524 244.29883379 C-89.5280502 237.69975282 -89.52678649 231.10067184 -89.52554333 224.50159085 C-89.51517599 169.75238043 -89.49756226 115.00317404 -89.47521973 60.25396729 C-87.00021973 59.75896729 -87.00021973 59.75896729 -84.47521973 59.25396729 C-84.56803223 58.39674072 -84.66084473 57.53951416 -84.75646973 56.65631104 C-85.34480243 47.33754126 -85.34480243 47.33754126 -82.72912598 44.07818604 C-80.53771973 42.37896729 -80.53771973 42.37896729 -78.32287598 41.01177979 C-76.12292099 39.29158368 -76.12292099 39.29158368 -76.06896973 35.93365479 C-75.32424928 31.31834781 -73.22901034 29.2780715 -69.91271973 26.25396729 C-69.3647876 25.73560303 -68.81685547 25.21723877 -68.25231934 24.6831665 C-67.16110972 23.65631563 -66.06335159 22.63637159 -64.95861816 21.62408447 C-63.73121618 20.49041431 -62.5394982 19.31824575 -61.35803223 18.13677979 C-56.57160348 13.51469194 -51.24538284 11.07613667 -45.13537598 8.51568604 C-42.35794547 7.53315564 -42.35794547 7.53315564 -41.47521973 5.25396729 C-38.92053223 4.47271729 -38.92053223 4.47271729 -35.60021973 3.75396729 C-34.53029785 3.51677979 -33.46037598 3.27959229 -32.35803223 3.03521729 C-31.0767041 2.77740479 -29.79537598 2.51959229 -28.47521973 2.25396729 C-27.75876738 2.0873617 -27.04231503 1.92075612 -26.30415201 1.74910188 C-17.55804049 -0.11373559 -8.88979612 -0.02538967 0 0 Z " fill="#06070A" transform="translate(280.4752197265625,228.74603271484375)"/>
<path d="M0 0 C3.875 1.875 3.875 1.875 5 3 C10.6047709 3.21326403 10.6047709 3.21326403 16 2 C18.7968909 1.87706813 21.57071849 1.81012136 24.36872864 1.78794861 C25.23277162 1.7773661 26.0968146 1.7667836 26.9870407 1.75588042 C29.89342783 1.72168633 32.79983587 1.69464726 35.70629883 1.66772461 C37.78565304 1.64505644 39.86500379 1.62206908 41.9443512 1.5987854 C60.9156341 1.39306239 79.88771447 1.24639526 98.85962391 1.11221981 C112.88859764 1.01244127 126.91680021 0.88624814 140.94520551 0.7250194 C150.80416091 0.61396021 160.66308396 0.53350654 170.52249354 0.47565466 C176.4140225 0.44021572 182.30470255 0.39102287 188.1957798 0.30879021 C193.73706609 0.23203987 199.27733138 0.19309065 204.81912804 0.18324661 C206.85338992 0.17301595 208.88763593 0.14901664 210.92155457 0.11027336 C213.69909459 0.05944229 216.47243678 0.05814297 219.25032043 0.06919861 C220.45835688 0.02943127 220.45835688 0.02943127 221.6907981 -0.01113945 C225.17611911 0.04967492 227.19130223 0.28012728 229.84752566 2.64459872 C232.91427196 6.46274513 234.75259445 9.65067806 234.71479797 14.65609741 C234.7216008 15.70755951 234.72840363 16.75902161 234.7354126 17.84234619 C234.7122699 18.96993347 234.6891272 20.09752075 234.6652832 21.25927734 C234.66455307 22.46667572 234.66382294 23.6740741 234.66307068 24.9180603 C234.65541653 28.20751484 234.6212955 31.49539414 234.57543206 34.78449583 C234.53400443 38.23210527 234.5277249 41.67977558 234.51786804 45.12759399 C234.49411867 51.64886957 234.44063307 58.16952947 234.37557238 64.69051039 C234.28129736 74.27555578 234.23215163 83.86085753 234.18278027 93.44622231 C234.17543329 94.85970696 234.16807011 96.27319154 234.16069031 97.68667603 C234.15714057 98.37651569 234.15359083 99.06635535 234.14993352 99.77709925 C234.12781207 103.88115172 234.09712576 107.98503077 234.0587908 112.08896327 C234.04106349 114.0226838 234.02572605 115.95642577 234.01045227 117.89016724 C233.99173459 120.25042189 233.96919543 122.61065036 233.94223022 124.9708252 C233.93493393 126.00536835 233.92763763 127.0399115 233.92012024 128.10580444 C233.91140553 129.00798895 233.90269083 129.91017345 233.89371204 130.83969688 C233.85709953 133.04979923 233.85709953 133.04979923 235 135 C235.0990889 137.82085529 235.13982248 140.61649008 235.1328125 143.4375 C235.13424759 144.6913147 235.13424759 144.6913147 235.13571167 145.97045898 C235.13639268 147.73909582 235.13454391 149.50773515 235.13037109 151.27636719 C235.12502171 153.98898921 235.13031875 156.70144565 235.13671875 159.4140625 C235.13605795 161.1302087 235.13477676 162.8463548 235.1328125 164.5625 C235.13483673 165.37710693 235.13686096 166.19171387 235.13894653 167.03100586 C235.11495964 172.77008072 235.11495964 172.77008072 234 175 C233.91568055 176.40931348 233.89275672 177.8225739 233.90234375 179.234375 C233.90564697 180.10868164 233.9089502 180.98298828 233.91235352 181.88378906 C233.92480103 183.30256348 233.92480103 183.30256348 233.9375 184.75 C233.94128662 185.71905273 233.94507324 186.68810547 233.94897461 187.68652344 C233.96122278 190.79106001 233.9798534 193.89550521 234 197 C234.02649875 201.0833308 234.04654398 205.16661593 234.0625 209.25 C234.07494751 210.66877441 234.07494751 210.66877441 234.08764648 212.11621094 C234.09094971 212.99051758 234.09425293 213.86482422 234.09765625 214.765625 C234.10551147 215.92239746 234.10551147 215.92239746 234.11352539 217.10253906 C234 219 234 219 233 221 C232.844765 223.08129884 232.72495066 225.16531474 232.625 227.25 C232.28069058 232.20696259 231.7280222 235.74428537 229 240 C227.38384017 242.72195339 226.98095225 243.7015853 227.1875 246.9375 C226.92928779 251.15496617 225.00001773 252.13951798 222 255 C220.98034573 257.32481174 219.97940398 259.65794699 219 262 C217.68720748 263.35356247 216.35194389 264.68554069 215 266 C213.89617802 267.42182784 212.81300281 268.8599015 211.75 270.3125 C206.72872356 276.81125223 201.73727252 281.85592068 193.80859375 284.390625 C191.3033613 285.2347206 189.22828864 286.59265981 187 288 C185.948125 288.495 184.89625 288.99 183.8125 289.5 C180.76445635 290.84076162 180.76445635 290.84076162 179 294 C179 292.68 179 291.36 179 290 C176.06168772 290.4197589 174.06565201 290.96060879 171.5 292.5 C168.85859432 294.08484341 167.05104552 294.69489545 164 295 C162.88625 294.690625 162.88625 294.690625 161.75 294.375 C158.79135806 293.73948228 158.79135806 293.73948228 155.42228699 295.44854736 C148.0477833 297.98888601 140.19812764 297.44887287 132.4934082 297.44824219 C130.72170732 297.45890869 128.95001378 297.47086036 127.17832947 297.48399353 C122.3846806 297.51576209 117.59113926 297.52922194 112.79740167 297.53904247 C107.76439514 297.55219768 102.73147918 297.58133685 97.6985321 297.60845947 C89.24280644 297.65171886 80.78709826 297.6838474 72.33129883 297.70849609 C62.58436129 297.73696536 52.8375652 297.77919653 43.09071857 297.82973552 C32.68036589 297.88370527 22.26999058 297.92944046 11.85958457 297.97177219 C8.8766485 297.98431878 5.89372066 297.99816764 2.9107914 298.01222992 C-1.79815468 298.03388604 -6.50708928 298.04984277 -11.21607018 298.06158638 C-12.93402729 298.06664781 -14.65198041 298.07344393 -16.36992264 298.08220482 C-28.71996987 298.14338862 -41.01151896 297.92287212 -53.25 296.0625 C-54.30703125 295.90910156 -55.3640625 295.75570313 -56.453125 295.59765625 C-59 295 -59 295 -61 293 C-62.45776353 289.14948981 -62.16235587 285.00245682 -62.17840576 280.94258118 C-62.18546044 280.12375794 -62.19251511 279.30493471 -62.19978356 278.46129864 C-62.22219346 275.71290105 -62.23757327 272.96450986 -62.25292969 270.21606445 C-62.26742111 268.24620793 -62.28229774 266.27635422 -62.29753113 264.3065033 C-62.33745987 258.9457542 -62.37079856 253.58498422 -62.40211773 248.22417855 C-62.42186065 244.86572152 -62.44270628 241.50727302 -62.46387482 238.14882469 C-62.52990154 227.61585501 -62.5918283 217.08287262 -62.64805388 206.54984599 C-62.71273568 194.44188169 -62.79078232 182.33410386 -62.88073611 170.22630149 C-62.9496249 160.8416716 -63.00623951 151.45701533 -63.05390286 142.07225388 C-63.08256127 136.48173617 -63.11612369 130.89135935 -63.16255951 125.30095863 C-63.66074948 63.87336577 -63.66074948 63.87336577 -58.47558212 58.38704395 C-57.98864002 57.92931945 -57.50169792 57.47159494 -57 57 C-56.39315394 54.66764898 -56.39315394 54.66764898 -56.125 52.125 C-55.25347705 47.16017663 -53.71708123 45.46364388 -50 42 C-49.15436209 40.37094502 -48.34647333 38.72211123 -47.5625 37.0625 C-42.75601128 27.92147752 -34.2291475 18.01972509 -24.3125 14.4375 C-23.52746094 14.20417969 -22.74242187 13.97085938 -21.93359375 13.73046875 C-19.66879038 13.06789485 -19.66879038 13.06789485 -17.875 10.25 C-17.441875 9.13625 -17.441875 9.13625 -17 8 C-15.02 8.66 -13.04 9.32 -11 10 C-10.67 9.01 -10.34 8.02 -10 7 C-7.93359375 6.26953125 -7.93359375 6.26953125 -5.4375 5.8125 C-4.61121094 5.65394531 -3.78492188 5.49539063 -2.93359375 5.33203125 C-2.29550781 5.22246094 -1.65742187 5.11289062 -1 5 C-0.67 3.35 -0.34 1.7 0 0 Z " fill="#06070A" transform="translate(528,503)"/>
<path d="M0 0 C2.32694964 0.37531446 4.65976685 0.71917202 7 1 C5 3 5 3 2.16755521 3.24839699 C0.94409631 3.24763755 -0.2793626 3.24687811 -1.53989601 3.24609566 C-2.22261829 3.24840335 -2.90534058 3.25071103 -3.60875142 3.25308865 C-5.91924582 3.2584243 -8.229467 3.24937531 -10.53994751 3.24050903 C-12.20396883 3.24138037 -13.86798989 3.24313003 -15.53200948 3.24568737 C-20.12235982 3.25017898 -24.71261758 3.24213244 -29.3029561 3.23213124 C-34.24638913 3.22352504 -39.18981659 3.22641489 -44.133255 3.22793579 C-52.70398834 3.22898644 -61.27469132 3.22269107 -69.84541702 3.21146011 C-82.23737 3.1952324 -94.62930823 3.18999991 -107.02127068 3.18748413 C-127.12454035 3.18310273 -147.22779382 3.16978158 -167.33105469 3.15087891 C-186.86393146 3.1325316 -206.39680385 3.11836948 -225.9296875 3.10986328 C-227.13292127 3.10933783 -228.33615504 3.10881239 -229.57585044 3.10827102 C-235.61188986 3.10566102 -241.64792931 3.10313358 -247.68396878 3.10064721 C-297.78932372 3.07990086 -347.89466107 3.04466325 -398 3 C-397.67 1.68 -397.34 0.36 -397 -1 C-347.29107662 -1.17323897 -297.58212833 -1.33589505 -247.87312429 -1.48431293 C-242.00753836 -1.5018351 -236.14195269 -1.5194451 -230.27636719 -1.53710938 C-229.10861067 -1.54062461 -227.94085416 -1.54413985 -226.73771109 -1.5477616 C-207.8174539 -1.60492581 -188.89722722 -1.66920829 -169.97700225 -1.736111 C-150.57016014 -1.80457636 -131.163305 -1.8654163 -111.75641644 -1.91914403 C-99.77663959 -1.95255125 -87.79691283 -1.99194086 -75.81718142 -2.03892837 C-67.60767463 -2.07055896 -59.39816698 -2.09479782 -51.1886199 -2.11317255 C-46.44871591 -2.12400136 -41.70888129 -2.13813844 -36.96901894 -2.16103554 C-32.63130335 -2.18191817 -28.2936661 -2.19353755 -23.95590319 -2.19772999 C-22.38513626 -2.20089398 -20.8143718 -2.20748342 -19.24363564 -2.21781154 C-17.11054874 -2.23134022 -14.97779965 -2.23245868 -12.84467888 -2.23047829 C-11.65919201 -2.23427549 -10.47370514 -2.23807269 -9.25229442 -2.24198496 C-5.85502841 -1.98921348 -3.18852599 -1.16087021 0 0 Z " fill="#4B4B4B" transform="translate(947,1073)"/>
<path d="M0 0 C0.66 0 1.32 0 2 0 C2 129.03 2 258.06 2 391 C1.01 391 0.02 391 -1 391 C-1.02286413 341.33332787 -1.04049708 291.66665627 -1.05106533 241.99997992 C-1.05231611 236.14297163 -1.05361043 230.28596335 -1.05493164 224.42895508 C-1.05519395 223.26287763 -1.05545626 222.09680018 -1.05572652 220.89538705 C-1.06008371 201.98793765 -1.06797153 183.08049128 -1.0771528 164.17304368 C-1.08648798 144.78767631 -1.09205532 125.40231053 -1.09408849 106.01694101 C-1.095464 94.04485512 -1.0998161 82.07277779 -1.10791647 70.10069453 C-1.11318226 61.90288966 -1.11480468 53.70508924 -1.11350138 45.5072828 C-1.11285773 40.77005471 -1.11387845 36.03284161 -1.11920547 31.29561615 C-1.12403868 26.96618304 -1.12433917 22.63677513 -1.12089889 18.30734091 C-1.12047312 16.73398174 -1.12176952 15.16062105 -1.12488318 13.5872649 C-1.12884599 11.46275241 -1.12676414 9.33833315 -1.12304783 7.21382236 C-1.12342755 6.02947465 -1.12380727 4.84512694 -1.1241985 3.62488991 C-1 1 -1 1 0 0 Z " fill="#B2B2B2" transform="translate(1038,588)"/>
<path d="M0 0 C0.66 0.33 1.32 0.66 2 1 C1.99907821 1.61145056 1.99815641 2.22290112 1.99720669 2.85288048 C1.97514256 17.71638194 1.95858409 32.57988183 1.94818783 47.44339561 C1.94302692 54.63121503 1.93598811 61.81902353 1.92456055 69.00683594 C1.91460747 75.27019115 1.90814508 81.53353845 1.90591151 87.79690135 C1.90460546 91.11468721 1.90100581 94.43244512 1.89426994 97.75022507 C1.88705474 101.44987096 1.88600927 105.14946935 1.88647461 108.84912109 C1.88287933 109.95466843 1.87928406 111.06021576 1.87557983 112.19926453 C1.8769545 113.20329819 1.87832916 114.20733185 1.87974548 115.24179077 C1.87882369 116.11749411 1.8779019 116.99319744 1.87695217 117.89543724 C1.86461955 120.05777718 1.86461955 120.05777718 3 122 C3.0990889 124.82085529 3.13982248 127.61649008 3.1328125 130.4375 C3.13376923 131.27337646 3.13472595 132.10925293 3.13571167 132.97045898 C3.13639268 134.73909582 3.13454391 136.50773515 3.13037109 138.27636719 C3.12502171 140.98898921 3.13031875 143.70144565 3.13671875 146.4140625 C3.13605795 148.1302087 3.13477676 149.8463548 3.1328125 151.5625 C3.13483673 152.37710693 3.13686096 153.19171387 3.13894653 154.03100586 C3.11495964 159.77008072 3.11495964 159.77008072 2 162 C1.84308093 164.76931368 1.74156866 167.51734107 1.68359375 170.2890625 C1.66281265 171.10748627 1.64203156 171.92591003 1.62062073 172.76913452 C1.55515188 175.38766966 1.49625274 178.00630639 1.4375 180.625 C1.39431224 182.39844807 1.35069786 184.17188581 1.30664062 185.9453125 C1.19947324 190.29677046 1.09819831 194.64833077 1 199 C0.34 198.67 -0.32 198.34 -1 198 C-1.02334852 172.92228075 -1.0409888 147.84456313 -1.05181217 122.76683521 C-1.05697097 111.12311757 -1.06400577 99.47940667 -1.07543945 87.83569336 C-1.08539897 77.68839647 -1.09185646 67.54110446 -1.09408849 57.39380282 C-1.09539344 52.01968353 -1.09846569 46.64557821 -1.10573006 41.27146339 C-1.11251024 36.21464271 -1.11461287 31.15784179 -1.11310768 26.101017 C-1.11338311 24.24383754 -1.11537639 22.38665742 -1.11920547 20.52948189 C-1.12417388 17.99572987 -1.12298661 15.46205267 -1.12025452 12.92829895 C-1.12316736 12.19191014 -1.1260802 11.45552132 -1.12908131 10.6968177 C-1.11830599 7.00455809 -0.88212985 3.59039577 0 0 Z " fill="#424242" transform="translate(760,516)"/>
<path d="M0 0 C0 38.94 0 77.88 0 118 C-0.66 118 -1.32 118 -2 118 C-3.20593342 115.58813315 -3.12318918 114.08766923 -3.12025452 111.39364624 C-3.12162918 110.4232692 -3.12300385 109.45289215 -3.12442017 108.45310974 C-3.12082489 107.38496536 -3.11722961 106.31682098 -3.11352539 105.21630859 C-3.11367142 104.09435593 -3.11381744 102.97240326 -3.1139679 101.81645203 C-3.11326909 98.09376111 -3.10547815 94.37111972 -3.09765625 90.6484375 C-3.09579196 88.07296781 -3.09436811 85.49749776 -3.09336853 82.92202759 C-3.0899355 76.82699678 -3.08204739 70.73198653 -3.07201904 64.63696349 C-3.06085056 57.69872028 -3.0553456 50.76047624 -3.05032361 43.82222629 C-3.03986458 29.54814124 -3.02226971 15.27407126 -3 1 C-1 0 -1 0 0 0 Z " fill="#B2B2B2" transform="translate(764,520)"/>
<path d="M0 0 C89.595 0.495 89.595 0.495 181 1 C181 1.33 181 1.66 181 2 C120.94 2.33 60.88 2.66 -1 3 C-0.67 2.01 -0.34 1.02 0 0 Z " fill="#727374" transform="translate(497,798)"/>
<path d="M0 0 C0.66 0 1.32 0 2 0 C2 14.85 2 29.7 2 45 C1.01 45 0.02 45 -1 45 C-1.02467081 38.91276345 -1.04284604 32.82555583 -1.05493164 26.73828125 C-1.05996852 24.66633599 -1.06679825 22.5943943 -1.07543945 20.52246094 C-1.08753321 17.54881918 -1.09323467 14.57522431 -1.09765625 11.6015625 C-1.10281754 10.67131256 -1.10797882 9.74106262 -1.11329651 8.78262329 C-1.11337204 7.92188202 -1.11344757 7.06114075 -1.11352539 6.17431641 C-1.115746 5.41486725 -1.11796661 4.65541809 -1.12025452 3.87295532 C-1 2 -1 2 0 0 Z " fill="#B4B4B4" transform="translate(762,676)"/>
<path d="M0 0 C3.3 0 6.6 0 10 0 C10.33 0.99 10.66 1.98 11 3 C7.04 3 3.08 3 -1 3 C-0.67 2.01 -0.34 1.02 0 0 Z " fill="#B6B6B6" transform="translate(497,798)"/>
<path d="M0 0 C0.66 0 1.32 0 2 0 C2 3.96 2 7.92 2 12 C1.01 11.67 0.02 11.34 -1 11 C-0.67 7.37 -0.34 3.74 0 0 Z " fill="#39393A" transform="translate(466,583)"/>
</svg>
