<svg height="250" viewBox="0 0 250 250" width="250" xmlns="http://www.w3.org/2000/svg"><path d="m213.234375 125c0 48.730469-39.503906 88.234375-88.234375 88.234375s-88.234375-39.503906-88.234375-88.234375 39.503906-88.234375 88.234375-88.234375 88.234375 39.503906 88.234375 88.234375zm0 0" fill="#adff00"/><path d="m115.195312 123.609375v-1.621094c2.402344-2.152343 3.917969-5.273437 3.917969-8.753906v-14.21875c0-8.390625-6.804687-15.195313-15.195312-15.195313h-31.859375v82.355469h37.253906c8.664062 0 15.6875-7.023437 15.6875-15.6875v-13.726562c0-6.21875-4.136719-11.460938-9.804688-13.152344zm-31.371093-28.019531h17.644531c3.25 0 5.882812 2.632812 5.882812 5.878906v11.765625c0 3.25-2.632812 5.882813-5.882812 5.882813h-17.644531zm29.410156 52.941406c0 3.246094-2.632813 5.878906-5.882813 5.878906h-23.527343v-23.527344h23.527343c3.25 0 5.882813 2.632813 5.882813 5.882813zm29.414063-64.707031h-11.765626v11.765625h11.765626zm35.292968 23.527343v11.765626h-11.765625v35.292968h11.765625v11.765625h-23.53125v-47.058593h-11.761718v47.058593h-11.765626v-58.824219h23.527344v-23.527343h11.765625v23.527343zm0 0" fill-rule="evenodd"/></svg>