
<svg xmlns="http://www.w3.org/2000/svg" xmlns:xlink="http://www.w3.org/1999/xlink" width="250px" height="250px" viewBox="0 0 250 250" version="1.1">
<g id="surface1">
<path style=" stroke:none;fill-rule:nonzero;fill:rgb(67.843139%,100%,0%);fill-opacity:1;" d="M 213.234375 125 C 213.234375 173.730469 173.730469 213.234375 125 213.234375 C 76.269531 213.234375 36.765625 173.730469 36.765625 125 C 36.765625 76.269531 76.269531 36.765625 125 36.765625 C 173.730469 36.765625 213.234375 76.269531 213.234375 125 Z M 213.234375 125 "/>
<path style=" stroke:none;fill-rule:evenodd;fill:rgb(0%,0%,0%);fill-opacity:1;" d="M 115.195312 123.609375 L 115.195312 121.988281 C 117.597656 119.835938 119.113281 116.714844 119.113281 113.234375 L 119.113281 99.015625 C 119.113281 90.625 112.308594 83.820312 103.917969 83.820312 L 72.058594 83.820312 L 72.058594 166.175781 L 109.3125 166.175781 C 117.976562 166.175781 125 159.152344 125 150.488281 L 125 136.761719 C 125 130.542969 120.863281 125.300781 115.195312 123.609375 Z M 83.824219 95.589844 L 101.46875 95.589844 C 104.71875 95.589844 107.351562 98.222656 107.351562 101.46875 L 107.351562 113.234375 C 107.351562 116.484375 104.71875 119.117188 101.46875 119.117188 L 83.824219 119.117188 Z M 113.234375 148.53125 C 113.234375 151.777344 110.601562 154.410156 107.351562 154.410156 L 83.824219 154.410156 L 83.824219 130.882812 L 107.351562 130.882812 C 110.601562 130.882812 113.234375 133.515625 113.234375 136.765625 Z M 142.648438 83.824219 L 130.882812 83.824219 L 130.882812 95.589844 L 142.648438 95.589844 Z M 177.941406 107.351562 L 177.941406 119.117188 L 166.175781 119.117188 L 166.175781 154.410156 L 177.941406 154.410156 L 177.941406 166.175781 L 154.410156 166.175781 L 154.410156 119.117188 L 142.648438 119.117188 L 142.648438 166.175781 L 130.882812 166.175781 L 130.882812 107.351562 L 154.410156 107.351562 L 154.410156 83.824219 L 166.175781 83.824219 L 166.175781 107.351562 Z M 177.941406 107.351562 "/>
</g>
</svg>
