<svg height="250" viewBox="0 0 250 250" width="250" xmlns="http://www.w3.org/2000/svg"><path d="m250 125c0 69.035156-55.964844 125-125 125s-125-55.964844-125-125 55.964844-125 125-125 125 55.964844 125 125zm0 0" fill="#fff"/><path d="m175.25 77.5c-2-2.5-5-4.75-9.25-6.5s-10.25-2.5-17.5-2.5h-16l12.75-35.5 8.5-23.5c-8.25-1.75-17-3-26.25-3.25-1 0-1.75 0-2.5 0-1.5 0-2.5 0-4 0-63.75 2.25-114.75 54.75-114.75 118.75 0 35.5 15.75 67.5 40.25 89.25l9.5-25.75c-15.5-16.75-25-39.25-25-63.75 0-47.25 35.25-86.5 80.5-92.75 2.5-.25 4.5-.5 7-.75l-34.25 94.25 68.25-6.75c2-.5 3.75-1.5 6.25-2.5 2.25-1.25 4.5-2.75 6.75-4.75s4.25-4 6.25-6.5c2-2.25 3.25-5.25 4.5-8.25 1.25-3.25 2-6.75 2-10 0-3.5-1-6.75-3-9.25zm-29 23c-1.5 4-3.75 7-7 8.5-3.25 1.75-6.5 2.5-9.75 2.5h-12.25l8.25-22.75h12c1.5 0 2.75.25 4.25.5 1.5.5 2.5 1 3.5 2s1.5 2.25 1.75 3.5c.25 1.75 0 3.5-.75 5.75zm0 0" fill="#263238"/><path d="m160 11.5-8.75 23.5c39 11.5 67.5 47.5 67.5 90 0 51.75-42 93.75-93.75 93.75-12.75 0-25.25-2.5-36.5-7.25-2-.75-3.75-1.75-5.75-2.5l9.75-26.75h16c14.25 0 26.25-2.25 35.25-7.25 9.25-4.75 15.75-12.5 19.75-23.25 1.5-4 2-7.25 1.75-10.5-.5-3-1.25-5.5-2.5-7.5-1.5-2.25-3-3.75-5-5.25-1.75-1.25-3.25-2-5-2.5l-69.5 6.5-22.25 60.75-9 25c7 5.5 14.5 10.25 22.5 14 2 1 3.75 1.75 5.75 2.5 13.75 5.75 29 8.75 45 8.75 65.5 0 118.75-53.25 118.75-118.75-.25-53.25-35.75-98.25-84-113.25zm-50.75 125.25h14.5c1.75 0 3.25.25 5.25.5s3.25 1 4.75 1.75c1.25 1 2.25 2.25 2.5 3.75.5 1.75.25 3.75-.75 6.5s-2.5 5.25-4 7-3.5 3-5.5 3.75c-2 1-3.75 1.5-6 1.75s-3.75.5-5.5.5h-14.5zm0 0" fill="#20af65"/></svg>