
<svg xmlns="http://www.w3.org/2000/svg" xmlns:xlink="http://www.w3.org/1999/xlink" width="250px" height="250px" viewBox="0 0 250 250" version="1.1">
<g id="surface1">
<path style=" stroke:none;fill-rule:nonzero;fill:rgb(97.647059%,68.235296%,4.705882%);fill-opacity:1;" d="M 196.894531 192.664062 C 178.117188 211.445312 153.148438 221.785156 126.59375 221.785156 C 100.039062 221.785156 75.070312 211.445312 56.292969 192.664062 C 37.515625 173.886719 27.175781 148.917969 27.175781 122.363281 C 27.175781 95.808594 37.515625 70.84375 56.292969 52.066406 C 75.070312 33.285156 100.039062 22.941406 126.59375 22.941406 C 153.148438 22.941406 178.117188 33.285156 196.894531 52.066406 C 215.671875 70.84375 226.015625 95.808594 226.015625 122.363281 C 226.015625 148.917969 215.671875 173.886719 196.894531 192.664062 M 234.851562 76.628906 C 228.933594 62.636719 220.464844 50.070312 209.675781 39.28125 C 198.886719 28.496094 186.324219 20.023438 172.332031 14.105469 C 157.839844 7.976562 142.453125 4.871094 126.59375 4.871094 C 110.738281 4.871094 95.347656 7.976562 80.859375 14.105469 C 66.867188 20.023438 54.300781 28.496094 43.511719 39.28125 C 32.726562 50.070312 24.253906 62.636719 18.335938 76.628906 C 12.207031 91.117188 9.097656 106.507812 9.097656 122.363281 C 9.097656 138.222656 12.207031 153.609375 18.335938 168.101562 C 24.253906 182.097656 32.726562 194.660156 43.511719 205.445312 C 54.300781 216.234375 66.867188 224.707031 80.859375 230.621094 C 95.347656 236.753906 110.738281 239.859375 126.59375 239.859375 C 142.453125 239.859375 157.839844 236.753906 172.332031 230.621094 C 186.324219 224.707031 198.886719 216.234375 209.675781 205.445312 C 220.464844 194.660156 228.933594 182.097656 234.851562 168.101562 C 240.980469 153.609375 244.089844 138.222656 244.089844 122.363281 C 244.089844 106.507812 240.980469 91.117188 234.851562 76.628906 "/>
<path style=" stroke:none;fill-rule:nonzero;fill:rgb(97.647059%,68.235296%,4.705882%);fill-opacity:1;" d="M 162.800781 94.722656 L 137.226562 94.722656 L 137.226562 77.40625 L 162.207031 77.40625 C 166.996094 77.40625 170.894531 81.304688 170.894531 86.09375 C 170.894531 90.679688 167.308594 94.410156 162.800781 94.722656 M 185.609375 99.046875 C 187.742188 95.203125 188.96875 90.792969 188.96875 86.09375 C 188.96875 71.335938 176.964844 59.332031 162.207031 59.332031 L 137.226562 59.332031 L 137.226562 42.265625 L 119.152344 42.265625 L 119.152344 94.78125 L 100.667969 94.78125 C 75.683594 94.78125 55.359375 115.105469 55.359375 140.089844 C 55.359375 165.070312 75.683594 185.398438 100.667969 185.398438 L 119.152344 185.398438 L 119.152344 202.464844 L 137.226562 202.464844 L 137.226562 185.398438 L 161.980469 185.398438 L 161.980469 167.324219 L 100.667969 167.324219 C 85.648438 167.324219 73.433594 155.105469 73.433594 140.089844 C 73.433594 125.074219 85.648438 112.796875 100.667969 112.796875 L 119.152344 112.796875 L 119.152344 123.574219 L 137.226562 123.574219 L 137.226562 112.796875 L 171.066406 112.796875 C 175.859375 112.796875 179.757812 116.691406 179.757812 121.484375 C 179.757812 126.273438 175.859375 130.171875 171.066406 130.171875 L 93.835938 130.171875 L 93.835938 148.242188 L 119.152344 148.242188 L 119.152344 160.773438 L 137.226562 160.773438 L 137.226562 148.242188 L 171.066406 148.242188 C 185.824219 148.242188 197.828125 136.238281 197.828125 121.484375 C 197.828125 112.085938 192.953125 103.824219 185.609375 99.046875 "/>
<path style=" stroke:none;fill-rule:nonzero;fill:rgb(97.647059%,68.235296%,4.705882%);fill-opacity:1;" d="M 112.609375 59.332031 L 93.835938 59.332031 L 93.835938 77.40625 L 112.609375 77.40625 Z M 112.609375 59.332031 "/>
</g>
</svg>
