<?xml version="1.0" encoding="UTF-8"?>
<svg version="1.1" xmlns="http://www.w3.org/2000/svg" width="234" height="256">
<path d="M0 0 C77.22 0 154.44 0 234 0 C234 84.48 234 168.96 234 256 C156.78 256 79.56 256 0 256 C0 171.52 0 87.04 0 0 Z " fill="#FDFDFE" transform="translate(0,0)"/>
<path d="M0 0 C4.62799668 0.68091764 7.80952247 1.74207888 11.8671875 4.10546875 C12.98826904 4.75241699 14.10935059 5.39936523 15.2644043 6.06591797 C16.46805892 6.77290308 17.67158784 7.48010224 18.875 8.1875 C20.12559629 8.91371875 21.37666082 9.63913172 22.62817383 10.36376953 C25.81415955 12.21132128 28.99379327 14.06951435 32.17181396 15.9307251 C34.97153599 17.56823487 37.77693534 19.19593653 40.58203125 20.82421875 C45.49231777 23.67749858 50.39569696 26.54232423 55.29492188 29.41455078 C57.94006426 30.9648716 60.58706374 32.51198016 63.234375 34.05859375 C64.80219116 34.97637832 66.36990627 35.89433556 67.9375 36.8125 C68.64801514 37.22741699 69.35853027 37.64233398 70.09057617 38.06982422 C74.88488907 40.88488907 74.88488907 40.88488907 76 42 C76.09507821 44.58639038 76.12556376 47.1459856 76.11352539 49.73266602 C76.11367142 50.5423584 76.11381744 51.35205078 76.1139679 52.1862793 C76.11326854 54.87551508 76.1054751 57.56468249 76.09765625 60.25390625 C76.09579215 62.11335716 76.09436821 63.97280856 76.09336853 65.83226013 C76.08954271 70.73629096 76.07971188 75.64029236 76.06866455 80.54431152 C76.05845181 85.54451092 76.05387121 90.54471506 76.04882812 95.54492188 C76.03808967 105.36329421 76.02101248 115.18164466 76 125 C71.50906675 123.10142551 67.27145632 121.13468359 63.03515625 118.69921875 C61.91729736 118.05871582 60.79943848 117.41821289 59.64770508 116.75830078 C58.4525515 116.06818142 57.2574852 115.37791088 56.0625 114.6875 C54.81613632 113.9709531 53.56963364 113.25464794 52.32299805 112.53857422 C27.03179421 97.99517168 27.03179421 97.99517168 20.34318542 93.89241028 C17.81189362 92.45957242 15.4147606 91.28555261 12.76092529 90.13793945 C1.42202119 84.911757 1.42202119 84.911757 -0.95170021 80.05128098 C-2.38876634 74.47236248 -1.95307888 68.78561332 -1.66015625 63.0859375 C-1.62840033 61.26188421 -1.60422435 59.4376847 -1.58726501 57.61343384 C-1.52270719 52.83855357 -1.35613056 48.07263497 -1.16729736 43.30126953 C-0.9925627 38.42213234 -0.91558028 33.54152812 -0.83007812 28.66015625 C-0.64839887 19.10285742 -0.35877013 9.55217687 0 0 Z " fill="#FEFEFE" transform="translate(40,89)"/>
<path d="M0 0 C7.33698968 2.93479587 14.11265346 7.12586757 21 11 C21 38.06 21 65.12 21 93 C22.65 93.66 24.3 94.32 26 95 C27.77107373 95.9517969 29.52403791 96.9377422 31.26171875 97.94921875 C32.79711304 98.83927612 32.79711304 98.83927612 34.36352539 99.74731445 C36.00889282 100.7077063 36.00889282 100.7077063 37.6875 101.6875 C38.84281708 102.35866231 39.99833825 103.02947341 41.15405273 103.69995117 C43.56081809 105.09651685 45.96669295 106.49459993 48.37207031 107.89355469 C52.99264842 110.57881536 57.62383991 113.24543029 62.25952148 115.90454102 C64.45455275 117.17249647 66.64170249 118.45419889 68.82055664 119.74975586 C73.59824335 122.57699155 78.23225167 125.19473847 83.41015625 127.21484375 C92.52177754 130.99649408 92.52177754 130.99649408 95 135 C96.99796148 143.84186203 96.03774547 153.07632806 95 162 C91.36739655 160.63527177 88.09038593 159.0019884 84.73828125 157.05078125 C83.71541016 156.4578125 82.69253906 155.86484375 81.63867188 155.25390625 C80.54103516 154.61324219 79.44339844 153.97257813 78.3125 153.3125 C77.15059652 152.6376662 75.98848329 151.96319344 74.82617188 151.2890625 C72.4127596 149.88892911 70.0002554 148.48724981 67.58837891 147.08447266 C62.0673292 143.87508726 56.53297156 140.68877109 51 137.5 C48.85150556 136.26051536 46.70306836 135.0209315 44.5546875 133.78125 C40.6258575 131.51457181 36.69672062 129.24842761 32.76715088 126.98303223 C31.01658759 125.97380896 29.26609589 124.96446164 27.515625 123.95507812 C25.33607835 122.6983234 23.15640168 121.44179414 20.9765625 120.18554688 C19.02958229 119.06277156 17.09494535 117.91815615 15.17684937 116.74671936 C12.09027415 114.91732217 12.09027415 114.91732217 8.83560181 113.98765564 C4.88890246 112.49758861 2.78164277 111.21050733 0 108 C-2.31468873 100.27308169 -1.38805704 91.65121302 -1.171875 83.69140625 C-1.14948319 81.28006718 -1.13240651 78.86867338 -1.12042236 76.45726013 C-1.07468287 70.12151374 -0.95688374 63.78908826 -0.82397461 57.45465088 C-0.70104029 50.98650035 -0.64637439 44.51781109 -0.5859375 38.04882812 C-0.45738169 25.36447149 -0.25499695 12.68241263 0 0 Z " fill="#1958B9" transform="translate(19,78)"/>
<path d="M0 0 C0 35.64 0 71.28 0 108 C-23 121 -23 121 -25 121 C-25.53465788 107.29266435 -25.94240001 93.58783275 -26.19167995 79.87216759 C-26.31138291 73.50150981 -26.47341858 67.13801627 -26.73510742 60.77148438 C-26.98645298 54.61753852 -27.12278917 48.47044009 -27.18217659 42.31175613 C-27.22444016 39.97213422 -27.30700469 37.63285851 -27.43179131 35.29618454 C-28.1967575 20.36775288 -28.1967575 20.36775288 -25 14 C-19.45510402 8.25977374 -8.36451481 0 0 0 Z " fill="#1E5ABA" transform="translate(213,76)"/>
<path d="M0 0 C0 35.64 0 71.28 0 108 C-23 121 -23 121 -25 121 C-25.35116711 107.205323 -25.61427364 93.4113431 -25.77718258 79.61310673 C-25.85538608 73.20525409 -25.96138479 66.80040861 -26.1315918 60.39428711 C-26.29491484 54.20834941 -26.38432522 48.0252975 -26.42315865 41.83736992 C-26.45081883 39.48029565 -26.50484235 37.123375 -26.58595085 34.76753426 C-27.18121465 16.75689548 -27.18121465 16.75689548 -23.53367996 12.14667892 C-19.47594715 8.68372771 -14.93749764 6.88712946 -10 5 C-8.36824751 4.02386723 -6.756431 3.01170058 -5.1875 1.9375 C-2 0 -2 0 0 0 Z " fill="#1E5ABA" transform="translate(177,97)"/>
<path d="M0 0 C0.83144531 0.43787842 1.66289063 0.87575684 2.51953125 1.3269043 C3.37514648 1.77356445 4.23076172 2.22022461 5.11230469 2.68041992 C6.0252832 3.19282227 6.93826172 3.70522461 7.87890625 4.2331543 C8.90298584 4.80670654 9.92706543 5.38025879 10.98217773 5.97119141 C12.06700439 6.58357666 13.15183105 7.19596191 14.26953125 7.8269043 C15.39625244 8.46055908 16.52297363 9.09421387 17.68383789 9.74707031 C24.47327002 13.57609858 31.22700439 17.45787098 37.93041992 21.43530273 C44.28339761 25.20305656 50.68072335 28.89197015 57.08203125 32.5769043 C69.58927876 39.77919167 82.06085742 47.04094138 94.51953125 54.3269043 C90.97513686 58.14783163 86.60374934 60.45895494 82.14453125 63.0769043 C81.29375 63.59639648 80.44296875 64.11588867 79.56640625 64.65112305 C78.32503906 65.38008789 78.32503906 65.38008789 77.05859375 66.1237793 C76.30787598 66.57076172 75.5571582 67.01774414 74.78369141 67.47827148 C71.88672261 68.56408813 70.44984671 68.25063099 67.51953125 67.3269043 C65.22143555 66.2421875 65.22143555 66.2421875 62.84375 64.87768555 C61.94615967 64.3667334 61.04856934 63.85578125 60.1237793 63.3293457 C59.16125244 62.77166504 58.19872559 62.21398437 57.20703125 61.6394043 C55.68493042 60.76807861 55.68493042 60.76807861 54.13208008 59.87915039 C44.96104953 54.61700276 35.83196599 49.28175472 26.70703125 43.94018555 C20.22200111 40.14723074 13.71638689 36.39042108 7.20703125 32.6394043 C6.12784424 32.01751221 5.04865723 31.39562012 3.93676758 30.75488281 C1.81934399 29.53473538 -0.29808748 28.31460162 -2.41552734 27.09448242 C-9.77665436 22.84925703 -17.12829986 18.58761904 -24.48046875 14.3269043 C-22.78460425 9.2393108 -17.71887531 7.58644603 -13.23046875 5.0144043 C-12.27527344 4.43883789 -11.32007812 3.86327148 -10.3359375 3.27026367 C-8.94568359 2.46878906 -8.94568359 2.46878906 -7.52734375 1.65112305 C-6.68010742 1.15700928 -5.83287109 0.66289551 -4.95996094 0.15380859 C-2.48046875 -0.6730957 -2.48046875 -0.6730957 0 0 Z " fill="#407AD0" transform="translate(116.48046875,19.673095703125)"/>
<path d="M0 0 C3.71435895 1.09472597 6.99266316 3.01670823 10.359375 4.90625 C11.38345459 5.47980225 12.40753418 6.05335449 13.46264648 6.64428711 C14.54747314 7.25667236 15.6322998 7.86905762 16.75 8.5 C17.87672119 9.13365479 19.00344238 9.76730957 20.16430664 10.42016602 C26.95373877 14.24919428 33.70747314 18.13096668 40.41088867 22.10839844 C46.76386636 25.87615227 53.1611921 29.56506586 59.5625 33.25 C72.06974751 40.45228738 84.54132617 47.71403708 97 55 C93.45560561 58.82092733 89.08421809 61.13205064 84.625 63.75 C83.77421875 64.26949219 82.9234375 64.78898437 82.046875 65.32421875 C80.80550781 66.05318359 80.80550781 66.05318359 79.5390625 66.796875 C78.78834473 67.24385742 78.03762695 67.69083984 77.26416016 68.15136719 C74.36719136 69.23718383 72.93031546 68.92372669 70 68 C67.7019043 66.9152832 67.7019043 66.9152832 65.32421875 65.55078125 C64.42662842 65.0398291 63.52903809 64.52887695 62.60424805 64.00244141 C61.64172119 63.44476074 60.67919434 62.88708008 59.6875 62.3125 C58.16539917 61.44117432 58.16539917 61.44117432 56.61254883 60.55224609 C47.44151828 55.29009846 38.31243474 49.95485042 29.1875 44.61328125 C22.70246986 40.82032644 16.19685564 37.06351678 9.6875 33.3125 C8.60831299 32.69060791 7.52912598 32.06871582 6.41723633 31.42797852 C4.29981274 30.20783109 2.18238127 28.98769732 0.06494141 27.76757812 C-7.29618561 23.52235273 -14.64783111 19.26071474 -22 15 C-20.82011254 11.46033763 -20.23447342 11.28300868 -17.0703125 9.58984375 C-16.27496094 9.15736328 -15.47960937 8.72488281 -14.66015625 8.27929688 C-13.40525391 7.61510742 -13.40525391 7.61510742 -12.125 6.9375 C-10.48126316 6.05172269 -8.83801408 5.16503951 -7.1953125 4.27734375 C-6.09727295 3.69327759 -6.09727295 3.69327759 -4.97705078 3.09741211 C-3.26855075 2.14906589 -1.62587246 1.08391497 0 0 Z " fill="#407AD0" transform="translate(42,61)"/>
<path d="M0 0 C2.51031769 1.30143198 4.85695656 2.63646218 7.25 4.125 C8.76340695 5.04057826 10.27779574 5.95453484 11.79296875 6.8671875 C12.62103027 7.36831055 13.4490918 7.86943359 14.30224609 8.38574219 C19.35059146 11.40652586 24.46098941 14.32023652 29.5625 17.25 C39.07513653 22.72753777 48.5744301 28.22705896 58.04711914 33.7734375 C63.29629901 36.84621351 68.55686706 39.89677806 73.8359375 42.91796875 C74.95081543 43.55919678 76.06569336 44.2004248 77.21435547 44.86108398 C79.36879398 46.09967001 81.52657233 47.33246856 83.68798828 48.55883789 C84.64688965 49.11176514 85.60579102 49.66469238 86.59375 50.234375 C87.44646484 50.72131836 88.29917969 51.20826172 89.17773438 51.70996094 C90.07975586 52.34853027 90.07975586 52.34853027 91 53 C91 53.66 91 54.32 91 55 C87.64094855 57.04827851 84.26059884 59.05845836 80.875 61.0625 C79.92367187 61.64322266 78.97234375 62.22394531 77.9921875 62.82226562 C77.0640625 63.36689453 76.1359375 63.91152344 75.1796875 64.47265625 C74.33132324 64.98062744 73.48295898 65.48859863 72.60888672 66.01196289 C69.23858994 67.28836108 67.45318985 66.96691532 64 66 C61.12939453 64.63989258 61.12939453 64.63989258 58.1328125 62.89453125 C57.01245605 62.24798584 55.89209961 61.60144043 54.73779297 60.93530273 C53.53341868 60.22788901 52.32915719 59.52028322 51.125 58.8125 C49.86781736 58.08260957 48.61016059 57.35353525 47.35205078 56.62524414 C44.16283029 54.77616751 40.97993555 52.91650904 37.79907227 51.05310059 C35.1136167 49.48114882 32.42389491 47.91654749 29.734375 46.3515625 C25.83176362 44.07909468 21.93259547 41.80085615 18.03515625 39.51953125 C12.61390629 36.35094271 7.17298105 33.21735735 1.72851562 30.08886719 C-15.41160727 20.23501151 -15.41160727 20.23501151 -22.125 16.1875 C-23.09695312 15.60355469 -24.06890625 15.01960938 -25.0703125 14.41796875 C-25.70710938 13.95003906 -26.34390625 13.48210938 -27 13 C-27 12.34 -27 11.68 -27 11 C-23.64094855 8.95172149 -20.26059884 6.94154164 -16.875 4.9375 C-15.92367187 4.35677734 -14.97234375 3.77605469 -13.9921875 3.17773438 C-13.0640625 2.63310547 -12.1359375 2.08847656 -11.1796875 1.52734375 C-10.33132324 1.01937256 -9.48295898 0.51140137 -8.60888672 -0.01196289 C-5.29957282 -1.26526566 -3.38802878 -0.90070587 0 0 Z " fill="#407AD0" transform="translate(83,42)"/>
<path d="M0 0 C0.30421485 13.81218687 0.53231163 27.62385177 0.67355824 41.43870544 C0.74135855 47.85403757 0.83327907 54.26711697 0.98071289 60.68115234 C1.12215712 66.87349487 1.19973049 73.06367394 1.23340416 79.25750732 C1.25739317 81.61808342 1.3042442 83.9785432 1.37449074 86.3381958 C1.88962112 104.36175584 1.88962112 104.36175584 -1.25442886 108.75140381 C-4.70450892 111.91164348 -8.61997154 113.41978266 -13 115 C-14.74845477 115.96587954 -16.48277501 116.95888038 -18.1875 118 C-21.73355263 120 -21.73355263 120 -24 120 C-24.51119563 106.27522462 -24.90132407 92.55273249 -25.13986778 78.82035542 C-25.25440832 72.44215136 -25.40949309 66.07048445 -25.65966797 59.69604492 C-25.89990962 53.53567994 -26.03046243 47.38156787 -26.08729935 41.21687889 C-26.12775446 38.87373481 -26.2067839 36.53091036 -26.32606125 34.19045448 C-27.05772515 19.22964041 -27.05772515 19.22964041 -24 13 C-18.61416892 7.41569357 -8.10249632 0 0 0 Z " fill="#1956B8" transform="translate(141,118)"/>
<path d="M0 0 C0.33 0.66 0.66 1.32 1 2 C2.66302266 2.67570546 4.33096144 3.33929392 6 4 C9.14184968 5.64081691 12.22474922 7.38494155 15.3125 9.125 C16.14845703 9.59292969 16.98441406 10.06085938 17.84570312 10.54296875 C19.89866233 11.6926259 21.95002202 12.84503802 24 14 C24 14.33 24 14.66 24 15 C18.04603583 14.56039384 14.23751772 12.75591065 9.25 9.5625 C8.26193359 8.95051758 8.26193359 8.95051758 7.25390625 8.32617188 C4.4711676 6.59613253 1.72634595 4.81756396 -1 3 C-0.67 2.01 -0.34 1.02 0 0 Z " fill="#E1E9F6" transform="translate(19,74)"/>
<path d="M0 0 C0.66 0.66 1.32 1.32 2 2 C-4.93 5.96 -11.86 9.92 -19 14 C-19.66 13.34 -20.32 12.68 -21 12 C-14.07 8.04 -7.14 4.08 0 0 Z " fill="#D7E2F3" transform="translate(208,76)"/>
</svg>
