<svg height="250" viewBox="0 0 250 250" width="250" xmlns="http://www.w3.org/2000/svg"><g fill="#f9ae0c"><path d="m196.894531 192.664062c-18.777343 18.78125-43.746093 29.121094-70.300781 29.121094s-51.523438-10.339844-70.300781-29.121094c-18.777344-18.777343-29.117188-43.746093-29.117188-70.300781 0-26.554687 10.339844-51.519531 29.117188-70.296875 18.777343-18.78125 43.746093-29.125 70.300781-29.125s51.523438 10.34375 70.300781 29.125c18.777344 18.777344 29.121094 43.742188 29.121094 70.296875 0 26.554688-10.34375 51.523438-29.121094 70.300781m37.957031-116.035156c-5.917968-13.992187-14.386718-26.558594-25.175781-37.347656-10.789062-10.785156-23.351562-19.257812-37.34375-25.175781-14.492187-6.128907-29.878906-9.234375-45.738281-9.234375-15.855469 0-31.246094 3.105468-45.734375 9.234375-13.992187 5.917969-26.558594 14.390625-37.347656 25.175781-10.785157 10.789062-19.257813 23.355469-25.175781 37.347656-6.128907 14.488282-9.238282 29.878906-9.238282 45.734375 0 15.859375 3.109375 31.246094 9.238282 45.738281 5.917968 13.996094 14.390624 26.558594 25.175781 37.34375 10.789062 10.789063 23.355469 19.261719 37.347656 25.175782 14.488281 6.132812 29.878906 9.238281 45.734375 9.238281 15.859375 0 31.246094-3.105469 45.738281-9.238281 13.992188-5.914063 26.554688-14.386719 37.34375-25.175782 10.789063-10.785156 19.257813-23.347656 25.175781-37.34375 6.128907-14.492187 9.238282-29.878906 9.238282-45.738281 0-15.855469-3.109375-31.246093-9.238282-45.734375"/><path d="m162.800781 94.722656h-25.574219v-17.316406h24.980469c4.789063 0 8.6875 3.898438 8.6875 8.6875 0 4.585938-3.585937 8.316406-8.09375 8.628906m22.808594 4.324219c2.132813-3.84375 3.359375-8.253906 3.359375-12.953125 0-14.757812-12.003906-26.761719-26.761719-26.761719h-24.980469v-17.066406h-18.074218v52.515625h-18.484375c-24.984375 0-45.308594 20.324219-45.308594 45.308594 0 24.980468 20.324219 45.308594 45.308594 45.308594h18.484375v17.066406h18.074218v-17.066406h24.753907v-18.074219h-61.3125c-15.019531 0-27.234375-12.21875-27.234375-27.234375s12.214844-27.292969 27.234375-27.292969h18.484375v10.777344h18.074218v-10.777344h33.839844c4.792969 0 8.691406 3.894531 8.691406 8.6875 0 4.789063-3.898437 8.6875-8.691406 8.6875h-77.230468v18.070313h25.316406v12.53125h18.074218v-12.53125h33.839844c14.757813 0 26.761719-12.003907 26.761719-26.757813 0-9.398437-4.875-17.660156-12.21875-22.4375"/><path d="m112.609375 59.332031h-18.773437v18.074219h18.773437zm0 0"/></g></svg>