<svg height="250" viewBox="0 0 250 250" width="250" xmlns="http://www.w3.org/2000/svg"><path d="m250 125c0 69.035156-55.964844 125-125 125s-125-55.964844-125-125 55.964844-125 125-125 125 55.964844 125 125zm0 0" fill="#18578c"/><g fill="#fff"><path d="m112.671875 95.386719-15.757813-15.757813-17.285156 17.285156 15.757813 15.757813c3.273437-7.804687 9.480469-14.011719 17.285156-17.285156zm0 0"/><path d="m154.613281 137.328125c-3.273437 7.804687-9.480469 14.011719-17.285156 17.285156l15.757813 15.757813 17.285156-17.285156zm0 0"/><path d="m81.789062 81.789062c5.960938-5.96875 5.960938-15.636718-.003906-21.601562s-15.636718-5.964844-21.601562 0-5.964844 15.632812 0 21.601562c5.964844 5.964844 15.636718 5.964844 21.605468 0zm0 0"/><path d="m168.210938 168.210938c-5.960938 5.96875-5.960938 15.636718.003906 21.601562s15.636718 5.964844 21.601562 0 5.964844-15.632812 0-21.601562c-5.964844-5.964844-15.636718-5.964844-21.605468 0zm0 0"/><path d="m95.386719 137.328125-15.757813 15.757813 17.285156 17.285156 15.757813-15.757813c-7.804687-3.273437-14.011719-9.480469-17.285156-17.285156zm0 0"/><path d="m154.613281 112.671875 15.757813-15.757813-17.285156-17.285156-15.757813 15.757813c7.804687 3.273437 14.011719 9.480469 17.285156 17.285156zm0 0"/><path d="m189.816406 81.789062c5.964844-5.96875 5.964844-15.636718 0-21.601562s-15.636718-5.964844-21.601562 0-5.964844 15.632812-.003906 21.601562c5.96875 5.964844 15.640624 5.964844 21.605468 0zm0 0"/><path d="m60.183594 168.210938c-5.964844 5.96875-5.964844 15.636718 0 21.601562s15.636718 5.964844 21.601562 0 5.964844-15.632812.003906-21.601562c-5.96875-5.964844-15.640624-5.964844-21.605468 0zm0 0"/><path d="m93.285156 120.417969h-20.230468v9.164062h20.230468c-.492187-3.035156-.492187-6.128906 0-9.164062zm0 0"/><path d="m156.714844 129.582031h20.230468v-9.164062h-20.230468c.492187 3.035156.492187 6.128906 0 9.164062zm0 0"/><path d="m216.667969 125c0 8.4375-6.84375 15.277344-15.28125 15.277344s-15.277344-6.839844-15.277344-15.277344 6.839844-15.277344 15.277344-15.277344 15.28125 6.839844 15.28125 15.277344zm0 0"/><path d="m63.890625 125c0 8.4375-6.839844 15.277344-15.277344 15.277344s-15.28125-6.839844-15.28125-15.277344 6.84375-15.277344 15.28125-15.277344 15.277344 6.839844 15.277344 15.277344zm0 0"/><path d="m120.417969 156.714844v20.230468h9.164062v-20.230468c-3.035156.492187-6.128906.492187-9.164062 0zm0 0"/><path d="m129.582031 93.285156v-20.230468h-9.164062v20.230468c3.035156-.492187 6.128906-.492187 9.164062 0zm0 0"/><path d="m140.277344 48.613281c0 8.4375-6.839844 15.277344-15.277344 15.277344s-15.277344-6.839844-15.277344-15.277344 6.839844-15.28125 15.277344-15.28125 15.277344 6.84375 15.277344 15.28125zm0 0"/><path d="m140.277344 201.386719c0 8.4375-6.839844 15.28125-15.277344 15.28125s-15.277344-6.84375-15.277344-15.28125 6.839844-15.277344 15.277344-15.277344 15.277344 6.839844 15.277344 15.277344zm0 0"/><path d="m147.917969 125c0 12.65625-10.261719 22.917969-22.917969 22.917969s-22.917969-10.261719-22.917969-22.917969 10.261719-22.917969 22.917969-22.917969 22.917969 10.261719 22.917969 22.917969zm0 0"/></g></svg>