<svg height="250" viewBox="0 0 250 250" width="250" xmlns="http://www.w3.org/2000/svg"><path d="m250 125c0 69.035156-55.964844 125-125 125s-125-55.964844-125-125 55.964844-125 125-125 125 55.964844 125 125zm0 0" fill="#fff"/><g fill="#004f9e"><path d="m205.832031 79.1875h-161.664062v22.554688h9.769531l-3.027344 80.734374h-6.742187v11.28125h161.664062v-11.273437h-8.757812l-3.027344-80.734375h11.785156zm-99.242187 103.273438h-18.847656l-3.03125-80.695313h24.933593zm55.597656 0h-18.847656l-3.027344-80.695313h24.9375zm0 0"/><path d="m125 32.097656-60.289062 35.8125h120.578124zm0 0"/></g></svg>