
<svg xmlns="http://www.w3.org/2000/svg" xmlns:xlink="http://www.w3.org/1999/xlink" width="250px" height="250px" viewBox="0 0 250 250" version="1.1">
<g id="surface1">
<path style=" stroke:none;fill-rule:nonzero;fill:rgb(100%,100%,100%);fill-opacity:1;" d="M 250 125 C 250 194.035156 194.035156 250 125 250 C 55.964844 250 0 194.035156 0 125 C 0 55.964844 55.964844 0 125 0 C 194.035156 0 250 55.964844 250 125 Z M 250 125 "/>
<path style=" stroke:none;fill-rule:nonzero;fill:rgb(0%,30.980393%,61.960787%);fill-opacity:1;" d="M 205.832031 79.1875 L 44.167969 79.1875 L 44.167969 101.742188 L 53.9375 101.742188 L 50.910156 182.476562 L 44.167969 182.476562 L 44.167969 193.757812 L 205.832031 193.757812 L 205.832031 182.484375 L 197.074219 182.484375 L 194.046875 101.75 L 205.832031 101.75 Z M 106.589844 182.460938 L 87.742188 182.460938 L 84.710938 101.765625 L 109.644531 101.765625 Z M 162.1875 182.460938 L 143.339844 182.460938 L 140.3125 101.765625 L 165.25 101.765625 Z M 162.1875 182.460938 "/>
<path style=" stroke:none;fill-rule:nonzero;fill:rgb(0%,30.980393%,61.960787%);fill-opacity:1;" d="M 125 32.097656 L 64.710938 67.910156 L 185.289062 67.910156 Z M 125 32.097656 "/>
</g>
</svg>
