<?xml version="1.0" encoding="UTF-8"?>
<!DOCTYPE svg PUBLIC "-//W3C//DTD SVG 1.1//EN" "http://www.w3.org/Graphics/SVG/1.1/DTD/svg11.dtd">
<svg xmlns="http://www.w3.org/2000/svg" version="1.1" width="200px" height="200px" style="shape-rendering:geometricPrecision; text-rendering:geometricPrecision; image-rendering:optimizeQuality; fill-rule:evenodd; clip-rule:evenodd" xmlns:xlink="http://www.w3.org/1999/xlink">
<g><path style="opacity:1" fill="#031e3a" d="M 89.5,-0.5 C 96.1667,-0.5 102.833,-0.5 109.5,-0.5C 130.892,2.52698 149.892,11.027 166.5,25C 171.49,29.1436 175.49,33.9769 178.5,39.5C 176.532,38.181 174.532,38.181 172.5,39.5C 171.5,39 170.5,38.5 169.5,38C 169.833,37.6667 170.167,37.3333 170.5,37C 168.231,36.2419 166.064,36.4086 164,37.5C 163.308,36.9747 162.808,36.3081 162.5,35.5C 163.871,32.6736 162.871,31.1736 159.5,31C 162.937,30.3507 163.104,29.8507 160,29.5C 159.167,29.6667 158.333,29.8333 157.5,30C 158.258,31.3639 157.758,32.5305 156,33.5C 155.703,30.136 153.869,28.8026 150.5,29.5C 149.167,29.6667 147.833,29.8333 146.5,30C 145.167,30.6667 145.167,31.3333 146.5,32C 142.911,32.2069 139.411,32.7069 136,33.5C 134.733,31.0931 134.233,28.7598 134.5,26.5C 133.311,25.5713 131.978,25.238 130.5,25.5C 130.688,27.1033 130.188,28.4366 129,29.5C 127.333,28.1667 125.667,28.1667 124,29.5C 122.812,28.4366 122.312,27.1033 122.5,25.5C 118.119,25.6282 113.785,25.2949 109.5,24.5C 109.354,26.9424 110.187,27.6091 112,26.5C 112.5,27 113,27.5 113.5,28C 111.421,28.8077 109.421,28.641 107.5,27.5C 108.815,26.1054 108.481,25.1054 106.5,24.5C 105.949,26.4132 105.782,28.4132 106,30.5C 104.272,25.9314 102.772,21.2647 101.5,16.5C 101.167,16.8333 100.833,17.1667 100.5,17.5C 101.924,22.1165 102.758,26.7831 103,31.5C 100.387,26.7226 98.3869,26.7226 97,31.5C 96.6664,29.1527 96.833,26.8194 97.5,24.5C 95.4159,25.2483 93.4159,25.2483 91.5,24.5C 89.6503,25.2418 88.9836,26.2418 89.5,27.5C 88.8333,26.8333 88.1667,26.1667 87.5,25.5C 86.1473,27.7379 84.1473,29.0713 81.5,29.5C 79.8333,28.1667 78.1667,28.1667 76.5,29.5C 75.4593,27.0087 74.6259,27.0087 74,29.5C 73.6667,28.5 73.3333,27.5 73,26.5C 70.1821,32.1665 66.0154,33.4998 60.5,30.5C 59.0389,32.0836 57.2056,33.417 55,34.5C 54.5,34.1667 54,33.8333 53.5,33.5C 54.1667,32.8333 54.8333,32.1667 55.5,31.5C 55,31.1667 54.5,30.8333 54,30.5C 50.8662,33.2684 47.6996,33.6017 44.5,31.5C 43.0569,35.1768 40.8902,35.1768 38,31.5C 36.6988,32.0981 35.8655,33.0981 35.5,34.5C 36.6405,35.4255 36.6405,36.2588 35.5,37C 33.5,37.3333 31.5,37.6667 29.5,38C 31.8907,38.2868 34.2241,38.7868 36.5,39.5C 37.086,39.2907 37.586,38.9574 38,38.5C 39.4907,40.0037 41.324,40.8371 43.5,41C 42.1456,42.2937 40.8123,42.4604 39.5,41.5C 36.3205,43.4238 35.9872,45.5904 38.5,48C 37.6634,49.0113 37.33,50.1779 37.5,51.5C 36.1779,51.33 35.0113,51.6634 34,52.5C 32.4367,55.5857 30.6033,58.5857 28.5,61.5C 29.6888,62.4287 31.0222,62.762 32.5,62.5C 32.238,61.0222 32.5713,59.6888 33.5,58.5C 37.5436,55.4575 40.8769,51.7908 43.5,47.5C 48.5333,46.7447 53.5333,45.7447 58.5,44.5C 59.7133,44.7472 60.38,45.4138 60.5,46.5C 47.8878,47.4688 38.5545,53.4688 32.5,64.5C 31.4274,63.3421 30.2607,63.3421 29,64.5C 27.7387,64.2409 26.7387,63.5742 26,62.5C 25.7475,59.1178 24.9141,55.9511 23.5,53C 24.114,50.8312 24.4473,48.6646 24.5,46.5C 24.1667,46.1667 23.8333,45.8333 23.5,45.5C 22.8333,46.5 22.1667,47.5 21.5,48.5C 20.1667,48.8333 18.8333,49.1667 17.5,49.5C 16.8281,48.0508 16.1614,46.7175 15.5,45.5C 33.2121,19.1472 57.8787,3.81383 89.5,-0.5 Z"/></g>
<g><path style="opacity:1" fill="#032141" d="M 178.5,39.5 C 181.605,42.2749 183.938,45.6082 185.5,49.5C 185.529,52.7732 184.196,53.4398 181.5,51.5C 179.305,53.917 176.972,54.0836 174.5,52C 171.5,51.3333 168.5,51.3333 165.5,52C 166.025,52.6924 166.692,53.1924 167.5,53.5C 169.987,53.2176 172.653,53.2176 175.5,53.5C 175.5,54.8333 175.5,56.1667 175.5,57.5C 177.346,57.2222 178.68,57.8888 179.5,59.5C 174.696,59.6129 172.029,61.9463 171.5,66.5C 170.5,66.5 169.5,66.5 168.5,66.5C 169.74,65.027 170.74,63.3604 171.5,61.5C 168.554,60.3452 165.554,60.1786 162.5,61C 160.292,65.0525 158.625,69.2192 157.5,73.5C 157.149,69.4714 157.815,65.638 159.5,62C 156.547,56.5833 157.547,55.5833 162.5,59C 165.882,59.8236 169.216,59.657 172.5,58.5C 167.632,57.2953 162.965,55.2953 158.5,52.5C 156.921,47.6561 156.088,42.6561 156,37.5C 155.517,38.448 155.351,39.448 155.5,40.5C 149.792,40.5076 149.459,40.0076 154.5,39C 152.833,38.6667 151.167,38.3333 149.5,38C 149.273,36.8647 148.94,35.698 148.5,34.5C 146.914,36.1727 146.247,38.1727 146.5,40.5C 143.856,40.1601 141.523,40.8267 139.5,42.5C 137.844,40.9776 136.677,41.311 136,43.5C 135.517,42.552 135.351,41.552 135.5,40.5C 119.36,39.9711 103.36,39.9711 87.5,40.5C 87.5,41.5 87.5,42.5 87.5,43.5C 80.6168,41.8874 73.6168,40.8874 66.5,40.5C 66.3505,41.552 66.5172,42.552 67,43.5C 68.8841,41.4237 71.0508,41.0903 73.5,42.5C 71.4138,43.4887 69.7471,44.822 68.5,46.5C 65.8333,46.5 63.1667,46.5 60.5,46.5C 60.38,45.4138 59.7133,44.7472 58.5,44.5C 53.5333,45.7447 48.5333,46.7447 43.5,47.5C 40.8769,51.7908 37.5436,55.4575 33.5,58.5C 32.5713,59.6888 32.238,61.0222 32.5,62.5C 31.0222,62.762 29.6888,62.4287 28.5,61.5C 30.6033,58.5857 32.4367,55.5857 34,52.5C 35.0113,51.6634 36.1779,51.33 37.5,51.5C 37.33,50.1779 37.6634,49.0113 38.5,48C 35.9872,45.5904 36.3205,43.4238 39.5,41.5C 40.8123,42.4604 42.1456,42.2937 43.5,41C 41.324,40.8371 39.4907,40.0037 38,38.5C 37.586,38.9574 37.086,39.2907 36.5,39.5C 34.2241,38.7868 31.8907,38.2868 29.5,38C 31.5,37.6667 33.5,37.3333 35.5,37C 36.6405,36.2588 36.6405,35.4255 35.5,34.5C 35.8655,33.0981 36.6988,32.0981 38,31.5C 40.8902,35.1768 43.0569,35.1768 44.5,31.5C 47.6996,33.6017 50.8662,33.2684 54,30.5C 54.5,30.8333 55,31.1667 55.5,31.5C 54.8333,32.1667 54.1667,32.8333 53.5,33.5C 54,33.8333 54.5,34.1667 55,34.5C 57.2056,33.417 59.0389,32.0836 60.5,30.5C 66.0154,33.4998 70.1821,32.1665 73,26.5C 73.3333,27.5 73.6667,28.5 74,29.5C 74.6259,27.0087 75.4593,27.0087 76.5,29.5C 78.1667,28.1667 79.8333,28.1667 81.5,29.5C 84.1473,29.0713 86.1473,27.7379 87.5,25.5C 88.1667,26.1667 88.8333,26.8333 89.5,27.5C 88.9836,26.2418 89.6503,25.2418 91.5,24.5C 93.4159,25.2483 95.4159,25.2483 97.5,24.5C 96.833,26.8194 96.6664,29.1527 97,31.5C 98.3869,26.7226 100.387,26.7226 103,31.5C 102.758,26.7831 101.924,22.1165 100.5,17.5C 100.833,17.1667 101.167,16.8333 101.5,16.5C 102.772,21.2647 104.272,25.9314 106,30.5C 105.782,28.4132 105.949,26.4132 106.5,24.5C 108.481,25.1054 108.815,26.1054 107.5,27.5C 109.421,28.641 111.421,28.8077 113.5,28C 113,27.5 112.5,27 112,26.5C 110.187,27.6091 109.354,26.9424 109.5,24.5C 113.785,25.2949 118.119,25.6282 122.5,25.5C 122.312,27.1033 122.812,28.4366 124,29.5C 125.667,28.1667 127.333,28.1667 129,29.5C 130.188,28.4366 130.688,27.1033 130.5,25.5C 131.978,25.238 133.311,25.5713 134.5,26.5C 134.233,28.7598 134.733,31.0931 136,33.5C 139.411,32.7069 142.911,32.2069 146.5,32C 145.167,31.3333 145.167,30.6667 146.5,30C 147.833,29.8333 149.167,29.6667 150.5,29.5C 153.869,28.8026 155.703,30.136 156,33.5C 157.758,32.5305 158.258,31.3639 157.5,30C 158.333,29.8333 159.167,29.6667 160,29.5C 163.104,29.8507 162.937,30.3507 159.5,31C 162.871,31.1736 163.871,32.6736 162.5,35.5C 162.808,36.3081 163.308,36.9747 164,37.5C 166.064,36.4086 168.231,36.2419 170.5,37C 170.167,37.3333 169.833,37.6667 169.5,38C 170.5,38.5 171.5,39 172.5,39.5C 174.532,38.181 176.532,38.181 178.5,39.5 Z"/></g>
<g><path style="opacity:1" fill="#052349" d="M 157.5,73.5 C 156.545,75.7457 155.878,78.079 155.5,80.5C 156.292,81.9669 156.292,83.3002 155.5,84.5C 153.941,83.5535 152.274,82.8868 150.5,82.5C 149.287,82.7472 148.62,83.4138 148.5,84.5C 141.568,87.0174 138.735,92.0174 140,99.5C 143.038,102.019 142.872,104.519 139.5,107C 137.866,107.494 136.199,107.66 134.5,107.5C 135.407,100.627 137.074,93.9602 139.5,87.5C 142.201,81.0695 144.534,74.4029 146.5,67.5C 146.5,67.1667 146.5,66.8333 146.5,66.5C 147.404,65.791 147.737,64.791 147.5,63.5C 144.287,63.19 141.287,63.5233 138.5,64.5C 136.598,68.6553 134.931,72.9886 133.5,77.5C 132.709,75.6907 132.709,73.6907 133.5,71.5C 130.14,72.2096 128.307,70.8762 128,67.5C 127.667,67.8333 127.333,68.1667 127,68.5C 126.167,67.5 125.333,66.5 124.5,65.5C 122.883,65.6694 121.216,66.0028 119.5,66.5C 120.689,67.4287 122.022,67.762 123.5,67.5C 122.843,70.3221 122.51,72.9888 122.5,75.5C 120.659,73.4883 119.659,71.155 119.5,68.5C 117.692,68.5086 116.025,68.0086 114.5,67C 115.784,66.3162 116.951,66.4829 118,67.5C 118.44,65.9238 119.273,64.5904 120.5,63.5C 115.847,61.8061 111.181,61.4728 106.5,62.5C 106.166,64.5447 105.832,66.2114 105.5,67.5C 104.575,66.3595 103.741,66.3595 103,67.5C 102.798,65.7444 102.298,64.0777 101.5,62.5C 100.511,66.1073 100.177,69.774 100.5,73.5C 101.978,73.238 103.311,73.5713 104.5,74.5C 102.604,75.4656 100.604,75.7989 98.5,75.5C 98.8047,70.2384 98.4714,65.0717 97.5,60C 98.3333,59.1667 99.1667,58.3333 100,57.5C 102.919,58.1923 105.919,59.1923 109,60.5C 112.423,60.3244 113.089,58.9911 111,56.5C 110.361,59.2277 109.194,59.7277 107.5,58C 105.527,57.5045 103.527,57.3379 101.5,57.5C 101.799,55.396 101.466,53.396 100.5,51.5C 99.2619,53.6374 97.4286,54.9707 95,55.5C 91.5094,53.8919 88.0094,52.7252 84.5,52C 86.4641,53.451 87.7974,55.2843 88.5,57.5C 82.836,51.9506 76.1693,48.2839 68.5,46.5C 69.7471,44.822 71.4138,43.4887 73.5,42.5C 71.0508,41.0903 68.8841,41.4237 67,43.5C 66.5172,42.552 66.3505,41.552 66.5,40.5C 73.6168,40.8874 80.6168,41.8874 87.5,43.5C 87.5,42.5 87.5,41.5 87.5,40.5C 103.36,39.9711 119.36,39.9711 135.5,40.5C 135.351,41.552 135.517,42.552 136,43.5C 136.677,41.311 137.844,40.9776 139.5,42.5C 141.523,40.8267 143.856,40.1601 146.5,40.5C 146.247,38.1727 146.914,36.1727 148.5,34.5C 148.94,35.698 149.273,36.8647 149.5,38C 151.167,38.3333 152.833,38.6667 154.5,39C 149.459,40.0076 149.792,40.5076 155.5,40.5C 155.351,39.448 155.517,38.448 156,37.5C 156.088,42.6561 156.921,47.6561 158.5,52.5C 162.965,55.2953 167.632,57.2953 172.5,58.5C 169.216,59.657 165.882,59.8236 162.5,59C 157.547,55.5833 156.547,56.5833 159.5,62C 157.815,65.638 157.149,69.4714 157.5,73.5 Z"/></g>
<g><path style="opacity:1" fill="#04224b" d="M 185.5,49.5 C 188.061,53.1579 190.061,57.1579 191.5,61.5C 190.357,61.2072 189.023,61.2072 187.5,61.5C 188.5,62.3333 189.5,63.1667 190.5,64C 186.815,64.741 186.149,66.241 188.5,68.5C 188.192,69.3081 187.692,69.9747 187,70.5C 185.007,68.6218 182.841,68.2885 180.5,69.5C 183.894,70.4302 184.061,72.0969 181,74.5C 180.077,73.2412 179.243,71.9079 178.5,70.5C 177.516,73.4281 177.183,76.4281 177.5,79.5C 176.5,79.5 175.5,79.5 174.5,79.5C 174.5,81.8333 174.5,84.1667 174.5,86.5C 176.143,86.5198 177.476,85.8532 178.5,84.5C 181.29,86.3328 180.957,87.3328 177.5,87.5C 177.5,89.1667 177.5,90.8333 177.5,92.5C 176.5,92.5 175.5,92.5 174.5,92.5C 175.157,89.1592 173.824,87.1592 170.5,86.5C 171.624,81.3779 172.791,76.0446 174,70.5C 175.999,68.5065 177.499,66.1732 178.5,63.5C 177.311,62.5713 175.978,62.238 174.5,62.5C 172.989,65.7445 171.322,69.0778 169.5,72.5C 170.645,73.891 170.645,75.2243 169.5,76.5C 168.646,75.0521 167.646,73.7187 166.5,72.5C 167.456,70.9246 168.123,69.258 168.5,67.5C 168.5,67.1667 168.5,66.8333 168.5,66.5C 169.5,66.5 170.5,66.5 171.5,66.5C 172.029,61.9463 174.696,59.6129 179.5,59.5C 178.68,57.8888 177.346,57.2222 175.5,57.5C 175.5,56.1667 175.5,54.8333 175.5,53.5C 172.653,53.2176 169.987,53.2176 167.5,53.5C 166.692,53.1924 166.025,52.6924 165.5,52C 168.5,51.3333 171.5,51.3333 174.5,52C 176.972,54.0836 179.305,53.917 181.5,51.5C 184.196,53.4398 185.529,52.7732 185.5,49.5 Z"/></g>
<g><path style="opacity:1" fill="#f5f6f5" d="M 60.5,46.5 C 63.1667,46.5 65.8333,46.5 68.5,46.5C 76.1693,48.2839 82.836,51.9506 88.5,57.5C 92.9529,63.0231 94.6195,69.3564 93.5,76.5C 92.223,85.7322 87.8897,93.0655 80.5,98.5C 79.3569,98.9081 78.3569,99.5748 77.5,100.5C 87.4207,108.391 89.0874,117.725 82.5,128.5C 79.7266,130.43 77.0599,132.597 74.5,135C 73.2161,135.684 72.0495,135.517 71,134.5C 70.6667,135.5 70.3333,136.5 70,137.5C 69.6322,136.09 68.7989,135.09 67.5,134.5C 66.1687,135.166 64.6687,135.166 63,134.5C 60.2439,134.424 59.0772,135.757 59.5,138.5C 58.1266,138.657 56.7932,138.49 55.5,138C 57.388,135.046 60.0547,133.046 63.5,132C 64.2524,131.329 64.5858,130.496 64.5,129.5C 69.2129,123.696 71.5463,117.029 71.5,109.5C 71.982,105.766 70.6486,102.933 67.5,101C 63.5577,100.007 59.5577,99.3404 55.5,99C 53.9393,95.6152 54.606,94.9486 57.5,97C 60.1667,97.6667 62.8333,97.6667 65.5,97C 67.3451,95.5771 69.3451,94.4104 71.5,93.5C 72.5498,92.5712 72.5498,91.9046 71.5,91.5C 73.6037,89.6282 74.937,87.2948 75.5,84.5C 78.9854,79.467 80.3187,73.8003 79.5,67.5C 79.0113,66.0048 78.3446,64.6715 77.5,63.5C 77.5,63.1667 77.5,62.8333 77.5,62.5C 75.2028,58.7133 71.8695,56.2133 67.5,55C 62.8333,54.3333 58.1667,54.3333 53.5,55C 50.2088,55.7531 47.5421,57.4198 45.5,60C 50.8283,67.6897 48.995,72.8564 40,75.5C 34.5227,73.8571 32.0227,70.1904 32.5,64.5C 38.5545,53.4688 47.8878,47.4688 60.5,46.5 Z"/></g>
<g><path style="opacity:1" fill="#eeefee" d="M 168.5,66.5 C 168.5,66.8333 168.5,67.1667 168.5,67.5C 165.863,70.9887 163.363,74.6553 161,78.5C 159.556,80.1554 157.722,80.822 155.5,80.5C 155.878,78.079 156.545,75.7457 157.5,73.5C 158.625,69.2192 160.292,65.0525 162.5,61C 165.554,60.1786 168.554,60.3452 171.5,61.5C 170.74,63.3604 169.74,65.027 168.5,66.5 Z"/></g>
<g><path style="opacity:1" fill="#062651" d="M 133.5,77.5 C 132.766,78.7079 132.433,80.0413 132.5,81.5C 130.302,86.3819 127.635,91.0486 124.5,95.5C 122.631,93.3647 121.964,90.6981 122.5,87.5C 124.638,87.297 126.305,86.297 127.5,84.5C 128.489,80.8927 128.823,77.226 128.5,73.5C 127.5,73.5 126.5,73.5 125.5,73.5C 124.758,77.1249 124.591,80.7916 125,84.5C 123.682,81.3951 121.848,78.5618 119.5,76C 117.833,75.8333 116.167,75.6667 114.5,75.5C 110.537,77.5641 106.203,78.8974 101.5,79.5C 103.743,80.4742 106.076,80.8076 108.5,80.5C 106.302,81.1653 103.969,81.8319 101.5,82.5C 102.689,83.4287 104.022,83.762 105.5,83.5C 100.5,86.5 96.5,90.5 93.5,95.5C 92.5178,96.1408 91.5178,96.8075 90.5,97.5C 90.1667,97.1667 89.8333,96.8333 89.5,96.5C 92.534,93.1278 95.2007,89.4611 97.5,85.5C 95.952,85.7877 94.2853,85.7877 92.5,85.5C 94.3215,82.4737 94.6548,79.4737 93.5,76.5C 94.6195,69.3564 92.9529,63.0231 88.5,57.5C 87.7974,55.2843 86.4641,53.451 84.5,52C 88.0094,52.7252 91.5094,53.8919 95,55.5C 97.4286,54.9707 99.2619,53.6374 100.5,51.5C 101.466,53.396 101.799,55.396 101.5,57.5C 103.527,57.3379 105.527,57.5045 107.5,58C 109.194,59.7277 110.361,59.2277 111,56.5C 113.089,58.9911 112.423,60.3244 109,60.5C 105.919,59.1923 102.919,58.1923 100,57.5C 99.1667,58.3333 98.3333,59.1667 97.5,60C 98.4714,65.0717 98.8047,70.2384 98.5,75.5C 100.604,75.7989 102.604,75.4656 104.5,74.5C 103.311,73.5713 101.978,73.238 100.5,73.5C 100.177,69.774 100.511,66.1073 101.5,62.5C 102.298,64.0777 102.798,65.7444 103,67.5C 103.741,66.3595 104.575,66.3595 105.5,67.5C 105.832,66.2114 106.166,64.5447 106.5,62.5C 111.181,61.4728 115.847,61.8061 120.5,63.5C 119.273,64.5904 118.44,65.9238 118,67.5C 116.951,66.4829 115.784,66.3162 114.5,67C 116.025,68.0086 117.692,68.5086 119.5,68.5C 119.659,71.155 120.659,73.4883 122.5,75.5C 122.51,72.9888 122.843,70.3221 123.5,67.5C 122.022,67.762 120.689,67.4287 119.5,66.5C 121.216,66.0028 122.883,65.6694 124.5,65.5C 125.333,66.5 126.167,67.5 127,68.5C 127.333,68.1667 127.667,67.8333 128,67.5C 128.307,70.8762 130.14,72.2096 133.5,71.5C 132.709,73.6907 132.709,75.6907 133.5,77.5 Z"/></g>
<g><path style="opacity:1" fill="#82849c" d="M 138.5,64.5 C 141.287,63.5233 144.287,63.19 147.5,63.5C 147.737,64.791 147.404,65.791 146.5,66.5C 144.721,64.6565 142.388,63.9898 139.5,64.5C 139.167,64.5 138.833,64.5 138.5,64.5 Z"/></g>
<g><path style="opacity:1" fill="#e3e3e8" d="M 138.5,64.5 C 138.833,64.5 139.167,64.5 139.5,64.5C 139.804,65.1499 140.137,65.8165 140.5,66.5C 138.629,69.2341 137.629,72.2341 137.5,75.5C 139.143,75.4802 140.476,76.1468 141.5,77.5C 142.167,74.5 142.833,71.5 143.5,68.5C 144.417,67.8728 145.417,67.5394 146.5,67.5C 144.534,74.4029 142.201,81.0695 139.5,87.5C 139.5,84.5 139.5,81.5 139.5,78.5C 137.891,78.0941 136.557,78.0941 135.5,78.5C 137.339,80.5271 137.839,82.8604 137,85.5C 135.883,84.0506 135.216,82.3839 135,80.5C 134.329,81.2524 133.496,81.5858 132.5,81.5C 132.433,80.0413 132.766,78.7079 133.5,77.5C 134.931,72.9886 136.598,68.6553 138.5,64.5 Z"/></g>
<g><path style="opacity:1" fill="#fafbf2" d="M 139.5,64.5 C 142.388,63.9898 144.721,64.6565 146.5,66.5C 146.5,66.8333 146.5,67.1667 146.5,67.5C 145.417,67.5394 144.417,67.8728 143.5,68.5C 142.833,71.5 142.167,74.5 141.5,77.5C 140.476,76.1468 139.143,75.4802 137.5,75.5C 137.629,72.2341 138.629,69.2341 140.5,66.5C 140.137,65.8165 139.804,65.1499 139.5,64.5 Z"/></g>
<g><path style="opacity:0.996" fill="#082447" d="M 191.5,61.5 C 197.152,73.4372 199.486,86.1039 198.5,99.5C 199.528,113.691 196.862,127.025 190.5,139.5C 190.824,135.445 190.491,131.445 189.5,127.5C 189.716,131.386 189.383,135.386 188.5,139.5C 188.167,139.833 187.833,140.167 187.5,140.5C 186.354,126.032 184.688,126.032 182.5,140.5C 182.167,138.5 181.833,136.5 181.5,134.5C 181.556,131.035 182.556,128.035 184.5,125.5C 184.5,124.5 184.5,123.5 184.5,122.5C 186.927,119.776 189.927,117.776 193.5,116.5C 191.955,115.548 190.288,115.215 188.5,115.5C 188.5,114.167 188.5,112.833 188.5,111.5C 185.402,111.587 185.068,111.087 187.5,110C 185.58,108.584 183.913,109.084 182.5,111.5C 183.5,112.333 184.5,113.167 185.5,114C 183.606,115.079 183.273,116.413 184.5,118C 182.374,118.898 180.374,120.065 178.5,121.5C 179.814,117.54 179.814,113.54 178.5,109.5C 182.303,107.986 186.303,106.986 190.5,106.5C 186.893,105.511 183.226,105.177 179.5,105.5C 181.564,103.438 183.231,101.105 184.5,98.5C 184.167,97.8333 183.833,97.1667 183.5,96.5C 180.214,98.4512 177.214,100.785 174.5,103.5C 172.705,98.3651 169.705,94.0317 165.5,90.5C 168.425,87.6628 169.925,84.3294 170,80.5C 166.552,78.0116 163.552,78.6782 161,82.5C 158.952,85.8127 157.952,89.4794 158,93.5C 149.4,102.099 147.566,100.766 152.5,89.5C 152.253,86.9233 150.919,85.2567 148.5,84.5C 148.62,83.4138 149.287,82.7472 150.5,82.5C 152.274,82.8868 153.941,83.5535 155.5,84.5C 156.292,83.3002 156.292,81.9669 155.5,80.5C 157.722,80.822 159.556,80.1554 161,78.5C 163.363,74.6553 165.863,70.9887 168.5,67.5C 168.123,69.258 167.456,70.9246 166.5,72.5C 167.646,73.7187 168.646,75.0521 169.5,76.5C 170.645,75.2243 170.645,73.891 169.5,72.5C 171.322,69.0778 172.989,65.7445 174.5,62.5C 175.978,62.238 177.311,62.5713 178.5,63.5C 177.499,66.1732 175.999,68.5065 174,70.5C 172.791,76.0446 171.624,81.3779 170.5,86.5C 173.824,87.1592 175.157,89.1592 174.5,92.5C 175.5,92.5 176.5,92.5 177.5,92.5C 177.5,90.8333 177.5,89.1667 177.5,87.5C 180.957,87.3328 181.29,86.3328 178.5,84.5C 177.476,85.8532 176.143,86.5198 174.5,86.5C 174.5,84.1667 174.5,81.8333 174.5,79.5C 175.5,79.5 176.5,79.5 177.5,79.5C 177.183,76.4281 177.516,73.4281 178.5,70.5C 179.243,71.9079 180.077,73.2412 181,74.5C 184.061,72.0969 183.894,70.4302 180.5,69.5C 182.841,68.2885 185.007,68.6218 187,70.5C 187.692,69.9747 188.192,69.3081 188.5,68.5C 186.149,66.241 186.815,64.741 190.5,64C 189.5,63.1667 188.5,62.3333 187.5,61.5C 189.023,61.2072 190.357,61.2072 191.5,61.5 Z"/></g>
<g><path style="opacity:1" fill="#0e2a4b" d="M 124.5,95.5 C 123.188,97.4788 121.521,99.1455 119.5,100.5C 119.968,95.552 119.468,90.552 118,85.5C 115.096,83.7732 111.93,83.1065 108.5,83.5C 110.903,82.8692 113.236,81.8692 115.5,80.5C 113.282,79.9426 110.949,79.9426 108.5,80.5C 106.076,80.8076 103.743,80.4742 101.5,79.5C 106.203,78.8974 110.537,77.5641 114.5,75.5C 116.167,75.6667 117.833,75.8333 119.5,76C 121.848,78.5618 123.682,81.3951 125,84.5C 124.591,80.7916 124.758,77.1249 125.5,73.5C 126.5,73.5 127.5,73.5 128.5,73.5C 128.823,77.226 128.489,80.8927 127.5,84.5C 126.305,86.297 124.638,87.297 122.5,87.5C 121.964,90.6981 122.631,93.3647 124.5,95.5 Z"/></g>
<g><path style="opacity:1" fill="#072b44" d="M 77.5,63.5 C 78.3446,64.6715 79.0113,66.0048 79.5,67.5C 77.6609,69.9443 75.6609,72.4443 73.5,75C 75.379,76.9973 75.7123,79.164 74.5,81.5C 73.7568,80.0921 72.9234,78.7588 72,77.5C 71.7811,78.938 71.2811,80.2713 70.5,81.5C 69.3546,79.3652 69.3546,77.1986 70.5,75C 73.6706,71.6246 76.0039,67.7912 77.5,63.5 Z"/></g>
<g><path style="opacity:1" fill="#0e2b49" d="M 71.5,69.5 C 68.9285,73.8683 66.9285,78.535 65.5,83.5C 68.0677,84.8676 70.4011,84.5342 72.5,82.5C 73.2652,83.6119 74.2652,84.2786 75.5,84.5C 74.937,87.2948 73.6037,89.6282 71.5,91.5C 71.1667,91.5 70.8333,91.5 70.5,91.5C 70.5,89.8333 70.5,88.1667 70.5,86.5C 67.6802,86.7525 65.0135,86.2525 62.5,85C 61.6634,83.9887 61.33,82.8221 61.5,81.5C 62.5,81.5 63.5,81.5 64.5,81.5C 64.3305,79.088 64.9972,76.9214 66.5,75C 66.4301,74.2352 66.0967,73.7352 65.5,73.5C 67.1475,71.6736 69.1475,70.3403 71.5,69.5 Z"/></g>
<g><path style="opacity:1" fill="#0d2459" d="M 77.5,62.5 C 77.5,62.8333 77.5,63.1667 77.5,63.5C 76.0039,67.7912 73.6706,71.6246 70.5,75C 69.3546,77.1986 69.3546,79.3652 70.5,81.5C 71.2811,80.2713 71.7811,78.938 72,77.5C 72.9234,78.7588 73.7568,80.0921 74.5,81.5C 75.7123,79.164 75.379,76.9973 73.5,75C 75.6609,72.4443 77.6609,69.9443 79.5,67.5C 80.3187,73.8003 78.9854,79.467 75.5,84.5C 74.2652,84.2786 73.2652,83.6119 72.5,82.5C 70.4011,84.5342 68.0677,84.8676 65.5,83.5C 66.9285,78.535 68.9285,73.8683 71.5,69.5C 72.6005,68.3951 73.2671,67.0618 73.5,65.5C 74.5451,64.1224 75.8784,63.1224 77.5,62.5 Z"/></g>
<g><path style="opacity:1" fill="#0c1b5c" d="M 108.5,83.5 C 107.5,83.5 106.5,83.5 105.5,83.5C 104.022,83.762 102.689,83.4287 101.5,82.5C 103.969,81.8319 106.302,81.1653 108.5,80.5C 110.949,79.9426 113.282,79.9426 115.5,80.5C 113.236,81.8692 110.903,82.8692 108.5,83.5 Z"/></g>
<g><path style="opacity:0.969" fill="#082449" d="M 15.5,45.5 C 16.1614,46.7175 16.8281,48.0508 17.5,49.5C 18.8333,49.1667 20.1667,48.8333 21.5,48.5C 22.1667,47.5 22.8333,46.5 23.5,45.5C 23.8333,45.8333 24.1667,46.1667 24.5,46.5C 24.4473,48.6646 24.114,50.8312 23.5,53C 24.9141,55.9511 25.7475,59.1178 26,62.5C 26.7387,63.5742 27.7387,64.2409 29,64.5C 30.2607,63.3421 31.4274,63.3421 32.5,64.5C 32.0227,70.1904 34.5227,73.8571 40,75.5C 48.995,72.8564 50.8283,67.6897 45.5,60C 47.5421,57.4198 50.2088,55.7531 53.5,55C 58.1667,54.3333 62.8333,54.3333 67.5,55C 71.8695,56.2133 75.2028,58.7133 77.5,62.5C 75.8784,63.1224 74.5451,64.1224 73.5,65.5C 70.157,64.217 66.8237,64.3837 63.5,66C 54.832,71.0022 48.6654,78.1689 45,87.5C 42.4203,99.0733 39.0869,110.407 35,121.5C 32.9159,126.491 29.4159,128.491 24.5,127.5C 28.1328,118.773 25.1328,114.106 15.5,113.5C 14.7784,113.082 14.2784,112.416 14,111.5C 11.722,113.579 9.88866,115.913 8.5,118.5C 7.53443,116.604 7.2011,114.604 7.5,112.5C 8.5,112.5 9.5,112.5 10.5,112.5C 10.5,110.833 10.5,109.167 10.5,107.5C 9.32496,107.281 8.32496,107.614 7.5,108.5C 4.60569,112.857 2.93902,117.524 2.5,122.5C 1.40217,118.091 0.402166,113.758 -0.5,109.5C -0.5,102.833 -0.5,96.1667 -0.5,89.5C 1.8584,73.7587 7.19173,59.092 15.5,45.5 Z"/></g>
<g><path style="opacity:1" fill="#122652" d="M 65.5,73.5 C 66.0967,73.7352 66.4301,74.2352 66.5,75C 64.9972,76.9214 64.3305,79.088 64.5,81.5C 63.5,81.5 62.5,81.5 61.5,81.5C 61.33,82.8221 61.6634,83.9887 62.5,85C 65.0135,86.2525 67.6802,86.7525 70.5,86.5C 70.5,88.1667 70.5,89.8333 70.5,91.5C 66.2668,94.0902 61.6002,95.0902 56.5,94.5C 57.0785,86.3549 60.0785,79.3549 65.5,73.5 Z"/></g>
<g><path style="opacity:1" fill="#0d2648" d="M 93.5,76.5 C 94.6548,79.4737 94.3215,82.4737 92.5,85.5C 94.2853,85.7877 95.952,85.7877 97.5,85.5C 95.2007,89.4611 92.534,93.1278 89.5,96.5C 89.8333,96.8333 90.1667,97.1667 90.5,97.5C 91.5178,96.8075 92.5178,96.1408 93.5,95.5C 91.6546,101.562 92.3213,107.229 95.5,112.5C 94.3303,114.279 92.6636,115.279 90.5,115.5C 90.5,114.5 90.5,113.5 90.5,112.5C 92.3547,112.728 93.1881,112.061 93,110.5C 92,109.5 91,108.5 90,107.5C 89.7811,108.938 89.2811,110.271 88.5,111.5C 87.2941,109.516 87.2941,107.516 88.5,105.5C 85.7455,103.145 83.0788,100.812 80.5,98.5C 87.8897,93.0655 92.223,85.7322 93.5,76.5 Z"/></g>
<g><path style="opacity:1" fill="#f1f2f1" d="M 139.5,87.5 C 137.074,93.9602 135.407,100.627 134.5,107.5C 136.199,107.66 137.866,107.494 139.5,107C 142.872,104.519 143.038,102.019 140,99.5C 138.735,92.0174 141.568,87.0174 148.5,84.5C 150.919,85.2567 152.253,86.9233 152.5,89.5C 147.566,100.766 149.4,102.099 158,93.5C 157.952,89.4794 158.952,85.8127 161,82.5C 163.552,78.6782 166.552,78.0116 170,80.5C 169.925,84.3294 168.425,87.6628 165.5,90.5C 169.705,94.0317 172.705,98.3651 174.5,103.5C 177.214,100.785 180.214,98.4512 183.5,96.5C 183.833,97.1667 184.167,97.8333 184.5,98.5C 183.231,101.105 181.564,103.438 179.5,105.5C 175.728,108.623 171.728,111.289 167.5,113.5C 166.292,114.234 164.959,114.567 163.5,114.5C 156.718,115.875 153.552,113.209 154,106.5C 155.789,104.771 157.956,104.104 160.5,104.5C 161.037,112.311 162.037,112.311 163.5,104.5C 163.033,95.4946 160.7,94.6613 156.5,102C 153.356,103.692 150.023,104.858 146.5,105.5C 144.448,107.878 142.448,110.211 140.5,112.5C 139.833,112.5 139.5,112.833 139.5,113.5C 135.8,114.758 132.134,114.758 128.5,113.5C 126.394,111.281 125.394,108.615 125.5,105.5C 125.719,104.325 125.386,103.325 124.5,102.5C 121.485,103.818 118.485,104.818 115.5,105.5C 114.079,108.009 112.412,110.343 110.5,112.5C 107.302,113.787 103.969,114.453 100.5,114.5C 98.7162,114.107 97.0495,113.441 95.5,112.5C 92.3213,107.229 91.6546,101.562 93.5,95.5C 96.5,90.5 100.5,86.5 105.5,83.5C 106.5,83.5 107.5,83.5 108.5,83.5C 111.93,83.1065 115.096,83.7732 118,85.5C 119.468,90.552 119.968,95.552 119.5,100.5C 121.521,99.1455 123.188,97.4788 124.5,95.5C 127.635,91.0486 130.302,86.3819 132.5,81.5C 133.496,81.5858 134.329,81.2524 135,80.5C 135.216,82.3839 135.883,84.0506 137,85.5C 137.839,82.8604 137.339,80.5271 135.5,78.5C 136.557,78.0941 137.891,78.0941 139.5,78.5C 139.5,81.5 139.5,84.5 139.5,87.5 Z"/></g>
<g><path style="opacity:1" fill="#0c264e" d="M 71.5,109.5 C 71.5463,117.029 69.2129,123.696 64.5,129.5C 59.8063,132.711 54.8063,133.211 49.5,131C 46.9035,128.683 46.0701,125.85 47,122.5C 50.4226,115.474 52.9226,108.14 54.5,100.5C 58.4172,101.637 62.4172,102.47 66.5,103C 68.8257,104.805 70.4923,106.972 71.5,109.5 Z"/></g>
<g><path style="opacity:1" fill="#182348" d="M 110.5,87.5 C 112.635,87.147 113.968,87.9803 114.5,90C 109.273,93.2141 108.273,97.3807 111.5,102.5C 109.758,107.259 106.425,109.593 101.5,109.5C 101.752,101.001 104.752,93.6681 110.5,87.5 Z"/></g>
<g><path style="opacity:1" fill="#f2f3f3" d="M 73.5,65.5 C 73.2671,67.0618 72.6005,68.3951 71.5,69.5C 69.1475,70.3403 67.1475,71.6736 65.5,73.5C 60.0785,79.3549 57.0785,86.3549 56.5,94.5C 61.6002,95.0902 66.2668,94.0902 70.5,91.5C 70.8333,91.5 71.1667,91.5 71.5,91.5C 72.5498,91.9046 72.5498,92.5712 71.5,93.5C 69.3451,94.4104 67.3451,95.5771 65.5,97C 62.8333,97.6667 60.1667,97.6667 57.5,97C 54.606,94.9486 53.9393,95.6152 55.5,99C 59.5577,99.3404 63.5577,100.007 67.5,101C 70.6486,102.933 71.982,105.766 71.5,109.5C 70.4923,106.972 68.8257,104.805 66.5,103C 62.4172,102.47 58.4172,101.637 54.5,100.5C 52.9226,108.14 50.4226,115.474 47,122.5C 46.0701,125.85 46.9035,128.683 49.5,131C 54.8063,133.211 59.8063,132.711 64.5,129.5C 64.5858,130.496 64.2524,131.329 63.5,132C 60.0547,133.046 57.388,135.046 55.5,138C 56.7932,138.49 58.1266,138.657 59.5,138.5C 59.0772,135.757 60.2439,134.424 63,134.5C 64.6687,135.166 66.1687,135.166 67.5,134.5C 68.7989,135.09 69.6322,136.09 70,137.5C 70.3333,136.5 70.6667,135.5 71,134.5C 72.0495,135.517 73.2161,135.684 74.5,135C 77.0599,132.597 79.7266,130.43 82.5,128.5C 82.4431,129.609 82.1098,130.609 81.5,131.5C 71.0855,141.509 59.4189,143.176 46.5,136.5C 44.5441,134.886 42.5441,133.219 40.5,131.5C 33.4092,137.12 25.7426,137.953 17.5,134C 10.6552,129.729 8.82189,123.896 12,116.5C 13.5185,115.837 14.6851,114.837 15.5,113.5C 25.1328,114.106 28.1328,118.773 24.5,127.5C 29.4159,128.491 32.9159,126.491 35,121.5C 39.0869,110.407 42.4203,99.0733 45,87.5C 48.6654,78.1689 54.832,71.0022 63.5,66C 66.8237,64.3837 70.157,64.217 73.5,65.5 Z"/></g>
<g><path style="opacity:1" fill="#0a2354" d="M 115.5,105.5 C 116.5,105.5 117.5,105.5 118.5,105.5C 119.109,109.005 117.942,111.672 115,113.5C 114.667,114.833 114.333,116.167 114,117.5C 113.692,116.692 113.192,116.025 112.5,115.5C 110.184,116.496 108.517,118.163 107.5,120.5C 106.534,118.604 106.201,116.604 106.5,114.5C 108.38,114.771 109.713,114.104 110.5,112.5C 112.412,110.343 114.079,108.009 115.5,105.5 Z"/></g>
<g><path style="opacity:1" fill="#092654" d="M 144.5,127.5 C 142.704,126.207 141.037,124.707 139.5,123C 136.779,122.398 134.113,122.565 131.5,123.5C 131.201,121.396 131.534,119.396 132.5,117.5C 133.446,117.013 134.446,116.68 135.5,116.5C 139.527,118.296 142.86,120.963 145.5,124.5C 146.833,123.167 146.833,121.833 145.5,120.5C 142.938,118.576 140.938,116.242 139.5,113.5C 139.5,112.833 139.833,112.5 140.5,112.5C 143.367,111.313 145.7,109.313 147.5,106.5C 149.074,105.369 150.741,105.202 152.5,106C 151.552,106.483 150.552,106.649 149.5,106.5C 149.5,107.5 149.5,108.5 149.5,109.5C 150.5,109.5 151.5,109.5 152.5,109.5C 152.838,111.854 153.338,114.187 154,116.5C 155.545,115.179 156.711,115.512 157.5,117.5C 156.833,117.833 156.167,118.167 155.5,118.5C 153.677,117.155 151.677,116.655 149.5,117C 151.991,117.626 151.991,118.459 149.5,119.5C 149.709,120.086 150.043,120.586 150.5,121C 148.823,122.995 147.323,125.161 146,127.5C 145.31,126.262 144.81,126.262 144.5,127.5 Z"/></g>
<g><path style="opacity:1" fill="#132455" d="M 125.5,105.5 C 125.394,108.615 126.394,111.281 128.5,113.5C 129.237,116.856 128.904,120.189 127.5,123.5C 127.5,129.167 127.5,134.833 127.5,140.5C 125.861,137.149 124.861,133.482 124.5,129.5C 125.346,125.882 125.68,122.215 125.5,118.5C 124.933,115.697 123.6,113.364 121.5,111.5C 121.722,109.945 122.389,108.611 123.5,107.5C 120.833,106.5 120.833,105.5 123.5,104.5C 124.183,104.863 124.85,105.196 125.5,105.5 Z"/></g>
<g><path style="opacity:1" fill="#0c2a49" d="M 125.5,105.5 C 124.85,105.196 124.183,104.863 123.5,104.5C 120.833,105.5 120.833,106.5 123.5,107.5C 122.389,108.611 121.722,109.945 121.5,111.5C 123.6,113.364 124.933,115.697 125.5,118.5C 124.842,119.398 124.176,120.398 123.5,121.5C 121.717,119.977 121.051,117.977 121.5,115.5C 120.167,115.5 118.833,115.5 117.5,115.5C 117.67,116.822 117.337,117.989 116.5,119C 114.687,118.954 113.021,119.12 111.5,119.5C 111.709,120.086 112.043,120.586 112.5,121C 114.833,121.333 117.167,121.667 119.5,122C 120.756,122.417 121.423,123.25 121.5,124.5C 116.257,121.344 111.59,122.011 107.5,126.5C 105.181,123.185 103.848,119.518 103.5,115.5C 102.209,115.737 101.209,115.404 100.5,114.5C 103.969,114.453 107.302,113.787 110.5,112.5C 109.713,114.104 108.38,114.771 106.5,114.5C 106.201,116.604 106.534,118.604 107.5,120.5C 108.517,118.163 110.184,116.496 112.5,115.5C 113.192,116.025 113.692,116.692 114,117.5C 114.333,116.167 114.667,114.833 115,113.5C 117.942,111.672 119.109,109.005 118.5,105.5C 117.5,105.5 116.5,105.5 115.5,105.5C 118.485,104.818 121.485,103.818 124.5,102.5C 125.386,103.325 125.719,104.325 125.5,105.5 Z"/></g>
<g><path style="opacity:1" fill="#0d2b44" d="M 128.5,113.5 C 132.134,114.758 135.8,114.758 139.5,113.5C 140.938,116.242 142.938,118.576 145.5,120.5C 146.833,121.833 146.833,123.167 145.5,124.5C 142.86,120.963 139.527,118.296 135.5,116.5C 134.446,116.68 133.446,117.013 132.5,117.5C 131.534,119.396 131.201,121.396 131.5,123.5C 130.167,123.5 128.833,123.5 127.5,123.5C 128.904,120.189 129.237,116.856 128.5,113.5 Z"/></g>
<g><path style="opacity:1" fill="#f2f3ee" d="M 184.5,122.5 C 184.5,123.5 184.5,124.5 184.5,125.5C 183.279,126.028 182.113,126.695 181,127.5C 180.502,130.817 180.335,134.15 180.5,137.5C 179.167,137.5 177.833,137.5 176.5,137.5C 176.5,132.833 176.5,128.167 176.5,123.5C 177.5,123.5 178.5,123.5 179.5,123.5C 181.117,122.962 182.784,122.629 184.5,122.5 Z"/></g>
<g><path style="opacity:1" fill="#a1a7ad" d="M 179.5,123.5 C 178.5,123.5 177.5,123.5 176.5,123.5C 176.5,128.167 176.5,132.833 176.5,137.5C 177.833,137.5 179.167,137.5 180.5,137.5C 179.081,138.451 177.415,138.784 175.5,138.5C 175.5,133.167 175.5,127.833 175.5,122.5C 177.099,122.232 178.432,122.566 179.5,123.5 Z"/></g>
<g><path style="opacity:1" fill="#10214d" d="M 80.5,98.5 C 83.0788,100.812 85.7455,103.145 88.5,105.5C 87.2941,107.516 87.2941,109.516 88.5,111.5C 89.2811,110.271 89.7811,108.938 90,107.5C 91,108.5 92,109.5 93,110.5C 93.1881,112.061 92.3547,112.728 90.5,112.5C 90.5,113.5 90.5,114.5 90.5,115.5C 92.6636,115.279 94.3303,114.279 95.5,112.5C 97.0495,113.441 98.7162,114.107 100.5,114.5C 101.209,115.404 102.209,115.737 103.5,115.5C 103.848,119.518 105.181,123.185 107.5,126.5C 106.286,129.204 106.286,131.871 107.5,134.5C 106.713,136.104 105.38,136.771 103.5,136.5C 102.194,134.184 100.861,131.85 99.5,129.5C 104.795,125.905 104.795,122.405 99.5,119C 96.5184,118.502 93.5184,118.335 90.5,118.5C 89.5084,125.648 89.175,132.981 89.5,140.5C 88.5,140.5 87.5,140.5 86.5,140.5C 85.8333,125.833 85.1667,125.833 84.5,140.5C 83.5,140.5 82.5,140.5 81.5,140.5C 81.5,137.5 81.5,134.5 81.5,131.5C 82.1098,130.609 82.4431,129.609 82.5,128.5C 89.0874,117.725 87.4207,108.391 77.5,100.5C 78.3569,99.5748 79.3569,98.9081 80.5,98.5 Z"/></g>
<g><path style="opacity:1" fill="#062347" d="M 163.5,114.5 C 162.662,117.723 161.328,118.056 159.5,115.5C 159.167,116 158.833,116.5 158.5,117C 159.5,118.5 160.5,120 161.5,121.5C 163.712,117.89 164.712,118.557 164.5,123.5C 160.152,123.091 155.819,122.924 151.5,123C 146.167,128 146.167,133 151.5,138C 154.917,138.025 158.25,138.192 161.5,138.5C 163.516,138.484 164.516,137.484 164.5,135.5C 165.167,136.833 165.833,138.167 166.5,139.5C 166.56,140.043 166.893,140.376 167.5,140.5C 169.103,139.207 170.769,138.207 172.5,137.5C 172.232,131.618 172.566,125.785 173.5,120C 172.142,117.327 170.142,116.827 167.5,118.5C 166.909,117.849 166.243,117.182 165.5,116.5C 167.167,115.833 168.833,115.167 170.5,114.5C 169.675,113.614 168.675,113.281 167.5,113.5C 171.728,111.289 175.728,108.623 179.5,105.5C 183.226,105.177 186.893,105.511 190.5,106.5C 186.303,106.986 182.303,107.986 178.5,109.5C 179.814,113.54 179.814,117.54 178.5,121.5C 180.374,120.065 182.374,118.898 184.5,118C 183.273,116.413 183.606,115.079 185.5,114C 184.5,113.167 183.5,112.333 182.5,111.5C 183.913,109.084 185.58,108.584 187.5,110C 185.068,111.087 185.402,111.587 188.5,111.5C 188.5,112.833 188.5,114.167 188.5,115.5C 190.288,115.215 191.955,115.548 193.5,116.5C 189.927,117.776 186.927,119.776 184.5,122.5C 182.784,122.629 181.117,122.962 179.5,123.5C 178.432,122.566 177.099,122.232 175.5,122.5C 175.5,127.833 175.5,133.167 175.5,138.5C 176.077,140.652 177.244,140.985 179,139.5C 179.684,140.784 179.517,141.951 178.5,143C 180.997,145.897 180.83,148.731 178,151.5C 177.28,149.888 177.446,148.388 178.5,147C 175.824,146.383 175.157,147.216 176.5,149.5C 174.164,152.355 172.331,152.022 171,148.5C 170.383,149.449 170.549,150.282 171.5,151C 168.106,151.752 164.773,151.585 161.5,150.5C 160.205,151.098 158.872,151.598 157.5,152C 153.489,155.323 149.989,158.823 147,162.5C 143.545,161.45 140.045,161.283 136.5,162C 145.544,163.009 145.377,164.175 136,165.5C 133.26,164.718 130.426,164.218 127.5,164C 129.833,163.667 132.167,163.333 134.5,163C 131.905,162.774 129.405,162.274 127,161.5C 126.586,161.957 126.086,162.291 125.5,162.5C 124.403,160.771 123.237,159.104 122,157.5C 114.964,158.039 108.131,158.372 101.5,158.5C 101.704,157.471 101.204,156.471 100,155.5C 97.3333,156.833 94.6667,156.833 92,155.5C 91.5,156 91,156.5 90.5,157C 93.5,157.333 96.5,157.667 99.5,158C 93.2511,158.809 87.0844,158.642 81,157.5C 78.8774,158.883 77.8774,160.55 78,162.5C 77.6667,162.167 77.3333,161.833 77,161.5C 74.2595,162.282 71.4262,162.782 68.5,163C 71.1667,163.333 73.8333,163.667 76.5,164C 70.7534,165.444 65.2534,165.277 60,163.5C 59.586,163.957 59.086,164.291 58.5,164.5C 57.8182,163.757 57.1515,163.091 56.5,162.5C 54.1198,160.763 52.4531,158.43 51.5,155.5C 48.0014,153.161 44.6681,150.661 41.5,148C 39.649,145.157 37.8157,142.99 36,141.5C 35.7057,144.655 35.0391,147.988 34,151.5C 30.803,150.643 27.803,150.643 25,151.5C 24.5,151 24,150.5 23.5,150C 24.2266,148.601 24.7266,147.101 25,145.5C 24.8361,149.15 26.0028,149.983 28.5,148C 27.6919,147.692 27.0253,147.192 26.5,146.5C 27.5,145.833 28.5,145.167 29.5,144.5C 28.4179,144.251 27.0846,144.085 25.5,144C 24.7402,142.559 24.0736,141.059 23.5,139.5C 29.8805,139.474 35.5472,137.474 40.5,133.5C 42.0712,135.415 44.0712,136.415 46.5,136.5C 59.4189,143.176 71.0855,141.509 81.5,131.5C 81.5,134.5 81.5,137.5 81.5,140.5C 82.5,140.5 83.5,140.5 84.5,140.5C 85.1667,125.833 85.8333,125.833 86.5,140.5C 87.5,140.5 88.5,140.5 89.5,140.5C 89.175,132.981 89.5084,125.648 90.5,118.5C 89.8745,125.584 90.5411,132.25 92.5,138.5C 94.1534,139.799 95.6534,139.466 97,137.5C 100.018,137.981 102.852,138.981 105.5,140.5C 106.386,139.675 106.719,138.675 106.5,137.5C 107.833,137.5 109.167,137.5 110.5,137.5C 115.131,139.425 119.131,138.592 122.5,135C 121.737,134.056 120.737,133.556 119.5,133.5C 117.002,134.63 114.668,134.63 112.5,133.5C 116.167,132.833 119.833,132.167 123.5,131.5C 123.606,128.921 122.939,126.588 121.5,124.5C 121.423,123.25 120.756,122.417 119.5,122C 117.167,121.667 114.833,121.333 112.5,121C 112.043,120.586 111.709,120.086 111.5,119.5C 113.021,119.12 114.687,118.954 116.5,119C 117.337,117.989 117.67,116.822 117.5,115.5C 118.833,115.5 120.167,115.5 121.5,115.5C 121.051,117.977 121.717,119.977 123.5,121.5C 124.176,120.398 124.842,119.398 125.5,118.5C 125.68,122.215 125.346,125.882 124.5,129.5C 124.861,133.482 125.861,137.149 127.5,140.5C 127.5,141.167 127.5,141.833 127.5,142.5C 128.919,143.451 130.585,143.784 132.5,143.5C 132.5,141.5 132.5,139.5 132.5,137.5C 140.642,139.37 144.642,136.036 144.5,127.5C 144.81,126.262 145.31,126.262 146,127.5C 147.323,125.161 148.823,122.995 150.5,121C 150.043,120.586 149.709,120.086 149.5,119.5C 151.991,118.459 151.991,117.626 149.5,117C 151.677,116.655 153.677,117.155 155.5,118.5C 156.167,118.167 156.833,117.833 157.5,117.5C 156.711,115.512 155.545,115.179 154,116.5C 153.338,114.187 152.838,111.854 152.5,109.5C 151.5,109.5 150.5,109.5 149.5,109.5C 149.5,108.5 149.5,107.5 149.5,106.5C 150.552,106.649 151.552,106.483 152.5,106C 150.741,105.202 149.074,105.369 147.5,106.5C 145.7,109.313 143.367,111.313 140.5,112.5C 142.448,110.211 144.448,107.878 146.5,105.5C 150.023,104.858 153.356,103.692 156.5,102C 160.7,94.6613 163.033,95.4946 163.5,104.5C 162.037,112.311 161.037,112.311 160.5,104.5C 157.956,104.104 155.789,104.771 154,106.5C 153.552,113.209 156.718,115.875 163.5,114.5 Z"/></g>
<g><path style="opacity:1" fill="#1e2b3f" d="M 103.5,136.5 C 105.38,136.771 106.713,136.104 107.5,134.5C 108.833,135.167 109.833,136.167 110.5,137.5C 109.167,137.5 107.833,137.5 106.5,137.5C 106.719,138.675 106.386,139.675 105.5,140.5C 102.852,138.981 100.018,137.981 97,137.5C 95.6534,139.466 94.1534,139.799 92.5,138.5C 94.1969,136.695 95.0302,134.361 95,131.5C 96.1667,133.167 97.3333,134.833 98.5,136.5C 100.299,137.788 101.965,137.788 103.5,136.5 Z"/></g>
<g><path style="opacity:1" fill="#eeeeee" d="M 144.5,127.5 C 144.642,136.036 140.642,139.37 132.5,137.5C 131.549,138.919 131.216,140.585 131.5,142.5C 130.167,142.5 128.833,142.5 127.5,142.5C 127.5,141.833 127.5,141.167 127.5,140.5C 127.5,134.833 127.5,129.167 127.5,123.5C 128.833,123.5 130.167,123.5 131.5,123.5C 134.113,122.565 136.779,122.398 139.5,123C 141.037,124.707 142.704,126.207 144.5,127.5 Z"/></g>
<g><path style="opacity:1" fill="#64678a" d="M 123.5,131.5 C 119.833,132.167 116.167,132.833 112.5,133.5C 111.957,133.44 111.624,133.107 111.5,132.5C 115.445,131.509 119.445,131.176 123.5,131.5 Z"/></g>
<g><path style="opacity:1" fill="#585a65" d="M 168.5,123.5 C 168.5,128.167 168.5,132.833 168.5,137.5C 169.833,137.5 171.167,137.5 172.5,137.5C 170.769,138.207 169.103,139.207 167.5,140.5C 166.893,140.376 166.56,140.043 166.5,139.5C 167.123,134.065 167.79,128.732 168.5,123.5 Z"/></g>
<g><path style="opacity:1" fill="#2d334e" d="M 133.5,126.5 C 139.488,126.664 140.821,129.164 137.5,134C 131.403,134.147 130.07,131.647 133.5,126.5 Z"/></g>
<g><path style="opacity:1" fill="#e4e4e4" d="M 164.5,123.5 C 164.5,127.5 164.5,131.5 164.5,135.5C 164.516,137.484 163.516,138.484 161.5,138.5C 158.25,138.192 154.917,138.025 151.5,138C 146.167,133 146.167,128 151.5,123C 155.819,122.924 160.152,123.091 164.5,123.5 Z"/></g>
<g><path style="opacity:1" fill="#1d2441" d="M 153.5,126.5 C 159.488,126.664 160.821,129.164 157.5,134C 155.888,134.72 154.388,134.554 153,133.5C 152.444,131.115 152.61,128.782 153.5,126.5 Z"/></g>
<g><path style="opacity:1" fill="#f3f3f3" d="M 90.5,118.5 C 93.5184,118.335 96.5184,118.502 99.5,119C 104.795,122.405 104.795,125.905 99.5,129.5C 100.861,131.85 102.194,134.184 103.5,136.5C 101.965,137.788 100.299,137.788 98.5,136.5C 97.3333,134.833 96.1667,133.167 95,131.5C 95.0302,134.361 94.1969,136.695 92.5,138.5C 90.5411,132.25 89.8745,125.584 90.5,118.5 Z"/></g>
<g><path style="opacity:1" fill="#eeefee" d="M 172.5,137.5 C 171.167,137.5 169.833,137.5 168.5,137.5C 168.5,132.833 168.5,128.167 168.5,123.5C 167.962,121.883 167.629,120.216 167.5,118.5C 170.142,116.827 172.142,117.327 173.5,120C 172.566,125.785 172.232,131.618 172.5,137.5 Z"/></g>
<g><path style="opacity:1" fill="#eaebeb" d="M 121.5,124.5 C 122.939,126.588 123.606,128.921 123.5,131.5C 119.445,131.176 115.445,131.509 111.5,132.5C 111.624,133.107 111.957,133.44 112.5,133.5C 114.668,134.63 117.002,134.63 119.5,133.5C 120.737,133.556 121.737,134.056 122.5,135C 119.131,138.592 115.131,139.425 110.5,137.5C 109.833,136.167 108.833,135.167 107.5,134.5C 106.286,131.871 106.286,129.204 107.5,126.5C 111.59,122.011 116.257,121.344 121.5,124.5 Z"/></g>
<g><path style="opacity:1" fill="#252540" d="M 112.5,126.5 C 114.75,126.181 116.75,126.681 118.5,128C 117.5,128.167 116.5,128.333 115.5,128.5C 113.97,128.36 112.97,127.693 112.5,126.5 Z"/></g>
<g><path style="opacity:1" fill="#2c2c3a" d="M 94.5,122.5 C 96.3464,122.222 97.6798,122.889 98.5,124.5C 97.3112,125.429 95.9778,125.762 94.5,125.5C 94.5,124.5 94.5,123.5 94.5,122.5 Z"/></g>
<g><path style="opacity:1" fill="#091a4d" d="M 167.5,113.5 C 168.675,113.281 169.675,113.614 170.5,114.5C 168.833,115.167 167.167,115.833 165.5,116.5C 166.243,117.182 166.909,117.849 167.5,118.5C 167.629,120.216 167.962,121.883 168.5,123.5C 167.79,128.732 167.123,134.065 166.5,139.5C 165.833,138.167 165.167,136.833 164.5,135.5C 164.5,131.5 164.5,127.5 164.5,123.5C 164.712,118.557 163.712,117.89 161.5,121.5C 160.5,120 159.5,118.5 158.5,117C 158.833,116.5 159.167,116 159.5,115.5C 161.328,118.056 162.662,117.723 163.5,114.5C 164.959,114.567 166.292,114.234 167.5,113.5 Z"/></g>
<g><path style="opacity:1" fill="#9ea1ae" d="M 132.5,137.5 C 132.5,139.5 132.5,141.5 132.5,143.5C 130.585,143.784 128.919,143.451 127.5,142.5C 128.833,142.5 130.167,142.5 131.5,142.5C 131.216,140.585 131.549,138.919 132.5,137.5 Z"/></g>
<g><path style="opacity:1" fill="#022040" d="M 184.5,125.5 C 182.556,128.035 181.556,131.035 181.5,134.5C 181.833,136.5 182.167,138.5 182.5,140.5C 184.688,126.032 186.354,126.032 187.5,140.5C 187.833,140.167 188.167,139.833 188.5,139.5C 189.383,135.386 189.716,131.386 189.5,127.5C 190.491,131.445 190.824,135.445 190.5,139.5C 186.197,150.475 179.864,160.141 171.5,168.5C 170.694,167.132 169.694,165.799 168.5,164.5C 169.999,163.096 169.666,162.43 167.5,162.5C 165.292,163.863 162.959,165.03 160.5,166C 159.167,166.667 159.167,167.333 160.5,168C 158.22,168.703 156.22,169.869 154.5,171.5C 153.784,170.689 152.95,170.022 152,169.5C 150.27,170.649 148.604,170.649 147,169.5C 144.16,172.371 141.826,172.037 140,168.5C 138.266,169.249 136.433,169.749 134.5,170C 135.38,171.356 135.714,172.856 135.5,174.5C 131.445,174.176 127.445,174.509 123.5,175.5C 123.167,176.167 122.833,176.833 122.5,177.5C 117.95,178.8 113.45,178.8 109,177.5C 107.663,178.765 106.163,179.265 104.5,179C 107.035,177.087 106.535,175.92 103,175.5C 91.9886,178.436 80.8219,179.103 69.5,177.5C 68.9067,175.618 68.2401,173.785 67.5,172C 68.1667,171.333 68.8333,170.667 69.5,170C 65.3993,168.918 61.3993,168.418 57.5,168.5C 56.5344,166.604 56.2011,164.604 56.5,162.5C 57.1515,163.091 57.8182,163.757 58.5,164.5C 59.086,164.291 59.586,163.957 60,163.5C 65.2534,165.277 70.7534,165.444 76.5,164C 73.8333,163.667 71.1667,163.333 68.5,163C 71.4262,162.782 74.2595,162.282 77,161.5C 77.3333,161.833 77.6667,162.167 78,162.5C 77.8774,160.55 78.8774,158.883 81,157.5C 87.0844,158.642 93.2511,158.809 99.5,158C 96.5,157.667 93.5,157.333 90.5,157C 91,156.5 91.5,156 92,155.5C 94.6667,156.833 97.3333,156.833 100,155.5C 101.204,156.471 101.704,157.471 101.5,158.5C 108.131,158.372 114.964,158.039 122,157.5C 123.237,159.104 124.403,160.771 125.5,162.5C 126.086,162.291 126.586,161.957 127,161.5C 129.405,162.274 131.905,162.774 134.5,163C 132.167,163.333 129.833,163.667 127.5,164C 130.426,164.218 133.26,164.718 136,165.5C 145.377,164.175 145.544,163.009 136.5,162C 140.045,161.283 143.545,161.45 147,162.5C 149.989,158.823 153.489,155.323 157.5,152C 158.872,151.598 160.205,151.098 161.5,150.5C 164.773,151.585 168.106,151.752 171.5,151C 170.549,150.282 170.383,149.449 171,148.5C 172.331,152.022 174.164,152.355 176.5,149.5C 175.157,147.216 175.824,146.383 178.5,147C 177.446,148.388 177.28,149.888 178,151.5C 180.83,148.731 180.997,145.897 178.5,143C 179.517,141.951 179.684,140.784 179,139.5C 177.244,140.985 176.077,140.652 175.5,138.5C 177.415,138.784 179.081,138.451 180.5,137.5C 180.335,134.15 180.502,130.817 181,127.5C 182.113,126.695 183.279,126.028 184.5,125.5 Z"/></g>
<g><path style="opacity:0.999" fill="#021f3c" d="M 15.5,113.5 C 14.6851,114.837 13.5185,115.837 12,116.5C 8.82189,123.896 10.6552,129.729 17.5,134C 25.7426,137.953 33.4092,137.12 40.5,131.5C 42.5441,133.219 44.5441,134.886 46.5,136.5C 44.0712,136.415 42.0712,135.415 40.5,133.5C 35.5472,137.474 29.8805,139.474 23.5,139.5C 24.0736,141.059 24.7402,142.559 25.5,144C 27.0846,144.085 28.4179,144.251 29.5,144.5C 28.5,145.167 27.5,145.833 26.5,146.5C 27.0253,147.192 27.6919,147.692 28.5,148C 26.0028,149.983 24.8361,149.15 25,145.5C 24.7266,147.101 24.2266,148.601 23.5,150C 24,150.5 24.5,151 25,151.5C 27.803,150.643 30.803,150.643 34,151.5C 35.0391,147.988 35.7057,144.655 36,141.5C 37.8157,142.99 39.649,145.157 41.5,148C 44.6681,150.661 48.0014,153.161 51.5,155.5C 52.4531,158.43 54.1198,160.763 56.5,162.5C 56.2011,164.604 56.5344,166.604 57.5,168.5C 61.3993,168.418 65.3993,168.918 69.5,170C 68.8333,170.667 68.1667,171.333 67.5,172C 68.2401,173.785 68.9067,175.618 69.5,177.5C 80.8219,179.103 91.9886,178.436 103,175.5C 106.535,175.92 107.035,177.087 104.5,179C 106.163,179.265 107.663,178.765 109,177.5C 113.45,178.8 117.95,178.8 122.5,177.5C 122.833,176.833 123.167,176.167 123.5,175.5C 127.445,174.509 131.445,174.176 135.5,174.5C 135.714,172.856 135.38,171.356 134.5,170C 136.433,169.749 138.266,169.249 140,168.5C 141.826,172.037 144.16,172.371 147,169.5C 148.604,170.649 150.27,170.649 152,169.5C 152.95,170.022 153.784,170.689 154.5,171.5C 156.22,169.869 158.22,168.703 160.5,168C 159.167,167.333 159.167,166.667 160.5,166C 162.959,165.03 165.292,163.863 167.5,162.5C 169.666,162.43 169.999,163.096 168.5,164.5C 169.694,165.799 170.694,167.132 171.5,168.5C 165.393,175.274 158.393,180.94 150.5,185.5C 150.038,184.12 149.038,183.453 147.5,183.5C 146.137,184.198 144.971,184.198 144,183.5C 143.309,185.891 142.309,185.891 141,183.5C 139.26,184.716 138.26,186.382 138,188.5C 135.382,183.431 134.382,183.431 135,188.5C 134.333,187.833 133.667,187.167 133,186.5C 129.865,187.799 126.699,187.799 123.5,186.5C 122.304,186.846 122.304,187.346 123.5,188C 120.167,188.667 116.833,188.667 113.5,188C 114.833,187.667 116.167,187.333 117.5,187C 115.22,186.788 113.22,185.955 111.5,184.5C 108.943,185.534 107.609,184.534 107.5,181.5C 105.712,181.215 104.045,181.548 102.5,182.5C 103.326,183.451 103.492,184.451 103,185.5C 95.541,184.324 88.2077,183.657 81,183.5C 79.3499,184.891 78.8499,186.391 79.5,188C 75.8297,188.279 72.163,188.112 68.5,187.5C 68.7692,185.571 68.2692,183.905 67,182.5C 61,183.167 55,183.833 49,184.5C 48.3292,183.748 47.4959,183.414 46.5,183.5C 23.3872,169.369 8.72049,149.035 2.5,122.5C 2.93902,117.524 4.60569,112.857 7.5,108.5C 8.32496,107.614 9.32496,107.281 10.5,107.5C 10.5,109.167 10.5,110.833 10.5,112.5C 9.5,112.5 8.5,112.5 7.5,112.5C 7.2011,114.604 7.53443,116.604 8.5,118.5C 9.88866,115.913 11.722,113.579 14,111.5C 14.2784,112.416 14.7784,113.082 15.5,113.5 Z"/></g>
<g><path style="opacity:0.995" fill="#031c36" d="M 150.5,185.5 C 126.26,198.81 100.593,202.31 73.5,196C 63.6584,193.409 54.6584,189.243 46.5,183.5C 47.4959,183.414 48.3292,183.748 49,184.5C 55,183.833 61,183.167 67,182.5C 68.2692,183.905 68.7692,185.571 68.5,187.5C 72.163,188.112 75.8297,188.279 79.5,188C 78.8499,186.391 79.3499,184.891 81,183.5C 88.2077,183.657 95.541,184.324 103,185.5C 103.492,184.451 103.326,183.451 102.5,182.5C 104.045,181.548 105.712,181.215 107.5,181.5C 107.609,184.534 108.943,185.534 111.5,184.5C 113.22,185.955 115.22,186.788 117.5,187C 116.167,187.333 114.833,187.667 113.5,188C 116.833,188.667 120.167,188.667 123.5,188C 122.304,187.346 122.304,186.846 123.5,186.5C 126.699,187.799 129.865,187.799 133,186.5C 133.667,187.167 134.333,187.833 135,188.5C 134.382,183.431 135.382,183.431 138,188.5C 138.26,186.382 139.26,184.716 141,183.5C 142.309,185.891 143.309,185.891 144,183.5C 144.971,184.198 146.137,184.198 147.5,183.5C 149.038,183.453 150.038,184.12 150.5,185.5 Z"/></g>
</svg>
