<svg xmlns="http://www.w3.org/2000/svg" xmlns:xlink="http://www.w3.org/1999/xlink" viewBox="0 0 1656.53 1656.56"><defs><style>.cls-1{fill:url(#Namnlös_övertoning_442);}.cls-2{fill:url(#Namnlös_övertoning_84);}.cls-3{fill:#631d3d;}.cls-4{fill:#1c0911;}.cls-5{fill:#0b0b2d;}.cls-6{fill:url(#Namnlös_övertoning_58);}.cls-7{fill:url(#Namnlös_övertoning_23);}.cls-8{fill:#d6d6ed;}.cls-9{fill:#fff;}.cls-10{fill:#7f86e5;}.cls-11,.cls-12,.cls-13,.cls-14{fill:none;}.cls-11,.cls-12,.cls-13,.cls-14,.cls-16,.cls-17,.cls-18{stroke:#000;stroke-miterlimit:10;}.cls-11{stroke-width:3px;}.cls-12{stroke-width:5px;}.cls-14{stroke-width:6px;}.cls-15,.cls-17{fill:#ff8dd0;}.cls-16{fill:#2a034d;}</style><linearGradient id="Namnlös_övertoning_442" x1="1218.61" y1="97.82" x2="438.28" y2="1558.34" gradientUnits="userSpaceOnUse"><stop offset="0" stop-color="#fff"/><stop offset="0.21" stop-color="#eebfff"/><stop offset="0.25" stop-color="#dfaff3"/><stop offset="0.42" stop-color="#a572c3"/><stop offset="0.58" stop-color="#77429e"/><stop offset="0.71" stop-color="#562083"/><stop offset="0.82" stop-color="#410b73"/><stop offset="0.9" stop-color="#3a036d"/></linearGradient><linearGradient id="Namnlös_övertoning_84" x1="153.57" y1="1038.58" x2="177.33" y2="1089.34" gradientUnits="userSpaceOnUse"><stop offset="0" stop-color="#bfc3ff"/><stop offset="0.06" stop-color="#adb1eb"/><stop offset="0.32" stop-color="#646799"/><stop offset="0.54" stop-color="#2e305d"/><stop offset="0.69" stop-color="#0d0f38"/><stop offset="0.78" stop-color="#00022a"/></linearGradient><linearGradient id="Namnlös_övertoning_58" x1="1191.59" y1="255.46" x2="1432.13" y2="841.26" gradientUnits="userSpaceOnUse"><stop offset="0" stop-color="#bfc3ff"/><stop offset="0.11" stop-color="#b0b4ee"/><stop offset="0.32" stop-color="#898dc3"/><stop offset="0.61" stop-color="#4a4d7d"/><stop offset="0.93" stop-color="#00022a"/></linearGradient><linearGradient id="Namnlös_övertoning_23" x1="1329.31" y1="663.56" x2="1353.03" y2="752.49" gradientUnits="userSpaceOnUse"><stop offset="0" stop-color="#bfc3ff"/><stop offset="0.02" stop-color="#b9bdf9"/><stop offset="0.23" stop-color="#787cb0"/><stop offset="0.42" stop-color="#454776"/><stop offset="0.58" stop-color="#1f224d"/><stop offset="0.71" stop-color="#080b33"/><stop offset="0.78" stop-color="#00022a"/></linearGradient></defs><title>booh coin no glow</title><g id="Lager_14" data-name="Lager 14"><circle class="cls-1" cx="828.44" cy="828.08" r="827.94"/></g><g id="Lager_10" data-name="Lager 10"><polygon class="cls-2" points="140.32 1045.47 136.5 1053.11 136.3 1068.81 140.73 1081.68 148.17 1092.95 156.22 1097.17 165.07 1092.74 182.77 1085.3 192.63 1079.07 195.19 1069.66 193.63 1059.35 189.81 1045.47 183.98 1034.4 176.74 1030.58 171.31 1030.38 140.32 1045.47"/><path class="cls-3" d="M339.55,1189.05s11,11.46,11,34.55h0l37.57-19.16,35-16,21.13-9,23.53-9.05,24.14-10,25.35-9.66,24.44-8.75,28.67-10.26,15.09-4.22L1342,920.18l23.74-9.26L1381,907.3l24.14-5.63,3.52-.35,4.38-4.83,1.5-7.85.16-7.09-1.51-6.48-3.17-5.44-5.89-6.94-6.64,2-48.58,10.87-768.58,210-13,7.85L550,1099.73l-35.45,12.57-20.52,7.24-42.65,16.7-20.93,9L402.92,1157l-29.17,13.68-15.89,8.25-11.06,6.23-7.25,3.93" transform="translate(-155.37 -153.94)"/><g id="Lager_19" data-name="Lager 19"><path class="cls-4" d="M349.61,1211.68s133-64.38,145.05-62.37,15.69,3.42,15.69,3.42-149.87,63.17-158.52,69.21l-2.22-10.26" transform="translate(-155.37 -153.94)"/><polyline class="cls-4" points="1207.15 745.72 1257.84 734.25 1255.43 746.63 1210.37 756.99 1207.15 745.72"/></g><path class="cls-5" d="M319,1239c.1-1.29.05-2.57.14-3.85a5,5,0,0,1,.05-.55c-.05-.16-.1-.38-.17-.71a14.77,14.77,0,0,1-.25-3.08l-1.54.67-.8-2.41-3-10.76-6.84-12.88-5.43-4.73-5.23-.3-2.82,2.42L291,1212.89l.2,5.43,4.43,15,7,12.07,6.44,4.13,3.92-1.31,5.14-2.08C318.43,1243.75,318.79,1241.39,319,1239Z" transform="translate(-155.37 -153.94)"/><path class="cls-6" d="M1443.88,835.25s15.62-69.75-105.88-91.5c0,0,43.5-109.75-2-202.25,0,0-40.33-98.5-157-163.17l-88.62-47.58-49.63-20.12,90.13,5.37,69.62,12.25L1280,355l60.75,31.75L1392.67,422,1436,469.33l27.75,39.92L1487.67,554s28.66,72.33,30,125.67h0l-3.17,62,6,34.66,20.17,27.34,17,2.33,10.21,1Z" transform="translate(-155.37 -153.94)"/><path class="cls-5" d="M1443.39,835.69c14.49-74.24-106.22-91.74-106.22-91.74C1358.3,706.53,1357.09,619,1357.09,619l-4.23-24.14-12.07-41-13.88-33.19L1300.36,482l-21.93-24.94-27.56-26.36-44.06-35.6L1176,374.6l-69.4-35L1044.26,311c467.53,90.93,344,409.58,344,409.58,64.78,2,101.39,104.21,101.39,104.21Z" transform="translate(-155.37 -153.94)"/><polyline class="cls-7" points="1231.85 713.13 1234.45 700.61 1244.56 692.81 1265.39 686.88 1289.46 681.31 1407.82 652.78 1418.08 650.97 1431.96 655.19 1445.54 667.57 1449.76 689.9 1447.35 707.7 1442.52 717.66 1431.66 724 1259.95 765.34 1250.3 763.52 1243.51 758.55 1237.47 751 1246.07 748.74 1255.47 745.37 1259.05 738.78 1260.56 727.62 1257.84 719.17 1251.51 710.72 1243.96 710.42 1233.7 713.33 1231.85 713.13"/><path class="cls-5" d="M1389.08,867.27l-1-11.47,7.44-6.84,4.43-2.21s49.89,16.5,19.92,70.81l-6.84,1.61-14.69-6-3.62-8.25,9.45-2.41,8.45-5.24,2.22-11.66-3-12.48-3.62-7.84-8.25-2.21-10.86,4.22" transform="translate(-155.37 -153.94)"/><g id="Lager_18" data-name="Lager 18"><path class="cls-8" d="M1043.41,312.89s456.11,15.24,454.74,397.31c0,.51,0,1,0,1.53.82,9,9.44,93.27,42.58,91.37h0s-25.63-5.61-25.35-78c0-.33,0-.65,0-1,.57-6.41,6.33-77-10.23-114.79a12.07,12.07,0,0,1-.46-1.27l-10.83-37.92a10.67,10.67,0,0,0-.62-1.66L1464,505.94a10.75,10.75,0,0,0-1.1-1.85c-6.28-8.53-57.22-77.16-74.2-82.82h0s-66-55.53-123.11-71.62c-50-14.08-71.19-21.54-75.7-23.18a11.59,11.59,0,0,0-2-.53l-52.75-8.62c-.22,0-.45-.07-.68-.09l-73.14-7.36c-.37,0-.73-.05-1.1-.05h-16.75l0,3.07" transform="translate(-155.37 -153.94)"/><path class="cls-8" d="M1548.5,808.5s50-8.64,51.25,57.75l4.88-10.55-.9-17.8-4.13-15.19-9-11.77L1580,805.11l-11.87-1.51Z" transform="translate(-155.37 -153.94)"/></g></g><g id="Lager_15" data-name="Lager 15"><polygon class="cls-9" points="350.15 983.51 394.81 983.51 422.57 975.06 439.47 917.12 427.4 857.98 413.52 848.72 409.9 841.88 399.03 830.01 386.36 822.17 367.45 815.93 339.89 816.13 327.01 824.58 289.8 886.95 309.71 955.75 350.15 983.51"/></g><g id="Lager_13" data-name="Lager 13"><path class="cls-9" d="M637.56,1407.69l-11.67-25.54-10.26-25.55L606,1328.23l-9.25-29.57-4.22-20.12L581.63,1223s-6.44-38.73-11.26-101.19h0s-3.62-73.83-2-75.84h0s5.44-83.89,9.86-90.94h0s13.28-64.37,20.22-79.16,16.9-45.86,27.16-61.56h0l11.77-21.42,19.31-27.76L678.4,739.5l27-27.66,30.58-26,38.22-26.36,39.28-21.42,30.93-14.34,36.52-13,41.64-11L950,595.26l33.5-4.23,38.92-.15,32.89,2.11,20.83,3s59,12.52,71.36,19.31,39.68,17,47.08,23.54h0l22.78,15.39,15.24,11.62,11.47,10.56,15.54,15.09,12.07,13.73,10.41,12.82,9.2,12.68L1303,749.86l7.24,10.66,8.25,14.89,9,19.91,8.05,17.71,3.82,10.66,6.44,17.1,7.44,24.54,3.22,15.09,6.24,23.54,4,23.33,3.82,32.19,1.61,12.67,1.41,11.67,3.42,52.51.2,47.07-2.61,57.34-8.05,89.52-5.23,51.1-4.63,28.36-4.62,16.3-.41,2.21,25.35-.6,36.21,2.61,26.15,4,21.93,5,26.16,8.85,17.09,8.25,17.71,14.28,11.47,15.89s10.86,11.87-3.42,13.08h0l-20.93-6.24-10.86-3.22s-14.48-4-40.84-1h0l-24.54,6.64-20.47,7.54-24.35,12.84-17.9,12.66-20.22,18-20.06,20.82-23.69,25.65-25.35,25-19.16,16-13.88,10.11-14.64,7.24-20.06,11.47-22.33,9.81-21.43,7.69-20.52,6.94-21.27,6.34-33.8,7.39-36.36,5.74-35.31,4.37-38.62,3-40,1.51-26.85-2.26-25.35-3.32-25.05-4.83-25.8-8.3L811,1585.48l-25.8-12.67L764.85,1560l-22.63-16.59L722.91,1526l-17.2-17.35L692,1493.29l-15.24-20.52-13.88-20.06-15.85-26-9.45-19.07" transform="translate(-155.37 -153.94)"/></g><g id="Lager_12" data-name="Lager 12"><polygon class="cls-10" points="306.29 1018.31 356.99 998.8 370.26 997.99 388.77 995.58 399.23 991.76 416.54 983.43 419.33 1011.27 425.19 1056.33 426.19 1064.28 416.03 1064.68 392.7 1064.68 370.87 1060.15 348.74 1051.91 335.56 1044.56 322.79 1035.31 311.62 1025.65 305.69 1019.92 306.29 1018.31"/><path class="cls-10" d="M-214,840" transform="translate(-155.37 -153.94)"/><path class="cls-10" d="M975.75,592.25S823,645.67,732,811c-57.31,104.12-107.42,282.62-40.5,468,0,0,77.42,249.64,286.5,278.33,75,10.3,163,.22,276-71.33,0,0,136.67-138.67,228.17-114.67,0,0,29.5,10.17,36.33,17.5,0,0,10,5.84,19.5,2.34l-.17,7.16-7.83,1.5-32-10-38.83-2.16L1421.5,1400l-48,24.83-66,67.79-34,34.05-65.75,40.21-82.58,27.95-74,13.67-103,6.88-65-6.21L807.5,1583.5l-67-42.17-50.25-49.7-39.75-61.38-27.75-56-29.75-93-10.43-58.91-11.07-82.09-3-91L576,972l11.67-61.67,22.83-65,29.83-59.21,55-64.59,66.84-54.66,69.33-38.25,53.83-20.84L934,596.33Z" transform="translate(-155.37 -153.94)"/><path class="cls-10" d="M492.33,973c-19.58-5.13-94.64,171.54,77.42,146.88.34-.05,1.29,7.18,1.63,7.15h0l-.38,9-7.67,5.33L536.67,1151l-12.34,1.33-25-3-23-8L464,1130l-16.67,8-10.66,4.67-7.34-18L419,1083l2.67-36.33,6.66-22.34L441.67,1005,463,983.33l18.67-8.66Z" transform="translate(-155.37 -153.94)"/></g><g id="Lager_16" data-name="Lager 16"><circle class="cls-11" cx="828.24" cy="828.33" r="826.74"/></g><g id="Lager_9" data-name="Lager 9"><path class="cls-12" d="M1393.05,904.16c1.9,4,4.31,7.22,7.29,9.18,0,0,4.43,5.63,16.9,5.23s173-42.65,173-42.65,14.89-7.24,14.08-22.53.4-36.61-20.52-46.67c0,0-7.24-4.83-22.53-1.61s-20.52-2-20.52-2-32.19-20.52-24.14-82.49S1507.37,319.07,1033,309.42c0,0,420.05,129.15,304.17,434.53,0,0,111,12.07,106.22,89.32l-40.23,12.47s-10.06,1.21-14.08,10.87a35.46,35.46,0,0,0-1.86,10.46" transform="translate(-155.37 -153.94)"/></g><g id="Lager_8" data-name="Lager 8"><path class="cls-12" d="M1364.83,911.27q22.08-5.17,44.77-10.4" transform="translate(-155.37 -153.94)"/><path class="cls-13" d="M571.88,1131.31" transform="translate(-155.37 -153.94)"/><path class="cls-12" d="M349.84,1223.83c13.9-8.08,59.73-32.61,163.5-71.37" transform="translate(-155.37 -153.94)"/><path class="cls-12" d="M1356.42,874.4q23.24-5.43,47.14-10.95" transform="translate(-155.37 -153.94)"/><path class="cls-13" d="M569.41,1092.64" transform="translate(-155.37 -153.94)"/><path class="cls-12" d="M339,1189.35s30.68-20.32,126-58" transform="translate(-155.37 -153.94)"/><path class="cls-12" d="M1402.6,863.3c.93-.57,2.12.11,3,.82a27.08,27.08,0,0,1,5.3,35.19c-.65,1-1.62,2.09-2.8,1.89" transform="translate(-155.37 -153.94)"/><path class="cls-12" d="M328.41,1183.91a4.24,4.24,0,0,1,.59-.23c5.91-1.85,14.23,7.91,18.57,21.8s3.08,26.64-2.82,28.49" transform="translate(-155.37 -153.94)"/><path class="cls-12" d="M294.19,1227.86c-4.35-13.89-3.08-26.64,2.83-28.49a5.08,5.08,0,0,1,.94-.2c5.83-.62,13.51,8.84,17.63,22,3.85,12.33,3.29,23.77-1,27.47a5,5,0,0,1-1.81,1C306.85,1251.51,298.54,1241.75,294.19,1227.86Z" transform="translate(-155.37 -153.94)"/><line class="cls-14" x1="190.82" y1="1079.77" x2="157.38" y2="1095.73"/><line class="cls-12" x1="173.63" y1="1029.74" x2="142.59" y2="1045.23"/></g><g id="Lager_11" data-name="Lager 11"><path class="cls-12" d="M437.59,1084.32a87.51,87.51,0,0,0,52.57,62.35c26.34,10.4,57.81,6.65,81-9.65" transform="translate(-155.37 -153.94)"/><path class="cls-12" d="M438.08,1142c-16.37-29.46-23.45-64.73-15.38-97.4,8.37-33.83,34.39-63.84,68.09-72.72,15.76-4.15,32.92-3.63,48,2.65s27.76,18.5,33.5,33.77" transform="translate(-155.37 -153.94)"/><path class="cls-13" d="M439.85,1145.11" transform="translate(-155.37 -153.94)"/><path class="cls-12" d="M581.87,1217.25c-27.84,4.75-57.09-.63-82.07-13.81a147.59,147.59,0,0,1-39.14-30.28" transform="translate(-155.37 -153.94)"/></g><g id="Lager_2" data-name="Lager 2"><path class="cls-12" d="M996.33,1613.08c-39.63,3.18-79.27,2.64-118.5-6.12a329.29,329.29,0,0,1-124.57-56.73c-50.25-37.34-88.34-88.55-115.44-144.62C597,1321.19,579.3,1226.88,571.92,1134c-.19-2.33-.36-4.66-.54-7-7.68-104,4-213.1,51.7-307.11,90.55-178.44,333.21-278.5,522.17-206.21a308,308,0,0,1,86.94,50.73c48.7,40.51,84.49,95.92,106.93,154.78,25,65.51,35.53,135.91,38.39,205.69,1.91,46.52.31,93.16-3.63,139.54-1.33,15.66-14,162.52-22.75,163,0,0,128.82-6.33,173.81,45.06,37,42.3-12.13,21-12.14,21-37.3-16.13-92.11,2.29-123.48,22-53.39,33.62-84.19,91.8-137.46,125.72C1175.12,1590.13,1085.64,1605.91,996.33,1613.08Z" transform="translate(-155.37 -153.94)"/></g><g id="Lager_23" data-name="Lager 23"><path class="cls-9" d="M1500.52,1162.69c2.44-11.32,2-22.83-5-33.4a13.17,13.17,0,0,0-6-5c-11.7-14.69-31.52-22.21-50.53-21.4-14.47.61-28.32,4.92-41.72,10.14-7.34,2.85-14.63,5.87-21.66,9.44-6.34,3.21-13.91,7-15.12,14.45a4.71,4.71,0,0,0,2,5c.29.22.58.41.86.6l-.39.3c-3.46,2.69-4.13,8.17-2.79,12.31-1.06,1.69-2,3.42-3,5.22a13.16,13.16,0,0,0-1.09,9.32c-.77,1.29-1.51,2.59-2.21,3.92a12,12,0,0,0,.81,12.78,137.81,137.81,0,0,0-6.12,12.65c-1.52,3.63.06,8.12,2.71,11.13-.55,2-.94,4.12-1.47,5.87a5.7,5.7,0,0,0-.16,2.7c-.18.61-.38,1.22-.55,1.84a11,11,0,0,0,.89,8.26,13.33,13.33,0,0,0,4.25,6.74,93.22,93.22,0,0,0-5.63,10.58,12.9,12.9,0,0,0-.21,10.61l-.66,1.36c-6,.18-11.79,3.69-11.89,10.4-.28,18.47,26,14.94,37.58,13,13.41-2.27,26.18-7.22,38.51-12.83s24.72-11.62,35.52-19.66c24.38-18.15,41.16-46.51,53.26-73.92C1502.63,1171,1502.72,1166.31,1500.52,1162.69Z" transform="translate(-155.37 -153.94)"/></g><g id="Lager_24" data-name="Lager 24"><path class="cls-10" d="M1302.25,1283.5s218.5-38.75,161.75-178.17l10.33,4.34,17.67,13,8.33,16,3,20.66-7.66,31L1477,1222l-17.67,16-19,16-25,13.67-29.66,12-34.34,6.33-18.66,1.67Z" transform="translate(-155.37 -153.94)"/></g><g id="Lager_22" data-name="Lager 22"><path class="cls-12" d="M1306.48,1181.42a298,298,0,0,1,66.7-57.22c19.46-12.22,41.08-22.37,64-23.32s47.45,8.95,58.82,28.92c15.19,26.68,2.85,61-15.86,85.35-41.16,53.53-113.43,81.18-179.81,68.8" transform="translate(-155.37 -153.94)"/></g><g id="Lager_4" data-name="Lager 4"><ellipse class="cls-15" cx="589.04" cy="1005.12" rx="57.94" ry="28.28"/><ellipse class="cls-15" cx="1023.57" cy="1007.19" rx="57.94" ry="28.28"/></g><g id="Lager_7" data-name="Lager 7"><path class="cls-16" d="M959.61,1113.3a46,46,0,0,1,46,46c0,1.56-.09,3.11-.24,4.64,9.58-14,15.41-32.33,15.41-52.46a99.4,99.4,0,0,0-4.08-28.4c-11,13.34-32.65,22.42-57.54,22.42-24.39,0-45.65-8.72-56.86-21.63a100,100,0,0,0-3.83,27.61c0,20.13,5.82,38.5,15.4,52.46-.15-1.53-.23-3.08-.23-4.64A46,46,0,0,1,959.61,1113.3Z" transform="translate(-155.37 -153.94)"/><path class="cls-17" d="M959.61,1190.56c18.21,0,34.55-10.3,45.75-26.63.15-1.53.24-3.08.24-4.64a46,46,0,1,0-92,0c0,1.56.08,3.11.23,4.64C925.07,1180.26,941.41,1190.56,959.61,1190.56Z" transform="translate(-155.37 -153.94)"/></g><g id="Lager_21" data-name="Lager 21"><ellipse class="cls-18" cx="658.29" cy="866.08" rx="63.83" ry="96.43"/><ellipse class="cls-18" cx="950.38" cy="866.08" rx="63.83" ry="96.43"/></g><g id="Lager_26" data-name="Lager 26"><circle class="cls-11" cx="828.24" cy="828.33" r="826.74"/></g></svg>