<svg id="图层_1" data-name="图层 1" xmlns="http://www.w3.org/2000/svg" xmlns:xlink="http://www.w3.org/1999/xlink" viewBox="0 0 115 115"><defs><style>.cls-1{fill:none;clip-rule:evenodd;}.cls-2{clip-path:url(#clip-path);}.cls-3{fill:url(#未命名的渐变_22);}.cls-4{clip-path:url(#clip-path-2);}.cls-5{fill:#fff;}</style><clipPath id="clip-path"><path class="cls-1" d="M114.82,57.5A57.32,57.32,0,1,1,57.5.18,57.32,57.32,0,0,1,114.82,57.5"/></clipPath><linearGradient id="未命名的渐变_22" x1="57.5" y1="-3.13" x2="57.5" y2="118.13" gradientUnits="userSpaceOnUse"><stop offset="0" stop-color="#007ceb"/><stop offset="0.38" stop-color="#0079e9"/><stop offset="0.66" stop-color="#0070e1"/><stop offset="0.91" stop-color="#0060d4"/><stop offset="1" stop-color="#0058ce"/></linearGradient><clipPath id="clip-path-2"><path class="cls-1" d="M57.62,49a9.6,9.6,0,1,1-9.6,9.8V49Zm-19-45.61v55.7a19,19,0,1,0,19.34-19H48V33.43h9.6A25.64,25.64,0,1,1,32,59.49V6.16A57.53,57.53,0,0,1,38.59,3.37ZM22.05,12.45V59.07A35.57,35.57,0,1,0,58.2,23.5H48V16.88h9.6A42.19,42.19,0,1,1,15.44,59.76V18.56A57.2,57.2,0,0,1,22.05,12.45Z"/></clipPath></defs><title>画板 2logo</title><g class="cls-2"><rect class="cls-3" x="-3.13" y="-3.13" width="121.27" height="121.27"/></g><g class="cls-4"><rect class="cls-5" x="12.12" y="0.06" width="90.99" height="104.5"/></g></svg>