<svg height="250" viewBox="0 0 250 250" width="250" xmlns="http://www.w3.org/2000/svg" xmlns:xlink="http://www.w3.org/1999/xlink"><linearGradient id="a"><stop offset="0" stop-color="#5bf3bf"/><stop offset="0" stop-color="#63f2c1"/><stop offset="1" stop-color="#00faa6"/></linearGradient><linearGradient id="b" gradientTransform="matrix(.408497 0 0 -.408497 0 323.529412)" gradientUnits="userSpaceOnUse" x1="125.549896" x2="486.420013" xlink:href="#a" y1="486.176605" y2="486.176605"/><linearGradient id="c" gradientTransform="matrix(.408497 0 0 -.408497 0 323.529412)" gradientUnits="userSpaceOnUse" x1="90.892303" x2="521.107727" xlink:href="#a" y1="486.105011" y2="486.105011"/><path d="m51.308594 84.96875c13.929687-1.023438 29.289062 7.105469 37.5 19.6875 1.304687-1.550781 2.492187-3.0625 3.839844-4.492188 8.25-8.824218 23.609374-7.3125 30.554687 2.328126 4.617187 6.414062 6.984375 13.5625 9.886719 20.546874 2 4.820313 3.878906 9.761719 6.617187 14.296876 2.695313 4.453124 7.3125 4.453124 10.007813 0 2.285156-3.714844 3.511718-8.332032 4.328125-12.417969 1.265625-6.207031 2.535156-12.089844 5.882812-17.769531 4.167969-7.066407 9.804688-13.113282 17.851563-17.320313 6.414062-3.308594 13.152344-5.308594 20.914062-5.066406v13.6875c-17.726562.816406-28.714844 14.621093-28.265625 26.960937.40625 12.050782 11.3125 25.039063 28.308594 25.609375v13.320313c-10.292969 2.164062-28.554687-5.800782-36.804687-18.914063-1.1875 1.265625-4.332032 8.699219-16.300782 9.722657-12.132812.898437-18.464844-5.1875-22.386718-13.890626-3.472657-7.800781-6.25-15.890624-9.394532-23.816406-.695312-1.714844-1.550781-3.472656-2.65625-5.023437-2.859375-4.042969-7.800781-3.226563-11.109375 1.472656-3.554687 5.023437-4.535156 10.621094-5.515625 16.257813-1.46875 8.578124-5.351562 16.09375-12.296875 22.464843-5.921875 5.476563-12.742187 9.558594-21.238281 11.277344-3.066406.609375-6.25.773437-9.683594 1.140625 0-4.902344 0-9.394531 0-14.132812 8.292969.121093 15.195313-2.941407 20.464844-8.25 5.882812-5.882813 8.867188-12.867188 7.804688-20.753907-1.390626-10.457031-11.152344-22.589843-28.390626-23.488281.082032-4.371094.082032-8.824219.082032-13.4375zm0 0" fill="url(#b)"/><path d="m212.867188 70.671875v108.578125h-175.734376v-108.578125zm14.09375-14.09375h-203.921876v136.761719h203.921876zm0 0" fill="url(#c)"/></svg>