<svg height="250" viewBox="0 0 250 250" width="250" xmlns="http://www.w3.org/2000/svg"><path d="m250 125c0 69.035156-55.964844 125-125 125s-125-55.964844-125-125 55.964844-125 125-125 125 55.964844 125 125zm0 0" fill="#fff"/><path d="m208.332031 76.015625-84.292969-49.972656-82.199218 49.074219-.171875 98.867187 82.894531 49.972656 83.769531-48.894531zm-84.117187-34.875 62.257812 37.03125-61.910156 37.03125-62.257812-37.03125zm-7.171875 162.324219-62.609375-36.851563v-73.699219l62.433594 37.027344v73.523438zm16.089843-72.441406 62.433594-37.03125v73.519531l-62.433594 37.210937zm0 0" fill="#4aa956"/></svg>