<svg height="250" viewBox="0 0 250 250" width="250" xmlns="http://www.w3.org/2000/svg"><path d="m164.648438 78.027344c0-.488282 0-.878906 0-1.367188 0-.488281-.097657-.976562-.097657-1.464844-.683593-9.179687-6.347656-15.527343-14.0625-19.53125-8.398437-4.296874-19.628906-5.175781-29.101562-5.273437-11.523438 0-23.730469.683594-34.765625 3.222656l-28.515625 119.140625c8.691406 2.050782 20.898437 3.027344 30.46875 3.320313h1.464843c1.367188 0 2.734376.097656 4.101563.097656 6.445313 0 12.695313-.292969 18.261719-1.074219 20.3125-2.832031 37.304687-10.449218 43.847656-28.90625-3.515625-2.34375-8.789062-3.417968-15.820312-3.417968h-6.25c-2.929688 7.128906-9.863282 11.328124-17.1875 13.183593-.488282.097657-.976563.292969-1.464844.390625-10.253906 2.050782-21.484375 1.855469-31.445313.683594l9.179688-37.792969h10.546875c1.171875-4.980469 2.929687-12.207031 4.101562-17.1875h-10.644531l7.8125-32.421875c10.15625-.976562 27.441406-2.734375 34.570313 4.6875 2.050781 2.34375 2.734374 5.46875 2.734374 8.59375.195313 7.910156-4.882812 13.378906-11.71875 16.308594l-5.273437 21.679688c2.929687.976562 5.078125 2.441406 6.835937 4.6875 7.714844 0 16.894532.390624 24.121094-2.34375-2.734375-6.445313-7.617187-10.9375-14.550781-13.769532 9.179687-3.90625 15.039063-8.496094 18.75-15.332031 2.734375-4.980469 4.199219-10.449219 4.101563-16.113281zm0 0"/><g fill="#ffa214"><path d="m125 .390625c-68.75 0-124.609375 55.859375-124.609375 124.609375s55.859375 124.609375 124.609375 124.609375 124.609375-55.859375 124.609375-124.609375-55.859375-124.609375-124.609375-124.609375zm0 232.03125c-59.277344 0-107.421875-48.242187-107.421875-107.421875 0-59.277344 48.144531-107.421875 107.421875-107.421875s107.421875 48.242187 107.421875 107.421875c0 59.277344-48.144531 107.421875-107.421875 107.421875zm0 0"/><path d="m177.539062 79.296875c-3.90625-1.953125-8.203124-3.320313-12.988281-4.003906.097657.585937.097657 1.171875.097657 1.757812v1.757813c-.097657 3.515625-.683594 6.933594-1.855469 10.15625v.097656c-.585938 1.660156-1.367188 3.320312-2.246094 4.980469 5.566406 1.660156 8.886719 5.566406 8.789063 12.304687 0 3.417969-.78125 6.347656-2.34375 8.691406-2.441407 3.808594-6.347657 6.640626-10.742188 8.203126-7.226562 2.734374-16.40625 2.34375-24.121094 2.34375h-8.007812l1.171875-4.6875c1.074219-4.492188 5.761719-23.730469 6.738281-27.832032 1.757812-.292968 4.589844-.488281 7.324219-.683594 3.613281-4.6875 4.199219-13.183593.195312-18.164062-8.59375.292969-17.871093 1.171875-25.976562 3.027344-2.636719 10.839844-7.519531 31.347656-10.058594 41.894531l-9.277344 38.574219c7.324219.195312 15.136719 0 22.558594-1.855469l3.222656-13.183594h20.214844c12.109375-.097656 21.777344 3.613281 22.167969 15.429688-.195313 25.390625-33.691406 24.316406-51.464844 22.363281 0 0 1.269531-5.46875 1.269531-5.46875-6.738281.878906-14.84375 1.171875-22.265625.976562 0 0-4.882812 20.214844-4.882812 20.214844 10.644531 2.441406 25.683594 3.320313 36.914062 3.417969 20.410156 0 36.035156-3.808594 46.875-11.328125 10.839844-7.617188 16.210938-18.261719 16.210938-32.128906.097656-10.839844-6.25-19.140625-16.308594-23.242188 8.300781-3.417968 14.160156-7.910156 17.675781-13.476562 5.957031-9.082032 7.519531-23.046875 1.269531-31.640625-2.636718-3.613281-6.054687-6.445313-10.15625-8.496094zm0 0"/></g></svg>