<?xml version="1.0" encoding="UTF-8" standalone="no"?>
<svg
   xmlns:dc="http://purl.org/dc/elements/1.1/"
   xmlns:cc="http://creativecommons.org/ns#"
   xmlns:rdf="http://www.w3.org/1999/02/22-rdf-syntax-ns#"
   xmlns:svg="http://www.w3.org/2000/svg"
   xmlns="http://www.w3.org/2000/svg"
   viewBox="0 0 105.33333 105.33333"
   height="105.33333"
   width="105.33333"
   xml:space="preserve"
   id="svg2"
   version="1.1"><metadata
     id="metadata8"><rdf:RDF><cc:Work
         rdf:about=""><dc:format>image/svg+xml</dc:format><dc:type
           rdf:resource="http://purl.org/dc/dcmitype/StillImage" /></cc:Work></rdf:RDF></metadata><defs
     id="defs6"><clipPath
       id="clipPath18"
       clipPathUnits="userSpaceOnUse"><path
         id="path16"
         d="M 0,79 H 79 V 0 H 0 Z" /></clipPath><clipPath
       id="clipPath38"
       clipPathUnits="userSpaceOnUse"><path
         id="path36"
         d="m 44.2344,62.4487 h 6.0728 v -4.0673 h -6.0728 z" /></clipPath><clipPath
       id="clipPath54"
       clipPathUnits="userSpaceOnUse"><path
         id="path52"
         d="M 23.5773,60.3583 H 39.1118 V 47.3051 H 23.5773 Z" /></clipPath><clipPath
       id="clipPath70"
       clipPathUnits="userSpaceOnUse"><path
         id="path68"
         d="m 48.2272,60.081 h 7.4365 v -4.4242 h -7.4365 z" /></clipPath><clipPath
       id="clipPath86"
       clipPathUnits="userSpaceOnUse"><path
         id="path84"
         d="M 26.5887,52.4865 H 46.2441 V 35.0028 H 26.5887 Z" /></clipPath><clipPath
       id="clipPath106"
       clipPathUnits="userSpaceOnUse"><path
         id="path104"
         d="M 29.3505,50.8243 H 61.3433 V 22.3687 H 29.3505 Z" /></clipPath><clipPath
       id="clipPath126"
       clipPathUnits="userSpaceOnUse"><path
         id="path124"
         d="m 44.133,50.6389 h 4.5592 V 45.8891 H 44.133 Z" /></clipPath><clipPath
       id="clipPath142"
       clipPathUnits="userSpaceOnUse"><path
         id="path140"
         d="M 51.0639,46.9063 H 54.066 V 42.454 h -3.0021 z" /></clipPath><clipPath
       id="clipPath158"
       clipPathUnits="userSpaceOnUse"><path
         id="path156"
         d="m 56.447,43.9308 h 5.172 V 33.8266 h -5.172 z" /></clipPath><clipPath
       id="clipPath174"
       clipPathUnits="userSpaceOnUse"><path
         id="path172"
         d="M 29.4113,40.3556 H 58.4801 V 20.6864 H 29.4113 Z" /></clipPath><clipPath
       id="clipPath194"
       clipPathUnits="userSpaceOnUse"><path
         id="path192"
         d="m 39.2242,35.2069 h 9.4774 v -6.8 h -9.4774 z" /></clipPath><clipPath
       id="clipPath210"
       clipPathUnits="userSpaceOnUse"><path
         id="path208"
         d="m 27.5935,33.5182 h 3.8369 v -6.3046 h -3.8369 z" /></clipPath><clipPath
       id="clipPath226"
       clipPathUnits="userSpaceOnUse"><path
         id="path224"
         d="m 22.7721,25.031 h 8.2931 v -4.3213 h -8.2931 z" /></clipPath></defs><g
     transform="matrix(1.3333333,0,0,-1.3333333,0,105.33333)"
     id="g10"><g
       id="g12"><g
         clip-path="url(#clipPath18)"
         id="g14"><g
           transform="translate(38.6034,69.7834)"
           id="g20"><path
             id="path22"
             style="fill:#654785;fill-opacity:1;fill-rule:nonzero;stroke:none"
             d="m 0,0 h 0.093 c 16.078,0 29.112,-13.034 29.112,-29.113 0,-16.078 -13.034,-29.113 -29.112,-29.113 H 0 c -16.079,0 -29.113,13.035 -29.113,29.113 C -29.113,-13.034 -16.079,0 0,0" /></g><g
           transform="translate(38.7127,69.5612)"
           id="g24"><path
             id="path26"
             style="fill:none;stroke:#ae7fd9;stroke-width:2;stroke-linecap:butt;stroke-linejoin:miter;stroke-miterlimit:4;stroke-dasharray:none;stroke-opacity:1"
             d="m 0,0 h 0.096 c 16.016,0 29,-12.984 29,-29 0,-16.016 -12.984,-29 -29,-29 H 0 c -16.016,0 -29,12.984 -29,29 0,16.016 12.984,29 29,29 z" /></g><g
           transform="translate(19.1475,43.9028)"
           id="g28"><path
             id="path30"
             style="fill:#ae7fd9;fill-opacity:1;fill-rule:nonzero;stroke:none"
             d="m 0,0 c -0.368,-2.282 -0.371,-4.619 0.012,-6.9 0.643,1.187 1.369,2.326 2.121,3.448 C 1.372,-2.332 0.662,-1.181 0,0 M 23.818,8.584 C 22.567,8.282 21.334,7.903 20.13,7.453 L 20.18,7.432 C 19.108,7.141 18.104,6.602 17.079,6.166 16.993,5.468 16.702,4.77 16.131,4.331 15.38,3.701 14.263,3.606 13.4,4.06 12.375,3.373 11.358,2.665 10.428,1.851 9.363,1.011 8.379,0.072 7.441,-0.905 6.659,-1.714 5.935,-2.575 5.236,-3.454 6.004,-4.42 6.801,-5.364 7.674,-6.238 l -0.005,-0.02 c 0.935,-0.919 1.879,-1.833 2.913,-2.642 0.818,-0.684 1.687,-1.302 2.565,-1.902 0.777,0.514 1.837,0.548 2.639,0.072 0.816,-0.458 1.279,-1.392 1.251,-2.314 0.997,-0.47 2.002,-0.925 3.04,-1.298 1.223,-0.461 2.476,-0.844 3.746,-1.154 1.195,-0.296 2.409,-0.508 3.628,-0.682 0.476,1.174 0.903,2.369 1.24,3.592 l 0.017,0.008 c 0.341,1.28 0.643,2.572 0.846,3.882 0.162,0.996 0.262,1.999 0.346,3.005 -0.645,0.282 -1.184,0.818 -1.413,1.489 -0.462,1.211 0.214,2.664 1.41,3.136 -0.078,1.022 -0.179,2.043 -0.352,3.052 -0.194,1.309 -0.503,2.597 -0.849,3.871 -0.342,1.158 -0.733,2.298 -1.18,3.418 C 26.273,9.106 25.035,8.891 23.818,8.584 m -7.205,7.872 C 15.379,16.244 14.151,15.954 12.979,15.505 10.875,14.759 8.925,13.62 7.174,12.243 6.188,11.414 5.24,10.531 4.43,9.526 2.96,7.778 1.763,5.775 1,3.625 1.771,1.899 2.681,0.234 3.723,-1.346 c 1.395,1.717 2.965,3.29 4.62,4.748 1.052,0.821 2.069,1.7 3.211,2.393 l -10e-4,0.027 c 0.174,0.115 0.346,0.235 0.516,0.36 0.003,0.514 0.131,1.032 0.426,1.459 0.704,1.109 2.32,1.446 3.416,0.723 0.185,0.084 0.371,0.17 0.558,0.254 1.133,0.559 2.324,0.986 3.495,1.45 2.111,0.697 4.28,1.228 6.474,1.592 -0.841,1.639 -1.786,3.225 -2.876,4.713 -2.29,0.424 -4.648,0.438 -6.949,0.083 m -2.011,2.148 c 3.404,0.815 6.991,0.794 10.402,0.028 0.02,-0.03 0.061,-0.087 0.083,-0.117 0.81,-1.103 1.595,-2.225 2.29,-3.404 0.623,-1.025 1.168,-2.092 1.695,-3.169 1.404,0.083 2.815,0.148 4.222,0.066 1.078,-0.028 2.149,-0.156 3.222,-0.254 l 0.127,-0.008 C 37.956,10.288 39.077,8.662 39.98,6.922 39.607,5.791 39.197,4.675 38.724,3.583 37.935,5.671 36.803,7.616 35.408,9.358 33.65,9.554 31.876,9.581 30.108,9.508 30.907,7.4 31.506,5.22 31.916,3.004 c 0.209,-1.279 0.387,-2.566 0.462,-3.862 -0.151,-0.661 0.534,-0.938 0.724,-1.488 0.476,-0.997 0.161,-2.253 -0.677,-2.958 -0.011,-0.131 -0.031,-0.39 -0.042,-0.519 -0.037,-0.567 -0.08,-1.133 -0.151,-1.697 -0.08,-0.771 -0.208,-1.537 -0.333,-2.304 -0.41,-2.248 -1.034,-4.454 -1.849,-6.589 1.735,-0.08 3.472,-0.041 5.201,0.119 1.538,1.843 2.763,3.951 3.559,6.218 0.423,1.145 0.693,2.338 0.91,3.536 0.594,-1.131 1.156,-2.277 1.661,-3.45 l 0.057,-0.125 c -1.04,-3.256 -2.79,-6.32 -5.182,-8.765 -2.409,-0.015 -4.825,-0.166 -7.229,0.046 -0.579,-1.078 -1.122,-2.177 -1.759,-3.224 -1.114,-0.433 -2.261,-0.777 -3.431,-1.017 l -0.268,-0.059 c 1.039,1.463 1.984,2.993 2.799,4.591 -2.197,0.349 -4.367,0.874 -6.466,1.612 -1.209,0.427 -2.401,0.909 -3.556,1.463 -0.243,0.119 -0.487,0.232 -0.73,0.346 -0.696,-0.31 -1.529,-0.335 -2.211,0.026 -0.763,0.381 -1.284,1.172 -1.356,2.016 -0.092,0.067 -0.276,0.203 -0.368,0.271 -1.132,0.734 -2.194,1.568 -3.235,2.424 -1.712,1.468 -3.297,3.08 -4.725,4.823 -1.033,-1.557 -1.917,-3.207 -2.701,-4.902 0.795,-2.197 2.049,-4.208 3.546,-5.995 1.853,-0.159 3.719,-0.202 5.576,-0.076 0.016,-0.039 0.047,-0.115 0.061,-0.154 0.312,-0.765 0.641,-1.522 0.994,-2.27 -1.248,-0.089 -2.497,-0.171 -3.748,-0.143 -1.278,0.017 -2.551,0.109 -3.824,0.23 -0.072,0.01 -0.216,0.027 -0.287,0.036 -2.931,3.138 -4.97,7.107 -5.738,11.333 -0.554,2.988 -0.513,6.093 0.155,9.061 0.816,3.686 2.59,7.15 5.089,9.979 3.063,3.492 7.229,6.009 11.758,7.067" /></g><g
           id="g32"><g
             id="g34" /><g
             id="g46"><g
               style="opacity:0.19000202"
               id="g44"
               clip-path="url(#clipPath38)"><g
                 id="g42"
                 transform="translate(44.2344,62.4178)"><path
                   id="path40"
                   style="fill:#303030;fill-opacity:1;fill-rule:nonzero;stroke:none"
                   d="M 0,0 C 0.231,0.089 0.462,-0.037 0.687,-0.084 2.565,-0.614 4.416,-1.329 6.073,-2.368 5.475,-3.036 4.637,-3.418 3.993,-4.036 3.441,-3.792 2.913,-3.41 2.291,-3.404 1.595,-2.225 0.81,-1.103 0,0" /></g></g></g></g><g
           id="g48"><g
             id="g50" /><g
             id="g62"><g
               style="opacity:0.19999701"
               id="g60"
               clip-path="url(#clipPath54)"><g
                 id="g58"
                 transform="translate(32.1263,59.408)"><path
                   id="path56"
                   style="fill:#333333;fill-opacity:1;fill-rule:nonzero;stroke:none"
                   d="M 0,0 C 1.172,0.449 2.4,0.738 3.634,0.95 2.606,-0.57 1.573,-2.103 0.796,-3.772 c 1.875,-0.3 3.726,-0.747 5.53,-1.344 0.235,-0.072 0.452,-0.187 0.66,-0.321 -1.172,-0.464 -2.363,-0.891 -3.496,-1.45 -1.243,0.332 -2.51,0.589 -3.788,0.746 -0.448,-1.083 -0.861,-2.187 -1.153,-3.321 l 0.025,-0.222 10e-4,-0.026 c -1.142,-0.693 -2.159,-1.572 -3.211,-2.393 0.3,2.142 1.043,4.188 1.703,6.236 -1.873,0.112 -3.75,0.066 -5.616,-0.112 0.81,1.005 1.758,1.888 2.745,2.717 1.312,-0.078 2.63,-0.059 3.943,-0.165 0.6,1.153 1.204,2.304 1.861,3.427" /></g></g></g></g><g
           id="g64"><g
             id="g66" /><g
             id="g78"><g
               style="opacity:0.16000402"
               id="g76"
               clip-path="url(#clipPath70)"><g
                 id="g74"
                 transform="translate(50.3072,60.0499)"><path
                   id="path72"
                   style="fill:#2a2a2a;fill-opacity:1;fill-rule:nonzero;stroke:none"
                   d="m 0,0 0.027,0.031 c 1.827,-1.072 3.504,-2.397 4.971,-3.924 0.135,-0.153 0.309,-0.291 0.359,-0.5 -1.074,0.098 -2.144,0.226 -3.222,0.254 -0.587,0.006 -1.032,0.402 -1.464,0.744 -0.861,0.659 -1.807,1.197 -2.751,1.727 0.644,0.618 1.482,1 2.08,1.668" /></g></g></g></g><g
           id="g80"><g
             id="g82" /><g
             id="g98"><g
               style="opacity:0.16000402"
               id="g96"
               clip-path="url(#clipPath86)"><g
                 id="g90"
                 transform="translate(39.2772,51.3555)"><path
                   id="path88"
                   style="fill:#282828;fill-opacity:1;fill-rule:nonzero;stroke:none"
                   d="M 0,0 C 1.205,0.45 2.437,0.829 3.689,1.131 4.796,0.544 5.914,-0.031 6.967,-0.717 6.33,-1.344 5.511,-1.735 4.856,-2.343 3.327,-1.43 1.699,-0.693 0.05,-0.02 Z" /></g><g
                 id="g94"
                 transform="translate(26.5887,42.9977)"><path
                   id="path92"
                   style="fill:#282828;fill-opacity:1;fill-rule:nonzero;stroke:none"
                   d="M 0,0 C 0.938,0.977 1.922,1.916 2.986,2.756 3.125,2.321 3.021,1.869 2.966,1.43 2.582,-1.701 2.692,-4.878 3.141,-7.995 2.106,-7.186 1.162,-6.272 0.228,-5.353 l 0.004,0.02 c 0.114,0.301 0.064,0.624 0.055,0.935 C 0.195,-2.916 0.218,-1.43 0.3,0.053 0.225,0.039 0.075,0.012 0,0" /></g></g></g></g><g
           id="g100"><g
             id="g102" /><g
             id="g118"><g
               style="opacity:0.07000732"
               id="g116"
               clip-path="url(#clipPath106)"><g
                 id="g110"
                 transform="translate(57.8716,47.4858)"><path
                   id="path108"
                   style="fill:#131313;fill-opacity:1;fill-rule:nonzero;stroke:none"
                   d="M 0,0 C 0.473,1.092 0.883,2.207 1.256,3.338 2.386,1.193 3.111,-1.161 3.472,-3.555 3.406,-3.84 3.481,-4.245 3.166,-4.399 2.517,-4.82 1.927,-5.345 1.212,-5.655 1.144,-5.055 1.122,-4.441 0.938,-3.86 0.442,-4.494 0.117,-5.241 -0.343,-5.898 -0.565,-6.289 -0.961,-6.643 -0.91,-7.13 c -0.385,-0.592 -1.025,-0.905 -1.622,-1.237 -1.024,-0.806 -2.141,-1.486 -3.137,-2.328 -0.251,-0.177 -0.543,-0.285 -0.824,-0.408 0.072,0.564 0.114,1.13 0.152,1.697 0.906,0.656 1.615,1.572 2.214,2.505 -0.463,0.659 -1.055,1.215 -1.526,1.869 0.58,0.589 1.468,0.851 1.847,1.627 0.44,-0.426 0.813,-0.912 1.199,-1.385 1.044,1.494 1.83,3.146 2.607,4.79" /></g><g
                 id="g114"
                 transform="translate(31.4304,28.7917)"><path
                   id="path112"
                   style="fill:#131313;fill-opacity:1;fill-rule:nonzero;stroke:none"
                   d="m 0,0 c 0.169,-0.374 0.259,-0.796 0.534,-1.111 1.193,0.153 2.384,0.376 3.529,0.754 C 5.218,-0.911 6.41,-1.393 7.619,-1.82 7.472,-1.926 7.315,-2.01 7.145,-2.07 5.36,-2.69 3.519,-3.138 1.66,-3.48 1.632,-4.04 2.158,-4.473 2.314,-5.002 1.651,-5.465 0.913,-5.828 0.351,-6.423 -0.222,-5.619 -0.61,-4.708 -1.086,-3.848 -1.439,-3.1 -1.768,-2.343 -2.08,-1.578 -1.432,-0.988 -0.566,-0.681 0,0" /></g></g></g></g><g
           id="g120"><g
             id="g122" /><g
             id="g134"><g
               style="opacity:0.13999903"
               id="g132"
               clip-path="url(#clipPath126)"><g
                 id="g130"
                 transform="translate(46.2441,50.6389)"><path
                   id="path128"
                   style="fill:#232323;fill-opacity:1;fill-rule:nonzero;stroke:none"
                   d="M 0,0 C 0.557,-0.246 0.981,-0.798 1.599,-0.879 1.946,-2.153 2.255,-3.441 2.448,-4.75 0.969,-3.65 -0.513,-2.552 -2.111,-1.626 -1.456,-1.019 -0.637,-0.628 0,0" /></g></g></g></g><g
           id="g136"><g
             id="g138" /><g
             id="g150"><g
               style="opacity:0.10000598"
               id="g148"
               clip-path="url(#clipPath142)"><g
                 id="g146"
                 transform="translate(51.0639,46.9063)"><path
                   id="path144"
                   style="fill:#191919;fill-opacity:1;fill-rule:nonzero;stroke:none"
                   d="M 0,0 C 0.268,-0.117 0.529,-0.26 0.736,-0.472 1.514,-1.235 2.305,-1.988 3.002,-2.826 2.623,-3.602 1.735,-3.863 1.155,-4.452 0.95,-4.226 0.71,-4.035 0.462,-3.862 0.387,-2.566 0.209,-1.279 0,0" /></g></g></g></g><g
           id="g152"><g
             id="g154" /><g
             id="g166"><g
               style="opacity:0.03999329"
               id="g164"
               clip-path="url(#clipPath158)"><g
                 id="g162"
                 transform="translate(61.3433,43.9308)"><path
                   id="path160"
                   style="fill:#0b0b0b;fill-opacity:1;fill-rule:nonzero;stroke:none"
                   d="m 0,0 c 0.342,-1.584 0.295,-3.242 0.229,-4.86 -0.206,-1.739 -0.404,-3.518 -1.043,-5.159 -0.506,1.174 -1.068,2.32 -1.662,3.451 -0.217,-1.198 -0.487,-2.391 -0.91,-3.536 -0.627,0.852 -0.984,1.86 -1.51,2.771 0.643,0.485 1.329,0.921 2.033,1.306 0.09,-0.063 0.271,-0.187 0.36,-0.25 0.309,1.359 0.239,2.786 0.244,4.177 0.714,0.31 1.304,0.835 1.953,1.256 C 0.009,-0.69 -0.066,-0.285 0,0" /></g></g></g></g><g
           id="g168"><g
             id="g170" /><g
             id="g186"><g
               style="opacity:0.05000311"
               id="g184"
               clip-path="url(#clipPath174)"><g
                 id="g178"
                 transform="translate(56.9619,40.3556)"><path
                   id="path176"
                   style="fill:#0e0e0e;fill-opacity:1;fill-rule:nonzero;stroke:none"
                   d="m 0,0 c 0.626,-0.735 1.092,-1.591 1.518,-2.452 -0.704,-0.385 -1.39,-0.821 -2.033,-1.306 -0.356,0.575 -0.671,1.181 -1.109,1.699 -0.734,-0.499 -1.15,-1.322 -1.802,-1.91 -0.834,-0.765 -1.519,-1.709 -2.489,-2.308 0.125,0.767 0.253,1.533 0.332,2.304 0.281,0.124 0.573,0.231 0.824,0.409 0.995,0.841 2.113,1.522 3.136,2.327 C -1.025,-0.905 -0.385,-0.592 0,0" /></g><g
                 id="g182"
                 transform="translate(33.7443,23.7894)"><path
                   id="path180"
                   style="fill:#0e0e0e;fill-opacity:1;fill-rule:nonzero;stroke:none"
                   d="m 0,0 c 0.365,-0.453 0.596,-0.997 0.93,-1.472 0.326,-0.536 0.738,-1.021 1.006,-1.589 -1.393,-0.036 -2.788,0.004 -4.181,-0.033 -0.696,0.013 -1.397,-0.054 -2.088,0.055 0.236,0.109 0.443,0.268 0.621,0.456 0.3,0.338 0.85,0.376 1.033,0.826 0.29,-0.116 0.59,-0.2 0.897,-0.256 -0.053,0.2 -0.109,0.399 -0.181,0.592 0.562,0.595 1.3,0.958 1.963,1.421" /></g></g></g></g><g
           id="g188"><g
             id="g190" /><g
             id="g202"><g
               style="opacity:0.05999762"
               id="g200"
               clip-path="url(#clipPath194)"><g
                 id="g198"
                 transform="translate(41.9454,30.8184)"><path
                   id="path196"
                   style="fill:#0f0f0f;fill-opacity:1;fill-rule:nonzero;stroke:none"
                   d="M 0,0 C 2.44,1.15 4.661,2.703 6.756,4.388 6.553,3.078 6.251,1.787 5.911,0.506 L 5.893,0.499 C 5.024,0.131 4.321,-0.516 3.495,-0.96 2.692,-1.478 1.774,-1.815 1.025,-2.412 c -1.27,0.31 -2.523,0.694 -3.746,1.155 C -1.822,-0.819 -0.874,-0.488 0,0" /></g></g></g></g><g
           id="g204"><g
             id="g206" /><g
             id="g218"><g
               style="opacity:0.11000103"
               id="g216"
               clip-path="url(#clipPath210)"><g
                 id="g214"
                 transform="translate(27.5935,33.5182)"><path
                   id="path212"
                   style="fill:#1b1b1b;fill-opacity:1;fill-rule:nonzero;stroke:none"
                   d="M 0,0 C 1.041,-0.857 2.103,-1.69 3.235,-2.424 3.169,-2.586 3.163,-2.748 3.214,-2.912 3.4,-3.524 3.609,-4.128 3.837,-4.727 3.27,-5.407 2.404,-5.714 1.757,-6.305 1.743,-6.266 1.712,-6.189 1.696,-6.15 1.033,-4.395 0.456,-2.603 0.051,-0.77 0.005,-0.516 0.005,-0.255 0,0" /></g></g></g></g><g
           id="g220"><g
             id="g222" /><g
             id="g234"><g
               style="opacity:0.08000183"
               id="g232"
               clip-path="url(#clipPath226)"><g
                 id="g230"
                 transform="translate(22.7721,25.031)"><path
                   id="path228"
                   style="fill:#141414;fill-opacity:1;fill-rule:nonzero;stroke:none"
                   d="M 0,0 C 1.273,-0.122 2.546,-0.213 3.824,-0.231 4.434,-0.88 5.224,-1.313 5.97,-1.787 6.708,-2.256 7.496,-2.642 8.293,-2.999 8.111,-3.449 7.56,-3.486 7.26,-3.825 7.082,-4.013 6.875,-4.172 6.639,-4.281 6.065,-4.314 5.425,-4.418 4.921,-4.071 3.146,-3.047 1.471,-1.813 0.067,-0.318 0.05,-0.238 0.017,-0.079 0,0" /></g></g></g></g></g></g></g></svg>