<?xml version="1.0" encoding="UTF-8"?>
<svg xmlns="http://www.w3.org/2000/svg" xmlns:xlink="http://www.w3.org/1999/xlink" width="250px" height="250px" viewBox="0 0 250 250" version="1.1">
<defs>
<filter id="alpha" filterUnits="objectBoundingBox" x="0%" y="0%" width="100%" height="100%">
  <feColorMatrix type="matrix" in="SourceGraphic" values="0 0 0 0 1 0 0 0 0 1 0 0 0 0 1 0 0 0 1 0"/>
</filter>
<mask id="mask0">
  <g filter="url(#alpha)">
<rect x="0" y="0" width="250" height="250" style="fill:rgb(0%,0%,0%);fill-opacity:0.19;stroke:none;"/>
  </g>
</mask>
<clipPath id="clip1">
  <rect x="0" y="0" width="250" height="250"/>
</clipPath>
<g id="surface5" clip-path="url(#clip1)">
<path style=" stroke:none;fill-rule:nonzero;fill:rgb(18.82353%,18.82353%,18.82353%);fill-opacity:1;" d="M 153.472656 4.660156 C 154.742188 4.152344 156.015625 4.875 157.25 5.144531 C 167.59375 8.195312 177.785156 12.308594 186.90625 18.289062 C 183.617188 22.132812 179.003906 24.328125 175.457031 27.890625 C 172.414062 26.480469 169.511719 24.285156 166.082031 24.25 C 162.25 17.464844 157.929688 11.007812 153.472656 4.660156 Z M 153.472656 4.660156 "/>
</g>
<mask id="mask1">
  <g filter="url(#alpha)">
<rect x="0" y="0" width="250" height="250" style="fill:rgb(0%,0%,0%);fill-opacity:0.2;stroke:none;"/>
  </g>
</mask>
<clipPath id="clip2">
  <rect x="0" y="0" width="250" height="250"/>
</clipPath>
<g id="surface8" clip-path="url(#clip2)">
<path style=" stroke:none;fill-rule:nonzero;fill:rgb(20%,20%,20%);fill-opacity:1;" d="M 86.804688 21.980469 C 93.257812 19.398438 100.015625 17.730469 106.8125 16.511719 C 101.152344 25.261719 95.464844 34.082031 91.1875 43.683594 C 101.511719 45.414062 111.699219 47.988281 121.632812 51.421875 C 122.929688 51.832031 124.125 52.496094 125.265625 53.269531 C 118.8125 55.9375 112.257812 58.394531 106.023438 61.613281 C 99.175781 59.703125 92.199219 58.226562 85.164062 57.320312 C 82.699219 63.550781 80.421875 69.90625 78.8125 76.433594 L 78.953125 77.703125 L 78.960938 77.859375 C 72.671875 81.847656 67.070312 86.902344 61.28125 91.628906 C 62.929688 79.300781 67.019531 67.53125 70.652344 55.742188 C 60.34375 55.097656 50.007812 55.367188 39.734375 56.386719 C 44.191406 50.605469 49.414062 45.523438 54.84375 40.753906 C 62.070312 41.203125 69.328125 41.09375 76.554688 41.703125 C 79.863281 35.070312 83.1875 28.445312 86.804688 21.980469 Z M 86.804688 21.980469 "/>
</g>
<mask id="mask2">
  <g filter="url(#alpha)">
<rect x="0" y="0" width="250" height="250" style="fill:rgb(0%,0%,0%);fill-opacity:0.16;stroke:none;"/>
  </g>
</mask>
<clipPath id="clip3">
  <rect x="0" y="0" width="250" height="250"/>
</clipPath>
<g id="surface11" clip-path="url(#clip3)">
<path style=" stroke:none;fill-rule:nonzero;fill:rgb(16.470589%,16.470589%,16.470589%);fill-opacity:1;" d="M 186.90625 18.289062 L 187.054688 18.109375 C 197.113281 24.277344 206.347656 31.90625 214.425781 40.691406 C 215.171875 41.570312 216.125 42.367188 216.398438 43.566406 C 210.488281 43.003906 204.597656 42.269531 198.660156 42.105469 C 195.429688 42.070312 192.980469 39.792969 190.601562 37.820312 C 185.859375 34.03125 180.652344 30.9375 175.457031 27.890625 C 179.003906 24.328125 183.617188 22.132812 186.90625 18.289062 Z M 186.90625 18.289062 "/>
</g>
<mask id="mask3">
  <g filter="url(#alpha)">
<rect x="0" y="0" width="250" height="250" style="fill:rgb(0%,0%,0%);fill-opacity:0.16;stroke:none;"/>
  </g>
</mask>
<clipPath id="clip4">
  <rect x="0" y="0" width="250" height="250"/>
</clipPath>
<g id="surface14" clip-path="url(#clip4)">
<path style=" stroke:none;fill-rule:nonzero;fill:rgb(15.686275%,15.686275%,15.686275%);fill-opacity:1;" d="M 126.175781 68.320312 C 132.808594 65.726562 139.597656 63.550781 146.484375 61.8125 C 152.585938 65.191406 158.738281 68.5 164.535156 72.441406 C 161.03125 76.054688 156.519531 78.304688 152.914062 81.800781 C 144.492188 76.546875 135.53125 72.308594 126.453125 68.4375 Z M 126.175781 68.320312 "/>
<path style=" stroke:none;fill-rule:nonzero;fill:rgb(15.686275%,15.686275%,15.686275%);fill-opacity:1;" d="M 56.3125 116.414062 C 61.476562 110.792969 66.898438 105.386719 72.757812 100.554688 C 73.523438 103.058594 72.945312 105.65625 72.644531 108.183594 C 70.53125 126.203125 71.132812 144.480469 73.609375 162.421875 C 67.914062 157.769531 62.714844 152.503906 57.570312 147.214844 L 57.59375 147.101562 C 58.222656 145.371094 57.945312 143.515625 57.894531 141.722656 C 57.386719 133.195312 57.515625 124.644531 57.964844 116.109375 C 57.550781 116.191406 56.726562 116.34375 56.3125 116.414062 Z M 56.3125 116.414062 "/>
</g>
<mask id="mask4">
  <g filter="url(#alpha)">
<rect x="0" y="0" width="250" height="250" style="fill:rgb(0%,0%,0%);fill-opacity:0.07;stroke:none;"/>
  </g>
</mask>
<clipPath id="clip5">
  <rect x="0" y="0" width="250" height="250"/>
</clipPath>
<g id="surface17" clip-path="url(#clip5)">
<path style=" stroke:none;fill-rule:nonzero;fill:rgb(7.450981%,7.450981%,7.450981%);fill-opacity:1;" d="M 228.558594 90.585938 C 231.160156 84.304688 233.417969 77.882812 235.472656 71.375 C 241.691406 83.71875 245.6875 97.265625 247.671875 111.042969 C 247.3125 112.683594 247.722656 115.015625 245.988281 115.902344 C 242.414062 118.324219 239.167969 121.34375 235.230469 123.128906 C 234.855469 119.675781 234.734375 116.144531 233.71875 112.800781 C 230.988281 116.449219 229.199219 120.742188 226.667969 124.527344 C 225.445312 126.777344 223.265625 128.8125 223.546875 131.617188 C 221.425781 135.023438 217.902344 136.828125 214.613281 138.734375 C 208.976562 143.371094 202.828125 147.289062 197.34375 152.128906 C 195.960938 153.152344 194.355469 153.769531 192.808594 154.476562 C 193.203125 151.234375 193.4375 147.976562 193.644531 144.714844 C 198.632812 140.941406 202.535156 135.671875 205.832031 130.300781 C 203.28125 126.507812 200.027344 123.308594 197.429688 119.542969 C 200.628906 116.152344 205.515625 114.648438 207.601562 110.183594 C 210.027344 112.632812 212.078125 115.429688 214.199219 118.152344 C 219.949219 109.554688 224.277344 100.042969 228.558594 90.585938 Z M 228.558594 90.585938 "/>
<path style=" stroke:none;fill-rule:nonzero;fill:rgb(7.450981%,7.450981%,7.450981%);fill-opacity:1;" d="M 82.972656 198.164062 C 83.898438 200.3125 84.398438 202.742188 85.910156 204.554688 C 92.484375 203.675781 99.039062 202.394531 105.34375 200.214844 C 111.699219 203.40625 118.265625 206.175781 124.921875 208.632812 C 124.113281 209.242188 123.246094 209.726562 122.3125 210.078125 C 112.484375 213.644531 102.34375 216.21875 92.113281 218.1875 C 91.957031 221.40625 94.855469 223.898438 95.714844 226.949219 C 92.0625 229.609375 88 231.699219 84.90625 235.125 C 81.753906 230.496094 79.613281 225.253906 76.992188 220.304688 C 75.050781 216 73.238281 211.644531 71.519531 207.242188 C 75.085938 203.847656 79.855469 202.078125 82.972656 198.164062 Z M 82.972656 198.164062 "/>
</g>
<mask id="mask5">
  <g filter="url(#alpha)">
<rect x="0" y="0" width="250" height="250" style="fill:rgb(0%,0%,0%);fill-opacity:0.14;stroke:none;"/>
  </g>
</mask>
<clipPath id="clip6">
  <rect x="0" y="0" width="250" height="250"/>
</clipPath>
<g id="surface20" clip-path="url(#clip6)">
<path style=" stroke:none;fill-rule:nonzero;fill:rgb(13.725491%,13.725491%,13.725491%);fill-opacity:1;" d="M 164.535156 72.441406 C 167.601562 73.859375 169.941406 77.03125 173.34375 77.5 C 175.25 84.832031 176.949219 92.246094 178.015625 99.777344 C 169.871094 93.445312 161.710938 87.125 152.914062 81.800781 C 156.519531 78.304688 161.03125 76.054688 164.535156 72.441406 Z M 164.535156 72.441406 "/>
</g>
<mask id="mask6">
  <g filter="url(#alpha)">
<rect x="0" y="0" width="250" height="250" style="fill:rgb(0%,0%,0%);fill-opacity:0.1;stroke:none;"/>
  </g>
</mask>
<clipPath id="clip7">
  <rect x="0" y="0" width="250" height="250"/>
</clipPath>
<g id="surface23" clip-path="url(#clip7)">
<path style=" stroke:none;fill-rule:nonzero;fill:rgb(9.803922%,9.803922%,9.803922%);fill-opacity:1;" d="M 191.074219 93.921875 C 192.550781 94.59375 193.984375 95.417969 195.128906 96.636719 C 199.40625 101.03125 203.761719 105.359375 207.601562 110.183594 C 205.515625 114.648438 200.628906 116.152344 197.429688 119.542969 C 196.304688 118.242188 194.984375 117.140625 193.617188 116.144531 C 193.203125 108.6875 192.226562 101.28125 191.074219 93.921875 Z M 191.074219 93.921875 "/>
</g>
<mask id="mask7">
  <g filter="url(#alpha)">
<rect x="0" y="0" width="250" height="250" style="fill:rgb(0%,0%,0%);fill-opacity:0.04;stroke:none;"/>
  </g>
</mask>
<clipPath id="clip8">
  <rect x="0" y="0" width="250" height="250"/>
</clipPath>
<g id="surface26" clip-path="url(#clip8)">
<path style=" stroke:none;fill-rule:nonzero;fill:rgb(4.313726%,4.313726%,4.313726%);fill-opacity:1;" d="M 247.671875 111.042969 C 249.554688 120.160156 249.296875 129.699219 248.933594 139.015625 C 247.800781 149.019531 246.710938 159.257812 243.1875 168.695312 C 240.402344 161.945312 237.3125 155.347656 234.039062 148.839844 C 232.84375 155.734375 231.355469 162.601562 229.027344 169.1875 C 225.574219 164.285156 223.609375 158.484375 220.714844 153.242188 C 224.253906 150.453125 228.03125 147.941406 231.90625 145.726562 C 232.40625 146.085938 233.402344 146.804688 233.890625 147.164062 C 235.59375 139.34375 235.207031 131.132812 235.230469 123.128906 C 239.167969 121.34375 242.414062 118.324219 245.988281 115.902344 C 247.722656 115.015625 247.3125 112.683594 247.671875 111.042969 Z M 247.671875 111.042969 "/>
</g>
<mask id="mask8">
  <g filter="url(#alpha)">
<rect x="0" y="0" width="250" height="250" style="fill:rgb(0%,0%,0%);fill-opacity:0.05;stroke:none;"/>
  </g>
</mask>
<clipPath id="clip9">
  <rect x="0" y="0" width="250" height="250"/>
</clipPath>
<g id="surface29" clip-path="url(#clip9)">
<path style=" stroke:none;fill-rule:nonzero;fill:rgb(5.490196%,5.490196%,5.490196%);fill-opacity:1;" d="M 223.546875 131.617188 C 226.992188 135.847656 229.5625 140.769531 231.90625 145.726562 C 228.03125 147.941406 224.253906 150.453125 220.714844 153.242188 C 218.753906 149.933594 217.019531 146.445312 214.605469 143.46875 C 210.566406 146.339844 208.273438 151.070312 204.683594 154.460938 C 200.09375 158.863281 196.324219 164.292969 190.980469 167.738281 C 191.667969 163.324219 192.371094 158.914062 192.808594 154.476562 C 194.355469 153.769531 195.960938 153.152344 197.34375 152.128906 C 202.828125 147.289062 208.976562 143.371094 214.613281 138.734375 C 217.902344 136.828125 221.425781 135.023438 223.546875 131.617188 Z M 223.546875 131.617188 "/>
<path style=" stroke:none;fill-rule:nonzero;fill:rgb(5.490196%,5.490196%,5.490196%);fill-opacity:1;" d="M 95.714844 226.949219 C 97.722656 229.554688 98.996094 232.683594 100.832031 235.417969 C 102.628906 238.503906 104.898438 241.289062 106.375 244.5625 C 98.703125 244.769531 91.023438 244.535156 83.351562 244.75 C 79.519531 244.679688 75.660156 245.066406 71.855469 244.4375 C 73.152344 243.808594 74.296875 242.894531 75.273438 241.8125 C 76.925781 239.867188 79.957031 239.648438 80.960938 237.058594 C 82.558594 237.722656 84.210938 238.207031 85.902344 238.53125 C 85.609375 237.382812 85.300781 236.234375 84.90625 235.125 C 88 231.699219 92.0625 229.609375 95.714844 226.949219 Z M 95.714844 226.949219 "/>
</g>
<mask id="mask9">
  <g filter="url(#alpha)">
<rect x="0" y="0" width="250" height="250" style="fill:rgb(0%,0%,0%);fill-opacity:0.06;stroke:none;"/>
  </g>
</mask>
<clipPath id="clip10">
  <rect x="0" y="0" width="250" height="250"/>
</clipPath>
<g id="surface32" clip-path="url(#clip10)">
<path style=" stroke:none;fill-rule:nonzero;fill:rgb(5.882353%,5.882353%,5.882353%);fill-opacity:1;" d="M 140.867188 186.5 C 154.304688 179.882812 166.527344 170.945312 178.066406 161.246094 C 176.949219 168.785156 175.285156 176.21875 173.410156 183.585938 L 173.316406 183.628906 C 168.53125 185.746094 164.65625 189.464844 160.113281 192.023438 C 155.6875 195.007812 150.636719 196.941406 146.511719 200.375 C 139.519531 198.59375 132.621094 196.386719 125.886719 193.734375 C 130.832031 191.214844 136.058594 189.304688 140.867188 186.5 Z M 140.867188 186.5 "/>
</g>
<mask id="mask10">
  <g filter="url(#alpha)">
<rect x="0" y="0" width="250" height="250" style="fill:rgb(0%,0%,0%);fill-opacity:0.11;stroke:none;"/>
  </g>
</mask>
<clipPath id="clip11">
  <rect x="0" y="0" width="250" height="250"/>
</clipPath>
<g id="surface35" clip-path="url(#clip11)">
<path style=" stroke:none;fill-rule:nonzero;fill:rgb(10.588235%,10.588235%,10.588235%);fill-opacity:1;" d="M 61.847656 170.964844 C 67.578125 175.894531 73.429688 180.691406 79.65625 184.914062 C 79.296875 185.84375 79.261719 186.777344 79.542969 187.71875 C 80.566406 191.242188 81.71875 194.71875 82.972656 198.164062 C 79.855469 202.078125 75.085938 203.847656 71.519531 207.242188 C 71.441406 207.019531 71.269531 206.578125 71.1875 206.355469 C 67.535156 196.253906 64.355469 185.945312 62.128906 175.390625 C 61.871094 173.929688 61.871094 172.433594 61.847656 170.964844 Z M 61.847656 170.964844 "/>
</g>
<mask id="mask11">
  <g filter="url(#alpha)">
<rect x="0" y="0" width="250" height="250" style="fill:rgb(0%,0%,0%);fill-opacity:0.08;stroke:none;"/>
  </g>
</mask>
<clipPath id="clip12">
  <rect x="0" y="0" width="250" height="250"/>
</clipPath>
<g id="surface38" clip-path="url(#clip12)">
<path style=" stroke:none;fill-rule:nonzero;fill:rgb(7.843138%,7.843138%,7.843138%);fill-opacity:1;" d="M 35.300781 219.804688 C 42.3125 220.503906 49.320312 221.03125 56.355469 221.128906 C 59.714844 224.867188 64.0625 227.359375 68.171875 230.085938 C 72.234375 232.785156 76.570312 235.007812 80.960938 237.058594 C 79.957031 239.648438 76.925781 239.867188 75.273438 241.8125 C 74.296875 242.894531 73.152344 243.808594 71.855469 244.4375 C 68.695312 244.625 65.171875 245.226562 62.398438 243.226562 C 52.621094 237.335938 43.402344 230.238281 35.671875 221.632812 C 35.574219 221.175781 35.394531 220.261719 35.300781 219.804688 Z M 35.300781 219.804688 "/>
</g>
</defs>
<g id="surface1">
<path style=" stroke:none;fill-rule:nonzero;fill:rgb(68.235296%,49.803922%,85.09804%);fill-opacity:1;" d="M 95.738281 4.152344 C 114.484375 -0.539062 134.234375 -0.421875 153.015625 3.988281 C 153.128906 4.160156 153.351562 4.492188 153.472656 4.660156 C 157.929688 11.007812 162.25 17.464844 166.082031 24.25 C 169.511719 30.148438 172.507812 36.289062 175.414062 42.484375 C 183.144531 42.007812 190.910156 41.632812 198.660156 42.105469 C 204.597656 42.269531 210.488281 43.003906 216.398438 43.566406 L 217.097656 43.613281 C 224.328125 52.003906 230.5 61.363281 235.472656 71.375 C 233.417969 77.882812 231.160156 84.304688 228.558594 90.585938 C 224.210938 78.574219 217.980469 67.378906 210.300781 57.355469 C 200.617188 56.226562 190.851562 56.074219 181.117188 56.496094 C 185.515625 68.625 188.8125 81.164062 191.074219 93.921875 C 192.226562 101.28125 193.203125 108.6875 193.617188 116.144531 C 192.785156 119.945312 196.554688 121.542969 197.601562 124.707031 C 200.222656 130.445312 198.488281 137.667969 193.875 141.730469 C 193.8125 142.484375 193.703125 143.972656 193.644531 144.714844 C 193.4375 147.976562 193.203125 151.234375 192.808594 154.476562 C 192.371094 158.914062 191.667969 163.324219 190.980469 167.738281 C 188.71875 180.671875 185.285156 193.367188 180.800781 205.65625 C 190.351562 206.113281 199.914062 205.890625 209.433594 204.964844 C 217.902344 194.359375 224.648438 182.230469 229.027344 169.1875 C 231.355469 162.601562 232.84375 155.734375 234.039062 148.839844 C 237.3125 155.347656 240.402344 161.945312 243.1875 168.695312 L 243.496094 169.414062 C 237.773438 188.148438 228.136719 205.78125 214.964844 219.847656 C 201.699219 219.9375 188.402344 220.808594 175.164062 219.585938 C 171.976562 225.792969 168.984375 232.109375 165.480469 238.136719 C 159.347656 240.628906 153.03125 242.609375 146.589844 243.988281 L 145.113281 244.328125 C 150.832031 235.914062 156.039062 227.109375 160.523438 217.910156 C 148.429688 215.902344 136.476562 212.882812 124.921875 208.632812 C 118.265625 206.175781 111.699219 203.40625 105.34375 200.214844 C 104.003906 199.535156 102.664062 198.878906 101.324219 198.226562 C 97.492188 200.007812 92.902344 200.152344 89.148438 198.074219 C 84.949219 195.886719 82.078125 191.332031 81.683594 186.472656 C 81.175781 186.085938 80.164062 185.308594 79.65625 184.914062 C 73.429688 180.691406 67.578125 175.894531 61.847656 170.964844 C 52.421875 162.519531 43.695312 153.242188 35.832031 143.210938 C 30.144531 152.175781 25.273438 161.667969 20.960938 171.421875 C 25.335938 184.0625 32.242188 195.632812 40.480469 205.917969 C 50.6875 206.832031 60.960938 207.082031 71.1875 206.355469 C 71.269531 206.578125 71.441406 207.019531 71.519531 207.242188 C 73.238281 211.644531 75.050781 216 76.992188 220.304688 C 70.121094 220.816406 63.246094 221.289062 56.355469 221.128906 C 49.320312 221.03125 42.3125 220.503906 35.300781 219.804688 C 34.90625 219.75 34.113281 219.648438 33.71875 219.597656 C 17.585938 201.542969 6.355469 178.699219 2.128906 154.378906 C -0.917969 137.183594 -0.695312 119.320312 2.980469 102.242188 C 7.472656 81.03125 17.242188 61.09375 31.003906 44.8125 C 47.871094 24.722656 70.808594 10.238281 95.738281 4.152344 Z M 106.8125 16.511719 C 100.015625 17.730469 93.257812 19.398438 86.804688 21.980469 C 75.222656 26.273438 64.484375 32.828125 54.84375 40.753906 C 49.414062 45.523438 44.191406 50.605469 39.734375 56.386719 C 31.640625 66.445312 25.050781 77.972656 20.851562 90.34375 C 25.09375 100.277344 30.101562 109.859375 35.84375 118.949219 C 43.523438 109.070312 52.164062 100.019531 61.28125 91.628906 C 67.070312 86.902344 72.671875 81.847656 78.960938 77.859375 L 78.953125 77.703125 C 79.914062 77.042969 80.859375 76.351562 81.796875 75.632812 C 81.8125 72.675781 82.515625 69.691406 84.140625 67.234375 C 88.015625 60.851562 96.914062 58.914062 102.945312 63.074219 C 103.96875 62.589844 104.992188 62.097656 106.023438 61.613281 C 112.257812 58.394531 118.8125 55.9375 125.265625 53.269531 C 136.890625 49.261719 148.832031 46.203125 160.910156 44.105469 C 156.28125 34.675781 151.074219 25.550781 145.078125 16.988281 C 132.464844 14.550781 119.484375 14.46875 106.8125 16.511719 Z M 146.484375 61.8125 C 139.597656 63.550781 132.808594 65.726562 126.175781 68.320312 L 126.453125 68.4375 C 120.550781 70.113281 115.027344 73.214844 109.382812 75.722656 C 108.910156 79.738281 107.300781 83.757812 104.15625 86.285156 C 100.027344 89.90625 93.875 90.453125 89.125 87.84375 C 83.480469 91.796875 77.878906 95.867188 72.757812 100.554688 C 66.898438 105.386719 61.476562 110.792969 56.3125 116.414062 C 52.011719 121.066406 48.023438 126.023438 44.175781 131.082031 C 48.402344 136.636719 52.792969 142.070312 57.59375 147.101562 L 57.570312 147.214844 C 62.714844 152.503906 67.914062 157.769531 73.609375 162.421875 C 78.109375 166.355469 82.894531 169.914062 87.730469 173.367188 C 92.011719 170.40625 97.84375 170.210938 102.257812 172.953125 C 106.753906 175.589844 109.304688 180.960938 109.148438 186.265625 C 114.640625 188.972656 120.171875 191.589844 125.886719 193.734375 C 132.621094 196.386719 139.519531 198.59375 146.511719 200.375 C 153.09375 202.078125 159.777344 203.300781 166.484375 204.304688 C 169.105469 197.542969 171.460938 190.667969 173.316406 183.628906 L 173.410156 183.585938 C 175.285156 176.21875 176.949219 168.785156 178.066406 161.246094 C 178.960938 155.519531 179.511719 149.746094 179.972656 143.953125 C 176.417969 142.332031 173.453125 139.246094 172.191406 135.382812 C 169.648438 128.417969 173.367188 120.054688 179.957031 117.335938 C 179.527344 111.457031 178.96875 105.585938 178.015625 99.777344 C 176.949219 92.246094 175.25 84.832031 173.34375 77.5 C 171.460938 70.839844 169.304688 64.277344 166.847656 57.832031 C 160 58.808594 153.1875 60.042969 146.484375 61.8125 Z M 15.34375 111.207031 C 13.316406 124.339844 13.300781 137.785156 15.414062 150.910156 C 18.953125 144.078125 22.945312 137.527344 27.085938 131.070312 C 22.894531 124.625 18.984375 118 15.34375 111.207031 Z M 15.34375 111.207031 "/>
<use xlink:href="#surface5" mask="url(#mask0)"/>
<use xlink:href="#surface8" mask="url(#mask1)"/>
<use xlink:href="#surface11" mask="url(#mask2)"/>
<use xlink:href="#surface14" mask="url(#mask3)"/>
<use xlink:href="#surface17" mask="url(#mask4)"/>
<use xlink:href="#surface20" mask="url(#mask5)"/>
<use xlink:href="#surface23" mask="url(#mask6)"/>
<use xlink:href="#surface26" mask="url(#mask7)"/>
<use xlink:href="#surface29" mask="url(#mask8)"/>
<use xlink:href="#surface32" mask="url(#mask9)"/>
<use xlink:href="#surface35" mask="url(#mask10)"/>
<use xlink:href="#surface38" mask="url(#mask11)"/>
</g>
</svg>
