<svg height="250" viewBox="0 0 250 250" width="250" xmlns="http://www.w3.org/2000/svg"><path d="m250 125c0 69.035156-55.964844 125-125 125s-125-55.964844-125-125 55.964844-125 125-125 125 55.964844 125 125zm0 0"/><g fill="#fff"><path d="m177.734375 51.757812-14.648437 5.078126 5.46875 16.601562-43.554688-22.460938-58.789062 32.226563v43.554687l23.632812-8.203124-.195312-21.875 35.351562-18.75 33.789062 16.40625-16.796874 6.25 5.273437 15.234374 46.679687-16.601562zm0 0"/><path d="m72.265625 198.242188 14.648437-5.078126-5.46875-16.601562 43.359376 22.460938 58.984374-32.226563v-43.554687l-23.632812 8.203124.195312 21.875-35.546874 18.75-33.59375-16.40625 16.796874-6.25-5.273437-15.234374-46.679687 16.601562zm0 0"/><path d="m129.492188 238.671875-.390626-9.960937c12.109376-.390626 23.632813-2.929688 34.765626-7.421876l3.710937 9.179688c-12.109375 4.882812-25 7.617188-38.085937 8.203125zm-38.671876-5.078125c-12.5-3.90625-24.21875-9.960938-34.570312-17.96875l6.054688-8.007812c9.570312 7.226562 20.117187 12.695312 31.640624 16.40625zm109.960938-23.632812-6.640625-7.421876c8.984375-8.007812 16.40625-17.382812 22.070313-27.929687l8.789062 4.6875c-6.25 11.523437-14.453125 21.875-24.21875 30.664063zm-171.09375-23.046876c-7.226562-10.9375-12.304688-23.046874-15.429688-35.9375l9.765626-2.34375c2.734374 11.71875 7.421874 22.65625 14.0625 32.8125zm207.8125-44.53125-9.960938-1.5625c.78125-5.273437 1.171876-10.546874 1.171876-15.820312 0-6.640625-.585938-13.28125-1.953126-19.726562l9.765626-1.953126c1.367187 7.03125 2.148437 14.453126 2.148437 21.679688 0 5.859375-.390625 11.523438-1.171875 17.382812zm-215.625-29.101562-9.960938-1.171875c1.5625-13.085937 5.078126-25.585937 10.9375-37.5l8.984376 4.492187c-5.273438 10.742188-8.59375 22.265626-9.960938 34.179688zm192.382812-41.40625c-6.054687-10.351562-13.867187-19.335938-23.242187-26.953125l6.445313-7.617187c10.15625 8.398437 18.75 18.359374 25.390624 29.6875zm-161.328124-21.484375-7.03125-7.226563c9.375-9.179687 20.3125-16.601562 32.226562-21.875l4.101562 9.179688c-10.742187 4.882812-20.703124 11.523438-29.296874 19.921875zm107.226562-23.046875c-11.132812-4.101562-23.046875-6.054688-35.15625-6.054688-2.734375 0-5.46875.195313-8.203125.390626l-.78125-9.960938c2.929687-.195312 6.054687-.390625 8.984375-.390625 13.28125 0 26.171875 2.148437 38.476562 6.640625zm0 0"/></g></svg>