<svg xmlns="http://www.w3.org/2000/svg" width="250" height="250"><path fill="#080a03" d="M142.727 216.648c3.074 3.079 5.32 6.887 6.445 11.133l52.781-30.469c-3.078-3.023-5.32-6.882-6.492-11.132zM201.953 52.688l-52.781-30.47c-1.172 4.298-3.422 8.102-6.445 11.18l52.78 30.47c1.126-4.298 3.419-8.106 6.446-11.18zM55.371 70.36c0 3.078-.535 6.054-1.61 8.788 11.325 2.004 23.29 5.325 35.45 9.766.535-4.39 1.121-8.738 1.805-12.984-12.305-4.348-24.465-7.57-35.989-9.621.246 1.316.344 2.683.344 4.05zM178.563 125c12.304-9.96 23.195-20.508 32.18-31.25-4.15-1.563-7.716-4.2-10.45-7.57-8.887 10.547-19.824 20.949-32.227 30.715-8.738-6.446-18.113-12.547-27.93-18.211-7.468-4.301-14.988-8.254-22.558-11.817-.586 4.442-1.121 8.985-1.512 13.574 5.907 2.88 11.766 6.055 17.625 9.422 8.204 4.739 16.114 9.817 23.536 15.137-7.422 5.324-15.332 10.352-23.536 15.137a291.044 291.044 0 0 1-17.625 9.375c.391 4.59.88 9.133 1.512 13.574 7.57-3.563 15.09-7.52 22.559-11.816a305.057 305.057 0 0 0 27.93-18.211c12.402 9.765 23.292 20.164 32.226 30.71a24.934 24.934 0 0 1 10.45-7.566c-8.985-10.695-19.876-21.242-32.18-31.203zM53.758 170.852a24.819 24.819 0 0 1 1.613 8.789c0 1.367-.098 2.734-.344 4.097 11.575-2 23.684-5.273 35.989-9.617-.684-4.246-1.32-8.594-1.805-12.988-12.16 4.344-24.074 7.664-35.453 9.719zm0 0"/><path fill="#080a03" d="M107.57 125c0-31.055 4.785-60.645 13.38-84.621-4.395-.73-8.45-2.586-11.77-5.32C99.855 60.645 94.68 92.14 94.68 125s5.175 64.355 14.5 89.89c3.32-2.734 7.324-4.585 11.77-5.32-8.645-23.925-13.38-53.515-13.38-84.57zm0 0"/><g fill="#3ab26e"><path d="M133.691 221.828c-2.441-1.758-5.468-2.734-8.691-2.734h-.293c-3.125.047-6.004 1.07-8.398 2.734-1.172.828-2.246 1.805-3.125 2.93-1.856 2.293-3.075 5.125-3.32 8.203-.052.437-.052.879-.052 1.316 0 8.399 6.836 15.235 15.239 15.235 8.394 0 15.23-6.785 15.23-15.235 0-.437-.047-.879-.047-1.316a15.58 15.58 0 0 0-6.543-11.133zM213.234 84.18c.68.343 1.368.586 2.047.78.246.099.54.15.781.196.391.098.833.196 1.274.242.73.102 1.562.196 2.344.196 2.293 0 4.492-.535 6.445-1.414 5.176-2.442 8.738-7.715 8.738-13.77 0-8.398-6.785-15.234-15.183-15.234-3.227 0-6.254.976-8.696 2.734-3.609 2.488-6.054 6.543-6.492 11.184-.05.437-.05.875-.05 1.367 0 2.879.78 5.516 2.199 7.812 1.515 2.54 3.808 4.586 6.593 5.907zM226.125 165.82c-1.953-.925-4.152-1.414-6.445-1.414-.489 0-.977 0-1.418.098-.293.047-.586.047-.88.098-.78.093-1.562.293-2.343.535-.242.05-.437.148-.684.246-.39.144-.73.293-1.12.437-2.735 1.27-5.032 3.368-6.594 5.957a14.845 14.845 0 0 0-2.196 7.813c0 .441 0 .926.047 1.367.39 4.637 2.883 8.645 6.496 11.133a15.05 15.05 0 0 0 8.692 2.734c8.398 0 15.183-6.785 15.183-15.234 0-6.055-3.566-11.328-8.738-13.77zM30.32 55.176c-8.398 0-15.183 6.785-15.183 15.183s6.785 15.235 15.183 15.235a15.112 15.112 0 0 0 13.332-7.957 15.197 15.197 0 0 0 1.856-7.278c0-2-.39-3.855-1.074-5.613a15.173 15.173 0 0 0-14.114-9.57zM30.32 164.406c-8.394 0-15.183 6.836-15.183 15.235 0 8.394 6.785 15.23 15.183 15.23 6.446 0 11.914-3.953 14.164-9.617a15.194 15.194 0 0 0 1.07-5.613c0-2.641-.683-5.078-1.85-7.278-2.59-4.738-7.571-7.957-13.384-7.957zM124.707 30.906H125a15.05 15.05 0 0 0 8.691-2.734c.246-.145.442-.34.637-.488.195-.145.438-.34.633-.536.437-.39.879-.78 1.27-1.222.246-.242.44-.489.636-.73.098-.15.242-.294.34-.442.098-.098.148-.242.246-.34.098-.098.145-.246.242-.344.149-.242.293-.437.442-.683.144-.242.293-.489.39-.73.145-.247.243-.489.34-.735.098-.242.246-.535.344-.781.094-.243.195-.536.293-.782.098-.293.144-.535.242-.828.05-.246.098-.539.195-.781 0-.098.051-.148.051-.246.047-.293.098-.535.098-.828 0-.098.047-.149.047-.196.05-.148.05-.293.05-.44.047-.438.047-.88.047-1.317 0-8.399-6.836-15.235-15.234-15.235s-15.234 6.785-15.234 15.235c0 3.613 1.27 6.933 3.32 9.52 2.781 3.37 6.934 5.57 11.621 5.663zm0 0"/><path d="M133.691 221.973a15.039 15.039 0 0 0-8.64-2.735h-.293c-3.125.051-6.008 1.075-8.399 2.735-1.171.832-2.246 1.808-3.125 2.93a15.154 15.154 0 0 0-3.32 8.152c-.05.441-.05.882-.05 1.32 0 8.398 6.788 15.137 15.187 15.137 8.347 0 15.136-6.785 15.136-15.137 0-.438-.05-.879-.05-1.32a15.288 15.288 0 0 0-6.446-11.082zm0 0"/></g></svg>