<svg height="250" viewBox="0 0 250 250" width="250" xmlns="http://www.w3.org/2000/svg"><path d="m142.726562 216.648438c3.074219 3.078124 5.320313 6.886718 6.445313 11.132812l52.78125-30.46875c-3.078125-3.023438-5.320313-6.882812-6.492187-11.132812zm0 0" fill="#080a03"/><path d="m201.953125 52.6875-52.78125-30.46875c-1.171875 4.296875-3.421875 8.101562-6.445313 11.179688l52.78125 30.46875c1.125-4.296876 3.417969-8.105469 6.445313-11.179688zm0 0" fill="#080a03"/><path d="m55.371094 70.359375c0 3.078125-.535156 6.054687-1.609375 8.789063 11.324219 2.003906 23.289062 5.324218 35.449219 9.765624.535156-4.390624 1.121093-8.738281 1.804687-12.984374-12.304687-4.347657-24.464844-7.570313-35.988281-9.621094.246094 1.316406.34375 2.683594.34375 4.050781zm0 0" fill="#080a03"/><path d="m178.5625 125c12.304688-9.960938 23.195312-20.507812 32.179688-31.25-4.148438-1.5625-7.714844-4.199219-10.449219-7.570312-8.886719 10.546874-19.824219 20.949218-32.226563 30.714843-8.738281-6.445312-18.113281-12.546875-27.929687-18.210937-7.46875-4.300782-14.988281-8.253906-22.558594-11.816406-.585937 4.441406-1.121094 8.984374-1.511719 13.574218 5.90625 2.878906 11.765625 6.054688 17.625 9.421875 8.203125 4.738281 16.113282 9.816407 23.535156 15.136719-7.421874 5.324219-15.332031 10.351562-23.535156 15.136719-5.859375 3.371093-11.71875 6.496093-17.625 9.375.390625 4.589843.878906 9.132812 1.511719 13.574219 7.570313-3.5625 15.089844-7.519532 22.558594-11.816407 9.816406-5.664062 19.140625-11.765625 27.929687-18.210937 12.402344 9.765625 23.292969 20.164062 32.226563 30.710937 2.734375-3.367187 6.347656-6.003906 10.449219-7.566406-8.984376-10.695313-19.875-21.242187-32.179688-31.203125zm0 0" fill="#080a03"/><path d="m53.757812 170.851562c1.027344 2.734376 1.613282 5.664063 1.613282 8.789063 0 1.367187-.097656 2.734375-.34375 4.097656 11.574218-2 23.683594-5.273437 35.988281-9.617187-.683594-4.246094-1.320313-8.59375-1.804687-12.988282-12.160157 4.34375-24.074219 7.664063-35.453126 9.71875zm0 0" fill="#080a03"/><path d="m107.570312 125c0-31.054688 4.785157-60.644531 13.378907-84.621094-4.394531-.730468-8.449219-2.585937-11.769531-5.320312-9.324219 25.585937-14.5 57.082031-14.5 89.941406s5.175781 64.355469 14.5 89.890625c3.320312-2.734375 7.324218-4.585937 11.769531-5.320313-8.644531-23.925781-13.378907-53.515624-13.378907-84.570312zm0 0" fill="#080a03"/><g fill="#3ab26e"><path d="m133.691406 221.828125c-2.441406-1.757813-5.46875-2.734375-8.691406-2.734375-.097656 0-.195312 0-.292969 0-3.125.046875-6.003906 1.070312-8.398437 2.734375-1.171875.828125-2.246094 1.804687-3.125 2.929687-1.855469 2.292969-3.074219 5.125-3.320313 8.203126-.050781.4375-.050781.878906-.050781 1.316406 0 8.398437 6.835938 15.234375 15.238281 15.234375 8.394531 0 15.230469-6.785157 15.230469-15.234375 0-.4375-.046875-.878906-.046875-1.316406-.488281-4.59375-2.929687-8.59375-6.542969-11.132813zm0 0"/><path d="m213.234375 84.179688c.679687.34375 1.367187.585937 2.046875.78125.246094.097656.539062.148437.78125.195312.390625.097656.832031.195312 1.273438.242188.730468.101562 1.5625.195312 2.34375.195312 2.292968 0 4.492187-.535156 6.445312-1.414062 5.175781-2.441407 8.738281-7.714844 8.738281-13.769532 0-8.398437-6.785156-15.234375-15.183593-15.234375-3.226563 0-6.253907.976563-8.695313 2.734375-3.609375 2.488282-6.054687 6.542969-6.492187 11.183594-.050782.4375-.050782.875-.050782 1.367188 0 2.878906.78125 5.515624 2.199219 7.8125 1.515625 2.539062 3.808594 4.585937 6.59375 5.90625zm0 0"/><path d="m226.125 165.820312c-1.953125-.925781-4.152344-1.414062-6.445312-1.414062-.488282 0-.976563 0-1.417969.097656-.292969.046875-.585938.046875-.878907.097656-.78125.09375-1.5625.292969-2.34375.535157-.242187.050781-.4375.148437-.683593.246093-.390625.144532-.730469.292969-1.121094.4375-2.734375 1.269532-5.03125 3.367188-6.59375 5.957032-1.414063 2.292968-2.195313 4.980468-2.195313 7.8125 0 .441406 0 .925781.046876 1.367187.390624 4.636719 2.882812 8.644531 6.496093 11.132813 2.441407 1.710937 5.417969 2.734375 8.691407 2.734375 8.398437 0 15.183593-6.785157 15.183593-15.234375 0-6.054688-3.566406-11.328125-8.738281-13.769532zm0 0"/><path d="m30.320312 55.175781c-8.398437 0-15.183593 6.785157-15.183593 15.183594s6.785156 15.234375 15.183593 15.234375c5.765626 0 10.792969-3.21875 13.332032-7.957031 1.171875-2.148438 1.855468-4.640625 1.855468-7.277344 0-2-.390624-3.855469-1.074218-5.613281-2.199219-5.566406-7.667969-9.570313-14.113282-9.570313zm0 0"/><path d="m30.320312 164.40625c-8.394531 0-15.183593 6.835938-15.183593 15.234375 0 8.394531 6.785156 15.230469 15.183593 15.230469 6.445313 0 11.914063-3.953125 14.164063-9.617188.679687-1.707031 1.070313-3.613281 1.070313-5.613281 0-2.640625-.683594-5.078125-1.851563-7.277344-2.589844-4.738281-7.570313-7.957031-13.382813-7.957031zm0 0"/><path d="m124.707031 30.90625h.292969c3.273438 0 6.25-1.023438 8.691406-2.734375.246094-.144531.441406-.339844.636719-.488281.195313-.144532.4375-.339844.632813-.535156.4375-.390626.878906-.78125 1.269531-1.222657.246093-.242187.441406-.488281.636719-.730469.097656-.148437.242187-.292968.339843-.441406.097657-.097656.148438-.242187.246094-.339844.097656-.097656.144531-.246093.242187-.34375.148438-.242187.292969-.4375.441407-.683593.144531-.242188.292969-.488281.390625-.730469.144531-.246094.242187-.488281.339844-.734375.097656-.242187.246093-.535156.34375-.78125.09375-.242187.195312-.535156.292968-.78125.097656-.292969.144532-.535156.242188-.828125.050781-.246094.097656-.539062.195312-.78125 0-.097656.050782-.148438.050782-.246094.046874-.292968.097656-.535156.097656-.828125 0-.097656.046875-.148437.046875-.195312.050781-.148438.050781-.292969.050781-.441407.046875-.4375.046875-.878906.046875-1.316406 0-8.398437-6.835937-15.234375-15.234375-15.234375s-15.234375 6.785157-15.234375 15.234375c0 3.613282 1.269531 6.933594 3.320313 9.519532 2.78125 3.371093 6.933593 5.570312 11.621093 5.664062zm0 0"/><path d="m133.691406 221.972656c-2.441406-1.707031-5.417968-2.734375-8.640625-2.734375-.097656 0-.195312 0-.292969 0-3.125.050781-6.007812 1.074219-8.398437 2.734375-1.171875.832032-2.246094 1.808594-3.125 2.929688-1.855469 2.292968-3.027344 5.078125-3.320313 8.152344-.050781.441406-.050781.882812-.050781 1.320312 0 8.398438 6.789063 15.136719 15.1875 15.136719 8.347657 0 15.136719-6.785157 15.136719-15.136719 0-.4375-.050781-.878906-.050781-1.320312-.441407-4.585938-2.878907-8.59375-6.445313-11.082032zm0 0"/></g></svg>