<!-- Generator: Adobe Illustrator 23.0.3, SVG Export Plug-In . SVG Version: 6.00 Build 0)  -->
<svg xmlns="http://www.w3.org/2000/svg" xmlns:xlink="http://www.w3.org/1999/xlink" width="250px" height="250px" viewBox="0 0 250 250" version="1.1">
<g id="surface1">
<path style=" stroke:none;fill-rule:nonzero;fill:rgb(3.137255%,3.921569%,1.176471%);fill-opacity:1;" d="M 142.726562 216.648438 C 145.800781 219.726562 148.046875 223.535156 149.171875 227.78125 L 201.953125 197.3125 C 198.875 194.289062 196.632812 190.429688 195.460938 186.179688 Z M 142.726562 216.648438 "/>
<path style=" stroke:none;fill-rule:nonzero;fill:rgb(3.137255%,3.921569%,1.176471%);fill-opacity:1;" d="M 201.953125 52.6875 L 149.171875 22.21875 C 148 26.515625 145.75 30.320312 142.726562 33.398438 L 195.507812 63.867188 C 196.632812 59.570312 198.925781 55.761719 201.953125 52.6875 Z M 201.953125 52.6875 "/>
<path style=" stroke:none;fill-rule:nonzero;fill:rgb(3.137255%,3.921569%,1.176471%);fill-opacity:1;" d="M 55.371094 70.359375 C 55.371094 73.4375 54.835938 76.414062 53.761719 79.148438 C 65.085938 81.152344 77.050781 84.472656 89.210938 88.914062 C 89.746094 84.523438 90.332031 80.175781 91.015625 75.929688 C 78.710938 71.582031 66.550781 68.359375 55.027344 66.308594 C 55.273438 67.625 55.371094 68.992188 55.371094 70.359375 Z M 55.371094 70.359375 "/>
<path style=" stroke:none;fill-rule:nonzero;fill:rgb(3.137255%,3.921569%,1.176471%);fill-opacity:1;" d="M 178.5625 125 C 190.867188 115.039062 201.757812 104.492188 210.742188 93.75 C 206.59375 92.1875 203.027344 89.550781 200.292969 86.179688 C 191.40625 96.726562 180.46875 107.128906 168.066406 116.894531 C 159.328125 110.449219 149.953125 104.347656 140.136719 98.683594 C 132.667969 94.382812 125.148438 90.429688 117.578125 86.867188 C 116.992188 91.308594 116.457031 95.851562 116.066406 100.441406 C 121.972656 103.320312 127.832031 106.496094 133.691406 109.863281 C 141.894531 114.601562 149.804688 119.679688 157.226562 125 C 149.804688 130.324219 141.894531 135.351562 133.691406 140.136719 C 127.832031 143.507812 121.972656 146.632812 116.066406 149.511719 C 116.457031 154.101562 116.945312 158.644531 117.578125 163.085938 C 125.148438 159.523438 132.667969 155.566406 140.136719 151.269531 C 149.953125 145.605469 159.277344 139.503906 168.066406 133.058594 C 180.46875 142.824219 191.359375 153.222656 200.292969 163.769531 C 203.027344 160.402344 206.640625 157.765625 210.742188 156.203125 C 201.757812 145.507812 190.867188 134.960938 178.5625 125 Z M 178.5625 125 "/>
<path style=" stroke:none;fill-rule:nonzero;fill:rgb(3.137255%,3.921569%,1.176471%);fill-opacity:1;" d="M 53.757812 170.851562 C 54.785156 173.585938 55.371094 176.515625 55.371094 179.640625 C 55.371094 181.007812 55.273438 182.375 55.027344 183.738281 C 66.601562 181.738281 78.710938 178.464844 91.015625 174.121094 C 90.332031 169.875 89.695312 165.527344 89.210938 161.132812 C 77.050781 165.476562 65.136719 168.796875 53.757812 170.851562 Z M 53.757812 170.851562 "/>
<path style=" stroke:none;fill-rule:nonzero;fill:rgb(3.137255%,3.921569%,1.176471%);fill-opacity:1;" d="M 107.570312 125 C 107.570312 93.945312 112.355469 64.355469 120.949219 40.378906 C 116.554688 39.648438 112.5 37.792969 109.179688 35.058594 C 99.855469 60.644531 94.679688 92.140625 94.679688 125 C 94.679688 157.859375 99.855469 189.355469 109.179688 214.890625 C 112.5 212.15625 116.503906 210.304688 120.949219 209.570312 C 112.304688 185.644531 107.570312 156.054688 107.570312 125 Z M 107.570312 125 "/>
<path style=" stroke:none;fill-rule:nonzero;fill:rgb(22.745098%,69.803923%,43.137255%);fill-opacity:1;" d="M 133.691406 221.828125 C 131.25 220.070312 128.222656 219.09375 125 219.09375 C 124.902344 219.09375 124.804688 219.09375 124.707031 219.09375 C 121.582031 219.140625 118.703125 220.164062 116.308594 221.828125 C 115.136719 222.65625 114.0625 223.632812 113.183594 224.757812 C 111.328125 227.050781 110.109375 229.882812 109.863281 232.960938 C 109.8125 233.398438 109.8125 233.839844 109.8125 234.277344 C 109.8125 242.675781 116.648438 249.511719 125.050781 249.511719 C 133.445312 249.511719 140.28125 242.726562 140.28125 234.277344 C 140.28125 233.839844 140.234375 233.398438 140.234375 232.960938 C 139.746094 228.367188 137.304688 224.367188 133.691406 221.828125 Z M 133.691406 221.828125 "/>
<path style=" stroke:none;fill-rule:nonzero;fill:rgb(22.745098%,69.803923%,43.137255%);fill-opacity:1;" d="M 213.234375 84.179688 C 213.914062 84.523438 214.601562 84.765625 215.28125 84.960938 C 215.527344 85.058594 215.820312 85.109375 216.0625 85.15625 C 216.453125 85.253906 216.894531 85.351562 217.335938 85.398438 C 218.066406 85.5 218.898438 85.59375 219.679688 85.59375 C 221.972656 85.59375 224.171875 85.058594 226.125 84.179688 C 231.300781 81.738281 234.863281 76.464844 234.863281 70.410156 C 234.863281 62.011719 228.078125 55.175781 219.679688 55.175781 C 216.453125 55.175781 213.425781 56.152344 210.984375 57.910156 C 207.375 60.398438 204.929688 64.453125 204.492188 69.09375 C 204.441406 69.53125 204.441406 69.96875 204.441406 70.460938 C 204.441406 73.339844 205.222656 75.976562 206.640625 78.273438 C 208.15625 80.8125 210.449219 82.859375 213.234375 84.179688 Z M 213.234375 84.179688 "/>
<path style=" stroke:none;fill-rule:nonzero;fill:rgb(22.745098%,69.803923%,43.137255%);fill-opacity:1;" d="M 226.125 165.820312 C 224.171875 164.894531 221.972656 164.40625 219.679688 164.40625 C 219.191406 164.40625 218.703125 164.40625 218.261719 164.503906 C 217.96875 164.550781 217.675781 164.550781 217.382812 164.601562 C 216.601562 164.695312 215.820312 164.894531 215.039062 165.136719 C 214.796875 165.1875 214.601562 165.285156 214.355469 165.382812 C 213.964844 165.527344 213.625 165.675781 213.234375 165.820312 C 210.5 167.089844 208.203125 169.1875 206.640625 171.777344 C 205.226562 174.070312 204.445312 176.757812 204.445312 179.589844 C 204.445312 180.03125 204.445312 180.515625 204.492188 180.957031 C 204.882812 185.59375 207.375 189.601562 210.988281 192.089844 C 213.429688 193.800781 216.40625 194.824219 219.679688 194.824219 C 228.078125 194.824219 234.863281 188.039062 234.863281 179.589844 C 234.863281 173.535156 231.296875 168.261719 226.125 165.820312 Z M 226.125 165.820312 "/>
<path style=" stroke:none;fill-rule:nonzero;fill:rgb(22.745098%,69.803923%,43.137255%);fill-opacity:1;" d="M 30.320312 55.175781 C 21.921875 55.175781 15.136719 61.960938 15.136719 70.359375 C 15.136719 78.757812 21.921875 85.59375 30.320312 85.59375 C 36.085938 85.59375 41.113281 82.375 43.652344 77.636719 C 44.824219 75.488281 45.507812 72.996094 45.507812 70.359375 C 45.507812 68.359375 45.117188 66.503906 44.433594 64.746094 C 42.234375 59.179688 36.765625 55.175781 30.320312 55.175781 Z M 30.320312 55.175781 "/>
<path style=" stroke:none;fill-rule:nonzero;fill:rgb(22.745098%,69.803923%,43.137255%);fill-opacity:1;" d="M 30.320312 164.40625 C 21.925781 164.40625 15.136719 171.242188 15.136719 179.640625 C 15.136719 188.035156 21.921875 194.871094 30.320312 194.871094 C 36.765625 194.871094 42.234375 190.917969 44.484375 185.253906 C 45.164062 183.546875 45.554688 181.640625 45.554688 179.640625 C 45.554688 177 44.871094 174.5625 43.703125 172.363281 C 41.113281 167.625 36.132812 164.40625 30.320312 164.40625 Z M 30.320312 164.40625 "/>
<path style=" stroke:none;fill-rule:nonzero;fill:rgb(22.745098%,69.803923%,43.137255%);fill-opacity:1;" d="M 124.707031 30.90625 L 125 30.90625 C 128.273438 30.90625 131.25 29.882812 133.691406 28.171875 C 133.9375 28.027344 134.132812 27.832031 134.328125 27.683594 C 134.523438 27.539062 134.765625 27.34375 134.960938 27.148438 C 135.398438 26.757812 135.839844 26.367188 136.230469 25.925781 C 136.476562 25.683594 136.671875 25.4375 136.867188 25.195312 C 136.964844 25.046875 137.109375 24.902344 137.207031 24.753906 C 137.304688 24.65625 137.355469 24.511719 137.453125 24.414062 C 137.550781 24.316406 137.597656 24.167969 137.695312 24.070312 C 137.84375 23.828125 137.988281 23.632812 138.136719 23.386719 C 138.28125 23.144531 138.429688 22.898438 138.527344 22.65625 C 138.671875 22.410156 138.769531 22.167969 138.867188 21.921875 C 138.964844 21.679688 139.113281 21.386719 139.210938 21.140625 C 139.304688 20.898438 139.40625 20.605469 139.503906 20.359375 C 139.601562 20.066406 139.648438 19.824219 139.746094 19.53125 C 139.796875 19.285156 139.84375 18.992188 139.941406 18.75 C 139.941406 18.652344 139.992188 18.601562 139.992188 18.503906 C 140.039062 18.210938 140.089844 17.96875 140.089844 17.675781 C 140.089844 17.578125 140.136719 17.527344 140.136719 17.480469 C 140.1875 17.332031 140.1875 17.1875 140.1875 17.039062 C 140.234375 16.601562 140.234375 16.160156 140.234375 15.722656 C 140.234375 7.324219 133.398438 0.488281 125 0.488281 C 116.601562 0.488281 109.765625 7.273438 109.765625 15.722656 C 109.765625 19.335938 111.035156 22.65625 113.085938 25.242188 C 115.867188 28.613281 120.019531 30.8125 124.707031 30.90625 Z M 124.707031 30.90625 "/>
<path style=" stroke:none;fill-rule:nonzero;fill:rgb(22.745098%,69.803923%,43.137255%);fill-opacity:1;" d="M 133.691406 221.972656 C 131.25 220.265625 128.273438 219.238281 125.050781 219.238281 C 124.953125 219.238281 124.855469 219.238281 124.757812 219.238281 C 121.632812 219.289062 118.75 220.3125 116.359375 221.972656 C 115.1875 222.804688 114.113281 223.78125 113.234375 224.902344 C 111.378906 227.195312 110.207031 229.980469 109.914062 233.054688 C 109.863281 233.496094 109.863281 233.9375 109.863281 234.375 C 109.863281 242.773438 116.652344 249.511719 125.050781 249.511719 C 133.398438 249.511719 140.1875 242.726562 140.1875 234.375 C 140.1875 233.9375 140.136719 233.496094 140.136719 233.054688 C 139.695312 228.46875 137.257812 224.460938 133.691406 221.972656 Z M 133.691406 221.972656 "/>
</g>
</svg>
