<svg height="250" viewBox="0 0 250 250" width="250" xmlns="http://www.w3.org/2000/svg"><path d="m125 249.832031-125-62.480469v-124.703124l125-62.480469 125 62.480469v124.703124zm0 0" fill="#0e6cac"/><g fill="#fff"><path d="m103.390625 142.25c-.359375 2.730469-1.289063 5.386719-2.746094 7.84375-1.359375 2.351562-3.15625 4.507812-5.324219 6.375-2.019531 1.738281-4.382812 3.152344-6.984374 4.1875-2.332032.964844-4.886719 1.480469-7.480469 1.507812-2.988281.003907-5.9375-.585937-8.609375-1.71875-3.007813-1.375-5.503906-3.4375-7.199219-5.957031-2.386719-3.539062-4.050781-7.394531-4.929687-11.402343-1.355469-5.929688-1.972657-11.964844-1.839844-18.003907-.132813-6.039062.484375-12.070312 1.839844-18 .886718-3.988281 2.507812-7.828125 4.796874-11.386719 1.574219-2.480468 3.917969-4.546874 6.773438-5.976562 6.503906-3.128906 14.710938-1.886719 19.539062 2.960938 4.101563 3.875 7.066407 8.515624 8.644532 13.550781h2.121094v-20.429688s-9.171876-1.144531-9.171876 5.484375c-1.175781-1.035156-2.503906-1.9375-3.941406-2.695312-1.5-.769532-3.085937-1.40625-4.734375-1.898438-1.972656-.59375-4.054687-.886718-6.148437-.863281-4.160156.027344-8.261719.851563-11.996094 2.414063-4.136719 1.746093-7.773438 4.242187-10.648438 7.3125-3.417968 3.636718-6.023437 7.777343-7.691406 12.210937-2.042968 5.582031-3.019531 11.40625-2.894531 17.25-.125 5.84375.851563 11.664063 2.894531 17.246094 1.644532 4.46875 4.277344 8.625 7.757813 12.253906 3.003906 3.105469 6.789062 5.605469 11.074219 7.3125 4.019531 1.59375 8.402343 2.417969 12.835937 2.414063 3.296875.019531 6.5625-.53125 9.597656-1.617188 3.007813-1.054688 5.742188-2.605469 8.039063-4.566406 2.355468-2.03125 4.289062-4.390625 5.71875-6.976563 1.535156-2.792969 2.488281-5.792969 2.824218-8.859375h-2.117187zm0 0"/><path d="m136.289062 153.289062h-.097656c-2.078125 0-3.761718-1.433593-3.761718-3.195312v-60.386719c0-1.765625-1.6875-3.195312-3.765626-3.195312h-12.917968c-2.078125 0-3.761719 1.429687-3.761719 3.195312v3.667969c0 1.765625 1.683594 3.199219 3.761719 3.199219h.9375c2.078125 0 3.765625 1.429687 3.765625 3.195312v50.324219c0 1.761719-1.6875 3.195312-3.765625 3.195312h-.9375c-2.070313 0-3.753906 1.421876-3.761719 3.179688v3.671875c0 1.765625 1.683594 3.195313 3.761719 3.195313h21.367187c2.078125 0 3.761719-1.429688 3.761719-3.195313v-3.671875c0-1.765625-1.683594-3.195312-3.761719-3.195312zm0 0"/><path d="m201.386719 86.496094h-51.832031c-2.082032 0-3.765626 1.429687-3.765626 3.195312v70.460938c0 1.765625 1.683594 3.199218 3.765626 3.199218h51.78125c2.082031 0 3.765624-1.433593 3.765624-3.199218v-70.460938c-.007812-1.746094-1.660156-3.164062-3.714843-3.195312zm-39.789063 10.078125h27.742188l-31.570313 50.867187v-47.671875c-.003906-.859375.398438-1.683593 1.121094-2.285156s1.699219-.929687 2.707031-.910156zm27.792969 56.714843h-27.757813l31.519532-50.898437v47.6875c.003906.851563-.390625 1.667969-1.09375 2.269531-.707032.601563-1.667969.941406-2.667969.941406zm0 0"/></g></svg>