
<svg xmlns="http://www.w3.org/2000/svg" xmlns:xlink="http://www.w3.org/1999/xlink" width="250px" height="250px" viewBox="0 0 250 250" version="1.1">
<g id="surface1">
<path style=" stroke:none;fill-rule:nonzero;fill:rgb(5.490196%,42.352942%,67.450982%);fill-opacity:1;" d="M 125 249.832031 L 0 187.351562 L 0 62.648438 L 125 0.167969 L 250 62.648438 L 250 187.351562 Z M 125 249.832031 "/>
<path style=" stroke:none;fill-rule:nonzero;fill:rgb(100%,100%,100%);fill-opacity:1;" d="M 103.390625 142.25 C 103.03125 144.980469 102.101562 147.636719 100.644531 150.09375 C 99.285156 152.445312 97.488281 154.601562 95.320312 156.46875 C 93.300781 158.207031 90.9375 159.621094 88.335938 160.65625 C 86.003906 161.621094 83.449219 162.136719 80.855469 162.164062 C 77.867188 162.167969 74.917969 161.578125 72.246094 160.445312 C 69.238281 159.070312 66.742188 157.007812 65.046875 154.488281 C 62.660156 150.949219 60.996094 147.09375 60.117188 143.085938 C 58.761719 137.15625 58.144531 131.121094 58.277344 125.082031 C 58.144531 119.042969 58.761719 113.011719 60.117188 107.082031 C 61.003906 103.09375 62.625 99.253906 64.914062 95.695312 C 66.488281 93.214844 68.832031 91.148438 71.6875 89.71875 C 78.191406 86.589844 86.398438 87.832031 91.226562 92.679688 C 95.328125 96.554688 98.292969 101.195312 99.871094 106.230469 L 101.992188 106.230469 L 101.992188 85.800781 C 101.992188 85.800781 92.820312 84.65625 92.820312 91.285156 C 91.644531 90.25 90.316406 89.347656 88.878906 88.589844 C 87.378906 87.820312 85.792969 87.183594 84.144531 86.691406 C 82.171875 86.097656 80.089844 85.804688 77.996094 85.828125 C 73.835938 85.855469 69.734375 86.679688 66 88.242188 C 61.863281 89.988281 58.226562 92.484375 55.351562 95.554688 C 51.933594 99.191406 49.328125 103.332031 47.660156 107.765625 C 45.617188 113.347656 44.640625 119.171875 44.765625 125.015625 C 44.640625 130.859375 45.617188 136.679688 47.660156 142.261719 C 49.304688 146.730469 51.9375 150.886719 55.417969 154.515625 C 58.421875 157.621094 62.207031 160.121094 66.492188 161.828125 C 70.511719 163.421875 74.894531 164.246094 79.328125 164.242188 C 82.625 164.261719 85.890625 163.710938 88.925781 162.625 C 91.933594 161.570312 94.667969 160.019531 96.964844 158.058594 C 99.320312 156.027344 101.253906 153.667969 102.683594 151.082031 C 104.21875 148.289062 105.171875 145.289062 105.507812 142.222656 L 103.390625 142.222656 Z M 103.390625 142.25 "/>
<path style=" stroke:none;fill-rule:nonzero;fill:rgb(100%,100%,100%);fill-opacity:1;" d="M 136.289062 153.289062 L 136.191406 153.289062 C 134.113281 153.289062 132.429688 151.855469 132.429688 150.09375 L 132.429688 89.707031 C 132.429688 87.941406 130.742188 86.511719 128.664062 86.511719 L 115.746094 86.511719 C 113.667969 86.511719 111.984375 87.941406 111.984375 89.707031 L 111.984375 93.375 C 111.984375 95.140625 113.667969 96.574219 115.746094 96.574219 L 116.683594 96.574219 C 118.761719 96.574219 120.449219 98.003906 120.449219 99.769531 L 120.449219 150.09375 C 120.449219 151.855469 118.761719 153.289062 116.683594 153.289062 L 115.746094 153.289062 C 113.675781 153.289062 111.992188 154.710938 111.984375 156.46875 L 111.984375 160.140625 C 111.984375 161.90625 113.667969 163.335938 115.746094 163.335938 L 137.113281 163.335938 C 139.191406 163.335938 140.875 161.90625 140.875 160.140625 L 140.875 156.46875 C 140.875 154.703125 139.191406 153.273438 137.113281 153.273438 Z M 136.289062 153.289062 "/>
<path style=" stroke:none;fill-rule:nonzero;fill:rgb(100%,100%,100%);fill-opacity:1;" d="M 201.386719 86.496094 L 149.554688 86.496094 C 147.472656 86.496094 145.789062 87.925781 145.789062 89.691406 L 145.789062 160.152344 C 145.789062 161.917969 147.472656 163.351562 149.554688 163.351562 L 201.335938 163.351562 C 203.417969 163.351562 205.101562 161.917969 205.101562 160.152344 L 205.101562 89.691406 C 205.09375 87.945312 203.441406 86.527344 201.386719 86.496094 Z M 161.597656 96.574219 L 189.339844 96.574219 L 157.769531 147.441406 L 157.769531 99.769531 C 157.765625 98.910156 158.167969 98.085938 158.890625 97.484375 C 159.613281 96.882812 160.589844 96.554688 161.597656 96.574219 Z M 189.390625 153.289062 L 161.632812 153.289062 L 193.152344 102.390625 L 193.152344 150.078125 C 193.15625 150.929688 192.761719 151.746094 192.058594 152.347656 C 191.351562 152.949219 190.390625 153.289062 189.390625 153.289062 Z M 189.390625 153.289062 "/>
</g>
</svg>
