<svg height="250" viewBox="0 0 250 250" width="250" xmlns="http://www.w3.org/2000/svg"><g fill="#023048"><path d="m126.253906 248.167969c-35.726562-20.625-71.285156-41.152344-106.800781-61.65625 0-41.269531 0-82.273438 0-123.691407 35.488281-20.488281 71.121094-41.058593 106.796875-61.652343 35.652344 20.574219 71.128906 41.050781 106.695312 61.582031v123.839844c-35.441406 20.453125-70.921874 40.933594-106.691406 61.578125zm0-198.117188c-21.550781 12.441407-43.050781 24.851563-64.5 37.230469v74.761719c21.46875 12.394531 42.96875 24.804687 64.511719 37.238281 21.652344-12.503906 43.136719-24.910156 64.410156-37.195312 0-25.199219 0-49.945313 0-74.847657-21.449219-12.378906-42.863281-24.742187-64.421875-37.1875zm0 0"/><path d="m180.859375 124.757812c-.117187 6.1875-.820313 12.234376-3.425781 17.882813-1.003906 2.171875-2.238282 4.339844-3.808594 6.125-5.945312 6.761719-15.320312 6.632813-21.269531-.140625-3.449219-3.925781-5.121094-8.679688-5.992188-13.710938-1.617187-9.371093-1.574219-18.707031 2.148438-27.621093 1.183593-2.839844 2.992187-5.636719 5.160156-7.804688 5.445313-5.441406 13.828125-5.164062 19.261719.296875 4.191406 4.207032 6.027344 9.574219 6.976562 15.25.539063 3.203125.648438 6.480469.949219 9.722656zm-8.429687 6.347657c.292968-3.964844.199218-7.375.195312-11.464844 0-4.085937-.839844-7.875-1.539062-11.636719-.523438-2.8125-1.757813-5.667968-3.335938-8.070312-2.453125-3.730469-6.933594-3.636719-9.445312.078125-1.324219 1.960937-2.335938 4.273437-2.917969 6.574219-2.667969 10.566406-2.679688 21.285156-.878907 31.960937.582032 3.457031 1.714844 6.992187 3.390626 10.058594 2.632812 4.8125 7.609374 4.664062 10.492187-.042969.972656-1.589844 1.851563-3.394531 2.167969-5.203125.714844-4.132813 1.578125-8.257813 1.871094-12.253906zm0 0"/><path d="m107.535156 152.363281c-.4375 0-.660156-.523437-.363281-.84375 4.292969-4.65625 8.230469-8.859375 12.078125-13.140625 4.585938-5.109375 8.808594-10.484375 11.582031-16.855468 2.402344-5.523438 2.820313-11.210938 1.136719-16.964844-1.613281-5.515625-5.328125-7.925782-10.621094-7.195313-4.96875.683594-9.636718 5.785157-9.707031 10.609375-.035156 2.382813 1.152344 4.007813 3.492187 4.597656.929688.234376 1.90625.300782 3.214844.476563.207032.027344.375.175781.425782.378906.4375 1.8125.898437 3.699219 1.351562 5.582031.066406.265626-.089844.539063-.355469.605469-5.125 1.292969-9.214843-1.882812-9.953125-7.335937-1.453125-10.75 6.148438-16.4375 12.789063-17.101563 8.832031-.886719 17.347656 5.84375 18.148437 14.375.367188 3.898438-.457031 7.527344-2.164062 11.003907-3.058594 6.238281-7.46875 11.464843-12.414063 16.242187-3.164062 3.054687-6.503906 5.933594-10.03125 9.09375-.34375.304687-.128906.878906.332031.878906h21.582032c.230468 0 .429687-.160156.488281-.382812.496094-1.960938.976563-3.851563 1.492187-5.882813.121094-.476562.957032-.058594.957032-.058594l.375 11.488282s-.253906.429687-.5.429687zm0 0"/></g><path d="m106.328125 137.511719c.546875 5.363281-3.277344 12.324219-8.402344 14.777343-5.855469 2.800782-11.292969 1.527344-16.230469-2.328124-3.058593-2.390626-5.195312-5.566407-6.488281-9.183594-3.988281-11.136719-4.019531-22.292969.511719-33.289063.90625-2.195312 2.296875-4.289062 3.835938-6.113281 5.667968-6.714844 12.703124-7.46875 19.605468-2.40625 1.59375-1.089844 3.148438-2.148438 4.699219-3.210938.226563.164063.449219.324219.671875.488282v7.09375 7.222656c-.171875.113281-.34375.222656-.519531.335938-.394531-.535157-.878907-1.023438-1.175781-1.609376-1.234376-2.429687-2.113282-5.101562-3.667969-7.296874-4.546875-6.402344-11.621094-5.941407-15.027344 1.105468-1.570313 3.253906-2.5625 6.933594-3.070313 10.527344-1.253906 8.90625-1.316406 17.871094.867188 26.675781.621094 2.507813 1.660156 5.039063 3.054688 7.207031 2.996093 4.660157 8.367187 5.601563 12.96875 2.503907 3.5625-2.402344 5.628906-5.890625 6.789062-9.96875.261719-.921875.554688-1.832031.832031-2.746094.246094.070313.496094.144531.746094.214844zm0 0" fill="#343434"/></svg>