<!-- Generator: Adobe Illustrator 19.0.0, SVG Export Plug-In . SVG Version: 6.00 Build 0)  -->
<svg xmlns="http://www.w3.org/2000/svg" xmlns:xlink="http://www.w3.org/1999/xlink" width="250px" height="250px" viewBox="0 0 250 250" version="1.1">
<g id="surface1">
<path style=" stroke:none;fill-rule:nonzero;fill:rgb(0.784314%,18.82353%,28.235295%);fill-opacity:1;" d="M 126.253906 248.167969 C 90.527344 227.542969 54.96875 207.015625 19.453125 186.511719 C 19.453125 145.242188 19.453125 104.238281 19.453125 62.820312 C 54.941406 42.332031 90.574219 21.761719 126.25 1.167969 C 161.902344 21.742188 197.378906 42.21875 232.945312 62.75 C 232.945312 104.019531 232.945312 145.207031 232.945312 186.589844 C 197.503906 207.042969 162.023438 227.523438 126.253906 248.167969 Z M 126.253906 50.050781 C 104.703125 62.492188 83.203125 74.902344 61.753906 87.28125 C 61.753906 112.296875 61.753906 137.050781 61.753906 162.042969 C 83.222656 174.4375 104.722656 186.847656 126.265625 199.28125 C 147.917969 186.777344 169.402344 174.371094 190.675781 162.085938 C 190.675781 136.886719 190.675781 112.140625 190.675781 87.238281 C 169.226562 74.859375 147.8125 62.496094 126.253906 50.050781 Z M 126.253906 50.050781 "/>
<path style=" stroke:none;fill-rule:nonzero;fill:rgb(0.784314%,18.82353%,28.235295%);fill-opacity:1;" d="M 180.859375 124.757812 C 180.742188 130.945312 180.039062 136.992188 177.433594 142.640625 C 176.429688 144.8125 175.195312 146.980469 173.625 148.765625 C 167.679688 155.527344 158.304688 155.398438 152.355469 148.625 C 148.90625 144.699219 147.234375 139.945312 146.363281 134.914062 C 144.746094 125.542969 144.789062 116.207031 148.511719 107.292969 C 149.695312 104.453125 151.503906 101.65625 153.671875 99.488281 C 159.117188 94.046875 167.5 94.324219 172.933594 99.785156 C 177.125 103.992188 178.960938 109.359375 179.910156 115.035156 C 180.449219 118.238281 180.558594 121.515625 180.859375 124.757812 Z M 172.429688 131.105469 C 172.722656 127.140625 172.628906 123.730469 172.625 119.640625 C 172.625 115.554688 171.785156 111.765625 171.085938 108.003906 C 170.5625 105.191406 169.328125 102.335938 167.75 99.933594 C 165.296875 96.203125 160.816406 96.296875 158.304688 100.011719 C 156.980469 101.972656 155.96875 104.285156 155.386719 106.585938 C 152.71875 117.152344 152.707031 127.871094 154.507812 138.546875 C 155.089844 142.003906 156.222656 145.539062 157.898438 148.605469 C 160.53125 153.417969 165.507812 153.269531 168.390625 148.5625 C 169.363281 146.972656 170.242188 145.167969 170.558594 143.359375 C 171.273438 139.226562 172.136719 135.101562 172.429688 131.105469 Z M 172.429688 131.105469 "/>
<path style=" stroke:none;fill-rule:nonzero;fill:rgb(0.784314%,18.82353%,28.235295%);fill-opacity:1;" d="M 107.535156 152.363281 C 107.097656 152.363281 106.875 151.839844 107.171875 151.519531 C 111.464844 146.863281 115.402344 142.660156 119.25 138.378906 C 123.835938 133.269531 128.058594 127.894531 130.832031 121.523438 C 133.234375 116 133.652344 110.3125 131.96875 104.558594 C 130.355469 99.042969 126.640625 96.632812 121.347656 97.363281 C 116.378906 98.046875 111.710938 103.148438 111.640625 107.972656 C 111.605469 110.355469 112.792969 111.980469 115.132812 112.570312 C 116.0625 112.804688 117.039062 112.871094 118.347656 113.046875 C 118.554688 113.074219 118.722656 113.222656 118.773438 113.425781 C 119.210938 115.238281 119.671875 117.125 120.125 119.007812 C 120.191406 119.273438 120.035156 119.546875 119.769531 119.613281 C 114.644531 120.90625 110.554688 117.730469 109.816406 112.277344 C 108.363281 101.527344 115.964844 95.839844 122.605469 95.175781 C 131.4375 94.289062 139.953125 101.019531 140.753906 109.550781 C 141.121094 113.449219 140.296875 117.078125 138.589844 120.554688 C 135.53125 126.792969 131.121094 132.019531 126.175781 136.796875 C 123.011719 139.851562 119.671875 142.730469 116.144531 145.890625 C 115.800781 146.195312 116.015625 146.769531 116.476562 146.769531 L 138.058594 146.769531 C 138.289062 146.769531 138.488281 146.609375 138.546875 146.386719 C 139.042969 144.425781 139.523438 142.535156 140.039062 140.503906 C 140.160156 140.027344 140.996094 140.445312 140.996094 140.445312 L 141.371094 151.933594 C 141.371094 151.933594 141.117188 152.363281 140.871094 152.363281 Z M 107.535156 152.363281 "/>
<path style=" stroke:none;fill-rule:nonzero;fill:rgb(20.392157%,20.392157%,20.392157%);fill-opacity:1;" d="M 106.328125 137.511719 C 106.875 142.875 103.050781 149.835938 97.925781 152.289062 C 92.070312 155.089844 86.632812 153.816406 81.695312 149.960938 C 78.636719 147.570312 76.5 144.394531 75.207031 140.777344 C 71.21875 129.640625 71.1875 118.484375 75.71875 107.488281 C 76.625 105.292969 78.015625 103.199219 79.554688 101.375 C 85.222656 94.660156 92.257812 93.90625 99.160156 98.96875 C 100.753906 97.878906 102.308594 96.820312 103.859375 95.757812 C 104.085938 95.921875 104.308594 96.082031 104.53125 96.246094 C 104.53125 98.609375 104.53125 100.972656 104.53125 103.339844 C 104.53125 105.746094 104.53125 108.152344 104.53125 110.5625 C 104.359375 110.675781 104.1875 110.785156 104.011719 110.898438 C 103.617188 110.363281 103.132812 109.875 102.835938 109.289062 C 101.601562 106.859375 100.722656 104.1875 99.167969 101.992188 C 94.621094 95.589844 87.546875 96.050781 84.140625 103.097656 C 82.570312 106.351562 81.578125 110.03125 81.070312 113.625 C 79.816406 122.53125 79.753906 131.496094 81.9375 140.300781 C 82.558594 142.808594 83.597656 145.339844 84.992188 147.507812 C 87.988281 152.167969 93.359375 153.109375 97.960938 150.011719 C 101.523438 147.609375 103.589844 144.121094 104.75 140.042969 C 105.011719 139.121094 105.304688 138.210938 105.582031 137.296875 C 105.828125 137.367188 106.078125 137.441406 106.328125 137.511719 Z M 106.328125 137.511719 "/>
</g>
</svg>
