<svg height="250" viewBox="0 0 250 250" width="250" xmlns="http://www.w3.org/2000/svg"><g fill="#fff"><path d="m388.001132 205.199997c0 100.958398-81.842737 182.801135-182.801135 182.801135-100.958399 0-182.801135-81.842737-182.801135-182.801135 0-100.958399 81.842736-182.801135 182.801135-182.801135 100.958398 0 182.801135 81.842736 182.801135 182.801135zm0 0" stroke="#000" stroke-miterlimit="10" transform="scale(.609162)"/><path d="m99.050781 12.304688-.246093.121093c.183593.183594.429687.304688.609374.488281zm0 0"/><path d="m102.828125 29.058594-.183594.121094c.183594.121093.363281.242187.546875.425781zm0 0"/></g><path d="m125 0c-69.019531 0-125 55.980469-125 125s55.980469 125 125 125 125-55.980469 125-125-55.980469-125-125-125zm-59.027344 190.910156c-7.433594-8.222656-13.097656-17.910156-17.058594-29.054687-3.957031-11.148438-5.90625-23.148438-5.90625-36.003907 0-13.21875 1.949219-25.460937 5.90625-36.730468 3.414063-9.746094 8.101563-18.398438 14.074219-26.011719.242188-.304687.488281-.609375.730469-.914063.730469-.914062 1.460938-1.765624 2.191406-2.621093.914063-1.035157 1.890625-2.070313 2.863282-3.105469.0625-.058594.121093-.121094.183593-.183594.792969-.789062 1.644531-1.582031 2.4375-2.375.242188-.242187.488281-.425781.730469-.667968.609375-.550782 1.21875-1.097657 1.828125-1.585938.304687-.242188.546875-.488281.851563-.730469.609374-.488281 1.21875-.972656 1.828124-1.460937.304688-.246094.609376-.425782.914063-.671875.242187-.183594.488281-.363281.730469-.546875h.0625c4.507812-3.289063 9.441406-6.09375 14.863281-8.46875 10.78125-4.75 22.964844-7.1875 36.488281-7.1875 9.746094 0 18.945313 1.402344 27.59375 4.203125 8.652344 2.800781 16.386719 6.882812 23.269532 12.246093 3.414062 2.679688 6.457031 5.601563 9.261718 8.890626 2.863282 3.351562 5.421875 7.007812 7.675782 11.027343 4.445312 7.917969 7.246093 16.996094 8.40625 27.230469h-20.714844c-8.710938 0-16.6875-4.691406-21.257813-12.125 0-.058594-.0625-.058594-.0625-.121094-2.3125-3.714844-5.175781-6.941406-8.648437-9.746094-3.472656-2.800781-7.371094-4.996093-11.757813-6.578124-4.019531-1.460938-8.164062-2.191407-12.488281-2.316407-.425781 0-.789062 0-1.21875 0-8.769531 0-16.140625 1.707031-22.234375 5.058594-6.089844 3.347656-11.023437 7.917969-14.863281 13.582031-.425782.671875-.851563 1.339844-1.277344 2.011719-.304688.488281-.550781.914063-.792969 1.402344-.121093.179687-.242187.363281-.304687.546875-.363282.609375-.667969 1.21875-.972656 1.886718 0 .0625-.0625.0625-.0625.125-.367188.667969-.671876 1.339844-.976563 2.070313-1.582031 3.53125-2.921875 7.371094-3.898437 11.390625-1.703126 7.25-2.617188 14.742188-2.617188 22.476562 0 7.433594.851562 14.621094 2.617188 21.625 1.707031 7.007813 4.507812 13.34375 8.285156 18.945313 3.777344 5.605469 8.710937 10.113281 14.863281 13.464844 6.09375 3.410156 13.523437 5.054687 22.234375 5.054687h1.523438c-14.863282 10.660156-33.015626 16.996094-52.628907 17.238282-4.632812-3.289063-8.894531-7.066407-12.671875-11.269532zm133.773438-15.59375c-4.144532 8.894532-9.566406 16.507813-16.328125 22.78125-6.761719 6.277344-14.679688 11.027344-23.757813 14.316406-8.285156 2.984376-17.300781 4.628907-27.105468 4.875-.914063 0-1.890626.058594-2.863282.058594-.183594 0-.367187 0-.550781 0-9.195313-.058594-17.726563-1.15625-25.644531-3.410156 17.421875-5.117188 32.710937-15.167969 44.226562-28.570312 1.460938-1.703126 2.921875-3.53125 4.261719-5.359376 1.21875-1.402343 2.5-2.800781 3.777344-4.144531.609375-.546875 1.21875-1.15625 1.765625-1.765625 0-.058594.0625-.058594.0625-.121094 2.742187-2.621093 5.605468-5.117187 8.589844-7.433593 11.695312-8.890625 25.585937-15.105469 40.753906-17.601563-1.097656 9.683594-3.472656 18.457032-7.1875 26.375zm0 0" fill="#3cf"/></svg>