<svg height="250" viewBox="0 0 250 250" width="250" xmlns="http://www.w3.org/2000/svg"><g fill-rule="evenodd"><path d="m250 125c0 69.035156-55.964844 125-125 125s-125-55.964844-125-125 55.964844-125 125-125 125 55.964844 125 125zm0 0" fill="#fff"/><path d="m189.246094 174.25c-19.574219 19.167969-36.464844 28.429688-64.269532 28.429688-46.304687 0-78.277343-32.34375-78.277343-77.886719 0-46.773438 36.253906-77.472657 78.714843-77.472657 24.785157.027344 48.328126 10.859376 64.480469 29.667969l-19.808593 18.957031c-13.390626-14.222656-28.011719-21.632812-45.320313-21.632812-27.78125 0-50.460937 21.425781-50.460937 50.480469 0 30.5 21.835937 50.894531 51.085937 50.894531 18.324219 0 30.6875-7.410156 44.695313-21.425781zm0 0"/></g></svg>