
<svg xmlns="http://www.w3.org/2000/svg" xmlns:xlink="http://www.w3.org/1999/xlink" width="250px" height="250px" viewBox="0 0 250 250" version="1.1">
<g id="surface1">
<path style=" stroke:none;fill-rule:nonzero;fill:rgb(25.490198%,33.725491%,65.098041%);fill-opacity:1;" d="M 250 125 C 250 194.035156 194.035156 250 125 250 C 55.964844 250 0 194.035156 0 125 C 0 55.964844 55.964844 0 125 0 C 194.035156 0 250 55.964844 250 125 Z M 250 125 "/>
<path style=" stroke:none;fill-rule:evenodd;fill:rgb(100%,100%,100%);fill-opacity:1;" d="M 125 200 C 83.644531 200 50 166.355469 50 125 C 50 83.644531 83.644531 50 125 50 C 166.355469 50 200 83.644531 200 125 C 200 166.355469 166.355469 200 125 200 M 125 56.871094 C 87.433594 56.871094 56.871094 87.433594 56.871094 125 C 56.871094 162.566406 87.433594 193.128906 125 193.128906 C 162.566406 193.128906 193.128906 162.566406 193.128906 125 C 193.128906 87.433594 162.566406 56.871094 125 56.871094 M 154.59375 157.671875 C 155.867188 156.375 155.910156 154.3125 154.691406 152.964844 C 153.476562 151.617188 151.417969 151.449219 150 152.578125 C 135.121094 166.058594 112.230469 165.308594 98.269531 150.878906 C 84.308594 136.449219 84.308594 113.550781 98.269531 99.121094 C 112.230469 84.691406 135.121094 83.941406 150 97.421875 C 150.902344 98.285156 152.203125 98.589844 153.398438 98.21875 C 154.589844 97.847656 155.488281 96.855469 155.742188 95.632812 C 155.992188 94.40625 155.558594 93.144531 154.609375 92.328125 C 136.984375 76.359375 109.867188 77.25 93.328125 94.34375 C 76.789062 111.433594 76.789062 138.566406 93.328125 155.65625 C 109.867188 172.75 136.984375 173.640625 154.609375 157.671875 M 163.109375 100.90625 C 159.554688 100.90625 156.675781 103.785156 156.675781 107.339844 C 156.675781 110.894531 159.554688 113.773438 163.109375 113.773438 C 166.664062 113.773438 169.546875 110.894531 169.546875 107.339844 C 169.535156 103.789062 166.660156 100.914062 163.109375 100.90625 M 166 107.339844 C 166.003906 108.5 165.304688 109.550781 164.230469 109.996094 C 163.15625 110.441406 161.921875 110.195312 161.101562 109.375 C 160.277344 108.554688 160.035156 107.316406 160.480469 106.246094 C 160.925781 105.171875 161.972656 104.472656 163.136719 104.476562 C 164.714844 104.476562 165.996094 105.757812 166 107.339844 "/>
</g>
</svg>
