
<svg xmlns="http://www.w3.org/2000/svg" xmlns:xlink="http://www.w3.org/1999/xlink" width="250px" height="250px" viewBox="0 0 250 250" version="1.1">
<g id="surface1">
<path style=" stroke:none;fill-rule:nonzero;fill:rgb(0%,0%,0%);fill-opacity:1;" d="M 161.1875 43.429688 C 160.683594 40.554688 157.945312 38.636719 155.070312 39.144531 C 152.199219 39.648438 150.277344 42.390625 150.785156 45.261719 L 153.203125 58.96875 C 148.929688 55.699219 144.304688 53.335938 139.316406 51.960938 C 132.257812 49.949219 125.148438 50.050781 118.113281 52.246094 C 111.074219 54.273438 104.726562 58.222656 99.074219 63.875 L 84.335938 78.609375 C 75.554688 87.394531 70.214844 97.042969 69 107.558594 C 67.765625 118.089844 71.109375 127.367188 78.730469 134.988281 L 85.902344 142.160156 C 92.332031 148.589844 100.113281 151.898438 109 151.792969 L 109.0625 151.789062 C 117.90625 151.585938 126.703125 148.042969 135.371094 141.796875 C 137.738281 140.09375 138.273438 136.789062 136.566406 134.425781 C 134.863281 132.058594 131.5625 131.519531 129.195312 133.226562 C 121.703125 138.621094 114.945312 141.078125 108.847656 141.230469 C 102.964844 141.289062 97.890625 139.207031 93.371094 134.6875 L 86.199219 127.515625 C 80.777344 122.09375 78.648438 115.988281 79.492188 108.785156 L 79.496094 108.773438 C 80.367188 101.203125 84.246094 93.640625 91.808594 86.082031 L 106.542969 71.34375 C 111.132812 66.753906 115.980469 63.84375 121.082031 62.386719 L 121.214844 62.347656 C 126.324219 60.742188 131.355469 60.671875 136.4375 62.125 L 136.488281 62.136719 C 140.070312 63.125 143.527344 64.855469 146.851562 67.410156 L 133.648438 69.738281 C 130.773438 70.246094 128.855469 72.984375 129.363281 75.859375 C 129.867188 78.730469 132.609375 80.648438 135.480469 80.144531 L 166.695312 74.640625 Z M 161.1875 43.429688 "/>
<path style=" stroke:none;fill-rule:nonzero;fill:rgb(0%,0%,0%);fill-opacity:1;" d="M 170.503906 142.085938 C 169.632812 149.65625 165.753906 157.21875 158.195312 164.777344 L 143.457031 179.515625 C 138.867188 184.101562 134.019531 187.015625 128.917969 188.472656 L 128.785156 188.511719 C 123.675781 190.117188 118.644531 190.1875 113.5625 188.734375 L 113.511719 188.71875 C 109.597656 187.644531 105.835938 185.679688 102.226562 182.714844 L 116.417969 180.210938 C 119.289062 179.707031 121.210938 176.96875 120.703125 174.09375 C 120.195312 171.222656 117.457031 169.304688 114.582031 169.808594 L 83.371094 175.3125 L 88.875 206.523438 C 89.382812 209.398438 92.121094 211.316406 94.996094 210.808594 C 97.867188 210.300781 99.785156 207.5625 99.277344 204.6875 L 97.058594 192.085938 C 101.257812 195.253906 105.796875 197.550781 110.683594 198.898438 C 117.742188 200.914062 124.851562 200.808594 131.886719 198.613281 C 138.925781 196.585938 145.273438 192.640625 150.925781 186.984375 L 165.664062 172.25 C 174.445312 163.464844 179.785156 153.816406 181 143.300781 C 182.234375 132.769531 178.890625 123.492188 171.269531 115.871094 L 164.097656 108.699219 C 157.667969 102.269531 149.886719 98.964844 141 99.066406 L 140.9375 99.070312 C 132.09375 99.273438 123.296875 102.816406 114.628906 109.0625 C 112.261719 110.765625 111.726562 114.070312 113.433594 116.4375 C 115.136719 118.800781 118.4375 119.339844 120.804688 117.632812 C 128.296875 112.238281 135.054688 109.78125 141.152344 109.632812 C 147.035156 109.570312 152.109375 111.652344 156.628906 116.171875 L 163.800781 123.34375 C 169.222656 128.765625 171.351562 134.871094 170.507812 142.074219 Z M 170.503906 142.085938 "/>
<path style="fill:none;stroke-width:0.3;stroke-linecap:round;stroke-linejoin:miter;stroke:rgb(0%,0%,0%);stroke-opacity:1;stroke-miterlimit:4;" d="M 103.16 27.795 C 102.8375 25.955 101.085 24.7275 99.245 25.0525 C 97.4075 25.375 96.1775 27.13 96.5025 28.9675 L 98.05 37.74 C 95.315 35.6475 92.355 34.135 89.1625 33.255 C 84.645 31.9675 80.095 32.0325 75.5925 33.4375 C 71.0875 34.735 67.025 37.2625 63.4075 40.88 L 53.975 50.31 C 48.355 55.9325 44.9375 62.1075 44.16 68.8375 C 43.37 75.5775 45.51 81.515 50.3875 86.3925 L 54.9775 90.9825 C 59.0925 95.0975 64.0725 97.215 69.76 97.1475 L 69.8 97.145 C 75.46 97.015 81.09 94.7475 86.6375 90.75 C 88.1525 89.66 88.495 87.545 87.4025 86.0325 C 86.3125 84.5175 84.2 84.1725 82.685 85.265 C 77.89 88.7175 73.565 90.29 69.6625 90.3875 C 65.8975 90.425 62.65 89.0925 59.7575 86.2 L 55.1675 81.61 C 51.6975 78.14 50.335 74.2325 50.875 69.6225 L 50.8775 69.615 C 51.435 64.77 53.9175 59.93 58.7575 55.0925 L 68.1875 45.66 C 71.125 42.7225 74.2275 40.86 77.4925 39.9275 L 77.5775 39.9025 C 80.8475 38.875 84.0675 38.83 87.32 39.76 L 87.3525 39.7675 C 89.645 40.4 91.8575 41.5075 93.985 43.1425 L 85.535 44.6325 C 83.695 44.9575 82.4675 46.71 82.7925 48.55 C 83.115 50.3875 84.87 51.615 86.7075 51.2925 L 106.685 47.77 Z M 103.16 27.795 " transform="matrix(1.5625,0,0,1.5625,0,0)"/>
<path style="fill:none;stroke-width:0.3;stroke-linecap:round;stroke-linejoin:miter;stroke:rgb(0%,0%,0%);stroke-opacity:1;stroke-miterlimit:4;" d="M 109.1225 90.935 C 108.565 95.78 106.0825 100.62 101.245 105.4575 L 91.8125 114.89 C 88.875 117.825 85.7725 119.69 82.5075 120.6225 L 82.4225 120.6475 C 79.1525 121.675 75.9325 121.72 72.68 120.79 L 72.6475 120.78 C 70.1425 120.0925 67.735 118.835 65.425 116.9375 L 74.5075 115.335 C 76.345 115.0125 77.575 113.26 77.25 111.42 C 76.925 109.5825 75.1725 108.355 73.3325 108.6775 L 53.3575 112.2 L 56.88 132.175 C 57.205 134.015 58.9575 135.2425 60.7975 134.9175 C 62.635 134.5925 63.8625 132.84 63.5375 131 L 62.1175 122.935 C 64.805 124.9625 67.71 126.4325 70.8375 127.295 C 75.355 128.585 79.905 128.5175 84.4075 127.1125 C 88.9125 125.815 92.975 123.29 96.5925 119.67 L 106.025 110.24 C 111.645 104.6175 115.0625 98.4425 115.84 91.7125 C 116.63 84.9725 114.49 79.035 109.6125 74.1575 L 105.0225 69.5675 C 100.9075 65.4525 95.9275 63.3375 90.24 63.4025 L 90.2 63.405 C 84.54 63.535 78.91 65.8025 73.3625 69.8 C 71.8475 70.89 71.505 73.005 72.5975 74.52 C 73.6875 76.0325 75.8 76.3775 77.315 75.285 C 82.11 71.8325 86.435 70.26 90.3375 70.165 C 94.1025 70.125 97.35 71.4575 100.2425 74.35 L 104.8325 78.94 C 108.3025 82.41 109.665 86.3175 109.125 90.9275 Z M 109.1225 90.935 " transform="matrix(1.5625,0,0,1.5625,0,0)"/>
</g>
</svg>
