<svg width="93" height="142" viewBox="0 0 93 142" fill="none" xmlns="http://www.w3.org/2000/svg">
<path d="M76.317 4.55714C75.9042 2.21635 73.672 0.653359 71.3312 1.0661C68.9905 1.47885 67.4275 3.71103 67.8402 6.05182L69.8095 17.22C66.3294 14.5566 62.5583 12.63 58.4959 11.5085C52.7452 9.86935 46.9518 9.95172 41.2206 11.7422C35.4832 13.3923 30.3124 16.6102 25.7068 21.2159L13.6997 33.223C6.54395 40.3787 2.1943 48.2422 1.20475 56.8071C0.196581 65.3878 2.92297 72.9484 9.13061 79.1561L14.9748 85.0003C20.2131 90.2385 26.5537 92.9337 33.7948 92.8485L33.8442 92.8476C41.0511 92.68 48.2175 89.7932 55.28 84.7052C57.2085 83.3158 57.6456 80.6261 56.2562 78.6976C54.8668 76.769 52.1771 76.3319 50.2486 77.7213C44.1453 82.1183 38.6397 84.12 33.6689 84.2418C28.8778 84.2922 24.7423 82.5949 21.0612 78.9138L15.2171 73.0696C10.8001 68.6526 9.06348 63.6765 9.75389 57.8081L9.75499 57.7986C10.4666 51.631 13.6256 45.47 19.7861 39.3094L31.7932 27.3023C35.532 23.5636 39.4813 21.191 43.6396 20.0029L43.6938 19.9874L43.7476 19.9705C47.9098 18.6624 52.0087 18.6069 56.151 19.7904L56.1908 19.8016C59.1107 20.6056 61.925 22.0144 64.6338 24.0978L53.876 25.9947C51.5353 26.4074 49.9723 28.6396 50.385 30.9804C50.7978 33.3212 53.0299 34.8842 55.3707 34.4715L80.801 29.9874L76.317 4.55714Z" fill="black"/>
<path d="M83.9065 84.9403C83.1949 91.108 80.0359 97.2689 73.8754 103.429L61.8683 115.437C58.1295 119.175 54.1802 121.548 50.0219 122.736L49.9677 122.751L49.9139 122.768C45.7518 124.076 41.6528 124.132 37.5105 122.948L37.4708 122.937C34.28 122.059 31.2153 120.458 28.2767 118.044L39.8383 116.005C42.1791 115.593 43.7421 113.36 43.3294 111.02C42.9166 108.679 40.6844 107.116 38.3436 107.529L12.9134 112.013L17.3974 137.443C17.8101 139.784 20.0423 141.347 22.3831 140.934C24.7239 140.521 26.2869 138.289 25.8742 135.948L24.0635 125.68C27.4847 128.26 31.1854 130.132 35.1656 131.23C40.9163 132.87 46.7098 132.787 52.441 130.997C58.1783 129.347 63.3491 126.129 67.9547 121.523L79.9618 109.516C87.1176 102.36 91.4672 94.4967 92.4568 85.9318C93.4649 77.3511 90.7385 69.7905 84.5309 63.5828L78.6867 57.7387C73.4484 52.5004 67.1078 49.8052 59.8667 49.8904L59.8173 49.8913C52.6105 50.0589 45.444 52.9457 38.3815 58.0337C36.453 59.4231 36.0159 62.1128 37.4053 64.0414C38.7947 65.9699 41.4844 66.407 43.4129 65.0176C49.5163 60.6206 55.0218 58.6189 59.9927 58.4971C64.7837 58.4467 68.9192 60.1441 72.6003 63.8251L78.4445 69.6693C82.8614 74.0863 84.598 79.0624 83.9076 84.9308L83.9065 84.9403Z" fill="black"/>
<path d="M76.317 4.55714C75.9042 2.21635 73.672 0.653359 71.3312 1.0661C68.9905 1.47885 67.4275 3.71103 67.8402 6.05182L69.8095 17.22C66.3294 14.5566 62.5583 12.63 58.4959 11.5085C52.7452 9.86935 46.9518 9.95172 41.2206 11.7422C35.4832 13.3923 30.3124 16.6102 25.7068 21.2159L13.6997 33.223C6.54395 40.3787 2.1943 48.2422 1.20475 56.8071C0.196581 65.3878 2.92297 72.9484 9.13061 79.1561L14.9748 85.0003C20.2131 90.2385 26.5537 92.9337 33.7948 92.8485L33.8442 92.8476C41.0511 92.68 48.2175 89.7932 55.28 84.7052C57.2085 83.3158 57.6456 80.6261 56.2562 78.6976C54.8668 76.769 52.1771 76.3319 50.2486 77.7213C44.1453 82.1183 38.6397 84.12 33.6689 84.2418C28.8778 84.2922 24.7423 82.5949 21.0612 78.9138L15.2171 73.0696C10.8001 68.6526 9.06348 63.6765 9.75389 57.8081L9.75499 57.7986C10.4666 51.631 13.6256 45.47 19.7861 39.3094L31.7932 27.3023C35.532 23.5636 39.4813 21.191 43.6396 20.0029L43.6938 19.9874L43.7476 19.9705C47.9098 18.6624 52.0087 18.6069 56.151 19.7904L56.1908 19.8016C59.1107 20.6056 61.925 22.0144 64.6338 24.0978L53.876 25.9947C51.5353 26.4074 49.9723 28.6396 50.385 30.9804C50.7978 33.3212 53.0299 34.8842 55.3707 34.4715L80.801 29.9874L76.317 4.55714Z" stroke="black" stroke-width="0.3" stroke-linecap="round"/>
<path d="M83.9065 84.9403C83.1949 91.108 80.0359 97.2689 73.8754 103.429L61.8683 115.437C58.1295 119.175 54.1802 121.548 50.0219 122.736L49.9677 122.751L49.9139 122.768C45.7518 124.076 41.6528 124.132 37.5105 122.948L37.4708 122.937C34.28 122.059 31.2153 120.458 28.2767 118.044L39.8383 116.005C42.1791 115.593 43.7421 113.36 43.3294 111.02C42.9166 108.679 40.6844 107.116 38.3436 107.529L12.9134 112.013L17.3974 137.443C17.8101 139.784 20.0423 141.347 22.3831 140.934C24.7239 140.521 26.2869 138.289 25.8742 135.948L24.0635 125.68C27.4847 128.26 31.1854 130.132 35.1656 131.23C40.9163 132.87 46.7098 132.787 52.441 130.997C58.1783 129.347 63.3491 126.129 67.9547 121.523L79.9618 109.516C87.1176 102.36 91.4672 94.4967 92.4568 85.9318C93.4649 77.3511 90.7385 69.7905 84.5309 63.5828L78.6867 57.7387C73.4484 52.5004 67.1078 49.8052 59.8667 49.8904L59.8173 49.8913C52.6105 50.0589 45.444 52.9457 38.3815 58.0337C36.453 59.4231 36.0159 62.1128 37.4053 64.0414C38.7947 65.9699 41.4844 66.407 43.4129 65.0176C49.5163 60.6206 55.0218 58.6189 59.9927 58.4971C64.7837 58.4467 68.9192 60.1441 72.6003 63.8251L78.4445 69.6693C82.8614 74.0863 84.598 79.0624 83.9076 84.9308L83.9065 84.9403Z" stroke="black" stroke-width="0.3" stroke-linecap="round"/>
</svg>
