
<svg xmlns="http://www.w3.org/2000/svg" xmlns:xlink="http://www.w3.org/1999/xlink" width="250px" height="250px" viewBox="0 0 250 250" version="1.1">
<g id="surface1">
<path style=" stroke:none;fill-rule:evenodd;fill:rgb(0.392157%,76.47059%,55.29412%);fill-opacity:1;" d="M 154.804688 0 L 134.296875 11.636719 L 134.296875 110.5 L 145.496094 116.863281 L 145.496094 41.574219 L 183.9375 63.394531 L 183.976562 63.378906 L 191.441406 67.609375 L 197.671875 64.09375 L 197.671875 58.152344 L 145.496094 28.574219 L 145.496094 18.28125 L 154.804688 13 L 208.839844 43.679688 L 208.839844 70.980469 L 182.898438 85.625 L 182.023438 85.191406 C 180.445312 84.414062 178.808594 84.015625 177.164062 84.015625 C 170.992188 84.015625 165.96875 89.105469 165.96875 95.355469 C 165.96875 101.605469 170.992188 106.699219 177.164062 106.699219 C 182.890625 106.699219 187.652344 102.320312 188.242188 96.515625 L 188.339844 95.535156 L 214.519531 80.757812 L 238.800781 94.542969 L 238.800781 155.535156 L 214.492188 169.320312 L 115.703125 113.21875 L 115.703125 11.644531 L 95.195312 0 L 29.960938 37.035156 L 29.960938 70.828125 L 0 87.816406 L 0 162.101562 L 29.960938 179.109375 L 29.960938 212.964844 L 95.195312 250 L 115.703125 238.359375 L 115.703125 139.28125 L 104.503906 132.925781 L 104.503906 208.429688 L 58.558594 182.390625 L 52.324219 185.90625 L 52.324219 191.851562 L 104.503906 221.429688 L 104.503906 231.714844 L 95.195312 237 L 41.160156 206.320312 L 41.160156 179.011719 L 67.101562 164.378906 L 67.972656 164.808594 C 69.558594 165.585938 71.1875 165.984375 72.832031 165.984375 C 79.003906 165.984375 84.03125 160.898438 84.03125 154.644531 C 84.03125 148.386719 79.003906 143.304688 72.832031 143.304688 C 67.109375 143.304688 62.351562 147.679688 61.757812 153.488281 L 61.664062 154.464844 L 35.476562 169.242188 L 11.195312 155.457031 L 11.195312 94.464844 L 35.507812 80.683594 L 134.296875 136.777344 L 134.296875 238.359375 L 154.804688 250 L 220.039062 212.964844 L 220.039062 179.171875 L 250 162.183594 L 250 87.898438 L 220.039062 70.894531 L 220.039062 37.035156 Z M 41.160156 43.679688 L 95.195312 13 L 104.503906 18.285156 L 104.503906 28.570312 L 41.160156 64.476562 Z M 46.96875 74.191406 L 104.503906 41.566406 L 104.503906 106.859375 Z M 145.496094 143.136719 L 203.035156 175.8125 L 145.496094 208.433594 Z M 145.496094 231.714844 L 145.496094 221.433594 L 208.839844 185.519531 L 208.839844 206.320312 L 154.804688 237 Z M 145.496094 231.714844 "/>
</g>
</svg>
