
<svg xmlns="http://www.w3.org/2000/svg" xmlns:xlink="http://www.w3.org/1999/xlink" width="250px" height="250px" viewBox="0 0 250 250" version="1.1">
<g id="surface1">
<path style=" stroke:none;fill-rule:nonzero;fill:rgb(80.392158%,0.392157%,14.117648%);fill-opacity:1;" d="M 148.332031 130.832031 C 148.332031 129.167969 148.332031 128.332031 146.667969 127.5 C 140.832031 123.332031 134.167969 119.167969 128.332031 115 C 127.070312 114.15625 125.429688 114.15625 124.167969 115 L 105.832031 128.332031 C 104.273438 129.128906 103.300781 130.746094 103.332031 132.5 C 103.292969 134.296875 102.714844 136.039062 101.667969 137.5 C 100.824219 138.761719 100.824219 140.40625 101.667969 141.667969 C 108.332031 155 114.167969 168.332031 120.832031 181.667969 C 123.332031 185.832031 125 190.832031 127.5 195.832031 C 128.332031 195 128.332031 194.167969 129.167969 193.332031 C 136.667969 176.667969 143.332031 160 150.832031 143.332031 C 151.667969 141.667969 151.667969 140.832031 150 140 C 148.101562 137.347656 147.492188 133.984375 148.332031 130.832031 Z M 148.332031 130.832031 "/>
<path style=" stroke:none;fill-rule:nonzero;fill:rgb(80.392158%,0.392157%,14.117648%);fill-opacity:1;" d="M 120 109.167969 C 103.332031 97.5 86.667969 85.832031 70.832031 75 L 70 75.832031 C 70.832031 77.5 70.832031 78.332031 71.667969 80 L 89.167969 117.5 C 90.832031 120.832031 91.667969 124.167969 96.667969 125 C 98.105469 125.128906 99.554688 124.839844 100.832031 124.167969 C 105.832031 120 111.667969 116.667969 116.667969 112.5 Z M 120 109.167969 "/>
<path style=" stroke:none;fill-rule:nonzero;fill:rgb(80.392158%,0.392157%,14.117648%);fill-opacity:1;" d="M 125 0 C 55.964844 0 0 55.964844 0 125 C 0 194.035156 55.964844 250 125 250 C 194.035156 250 250 194.035156 250 125 C 250 55.964844 194.035156 0 125 0 Z M 192.5 72.5 C 190.832031 72.5 190 73.332031 189.167969 75 C 182.5 91.667969 175 108.332031 168.332031 125 L 168.332031 128.332031 C 169.679688 131.183594 169.71875 134.480469 168.4375 137.363281 C 167.15625 140.242188 164.683594 142.421875 161.667969 143.332031 C 160.832031 143.332031 160 144.167969 159.167969 145.832031 C 151.667969 162.5 144.167969 180 137.5 196.667969 C 136.65625 197.929688 136.65625 199.570312 137.5 200.832031 C 140.730469 205.265625 140.003906 211.4375 135.832031 215 C 132.21875 218.570312 126.527344 218.925781 122.5 215.832031 C 120.398438 214.398438 118.953125 212.1875 118.484375 209.683594 C 118.015625 207.183594 118.5625 204.597656 120 202.5 C 120.828125 200.9375 120.828125 199.0625 120 197.5 C 111.667969 180.832031 104.167969 164.167969 95.832031 147.5 C 95.0625 145.78125 93.511719 144.539062 91.667969 144.167969 C 88.21875 143.59375 85.273438 141.367188 83.777344 138.210938 C 82.28125 135.054688 82.425781 131.363281 84.167969 128.332031 C 85.007812 127.070312 85.007812 125.429688 84.167969 124.167969 C 76.667969 107.5 69.167969 91.667969 60.832031 75 C 60.832031 74.167969 60 73.332031 57.5 73.332031 C 52.445312 72.621094 48.601562 68.429688 48.332031 63.332031 C 48.648438 58.617188 51.527344 54.453125 55.832031 52.5 C 60.460938 50.707031 65.707031 52.457031 68.332031 56.667969 C 69.167969 58.332031 70 58.332031 72.5 58.332031 L 178.332031 58.332031 C 180 58.332031 181.667969 58.332031 182.5 55.832031 C 184.847656 51.78125 189.78125 50.015625 194.167969 51.667969 C 198.390625 53.265625 201.3125 57.164062 201.667969 61.667969 C 201.730469 67.054688 197.824219 71.671875 192.5 72.5 Z M 192.5 72.5 "/>
<path style=" stroke:none;fill-rule:nonzero;fill:rgb(80.392158%,0.392157%,14.117648%);fill-opacity:1;" d="M 125 103.332031 C 126.261719 104.175781 127.90625 104.175781 129.167969 103.332031 C 145 91.667969 160.832031 80.832031 175.832031 69.167969 C 176.667969 68.332031 177.5 68.332031 177.5 67.5 L 177.5 66.667969 L 72.5 66.667969 C 73.453125 67.015625 74.308594 67.585938 75 68.332031 Z M 125 103.332031 "/>
<path style=" stroke:none;fill-rule:nonzero;fill:rgb(80.392158%,0.392157%,14.117648%);fill-opacity:1;" d="M 133.332031 109.167969 C 140 114.167969 146.667969 118.332031 153.332031 122.5 C 155 123.332031 157.5 122.5 160 122.5 C 160.832031 122.5 161.667969 120.832031 161.667969 120 C 167.5 106.667969 173.332031 92.5 179.167969 79.167969 C 179.167969 78.332031 180 77.5 180 76.667969 L 179.167969 76.667969 C 165 86.667969 149.167969 97.5 133.332031 109.167969 Z M 133.332031 109.167969 "/>
</g>
</svg>
