<svg height="250" viewBox="0 0 250 250" width="250" xmlns="http://www.w3.org/2000/svg"><g fill="#cd0124"><path d="m148.332031 130.832031c0-1.664062 0-2.5-1.664062-3.332031-5.835938-4.167969-12.5-8.332031-18.335938-12.5-1.261719-.84375-2.902343-.84375-4.164062 0l-18.335938 13.332031c-1.558593.796875-2.53125 2.414063-2.5 4.167969-.039062 1.796875-.617187 3.539062-1.664062 5-.84375 1.261719-.84375 2.90625 0 4.167969 6.664062 13.332031 12.5 26.664062 19.164062 40 2.5 4.164062 4.167969 9.164062 6.667969 14.164062.832031-.832031.832031-1.664062 1.667969-2.5 7.5-16.664062 14.164062-33.332031 21.664062-50 .835938-1.664062.835938-2.5-.832031-3.332031-1.898438-2.652344-2.507812-6.015625-1.667969-9.167969zm0 0"/><path d="m120 109.167969c-16.667969-11.667969-33.332031-23.335938-49.167969-34.167969l-.832031.832031c.832031 1.667969.832031 2.5 1.667969 4.167969l17.5 37.5c1.664062 3.332031 2.5 6.667969 7.5 7.5 1.4375.128906 2.886719-.160156 4.164062-.832031 5-4.167969 10.835938-7.5 15.835938-11.667969zm0 0"/><path d="m125 0c-69.035156 0-125 55.964844-125 125s55.964844 125 125 125 125-55.964844 125-125-55.964844-125-125-125zm67.5 72.5c-1.667969 0-2.5.832031-3.332031 2.5-6.667969 16.667969-14.167969 33.332031-20.835938 50v3.332031c1.347657 2.851563 1.386719 6.148438.105469 9.03125-1.28125 2.878907-3.753906 5.058594-6.769531 5.96875-.835938 0-1.667969.835938-2.5 2.5-7.5 16.667969-15 34.167969-21.667969 50.835938-.84375 1.261719-.84375 2.902343 0 4.164062 3.230469 4.433594 2.503906 10.605469-1.667969 14.167969-3.613281 3.570312-9.304687 3.925781-13.332031.832031-2.101562-1.433593-3.546875-3.644531-4.015625-6.148437-.46875-2.5.078125-5.085938 1.515625-7.183594.828125-1.5625.828125-3.4375 0-5-8.332031-16.667969-15.832031-33.332031-24.167969-50-.769531-1.71875-2.320312-2.960938-4.164062-3.332031-3.449219-.574219-6.394531-2.800781-7.890625-5.957031s-1.351563-6.847657.390625-9.878907c.839843-1.261719.839843-2.902343 0-4.164062-7.5-16.667969-15-32.5-23.335938-49.167969 0-.832031-.832031-1.667969-3.332031-1.667969-5.054688-.710937-8.898438-4.902343-9.167969-10 .316407-4.714843 3.195313-8.878906 7.5-10.832031 4.628907-1.792969 9.875-.042969 12.5 4.167969.835938 1.664062 1.667969 1.664062 4.167969 1.664062h105.832031c1.667969 0 3.335938 0 4.167969-2.5 2.347656-4.050781 7.28125-5.816406 11.667969-4.164062 4.222656 1.597656 7.144531 5.496093 7.5 10 .0625 5.386719-3.84375 10.003906-9.167969 10.832031zm0 0"/><path d="m125 103.332031c1.261719.84375 2.90625.84375 4.167969 0 15.832031-11.664062 31.664062-22.5 46.664062-34.164062.835938-.835938 1.667969-.835938 1.667969-1.667969v-.832031h-105c.953125.347656 1.808594.917969 2.5 1.664062zm0 0"/><path d="m133.332031 109.167969c6.667969 5 13.335938 9.164062 20 13.332031 1.667969.832031 4.167969 0 6.667969 0 .832031 0 1.667969-1.667969 1.667969-2.5 5.832031-13.332031 11.664062-27.5 17.5-40.832031 0-.835938.832031-1.667969.832031-2.5h-.832031c-14.167969 10-30 20.832031-45.835938 32.5zm0 0"/></g></svg>