<svg xmlns="http://www.w3.org/2000/svg" width="250" height="250"><linearGradient id="a" x1="125" x2="125" y1="0" y2="250" gradientUnits="userSpaceOnUse"><stop offset="0" stop-color="#f08710"/><stop offset="1" stop-color="#f96d36"/></linearGradient><linearGradient id="b" x1="125" x2="125" y1="8.333" y2="241.667" gradientUnits="userSpaceOnUse"><stop offset="0" stop-color="#f0870d"/><stop offset="1" stop-color="#f09a39"/></linearGradient><path fill="url(#a)" d="M250 125c0 69.035-55.965 125-125 125S0 194.035 0 125 55.965 0 125 0s125 55.965 125 125zm0 0"/><path fill="url(#b)" d="M241.668 125c0 64.434-52.234 116.668-116.668 116.668S8.332 189.434 8.332 125 60.566 8.332 125 8.332 241.668 60.566 241.668 125zm0 0"/><path d="M63.332 151.668H172.5V170H63.332zm0 0"/><path fill="#fff" d="M63.332 170h90v18.332h-90zm0 0"/><path fill="#e25b26" d="M153.332 170H172.5v18.332h-19.168zm0 0"/><path d="M63.332 188.332H172.5v18.336H63.332zM172.5 170h20v18.332h-20zm0 0"/><path fill="#fcf7d6" d="M153.332 21.668h17.5v110h-17.5zm0 0"/></svg>