<svg height="250" viewBox="0 0 250 250" width="250" xmlns="http://www.w3.org/2000/svg"><path d="m125 250c69.035156 0 125-55.964844 125-125s-55.964844-125-125-125-125 55.964844-125 125 55.964844 125 125 125zm0 0" fill="#070a0e"/><path d="m125 240.683594c63.890625 0 115.683594-51.792969 115.683594-115.683594s-51.792969-115.683594-115.683594-115.683594-115.683594 51.792969-115.683594 115.683594 51.792969 115.683594 115.683594 115.683594zm0 0" fill="#070a0e"/><path d="m72.261719 166.945312c-3.738281-2.289062-6.023438-6.363281-6.023438-10.734374v-24.421876c0-.933593.25-1.835937.714844-2.636718 1.453125-2.503906 4.675781-3.351563 7.179687-1.886719l55.113282 32.132813c3.222656 1.886718 5.207031 5.324218 5.207031 9.0625v25.304687c0 1.152344-.3125 2.304687-.914063 3.289063-1.820312 2.96875-5.695312 3.90625-8.664062 2.085937zm82.15625-46.371093c3.222656 1.886719 5.207031 5.324219 5.207031 9.0625v51.34375c0 1.519531-.816406 2.921875-2.132812 3.65625l-12.070313 6.792969c-.148437.082031-.316406.148437-.484375.199218v-28.507812c0-3.691406-1.9375-7.113282-5.109375-9.011719l-48.402344-28.960937v-32.183594c0-.933594.25-1.835938.714844-2.636719 1.453125-2.503906 4.675781-3.355469 7.179687-1.886719zm24.121093-37.921875c3.238282 1.867187 5.222657 5.339844 5.222657 9.078125v74.996093c0 1.535157-.851563 2.953126-2.203125 3.6875l-11.433594 6.175782v-52.210938c0-3.6875-1.9375-7.09375-5.089844-8.996094l-49.472656-29.675781v-30.53125c0-.933593.25-1.835937.699219-2.636719 1.453125-2.503906 4.671875-3.355468 7.175781-1.902343zm0 0" fill="#00d395" fill-rule="evenodd"/></svg>