<svg height="250" viewBox="0 0 250 250" width="250" xmlns="http://www.w3.org/2000/svg" xmlns:xlink="http://www.w3.org/1999/xlink"><linearGradient id="a" gradientUnits="userSpaceOnUse" x1="190.72290966873" x2="59.2328087091" y1="76.2619759859" y2="76.2619759859"><stop offset="0" stop-color="#f9f9f9"/><stop offset=".7346" stop-color="#f9f9f9" stop-opacity=".7"/><stop offset="1" stop-color="#e8ebf8" stop-opacity="0"/></linearGradient><linearGradient id="b" gradientUnits="userSpaceOnUse" x1="184.68799859663" x2="75.9900993033" y1="157.68227806667" y2="148.1723880503"><stop offset="0" stop-color="#f9f9f9"/><stop offset=".75" stop-color="#f9f9f9" stop-opacity=".8"/><stop offset="1" stop-color="#e8ebf8" stop-opacity="0"/></linearGradient><linearGradient id="c" gradientUnits="userSpaceOnUse" x1="58.0843712826" x2="188.89737853557" y1="146.9650964609" y2="128.58489451223"><stop offset="0" stop-color="#f9f9f9"/><stop offset=".75" stop-color="#f9f9f9" stop-opacity=".8"/><stop offset="1" stop-color="#e8ebf8"/></linearGradient><path d="m234.894531 78.125v89.0625c0 11.980469-6.25 22.394531-16.144531 28.644531l-93.75 53.648438-93.75-54.167969c-10.417969-5.730469-16.144531-16.667969-16.144531-28.644531v-88.542969c0-11.980469 6.25-22.394531 16.144531-28.644531l77.082031-44.792969c5.210938-2.605469 10.417969-4.167969 16.148438-4.167969 5.726562 0 11.457031 1.5625 16.144531 4.167969l77.605469 44.792969c10.414062 5.726562 16.664062 16.664062 16.664062 28.644531zm0 0" fill="#325ce8"/><path d="m190.625 94.269531c0 1.5625 0 2.605469-.519531 4.167969l-11.980469-6.769531-15.625-8.855469c-2.082031-1.042969-28.125-15.625-29.6875-16.144531-6.25-2.085938-13.542969-1.5625-19.269531 1.5625-6.25 3.644531-44.273438 23.957031-49.480469 27.601562-1.5625 1.042969-3.125 2.605469-4.6875 4.6875 0-3.644531 0-7.8125 1.5625-11.457031s4.167969-6.769531 7.8125-8.332031l47.917969-26.5625c5.207031-3.125 11.976562-3.125 17.1875 0 0 0 48.957031 27.082031 48.957031 27.082031 4.167969 2.605469 7.8125 7.8125 7.8125 13.019531zm0 0" fill="url(#a)"/><path d="m185.9375 141.667969c-6.769531 3.644531-19.792969 10.9375-26.5625 14.582031 0 0-26.042969 14.582031-26.042969 14.582031-5.207031 3.125-11.976562 3.125-17.1875 0 0 0-36.976562-20.3125-36.976562-20.3125-1.5625-1.039062-2.605469-2.601562-2.605469-4.164062v-10.417969l36.457031 20.3125c6.773438 4.167969 16.148438 4.167969 22.917969 0 0 0 32.8125-18.230469 32.8125-18.230469 5.730469-3.125 13.542969-1.5625 17.1875 3.648438zm0 0" fill="url(#b)"/><path d="m190.625 155.730469c0 4.6875-2.082031 8.332031-5.730469 11.457031-1.5625 1.5625-8.851562 5.207031-10.9375 6.25 0 0-16.664062 9.375-16.664062 9.375s-24.480469 13.542969-24.480469 13.542969c-5.207031 3.125-11.980469 3.125-17.1875 0 0 0-40.625-22.398438-40.625-22.398438s-7.292969-4.164062-7.292969-4.164062c-5.726562-3.125-9.375-8.855469-9.375-15.625v-32.292969c.523438-6.25 3.648438-12.5 9.375-15.625 3.648438-2.082031 43.230469-23.957031 47.917969-26.5625 4.167969-2.605469 9.375-3.125 14.0625-1.5625.519531-.519531 27.605469 15.105469 29.167969 15.625 6.25 3.644531 20.3125 10.9375 26.5625 14.582031-3.648438 5.730469-12.5 6.25-18.230469 2.605469 0 0-31.769531-17.707031-31.769531-17.707031-7.292969-4.167969-16.148438-4.167969-22.917969 0 0 0-36.980469 20.3125-36.980469 20.3125-3.644531 2.082031-5.726562 5.726562-5.726562 9.375v28.125c0 4.164062 2.082031 7.8125 5.726562 9.375l36.980469 20.3125c6.769531 4.164062 16.144531 4.164062 22.917969 0 0 0 26.039062-14.585938 26.039062-14.585938 4.6875-2.601562 18.230469-10.414062 22.917969-12.5 1.042969-.519531 3.644531-2.082031 4.6875-2.601562 1.5625 2.082031 1.5625 3.125 1.5625 4.6875zm0 0" fill="url(#c)"/></svg>