<svg height="250" viewBox="0 0 250 250" width="250" xmlns="http://www.w3.org/2000/svg" xmlns:xlink="http://www.w3.org/1999/xlink"><linearGradient id="a" gradientUnits="userSpaceOnUse" x1="5.715" x2="239.2575" y1="162.5" y2="78.37"><stop offset="0" stop-color="#3b3c44"/><stop offset=".521" stop-color="#1c1d22"/><stop offset=".766" stop-color="#0e0d0d"/><stop offset="1"/></linearGradient><linearGradient id="b" gradientTransform="matrix(180.585937 0 0 159.167969 34.582031 53.75)" gradientUnits="userSpaceOnUse" x1="0" x2=".99996" y1=".50003" y2=".50003"><stop offset=".344" stop-color="#fff"/><stop offset=".495" stop-color="#8d9aca"/><stop offset="1" stop-color="#ff784a"/></linearGradient><path d="m250 125c0 69.035156-55.964844 125-125 125s-125-55.964844-125-125 55.964844-125 125-125 125 55.964844 125 125zm0 0" fill="url(#a)"/><path d="m208.148438 105.984375-24.886719-4.0625 18.347656-7.667969 5.117187-20.433594-6.140624-10.902343-31.382813-9.167969 14.976563 21.449219h-.019532l.167969.242187-8.882813 2.21875-27.164062-18.644531-23.402344 2.78125-23.40625-2.78125-27.160156 18.644531-8.894531-2.222656.164062-.234375h-.003906l14.972656-21.453125-31.375 9.167969-6.140625 10.902343 5.117188 20.433594 18.34375 7.667969-24.882813 4.0625-7.03125 18.945313 20.722657 10.011718 17.386718-6.125 2.457032 18.238282 12.0625 28.097656 5.964843 15.488281 30.515625 21.421875v.035156l1.164063.820313.042969-.027344.023437.015625 1.152344-.820312v-.027344l30.5-21.414063 5.964843-15.488281 12.0625-28.101562 2.457032-18.238282 17.386718 6.128906 20.722657-10.011718-7.027344-18.945313zm-11.03125-38.707031 2.835937 5.035156-10.1875 1.882812-7.949219-11.390624 15.296875 4.472656zm-19.59375 31.457031v-16.28125l9.988281-2.492187 7.949219 11.277343zm15.507812-19.902344 7.460938-1.378906-2.210938 8.832031zm1.109375 50.535157-16.613281-5.851563v-17.3125l26.828125 4.386719 4.355469 11.742187-14.566407 7.039063zm-47.179687-65.007813 25.398437 17.4375v14.691406l-16.566406 8.605469-26.898438-38.585938zm5.921874 121.515625-23.695312-6.570312 19.34375-15.878907 7.542969 14.175781zm-32.3125-6.570312-23.699218 6.570312-3.1875-8.273438 7.542968-14.175781zm-40.402343-33.632813-2.492188-18.421875 19.269531-5.035156 6.988282 23.925781-5.808594 12.125-6.945312 13.054687-11.007813-25.648437zm20.257812-29.730469-2.285156-7.660156 26.738281-38.570312 26.734375 38.570312-2.28125 7.660156zm39.039063 33-8.359375 22.117188-6.226563 5.109375-6.226562-5.109375-8.359375-22.117188zm-30.839844-5.15625-6.628906-22.691406h45.765625l-6.628907 22.691406zm12.238281-77.277344-26.898437 38.585938-16.566406-8.605469v-14.691406l25.398437-17.433594 18.070313 2.148438zm27.640625 123.5-23.625 16.585938-23.628906-16.585938 23.628906-6.550781zm21.082032-44.339843-11.007813 25.652343-6.945313-13.054687-5.808593-12.128906 6.988281-23.925781 19.269531 5.039062-2.492187 18.417969zm-113.96875-16.300781-14.5625-7.039063 4.355468-11.742187 26.824219-4.382813v17.3125l-16.617187 5.847656zm-4.140626-43.082032-2.210937-8.835937 7.460937 1.382812zm16.460938-23.480468-7.949219 11.390624-10.183593-1.882812 2.835937-5.035156zm-13.640625 28.433593 7.945313-11.277343 9.988281 2.492187v16.28125zm0 0" fill="url(#b)"/></svg>