<svg xmlns="http://www.w3.org/2000/svg" width="250" height="250"><linearGradient id="a" x1="5.715" x2="239.257" y1="162.5" y2="78.37" gradientUnits="userSpaceOnUse"><stop offset="0" stop-color="#3b3c44"/><stop offset=".521" stop-color="#1c1d22"/><stop offset=".766" stop-color="#0e0d0d"/><stop offset="1"/></linearGradient><linearGradient id="b" x1="0" x2="1" y1=".5" y2=".5" gradientTransform="matrix(180.58594 0 0 159.16797 34.582 53.75)" gradientUnits="userSpaceOnUse"><stop offset=".344" stop-color="#fff"/><stop offset=".495" stop-color="#8d9aca"/><stop offset="1" stop-color="#ff784a"/></linearGradient><path fill="url(#a)" d="M250 125c0 69.035-55.965 125-125 125S0 194.035 0 125 55.965 0 125 0s125 55.965 125 125zm0 0"/><path fill="url(#b)" d="m208.148 105.984-24.886-4.062 18.347-7.668 5.118-20.434-6.141-10.902-31.383-9.168L184.18 75.2h-.02l.168.241-8.883 2.22-27.164-18.645-23.402 2.78-23.406-2.78-27.16 18.644-8.895-2.222.164-.235h-.004L80.551 53.75l-31.375 9.168-6.14 10.902 5.116 20.434 18.344 7.668-24.883 4.062-7.031 18.946 20.723 10.011 17.386-6.125 2.457 18.239 12.063 28.097 5.965 15.489 30.515 21.422v.035l1.164.82.043-.027.024.015 1.152-.82v-.027l30.5-21.414 5.965-15.489 12.063-28.101 2.457-18.239 17.386 6.13 20.723-10.012-7.027-18.946zm-11.03-38.707 2.835 5.035-10.187 1.883-7.95-11.39 15.297 4.472zm-19.595 31.457v-16.28l9.989-2.493 7.949 11.277zm15.508-19.902 7.461-1.379-2.21 8.832zm1.11 50.535-16.614-5.851v-17.313l26.828 4.387 4.356 11.742-14.566 7.04zM146.96 64.36l25.398 17.438v14.691l-16.566 8.606-26.898-38.586zm5.922 121.516-23.696-6.57 19.344-15.88 7.543 14.177zm-32.313-6.57-23.699 6.57-3.187-8.273 7.543-14.176zm-40.402-33.633-2.492-18.422 19.27-5.035 6.988 23.926-5.809 12.125-6.945 13.054-11.008-25.648zm20.258-29.73-2.285-7.66 26.738-38.571 26.734 38.57-2.281 7.66zm39.039 33-8.36 22.117-6.226 5.109-6.227-5.11-8.359-22.117zm-30.84-5.157-6.629-22.691h45.766l-6.63 22.691zm12.238-77.277-26.898 38.586-16.567-8.606V81.797l25.399-17.434 18.07 2.149zm27.64 123.5-23.624 16.586-23.629-16.586 23.629-6.551zm21.083-44.34-11.008 25.652-6.945-13.054-5.809-12.13 6.988-23.925 19.27 5.039-2.492 18.418zm-113.969-16.3-14.562-7.04 4.355-11.742 26.824-4.383v17.313l-16.617 5.847zm-4.14-43.083-2.211-8.836 7.46 1.383zm16.46-23.48-7.949 11.39-10.183-1.882 2.836-5.036zm-13.64 28.433 7.945-11.277 9.988 2.492v16.281zm0 0"/></svg>