<?xml version="1.0" encoding="utf-8"?>
<!-- Generator: Adobe Illustrator 24.3.0, SVG Export Plug-In . SVG Version: 6.00 Build 0)  -->
<svg version="1.1" id="Layer_1" xmlns="http://www.w3.org/2000/svg" xmlns:xlink="http://www.w3.org/1999/xlink" x="0px" y="0px"
	 viewBox="0 0 351.1 350" style="enable-background:new 0 0 351.1 350;" xml:space="preserve">
<style type="text/css">
	.st0{fill:#2970FB;}
	.st1{fill:#B3B2B3;}
	.st2{fill:#FFFFFF;}
</style>
<g>
	<circle class="st0" cx="175.5" cy="175" r="144.9"/>
	<path class="st1" d="M175.5,336.5c-89,0-161.5-72.4-161.5-161.5S86.5,13.5,175.5,13.5S337,86,337,175S264.6,336.5,175.5,336.5z
		 M175.5,20.5C90.4,20.5,21.1,89.8,21.1,175c0,85.2,69.3,154.5,154.5,154.5c85.2,0,154.5-69.3,154.5-154.5
		C330,89.8,260.7,20.5,175.5,20.5z"/>
	<path class="st2" d="M115.6,199.7c-3.7,1.6-7.7,2.4-12.2,2.4c-5.2,0-9.9-1.1-14.2-3.4c-4.3-2.3-7.6-5.5-9.9-9.5
		c-2.3-4-3.5-8.6-3.5-13.8c0-7.4,2.6-13.7,7.9-18.8c5.3-5.1,11.7-7.6,19.4-7.6c9.1,0,17.3,3.7,24.6,11.2l10.7-9.9
		c-4.4-5-9.7-8.9-15.9-11.6c-2.7-1.2-5.4-2.1-8.1-2.8V118h-10.2v16.6c-0.3,0-0.6,0-0.9,0c-2.5,0-4.9,0.2-7.2,0.5V118H86v20
		c-1.5,0.6-3,1.3-4.4,2.1c-6.8,3.7-12,8.5-15.6,14.5c-3.6,6-5.4,12.9-5.4,20.7c0,12,4,21.8,12,29.5c3.9,3.8,8.5,6.7,13.5,8.6v20
		h10.2v-17.5c2.3,0.3,4.6,0.4,7,0.4c0.4,0,0.7,0,1.1,0v17.1h10.2v-18.3c2.4-0.5,4.7-1.2,6.8-2.1c5.3-2.2,10.9-6.1,16.8-11.7
		l-10.4-10.5C123.3,195.1,119.3,198,115.6,199.7z"/>
	<g>
		<path class="st2" d="M149.5,139.1h31.1c18.2,0,29.2,10.8,29.2,26.3v0.2c0,17.6-13.7,26.8-30.8,26.8h-12.7v22.8h-16.8V139.1z
			 M179.5,177.5c8.4,0,13.3-5,13.3-11.5v-0.2c0-7.5-5.2-11.5-13.6-11.5h-12.9v23.3H179.5z"/>
		<path class="st2" d="M221,182.7v-43.5h16.8v43.1c0,12.4,6.2,18.8,16.4,18.8c10.2,0,16.4-6.2,16.4-18.3v-43.6h16.8v43
			c0,23.1-12.9,34.4-33.4,34.4C233.5,216.5,221,205.1,221,182.7z"/>
	</g>
</g>
</svg>
