<svg height="250" viewBox="0 0 250 250" width="250" xmlns="http://www.w3.org/2000/svg" xmlns:xlink="http://www.w3.org/1999/xlink"><linearGradient id="a" gradientTransform="matrix(.246706 0 0 .188756 -31.765627 -1.817722)" gradientUnits="userSpaceOnUse" x1="240.320007" x2="1117.609985" y1="1108.410034" y2="231.119995"><stop offset=".05" stop-color="#00c1b4"/><stop offset=".35" stop-color="#1870eb"/><stop offset=".49" stop-color="#4e4fd5"/><stop offset=".69" stop-color="#9821b6"/><stop offset=".74" stop-color="#a420aa"/><stop offset=".83" stop-color="#c61f8b"/><stop offset=".95" stop-color="#fb1c58"/><stop offset=".96" stop-color="#ff1c54"/></linearGradient><path d="m142.980469 250c-1.988281 0-3.9375-.398438-5.652344-1.164062l-131.71875-58.597657c-3.449219-1.546875-5.5742188-4.375-5.5820312-7.433593v-116.046876c.0039062-3.066406 2.1406252-5.898437 5.6093752-7.433593l131.53125-58.171875c3.464843-1.527344 7.726562-1.535156 11.203125-.023438l98.175781 42.921875c3.261719 1.421875 4.390625 4.601563 2.53125 7.09375-1.863281 2.492188-6.015625 3.359375-9.273437 1.933594l-97.007813-42.410156-129.167969 57.132812v113.972657l129.363282 57.550781 93.402343-41.476563v-17.832031l-87.824219 38.203125c-3.496093 1.515625-7.785156 1.492188-11.25-.058594l-96.957031-43.566406c-3.4375-1.546875-5.550781-4.371094-5.554687-7.421875v-85.371094c.003906-3.074219 2.15625-5.917969 5.640625-7.449219l97.328125-42.703124c3.464844-1.515626 7.722656-1.515626 11.191406 0l83.488281 36.695312c3.472657 1.527344 5.625 4.355469 5.640625 7.421875.015625 3.070313-2.101562 5.910156-5.558594 7.460937l-25.363281 11.371094c-3.464843 1.550782-7.746093 1.570313-11.238281.058594l-52.527344-22.808594-59.851562 26.613282v52.664062l59.488281 26.878906 45.917969-19.878906-21.710938-9.507812-18.816406 7.777343c-3.484375 1.429688-7.6875 1.363281-11.089844-.171875l-27.050781-12.300781c-3.433594-1.550781-5.542969-4.367187-5.550781-7.417969v-23.859375c0-3.121093 2.210937-5.996093 5.777344-7.507812l27.769531-11.789063c3.414062-1.4375 7.558593-1.429687 10.96875.023438l19.835937 8.539062c3.203125 1.429688 4.3125 4.5625 2.496094 7.035156-1.820312 2.476563-5.894531 3.375-9.15625 2.023438l-18.699219-8.046875-25.410156 10.785156v21.773438l24.820313 11.28125 18.78125-7.765625c3.417968-1.425782 7.5625-1.386719 10.933593.101562l26.417969 11.566406c3.511719 1.535157 5.671875 4.398438 5.660156 7.492188-.007812 3.09375-2.1875 5.945312-5.707031 7.46875l-50.675781 21.9375c-3.5 1.507812-7.789063 1.480469-11.25-.082031l-61.816406-27.921875c-3.414063-1.554688-5.511719-4.367188-5.519532-7.40625v-54.738282c.007813-3.054687 2.128906-5.878906 5.578125-7.421874l62.195313-27.652344c3.460937-1.53125 7.71875-1.546875 11.199218-.042969l52.523438 22.808594 20.703125-9.285157-78.804687-34.640624-94.984376 41.664062v83.300781l94.640626 42.523438 90.128906-39.210938c3.484375-1.515625 7.757812-1.503906 11.21875.039063 3.464844 1.539062 5.597656 4.371094 5.601562 7.4375v21.941406c-.007812 3.066406-2.140625 5.902344-5.605468 7.445312l-95.746094 42.53125c-1.714844.757813-3.660156 1.152344-5.640625 1.148438zm0 0" fill="url(#a)"/></svg>