
<svg xmlns="http://www.w3.org/2000/svg" xmlns:xlink="http://www.w3.org/1999/xlink" width="250px" height="250px" viewBox="0 0 250 250" version="1.1">
<g id="surface1">
<path style=" stroke:none;fill-rule:nonzero;fill:rgb(41.176471%,88.627452%,86.274511%);fill-opacity:1;" d="M 122.550781 0 C 54.878906 0 0 55.972656 0 125 C 0 194.046875 54.878906 250 122.550781 250 C 190.25 250 245.109375 194.027344 245.109375 125 C 245.132812 55.976562 190.25 0 122.550781 0 Z M 132.417969 130.894531 L 175.398438 174.726562 C 178.90625 178.308594 178.472656 184.15625 174.566406 187.269531 C 161.375 197.839844 144.714844 204.15625 126.644531 204.15625 C 80.820312 204.15625 44.285156 163.667969 49.515625 115.851562 C 53.527344 79.242188 82.773438 49.832031 118.707031 46.207031 C 139.980469 44.070312 159.734375 50.679688 174.875 62.945312 C 178.636719 65.996094 178.800781 71.78125 175.394531 75.234375 L 132.398438 119.089844 C 129.21875 122.375 129.21875 127.648438 132.417969 130.890625 Z M 132.417969 130.894531 "/>
</g>
</svg>
