<svg height="250" viewBox="0 0 250 250" width="250" xmlns="http://www.w3.org/2000/svg"><path d="m122.550781 0c-67.671875 0-122.550781 55.972656-122.550781 125 0 69.046875 54.878906 125 122.550781 125 67.699219 0 122.558594-55.972656 122.558594-125 .023437-69.023438-54.859375-125-122.558594-125zm9.867188 130.894531 42.980469 43.832031c3.507812 3.582032 3.074218 9.429688-.832032 12.542969-13.191406 10.570313-29.851562 16.886719-47.921875 16.886719-45.824219 0-82.359375-40.488281-77.128906-88.304688 4.011719-36.609374 33.257813-66.019531 69.191406-69.644531 21.273438-2.136719 41.027344 4.472657 56.167969 16.738281 3.761719 3.050782 3.925781 8.835938.519531 12.289063l-42.996093 43.855469c-3.179688 3.285156-3.179688 8.558594.019531 11.800781zm0 0" fill="#69e2dc"/></svg>