<svg height="250" viewBox="0 0 250 250" width="250" xmlns="http://www.w3.org/2000/svg" xmlns:xlink="http://www.w3.org/1999/xlink"><linearGradient id="a"><stop offset="0" stop-color="#25376c"/><stop offset="1" stop-color="#1f1f49"/></linearGradient><linearGradient id="b" gradientTransform="matrix(3.164622 0 0 -2.741071 -2393.693858 4659.683603)" gradientUnits="userSpaceOnUse" x1="795.891907" x2="795.891907" xlink:href="#a" y1="1699.947632" y2="1608.747681"/><linearGradient id="c" gradientTransform="matrix(3.164622 0 0 -2.741071 -2393.693858 4659.683603)" gradientUnits="userSpaceOnUse" x1="776.141907" x2="776.141907" xlink:href="#a" y1="1608.747681" y2="1699.947632"/><path d="m125.003906.0078125-125.003906 62.4921875v125l125.003906 62.492188 125.007813-62.492188v-125zm0 0" fill="url(#b)"/><path d="m125.003906.0078125-125.003906 62.4921875v125l125.003906 62.492188zm0 0" fill="url(#c)"/><g fill="#fff"><path d="m173.734375 54.011719h-98.101563l-11.394531 43.300781h121.523438zm-80.699219 102.789062v-28.777343l-29.109375-15.90625-32.914062 21.109374 44.933593 67.707032h18.046876l21.199218-17.269532v-8.503906zm0 0"/><path d="m156.652344 103.898438h-63.292969l10.449219 24.125-3.160156 27.140624h48.738281l-3.160157-27.140624zm0 0"/><path d="m185.761719 111.839844-28.796875 16.171875v28.78125l-21.832032 18.359375v8.5l21.195313 16.992187h17.726563l44.621093-67.429687zm0 0"/></g></svg>