<svg height="250" viewBox="0 0 250 250" width="250" xmlns="http://www.w3.org/2000/svg"><path d="m195.570312 54.429688c38.976563 38.972656 38.976563 102.167968 0 141.140624-38.976562 38.976563-102.167968 38.976563-141.144531 0-38.976562-38.972656-38.976562-102.167968 0-141.140624 38.976563-38.976563 102.167969-38.976563 141.144531 0zm0 0" fill="#191919"/><path d="m85.546875 96.289062 42.96875-24.804687c1.5625-.78125 3.320313-.78125 4.882813 0l27.148437 15.625c2.734375 1.5625 3.125 5.273437.976563 7.617187l-9.179688 9.179688c-1.5625 1.5625-3.90625 1.757812-5.859375.78125l-13.085937-7.617188c-1.5625-.78125-3.320313-.78125-4.882813 0l-45.3125 26.5625v-23.046874c0-1.757813.78125-3.320313 2.34375-4.296876zm0 0" fill="#f08727"/><path d="m160.546875 162.890625-27.148437 15.625c-1.5625.78125-3.320313.78125-4.882813 0l-42.96875-24.804687c-1.5625-.78125-2.34375-2.34375-2.34375-4.101563v-21.09375l22.070313-12.890625v21.09375c0 1.757812.976562 3.320312 2.34375 4.101562l20.898437 12.109376c1.5625.78125 3.320313.78125 4.882813 0l13.28125-7.617188c1.953124-1.171875 4.296874-.78125 5.859374.78125l9.179688 9.179688c1.953125 2.148437 1.5625 6.054687-1.171875 7.617187zm0 0" fill="#fff"/></svg>