<svg height="250" viewBox="0 0 250 250" width="250" xmlns="http://www.w3.org/2000/svg"><g fill="#030303"><path d="m234.578125 52.386719v142.152343c0 1.390626-.648437 2.722657-1.804687 3.707032-1.160157.980468-2.730469 1.53125-4.367188 1.53125h-33.054688c-1.636718 0-3.207031-.550782-4.363281-1.53125-1.15625-.984375-1.808593-2.316406-1.808593-3.707032v-138.660156c0-2.285156 1.070312-4.476562 2.976562-6.09375 1.902344-1.617187 4.488281-2.527344 7.183594-2.527344h29.09375c1.609375.007813 3.152344.546876 4.300781 1.503907s1.8125 2.257812 1.84375 3.625zm0 0"/><path d="m104.488281 103.707031-29.570312-26.253906c-7.058594-6.265625-10.898438-14.65625-10.667969-23.324219.230469-8.667968 4.507812-16.90625 11.894531-22.898437l19.296875-15.652344c7.386719-5.992187 17.273438-9.25 27.488282-9.054687 10.214843.195312 19.921874 3.828124 26.980468 10.09375l26.726563 23.726562c7.796875 6.921875 12.035156 16.183594 11.78125 25.757812-.253907 9.570313-4.980469 18.664063-13.132813 25.277344l-16.398437 13.304688c-7.375 5.980468-17.242188 9.238281-27.4375 9.054687-10.195313-.183593-19.890625-3.792969-26.960938-10.03125zm0 0"/><path d="m155.398438 233-59.769532.824219c-1.664062.023437-3.3125-.230469-4.859375-.75s-2.957031-1.289063-4.152343-2.273438c-1.195313-.980469-2.148438-2.152343-2.808594-3.445312-.664063-1.292969-1.015625-2.6875-1.042969-4.097657l-.058594-3.070312c-.027343-1.414062.273438-2.8125.882813-4.125.613281-1.3125 1.523437-2.507812 2.679687-3.523438 1.15625-1.011718 2.535157-1.824218 4.058594-2.382812 1.527344-.5625 3.167969-.863281 4.828125-.886719l56.152344-.773437c4.316406-.058594 8.484375 1.339844 11.585937 3.886718 3.101563 2.550782 4.886719 6.039063 4.957031 9.703126.054688 2.847656-1.230468 5.597656-3.5625 7.644531-2.335937 2.050781-5.535156 3.226562-8.890624 3.269531zm0 0"/><path d="m58.890625 52.960938v146.355468c0 .515625-.238281 1.007813-.667969 1.375-.429687.363282-1.015625.570313-1.621094.570313h-38.523437c-.609375 0-1.191406-.207031-1.621094-.570313-.429687-.367187-.671875-.859375-.671875-1.375v-142.949218c0-1.421876.664063-2.78125 1.84375-3.785157 1.183594-1 2.789063-1.566406 4.460938-1.566406h34.484375c.609375 0 1.191406.207031 1.621093.570313.429688.367187.671876.859374.671876 1.375zm0 0"/><path d="m197.054688 36.941406 7.039062 172.777344c.019531.515625-.199219 1.015625-.613281 1.394531-.417969.375-.992188.597657-1.597657.613281l-149.890624 4.398438c-.605469.019531-1.199219-.167969-1.644532-.519531-.441406-.351563-.703125-.839844-.726562-1.355469l-6.898438-169.375c-.058594-1.417969.550782-2.796875 1.691406-3.832031 1.140626-1.039063 2.71875-1.648438 4.390626-1.699219l145.777343-4.273438c.605469-.019531 1.199219.167969 1.640625.519532.445313.351562.707032.839844.726563 1.355468zm0 0"/><path d="m163.65625 223.96875-71.359375.984375c-3.355469.042969-6.597656-1.042969-9.011719-3.023437-2.410156-1.984376-3.796875-4.695313-3.851562-7.546876l-.828125-43.230468c-.050781-2.847656 1.230469-5.597656 3.5625-7.644532 2.335937-2.046874 5.535156-3.222656 8.890625-3.269531l67.714844-.933593c4.316406-.058594 8.484374 1.339843 11.585937 3.886718 3.101563 2.550782 4.886719 6.039063 4.953125 9.703125l.769531 40.160157c.054688 2.847656-1.226562 5.597656-3.5625 7.644531-2.335937 2.046875-5.53125 3.222656-8.890625 3.269531zm0 0"/></g><path d="m101.347656 125.464844-62.171875-28.359375c-1.214843-.554688-2.574219-.832031-3.953125-.808594-1.378906.027344-2.722656.355469-3.90625.953125-1.183594.601562-2.164062 1.449219-2.847656 2.464844-.679688 1.015625-1.039062 2.167968-1.042969 3.335937v68.921875c-.011719 1.222656.371094 2.425782 1.109375 3.472656.742188 1.050782 1.808594 1.90625 3.085938 2.472657l62.175781 28.359375c1.160156.527344 2.457031.808594 3.777344.816406 1.441406.003906 2.855469-.332031 4.085937-.972656 1.183594-.597656 2.160156-1.445313 2.839844-2.460938s1.039062-2.160156 1.042969-3.328125v-68.921875c-.003907-1.21875-.394531-2.417968-1.132813-3.464844-.738281-1.046874-1.796875-1.902343-3.0625-2.480468zm-15.3125 8.375-15.003906 9.816406-13.675781-6.257812v15.164062l-13.988281 9.128906v-47.300781zm-39.070312 35.746094 15.027344-9.792969 13.675781 6.230469v-15.160157l13.984375-9.128906v47.367187zm0 0" fill="#fff"/><path d="m171.234375 52.054688-46.234375 21.089843-28.496094-13 46.234375-21.085937-12.660156-5.769532c-1.558594-.707031-3.296875-1.078124-5.066406-1.078124-1.765625 0-3.507813.371093-5.066407 1.078124l-51.804687 23.585938c-.691406.320312-1.269531.789062-1.667969 1.363281-.402344.574219-.613281 1.230469-.613281 1.898438 0 .664062.210937 1.320312.613281 1.894531.398438.574219.976563 1.042969 1.667969 1.363281l51.726563 23.585938c1.554687.71875 3.296874 1.09375 5.066406 1.09375 1.769531 0 3.511718-.375 5.066406-1.09375l51.703125-23.585938c.699219-.3125 1.28125-.78125 1.6875-1.359375.410156-.574218.625-1.230468.625-1.898437 0-.671875-.214844-1.328125-.625-1.902344-.40625-.574219-.988281-1.046875-1.6875-1.359375zm0 0" fill="#fff"/><path d="m218.691406 97.257812c-1.171875-.605468-2.511718-.9375-3.882812-.964843-1.371094-.027344-2.726563.253906-3.929688.8125l-62.175781 28.359375c-1.265625.578125-2.324219 1.433594-3.0625 2.480468-.738281 1.046876-1.128906 2.246094-1.132813 3.464844v68.921875c.015626 1.785157.855469 3.496094 2.34375 4.761719 1.484376 1.265625 3.496094 1.984375 5.601563 2 1.320313-.003906 2.617187-.285156 3.777344-.816406l62.175781-28.359375c1.277344-.566407 2.34375-1.421875 3.082031-2.472657.742188-1.046874 1.125-2.25 1.109375-3.472656v-68.921875c.011719-1.171875-.34375-2.324219-1.03125-3.34375-.6875-1.015625-1.679687-1.863281-2.875-2.449219zm-12.035156 64.414063-13.984375-9.128906v-15.164063l-13.675781 6.253906-15.03125-9.792968 42.691406-19.449219zm-46.257812-19.894531 13.988281 9.128906v15.164062l13.671875-6.234374 15.03125 9.792968-42.691406 19.472656zm0 0" fill="#fff"/><path d="m249.714844 58.355469c-.074219-.1875-.160156-.371094-.261719-.550781-.144531-.367188-.324219-.722657-.546875-1.0625 0-.199219-.335938-.375-.492188-.574219-.222656-.292969-.476562-.566407-.757812-.816407-.230469-.167968-.472656-.324218-.726562-.464843-.25-.195313-.511719-.382813-.78125-.554688h-.183594l-.15625-.109375-117.03125-53.359375c-1.152344-.539062-2.445313-.8203122-3.761719-.8203122s-2.609375.2812502-3.765625.8203122l-117.054688 53.402344v.113281h-.183593c-.285157.152344-.519531.375-.804688.550782-.246093.140624-.480469.296874-.703125.464843-.28125.253907-.535156.527344-.757812.816407-.179688.199218-.363282.375-.519532.574218-.210937.339844-.386718.695313-.519531 1.0625 0 .199219-.210937.375-.289062.550782-.1875.585937-.285157 1.1875-.285157 1.792968v129.730469c0 1.21875.390626 2.414063 1.128907 3.460937.738281 1.046876 1.796875 1.90625 3.0625 2.484376l117.058593 53.382812c.359376.144531.734376.261719 1.117188.351562l.625.222657c.65625.140625 1.332031.214843 2.007812.21875.683594-.007813 1.367188-.082031 2.03125-.21875l.625-.222657c.382813-.09375.757813-.210937 1.121094-.351562l116.898438-53.515625c1.265625-.578125 2.324218-1.4375 3.0625-2.484375.738281-1.046875 1.128906-2.242188 1.128906-3.460938v-129.644531c0-.601562-.097656-1.203125-.285156-1.789062zm-124.714844-43.722657 99.789062 45.511719-4.246093 1.925781-95.542969 43.589844-95.539062-43.589844-4.246094-1.925781zm-108.953125 56.808594 101.113281 46.109375v114.390625l-101.113281-46.109375zm117.03125 160.5v-114.390625l101.113281-46.109375v114.390625zm0 0" fill="#f79723"/></svg>