
<svg xmlns="http://www.w3.org/2000/svg" xmlns:xlink="http://www.w3.org/1999/xlink" width="250px" height="250px" viewBox="0 0 250 250" version="1.1">
<defs>
<linearGradient id="linear0" gradientUnits="userSpaceOnUse" x1="96.456398" y1="15.5724" x2="136.022003" y2="234.931" gradientTransform="matrix(0.976562,0,0,0.972763,0,0)">
<stop offset="0" style="stop-color:rgb(15.294118%,82.745099%,63.529414%);stop-opacity:1;"/>
<stop offset="1" style="stop-color:rgb(57.647061%,53.333336%,99.215686%);stop-opacity:1;"/>
</linearGradient>
</defs>
<g id="surface1">
<path style=" stroke:none;fill-rule:nonzero;fill:rgb(97.647059%,98.039216%,98.431373%);fill-opacity:1;" d="M 247.617188 113 C 254.328125 180.457031 204.867188 240.558594 137.148438 247.242188 C 69.429688 253.925781 9.09375 204.660156 2.382812 137.203125 C -4.328125 69.746094 45.132812 9.644531 112.851562 2.960938 C 180.570312 -3.722656 240.90625 45.542969 247.617188 113 Z M 247.617188 113 "/>
<path style=" stroke:none;fill-rule:nonzero;fill:url(#linear0);" d="M 203.222656 219.933594 C 184.394531 235.34375 161.398438 244.847656 137.148438 247.242188 C 104.628906 250.449219 72.160156 240.660156 46.886719 220.023438 C 21.613281 199.386719 5.605469 169.597656 2.382812 137.203125 C -0.0195312 113.046875 4.824219 88.722656 16.296875 67.304688 C 27.773438 45.890625 45.367188 28.34375 66.851562 16.890625 C 88.339844 5.433594 112.75 0.582031 137.007812 2.949219 C 161.261719 5.3125 184.265625 14.789062 203.113281 30.179688 L 178.257812 60.382812 C 165.40625 49.886719 149.722656 43.425781 133.1875 41.816406 C 116.648438 40.203125 100.003906 43.511719 85.355469 51.320312 C 70.703125 59.132812 58.710938 71.09375 50.886719 85.695312 C 43.0625 100.296875 39.757812 116.882812 41.398438 133.351562 C 43.59375 155.4375 54.507812 175.75 71.742188 189.820312 C 88.972656 203.890625 111.109375 210.566406 133.28125 208.378906 C 149.820312 206.746094 165.496094 200.265625 178.335938 189.757812 Z M 203.222656 219.933594 "/>
<path style=" stroke:none;fill-rule:nonzero;fill:rgb(100%,100%,100%);fill-opacity:1;" d="M 125 226.269531 C 181.09375 226.269531 226.5625 180.976562 226.5625 125.101562 C 226.5625 69.226562 181.09375 23.933594 125 23.933594 C 68.910156 23.933594 23.4375 69.226562 23.4375 125.101562 C 23.4375 180.976562 68.910156 226.269531 125 226.269531 Z M 125 226.269531 "/>
<path style=" stroke:none;fill-rule:nonzero;fill:rgb(15.686275%,22.352941%,27.843139%);fill-opacity:1;" d="M 95.332031 138.097656 L 102.992188 130.140625 L 93.46875 117.234375 L 81.34375 100.003906 C 77.0625 107.34375 74.605469 115.890625 74.605469 125.015625 C 74.605469 140.128906 81.34375 153.664062 91.972656 162.75 L 107.363281 151.828125 C 102.125 148.550781 97.910156 143.78125 95.332031 138.097656 Z M 95.332031 138.097656 "/>
<path style=" stroke:none;fill-rule:nonzero;fill:rgb(15.686275%,22.352941%,27.843139%);fill-opacity:1;" d="M 111.953125 95.546875 L 119.945312 103.175781 L 132.898438 93.691406 L 150.195312 81.617188 C 142.828125 77.347656 134.246094 74.902344 125.085938 74.902344 C 109.914062 74.902344 96.328125 81.617188 87.203125 92.203125 L 98.171875 107.53125 C 101.460938 102.316406 106.246094 98.117188 111.953125 95.546875 Z M 111.953125 95.546875 "/>
<path style=" stroke:none;fill-rule:nonzero;fill:rgb(15.686275%,22.352941%,27.843139%);fill-opacity:1;" d="M 147.007812 120.0625 L 156.53125 132.96875 L 168.65625 150.199219 C 172.9375 142.859375 175.394531 134.3125 175.394531 125.1875 C 175.394531 110.074219 168.65625 96.539062 158.027344 87.453125 L 142.636719 98.375 C 147.871094 101.652344 152.089844 106.421875 154.667969 112.105469 Z M 147.007812 120.0625 "/>
<path style=" stroke:none;fill-rule:nonzero;fill:rgb(15.686275%,22.352941%,27.843139%);fill-opacity:1;" d="M 162.796875 158 L 151.828125 142.671875 C 148.539062 147.886719 143.753906 152.085938 138.046875 154.65625 L 130.054688 147.023438 L 117.101562 156.511719 L 99.804688 168.585938 C 107.171875 172.851562 115.753906 175.300781 124.914062 175.300781 C 140.085938 175.300781 153.671875 168.585938 162.796875 158 Z M 162.796875 158 "/>
</g>
</svg>
