
<svg xmlns="http://www.w3.org/2000/svg" xmlns:xlink="http://www.w3.org/1999/xlink" width="250px" height="250px" viewBox="0 0 250 250" version="1.1">
<defs>
<linearGradient id="linear0" gradientUnits="userSpaceOnUse" x1="96.456398" y1="15.5724" x2="136.022003" y2="234.931" gradientTransform="matrix(0.976562,0,0,0.972763,0,0)">
<stop offset="0" style="stop-color:rgb(15.294118%,82.745099%,63.529414%);stop-opacity:1;"/>
<stop offset="1" style="stop-color:rgb(57.647061%,53.333336%,99.215686%);stop-opacity:1;"/>
</linearGradient>
</defs>
<g id="surface1">
<path style=" stroke:none;fill-rule:nonzero;fill:rgb(97.647059%,98.039216%,98.431373%);fill-opacity:1;" d="M 247.617188 113 C 254.328125 180.457031 204.867188 240.558594 137.148438 247.242188 C 69.429688 253.925781 9.09375 204.660156 2.382812 137.203125 C -4.328125 69.746094 45.132812 9.644531 112.851562 2.960938 C 180.570312 -3.722656 240.90625 45.542969 247.617188 113 Z M 247.617188 113 "/>
<path style=" stroke:none;fill-rule:nonzero;fill:url(#linear0);" d="M 203.222656 219.933594 C 184.394531 235.34375 161.398438 244.847656 137.148438 247.242188 C 104.628906 250.449219 72.160156 240.660156 46.886719 220.023438 C 21.613281 199.386719 5.605469 169.597656 2.382812 137.203125 C -0.0195312 113.046875 4.824219 88.722656 16.296875 67.304688 C 27.773438 45.890625 45.367188 28.34375 66.851562 16.890625 C 88.339844 5.433594 112.75 0.582031 137.007812 2.949219 C 161.261719 5.3125 184.265625 14.789062 203.113281 30.179688 L 178.257812 60.382812 C 165.40625 49.886719 149.722656 43.425781 133.1875 41.816406 C 116.648438 40.203125 100.003906 43.511719 85.355469 51.320312 C 70.703125 59.132812 58.710938 71.09375 50.886719 85.695312 C 43.0625 100.296875 39.757812 116.882812 41.398438 133.351562 C 43.59375 155.4375 54.507812 175.75 71.742188 189.820312 C 88.972656 203.890625 111.109375 210.566406 133.28125 208.378906 C 149.820312 206.746094 165.496094 200.265625 178.335938 189.757812 Z M 203.222656 219.933594 "/>
<path style=" stroke:none;fill-rule:nonzero;fill:rgb(100%,100%,100%);fill-opacity:1;" d="M 125 226.269531 C 181.09375 226.269531 226.5625 180.976562 226.5625 125.101562 C 226.5625 69.226562 181.09375 23.933594 125 23.933594 C 68.910156 23.933594 23.4375 69.226562 23.4375 125.101562 C 23.4375 180.976562 68.910156 226.269531 125 226.269531 Z M 125 226.269531 "/>
<path style=" stroke:none;fill-rule:nonzero;fill:rgb(15.686275%,22.352941%,27.843139%);fill-opacity:1;" d="M 145.164062 135.785156 C 145.164062 125.042969 138.484375 121.421875 125.5625 119.691406 C 116.011719 118.339844 114.179688 116.144531 114.179688 111.789062 C 114.179688 107.429688 117.40625 104.714844 123.585938 104.714844 C 129.21875 104.714844 132.460938 106.632812 133.796875 111.066406 C 133.9375 111.550781 134.234375 111.980469 134.644531 112.285156 C 135.054688 112.59375 135.554688 112.761719 136.070312 112.769531 L 141.007812 112.769531 C 141.332031 112.777344 141.652344 112.714844 141.945312 112.585938 C 142.242188 112.457031 142.503906 112.265625 142.714844 112.027344 C 142.925781 111.789062 143.082031 111.507812 143.167969 111.203125 C 143.253906 110.898438 143.273438 110.578125 143.21875 110.269531 C 141.652344 103.257812 136.820312 99.035156 129.25 97.71875 L 129.25 90.320312 C 129.25 89.710938 129 89.125 128.558594 88.695312 C 128.117188 88.261719 127.519531 88.019531 126.894531 88.019531 L 122.191406 88.019531 C 121.566406 88.019531 120.96875 88.261719 120.527344 88.695312 C 120.085938 89.125 119.839844 89.710938 119.839844 90.320312 L 119.839844 97.457031 C 110.429688 98.746094 104.484375 104.820312 104.484375 112.617188 C 104.484375 122.695312 110.757812 126.609375 123.867188 128.34375 C 132.792969 129.769531 135.332031 131.65625 135.332031 136.613281 C 135.332031 141.570312 131.019531 144.898438 124.9375 144.898438 C 116.734375 144.898438 113.957031 141.386719 113.03125 136.828125 C 112.925781 136.304688 112.636719 135.832031 112.21875 135.492188 C 111.796875 135.152344 111.273438 134.964844 110.726562 134.957031 L 105.367188 134.957031 C 105.046875 134.953125 104.726562 135.019531 104.4375 135.152344 C 104.148438 135.28125 103.886719 135.472656 103.679688 135.710938 C 103.472656 135.949219 103.320312 136.230469 103.234375 136.53125 C 103.148438 136.832031 103.132812 137.148438 103.1875 137.457031 C 104.550781 145.128906 109.582031 150.746094 119.839844 152.09375 L 119.839844 159.367188 C 119.839844 159.976562 120.085938 160.5625 120.527344 160.996094 C 120.96875 161.425781 121.566406 161.667969 122.191406 161.667969 L 126.894531 161.667969 C 127.519531 161.667969 128.117188 161.425781 128.558594 160.996094 C 129 160.5625 129.25 159.976562 129.25 159.367188 L 129.25 152.09375 C 138.96875 150.589844 145.164062 144.023438 145.164062 135.785156 Z M 145.164062 135.785156 "/>
<path style=" stroke:none;fill-rule:nonzero;fill:rgb(39.607844%,46.666667%,52.549022%);fill-opacity:1;" d="M 109.546875 168.839844 C 100.578125 165.609375 92.835938 159.738281 87.367188 152.015625 C 81.898438 144.296875 78.964844 135.101562 78.964844 125.683594 C 78.964844 116.261719 81.898438 107.070312 87.367188 99.347656 C 92.835938 91.628906 100.578125 85.753906 109.546875 82.523438 C 110.121094 82.273438 110.613281 81.871094 110.96875 81.359375 C 111.320312 80.847656 111.523438 80.25 111.546875 79.628906 L 111.546875 75.339844 C 111.585938 74.960938 111.519531 74.578125 111.359375 74.230469 C 111.199219 73.882812 110.949219 73.585938 110.636719 73.363281 C 110.320312 73.140625 109.953125 73.003906 109.570312 72.96875 C 109.183594 72.929688 108.796875 72.992188 108.445312 73.152344 C 97.152344 76.703125 87.300781 83.707031 80.308594 93.148438 C 73.316406 102.59375 69.546875 113.988281 69.546875 125.683594 C 69.546875 137.378906 73.316406 148.773438 80.308594 158.214844 C 87.300781 167.660156 97.152344 174.664062 108.445312 178.214844 C 108.796875 178.371094 109.183594 178.433594 109.570312 178.398438 C 109.953125 178.359375 110.320312 178.226562 110.636719 178 C 110.949219 177.78125 111.199219 177.480469 111.359375 177.132812 C 111.519531 176.785156 111.585938 176.402344 111.546875 176.023438 L 111.546875 171.734375 C 111.523438 171.117188 111.320312 170.515625 110.96875 170.003906 C 110.613281 169.492188 110.121094 169.089844 109.546875 168.839844 Z M 109.546875 168.839844 "/>
<path style=" stroke:none;fill-rule:nonzero;fill:rgb(39.607844%,46.666667%,52.549022%);fill-opacity:1;" d="M 141.554688 73.152344 C 141.203125 72.992188 140.816406 72.929688 140.429688 72.96875 C 140.046875 73.003906 139.679688 73.140625 139.363281 73.363281 C 139.050781 73.585938 138.800781 73.882812 138.640625 74.230469 C 138.480469 74.578125 138.414062 74.960938 138.453125 75.339844 L 138.453125 79.628906 C 138.476562 80.25 138.679688 80.847656 139.03125 81.359375 C 139.386719 81.871094 139.878906 82.273438 140.453125 82.523438 C 149.421875 85.753906 157.164062 91.628906 162.632812 99.347656 C 168.101562 107.070312 171.035156 116.261719 171.035156 125.683594 C 171.035156 135.101562 168.101562 144.296875 162.632812 152.015625 C 157.164062 159.738281 149.421875 165.609375 140.453125 168.839844 C 139.859375 169.0625 139.351562 169.460938 138.992188 169.976562 C 138.632812 170.496094 138.445312 171.109375 138.453125 171.734375 L 138.453125 176.023438 C 138.414062 176.402344 138.480469 176.785156 138.640625 177.132812 C 138.800781 177.480469 139.050781 177.78125 139.363281 178 C 139.679688 178.226562 140.046875 178.359375 140.429688 178.398438 C 140.816406 178.433594 141.203125 178.371094 141.554688 178.214844 C 152.847656 174.664062 162.699219 167.660156 169.691406 158.214844 C 176.683594 148.773438 180.453125 137.378906 180.453125 125.683594 C 180.453125 113.988281 176.683594 102.59375 169.691406 93.148438 C 162.699219 83.707031 152.847656 76.703125 141.554688 73.152344 Z M 141.554688 73.152344 "/>
</g>
</svg>
