
<svg xmlns="http://www.w3.org/2000/svg" xmlns:xlink="http://www.w3.org/1999/xlink" width="250px" height="250px" viewBox="0 0 250 250" version="1.1">
<defs>
<linearGradient id="linear0" gradientUnits="userSpaceOnUse" x1="96.456398" y1="15.5724" x2="136.022003" y2="234.931" gradientTransform="matrix(0.976562,0,0,0.972763,0,0)">
<stop offset="0" style="stop-color:rgb(15.294118%,82.745099%,63.529414%);stop-opacity:1;"/>
<stop offset="1" style="stop-color:rgb(57.647061%,53.333336%,99.215686%);stop-opacity:1;"/>
</linearGradient>
</defs>
<g id="surface1">
<path style=" stroke:none;fill-rule:nonzero;fill:rgb(97.647059%,98.039216%,98.431373%);fill-opacity:1;" d="M 247.617188 113 C 254.328125 180.457031 204.867188 240.558594 137.148438 247.242188 C 69.429688 253.925781 9.09375 204.660156 2.382812 137.203125 C -4.328125 69.746094 45.132812 9.644531 112.851562 2.960938 C 180.570312 -3.722656 240.90625 45.542969 247.617188 113 Z M 247.617188 113 "/>
<path style=" stroke:none;fill-rule:nonzero;fill:url(#linear0);" d="M 203.222656 219.933594 C 184.394531 235.34375 161.398438 244.847656 137.148438 247.242188 C 104.628906 250.449219 72.160156 240.660156 46.886719 220.023438 C 21.613281 199.386719 5.605469 169.597656 2.382812 137.203125 C -0.0195312 113.046875 4.824219 88.722656 16.296875 67.304688 C 27.773438 45.890625 45.367188 28.34375 66.851562 16.890625 C 88.339844 5.433594 112.75 0.582031 137.007812 2.949219 C 161.261719 5.3125 184.265625 14.789062 203.113281 30.179688 L 178.257812 60.382812 C 165.40625 49.886719 149.722656 43.425781 133.1875 41.816406 C 116.648438 40.203125 100.003906 43.511719 85.355469 51.320312 C 70.703125 59.132812 58.710938 71.09375 50.886719 85.695312 C 43.0625 100.296875 39.757812 116.882812 41.398438 133.351562 C 43.59375 155.4375 54.507812 175.75 71.742188 189.820312 C 88.972656 203.890625 111.109375 210.566406 133.28125 208.378906 C 149.820312 206.746094 165.496094 200.265625 178.335938 189.757812 Z M 203.222656 219.933594 "/>
<path style=" stroke:none;fill-rule:nonzero;fill:rgb(100%,100%,100%);fill-opacity:1;" d="M 125 226.269531 C 181.09375 226.269531 226.5625 180.976562 226.5625 125.101562 C 226.5625 69.226562 181.09375 23.933594 125 23.933594 C 68.910156 23.933594 23.4375 69.226562 23.4375 125.101562 C 23.4375 180.976562 68.910156 226.269531 125 226.269531 Z M 125 226.269531 "/>
<path style=" stroke:none;fill-rule:nonzero;fill:rgb(39.607844%,46.666667%,52.549022%);fill-opacity:1;" d="M 137.332031 123 C 140.230469 121.460938 142.042969 118.75 141.621094 114.230469 C 141.050781 108.054688 135.9375 105.984375 129.488281 105.390625 L 129.488281 96.824219 L 124.488281 96.824219 L 124.488281 105.167969 C 123.171875 105.167969 121.832031 105.195312 120.496094 105.222656 L 120.496094 96.828125 L 115.5 96.824219 L 115.5 105.390625 C 114.417969 105.414062 113.355469 105.4375 112.316406 105.4375 L 112.316406 105.410156 L 105.421875 105.40625 L 105.421875 110.976562 C 105.421875 110.976562 109.117188 110.902344 109.054688 110.972656 C 111.078125 110.976562 111.738281 112.203125 111.929688 113.261719 L 111.929688 136.730469 C 111.839844 137.394531 111.464844 138.457031 110.050781 138.457031 C 110.117188 138.515625 106.414062 138.457031 106.414062 138.457031 L 105.421875 144.683594 L 111.929688 144.683594 C 113.140625 144.683594 114.328125 144.703125 115.5 144.714844 L 115.5 153.378906 L 120.496094 153.378906 L 120.492188 144.804688 C 121.867188 144.835938 123.195312 144.847656 124.488281 144.847656 L 124.488281 153.378906 L 129.484375 153.378906 L 129.488281 144.730469 C 137.890625 144.226562 143.773438 142.015625 144.503906 133.785156 C 145.09375 127.15625 142.101562 124.195312 137.332031 123 Z M 120.617188 111.351562 C 123.433594 111.351562 132.300781 110.414062 132.304688 116.558594 C 132.300781 122.453125 123.4375 121.761719 120.617188 121.761719 Z M 120.613281 138.5 L 120.617188 127.019531 C 124.003906 127.019531 134.625 126.003906 134.628906 132.757812 C 134.628906 139.234375 124.003906 138.496094 120.613281 138.5 Z M 120.613281 138.5 "/>
<path style="fill:none;stroke-width:8.019;stroke-linecap:butt;stroke-linejoin:miter;stroke:rgb(39.607844%,46.666667%,52.549022%);stroke-opacity:1;stroke-miterlimit:4;" d="M 178.12 128.604406 C 178.12 156.284109 155.68 178.723422 128 178.723422 C 100.32 178.723422 77.88 156.284109 77.88 128.604406 C 77.88 100.924703 100.32 78.485391 128 78.485391 C 155.68 78.485391 178.12 100.924703 178.12 128.604406 Z M 178.12 128.604406 " transform="matrix(0.976562,0,0,0.972763,0,0)"/>
<path style="fill:none;stroke-width:8.019;stroke-linecap:butt;stroke-linejoin:miter;stroke:rgb(15.686275%,22.352941%,27.843139%);stroke-opacity:1;stroke-miterlimit:4;" d="M 194.156 128.604406 C 194.156 165.142578 164.536 194.761828 128 194.761828 C 91.464 194.761828 61.844 165.142578 61.844 128.604406 C 61.844 92.066234 91.464 62.446984 128 62.446984 C 164.536 62.446984 194.156 92.066234 194.156 128.604406 Z M 194.156 128.604406 " transform="matrix(0.976562,0,0,0.972763,0,0)"/>
<path style="fill:none;stroke-width:6.01425;stroke-linecap:butt;stroke-linejoin:miter;stroke:rgb(100%,100%,100%);stroke-opacity:1;stroke-miterlimit:4;" d="M 165.328 169.700312 L 148.132 152.758391 M 101.644 106.948141 L 86.904 92.52 M 90.82 169.700312 L 108.012 152.758391 M 154.504 106.948141 L 169.096 92.52 " transform="matrix(0.976562,0,0,0.972763,0,0)"/>
</g>
</svg>
