<svg height="250" viewBox="0 0 250 250" width="250" xmlns="http://www.w3.org/2000/svg" xmlns:xlink="http://www.w3.org/1999/xlink"><linearGradient id="a" gradientTransform="scale(.976562 .972763)" gradientUnits="userSpaceOnUse" x1="96.456398" x2="136.022003" y1="15.5724" y2="234.931"><stop offset="0" stop-color="#27d3a2"/><stop offset="1" stop-color="#9388fd"/></linearGradient><path d="m247.617188 113c6.710937 67.457031-42.75 127.558594-110.46875 134.242188-67.71875 6.683593-128.054688-42.582032-134.765626-110.039063-6.710937-67.457031 42.75-127.558594 110.46875-134.242187 67.71875-6.683594 128.054688 42.582031 134.765626 110.039062zm0 0" fill="#f9fafb"/><path d="m203.222656 219.933594c-18.828125 15.410156-41.824218 24.914062-66.074218 27.308594-32.519532 3.207031-64.988282-6.582032-90.261719-27.21875-25.273438-20.636719-41.28125-50.425782-44.503907-82.820313-2.4023432-24.15625 2.441407-48.480469 13.914063-69.898437 11.476563-21.414063 29.070313-38.960938 50.554687-50.414063 21.488282-11.457031 45.898438-16.308594 70.15625-13.941406 24.253907 2.363281 47.257813 11.839843 66.105469 27.230469l-24.855469 30.203124c-12.851562-10.496093-28.535156-16.957031-45.070312-18.566406-16.539062-1.613281-33.183594 1.695313-47.832031 9.503906-14.652344 7.8125-26.644531 19.773438-34.46875 34.375-7.824219 14.601563-11.128907 31.1875-9.488281 47.65625 2.195312 22.085938 13.109374 42.398438 30.34375 56.46875 17.230468 14.070313 39.367187 20.746094 61.539062 18.558594 16.539062-1.632812 32.214844-8.113281 45.054688-18.621094zm0 0" fill="url(#a)"/><path d="m125 226.269531c56.09375 0 101.5625-45.292969 101.5625-101.167969s-45.46875-101.167968-101.5625-101.167968c-56.089844 0-101.5625 45.292968-101.5625 101.167968s45.472656 101.167969 101.5625 101.167969zm0 0" fill="#fff"/><path d="m137.332031 123c2.898438-1.539062 4.710938-4.25 4.289063-8.769531-.570313-6.175781-5.683594-8.246094-12.132813-8.839844v-8.566406h-5v8.34375c-1.316406 0-2.65625.027343-3.992187.054687v-8.394531l-4.996094-.003906v8.566406c-1.082031.023437-2.144531.046875-3.183594.046875v-.027344l-6.894531-.003906v5.570312s3.695313-.074218 3.632813-.003906c2.023437.003906 2.683593 1.230469 2.875 2.289063v23.46875c-.089844.664062-.464844 1.726562-1.878907 1.726562.066407.058594-3.636719 0-3.636719 0l-.992187 6.226563h6.507813c1.210937 0 2.398437.019531 3.570312.03125v8.664062h4.996094l-.003906-8.574218c1.375.03125 2.703124.042968 3.996093.042968v8.53125h4.996094l.003906-8.648437c8.402344-.503907 14.285157-2.714844 15.015625-10.945313.589844-6.628906-2.402344-9.589844-7.171875-10.785156zm-16.714843-11.648438c2.816406 0 11.683593-.9375 11.6875 5.207032-.003907 5.894531-8.867188 5.203125-11.6875 5.203125zm-.003907 27.148438.003907-11.480469c3.386718 0 14.007812-1.015625 14.011718 5.738281 0 6.476563-10.625 5.738282-14.015625 5.742188zm0 0" fill="#657786"/><g fill="none" transform="scale(.976562 .972763)"><path d="m178.12 128.604406c0 27.679703-22.44 50.119016-50.12 50.119016s-50.12-22.439313-50.12-50.119016 22.44-50.119015 50.12-50.119015 50.12 22.439312 50.12 50.119015zm0 0" stroke="#657786" stroke-width="8.019"/><path d="m194.156 128.604406c0 36.538172-29.62 66.157422-66.156 66.157422s-66.156-29.61925-66.156-66.157422 29.62-66.157422 66.156-66.157422 66.156 29.61925 66.156 66.157422zm0 0" stroke="#283947" stroke-width="8.019"/><path d="m165.328 169.700312-17.196-16.941921m-46.488-45.81025-14.74-14.428141m3.916 77.180312 17.192-16.941921m46.492-45.81025 14.592-14.428141" stroke="#fff" stroke-width="6.01425"/></g></svg>