<svg width="48" height="48" viewBox="0 0 48 48" fill="none" xmlns="http://www.w3.org/2000/svg">
<g clip-path="url(#clip0)">
<g filter="url(#filter0_d)">
<circle cx="24" cy="24" r="24" transform="rotate(-5.6583 24 24)" fill="white"/>
</g>
<path d="M39.2362 42.5434C35.5687 45.5569 31.0899 47.4151 26.3663 47.8831C20.0321 48.5107 13.708 46.5963 8.78534 42.5611C3.86263 38.526 0.744513 32.7005 0.116934 26.3663C-0.351075 21.6427 0.592144 16.8864 2.82731 12.6988C5.06248 8.51128 8.48921 5.08056 12.6742 2.84053C16.8591 0.60049 21.6144 -0.348256 26.3385 0.114261C31.0627 0.576778 35.5436 2.42979 39.2146 5.43896L34.3736 11.3448C31.8706 9.29305 28.8155 8.02964 25.5944 7.71428C22.3734 7.39893 19.1312 8.0458 16.2778 9.5731C13.4245 11.1004 11.0881 13.4395 9.56408 16.2947C8.0401 19.1498 7.39699 22.3928 7.71609 25.6134C8.14399 29.9322 10.27 33.9041 13.6264 36.6553C16.9828 39.4066 21.2946 40.7118 25.6134 40.284C28.834 39.9649 31.8877 38.6979 34.3883 36.6433L39.2362 42.5434Z" fill="url(#paint0_linear)"/>
<path d="M24 41C33.3888 41 41 33.3888 41 24C41 14.6112 33.3888 7 24 7C14.6112 7 7 14.6112 7 24C7 33.3888 14.6112 41 24 41Z" fill="white"/>
<path fill-rule="evenodd" clip-rule="evenodd" d="M26.7247 24.2558C26.5294 23.6874 26.1946 23.1853 25.7575 22.7968L25.5901 22.6547L25.5808 22.6453C25.525 22.5979 25.4692 22.56 25.4134 22.5221L25.4041 22.5126C25.3484 22.4747 25.2926 22.4368 25.2275 22.3989C25.2182 22.3989 25.2182 22.3895 25.2089 22.3895C25.1531 22.3516 25.088 22.3232 25.0322 22.2947C25.0229 22.2947 25.0229 22.2853 25.0136 22.2853C24.9578 22.2568 24.8927 22.2284 24.8276 22.2C24.8183 22.2 24.8183 22.1905 24.809 22.1905C24.7532 22.1716 24.6974 22.1432 24.6416 22.1242C24.4928 22.0674 24.3347 22.02 24.1766 21.9916C24.0557 22.2284 23.8883 22.4368 23.7024 22.6168C23.9906 22.6358 24.2696 22.7116 24.5207 22.8158C24.6695 22.8821 24.8183 22.9579 24.9485 23.0432C24.9578 23.0432 24.9671 23.0526 24.9671 23.0526C25.0043 23.0716 25.0322 23.1 25.0694 23.1284C25.088 23.1379 25.0973 23.1474 25.1159 23.1663C25.1438 23.1853 25.181 23.2137 25.2089 23.2421C25.2275 23.2611 25.2461 23.2705 25.2647 23.2895C25.2926 23.3179 25.3205 23.3368 25.3484 23.3653L25.4041 23.4221L25.4785 23.4979L25.5343 23.5547C25.5529 23.5832 25.5808 23.6116 25.5994 23.6305C25.618 23.6495 25.6366 23.6779 25.6552 23.6968L25.711 23.7821C25.7296 23.8105 25.7482 23.8295 25.7575 23.8579L25.8133 23.9432C25.8319 23.9716 25.8412 24 25.8598 24.0189C25.8784 24.0474 25.8877 24.0758 25.9063 24.1042C25.9249 24.1326 25.9342 24.1611 25.9528 24.1895C25.9621 24.2179 25.9807 24.2463 25.99 24.2747C26.0086 24.3126 26.0179 24.3505 26.0365 24.3789C26.1109 24.5684 26.1667 24.7674 26.1946 24.9853L26.2783 25.3168C26.3155 25.4589 26.6503 26.6716 27.4314 27.0789C28.3242 27.5526 29.5052 28.14 29.9702 28.3674L23.8418 32.1V29.5421C23.8418 29.1347 24.6323 28.6611 24.995 28.5L25.0136 28.4905C25.088 28.4526 25.1624 28.4147 25.2368 28.3674L25.2647 28.3484C25.4227 28.2537 25.5715 28.14 25.711 28.0168C25.7203 28.0074 25.7389 27.9979 25.7482 27.9789C25.7668 27.9695 25.7761 27.9505 25.7947 27.9411C25.8412 27.9032 25.8784 27.8558 25.9249 27.8179L25.9435 27.7989C25.99 27.7516 26.0365 27.7042 26.0737 27.6474C26.083 27.6284 26.1016 27.6189 26.1109 27.6C26.1481 27.5621 26.176 27.5147 26.2132 27.4674C26.2225 27.4579 26.2318 27.4389 26.2411 27.4295L26.3527 27.2589C26.3527 27.2495 26.362 27.2495 26.362 27.24C26.4085 27.1642 26.455 27.0789 26.5015 27.0032C26.3155 26.7758 26.176 26.5295 26.0644 26.3021C26.0179 26.4442 25.9528 26.5863 25.8877 26.7095C25.8598 26.7663 25.8226 26.8232 25.7947 26.88C25.7854 26.8895 25.7854 26.8989 25.7761 26.8989C25.7482 26.9463 25.711 26.9937 25.6831 27.0316C25.6738 27.0411 25.6645 27.06 25.6552 27.0695C25.6273 27.1168 25.5901 27.1547 25.5529 27.1926C25.5436 27.2021 25.5436 27.2116 25.5343 27.2116C25.3112 27.4674 25.0415 27.6853 24.7346 27.8368L24.6788 27.8653C24.5207 27.9316 23.1537 28.5663 23.1537 29.5232V32.0811L17.0161 28.3579C17.4159 28.1116 18.5691 27.4105 19.5176 27.1074C19.8896 26.9842 20.68 27.4958 21.1264 27.8653L21.1543 27.8937C21.2101 27.9505 21.2752 28.0074 21.3403 28.0547L21.3589 28.0737C21.4984 28.1874 21.6472 28.3011 21.8146 28.3863L21.9262 28.4432C21.9355 28.4432 21.9448 28.4526 21.9448 28.4526C22.0471 28.5095 22.1493 28.5568 22.2609 28.6042C22.2795 28.6137 22.2888 28.6137 22.3074 28.6232C22.3167 28.6232 22.326 28.6326 22.3446 28.6326C22.5027 28.6895 22.6608 28.7368 22.8189 28.7747C22.9398 28.5379 23.1165 28.3295 23.3025 28.1495C23.0328 28.1305 22.7817 28.0737 22.5399 27.9789C22.5306 27.9695 22.512 27.9695 22.5027 27.96C22.4748 27.9505 22.4469 27.9411 22.419 27.9221C22.4097 27.9126 22.3911 27.9126 22.3818 27.9032C22.3539 27.8937 22.326 27.8747 22.3074 27.8653C22.1215 27.7705 21.9541 27.6663 21.796 27.5337L21.5542 27.3063C21.5449 27.2968 21.2473 27.0221 20.8288 26.7758C20.2244 26.4253 19.7129 26.3116 19.3223 26.4347C18.5133 26.7 17.5926 27.2021 17.0347 27.5337L23.163 16.3168V21.2337C23.163 21.4042 22.9119 21.8589 22.0657 22.2474L22.0099 22.2758C21.9262 22.3137 21.8518 22.3611 21.7681 22.4084L21.7495 22.4179C21.5914 22.5126 21.4426 22.6263 21.2938 22.7495C21.2008 22.8253 21.1171 22.9105 21.0427 22.9958L21.0334 23.0053C20.9497 23.0905 20.8753 23.1758 20.8102 23.2705L20.8009 23.28C20.7637 23.3274 20.7358 23.3747 20.6986 23.4221C20.6986 23.4316 20.6893 23.4316 20.6893 23.4411C20.6614 23.4884 20.6335 23.5263 20.6056 23.5737C20.6056 23.5832 20.5963 23.5832 20.5963 23.5926L20.5126 23.7347C20.5033 23.7442 20.5033 23.7537 20.494 23.7726C20.4662 23.82 20.4476 23.8674 20.429 23.9053C20.429 23.9147 20.4197 23.9242 20.4197 23.9242C20.4011 23.9716 20.3825 24.0095 20.3639 24.0568C20.3546 24.0758 20.3546 24.0853 20.3453 24.1042L20.2895 24.2463C20.2802 24.2653 20.2802 24.2747 20.2709 24.2937C20.2616 24.3316 20.2523 24.36 20.2337 24.3979C20.2244 24.4168 20.2244 24.4358 20.2151 24.4547C20.2058 24.5021 20.1872 24.5495 20.1779 24.5874C20.1686 24.6063 20.1686 24.6347 20.1593 24.6537C20.15 24.6821 20.15 24.72 20.1407 24.7484C20.1314 24.7768 20.1314 24.8053 20.1221 24.8337C20.1128 24.8716 20.1128 24.9095 20.1035 24.9474C20.1035 24.9758 20.0942 24.9947 20.0942 25.0232C20.0942 25.0611 20.0849 25.0895 20.0849 25.1274C20.0849 25.1653 20.0849 25.1937 20.0756 25.2316V25.3737C20.0756 25.5442 20.0849 25.7242 20.1128 25.8853C20.3546 25.9421 20.6056 26.0463 20.8753 26.1789C20.8009 25.9326 20.7637 25.6768 20.7544 25.4116V25.3642C20.7544 25.2979 20.7544 25.2411 20.7637 25.1747V25.1274C20.7637 25.0705 20.773 25.0232 20.7823 24.9663V24.9474C20.7916 24.8905 20.8009 24.8337 20.8102 24.7674C20.8102 24.7484 20.8195 24.7389 20.8195 24.72C20.8288 24.6726 20.8474 24.6253 20.8567 24.5779C20.8567 24.5684 20.866 24.5589 20.866 24.5495L20.9218 24.3789C20.9311 24.3695 20.9311 24.3505 20.9404 24.3411C20.959 24.2937 20.9776 24.2463 20.9962 24.2084C21.0055 24.1989 21.0055 24.1895 21.0148 24.1705C21.0427 24.1137 21.0613 24.0663 21.0985 24.0189C21.1078 24.0095 21.1078 24 21.1171 23.9905C21.145 23.9432 21.1636 23.9053 21.1915 23.8579C21.2008 23.8484 21.2008 23.8389 21.2101 23.8295C21.238 23.7821 21.2752 23.7347 21.3124 23.6874C21.3124 23.6874 21.3124 23.6779 21.3217 23.6779C21.3589 23.6305 21.3868 23.5926 21.424 23.5453C21.4333 23.5358 21.4333 23.5263 21.4426 23.5168C21.61 23.3274 21.796 23.1663 22.0099 23.0242L22.2981 22.8821C22.4562 22.8158 23.8139 22.1621 23.8139 21.2053V16.3168L29.9981 27.6284C29.4494 27.3537 28.473 26.8611 27.7197 26.4632C27.2826 26.2358 26.9944 25.4305 26.9107 25.1368L26.827 24.7958C26.827 24.6158 26.7805 24.4358 26.7247 24.2558ZM30.9094 27.8179L24.0929 15.36C23.972 15.1326 23.7489 15 23.4978 15C23.2467 15 23.0235 15.1326 22.9026 15.36L16.0861 27.8179C15.9094 28.14 16.0117 28.5568 16.3279 28.7463L23.1537 32.9053C23.2653 32.9716 23.3862 33 23.5071 33C23.628 33 23.7489 32.9716 23.8604 32.9053L30.6769 28.7558C30.9838 28.5568 31.0954 28.14 30.9094 27.8179Z" fill="#323232" stroke="#323232" stroke-width="0.3"/>
</g>
<defs>
<filter id="filter0_d" x="-48.2494" y="-44.2493" width="144.499" height="144.499" filterUnits="userSpaceOnUse" color-interpolation-filters="sRGB">
<feFlood flood-opacity="0" result="BackgroundImageFix"/>
<feColorMatrix in="SourceAlpha" type="matrix" values="0 0 0 0 0 0 0 0 0 0 0 0 0 0 0 0 0 0 127 0"/>
<feOffset dy="4"/>
<feGaussianBlur stdDeviation="23"/>
<feColorMatrix type="matrix" values="0 0 0 0 0 0 0 0 0 0 0 0 0 0 0 0 0 0 0.08 0"/>
<feBlend mode="normal" in2="BackgroundImageFix" result="effect1_dropShadow"/>
<feBlend mode="normal" in="SourceGraphic" in2="effect1_dropShadow" result="shape"/>
</filter>
<linearGradient id="paint0_linear" x1="18" y1="2.5" x2="25.5258" y2="44.2248" gradientUnits="userSpaceOnUse">
<stop stop-color="#27D3A2"/>
<stop offset="1" stop-color="#9388FD"/>
</linearGradient>
<clipPath id="clip0">
<rect width="48" height="48" fill="white"/>
</clipPath>
</defs>
</svg>
