<svg height="250" viewBox="0 0 250 250" width="250" xmlns="http://www.w3.org/2000/svg" xmlns:xlink="http://www.w3.org/1999/xlink"><linearGradient id="a" gradientTransform="scale(.976562 .972763)" gradientUnits="userSpaceOnUse" x1="96.456398" x2="136.022003" y1="15.5724" y2="234.931"><stop offset="0" stop-color="#27d3a2"/><stop offset="1" stop-color="#9388fd"/></linearGradient><path d="m247.617188 113c6.710937 67.457031-42.75 127.558594-110.46875 134.242188-67.71875 6.683593-128.054688-42.582032-134.765626-110.039063-6.710937-67.457031 42.75-127.558594 110.46875-134.242187 67.71875-6.683594 128.054688 42.582031 134.765626 110.039062zm0 0" fill="#f9fafb"/><path d="m203.222656 219.933594c-18.828125 15.410156-41.824218 24.914062-66.074218 27.308594-32.519532 3.207031-64.988282-6.582032-90.261719-27.21875-25.273438-20.636719-41.28125-50.425782-44.503907-82.820313-2.4023432-24.15625 2.441407-48.480469 13.914063-69.898437 11.476563-21.414063 29.070313-38.960938 50.554687-50.414063 21.488282-11.457031 45.898438-16.308594 70.15625-13.941406 24.253907 2.363281 47.257813 11.839843 66.105469 27.230469l-24.855469 30.203124c-12.851562-10.496093-28.535156-16.957031-45.070312-18.566406-16.539062-1.613281-33.183594 1.695313-47.832031 9.503906-14.652344 7.8125-26.644531 19.773438-34.46875 34.375-7.824219 14.601563-11.128907 31.1875-9.488281 47.65625 2.195312 22.085938 13.109374 42.398438 30.34375 56.46875 17.230468 14.070313 39.367187 20.746094 61.539062 18.558594 16.539062-1.632812 32.214844-8.113281 45.054688-18.621094zm0 0" fill="url(#a)"/><path d="m125 226.269531c56.09375 0 101.5625-45.292969 101.5625-101.167969s-45.46875-101.167968-101.5625-101.167968c-56.089844 0-101.5625 45.292968-101.5625 101.167968s45.472656 101.167969 101.5625 101.167969zm0 0" fill="#fff"/><path d="m134.742188 128.394531v-.011719c-.546876.039063-3.367188.203126-9.652344.203126-5.027344 0-8.550782-.140626-9.796875-.203126v.011719c-19.320313-.847656-33.734375-4.191406-33.734375-8.210937 0-4.003906 14.425781-7.359375 33.734375-8.210938v13.089844c1.261719.089844 4.886719.304688 9.882812.304688 6.003907 0 9.007813-.253907 9.566407-.304688v-13.074219c19.285156.859375 33.660156 4.207031 33.660156 8.210938 0 4.003906-14.386719 7.347656-33.660156 8.210937zm0-17.761719v-11.710937h26.90625v-17.851563h-73.246094v17.851563h26.90625v11.710937c-21.867188 1-38.300782 5.308594-38.300782 10.476563s16.445313 9.476563 38.300782 10.492187v37.53125h19.449218v-37.53125c21.828126-1 38.234376-5.308593 38.234376-10.480468 0-5.15625-16.40625-9.476563-38.234376-10.476563" fill="#283947"/></svg>