
<svg xmlns="http://www.w3.org/2000/svg" xmlns:xlink="http://www.w3.org/1999/xlink" width="250px" height="250px" viewBox="0 0 250 250" version="1.1">
<defs>
<linearGradient id="linear0" gradientUnits="userSpaceOnUse" x1="96.456398" y1="15.5724" x2="136.022003" y2="234.931" gradientTransform="matrix(0.976562,0,0,0.972763,0,0)">
<stop offset="0" style="stop-color:rgb(15.294118%,82.745099%,63.529414%);stop-opacity:1;"/>
<stop offset="1" style="stop-color:rgb(57.647061%,53.333336%,99.215686%);stop-opacity:1;"/>
</linearGradient>
<linearGradient id="linear1" gradientUnits="userSpaceOnUse" x1="130" y1="68.399498" x2="130" y2="184.598999" gradientTransform="matrix(0.976562,0,0,0.972763,0,0)">
<stop offset="0" style="stop-color:rgb(15.686275%,22.352941%,27.843139%);stop-opacity:1;"/>
<stop offset="1" style="stop-color:rgb(39.607844%,46.666667%,52.549022%);stop-opacity:1;"/>
</linearGradient>
</defs>
<g id="surface1">
<path style=" stroke:none;fill-rule:nonzero;fill:rgb(97.647059%,98.039216%,98.431373%);fill-opacity:1;" d="M 247.617188 113 C 254.328125 180.457031 204.867188 240.558594 137.148438 247.242188 C 69.429688 253.925781 9.09375 204.660156 2.382812 137.203125 C -4.328125 69.746094 45.132812 9.644531 112.851562 2.960938 C 180.570312 -3.722656 240.90625 45.542969 247.617188 113 Z M 247.617188 113 "/>
<path style=" stroke:none;fill-rule:nonzero;fill:url(#linear0);" d="M 203.222656 219.933594 C 184.394531 235.34375 161.398438 244.847656 137.148438 247.242188 C 104.628906 250.449219 72.160156 240.660156 46.886719 220.023438 C 21.613281 199.386719 5.605469 169.597656 2.382812 137.203125 C -0.0195312 113.046875 4.824219 88.722656 16.296875 67.304688 C 27.773438 45.890625 45.367188 28.34375 66.851562 16.890625 C 88.339844 5.433594 112.75 0.582031 137.007812 2.949219 C 161.261719 5.3125 184.265625 14.789062 203.113281 30.179688 L 178.257812 60.382812 C 165.40625 49.886719 149.722656 43.425781 133.1875 41.816406 C 116.648438 40.203125 100.003906 43.511719 85.355469 51.320312 C 70.703125 59.132812 58.710938 71.09375 50.886719 85.695312 C 43.0625 100.296875 39.757812 116.882812 41.398438 133.351562 C 43.59375 155.4375 54.507812 175.75 71.742188 189.820312 C 88.972656 203.890625 111.109375 210.566406 133.28125 208.378906 C 149.820312 206.746094 165.496094 200.265625 178.335938 189.757812 Z M 203.222656 219.933594 "/>
<path style=" stroke:none;fill-rule:nonzero;fill:rgb(100%,100%,100%);fill-opacity:1;" d="M 125 226.269531 C 181.09375 226.269531 226.5625 180.976562 226.5625 125.101562 C 226.5625 69.226562 181.09375 23.933594 125 23.933594 C 68.910156 23.933594 23.4375 69.226562 23.4375 125.101562 C 23.4375 180.976562 68.910156 226.269531 125 226.269531 Z M 125 226.269531 "/>
<path style=" stroke:none;fill-rule:nonzero;fill:url(#linear1);" d="M 180.308594 108.800781 L 168.839844 108.800781 C 162.527344 91.347656 145.554688 79.382812 123.167969 79.382812 L 86.351562 79.382812 L 86.351562 108.800781 L 73.566406 108.800781 L 73.566406 119.359375 L 86.351562 119.359375 L 86.351562 130.425781 L 73.566406 130.425781 L 73.566406 140.984375 L 86.351562 140.984375 L 86.351562 170.050781 L 123.167969 170.050781 C 145.296875 170.050781 162.140625 158.179688 168.617188 140.984375 L 180.308594 140.984375 L 180.308594 130.425781 L 171.191406 130.425781 C 171.417969 128.566406 171.546875 126.640625 171.546875 124.714844 L 171.546875 124.460938 C 171.546875 122.726562 171.449219 121.027344 171.289062 119.359375 L 180.339844 119.359375 L 180.339844 108.800781 Z M 96.660156 88.78125 L 123.167969 88.78125 C 139.59375 88.78125 151.804688 96.835938 157.4375 108.769531 L 96.660156 108.769531 Z M 123.167969 160.554688 L 96.660156 160.554688 L 96.660156 140.949219 L 157.375 140.949219 C 151.707031 152.695312 139.53125 160.554688 123.167969 160.554688 Z M 160.886719 124.941406 C 160.886719 126.800781 160.757812 128.628906 160.5 130.394531 L 96.660156 130.394531 L 96.660156 119.324219 L 160.53125 119.324219 C 160.757812 121.058594 160.886719 122.855469 160.886719 124.683594 Z M 160.886719 124.941406 "/>
</g>
</svg>
