<svg height="250" viewBox="0 0 250 250" width="250" xmlns="http://www.w3.org/2000/svg" xmlns:xlink="http://www.w3.org/1999/xlink"><linearGradient id="a" gradientUnits="userSpaceOnUse" x1="93.74746205467" x2="132.94229334268" y1="12.992891668" y2="230.30405523532"><stop offset="0" stop-color="#27d3a2"/><stop offset="1" stop-color="#9388fd"/></linearGradient><path d="m249.390625 112.640625c6.808594 68.703125-43.367187 129.914063-112.070313 136.71875-68.699218 6.808594-129.910156-43.367187-136.714843-112.070313-6.808594-68.699218 43.367187-129.910156 112.066406-136.714843 68.703125-6.808594 129.914063 43.367187 136.71875 112.066406zm0 0" fill="#f9fafb"/><path d="m204.351562 221.546875c-19.101562 15.695313-42.429687 25.371094-67.03125 27.808594-32.988281 3.269531-65.925781-6.699219-91.566406-27.714844-25.636718-21.019531-41.878906-51.359375-45.144531-84.347656-2.4375-24.601563 2.472656-49.375 14.113281-71.183594s29.488282-39.679687 51.285156-51.34375c21.796876-11.667969 46.5625-16.609375 71.167969-14.199219 24.605469 2.40625 47.941407 12.058594 67.0625 27.730469l-25.214843 30.757813c-13.035157-10.683594-28.949219-17.265626-45.722657-18.90625-16.777343-1.644532-33.660156 1.726562-48.523437 9.679687-14.863282 7.953125-27.03125 20.136719-34.96875 35.007813-7.933594 14.871093-11.285156 31.757812-9.621094 48.535156 2.226562 22.492187 13.300781 43.175781 30.78125 57.507812 17.480469 14.328125 39.9375 21.125 62.429688 18.898438 16.773437-1.664063 32.679687-8.261719 45.703124-18.960938zm0 0" fill="url(#a)"/><path d="m124.996094 227.996094c56.902344 0 103.03125-46.128906 103.03125-103.03125s-46.128906-103.027344-103.03125-103.027344-103.027344 46.125-103.027344 103.027344 46.125 103.03125 103.027344 103.03125zm0 0" fill="#fff"/><path d="m77.476562 162.761719c-3.371093-2.058594-5.425781-5.722657-5.433593-9.671875v-22.003906c.003906-1.691407.914062-3.253907 2.378906-4.09375 1.46875-.839844 3.273437-.832032 4.738281.019531l49.660156 28.957031c2.90625 1.691406 4.691407 4.800781 4.695313 8.164062v22.800782c.003906 2.054687-1.105469 3.953125-2.894531 4.957031-1.792969 1.003906-3.988282.960937-5.738282-.113281zm74.027344-41.78125c2.902344 1.691406 4.691406 4.800781 4.691406 8.164062v46.265625c.003907 1.363282-.734374 2.625-1.925781 3.292969l-10.871093 6.121094c-.140626.074219-.285157.136719-.4375.179687v-25.6875c0-3.328125-1.75-6.410156-4.601563-8.121094l-43.613281-26.089843v-29.003907c.003906-1.691406.910156-3.25 2.378906-4.09375 1.46875-.839843 3.273438-.832031 4.734375.019532zm21.738282-34.171875c2.914062 1.691406 4.710937 4.808594 4.707031 8.179687v67.582031c-.007813 1.386719-.773438 2.660157-1.992188 3.320313l-10.304687 5.5625v-47.042969c0-3.324218-1.742188-6.398437-4.585938-8.113281l-44.582031-26.734375v-27.511719c0-.832031.21875-1.652343.632813-2.375 1.3125-2.257812 4.207031-3.023437 6.464843-1.714843zm0 0" fill="#283947" fill-rule="evenodd"/></svg>