<svg height="250" viewBox="0 0 250 250" width="250" xmlns="http://www.w3.org/2000/svg" xmlns:xlink="http://www.w3.org/1999/xlink"><linearGradient id="a" gradientTransform="scale(.976562 .972763)" gradientUnits="userSpaceOnUse" x1="96.456398" x2="136.022003" y1="15.5724" y2="234.931"><stop offset="0" stop-color="#27d3a2"/><stop offset="1" stop-color="#9388fd"/></linearGradient><path d="m247.617188 113c6.710937 67.457031-42.75 127.558594-110.46875 134.242188-67.71875 6.683593-128.054688-42.582032-134.765626-110.039063-6.710937-67.457031 42.75-127.558594 110.46875-134.242187 67.71875-6.683594 128.054688 42.582031 134.765626 110.039062zm0 0" fill="#f9fafb"/><path d="m203.222656 219.933594c-18.828125 15.410156-41.824218 24.914062-66.074218 27.308594-32.519532 3.207031-64.988282-6.582032-90.261719-27.21875-25.273438-20.636719-41.28125-50.425782-44.503907-82.820313-2.4023432-24.15625 2.441407-48.480469 13.914063-69.898437 11.476563-21.414063 29.070313-38.960938 50.554687-50.414063 21.488282-11.457031 45.898438-16.308594 70.15625-13.941406 24.253907 2.363281 47.257813 11.839843 66.105469 27.230469l-24.855469 30.203124c-12.851562-10.496093-28.535156-16.957031-45.070312-18.566406-16.539062-1.613281-33.183594 1.695313-47.832031 9.503906-14.652344 7.8125-26.644531 19.773438-34.46875 34.375-7.824219 14.601563-11.128907 31.1875-9.488281 47.65625 2.195312 22.085938 13.109374 42.398438 30.34375 56.46875 17.230468 14.070313 39.367187 20.746094 61.539062 18.558594 16.539062-1.632812 32.214844-8.113281 45.054688-18.621094zm0 0" fill="url(#a)"/><path d="m125 226.269531c56.09375 0 101.5625-45.292969 101.5625-101.167969s-45.46875-101.167968-101.5625-101.167968c-56.089844 0-101.5625 45.292968-101.5625 101.167968s45.472656 101.167969 101.5625 101.167969zm0 0" fill="#fff"/><g fill="#283947"><path d="m95.332031 138.097656 7.660157-7.957031-9.523438-12.90625-12.125-17.230469c-4.28125 7.339844-6.738281 15.886719-6.738281 25.011719 0 15.113281 6.738281 28.648437 17.367187 37.734375l15.390625-10.921875c-5.238281-3.277344-9.453125-8.046875-12.03125-13.730469zm0 0"/><path d="m111.953125 95.546875 7.992187 7.628906 12.953126-9.484375 17.296874-12.074218c-7.367187-4.269532-15.949218-6.714844-25.109374-6.714844-15.171876 0-28.757813 6.714844-37.882813 17.300781l10.96875 15.328125c3.289063-5.214844 8.074219-9.414062 13.78125-11.984375zm0 0"/><path d="m147.007812 120.0625 9.523438 12.90625 12.125 17.230469c4.28125-7.339844 6.738281-15.886719 6.738281-25.011719 0-15.113281-6.738281-28.648438-17.367187-37.734375l-15.390625 10.921875c5.234375 3.277344 9.453125 8.046875 12.03125 13.730469zm0 0"/><path d="m162.796875 158-10.96875-15.328125c-3.289063 5.214844-8.074219 9.414063-13.78125 11.984375l-7.992187-7.632812-12.953126 9.488281-17.296874 12.074219c7.367187 4.265624 15.949218 6.714843 25.109374 6.714843 15.171876 0 28.757813-6.714843 37.882813-17.300781zm0 0"/></g></svg>