<svg height="250" viewBox="0 0 250 250" width="250" xmlns="http://www.w3.org/2000/svg" xmlns:xlink="http://www.w3.org/1999/xlink"><linearGradient id="a" gradientTransform="scale(.976562 .972763)" gradientUnits="userSpaceOnUse" x1="96.456398" x2="136.022003" y1="15.5724" y2="234.931"><stop offset="0" stop-color="#27d3a2"/><stop offset="1" stop-color="#9388fd"/></linearGradient><linearGradient id="b" gradientTransform="scale(.976562 .972763)" gradientUnits="userSpaceOnUse" x1="130" x2="130" y1="68.399498" y2="184.598999"><stop offset="0" stop-color="#283947"/><stop offset="1" stop-color="#657786"/></linearGradient><path d="m247.617188 113c6.710937 67.457031-42.75 127.558594-110.46875 134.242188-67.71875 6.683593-128.054688-42.582032-134.765626-110.039063-6.710937-67.457031 42.75-127.558594 110.46875-134.242187 67.71875-6.683594 128.054688 42.582031 134.765626 110.039062zm0 0" fill="#f9fafb"/><path d="m203.222656 219.933594c-18.828125 15.410156-41.824218 24.914062-66.074218 27.308594-32.519532 3.207031-64.988282-6.582032-90.261719-27.21875-25.273438-20.636719-41.28125-50.425782-44.503907-82.820313-2.4023432-24.15625 2.441407-48.480469 13.914063-69.898437 11.476563-21.414063 29.070313-38.960938 50.554687-50.414063 21.488282-11.457031 45.898438-16.308594 70.15625-13.941406 24.253907 2.363281 47.257813 11.839843 66.105469 27.230469l-24.855469 30.203124c-12.851562-10.496093-28.535156-16.957031-45.070312-18.566406-16.539062-1.613281-33.183594 1.695313-47.832031 9.503906-14.652344 7.8125-26.644531 19.773438-34.46875 34.375-7.824219 14.601563-11.128907 31.1875-9.488281 47.65625 2.195312 22.085938 13.109374 42.398438 30.34375 56.46875 17.230468 14.070313 39.367187 20.746094 61.539062 18.558594 16.539062-1.632812 32.214844-8.113281 45.054688-18.621094zm0 0" fill="url(#a)"/><path d="m125 226.269531c56.09375 0 101.5625-45.292969 101.5625-101.167969s-45.46875-101.167968-101.5625-101.167968c-56.089844 0-101.5625 45.292968-101.5625 101.167968s45.472656 101.167969 101.5625 101.167969zm0 0" fill="#fff"/><path d="m180.308594 108.800781h-11.46875c-6.3125-17.453125-23.285156-29.417969-45.671875-29.417969h-36.816407v29.417969h-12.785156v10.558594h12.785156v11.066406h-12.785156v10.558594h12.785156v29.066406h36.816407c22.128906 0 38.972656-11.871093 45.449219-29.066406h11.691406v-10.558594h-9.117188c.226563-1.859375.355469-3.785156.355469-5.710937v-.253906c0-1.734376-.097656-3.433594-.257813-5.101563h9.050782v-10.558594zm-83.648438-20.019531h26.507813c16.425781 0 28.636719 8.054688 34.269531 19.988281h-60.777344zm26.507813 71.773438h-26.507813v-19.605469h60.714844c-5.667969 11.746093-17.84375 19.605469-34.207031 19.605469zm37.71875-35.613282c0 1.859375-.128907 3.6875-.386719 5.453125h-63.839844v-11.070312h63.871094c.226562 1.734375.355469 3.53125.355469 5.359375zm0 0" fill="url(#b)"/></svg>