<svg height="250" viewBox="0 0 250 250" width="250" xmlns="http://www.w3.org/2000/svg" xmlns:xlink="http://www.w3.org/1999/xlink"><linearGradient id="a" gradientUnits="userSpaceOnUse" x1="29.29686" x2="220.703012" y1="69.74605608688" y2="180.25381591312"><stop offset="0" stop-color="#1d1d3c"/><stop offset=".11" stop-color="#221e43"/><stop offset=".27" stop-color="#302256"/><stop offset=".46" stop-color="#482876"/><stop offset=".68" stop-color="#6931a2"/><stop offset=".91" stop-color="#923bda"/><stop offset="1" stop-color="#a440f2"/><stop offset="1" stop-color="#38d6b2"/></linearGradient><path d="m250 125c0 69.035156-55.964844 125-125 125s-125-55.964844-125-125 55.964844-125 125-125 125 55.964844 125 125zm0 0" fill="#1d1d3c"/><path d="m235.492188 125c0 61.023438-49.46875 110.492188-110.492188 110.492188s-110.492188-49.46875-110.492188-110.492188 49.46875-110.492188 110.492188-110.492188 110.492188 49.46875 110.492188 110.492188zm0 0" fill="url(#a)"/><path d="m227.65625 125c0 56.695312-45.960938 102.65625-102.65625 102.65625s-102.65625-45.960938-102.65625-102.65625 45.960938-102.65625 102.65625-102.65625 102.65625 45.960938 102.65625 102.65625zm0 0" fill="#1d1d3c"/><path d="m64.078125 53.867188v142.265624h121.851563v-142.265624zm0 0" fill="#1d1d3c"/><path d="m125.09375 94.425781v40.683594h40.515625v20.378906h-81.214844v-81.296875h81.214844v20.234375zm0 0" fill="#fff"/><path d="m84.394531 176.214844h81.214844v4.394531h-81.214844zm0 0" fill="#a440f2"/></svg>