
<svg xmlns="http://www.w3.org/2000/svg" xmlns:xlink="http://www.w3.org/1999/xlink" width="250px" height="250px" viewBox="0 0 250 250" version="1.1">
<g id="surface1">
<path style="fill-rule:nonzero;fill:rgb(13.725491%,12.156863%,12.54902%);fill-opacity:1;stroke-width:1;stroke-linecap:butt;stroke-linejoin:miter;stroke:rgb(100%,100%,100%);stroke-opacity:1;stroke-miterlimit:10;" d="M 90.4995 45.5 C 90.4995 70.352953 70.352953 90.4995 45.5 90.4995 C 20.647047 90.4995 0.5005 70.352953 0.5005 45.5 C 0.5005 20.647047 20.647047 0.5005 45.5 0.5005 C 70.352953 0.5005 90.4995 20.647047 90.4995 45.5 Z M 90.4995 45.5 " transform="matrix(2.747253,0,0,2.747253,0,0)"/>
<path style=" stroke:none;fill-rule:nonzero;fill:rgb(100%,100%,100%);fill-opacity:1;" d="M 80.21875 123.625 C 79.941406 110.515625 85.011719 97.855469 94.261719 88.558594 C 103.511719 79.261719 116.144531 74.128906 129.257812 74.339844 C 147.058594 74.339844 159.476562 81.320312 167.71875 92.910156 L 156.097656 101.152344 C 149.644531 92.636719 141.648438 87.996094 128.625 87.996094 C 109.394531 87.996094 95.660156 103.214844 95.660156 123.707031 C 95.660156 144.617188 109.835938 159.421875 129.203125 159.421875 C 140.546875 159.84375 151.363281 154.628906 158.105469 145.496094 L 169.78125 153.296875 C 159.972656 166.457031 147.335938 172.910156 128.734375 172.910156 C 115.691406 173.058594 103.148438 167.886719 93.992188 158.589844 C 84.839844 149.292969 79.867188 136.667969 80.21875 123.625 Z M 80.21875 123.625 "/>
</g>
</svg>
