<?xml version="1.0" encoding="utf-8"?>
<!-- Generator: Adobe Illustrator 24.0.0, SVG Export Plug-In . SVG Version: 6.00 Build 0)  -->
<svg version="1.1" id="CIRCLE_OUTLINE_BLACK" xmlns="http://www.w3.org/2000/svg" xmlns:xlink="http://www.w3.org/1999/xlink"
	 x="0px" y="0px" viewBox="0 0 512 512" style="enable-background:new 0 0 512 512;" xml:space="preserve">
<style type="text/css">
	.st0{fill:#2231E2;}
	.st1{fill:#FFFFFF;}
	.st2{fill:#84A6F2;}
</style>
<circle class="st0" cx="256" cy="256" r="256"/>
<polygon class="st1" points="348,134.8 291.8,132.6 264.1,84.2 320,84.2 "/>
<polygon class="st1" points="332.2,91.7 357.4,136.3 398.1,157.6 375,116.6 "/>
<polygon class="st1" points="255.2,85.7 283.4,134.8 234.3,162.6 208.9,113.2 "/>
<polygon class="st1" points="203.6,121 227.7,168.3 200.5,215.5 172.7,168.3 "/>
<polygon class="st1" points="171.5,183.5 195.9,225.3 195.9,272.1 170.9,232.8 "/>
<polygon class="st1" points="211.9,212.2 234,173.1 276.2,148.4 254.3,188 "/>
<polygon class="st1" points="291.2,140.2 264.1,187.2 319.6,187.2 347.2,142.8 "/>
<polygon class="st1" points="356.1,144.7 326.8,190.8 374.9,217.9 404.5,170 "/>
<polygon class="st1" points="408.9,177 382.1,224 407.1,274.9 437.4,224.6 "/>
<polygon class="st1" points="437.4,241.5 411,285.7 411,331.2 437.4,289.3 "/>
<polygon class="st2" points="274.1,196 320.9,196 360.5,218.9 313.4,220.3 "/>
<polygon class="st2" points="320,228.3 373.9,228.3 399.4,279.2 347.2,276.7 "/>
<polygon class="st2" points="349.2,284.5 349.2,340.2 404.5,340.2 404.5,286.3 "/>
<polygon class="st2" points="345.9,349.7 317.3,394.8 373.4,394.8 401.9,349.7 "/>
<polygon class="st1" points="309.5,403.9 272.2,427.8 321.6,427.8 359.7,405.1 "/>
<polygon class="st1" points="317.3,241.5 317.3,289.3 340.4,329.6 341.9,279.2 "/>
<polygon class="st1" points="311.9,297.2 282.5,345.1 309.2,392.4 340.1,344.8 "/>
<polygon class="st1" points="275.9,351.8 302.5,399.1 258,427.8 229.8,378.4 "/>
<polygon class="st1" points="258.9,324.8 235.2,366 275.2,342.1 299.8,300.9 "/>
<polygon class="st1" points="193.4,326.6 164.6,370.9 221.6,372.2 248.9,326.6 "/>
<polygon class="st1" points="164.6,378.4 221,380.6 248.9,427.8 193.1,427.8 "/>
<polygon class="st1" points="114.3,356 154.6,375.4 179.2,421.2 139.5,398.8 "/>
<polygon class="st1" points="136.1,297.2 109.2,344.8 155.2,368.4 185.8,324.2 "/>
<polygon class="st2" points="152.2,294.2 200.2,294.2 239.5,317.8 192.8,317.8 "/>
<polygon class="st1" points="74.6,289 104.3,241.5 130.7,289 102.6,337.8 "/>
<polygon class="st1" points="74.6,224.8 74.6,274.9 101,231.5 98.9,184.8 "/>
<polygon class="st2" points="112.5,235.4 137.3,285.6 194,285.6 164.6,236.9 "/>
<polygon class="st2" points="107.3,173.9 109.2,228.3 163.4,228.3 163.4,173.9 "/>
<polygon class="st2" points="138.9,117.2 109.2,165.4 165.5,165.4 195.9,117.2 "/>
<polygon class="st2" points="152.5,108.1 192.2,84.2 239.2,84.2 203.1,108.1 "/>
</svg>
