<svg height="250" viewBox="0 0 250 250" width="250" xmlns="http://www.w3.org/2000/svg" xmlns:xlink="http://www.w3.org/1999/xlink"><linearGradient id="a" gradientTransform="matrix(.416667 0 0 -.416667 0 250)" gradientUnits="userSpaceOnUse" x1="300" x2="300" y1="685" y2="-63"><stop offset="0" stop-color="#f9a606"/><stop offset="1" stop-color="#fbcc5f"/></linearGradient><path d="m250 125c0 69.035156-55.964844 125-125 125s-125-55.964844-125-125 55.964844-125 125-125 125 55.964844 125 125zm0 0" fill="url(#a)"/><path d="m199.125 104.375h-14.832031c-8.167969-22.667969-30.125-38.207031-59.085938-38.207031h-47.625v38.207031h-16.539062v13.707031h16.539062v14.375h-16.539062v13.710938h16.539062v37.75h47.625c28.625 0 50.417969-15.417969 58.792969-37.75h15.125v-13.710938h-11.792969c.292969-2.414062.460938-4.914062.460938-7.414062v-.335938c0-2.25-.125-4.457031-.335938-6.625h11.710938v-13.707031zm-108.207031-26h34.289062c21.25 0 37.042969 10.457031 44.335938 25.957031h-78.625zm34.289062 93.207031h-34.289062v-25.457031h78.539062c-7.332031 15.25-23.082031 25.457031-44.25 25.457031zm48.792969-46.25c0 2.417969-.167969 4.792969-.5 7.085938h-82.582031v-14.375h82.625c.289062 2.25.457031 4.582031.457031 6.957031zm0 0" fill="#fff"/></svg>