<svg height="250" viewBox="0 0 250 250" width="250" xmlns="http://www.w3.org/2000/svg"><path d="m90.25 55.582031 31.640625 66.058594 48.914063-59.613281c-24.75-15.222656-54.609376-18.054688-80.554688-6.445313zm0 0" fill="#ff7f66"/><path d="m90.25 55.582031c-3.972656 1.777344-7.859375 3.890625-11.609375 6.363281-16.667969 10.914063-31.945313 28.5-36.917969 48.609376l80.167969 11.085937zm0 0" fill="#ffc54a"/><path d="m41.695312 110.554688c-3.667968 14.777343-1.777343 30.945312 9.222657 46.835937 3.472656 5.027344 7.386719 9.75 11.636719 14.136719l59.335937-49.886719zm0 0" fill="#ff905b"/><path d="m62.554688 171.527344c24.417968 25.167968 60.167968 38.332031 89.945312 24.304687l-30.609375-74.191406zm0 0" fill="#ff5d6c"/><path d="m152.5 195.832031c3.777344-1.777343 7.445312-3.972656 10.972656-6.636719 23.527344-17.777343 39.527344-36.695312 44.695313-55.890624l-86.308594-11.664063zm0 0" fill="#ffc54a"/><path d="m208.195312 133.304688c4.386719-16.304688 1-32.832032-12.222656-49.082032-7.363281-9.054687-15.917968-16.472656-25.167968-22.167968l-48.914063 59.585937zm0 0" fill="#ff9024"/><path d="m139.417969 73.332031c28.582031 2.945313 37.027343 27.195313 32.277343 61.222657-3.972656 28.472656-36.027343 41.140624-64.304687 35.972656-28.28125-5.167969-34.613281-33.554688-30.167969-54.859375 5.777344-27.640625 32.277344-45.417969 62.195313-42.335938zm0 0" fill="#360053"/><g fill="#c74dff"><path d="m174.195312 162.917969-7.304687-15.417969c-4.890625.25-10.390625.109375-10.835937-3.667969-.472657-3.832031 2.945312-5.914062 8.722656-6.027343l-.859375-4.582032-1.917969-10.027344c-8.359375 1.386719-17.359375 5.222657-18.667969 15.695313l-2.941406-14.222656-14.53125-2 3.140625 16.386719 4.640625 24.640624h.109375c7.832031.5 14.359375-.417968 14.609375-.472656l-2.332031-11.304687c3.5 8.441406 22.054687 10.164062 28.167968 11zm0 0"/><path d="m85.722656 149.527344c1.195313-12.136719 5.886719-27.222656 21.886719-26.859375 13.113281.304687 17.167969 10.832031 18.308594 20.222656.5 4.164063.191406 10.441406-.363281 15.582031l-14.777344 2.027344.804687-15.417969c.25-6.277343-2.414062-9.804687-6.441406-9.441406-4.25.359375-7 4.664063-6.945313 12.636719l-.25 14-12.890624 1.777344c-.027344-.25-.109376-6.609376.667968-14.527344zm0 0"/><path d="m163.890625 104.195312c-1.195313-12.140624-5.890625-27.222656-21.890625-26.863281-13.109375.308594-17.167969 10.835938-18.304688 20.222657-.5 4.167968-.195312 10.445312.359376 15.585937l14.777343 2.027344-.304687-5.917969c3.972656.75 9.777344 1.75 13.054687 2.332031l.085938 5.363281 12.886719 1.777344c.027343-.222656.113281-6.582031-.664063-14.527344zm-25.808594-3.304687-.054687-1.140625c-.25-6.277344 2.417968-9.804688 6.445312-9.445312 4.25.363281 7 4.667968 6.945313 12.640624v.359376c-2.945313-.554688-9.667969-1.832032-13.335938-2.414063zm0 0"/><path d="m87.695312 120.027344c4.636719.277344 9.582032.195312 14.5-.5 9.277344-1.332032 19.414063-6.167969 19.054688-19.136719-.445312-15.835937-15.609375-19.695313-27.667969-20.25-7.886719-.363281-14.441406.664063-14.691406.71875 0 0-1.890625.058594-1.890625.058594zm11.304688-15.195313-4.027344-12.886719c7.609375-.5 12.75 2.472657 13.332032 6.636719.554687 3.972657-3.109376 6.167969-9.304688 6.25zm0 0"/></g></svg>