<!-- Generator: Adobe Illustrator 22.1.0, SVG Export Plug-In . SVG Version: 6.00 Build 0)  -->
<svg xmlns="http://www.w3.org/2000/svg" xmlns:xlink="http://www.w3.org/1999/xlink" width="250px" height="250px" viewBox="0 0 250 250" version="1.1">
<defs>
<clipPath id="clip1">
  <path d="M 250 125 C 250 194.035156 194.035156 250 125 250 C 55.964844 250 0 194.035156 0 125 C 0 55.964844 55.964844 0 125 0 C 194.035156 0 250 55.964844 250 125 Z M 250 125 "/>
</clipPath>
<clipPath id="clip2">
  <path d="M 36 4 L 212 4 L 212 245 L 36 245 Z M 36 4 "/>
</clipPath>
<clipPath id="clip3">
  <path d="M 250 125 C 250 194.035156 194.035156 250 125 250 C 55.964844 250 0 194.035156 0 125 C 0 55.964844 55.964844 0 125 0 C 194.035156 0 250 55.964844 250 125 Z M 250 125 "/>
</clipPath>
</defs>
<g id="surface1">
<g clip-path="url(#clip1)" clip-rule="nonzero">
<path style=" stroke:none;fill-rule:nonzero;fill:rgb(0%,0%,0%);fill-opacity:1;" d="M 251 126 C 250.5 196 193.5 252 124 251.5 C 89.5 251.5 58.5 237.5 36 214.5 C 13 191.5 -1.5 159.5 -1 124 C -0.5 54 56.5 -2 126 -1.5 C 195.5 -1 251.5 56 251 126 "/>
</g>
<g clip-path="url(#clip2)" clip-rule="nonzero">
<g clip-path="url(#clip3)" clip-rule="nonzero">
<path style=" stroke:none;fill-rule:nonzero;fill:rgb(100%,100%,100%);fill-opacity:1;" d="M 64.5 168 L 36.5 215.5 C 36.5 215.5 48 231 80.5 243.5 L 96.5 200 L 107.5 171 L 118.5 138.5 C 118.5 138.5 122.5 128 122.5 128 L 123 127 C 123 127 123 126.5 123.5 126.5 L 124 126 C 124 126 124 126 124.5 126 L 125.5 126 L 126 127 L 129 136 L 136.5 159 L 143 179.5 L 153.5 211 L 161.5 233 L 165 245 C 165 245 190.5 238 212 216.5 L 196.5 193 L 186.5 175.5 L 176 155.5 L 167.5 138 L 160.5 122 L 155 105.5 L 150 90 L 144.5 72.5 L 139 54 L 134 35.5 L 128.5 15 L 125 4 L 119 23.5 L 110.5 51 L 104 71.5 L 96 95 L 89.5 114 L 82 132 L 74 149.5 Z M 64.5 168 "/>
</g>
</g>
</g>
</svg>
