<svg height="250" viewBox="0 0 250 250" width="250" xmlns="http://www.w3.org/2000/svg" xmlns:xlink="http://www.w3.org/1999/xlink"><clipPath id="a"><path d="m250 125c0 69.035156-55.964844 125-125 125s-125-55.964844-125-125 55.964844-125 125-125 125 55.964844 125 125zm0 0"/></clipPath><clipPath id="b"><path d="m36 4h176v241h-176zm0 0"/></clipPath><clipPath id="c"><path d="m250 125c0 69.035156-55.964844 125-125 125s-125-55.964844-125-125 55.964844-125 125-125 125 55.964844 125 125zm0 0"/></clipPath><g clip-path="url(#a)"><path d="m251 126c-.5 70-57.5 126-127 125.5-34.5 0-65.5-14-88-37-23-23-37.5-55-37-90.5.5-70 57.5-126 127-125.5s125.5 57.5 125 127.5"/></g><g clip-path="url(#b)"><g clip-path="url(#c)"><path d="m64.5 168-28 47.5s11.5 15.5 44 28l16-43.5 11-29 11-32.5s4-10.5 4-10.5l.5-1s0-.5.5-.5l.5-.5h.5 1l.5 1 3 9 7.5 23 6.5 20.5 10.5 31.5 8 22 3.5 12s25.5-7 47-28.5l-15.5-23.5-10-17.5-10.5-20-8.5-17.5-7-16-5.5-16.5-5-15.5-5.5-17.5-5.5-18.5-5-18.5-5.5-20.5-3.5-11-6 19.5-8.5 27.5-6.5 20.5-8 23.5-6.5 19-7.5 18-8 17.5zm0 0" fill="#fff"/></g></g></svg>