<?xml version="1.0" encoding="utf-8"?>
<!-- Generator: Adobe Illustrator 25.2.1, SVG Export Plug-In . SVG Version: 6.00 Build 0)  -->
<svg version="1.1" id="Layer_1" xmlns="http://www.w3.org/2000/svg" xmlns:xlink="http://www.w3.org/1999/xlink" x="0px" y="0px"
	 viewBox="0 0 400 400" style="enable-background:new 0 0 400 400;" xml:space="preserve">
<style type="text/css">
	.st0{fill:#263E8A;}
	.st1{fill:#1A3662;}
	.st2{fill:#FFFFFF;}
</style>
<g>
	<path class="st0" d="M305.4,264l-34.3-69.9c-1.6-3.3-6.3-3.3-8,0l-11.5,23.5c-1.3,2.6-1.3,5.6,0,8.2l21.5,43.9
		c1.1,2.3-0.5,4.9-3.1,4.9h-62.9l69.1-141.1c1.4-2.9,0.2-6.4-2.7-7.9c-2.9-1.4-6.4-0.2-7.9,2.7l-13.4,27.4l-38.2-77.9
		c-5.8-11.8-22.6-11.8-28.4,0L94.6,264c-5.1,10.5,2.5,22.7,14.2,22.7h57.9c3.4,0,6.1-2.7,6.1-6.1v0c0-3.4-2.7-6.1-6.1-6.1h-58.8
		c-2.5,0-4.2-2.6-3.1-4.9L186,104.1c1.2-2.6,4.9-2.6,6.1,0l42.8,87.3l-60.3,123.1c-1.4,2.9-0.2,6.4,2.7,7.9c0.8,0.4,1.7,0.6,2.6,0.6
		c2.2,0,4.3-1.2,5.3-3.3l16.1-33h89.9C302.9,286.8,310.5,274.5,305.4,264z"/>
	<g>
		<circle class="st1" cx="335" cy="65" r="65"/>
	</g>
	<path class="st0" d="M376.1,146.5c5.1,16.7,7.9,34.4,7.9,52.7c0.4,100.6-81,183.5-181.6,184.8C99,385.3,14.7,300.9,16,197.6
		C17.3,98.3,98.1,17.4,197.4,16c19.5-0.3,38.4,2.5,56.1,7.9c3.5,1.1,7.2-0.3,9.1-3.4c0,0,0.1-0.1,0.1-0.1c2.7-4.4,0.6-10.2-4.4-11.7
		c-17.3-5.3-35.6-8.2-54.5-8.6C92.1-2.1,1.4,85.7,0,197.5c-1.4,112.4,90,203.9,202.5,202.5c111.8-1.4,199.6-92.1,197.5-203.9
		c-0.4-18.9-3.3-37.2-8.6-54.5c-1.5-4.9-7.3-7.1-11.7-4.4c0,0-0.1,0.1-0.1,0.1C376.4,139.3,375,143,376.1,146.5z"/>
	<path class="st2" d="M324.4,46.9c2.9-2.1,6.2-3.1,10.1-3.1c4.2,0,7.8,1,10.8,3c3,2,5.2,4.8,6.6,8.3h13.8
		c-1.7-7.2-5.3-12.9-10.6-17.1c-5.4-4.2-12.1-6.3-20.2-6.3c-7.8,0-14.4,2.1-19.9,6.4c-5.4,4.3-9,10.1-10.7,17.4h-7.9v6.2h6.9
		c-0.1,0.7-0.1,1.8-0.1,3.2c0,0.8,0.1,2,0.2,3.6h-7v6.1h7.9c1.8,7.1,5.4,12.8,10.8,17.1c5.4,4.2,12,6.4,19.7,6.4
		c8.1,0,14.9-2.1,20.2-6.3c5.4-4.2,8.9-9.9,10.6-17.1h-13.8c-1.4,3.5-3.6,6.3-6.6,8.3c-3,2-6.6,3-10.8,3c-3.8,0-7.1-1-10-3
		c-2.9-2-5-4.8-6.4-8.4h18.6v-6.1h-20c-0.1-1.6-0.2-2.8-0.2-3.6c0-0.8,0.1-1.9,0.2-3.2h20v-6.2h-18.7
		C319.4,51.9,321.5,49,324.4,46.9z"/>
</g>
</svg>
