<svg height="250" viewBox="0 0 250 250" width="250" xmlns="http://www.w3.org/2000/svg"><path d="m250 125c0 69.035156-55.964844 125-125 125s-125-55.964844-125-125 55.964844-125 125-125 125 55.964844 125 125zm0 0" fill="#3c80f1"/><g fill="#fff" fill-rule="evenodd"><path d="m126.503906 34.683594c-41.433594 0-75.144531 33.710937-75.144531 75.148437 0 3.96875.441406 7.988281 1.265625 12.035157.171875.839843 1.140625 1.203124 1.835938.699218.503906-.367187 1.03125-.710937 1.585937-1.019531 2.535156-1.429687 5.40625-2.183594 8.308594-2.183594h.015625c.722656.003907 1.292968-.628906 1.164062-1.339843-.503906-2.777344-.777344-5.515626-.777344-8.191407 0-34.050781 27.699219-61.746093 61.746094-61.746093s61.746094 27.695312 61.746094 61.746093c0 34.054688-43.578125 77.558594-59.171875 92.921875-1.429687 1.410156-3.722656 1.40625-5.152344 0-4.585937-4.519531-11.597656-11.476562-19.203125-19.910156-.105468-.007812-.214844-.011719-.316406-.023438-5.992188-.589843-11.855469-1.996093-17.410156-4.167968-.34375-.136719-.691406-.273438-1.035156-.414063-1.105469-.457031-2.082032.878907-1.320313 1.800781 10.007813 12.160157 20.921875 23.4375 30.695313 33.058594 3.078124 3.03125 7.121093 4.542969 11.167968 4.542969 4.042969 0 8.089844-1.511719 11.167969-4.546875 27.464844-27.039062 63.976563-67.160156 63.976563-103.261719 0-41.4375-33.710938-75.148437-75.144532-75.148437"/><path d="m157.757812 117.421875c-.035156 1.054687-.082031 2.101563-.171874 3.132813-.34375 4.128906-1.15625 7.980468-2.664063 11.484374-1.5 3.511719-3.726563 6.769532-6.480469 9.988282l.078125.070312c-5.207031 5.796875-11.726562 10.574219-18.984375 13.59375-7.238281 3.03125-15.15625 4.375-22.804687 3.601563-7.386719-.714844-14.460938-3.425781-20.53125-7.789063 1.859375-.070312 3.777343-.332031 5.742187-.882812 1.613282-.457032 3.261719-1.121094 4.835938-2.074219 1.574218-.9375 3.074218-2.179687 4.3125-3.644531 1.253906-1.457032 2.21875-3.128906 2.910156-4.816406.671875-1.691407 1.078125-3.394532 1.292969-5.027344.222656-1.59375.207031-3.367188.203125-4.359375v-49.210938l.003906-.066406c0-.046875 0-.089844.007812-.132813.003907-.089843.015626-.175781.027344-.257812.027344-.171875.066406-.335938.125-.492188.226563-.636718.726563-1.210937 1.332032-1.527343.300781-.167969.625-.265625.96875-.304688.085937-.007812.171874-.019531.261718-.019531l.066406-.003906h14.179688l.347656.015625c.460938.023437.917969.003906 1.386719.054687 3.714844.234375 7.507813 1.324219 11.085937 2.980469 7.179688 3.324219 13.445313 9.046875 17.488282 15.871094 1.007812 1.710937 1.878906 3.488281 2.609375 5.316406.71875 1.832031 1.265625 3.714844 1.675781 5.621094.421875 1.90625.621094 3.847656.695312 5.792969.003907.5.042969.945312.027344 1.492187zm13.390626-3.535156c-.097657-2.714844-.394532-5.429688-.972657-8.085938-.566406-2.65625-1.332031-5.265625-2.320312-7.777343-.996094-2.511719-2.1875-4.929688-3.546875-7.242188-5.496094-9.210938-13.621094-16.640625-23.375-21.195312-4.878906-2.253907-10.199219-3.824219-15.8125-4.199219-.695313-.066407-1.40625-.058594-2.109375-.085938l-.53125-.015625h-14.003907l-.621093.007813c-.492188.011719-.988281.050781-1.480469.109375-1.976562.234375-3.921875.839844-5.675781 1.777344-3.519531 1.867187-6.289063 5.046874-7.640625 8.808593-.339844.941407-.589844 1.910157-.75 2.890625-.074219.496094-.136719.988282-.167969 1.484375-.023437.246094-.03125.492188-.035156.738281l-.007813.597657v49c.003906 1.339843 0 1.90625-.089844 2.628906-.089843.679687-.246093 1.257813-.429687 1.738281-.203125.46875-.417969.839844-.691406 1.152344-.519531.613281-1.324219 1.144531-2.597657 1.511719-1.253906.363281-2.878906.480469-4.582031.347656-1.714843-.140625-3.519531-.515625-5.28125-1.101563-3.523437-1.152343-6.910156-3.105468-9.441406-5.511718l-.011719-.015625c-2.074218-1.972657-5.273437-2.453125-7.898437-.976563-3.226563 1.816406-4.367188 5.902344-2.550781 9.125 4.707031 8.359375 10.972656 16.207032 19.035156 22.191406 4.011718 2.984376 8.449218 5.480469 13.160156 7.316407 4.707031 1.84375 9.679688 3.023437 14.691406 3.519531 10.050782 1.007812 20.175782-.753906 29.304688-4.578125 9.121094-3.832031 17.410156-9.703125 23.804687-17.359375l.082031.070312c3.316407-3.859374 6.46875-8.355468 8.636719-13.445312 2.191407-5.082031 3.28125-10.496094 3.699219-15.65625.113281-1.292969.171875-2.578125.214844-3.855469l.03125-1.902343c.019531-.621094-.023438-1.34375-.035156-2.011719zm0 0"/></g></svg>