<?xml version="1.0" encoding="UTF-8"?>
<svg xmlns="http://www.w3.org/2000/svg" xmlns:xlink="http://www.w3.org/1999/xlink" width="250px" height="250px" viewBox="0 0 250 250" version="1.1">
<g id="surface1">
<path style=" stroke:none;fill-rule:nonzero;fill:rgb(23.529412%,50.196081%,94.509804%);fill-opacity:1;" d="M 250 125 C 250 194.035156 194.035156 250 125 250 C 55.964844 250 0 194.035156 0 125 C 0 55.964844 55.964844 0 125 0 C 194.035156 0 250 55.964844 250 125 Z M 250 125 "/>
<path style=" stroke:none;fill-rule:evenodd;fill:rgb(100%,100%,100%);fill-opacity:1;" d="M 126.503906 34.683594 C 85.070312 34.683594 51.359375 68.394531 51.359375 109.832031 C 51.359375 113.800781 51.800781 117.820312 52.625 121.867188 C 52.796875 122.707031 53.765625 123.070312 54.460938 122.566406 C 54.964844 122.199219 55.492188 121.855469 56.046875 121.546875 C 58.582031 120.117188 61.453125 119.363281 64.355469 119.363281 L 64.371094 119.363281 C 65.09375 119.367188 65.664062 118.734375 65.535156 118.023438 C 65.03125 115.246094 64.757812 112.507812 64.757812 109.832031 C 64.757812 75.78125 92.457031 48.085938 126.503906 48.085938 C 160.550781 48.085938 188.25 75.78125 188.25 109.832031 C 188.25 143.886719 144.671875 187.390625 129.078125 202.753906 C 127.648438 204.164062 125.355469 204.160156 123.925781 202.753906 C 119.339844 198.234375 112.328125 191.277344 104.722656 182.84375 C 104.617188 182.835938 104.507812 182.832031 104.40625 182.820312 C 98.414062 182.230469 92.550781 180.824219 86.996094 178.652344 C 86.652344 178.515625 86.304688 178.378906 85.960938 178.238281 C 84.855469 177.78125 83.878906 179.117188 84.640625 180.039062 C 94.648438 192.199219 105.5625 203.476562 115.335938 213.097656 C 118.414062 216.128906 122.457031 217.640625 126.503906 217.640625 C 130.546875 217.640625 134.59375 216.128906 137.671875 213.09375 C 165.136719 186.054688 201.648438 145.933594 201.648438 109.832031 C 201.648438 68.394531 167.9375 34.683594 126.503906 34.683594 "/>
<path style=" stroke:none;fill-rule:evenodd;fill:rgb(100%,100%,100%);fill-opacity:1;" d="M 157.757812 117.421875 C 157.722656 118.476562 157.675781 119.523438 157.585938 120.554688 C 157.242188 124.683594 156.429688 128.535156 154.921875 132.039062 C 153.421875 135.550781 151.195312 138.808594 148.441406 142.027344 L 148.519531 142.097656 C 143.3125 147.894531 136.792969 152.671875 129.535156 155.691406 C 122.296875 158.722656 114.378906 160.066406 106.730469 159.292969 C 99.34375 158.578125 92.269531 155.867188 86.199219 151.503906 C 88.058594 151.433594 89.976562 151.171875 91.941406 150.621094 C 93.554688 150.164062 95.203125 149.5 96.777344 148.546875 C 98.351562 147.609375 99.851562 146.367188 101.089844 144.902344 C 102.34375 143.445312 103.308594 141.773438 104 140.085938 C 104.671875 138.394531 105.078125 136.691406 105.292969 135.058594 C 105.515625 133.464844 105.5 131.691406 105.496094 130.699219 L 105.496094 81.488281 L 105.5 81.421875 C 105.5 81.375 105.5 81.332031 105.507812 81.289062 C 105.511719 81.199219 105.523438 81.113281 105.535156 81.03125 C 105.5625 80.859375 105.601562 80.695312 105.660156 80.539062 C 105.886719 79.902344 106.386719 79.328125 106.992188 79.011719 C 107.292969 78.84375 107.617188 78.746094 107.960938 78.707031 C 108.046875 78.699219 108.132812 78.6875 108.222656 78.6875 L 108.289062 78.683594 L 122.46875 78.683594 L 122.816406 78.699219 C 123.277344 78.722656 123.734375 78.703125 124.203125 78.753906 C 127.917969 78.988281 131.710938 80.078125 135.289062 81.734375 C 142.46875 85.058594 148.734375 90.78125 152.777344 97.605469 C 153.785156 99.316406 154.65625 101.09375 155.386719 102.921875 C 156.105469 104.753906 156.652344 106.636719 157.0625 108.542969 C 157.484375 110.449219 157.683594 112.390625 157.757812 114.335938 C 157.761719 114.835938 157.800781 115.28125 157.785156 115.828125 Z M 171.148438 113.886719 C 171.050781 111.171875 170.753906 108.457031 170.175781 105.800781 C 169.609375 103.144531 168.84375 100.535156 167.855469 98.023438 C 166.859375 95.511719 165.667969 93.09375 164.308594 90.78125 C 158.8125 81.570312 150.6875 74.140625 140.933594 69.585938 C 136.054688 67.332031 130.734375 65.761719 125.121094 65.386719 C 124.425781 65.320312 123.714844 65.328125 123.011719 65.300781 L 122.480469 65.285156 L 108.476562 65.285156 L 107.855469 65.292969 C 107.363281 65.304688 106.867188 65.34375 106.375 65.402344 C 104.398438 65.636719 102.453125 66.242188 100.699219 67.179688 C 97.179688 69.046875 94.410156 72.226562 93.058594 75.988281 C 92.71875 76.929688 92.46875 77.898438 92.308594 78.878906 C 92.234375 79.375 92.171875 79.867188 92.140625 80.363281 C 92.117188 80.609375 92.109375 80.855469 92.105469 81.101562 L 92.097656 81.699219 L 92.097656 130.699219 C 92.101562 132.039062 92.097656 132.605469 92.007812 133.328125 C 91.917969 134.007812 91.761719 134.585938 91.578125 135.066406 C 91.375 135.535156 91.160156 135.90625 90.886719 136.21875 C 90.367188 136.832031 89.5625 137.363281 88.289062 137.730469 C 87.035156 138.09375 85.410156 138.210938 83.707031 138.078125 C 81.992188 137.9375 80.1875 137.5625 78.425781 136.976562 C 74.902344 135.824219 71.515625 133.871094 68.984375 131.464844 L 68.972656 131.449219 C 66.898438 129.476562 63.699219 128.996094 61.074219 130.472656 C 57.847656 132.289062 56.707031 136.375 58.523438 139.597656 C 63.230469 147.957031 69.496094 155.804688 77.558594 161.789062 C 81.570312 164.773438 86.007812 167.269531 90.71875 169.105469 C 95.425781 170.949219 100.398438 172.128906 105.410156 172.625 C 115.460938 173.632812 125.585938 171.871094 134.714844 168.046875 C 143.835938 164.214844 152.125 158.34375 158.519531 150.6875 L 158.601562 150.757812 C 161.917969 146.898438 165.070312 142.402344 167.238281 137.3125 C 169.429688 132.230469 170.519531 126.816406 170.9375 121.65625 C 171.050781 120.363281 171.109375 119.078125 171.152344 117.800781 L 171.183594 115.898438 C 171.203125 115.277344 171.160156 114.554688 171.148438 113.886719 Z M 171.148438 113.886719 "/>
</g>
</svg>
