<svg width="204" height="204" viewBox="0 0 204 204" fill="none" xmlns="http://www.w3.org/2000/svg">
<path d="M202 102C202 157.228 157.228 202 102 202C46.7715 202 2 157.228 2 102C2 46.7715 46.7715 2 102 2C157.228 2 202 46.7715 202 102Z" fill="white"/>
<path d="M41.7476 79.5736C29.2256 112.782 46.4968 150.303 80.175 162.377C81.4703 163.241 82.7656 164.965 82.7656 166.259V172.297C82.7656 173.16 82.7656 173.591 82.3335 174.022C81.9024 175.747 80.175 176.609 78.4475 175.747C54.2687 167.984 35.7022 149.439 27.9303 125.289C14.9771 84.3183 37.4296 40.7593 78.4475 27.8212C78.8797 27.3906 79.7429 27.3906 80.175 27.3906C81.9024 27.8212 82.7656 29.115 82.7656 30.8404V36.8779C82.7656 39.0349 81.9024 40.3287 80.175 41.1909C62.4727 47.66 48.2242 61.4603 41.7476 79.5736Z" fill="url(#paint0_linear_198_130)"/>
<path d="M122.057 29.5466C122.488 27.8212 124.216 26.959 125.943 27.8212C149.69 35.5841 168.688 54.129 176.46 78.7114C189.414 119.682 166.961 163.241 125.943 176.179C125.511 176.609 124.648 176.609 124.216 176.609C122.488 176.179 121.625 174.885 121.625 173.16V167.122C121.625 164.965 122.488 163.671 124.216 162.809C141.918 156.34 156.166 142.54 162.643 124.426C175.165 91.2179 157.894 53.6974 124.216 41.6225C122.92 40.7593 121.625 39.0349 121.625 37.3095V31.2721C121.625 30.4088 121.625 29.9782 122.057 29.5466Z" fill="url(#paint1_linear_198_130)"/>
<path fill-rule="evenodd" clip-rule="evenodd" d="M102 0C45.667 0 0 45.667 0 102C0 158.333 45.667 204 102 204C158.333 204 204 158.333 204 102C204 45.667 158.333 0 102 0ZM4 102C4 47.8761 47.8761 4 102 4C156.124 4 200 47.8761 200 102C200 156.124 156.124 200 102 200C47.8761 200 4 156.124 4 102Z" fill="url(#paint2_linear_198_130)"/>
<path d="M74.9062 118.219L88.2656 108.891C91.2188 113.25 94.875 115.922 99.2812 117V107.156C97.4062 106.594 95.8594 106.125 94.6875 105.703C93.4688 105.281 92.0156 104.719 90.3281 104.016C86.9062 102.609 85.0781 101.484 82.6406 99.375C79.0781 96.4219 77.3906 92.5781 77.2031 86.8594C77.2031 83.25 78.2344 79.9688 80.3438 77.0625C82.4062 74.1562 85.0781 71.9062 88.4062 70.3125C91.7344 68.7188 95.3438 67.7812 99.2812 67.5V60H105.422V67.5938C114.234 68.5781 121.266 73.1719 126.562 81.375L113.859 90.1875C111.797 86.8125 108.984 84.5625 105.422 83.4375V93C111.281 94.6875 115.219 96.1875 119.297 98.4844C121.312 99.6562 123 100.875 124.266 102.234C126.797 104.953 128.391 108.797 128.391 113.344C128.391 119.203 125.578 124.219 121.172 127.359C116.766 130.547 111.234 132.422 105.422 132.844V140.25H99.2812V132.797C88.5469 131.812 80.0156 126.656 74.9062 118.219ZM108.984 115.781C110.766 114.328 110.672 112.219 109.172 110.953C108.422 110.344 107.156 109.688 105.422 109.078V117.281C106.875 117 108.094 116.484 108.984 115.781ZM99.2812 91.0312V83.0156C96.8906 83.5312 95.2969 84.7969 95.2969 86.8125C95.2969 88.4531 96.6094 89.8594 99.2812 91.0312Z" fill="url(#paint3_linear_198_130)"/>
<defs>
<linearGradient id="paint0_linear_198_130" x1="213" y1="-15.2062" x2="114.648" y2="185.166" gradientUnits="userSpaceOnUse">
<stop stop-color="#FFE47C"/>
<stop offset="0.526042" stop-color="#FF43C3"/>
<stop offset="1" stop-color="#4156E0"/>
</linearGradient>
<linearGradient id="paint1_linear_198_130" x1="213" y1="-15.2062" x2="114.648" y2="185.166" gradientUnits="userSpaceOnUse">
<stop stop-color="#FFE47C"/>
<stop offset="0.526042" stop-color="#FF43C3"/>
<stop offset="1" stop-color="#4156E0"/>
</linearGradient>
<linearGradient id="paint2_linear_198_130" x1="213" y1="-15.2062" x2="114.648" y2="185.166" gradientUnits="userSpaceOnUse">
<stop stop-color="#FFE47C"/>
<stop offset="0.526042" stop-color="#FF43C3"/>
<stop offset="1" stop-color="#4156E0"/>
</linearGradient>
<linearGradient id="paint3_linear_198_130" x1="129.712" y1="55.858" x2="76.2163" y2="121.735" gradientUnits="userSpaceOnUse">
<stop stop-color="#FFE47C"/>
<stop offset="0.526042" stop-color="#FF43C3"/>
<stop offset="1" stop-color="#4156E0"/>
</linearGradient>
</defs>
</svg>
