
<svg xmlns="http://www.w3.org/2000/svg" xmlns:xlink="http://www.w3.org/1999/xlink" width="250px" height="250px" viewBox="0 0 250 250" version="1.1">
<g id="surface1">
<path style=" stroke:none;fill-rule:nonzero;fill:rgb(12.941177%,58.823532%,95.294118%);fill-opacity:1;" d="M 235.007812 122.558594 C 235.007812 183.308594 185.757812 232.554688 125.007812 232.554688 C 64.257812 232.554688 15.011719 183.308594 15.011719 122.558594 C 15.011719 61.808594 64.257812 12.558594 125.007812 12.558594 C 185.757812 12.558594 235.007812 61.808594 235.007812 122.558594 Z M 235.007812 122.558594 "/>
<path style=" stroke:none;fill-rule:nonzero;fill:rgb(100%,100%,100%);fill-opacity:1;" d="M 132.910156 64.894531 L 86.785156 64.894531 C 83.367188 64.910156 80.132812 66.449219 77.964844 69.09375 C 77.726562 69.375 77.503906 69.667969 77.292969 69.972656 C 74.984375 73.398438 74.683594 77.792969 76.503906 81.5 C 78.328125 85.207031 81.992188 87.652344 86.113281 87.914062 L 86.238281 88.054688 L 132.699219 88.054688 C 151.730469 88.113281 167.144531 103.527344 167.203125 122.558594 C 167.105469 141.558594 151.703125 156.929688 132.699219 156.988281 L 103.117188 156.988281 C 100.503906 156.960938 98.386719 154.859375 98.339844 152.242188 L 98.339844 156.988281 L 98.339844 134.058594 L 133.492188 134.058594 C 137.71875 134.222656 141.695312 132.0625 143.859375 128.429688 C 146.019531 124.792969 146.019531 120.265625 143.859375 116.632812 C 141.695312 113 137.71875 110.839844 133.492188 111.003906 L 86.433594 111.003906 C 80.246094 111.011719 75.234375 116.019531 75.214844 122.203125 L 75.214844 169 C 75.234375 175.1875 80.246094 180.199219 86.433594 180.21875 L 132.910156 180.21875 C 164.691406 180.082031 190.40625 154.335938 190.503906 122.558594 C 190.40625 90.777344 164.691406 65.03125 132.910156 64.894531 Z M 132.910156 64.894531 "/>
<path style=" stroke:none;fill-rule:nonzero;fill:rgb(100%,100%,100%);fill-opacity:1;" d="M 98.320312 138.839844 C 98.351562 136.195312 100.496094 134.066406 103.136719 134.058594 L 98.320312 134.058594 Z M 98.320312 138.839844 "/>
</g>
</svg>
