<svg height="250" viewBox="0 0 250 250" width="250" xmlns="http://www.w3.org/2000/svg"><path d="m235.007812 122.558594c0 60.75-49.25 109.996094-110 109.996094s-109.996093-49.246094-109.996093-109.996094 49.246093-110 109.996093-110 110 49.25 110 110zm0 0" fill="#2196f3"/><g fill="#fff"><path d="m132.910156 64.894531h-46.125c-3.417968.015625-6.652344 1.554688-8.820312 4.199219-.238282.28125-.460938.574219-.671875.878906-2.308594 3.425782-2.609375 7.820313-.789063 11.527344 1.824219 3.707031 5.488282 6.152344 9.609375 6.414062l.125.140626h46.460938c19.03125.058593 34.445312 15.472656 34.503906 34.503906-.097656 19-15.5 34.371094-34.503906 34.429687h-29.582031c-2.613282-.027343-4.730469-2.128906-4.777344-4.746093v4.746093-22.929687h35.152344c4.226562.164062 8.203124-1.996094 10.367187-5.628906 2.160156-3.636719 2.160156-8.164063 0-11.796876-2.164063-3.632812-6.140625-5.792968-10.367187-5.628906h-47.058594c-6.1875.007813-11.199219 5.015625-11.21875 11.199219v46.796875c.019531 6.1875 5.03125 11.199219 11.21875 11.21875h46.476562c31.78125-.136719 57.496094-25.882812 57.59375-57.660156-.097656-31.78125-25.8125-57.527344-57.59375-57.664063zm0 0"/><path d="m98.320312 138.839844c.03125-2.644532 2.175782-4.773438 4.816407-4.78125h-4.816407zm0 0"/></g></svg>