<svg height="250" viewBox="0 0 250 250" width="250" xmlns="http://www.w3.org/2000/svg"><g fill="#00e5ae"><path d="m136.605469 236.605469h-33.035157c-1.972656 0-3.570312-1.597657-3.570312-3.570313 0-1.785156 1.785156-2.679687 3.570312-2.679687h33.035157c58.1875 0 105.359375-47.167969 105.359375-105.355469s-47.171875-105.355469-105.359375-105.355469h-131.25c-1.476563 0-2.675781-1.199219-2.675781-2.679687 0-1.785156.890624-3.570313 2.675781-3.570313h131.25c29.519531-.003906 57.816406 11.785157 78.605469 32.742188 20.789062 20.957031 32.347656 49.34375 32.109374 78.863281.238282 29.519531-11.320312 57.90625-32.109374 78.863281-20.789063 20.957031-49.085938 32.746094-78.605469 32.742188zm0 0"/><path d="m136.605469 208.929688h-66.960938c-1.621093-.417969-2.734375-1.902344-2.679687-3.574219 0-1.476563 1.199218-2.675781 2.679687-2.675781h66.960938c42.902343 0 77.679687-34.777344 77.679687-77.679688s-34.777344-77.679688-77.679687-77.679688h-89.285157c-1.476562 0-2.675781-1.199218-2.675781-2.675781-.054687-1.671875 1.058594-3.15625 2.675781-3.574219h89.285157c46.355469 0 83.929687 37.578126 83.929687 83.929688s-37.574218 83.929688-83.929687 83.929688zm0 0"/><path d="m136.605469 181.25h-37.5c-1.617188-.417969-2.730469-1.902344-2.675781-3.570312 0-1.480469 1.199218-2.679688 2.675781-2.679688h37.5c27.617187 0 50-22.386719 50-50s-22.382813-50-50-50h-37.5c-1.476563 0-2.675781-1.199219-2.675781-2.679688-.054688-1.667968 1.058593-3.152343 2.675781-3.570312h37.5c31.066406 0 56.25 25.183594 56.25 56.25s-25.183594 56.25-56.25 56.25zm0 0"/><path d="m90.179688 84.820312c-6.90625 0-12.5-5.59375-12.5-12.5 0-6.902343 5.59375-12.5 12.5-12.5 6.902343 0 12.5 5.597657 12.5 12.5 0 6.90625-5.597657 12.5-12.5 12.5zm0-19.640624c-3.59375.453124-6.28125 3.519531-6.25 7.140624 0 3.453126 2.796874 6.25 6.25 6.25 3.449218 0 6.25-2.796874 6.25-6.25.027343-3.621093-2.660157-6.6875-6.25-7.140624zm0 0"/><path d="m90.179688 190.179688c-6.90625 0-12.5-5.597657-12.5-12.5 0-6.90625 5.59375-12.5 12.5-12.5 6.902343 0 12.5 5.59375 12.5 12.5 0 6.902343-5.597657 12.5-12.5 12.5zm0-18.75c-3.453126 0-6.25 2.796874-6.25 6.25-.03125 3.621093 2.65625 6.6875 6.25 7.140624 3.589843-.453124 6.277343-3.519531 6.25-7.140624 0-3.453126-2.800782-6.25-6.25-6.25zm0 0"/></g></svg>