
<svg xmlns="http://www.w3.org/2000/svg" xmlns:xlink="http://www.w3.org/1999/xlink" width="250px" height="250px" viewBox="0 0 250 250" version="1.1">
<g id="surface1">
<path style=" stroke:none;fill-rule:nonzero;fill:rgb(0%,89.803922%,68.235296%);fill-opacity:1;" d="M 136.605469 236.605469 L 103.570312 236.605469 C 101.597656 236.605469 100 235.007812 100 233.035156 C 100 231.25 101.785156 230.355469 103.570312 230.355469 L 136.605469 230.355469 C 194.792969 230.355469 241.964844 183.1875 241.964844 125 C 241.964844 66.8125 194.792969 19.644531 136.605469 19.644531 L 5.355469 19.644531 C 3.878906 19.644531 2.679688 18.445312 2.679688 16.964844 C 2.679688 15.179688 3.570312 13.394531 5.355469 13.394531 L 136.605469 13.394531 C 166.125 13.390625 194.421875 25.179688 215.210938 46.136719 C 236 67.09375 247.558594 95.480469 247.320312 125 C 247.558594 154.519531 236 182.90625 215.210938 203.863281 C 194.421875 224.820312 166.125 236.609375 136.605469 236.605469 Z M 136.605469 236.605469 "/>
<path style=" stroke:none;fill-rule:nonzero;fill:rgb(0%,89.803922%,68.235296%);fill-opacity:1;" d="M 136.605469 208.929688 L 69.644531 208.929688 C 68.023438 208.511719 66.910156 207.027344 66.964844 205.355469 C 66.964844 203.878906 68.164062 202.679688 69.644531 202.679688 L 136.605469 202.679688 C 179.507812 202.679688 214.285156 167.902344 214.285156 125 C 214.285156 82.097656 179.507812 47.320312 136.605469 47.320312 L 47.320312 47.320312 C 45.84375 47.320312 44.644531 46.121094 44.644531 44.644531 C 44.589844 42.972656 45.703125 41.488281 47.320312 41.070312 L 136.605469 41.070312 C 182.960938 41.070312 220.535156 78.648438 220.535156 125 C 220.535156 171.351562 182.960938 208.929688 136.605469 208.929688 Z M 136.605469 208.929688 "/>
<path style=" stroke:none;fill-rule:nonzero;fill:rgb(0%,89.803922%,68.235296%);fill-opacity:1;" d="M 136.605469 181.25 L 99.105469 181.25 C 97.488281 180.832031 96.375 179.347656 96.429688 177.679688 C 96.429688 176.199219 97.628906 175 99.105469 175 L 136.605469 175 C 164.222656 175 186.605469 152.613281 186.605469 125 C 186.605469 97.386719 164.222656 75 136.605469 75 L 99.105469 75 C 97.628906 75 96.429688 73.800781 96.429688 72.320312 C 96.375 70.652344 97.488281 69.167969 99.105469 68.75 L 136.605469 68.75 C 167.671875 68.75 192.855469 93.933594 192.855469 125 C 192.855469 156.066406 167.671875 181.25 136.605469 181.25 Z M 136.605469 181.25 "/>
<path style=" stroke:none;fill-rule:nonzero;fill:rgb(0%,89.803922%,68.235296%);fill-opacity:1;" d="M 90.179688 84.820312 C 83.273438 84.820312 77.679688 79.226562 77.679688 72.320312 C 77.679688 65.417969 83.273438 59.820312 90.179688 59.820312 C 97.082031 59.820312 102.679688 65.417969 102.679688 72.320312 C 102.679688 79.226562 97.082031 84.820312 90.179688 84.820312 Z M 90.179688 65.179688 C 86.585938 65.632812 83.898438 68.699219 83.929688 72.320312 C 83.929688 75.773438 86.726562 78.570312 90.179688 78.570312 C 93.628906 78.570312 96.429688 75.773438 96.429688 72.320312 C 96.457031 68.699219 93.769531 65.632812 90.179688 65.179688 Z M 90.179688 65.179688 "/>
<path style=" stroke:none;fill-rule:nonzero;fill:rgb(0%,89.803922%,68.235296%);fill-opacity:1;" d="M 90.179688 190.179688 C 83.273438 190.179688 77.679688 184.582031 77.679688 177.679688 C 77.679688 170.773438 83.273438 165.179688 90.179688 165.179688 C 97.082031 165.179688 102.679688 170.773438 102.679688 177.679688 C 102.679688 184.582031 97.082031 190.179688 90.179688 190.179688 Z M 90.179688 171.429688 C 86.726562 171.429688 83.929688 174.226562 83.929688 177.679688 C 83.898438 181.300781 86.585938 184.367188 90.179688 184.820312 C 93.769531 184.367188 96.457031 181.300781 96.429688 177.679688 C 96.429688 174.226562 93.628906 171.429688 90.179688 171.429688 Z M 90.179688 171.429688 "/>
</g>
</svg>
