
<svg xmlns="http://www.w3.org/2000/svg" xmlns:xlink="http://www.w3.org/1999/xlink" width="250px" height="250px" viewBox="0 0 250 250" version="1.1">
<g id="surface1">
<path style=" stroke:none;fill-rule:nonzero;fill:rgb(100%,100%,100%);fill-opacity:1;" d="M 10.117188 185.148438 C -15.292969 124.390625 10.042969 63.238281 61.023438 19.542969 C 126.164062 -36.273438 215.640625 41.511719 238.003906 78.054688 C 262.28125 117.71875 250.464844 201.878906 191.402344 234.636719 C 132.335938 267.398438 35.71875 246.265625 10.117188 185.148438 Z M 10.117188 185.148438 "/>
<path style=" stroke:none;fill-rule:nonzero;fill:rgb(17.254902%,22.352941%,56.078434%);fill-opacity:1;" d="M 26.621094 176.789062 C 5.023438 125.007812 26.558594 72.878906 70.007812 35.644531 C 125.527344 -11.933594 201.78125 54.359375 220.839844 85.503906 C 241.535156 119.308594 231.460938 191.101562 181.136719 218.96875 C 130.8125 246.832031 48.421875 228.867188 26.621094 176.789062 Z M 26.621094 176.789062 "/>
<path style=" stroke:none;fill-rule:nonzero;fill:rgb(1.568628%,100%,80.000001%);fill-opacity:1;" d="M 136.085938 59.585938 C 136.238281 62.917969 130.734375 61.5 124.753906 63.59375 C 118.09375 65.9375 113.242188 63.902344 113.101562 60.574219 C 112.960938 57.246094 117.523438 49.6875 123.863281 49.414062 C 130.203125 49.144531 135.917969 56.257812 136.085938 59.585938 Z M 136.085938 59.585938 "/>
<path style=" stroke:none;fill-rule:nonzero;fill:rgb(1.568628%,100%,80.000001%);fill-opacity:1;" d="M 228.828125 106.550781 C 224.6875 103.628906 220.433594 101.839844 217.394531 101.617188 C 209.289062 101.1875 203.214844 111.800781 207.347656 127.59375 C 211.066406 141.773438 206.355469 154.027344 214.460938 154.460938 C 218.003906 154.65625 223.558594 152.574219 228.742188 148.949219 C 231.570312 134.953125 231.601562 120.558594 228.828125 106.550781 Z M 228.828125 106.550781 "/>
<path style=" stroke:none;fill-rule:nonzero;fill:rgb(48.235294%,96.470588%,97.254902%);fill-opacity:1;" d="M 152.664062 27.988281 C 149.46875 30.546875 147.605469 34.347656 147.582031 38.367188 L 147.582031 90.632812 C 124.46875 77.566406 95 82.664062 77.964844 102.679688 C 60.925781 122.695312 61.332031 151.742188 78.921875 171.300781 C 96.511719 190.859375 126.109375 195.183594 148.851562 181.511719 C 151.589844 187.308594 158.121094 190.472656 164.542969 189.109375 C 170.960938 187.75 175.539062 182.230469 175.53125 175.851562 L 175.53125 40.820312 C 168.320312 35.890625 160.664062 31.597656 152.664062 27.988281 Z M 142.769531 144.066406 C 139.71875 160.664062 123.710938 163.609375 110.394531 156.210938 C 81.453125 140.171875 105.820312 98.792969 134.8125 114.835938 C 143.378906 119.59375 144.507812 134.597656 142.769531 144.066406 Z M 142.769531 144.066406 "/>
<path style=" stroke:none;fill-rule:nonzero;fill:rgb(1.568628%,100%,80.000001%);fill-opacity:1;" d="M 111.019531 231.136719 C 108.132812 221.050781 98.3125 209.695312 81.046875 201.039062 C 54.976562 187.960938 42.566406 165.472656 31.5 176.382812 C 30.226562 177.660156 29.1875 179.140625 28.425781 180.757812 C 42.679688 209.597656 76.003906 227.105469 111.019531 231.136719 Z M 111.019531 231.136719 "/>
</g>
</svg>
