
<svg xmlns="http://www.w3.org/2000/svg" xmlns:xlink="http://www.w3.org/1999/xlink" width="250px" height="250px" viewBox="0 0 250 250" version="1.1">
<g id="surface1">
<path style=" stroke:none;fill-rule:nonzero;fill:rgb(40.392157%,12.54902%,87.843138%);fill-opacity:1;" d="M 0 125 L 0 250 L 250 250 L 250 0 L 0 0 Z M 114.5 57.199219 L 114.5 64.351562 L 120.148438 64.648438 C 125.101562 64.949219 133.148438 66 136.398438 66.851562 L 137.5 67.101562 L 137.5 50 L 163.5 50 L 163.5 78.75 L 168.148438 83.550781 C 175.199219 90.898438 179.699219 99.199219 182.050781 109.449219 C 183.5 115.648438 183.898438 129.550781 182.800781 136.199219 C 180.851562 147.949219 175.601562 158.199219 167.25 166.5 L 163.5 170.199219 L 163.5 200.5 L 137.5 200.5 L 137.5 183.351562 L 135.898438 183.75 C 130.050781 185 126 185.550781 120.648438 185.851562 L 114.5 186.148438 L 114.5 200.5 L 101.648438 200.398438 L 88.75 200.25 L 88.601562 193.101562 L 88.449219 186 L 71 186 L 71.101562 125.199219 L 71.25 64.398438 L 79.898438 64.5 L 88.5 64.550781 L 88.5 57.351562 C 88.5 53.398438 88.601562 50.050781 88.699219 49.949219 C 88.800781 49.851562 94.648438 49.800781 101.699219 49.898438 L 114.5 50.050781 Z M 114.5 57.199219 "/>
<path style=" stroke:none;fill-rule:nonzero;fill:rgb(40.392157%,12.54902%,87.843138%);fill-opacity:1;" d="M 98.25 89.550781 C 98.101562 89.949219 98.050781 106.199219 98.101562 125.75 L 98.25 161.25 L 109 161.199219 C 124.050781 161.050781 131.300781 159.75 139.199219 155.601562 C 146.050781 152 152 144.351562 154.25 136.25 C 155.449219 131.75 155.800781 120.648438 154.800781 116.101562 C 152.050781 103.101562 142.050781 94 126.601562 90.449219 C 120.851562 89.101562 98.699219 88.398438 98.25 89.550781 Z M 98.25 89.550781 "/>
<path style=" stroke:none;fill-rule:nonzero;fill:rgb(100%,100%,100%);fill-opacity:1;" d="M 87.5 56.25 L 87.5 63.5 L 70.5 63.5 L 70.5 187 L 87.5 187 L 87.5 201.5 L 115.5 201.5 L 115.5 187.148438 L 121.398438 186.800781 C 124.601562 186.648438 129.351562 186.050781 131.898438 185.550781 L 136.5 184.648438 L 136.5 201.5 L 164.5 201.5 L 164.5 170.851562 L 168.648438 166.550781 C 179.601562 155.148438 184.5 142.449219 184.5 125.351562 C 184.5 106.550781 178.949219 92.101562 167.601562 81.351562 L 164.5 78.449219 L 164.5 49 L 136.5 49 L 136.5 65.800781 L 131.398438 64.898438 C 128.550781 64.449219 123.851562 63.898438 120.898438 63.699219 L 115.5 63.351562 L 115.5 49 L 87.5 49 Z M 125.699219 91.199219 C 137.449219 93.898438 145.398438 99.101562 150.148438 107.050781 C 153 111.851562 154.101562 115.851562 154.398438 122.398438 C 154.800781 132.25 152.898438 139.800781 148.300781 146.25 C 141.148438 156.25 128.648438 160.5 106.398438 160.5 L 99 160.5 L 99 89.851562 L 110.648438 90.148438 C 118.550781 90.351562 123.351562 90.699219 125.699219 91.199219 Z M 125.699219 91.199219 "/>
</g>
</svg>
