<?xml version="1.0" encoding="utf-8"?>
<!-- Generator: Adobe Illustrator 17.0.0, SVG Export Plug-In . SVG Version: 6.00 Build 0)  -->
<!DOCTYPE svg PUBLIC "-//W3C//DTD SVG 1.0//EN" "http://www.w3.org/TR/2001/REC-SVG-20010904/DTD/svg10.dtd">
<svg version="1.0" id="Layer_1" xmlns="http://www.w3.org/2000/svg" xmlns:xlink="http://www.w3.org/1999/xlink" x="0px" y="0px"
	 width="424.479px" height="443.978px" viewBox="0 0 424.479 443.978" enable-background="new 0 0 424.479 443.978"
	 xml:space="preserve">
<g id="Layer_2">
</g>
<g>
	<path opacity="0.75" fill="#A5A1C5" d="M351.424,226.076c-24.564-28.799-41.505-43.623-16.941-100.798
		c20.198-47.012-62.681-21.176-67.763-52.517c-5.082-31.341-1.674-59.215-36.423-32.188c-34.305,26.682-69.919,5.609-24.564-14.4
		c43.199-19.058-32.188-24.988-38.117,17.364c-5.929,42.352-6.776,49.976-47.435,68.611c-40.658,18.635-6.776,20.753-19.482,45.317
		c-12.706,24.564-32.188-24.564-27.105,23.717c5.082,48.282,29.646,60.564-5.082,106.728c-39.157,52.05,42.106,69.105,42.106,69.105
		l167.114-14.894c67.764,51.67,87.246,18.635,66.493-28.799C331.426,284.068,375.988,254.875,351.424,226.076z"/>
	<path opacity="0.4" fill="#D5D4EB" d="M191.968,16.009c0,0-24.564,9.529-24.776,36.635
		C178.839,27.02,186.462,20.667,191.968,16.009z"/>
	<path opacity="0.4" fill="#D5D4EB" d="M192.18,54.337c0,0,13.764,4.447,29.435-6.776c15.67-11.223,33.882-26.682,38.117-8.894
		c-14.823-7.623-24.988,6.565-34.094,16.094C216.532,64.29,202.768,70.22,192.18,54.337z"/>
	<path opacity="0.25" fill="#D5D4EB" d="M82.805,270.334c-12.706,16.2-37.164,54.317-3.494,64.799
		C55.488,301.462,82.805,270.334,82.805,270.334z"/>
	<path opacity="0.3" fill="#A5A1C5" d="M333.212,265.04c38.54-24.988,43.199-7.623,31.341,13.553
		c-11.859,21.176-10.588,22.87,1.271,36.846c11.859,13.976-21.176,12.282-14.823-14.823c6.353-27.105-19.058-25.835-24.564-5.929
		L333.212,265.04z"/>
	<path opacity="0.3" fill="#A5A1C5" d="M138.816,123.583c-31.764,17.364-56.328,19.482-54.211,3.812
		c2.118-15.67-38.964,60.987,32.611,40.235S138.816,123.583,138.816,123.583z"/>
	<path opacity="0.75" fill="#8988B0" d="M105.993,218.24c-41.929-29.223-86.398,104.822-8.894,57.811
		c-1.906-7.623-1.906-7.623-1.906-7.623c-57.366,36.506-16.479-101.818,19.059-25.411L105.993,218.24z"/>
	<path opacity="0.25" fill="#D5D4EB" d="M92.97,270.81c0,0-17.47,13.817-25.729,0.159c3.494,18.9,17.947,10.006,25.888,2.7
		L92.97,270.81z"/>
	<path opacity="0.75" fill="#8988B0" d="M308.648,205.535c101.626,57.238,33.806-167.937-13.341-33.67
		c6.988,9.529,6.988,9.529,6.988,9.529c6.336-87.431,77.659,4.833,45.74,15.882c-16.517,5.718-33.67-20.329-52.093,6.353
		L308.648,205.535z"/>
	<path opacity="0.4" fill="#D5D4EB" d="M307.06,148.677c0,0,25.094-42.246,45.105,2.223
		C322.624,121.677,307.06,148.677,307.06,148.677z"/>
	<path opacity="0.25" fill="#D5D4EB" d="M357.565,187.112c0,0,1.271,25.729-31.447,9.847
		C354.071,215.382,357.883,204.582,357.565,187.112z"/>
	<path opacity="0.75" fill="#8988B0" d="M191.121,105.16c1.906-57.811-74.328-72.422-80.681-17.153
		c-6.353,55.27,50.823,14.612,64.799,45.105c14.611-12.706,14.611-12.706,14.611-12.706s-21.147-16.762-47.646-10.8
		c-38.117,8.576-37.303-39.161-3.812-47.011c20.329-4.765,47.646,6.988,43.199,35.576L191.121,105.16z"/>
	<path opacity="0.4" fill="#D5D4EB" d="M118.381,69.267c0,0,16.835-24.776,48.281-8.576
		C132.357,50.208,118.381,69.267,118.381,69.267z"/>
	<path opacity="0.25" fill="#D5D4EB" d="M117.11,106.748c16.835,15.564,38.752-6.035,58.446,8.894
		c-18.106-3.494-33.67,1.906-45.105,1.271C119.016,116.278,117.11,106.748,117.11,106.748z"/>
	<path fill="#908F8F" d="M212.833,63.043c-26.639,0-58.312,27.232-84.725,72.846c-26.146,45.152-41.756,99.03-41.756,144.124
		c0,36.265,9.524,65.345,28.308,86.432c21.636,24.29,54.666,36.605,98.174,36.605s76.538-12.316,98.174-36.605
		c18.784-21.087,28.307-50.167,28.307-86.432c0-45.094-15.609-98.972-41.756-144.124C271.145,90.275,239.472,63.043,212.833,63.043z
		"/>
	<radialGradient id="SVGID_1_" cx="194.0341" cy="229.7293" r="268.1072" gradientUnits="userSpaceOnUse">
		<stop  offset="0" style="stop-color:#383938"/>
		<stop  offset="0.1085" style="stop-color:#333333"/>
		<stop  offset="0.4926" style="stop-color:#222222"/>
		<stop  offset="0.8034" style="stop-color:#141414"/>
		<stop  offset="1" style="stop-color:#0E0E0E"/>
	</radialGradient>
	<path fill="url(#SVGID_1_)" d="M212.833,70.415c-88.941,0-223.224,331.161,0,331.161S301.773,70.415,212.833,70.415z"/>
	<path fill="#EAA425" d="M166.286,234.77c5.707,6.965,15.427,11.552,26.463,11.552c2.075,0,4.104-0.162,6.067-0.471
		c1.686-0.266,2.982-1.44,3.422-3.103c0.44-1.664-0.101-3.335-1.429-4.413c-5.459-4.431-8.953-11.226-8.953-18.845
		c0-13.352,10.728-24.177,23.962-24.177c10.572,0,19.537,9.222,22.72,17.89l8.494-3.645c1.013-0.436,2.085-0.333,3,0.286
		c0.914,0.62,1.415,1.581,1.401,2.693c-0.043,3.283-1.39,6.248-3.542,8.391c0.648,0.1,1.254,0.384,1.75,0.887
		c0.798,0.813,1.098,1.898,0.827,3.01c-0.745,3.059-5.246,5.412-10.688,5.412c-0.957,0-1.878-0.079-2.761-0.216
		c-0.773,1.124-1.653,2.091-2.573,3.053c-0.514,0.537-0.705,1.241-0.534,1.968c0.17,0.727,0.658,1.269,1.357,1.517
		c22.761,8.036,31.208,51.874-24.946,51.874c-21.633,0-50.724-9.865-50.724-36.2C159.597,245.51,162.129,239.382,166.286,234.77z
		 M227.784,211.523c1.762,2.471,4.124,3.798,5.275,2.962c1.151-0.835,0.657-3.517-1.106-5.988c-1.762-2.472-4.123-3.798-5.275-2.962
		C225.528,206.368,226.022,209.051,227.784,211.523z"/>
	<g opacity="0.5">
		<path opacity="0.1715" fill="#ABC1D6" d="M207.137,293.099c-0.026-3.101-4.648-3.175-4.611-0.082
			C202.564,296.12,207.163,296.204,207.137,293.099z"/>
		<path opacity="0.1" fill="#ABC1D6" d="M284.206,307.429c-0.118,2.508,3.658,2.178,3.785-0.314
			C288.116,304.627,284.321,304.93,284.206,307.429z"/>
		<path opacity="0.1" fill="#ABC1D6" d="M211.91,278.828c-0.009-1.952-2.934-1.977-2.921-0.027
			C209.001,280.754,211.919,280.781,211.91,278.828z"/>
		<path opacity="0.5819" fill="#ABC1D6" d="M299.844,306.914c0.244-4.032-6.003-3.46-6.221,0.609
			C293.398,311.611,299.592,310.956,299.844,306.914z"/>
		<path opacity="0.3" fill="#ABC1D6" d="M204.624,207.211c-0.014,4.899,7.41,4.874,7.417-0.03
			C212.049,202.267,204.641,202.312,204.624,207.211z"/>
		<path opacity="0.5211" fill="#ABC1D6" d="M226.199,301.997c0.01-3.125-4.62-3.115-4.616,0.008
			C221.586,305.138,226.19,305.126,226.199,301.997z"/>
		<path opacity="0.7611" fill="#ABC1D6" d="M228.117,287.53c0.007-1.915-2.85-1.902-2.852,0.011
			C225.263,289.459,228.111,289.446,228.117,287.53z"/>
		<path opacity="0.8098" fill="#ABC1D6" d="M218.681,349.728c-0.012-4.199-6-4.272-5.95-0.082
			C212.782,353.863,218.694,353.944,218.681,349.728z"/>
		<path opacity="0.1" fill="#ABC1D6" d="M172,377.685c-0.417-5.692-8.439-6.838-7.931-1.214
			C164.591,382.153,172.427,383.424,172,377.685z"/>
		<path opacity="0.1" fill="#ABC1D6" d="M290.791,248.941c0.121-9.638-15.025-9.499-15.11,0.314
			C275.565,259.1,290.629,258.592,290.791,248.941z"/>
		<path opacity="0.3" fill="#ABC1D6" d="M224.713,188.383c-0.007-5.132-7.69-5.119-7.702,0.006
			C217,193.51,224.719,193.5,224.713,188.383z"/>
		<path opacity="0.5036" fill="#ABC1D6" d="M242.603,119.469c0.061,3.268,4.801,3.444,4.719,0.186
			C247.239,116.383,242.54,116.192,242.603,119.469z"/>
		<path opacity="0.2" fill="#ABC1D6" d="M185.145,107.683c0.218-5.425-7.468-4.741-7.75,0.639
			C177.12,113.672,184.933,113.067,185.145,107.683z"/>
		<path opacity="0.2" fill="#ABC1D6" d="M211.246,111.122c0.056-5.462-7.648-5.22-7.766,0.222
			C203.366,116.758,211.192,116.544,211.246,111.122z"/>
		<path opacity="0.1148" fill="#ABC1D6" d="M130.729,172.516c0.245-4.938-7.553-4.2-7.827,0.652
			C122.645,178.01,130.498,177.433,130.729,172.516z"/>
		<path opacity="0.5202" fill="#ABC1D6" d="M256.636,187.913c0.053,4.89,7.479,5.02,7.411,0.163
			C263.972,183.205,256.579,183.018,256.636,187.913z"/>
		<path opacity="0.4599" fill="#ABC1D6" d="M264.307,131.736c-0.106-2.815-4.233-3.075-4.141-0.253
			C260.256,134.3,264.411,134.54,264.307,131.736z"/>
		<path opacity="0.3094" fill="#ABC1D6" d="M331.217,243.004c-2.58,0.143-5.139,1.799-5.201,4.95
			c-0.093,3.858,3.616,5.193,6.66,4.316C332.248,249.187,331.761,246.097,331.217,243.004z"/>
		<path opacity="0.6484" fill="#ABC1D6" d="M221.8,394.326c0.006,2.721,3.594,2.703,3.61-0.014
			C225.427,391.603,221.795,391.62,221.8,394.326z"/>
		<path opacity="0.1" fill="#ABC1D6" d="M210.069,325.652c-0.032-3.134-4.599-3.231-4.55-0.105
			C205.568,328.686,210.101,328.792,210.069,325.652z"/>
		<path opacity="0.3576" fill="#ABC1D6" d="M139.065,312.866c0.393,5.297,8.503,6.3,8.162,0.931
			C146.9,308.451,138.688,307.603,139.065,312.866z"/>
		<path opacity="0.3948" fill="#ABC1D6" d="M217.306,384.886c0.017,2.035,2.748,2.063,2.742,0.029
			C220.043,382.887,217.289,382.86,217.306,384.886z"/>
		<path opacity="0.1" fill="#ABC1D6" d="M114.196,351.603c-0.937-6.286-7.756-10.049-11.855-9.313
			c2.361,5.161,5.112,10.082,8.277,14.725C113.058,356.895,114.761,355.263,114.196,351.603z"/>
		<path opacity="0.1" fill="#ABC1D6" d="M250.799,393.855c0.2-4.123-5.391-3.678-5.539,0.457
			C245.108,398.479,250.596,398.003,250.799,393.855z"/>
		<path opacity="0.2674" fill="#ABC1D6" d="M229.022,380.171c0.025-2.389-3.244-2.342-3.254,0.046
			C225.757,382.616,228.996,382.567,229.022,380.171z"/>
		<path opacity="0.6806" fill="#ABC1D6" d="M216.072,294.714c-0.006-1.778-2.646-1.796-2.636-0.021
			C213.446,296.472,216.079,296.492,216.072,294.714z"/>
		<path opacity="0.5938" fill="#ABC1D6" d="M130.835,281.601c0.232,4.458,7.299,5.068,7.091,0.554
			C137.73,277.649,130.616,277.162,130.835,281.601z"/>
		<path opacity="0.1" fill="#ABC1D6" d="M158.038,285.136c-0.137-4.1-6.456-4.448-6.301-0.389
			C151.901,288.821,158.181,289.243,158.038,285.136z"/>
		<path opacity="0.1" fill="#ABC1D6" d="M235.463,386.439c0.06-2.837-3.797-2.71-3.834,0.127
			C231.59,389.42,235.402,389.287,235.463,386.439z"/>
		<path opacity="0.5066" fill="#ABC1D6" d="M295.898,346.733c0.435-4.836-6.798-3.821-7.176,1.068
			C288.333,352.728,295.452,351.596,295.898,346.733z"/>
		<path opacity="0.7164" fill="#ABC1D6" d="M272.289,317.198c0.124-2.937-4.264-2.642-4.373,0.305
			C267.805,320.462,272.163,320.14,272.289,317.198z"/>
		<path opacity="0.1" fill="#ABC1D6" d="M246.609,384.396c0.143-3.734-4.977-3.418-5.081,0.323
			C241.422,388.486,246.463,388.148,246.609,384.396z"/>
		<path opacity="0.1" fill="#ABC1D6" d="M308.923,356.223c-0.388,3.261,2.165,4.008,4.566,3.012
			c1.361-1.878,2.652-3.803,3.872-5.775C317.077,349.062,309.54,350.916,308.923,356.223z"/>
		<path opacity="0.1" fill="#ABC1D6" d="M323.627,256.909c0.173-5.847-9.408-5.51-9.558,0.448
			C313.897,263.335,323.431,262.763,323.627,256.909z"/>
		<path opacity="0.9876" fill="#ABC1D6" d="M301.689,257.095c0.127-5.78-9.045-5.534-9.152,0.324
			C292.415,263.295,301.545,262.881,301.689,257.095z"/>
		<path opacity="0.1572" fill="#ABC1D6" d="M256.184,299.553c-0.046,2.085,3.053,1.954,3.104-0.124
			C259.339,297.351,256.229,297.474,256.184,299.553z"/>
		<path opacity="0.568" fill="#ABC1D6" d="M130.077,248.197c0.06,2.902,4.73,3.069,4.675,0.143
			C134.701,245.413,130.023,245.3,130.077,248.197z"/>
		<path opacity="0.39" fill="#ABC1D6" d="M123.216,246.355c-0.052-2.815-4.63-2.929-4.574-0.146
			C118.702,248.998,123.273,249.169,123.216,246.355z"/>
		<path opacity="0.1785" fill="#ABC1D6" d="M208.438,313.351c-0.035-3.549-5.261-3.656-5.207-0.117
			C203.286,316.787,208.474,316.908,208.438,313.351z"/>
		<path opacity="0.2175" fill="#ABC1D6" d="M227.877,277.879c0.005-1.896-2.835-1.885-2.836,0.009
			C225.039,279.786,227.872,279.775,227.877,277.879z"/>
		<path opacity="0.4723" fill="#ABC1D6" d="M254.994,232.094c0.005-4.535-6.91-4.532-6.914,0.016
			C248.073,236.666,254.984,236.626,254.994,232.094z"/>
		<path opacity="0.429" fill="#ABC1D6" d="M258.529,233.212c-0.021,7.61,11.566,7.48,11.596-0.048
			C270.139,225.633,258.538,225.614,258.529,233.212z"/>
		<path opacity="0.1" fill="#ABC1D6" d="M232.959,220.809c0.002,5.902,8.931,5.892,8.927,0.012
			C241.878,214.933,232.956,214.911,232.959,220.809z"/>
		<path opacity="0.1" fill="#ABC1D6" d="M161.232,191.319c0.084-4.159-6.322-3.896-6.418,0.223
			C154.727,195.657,161.156,195.467,161.232,191.319z"/>
		<path opacity="0.3074" fill="#ABC1D6" d="M130.605,232.921c0.015,2.332,3.775,2.38,3.761,0.033
			C134.355,230.605,130.594,230.592,130.605,232.921z"/>
		<path opacity="0.6239" fill="#ABC1D6" d="M313.561,307.527c-0.332,4.44,6.555,3.481,6.921-0.889
			C320.836,302.284,313.88,303.111,313.561,307.527z"/>
		<path opacity="0.7293" fill="#ABC1D6" d="M254.948,209.049c-0.047-7.694-11.734-7.816-11.708-0.082
			C243.259,216.699,254.983,216.724,254.948,209.049z"/>
		<path opacity="0.1437" fill="#ABC1D6" d="M162.461,265.02c-0.079-4.018-6.29-4.211-6.199-0.229
			C156.36,268.783,162.546,269.04,162.461,265.02z"/>
		<path opacity="0.1" fill="#ABC1D6" d="M118.666,210.684c-0.049,3.101,5.048,3.001,5.094-0.131
			C123.811,207.416,118.722,207.585,118.666,210.684z"/>
		<path opacity="0.2442" fill="#ABC1D6" d="M99.917,281.197c0.386,4.983,8.721,6.018,8.371,0.925
			C107.958,277.043,99.554,276.238,99.917,281.197z"/>
		<path opacity="0.4152" fill="#ABC1D6" d="M187.929,371.289c-0.236-5.17-7.503-5.842-7.197-0.712
			C181.046,375.753,188.171,376.493,187.929,371.289z"/>
		<path opacity="0.9283" fill="#ABC1D6" d="M205.889,381.025c0.061,2.413,3.322,2.551,3.277,0.137
			C209.122,378.754,205.829,378.623,205.889,381.025z"/>
		<path opacity="0.4546" fill="#ABC1D6" d="M189.956,389.956c0.217,3.999,5.549,4.509,5.38,0.496
			C195.169,386.462,189.743,385.986,189.956,389.956z"/>
		<path opacity="0.4009" fill="#ABC1D6" d="M291.683,362.291c0.905-9.223-12.763-7.313-13.435,2.095
			C277.54,373.936,290.736,371.637,291.683,362.291z"/>
		<path opacity="0.2435" fill="#ABC1D6" d="M275.821,272.913c0.164-7.435-11.295-7.126-11.413,0.386
			C264.277,280.845,275.639,280.367,275.821,272.913z"/>
		<path opacity="0.1" fill="#ABC1D6" d="M236.298,395.611c0.074-3.045-4.012-2.891-4.058,0.156
			C232.193,398.833,236.224,398.67,236.298,395.611z"/>
		<path opacity="0.448" fill="#ABC1D6" d="M93.028,285.585c-0.133-1.594-1.053-2.796-2.251-3.568
			c-0.011,2.269,0.023,4.525,0.091,6.767C92.217,288.434,93.19,287.419,93.028,285.585z"/>
		<path opacity="0.6835" fill="#ABC1D6" d="M228.274,246.959c0.007-6.142-9.283-6.134-9.278,0.004
			C219.002,253.114,228.265,253.103,228.274,246.959z"/>
		<path opacity="0.2635" fill="#ABC1D6" d="M146.131,256.972c-0.071-3.456-5.512-3.623-5.434-0.202
			C140.782,260.201,146.208,260.43,146.131,256.972z"/>
		<path opacity="0.3724" fill="#ABC1D6" d="M165.99,338.037c0.259,4.187,6.347,4.829,6.126,0.615
			C171.899,334.455,165.737,333.875,165.99,338.037z"/>
		<path opacity="0.1" fill="#ABC1D6" d="M146.581,381.793c-1.145-9.458-14.859-12.572-13.429-3.407
			c0.115,0.721,0.307,1.404,0.549,2.054c3.38,2.376,6.982,4.581,10.819,6.596C146.018,386.328,146.936,384.653,146.581,381.793z"/>
		<path opacity="0.6" fill="#ABC1D6" d="M138.582,356.816c-0.932-8.451-13.646-10.927-12.52-2.726
			C127.238,362.412,139.555,365.37,138.582,356.816z"/>
		<path opacity="0.1" fill="#ABC1D6" d="M120.895,328.491c-0.943-8.932-15.097-11.354-13.974-2.76
			C108.114,334.439,121.895,337.518,120.895,328.491z"/>
		<path opacity="0.4041" fill="#ABC1D6" d="M161.222,325.519c-0.238-4.266-6.631-4.892-6.359-0.671
			C155.143,329.095,161.467,329.8,161.222,325.519z"/>
		<path opacity="0.1" fill="#ABC1D6" d="M102.084,234.204c-0.023-2.854-3.492-3.654-5.421-2.432c-0.28,1.279-0.55,2.559-0.811,3.838
			C97.345,237.937,102.123,237.559,102.084,234.204z"/>
		<path opacity="0.3" fill="#ABC1D6" d="M193.853,182.027c-0.054,4.826,7.253,4.718,7.289-0.121
			C201.181,177.051,193.911,177.196,193.853,182.027z"/>
		<path opacity="0.3308" fill="#ABC1D6" d="M192.855,125.754c-0.16,5.693,8.213,5.37,8.314-0.344
			C201.274,119.657,193.02,120.033,192.855,125.754z"/>
		<path opacity="0.394" fill="#ABC1D6" d="M224.1,118.946c-0.016-5.414-7.716-5.377-7.755,0.029
			C216.307,124.355,224.116,124.323,224.1,118.946z"/>
		<path opacity="0.6882" fill="#ABC1D6" d="M305.131,166.378c-0.156-3.133-5.053-3.537-4.91-0.381
			C300.36,169.15,305.281,169.501,305.131,166.378z"/>
		<path opacity="0.1" fill="#ABC1D6" d="M240.292,125.927c-0.067-3.856-5.62-3.996-5.58-0.137
			C234.751,129.638,240.357,129.764,240.292,125.927z"/>
		<path opacity="0.9044" fill="#ABC1D6" d="M143.886,125.124c0.075-0.944-0.116-1.677-0.461-2.243
			c-1.583,2.292-3.146,4.64-4.689,7.038C141.013,129.875,143.653,128.169,143.886,125.124z"/>
		<path opacity="0.2" fill="#ABC1D6" d="M197.816,95.633c-0.147,4.69,6.527,4.384,6.622-0.317
			C204.536,90.581,197.966,90.918,197.816,95.633z"/>
		<path opacity="0.3583" fill="#ABC1D6" d="M280.833,126.188c-0.091-1.612-2.477-1.844-2.391-0.228
			C278.527,127.575,280.923,127.797,280.833,126.188z"/>
		<path opacity="0.992" fill="#ABC1D6" d="M255.538,142.964c0.08,3.351,5.056,3.568,4.959,0.233
			C260.397,139.849,255.455,139.607,255.538,142.964z"/>
		<path opacity="0.9045" fill="#ABC1D6" d="M290.584,139.167c0.083,1.457,2.144,1.722,2.311,0.465
			c-0.276-0.471-0.553-0.94-0.831-1.408C291.374,137.952,290.53,138.225,290.584,139.167z"/>
		<path opacity="0.7319" fill="#ABC1D6" d="M291.108,230.494c0.008-5.913-9.271-5.945-9.276,0.035
			C281.813,236.517,291.086,236.402,291.108,230.494z"/>
		<path opacity="0.4269" fill="#ABC1D6" d="M267.7,215.316c0.029,9.842,15.117,9.808,15.073,0.134
			C282.692,205.755,267.645,205.472,267.7,215.316z"/>
		<path opacity="0.276" fill="#ABC1D6" d="M242.054,311.45c-0.064,4.497,6.497,4.276,6.592-0.202
			C248.738,306.782,242.116,306.974,242.054,311.45z"/>
		<path opacity="0.1" fill="#ABC1D6" d="M264.499,365.651c0.409-6.997-9.605-6.14-9.888,0.912
			C254.317,373.695,264.077,372.713,264.499,365.651z"/>
		<path opacity="0.1" fill="#ABC1D6" d="M269.806,387.449c0.595-7.469-9.857-6.204-10.282,1.343
			C259.085,396.444,269.194,395.007,269.806,387.449z"/>
		<path opacity="0.1" fill="#ABC1D6" d="M204.776,281.902c-0.022-2.74-4.129-2.8-4.1-0.067
			C200.707,284.574,204.799,284.643,204.776,281.902z"/>
		<path opacity="0.1" fill="#ABC1D6" d="M261.033,380.198c0.233-3.91-5.201-3.373-5.391,0.552
			C255.449,384.704,260.797,384.128,261.033,380.198z"/>
		<path opacity="0.4461" fill="#ABC1D6" d="M237.36,346.462c-0.039,2.431,3.397,2.31,3.449-0.116
			C240.859,343.925,237.398,344.041,237.36,346.462z"/>
		<path opacity="0.8713" fill="#ABC1D6" d="M189.447,286.403c-0.067-4.063-6.184-4.239-6.099-0.2
			C183.436,290.257,189.517,290.471,189.447,286.403z"/>
		<path opacity="0.7751" fill="#ABC1D6" d="M242.606,296.082c-0.044,3.692,5.413,3.545,5.475-0.134
			C248.141,292.275,242.649,292.403,242.606,296.082z"/>
		<path opacity="0.1" fill="#ABC1D6" d="M244.94,280.485c0.03-2.745-4.095-2.678-4.118,0.069
			C240.799,283.308,244.909,283.231,244.94,280.485z"/>
		<path opacity="0.9748" fill="#ABC1D6" d="M320.751,340.262c-0.236,1.955,0.766,2.885,2.121,3.016
			c1.172-2.493,2.248-5.045,3.238-7.648C323.958,335.558,321.101,337.298,320.751,340.262z"/>
		<path opacity="0.4108" fill="#ABC1D6" d="M266.126,286.497c0.118-4.975-7.438-4.723-7.529,0.278
			C258.501,291.796,266.002,291.482,266.126,286.497z"/>
		<path opacity="0.6237" fill="#ABC1D6" d="M290.132,280.224c0.197-5.863-8.929-5.447-9.09,0.481
			C280.868,286.661,289.921,286.101,290.132,280.224z"/>
		<path opacity="0.1" fill="#ABC1D6" d="M306.836,323.757c-0.292,3.538,5.08,2.714,5.398-0.782
			C312.545,319.491,307.122,320.237,306.836,323.757z"/>
		<path opacity="0.7009" fill="#ABC1D6" d="M197.809,305.409c-0.057-3.468-5.206-3.625-5.132-0.171
			C192.752,308.706,197.867,308.884,197.809,305.409z"/>
	</g>
	<path opacity="0.2" fill="#FFFFFF" d="M116.958,203.93c-10.776,34.636,29.532,62.417,57.9,39.81l66.981-53.38
		C318.749,129.068,187.163-21.716,116.958,203.93z"/>
	<path opacity="0.1" fill="#4F6E78" d="M269.699,116.441c41.78,99.548,40.994,230.848-101.547,230.848
		c-24.288,0-44.445-3.824-60.993-10.642c15.036,34.341,47.72,57.986,105.931,57.986C380.16,394.633,336.97,199.879,269.699,116.441z
		"/>
	<path opacity="0.25" fill="#FFFFFF" d="M192.868,120.997c39.94-38.559,3.429-40.066-23.524-11.958
		C142.391,137.148,153.317,159.181,192.868,120.997z"/>
	<path opacity="0.25" fill="#FFFFFF" d="M137.243,158.872c-9.548,21.662,4.884,23.279,13.611,5.529
		C159.581,146.65,147.755,135.023,137.243,158.872z"/>
	<path opacity="0.2" fill="#FFFFFF" d="M167.631,373.526c-6.387-1.326-19.864,14.537,41.199,14.537
		c100.474,0,120.716-81.564,107.35-81.564C309.461,306.499,291.089,399.159,167.631,373.526z"/>
	<path opacity="0.25" fill="#FFFFFF" d="M249.891,386.342c-19.41,6.076-21.748,14.928,2.396,10.137
		C276.431,391.687,271.086,379.708,249.891,386.342z"/>
	<path opacity="0.25" fill="#FFFFFF" d="M278.079,376.006c-14.511,8.233-5.614,13.188,6.153,7.141
		C295.999,377.099,294.05,366.944,278.079,376.006z"/>
	<path opacity="0.25" fill="#C7C4E2" d="M338.167,322.259c27.019-20.021,13.761-63.157-19.852-64.154
		c-14.02-0.416-28.355,4.739-39.284,16.521c-20.544,22.148-22.133,67.803-54.841,76.551c-29.665,7.934-67.032-32.521-81.986-46.327
		c-36.921-34.086-68.187-26.682-55.33,9.391c5.852,16.418,21.977,75.207-25.033,54.561c73.981,39.937,37.774-31.643,35.945-40.44
		c-15.722-75.605,64.425,48.264,104.803,56.544c57.778,11.848,53.723-83.654,88.117-104.88
		C308.384,269.117,339.915,283.074,338.167,322.259L338.167,322.259z"/>
	<path opacity="0.25" fill="#C7C4E2" d="M92.652,383.096c0,0,37.482,13.976,9.212-50.505
		C135.534,388.179,111.71,395.802,92.652,383.096z"/>
	<path opacity="0.25" fill="#C7C4E2" d="M292.131,260.169c0,0-27.635,13.341-37.482,56.54
		C260.367,269.063,292.131,260.169,292.131,260.169z"/>
	<g opacity="0.5">
		<path fill="#C7C4E2" d="M163.55,396.793c0.098-0.496,0.243-0.981,0.408-1.457C163.754,395.783,163.602,396.262,163.55,396.793z"/>
		<path fill="#C7C4E2" d="M313.85,305.737c-39.734-2.026-60.491,57.27-100.503,54.04c-11.941-0.964-22.872-7.987-34.848-8.281
			c-15.716-0.386-30.584,12.747-32.142,28.39c-1.558,15.643,10.428,31.451,25.911,34.172c29.817,5.241,29.825-31.984,9.716-27.458
			c-3.894,0.877-7.19,3.922-8.496,7.679c1.76-3.84,8.617-4.48,11.222-0.7c4.618,6.7-3.762,19.635-18.91,12.267
			c-21.079-10.253-16.53-39.865,9.848-40.134c18.373-0.187,33.074,14.35,49.968,19.837c31.308,10.167,60.585-9.333,68.702-44.069
			c1.807-7.734,4.638-15.26,10.483-20.638c22.903-21.076,34.976,2.858,25.235,21.069
			C341.471,322.215,333.755,306.752,313.85,305.737z"/>
		<path fill="#C7C4E2" d="M289.272,360.226c0,0-6.035,37.164-62.258,28.905C278.472,400.249,287.684,381.19,289.272,360.226z"/>
		<path fill="#C7C4E2" d="M175.556,386.59c0,0,19.376-18.106,25.411,12.07C200.968,368.802,187.944,371.979,175.556,386.59z"/>
	</g>
	<path opacity="0.25" fill="#C7C4E2" d="M273.82,89.055c-6.344,13.176-9.529,23.505-18.423,45.74
		c-18.999,47.498-52.258,15.28-78.364,21.34c-63.783,14.806-61.954,73.461-23.182,87.516c33.882,12.282,50.187-39.599,80.681-20.964
		c30.494,18.635-19.482,73.269-40.235,30.917c-0.847,41.082,75.387,36.846,70.728-12.282c-4.659-49.129-29.436-59.897-69.034-22.87
		c-32.611,30.494-45.363,19.769-51.881,11.753c-14.068-17.3,2.747-38.924,30.543-45.368c36.522-8.468,80.743,15.381,91.219-55.747
		c8.047-54.634,41.201-20.633,38.54,4.235C330.73,91.026,286.208,63.327,273.82,89.055z"/>
	<path opacity="0.25" fill="#C7C4E2" d="M192.074,246.828c0,0-10.8,27,25.094,36.846
		C178.097,291.933,180.639,262.393,192.074,246.828z"/>
	<path opacity="0.25" fill="#C7C4E2" d="M213.038,201.088c0,0,26.364-30.494,49.552,14.611
		C243.849,181.076,234.002,181.394,213.038,201.088z"/>
	<path opacity="0.25" fill="#D5D4EB" d="M307.378,85.149c-17.153-19.694-30.811-17.153-40.341,13.341
		C277.202,40.044,307.378,85.149,307.378,85.149z"/>
	<path opacity="0.4" fill="#D5D4EB" d="M210.179,163.183c0,0-35.999-17.364-68.822,12.07c19.27-9.741,14.188-1.906,5.082,6.988
		s-11.223,10.588,11.223-1.694c22.447-12.282,30.07-7.835,53.152-5.082c23.082,2.753,37.27-7.2,42.564-29.646
		C241.52,167.206,233.049,169.112,210.179,163.183z"/>
	<path opacity="0.25" fill="#D5D4EB" d="M202.344,216.123c9.529-14.611,43.623-29.646,53.152-5.294
		C237.073,193.888,202.344,216.123,202.344,216.123z"/>
	<path opacity="0.25" fill="#D5D4EB" d="M138.71,180.441c0,0-19.853,17.947-6.194,42.405
		C127.751,191.082,138.71,180.441,138.71,180.441z"/>
	<path opacity="0.4" fill="#D5D4EB" d="M307.801,97.325c-6.649-18.047-27.952-26.258-37.482,3.6
		c13.553-22.87,28.164-7.835,33.458,7.623c5.294,15.458,3.388-1.059-1.271-11.223C297.848,87.16,309.283,101.348,307.801,97.325z"/>
	<path opacity="0.25" fill="#D5D4EB" d="M194.297,356.944c0,0-38.752-14.611-46.588,22.658
		C158.086,359.273,181.168,354.403,194.297,356.944z"/>
	<path opacity="0.4" fill="#D5D4EB" d="M312.672,308.027c-23.929-9.318-57.387,46.799-76.022,49.764
		c31.341,2.541,41.505-15.67,48.493-29.011C292.131,315.439,304.836,305.062,312.672,308.027z"/>
	<path opacity="0.25" fill="#D5D4EB" d="M285.778,330.527c0,0-3.971,20.964-32.717,28.111
		C283.713,355.779,285.778,330.527,285.778,330.527z"/>
	<path opacity="0.25" fill="#D5D4EB" d="M182.068,380.873c0,0,9.212-9.371,14.77-0.159
		C190.327,374.679,182.068,380.873,182.068,380.873z"/>
	<path opacity="0.4" fill="#D5D4EB" d="M177.78,389.767c0,0,14.453-10.641,17.153,9.212c-3.335-8.259-1.436-1.019-4.129,3.653
		C188.209,407.131,193.503,385.32,177.78,389.767z"/>
	<path opacity="0.4" fill="#D5D4EB" d="M87.887,307.815c-5.082-26.364,20.647-27.635,32.717-15.564
		c12.07,12.07,56.858,56.858,71.152,57.811c-28.905,3.176-50.793-32.451-72.74-52.728C89.793,270.334,87.887,307.815,87.887,307.815
		z"/>
	<path opacity="0.25" fill="#D5D4EB" d="M348.671,289.074c-1.906-21.917-41.293-47.011-71.469-10.8
		c19.694-14.929,10.482-3.176,5.4,2.541c29.858-23.823,47.011-16.517,50.505,4.765c3.494,21.282,9.212,13.659,6.035,0
		C335.965,271.922,348.671,289.074,348.671,289.074z"/>
	<path opacity="0.25" fill="#D5D4EB" d="M108.958,304.851c0,0,27.105,21.811,39.176,37.693
		C124.84,305.062,108.958,304.851,108.958,304.851z"/>
	<path opacity="0.4" fill="#D5D4EB" d="M96.04,346.991c0,0,9.529,28.588-15.67,27.317
		C109.805,380.026,104.087,365.838,96.04,346.991z"/>
	<path opacity="0.25" fill="#D5D4EB" d="M245.543,233.487c0,0,2.965,45.105-39.176,35.788
		C254.649,283.675,248.508,241.534,245.543,233.487z"/>
	<path opacity="0.4" fill="#D5D4EB" d="M252.743,245.769c0,0,4.235,20.964-13.553,26.682
		C267.143,267.369,252.743,245.769,252.743,245.769z"/>
	<path opacity="0.25" fill="#D5D4EB" d="M342.795,260.169c0,0,35.893-19.535,22.552,13.182
		C367.412,250.799,342.795,260.169,342.795,260.169z"/>
	<path opacity="0.4" fill="#D5D4EB" d="M82.17,133.113c0,0,1.906,18.582,46.693-1.429C92.97,161.7,79.629,145.818,82.17,133.113z"/>
	<path opacity="0.4" fill="#D5D4EB" d="M90.111,215.064c0,0-20.806,2.224-32.876,41.611
		C76.611,219.352,90.111,215.064,90.111,215.064z"/>
</g>
</svg>
