<svg height="250" viewBox="0 0 250 250" width="250" xmlns="http://www.w3.org/2000/svg" xmlns:xlink="http://www.w3.org/1999/xlink"><radialGradient id="a" cx="103.281303" cy="177.621506" gradientTransform="matrix(.651042 0 0 -.651042 43.274741 235.018888)" gradientUnits="userSpaceOnUse" r="308.587097"><stop offset="0" stop-color="#383938"/><stop offset=".1085" stop-color="#333"/><stop offset=".4926" stop-color="#222"/><stop offset=".8034" stop-color="#141414"/><stop offset="1" stop-color="#0e0e0e"/></radialGradient><path d="m124.601562 0c-66.648437 0-167.269531 248.152344 0 248.152344 167.269532 0 66.648438-248.152344 0-248.152344zm0 0" fill="url(#a)"/><path d="m88.222656 121.660156c4.277344 5.21875 11.5625 8.65625 19.832032 8.65625 1.554687 0 3.074218-.121094 4.542968-.355468 1.265625-.199219 2.234375-1.078126 2.566406-2.324219.328126-1.246094-.074218-2.5-1.070312-3.304688-4.089844-3.320312-6.710938-8.414062-6.710938-14.121093 0-10.007813 8.039063-18.117188 17.957032-18.117188 7.921875 0 14.640625 6.910156 17.023437 13.40625l6.367188-2.734375c.757812-.324219 1.5625-.246094 2.246093.214844.683594.464843 1.0625 1.1875 1.050782 2.019531-.03125 2.460938-1.042969 4.679688-2.65625 6.289062.488281.074219.941406.285157 1.3125.664063.597656.609375.824218 1.421875.621094 2.253906-.558594 2.292969-3.933594 4.054688-8.011719 4.054688-.714844 0-1.40625-.058594-2.066407-.160157-.582031.839844-1.238281 1.566407-1.929687 2.285157-.382813.402343-.527344.929687-.398437 1.476562.125.542969.492187.949219 1.015624 1.136719 17.054688 6.019531 23.386719 38.871094-18.691406 38.871094-16.210937 0-38.011718-7.390625-38.011718-27.125 0-5.039063 1.898437-9.632813 5.011718-13.085938zm46.085938-17.421875c1.320312 1.851563 3.089844 2.84375 3.953125 2.21875.859375-.625.492187-2.636719-.832031-4.488281-1.320313-1.851562-3.085938-2.84375-3.949219-2.21875s-.496094 2.636719.828125 4.488281zm0 0" fill="#eaa425"/></svg>