<?xml version="1.0" encoding="UTF-8"?>
<!DOCTYPE svg PUBLIC "-//W3C//DTD SVG 1.1//EN" "http://www.w3.org/Graphics/SVG/1.1/DTD/svg11.dtd">
<svg xmlns="http://www.w3.org/2000/svg" version="1.1" width="1200px" height="1199px" style="shape-rendering:geometricPrecision; text-rendering:geometricPrecision; image-rendering:optimizeQuality; fill-rule:evenodd; clip-rule:evenodd" xmlns:xlink="http://www.w3.org/1999/xlink">
<g><path style="opacity:1" fill="#dd1129" d="M 570.5,-0.5 C 590.167,-0.5 609.833,-0.5 629.5,-0.5C 815.61,12.6242 965.777,92.2909 1080,238.5C 1151.54,334.925 1191.37,443.258 1199.5,563.5C 1199.5,587.167 1199.5,610.833 1199.5,634.5C 1184.32,822.075 1101.98,972.242 952.5,1085C 857.984,1152.45 752.651,1190.29 636.5,1198.5C 612.167,1198.5 587.833,1198.5 563.5,1198.5C 381.595,1183.78 234.428,1105.11 122,962.5C 44.5205,858.905 3.68719,742.239 -0.5,612.5C -0.5,603.833 -0.5,595.167 -0.5,586.5C 6.45647,413.116 73.4565,267.95 200.5,151C 306.254,58.4486 429.587,7.94863 570.5,-0.5 Z"/></g>
<g><path style="opacity:1" fill="#fefefe" d="M 566.5,197.5 C 697.505,190.533 808.005,234.2 898,328.5C 980.859,423.107 1014.19,533.107 998,658.5C 976.143,784.485 910.976,880.652 802.5,947C 702.794,1002.23 597.794,1015.23 487.5,986C 348.875,941.042 257.375,849.209 213,710.5C 177.457,572.721 204.123,448.721 293,338.5C 365.635,255.93 456.802,208.93 566.5,197.5 Z"/></g>
<g><path style="opacity:1" fill="#de1129" d="M 521.5,400.5 C 540.365,398.94 558.365,402.107 575.5,410C 641.33,447.747 706.997,485.747 772.5,524C 810.029,556.294 819.196,595.46 800,641.5C 793.067,654.773 783.567,665.94 771.5,675C 708.833,711.333 646.167,747.667 583.5,784C 537.495,807.916 496.661,801.082 461,763.5C 449.851,749.066 443.184,732.733 441,714.5C 440.333,636.167 440.333,557.833 441,479.5C 450.885,435.781 477.718,409.447 521.5,400.5 Z"/></g>
</svg>
