<?xml version="1.0" encoding="UTF-8"?>
<!DOCTYPE svg PUBLIC "-//W3C//DTD SVG 1.1//EN" "http://www.w3.org/Graphics/SVG/1.1/DTD/svg11.dtd">
<svg xmlns="http://www.w3.org/2000/svg" version="1.1" width="200px" height="200px" style="shape-rendering:geometricPrecision; text-rendering:geometricPrecision; image-rendering:optimizeQuality; fill-rule:evenodd; clip-rule:evenodd" xmlns:xlink="http://www.w3.org/1999/xlink">
<g><path style="opacity:0.998" fill="#de1229" d="M 89.5,-0.5 C 96.5,-0.5 103.5,-0.5 110.5,-0.5C 158.498,7.49761 188.165,35.1643 199.5,82.5C 199.5,94.1667 199.5,105.833 199.5,117.5C 189.167,161.833 161.833,189.167 117.5,199.5C 105.833,199.5 94.1667,199.5 82.5,199.5C 35.5183,187.885 7.85168,158.218 -0.5,110.5C -0.5,103.5 -0.5,96.5 -0.5,89.5C 8.50399,38.496 38.504,8.49601 89.5,-0.5 Z"/></g>
<g><path style="opacity:1" fill="#fefdfd" d="M 92.5,32.5 C 130.462,32.3081 154.962,50.3081 166,86.5C 170.167,121.341 156.667,146.508 125.5,162C 91.3506,173.393 63.8506,164.56 43,135.5C 24.0496,96.7968 32.2163,65.2968 67.5,41C 75.5758,37.031 83.9091,34.1977 92.5,32.5 Z"/></g>
<g><path style="opacity:1" fill="#de1329" d="M 85.5,66.5 C 89.687,66.3947 93.687,67.228 97.5,69C 107.67,75.2525 118.003,81.2525 128.5,87C 134.115,91.9683 135.948,98.135 134,105.5C 133.117,108.102 131.617,110.269 129.5,112C 120.335,117.081 111.335,122.415 102.5,128C 98.1483,130.677 93.4817,132.511 88.5,133.5C 81.5407,132.607 76.7074,128.94 74,122.5C 73.3333,107.5 73.3333,92.5 74,77.5C 76.4373,72.2262 80.2706,68.5595 85.5,66.5 Z"/></g>
</svg>
