<svg height="250" viewBox="0 0 250 250" width="250" xmlns="http://www.w3.org/2000/svg" xmlns:xlink="http://www.w3.org/1999/xlink"><linearGradient id="a" gradientUnits="userSpaceOnUse" x1="41.4479290903" x2="95.10012208426" y1="166.46358207516" y2="166.46358207516"><stop offset="0" stop-color="#f8c6c7"/><stop offset=".6989" stop-color="#ea514e"/></linearGradient><linearGradient id="b"><stop offset="0" stop-color="#f8c6c7"/><stop offset="1" stop-color="#ea514e"/></linearGradient><linearGradient id="c" gradientUnits="userSpaceOnUse" x1="86.76203837018" x2="102.41824749542" xlink:href="#b" y1="48.73034124785" y2="48.73034124785"/><linearGradient id="d" gradientUnits="userSpaceOnUse" x1="143.61923288074" x2="159.27584841625" xlink:href="#b" y1="44.57955190015" y2="44.57955190015"/><linearGradient id="e" gradientUnits="userSpaceOnUse" x1="48.79883151032" x2="211.08425808718" xlink:href="#b" y1="144.21049905391" y2="144.21049905391"/><linearGradient id="f" gradientUnits="userSpaceOnUse" x1="172.17982528208" x2="212.98408312323" y1="173.47870975285" y2="173.47870975285"><stop offset="0" stop-color="#f8c6c7"/><stop offset=".7688" stop-color="#ea514e"/></linearGradient><path d="m61.738281 149.410156c0 24.070313 51.117188 63.011719 26.804688 63.011719-24.316407 0-47.09375-21.894531-47.09375-45.964844 0-24.066406 6.074219-45.953125 30.386719-45.953125s-10.097657 4.835938-10.097657 28.90625zm0 0" fill="url(#a)" fill-rule="evenodd"/><path d="m102.121094 22.089844s2.808594 29.523437-8.875 53.28125c0 0-19.382813-27.121094 8.875-53.28125zm0 0" fill="url(#c)" fill-rule="evenodd"/><path d="m158.980469 17.9375s2.808593 29.523438-8.875 53.285156c0 0-19.386719-27.125 8.875-53.285156zm0 0" fill="url(#d)" fill-rule="evenodd"/><path d="m211.085938 142.632812c0 43.042969-38.554688 83.074219-81.839844 83.074219-43.28125 0-80.449219-43.082031-80.449219-86.125s36.261719-76.867187 79.546875-76.867187c43.28125 0 82.742188 36.875 82.742188 79.917968zm0 0" fill="url(#e)"/><g fill-rule="evenodd"><path d="m212.980469 164.109375c.195312 14.925781-7.03125 40.871094-19.609375 40.128906-8.542969-.507812-21.191406-14.355469-21.191406-31.566406 0-17.214844 9.121093-29.964844 17.679687-29.964844 8.554687 0 22.894531 4.191407 23.121094 21.402344zm0 0" fill="url(#f)"/><path d="m166.914062 112.191406c0 15.105469-25.59375 33.003906-51.988281 33.003906-26.390625 0-50.4375-18.101562-50.4375-33.207031s24.199219-30.816406 50.589844-30.816406c26.394531 0 51.835937 15.914063 51.835937 31.019531zm0 0" fill="#5a120f"/><path d="m106.257812 109.578125c0 7.292969-6.472656 13.207031-14.460937 13.207031s-14.460937-5.914062-14.460937-13.207031c0-7.296875 6.472656-13.210937 14.460937-13.210937s14.460937 5.914062 14.460937 13.210937zm0 0" fill="#fffbfb"/><path d="m143.40625 112.769531c0 7.503907-7.347656 13.585938-16.414062 13.585938-9.066407 0-16.414063-6.082031-16.414063-13.585938 0-7.5 7.347656-13.582031 16.414063-13.582031 9.066406 0 16.414062 6.082031 16.414062 13.582031zm0 0" fill="#fffbfb"/><path d="m128.894531 113.113281c0 1.503907-1.222656 2.726563-2.730469 2.726563-1.503906 0-2.726562-1.222656-2.726562-2.726563 0-1.507812 1.222656-2.730469 2.726562-2.730469 1.507813 0 2.730469 1.222657 2.730469 2.730469zm0 0" fill="#981915"/><path d="m93.191406 109.953125c0 1.507813-1.21875 2.730469-2.726562 2.730469-1.507813 0-2.730469-1.222656-2.730469-2.730469 0-1.503906 1.222656-2.726563 2.730469-2.726563 1.507812 0 2.726562 1.222657 2.726562 2.726563zm0 0" fill="#981915"/></g></svg>