<?xml version="1.0" standalone="no"?>
<!DOCTYPE svg PUBLIC "-//W3C//DTD SVG 20010904//EN"
 "http://www.w3.org/TR/2001/REC-SVG-20010904/DTD/svg10.dtd">
<svg version="1.0" xmlns="http://www.w3.org/2000/svg"
 width="1200.000000pt" height="1200.000000pt" viewBox="0 0 1200.000000 1200.000000"
 preserveAspectRatio="xMidYMid meet">
<metadata>
Created by potrace 1.16, written by Peter Selinger 2001-2019
</metadata>
<g transform="translate(0.000000,1200.000000) scale(0.100000,-0.100000)"
fill="#000000" stroke="none">
<path d="M5875 10229 c-461 -67 -963 -381 -1643 -1027 l-140 -132 -6 67 c-23
231 -63 418 -117 549 -37 89 -114 200 -167 243 -109 85 -249 112 -380 72 -280
-85 -334 -451 -157 -1053 19 -65 35 -119 35 -122 0 -2 -37 6 -82 19 -259 71
-435 54 -527 -51 -47 -54 -65 -114 -59 -197 7 -78 35 -136 100 -198 58 -58
197 -128 313 -161 44 -12 82 -23 84 -25 2 -1 -32 -44 -75 -95 -262 -312 -382
-631 -345 -916 36 -274 175 -686 357 -1054 l57 -118 -79 -77 c-132 -129 -213
-269 -262 -453 -35 -132 -37 -352 -4 -483 88 -352 332 -607 643 -672 184 -39
395 0 547 101 30 20 55 34 56 32 1 -2 11 -25 21 -53 45 -125 211 -414 260
-455 23 -19 18 -28 -31 -49 -77 -34 -181 -109 -233 -168 -164 -184 -195 -436
-82 -661 l30 -60 -57 -33 c-313 -176 -672 -931 -1028 -2169 -64 -222 -214
-795 -214 -818 0 -9 389 -12 1645 -12 l1645 0 0 140 c0 153 -11 248 -72 600
-93 543 -62 770 167 1260 103 220 156 359 196 515 29 113 33 145 32 250 -1
152 -17 214 -118 450 -42 99 -85 213 -96 254 -45 173 -9 413 92 614 17 34 67
122 111 195 111 184 140 260 146 388 8 171 -32 313 -164 592 -151 317 -186
418 -186 539 1 94 24 146 102 228 50 51 77 70 145 99 193 83 361 110 633 103
236 -6 388 -34 523 -97 l26 -12 -23 -93 c-35 -145 -48 -273 -41 -409 9 -181
39 -286 175 -616 102 -250 130 -396 98 -520 -16 -63 -44 -118 -174 -339 -103
-175 -162 -345 -183 -529 -21 -171 11 -314 124 -572 84 -190 99 -240 104 -361
6 -118 -6 -191 -59 -359 -37 -117 -57 -165 -168 -405 -138 -299 -188 -464
-211 -698 -18 -185 -3 -312 98 -842 9 -46 16 -143 17 -227 l1 -148 989 0 989
0 -7 103 c-101 1507 -389 2640 -757 2977 l-50 46 26 44 c48 85 77 196 78 300
1 110 -17 180 -71 285 -46 91 -187 232 -292 294 l-75 44 66 132 c135 273 226
614 259 975 15 168 12 532 -5 721 -53 563 -201 1127 -437 1662 -33 76 -59 139
-57 141 2 1 27 18 54 37 71 47 204 183 255 258 211 315 235 695 65 1018 -149
282 -420 474 -755 534 -145 26 -510 11 -631 -27 -13 -3 -19 7 -28 43 -7 27
-32 90 -57 142 -129 275 -348 446 -634 497 -83 15 -233 16 -325 3z m360 -164
c90 -25 197 -80 266 -136 109 -92 209 -253 250 -406 40 -151 52 -163 147 -138
31 8 100 21 152 29 376 59 662 4 890 -172 103 -80 183 -178 240 -297 66 -137
84 -212 84 -360 0 -202 -60 -370 -188 -530 -66 -83 -189 -191 -205 -181 -5 4
-27 40 -49 81 -56 102 -142 230 -213 314 -32 39 -59 73 -59 75 0 2 24 21 53
41 103 74 176 138 187 164 13 33 0 75 -29 90 -40 22 -68 12 -142 -51 -366
-306 -848 -412 -1384 -303 -189 38 -410 112 -553 184 -34 17 -74 31 -88 31
-16 0 -66 -25 -123 -62 -369 -239 -705 -322 -902 -223 -59 31 -79 31 -114 4
-32 -26 -31 -46 5 -174 26 -94 33 -284 13 -351 -31 -99 -131 -192 -218 -202
-46 -5 -45 -5 -98 78 -25 38 -68 51 -107 30 -41 -22 -42 -53 -6 -160 125 -361
179 -747 145 -1025 -18 -146 -74 -313 -132 -389 -13 -18 -16 -18 -61 13 -69
48 -161 88 -256 112 -119 30 -291 24 -403 -15 -43 -14 -82 -24 -86 -21 -13 7
-148 307 -206 455 -95 244 -160 472 -186 648 -39 273 119 620 419 919 75 76
94 100 94 124 2 51 -28 69 -141 89 -225 41 -389 120 -437 212 -20 39 -18 101
6 131 27 34 102 51 187 42 91 -10 247 -49 343 -85 95 -37 135 -36 163 2 l20
27 -56 168 c-99 296 -139 491 -141 678 -1 226 57 327 198 342 82 8 138 -11
202 -70 128 -117 200 -373 230 -821 5 -86 9 -102 30 -123 33 -33 75 -30 121 9
21 18 119 111 218 208 614 601 1109 921 1550 1004 98 19 283 14 370 -9z m-559
-1761 c178 -81 437 -156 656 -190 157 -25 465 -25 603 0 127 23 247 58 355
102 47 20 94 36 105 37 39 4 257 -325 384 -580 224 -450 407 -1059 475 -1585
41 -313 46 -757 12 -1004 -72 -507 -239 -906 -513 -1219 -87 -99 -210 -212
-220 -201 -11 10 44 189 85 278 21 46 71 136 111 202 97 160 119 205 142 294
46 180 16 338 -131 692 -39 92 -70 172 -70 176 1 5 24 20 53 33 29 14 78 50
109 81 48 48 60 68 78 129 19 63 22 89 18 194 -4 103 -9 132 -32 187 -97 237
-347 391 -716 441 -141 19 -443 16 -565 -5 -116 -20 -304 -80 -396 -126 -218
-109 -404 -290 -479 -466 -111 -257 -32 -522 189 -638 77 -40 165 -66 227 -66
l42 0 32 -87 c63 -174 75 -301 40 -414 -11 -36 -63 -138 -119 -232 -166 -281
-220 -435 -228 -658 -7 -178 10 -258 104 -486 4 -9 -3 -12 -23 -8 -16 2 -76
12 -133 20 -445 70 -899 301 -1239 630 -224 216 -387 459 -462 688 -19 58 -20
70 -8 86 96 132 164 256 174 322 8 47 -25 89 -70 89 -42 0 -51 -12 -115 -144
-47 -97 -63 -119 -144 -201 -104 -103 -173 -145 -293 -175 -98 -25 -190 -25
-288 0 -118 30 -189 72 -291 175 -76 75 -99 106 -138 185 -67 135 -89 227 -90
380 -1 71 4 151 12 185 76 345 349 595 651 595 134 0 286 -58 393 -150 82 -70
110 -69 172 6 89 110 158 263 191 427 46 229 21 601 -62 929 -13 53 -24 99
-24 102 0 3 15 6 34 6 51 0 173 66 234 127 98 98 140 235 128 418 -3 55 -9
112 -12 126 l-6 26 59 -9 c105 -17 277 6 432 58 123 42 383 177 487 253 1 1
37 -15 80 -35z m2436 -4393 c96 -62 157 -118 202 -185 172 -259 44 -600 -279
-747 -87 -39 -106 -79 -64 -133 15 -19 30 -26 54 -26 44 0 175 67 253 130 72
58 74 58 140 -14 302 -327 554 -1329 656 -2601 9 -104 18 -220 21 -257 l6 -68
-343 0 -344 0 -13 237 c-39 757 -129 1418 -238 1758 -63 196 -98 242 -165 214
-54 -22 -60 -59 -23 -143 97 -219 185 -717 240 -1346 14 -171 45 -638 45 -692
l0 -28 -415 0 -415 0 0 118 c0 131 -15 244 -59 472 -80 405 -82 616 -9 880 27
100 63 188 165 410 186 402 249 639 223 842 -14 117 -29 164 -121 380 -44 102
-87 221 -96 262 l-17 77 23 15 c127 89 322 281 424 417 32 42 61 77 65 77 4 0
42 -22 84 -49z m-3417 -336 c375 -301 839 -495 1287 -538 112 -11 118 -12 127
-37 43 -106 54 -269 27 -396 -34 -160 -93 -314 -240 -630 -152 -327 -203 -576
-184 -896 4 -81 28 -253 59 -434 42 -248 52 -328 56 -466 l6 -168 -642 0 -641
0 0 38 c0 20 31 482 69 1025 52 731 67 995 59 1012 -10 23 -46 45 -73 45 -8 0
-26 -11 -41 -23 l-27 -24 -73 -1034 c-40 -569 -73 -1035 -74 -1036 0 -2 -347
-3 -771 -3 l-771 0 7 38 c12 65 134 529 200 757 334 1159 681 1906 960 2066
57 33 87 36 106 13 20 -24 116 -87 186 -123 80 -40 217 -79 304 -87 78 -8 112
6 123 51 8 33 -18 83 -47 89 -12 2 -62 12 -110 20 -221 41 -400 163 -483 330
-124 252 -18 506 263 625 l67 29 91 -85 c49 -47 131 -118 180 -158z"/>
<path d="M5275 6831 c-81 -21 -161 -87 -201 -163 -25 -49 -30 -164 -10 -226
23 -67 84 -135 153 -169 192 -93 423 50 423 263 0 120 -60 218 -165 269 -57
29 -147 40 -200 26z"/>
<path d="M3436 5567 c-31 -31 -33 -65 -5 -101 16 -20 29 -26 61 -26 95 0 171
-50 211 -139 16 -36 21 -70 23 -151 2 -94 4 -106 24 -122 25 -20 62 -23 90 -8
25 14 40 63 40 136 0 241 -143 417 -349 432 -64 4 -71 3 -95 -21z"/>
<path d="M8835 6921 c-90 -23 -178 -101 -210 -184 -26 -69 -18 -189 17 -248
60 -102 149 -153 263 -153 120 0 210 56 265 166 93 188 -37 410 -249 424 -31
2 -69 0 -86 -5z"/>
</g>
</svg>
