<svg height="250" viewBox="0 0 250 250" width="250" xmlns="http://www.w3.org/2000/svg"><path d="m122.394531 36.894531c-9.601562 1.398438-20.0625 7.9375-34.226562 21.398438l-2.917969 2.75-.125-1.398438c-.480469-4.8125-1.3125-8.707031-2.4375-11.4375-.769531-1.851562-2.375-4.164062-3.480469-5.0625-2.269531-1.769531-5.1875-2.332031-7.914062-1.5-5.835938 1.773438-6.960938 9.398438-3.273438 21.9375l.730469 2.542969c0 .042969-.769531-.125-1.707031-.394531-5.398438-1.480469-9.0625-1.125-10.980469 1.0625-.980469 1.125-1.355469 2.375-1.230469 4.101562.148438 1.625.730469 2.835938 2.085938 4.125 1.207031 1.210938 4.101562 2.667969 6.519531 3.355469.917969.25 1.707031.480469 1.75.519531.042969.023438-.667969.917969-1.5625 1.980469-5.457031 6.5-7.957031 13.144531-7.1875 19.082031.75 5.710938 3.644531 14.292969 7.4375 21.960938l1.1875 2.457031-1.644531 1.605469c-2.75 2.6875-4.4375 5.601562-5.460938 9.4375-.726562 2.75-.769531 7.332031-.082031 10.0625 1.832031 7.332031 6.917969 12.644531 13.394531 14 3.835938.8125 8.230469 0 11.398438-2.105469.625-.417969 1.144531-.707031 1.164062-.667969.023438.042969.230469.523438.4375 1.105469.9375 2.605469 4.398438 8.625 5.417969 9.480469.480469.394531.375.582031-.644531 1.019531-1.605469.707031-3.773438 2.269531-4.855469 3.5-3.417969 3.832031-4.0625 9.082031-1.707031 13.769531l.625 1.25-1.1875.6875c-6.523438 3.667969-14 19.398438-21.417969 45.1875-1.332031 4.625-4.457031 16.5625-4.457031 17.042969 0 .1875 8.101562.25 34.269531.25h34.269531v-2.917969c0-3.1875-.226562-5.164062-1.5-12.5-1.9375-11.3125-1.289062-16.039062 3.480469-26.25 2.144531-4.582031 3.25-7.476562 4.082031-10.726562.605469-2.355469.6875-3.023438.667969-5.210938-.019531-3.164062-.355469-4.457031-2.457031-9.375-.875-2.0625-1.773438-4.4375-2-5.289062-.9375-3.605469-.1875-8.605469 1.914062-12.792969.355469-.707031 1.398438-2.542969 2.3125-4.0625 2.3125-3.832031 2.917969-5.417969 3.042969-8.082031.167969-3.5625-.667969-6.523438-3.417969-12.335938-3.144531-6.601562-3.875-8.707031-3.875-11.226562.023438-1.960938.5-3.042969 2.125-4.75 1.042969-1.0625 1.605469-1.460938 3.023438-2.0625 4.019531-1.730469 7.519531-2.292969 13.1875-2.148438 4.914062.125 8.082031.710938 10.894531 2.023438l.542969.25-.480469 1.9375c-.730469 3.019531-1 5.6875-.855469 8.519531.1875 3.769531.8125 5.957031 3.648438 12.832031 2.125 5.210938 2.707031 8.25 2.039062 10.835938-.332031 1.3125-.914062 2.457031-3.625 7.0625-2.144531 3.644531-3.375 7.1875-3.8125 11.019531-.4375 3.5625.230469 6.542969 2.585938 11.917969 1.75 3.957031 2.0625 5 2.164062 7.519531.125 2.457031-.125 3.980469-1.226562 7.480469-.773438 2.4375-1.1875 3.4375-3.5 8.4375-2.875 6.226562-3.917969 9.664062-4.398438 14.539062-.375 3.855469-.0625 6.5 2.042969 17.542969.1875.957031.332031 2.980469.355469 4.730469l.019531 3.082031h41.207031l-.144531-2.144531c-2.105469-31.398438-8.105469-55-15.769531-62.023438l-1.042969-.957031.542969-.917969c1-1.769531 1.601562-4.082031 1.625-6.25.019531-2.289062-.355469-3.75-1.480469-5.9375-.957031-1.894531-3.894531-4.832031-6.082031-6.125l-1.5625-.914062 1.375-2.75c2.8125-5.6875 4.707031-12.792969 5.394531-20.3125.3125-3.5.25-11.085938-.105469-15.023438-1.101562-11.726562-4.1875-23.476562-9.101562-34.625-.6875-1.582031-1.230469-2.894531-1.1875-2.9375.039062-.019531.5625-.375 1.125-.769531 1.476562-.980469 4.25-3.8125 5.3125-5.375 4.394531-6.5625 4.894531-14.480469 1.351562-21.207031-3.101562-5.875-8.75-9.875-15.726562-11.125-3.023438-.542969-10.625-.230469-13.148438.5625-.269531.0625-.394531-.148438-.582031-.898438-.144531-.5625-.667969-1.875-1.1875-2.957031-2.6875-5.730469-7.25-9.292969-13.207031-10.355469-1.730469-.3125-4.855469-.332031-6.773438-.0625zm7.5 3.417969c1.875.519531 4.105469 1.667969 5.542969 2.832031 2.269531 1.917969 4.355469 5.273438 5.207031 8.460938.835938 3.144531 1.085938 3.394531 3.0625 2.875.648438-.167969 2.085938-.4375 3.167969-.605469 7.832031-1.230469 13.792969-.082031 18.542969 3.582031 2.144531 1.667969 3.8125 3.710938 5 6.1875 1.375 2.855469 1.75 4.417969 1.75 7.5 0 4.210938-1.25 7.710938-3.917969 11.042969-1.375 1.730469-3.9375 3.980469-4.269531 3.769531-.105469-.082031-.5625-.832031-1.023438-1.6875-1.164062-2.125-2.957031-4.789062-4.4375-6.539062-.664062-.8125-1.226562-1.523438-1.226562-1.5625 0-.042969.5-.4375 1.101562-.855469 2.148438-1.542969 3.667969-2.875 3.898438-3.417969.269531-.6875 0-1.5625-.605469-1.875-.832031-.457031-1.417969-.25-2.957031 1.0625-7.625 6.375-17.667969 8.585938-28.835938 6.3125-3.9375-.789062-8.539062-2.332031-11.519531-3.832031-.707031-.355469-1.542969-.644531-1.832031-.644531-.335938 0-1.375.519531-2.5625 1.289062-7.6875 4.980469-14.6875 6.710938-18.792969 4.648438-1.230469-.648438-1.644531-.648438-2.375-.085938-.667969.542969-.644531.960938.105469 3.625.539062 1.960938.6875 5.917969.269531 7.3125-.644531 2.0625-2.730469 4-4.542969 4.210938-.957031.101562-.9375.101562-2.039062-1.625-.523438-.792969-1.417969-1.0625-2.230469-.625-.855469.457031-.875 1.101562-.125 3.332031 2.605469 7.519531 3.730469 15.5625 3.019531 21.355469-.375 3.039062-1.539062 6.519531-2.75 8.101562-.269531.375-.332031.375-1.269531-.269531-1.4375-1-3.355469-1.832031-5.332031-2.332031-2.480469-.625-6.0625-.5-8.398438.3125-.894531.289062-1.707031.5-1.789062.4375-.273438-.148438-3.085938-6.398438-4.292969-9.480469-1.980469-5.082031-3.332031-9.832031-3.875-13.5-.8125-5.6875 2.480469-12.917969 8.730469-19.144531 1.5625-1.585938 1.957031-2.085938 1.957031-2.585938.042969-1.0625-.582031-1.4375-2.9375-1.851562-4.6875-.855469-8.105469-2.5-9.105469-4.417969-.414062-.8125-.375-2.105469.125-2.730469.5625-.707031 2.125-1.0625 3.898438-.875 1.894531.210938 5.144531 1.023438 7.144531 1.773438 1.980469.769531 2.8125.75 3.394531-.042969l.417969-.5625-1.167969-3.5c-2.0625-6.167969-2.894531-10.230469-2.9375-14.125-.019531-4.707031 1.1875-6.8125 4.125-7.125 1.710938-.167969 2.875.230469 4.210938 1.457031 2.664062 2.4375 4.164062 7.773438 4.789062 17.105469.105469 1.792969.1875 2.125.625 2.5625.6875.6875 1.5625.625 2.523438-.1875.4375-.375 2.476562-2.3125 4.539062-4.332031 12.792969-12.523438 23.105469-19.1875 32.292969-20.917969 2.042969-.394531 5.894531-.292969 7.707031.1875zm-11.644531 36.6875c3.707031 1.6875 9.105469 3.25 13.667969 3.957031 3.269531.523438 9.6875.523438 12.5625 0 2.644531-.476562 5.144531-1.207031 7.394531-2.125.980469-.414062 1.957031-.75 2.1875-.769531.8125-.082031 5.355469 6.769531 8 12.082031 4.667969 9.375 8.480469 22.0625 9.894531 33.023438.855469 6.519531.960938 15.769531.25 20.914062-1.5 10.5625-4.976562 18.875-10.6875 25.398438-1.8125 2.0625-4.375 4.414062-4.582031 4.1875-.230469-.210938.917969-3.9375 1.769531-5.792969.4375-.957031 1.480469-2.832031 2.3125-4.207031 2.023438-3.335938 2.480469-4.273438 2.960938-6.125.957031-3.75.332031-7.042969-2.730469-14.417969-.8125-1.917969-1.457031-3.582031-1.457031-3.667969.019531-.101562.5-.414062 1.101562-.6875.605469-.289062 1.625-1.039062 2.273438-1.6875 1-1 1.25-1.414062 1.625-2.6875.394531-1.3125.457031-1.851562.375-4.039062-.085938-2.148438-.1875-2.75-.667969-3.898438-2.019531-4.9375-7.230469-8.144531-14.917969-9.1875-2.9375-.394531-9.226562-.332031-11.769531.105469-2.417969.417969-6.332031 1.667969-8.25 2.625-4.542969 2.269531-8.417969 6.042969-9.980469 9.707031-2.3125 5.355469-.664062 10.875 3.9375 13.292969 1.605469.832031 3.4375 1.375 4.730469 1.375h.875l.667969 1.8125c1.3125 3.625 1.5625 6.269531.832031 8.625-.230469.75-1.3125 2.875-2.480469 4.832031-3.457031 5.855469-4.582031 9.0625-4.75 13.710938-.144531 3.707031.210938 5.375 2.167969 10.125.082031.1875-.0625.25-.480469.164062-.332031-.039062-1.582031-.25-2.769531-.414062-9.269531-1.460938-18.730469-6.273438-25.8125-13.125-4.667969-4.5-8.0625-9.5625-9.625-14.335938-.394531-1.207031-.417969-1.457031-.167969-1.789062 2-2.75 3.417969-5.335938 3.625-6.710938.167969-.976562-.519531-1.851562-1.457031-1.851562-.875 0-1.0625.25-2.394531 3-.980469 2.019531-1.3125 2.476562-3 4.1875-2.167969 2.144531-3.605469 3.019531-6.105469 3.644531-2.042969.519531-3.957031.519531-6 0-2.457031-.625-3.9375-1.5-6.0625-3.644531-1.582031-1.5625-2.0625-2.210938-2.875-3.855469-1.394531-2.8125-1.855469-4.730469-1.875-7.917969-.019531-1.476562.082031-3.144531.25-3.851562 1.582031-7.1875 7.269531-12.398438 13.5625-12.398438 2.792969 0 5.957031 1.210938 8.1875 3.125 1.707031 1.460938 2.292969 1.4375 3.582031-.125 1.855469-2.289062 3.292969-5.476562 3.980469-8.894531.957031-4.769531.4375-12.519531-1.292969-19.355469l-.5-2.125c0-.0625.3125-.125.710938-.125 1.0625 0 3.601562-1.375 4.875-2.644531 2.039062-2.042969 2.914062-4.894531 2.664062-8.707031-.0625-1.148438-.1875-2.335938-.25-2.625l-.125-.542969 1.230469.1875c2.1875.355469 5.769531-.125 9-1.207031 2.5625-.875 7.980469-3.6875 10.144531-5.273438.023438-.019531.773438.3125 1.667969.730469zm50.75 91.519531c2 1.292969 3.269531 2.460938 4.207031 3.855469 3.585938 5.394531.917969 12.5-5.8125 15.5625-1.8125.8125-2.207031 1.644531-1.332031 2.769531.3125.398438.625.542969 1.125.542969.917969 0 3.644531-1.394531 5.269531-2.707031 1.5-1.210938 1.542969-1.210938 2.917969.289062 6.292969 6.8125 11.542969 27.6875 13.667969 54.1875l.4375 5.355469.125 1.417969h-14.3125l-.273438-4.9375c-.8125-15.773438-2.6875-29.542969-4.957031-36.625-1.3125-4.085938-2.042969-5.042969-3.4375-4.460938-1.125.460938-1.25 1.230469-.480469 2.980469 2.023438 4.5625 3.855469 14.9375 5 28.042969.292969 3.5625.9375 13.289062.9375 14.414062v.585938h-17.289062v-2.460938c0-2.726562-.3125-5.082031-1.230469-9.832031-1.667969-8.4375-1.707031-12.832031-.1875-18.332031.5625-2.085938 1.3125-3.917969 3.4375-8.542969 3.875-8.375 5.1875-13.3125 4.644531-17.542969-.289062-2.4375-.601562-3.414062-2.519531-7.914062-.917969-2.125-1.8125-4.605469-2-5.460938l-.355469-1.601562.480469-.3125c2.644531-1.855469 6.707031-5.855469 8.832031-8.6875.667969-.875 1.273438-1.605469 1.355469-1.605469s.875.457031 1.75 1.019531zm-71.1875 7c7.8125 6.273438 17.480469 10.3125 26.8125 11.210938 2.332031.226562 2.457031.25 2.644531.769531.898438 2.207031 1.125 5.605469.5625 8.25-.707031 3.332031-1.9375 6.542969-5 13.125-3.164062 6.8125-4.226562 12-3.832031 18.667969.082031 1.6875.582031 5.269531 1.230469 9.039062.875 5.167969 1.082031 6.835938 1.164062 9.710938l.125 3.5h-26.726562v-.792969c0-.417969.644531-10.042969 1.4375-21.355469l1.226562-21.082031c-.207031-.480469-.957031-.9375-1.519531-.9375-.167969 0-.542969.230469-.855469.480469l-.5625.5-1.519531 21.539062-1.542969 21.585938c0 .039062-7.226562.0625-16.0625.0625h-16.0625l.148438-.792969c.25-1.355469 2.789062-11.019531 4.164062-15.769531 6.960938-24.148438 14.1875-39.710938 20-43.042969 1.1875-.6875 1.8125-.75 2.210938-.269531.414062.5 2.414062 1.8125 3.875 2.5625 1.664062.832031 4.519531 1.644531 6.332031 1.8125 1.625.164062 2.332031-.125 2.5625-1.0625.167969-.6875-.375-1.730469-.980469-1.855469l-2.289062-.417969c-4.605469-.851562-8.335938-3.394531-10.0625-6.875-2.585938-5.25-.375-10.539062 5.476562-13.019531l1.398438-.605469 1.894531 1.773438c1.019531.976562 2.730469 2.457031 3.75 3.289062zm12.082031-67.832031c-1.6875.4375-3.351562 1.8125-4.1875 3.394531-.519531 1.023438-.625 3.417969-.207031 4.710938.480469 1.394531 1.75 2.8125 3.1875 3.519531 4 1.9375 8.8125-1.042969 8.8125-5.480469 0-2.5-1.25-4.539062-3.4375-5.601562-1.1875-.605469-3.0625-.835938-4.167969-.542969zm-38.3125 26.332031c-.644531.648438-.6875 1.355469-.101562 2.105469.332031.417969.601562.542969 1.269531.542969 1.980469 0 3.5625 1.039062 4.394531 2.894531.335938.75.4375 1.457031.480469 3.144531.042969 1.960938.082031 2.210938.5 2.542969.519531.417969 1.292969.480469 1.875.167969.519531-.292969.832031-1.3125.832031-2.835938 0-5.019531-2.976562-8.6875-7.269531-9-1.332031-.082031-1.480469-.0625-1.980469.4375zm112.480469-28.207031c-1.875.480469-3.707031 2.105469-4.375 3.832031-.542969 1.4375-.375 3.9375.355469 5.167969 1.25 2.125 3.101562 3.1875 5.476562 3.1875 2.5 0 4.375-1.167969 5.523438-3.457031 1.9375-3.917969-.773438-8.542969-5.1875-8.835938-.648438-.039062-1.4375 0-1.792969.105469zm0 0"/></svg>