
<svg xmlns="http://www.w3.org/2000/svg" xmlns:xlink="http://www.w3.org/1999/xlink" width="250px" height="250px" viewBox="0 0 250 250" version="1.1">
<g id="surface1">
<path style=" stroke:none;fill-rule:nonzero;fill:rgb(0%,0%,0%);fill-opacity:1;" d="M 122.394531 36.894531 C 112.792969 38.292969 102.332031 44.832031 88.167969 58.292969 L 85.25 61.042969 L 85.125 59.644531 C 84.644531 54.832031 83.8125 50.9375 82.6875 48.207031 C 81.917969 46.355469 80.3125 44.042969 79.207031 43.144531 C 76.9375 41.375 74.019531 40.8125 71.292969 41.644531 C 65.457031 43.417969 64.332031 51.042969 68.019531 63.582031 L 68.75 66.125 C 68.75 66.167969 67.980469 66 67.042969 65.730469 C 61.644531 64.25 57.980469 64.605469 56.0625 66.792969 C 55.082031 67.917969 54.707031 69.167969 54.832031 70.894531 C 54.980469 72.519531 55.5625 73.730469 56.917969 75.019531 C 58.125 76.230469 61.019531 77.6875 63.4375 78.375 C 64.355469 78.625 65.144531 78.855469 65.1875 78.894531 C 65.230469 78.917969 64.519531 79.8125 63.625 80.875 C 58.167969 87.375 55.667969 94.019531 56.4375 99.957031 C 57.1875 105.667969 60.082031 114.25 63.875 121.917969 L 65.0625 124.375 L 63.417969 125.980469 C 60.667969 128.667969 58.980469 131.582031 57.957031 135.417969 C 57.230469 138.167969 57.1875 142.75 57.875 145.480469 C 59.707031 152.8125 64.792969 158.125 71.269531 159.480469 C 75.105469 160.292969 79.5 159.480469 82.667969 157.375 C 83.292969 156.957031 83.8125 156.667969 83.832031 156.707031 C 83.855469 156.75 84.0625 157.230469 84.269531 157.8125 C 85.207031 160.417969 88.667969 166.4375 89.6875 167.292969 C 90.167969 167.6875 90.0625 167.875 89.042969 168.3125 C 87.4375 169.019531 85.269531 170.582031 84.1875 171.8125 C 80.769531 175.644531 80.125 180.894531 82.480469 185.582031 L 83.105469 186.832031 L 81.917969 187.519531 C 75.394531 191.1875 67.917969 206.917969 60.5 232.707031 C 59.167969 237.332031 56.042969 249.269531 56.042969 249.75 C 56.042969 249.9375 64.144531 250 90.3125 250 L 124.582031 250 L 124.582031 247.082031 C 124.582031 243.894531 124.355469 241.917969 123.082031 234.582031 C 121.144531 223.269531 121.792969 218.542969 126.5625 208.332031 C 128.707031 203.75 129.8125 200.855469 130.644531 197.605469 C 131.25 195.25 131.332031 194.582031 131.3125 192.394531 C 131.292969 189.230469 130.957031 187.9375 128.855469 183.019531 C 127.980469 180.957031 127.082031 178.582031 126.855469 177.730469 C 125.917969 174.125 126.667969 169.125 128.769531 164.9375 C 129.125 164.230469 130.167969 162.394531 131.082031 160.875 C 133.394531 157.042969 134 155.457031 134.125 152.792969 C 134.292969 149.230469 133.457031 146.269531 130.707031 140.457031 C 127.5625 133.855469 126.832031 131.75 126.832031 129.230469 C 126.855469 127.269531 127.332031 126.1875 128.957031 124.480469 C 130 123.417969 130.5625 123.019531 131.980469 122.417969 C 136 120.6875 139.5 120.125 145.167969 120.269531 C 150.082031 120.394531 153.25 120.980469 156.0625 122.292969 L 156.605469 122.542969 L 156.125 124.480469 C 155.394531 127.5 155.125 130.167969 155.269531 133 C 155.457031 136.769531 156.082031 138.957031 158.917969 145.832031 C 161.042969 151.042969 161.625 154.082031 160.957031 156.667969 C 160.625 157.980469 160.042969 159.125 157.332031 163.730469 C 155.1875 167.375 153.957031 170.917969 153.519531 174.75 C 153.082031 178.3125 153.75 181.292969 156.105469 186.667969 C 157.855469 190.625 158.167969 191.667969 158.269531 194.1875 C 158.394531 196.644531 158.144531 198.167969 157.042969 201.667969 C 156.269531 204.105469 155.855469 205.105469 153.542969 210.105469 C 150.667969 216.332031 149.625 219.769531 149.144531 224.644531 C 148.769531 228.5 149.082031 231.144531 151.1875 242.1875 C 151.375 243.144531 151.519531 245.167969 151.542969 246.917969 L 151.5625 250 L 192.769531 250 L 192.625 247.855469 C 190.519531 216.457031 184.519531 192.855469 176.855469 185.832031 L 175.8125 184.875 L 176.355469 183.957031 C 177.355469 182.1875 177.957031 179.875 177.980469 177.707031 C 178 175.417969 177.625 173.957031 176.5 171.769531 C 175.542969 169.875 172.605469 166.9375 170.417969 165.644531 L 168.855469 164.730469 L 170.230469 161.980469 C 173.042969 156.292969 174.9375 149.1875 175.625 141.667969 C 175.9375 138.167969 175.875 130.582031 175.519531 126.644531 C 174.417969 114.917969 171.332031 103.167969 166.417969 92.019531 C 165.730469 90.4375 165.1875 89.125 165.230469 89.082031 C 165.269531 89.0625 165.792969 88.707031 166.355469 88.3125 C 167.832031 87.332031 170.605469 84.5 171.667969 82.9375 C 176.0625 76.375 176.5625 68.457031 173.019531 61.730469 C 169.917969 55.855469 164.269531 51.855469 157.292969 50.605469 C 154.269531 50.0625 146.667969 50.375 144.144531 51.167969 C 143.875 51.230469 143.75 51.019531 143.5625 50.269531 C 143.417969 49.707031 142.894531 48.394531 142.375 47.3125 C 139.6875 41.582031 135.125 38.019531 129.167969 36.957031 C 127.4375 36.644531 124.3125 36.625 122.394531 36.894531 Z M 129.894531 40.3125 C 131.769531 40.832031 134 41.980469 135.4375 43.144531 C 137.707031 45.0625 139.792969 48.417969 140.644531 51.605469 C 141.480469 54.75 141.730469 55 143.707031 54.480469 C 144.355469 54.3125 145.792969 54.042969 146.875 53.875 C 154.707031 52.644531 160.667969 53.792969 165.417969 57.457031 C 167.5625 59.125 169.230469 61.167969 170.417969 63.644531 C 171.792969 66.5 172.167969 68.0625 172.167969 71.144531 C 172.167969 75.355469 170.917969 78.855469 168.25 82.1875 C 166.875 83.917969 164.3125 86.167969 163.980469 85.957031 C 163.875 85.875 163.417969 85.125 162.957031 84.269531 C 161.792969 82.144531 160 79.480469 158.519531 77.730469 C 157.855469 76.917969 157.292969 76.207031 157.292969 76.167969 C 157.292969 76.125 157.792969 75.730469 158.394531 75.3125 C 160.542969 73.769531 162.0625 72.4375 162.292969 71.894531 C 162.5625 71.207031 162.292969 70.332031 161.6875 70.019531 C 160.855469 69.5625 160.269531 69.769531 158.730469 71.082031 C 151.105469 77.457031 141.0625 79.667969 129.894531 77.394531 C 125.957031 76.605469 121.355469 75.0625 118.375 73.5625 C 117.667969 73.207031 116.832031 72.917969 116.542969 72.917969 C 116.207031 72.917969 115.167969 73.4375 113.980469 74.207031 C 106.292969 79.1875 99.292969 80.917969 95.1875 78.855469 C 93.957031 78.207031 93.542969 78.207031 92.8125 78.769531 C 92.144531 79.3125 92.167969 79.730469 92.917969 82.394531 C 93.457031 84.355469 93.605469 88.3125 93.1875 89.707031 C 92.542969 91.769531 90.457031 93.707031 88.644531 93.917969 C 87.6875 94.019531 87.707031 94.019531 86.605469 92.292969 C 86.082031 91.5 85.1875 91.230469 84.375 91.667969 C 83.519531 92.125 83.5 92.769531 84.25 95 C 86.855469 102.519531 87.980469 110.5625 87.269531 116.355469 C 86.894531 119.394531 85.730469 122.875 84.519531 124.457031 C 84.25 124.832031 84.1875 124.832031 83.25 124.1875 C 81.8125 123.1875 79.894531 122.355469 77.917969 121.855469 C 75.4375 121.230469 71.855469 121.355469 69.519531 122.167969 C 68.625 122.457031 67.8125 122.667969 67.730469 122.605469 C 67.457031 122.457031 64.644531 116.207031 63.4375 113.125 C 61.457031 108.042969 60.105469 103.292969 59.5625 99.625 C 58.75 93.9375 62.042969 86.707031 68.292969 80.480469 C 69.855469 78.894531 70.25 78.394531 70.25 77.894531 C 70.292969 76.832031 69.667969 76.457031 67.3125 76.042969 C 62.625 75.1875 59.207031 73.542969 58.207031 71.625 C 57.792969 70.8125 57.832031 69.519531 58.332031 68.894531 C 58.894531 68.1875 60.457031 67.832031 62.230469 68.019531 C 64.125 68.230469 67.375 69.042969 69.375 69.792969 C 71.355469 70.5625 72.1875 70.542969 72.769531 69.75 L 73.1875 69.1875 L 72.019531 65.6875 C 69.957031 59.519531 69.125 55.457031 69.082031 51.5625 C 69.0625 46.855469 70.269531 44.75 73.207031 44.4375 C 74.917969 44.269531 76.082031 44.667969 77.417969 45.894531 C 80.082031 48.332031 81.582031 53.667969 82.207031 63 C 82.3125 64.792969 82.394531 65.125 82.832031 65.5625 C 83.519531 66.25 84.394531 66.1875 85.355469 65.375 C 85.792969 65 87.832031 63.0625 89.894531 61.042969 C 102.6875 48.519531 113 41.855469 122.1875 40.125 C 124.230469 39.730469 128.082031 39.832031 129.894531 40.3125 Z M 118.25 77 C 121.957031 78.6875 127.355469 80.25 131.917969 80.957031 C 135.1875 81.480469 141.605469 81.480469 144.480469 80.957031 C 147.125 80.480469 149.625 79.75 151.875 78.832031 C 152.855469 78.417969 153.832031 78.082031 154.0625 78.0625 C 154.875 77.980469 159.417969 84.832031 162.0625 90.144531 C 166.730469 99.519531 170.542969 112.207031 171.957031 123.167969 C 172.8125 129.6875 172.917969 138.9375 172.207031 144.082031 C 170.707031 154.644531 167.230469 162.957031 161.519531 169.480469 C 159.707031 171.542969 157.144531 173.894531 156.9375 173.667969 C 156.707031 173.457031 157.855469 169.730469 158.707031 167.875 C 159.144531 166.917969 160.1875 165.042969 161.019531 163.667969 C 163.042969 160.332031 163.5 159.394531 163.980469 157.542969 C 164.9375 153.792969 164.3125 150.5 161.25 143.125 C 160.4375 141.207031 159.792969 139.542969 159.792969 139.457031 C 159.8125 139.355469 160.292969 139.042969 160.894531 138.769531 C 161.5 138.480469 162.519531 137.730469 163.167969 137.082031 C 164.167969 136.082031 164.417969 135.667969 164.792969 134.394531 C 165.1875 133.082031 165.25 132.542969 165.167969 130.355469 C 165.082031 128.207031 164.980469 127.605469 164.5 126.457031 C 162.480469 121.519531 157.269531 118.3125 149.582031 117.269531 C 146.644531 116.875 140.355469 116.9375 137.8125 117.375 C 135.394531 117.792969 131.480469 119.042969 129.5625 120 C 125.019531 122.269531 121.144531 126.042969 119.582031 129.707031 C 117.269531 135.0625 118.917969 140.582031 123.519531 143 C 125.125 143.832031 126.957031 144.375 128.25 144.375 L 129.125 144.375 L 129.792969 146.1875 C 131.105469 149.8125 131.355469 152.457031 130.625 154.8125 C 130.394531 155.5625 129.3125 157.6875 128.144531 159.644531 C 124.6875 165.5 123.5625 168.707031 123.394531 173.355469 C 123.25 177.0625 123.605469 178.730469 125.5625 183.480469 C 125.644531 183.667969 125.5 183.730469 125.082031 183.644531 C 124.75 183.605469 123.5 183.394531 122.3125 183.230469 C 113.042969 181.769531 103.582031 176.957031 96.5 170.105469 C 91.832031 165.605469 88.4375 160.542969 86.875 155.769531 C 86.480469 154.5625 86.457031 154.3125 86.707031 153.980469 C 88.707031 151.230469 90.125 148.644531 90.332031 147.269531 C 90.5 146.292969 89.8125 145.417969 88.875 145.417969 C 88 145.417969 87.8125 145.667969 86.480469 148.417969 C 85.5 150.4375 85.167969 150.894531 83.480469 152.605469 C 81.3125 154.75 79.875 155.625 77.375 156.25 C 75.332031 156.769531 73.417969 156.769531 71.375 156.25 C 68.917969 155.625 67.4375 154.75 65.3125 152.605469 C 63.730469 151.042969 63.25 150.394531 62.4375 148.75 C 61.042969 145.9375 60.582031 144.019531 60.5625 140.832031 C 60.542969 139.355469 60.644531 137.6875 60.8125 136.980469 C 62.394531 129.792969 68.082031 124.582031 74.375 124.582031 C 77.167969 124.582031 80.332031 125.792969 82.5625 127.707031 C 84.269531 129.167969 84.855469 129.144531 86.144531 127.582031 C 88 125.292969 89.4375 122.105469 90.125 118.6875 C 91.082031 113.917969 90.5625 106.167969 88.832031 99.332031 L 88.332031 97.207031 C 88.332031 97.144531 88.644531 97.082031 89.042969 97.082031 C 90.105469 97.082031 92.644531 95.707031 93.917969 94.4375 C 95.957031 92.394531 96.832031 89.542969 96.582031 85.730469 C 96.519531 84.582031 96.394531 83.394531 96.332031 83.105469 L 96.207031 82.5625 L 97.4375 82.75 C 99.625 83.105469 103.207031 82.625 106.4375 81.542969 C 109 80.667969 114.417969 77.855469 116.582031 76.269531 C 116.605469 76.25 117.355469 76.582031 118.25 77 Z M 169 168.519531 C 171 169.8125 172.269531 170.980469 173.207031 172.375 C 176.792969 177.769531 174.125 184.875 167.394531 187.9375 C 165.582031 188.75 165.1875 189.582031 166.0625 190.707031 C 166.375 191.105469 166.6875 191.25 167.1875 191.25 C 168.105469 191.25 170.832031 189.855469 172.457031 188.542969 C 173.957031 187.332031 174 187.332031 175.375 188.832031 C 181.667969 195.644531 186.917969 216.519531 189.042969 243.019531 L 189.480469 248.375 L 189.605469 249.792969 L 175.292969 249.792969 L 175.019531 244.855469 C 174.207031 229.082031 172.332031 215.3125 170.0625 208.230469 C 168.75 204.144531 168.019531 203.1875 166.625 203.769531 C 165.5 204.230469 165.375 205 166.144531 206.75 C 168.167969 211.3125 170 221.6875 171.144531 234.792969 C 171.4375 238.355469 172.082031 248.082031 172.082031 249.207031 L 172.082031 249.792969 L 154.792969 249.792969 L 154.792969 247.332031 C 154.792969 244.605469 154.480469 242.25 153.5625 237.5 C 151.894531 229.0625 151.855469 224.667969 153.375 219.167969 C 153.9375 217.082031 154.6875 215.25 156.8125 210.625 C 160.6875 202.25 162 197.3125 161.457031 193.082031 C 161.167969 190.644531 160.855469 189.667969 158.9375 185.167969 C 158.019531 183.042969 157.125 180.5625 156.9375 179.707031 L 156.582031 178.105469 L 157.0625 177.792969 C 159.707031 175.9375 163.769531 171.9375 165.894531 169.105469 C 166.5625 168.230469 167.167969 167.5 167.25 167.5 C 167.332031 167.5 168.125 167.957031 169 168.519531 Z M 97.8125 175.519531 C 105.625 181.792969 115.292969 185.832031 124.625 186.730469 C 126.957031 186.957031 127.082031 186.980469 127.269531 187.5 C 128.167969 189.707031 128.394531 193.105469 127.832031 195.75 C 127.125 199.082031 125.894531 202.292969 122.832031 208.875 C 119.667969 215.6875 118.605469 220.875 119 227.542969 C 119.082031 229.230469 119.582031 232.8125 120.230469 236.582031 C 121.105469 241.75 121.3125 243.417969 121.394531 246.292969 L 121.519531 249.792969 L 94.792969 249.792969 L 94.792969 249 C 94.792969 248.582031 95.4375 238.957031 96.230469 227.644531 L 97.457031 206.5625 C 97.25 206.082031 96.5 205.625 95.9375 205.625 C 95.769531 205.625 95.394531 205.855469 95.082031 206.105469 L 94.519531 206.605469 L 93 228.144531 L 91.457031 249.730469 C 91.457031 249.769531 84.230469 249.792969 75.394531 249.792969 L 59.332031 249.792969 L 59.480469 249 C 59.730469 247.644531 62.269531 237.980469 63.644531 233.230469 C 70.605469 209.082031 77.832031 193.519531 83.644531 190.1875 C 84.832031 189.5 85.457031 189.4375 85.855469 189.917969 C 86.269531 190.417969 88.269531 191.730469 89.730469 192.480469 C 91.394531 193.3125 94.25 194.125 96.0625 194.292969 C 97.6875 194.457031 98.394531 194.167969 98.625 193.230469 C 98.792969 192.542969 98.25 191.5 97.644531 191.375 L 95.355469 190.957031 C 90.75 190.105469 87.019531 187.5625 85.292969 184.082031 C 82.707031 178.832031 84.917969 173.542969 90.769531 171.0625 L 92.167969 170.457031 L 94.0625 172.230469 C 95.082031 173.207031 96.792969 174.6875 97.8125 175.519531 Z M 109.894531 107.6875 C 108.207031 108.125 106.542969 109.5 105.707031 111.082031 C 105.1875 112.105469 105.082031 114.5 105.5 115.792969 C 105.980469 117.1875 107.25 118.605469 108.6875 119.3125 C 112.6875 121.25 117.5 118.269531 117.5 113.832031 C 117.5 111.332031 116.25 109.292969 114.0625 108.230469 C 112.875 107.625 111 107.394531 109.894531 107.6875 Z M 71.582031 134.019531 C 70.9375 134.667969 70.894531 135.375 71.480469 136.125 C 71.8125 136.542969 72.082031 136.667969 72.75 136.667969 C 74.730469 136.667969 76.3125 137.707031 77.144531 139.5625 C 77.480469 140.3125 77.582031 141.019531 77.625 142.707031 C 77.667969 144.667969 77.707031 144.917969 78.125 145.25 C 78.644531 145.667969 79.417969 145.730469 80 145.417969 C 80.519531 145.125 80.832031 144.105469 80.832031 142.582031 C 80.832031 137.5625 77.855469 133.894531 73.5625 133.582031 C 72.230469 133.5 72.082031 133.519531 71.582031 134.019531 Z M 184.0625 105.8125 C 182.1875 106.292969 180.355469 107.917969 179.6875 109.644531 C 179.144531 111.082031 179.3125 113.582031 180.042969 114.8125 C 181.292969 116.9375 183.144531 118 185.519531 118 C 188.019531 118 189.894531 116.832031 191.042969 114.542969 C 192.980469 110.625 190.269531 106 185.855469 105.707031 C 185.207031 105.667969 184.417969 105.707031 184.0625 105.8125 Z M 184.0625 105.8125 "/>
</g>
</svg>
