<svg height="250" viewBox="0 0 250 250" width="250" xmlns="http://www.w3.org/2000/svg" xmlns:xlink="http://www.w3.org/1999/xlink"><linearGradient id="a" gradientTransform="matrix(1.25 0 0 -1.25 0 252.5)" gradientUnits="userSpaceOnUse" x1="91.2612" x2="150.787201" y1="185.7845" y2="151.417099"><stop offset=".3102" stop-color="#19bed5"/><stop offset=".3796" stop-color="#14bbc7"/><stop offset=".654" stop-color="#00b095"/><stop offset=".7659" stop-color="#01a2a1"/><stop offset=".9727" stop-color="#018eb3"/></linearGradient><linearGradient id="b" gradientTransform="matrix(1.25 0 0 -1.25 0 252.5)" gradientUnits="userSpaceOnUse" x1="69.373703" x2="113.112503" y1="-1.4263" y2="42.3125"><stop offset=".4048" stop-color="#00b095"/><stop offset=".4841" stop-color="#00af98"/><stop offset=".5517" stop-color="#00aca3"/><stop offset=".6148" stop-color="#00a8b4"/><stop offset=".6251" stop-color="#00a7b8"/><stop offset=".6717" stop-color="#01a0b2"/><stop offset=".7412" stop-color="#038ca0"/><stop offset=".8251" stop-color="#076a84"/><stop offset=".9192" stop-color="#0c3d5e"/><stop offset="1" stop-color="#111038"/></linearGradient><linearGradient id="c" gradientTransform="matrix(1.25 0 0 -1.25 0 252.5)" gradientUnits="userSpaceOnUse" x1="5.9218" x2="105.165497" y1="106.691498" y2="70.569702"><stop offset=".5195" stop-color="#4dc4cf"/><stop offset=".585" stop-color="#4cc0cb"/><stop offset=".6568" stop-color="#47b2c0"/><stop offset=".7317" stop-color="#409cae"/><stop offset=".8087" stop-color="#357e94"/><stop offset=".8874" stop-color="#285673"/><stop offset=".9662" stop-color="#18264b"/><stop offset="1" stop-color="#111038"/></linearGradient><linearGradient id="d" gradientTransform="matrix(1.25 0 0 -1.25 0 252.5)" gradientUnits="userSpaceOnUse" x1="34.284599" x2="72.068604" y1="100.473" y2="122.287598"><stop offset=".1615" stop-color="#4dc4cf"/><stop offset=".2531" stop-color="#4abbc8"/><stop offset=".4005" stop-color="#42a4b4"/><stop offset=".5853" stop-color="#357d94"/><stop offset=".7979" stop-color="#244867"/><stop offset="1" stop-color="#111038"/></linearGradient><linearGradient id="e" gradientTransform="matrix(1.25 0 0 -1.25 0 252.5)" gradientUnits="userSpaceOnUse" x1="-187.3629" x2="103.0774" y1="158.300003" y2="158.300003"><stop offset=".824" stop-color="#4dc4cf"/><stop offset=".8593" stop-color="#4cc1cc"/><stop offset=".8858" stop-color="#49b7c4"/><stop offset=".9096" stop-color="#43a7b7"/><stop offset=".9317" stop-color="#3c90a4"/><stop offset=".9527" stop-color="#32738b"/><stop offset=".9728" stop-color="#264e6c"/><stop offset=".9919" stop-color="#172449"/><stop offset="1" stop-color="#111038"/></linearGradient><linearGradient id="f" gradientTransform="matrix(1.25 0 0 -1.25 0 252.5)" gradientUnits="userSpaceOnUse" x1="149.695007" x2="94.835197" y1="65.4562" y2="160.476196"><stop offset=".5674" stop-color="#0488a4"/><stop offset=".6312" stop-color="#1294ac"/><stop offset=".7508" stop-color="#36b1c1"/><stop offset=".8184" stop-color="#4dc4cf"/></linearGradient><linearGradient id="g" gradientTransform="matrix(1.25 0 0 -1.25 0 252.5)" gradientUnits="userSpaceOnUse" x1="150.299393" x2="91.0289" y1="52.2342" y2="86.453903"><stop offset=".2743" stop-color="#0488a4"/><stop offset=".3044" stop-color="#0c8fa9"/><stop offset=".4334" stop-color="#28a6b9"/><stop offset=".5624" stop-color="#3db7c5"/><stop offset=".6903" stop-color="#49c1cd"/><stop offset=".8158" stop-color="#4dc4cf"/></linearGradient><path d="m175.5 75.5c-.125-.375-.375-.75-.5-1.125-18.625-41-44.375-68.875-49.125-73.75-.125-.125-.125-.125-.25-.25 2 11.125 3.625 25.625 3 40.5v1.75c-.125 2.125-.25 4.125-.5 6.25 4.25 4.5 8.875 8.375 12.875 11.5 2.375 1.875 4.375 3.375 6.125 4.625 6.25 4.625 14.25 9.375 22.625 13.25 2.75 1.25 5.5 2.375 8.25 3.5-1-2.25-1.75-4.25-2.5-6.25zm0 0" fill="url(#a)"/><path d="m134 202c-3.875-5.75-7.375-12.5-10.125-19.625-4.75 17.375-13.125 31.375-22 42.25l23.75 25.375v-.125.125l26-28.875c-9.75-7.625-15.5-16-17.625-19.125zm0 0" fill="url(#b)"/><path d="m100.5 99.875c-4.875 4.125-10 7.125-14.875 9.375-1.5 8.875-5.5 17.875-11.25 25.375-3.375 4.375-7.25 8.375-11.625 11.375-2.25 1.625-4.5 2.875-6.75 4 0 .375-.125.75-.125 1.125 0 0 20.875 2 29.375 22 4.875 11.5 2.875 36.5 2.875 36.5l13.75 14.625c8.875-10.875 17.25-24.875 22-42.25.625-2.25 1.125-4.5 1.625-6.75.5-2.5 1-5.125 1.375-7.875.875-7.125 1.75-21.875-1.625-40.625-.125-.625-.25-1.25-.375-1.875-2.25-11.5-6-24.5-12.25-38.125-3.75 5.25-7.875 9.5-12.125 13.125zm0 0" fill="url(#c)"/><path d="m74.375 134.625c5.75-7.5 9.875-16.5 11.25-25.375 1.375-8.375.5-16.625-3.625-23.375-2-3.375-4.625-6-7.625-8.125-5 11.625-9.5 24.375-12.75 37.75-2.75 11-4.625 22.5-5.5 34.5 2.25-1.125 4.5-2.375 6.75-4 4.375-3.125 8.125-7 11.5-11.375zm0 0" fill="url(#d)"/><path d="m125.5.375c-.25-.375-.25-.375-.375-.375-.25 0-.5.25-.875.5-.125.125-.75.75-.75.75s-28.625 29-49.125 76.5c3 2.125 5.625 4.75 7.625 8.125 4.125 6.75 5 15 3.625 23.375 4.875-2.25 9.875-5.25 14.875-9.375 4.25-3.5 8.375-7.875 12.125-13.125 1.875-2.625 3.625-5.375 5.25-8.5.625-1.125 1.125-2.125 1.625-3.25 4.25-8.25 7.5-16.25 8.5-26.125 0-.125 0 0 0-.125.5-2.75.5-5.625.625-8.375.625-14.75-1-28.875-3.125-40zm0 0" fill="url(#e)"/><path d="m169.75 78c-8.375-3.875-16.375-8.625-22.625-13.25-1.625-1.25-3.75-2.75-6.125-4.625-4.625-3.375-8.875-7.375-12.875-11.5v.125c-1 10-4.25 18-8.5 26.25-.5 1.25-1.125 2.375-1.75 3.625-1.625 3.125-3.375 5.875-5.25 8.5 6.25 13.75 10 26.625 12.25 38.125.875-1 1.75-1.875 2.75-2.75 11.5-9.75 29.25-6.25 35.5-4.75-1.25-2.5-2.125-5.125-2.625-8.75-1.125-7.25-.5-19 6-27.25 1-1.625 2.125-2.75 3.25-3.75zm0 0" fill="url(#f)"/><path d="m184.5 136c-5.5-2.25-12.625-5.75-16.875-11.25-2-2.625-3.5-4.75-4.625-6.875-6.25-1.5-24-5-35.5 4.75-1 .875-1.875 1.75-2.75 2.75l.375 1.875c3.375 18.875 2.625 33.5 1.625 40.625-.375 2.625-.875 5.25-1.375 7.875-.5 2.25-1 4.5-1.625 6.75 2.75 7.125 6.25 13.875 10.125 19.625 2.125 3.125 7.875 11.375 17.625 19.125l10-11.125s-2.125-25 2.875-36.5c8.625-20 29.375-22 29.375-22-.125-4.375-.5-8.75-1-13-2.75-.875-6.625-2-8.25-2.625zm0 0" fill="url(#g)"/><path d="m192.625 136.75c-2.375-20-7.875-38.5-14.75-55.25-2.75-1-5.625-2.25-8.25-3.5-1 1-2.125 2.125-3.25 3.625-6.5 8.375-7.125 20-6 27.25.625 3.75 1.375 6.375 2.625 8.75 1.125 2.25 2.625 4.25 4.625 6.875 4.25 5.5 11.375 9.125 16.875 11.25 1.625.625 5.5 1.75 8.375 2.5-.125-.375-.125-.875-.25-1.5zm0 0" fill="#4dc4cf"/></svg>