
<svg xmlns="http://www.w3.org/2000/svg" xmlns:xlink="http://www.w3.org/1999/xlink" width="250px" height="250px" viewBox="0 0 250 250" version="1.1">
<g id="surface1">
<path style=" stroke:none;fill-rule:nonzero;fill:rgb(96.078432%,84.705883%,20.392157%);fill-opacity:1;" d="M 250 125 C 250 194.035156 194.035156 250 125 250 C 55.964844 250 0 194.035156 0 125 C 0 55.964844 55.964844 0 125 0 C 194.035156 0 250 55.964844 250 125 Z M 250 125 "/>
<path style=" stroke:none;fill-rule:nonzero;fill:rgb(80.000001%,56.078434%,7.058824%);fill-opacity:1;" d="M 232.558594 125 C 232.558594 184.402344 184.402344 232.558594 125 232.558594 C 65.597656 232.558594 17.441406 184.402344 17.441406 125 C 17.441406 65.597656 65.597656 17.441406 125 17.441406 C 184.402344 17.441406 232.558594 65.597656 232.558594 125 Z M 232.558594 125 "/>
<path style=" stroke:none;fill-rule:nonzero;fill:rgb(96.078432%,84.705883%,20.392157%);fill-opacity:1;" d="M 201.746094 125 C 201.746094 167.382812 167.382812 201.746094 125 201.746094 C 82.617188 201.746094 48.253906 167.382812 48.253906 125 C 48.253906 82.617188 82.617188 48.253906 125 48.253906 C 167.382812 48.253906 201.746094 82.617188 201.746094 125 Z M 201.746094 125 "/>
<path style=" stroke:none;fill-rule:nonzero;fill:rgb(80.000001%,56.078434%,7.058824%);fill-opacity:1;" d="M 119.1875 112.210938 L 123.835938 106.394531 L 100.582031 106.394531 L 104.652344 112.210938 Z M 90.117188 91.859375 L 134.882812 91.859375 L 139.535156 86.046875 L 86.046875 86.046875 Z M 150 86.046875 L 139.535156 86.046875 L 139.535156 112.210938 L 167.441406 112.210938 L 139.535156 131.976562 L 139.535156 152.90625 L 117.441406 137.210938 L 79.070312 163.953125 L 133.722656 163.953125 C 150.582031 163.953125 167.441406 151.164062 172.09375 134.300781 L 175.582031 118.605469 C 179.652344 100.582031 168.023438 86.046875 150 86.046875 Z M 131.394531 95.929688 L 93.605469 95.929688 L 97.675781 101.746094 L 126.746094 101.746094 Z M 131.394531 95.929688 "/>
</g>
</svg>
