<!-- Generator: Adobe Illustrator 25.0.1, SVG Export Plug-In . SVG Version: 6.00 Build 0)  -->
<svg xmlns="http://www.w3.org/2000/svg" xmlns:xlink="http://www.w3.org/1999/xlink" width="250px" height="250px" viewBox="0 0 250 250" version="1.1">
<defs>
<linearGradient id="linear0" gradientUnits="userSpaceOnUse" x1="261.33551" y1="730.921326" x2="537.522583" y2="30.981501" gradientTransform="matrix(0.317098,0,0,0.317098,0,0)">
<stop offset="0" style="stop-color:rgb(92.156863%,36.862746%,34.117648%);stop-opacity:1;"/>
<stop offset="0.9243" style="stop-color:rgb(95.686275%,79.607844%,32.941177%);stop-opacity:1;"/>
</linearGradient>
<linearGradient id="linear1" gradientUnits="userSpaceOnUse" x1="187.981705" y1="603.179504" x2="582.441528" y2="241.591293" gradientTransform="matrix(0.311866,0.00523968,0.00523968,0.311866,3.027397,-3.027397)">
<stop offset="0" style="stop-color:rgb(78.039217%,46.666667%,16.862746%);stop-opacity:0;"/>
<stop offset="1" style="stop-color:rgb(78.039217%,46.666667%,16.862746%);stop-opacity:1;"/>
</linearGradient>
<clipPath id="clip1">
  <path d="M 73 34 L 218 34 L 218 186 L 73 186 Z M 73 34 "/>
</clipPath>
<clipPath id="clip2">
  <path d="M 213.914062 102.550781 C 212.964844 98.996094 209.730469 96.523438 206.050781 96.523438 C 205.320312 96.523438 204.625 96.621094 203.925781 96.808594 C 201.832031 97.378906 200.058594 98.710938 198.980469 100.613281 C 197.902344 102.484375 197.617188 104.707031 198.15625 106.796875 C 206.96875 139.648438 192.605469 174.59375 163.210938 191.75 C 162.324219 192.257812 161.308594 192.542969 160.261719 192.542969 C 158.199219 192.542969 156.265625 191.433594 155.21875 189.65625 C 153.632812 186.960938 154.457031 183.535156 157.058594 181.824219 L 157.152344 181.761719 C 157.21875 181.730469 157.28125 181.695312 157.34375 181.632812 L 157.4375 181.570312 C 157.472656 181.539062 157.503906 181.539062 157.535156 181.507812 L 157.820312 181.347656 C 169.519531 174.371094 178.875 163.558594 184.140625 150.90625 C 189.625 137.746094 190.574219 123.542969 186.898438 109.777344 C 185.945312 106.226562 182.710938 103.722656 179.035156 103.722656 C 178.335938 103.722656 177.605469 103.816406 176.910156 104.007812 C 172.566406 105.179688 169.996094 109.652344 171.136719 113.996094 L 171.199219 114.28125 L 171.199219 114.3125 C 171.199219 114.34375 171.199219 114.378906 171.199219 114.378906 C 171.773438 117.359375 169.933594 120.308594 166.984375 121.101562 C 166.476562 121.226562 165.96875 121.289062 165.460938 121.289062 C 163.082031 121.289062 160.894531 119.800781 160.039062 117.578125 L 160.039062 117.546875 C 159.976562 117.359375 159.914062 117.167969 159.847656 116.945312 C 159.816406 116.851562 159.785156 116.753906 159.753906 116.660156 L 159.660156 116.40625 C 157.535156 108.988281 153 102.296875 146.816406 97.570312 C 140.441406 92.6875 132.832031 90.121094 124.777344 90.121094 C 120.433594 90.121094 116.152344 90.878906 112.125 92.402344 L 112 92.433594 L 111.902344 92.464844 C 111.585938 92.527344 111.238281 92.5625 110.921875 92.5625 C 108.449219 92.5625 106.226562 90.976562 105.433594 88.660156 C 104.421875 85.742188 105.847656 82.539062 108.734375 81.367188 C 108.765625 81.335938 108.828125 81.335938 108.890625 81.304688 L 108.953125 81.273438 C 109.050781 81.242188 109.144531 81.207031 109.238281 81.175781 L 109.304688 81.144531 C 109.335938 81.144531 109.335938 81.113281 109.367188 81.113281 L 109.429688 81.113281 C 114.378906 79.433594 119.546875 78.578125 124.808594 78.578125 C 137.558594 78.578125 149.542969 83.523438 158.550781 92.527344 C 160.101562 94.050781 162.132812 94.90625 164.320312 94.90625 C 166.476562 94.90625 168.539062 94.050781 170.089844 92.527344 C 173.230469 89.390625 173.261719 84.253906 170.15625 81.082031 L 169.871094 80.796875 C 167.808594 78.480469 167.902344 74.960938 170.089844 72.773438 C 171.199219 71.664062 172.660156 71.0625 174.214844 71.0625 C 175.640625 71.0625 177.035156 71.570312 178.082031 72.519531 L 178.398438 72.804688 C 179.921875 74.296875 181.949219 75.121094 184.105469 75.121094 C 186.296875 75.121094 188.324219 74.265625 189.847656 72.742188 C 191.398438 71.21875 192.226562 69.160156 192.226562 66.972656 C 192.226562 64.78125 191.367188 62.753906 189.847656 61.230469 C 172.5 43.886719 149.417969 34.339844 124.808594 34.339844 C 100.203125 34.339844 77.117188 43.886719 59.773438 61.230469 C 58.21875 62.785156 57.394531 64.816406 57.394531 66.972656 C 57.394531 69.160156 58.25 71.1875 59.773438 72.710938 C 61.328125 74.265625 63.355469 75.089844 65.511719 75.089844 C 67.699219 75.089844 69.730469 74.234375 71.285156 72.710938 C 85.554688 58.441406 104.546875 50.578125 124.808594 50.578125 C 138 50.578125 150.96875 54 162.324219 60.503906 C 163.6875 61.261719 164.636719 62.53125 165.050781 64.023438 C 165.460938 65.511719 165.269531 67.097656 164.480469 68.460938 C 163.433594 70.269531 161.496094 71.410156 159.40625 71.410156 C 158.484375 71.410156 157.566406 71.1875 156.773438 70.777344 L 156.679688 70.710938 C 156.613281 70.679688 156.550781 70.648438 156.488281 70.585938 L 156.203125 70.425781 C 146.65625 65.070312 135.8125 62.214844 124.777344 62.214844 C 107.65625 62.214844 91.578125 68.875 79.496094 80.921875 C 77.941406 82.476562 77.117188 84.507812 77.117188 86.695312 C 77.117188 88.882812 77.972656 90.910156 79.496094 92.464844 C 81.019531 93.988281 83.078125 94.84375 85.234375 94.84375 C 87.390625 94.84375 89.453125 93.988281 91.007812 92.464844 C 91.070312 92.402344 91.132812 92.339844 91.199219 92.277344 L 91.324219 92.148438 C 92.371094 91.230469 93.734375 90.722656 95.128906 90.722656 C 96.683594 90.722656 98.140625 91.324219 99.25 92.433594 C 101.1875 94.367188 101.503906 97.378906 100.042969 99.664062 L 99.09375 100.710938 C 92.277344 107.558594 88.535156 116.628906 88.535156 126.300781 C 88.535156 137.207031 93.386719 147.449219 101.851562 154.363281 L 101.945312 154.425781 L 102.011719 154.523438 C 103.785156 156.710938 103.722656 159.847656 101.882812 161.972656 C 100.773438 163.242188 99.15625 164.003906 97.476562 164.003906 C 96.175781 164.003906 94.90625 163.558594 93.925781 162.796875 L 93.796875 162.671875 C 93.703125 162.609375 93.640625 162.511719 93.542969 162.449219 L 93.386719 162.289062 C 86.789062 156.519531 81.90625 149.035156 79.273438 140.632812 C 76.546875 131.976562 76.355469 122.78125 78.703125 114.027344 C 79.878906 109.683594 77.277344 105.214844 72.933594 104.039062 C 72.234375 103.847656 71.539062 103.753906 70.808594 103.753906 C 67.160156 103.753906 63.957031 106.195312 62.976562 109.714844 L 62.878906 110.128906 C 62.085938 112.539062 59.867188 114.125 57.332031 114.125 C 56.824219 114.125 56.316406 114.058594 55.808594 113.933594 C 52.828125 113.140625 50.988281 110.128906 51.59375 107.117188 L 51.6875 106.703125 C 52.796875 102.390625 50.195312 97.953125 45.914062 96.808594 C 45.21875 96.621094 44.519531 96.523438 43.792969 96.523438 C 40.113281 96.523438 36.878906 98.996094 35.925781 102.550781 C 29.585938 126.238281 32.851562 151.003906 45.15625 172.3125 C 57.457031 193.621094 77.277344 208.839844 100.964844 215.183594 C 101.660156 215.371094 102.359375 215.46875 103.089844 215.46875 C 106.765625 215.46875 110 212.996094 110.953125 209.441406 C 111.523438 207.351562 111.238281 205.128906 110.128906 203.257812 C 109.050781 201.390625 107.273438 200.023438 105.179688 199.453125 C 72.328125 190.640625 49.246094 160.738281 49.085938 126.742188 C 49.085938 125.191406 49.6875 123.730469 50.765625 122.621094 C 51.878906 121.511719 53.335938 120.910156 54.890625 120.878906 L 54.921875 120.878906 C 58.027344 120.878906 60.597656 123.289062 60.722656 126.394531 L 60.722656 126.710938 C 60.722656 126.777344 60.722656 126.808594 60.722656 126.871094 L 60.722656 126.933594 C 60.722656 126.964844 60.722656 126.964844 60.722656 126.996094 L 60.722656 127.0625 C 60.882812 140.757812 65.574219 154.300781 73.914062 165.238281 C 82.574219 176.558594 94.398438 184.488281 108.160156 188.199219 C 108.859375 188.386719 109.558594 188.484375 110.285156 188.484375 C 113.964844 188.484375 117.199219 186.007812 118.152344 182.457031 C 119.292969 178.144531 116.722656 173.675781 112.410156 172.5 L 112.378906 172.5 C 112.316406 172.5 112.253906 172.46875 112.222656 172.46875 L 111.96875 172.40625 C 109.113281 171.390625 107.464844 168.316406 108.257812 165.398438 C 108.953125 162.863281 111.269531 161.085938 113.871094 161.085938 C 114.027344 161.085938 114.1875 161.085938 114.34375 161.117188 L 115.390625 161.371094 C 118.4375 162.164062 121.574219 162.574219 124.714844 162.574219 C 140.949219 162.574219 155.316406 151.667969 159.628906 136.035156 L 159.691406 135.84375 C 159.722656 135.71875 159.753906 135.558594 159.785156 135.433594 L 159.816406 135.304688 C 159.816406 135.273438 159.847656 135.210938 159.847656 135.179688 L 159.914062 134.957031 C 159.945312 134.796875 160.007812 134.640625 160.039062 134.480469 L 160.039062 134.449219 C 160.101562 134.164062 160.167969 133.878906 160.230469 133.59375 L 160.292969 133.339844 C 160.292969 133.308594 160.292969 133.277344 160.324219 133.246094 L 160.355469 133.179688 C 160.355469 133.148438 160.355469 133.117188 160.386719 133.085938 L 160.417969 132.960938 C 160.453125 132.738281 160.515625 132.546875 160.578125 132.355469 C 161.308594 129.914062 163.621094 128.234375 166.160156 128.234375 C 166.507812 128.234375 166.886719 128.265625 167.238281 128.328125 C 170.28125 128.898438 172.34375 131.753906 171.929688 134.828125 L 171.929688 134.863281 C 171.929688 134.894531 171.929688 134.957031 171.898438 135.019531 L 171.867188 135.117188 C 171.867188 135.210938 171.835938 135.273438 171.835938 135.367188 L 171.835938 135.433594 C 171.835938 135.464844 171.804688 135.527344 171.804688 135.558594 L 171.804688 135.621094 C 170.089844 144.214844 166.03125 152.175781 160.101562 158.644531 C 153.984375 165.335938 146.117188 170.089844 137.335938 172.4375 C 135.242188 173.007812 133.464844 174.339844 132.386719 176.242188 C 131.308594 178.113281 131.023438 180.332031 131.5625 182.425781 C 132.515625 185.976562 135.75 188.453125 139.429688 188.453125 C 140.09375 188.453125 140.792969 188.355469 141.457031 188.199219 L 141.871094 188.101562 C 142.25 188.007812 142.664062 187.976562 143.074219 187.976562 C 145.707031 187.976562 148.019531 189.75 148.6875 192.289062 C 149.480469 195.269531 147.832031 198.34375 144.882812 199.328125 L 144.46875 199.453125 C 140.1875 200.628906 137.652344 205.097656 138.792969 209.410156 C 139.746094 212.964844 142.980469 215.4375 146.65625 215.4375 C 147.355469 215.4375 148.085938 215.339844 148.78125 215.152344 C 172.46875 208.808594 192.289062 193.589844 204.589844 172.277344 C 216.988281 151.035156 220.257812 126.238281 213.914062 102.550781 Z M 124.398438 106.449219 L 124.460938 106.449219 C 124.90625 106.449219 125.347656 106.449219 125.886719 106.480469 L 126.425781 106.511719 C 136.765625 107.304688 144.882812 116.058594 144.882812 126.425781 C 144.882812 132.925781 141.679688 139.046875 136.351562 142.789062 L 135.875 143.105469 L 135.71875 143.203125 C 135.589844 143.296875 135.433594 143.359375 135.304688 143.457031 L 134.828125 143.742188 C 134.671875 143.835938 134.542969 143.898438 134.355469 143.996094 C 134.101562 144.121094 133.910156 144.214844 133.71875 144.3125 L 133.6875 144.3125 C 132.132812 145.074219 130.484375 145.644531 128.742188 145.992188 C 126.171875 146.5 123.414062 146.5 120.847656 145.960938 L 119.957031 145.738281 C 111.238281 143.519531 104.925781 135.367188 104.925781 126.394531 C 104.925781 124.082031 105.308594 121.796875 106.101562 119.640625 C 106.988281 117.199219 108.320312 114.949219 110.097656 113.015625 L 110.160156 112.917969 C 113.742188 108.988281 118.625 106.671875 123.921875 106.417969 C 124.082031 106.449219 124.238281 106.449219 124.398438 106.449219 Z M 124.398438 106.449219 "/>
</clipPath>
<clipPath id="clip3">
  <path d="M 32 43 L 205 43 L 205 216 L 32 216 Z M 32 43 "/>
</clipPath>
<clipPath id="clip4">
  <path d="M 213.914062 102.550781 C 212.964844 98.996094 209.730469 96.523438 206.050781 96.523438 C 205.320312 96.523438 204.625 96.621094 203.925781 96.808594 C 201.832031 97.378906 200.058594 98.710938 198.980469 100.613281 C 197.902344 102.484375 197.617188 104.707031 198.15625 106.796875 C 206.96875 139.648438 192.605469 174.59375 163.210938 191.75 C 162.324219 192.257812 161.308594 192.542969 160.261719 192.542969 C 158.199219 192.542969 156.265625 191.433594 155.21875 189.65625 C 153.632812 186.960938 154.457031 183.535156 157.058594 181.824219 L 157.152344 181.761719 C 157.21875 181.730469 157.28125 181.695312 157.34375 181.632812 L 157.4375 181.570312 C 157.472656 181.539062 157.503906 181.539062 157.535156 181.507812 L 157.820312 181.347656 C 169.519531 174.371094 178.875 163.558594 184.140625 150.90625 C 189.625 137.746094 190.574219 123.542969 186.898438 109.777344 C 185.945312 106.226562 182.710938 103.722656 179.035156 103.722656 C 178.335938 103.722656 177.605469 103.816406 176.910156 104.007812 C 172.566406 105.179688 169.996094 109.652344 171.136719 113.996094 L 171.199219 114.28125 L 171.199219 114.3125 C 171.199219 114.34375 171.199219 114.378906 171.199219 114.378906 C 171.773438 117.359375 169.933594 120.308594 166.984375 121.101562 C 166.476562 121.226562 165.96875 121.289062 165.460938 121.289062 C 163.082031 121.289062 160.894531 119.800781 160.039062 117.578125 L 160.039062 117.546875 C 159.976562 117.359375 159.914062 117.167969 159.847656 116.945312 C 159.816406 116.851562 159.785156 116.753906 159.753906 116.660156 L 159.660156 116.40625 C 157.535156 108.988281 153 102.296875 146.816406 97.570312 C 140.441406 92.6875 132.832031 90.121094 124.777344 90.121094 C 120.433594 90.121094 116.152344 90.878906 112.125 92.402344 L 112 92.433594 L 111.902344 92.464844 C 111.585938 92.527344 111.238281 92.5625 110.921875 92.5625 C 108.449219 92.5625 106.226562 90.976562 105.433594 88.660156 C 104.421875 85.742188 105.847656 82.539062 108.734375 81.367188 C 108.765625 81.335938 108.828125 81.335938 108.890625 81.304688 L 108.953125 81.273438 C 109.050781 81.242188 109.144531 81.207031 109.238281 81.175781 L 109.304688 81.144531 C 109.335938 81.144531 109.335938 81.113281 109.367188 81.113281 L 109.429688 81.113281 C 114.378906 79.433594 119.546875 78.578125 124.808594 78.578125 C 137.558594 78.578125 149.542969 83.523438 158.550781 92.527344 C 160.101562 94.050781 162.132812 94.90625 164.320312 94.90625 C 166.476562 94.90625 168.539062 94.050781 170.089844 92.527344 C 173.230469 89.390625 173.261719 84.253906 170.15625 81.082031 L 169.871094 80.796875 C 167.808594 78.480469 167.902344 74.960938 170.089844 72.773438 C 171.199219 71.664062 172.660156 71.0625 174.214844 71.0625 C 175.640625 71.0625 177.035156 71.570312 178.082031 72.519531 L 178.398438 72.804688 C 179.921875 74.296875 181.949219 75.121094 184.105469 75.121094 C 186.296875 75.121094 188.324219 74.265625 189.847656 72.742188 C 191.398438 71.21875 192.226562 69.160156 192.226562 66.972656 C 192.226562 64.78125 191.367188 62.753906 189.847656 61.230469 C 172.5 43.886719 149.417969 34.339844 124.808594 34.339844 C 100.203125 34.339844 77.117188 43.886719 59.773438 61.230469 C 58.21875 62.785156 57.394531 64.816406 57.394531 66.972656 C 57.394531 69.160156 58.25 71.1875 59.773438 72.710938 C 61.328125 74.265625 63.355469 75.089844 65.511719 75.089844 C 67.699219 75.089844 69.730469 74.234375 71.285156 72.710938 C 85.554688 58.441406 104.546875 50.578125 124.808594 50.578125 C 138 50.578125 150.96875 54 162.324219 60.503906 C 163.6875 61.261719 164.636719 62.53125 165.050781 64.023438 C 165.460938 65.511719 165.269531 67.097656 164.480469 68.460938 C 163.433594 70.269531 161.496094 71.410156 159.40625 71.410156 C 158.484375 71.410156 157.566406 71.1875 156.773438 70.777344 L 156.679688 70.710938 C 156.613281 70.679688 156.550781 70.648438 156.488281 70.585938 L 156.203125 70.425781 C 146.65625 65.070312 135.8125 62.214844 124.777344 62.214844 C 107.65625 62.214844 91.578125 68.875 79.496094 80.921875 C 77.941406 82.476562 77.117188 84.507812 77.117188 86.695312 C 77.117188 88.882812 77.972656 90.910156 79.496094 92.464844 C 81.019531 93.988281 83.078125 94.84375 85.234375 94.84375 C 87.390625 94.84375 89.453125 93.988281 91.007812 92.464844 C 91.070312 92.402344 91.132812 92.339844 91.199219 92.277344 L 91.324219 92.148438 C 92.371094 91.230469 93.734375 90.722656 95.128906 90.722656 C 96.683594 90.722656 98.140625 91.324219 99.25 92.433594 C 101.1875 94.367188 101.503906 97.378906 100.042969 99.664062 L 99.09375 100.710938 C 92.277344 107.558594 88.535156 116.628906 88.535156 126.300781 C 88.535156 137.207031 93.386719 147.449219 101.851562 154.363281 L 101.945312 154.425781 L 102.011719 154.523438 C 103.785156 156.710938 103.722656 159.847656 101.882812 161.972656 C 100.773438 163.242188 99.15625 164.003906 97.476562 164.003906 C 96.175781 164.003906 94.90625 163.558594 93.925781 162.796875 L 93.796875 162.671875 C 93.703125 162.609375 93.640625 162.511719 93.542969 162.449219 L 93.386719 162.289062 C 86.789062 156.519531 81.90625 149.035156 79.273438 140.632812 C 76.546875 131.976562 76.355469 122.78125 78.703125 114.027344 C 79.878906 109.683594 77.277344 105.214844 72.933594 104.039062 C 72.234375 103.847656 71.539062 103.753906 70.808594 103.753906 C 67.160156 103.753906 63.957031 106.195312 62.976562 109.714844 L 62.878906 110.128906 C 62.085938 112.539062 59.867188 114.125 57.332031 114.125 C 56.824219 114.125 56.316406 114.058594 55.808594 113.933594 C 52.828125 113.140625 50.988281 110.128906 51.59375 107.117188 L 51.6875 106.703125 C 52.796875 102.390625 50.195312 97.953125 45.914062 96.808594 C 45.21875 96.621094 44.519531 96.523438 43.792969 96.523438 C 40.113281 96.523438 36.878906 98.996094 35.925781 102.550781 C 29.585938 126.238281 32.851562 151.003906 45.15625 172.3125 C 57.457031 193.621094 77.277344 208.839844 100.964844 215.183594 C 101.660156 215.371094 102.359375 215.46875 103.089844 215.46875 C 106.765625 215.46875 110 212.996094 110.953125 209.441406 C 111.523438 207.351562 111.238281 205.128906 110.128906 203.257812 C 109.050781 201.390625 107.273438 200.023438 105.179688 199.453125 C 72.328125 190.640625 49.246094 160.738281 49.085938 126.742188 C 49.085938 125.191406 49.6875 123.730469 50.765625 122.621094 C 51.878906 121.511719 53.335938 120.910156 54.890625 120.878906 L 54.921875 120.878906 C 58.027344 120.878906 60.597656 123.289062 60.722656 126.394531 L 60.722656 126.710938 C 60.722656 126.777344 60.722656 126.808594 60.722656 126.871094 L 60.722656 126.933594 C 60.722656 126.964844 60.722656 126.964844 60.722656 126.996094 L 60.722656 127.0625 C 60.882812 140.757812 65.574219 154.300781 73.914062 165.238281 C 82.574219 176.558594 94.398438 184.488281 108.160156 188.199219 C 108.859375 188.386719 109.558594 188.484375 110.285156 188.484375 C 113.964844 188.484375 117.199219 186.007812 118.152344 182.457031 C 119.292969 178.144531 116.722656 173.675781 112.410156 172.5 L 112.378906 172.5 C 112.316406 172.5 112.253906 172.46875 112.222656 172.46875 L 111.96875 172.40625 C 109.113281 171.390625 107.464844 168.316406 108.257812 165.398438 C 108.953125 162.863281 111.269531 161.085938 113.871094 161.085938 C 114.027344 161.085938 114.1875 161.085938 114.34375 161.117188 L 115.390625 161.371094 C 118.4375 162.164062 121.574219 162.574219 124.714844 162.574219 C 140.949219 162.574219 155.316406 151.667969 159.628906 136.035156 L 159.691406 135.84375 C 159.722656 135.71875 159.753906 135.558594 159.785156 135.433594 L 159.816406 135.304688 C 159.816406 135.273438 159.847656 135.210938 159.847656 135.179688 L 159.914062 134.957031 C 159.945312 134.796875 160.007812 134.640625 160.039062 134.480469 L 160.039062 134.449219 C 160.101562 134.164062 160.167969 133.878906 160.230469 133.59375 L 160.292969 133.339844 C 160.292969 133.308594 160.292969 133.277344 160.324219 133.246094 L 160.355469 133.179688 C 160.355469 133.148438 160.355469 133.117188 160.386719 133.085938 L 160.417969 132.960938 C 160.453125 132.738281 160.515625 132.546875 160.578125 132.355469 C 161.308594 129.914062 163.621094 128.234375 166.160156 128.234375 C 166.507812 128.234375 166.886719 128.265625 167.238281 128.328125 C 170.28125 128.898438 172.34375 131.753906 171.929688 134.828125 L 171.929688 134.863281 C 171.929688 134.894531 171.929688 134.957031 171.898438 135.019531 L 171.867188 135.117188 C 171.867188 135.210938 171.835938 135.273438 171.835938 135.367188 L 171.835938 135.433594 C 171.835938 135.464844 171.804688 135.527344 171.804688 135.558594 L 171.804688 135.621094 C 170.089844 144.214844 166.03125 152.175781 160.101562 158.644531 C 153.984375 165.335938 146.117188 170.089844 137.335938 172.4375 C 135.242188 173.007812 133.464844 174.339844 132.386719 176.242188 C 131.308594 178.113281 131.023438 180.332031 131.5625 182.425781 C 132.515625 185.976562 135.75 188.453125 139.429688 188.453125 C 140.09375 188.453125 140.792969 188.355469 141.457031 188.199219 L 141.871094 188.101562 C 142.25 188.007812 142.664062 187.976562 143.074219 187.976562 C 145.707031 187.976562 148.019531 189.75 148.6875 192.289062 C 149.480469 195.269531 147.832031 198.34375 144.882812 199.328125 L 144.46875 199.453125 C 140.1875 200.628906 137.652344 205.097656 138.792969 209.410156 C 139.746094 212.964844 142.980469 215.4375 146.65625 215.4375 C 147.355469 215.4375 148.085938 215.339844 148.78125 215.152344 C 172.46875 208.808594 192.289062 193.589844 204.589844 172.277344 C 216.988281 151.035156 220.257812 126.238281 213.914062 102.550781 Z M 124.398438 106.449219 L 124.460938 106.449219 C 124.90625 106.449219 125.347656 106.449219 125.886719 106.480469 L 126.425781 106.511719 C 136.765625 107.304688 144.882812 116.058594 144.882812 126.425781 C 144.882812 132.925781 141.679688 139.046875 136.351562 142.789062 L 135.875 143.105469 L 135.71875 143.203125 C 135.589844 143.296875 135.433594 143.359375 135.304688 143.457031 L 134.828125 143.742188 C 134.671875 143.835938 134.542969 143.898438 134.355469 143.996094 C 134.101562 144.121094 133.910156 144.214844 133.71875 144.3125 L 133.6875 144.3125 C 132.132812 145.074219 130.484375 145.644531 128.742188 145.992188 C 126.171875 146.5 123.414062 146.5 120.847656 145.960938 L 119.957031 145.738281 C 111.238281 143.519531 104.925781 135.367188 104.925781 126.394531 C 104.925781 124.082031 105.308594 121.796875 106.101562 119.640625 C 106.988281 117.199219 108.320312 114.949219 110.097656 113.015625 L 110.160156 112.917969 C 113.742188 108.988281 118.625 106.671875 123.921875 106.417969 C 124.082031 106.449219 124.238281 106.449219 124.398438 106.449219 Z M 124.398438 106.449219 "/>
</clipPath>
<clipPath id="clip5">
  <path d="M 134 34 L 218 34 L 218 139 L 134 139 Z M 134 34 "/>
</clipPath>
<clipPath id="clip6">
  <path d="M 213.914062 102.550781 C 212.964844 98.996094 209.730469 96.523438 206.050781 96.523438 C 205.320312 96.523438 204.625 96.621094 203.925781 96.808594 C 201.832031 97.378906 200.058594 98.710938 198.980469 100.613281 C 197.902344 102.484375 197.617188 104.707031 198.15625 106.796875 C 206.96875 139.648438 192.605469 174.59375 163.210938 191.75 C 162.324219 192.257812 161.308594 192.542969 160.261719 192.542969 C 158.199219 192.542969 156.265625 191.433594 155.21875 189.65625 C 153.632812 186.960938 154.457031 183.535156 157.058594 181.824219 L 157.152344 181.761719 C 157.21875 181.730469 157.28125 181.695312 157.34375 181.632812 L 157.4375 181.570312 C 157.472656 181.539062 157.503906 181.539062 157.535156 181.507812 L 157.820312 181.347656 C 169.519531 174.371094 178.875 163.558594 184.140625 150.90625 C 189.625 137.746094 190.574219 123.542969 186.898438 109.777344 C 185.945312 106.226562 182.710938 103.722656 179.035156 103.722656 C 178.335938 103.722656 177.605469 103.816406 176.910156 104.007812 C 172.566406 105.179688 169.996094 109.652344 171.136719 113.996094 L 171.199219 114.28125 L 171.199219 114.3125 C 171.199219 114.34375 171.199219 114.378906 171.199219 114.378906 C 171.773438 117.359375 169.933594 120.308594 166.984375 121.101562 C 166.476562 121.226562 165.96875 121.289062 165.460938 121.289062 C 163.082031 121.289062 160.894531 119.800781 160.039062 117.578125 L 160.039062 117.546875 C 159.976562 117.359375 159.914062 117.167969 159.847656 116.945312 C 159.816406 116.851562 159.785156 116.753906 159.753906 116.660156 L 159.660156 116.40625 C 157.535156 108.988281 153 102.296875 146.816406 97.570312 C 140.441406 92.6875 132.832031 90.121094 124.777344 90.121094 C 120.433594 90.121094 116.152344 90.878906 112.125 92.402344 L 112 92.433594 L 111.902344 92.464844 C 111.585938 92.527344 111.238281 92.5625 110.921875 92.5625 C 108.449219 92.5625 106.226562 90.976562 105.433594 88.660156 C 104.421875 85.742188 105.847656 82.539062 108.734375 81.367188 C 108.765625 81.335938 108.828125 81.335938 108.890625 81.304688 L 108.953125 81.273438 C 109.050781 81.242188 109.144531 81.207031 109.238281 81.175781 L 109.304688 81.144531 C 109.335938 81.144531 109.335938 81.113281 109.367188 81.113281 L 109.429688 81.113281 C 114.378906 79.433594 119.546875 78.578125 124.808594 78.578125 C 137.558594 78.578125 149.542969 83.523438 158.550781 92.527344 C 160.101562 94.050781 162.132812 94.90625 164.320312 94.90625 C 166.476562 94.90625 168.539062 94.050781 170.089844 92.527344 C 173.230469 89.390625 173.261719 84.253906 170.15625 81.082031 L 169.871094 80.796875 C 167.808594 78.480469 167.902344 74.960938 170.089844 72.773438 C 171.199219 71.664062 172.660156 71.0625 174.214844 71.0625 C 175.640625 71.0625 177.035156 71.570312 178.082031 72.519531 L 178.398438 72.804688 C 179.921875 74.296875 181.949219 75.121094 184.105469 75.121094 C 186.296875 75.121094 188.324219 74.265625 189.847656 72.742188 C 191.398438 71.21875 192.226562 69.160156 192.226562 66.972656 C 192.226562 64.78125 191.367188 62.753906 189.847656 61.230469 C 172.5 43.886719 149.417969 34.339844 124.808594 34.339844 C 100.203125 34.339844 77.117188 43.886719 59.773438 61.230469 C 58.21875 62.785156 57.394531 64.816406 57.394531 66.972656 C 57.394531 69.160156 58.25 71.1875 59.773438 72.710938 C 61.328125 74.265625 63.355469 75.089844 65.511719 75.089844 C 67.699219 75.089844 69.730469 74.234375 71.285156 72.710938 C 85.554688 58.441406 104.546875 50.578125 124.808594 50.578125 C 138 50.578125 150.96875 54 162.324219 60.503906 C 163.6875 61.261719 164.636719 62.53125 165.050781 64.023438 C 165.460938 65.511719 165.269531 67.097656 164.480469 68.460938 C 163.433594 70.269531 161.496094 71.410156 159.40625 71.410156 C 158.484375 71.410156 157.566406 71.1875 156.773438 70.777344 L 156.679688 70.710938 C 156.613281 70.679688 156.550781 70.648438 156.488281 70.585938 L 156.203125 70.425781 C 146.65625 65.070312 135.8125 62.214844 124.777344 62.214844 C 107.65625 62.214844 91.578125 68.875 79.496094 80.921875 C 77.941406 82.476562 77.117188 84.507812 77.117188 86.695312 C 77.117188 88.882812 77.972656 90.910156 79.496094 92.464844 C 81.019531 93.988281 83.078125 94.84375 85.234375 94.84375 C 87.390625 94.84375 89.453125 93.988281 91.007812 92.464844 C 91.070312 92.402344 91.132812 92.339844 91.199219 92.277344 L 91.324219 92.148438 C 92.371094 91.230469 93.734375 90.722656 95.128906 90.722656 C 96.683594 90.722656 98.140625 91.324219 99.25 92.433594 C 101.1875 94.367188 101.503906 97.378906 100.042969 99.664062 L 99.09375 100.710938 C 92.277344 107.558594 88.535156 116.628906 88.535156 126.300781 C 88.535156 137.207031 93.386719 147.449219 101.851562 154.363281 L 101.945312 154.425781 L 102.011719 154.523438 C 103.785156 156.710938 103.722656 159.847656 101.882812 161.972656 C 100.773438 163.242188 99.15625 164.003906 97.476562 164.003906 C 96.175781 164.003906 94.90625 163.558594 93.925781 162.796875 L 93.796875 162.671875 C 93.703125 162.609375 93.640625 162.511719 93.542969 162.449219 L 93.386719 162.289062 C 86.789062 156.519531 81.90625 149.035156 79.273438 140.632812 C 76.546875 131.976562 76.355469 122.78125 78.703125 114.027344 C 79.878906 109.683594 77.277344 105.214844 72.933594 104.039062 C 72.234375 103.847656 71.539062 103.753906 70.808594 103.753906 C 67.160156 103.753906 63.957031 106.195312 62.976562 109.714844 L 62.878906 110.128906 C 62.085938 112.539062 59.867188 114.125 57.332031 114.125 C 56.824219 114.125 56.316406 114.058594 55.808594 113.933594 C 52.828125 113.140625 50.988281 110.128906 51.59375 107.117188 L 51.6875 106.703125 C 52.796875 102.390625 50.195312 97.953125 45.914062 96.808594 C 45.21875 96.621094 44.519531 96.523438 43.792969 96.523438 C 40.113281 96.523438 36.878906 98.996094 35.925781 102.550781 C 29.585938 126.238281 32.851562 151.003906 45.15625 172.3125 C 57.457031 193.621094 77.277344 208.839844 100.964844 215.183594 C 101.660156 215.371094 102.359375 215.46875 103.089844 215.46875 C 106.765625 215.46875 110 212.996094 110.953125 209.441406 C 111.523438 207.351562 111.238281 205.128906 110.128906 203.257812 C 109.050781 201.390625 107.273438 200.023438 105.179688 199.453125 C 72.328125 190.640625 49.246094 160.738281 49.085938 126.742188 C 49.085938 125.191406 49.6875 123.730469 50.765625 122.621094 C 51.878906 121.511719 53.335938 120.910156 54.890625 120.878906 L 54.921875 120.878906 C 58.027344 120.878906 60.597656 123.289062 60.722656 126.394531 L 60.722656 126.710938 C 60.722656 126.777344 60.722656 126.808594 60.722656 126.871094 L 60.722656 126.933594 C 60.722656 126.964844 60.722656 126.964844 60.722656 126.996094 L 60.722656 127.0625 C 60.882812 140.757812 65.574219 154.300781 73.914062 165.238281 C 82.574219 176.558594 94.398438 184.488281 108.160156 188.199219 C 108.859375 188.386719 109.558594 188.484375 110.285156 188.484375 C 113.964844 188.484375 117.199219 186.007812 118.152344 182.457031 C 119.292969 178.144531 116.722656 173.675781 112.410156 172.5 L 112.378906 172.5 C 112.316406 172.5 112.253906 172.46875 112.222656 172.46875 L 111.96875 172.40625 C 109.113281 171.390625 107.464844 168.316406 108.257812 165.398438 C 108.953125 162.863281 111.269531 161.085938 113.871094 161.085938 C 114.027344 161.085938 114.1875 161.085938 114.34375 161.117188 L 115.390625 161.371094 C 118.4375 162.164062 121.574219 162.574219 124.714844 162.574219 C 140.949219 162.574219 155.316406 151.667969 159.628906 136.035156 L 159.691406 135.84375 C 159.722656 135.71875 159.753906 135.558594 159.785156 135.433594 L 159.816406 135.304688 C 159.816406 135.273438 159.847656 135.210938 159.847656 135.179688 L 159.914062 134.957031 C 159.945312 134.796875 160.007812 134.640625 160.039062 134.480469 L 160.039062 134.449219 C 160.101562 134.164062 160.167969 133.878906 160.230469 133.59375 L 160.292969 133.339844 C 160.292969 133.308594 160.292969 133.277344 160.324219 133.246094 L 160.355469 133.179688 C 160.355469 133.148438 160.355469 133.117188 160.386719 133.085938 L 160.417969 132.960938 C 160.453125 132.738281 160.515625 132.546875 160.578125 132.355469 C 161.308594 129.914062 163.621094 128.234375 166.160156 128.234375 C 166.507812 128.234375 166.886719 128.265625 167.238281 128.328125 C 170.28125 128.898438 172.34375 131.753906 171.929688 134.828125 L 171.929688 134.863281 C 171.929688 134.894531 171.929688 134.957031 171.898438 135.019531 L 171.867188 135.117188 C 171.867188 135.210938 171.835938 135.273438 171.835938 135.367188 L 171.835938 135.433594 C 171.835938 135.464844 171.804688 135.527344 171.804688 135.558594 L 171.804688 135.621094 C 170.089844 144.214844 166.03125 152.175781 160.101562 158.644531 C 153.984375 165.335938 146.117188 170.089844 137.335938 172.4375 C 135.242188 173.007812 133.464844 174.339844 132.386719 176.242188 C 131.308594 178.113281 131.023438 180.332031 131.5625 182.425781 C 132.515625 185.976562 135.75 188.453125 139.429688 188.453125 C 140.09375 188.453125 140.792969 188.355469 141.457031 188.199219 L 141.871094 188.101562 C 142.25 188.007812 142.664062 187.976562 143.074219 187.976562 C 145.707031 187.976562 148.019531 189.75 148.6875 192.289062 C 149.480469 195.269531 147.832031 198.34375 144.882812 199.328125 L 144.46875 199.453125 C 140.1875 200.628906 137.652344 205.097656 138.792969 209.410156 C 139.746094 212.964844 142.980469 215.4375 146.65625 215.4375 C 147.355469 215.4375 148.085938 215.339844 148.78125 215.152344 C 172.46875 208.808594 192.289062 193.589844 204.589844 172.277344 C 216.988281 151.035156 220.257812 126.238281 213.914062 102.550781 Z M 124.398438 106.449219 L 124.460938 106.449219 C 124.90625 106.449219 125.347656 106.449219 125.886719 106.480469 L 126.425781 106.511719 C 136.765625 107.304688 144.882812 116.058594 144.882812 126.425781 C 144.882812 132.925781 141.679688 139.046875 136.351562 142.789062 L 135.875 143.105469 L 135.71875 143.203125 C 135.589844 143.296875 135.433594 143.359375 135.304688 143.457031 L 134.828125 143.742188 C 134.671875 143.835938 134.542969 143.898438 134.355469 143.996094 C 134.101562 144.121094 133.910156 144.214844 133.71875 144.3125 L 133.6875 144.3125 C 132.132812 145.074219 130.484375 145.644531 128.742188 145.992188 C 126.171875 146.5 123.414062 146.5 120.847656 145.960938 L 119.957031 145.738281 C 111.238281 143.519531 104.925781 135.367188 104.925781 126.394531 C 104.925781 124.082031 105.308594 121.796875 106.101562 119.640625 C 106.988281 117.199219 108.320312 114.949219 110.097656 113.015625 L 110.160156 112.917969 C 113.742188 108.988281 118.625 106.671875 123.921875 106.417969 C 124.082031 106.449219 124.238281 106.449219 124.398438 106.449219 Z M 124.398438 106.449219 "/>
</clipPath>
</defs>
<g id="surface1">
<path style=" stroke:none;fill-rule:nonzero;fill:url(#linear0);" d="M 213.375 36.625 C 164.574219 -12.207031 85.425781 -12.207031 36.625 36.625 C -12.175781 85.457031 -12.175781 164.574219 36.625 213.40625 C 85.425781 262.238281 164.574219 262.207031 213.40625 213.40625 C 262.238281 164.605469 262.207031 85.425781 213.375 36.625 "/>
<path style=" stroke:none;fill-rule:nonzero;fill:url(#linear1);" d="M 5.421875 120.878906 L 61.296875 59.203125 L 139.523438 40.9375 L 189.179688 73.597656 L 149.828125 112.917969 L 156.710938 125.378906 L 174.117188 105.402344 L 179.730469 122.589844 L 200.5625 98.746094 L 208.746094 130.105469 L 196.695312 184.074219 L 144.914062 242.960938 L 67.730469 232.65625 L 12.9375 172.691406 Z M 5.421875 120.878906 "/>
<path style=" stroke:none;fill-rule:nonzero;fill:rgb(94.901961%,83.529413%,54.509807%);fill-opacity:1;" d="M 213.914062 102.550781 C 212.964844 98.996094 209.730469 96.523438 206.050781 96.523438 C 205.320312 96.523438 204.625 96.621094 203.925781 96.808594 C 201.832031 97.378906 200.058594 98.710938 198.980469 100.613281 C 197.902344 102.484375 197.617188 104.707031 198.15625 106.796875 C 206.96875 139.648438 192.605469 174.59375 163.210938 191.75 C 162.324219 192.257812 161.308594 192.542969 160.261719 192.542969 C 158.199219 192.542969 156.265625 191.433594 155.21875 189.65625 C 153.632812 186.960938 154.457031 183.535156 157.058594 181.824219 L 157.152344 181.761719 C 157.21875 181.730469 157.28125 181.695312 157.34375 181.632812 L 157.4375 181.570312 C 157.472656 181.539062 157.503906 181.539062 157.535156 181.507812 L 157.820312 181.347656 C 169.519531 174.371094 178.875 163.558594 184.140625 150.90625 C 189.625 137.746094 190.574219 123.542969 186.898438 109.777344 C 185.945312 106.226562 182.710938 103.722656 179.035156 103.722656 C 178.335938 103.722656 177.605469 103.816406 176.910156 104.007812 C 172.566406 105.179688 169.996094 109.652344 171.136719 113.996094 L 171.199219 114.28125 L 171.199219 114.3125 C 171.199219 114.34375 171.199219 114.378906 171.199219 114.378906 C 171.773438 117.359375 169.933594 120.308594 166.984375 121.101562 C 166.476562 121.226562 165.96875 121.289062 165.460938 121.289062 C 163.082031 121.289062 160.894531 119.800781 160.039062 117.578125 L 160.039062 117.546875 C 159.976562 117.359375 159.914062 117.167969 159.847656 116.945312 C 159.816406 116.851562 159.785156 116.753906 159.753906 116.660156 L 159.660156 116.40625 C 157.535156 108.988281 153 102.296875 146.816406 97.570312 C 140.441406 92.6875 132.832031 90.121094 124.777344 90.121094 C 120.433594 90.121094 116.152344 90.878906 112.125 92.402344 L 112 92.433594 L 111.902344 92.464844 C 111.585938 92.527344 111.238281 92.5625 110.921875 92.5625 C 108.449219 92.5625 106.226562 90.976562 105.433594 88.660156 C 104.421875 85.742188 105.847656 82.539062 108.734375 81.367188 C 108.765625 81.335938 108.828125 81.335938 108.890625 81.304688 L 108.953125 81.273438 C 109.050781 81.242188 109.144531 81.207031 109.238281 81.175781 L 109.304688 81.144531 C 109.335938 81.144531 109.335938 81.113281 109.367188 81.113281 L 109.429688 81.113281 C 114.378906 79.433594 119.546875 78.578125 124.808594 78.578125 C 137.558594 78.578125 149.542969 83.523438 158.550781 92.527344 C 160.101562 94.050781 162.132812 94.90625 164.320312 94.90625 C 166.476562 94.90625 168.539062 94.050781 170.089844 92.527344 C 173.230469 89.390625 173.261719 84.253906 170.15625 81.082031 L 169.871094 80.796875 C 167.808594 78.480469 167.902344 74.960938 170.089844 72.773438 C 171.199219 71.664062 172.660156 71.0625 174.214844 71.0625 C 175.640625 71.0625 177.035156 71.570312 178.082031 72.519531 L 178.398438 72.804688 C 179.921875 74.296875 181.949219 75.121094 184.105469 75.121094 C 186.296875 75.121094 188.324219 74.265625 189.847656 72.742188 C 191.398438 71.21875 192.226562 69.160156 192.226562 66.972656 C 192.226562 64.78125 191.367188 62.753906 189.847656 61.230469 C 172.5 43.886719 149.417969 34.339844 124.808594 34.339844 C 100.203125 34.339844 77.117188 43.886719 59.773438 61.230469 C 58.21875 62.785156 57.394531 64.816406 57.394531 66.972656 C 57.394531 69.160156 58.25 71.1875 59.773438 72.710938 C 61.328125 74.265625 63.355469 75.089844 65.511719 75.089844 C 67.699219 75.089844 69.730469 74.234375 71.285156 72.710938 C 85.554688 58.441406 104.546875 50.578125 124.808594 50.578125 C 138 50.578125 150.96875 54 162.324219 60.503906 C 163.6875 61.261719 164.636719 62.53125 165.050781 64.023438 C 165.460938 65.511719 165.269531 67.097656 164.480469 68.460938 C 163.433594 70.269531 161.496094 71.410156 159.40625 71.410156 C 158.484375 71.410156 157.566406 71.1875 156.773438 70.777344 L 156.679688 70.710938 C 156.613281 70.679688 156.550781 70.648438 156.488281 70.585938 L 156.203125 70.425781 C 146.65625 65.070312 135.8125 62.214844 124.777344 62.214844 C 107.65625 62.214844 91.578125 68.875 79.496094 80.921875 C 77.941406 82.476562 77.117188 84.507812 77.117188 86.695312 C 77.117188 88.882812 77.972656 90.910156 79.496094 92.464844 C 81.019531 93.988281 83.078125 94.84375 85.234375 94.84375 C 87.390625 94.84375 89.453125 93.988281 91.007812 92.464844 C 91.070312 92.402344 91.132812 92.339844 91.199219 92.277344 L 91.324219 92.148438 C 92.371094 91.230469 93.734375 90.722656 95.128906 90.722656 C 96.683594 90.722656 98.140625 91.324219 99.25 92.433594 C 101.1875 94.367188 101.503906 97.378906 100.042969 99.664062 L 99.09375 100.710938 C 92.277344 107.558594 88.535156 116.628906 88.535156 126.300781 C 88.535156 137.207031 93.386719 147.449219 101.851562 154.363281 L 101.945312 154.425781 L 102.011719 154.523438 C 103.785156 156.710938 103.722656 159.847656 101.882812 161.972656 C 100.773438 163.242188 99.15625 164.003906 97.476562 164.003906 C 96.175781 164.003906 94.90625 163.558594 93.925781 162.796875 L 93.796875 162.671875 C 93.703125 162.609375 93.640625 162.511719 93.542969 162.449219 L 93.386719 162.289062 C 86.789062 156.519531 81.90625 149.035156 79.273438 140.632812 C 76.546875 131.976562 76.355469 122.78125 78.703125 114.027344 C 79.878906 109.683594 77.277344 105.214844 72.933594 104.039062 C 72.234375 103.847656 71.539062 103.753906 70.808594 103.753906 C 67.160156 103.753906 63.957031 106.195312 62.976562 109.714844 L 62.878906 110.128906 C 62.085938 112.539062 59.867188 114.125 57.332031 114.125 C 56.824219 114.125 56.316406 114.058594 55.808594 113.933594 C 52.828125 113.140625 50.988281 110.128906 51.59375 107.117188 L 51.6875 106.703125 C 52.796875 102.390625 50.195312 97.953125 45.914062 96.808594 C 45.21875 96.621094 44.519531 96.523438 43.792969 96.523438 C 40.113281 96.523438 36.878906 98.996094 35.925781 102.550781 C 29.585938 126.238281 32.851562 151.003906 45.15625 172.3125 C 57.457031 193.621094 77.277344 208.839844 100.964844 215.183594 C 101.660156 215.371094 102.359375 215.46875 103.089844 215.46875 C 106.765625 215.46875 110 212.996094 110.953125 209.441406 C 111.523438 207.351562 111.238281 205.128906 110.128906 203.257812 C 109.050781 201.390625 107.273438 200.023438 105.179688 199.453125 C 72.328125 190.640625 49.246094 160.738281 49.085938 126.742188 C 49.085938 125.191406 49.6875 123.730469 50.765625 122.621094 C 51.878906 121.511719 53.335938 120.910156 54.890625 120.878906 L 54.921875 120.878906 C 58.027344 120.878906 60.597656 123.289062 60.722656 126.394531 L 60.722656 126.710938 C 60.722656 126.777344 60.722656 126.808594 60.722656 126.871094 L 60.722656 126.933594 C 60.722656 126.964844 60.722656 126.964844 60.722656 126.996094 L 60.722656 127.0625 C 60.882812 140.757812 65.574219 154.300781 73.914062 165.238281 C 82.574219 176.558594 94.398438 184.488281 108.160156 188.199219 C 108.859375 188.386719 109.558594 188.484375 110.285156 188.484375 C 113.964844 188.484375 117.199219 186.007812 118.152344 182.457031 C 119.292969 178.144531 116.722656 173.675781 112.410156 172.5 L 112.378906 172.5 C 112.316406 172.5 112.253906 172.46875 112.222656 172.46875 L 111.96875 172.40625 C 109.113281 171.390625 107.464844 168.316406 108.257812 165.398438 C 108.953125 162.863281 111.269531 161.085938 113.871094 161.085938 C 114.027344 161.085938 114.1875 161.085938 114.34375 161.117188 L 115.390625 161.371094 C 118.4375 162.164062 121.574219 162.574219 124.714844 162.574219 C 140.949219 162.574219 155.316406 151.667969 159.628906 136.035156 L 159.691406 135.84375 C 159.722656 135.71875 159.753906 135.558594 159.785156 135.433594 L 159.816406 135.304688 C 159.816406 135.273438 159.847656 135.210938 159.847656 135.179688 L 159.914062 134.957031 C 159.945312 134.796875 160.007812 134.640625 160.039062 134.480469 L 160.039062 134.449219 C 160.101562 134.164062 160.167969 133.878906 160.230469 133.59375 L 160.292969 133.339844 C 160.292969 133.308594 160.292969 133.277344 160.324219 133.246094 L 160.355469 133.179688 C 160.355469 133.148438 160.355469 133.117188 160.386719 133.085938 L 160.417969 132.960938 C 160.453125 132.738281 160.515625 132.546875 160.578125 132.355469 C 161.308594 129.914062 163.621094 128.234375 166.160156 128.234375 C 166.507812 128.234375 166.886719 128.265625 167.238281 128.328125 C 170.28125 128.898438 172.34375 131.753906 171.929688 134.828125 L 171.929688 134.863281 C 171.929688 134.894531 171.929688 134.957031 171.898438 135.019531 L 171.867188 135.117188 C 171.867188 135.210938 171.835938 135.273438 171.835938 135.367188 L 171.835938 135.433594 C 171.835938 135.464844 171.804688 135.527344 171.804688 135.558594 L 171.804688 135.621094 C 170.089844 144.214844 166.03125 152.175781 160.101562 158.644531 C 153.984375 165.335938 146.117188 170.089844 137.335938 172.4375 C 135.242188 173.007812 133.464844 174.339844 132.386719 176.242188 C 131.308594 178.113281 131.023438 180.332031 131.5625 182.425781 C 132.515625 185.976562 135.75 188.453125 139.429688 188.453125 C 140.09375 188.453125 140.792969 188.355469 141.457031 188.199219 L 141.871094 188.101562 C 142.25 188.007812 142.664062 187.976562 143.074219 187.976562 C 145.707031 187.976562 148.019531 189.75 148.6875 192.289062 C 149.480469 195.269531 147.832031 198.34375 144.882812 199.328125 L 144.46875 199.453125 C 140.1875 200.628906 137.652344 205.097656 138.792969 209.410156 C 139.746094 212.964844 142.980469 215.4375 146.65625 215.4375 C 147.355469 215.4375 148.085938 215.339844 148.78125 215.152344 C 172.46875 208.808594 192.289062 193.589844 204.589844 172.277344 C 216.988281 151.035156 220.257812 126.238281 213.914062 102.550781 Z M 124.398438 106.449219 L 124.460938 106.449219 C 124.90625 106.449219 125.347656 106.449219 125.886719 106.480469 L 126.425781 106.511719 C 136.765625 107.304688 144.882812 116.058594 144.882812 126.425781 C 144.882812 132.925781 141.679688 139.046875 136.351562 142.789062 L 135.875 143.105469 L 135.71875 143.203125 C 135.589844 143.296875 135.433594 143.359375 135.304688 143.457031 L 134.828125 143.742188 C 134.671875 143.835938 134.542969 143.898438 134.355469 143.996094 C 134.101562 144.121094 133.910156 144.214844 133.71875 144.3125 L 133.6875 144.3125 C 132.132812 145.074219 130.484375 145.644531 128.742188 145.992188 C 126.171875 146.5 123.414062 146.5 120.847656 145.960938 L 119.957031 145.738281 C 111.238281 143.519531 104.925781 135.367188 104.925781 126.394531 C 104.925781 124.082031 105.308594 121.796875 106.101562 119.640625 C 106.988281 117.199219 108.320312 114.949219 110.097656 113.015625 L 110.160156 112.917969 C 113.742188 108.988281 118.625 106.671875 123.921875 106.417969 C 124.082031 106.449219 124.238281 106.449219 124.398438 106.449219 Z M 124.398438 106.449219 "/>
<g clip-path="url(#clip1)" clip-rule="nonzero">
<g clip-path="url(#clip2)" clip-rule="nonzero">
<path style=" stroke:none;fill-rule:nonzero;fill:rgb(99.215686%,96.078432%,69.803923%);fill-opacity:1;" d="M 314.371094 170.851562 C 314.371094 170.851562 314.054688 167.714844 198.40625 181.917969 C 189.179688 187.722656 184.425781 185.152344 181 177.195312 C 176.527344 175.070312 174.308594 173.832031 170.027344 171.613281 C 161.65625 174.847656 155.410156 166.191406 158.421875 160.453125 C 153.949219 156.519531 153.664062 156.011719 150.050781 152.492188 C 140.378906 154.203125 136.351562 144.027344 140.15625 139.175781 C 131.945312 128.296875 123.984375 118.246094 116.722656 108.226562 C 110.859375 111.648438 103.816406 104.800781 100.171875 93.386719 C 87.265625 86.28125 86.695312 75.277344 92.433594 71.03125 C 90.691406 66.113281 89.074219 64.75 87.929688 60.28125 C 75.246094 66.527344 67.890625 59.105469 77.816406 47.183594 C 104.136719 15.632812 73.757812 -69.761719 73.757812 -69.761719 Z M 314.371094 170.851562 "/>
</g>
</g>
<g clip-path="url(#clip3)" clip-rule="nonzero">
<g clip-path="url(#clip4)" clip-rule="nonzero">
<path style=" stroke:none;fill-rule:nonzero;fill:rgb(89.411765%,72.549021%,29.019609%);fill-opacity:1;" d="M 204.527344 283.898438 C 204.527344 283.898438 204.210938 280.757812 88.566406 294.964844 C 79.339844 300.765625 74.582031 298.199219 71.15625 290.238281 C 66.6875 288.113281 64.464844 286.878906 60.183594 284.660156 C 51.8125 287.894531 45.566406 279.238281 48.578125 273.496094 C 44.109375 269.566406 43.824219 269.058594 40.207031 265.539062 C 30.535156 267.25 26.507812 257.070312 30.316406 252.21875 C 22.101562 241.34375 14.140625 231.292969 6.882812 221.269531 C 1.046875 224.695312 -5.992188 217.816406 -9.640625 206.429688 C -22.546875 199.328125 -23.117188 188.324219 -17.378906 184.074219 C -19.121094 179.160156 -20.738281 177.796875 -21.878906 173.324219 C -34.5625 179.574219 -41.921875 172.152344 -31.996094 160.230469 C -5.707031 128.710938 -36.085938 43.316406 -36.085938 43.316406 C -36.085938 43.316406 36.785156 85.425781 36.371094 101.757812 C 45.1875 101.3125 26.476562 143.421875 55.9375 177.636719 C 82.574219 208.585938 105.53125 215.40625 110.539062 211.15625 C 116.753906 217.308594 135.875 194.886719 142.125 200.628906 C 142.441406 204.304688 149.417969 213.3125 171.582031 205.574219 C 189.6875 232.117188 203.957031 288.082031 204.527344 283.898438 Z M 204.527344 283.898438 "/>
</g>
</g>
<g clip-path="url(#clip5)" clip-rule="nonzero">
<g clip-path="url(#clip6)" clip-rule="nonzero">
<path style=" stroke:none;fill-rule:nonzero;fill:rgb(100%,98.823529%,78.039217%);fill-opacity:1;" d="M 375.191406 124.207031 C 375.191406 124.207031 374.875 121.066406 259.226562 135.273438 C 250 141.078125 245.242188 138.507812 241.820312 130.550781 C 237.347656 128.425781 214.105469 132.199219 217.117188 126.457031 C 216.609375 129.4375 213.722656 112.253906 209.601562 106.257812 C 204.8125 99.25 198.789062 102.804688 199.707031 99.824219 C 190.035156 101.535156 183.21875 79.527344 187.023438 74.675781 C 181.664062 75.023438 192.730469 66.875 174.785156 56.191406 C 153.0625 43.285156 138.921875 43.824219 144.914062 36.625 C 171.199219 5.105469 134.609375 -116.40625 134.609375 -116.40625 C 134.609375 -116.40625 207.476562 -74.265625 207.035156 -57.933594 C 215.847656 -58.378906 197.140625 -16.265625 226.597656 17.949219 C 253.234375 48.898438 276.191406 55.714844 281.203125 51.464844 C 287.417969 57.617188 306.539062 35.199219 312.785156 40.9375 C 313.101562 44.617188 320.078125 53.621094 342.242188 45.882812 C 360.351562 72.425781 374.621094 128.394531 375.191406 124.207031 Z M 375.191406 124.207031 "/>
</g>
</g>
</g>
</svg>
