<svg height="250" viewBox="0 0 250 250" width="250" xmlns="http://www.w3.org/2000/svg" xmlns:xlink="http://www.w3.org/1999/xlink"><linearGradient id="a" gradientUnits="userSpaceOnUse" x1="82.86896754998" x2="170.44733602413" y1="231.77369063195" y2="9.8241720041"><stop offset="0" stop-color="#eb5e57"/><stop offset=".9243" stop-color="#f4cb54"/></linearGradient><linearGradient id="b" gradientTransform="matrix(.311866 .00523968 .00523968 .311866 3.027397 -3.027397)" gradientUnits="userSpaceOnUse" x1="187.981705" x2="582.441528" y1="603.179504" y2="241.591293"><stop offset="0" stop-color="#c7772b" stop-opacity="0"/><stop offset="1" stop-color="#c7772b"/></linearGradient><clipPath id="c"><path d="m73 34h145v152h-145zm0 0"/></clipPath><clipPath id="d"><path d="m213.914062 102.550781c-.949218-3.554687-4.183593-6.027343-7.863281-6.027343-.730469 0-1.425781.097656-2.125.285156-2.09375.570312-3.867187 1.902344-4.945312 3.804687-1.078125 1.871094-1.363281 4.09375-.824219 6.183594 8.8125 32.851563-5.550781 67.796875-34.945312 84.953125-.886719.507812-1.902344.792969-2.949219.792969-2.0625 0-3.996094-1.109375-5.042969-2.886719-1.585938-2.695312-.761719-6.121094 1.839844-7.832031l.09375-.0625c.066406-.03125.128906-.066407.191406-.128907l.09375-.0625c.035156-.03125.066406-.03125.097656-.0625l.285156-.160156c11.699219-6.976562 21.054688-17.789062 26.320313-30.441406 5.484375-13.160156 6.433594-27.363281 2.757813-41.128906-.953126-3.550782-4.1875-6.054688-7.863282-6.054688-.699218 0-1.429687.09375-2.125.285156-4.34375 1.171876-6.914062 5.644532-5.773437 9.988282l.0625.285156v.03125.066406c.574219 2.980469-1.265625 5.929688-4.214844 6.722656-.507813.125-1.015625.1875-1.523437.1875-2.378907 0-4.566407-1.488281-5.421876-3.710937v-.03125c-.0625-.1875-.125-.378906-.191406-.601563-.03125-.09375-.0625-.191406-.09375-.285156l-.09375-.253906c-2.125-7.417969-6.660156-14.109375-12.84375-18.835938-6.375-4.882812-13.984375-7.449218-22.039062-7.449218-4.34375 0-8.625.757812-12.652344 2.28125l-.125.03125-.097656.03125c-.316406.0625-.664063.097656-.980469.097656-2.472656 0-4.695313-1.585938-5.488281-3.902344-1.011719-2.917968.414062-6.121094 3.300781-7.292968.03125-.03125.09375-.03125.15625-.0625l.0625-.03125c.097656-.03125.191406-.066407.285156-.097657l.066407-.03125c.03125 0 .03125-.03125.0625-.03125h.0625c4.949218-1.679687 10.117187-2.535156 15.378906-2.535156 12.75 0 24.734375 4.945313 33.742187 13.949219 1.550781 1.523437 3.582031 2.378906 5.769531 2.378906 2.15625 0 4.21875-.855469 5.769532-2.378906 3.140625-3.136719 3.171875-8.273438.066406-11.445313l-.285156-.285156c-2.0625-2.316406-1.96875-5.835937.21875-8.023437 1.109375-1.109376 2.570312-1.710938 4.125-1.710938 1.425781 0 2.820312.507812 3.867187 1.457031l.316407.285157c1.523437 1.492187 3.550781 2.316406 5.707031 2.316406 2.191406 0 4.21875-.855469 5.742187-2.378906 1.550782-1.523438 2.378906-3.582032 2.378906-5.769532 0-2.191406-.859374-4.21875-2.378906-5.742187-17.347656-17.34375-40.429687-26.890625-65.039062-26.890625-24.605469 0-47.691406 9.546875-65.035156 26.890625-1.554688 1.554687-2.378907 3.585937-2.378907 5.742187 0 2.1875.855469 4.214844 2.378907 5.738282 1.554687 1.554687 3.582031 2.378906 5.738281 2.378906 2.1875 0 4.21875-.855469 5.773437-2.378906 14.269532-14.269532 33.261719-22.132813 53.523438-22.132813 13.191406 0 26.160156 3.421875 37.515625 9.925781 1.363281.757813 2.3125 2.027344 2.726562 3.519532.410157 1.488281.21875 3.074218-.570312 4.4375-1.046875 1.808593-2.984375 2.949218-5.074219 2.949218-.921875 0-1.839844-.222656-2.632812-.632812l-.09375-.066406c-.066407-.03125-.128907-.0625-.191407-.125l-.285156-.160157c-9.546875-5.355469-20.390625-8.210937-31.425781-8.210937-17.121094 0-33.199219 6.660156-45.28125 18.707031-1.554688 1.554687-2.378906 3.585937-2.378906 5.773437s.855468 4.214844 2.378906 5.769532c1.523437 1.523437 3.582031 2.378906 5.738281 2.378906s4.21875-.855469 5.773437-2.378906c.0625-.0625.125-.125.191407-.1875l.125-.128906c1.046875-.917969 2.410156-1.425782 3.804687-1.425782 1.554688 0 3.011719.601563 4.121094 1.710938 1.9375 1.933594 2.253906 4.945312.792969 7.230468l-.949219 1.046876c-6.816406 6.847656-10.558594 15.917968-10.558594 25.589843 0 10.90625 4.851563 21.148438 13.316406 28.0625l.09375.0625.066407.097657c1.773437 2.1875 1.710937 5.324218-.128907 7.449218-1.109374 1.269532-2.726562 2.03125-4.40625 2.03125-1.300781 0-2.570312-.445312-3.550781-1.207031l-.128906-.125c-.09375-.0625-.15625-.160156-.253906-.222656l-.15625-.160157c-6.597657-5.769531-11.480469-13.253906-14.113281-21.65625-2.726563-8.65625-2.917969-17.851562-.570313-26.605468 1.175781-4.34375-1.425781-8.8125-5.769531-9.988282-.699219-.191406-1.394532-.285156-2.125-.285156-3.648438 0-6.851563 2.441406-7.832032 5.960938l-.097656.414062c-.792968 2.410156-3.011718 3.996094-5.546875 3.996094-.507812 0-1.015625-.066406-1.523437-.191406-2.980469-.792969-4.820313-3.804688-4.214844-6.816406l.09375-.414063c1.109375-4.3125-1.492188-8.75-5.773438-9.894531-.695312-.1875-1.394531-.285156-2.121093-.285156-3.679688 0-6.914063 2.472656-7.867188 6.027343-6.339843 23.6875-3.074219 48.453125 9.230469 69.761719 12.300781 21.308594 32.121094 36.527344 55.808594 42.871094.695312.1875 1.394531.285156 2.125.285156 3.675781 0 6.910156-2.472656 7.863281-6.027344.570313-2.089844.285156-4.3125-.824219-6.183594-1.078125-1.867187-2.855468-3.234374-4.949218-3.804687-32.851563-8.8125-55.933594-38.714844-56.09375-72.710937 0-1.550782.601562-3.011719 1.679687-4.121094 1.113281-1.109375 2.570313-1.710938 4.125-1.742188h.03125c3.105469 0 5.675781 2.410156 5.800781 5.515625v.316407.160156.0625.0625.066406c.160156 13.695312 4.851563 27.238281 13.191406 38.175781 8.660157 11.320313 20.484376 19.25 34.246094 22.960938.699219.1875 1.398438.285156 2.125.285156 3.679688 0 6.914063-2.476563 7.867188-6.027344 1.140625-4.3125-1.429688-8.78125-5.742188-9.957031h-.03125c-.0625 0-.125-.03125-.15625-.03125l-.253906-.0625c-2.855469-1.015625-4.503906-4.089844-3.710938-7.007812.695313-2.535157 3.011719-4.3125 5.613282-4.3125.15625 0 .316406 0 .472656.03125l1.046875.253906c3.046875.792968 6.183594 1.203125 9.324219 1.203125 16.234375 0 30.601562-10.90625 34.914062-26.539063l.0625-.191406c.03125-.125.0625-.285156.09375-.410156l.03125-.128906c0-.03125.03125-.09375.03125-.125l.066406-.222657c.03125-.160156.09375-.316406.125-.476562v-.03125c.0625-.285157.128907-.570313.191407-.855469l.0625-.253906c0-.03125 0-.0625.03125-.09375l.03125-.066406c0-.03125 0-.0625.03125-.09375l.03125-.125c.035156-.222657.097656-.414063.160156-.605469.730469-2.441407 3.042969-4.121094 5.582031-4.121094.347656 0 .726563.03125 1.078125.09375 3.042969.570313 5.105469 3.425781 4.691407 6.5v.035156c0 .03125 0 .09375-.03125.15625l-.03125.097657c0 .09375-.03125.15625-.03125.25v.066406c0 .03125-.03125.09375-.03125.125v.0625c-1.714844 8.59375-5.773438 16.554687-11.703126 23.023437-6.117187 6.691407-13.984374 11.445313-22.765624 13.792969-2.09375.570312-3.871094 1.902344-4.949219 3.804688-1.078125 1.871093-1.363281 4.089843-.824219 6.183593.953125 3.550781 4.1875 6.027344 7.867188 6.027344.664062 0 1.363281-.097656 2.027343-.253906l.414063-.097657c.378906-.09375.792968-.125 1.203125-.125 2.632812 0 4.945312 1.773438 5.613281 4.3125.792969 2.980469-.855469 6.054688-3.804688 7.039063l-.414062.125c-4.28125 1.175781-6.816406 5.644531-5.675781 9.957031.953125 3.554688 4.1875 6.027344 7.863281 6.027344.699219 0 1.429688-.097656 2.125-.285156 23.6875-6.34375 43.507812-21.5625 55.808594-42.875 12.398437-21.242188 15.667968-46.039063 9.324218-69.726563zm-89.515624 3.898438h.0625c.445312 0 .886718 0 1.425781.03125l.539062.03125c10.339844.792969 18.457031 9.546875 18.457031 19.914062 0 6.5-3.203124 12.621094-8.53125 16.363281l-.476562.316407-.15625.097656c-.128906.09375-.285156.15625-.414062.253906l-.476563.285157c-.15625.09375-.285156.15625-.472656.253906-.253907.125-.445313.21875-.636719.316406h-.03125c-1.554688.761719-3.203125 1.332031-4.945312 1.679688-2.570313.507812-5.328126.507812-7.894532-.03125l-.890625-.222657c-8.71875-2.21875-15.03125-10.371093-15.03125-19.34375 0-2.3125.382813-4.597656 1.175781-6.753906.886719-2.441406 2.21875-4.691406 3.996094-6.625l.0625-.097656c3.582032-3.929688 8.464844-6.246094 13.761719-6.5.160156.03125.316406.03125.476563.03125zm0 0"/></clipPath><clipPath id="e"><path d="m32 43h173v173h-173zm0 0"/></clipPath><clipPath id="f"><path d="m213.914062 102.550781c-.949218-3.554687-4.183593-6.027343-7.863281-6.027343-.730469 0-1.425781.097656-2.125.285156-2.09375.570312-3.867187 1.902344-4.945312 3.804687-1.078125 1.871094-1.363281 4.09375-.824219 6.183594 8.8125 32.851563-5.550781 67.796875-34.945312 84.953125-.886719.507812-1.902344.792969-2.949219.792969-2.0625 0-3.996094-1.109375-5.042969-2.886719-1.585938-2.695312-.761719-6.121094 1.839844-7.832031l.09375-.0625c.066406-.03125.128906-.066407.191406-.128907l.09375-.0625c.035156-.03125.066406-.03125.097656-.0625l.285156-.160156c11.699219-6.976562 21.054688-17.789062 26.320313-30.441406 5.484375-13.160156 6.433594-27.363281 2.757813-41.128906-.953126-3.550782-4.1875-6.054688-7.863282-6.054688-.699218 0-1.429687.09375-2.125.285156-4.34375 1.171876-6.914062 5.644532-5.773437 9.988282l.0625.285156v.03125.066406c.574219 2.980469-1.265625 5.929688-4.214844 6.722656-.507813.125-1.015625.1875-1.523437.1875-2.378907 0-4.566407-1.488281-5.421876-3.710937v-.03125c-.0625-.1875-.125-.378906-.191406-.601563-.03125-.09375-.0625-.191406-.09375-.285156l-.09375-.253906c-2.125-7.417969-6.660156-14.109375-12.84375-18.835938-6.375-4.882812-13.984375-7.449218-22.039062-7.449218-4.34375 0-8.625.757812-12.652344 2.28125l-.125.03125-.097656.03125c-.316406.0625-.664063.097656-.980469.097656-2.472656 0-4.695313-1.585938-5.488281-3.902344-1.011719-2.917968.414062-6.121094 3.300781-7.292968.03125-.03125.09375-.03125.15625-.0625l.0625-.03125c.097656-.03125.191406-.066407.285156-.097657l.066407-.03125c.03125 0 .03125-.03125.0625-.03125h.0625c4.949218-1.679687 10.117187-2.535156 15.378906-2.535156 12.75 0 24.734375 4.945313 33.742187 13.949219 1.550781 1.523437 3.582031 2.378906 5.769531 2.378906 2.15625 0 4.21875-.855469 5.769532-2.378906 3.140625-3.136719 3.171875-8.273438.066406-11.445313l-.285156-.285156c-2.0625-2.316406-1.96875-5.835937.21875-8.023437 1.109375-1.109376 2.570312-1.710938 4.125-1.710938 1.425781 0 2.820312.507812 3.867187 1.457031l.316407.285157c1.523437 1.492187 3.550781 2.316406 5.707031 2.316406 2.191406 0 4.21875-.855469 5.742187-2.378906 1.550782-1.523438 2.378906-3.582032 2.378906-5.769532 0-2.191406-.859374-4.21875-2.378906-5.742187-17.347656-17.34375-40.429687-26.890625-65.039062-26.890625-24.605469 0-47.691406 9.546875-65.035156 26.890625-1.554688 1.554687-2.378907 3.585937-2.378907 5.742187 0 2.1875.855469 4.214844 2.378907 5.738282 1.554687 1.554687 3.582031 2.378906 5.738281 2.378906 2.1875 0 4.21875-.855469 5.773437-2.378906 14.269532-14.269532 33.261719-22.132813 53.523438-22.132813 13.191406 0 26.160156 3.421875 37.515625 9.925781 1.363281.757813 2.3125 2.027344 2.726562 3.519532.410157 1.488281.21875 3.074218-.570312 4.4375-1.046875 1.808593-2.984375 2.949218-5.074219 2.949218-.921875 0-1.839844-.222656-2.632812-.632812l-.09375-.066406c-.066407-.03125-.128907-.0625-.191407-.125l-.285156-.160157c-9.546875-5.355469-20.390625-8.210937-31.425781-8.210937-17.121094 0-33.199219 6.660156-45.28125 18.707031-1.554688 1.554687-2.378906 3.585937-2.378906 5.773437s.855468 4.214844 2.378906 5.769532c1.523437 1.523437 3.582031 2.378906 5.738281 2.378906s4.21875-.855469 5.773437-2.378906c.0625-.0625.125-.125.191407-.1875l.125-.128906c1.046875-.917969 2.410156-1.425782 3.804687-1.425782 1.554688 0 3.011719.601563 4.121094 1.710938 1.9375 1.933594 2.253906 4.945312.792969 7.230468l-.949219 1.046876c-6.816406 6.847656-10.558594 15.917968-10.558594 25.589843 0 10.90625 4.851563 21.148438 13.316406 28.0625l.09375.0625.066407.097657c1.773437 2.1875 1.710937 5.324218-.128907 7.449218-1.109374 1.269532-2.726562 2.03125-4.40625 2.03125-1.300781 0-2.570312-.445312-3.550781-1.207031l-.128906-.125c-.09375-.0625-.15625-.160156-.253906-.222656l-.15625-.160157c-6.597657-5.769531-11.480469-13.253906-14.113281-21.65625-2.726563-8.65625-2.917969-17.851562-.570313-26.605468 1.175781-4.34375-1.425781-8.8125-5.769531-9.988282-.699219-.191406-1.394532-.285156-2.125-.285156-3.648438 0-6.851563 2.441406-7.832032 5.960938l-.097656.414062c-.792968 2.410156-3.011718 3.996094-5.546875 3.996094-.507812 0-1.015625-.066406-1.523437-.191406-2.980469-.792969-4.820313-3.804688-4.214844-6.816406l.09375-.414063c1.109375-4.3125-1.492188-8.75-5.773438-9.894531-.695312-.1875-1.394531-.285156-2.121093-.285156-3.679688 0-6.914063 2.472656-7.867188 6.027343-6.339843 23.6875-3.074219 48.453125 9.230469 69.761719 12.300781 21.308594 32.121094 36.527344 55.808594 42.871094.695312.1875 1.394531.285156 2.125.285156 3.675781 0 6.910156-2.472656 7.863281-6.027344.570313-2.089844.285156-4.3125-.824219-6.183594-1.078125-1.867187-2.855468-3.234374-4.949218-3.804687-32.851563-8.8125-55.933594-38.714844-56.09375-72.710937 0-1.550782.601562-3.011719 1.679687-4.121094 1.113281-1.109375 2.570313-1.710938 4.125-1.742188h.03125c3.105469 0 5.675781 2.410156 5.800781 5.515625v.316407.160156.0625.0625.066406c.160156 13.695312 4.851563 27.238281 13.191406 38.175781 8.660157 11.320313 20.484376 19.25 34.246094 22.960938.699219.1875 1.398438.285156 2.125.285156 3.679688 0 6.914063-2.476563 7.867188-6.027344 1.140625-4.3125-1.429688-8.78125-5.742188-9.957031h-.03125c-.0625 0-.125-.03125-.15625-.03125l-.253906-.0625c-2.855469-1.015625-4.503906-4.089844-3.710938-7.007812.695313-2.535157 3.011719-4.3125 5.613282-4.3125.15625 0 .316406 0 .472656.03125l1.046875.253906c3.046875.792968 6.183594 1.203125 9.324219 1.203125 16.234375 0 30.601562-10.90625 34.914062-26.539063l.0625-.191406c.03125-.125.0625-.285156.09375-.410156l.03125-.128906c0-.03125.03125-.09375.03125-.125l.066406-.222657c.03125-.160156.09375-.316406.125-.476562v-.03125c.0625-.285157.128907-.570313.191407-.855469l.0625-.253906c0-.03125 0-.0625.03125-.09375l.03125-.066406c0-.03125 0-.0625.03125-.09375l.03125-.125c.035156-.222657.097656-.414063.160156-.605469.730469-2.441407 3.042969-4.121094 5.582031-4.121094.347656 0 .726563.03125 1.078125.09375 3.042969.570313 5.105469 3.425781 4.691407 6.5v.035156c0 .03125 0 .09375-.03125.15625l-.03125.097657c0 .09375-.03125.15625-.03125.25v.066406c0 .03125-.03125.09375-.03125.125v.0625c-1.714844 8.59375-5.773438 16.554687-11.703126 23.023437-6.117187 6.691407-13.984374 11.445313-22.765624 13.792969-2.09375.570312-3.871094 1.902344-4.949219 3.804688-1.078125 1.871093-1.363281 4.089843-.824219 6.183593.953125 3.550781 4.1875 6.027344 7.867188 6.027344.664062 0 1.363281-.097656 2.027343-.253906l.414063-.097657c.378906-.09375.792968-.125 1.203125-.125 2.632812 0 4.945312 1.773438 5.613281 4.3125.792969 2.980469-.855469 6.054688-3.804688 7.039063l-.414062.125c-4.28125 1.175781-6.816406 5.644531-5.675781 9.957031.953125 3.554688 4.1875 6.027344 7.863281 6.027344.699219 0 1.429688-.097656 2.125-.285156 23.6875-6.34375 43.507812-21.5625 55.808594-42.875 12.398437-21.242188 15.667968-46.039063 9.324218-69.726563zm-89.515624 3.898438h.0625c.445312 0 .886718 0 1.425781.03125l.539062.03125c10.339844.792969 18.457031 9.546875 18.457031 19.914062 0 6.5-3.203124 12.621094-8.53125 16.363281l-.476562.316407-.15625.097656c-.128906.09375-.285156.15625-.414062.253906l-.476563.285157c-.15625.09375-.285156.15625-.472656.253906-.253907.125-.445313.21875-.636719.316406h-.03125c-1.554688.761719-3.203125 1.332031-4.945312 1.679688-2.570313.507812-5.328126.507812-7.894532-.03125l-.890625-.222657c-8.71875-2.21875-15.03125-10.371093-15.03125-19.34375 0-2.3125.382813-4.597656 1.175781-6.753906.886719-2.441406 2.21875-4.691406 3.996094-6.625l.0625-.097656c3.582032-3.929688 8.464844-6.246094 13.761719-6.5.160156.03125.316406.03125.476563.03125zm0 0"/></clipPath><clipPath id="g"><path d="m134 34h84v105h-84zm0 0"/></clipPath><clipPath id="h"><path d="m213.914062 102.550781c-.949218-3.554687-4.183593-6.027343-7.863281-6.027343-.730469 0-1.425781.097656-2.125.285156-2.09375.570312-3.867187 1.902344-4.945312 3.804687-1.078125 1.871094-1.363281 4.09375-.824219 6.183594 8.8125 32.851563-5.550781 67.796875-34.945312 84.953125-.886719.507812-1.902344.792969-2.949219.792969-2.0625 0-3.996094-1.109375-5.042969-2.886719-1.585938-2.695312-.761719-6.121094 1.839844-7.832031l.09375-.0625c.066406-.03125.128906-.066407.191406-.128907l.09375-.0625c.035156-.03125.066406-.03125.097656-.0625l.285156-.160156c11.699219-6.976562 21.054688-17.789062 26.320313-30.441406 5.484375-13.160156 6.433594-27.363281 2.757813-41.128906-.953126-3.550782-4.1875-6.054688-7.863282-6.054688-.699218 0-1.429687.09375-2.125.285156-4.34375 1.171876-6.914062 5.644532-5.773437 9.988282l.0625.285156v.03125.066406c.574219 2.980469-1.265625 5.929688-4.214844 6.722656-.507813.125-1.015625.1875-1.523437.1875-2.378907 0-4.566407-1.488281-5.421876-3.710937v-.03125c-.0625-.1875-.125-.378906-.191406-.601563-.03125-.09375-.0625-.191406-.09375-.285156l-.09375-.253906c-2.125-7.417969-6.660156-14.109375-12.84375-18.835938-6.375-4.882812-13.984375-7.449218-22.039062-7.449218-4.34375 0-8.625.757812-12.652344 2.28125l-.125.03125-.097656.03125c-.316406.0625-.664063.097656-.980469.097656-2.472656 0-4.695313-1.585938-5.488281-3.902344-1.011719-2.917968.414062-6.121094 3.300781-7.292968.03125-.03125.09375-.03125.15625-.0625l.0625-.03125c.097656-.03125.191406-.066407.285156-.097657l.066407-.03125c.03125 0 .03125-.03125.0625-.03125h.0625c4.949218-1.679687 10.117187-2.535156 15.378906-2.535156 12.75 0 24.734375 4.945313 33.742187 13.949219 1.550781 1.523437 3.582031 2.378906 5.769531 2.378906 2.15625 0 4.21875-.855469 5.769532-2.378906 3.140625-3.136719 3.171875-8.273438.066406-11.445313l-.285156-.285156c-2.0625-2.316406-1.96875-5.835937.21875-8.023437 1.109375-1.109376 2.570312-1.710938 4.125-1.710938 1.425781 0 2.820312.507812 3.867187 1.457031l.316407.285157c1.523437 1.492187 3.550781 2.316406 5.707031 2.316406 2.191406 0 4.21875-.855469 5.742187-2.378906 1.550782-1.523438 2.378906-3.582032 2.378906-5.769532 0-2.191406-.859374-4.21875-2.378906-5.742187-17.347656-17.34375-40.429687-26.890625-65.039062-26.890625-24.605469 0-47.691406 9.546875-65.035156 26.890625-1.554688 1.554687-2.378907 3.585937-2.378907 5.742187 0 2.1875.855469 4.214844 2.378907 5.738282 1.554687 1.554687 3.582031 2.378906 5.738281 2.378906 2.1875 0 4.21875-.855469 5.773437-2.378906 14.269532-14.269532 33.261719-22.132813 53.523438-22.132813 13.191406 0 26.160156 3.421875 37.515625 9.925781 1.363281.757813 2.3125 2.027344 2.726562 3.519532.410157 1.488281.21875 3.074218-.570312 4.4375-1.046875 1.808593-2.984375 2.949218-5.074219 2.949218-.921875 0-1.839844-.222656-2.632812-.632812l-.09375-.066406c-.066407-.03125-.128907-.0625-.191407-.125l-.285156-.160157c-9.546875-5.355469-20.390625-8.210937-31.425781-8.210937-17.121094 0-33.199219 6.660156-45.28125 18.707031-1.554688 1.554687-2.378906 3.585937-2.378906 5.773437s.855468 4.214844 2.378906 5.769532c1.523437 1.523437 3.582031 2.378906 5.738281 2.378906s4.21875-.855469 5.773437-2.378906c.0625-.0625.125-.125.191407-.1875l.125-.128906c1.046875-.917969 2.410156-1.425782 3.804687-1.425782 1.554688 0 3.011719.601563 4.121094 1.710938 1.9375 1.933594 2.253906 4.945312.792969 7.230468l-.949219 1.046876c-6.816406 6.847656-10.558594 15.917968-10.558594 25.589843 0 10.90625 4.851563 21.148438 13.316406 28.0625l.09375.0625.066407.097657c1.773437 2.1875 1.710937 5.324218-.128907 7.449218-1.109374 1.269532-2.726562 2.03125-4.40625 2.03125-1.300781 0-2.570312-.445312-3.550781-1.207031l-.128906-.125c-.09375-.0625-.15625-.160156-.253906-.222656l-.15625-.160157c-6.597657-5.769531-11.480469-13.253906-14.113281-21.65625-2.726563-8.65625-2.917969-17.851562-.570313-26.605468 1.175781-4.34375-1.425781-8.8125-5.769531-9.988282-.699219-.191406-1.394532-.285156-2.125-.285156-3.648438 0-6.851563 2.441406-7.832032 5.960938l-.097656.414062c-.792968 2.410156-3.011718 3.996094-5.546875 3.996094-.507812 0-1.015625-.066406-1.523437-.191406-2.980469-.792969-4.820313-3.804688-4.214844-6.816406l.09375-.414063c1.109375-4.3125-1.492188-8.75-5.773438-9.894531-.695312-.1875-1.394531-.285156-2.121093-.285156-3.679688 0-6.914063 2.472656-7.867188 6.027343-6.339843 23.6875-3.074219 48.453125 9.230469 69.761719 12.300781 21.308594 32.121094 36.527344 55.808594 42.871094.695312.1875 1.394531.285156 2.125.285156 3.675781 0 6.910156-2.472656 7.863281-6.027344.570313-2.089844.285156-4.3125-.824219-6.183594-1.078125-1.867187-2.855468-3.234374-4.949218-3.804687-32.851563-8.8125-55.933594-38.714844-56.09375-72.710937 0-1.550782.601562-3.011719 1.679687-4.121094 1.113281-1.109375 2.570313-1.710938 4.125-1.742188h.03125c3.105469 0 5.675781 2.410156 5.800781 5.515625v.316407.160156.0625.0625.066406c.160156 13.695312 4.851563 27.238281 13.191406 38.175781 8.660157 11.320313 20.484376 19.25 34.246094 22.960938.699219.1875 1.398438.285156 2.125.285156 3.679688 0 6.914063-2.476563 7.867188-6.027344 1.140625-4.3125-1.429688-8.78125-5.742188-9.957031h-.03125c-.0625 0-.125-.03125-.15625-.03125l-.253906-.0625c-2.855469-1.015625-4.503906-4.089844-3.710938-7.007812.695313-2.535157 3.011719-4.3125 5.613282-4.3125.15625 0 .316406 0 .472656.03125l1.046875.253906c3.046875.792968 6.183594 1.203125 9.324219 1.203125 16.234375 0 30.601562-10.90625 34.914062-26.539063l.0625-.191406c.03125-.125.0625-.285156.09375-.410156l.03125-.128906c0-.03125.03125-.09375.03125-.125l.066406-.222657c.03125-.160156.09375-.316406.125-.476562v-.03125c.0625-.285157.128907-.570313.191407-.855469l.0625-.253906c0-.03125 0-.0625.03125-.09375l.03125-.066406c0-.03125 0-.0625.03125-.09375l.03125-.125c.035156-.222657.097656-.414063.160156-.605469.730469-2.441407 3.042969-4.121094 5.582031-4.121094.347656 0 .726563.03125 1.078125.09375 3.042969.570313 5.105469 3.425781 4.691407 6.5v.035156c0 .03125 0 .09375-.03125.15625l-.03125.097657c0 .09375-.03125.15625-.03125.25v.066406c0 .03125-.03125.09375-.03125.125v.0625c-1.714844 8.59375-5.773438 16.554687-11.703126 23.023437-6.117187 6.691407-13.984374 11.445313-22.765624 13.792969-2.09375.570312-3.871094 1.902344-4.949219 3.804688-1.078125 1.871093-1.363281 4.089843-.824219 6.183593.953125 3.550781 4.1875 6.027344 7.867188 6.027344.664062 0 1.363281-.097656 2.027343-.253906l.414063-.097657c.378906-.09375.792968-.125 1.203125-.125 2.632812 0 4.945312 1.773438 5.613281 4.3125.792969 2.980469-.855469 6.054688-3.804688 7.039063l-.414062.125c-4.28125 1.175781-6.816406 5.644531-5.675781 9.957031.953125 3.554688 4.1875 6.027344 7.863281 6.027344.699219 0 1.429688-.097656 2.125-.285156 23.6875-6.34375 43.507812-21.5625 55.808594-42.875 12.398437-21.242188 15.667968-46.039063 9.324218-69.726563zm-89.515624 3.898438h.0625c.445312 0 .886718 0 1.425781.03125l.539062.03125c10.339844.792969 18.457031 9.546875 18.457031 19.914062 0 6.5-3.203124 12.621094-8.53125 16.363281l-.476562.316407-.15625.097656c-.128906.09375-.285156.15625-.414062.253906l-.476563.285157c-.15625.09375-.285156.15625-.472656.253906-.253907.125-.445313.21875-.636719.316406h-.03125c-1.554688.761719-3.203125 1.332031-4.945312 1.679688-2.570313.507812-5.328126.507812-7.894532-.03125l-.890625-.222657c-8.71875-2.21875-15.03125-10.371093-15.03125-19.34375 0-2.3125.382813-4.597656 1.175781-6.753906.886719-2.441406 2.21875-4.691406 3.996094-6.625l.0625-.097656c3.582032-3.929688 8.464844-6.246094 13.761719-6.5.160156.03125.316406.03125.476563.03125zm0 0"/></clipPath><path d="m213.375 36.625c-48.800781-48.832031-127.949219-48.832031-176.75 0s-48.800781 127.949219 0 176.78125 127.949219 48.800781 176.78125 0 48.800781-127.980469-.03125-176.78125" fill="url(#a)"/><path d="m5.421875 120.878906 55.875-61.675781 78.226563-18.265625 49.65625 32.660156-39.351563 39.320313 6.882813 12.460937 17.40625-19.976562 5.613281 17.1875 20.832031-23.84375 8.183594 31.359375-12.050782 53.96875-51.78125 58.886719-77.183593-10.304688-54.792969-59.964844zm0 0" fill="url(#b)"/><path d="m213.914062 102.550781c-.949218-3.554687-4.183593-6.027343-7.863281-6.027343-.730469 0-1.425781.097656-2.125.285156-2.09375.570312-3.867187 1.902344-4.945312 3.804687-1.078125 1.871094-1.363281 4.09375-.824219 6.183594 8.8125 32.851563-5.550781 67.796875-34.945312 84.953125-.886719.507812-1.902344.792969-2.949219.792969-2.0625 0-3.996094-1.109375-5.042969-2.886719-1.585938-2.695312-.761719-6.121094 1.839844-7.832031l.09375-.0625c.066406-.03125.128906-.066407.191406-.128907l.09375-.0625c.035156-.03125.066406-.03125.097656-.0625l.285156-.160156c11.699219-6.976562 21.054688-17.789062 26.320313-30.441406 5.484375-13.160156 6.433594-27.363281 2.757813-41.128906-.953126-3.550782-4.1875-6.054688-7.863282-6.054688-.699218 0-1.429687.09375-2.125.285156-4.34375 1.171876-6.914062 5.644532-5.773437 9.988282l.0625.285156v.03125.066406c.574219 2.980469-1.265625 5.929688-4.214844 6.722656-.507813.125-1.015625.1875-1.523437.1875-2.378907 0-4.566407-1.488281-5.421876-3.710937v-.03125c-.0625-.1875-.125-.378906-.191406-.601563-.03125-.09375-.0625-.191406-.09375-.285156l-.09375-.253906c-2.125-7.417969-6.660156-14.109375-12.84375-18.835938-6.375-4.882812-13.984375-7.449218-22.039062-7.449218-4.34375 0-8.625.757812-12.652344 2.28125l-.125.03125-.097656.03125c-.316406.0625-.664063.097656-.980469.097656-2.472656 0-4.695313-1.585938-5.488281-3.902344-1.011719-2.917968.414062-6.121094 3.300781-7.292968.03125-.03125.09375-.03125.15625-.0625l.0625-.03125c.097656-.03125.191406-.066407.285156-.097657l.066407-.03125c.03125 0 .03125-.03125.0625-.03125h.0625c4.949218-1.679687 10.117187-2.535156 15.378906-2.535156 12.75 0 24.734375 4.945313 33.742187 13.949219 1.550781 1.523437 3.582031 2.378906 5.769531 2.378906 2.15625 0 4.21875-.855469 5.769532-2.378906 3.140625-3.136719 3.171875-8.273438.066406-11.445313l-.285156-.285156c-2.0625-2.316406-1.96875-5.835937.21875-8.023437 1.109375-1.109376 2.570312-1.710938 4.125-1.710938 1.425781 0 2.820312.507812 3.867187 1.457031l.316407.285157c1.523437 1.492187 3.550781 2.316406 5.707031 2.316406 2.191406 0 4.21875-.855469 5.742187-2.378906 1.550782-1.523438 2.378906-3.582032 2.378906-5.769532 0-2.191406-.859374-4.21875-2.378906-5.742187-17.347656-17.34375-40.429687-26.890625-65.039062-26.890625-24.605469 0-47.691406 9.546875-65.035156 26.890625-1.554688 1.554687-2.378907 3.585937-2.378907 5.742187 0 2.1875.855469 4.214844 2.378907 5.738282 1.554687 1.554687 3.582031 2.378906 5.738281 2.378906 2.1875 0 4.21875-.855469 5.773437-2.378906 14.269532-14.269532 33.261719-22.132813 53.523438-22.132813 13.191406 0 26.160156 3.421875 37.515625 9.925781 1.363281.757813 2.3125 2.027344 2.726562 3.519532.410157 1.488281.21875 3.074218-.570312 4.4375-1.046875 1.808593-2.984375 2.949218-5.074219 2.949218-.921875 0-1.839844-.222656-2.632812-.632812l-.09375-.066406c-.066407-.03125-.128907-.0625-.191407-.125l-.285156-.160157c-9.546875-5.355469-20.390625-8.210937-31.425781-8.210937-17.121094 0-33.199219 6.660156-45.28125 18.707031-1.554688 1.554687-2.378906 3.585937-2.378906 5.773437s.855468 4.214844 2.378906 5.769532c1.523437 1.523437 3.582031 2.378906 5.738281 2.378906s4.21875-.855469 5.773437-2.378906c.0625-.0625.125-.125.191407-.1875l.125-.128906c1.046875-.917969 2.410156-1.425782 3.804687-1.425782 1.554688 0 3.011719.601563 4.121094 1.710938 1.9375 1.933594 2.253906 4.945312.792969 7.230468l-.949219 1.046876c-6.816406 6.847656-10.558594 15.917968-10.558594 25.589843 0 10.90625 4.851563 21.148438 13.316406 28.0625l.09375.0625.066407.097657c1.773437 2.1875 1.710937 5.324218-.128907 7.449218-1.109374 1.269532-2.726562 2.03125-4.40625 2.03125-1.300781 0-2.570312-.445312-3.550781-1.207031l-.128906-.125c-.09375-.0625-.15625-.160156-.253906-.222656l-.15625-.160157c-6.597657-5.769531-11.480469-13.253906-14.113281-21.65625-2.726563-8.65625-2.917969-17.851562-.570313-26.605468 1.175781-4.34375-1.425781-8.8125-5.769531-9.988282-.699219-.191406-1.394532-.285156-2.125-.285156-3.648438 0-6.851563 2.441406-7.832032 5.960938l-.097656.414062c-.792968 2.410156-3.011718 3.996094-5.546875 3.996094-.507812 0-1.015625-.066406-1.523437-.191406-2.980469-.792969-4.820313-3.804688-4.214844-6.816406l.09375-.414063c1.109375-4.3125-1.492188-8.75-5.773438-9.894531-.695312-.1875-1.394531-.285156-2.121093-.285156-3.679688 0-6.914063 2.472656-7.867188 6.027343-6.339843 23.6875-3.074219 48.453125 9.230469 69.761719 12.300781 21.308594 32.121094 36.527344 55.808594 42.871094.695312.1875 1.394531.285156 2.125.285156 3.675781 0 6.910156-2.472656 7.863281-6.027344.570313-2.089844.285156-4.3125-.824219-6.183594-1.078125-1.867187-2.855468-3.234374-4.949218-3.804687-32.851563-8.8125-55.933594-38.714844-56.09375-72.710937 0-1.550782.601562-3.011719 1.679687-4.121094 1.113281-1.109375 2.570313-1.710938 4.125-1.742188h.03125c3.105469 0 5.675781 2.410156 5.800781 5.515625v.316407.160156.0625.0625.066406c.160156 13.695312 4.851563 27.238281 13.191406 38.175781 8.660157 11.320313 20.484376 19.25 34.246094 22.960938.699219.1875 1.398438.285156 2.125.285156 3.679688 0 6.914063-2.476563 7.867188-6.027344 1.140625-4.3125-1.429688-8.78125-5.742188-9.957031h-.03125c-.0625 0-.125-.03125-.15625-.03125l-.253906-.0625c-2.855469-1.015625-4.503906-4.089844-3.710938-7.007812.695313-2.535157 3.011719-4.3125 5.613282-4.3125.15625 0 .316406 0 .472656.03125l1.046875.253906c3.046875.792968 6.183594 1.203125 9.324219 1.203125 16.234375 0 30.601562-10.90625 34.914062-26.539063l.0625-.191406c.03125-.125.0625-.285156.09375-.410156l.03125-.128906c0-.03125.03125-.09375.03125-.125l.066406-.222657c.03125-.160156.09375-.316406.125-.476562v-.03125c.0625-.285157.128907-.570313.191407-.855469l.0625-.253906c0-.03125 0-.0625.03125-.09375l.03125-.066406c0-.03125 0-.0625.03125-.09375l.03125-.125c.035156-.222657.097656-.414063.160156-.605469.730469-2.441407 3.042969-4.121094 5.582031-4.121094.347656 0 .726563.03125 1.078125.09375 3.042969.570313 5.105469 3.425781 4.691407 6.5v.035156c0 .03125 0 .09375-.03125.15625l-.03125.097657c0 .09375-.03125.15625-.03125.25v.066406c0 .03125-.03125.09375-.03125.125v.0625c-1.714844 8.59375-5.773438 16.554687-11.703126 23.023437-6.117187 6.691407-13.984374 11.445313-22.765624 13.792969-2.09375.570312-3.871094 1.902344-4.949219 3.804688-1.078125 1.871093-1.363281 4.089843-.824219 6.183593.953125 3.550781 4.1875 6.027344 7.867188 6.027344.664062 0 1.363281-.097656 2.027343-.253906l.414063-.097657c.378906-.09375.792968-.125 1.203125-.125 2.632812 0 4.945312 1.773438 5.613281 4.3125.792969 2.980469-.855469 6.054688-3.804688 7.039063l-.414062.125c-4.28125 1.175781-6.816406 5.644531-5.675781 9.957031.953125 3.554688 4.1875 6.027344 7.863281 6.027344.699219 0 1.429688-.097656 2.125-.285156 23.6875-6.34375 43.507812-21.5625 55.808594-42.875 12.398437-21.242188 15.667968-46.039063 9.324218-69.726563zm-89.515624 3.898438h.0625c.445312 0 .886718 0 1.425781.03125l.539062.03125c10.339844.792969 18.457031 9.546875 18.457031 19.914062 0 6.5-3.203124 12.621094-8.53125 16.363281l-.476562.316407-.15625.097656c-.128906.09375-.285156.15625-.414062.253906l-.476563.285157c-.15625.09375-.285156.15625-.472656.253906-.253907.125-.445313.21875-.636719.316406h-.03125c-1.554688.761719-3.203125 1.332031-4.945312 1.679688-2.570313.507812-5.328126.507812-7.894532-.03125l-.890625-.222657c-8.71875-2.21875-15.03125-10.371093-15.03125-19.34375 0-2.3125.382813-4.597656 1.175781-6.753906.886719-2.441406 2.21875-4.691406 3.996094-6.625l.0625-.097656c3.582032-3.929688 8.464844-6.246094 13.761719-6.5.160156.03125.316406.03125.476563.03125zm0 0" fill="#f2d58b"/><g clip-path="url(#c)"><g clip-path="url(#d)"><path d="m314.371094 170.851562s-.316406-3.136718-115.964844 11.066407c-9.226562 5.804687-13.980469 3.234375-17.40625-4.722657-4.472656-2.125-6.691406-3.363281-10.972656-5.582031-8.371094 3.234375-14.617188-5.421875-11.605469-11.160156-4.472656-3.933594-4.757813-4.441406-8.371094-7.960937-9.671875 1.710937-13.699219-8.464844-9.894531-13.316407-8.210938-10.878906-16.171875-20.929687-23.433594-30.949219-5.863281 3.421876-12.90625-3.425781-16.550781-14.839843-12.90625-7.105469-13.476563-18.109375-7.738281-22.355469-1.742188-4.917969-3.359375-6.28125-4.503906-10.75-12.683594 6.246094-20.039063-1.175781-10.113282-13.097656 26.320313-31.550782-4.058594-116.945313-4.058594-116.945313zm0 0" fill="#fdf5b2"/></g></g><g clip-path="url(#e)"><g clip-path="url(#f)"><path d="m204.527344 283.898438s-.316406-3.140626-115.960938 11.066406c-9.226562 5.800781-13.984375 3.234375-17.410156-4.726563-4.46875-2.125-6.691406-3.359375-10.972656-5.578125-8.371094 3.234375-14.617188-5.421875-11.605469-11.164062-4.46875-3.929688-4.753906-4.4375-8.371094-7.957032-9.671875 1.710938-13.699219-8.46875-9.890625-13.320312-8.214844-10.875-16.175781-20.925781-23.433594-30.949219-5.835937 3.425781-12.875-3.453125-16.523437-14.839843-12.90625-7.101563-13.476563-18.105469-7.738281-22.355469-1.742188-4.914063-3.359375-6.277344-4.5-10.75-12.683594 6.25-20.042969-1.171875-10.117188-13.09375 26.289063-31.519531-4.089844-116.914063-4.089844-116.914063s72.871094 42.109375 72.457032 58.441406c8.816406-.445312-9.894532 41.664063 19.566406 75.878907 26.636719 30.949219 49.59375 37.769531 54.601562 33.519531 6.214844 6.152344 25.335938-16.269531 31.585938-10.527344.316406 3.675782 7.292969 12.683594 29.457031 4.945313 18.105469 26.542969 32.375 82.507812 32.945313 78.324219zm0 0" fill="#e4b94a"/></g></g><g clip-path="url(#g)"><g clip-path="url(#h)"><path d="m375.191406 124.207031s-.316406-3.140625-115.964844 11.066407c-9.226562 5.804687-13.984374 3.234374-17.40625-4.722657-4.472656-2.125-27.714843 1.648438-24.703124-4.09375-.507813 2.980469-3.394532-14.203125-7.515626-20.199219-4.789062-7.007812-10.8125-3.453124-9.894531-6.433593-9.671875 1.710937-16.488281-20.296875-12.683593-25.148438-5.359376.347657 5.707031-7.800781-12.238282-18.484375-21.722656-12.90625-35.863281-12.367187-29.871094-19.566406 26.285157-31.519531-10.304687-153.03125-10.304687-153.03125s72.867187 42.140625 72.425781 58.472656c8.8125-.445312-9.894531 41.667969 19.5625 75.882813 26.636719 30.949219 49.59375 37.765625 54.605469 33.515625 6.214844 6.152344 25.335937-16.265625 31.582031-10.527344.316406 3.679688 7.292969 12.683594 29.457032 4.945312 18.109374 26.542969 32.378906 82.511719 32.949218 78.324219zm0 0" fill="#fffcc7"/></g></g></svg>