<svg height="250" viewBox="0 0 250 250" width="250" xmlns="http://www.w3.org/2000/svg"><path d="m198.875 105.332031c0-.164062-.125-.25-.25-.332031v-.082031c-.125-.25-.375-.417969-.625-.5l-98.75-38.085938-.25-.082031c-.125-.082031-.375-.082031-.5-.082031h-46.125-.125c-.125 0-.125 0-.25 0h-.125c-.125 0-.125.082031-.25.082031s-.125.082031-.25.167969c-.125.082031-.125.164062-.25.25v.082031c0 .082031-.125.167969-.125.25v.082031l.125.75 23.75 113.835938.25.914062.125.585938c0 .164062.125.332031.25.414062 0 0 0 0 .125.085938.125.082031.375.164062.625.25h.125 46.125c.125 0 .25 0 .375-.085938.125 0 .25-.082031.375-.082031h.125s.125 0 .125-.082031c0 0 .125-.085938.125-.085938l74.625-77h.125v-.082031l.5-.5c0-.25.125-.5 0-.667969zm-86 37.917969-17.25 17.832031-17.25-82.832031 22.875 8.832031zm2.125-2.25-10.875-52.832031 45.25 17.5zm.75 3.167969 36.375-37.585938h18l-51.375 52.835938zm-15-59.585938-22.875-8.832031-1.625-7.667969h21zm-4.5 79.667969 17.25-17.832031 3.125 15.25-17.25 17.832031zm55.875-59.832031c-.125 0-.125-.085938-.25-.085938l-48.375-18.664062-3.5-16.917969 92 35.667969zm0 0" fill="#1d1f2a"/></svg>