
<svg xmlns="http://www.w3.org/2000/svg" xmlns:xlink="http://www.w3.org/1999/xlink" width="250px" height="250px" viewBox="0 0 250 250" version="1.1">
<defs>
<linearGradient id="linear0" gradientUnits="userSpaceOnUse" x1="147.5" y1="-24.5" x2="103" y2="160.5" gradientTransform="matrix(1.36612,0,0,1.36612,0,0)">
<stop offset="0" style="stop-color:rgb(17.254902%,17.254902%,23.921569%);stop-opacity:1;"/>
<stop offset="1" style="stop-color:rgb(10.196079%,10.196079%,15.294118%);stop-opacity:1;"/>
</linearGradient>
<linearGradient id="linear1" gradientUnits="userSpaceOnUse" x1="63.890099" y1="49.1875" x2="92.895103" y2="84.820503" gradientTransform="matrix(1.36612,0,0,1.36612,0,0)">
<stop offset="0" style="stop-color:rgb(100%,100%,100%);stop-opacity:1;"/>
<stop offset="1" style="stop-color:rgb(100%,100%,100%);stop-opacity:0.55;"/>
</linearGradient>
<linearGradient id="linear2" gradientUnits="userSpaceOnUse" x1="122.359001" y1="134.487" x2="86.7873" y2="85.686302" gradientTransform="matrix(1.36612,0,0,1.36612,0,0)">
<stop offset="0" style="stop-color:rgb(41.176471%,40.000001%,100%);stop-opacity:1;"/>
<stop offset="1" style="stop-color:rgb(41.176471%,40.000001%,100%);stop-opacity:0.36;"/>
</linearGradient>
</defs>
<g id="surface1">
<path style=" stroke:none;fill-rule:nonzero;fill:url(#linear0);" d="M 51.914062 1.367188 L 198.085938 1.367188 C 226.003906 1.367188 248.632812 23.996094 248.632812 51.914062 L 248.632812 198.085938 C 248.632812 226.003906 226.003906 248.632812 198.085938 248.632812 L 51.914062 248.632812 C 23.996094 248.632812 1.367188 226.003906 1.367188 198.085938 L 1.367188 51.914062 C 1.367188 23.996094 23.996094 1.367188 51.914062 1.367188 Z M 51.914062 1.367188 "/>
<path style=" stroke:none;fill-rule:nonzero;fill:rgb(100%,100%,100%);fill-opacity:1;" d="M 157.535156 58.742188 L 61.476562 193.976562 L 90.96875 193.976562 L 187.527344 58.742188 Z M 157.535156 58.742188 "/>
<path style=" stroke:none;fill-rule:nonzero;fill:url(#linear1);" d="M 94.039062 58.742188 L 122.304688 98.59375 L 107.558594 120.328125 L 63.933594 58.742188 Z M 94.039062 58.742188 "/>
<path style=" stroke:none;fill-rule:nonzero;fill:url(#linear2);" d="M 160.398438 193.988281 L 129.0625 149.914062 L 143.808594 128.78125 L 189.890625 193.988281 Z M 160.398438 193.988281 "/>
<path style="fill:none;stroke-width:2;stroke-linecap:butt;stroke-linejoin:miter;stroke:rgb(17.647059%,17.647059%,23.921569%);stroke-opacity:1;stroke-miterlimit:4;" d="M 38.001094 1.000781 L 144.998906 1.000781 C 165.434859 1.000781 181.999219 17.565141 181.999219 38.001094 L 181.999219 144.998906 C 181.999219 165.434859 165.434859 181.999219 144.998906 181.999219 L 38.001094 181.999219 C 17.565141 181.999219 1.000781 165.434859 1.000781 144.998906 L 1.000781 38.001094 C 1.000781 17.565141 17.565141 1.000781 38.001094 1.000781 Z M 38.001094 1.000781 " transform="matrix(1.36612,0,0,1.36612,0,0)"/>
</g>
</svg>
