<svg height="250" viewBox="0 0 250 250" width="250" xmlns="http://www.w3.org/2000/svg" xmlns:xlink="http://www.w3.org/1999/xlink"><linearGradient id="a" gradientUnits="userSpaceOnUse" x1="201.5027" x2="140.71036" y1="-33.46994" y2="219.26226"><stop offset="0" stop-color="#2c2c3d"/><stop offset="1" stop-color="#1a1a27"/></linearGradient><linearGradient id="b" gradientUnits="userSpaceOnUse" x1="87.28154204588" x2="126.90585811036" y1="67.1960275" y2="115.87498555836"><stop offset="0" stop-color="#fff"/><stop offset="1" stop-color="#fff" stop-opacity=".55"/></linearGradient><linearGradient id="c" gradientUnits="userSpaceOnUse" x1="167.15707844612" x2="118.561866276" y1="183.72538044" y2="117.05777088824"><stop offset="0" stop-color="#6966ff"/><stop offset="1" stop-color="#6966ff" stop-opacity=".36"/></linearGradient><path d="m51.914062 1.367188h146.171876c27.917968 0 50.546874 22.628906 50.546874 50.546874v146.171876c0 27.917968-22.628906 50.546874-50.546874 50.546874h-146.171876c-27.917968 0-50.546874-22.628906-50.546874-50.546874v-146.171876c0-27.917968 22.628906-50.546874 50.546874-50.546874zm0 0" fill="url(#a)"/><path d="m157.535156 58.742188-96.058594 135.234374h29.492188l96.558594-135.234374zm0 0" fill="#fff"/><path d="m94.039062 58.742188 28.265626 39.851562-14.746094 21.734375-43.625-61.585937zm0 0" fill="url(#b)"/><path d="m160.398438 193.988281-31.335938-44.074219 14.746094-21.132812 46.082031 65.207031zm0 0" fill="url(#c)"/><path d="m38.001094 1.000781h106.997812c20.435953 0 37.000313 16.56436 37.000313 37.000313v106.997812c0 20.435953-16.56436 37.000313-37.000313 37.000313h-106.997812c-20.435953 0-37.000313-16.56436-37.000313-37.000313v-106.997812c0-20.435953 16.56436-37.000313 37.000313-37.000313zm0 0" fill="none" stroke="#2d2d3d" stroke-width="2" transform="scale(1.36612)"/></svg>