<svg width="250" height="250" viewBox="0 0 1080 1080" fill="none" xmlns="http://www.w3.org/2000/svg">
<rect x="0.5" y="0.5" width="1079" height="1079" fill="#010125"/>
<rect x="0.5" y="0.5" width="1079" height="1079" stroke="#010125"/>
<path d="M927.872 570.61C913.594 653.112 830.589 702.417 758.445 702.417C732.587 702.417 708.348 696.591 686.518 685.048C654.33 722.198 607.073 743.38 556.832 743.38C521.947 743.38 488.572 733.131 460.233 713.638C459.046 712.847 458.254 711.444 458.362 710.006C458.47 708.495 459.261 707.201 460.556 706.517C473.431 699.289 486.234 689.867 498.606 678.61C499.397 677.927 500.476 677.531 501.663 677.531C502.382 677.531 503.03 677.639 503.749 678.035C521.479 687.169 539.425 691.773 556.868 691.773C608.476 691.773 650.41 651.206 677.347 620.6C678.138 619.773 679.217 619.162 680.404 619.09H680.727C681.806 619.09 682.921 619.485 683.784 620.277C704.967 639.265 732.623 649.695 761.574 649.695C792.467 649.695 821.598 637.971 843.608 616.788C844.507 615.925 844.795 615.673 845.262 615.206C859.001 602.151 867.272 586.47 872.199 568.812C872.703 566.906 874.501 565.611 876.479 565.611H923.556C924.815 565.611 926.109 566.223 926.901 567.122C927.8 568.129 928.195 569.424 927.908 570.61H927.872Z" fill="url(#paint0_linear_2823_4)"/>
<path d="M352.192 699.785C313.243 699.785 276.991 684.105 241.135 652.097C215.889 628.001 199.633 597.431 193.986 563.769H156.045C153.671 563.769 151.585 561.899 151.585 559.669V518.239C151.585 515.865 153.491 513.959 155.865 513.959H193.986C202.906 437.895 279.185 375.858 364.06 375.858C390.098 375.858 414.481 381.828 436.276 393.696C468.571 356.869 515.828 335.758 566.033 335.758C600.811 335.758 634.293 346.008 662.632 365.32C663.819 366.111 664.503 367.514 664.503 368.917C664.395 370.319 663.604 371.722 662.309 372.405C649.434 379.598 636.631 388.948 624.259 400.097C623.468 400.781 622.389 401.212 621.202 401.212C620.483 401.212 619.8 401.104 619.116 400.709C601.386 391.646 583.548 387.078 566.105 387.078C515.396 387.078 475.081 424.481 445.662 457.172C444.871 458.071 443.684 458.683 442.497 458.683H442.281C441.095 458.683 440.016 458.287 439.117 457.496C419.193 438.866 392.256 428.653 363.341 428.653C315.293 428.653 260.412 457.927 248.724 514.067H359.277C361.65 514.067 363.664 515.973 363.736 518.239L364.024 559.669C364.024 560.82 363.52 561.935 362.729 562.69C361.83 563.481 360.751 563.877 359.564 563.877H248.436C260.628 618.614 315.509 647.206 363.341 647.206C394.054 647.206 411.029 643.717 442.389 615.773L522.841 538.594C596.531 462.603 679.967 376.505 770.596 376.505C809.545 376.505 845.797 392.077 881.545 424.013C881.941 424.301 882.444 424.589 882.732 424.912C904.418 446.347 919.595 472.78 926.5 501.588C926.896 502.846 926.5 504.141 925.709 505.112C924.81 506.191 923.515 506.694 922.256 506.694H876.942C874.964 506.694 873.273 505.508 872.662 503.745C858.204 459.582 811.955 428.617 760.131 428.617C729.094 428.617 700.431 440.197 679.607 460.912C679.607 460.912 627.783 508.636 599.264 538.127C525.754 614.047 442.641 699.677 352.192 699.785Z" fill="white"/>
<defs>
<linearGradient id="paint0_linear_2823_4" x1="458.362" y1="654.478" x2="927.979" y2="654.478" gradientUnits="userSpaceOnUse">
<stop stop-color="#0C86FF"/>
<stop offset="1" stop-color="#0A42E7"/>
</linearGradient>
</defs>
</svg>
