<svg height="250" viewBox="0 0 250 250" width="250" xmlns="http://www.w3.org/2000/svg"><path d="m250 125c0 69.035156-55.964844 125-125 125s-125-55.964844-125-125 55.964844-125 125-125 125 55.964844 125 125zm0 0" fill="#ffbc36"/><path d="m38.320312 157.5h42.265626v-11.71875h-26.953126v-15.625h20.585938v-11.328125h-20.585938v-15.3125h26.953126v-11.71875h-42.265626zm101.171876-56.367188c-3.042969-2.964843-6.640626-5.300781-10.585938-6.875-4.453125-1.6875-9.183594-2.523437-13.945312-2.460937h-25.703126v65.703125h25.507813c4.828125.089844 9.625-.746094 14.140625-2.460938 4.023438-1.535156 7.691406-3.875 10.78125-6.875 2.980469-2.964843 5.332031-6.496093 6.914062-10.390624 3.28125-8.441407 3.28125-17.808594 0-26.25-1.625-3.917969-4.046874-7.457032-7.109374-10.390626zm-7.5 32.304688c-.761719 2.441406-1.996094 4.710938-3.632813 6.679688-1.585937 1.8125-3.5625 3.242187-5.78125 4.179687-2.476563 1.019531-5.132813 1.523437-7.8125 1.484375h-10.195313v-42.265625h10.195313c2.679687-.039063 5.335937.464844 7.8125 1.484375 2.242187.984375 4.222656 2.484375 5.78125 4.375 1.644531 1.949219 2.878906 4.207031 3.632813 6.640625 1.664062 5.753906 1.664062 11.863281 0 17.617187zm64.453124-41.640625v39.0625c.035157 2.101563-.253906 4.199219-.859374 6.210937-.527344 1.691407-1.390626 3.257813-2.539063 4.609376-1.132813 1.257812-2.535156 2.246093-4.101563 2.890624-3.519531 1.355469-7.417968 1.355469-10.9375 0-1.503906-.671874-2.839843-1.671874-3.90625-2.929687-1.253906-1.425781-2.1875-3.101563-2.734374-4.921875-.605469-2.011719-.894532-4.109375-.859376-6.210938v-39.0625h-15.273437v39.0625c-.035156 3.785157.625 7.546876 1.953125 11.09375 1.234375 3.261719 3.136719 6.226563 5.585938 8.710938 2.578124 2.601562 5.679687 4.628906 9.101562 5.9375 7.582031 2.679688 15.855469 2.679688 23.4375 0 3.324219-1.261719 6.355469-3.191406 8.90625-5.664062 2.449219-2.484376 4.351562-5.449219 5.585938-8.710938 1.359374-3.539062 2.035156-7.304688 1.992187-11.09375v-39.0625zm-71.445312-91.796875c-69.035156 0-125 55.964844-125 125s55.964844 125 125 125 125-55.964844 125-125-55.964844-125-125-125zm0 234.375c-60.40625 0-109.375-48.96875-109.375-109.375s48.96875-109.375 109.375-109.375 109.375 48.96875 109.375 109.375-48.96875 109.375-109.375 109.375zm0 0" fill="#ca9729"/></svg>