
<svg xmlns="http://www.w3.org/2000/svg" xmlns:xlink="http://www.w3.org/1999/xlink" width="250px" height="250px" viewBox="0 0 250 250" version="1.1">
<g id="surface1">
<path style=" stroke:none;fill-rule:nonzero;fill:rgb(100%,73.725492%,21.176471%);fill-opacity:1;" d="M 250 125 C 250 194.035156 194.035156 250 125 250 C 55.964844 250 0 194.035156 0 125 C 0 55.964844 55.964844 0 125 0 C 194.035156 0 250 55.964844 250 125 Z M 250 125 "/>
<path style=" stroke:none;fill-rule:nonzero;fill:rgb(79.215688%,59.215689%,16.078432%);fill-opacity:1;" d="M 38.320312 157.5 L 80.585938 157.5 L 80.585938 145.78125 L 53.632812 145.78125 L 53.632812 130.15625 L 74.21875 130.15625 L 74.21875 118.828125 L 53.632812 118.828125 L 53.632812 103.515625 L 80.585938 103.515625 L 80.585938 91.796875 L 38.320312 91.796875 Z M 139.492188 101.132812 C 136.449219 98.167969 132.851562 95.832031 128.90625 94.257812 C 124.453125 92.570312 119.722656 91.734375 114.960938 91.796875 L 89.257812 91.796875 L 89.257812 157.5 L 114.765625 157.5 C 119.59375 157.589844 124.390625 156.753906 128.90625 155.039062 C 132.929688 153.503906 136.597656 151.164062 139.6875 148.164062 C 142.667969 145.199219 145.019531 141.667969 146.601562 137.773438 C 149.882812 129.332031 149.882812 119.964844 146.601562 111.523438 C 144.976562 107.605469 142.554688 104.066406 139.492188 101.132812 Z M 131.992188 133.4375 C 131.230469 135.878906 129.996094 138.148438 128.359375 140.117188 C 126.773438 141.929688 124.796875 143.359375 122.578125 144.296875 C 120.101562 145.316406 117.445312 145.820312 114.765625 145.78125 L 104.570312 145.78125 L 104.570312 103.515625 L 114.765625 103.515625 C 117.445312 103.476562 120.101562 103.980469 122.578125 105 C 124.820312 105.984375 126.800781 107.484375 128.359375 109.375 C 130.003906 111.324219 131.238281 113.582031 131.992188 116.015625 C 133.65625 121.769531 133.65625 127.878906 131.992188 133.632812 Z M 196.445312 91.796875 L 196.445312 130.859375 C 196.480469 132.960938 196.191406 135.058594 195.585938 137.070312 C 195.058594 138.761719 194.195312 140.328125 193.046875 141.679688 C 191.914062 142.9375 190.511719 143.925781 188.945312 144.570312 C 185.425781 145.925781 181.527344 145.925781 178.007812 144.570312 C 176.503906 143.898438 175.167969 142.898438 174.101562 141.640625 C 172.847656 140.214844 171.914062 138.539062 171.367188 136.71875 C 170.761719 134.707031 170.472656 132.609375 170.507812 130.507812 L 170.507812 91.445312 L 155.234375 91.445312 L 155.234375 130.507812 C 155.199219 134.292969 155.859375 138.054688 157.1875 141.601562 C 158.421875 144.863281 160.324219 147.828125 162.773438 150.3125 C 165.351562 152.914062 168.453125 154.941406 171.875 156.25 C 179.457031 158.929688 187.730469 158.929688 195.3125 156.25 C 198.636719 154.988281 201.667969 153.058594 204.21875 150.585938 C 206.667969 148.101562 208.570312 145.136719 209.804688 141.875 C 211.164062 138.335938 211.839844 134.570312 211.796875 130.78125 L 211.796875 91.71875 Z M 125 0 C 55.964844 0 0 55.964844 0 125 C 0 194.035156 55.964844 250 125 250 C 194.035156 250 250 194.035156 250 125 C 250 55.964844 194.035156 0 125 0 Z M 125 234.375 C 64.59375 234.375 15.625 185.40625 15.625 125 C 15.625 64.59375 64.59375 15.625 125 15.625 C 185.40625 15.625 234.375 64.59375 234.375 125 C 234.375 185.40625 185.40625 234.375 125 234.375 Z M 125 234.375 "/>
</g>
</svg>
