<svg height="250" viewBox="0 0 250 250" width="250" xmlns="http://www.w3.org/2000/svg" xmlns:xlink="http://www.w3.org/1999/xlink"><linearGradient id="a" gradientUnits="userSpaceOnUse" x1="250.000384" x2="35.156304" y1="-.00001269533" y2="250.000384"><stop offset="0" stop-color="#fbfbfb"/><stop offset=".510417" stop-color="#b5b5b5"/><stop offset="1" stop-color="#fbfbfb"/></linearGradient><path d="m0 0h250v250h-250z" fill="url(#a)"/><g fill="#fff"><path d="m168.609375 63.460938c-.566406-.386719-.957031-.6875-1.375-.957032-.210937-.148437-.480469-.269531-.691406-.417968-.507813-.332032-1.015625-.660157-1.527344-.988282-.238281-.152344-.507813-.269531-.777344-.421875-.207031-.117187-.539062-.179687-.628906-.359375-.359375-.71875-.867187-.566406-1.4375-.386718-.570313.179687-1.195313.269531-1.765625.449218-.179688.058594-.359375.328125-.421875.507813-.117187.480469-.359375.898437-.867187.867187-.597657-.027344-1.226563-.207031-1.824219-.386718-.269531-.089844-.421875-.421876-.691407-.511719-1.195312-.449219-1.707031-1.617188-2.574218-2.394531-.269532-.238282-.75-.480469-.988282-.390626-.269531.089844-.480468.601563-.507812.929688-.0625.71875-.0625 1.4375.027344 2.15625.121094.898438.871094 1.378906 1.46875 1.945312.328125.300782.628906.660157.929687 1.019532.867188.988281 1.765625 2.007812 2.632813 2.996094.242187.269531.691406.449218.152344.867187-.511719.417969-.929688.417969-1.289063-.03125-.328125-.417969-.75-.777344-1.078125-1.167969-.148438-.179687-.269531-.386718-.417969-.597656-.089843-.148438-.121093-.359375-.210937-.449219-.898438-.777343-1.378906-1.945312-2.1875-2.726562-1.734375-1.617188-1.136719-3.503907-1.046875-5.328125.03125-.570313.597656-1.078125.898437-1.648438.03125-.058594.121094-.089844.148438-.148437.960937-1.886719 2.757812-1.050781 4.195312-1.347657.71875.597657 1.316406 1.285157 2.15625 1.734376.296875.152343-.089844.808593-.511718.71875-.386719-.058594-.808594-.296876-1.078126-.566407-.65625-.691406-2.542968-1.140625-3.414062-.71875-.417969.207031-.476562.628907-.089844.957031.660156.570313 1.347656 1.109376 2.007813 1.675782.148437.152344.269531.332031.390625.539062.089844.121094.117187.332032.207031.390625.960937.480469 1.796875 1.316407 2.996094.988281.207031-.058593.507812-.417968.507812-.628906 0-.480468-.148437-.957031-.328125-1.4375-.121094-.359375-.390625-.75.089844-.957031.449219-.210937 1.078125-.269531 1.289062.296875.265626.75.804688.871094 1.464844.871094.539063.027344.957032.179687 1.109375.777344.058594.179687.359375.328124.597657.390624.660156.207032 1.46875.148438 1.765624.988282.03125.089844.242188.207031.359376.207031.511718.0625.898437.242187 1.019531.808594.03125.121093.148437.300781.269531.332031 1.109375.207031 1.46875 1.285156 2.246094 1.914062.75.601563 1.40625 1.347657 2.035156 2.007813.570312.570313 1.320312 1.046875 1.707031 1.828125.0625.117188.089844.296875.179688.328125.75.058594.898437.808594 1.347656 1.136719.449219.332031.78125.660156.960937 1.167968.027344.089844.089844.179688.179688.242188.957031.507812 1.914062.988281 2.84375 1.523438.417969.242187.777344.511718 1.199219.75.867187.507812 1.734375.988281 2.574219 1.527343.269531.179688.417968.539063.6875.75.269531.207031.628906.449219.898437.386719 1.4375-.179688 1.347656-.207031 1.378906-1.734375.058594-2.277344.269531-4.523437.386719-6.796875.03125-.539062.09375-1.078125.152344-1.648438.089844-1.558593.386718-3.023437.746094-4.550781.359374-1.46875.210937-3.054687.242187-4.613281 0-.867188.148437-1.617188.75-2.277344.207031-.238281.328125-.566406.386719-.867187.269531-1.617188 2.605468-2.753907 4.011718-1.917969.839844.511719 1.796876.929688 2.246094 1.949219.269532.566406.71875 1.078125.988282 1.644531.152343.300781.089843.71875.121093 1.289062-.628906-.75-1.078125-1.289062-1.527343-1.828124-.121094.03125-.238282.089843-.390626.121093 0 .507813-.207031 1.136719.03125 1.496094.539063.898437.660157 1.917969.898438 2.90625.058594.269531.210938.539063.328125.839844.71875-.300781.539063-.929688.691406-1.378907.148438-.480468.238281-.988281.359375-1.496093.089844-.03125.148438-.03125.238282-.0625.148437.421875.390624.839843.390624 1.257812.027344 1.796875 0 3.59375 0 5.390625.027344 3.746094.027344 7.488282.117188 11.230469.03125 1.648437.179688 3.292969.300781 4.910156 0 .179688.058594.359375.121094.511719 1.015625 1.945312.835937 3.921875.058594 5.898438-.238281.597656-.238281 1.316406-.359375 1.976562-.238282 1.46875-.507813 2.933594-.777344 4.402344-.179688.957031-.332031 1.917968-.570312 2.84375-.179688.691406-.480469 1.316406-.71875 2.007812-.148438.480469-.328126.988282-.417969 1.464844-.121094.71875-.152344 1.4375-.242188 2.15625-.058593.300781-.117187.691406-.328125.898438-.71875.75-.628906 1.648437-.238281 2.367187.597656 1.109375.6875 2.277344.777344 3.445313.121093 1.707031.359375 3.351562.929687 5.03125.449219 1.285156.296875 2.8125.359375 4.222656.027344.777344-.03125 1.496094.597657 2.125.269531.269531.269531.839844.328124 1.257812.179688 1.347656.300782 2.722656.480469 4.074219.03125.265625.238281.539063.390625.777344.476563.777343.417969 1.675781-.242187 2.394531-.058594-.269531-.117188-.449219-.148438-.660156-.089843-.6875-.179687-1.257813-.839843-1.792969-.476563-.390625-.539063-1.289063-.808594-1.949219-.117188-.300781-.269532-.597656-.449219-.898437-.058594-.089844-.207031-.148438-.238281-.269531-.507813-1.167969-1.046875-2.335938-1.558594-3.503907-.058594-.117187 0-.296875-.058594-.359375-.71875-.6875-.957031-1.675781-1.46875-2.425781-.449218-.628906-.6875-1.285156-.988281-1.945313-.148437-.328124-.386719-.660156-.597656-.988281-.03125-.03125-.058594-.058593-.089844-.121093-.597656-1.136719-1.199219-2.273438-1.796875-3.414063 0-.027344 0-.058594-.03125-.058594-.597656-.867187-1.164062-1.765625-1.285156-2.84375 0-.121093-.238282-.179687-.332032-.300781-.265624-.300781-.625-.597656-.71875-.957031-.207031-.75-.417968-1.4375-1.078124-1.949219-.265626-.207031-.296876-.71875-.507813-1.046875-.597656-1.046875-1.195313-2.066406-1.796875-3.085937-.539062-.898438-1.136719-1.796876-1.675781-2.691407-.03125-.0625-.058594-.179687-.121094-.179687-.925781-.332032-1.136719-1.140625-1.375-1.976563-.03125-.089843-.089844-.179687-.179687-.242187-1.378907-1.046875-2.726563-2.125-4.132813-3.144532-.929687-.65625-1.917969-1.226562-2.875-1.824218-.332031-.210938-.71875-.332032-1.078125-.511719-.570312-.296875-1.140625-.65625-1.738281-.957031-.6875-.359375-1.347657-.71875-2.097657-.957032-1.914062-.628906-3.59375-1.648437-5.296874-2.667968-.332032-.207032-.75-.296875-1.109376-.449219-1.378906-.597656-2.84375-.988281-4.011718-1.945313-.179688-.148437-.390625-.210937-.601563-.300781-.328125-.089843-.746093-.058593-.988281-.269531-1.046875-.835938-2.304688-1.257812-3.441406-1.886719-.480469-.269531-1.109375-.359375-1.527344-.6875-1.078125-.808593-1.707031-.359375-2.398438.570313-.566406.777344-1.527343.867187-2.425781.957031-1.015625.089844-1.976562-.03125-2.664062-.957031-.121094-.179688-.417969-.332032-.628907-.359375-.539062-.089844-.898437-.390625-1.289062-.78125-.328125-.328125-.957031-.417969-1.496094-.507813-.148437-.03125-.449218.238282-.507812.449219-.570313 1.765625-.238282 2.515625 1.40625 3.355469.328125.179687.570312.539062.867187.746094.300781.210937.628907.332031.960938.480468.6875.328125 1.375.628906 2.035156.957032.148437.0625.300781.242187.449219.242187 1.648437-.03125 2.753906 1.136719 4.074218 1.824219.777344.390625 1.464844.929687 2.214844 1.347656.328125.179688.75.242188 1.136719.359375.179687.0625.421875.0625.570313.152344 1.136718.6875 2.277343 1.40625 3.414062 2.09375.238281.152343.539062.210937.808594.359375.300781.121094.597656.269531.867187.421875 1.019531.628906 2.007813 1.257812 2.996094 1.914062.269531.179688.476563.421875.71875.628907.238281.210937.449219.449218.6875.660156.78125.6875 1.558594 1.378906 2.335937 2.035156.957032.839844 1.738282 1.828125 2.484376 2.84375.539062.75 1.347656 1.320312 1.976562 2.007812.929688 1.019532 1.828125 2.097657 2.726562 3.144532.121094.148437.210938.328125.269532.507812.269531.691406.6875 1.289063 1.226562 1.828125.601563.597657.929688 1.4375 1.378906 2.15625.148438.238281.359376.449219.539063.628907.179687.179687.480469.300781.597656.539062.332031.75.871094 1.347656 1.257813 2.007812.480468.808594 1.679687 1.167969 1.589844 2.335938 0 .058594.089843.117188.117187.179688.359375.507812.71875 1.015624 1.050781 1.554687.117188.210937.148438.539063.328125.660156 1.136719.660157 1.019531 2.125 1.976563 2.90625.058594.058594-.058594.476563-.210938.597657-.089844.089843-.417968 0-.566406-.121094-.390625-.328125-.71875-.6875-1.050781-1.078125-.117188-.148438-.269531-.328125-.296875-.507813-.121094-.75-.628906-1.199218-1.167969-1.648437-.089844-.058594-.210937-.148438-.210937-.207031-.058594-1.167969-1.167969-1.769532-1.558594-2.785157-.238282-.628906-.957032-1.078125-1.4375-1.648437-.597656-.75-1.136719-1.527344-1.707032-2.277344 0-.027344 0-.058594-.027343-.058594-1.5-.777344-1.679688-3.023437-3.714844-3.292968-1.046875-.152344-2.097656-.601563-3.113281-.960938-.511719-.179688-.960938-.628906-1.5-.777344-1.644532-.480468-2.992188-1.707031-4.820313-1.675781-.269531 0-.566406-.089844-.777343-.242187-1.046876-.6875-2.214844-.835938-3.414063-.898438-2.15625-.117188-4.222656-.71875-6.199219-1.554688-1.289062-.539062-1.945312-.449218-2.84375.570313-1.46875 1.703125-3.773437 1.703125-5.453125.148437-.328125-.300781-1.015625-.421874-1.496093-.328124-.449219.085937-.359376.597656-.089844.984374.539062.78125 1.316406 1.109376 2.246094 1.320313.507812.117187.957031.507813 1.46875.71875.449218.179687.925781.296875 1.4375.386719.6875.089844 1.226562.332031 1.765624.808594.6875.601562 1.527344.988281 2.335938 1.410156 1.765625.867187 3.5625 1.707031 5.359375 2.542968.179687.089844.359375.152344.539063.210938.179687.058594.390624.03125.511718.148438.777344.628906 1.886719.78125 2.574219 1.320312.777344.628906 1.648437 1.046875 2.453125 1.617188.242188.179687.480469.328124.75.449218.71875.296875 1.46875.507813 1.738281 1.347656.027344.089844.121094.207032.207031.207032.960938.0625 1.320313.75 1.707032 1.46875.121094.210937.421875.480468.628906.480468.988281.027344 1.109375.777344 1.347656 1.464844.121094.300782.359375.539063.480469.839844.238281.539062.480469 1.078125.660156 1.617188.089844.210937.027344.480468.148438.660156 1.109375 1.433594 1.078125 3.144531 1.316406 4.820312.152344 1.046875.359375 2.09375.511719 3.144532.027344.179687.027344.386718-.03125.507812-.75 1.316406-.539063 2.753906-.597656 4.164062-.0625 1.527344-.601563 2.84375-1.167969 4.222657-.210938.539062-.300781 1.136719-.480469 1.707031-.089844.269531-.210938.539062-.328125.808594-.242187.449218-.511719.867187-.78125 1.316406-.328125.539062-.6875 1.046875-.988281 1.617188-.476563.839843-.898438 1.707031-1.347656 2.546874-.148438.296876-.386719.539063-.597657.804688-.121093.121094-.269531.242188-.359375.359375-.746094 1.019531-1.496094 2.007813-2.246094 3.027344-.65625.867187-1.226562 1.796875-1.945312 2.605469-.570312.65625-1.316406 1.167968-1.945312 1.765624-.511719.507813-.929688 1.136719-1.410157 1.675782-.988281 1.050781-1.976562 2.039062-2.992187 3.054687-.75.75-1.527344 1.46875-2.277344 2.21875-.449219.417969-.898438.835938-1.316406 1.285157-.390625.421874-.75.898437-1.140625 1.347656-.058594.0625-.089844.152344-.148438.179687-1.046875.390625-1.4375 1.527344-2.304687 2.128907-.960938.65625-2.007813 1.195312-2.875 1.945312-.75.628906-1.527344 1.046875-2.488282 1.199219-.089843 0-.207031.089843-.238281.179687-.390625.714844-1.046875.894532-1.796875 1.046875-.808594.179688-1.585937.539063-2.394531.746094-2.605469.71875-5.269531.210937-7.875.359375-1.078125.0625-2.1875.03125-3.296875-.085938-.925781-.121093-1.824219-.390624-2.753906-.632812-.839844-.238281-1.707032-.417969-2.484375-.777344-.871094-.359375-1.679688-.835937-2.457031-1.347656-1.109376-.6875-2.15625-1.4375-3.234376-2.15625-.03125-.027344-.117187-.027344-.117187-.089844-.480469-1.257812-1.976563-1.136718-2.726563-2.15625-.539062-.746094-1.558593-1.136718-2.1875-1.855468-.898437-1.046876-2.273437-1.585938-2.875-2.90625-.058593-.148438-.238281-.269532-.417968-.296876-1.109375-.269531-1.617188-1.078124-2.007813-2.039062-.027343-.058594-.027343-.148438-.089843-.207031-.628907-.539063-1.226563-1.050781-1.855469-1.558594-.058594-.058594-.148438-.058594-.210938-.089844-.597656-.660156-1.167969-1.347656-1.765625-1.976562-.507812-.570313-1.046875-1.136719-1.585937-1.675781-.71875-.691407-1.5-1.289063-1.769531-2.304688-.089844-.300781-.207032-.660156-.417969-.839844-.6875-.628906-.957031-1.410156-1.019531-2.335937-.027344-.6875-.296876-1.289063-.597657-1.945313-.359375-.808594-.417969-1.796875-.417969-2.695312 0-2.425782.179688-4.824219.148438-7.25-.03125-1.375-.359375-2.753906-.539062-4.132813-.03125-.179687-.058594-.386719-.058594-.566406.089844-.898437.179687-1.769531.296875-2.667969.0625-.386718.089843-.808594.242187-1.167968.507813-1.195313 1.136719-2.363282 1.617188-3.5625.328125-.867188.449218-1.824219.71875-2.695313.148437-.507813.476562-.957031.6875-1.4375.148437-.328125.328125-.65625.390625-1.015625.117187-.839844.269531-1.679688.988281-2.246094.058594-.0625.148438-.121094.148438-.152344-.03125-1.496093 1.378906-2.363281 1.585937-3.773437.0625-.449219.449219-.835937.691406-1.257813.058594-.117187.148438-.179687.238281-.296874.808594-1.109376 1.648438-2.21875 2.457032-3.324219.117187-.179688.207031-.390625.269531-.601563.117187-.539062.179687-1.078125.777344-1.375.089843-.0625.179687-.179687.210937-.300781.148438-1.046875.359375-2.09375.417969-3.144531.058594-.839844-.03125-1.675782-.089844-2.515625-.03125-.417969-.121093-.925781-.660156-.925781-.269531 0-.65625.296874-.808594.566406-.835937 1.316406-1.855469 2.488281-3.203125 3.324218-.449218.269532-1.109375.480469-1.585937.359376-1.347657-.296876-3.265625.777343-3.296875 2.335937 0 .417969-.597656.839844-.898438 1.289063-.238281.359374-.566406.6875-.65625 1.078124-.152344.71875-.332031 1.40625-.988281 1.855469-.152344.089844-.242187.269531-.332031.417969-.476563.871094-.898438 1.738281-1.375 2.605469-.179688.300781-.480469.570312-.71875.839843-.058594.058594-.210938.121094-.210938.179688-.027344 1.257812-1.316406 1.707031-1.707031 2.816406-.390625 1.078125-.835937 2.214844-1.765625 2.992188-.210938.179687-.269531.570312-.417969.871094-.300781.539062-.601562 1.105468-.898437 1.644531-.0625.121093-.179688.242187-.210938.390625-.300781 1.199218-1.136718 2.035156-1.855468 2.996094-.449219.597656-.539063 1.464843-.808594 2.214843-.210938.597657-.511719 1.195313-.660156 1.796875-.210938.777344-.417969 1.585938-.449219 2.394532-.058594 1.648437 0 3.292968-.03125 4.941406-.058594 3.113281-.179688 6.230468-.269531 9.34375 0 .210937 0 .480468-.117188.660156-.75 1.164062-.78125 2.484375-.960938 3.800781-.148437 1.050781-.628906 2.035157-.835937 3.085938-.210937 1.078125-.390625 2.214843-.421875 3.324219-.027344 1.285156-.6875 2.273437-1.285156 3.292968-.210938.359375-.691406.238282-.871094-.179687-.359375-.867188-.238281-1.707031.210938-2.515625.359374-.597656.359374-1.226563.390624-1.917969.089844-1.347656.476563-2.664063.777344-3.980469.089844-.390625.359375-.71875.417969-1.109375.269531-1.558593.480469-3.113281.71875-4.640625.03125-.121094 0-.269531.0625-.359375 1.015625-2.574219.65625-5.242187.597656-7.90625-.03125-1.46875-.058593-2.933593-.179687-4.402343-.058594-.75-.328125-1.496094-.449219-2.246094-.300781-1.648438-.570313-3.292969-.839844-4.941406-.027343-.210938-.027343-.417969-.117187-.570313-.960938-1.855469-.808594-3.859375-.898438-5.835937-.0625-1.078126.058594-2.15625.027344-3.207032-.027344-.71875-.117188-1.375-.417969-2.09375-.328125-.839844-.058593-1.949218.03125-2.90625.089844-.839844.296875-1.648437.386719-2.484375.152344-1.289062.121094-2.605469.390625-3.863281.179687-.871094.75-1.679688 1.078125-2.515625.480469-1.257813.898438-2.578125 1.40625-3.832031.269531-.691406.75-1.320313 1.019531-2.007813.300781-.75.449219-1.527343.988281-2.214843.390626-.511719.417969-1.289063.628907-1.949219.089843-.296875.269531-.539063.449219-.867188.539062.898438.390624 2.964844-.210938 3.652344-.089844.121094-.207031.210937-.269531.359375-.566407 1.648438-1.105469 3.296875-1.675781 4.941406-.121094.359375-.417969.628906-.628907.957032-.179687.273437-.417969.570312-.417969.839843-.0625.988281-.0625 1.917969-.929687 2.636719-.238281.179688-.269531.6875-.269531 1.046875-.121094 2.695313-.300782 5.390625-.269532 8.054687.03125 2.277344.417969 4.523438.417969 6.800782 0 1.886718 1.078125 3.441406 1.289063 5.238281.03125.148437.300781.269531.449218.390625.089844-.179688.300782-.359375.300782-.539062 0-.78125.269531-1.40625.988281-1.796876.148437-.0625.238281-.242187.296875-.390624.421875-.867188.839844-1.734376 1.257812-2.605469 0-.027344.03125-.058594.03125-.058594.6875-.929687 1.40625-1.855469 2.097657-2.785156.117187-.179688.148437-.417969.269531-.597657.359375-.539062.746094-1.050781 1.136719-1.589843 0-.027344.058593-.027344.058593-.027344.480469-.75.929688-1.5 1.40625-2.246094.273438-.449219.570313-.898437.839844-1.378906.597656-.957031 1.230469-1.945313 1.828125-2.90625.179688-.296875.386719-.628906.597657-.925781.121093-.210938.300781-.390625.390624-.601563.089844-.179687.089844-.386719.207032-.566406.390625-.570313.988281-1.109375 1.167968-1.738281.210938-.808594.539063-1.347656 1.347657-1.617188.089843-.03125.210937-.148437.242187-.269531.296875-.71875.566406-1.4375.898438-2.15625.238281-.476563.507812-.957031.808594-1.40625.476562-.75.957031-1.496094 1.496093-2.214844.75-.960937 1.558594-1.859375 2.875-2.039062.238281-.027344.449219-.296875.660157-.476563.566406-.511718 1.015624-.421875 1.496093.148438.507813.570312 1.019531 1.136718 1.617188 1.617187.660156.539063.957031 1.257813.957031 2.003907.03125 1.078124-.148438 2.1875-.207031 3.265624-.03125.328126.027343.628907.058593.960938.089844.894531.269532 1.765625-.75 2.363281-.296874.179688-.328124.777344-.417968 1.199219-.121094.507812-.210938 1.046875-.839844 1.195312-.089844.03125-.179688.121094-.207031.179688-.539063.988281-1.019531 2.007812-1.558594 2.964844-.597656 1.078125-1.289063 2.097656-1.828125 3.207031-.597656 1.257813-1.167969 2.574219-1.585938 3.921875-.238281.75-.328124 1.496094-.929687 2.066406-.117187.121094-.148437.359375-.179687.539063-.117188.75-.207032 1.46875-.359376 2.214843-.058593.269532-.117187.601563-.296874.75-.628907.449219-.691407 1.109376-.871094 1.734376-.148438.539062-.449219 1.019531-.71875 1.53125-.027344.085937-.148438.148437-.148438.238281-.238281 1.527343-.777344 3.054687-.328125 4.640625.238281.867187.6875 1.707031.898438 2.605468.148437.71875.148437 1.496094.089843 2.214844-.121093 1.976563-.300781 3.925782-.449218 5.902344-.03125.269531-.0625.597656.058594.808594.570312.835937.539062 1.765625.628906 2.722656.058594.601562.390625 1.167969.628906 1.707031.148438.359375.328125.71875.539062 1.078125.300782.511719.597657 1.019532.929688 1.496094.089844.121094.238281.210938.269531.359375.328125 1.558594 1.796875 2.21875 2.695313 3.296875.925781 1.105469 1.914062 2.183594 2.933594 3.261719.480468.511719.988281.960937 1.496093 1.410156.152344.148437.421875.269531.449219.449219.179688.6875.75.867187 1.289062 1.195312.808594.511719 1.496094 1.199219 2.277344 1.769532 1.285156.988281 2.605469 1.976562 3.890625 2.964843.957031.746094 1.855469 1.554688 2.875 2.214844 1.828125 1.167969 3.503907 2.753906 5.839844 2.90625.359375.027344.777344.148437 1.019531.386719.835938.808594 1.855469.777344 2.875.75 2.542969-.03125 5.089844-.03125 7.636719-.152344.6875-.027344 1.34375-.386719 2.035156-.566406.839844-.210938 1.675781-.449219 2.515625-.597656.566406-.089844 1.167969-.089844 1.375-.78125.03125-.089844.121094-.148438.210938-.207032.957031-.480468 1.917968-.929687 2.84375-1.4375.300781-.152344.539062-.390625.808594-.628906.691406-.570312 1.347656-1.167969 2.007812-1.738281.179688-.148438.328125-.269531.507812-.417969.480469-.421875.960938-.839844 1.4375-1.257812.242188-.210938.601563-.390626.660157-.660157.210937-.929687.898437-1.378906 1.527343-1.945312.507813-.421875.898438-.960938 1.347657-1.4375.058593-.0625.121093-.152344.210937-.210938 1.316406-1.257812 2.632813-2.484375 3.980469-3.714843.839844-.746094 1.769531-1.40625 2.515625-2.246094.628906-.65625 1.078125-1.496094 1.585938-2.246094.121093-.148438.121093-.417969.273437-.539062 1.464844-1.046876 2.003906-2.875 3.351563-4.011719.03125-.027344.089843-.058594.089843-.117188.238281-1.230469 1.226563-2.007812 1.765625-3.054687.660156-1.289063 1.320313-2.578125 1.917969-3.894532.210937-.480468.269531-1.046874.449219-1.585937.269531-.808594.777344-1.558594.898437-2.398437.449219-3.144532.597657-6.289063.121094-9.460938-.121094-.6875.058594-1.4375 0-2.15625-.03125-.328125-.332031-.660156-.539063-.960938-.152343-.207031-.421874-.417968-.421874-.65625-.089844-1.40625-1.105469-2.304687-1.796876-3.355468-1.015624-1.554688-2.664062-2.363282-4.160156-3.351563-.871094-.570312-1.769531-1.050781-2.574218-1.589843-.691407-.476563-1.378907-.808594-2.15625-1.078126-.121094-.027343-.269532-.089843-.332032-.179687-.476562-.808594-1.347656-.835937-2.09375-1.078125-.511718-.179688-.960937-.597656-1.46875-.808594-1.378906-.566406-2.753906-1.105468-4.132812-1.644531-.03125 0-.058594 0-.058594-.03125-1.257812-1.019531-2.875-1.257813-4.285156-1.976563-.71875-.359374-1.554688-.539062-2.246094-.957031-1.078125-.628906-2.066406-1.410156-3.113281-2.128906-.089844-.058594-.121094-.148437-.179688-.238281-.957031-1.4375-.898437-3.832032.03125-5.300782.660157-1.046874 1.554688-1.527343 2.785157-1.554687.71875 0 1.4375-.0625 2.15625-.0625.296874 0 .597656.03125.867187.152344 1.136719.539062 2.246094 1.105469 3.382813 1.644531.480468.210938.988281.359375 1.46875.570312.597656.238282 1.199218.476563 1.796874.71875.539063.210938 1.109376.390626 1.675782.539063 1.257812.296875 2.515625.628906 3.773437.867187.539063.121094 1.078125.0625 1.617188.121094.449219.058594 1.019531.058594 1.347656.300782.867187.625 1.917969.65625 2.875.925781.867187.238281 1.707031.660156 2.546875.988281.238281.089844.476562.148438.6875.238281.539062.242188 1.046875.539063 1.617188.78125.121093.058594.300781.027344.449218.027344-.03125-.148437.03125-.359375-.058594-.449219-1.257812-1.375-2.695312-2.632812-3.746093-4.160156-.777344-1.109375-1.707031-1.886719-2.691407-2.753906-.8125-.71875-1.46875-1.527344-2.457031-2.066406-.867187-.480469-1.617187-1.199219-2.425781-1.828126-.089844-.089843-.179688-.210937-.300781-.210937-1.015625-.148437-1.644531-.957031-2.484375-1.347656-.597656-.296875-1.109375-.746094-1.648438-1.015625-.988281-.511719-1.976562-.988282-2.902344-1.617188-.449218-.300781-.988281-.480468-1.46875-.691406-.6875-.269531-1.378906-.539062-2.066406-.808594-.148437-.058594-.300781-.089844-.417968-.179687-1.378907-1.167969-3.175782-1.617188-4.671876-2.574219-.449218-.300781-.929687-.507812-1.40625-.777344-.09375-.0625-.210937-.089844-.242187-.152344-.929687-1.4375-1.945313-2.933593-1.347656-4.761718.359375-1.105469.957031-2.125 2.035156-2.902344 1.527344-1.140625 3.054687-.960938 4.703125-.6875.238281.027344.480469.238281.71875.359375.390625.207031.75.539063 1.167969.65625 1.558593.449219 2.933593 1.226563 4.28125 2.097656.089843.058594.152343.117188.242187.148438 1.167969.539062 2.304688 1.078125 3.472656 1.617187.121094.058594.269532.058594.328126.148438.601562.898437 1.617187.898437 2.488281 1.199218.058593.03125.117187 0 .148437.058594.6875.960938 1.886719.75 2.753906 1.230469.421876.238281.839844.507813 1.257813.746094.121094.0625.269531.179687.390625.179687.929688 0 1.648438.449219 2.304688 1.078125.03125.03125.089843.0625.121093.089844 1.257813.511719 2.515625 1.019531 3.773438 1.527344.179687.0625.449219.121093.539062.242187.449219.71875 1.195313.808594 1.945313.957032.058594.03125.148437.03125.210937.058593.808594.691407 1.765625 1.050781 2.753907 1.347657.148437.03125.210937.359374.359374.449218.238282.152344.539063.300782.808594.269532.148438-.027344.359375-.476563.300782-.65625-.152344-.601563-.210938-1.289063-.898438-1.617188-.179688-.089844-.300781-.570312-.269531-.839844.058593-.660156-.089844-1.136718-.71875-1.40625-.089844-.03125-.210938-.089844-.242188-.179687-.386719-1.617188-2.246093-1.828125-2.992187-3.175781-.449219-.777344-1.46875-1.226563-2.15625-1.886719-.929688-.867188-1.769532-1.824219-2.695313-2.695313-.871093-.808594-1.769531-1.558594-2.667969-2.335937-.71875-.597657-1.644531-.957031-2.0625-1.914063-.0625-.152344-.390624-.210937-.539062-.332031-.300781-.207031-.660156-.386719-.808594-.6875-.121094-.238281 0-.6875.179688-.898437.089844-.121094.628906-.03125.835937.121093.75.507813 1.617188.988281 2.15625 1.675781.570313.71875 1.230469 1.167969 1.917969 1.675782.957031.71875 1.945312 1.46875 2.875 2.246094.597656.480468 1.167969.988281 1.707031 1.5 1.105469 1.015624 2.214844 2.035156 3.324219 3.050781.566406.539062 1.105469 1.140625 1.707031 1.679687.746094.71875 1.347657 1.464844 1.585938 2.574219.148437.75.839843 1.378906 1.136719 2.125.511718 1.289063.898437 2.636719 1.347656 3.953125.0625.152344.0625.359375.179687.480469.539063.570312 1.140625 1.136719 1.679688 1.707031.207031.238281.359375.539062.539062.839844.089844.117187.089844.328125.179688.386718 1.347656.601563 1.644531 2.007813 2.425781 3.054688.597656.78125 1.226562 1.527344 1.855469 2.277344.058593.058594.148437.089844.179687.148437.507813 1.050781.988282 2.125 1.496094 3.203125.179688.359375.390625.71875.628906 1.078125.152344.210938.417969.390625.511719.628907.476563 1.019531.898437 2.066406 1.375 3.054687.210937.449219.570313.839844.867187 1.257813.089844.152343.242188.269531.300782.421874.359375.628907.777344 1.257813 1.078125 1.945313.570312 1.257813 1.078125 2.546875 1.617187 3.832031.058594.152344.089844.332032.179688.390625.75.328125.777344.988281.898437 1.675781.03125.269532.328125.511719.507813.75.179687-.238281.539062-.480468.539062-.75.0625-1.078124.03125-2.183593.03125-3.261718 0-.089844-.03125-.210938-.089844-.269532-1.289062-1.140624-.839843-2.726562-1.019531-4.132812-.058593-.480469-.027343-.988281-.027343-1.5 0-.746094.089843-1.375-.601563-2.066406-.566406-.566406-.6875-1.675782-.808594-2.574219-.179687-1.109375-.238281-2.1875-.6875-3.265625-.449219-1.046875-.300781-2.335938-.449219-3.5-.121093-.871094-.359374-1.738281-.480468-2.605469-.207032-1.347656-.449219-2.695312-.566406-4.042969-.121094-1.140624 0-2.308593-.808594-3.265624-.089844-.121094-.121094-.269532-.152344-.417969-.238281-1.230469-.238281-2.488281-1.34375-3.503907-1.019531-.929687-1.679688-2.21875-2.578125-3.234374-.597656-.660157-1.40625-1.167969-2.09375-1.769532-.390625-.328125-.71875-.746094-1.109375-1.074218-.71875-.601563-1.46875-1.171876-2.214844-1.679688-.449218-.296875-1.050781-.449219-1.527344-.71875-.75-.449219-1.527343-.898438-2.15625-1.527344-1.347656-1.347656-2.546874-2.84375-3.863281-4.191406-.421875-.417969-.898437-.75-1.050781-1.378906-.027344-.148438-.328125-.269532-.539062-.359375-1.078126-.71875-1.886719-1.765625-1.976563-2.425781zm27.34375 6.589843h.058594c0-2.277343-.03125-4.523437 0-6.796875.03125-1.320312-.570313-2.367187-1.558594-3.085937-.6875-.507813-1.015625-1.078125-1.285156-1.828125-.601563-1.707032-.628907-3.472656-.78125-5.238282-.027344-.359374-.238281-.960937-.476563-1.019531-.511718-.121093-1.378906-.179687-1.589844.121094-.71875.898437-1.4375 1.914063-1.707031 2.992187-.328125 1.257813-.148437 2.636719-.207031 3.953126-.269531 4.195312-.75 8.386718-1.257812 12.550781-.179688 1.527343-.179688 3.050781-.328126 4.582031-.121093 1.253906-.0625 2.453125.898438 3.410156.445312.449219.65625.960938.6875 1.589844.027344.269531.207031.65625.417969.746094.507812.210937.628906.570312.6875 1.050781.152343 1.046875.210937 2.125 1.019531 2.964844.210938.207031.238281.628906.300781.988281.359375 1.855469-.03125 3.800781.867188 5.597656.328125.660156.359375 1.4375.449219 2.1875.121093.929688.121093 1.886719.210937 2.816406.027344.238282.238281.445313.386719.65625.179687-.179687.449218-.359374.570312-.597656.269532-.449218.507813-.957031.75-1.4375.148438-.300781.359375-.628906.386719-.957031.269531-1.917969.628906-3.804687 1.078125-5.691406.421875-1.855469.660156-3.742188 1.347656-5.570313.242188-.628906.390625-1.585937.0625-2.066406-.929687-1.4375-.871094-3.023438-.960937-4.550781-.117188-2.425781-.027344-4.882813-.027344-7.367188zm-53.933594 4.371094c-.332031.0625-.75.089844-1.140625.210937-.417968.117188-.476562.390626-.148437.71875 1.226562 1.167969 2.875 1.585938 4.3125 2.394532.148437.089844.390625.058594.597656.058594.480469.03125 1.019531.089843 1.050781-.597657.027344-.570312.148438-1.226562-.75-1.347656-.269531-.03125-.628906-.179687-.777344-.390625-.75-1.164062-1.949218-.925781-3.144531-1.046875zm.957031 21.261719c-.628906.390625-1.316406.808594-1.976562 1.230468-.148438.085938-.300781.328126-.269531.445313.03125.152344.269531.300781.417969.332031.449218.089844.898437.121094 1.320312.121094.539062-.03125.898438.117188 1.195312.566406.421876.628906 1.019532.75 1.558594.269532.328125-.296876.539063-.75.6875-1.195313.03125-.09375-.539062-.359375-.835937-.570313-.480469-.328124-.929688-.660156-1.410157-.957031-.179687-.089843-.386718-.152343-.6875-.242187zm-43.902343 1.4375c.03125.898437.570312 1.199218 1.230469.660156.925781-.75 1.765624-1.648438 2.574218-2.546875.328125-.359375.179688-.835937-.210937-1.105469-.238281-.152344-.746094-.210937-.898438-.089844-.835937.777344-1.644531 1.617188-2.425781 2.453126-.148438.210937-.207031.507812-.269531.628906zm0 0"/><path d="m104.496094 203.519531c-.121094-.359375-.300782-.71875-.359375-1.078125-.089844-.835937-.089844-1.707031-.210938-2.542968-.058593-.421876-.328125-.808594-.476562-1.199219-.269531-.71875-.511719-1.4375-.75-2.15625-.300781-.898438-.570313-1.796875-.839844-2.695313-.148437-.507812-.269531-1.046875-.417969-1.585937-.058594-.210938-.03125-.507813-.179687-.628907-1.257813-.898437-1.707031-2.335937-2.457031-3.59375-.476563-.777343-1.195313-1.40625-1.796876-2.125-.148437-.152343-.207031-.390624-.328124-.570312-.179688-.269531-.359376-.507812-.539063-.75-.148437-.207031-.390625-.359375-.449219-.566406-.210937-.78125-.777344-1.230469-1.378906-1.707032-.925781-.71875-1.707031-1.589843-2.574219-2.367187-.359375-.300781-.6875-.628906-1.105469-.867187-1.289062-.691407-1.679687-2.398438-3.207031-2.847657-.148437-.058593-.300781-.207031-.386719-.328125-.75-1.046875-1.5-2.097656-2.246093-3.144531-.121094-.179687-.300781-.328125-.449219-.507813-1.558594-1.558593-3.144531-3.085937-4.613281-4.703124-.507813-.566407-1.109375-1.105469-1.46875-1.644532-.71875-1.109375-1.644531-1.886718-2.574219-2.726562-.628906-.570313-1.136719-1.316406-1.617188-2.007813-.417968-.597656-.71875-1.257812-1.136718-1.855469-.332032-.507812-.808594-.929687-1.167969-1.4375-1.320313-1.976562-2.578125-4.011718-3.414063-6.257812-.089843-.269531-.300781-.511719-.449218-.78125-.929688-1.585938-1.199219-3.292969-1.199219-5.117188.03125-1.976562-.117187-3.925781-.210937-5.902343 0-.179688-.027344-.449219-.148438-.566407-.957031-.988281-.808594-2.308593-1.078125-3.503906-.058594-.210937-.089844-.449218-.179687-.628906-.238282-.511719-.65625-.960938-.6875-1.46875-.121094-1.40625-.898438-2.546875-1.4375-3.773438-.570313-1.347656-1.40625-2.605468-2.097657-3.894531-.179687-.359375-.328125-.71875-.507812-1.078125-.449219-.957031-1.226563-1.734375-1.347657-2.871094 0-.152343-.238281-.242187-.328124-.390624-.210938-.328126-.421876-.6875-.601563-1.019532-.238281-.476562-.449219-.957031-.6875-1.40625-.058594-.121094-.210937-.179687-.210937-.300781-.417969-1.945313-1.855469-3.53125-1.824219-5.628906 0-.417969-.210938-.898438-.449219-1.226563-.601562-.75-.480469-1.648437-.628906-2.488281-.152344-.746094-.421875-1.464844-.570313-2.214844-.210937-1.136719-.417969-2.304687-.507812-3.472656-.152344-1.917969-.179688-3.835937-.332031-5.75-.027344-.601563-.238282-1.167969-.328126-1.738281-.148437-1.554688-.328124-3.203125-.628906-4.820313-.121094-.71875-.449218-1.378906-.71875-2.066406-.148437-.390625-.328125-.777344-.507812-1.136719-.269532-.539062-.601563-1.078125-.839844-1.617187-.179688-.390625-.417969-.808594-.449219-1.230469-.179687-2.035156-.328125-4.070312.121094-6.046875.089844-.421875.449219-.75.71875-1.140625.089844-.117188.238281-.207031.269531-.328125.359375-1.136719 1.285156-1.078125 2.183594-1.046875.242188 0 .480469.058594.75.058594.988281.058594 1.976562.058594 2.515625 1.226562.148437.332032.660156.480469 1.019531.691406.238282.148438.539063.207032.6875.417969.570313.808594 1.078125 1.648438 1.648438 2.457031.296875.417969.597656.835938.898437 1.257813.089844.117187.207031.207031.269531.359375.539063 1.105469 1.015626 2.246094 1.585938 3.324219.449219.867187.925781 1.734375 1.46875 2.574219.296875.449218.6875.359374.898438-.269532.207031-.71875.417968-1.4375.539062-2.15625.265625-1.707031.445312-3.472656.777344-5.152344.207031-1.105468.660156-2.183593 1.019531-3.261718.238281-.71875.148437-1.617188 1.046875-2.035156.148438-.0625.148438-.511719.179688-.75.117187-.660157.148437-1.347657.328124-1.976563.089844-.328125.417969-.539063.597657-.867187.242187-.421876.539062-.839844.601562-1.289063.089844-.777344 0-1.585937.027344-2.394531 0-.269532.121094-.570313.269531-.808594.332032-.480469.660156-.960938 1.050782-1.410156.328124-.359375.71875-.6875 1.105468-1.015625.121094-.089844.269532-.089844.421875-.152344.71875-.386719 1.347657-.539063 2.214844-.179687.808594.332031 1.40625.601562 1.257813 1.617187 0 0-.03125.0625-.058594.0625-1.679688.417969-1.410156.027344-1.558594 1.945313-.03125.417968-.03125.839843-.089844 1.257812-.03125.328125-.058594.75-.269531.898438-.71875.539062-.6875 1.40625-1.046875 2.09375-.421875.8125-.960938 1.558593-1.46875 2.308593-.121094.179688-.390625.300781-.628906.359375-1.585938.476563-2.394532 1.527344-2.605469 3.144532-.148437 1.105468-.570313 2.214843-.777344 3.324218-.152343.808594-.152343 1.617188-.238281 2.425782-.210938 2.09375-.480469 4.191406-.632812 6.316406-.179688 2.425781-.359376 4.882812-.445313 7.308594-.09375 1.886718-.0625 3.800781-.0625 5.6875 0 .242187.03125.480468.0625.71875.085937.03125.148437.03125.238281.0625.121094-.300782.300782-.628907.359375-.929688.121094-.777344.269531-1.558594.835938-2.1875.179687-.207031.179687-.597656.269531-.898438.511719-1.617187 1.050781-3.203124 1.558594-4.820312.449218-1.347656.808594-2.722656 1.316406-4.042969.449219-1.136719 1.078125-2.214843 1.589844-3.324219.359375-.835937.65625-1.707031.957031-2.574218.089844-.238282.121094-.507813.300781-.660156.6875-.628907.777344-1.4375.746094-2.273438-.058594-1.289062.210938-2.488281.839844-3.65625.300781-.566406.269531-1.285156.417968-1.945312.152344-.597657.359376-1.167969.570313-1.734376.179687-.511718.449219-.992187.660156-1.46875.179688-.359374.269531-.78125.539063-1.046874 1.015625-1.050782.539062-2.308594.449218-3.476563-.03125-.269531-.449218-.507813-.691406-.746094-.359375-.390625-.71875-.78125-1.105468-1.230469.898437-.328124 1.4375-.117187 1.886718.539063.207032.332031.539063.570313.746094.898437.242188.390626.539062.808594.628906 1.230469.210938 1.253907 1.019532 1.792969 2.128906 2.125.417969.121094.867188.207031 1.285157.359375.601562.207032 1.140625.480469 1.320312 1.167969.089844.296875.328125.597656.566407.75.601562.359375.808593.957031 1.140624 1.496094 1.167969 1.765625.808594 3.652343.746094 5.507812 0 .179688-.027344.359375-.117187.511719-.089844.148438-.242188.238281-.390625.386719-.089844-.117188-.238282-.269531-.238282-.386719-.0625-1.078125-.179687-2.15625-.089843-3.207031.058593-.746094-.179688-1.316407-.601563-1.914063-.417968-.570312-.957031-1.167968-.71875-1.949218-.507812-.207032-.988281-.476563-1.496094-.625-.238281-.0625-.75.058593-.808593.207031-.210938.539062-.359375 1.136719-.328125 1.675781 0 .570312-.03125.960938-.480469 1.378906-.328125.300782-.480469.839844-.597656 1.289063-.121094.539062-.210938 1.015625-.78125 1.257812-.117188.058594-.269531.179688-.296875.328125-.359375 1.257813-1.4375 1.648438-2.488282 2.035156-.925781.332032-1.316406.660157-1.40625 1.589844-.089843.898438-.210937 1.765625-.898437 2.453125-.238281.242188-.238281.628907-.390625.960938-.269531.539062-.539062 1.015625-.808594 1.554687-.117187.210938-.238281.449219-.296875.691406-.511719 1.855469-.71875 3.863282-1.558593 5.539063-.808594 1.585937-.6875 3.472656-1.796876 4.941406-.269531.386719-.210937 1.015625-.359374 1.496094-.179688.71875-.417969 1.40625-.628907 2.097656-.210937.6875-.390625 1.375-.628906 2.066407-.210937.628906-.507813 1.195312-.75 1.796874-.238281.65625-.445313 1.316407-.71875 1.976563-1.34375 3.292969-1.257813 6.707031-.6875 10.121094.03125.269531.148437.566406.300781.746093.6875.75.449219 1.589844.238282 2.398438-.058594.179688-.269532.390625-.449219.417969-.089844.03125-.300781-.207031-.417969-.359375-.421875-.566406-.898438-1.136719-1.199219-1.765625-.207031-.417969-.269531-.957031-.300781-1.4375-.027344-2.515625-.058594-5.03125-.058594-7.546875 0-3.5625.03125-7.128906.03125-10.691406 0-1.40625-.03125-2.84375 0-4.25.027344-1.109376-.359375-2.097657-.777344-3.085938-.152343-.359375-.273437-.75-.332031-1.136719-.148437-.929687-.449219-1.738281-1.046875-2.546875-.75-1.019531-1.109375-2.277344-1.648437-3.445312-.148438-.296875-.328125-.597656-.476563-.925782-.210937-.421874-.421875-.839843-.628906-1.257812-.300781-.601562-.601562-1.167969-.898438-1.769531-.0625-.089844-.121093-.179688-.152343-.269531-.179688-1.554688-1.4375-2.515626-2.066407-3.832032-1.136718-.359375-1.824218-1.675781-3.203124-1.585937-1.226563.089843-1.40625.957031-1.109376 2.066406.03125.148437.152344.328125.269532.449219 1.679687 1.945312 1.5 4.3125 1.410156 6.585937-.121094 2.605469-.03125 5.210938.359375 7.816407.328125 2.1875.359375 4.402343.539063 6.617187.058593.929687-.121094 1.949219.238281 2.726563.898437 1.976562.839843 4.074218 1.199219 6.109374.027343.210938.027343.449219.148437.570313.808594.746094.777344 1.855469 1.167969 2.785156.597656 1.496094 1.289062 2.933594 1.917968 4.429688.566407 1.320312 1.105469 2.667969 1.675782 4.011719.089844.242187.269531.480468.417968.691406.78125.988281 1.617188 1.945312 1.886719 3.234375.03125.207031.121094.449219.269531.628906.78125.867187.988282 1.914063 1.226563 2.992187.03125.179688.09375.449219.210937.539063.628907.480469.71875 1.167969.808594 1.859375.121094.746094.179688 1.4375.839844 2.003906.296875.242188.296875.871094.359375 1.347656.089844.570313.03125 1.167969.148437 1.707032.089844.449218.390626.871094.570313 1.289062.148437.390625.417969.777344.449219 1.167969.117187 2.425781.148437 4.882813.238281 7.335937.03125.421876.089844.839844.179687 1.257813.238282.839844.507813 1.707031.777344 2.546875.03125.089844.03125.207031.089844.269531.660156.808594 1.347656 1.585938 2.007812 2.394531.148438.179688.359376.390626.390626.628907.207031 1.378906 1.347656 2.15625 2.003906 3.234375.089844.148437.242187.238281.359375.390625.449219.65625.929687 1.285156 1.289062 1.945312.390625.6875.988281 1.109375 1.648438 1.527344.296875.179687.507812.570313.746093.839844.660157.808593 1.320313 1.644531 1.976563 2.484375.242187.300781.421875.628906.660156.898437s.507813.507813.777344.777344c.089844.089844.242187.121094.300781.210937.507813.628907.929688 1.316407 1.46875 1.917969 1.015625 1.167969 2.09375 2.273438 3.144532 3.410157.597656.632812 1.136718 1.320312 1.824218 1.886718 1.078125.898438 1.617188 2.308594 2.964844 2.996094.539062.269531.929688.867188 1.378906 1.347656.6875.777344 1.375 1.585938 2.066406 2.335938.386719.417968.867188.808594 1.285157 1.226562.179687.179688.449219.332032.480469.539063.238281 1.378906 1.4375 1.859375 2.304687 2.667969.152344.148437.300781.269531.421875.417968.808594 1.226563 1.617188 2.484375 2.394531 3.742188.210938.300781.300781.691406.480469 1.019531.238281.417969.539062.777344.808594 1.199219.089844.117187.207031.238281.238281.359375.269531 2.035156 1.796875 3.769531 1.558594 5.957031-.03125.300781.089843.660156.269531.898438.898438 1.316406.835938 2.785156.71875 4.253906-.03125.296875-.242188.566406-.359375.835937-.089844 0-.210937 0-.300781 0zm-24.257813-127.871093c-.148437-.359376-.269531-.898438-.449219-.925782-.359374-.058594-.835937.089844-1.105468.328125-.332032.269531-.511719.71875-.691406 1.109375-.207032.476563-.269532 1.046875-.566407 1.4375-.808593 1.167969-.871093 2.394532-.601562 3.683594.03125.148438.210937.386719.332031.417969.117188.03125.359375-.148438.449219-.300781.539062-.957032 1.105469-1.886719 1.554687-2.875.449219-.867188.71875-1.855469 1.078125-2.875zm-10.210937-2.515626c.269531-.117187.359375-.148437.417968-.207031 1.167969-1.199219 2.097657-2.546875 2.578126-4.132812.117187-.359375-.03125-.839844-.152344-1.226563-.027344-.121094-.507813-.269531-.597656-.179687-.480469.449219-1.136719.898437-1.316407 1.464843-.421875 1.320313-.601562 2.726563-.929687 4.28125zm-18.984375 13.179688c.835937-.808594.988281-2.996094.328125-3.773438-.660156.449219-.839844 2.632813-.328125 3.773438zm0 0"/><path d="m135.789062 146.351562c-1.464843-.027343-2.8125.332032-4.25.632813-1.589843.328125-3.355468.328125-4.972656.027344-2.367187-.449219-4.703125-.449219-7.066406-.539063-1.378906-.058594-2.605469-.386718-3.683594-1.378906-.570312-.539062-1.4375-.714844-2.1875-1.074219-.089844-.03125-.207031-.03125-.269531-.089843-.898437-.691407-1.828125-1.410157-2.695313-2.128907-.417968-.328125-.835937-.6875-1.167968-1.105469-.507813-.628906-1.105469-1.257812-1.375-1.976562-.179688-.539062-.03125-1.289062.179687-1.859375.296875-.777344.71875-1.464844 1.496094-1.945313.71875-.449218 1.226563-1.199218 1.886719-1.765624 1.40625-1.257813 3.023437-2.1875 4.671875-3.144532 2.84375-1.679687 5.808593-1.109375 8.804687-.898437.597656.027343 1.167969.507812 1.796875.6875 1.316407.390625 2.632813.539062 3.921875-.238281.449219-.269532 1.019532-.421876 1.558594-.449219 1.105469-.03125 2.246094-.121094 3.320312.117187.929688.210938 2.007813.601563 2.609376 1.289063.566406.660156 1.285156.839843 1.855468 1.316406.566406.480469 1.105469.898437 1.796875 1.230469.71875.386718 1.257813 1.136718 1.886719 1.734375.597656.539062 1.226562 1.078125 1.796875 1.617187.269531.269532.566406.570313.746094.898438.511719.839844.421875 1.019531-.269531 1.738281-.417969.449219-.777344.957031-1.136719 1.46875-.210938.296875-.359375.71875-.628907.898437-.300781.179688-.898437.359376-1.109374.207032-.359376-.296875-.269532-.777344.0625-1.195313.566406-.660156.507812-1.410156-.179688-1.679687-.539062-.207032-1.257812-.359375-1.769531-.179688-.957031.359375-1.675781.03125-2.453125-.386718-.300782-.152344-.628906-.300782-.957032-.332032-1.738281-.179687-3.476562-.269531-5.183593-.449218-.597657-.058594-1.167969-.238282-1.734375-.359376-2.546875-.539062-5.0625-.296874-7.578125.152344-1.019531.179688-2.007813.296875-3.023438.476563-.570312.089843-1.109375.269531-1.679687.332031-.359375.058594-.746094.089844-1.105469 0-.691406-.179688-1.230469.027344-1.738281.449219-.808594.6875-1.738282.6875-2.542969.027343-.78125-.628906-2.515625-.269531-2.816406.660157-.089844.238281.179687.75.417969.929687 1.289062.957032 2.695312 1.765625 3.921874 2.8125.75.628906 1.617188.929688 2.367188 1.4375 1.4375.957032 2.964844.871094 4.492188.988282 1.738281.148437 3.472656.242187 5.210937.421874.75.058594 1.527344.417969 2.277344.359376 1.675781-.121094 3.324219-.421876 5-.570313 1.4375-.121094 2.875-.148437 4.3125-.242187.148437 0 .386719-.148438.417969-.265626.328124-.960937 1.289062-1.320312 1.886718-2.007812.179688-.210938.359375-.417969.539063-.628906.121093-.148438.179687-.417969.328125-.449219.332031-.089844.691406-.058594 1.050781-.089844-.0625.359375 0 .898438-.210937 1.109375-.839844.746094-1.765626 1.40625-2.664063 2.09375-.121094.089844-.359375.179688-.390625.300782-.296875.988281-1.167969 1.015624-1.914062 1.109374-.601563 0-1.230469-.09375-1.859376-.09375zm-14.613281-16.050781c-.929687-.089843-2.035156.242188-3.234375.570313-1.707031.449218-2.902344 1.558594-4.191406 2.574218-.75.570313-1.347656 1.320313-2.039062 1.949219-.417969.359375-.386719.65625.121093.808594.628907.179687 1.316407.449219 1.949219.417969 1.945312-.121094 3.949219-.148438 5.808594-.660156 4.101562-1.105469 8.203125-.835938 12.308594-.628907 2.125.121094 4.160156.988281 6.316406.960938 1.289062 0 2.574218.148437 3.863281.207031.210937 0 .507813-.089844.660156-.238281.089844-.089844.027344-.449219-.089843-.597657-.480469-.539062-.929688-1.167968-1.5-1.558593-1.046876-.71875-2.183594-1.316407-2.960938-2.367188-.09375-.089843-.273438-.117187-.390625-.179687-.601563-.269532-1.199219-.566406-1.796875-.808594-.328125-.148438-.71875-.296875-1.078125-.296875-1.378906-.03125-2.726563.027344-4.074219.6875-1.585937.808594-3.382812.660156-4.941406.03125-1.464844-.601563-2.875-.898437-4.730469-.871094zm0 0"/><path d="m161.363281 203.460938c-.058593-1.046876-.207031-2.125-.148437-3.175782.121094-2.425781.328125-4.878906.507812-7.304687.03125-.417969.300782-.839844.417969-1.257813.121094-.449218.273437-.898437.273437-1.347656.117188-2.695312.148438-5.390625.296876-8.054688.03125-.480468.421874-.929687.601562-1.378906.117188-.300781.296875-.597656.296875-.898437.121094-1.917969.242187-3.832031.328125-5.71875 0-.152344.03125-.359375.121094-.421875.808594-.507813.628906-1.316406.6875-2.066406.03125-.507813.152344-.984376.269531-1.464844.0625-.269532.152344-.691406.359375-.777344.71875-.359375.75-1.019531.839844-1.648438.179687-1.347656 1.226562-2.1875 1.796875-3.292968.328125-.660156.6875-1.320313 1.019531-1.949219.148438-.269531.296875-.507813.449219-.746094.207031-.359375.417969-.71875.628906-1.078125.027344-.0625.027344-.179687.058594-.210937 1.046875-.300781 1.046875-1.46875 1.707031-2.125.75-.691407 1.199219-1.648438 1.828125-2.488281.539063-.6875 1.105469-1.316407 1.675781-1.945313.6875-.75 1.289063-1.617187 2.097656-2.1875.71875-.507813 1.105469-1.257813 1.765626-1.824219.628906-.539062 1.109374-1.199218 1.675781-1.828125.0625-.058593.0625-.179687.121093-.179687.777344-.359375 1.136719-1.078125 1.648438-1.675782.597656-.78125 1.34375-1.4375 1.976562-2.1875.597657-.71875 1.136719-1.496093 1.796876-2.183593.296874-.332031.835937-.421875 1.285156-.601563.089844.0625.152344.121094.238281.179688-.085937.269531-.179687.539062-.328125.78125-.179688.296875-.359375.566406-.597656.808594-.597656.65625-1.199219 1.257812-1.796875 1.914062-.152344.148438-.300781.328125-.449219.480469-.300781.300781-.570312.628906-.867188.925781-.121093.152344-.273437.273438-.390624.453125-.089844.148437-.121094.359375-.238282.476563-.691406.75-1.378906 1.46875-2.066406 2.1875-.332031.359374-.570312.808593-.929688 1.078124-.539062.386719-1.257812.539063-1.675781.988282-.449219.449218-.570312 1.167968-.960937 1.707031-.597656.835937-1.257813 1.617187-1.945313 2.394531-.570312.660156-1.199219 1.226563-1.765625 1.886719-.539062.628906-1.019531 1.316406-1.527344 1.976563-.601562.75-1.289062 1.4375-1.828124 2.214843-.390626.601563-.71875 1.289063-.839844 1.976563-.148438.660156-.179688 1.289062-.808594 1.679687-.089844.058594-.179688.179688-.238281.269531-.507813.988282-1.019531 1.976563-1.527344 2.960938-.179687.359375-.449219.691406-.628906 1.078125-.148438.273437-.269531.539063-.328125.8125-.121094.597656-.121094 1.195313-.300782 1.765625-.148437.476562-.480468.867188-.6875 1.316406-.152343.269532-.300781.570313-.332031.867188-.089843 1.347656-.058593 2.695312-.207031 4.042968-.121094.988282-.539062 1.949219-.75 2.9375-.179688.777344-.269531 1.554688-.296875 2.363282-.152344 2.039062-.210937 4.074218-.359375 6.109375-.0625.839843 0 1.769531-.78125 2.398437-.117188.089844-.058594.386719-.058594.566406-.058594 2.9375-.121094 5.871094-.210937 8.835938-.027344.566406-.238281 1.136719-.386719 1.734375-.242188-.117187-.359375-.148437-.511719-.148437zm0 0"/><path d="m130.757812 117.515625c.871094-.867187 3.324219-1.289063 4.523438-.75.75.359375.476562.988281.417969 1.5-.089844.628906-.808594 1.136719-1.4375 1.046875-.597657-.089844-1.167969-.210938-1.734375-.359375-.808594-.238281-1.46875-.328125-2.277344.210937-1.558594 1.015626-3.355469 1.40625-5.210938.835938-.957031-.296875-1.855468-.835938-2.816406-1.167969-.628906-.207031-1.285156-.269531-1.945312-.296875-.597656-.03125-1.078125-.089844-1.378906-.691406-.296876-.597656-.148438-1.105469.179687-1.617188.359375-.507812.808594-.597656 1.378906-.417968.957031.328125 1.917969.628906 2.90625.957031.148438.0625.296875.121094.386719.210937 1.378906 1.378907 3.054688 1.226563 4.734375.839844.507813-.121094 1.015625-.300781 1.527344-.390625.179687-.058593.386719.03125.746093.089844zm0 0"/><path d="m189.332031 139.4375c0-1.617188 1.769531-2.128906 2.15625-3.59375.152344-.660156 1.257813-1.050781 1.617188-1.738281.449219-.867188 1.167969-1.585938 1.558593-2.457031.300782-.628907.148438-1.464844.988282-1.855469.148437-.058594.179687-.417969.238281-.660157.152344-.449218.210937-.925781.421875-1.347656.058594-.148437.417969-.269531.597656-.238281.121094.03125.359375.328125.328125.480469-.117187.777344-.027343 1.644531-.808593 2.214844-.207032.148437-.359376.417968-.449219.660156-.207031.628906-.296875 1.316406-1.015625 1.644531-.121094.03125-.210938.242187-.210938.359375.03125.808594-.390625 1.320312-1.019531 1.679688-.089844.058593-.179687.148437-.179687.207031-.117188 1.078125-.988282 1.738281-1.617188 2.398437-.835938.808594-1.078125 2.273438-2.605469 2.246094zm0 0"/><path d="m115.484375 118.324219c-.625.539062-1.015625.390625-1.257813-.300781-.058593-.148438-.148437-.328126-.296874-.417969-1.199219-.839844-1.046876-2.097657-.988282-3.324219 0-.238281.328125-.480469.507813-.71875.210937.148438.480469.269531.597656.480469.210937.359375.390625.777343.511719 1.195312.328125 1.019531.628906 2.039063.925781 3.085938zm0 0"/><path d="m140.402344 118.863281c-.777344-1.675781.027344-3.472656-.449219-5.210937.988281-.121094 1.195313.507812 1.226563 1.019531.058593 1.195313-.03125 2.425781-.121094 3.621094 0 .210937-.269532.421875-.386719.660156-.0625-.058594-.179687-.089844-.269531-.089844zm0 0"/><path d="m84.132812 86.789062c.148438-.71875.238282-1.464843.417969-2.183593.0625-.210938.359375-.332031.539063-.480469.089844.210938.242187.449219.242187.660156-.03125.808594-.089843 1.644532-.242187 2.453125-.058594.300781-.359375.570313-.539063.839844-.117187-.300781-.269531-.597656-.359375-.898437-.027344-.121094 0-.238282 0-.359376-.027344-.03125-.058594-.03125-.058594-.03125zm0 0"/><path d="m160.882812 205.289062c.152344 1.167969.359376 2.15625-.265624 3.203126-.570313-.839844-.453126-2.484376.265624-3.203126zm0 0"/></g></svg>