<svg width="1024" height="1024" viewBox="0 0 1024 1024" fill="none" xmlns="http://www.w3.org/2000/svg">
<rect width="1024" height="1024" fill="url(#paint0_linear_111_496)"/>
<path d="M690.631 259.941C688.3 258.346 686.705 257.12 684.988 256.016C684.13 255.403 683.026 254.912 682.167 254.299C680.082 252.949 677.997 251.6 675.911 250.251C674.93 249.638 673.826 249.147 672.722 248.534C671.864 248.043 670.514 247.798 670.146 247.062C668.674 244.118 666.589 244.731 664.259 245.467C661.928 246.203 659.352 246.571 657.022 247.307C656.286 247.552 655.55 248.656 655.304 249.392C654.814 251.355 653.832 253.072 651.747 252.949C649.294 252.827 646.718 252.091 644.265 251.355C643.161 250.987 642.548 249.638 641.444 249.27C636.537 247.43 634.452 242.646 630.895 239.457C629.791 238.476 627.829 237.494 626.847 237.862C625.743 238.23 624.885 240.315 624.762 241.665C624.517 244.609 624.517 247.552 624.885 250.496C625.375 254.176 628.442 256.139 630.895 258.469C632.244 259.696 633.471 261.168 634.698 262.64C638.255 266.687 641.934 270.858 645.492 274.906C646.473 276.01 648.313 276.745 646.105 278.463C644.02 280.18 642.302 280.18 640.831 278.34C639.481 276.623 637.764 275.151 636.415 273.556C635.801 272.82 635.311 271.962 634.698 271.103C634.33 270.49 634.207 269.631 633.839 269.263C630.159 266.074 628.197 261.29 624.885 258.101C617.77 251.478 620.224 243.75 620.592 236.268C620.714 233.937 623.045 231.852 624.271 229.521C624.394 229.276 624.762 229.153 624.885 228.908C628.81 221.18 636.169 224.615 642.057 223.388C645.001 225.842 647.454 228.663 650.889 230.503C652.115 231.116 650.521 233.814 648.803 233.446C647.209 233.201 645.492 232.22 644.388 231.116C641.689 228.295 633.962 226.455 630.404 228.172C628.687 229.031 628.442 230.748 630.036 232.097C632.735 234.428 635.556 236.636 638.255 238.966C638.868 239.579 639.359 240.315 639.849 241.174C640.217 241.665 640.34 242.523 640.708 242.769C644.633 244.731 648.067 248.166 652.974 246.816C653.832 246.571 655.059 245.099 655.059 244.241C655.059 242.278 654.446 240.315 653.71 238.353C653.219 236.881 652.115 235.286 654.078 234.428C655.918 233.569 658.494 233.324 659.352 235.654C660.456 238.721 662.664 239.212 665.363 239.212C667.57 239.334 669.288 239.947 669.901 242.401C670.146 243.137 671.373 243.75 672.354 243.995C675.053 244.854 678.365 244.609 679.591 248.043C679.714 248.411 680.572 248.902 681.063 248.902C683.148 249.147 684.743 249.883 685.233 252.213C685.356 252.704 685.847 253.44 686.337 253.563C690.876 254.421 692.348 258.837 695.537 261.413C698.603 263.866 701.302 266.933 703.878 269.631C706.208 271.962 709.275 273.924 710.869 277.113C711.115 277.604 711.237 278.34 711.605 278.463C714.672 278.708 715.285 281.775 717.125 283.124C718.965 284.473 720.314 285.822 721.05 287.908C721.173 288.276 721.418 288.644 721.786 288.889C725.711 290.974 729.636 292.937 733.439 295.144C735.156 296.126 736.628 297.23 738.345 298.211C741.902 300.296 745.46 302.259 748.894 304.467C749.998 305.203 750.611 306.675 751.715 307.533C752.819 308.392 754.291 309.373 755.395 309.128C761.283 308.392 760.915 308.269 761.037 302.013C761.283 292.691 762.141 283.492 762.632 274.17C762.755 271.962 763 269.754 763.245 267.423C763.613 261.045 764.84 255.035 766.312 248.779C767.784 242.769 767.17 236.268 767.293 229.889C767.293 226.332 767.906 223.266 770.36 220.567C771.218 219.586 771.709 218.237 771.954 217.01C773.058 210.386 782.626 205.725 788.391 209.16C791.825 211.245 795.75 212.962 797.59 217.133C798.694 219.463 800.534 221.548 801.638 223.879C802.251 225.106 802.006 226.823 802.128 229.153C799.553 226.087 797.713 223.879 795.873 221.671C795.382 221.794 794.892 222.039 794.278 222.162C794.278 224.247 793.42 226.823 794.401 228.295C796.609 231.975 797.099 236.145 798.081 240.193C798.326 241.297 798.939 242.401 799.43 243.627C802.374 242.401 801.638 239.825 802.251 237.985C802.865 236.022 803.232 233.937 803.723 231.852C804.091 231.729 804.336 231.729 804.704 231.607C805.318 233.324 806.299 235.041 806.299 236.758C806.422 244.118 806.299 251.478 806.299 258.837C806.422 274.17 806.422 289.502 806.79 304.835C806.912 311.581 807.526 318.327 808.016 324.951C808.016 325.687 808.261 326.423 808.507 327.036C812.677 335.009 811.941 343.105 808.752 351.2C807.771 353.653 807.771 356.597 807.28 359.296C806.299 365.306 805.195 371.316 804.091 377.327C803.355 381.252 802.742 385.177 801.76 388.979C801.025 391.801 799.798 394.376 798.817 397.198C798.203 399.16 797.467 401.245 797.099 403.208C796.609 406.152 796.486 409.096 796.118 412.04C795.873 413.266 795.628 414.861 794.769 415.719C791.825 418.786 792.193 422.466 793.788 425.409C796.241 429.948 796.609 434.732 796.977 439.515C797.467 446.507 798.449 453.253 800.779 460.122C802.619 465.397 802.006 471.652 802.251 477.417C802.374 480.607 802.129 483.55 804.704 486.126C805.808 487.23 805.808 489.561 806.054 491.278C806.79 496.798 807.28 502.44 808.016 507.96C808.139 509.064 808.997 510.168 809.611 511.149C811.573 514.338 811.328 518.018 808.629 520.962C808.384 519.858 808.139 519.122 808.016 518.263C807.648 515.442 807.28 513.111 804.582 510.904C802.619 509.309 802.374 505.629 801.27 502.931C800.779 501.704 800.166 500.477 799.43 499.251C799.185 498.883 798.571 498.638 798.449 498.147C796.363 493.363 794.156 488.579 792.07 483.796C791.825 483.305 792.07 482.569 791.825 482.324C788.881 479.503 787.9 475.455 785.815 472.388C783.975 469.812 782.994 467.114 781.767 464.415C781.154 463.066 780.172 461.717 779.314 460.368C779.191 460.245 779.068 460.122 778.946 459.877C776.493 455.216 774.039 450.555 771.586 445.894C771.586 445.771 771.586 445.648 771.464 445.648C769.01 442.091 766.68 438.411 766.189 433.996C766.189 433.505 765.208 433.26 764.84 432.769C763.736 431.542 762.264 430.316 761.896 428.844C761.037 425.777 760.179 422.956 757.48 420.871C756.376 420.012 756.254 417.927 755.395 416.578C752.942 412.285 750.489 408.114 748.035 403.944C745.828 400.264 743.374 396.584 741.166 392.905C741.044 392.659 740.921 392.169 740.676 392.169C736.873 390.819 736.015 387.508 735.033 384.073C734.911 383.705 734.665 383.337 734.297 383.092C728.655 378.799 723.135 374.383 717.37 370.212C713.568 367.514 709.52 365.183 705.595 362.73C704.246 361.872 702.651 361.381 701.179 360.645C698.849 359.418 696.518 357.946 694.065 356.72C691.244 355.248 688.545 353.776 685.479 352.795C677.629 350.219 670.76 346.048 663.768 341.878C662.419 341.019 660.701 340.651 659.23 340.038C653.587 337.585 647.577 335.99 642.793 332.065C642.057 331.452 641.199 331.207 640.34 330.839C638.991 330.471 637.273 330.593 636.292 329.735C631.999 326.3 626.847 324.583 622.186 322.007C620.224 320.903 617.648 320.535 615.931 319.186C611.515 315.874 608.939 317.714 606.118 321.516C603.787 324.706 599.862 325.074 596.182 325.442C592.012 325.81 588.087 325.319 585.266 321.516C584.775 320.78 583.548 320.167 582.69 320.044C580.482 319.677 579.01 318.45 577.415 316.855C576.066 315.506 573.49 315.138 571.282 314.77C570.669 314.647 569.442 315.751 569.197 316.61C566.867 323.847 568.216 326.913 574.962 330.348C576.311 331.084 577.293 332.556 578.519 333.414C579.746 334.273 581.095 334.764 582.444 335.377C585.266 336.726 588.087 337.953 590.785 339.302C591.398 339.547 592.012 340.283 592.625 340.283C599.371 340.161 603.91 344.944 609.307 347.766C612.496 349.36 615.317 351.568 618.384 353.285C619.733 354.021 621.45 354.267 623.045 354.757C623.781 355.003 624.762 355.003 625.375 355.371C630.036 358.192 634.698 361.136 639.359 363.957C640.34 364.57 641.566 364.815 642.67 365.429C643.897 365.919 645.124 366.533 646.228 367.146C650.398 369.722 654.446 372.298 658.494 374.996C659.598 375.732 660.456 376.713 661.437 377.572C662.419 378.431 663.277 379.412 664.259 380.271C667.448 383.092 670.637 385.913 673.826 388.611C677.751 392.046 680.94 396.094 684.007 400.264C686.215 403.331 689.527 405.661 692.102 408.482C695.905 412.653 699.585 417.069 703.264 421.362C703.755 421.975 704.123 422.711 704.368 423.447C705.472 426.268 707.19 428.721 709.397 430.929C711.851 433.382 713.2 436.817 715.04 439.761C715.653 440.742 716.512 441.601 717.248 442.337C717.984 443.073 719.21 443.563 719.701 444.544C721.05 447.611 723.258 450.064 724.853 452.763C726.815 456.074 731.722 457.546 731.354 462.33C731.354 462.575 731.722 462.821 731.844 463.066C733.316 465.151 734.788 467.237 736.137 469.444C736.628 470.303 736.751 471.652 737.487 472.143C742.148 474.841 741.657 480.852 745.582 484.041C745.828 484.286 745.337 486.004 744.724 486.494C744.356 486.862 743.006 486.494 742.393 486.004C740.798 484.654 739.449 483.182 738.1 481.588C737.609 480.974 736.996 480.239 736.873 479.503C736.383 476.436 734.297 474.596 732.09 472.756C731.722 472.511 731.231 472.143 731.231 471.898C730.986 467.114 726.447 464.661 724.853 460.49C723.871 457.914 720.928 456.075 718.965 453.744C716.512 450.677 714.304 447.488 711.973 444.422C711.973 444.299 711.973 444.176 711.851 444.176C705.718 440.987 704.982 431.788 696.641 430.684C692.348 430.071 688.055 428.231 683.884 426.759C681.799 426.023 679.959 424.183 677.751 423.57C671.005 421.607 665.485 416.578 658.003 416.701C656.899 416.701 655.672 416.333 654.814 415.719C650.521 412.898 645.737 412.285 640.831 412.04C631.999 411.549 623.535 409.096 615.44 405.661C610.165 403.453 607.467 403.821 603.787 407.992C597.777 414.983 588.332 414.983 581.463 408.605C580.114 407.378 577.293 406.888 575.33 407.256C573.49 407.624 573.858 409.709 574.962 411.304C577.17 414.493 580.359 415.842 584.162 416.701C586.247 417.191 588.087 418.786 590.172 419.644C592.012 420.38 593.974 420.871 596.06 421.239C598.881 421.607 601.089 422.588 603.297 424.551C606.118 427.004 609.552 428.599 612.864 430.316C620.101 433.873 627.461 437.308 634.82 440.742C635.556 441.11 636.292 441.355 637.028 441.601C637.764 441.846 638.623 441.723 639.113 442.214C642.302 444.79 646.841 445.403 649.662 447.611C652.851 450.187 656.408 451.904 659.72 454.235C660.701 454.971 661.683 455.584 662.787 456.074C665.73 457.301 668.797 458.16 669.901 461.594C670.024 461.962 670.392 462.453 670.76 462.453C674.685 462.698 676.157 465.519 677.751 468.463C678.242 469.322 679.468 470.426 680.327 470.426C684.375 470.548 684.865 473.615 685.847 476.436C686.337 477.663 687.319 478.644 687.809 479.871C688.791 482.078 689.772 484.286 690.508 486.494C690.876 487.353 690.631 488.457 691.121 489.193C695.66 495.08 695.537 502.072 696.518 508.941C697.131 513.234 697.99 517.527 698.603 521.82C698.726 522.556 698.726 523.415 698.481 523.905C695.414 529.303 696.273 535.19 696.028 540.955C695.782 547.211 693.574 552.608 691.244 558.25C690.385 560.458 690.017 562.911 689.281 565.242C688.913 566.346 688.423 567.45 687.932 568.554C686.951 570.394 685.847 572.111 684.743 573.951C683.394 576.159 681.922 578.244 680.695 580.574C678.732 584.009 677.015 587.566 675.175 591.001C674.562 592.227 673.581 593.208 672.722 594.312C672.232 594.803 671.618 595.294 671.25 595.784C668.184 599.955 665.117 604.003 662.051 608.173C659.352 611.73 657.022 615.533 654.078 618.844C651.747 621.543 648.681 623.628 646.105 626.081C644.02 628.167 642.302 630.742 640.34 632.95C636.292 637.243 632.244 641.291 628.074 645.462C625.007 648.528 621.818 651.472 618.752 654.538C616.912 656.256 615.072 657.973 613.355 659.813C611.76 661.53 610.288 663.493 608.694 665.333C608.448 665.578 608.326 665.946 608.08 666.069C603.787 667.663 602.193 672.324 598.635 674.777C594.71 677.476 590.417 679.684 586.86 682.75C583.794 685.326 580.604 687.043 576.679 687.657C576.311 687.657 575.821 688.025 575.698 688.393C574.103 691.336 571.405 692.072 568.338 692.686C565.027 693.422 561.837 694.894 558.526 695.752C547.854 698.696 536.937 696.611 526.266 697.224C521.85 697.469 517.312 697.347 512.773 696.856C508.971 696.366 505.291 695.262 501.489 694.28C498.054 693.299 494.497 692.563 491.308 691.091C487.751 689.619 484.439 687.657 481.25 685.571C476.711 682.75 472.418 679.684 468.002 676.74C467.88 676.617 467.512 676.617 467.512 676.372C465.549 671.22 459.416 671.711 456.35 667.54C454.142 664.474 449.971 662.879 447.396 659.936C443.716 655.642 438.073 653.435 435.62 648.037C435.375 647.424 434.639 646.934 433.903 646.811C429.365 645.707 427.279 642.395 425.685 638.47C425.562 638.225 425.562 637.857 425.317 637.611C422.741 635.404 420.288 633.318 417.712 631.233C417.467 630.988 417.099 630.988 416.853 630.865C414.4 628.167 412.07 625.345 409.616 622.77C407.531 620.439 405.323 618.108 403.115 615.901C400.171 613.079 396.982 610.626 395.878 606.456C395.51 605.229 395.02 603.757 394.161 603.021C391.34 600.445 390.236 597.256 389.991 593.454C389.868 590.633 388.764 588.179 387.537 585.481C386.066 582.169 385.82 578.121 385.82 574.441C385.82 564.506 386.556 554.693 386.434 544.758C386.311 539.115 384.962 533.473 384.226 527.831C384.103 527.095 383.98 526.236 383.98 525.5C384.348 521.82 384.716 518.263 385.207 514.583C385.452 512.989 385.575 511.272 386.188 509.8C388.273 504.893 390.849 500.109 392.812 495.203C394.161 491.646 394.652 487.721 395.756 484.164C396.369 482.078 397.718 480.239 398.577 478.276C399.19 476.927 399.926 475.577 400.171 474.106C400.662 470.671 401.275 467.237 404.219 464.906C404.465 464.661 404.833 464.415 404.833 464.293C404.71 458.16 410.475 454.603 411.334 448.838C411.579 446.998 413.173 445.403 414.155 443.686C414.4 443.195 414.768 442.95 415.136 442.459C418.448 437.921 421.882 433.382 425.194 428.844C425.685 428.108 426.053 427.249 426.298 426.391C426.789 424.183 427.034 421.975 429.487 420.748C429.855 420.503 430.223 420.012 430.346 419.522C430.959 415.229 431.818 410.936 432.063 406.642C432.308 403.208 431.94 399.774 431.695 396.339C431.572 394.622 431.204 392.537 428.997 392.537C427.893 392.537 426.298 393.763 425.685 394.867C422.25 400.264 418.08 405.048 412.56 408.482C410.72 409.586 408.022 410.445 406.059 409.954C400.539 408.728 392.689 413.143 392.567 419.522C392.567 421.239 390.113 422.956 388.887 424.796C387.905 426.268 386.556 427.617 386.188 429.212C385.575 432.156 384.839 434.977 382.14 436.817C381.527 437.185 381.159 437.921 380.791 438.534C378.829 442.091 377.111 445.648 375.149 449.206C374.413 450.432 373.186 451.536 372.205 452.64C371.96 452.885 371.346 453.131 371.346 453.376C371.224 458.528 365.949 460.368 364.355 464.906C362.76 469.322 360.92 473.983 357.118 477.172C356.259 477.908 356.014 479.503 355.401 480.729C354.174 482.937 352.947 485.268 351.721 487.475C351.475 487.966 350.985 488.457 350.862 489.07C349.636 493.976 346.201 497.411 343.257 501.336C341.417 503.789 341.049 507.346 339.945 510.413C339.087 512.866 337.86 515.319 337.247 517.773C336.388 520.962 335.53 524.273 335.407 527.585C335.162 534.332 335.407 541.078 335.284 547.824C335.039 560.581 334.548 573.337 334.18 586.094C334.18 586.953 334.18 588.057 333.69 588.793C330.623 593.576 330.501 598.973 329.765 604.37C329.151 608.664 327.189 612.711 326.33 617.004C325.471 621.42 324.736 626.081 324.613 630.62C324.49 635.894 321.792 639.942 319.338 644.112C318.48 645.584 316.517 645.094 315.781 643.376C314.309 639.819 314.8 636.385 316.64 633.073C318.112 630.62 318.112 628.044 318.235 625.223C318.603 619.703 320.197 614.306 321.424 608.909C321.792 607.314 322.896 605.965 323.141 604.37C324.245 597.992 325.104 591.614 326.085 585.358C326.207 584.868 326.085 584.254 326.33 583.886C330.501 573.338 329.029 562.421 328.783 551.504C328.661 545.494 328.538 539.483 328.047 533.473C327.802 530.406 326.698 527.34 326.207 524.273C324.981 517.527 323.877 510.781 322.773 504.035C322.65 503.176 322.65 502.317 322.282 501.704C318.357 494.099 318.971 485.881 318.603 477.785C318.357 473.37 318.848 468.954 318.725 464.661C318.603 461.717 318.235 459.018 317.008 456.074C315.659 452.64 316.763 448.102 317.131 444.176C317.499 440.742 318.357 437.43 318.725 433.996C319.338 428.721 319.216 423.324 320.32 418.173C321.056 414.615 323.386 411.304 324.736 407.869C326.698 402.717 328.415 397.32 330.501 392.169C331.604 389.347 333.567 386.772 334.671 383.95C335.898 380.884 336.511 377.695 338.719 374.874C340.313 372.788 340.436 369.599 341.295 366.901C341.663 365.674 342.399 364.693 343.135 363.343C345.342 367.023 344.729 375.487 342.276 378.308C341.908 378.799 341.417 379.167 341.172 379.78C338.841 386.526 336.634 393.273 334.303 400.019C333.812 401.491 332.586 402.595 331.727 403.944C330.991 405.048 330.01 406.275 330.01 407.378C329.765 411.426 329.765 415.229 326.207 418.173C325.226 418.909 325.104 420.994 325.104 422.466C324.613 433.505 323.877 444.544 324 455.461C324.122 464.783 325.717 473.983 325.717 483.305C325.717 491.033 330.133 497.411 330.991 504.771C331.114 505.384 332.218 505.874 332.831 506.365C333.199 505.629 334.058 504.893 334.058 504.157C334.058 500.968 335.162 498.392 338.105 496.798C338.719 496.552 339.087 495.816 339.332 495.203C341.049 491.646 342.767 488.089 344.484 484.532C344.484 484.409 344.606 484.286 344.606 484.286C347.428 480.484 350.371 476.681 353.193 472.879C353.683 472.143 353.806 471.162 354.297 470.426C355.769 468.218 357.363 466.133 358.958 463.925C358.958 463.802 359.203 463.802 359.203 463.802C361.166 460.736 363.005 457.669 364.968 454.603C366.072 452.763 367.299 450.923 368.403 448.96C370.856 445.035 373.432 440.987 375.885 437.062C376.621 435.836 377.479 434.486 378.338 433.26C378.829 432.401 379.565 431.665 379.933 430.807C380.301 430.071 380.301 429.212 380.791 428.476C382.386 426.145 384.839 423.938 385.575 421.362C386.434 418.05 387.783 415.842 391.095 414.738C391.463 414.615 391.953 414.125 392.076 413.634C393.303 410.69 394.406 407.746 395.756 404.803C396.737 402.84 397.841 400.877 399.068 399.038C401.03 395.971 402.993 392.905 405.201 389.961C408.267 386.036 411.579 382.356 416.976 381.62C417.957 381.497 418.816 380.393 419.674 379.657C422.005 377.572 423.845 377.94 425.807 380.271C427.893 382.601 429.978 384.932 432.431 386.894C435.13 389.102 436.356 392.046 436.356 395.112C436.479 399.528 435.743 404.067 435.498 408.482C435.375 409.832 435.62 411.058 435.743 412.408C436.111 416.087 436.847 419.644 432.676 422.098C431.45 422.834 431.327 425.287 430.959 427.004C430.469 429.089 430.101 431.297 427.525 431.91C427.157 432.033 426.789 432.401 426.666 432.646C424.458 436.694 422.496 440.865 420.288 444.79C417.835 449.206 415.013 453.376 412.805 457.914C410.352 463.066 408.022 468.463 406.304 473.983C405.323 477.049 404.955 480.116 402.502 482.446C402.011 482.937 401.889 483.918 401.766 484.654C401.275 487.721 400.907 490.665 400.294 493.731C400.049 494.835 399.803 496.184 399.068 496.798C396.492 498.638 396.246 501.336 395.51 503.912C394.897 506.12 393.67 508.082 392.567 510.168C392.444 510.536 391.953 510.781 391.953 511.149C390.972 517.405 388.764 523.66 390.604 530.161C391.585 533.718 393.425 537.153 394.284 540.833C394.897 543.776 394.897 546.966 394.652 549.909C394.161 558.005 393.425 565.978 392.812 574.073C392.689 575.177 392.567 576.527 393.057 577.385C395.388 580.82 395.265 584.622 395.633 588.547C395.878 591.001 397.228 593.331 398.209 595.539C398.822 597.011 399.558 598.483 400.417 599.955C401.643 602.04 402.87 604.125 404.219 606.088C404.587 606.578 405.201 606.946 405.323 607.56C406.672 613.938 412.683 616.637 416.363 621.052C420.165 625.591 424.213 630.006 428.383 634.422C430.346 636.507 432.431 638.347 434.516 640.187C435.13 640.801 436.234 641.291 436.356 642.027C437.092 644.848 439.423 645.584 441.631 646.934C444.942 649.019 447.764 651.84 450.953 654.17C456.227 658.218 461.624 662.266 466.899 666.314C470.824 669.38 474.503 672.692 478.674 675.391C486.156 680.174 493.025 686.675 502.593 687.289C504.065 687.411 505.782 687.902 506.763 688.883C510.198 692.195 514.368 692.072 518.538 691.95C528.965 691.827 539.391 691.827 549.817 691.336C552.638 691.214 555.336 689.742 558.158 689.006C561.592 688.147 565.027 687.166 568.461 686.553C570.792 686.185 573.245 686.185 574.103 683.364C574.226 682.996 574.594 682.75 574.962 682.505C578.887 680.542 582.812 678.702 586.615 676.617C587.841 676.004 588.823 675.023 589.927 674.041C592.748 671.711 595.446 669.258 598.145 666.927C598.881 666.314 599.494 665.823 600.23 665.21C602.193 663.493 604.155 661.775 606.118 660.058C607.099 659.2 608.571 658.464 608.816 657.36C609.675 653.557 612.496 651.717 615.072 649.387C617.157 647.669 618.752 645.462 620.592 643.499C620.837 643.254 621.082 642.886 621.45 642.64C626.847 637.489 632.244 632.46 637.764 627.431C641.199 624.364 645.001 621.666 648.067 618.231C650.643 615.533 652.483 612.098 654.568 609.032C655.059 608.418 655.059 607.314 655.672 606.824C661.683 602.531 663.891 595.048 669.41 590.387C669.533 590.265 669.778 590.142 669.778 589.897C670.76 584.868 674.807 581.678 677.015 577.385C679.714 572.111 682.412 566.837 684.865 561.439C685.724 559.477 685.969 557.146 686.705 554.939C687.809 551.627 689.895 548.56 690.385 545.126C692.225 532.246 692.838 519.367 690.876 506.365C690.385 503.544 691.121 500.477 690.876 497.534C690.753 496.184 689.527 494.835 688.668 493.608C688.055 492.75 686.951 491.891 686.951 490.91C686.583 485.145 682.412 481.465 679.591 477.172C675.421 470.794 668.674 467.482 662.541 463.434C658.984 461.104 655.304 459.141 651.993 456.933C649.171 454.971 646.35 453.621 643.161 452.517C642.67 452.395 642.057 452.149 641.812 451.781C639.849 448.47 636.292 448.347 633.226 447.366C631.14 446.63 629.3 444.912 627.215 444.054C621.573 441.723 615.931 439.515 610.288 437.308C610.166 437.308 610.043 437.308 610.043 437.185C604.891 433.014 598.267 432.033 592.502 429.089C589.559 427.617 586.124 426.881 583.303 425.164C578.887 422.588 574.839 419.399 570.546 416.455C570.178 416.21 570.056 415.842 569.81 415.474C565.885 409.586 566.131 399.774 569.933 393.763C572.632 389.47 576.311 387.508 581.34 387.385C584.284 387.385 587.228 387.14 590.172 387.14C591.398 387.14 592.625 387.262 593.729 387.753C598.39 389.961 602.929 392.291 607.59 394.499C609.552 395.358 611.637 395.971 613.6 396.83C616.053 397.811 618.506 398.792 620.96 399.774C623.167 400.632 625.498 401.368 627.829 401.981C632.98 403.208 638.132 404.557 643.284 405.539C645.492 406.029 647.699 405.784 649.907 406.029C651.747 406.275 654.078 406.275 655.427 407.256C658.984 409.832 663.277 409.954 667.202 411.058C670.76 412.04 674.194 413.757 677.629 415.106C678.61 415.474 679.591 415.719 680.45 416.087C682.658 417.069 684.743 418.295 687.073 419.276C687.564 419.522 688.3 419.399 688.913 419.399C688.791 418.786 689.036 417.927 688.668 417.559C683.516 411.917 677.629 406.765 673.335 400.509C670.146 395.971 666.344 392.782 662.296 389.225C658.984 386.281 656.286 382.969 652.238 380.761C648.681 378.799 645.614 375.855 642.302 373.279C641.934 372.911 641.566 372.42 641.076 372.42C636.905 371.807 634.33 368.495 630.895 366.901C628.442 365.674 626.357 363.834 624.149 362.73C620.101 360.645 616.053 358.682 612.251 356.107C610.411 354.88 608.203 354.144 606.24 353.285C603.419 352.181 600.598 351.077 597.777 349.974C597.164 349.728 596.55 349.606 596.06 349.238C590.417 344.454 583.058 342.614 576.925 338.689C575.085 337.462 573.122 336.604 571.16 335.5C570.792 335.254 570.301 335.132 570.178 334.886C566.376 328.999 562.205 322.866 564.659 315.383C566.131 310.845 568.584 306.675 572.999 303.485C579.255 298.824 585.511 299.56 592.257 300.664C593.238 300.787 594.22 301.645 595.201 302.136C596.796 302.995 598.267 304.344 599.985 304.835C606.363 306.675 612.005 309.864 617.525 313.421C617.893 313.666 618.138 313.911 618.506 314.034C623.29 316.242 627.951 318.45 632.735 320.658C633.226 320.903 633.839 320.903 634.084 321.271C636.537 324.951 640.708 324.951 644.265 326.177C644.51 326.3 644.756 326.177 644.878 326.423C647.699 330.348 652.606 329.489 656.163 331.452C657.88 332.433 659.598 333.537 661.315 334.518C661.805 334.764 662.419 335.254 662.909 335.254C666.712 335.254 669.656 337.094 672.354 339.67C672.477 339.793 672.722 339.915 672.845 340.038C677.997 342.123 683.148 344.209 688.3 346.294C689.036 346.539 690.14 346.784 690.508 347.275C692.348 350.219 695.414 350.587 698.481 351.2C698.726 351.323 699.094 351.323 699.339 351.445C702.651 354.267 706.576 355.739 710.624 356.965C711.237 357.088 711.483 358.437 712.096 358.805C713.077 359.418 714.304 360.032 715.408 359.909C716.021 359.786 716.88 357.946 716.634 357.21C716.021 354.757 715.776 351.936 712.955 350.587C712.219 350.219 711.728 348.256 711.851 347.152C712.096 344.454 711.483 342.491 708.907 341.387C708.539 341.265 708.048 341.019 707.926 340.651C706.331 334.028 698.726 333.169 695.66 327.649C693.82 324.46 689.649 322.62 686.828 319.922C683.026 316.365 679.591 312.44 675.789 308.882C672.232 305.571 668.552 302.504 664.872 299.315C661.928 296.862 658.126 295.39 656.408 291.465C656.163 290.851 654.814 290.606 654.2 290.115C652.974 289.257 651.502 288.521 650.889 287.294C650.398 286.313 650.889 284.473 651.625 283.614C651.993 283.124 654.2 283.492 655.059 284.105C658.126 286.19 661.683 288.153 663.891 290.974C666.221 293.918 668.92 295.758 671.741 297.843C675.666 300.787 679.714 303.853 683.516 307.043C685.969 309.005 688.3 311.09 690.508 313.176C695.046 317.346 699.585 321.516 704.123 325.687C706.454 327.895 708.662 330.348 711.115 332.556C714.181 335.5 716.634 338.566 717.616 343.105C718.229 346.171 721.05 348.747 722.277 351.813C724.362 357.088 725.957 362.608 727.797 368.005C728.042 368.618 728.042 369.477 728.532 369.967C730.74 372.298 733.194 374.628 735.401 376.959C736.26 377.94 736.873 379.167 737.609 380.393C737.977 380.884 737.977 381.743 738.345 381.988C743.865 384.441 745.092 390.206 748.281 394.499C750.734 397.688 753.31 400.755 755.886 403.821C756.131 404.067 756.499 404.189 756.622 404.435C758.707 408.728 760.669 413.143 762.755 417.559C763.491 419.031 764.349 420.503 765.331 421.975C765.944 422.834 767.048 423.57 767.416 424.551C769.378 428.721 771.096 433.014 773.058 437.062C773.917 438.902 775.389 440.497 776.615 442.214C776.983 442.827 777.596 443.318 777.842 443.931C779.314 446.507 781.031 449.083 782.258 451.904C784.588 457.056 786.673 462.33 788.881 467.605C789.127 468.218 789.249 468.954 789.617 469.199C792.684 470.548 792.806 473.247 793.297 476.068C793.42 477.172 794.646 478.153 795.382 479.135C796.118 478.153 797.59 477.172 797.59 476.068C797.835 471.652 797.713 467.114 797.713 462.698C797.713 462.33 797.59 461.84 797.345 461.594C792.07 456.933 793.91 450.432 793.174 444.667C792.929 442.705 793.052 440.619 793.052 438.534C793.052 435.468 793.42 432.892 790.598 430.071C788.268 427.74 787.777 423.202 787.287 419.522C786.551 414.983 786.305 410.568 784.465 406.152C782.626 401.859 783.239 396.584 782.626 391.801C782.135 388.243 781.154 384.686 780.663 381.129C779.804 375.609 778.823 370.09 778.332 364.57C777.842 359.909 778.332 355.125 775.021 351.2C774.653 350.71 774.53 350.096 774.407 349.483C773.426 344.454 773.426 339.302 768.888 335.132C764.717 331.329 762.019 326.055 758.339 321.884C755.886 319.186 752.574 317.101 749.753 314.647C748.158 313.298 746.809 311.581 745.214 310.232C742.27 307.778 739.204 305.448 736.137 303.363C734.297 302.136 731.844 301.523 729.882 300.419C726.815 298.579 723.626 296.739 721.05 294.163C715.531 288.644 710.624 282.51 705.227 276.991C703.51 275.274 701.547 273.924 700.934 271.348C700.811 270.735 699.585 270.244 698.726 269.877C694.31 266.933 690.999 262.64 690.631 259.941ZM802.619 286.926C802.742 286.926 802.742 286.926 802.865 286.926C802.865 277.604 802.742 268.405 802.865 259.082C802.987 253.685 800.534 249.392 796.486 246.448C793.665 244.363 792.316 242.033 791.212 238.966C788.759 231.975 788.636 224.738 788.023 217.501C787.9 216.029 787.041 213.576 786.06 213.33C783.975 212.84 780.418 212.594 779.559 213.821C776.615 217.501 773.671 221.671 772.567 226.087C771.218 231.239 771.954 236.881 771.709 242.278C770.605 259.45 768.642 276.623 766.557 293.673C765.821 299.928 765.821 306.184 765.208 312.44C764.717 317.591 764.963 322.498 768.888 326.423C770.728 328.263 771.586 330.348 771.709 332.924C771.831 334.028 772.567 335.622 773.426 335.99C775.511 336.849 776.002 338.321 776.247 340.283C776.861 344.576 777.106 348.992 780.418 352.427C781.276 353.285 781.399 355.003 781.644 356.475C783.116 364.079 781.522 372.052 785.201 379.412C786.551 382.11 786.673 385.3 787.041 388.366C787.532 392.169 787.532 396.094 787.9 399.896C788.023 400.877 788.881 401.736 789.495 402.595C790.23 401.859 791.334 401.123 791.825 400.141C792.929 398.302 793.91 396.216 794.892 394.254C795.505 393.027 796.363 391.678 796.486 390.329C797.59 382.478 799.062 374.751 800.902 367.023C802.619 359.418 803.6 351.691 806.422 344.209C807.403 341.633 808.016 337.708 806.667 335.745C802.864 329.857 803.11 323.356 802.742 317.101C802.251 307.165 802.619 297.107 802.619 286.926ZM581.708 304.835C580.359 305.08 578.642 305.203 577.047 305.693C575.33 306.184 575.085 307.288 576.434 308.637C581.463 313.421 588.209 315.138 594.097 318.45C594.71 318.818 595.692 318.695 596.55 318.695C598.513 318.818 600.721 319.063 600.843 316.242C600.966 313.911 601.457 311.213 597.777 310.722C596.673 310.6 595.201 309.986 594.588 309.128C591.521 304.344 586.615 305.325 581.708 304.835ZM585.633 391.923C583.058 393.518 580.236 395.235 577.538 396.952C576.925 397.32 576.311 398.302 576.434 398.792C576.557 399.406 577.538 400.019 578.151 400.141C579.991 400.509 581.831 400.632 583.548 400.632C585.756 400.509 587.228 401.123 588.455 402.963C590.172 405.539 592.625 406.029 594.833 404.067C596.182 402.84 597.041 401 597.654 399.16C597.777 398.792 595.446 397.688 594.22 396.83C592.257 395.48 590.417 394.131 588.455 392.905C587.719 392.537 586.86 392.291 585.633 391.923ZM405.814 397.811C405.936 401.491 408.144 402.717 410.843 400.509C414.645 397.443 418.08 393.763 421.392 390.083C422.741 388.611 422.128 386.649 420.533 385.545C419.552 384.932 417.467 384.686 416.853 385.177C413.419 388.366 410.107 391.801 406.918 395.235C406.304 396.094 406.059 397.32 405.814 397.811Z" fill="white"/>
<path d="M428.015 833.622C427.525 832.15 426.789 830.678 426.543 829.206C426.175 825.772 426.175 822.215 425.685 818.78C425.439 817.063 424.336 815.469 423.722 813.874C422.618 810.93 421.637 807.986 420.656 805.042C419.429 801.363 418.325 797.683 417.221 794.003C416.608 791.918 416.117 789.71 415.504 787.502C415.259 786.643 415.381 785.417 414.768 784.926C409.616 781.246 407.776 775.359 404.71 770.207C402.747 767.018 399.803 764.442 397.35 761.498C396.737 760.885 396.492 759.903 396.001 759.167C395.265 758.064 394.529 757.082 393.793 756.101C393.18 755.242 392.199 754.629 391.953 753.77C391.095 750.581 388.764 748.741 386.311 746.779C382.508 743.835 379.319 740.278 375.762 737.089C374.29 735.862 372.941 734.513 371.224 733.532C365.949 730.71 364.355 723.719 358.099 721.879C357.486 721.634 356.872 721.02 356.504 720.53C353.438 716.236 350.371 711.943 347.305 707.65C346.814 706.914 346.078 706.301 345.465 705.565C339.087 699.187 332.586 692.931 326.575 686.307C324.49 683.977 322.037 681.769 320.565 679.561C317.621 675.023 313.819 671.834 310.016 668.399C307.44 666.069 305.355 663.002 303.393 660.181C301.675 657.728 300.449 655.029 298.732 652.576C297.382 650.491 295.42 648.773 293.948 646.688C288.551 638.593 283.399 630.252 279.965 621.052C279.597 619.948 278.738 618.967 278.125 617.863C274.322 611.362 273.218 604.37 273.218 596.888C273.341 588.793 272.728 580.82 272.36 572.724C272.36 571.988 272.237 570.884 271.746 570.394C267.821 566.346 268.435 560.949 267.331 556.042C267.085 555.184 266.963 554.203 266.595 553.467C265.613 551.381 263.896 549.541 263.773 547.456C263.283 541.691 260.094 537.03 257.886 532.001C255.555 526.481 252.121 521.33 249.3 516.055C248.564 514.583 247.95 513.111 247.214 511.639C245.374 507.714 242.185 504.525 241.695 499.864C241.695 499.251 240.713 498.883 240.345 498.27C239.487 496.92 238.628 495.448 237.892 494.099C236.911 492.137 236.052 490.174 235.071 488.334C234.826 487.843 234.212 487.598 234.212 487.107C232.495 479.135 226.607 472.634 226.73 464.047C226.73 462.33 225.872 460.368 224.89 459.018C222.437 455.952 222.928 452.272 222.314 448.838C221.701 445.771 220.597 442.827 219.984 439.761C219.125 435.1 218.267 430.316 217.899 425.532C217.285 417.682 217.163 409.832 216.549 401.981C216.427 399.528 215.568 397.198 215.2 394.867C214.587 388.489 213.851 381.742 212.624 375.119C212.134 372.175 210.784 369.477 209.68 366.655C209.067 365.061 208.331 363.466 207.595 361.994C206.491 359.786 205.142 357.578 204.161 355.371C203.425 353.776 202.443 352.059 202.321 350.342C201.585 342.001 200.972 333.66 202.811 325.564C203.179 323.847 204.651 322.498 205.755 320.903C206.123 320.412 206.737 320.044 206.859 319.554C208.331 314.893 212.134 315.138 215.813 315.261C216.795 315.261 217.776 315.506 218.88 315.506C222.928 315.751 226.975 315.751 229.183 320.535C229.797 321.884 231.882 322.498 233.354 323.356C234.335 323.97 235.562 324.215 236.175 325.074C238.506 328.385 240.591 331.82 242.921 335.132C244.148 336.849 245.374 338.566 246.601 340.283C246.969 340.774 247.46 341.142 247.705 341.755C249.913 346.294 251.875 350.955 254.206 355.371C256.046 358.928 258.008 362.485 260.216 365.919C261.443 367.759 263.038 367.391 263.896 364.815C264.755 361.872 265.613 358.928 266.104 355.984C267.208 348.992 267.944 341.755 269.293 334.886C270.152 330.348 271.992 325.932 273.464 321.516C274.445 318.573 274.077 314.893 277.757 313.176C278.37 312.93 278.37 311.09 278.493 310.109C278.983 307.41 279.106 304.589 279.842 302.013C280.21 300.664 281.559 299.806 282.295 298.456C283.276 296.739 284.503 295.022 284.748 293.182C285.116 289.993 284.748 286.681 284.871 283.369C284.871 282.265 285.362 281.039 285.975 280.057C287.324 278.095 288.673 276.132 290.268 274.292C291.617 272.82 293.212 271.471 294.806 270.122C295.297 269.754 295.91 269.754 296.524 269.509C299.468 267.914 302.043 267.301 305.601 268.773C308.912 270.122 311.366 271.226 310.752 275.396C310.752 275.396 310.63 275.642 310.507 275.642C303.638 277.359 304.742 275.764 304.129 283.614C304.006 285.332 304.006 287.049 303.761 288.766C303.638 290.115 303.515 291.833 302.657 292.446C299.713 294.654 299.836 298.211 298.364 301.032C296.646 304.344 294.438 307.41 292.353 310.477C291.863 311.213 290.759 311.704 289.777 311.949C283.276 313.911 279.965 318.205 279.106 324.828C278.493 329.367 276.775 333.905 275.917 338.443C275.304 341.755 275.304 345.067 274.936 348.379C274.077 356.965 272.973 365.551 272.36 374.26C271.624 384.196 270.888 394.254 270.52 404.189C270.152 411.917 270.274 419.767 270.274 427.495C270.274 428.476 270.397 429.457 270.52 430.439C270.888 430.561 271.133 430.561 271.501 430.684C271.992 429.457 272.728 428.108 272.973 426.881C273.464 423.692 274.077 420.503 276.407 417.927C277.143 417.069 277.143 415.474 277.511 414.247C279.597 407.624 281.805 401.123 283.89 394.499C285.73 388.979 287.202 383.337 289.287 377.94C291.127 373.279 293.703 368.863 295.788 364.325C297.26 360.89 298.486 357.333 299.713 353.776C300.081 352.795 300.204 351.691 300.939 351.077C303.761 348.502 304.129 345.19 304.006 341.755C303.761 336.481 304.865 331.575 307.44 326.791C308.667 324.46 308.544 321.516 309.158 318.818C309.771 316.365 310.63 314.034 311.488 311.704C312.224 309.618 313.328 307.656 314.187 305.693C314.923 304.221 315.291 302.504 316.395 301.4C320.565 297.107 318.603 291.955 318.235 287.172C318.112 286.068 316.395 285.086 315.413 284.105C313.941 282.51 312.47 280.916 310.875 279.076C314.555 277.727 316.763 278.585 318.603 281.284C319.461 282.633 320.81 283.614 321.669 284.964C322.65 286.558 323.877 288.276 324.245 289.993C325.104 295.144 328.415 297.352 332.954 298.702C334.671 299.192 336.511 299.56 338.228 300.174C340.681 301.032 342.889 302.136 343.625 304.957C343.993 306.184 344.974 307.41 345.956 308.024C348.409 309.496 349.268 311.949 350.617 314.157C355.401 321.394 353.929 329.121 353.683 336.726C353.683 337.462 353.561 338.198 353.193 338.811C352.825 339.425 352.211 339.793 351.598 340.406C351.23 339.915 350.617 339.302 350.617 338.811C350.371 334.396 349.881 329.98 350.249 325.687C350.494 322.62 349.513 320.29 347.796 317.837C346.078 315.506 343.87 313.053 344.852 309.864C342.767 309.005 340.804 307.901 338.719 307.288C337.738 307.043 335.652 307.533 335.407 308.146C334.548 310.354 333.935 312.808 334.058 315.015C334.058 317.346 333.935 318.941 332.095 320.658C330.746 321.884 330.133 324.092 329.642 325.932C329.151 328.14 328.783 330.103 326.453 331.084C325.962 331.329 325.349 331.82 325.226 332.433C323.754 337.585 319.338 339.179 315.045 340.774C311.243 342.123 309.648 343.473 309.28 347.275C308.912 350.955 308.422 354.512 305.601 357.333C304.619 358.314 304.619 359.909 304.006 361.258C302.902 363.466 301.798 365.429 300.694 367.637C300.204 368.495 299.713 369.476 299.468 370.458C297.382 378.063 296.524 386.281 293.089 393.15C289.777 399.651 290.268 407.378 285.73 413.389C284.626 414.983 284.871 417.559 284.258 419.522C283.522 422.466 282.54 425.287 281.682 428.108C280.823 430.929 280.087 433.75 279.106 436.572C278.247 439.147 277.021 441.478 276.039 443.931C275.058 446.63 274.2 449.328 273.096 452.027C267.576 465.519 267.944 479.503 270.274 493.486C270.397 494.59 270.888 495.816 271.501 496.552C274.322 499.619 273.341 503.053 272.482 506.365C272.237 507.101 271.378 507.96 270.642 508.082C270.274 508.205 269.416 507.224 268.925 506.61C267.208 504.28 265.245 501.949 264.019 499.374C263.16 497.656 262.915 495.448 262.792 493.486C262.67 483.182 262.547 472.879 262.547 462.575C262.547 447.979 262.67 433.382 262.67 418.786C262.67 413.021 262.547 407.133 262.67 401.368C262.792 396.83 261.198 392.782 259.48 388.734C258.867 387.262 258.376 385.668 258.131 384.073C257.518 380.271 256.291 376.959 253.838 373.647C250.772 369.477 249.3 364.325 247.092 359.541C246.478 358.314 245.742 357.088 245.129 355.739C244.271 354.021 243.412 352.304 242.553 350.587C241.327 348.134 240.1 345.803 238.873 343.35C238.628 342.982 238.383 342.614 238.26 342.246C237.524 335.868 232.372 331.943 229.797 326.545C225.136 325.074 222.314 319.677 216.672 320.044C211.643 320.412 210.907 323.97 212.134 328.508C212.256 329.121 212.747 329.857 213.238 330.348C220.106 338.321 219.371 348.011 219.003 357.333C218.512 368.005 218.88 378.676 220.474 389.347C221.824 398.302 221.946 407.378 222.682 416.455C222.928 420.258 222.192 424.428 223.664 427.617C227.343 435.713 227.098 444.299 228.57 452.64C228.693 453.499 228.693 454.48 229.183 454.971C232.495 458.037 232.372 462.575 233.967 466.378C236.42 472.511 239.241 478.399 241.817 484.532C244.148 489.929 246.356 495.448 248.686 500.968C249.054 501.949 249.79 502.931 250.404 503.789C253.593 507.837 257.027 511.762 258.131 517.037C258.254 517.895 258.622 518.876 259.235 519.612C262.424 523.17 263.283 527.463 264.264 531.878C264.387 532.614 264.632 533.718 265.123 534.086C267.699 536.049 268.067 538.87 268.435 541.691C268.925 544.758 269.171 547.579 271.869 549.909C273.096 550.891 273.096 553.467 273.341 555.429C273.709 557.76 273.464 560.213 273.954 562.421C274.322 564.261 275.549 565.978 276.285 567.695C276.898 569.29 278.002 570.884 278.125 572.479C278.615 582.414 278.738 592.472 279.106 602.531C279.229 604.248 279.474 605.965 279.842 607.682C280.823 611.117 281.927 614.674 283.031 618.108C283.154 618.476 283.154 618.967 283.399 619.212C286.098 622.524 288.919 625.713 291.617 629.025C292.231 629.761 293.089 630.62 293.212 631.601C294.071 637.243 298.732 640.433 301.43 644.848C301.798 645.462 302.411 645.83 302.902 646.443C304.742 649.141 306.704 651.717 308.176 654.416C309.771 657.237 312.224 658.954 314.923 660.671C316.149 661.407 317.008 663.002 317.989 664.106C320.688 667.418 323.386 670.852 326.085 674.287C327.066 675.513 327.802 676.863 328.783 677.967C329.765 679.07 330.869 680.052 331.972 681.156C332.34 681.524 332.954 681.646 333.199 682.014C335.284 684.59 337.002 687.411 339.209 689.865C343.38 694.648 347.796 699.187 352.089 703.848C354.542 706.424 356.75 709.245 359.571 711.575C363.987 715.255 366.195 721.02 371.714 723.841C373.922 724.945 375.517 727.398 377.357 729.361C380.178 732.55 382.999 735.862 385.82 738.929C387.415 740.646 389.377 742.24 391.095 743.958C391.831 744.694 392.935 745.307 393.057 746.166C394.038 751.808 398.945 753.77 402.502 757.082C403.115 757.696 403.729 758.186 404.219 758.799C407.531 763.829 410.843 768.98 414.032 774.132C414.891 775.359 415.259 776.953 415.995 778.302C416.976 780.02 418.202 781.492 419.306 783.209C419.674 783.7 420.165 784.19 420.288 784.681C421.392 793.022 427.647 800.136 426.666 809.09C426.543 810.317 427.034 811.789 427.77 812.77C431.45 818.167 431.204 824.177 430.714 830.188C430.591 831.414 429.733 832.518 429.242 833.622C428.874 833.622 428.383 833.622 428.015 833.622ZM328.661 309.864C328.047 308.392 327.557 306.184 326.821 306.061C325.349 305.816 323.386 306.429 322.282 307.41C320.933 308.514 320.197 310.354 319.461 311.949C318.603 313.911 318.357 316.242 317.131 317.837C313.819 322.62 313.573 327.649 314.677 332.924C314.8 333.537 315.536 334.518 316.027 334.641C316.517 334.764 317.499 334.028 317.867 333.414C320.074 329.489 322.405 325.687 324.245 321.639C326.085 318.082 327.189 314.034 328.661 309.864ZM286.834 299.56C287.938 299.07 288.305 298.947 288.551 298.702C293.335 293.795 297.137 288.276 299.1 281.775C299.59 280.303 298.977 278.34 298.486 276.745C298.364 276.255 296.401 275.642 296.033 276.01C294.071 277.849 291.372 279.689 290.636 282.02C288.919 287.417 288.183 293.182 286.834 299.56ZM209.067 353.531C212.502 350.219 213.115 341.265 210.416 338.076C207.718 339.915 206.982 348.87 209.067 353.531Z" fill="white"/>
<path d="M556.195 599.464C550.185 599.341 544.665 600.813 538.777 602.04C532.276 603.389 525.039 603.389 518.416 602.163C508.726 600.323 499.158 600.323 489.468 599.955C483.826 599.709 478.797 598.36 474.381 594.312C472.05 592.104 468.493 591.369 465.427 589.897C465.059 589.774 464.568 589.774 464.323 589.529C460.643 586.707 456.84 583.764 453.283 580.82C451.566 579.471 449.849 577.999 448.5 576.281C446.414 573.705 443.961 571.13 442.857 568.186C442.121 565.978 442.735 562.911 443.593 560.581C444.82 557.392 446.537 554.571 449.726 552.608C452.67 550.768 454.755 547.702 457.454 545.371C463.219 540.219 469.842 536.417 476.589 532.492C488.241 525.623 500.385 527.953 512.651 528.812C515.104 528.935 517.435 530.897 520.01 531.633C525.407 533.228 530.804 533.841 536.079 530.652C537.919 529.548 540.249 528.935 542.457 528.812C546.996 528.689 551.657 528.321 556.072 529.303C559.875 530.161 564.291 531.756 566.744 534.577C569.074 537.275 572.018 538.011 574.349 539.974C576.679 541.937 578.887 543.654 581.708 545.003C584.652 546.598 586.86 549.664 589.436 552.117C591.889 554.325 594.465 556.533 596.796 558.741C597.9 559.845 599.126 561.072 599.862 562.421C601.947 565.855 601.579 566.591 598.758 569.535C597.041 571.375 595.569 573.46 594.097 575.545C593.238 576.772 592.625 578.489 591.521 579.225C590.295 579.961 587.841 580.697 586.983 580.084C585.511 578.857 585.879 576.895 587.228 575.177C589.559 572.479 589.313 569.412 586.492 568.308C584.284 567.45 581.34 566.837 579.255 567.572C575.33 569.044 572.386 567.695 569.197 565.978C567.97 565.365 566.621 564.751 565.272 564.629C558.158 563.893 551.043 563.525 544.052 562.789C541.599 562.543 539.268 561.807 536.937 561.317C526.511 559.109 516.208 560.09 505.904 561.93C501.734 562.666 497.686 563.157 493.516 563.893C491.185 564.261 488.977 564.997 486.647 565.242C485.175 565.487 483.58 565.61 482.108 565.242C479.287 564.506 477.079 565.365 474.994 567.082C471.682 569.903 467.88 569.903 464.568 567.204C461.379 564.629 454.265 566.101 453.038 569.903C452.67 570.884 453.774 572.97 454.755 573.705C460.03 577.631 465.795 580.942 470.824 585.236C473.89 587.811 477.447 589.038 480.514 591.123C486.401 595.048 492.657 594.68 498.913 595.171C506.027 595.784 513.141 596.152 520.256 596.888C523.322 597.134 526.511 598.605 529.578 598.36C536.447 597.87 543.193 596.643 550.062 596.03C555.95 595.539 561.837 595.416 567.725 595.048C568.338 595.048 569.32 594.435 569.442 593.944C570.792 590.019 574.717 588.547 577.17 585.726C577.906 584.868 578.642 584.009 579.378 583.15C579.868 582.537 580.114 581.433 580.727 581.31C582.076 580.942 583.548 581.065 585.02 580.942C584.775 582.414 585.02 584.622 584.162 585.481C580.727 588.547 576.925 591.246 573.245 594.067C572.754 594.435 571.773 594.803 571.65 595.294C570.424 599.341 566.866 599.464 563.8 599.832C561.347 599.832 558.771 599.464 556.195 599.464ZM496.337 533.718C492.535 533.35 487.996 534.7 483.09 536.049C476.098 537.889 471.192 542.427 465.917 546.598C462.851 548.928 460.398 551.995 457.576 554.57C455.859 556.042 455.982 557.269 458.067 557.882C460.643 558.618 463.464 559.722 466.04 559.6C474.013 559.109 482.231 558.986 489.836 556.901C506.64 552.363 523.445 553.467 540.249 554.325C548.958 554.816 557.299 558.373 566.131 558.25C571.405 558.25 576.679 558.864 581.954 559.109C582.812 559.109 584.039 558.741 584.652 558.128C585.02 557.76 584.775 556.288 584.284 555.674C582.322 553.467 580.482 550.891 578.151 549.296C573.858 546.352 569.197 543.899 566.008 539.606C565.64 539.238 564.904 539.115 564.413 538.87C561.96 537.766 559.507 536.539 557.054 535.558C555.704 534.945 554.11 534.332 552.638 534.332C546.996 534.209 541.476 534.454 535.956 537.153C529.455 540.465 522.096 539.851 515.717 537.275C509.707 534.822 503.942 533.596 496.337 533.718Z" fill="white"/>
<path d="M660.947 833.377C660.701 829.084 660.088 824.668 660.333 820.375C660.824 810.439 661.683 800.381 662.419 790.446C662.541 788.729 663.645 787.011 664.136 785.294C664.627 783.454 665.24 781.614 665.24 779.774C665.73 768.735 665.853 757.696 666.466 746.779C666.589 744.816 668.184 742.976 668.92 741.136C669.41 739.91 670.146 738.683 670.146 737.457C670.637 729.606 671.128 721.756 671.496 714.029C671.496 713.415 671.618 712.557 671.986 712.311C675.298 710.226 674.562 706.914 674.807 703.848C674.93 701.763 675.421 699.8 675.911 697.837C676.157 696.734 676.525 695.016 677.383 694.648C680.327 693.176 680.45 690.478 680.818 687.902C681.554 682.382 685.847 678.948 688.177 674.409C689.527 671.711 690.998 669.012 692.348 666.436C692.961 665.333 693.574 664.351 694.188 663.37C695.046 661.898 695.905 660.426 696.764 658.954C696.886 658.709 696.886 658.218 697.009 658.096C701.302 656.869 701.302 652.085 704 649.387C707.067 646.566 708.907 642.64 711.483 639.206C713.691 636.385 716.021 633.809 718.352 631.233C721.173 628.167 723.626 624.609 726.938 622.279C729.882 620.194 731.476 617.127 734.175 614.797C736.751 612.589 738.713 609.89 741.044 607.314C741.289 607.069 741.289 606.578 741.534 606.578C744.724 605.106 746.195 602.163 748.281 599.709C750.734 596.52 753.8 593.822 756.376 590.755C758.829 587.811 761.037 584.622 763.736 581.801C764.962 580.452 767.17 580.084 769.01 579.348C769.378 579.593 769.624 579.839 769.992 580.084C769.624 581.188 769.256 582.292 768.642 583.273C767.906 584.5 767.17 585.603 766.189 586.585C763.736 589.283 761.283 591.736 758.829 594.435C758.216 595.048 757.603 595.784 756.99 596.398C755.763 597.624 754.659 598.973 753.432 600.2C752.942 600.813 752.328 601.304 751.838 602.04C751.47 602.653 751.347 603.512 750.857 604.003C748.035 607.069 745.214 610.013 742.393 612.957C741.044 614.429 740.062 616.269 738.591 617.372C736.383 618.967 733.439 619.58 731.722 621.42C729.882 623.26 729.391 626.204 727.797 628.412C725.343 631.846 722.645 635.036 719.824 638.225C717.493 640.923 714.917 643.254 712.587 645.952C710.379 648.528 708.416 651.349 706.331 654.048C703.878 657.114 701.057 659.935 698.849 663.125C697.254 665.578 695.905 668.399 695.414 671.22C694.801 673.919 694.678 676.495 692.102 678.089C691.734 678.335 691.366 678.825 691.121 679.193C689.036 683.241 686.951 687.289 684.865 691.336C684.13 692.808 683.026 694.158 682.29 695.752C681.676 696.856 681.186 697.96 680.94 699.064C680.45 701.517 680.45 703.97 679.714 706.301C679.1 708.264 677.751 709.858 676.893 711.698C676.279 712.802 675.666 714.029 675.543 715.255C675.175 720.775 675.298 726.295 674.685 731.814C674.194 735.862 672.477 739.787 671.618 743.835C670.882 747.024 670.514 750.213 670.392 753.525C669.778 761.866 669.533 770.207 668.92 778.548C668.674 781.982 668.92 785.785 665.73 788.361C665.24 788.729 665.485 789.955 665.485 790.691C665.24 802.712 664.995 814.732 664.627 826.876C664.504 829.206 663.645 831.537 663.032 833.99C662.051 833.5 661.56 833.377 660.947 833.377Z" fill="white"/>
<path d="M535.588 481.342C539.145 477.785 549.203 476.068 554.11 478.276C557.176 479.748 556.072 482.324 555.827 484.409C555.459 486.985 552.515 489.07 549.939 488.702C547.486 488.334 545.156 487.843 542.825 487.23C539.513 486.249 536.815 485.881 533.503 488.089C527.125 492.259 519.765 493.854 512.16 491.523C508.235 490.297 504.555 488.089 500.63 486.74C498.054 485.881 495.356 485.636 492.657 485.513C490.204 485.39 488.241 485.145 487.015 482.692C485.788 480.239 486.401 478.153 487.751 476.068C489.223 473.983 491.063 473.615 493.393 474.351C497.318 475.7 501.243 476.927 505.291 478.276C505.904 478.521 506.518 478.767 506.886 479.135C512.528 484.777 519.397 484.164 526.266 482.569C528.351 482.078 530.436 481.342 532.522 480.974C533.258 480.729 534.116 481.097 535.588 481.342Z" fill="white"/>
<path d="M775.511 571.13C775.511 564.506 782.748 562.421 784.343 556.41C784.956 553.712 789.495 552.117 790.966 549.296C792.806 545.739 795.75 542.795 797.345 539.238C798.571 536.662 797.958 533.228 801.393 531.633C802.006 531.388 802.128 529.916 802.374 528.935C802.987 527.095 803.232 525.132 804.091 523.415C804.336 522.802 805.808 522.311 806.544 522.434C807.035 522.556 808.016 523.783 807.893 524.396C807.403 527.585 807.771 531.142 804.582 533.473C803.723 534.086 803.11 535.19 802.742 536.172C801.883 538.747 801.515 541.569 798.571 542.918C798.081 543.04 797.713 543.899 797.713 544.39C797.835 547.702 796.118 549.787 793.542 551.259C793.174 551.504 792.806 551.872 792.806 552.117C792.316 556.533 788.759 559.232 786.183 561.93C782.748 565.242 781.767 571.252 775.511 571.13Z" fill="white"/>
<path d="M473.032 484.654C470.456 486.862 468.861 486.249 467.88 483.428C467.635 482.814 467.267 482.078 466.653 481.71C461.747 478.276 462.36 473.124 462.605 468.095C462.605 467.114 463.955 466.133 464.691 465.151C465.549 465.765 466.653 466.255 467.144 467.114C468.002 468.586 468.738 470.303 469.229 472.02C470.578 476.191 471.805 480.361 473.032 484.654Z" fill="white"/>
<path d="M575.085 486.862C571.896 479.993 575.207 472.634 573.245 465.519C577.293 465.029 578.151 467.605 578.274 469.69C578.519 474.596 578.151 479.625 577.783 484.532C577.783 485.39 576.679 486.249 576.189 487.23C575.943 486.985 575.453 486.862 575.085 486.862Z" fill="white"/>
<path d="M344.606 355.493C345.22 352.549 345.588 349.483 346.324 346.539C346.569 345.68 347.796 345.19 348.532 344.576C348.9 345.435 349.513 346.416 349.513 347.275C349.39 350.587 349.145 354.021 348.532 357.333C348.286 358.56 347.06 359.664 346.324 360.768C345.833 359.541 345.22 358.314 344.852 357.088C344.729 356.597 344.852 356.107 344.852 355.616C344.729 355.493 344.606 355.493 344.606 355.493Z" fill="white"/>
<path d="M658.984 840.859C659.598 845.643 660.456 849.691 657.88 853.984C655.55 850.549 656.04 843.803 658.984 840.859Z" fill="white"/>
<defs>
<linearGradient id="paint0_linear_111_496" x1="1024" y1="-5.24521e-05" x2="144" y2="1024" gradientUnits="userSpaceOnUse">
<stop stop-color="#FBFBFB"/>
<stop offset="0.510417" stop-color="#B5B5B5"/>
<stop offset="1" stop-color="#FBFBFB"/>
</linearGradient>
</defs>
</svg>
