<svg height="250" viewBox="0 0 250 250" width="250" xmlns="http://www.w3.org/2000/svg"><g fill="#2b5eba"><path d="m249.976562 124.9375c0 29.492188-23.441406 53.398438-52.355468 53.398438-28.914063 0-52.351563-23.90625-52.351563-53.398438s23.4375-53.398438 52.351563-53.398438c28.914062 0 52.355468 23.90625 52.355468 53.398438zm0 0"/><path d="m156.710938 25.75c0 14.21875-11.304688 25.746094-25.246094 25.746094s-25.242188-11.527344-25.242188-25.746094c0-14.222656 11.300782-25.75 25.242188-25.75s25.246094 11.527344 25.246094 25.75zm0 0"/><path d="m156.710938 224.25c0 14.222656-11.304688 25.75-25.246094 25.75s-25.242188-11.527344-25.242188-25.75c0-14.21875 11.300782-25.746094 25.242188-25.746094s25.246094 11.527344 25.246094 25.746094zm0 0"/><path d="m119.902344 163.496094c1.492187.507812 3.109375.761718 4.722656.761718 8.707031 0 15.792969-7.230468 15.792969-16.109374 0-8.878907-7.085938-16.109376-15.792969-16.109376-5.59375 0-10.445312 2.917969-13.304688 7.355469v.128907c-.496093.632812-.871093 1.394531-1.117187 2.15625-17.410156 31.328124-52.355469 10.402343-52.355469 10.402343-5.71875-3.425781-12.308594-5.457031-19.523437-5.457031-21.015625 0-38.050781 17.378906-38.050781 38.8125 0 21.4375 17.035156 38.8125 38.050781 38.8125 14.675781 0 27.484375-8.496094 33.703125-20.925781v-.128907c1.117187-2.15625 1.988281-4.4375 2.734375-6.847656 18.15625-42.492187 45.140625-32.851562 45.140625-32.851562zm-8.953125-56.953125c.746093 1.398437 1.738281 2.792969 2.859375 3.933593 6.21875 6.34375 16.164062 6.34375 22.257812 0 6.21875-6.339843 6.21875-16.488281 0-22.703124-3.976562-4.058594-9.449218-5.453126-14.425781-4.3125h-.121094c-.746093.125-1.617187.378906-2.363281.761718-34.074219 9.636719-44.269531-30.441406-44.269531-30.441406-1.617188-6.597656-4.976563-12.8125-9.949219-17.886719-14.921875-15.21875-38.921875-15.21875-53.71875-.125-14.800781 15.09375-14.925781 39.699219 0 54.792969 10.445312 10.65625 25.242188 13.824219 38.421875 9.511719h.125c2.238281-.757813 4.476563-1.773438 6.714844-2.914063 42.15625-16.996094 54.46875 9.382813 54.46875 9.382813zm0 0"/></g></svg>