<svg height="250" viewBox="0 0 250 250" width="250" xmlns="http://www.w3.org/2000/svg"><path d="m.0625 121.03125c2.179688-68.996094 59.902344-123.15625 128.902344-120.96875 68.996094 2.191406 123.160156 59.902344 120.972656 128.902344-2.1875 68.996094-59.902344 123.15625-128.902344 120.972656-69-2.195312-123.164062-59.902344-120.972656-128.90625zm93.355469-68.160156h-21.101563v20.523437h-20.8125v21.097657h20.8125v20.613281h-37.445312c-1.539063 1.515625-3.097656 3.015625-4.660156 4.511719v11.78125c1.605468 1.601562 3.210937 3.203124 4.808593 4.804687h37.296875v20.613281h-20.8125v21.097656h20.8125v19.210938h21.101563v-19.210938h60.535156v-13.503906c-3.492187-2.105468-6.675781-4.664062-9.484375-7.59375h-51.046875v-20.613281h39.65625c-.90625-3.589844-1.386719-7.339844-1.386719-11.203125 0-3.394531.378906-6.703125 1.074219-9.894531h-39.347656v-20.613281h49.839843c3.085938-3.480469 6.691407-6.488282 10.695313-8.90625v-12.191407h-60.535156zm87.828125 33.4375c-21.273438 0-38.53125 17.25-38.53125 38.527344 0 21.28125 17.257812 38.535156 38.53125 38.535156 21.28125 0 38.539062-17.253906 38.539062-38.535156 0-21.277344-17.257812-38.527344-38.539062-38.527344zm0 0" fill="#020202"/></svg>