<svg height="250" viewBox="0 0 250 250" width="250" xmlns="http://www.w3.org/2000/svg"><path d="m249.765625 125c0 68.90625-55.859375 124.765625-124.765625 124.765625s-124.765625-55.859375-124.765625-124.765625 55.859375-124.765625 124.765625-124.765625 124.765625 55.859375 124.765625 124.765625zm0 0" fill="#00bfff"/><path d="m132.683594 173.941406 64.726562-31.449218c-7.601562 31.539062-35.359375 55.542968-69.386718 56.921874-41.09375 1.671876-75.769532-30.289062-77.4375-71.386718-1.671876-41.097656 30.289062-75.769532 71.386718-77.441406 30.738282-1.25 57.882813 16.316406 70.316406 42.449218l-62.878906 30.550782-44.167968-19.023438c-3.59375-1.550781-7.765626.113281-9.320313 3.710938-1.550781 3.59375.113281 7.765624 3.710937 9.320312l47.144532 20.304688c.898437.386718 1.851562.578124 2.808594.578124 1.0625 0 2.121093-.234374 3.097656-.710937l64.460937-31.316406c1.277344 4.984375 2.050781 10.179687 2.269531 15.527343.050782 1.253907.070313 2.5.058594 3.746094l-70.0625 34.035156-44.167968-19.023437c-3.59375-1.550781-7.765626.113281-9.320313 3.710937-1.550781 3.59375.113281 7.765626 3.710937 9.320313l47.144532 20.304687c.898437.386719 1.851562.578126 2.808594.578126 1.0625.003906 2.121093-.234376 3.097656-.707032zm0 0" fill="#fff"/></svg>