<?xml version="1.0" encoding="utf-8"?>
<!-- Generator: Adobe Illustrator 25.3.1, SVG Export Plug-In . SVG Version: 6.00 Build 0)  -->
<svg version="1.1" id="Layer_1" xmlns="http://www.w3.org/2000/svg" xmlns:xlink="http://www.w3.org/1999/xlink" x="0px" y="0px"
	 viewBox="0 0 800 800" style="enable-background:new 0 0 800 800;" xml:space="preserve">
<style type="text/css">
	.st0{fill:#00BFFF;}
	.st1{fill:#FFFFFF;}
</style>
<circle class="st0" cx="400" cy="400" r="399.25"/>
<path class="st1" d="M424.59,556.61l207.12-100.63C607.39,556.9,518.56,633.71,409.68,638.13
	c-131.51,5.35-242.47-96.93-247.81-228.44c-5.35-131.51,96.93-242.47,228.44-247.82c98.37-3.99,185.23,52.22,225.01,135.84
	l-201.21,97.76L272.78,334.6c-11.51-4.96-24.86,0.36-29.83,11.87c-4.96,11.51,0.36,24.86,11.87,29.83l150.87,64.98
	c2.87,1.23,5.92,1.85,8.98,1.85c3.4,0,6.79-0.76,9.92-2.28l206.27-100.21c4.09,15.95,6.57,32.57,7.26,49.69
	c0.17,4.01,0.23,8,0.19,11.98L414.11,511.23l-141.33-60.88c-11.51-4.96-24.86,0.36-29.83,11.87c-4.96,11.51,0.36,24.86,11.87,29.83
	l150.87,64.98c2.87,1.23,5.92,1.85,8.98,1.85C418.07,558.89,421.46,558.13,424.59,556.61z"/>
</svg>
