<?xml version="1.0" encoding="UTF-8"?>
<svg width="240px" height="240px" viewBox="0 0 240 240" version="1.1" xmlns="http://www.w3.org/2000/svg" xmlns:xlink="http://www.w3.org/1999/xlink">
    <!-- Generator: Sketch 58 (84663) - https://sketch.com -->
    <title>Group 10</title>
    <desc>Created with Sketch.</desc>
    <g id="2.-Social-Assets-/-Medium" stroke="none" stroke-width="1" fill="none" fill-rule="evenodd">
        <g id="Group-10">
            <rect id="Rectangle-Copy-2" fill="#A0804D" x="0" y="0" width="240" height="240"></rect>
            <g id="Group-Copy-3" opacity="0.96" transform="translate(24.000000, 24.000000)">
                <path d="M96,186.244094 C145.842132,186.244094 186.244094,145.843461 186.244094,96 C186.244094,46.1565388 145.842132,5.75590551 96,5.75590551 C46.1578677,5.75590551 5.75590551,46.1565388 5.75590551,96 C5.75590551,145.843461 46.1578677,186.244094 96,186.244094 Z" id="Stroke-4" stroke="#FFFFFF" stroke-width="10"></path>
                <path d="M111.518135,96.7190173 C110.908876,100.50308 107.604057,103.405757 103.618923,103.405757 L88.3798677,103.405757 C83.9653795,103.405757 80.3718047,99.8439307 80.3718047,95.4642142 L80.3718047,88.7986394 L128.462513,88.7986394 L128.462513,71.4007181 C128.462513,57.8170961 117.317443,46.7672693 103.618923,46.7672693 L88.3798677,46.7672693 C74.681348,46.7672693 63.537789,57.8170961 63.537789,71.4007181 L63.537789,95.2570961 C63.537789,108.839206 74.681348,119.890545 88.3798677,119.890545 L103.618923,119.890545 C116.894135,119.890545 127.770104,109.710009 128.430765,96.7190173 L111.518135,96.7190173 Z M80.3718047,71.1784819 C80.3718047,66.8002772 83.9653795,63.2369386 88.3798677,63.2369386 L103.618923,63.2369386 C108.034923,63.2369386 111.628498,66.8002772 111.628498,71.1784819 L111.628498,73.385726 L80.3718047,73.385726 L80.3718047,71.1784819 Z" id="Fill-1" fill="#FFFFFF"></path>
                <polygon id="Fill-3" fill="#FFFFFF" points="63.5368819 145.233638 128.463118 145.233638 128.463118 129.34148 63.5368819 129.34148"></polygon>
            </g>
        </g>
    </g>
</svg>