<svg width="32" height="32" viewBox="0 0 32 32" fill="none" xmlns="http://www.w3.org/2000/svg">
<path fill-rule="evenodd" clip-rule="evenodd" d="M23.2513 24.8C21.8344 24.8 20.6856 23.6537 20.6856 22.24V21.6C20.6856 21.2467 20.973 20.96 21.327 20.96H30.8078C31.089 20.96 31.3424 20.7782 31.4216 20.5085C31.6134 19.8563 31.7651 19.1872 31.8728 18.5033C31.9344 18.1136 31.633 17.76 31.2375 17.76H18.4407C17.0238 17.76 15.875 16.6137 15.875 15.2V14.56C15.875 14.2067 16.1624 13.92 16.5164 13.92H31.1817C31.5823 13.92 31.8854 13.5574 31.8148 13.1641C31.692 12.4796 31.5265 11.8102 31.3193 11.1587C31.2356 10.8956 30.9861 10.72 30.7093 10.72H13.63C12.2132 10.72 11.0644 9.57371 11.0644 8.15994V7.51994C11.0644 7.16666 11.3517 6.87994 11.7058 6.87994H27.9153C28.4576 6.87994 28.7565 6.24858 28.4114 5.83098C25.2948 2.05817 20.4823 -0.266956 15.1354 0.0245647C6.93849 0.471606 0.33256 7.17466 0.0124943 15.36C-0.343812 24.488 6.96671 32 16.0354 32C21.1728 32 25.7435 29.5882 28.678 25.8387C29.008 25.4169 28.71 24.8 28.1735 24.8H23.2513Z" fill="#2CAF51"/>
</svg>
