
<svg xmlns="http://www.w3.org/2000/svg" xmlns:xlink="http://www.w3.org/1999/xlink" width="250px" height="250px" viewBox="0 0 250 250" version="1.1">
<defs>
<radialGradient id="radial0" gradientUnits="userSpaceOnUse" cx="0.197" cy="0.16" fx="0.197" fy="0.16" r="0.555" gradientTransform="matrix(233.425781,0,0,233.425781,8.292969,8.265625)">
<stop offset="0" style="stop-color:rgb(46.666667%,100%,100%);stop-opacity:1;"/>
<stop offset="0.394" style="stop-color:rgb(52.941179%,89.411765%,100%);stop-opacity:1;"/>
<stop offset="0.861" style="stop-color:rgb(38.431373%,45.09804%,100%);stop-opacity:1;"/>
<stop offset="1" style="stop-color:rgb(58.039218%,40.784314%,100%);stop-opacity:1;"/>
</radialGradient>
<clipPath id="clip1">
  <path d="M 33 86 L 233 86 L 233 242 L 33 242 Z M 33 86 "/>
</clipPath>
<clipPath id="clip2">
  <path d="M 241.390625 116.398438 C 246.140625 180.679688 197.878906 236.644531 133.597656 241.394531 C 69.3125 246.144531 13.351562 197.882812 8.601562 133.597656 C 3.851562 69.316406 52.113281 13.351562 116.394531 8.601562 C 180.679688 3.851562 236.640625 52.113281 241.390625 116.398438 Z M 241.390625 116.398438 "/>
</clipPath>
<radialGradient id="radial1" gradientUnits="userSpaceOnUse" cx="0.502" cy="0.478" fx="0.502" fy="0.478" r="0.554" gradientTransform="matrix(163.3969,-17.428304,20.15029,189.08066,39.563648,81.218738)">
<stop offset="0.497" style="stop-color:rgb(0%,100%,100%);stop-opacity:1;"/>
<stop offset="1" style="stop-color:rgb(0%,95.686275%,100%);stop-opacity:0;"/>
</radialGradient>
<linearGradient id="linear0" gradientUnits="userSpaceOnUse" x1="0.636" y1="0.506" x2="0.997" y2="0.764" gradientTransform="matrix(175.605469,0,0,160.648437,32.164063,47.050781)">
<stop offset="0" style="stop-color:rgb(35.294119%,15.294118%,92.941177%);stop-opacity:1;"/>
<stop offset="1" style="stop-color:rgb(67.058825%,21.568628%,95.686275%);stop-opacity:1;"/>
</linearGradient>
<linearGradient id="linear1" gradientUnits="userSpaceOnUse" x1="0.039" y1="0.245" x2="0.877" y2="0.957" gradientTransform="matrix(147.535156,0,0,43.855469,48.050781,159.253906)">
<stop offset="0" style="stop-color:rgb(46.27451%,9.411765%,95.686275%);stop-opacity:1;"/>
<stop offset="0.504" style="stop-color:rgb(34.117648%,37.254903%,97.254902%);stop-opacity:1;"/>
<stop offset="1" style="stop-color:rgb(3.529412%,100%,100%);stop-opacity:1;"/>
</linearGradient>
<linearGradient id="linear2" gradientUnits="userSpaceOnUse" x1="0.17" y1="0.498" x2="0.918" y2="0.744" gradientTransform="matrix(138.070312,0,0,42.445312,64.054687,60.882813)">
<stop offset="0" style="stop-color:rgb(49.803922%,29.803923%,100%);stop-opacity:1;"/>
<stop offset="1" style="stop-color:rgb(18.82353%,58.431375%,100%);stop-opacity:1;"/>
</linearGradient>
<linearGradient id="linear3" gradientUnits="userSpaceOnUse" x1="0.14" y1="0.056" x2="0.791" y2="1.241" gradientTransform="matrix(138.183594,0,0,42.449219,64.78125,113.621094)">
<stop offset="0" style="stop-color:rgb(49.803922%,32.156864%,100%);stop-opacity:1;"/>
<stop offset="1" style="stop-color:rgb(18.82353%,58.823532%,100%);stop-opacity:1;"/>
</linearGradient>
<linearGradient id="linear4" gradientUnits="userSpaceOnUse" x1="0.81" y1="0.81" x2="0.575" y2="0.511" gradientTransform="matrix(170.503906,0,0,134.136719,34.238281,48.707031)">
<stop offset="0" style="stop-color:rgb(100%,100%,100%);stop-opacity:1;"/>
<stop offset="0.157" style="stop-color:rgb(98.431373%,100%,100%);stop-opacity:1;"/>
<stop offset="0.319" style="stop-color:rgb(93.725491%,100%,100%);stop-opacity:1;"/>
<stop offset="0.483" style="stop-color:rgb(85.490197%,100%,100%);stop-opacity:1;"/>
<stop offset="0.648" style="stop-color:rgb(74.117649%,100%,99.607843%);stop-opacity:1;"/>
<stop offset="0.814" style="stop-color:rgb(59.607846%,100%,99.607843%);stop-opacity:1;"/>
<stop offset="0.979" style="stop-color:rgb(41.960785%,100%,99.215686%);stop-opacity:1;"/>
<stop offset="1" style="stop-color:rgb(39.607844%,100%,99.215686%);stop-opacity:1;"/>
</linearGradient>
<linearGradient id="linear5" gradientUnits="userSpaceOnUse" x1="0.126" y1="0.992" x2="0.692" y2="-0.06" gradientTransform="matrix(155.511719,0,0,144.878906,28.273438,21.808594)">
<stop offset="0" style="stop-color:rgb(100%,100%,100%);stop-opacity:0;"/>
<stop offset="0.515" style="stop-color:rgb(90.196079%,100%,100%);stop-opacity:1;"/>
<stop offset="1" style="stop-color:rgb(80.784315%,100%,100%);stop-opacity:0.502;"/>
</linearGradient>
<filter id="alpha" filterUnits="objectBoundingBox" x="0%" y="0%" width="100%" height="100%">
  <feColorMatrix type="matrix" in="SourceGraphic" values="0 0 0 0 1 0 0 0 0 1 0 0 0 0 1 0 0 0 1 0"/>
</filter>
<mask id="mask0">
  <g filter="url(#alpha)">
<rect x="0" y="0" width="250" height="250" style="fill:rgb(0%,0%,0%);fill-opacity:0.4;stroke:none;"/>
  </g>
</mask>
<linearGradient id="linear6" gradientUnits="userSpaceOnUse" x1="0" y1="0.5" x2="1" y2="0.5" gradientTransform="matrix(181.859375,0,0,149.230469,8.289063,8.226563)">
<stop offset="0" style="stop-color:rgb(100%,100%,100%);stop-opacity:1;"/>
<stop offset="0.867" style="stop-color:rgb(100%,100%,100%);stop-opacity:0.306;"/>
<stop offset="1" style="stop-color:rgb(100%,100%,100%);stop-opacity:0.2;"/>
</linearGradient>
<clipPath id="clip3">
  <rect x="0" y="0" width="250" height="250"/>
</clipPath>
<g id="surface5" clip-path="url(#clip3)">
<path style=" stroke:none;fill-rule:nonzero;fill:url(#linear6);" d="M 124.902344 8.226562 C 88.265625 8.433594 53.832031 25.75 31.820312 55.035156 C 9.808594 84.320312 2.746094 122.207031 12.730469 157.457031 C 12.730469 157.457031 12.679688 156.332031 12.613281 154.28125 C 12.242188 142.082031 13.816406 97.195312 36.726562 101.105469 C 59.636719 105.015625 93.171875 111.800781 132.851562 100.863281 C 172.53125 89.921875 204.160156 52.816406 183.777344 24.164062 C 183.78125 24.164062 159.914062 8.226562 124.902344 8.226562 Z M 124.902344 8.226562 "/>
</g>
</defs>
<g id="surface1">
<path style=" stroke:none;fill-rule:nonzero;fill:url(#radial0);" d="M 241.71875 124.980469 C 241.71875 189.4375 189.464844 241.691406 125.007812 241.691406 C 60.550781 241.691406 8.292969 189.4375 8.292969 124.980469 C 8.292969 60.519531 60.546875 8.265625 125.003906 8.265625 C 189.464844 8.265625 241.71875 60.519531 241.71875 124.980469 Z M 241.71875 124.980469 "/>
<g clip-path="url(#clip1)" clip-rule="nonzero">
<g clip-path="url(#clip2)" clip-rule="nonzero">
<path style=" stroke:none;fill-rule:nonzero;fill:url(#radial1);" d="M 201.585938 88.382812 C 217.664062 103.984375 229.90625 123.5 232.386719 146.84375 C 237.847656 198.253906 197.863281 244.636719 143.078125 250.457031 C 88.292969 256.28125 39.457031 219.320312 34 167.914062 C 28.539062 116.507812 59.519531 119.992188 114.296875 114.171875 C 144.191406 111.003906 191.847656 78.929688 201.585938 88.382812 Z M 201.585938 88.382812 "/>
</g>
</g>
<path style=" stroke:none;fill-rule:nonzero;fill:url(#linear0);" d="M 207.167969 98.421875 L 207.050781 96.917969 L 187.9375 96.917969 L 207.175781 80.472656 L 207.144531 79.679688 C 206.746094 68.414062 203.363281 57.457031 197.335938 47.929688 L 196.875 47.050781 L 93.652344 47.050781 C 83.902344 47.050781 64.960938 50.066406 51.054688 65.617188 C 44.992188 72.398438 32 92.753906 32.164062 115.585938 C 32.261719 128.433594 33.507812 138.421875 38.359375 149.601562 C 40.65625 154.96875 43.40625 160.128906 46.570312 165.03125 C 56.367188 182.601562 67.042969 194.835938 78.304688 201.394531 C 87.84375 206.945312 96.289062 207.699219 103.296875 207.699219 L 161.804688 207.699219 L 162.152344 207.503906 C 162.347656 207.40625 181.488281 197.398438 198.773438 186.898438 L 199.277344 186.59375 L 199.472656 186.054688 C 199.53125 185.886719 199.59375 185.726562 199.652344 185.570312 C 199.796875 185.238281 199.925781 184.898438 200.03125 184.550781 C 202.160156 178.453125 203.9375 165.34375 204.796875 158.097656 C 205.144531 155.453125 205.34375 153.714844 205.34375 153.703125 L 205.5625 151.886719 L 205.492188 151.886719 L 205.640625 150.421875 L 185.21875 150.421875 L 207.113281 133.84375 L 207.175781 133.117188 C 208.511719 116.988281 207.175781 98.609375 207.167969 98.421875 Z M 207.167969 98.421875 "/>
<path style=" stroke:none;fill-rule:nonzero;fill:rgb(100%,100%,100%);fill-opacity:1;" d="M 121.21875 170.15625 C 121.21875 170.15625 102.042969 172 45.519531 157.246094 C 68.582031 202.230469 90.179688 204.679688 106.25 204.679688 L 161.105469 204.679688 C 161.105469 204.679688 179.328125 194.800781 196.613281 184.304688 Z M 121.21875 170.15625 "/>
<path style=" stroke:none;fill-rule:nonzero;fill:url(#linear1);" d="M 106.257812 203.105469 C 99.332031 203.105469 89.605469 203.160156 79.957031 196.871094 C 63.179688 185.933594 57.640625 177.3125 48.050781 159.253906 C 91.144531 170.316406 111.8125 171.542969 118.777344 171.542969 C 120.046875 171.542969 120.816406 171.5 121.160156 171.472656 L 195.585938 183.539062 C 180.335938 192.652344 162.339844 202.023438 160.269531 203.109375 L 106.257812 203.109375 Z M 106.257812 203.105469 "/>
<path style=" stroke:none;fill-rule:nonzero;fill:rgb(100%,100%,100%);fill-opacity:1;" d="M 84.949219 152.582031 C 84.949219 152.582031 75.679688 141.839844 72.449219 133.679688 L 177.289062 152.582031 L 204.160156 132.234375 C 204.128906 115.542969 204.058594 99.574219 204.058594 99.574219 L 72.453125 99.574219 C 72.453125 99.574219 77.101562 86.242188 85.484375 80.941406 L 181.480469 98.875 L 204.136719 79.496094 C 203.222656 61.269531 194.496094 50.164062 194.496094 50.164062 L 93.179688 50.164062 C 84.335938 50.164062 66.265625 52.117188 52.652344 67.335938 C 39.042969 82.554688 26.914062 116.476562 39.964844 148.082031 C 53.21875 180.183594 70.425781 184.304688 80.148438 184.304688 L 196.621094 184.304688 C 196.78125 183.835938 197.011719 183.398438 197.167969 182.851562 C 199.96875 173.371094 202.371094 152.589844 202.371094 152.589844 L 84.949219 152.589844 Z M 84.949219 152.582031 "/>
<path style=" stroke:none;fill-rule:nonzero;fill:url(#linear2);" d="M 112.964844 60.882812 C 112.964844 60.882812 75.128906 68.257812 73.28125 69.183594 C 71.4375 70.105469 64.054688 103.328125 64.054688 103.328125 L 173.945312 103.328125 L 202.125 79.496094 Z M 112.964844 60.882812 "/>
<path style=" stroke:none;fill-rule:nonzero;fill:url(#linear3);" d="M 113.683594 113.621094 C 113.683594 113.621094 75.847656 121.003906 74.007812 121.929688 C 72.171875 122.855469 64.78125 156.070312 64.78125 156.070312 L 170.617188 156.070312 L 202.964844 131.644531 Z M 113.683594 113.621094 "/>
<path style=" stroke:none;fill-rule:nonzero;fill:url(#linear4);" d="M 204.164062 132.234375 L 72.554688 132.234375 C 75.785156 140.402344 85.054688 151.136719 85.054688 151.136719 L 202.480469 151.136719 C 202.480469 151.136719 200.171875 174.308594 197.171875 182.84375 L 83.695312 182.84375 C 69.230469 182.84375 53.679688 178 40.070312 146.628906 C 26.460938 115.253906 39.152344 81.101562 52.761719 65.878906 C 66.371094 50.660156 84.441406 48.707031 93.28125 48.707031 L 194.601562 48.707031 C 194.601562 48.707031 203.371094 60.8125 204.136719 79.496094 L 85.589844 79.496094 C 77.210938 84.800781 72.554688 98.128906 72.554688 98.128906 L 204.15625 98.128906 C 204.933594 109.484375 204.933594 120.878906 204.164062 132.234375 Z M 204.164062 132.234375 "/>
<path style=" stroke:none;fill-rule:nonzero;fill:url(#linear5);" d="M 183.785156 41.066406 C 183.785156 41.066406 138.003906 22.902344 96.6875 46.269531 C 60.476562 66.753906 19.40625 99.492188 49.910156 166.6875 C 22.351562 127.367188 22.054688 95.414062 43.699219 61.9375 C 64.15625 30.292969 124.375 1.441406 183.785156 41.066406 Z M 183.785156 41.066406 "/>
<use xlink:href="#surface5" mask="url(#mask0)"/>
<path style=" stroke:none;fill-rule:nonzero;fill:rgb(100%,100%,100%);fill-opacity:1;" d="M 105.851562 49.335938 C 108.695312 56.574219 98.988281 65.234375 86.832031 67.886719 C 74.675781 70.535156 62.425781 66.5625 60.277344 59.097656 C 56.867188 47.242188 68.691406 43.023438 80.847656 40.382812 C 93.003906 37.738281 100.136719 34.78125 105.851562 49.335938 Z M 105.851562 49.335938 "/>
</g>
</svg>
