<svg height="250" viewBox="0 0 250 250" width="250" xmlns="http://www.w3.org/2000/svg" xmlns:xlink="http://www.w3.org/1999/xlink"><linearGradient id="a" gradientUnits="userSpaceOnUse" x1="2.445133803" x2="247.3568892003" y1="1.3916406239" y2="248.40866988297"><stop offset="0" stop-color="#e27640"/><stop offset="1" stop-color="#fe2f51"/></linearGradient><clipPath id="b"><path d="m159 152h20v13h-20zm0 0"/></clipPath><clipPath id="c"><path d="m163.203125 152.941406 17.21875 12.566406c-.90625-.660156-2.097656-.953124-3.425781-.742187l-17.214844-12.566406c1.324219-.210938 2.515625.082031 3.421875.742187zm0 0"/></clipPath><clipPath id="d"><path d="m161 152h19v14h-19zm0 0"/></clipPath><clipPath id="e"><path d="m163.203125 152.941406 17.21875 12.566406c-.90625-.660156-2.097656-.953124-3.425781-.742187l-17.214844-12.566406c1.324219-.210938 2.515625.082031 3.421875.742187zm0 0"/></clipPath><clipPath id="f"><path d="m162 152h19v14h-19zm0 0"/></clipPath><clipPath id="g"><path d="m163.203125 152.941406 17.21875 12.566406c-.90625-.660156-2.097656-.953124-3.425781-.742187l-17.214844-12.566406c1.324219-.210938 2.515625.082031 3.421875.742187zm0 0"/></clipPath><clipPath id="h"><path d="m121 158h18v13h-18zm0 0"/></clipPath><clipPath id="i"><path d="m138.359375 170.714844-17.214844-12.566406c.101563.074218.25.128906.449219.097656l17.214844 12.566406c-.199219.03125-.34375-.023438-.449219-.097656zm0 0"/></clipPath><clipPath id="j"><path d="m65 194h20v20h-20zm0 0"/></clipPath><clipPath id="k"><path d="m84.511719 213.4375-17.214844-12.566406c-.496094-.363282-.917969-.84375-1.242187-1.425782-.921876-1.675781-.816407-3.804687.277343-5.710937l17.214844 12.570313c-1.09375 1.902343-1.199219 4.035156-.277344 5.707031.324219.585937.746094 1.066406 1.242188 1.425781zm0 0"/></clipPath><clipPath id="l"><path d="m65 193h19v15h-19zm0 0"/></clipPath><clipPath id="m"><path d="m84.511719 213.4375-17.214844-12.566406c-.496094-.363282-.917969-.84375-1.242187-1.425782-.921876-1.675781-.816407-3.804687.277343-5.710937l17.214844 12.570313c-1.09375 1.902343-1.199219 4.035156-.277344 5.707031.324219.585937.746094 1.066406 1.242188 1.425781zm0 0"/></clipPath><clipPath id="n"><path d="m66 193h18v14h-18zm0 0"/></clipPath><clipPath id="o"><path d="m84.511719 213.4375-17.214844-12.566406c-.496094-.363282-.917969-.84375-1.242187-1.425782-.921876-1.675781-.816407-3.804687.277343-5.710937l17.214844 12.570313c-1.09375 1.902343-1.199219 4.035156-.277344 5.707031.324219.585937.746094 1.066406 1.242188 1.425781zm0 0"/></clipPath><clipPath id="p"><path d="m107 121h18v14h-18zm0 0"/></clipPath><clipPath id="q"><path d="m124.789062 134.488281-17.214843-12.566406c.667969-1.179687.695312-2.636719.066406-3.703125l17.214844 12.566406c.628906 1.070313.601562 2.523438-.066407 3.703125zm0 0"/></clipPath><clipPath id="r"><path d="m107 121h19v14h-19zm0 0"/></clipPath><clipPath id="s"><path d="m124.789062 134.488281-17.214843-12.566406c.667969-1.179687.695312-2.636719.066406-3.703125l17.214844 12.566406c.628906 1.070313.601562 2.523438-.066407 3.703125zm0 0"/></clipPath><clipPath id="t"><path d="m162 35h20v14h-20zm0 0"/></clipPath><clipPath id="u"><path d="m165.492188 36.703125 17.214843 12.566406c-.90625-.660156-2.097656-.953125-3.421875-.742187l-17.214844-12.566406c1.324219-.210938 2.515626.082031 3.421876.742187zm0 0"/></clipPath><clipPath id="v"><path d="m163 35h19v14h-19zm0 0"/></clipPath><clipPath id="w"><path d="m165.492188 36.703125 17.214843 12.566406c-.90625-.660156-2.097656-.953125-3.421875-.742187l-17.214844-12.566406c1.324219-.210938 2.515626.082031 3.421876.742187zm0 0"/></clipPath><clipPath id="x"><path d="m164 36h19v14h-19zm0 0"/></clipPath><clipPath id="y"><path d="m165.492188 36.703125 17.214843 12.566406c-.90625-.660156-2.097656-.953125-3.421875-.742187l-17.214844-12.566406c1.324219-.210938 2.515626.082031 3.421876.742187zm0 0"/></clipPath><clipPath id="z"><path d="m165 36h18v14h-18zm0 0"/></clipPath><clipPath id="A"><path d="m165.492188 36.703125 17.214843 12.566406c-.90625-.660156-2.097656-.953125-3.421875-.742187l-17.214844-12.566406c1.324219-.210938 2.515626.082031 3.421876.742187zm0 0"/></clipPath><path d="m0 0h250v250h-250z" fill="url(#a)"/><g clip-path="url(#b)"><g clip-path="url(#c)"><path d="m176.996094 164.765625-17.214844-12.570313c.628906-.097656 1.226562-.085937 1.78125.027344l17.214844 12.566406c-.554688-.109374-1.152344-.125-1.78125-.023437" fill="#b3b3b3"/></g></g><g clip-path="url(#d)"><g clip-path="url(#e)"><path d="m178.777344 164.789062-17.21875-12.566406c.269531.054688.523437.132813.769531.230469l17.214844 12.566406c-.246094-.097656-.5-.175781-.765625-.230469" fill="#adadad"/></g></g><g clip-path="url(#f)"><g clip-path="url(#g)"><path d="m179.542969 165.019531-17.214844-12.566406c.1875.078125.371094.167969.542969.269531l17.21875 12.566406c-.175782-.101562-.359375-.191406-.546875-.269531" fill="#a8a8a8"/><path d="m180.089844 165.289062-17.21875-12.566406c.117187.066406.226562.140625.335937.21875l17.214844 12.566406c-.109375-.078124-.21875-.152343-.332031-.21875" fill="#a3a3a3"/></g></g><path d="m138.808594 170.8125-17.214844-12.566406 38.1875-6.046875 17.214844 12.566406zm0 0" fill="#c1c1c1"/><g clip-path="url(#h)"><g clip-path="url(#i)"><path d="m138.359375 170.714844-17.214844-12.566406c.015625.007812.03125.019531.046875.03125l17.214844 12.566406c-.015625-.011719-.03125-.019532-.046875-.03125" fill="#a3a3a3"/><path d="m138.40625 170.746094-17.214844-12.566406c.023438.011718.046875.023437.074219.035156l17.214844 12.566406c-.027344-.011719-.050781-.023438-.074219-.035156" fill="#a8a8a8"/><path d="m138.480469 170.78125-17.214844-12.566406c.027344.007812.0625.019531.09375.027344l17.21875 12.566406c-.039063-.003906-.070313-.015625-.097656-.027344" fill="#adadad"/><path d="m138.578125 170.808594-17.21875-12.566406c.070313.015624.148437.015624.234375.003906l17.214844 12.566406c-.089844.015625-.164063.011719-.230469-.003906" fill="#b3b3b3"/></g></g><path d="m84.511719 213.4375-17.214844-12.566406c-.496094-.363282-.917969-.84375-1.242187-1.425782-.921876-1.675781-.816407-3.804687.277343-5.710937l17.214844 12.570313c-1.09375 1.902343-1.199219 4.035156-.277344 5.707031.324219.585937.746094 1.066406 1.242188 1.425781zm0 0" fill="#afaea9"/><g clip-path="url(#j)"><g clip-path="url(#k)"><path d="m84.511719 213.4375-17.214844-12.566406c-.496094-.363282-.917969-.84375-1.242187-1.425782-.761719-1.390624-.824219-3.09375-.195313-4.722656l17.214844 12.570313c-.628907 1.625-.566407 3.328125.195312 4.71875.324219.585937.746094 1.066406 1.242188 1.425781" fill="#afaea9"/></g></g><g clip-path="url(#l)"><g clip-path="url(#m)"><path d="m83.074219 207.289062-17.214844-12.566406c.101563-.265625.222656-.53125.359375-.789062l17.214844 12.566406c-.136719.261719-.257813.527344-.359375.789062" fill="#afaea9"/></g></g><g clip-path="url(#n)"><g clip-path="url(#o)"><path d="m83.433594 206.5-17.214844-12.566406c.035156-.066406.074219-.132813.113281-.199219l17.214844 12.566406c-.039063.066407-.078125.132813-.113281.199219" fill="#afaea9"/></g></g><path d="m83.546875 206.300781-17.21875-12.566406 41.246094-71.8125 17.214843 12.566406zm0 0" fill="#bebdb8"/><path d="m124.789062 134.488281-17.214843-12.566406c.667969-1.179687.695312-2.636719.066406-3.703125l17.214844 12.566406c.628906 1.070313.601562 2.523438-.066407 3.703125zm0 0" fill="#93928d"/><g clip-path="url(#p)"><g clip-path="url(#q)"><path d="m124.789062 134.488281-17.214843-12.566406c.015625-.027344.03125-.058594.046875-.085937l17.21875 12.566406c-.019532.027344-.035156.054687-.050782.085937" fill="#9c9b96"/></g></g><g clip-path="url(#r)"><g clip-path="url(#s)"><path d="m124.839844 134.402344-17.21875-12.570313c.078125-.144531.148437-.292969.207031-.445312l17.214844 12.566406c-.058594.152344-.128907.304687-.203125.449219" fill="#9c9b96"/></g></g><g clip-path="url(#t)"><g clip-path="url(#u)"><path d="m179.285156 48.527344-17.214844-12.570313c.628907-.097656 1.226563-.085937 1.777344.027344l17.21875 12.566406c-.550781-.109375-1.152344-.125-1.78125-.023437" fill="#b3b3b3"/></g></g><g clip-path="url(#v)"><g clip-path="url(#w)"><path d="m181.066406 48.550781-17.21875-12.566406c.269532.050781.523438.132813.769532.230469l17.214843 12.566406c-.242187-.097656-.5-.175781-.765625-.230469" fill="#adadad"/></g></g><g clip-path="url(#x)"><g clip-path="url(#y)"><path d="m181.832031 48.78125-17.214843-12.566406c.1875.078125.371093.167968.542968.269531l17.214844 12.566406c-.171875-.101562-.355469-.191406-.542969-.269531" fill="#a8a8a8"/></g></g><g clip-path="url(#z)"><g clip-path="url(#A)"><path d="m182.375 49.050781-17.214844-12.566406c.117188.066406.226563.140625.332032.21875l17.214843 12.566406c-.105469-.078125-.214843-.152343-.332031-.21875" fill="#a3a3a3"/></g></g><path d="m124.855469 130.785156-17.214844-12.566406-38.5625-58.976562 17.214844 12.566406zm0 0" fill="#9c9b98"/><path d="m90.953125 62.515625-17.21875-12.566406 88.335937-13.988281 17.214844 12.566406zm0 0" fill="#c1c1c1"/><path d="m179.285156 48.527344c2.992188-.476563 5.285156 1.601562 5.222656 4.726562l-.496093 24.253906c-.066407 3.128907-2.457031 5.949219-5.449219 6.421876l-38.101562 6.035156c-.347657.054687-.519532.289062-.59375.425781-.136719.261719-.136719.5625-.003907.808594l21.425781 32.742187c1.132813 1.605469 1.085938 3.96875-.117187 6.035156l-22.953125 39.839844c-.1875.300782-.105469.554688-.039062.683594.046874.089844.226562.371094.628906.308594l38.1875-6.050782c2.992187-.472656 5.285156 1.605469 5.222656 4.726563l-.496094 24.257813c-.0625 3.125-2.457031 5.945312-5.445312 6.417968l-88.421875 14.003906c-1.953125.308594-3.664063-.496093-4.582031-2.160156-.921876-1.675781-.816407-3.808594.273437-5.710937l41.246094-71.8125c.667969-1.179688.695312-2.636719.066406-3.703125l-38.5625-58.976563c-1.019531-1.566406-1.039063-3.683593-.042969-5.660156.992188-1.96875 2.75-3.324219 4.703125-3.632813zm0 0" fill="#ededed"/><path d="m86.070312 71.429688c-.035156-.066407-.066406-.132813-.097656-.199219-.019531-.039063-.035156-.078125-.050781-.121094-.027344-.0625-.054687-.125-.078125-.1875-.015625-.039063-.027344-.082031-.046875-.125-.019531-.0625-.039063-.125-.0625-.1875-.011719-.042969-.023437-.089844-.039063-.132813-.015624-.066406-.03125-.128906-.046874-.195312-.007813-.042969-.019532-.085938-.03125-.132812-.011719-.066407-.023438-.136719-.035157-.203126-.007812-.042968-.015625-.085937-.023437-.128906-.007813-.078125-.015625-.15625-.023438-.230468-.003906-.039063-.007812-.070313-.007812-.105469-.007813-.113281-.015625-.230469-.015625-.34375 0-.003907 0-.011719 0-.019531 0-.109376.003906-.21875.007812-.328126.003907-.039062.007813-.078124.011719-.117187.003906-.078125.011719-.15625.019531-.234375.003907-.046875.011719-.09375.019531-.136719.007813-.070312.019532-.144531.03125-.21875.007813-.046875.019532-.097656.027344-.144531.015625-.070312.027344-.140625.046875-.210938.011719-.046874.023438-.097656.039063-.148437.015625-.070313.035156-.140625.054687-.210937.015625-.050782.027344-.097657.046875-.148438.023438-.074219.046875-.144531.074219-.21875.015625-.046875.03125-.09375.046875-.136719.03125-.078125.0625-.160156.097656-.238281.015625-.039062.03125-.078125.046875-.117188.050781-.117187.109375-.238281.167969-.355468.046875-.09375.09375-.179688.144531-.269532.027344-.050781.054688-.097656.085938-.148437.039062-.066406.078125-.128906.117187-.191406.03125-.046875.058594-.089844.085938-.136719.023437-.03125.046875-.0625.070312-.097656.101563-.148438.207032-.292969.316406-.433594.015626-.015625.027344-.035156.042969-.054688.113281-.136718.230469-.273437.355469-.402343l.085938-.085938c.121093-.125.25-.25.378906-.363281.003906-.003906.007812-.003906.011718-.007812.003907-.003907.011719-.007813.015626-.015626.082031-.070312.167968-.140624.257812-.210937.027344-.019531.058594-.042969.089844-.066406.0625-.046875.125-.089844.1875-.136719.046875-.027344.085937-.058594.132812-.085938.054688-.039062.113282-.078124.171875-.113281.042969-.027343.089844-.054687.132813-.078125.050781-.03125.101562-.058594.15625-.085937.078125-.042969.152344-.082031.230468-.121094.046876-.023437.09375-.046875.144532-.066406.082031-.039063.164062-.074219.25-.109375.042968-.015625.089844-.039063.132812-.054688.035156-.011718.070313-.023437.101563-.035156.074219-.023438.148437-.050781.222656-.074219.039063-.011719.078125-.023437.113281-.035156.078125-.019531.15625-.039063.230469-.058594.035156-.007812.070313-.015625.101563-.023437.113281-.027344.222656-.046875.335937-.066406l-17.21875-12.566407c-.109375.015625-.21875.039063-.332031.0625-.035156.007813-.070313.015625-.101563.027344-.078125.019531-.152343.039063-.230469.058594-.035156.011719-.074218.023437-.113281.035156-.074219.023437-.148437.050781-.222656.074219-.03125.011718-.066406.023437-.101563.035156-.011718.003906-.027343.007812-.039062.015625-.035156.011719-.066406.027344-.097656.039063-.085938.035156-.167969.070312-.25.105468-.046875.023438-.09375.046875-.140625.070313-.078125.035156-.15625.078125-.234375.117187-.023438.015625-.050782.027344-.074219.042969-.027344.011719-.050781.03125-.078125.042969-.046875.027344-.089844.054687-.132812.082031-.058594.039063-.117188.074219-.175782.113281-.042968.027344-.085937.054688-.128906.085938-.019531.015625-.042969.027344-.0625.042968-.042969.03125-.085938.0625-.125.09375-.03125.023438-.0625.042969-.089844.066407-.085937.066406-.171875.136719-.257812.210937-.003906.003906-.011719.007813-.015625.011719 0 0-.003907 0-.003907.003906-.003906 0-.003906.003907-.007812.003907-.128906.117187-.257812.238281-.378906.363281-.019532.015625-.035156.03125-.050782.046875-.011718.011718-.023437.027344-.035156.039062-.125.132813-.242187.261719-.355468.40625-.003907.003906-.007813.007813-.011719.011719-.007813.011719-.019531.027344-.027344.039063-.113281.140624-.21875.285156-.316406.433593-.011719.019531-.027344.035157-.039063.054688-.011718.011719-.019531.027343-.03125.042969-.027344.042968-.054687.089843-.082031.132812-.042969.066406-.082031.128906-.121094.195312-.027343.050782-.054687.097657-.085937.144532-.019532.039062-.042969.078125-.0625.113281-.027344.050781-.054688.105469-.082032.15625-.058593.117187-.113281.238281-.167968.355469-.015625.039062-.03125.078125-.046875.117187-.027344.066407-.054688.128907-.082031.195313-.003907.015625-.007813.03125-.015626.042968-.015624.046876-.03125.09375-.046874.136719-.027344.074219-.050782.144531-.074219.21875-.015625.050781-.03125.097657-.046875.148438-.019532.070312-.039063.140625-.054688.210937-.011718.050782-.027344.101563-.039062.148438-.015625.070312-.03125.140625-.046875.210937-.007813.046875-.015625.097657-.027344.144531-.011719.074219-.023437.144532-.03125.214844-.007813.046875-.015625.09375-.019531.140625-.007813.078125-.011719.15625-.019532.234375-.003906.039063-.007812.078125-.011718.117188-.003906.113281-.007813.21875-.007813.328125v.019531c0 .117188.007813.230469.015625.34375 0 .035156.003906.070312.011719.109375.003906.074219.011719.152344.023437.226563.007813.042968.015626.085937.019532.128906.011718.070312.023437.136718.039062.207031.007813.042969.019532.089844.03125.132813.011719.066406.027344.128906.046875.191406.011719.042968.027344.089844.039063.132812.019531.0625.039062.125.0625.1875.015625.042969.03125.085938.046875.128906.023437.0625.050781.125.078125.1875.015625.039063.03125.078126.050781.117188.027344.066406.0625.136719.097656.199219.015625.035156.03125.066406.050781.097656.054688.097656.109376.191406.171876.285156l17.214843 12.566407c-.058593-.089844-.117187-.1875-.171875-.285157-.023437-.027343-.039062-.058593-.058594-.089843zm0 0" fill="#c6c5c0"/></svg>