<svg height="250" viewBox="0 0 250 250" width="250" xmlns="http://www.w3.org/2000/svg"><path d="m245.9375 124.25c0 66.859375-54.203125 121.0625-121.0625 121.0625s-121.0625-54.203125-121.0625-121.0625 54.203125-121.0625 121.0625-121.0625 121.0625 54.203125 121.0625 121.0625zm0 0" fill="#18103c"/><g fill="#2dbaa1"><path d="m90.3125 159.875c8.9375 0 17.875-3.375 24.6875-10.1875l5.125-5.125 14.6875-14.625 14.875-14.875c2.6875-2.6875 6.25-4.125 10-4.125s7.3125 1.5 10 4.125c2.6875 2.6875 4.125 6.25 4.125 10s-1.5 7.3125-4.125 10c-2.6875 2.6875-6.25 4.125-10 4.125s-7.3125-1.5-10-4.125l-5.125-5.125-4.875 4.875 5.125 5.125c4 4 9.25 6.1875 14.875 6.1875s10.9375-2.1875 14.875-6.1875c4-4 6.1875-9.25 6.1875-14.875s-2.1875-10.9375-6.1875-14.875c-4-4-9.25-6.1875-14.875-6.1875s-10.9375 2.1875-14.875 6.1875l-2.3125 2.3125-12.5 12.5625-14.75 14.5625-1.4375 1.4375-3.125 3.0625-.625.625c-10.875 10.875-28.625 10.875-39.5625 0-5.3125-5.3125-8.1875-12.3125-8.1875-19.75 0-7.5 2.9375-14.5 8.1875-19.75 5.3125-5.3125 12.3125-8.1875 19.75-8.1875 7.5 0 14.5 2.9375 19.75 8.1875l10 10-19.8125 19.8125c-2.6875 2.6875-6.25 4.125-10 4.125-2.4375 0-4.8125-.625-6.875-1.75l24.5625-24.5625-2.75-2.75c-.8125-.8125-1.6875-1.5-2.5625-2.1875-3.5625-2.5625-7.8125-4-12.3125-4-5.625 0-10.9375 2.1875-14.875 6.1875-4 4-6.1875 9.25-6.1875 14.875s2.1875 10.9375 6.1875 14.875c4 4 9.25 6.1875 14.875 6.1875s10.9375-2.1875 14.875-6.1875l24.625-24.625-14.75-14.9375c-13.625-13.625-35.6875-13.625-49.3125 0-6.5625 6.5625-10.1875 15.3125-10.1875 24.6875s3.625 18.0625 10.1875 24.6875c6.8125 6.75 15.6875 10.1875 24.625 10.1875zm-14.125-34.875c0-3.75 1.5-7.3125 4.125-10 2.6875-2.6875 6.25-4.125 10-4.125 2.625 0 5.1875.6875 7.375 2.0625l-19.4375 19.4375c-1.375-2.1875-2.0625-4.75-2.0625-7.375zm0 0"/><path d="m139.875 105.25c10.875-10.875 28.625-10.875 39.5625 0 5.3125 5.3125 8.1875 12.3125 8.1875 19.75 0 7.5-2.9375 14.5-8.1875 19.75-5.3125 5.3125-12.3125 8.1875-19.75 8.1875-7.5 0-14.5-2.9375-19.75-8.1875l-5.125-5.125-4.875 4.875 5.0625 5.0625c6.8125 6.8125 15.75 10.1875 24.6875 10.1875s17.875-3.375 24.6875-10.1875c6.5625-6.5625 10.1875-15.3125 10.1875-24.6875s-3.625-18.0625-10.1875-24.6875c-13.625-13.625-35.6875-13.625-49.3125 0l-5.125 5.125 4.875 4.875zm0 0"/></g></svg>