<?xml version="1.0" encoding="utf-8"?>
<!-- Generator: Adobe Illustrator 27.0.0, SVG Export Plug-In . SVG Version: 6.00 Build 0)  -->
<svg version="1.1" id="Layer_1" xmlns="http://www.w3.org/2000/svg" xmlns:xlink="http://www.w3.org/1999/xlink" x="0px" y="0px"
	 viewBox="0 0 1080 1080" style="enable-background:new 0 0 1080 1080;" xml:space="preserve">
<style type="text/css">
	.st0{fill:#F9DA0A;}
	.st1{fill:#090807;}
	.st2{fill:#FFFFFF;}
	.st3{fill:#DFE9EA;}
	.st4{fill:#030303;}
	.st5{fill:#0D0906;}
	.st6{fill:#DDE7E7;}
	.st7{fill:#090F07;}
	.st8{fill:#F5D815;}
	.st9{fill:#13A64B;}
	.st10{fill:#7E6044;}
	.st11{fill:#318E51;}
	.st12{fill:#E4D145;}
</style>
<rect x="0" y="0.5" class="st0" width="1080" height="1080"/>
<g>
	<ellipse class="st1" cx="488.6" cy="879.6" rx="108.2" ry="35.7"/>
	<circle class="st2" cx="546.2" cy="413.8" r="74.3"/>
	<circle class="st2" cx="645.2" cy="391.6" r="74.3"/>
	<g>
		<path d="M471.7,200c3.3-3.2,5.1-8.1,10.5-8.9c0.3,1.9-0.5,4.6,2.2,5.1c3.4,0.5,7.1-1.3,8.1-4c4-11,12.6-7.2,19.8-6.5
			c3.8,0.3,6.1,0.4,7.1-3.8c1.6-6.6,5.1-8.3,12.2-6.8c5.8,1.2,13.8,3.5,18.2-1.6c3.5-4,7.8-6.5,11.3-10.2c1.1-0.1,2.2-0.2,3.3-0.2
			c1.2,0,2.3,0,3.5,0c1.2,0.2,2.3,0.4,3.5,0.6c0.2,1.9-0.8,4.9,1.1,5.6c4.9,1.7,9.6,3.4,13,7.6c0.3,0.4,2.4,0.1,3.1-0.5
			c3-2.5,5.9-2.6,9.6-1.5c3.4,1.1,4.3-1.8,4.6-4.6l0.8,0.1l0.8-0.2c1.8,1.2,3.5,2.4,5.3,3.6c0,1.2,0,2.4,0,3.6c0,2.9,0,5.8,0,8.7
			c0,7.9,3.9,13.2,11.3,15.7c4.6,1.6,6.3,4.6,6.3,9.2c-0.1,4.9,1.5,8.3,7.4,8.5c4.2,0.1,7.5,2.6,6.3,7.4c-1.1,4.3-1.1,8.6-1.8,12.9
			c-1.4,8.4-9.8,11.7-16.8,7.4c-5.8-3.5-9.5,0.5-11.9,4.9c-1.4,2.5-0.3,6.3-0.8,9.4c-1,6-2.5,9.5-10.8,9.9
			c-11.6,0.5-22.4-7.2-34.3-1.6c-4.2,2-14.3-8-12.6,6.8c0.2,1.8-5.5,4.5-5.2,9c0.3,5.9-3.1,6.3-7.3,4.2c-3.8-1.9-8.3-4-11.6-1.9
			c-9.3,5.9-17.1-1-25.5-2c-2.8-0.3-7.1-2.7-7.7,0.1c-1.3,6-10.9,8.2-8.1,14c2.7,5.7,1,8-2.3,11.6c-2.7,2.9-1.7,7.1-2.2,10.9
			c-1.3,10.5,3,21.8-4.7,31.5c-1,1.2-0.6,4.2,0.2,5.9c7,13.9,1.8,21.8-10.9,29.4c-3.9,2.4-7.1,5.8-6.4,9.5
			c2.1,10.5-6.2,19.1-4.2,29.7c1,5.2-0.7,10.3,6.5,12c3.6,0.9,8.6,14.5,7.2,17.8c-0.7,1.7-1.9,1.8-3.5,1.3c-2.5-0.8-3,0.8-3.3,2.7
			l0,0c-6.2,1.4-16,1.2-13.2,10.5c3,10.1-0.5,8.6-7.4,7.5c-5.4-0.8-9.5,4.3-6.8,8c6.2,8.3,3,15.8,1.2,23.8c-0.6,2.7,0.6,6.7-3.3,7
			c-4.5,0.3-4.9-4.8-4.6-7c0.7-5.5-1.4-6.2-6-6.3c-4.9,0-9.1-3-11.7-6.8c-2.7-4,2.6-4.8,4.1-7.2c0.6-0.9,0.5-2.3,0.5-3.4
			c-0.2-6.5,1.3-12.7,4-18.5c3.2-6.8-1-12.7-4.9-15.9c-14.1-12.1-16.2-18-8.9-35.7c3.8-9.3-3.5-27.8-12.6-31.4
			c-4.1-1.6-5.3-3.8-4.4-8.7c1.8-10-5-19.6-15-22.6c0-1.2,0-2.3,0-3.5c4.5-0.3,9.4,1.2,13.4-1.8c8.5-6.4,11.7-26.3,5.9-36.6
			c0-0.6-0.1-1.2-0.1-1.8c8.7-3.2,5-7.8,1.3-12.3c0.2-1.1,0.4-2.3,0.7-3.4c6.1-0.7,9-5.2,7.8-10.2c-2.1-8.4,2-11.7,8.5-14.3
			c17.1-6.8,33.5-14.9,41.4-32.9c4.1-9.4,11-14.9,19.3-20.1C481.1,213.3,480.3,204.3,471.7,200z"/>
		<path class="st3" d="M464.9,866.6c0,0.5,0,0.9-0.1,1.4c-1.4,0.1-2.8,0.3-3.6,1.7c-7-0.3-12.6,4.4-19.2,5.6c-0.1-2.3,0.3-4.1,2.3-6
			c10-9.3,10.4-12.6,4.4-24.4c0-15.9,0-31.9,0.2-47.8c0-1.8-2.1-6.6,2.6-5.2c3.9,1.2,7.9,0.7,11.8,1.7c13.1,3.2,26.5,5.2,39.8,7.7
			c4.3,5.6,10.3,3.1,15.7,3.2c1.2,0,2.3-0.1,3.5-0.1c1.1,0.4,1.5,0,1.3-1.1c-0.1-1.1,0.2-2.4-0.3-3.2c-10-14.1-20.2-28.1-30.3-42.1
			c2.8-0.3,5.8,1.2,8.2-1.3c3-0.5,6.1-1,9.1-1.5c2.4,0.3,5.8,1.7,6.9-1c1.1-2.6-2.3-4.2-4.1-5.9c-0.7-0.7-2-0.8-3.1-1.2
			c-4.2-3.4-8.1-7.3-14-7.8c-2.1-3.5-5.7-2-8.7-2.7c-1.1-6-9.5-4.3-10.7-10.3c1.3-0.8,2.6-1.5,3.9-2.3c4.5-1.2,8.5-3.5,11.9-6.7
			c1.2,0.2,1.9,0,1.5-1.5c0.3-7.5-2.6-13.1-9.9-15.9c-0.3-3.4-3.7-3.6-5.5-5.4c-2.7-2.6-7.6-3.3-7.4-8.4c0.7-1.1,1.5-2.3,2.2-3.4
			c4-1.3,4.4-5.7,6.9-8.3c2.1-1.2,3.3-3.1,3.5-5.6c2.1-0.6,3.4-2.1,4-4.2c2-1.5,2.5-5.4,6.5-4.3c0.4,8.2-1.4,16.2,1,24.3
			c5.2,17.5,19.4,27.3,31.8,38.6c3.1,2.8,5-0.2,6.3-2.1c6.8-10.1,15.3-18.8,23.6-27.6c6.5-7,11.9-14.7,10.7-25.1
			c-0.2-1.5-0.9-3.8,1.1-4.6c2.6-1,3.5,1.5,4.6,3c4.1,5.6,8,11.3,12.1,16.8c5.8,7.6,11.1,7.2,14.6-1.6c1.6-3.9,3.1-8,2.5-12.6
			c-0.2-1.6-1.2-4.3,2.3-4.5c2.6-0.2,3.8,1.4,4.4,3.4c0.8,2.7,1.3,5.4,3.9,7.2c0,2.9,1.1,5.2,3.2,7.1c1.7,4.1,3.5,8.2,5.2,12.3
			c0.1,1.1,0.3,2.3,0.4,3.4c-2.4,4.1-4.8,8.2-7.3,12.3c-0.6,0.7-1.1,1.3-1.7,2c-2.3,1-3.8,2.5-4.2,5.1c-8,6.9-16,13.8-24,20.7
			c-1.3,0.4-3.2-0.3-3.4,1.9c-6.6,1.5-11.5,6.4-17.5,9c-4,1.5-5.1,3.6-1,6.3c4.1,2.7,8.6,2.5,13.2,1.9c3-0.1,5.4,3.5,8.7,1.7
			c0.7,0.7,1.4,1.4,2.2,2.1c-1.3,1.2-2.6,2.5-3.9,3.7c-1.2-0.3-1.7,0.4-1.8,1.5c-1.2,0.7-2.3,1.4-3.5,2.1c-1.3-0.4-1.9,0.4-2.3,1.4
			c-9.1,4.2-18.3,8.4-27.4,12.6c-1.2-0.4-1.7,0.2-1.9,1.3c-4.6,0.5-4.7,3.9-2.1,5.8c9.4,6.9,18.5,14.5,30.5,16.6
			c3.6,2.5,7.6,3.9,12,3.5c3.8,0.1,7.6,0.5,11.3,0.1c7-0.7,7.1,2.3,4.6,7.4c-4.3,8.8-8.5,17.7-13,27.3c6.6,0,11.9,0.5,17.8-0.8
			c12.1-2.9,23.3-8.6,35.4-11.3c1.2,0.3,1.7-0.3,2-1.4c0.6,0,1.1-0.1,1.5-0.4c2.2-1.4,5.5-0.1,7-3c1.7,0,3.4,0.1,5.1,0.1
			c-0.4,9.3,3.9,17.9,4.5,27c0.4,6.7,4.9,14.5-1.9,20.2c-16.8,14.1-37.3,19.3-58.5,22.4c-4.6,0.7-4.9-1.3-2.7-5.6
			c5-9.8,8.9-20.1,13.4-30.4c-9.3-1.2-17.8-0.9-25.7,2c-7.3,2.6-9.1,0.7-9.4-6.6c-0.4-9.5,1.4-19.1-2.2-28.4
			c-1.5-3.7-2.9-6.3-6.8-1.7c-4.8,5.8-10,11.2-15.1,16.7c-6.9,7.4-6.7,7.3-12.6-1.6c-6.5-9.7-12.1-20.1-20.7-28.2
			c-2.1-2-5-4.9-8.3-3.1c-3.1,1.7-4.4,4.7-4.6,8.7c-0.6,9.6-2.9,19-1.3,30c-16.4-10.4-31.4-20.2-50.6-15.6c0,4.6,3.8,7.9,4.6,12.3
			c-1.1-0.2-2.4-0.6-2.1,1.3c0,0.1,1.4,0,2.2,0c3,5.3,6.2,10.6,6.4,17C466.6,865.2,465.8,865.9,464.9,866.6z M458.5,863.8
			c-0.5-0.2-0.8-0.3-1.2-0.4c0.1,0.2,0.1,0.4,0.2,0.7C457.7,864,458,864,458.5,863.8z"/>
		<path class="st4" d="M493.2,758.1c10.1,14,20.3,28,30.3,42.1c0.5,0.8,0.2,2.1,0.3,3.2c-0.4,0.4-0.9,0.7-1.3,1.1
			c-1.2,0-2.3,0.1-3.5,0.1c-1.9-4.4-8-5.6-15.7-3.2c-13.3-2.5-26.7-4.5-39.8-7.7c-3.9-1-7.9-0.5-11.8-1.7c-4.7-1.5-2.6,3.4-2.6,5.2
			c-0.3,15.9-0.2,31.8-0.2,47.8c-1.6,0.7-2.2,2.8-5,1.7c-5.2-2.1-10.1-4.4-14.1-8.5c-0.6-0.5-1.3-1-1.9-1.5c-2-0.6-3.4-3-5.9-1.9
			c-5.4-6.2-5.3-13.7-3.9-21.1c0.7-3.8,0.7-6.1-3.6-6.8c-0.2-1.7-0.4-3.5-0.6-5.2c0.1-1.2,0.2-2.3,0.4-3.5c4.6-1.5,3.9-4,1.5-7
			c0.1-1.7,0.2-3.5,0.2-5.2c5.3-1.3,12.1-19.9,8.7-23.8c-0.6-0.7-2.2-0.5-3.3-0.7c0.5-2.3,1.1-4.6,1.6-7c1.7-0.3,3.3-0.9,2.9-3.1
			c-0.5-2.6-2.8-2-4.6-2.2c-0.2-0.5-0.3-1-0.4-1.5c-1.3-5.7-4.9-4.1-8.4-2.5c-11.9,1.4-23.2-3.7-35-3.5c-4.5-2.6-9.5-1-14.2-1.3
			c-2.6-0.2-3.8,0.8-3.1,3.5c-0.2,0.5-0.4,1.1-0.5,1.6c-2.3,1.1-3.5,2.7-3.4,5.4c0.5,15.8-5.1,31.2-3.7,47.1
			c-8.5,0.5-2.4-8.4-6.8-10.5c-0.1-1.2-0.2-2.3-0.3-3.5c0.2-3.4,0.3-6.8,0.5-10.2c1-0.3,1.8-0.7,1.4-2c0.1-12.7,3.2-25.3,2-38
			c-2.4-25.9,7-48.9,18.8-70.8c8.2-15.3,22.6-23.2,39.7-25.9c7.4-1.1,13.2-6.1,19.9-8.8c0.7-0.4,1.3-0.9,2-1.3
			c0.5-0.3,1-0.4,1.6-0.4c0.6-0.5,1.3-1,1.9-1.4c2.3-1.9,4.5-3.7,6.8-5.6c4-0.6,4.9-2.2,1.7-5.2c-0.1-2.1,1.2-3.7,2.5-5.1
			c6,0.7,8.1-2.7,8.3-8c0.1-1.7,0.2-3.6,2.4-3.8c2.2-0.2,2.6,1.7,2.9,3.4c-2.4,7.4-5.4,14.5-10.8,20.3c-1.5,1.6-1.9,2.8,0.2,4.1
			c0.2,1.1,0.3,2.4,1.7,2.5c0.3,0,1.1-0.8,1-0.9c-0.4-0.7-0.9-1.3-1.4-1.9c2.8-2.3,4.2-5.5,5.9-8.6c1.7-0.2,2.9-0.9,2.8-2.9l0.4-0.6
			c1.4,0.6,3.8,4.7,3.6-1c-0.1-1.7-0.1-3.4-0.1-5.1c0.1-2.2,2.8-3.6,1.8-6.1c2.5-6.3,4.7-12.9,10.2-17.5c0.2,5.2,0.3,10.3,0.5,15.5
			c0.4,0.6,0.8,1.3,1.2,1.9c0.7,2.2,1.3,4.4,2,6.6c-2.5,0.6-5.9,0.6-3.3,4.7c1,1.5,2.5,3.8,1.1,4.7c-8.5,5.5-2.5,11.5-1,17.4
			c-7.5,4.8-15.7,7.1-24.6,7.1c-0.7-1.5-2.1-1.8-3.5-1.8c-2.2-7-6.3-9.1-10.5-5.7c-2.9,1.8-5.9,3.6-8.8,5.4
			c4.9-1.3,10.1,12.4,13.9,0.2c1.8,1,3.6,1.2,5.4,0c0,1.2,0,2.4,0.1,3.7c3,11.6,8.6,22.4,10.4,34.4c1,6.4,3.9,9.2,10.2,5.2
			c0.9,2.4,2.5,3.9,5.2,4c-0.1,5.1,4.7,5.8,7.4,8.4c-0.6,4.2,1.3,6,5.5,5.4c7.4,2.8,10.2,8.4,9.9,15.9c-0.5,0.5-1,1-1.5,1.5
			c-3.4,3.2-7.4,5.5-11.9,6.7c-0.6-1.8-1.6-3.2-3.7-1.8c-1.7,1.1-2.1,2.6-0.2,4.1c1.1,5.9,9.6,4.3,10.7,10.3
			c0.2,4.2,3.7,5.6,6.7,6.4c2.1,0.6,1.7-2.2,2-3.8c5.9,0.5,9.8,4.4,14,7.8c0.1,2.7,0.2,5.4,0.3,8.1c-3,0.5-6.1,1-9.1,1.5
			C498.1,754,495.3,753.8,493.2,758.1z M410.5,686c-6.5-5.6-13.7-3.2-20.8-1.6c-2.6-0.3-5.2-0.7-7.8-1c-6.9-0.7-7.3-4.2-3.8-9.2
			c1.2-1.6,2.8-2.9,4.2-4.4c5.9-6,11.8-12,17.8-17.9c1.6-1.6,2.9-3.3,1.4-5.3c-2.1-2.7-3.8,0.4-4.9,1.2c-6.2,4-12.8,7.4-17.8,13.4
			c-12.9,15.5-17.2,34.1-20.8,53c-1,5.5-3.3,11.3,3.1,16c14,10.2,33.4,5.5,41.1-10c1.5-3,1.8-4-1.8-4.4c-3.8-0.4-8.6-1.3-8.7-5.3
			c-0.1-3.5,2.2-8,5.7-10.1C403.5,697,407.2,691.7,410.5,686z M452.1,683.4c-0.2,0.5-0.7,1.1-0.6,1.4c0.1,0.4,0.9,0.5,1.4,0.7
			c0.2-0.5,0.7-1.1,0.6-1.4C453.3,683.7,452.6,683.6,452.1,683.4z"/>
		<path class="st1" d="M473.7,633.8c-1.5-5.9-7.5-11.8,1-17.4c1.4-0.9-0.2-3.2-1.1-4.7c-2.6-4.1,0.8-4.1,3.3-4.7
			c2.7,10.1,9.7,17.3,16.7,24.4c12.8,12.9,25.7,25.8,32.6,43.2c1.5,3.8,3.5,4.7,6.5,1.2c5.3-6.2,10.9-12.1,15.9-18.4
			c11.7-14.7,25.2-28.5,31.2-46.7c3.8-11.6,9.8-20.7,19.9-27c5.7-3.6,9-8.9,6.2-14.4c-2.4-4.9-8.8-2.4-13.3-1.2
			c-17.9,4.9-35.6,10.1-53.4,15.4c-2.7,0.8-5.1,2-9.8-0.8c21.4-11.3,42.2-18.4,64.6-21.3c1.4-0.6,2.9-1.1,4.3-1.7
			c6.7-0.8,13.5-1.5,20.2-2.3c0.7,0.2,1.4,0.5,2.1,0.7c12.4,0.5,24.4-3.6,36.4-4.3c15.2-0.9,28.6-5.5,41.8-11.8
			c15.4-7.4,21.3-19.7,17.3-36.3c-5.3-22.5-11.3-44.9-16.8-67.4c-1.7-6.8-7-3.9-10.7-3.9c-3,0-8,1-6.7,5.6
			c2.9,10.7-3.3,17.1-10.3,22.6c-5.4,4.3-5,5.9,0.9,8.6c8.1,3.6,15.8,8.1,23.9,11.7c6.6,3,10.1,8.2,7.5,14.4
			c-2.4,5.8-9.4,6.4-15.1,4.9c-7.5-1.9-15-3.2-22.8-3.2c-5.1,0.1-9.4-2-12.7-6c-6.3-7.6-7.8-18.2-15-25.2
			c10.2-2.2,18.6-8.1,27.9-12.3c6.6-3.1,10.1-7.7,8.7-15c-1.3-6.5-3.2-12.6-10.8-15.2c-10.5-3.5-20.3,0.9-30.4,1.3
			c-10.8,0.5-19.2,4.2-24.4,13.3c-12.9,22.3-32.1,32.2-57.5,29.3c-14-1.6-27.5-5.8-38.1-15.8c-1.7-1.6-6.2-3.1-2.9-7.1
			c19.5,15.4,40.5,23.4,65.3,13.9c29.4-11.2,40.2-39.4,35-68.2c-2.5-13.7-12.7-21.6-22.7-29.6c-0.8-1.4-2-2.9,0.4-4
			c12.2,6.7,12.7,6.6,22.5-3.5c1.2-1.2,2.8-2,4.2-2.9c3.3,3,3.2,0.3,3.3-2l-0.1,0.1c3.4-0.1,6.4-0.7,7.3-4.7
			c1.1-0.2,2.2-0.4,3.4-0.6c1.8,1.3,3.6,2.6,5.4,3.9c-1.8,2.3-4.4,3-7.1,3.3c-2.7-2.6-3.1-0.5-3.5,1.7c-0.1,1.1-0.6,1.7-1.7,1.8
			c-0.6,0.4-1.1,0.8-1.7,1.2c-4.7,2.8-8.7,6.3-12.2,10.4c-2,2.4-2.7,5.1-1,7c9.8,11.6,12.1,25.2,11.4,39.7c-0.3,5.8,3.3,7.7,7.6,6.1
			c5.1-1.9,10.1-1.2,15.2-1.8c5.8,0,11.7,0,17.5,0c7.4,1.3,13.5,4.7,18,10.8c-0.3,1.1-0.1,1.7,1.2,1.3c1.7,0.5,3.2,0.6,4.9-0.3
			c7.6-4.1,12.2-10.5,14.6-18.6c4,4.7,7.6,9.1,3.8,16.1c-1.4,2.6,0.9,6.4,5,6.5c3,0.1,5.3,1.2,5.9,4.1c1.7,8.2,4.1,7.2,7.2,0.8
			c1.4-2.8,3.8-4.1,6.3-2c2.5,2.1,0.2,4.1-1.3,5.9c-3.4,4-4.2,8.1-0.8,12.5c-1.8,4.4-7.1,6.7-7.3,12.1c-2.5,2.3-2.4,4.7-0.2,7.1
			c0.8,4.6,1.5,9.3,2.3,13.9c0,1.9-1.3,4.2,1.5,5.2c0.1,1.8,0.2,3.5,0.2,5.3c0,1.9-1.3,4.1,1.3,5.3c0.2,1.1,0.3,2.3,0.5,3.4
			c0,2.3,0,4.7,0,7c0,1.7,0,3.5,0,5.2c0.5,3.7-2.8,6.7-1.7,10.5c-6.5,13.3-19.6,17.2-31.9,22.3c-3.7,0.6-7.5,1.2-10.5,3.7
			c-14.5,2.1-28.8,6.3-43.6,5.7c-1.4-0.3-2.9-0.8-3.6,1.2c-3.5,0.1-7,0.2-10.5,0.3c-3.5,0-5.5,1.3-4.9,5.2c0,2.3,0,4.7,0,7
			c-0.7,6.7-6.6,8.9-10.8,12.6c-1.3-0.5-1.7,0.3-1.8,1.3c-3.2,1.9-7,3.1-8.7,6.9c-1.2,0.1-1.7,0.6-1.4,1.9c0,0.6,0,1.2,0,1.8
			c-2.2,2.9-1.4,5.3,1.3,7.4c1.2,4.9,5.5,7,8.7,10.1c0.2,1,0.7,1.7,1.9,1.4c8.1,5.9,16.2,11.9,24.3,17.8c0.3,1,0.7,1.7,1.9,1.3
			c1.2,0.7,2.4,1.4,3.6,2.1c0,1.1,0.4,1.7,1.6,1.5c19.3,15.1,38.1,30.7,50.8,52.2c5,8.4,10.5,16.7,12,26.8c-2.1,0.4-1.4,2.2-1.8,3.5
			c-1.7,1.3-3.4,2.6-5.1,4c-1.3-0.6-1.6,0.3-1.9,1.3c-0.5,0.6-1,1.2-1.6,1.8c-4,1.8-4.1,5.5-3.3,8.8c1.4,5.8,3.6,11.5,5.5,17.2
			c-1.4,2.9,2.1,4.6,1.7,7.3c-0.9,2.7,0.3,4.9,1.8,7c0,0.6-0.1,1.2-0.1,1.8c1.7,5.3,0.3,11.5,4.8,16c0.2,1.1,0.4,2.2,0.6,3.2
			c-1.2,2.7,0.6,4.8,1.1,7.2c0.5,2.4,1,4.9,3.6,4.8c2.4-0.1,2.5-3.1,3.3-5c1.4-4.2,3.9-7.6,7.3-10.4c2.9-0.1,5.8-0.2,8.7-0.4
			c0.5,0.2,1,0.4,1.6,0.4c0.2,1.1,0.3,2.3,0.5,3.4c-0.3,0.5-0.3,1.1-0.2,1.6c-0.6,0-1.1,0.1-1.7,0.1c-5.3-1.3-6-0.8-5.6,3.3
			c-0.2,1.2-0.3,2.5-0.5,3.7c-0.4,4.9,5.7,4.9,6.6,8.8c-0.3,1.1-0.6,2.2-0.9,3.3c-5.1,1-6.8,5.3-7.6,9.4c-0.4,1.9,2.5,2.8,4.7,2.7
			l-0.1,0c0.5,0.6,0.9,1.2,1.4,1.9c0.8,1.7,1.6,3.4,2.4,5.1c-1.8,0.7-3.1,1.9-3.9,3.7c-1.7-0.6-3.4-1.3-5.1-1.9
			c-0.6-1.5-2-1.6-3.4-1.9c-1.9-5.1-6.8-7.2-10.6-10.4c-3.6-9.2-10.6-17.5-10.4-27.6c0.3-16.4-6.6-31.1-9.1-46.8
			c-0.7-4.3-2.6-4.8-6.3-1.3c-6.1,6-13.1,11.2-19.8,16.7c-3.1-4.9-8,1.4-12.4-2c3.3-2.6,6.1-4.8,8.9-7c0.6,0.1,1.4,0.4,1.7,0.2
			c11-10.2,21.9-20.5,32.9-30.7c2.7-2.5,2.6-5.7,1.6-8.8c-5.6-16.6-7.6-17.5-22.6-9.5c-0.2,0.1-0.5,0.2-0.8,0.3
			c-15.8,8-18.1,6.6-17.1-11.2c0.3-4.7,0.6-7.8-5.9-7c-7.7,0.9-12.3-2.6-11.1-11.2c0.7-4.8,0.6-9.6,1.7-14.5
			c1.1-4.8,2.5-11.1-2.7-15.3c-6-4.9-12.3-9.4-18.3-14.2c-3.8-3-4.9-1.7-5,2.6c0,6.6,0.3,12.9,3.5,19c3.4,6.5,5.8,13.4,8.6,20.2
			c-1.6,0.6-3.2,1.1-4.8,1.7c-2.5-1.7-3.1-4.5-3.9-7.2c-0.6-2-1.8-3.5-4.4-3.4c-3.5,0.2-2.5,2.9-2.3,4.5c0.6,4.5-1,8.7-2.5,12.6
			c-3.6,8.8-8.9,9.2-14.6,1.6c-4.2-5.5-8-11.2-12.1-16.8c-1.1-1.5-2-4-4.6-3c-2,0.8-1.3,3.1-1.1,4.6c1.2,10.5-4.2,18.1-10.7,25.1
			c-8.3,8.9-16.8,17.5-23.6,27.6c-1.3,1.9-3.2,4.9-6.3,2.1c-12.5-11.3-26.6-21.2-31.8-38.6c-2.4-8.1-0.6-16.1-1-24.3
			c-4-1.1-4.4,2.8-6.5,4.3c-0.8-2.3-1.6-4.5-2.4-6.8c1.6-2.3,3.3-4.6,4.9-7c1.8-2.7,7.3-4.4,5.1-7.8c-2.4-3.8-5.5-8.5-10.7-9.3
			C481.3,633.3,477.4,633.8,473.7,633.8z M501.4,673.3c0.3,15.6,10.2,24.5,19.9,33.5c0.6,0.6,2.4,0.6,3.3,0.2
			c1.5-0.7,0.1-1.9-0.1-2.8c-1.4-7.5-2.4-15.2-4.5-22.5c-2.1-7.4-5.2-14.5-9.8-20.8c-1.1-1.6-2.6-3.1-5.1-2.7
			c-1.4,0.3-2,1.3-1.8,2.4C504.2,665.3,500.1,669.4,501.4,673.3z M566.7,649c7.6,8.5,13.9,15.5,20,22.6c1,1.1,1.4,2.7,3.1,2
			c1.2-0.5,2.4-1.4,2.5-3.2c0.5-8.6,4.1-16.5,5.1-24.9c0.9-7.2,0.8-14.8-6.2-21.2c-0.9,8-2,14.8-2.2,21.6c-0.1,4.6-1.7,6.9-6,5
			C578.3,648.8,573.5,649.9,566.7,649z M536.5,700c9.6-5.5,16.1-11.6,20.8-19.9c2.7-4.8,2.4-9.8,1.2-14.9c-1.1-4.7-2.1-6.2-6.9-2.1
			C540.7,672.6,540.4,685.9,536.5,700z"/>
		<path class="st4" d="M374.2,355.8c9.9,3.1,16.8,12.6,15,22.6c-0.9,4.8,0.2,7,4.4,8.7c9,3.6,16.4,22.1,12.6,31.4
			c-7.3,17.6-5.2,23.6,8.9,35.7c3.8,3.3,8.1,9.1,4.9,15.9c-2.8,5.8-4.2,12-4,18.5c0,1.1,0.1,2.5-0.5,3.4c-1.5,2.4-6.8,3.3-4.1,7.2
			c2.6,3.8,6.7,6.7,11.7,6.8c4.6,0,6.8,0.7,6,6.3c-0.3,2.2,0.1,7.4,4.6,7c3.9-0.3,2.7-4.3,3.3-7c1.8-8,5.1-15.5-1.2-23.8
			c-2.8-3.7,1.3-8.8,6.8-8c6.8,1,10.4,2.6,7.4-7.5c-2.8-9.3,7-9.1,13.2-10.5c0.7,2.1-1.6,5.5,2.4,6.1c0.5,0.1,1.7-0.8,1.9-1.5
			c1.1-3.7-1.6-4.2-4.3-4.6c0.3-1.9,0.8-3.6,3.3-2.7c1.6,0.5,2.8,0.5,3.5-1.3c1.4-3.3-3.6-17-7.2-17.8c-7.2-1.7-5.5-6.8-6.5-12
			c-2-10.6,6.2-19.2,4.2-29.7c-0.7-3.7,2.5-7.2,6.4-9.5c12.7-7.6,17.8-15.5,10.9-29.4c-0.8-1.6-1.1-4.7-0.2-5.9
			c7.7-9.7,3.4-21,4.7-31.5c0.5-3.7-0.5-7.9,2.2-10.9c3.3-3.6,5-5.9,2.3-11.6c-2.8-5.7,6.8-7.9,8.1-14c0.6-2.9,4.9-0.5,7.7-0.1
			c8.4,1,16.2,7.8,25.5,2c3.3-2.1,7.9,0,11.6,1.9c4.2,2.1,7.6,1.6,7.3-4.2c-0.2-4.5,5.4-7.3,5.2-9c-1.7-14.8,8.3-4.8,12.6-6.8
			c11.9-5.6,22.7,2.1,34.3,1.6c8.4-0.4,9.9-3.9,10.8-9.9c0.5-3.1-0.6-6.9,0.8-9.4c2.3-4.3,6.1-8.4,11.9-4.9c7,4.3,15.4,1,16.8-7.4
			c0.7-4.3,0.8-8.6,1.8-12.9c1.2-4.8-2-7.3-6.3-7.4c-5.9-0.2-7.5-3.7-7.4-8.5c0-4.7-1.7-7.7-6.3-9.2c-7.4-2.5-11.3-7.7-11.3-15.7
			c5.6-2.9,5.6-5.8,0-8.7c0-1.2,0-2.4,0-3.6c8.7,4.6,16.9,9.9,21.3,19.3c-4,0.6-5.1,3.5-2.7,6c2.4,2.5,4.5-0.1,5.9-2.5
			c5.4,4.7,6.1,12.4,10.7,17.6c-0.3,1.5-0.7,3,1.4,3.5c0.7,2.3,1.4,4.7,2.1,7c-0.3,1.2,0.2,1.7,1.4,1.8c0.2,1.1,0.3,2.3,0.5,3.4
			c-0.6,1.2,0,1.8,1.2,1.9c0,0.6,0.2,1.1,0.7,1.5c-0.8,3.1,0.8,5.2,2.8,7.2c0.1,0.5,0.1,1.1-0.2,1.6c-6.3,3-13.3,5.7-8.1,14.9
			c-3.9,2.3-5.4,7.7-10.7,8.3c-0.9-0.7-2-2-2.6-1.9c-8.1,2.4-12.5,10.2-19.7,13.9c-0.1,0.1,0.7,2,1.1,3.1c-1,2.5-3.3,1.7-5.1,2.1
			c-2.6-3.1-8.9-1.4-9.4-7.5c-0.1-1.4-2.2-1.7-3.7-0.9c-2.1,1.1-4.1,2.5-3.9,5.2c0.1,2,0.8,3.9,1.2,5.9c-0.5,0.4-1,0.6-1.6,0.7
			c-0.6,0.4-1.2,0.9-1.9,1.3c-2.3,0.1-4.5,0.3-6.8,0.4c-0.6,0.4-1.3,0.9-1.9,1.3c-1.2,0.1-2.4,0.2-3.5,0.2c-2.9-3.2-5.8-6.4-8.8-9.5
			c-1-1-2-2.4-3.6-1.7c-2.1,0.9-2,3.2-1.4,4.5c2.8,5.9-1.3,8-5,11c-4.3,3.5-8.4,6-14.1,3.3c-1.4-0.7-3.6-1-4.5,1
			c-0.8,1.7,0.6,2.8,1.9,3.4c4.4,1.9,4,5.9,4.4,9.6l0-0.1c-0.7-0.1-1.4-0.2-2-0.3c-0.9-1.4-1.6-3.1-3.7-2.7
			c-0.3,0.1-0.8,0.9-0.7,1.2c0.8,2.1,2.8,1.2,4.4,1.5c0,0.6,0,1.2,0,1.7c-0.9,2.6-3.1,1.4-4.8,1.7c-0.7,0.5-1.4,1-2.2,1.5
			c-2.9,0-5.8,0.1-8.8,0.1c-1.4-5.4-5.8-2.6-8.9-3.3c-0.5-0.1-1,0-1.6,0.1c-2.2-2.1-4.8-4.1-6.6-6.5c-2.5-3.2-5.4-3-8.3-1.6
			c-3.2,1.6-2.6,4.5-1.9,7.5c0.6,2.4,0.8,5,1.1,7.5c-2.5,6.7-3.6,13.7-4.2,20.8c-1.5,0.3-4-0.4-3.7,2.1c0.2,1.6,2.3,1.3,3.6,1.4
			c0.1,1.8,0.2,3.5,0.3,5.3c-1.8,2.2-1.8,4.5-0.1,6.7c-0.1,1.2-0.1,2.4-0.2,3.6c-2,0.1-4.4,0.3-4.3,2.9c0.2,5.6-2.9,10.9-1.8,16.6
			c0,3.7-1.8,6.6-4.7,8.7c-3,0.8-7.6-3.3-8.6-0.1c-1.6,5.5-8.2,10.8-2.3,17.4c-1.7,6.6,1.8,12.7,1.7,19.1c-1.5,0.8-3.4,1.6-2.9,3.6
			c0.5,2.2,2.7,1.4,4.3,1.7c0.3,0.5,0.4,1,0.3,1.6c0,1.9-0.4,4,1.4,5.4c0.7,2.9,2.6,5.5,2.1,8.6c0.4,0.6,0.9,1.2,1.3,1.8
			c0.2,1.7,0.3,3.4,0.5,5.1c-0.3,7.2-6.2,4.3-10.8,4.9c3.6,6.4,10.1,6.2,14.5,9.2c2.3,5,3.1,10.3,3.4,15.8c-4.5-0.6-5,5.6-9.2,5.4
			c-1.6-0.8-3.2-1.5-4.9-2.3c-0.3-3.2,0.4-6.1,2.5-8.8c1.1-1.4,1.3-3.4-0.8-4.3c-2-0.9-3.6,0.5-3.9,2.2c-0.6,4.7-4.5,7.3-6.7,10.9
			c-2.2,1.3-4.4,2.5-6.6,3.8c-4.1-0.4-6.1,1.2-5.5,5.5c-1.3,3.4-2.5,6.8-3.8,10.2c-2.1,0.5-5.1-2.9-6.1,0.1
			c-1.1,3.1-1.1,7.1-0.1,10.2c1,3.2,4-0.3,6,0.2c0.1,2.8,0.3,5.7,0.4,8.5c-0.1,1.4,0.1,2.7,1.3,3.6c0.3,0.5,0.5,1,0.4,1.6
			c-1,3.7-2,7.4-3.1,11.1c3.1-3.1,8.3,1.2,10.5-3.2c4.4,3.8,9.6,5.1,15.3,4.9c0.6,0.9,1.1,1.9,1.7,2.8c-0.4,0.3-0.9,0.4-1.4,0.4
			c-4.4-0.4-9-3.1-10,5.2c-0.4,3.2-2.8,10-9.7,8.7c-3.9,0.9-5-4.2-8.6-3.8c-2.2-6.7-6.1-8.8-12.3-4.7c-1.8-0.4-2.4-1.7-3-3.2
			c5.5-2.2,5.5-4.5,0.9-8.2c-3.4-2.7-6.5-0.2-9.6-1.1c-1.6-2-2-4.4-2.3-6.9c3.2-7.2-0.7-13.5-2.7-19.9c-0.6-1.9-3.5-1-5.3,0.2
			c-8.9-0.2-13.8-6.7-19.4-12.3c-3.5-3.5-2.9-5.3,1.3-7.6c9.8-5.5,11.7-11.2,6.3-21c-4.1-7.5-6.4-15.7-10.2-23.2
			c-0.7-1.5-1.6-3.5-1.1-4.9c6.7-21.8-4.7-39.6-12.2-58.4C377.5,374.7,373.2,365.8,374.2,355.8z"/>
		<path class="st1" d="M724.1,810.5c-0.9-3.9-7-4-6.5-8.8c9.1-0.4,17.8,0.7,26.4,4c5.3,2.1,11,3.4,16.5,4.7c8.8,2,10.4,4.9,7,13.4
			c-1.8,4.5-5.2,8.6-3.8,15.7c8.1-9.1,15.3-17,22.2-25.1c3.6-4.2,1.8-5.2-3.1-6.1c-16.4-3.2-32.7-6.9-49-10.6
			c-14.7-3.4-9.3-6.5-9.7-8.5c6.9,0.9,20.5,5.8,27.4,6.8c1.7,0.6,3.5,1.1,5.2,1.7c1.2,0,2.3,0,3.5,0c0.6,0,1.2,0,1.8,0
			c2.4,0.2,4.2,2.9,7,1.8c0.6,0,1.2,0,1.8,0c1.6,0.9,3,2.7,5.2,1.8c6.4,1.8,12.8,3.6,19.3,5.4c0.3,2.1,2,1.8,3.4,2
			c0.1,0.6,0.1,1.2,0.2,1.7c-2.2,0.3-1.6,2.1-2,3.4c-6.2,5.7-3.9,8.2,3.3,8.9c0.2,1.2,0.9,1.6,2.1,1.4c0.5,0.4,1,0.5,1.5,0.3
			c0,1.1,0.1,2.3,0.1,3.4c-7.2,7.7-7.4,8.8,2.4,14.9c6,3.7,4,4.9-0.2,7.8c-8.1,5.7-15.9,11.8-23.9,17.7c-1.7,1.3-2.8,2.9-2.8,5.1
			c-3.1,2.6-1.1,5.8-1.1,8.8c-0.9,1.7-2.7,3-2.3,5.2c-2.2,1.1-3.5,2.7-3.5,5.3c-4.7,6-9.3,12.1-16.2,15.8c-2.8,1.5-3,4.7-4.9,6.8
			c-1,0.2-1.8,0.6-1.5,1.9c-2.9,2.9-4.4,6.3-4,10.4c-1.9,0.7-1.4,2.2-1.2,3.6c0.9,8.1-3.4,12.6-10.3,15.7c-6.1,2.8-12,6.1-18,9.2
			c-1.2-0.4-1.7,0.2-1.8,1.4c-1.2,0.7-2.3,1.4-3.5,2.1c-1.2-0.4-1.6,0.4-1.9,1.4c-7.6,1.5-13.8-2.2-20.1-5.3
			c-3.6-1.7-7.1-3.4-10.5-5.4c-7.3-4.3-14.2-7.9-16.8,4.7c-0.3,1.5-2.1,2.6-3.2,3.9c-1.1,0-2.2,0-3.3,0c-1.5-11.5,3.2-21.9,5.5-32.7
			c3.4,0.1,6.4-1,9.4-2.4c5.5,5.2,12.6,7.9,19,11.6c6.1,3.6,9.2-0.8,11.6-6.1c2-4.5,1.4-6.5-3.7-6.5c-1.8-0.6-3.5-1.3-5.3-1.9
			c-2.3-1.9-4.6-3.8-6.8-5.6l0.1,0c-2.5-4.9-2.1-10.1-1.6-15.4l0.1,0.2c2.2-1.3,4.2-2.6,6.5-3.7c8.7-4.3,8.8-5,1.9-12.6l0,0.1
			c-0.2-0.9-0.3-1.9-1.6-1.9l0.1-0.3c-0.2-4.4-0.5-7.8-6.1-3.5c-5,3.8-9.2,8.2-13.2,12.9c-2.1-7.9-2.6-15.5,5-21.1
			c9-1.7,14.5-8.5,14.8-18.6c-6,2.4-8.2,8.5-12.9,12.2c-0.7-2.4-1.3-4.8-2-7.2c1.7-3.1,3.9-5.9,4.9-9.2c2.5-8.6,6.6-7,12.4-3.1
			c5.6,3.9,11.8,7.1,18,10c5.9,2.8,11.4,1.1,16.3-3.2c4.8-4.2,3.3-7.5-1.1-10.3c-1.9-1.2-4.3-1.6-6.4-2.3c-0.1-0.5-0.2-1-0.2-1.5
			c0.7-1.8,2.1-3,3.9-3.7c6.3,4.6,12.7,9,18.8,13.8c3.2,2.5,5.1,2,6.6-1.6c0.9-2.1,1.7-4.3,2.7-6.4c12.2-26.3,14.1-21.1-14.4-30.2
			C732.9,806.9,728,805.7,724.1,810.5z M730.8,892.2c-0.8-3.8-3.9-4.5-7-5.2c-3.8-5.7-9.4-3.4-14-2.4c-4.9,1.1-6.7,3.9-2.6,9.2
			c9.9,12.4,29.1,17.8,43.6,10.9c-5.9-3.4-9.6-9.5-16.6-10.7C733.6,892.5,732.2,892.5,730.8,892.2z M739.2,889.2L739.2,889.2
			c4,7.4,10.8,7.6,17.9,6.8c6.3-0.7,9.3-6.4,5.5-11.3c-6.2-8-12.8-15.8-20-22.9c-5.1-5-10.9-2.7-13.6,4.4
			C725.2,876.2,727.1,880.5,739.2,889.2z M711.3,931c-4.6,3-5.9,6.2-7.2,9.4c-2.2,5.4-5,7-10.4,3c-5.1-3.8-10.8-6.8-16.4-9.8
			c-2.3-1.3-5.3-4.5-7.6-1.1c-2.3,3.2,0.4,6.4,3.2,7.9c9.6,5.4,19.4,10.3,29.1,15.5c2.5,1.4,3.4,0.7,4.2-2
			C708.1,946.8,710.5,939.8,711.3,931z M799.5,844.1c-6.7-2-11.5,0.1-15.9,4.8c-5.3,5.7-11.5,10.6-17,16.1c-1.6,1.6-5.9,2.8-3.6,5.6
			c2.1,2.5,5.2,0.1,7.6-1.7c6.5-4.8,13.3-9.3,19.4-14.5C793.3,851.6,798.3,850,799.5,844.1z M728.1,914.5c-1.4-3.7-5.2-4.2-7.2-4.8
			c-7.2-2.2-13.4-8.5-21.8-6.4c-5,1.2-9.8,1.8-4,9.1c3.7,4.7,6.7,6.5,12.5,6.6C714.9,919.2,721.6,917.7,728.1,914.5z M762.5,853.4
			c4.8,1.4,6.8-1.8,9-3.7c5.3-4.5,10.2-9.5,15.1-14.4c2.3-2.3,7.4-4.9,4.3-8c-3.6-3.7-7.3,0.5-9.9,3.6
			C774.8,838.2,768.8,845.6,762.5,853.4z M718.3,869.2c-0.1-6.7-2.9-11.3-10.1-11.5c-6.7-0.2-13,6.4-12.8,12.7
			c0.1,5.2,2.6,8.2,8,8.3C714.2,878.8,718.4,876.1,718.3,869.2z M724.8,928.6c-4.9,4.2-5.7,9.5-6.5,14.7c-0.3,2.1,1,4.2,3.4,4.3
			c2.9,0.2,3-2.5,3.1-4.3C725,938.8,724.8,934.1,724.8,928.6z"/>
		<path d="M723.8,455.5c-3.4-4.4-2.6-8.5,0.8-12.5c1.5-1.7,3.7-3.8,1.3-5.9c-2.5-2.1-4.9-0.8-6.3,2c-3.2,6.4-5.5,7.5-7.2-0.8
			c-0.6-2.9-2.9-4-5.9-4.1c-4.1-0.2-6.4-4-5-6.5c3.8-7,0.2-11.4-3.8-16.1c0-0.6,0-1.2,0-1.7c2.3-0.4,4.1-1,1.5-3.5
			c-0.1-1.2-0.2-2.3-0.3-3.5c0.2-3.5,0.4-7,0.6-10.5c2-3,2.7-5.7-1.8-7c-0.8-1.7-2.6-3-2.1-5.2c4.3-5.6,0.6-12.6,2.6-17.9
			c3-8.1,2.2-16,2.6-24c0.5-10.9-4.1-18.7-13.8-23.8c-7-3.7-7.1-12-0.3-16.6c2.1-1.4,3.8-5,2.5-4.8c-8.9,1.4-9.4-6.1-12.9-10.5
			c-0.5-0.7-2.4-0.2-3.3-0.7c-1.2-0.7-2.9-1.8-3-2.8c-0.9-9.6-8.5-17.7-5.8-28c1.8-0.1,3.6-0.2,5.4-0.3c1.1,2.9,3.3,1.5,5.2,1.5
			c1.1,0.2,2.3,0.3,3.4,0.5c1.9,2.9,4.7,1.1,7.1,1.3c5.2,1.4,10,3.5,14.1,6.9c0,2.6,0.5,4.9,1.4,7.4c2,6,8.7,9.4,9.6,14.7
			c1,6.1,4.7,9.1,7.8,13.2c0.8,5,3,9.9,2,15.1c-1.6,8.6,1.9,12.4,10.6,11.4c1.5,2.7-4.6,6.5,1.3,8.5c0.2,0.6,0.4,1.2,0.6,1.7
			c0,1.2,0,2.3,0,3.5c0,3.5,0,7-0.1,10.4c-5.3,3.5-7.1,9.4-2.1,12.4c5.3,3.2,8,7.4,9.6,12.3c2.2,6.8,6.6,8.8,12.9,8.6
			c0.1,4.7,0.2,9.3,0.3,14c-2.9,1.1-1.5,3.4-1.4,5.3c-0.8,1.2-1.6,2.3-2.4,3.5c-5.5-0.7-9.7,2.8-12.8,5.9c-2.6,2.6-7.3,7.5-0.6,11.7
			c-0.6,1.8-1.3,3.6-1.9,5.3c-2.9,1.4-4,3.7-3.3,6.8c-0.7,4.6-1.4,9.2-2.1,13.9c-1,0.2-1.8,0.6-1.3,1.9
			C726.8,451.1,725.8,453.6,723.8,455.5z M715.9,304.6c0-1.8-0.4-2.7-1.9-2.7c-1.8,0.1-2.5,1.2-2.5,2.8c0,1.5,0.2,3.3,2.1,2.7
			C714.6,307.2,715.3,305.4,715.9,304.6z M703.8,384.5c-0.2,0.5-0.4,1-0.6,1.5c0.5,0.2,1.1,0.7,1.4,0.6c0.3-0.1,0.5-0.9,0.7-1.4
			C704.8,384.9,704.3,384.7,703.8,384.5z M705.4,393c-0.2-0.5-0.3-1.3-0.6-1.4c-0.3-0.2-1,0.3-1.5,0.5c0.2,0.5,0.3,1.3,0.6,1.4
			C704.3,393.7,704.9,393.2,705.4,393z M717.6,329.1c-0.5-0.2-1.1-0.7-1.4-0.6c-0.3,0.1-0.5,0.9-0.7,1.4c0.5,0.2,1.1,0.7,1.4,0.6
			C717.3,330.3,717.4,329.6,717.6,329.1z M707.1,320.4c-0.5-0.2-1.1-0.7-1.4-0.6c-0.3,0.1-0.5,0.9-0.7,1.4c0.5,0.2,1.1,0.7,1.4,0.6
			C706.8,321.6,706.9,320.8,707.1,320.4z"/>
		<path class="st1" d="M676.4,869.8c-7.6,5.6-7,13.2-5,21.1c-0.2,1.2-0.5,2.3-0.7,3.5c-0.4,0.8-0.8,1.6-1.2,2.5
			c0.3,8.9,0.6,17.9,0.9,26.8c-3,1.3-6.1,2.4-9.4,2.4c2.3-8.2,1.4-16.5,1.5-24.8c2.1-1.8,2-3.6-0.2-5.2c-0.1-6.6-4.7-5.2-8.7-4.8
			c-2.7-1.1-4.9,0.1-7,1.6c-0.6,0-1.2,0-1.8,0c-1.5-0.3-2.9-0.6-3.5,1.4c-5.3-1.1-9.2,2.6-13.7,4c-1.9,0.1-4.3-2-5.5,1.3
			c-1.8,0.2-3.5,0.3-5.3,0.5c-1.3-0.6-1.5,0.3-1.7,1.2c-0.3,0-0.6,0-0.9,0.1c-12,4.4-19.7-1.4-27.7-9.8c-5.6-5.8-14.6-1.9-22.1-2.1
			c-1.7-0.2-3.5-0.4-5.2-0.6c-3.3-12.7-12-21.1-22.7-27.8c-0.2-1-0.6-1.8-1.9-1.3c-8.7-4.9-18.3-5.5-27.9-5.8
			c-1.2-2.8-3.5-1.2-5.3-1.3c-1.7,0.6-3.5,1.1-5.2,1.7c-1.4-0.2-3-0.8-3.6,1.3c-9.3,0.5-16.7,6.1-25,9.3c0,0-0.2-0.5-0.2-0.5
			c-0.2-6.4-3.4-11.6-6.4-17c-0.1-0.4-0.1-0.9-0.1-1.3c-0.8-4.4-4.6-7.7-4.6-12.3c19.2-4.6,34.2,5.3,50.6,15.6
			c-1.5-11,0.7-20.4,1.3-30c0.3-4,1.6-7,4.6-8.7c3.3-1.8,6.1,1.1,8.3,3.1c8.6,8.1,14.2,18.5,20.7,28.2c5.9,8.9,5.8,9,12.6,1.6
			c5.1-5.5,10.3-10.9,15.1-16.7c3.8-4.6,5.3-2.1,6.8,1.7c3.6,9.2,1.8,18.9,2.2,28.4c0.3,7.3,2.2,9.2,9.4,6.6
			c7.9-2.9,16.4-3.2,25.7-2c-4.5,10.4-8.4,20.7-13.4,30.4c-2.2,4.3-1.9,6.3,2.7,5.6c21.1-3.1,41.6-8.3,58.5-22.4
			c6.8-5.7,2.3-13.5,1.9-20.2c-0.6-9.1-4.9-17.7-4.5-27c-1.1-5.9,2.4-10.8,3.7-16.2c2.7,1.1,1.3,3.5,1.7,5.4c0,1.9-0.4,3.9,1.3,5.3
			c2.3,6.7,4.1,13.6,4,20.8c0.4,0.7,0.9,1.3,1.3,2c0.7,2.9,1.4,5.8,2.2,8.7c0.5,0.6,1.1,1.2,1.6,1.8c0.6,0.1,1.2,0.3,1.8,0.4
			c0.7,2.4,1.3,4.8,2,7.2C678.1,865.6,675.6,867.2,676.4,869.8z"/>
		<path class="st5" d="M414.5,806.8c4.3,0.7,4.3,3,3.6,6.8c-1.4,7.3-1.5,14.8,3.9,21.1c0.2,9.5-0.5,19.2,0.9,28.5
			c2.4,15.2,5.9,19.6,19.2,12.1c6.6-1.2,12.1-5.9,19.2-5.6c0.1,0.7,0.2,1.3,0.3,2c-4.6,5.9-11.7,9.8-14.4,17.3
			c-3.4,1.9-4.7,5.1-5.4,8.7c-1.9,0.5-1.4,2.2-1.6,3.5c-2.1,1.1-3.5,2.7-3.6,5.3c-6.6,5.9-12.5,13-23,10.5c-2.7-0.7-3.4,1.2-3.3,3.6
			c0.1,3.5,0,6.9,0,10.4c-2.4,1.7-3,4.3-3.4,7c-1.2,0.7-2.4,1.4-3.6,2c-1.2-0.4-1.7,0.3-1.9,1.4c-0.6,0-1.1,0.2-1.6,0.4
			c-1.3-0.5-1.7,0.3-1.9,1.4c-11,3.7-22,4.4-33.5,2c-9.7-2-19.4,1.8-29.2,1.9c-1.9,0-4-1.2-5.3,1.2c-1.1,0.2-2.3,0.3-3.4,0.5
			c-7.9-0.4-15.2,2.4-22.8,3.8c-4-1.4-8.5,0.7-12.3-2.6c-2.1-1.8-5.9-2.6-5.2-6c0.6-3.3,2.7-6.3,7-6.2c0.6,0,1.1-1,1.7-1.6
			c5.1-1.6,10.7-1.8,14.1-6.8c4.8-0.8,9.6-1.2,13.9-3.8c1.3,0.4,1.6-0.5,1.9-1.4c1.3-0.4,2.6-1.2,3.9-1.3c18.9-1.9,17.7-8.5,12-23.3
			c1.1-0.2,2.5-0.3,2.5-1.7c0-1.4-1.3-1.6-2.4-1.8c-0.7-1.7-2.7-3-1.8-5.3c2.3,0,4.6,0,6.8,0c3.3,7.6,2.6,17,9.9,23.6
			c0.4-4.1,0.1-7.3-0.9-10.7c-1.2-4.2,2-6.4,7-8c-1.3,4.1,0.7,6.8,1.4,9.8c2.6,11.4,2.5,11.4,11.5,3.8c3.5-2.4,7.7-3.8,9.7-8.1
			c1,0.1,1.9,0.1,2.9,0.2c0.7,12.2-0.8,24.7,4.9,36.3c8.9-4.3,11.4-11.2,8.6-23.9c-1-4.7-3.2-10.9,0.6-13.7c4-3,7,3.5,10.7,5.5
			c2.8,1.5,4.8,6.5,8.7,3.4c3.9-3.2,6.3-7.2,4.7-13.3c-3.5-12.8-9.6-24.9-11.6-38.2c0-3.4,0-6.9,0-10.3c-0.1-1.8-0.1-3.5-0.2-5.3
			c0.8-4.2,0.8-8.3-0.2-12.4c0-6.3,0.1-12.6,0.1-19C414,809.3,414.3,808.1,414.5,806.8z M306,947.3c1.9-1,1.2-1.9-0.2-2.6
			c-4.6-6-8.1-2.9-13,1.8C298.2,946.8,302.1,947,306,947.3z M325.3,945.2c1.5-0.3,4.9-0.9,8.2-1.8c13.4-3.5,27.1-5.6,39.9-11.3
			c4.3-1.9,6.2-5.2,5.4-9.7c-0.8-4.5-4.7-4.2-7.7-3.4c-18.1,4.8-36.1,10-54.1,14.9c-5.9,1.6-4.9,4.6-2.2,8.2
			C316.9,944.8,320,945.6,325.3,945.2z"/>
		<path class="st1" d="M664,251.2c-2.7,10.3,5,18.4,5.8,28c0.1,1,1.8,2.1,3,2.8c1,0.5,2.8,0.1,3.3,0.7c3.5,4.4,4.1,11.9,12.9,10.5
			c1.3-0.2-0.4,3.4-2.5,4.8c-6.7,4.6-6.7,12.9,0.3,16.6c9.7,5.2,14.4,12.9,13.8,23.8c-0.4,8,0.4,15.9-2.6,24
			c-2,5.3,1.7,12.3-2.6,17.9c-4.8-12.9-14.7-21.5-24.9-29.8c0.1-0.6,0.3-1.2,0.4-1.7c0.6,0,1.2,0,1.9-0.1c5.5,0.1,11.9,3.6,15.7-3.5
			c3.3-6.2,2.2-12.3-1.1-18c-1.2-2-2.8-3.7-4.4-5.3c-8.1-8-13.1-17.9-16.9-28.5c-3.7-10.1-7-20.3-10.9-30.4c-1.3-3.3-2.2-8.7-8.3-6
			c-5.2-9.3,1.7-11.9,8.1-14.9c0.7,1.2,0,3.2,2.1,3.5c1.5,2.8,3.1,5.5,7,5L664,251.2z"/>
		<path class="st4" d="M471.7,200c8.6,4.3,9.4,13.2,0.6,18.8c-8.4,5.2-15.2,10.7-19.3,20.1c-7.9,18-24.2,26.1-41.4,32.9
			c-6.5,2.6-10.6,6-8.5,14.3c1.3,5-1.6,9.5-7.8,10.2c0.8-19.4,5.6-37.9,24.7-46.3c15.5-6.9,23.7-19.8,33.7-31.6
			C459.4,211.9,464.9,205.4,471.7,200z"/>
		<path class="st4" d="M561.1,163.4c-3.5,3.7-7.8,6.2-11.3,10.2c-4.4,5.1-12.3,2.8-18.2,1.6c-7.1-1.5-10.6,0.2-12.2,6.8
			c-1,4.2-3.4,4.1-7.1,3.8c-7.3-0.6-15.9-4.4-19.8,6.5c-1,2.7-4.7,4.5-8.1,4c-2.7-0.4-1.9-3.2-2.2-5.1
			c12.2-12.8,28.5-18.3,44.5-24.1c3.1-1.1,6.5-1.5,9.8-2.2c1.2,0.3,1.6-0.4,1.8-1.4c2.9-0.1,5.8-0.2,8.7-0.3
			c1.5,0.3,2.9,0.7,3.5-1.3c3.5,0,6.9,0.1,10.4,0.1C560.9,162.4,561,162.9,561.1,163.4z"/>
		<path class="st5" d="M279.8,845.3c0,2.3,0,4.7,0,7c0,1.9-1.3,4.2,1.5,5.2c0.1,2.3,0.2,4.7,0.2,7c-0.8,4.6,0.8,8.5,3.1,12.3
			c0.2,1.1,0.5,2.3,0.7,3.4c0.2,1.8-1.7,4,1.1,5.3c-0.4,2.9,1.7,7.3-2.6,8.2c-5.7,1.2-4.4-4.6-5-7.2c-2.7-10.4-4-21.1-7.7-31.4
			c-1.4-3.8-1.6-9.7,0.4-12.8c7.9-12.1,6.1-25.3,6.2-38.5c0-3-2.1-7.4,3.6-8.1c3.8,1.3-0.2,6.1,3.4,7.5c0.2,1.2,0.3,2.3,0.5,3.5
			c0.1,7.6,0.1,15.2,0.2,22.8c-0.2,1.2-0.4,2.3-0.7,3.5c-1.8,0.5-1.4,2.2-1.8,3.5l0.1,0C280.5,839,278.9,841.7,279.8,845.3z"/>
		<path class="st4" d="M346,890.8c-2.3,0-4.6,0-6.8,0c0.1-1.8,0.2-3.5,0.3-5.3c1-7,2.2-14-0.9-20.9c0.8-12.3,1.5-24.5,2.3-36.8
			c1.4-0.2,2.7-0.5,2.9-2.2c0.3-2.2-1.2-2.8-2.9-3c0-1.2,0-2.3,0-3.5c2.1-0.4,4.1-0.9,1.6-3.5c0.1-4.7,0.1-9.4,0.2-14
			c2.9,0,5.7,0,8.6,0c-0.2,1.7-0.4,3.5-0.6,5.2c-1.4,1.1-1.5,2.3,0,3.4c0.1,2,0.7,4.1,0.3,6c-4,19.4-3.4,39.2-5.6,58.7
			c-4.9,3.5-4.9,7,0.1,10.5C345.7,887.3,345.9,889,346,890.8z"/>
		<path class="st4" d="M393.5,313.9c5.8,10.3,2.6,30.3-5.9,36.6c-4,3-8.9,1.4-13.4,1.8c-0.8-6.3,0.8-12.4,5.1-16.5
			C385.8,329.5,391.3,322.8,393.5,313.9z"/>
		<path class="st1" d="M305.8,883.4c-4.4,12.3,0.2,24.7-0.2,37c-1.2,0.2-2.3,0.3-3.5,0.5c-3.5-1.6-3.9-4.6-3.8-8
			c0.3-17.4-1.1-34.7,0.3-52.1c0.1-1.4,0.1-3-0.4-4.2c-0.9-2.1-2.9-4.4,0-5.8c2.7-1.3,4.9,0.5,6.1,3.2c0,1.2,0,2.3,0,3.5
			c0.3,2.4-2,5.4,1.8,6.9c-0.1,6-0.2,12-0.3,17.9c-0.5,0.2-1,0.3-1.4,0.5C304.9,883,305.3,883.2,305.8,883.4z"/>
		<path class="st1" d="M752.9,380.3c-6.3,0.2-10.8-1.7-12.9-8.6c-1.6-4.9-4.3-9.1-9.6-12.3c-5-3-3.3-9,2.1-12.4
			c0.5,0.1,0.9,0.1,1.4,0.1c0.7,5.4,5.7,7.5,8.5,11.2c3.6,4.7,6.4,10,9.5,15c-0.2,1.4-0.8,3,1.3,3.6
			C753.1,378,753,379.1,752.9,380.3z"/>
		<path class="st4" d="M603,170.3c-0.4,2.8-1.2,5.7-4.6,4.6c-3.7-1.2-6.6-1-9.6,1.5c-0.7,0.6-2.8,1-3.1,0.5c-3.4-4.2-8.1-5.9-13-7.6
			c-1.9-0.7-1-3.6-1.1-5.6c2.9-0.2,5.8-0.4,8.7-0.6c6.9-1.1,12.8,2.6,19.2,3.9c0.3,2.2,2.2,1.3,3.5,1.8l0-0.1
			C602.8,169.3,602.8,169.8,603,170.3z"/>
		<path class="st1" d="M457.9,600.9c-0.3-1.7-0.7-3.6-2.9-3.4c-2.2,0.2-2.3,2.1-2.4,3.8c-0.2,5.3-2.3,8.7-8.3,8
			c1.1-8.1,6.4-13.8,12.1-18.4c4.6-3.7,8.2-7.6,10.2-13.1c1.8,0.5,3.6,2.8,5.2-0.1c2.4,1.3,1.6,3.4,1.3,5.4
			c-5.5,4.6-7.6,11.2-10.2,17.5C461.3,600.7,459.6,600.8,457.9,600.9z"/>
		<path class="st1" d="M718,296.4c-3.2-4-6.9-7.1-7.8-13.2c-0.9-5.4-7.6-8.7-9.6-14.7c-0.9-2.6-1.4-4.9-1.4-7.4
			c3.8-0.1,6.5,2.1,8.9,4.6c0.2,3,2.3,4.1,4.9,4.6c1,4.9,5.7,8.3,5,13.8c0.2,2.4,0.4,4.7,0.6,7.1C718.4,292.9,718.2,294.6,718,296.4
			z"/>
		<path class="st1" d="M459.4,558.7c6.9,1.2,9.3-5.5,9.7-8.7c0.9-8.3,5.6-5.6,10-5.2c-7.6,8.6-7.5,19.1-7.6,29.6c-1.7,0-3.3,0-5,0
			C463.9,569.2,463,563.3,459.4,558.7z"/>
		<path class="st1" d="M736,420.6c-6.6-4.2-2-9.1,0.6-11.7c3.2-3.1,7.4-6.6,12.8-5.9C747.1,410.4,742.2,416,736,420.6z"/>
		<path class="st1" d="M426.7,537.6c3.1,0.9,6.3-1.6,9.6,1.1c4.7,3.8,4.6,6-0.9,8.2C429.8,546.4,429.2,541.1,426.7,537.6z"/>
		<path class="st5" d="M351.3,801.7c-2.9,0-5.7,0-8.6,0c2.1-4.5,1-9.3,1.6-13.9c0.5,0,1-0.1,1.5-0.1c4.4,2.1-1.7,11,6.8,10.5
			C352.9,799.6,353.2,801,351.3,801.7z"/>
		<path class="st1" d="M416.3,511c1.8-1.2,4.7-2,5.3-0.2c2.1,6.4,6,12.7,2.7,19.9c-2.1-3.9-3-8.1-3.2-12.5
			C421,514.8,419.6,512.3,416.3,511z"/>
		<path class="st4" d="M338.7,864.7c3.1,6.8,1.8,13.9,0.9,20.9C336.2,878.7,335.5,871.8,338.7,864.7z"/>
		<path class="st4" d="M394.7,299.8c3.7,4.5,7.4,9.1-1.3,12.3C393.6,308,391.5,303.6,394.7,299.8z"/>
		<path class="st1" d="M438.5,550.1c6.3-4.1,10.2-2,12.3,4.7C446.3,554.2,442,553.2,438.5,550.1z"/>
		<path class="st1" d="M634.4,196.6c-1.3,2.4-3.4,5-5.9,2.5c-2.4-2.5-1.3-5.4,2.7-6C632.3,194.2,633.3,195.4,634.4,196.6z"/>
		<path class="st1" d="M732,331.3c-6-1.9,0.2-5.8-1.3-8.5l-0.2-0.6c1.2,0.2,2.3,0.3,3.5,0.5l0,0c0.1,0.6,0.2,1.1,0.4,1.7
			c0,0.6,0,1.2,0,1.8C733.6,327.8,732.8,329.6,732,331.3z"/>
		<path class="st4" d="M466.5,574.4c1.7,0,3.3,0,5,0c0.1,1.1,0.2,2.2,0.4,3.4c-1.7,2.9-3.5,0.6-5.2,0.1
			C466.6,576.7,466.5,575.5,466.5,574.4z"/>
		<path class="st1" d="M662.3,896c2.3,1.6,2.4,3.4,0.2,5.2C659.7,899.6,659.8,897.9,662.3,896z"/>
		<path class="st5" d="M341,822.6c1.7,0.3,3.2,0.9,2.9,3c-0.2,1.7-1.6,2-2.9,2.2C341,826.1,341,824.4,341,822.6z"/>
		<path class="st1" d="M441.8,614.5c3.2,3,2.3,4.6-1.7,5.2C440.9,618,439.2,615.5,441.8,614.5z"/>
		<path class="st5" d="M461.7,871.7c-0.1-0.7-0.2-1.3-0.3-2c0.8-1.4,2.1-1.7,3.6-1.7C465,870.3,464.2,871.8,461.7,871.7z"/>
		<path class="st5" d="M342.5,815.7c2.5,2.6,0.5,3.1-1.6,3.5C340.6,817.6,340.4,816.1,342.5,815.7z"/>
		<path class="st4" d="M341,896c1.1,0.2,2.4,0.3,2.4,1.8c0,1.4-1.3,1.6-2.5,1.7C341,898.4,341,897.2,341,896z"/>
		<path class="st6" d="M467.5,864.5c0,0,0.2,0.5,0.2,0.5c-0.9,0.5-1.8,1.1-2.7,1.7C465.8,865.9,466.6,865.2,467.5,864.5z"/>
		<path class="st1" d="M429.8,627.2c-0.7,0.4-1.3,0.9-2,1.3C428.1,627.5,428.5,626.7,429.8,627.2z"/>
		<path class="st1" d="M433.3,625.3c-0.6,0.5-1.3,1-1.9,1.4C431.6,625.6,432,624.9,433.3,625.3z"/>
		<path class="st1" d="M609.9,177.5c5.6,2.9,5.6,5.8,0,8.7C609.9,183.3,609.9,180.4,609.9,177.5z"/>
		<path class="st4" d="M662.5,811.8c-1.3,5.4-4.8,10.3-3.7,16.2c-1.7,0-3.4-0.1-5.1-0.1c-0.8-6.8-3.7-8.8-8-5.7
			c-4.6,3.4,3.1,5.5,0.9,8.7c-0.5,0.3-1,0.5-1.5,0.4c-0.7,0.5-1.3,0.9-2,1.4c-12.1,2.7-23.3,8.4-35.4,11.3
			c-5.8,1.4-11.2,0.9-17.8,0.8c4.6-9.6,8.7-18.6,13-27.3c2.6-5.2,2.4-8.1-4.6-7.4c-3.7,0.4-7.5-0.1-11.3-0.1c-3-4.7-7.4-4.6-12-3.5
			c-12-2.2-21.2-9.7-30.5-16.6c-2.6-1.9-2.5-5.3,2.1-5.8c0.6-0.4,1.3-0.9,1.9-1.3c9.1-4.2,18.3-8.4,27.4-12.6
			c0.8-0.5,1.6-0.9,2.3-1.4c1.2-0.7,2.3-1.4,3.5-2.1c0.6-0.5,1.2-1,1.8-1.5c1.3-1.2,2.6-2.5,3.9-3.7c3.7,0.1,5.8-1.1,3.9-5.2
			c-1.1-2.3-2.2-5.8-5.2-4.9c-5,1.5,0.5,5.4-0.9,8c-3.4,1.7-5.7-1.8-8.7-1.7c-0.8-4.3-4.3-3.1-7-3.1c-3.6,0-5.5-1.2-5.2-5
			c6-2.6,10.9-7.5,17.5-9c3,2.7,3.2,0.3,3.4-1.9c8-6.9,16-13.8,24-20.7c0.6,1.7,0.1,4.5,2.9,4.2c2.4-0.2,2.9-2.3,2.6-4.5
			c-0.3-1.6-0.9-3.2-1.3-4.8c0.6-0.7,1.1-1.3,1.7-2c3.6,1,7.7,2.3,10.5-0.8c2.1-2.5-2.6-3.9-2.6-7c3.2,0.2,7.2,0.8,6.2-4.5
			c8.2,18.4,17.3,36.5,22.8,56c-2.8,2.2-5.6,4.5-8.9,7c4.4,3.4,9.2-3,12.4,2c0,4.5,0,9,0,13.5c-1.4,2.5-7.2,2.4-4.9,6.7
			c2.2,4.1,3.7-2.4,6.2-1.2c0.1,1.1,0.3,2.2,0.4,3.3c0.4,1.2,0.8,2.4,1.2,3.7c0.6,2.4,1.3,4.7,1.9,7.1c-1.9,1.7-1.9,3.5,0,5.2
			c0.3,0.5,0.4,0.9,0.4,1.5c0.5,0.7,0.9,1.3,1.4,2C662.2,807.3,662.3,809.6,662.5,811.8z M590.7,740.4l-0.4-0.7l-0.3,0.3
			C589.9,740,590.7,740.4,590.7,740.4c0.2,1.9-0.5,4.3,2.3,4.9c1.2,0.3,2.5-0.4,2.3-1.8C594.9,741.6,593.4,740.8,590.7,740.4z
			 M569.2,795.3c-0.2,0.5-0.7,1.1-0.6,1.4c0.1,0.4,0.9,0.5,1.4,0.7c0.2-0.5,0.7-1.1,0.6-1.4C570.4,795.6,569.7,795.5,569.2,795.3z
			 M605.1,731.1c0.2-0.5,0.7-1.1,0.5-1.4c-0.1-0.3-0.9-0.5-1.4-0.7c-0.2,0.5-0.7,1.1-0.5,1.4C603.8,730.7,604.6,730.8,605.1,731.1z"
			/>
		<path class="st6" d="M442.1,875.3c-13.3,7.5-16.8,3.1-19.2-12.1c-1.5-9.3-0.7-19-0.9-28.5c2.5-1.1,3.9,1.3,5.9,1.9
			c0.1,1.1,0.7,1.7,1.9,1.5c4,4,8.9,6.4,14.1,8.5c2.8,1.1,3.4-1.1,5-1.7c6,11.8,5.6,15.1-4.4,24.4C442.5,871.2,442,873,442.1,875.3z
			"/>
		<path class="st1" d="M629.2,698.3c1,5.4-3,4.7-6.2,4.5c0,3.2,4.8,4.6,2.6,7c-2.7,3.1-6.8,1.8-10.5,0.8c2.4-4.1,4.8-8.2,7.3-12.3
			c2.8,0.1,5-0.5,5.1-3.8C629.6,695.2,629.2,696.9,629.2,698.3z"/>
		<path class="st4" d="M480.6,674.5c-2.5,2.6-2.9,6.9-6.9,8.3c-3.6-0.1-4.2-3.1-5.5-5.5c1.7-1.7,3.5-3.4,5.2-5
			C475.8,673,478.2,673.8,480.6,674.5z"/>
		<path class="st1" d="M646.6,831c2.2-3.2-5.5-5.3-0.9-8.7c4.3-3.2,7.2-1.1,8,5.7C652.1,830.9,648.8,829.6,646.6,831z"/>
		<path class="st7" d="M503.3,801.4c7.7-2.4,13.8-1.2,15.7,3.2C513.6,804.5,507.6,807,503.3,801.4z"/>
		<path class="st1" d="M622,695c-1.7-4.1-3.5-8.2-5.2-12.3c1.8-0.7,3-2,3.7-3.8c2.1,3.4,5.1,6.3,4.9,10.7
			C621.2,689.6,625.2,694.5,622,695z"/>
		<path class="st1" d="M480.6,674.5c-2.4-0.8-4.8-1.5-7.2-2.3c1.3-2.7,2.1-5.7,5.2-7c2,1.1,4.3,1.6,5.5,3.8
			C484,671.5,482.7,673.3,480.6,674.5z"/>
		<path class="st1" d="M585.4,759.3c1.5-2.6-4-6.4,0.9-8c3-0.9,4.1,2.6,5.2,4.9c1.8,4-0.3,5.2-3.9,5.2
			C586.8,760.7,586.1,760,585.4,759.3z"/>
		<path class="st1" d="M564.4,749.4c-0.3,3.8,1.6,5.1,5.2,5c2.7,0,6.2-1.2,7,3.1c-4.6,0.6-9.2,0.8-13.2-1.9
			C559.3,753,560.4,750.9,564.4,749.4z"/>
		<path class="st5" d="M484.1,669c-1.2-2.2-3.5-2.7-5.5-3.8c2.3-2.4,4.7-4.8,7-7.2c0.8,2.3,1.6,4.5,2.4,6.8
			C487.5,666.9,486.2,668.3,484.1,669z"/>
		<path class="st4" d="M620.5,679c-0.7,1.8-1.9,3-3.7,3.8c-2.1-1.9-3.3-4.2-3.2-7.1c1.6-0.6,3.2-1.1,4.8-1.7
			C619.3,675.6,621.1,676.8,620.5,679z"/>
		<path class="st1" d="M613.5,712.7c0.5,1.6,1.1,3.2,1.3,4.8c0.4,2.1-0.2,4.2-2.6,4.5c-2.9,0.3-2.3-2.5-2.9-4.2
			C609.6,715.2,611.2,713.6,613.5,712.7z"/>
		<path class="st1" d="M496.3,739.4c-0.2,1.5,0.2,4.4-2,3.8c-3-0.9-6.5-2.2-6.7-6.4C490.6,737.4,494.2,735.9,496.3,739.4z"/>
		<path class="st7" d="M510.5,755.2c-0.1-2.7-0.2-5.4-0.3-8.1c1.1,0.4,2.4,0.5,3.1,1.2c1.8,1.7,5.1,3.3,4.1,5.9
			C516.3,757,513,755.5,510.5,755.2z"/>
		<path class="st5" d="M468.2,677.3c1.3,2.4,1.9,5.4,5.5,5.5c-0.7,1.1-1.5,2.3-2.2,3.4c-2.6-0.2-4.3-1.6-5.2-4
			C463.6,679.3,466.4,678.5,468.2,677.3z"/>
		<path class="st4" d="M622,695c3.2-0.5-0.8-5.5,3.3-5.3c0.7,1.6,2.6,2.7,2.1,4.9c-0.1,3.4-2.3,4-5.1,3.8
			C622.3,697.3,622.2,696.2,622,695z"/>
		<path class="st1" d="M575.2,806.5c4.6-1,9-1.2,12,3.5C582.7,810.4,578.8,809,575.2,806.5z"/>
		<path class="st4" d="M493.2,758.1c2.1-4.3,4.9-4.1,8.2-1.4C499,759.4,495.9,757.8,493.2,758.1z"/>
		<path class="st1" d="M476.9,726.4c-1.8-1.5-1.5-2.9,0.2-4.1c2.1-1.4,3,0,3.7,1.8C479.5,724.9,478.2,725.7,476.9,726.4z"/>
		<path class="st1" d="M484.4,700.1c-4.2,0.6-6.1-1.1-5.5-5.4C480.7,696.5,484.1,696.7,484.4,700.1z"/>
		<path class="st1" d="M585.4,738.5c-0.3,2.2-0.5,4.6-3.4,1.9C582.2,738.2,584.1,739,585.4,738.5z"/>
		<path class="st6" d="M458.5,863.8c-0.5,0.1-0.7,0.2-1,0.3c-0.1-0.2-0.1-0.4-0.2-0.7C457.6,863.6,458,863.7,458.5,863.8z"/>
		<path class="st6" d="M461,846.2c0,0.4,0,0.9,0.1,1.3c-0.7,0-2.1,0.1-2.2,0C458.6,845.7,459.9,846.1,461,846.2z"/>
		<path class="st7" d="M522.5,804.5c0.4-0.4,0.9-0.7,1.3-1.1C524,804.5,523.6,805,522.5,804.5z"/>
		<path class="st1" d="M548.7,782.8c-0.6,0.4-1.3,0.9-1.9,1.3C546.9,783,547.5,782.3,548.7,782.8z"/>
		<path class="st1" d="M578.4,768.8c-0.8,0.5-1.6,0.9-2.3,1.4C576.5,769.2,577.1,768.4,578.4,768.8z"/>
		<path class="st1" d="M583.7,765.1c-0.6,0.5-1.2,1-1.8,1.5C581.9,765.5,582.4,764.9,583.7,765.1z"/>
		<path class="st1" d="M492.8,717.4c0.5-0.5,1-1,1.5-1.5C494.7,717.4,494,717.7,492.8,717.4z"/>
		<path class="st1" d="M643.1,832.8c0.7-0.5,1.3-0.9,2-1.4C644.9,832.5,644.3,833.1,643.1,832.8z"/>
		<path class="st0" d="M359.7,745.6c0.1-0.6,0.3-1.1,0.5-1.6c5.7,0,11.4,0,17.2,0.1c1.2,0,2.4,0,3.6,0.1c1.3,1.9,3.3,1.6,5.2,1.6
			c5.5,3.2,11.7,1,17.5,2.1c1.5,4.5,4.1,3.8,7,1.5c1.2,0.1,2.3,0.1,3.5,0.2c0.4,2.6-1,6.2,3.4,6.8c0,1.7-0.1,3.5-0.1,5.2
			c-2.2,0.4-4.2,0.9-1.6,3.5c-0.6,4.7-1.2,9.3-1.8,14c-0.5,0.6-1.1,1.2-1.6,1.8c-0.1,3.5-0.1,7-0.2,10.5c-0.5,0.6-1,1.2-1.5,1.7
			c0,1.2,0,2.3-0.1,3.5c-5.5,2.9-5.4,5.8-0.1,8.8c0,4.7,0,9.3,0,14c-0.5,0.6-1,1.2-1.5,1.8c2.1,8.6,1.7,17.4,1.6,26.1
			c-1.7,1.2-1.7,2.3,0,3.5c-0.4,8.2,1.5,15.8,4.5,23.5c2.7,7.1,6.4,14.3,6.1,22.3c-0.1,4.6-1,8.5-7,5c-0.6-0.6-1.2-1.2-1.7-1.8l0,0
			c-1.5-10-1.8-10.1-10.3-3.7c-1.2,0.1-2.3,0.2-3.5,0.3c-6.6-8-10.4-3.1-14.1,3c-1.2,0.1-2.3,0.2-3.5,0.3c-0.7-1.2-1.2-1.1-1.7,0.2
			c0,0.5-0.1,1.1-0.1,1.6c-3.7-0.3-5.5,1.3-5.2,5.1c0,0-0.2,0.1-0.2,0.1c-2.2,0-4.4,0-6.6,0c-0.6-3.5-1.3-7-1.9-10.5
			c-0.5-1.8,1.1-5.8-3.5-3.5c-1.8,0-3.5,0.1-5.3,0.1c-1.3-2.2-1.8-5.2-5.3-5.3c-0.4-3.7-1.5-7.4-1.2-11.1
			c2.6-32.6,5.4-65.2,8.2-97.7c0.1-1.7,0.9-3.4,0.8-5.1C358.6,764.1,364.5,755,359.7,745.6z"/>
		<path class="st0" d="M471.8,577.7c-0.1-1.1-0.2-2.2-0.4-3.4c0.1-10.5,0-21,7.6-29.6c0.5,0,1-0.1,1.4-0.4c2.9,0.8,4.4-1.3,6.9-3.3
			c-3.4,0.2-6,0.3-8.6,0.4c-5.7,0.1-10.9-1.2-15.3-4.9c-2.5-2.6-4.9-5.3-7.4-7.9c0-0.6-0.1-1.1-0.4-1.6c0.3-1.5,0.3-2.9-1.3-3.6
			c-0.1-2.8-0.3-5.7-0.4-8.5c0-3.5,0.1-7,0.1-10.5c1.3-3.4,2.5-6.8,3.8-10.2c1.8-1.8,3.7-3.7,5.5-5.5c2.2-1.3,4.4-2.5,6.6-3.8
			c2.9,0,5.8-0.1,8.8-0.1c1.6,0.8,3.2,1.5,4.9,2.3c0.5,0.8,1,1.7,1.4,2.5c-2.7,1.3-5.2-0.2-7.5-1.1c-6.3-2.3-9.2,1.4-12.6,6
			c14.2,0.3,15.5,0.8,18.9,6.6c-1.9-0.5-3.8-1-5.8-1.5c-12.4-3.2-18.5,2-18.7,14.8c-0.1,7.6,5.4,11,9.1,16c1.6,9.6,8.7,4.9,13.8,5.4
			c4.3,0.1,9.9-1.2,11.5,3.8c1.5,5-4.1,6.1-7.4,8.2c-6.1,3.8-9.1,9.1-9.5,16.5c-0.5,9.7,1.4,19.1,2,28.6
			c0.8,12.9,6.1,23.6,15.1,33.2c11.5,12.2,24.4,23.4,32.4,38.5c3.8,7.2,6.5,5.4,10.4,0.3c7-8.9,14.8-17.1,21.6-26.1
			c7.5-9.9,16.4-19.4,19.1-31.8c2.4-11.2,9.1-18.3,17.7-24.6c2.8-2,5-4.8,7.1-7.5c0.7-0.9,0.5-3,0-4.1c-0.8-1.6-2.4-1-3.8-0.4
			c-7.2,3.2-15.1,3.4-22.5,6.4c-11.7,4.8-24.4,6.9-35.9,12.6c-4.5,2.2-10.4,1.2-13.2-3.7c-2.6-4.4,2-7.2,5-8.7
			c18.8-9.8,39.2-15.9,59.4-21.2c14.6-3.8,30.4-3.4,45.8-4c22.5-0.9,44.2-4.6,64.2-15.9c4.8-2.7,7.6-6.2,9.3-11
			c3.2-8.9,1.8-17.8-0.6-28.8c-3.8,8.2-8.6,10.8-15.8,10.3c-5-0.4-9.8-1.2-14.6-2.3c-10.8-2.5-23.7,0.9-31.8-10.5
			c-1.6-2.2-2.8,0.5-3.8,1.7c-13.3,16.5-30.6,26.4-51.1,30.5c-10.5,2.1-20.4,7.2-31.4,6.4c-7.7-0.5-15.9-1.8-19-9.8
			c-3-7.9-1-16.2,4.9-22.8c2.1-2.4,4.9-4,7.2-6.2c5.3-5.1,12.5-6.1,18.8-8.8c16.5-7,31.6-19.3,51.5-15.3c4.3,0.9,8.7-0.2,12.8-1.9
			l0.4,0.4c7.3,7.1,8.7,17.6,15,25.2c3.3,4,7.6,6.1,12.7,6c7.8-0.1,15.3,1.3,22.8,3.2c5.7,1.4,12.7,0.8,15.1-4.9
			c2.6-6.2-0.9-11.5-7.5-14.4c-8.1-3.6-15.8-8.1-23.9-11.7c-5.9-2.6-6.3-4.3-0.9-8.6c6.9-5.5,13.2-11.9,10.3-22.6
			c-1.3-4.6,3.7-5.7,6.7-5.6c3.7,0,9-2.9,10.7,3.9c5.5,22.5,11.5,44.8,16.8,67.4c3.9,16.7-1.9,28.9-17.3,36.3
			c-13.1,6.3-26.6,10.9-41.8,11.8c-12,0.7-24,4.8-36.4,4.3c-0.4-1-1.1-1.4-2.1-0.7c-6.7,0.8-13.5,1.5-20.2,2.3c-2-1-3.6-0.8-4.3,1.7
			c-22.3,2.9-43.2,10-64.6,21.3c4.7,2.7,7.1,1.6,9.8,0.8c17.8-5.3,35.5-10.5,53.4-15.4c4.5-1.2,10.8-3.7,13.3,1.2
			c2.8,5.5-0.5,10.9-6.2,14.4c-10.1,6.4-16.1,15.4-19.9,27c-6,18.2-19.5,32-31.2,46.7c-5.1,6.3-10.7,12.2-15.9,18.4
			c-3,3.5-5,2.7-6.5-1.2c-6.9-17.4-19.8-30.3-32.6-43.2c-7-7.1-14.1-14.3-16.7-24.4c-0.7-2.2-1.3-4.4-2-6.6c0.5-1.1-0.3-1.5-1.2-1.9
			c-0.2-5.2-0.3-10.3-0.5-15.5C473.4,581.1,474.2,579,471.8,577.7z M621.1,473.1c-5.9-0.3-10.2,0.2-14.3,1.7
			c-17.3,6.4-34,14.1-50.4,22.6c-6.1,3.2-8.9,8.6-11.3,14.7c-2.3,5.9-0.1,9.5,4.6,12.8c5.8,4,12.3,5.4,18.9,3.6
			c12.3-3.3,24.4-7.5,36.7-10.8c11.7-3.2,20.9-10.3,29.6-18.2c4.7-4.3,7.7-9.6,5.5-16.1c-2.3-7-8.8-8.6-15-10.1
			C623.7,472.7,621.6,473.1,621.1,473.1z M707.8,484.7c-3.6-14.1-7-27.4-10.5-40.7c-0.4-1.6-1.5-3.3-2.8-4.3
			c-3.5-2.7-7.4-0.6-7.1,2.5c0.7,8.3-4,13.4-8.7,18.7c-3.4,3.9-2.8,6.5,1.7,8.9C689.2,474.4,697.9,479.3,707.8,484.7z"/>
		<path class="st6" d="M410.5,686c-3.3,5.7-7,10.9-13,14.5c-3.5,2.1-5.8,6.6-5.7,10.1c0.1,4,4.9,4.9,8.7,5.3
			c3.6,0.4,3.3,1.3,1.8,4.4c-7.7,15.5-27.1,20.1-41.1,10c-6.4-4.7-4.1-10.5-3.1-16c3.6-18.9,7.9-37.6,20.8-53
			c5-6,11.5-9.4,17.8-13.4c1.2-0.7,2.9-3.9,4.9-1.2c1.5,2,0.2,3.7-1.4,5.3c-6,5.9-11.9,11.9-17.8,17.9c-1.4,1.4-3.1,2.7-4.2,4.4
			c-3.5,4.9-3.1,8.5,3.8,9.2c2.6,0.3,5.2,0.6,7.8,1C396.4,688.2,403.6,685.5,410.5,686z"/>
		<path class="st6" d="M468.2,677.3c-1.8,1.2-4.6,2-1.9,5c-6.3,4-9.2,1.2-10.2-5.2c-1.8-12-7.5-22.8-10.4-34.4
			c1.2-0.5,3,0.1,3.5-1.8c8.9,0,17.1-2.3,24.6-7.1c3.8,0,7.6-0.5,11.3,0.1c5.2,0.9,8.3,5.5,10.7,9.3c2.2,3.5-3.3,5.2-5.1,7.8
			c-1.6,2.4-3.3,4.7-4.9,7c-2.3,2.4-4.7,4.8-7,7.2c-3.1,1.3-3.9,4.3-5.2,7C471.7,673.9,469.9,675.6,468.2,677.3z"/>
		<path class="st0" d="M380.9,744.1c-1.2,0-2.4,0-3.6-0.1c0.1-0.8,0.1-1.6,0.2-2.3c11.8-0.3,23.1,4.9,35,3.5
			c1.9,3.9,5.8,1.1,8.4,2.5c0,0.5,0.1,1,0.4,1.5c-1.1,2.3,0.9,3.6,1.7,5.3c-0.5,2.3-1.1,4.6-1.6,7c-3.5,7.8-4.6,16.1-5.4,24.5
			c-0.1,1.7-0.2,3.5-0.2,5.2c-3,1.8-1.4,4.6-1.5,7c-0.1,1.2-0.2,2.3-0.4,3.5c-1.3,2.9-1.7,5.9-0.3,8.8c0,6.3-0.1,12.6-0.1,19
			c-1.7,4.2-1.4,8.3,0.2,12.4c0.1,1.8,0.1,3.5,0.2,5.3c-1.6,3.4-1.4,6.9,0,10.3c2,13.3,8.1,25.3,11.6,38.2
			c1.7,6.1-0.7,10.1-4.7,13.3c-3.8,3.1-5.9-1.9-8.7-3.4c-3.7-1.9-6.6-8.4-10.7-5.5c-3.8,2.8-1.7,9-0.6,13.7
			c2.8,12.7,0.3,19.5-8.6,23.9c-5.7-11.5-4.2-24.1-4.9-36.3c4.2-0.2,6.5,2.5,5.2,5.9c-1.9,5.1-0.3,9.6,0.3,14.4
			c0.3,2.1-0.7,5.5,2.7,5.2c3.6-0.3,4-3.5,3.4-6.6c-1.6-8-0.6-16.1-0.7-24.2c1.2-0.1,2.3-0.2,3.5-0.3c4.2-0.8,6.6,3.4,10.3,3.7
			c0,0,0,0,0,0c0.6,0.6,1.2,1.2,1.7,1.8c6,3.4,6.9-0.5,7-5c0.2-8-3.4-15.2-6.1-22.3c-3-7.7-4.9-15.3-4.5-23.5c0-1.2,0-2.3,0-3.5
			c0.1-8.8,0.5-17.5-1.6-26.1c0.5-0.6,1-1.2,1.5-1.8c0-4.7,0-9.3,0-14c0-2.9,0.1-5.8,0.1-8.8c0-1.2,0-2.3,0.1-3.5
			c0.5-0.6,1-1.2,1.5-1.7c0.1-3.5,0.1-7,0.2-10.5c0.5-0.6,1.1-1.2,1.6-1.8c0.6-4.7,1.2-9.3,1.8-14c1.4-0.8,1.7-2,1.6-3.5
			c0-1.7,0.1-3.5,0.1-5.2c-0.2-2.7,1.5-6.4-3.4-6.8c-1.2-0.1-2.3-0.1-3.5-0.2c-1.9-2.6-4.5-1.6-7-1.5c-5.8-1.1-11.9,1.1-17.5-2.1
			C384.8,743.7,382.8,744,380.9,744.1z"/>
		<path class="st0" d="M359.7,745.6c4.8,9.4-1.1,18.5-0.7,27.8c0.1,1.7-0.7,3.4-0.8,5.1c-2.8,32.6-5.6,65.1-8.2,97.7
			c-0.3,3.6,0.8,7.4,1.2,11.1c0.5,2.7-1.3,6.1,1.6,7.9c1.7,1.1,2.9-1.1,3.7-2.6c1.8,0,3.5-0.1,5.3-0.1c0.6,1.7,1.8,2.9,3.5,3.5
			c0.6,3.5,1.3,7,1.9,10.5c0.8,6.3,4.4,1,6.6,1.5c0.5,0.4,0.9,0.9,1.4,1.3c-9,7.6-8.9,7.6-11.5-3.8c-0.7-3-2.7-5.7-1.4-9.8
			c-5,1.6-8.2,3.8-7,8c1,3.5,1.3,6.7,0.9,10.7c-7.3-6.6-6.6-16-9.9-23.6c-0.2-1.7-0.3-3.5-0.5-5.2c0-3.5,0-7-0.1-10.5
			c2.2-19.5,1.6-39.3,5.6-58.7c0.4-1.9-0.2-4-0.3-6c0-1.1,0-2.3,0-3.4c0.2-1.7,0.4-3.5,0.6-5.2c2-0.6,1.6-2.1,1.3-3.6
			c-1.4-15.9,4.2-31.3,3.7-47.1C356.2,748.3,357.4,746.7,359.7,745.6z"/>
		<path class="st5" d="M416.1,785.9c0.8-8.4,1.9-16.7,5.4-24.5c1.1,0.2,2.7,0,3.3,0.7C428.1,766.1,421.3,784.6,416.1,785.9z"/>
		<path class="st6" d="M457.9,600.9c1.7-0.1,3.4-0.2,5.1-0.3c1,2.5-1.7,3.9-1.8,6.1c-1.9,1.6-3.7,3.2-3.4,6.1c0,0-0.4,0.6-0.4,0.6
			c-1.2,0.8-2.9,1-2.8,2.9c-1.7,3-3.1,6.3-5.9,8.6c-0.5-0.1-1,0-1.4,0.4c-2.1-1.3-1.7-2.5-0.2-4.1
			C452.5,615.4,455.5,608.3,457.9,600.9z"/>
		<path class="st6" d="M440.1,639c-3.8,12.2-9-1.4-13.9-0.2c2.9-1.8,5.9-3.6,8.8-5.4C437.7,634.4,437,638.4,440.1,639z"/>
		<path class="st6" d="M410.5,686c-6.9-0.5-14.1,2.2-20.8-1.6C396.8,682.8,404,680.5,410.5,686z"/>
		<path class="st8" d="M377.5,741.7c-0.1,0.8-0.1,1.6-0.2,2.3c-5.7,0-11.4,0-17.2-0.1c-0.7-2.7,0.5-3.7,3.1-3.5
			C368.1,740.7,373,739.1,377.5,741.7z"/>
		<path class="st1" d="M440.1,639c-3.1-0.6-2.5-4.6-5.1-5.6c4.2-3.5,8.3-1.3,10.5,5.7C443.7,640.2,441.9,640,440.1,639z"/>
		<path class="st5" d="M421,747.6c-2.6-1.4-6.5,1.4-8.4-2.5C416.1,743.6,419.6,741.9,421,747.6z"/>
		<path class="st5" d="M414.3,798.1c0.1-2.4-1.5-5.2,1.5-7C418.3,794.1,418.9,796.7,414.3,798.1z"/>
		<path class="st5" d="M423.1,754.4c-0.8-1.7-2.8-3-1.7-5.3c1.8,0.2,4.1-0.4,4.6,2.2C426.4,753.5,424.8,754.1,423.1,754.4z"/>
		<path class="st1" d="M457.7,612.8c-0.3-2.8,1.5-4.5,3.4-6.1c0,1.7,0,3.4,0.1,5.1C461.6,617.5,459.2,613.4,457.7,612.8z"/>
		<path class="st4" d="M413.7,810.5c-1.4-3-1.1-5.9,0.3-8.8c0.2,1.7,0.4,3.5,0.6,5.2C414.3,808.1,414,809.3,413.7,810.5z"/>
		<path class="st1" d="M449.1,640.9c-0.5,1.9-2.3,1.3-3.5,1.8c0-1.2,0-2.4-0.1-3.7C447,639.1,448.4,639.4,449.1,640.9z"/>
		<path class="st1" d="M447.3,625.3c0.4-0.4,0.9-0.5,1.4-0.4c0.5,0.6,1,1.2,1.4,1.9c0.1,0.1-0.7,1-1,0.9
			C447.6,627.6,447.5,626.4,447.3,625.3z"/>
		<path class="st1" d="M452.1,683.4c0.5,0.2,1.2,0.3,1.4,0.7c0.1,0.3-0.3,0.9-0.6,1.4c-0.5-0.2-1.2-0.3-1.4-0.7
			C451.4,684.5,451.9,683.9,452.1,683.4z"/>
		<path class="st1" d="M454.6,616.3c-0.1-2,1.6-2.2,2.8-2.9C457.5,615.4,456.3,616.1,454.6,616.3z"/>
		<path class="st5" d="M429.8,838.2c-1.2,0.2-1.8-0.4-1.9-1.5C428.5,837.2,429.2,837.7,429.8,838.2z"/>
		<path class="st1" d="M473.6,598.6c0.8,0.4,1.6,0.8,1.2,1.9C474.4,599.9,474,599.2,473.6,598.6z"/>
		<path class="st6" d="M627.5,694.7c0.5-2.2-1.4-3.3-2.1-4.9c0.3-4.4-2.8-7.4-4.9-10.7c0.6-2.2-1.2-3.4-2.1-5
			c-2.8-6.7-5.2-13.7-8.6-20.2c-3.2-6.1-3.5-12.5-3.5-19c0-4.2,1.2-5.6,5-2.6c6,4.8,12.3,9.4,18.3,14.2c5.2,4.2,3.8,10.6,2.7,15.3
			c-1.1,4.9-1,9.7-1.7,14.5c-1.2,8.6,3.4,12.1,11.1,11.2c6.6-0.8,6.2,2.3,5.9,7c-1,17.8,1.3,19.3,17.1,11.2c0.3-0.1,0.5-0.2,0.8-0.3
			c15-7.9,17.1-7.1,22.6,9.5c1,3.1,1.1,6.3-1.6,8.8c-11,10.3-21.9,20.5-32.9,30.7c-0.3,0.3-1.1-0.1-1.7-0.2
			c-5.6-19.5-14.6-37.6-22.8-56C629.2,696.9,629.6,695.2,627.5,694.7z"/>
		<path class="st0" d="M647,257.1c6.1-2.8,7,2.6,8.3,6c3.9,10,7.2,20.3,10.9,30.4c3.9,10.5,8.8,20.4,16.9,28.5
			c1.6,1.6,3.3,3.4,4.4,5.3c3.4,5.8,4.5,11.9,1.1,18c-3.8,7.1-10.2,3.7-15.7,3.5c-4.2-6.7-11.4-5.2-17.7-6.5
			c-8.8,0.4-18-3.2-26.3,2.7c-1.1,0.2-2.2,0.4-3.4,0.6c-2.7,1.2-5.6,1.9-7.3,4.7c0,0,0.1-0.1,0.1-0.1c-1.1,0.7-2.2,1.3-3.3,2
			c-1.4,1-3,1.7-4.2,2.9c-9.8,10.1-10.3,10.3-22.5,3.6c-10.9-5.2-22.5-7.1-34.4-7.5c-3.1-1.1-6-1.1-8.9,0.7
			c-6.8,0-13.2,1.8-18.8,5.7c-8.2,2.3-12.4,10.1-19.2,14.2c0.5-2.4,1-4.8,1.5-7.1l0,0c3.4-0.3,5.4-2.5,6.8-5.4
			c18.2-14.3,53.2-16.9,73.2-5.3c6.5,3.8,11.6,6.2,18.8-0.8c17-16.3,37.5-20.6,60.2-13.1c3.3,1.1,6.5,2.4,9.8,3.5
			c2.4,0.8,4.8,2.1,7.2-0.4c2.3-2.4,2.7-5,1.5-8c-1-2.7-1.9-5.3-3.8-7.7c-5.4-6.7-10.9-13.5-14.4-21.6c-5-11.3-10.7-22.2-13.1-34.6
			c-1.6-8.3-5.9-8.9-12.5-3.3c-11.1,9.4-22.5,19.7-37.4,20.5c-20.7,1.1-36.7,10.5-51.4,23.4c-8.4,7.4-17.8,8.2-27.7,6.5
			c-4.7-0.8-9.2-1.2-13.8-0.9c-0.6,0.5-1.2,1-1.7,1.6c-1.8,4.7-3.5,9.3-5.3,14c-2.5,1.9-1.5,4.5-1.5,6.9c0,1.8-0.1,3.6-0.1,5.3
			c0,5,0.1,9.9-0.2,14.8c-0.2,2.9,1.6,6.8-3.2,7.8c-3.7-2.6-0.1-5.9-0.9-8.7c0.1-1.2,0.1-2.4,0.2-3.6c0.9-2.2,0.9-4.5,0.1-6.7
			c-0.1-1.8-0.2-3.5-0.3-5.3c0-1.2,0.1-2.4,0.1-3.6c0.7-7.1,1.7-14.1,4.2-20.8c3.7-5.8,10.5-4.5,15.7-7c0.5-0.1,1-0.2,1.6-0.1
			c1.9,3.9,5.3,3.7,8.9,3.3c2.9,0,5.8-0.1,8.8-0.1c1.2,0.2,1.8-0.4,2.2-1.5c1.7-0.3,3.9,0.8,4.8-1.7c0.7-0.5,1.4-1,2-1.5
			c0,0,0,0.1,0,0.1c10.7-6.7,19.9-15.5,31.2-21.5c1.2-0.1,2.4-0.2,3.5-0.2c1.1,0.2,1.7-0.3,1.9-1.3c2.3-0.1,4.5-0.3,6.8-0.4
			c1.1,0.2,1.7-0.2,1.9-1.3c0.6-0.1,1.1-0.3,1.6-0.7c5.7,1.5,11,0.6,15.9-2.6c1.9-0.3,4.1,0.4,5.1-2.1c9-2.4,15.3-8.6,21.2-15.2
			C641.6,264.8,643.1,259.3,647,257.1z"/>
		<path class="st0" d="M657.2,785.7c-0.1-1.1-0.3-2.2-0.4-3.3c0-1.9,1-4.1-1.3-5.5c0-4.5,0-9,0-13.5c6.6-5.5,13.6-10.7,19.8-16.7
			c3.7-3.6,5.6-3,6.3,1.3c2.5,15.7,9.5,30.4,9.1,46.8c-0.2,10.1,6.7,18.5,10.4,27.6c-0.2,0.2-0.4,0.4-0.6,0.6
			c-10.6-6.6-11.9-18.1-13.2-28.5c-1.6-12.3-4.3-24.5-6.2-36.7c-0.4-2.3-1.7-7.1-6-5.2c-10.1,4.5-16.3,16.3-14.2,26.1
			c4.5,20.6,9.1,41.1,13.7,61.7c0.4,1.6-0.2,3.8,2.1,4.2c1.6,0.2,2.5-1.3,3.2-2.5c4.1-7,9.1-6.5,15.3-2.3c5.7,3.9,12,7,18.3,10
			c4.3,2.1,9.3,1.3,12-2.4c3.5-4.9-4-4.1-4.9-7c-0.2-0.6-0.5-1.1-0.7-1.6l0.5-0.6c2.2,0.7,4.6,1.1,6.4,2.3c4.5,2.8,5.9,6.1,1.1,10.3
			c-4.9,4.3-10.4,6-16.3,3.2c-6.2-2.9-12.3-6.1-18-10c-5.8-4-9.9-5.5-12.4,3.1c-1,3.3-3.2,6.1-4.9,9.2c-0.6-0.1-1.2-0.3-1.8-0.4
			c-0.5-0.6-1.1-1.2-1.6-1.8c-0.7-2.9-1.4-5.8-2.2-8.7c0.3-1.2-0.5-1.6-1.3-2c0.1-7.2-1.7-14-4-20.8c0.1-1.9,0.8-3.9-1.3-5.3
			c-0.4-1.9,1-4.3-1.7-5.4c-0.1-2.2-0.3-4.5-0.4-6.7c0.3-1.2-0.5-1.6-1.4-2c0.1-0.5,0-1-0.4-1.5c0-1.7,0-3.4,0-5.2
			c-0.6-2.4-1.3-4.7-1.9-7.1C658.8,787.9,658.9,786.5,657.2,785.7z"/>
		<path class="st0" d="M510.4,446.5c-3.3,4.1,1.3,5.5,2.9,7.1c10.6,10,24.1,14.2,38.1,15.8c25.4,2.9,44.6-7.1,57.5-29.3
			c5.3-9.1,13.7-12.8,24.4-13.3c10.1-0.5,20-4.8,30.4-1.3c7.6,2.5,9.5,8.6,10.8,15.2c1.4,7.3-2,11.9-8.7,15
			c-9.2,4.3-17.7,10.2-27.9,12.3c0,0-0.4-0.4-0.4-0.4c0.4-2.8,2.9-3.4,4.7-4.7c6.8-5.1,15.8-5.7,22.5-11.1c4.1-3.4,7.6-6.9,6-12.4
			c-1.4-5-4-8.7-10-10.7c-7.3-2.4-13.8,0.9-20.6,0.7c-13-0.3-22.5,5.6-29.3,16.6c-4.6,7.5-9.9,13.8-18.2,18.5
			c-26.6,15-51.4,9.8-76.5-3.1c-7-3.6-9.3-11.7-16.3-14.8c0.1-4.1-3-7.9-1.6-12.2c3.8,3.1,3.1,10.7,10.3,10.6c0,0,0,0,0,0
			c-0.1,0.7-1.2,1.1-0.2,2.1c1,1,1.4-0.1,2.1-0.2L510.4,446.5z"/>
		<path class="st9" d="M727,794.2c1.2-0.3,2.5-0.7,3.7-1c0.4,2,0.4,3.9,3.1,4.5c16.3,3.5,32.6,7.5,49,10.6c4.9,0.9,6.7,1.9,3.1,6.1
			c-6.9,8.1-14.1,16-22.2,25.1c-1.5-7.1,2-11.3,3.8-15.7c3.4-8.5,1.8-11.5-7-13.4c-5.6-1.3-11.2-2.6-16.5-4.7
			c-8.6-3.3-17.3-4.5-26.4-4c0.2-1.2,0.3-2.5,0.5-3.7c1.9-1.1,3.8-2.2,5.6-3.3c0.6-0.1,1.1-0.1,1.7-0.1c0,0,0.8,0,0.8,0
			S727,794.2,727,794.2z"/>
		<path class="st6" d="M501.4,673.3c-1.3-3.9,2.8-7.9,1.9-12.7c-0.2-1.2,0.3-2.2,1.8-2.4c2.4-0.5,3.9,1.1,5.1,2.7
			c4.5,6.3,7.6,13.5,9.8,20.8c2.1,7.3,3.1,15,4.5,22.5c0.2,0.9,1.6,2.1,0.1,2.8c-0.9,0.4-2.6,0.4-3.3-0.2
			C511.6,697.7,501.7,688.8,501.4,673.3z"/>
		<path class="st6" d="M566.7,649c6.8,0.8,11.6-0.2,16.4,1.9c4.3,1.9,5.8-0.4,6-5c0.2-6.8,1.3-13.6,2.2-21.6c7,6.4,7.1,14,6.2,21.2
			c-1,8.4-4.6,16.4-5.1,24.9c-0.1,1.7-1.3,2.6-2.5,3.2c-1.7,0.7-2.1-0.9-3.1-2C580.7,664.5,574.3,657.5,566.7,649z"/>
		<path class="st9" d="M724.1,810.5c3.9-4.9,8.8-3.6,13.6-2.1c28.6,9.2,26.6,4,14.4,30.2c-1,2.1-1.8,4.3-2.7,6.4
			c-1.5,3.6-3.4,4.1-6.6,1.6c-6.2-4.8-12.6-9.2-18.8-13.8c-0.8-1.7-1.6-3.4-2.4-5.1c-0.5-0.6-0.9-1.2-1.4-1.9c0,0,0.1,0,0.1,0
			c1-4,2-8.1,3-12.1C723.5,812.7,723.8,811.6,724.1,810.5z M727,824.1c0,5,12.7,17.5,17.5,17.1c1.2-0.1,2.7-1.2,3.5-2.2
			c4.1-5.7,7.7-12.4,7.8-19c0.1-4.5-7.9-2.8-11.5-5.6c-0.2-0.2-0.4-0.4-0.7-0.5C733.3,808.9,727.1,812.7,727,824.1z"/>
		<path class="st6" d="M536.5,700c3.9-14.1,4.2-27.4,15.1-36.9c4.7-4.1,5.7-2.6,6.9,2.1c1.2,5.1,1.5,10.1-1.2,14.9
			C552.6,688.4,546.1,694.6,536.5,700z"/>
		<path class="st5" d="M526.2,357.6c5.7-3.9,12-5.7,18.8-5.7c3,0.8,6,0.5,8.9-0.7c11.9,0.4,23.5,2.3,34.4,7.5
			c-2.4,1.1-1.2,2.5-0.4,4c-17.5-4.5-35.2-7-53.2-3.1C532.5,356.3,529.2,358,526.2,357.6z"/>
		<path class="st5" d="M629,345c8.2-5.9,17.4-2.4,26.3-2.7c-1.7,2.4-6.6-0.1-6.9,4.4c-4.6,0.7-9.3,1.5-13.9,2.2
			C632.6,347.6,630.8,346.3,629,345z"/>
		<path class="st1" d="M723.2,813.9c-1,4-2,8.1-3,12.1c-2.2,0.1-5.1-0.8-4.7-2.7C716.5,819.1,718.1,814.9,723.2,813.9z"/>
		<path class="st0" d="M701,822.4c3.8,3.2,8.6,5.3,10.6,10.4l-0.5,0.6c-4.8-2.2-9.4-4.5-10.7-10.4
			C700.6,822.8,700.8,822.6,701,822.4z"/>
		<path class="st1" d="M723.6,794.7c-1.9,1.1-3.8,2.2-5.6,3.3C717.6,793.9,718.4,793.4,723.6,794.7z"/>
		<path class="st5" d="M618.3,350.3c1.7-2.7,4.7-3.5,7.3-4.7C624.7,349.6,621.7,350.2,618.3,350.3z"/>
		<path class="st0" d="M720,836.6c0.1,0.5,0.1,1,0.2,1.5c0,0-0.5,0.6-0.5,0.6c-2.4-0.2-4.6-0.6-5.3-3.5l0.5-0.6
			C716.6,835.3,718.3,836,720,836.6z"/>
		<path class="st5" d="M627.4,352.3c-0.4,2.3-2.3,1.1-3.5,1.7C624.2,351.7,624.7,349.6,627.4,352.3z"/>
		<path class="st5" d="M615.1,352.2c1.1-0.7,2.2-1.3,3.3-2C618.2,352.4,618.4,355.1,615.1,352.2z"/>
		<path class="st1" d="M593.9,561.6c0.7-2.5,2.3-2.7,4.3-1.7C596.8,560.4,595.3,561,593.9,561.6z"/>
		<path class="st0" d="M711.6,832.8c1.3,0.2,2.8,0.3,3.4,1.9c0,0-0.5,0.6-0.5,0.6c-1.1-0.6-2.2-1.2-3.3-1.8L711.6,832.8z"/>
		<path class="st5" d="M622.1,355.8c-0.2,0.9-0.4,1.8-1.7,1.2C621,356.6,621.6,356.2,622.1,355.8z"/>
		<path class="st10" d="M618.4,557.5c1-0.7,1.6-0.3,2.1,0.7C619.8,558,619.1,557.8,618.4,557.5z"/>
		<path class="st7" d="M720.1,825.9c0.5,0.6,0.9,1.2,1.4,1.9C721,827.2,720.6,826.6,720.1,825.9z"/>
		<path class="st0" d="M484.1,444.8c0.5-3.2-1.4-5.8-2.1-8.6c0.3-2,1-4.1-1.4-5.4c0.1-0.6,0-1.1-0.3-1.6c0.2-1.9,1.2-4.1-1.3-5.3
			c0.1-6.4-3.4-12.5-1.7-19.1c2.3-6.6,7.1-11.6,10.9-17.3c2.9-2.2,4.7-5,4.7-8.7c1.4-0.3,3.1-0.1,3.6-2c3.7,3.5,5.6-2.3,8.7-1.7
			c-1.7,5.7-5.9,10.1-7.3,16.1c-2.9,12-1.2,24-1.4,36.1c-4.5-0.2-3.6-3.7-3.6-6.4c-0.1-11.2-0.6-22.5,1.7-33.6l0.7-0.4l-0.3-0.3
			l-0.4,0.8c-6.6,4.8-11.4,11.5-11.9,19.2c-1.2,15.9,3.4,31.1,10,45.5c0.2,4.2-0.4,8.5,2.1,12.2c-0.1,0.6-0.1,1.2,0,1.7
			c3.3,6,3.7,12.6,3.5,19.3c-0.2,1.4,0.1,2.7,1.5,3.5c0,1.1,0.1,2.3,0.1,3.4c-1.1,0-2.2,0.1-3.3,0.1c-0.5-1.3-0.2-3-2-3.6
			c-0.6-2.3,1-5.2-1.7-7c-0.3-5.4-1.1-10.8-3.4-15.8c-0.3-4.9-0.4-9.9-3.6-14.1c-0.2-1.7-0.3-3.4-0.5-5.1
			C485.7,445.5,484.9,445.2,484.1,444.8z"/>
		<path class="st1" d="M578.4,289.3c-11.2,6-20.4,14.8-31.2,21.5c-0.4-3.7,0.1-7.7-4.4-9.6c-1.3-0.5-2.7-1.7-1.9-3.4
			c1-2,3.1-1.7,4.5-1c5.7,2.7,9.8,0.1,14.1-3.3c3.7-2.9,7.8-5.1,5-11c-0.6-1.3-0.7-3.6,1.4-4.5c1.6-0.7,2.7,0.7,3.6,1.7
			C572.6,282.9,575.5,286.1,578.4,289.3z"/>
		<path class="st1" d="M519,312.3c-5.2,2.4-12,1.1-15.7,7c-0.4-2.5-0.5-5.1-1.1-7.5c-0.7-3-1.2-5.9,1.9-7.5c2.9-1.4,5.9-1.6,8.3,1.6
			C514.3,308.2,516.8,310.1,519,312.3z"/>
		<path class="st1" d="M636.3,265.4c-6,6.6-12.2,12.8-21.2,15.2c-0.4-1.1-1.2-3-1.1-3.1c7.2-3.7,11.6-11.5,19.7-13.9
			C634.3,263.3,635.4,264.7,636.3,265.4z"/>
		<path class="st1" d="M610,282.6c-4.9,3.2-10.2,4.2-15.9,2.6c-0.4-2-1.1-3.9-1.2-5.9c-0.1-2.7,1.9-4.1,3.9-5.2
			c1.4-0.8,3.5-0.4,3.7,0.9C601.1,281.2,607.4,279.5,610,282.6z"/>
		<path class="st1" d="M488.1,387.5c-3.8,5.7-8.6,10.7-10.9,17.3c-5.9-6.6,0.7-11.9,2.3-17.4C480.6,384.2,485.1,388.3,488.1,387.5z"
			/>
		<path class="st1" d="M485.8,451.8c3.2,4.2,3.4,9.2,3.6,14.1c-4.4-3-10.9-2.8-14.5-9.2C479.7,456.1,485.6,459,485.8,451.8z"/>
		<path class="st1" d="M496.5,376.8c-0.6,1.8-2.2,1.7-3.6,2c-1.1-5.7,2-11,1.8-16.6c-0.1-2.6,2.3-2.8,4.3-2.9
			c0.8,2.9-2.7,6.2,0.9,8.7C498.8,370.9,497.6,373.9,496.5,376.8z"/>
		<path class="st1" d="M454.1,504.4c0,3.5-0.1,7-0.1,10.5c-2.1-0.5-5,3-6-0.2c-1-3.1-1-7.1,0.1-10.2
			C449,501.5,452,504.9,454.1,504.4z"/>
		<path class="st1" d="M478.8,484.8c-2.9,0-5.8,0.1-8.8,0.1c2.2-3.6,6-6.2,6.7-10.9c0.2-1.7,1.9-3.1,3.9-2.2c2,0.9,1.9,2.9,0.8,4.3
			C479.2,478.7,478.5,481.6,478.8,484.8z"/>
		<path class="st1" d="M492.9,481.6c2.7,1.8,1,4.7,1.7,7c-1.7,1.2-3.3,2.3-5,3.5c-1.5-0.8-3-1.6-4.5-2.5l0,0c-0.5-0.8-1-1.7-1.4-2.5
			C487.9,487.2,488.4,481,492.9,481.6z"/>
		<path class="st1" d="M456.1,528.7c2.5,2.6,4.9,5.3,7.4,7.9c-2.2,4.4-7.3,0.1-10.5,3.2C454.1,536.1,455.1,532.4,456.1,528.7z"/>
		<path class="st1" d="M463,462.5c2.6,0.4,5.3,0.9,4.3,4.6c-0.2,0.6-1.3,1.6-1.9,1.5C461.4,467.9,463.7,464.6,463,462.5
			C463,462.5,463,462.5,463,462.5z"/>
		<path class="st1" d="M529.5,315.4c-3.5,0.4-7,0.6-8.9-3.3C523.7,312.8,528.1,310,529.5,315.4z"/>
		<path class="st1" d="M478.9,423.9c2.6,1.2,1.6,3.4,1.3,5.3c-1.6-0.2-3.8,0.6-4.3-1.7C475.5,425.5,477.4,424.7,478.9,423.9z"/>
		<path class="st1" d="M478.8,541.5c2.6-0.1,5.2-0.3,8.6-0.4c-2.4,2-4,4.1-6.9,3.3C479.9,543.4,479.4,542.4,478.8,541.5z"/>
		<path class="st1" d="M463.4,488.7c-1.8,1.8-3.7,3.7-5.5,5.5C457.3,489.9,459.3,488.3,463.4,488.7z"/>
		<path class="st1" d="M499.1,340c0,1.2-0.1,2.4-0.1,3.6c-1.4-0.1-3.5,0.2-3.6-1.4C495.1,339.6,497.5,340.3,499.1,340z"/>
		<path class="st1" d="M545.2,310.4c-1.5-0.3-3.5,0.6-4.4-1.5c-0.1-0.3,0.4-1.2,0.7-1.2C543.6,307.2,544.4,308.9,545.2,310.4
			C545.2,310.3,545.2,310.4,545.2,310.4z"/>
		<path class="st7" d="M499.3,348.9c0.8,2.3,0.9,4.5-0.1,6.7C497.4,353.4,497.4,351.1,499.3,348.9z"/>
		<path class="st1" d="M480.6,430.8c2.4,1.3,1.7,3.4,1.4,5.4C480.2,434.7,480.6,432.7,480.6,430.8z"/>
		<path class="st1" d="M454.4,523.5c1.7,0.8,1.6,2.2,1.3,3.6C454.5,526.2,454.3,524.9,454.4,523.5z"/>
		<path class="st1" d="M540.4,313.8c-0.3,1.1-0.9,1.7-2.2,1.5C538.9,314.8,539.7,314.3,540.4,313.8z"/>
		<path class="st1" d="M547.2,310.6c-0.7,0.5-1.4,1-2,1.5c0-0.6,0-1.2,0-1.7c0,0,0,0,0,0C545.9,310.4,546.6,310.5,547.2,310.6z"/>
		<path class="st1" d="M583.9,287.7c-0.2,1.1-0.8,1.5-1.9,1.3C582.6,288.6,583.2,288.1,583.9,287.7z"/>
		<path class="st1" d="M592.6,285.9c-0.1,1.1-0.8,1.6-1.9,1.3C591.3,286.8,591.9,286.4,592.6,285.9z"/>
		<path class="st1" d="M484.1,444.8c0.8,0.4,1.6,0.7,1.3,1.8C484.9,446.1,484.5,445.4,484.1,444.8z"/>
		<path class="st9" d="M692,920.8c1.8,0.6,3.5,1.3,5.3,1.9c-0.3,3.7,1.5,9.6-5.2,8c-5.3-1.3-11.7-3.7-14.8-7.7
			c-8-10.5-5.4-38.4,13.5-41.5c0,0-0.1,0.3-0.1,0.3c0.5,0.6,1.1,1.3,1.6,1.9c0,0,0-0.1,0-0.1c0,4.2,0.5,8.4-5.2,10.1
			c-2.3,0.7-4,3.2-3.2,6.2c0,0-0.1-0.2-0.1-0.2c-5.3,6.7-4.9,10.6,1.6,15.4c0,0-0.1,0-0.1,0C685.2,919.7,685.5,924,692,920.8z"/>
		<path class="st9" d="M711.3,931c-0.8,8.8-3.2,15.8-5.1,22.9c-0.7,2.7-1.6,3.3-4.2,2c-9.7-5.2-19.5-10.1-29.1-15.5
			c-2.8-1.6-5.5-4.7-3.2-7.9c2.3-3.3,5.3-0.1,7.6,1.1c5.6,3,11.3,6.1,16.4,9.8c5.3,4,8.2,2.4,10.4-3
			C705.4,937.2,706.7,934,711.3,931z"/>
		<path class="st9" d="M690.7,881.5c-18.9,3.1-21.5,31-13.5,41.5c3.1,4.1,9.5,6.4,14.8,7.7c6.7,1.6,4.9-4.3,5.2-8
			c5.1,0,5.8,2.1,3.7,6.5c-2.4,5.3-5.4,9.6-11.6,6.1c-6.4-3.7-13.5-6.4-19-11.6c-0.3-8.9-0.6-17.9-0.9-26.8c0.4-0.8,0.8-1.6,1.2-2.5
			c0.2-1.2,0.5-2.3,0.7-3.5c4-4.7,8.2-9.1,13.2-12.9C690.2,873.7,690.5,877.1,690.7,881.5z"/>
		<path class="st8" d="M739.2,889.2c-12-8.7-13.9-13-10.3-23c2.6-7.2,8.4-9.5,13.6-4.4c7.2,7.1,13.8,14.9,20,22.9
			c3.8,4.9,0.9,10.5-5.5,11.3C750,896.8,743.1,896.6,739.2,889.2c5.4-1.1,9.4,4.3,14.9,3.4c5-0.8,8.3-2.7,4.4-7.7
			c-5.4-6.7-11.4-12.9-17.3-19.3c-4.1-4.4-7-1.7-8.3,2.3c-1.3,4-1.2,8.3,1.6,12.4C736.3,882.9,739.5,885.2,739.2,889.2z"/>
		<path class="st8" d="M734.2,894.1c7,1.3,10.7,7.4,16.6,10.7c-14.6,6.9-33.8,1.5-43.6-10.9c-4.2-5.3-2.3-8.1,2.6-9.2
			c4.6-1.1,10.2-3.4,14,2.4c0,0-0.5,0.5-0.5,0.5c-1.4-0.1-2.9-0.2-4.3-0.3c-2.9,0-6.2-0.4-7.2,3.2c-1.1,3.9,2.7,4.8,4.8,6.2
			c3.8,2.5,8,4.6,12.3,6.1c3.6,1.3,8.6,4.5,11.1,0.6c2.7-4.3-4.5-4.8-5.7-8.1c-0.1-0.3-0.3-0.5-0.5-0.7L734.2,894.1z"/>
		<path class="st9" d="M799.5,844.1c-1.2,5.9-6.1,7.5-9.5,10.3c-6.1,5.2-12.9,9.6-19.4,14.5c-2.4,1.8-5.5,4.2-7.6,1.7
			c-2.3-2.8,2-4,3.6-5.6c5.5-5.5,11.6-10.4,17-16.1C788,844.2,792.7,842.1,799.5,844.1z"/>
		<path class="st8" d="M728.1,914.5c-6.5,3.2-13.2,4.7-20.5,4.5c-5.8-0.1-8.8-1.9-12.5-6.6c-5.8-7.3-0.9-7.9,4-9.1
			c8.4-2.1,14.5,4.3,21.8,6.4C722.9,910.3,726.6,910.8,728.1,914.5z M720.1,914.2c-4.1-4.8-9.4-5-13.6-7.1c-2.1-1-5.8-1.8-6.8,1.3
			c-1.2,3.8,2,6.1,5.2,6.5C709.6,915.6,714.5,915.9,720.1,914.2z"/>
		<path class="st9" d="M762.5,853.4c6.4-7.8,12.3-15.2,18.4-22.5c2.6-3.1,6.3-7.3,9.9-3.6c3.1,3.1-2,5.7-4.3,8
			c-4.9,4.9-9.8,9.9-15.1,14.4C769.2,851.6,767.3,854.8,762.5,853.4z"/>
		<path class="st9" d="M718.3,869.2c0.1,7-4.2,9.7-15,9.5c-5.4-0.1-7.8-3-8-8.3c-0.2-6.3,6.1-12.9,12.8-12.7
			C715.4,857.8,718.3,862.4,718.3,869.2z M714.8,868.1c-0.5-3.8-2.4-7-6.5-6.6c-5.2,0.5-7.9,4.6-8.9,9.3c-0.5,2.5,2.1,4.7,4.5,3.8
			C707.8,873.1,713.9,875,714.8,868.1z"/>
		<path class="st9" d="M676.4,869.8c-0.8-2.6,1.7-4.2,2-6.4c4.6-3.6,6.9-9.8,12.9-12.2C690.9,861.3,685.4,868.1,676.4,869.8z"/>
		<path class="st9" d="M724.8,928.6c0,5.5,0.2,10.1-0.1,14.7c-0.1,1.9-0.2,4.5-3.1,4.3c-2.3-0.2-3.7-2.2-3.4-4.3
			C719.2,938.2,720,932.8,724.8,928.6z"/>
		<path class="st9" d="M683.8,900c-0.8-3.1,0.9-5.5,3.2-6.2c5.6-1.7,5.2-5.9,5.2-10.1c7,7.5,6.8,8.3-1.9,12.6
			C688.1,897.3,686,898.7,683.8,900z"/>
		<path class="st9" d="M685.2,915.2c-6.5-4.8-6.9-8.7-1.6-15.4C683.1,905,682.8,910.2,685.2,915.2z"/>
		<path class="st9" d="M692,920.8c-6.5,3.3-6.8-1-6.8-5.6C687.5,917,689.7,918.9,692,920.8z"/>
		<path class="st8" d="M723.8,887c3.2,0.6,6.2,1.4,7,5.2l-0.4,0.5c-3.1-0.8-6.2-1.5-7.1-5.2L723.8,887z"/>
		<path class="st8" d="M730.8,892.2c1.3,0.2,2.8,0.3,3.4,1.8c0,0-0.3,0.4-0.3,0.4c-1.2-0.6-2.3-1.2-3.5-1.8L730.8,892.2z"/>
		<path class="st11" d="M692.2,883.7c-0.5-0.6-1.1-1.3-1.6-1.9C691.9,881.8,692,882.8,692.2,883.7z"/>
		<path class="st1" d="M715.9,304.6c-0.6,0.8-1.3,2.6-2.3,2.9c-1.9,0.5-2.1-1.3-2.1-2.7c0-1.6,0.8-2.7,2.5-2.8
			C715.5,301.9,715.9,302.9,715.9,304.6z"/>
		<path class="st1" d="M699.4,392.5c-1.5-2.1-2.8-4.2-1.8-7C702.2,386.8,701.4,389.5,699.4,392.5z"/>
		<path class="st1" d="M703.8,384.5c0.5,0.2,1,0.4,1.5,0.6c-0.2,0.5-0.3,1.2-0.7,1.4c-0.4,0.1-0.9-0.3-1.4-0.6
			C703.4,385.5,703.6,385,703.8,384.5z"/>
		<path class="st1" d="M697.6,410c0-1.1,0-2.3,0-3.4c0.5-0.1,1-0.1,1.5-0.1C701.7,409,699.9,409.6,697.6,410z"/>
		<path class="st1" d="M705.4,393c-0.5,0.2-1.1,0.6-1.5,0.5c-0.3-0.2-0.4-0.9-0.6-1.4c0.5-0.2,1.1-0.7,1.5-0.5
			C705.1,391.7,705.2,392.5,705.4,393z"/>
		<path class="st1" d="M717.6,329.1c-0.2,0.5-0.3,1.2-0.7,1.4c-0.3,0.1-0.9-0.3-1.4-0.6c0.2-0.5,0.3-1.2,0.7-1.4
			C716.5,328.4,717.1,328.9,717.6,329.1z"/>
		<path class="st1" d="M707.1,320.4c-0.2,0.5-0.3,1.2-0.7,1.4c-0.3,0.1-0.9-0.3-1.4-0.6c0.2-0.5,0.3-1.2,0.7-1.4
			C706.1,319.7,706.6,320.1,707.1,320.4z"/>
		<path class="st7" d="M664.2,817.2c2.1,1.4,1.4,3.4,1.3,5.3C663.7,821.1,664.1,819.1,664.2,817.2z"/>
		<path class="st7" d="M670.7,894.4c-0.4,0.8-0.8,1.6-1.2,2.5C670,896,670.3,895.2,670.7,894.4z"/>
		<path class="st7" d="M672.9,853.9c0.5,0.6,1.1,1.2,1.6,1.8C674,855.2,673.5,854.6,672.9,853.9z"/>
		<path class="st7" d="M669.4,843.3c0.8,0.4,1.7,0.8,1.3,2C670.3,844.6,669.9,844,669.4,843.3z"/>
		<path class="st10" d="M325.3,945.2c-5.4,0.4-8.4-0.4-10.5-3.1c-2.7-3.5-3.7-6.6,2.2-8.2c18.1-4.9,36.1-10.1,54.1-14.9
			c2.9-0.8,6.8-1.1,7.7,3.4c0.9,4.5-1,7.8-5.4,9.7c-12.8,5.6-26.5,7.7-39.9,11.3C330.2,944.2,326.8,944.8,325.3,945.2z"/>
		<path class="st0" d="M398.4,896.2c0.1,8.1-0.9,16.2,0.7,24.2c0.6,3.2,0.2,6.3-3.4,6.6c-3.4,0.3-2.5-3.1-2.7-5.2
			c-0.6-4.8-2.3-9.3-0.3-14.4c1.3-3.4-1-6.1-5.2-5.9c-1-0.1-1.9-0.1-2.9-0.2c-0.1-0.7-0.2-1.4-0.3-2.1
			C388,893.1,391.9,888.2,398.4,896.2z"/>
		<path class="st12" d="M306,947.3c-3.9-0.2-7.9-0.5-13.2-0.8c4.9-4.7,8.4-7.9,13-1.8C305.9,945.5,306,946.4,306,947.3z"/>
		<path class="st0" d="M384.4,899.2c0.1,0.7,0.2,1.4,0.3,2.1c-1.9,4.2-6.2,5.7-9.7,8.1c-0.5-0.4-0.9-0.9-1.4-1.3
			c0.1-0.5,0.1-1,0-1.6c0,0,0.2-0.1,0.2-0.1c2.5-0.9,4.1-2.7,5.2-5.1c0.1-0.5,0.1-1.1,0.1-1.6c0.6,0,1.1-0.1,1.7-0.2
			C382,899.4,383.2,899.3,384.4,899.2z"/>
		<path class="st4" d="M413.8,841.9c-1.6-4.1-1.9-8.3-0.2-12.4C414.6,833.6,414.6,837.7,413.8,841.9z"/>
		<path class="st4" d="M414,857.5c-1.4-3.4-1.6-6.9,0-10.3C414,850.6,414,854.1,414,857.5z"/>
		<path class="st10" d="M306,947.3c-0.1-0.9-0.1-1.7-0.2-2.6C307.2,945.4,308,946.2,306,947.3z"/>
		<path class="st7" d="M648.4,346.7c0.3-4.6,5.2-2,6.9-4.4c6.2,1.3,13.4-0.1,17.7,6.5c-0.6,0-0.9,0.3-1.5,0.3
			c-0.6,0.6-0.2,0.9-0.8,1.5C664.4,345.3,655.4,347.5,648.4,346.7z"/>
		<path class="st5" d="M345.5,875c0,3.5,0,7,0.1,10.5C340.5,882.1,340.6,878.6,345.5,875z"/>
		<path class="st5" d="M350.7,806.9c0,1.1,0,2.3,0,3.4C349.2,809.2,349.2,808.1,350.7,806.9z"/>
		<path class="st1" d="M655.5,776.9c2.3,1.4,1.4,3.5,1.3,5.5c-2.5-1.2-4,5.3-6.2,1.2C648.3,779.4,654,779.4,655.5,776.9z"/>
		<path class="st1" d="M590.6,740.4c2.7,0.4,4.3,1.2,4.6,3.1c0.2,1.4-1.1,2.1-2.3,1.8C590.2,744.7,590.9,742.3,590.6,740.4z"/>
		<path class="st1" d="M569.2,795.3c0.5,0.2,1.2,0.3,1.4,0.7c0.1,0.3-0.3,0.9-0.6,1.4c-0.5-0.2-1.2-0.3-1.4-0.7
			C568.5,796.4,569,795.8,569.2,795.3z"/>
		<path class="st1" d="M605.1,731.1c-0.5-0.2-1.2-0.3-1.4-0.7c-0.1-0.3,0.3-0.9,0.5-1.4c0.5,0.2,1.2,0.3,1.4,0.7
			C605.8,730,605.3,730.6,605.1,731.1z"/>
		<path class="st1" d="M660.3,796.4c0,1.7,0,3.4,0,5.2C658.4,799.9,658.4,798.2,660.3,796.4z"/>
		<path class="st1" d="M657.2,785.7c1.7,0.8,1.6,2.2,1.2,3.7C658,788.1,657.6,786.9,657.2,785.7z"/>
		<path class="st1" d="M660.7,803.1c0.9,0.4,1.7,0.8,1.4,2C661.6,804.4,661.2,803.8,660.7,803.1z"/>
		<polygon class="st1" points="590.7,740.4 589.9,740 590.3,739.7 		"/>
		<path class="st8" d="M412.2,899.6c-3.8-0.3-6.2-4.5-10.3-3.7C410.4,889.5,410.7,889.6,412.2,899.6z"/>
		<path class="st8" d="M356.4,892.6c-0.8,1.5-2,3.6-3.7,2.6c-2.9-1.8-1.1-5.2-1.6-7.9C354.6,887.3,355.1,890.3,356.4,892.6z"/>
		<path class="st8" d="M410.5,796.4c0,2.9-0.1,5.8-0.1,8.8C405.1,802.2,405,799.2,410.5,796.4z"/>
		<path class="st8" d="M414,749.4c4.9,0.3,3.2,4,3.4,6.8C413,755.6,414.4,752.1,414,749.4z"/>
		<path class="st8" d="M403.6,747.7c2.5-0.1,5.1-1.1,7,1.5C407.6,751.6,405,752.2,403.6,747.7z"/>
		<path class="st0" d="M373.6,906.5c0.1,0.5,0.1,1,0,1.6c-2.2-0.6-5.7,4.7-6.6-1.5C369.2,906.5,371.4,906.5,373.6,906.5z"/>
		<path class="st0" d="M379,901.3c-1.1,2.4-2.7,4.1-5.2,5.1C373.5,902.6,375.3,900.9,379,901.3z"/>
		<path class="st8" d="M365.2,896c-1.7-0.6-2.9-1.8-3.5-3.5C366.3,890.2,364.6,894.2,365.2,896z"/>
		<path class="st8" d="M417.4,761.4c0.2,1.5-0.1,2.8-1.6,3.5C413.2,762.3,415.2,761.8,417.4,761.4z"/>
		<path class="st8" d="M380.9,744.1c1.9-0.1,3.9-0.4,5.2,1.6C384.2,745.6,382.2,746,380.9,744.1z"/>
		<path class="st8" d="M410.5,847.1c0,1.2,0,2.3,0,3.5C408.8,849.4,408.8,848.3,410.5,847.1z"/>
		<path class="st8" d="M410.4,819.1c-0.5,0.6-1,1.2-1.5,1.8C409.4,820.3,409.9,819.7,410.4,819.1z"/>
		<path class="st8" d="M413.9,778.9c-0.5,0.6-1.1,1.2-1.6,1.8C412.9,780.1,413.4,779.5,413.9,778.9z"/>
		<path class="st0" d="M380.9,899.5c-0.6,0.1-1.1,0.1-1.7,0.2C379.6,898.4,380.2,898.3,380.9,899.5z"/>
		<path class="st8" d="M414,901.4c-0.6-0.6-1.2-1.2-1.7-1.8C412.9,900.2,413.4,900.8,414,901.4z"/>
		<path class="st8" d="M412.2,791.1c-0.5,0.6-1,1.2-1.5,1.7C411.1,792.3,411.6,791.7,412.2,791.1z"/>
		<path class="st0" d="M498.2,485.2c0.1-6.7-0.2-13.2-3.5-19.3c0.2-0.2,0.6-0.4,0.6-0.5c-0.1-0.4-0.4-0.8-0.6-1.2
			c-2.5-3.8-1.9-8.1-2.1-12.2c3.7-0.1,5.7-2.5,7.3-5.5c7.1,3.1,9.3,11.2,16.3,14.8c25.1,13,49.9,18.1,76.5,3.1
			c8.3-4.7,13.6-11,18.2-18.5c6.8-11,16.4-16.9,29.3-16.6c6.9,0.2,13.3-3.1,20.6-0.7c6,1.9,8.6,5.7,10,10.7c1.6,5.5-1.9,9.1-6,12.4
			c-6.7,5.4-15.7,6.1-22.5,11.1c-1.8,1.4-4.3,1.9-4.7,4.7c-4.1,1.7-8.4,2.7-12.8,1.9c-19.9-4-35,8.3-51.5,15.3
			c-6.3,2.7-13.5,3.8-18.8,8.8c-2.3,2.2-5.1,3.9-7.2,6.2c-5.9,6.6-7.9,14.8-4.9,22.8c3,8,11.2,9.3,19,9.8c11,0.8,20.9-4.3,31.4-6.4
			c20.5-4.2,37.8-14.1,51.1-30.5c1-1.2,2.2-3.9,3.8-1.7c8.1,11.4,20.9,7.9,31.8,10.5c4.7,1.1,9.6,1.9,14.6,2.3
			c7.2,0.5,12-2.1,15.8-10.3c2.4,11,3.8,19.9,0.6,28.8c-1.7,4.7-4.5,8.3-9.3,11c-20,11.2-41.6,15-64.2,15.9
			c-15.3,0.6-31.2,0.1-45.8,4c-20.3,5.3-40.6,11.4-59.4,21.2c-3,1.6-7.6,4.3-5,8.7c2.8,4.8,8.7,5.9,13.2,3.7
			c11.5-5.7,24.2-7.8,35.9-12.6c7.4-3,15.3-3.2,22.5-6.4c1.4-0.6,3-1.3,3.8,0.4c0.5,1.2,0.7,3.2,0,4.1c-2.1,2.7-4.4,5.5-7.1,7.5
			c-8.6,6.3-15.3,13.4-17.7,24.6c-2.7,12.4-11.7,21.9-19.1,31.8c-6.8,9-14.6,17.3-21.6,26.1c-4,5-6.7,6.8-10.4-0.3
			c-8-15.1-20.9-26.3-32.4-38.5c-9.1-9.6-14.3-20.2-15.1-33.2c-0.6-9.6-2.5-19-2-28.6c0.4-7.4,3.4-12.7,9.5-16.5
			c3.3-2.1,9-3.2,7.4-8.2c-1.6-5-7.2-3.7-11.5-3.8c-1-3.1,2.4-4.8,2.5-7.8c-3.4,0.3-6.4,0.5-9.5,0.8c0-1.2,0.1-2.3,0.1-3.5
			c1.7-1.2,1.6-2.4-0.1-3.5c-0.5-2.9-1-5.8-1.6-8.7c3.7,0,5.1,3.5,7.8,5.1c5,3.1,11.4,3.6,15.3,0.2c3.6-3.2-1.9-6.1-4.2-8.8
			c-1.9-1.4-1.6-3.4-1.6-5.3c2.3-0.9,4.8-1.6,7-2.8c4.1-2.2,4.5-4.8,1.7-9.5c0-1.1-0.1-2.3-0.1-3.4
			C499.7,487.3,499.5,486,498.2,485.2z"/>
		<path class="st1" d="M621.1,473.1c0.5,0,2.6-0.4,4.5,0.1c6.2,1.5,12.7,3.1,15,10.1c2.1,6.5-0.8,11.9-5.5,16.1
			c-8.7,7.9-17.9,15-29.6,18.2c-12.3,3.4-24.4,7.5-36.7,10.8c-6.6,1.8-13,0.5-18.9-3.6c-4.7-3.3-6.9-6.9-4.6-12.8
			c2.4-6.1,5.1-11.5,11.3-14.7c16.4-8.4,33.1-16.2,50.4-22.6C610.9,473.3,615.2,472.8,621.1,473.1z"/>
		<path class="st0" d="M707.8,484.7c-9.8-5.4-18.5-10.2-27.3-14.9c-4.5-2.4-5.1-5-1.7-8.9c4.7-5.3,9.4-10.5,8.7-18.7
			c-0.3-3.2,3.6-5.3,7.1-2.5c1.3,1,2.4,2.7,2.8,4.3C700.8,457.2,704.1,470.6,707.8,484.7z"/>
		<path class="st5" d="M468.4,530.4c-3.7-4.9-9.2-8.4-9.1-16c0.2-12.9,6.3-18.1,18.7-14.8c1.9,0.5,3.8,1,5.8,1.5c0,0,0-0.1,0-0.1
			c3.3,4,4.5,8.6,3.4,13.8c-0.5,0-0.9,0-1.4,0c-0.8-1.5-1.5-3-2.5-4.5c-2.5-3.8-6.2-5.2-10.5-3.8c-4.6,1.5-3.2,5.7-2.9,8.9
			c0.4,4.5,1.3,9,2,13.5C471.4,530.7,469.9,530.6,468.4,530.4z"/>
		<path class="st0" d="M499.8,492.2c2.8,4.6,2.4,7.3-1.7,9.5c-2.2,1.2-4.7,1.9-7,2.8c-2.1-1.8-3.7-4.5-7.2-3.4c0,0,0,0.1,0,0.1
			c-3.4-5.8-4.7-6.3-18.9-6.6c3.4-4.6,6.3-8.3,12.6-6c2.3,0.9,4.8,2.3,7.5,1.1c0,0,0,0,0,0c-0.8,3.9,1.8,4.1,4.6,4.1l-0.2-0.1
			c0.3,1.2,1.1,1.8,2.3,2c0.4,0.5,0.7,1.1,1.1,1.6c0.3,1.2,0.8,1.7,1.8,0.5c2.6-1.1,1.1-3.6,2-5.4
			C497.6,492.2,498.7,492.2,499.8,492.2z"/>
		<path class="st0" d="M468.4,530.4c1.5,0.2,3,0.3,3.6-1.6c1.1,0,2.2,0,3.3,0.1c3.1-0.3,6.1-0.5,9.5-0.8c-0.1,2.9-3.5,4.7-2.5,7.8
			C477.2,535.3,470,540,468.4,530.4z"/>
		<path class="st1" d="M496.5,427.3c0.2-12-1.5-24,1.4-36.1c1.4-6,5.7-10.4,7.3-16.1c0,0-0.1,0-0.1,0c1.8-0.6,1.8-2.1,2-3.5
			l-0.1,0.1c6.9-4.1,11-11.9,19.2-14.2c2.9,0.4,6.3-1.2,8.6,2c-17,9-28.5,22.3-32.1,41.6c-2.4,12.8-2.1,25.4,3.7,37.4
			c1,2,1.5,4.2,2.2,6.3c-7.2,0.1-6.4-7.5-10.3-10.6c0,0,0.1,0.1,0.1,0.1C497.6,432,499.7,428.9,496.5,427.3L496.5,427.3z"/>
		<path class="st5" d="M566.1,432.2c2.4,6.9-4.4,6.2-7.6,7c-3.6,0.9-6-2.4-6.4-6.2c-0.6-5.2,3.9-6.8,7-6.6
			C561.4,426.5,567.6,425.4,566.1,432.2z"/>
		<path class="st1" d="M510.4,446.6c-0.7,0.1-1.1,1.2-2.1,0.2c-1-1,0.1-1.4,0.2-2.1C509.7,444.9,510.3,445.5,510.4,446.6z"/>
		<path class="st7" d="M679.7,411.7c-1.3,0.2-2.9-0.3-3.4,1.6c-1.1,0.2-2.3,0.3-3.4,0.5c-9.1-4.5-9.5-7.6-1.7-12.9c2.3,0,4.7,0,7,0
			c2.7,1.7,4.1,4.1,3.5,7.4C679.5,408.6,680.1,410.4,679.7,411.7z"/>
		<path class="st0" d="M512,317.5c4.6-0.3,9.1,0.1,13.8,0.9c9.9,1.7,19.3,0.9,27.7-6.5c14.7-12.9,30.7-22.3,51.4-23.4
			c14.9-0.8,26.4-11.1,37.4-20.5c6.6-5.6,10.9-5,12.5,3.3c2.4,12.4,8.1,23.3,13.1,34.6c3.6,8.1,9,14.9,14.4,21.6
			c1.9,2.4,2.8,5,3.8,7.7c1.2,3,0.8,5.6-1.5,8c-2.4,2.5-4.8,1.3-7.2,0.4c-3.3-1.1-6.5-2.4-9.8-3.5c-22.6-7.5-43.2-3.3-60.2,13.1
			c-7.2,6.9-12.3,4.5-18.8,0.8c-20.1-11.6-55-9-73.2,5.3c-3.7-0.1-6.7,0.8-6.8,5.4c0,0,0,0,0,0c-3.6-0.4-4.2-3-3.1-5.6
			c2-5.1-0.1-9.3-2.1-13.6c0-1.8,0.1-3.6,0.1-5.3c2.3-1.9,1.3-4.5,1.5-6.9c1.8-4.7,3.5-9.3,5.3-14C510.8,318.6,511.4,318,512,317.5z
			"/>
		<path class="st8" d="M503.4,345.3c2,4.3,4.1,8.6,2.1,13.6c-1,2.6-0.5,5.2,3.1,5.6c-0.5,2.4-1,4.8-1.5,7.1c0,0,0.1-0.1,0.1-0.1
			c-1.8,0.5-2.1,1.9-2,3.5c0,0,0.1,0,0.1,0c-3.1-0.6-5,5.2-8.7,1.7c1.1-2.9,2.3-5.9,3.4-8.8c4.8-1,3.1-4.9,3.2-7.8
			C503.4,355.3,503.3,350.3,503.4,345.3z"/>
		<path class="st8" d="M508.6,364.6c0.1-4.6,3.1-5.4,6.8-5.4C513.9,362.1,512,364.3,508.6,364.6z"/>
		<path class="st5" d="M554,351.2c-2.9,1.2-5.8,1.5-8.9,0.7C547.9,350.1,550.9,350,554,351.2z"/>
		<path class="st8" d="M505,333.1c-0.2,2.4,0.8,5-1.5,6.9C503.5,337.6,502.5,335,505,333.1z"/>
		<path class="st8" d="M512,317.5c-0.6,0.5-1.2,1-1.7,1.6C510.8,318.6,511.4,318,512,317.5z"/>
		<path class="st0" d="M711.1,833.4c1.1,0.6,2.2,1.2,3.3,1.8c0.7,2.8,2.9,3.2,5.3,3.5c0.2,0.5,0.5,1.1,0.7,1.6c0.9,3,8.4,2.1,4.9,7
			c-2.6,3.7-7.6,4.5-12,2.4c-6.3-3-12.6-6.1-18.3-10c-6.2-4.2-11.1-4.7-15.3,2.3c-0.7,1.3-1.6,2.8-3.2,2.5c-2.3-0.3-1.7-2.6-2.1-4.2
			c-4.5-20.6-9.2-41.1-13.7-61.7c-2.1-9.9,4.1-21.7,14.2-26.1c4.3-1.9,5.7,2.9,6,5.2c1.9,12.3,4.6,24.4,6.2,36.7
			c1.3,10.5,2.6,21.9,13.2,28.5C701.7,828.8,706.3,831.2,711.1,833.4z"/>
		<path class="st8" d="M499.9,446.4c-1.6,3-3.6,5.4-7.3,5.5c-6.6-14.5-11.2-29.6-10-45.5c0.6-7.7,5.4-14.4,11.9-19.2
			c-2.2,11.1-1.8,22.4-1.7,33.6c0,2.7-0.9,6.2,3.6,6.4c0,0-0.1-0.1-0.1-0.1c0.1,2.5-1.3,5.5,2,7.1c0,0-0.1-0.1-0.1-0.1
			C496.9,438.6,500,442.3,499.9,446.4z"/>
		<path class="st9" d="M727,824.1c0-11.4,6.3-15.3,16.7-10.2c0.3,0.1,0.5,0.3,0.7,0.5c3.6,2.8,11.6,1.1,11.5,5.6
			c-0.2,6.6-3.7,13.3-7.8,19c-0.8,1.1-2.3,2.1-3.5,2.2C739.7,841.7,727,829.1,727,824.1z"/>
		<path class="st5" d="M496.5,492.3c-0.9,1.7,0.6,4.3-2,5.4c-0.6-0.2-1.2-0.3-1.8-0.5c-0.4-0.5-0.7-1.1-1.1-1.6
			c-0.8-0.7-1.6-1.3-2.3-2c0,0,0.2,0.1,0.2,0.1c0-0.5,0-1.1,0-1.6c1.7-1.2,3.3-2.3,5-3.5C496.3,489.2,496.1,490.9,496.5,492.3z"/>
		<path class="st8" d="M498.2,485.2c1.3,0.8,1.5,2.1,1.5,3.5C498.4,487.9,498.1,486.7,498.2,485.2z"/>
		<polygon class="st8" points="494.5,387.3 494.9,386.5 495.2,386.9 		"/>
		<path class="st8" d="M494.7,464.2c0.2,0.4,0.5,0.8,0.6,1.2c0,0.1-0.4,0.3-0.6,0.5C494.6,465.4,494.6,464.8,494.7,464.2z"/>
		<path class="st0" d="M489.6,492.1c0,0.5,0.1,1.1,0,1.6c-2.8,0-5.3-0.1-4.6-4.1C486.6,490.5,488.1,491.3,489.6,492.1z"/>
		<path class="st8" d="M739.2,889.2c0.3-4-2.8-6.2-4.7-8.9c-2.8-4-2.9-8.3-1.6-12.4c1.2-4,4.2-6.7,8.3-2.3
			c5.9,6.3,11.9,12.5,17.3,19.3c4,5,0.6,6.9-4.4,7.7C748.5,893.5,744.6,888.1,739.2,889.2C739.1,889.1,739.2,889.2,739.2,889.2z"/>
		<path class="st8" d="M730.4,892.7c1.2,0.6,2.3,1.2,3.5,1.8c0.2,0.2,0.4,0.5,0.5,0.7c1.2,3.4,8.4,3.9,5.7,8.1
			c-2.5,3.9-7.5,0.7-11.1-0.6c-4.3-1.6-8.5-3.6-12.3-6.1c-2.1-1.4-6-2.3-4.8-6.2c1.1-3.6,4.3-3.2,7.2-3.2c1.4,0,2.9,0.2,4.3,0.3
			C724.2,891.2,727.3,892,730.4,892.7z"/>
		<path class="st8" d="M720.1,914.2c-5.6,1.7-10.5,1.4-15.2,0.8c-3.2-0.4-6.4-2.7-5.2-6.5c1-3.2,4.7-2.4,6.8-1.3
			C710.7,909.2,716,909.4,720.1,914.2z"/>
		<path class="st9" d="M714.8,868.1c-0.8,6.9-6.9,5-10.8,6.5c-2.4,0.9-5-1.3-4.5-3.8c0.9-4.7,3.6-8.9,8.9-9.3
			C712.4,861.1,714.2,864.3,714.8,868.1z"/>
		<path class="st0" d="M475.3,528.9c-1.1,0-2.2,0-3.3-0.1c-0.7-4.5-1.6-8.9-2-13.5c-0.3-3.2-1.6-7.4,2.9-8.9c4.3-1.4,8,0,10.5,3.8
			c0.9,1.4,1.7,3,2.5,4.5c-3.9,2.3-4.3-2.3-6.4-3.4c-2.8-1.5-5.3-3.1-5.8,1.9c0.5,2.9,1,5.8,1.6,8.7c0,1.2,0.1,2.3,0.1,3.5
			C475.4,526.5,475.3,527.7,475.3,528.9z"/>
		<path class="st0" d="M473.8,513.2c0.6-5,3-3.4,5.8-1.9c2.1,1.1,2.4,5.7,6.4,3.4c0.5,0.1,0.9,0.1,1.4,0c3.5,0.1,5.2-1.7,5.3-5.1
			c2.3,2.6,7.9,5.5,4.2,8.8c-3.9,3.5-10.3,2.9-15.3-0.2C478.9,516.7,477.5,513.2,473.8,513.2z"/>
		<path class="st0" d="M492.6,509.7c-0.1,3.4-1.8,5.2-5.3,5.1c1.1-5.1-0.1-9.7-3.4-13.8c3.5-1.1,5.1,1.6,7.2,3.4
			C491.1,506.3,490.8,508.3,492.6,509.7z"/>
		<path class="st8" d="M475.4,525.4c0-1.2-0.1-2.3-0.1-3.5C477,523,477.1,524.2,475.4,525.4z"/>
		<path class="st12" d="M489.4,493.6c0.8,0.7,1.6,1.3,2.3,2C490.5,495.4,489.7,494.8,489.4,493.6z"/>
		<path class="st12" d="M492.8,497.2c0.6,0.2,1.2,0.3,1.8,0.5C493.6,498.8,493.1,498.4,492.8,497.2z"/>
		<path class="st0" d="M498.4,434.4c-3.2-1.7-1.9-4.6-2-7.1C499.7,428.9,497.6,432,498.4,434.4z"/>
		<path class="st1" d="M505.1,375.2c-0.1-1.6,0.2-3,2-3.5C506.8,373.1,506.8,374.6,505.1,375.2z"/>
	</g>
</g>
</svg>
