<?xml version="1.0" encoding="utf-8"?>
<!-- Generator: Adobe Illustrator 17.0.0, SVG Export Plug-In . SVG Version: 6.00 Build 0)  -->
<!DOCTYPE svg PUBLIC "-//W3C//DTD SVG 1.1//EN" "http://www.w3.org/Graphics/SVG/1.1/DTD/svg11.dtd">
<svg version="1.1" id="Layer_1" xmlns="http://www.w3.org/2000/svg" xmlns:xlink="http://www.w3.org/1999/xlink" x="0px" y="0px"
	 width="121.14px" height="121.14px" viewBox="0 0 121.14 121.14" enable-background="new 0 0 121.14 121.14" xml:space="preserve">
<g>
	<rect x="1" y="1" fill="#2075BC" stroke="#FFFFFF" stroke-miterlimit="10" width="120.144" height="120.144"/>
	<g>
		<path fill="#FFFFFF" stroke="#FFFFFF" stroke-miterlimit="10" d="M85.046,101.156l9.269-16.149l-2.758-1.06
			c-1.994,6.251-5.081,12.08-9.264,17.209H85.046z"/>
		<path fill="#FFFFFF" stroke="#FFFFFF" stroke-miterlimit="10" d="M62.972,50.495l-8.467-1.966l2.131,14.841l-6.93-1.433
			c0.068,1.647,0.077,3.289,0.017,4.919l13.904,9.133C65.131,67.791,64.904,59.104,62.972,50.495z"/>
		<path fill="#FFFFFF" stroke="#FFFFFF" stroke-miterlimit="10" d="M49.707,61.937L38.801,59.68l10.924,7.176
			C49.784,65.225,49.775,63.584,49.707,61.937z"/>
		<path fill="#FFFFFF" stroke="#FFFFFF" stroke-miterlimit="10" d="M71.79,34.215c-2.182-4.308-4.844-8.483-7.952-12.459H49.361
			c3.062,3.979,5.668,8.157,7.81,12.459H71.79z"/>
		<path fill="#FFFFFF" stroke="#FFFFFF" stroke-miterlimit="10" d="M46.626,88.696l-1.122-1.955
			c-1.819,4.418-4.218,8.576-7.205,12.365l1.176,2.049h12.366c3.241-3.786,5.858-7.98,7.864-12.459L46.626,88.696L46.626,88.696z"/>
		<path fill="#FFFFFF" stroke="#FFFFFF" stroke-miterlimit="10" d="M77.896,88.696h-3.146c-1.952,4.472-4.511,8.664-7.682,12.459
			h15.226c4.183-5.129,7.27-10.957,9.264-17.209l-8.956-3.446L77.896,88.696z"/>
		<path fill="#FFFFFF" stroke="#FFFFFF" stroke-miterlimit="10" d="M74.749,88.696H59.705c-2.006,4.479-4.623,8.673-7.864,12.459
			h15.225C70.239,97.361,72.798,93.169,74.749,88.696z"/>
		<path fill="#FFFFFF" stroke="#FFFFFF" stroke-miterlimit="10" d="M78.442,54.085l-15.469-3.59
			c1.932,8.61,2.159,17.296,0.657,25.495l5.14,3.376l-1.378-14.057l11.913,4.585C79.672,64.708,79.377,59.395,78.442,54.085z"/>
		<path fill="#FFFFFF" stroke="#FFFFFF" stroke-miterlimit="10" d="M45.505,86.741L34.795,68.083
			c-0.399,6.232-1.732,12.282-4.017,17.92l7.521,13.105C41.286,95.317,43.686,91.159,45.505,86.741z"/>
		<path fill="#FFFFFF" stroke="#FFFFFF" stroke-miterlimit="10" d="M30.992,61.455l3.365-5.863
			c-0.752-5.721-2.247-11.465-4.508-17.064L16.69,61.455l14.088,24.547c2.285-5.637,3.617-11.688,4.017-17.92L30.992,61.455z"/>
		<path fill="#FFFFFF" stroke="#FFFFFF" stroke-miterlimit="10" d="M77.896,34.215l13.075,22.778l-12.529-2.909
			c0.935,5.31,1.231,10.623,0.864,15.808l7.686,2.958l6.579,2.532c2.754-17.66-2.369-37.399-15.253-53.627H63.838
			c3.108,3.976,5.77,8.151,7.952,12.459L77.896,34.215L77.896,34.215z"/>
		<path fill="#FFFFFF" stroke="#FFFFFF" stroke-miterlimit="10" d="M93.57,75.383l5.135,1.976l9.127-15.903l-0.363-0.632
			L85.046,21.756h-6.73C91.201,37.984,96.324,57.723,93.57,75.383z"/>
		<path fill="#FFFFFF" stroke="#FFFFFF" stroke-miterlimit="10" d="M44.348,38.185c-1.841-4.408-4.147-8.72-6.924-12.856
			l-7.576,13.199c2.261,5.6,3.755,11.343,4.508,17.064L44.348,38.185z"/>
		<path fill="#FFFFFF" stroke="#FFFFFF" stroke-miterlimit="10" d="M46.626,34.215h10.544c-2.142-4.303-4.748-8.48-7.81-12.459
			h-9.885l-2.051,3.572c2.776,4.136,5.083,8.448,6.924,12.856L46.626,34.215z"/>
	</g>
</g>
</svg>
