<svg fill="none" xmlns="http://www.w3.org/2000/svg" width="1024" height="1024" viewBox="-1.5 -1.5 32 32"><path d="M17.615 1.14 2.517 7.836a2.74 2.74 0 0 0-1.396 3.624 2.76 2.76 0 0 0 3.638 1.39l15.097-6.695a2.74 2.74 0 0 0 1.397-3.624 2.76 2.76 0 0 0-3.638-1.39Z" fill="#37BEC1"/><path d="M13.42 12.004 3.359 16.465a2.74 2.74 0 0 0-1.396 3.624A2.76 2.76 0 0 0 5.6 21.481l10.062-4.463a2.74 2.74 0 0 0 1.397-3.623 2.76 2.76 0 0 0-3.638-1.391Z" fill="#FAB044"/><path d="M24.335 16.173 9.239 22.869a2.74 2.74 0 0 0-1.396 3.623 2.76 2.76 0 0 0 3.638 1.391l15.097-6.695a2.74 2.74 0 0 0 1.397-3.624 2.76 2.76 0 0 0-3.639-1.391Z" fill="#E4615E"/></svg>