<svg width="80" height="80" viewBox="0 0 80 80" fill="none" xmlns="http://www.w3.org/2000/svg">
<g clip-path="url(#clip0_9678_20185)">
<ellipse cx="39.8502" cy="40.1951" rx="39.8578" ry="39.4592" fill="url(#paint0_linear_9678_20185)"/>
<path d="M61.5924 34.761L39.8215 12.7521L18.0485 34.761L28.934 45.7644L39.8215 34.761L50.7069 45.7644L61.5924 34.761Z" fill="white"/>
<path d="M38.9441 65.6452C37.8619 65.6452 36.9307 65.4521 36.1505 65.0659C35.3829 64.6672 34.7915 64.1066 34.3762 63.3841C33.9735 62.6491 33.7722 61.7833 33.7722 60.7866V52.3029H36.2638V60.8614C36.2638 61.6587 36.4903 62.2878 36.9433 62.7487C37.4089 63.2097 38.0758 63.4402 38.9441 63.4402C39.8123 63.4402 40.473 63.2097 40.926 62.7487C41.3916 62.2878 41.6244 61.6587 41.6244 60.8614V52.3029H44.1159V60.7866C44.1159 61.7833 43.9083 62.6491 43.493 63.3841C43.0904 64.1066 42.4989 64.6672 41.7187 65.0659C40.9511 65.4521 40.0263 65.6452 38.9441 65.6452Z" fill="#1F2333"/>
<path d="M49.8123 65.3836V52.3029H55.5504C56.3809 52.3029 57.1045 52.4462 57.7211 52.7327C58.3377 53.0192 58.8158 53.4241 59.1556 53.9473C59.4954 54.4706 59.6652 55.0872 59.6652 55.7973V56.0216C59.6652 56.8064 59.4765 57.4417 59.099 57.9276C58.7215 58.4134 58.2559 58.7685 57.7022 58.9927V59.3291C58.2055 59.354 58.5956 59.5284 58.8725 59.8523C59.1493 60.1638 59.2877 60.5811 59.2877 61.1043V65.3836H56.7962V61.4594C56.7962 61.1604 56.7144 60.9175 56.5508 60.7306C56.3998 60.5437 56.1418 60.4503 55.7769 60.4503H52.3038V65.3836H49.8123ZM52.3038 58.2079H55.2861C55.8776 58.2079 56.3369 58.0522 56.6641 57.7407C57.0038 57.4168 57.1737 56.9933 57.1737 56.47V56.2832C57.1737 55.7599 57.0101 55.3426 56.6829 55.0312C56.3558 54.7073 55.8902 54.5453 55.2861 54.5453H52.3038V58.2079Z" fill="#1F2333"/>
<path fill-rule="evenodd" clip-rule="evenodd" d="M19.8024 65.6915V51.995H28.9184V54.8533H22.916V57.3581H28.3899V60.2163H22.916V62.8332H29.0316V65.6915H19.8024ZM36.0086 65.34L36.0059 65.3386C35.1874 64.9135 34.5514 64.3119 34.1058 63.5364L34.1042 63.5337L34.1027 63.5309C33.671 62.7429 33.4611 61.8247 33.4611 60.7867V51.995H36.5747V60.8614C36.5747 61.5978 36.7819 62.1422 37.1646 62.5325C37.5551 62.9181 38.132 63.1322 38.944 63.1322C39.7575 63.1322 40.3262 62.9174 40.7029 62.534L40.7059 62.531C41.1006 62.1402 41.3132 61.5964 41.3132 60.8614V51.995H44.4269V60.7867C44.4269 61.8258 44.2102 62.745 43.7649 63.5335C43.3308 64.3121 42.6929 64.9146 41.8613 65.3395L41.8596 65.3404C41.0385 65.7535 40.0628 65.9531 38.944 65.9531C37.8249 65.9531 36.8438 65.7534 36.0113 65.3413L36.0086 65.34ZM43.493 63.3841C43.9083 62.6491 44.1159 61.7833 44.1159 60.7866V52.3029H41.6244V60.8614C41.6244 61.6587 41.3916 62.2878 40.926 62.7487C40.473 63.2097 39.8123 63.4402 38.9441 63.4402C38.0758 63.4402 37.4089 63.2097 36.9433 62.7487C36.4903 62.2878 36.2638 61.6587 36.2638 60.8614V52.3029H33.7722V60.7866C33.7722 61.7833 33.9735 62.6491 34.3762 63.3841C34.7915 64.1066 35.3829 64.6672 36.1505 65.0659C36.9307 65.4521 37.8619 65.6452 38.9441 65.6452C40.0263 65.6452 40.9511 65.4521 41.7187 65.0659C42.4989 64.6672 43.0904 64.1066 43.493 63.3841ZM49.5011 65.6915V51.995H55.5503C56.4167 51.995 57.1871 52.1445 57.8531 52.454C58.5181 52.763 59.0431 53.2048 59.4171 53.7808C59.7935 54.3605 59.9762 55.0368 59.9762 55.7973V56.0216C59.9762 56.8551 59.7752 57.5622 59.3454 58.1154C59.0258 58.5267 58.6456 58.8541 58.206 59.0948C58.5635 59.1892 58.8685 59.372 59.1078 59.6511C59.4453 60.032 59.5987 60.5276 59.5987 61.1043V65.6915H56.485V61.4594C56.485 61.2183 56.4205 61.052 56.3156 60.9323L56.3116 60.9277L56.3078 60.923C56.2409 60.8402 56.0965 60.7582 55.7768 60.7582H52.6148V65.6915H49.5011ZM52.3038 60.4503H55.7769C56.1418 60.4503 56.3998 60.5437 56.5508 60.7306C56.7144 60.9175 56.7962 61.1604 56.7962 61.4594V65.3836H59.2877V61.1043C59.2877 60.5811 59.1493 60.1638 58.8725 59.8523C58.5956 59.5284 58.2055 59.354 57.7022 59.3291V58.9927C58.2559 58.7685 58.7215 58.4134 59.099 57.9276C59.4765 57.4417 59.6652 56.8064 59.6652 56.0216V55.7973C59.6652 55.0872 59.4954 54.4706 59.1556 53.9473C58.8158 53.4241 58.3377 53.0192 57.7211 52.7327C57.1045 52.4462 56.3809 52.3029 55.5504 52.3029H49.8123V65.3836H52.3038V60.4503ZM56.465 55.2511L56.4629 55.2489C56.2103 54.9988 55.8338 54.8533 55.286 54.8533H52.6148V57.9H55.286C55.8222 57.9 56.195 57.7599 56.4483 57.5188C56.7195 57.2603 56.8625 56.9206 56.8625 56.47V56.2832C56.8625 55.8287 56.7233 55.4969 56.4672 55.2531L56.465 55.2511ZM56.6641 57.7407C56.3369 58.0522 55.8776 58.2079 55.2861 58.2079H52.3038V54.5453H55.2861C55.8902 54.5453 56.3558 54.7073 56.6829 55.0312C57.0101 55.3426 57.1737 55.7599 57.1737 56.2832V56.47C57.1737 56.9933 57.0038 57.4168 56.6641 57.7407Z" fill="#1F2333"/>
</g>
<defs>
<linearGradient id="paint0_linear_9678_20185" x1="12.9179" y1="64.1079" x2="57.0435" y2="24.4661" gradientUnits="userSpaceOnUse">
<stop offset="0.0729167" stop-color="#AAC4FD"/>
<stop offset="1" stop-color="#76A0FC"/>
</linearGradient>
<clipPath id="clip0_9678_20185">
<rect width="80" height="79.2" fill="white" transform="translate(0 0.742432)"/>
</clipPath>
</defs>
</svg>
