<svg height="250" viewBox="0 0 250 250" width="250" xmlns="http://www.w3.org/2000/svg" xmlns:xlink="http://www.w3.org/1999/xlink"><linearGradient id="a" gradientUnits="userSpaceOnUse" x1="67.11910967797" x2="182.88077013453" y1="24.74608108" y2="225.25379433797"><stop offset="0" stop-color="#0095d7"/><stop offset="1" stop-color="#0072aa"/></linearGradient><path d="m249.511719 125c0 68.765625-55.746094 124.511719-124.511719 124.511719s-124.511719-55.746094-124.511719-124.511719 55.746094-124.511719 124.511719-124.511719 124.511719 55.746094 124.511719 124.511719zm0 0" fill="#fff"/><path d="m240.746094 125c0 63.925781-51.820313 115.746094-115.746094 115.746094s-115.746094-51.820313-115.746094-115.746094 51.820313-115.746094 115.746094-115.746094 115.746094 51.820313 115.746094 115.746094zm0 0" fill="url(#a)"/><path d="m184.757812 164.234375-16.117187-9.277344c-.222656-.128906-.472656-.195312-.730469-.195312-.132812 0-.265625.019531-.394531.054687-.378906.105469-.699219.359375-.890625.707032-1.382812 2.535156-3.105469 4.875-5.117188 6.953124-2.710937 2.804688-5.816406 5.195313-9.222656 7.09375-3.289062 1.824219-6.816406 3.175782-10.480468 4.023438-3.441407.816406-6.96875 1.238281-10.503907 1.257812-6.238281.058594-12.394531-1.402343-17.941406-4.25-5.328125-2.757812-10.050781-6.550781-13.890625-11.15625-1.875-2.265624-3.542969-4.691406-4.980469-7.253906l-1.894531-3.363281h40.90625c.808594 0 1.464844-.65625 1.464844-1.464844v-12.746093c0-.808594-.65625-1.460938-1.464844-1.460938h-45.457031l-.226563-2.015625c-.242187-2.167969-.363281-4.351563-.363281-6.535156 0-1.832031.097656-3.75.292969-5.714844l.203125-2.035156h45.550781c.808594 0 1.464844-.65625 1.464844-1.464844v-12.742187c0-.8125-.65625-1.464844-1.464844-1.464844h-41.34375l1.753906-3.316406c1.242188-2.355469 2.671875-4.601563 4.277344-6.71875 3.636719-4.753907 8.246094-8.679688 13.515625-11.515626 5.441406-2.96875 11.890625-4.476562 19.175781-4.476562 3.460938.015625 6.90625.402344 10.285156 1.152344 3.53125.785156 6.945313 2.027344 10.15625 3.703125 6.007813 3.195312 11.007813 8.007812 14.433594 13.894531.203125.351562.546875.601562.945313.6875.101562.023438.207031.035156.3125.035156.296875 0 .589843-.089844.835937-.257812l14.964844-10.308594c.632812-.4375.824219-1.289062.429688-1.953125-4.433594-7.457031-10.773438-13.699219-18.835938-18.554687-9.132812-5.492188-20.144531-8.300782-32.71875-8.300782-10.667969 0-20.296875 2.011719-28.621094 5.976563-16.054687 7.460937-28.480468 21.003906-34.542968 37.636719-.046876.121093-.085938.246093-.125.367187v.035156c-.039063.125-.082032.253907-.132813.378907l-.535156 1.503906h-31.464844c-.808594 0-1.464844.65625-1.464844 1.464844v12.746093c0 .808594.65625 1.464844 1.464844 1.464844h28.015625l-.160156 2.40625c-.113282 1.734375-.167969 3.179687-.167969 4.539063 0 2.273437.117187 4.582031.34375 6.867187l.242187 2.484375h-28.273437c-.808594 0-1.464844.65625-1.464844 1.464844v12.746094c0 .808593.65625 1.464843 1.464844 1.464843h32.304687l.570313 1.425781c3.199219 8.105469 7.78125 15.601563 13.542969 22.140626 5.921875 6.675781 13.058594 12.167968 21.027344 16.179687 8.03125 4.082031 17.039062 6.152344 26.765624 6.152344 5.753907-.03125 11.480469-.746094 17.0625-2.136719 5.695313-1.375 11.195313-3.460938 16.371094-6.199219 5-2.648437 9.605469-5.992187 13.671875-9.921875 3.101563-2.988281 5.710938-6.449218 7.730469-10.253906.367188-.695312.125-1.558594-.554688-1.953125zm0 0" fill="#fff"/></svg>