<svg xmlns="http://www.w3.org/2000/svg" viewBox="0 0 283.46 283.46"><defs><style>.cls-1{fill:#fff;}.cls-2{fill:#3a59a8;}.cls-3{fill:#fed800;}.cls-4{fill:#333132;}.cls-5{fill:#1d84c5;}</style></defs><g id="Layer_2" data-name="Layer 2"><g id="Layer_1-2" data-name="Layer 1"><circle class="cls-1" cx="141.73" cy="141.73" r="141.73"/><circle id="Ellipse_256" data-name="Ellipse 256" class="cls-2" cx="141.73" cy="141.73" r="90.18"/><g id="Group_9644" data-name="Group 9644"><path id="Shape" class="cls-3" d="M145,76.5l-1.84-5.67-1.84,5.67h-6l4.86,3.56-1.85,5.74,4.86-3.56,4.85,3.56-1.84-5.74,4.85-3.56Z"/><path id="Shape-2" class="cls-3" d="M145,203.34l-1.84-5.67-1.84,5.67h-6l4.86,3.56-1.85,5.74,4.86-3.56,4.85,3.56-1.84-5.74,4.85-3.56Z"/><path id="Shape-3" class="cls-3" d="M207,141.39l-1.84-5.67-1.84,5.67h-6l4.85,3.57-1.84,5.73,4.85-3.56,4.86,3.56L208.16,145l4.86-3.57Z"/><path id="Shape-4" class="cls-3" d="M174.54,85.35l-1.84-5.67-1.84,5.67h-6l4.86,3.56-1.85,5.74,4.86-3.56,4.85,3.56-1.84-5.74,4.85-3.56Z"/><path id="Shape-5" class="cls-3" d="M198.14,173.84l-1.84-5.67-1.84,5.67h-6l4.85,3.56-1.84,5.74,4.85-3.56,4.86,3.56-1.85-5.74,4.86-3.56Z"/><path id="Shape-6" class="cls-3" d="M198.14,109l-1.84-5.67L194.46,109h-6l4.85,3.56-1.84,5.74,4.85-3.57,4.86,3.57-1.85-5.74,4.86-3.56Z"/><path id="Shape-7" class="cls-3" d="M174.54,194.49l-1.84-5.67-1.84,5.67h-6l4.86,3.56-1.85,5.74,4.86-3.56,4.85,3.56-1.84-5.74,4.85-3.56Z"/><path id="Shape-8" class="cls-3" d="M80.15,141.39l-1.84-5.67-1.85,5.67h-6L75.3,145l-1.84,5.73,4.85-3.56,4.85,3.56L81.32,145l4.85-3.57Z"/><path id="Shape-9" class="cls-3" d="M112.6,85.35l-1.85-5.67-1.84,5.67h-6l4.85,3.56-1.84,5.74,4.85-3.56,4.85,3.56-1.84-5.74,4.85-3.56Z"/><path id="Shape-10" class="cls-3" d="M89,173.84l-1.84-5.67-1.85,5.67h-6l4.85,3.56-1.84,5.74,4.85-3.56L92,183.14l-1.84-5.74L95,173.84Z"/><path id="Shape-11" class="cls-3" d="M89,109l-1.84-5.67L85.31,109h-6l4.85,3.56-1.84,5.74,4.85-3.57L92,118.25l-1.84-5.74L95,109Z"/><path id="Shape-12" class="cls-3" d="M112.6,194.49l-1.85-5.67-1.84,5.67h-6l4.85,3.56-1.84,5.74,4.85-3.56,4.85,3.56-1.84-5.74,4.85-3.56Z"/></g><path class="cls-4" d="M207.55,226.36l-3,2.16A107.16,107.16,0,0,1,55,78.89l2.15-3L44.82,63.63l-3,4a124.31,124.31,0,0,0,91.27,198.11q4.3.28,8.61.29a124.35,124.35,0,0,0,74.11-24.42l4-3Z"/><path class="cls-5" d="M265.75,133.11A124.39,124.39,0,0,0,67.64,41.84l-4,3L75.92,57.1l3-2.15A107.16,107.16,0,0,1,228.52,204.57l-2.16,3,12.29,12.29,3-4A124.44,124.44,0,0,0,265.75,133.11Z"/></g></g></svg>