<svg height="250" viewBox="0 0 250 250" width="250" xmlns="http://www.w3.org/2000/svg"><path d="m250 125c0 69.035156-55.964844 125-125 125s-125-55.964844-125-125 55.964844-125 125-125 125 55.964844 125 125zm0 0" fill="#5591f1"/><g fill="#fff"><path d="m187.882812 86.386719h-83.53125c-10.445312 0-18.914062-8.46875-18.914062-18.914063 0-10.445312 8.46875-18.914062 18.914062-18.914062h83.53125c10.445313 0 18.914063 8.46875 18.914063 18.914062 0 10.445313-8.46875 18.914063-18.914063 18.914063zm0 0"/><path d="m150.050781 201.441406h-65.828125c-26.25 0-47.609375-21.355468-47.609375-47.605468s21.359375-47.609376 47.609375-47.609376h84.742188c10.449218 0 18.914062 8.46875 18.914062 18.914063s-8.464844 18.914063-18.914062 18.914063h-84.742188c-5.300781 0-9.78125 4.480468-9.78125 9.78125 0 5.300781 4.480469 9.777343 9.78125 9.777343h65.828125c10.445313 0 18.914063 8.46875 18.914063 18.914063 0 10.445312-8.46875 18.914062-18.914063 18.914062"/></g></svg>