
<svg xmlns="http://www.w3.org/2000/svg" xmlns:xlink="http://www.w3.org/1999/xlink" width="250px" height="250px" viewBox="0 0 250 250" version="1.1">
<g id="surface1">
<path style=" stroke:none;fill-rule:nonzero;fill:rgb(64.705884%,40.000001%,100%);fill-opacity:1;" d="M 249.988281 124.992188 C 249.988281 194.027344 194.027344 249.988281 124.992188 249.988281 C 55.960938 249.988281 0 194.027344 0 124.992188 C 0 55.960938 55.960938 0 124.992188 0 C 194.027344 0 249.988281 55.960938 249.988281 124.992188 Z M 249.988281 124.992188 "/>
<path style=" stroke:none;fill-rule:nonzero;fill:rgb(100%,100%,100%);fill-opacity:1;" d="M 119.195312 186.476562 C 112.386719 191.351562 104.230469 193.996094 95.855469 194.050781 C 81.460938 194.050781 68.089844 186.136719 58.210938 171.808594 C 49.574219 159.246094 44.511719 143.023438 43.820312 125.570312 C 43.796875 124.945312 44.152344 124.367188 44.722656 124.105469 L 54.507812 119.707031 C 54.980469 119.492188 55.527344 119.535156 55.960938 119.816406 C 56.394531 120.09375 56.65625 120.578125 56.65625 121.09375 C 56.65625 137.566406 61 152.953125 68.902344 164.457031 C 76.292969 175.199219 85.910156 181.125 95.894531 181.125 C 101.320312 181.0625 106.605469 179.40625 111.097656 176.363281 C 111.777344 175.917969 112.683594 176.078125 113.164062 176.726562 C 115.078125 179.351562 117.175781 181.835938 119.445312 184.160156 C 119.757812 184.484375 119.910156 184.929688 119.863281 185.375 C 119.816406 185.824219 119.570312 186.226562 119.195312 186.476562 Z M 119.195312 186.476562 "/>
<path style=" stroke:none;fill-rule:nonzero;fill:rgb(100%,100%,100%);fill-opacity:1;" d="M 191.683594 171.78125 C 181.816406 186.175781 168.445312 194.027344 154.039062 194.027344 C 139.632812 194.027344 126.261719 186.109375 116.382812 171.78125 C 107.015625 158.148438 101.859375 140.15625 101.859375 121.09375 C 101.859375 103.496094 112 89.691406 124.953125 89.691406 C 137.90625 89.691406 148.035156 103.484375 148.035156 121.09375 C 148.207031 136.484375 144.574219 151.675781 137.449219 165.320312 C 137.210938 165.761719 136.769531 166.058594 136.269531 166.117188 C 135.769531 166.171875 135.269531 165.984375 134.9375 165.605469 C 133.746094 164.242188 132.636719 162.8125 131.613281 161.316406 C 130.433594 159.59375 129.355469 157.808594 128.382812 155.964844 C 128.1875 155.550781 128.1875 155.070312 128.382812 154.65625 C 132.949219 144.074219 135.253906 132.65625 135.148438 121.132812 C 135.148438 112.417969 130.804688 102.671875 124.992188 102.671875 C 119.183594 102.671875 114.828125 112.417969 114.828125 121.132812 C 114.828125 137.605469 119.183594 152.992188 127.085938 164.496094 C 134.480469 175.238281 144.097656 181.164062 154.078125 181.164062 C 164.0625 181.164062 173.707031 175.238281 181.074219 164.496094 C 188.921875 152.992188 193.332031 137.605469 193.332031 121.132812 C 193.332031 104.660156 188.976562 89.273438 181.074219 77.785156 C 178.8125 74.445312 176.132812 71.410156 173.089844 68.757812 C 172.664062 68.421875 172.449219 67.882812 172.523438 67.34375 C 172.597656 66.804688 172.953125 66.347656 173.457031 66.140625 L 183.179688 61.785156 C 183.757812 61.515625 184.445312 61.644531 184.894531 62.097656 C 187.402344 64.667969 189.683594 67.453125 191.710938 70.417969 C 201.078125 84.039062 206.246094 102.042969 206.246094 121.09375 C 206.246094 140.144531 201.050781 158.148438 191.683594 171.78125 Z M 191.683594 171.78125 "/>
</g>
</svg>
