<?xml version="1.0" encoding="UTF-8"?>
<svg version="1.1" viewBox="0 0 512 512" xmlns="http://www.w3.org/2000/svg">
<title>exposure</title>
<desc>Created with Sketch.</desc>
<g fill="none" fill-rule="evenodd">
<rect width="512" height="512" fill="#000"/>
<path d="m278.17 311c0.32693-0.51451 0.67085-1.015 1.0318-1.5014 3.8334-5.1667 9.25-7.75 16.25-7.75 6 0 9 2.25 9 6.75 0 1.3333-0.16666 3.6666-0.5 7l-0.75 9.5c0 5 2.1666 7.5 6.5 7.5 3.1667 0 6.2083-1.875 9.125-5.625s5.3333-8.875 7.25-15.375 2.875-13.667 2.875-21.5c0-6-0.74999-11.042-2.25-15.125-1.5-4.0834-3.3333-6.125-5.5-6.125-1.8333 0-3.1667 0.45833-4 1.375-0.83334 0.91667-1.6667 2.4583-2.5 4.625-1 2.6667-2.3333 4.7917-4 6.375s-4.5833 2.375-8.75 2.375c-3.6667 0-6.5833-1.2917-8.75-3.875-2.1667-2.5833-3.25-6.5416-3.25-11.875 0-8.5 2.5833-15.167 7.75-20 5.1667-4.8334 11.833-7.25 20-7.25 7 0 13.333 1.7083 19 5.125s10 8.375 13 14.875c5-6.6667 10.625-11.667 16.875-15s12.375-5 18.375-5c6.5 0 11.458 1.5 14.875 4.5s5.125 7.8333 5.125 14.5c0 7.5-1.4167 13.375-4.25 17.625-2.8333 4.25-6.25 6.375-10.25 6.375-3.6667 0-6.1667-0.74999-7.5-2.25-1.3333-1.5-2.3333-3.6667-3-6.5-0.33334-2-0.83333-3.5-1.5-4.5s-1.8333-1.5-3.5-1.5c-2 0-4.125 1.875-6.375 5.625s-4.1667 8.7083-5.75 14.875-2.375 12.583-2.375 19.25c0 7.5 1.7083 13.5 5.125 18s7.5416 6.75 12.375 6.75c9.1667 0 18.25-6.5833 27.25-19.75 1.6667-2.5 3.9167-3.75 6.75-3.75 2.1667 0 3.875 0.99999 5.125 3s1.875 4.75 1.875 8.25c0 6-1.4167 11.167-4.25 15.5-9.8334 15.167-23.833 22.75-42 22.75-7.8334 0-14.792-1.5417-20.875-4.625s-11.042-7.5416-14.875-13.375c-9.6667 11.833-20.917 17.75-33.75 17.75-9.1667 0-16.417-2.6666-21.75-8-2.8193-2.8193-4.8934-6.1275-6.2223-9.9247-1.5571 1.0115-3.3017 1.9864-5.2336 2.9247-9.8334 4.6667-22.583 8.375-38.25 11.125s-31.083 4.125-46.25 4.125c-21 0-38.583-2.375-52.75-7.125-14.167-4.75-24.708-11.292-31.625-19.625-6.9167-8.3334-10.375-17.75-10.375-28.25 0-14.333 4.625-26.542 13.875-36.625 9.25-10.083 22.875-17.375 40.875-21.875-9.8334-2.8333-17.375-7.8333-22.625-15s-7.875-15.167-7.875-24c0-12 3.7916-22.625 11.375-31.875s17.792-16.375 30.625-21.375 26.917-7.5 42.25-7.5c20.667 0 36.167 4.4583 46.5 13.375s15.5 20.458 15.5 34.625c0 9.8334-1.7916 17.792-5.375 23.875s-8.7083 9.125-15.375 9.125c-4.6667 0-8.3333-1.0417-11-3.125s-4-5.2083-4-9.375c0-2.8333 0.41666-5.9166 1.25-9.25 0.83334-5.5 1.25-9.25 1.25-11.25 0-6-2.25-10.875-6.75-14.625s-12-5.625-22.5-5.625c-14.167 0-25.5 3-34 9s-12.75 14.083-12.75 24.25c0 7.8334 3.2083 14.292 9.625 19.375s16.875 7.875 31.375 8.375c3.6667 0.16667 6.25 0.99999 7.75 2.5 1.5 1.5 2.25 4 2.25 7.5 0 11-5 16.583-15 16.75-13.833 0.33334-25.292 2.25-34.375 5.75s-15.667 7.9583-19.75 13.375-6.125 11.208-6.125 17.375c0 10.333 4.8333 18.125 14.5 23.375s25 7.875 46 7.875c13.833 0 28.458-1.625 43.875-4.875s28.625-7.2083 39.625-11.875c2.5-1 4.5833-1.5 6.25-1.5 0.05836 0 0.1164 4.79e-4 0.17412 0.001437z" fill="#48E5C2" style="mix-blend-mode:difference"/>
</g>
</svg>
