<?xml version="1.0" encoding="UTF-8" standalone="no"?>
<!DOCTYPE svg PUBLIC "-//W3C//DTD SVG 1.1//EN" "http://www.w3.org/Graphics/SVG/1.1/DTD/svg11.dtd">
<svg version="1.1" xmlns="http://www.w3.org/2000/svg" xmlns:xlink="http://www.w3.org/1999/xlink" preserveAspectRatio="xMidYMid meet" viewBox="0 0 640 640" width="640" height="640"><defs><path d="M292.63 9.1C307.99 0.97 331.35 0.97 346.71 9.1C346.71 9.1 346.71 9.1 346.71 9.1C440.72 58.91 492.96 86.58 503.4 92.12C512.65 97.02 517.73 104.32 518.64 111.85C518.65 111.85 518.7 111.85 518.79 111.85C518.79 362.22 518.79 501.31 518.79 529.13C518.59 537.35 513.46 545.52 503.4 550.84C503.4 550.84 503.4 550.84 503.4 550.84C409.39 600.65 357.15 628.32 346.71 633.86C331.35 641.99 307.99 641.99 292.63 633.86C292.63 633.86 292.63 633.86 292.63 633.86C198.61 584.05 146.38 556.38 135.94 550.84C125.92 545.54 121.12 537.31 120.88 529.13C120.86 528.29 120.85 527.59 120.88 527.02C120.88 485.79 120.88 155.9 120.88 114.66C120.86 114.08 120.86 113.51 120.88 112.93C120.88 112.86 120.88 112.5 120.88 111.85C120.92 111.85 120.95 111.85 120.95 111.85C121.65 104.23 126.49 97.12 135.94 92.12C135.94 92.12 135.94 92.12 135.94 92.12C219.51 47.84 271.74 20.17 292.63 9.1ZM346.71 422.75C331.35 430.88 307.99 430.88 292.63 422.75C292.63 422.75 292.63 422.75 292.63 422.75L145.54 344.82L145.54 528.31C233.8 574.81 282.83 600.65 292.63 605.82C301.32 610.48 310.36 615.02 319.16 615.21C319.21 615.21 319.62 615.22 319.67 615.22C328.45 615.25 336.98 610.78 345.63 606.54C345.63 606.54 345.63 606.54 345.63 606.54L494.12 527.64L494.12 344.65C405.67 391.51 356.54 417.54 346.71 422.75ZM100.92 553.95C103.97 560.09 108.55 564.78 116.9 570.48C116.95 570.52 117.33 570.78 117.38 570.81C119.21 572.05 121.23 573.35 123.69 574.87C123.88 574.99 124.84 575.58 126.58 576.65L135.48 582.04L122.72 603.21L112.76 597.17C111.75 596.55 111.19 596.21 111.08 596.14C108.2 594.36 105.81 592.83 103.59 591.32C79.79 575.22 70.91 557.67 70.73 521.17C70.73 521.09 70.73 520.72 70.73 520.06L95.39 520.06C96.63 537.72 98.47 549.02 100.92 553.95ZM307.34 232.81C306.2 233.2 305.13 233.65 304.15 234.17C304.15 234.17 304.15 234.17 304.15 234.17C210.13 283.98 157.9 311.65 147.46 317.19C147.29 317.27 147.14 317.36 146.99 317.44C146.99 317.44 146.99 317.44 146.99 317.44L146.85 317.52L147.1 317.66L147.46 317.86C241.47 367.67 293.7 395.34 304.15 400.87C305.13 401.39 306.2 401.84 307.34 402.24C307.34 368.35 307.34 266.69 307.34 232.81ZM332 402.24C333.14 401.84 334.21 401.39 335.19 400.87C335.19 400.87 335.19 400.87 335.19 400.87C429.21 351.06 481.44 323.39 491.88 317.86C492.05 317.77 492.2 317.68 492.35 317.6C492.35 317.6 492.35 317.6 492.35 317.6L492.49 317.52L492.24 317.38L491.88 317.19C397.87 267.38 345.64 239.71 335.19 234.17C334.21 233.65 333.14 233.2 332 232.81C332 266.69 332 385.29 332 402.24ZM353.56 215.92L494.12 290.39L494.12 141.45L353.56 215.92ZM145.54 290.22L285.78 215.92L145.54 141.63L145.54 290.22ZM335.19 30.98C327.04 26.66 312.3 26.66 304.15 30.98C304.15 30.98 304.15 30.98 304.15 30.98C210.13 80.79 157.9 108.46 147.46 113.99C147.29 114.08 147.14 114.17 146.99 114.25C146.99 114.25 146.99 114.25 146.99 114.25L146.85 114.33L147.1 114.47L147.46 114.66C241.47 164.47 293.7 192.14 304.15 197.68C312.3 202 327.04 202 335.19 197.68C335.19 197.68 335.19 197.68 335.19 197.68C429.21 147.87 481.44 120.2 491.88 114.66C492.05 114.58 492.2 114.49 492.35 114.4C492.35 114.4 492.35 114.4 492.35 114.4L492.49 114.33L492.24 114.19L491.88 113.99C408.31 69.72 356.08 42.05 335.19 30.98ZM527.24 46.12C528.24 46.73 528.8 47.08 528.91 47.15C531.8 48.93 534.18 50.46 536.41 51.97C560.21 68.06 569.09 85.61 569.26 122.12C569.26 122.2 569.27 122.57 569.27 123.23C554.47 123.23 546.25 123.23 544.6 123.23C544.6 107.25 542.75 96.74 539.07 89.34C536.02 83.2 531.45 78.51 523.1 72.8C523.05 72.77 522.67 72.51 522.62 72.48C520.79 71.24 518.77 69.94 516.31 68.42C516.12 68.3 515.15 67.7 513.41 66.64L504.51 61.25L517.28 40.08L527.24 46.12Z" id="f459hUFxLq"></path></defs><g><g><g><use xlink:href="#f459hUFxLq" opacity="1" fill="#1969ff" fill-opacity="1"></use><g><use xlink:href="#f459hUFxLq" opacity="1" fill-opacity="0" stroke="#000000" stroke-width="1" stroke-opacity="0"></use></g></g></g></g></svg>