<svg height="250" viewBox="0 0 250 250" width="250" xmlns="http://www.w3.org/2000/svg"><g fill="#202943"><path d="m.0976562 0h30.2656248v30.226562h-30.2656248zm0 0"/><path d="m75.765625 0h30.269531v30.226562h-30.269531zm0 0"/><path d="m151.433594 0h30.269531v30.226562h-30.269531zm0 0"/><path d="m.0976562 75.664062h30.2656248v30.226563h-30.2656248zm0 0"/><path d="m75.765625 75.664062h30.269531v30.226563h-30.269531zm0 0"/><path d="m.0976562 151.519531h30.2656248v30.226563h-30.2656248zm0 0"/><path d="m249.902344 15.210938c0 4.199218-3.34375 7.605468-7.46875 7.605468s-7.46875-3.40625-7.46875-7.605468c0-4.199219 3.34375-7.605469 7.46875-7.605469s7.46875 3.40625 7.46875 7.605469zm0 0"/><path d="m249.902344 90.875c0 4.199219-3.34375 7.605469-7.46875 7.605469s-7.46875-3.40625-7.46875-7.605469c0-4.203125 3.34375-7.605469 7.46875-7.605469s7.46875 3.402344 7.46875 7.605469zm0 0"/><path d="m249.902344 166.535156c0 4.203125-3.34375 7.605469-7.46875 7.605469s-7.46875-3.402344-7.46875-7.605469c0-4.199218 3.34375-7.605468 7.46875-7.605468s7.46875 3.40625 7.46875 7.605468zm0 0"/><path d="m249.902344 242.394531c0 4.199219-3.34375 7.605469-7.46875 7.605469s-7.46875-3.40625-7.46875-7.605469 3.34375-7.605469 7.46875-7.605469 7.46875 3.40625 7.46875 7.605469zm0 0"/><path d="m174.039062 90.875c0 4.199219-3.34375 7.605469-7.46875 7.605469s-7.46875-3.40625-7.46875-7.605469c0-4.203125 3.34375-7.605469 7.46875-7.605469s7.46875 3.402344 7.46875 7.605469zm0 0"/><path d="m174.039062 166.535156c0 4.203125-3.34375 7.605469-7.46875 7.605469s-7.46875-3.402344-7.46875-7.605469c0-4.199218 3.34375-7.605468 7.46875-7.605468s7.46875 3.40625 7.46875 7.605468zm0 0"/><path d="m174.039062 242.394531c0 4.199219-3.34375 7.605469-7.46875 7.605469s-7.46875-3.40625-7.46875-7.605469 3.34375-7.605469 7.46875-7.605469 7.46875 3.40625 7.46875 7.605469zm0 0"/><path d="m98.367188 166.535156c0 4.203125-3.34375 7.605469-7.46875 7.605469s-7.46875-3.402344-7.46875-7.605469c0-4.199218 3.34375-7.605468 7.46875-7.605468s7.46875 3.40625 7.46875 7.605468zm0 0"/><path d="m98.367188 242.394531c0 4.199219-3.34375 7.605469-7.46875 7.605469s-7.46875-3.40625-7.46875-7.605469 3.34375-7.605469 7.46875-7.605469 7.46875 3.40625 7.46875 7.605469zm0 0"/><path d="m22.699219 242.394531c0 4.199219-3.34375 7.605469-7.46875 7.605469s-7.46875-3.40625-7.46875-7.605469 3.34375-7.605469 7.46875-7.605469 7.46875 3.40625 7.46875 7.605469zm0 0"/></g></svg>