<svg width="1024" height="1024" viewBox="0 0 1024 1024" fill="none" xmlns="http://www.w3.org/2000/svg">
<rect width="1024" height="1024" fill="#B40329"/>
<g clip-path="url(#clip0_111_271)">
<path d="M681.815 571.771C675.948 570.138 670.3 568.462 664.609 567.138C663.418 566.874 661.565 567.58 660.594 568.462C647.579 580.374 634.52 592.242 619.652 601.948C602.754 612.934 585.106 622.42 565.959 628.861C553.429 633.096 540.502 633.891 527.928 629.037C519.06 625.64 512.089 619.861 509.663 610.154C508.119 604.066 509.619 598.11 511.472 592.286C513.942 584.521 518.222 577.771 522.943 571.241C530.31 561.094 537.678 550.947 545.311 540.535C523.428 537.093 515.222 523.681 517.339 502.063C514.428 507.445 511.869 512.387 509.177 517.196C496.912 539.123 487.736 562.418 479.265 585.977C475.338 596.919 471.456 607.86 467.882 618.934C465.058 627.67 458.087 632.788 449.352 631.993C438.543 630.979 431.969 625.111 431.616 615.184C431.219 604.507 431.572 593.83 431.572 583.154C431.572 555.314 431.66 527.475 431.528 499.636C431.44 481.415 431.042 463.194 430.822 444.973C430.734 438.399 430.645 431.869 430.557 425.295C430.557 424.325 430.557 423.398 430.557 421.766C437.616 422.56 444.455 422.604 450.94 424.192C459.896 426.354 465.014 434.34 464.97 444.575C464.838 473.076 464.661 501.621 464.529 530.122C464.529 531.137 464.529 532.196 465.014 533.299C467.22 528.666 469.426 524.034 471.676 519.401C486.721 488.783 504.633 459.797 522.987 431.075C527.884 423.398 534.678 416.825 541.075 410.251C546.811 404.427 557.929 405.354 563.709 411.486C569.885 418.06 569.753 426.84 563.179 433.237C550.914 445.149 540.943 458.782 532.693 473.738C532.384 474.356 532.031 474.929 531.766 475.547C531.722 475.679 531.81 475.9 531.899 476.209C536.046 471.223 540.017 466.194 544.296 461.429C557.973 446.296 571.606 431.075 587.401 418.104C598.783 408.751 611.137 401.118 625.564 397.28C631.123 395.78 636.814 395.647 642.461 396.883C653.182 399.221 659.888 406.015 662.977 416.207C665.844 425.781 658.079 433.722 648.329 431.119C645.064 430.237 642.152 427.987 639.02 426.531C638.182 426.134 637.034 426.001 636.196 426.222C626.887 428.825 618.99 434.075 611.269 439.722C588.945 456.046 570.106 475.679 554.885 498.754C552.194 502.857 550.385 507.533 548.179 511.945C548.443 512.298 548.708 512.651 549.017 513.004C553.252 512.254 557.576 511.769 561.767 510.754C569.179 508.989 575.885 505.636 582.062 501.136C593.048 493.106 604.166 485.209 615.328 477.356C620.357 473.826 625.828 470.65 632.181 471.665C637.52 472.547 642.991 474.003 647.755 476.429C649.741 477.444 650.623 481.591 651.153 484.459C652.52 491.783 649.961 497.871 643.785 502.063C631.476 510.445 619.475 519.269 606.063 525.931C596.313 530.784 588.195 537.887 580.959 546.049C568.915 559.638 557.311 573.58 548.532 589.551C546.237 593.698 544.561 598.154 542.576 602.478C542.796 602.787 543.061 603.139 543.281 603.448C548.223 602.125 553.341 601.198 558.105 599.434C578.709 591.845 597.239 580.551 614.578 567.227C630.77 554.785 646.564 541.946 662.624 529.328C664.344 527.961 665.668 525.534 668.58 526.328C672.639 527.431 676.477 528.843 678.551 532.902C678.948 533.696 679.256 534.49 679.83 535.814C682.433 535.24 685.257 534.799 687.816 533.873C688.654 533.564 689.183 531.887 689.448 530.74C692.095 518.607 694.654 506.475 697.257 494.342C699.551 483.753 701.845 473.121 704.096 462.532C704.316 461.517 704.493 460.502 704.713 459.179C699.022 460.414 693.639 460.414 688.345 458.561C684.242 457.149 680.977 454.679 678.198 451.37C676.389 449.208 676.3 447.046 676.918 444.575C678.286 439.061 681.815 435.31 686.801 432.84C694.522 429.046 702.287 425.251 710.052 421.545C711.728 420.751 712.787 419.736 713.449 417.883C715.875 410.913 722.052 408.221 728.758 411.398C733.082 413.427 737.405 413.516 741.95 413.074C763.656 410.913 785.054 411.751 805.658 419.825C810.202 421.589 814.658 423.707 818.938 426.045C833.585 433.987 839.056 448.237 833.629 463.944C830.497 473.076 825.247 480.93 819.026 488.209C804.158 505.592 788.142 521.784 767.892 532.814C756.95 538.77 745.038 543.005 733.567 547.991C732.773 548.344 732.023 548.652 731.229 549.579C734.979 549.844 738.685 550.197 742.435 550.373C763.215 551.344 783.951 552.358 804.731 553.197C815.496 553.638 826.305 553.903 837.07 554.035C859.351 554.3 881.631 554.564 903.911 554.564C911.058 554.564 918.205 553.991 925.353 553.417C933.515 552.755 940.486 555.05 946.045 561.138C950.368 565.859 951.118 571.418 948.824 577.286C946.618 582.889 942.515 586.286 936.294 586.198C929.059 586.154 921.867 585.757 914.632 585.492C906.69 585.227 898.749 584.786 890.807 584.654C875.498 584.433 860.189 584.654 844.88 584.257C818.232 583.506 791.54 582.668 764.936 581.301C748.303 580.462 731.714 578.698 715.125 577.153C713.008 576.977 712.258 577.55 712.037 579.448C710.89 589.242 709.434 599.036 708.596 608.875C707.934 616.728 707.757 624.67 707.846 632.567C707.978 644.303 700.434 648.273 689.669 647.126C681.595 646.244 676.962 641.964 676.609 633.802C676.212 624.846 676.786 615.802 677.668 606.89C678.727 595.816 680.536 584.786 681.992 573.712C681.859 573.227 681.815 572.653 681.815 571.771ZM722.317 525.049C723.773 524.563 724.876 524.255 725.979 523.813C727.964 522.975 729.949 522.137 731.846 521.166C750.597 511.372 767.362 498.93 782.01 483.665C790.525 474.797 798.599 465.664 803.849 454.37C805.614 450.576 805.614 450.576 801.863 449.208C782.628 442.017 762.95 440.914 742.876 444.973C741.023 445.326 740.494 446.296 740.141 447.796C734.361 472.635 728.538 497.43 722.714 522.269C722.493 523.107 722.449 523.946 722.317 525.049Z" fill="white"/>
<path d="M212.741 485.429C219.535 483.356 225.756 481.326 232.021 479.562C244.815 475.944 257.654 472.503 270.493 469.017C272.169 468.576 273.978 468.179 275.699 468.223C280.155 468.355 283.199 466.149 286.067 463.017C296.567 451.369 306.803 439.457 318.935 429.398C331.774 418.765 345.539 409.677 361.113 403.588C371.437 399.574 385.202 407.294 387.099 418.104C388.158 424.236 384.717 429.928 378.408 432.001C346.775 442.369 325.024 464.958 305.611 490.503C305.435 490.724 305.435 491.033 305.17 491.915C306.317 491.121 307.111 490.635 307.817 490.106C323.436 478.15 340.421 468.355 357.937 459.531C365.569 455.693 373.775 454.458 382.202 456.884C389.085 458.87 393.453 463.59 395.261 470.385C396.894 476.65 393.938 481.459 389.041 485.121C382.732 489.797 376.423 494.43 369.893 498.797C354.319 509.21 337.509 516.975 319.774 523.019C316.112 524.254 312.626 526.681 309.67 529.24C295.243 541.946 282.537 556.152 273.228 573.138C272.301 574.859 271.463 576.624 270.581 578.388C270.184 579.271 269.831 580.197 269.081 582.05C274.066 580.683 278.699 580.109 282.669 578.168C293.037 573.094 303.361 567.844 313.288 561.976C340.289 546.005 367.069 529.725 393.894 513.445C402.276 508.371 407.835 509.077 414.277 516.489C415.468 517.857 415.6 519.004 414.894 520.681C410.835 530.563 404.041 538.284 396.011 545.078C376.775 561.358 355.245 574.285 333.803 587.344C318.847 596.477 303.229 604.066 286.331 608.786C274.022 612.228 262.11 611.654 250.771 605.301C238.021 598.154 233.035 585.756 237.359 571.815C240.624 561.358 246.977 552.579 253.683 544.152C260.566 535.505 267.978 527.254 275.125 518.828C273.051 516.136 270.493 513.533 268.728 510.445C266.963 507.357 266.037 503.827 264.625 500.165C258.492 502.283 252.095 504.577 245.654 506.783C231.756 511.504 217.903 516.269 203.961 520.857C199.99 522.181 197.608 524.431 196.108 528.401C186.799 552.976 177.313 577.506 167.872 602.036C167.298 603.492 166.636 604.904 165.842 606.272C160.592 615.404 147.665 617.566 139.635 610.639C135.003 606.625 133.944 601.286 136.635 594.271C143.297 576.712 150.003 559.197 156.665 541.681C157.283 540.049 157.901 538.372 158.695 536.21C153.665 537.799 148.989 539.387 144.268 540.755C138.841 542.343 133.415 544.24 127.856 545.167C119.826 546.578 112.634 543.931 107.473 537.534C105.399 534.931 104.164 531.313 103.634 527.96C103.017 524.078 105.531 521.122 109.061 519.754C114.487 517.592 120.135 515.827 125.694 514.063C140.032 509.43 154.371 504.886 168.754 500.342C171.181 499.592 172.945 498.224 173.828 495.886C178.593 483.488 183.313 471.047 188.034 458.605C188.078 458.473 187.99 458.252 187.902 457.723C182.034 459.664 176.21 461.561 170.43 463.546C162.445 466.238 154.415 468.752 146.606 471.797C138.885 474.797 131.341 478.326 123.752 481.679C114.532 485.782 103.855 482.65 98.4281 474.179C94.2368 467.649 95.4722 460.723 102.266 457.061C109.017 453.355 116.12 450.178 123.355 447.531C141.488 441.001 159.798 435.001 177.975 428.56C186.005 425.736 193.858 422.471 201.667 419.118C203.343 418.412 204.667 416.427 205.682 414.751C207.005 412.501 207.932 409.986 208.902 407.515C209.476 405.971 210.358 405.353 211.991 405.75C216.535 406.853 221.079 408.089 225.712 408.795C227.918 409.147 230.388 408.839 232.55 408.177C255.007 401.294 277.287 393.926 299.876 387.441C307.861 385.147 316.465 384.661 324.803 383.955C330.053 383.514 334.509 386.206 337.774 390.309C342.539 396.221 340.157 404.427 332.612 407.294C327.23 409.368 321.582 410.648 316.112 412.545C291.14 421.104 266.169 429.751 241.198 438.398C240.933 438.487 240.624 438.619 240.359 438.619C232.33 439.501 228.977 445.06 226.373 451.855C222.182 462.973 217.506 473.826 212.741 485.429Z" fill="white"/>
</g>
<defs>
<clipPath id="clip0_111_271">
<rect width="853.881" height="263.391" fill="white" transform="translate(96 384)"/>
</clipPath>
</defs>
</svg>
