<?xml version="1.0" encoding="UTF-8"?>
<svg id="Layer_1" data-name="Layer 1" xmlns="http://www.w3.org/2000/svg" viewBox="0 0 303.68 411.95">
  <defs>
    <style>
      .cls-1 {
        fill: #b69ebb;
      }

      .cls-2 {
        fill: #23121a;
      }

      .cls-3 {
        fill: #e8c551;
      }

      .cls-4 {
        fill: #414a47;
      }

      .cls-5 {
        fill: #fadd78;
      }

      .cls-6 {
        fill: #010101;
      }

      .cls-7 {
        fill: #e4e3db;
      }

      .cls-8 {
        fill: #c3a146;
      }

      .cls-9 {
        fill: #efede8;
      }

      .cls-10 {
        fill: #efd270;
      }

      .cls-11 {
        fill: #dcb33d;
      }

      .cls-12 {
        fill: #e6e4dd;
      }

      .cls-13 {
        fill: #411854;
      }

      .cls-14 {
        fill: #e5c454;
      }

      .cls-15 {
        fill: #dbd7cc;
      }

      .cls-16 {
        fill: #c3a148;
      }

      .cls-17 {
        fill: #f1d576;
      }

      .cls-18 {
        fill: #e0b739;
      }

      .cls-19 {
        fill: #7e6236;
      }

      .cls-20 {
        fill: #f3d775;
      }

      .cls-21 {
        fill: #eed072;
      }

      .cls-22 {
        fill: #f6d571;
      }

      .cls-23 {
        fill: #ecce71;
      }

      .cls-24 {
        fill: #c5a147;
      }

      .cls-25 {
        fill: #eabf3b;
      }

      .cls-26 {
        fill: #cfa045;
      }

      .cls-27 {
        fill: #caa74a;
      }

      .cls-28 {
        fill: #e5ba39;
      }

      .cls-29 {
        fill: #e3b937;
      }

      .cls-30 {
        fill: #f4d777;
      }

      .cls-31 {
        fill: #fadf7d;
      }

      .cls-32 {
        fill: #c9c9be;
      }

      .cls-33 {
        fill: #96805f;
      }

      .cls-34 {
        fill: #0b0901;
      }

      .cls-35 {
        fill: #c09e49;
      }

      .cls-36 {
        fill: #eacf77;
      }

      .cls-37 {
        fill: #b99945;
      }

      .cls-38 {
        fill: #dfc16c;
      }

      .cls-39 {
        fill: #cfa547;
      }

      .cls-40 {
        fill: #52285c;
      }

      .cls-41 {
        fill: #b59dba;
      }

      .cls-42 {
        fill: #481c65;
      }

      .cls-43 {
        fill: #adacae;
      }

      .cls-44 {
        fill: #493b26;
      }

      .cls-45 {
        fill: #f7d973;
      }

      .cls-46 {
        fill: #f4d674;
      }

      .cls-47 {
        fill: #d0a647;
      }

      .cls-48 {
        fill: #51275e;
      }

      .cls-49 {
        fill: #f6da76;
      }

      .cls-50 {
        fill: #f6da74;
      }

      .cls-51 {
        fill: #f8dd7a;
      }

      .cls-52 {
        fill: #f6d877;
      }

      .cls-53 {
        fill: #d2b666;
      }

      .cls-54 {
        fill: #edc033;
      }

      .cls-55 {
        fill: #f6da78;
      }

      .cls-56 {
        fill: #e1b638;
      }

      .cls-57 {
        fill: #f6d975;
      }

      .cls-58 {
        fill: #4f245f;
      }

      .cls-59 {
        fill: #f7da78;
      }

      .cls-60 {
        fill: #f9de7a;
      }

      .cls-61 {
        fill: #f3d472;
      }

      .cls-62 {
        fill: #a0c7fc;
      }

      .cls-63 {
        fill: #3a2d1b;
      }

      .cls-64 {
        fill: #582f58;
      }

      .cls-65 {
        fill: #eaca67;
      }

      .cls-66 {
        fill: #302f36;
      }

      .cls-67 {
        fill: #e0b938;
      }

      .cls-68 {
        fill: #0c0b01;
      }

      .cls-69 {
        fill: #fade7c;
      }

      .cls-70 {
        fill: #f9dff8;
      }

      .cls-71 {
        fill: #f9dd79;
      }

      .cls-72 {
        fill: #c18412;
      }

      .cls-73 {
        fill: #dfb436;
      }

      .cls-74 {
        fill: #ecefef;
      }

      .cls-75 {
        fill: #c8a146;
      }

      .cls-76 {
        fill: #fbfbfb;
      }

      .cls-77 {
        fill: #cb6521;
      }

      .cls-78 {
        fill: #f8df7d;
      }

      .cls-79 {
        fill: #92b0d6;
      }

      .cls-80 {
        fill: #4d2261;
      }

      .cls-81 {
        fill: #cea444;
      }

      .cls-82 {
        fill: #c89f75;
      }

      .cls-83 {
        fill: #e9e8e1;
      }

      .cls-84 {
        fill: #e2e5e1;
      }

      .cls-85 {
        fill: #462202;
      }

      .cls-86 {
        fill: #fce17e;
      }

      .cls-87 {
        fill: #f7d976;
      }

      .cls-88 {
        fill: #d0a94d;
      }

      .cls-89 {
        fill: #e8bc33;
      }

      .cls-90 {
        fill: #eabe33;
      }

      .cls-91 {
        fill: #fdfefd;
      }

      .cls-92 {
        fill: #4c2956;
      }

      .cls-93 {
        fill: #b9b1c2;
      }

      .cls-94 {
        fill: #977461;
      }

      .cls-95 {
        fill: #dfe4df;
      }

      .cls-96 {
        fill: #f3d879;
      }

      .cls-97 {
        fill: #f0ce6c;
      }

      .cls-98 {
        fill: #100d01;
      }

      .cls-99 {
        fill: #030401;
      }

      .cls-100 {
        fill: #53285c;
      }

      .cls-101 {
        fill: #cca540;
      }

      .cls-102 {
        fill: #d4a947;
      }

      .cls-103 {
        fill: #e6bc36;
      }

      .cls-104 {
        fill: #eed06d;
      }

      .cls-105 {
        fill: #eeece6;
      }

      .cls-106 {
        fill: #e6bb32;
      }

      .cls-107 {
        fill: #e6bb34;
      }

      .cls-108 {
        fill: #acacac;
      }

      .cls-109 {
        fill: #d6ab47;
      }

      .cls-110 {
        fill: #b9b0c2;
      }

      .cls-111 {
        fill: #915f1b;
      }

      .cls-112 {
        fill: #afb0af;
      }

      .cls-113 {
        fill: #daac42;
      }

      .cls-114 {
        fill: #562d59;
      }

      .cls-115 {
        fill: #836739;
      }

      .cls-116 {
        fill: #967462;
      }

      .cls-117 {
        fill: #c29c46;
      }

      .cls-118 {
        fill: #967361;
      }

      .cls-119 {
        fill: #e9cd71;
      }

      .cls-120 {
        fill: #3e1c12;
      }

      .cls-121 {
        fill: #816437;
      }

      .cls-122 {
        fill: #2e2516;
      }

      .cls-123 {
        fill: #f2d371;
      }

      .cls-124 {
        fill: #100d05;
      }

      .cls-125 {
        fill: #f9db79;
      }

      .cls-126 {
        fill: #cba246;
      }

      .cls-127 {
        fill: #caa346;
      }

      .cls-128 {
        fill: #d6ac4d;
      }

      .cls-129 {
        fill: #d4aa4c;
      }

      .cls-130 {
        fill: #671d3e;
      }

      .cls-131 {
        fill: #f7da77;
      }

      .cls-132 {
        fill: #333427;
      }

      .cls-133 {
        fill: #f3d570;
      }

      .cls-134 {
        fill: #907340;
      }

      .cls-135 {
        fill: #eeede8;
      }

      .cls-136 {
        fill: #e6bb33;
      }

      .cls-137 {
        fill: #d6ac4a;
      }

      .cls-138 {
        fill: #b19041;
      }

      .cls-139 {
        fill: #bd9542;
      }

      .cls-140 {
        fill: #eabd33;
      }

      .cls-141 {
        fill: #d6a84a;
      }

      .cls-142 {
        fill: #c6a346;
      }

      .cls-143 {
        fill: #7e7757;
      }

      .cls-144 {
        fill: #f8de7d;
      }

      .cls-145 {
        fill: #ca9d45;
      }

      .cls-146 {
        fill: #a3813e;
      }

      .cls-147 {
        fill: #dfb439;
      }

      .cls-148 {
        fill: #f3da79;
      }

      .cls-149 {
        fill: #b7afbf;
      }

      .cls-150 {
        fill: #92601b;
      }

      .cls-151 {
        fill: #c2b3cb;
      }

      .cls-152 {
        fill: #bac7c7;
      }

      .cls-153 {
        fill: #f6f0ec;
      }

      .cls-154 {
        fill: #90713a;
      }

      .cls-155 {
        fill: #3e1d13;
      }

      .cls-156 {
        fill: #f4d677;
      }

      .cls-157 {
        fill: #fadf7c;
      }

      .cls-158 {
        fill: #8f7944;
      }

      .cls-159 {
        fill: #cfa648;
      }

      .cls-160 {
        fill: #fcdf7b;
      }

      .cls-161 {
        fill: #d1a647;
      }

      .cls-162 {
        fill: #977462;
      }

      .cls-163 {
        fill: #54295c;
      }

      .cls-164 {
        fill: #f4f6f6;
      }

      .cls-165 {
        fill: #3e1d11;
      }

      .cls-166 {
        fill: #323736;
      }

      .cls-167 {
        fill: #f3d675;
      }

      .cls-168 {
        fill: #f8d976;
      }

      .cls-169 {
        fill: #e4c367;
      }

      .cls-170 {
        fill: #ce9f47;
      }

      .cls-171 {
        fill: #b6adbe;
      }

      .cls-172 {
        fill: #4e2460;
      }

      .cls-173 {
        fill: #c9a075;
      }

      .cls-174 {
        fill: #3f1d14;
      }

      .cls-175 {
        fill: #ac893f;
      }

      .cls-176 {
        fill: #eceae5;
      }

      .cls-177 {
        fill: #e2ba40;
      }

      .cls-178 {
        fill: #201c14;
      }

      .cls-179 {
        fill: #826538;
      }

      .cls-180 {
        fill: #e4c152;
      }

      .cls-181 {
        fill: #80223c;
      }

      .cls-182 {
        fill: #f8f7f6;
      }

      .cls-183 {
        fill: #020400;
      }

      .cls-184 {
        fill: #e6ba38;
      }

      .cls-185 {
        fill: #e7bc34;
      }

      .cls-186 {
        fill: #532a5b;
      }

      .cls-187 {
        fill: #fefefe;
      }

      .cls-188 {
        fill: #f2d36c;
      }

      .cls-189 {
        fill: #fbdf79;
      }

      .cls-190 {
        fill: #f1d574;
      }

      .cls-191 {
        fill: #f4f3f0;
      }

      .cls-192 {
        fill: #552b5b;
      }

      .cls-193 {
        fill: #994b2a;
      }

      .cls-194 {
        fill: #f1d370;
      }

      .cls-195 {
        fill: #e7c451;
      }

      .cls-196 {
        fill: #fce07c;
      }

      .cls-197 {
        fill: #f8da73;
      }

      .cls-198 {
        fill: #e7bc32;
      }

      .cls-199 {
        fill: #cba447;
      }

      .cls-200 {
        fill: #e9bb33;
      }

      .cls-201 {
        fill: #645a42;
      }

      .cls-202 {
        fill: #d4aa48;
      }

      .cls-203 {
        fill: #f4d878;
      }

      .cls-204 {
        fill: #e2b836;
      }

      .cls-205 {
        fill: #daaf33;
      }

      .cls-206 {
        fill: #f2d373;
      }

      .cls-207 {
        fill: #e4ba36;
      }

      .cls-208 {
        fill: #fdfefe;
      }

      .cls-209 {
        fill: #3f1d13;
      }

      .cls-210 {
        fill: #4d2161;
      }

      .cls-211 {
        fill: #50255e;
      }

      .cls-212 {
        fill: #e3b83c;
      }

      .cls-213 {
        fill: #fdfdfd;
      }

      .cls-214 {
        fill: #452102;
      }

      .cls-215 {
        fill: #edce6d;
      }

      .cls-216 {
        fill: #c19e46;
      }
    </style>
  </defs>
  <path class="cls-151" d="M248.19,411.43c.45.15.45.32,0,.52H58.39c-.45-.15-.45-.32,0-.52,63.26-1.02,126.54-1.02,189.8,0Z"/>
  <path class="cls-151" d="M50.09,411.43c.49-1.66,6.1-1.59,6.74,0,.45.15.45.32,0,.52H4.46c-.45-.15-.45-.32,0-.52,15.2-1.02,30.43-1.02,45.64,0Z"/>
  <path class="cls-151" d="M256.49,411.43l.36-1.04h44.14l.62,1.04c.45.15.45.32,0,.52h-50.82c-.45-.15-.45-.32,0-.52.35-1.63,5.21-1.56,5.7,0Z"/>
  <path class="cls-112" d="M3.94,411.43c.15-.45.32-.45.52,0v.52H1.86v-.52c.09-1.53,1.72-1.44,2.07,0Z"/>
  <path class="cls-108" d="M250.78,411.43v.52h-2.59v-.52c.04-1.55,2.31-1.43,2.59,0Z"/>
  <path class="cls-108" d="M303.68,411.43v.52h-2.07v-.52c0-1.52,1.73-1.45,2.07,0Z"/>
  <path class="cls-43" d="M58.39,411.43v.52h-1.56v-.52c.03-1.48,1.21-1.42,1.56,0Z"/>
  <path d="M236.26,109.4c.16,1.4.6,2.19,1.31,2.37l.25,1.26c3.31,2.55,3.93,6.24,4.15,9.84-.7,2.93-.84,5.91-.44,8.95l-1.11.9c.21,2.44-.45,4.82-1.97,7.14,3.16,5.28,1.08,9.38-2.56,13.63-.54,2.6-2.1,4.97-4.68,7.08,3.49,7.78,2.82,12.21-.6,19.96-2.61,5.92-6.47,11.89-10.42,17.05,5.09,10.99,2.51,20.82-7.97,27.4l3.42,10.67c1.15,4.69.92,10.28-3.29,13.36-.66,7.68-1.39,15.34-2.51,22.97-.29,2-1.44,7.03-3.65,6.82.27.79-1.52,1.63-2.07,1.04l-1.04.52c-.48,1.3-1.69,1.36-3.64.17-1.75,2.76-3.3,3.57-4.66,2.42-.42.23-.77.23-1.04,0-.17.45-.34.45-.52,0-1.14.33-1.21.13-1.35-.88l-1.76-1.71c-.75.75-1.18.53-1.04-.52-.32,0-.32-.34,0-1.04l-.95-1.11c-.33-2.34-1.11-11.64-.39-13.28.95-2.15,2.85-2.24,3.79-.04l.69,10.3c.47,2.89,1.34,7.9,3.99,3.02l1.17-.18c-.4-.05-1.01-.17-1.04-.46-.29-2.64-.42-11.9,0-14.34l1.04-.74c-1.68-2.16,3.49-2.43,2.07,0,.41.05,1.01.18,1.04.47.28,3.51.27,9.25,0,12.77l-1.04.75c4.02,2.27,6.24-.2,6.66-7.42.45-5.49,1.04-10.95,1.77-16.38l-17.39,3.26c-15.49,2.31-29.77,3.3-36.23-13.59-1.8-4.71-.79-8.22,3.32-3.39,2.37,6.32,5.3,11.26,12.3,13.26,8.07,2.3,27.58-.88,35.64-3.59,6.48-2.17,6.98-4.54,6.1-10.84-.88-2.44-1.14-4.65-.76-6.63h-1.04c1.39,1.89.21,6.76-.43,9.3-1.68,6.77-3.93,11.46-11.59,6.44-2.78,3.36-7.35,3.88-10.37.51-2.12,5.5-8.29,6.25-11.69,1.47-8.3,7.5-11.26-8.46-11.44-14.16l.91-.97c-1.04-1.46-1.46-2.24-1.36-4.23-7.4.69-16.17-.12-20.42-7.16-3.12-.26-2.9-6.88-2.14-9.28,1.79-5.63,7.08-3.12,3.78,1.62-.11.57-.16,1.15-.16,1.74.05,16.19,32.57,5.84,40.37,2.43,8.57-2.5,17.31-2.19,24.96,2.3,8.54-4.2,9.97-12.65,6.17-20.85l.42-4.98c3.72-5.13,7.31-10.35,9.76-16.42l1.87-1.63c1.51-4.75,2.72-17.33-5.5-10.6-2.27,1-3.89.91-4.87-.28-3.2-2.76,1.4-3.28,3.95-3.31l2.64-1.5c-2.67.51-5.13-.17-7.38-2.04l-19.33,9.76-1.66-.32c-1.42,1.97-4.05-.92-1.04-2.07l.79-1.34c4.65-2.18,9.22-4.54,13.69-7.09-3.42-.3-16.82-2.92-11.14-7.51,7,2.91,14.51,4.51,21.98,4.52,2.09-1.43.84-2.5-1.33-2.79-7.99.11-15.31-.09-22.85-3.9-1.36-.68-4.71-2.45-5.44-3.5-.35-.5-.41-1.11-.37-1.7-.33.26-.74.49-1.09.33-1.77-.78.14,24.32,4.82,27.03,4.82.7,9.68,2.55,12.35,6.83l1.2-.26c5.87,6.97,13.49,20.33,5.43,28.11-6.93,6.68-14.1,1.85-19.59-3.66-1.13-.93-1.93-1.22-3.05-.14-10.91,12.32-28.59,5.29-22.25-12.02,3.22-8.79,12.26-15.82,20.93-18.86-4.29-10.18-5.68-20.9-3.4-31.6-2.16-4.36-3.22-8.9-3.17-13.62-2.66-5.22-1.23-9.07,4-11.67,2.97-5.3,6.72-9.76,12.38-12.64l1.81.21c.02-1.16.9-1.86,2.66-2.11-19.62-4.67-41.18-4.81-61.48-1.36,2.34.18,3.8,1,4.38,2.44,2.45-.14,4.7.7,6.74,2.52l9.14,7.69c5.41,2.47,8.48,4.95,4.85,10.97,1.35,6.64-.09,11.64-3.31,17.44-.83,6.53-7.35,25.5-14.11,27.01s-1.75-4.9,1.44-6.28c1-1.78,2.19-3.09,3.55-3.92-.3-.65.44-1.2,1.04-1.55.27-.54-.07-.32-.52,0-.09.56-.47,1.16-1.04,1.04.03.28.03.54-.09.71-2.41,3.42-23.21,11.66-25.5,8.61-2-2.67,1.79-3.72,4.01-4.31,9.84-2.03,20.86-5.64,26.01-14.85-11.13,9.15-26.03,11.38-39.52,6.5-2.04-.74-8.2-3.28-8.8-4.98-.11-.32-.16-.66-.19-1.01l-1.06.39-3.66-3.85c-11.37,19.68,2,39.62,17.72,51.99.65.65,1.2,1.28,1,2.24.31-.26.83-.59,1.06-.39,2.22,1.93,9.53,11.38,2.55,10.36-3.62-4.89-7.2-9.3-12.23-13l-.2-1.63c-1.28.17-2.37-.55-3.27-2.15-1.17,10.75-2.05,21.63-2.64,32.63-.15,6.68.68,13.59,5.77,18.27l.15,1.49c.98.95.22,1.82-1.04,1.04-3.02.54-5.58-4.24-6.68-6.82-2-4.68-2.14-10.1-2.05-15.11.43-8.74,1.12-17.51,2.06-26.31,1.44-8.51-2.22-14.49-6.66-21.14-6.21-11.18-4.41-24.5,1.94-35.11-2.41-5.77-3.87-11.72-4.38-17.85,1.05-2.55,2.94-4.72,5.65-6.52.67-1.98,1.63-3.06,2.86-3.24-1.24-3.07,5.93-4.51,3.11-1.04.65,3.29-2.01,7.16-5.35,8.34-4.56,4.77-3.09,5.88,4.41,3.35.9.55,2.08.63,3.53.23l1.48-.64c12.93.34,25.93.22,38.87.02,6.05-.09,18.47-2.6,6.26-7.63-10.66-12.95-27.51-16.89-42.04-7.26l-1.98-.03c-.7.72-1.39,1.07-2.07,1.04-1.87,1.25-3.32-.18-1.56-1.55-.56-1.64,1.16-2.47,2.59-2.07.19-.39.39-.77.66-1.1,2.63-3.33,20.75-7.51,25.82-8.46,22.17-4.14,47.36-4.08,68.73,2.57,7,.28,13.56,1.68,19.67,4.21,2.74,1.68,7.24,5.2,6.99,8.47Z"/>
  <path class="cls-183" d="M237.82,113.02c-.65-.5-2.05-.4-2.6-1.31l1.04-2.32c5.35-3.53,1.74-9.05-2.18-12.32-12.68-10.57-36.31-12.16-52.42-11.92-22.68.34-45.8,4.22-67.19,11.59l-2.15-.3-1.88,1.85c-4.43,1.7-8.69,3.74-12.93,5.86-4.5,2.25-13.22,7.02-16.1,11.08-2.03,2.85-2.05,5.7-.68,8.85,7.61-7.87,18.57-14.21,28.93-18.39l2.14.07c-.04,1.03.51,1.59,1.56,1.55-.14,1.09-1.87,3.58-3.11,2.59l.52-1.03c-1.92-.35-2.63.69-3.63,2.07-.17-.54-.7-.24-1.6.9-16.67,6.3-25.76,19.34-34.7,33.81v1.57c-8.67,18.1-15.12,36.65-16.31,56.65-.29.59-.73,1.04-1.32,1.36.62,1.66,2.21,1.46,4.76-.6l4.66-3.45c2.12-1.28,4.17,1.44,1.99,2.5l-.17,2.75c-5.89,12.78-8.68,26.71-10.34,40.44-.7,4.6-1.97,9.12-4.22,13.2,2.99-1.6,5.31-1.75,6.95-.44.6,0,1.13.15,1,.73l-1.93,7.54c-1.4,7.75,3.8,14.32,11.2,16.21l-2.16-6.98c-.63-2.11-1.39-7.89,1.75-7.14.41-.21.8-.21,1.15.06.39,7.51,3.01,13.62,7.88,18.34l-.21,1.29.9.41c6.71,10.25,7.68-11.04,7.37-15.29l.55-1.7c-.75-1.74,1.28-1.8,2.48-.83,1.3,1.05,1.84,10.5.82,11.45-.17.16-.43.22-.71.26.6,2.36,3.82.62,5.71-.61,4.3-2.8,4.94-8.02,4.89-12.77.04-.51.37-.87.81-1.13,1.2-1.81,3.68.04,2.07,1.55.94,1.09,1.28,2.32,1.03,3.68,2.59-4.75,4.66-9.78,6.23-15.08-.51-1.76,1.58-2.07,2.37-.6l-.3,7.86,1.13.73c.36,2.21.8,4.54,2.02,6.46l.47-30.41,1.05-.61,1.04-1.04c.85-1.21,2.61.32,2.07,1.55-.25.57-.77.55-.68.17.14-.58,1.31.76.16,1.39-.63,8.47-.71,17-.22,25.6.5,3.71.06,6.92-1.34,9.63l-.94,3.07c-.35.04-4.27-4.79-3.21-5.66-2.31.25-4.54-5.7-3.11-7.25-.18-.53-.53-.53-1.04,0l.49,1.29c-3.02,5.47-6.67,10.88-11.87,14.5,2.85-1.67,5.6-2.44,8.27-2.32,1.53.13.95,2.61-.52,2.59l-.18,1.15c-8.59,7.54-8.04,23.24-5.32,33.62l-.72,1.5c1.75.51,2.47,4.32.52,5.18-1.04.67-1.74-.34-2.29-1.28-6.25-10.77-3.53-24.45-.36-35.6-5.39.93-10.08,2.94-14.08,6.03-9.92-.32-19.77,3.08-29.16,7.11-27.49,11.82-50.87,35.68-48.65,67.32,1.36,12.29,2.42,24.71,1.65,37.19-.06.95-.53,1.81-.98,2.63H1.86c1.71-21.32-6.16-43.43,1.68-63.86,2.74-7.16,8.09-16.37,12.86-22.38,14.17-17.88,37.81-25.59,59.1-31.36-3.14-8.37-12.03-5.41-17.91-11.37-6.39-6.49-5.54-12.71-2.84-20.74-1.93.69-8.51,3.71-9.25.67-.27-1.11,3.4-7.66,4.04-9.77,2.34-7.8,2.7-17.3,4.53-25.52,1.58-7.08,3.74-13.09,6.39-19.78-.29-.22-.64-.22-1.04,0-1.58,1.06-8.39,4.36-9.27,1.74,1.85-13.29,3.48-26.09,7.58-38.92,4.82-15.1,12.58-29.28,21.29-42.43-2.02-4.04-2.98-8.66-1.02-12.95.52-1.14,2.46-3.04,2.6-3.64.39-1.7-1-8.74-.96-11.27.16-12.11,5.94-19.7,9.74-30.19,1.63-4.49,2.11-9.15,3.6-13.5,3.01-8.76,12.31-16.47,17.99-23.99s7.76-13.78,16.88-18.37C136.38,9.5,163.99.71,173.26.09c14.27-.96,18.27,5.88,28.95,12,6.5,3.72,21.79,6.03,22.64,14.67.64,6.46-2.71,10.27-.54,17.64,3.18,10.8,14.7,17.06,16.57,28,.93,5.43.76,13.03.59,18.62-.07,2.25-1.05,5.64-.99,7.78.05,1.5,1.97,3.46,2.01,5.66.05,3.56-2.02,6.46-4.67,8.56Z"/>
  <path class="cls-183" d="M241.97,122.87c.49,8.17,1.52,20,4.27,27.59,2.6,7.16,5.06,11.22,6.03,19.36.74,6.2,1.96,28.78.17,33.71-.78,2.15-3.42,4.51-3.71,6.14-.26,1.45.15,3.13-.03,4.63-.61,5.2-2.79,13.77-.9,18.52,1.04,2.61,5.92,5.7,6.03,6.96.15,1.84-3.42,1.58-3.58,1.73-.27.26.99,6.26,1.06,7.49.12,2.2-.45,14.49-2.87,14.69-1.17.1-3.68-3.55-4.93-4.05.05,2.12,2.13,13.12.98,13.94-6.26-.46-11.01-5.95-15.5-9.8-1.79,7.05-3.02,18.47-10.89,7.77-.03,2.15.08,11.59-1.17,12.83-2.21,2.2-8.05-1.13-10.46-1.91l-3.41,5.4c11.82,5.74,25.23,6.84,37.61,11.12,53.79,18.6,60.06,61.4,62.99,112.44h-2.07l-.78-1c-1.26-12.15-2.68-24.32-4.25-36.51-6.5-38.68-20.96-59.37-58.98-72.12-13.65-3.75-27.09-7.87-40.33-12.37l-1.44-1.81c-1.37.2-2.47-2.12-1.56-3.11l1.1-.6c3.06,2.16,5.01,2.5,5.88,1.02.98-2.48,2.75-5.9,5.47-5.08l1.09-.44c.58.61,6.34,2.78,6.67,2.26,1.45-2.3.35-15.23-1.24-17.86-.38-2.03.73-3.69,2.64-2.25,2.1,3.83,4.5,7.43,7.2,10.79,1.46-3.53,2.46-7.27,3.01-11.2.87-1.92,2.71-1.84,4.27-.69,3.17,3.4,6.74,6.31,10.71,8.72.7-6.4-2.06-13.23-4.62-19.16-.24-4.18,3.69-3.18,4.73,0,1.32,4.51,2.65,6.07,6.33,8.61.7.48.64-15.72-.4-16.88-3.26-1.49-12.33-5.81-6.19-8.96,1.71,1.4,3.54,2.69,5.5,3.86-2.96-3.14-2.81-7.63-2.47-11.71,1.97-9.85,2.42-17.93-3.77-26.2-.85-2.19.43-4.55,2.69-3.07l5.23,8.82c1.77-2.06,2.15-4.9,2.21-7.53.26-11.93-.4-24.93-3.33-36.49-4.53-8.89-7-17.79-6.55-27.76.37-2.1-.69-5.19-.48-5.9.19-.63,1.24-.67,1.4-.93.45-.76-.39-2.44.63-3.01Z"/>
  <path class="cls-4" d="M60.46,207.31h-1.04c.28-.19,1.38-1.25,1.55-1.04.29.95-.47.92-.51,1.04Z"/>
  <path class="cls-42" d="M301.6,411.43h-45.12c-.61-.88-1.03-1.84-1.23-2.89-.11-14.16-.62-28.25-1.57-42.32-.56-8.26-3.38-18.14-5.79-26.07l-1.79-2.29-.99.04c5.08,21.91,5.16,46.42,4.25,69.65-.03.65-.22,1.29-.42,1.95s-.48,1.3-.77,1.93H58.39l-.74-3.54c-.32-24.4.12-48.78,1.31-73.16l-.58-1.02-.52,2.07c.46.1.44.27,0,.52-.08.44-.28.8-.63,1.05-3.33,21.38-5.52,43.14-6.57,65.28.44,3.11.25,6.04-.59,8.79-15.2,0-30.43,0-45.64,0h-.52c-.25-6.97.32-14.03.02-21-.49-11.35-3.45-22.75-.9-34.02,7.53-33.34,37.78-52.49,69.23-59.84,3.57-.83,5.87.19,8.02-.24,1.43-.29,2.35-1.91,3.65-2.61,3.88-2.11,9.28-2.58,13.32-4.56-4.51,11.69-6.8,24.89-1.12,36.61.46.94,1.24,1.54,1.65,2.24,1.58-.53,2.2,1.57,2.16,2.95-1.95,3.48-2.13,7.38.27,10.65-1.4,4.49-1.02,8.61,1.16,12.35.05,7.43,2,15.21,6.62,21.19.21,4.53,1.9,7.27,4.94,10.47,1.73,4.8,4.49,6.98,8.45,9.79,3.86,7.7,14.87,13.95,23.38,11.47,3.82,1.59,7.56,1.79,11.2.62,4.14.7,7.57.55,11.46-1.13,3.44.36,5.95-1.25,7.55-4.83,5.29-1.23,6.96-3.63,9.24-8.23,4.31-1.45,7.05-4.81,8.24-10.08,2.99-3.13,4.04-5.89,4.73-10.1,1.89-1.02,2.3-2.14,2.44-4.19-.76-3.03-.15-5.51,1.82-7.44-.41-3.91.26-7.47,2.01-10.69.49-11.69.39-23.33-.29-34.91-2.13-2.82-2.44-5.48-.93-7.98l-.06-1.91c-3.01-5.31-5.42-10.87-7.02-16.95l.64-1.48c1.32.84,2.86,1.12,4.29,1.67,21.98,8.46,46.6,10.67,66.4,25.36,30.69,22.77,31.96,61.91,35.1,96.78Z"/>
  <path class="cls-13" d="M57.87,336.31l.65,2.42c-.51,22.59-.97,45.19-1.04,67.81,0,1.67-.02,3.3-.64,4.89h-6.74c-2.24-24.9,4.22-49.56,5.7-74.36.09-1.47,1.3-.54,2.08-.76Z"/>
  <path class="cls-13" d="M246.11,337.87c.67.36,1.54.31,2.1.88,2.44,2.49,6.09,23.92,6.64,28.46,1.79,14.74.5,29.49,1.62,44.23h-5.7c-.57-.8-.94-1.67-1.11-2.64.65-19.26.07-38.44-1.76-57.55-1.15-4.54-1.75-9-1.8-13.38Z"/>
  <path class="cls-99" d="M248.19,411.43c.81-20.23,1.22-40.71-1.63-60.8-.29-2.04-3.06-14.32-2.52-14.84,1.28-1.24,1.85,1.3,2.07,2.07,6.7,23.3,3.86,49.72,4.67,73.57h-2.59Z"/>
  <path class="cls-99" d="M58.39,333.72c.09-.09,1.14.06,1.55,0-.81,25.88-1.98,51.72-1.55,77.71h-1.56c-1.29-25.1.64-50.25,1.04-75.12,0-.17,0-.35,0-.52l.52-2.07Z"/>
  <path class="cls-82" d="M146.55,100.07c-.13-.48-.09-1.17.32-1.26,16.55-3.9,38-1.9,54.75.75.62.45.42.96-.62,1.55-3.54,1.79-6.69,4.03-9.35,6.98-1.51,1.68-3.3,5.39-4.27,6.35-.87.86-2.52.95-3.73,2.75-2.69,4.04-.29,4.81.2,8.04.26,1.72-.04,3.5.26,5.43.42,2.62,2.72,6.35,2.88,8.05.17,1.83-.95,5.09-1.06,7.18-.45,9.04,1.12,17.09,5.21,25.14-6.52,1.35-13.98,7.01-18.14,12.19-7.48,9.31-7.24,25.02,7.98,23,5.36-.71,8.51-6.53,10.97-6.69,2.54-.17,7.01,6.38,11.21,7.41,7.02,1.72,13.18-4.24,12.83-11.22-.25-4.99-5.7-15-9.29-18.47-2.71-3.25-6.18-5.78-10.41-7.59l.04-1.21,21.53-10.87c6.59,7.99,15.67-3.7,10.62-10.87l7.01-4.65c2.19,1.99,1.18,4.45-.04,6.68-.77,1.4-2.75,2.93-3.1,3.69-.37.82.29,1.54-.19,2.32-1.69,2.74-7.07,8.26-10.28,8.93-2.89.6-4.01-1.24-3.77,2.19.78.87,1.69,1.14,2.72.82,8.26-3.58,10.14,3.62,7.66,10.06-1.67,3.77-3.54,7.68-5.62,11.23-1.03,1.75-5.42,7.41-5.67,8.33-.71,2.64,2.39,8.7,2.48,12.33.1,4.34-4.48,11.19-8.47,12.79-2.31.93-3.18-.99-5.19-1.78-17.97-7.04-33.68,8.29-50.86,6.26-6.15-.73-12.47-5.05-11.09-12,.21-1.05,2.52-3.5.13-3.5s-2.48,6.26-2.2,7.93c.22,1.29,1,2.34,1.43,3.49,4.99,7.74,12.49,10.71,21.26,9.62l.52,1.78c.84,5.8,2.57,23.29,10.88,12.95.41,3.84,5.73,5.63,8.58,3.12,1.2-1.06,1.34-3.07,2.58-4.15,2.45,2.92,4.65,3.99,8.22,1.99.78-.44,1.74-1.88,2.22-1.96.64-.11,4.07,4.07,7.96,1.25,2.58-1.87,3.59-12.28,4.16-15.79-.03-1.05.63-.9,1.04,0,1.4,3.29,3.6,12.36.8,15.05-.15.14-3.01,2.38-3.19,2.49-2.22,1.41-22.29,5-25.88,5.25-9.06.62-17.36.2-22.77-7.81-1.53-2.27-2.75-6.47-3.9-7.92-.39-.49-1.49-.42-1.59-.32-1.35,1.34,4.38,10.61,5.71,12.16,10.46,12.1,35.76,3,49.25,1.31-1.97,5.74-.98,22.49-4.96,26.38-1.87,1.82-4.89.3-4.89-1.25v-13.99c0-.89-2.07-.89-2.07,0v15.54c0,.54-1.86,3.39-2.85,3.39-4.43,0-3.42-13.21-3.89-15.82-.36-1.99-1.85-1.71-2.1.49-.47,4.24,1.03,8.81.54,13.24-.24.96-.76,1.82-1.56,2.59.31,1.74-1.21,1.77-2.56,1.16l-4.59-5.31c.63,5.36-4.54,10.41-8.15,4.49-1.18-1.94-2.83-8.36-1.29-9.92-1.78.24-1.04-8.33-.69-8.73.15-.18.41-.27.69-.33-1.39,2.57-1.71,5.65-.96,9.23.98,2.88,2.2,14.65-3.64,12.56-1.18-.42-1.86-3.26-2.11-4.46l-1.79-13.48c-.85-3.96-2.12-9.01-5.5-11.11.53,4.71-.51,6.44-3.11,5.18-.64.1-1.31.12-1.88-.21-9.06-5.14-17.8-8.62-27.48-12.45-1.73-.51-2.83-1.47-3.3-2.89-4.91-3.09-9.13-7.43-9.51-13.51.13-13.04.87-26.09,2.22-39.13.14-.77.8-.87,1.58-.72,2.48,2.51,5.69,4.7,8.04,7.25.91.98,4.77,6.65,5.19,6.74.48.1,1.19-.44,1.29-.8.37-1.4-4.48-7.29-5.7-8.53-.2-.78-.51-1.5-.94-2.16-10.98-9.09-21.15-24.06-18.17-39.09.63-3.17,1.98-8.48,5.11-9.52,8.63,6.63,21.65,9.02,32.15,6.48,6.81-1.65,13.29-5.09,18.14-10.1-.23,7.46-10.18,13.4-16.45,15.94-4.35,1.76-9.29,2.24-13.34,3.76-.8.3-1.31.56-1.82,1.28.63.91,1.32.83,2.3.79,6.7-.24,17.49-5.13,23.1-8.82.73-.69,1-.4.52.52-.85,1.73-1.38,3.17-2.84,4.67-.42.43-6.33,4.4-4.16,4.66,5.88.69,9.75-10.29,11.57-14.35,2.69-6,2.05-4.83,3.32-11.19.73-3.65,3.78-6.13,4.05-11.49.11-2.23-.77-5.13-.53-6.71.22-1.47,1.76-2.43,1.54-4.66-.35-3.58-3.04-3.28-5.16-4.73-5.82-4-8.19-8.44-16.1-11.63Z"/>
  <path class="cls-85" d="M240.41,132.71c1.79,4.48,1.18,9.77,2.32,14.52,1.13,4.72,4.22,9.29,5.6,14.1,2.72,9.49,2.8,24.71,3,34.82.07,3.68-.57,7.51-3.4,10.12l-5.96-10.1c-.57-.41-1.02.42-1.06,1.05-.12,1.95,3.19,5.76,4.05,7.88,3.82,9.41-1.61,18.14.23,27.23.55,2.7,2.99,4.52,4.55,6.59-3.21-.63-6.76-2.46-8.56-5.18-.47-.14-1.2.48-1.28.81-.87,3.27,7.88,5.75,8.22,6.78,1.02,6.64,1.58,12.71.07,19.35-1.44-1.66-4.55-3.29-5.7-4.92-.92-1.3-2.53-7.92-4.4-7.51-2,.43.8,4.51,1.17,5.56,1.92,5.52,3.42,11.34,3.23,17.23-2.8-1.26-5.43-2.94-7.78-4.92-1.28-1.08-6.44-7.9-7.67-4.56-.84,2.28-.91,5.9-1.81,8.55-2.22,6.54-3.23,2.04-6.19-1.29l-4.28-7.11c-1.74.8,1.12,6.36,1.31,8.52.15,1.71-.13,11.21-.77,12.22-.75,1.17-7.65-1.49-8.58-2.61-1.35.3-1.53-.04-.52-1.04,1.03-1.16,2.09-4.51,2.44-6.11,1.65-7.52,1.67-16.41,2.83-24.11,7.64-6.18,1.55-16.88-.55-24.35,3.47-2.11,6.54-4.39,8.67-7.94,4.05-6.75,1.52-12.04-.33-18.95,2.25-3.01,4.36-6.09,6.21-9.36,3.04-5.38,7.81-13.59,7.11-19.72-.23-2.03-2.62-6.86-2.45-7.7.38-1.82,3.66-3.74,4.3-5.07.37-.78.16-1.86.57-2.54,2.02-3.35,4.4-4.19,3.87-9.11-.17-1.6-1.54-3.09-1.46-4.05.12-1.34,2.56-4.63,3-7.08Z"/>
  <path class="cls-77" d="M112.32,96.45c28.8-11.13,84.25-18.2,112.88-5.79,7.26,3.15,20.08,10.88,12.33,19.76-.78.25-.91-.48-1.27-1.02-7.56-11.21-14.36-9.78-26.06-11.52-2.77-.41-6.29-2.01-9.29-2.63-25.27-5.22-63.41-3.39-86.51,8.45-4.37,1.8-5.58-5.24-2.07-7.25Z"/>
  <path class="cls-72" d="M115.43,106.29c13.51-8.2,24.46-9.09,38.02.1,3.11,2.1,4.66,4.8,6.97,6.65,2.07,1.65,8.09,2.43,3.99,6.7-1.54,1.6-9.89,2.45-12.43,2.61-12.54.77-26.58-.08-39.15-.51-5.93,1.86-4.55-3.5-1.04-5.18,1.13-.38.79-.9-1.04-1.55-1.89-3.05,2.02-7.06,4.67-8.81Z"/>
  <path class="cls-174" d="M107.13,110.95c-.64.88-1.38,3.11-2.06,3.9-2.84,3.28-6.67,3.37-5.16,9.28.72,2.82,1.25,5.58,1.96,8.4.43,1.71,2.23,4.76,2.15,6.1-.09,1.49-1.74,3.07-2.32,4.45-3.84,9.2-4.95,17.94-1.03,27.44,2.35,5.7,7.56,10.58,8.05,16.83.66,8.41-1.1,17.03-1.57,25.41-.57,10.22-2.19,23.76,7.25,30.3l-.52,33.67c-1.24.29-.84-.22-1.15-.67-1.7-2.45-2.72-6.2-2.99-9.17.46-2.75.41-5.33-.14-7.75.96-4.6.69-9.09-1.28-13.39-3.96-7.9-7.69-15.38-6.49-24.68,1.36-10.94,1.93-21.75,1.7-32.45-10.78-16.35-15.65-34.65-5.71-52.67-1.76-4.44-2.75-8.98-2.98-13.61-8.38,6.51-15.51,14.75-21.75,23.2-.72.83-1.39.88-2.25.13,9.07-18.06,16.17-26.61,35.1-35.13.91-.41,1.33-1.3,1.2.42Z"/>
  <path class="cls-166" d="M208.78,204.21c-5.02-.21-9.5-2.71-13.43-7.51-1.6-1.37-3.05-1.73-4.84-.44-4.79,4.73-10.11,7.04-15.95,6.91-5.37-2.56-4.96-9.1-2.79-13.93,2.52-5.62,13.8-16.13,20.16-16.16,4.92-.02,11.05,3.45,14.25,7.05,5.09,5.72,12.18,19.46,2.61,24.07Z"/>
  <path class="cls-72" d="M234.19,110.95l.52,1.04c.07.5-.03,1.05,0,1.56-2.72-.92-9.49,1.18-3.92,1.58s8.08-.55,8.06,6.71c-16.06.23-32.17-.32-48.23,0-2.25-.36-.26-5.93,1.56-5.7.79-.92,2.04-1.36,3.74-1.32-.5-.04-.87-.31-1.15-.75-.86.06-1.69-.02-2.5-.21-.98-1.29,5.35-8.2,6.65-9.11,11.76-6.95,27.35-5.87,35.26,6.22Z"/>
  <path class="cls-70" d="M114.39,124.94c.78,8.13,3.09,16.84,10.53,21.34,14.9,9.03,26.79-8.1,26.3-21.86,1.93.36,12.45-2.07,13.01-1.26,1.99,9.19-4.64,18.58-12.34,22.92-9.46,5.32-18.81,5.83-29.2,3.21-7.79-.45-19.49-16.76-16.28-23.22.44-.88,7.07-2.11,7.98-1.13Z"/>
  <path class="cls-70" d="M194.77,124.94c-.19,3.75,1.03,10.78,2.66,14.18,3.06,6.41,7.96,7.7,14.74,7.08,10.02-.91,15.92-13.42,16.83-22.3h9.85c-.98,4.7-1.33,13.22-4.93,16.58-.84.78-6.33,4.61-7.04,4.44-.65-.15-1.27-1.12-2.32-1.32-4.93-.91-5.88,4.74-9.28,5.19-5.14.68-10.6-.73-15.33-2.62-5.43-1.66-16.23-16.28-13.12-21.21.45-.72,7.04-.9,7.93-.03Z"/>
  <path class="cls-193" d="M112.32,96.45c-1.16,3.41-2.17,6.08,2.07,7.25-.41.21-1.79,1.66-2.59,2.07-8.98,4.62-17.61,7.92-25.66,14.52-.96.79-4.79,5.07-5.21,5.16-1.39.31-2.21-4.39-2.21-5.43-.02-6.75,7.95-10.78,13.03-13.82,6.68-4.01,13.33-6.95,20.57-9.75Z"/>
  <path class="cls-82" d="M190.63,143.07c5.5,5.11,13.69,7.64,21.09,8.09,2.49.15,10.14-1.29,11,2.12.25.98-1.03,2.46-1.87,2.67-.22.05-3.82-.08-4.46-.13-6-.45-12.3-1.83-17.71-4.46-.61.56-1.03.67-.55,1.57.89,1.67,8.06,3.48,10.1,3.9.65.13,5.45-.04,4.17,1.26-5.82,1.9-11.26,6.64-17.11,8.3-.57,1.22-1.06,1.62-1.49,1.19-2.65-2.03-5.53-21.05-4.44-24.64.07-.23.83-.08,1.25.14Z"/>
  <path class="cls-6" d="M117.51,243.58c.78-.66,1.99-.14,3.63,1.55,10.84,6.2,23.21,7.97,32.67,15.54.48.21.97.14,1.45-.13,5.81,6.72,6.35,5.79,1.62-2.8-.21-.76-.35-1.54.05-2.25,2.12-1.66,4.59,4.2,5.2,5.95,1.94,5.62,1.83,13.12,3.25,19.03.24,1.01,1.04,4.38,2.72,3.05,3.42-2.69.97-8.98.77-12.75-.12-2.24-1-8.7,2.07-8.03v9.07c0,.47.5,3.85.64,4.54.66,3.32,2.43,9.67,6.59,5.79,2.84-2.65-.5-17.37.55-18.37,1.24-1.18,1.97,1.21,2.08,2.33.24,2.63,0,8.69.62,10.78.09.3,3.78,4.66,4.06,4.79.83.39,1.35.18,2.06-.28.46-.77.98-1.28,1.56-1.55.35.15.68.38,1.04.52l2.17,2.25c-1.03.79-1.76,1.94-2.17,3.45.44.17.44.34,0,.52-.15.45-.32.45-.52,0-.43-1.12-.82-2.76,0-3.63-.34-.22-.67-.16-1.04,0,.43.15.43.33,0,.52-.38,3.26-5.34,1.18-6.77-.98-2.05,3.84-7.38,5.9-10.4,2-2.24,4.53-9.44,2.64-7.72-2.06l-1.33-.92c-.46-11.62-6.35-17.12-16.79-22.3-9.46-3.4-18.62-7.49-27.48-12.28l-1.08-1.8c.07-.08-.74-1.5-.51-2.07l1.03.52Z"/>
  <path class="cls-162" d="M124.25,196.43c-3.85-3.93-8.63-7.17-12.43-11.67-11.16-13.19-16.04-28.44-6.49-44.28l4.92,5.18c-9.34,13.64-2.98,30.2,6.99,41.45,1.71,1.93,5.96,5.2,7.05,6.97.59.96.62,1.42-.04,2.35Z"/>
  <path class="cls-162" d="M146.55,100.07c-2.46-.99-5.64-1.77-8.3-2.08.49-1.2,2.41-1.2,3.52-1.4,14.36-2.61,34.63-3.13,49.03-1.1,1.83.26,14.32,2.5,14.87,3.03.89.85-.27.88-.73,1.08-1.22.55-2.56.8-3.94,1.5.3-1.63-.8-.89-1.78-1.05-15.75-2.57-32.33-2.84-48.2-.96-1.33.16-3.34.35-4.47.97Z"/>
  <path class="cls-162" d="M115.43,191.77c-.7.73-.83,1.95-.97,2.92-1.14,7.67-1.02,13.65-1.06,21.18-.04,6.16-2.25,15.01.57,20.62,1.64,3.27,4.95,5.81,7.17,8.64-.9-.51-2.95-1.11-3.63-1.55-.38-.25-1.66-1.22-2.07-1.55-4.41-3.56-6.35-8.7-6.76-14.23-1.02-13.64,2.5-27.58,2.1-41.21,1.67,1.57,3.06,3.56,4.66,5.18Z"/>
  <path class="cls-187" d="M185.96,236.33l-.4.89c-.37,4.56-2.41,15.17-7.9,7.91-1.91-4.2-.56-5.74-.5-9.56.06-3.76-.34-7.45-.3-11.18l9.61-3.08c-.53,4.41.96,11-.51,15.02Z"/>
  <path class="cls-79" d="M201.52,123.9v8.03c0,2.55,3.83,8.33,6.59,8.96,7.01,1.59,11.62-5.52,13.49-11.17,1.29-3.9-.35-7.21,5.34-5.54-1.82,10.63-9.19,23.5-21.93,19.3-5.84-1.92-8.01-10.73-8.17-16.22-.11-3.64,1.46-3.5,4.68-3.34Z"/>
  <path class="cls-213" d="M189.07,244.1c-2.53-3.04-.62-5.55-.5-9.04.16-4.73-.22-9.49.04-14.21l8.24-1.09c-.79,2.52-.49,5.15-.52,7.77.48,5.12,1.7,21.04-7.26,16.58Z"/>
  <path class="cls-208" d="M207.22,232.18l-.49.97c-.29,9.67-2.89,12.98-7.81,9.91-1.03-2.18,0-2.91.02-4.9.04-3.11.04-6.26,0-9.37-.03-2.2-1.24-6.03.23-8.01,1.1-1.48,8.75,1.86,9.37,3.12.4.81-1.14,6.77-1.32,8.29Z"/>
  <path class="cls-62" d="M123.21,124.43c-6.73,26.04,26.76,25.76,21.78,0h3.63c.61,7.2-2.57,16.46-9.18,20.1-13.23,7.3-23.85-8.7-22.46-20.62l6.22.53Z"/>
  <path class="cls-213" d="M174.55,237.36l-1.26,6.29c-1.4,3.86-2.39,3.19-3.93-.08-1.48-5.44-2.09-11.05-3.11-16.57l8.29-2.08c.62,4.45.35,8.05,0,12.43Z"/>
  <path class="cls-94" d="M190.63,143.07c-.89.53-.55,1.93-.46,2.78.77,7.43,1.06,14.04,4.1,21.05.17.15.72-.43,1.03-.52-1.34,2,.29,1.56,1.04,2.07,3.49,2.39,9.57,4.28,10.37,8.81-1.25-1.2-5.51-3.86-7.14-4.52s-5.2-1.05-5.83-1.43c-.21-.13-2.25-3.62-2.52-4.21-3.69-7.88-3.65-17.62-2.65-26.1,1.01.24,1.47,1.52,2.07,2.07Z"/>
  <path class="cls-1" d="M122.69,149.29c-8.27-2.09-14.47-6-17.64-14.23-.62-1.6-2.6-7.86-1.83-9.08,1.12-1.79,9.06-2.36,11.18-2.06.04.34-.04.7,0,1.04l-7.23,1.58c-.1,9.95,6.75,18.65,15.53,22.77Z"/>
  <path class="cls-66" d="M208.78,204.21c-8.05,3.88-10.73-6.09-16.85-6.26-3.29-.09-3.29,1.76-5.49,3.37-3.94,2.87-7.21,4.09-11.88,1.86.82-1.74,3.2-.83,4.81-1.16,4.78-.98,10.15-7.89,13.58-7.64,2.96.21,7.9,6.49,10.71,7.97,1.51.79,3.55.98,5.14,1.86Z"/>
  <path class="cls-116" d="M143.43,221.82c5.9,5.59,13.25,7.47,21.26,5.7.19.21.4,4.84.52,5.7-.85-2.02-2.46-.51-3.89-.52-8.05-.05-15.03-3.22-17.89-10.87Z"/>
  <path class="cls-150" d="M115.43,106.29c-2.71,2.81-3.75,5.08-4.67,8.81.14.72.49,1.24,1.04,1.55-.68,1.72-2.13,3.27-2.07,5.18,1.03.03,2.08-.03,3.11,0l-9.79,2.32-1.64-.59c-.28-2.13.69-4.11,2.16-5.56,1.11-1.09,3.07-1.66,3.81-2.41,1.05-1.04,1.82-4.34,2.87-5.68.38-.49,2.46-2.12,3.11-2.59.78-.57,1.5-.68,2.07-1.04Z"/>
  <path class="cls-41" d="M199.96,146.18c-5.61-2.25-10.09-5.26-12.54-11.05-.7-1.66-3.16-10.24-1.68-11.29,1.02-.72,8.92-.68,9.55.06.23.5-.51.95-.52,1.03-2.22,1.03-4.89.32-7.26.52-.01,9.02,6.44,15.01,12.45,20.72Z"/>
  <path class="cls-111" d="M198.92,104.73l-5.96,8.81,1.82.52c-.05,1-.99,1.45-2.82,1.34l.23.73c-.67,1.87-1.87,3.61-1.56,5.7-3.15.06-8.63,2.35-5.8-2.95,1.28-2.39,3.13-2.28,3.97-3.28.44-.53.41-1.62.86-2.25,2.69-3.74,5.32-6.28,9.27-8.62Z"/>
  <path class="cls-116" d="M228.48,176.75c-1.05-1.23.36-2.5.29-4.16-.05-1.16-1.23-5.06-2.08-5.75-.95-.77-6.77,1.63-8.54.53-.17-.49,0-1-.04-1.5,6.42,1.25,10.73-8.64,12.32,2.45.39,2.69.09,4.68-.88,7.18-.32.82-1.02,1.15-1.06,1.24Z"/>
  <path class="cls-214" d="M206.7,279.84c-3.29-.23-3.96,6.66-6.06,7.18-1.25.31-5-1.84-6.38-2.52-1.11,1.2-2.28.49-1.56-1.04-.71-.71-.4-1.01.52-.52.17-.03.36.04.52,0,.3.22.65.22,1.04,0,3.14-.86,3.6-3.45,4.47-3.59.42-.07,1.85,1.25,3.83,1l1.04-.52c.71-.25,1.55-.45,2.07-1.04.21.3.31.78.52,1.04Z"/>
  <path class="cls-110" d="M177.66,245.13c1.46.07,2.33,3.16,4.02,1.43s2.75-7.36,3.52-9.72c.12-.38.75-.47.76-.51.11,3.79.38,8.22-2.59,11.14-2.58,2.52-4.54.23-5.71-2.33Z"/>
  <path class="cls-171" d="M189.07,244.1c8.22,2.33,7.2-11.55,7.26-16.58.86.54.52,1.97.53,2.84.03,2.92.26,6.53.01,9.35-.41,4.61-3.9,9.07-7.8,4.38Z"/>
  <path class="cls-93" d="M198.92,243.06c6.02,3.21,6.15-4.62,7.17-8.64.21-.85-.04-1.9,1.13-2.24-.44,3.72.38,14.16-5.94,12.95-1.03-.2-1.92-1.14-2.35-2.07Z"/>
  <path class="cls-144" d="M224.33,146.18c2.92,1.6,3.45,3.55,3.11,6.73-.66,2.96-3.43,4.42-2.07.52-.41-1-.84-2.02-1.29-3.09-1.69-1.85-3.99-4.69.26-4.17Z"/>
  <path class="cls-149" d="M169.36,243.58c1.6-.56,1.02,3.1,2.33,1.55,1.84-2.17,1.08-5.68,2.86-7.77-.14,1.73-.04,11.53-3.63,9.61-.57-.31-1.46-1.89-1.7-2.55s.16-.8.15-.84Z"/>
  <path class="cls-164" d="M133.07,134.27c-1.08-1.05.81-5.45,2.85-5.69,2.67,1.43-1.06,7.44-2.85,5.69Z"/>
  <path class="cls-74" d="M208.78,131.15c-.77-2,5.58-5.62,5.69-3.37.07,1.41-4.09,3.92-5.69,3.37Z"/>
  <path class="cls-38" d="M224.33,146.18c-3.5-.43-.09,2.88.36,4.04.41,1.05.47,2.13.68,3.21-.15.45-.32.45-.52,0-.27-2.57-2.96-4.35-4.66-5.96,1.54-1.15,2.19-2.36,4.14-1.29Z"/>
  <path class="cls-53" d="M223.81,157.58c-.76.26-.91.22-.52-.52,1.08-1.04,1.72-2.08,1.56-3.63h.52c.09.46-.06,1.05,0,1.55,1.36.27,1.33-1.27,2.07-2.07-.28,2.58-1.33,3.73-3.63,4.66Z"/>
  <path class="cls-124" d="M193.22,282.95c-.16.03-.35.45-.52.52-.7,1.94-1.56,2.8-2.59,2.59.23-1.74,1.48-3.18,1.47-3.37,0-.36-1.71-1.33-1.47-2.33,1.47.58,2.3,1.12,3.11,2.59Z"/>
  <path class="cls-158" d="M223.81,157.58c-.64.26-1.08.85-2.07.51-.23-.8,1.07-.57,1.55-1.03l.52.52Z"/>
  <path class="cls-201" d="M210.85,230.63h-1.04c.08-.48-.06-1.05,0-1.55.92.07.79.99,1.03,1.55Z"/>
  <path class="cls-33" d="M155.88,153.95c.16.43-.84,1.16-1.04,1.55l-.52-.52c.29-.19.29-.86,1.04-1.04.17-.32.34-.32.52,0Z"/>
  <path class="cls-183" d="M234.71,111.99l-.52-1.04c.26.39.42.29.52,1.04Z"/>
  <path class="cls-132" d="M155.36,153.95c-.03-.67.98-.8,1.03-.26l-.52.26c-.17.03-.36-.04-.52,0Z"/>
  <path class="cls-124" d="M189.07,279.84c-.04.1-1.43,1.47-1.56,1.55l1.56-2.59c-.04.33.08.81,0,1.04Z"/>
  <path class="cls-183" d="M204.11,279.84l-1.04.52c.06,0,.51-.33,1.04-.52Z"/>
  <path class="cls-124" d="M194.77,282.95l-.71.45-.33-.45c.3-.08.74.08,1.04,0Z"/>
  <path class="cls-181" d="M122.17,20.81c3.78-3.68,6.63-5.06,11.53-6.88,11.07-4.09,31.94-11.94,43.19-11.81,10.35.11,17.39,8.44,25.65,12.74,5.17,2.7,19.25,5.61,20.2,11.94.6,3.95-1.79,9.01-1.54,13.46.75,13.58,14.41,20.12,16.98,30.7,1.97,8.09,1.01,17.26.67,25.49l-6.78-4.88c-26.67-16.19-91.87-9.16-120.27,2.29l-10.76,1.53c-8.44.88-9.54-7.03-7.1-13.47l3.57-10.25c.79-7.37,2.53-14.36,5.21-20.96,6.72-7.21,11.93-13.79,15.22-23.13l4.24-6.77Z"/>
  <path class="cls-85" d="M109.73,266.89c-.15-1.63.61-7.34-.8-7.77-.5,0-.86.3-1.27.51-1.34,3.08-2.44,6.26-3.31,9.54-.75,2.26-3.39,5.8-3.95,1.85-.89-1.27.38-1.02-2.07-1.55l-.67.53c-.4,5.08-2.43,8.79-5.94,12.47-1.1,1.16-4.58,4.19-4.8,1.51.13-2.1.48-10.2-1.03-11.18-.61-.4-1.06.01-1.56.3l-.55,2.5c.81,2.45-1.51,17.36-4.88,17.12-1.05-1.15-2.17-2.16-3.38-3.04-4.13-4.48-5.42-4.86-7.11-11.29-.43-1.65-1.26-7.96-1.7-8.4-2.98-.77-2.4,4.64-1.91,6.49,1.56,4.37,2.84,8.7-3.07,4.19-7.25-5.54-6.47-12.36-3.93-20.08l-.94-.97c-.85.11-1.75-.09-2.71.12-1.96.43-4.09,2.01-6.1,1.17,5.4-7.71,5.18-17.78,6.9-26.78,2.01-10.54,4.91-20.86,9.69-30.47,1.94.11.4-4.54.14-4.48l-10.09,7.09c-1.15.55-1.81.19-1.46-1.06,1.15-5.29,1.21-11.63,2.24-17.19,2.86-15.48,8.41-28.48,15.39-42.39,2.01-.53,2.47-2.46,3.64-3.88,6.51-7.91,13.55-15.95,21.76-22.03-.67,3.11-.47,5.75.25,8.83.48,2.05,2.52,5.68,2.35,7.44s-3.68,8.13-4.41,11.19c-2.71,11.3-.37,21.44,4.66,31.62,1.09,2.2,5.08,7.71,5.45,9.58.46,2.38.13,8.64.03,11.41-.34,9.54-2.42,19.44-1.57,28.98.94,10.56,10.25,17.36,7.79,29.04l-1.06,9.05Z"/>
  <path class="cls-162" d="M116.99,245.13c4.19,2.37,8.7,4.96,13.13,6.83,10.53,4.44,18.81,5.86,27.56,14.43,5.9,5.78,3.98,9.38,5.98,16.05-.24.22-.48.43-.76.58-2.28,1.25-11.38-4.21-13.46-6.21-2.33-2.25-18.74-16.82-20.84-14.63-.49,11.36-1.61,22.88-2.86,34.46-.56,9.51-.49,15.96,5.4,23.39,4.02,8.88,3.98,22.01-.9,30.55.14,1.34,8.91-6.59,9.28-7.43,7.05-6.22,10.5-2.8,10.34,10.25,1.3,7.56,3.1,15.43,7.9,21.6l1.64-6.72c3.41-6.97,5.77-14.18,7.05-21.66,2.25-10.07,9.27-7.37,12.32.58,1.57,4.1,3.74,17.31,3.63,21.61l-.62,3.24c1.36,3.7-4.57,11.13-4.93,3.22-1.7-4.5-3.6-8.93-5.71-13.27-1.54,2.81-3.32,8.07-4.38,11.27-2.13,6.43-3.35,11.73-2.24,18.43.41,1.28-.54,4.45-2,3.48-1.88-1.24-11.91-19.24-13.62-22.69-3.73-7.52-5.48-14.03-5.57-22.16-1.73,2.97-3.43,4.73-6.52,6.37-2.23,1.18-7.31,3.6-9.22,1.88-.02.25-.06.48-.16.69-.22.45-9.19.85-9.44-.69l-.63-1.12c3.84-4.27,4.19-9.33,4.16-14.83,0-1.15-.27-8.36-.47-8.75-.82.61-1.4,1.03-2.45.64-.53-.2-4.16-3.98-4.86-4.78-1.8-2.06-4.99-6.06-4.04-8.47l-.55-.98c.58-2.74.6-5.57.06-8.49l1-.89c-.99-.4-.84-.96,0-1.55l-.37-1.15c1.8-2.4,1.94-5.26.42-8.57,2.03-2.74,2.86-5.72,2.48-8.95l1.1-.51c-.78-.06-.74-.71,0-1.04-1.26-1.25-.38-5.5.96-6.48l.59-2.33c.99-11.1-.85-24.24.47-34.49.15-1.16,1.01-.64,1.08-.74Z"/>
  <path class="cls-19" d="M111.28,277.77c1,1.63,3.16,2.95,3.12,5.18l1.03-2.59c-.33,3.7-.9,5.42-1.56,8.81-.52.08-.52.42,0,1.04-.29,2.09.11,3.1-.1,4.78-.25,2.04-2.43,3.9-2.47,4.78-.04.82.83,2.1.97,3.17.39,2.96-.1,4.3-2.03,6.43-.22.54-.41,1.01,0,1.55-.01,2.42,1.27,8.57-.52,10.36-.44,1.34-.11,2.76,1.01,4.26l-.49.92c.39,1.69.07,3.45-.94,5.28,1.41,2.58,2.91,5.95,1.46,8.71-1.33,1.3-.95-.17-.38.24.11.08.59,2.37-.13,2.35,2.97,3.41,3.56,7.7,1.57,11.8,2.6,2.97,3.7,6.01,2.64,9.89,3.15,2.82,4.58,6.02,4.28,9.59,3.5,2.16,5.32,4.96,5.45,8.4,4.28,1.63,6.87,4.18,7.77,7.67,3.61,1.51,6.12,3.2,7.22,7.14,3.18.14,5.59,1.41,8.26,2.98,3.65-1,6.51-1.28,10.19.02,2.84-1.76,5.72-2.7,8.65-2.82,1.8-3.86,4.15-6.22,8.34-7.21,1.13-3.37,2.93-5.6,6.15-7.19,2.53-5.57,5.25-11.05,8.14-16.45l1.51-1.37c-.56-4.01.04-7.47,2.28-10.89-.8-1.27-.79-2.19.01-2.75-1.11-.17-1.28-1.38-.52-3.63-.7-.97-.26-2.46,1.33-4.49-1.15-2.18-1.25-3.79-.29-4.84-.81-.97-.41-4.01.52-4.66.04-1.01-.13-2.05-.52-3.11-1.54-1.11-1.76-3.76-.52-5.18.41-2.71-.11-5.52-1.55-8.44.6-2.98.59-5.87,0-8.66l-.52-.52c-1.7-1.93-1.92-4.57-.63-7.92-.48-1.1-.45-1.91.11-2.44-.86-.44-.75-3.08,0-3.63-.03-2.67-.03-5.26,0-7.77,0-.17-.02-.35,0-.52.83-.46.69-2.15,1.15-2.51.38-.3,1.15.03,1.45-.08.37.59.98.75,1.56,1.04.85,1.01,1.19,1.86,1.56,3.11,1.06,3.61,2.68,8.31,3.98,11.92.92,2.57,3.99,4.67,3.52,8.37-.14,1.07-1.3,2.43-1.17,3.2.53,3.05,3.03,3.52,2.46,9.4-.94,9.65,1.37,19.95-.02,30.02-.28,2.06-1.75,3.36-2.01,4.73-.43,2.31.69,5.68-.6,7.71-.37.58-1.41.7-1.53,1.18-.44,1.87,1.09,4.82-.59,8.08-.59,1.14-1.7,1.23-1.86,1.5-.2.34-.49,3.44-1.06,4.91-.97,2.51-2.42,3.17-3.42,4.87-1.54,2.6-2.05,6.87-4.97,9.02-1.03.76-2.86.83-3.62,1.57-1.01.98-1.59,3.9-3.62,5.71-2.23,1.98-4.29,1.65-5.7,2.6-1.04.7-1.64,3.91-4.13,4.68-1.3.4-2.65.01-3.81.34-4.78,1.35-4.26,2.05-9.85,1.31-3.69-.49-2.24.29-5.29.66-3.79.45-5.16-1.25-7.36-1.43-1.77-.15-3.54,1.39-6.95.67-1.41-.3-10.64-4.37-11.86-5.24-3.23-2.3-3.76-5.13-5.72-7.23-2.15-2.3-5.11-2.64-6.87-6.6-2.06-4.62-1.89-3.28-4.55-6.85-2.36-3.16-1.36-4.32-2.18-7.15-.23-.8-2.57-3.04-3.26-5.03-.9-2.63-2.07-6.42-2.83-9.09s-.14-4.87-.57-7.2c-.28-1.51-1.79-2.76-2.05-5.2s1.04-6.42.91-7.17c-.09-.55-.96-1.18-1.18-1.9-.95-3.21-.88-4.06,0-7.25.7-2.53,1.83-1.05-.26-4.66.21-1.86-.11-3.4-.52-5.18.28-.92.74-1.76,1.36-2.53-1.35-3.35-1.01-6.32,1.09-9.27-1.66-4.34-2.64-9.46,1.6-12.73-.42-2.85.12-5.76,1.61-8.74-.47-1.55-.28-2.55.57-3.01,0-.13.47-2.47.52-2.59-.42-.21-.84-.7-.62-.97,2.09-2.62,4.53-4.84,7.88-5.25Z"/>
  <path class="cls-130" d="M111.8,93.86c-10.05,4.05-19.77,10.12-28.79,16.05-1.11.44-1.25-2.63-1.31-3.34-.54-6.75.87-15.96,3.12-22.31,1.76-4.96,5.01-9.41,6.62-14.1,1.08-3.14,1.19-6.23,2.05-9.35,3.31-11.97,11.15-17.31,18.3-26.28,3.62-4.55,6.04-9.51,10.37-13.73l-8.4,18.29c-2.77,5.1-8.46,8.29-10.89,13.47-2.75,5.89-2.8,12.81-4.29,19.02-1.36,5.64-6.72,14.9-4.01,20.03,3.16,5.97,12.29.09,17.21,2.23Z"/>
  <path class="cls-187" d="M103.5,286.58c-.05.96.56,1.91.5,2.82-.1,1.51-1.82,4.51-2.03,6.85-.1,1.1.54,1.98.51,2.47-.02.29-2.62,1.35-3.08,4.75-.49,3.58,1.4,6.59,1.33,7.73-.04.54-1.76,2.67-1.91,4.67-.13,1.87.95,4.08.88,4.66-.03.2-.93,1.24-1.24,1.71-.47.7.43,1.73-1.18.61-1.93-8.42-2.99-12.91-1.42-21.88.77-4.38,2.92-13.17,7.64-14.39Z"/>
  <path class="cls-91" d="M108.17,270.52c.17.17,1.03,3.63,1.45,4.5.5,1.02,1.08,1.82,1.66,2.75-.16,1.51-2.53,1.62-3.89,2.59-.72.52-3.08,2.89-3.37,3.62-5.57,2.27-11.73,5.16-17.61,6.5-.45.1-1.38.61-1.57-.02.68-3.13,4.12-2.38,7.02-3.35,6.55-2.2,12.23-10.74,15.28-16.6.56-.62.9-.62,1.04,0Z"/>
  <path class="cls-155" d="M56.83,259.64c.5-.06,1.27-.8,2.07-.52-.95,5.49-3.23,8.72-1.28,14.49,1.18,3.49,4.69,6.81,8.02,8.3-.94-2.54-2.41-6.35-2.11-9.07.19-1.78,1.36-4.65,3.15-2.84-1.24-.3-1.15.66-1.31,1.52-.81,4.5,2.08,9.77,3.38,14.01-8.67-1.45-15.18-8.18-13.96-17.31.37-2.76,2.85-5.85,2.03-8.59Z"/>
  <path class="cls-209" d="M98.32,269.48c.94,9-2.11,15.73-11.66,17.1-1,.03.24-2.46.25-2.6.4.86,2.41-.84,2.76-1.12,2.63-2.08,4.53-4.57,5.78-7.69.63-1.56,1.09-4.88,1.55-5.7.61-1.08,1.16-.02,1.31.02Z"/>
  <path class="cls-165" d="M84.32,273.11c1.16,5.4.4,15.89-3.08,20.35-2.07,2.66-4.45-2.38-5.73-3.77,1.8-.61,2.29,1.93,2.86,2.07,2.21.55,4.11-9.04,4.34-10.68.34-2.45-.89-6.52,1.62-7.97Z"/>
  <path class="cls-209" d="M53.2,205.24c.13.91,1.54-.23,1.9-.44,1.85-1.09,9-6.69,9.77-6.83,1.21-.22,1.93,4.87,1.79,5.41-.25,1-1.75.91-2.05.31-.2-.41.19-1.61-.77-2.06-3.69,2.36-6.95,6.19-11.67,6.2-.14-.11.95-2.19,1.04-2.59Z"/>
  <path class="cls-120" d="M107.65,259.64c-1.32,6.46-2.34,13.75-7.77,18.13.66-2.2.56-4.45.51-6.73.21.3.61,1.11.78,1.03,3.25-2.24,3.63-10.98,6.48-12.43Z"/>
  <path class="cls-152" d="M108.17,270.52c-.07-.07-.71.04-1.04,0,.63-1.22,1.22-1.58,1.04,0Z"/>
  <path class="cls-13" d="M57.87,335.8l.52-2.07c-.07.08-.51,1.97-.52,2.07Z"/>
  <path class="cls-118" d="M156.92,255.49c1.83,3.89,4.24,7.49,4.67,11.91-.98.23-1.23-.55-1.81-1.03-2-1.65-3.94-4.08-5.96-5.7,3.76-.04.82-3.38,3.11-5.18Z"/>
  <path class="cls-34" d="M110.76,115.1c4.84-.16,9.7-1.08,14.53-1.32,2.8-.14,2.98,1.36.2,1.79-3.74.58-9.95,1.1-13.7,1.09-.52,0-1.04,0-1.55,0-.35-.82.45-1.28.52-1.55Z"/>
  <path class="cls-98" d="M158.99,113.02v1.55h-7.52c-.77,0-.77-1.55,0-1.55h7.52Z"/>
  <path d="M183.74,188.23c2.87-.59,2.49,2.58,2.1,4.72-1.22,6.56-10.81,6.77-8.3,1.03.5-1.14,5-5.5,6.2-5.74Z"/>
  <path d="M198.92,187.63c4.36-1.9,11.98,7.22,6.73,9.58-4.67,2.09-6.4-6.44-6.73-9.58Z"/>
  <path class="cls-68" d="M194.77,114.06c3.93-.3,8,.1,11.93-.52-.07.45.14,1.23-.04,1.51-.57.91-8.44.49-10.1.54-1.5.04-2.78.66-4.39.54-1.13-.08-2.2-.03-2.07-1.55,1.6.52,3.59-.44,4.66-.52Z"/>
  <path class="cls-173" d="M163.66,282.43c.59,1.97,1.49,3.7,3.9,3.67s3.34-3.97,4.38-3.15c.25.19.22,1.77,2.06,2.35,3.33,1.06,6.8-1.68,7.29-4.95,2.03,2.27,3.72,4.9,7.25,3.11.28.08.5.17.57.34.57,1.36.15,5.87-.05,7.44.58,2.16.98,4.72,0,6.73.79.35.92,1.54.89,2.41-.87,5.75-1.27,11.74-1.01,17.55l-.91.77.14,1.39c-2.37,2.34-4.71,4.74-7.01,7.18-3.42,3.4-2.71,6.91,2.15,10.51-.39.54-.21,1.08.06,1.65,3.55.99,5.19,7.11,5.68,10.63,1.04,7.51-2.29,14.97-5.75,21.45l-1.48.56-2.74-20.83c-.94-3.5-4.16-12.43-9.16-9.45-2.46,1.47-3.19,10.05-4.04,13.06-2.16,7.63-7.42,14.35-6.88,22.92-6.31-5.56-8.94-16.6-10.22-24.75-.42-2.63-.25-10.33-1.92-11.56-3.48-2.54-9.73,6.15-12.27,8.03-2,1.48-3.86,2.08-6.17,2.89.9-2.94,2.83-5,3.5-8.15,1.27-5.92,1.42-14.4-.24-20.24s-6.26-8.55-6.89-15.39c-1-10.96,1.09-21.81,2.06-32.64.19-2.1.42-14.73,1.05-15.28,14.31,3.3,20.74,19.73,35.78,21.76Z"/>
  <path class="cls-124" d="M190.11,294.35c-.85-.17-.87-2.29-.52-3.11-.45-1.44-.39-3.24,0-4.66h.52c-.13,3.4,1.7,4.73,0,7.77Z"/>
  <path class="cls-143" d="M189.59,282.95c.02,1.2-.03,2.42,0,3.63.04,1.55-.09,3.12,0,4.66-.15.45-.32.45-.52,0,0-2.89.18-4.98-.52-7.77-.02-.07-.02-.51,0-.52.49-.29.84-.29,1.04,0Z"/>
  <path class="cls-124" d="M189.59,282.95c-.32.05-.87-.09-1.04,0l.77-.52.26.52Z"/>
  <path class="cls-183" d="M190.11,297.98c.09.67.9,1.63.91,2.42.01.88-.81,1.8-.93,3.01-.19,1.9.58,3.41.54,4.93v.52c.91,1.76,1.06,3.86.43,6.31l.11,2.57c1.39,2.94,1.91,5.68,1.54,8.22.31,1.71.43,3.44.52,5.18.33.37.44.67,0,1.04-.17.73-.35,1.42-.52,2.07.78.66.4,3.69-.52,4.14.46.4.61.97.44,1.7l-2.55,5.33c0,2.25.71,3.18,2.11,2.81,1.04.73.32,2.54.52,3.63-.02.81-.52,1.67-1.5,2.58-.13,8.13-4.02,15.86-8.15,22.69s-7.69,10.92-8.01-.71c.31-1.31-3.22-9.45-3.7-9.28s-3.07,8.02-3.5,9.4c-1.83,5.85-1.75,10.35-1.51,16.26-.02,2.66-.57,6.14-3.95,4.76-2.89-1.18-13.72-20.85-15.65-24.82-2.59-5.33-4.88-10.5-5.41-16.49-5.24,4.35-12.77,5.72-19.46,5.41-3.18-.15-9.79-.73-7.21-5.02,2.22-1.75,4.18-3.34,4.44-6.4-3.96-1.66-6.91-4.06-8.86-7.2-.29-.84-1.36-1.26-.51-3.11l1.03.52,1.08-.3c2.24,2.2,4.83,4.06,7.69,5.37,1.15-6.47-2.21-10.63-7-14.35-1.79-1.34-2.55-2.91-2.29-4.71-.46-.89-2-4.51-1.48-5.1.2-.23.88,0,.96-.08-.07,2.57,7.55,11.92,9.16,12.37,2.31.64,2.45-5.14,3.28-6.82.07-.15,2.37-2.77,2.59-1.13.05.38-2.34,5.63-2.55,7.28-.91,7.21,1.84,12.27-1.15,20.09-.77,2.03-2.28,3.57-3.04,5.51h9.59c3.43,0,10.78-3.23,13.06-5.86.57-.65,2.27-5.49,3.55-3.48.27.42.59,8.06.93,9.95,2.19,12.41,12.09,23.77,17.21,35.15l1.31-.31c.49-2.77-.58-5.67-.57-8.25,0-11.21,7.3-20.46,8.87-31.34.9-.12.48,1.18.51,1.8.07,1.77-.45,4.76-.24,6.03.37,2.23,4.15,8.34,5.14,11.36.49,1.51.91,3.02.81,4.64,2.12-1.34,2.59-4.34,3.63-6.22,5.86-10.64,10.11-21.77,1.56-32.64-1.88-5.01,3.73-2,4.68,1.21,3.05-6.2,2.71-14.38-.54-20.43l.52-1.5c-.97-4.44.87-15.47,1.04-20.72.17-1.38.64-1.32,1.04,0Z"/>
  <path class="cls-44" d="M110.25,309.37c0,.52,0,1.04,0,1.55-3.21-.55-.11-1.43,0-1.55Z"/>
  <path class="cls-63" d="M113.88,289.17c-.06.31.05.71,0,1.04-1.55.25-1.32-.72-.26-1.54l.26.51Z"/>
  <path class="cls-42" d="M110.25,343.05c.85,1.97,9.61,5.99,9.8,6.55.43,1.25-.8,3.98-1.58,5.03-1.41,1.9-6.47,3.87-1.49,5.25,6.68,1.85,18.34.43,23.63-4.37.8-.73.95-1.84,1.78-2.1-.06,7.25,2.26,13.28,5.62,19.51,3.32,6.17,8.4,15.21,12.32,20.85,6.88,9.9,4.53-5.87,4.86-10.08.53-6.77,4-12.51,5.73-18.89,2.37,2.87,4.56,7.45,5.12,11.19.24,1.56-.7,7.3,2.32,6.39,1.13-.34,8.58-14.48,9.4-16.55.95-2.41,1.77-5.09,2.2-7.65.54-3.24-.96-4.62,2.74-6.33.15.85,1.05,1.89,1,2.87-.04.89-2.12,3.42-2.43,5.28-.29,1.72.39,5.25.15,5.82s-1.58,1.33-2.06,2.12c-1.94,3.17-1.69,4.99-3.91,7.98-2.46,3.32-2.54,5.78-3.9,8.04-.23.38-2.65,1.53-3.64,2.58-1.42,1.52-1.87,3.82-2.58,4.67-.39.47-3.3,1.08-4.66,2.08-1.84,1.35-3.46,5.22-3.86,5.45-.29.17-1.62-.32-2.63-.07-2.11.53-5.1,2.79-6.51,2.88s-3.12-.99-4.66-1.03c-1.76-.05-4.22,1.08-5.71,1-.81-.04-3.11-1.81-4.39-2.26-1.1-.38-4.4-.72-4.58-.87-.19-.16-.8-2.96-2.13-4.35s-4.97-2.67-5.12-2.92c-.34-.56.11-1.61-.84-3.05-1.27-1.94-6.62-4.2-6.92-4.73-.36-.64.02-2.22-.7-3.71-.92-1.91-4.53-4.12-4.83-4.97-.24-.67.37-2.15-.26-3.94s-3.95-5.2-4.05-5.73c-.21-1.12.74-3.1.15-5.4-.43-1.66-2.59-3.72-2.8-4.5-.27-1.03.82-1.96.94-3.03.44-3.86-.37-5.63-1.53-9.04Z"/>
  <path class="cls-187" d="M110.25,326.47c3.23,6.3,9.73,6.79,10.39,15.26.09,1.12.13,3.11-.02,4.18-.1.68.28.93-.78.77-2.02-.3-7.96-4.57-9.08-6.22-.86-1.27-.34-3.17-.75-4.7-.33-1.24-1.67-3.17-1.73-3.94s1.61-4.26,1.96-5.36Z"/>
  <path class="cls-136" d="M203.07,336.31c-.77.29-1.61-.2-2.52-1.47l-1.11-.08c-.88-.67-2.49-.17-3.74-2.74-.67-1.39-1.37-6.1-.4-7.1,1.57-1.64.45,2.49.47,2.84.33,4.75,5.3,4.39,6.16-.12,1.13-5.87-5.71-1.83-6.64-6.86l.69-.31c3.11,2.64,6.62-1.62,5.02-2.8.18-.63-.1-1.81,0-2.59-1.11-.84-.68-1.34.52-1.55.72,1.99,2,3.47,1.54,5.92-.97,5.23.09,4.92.06,9.36-.02,3.65-.85,3.21-.04,7.51Z"/>
  <path class="cls-202" d="M198.4,363.25c.21.38.38.9.52,1.55.06,1.6.25,4.31-.23,5.73s-1.85,1.44-2.26,2.41c-.68,1.62-.64,3.61-1.66,5.85l-.68-.29c-.01-1.46-.65-2.57-1.91-3.33-.64.57-1.67.75-3.11.52-.88-2.11.84-6.65,3.11-7.77-.24,1.18-.69,2.49,0,3.63q-.34,1.39,0,0c1.06-.14,1.77.12,2.97-.39,2.51-1.07,4.23-5.41,1.18-6.86-.46-.11-.28-.46.52-1.04.15-.45.32-.45.52,0,.46-.22.81-.22,1.04,0Z"/>
  <path class="cls-184" d="M111.8,292.8c0,1.02.18,2.32-.11,3.26-.36,1.19-2.46,1.91-2.48,3.21-.02,1.43,1.96,3.59,1.46,6.11s-3.71,2.3-3.02,5.05c-.24.64-.76.46-1.56-.52-1.44-.6-.92-1.8,1.56-3.63.08-.67.09-1.94,0-2.59,1.24-.6.4-2.52-.52-1.04-1.88-.46-2.6-2.46-3.11-4.14.94,0,1.29-.34,1.04-1.04.16-.25.33-.24.52,0,1.08.08,2.09-.26,3.11-.52,1-1.08,1.78-2.51,2.35-4.31l.76.16Z"/>
  <path class="cls-76" d="M193.22,338.9c.11,1.55,1.4,4.45,1.37,4.92-.01.25-2.04,3.79-2.41,4.41-.46.75-1.33,2.17-2.07,2.59.03-1.7-1.11-3.9-1.07-5.46.04-1.36,2.59-4.91,3.14-6.97.42-1.02.77-.84,1.04.52Z"/>
  <path class="cls-54" d="M191.66,381.39c-1.03,2.06-.43,3.8-2.07,6.73-.58-.54-1.1-.72-1.56-.52-2.44-2.06-4.8.5-4.7-3.93.02-.78.52-1.09.55-1.25l.98-.6c.22-1.62.93-2.45,2.13-2.51.06,3.26,2.46,2.45,4.67,2.07Z"/>
  <path class="cls-182" d="M192.7,325.95c-.54-3.01-2.22-5.8-2.56-8.06-.48-3.13.42-6.1.49-9.03h.52c3.54,4.78.63,3.8,1.03,8.55.28,3.36,3.77,5.64.52,8.55Z"/>
  <path class="cls-115" d="M111.8,280.88c1.03.55,1.37.88,1.56,2.07-.01,1.83-.53,3.22-1.56,4.14.12,1.16-1.14,2.9-1.83,1.29l-1.28.27c-.51,1.71-3.03.5-2.07-1.04-.82-1.74-.64-2.94.52-3.63.03-1.78,2.75-3.58,4.67-3.11Z"/>
  <path class="cls-89" d="M201.52,306.78c.19,2.56-1.55,2.74-.52,5.7l-.88.8c-1.37-1.04-2.63-1.31-3.79-.8-1.88-1.42-3.2-3.01-4.15-5.18.35-.69.87-1.03,1.56-1.04.29,1.34,1.94,2.97,3.4,3.09,2.38.19,2.08-1.04,2.82-2.58.15-3.11,1.03-2.81,1.56,0Z"/>
  <path class="cls-179" d="M165.73,400.04c2.85-.25.49,1.72,2.59,1.55.45.15.45.32,0,.52-.14.44-.31.43-.52,0-.73,2.46-.56,2.95,2.08,2.51l.52,1.12c-1.93.93-2.06.11-3.4.24-.53.05-.97.73-1.27.79-1.95.27-3.33.1-4.15-.52-3.88-2.62,5.15-7.24,5.05-5.27,0,.15-1.4-.17-.9-.95Z"/>
  <path class="cls-107" d="M111.8,359.63c-.34,1.6-.49,3.28-.47,5.04l-.56.14c.34,1.29-.04,1.33-1.04.52-.62,1.18-1.83,1.18-3.63,0-.52-.37-.68-.1-1.56-1.04l-.52-.52c-.08-.1.08-.4,0-.52-.82-1.76.25-1.8,1.56-.52,1.57.17,3.29,1.5,4.3-.67.6-1.28-.74-4.19-1.71-5.03-.43-1.44.77-1.73,1.56-.52.56,1,1.56,1.75,2.07,3.11Z"/>
  <path class="cls-140" d="M124.25,396.93c.96.53,1.83.71,2.59.52,2.26,2.2,2.77,3.76,6.74,3.11,1.13.77.59,2.04-.52,2.59-.1.45-.31.77-.64.69-1.57-.42-3.14-.88-4.54-1.72-2.05-1.36-3.17-2.41-4.66-4.41-.29-1.28.75-.57,1.03-.77Z"/>
  <path class="cls-137" d="M175.07,400.04c-1.58,1.62-2.04,4.44-4.67,5.7l-3.63-.52c.63-.83.19-2.63,1.04-3.1,1.05,1.15,1.23,1.15.52,0v-.52c.02-.34-.04-.7,0-1.04.92-.38,1.78.13,2.59,1.55.09-1.04.43-1.9,1.04-2.59.56.37,2.34.51,3.11.52Z"/>
  <path class="cls-126" d="M133.06,403.15c.46-.68,1.21-1.24,2.07-1.04,1.26,1.51,7.81,5.67,7.22,1.66l1.08-.62c-.21-1.31.1-1.46,1.04-.52-.11.28-.52.7-.5.78.12.65,1.18.62,1.54.78.83.8.85,1.29,0,2.07-1.35-.62-2.36.79-3.94,1-3.34.43-10.78-3.2-13.69-5.14,1.85.98,3.34.81,5.19,1.04Z"/>
  <path class="cls-185" d="M127.88,388.64c-.33,1.31-.35.68-.29.7,2.38.93-1.17,4.88-2.82,3.44-1.13,1.39-5.08.26-5.19-1.55-1.35-.29-1.34-.6,0-1.04.29-.14.63.03,1.04.52.13-.44.3-.43.52,0,5.37,1.22,5.47-1.79,1.56-4.66-.69-.73-.4-.99.52-.52,2.01,1.34,2.35.69,4.67,3.11Z"/>
  <path class="cls-207" d="M202.55,344.09c-1.47.6-2.68.6-3.63,0-.08,1.36-.63,1.3-1.04,0-1.04-.01-2.18-1.87-1.04-2.59,3.28.96,5.65-.57,4.67-4.14.47-.52.9-.9,1.56-1.04.83,4.45-.11,4.14-.52,7.77Z"/>
  <path class="cls-102" d="M129.43,390.19c.53,1.07.47,2.37.59,2.53s2.45.91,3.56,1.62c-.62.7-1.21,1.01-2.07.52-1.17.21-3.27-.3-4.36.46-.66.46-.19,1.51-.3,2.13-1.44.47-1.91-.13-1.56-1.55-2.31-1.7-4.53-1.15-7.26-3.63l.64-.44c2.2,1.01,4.41,1.67,6.62,2,.37-.78,1.27-1.36,2.7-1.72.33-.99.81-1.63,1.45-1.91Z"/>
  <path class="cls-139" d="M194.26,293.31c-2.43,2.13-1.2,3.8,1.04,5.7,1.05.12,1,.64,0,1.04.89.98,1.93,1.85,3.11,2.59.06-.5.23-.85.52-1.04,1.12,1.58,2.8,2.7,2.59,5.18,0-.09-.57-1.35-.78-1.56-.24,0-.56,1.11-.78,1.56.41-4.28-3.36-3-5.57-4.48-1.95-1.3-2.97-4.93-2.74-7.19.16-1.53.97-1.97,1.05-2.32.22-1.74,2-1.16,1.56.52Z"/>
  <path class="cls-67" d="M100.39,325.95c-.07,1.92,2.12,3.77,4.15,3.11.25,1.24.77.9,1.56-1.04-.02-.34.05-.71,0-1.04.03-1.48,1.21-1.42,1.56,0-.15,4.09-2.19,2.48-.52,6.73-.79.57-1.7.17-2.75-1.19l-.88.15c-2.26-2.64-3.45-2.38-4.15-6.73.17-1.38.64-1.32,1.04,0Z"/>
  <path class="cls-133" d="M106.62,287.62c.76.87,1.09.78,2.07,1.04,1.64-.83,2.5.04,2.59,2.59-.16,1.49-.68,2.35-1.56,2.59-.48-3.83-6.13-2.02-4.67-7.25.9-1.82,1.42-1.48,1.56,1.04Z"/>
  <path class="cls-134" d="M197.89,296.94c-2.23,1.21-3.1,1.21-2.59,0-.6-.68-.77-.51-.52.52,1.58-.5,1.97.83.52,1.55-3.1.46-4.9-5.95-1.04-5.7.42-.9,1.02-.58,1.5,0,.03.03-.55-.05.06-.53.89,1.48,1.97,1.57,2.07,4.14Z"/>
  <path class="cls-198" d="M195.29,320.77c-.84-.78-.62-.44-1.04-1.55-.44-1.6.06-2.78,1.04-1.04,1.55,3.06,4.78,2.78,5.7-.52,1.22-.89,1.22-.49,1.05.78-.55,4.1-3.72,5.15-6.75,2.33Z"/>
  <path class="cls-125" d="M114.39,373.1c1.29-.47,1.34.49,1.04,1.55.54.74,1.39,1.39,2.07,2.07,1.76,2.1.39,2.39-1.56,1.04-1.85-1.49-3.2-.81-5.19-1.55-1.95-1.71-.5-2.42,1.56-2.59.26-.17.75-.44,1.04-.52.21-.99.62-.9,1.04,0Z"/>
  <path class="cls-56" d="M116.99,382.42c1.1.25,1.79.77,2.07,1.55.73.66.56,1.35-.52,2.07-.13.45-.3.44-.52,0-.23,1.29-.65,1.23-1.04,0-2.49-.85-4.66-1.92-6.22-4.14.67-.53,1.36-.71,2.07-.52.16-.15,2.15,1.28,4.15,1.04Z"/>
  <path class="cls-141" d="M201,353.93c-.47,1.62.36,4.84-.11,6.88-.44,1.92-2.66,1.64-1.97,4,0-.08-.52-.67-.52-1.55-.37-.16-.37-.33,0-.52-.27-.25-.48-.49-.43-.67.02-.09.64-.8.83-.99.04-.04-.25.67-.39-.41.94-.78,2.89-1.48,1.84-3.62-.8-1.63-2.91-.66-3.81-1.15-.39-.21-.9-1.94-1.14-2.48l.6-.42c1.7.64,3.4.95,5.1.94Z"/>
  <path class="cls-195" d="M107.65,310.41c1.26,1.37,2.52,8.99-.52,9.84l-.65-.35c.63-.96,1.21-2.15.65-3.28-.1.46-.27.44-.52,0,.12-1.4.11-3.16-1.04-4.14-.1-1.02.08-1.89.52-2.59.45.1,1.27.2,1.56.52Z"/>
  <path class="cls-3" d="M107.13,320.25c-.02,1.03-.01,2.08,0,3.11.22,1.52-.72,1.7-1.56.52-.16-.25-1.55-.97-2.07-1.55-.69-.96-.87-1.65-.52-2.07,1.95-.65,3.1-1.78,3.45-3.4l.7-.23c1.32.64.02,2.64,0,3.63Z"/>
  <path class="cls-29" d="M109.73,365.84c1.08.03,1.94.03,2.59,0,.57,1.2,1.85,2.77,2.59,4.14.18,1.41,0,2.45-.52,3.11-.33.05-.76-.08-1.04,0,.34-2.32-1.76-4.62-3.63-5.7-1.73-1.24-1.73-1.76,0-1.55Z"/>
  <path class="cls-69" d="M202.55,344.09c-.02.16-.02.36,0,.52l.52.52c.59,2.06.33,2.41,0,4.14-.35,1.05-.75,1.1-1.04,0-.03-2.08-.58-1.92-1.56-3.11-1.36-.21-3.3-1.2-1.56-2.07,1.49-.45,1.78-1.48,3.63,0Z"/>
  <path class="cls-28" d="M180.25,389.16c-.45,2.86.41,3.07,3.11,3.11.34.86-.43,1.26-.52,1.55-.79,0-1.83,0-3.11,0-.15.45-.32.44-.52,0-.73-.32-1.79-.43-2.6-.52.25-1.44.96-2.44,1.56-3.62.72-.35,1.41-.52,2.07-.52Z"/>
  <path class="cls-10" d="M183.88,382.42c.43-2.28.93-4.6,3.63-5.18.17.19-.36,1.71-.52,2.07-.92,2.11-2.11,2.87-1.04,5.7l-2.07-2.59Z"/>
  <path class="cls-109" d="M109.21,346.16c-.86.79-1.2.44-1.04-1.04-1.27-.28-1.96-.11-2.07.52-1.78-.34-3.03-2.28-4.15-3.63.89-1.4,1.84-.93,2.07.52.32-.88,2.11-2.05,3.11-2.07-.2-1.39.11-1.58,1.04-.52-.46,3.29.04,3.15,1.04,6.22Z"/>
  <path class="cls-45" d="M160.55,402.11c1.31-.64,1.89-.56,1.73.24-1.14,1.32-2.09,2.43-.7,3.91,1.02,1.18-.96,1.33-2.07,1.04-.55-.16-1.01-.24-1.56-.52-1.17-1.23-1.34-1.92-.52-2.07.7-1.61,1.89-1.89,3.11-2.59Z"/>
  <path class="cls-160" d="M127.88,388.64c.51.54,1.07.57,1.56,1.55.28,3.2-1.69,3.28-4.15,3.63-1.06-.08-1.4-.27-.52-1.04.14-.03,2.3-1.43,2.37-1.55.78-1.18-1.44-2.97.74-2.59Z"/>
  <path class="cls-39" d="M179.74,393.82c1.19-.1,2.23.07,3.11.52-1.46,3.82-3.65,5.77-7.78,5.7,1.74-1.78,5.71-2.18,4.15-6.22.16.07.45-.08.52,0Z"/>
  <path class="cls-51" d="M139.29,400.04c1.15.37,1.18.68,0,1.04-.79,1.15-2.85,1.21-4.15,1.04-.48.68-.46,1.5-.52,1.55-.45.42-1.46-.51-1.55-.52-.06-.92.03-1.79.52-2.59,1.24-2.02,3.89-.88,5.7-.52Z"/>
  <path class="cls-147" d="M109.73,351.86c-.36,1.05-.74,1.09-1.04,0l-1.01.1c-1.3,2.23-3.38,2.2-6.25-.1-.74-1.31-1.35-1.92-1.56-3.63,1.02-.17,1.93-.23,2.07,1.04,1.08.49.55,3.09,3.76,2.5,2.25-.41,2.07-2.16,1.94-4.06.49-.22,1.01-.74,1.56-1.55,1.01,3.1,1.19,2.16.52,5.7Z"/>
  <path class="cls-23" d="M195.29,352.89c-.18-.55-.87-.72-1.05-2.31-.2-1.79-.39-5.38,2.09-4.16v5.95c.21,1.2-.2,1.42-1.04.52Z"/>
  <path class="cls-157" d="M119.58,378.8c.75.76,1.16-.45,1.56,2.59-.19,2.45-.89,3.31-2.07,2.59h-2.59s.52-1.55.52-1.55c.17-.02.84-.38,1.04-.52l.47-1.14c-.56-1.68-.19-2.34,1.09-1.97Z"/>
  <path class="cls-159" d="M191.66,287.1c.38-2.65,1.96-1.54,2.45.39.67,2.65.06,2.59,1.7,5.31,1.21,1.65-.21,1.01-1.56.52-.39-.14-.82-.77-1.56-.52.27-1.09-.37-1.81-.52-2.59.59-1.35.42-2.39-.52-3.11Z"/>
  <path class="cls-188" d="M107.65,306.27c-.35,2.9-2.3,1.67-1.56,3.63.62,1.61,2.31,2.9-.52,2.59-.23-.2-.72-.34-1.04-.52-2.26-.91-1.67-4.27.52-4.66.67-.11,1.66-1.11,2.59-1.04Z"/>
  <path class="cls-206" d="M194.77,378.8c-.33.72-.63.99-1.04,1.55,0,.79-.79.77-1.04,0,1.4-4.57-2.13-2.66-3.63-4.14,1.27-.4,2.31-.74,3.11-1.04,2.92.22,2.73.51,2.59,3.63Z"/>
  <path class="cls-204" d="M112.32,373.62c-.96.63-1.78,1.31-1.56,2.59-2.38-.89-3.68-3-4.67-5.18.08-.64.43-.98,1.04-1.04,1.23,2.17,2.29,3.89,5.19,3.63Z"/>
  <path class="cls-123" d="M201,312.48c.12.35.39.68.52,1.04.26.62-.49,1.34-.52,1.55-1.81-.83-3.15-1.44-4.67-2.59.31-3.04,2.93-.39,4.67,0Z"/>
  <path class="cls-169" d="M157.44,404.7c.27.46.27,1.5.52,2.07-.33-.17-.35-1.21-1.27-1.07-.76.12-2.08,1.18-3.4,1.58-1.39.26-1.54-.07-.52-1.04-.51-1.18.42-1.95,1.56-2.07-1.53-1.26-1.53-1.78,0-1.55,1.41.35,2.24.59,3.11,2.07Z"/>
  <path class="cls-148" d="M202.03,352.37c-.42,1.16-1.01,1.46-1.04,1.55-1.88,1.46-3.91.81-5.7-.52-.06-.14.05-.35,0-.52.3-.09.82-.53,1.04-.52.73.05,1.55.69,2.86.57s1.56-.81,2.33-1.09c.52-1.34,1.05-.9.52.52Z"/>
  <path class="cls-36" d="M195.29,296.94c.08.01.17.46.43.47.58-1.69,1.31-2.24,2.16-.47.13,2.98-1.03,1.73,1.04,4.66.03.51.12.88-.52,1.04-1.35-.73-2.38-1.59-3.11-2.59-.02-.34.02-.69,0-1.04-.06-1.08-.27-.96-.52-1.55-.68-.95-.4-1.23.52-.52Z"/>
  <path class="cls-90" d="M119.58,391.23c1.54.58,2.88,2.11,5.19,1.55l.52,1.04c-3.12.44-4.47-.08-7.26-1.55-1.24-1.12-.92-1.22-1.56-2.07.99-.79,2.68-.04,3.11,1.04Z"/>
  <path class="cls-55" d="M101.43,338.39c.59.88-.38,1.23-1.04.52-.15.45-.32.45-.52,0-.63-2.19-1.34-5.15.78-6.72,1.85,2.01-.5,3.58.78,6.21Z"/>
  <path class="cls-65" d="M114.91,388.12c-.14-.37,2.04-1.33,2.18-1.33.22,0,2.15,2.89,2.48,3.41v1.04c-.73-.27-2.28.14-3.11-1.04-.56-.76-.97-.89-1.56-2.07Z"/>
  <path class="cls-20" d="M195.29,358.59c-.02.51-.04,1.05,0,1.55.22,1.06.62,1.43,1.56,1.55.99.16.93.57,0,1.04-1.77,3.47-4.08.95-3.63-2.07.05-.33-.08-.77,0-1.04l.52-1.04c.71-1.36,1.8-1.64,1.56,0Z"/>
  <path class="cls-55" d="M171.44,397.97c-.32,1.18-.33,2.42,0,3.71l-.51.43c-.96.14-2.14-.72-2.59-1.55.15-1.44.74-2.99,1.56-4.14,1.81-1.43,2.5-.28,1.56,1.55Z"/>
  <path class="cls-73" d="M133.58,394.34c.52.33,1.06.06,1.8,1.04,3.34,4.41-2.53,1.92-3.88-.52.12-.02.66-1.52,2.07-.52Z"/>
  <path class="cls-97" d="M121.14,381.39c0,.06.51.22.42.66-.11.52-.92,1.01-.93,1.15-.03.47,1.92,1.08,2.44,1.46.23.16.09.84.14.87l-.52.52h-.52c-.38,1.46-1.91,1.34-2.59,0-.13.24-.31.22-.52,0-.05.47-.23.45-.52,0-.7-.78-.02-1.37.52-2.07.61-.79,1.87-1.29,2.07-2.59Z"/>
  <path class="cls-177" d="M105.06,307.3c-.79,1.57-1.31,2.97-.52,4.66-.26-.15-1.1.22-1.81-.5-.53-.53-1.18-2.8-1.3-3.64.27-1.42,1.81-.64,1.18-.13s-.65-.58.38-.9c.59.35,1.39.63,2.07.52Z"/>
  <path class="cls-200" d="M108.69,351.86c-.05,1.18-.57,1.7-1.56,1.55l-.52.52c.44.12.42.3,0,.52-.59.24-1.28.24-2.07,0h-.52c-1-.51-1.86-1.2-2.59-2.07-.08-.12.08-.38,0-.52,1.11-2.21,1.78,1.1,3.89,1.09,1.98,0,1.43-1.69,3.37-1.09Z"/>
  <path class="cls-49" d="M112.84,381.39c-.25.22.68,1.77-2.07.52-3.83-5.46.32-5.39,2.07-.52Z"/>
  <path class="cls-127" d="M169.88,396.41c1.11-1.56,3.21-3.12,5.18-3.11-.05,1.66-1.96,1.48-2.71,3.24-.49,1.16-.31,1.87-.39,2.97-1.41.68-1.33-.72-.52-1.55-.33-.8-.02-1.62-1.56-1.55Z"/>
  <path class="cls-87" d="M107.13,333.72c.14.35.39.68.52,1.04.55,1.79-.45,2.66-1.56,1.04-.33-.67-1.95-2.35-2.59-3.11-.04-2.69,2.41.18,3.63,1.04Z"/>
  <path class="cls-30" d="M188.03,387.6c.29-.56-.25-2.35,1.55-2.07v2.59c-.28.5-2.22,4.04-3.11,3.11-.51-.54,1.19-2.91,1.55-3.62Z"/>
  <path class="cls-205" d="M108.17,339.94c-.26.2-.91.34-1.04.52-.64.4-.88.16-.52-.52.05-1.49.18-2.74-.52-4.14.76,0,1.33-.29,1.56-1.04.34.96.94,1.7,1,2.94s-.39,1.59-.49,2.24Z"/>
  <path class="cls-117" d="M196.85,341.49c-.38.76-1.08.59-2.07-.52-.15-.84-.2-6.21.78-6.21.88,0,.93,5.35,1.3,6.72Z"/>
  <path class="cls-119" d="M104.02,360.15c.43,1.42-.75,1.74-1.56.52-.44-1.58-.68-3.01-.52-4.66,3-.37,1.79,2.36,2.07,4.14Z"/>
  <path class="cls-71" d="M111.28,291.24c.24-.24.41-.06.52.52,0,.35,0,.69,0,1.04-.81.73-.97,3.56-1.66,4.05-.43.31-1.08,0-1.45.09-.17-1.25.66-2.11,1.04-3.11.58-1.56.22-2.97,1.56-2.59Z"/>
  <path class="cls-203" d="M147.06,404.7c1.23-.88,2.73.8,2.59,2.07,1.13.57.54.87-.52,1.04-1.17-.13-2.89-.6-3.63-1.55-.51-.66-.55-1.41,0-2.07,1.25-.5,1.77-.33,1.56.52Z"/>
  <path class="cls-190" d="M178.18,389.68c.29-.56.2-1.32.78-2.06,2.22-2.81,4.17-1.97,1.29,1.54-.84,1.02-2.14,2.79-2.07.52Z"/>
  <path class="cls-191" d="M199.95,325.44c.85.56-.21,4.59-2.07,4.14-.98-1.43.25-5.32,2.07-4.14Z"/>
  <path class="cls-172" d="M199.96,347.71c.12.72.38,1.19.19,1.96-1.22,4.93-5.49-1.33-.19-1.96Z"/>
  <path class="cls-212" d="M102.47,339.42c.54.12,1.23,1.15,2.07,1.04.93.83.25,1.46-.52,2.07-.56.03-1.44-.46-2.07-.52-1.11-1.33-1.41-.82-2.07-3.11h.52c.61.04,1.43.18,2.07.52Z"/>
  <path class="cls-60" d="M106.62,316.63c.17,0,.35,0,.52,0-.02,2.54-1.49,4.1-4.15,3.63-1.78-.64-.86-2.21,1.04-1.55.14.01.4.04.52,0l.52-.52c.63-.72-.12-1.55,1.56-1.55Z"/>
  <path class="cls-199" d="M144.47,402.63c-.23.18-1,.41-1.04.52-1,1.1-4.03-.64-4.15-2.07v-1.04c1.07.21,5.56,1.34,5.7,2.34.01.11-.47.16-.51.25Z"/>
  <path class="cls-80" d="M185.96,388.12c-.05,2.75-6.05,3.84-3.66.72.7-.91,2.57-.44,3.66-.72Z"/>
  <path class="cls-58" d="M177.66,395.38c.48,1.46-3.79,3.45-4.14,3.1.24-2.36,1.83-3.53,4.14-3.1Z"/>
  <path class="cls-59" d="M203.07,336.31c.32.99-.78,1.94-1.56,1.04-.04-.16-1.93-2.48-2.07-2.59.43-2.57,3.45,1,3.63,1.55Z"/>
  <path class="cls-5" d="M107.13,302.64c-.12-.54-.77-2.34-.52-2.59,1.73-1.7,4.55,5.8,1.03,3.62-.04-.3-.44-.71-.52-1.04Z"/>
  <path class="cls-128" d="M193.22,360.66c.76,1.83,2.06,4.8,3.63,2.07.47.11.45.28,0,.52-.06.21-.43.97-.52,1.04-.18.13-2.97,1.13-3.11,1.04-1.01-1.99-.26-3.07,0-4.66Z"/>
  <path class="cls-172" d="M108.17,361.7c-1.53.51-3.89-2.82-3.11-3.62.93-.95,4,2.15,3.11,3.62Z"/>
  <path class="cls-11" d="M101.95,316.63c.4.98.9,1.95,2.07,2.07-.81.56-1.13.48-1.04,1.55.04.46.73,1.34.52,2.07-1.26-1.4-1.87-1.46-2.59-3.63.06-.79.2-1.94,1.04-2.07Z"/>
  <path class="cls-176" d="M195.3,304.71c4.84-1.08,3.31,5.21.82,2.03-.46-.58-.93-1.23-.82-2.03Z"/>
  <path class="cls-47" d="M195.29,318.18c-.05.08-1.44-.22-1.04,1.04-.81-2.17-.69-3.51,0-5.7,1.7-.08,1.3,4.19,1.03,4.66Z"/>
  <path class="cls-210" d="M132.47,397.01c.28.46,0,1.39.07,1.99-1.66.31-3.5-.81-3.62-2.58.26-.23,3.33.21,3.55.59Z"/>
  <path class="cls-61" d="M111.8,359.63c1.09,2.88-.06,3.23,0,5.18-.23,1.37-.62,1.3-1.04,0,.78-1.63-1.26-5.54,1.04-5.18Z"/>
  <path class="cls-156" d="M196.85,341.49c.21.77,1.06,1.61,1.04,2.59.31,1.32-.04,1.38-1.04.52-1.04-1.1-1.81-2.1-2.07-3.63.92-.9,1.44.33,2.07.52Z"/>
  <path class="cls-194" d="M114.91,369.99c1.12,2.06,2.13,1.98.52,4.66-.4-.54-.78-.81-1.04-1.55-.4-1.15-1.09-3.73.52-3.11Z"/>
  <path class="cls-14" d="M101.43,302.12c1.09-1.7,2.07-1.52,1.56.52-.03,1.03.07,2.08,0,3.11-.59.32-1.11.84-1.56,1.55-1.02-1.02-.41-3.91,0-5.18Z"/>
  <path class="cls-75" d="M165.73,400.04c2.87,2.24.19.99-.66,1.11-1.83.27-4.9,3-3.49,5.1l-2.06-1.29c0-.32,3.88-2.93,1.03-2.85,1.53-.87,3.33-1.91,5.19-2.07Z"/>
  <path class="cls-9" d="M199.44,315.59c.21,1.3-.26,2.93-1.81,3.1l-.79-3.11h2.6Z"/>
  <path class="cls-18" d="M119.58,378.8c-.97,1.32-.03,2-1.56,3.11.95-1.01-1.31-3.52-2.07-4.14h2.07s-.52-1.04-.52-1.04c.7.7,1.38,1.36,2.07,2.07Z"/>
  <path class="cls-46" d="M99.87,346.16c.81-2.44,3.31-1.16,2.07,1.04.02.69-.01,1.38,0,2.07-.5-.22-1.66.37-2.07-1.04-.07-.6-.04-1.45,0-2.07Z"/>
  <path class="cls-200" d="M109.21,346.16c.27,1.08-.19,2.93,0,4.14h-1.03c.27-1.18-.12-1.66-.52-2.59-.21-.48-.72-1.07-1.04-1.55.35-.69.87-1.03,1.56-1.04.24.29,1,.89,1.04,1.04Z"/>
  <path class="cls-186" d="M105.45,347.33c.87.98.81,3.3-.65,2.98-1.84-.41-1.43-5.3.65-2.98Z"/>
  <path class="cls-197" d="M106.62,339.94c.22-.02.62.21.52.52-1.04,1.46-.43,1.95-3.11,2.07-.66-.51,0-1.74.52-2.07.25-.16,1.68-.49,2.07-.52Z"/>
  <path class="cls-50" d="M106.1,328.02c0,.08.68.42.46,1.16-.71,2.39-5.16,2.86-2.02-.12.43-.4.51-1.18,1.56-1.04Z"/>
  <path class="cls-135" d="M104.54,327.5c-1.23,1.26-2.92-2.24-2.07-3.1,1.23-1.26,2.92,2.24,2.07,3.1Z"/>
  <path class="cls-131" d="M108.69,351.86c.27.08.71-.06,1.04,0-.14.76-.41,1.49-.52,2.07-.53,2.23-1.57,2.65-2.59.52,0-.18-.04-.39,0-.52l.52-.52c.53-.8.39-1.87,1.56-1.55Z"/>
  <path class="cls-167" d="M107.13,369.99c.12,1.1.06,1.16-1.04,1.04-.48-1.06-1.57-1.8-1.03-3.63,2.21.36,1.66,1.86,2.07,2.59Z"/>
  <path class="cls-106" d="M107.65,326.99h-1.56c-.11-.84-.07-2.43-.52-3.11l1.56-.52c.01.83.57,2.09.52,3.63Z"/>
  <path class="cls-142" d="M165.73,406.77c-2.72.57-3.34,1.37-6.22.52,1.15.52,1.96-1,2.07-1.04.98-.31,2.92.42,4.14-.52v1.03Z"/>
  <path class="cls-101" d="M112.32,287.62c-1.31,2.75-.5,1.69-.52,4.14-.19-.16-.34-.36-.52-.52-2.09-1.82-.85-2.4-1.03-2.59-.12-.13-1.15.1-1.56,0,1.35-.96,1.97-.05,3.11-1.55.68-.69.77-.4.52.52Z"/>
  <path class="cls-17" d="M100.39,325.95h-1.04c-.59-3.65,2.6-4.8,1.83-1.52-.11.47-.78,1.14-.79,1.52Z"/>
  <path class="cls-180" d="M109.73,356.52l-1.56.52c-.24-.21-.73-.32-1.04-.52-.96-.71-1.14-1.22-.52-1.55-.46-.09-.45-.27,0-.52.72,0,1.42.94,2.59-.52-.03.18-.34.41-.32.78.02.5.56,1.32.84,1.81Z"/>
  <path class="cls-21" d="M193.74,305.23c.05.33-.07.73,0,1.04.24,1.39-.33,1.06-1.56,1.04-.63-1.45-.77-1.81-.52-3.11.85-1.41,1.9-.29,2.07,1.04Z"/>
  <path class="cls-7" d="M104.98,314.11c.41.67-.02,3.04-.7,3.02s-1.59-2.79-1.29-3.61c.18-.18,1.89.43,1.99.59Z"/>
  <path class="cls-57" d="M126.84,397.45c-.46,2.62-2.19,1.56-2.59-.52.23-.17.48-.94,1.04-1.04.67.49,1.01,1.02,1.56,1.55Z"/>
  <path class="cls-22" d="M108.17,345.12c.24,1.39-.33,1.06-1.56,1.04-.12-.19-.39-.33-.52-.52-.45-.7-1.59-1.73-.25-2.07s1.71.82,2.33,1.55Z"/>
  <path class="cls-40" d="M195.13,369.3c-.34.33-1.57,1.13-1.9.44l3.1-3.89c.14,1.19-.34,2.64-1.2,3.45Z"/>
  <path class="cls-215" d="M179.74,393.82c.92-.83,3.57-1.92,3.11,0-.05.16.06.37,0,.52-.75.42-1.97.75-2.78.55-.58-.14-.25-.98-.33-1.07Z"/>
  <path class="cls-122" d="M190.11,294.35c.09,1.17-.14,2.5,0,3.63h-1.04c.07-2.23,0-4.5,0-6.73h.52c.07,1.3.46,2.38.52,3.11Z"/>
  <path class="cls-52" d="M191.66,287.1c2.25-.52,1.36,1.2,2.08,2.84l-1.56.27c-.21-1.08-.72-1.69-.52-3.11Z"/>
  <path class="cls-83" d="M106.1,295.9c-.16-.76-.12-3.45,1.29-3.1,1.61.4.44,3.42-1.29,3.1Z"/>
  <path class="cls-178" d="M198.4,337.87c.08-.13,1.5-1.11,1.55-1.04-.02,1.01.36,3.14-.78,3.62-1.91.81-1.03-.75-.77-1.55-.67-.17-.72-.84,0-1.04Z"/>
  <path class="cls-81" d="M105.58,362.74c-.53-.06-1.36-.11-1.56.52-.7-1.05-1.03-.71-1.56-2.59l1.56-.52c.2,1.25.95,1.63,1.56,2.59Z"/>
  <path class="cls-104" d="M101.43,307.3c-.12-2.14,0-4.06,1.56-1.55-.02.34.03.7,0,1.04-.05.51.04,1.04,0,1.55l-1.55-.52c-.02-.17,0-.35,0-.52Z"/>
  <path class="cls-64" d="M111.8,372.06c-1.27.5-3.75-2.44-3.11-3.1.77-.79,3.35,2.9,3.11,3.1Z"/>
  <path class="cls-114" d="M189.36,378.31c.93-.28,1.77-.04,2.29.75-1.07,1.14-2.79,2.06-3.1,0,.26-.22.52-.67.81-.75Z"/>
  <path class="cls-92" d="M105.06,337.35c.02.07.65.29.52.76-.53,1.91-3.3-.12-2.6-2.31.7-.18,1.39.34,2.07,1.55Z"/>
  <path class="cls-189" d="M110.76,364.81c.33-.05.7.04,1.04,0,0,.22.38.74.52,1.04.4,1.86-1.86,1.03-2.59,0-.45-.15-.45-.32,0-.52.17-.04.47-.43,1.04-.52Z"/>
  <path class="cls-24" d="M99.87,346.16c.06-.82.17-1.99.78-2.59,1.54,1.81,3.31,1.12,1.3,3.62-.02-.52.02-1.04,0-1.55l-2.07.52Z"/>
  <path class="cls-27" d="M193.74,305.23l-2.07-1.04c.15-.76-.14-1.52.78-2.06,2.21,1.29,1.13,2.03,1.3,3.1Z"/>
  <path class="cls-170" d="M198.92,344.09c-.21,1.04.86,1.22,1.56,2.07-2.3.38-2.41-.27-3.63-1.55.41.03.81-.46,1.04-.52.3-.08.76.08,1.04,0Z"/>
  <path class="cls-96" d="M101.43,315.59c.06.19.36.65.52,1.04.09.9-.09,1.8-1.04,2.07-.4-1.22-.6-1.74-.52-3.11.39-.95.81-1.04,1.04,0Z"/>
  <path class="cls-161" d="M153.29,407.29c-1.55.47-2.34.72-4.15.52l.52-1.04c.4-1.33,2.12-1.41,3.11-.52l.52,1.04Z"/>
  <path class="cls-163" d="M116.47,380.87c-.78.69-3.68-1.09-3.1-2.59.44.11,4.01,1.79,3.1,2.59Z"/>
  <path class="cls-15" d="M106.09,303.67c1.22,1.69-2.59,3.26-2.07.27.15-.88,1.89-.53,2.07-.27Z"/>
  <path class="cls-78" d="M198.4,360.66c2.33-.12.27,1.23,0,2.07-.16.33-.51.5-1.04.52h-.52c.04-.13,0-.34,0-.52.02-.34-.01-.69,0-1.04.14-.32.31-.31.52,0l.52-.52c.16-.09.33-.36.52-.52Z"/>
  <path class="cls-154" d="M118.02,386.05c.95,1.11,1.93,2.23,2.95,3.38l-.36,1.28c-.24-.05-.78-.36-1.04-.52-1.49-.92-2.21-4.09-4.67-2.07-.07-.14-.8-.07-.52-1.03,2.85.71,2.33-.81,2.59-1.04.1-.09.72.05,1.04,0Z"/>
  <path class="cls-113" d="M109.73,365.33v.52c-.69.43-.4.98,0,1.55-1.55-.89-1.93-.86-3.63-2.07,1.37.65,2.29.34,3.63,0Z"/>
  <path class="cls-129" d="M154.33,402.63c-.65.55.03,1.37,0,1.55-1.84.36-3.39.19-4.67-.52-1.4-.19-1.29-.56,0-1.04,1.51-.26,3.15-.38,4.67,0Z"/>
  <path class="cls-32" d="M193.74,334.24c-.23,1.68-.65,2.77-.52,4.66l-1.04-.52c.43-1.6.43-2.54.52-4.14.15-.45.32-.45.52,0,.15-.45.32-.45.52,0Z"/>
  <path class="cls-168" d="M192.18,375.17c.42,1.76-1.68.85-3.11,1.04-.08-.08.07-.36,0-.52.52-.8,2.19-.59,3.11-.52Z"/>
  <path class="cls-37" d="M149.66,402.63v1.04c-.36,1.03-1.23,1.37-2.59,1.04-.57-.33-1.09-.32-1.56-.52.6-.72,3.14-1.38,4.15-1.55Z"/>
  <path class="cls-175" d="M105.58,297.46h-.52c-.06.57-.5.84-1.04,1.04-.87-2.87.11-3.9.52-6.73,1.09.35-.1,2.4-.05,3.37s.51,1.62,1.08,2.33Z"/>
  <path class="cls-35" d="M107.13,283.99c-.57,1.2-.62,2.33-.52,3.63-.4-.46-.58-.95-.53-1.56l-1.03.52c.3-1.06.9-2.21,1.56-3.11.73-.69,1-.4.52.52Z"/>
  <path class="cls-146" d="M112.32,287.62l-.52-.52c1.02-1.34.7-2.89,1.56-4.14.38,2.44-.2,2.89-1.04,4.66Z"/>
  <path class="cls-88" d="M203.07,349.27c-.3,1.56-.6,1.88-1.04,3.11.07-.35-.22-.62-.52-.52-.11-.84.53-1.89.52-2.59h1.04Z"/>
  <path class="cls-31" d="M101.43,338.39c.07.15.98.51,1.04,1.04-.13-.03-1.44,1.32-2.07-.52l1.04-.52Z"/>
  <path class="cls-216" d="M195.29,358.59c-.53-.51-1.02-.52-1.56,0,.35-.79.34-1.52,1.3-2.06,1.43.86.28,1.46.26,2.06Z"/>
  <path class="cls-100" d="M198.92,357.56c.15.12-1.36,2.8-2.07,2.06-.47-.49,1.11-2.41,2.07-2.06Z"/>
  <path class="cls-138" d="M111.8,280.88c-1.86.11-3.85,1.39-4.67,3.11l-.52-.52c1.29-1.79,3.09-3.71,5.19-2.59Z"/>
  <path class="cls-26" d="M106.62,354.96c.04.55.25,1.08.52,1.55-1.36-.88-1.57-.79-3.11-2.07.17.03.35-.03.52,0,.86,0,1.55.18,2.07.52Z"/>
  <path class="cls-12" d="M193.74,334.24h-.52c-.4-.67-.38-1.38,0-2.07,0-.34.02-.69,0-1.04,1.66,1.09.67,2.04.52,3.11Z"/>
  <path class="cls-8" d="M102.99,302.64c.24-1.44-.48-1.28-1.56-.52.23-.71.76-1.84,1.55-2.07.84,1.19.02,2.24,0,2.59Z"/>
  <path class="cls-2" d="M105.06,337.35l-2.07-1.55c.53-1.66,1.75.58,2.07,1.55Z"/>
  <path class="cls-128" d="M195.29,360.15c.47.94.99,1.25,2.07,1.04v.52c-.13.06-.34-.05-.52,0-.34.09-.58.66-1.04.29-.64-.52-.46-1.16-.51-1.84Z"/>
  <path class="cls-145" d="M193.74,380.35c-.08.11.18.75-.07.96-.37.31-1.47-.02-2.01.08.27-.54.45-.8,1.04-1.04.24-.09.72.06,1.04,0Z"/>
  <path class="cls-84" d="M198.4,337.87c-.11.18.09.75,0,1.04-2.34.47.22-3.86,0-1.04Z"/>
  <path class="cls-16" d="M101.43,315.59h-1.04c.01-.24.6-2.08.78-2.08.61.33.09,1.53.26,2.08Z"/>
  <path class="cls-128" d="M193.22,359.63c.15-.52.38-.72.52-1.04-.11.11-.13.84-.52,1.04Z"/>
  <path class="cls-147" d="M104.02,354.45c-1.49-.31-1.81-.9-2.59-2.07.96.57,1.75,1.37,2.59,2.07Z"/>
  <path class="cls-81" d="M104.54,364.29c-.17-.18-.37-.33-.52-.52l.52.52Z"/>
  <path class="cls-207" d="M203.07,345.12c-.23-.08-.49-.29-.52-.52.21.1.45.29.52.52Z"/>
  <path class="cls-11" d="M104.54,318.7c.07-.02.4-.38.52-.52l-.52.52Z"/>
  <path class="cls-95" d="M191.14,308.86h-.52c0-.17,0-.35,0-.52.18.17.37.32.52.52Z"/>
  <path class="cls-20" d="M197.37,361.7v-.52h.52c-.16.09-.3.42-.52.52Z"/>
  <path class="cls-162" d="M188.03,318.7c.2.91,1.83,3.64,2.23,5.28,1.19,4.9,1.37,11.88-.93,16.48-1.97,3.94-2.42-1.19-4.41-2.33-1.51-.87-1.78-.12-1.56,1.3-1.39-1.77-4.97-4.82-5.49-6.73-1.22-4.42,7.75-10.83,10.16-13.99Z"/>
  <path class="cls-19" d="M193.22,334.24h-.52c.04-.68-.27-1.71.52-2.07,0,.69,0,1.38,0,2.07Z"/>
  <path class="cls-55" d="M192.18,371.54c.53.86,3.9.2,2.59,1.55-1.67,1.72-7.44-.92-2.59-1.55Z"/>
  <path class="cls-128" d="M198.4,362.74c-.04.12,0,.34,0,.52h-1.04l1.04-.52Z"/>
  <path class="cls-103" d="M105.06,297.46l3.63,2.07c-1.07.18-4.27.02-4.66-1.03-.17-.44.11-1.48,0-2.07l1.03,1.04Z"/>
  <path class="cls-105" d="M108.17,287.09c-.43-1.15,1.01-4.43,2.32-4.14,2.06.45-.1,4.9-2.32,4.14Z"/>
  <path class="cls-86" d="M168.33,402.11c2.09-.06.89,1.95-.51,2.59v-2.59c.08-.05.33,0,.51,0Z"/>
  <path class="cls-211" d="M165.73,403.15c-.42,1.08-1.43,1.73-2.59,1.54.42-1.08,1.43-1.73,2.59-1.54Z"/>
  <path class="cls-25" d="M171.96,399.52c-.05.67.91,2.3-1.04,2.59-.17-1.88-1.85-2.83.52-4.14.18.44-.35.98.52,1.55Z"/>
  <path class="cls-121" d="M139.29,401.07c1.11.17,3.15,1.37,4.15,2.07-.2.59.29,1.94-.07,2.52-1.18,1.88-8.67-.16-8.22-3.55.96-1.36,2.52-1.29,4.15-1.04Z"/>
  <path class="cls-19" d="M119.06,386.05c.21.24.38.24.52,0,.8,0,1.87-.12,2.59,0,4.43,2.1,4.51,6.11-1.04,4.66-.17-.01-.36.03-.52,0-.99-1.69-3.08-2.34-2.59-4.66.16-.03.35.01.52,0s.35,0,.52,0Z"/>
  <path class="cls-154" d="M121.14,390.71c6.02.51,4.72-2.01,1.04-4.66.18.03.37-.04.52,0,.9.27,3.33,2.7,3.06,3.79-.38,1.53-3.55,2.02-4.61.88Z"/>
  <path class="cls-196" d="M198.4,302.64c-1.03.25-3.34-.9-3.55-1.9-.08-.39.44-.65.44-.69,1.43.19,3.02.97,3.11,2.59Z"/>
  <path class="cls-153" d="M194.77,297.46c-.08-.21-.64-.51-.81-.98-.92-2.6,1.27-2.05,1.33.47-.19-.03-.62.21-.52.52Z"/>
  <path class="cls-115" d="M154.33,404.18c-.16.98-.64,1.61-1.56,2.07s-2.1.72-3.11.52c-1.15-.23-2.18-1.83-2.59-2.07.4-1.4,1.67-.85,2.59-1.04,1.82-.36,2.94-1.2,4.67.52Z"/>
  <path class="cls-154" d="M119.06,386.05c.17,0,.35,0,.52,0l-.26.51-.26-.51Z"/>
  <path class="cls-147" d="M106.62,354.45c0,.17-.01.35,0,.52l-2.07-.52c.54.11,1.44,0,2.07,0Z"/>
  <path class="cls-180" d="M106.62,353.93c.06-.17.38-.35.52-.52-.13.2-.34.36-.52.52Z"/>
  <path class="cls-192" d="M141.88,403.67c1.58,1.57-5.25,1.47-4.66-1.04.31-.27,4.43.81,4.66,1.04Z"/>
  <path class="cls-48" d="M123.73,389.67c-.7.61-4.53-.91-4.14-2.58.44-.4,4.57,1.1,4.14,2.58Z"/>
</svg>