<?xml version="1.0" standalone="no"?>
<!DOCTYPE svg PUBLIC "-//W3C//DTD SVG 20010904//EN"
 "http://www.w3.org/TR/2001/REC-SVG-20010904/DTD/svg10.dtd">
<svg version="1.0" xmlns="http://www.w3.org/2000/svg"
 width="256.000000pt" height="256.000000pt" viewBox="0 0 256.000000 256.000000"
 preserveAspectRatio="xMidYMid meet">

<g transform="translate(0.000000,256.000000) scale(0.100000,-0.100000)"
fill="#000000" stroke="none">
<path d="M363 2133 c-106 -94 -192 -279 -193 -416 0 -71 28 -183 64 -255 54
-111 168 -232 258 -272 l26 -12 -5 -96 c-5 -84 -4 -97 12 -108 17 -13 17 -16
-8 -71 -70 -157 -88 -325 -47 -438 46 -124 143 -215 314 -296 262 -122 684
-129 957 -14 144 61 272 163 319 254 65 128 58 292 -21 484 -29 69 -29 70 -9
84 16 12 20 25 20 78 0 35 -4 67 -10 70 -5 3 -10 16 -10 29 0 16 11 28 43 43
106 52 234 209 278 344 35 107 33 256 -4 351 -52 134 -159 268 -213 268 -56 0
-57 -5 -58 -167 l-1 -148 -34 -63 c-41 -75 -116 -147 -194 -185 -94 -46 -109
-46 -176 2 -71 49 -129 75 -204 91 -53 11 -57 13 -63 45 -5 27 -13 37 -45 49
-88 35 -199 9 -209 -49 -5 -28 -10 -31 -70 -46 -85 -21 -144 -48 -203 -92 -26
-21 -58 -37 -71 -37 -42 0 -169 72 -224 127 -29 29 -65 79 -80 110 -25 54 -27
67 -27 198 0 77 -4 146 -8 153 -15 22 -71 14 -104 -15z m50 -125 c-12 -197 65
-343 232 -443 33 -19 83 -43 112 -52 46 -15 53 -20 53 -43 0 -50 -30 -129 -61
-160 -45 -45 -121 -80 -172 -80 -103 0 -252 148 -318 315 -19 50 -23 79 -23
170 0 103 2 114 31 177 17 37 45 86 61 110 30 42 79 98 87 98 2 0 1 -42 -2
-92z m1769 49 c106 -128 143 -231 136 -371 -6 -108 -34 -185 -102 -281 -79
-109 -171 -175 -246 -175 -76 0 -182 74 -208 145 -21 59 -24 102 -7 119 9 9
22 16 28 16 7 0 44 15 83 34 100 48 185 130 231 224 38 76 38 76 38 204 0 70
3 128 6 128 4 0 22 -19 41 -43z m-838 -328 c2 -2 11 -80 20 -174 9 -93 19
-182 22 -197 l6 -28 -114 0 -114 0 20 200 c16 160 23 200 35 204 18 5 119 1
125 -5z m133 -469 c161 -21 305 -63 427 -125 78 -38 81 -41 84 -78 5 -54 -27
-64 -115 -37 -350 108 -873 108 -1194 0 -52 -18 -67 -19 -90 -9 -24 9 -29 18
-29 44 0 30 6 37 53 63 107 61 262 111 423 136 108 17 334 20 441 6z m91 -235
c118 -15 244 -44 322 -74 29 -11 53 -15 62 -10 23 15 26 11 56 -68 75 -194 82
-318 24 -435 -76 -155 -299 -283 -552 -318 -118 -16 -328 -14 -435 5 -250 44
-454 164 -526 310 -58 119 -47 279 31 452 24 53 32 63 46 55 11 -6 32 -3 63 8
72 27 209 59 317 74 137 19 454 19 592 1z"/>
<path d="M927 952 c-20 -22 -37 -66 -37 -96 0 -18 -7 -25 -27 -29 -36 -7 -91
-45 -111 -75 -16 -24 -16 -24 22 2 38 25 102 44 113 33 3 -4 -7 -20 -21 -38
-43 -51 -68 -108 -73 -170 -6 -59 11 -174 28 -200 8 -10 8 -7 3 10 -10 39 -8
162 5 209 17 60 91 148 122 144 64 -8 109 39 109 113 -1 37 -5 43 -55 78 -29
20 -56 37 -58 37 -2 0 -11 -8 -20 -18z m99 -68 c9 -35 -18 -63 -40 -44 -16 13
-22 51 -9 63 16 16 43 6 49 -19z"/>
<path d="M1542 932 l-53 -37 4 -54 c5 -69 41 -106 94 -98 29 5 36 1 67 -37 59
-71 75 -119 76 -221 1 -101 13 -92 25 18 9 87 -7 152 -56 222 -21 31 -39 58
-39 60 0 10 42 4 74 -9 19 -8 44 -24 55 -35 27 -27 27 -11 0 23 -21 27 -87 66
-112 66 -9 0 -16 15 -20 42 -5 39 -33 89 -53 94 -5 2 -33 -14 -62 -34z m34
-48 c9 -35 -18 -63 -40 -44 -16 13 -22 51 -9 63 16 16 43 6 49 -19z"/>
<path d="M1180 698 c-14 -8 -26 -21 -28 -31 -5 -23 41 -66 78 -73 23 -5 30
-12 30 -30 0 -79 -137 -88 -151 -10 -7 34 -29 31 -29 -4 0 -69 108 -108 170
-61 24 19 25 19 51 0 65 -46 169 -9 169 61 0 36 -15 40 -24 6 -9 -38 -34 -56
-77 -56 -45 0 -79 27 -79 63 0 16 10 26 40 39 50 21 72 61 46 86 -22 22 -159
29 -196 10z m140 -18 c0 -14 -45 -23 -75 -16 -14 4 -23 11 -20 16 8 13 95 13
95 0z"/>
</g>
</svg>
