
<svg xmlns="http://www.w3.org/2000/svg" xmlns:xlink="http://www.w3.org/1999/xlink" width="250px" height="250px" viewBox="0 0 250 250" version="1.1">
<g id="surface1">
<path style=" stroke:none;fill-rule:nonzero;fill:rgb(95.686275%,64.313728%,15.294118%);fill-opacity:1;" d="M 221.058594 187.953125 C 218.40625 221.09375 180.769531 249.191406 124.53125 247.6875 C 71.480469 246.148438 34.347656 223.191406 31.695312 189.949219 C 31.410156 185.675781 31.554688 181.382812 32.132812 177.140625 C 33.949219 164.34375 38.148438 152.042969 44.488281 140.921875 L 48.449219 142.8125 C 58.851562 138.617188 69.609375 135.453125 80.582031 133.363281 C 95.035156 131.230469 109.671875 130.75 124.226562 131.929688 C 138.785156 130.75 153.417969 131.230469 167.875 133.363281 C 178.914062 135.441406 189.742188 138.605469 200.207031 142.8125 L 204.171875 140.921875 L 206.957031 139.59375 C 213.355469 150.847656 217.800781 163.191406 220.085938 176.054688 C 220.734375 179.984375 220.925781 183.976562 220.65625 187.953125 "/>
<path style=" stroke:none;fill-rule:nonzero;fill:rgb(100%,100%,100%);fill-opacity:1;" d="M 221.058594 187.953125 C 218.40625 221.09375 181.304688 247.722656 124.53125 247.6875 C 71.480469 246.148438 34.347656 223.191406 31.695312 189.949219 C 31.410156 185.675781 31.554688 181.382812 32.132812 177.140625 C 37.769531 175.859375 43.59375 175.707031 49.289062 176.6875 C 60.097656 178.503906 66.074219 185.398438 73.664062 188.96875 C 78.09375 191.101562 82.460938 187.605469 86.488281 183.824219 C 97.1875 172.867188 111.511719 166.605469 126.511719 166.328125 C 141.71875 166.117188 153.90625 172.347656 167.238281 185.015625 C 169.890625 187.828125 173.523438 189.40625 177.308594 189.386719 C 180.828125 188.402344 184.066406 186.539062 186.746094 183.964844 C 196.675781 177.003906 208.75 174.167969 220.589844 176.019531 C 221.238281 179.949219 221.429688 183.941406 221.160156 187.917969 "/>
<path style=" stroke:none;fill-rule:nonzero;fill:rgb(96.862745%,58.039218%,13.333334%);fill-opacity:1;" d="M 65.167969 106.3125 C 61.480469 110.140625 56.820312 112.800781 51.738281 113.976562 L 49.757812 114.363281 C 47.703125 114.929688 45.601562 115.304688 43.480469 115.480469 C 43.027344 115.457031 42.578125 115.398438 42.136719 115.308594 C 40.984375 115.003906 39.863281 114.59375 38.777344 114.082031 C 35.167969 112.332031 31.78125 110.109375 28.707031 107.46875 C 22.496094 102.230469 17.015625 96.117188 12.421875 89.304688 C -6.011719 61.507812 -0.460938 23.546875 25.082031 2.730469 C 26.265625 1.726562 27.933594 1.621094 29.222656 2.46875 C 30.515625 3.316406 31.144531 4.929688 30.789062 6.476562 C 28.304688 17.640625 26.390625 35.136719 36.394531 50.183594 C 44.957031 62.957031 63.253906 75.203125 74.269531 74.957031 C 76.753906 88.957031 73.027344 98.335938 65.167969 106.453125 "/>
<path style="fill:none;stroke-width:1;stroke-linecap:butt;stroke-linejoin:round;stroke:rgb(13.333334%,12.156863%,12.156863%);stroke-opacity:1;stroke-miterlimit:4;" d="M 19.409628 30.339759 C 18.311343 31.433705 16.923362 32.193886 15.409729 32.529883 L 14.819867 32.640394 C 14.207899 32.802253 13.581969 32.909415 12.950223 32.959648 C 12.815264 32.95295 12.681469 32.936206 12.55 32.910532 C 12.206786 32.823463 11.87288 32.706254 11.549444 32.560023 C 10.474428 32.059933 9.465727 31.424775 8.550102 30.670176 C 6.700236 29.173256 5.067934 27.426292 3.699731 25.479515 C -1.79053 17.53613 -0.137286 6.688207 7.470432 0.739599 C 7.822954 0.452717 8.319741 0.422578 8.703676 0.664808 C 9.088774 0.907039 9.276087 1.368059 9.170214 1.810103 C 8.430268 5.000405 7.860184 10.000184 10.839747 14.30006 C 13.390002 17.950266 18.839543 21.449776 22.120437 21.379451 C 22.860383 25.40026 21.750464 28.060334 19.409628 30.339759 Z M 19.409628 30.339759 " transform="matrix(3.357507,0,0,3.499374,0,0.142337)"/>
<path style=" stroke:none;fill-rule:nonzero;fill:rgb(35.294119%,34.901962%,36.078432%);fill-opacity:1;" d="M 113.382812 57.777344 L 109.085938 102.710938 L 108.816406 102.710938 C 102.101562 103.617188 93.105469 105.054688 80.679688 107.117188 C 69.164062 109.007812 53.820312 117.160156 44.789062 122.691406 L 43.445312 115.621094 C 45.566406 115.445312 47.667969 115.070312 49.726562 114.5 L 51.707031 114.117188 C 56.789062 112.9375 61.445312 110.28125 65.136719 106.453125 C 72.992188 98.476562 76.71875 89.167969 74.234375 74.957031 L 75.476562 75.378906 C 79.539062 70.886719 84.324219 67.167969 89.613281 64.390625 C 96.941406 60.339844 105.058594 58.078125 113.347656 57.777344 "/>
<path style="fill:none;stroke-width:1;stroke-linecap:butt;stroke-linejoin:round;stroke:rgb(13.333334%,12.156863%,12.156863%);stroke-opacity:1;stroke-miterlimit:4;" d="M 33.769936 16.470091 L 32.490155 29.310557 L 32.409878 29.310557 C 30.409929 29.569532 27.730532 29.98032 24.029638 30.569711 C 20.599824 31.109986 16.029842 33.439644 13.339974 35.020284 L 12.939752 32.999833 C 13.571498 32.949601 14.197428 32.842439 14.810559 32.679464 L 15.400422 32.570069 C 16.914054 32.232955 18.300872 31.473891 19.40032 30.379945 C 21.739993 28.10052 22.849912 25.440445 22.109966 21.379451 L 22.479939 21.500009 C 23.689914 20.216297 25.115125 19.153607 26.690419 18.359938 C 28.875355 17.200132 31.297632 16.553811 33.769936 16.470091 Z M 33.769936 16.470091 " transform="matrix(3.357507,0,0,3.499374,0,0.142337)"/>
<path style=" stroke:none;fill-rule:nonzero;fill:rgb(57.254905%,58.039218%,59.215689%);fill-opacity:1;" d="M 211.523438 138.261719 L 208.703125 139.59375 L 205.949219 140.921875 L 201.953125 142.8125 C 191.488281 138.605469 180.660156 135.441406 169.621094 133.363281 C 155.238281 130.507812 140.617188 129.148438 125.972656 129.304688 C 111.332031 129.148438 96.710938 130.507812 82.324219 133.363281 C 71.285156 135.4375 60.457031 138.601562 49.992188 142.8125 C 48.648438 142.183594 47.339844 141.515625 45.996094 140.921875 L 40.425781 138.261719 C 40.59375 133.363281 40.425781 130.667969 40.425781 125.769531 C 41.566406 125 43.007812 124.019531 44.722656 123.003906 C 44.855469 122.890625 45 122.796875 45.160156 122.726562 C 53.71875 117.195312 69.164062 109.042969 80.582031 107.152344 C 93.003906 105.089844 101.867188 103.652344 108.714844 102.742188 C 113.082031 102.464844 117.679688 102.253906 122.449219 102.21875 C 129.433594 102.21875 135.878906 102.21875 142.257812 102.710938 C 149.140625 103.617188 158.070312 105.054688 170.660156 107.152344 C 182.3125 109.042969 197.890625 117.371094 206.824219 122.898438 L 207.160156 123.074219 C 208.804688 124.089844 210.179688 125 211.289062 125.769531 C 211.289062 130.667969 211.121094 133.363281 211.289062 138.261719 "/>
<path style="fill:none;stroke-width:1;stroke-linecap:round;stroke-linejoin:round;stroke:rgb(13.333334%,12.156863%,12.156863%);stroke-opacity:1;stroke-miterlimit:4;" d="M 63.00014 39.469741 L 62.160138 39.850389 L 61.339915 40.229921 L 60.149718 40.770197 C 57.032869 39.567973 53.80782 38.663793 50.519946 38.069937 C 46.223371 37.354407 41.875605 37.000549 37.519695 37.009479 C 33.164949 37.002782 28.81602 37.357756 24.519445 38.069937 C 21.231571 38.662677 18.006522 39.566856 14.889673 40.770197 C 14.48945 40.590477 14.099699 40.399595 13.699476 40.229921 L 12.040415 39.469741 C 12.090442 38.069937 12.040415 37.29971 12.040415 35.899906 C 12.380138 35.68 12.809447 35.399816 13.320196 35.109586 C 13.359753 35.077214 13.4028 35.050423 13.450501 35.030331 C 15.999592 33.449691 20.599824 31.120033 24.000552 30.579758 C 27.700283 29.990367 30.340123 29.579579 32.379629 29.319488 C 33.680352 29.240232 35.049718 29.179954 36.470275 29.169907 C 38.550501 29.169907 40.470173 29.169907 42.370066 29.310557 C 44.420043 29.569532 47.079661 29.98032 50.82942 30.579758 C 54.299954 31.120033 58.939743 33.499923 61.600525 35.079446 L 61.70058 35.129679 C 62.190387 35.419909 62.599917 35.68 62.930334 35.899906 C 63.00014 37.29971 62.910555 38.069937 63.00014 39.469741 Z M 63.00014 39.469741 " transform="matrix(3.357507,0,0,3.499374,0,0.142337)"/>
<path style="fill-rule:nonzero;fill:rgb(57.254905%,58.039218%,59.215689%);fill-opacity:1;stroke-width:1;stroke-linecap:round;stroke-linejoin:round;stroke:rgb(13.333334%,12.156863%,12.156863%);stroke-opacity:1;stroke-miterlimit:4;" d="M 42.400316 29.310557 C 40.55045 29.200047 38.579587 29.139768 36.500524 29.169907 C 35.079967 29.169907 33.709438 29.240232 32.409878 29.319488 L 32.490155 29.319488 L 33.769936 16.480137 L 34.039854 13.880342 C 35.055535 13.313276 36.196867 13.009651 37.360305 12.999604 L 37.519695 12.999604 C 38.686623 13.008534 39.831446 13.311044 40.849454 13.880342 L 41.110064 16.439952 L 41.110064 16.510277 Z M 42.400316 29.310557 " transform="matrix(3.357507,0,0,3.499374,0,0.142337)"/>
<path style="fill:none;stroke-width:1;stroke-linecap:round;stroke-linejoin:round;stroke:rgb(13.333334%,12.156863%,12.156863%);stroke-opacity:1;stroke-miterlimit:4;" d="M 62.119418 39.850389 L 62.119418 39.850389 " transform="matrix(3.357507,0,0,3.499374,0,0.142337)"/>
<path style="fill:none;stroke-width:1;stroke-linecap:round;stroke-linejoin:round;stroke:rgb(13.333334%,12.156863%,12.156863%);stroke-opacity:1;stroke-miterlimit:4;" d="M 65.859869 53.790383 C 65.069895 63.25971 53.000395 70.8604 37.110165 70.8604 C 21.309521 70.419473 10.260355 63.860264 9.470381 54.359681 C 9.379633 53.13848 9.423844 51.911698 9.599523 50.700544 C 10.142848 47.044756 11.38889 43.530735 13.270168 40.350479 L 14.460365 40.889638 C 17.577214 39.687414 20.802262 38.78435 24.090137 38.190494 C 28.382057 37.433662 32.730987 37.042967 37.090387 37.019526 C 41.450951 36.98827 45.804534 37.380081 50.089474 38.190494 C 53.378512 38.782118 56.602397 39.686297 59.72041 40.889638 L 61.000191 40.350479 L 61.820414 39.96983 C 63.723798 43.18804 65.050117 46.71434 65.740035 50.390221 C 65.916878 51.514306 65.957598 52.656251 65.859869 53.790383 Z M 65.859869 53.790383 " transform="matrix(3.357507,0,0,3.499374,0,0.142337)"/>
<path style=" stroke:none;fill-rule:nonzero;fill:rgb(96.862745%,58.039218%,13.333334%);fill-opacity:1;" d="M 237.476562 89.304688 C 232.863281 96.113281 227.371094 102.222656 221.160156 107.46875 C 218.085938 110.109375 214.699219 112.332031 211.085938 114.082031 L 209.375 114.816406 L 208.300781 115.167969 C 205.914062 115.867188 204.707031 115.167969 200.207031 114.363281 L 198.226562 113.976562 C 193.148438 112.792969 188.492188 110.136719 184.796875 106.3125 C 176.941406 98.335938 173.214844 89.027344 175.730469 74.820312 C 186.609375 75.0625 205.007812 62.816406 213.570312 50.042969 C 223.644531 35.136719 221.59375 17.640625 219.210938 6.476562 C 218.835938 4.914062 219.464844 3.28125 220.773438 2.425781 C 222.082031 1.574219 223.769531 1.695312 224.953125 2.730469 C 250.449219 23.585938 255.949219 61.527344 237.511719 89.304688 "/>
<path style="fill:none;stroke-width:1;stroke-linecap:butt;stroke-linejoin:round;stroke:rgb(13.333334%,12.156863%,12.156863%);stroke-opacity:1;stroke-miterlimit:4;" d="M 70.730019 25.479515 C 69.355999 27.425176 67.720206 29.171024 65.87034 30.670176 C 64.954715 31.424775 63.946015 32.059933 62.869835 32.560023 L 62.360249 32.769882 L 62.040304 32.870346 C 61.329444 33.070158 60.969941 32.870346 59.629661 32.640394 L 59.039799 32.529883 C 57.52733 32.191653 56.140512 31.432589 55.039901 30.339759 C 52.700228 28.060334 51.590308 25.40026 52.339562 21.340382 C 55.579736 21.409591 61.059526 17.910081 63.609781 14.259874 C 66.610286 10.000184 65.999482 5.000405 65.289785 1.810103 C 65.178095 1.363594 65.365408 0.896993 65.75516 0.652529 C 66.144911 0.409182 66.647516 0.443787 67.000038 0.739599 C 74.590304 6.702719 76.224934 17.543944 70.730019 25.479515 Z M 70.730019 25.479515 " transform="matrix(3.357507,0,0,3.499374,0,0.142337)"/>
<path style=" stroke:none;fill-rule:nonzero;fill:rgb(35.294119%,34.901962%,36.078432%);fill-opacity:1;" d="M 208.367188 115.167969 L 206.921875 122.898438 C 197.992188 117.371094 182.414062 108.902344 170.761719 107.152344 C 158.171875 105.054688 149.242188 103.652344 142.359375 102.710938 L 138.027344 57.882812 C 145.839844 58.3125 153.460938 60.535156 160.355469 64.390625 C 165.683594 67.148438 170.503906 70.867188 174.589844 75.378906 L 175.867188 74.957031 C 173.347656 88.957031 177.074219 98.335938 184.929688 106.453125 C 188.625 110.273438 193.28125 112.933594 198.363281 114.117188 C 198.664062 114.117188 200.039062 114.816406 200.34375 114.886719 C 202.949219 115.804688 205.75 115.949219 208.433594 115.308594 "/>
<path style="fill:none;stroke-width:1;stroke-linecap:butt;stroke-linejoin:round;stroke:rgb(13.333334%,12.156863%,12.156863%);stroke-opacity:1;stroke-miterlimit:4;" d="M 62.060082 32.870346 L 61.62961 35.079446 C 58.969992 33.499923 54.330204 31.079847 50.85967 30.579758 C 47.109911 29.98032 44.450293 29.579579 42.400316 29.310557 L 41.110064 16.50023 C 43.436939 16.62302 45.706805 17.258178 47.760272 18.359938 C 49.347201 19.148025 50.782883 20.210715 51.999838 21.500009 L 52.380282 21.379451 C 51.629865 25.380167 52.739785 28.060334 55.079457 30.379945 C 56.180069 31.471658 57.566887 32.231839 59.080519 32.570069 L 59.670382 32.679464 C 61.000191 32.900485 61.350385 33.070158 62.060082 32.870346 Z M 62.060082 32.870346 " transform="matrix(3.357507,0,0,3.499374,0,0.142337)"/>
<path style="fill:none;stroke-width:1;stroke-linecap:butt;stroke-linejoin:round;stroke:rgb(13.333334%,12.156863%,12.156863%);stroke-opacity:1;stroke-miterlimit:4;" d="M 41.110064 16.50023 L 40.690063 16.50023 " transform="matrix(3.357507,0,0,3.499374,0,0.142337)"/>
<path style="fill-rule:nonzero;fill:rgb(96.862745%,58.039218%,13.333334%);fill-opacity:1;stroke-width:1;stroke-linecap:butt;stroke-linejoin:miter;stroke:rgb(13.333334%,12.156863%,12.156863%);stroke-opacity:1;stroke-miterlimit:10;" d="M 62.149667 32.380303 C 62.495208 32.816765 62.633657 33.381598 62.530111 33.928571 C 62.426565 34.475544 62.091495 34.949959 61.609832 35.230143 " transform="matrix(3.357507,0,0,3.499374,0,0.142337)"/>
<path style="fill-rule:nonzero;fill:rgb(96.862745%,58.039218%,13.333334%);fill-opacity:1;stroke-width:1;stroke-linecap:butt;stroke-linejoin:miter;stroke:rgb(13.333334%,12.156863%,12.156863%);stroke-opacity:1;stroke-miterlimit:10;" d="M 12.819918 32.380303 C 12.47554 32.817881 12.338255 33.383831 12.444127 33.930803 C 12.55 34.477776 12.887397 34.952192 13.370224 35.230143 " transform="matrix(3.357507,0,0,3.499374,0,0.142337)"/>
<path style="fill:none;stroke-width:1;stroke-linecap:round;stroke-linejoin:round;stroke:rgb(9.019608%,9.019608%,9.019608%);stroke-opacity:1;stroke-miterlimit:4;" d="M 33.750158 57.570077 C 34.47498 57.727471 35.233541 57.635937 35.90019 57.309985 C 37.004293 56.882454 37.707009 55.791857 37.63953 54.609726 C 37.52784 55.803019 38.246844 56.918174 39.380032 57.309985 C 40.043191 57.63482 40.798262 57.727471 41.519594 57.570077 " transform="matrix(3.357507,0,0,3.499374,0,0.142337)"/>
<path style=" stroke:none;fill-rule:nonzero;fill:rgb(9.019608%,9.019608%,9.019608%);fill-opacity:1;" d="M 139.402344 179.449219 C 139.402344 183.507812 133.328125 189.285156 125.972656 189.285156 C 118.621094 189.285156 112.542969 183.753906 112.542969 179.660156 C 112.542969 175.566406 118.621094 174.167969 125.972656 174.167969 C 133.328125 174.167969 139.402344 175.355469 139.402344 179.449219 "/>
<path style=" stroke:none;fill-rule:nonzero;fill:rgb(100%,100%,100%);fill-opacity:1;" d="M 131.582031 177.875 C 131.582031 178.820312 128.996094 180.148438 125.839844 180.148438 C 122.683594 180.148438 120.132812 178.855469 120.132812 177.910156 C 120.132812 176.964844 122.683594 177.140625 125.839844 177.140625 C 128.996094 177.140625 131.582031 176.894531 131.582031 177.875 "/>
<path style="fill:none;stroke-width:1;stroke-linecap:round;stroke-linejoin:round;stroke:rgb(9.019608%,9.019608%,9.019608%);stroke-opacity:1;stroke-miterlimit:4;" d="M 31.28018 54.629819 C 31.165 56.01846 32.120182 57.267567 33.489548 57.519844 L 33.750158 57.519844 " transform="matrix(3.357507,0,0,3.499374,0,0.142337)"/>
<path style="fill:none;stroke-width:1;stroke-linecap:round;stroke-linejoin:round;stroke:rgb(9.019608%,9.019608%,9.019608%);stroke-opacity:1;stroke-miterlimit:4;" d="M 37.630222 53.240061 C 37.630222 53.760243 37.630222 54.119683 37.630222 54.609726 " transform="matrix(3.357507,0,0,3.499374,0,0.142337)"/>
<path style="fill:none;stroke-width:1;stroke-linecap:round;stroke-linejoin:round;stroke:rgb(9.019608%,9.019608%,9.019608%);stroke-opacity:1;stroke-miterlimit:4;" d="M 41.519594 57.570077 L 41.789511 57.570077 C 43.180982 57.316683 44.143145 56.03632 44.000042 54.629819 " transform="matrix(3.357507,0,0,3.499374,0,0.142337)"/>
<path style="fill:none;stroke-width:1;stroke-linecap:butt;stroke-linejoin:round;stroke:rgb(13.333334%,12.156863%,12.156863%);stroke-opacity:1;stroke-miterlimit:4;" d="M 67.000038 0.739599 C 74.593794 6.69937 76.231914 17.541711 70.740489 25.479515 " transform="matrix(3.357507,0,0,3.499374,0,0.142337)"/>
<path style="fill:none;stroke-width:1;stroke-linecap:butt;stroke-linejoin:round;stroke:rgb(13.333334%,12.156863%,12.156863%);stroke-opacity:1;stroke-miterlimit:4;" d="M 19.409628 30.339759 C 18.311343 31.433705 16.923362 32.193886 15.409729 32.529883 L 14.819867 32.640394 C 14.207899 32.802253 13.581969 32.909415 12.950223 32.959648 C 12.815264 32.95295 12.681469 32.936206 12.55 32.910532 C 12.206786 32.823463 11.87288 32.706254 11.549444 32.560023 C 10.474428 32.059933 9.465727 31.424775 8.550102 30.670176 C 6.700236 29.173256 5.067934 27.426292 3.699731 25.479515 C -1.79053 17.53613 -0.137286 6.688207 7.470432 0.739599 C 7.822954 0.452717 8.319741 0.422578 8.703676 0.664808 C 9.088774 0.907039 9.276087 1.368059 9.170214 1.810103 C 8.430268 5.000405 7.860184 10.000184 10.839747 14.30006 C 13.390002 17.950266 18.839543 21.449776 22.120437 21.379451 C 22.860383 25.40026 21.750464 28.060334 19.409628 30.339759 Z M 19.409628 30.339759 " transform="matrix(3.357507,0,0,3.499374,0,0.142337)"/>
<path style=" stroke:none;fill-rule:nonzero;fill:rgb(13.333334%,12.156863%,12.156863%);fill-opacity:1;" d="M 101.496094 156.597656 C 101.496094 164.226562 97.199219 170.386719 91.894531 170.386719 C 86.589844 170.386719 82.324219 164.226562 82.324219 156.597656 C 82.324219 149.914062 85.683594 144.316406 90.015625 143.058594 L 100.726562 151.523438 C 101.210938 153.171875 101.46875 154.878906 101.496094 156.597656 Z M 101.496094 156.597656 "/>
<path style=" stroke:none;fill-rule:nonzero;fill:rgb(100%,100%,100%);fill-opacity:1;" d="M 97.9375 154.78125 C 97.9375 157.472656 96.425781 159.714844 94.582031 159.714844 C 92.734375 159.714844 91.222656 157.472656 91.222656 154.78125 C 91.222656 152.085938 92.769531 149.8125 94.582031 149.8125 C 96.394531 149.8125 97.9375 152.050781 97.9375 154.78125 "/>
<path style=" stroke:none;fill-rule:nonzero;fill:rgb(13.333334%,12.156863%,12.156863%);fill-opacity:1;" d="M 89.78125 166.921875 C 86.113281 170.082031 82.738281 173.597656 79.707031 177.421875 C 78.257812 179.300781 77.027344 181.359375 76.046875 183.542969 C 75.050781 185.769531 74.351562 188.121094 73.964844 190.542969 C 73.765625 191.734375 73.597656 192.992188 73.460938 194.21875 L 73.292969 196.105469 L 73.292969 197.996094 C 73.160156 200.527344 73.160156 203.0625 73.292969 205.589844 C 73.488281 208.140625 73.835938 210.679688 74.335938 213.183594 C 74.570312 214.445312 74.839844 215.703125 75.175781 216.929688 C 75.480469 218.128906 75.882812 219.300781 76.382812 220.429688 C 75.753906 219.3125 75.214844 218.140625 74.773438 216.929688 C 74.300781 215.738281 73.898438 214.515625 73.496094 213.429688 C 72.730469 210.9375 72.105469 208.402344 71.617188 205.835938 C 71.144531 203.253906 70.808594 200.648438 70.609375 198.03125 L 70.507812 196.105469 L 70.507812 194.113281 C 70.496094 192.78125 70.550781 191.449219 70.675781 190.125 C 70.878906 187.375 71.429688 184.667969 72.320312 182.074219 C 73.210938 179.488281 74.394531 177.019531 75.847656 174.726562 C 78.722656 170.289062 81.996094 166.140625 85.617188 162.339844 C 86.800781 161.179688 88.652344 161.191406 89.824219 162.367188 C 90.996094 163.539062 91.082031 165.46875 90.015625 166.746094 L 89.8125 166.957031 Z M 89.78125 166.921875 "/>
<path style=" stroke:none;fill-rule:nonzero;fill:rgb(13.333334%,12.156863%,12.156863%);fill-opacity:1;" d="M 87.5625 165.90625 C 87.332031 165.957031 87.089844 165.957031 86.859375 165.90625 L 85.683594 165.90625 L 84.140625 165.558594 C 83.109375 165.34375 82.066406 165.214844 81.015625 165.171875 C 78.910156 165.023438 76.792969 165.214844 74.738281 165.734375 C 73.699219 166 72.6875 166.375 71.714844 166.851562 C 68.664062 168.335938 66.082031 170.6875 64.261719 173.640625 C 65.105469 171.355469 66.332031 169.246094 67.890625 167.414062 C 68.679688 166.460938 69.554688 165.59375 70.507812 164.824219 C 71.480469 164.039062 72.527344 163.359375 73.628906 162.792969 C 75.792969 161.488281 78.136719 160.542969 80.582031 159.992188 C 81.8125 159.785156 83.058594 159.644531 84.308594 159.574219 C 84.945312 159.574219 85.582031 159.574219 86.1875 159.574219 L 87.5625 159.574219 C 87.5625 159.574219 87.867188 159.574219 87.5625 159.574219 C 88.722656 159.511719 89.816406 160.140625 90.382812 161.195312 C 90.953125 162.25 90.898438 163.550781 90.242188 164.550781 C 89.585938 165.550781 88.445312 166.074219 87.296875 165.90625 "/>
<path style=" stroke:none;fill-rule:nonzero;fill:rgb(13.333334%,12.156863%,12.156863%);fill-opacity:1;" d="M 170.425781 156.597656 C 170.425781 164.226562 166.128906 170.386719 160.859375 170.386719 C 155.585938 170.386719 151.253906 164.226562 151.253906 156.597656 C 151.25 154.859375 151.472656 153.128906 151.925781 151.457031 L 162.671875 143.058594 C 167.101562 144.28125 170.425781 149.878906 170.425781 156.597656 Z M 170.425781 156.597656 "/>
<path style=" stroke:none;fill-rule:nonzero;fill:rgb(100%,100%,100%);fill-opacity:1;" d="M 154.78125 154.78125 C 154.78125 157.472656 156.324219 159.714844 158.136719 159.714844 C 159.953125 159.714844 161.496094 157.472656 161.496094 154.78125 C 161.496094 152.085938 159.953125 149.8125 158.136719 149.8125 C 156.324219 149.8125 154.78125 152.050781 154.78125 154.78125 "/>
<path style=" stroke:none;fill-rule:nonzero;fill:rgb(13.333334%,12.156863%,12.156863%);fill-opacity:1;" d="M 167.136719 162.304688 C 170.675781 166.050781 173.878906 170.125 176.707031 174.480469 C 178.152344 176.679688 179.375 179.023438 180.367188 181.480469 C 181.335938 183.984375 182.003906 186.605469 182.347656 189.285156 C 182.648438 191.921875 182.648438 194.589844 182.347656 197.226562 C 182.078125 199.78125 181.675781 202.335938 181.171875 204.855469 C 180.691406 207.363281 180.074219 209.839844 179.324219 212.273438 C 178.921875 213.5 178.550781 214.6875 178.082031 215.773438 C 177.644531 216.988281 177.105469 218.15625 176.46875 219.273438 C 176.972656 218.140625 177.386719 216.972656 177.710938 215.773438 C 178.046875 214.582031 178.316406 213.359375 178.585938 212.097656 C 179.089844 209.636719 179.457031 207.148438 179.695312 204.644531 C 179.929688 202.125 180.03125 199.605469 180.0625 197.121094 C 180.074219 194.6875 179.824219 192.257812 179.324219 189.878906 C 178.785156 187.550781 177.960938 185.304688 176.875 183.195312 C 175.769531 181.089844 174.476562 179.097656 173.011719 177.246094 C 169.957031 173.441406 166.589844 169.929688 162.941406 166.746094 C 161.792969 165.574219 161.714844 163.675781 162.757812 162.40625 C 163.800781 161.132812 165.613281 160.921875 166.902344 161.917969 L 167.136719 162.128906 "/>
<path style=" stroke:none;fill-rule:nonzero;fill:rgb(13.333334%,12.156863%,12.156863%);fill-opacity:1;" d="M 164.921875 159.574219 L 166.566406 159.574219 C 167.214844 159.539062 167.863281 159.539062 168.511719 159.574219 C 169.816406 159.621094 171.117188 159.734375 172.40625 159.921875 C 175 160.316406 177.53125 161.070312 179.929688 162.164062 C 182.292969 163.246094 184.4375 164.789062 186.242188 166.710938 C 187.988281 168.574219 189.367188 170.773438 190.304688 173.1875 C 188.96875 171.113281 187.257812 169.328125 185.265625 167.9375 C 183.355469 166.597656 181.210938 165.65625 178.957031 165.171875 C 176.746094 164.699219 174.488281 164.535156 172.238281 164.683594 C 171.113281 164.753906 169.992188 164.894531 168.882812 165.101562 L 167.203125 165.453125 L 165.257812 165.453125 C 164.105469 165.621094 162.964844 165.09375 162.308594 164.097656 C 161.65625 163.097656 161.597656 161.796875 162.167969 160.742188 C 162.734375 159.6875 163.828125 159.058594 164.988281 159.117188 "/>
</g>
</svg>
