<!-- Generator: Adobe Illustrator 19.0.0, SVG Export Plug-In . SVG Version: 6.00 Build 0)  -->
<svg xmlns="http://www.w3.org/2000/svg" xmlns:xlink="http://www.w3.org/1999/xlink" width="250px" height="250px" viewBox="0 0 250 250" version="1.1">
<defs>
<clipPath id="clip1">
  <path d="M 250 125 C 250 194.035156 194.035156 250 125 250 C 55.964844 250 0 194.035156 0 125 C 0 55.964844 55.964844 0 125 0 C 194.035156 0 250 55.964844 250 125 Z M 250 125 "/>
</clipPath>
<linearGradient id="linear0" gradientUnits="userSpaceOnUse" x1="-1.323" y1="398.843994" x2="397.661285" y2="5.3253" gradientTransform="matrix(0.715103,0,0,0.715103,-17.30549,-17.30549)">
<stop offset="0.000788762" style="stop-color:rgb(29.803923%,87.843138%,58.823532%);stop-opacity:1;"/>
<stop offset="0.3149" style="stop-color:rgb(37.254903%,86.666667%,76.078433%);stop-opacity:1;"/>
<stop offset="0.6018" style="stop-color:rgb(42.352942%,85.490197%,89.019608%);stop-opacity:1;"/>
<stop offset="0.84" style="stop-color:rgb(45.882353%,85.09804%,97.254902%);stop-opacity:1;"/>
<stop offset="1" style="stop-color:rgb(47.058824%,84.705883%,100%);stop-opacity:1;"/>
</linearGradient>
<linearGradient id="linear1" gradientUnits="userSpaceOnUse" x1="199.000107" y1="373.842407" x2="199.000107" y2="24.157499" gradientTransform="matrix(0.715103,0,0,0.715103,-17.30549,-17.30549)">
<stop offset="0.000788762" style="stop-color:rgb(29.803923%,87.843138%,58.823532%);stop-opacity:1;"/>
<stop offset="0.3149" style="stop-color:rgb(37.254903%,86.666667%,76.078433%);stop-opacity:1;"/>
<stop offset="0.6018" style="stop-color:rgb(42.352942%,85.490197%,89.019608%);stop-opacity:1;"/>
<stop offset="0.84" style="stop-color:rgb(45.882353%,85.09804%,97.254902%);stop-opacity:1;"/>
<stop offset="1" style="stop-color:rgb(47.058824%,84.705883%,100%);stop-opacity:1;"/>
</linearGradient>
</defs>
<g id="surface1">
<g clip-path="url(#clip1)" clip-rule="nonzero">
<rect x="0" y="0" width="250" height="250" style="fill:url(#linear0);stroke:none;"/>
<path style=" stroke:none;fill-rule:nonzero;fill:url(#linear1);" d="M 125 14.300781 C 154.605469 14.300781 182.351562 25.816406 203.304688 46.769531 C 224.183594 67.648438 235.769531 95.464844 235.769531 125.070312 C 235.769531 154.675781 224.257812 182.421875 203.304688 203.375 C 182.421875 224.257812 154.605469 235.839844 125 235.839844 C 95.394531 235.839844 67.648438 224.328125 46.695312 203.375 C 25.816406 182.351562 14.300781 154.605469 14.300781 125 C 14.300781 95.394531 25.816406 67.648438 46.769531 46.695312 C 67.648438 25.816406 95.394531 14.300781 125 14.300781 M 125 0 C 55.921875 0 0 55.992188 0 125 C 0 194.007812 55.921875 250 125 250 C 194.078125 250 250 194.078125 250 125 C 250 55.921875 194.078125 0 125 0 Z M 125 0 "/>
</g>
<path style=" stroke:none;fill-rule:nonzero;fill:rgb(100%,100%,100%);fill-opacity:1;" d="M 149.027344 72.082031 L 139.015625 72.082031 L 130.21875 114.988281 C 130.292969 114.988281 130.363281 115.058594 130.363281 115.058594 C 131.652344 115.773438 132.792969 116.703125 133.722656 117.847656 C 133.9375 118.136719 134.152344 118.421875 134.367188 118.707031 C 134.796875 119.277344 135.15625 119.921875 135.441406 120.636719 C 136.15625 122.355469 136.511719 124.214844 136.296875 126.144531 C 136.226562 126.859375 136.085938 127.503906 135.941406 128.21875 C 135.941406 128.289062 135.941406 128.289062 135.941406 128.359375 C 135.726562 129.003906 135.511719 129.578125 135.226562 130.148438 C 135.226562 130.21875 135.15625 130.292969 135.15625 130.363281 C 134.867188 130.933594 134.511719 131.4375 134.152344 131.9375 C 134.082031 132.007812 134.082031 132.078125 134.011719 132.152344 C 133.652344 132.652344 133.222656 133.082031 132.792969 133.507812 C 132.722656 133.582031 132.652344 133.652344 132.582031 133.722656 C 132.152344 134.152344 131.652344 134.511719 131.148438 134.796875 C 131.078125 134.867188 131.007812 134.867188 130.933594 134.941406 C 130.433594 135.226562 129.863281 135.511719 129.289062 135.726562 C 129.21875 135.726562 129.148438 135.796875 129.074219 135.796875 C 128.503906 136.011719 127.933594 136.226562 127.289062 136.296875 C 127.21875 136.296875 127.144531 136.296875 127.074219 136.371094 C 126.644531 136.441406 126.214844 136.441406 125.859375 136.511719 L 119.351562 168.050781 L 136.511719 168.050781 L 154.75 79.234375 C 155.464844 75.515625 152.675781 72.082031 149.027344 72.082031 Z M 149.027344 72.082031 "/>
<path style=" stroke:none;fill-rule:nonzero;fill:rgb(100%,100%,100%);fill-opacity:1;" d="M 118.707031 134.582031 C 118.0625 134.152344 117.492188 133.722656 116.992188 133.222656 C 116.703125 132.9375 116.492188 132.722656 116.277344 132.4375 C 115.773438 131.863281 115.417969 131.292969 115.058594 130.648438 C 114.917969 130.363281 114.703125 130.003906 114.558594 129.648438 C 114.128906 128.648438 113.84375 127.574219 113.703125 126.429688 C 113.628906 126.074219 113.628906 125.644531 113.628906 125.285156 C 113.628906 124.929688 113.628906 124.5 113.703125 124.140625 C 113.773438 123.425781 113.914062 122.78125 114.058594 122.066406 C 114.058594 121.996094 114.058594 121.996094 114.058594 121.925781 C 114.273438 121.28125 114.488281 120.710938 114.773438 120.136719 C 114.773438 120.066406 114.84375 119.996094 114.84375 119.921875 C 115.132812 119.351562 115.488281 118.851562 115.847656 118.347656 C 115.917969 118.277344 115.917969 118.207031 115.988281 118.136719 C 116.347656 117.632812 116.777344 117.207031 117.207031 116.777344 C 117.277344 116.703125 117.347656 116.632812 117.417969 116.5625 C 117.847656 116.132812 118.347656 115.773438 118.851562 115.488281 C 118.921875 115.417969 118.992188 115.417969 119.066406 115.347656 C 119.566406 115.058594 120.136719 114.773438 120.710938 114.558594 C 120.78125 114.558594 120.851562 114.488281 120.996094 114.488281 C 121.566406 114.273438 122.140625 114.058594 122.78125 113.988281 C 122.855469 113.988281 122.925781 113.988281 122.996094 113.914062 C 123.425781 113.84375 123.855469 113.84375 124.285156 113.773438 L 130.792969 82.023438 L 113.628906 82.023438 L 95.394531 170.839844 C 94.679688 174.414062 97.398438 177.847656 101.117188 177.847656 L 111.128906 177.847656 L 119.921875 135.226562 C 119.851562 135.15625 119.78125 135.15625 119.707031 135.15625 C 119.277344 135.011719 118.992188 134.796875 118.707031 134.582031 Z M 118.707031 134.582031 "/>
<path style=" stroke:none;fill-rule:nonzero;fill:rgb(100%,100%,100%);fill-opacity:1;" d="M 114.84375 129.503906 C 114.417969 128.503906 114.128906 127.503906 113.988281 126.359375 C 114.128906 127.429688 114.417969 128.503906 114.84375 129.503906 Z M 114.84375 129.503906 "/>
<path style=" stroke:none;fill-rule:nonzero;fill:rgb(100%,100%,100%);fill-opacity:1;" d="M 114.058594 126.359375 C 113.988281 126 113.988281 125.644531 113.988281 125.285156 C 113.988281 125.644531 113.988281 126 114.058594 126.359375 Z M 114.058594 126.359375 "/>
<path style=" stroke:none;fill-rule:nonzero;fill:rgb(100%,100%,100%);fill-opacity:1;" d="M 114.34375 122.140625 C 114.34375 122.066406 114.34375 122.066406 114.34375 121.996094 C 114.417969 122.066406 114.417969 122.066406 114.34375 122.140625 Z M 114.34375 122.140625 "/>
<path style=" stroke:none;fill-rule:nonzero;fill:rgb(100%,100%,100%);fill-opacity:1;" d="M 115.058594 120.28125 C 115.058594 120.207031 115.132812 120.136719 115.132812 120.066406 C 115.132812 120.136719 115.132812 120.207031 115.058594 120.28125 Z M 115.058594 120.28125 "/>
<path style=" stroke:none;fill-rule:nonzero;fill:rgb(100%,100%,100%);fill-opacity:1;" d="M 116.132812 118.5625 C 116.203125 118.492188 116.203125 118.421875 116.277344 118.347656 C 116.203125 118.421875 116.203125 118.492188 116.132812 118.5625 Z M 116.132812 118.5625 "/>
<path style=" stroke:none;fill-rule:nonzero;fill:rgb(100%,100%,100%);fill-opacity:1;" d="M 133.867188 131.652344 C 133.796875 131.722656 133.796875 131.792969 133.722656 131.863281 C 133.796875 131.792969 133.796875 131.722656 133.867188 131.652344 Z M 133.867188 131.652344 "/>
<path style=" stroke:none;fill-rule:nonzero;fill:rgb(100%,100%,100%);fill-opacity:1;" d="M 132.507812 133.152344 C 132.4375 133.222656 132.367188 133.296875 132.292969 133.367188 C 132.367188 133.296875 132.4375 133.222656 132.507812 133.152344 Z M 132.507812 133.152344 "/>
<path style=" stroke:none;fill-rule:nonzero;fill:rgb(100%,100%,100%);fill-opacity:1;" d="M 117.492188 117.0625 C 117.5625 116.992188 117.632812 116.917969 117.707031 116.847656 C 117.632812 116.917969 117.5625 116.992188 117.492188 117.0625 Z M 117.492188 117.0625 "/>
<path style=" stroke:none;fill-rule:nonzero;fill:rgb(100%,100%,100%);fill-opacity:1;" d="M 129.148438 135.367188 C 129.074219 135.367188 129.003906 135.441406 128.933594 135.441406 C 129.003906 135.367188 129.074219 135.367188 129.148438 135.367188 Z M 129.148438 135.367188 "/>
<path style=" stroke:none;fill-rule:nonzero;fill:rgb(100%,100%,100%);fill-opacity:1;" d="M 116.492188 132.152344 C 116.0625 131.578125 115.632812 131.007812 115.273438 130.433594 C 115.703125 131.078125 116.0625 131.652344 116.492188 132.152344 Z M 116.492188 132.152344 "/>
<path style=" stroke:none;fill-rule:nonzero;fill:rgb(100%,100%,100%);fill-opacity:1;" d="M 118.921875 134.296875 C 118.347656 133.867188 117.777344 133.4375 117.277344 132.9375 C 117.777344 133.4375 118.277344 133.9375 118.921875 134.296875 Z M 118.921875 134.296875 "/>
<path style=" stroke:none;fill-rule:nonzero;fill:rgb(100%,100%,100%);fill-opacity:1;" d="M 125 136.15625 C 125 136.15625 125.070312 136.15625 125 136.15625 C 124.714844 136.15625 124.355469 136.15625 124 136.085938 C 124.355469 136.15625 124.714844 136.15625 125 136.15625 Z M 125 136.15625 "/>
<path style=" stroke:none;fill-rule:nonzero;fill:rgb(100%,100%,100%);fill-opacity:1;" d="M 121.78125 135.65625 C 121.066406 135.441406 120.421875 135.15625 119.78125 134.796875 C 120.421875 135.226562 121.136719 135.441406 121.78125 135.65625 Z M 121.78125 135.65625 "/>
<path style=" stroke:none;fill-rule:nonzero;fill:rgb(100%,100%,100%);fill-opacity:1;" d="M 127.074219 114.273438 C 127.789062 114.417969 128.503906 114.632812 129.148438 114.917969 C 128.574219 114.632812 127.859375 114.417969 127.074219 114.273438 Z M 127.074219 114.273438 "/>
<path style=" stroke:none;fill-rule:nonzero;fill:rgb(100%,100%,100%);fill-opacity:1;" d="M 130.933594 134.367188 C 130.863281 134.4375 130.792969 134.4375 130.722656 134.511719 C 130.792969 134.511719 130.863281 134.4375 130.933594 134.367188 Z M 130.933594 134.367188 "/>
<path style=" stroke:none;fill-rule:nonzero;fill:rgb(100%,100%,100%);fill-opacity:1;" d="M 135.65625 128.074219 C 135.65625 128.144531 135.65625 128.144531 135.65625 128.21875 C 135.582031 128.144531 135.582031 128.144531 135.65625 128.074219 Z M 135.65625 128.074219 "/>
<path style=" stroke:none;fill-rule:nonzero;fill:rgb(100%,100%,100%);fill-opacity:1;" d="M 134.082031 118.851562 C 134.511719 119.421875 134.796875 120.066406 135.082031 120.710938 C 134.867188 120.066406 134.511719 119.421875 134.082031 118.851562 Z M 134.082031 118.851562 "/>
<path style=" stroke:none;fill-rule:nonzero;fill:rgb(100%,100%,100%);fill-opacity:1;" d="M 125 114.058594 C 125 114.058594 124.929688 114.058594 125 114.058594 C 125.285156 114.058594 125.644531 114.058594 126 114.128906 C 125.644531 114.058594 125.285156 114.058594 125 114.058594 Z M 125 114.058594 "/>
<path style=" stroke:none;fill-rule:nonzero;fill:rgb(100%,100%,100%);fill-opacity:1;" d="M 133.507812 117.992188 C 132.582031 116.917969 131.507812 115.988281 130.21875 115.347656 C 131.4375 116.0625 132.582031 116.917969 133.507812 117.992188 Z M 133.507812 117.992188 "/>
<path style=" stroke:none;fill-rule:nonzero;fill:rgb(100%,100%,100%);fill-opacity:1;" d="M 120.851562 114.84375 C 120.925781 114.84375 120.996094 114.773438 121.066406 114.773438 C 120.996094 114.84375 120.925781 114.84375 120.851562 114.84375 Z M 120.851562 114.84375 "/>
<path style=" stroke:none;fill-rule:nonzero;fill:rgb(100%,100%,100%);fill-opacity:1;" d="M 134.941406 129.933594 C 134.941406 130.003906 134.867188 130.078125 134.867188 130.148438 C 134.867188 130.078125 134.867188 130.003906 134.941406 129.933594 Z M 134.941406 129.933594 "/>
<path style=" stroke:none;fill-rule:nonzero;fill:rgb(100%,100%,100%);fill-opacity:1;" d="M 119.066406 115.773438 C 119.136719 115.703125 119.207031 115.703125 119.277344 115.632812 C 119.207031 115.703125 119.136719 115.773438 119.066406 115.773438 Z M 119.066406 115.773438 "/>
<path style=" stroke:none;fill-rule:nonzero;fill:rgb(100%,100%,100%);fill-opacity:1;" d="M 147.882812 105.976562 C 142.804688 99.828125 135.582031 96.109375 127.644531 95.394531 C 126.789062 95.324219 125.859375 95.25 124.929688 95.25 C 109.410156 95.25 96.609375 106.90625 95.25 122.425781 C 94.535156 130.363281 96.96875 138.085938 102.046875 144.234375 C 107.121094 150.386719 114.34375 154.105469 122.28125 154.820312 C 123.140625 154.890625 124.070312 154.960938 125 154.960938 C 140.519531 154.960938 153.316406 143.304688 154.675781 127.789062 C 155.464844 119.851562 153.03125 112.128906 147.882812 105.976562 Z M 136.011719 126.074219 C 135.941406 126.789062 135.796875 127.429688 135.65625 128.074219 C 135.65625 128.144531 135.65625 128.144531 135.65625 128.21875 C 135.511719 128.863281 135.226562 129.433594 134.941406 129.933594 C 134.941406 130.003906 134.867188 130.078125 134.867188 130.148438 C 134.582031 130.648438 134.296875 131.222656 133.9375 131.652344 C 133.867188 131.722656 133.867188 131.792969 133.796875 131.863281 C 133.4375 132.292969 133.007812 132.722656 132.582031 133.152344 C 132.507812 133.222656 132.4375 133.296875 132.367188 133.367188 C 131.9375 133.722656 131.4375 134.082031 131.007812 134.4375 C 130.933594 134.511719 130.863281 134.511719 130.792969 134.582031 C 130.292969 134.867188 129.792969 135.15625 129.21875 135.367188 C 129.148438 135.367188 129.074219 135.441406 129.003906 135.441406 C 128.433594 135.65625 127.859375 135.796875 127.289062 135.941406 C 127.21875 135.941406 127.144531 135.941406 127.074219 135.941406 C 126.429688 136.085938 125.859375 136.085938 125.214844 136.15625 C 125.214844 136.15625 125.214844 136.15625 125.144531 136.15625 C 124.785156 136.15625 124.5 136.15625 124.140625 136.085938 C 123.355469 136.011719 122.640625 135.871094 121.925781 135.65625 C 121.210938 135.441406 120.566406 135.15625 119.921875 134.796875 C 119.636719 134.652344 119.277344 134.4375 118.992188 134.226562 C 118.421875 133.796875 117.847656 133.367188 117.347656 132.867188 C 117.0625 132.652344 116.847656 132.367188 116.632812 132.078125 C 116.203125 131.507812 115.773438 130.933594 115.417969 130.363281 C 115.273438 130.078125 115.058594 129.71875 114.917969 129.433594 C 114.488281 128.433594 114.203125 127.429688 114.058594 126.289062 C 113.988281 125.929688 113.988281 125.570312 113.988281 125.214844 C 113.988281 124.855469 113.988281 124.5 114.058594 124.070312 C 114.128906 123.355469 114.273438 122.710938 114.417969 122.066406 C 114.417969 121.996094 114.417969 121.996094 114.417969 121.925781 C 114.558594 121.28125 114.84375 120.710938 115.132812 120.207031 C 115.132812 120.136719 115.203125 120.066406 115.203125 119.996094 C 115.488281 119.492188 115.773438 118.921875 116.132812 118.492188 C 116.203125 118.421875 116.203125 118.347656 116.277344 118.277344 C 116.632812 117.847656 117.0625 117.417969 117.492188 116.992188 C 117.5625 116.917969 117.632812 116.847656 117.707031 116.777344 C 118.136719 116.417969 118.636719 116.0625 119.066406 115.703125 C 119.136719 115.632812 119.207031 115.632812 119.277344 115.5625 C 119.78125 115.273438 120.28125 114.988281 120.851562 114.773438 C 120.925781 114.773438 120.996094 114.703125 121.066406 114.703125 C 121.640625 114.488281 122.210938 114.34375 122.78125 114.203125 C 122.855469 114.203125 122.925781 114.203125 122.996094 114.203125 C 123.640625 114.058594 124.214844 114.058594 124.855469 113.988281 C 124.855469 113.988281 124.855469 113.988281 124.929688 113.988281 C 125.285156 113.988281 125.570312 113.988281 125.929688 114.058594 C 126.289062 114.058594 126.714844 114.128906 127.074219 114.203125 C 127.789062 114.34375 128.503906 114.558594 129.148438 114.84375 C 129.503906 114.988281 129.792969 115.132812 130.148438 115.273438 C 131.4375 115.917969 132.507812 116.847656 133.4375 117.921875 C 133.652344 118.207031 133.867188 118.492188 134.082031 118.777344 C 134.511719 119.351562 134.796875 119.996094 135.082031 120.636719 C 135.871094 122.355469 136.15625 124.214844 136.011719 126.074219 Z M 136.011719 126.074219 "/>
<path style=" stroke:none;fill-rule:nonzero;fill:rgb(100%,100%,100%);fill-opacity:1;" d="M 134.796875 130.148438 C 134.511719 130.648438 134.226562 131.222656 133.867188 131.652344 C 134.226562 131.222656 134.511719 130.722656 134.796875 130.148438 Z M 134.796875 130.148438 "/>
<path style=" stroke:none;fill-rule:nonzero;fill:rgb(100%,100%,100%);fill-opacity:1;" d="M 132.292969 133.367188 C 131.863281 133.722656 131.363281 134.082031 130.933594 134.4375 C 131.4375 134.082031 131.863281 133.722656 132.292969 133.367188 Z M 132.292969 133.367188 "/>
<path style=" stroke:none;fill-rule:nonzero;fill:rgb(100%,100%,100%);fill-opacity:1;" d="M 133.722656 131.863281 C 133.367188 132.292969 132.9375 132.722656 132.507812 133.152344 C 132.9375 132.792969 133.367188 132.367188 133.722656 131.863281 Z M 133.722656 131.863281 "/>
<path style=" stroke:none;fill-rule:nonzero;fill:rgb(100%,100%,100%);fill-opacity:1;" d="M 136.011719 126.074219 C 135.941406 126.789062 135.796875 127.429688 135.65625 128.074219 C 135.796875 127.429688 135.941406 126.789062 136.011719 126.074219 Z M 136.011719 126.074219 "/>
<path style=" stroke:none;fill-rule:nonzero;fill:rgb(100%,100%,100%);fill-opacity:1;" d="M 135.582031 128.21875 C 135.441406 128.789062 135.15625 129.433594 134.867188 129.933594 C 135.15625 129.433594 135.441406 128.789062 135.582031 128.21875 Z M 135.582031 128.21875 "/>
<path style=" stroke:none;fill-rule:nonzero;fill:rgb(100%,100%,100%);fill-opacity:1;" d="M 121.136719 114.773438 C 121.710938 114.558594 122.28125 114.417969 122.855469 114.273438 C 122.210938 114.417969 121.640625 114.558594 121.136719 114.773438 Z M 121.136719 114.773438 "/>
<path style=" stroke:none;fill-rule:nonzero;fill:rgb(100%,100%,100%);fill-opacity:1;" d="M 119.277344 115.632812 C 119.78125 115.347656 120.28125 115.058594 120.851562 114.84375 C 120.28125 115.058594 119.78125 115.347656 119.277344 115.632812 Z M 119.277344 115.632812 "/>
<path style=" stroke:none;fill-rule:nonzero;fill:rgb(100%,100%,100%);fill-opacity:1;" d="M 116.277344 118.347656 C 116.632812 117.921875 117.0625 117.492188 117.492188 117.0625 C 117.0625 117.417969 116.632812 117.847656 116.277344 118.347656 Z M 116.277344 118.347656 "/>
<path style=" stroke:none;fill-rule:nonzero;fill:rgb(100%,100%,100%);fill-opacity:1;" d="M 117.707031 116.847656 C 118.136719 116.492188 118.636719 116.132812 119.066406 115.773438 C 118.5625 116.132812 118.136719 116.492188 117.707031 116.847656 Z M 117.707031 116.847656 "/>
<path style=" stroke:none;fill-rule:nonzero;fill:rgb(100%,100%,100%);fill-opacity:1;" d="M 123.070312 114.273438 C 123.710938 114.128906 124.285156 114.128906 124.929688 114.058594 C 124.285156 114.058594 123.640625 114.128906 123.070312 114.273438 Z M 123.070312 114.273438 "/>
<path style=" stroke:none;fill-rule:nonzero;fill:rgb(100%,100%,100%);fill-opacity:1;" d="M 114.34375 122.140625 C 114.203125 122.78125 114.058594 123.425781 113.988281 124.140625 C 113.988281 124.5 113.914062 124.929688 113.914062 125.285156 C 113.914062 124.929688 113.914062 124.570312 113.988281 124.140625 C 114.058594 123.425781 114.203125 122.78125 114.34375 122.140625 Z M 114.34375 122.140625 "/>
<path style=" stroke:none;fill-rule:nonzero;fill:rgb(100%,100%,100%);fill-opacity:1;" d="M 130.722656 134.582031 C 130.21875 134.867188 129.71875 135.15625 129.148438 135.367188 C 129.71875 135.082031 130.21875 134.867188 130.722656 134.582031 Z M 130.722656 134.582031 "/>
<path style=" stroke:none;fill-rule:nonzero;fill:rgb(100%,100%,100%);fill-opacity:1;" d="M 126.929688 135.941406 C 126.289062 136.085938 125.714844 136.085938 125.070312 136.15625 C 125.714844 136.15625 126.359375 136.085938 126.929688 135.941406 Z M 126.929688 135.941406 "/>
<path style=" stroke:none;fill-rule:nonzero;fill:rgb(100%,100%,100%);fill-opacity:1;" d="M 128.863281 135.441406 C 128.289062 135.65625 127.71875 135.796875 127.144531 135.941406 C 127.789062 135.796875 128.359375 135.65625 128.863281 135.441406 Z M 128.863281 135.441406 "/>
<path style=" stroke:none;fill-rule:nonzero;fill:rgb(100%,100%,100%);fill-opacity:1;" d="M 114.417969 121.996094 C 114.558594 121.351562 114.84375 120.78125 115.132812 120.28125 C 114.84375 120.78125 114.558594 121.425781 114.417969 121.996094 Z M 114.417969 121.996094 "/>
<path style=" stroke:none;fill-rule:nonzero;fill:rgb(100%,100%,100%);fill-opacity:1;" d="M 115.203125 120.066406 C 115.488281 119.566406 115.773438 118.992188 116.132812 118.5625 C 115.773438 118.992188 115.488281 119.492188 115.203125 120.066406 Z M 115.203125 120.066406 "/>
</g>
</svg>
