<svg height="250" viewBox="0 0 250 250" width="250" xmlns="http://www.w3.org/2000/svg"><path d="m250 125c0 69.035156-55.964844 125-125 125s-125-55.964844-125-125 55.964844-125 125-125 125 55.964844 125 125zm0 0" fill="#070618"/><path d="m172.78125 100.921875c.003906-.488281-.25-.9375-.671875-1.1875l-13.125-8.152344c-.183594-.113281-.390625-.179687-.605469-.195312l-10.429687-.808594-12.652344-18.535156-10.429687-32.15625c-.183594-.605469-.753907-1.003907-1.382813-.96875-.613281.046875-1.136719.464843-1.3125 1.054687l-7.910156 33.621094h-6.5c-.558594.003906-1.0625.339844-1.277344.859375l-6.75 16.28125-15.589844 3.277344c-.398437.089843-.742187.339843-.945312.695312l-5.835938 10.792969c-.078125.175781-.125.359375-.144531.550781v.382813l9.355469 46.21875c.070312.324218.246093.621094.5.835937l19.050781 14.785157 9.738281 16.152343 11.925781 25.855469c.238282.511719.765626.828125 1.332032.800781.429687-.042969.808594-.292969 1.019531-.671875l.058594.035156 14.875-23.136718 18.394531-28.277344c.101562-.15625.171875-.339844.195312-.527344v-.03125l9.042969-57.394531h-.03125c.074219-.011719.105469-.078125.105469-.15625zm-24.632812-3.355469-9.320313 1.917969-8.878906 1.855469 7.75-8.789063 1.136719-1.308593.109374-.109376.21875.140626 2.222657 1.550781zm-3.75-7.292968 1 1.472656.691406 1-1.53125-1.074219-2.222656-1.550781-2.441407-1.71875-1.328125-4.71875-.914062-3.277344zm-20.648438-44.832032 8.964844 27.605469 4.46875 15.863281-.671875.75-1.132813 1.308594-1.128906 1.304688-7.460938 8.5-2.878906-9.324219-.441406-1.417969-.4375-1.417969-1.914062-6.164062c0-.03125-.035157-.03125-.054688-.054688-.023438-.0625-.042969-.128906-.054688-.195312l-4.105468-7.402344zm-9.203125 30.9375 1.222656 2.222656-3.355469-2.222656zm-12.75 16.777344.636719-1.550781.640625-1.554688 1.675781-4.078125 3.683594-8.933594 6.929687 4.574219 1.917969 1.277344-8.25 5.910156-5.609375 4-2.136719 1.527344zm8.375-1.75 2.804687-2 2-1.421875 4.023438-2.882813 1.023438 3.277344.441406 1.421875.441406 1.417969 3.386719 10.9375h-18.128907l-5.597656-3.882812zm-24.800781 5.191406 13.125-2.75-1.605469 3.917969c-.257813.601563-.046875 1.300781.5 1.660156l7.601563 5.25c.226562.167969.5.253907.78125.25h20.417968c.09375.007813.1875-.003906.277344-.03125l25.378906-5.25c.449219-.097656.824219-.410156 1-.835937.164063-.4375.109375-.921875-.144531-1.3125l-2.75-4.023438 7.855469.605469 10.882812 6.75-14.042968 8.023437-43.554688 2.296876-30.351562-6zm27.378906 17.253906 41.144531-2.167968 3.410157 22.386718-19.585938 45.050782-12.90625-13.894532zm7.988281 46.082032-17.089843-22.277344-21.808594-29.4375 28 5.542969zm-39.535156-47.933594 19.5 26.359375-11.871094 11.320313zm8.875 40.273438 12.292969-11.703126 18.535156 24.160157-13.289062 1.1875zm19.441406 16.25 11.980469-1.039063-4.71875 13.089844zm19.34375 37.375-10.25-22.191407 5.464844-15.203125 12.488281 13.457032zm13.949219-20.089844-9.132812 14.238281 5.6875-17.667969 15.226562-14.628906zm-.640625-10.019532 15.898437-36.570312 2.828126 18.558594zm20.199219-26.570312-5.796875-38.25 4.160156-2.390625 8.84375-5.046875zm0 0" fill="#fff"/></svg>