<svg height="250" viewBox="0 0 250 250" width="250" xmlns="http://www.w3.org/2000/svg" xmlns:xlink="http://www.w3.org/1999/xlink"><clipPath id="a"><path d="m.136719 0h249.820312v250h-249.820312zm0 0"/></clipPath><g clip-path="url(#a)"><path d="m125.050781 250c68.984375 0 124.910157-55.960938 124.910157-125 0-69.035156-55.925782-125-124.910157-125-68.988281 0-124.914062 55.964844-124.914062 125 0 69.039062 55.925781 125 124.914062 125zm0 0" fill="#3772ff"/></g><g fill="#fff"><path d="m85.28125 100.324219c-2.214844 9.246093-3.886719 17.207031-5.144531 23.589843-2.6875 13.613282-3.089844 18.160157-3.050781 22.917969v.625c.046874 4.769531.394531 14.554688 4.667968 25.433594 1.480469 3.773437 3.324219 7.398437 5.5 10.820313 6.46875 10.1875 14.546875 16.601562 19.257813 19.878906 5.675781-.863282 15.75-3.054688 26.066406-9.363282 3.453125-2.097656 6.699219-4.527343 9.683594-7.253906 8.519531-7.792968 13.148437-16.328125 15.320312-20.636718.132813-.25.253907-.472657.355469-.6875 2.132812-4.253907 3.773438-8.511719 7.363281-21.917969 1.699219-6.332031 3.714844-14.320313 5.824219-23.695313.671875-3.007812 1.363281-6.160156 2.046875-9.445312l-10.675781-13.132813-3.328125-4.09375-51.355469-11.945312-4.777344 2.199219-15.359375 7.078124c-.851562 3.339844-1.652343 6.554688-2.394531 9.628907zm27.386719 23.492187c.488281-2.089844 1.527343-4.015625 3.003906-5.578125 1.476563-1.558593 3.339844-2.695312 5.402344-3.296875 2.0625-.601562 4.246093-.644531 6.328125-.121094 2.085937.523438 3.992187 1.589844 5.527344 3.09375 1.535156 1.503907 2.640624 3.386719 3.207031 5.460938.566406 2.074219.574219 4.257812.019531 6.335938-.558594 2.074218-1.65625 3.964843-3.183594 5.476562-1.523437 1.511719-3.425781 2.589844-5.507812 3.121094l-5.171875 22.265625-10.914063-2.539063 5.175782-22.277344c-1.675782-1.445312-2.925782-3.324218-3.609376-5.425781-.683593-2.105469-.78125-4.359375-.277343-6.515625zm0 0"/><path d="m92.46875 55.933594 5.074219 1.183594-2.304688 9.933593 4.945313-2.109375 3.179687-13.679687 10.933594-4.839844 14.886719 3.464844-2.003906 8.632812 24.535156 5.707031 2.003906-8.632812 14.890625 3.464844 7.847656 9.207031-3.175781 13.675781 3.511719 4.078125 2.308593-9.933593 5.074219 1.183593 6.984375 8.316407-6.015625 25.894531-22.550781-26.53125-54.3125-12.632813-31.765625 13.894532 6.015625-25.894532zm0 0"/></g></svg>