
<svg xmlns="http://www.w3.org/2000/svg" xmlns:xlink="http://www.w3.org/1999/xlink" width="250px" height="250px" viewBox="0 0 250 250" version="1.1">
<defs>
<clipPath id="clip1">
  <path d="M 0.136719 0 L 249.957031 0 L 249.957031 250 L 0.136719 250 Z M 0.136719 0 "/>
</clipPath>
</defs>
<g id="surface1">
<g clip-path="url(#clip1)" clip-rule="nonzero">
<path style=" stroke:none;fill-rule:nonzero;fill:rgb(21.568628%,44.705883%,100%);fill-opacity:1;" d="M 125.050781 250 C 194.035156 250 249.960938 194.039062 249.960938 125 C 249.960938 55.964844 194.035156 0 125.050781 0 C 56.0625 0 0.136719 55.964844 0.136719 125 C 0.136719 194.039062 56.0625 250 125.050781 250 Z M 125.050781 250 "/>
</g>
<path style=" stroke:none;fill-rule:nonzero;fill:rgb(100%,100%,100%);fill-opacity:1;" d="M 85.28125 100.324219 C 83.066406 109.570312 81.394531 117.53125 80.136719 123.914062 C 77.449219 137.527344 77.046875 142.074219 77.085938 146.832031 C 77.085938 147.027344 77.085938 147.226562 77.085938 147.457031 C 77.132812 152.226562 77.480469 162.011719 81.753906 172.890625 C 83.234375 176.664062 85.078125 180.289062 87.253906 183.710938 C 93.722656 193.898438 101.800781 200.3125 106.511719 203.589844 C 112.1875 202.726562 122.261719 200.535156 132.578125 194.226562 C 136.03125 192.128906 139.277344 189.699219 142.261719 186.972656 C 150.78125 179.179688 155.410156 170.644531 157.582031 166.335938 C 157.714844 166.085938 157.835938 165.863281 157.9375 165.648438 C 160.070312 161.394531 161.710938 157.136719 165.300781 143.730469 C 167 137.398438 169.015625 129.410156 171.125 120.035156 C 171.796875 117.027344 172.488281 113.875 173.171875 110.589844 L 162.496094 97.457031 L 159.167969 93.363281 L 107.8125 81.417969 L 103.035156 83.617188 L 87.675781 90.695312 C 86.824219 94.035156 86.023438 97.25 85.28125 100.324219 Z M 112.667969 123.816406 C 113.15625 121.726562 114.195312 119.800781 115.671875 118.238281 C 117.148438 116.679688 119.011719 115.542969 121.074219 114.941406 C 123.136719 114.339844 125.320312 114.296875 127.402344 114.820312 C 129.488281 115.34375 131.394531 116.410156 132.929688 117.914062 C 134.464844 119.417969 135.570312 121.300781 136.136719 123.375 C 136.703125 125.449219 136.710938 127.632812 136.15625 129.710938 C 135.597656 131.785156 134.5 133.675781 132.972656 135.1875 C 131.449219 136.699219 129.546875 137.777344 127.464844 138.308594 L 122.292969 160.574219 L 111.378906 158.035156 L 116.554688 135.757812 C 114.878906 134.3125 113.628906 132.433594 112.945312 130.332031 C 112.261719 128.226562 112.164062 125.972656 112.667969 123.816406 Z M 112.667969 123.816406 "/>
<path style=" stroke:none;fill-rule:nonzero;fill:rgb(100%,100%,100%);fill-opacity:1;" d="M 92.46875 55.933594 L 97.542969 57.117188 L 95.238281 67.050781 L 100.183594 64.941406 L 103.363281 51.261719 L 114.296875 46.421875 L 129.183594 49.886719 L 127.179688 58.519531 L 151.714844 64.226562 L 153.71875 55.59375 L 168.609375 59.058594 L 176.457031 68.265625 L 173.28125 81.941406 L 176.792969 86.019531 L 179.101562 76.085938 L 184.175781 77.269531 L 191.160156 85.585938 L 185.144531 111.480469 L 162.59375 84.949219 L 108.28125 72.316406 L 76.515625 86.210938 L 82.53125 60.316406 Z M 92.46875 55.933594 "/>
</g>
</svg>
