<svg viewBox="0 0 1401 1400" fill="none" xmlns="http://www.w3.org/2000/svg">
<g clip-path="url(#clip0)">
<path d="M700.775 1400.01C1087.38 1400.01 1400.78 1086.61 1400.78 700.005C1400.78 313.403 1087.38 0 700.775 0C314.173 0 0.769531 313.403 0.769531 700.005C0.769531 1086.61 314.173 1400.01 700.775 1400.01Z" fill="#3772FF"/>
<path d="M477.925 561.811C465.514 613.584 456.129 658.169 449.085 693.911C434.035 770.163 431.772 795.624 431.981 822.256C431.981 823.36 431.981 824.465 431.981 825.756C432.257 852.477 434.19 907.275 458.15 968.191C466.455 989.328 476.775 1009.62 488.966 1028.78C525.215 1085.83 570.485 1121.74 596.896 1140.1C628.696 1135.27 685.162 1123 742.964 1087.67C762.33 1075.92 780.506 1062.31 797.232 1047.04C844.987 1003.41 870.912 955.604 883.08 931.478C883.841 930.087 884.504 928.828 885.089 927.625C897.025 903.808 906.222 879.959 926.351 804.888C935.858 769.423 947.153 724.694 958.979 672.192C962.755 655.343 966.63 637.699 970.462 619.304L910.639 545.757L891.979 522.834L604.173 455.934L577.408 468.257L491.34 507.895C486.559 526.589 482.076 544.608 477.925 561.811ZM631.401 693.381C634.138 681.662 639.942 670.881 648.219 662.145C656.496 653.409 666.948 647.032 678.503 643.667C690.057 640.303 702.299 640.072 713.972 642.998C725.645 645.924 736.33 651.903 744.93 660.32C753.531 668.738 759.738 679.291 762.915 690.899C766.092 702.506 766.125 714.75 763.01 726.374C759.895 737.998 753.744 748.585 745.188 757.048C736.632 765.511 725.98 771.547 714.322 774.535L685.338 899.226L624.158 885.005L653.175 760.237C643.78 752.149 636.782 741.639 632.943 729.852C629.104 718.065 628.571 705.45 631.401 693.381Z" fill="white"/>
<path d="M518.194 313.235L546.637 319.849L533.708 375.475L561.433 363.661L579.242 287.056L640.511 259.971L723.952 279.36L712.711 327.699L850.211 359.664L861.44 311.325L944.891 330.724L988.869 382.277L971.059 458.882L990.746 481.716L1003.68 426.089L1032.12 432.703L1071.26 479.287L1037.56 624.294L911.181 475.721L606.802 404.967L428.803 482.787L462.512 337.78L518.194 313.235Z" fill="white"/>
</g>
<defs>
<clipPath id="clip0">
<rect width="1400" height="1400" fill="white" transform="translate(0.769531)"/>
</clipPath>
</defs>
</svg>
