<svg width="128" height="128" viewBox="0 0 128 128" fill="none" xmlns="http://www.w3.org/2000/svg">
<g clip-path="url(#clip0_216_33019)">
<path d="M52 96H48V100H52V96Z" fill="#626882"/>
<path d="M48 96H44V100H48V96Z" fill="#626882"/>
<path d="M44 96H40V100H44V96Z" fill="#626882"/>
<path d="M40 96H36V100H40V96Z" fill="#626882"/>
<path d="M60 88H56V92H60V88Z" fill="#626882"/>
<path d="M56 88H52V92H56V88Z" fill="#626882"/>
<path d="M52 88H48V92H52V88Z" fill="#626882"/>
<path d="M48 88H44V92H48V88Z" fill="#626882"/>
<path d="M44 88H40V92H44V88Z" fill="#626882"/>
<path d="M40 88H36V92H40V88Z" fill="#626882"/>
<path d="M68 100H64V104H68V100Z" fill="#171F46"/>
<path d="M92 96H88V100H92V96Z" fill="#171F46"/>
<path d="M88 96H84V100H88V96Z" fill="#171F46"/>
<path d="M80 96H76V100H80V96Z" fill="#171F46"/>
<path d="M72 96H68V100H72V96Z" fill="#171F46"/>
<path d="M84 92H80V96H84V92Z" fill="#171F46"/>
<path d="M76 92H72V96H76V92Z" fill="#171F46"/>
<path d="M72 92H68V96H72V92Z" fill="#171F46"/>
<path d="M76 88H72V92H76V88Z" fill="#171F46"/>
<path d="M76 84H72V88H76V84Z" fill="#171F46"/>
<path d="M20 60H16V64H20V60Z" fill="#4A4A4A"/>
<path d="M84 72H80V76H84V72Z" fill="#092F62"/>
<path d="M68 72H64V76H68V72Z" fill="#092F62"/>
<path d="M72 68H68V72H72V68Z" fill="#092F62"/>
<path d="M96 64H92V68H96V64Z" fill="#092F62"/>
<path d="M76 64H72V68H76V64Z" fill="#092F62"/>
<path d="M92 60H88V64H92V60Z" fill="#092F62"/>
<path d="M88 60H84V64H88V60Z" fill="#092F62"/>
<path d="M80 60H76V64H80V60Z" fill="#092F62"/>
<path d="M76 60H72V64H76V60Z" fill="#092F62"/>
<path d="M52 60H48V64H52V60Z" fill="#092F62"/>
<path d="M112 56H108V60H112V56Z" fill="#092F62"/>
<path d="M108 56H104V60H108V56Z" fill="#092F62"/>
<path d="M100 56H96V60H100V56Z" fill="#092F62"/>
<path d="M88 56H84V60H88V56Z" fill="#092F62"/>
<path d="M84 56H80V60H84V56Z" fill="#092F62"/>
<path d="M80 56H76V60H80V56Z" fill="#092F62"/>
<path d="M48 56H44V60H48V56Z" fill="#092F62"/>
<path d="M44 56H40V60H44V56Z" fill="#092F62"/>
<path d="M24 56H20V60H24V56Z" fill="#092F62"/>
<path d="M108 52H104V56H108V52Z" fill="#092F62"/>
<path d="M104 52H100V56H104V52Z" fill="#092F62"/>
<path d="M100 52H96V56H100V52Z" fill="#092F62"/>
<path d="M96 52H92V56H96V52Z" fill="#092F62"/>
<path d="M92 52H88V56H92V52Z" fill="#092F62"/>
<path d="M88 52H84V56H88V52Z" fill="#092F62"/>
<path d="M84 52H80V56H84V52Z" fill="#092F62"/>
<path d="M52 52H48V56H52V52Z" fill="#092F62"/>
<path d="M44 52H40V56H44V52Z" fill="#092F62"/>
<path d="M40 52H36V56H40V52Z" fill="#092F62"/>
<path d="M36 52H32V56H36V52Z" fill="#092F62"/>
<path d="M28 52H24V56H28V52Z" fill="#092F62"/>
<path d="M100 48H96V52H100V48Z" fill="#092F62"/>
<path d="M96 48H92V52H96V48Z" fill="#092F62"/>
<path d="M92 48H88V52H92V48Z" fill="#092F62"/>
<path d="M88 48H84V52H88V48Z" fill="#092F62"/>
<path d="M84 48H80V52H84V48Z" fill="#092F62"/>
<path d="M56 48H52V52H56V48Z" fill="#092F62"/>
<path d="M40 48H36V52H40V48Z" fill="#092F62"/>
<path d="M36 48H32V52H36V48Z" fill="#092F62"/>
<path d="M32 48H28V52H32V48Z" fill="#092F62"/>
<path d="M92 44H88V48H92V44Z" fill="#092F62"/>
<path d="M88 44H84V48H88V44Z" fill="#092F62"/>
<path d="M84 44H80V48H84V44Z" fill="#092F62"/>
<path d="M80 44H76V48H80V44Z" fill="#092F62"/>
<path d="M56 44H52V48H56V44Z" fill="#092F62"/>
<path d="M36 44H32V48H36V44Z" fill="#092F62"/>
<path d="M88 40H84V44H88V40Z" fill="#092F62"/>
<path d="M84 40H80V44H84V40Z" fill="#092F62"/>
<path d="M80 40H76V44H80V40Z" fill="#092F62"/>
<path d="M60 40H56V44H60V40Z" fill="#092F62"/>
<path d="M88 36H84V40H88V36Z" fill="#092F62"/>
<path d="M84 36H80V40H84V36Z" fill="#092F62"/>
<path d="M80 36H76V40H80V36Z" fill="#092F62"/>
<path d="M76 36H72V40H76V36Z" fill="#092F62"/>
<path d="M60 36H56V40H60V36Z" fill="#092F62"/>
<path d="M84 32H80V36H84V32Z" fill="#092F62"/>
<path d="M80 32H76V36H80V32Z" fill="#092F62"/>
<path d="M76 32H72V36H76V32Z" fill="#092F62"/>
<path d="M64 32H60V36H64V32Z" fill="#092F62"/>
<path d="M80 28H76V32H80V28Z" fill="#092F62"/>
<path d="M76 28H72V32H76V28Z" fill="#092F62"/>
<path d="M72 28H68V32H72V28Z" fill="#092F62"/>
<path d="M64 28H60V32H64V28Z" fill="#092F62"/>
<path d="M76 24H72V28H76V24Z" fill="#092F62"/>
<path d="M72 24H68V28H72V24Z" fill="#092F62"/>
<path d="M68 24H64V28H68V24Z" fill="#092F62"/>
<path d="M72 20H68V24H72V20Z" fill="#092F62"/>
<path d="M68 20H64V24H68V20Z" fill="#092F62"/>
<path d="M104 108H100V112H104V108Z" fill="white"/>
<path d="M100 108H96V112H100V108Z" fill="white"/>
<path d="M96 108H92V112H96V108Z" fill="white"/>
<path d="M92 108H88V112H92V108Z" fill="white"/>
<path d="M88 108H84V112H88V108Z" fill="white"/>
<path d="M84 108H80V112H84V108Z" fill="white"/>
<path d="M80 108H76V112H80V108Z" fill="white"/>
<path d="M76 108H72V112H76V108Z" fill="white"/>
<path d="M72 108H68V112H72V108Z" fill="white"/>
<path d="M68 108H64V112H68V108Z" fill="white"/>
<path d="M64 108H60V112H64V108Z" fill="white"/>
<path d="M60 108H56V112H60V108Z" fill="white"/>
<path d="M56 108H52V112H56V108Z" fill="white"/>
<path d="M52 108H48V112H52V108Z" fill="white"/>
<path d="M48 108H44V112H48V108Z" fill="white"/>
<path d="M44 108H40V112H44V108Z" fill="white"/>
<path d="M40 108H36V112H40V108Z" fill="white"/>
<path d="M36 108H32V112H36V108Z" fill="white"/>
<path d="M32 108H28V112H32V108Z" fill="white"/>
<path d="M28 108H24V112H28V108Z" fill="white"/>
<path d="M108 104H104V108H108V104Z" fill="white"/>
<path d="M104 104H100V108H104V104Z" fill="white"/>
<path d="M100 104H96V108H100V104Z" fill="white"/>
<path d="M96 104H92V108H96V104Z" fill="white"/>
<path d="M92 104H88V108H92V104Z" fill="white"/>
<path d="M88 104H84V108H88V104Z" fill="white"/>
<path d="M84 104H80V108H84V104Z" fill="white"/>
<path d="M80 104H76V108H80V104Z" fill="white"/>
<path d="M76 104H72V108H76V104Z" fill="white"/>
<path d="M72 104H68V108H72V104Z" fill="white"/>
<path d="M68 104H64V108H68V104Z" fill="white"/>
<path d="M64 104H60V108H64V104Z" fill="white"/>
<path d="M60 104H56V108H60V104Z" fill="white"/>
<path d="M56 104H52V108H56V104Z" fill="white"/>
<path d="M52 104H48V108H52V104Z" fill="white"/>
<path d="M48 104H44V108H48V104Z" fill="white"/>
<path d="M44 104H40V108H44V104Z" fill="white"/>
<path d="M40 104H36V108H40V104Z" fill="white"/>
<path d="M36 104H32V108H36V104Z" fill="white"/>
<path d="M32 104H28V108H32V104Z" fill="white"/>
<path d="M28 104H24V108H28V104Z" fill="white"/>
<path d="M24 104H20V108H24V104Z" fill="white"/>
<path d="M112 100H108V104H112V100Z" fill="white"/>
<path d="M108 100H104V104H108V100Z" fill="white"/>
<path d="M104 100H100V104H104V100Z" fill="white"/>
<path d="M100 100H96V104H100V100Z" fill="white"/>
<path d="M96 100H92V104H96V100Z" fill="white"/>
<path d="M92 100H88V104H92V100Z" fill="white"/>
<path d="M88 100H84V104H88V100Z" fill="white"/>
<path d="M84 100H80V104H84V100Z" fill="white"/>
<path d="M80 100H76V104H80V100Z" fill="white"/>
<path d="M76 100H72V104H76V100Z" fill="white"/>
<path d="M72 100H68V104H72V100Z" fill="white"/>
<path d="M64 100H60V104H64V100Z" fill="white"/>
<path d="M60 100H56V104H60V100Z" fill="white"/>
<path d="M56 100H52V104H56V100Z" fill="white"/>
<path d="M52 100H48V104H52V100Z" fill="white"/>
<path d="M48 100H44V104H48V100Z" fill="white"/>
<path d="M44 100H40V104H44V100Z" fill="white"/>
<path d="M40 100H36V104H40V100Z" fill="white"/>
<path d="M36 100H32V104H36V100Z" fill="white"/>
<path d="M32 100H28V104H32V100Z" fill="white"/>
<path d="M28 100H24V104H28V100Z" fill="white"/>
<path d="M24 100H20V104H24V100Z" fill="white"/>
<path d="M20 100H16V104H20V100Z" fill="white"/>
<path d="M112 96H108V100H112V96Z" fill="white"/>
<path d="M108 96H104V100H108V96Z" fill="white"/>
<path d="M104 96H100V100H104V96Z" fill="white"/>
<path d="M100 96H96V100H100V96Z" fill="white"/>
<path d="M96 96H92V100H96V96Z" fill="white"/>
<path d="M84 96H80V100H84V96Z" fill="white"/>
<path d="M76 96H72V100H76V96Z" fill="white"/>
<path d="M68 96H64V100H68V96Z" fill="white"/>
<path d="M64 96H60V100H64V96Z" fill="white"/>
<path d="M60 96H56V100H60V96Z" fill="white"/>
<path d="M56 96H52V100H56V96Z" fill="white"/>
<path d="M36 96H32V100H36V96Z" fill="white"/>
<path d="M32 96H28V100H32V96Z" fill="white"/>
<path d="M28 96H24V100H28V96Z" fill="white"/>
<path d="M24 96H20V100H24V96Z" fill="white"/>
<path d="M20 96H16V100H20V96Z" fill="white"/>
<path d="M112 92H108V96H112V92Z" fill="white"/>
<path d="M108 92H104V96H108V92Z" fill="white"/>
<path d="M104 92H100V96H104V92Z" fill="white"/>
<path d="M100 92H96V96H100V92Z" fill="white"/>
<path d="M96 92H92V96H96V92Z" fill="white"/>
<path d="M92 92H88V96H92V92Z" fill="white"/>
<path d="M88 92H84V96H88V92Z" fill="white"/>
<path d="M80 92H76V96H80V92Z" fill="white"/>
<path d="M68 92H64V96H68V92Z" fill="white"/>
<path d="M64 92H60V96H64V92Z" fill="white"/>
<path d="M60 92H56V96H60V92Z" fill="white"/>
<path d="M56 92H52V96H56V92Z" fill="white"/>
<path d="M52 92H48V96H52V92Z" fill="white"/>
<path d="M48 92H44V96H48V92Z" fill="white"/>
<path d="M44 92H40V96H44V92Z" fill="white"/>
<path d="M40 92H36V96H40V92Z" fill="white"/>
<path d="M36 92H32V96H36V92Z" fill="white"/>
<path d="M32 92H28V96H32V92Z" fill="white"/>
<path d="M28 92H24V96H28V92Z" fill="white"/>
<path d="M24 92H20V96H24V92Z" fill="white"/>
<path d="M20 92H16V96H20V92Z" fill="white"/>
<path d="M112 88H108V92H112V88Z" fill="white"/>
<path d="M108 88H104V92H108V88Z" fill="white"/>
<path d="M104 88H100V92H104V88Z" fill="white"/>
<path d="M100 88H96V92H100V88Z" fill="white"/>
<path d="M96 88H92V92H96V88Z" fill="white"/>
<path d="M92 88H88V92H92V88Z" fill="white"/>
<path d="M88 88H84V92H88V88Z" fill="white"/>
<path d="M84 88H80V92H84V88Z" fill="white"/>
<path d="M80 88H76V92H80V88Z" fill="white"/>
<path d="M72 88H68V92H72V88Z" fill="white"/>
<path d="M68 88H64V92H68V88Z" fill="white"/>
<path d="M64 88H60V92H64V88Z" fill="white"/>
<path d="M36 88H32V92H36V88Z" fill="white"/>
<path d="M32 88H28V92H32V88Z" fill="white"/>
<path d="M28 88H24V92H28V88Z" fill="white"/>
<path d="M24 88H20V92H24V88Z" fill="white"/>
<path d="M20 88H16V92H20V88Z" fill="white"/>
<path d="M112 84H108V88H112V84Z" fill="white"/>
<path d="M108 84H104V88H108V84Z" fill="white"/>
<path d="M104 84H100V88H104V84Z" fill="white"/>
<path d="M100 84H96V88H100V84Z" fill="white"/>
<path d="M96 84H92V88H96V84Z" fill="white"/>
<path d="M92 84H88V88H92V84Z" fill="white"/>
<path d="M88 84H84V88H88V84Z" fill="white"/>
<path d="M84 84H80V88H84V84Z" fill="white"/>
<path d="M80 84H76V88H80V84Z" fill="white"/>
<path d="M72 84H68V88H72V84Z" fill="white"/>
<path d="M68 84H64V88H68V84Z" fill="white"/>
<path d="M64 84H60V88H64V84Z" fill="white"/>
<path d="M60 84H56V88H60V84Z" fill="white"/>
<path d="M56 84H52V88H56V84Z" fill="white"/>
<path d="M52 84H48V88H52V84Z" fill="white"/>
<path d="M48 84H44V88H48V84Z" fill="white"/>
<path d="M44 84H40V88H44V84Z" fill="white"/>
<path d="M40 84H36V88H40V84Z" fill="white"/>
<path d="M36 84H32V88H36V84Z" fill="white"/>
<path d="M32 84H28V88H32V84Z" fill="white"/>
<path d="M28 84H24V88H28V84Z" fill="white"/>
<path d="M24 84H20V88H24V84Z" fill="white"/>
<path d="M20 84H16V88H20V84Z" fill="white"/>
<path d="M112 80H108V84H112V80Z" fill="white"/>
<path d="M108 80H104V84H108V80Z" fill="white"/>
<path d="M104 80H100V84H104V80Z" fill="white"/>
<path d="M100 80H96V84H100V80Z" fill="white"/>
<path d="M96 80H92V84H96V80Z" fill="white"/>
<path d="M92 80H88V84H92V80Z" fill="white"/>
<path d="M88 80H84V84H88V80Z" fill="white"/>
<path d="M84 80H80V84H84V80Z" fill="white"/>
<path d="M80 80H76V84H80V80Z" fill="white"/>
<path d="M76 80H72V84H76V80Z" fill="white"/>
<path d="M72 80H68V84H72V80Z" fill="white"/>
<path d="M68 80H64V84H68V80Z" fill="white"/>
<path d="M64 80H60V84H64V80Z" fill="white"/>
<path d="M60 80H56V84H60V80Z" fill="white"/>
<path d="M56 80H52V84H56V80Z" fill="white"/>
<path d="M52 80H48V84H52V80Z" fill="white"/>
<path d="M48 80H44V84H48V80Z" fill="white"/>
<path d="M44 80H40V84H44V80Z" fill="white"/>
<path d="M40 80H36V84H40V80Z" fill="white"/>
<path d="M36 80H32V84H36V80Z" fill="white"/>
<path d="M32 80H28V84H32V80Z" fill="white"/>
<path d="M28 80H24V84H28V80Z" fill="white"/>
<path d="M24 80H20V84H24V80Z" fill="white"/>
<path d="M20 80H16V84H20V80Z" fill="white"/>
<path d="M112 76H108V80H112V76Z" fill="white"/>
<path d="M108 76H104V80H108V76Z" fill="white"/>
<path d="M104 76H100V80H104V76Z" fill="white"/>
<path d="M100 76H96V80H100V76Z" fill="white"/>
<path d="M96 76H92V80H96V76Z" fill="white"/>
<path d="M92 76H88V80H92V76Z" fill="white"/>
<path d="M88 76H84V80H88V76Z" fill="white"/>
<path d="M84 76H80V80H84V76Z" fill="white"/>
<path d="M80 76H76V80H80V76Z" fill="white"/>
<path d="M76 76H72V80H76V76Z" fill="white"/>
<path d="M72 76H68V80H72V76Z" fill="white"/>
<path d="M68 76H64V80H68V76Z" fill="white"/>
<path d="M64 76H60V80H64V76Z" fill="white"/>
<path d="M60 76H56V80H60V76Z" fill="white"/>
<path d="M56 76H52V80H56V76Z" fill="white"/>
<path d="M52 76H48V80H52V76Z" fill="white"/>
<path d="M48 76H44V80H48V76Z" fill="white"/>
<path d="M44 76H40V80H44V76Z" fill="white"/>
<path d="M40 76H36V80H40V76Z" fill="white"/>
<path d="M36 76H32V80H36V76Z" fill="white"/>
<path d="M32 76H28V80H32V76Z" fill="white"/>
<path d="M28 76H24V80H28V76Z" fill="white"/>
<path d="M24 76H20V80H24V76Z" fill="white"/>
<path d="M20 76H16V80H20V76Z" fill="white"/>
<path d="M112 72H108V76H112V72Z" fill="white"/>
<path d="M108 72H104V76H108V72Z" fill="white"/>
<path d="M104 72H100V76H104V72Z" fill="white"/>
<path d="M100 72H96V76H100V72Z" fill="white"/>
<path d="M96 72H92V76H96V72Z" fill="white"/>
<path d="M92 72H88V76H92V72Z" fill="white"/>
<path d="M88 72H84V76H88V72Z" fill="white"/>
<path d="M80 72H76V76H80V72Z" fill="white"/>
<path d="M76 72H72V76H76V72Z" fill="white"/>
<path d="M72 72H68V76H72V72Z" fill="white"/>
<path d="M64 72H60V76H64V72Z" fill="white"/>
<path d="M60 72H56V76H60V72Z" fill="white"/>
<path d="M56 72H52V76H56V72Z" fill="white"/>
<path d="M52 72H48V76H52V72Z" fill="white"/>
<path d="M48 72H44V76H48V72Z" fill="white"/>
<path d="M44 72H40V76H44V72Z" fill="white"/>
<path d="M40 72H36V76H40V72Z" fill="white"/>
<path d="M36 72H32V76H36V72Z" fill="white"/>
<path d="M32 72H28V76H32V72Z" fill="white"/>
<path d="M28 72H24V76H28V72Z" fill="white"/>
<path d="M24 72H20V76H24V72Z" fill="white"/>
<path d="M20 72H16V76H20V72Z" fill="white"/>
<path d="M112 68H108V72H112V68Z" fill="white"/>
<path d="M108 68H104V72H108V68Z" fill="white"/>
<path d="M104 68H100V72H104V68Z" fill="white"/>
<path d="M100 68H96V72H100V68Z" fill="white"/>
<path d="M96 68H92V72H96V68Z" fill="white"/>
<path d="M92 68H88V72H92V68Z" fill="white"/>
<path d="M88 68H84V72H88V68Z" fill="white"/>
<path d="M84 68H80V72H84V68Z" fill="white"/>
<path d="M80 68H76V72H80V68Z" fill="white"/>
<path d="M76 68H72V72H76V68Z" fill="white"/>
<path d="M68 68H64V72H68V68Z" fill="white"/>
<path d="M64 68H60V72H64V68Z" fill="white"/>
<path d="M60 68H56V72H60V68Z" fill="white"/>
<path d="M56 68H52V72H56V68Z" fill="white"/>
<path d="M52 68H48V72H52V68Z" fill="white"/>
<path d="M48 68H44V72H48V68Z" fill="white"/>
<path d="M44 68H40V72H44V68Z" fill="white"/>
<path d="M40 68H36V72H40V68Z" fill="white"/>
<path d="M36 68H32V72H36V68Z" fill="white"/>
<path d="M32 68H28V72H32V68Z" fill="white"/>
<path d="M28 68H24V72H28V68Z" fill="white"/>
<path d="M24 68H20V72H24V68Z" fill="white"/>
<path d="M20 68H16V72H20V68Z" fill="white"/>
<path d="M112 64H108V68H112V64Z" fill="white"/>
<path d="M108 64H104V68H108V64Z" fill="white"/>
<path d="M104 64H100V68H104V64Z" fill="white"/>
<path d="M100 64H96V68H100V64Z" fill="white"/>
<path d="M92 64H88V68H92V64Z" fill="white"/>
<path d="M88 64H84V68H88V64Z" fill="white"/>
<path d="M84 64H80V68H84V64Z" fill="white"/>
<path d="M80 64H76V68H80V64Z" fill="white"/>
<path d="M72 64H68V68H72V64Z" fill="white"/>
<path d="M68 64H64V68H68V64Z" fill="white"/>
<path d="M64 64H60V68H64V64Z" fill="white"/>
<path d="M60 64H56V68H60V64Z" fill="white"/>
<path d="M56 64H52V68H56V64Z" fill="white"/>
<path d="M52 64H48V68H52V64Z" fill="white"/>
<path d="M48 64H44V68H48V64Z" fill="white"/>
<path d="M44 64H40V68H44V64Z" fill="white"/>
<path d="M40 64H36V68H40V64Z" fill="white"/>
<path d="M36 64H32V68H36V64Z" fill="white"/>
<path d="M32 64H28V68H32V64Z" fill="white"/>
<path d="M28 64H24V68H28V64Z" fill="white"/>
<path d="M24 64H20V68H24V64Z" fill="white"/>
<path d="M20 64H16V68H20V64Z" fill="#FEFEFE"/>
<path d="M112 60H108V64H112V60Z" fill="white"/>
<path d="M108 60H104V64H108V60Z" fill="white"/>
<path d="M104 60H100V64H104V60Z" fill="white"/>
<path d="M100 60H96V64H100V60Z" fill="white"/>
<path d="M96 60H92V64H96V60Z" fill="white"/>
<path d="M84 60H80V64H84V60Z" fill="white"/>
<path d="M72 60H68V64H72V60Z" fill="white"/>
<path d="M68 60H64V64H68V60Z" fill="white"/>
<path d="M64 60H60V64H64V60Z" fill="white"/>
<path d="M60 60H56V64H60V60Z" fill="white"/>
<path d="M56 60H52V64H56V60Z" fill="white"/>
<path d="M48 60H44V64H48V60Z" fill="white"/>
<path d="M44 60H40V64H44V60Z" fill="white"/>
<path d="M40 60H36V64H40V60Z" fill="white"/>
<path d="M36 60H32V64H36V60Z" fill="white"/>
<path d="M32 60H28V64H32V60Z" fill="white"/>
<path d="M28 60H24V64H28V60Z" fill="white"/>
<path d="M24 60H20V64H24V60Z" fill="white"/>
<path d="M104 56H100V60H104V56Z" fill="white"/>
<path d="M96 56H92V60H96V56Z" fill="white"/>
<path d="M92 56H88V60H92V56Z" fill="white"/>
<path d="M76 56H72V60H76V56Z" fill="white"/>
<path d="M72 56H68V60H72V56Z" fill="white"/>
<path d="M68 56H64V60H68V56Z" fill="white"/>
<path d="M64 56H60V60H64V56Z" fill="white"/>
<path d="M60 56H56V60H60V56Z" fill="white"/>
<path d="M56 56H52V60H56V56Z" fill="white"/>
<path d="M52 56H48V60H52V56Z" fill="white"/>
<path d="M40 56H36V60H40V56Z" fill="white"/>
<path d="M36 56H32V60H36V56Z" fill="white"/>
<path d="M32 56H28V60H32V56Z" fill="white"/>
<path d="M28 56H24V60H28V56Z" fill="white"/>
<path d="M20 56H16V60H20V56Z" fill="white"/>
<path d="M112 52H108V56H112V52Z" fill="white"/>
<path d="M80 52H76V56H80V52Z" fill="white"/>
<path d="M76 52H72V56H76V52Z" fill="white"/>
<path d="M72 52H68V56H72V52Z" fill="white"/>
<path d="M68 52H64V56H68V52Z" fill="white"/>
<path d="M64 52H60V56H64V52Z" fill="white"/>
<path d="M60 52H56V56H60V52Z" fill="white"/>
<path d="M56 52H52V56H56V52Z" fill="white"/>
<path d="M48 52H44V56H48V52Z" fill="white"/>
<path d="M32 52H28V56H32V52Z" fill="white"/>
<path d="M24 52H20V56H24V52Z" fill="white"/>
<path d="M20 52H16V56H20V52Z" fill="white"/>
<path d="M112 48H108V52H112V48Z" fill="white"/>
<path d="M108 48H104V52H108V48Z" fill="white"/>
<path d="M104 48H100V52H104V48Z" fill="white"/>
<path d="M80 48H76V52H80V48Z" fill="white"/>
<path d="M76 48H72V52H76V48Z" fill="white"/>
<path d="M72 48H68V52H72V48Z" fill="white"/>
<path d="M68 48H64V52H68V48Z" fill="white"/>
<path d="M64 48H60V52H64V48Z" fill="white"/>
<path d="M60 48H56V52H60V48Z" fill="white"/>
<path d="M52 48H48V52H52V48Z" fill="white"/>
<path d="M48 48H44V52H48V48Z" fill="white"/>
<path d="M44 48H40V52H44V48Z" fill="white"/>
<path d="M28 48H24V52H28V48Z" fill="white"/>
<path d="M24 48H20V52H24V48Z" fill="white"/>
<path d="M20 48H16V52H20V48Z" fill="white"/>
<path d="M112 44H108V48H112V44Z" fill="white"/>
<path d="M108 44H104V48H108V44Z" fill="white"/>
<path d="M104 44H100V48H104V44Z" fill="white"/>
<path d="M100 44H96V48H100V44Z" fill="white"/>
<path d="M96 44H92V48H96V44Z" fill="white"/>
<path d="M76 44H72V48H76V44Z" fill="white"/>
<path d="M72 44H68V48H72V44Z" fill="white"/>
<path d="M68 44H64V48H68V44Z" fill="white"/>
<path d="M64 44H60V48H64V44Z" fill="white"/>
<path d="M60 44H56V48H60V44Z" fill="white"/>
<path d="M52 44H48V48H52V44Z" fill="white"/>
<path d="M48 44H44V48H48V44Z" fill="white"/>
<path d="M44 44H40V48H44V44Z" fill="white"/>
<path d="M40 44H36V48H40V44Z" fill="white"/>
<path d="M32 44H28V48H32V44Z" fill="white"/>
<path d="M28 44H24V48H28V44Z" fill="white"/>
<path d="M24 44H20V48H24V44Z" fill="white"/>
<path d="M20 44H16V48H20V44Z" fill="white"/>
<path d="M112 40H108V44H112V40Z" fill="white"/>
<path d="M108 40H104V44H108V40Z" fill="white"/>
<path d="M104 40H100V44H104V40Z" fill="white"/>
<path d="M100 40H96V44H100V40Z" fill="white"/>
<path d="M96 40H92V44H96V40Z" fill="white"/>
<path d="M92 40H88V44H92V40Z" fill="white"/>
<path d="M76 40H72V44H76V40Z" fill="white"/>
<path d="M72 40H68V44H72V40Z" fill="white"/>
<path d="M68 40H64V44H68V40Z" fill="white"/>
<path d="M64 40H60V44H64V40Z" fill="white"/>
<path d="M56 40H52V44H56V40Z" fill="white"/>
<path d="M52 40H48V44H52V40Z" fill="white"/>
<path d="M48 40H44V44H48V40Z" fill="white"/>
<path d="M44 40H40V44H44V40Z" fill="white"/>
<path d="M40 40H36V44H40V40Z" fill="white"/>
<path d="M36 40H32V44H36V40Z" fill="white"/>
<path d="M32 40H28V44H32V40Z" fill="white"/>
<path d="M28 40H24V44H28V40Z" fill="white"/>
<path d="M24 40H20V44H24V40Z" fill="white"/>
<path d="M20 40H16V44H20V40Z" fill="white"/>
<path d="M112 36H108V40H112V36Z" fill="white"/>
<path d="M108 36H104V40H108V36Z" fill="white"/>
<path d="M104 36H100V40H104V36Z" fill="white"/>
<path d="M100 36H96V40H100V36Z" fill="white"/>
<path d="M96 36H92V40H96V36Z" fill="white"/>
<path d="M92 36H88V40H92V36Z" fill="white"/>
<path d="M72 36H68V40H72V36Z" fill="white"/>
<path d="M68 36H64V40H68V36Z" fill="white"/>
<path d="M64 36H60V40H64V36Z" fill="white"/>
<path d="M56 36H52V40H56V36Z" fill="white"/>
<path d="M52 36H48V40H52V36Z" fill="white"/>
<path d="M48 36H44V40H48V36Z" fill="white"/>
<path d="M44 36H40V40H44V36Z" fill="white"/>
<path d="M40 36H36V40H40V36Z" fill="white"/>
<path d="M36 36H32V40H36V36Z" fill="white"/>
<path d="M32 36H28V40H32V36Z" fill="white"/>
<path d="M28 36H24V40H28V36Z" fill="white"/>
<path d="M24 36H20V40H24V36Z" fill="white"/>
<path d="M20 36H16V40H20V36Z" fill="white"/>
<path d="M112 32H108V36H112V32Z" fill="white"/>
<path d="M108 32H104V36H108V32Z" fill="white"/>
<path d="M104 32H100V36H104V32Z" fill="white"/>
<path d="M100 32H96V36H100V32Z" fill="white"/>
<path d="M96 32H92V36H96V32Z" fill="white"/>
<path d="M92 32H88V36H92V32Z" fill="white"/>
<path d="M88 32H84V36H88V32Z" fill="white"/>
<path d="M72 32H68V36H72V32Z" fill="white"/>
<path d="M68 32H64V36H68V32Z" fill="white"/>
<path d="M60 32H56V36H60V32Z" fill="white"/>
<path d="M56 32H52V36H56V32Z" fill="white"/>
<path d="M52 32H48V36H52V32Z" fill="white"/>
<path d="M48 32H44V36H48V32Z" fill="white"/>
<path d="M44 32H40V36H44V32Z" fill="white"/>
<path d="M40 32H36V36H40V32Z" fill="white"/>
<path d="M36 32H32V36H36V32Z" fill="white"/>
<path d="M32 32H28V36H32V32Z" fill="white"/>
<path d="M28 32H24V36H28V32Z" fill="white"/>
<path d="M24 32H20V36H24V32Z" fill="white"/>
<path d="M20 32H16V36H20V32Z" fill="white"/>
<path d="M112 28H108V32H112V28Z" fill="white"/>
<path d="M108 28H104V32H108V28Z" fill="white"/>
<path d="M104 28H100V32H104V28Z" fill="white"/>
<path d="M100 28H96V32H100V28Z" fill="white"/>
<path d="M96 28H92V32H96V28Z" fill="white"/>
<path d="M92 28H88V32H92V28Z" fill="white"/>
<path d="M88 28H84V32H88V28Z" fill="white"/>
<path d="M84 28H80V32H84V28Z" fill="white"/>
<path d="M68 28H64V32H68V28Z" fill="white"/>
<path d="M60 28H56V32H60V28Z" fill="white"/>
<path d="M56 28H52V32H56V28Z" fill="white"/>
<path d="M52 28H48V32H52V28Z" fill="white"/>
<path d="M48 28H44V32H48V28Z" fill="white"/>
<path d="M44 28H40V32H44V28Z" fill="white"/>
<path d="M40 28H36V32H40V28Z" fill="white"/>
<path d="M36 28H32V32H36V28Z" fill="white"/>
<path d="M32 28H28V32H32V28Z" fill="white"/>
<path d="M28 28H24V32H28V28Z" fill="white"/>
<path d="M24 28H20V32H24V28Z" fill="white"/>
<path d="M20 28H16V32H20V28Z" fill="white"/>
<path d="M112 24H108V28H112V24Z" fill="white"/>
<path d="M108 24H104V28H108V24Z" fill="white"/>
<path d="M104 24H100V28H104V24Z" fill="white"/>
<path d="M100 24H96V28H100V24Z" fill="white"/>
<path d="M96 24H92V28H96V24Z" fill="white"/>
<path d="M92 24H88V28H92V24Z" fill="white"/>
<path d="M88 24H84V28H88V24Z" fill="white"/>
<path d="M84 24H80V28H84V24Z" fill="white"/>
<path d="M80 24H76V28H80V24Z" fill="white"/>
<path d="M64 24H60V28H64V24Z" fill="white"/>
<path d="M60 24H56V28H60V24Z" fill="white"/>
<path d="M56 24H52V28H56V24Z" fill="white"/>
<path d="M52 24H48V28H52V24Z" fill="white"/>
<path d="M48 24H44V28H48V24Z" fill="white"/>
<path d="M44 24H40V28H44V24Z" fill="white"/>
<path d="M40 24H36V28H40V24Z" fill="white"/>
<path d="M36 24H32V28H36V24Z" fill="white"/>
<path d="M32 24H28V28H32V24Z" fill="white"/>
<path d="M28 24H24V28H28V24Z" fill="white"/>
<path d="M24 24H20V28H24V24Z" fill="white"/>
<path d="M20 24H16V28H20V24Z" fill="white"/>
<path d="M108 20H104V24H108V20Z" fill="white"/>
<path d="M104 20H100V24H104V20Z" fill="white"/>
<path d="M100 20H96V24H100V20Z" fill="white"/>
<path d="M96 20H92V24H96V20Z" fill="white"/>
<path d="M92 20H88V24H92V20Z" fill="white"/>
<path d="M88 20H84V24H88V20Z" fill="white"/>
<path d="M84 20H80V24H84V20Z" fill="white"/>
<path d="M80 20H76V24H80V20Z" fill="white"/>
<path d="M76 20H72V24H76V20Z" fill="white"/>
<path d="M64 20H60V24H64V20Z" fill="white"/>
<path d="M60 20H56V24H60V20Z" fill="white"/>
<path d="M56 20H52V24H56V20Z" fill="white"/>
<path d="M52 20H48V24H52V20Z" fill="white"/>
<path d="M48 20H44V24H48V20Z" fill="white"/>
<path d="M44 20H40V24H44V20Z" fill="white"/>
<path d="M40 20H36V24H40V20Z" fill="white"/>
<path d="M36 20H32V24H36V20Z" fill="white"/>
<path d="M32 20H28V24H32V20Z" fill="white"/>
<path d="M28 20H24V24H28V20Z" fill="white"/>
<path d="M24 20H20V24H24V20Z" fill="white"/>
<path d="M104 16H100V20H104V16Z" fill="white"/>
<path d="M100 16H96V20H100V16Z" fill="white"/>
<path d="M96 16H92V20H96V16Z" fill="white"/>
<path d="M92 16H88V20H92V16Z" fill="white"/>
<path d="M88 16H84V20H88V16Z" fill="white"/>
<path d="M84 16H80V20H84V16Z" fill="white"/>
<path d="M80 16H76V20H80V16Z" fill="white"/>
<path d="M76 16H72V20H76V16Z" fill="white"/>
<path d="M72 16H68V20H72V16Z" fill="white"/>
<path d="M68 16H64V20H68V16Z" fill="white"/>
<path d="M64 16H60V20H64V16Z" fill="white"/>
<path d="M60 16H56V20H60V16Z" fill="white"/>
<path d="M56 16H52V20H56V16Z" fill="white"/>
<path d="M52 16H48V20H52V16Z" fill="white"/>
<path d="M48 16H44V20H48V16Z" fill="white"/>
<path d="M44 16H40V20H44V16Z" fill="white"/>
<path d="M40 16H36V20H40V16Z" fill="white"/>
<path d="M36 16H32V20H36V16Z" fill="white"/>
<path d="M32 16H28V20H32V16Z" fill="white"/>
<path d="M28 16H24V20H28V16Z" fill="white"/>
<path d="M104 112H100V116H104V112Z" fill="#C8CDDC"/>
<path d="M100 112H96V116H100V112Z" fill="#C8CDDC"/>
<path d="M96 112H92V116H96V112Z" fill="#C8CDDC"/>
<path d="M92 112H88V116H92V112Z" fill="#C8CDDC"/>
<path d="M88 112H84V116H88V112Z" fill="#C8CDDC"/>
<path d="M84 112H80V116H84V112Z" fill="#C8CDDC"/>
<path d="M80 112H76V116H80V112Z" fill="#C8CDDC"/>
<path d="M76 112H72V116H76V112Z" fill="#C8CDDC"/>
<path d="M72 112H68V116H72V112Z" fill="#C8CDDC"/>
<path d="M68 112H64V116H68V112Z" fill="#C8CDDC"/>
<path d="M64 112H60V116H64V112Z" fill="#C8CDDC"/>
<path d="M60 112H56V116H60V112Z" fill="#C8CDDC"/>
<path d="M56 112H52V116H56V112Z" fill="#C8CDDC"/>
<path d="M52 112H48V116H52V112Z" fill="#C8CDDC"/>
<path d="M48 112H44V116H48V112Z" fill="#C8CDDC"/>
<path d="M44 112H40V116H44V112Z" fill="#C8CDDC"/>
<path d="M40 112H36V116H40V112Z" fill="#C8CDDC"/>
<path d="M36 112H32V116H36V112Z" fill="#C8CDDC"/>
<path d="M32 112H28V116H32V112Z" fill="#C8CDDC"/>
<path d="M28 112H24V116H28V112Z" fill="#C8CDDC"/>
<path d="M116 100H112V104H116V100Z" fill="#C8CDDC"/>
<path d="M16 100H12V104H16V100Z" fill="#C8CDDC"/>
<path d="M116 96H112V100H116V96Z" fill="#C8CDDC"/>
<path d="M16 96H12V100H16V96Z" fill="#C8CDDC"/>
<path d="M116 92H112V96H116V92Z" fill="#C8CDDC"/>
<path d="M16 92H12V96H16V92Z" fill="#C8CDDC"/>
<path d="M116 88H112V92H116V88Z" fill="#C8CDDC"/>
<path d="M16 88H12V92H16V88Z" fill="#C8CDDC"/>
<path d="M116 84H112V88H116V84Z" fill="#C8CDDC"/>
<path d="M16 84H12V88H16V84Z" fill="#C8CDDC"/>
<path d="M116 80H112V84H116V80Z" fill="#C8CDDC"/>
<path d="M16 80H12V84H16V80Z" fill="#C8CDDC"/>
<path d="M116 76H112V80H116V76Z" fill="#C8CDDC"/>
<path d="M16 76H12V80H16V76Z" fill="#C8CDDC"/>
<path d="M116 72H112V76H116V72Z" fill="#C8CDDC"/>
<path d="M16 72H12V76H16V72Z" fill="#C8CDDC"/>
<path d="M116 68H112V72H116V68Z" fill="#C8CDDC"/>
<path d="M16 68H12V72H16V68Z" fill="#C8CDDC"/>
<path d="M116 64H112V68H116V64Z" fill="#C8CDDC"/>
<path d="M16 64H12V68H16V64Z" fill="#C8CDDC"/>
<path d="M116 60H112V64H116V60Z" fill="#C8CDDC"/>
<path d="M16 60H12V64H16V60Z" fill="#C8CDDC"/>
<path d="M116 56H112V60H116V56Z" fill="#C8CDDC"/>
<path d="M16 56H12V60H16V56Z" fill="#C8CDDC"/>
<path d="M116 52H112V56H116V52Z" fill="#C8CDDC"/>
<path d="M16 52H12V56H16V52Z" fill="#C8CDDC"/>
<path d="M116 48H112V52H116V48Z" fill="#C8CDDC"/>
<path d="M16 48H12V52H16V48Z" fill="#C8CDDC"/>
<path d="M116 44H112V48H116V44Z" fill="#C8CDDC"/>
<path d="M16 44H12V48H16V44Z" fill="#C8CDDC"/>
<path d="M116 40H112V44H116V40Z" fill="#C8CDDC"/>
<path d="M16 40H12V44H16V40Z" fill="#C8CDDC"/>
<path d="M116 36H112V40H116V36Z" fill="#C8CDDC"/>
<path d="M16 36H12V40H16V36Z" fill="#C8CDDC"/>
<path d="M116 32H112V36H116V32Z" fill="#C8CDDC"/>
<path d="M16 32H12V36H16V32Z" fill="#C8CDDC"/>
<path d="M116 28H112V32H116V28Z" fill="#C8CDDC"/>
<path d="M16 28H12V32H16V28Z" fill="#C8CDDC"/>
<path d="M116 24H112V28H116V24Z" fill="#C8CDDC"/>
<path d="M16 24H12V28H16V24Z" fill="#C8CDDC"/>
<path d="M104 12H100V16H104V12Z" fill="#C8CDDC"/>
<path d="M100 12H96V16H100V12Z" fill="#C8CDDC"/>
<path d="M96 12H92V16H96V12Z" fill="#C8CDDC"/>
<path d="M92 12H88V16H92V12Z" fill="#C8CDDC"/>
<path d="M88 12H84V16H88V12Z" fill="#C8CDDC"/>
<path d="M84 12H80V16H84V12Z" fill="#C8CDDC"/>
<path d="M80 12H76V16H80V12Z" fill="#C8CDDC"/>
<path d="M76 12H72V16H76V12Z" fill="#C8CDDC"/>
<path d="M72 12H68V16H72V12Z" fill="#C8CDDC"/>
<path d="M68 12H64V16H68V12Z" fill="#C8CDDC"/>
<path d="M64 12H60V16H64V12Z" fill="#C8CDDC"/>
<path d="M60 12H56V16H60V12Z" fill="#C8CDDC"/>
<path d="M56 12H52V16H56V12Z" fill="#C8CDDC"/>
<path d="M52 12H48V16H52V12Z" fill="#C8CDDC"/>
<path d="M48 12H44V16H48V12Z" fill="#C8CDDC"/>
<path d="M44 12H40V16H44V12Z" fill="#C8CDDC"/>
<path d="M40 12H36V16H40V12Z" fill="#C8CDDC"/>
<path d="M36 12H32V16H36V12Z" fill="#C8CDDC"/>
<path d="M32 12H28V16H32V12Z" fill="#C8CDDC"/>
<path d="M28 12H24V16H28V12Z" fill="#C8CDDC"/>
<path d="M120 116H116V120H120V116Z" fill="#555E7C"/>
<path d="M116 116H112V120H116V116Z" fill="#555E7C"/>
<path d="M108 116H104V120H108V116Z" fill="#555E7C"/>
<path d="M104 116H100V120H104V116Z" fill="#555E7C"/>
<path d="M100 116H96V120H100V116Z" fill="#555E7C"/>
<path d="M96 116H92V120H96V116Z" fill="#555E7C"/>
<path d="M92 116H88V120H92V116Z" fill="#555E7C"/>
<path d="M88 116H84V120H88V116Z" fill="#555E7C"/>
<path d="M84 116H80V120H84V116Z" fill="#555E7C"/>
<path d="M80 116H76V120H80V116Z" fill="#555E7C"/>
<path d="M76 116H72V120H76V116Z" fill="#555E7C"/>
<path d="M72 116H68V120H72V116Z" fill="#555E7C"/>
<path d="M68 116H64V120H68V116Z" fill="#555E7C"/>
<path d="M64 116H60V120H64V116Z" fill="#555E7C"/>
<path d="M60 116H56V120H60V116Z" fill="#555E7C"/>
<path d="M56 116H52V120H56V116Z" fill="#555E7C"/>
<path d="M52 116H48V120H52V116Z" fill="#555E7C"/>
<path d="M48 116H44V120H48V116Z" fill="#555E7C"/>
<path d="M44 116H40V120H44V116Z" fill="#555E7C"/>
<path d="M40 116H36V120H40V116Z" fill="#555E7C"/>
<path d="M36 116H32V120H36V116Z" fill="#555E7C"/>
<path d="M32 116H28V120H32V116Z" fill="#555E7C"/>
<path d="M28 116H24V120H28V116Z" fill="#555E7C"/>
<path d="M24 116H20V120H24V116Z" fill="#555E7C"/>
<path d="M16 116H12V120H16V116Z" fill="#555E7C"/>
<path d="M12 116H8V120H12V116Z" fill="#555E7C"/>
<path d="M120 112H116V116H120V112Z" fill="#555E7C"/>
<path d="M116 112H112V116H116V112Z" fill="#555E7C"/>
<path d="M108 112H104V116H108V112Z" fill="#555E7C"/>
<path d="M24 112H20V116H24V112Z" fill="#555E7C"/>
<path d="M16 112H12V116H16V112Z" fill="#555E7C"/>
<path d="M12 112H8V116H12V112Z" fill="#555E7C"/>
<path d="M112 108H108V112H112V108Z" fill="#555E7C"/>
<path d="M108 108H104V112H108V108Z" fill="#555E7C"/>
<path d="M24 108H20V112H24V108Z" fill="#555E7C"/>
<path d="M20 108H16V112H20V108Z" fill="#555E7C"/>
<path d="M120 104H116V108H120V104Z" fill="#555E7C"/>
<path d="M116 104H112V108H116V104Z" fill="#555E7C"/>
<path d="M112 104H108V108H112V104Z" fill="#555E7C"/>
<path d="M20 104H16V108H20V104Z" fill="#555E7C"/>
<path d="M16 104H12V108H16V104Z" fill="#555E7C"/>
<path d="M12 104H8V108H12V104Z" fill="#555E7C"/>
<path d="M120 100H116V104H120V100Z" fill="#555E7C"/>
<path d="M12 100H8V104H12V100Z" fill="#555E7C"/>
<path d="M120 96H116V100H120V96Z" fill="#555E7C"/>
<path d="M12 96H8V100H12V96Z" fill="#555E7C"/>
<path d="M120 92H116V96H120V92Z" fill="#555E7C"/>
<path d="M12 92H8V96H12V92Z" fill="#555E7C"/>
<path d="M120 88H116V92H120V88Z" fill="#555E7C"/>
<path d="M12 88H8V92H12V88Z" fill="#555E7C"/>
<path d="M120 84H116V88H120V84Z" fill="#555E7C"/>
<path d="M12 84H8V88H12V84Z" fill="#555E7C"/>
<path d="M120 80H116V84H120V80Z" fill="#555E7C"/>
<path d="M12 80H8V84H12V80Z" fill="#555E7C"/>
<path d="M120 76H116V80H120V76Z" fill="#555E7C"/>
<path d="M12 76H8V80H12V76Z" fill="#555E7C"/>
<path d="M120 72H116V76H120V72Z" fill="#555E7C"/>
<path d="M12 72H8V76H12V72Z" fill="#555E7C"/>
<path d="M120 68H116V72H120V68Z" fill="#555E7C"/>
<path d="M12 68H8V72H12V68Z" fill="#555E7C"/>
<path d="M120 64H116V68H120V64Z" fill="#555E7C"/>
<path d="M12 64H8V68H12V64Z" fill="#555E7C"/>
<path d="M120 60H116V64H120V60Z" fill="#555E7C"/>
<path d="M12 60H8V64H12V60Z" fill="#555E7C"/>
<path d="M120 56H116V60H120V56Z" fill="#555E7C"/>
<path d="M12 56H8V60H12V56Z" fill="#555E7C"/>
<path d="M120 52H116V56H120V52Z" fill="#555E7C"/>
<path d="M12 52H8V56H12V52Z" fill="#555E7C"/>
<path d="M120 48H116V52H120V48Z" fill="#555E7C"/>
<path d="M12 48H8V52H12V48Z" fill="#555E7C"/>
<path d="M120 44H116V48H120V44Z" fill="#555E7C"/>
<path d="M12 44H8V48H12V44Z" fill="#555E7C"/>
<path d="M120 40H116V44H120V40Z" fill="#555E7C"/>
<path d="M12 40H8V44H12V40Z" fill="#555E7C"/>
<path d="M120 36H116V40H120V36Z" fill="#555E7C"/>
<path d="M12 36H8V40H12V36Z" fill="#555E7C"/>
<path d="M120 32H116V36H120V32Z" fill="#555E7C"/>
<path d="M12 32H8V36H12V32Z" fill="#555E7C"/>
<path d="M120 28H116V32H120V28Z" fill="#555E7C"/>
<path d="M12 28H8V32H12V28Z" fill="#555E7C"/>
<path d="M120 24H116V28H120V24Z" fill="#555E7C"/>
<path d="M12 24H8V28H12V24Z" fill="#555E7C"/>
<path d="M120 20H116V24H120V20Z" fill="#555E7C"/>
<path d="M116 20H112V24H116V20Z" fill="#555E7C"/>
<path d="M112 20H108V24H112V20Z" fill="#555E7C"/>
<path d="M20 20H16V24H20V20Z" fill="#555E7C"/>
<path d="M16 20H12V24H16V20Z" fill="#555E7C"/>
<path d="M12 20H8V24H12V20Z" fill="#555E7C"/>
<path d="M112 16H108V20H112V16Z" fill="#555E7C"/>
<path d="M108 16H104V20H108V16Z" fill="#555E7C"/>
<path d="M24 16H20V20H24V16Z" fill="#555E7C"/>
<path d="M20 16H16V20H20V16Z" fill="#555E7C"/>
<path d="M120 12H116V16H120V12Z" fill="#555E7C"/>
<path d="M116 12H112V16H116V12Z" fill="#555E7C"/>
<path d="M108 12H104V16H108V12Z" fill="#555E7C"/>
<path d="M24 12H20V16H24V12Z" fill="#555E7C"/>
<path d="M16 12H12V16H16V12Z" fill="#555E7C"/>
<path d="M12 12H8V16H12V12Z" fill="#555E7C"/>
<path d="M120 8H116V12H120V8Z" fill="#555E7C"/>
<path d="M116 8H112V12H116V8Z" fill="#555E7C"/>
<path d="M108 8H104V12H108V8Z" fill="#555E7C"/>
<path d="M104 8H100V12H104V8Z" fill="#555E7C"/>
<path d="M100 8H96V12H100V8Z" fill="#555E7C"/>
<path d="M96 8H92V12H96V8Z" fill="#555E7C"/>
<path d="M92 8H88V12H92V8Z" fill="#555E7C"/>
<path d="M88 8H84V12H88V8Z" fill="#555E7C"/>
<path d="M84 8H80V12H84V8Z" fill="#555E7C"/>
<path d="M80 8H76V12H80V8Z" fill="#555E7C"/>
<path d="M76 8H72V12H76V8Z" fill="#555E7C"/>
<path d="M72 8H68V12H72V8Z" fill="#555E7C"/>
<path d="M68 8H64V12H68V8Z" fill="#555E7C"/>
<path d="M64 8H60V12H64V8Z" fill="#555E7C"/>
<path d="M60 8H56V12H60V8Z" fill="#555E7C"/>
<path d="M56 8H52V12H56V8Z" fill="#555E7C"/>
<path d="M52 8H48V12H52V8Z" fill="#555E7C"/>
<path d="M48 8H44V12H48V8Z" fill="#555E7C"/>
<path d="M44 8H40V12H44V8Z" fill="#555E7C"/>
<path d="M40 8H36V12H40V8Z" fill="#555E7C"/>
<path d="M36 8H32V12H36V8Z" fill="#555E7C"/>
<path d="M32 8H28V12H32V8Z" fill="#555E7C"/>
<path d="M28 8H24V12H28V8Z" fill="#555E7C"/>
<path d="M24 8H20V12H24V8Z" fill="#555E7C"/>
<path d="M16 8H12V12H16V8Z" fill="#555E7C"/>
<path d="M12 8H8V12H12V8Z" fill="#555E7C"/>
<path d="M128 124H124V128H128V124Z" fill="#C8CDDC"/>
<path d="M124 124H120V128H124V124Z" fill="#C8CDDC"/>
<path d="M120 124H116V128H120V124Z" fill="#C8CDDC"/>
<path d="M116 124H112V128H116V124Z" fill="#C8CDDC"/>
<path d="M112 124H108V128H112V124Z" fill="#C8CDDC"/>
<path d="M108 124H104V128H108V124Z" fill="#C8CDDC"/>
<path d="M104 124H100V128H104V124Z" fill="#C8CDDC"/>
<path d="M100 124H96V128H100V124Z" fill="#C8CDDC"/>
<path d="M96 124H92V128H96V124Z" fill="#C8CDDC"/>
<path d="M92 124H88V128H92V124Z" fill="#C8CDDC"/>
<path d="M88 124H84V128H88V124Z" fill="#C8CDDC"/>
<path d="M84 124H80V128H84V124Z" fill="#C8CDDC"/>
<path d="M80 124H76V128H80V124Z" fill="#C8CDDC"/>
<path d="M76 124H72V128H76V124Z" fill="#C8CDDC"/>
<path d="M72 124H68V128H72V124Z" fill="#C8CDDC"/>
<path d="M68 124H64V128H68V124Z" fill="#C8CDDC"/>
<path d="M64 124H60V128H64V124Z" fill="#C8CDDC"/>
<path d="M60 124H56V128H60V124Z" fill="#C8CDDC"/>
<path d="M56 124H52V128H56V124Z" fill="#C8CDDC"/>
<path d="M52 124H48V128H52V124Z" fill="#C8CDDC"/>
<path d="M48 124H44V128H48V124Z" fill="#C8CDDC"/>
<path d="M44 124H40V128H44V124Z" fill="#C8CDDC"/>
<path d="M40 124H36V128H40V124Z" fill="#C8CDDC"/>
<path d="M36 124H32V128H36V124Z" fill="#C8CDDC"/>
<path d="M32 124H28V128H32V124Z" fill="#C8CDDC"/>
<path d="M28 124H24V128H28V124Z" fill="#C8CDDC"/>
<path d="M24 124H20V128H24V124Z" fill="#C8CDDC"/>
<path d="M20 124H16V128H20V124Z" fill="#C8CDDC"/>
<path d="M16 124H12V128H16V124Z" fill="#C8CDDC"/>
<path d="M12 124H8V128H12V124Z" fill="#C8CDDC"/>
<path d="M8 124H4V128H8V124Z" fill="#C8CDDC"/>
<path d="M4 124H0V128H4V124Z" fill="#C8CDDC"/>
<path d="M128 120H124V124H128V120Z" fill="#C8CDDC"/>
<path d="M124 120H120V124H124V120Z" fill="#C8CDDC"/>
<path d="M120 120H116V124H120V120Z" fill="#C8CDDC"/>
<path d="M116 120H112V124H116V120Z" fill="#C8CDDC"/>
<path d="M112 120H108V124H112V120Z" fill="#C8CDDC"/>
<path d="M108 120H104V124H108V120Z" fill="#C8CDDC"/>
<path d="M104 120H100V124H104V120Z" fill="#C8CDDC"/>
<path d="M100 120H96V124H100V120Z" fill="#C8CDDC"/>
<path d="M96 120H92V124H96V120Z" fill="#C8CDDC"/>
<path d="M92 120H88V124H92V120Z" fill="#C8CDDC"/>
<path d="M88 120H84V124H88V120Z" fill="#C8CDDC"/>
<path d="M84 120H80V124H84V120Z" fill="#C8CDDC"/>
<path d="M80 120H76V124H80V120Z" fill="#C8CDDC"/>
<path d="M76 120H72V124H76V120Z" fill="#C8CDDC"/>
<path d="M72 120H68V124H72V120Z" fill="#C8CDDC"/>
<path d="M68 120H64V124H68V120Z" fill="#C8CDDC"/>
<path d="M64 120H60V124H64V120Z" fill="#C8CDDC"/>
<path d="M60 120H56V124H60V120Z" fill="#C8CDDC"/>
<path d="M56 120H52V124H56V120Z" fill="#C8CDDC"/>
<path d="M52 120H48V124H52V120Z" fill="#C8CDDC"/>
<path d="M48 120H44V124H48V120Z" fill="#C8CDDC"/>
<path d="M44 120H40V124H44V120Z" fill="#C8CDDC"/>
<path d="M40 120H36V124H40V120Z" fill="#C8CDDC"/>
<path d="M36 120H32V124H36V120Z" fill="#C8CDDC"/>
<path d="M32 120H28V124H32V120Z" fill="#C8CDDC"/>
<path d="M28 120H24V124H28V120Z" fill="#C8CDDC"/>
<path d="M24 120H20V124H24V120Z" fill="#C8CDDC"/>
<path d="M20 120H16V124H20V120Z" fill="#C8CDDC"/>
<path d="M16 120H12V124H16V120Z" fill="#C8CDDC"/>
<path d="M12 120H8V124H12V120Z" fill="#C8CDDC"/>
<path d="M8 120H4V124H8V120Z" fill="#C8CDDC"/>
<path d="M4 120H0V124H4V120Z" fill="#C8CDDC"/>
<path d="M128 116H124V120H128V116Z" fill="#C8CDDC"/>
<path d="M124 116H120V120H124V116Z" fill="#C8CDDC"/>
<path d="M112 116H108V120H112V116Z" fill="#C8CDDC"/>
<path d="M20 116H16V120H20V116Z" fill="#C8CDDC"/>
<path d="M8 116H4V120H8V116Z" fill="#C8CDDC"/>
<path d="M4 116H0V120H4V116Z" fill="#C8CDDC"/>
<path d="M128 112H124V116H128V112Z" fill="#C8CDDC"/>
<path d="M124 112H120V116H124V112Z" fill="#C8CDDC"/>
<path d="M112 112H108V116H112V112Z" fill="#C8CDDC"/>
<path d="M20 112H16V116H20V112Z" fill="#C8CDDC"/>
<path d="M8 112H4V116H8V112Z" fill="#C8CDDC"/>
<path d="M4 112H0V116H4V112Z" fill="#C8CDDC"/>
<path d="M128 108H124V112H128V108Z" fill="#C8CDDC"/>
<path d="M124 108H120V112H124V108Z" fill="#C8CDDC"/>
<path d="M120 108H116V112H120V108Z" fill="#C8CDDC"/>
<path d="M116 108H112V112H116V108Z" fill="#C8CDDC"/>
<path d="M16 108H12V112H16V108Z" fill="#C8CDDC"/>
<path d="M12 108H8V112H12V108Z" fill="#C8CDDC"/>
<path d="M8 108H4V112H8V108Z" fill="#C8CDDC"/>
<path d="M4 108H0V112H4V108Z" fill="#C8CDDC"/>
<path d="M128 104H124V108H128V104Z" fill="#C8CDDC"/>
<path d="M124 104H120V108H124V104Z" fill="#C8CDDC"/>
<path d="M8 104H4V108H8V104Z" fill="#C8CDDC"/>
<path d="M4 104H0V108H4V104Z" fill="#C8CDDC"/>
<path d="M128 100H124V104H128V100Z" fill="#C8CDDC"/>
<path d="M124 100H120V104H124V100Z" fill="#C8CDDC"/>
<path d="M8 100H4V104H8V100Z" fill="#C8CDDC"/>
<path d="M4 100H0V104H4V100Z" fill="#C8CDDC"/>
<path d="M128 96H124V100H128V96Z" fill="#C8CDDC"/>
<path d="M124 96H120V100H124V96Z" fill="#C8CDDC"/>
<path d="M8 96H4V100H8V96Z" fill="#C8CDDC"/>
<path d="M4 96H0V100H4V96Z" fill="#C8CDDC"/>
<path d="M128 92H124V96H128V92Z" fill="#C8CDDC"/>
<path d="M124 92H120V96H124V92Z" fill="#C8CDDC"/>
<path d="M8 92H4V96H8V92Z" fill="#C8CDDC"/>
<path d="M4 92H0V96H4V92Z" fill="#C8CDDC"/>
<path d="M128 88H124V92H128V88Z" fill="#C8CDDC"/>
<path d="M124 88H120V92H124V88Z" fill="#C8CDDC"/>
<path d="M8 88H4V92H8V88Z" fill="#C8CDDC"/>
<path d="M4 88H0V92H4V88Z" fill="#C8CDDC"/>
<path d="M128 84H124V88H128V84Z" fill="#C8CDDC"/>
<path d="M124 84H120V88H124V84Z" fill="#C8CDDC"/>
<path d="M8 84H4V88H8V84Z" fill="#C8CDDC"/>
<path d="M4 84H0V88H4V84Z" fill="#C8CDDC"/>
<path d="M128 80H124V84H128V80Z" fill="#C8CDDC"/>
<path d="M124 80H120V84H124V80Z" fill="#C8CDDC"/>
<path d="M8 80H4V84H8V80Z" fill="#C8CDDC"/>
<path d="M4 80H0V84H4V80Z" fill="#C8CDDC"/>
<path d="M128 76H124V80H128V76Z" fill="#C8CDDC"/>
<path d="M124 76H120V80H124V76Z" fill="#C8CDDC"/>
<path d="M8 76H4V80H8V76Z" fill="#C8CDDC"/>
<path d="M4 76H0V80H4V76Z" fill="#C8CDDC"/>
<path d="M128 72H124V76H128V72Z" fill="#C8CDDC"/>
<path d="M124 72H120V76H124V72Z" fill="#C8CDDC"/>
<path d="M8 72H4V76H8V72Z" fill="#C8CDDC"/>
<path d="M4 72H0V76H4V72Z" fill="#C8CDDC"/>
<path d="M128 68H124V72H128V68Z" fill="#C8CDDC"/>
<path d="M124 68H120V72H124V68Z" fill="#C8CDDC"/>
<path d="M8 68H4V72H8V68Z" fill="#C8CDDC"/>
<path d="M4 68H0V72H4V68Z" fill="#C8CDDC"/>
<path d="M128 64H124V68H128V64Z" fill="#C8CDDC"/>
<path d="M124 64H120V68H124V64Z" fill="#C8CDDC"/>
<path d="M8 64H4V68H8V64Z" fill="#C8CDDC"/>
<path d="M4 64H0V68H4V64Z" fill="#C8CDDC"/>
<path d="M128 60H124V64H128V60Z" fill="#C8CDDC"/>
<path d="M124 60H120V64H124V60Z" fill="#C8CDDC"/>
<path d="M8 60H4V64H8V60Z" fill="#C8CDDC"/>
<path d="M4 60H0V64H4V60Z" fill="#C8CDDC"/>
<path d="M128 56H124V60H128V56Z" fill="#C8CDDC"/>
<path d="M124 56H120V60H124V56Z" fill="#C8CDDC"/>
<path d="M8 56H4V60H8V56Z" fill="#C8CDDC"/>
<path d="M4 56H0V60H4V56Z" fill="#C8CDDC"/>
<path d="M128 52H124V56H128V52Z" fill="#C8CDDC"/>
<path d="M124 52H120V56H124V52Z" fill="#C8CDDC"/>
<path d="M8 52H4V56H8V52Z" fill="#C8CDDC"/>
<path d="M4 52H0V56H4V52Z" fill="#C8CDDC"/>
<path d="M128 48H124V52H128V48Z" fill="#C8CDDC"/>
<path d="M124 48H120V52H124V48Z" fill="#C8CDDC"/>
<path d="M8 48H4V52H8V48Z" fill="#C8CDDC"/>
<path d="M4 48H0V52H4V48Z" fill="#C8CDDC"/>
<path d="M128 44H124V48H128V44Z" fill="#C8CDDC"/>
<path d="M124 44H120V48H124V44Z" fill="#C8CDDC"/>
<path d="M8 44H4V48H8V44Z" fill="#C8CDDC"/>
<path d="M4 44H0V48H4V44Z" fill="#C8CDDC"/>
<path d="M128 40H124V44H128V40Z" fill="#C8CDDC"/>
<path d="M124 40H120V44H124V40Z" fill="#C8CDDC"/>
<path d="M8 40H4V44H8V40Z" fill="#C8CDDC"/>
<path d="M4 40H0V44H4V40Z" fill="#C8CDDC"/>
<path d="M128 36H124V40H128V36Z" fill="#C8CDDC"/>
<path d="M124 36H120V40H124V36Z" fill="#C8CDDC"/>
<path d="M8 36H4V40H8V36Z" fill="#C8CDDC"/>
<path d="M4 36H0V40H4V36Z" fill="#C8CDDC"/>
<path d="M128 32H124V36H128V32Z" fill="#C8CDDC"/>
<path d="M124 32H120V36H124V32Z" fill="#C8CDDC"/>
<path d="M8 32H4V36H8V32Z" fill="#C8CDDC"/>
<path d="M4 32H0V36H4V32Z" fill="#C8CDDC"/>
<path d="M128 28H124V32H128V28Z" fill="#C8CDDC"/>
<path d="M124 28H120V32H124V28Z" fill="#C8CDDC"/>
<path d="M8 28H4V32H8V28Z" fill="#C8CDDC"/>
<path d="M4 28H0V32H4V28Z" fill="#C8CDDC"/>
<path d="M128 24H124V28H128V24Z" fill="#C8CDDC"/>
<path d="M124 24H120V28H124V24Z" fill="#C8CDDC"/>
<path d="M8 24H4V28H8V24Z" fill="#C8CDDC"/>
<path d="M4 24H0V28H4V24Z" fill="#C8CDDC"/>
<path d="M128 20H124V24H128V20Z" fill="#C8CDDC"/>
<path d="M124 20H120V24H124V20Z" fill="#C8CDDC"/>
<path d="M8 20H4V24H8V20Z" fill="#C8CDDC"/>
<path d="M4 20H0V24H4V20Z" fill="#C8CDDC"/>
<path d="M128 16H124V20H128V16Z" fill="#C8CDDC"/>
<path d="M124 16H120V20H124V16Z" fill="#C8CDDC"/>
<path d="M120 16H116V20H120V16Z" fill="#C8CDDC"/>
<path d="M116 16H112V20H116V16Z" fill="#C8CDDC"/>
<path d="M16 16H12V20H16V16Z" fill="#C8CDDC"/>
<path d="M12 16H8V20H12V16Z" fill="#C8CDDC"/>
<path d="M8 16H4V20H8V16Z" fill="#C8CDDC"/>
<path d="M4 16H0V20H4V16Z" fill="#C8CDDC"/>
<path d="M128 12H124V16H128V12Z" fill="#C8CDDC"/>
<path d="M124 12H120V16H124V12Z" fill="#C8CDDC"/>
<path d="M112 12H108V16H112V12Z" fill="#C8CDDC"/>
<path d="M20 12H16V16H20V12Z" fill="#C8CDDC"/>
<path d="M8 12H4V16H8V12Z" fill="#C8CDDC"/>
<path d="M4 12H0V16H4V12Z" fill="#C8CDDC"/>
<path d="M128 8H124V12H128V8Z" fill="#C8CDDC"/>
<path d="M124 8H120V12H124V8Z" fill="#C8CDDC"/>
<path d="M112 8H108V12H112V8Z" fill="#C8CDDC"/>
<path d="M20 8H16V12H20V8Z" fill="#C8CDDC"/>
<path d="M8 8H4V12H8V8Z" fill="#C8CDDC"/>
<path d="M4 8H0V12H4V8Z" fill="#C8CDDC"/>
<path d="M128 4H124V8H128V4Z" fill="#C8CDDC"/>
<path d="M124 4H120V8H124V4Z" fill="#C8CDDC"/>
<path d="M120 4H116V8H120V4Z" fill="#C8CDDC"/>
<path d="M116 4H112V8H116V4Z" fill="#C8CDDC"/>
<path d="M112 4H108V8H112V4Z" fill="#C8CDDC"/>
<path d="M108 4H104V8H108V4Z" fill="#C8CDDC"/>
<path d="M104 4H100V8H104V4Z" fill="#C8CDDC"/>
<path d="M100 4H96V8H100V4Z" fill="#C8CDDC"/>
<path d="M96 4H92V8H96V4Z" fill="#C8CDDC"/>
<path d="M92 4H88V8H92V4Z" fill="#C8CDDC"/>
<path d="M88 4H84V8H88V4Z" fill="#C8CDDC"/>
<path d="M84 4H80V8H84V4Z" fill="#C8CDDC"/>
<path d="M80 4H76V8H80V4Z" fill="#C8CDDC"/>
<path d="M76 4H72V8H76V4Z" fill="#C8CDDC"/>
<path d="M72 4H68V8H72V4Z" fill="#C8CDDC"/>
<path d="M68 4H64V8H68V4Z" fill="#C8CDDC"/>
<path d="M64 4H60V8H64V4Z" fill="#C8CDDC"/>
<path d="M60 4H56V8H60V4Z" fill="#C8CDDC"/>
<path d="M56 4H52V8H56V4Z" fill="#C8CDDC"/>
<path d="M52 4H48V8H52V4Z" fill="#C8CDDC"/>
<path d="M48 4H44V8H48V4Z" fill="#C8CDDC"/>
<path d="M44 4H40V8H44V4Z" fill="#C8CDDC"/>
<path d="M40 4H36V8H40V4Z" fill="#C8CDDC"/>
<path d="M36 4H32V8H36V4Z" fill="#C8CDDC"/>
<path d="M32 4H28V8H32V4Z" fill="#C8CDDC"/>
<path d="M28 4H24V8H28V4Z" fill="#C8CDDC"/>
<path d="M24 4H20V8H24V4Z" fill="#C8CDDC"/>
<path d="M20 4H16V8H20V4Z" fill="#C8CDDC"/>
<path d="M16 4H12V8H16V4Z" fill="#C8CDDC"/>
<path d="M12 4H8V8H12V4Z" fill="#C8CDDC"/>
<path d="M8 4H4V8H8V4Z" fill="#C8CDDC"/>
<path d="M4 4H0V8H4V4Z" fill="#C8CDDC"/>
<path d="M128 0H124V4H128V0Z" fill="#C8CDDC"/>
<path d="M124 0H120V4H124V0Z" fill="#C8CDDC"/>
<path d="M120 0H116V4H120V0Z" fill="#C8CDDC"/>
<path d="M116 0H112V4H116V0Z" fill="#C8CDDC"/>
<path d="M112 0H108V4H112V0Z" fill="#C8CDDC"/>
<path d="M108 0H104V4H108V0Z" fill="#C8CDDC"/>
<path d="M104 0H100V4H104V0Z" fill="#C8CDDC"/>
<path d="M100 0H96V4H100V0Z" fill="#C8CDDC"/>
<path d="M96 0H92V4H96V0Z" fill="#C8CDDC"/>
<path d="M92 0H88V4H92V0Z" fill="#C8CDDC"/>
<path d="M88 0H84V4H88V0Z" fill="#C8CDDC"/>
<path d="M84 0H80V4H84V0Z" fill="#C8CDDC"/>
<path d="M80 0H76V4H80V0Z" fill="#C8CDDC"/>
<path d="M76 0H72V4H76V0Z" fill="#C8CDDC"/>
<path d="M72 0H68V4H72V0Z" fill="#C8CDDC"/>
<path d="M68 0H64V4H68V0Z" fill="#C8CDDC"/>
<path d="M64 0H60V4H64V0Z" fill="#C8CDDC"/>
<path d="M60 0H56V4H60V0Z" fill="#C8CDDC"/>
<path d="M56 0H52V4H56V0Z" fill="#C8CDDC"/>
<path d="M52 0H48V4H52V0Z" fill="#C8CDDC"/>
<path d="M48 0H44V4H48V0Z" fill="#C8CDDC"/>
<path d="M44 0H40V4H44V0Z" fill="#C8CDDC"/>
<path d="M40 0H36V4H40V0Z" fill="#C8CDDC"/>
<path d="M36 0H32V4H36V0Z" fill="#C8CDDC"/>
<path d="M32 0H28V4H32V0Z" fill="#C8CDDC"/>
<path d="M28 0H24V4H28V0Z" fill="#C8CDDC"/>
<path d="M24 0H20V4H24V0Z" fill="#C8CDDC"/>
<path d="M20 0H16V4H20V0Z" fill="#C8CDDC"/>
<path d="M16 0H12V4H16V0Z" fill="#C8CDDC"/>
<path d="M12 0H8V4H12V0Z" fill="#C8CDDC"/>
<path d="M8 0H4V4H8V0Z" fill="#C8CDDC"/>
<path d="M4 0H0V4H4V0Z" fill="#C8CDDC"/>
</g>
<defs>
<clipPath id="clip0_216_33019">
<rect width="128" height="128" fill="white"/>
</clipPath>
</defs>
</svg>
