<!-- Generator: Adobe Illustrator 24.0.0, SVG Export Plug-In . SVG Version: 6.00 Build 0)  -->
<svg xmlns="http://www.w3.org/2000/svg" xmlns:xlink="http://www.w3.org/1999/xlink" width="250px" height="250px" viewBox="0 0 250 250" version="1.1">
<g id="surface1">
<path style="fill-rule:evenodd;fill:rgb(0%,0%,0%);fill-opacity:1;stroke-width:1.2373;stroke-linecap:butt;stroke-linejoin:miter;stroke:rgb(0%,0%,0%);stroke-opacity:1;stroke-miterlimit:11.3386;" d="M 274.100426 360.900815 C 274.100426 518.081672 146.678408 645.50369 -10.502448 645.50369 C -167.683305 645.50369 -295.09641 518.081672 -295.09641 360.900815 C -295.09641 203.719958 -167.683305 76.29794 -10.502448 76.29794 C 146.678408 76.29794 274.100426 203.719958 274.100426 360.900815 Z M 274.100426 360.900815 " transform="matrix(0.438289,0,0,0.438289,129.583575,-33.186634)"/>
<path style=" stroke:none;fill-rule:nonzero;fill:rgb(100%,100%,100%);fill-opacity:1;" d="M 56.171875 55.609375 C 50.910156 61.132812 46.570312 65.777344 46.527344 65.867188 C 46.484375 66 51.21875 70.644531 57.046875 76.167969 C 62.875 81.734375 67.960938 86.597656 68.3125 86.90625 L 68.96875 87.519531 L 67.785156 89.492188 C 57.398438 106.671875 55.25 127.359375 61.78125 146.378906 C 63.007812 149.972656 65.109375 154.578125 66.910156 157.601562 C 67.785156 159.089844 68.179688 160.054688 68.089844 160.230469 C 68.003906 160.40625 62.699219 166.015625 56.300781 172.722656 C 49.902344 179.382812 44.6875 184.949219 44.597656 185.039062 C 44.554688 185.167969 62.480469 202.480469 64.191406 203.882812 L 64.847656 204.453125 L 74.972656 193.890625 C 80.539062 188.0625 85.753906 182.582031 86.542969 181.75 L 88.035156 180.261719 L 89.4375 181.136719 C 96.582031 185.695312 104.953125 188.851562 114.199219 190.515625 C 118.84375 191.347656 127.699219 191.566406 132.652344 190.953125 C 142.207031 189.859375 151.671875 186.660156 159.429688 181.96875 L 161.445312 180.742188 L 163.59375 182.847656 C 168.285156 187.402344 185.816406 204.058594 185.992188 204.148438 C 186.167969 204.234375 205.40625 184.117188 205.363281 183.855469 C 205.320312 183.722656 192.128906 171.054688 184.0625 163.472656 L 181.390625 160.929688 L 182.617188 158.914062 C 192.917969 141.777344 195.0625 121.003906 188.402344 101.851562 C 187.4375 99.046875 184.5 92.734375 182.792969 89.839844 L 181.960938 88.394531 L 193.222656 76.605469 C 199.402344 70.160156 204.441406 64.769531 204.398438 64.640625 C 204.222656 64.199219 184.5 45.574219 184.238281 45.574219 C 184.0625 45.574219 179.109375 50.613281 173.191406 56.839844 C 167.277344 63.019531 162.367188 68.101562 162.234375 68.144531 C 162.148438 68.191406 161.578125 67.925781 161.050781 67.53125 C 159.5625 66.523438 155.792969 64.464844 153.691406 63.5 C 147.289062 60.5625 141.328125 58.765625 134.40625 57.757812 C 130.8125 57.230469 120.027344 57.144531 116.699219 57.625 C 108.722656 58.765625 102.191406 60.738281 95.527344 64.070312 C 93.601562 64.988281 91.363281 66.21875 90.488281 66.742188 L 88.910156 67.707031 L 87.113281 65.953125 C 86.148438 64.988281 81.765625 60.871094 77.425781 56.707031 C 73.089844 52.585938 68.660156 48.378906 67.609375 47.328125 L 65.679688 45.441406 Z M 129.757812 84.1875 C 136.726562 85.019531 142.953125 87.386719 148.691406 91.417969 C 151.628906 93.480469 156.011719 97.863281 158.074219 100.796875 C 169.773438 117.367188 167.539062 139.894531 152.8125 153.699219 C 140.234375 165.445312 122.046875 168.074219 106.75 160.273438 C 95.703125 154.621094 87.902344 144.277344 85.402344 131.871094 C 84.613281 127.929688 84.613281 120.566406 85.402344 116.664062 C 86.148438 112.808594 87.15625 110.046875 89.042969 106.1875 C 96.582031 91.023438 112.929688 82.171875 129.757812 84.1875 Z M 129.757812 84.1875 "/>
</g>
</svg>
