<svg height="250" viewBox="0 0 250 250" width="250" xmlns="http://www.w3.org/2000/svg"><path d="m274.100426 360.900815c0 157.180857-127.422018 284.602875-284.602874 284.602875-157.180857 0-284.593962-127.422018-284.593962-284.602875s127.413105-284.602875 284.593962-284.602875c157.180856 0 284.602874 127.422018 284.602874 284.602875zm0 0" fill-rule="evenodd" stroke="#000" stroke-miterlimit="11.3386" stroke-width="1.2373" transform="matrix(.438289 0 0 .438289 129.583575 -33.186634)"/><path d="m56.171875 55.609375c-5.261719 5.523437-9.601563 10.167969-9.644531 10.257813-.042969.132812 4.691406 4.777343 10.519531 10.300781 5.828125 5.566406 10.914063 10.429687 11.265625 10.738281l.65625.613281-1.183594 1.972657c-10.386718 17.179687-12.535156 37.867187-6.003906 56.886718 1.226562 3.59375 3.328125 8.199219 5.128906 11.222656.875 1.488282 1.269532 2.453126 1.179688 2.628907-.085938.175781-5.390625 5.785156-11.789063 12.492187-6.398437 6.660156-11.613281 12.226563-11.703125 12.316406-.042968.128907 17.882813 17.441407 19.59375 18.84375l.65625.570313 10.125-10.5625c5.566406-5.828125 10.78125-11.308594 11.570313-12.140625l1.492187-1.488281 1.402344.875c7.144531 4.558593 15.515625 7.714843 24.761719 9.378906 4.644531.832031 13.5 1.050781 18.453125.4375 9.554687-1.09375 19.019531-4.292969 26.777344-8.984375l2.015624-1.226562 2.148438 2.105468c4.691406 4.554688 22.222656 21.210938 22.398438 21.300782.175781.085937 19.414062-20.03125 19.371093-20.292969-.042969-.132813-13.234375-12.800781-21.300781-20.382813l-2.671875-2.542968 1.226563-2.015626c10.300781-17.136718 12.445312-37.910156 5.785156-57.0625-.964844-2.804687-3.902344-9.117187-5.609375-12.011718l-.832031-1.445313 11.261718-11.789062c6.179688-6.445313 11.21875-11.835938 11.175782-11.964844-.175782-.441406-19.898438-19.066406-20.160157-19.066406-.175781 0-5.128906 5.039062-11.046875 11.265625-5.914062 6.179687-10.824218 11.261718-10.957031 11.304687-.085937.046875-.65625-.21875-1.183594-.613281-1.488281-1.007812-5.257812-3.066406-7.359375-4.03125-6.402344-2.9375-12.363281-4.734375-19.285156-5.742188-3.59375-.527343-14.378906-.613281-17.707031-.132812-7.976563 1.140625-14.507813 3.113281-21.171875 6.445312-1.925782.917969-4.164063 2.148438-5.039063 2.671876l-1.578125.964843-1.796875-1.753906c-.964843-.964844-5.347656-5.082031-9.6875-9.246094-4.335937-4.121093-8.765625-8.328125-9.816406-9.378906l-1.929687-1.886719zm73.585937 28.578125c6.96875.832031 13.195313 3.199219 18.933594 7.230469 2.9375 2.0625 7.320313 6.445312 9.382813 9.378906 11.699219 16.570313 9.464843 39.097656-5.261719 52.902344-12.578125 11.746093-30.765625 14.375-46.0625 6.574219-11.046875-5.652344-18.847656-15.996094-21.347656-28.402344-.789063-3.941406-.789063-11.304688 0-15.207032.746094-3.855468 1.753906-6.617187 3.640625-10.476562 7.539062-15.164062 23.886719-24.015625 40.714843-22zm0 0" fill="#fff"/></svg>