<svg height="250" viewBox="0 0 250 250" width="250" xmlns="http://www.w3.org/2000/svg"><path d="m36.609375 36.613281c-48.8125 48.8125-48.8125 127.960938 0 176.777344 29.878906 29.875 71.113281 41.464844 109.808594 34.769531l-54.613281-54.609375 43.113281-43.113281-35.355469-35.355469-40.164062 40.167969c-12.300782-26.6875-7.453126-59.328125 14.53125-81.316406 13.257812-13.296875 31.183593-20.886719 49.960937-21.15625l-44.285156-44.277344c-16.128907 6.285156-30.769531 15.855469-42.996094 28.113281zm0 0" fill="#e42c84"/><path d="m103.917969 1.78125 54.472656 54.472656-43.308594 43.3125 35.355469 35.355469 40.164062-40.167969c12.300782 26.683594 7.457032 59.324219-14.53125 81.3125-13.164062 13.203125-30.9375 20.777344-49.574218 21.136719l44.183594 44.1875c16.015624-6.285156 30.558593-15.820313 42.710937-28 48.8125-48.816406 48.8125-127.964844 0-176.777344-29.78125-29.789062-70.875-41.402343-109.472656-34.832031zm0 0" fill="#009eff"/></svg>