<svg height="250" viewBox="0 0 250 250" width="250" xmlns="http://www.w3.org/2000/svg"><path d="m130.792969 84.941406c1.582031.058594 3.464843.113282 4.34375-.480468 4.753906-1.824219 12.386719-16.101563 20.75-10.136719 8.953125 6.386719-5.761719 16.84375-7.238281 20.753906 8.332031 2.929687 12.25 14.964844 14.480468 24.128906.894532 3.6875-.160156 8.65625.964844 12.066407 14.78125-3.992188 47.222656-12.875 54.054688 5.308593 1.394531 3.71875 1.902343 9.542969.480468 13.996094-1 3.171875-2.292968 6.242187-3.859375 9.171875-8.375 15.164062-27.574219 27.375-44.402343 34.265625l-13.03125 3.859375-6.757813.964844-4.34375 4.828125c-4.914063 3.71875-10.25 8.085937-14.476563 12.546875-5.582031-1.949219-10.523437-4.117188-14.960937-7.238282-3.109375-2.183593-6.421875-6.394531-10.136719-7.722656l-8.203125-.480468-13.515625-2.414063c-8.253906-2.761719-17.546875-6.339844-25.097656-9.652344-3.304688-1.453125-6.722656-1.964843-9.652344-3.863281-6.519531-4.21875-12.773437-8.996094-18.820312-13.511719-4.273438-3.191406-13.25-11.257812-14.960938-16.410156-2.003906-6.023437 4.875-10.695313 7.238282-13.03125 13.050781-12.871094 34.488281-10.519531 57.914062-10.132813-.230469-2.617187-.714844-5.203124-1.445312-7.722656-1.746094-6.386718-6.65625-28.296875 1.445312-31.371094.863281-.796874 1.214844-.84375 2.898438-.964843l3.375 2.894531c1.726562 2.484375 1.984374 5.894531 4.828124 7.238281 1.082032.675781 1.582032.265625 2.894532 0v-.964843c2.214844-3.792969.015625-12.535157 0-16.890626-.039063-13.105468.753906-24.398437 7.242187-30.886718 3.171875-3.175782 10.460938-6.21875 13.996094-.964844 2.839844 3.621094-1.300781 15.671875-1.449219 21.234375.617188.253906 1.265625.417969 1.929688.480469 7.84375-14.089844 9.492187-34.375 18.339844-47.296875 4.589843-6.699219 11.792968-11.472657 22.683593-7.238281 2.414063.980468 4.6875 2.28125 6.757813 3.863281 6.324218 4.824219 3.460937 16.664062 0 22.199219-8.75 13.980468-31.410156 20.523437-34.265625 39.574218zm-16.894531 38.609375c-.132813-11.386719 3.890624-20.789062 9.171874-27.027343 1.613282-1.902344 4.585938-2.457032 5.789063-4.824219-1.644531-1.414063-1.019531-2.960938-3.859375-3.378907-.886719.597657-2.75.527344-4.34375.484376-.253906-.617188-.417969-1.269532-.484375-1.933594l.484375-.480469c1.972656.046875 3.941406-.28125 5.792969-.964844l1.445312-6.757812c2.824219-6.847657 8.882813-14.601563 14.480469-18.824219 10.195312-7.6875 23.726562-14.839844 19.789062-32.335938-1.851562-1.207031-3.246093-3.421874-5.3125-4.339843-20.128906-8.972657-26.613281 24.109375-30.886718 37.160156-1.527344 4.660156-2.714844 15.359375-6.757813 16.890625-1.414062 1.335938-3.785156.945312-5.789062.484375-3.71875-6.316406-.253907-15.3125-.484375-23.167969-1.40625-.886718-1.402344-1.320312-3.859375-1.445312-6.527344 6.46875-6.765625 5.949218-9.171875 16.890625-2.53125 11.519531 4.207031 30.46875-3.859375 36.195312-.8125.652344-1.515625.792969-2.894531.96875-1.511719-1.351562-3.636719-2.222656-4.828126-3.863281-1.859374-2.554688-1.78125-5.796875-5.792968-6.273438-4.230469 8.527344-.683594 21.875 1.933594 29.441407 1.195312 3.457031 2.636718 9.808593 7.71875 7.238281 5.957031-5.800781 9.597656-11.601562 21.71875-10.136719zm35.234374-45.847656c-2.601562 2.660156-7.046874 4.710937-8.6875 8.203125 1.976563.417969 2.96875.761719 3.378907 2.898438h-.96875c-2.425781-2.367188-9.574219-.34375-12.0625 1.445312.382812.492188.167969.132812.480469.964844h1.449218c3.308594-2.207032 9.773438.511718 12.546875.964844 2.917969-4.203126 9.914063-8.128907 6.273438-14.476563zm-14.964843 15.925781c-1.839844 1.472656-4.40625 1.964844-6.273438 3.378906-5.488281 4.15625-10.464843 17.84375-10.617187 27.507813l5.308594 2.898437c-.066407-4.597656 1.957031-8.070312 5.308593-9.171874 6.019531-4.859376 11.273438 2.816406 13.515625 5.308593.058594 2.769531-.265625 5.527344-.964844 8.207031-3.871093 2.652344-5.472656 4.695313-12.066406 3.859376v.964843c2.683594 3.640625.105469 11.074219-.484375 14.480469 2.191407 1.433594 4.5 3.511719 7.242188 4.34375 14.441406 4.375 21.261719-10.136719 24.128906-19.789062.84375-2.835938 2.832031-8.042969 1.929687-12.066407-3.046874-13.613281-10.355468-30.175781-27.027343-29.921875zm-29.4375 22.683594c-2.863281.160156-8.523438.085938-10.617188 1.449219-2.386719 1.546875-1.613281 3.445312-5.308593 4.34375v-3.863281c.503906-.71875.832031-1.542969.964843-2.410157 3.960938-1.195312 6.289063-2.851562 12.0625-2.898437.785157.753906 1.726563 1.050781 2.414063 1.929687.363281.519531.289062.457031.484375 1.449219zm23.648437 4.828125c-.90625 1.414063-1.585937 1.6875-1.929687 3.859375 1.34375 1.28125 1.417969 2.042969 3.859375 2.414062 1.464844-1.488281 2.277344-1.296874 2.414062-4.34375-.871094-.757812-.617187-.949218-1.929687-1.449218-.625-.421875-1.191407-.429688-2.414063-.480469zm-23.167968 4.824219c-5.308594 4.015625-9.433594 4.542968-11.582032 12.066406-4.355468 15.273438 14.753906 24.8125 26.542969 17.855469v-.480469c-2.742187-.605469-3.207031-1.808594-4.824219-3.378906-.035156-1.78125.125-3.5625.484375-5.308594 4.65625-3.109375 4.636719-2.1875 9.652344-.484375v-6.753906c-1.234375-1.804688-1.257813-4.414063-2.414063-6.277344-3.445312-5.519531-8.515624-7.386719-17.859374-7.238281zm90.253906 21.234375c-.761719 9.636719-17.75 27.875-24.617188 32.335937-2.078125 1.351563-4.464844 1.117188-6.753906 2.414063-1.542969.875-8.988281 10.242187-9.652344 12.066406h2.410156c1.722657-1.09375 4.0625-.773437 6.277344-1.449219l11.097656-3.859375c17.75-7.746093 35.671876-22.429687 40.542969-42.953125 5.128907-21.628906-31.0625-17.417968-42.953125-13.03125-3.457031 1.273438-6.773437 1.613282-8.6875 4.34375-1.429687 2.121094-1.335937 5.25-2.414062 7.722656-2.816406 6.460938-12.515625 16.789063-24.132813 13.996094-2.664062-.699218-5.253906-1.667968-7.722656-2.898437v.964843c3.253906 1.832032 6.03125 4.734376 9.652344 6.277344 2.164062.914063 5.121093.519532 6.277343 2.410156h-4.828124c-1.558594-1.011718-3.917969-.667968-5.792969-1.445312-3.582031-1.488281-6.238281-5.015625-9.652344-6.273438-3.023437 6.171876-22.242187 12.660157-29.4375 5.789063 8.558594.171875 13.882813-.277344 20.753906-1.929687v-.484376c-13.105469.519532-21.242187-2.714843-24.617187-13.027343-.8125-2.488281.320312-9.335938-.480469-10.621094-.839844-.972656-1.035156-.902344-2.898437-.964844-3.152344-2.144531-8.132813-.988281-12.546876-1.929687-16.84375-3.59375-37.203124 2.480468-46.332031 8.6875-2.792969 1.898437-8.21875 5.378906-7.722656 10.136718.5625 5.375 10.152344 12.5625 13.996094 15.441407 17.042969 12.777343 37.226562 26.476562 64.671875 28.476562v-.484375c-5.585938-3.257812-9.527344-8.359375-14.476563-12.066406l-8.6875-2.410156c-5.683593-2.460938-11.550781-6.09375-16.410156-9.652344-5.621094-4.121094-10.597656-9.453125-15.925781-13.996094-1.320313-1.128906-.242188-1.765625-2.414063-2.414062-1.433593 1.539062-3.515625 3.226562-5.792969 3.859375v-1.445313c6.976563-6.667968 18.359376-18.273437 33.785157-13.03125v.480469c-2.992188.097656-5.9375.753906-8.6875 1.933594.304687.84375.09375.464843.484375.964843 1.714844 6.4375 7.082031 11.148438 10.617187 15.925782 10.875 14.691406 25.015625 25.640625 40.058594 36.195312 4.71875 3.3125 12.542969 10.582032 18.820313 11.582032 2.914062-5.394532 8.933593-8.734376 12.550781-13.511719 13.324219-17.605469 31.839843-33.253907 37.160156-58.398438-1.625-.558593-4.414063-.515625-6.757813-.480469-1.054687.714844-3.230468.882813-4.824218.964844v-.964844h.480468c1.675782-1.652343 3.539063-1.679687 6.277344-2.414062 11.042969-2.96875 20.007813 3.382812 23.648438 9.652344h-1.449219c-.683594-.464844-1.578125-.472656-2.894531-.484375zm-11.101563-5.308594c-.804687 3.378906-1.609375 6.757813-2.414062 10.136719 2.726562.867187 3.601562 2.832031 6.757812 3.378906.949219-3.195312 2.957031-6.355469 4.34375-9.652344-2.777343-1.871094-3.84375-3.757812-8.6875-3.863281zm-66.121093 4.828125c-.238282.53125-.566407 1.019531-.964844 1.449219.304687.84375.09375.464843.484375.964843l1.445312 1.445313 1.449219-.480469c.160156-.804687.320312-1.609375.484375-2.414062l-.96875-.964844zm-62.742188 1.929688c-3.199219 2.304687-8.289062 1.59375-9.167969 6.273437 2.382813 1.667969 5.480469 5.417969 7.238281 7.722656l.484376-.480469c1.265624-.789062 6.324218-6.445312 5.789062-6.757812-.5-2.25-2.3125-5.96875-4.34375-6.757812zm124.519531 6.757812c-.898437 3.464844-3.609375 4.765625-4.34375 8.203125 1.402344.929687 2.492188 2.441406 3.378907 3.863281l.480468-.484375c2.535156-1.617187 6.144532-5.277343 6.757813-8.6875-2.414063-.75-3.582031-2.367187-6.273438-2.894531zm-117.761719 2.894531c-1.476562 2.8125-4.605468 3.863281-5.308593 7.238281 2.28125 1.527344 3.367187 3.871094 6.273437 4.828126v-.484376c.730469-.683593 3.203125-3.992187 3.378906-4.824218.328126-1.539063-3.195312-6.210938-4.34375-6.757813zm60.328126 5.308594c3.121093 2.242187 1.527343 7.988281-2.414063 8.207031-.492187-.386718-.128906-.171875-.964844-.484375-.386719-1.414062-.550781-2.878906-.480469-4.34375 1.371094-1.023437 2.664063-2.152343 3.859376-3.378906zm6.757812.484375c1.984375.132812 2.296875.546875 3.859375.964844.828125 1.667968 1.605469 2.507812 1.933594 4.824218-1.410157.886719-1.402344 1.324219-3.863281 1.449219-1.363282-2.042969-2.355469-2.613281-2.414063-6.273437.386719-.492188.171875-.132813.484375-.964844zm-8.6875 4.824219h1.449219c.304687-.84375.09375-.46875.480469-.964844l-.480469-1.449219-.964844.484375c-.257813.617188-.417969 1.265625-.484375 1.929688zm10.617188-2.414063c-.191407 1.09375-.441407.523438 0 1.449219.492187.386719.132812.171875.964843.484375v-1.449219zm-62.742188.96875c-.605469 1.300782-1.4375 2.878906-2.410156 3.859375.304687.847657.089844.46875.480468.964844 2.578126 2.703125 7.914063 6.460937 12.066407 7.238281v-.480468c-3.957031-2.71875-5.683594-9.78125-10.136719-11.582032zm104.25 0c-1.289062 4.121094-5.027344 6.371094-6.277344 10.617188h.484375c2.296875-3.15625 7.65625-4.449219 9.171875-8.207032-1.3125-.871093-1.710937-1.820312-3.378906-2.410156zm0 0" fill-rule="evenodd"/></svg>