
<svg xmlns="http://www.w3.org/2000/svg" xmlns:xlink="http://www.w3.org/1999/xlink" width="250px" height="250px" viewBox="0 0 250 250" version="1.1">
<g id="surface1">
<path style=" stroke:none;fill-rule:evenodd;fill:rgb(0%,0%,0%);fill-opacity:1;" d="M 130.792969 84.941406 C 132.375 85 134.257812 85.054688 135.136719 84.460938 C 139.890625 82.636719 147.523438 68.359375 155.886719 74.324219 C 164.839844 80.710938 150.125 91.167969 148.648438 95.078125 C 156.980469 98.007812 160.898438 110.042969 163.128906 119.207031 C 164.023438 122.894531 162.96875 127.863281 164.09375 131.273438 C 178.875 127.28125 211.316406 118.398438 218.148438 136.582031 C 219.542969 140.300781 220.050781 146.125 218.628906 150.578125 C 217.628906 153.75 216.335938 156.820312 214.769531 159.75 C 206.394531 174.914062 187.195312 187.125 170.367188 194.015625 L 157.335938 197.875 L 150.578125 198.839844 L 146.234375 203.667969 C 141.320312 207.386719 135.984375 211.753906 131.757812 216.214844 C 126.175781 214.265625 121.234375 212.097656 116.796875 208.976562 C 113.6875 206.792969 110.375 202.582031 106.660156 201.253906 L 98.457031 200.773438 L 84.941406 198.359375 C 76.6875 195.597656 67.394531 192.019531 59.84375 188.707031 C 56.539062 187.253906 53.121094 186.742188 50.191406 184.84375 C 43.671875 180.625 37.417969 175.847656 31.371094 171.332031 C 27.097656 168.140625 18.121094 160.074219 16.410156 154.921875 C 14.40625 148.898438 21.285156 144.226562 23.648438 141.890625 C 36.699219 129.019531 58.136719 131.371094 81.5625 131.757812 C 81.332031 129.140625 80.847656 126.554688 80.117188 124.035156 C 78.371094 117.648438 73.460938 95.738281 81.5625 92.664062 C 82.425781 91.867188 82.777344 91.820312 84.460938 91.699219 L 87.835938 94.59375 C 89.5625 97.078125 89.820312 100.488281 92.664062 101.832031 C 93.746094 102.507812 94.246094 102.097656 95.558594 101.832031 L 95.558594 100.867188 C 97.773438 97.074219 95.574219 88.332031 95.558594 83.976562 C 95.519531 70.871094 96.3125 59.578125 102.800781 53.089844 C 105.972656 49.914062 113.261719 46.871094 116.796875 52.125 C 119.636719 55.746094 115.496094 67.796875 115.347656 73.359375 C 115.964844 73.613281 116.613281 73.777344 117.277344 73.839844 C 125.121094 59.75 126.769531 39.464844 135.617188 26.542969 C 140.207031 19.84375 147.410156 15.070312 158.300781 19.304688 C 160.714844 20.285156 162.988281 21.585938 165.058594 23.167969 C 171.382812 27.992188 168.519531 39.832031 165.058594 45.367188 C 156.308594 59.347656 133.648438 65.890625 130.792969 84.941406 Z M 113.898438 123.550781 C 113.765625 112.164062 117.789062 102.761719 123.070312 96.523438 C 124.683594 94.621094 127.65625 94.066406 128.859375 91.699219 C 127.214844 90.285156 127.839844 88.738281 125 88.320312 C 124.113281 88.917969 122.25 88.847656 120.65625 88.804688 C 120.402344 88.1875 120.238281 87.535156 120.171875 86.871094 L 120.65625 86.390625 C 122.628906 86.4375 124.597656 86.109375 126.449219 85.425781 L 127.894531 78.667969 C 130.71875 71.820312 136.777344 64.066406 142.375 59.84375 C 152.570312 52.15625 166.101562 45.003906 162.164062 27.507812 C 160.3125 26.300781 158.917969 24.085938 156.851562 23.167969 C 136.722656 14.195312 130.238281 47.277344 125.964844 60.328125 C 124.4375 64.988281 123.25 75.6875 119.207031 77.21875 C 117.792969 78.554688 115.421875 78.164062 113.417969 77.703125 C 109.699219 71.386719 113.164062 62.390625 112.933594 54.535156 C 111.527344 53.648438 111.53125 53.214844 109.074219 53.089844 C 102.546875 59.558594 102.308594 59.039062 99.902344 69.980469 C 97.371094 81.5 104.109375 100.449219 96.042969 106.175781 C 95.230469 106.828125 94.527344 106.96875 93.148438 107.144531 C 91.636719 105.792969 89.511719 104.921875 88.320312 103.28125 C 86.460938 100.726562 86.539062 97.484375 82.527344 97.007812 C 78.296875 105.535156 81.84375 118.882812 84.460938 126.449219 C 85.65625 129.90625 87.097656 136.257812 92.179688 133.6875 C 98.136719 127.886719 101.777344 122.085938 113.898438 123.550781 Z M 149.132812 77.703125 C 146.53125 80.363281 142.085938 82.414062 140.445312 85.90625 C 142.421875 86.324219 143.414062 86.667969 143.824219 88.804688 L 142.855469 88.804688 C 140.429688 86.4375 133.28125 88.460938 130.792969 90.25 C 131.175781 90.742188 130.960938 90.382812 131.273438 91.214844 L 132.722656 91.214844 C 136.03125 89.007812 142.496094 91.726562 145.269531 92.179688 C 148.1875 87.976562 155.183594 84.050781 151.542969 77.703125 Z M 134.167969 93.628906 C 132.328125 95.101562 129.761719 95.59375 127.894531 97.007812 C 122.40625 101.164062 117.429688 114.851562 117.277344 124.515625 L 122.585938 127.414062 C 122.519531 122.816406 124.542969 119.34375 127.894531 118.242188 C 133.914062 113.382812 139.167969 121.058594 141.410156 123.550781 C 141.46875 126.320312 141.144531 129.078125 140.445312 131.757812 C 136.574219 134.410156 134.972656 136.453125 128.378906 135.617188 L 128.378906 136.582031 C 131.0625 140.222656 128.484375 147.65625 127.894531 151.0625 C 130.085938 152.496094 132.394531 154.574219 135.136719 155.40625 C 149.578125 159.78125 156.398438 145.269531 159.265625 135.617188 C 160.109375 132.78125 162.097656 127.574219 161.195312 123.550781 C 158.148438 109.9375 150.839844 93.375 134.167969 93.628906 Z M 104.730469 116.3125 C 101.867188 116.472656 96.207031 116.398438 94.113281 117.761719 C 91.726562 119.308594 92.5 121.207031 88.804688 122.105469 L 88.804688 118.242188 C 89.308594 117.523438 89.636719 116.699219 89.769531 115.832031 C 93.730469 114.636719 96.058594 112.980469 101.832031 112.933594 C 102.617188 113.6875 103.558594 113.984375 104.246094 114.863281 C 104.609375 115.382812 104.535156 115.320312 104.730469 116.3125 Z M 128.378906 121.140625 C 127.472656 122.554688 126.792969 122.828125 126.449219 125 C 127.792969 126.28125 127.867188 127.042969 130.308594 127.414062 C 131.773438 125.925781 132.585938 126.117188 132.722656 123.070312 C 131.851562 122.3125 132.105469 122.121094 130.792969 121.621094 C 130.167969 121.199219 129.601562 121.191406 128.378906 121.140625 Z M 105.210938 125.964844 C 99.902344 129.980469 95.777344 130.507812 93.628906 138.03125 C 89.273438 153.304688 108.382812 162.84375 120.171875 155.886719 L 120.171875 155.40625 C 117.429688 154.800781 116.964844 153.597656 115.347656 152.027344 C 115.3125 150.246094 115.472656 148.464844 115.832031 146.71875 C 120.488281 143.609375 120.46875 144.53125 125.484375 146.234375 L 125.484375 139.480469 C 124.25 137.675781 124.226562 135.066406 123.070312 133.203125 C 119.625 127.683594 114.554688 125.816406 105.210938 125.964844 Z M 195.464844 147.199219 C 194.703125 156.835938 177.714844 175.074219 170.847656 179.535156 C 168.769531 180.886719 166.382812 180.652344 164.09375 181.949219 C 162.550781 182.824219 155.105469 192.191406 154.441406 194.015625 L 156.851562 194.015625 C 158.574219 192.921875 160.914062 193.242188 163.128906 192.566406 L 174.226562 188.707031 C 191.976562 180.960938 209.898438 166.277344 214.769531 145.753906 C 219.898438 124.125 183.707031 128.335938 171.816406 132.722656 C 168.359375 133.996094 165.042969 134.335938 163.128906 137.066406 C 161.699219 139.1875 161.792969 142.316406 160.714844 144.789062 C 157.898438 151.25 148.199219 161.578125 136.582031 158.785156 C 133.917969 158.085938 131.328125 157.117188 128.859375 155.886719 L 128.859375 156.851562 C 132.113281 158.683594 134.890625 161.585938 138.511719 163.128906 C 140.675781 164.042969 143.632812 163.648438 144.789062 165.539062 L 139.960938 165.539062 C 138.402344 164.527344 136.042969 164.871094 134.167969 164.09375 C 130.585938 162.605469 127.929688 159.078125 124.515625 157.820312 C 121.492188 163.992188 102.273438 170.480469 95.078125 163.609375 C 103.636719 163.78125 108.960938 163.332031 115.832031 161.679688 L 115.832031 161.195312 C 102.726562 161.714844 94.589844 158.480469 91.214844 148.167969 C 90.402344 145.679688 91.535156 138.832031 90.734375 137.546875 C 89.894531 136.574219 89.699219 136.644531 87.835938 136.582031 C 84.683594 134.4375 79.703125 135.59375 75.289062 134.652344 C 58.445312 131.058594 38.085938 137.132812 28.957031 143.339844 C 26.164062 145.238281 20.738281 148.71875 21.234375 153.476562 C 21.796875 158.851562 31.386719 166.039062 35.230469 168.917969 C 52.273438 181.695312 72.457031 195.394531 99.902344 197.394531 L 99.902344 196.910156 C 94.316406 193.652344 90.375 188.550781 85.425781 184.84375 L 76.738281 182.433594 C 71.054688 179.972656 65.1875 176.339844 60.328125 172.78125 C 54.707031 168.660156 49.730469 163.328125 44.402344 158.785156 C 43.082031 157.65625 44.160156 157.019531 41.988281 156.371094 C 40.554688 157.910156 38.472656 159.597656 36.195312 160.230469 L 36.195312 158.785156 C 43.171875 152.117188 54.554688 140.511719 69.980469 145.753906 L 69.980469 146.234375 C 66.988281 146.332031 64.042969 146.988281 61.292969 148.167969 C 61.597656 149.011719 61.386719 148.632812 61.777344 149.132812 C 63.492188 155.570312 68.859375 160.28125 72.394531 165.058594 C 83.269531 179.75 97.410156 190.699219 112.453125 201.253906 C 117.171875 204.566406 124.996094 211.835938 131.273438 212.835938 C 134.1875 207.441406 140.207031 204.101562 143.824219 199.324219 C 157.148438 181.71875 175.664062 166.070312 180.984375 140.925781 C 179.359375 140.367188 176.570312 140.410156 174.226562 140.445312 C 173.171875 141.160156 170.996094 141.328125 169.402344 141.410156 L 169.402344 140.445312 L 169.882812 140.445312 C 171.558594 138.792969 173.421875 138.765625 176.160156 138.03125 C 187.203125 135.0625 196.167969 141.414062 199.808594 147.683594 L 198.359375 147.683594 C 197.675781 147.21875 196.78125 147.210938 195.464844 147.199219 Z M 184.363281 141.890625 C 183.558594 145.269531 182.753906 148.648438 181.949219 152.027344 C 184.675781 152.894531 185.550781 154.859375 188.707031 155.40625 C 189.65625 152.210938 191.664062 149.050781 193.050781 145.753906 C 190.273438 143.882812 189.207031 141.996094 184.363281 141.890625 Z M 118.242188 146.71875 C 118.003906 147.25 117.675781 147.738281 117.277344 148.167969 C 117.582031 149.011719 117.371094 148.632812 117.761719 149.132812 L 119.207031 150.578125 L 120.65625 150.097656 C 120.816406 149.292969 120.976562 148.488281 121.140625 147.683594 L 120.171875 146.71875 Z M 55.5 148.648438 C 52.300781 150.953125 47.210938 150.242188 46.332031 154.921875 C 48.714844 156.589844 51.8125 160.339844 53.570312 162.644531 L 54.054688 162.164062 C 55.320312 161.375 60.378906 155.71875 59.84375 155.40625 C 59.34375 153.15625 57.53125 149.4375 55.5 148.648438 Z M 180.019531 155.40625 C 179.121094 158.871094 176.410156 160.171875 175.675781 163.609375 C 177.078125 164.539062 178.167969 166.050781 179.054688 167.472656 L 179.535156 166.988281 C 182.070312 165.371094 185.679688 161.710938 186.292969 158.300781 C 183.878906 157.550781 182.710938 155.933594 180.019531 155.40625 Z M 62.257812 158.300781 C 60.78125 161.113281 57.652344 162.164062 56.949219 165.539062 C 59.230469 167.066406 60.316406 169.410156 63.222656 170.367188 L 63.222656 169.882812 C 63.953125 169.199219 66.425781 165.890625 66.601562 165.058594 C 66.929688 163.519531 63.40625 158.847656 62.257812 158.300781 Z M 122.585938 163.609375 C 125.707031 165.851562 124.113281 171.597656 120.171875 171.816406 C 119.679688 171.429688 120.042969 171.644531 119.207031 171.332031 C 118.820312 169.917969 118.65625 168.453125 118.726562 166.988281 C 120.097656 165.964844 121.390625 164.835938 122.585938 163.609375 Z M 129.34375 164.09375 C 131.328125 164.226562 131.640625 164.640625 133.203125 165.058594 C 134.03125 166.726562 134.808594 167.566406 135.136719 169.882812 C 133.726562 170.769531 133.734375 171.207031 131.273438 171.332031 C 129.910156 169.289062 128.917969 168.71875 128.859375 165.058594 C 129.246094 164.566406 129.03125 164.925781 129.34375 164.09375 Z M 120.65625 168.917969 L 122.105469 168.917969 C 122.410156 168.074219 122.199219 168.449219 122.585938 167.953125 L 122.105469 166.503906 L 121.140625 166.988281 C 120.882812 167.605469 120.722656 168.253906 120.65625 168.917969 Z M 131.273438 166.503906 C 131.082031 167.597656 130.832031 167.027344 131.273438 167.953125 C 131.765625 168.339844 131.40625 168.125 132.238281 168.4375 L 132.238281 166.988281 Z M 68.53125 167.472656 C 67.925781 168.773438 67.09375 170.351562 66.121094 171.332031 C 66.425781 172.179688 66.210938 171.800781 66.601562 172.296875 C 69.179688 175 74.515625 178.757812 78.667969 179.535156 L 78.667969 179.054688 C 74.710938 176.335938 72.984375 169.273438 68.53125 167.472656 Z M 172.78125 167.472656 C 171.492188 171.59375 167.753906 173.84375 166.503906 178.089844 L 166.988281 178.089844 C 169.285156 174.933594 174.644531 173.640625 176.160156 169.882812 C 174.847656 169.011719 174.449219 168.0625 172.78125 167.472656 Z M 172.78125 167.472656 "/>
</g>
</svg>
