
<svg xmlns="http://www.w3.org/2000/svg" xmlns:xlink="http://www.w3.org/1999/xlink" width="250px" height="250px" viewBox="0 0 250 250" version="1.1">
<g id="surface1">
<path style="fill-rule:evenodd;fill:rgb(0%,0%,0%);fill-opacity:1;stroke-width:0.436504;stroke-linecap:butt;stroke-linejoin:miter;stroke:rgb(0%,0%,0%);stroke-opacity:1;stroke-miterlimit:4;" d="M -94.646332 176.332886 C -94.646332 231.780774 -139.595751 276.730194 -195.04364 276.730194 C -250.491529 276.730194 -295.440948 231.780774 -295.440948 176.332886 C -295.440948 120.884997 -250.491529 75.935577 -195.04364 75.935577 C -139.595751 75.935577 -94.646332 120.884997 -94.646332 176.332886 Z M -94.646332 176.332886 " transform="matrix(1.242369,0,0,1.242369,367.316105,-94.07045)"/>
<path style=" stroke:none;fill-rule:nonzero;fill:rgb(100%,100%,100%);fill-opacity:1;" d="M 69.71875 53.917969 L 61.359375 62.28125 L 71.9375 72.863281 L 82.542969 83.441406 L 81.664062 86.03125 C 80.53125 89.425781 80.070312 92.265625 80.070312 96.03125 C 80.070312 108.296875 86.492188 118.738281 97.855469 124.953125 C 102.429688 127.449219 110.285156 130.265625 118.992188 132.507812 C 135.996094 136.875 138.605469 137.636719 141.957031 139.207031 C 146.53125 141.378906 148.792969 143.734375 149.742188 147.292969 C 150.15625 148.839844 150.132812 152.304688 149.71875 153.96875 C 148.65625 158.011719 145.214844 162.078125 140.9375 164.292969 C 135.164062 167.320312 125.117188 168.152344 117.539062 166.210938 C 114.71875 165.519531 110.722656 163.554688 108.714844 161.914062 C 104.625 158.542969 101.4375 152.71875 100.027344 146 C 99.796875 144.9375 99.613281 144.035156 99.589844 143.988281 C 99.519531 143.894531 75.867188 146.207031 75.75 146.34375 C 75.65625 146.414062 75.726562 147.382812 75.886719 148.492188 C 76.628906 153.828125 78.5 160.183594 80.648438 164.59375 L 81.894531 167.160156 L 71.613281 177.4375 L 61.359375 187.71875 L 78.105469 204.464844 L 88.710938 193.863281 L 99.289062 183.28125 L 101.113281 184.042969 C 110.769531 188.109375 125.253906 189.382812 139.300781 187.347656 C 142.671875 186.863281 147.546875 185.707031 150.109375 184.761719 L 151.636719 184.207031 L 171.894531 204.464844 L 188.640625 187.71875 L 169.859375 168.9375 L 171.039062 166.535156 C 173.488281 161.613281 174.503906 157.433594 174.710938 151.679688 C 175.082031 140.707031 172.242188 132.4375 165.773438 125.625 C 159.027344 118.53125 151.425781 115.160156 129.964844 109.753906 C 114.835938 105.964844 108.320312 103.355469 105.734375 100.074219 C 103.171875 96.839844 102.9375 92.3125 105.179688 89.007812 C 106.472656 87.09375 109.660156 85.035156 113.125 83.882812 C 117.03125 82.566406 123.589844 81.964844 128.464844 82.472656 C 138.746094 83.558594 143.917969 87.945312 146.183594 97.558594 C 146.460938 98.734375 146.714844 99.726562 146.738281 99.773438 C 146.785156 99.84375 163.507812 99.242188 168.519531 98.988281 L 171.386719 98.851562 L 171.222656 96.839844 C 170.902344 92.75 170.09375 89.101562 168.613281 85.289062 L 167.804688 83.140625 L 178.222656 72.699219 L 188.640625 62.28125 L 180.28125 53.898438 L 171.894531 45.535156 L 161.359375 56.066406 L 150.804688 66.625 L 148.238281 65.65625 C 141.933594 63.296875 135.835938 62.257812 126.847656 62.003906 C 117.03125 61.75 108.414062 63.019531 101.808594 65.699219 L 99.359375 66.695312 L 88.730469 56.113281 L 78.105469 45.535156 Z M 69.71875 53.917969 "/>
</g>
</svg>
