<svg height="250" viewBox="0 0 250 250" width="250" xmlns="http://www.w3.org/2000/svg"><path d="m125 0c69.035156 0 125 55.964844 125 125s-55.964844 125-125 125-125-55.964844-125-125 55.964844-125 125-125zm0 0" fill="#334b63" fill-rule="evenodd"/><g fill="#fff"><path d="m100.671875 88.378906c-2.128906 0-3.855469-1.574218-3.855469-3.511718s1.726563-3.511719 3.855469-3.511719h47.945313c2.128906 0 3.855468 1.574219 3.855468 3.511719s-1.726562 3.511718-3.855468 3.511718zm0 0"/><path d="m117.804688 190.945312c-2.128907 0-3.855469-1.574218-3.855469-3.511718s1.726562-3.511719 3.855469-3.511719h14.539062c2.128906 0 3.855469 1.574219 3.855469 3.511719s-1.726563 3.511718-3.855469 3.511718zm0 0"/><path d="m115.660156 109.457031c-2.128906 0-3.855468-1.570312-3.855468-3.507812s1.726562-3.511719 3.855468-3.511719h17.96875c2.128906 0 3.855469 1.574219 3.855469 3.511719s-1.726563 3.507812-3.855469 3.507812zm0 0"/><path d="m106.605469 165.859375c1.492187-1.765625 4.136719-1.984375 5.898437-.492187 1.765625 1.492187 1.984375 4.136718.492188 5.898437l-23.339844 27.625c-.148438.257813-.214844.570313-.214844.902344 0 .410156.097656.816406.273438 1.175781.167968.351562.382812.636719.625.820312.125.09375.269531.152344.410156.152344h68.5c.140625 0 .28125-.058594.410156-.152344.242188-.183593.457032-.472656.625-.820312.175782-.359375.273438-.765625.273438-1.175781 0-.332031-.066406-.648438-.214844-.902344l-59.726562-70.691406-2.066407-2.433594c-6.8125-7.992187-15.777343-18.503906-19.648437-28.960937-.398438-1.085938-.765625-2.203126-1.089844-3.351563-3.300781-11.628906-1.6875-23.734375 3.640625-33.988281 5.320313-10.226563 14.351563-18.632813 25.898437-22.90625 1.132813-.417969 2.316407-.804688 3.546876-1.15625 4.734374-1.34375 9.421874-2.015625 14.101562-2.015625v.019531c4.722656 0 9.410156.664062 14.105469 1.996094 1.230469.351562 2.410156.738281 3.542969 1.15625 11.550781 4.269531 20.582031 12.679687 25.898437 22.910156 5.328125 10.25 6.945313 22.355469 3.640625 33.988281-.324219 1.144531-.6875 2.261719-1.089844 3.347657-3.867187 10.453124-12.828125 20.960937-19.640625 28.953124l-4.238281 5c-1.40625 1.664063-2.796875 3.300782-4.644531 5.507813-1.484375 1.773437-4.125 2.007813-5.898438.523437-1.773437-1.484374-2.007812-4.125-.523437-5.898437 1.246094-1.484375 2.972656-3.523437 4.675781-5.539063l4.273437-5.035156c6.382813-7.484375 14.777344-17.332031 18.132813-26.394531.339844-.929687.640625-1.839844.890625-2.726563 2.699219-9.507812 1.363281-19.429687-3.015625-27.859374-4.394531-8.457032-11.839844-15.394532-21.34375-18.910157-.976563-.363281-1.953125-.683593-2.921875-.957031-4.003906-1.136719-7.941406-1.707031-11.84375-1.707031v.019531c-3.941406 0-7.878906.5625-11.839844 1.683594-.96875.277344-1.945312.597656-2.921875.960937-9.503906 3.515625-16.949219 10.453125-21.34375 18.910157-4.382812 8.429687-5.71875 18.351562-3.019531 27.859374.253906.886719.550781 1.796876.894531 2.726563 3.355469 9.066406 11.753907 18.917969 18.140625 26.40625l2.097656 2.464844 59.777344 70.753906-.007812.007813.136718.171874c1.414063 1.859376 2.035157 3.984376 2.035157 6.066407 0 1.667969-.40625 3.332031-1.125 4.816406-.722657 1.492187-1.796875 2.832031-3.117188 3.835937-1.554687 1.175782-3.414062 1.890626-5.457031 1.890626h-68.5c-2.039062 0-3.902344-.714844-5.457031-1.890626-1.320313-1.003906-2.390625-2.339843-3.117188-3.835937-.71875-1.484375-1.125-3.148437-1.125-4.816406 0-1.96875.554688-3.96875 1.804688-5.753907.105469-.167968.226562-.335937.359375-.492187zm0 0"/><path d="m115.660156 68.496094c-2.128906 0-3.855468-1.570313-3.855468-3.507813s1.726562-3.511719 3.855468-3.511719h17.96875c2.128906 0 3.855469 1.574219 3.855469 3.511719s-1.726563 3.507813-3.855469 3.507813zm0 0"/></g></svg>