<?xml version="1.0" encoding="UTF-8"?>
<svg version="1.1" xmlns="http://www.w3.org/2000/svg" width="210" height="210">
<path d="M0 0 C0.66 0 1.32 0 2 0 C3.75881387 2.46722502 5.3933949 4.93555802 7 7.5 C7.48839355 8.26739502 7.97678711 9.03479004 8.47998047 9.82543945 C9.99516025 12.21171306 11.49933568 14.60457571 13 17 C13.44504883 17.70946777 13.89009766 18.41893555 14.34863281 19.14990234 C16.03001616 21.8330833 17.70883332 24.51779625 19.38012695 27.20727539 C21.93504519 31.31635597 24.54341925 35.38489025 27.1875 39.4375 C37.30072623 55.04370846 46.58488116 71.20223489 55.91162109 87.28564453 C58.73732521 92.15155071 61.58943679 96.99759192 64.5078125 101.80859375 C65.34276245 103.18567505 65.34276245 103.18567505 66.19458008 104.59057617 C67.24443076 106.31624744 68.29870063 108.03924086 69.3581543 109.7590332 C70.05678589 110.90698364 70.05678589 110.90698364 70.76953125 112.078125 C71.38211792 113.07440918 71.38211792 113.07440918 72.00708008 114.09082031 C73.08575311 116.1648855 73.75692187 117.66655997 74 120 C73.10717773 122.40673828 73.10717773 122.40673828 71.68359375 125.0703125 C71.16603516 126.05 70.64847656 127.0296875 70.11523438 128.0390625 C69.56158203 129.05742187 69.00792969 130.07578125 68.4375 131.125 C67.91091797 132.12015625 67.38433594 133.1153125 66.84179688 134.140625 C63.42332845 140.55077632 59.79064067 146.80402915 56 153 C55.21808587 154.28996225 54.43678366 155.58029573 53.65625 156.87109375 C53.12197388 157.754021 53.12197388 157.754021 52.5769043 158.65478516 C49.00694761 164.56451622 45.56744129 170.50060867 42.38671875 176.6328125 C38.34951602 183.52448815 38.34951602 183.52448815 35.13061523 184.65869141 C32.71478141 185.15338128 30.32590217 185.47664065 27.875 185.75 C26.95847656 185.86287354 26.04195313 185.97574707 25.09765625 186.09204102 C6.7387099 188.19183014 -10.58805942 188.97646448 -28.63720703 184.54199219 C-32.00965228 183.76839966 -35.42202273 183.23982871 -38.84130859 182.71459961 C-43.33643506 181.22656125 -44.97356895 176.99373546 -47 173 C-47.57878906 171.90816406 -48.15757813 170.81632813 -48.75390625 169.69140625 C-57.06281981 153.72521672 -65.2521746 137.0760638 -71 120 C-71.22437744 119.36449219 -71.44875488 118.72898437 -71.67993164 118.07421875 C-72.09522962 115.38285975 -71.47793238 114.61905676 -69.92578125 112.421875 C-67.82958695 109.29529889 -65.94162698 106.14969204 -64.16796875 102.828125 C-63.68384521 101.92288086 -63.19972168 101.01763672 -62.70092773 100.08496094 C-62.20149658 99.14942383 -61.70206543 98.21388672 -61.1875 97.25 C-57.42125191 90.26989453 -53.5776873 83.54902728 -49.05078125 77.03515625 C-46.43683938 73.16652229 -44.03660863 69.1843327 -41.625 65.1875 C-37.8004409 58.86642698 -33.84113504 52.67067861 -29.70410156 46.55029297 C-26.65946652 42.03162962 -23.74444151 37.44415885 -20.875 32.8125 C-17.32090917 27.07620567 -13.6589935 21.430969 -9.890625 15.83203125 C-4.61321019 8.11355348 -4.61321019 8.11355348 0 0 Z " fill="#FCFAFB" transform="translate(104,16)"/>
<path d="M0 0 C0.66 0 1.32 0 2 0 C2.20157715 1.16982422 2.4031543 2.33964844 2.61083984 3.54492188 C3.36449989 7.913936 4.12210428 12.28225871 4.88085938 16.65039062 C5.2077708 18.53562291 5.53363378 20.42103733 5.85839844 22.30664062 C6.32727284 25.02783806 6.80000117 27.74834301 7.2734375 30.46875 C7.41623138 31.30241089 7.55902527 32.13607178 7.70614624 32.99499512 C8.5936943 38.06834011 9.72580639 43.0101509 11 48 C11.47303496 50.25685855 11.92902627 52.51736234 12.3671875 54.78125 C12.61130371 56.02865967 12.85541992 57.27606934 13.10693359 58.5612793 C13.23251648 59.20576019 13.35809937 59.85024109 13.48748779 60.51425171 C15.50189198 70.83676441 17.60426294 81.10122193 20.3359375 91.26171875 C21 94 21 94 21 97 C6.81 97.33 -7.38 97.66 -22 98 C-19.74873961 85.61806786 -19.74873961 85.61806786 -18.51953125 80.3828125 C-18.2460083 79.21331055 -17.97248535 78.04380859 -17.69067383 76.83886719 C-17.40087646 75.61329102 -17.1110791 74.38771484 -16.8125 73.125 C-16.50465185 71.81416272 -16.19695638 70.50328958 -15.8894043 69.19238281 C-13.44981286 58.81556233 -10.93940203 48.45615292 -8.42626953 38.09692383 C-5.36681049 25.44982174 -2.47282562 12.77626571 0 0 Z " fill="#BB6A86" transform="translate(104,36)"/>
<path d="M0 0 C3.13018172 2.71805748 5.00471045 6.14886278 7.0625 9.6875 C9.76247056 14.26403805 12.49026265 18.81263523 15.33959961 23.29785156 C22.90309019 35.20720639 29.92656536 47.44307701 37.03222656 59.62841797 C39.63690183 64.09126727 42.25360779 68.54695529 44.875 73 C45.26107422 73.65669678 45.64714844 74.31339355 46.04492188 74.98999023 C47.58160972 77.60186973 49.12547804 80.19630342 50.7578125 82.75 C52 85 52 85 52 88 C41.06028181 89.46560818 30.01045894 89.09470423 19 89 C15.580729 77.9201482 13.18633842 66.74142335 10.9375 55.375 C8.84263462 44.85381032 6.73188739 34.37885068 4 24 C1.98331894 15.99360381 0.47974929 8.25499634 0 0 Z " fill="#95455C" transform="translate(114,44)"/>
<path d="M0 0 C0.66 0 1.32 0 2 0 C1.37713159 2.68800977 0.75176793 5.3753992 0.125 8.0625 C-0.04902344 8.81466797 -0.22304687 9.56683594 -0.40234375 10.34179688 C-1.47645763 14.93661737 -2.68037668 19.46806652 -4 24 C-4.6092713 26.26946907 -5.21322886 28.54036984 -5.8125 30.8125 C-9.1137024 43.25973405 -12.6021723 55.65360388 -16.16796875 68.02734375 C-16.83414175 70.40742664 -17.44092307 72.78103842 -18 75.1875 C-19.32214947 80.22819487 -21.21910597 85.10254143 -23 90 C-32.9 90 -42.8 90 -53 90 C-52.18510171 85.92550857 -51.83409055 84.31306072 -49.77734375 81.06640625 C-49.09188477 79.9671582 -49.09188477 79.9671582 -48.39257812 78.84570312 C-47.91240234 78.09224609 -47.43222656 77.33878906 -46.9375 76.5625 C-43.55907422 71.20411488 -40.28840833 65.80386731 -37.1640625 60.29296875 C-33.38947439 53.63893591 -29.48945108 47.06839309 -25.51782227 40.53027344 C-24.43058778 38.73860928 -23.34901386 36.94360622 -22.26757812 35.1484375 C-18.56658836 29.03229162 -14.72116322 23.07672277 -10.56518555 17.25585938 C-7.79948271 13.26972707 -5.42852079 9.05886061 -3.03320312 4.84375 C-2.07414955 3.19773861 -1.04344211 1.59385251 0 0 Z " fill="#AF5B75" transform="translate(95,43)"/>
<path d="M0 0 C13.53 0 27.06 0 41 0 C36.49643367 11.25891583 36.49643367 11.25891583 34.1953125 16.42578125 C33.69386719 17.55306641 33.19242188 18.68035156 32.67578125 19.84179688 C31.90814453 21.55979492 31.90814453 21.55979492 31.125 23.3125 C30.62097656 24.44623047 30.11695312 25.57996094 29.59765625 26.74804688 C26.13032614 34.52958695 22.58818107 42.27351398 19 50 C18.34 50 17.68 50 17 50 C16.57589844 48.75347656 16.15179688 47.50695312 15.71484375 46.22265625 C12.77916036 37.67404081 9.76677527 29.20385498 6.25 20.875 C0 6.04626579 0 6.04626579 0 0 Z " fill="#B45B76" transform="translate(83,142)"/>
<path d="M0 0 C1.25039062 0.00322266 2.50078125 0.00644531 3.7890625 0.00976562 C5.74199219 0.02233398 5.74199219 0.02233398 7.734375 0.03515625 C9.71050781 0.04192383 9.71050781 0.04192383 11.7265625 0.04882812 C14.97921241 0.06061309 18.23177084 0.07706614 21.484375 0.09765625 C20.00811848 5.02824768 17.93322664 9.35542445 15.52734375 13.875 C15.1425032 14.60457413 14.75766266 15.33414825 14.36116028 16.08583069 C13.54895574 17.62247079 12.73443312 19.15788764 11.91772461 20.69213867 C10.67948405 23.02084623 9.45159907 25.35480198 8.22460938 27.68945312 C7.43030767 29.18913072 6.63540515 30.68849028 5.83984375 32.1875 C5.47819626 32.87625717 5.11654877 33.56501434 4.74394226 34.27464294 C2.30881849 38.82618897 -0.44107553 42.94962572 -3.515625 47.09765625 C-5.81647658 43.64637887 -6.03966936 41.53666619 -6.55078125 37.4453125 C-6.63436386 36.78994003 -6.71794647 36.13456757 -6.80406189 35.45933533 C-6.97993938 34.06865093 -7.15201029 32.6774806 -7.32055664 31.28588867 C-7.57354329 29.19796947 -7.83737702 27.11166973 -8.10351562 25.02539062 C-9.105803 17.06437535 -9.93044893 9.10138529 -10.515625 1.09765625 C-6.97374222 -0.00063144 -3.6946488 -0.01679386 0 0 Z " fill="#6E3A49" transform="translate(144.515625,140.90234375)"/>
<path d="M0 0 C10.56 0 21.12 0 32 0 C31.35409147 4.52135968 30.82453013 8.02328076 29.4765625 12.22265625 C29.17886963 13.1674585 28.88117676 14.11226074 28.57446289 15.08569336 C28.26114014 16.06803955 27.94781738 17.05038574 27.625 18.0625 C24.94024041 26.65113409 22.61266952 35.137997 21 44 C20.34 44 19.68 44 19 44 C18.79246094 43.46375 18.58492187 42.9275 18.37109375 42.375 C13.63588743 30.32895211 8.44057912 18.54603998 2.48925781 7.05224609 C0 2.20325082 0 2.20325082 0 0 Z " fill="#8C485E" transform="translate(42,141)"/>
<path d="M0 0 C0.66 0 1.32 0 2 0 C2.57677443 4.53404529 3.14613797 9.06894095 3.70898438 13.60473633 C3.9010156 15.14404703 4.09498513 16.68311732 4.29101562 18.22192383 C5.30140061 26.1632405 6.29213304 33.97547066 6 42 C-10.70842825 44.29612756 -10.70842825 44.29612756 -19 44 C-18.35475037 39.69023854 -16.8413464 36.19399464 -14.98046875 32.265625 C-14.68062576 31.62816345 -14.38078278 30.9907019 -14.07185364 30.33392334 C-13.11556517 28.30346377 -12.1518257 26.27665296 -11.1875 24.25 C-10.23762934 22.24146718 -9.28932789 20.23219992 -8.34133911 18.22277832 C-7.73068944 16.92846015 -7.11943226 15.63442841 -6.50753784 14.34069824 C-4.26497154 9.59100325 -2.10410713 4.8124163 0 0 Z " fill="#552F40" transform="translate(127,153)"/>
<path d="M0 0 C2.43541073 2.43541073 3.0627722 4.47951457 4.2421875 7.71484375 C4.66886719 8.87693359 5.09554687 10.03902344 5.53515625 11.23632812 C6.19837891 13.0684082 6.19837891 13.0684082 6.875 14.9375 C7.30941406 16.12408203 7.74382812 17.31066406 8.19140625 18.53320312 C9.05259807 20.88790327 9.91039562 23.24384783 10.76464844 25.60107422 C11.57267852 27.82427476 12.38814136 30.04479146 13.21191406 32.26220703 C13.76057129 33.74309814 13.76057129 33.74309814 14.3203125 35.25390625 C14.64531738 36.12474854 14.97032227 36.99559082 15.30517578 37.89282227 C16 40 16 40 16 42 C7.53795229 42.30221599 -0.63745983 41.14920797 -9 40 C-10.18415538 36.44753386 -9.73317541 35.01245682 -8.85546875 31.4140625 C-8.59056641 30.31835938 -8.32566406 29.22265625 -8.05273438 28.09375 C-7.76720703 26.9490625 -7.48167969 25.804375 -7.1875 24.625 C-6.91357422 23.48804688 -6.63964844 22.35109375 -6.35742188 21.1796875 C-5.1614267 16.2924554 -3.91195975 11.65791548 -2 7 C-1.31320058 4.67251306 -0.64238957 2.34013344 0 0 Z " fill="#65374C" transform="translate(78,154)"/>
<path d="M0 0 C0.33 0 0.66 0 1 0 C1.309375 1.11375 1.61875 2.2275 1.9375 3.375 C2.82326483 6.7945155 2.82326483 6.7945155 4 9 C3.67 9.66 3.34 10.32 3 11 C3.66 11.33 4.32 11.66 5 12 C4.67 12.99 4.34 13.98 4 15 C3.54178144 19.35307628 4.78310388 21.33730206 7 25 C6.67 25.99 6.34 26.98 6 28 C6.52660718 30.08894035 6.52660718 30.08894035 7.4375 32.1875 C7.72496094 32.90292969 8.01242188 33.61835937 8.30859375 34.35546875 C8.65083984 35.16951172 8.65083984 35.16951172 9 36 C10.65 36 12.3 36 14 36 C14.33 37.32 14.66 38.64 15 40 C17.97 40.33 20.94 40.66 24 41 C24 41.33 24 41.66 24 42 C12.12 42.33 0.24 42.66 -12 43 C-10.85487665 36.70182157 -9.7361748 30.56637089 -8.2734375 24.36328125 C-8.04462387 23.38780586 -8.04462387 23.38780586 -7.81118774 22.3926239 C-7.33503521 20.36529891 -6.85510715 18.33889165 -6.375 16.3125 C-6.04662133 14.91737739 -5.7184947 13.52219544 -5.390625 12.12695312 C-4.5966472 8.75061462 -3.79928685 5.37508615 -3 2 C-2.34 2 -1.68 2 -1 2 C-0.67 1.34 -0.34 0.68 0 0 Z " fill="#BE738F" transform="translate(94,91)"/>
<path d="M0 0 C0.66 0 1.32 0 2 0 C2 6.93 2 13.86 2 21 C0.02 20.67 -1.96 20.34 -4 20 C-4.99 20.33 -5.98 20.66 -7 21 C-8.17189558 17.48431326 -7.83725505 17.0008148 -6.34765625 13.76953125 C-5.98349609 12.96708984 -5.61933594 12.16464844 -5.24414062 11.33789062 C-4.65922852 10.08782227 -4.65922852 10.08782227 -4.0625 8.8125 C-3.67642578 7.96751953 -3.29035156 7.12253906 -2.89257812 6.25195312 C-1.93699299 4.16382265 -0.97256217 2.08026396 0 0 Z " fill="#623646" transform="translate(127,153)"/>
<path d="M0 0 C0.66 0 1.32 0 2 0 C5.2862639 14.28574223 5.2862639 14.28574223 3 21 C-0.11926606 23 -0.11926606 23 -2 23 C-2.87028137 17.04915714 -3.27756096 12.69390239 -1 7 C-0.62468554 4.67305036 -0.28082798 2.34023315 0 0 Z " fill="#C07692" transform="translate(104,36)"/>
<path d="M0 0 C13.53 0 27.06 0 41 0 C39 2 39 2 35.46826172 2.22705078 C33.95536669 2.22673363 32.44244912 2.21540633 30.9296875 2.1953125 C30.13345978 2.1924826 29.33723206 2.18965271 28.51687622 2.18673706 C25.96943237 2.1755264 23.42233789 2.15042062 20.875 2.125 C19.14974465 2.11497133 17.42448381 2.10584528 15.69921875 2.09765625 C11.46601086 2.07558422 7.2330647 2.04104867 3 2 C3 3.65 3 5.3 3 7 C0 3.375 0 3.375 0 0 Z " fill="#A94E6A" transform="translate(83,142)"/>
<path d="M0 0 C0.268125 0.598125 0.53625 1.19625 0.8125 1.8125 C1.8893979 4.04327908 1.8893979 4.04327908 3.625 5.625 C4.07875 6.07875 4.5325 6.5325 5 7 C5 7.66 5 8.32 5 9 C4.34 9 3.68 9 3 9 C2.31292445 11.49064888 2 13.37886292 2 16 C1.34 16.33 0.68 16.66 0 17 C-0.99 16.67 -1.98 16.34 -3 16 C-2.68954268 14.0830014 -2.37655329 12.16641277 -2.0625 10.25 C-1.88847656 9.18265625 -1.71445313 8.1153125 -1.53515625 7.015625 C-1.11295829 4.63652407 -0.62797116 2.33084789 0 0 Z " fill="#BF7792" transform="translate(97,68)"/>
<path d="M0 0 C2.7839183 1.39195915 2.97898997 3.15575779 4 6 C4.99 5.67 5.98 5.34 7 5 C7.66 5.33 8.32 5.66 9 6 C8.67 9.63 8.34 13.26 8 17 C7.34 17 6.68 17 6 17 C3.67669016 11.39473306 1.53254356 5.87475032 0 0 Z " fill="#884058" transform="translate(55,168)"/>
<path d="M0 0 C0.6875 1.8125 0.6875 1.8125 1 4 C-0.125 5.75 -0.125 5.75 -2 7 C-4.6875 7.1875 -4.6875 7.1875 -7 7 C-7.625 4.625 -7.625 4.625 -8 2 C-5.01914162 -0.98085838 -3.92387184 -1.17716155 0 0 Z " fill="#B65D78" transform="translate(62,108)"/>
<path d="M0 0 C4.1424367 1.38081223 5.32203099 3.59825558 8 7 C7.67 7.66 7.34 8.32 7 9 C4.525 8.01 4.525 8.01 2 7 C2.33 8.65 2.66 10.3 3 12 C2.34 12 1.68 12 1 12 C0.79503906 11.44570312 0.59007813 10.89140625 0.37890625 10.3203125 C0.10949219 9.59585938 -0.15992187 8.87140625 -0.4375 8.125 C-0.70433594 7.40570313 -0.97117187 6.68640625 -1.24609375 5.9453125 C-1.97916854 3.96351155 -1.97916854 3.96351155 -3 2 C-2.01 1.34 -1.02 0.68 0 0 Z " fill="#BE637E" transform="translate(110,148)"/>
<path d="M0 0 C1.65 0.99 3.3 1.98 5 3 C4.34 5.31 3.68 7.62 3 10 C2.01 10 1.02 10 0 10 C-1.125 3.375 -1.125 3.375 0 0 Z " fill="#784357" transform="translate(75,163)"/>
<path d="M0 0 C2.2477975 2.05233685 3.0022242 3.00667261 4 6 C4 6.66 4 7.32 4 8 C4.31478446 9.33783393 4.64587656 10.67203709 5 12 C4.01 12.66 3.02 13.32 2 14 C1.663389 12.22978678 1.33082707 10.45880326 1 8.6875 C0.814375 7.70136719 0.62875 6.71523438 0.4375 5.69921875 C0 3 0 3 0 0 Z " fill="#A45B70" transform="translate(114,44)"/>
<path d="M0 0 C0.66 0 1.32 0 2 0 C2.33 1.98 2.66 3.96 3 6 C1.0625 5.6875 1.0625 5.6875 -1 5 C-1.33 4.01 -1.66 3.02 -2 2 C-1.34 2 -0.68 2 0 2 C0 1.34 0 0.68 0 0 Z " fill="#592F44" transform="translate(89,185)"/>
<path d="" fill="#FFFFFF" transform="translate(0,0)"/>
</svg>
