<svg height="250" viewBox="0 0 250 250" width="250" xmlns="http://www.w3.org/2000/svg"><path d="m201.234375 43.335938c-23.644531-8.8125-49.210937-13.609376-75.910156-13.609376s-52.265625 4.796876-75.910157 13.609376c-10.949218 4.058593-21.464843 8.945312-31.496093 14.660156 1.480469 11.605468 3.835937 22.945312 7.066406 33.941406 9.335937-6.019531 19.28125-11.257812 29.664063-15.53125 21.769531-8.988281 45.632812-13.960938 70.675781-13.960938 25.039062 0 48.90625 4.972657 70.675781 13.960938 10.382812 4.273438 20.328125 9.511719 29.664062 15.53125 3.226563-10.996094 5.585938-22.335938 7.066407-33.941406-10.03125-5.714844-20.546875-10.601563-31.496094-14.660156" fill="#0a2052"/><path d="m187.753906 101.359375h-.042968c-13.089844 31.890625-34.859376 59.375-62.386719 79.398437-27.527344-20.023437-49.296875-47.507812-62.386719-79.398437h-.042969c-2.792969 1.003906-5.539062 2.050781-8.246093 3.183594-7.414063 3.054687-14.570313 6.589843-21.464844 10.558593 13.65625 32.632813 35.078125 61.253907 61.90625 83.542969 9.425781 7.855469 19.546875 14.921875 30.234375 21.074219 10.6875-6.152344 20.808593-13.21875 30.230469-21.074219 26.832031-22.289062 48.253906-50.910156 61.90625-83.542969-6.890626-3.96875-14.046876-7.503906-21.464844-10.558593-2.703125-1.132813-5.449219-2.179688-8.242188-3.183594" fill="#31c8c4"/></svg>