
<svg xmlns="http://www.w3.org/2000/svg" xmlns:xlink="http://www.w3.org/1999/xlink" width="250px" height="250px" viewBox="0 0 250 250" version="1.1">
<g id="surface1">
<path style=" stroke:none;fill-rule:nonzero;fill:rgb(30.19608%,60.392159%,98.431373%);fill-opacity:1;" d="M 248.457031 125 C 248.457031 194.035156 193.183594 250 125 250 C 56.816406 250 1.542969 194.035156 1.542969 125 C 1.542969 55.964844 56.816406 0 125 0 C 193.183594 0 248.457031 55.964844 248.457031 125 Z M 248.457031 125 "/>
<path style=" stroke:none;fill-rule:nonzero;fill:rgb(100%,100%,100%);fill-opacity:1;" d="M 190.914062 125.339844 L 143.476562 97.601562 L 143.476562 121.761719 C 143.476562 126.804688 146.132812 131.46875 150.445312 133.992188 L 177.097656 149.574219 L 160.429688 178.804688 L 126.636719 178.804688 L 126.636719 71.195312 L 160.429688 71.195312 L 175.175781 97.0625 C 180.054688 105.632812 190.875 108.570312 199.332031 103.625 L 208.246094 98.449219 L 182.175781 52.769531 C 178.894531 47.015625 172.835938 43.46875 166.273438 43.457031 L 93.871094 43.457031 C 87.667969 43.457031 81.9375 46.804688 78.832031 52.242188 L 42.417969 116.089844 C 39.273438 121.601562 39.273438 128.398438 42.417969 133.910156 L 78.636719 197.386719 C 81.875 203.074219 87.867188 206.578125 94.351562 206.574219 L 166.253906 206.574219 C 172.839844 206.582031 178.933594 203.03125 182.238281 197.261719 L 208.113281 151.902344 C 212.003906 145.066406 209.691406 136.332031 202.941406 132.386719 Z M 99.207031 178.804688 L 99.0625 178.804688 L 88.84375 160.851562 L 68.558594 125.289062 L 68.40625 125 L 99.0625 71.195312 L 99.207031 71.195312 Z M 99.207031 178.804688 "/>
</g>
</svg>
