<svg height="250" viewBox="0 0 250 250" width="250" xmlns="http://www.w3.org/2000/svg"><path d="m42.691406 211.425781v25.460938c-4.277344 5.328125-10.597656 8.980469-16.375 8.980469-12.460937 0-22.152344-15.296876-22.152344-35.03125 0-19.734376 9.8125-34.835938 22.574219-34.835938 6.019531 0 12.039063 3.75 16.195313 9.671875l-4.035156 8.582031c-3.25-4.929687-7.765626-7.890625-12.160157-7.890625-8.609375 0-15.351562 10.753907-15.351562 24.472657 0 13.8125 6.800781 24.574218 15.410156 24.574218 3.132813 0 6.683594-1.777344 9.695313-4.738281v-19.246094zm42.320313 33.953125-22.457031-49.542968v49.542968h-7.097657v-69.085937h6.980469l22.574219 49.640625v-49.640625h6.984375v69.085937zm62.007812-34.542968c0 19.734374-9.75 35.03125-22.335937 35.03125-12.582032 0-22.332032-15.296876-22.332032-35.03125 0-19.835938 9.75-34.835938 22.332032-34.835938 12.585937 0 22.335937 15.101562 22.335937 34.835938zm-37.445312 0c0 13.71875 6.921875 24.574218 15.171875 24.574218 8.246094 0 14.988281-10.855468 14.988281-24.574218s-6.742187-24.375-14.988281-24.375c-8.308594 0-15.171875 10.65625-15.171875 24.375zm76.339843-27.925782-2.953124 10.261719c-4.574219-4.542969-9.152344-6.417969-12.339844-6.417969-4.15625 0-6.863282 2.570313-6.863282 7.207032 0 15.097656 22.753907 7.007812 22.695313 31.875 0 12.335937-6.621094 19.933593-15.890625 19.933593-6.625 0-12.882812-4.4375-17.21875-10.953125l3.066406-10.066406c4.335938 6.515625 9.757813 10.066406 14.269532 10.066406 4.9375 0 7.890624-3.058594 7.890624-8.390625 0-15.394531-22.761718-6.804687-22.761718-31.378906 0-11.839844 6.203125-19.242187 15.355468-19.242187 5.476563 0 10.835938 2.859374 14.75 7.105468zm11.558594 62.46875v-69.085937h7.101563v69.085937zm49.480469-62.46875-2.953125 10.261719c-4.570312-4.542969-9.144531-6.417969-12.335938-6.417969-4.15625 0-6.859374 2.570313-6.859374 7.207032 0 15.097656 22.753906 7.007812 22.691406 31.875 0 12.335937-6.621094 19.933593-15.894532 19.933593-6.621093 0-12.878906-4.4375-17.214843-10.953125l3.070312-10.066406c4.332031 6.515625 9.753907 10.066406 14.265625 10.066406 4.9375 0 7.890625-3.058594 7.890625-8.390625 0-15.394531-22.757812-6.804687-22.757812-31.378906 0-11.839844 6.199219-19.242187 15.351562-19.242187 5.476563 0 10.835938 2.859374 14.746094 7.105468zm-87.367187-146.410156-3.003907 4.925781c2.417969 6.148438 3.128907 14.007813 1.503907 21.425781-2.773438 12.664063-11.285157 19.253907-19.007813 14.707032-1.089844-.636719-2.109375-1.46875-3.042969-2.453125l-9.675781 15.859375-8.523437-13.96875c-3.890626 4.269531-8.917969 5.574218-13.664063 2.78125-7.949219-4.671875-12.078125-19.015625-9.230469-32.035156.4375-1.988282 1.011719-3.820313 1.695313-5.5l-3.628907-5.949219-.703124 1.878906c-3.808594 10.1875-5.828126 21.894531-5.84375 33.863281-.039063 35.964844 17.773437 65.277344 39.714843 65.347656h.074219c21.898438 0 39.746094-29.207031 39.789062-65.097656.011719-11.96875-1.980468-23.691406-5.753906-33.902344zm-58.453126 13.117188c-1.050781 2.230468-1.679687 5.023437-1.679687 8.058593 0 7.3125 3.613281 13.234375 8.074219 13.234375 1.851562 0 3.554687-1.035156 4.917968-2.753906zm39.800782 17.453124c1.292968 1.429688 2.84375 2.261719 4.519531 2.261719 4.457031 0 8.074219-5.925781 8.074219-13.238281 0-2.742188-.511719-5.289062-1.382813-7.402344zm-14.511719 14.003907-32.835937-54.027344 1.277343-2.230469c8.167969-14.21875 19.214844-22.046875 31.109375-22.046875h.082032c12.019531.035157 23.535156 8.4375 31.605468 23.050781l1.234375 2.230469zm-27.441406-54.101563 27.453125 45.167969 27.109375-44.261719c-7.257813-11.945312-17.171875-18.761718-27.496094-18.792968h-.074219c-10.195312 0-19.707031 6.324218-26.992187 17.886718zm-8.761719 88.886719-3.867188-.417969c-16.34375-1.738281-38.890624-8.339844-53.480468-29.882812-8.9375-13.195313-10.648438-25.738282-10.714844-26.269532l-.496094-3.796874h59.484375l-.296875 3.566406c-.269531 3.292968-.410156 6.625-.414062 9.894531-.015625 14.867187 2.625 29.253906 7.636718 41.617187zm72.050781 0 2.144531-5.289063c4.988282-12.285156 7.632813-26.574218 7.652344-41.328124 0-3.394532-.136718-6.816407-.410156-10.183594l-.292969-3.5625h59.472657l-.492188 3.792968c-.066406.53125-1.78125 13.074219-10.71875 26.269532-14.589844 21.542968-37.140625 28.144531-53.488281 29.886718zm0 0" fill="#00a6c4"/></svg>