<?xml version="1.0" encoding="UTF-8" standalone="no"?>
<!DOCTYPE svg PUBLIC "-//W3C//DTD SVG 1.1//EN" "http://www.w3.org/Graphics/SVG/1.1/DTD/svg11.dtd">
<svg width="100%" height="100%" viewBox="0 0 800 800" version="1.1" xmlns="http://www.w3.org/2000/svg" xmlns:xlink="http://www.w3.org/1999/xlink" xml:space="preserve" xmlns:serif="http://www.serif.com/" style="fill-rule:evenodd;clip-rule:evenodd;stroke-linejoin:round;stroke-miterlimit:1.41421;">
    <g transform="matrix(1,0,0,1,144,144)">
        <path d="M128.353,29.977C118.75,29.977 109.401,31.37 100.566,34.116L94.945,35.863L100.467,37.902C105.978,39.937 111.235,43.207 116.093,47.62C117.28,48.698 117.975,50.173 118.052,51.773C118.129,53.374 117.577,54.909 116.5,56.095C115.365,57.345 113.745,58.061 112.056,58.061C110.563,58.061 109.131,57.508 108.025,56.502C103.726,52.598 96.907,47.406 87.368,47.406C78.903,47.406 69.717,51.589 60.065,59.839L59.984,59.908L59.911,59.985C50.878,69.535 43.076,81.205 36.721,94.672C24.908,119.698 17.615,147.842 15.046,178.321L18.787,179.461C20.906,175.651 23.275,172.002 25.83,168.617C26.975,167.1 28.722,166.23 30.626,166.23C31.937,166.23 33.184,166.648 34.233,167.441C36.874,169.434 37.401,173.204 35.409,175.845C19.007,197.583 13.552,227.816 19.642,263.358L19.662,263.537L19.681,263.659C29.478,315.223 48.062,345.899 58.13,351.212C62.005,353.257 65.513,354.294 68.556,354.294C74.673,354.294 79.735,349.758 83.604,340.812L85.164,337.204L81.329,338.067C80.337,338.29 79.333,338.403 78.343,338.404C64.025,338.404 59.108,316.861 57.491,309.78C51.449,283.313 51.058,251.502 56.39,220.207C61.487,190.29 71.316,164.472 83.357,149.374C83.561,149.118 83.764,148.872 84.017,148.566L87.826,143.956L82.009,145.347C73.786,147.314 65.856,150.592 58.438,155.088C57.499,155.657 56.426,155.958 55.335,155.958C53.215,155.958 51.294,154.877 50.196,153.067C49.365,151.696 49.118,150.085 49.5,148.528C49.881,146.971 50.847,145.657 52.217,144.826C66.431,136.21 83.251,131.269 98.365,131.269C107.753,131.269 115.87,133.2 121.839,136.854L121.973,136.929C128.811,140.424 135.398,147.023 141.552,156.544L145.226,155.308C143.257,129.204 135.078,99.206 124.391,78.886C123.645,77.468 123.496,75.844 123.972,74.313C124.448,72.783 125.491,71.529 126.91,70.783C127.782,70.324 128.719,70.092 129.695,70.092C131.934,70.092 133.972,71.321 135.014,73.301C150.65,103.031 157.706,142.383 157.647,166.364L157.642,168.247L159.522,168.365C161.768,168.506 164.018,168.577 166.212,168.577C176.643,168.577 191.738,166.935 204.413,159.115C231.547,142.372 233.48,118.734 233.611,116.093L233.613,115.988C233.487,72.582 181.348,29.977 128.353,29.977Z" style="fill:rgb(135,115,100);fill-rule:nonzero;"/>
    </g>
    <g transform="matrix(1,0,0,1,144,144)">
        <path d="M127.439,157.354C123.897,152.858 120.33,149.643 116.755,147.757C116.624,147.696 116.495,147.629 116.367,147.557L116.255,147.498C114.097,146.45 111.95,145.918 109.874,145.918C104.82,145.918 99.575,148.979 94.281,155.016L91.378,158.327L95.781,158.335C106.916,158.355 116.927,159.106 125.533,160.564L130.652,161.432L127.439,157.354Z" style="fill:rgb(207,186,164);fill-rule:nonzero;"/>
        <path d="M131.881,174.208C119.648,170.869 103.263,170.371 94.586,170.371C92.739,170.371 90.977,170.392 89.335,170.429L87.091,170.479L87.398,172.703C91.476,202.227 109.014,214.513 119.106,219.209L121.684,220.408L121.942,217.577C123.232,203.418 127.006,189.768 133.156,177.008L134.199,174.843L131.881,174.208Z" style="fill:rgb(207,186,164);fill-rule:nonzero;"/>
    </g>
    <g transform="matrix(1,0,0,1,144,144)">
        <path d="M255.64,330.472C218.407,330.472 189.529,361.242 189.529,387.712C189.529,409.401 209.056,421.102 247.568,422.488L249.64,422.563L249.64,401.857L248.246,401.414C235.287,397.291 225.603,382.772 225.603,372.546C225.603,366.489 228.86,362.053 234.776,360.054C238.986,358.632 244.371,358.512 249.524,358.512C250.491,358.512 251.482,358.517 252.492,358.522C253.522,358.527 254.58,358.53 255.639,358.53C256.698,358.53 257.757,358.528 258.787,358.522C259.797,358.517 260.788,358.512 261.755,358.512C266.91,358.512 272.294,358.631 276.504,360.054C282.419,362.052 285.676,366.489 285.676,372.546C285.676,382.772 275.992,397.29 263.033,401.414L261.639,401.857L261.639,422.563L263.711,422.488C302.223,421.101 321.75,409.401 321.75,387.712C321.752,361.242 292.873,330.472 255.64,330.472Z" style="fill:rgb(135,115,100);fill-rule:nonzero;"/>
    </g>
    <g transform="matrix(1,0,0,1,144,144)">
        <path d="M255.64,431.854C233.212,431.854 214.532,428.987 200.117,423.332L196.763,422.016L196.956,425.816C197.621,438.87 200.107,449.97 204.346,458.808L204.457,459.039L204.609,459.241C205.119,459.916 205.516,460.682 205.787,461.521L205.867,461.768L205.992,461.991C215.326,478.6 232.031,487.022 255.639,487.022C279.247,487.022 295.951,478.6 305.286,461.991L305.411,461.767L305.491,461.52C305.762,460.681 306.159,459.915 306.668,459.243L306.822,459.041L306.932,458.81C311.169,449.972 313.657,438.872 314.322,425.816L314.515,422.016L311.161,423.332C296.749,428.987 278.068,431.854 255.64,431.854Z" style="fill:rgb(255,235,210);fill-rule:nonzero;"/>
    </g>
    <g transform="matrix(1,0,0,1,144,144)">
        <path d="M272.167,371.249C270.355,370.754 266.95,370.513 261.757,370.513C260.829,370.513 256.72,370.532 255.64,370.532C254.561,370.532 253.481,370.529 252.374,370.523C251.404,370.519 250.453,370.514 249.524,370.514C244.33,370.514 240.925,370.755 239.114,371.25L237.463,371.701L237.653,373.402C238.312,379.284 246.361,390.584 255.64,390.584C264.919,390.584 272.969,379.284 273.627,373.402L273.817,371.701L272.167,371.249Z" style="fill:rgb(70,70,85);fill-rule:nonzero;"/>
    </g>
    <g transform="matrix(1,0,0,1,144,144)">
        <path d="M366.325,180.219L365.667,178.925L364.233,179.15C360.07,179.803 353.49,180.581 345.786,180.581C328.354,180.581 313.382,176.796 301.283,169.331C267.525,148.502 266.416,117.595 266.385,116.29L266.384,114.139L247.616,114.139L245.616,114.151L245.615,116.29C245.584,117.595 244.475,148.502 210.717,169.331C198.619,176.796 183.646,180.581 166.214,180.581C158.206,180.581 151.409,179.746 147.115,179.046L145.675,178.811L145.012,180.111C137.444,194.951 133.444,211.623 133.444,228.324C133.444,268.557 148.746,375.115 149.403,379.666C153.536,405.123 159.489,422.336 168.136,433.839C174.708,442.582 183.215,448.408 194.145,451.652L197.582,452.672L196.645,449.212C194.595,441.644 193.556,433.062 193.556,423.704C193.556,423.085 193.652,422.47 193.842,421.877L194.271,420.534L193.15,419.679C182.786,411.769 177.531,401.015 177.531,387.715C177.531,370.897 185.939,353.548 200.598,340.114C215.828,326.159 235.375,318.474 255.643,318.474C275.911,318.474 295.459,326.16 310.689,340.114C325.348,353.547 333.756,370.897 333.756,387.715C333.756,401.015 328.501,411.769 318.137,419.679L317.016,420.534L317.445,421.877C317.634,422.47 317.731,423.085 317.731,423.704C317.731,433.061 316.692,441.644 314.642,449.212L313.705,452.672L317.142,451.652C328.071,448.409 336.579,442.583 343.151,433.839C351.798,422.335 357.75,405.121 361.889,379.632C362.54,375.114 377.843,268.525 377.843,228.325C377.838,211.666 373.857,195.032 366.325,180.219Z" style="fill:rgb(159,137,118);fill-rule:nonzero;"/>
    </g>
    <g transform="matrix(1,0,0,1,144,144)">
        <path d="M416.218,158.335L420.622,158.327L417.719,155.016C412.425,148.979 407.179,145.918 402.126,145.918C400.05,145.918 397.904,146.449 395.746,147.498L395.634,147.557C395.504,147.631 395.372,147.698 395.158,147.801C391.668,149.645 388.102,152.86 384.56,157.355L381.347,161.433L386.466,160.565C395.076,159.104 405.086,158.354 416.218,158.335Z" style="fill:rgb(207,186,164);fill-rule:nonzero;"/>
        <path d="M422.669,170.428C421.024,170.391 419.262,170.37 417.409,170.37C408.508,170.37 391.74,170.891 379.462,174.387L377.179,175.036L378.206,177.176C384.36,189.994 388.115,203.705 389.368,217.926L389.613,220.708L392.168,219.581C402.506,215.019 420.467,202.862 424.606,172.699L424.911,170.477L422.669,170.428Z" style="fill:rgb(207,186,164);fill-rule:nonzero;"/>
    </g>
    <g transform="matrix(1,0,0,1,144,144)">
        <path d="M477.766,167.444C478.816,166.652 480.063,166.233 481.374,166.233C483.277,166.233 485.025,167.103 486.17,168.62C488.725,172.006 491.094,175.655 493.213,179.464L496.954,178.324C494.384,147.844 487.091,119.7 475.279,94.675C468.922,81.209 461.121,69.538 452.089,59.989L452.016,59.912L451.935,59.843C442.283,51.592 433.097,47.408 424.631,47.408C415.091,47.408 408.273,52.6 403.974,56.504C402.868,57.509 401.435,58.063 399.942,58.063C398.253,58.063 396.633,57.347 395.499,56.097C394.421,54.91 393.87,53.376 393.947,51.775C394.024,50.174 394.719,48.699 395.906,47.622C400.763,43.209 406.02,39.939 411.531,37.904L417.053,35.865L411.432,34.118C402.597,31.371 393.248,29.979 383.646,29.979C330.632,29.979 278.493,72.595 278.387,116.114C278.51,118.747 280.374,142.33 307.585,159.12C320.26,166.94 335.356,168.582 345.787,168.582C347.979,168.582 350.23,168.511 352.477,168.37L354.357,168.252L354.352,166.369C354.293,142.388 361.351,103.035 376.985,73.306C378.026,71.327 380.064,70.097 382.304,70.097C383.28,70.097 384.218,70.329 385.089,70.788C386.508,71.534 387.551,72.788 388.027,74.318C388.503,75.849 388.354,77.473 387.608,78.891C376.921,99.211 368.742,129.209 366.773,155.313L370.447,156.549C376.601,147.028 383.188,140.428 390.026,136.934L390.16,136.859C396.129,133.205 404.245,131.273 413.633,131.273C428.746,131.273 445.566,136.214 459.782,144.831C461.153,145.662 462.118,146.976 462.499,148.533C462.881,150.09 462.633,151.701 461.803,153.072C460.706,154.883 458.785,155.963 456.66,155.963C455.572,155.963 454.5,155.662 453.561,155.093C446.142,150.597 438.21,147.319 429.989,145.351L424.19,143.963L428.107,148.722C428.285,148.938 428.464,149.155 428.642,149.378C440.683,164.477 450.512,190.295 455.609,220.211C460.941,251.506 460.549,283.317 454.508,309.784C452.892,316.864 447.974,338.407 433.655,338.407C432.667,338.407 431.663,338.294 430.67,338.071L426.836,337.209L428.396,340.816C432.264,349.762 437.328,354.298 443.443,354.297C446.487,354.297 449.996,353.26 453.87,351.215C463.937,345.901 482.522,315.225 492.319,263.662L492.331,263.601L492.367,263.279C498.45,227.819 492.994,197.586 476.592,175.848C474.597,173.207 475.125,169.436 477.766,167.444Z" style="fill:rgb(135,115,100);fill-rule:nonzero;"/>
    </g>
    <g transform="matrix(1,0,0,1,144,144)">
        <path d="M343.777,229.986C334.947,229.986 327.763,237.17 327.763,246C327.763,254.83 334.947,262.014 343.777,262.014C352.607,262.014 359.79,254.83 359.79,246C359.79,237.17 352.607,229.986 343.777,229.986Z" style="fill-rule:nonzero;"/>
    </g>
    <g transform="matrix(1,0,0,1,144,144)">
        <path d="M167.504,229.986C158.674,229.986 151.49,237.17 151.49,246C151.49,254.83 158.674,262.014 167.504,262.014C176.334,262.014 183.517,254.83 183.517,246C183.517,237.17 176.333,229.986 167.504,229.986Z" style="fill-rule:nonzero;"/>
    </g>
    <g transform="matrix(1,0,0,1,144,144)">
        <path d="M240.256,445.739C235.858,445.387 231.993,448.668 231.639,453.073C231.285,457.477 234.568,461.336 238.973,461.69C244.202,462.11 249.809,462.324 255.642,462.324C261.475,462.324 267.082,462.111 272.31,461.69C276.714,461.336 279.998,457.479 279.644,453.073C279.29,448.669 275.442,445.387 271.027,445.739C266.225,446.125 261.048,446.321 255.642,446.321C250.236,446.321 245.058,446.126 240.256,445.739Z" style="fill-rule:nonzero;"/>
    </g>
    <g transform="matrix(1,0,0,1,144,144)">
        <path d="M487.942,90.349C465.807,43.453 428.768,17.627 383.647,17.627C328.757,17.627 276.554,56.659 266.232,101.788L245.768,101.788C235.445,56.659 183.244,17.627 128.353,17.627C83.233,17.627 46.193,43.454 24.058,90.349C-7.1,156.362 -1.298,226.524 4.934,262.472C13.715,313.12 32.903,355.384 51.596,365.25C57.506,368.369 63.212,369.95 68.557,369.95C93.297,369.95 102.083,337.705 103.374,318.653C103.63,314.872 101.195,311.436 97.545,310.414C93.895,309.393 90.025,311.077 88.281,314.442C85.271,320.248 80.463,325.532 78.492,326.027C77.816,325.537 74.361,322.419 71.141,308.318C62.67,271.207 67.103,226.341 77.672,193.688C83.203,209.412 92.256,219.438 100.145,225.589C107.381,231.233 114.559,234.389 119.534,236.083C120.821,281.22 134.919,379.021 135.547,383.357C135.553,383.402 135.56,383.446 135.568,383.491C142.168,424.185 154.946,462.582 202.531,469.379C213.098,485.726 231.095,494.372 255.64,494.372C280.185,494.372 298.181,485.725 308.749,469.379C356.334,462.581 369.112,424.185 375.712,383.491C375.719,383.446 375.726,383.402 375.733,383.357C376.359,379.031 390.408,281.571 391.739,236.326C396.726,234.697 404.259,231.513 411.854,225.589C419.742,219.436 428.796,209.41 434.327,193.688C444.896,226.341 449.328,271.208 440.858,308.318C437.653,322.361 434.212,325.511 433.516,326.021C431.485,325.477 426.713,320.217 423.725,314.456C421.991,311.08 418.121,309.389 414.466,310.403C410.809,311.42 408.369,314.865 408.625,318.653C409.917,337.706 418.703,369.952 443.443,369.95C448.789,369.95 454.494,368.368 460.404,365.25C479.097,355.384 498.285,313.12 507.066,262.472C513.298,226.524 519.099,156.362 487.942,90.349ZM119.95,219.045C109.58,214.219 93.274,202.272 89.38,174.079C101.048,173.817 118.72,174.339 131.354,177.788C125.122,190.716 121.256,204.707 119.95,219.045ZM95.785,157.986C99.444,153.812 104.489,149.569 109.873,149.569C111.661,149.569 113.502,150.036 115.381,150.948C115.553,151.045 115.727,151.135 115.903,151.218C119.153,152.934 122.505,155.973 125.867,160.243C115.448,158.476 104.443,158 95.785,157.986ZM122.885,136.801C106.22,126.6 75.653,129.935 51.183,144.769C47.404,147.059 46.197,151.979 48.488,155.758C49.992,158.24 52.632,159.613 55.338,159.612C56.75,159.612 58.181,159.238 59.477,158.452C67.223,153.758 75.105,150.709 82.477,148.945C82.25,149.221 82.023,149.494 81.795,149.779C69.549,165.135 59.572,191.284 54.419,221.523C49.044,253.07 49.443,285.158 55.542,311.877C57.246,319.342 62.43,342.056 78.343,342.055C78.344,342.055 78.346,342.055 78.347,342.055C79.518,342.055 80.66,341.919 81.768,341.669C78.81,348.511 74.531,353.945 68.556,353.945C65.842,353.945 62.647,352.986 59.063,351.094C49.393,345.99 31.205,315.25 21.645,264.936C21.63,264.82 21.624,264.705 21.603,264.588C15.616,229.687 20.942,199.988 37.004,178.7C39.665,175.173 38.963,170.156 35.436,167.494C31.911,164.833 26.892,165.534 24.23,169.062C21.808,172.272 19.362,175.957 17.035,180.139C19.254,153.815 25.367,125.054 38.526,97.175C44.858,83.76 52.543,72.333 61.36,63.009C83.971,43.682 98.038,51.785 106.677,59.631C109.947,62.603 115.007,62.359 117.978,59.089C120.949,55.819 120.706,50.758 117.436,47.788C113.445,44.162 107.95,40.183 101.158,37.675C109.76,35.001 118.852,33.626 128.351,33.626C180.414,33.626 231.512,75.235 231.612,117.672C231.55,119.027 230.07,142.585 203.361,159.064C191.087,166.638 176.385,168.228 166.213,168.228C166.213,168.228 166.212,168.228 166.211,168.228C163.895,168.228 161.692,168.148 159.645,168.02C159.708,142.553 152.187,103.314 136.782,74.021C134.724,70.111 129.887,68.607 125.976,70.665C122.066,72.722 120.562,77.56 122.62,81.471C134.392,103.854 141.493,134.073 143.231,157.111C136.863,147.255 130.064,140.47 122.885,136.801ZM297.492,456.915C296.911,457.635 296.46,458.457 296.155,459.342C288.527,472.093 275.092,478.371 255.64,478.371C236.188,478.371 222.754,472.093 215.125,459.342C214.82,458.457 214.368,457.635 213.787,456.915C210.29,450.062 208.271,441.555 207.718,431.351C220.193,435.949 236.259,438.285 255.64,438.285C275.021,438.285 291.087,435.95 303.562,431.351C303.009,441.555 300.99,450.063 297.492,456.915ZM239.641,374.831C241.258,374.389 244.571,374.165 249.526,374.165C250.469,374.165 251.435,374.17 252.421,374.175C254.527,374.187 256.752,374.187 258.86,374.175C259.845,374.17 260.811,374.165 261.755,374.165C263.724,374.165 269.231,374.165 271.64,374.829C271.055,380.075 263.592,390.235 255.64,390.235C247.69,390.234 240.229,380.077 239.641,374.831ZM263.641,422.143L263.641,404.972C277.788,400.472 287.678,384.882 287.678,374.198C287.678,367.316 283.839,362.072 277.144,359.811C272.645,358.291 267.074,358.165 261.753,358.165C260.783,358.165 259.789,358.17 258.775,358.175C256.722,358.186 254.555,358.186 252.503,358.175C251.49,358.17 250.496,358.165 249.525,358.165C244.205,358.165 238.634,358.292 234.135,359.812C227.44,362.073 223.601,367.318 223.601,374.199C223.601,384.883 233.49,400.473 247.638,404.973L247.638,422.144C210.397,420.803 191.528,409.794 191.528,389.367C191.528,363.822 219.533,334.127 255.638,334.127C291.743,334.127 319.748,363.822 319.748,389.367C319.751,409.792 300.882,420.801 263.641,422.143ZM359.905,380.996C355.826,406.12 349.992,423.053 341.548,434.287C335.243,442.675 327.131,448.25 316.569,451.384C318.657,443.672 319.727,434.983 319.727,425.353C319.727,424.503 319.592,423.686 319.347,422.918C330.11,414.703 335.753,403.278 335.753,389.364C335.753,371.987 327.108,354.099 312.037,340.288C296.438,325.995 276.409,318.122 255.641,318.122C234.873,318.122 214.844,325.994 199.245,340.288C184.172,354.099 175.529,371.986 175.529,389.364C175.529,403.278 181.172,414.703 191.935,422.918C191.689,423.686 191.555,424.503 191.555,425.353C191.555,434.983 192.625,443.672 194.713,451.384C184.151,448.251 176.038,442.675 169.734,434.287C161.29,423.053 155.457,406.118 151.377,380.995C150.905,377.724 135.444,270.078 135.444,229.974C135.444,213.481 139.362,197.243 146.794,182.67C151.209,183.39 158.097,184.231 166.215,184.231C166.216,184.231 166.216,184.231 166.217,184.231C184.024,184.231 199.349,180.346 211.768,172.684C246.447,151.286 247.584,119.337 247.616,117.987C247.617,117.925 247.618,117.863 247.618,117.801C247.618,117.797 247.618,117.793 247.618,117.789L264.386,117.789C264.386,117.793 264.386,117.797 264.386,117.801C264.386,117.863 264.386,117.925 264.388,117.987C264.42,119.337 265.555,151.286 300.236,172.684C312.654,180.347 327.98,184.231 345.788,184.231C353.509,184.231 360.118,183.47 364.546,182.776C371.943,197.322 375.841,213.521 375.841,229.974C375.838,270.074 360.374,377.738 359.905,380.996ZM391.361,219.403C390.092,205.004 386.245,190.95 380.01,177.962C392.683,174.355 410.763,173.816 422.624,174.079C418.649,203.046 401.716,214.833 391.361,219.403ZM386.131,160.244C389.493,155.975 392.845,152.935 396.093,151.22C396.27,151.137 396.445,151.046 396.618,150.949C398.495,150.037 400.337,149.57 402.125,149.57C407.51,149.57 412.554,153.812 416.213,157.986C407.556,158 396.552,158.476 386.131,160.244ZM474.993,178.704C491.055,199.991 496.38,229.69 490.394,264.592C490.374,264.709 490.367,264.824 490.352,264.94C480.792,315.254 462.604,345.994 452.934,351.098C449.351,352.989 446.156,353.948 443.441,353.949C437.464,353.949 433.188,348.515 430.229,341.673C431.339,341.923 432.48,342.058 433.653,342.058C449.568,342.058 454.752,319.344 456.456,311.88C462.556,285.161 462.954,253.073 457.579,221.526C452.428,191.287 442.45,165.137 430.203,149.782C429.975,149.497 429.748,149.223 429.521,148.947C436.894,150.711 444.777,153.759 452.522,158.454C453.818,159.24 455.248,159.614 456.661,159.614C459.366,159.614 462.007,158.242 463.511,155.76C465.801,151.982 464.595,147.061 460.816,144.771C436.345,129.938 405.777,126.602 389.114,136.803C381.935,140.471 375.136,147.257 368.765,157.113C370.503,134.075 377.604,103.857 389.376,81.473C391.433,77.562 389.93,72.724 386.02,70.667C382.109,68.609 377.271,70.114 375.214,74.023C359.808,103.316 352.288,142.556 352.351,168.022C350.304,168.151 348.101,168.23 345.785,168.23C335.613,168.23 320.911,166.641 308.635,159.066C282.003,142.633 280.458,119.238 280.385,117.668C280.491,75.234 331.587,33.627 383.646,33.627C393.146,33.627 402.237,35.002 410.839,37.676C404.047,40.183 398.553,44.163 394.561,47.789C391.29,50.76 391.047,55.82 394.019,59.09C396.989,62.361 402.05,62.604 405.32,59.632C413.959,51.785 428.026,43.683 450.636,63.009C459.453,72.333 467.139,83.76 473.47,97.175C486.629,125.054 492.742,153.816 494.961,180.139C492.635,175.957 490.189,172.272 487.766,169.062C485.104,165.535 480.087,164.834 476.56,167.494C473.034,170.16 472.332,175.177 474.993,178.704Z" style="fill-rule:nonzero;"/>
    </g>
</svg>
