<svg height="250" viewBox="0 0 250 250" width="250" xmlns="http://www.w3.org/2000/svg" xmlns:xlink="http://www.w3.org/1999/xlink"><linearGradient id="a" gradientUnits="userSpaceOnUse" x1="113.5" x2="113.5" y1="-119.175003" y2="363.200012"><stop offset=".194948" stop-color="#708b96"/><stop offset="1" stop-color="#f7fbe7"/></linearGradient><path d="m125 7.8125c64.71875 0 117.1875 52.464844 117.1875 117.1875 0 64.71875-52.46875 117.1875-117.1875 117.1875-64.722656 0-117.1875-52.46875-117.1875-117.1875 0-64.722656 52.464844-117.1875 117.1875-117.1875zm0 0" fill="#fff"/><path d="m70 70.25h110v110h-110zm0 0" fill="#fff"/><path d="m137 180v.25h43v-15.5h-21.234375c12.777344-9.679688 20.984375-24.726562 20.984375-41.625 0-29.203125-24.511719-52.875-54.75-52.875s-54.75 23.671875-54.75 52.875c0 16.898438 8.207031 31.945312 20.984375 41.625h-21.234375v15.5h43v-20.832031c-15.667969-4.933594-27-19.261719-27-36.167969 0-20.988281 17.460938-38 39-38s39 17.011719 39 38c0 16.90625-11.332031 31.234375-27 36.167969zm0 0" fill="#708b96" fill-rule="evenodd"/><path d="m113.5 7.09375c58.764625 0 106.40625 47.638078 106.40625 106.40625 0 58.764625-47.641625 106.40625-106.40625 106.40625-58.768172 0-106.40625-47.641625-106.40625-106.40625 0-58.768172 47.638078-106.40625 106.40625-106.40625zm0 0" fill="none" stroke="url(#a)" stroke-width="14.1875" transform="scale(1.101322)"/></svg>