
<svg xmlns="http://www.w3.org/2000/svg" xmlns:xlink="http://www.w3.org/1999/xlink" width="250px" height="250px" viewBox="0 0 250 250" version="1.1">
<defs>
<linearGradient id="linear0" gradientUnits="userSpaceOnUse" x1="113.5" y1="-119.175003" x2="113.5" y2="363.200012" gradientTransform="matrix(1,0,0,1,0,0)">
<stop offset="0.194948" style="stop-color:rgb(43.921569%,54.509807%,58.823532%);stop-opacity:1;"/>
<stop offset="1" style="stop-color:rgb(96.862745%,98.431373%,90.588236%);stop-opacity:1;"/>
</linearGradient>
</defs>
<g id="surface1">
<path style=" stroke:none;fill-rule:nonzero;fill:rgb(100%,100%,100%);fill-opacity:1;" d="M 125 7.8125 C 189.71875 7.8125 242.1875 60.277344 242.1875 125 C 242.1875 189.71875 189.71875 242.1875 125 242.1875 C 60.277344 242.1875 7.8125 189.71875 7.8125 125 C 7.8125 60.277344 60.277344 7.8125 125 7.8125 Z M 125 7.8125 "/>
<path style=" stroke:none;fill-rule:nonzero;fill:rgb(100%,100%,100%);fill-opacity:1;" d="M 70 70.25 L 180 70.25 L 180 180.25 L 70 180.25 Z M 70 70.25 "/>
<path style=" stroke:none;fill-rule:evenodd;fill:rgb(43.921569%,54.509807%,58.823532%);fill-opacity:1;" d="M 137 180 L 137 180.25 L 180 180.25 L 180 164.75 L 158.765625 164.75 C 171.542969 155.070312 179.75 140.023438 179.75 123.125 C 179.75 93.921875 155.238281 70.25 125 70.25 C 94.761719 70.25 70.25 93.921875 70.25 123.125 C 70.25 140.023438 78.457031 155.070312 91.234375 164.75 L 70 164.75 L 70 180.25 L 113 180.25 L 113 159.417969 C 97.332031 154.484375 86 140.15625 86 123.25 C 86 102.261719 103.460938 85.25 125 85.25 C 146.539062 85.25 164 102.261719 164 123.25 C 164 140.15625 152.667969 154.484375 137 159.417969 Z M 137 180 "/>
<path style="fill:none;stroke-width:14.1875;stroke-linecap:butt;stroke-linejoin:miter;stroke:url(#linear0);stroke-miterlimit:4;" d="M 113.5 7.09375 C 172.264625 7.09375 219.90625 54.731828 219.90625 113.5 C 219.90625 172.264625 172.264625 219.90625 113.5 219.90625 C 54.731828 219.90625 7.09375 172.264625 7.09375 113.5 C 7.09375 54.731828 54.731828 7.09375 113.5 7.09375 Z M 113.5 7.09375 " transform="matrix(1.101322,0,0,1.101322,0,0)"/>
</g>
</svg>
