<svg height="250" viewBox="0 0 250 250" width="250" xmlns="http://www.w3.org/2000/svg"><path d="m0 125v125h250v-250h-250zm174.316406-110.351562 2.734375 2.929687-12.5 12.597656-12.5 12.695313 2.441407 3.710937c4.589843 7.03125 6.835937 15.136719 6.835937 25.292969 0 8.691406-.585937 11.523438-3.417969 17.96875-2.148437 4.6875-6.835937 11.230469-10.742187 14.84375-3.808594 3.515625-14.257813 9.570312-16.601563 9.570312-.683594 0-2.832031.488282-4.785156 1.074219l-3.710938.976563v31.152344l2.734376.585937c17.675781 3.90625 28.710937 13.671875 35.351562 31.347656 1.953125 5.078125 1.367188 21.386719-.878906 27.441407-5.371094 14.355468-15.234375 23.828124-29.296875 28.125-5.46875 1.660156-17.675781 1.757812-22.460938.292968-20.214843-6.445312-32.324219-22.753906-32.324219-43.359375 0-8.789062.683594-11.816406 4.980469-20.605469 4.882813-10.15625 16.308594-19.433593 26.757813-21.972656 2.734375-.585937 5.46875-1.269531 6.152344-1.464844.976562-.292968 1.171874-4.003906.976562-16.210937l-.292969-15.917969-4.882812-1.074218c-15.332031-3.417969-27.148438-14.84375-32.519531-31.738282-.683594-1.855468-1.171876-6.933594-1.171876-11.328125 0-19.53125 11.230469-35.644531 29.492188-42.382812 10.839844-3.90625 27.148438-1.953125 36.914062 4.6875 1.855469 1.171875 3.90625 2.246093 4.492188 2.246093s6.445312-5.46875 12.988281-12.207031c6.640625-6.738281 12.109375-12.207031 12.207031-12.207031.097657 0 1.464844 1.269531 3.027344 2.929688zm0 0"/><path d="m106.835938 37.402344c-8.007813 3.027344-15.527344 9.863281-19.335938 17.285156-4.882812 9.570312-5.46875 18.261719-2.050781 28.808594 5.46875 16.894531 25.097656 27.539062 41.601562 22.558594 7.03125-2.148438 11.71875-4.980469 16.113281-9.570313 17.089844-17.773437 11.816407-47.070313-10.351562-57.714844-5.175781-2.441406-20.898438-3.320312-25.976562-1.367187zm0 0"/><path d="m107.226562 158.203125c-12.109374 4.589844-19.628906 13.085937-23.144531 25.976563-3.90625 14.355468 4.296875 32.128906 18.261719 39.746093 22.851562 12.402344 50.976562-5.273437 50.976562-32.03125 0-16.113281-10.15625-29.394531-26.269531-34.570312-4.882812-1.5625-14.550781-1.171875-19.824219.878906zm0 0"/></svg>