
<svg xmlns="http://www.w3.org/2000/svg" xmlns:xlink="http://www.w3.org/1999/xlink" width="250px" height="250px" viewBox="0 0 250 250" version="1.1">
<g id="surface1">
<path style=" stroke:none;fill-rule:nonzero;fill:rgb(0%,0%,0%);fill-opacity:1;" d="M 0 125 L 0 250 L 250 250 L 250 0 L 0 0 Z M 174.316406 14.648438 L 177.050781 17.578125 L 164.550781 30.175781 L 152.050781 42.871094 L 154.492188 46.582031 C 159.082031 53.613281 161.328125 61.71875 161.328125 71.875 C 161.328125 80.566406 160.742188 83.398438 157.910156 89.84375 C 155.761719 94.53125 151.074219 101.074219 147.167969 104.6875 C 143.359375 108.203125 132.910156 114.257812 130.566406 114.257812 C 129.882812 114.257812 127.734375 114.746094 125.78125 115.332031 L 122.070312 116.308594 L 122.070312 147.460938 L 124.804688 148.046875 C 142.480469 151.953125 153.515625 161.71875 160.15625 179.394531 C 162.109375 184.472656 161.523438 200.78125 159.277344 206.835938 C 153.90625 221.191406 144.042969 230.664062 129.980469 234.960938 C 124.511719 236.621094 112.304688 236.71875 107.519531 235.253906 C 87.304688 228.808594 75.195312 212.5 75.195312 191.894531 C 75.195312 183.105469 75.878906 180.078125 80.175781 171.289062 C 85.058594 161.132812 96.484375 151.855469 106.933594 149.316406 C 109.667969 148.730469 112.402344 148.046875 113.085938 147.851562 C 114.0625 147.558594 114.257812 143.847656 114.0625 131.640625 L 113.769531 115.722656 L 108.886719 114.648438 C 93.554688 111.230469 81.738281 99.804688 76.367188 82.910156 C 75.683594 81.054688 75.195312 75.976562 75.195312 71.582031 C 75.195312 52.050781 86.425781 35.9375 104.6875 29.199219 C 115.527344 25.292969 131.835938 27.246094 141.601562 33.886719 C 143.457031 35.058594 145.507812 36.132812 146.09375 36.132812 C 146.679688 36.132812 152.539062 30.664062 159.082031 23.925781 C 165.722656 17.1875 171.191406 11.71875 171.289062 11.71875 C 171.386719 11.71875 172.753906 12.988281 174.316406 14.648438 Z M 174.316406 14.648438 "/>
<path style=" stroke:none;fill-rule:nonzero;fill:rgb(0%,0%,0%);fill-opacity:1;" d="M 106.835938 37.402344 C 98.828125 40.429688 91.308594 47.265625 87.5 54.6875 C 82.617188 64.257812 82.03125 72.949219 85.449219 83.496094 C 90.917969 100.390625 110.546875 111.035156 127.050781 106.054688 C 134.082031 103.90625 138.769531 101.074219 143.164062 96.484375 C 160.253906 78.710938 154.980469 49.414062 132.8125 38.769531 C 127.636719 36.328125 111.914062 35.449219 106.835938 37.402344 Z M 106.835938 37.402344 "/>
<path style=" stroke:none;fill-rule:nonzero;fill:rgb(0%,0%,0%);fill-opacity:1;" d="M 107.226562 158.203125 C 95.117188 162.792969 87.597656 171.289062 84.082031 184.179688 C 80.175781 198.535156 88.378906 216.308594 102.34375 223.925781 C 125.195312 236.328125 153.320312 218.652344 153.320312 191.894531 C 153.320312 175.78125 143.164062 162.5 127.050781 157.324219 C 122.167969 155.761719 112.5 156.152344 107.226562 158.203125 Z M 107.226562 158.203125 "/>
</g>
</svg>
