<svg width="309" height="308" viewBox="0 0 309 308" fill="none" xmlns="http://www.w3.org/2000/svg">
<circle cx="153.904" cy="152.902" r="145.705" fill="#24262E"/>
<path d="M20.5415 146.66H0.357544C3.83416 67.4814 67.3892 3.92779 146.567 0.451172V20.6337C78.5338 24.0757 23.9821 78.6274 20.5415 146.66Z" fill="#F0CE0E"/>
<path d="M306.443 146.659H286.259C282.852 79.2813 229.304 25.1613 162.185 20.7823V0.544922C240.454 4.97154 302.995 68.1324 306.443 146.659Z" fill="#F0CE0E"/>
<path d="M146.569 306.53C68.0423 303.084 4.87989 240.542 0.454712 162.273H20.6907C25.0697 229.39 79.1911 282.939 146.569 286.347V306.53Z" fill="#F0CE0E"/>
<path d="M162.185 306.436V286.199C228.651 281.862 281.775 228.738 286.112 162.273H306.348C301.959 239.892 239.806 302.047 162.185 306.436Z" fill="#F0CE0E"/>
<path d="M299.662 152.945H295.33C295.329 191.994 279.508 227.326 253.92 252.917C228.328 278.506 192.996 294.326 153.947 294.327C114.899 294.326 79.5667 278.506 53.9743 252.917C28.3862 227.326 12.5653 191.994 12.5639 152.945C12.5653 113.895 28.3848 78.5632 53.9743 52.9722C68.5694 38.3785 86.3322 26.9626 106.145 19.8462C121.074 14.484 137.168 11.5618 153.947 11.5618C192.996 11.5632 228.328 27.3827 253.92 52.9722C279.508 78.5632 295.329 113.895 295.33 152.945H299.662C299.66 72.4676 234.425 7.23191 153.947 7.23047C73.4696 7.23191 8.23399 72.4676 8.23254 152.945C8.23399 233.421 73.4696 298.657 153.947 298.658C234.425 298.657 299.66 233.421 299.662 152.945Z" fill="#24262E"/>
<path d="M88.7795 145.883C87.1422 145.887 85.5733 146.54 84.4155 147.698C83.2578 148.855 82.6054 150.424 82.601 152.061V169.441C82.6645 173.551 83.0346 177.652 83.7082 181.707C83.7082 181.707 85.9493 193.994 92.8275 201.607C99.8171 209.112 114.109 211.674 114.109 211.674C118.166 212.341 122.266 212.705 126.376 212.765H184.588C188.693 212.693 192.785 212.283 196.822 211.54C196.822 211.54 207.475 209.377 213.689 203.203C219.95 197.117 221.934 186.931 221.934 186.931C222.652 182.887 223.047 178.791 223.116 174.684V152.061C223.111 150.424 222.458 148.856 221.3 147.698C220.143 146.541 218.574 145.888 216.937 145.883H174.455C172.69 145.961 170.988 146.567 169.571 147.623C168.154 148.678 167.087 150.135 166.507 151.804L164.309 159.164C163.333 162.425 165.316 165.089 168.717 165.089H191.959C195.356 165.089 198.138 167.457 198.138 170.352C198.138 173.247 197.806 178.383 197.405 181.753C197.073 183.65 196.208 185.414 194.911 186.838C193.591 188.264 191.844 189.223 189.932 189.572C185.854 190.098 181.748 190.388 177.636 190.439H133.863C129.755 190.375 125.658 190.002 121.607 189.323C118.525 188.621 115.684 187.118 113.37 184.965C111.063 182.692 109.46 179.803 108.753 176.643C108.094 172.585 107.733 168.486 107.672 164.376V152.057C107.666 150.421 107.014 148.853 105.857 147.696C104.701 146.538 103.133 145.885 101.496 145.879H88.7795V145.883Z" fill="#F0CE0E"/>
<path d="M89.0702 116.173C87.4392 119.159 88.887 121.597 92.2877 121.597H204.765C206.534 121.518 208.238 120.914 209.662 119.863C211.086 118.812 212.165 117.361 212.762 115.694L215.727 106.038C216.725 102.79 214.763 100.135 211.369 100.135H126.68C122.571 100.197 118.471 100.56 114.414 101.22C114.414 101.22 99.8067 103.837 93.0141 111.13C91.5247 112.667 90.2026 114.358 89.0702 116.173V116.173Z" fill="#F0CE0E"/>
</svg>
