<?xml version="1.0" encoding="UTF-8" standalone="no"?>
<!-- Created with Inkscape (http://www.inkscape.org/) -->

<svg
   version="1.1"
   id="svg9"
   width="1029.3333"
   height="1006.6667"
   viewBox="0 0 1029.3333 1006.6667"
   sodipodi:docname="GRODYI.svg"
   inkscape:version="1.1.1 (3bf5ae0d25, 2021-09-20)"
   xmlns:inkscape="http://www.inkscape.org/namespaces/inkscape"
   xmlns:sodipodi="http://sodipodi.sourceforge.net/DTD/sodipodi-0.dtd"
   xmlns="http://www.w3.org/2000/svg"
   xmlns:svg="http://www.w3.org/2000/svg">
  <defs
     id="defs13" />
  <sodipodi:namedview
     id="namedview11"
     pagecolor="#ffffff"
     bordercolor="#666666"
     borderopacity="1.0"
     inkscape:pageshadow="2"
     inkscape:pageopacity="0.0"
     inkscape:pagecheckerboard="true"
     showgrid="false"
     inkscape:zoom="0.50463575"
     inkscape:cx="514.2323"
     inkscape:cy="374.52757"
     inkscape:window-width="1366"
     inkscape:window-height="716"
     inkscape:window-x="-8"
     inkscape:window-y="-8"
     inkscape:window-maximized="1"
     inkscape:current-layer="g15" />
  <g
     inkscape:groupmode="layer"
     inkscape:label="Image"
     id="g15">
    <path
       style="fill:#ffc308;fill-opacity:1;stroke-width:1.14402"
       d="m 508.09944,786.06611 c -18.77262,-2.29819 -26.17439,-3.56087 -32.04262,-5.46623 -2.83234,-0.91963 -8.23954,-2.5622 -12.016,-3.65013 -17.12193,-4.93258 -43.99425,-16.71132 -54.71784,-23.98407 -2.35446,-1.59681 -5.68281,-3.63577 -7.39633,-4.53104 -5.60956,-2.93087 -25.38636,-17.93799 -29.23518,-22.18438 -0.73996,-0.81641 -2.08466,-2.10304 -2.98822,-2.85919 -10.08778,-8.4421 -35.52767,-37.33569 -35.54313,-40.36843 -0.004,-0.68879 -1.087,-2.2297 -2.40777,-3.42424 -4.92694,-4.45608 -20.52311,-33.82882 -25.53315,-48.08737 -1.73823,-4.94698 -3.57962,-10.02382 -4.09198,-11.28186 -0.51235,-1.25805 -1.80687,-5.37528 -2.87671,-9.14941 -1.06984,-3.77413 -2.39911,-8.40602 -2.95392,-10.29307 -6.77838,-23.05503 -9.3102,-63.50338 -5.6554,-90.35034 3.07401,-22.58053 10.25251,-50.57859 16.86074,-65.76133 15.32252,-35.20428 33.34837,-61.27832 60.78152,-87.91925 30.24181,-29.36849 72.33903,-52.20329 115.19215,-62.48372 14.37501,-3.44856 37.29436,-6.3525 54.1705,-6.86356 12.14088,-0.36765 35.88926,1.56639 48.84335,3.97773 3.14704,0.58581 8.76092,1.62498 12.47528,2.30924 20.63511,3.80147 67.04413,23.70191 78.50289,33.66249 1.57352,1.36779 4.2035,3.15322 5.84435,3.96764 1.64088,0.8144 7.82053,5.36255 13.73256,10.10698 16.31841,13.0956 35.90745,33.56858 45.7115,47.77421 2.1706,3.1451 4.20405,5.9757 4.51875,6.29021 0.31471,0.31451 1.31347,1.85848 2.21948,3.43102 0.90602,1.57255 3.52351,5.94711 5.81665,9.72124 4.62009,7.60393 9.67349,17.31447 13.98655,26.87637 5.77192,12.79613 14.83638,42.30239 16.16716,52.62664 0.28253,2.1919 1.20361,7.58786 2.04684,11.99102 1.90015,9.922 1.95556,56.77005 0.0817,69.19234 -2.18973,14.51727 -5.74121,29.73326 -10.01024,42.88781 -4.40246,13.56574 -14.38718,36.99468 -17.86536,41.9207 -1.17892,1.66966 -2.14348,3.33322 -2.14348,3.6968 0,1.5747 -10.20721,17.13666 -18.83859,28.72139 -38.46947,51.6324 -93.8031,85.4131 -160.25682,97.8354 -16.67732,3.11751 -51.75071,3.94895 -70.37935,1.66839 z m 65.01991,-17.53897 c 28.22515,-4.31212 64.63819,-17.67708 88.29466,-32.40748 21.4447,-13.35316 49.48482,-38.39689 63.0267,-56.29161 19.31883,-25.52858 36.31647,-58.92075 41.98095,-82.47239 6.59725,-27.4298 8.31823,-40.8549 8.31823,-64.88907 0,-8.90623 -0.5705,-20.59444 -1.26776,-25.97375 -3.05614,-23.57801 -10.83906,-50.63033 -19.97032,-69.41408 -2.79547,-5.7505 -5.08266,-10.72761 -5.08266,-11.06024 0,-1.1798 -11.87927,-19.80015 -18.74223,-29.37785 -5.88232,-8.20913 -12.72491,-16.23659 -21.36622,-25.06605 -3.00793,-3.07341 -18.63507,-16.90988 -22.26023,-19.70949 -1.88822,-1.45821 -3.9481,-3.07584 -4.57752,-3.59472 -1.03028,-0.84935 -3.2493,-2.31615 -10.28053,-6.79558 -1.24845,-0.79535 -4.33827,-2.7797 -6.86627,-4.40964 -8.77508,-5.6578 -18.24757,-10.36983 -31.98376,-15.91008 -27.55441,-11.11358 -49.11721,-15.82618 -81.32871,-17.7746 -16.47897,-0.99677 -47.20062,2.40319 -64.26586,7.11231 -3.67712,1.0147 -7.9731,1.89953 -9.54663,1.96632 -1.57352,0.0668 -3.54144,0.76471 -4.37317,1.55099 -0.83171,0.78628 -2.1227,1.4296 -2.86887,1.4296 -2.46614,0 -25.20106,9.69977 -35.17071,15.00547 -32.47073,17.28041 -59.44119,40.40536 -81.87182,70.19833 -19.82477,26.33181 -35.56169,61.91175 -41.2263,93.20952 -0.9677,5.34668 -2.24543,12.55185 -2.83939,16.01146 -2.0064,11.68652 -2.2298,47.66858 -0.36215,58.32743 2.80498,16.00825 3.18431,18.70181 3.18101,22.58758 -0.003,2.04432 0.40185,3.71694 0.89687,3.71694 0.49502,0 1.45872,2.18729 2.14154,4.86063 3.2489,12.71975 11.92721,36.87372 14.27925,39.74271 0.77351,0.94353 2.7768,4.54611 4.45176,8.00572 3.35228,6.92413 5.16811,10.00585 7.21976,12.25299 0.74552,0.81656 1.70571,2.6396 2.13373,4.05116 0.94687,3.12265 7.91489,12.69338 16.15172,22.18473 3.35917,3.87081 6.10758,7.29735 6.10758,7.61455 0,1.08347 23.44768,23.54632 28.52299,27.325 2.78475,2.07331 6.90452,5.17599 9.15503,6.89487 2.25051,1.71887 4.84574,3.48882 5.7672,3.93321 0.92143,0.44441 4.60846,2.75504 8.19338,5.13474 9.89155,6.5661 28.55073,15.73568 44.60807,21.92147 8.04346,3.0986 25.52561,7.62951 29.43784,7.62951 1.29301,0 2.62717,0.44669 2.9648,0.99265 0.33762,0.54596 3.3291,1.08753 6.64772,1.20351 3.31861,0.11598 8.09373,0.66363 10.61136,1.217 5.72117,1.25749 52.40646,0.55618 62.15896,-0.93377 z m -51.85954,-7.7822 c -35.19309,-4.79875 -49.80803,-8.60206 -73.19731,-19.04847 -17.64973,-7.88295 -43.86878,-24.72275 -53.96104,-34.65772 -1.97825,-1.94741 -5.2129,-4.69081 -7.18816,-6.09644 -4.2182,-3.00179 -18.01998,-18.95871 -25.12049,-29.04309 -2.73668,-3.8867 -5.8804,-8.09603 -6.98609,-9.35408 -5.25553,-5.97972 -18.80802,-32.99594 -22.94865,-45.74701 -1.42983,-4.40313 -3.76824,-11.6083 -5.19651,-16.01144 -1.42825,-4.40316 -3.45656,-13.15227 -4.50735,-19.44249 -1.05078,-6.29021 -2.35388,-13.23803 -2.89576,-15.43961 -1.51147,-6.14079 -1.09519,-42.76099 0.61753,-54.32457 2.18743,-14.76876 5.0289,-29.36749 6.23287,-32.02291 0.5704,-1.25804 1.89038,-5.37527 2.93329,-9.14939 1.04292,-3.77413 3.04864,-9.43533 4.45712,-12.58043 1.40849,-3.14511 3.78636,-8.54898 5.28416,-12.00859 2.82279,-6.52008 13.55208,-26.44325 14.78178,-27.44821 0.38484,-0.3145 2.28865,-3.00555 4.23069,-5.98009 12.69812,-19.44918 36.70912,-44.07487 54.17567,-55.56255 3.46176,-2.27678 6.55157,-4.43161 6.86629,-4.78851 0.93105,-1.05588 11.56724,-7.53997 17.73787,-10.81343 3.14704,-1.66948 6.49436,-3.49101 7.43847,-4.04787 11.27302,-6.64893 38.15633,-15.458 60.65211,-19.87438 32.20976,-6.32345 71.13317,-4.21809 103.70707,5.60951 5.11268,1.54249 10.77735,3.57673 12.58818,4.52056 1.81082,0.9438 3.87584,1.71917 4.58892,1.72305 4.15105,0.0226 37.34526,17.39825 40.50415,21.2021 0.76659,0.92315 1.92893,1.67845 2.58292,1.67845 3.84658,0 36.98597,29.76922 47.76716,42.9094 7.33969,8.94565 21.62376,31.58084 27.05099,42.86623 13.91793,28.94092 20.61661,56.78124 21.78171,90.52679 1.80733,52.34652 -13.39442,99.66004 -46.05965,143.3548 -34.04477,45.54014 -85.81164,76.88018 -142.43746,86.23268 -13.52056,2.2331 -47.21708,3.94448 -55.48048,2.81771 z m 56.0746,-17.68213 c 43.46107,-8.07791 80.6306,-27.56034 112.15836,-58.78783 12.63342,-12.51309 17.45359,-18.33945 27.41107,-33.13297 23.77699,-35.3247 37.12204,-80.64252 35.54082,-120.69135 -0.79768,-20.20381 -1.54281,-26.18842 -5.19742,-41.74414 -9.36891,-39.87843 -27.38782,-72.37297 -55.64876,-100.35458 -6.82786,-6.76038 -14.02314,-13.45089 -15.98951,-14.86779 -1.96638,-1.41689 -6.45039,-4.76346 -9.96446,-7.4368 -3.51407,-2.67333 -6.6309,-4.86062 -6.92629,-4.86062 -0.29538,0 -4.57244,-2.47513 -9.50459,-5.50032 -8.71348,-5.34449 -31.68349,-15.38323 -43.26973,-18.91045 -34.45534,-10.48931 -78.21525,-11.41489 -111.98006,-2.36851 -3.86948,1.03671 -7.80788,2.01084 -8.75199,2.16473 -1.84245,0.3003 -4.90534,1.34849 -8.58285,2.93724 -1.25881,0.54383 -5.63605,2.34452 -9.72722,4.00152 -55.92863,22.65219 -100.03413,68.52972 -120.67933,125.52784 -2.20528,6.08847 -4.26751,12.23246 -4.58272,13.65332 -0.31522,1.42087 -1.3619,5.92864 -2.32596,10.01728 -3.42721,14.5349 -4.06506,20.27983 -4.69767,42.30957 -0.35212,12.26237 -0.85323,22.50809 -1.11355,22.76827 -0.26033,0.26016 -0.009,1.03504 0.55799,1.72193 0.56722,0.6869 1.31362,3.56485 1.65869,6.39544 0.34505,2.8306 1.17914,8.38769 1.85349,12.34909 0.67436,3.9614 0.95911,7.63432 0.63275,8.16206 -0.32636,0.52772 0.10917,1.5422 0.96778,2.25436 0.85863,0.71217 1.87316,3.24479 2.25449,5.62804 2.26031,14.12634 18.69223,48.81577 31.55977,66.62569 8.06047,11.1565 31.76596,35.9589 37.73858,39.48485 1.94383,1.14753 3.53423,2.4577 3.53423,2.91146 0,1.01371 16.02128,11.47583 26.89292,17.56146 15.0134,8.40409 24.8895,12.46798 45.77519,18.83602 21.79342,6.6448 64.20925,8.21427 90.40598,3.34519 z M 464.66799,682.23766 c 0.0629,-2.902 2.23239,-7.13042 7.95569,-15.50568 4.01263,-5.87195 6.26981,-7.6537 4.94181,-3.90092 -0.41974,1.18616 0.99335,0.39599 3.46905,-1.93986 2.29753,-2.16771 4.17731,-3.39646 4.17731,-2.73053 0,1.08975 -4.40666,7.3529 -8.31522,11.81837 -0.82585,0.94353 -3.2838,4.39859 -5.46212,7.67791 -4.51376,6.79526 -6.84874,8.37594 -6.76652,4.58071 z m 19.04527,0.73025 c -1.01871,-1.01807 -1.00974,-5.93815 0.0198,-10.84449 l 0.80992,-3.8599 0.77124,3.43103 0.77125,3.43102 0.15292,-3.43102 c 0.0841,-1.88707 0.69466,-4.20301 1.3568,-5.14654 0.86377,-1.23086 0.99376,0.54624 0.46009,6.29021 -0.70075,7.54264 -2.56913,11.90148 -4.34199,10.12969 z m 31.82465,-1.55959 c -2.51764,-0.5524 -6.50866,-1.03405 -8.86894,-1.07031 -2.36029,-0.0362 -4.29141,-0.48664 -4.29141,-1.00087 0,-0.51423 -2.70362,-1.41487 -6.00801,-2.00142 l -6.00799,-1.06647 v -11.15082 c 0,-12.58575 -0.0501,-12.53334 8.33399,-8.71629 2.94109,1.339 8.55448,2.98354 12.47421,3.65455 6.27501,1.07421 7.39333,0.97892 9.35716,-0.79724 2.02261,-1.8293 2.85366,-1.87676 8.9201,-0.50945 10.63874,2.39786 46.75427,1.99856 58.341,-0.64502 5.12008,-1.16818 9.86406,-2.46665 10.54218,-2.88549 1.51189,-0.93383 5.27554,-62.67533 4.22445,-69.30058 -0.95859,-6.0421 -4.9432,-11.7294 -9.19893,-13.12976 -1.88823,-0.62135 -6.52297,-1.23731 -10.29941,-1.36881 -6.99218,-0.24347 -14.20045,-2.43861 -15.7177,-4.78653 -1.78065,-2.75551 -0.83823,-8.651 1.88886,-11.81628 l 2.76469,-3.20887 13.54272,0.31271 c 7.4485,0.17201 17.53158,0.80061 22.40684,1.3969 4.87525,0.5963 20.83935,1.40197 35.47577,1.79037 14.63642,0.3884 28.24314,1.2011 30.23717,1.80598 1.99401,0.60489 4.50414,2.43998 5.57807,4.07797 1.84816,2.8189 1.84129,3.16745 -0.12815,6.51835 -3.38118,5.75283 -4.20547,6.1286 -14.38876,6.55941 -11.73591,0.49649 -17.28917,3.46849 -21.31405,11.40684 -3.13059,6.17458 -4.98785,27.42079 -4.91018,56.17051 l 0.0517,19.13117 -3.13931,1.58594 c -1.72663,0.87229 -5.97167,2.49577 -9.4334,3.60775 -3.46176,1.11197 -6.85646,2.46387 -7.54377,3.0042 -0.68732,0.54035 -1.58852,0.64378 -2.00267,0.22991 -0.41418,-0.4139 -0.75303,-0.21456 -0.75303,0.443 0,1.98536 -8.71442,4.73755 -30.32607,9.57763 -9.75683,2.18509 -15.40817,2.60879 -38.3367,2.87417 -14.79112,0.17119 -28.9528,-0.14071 -31.47045,-0.69315 z m -37.19233,-10.08626 c 0,-0.51937 1.2706,-2.13726 2.82359,-3.5953 l 2.82359,-2.65099 -1.35791,3.5953 c -1.20716,3.19615 -4.28927,5.10107 -4.28927,2.65099 z m -25.07201,-4.7096 c -2.01217,-1.24282 5.46454,-4.9255 8.46961,-4.17174 1.49106,0.37399 4.03417,0.17724 5.65137,-0.43723 4.12743,-1.56829 3.66282,-0.46535 -0.77887,1.84896 -4.42518,2.30571 -11.65592,3.80148 -13.34211,2.76001 z m 13.62821,0.0671 c 0,-0.97665 4.97694,-4.70624 6.2802,-4.70624 0.35137,0 -0.20472,1.28664 -1.23573,2.85919 -1.80399,2.75156 -5.04447,3.93806 -5.04447,1.84705 z m 18.53317,-1.84705 c -0.0234,-1.88707 0.21406,-2.79749 0.52755,-2.0232 0.31347,0.77431 0.33254,2.31827 0.0424,3.43103 -0.29015,1.11276 -0.54662,0.47923 -0.56994,-1.40783 z m 3.39073,-2.85919 c 0,-1.57255 0.25975,-2.21587 0.57721,-1.42959 0.31747,0.78627 0.31747,2.0729 0,2.85918 -0.31746,0.78628 -0.57721,0.14297 -0.57721,-1.42959 z m -40.31176,-4.37816 c -4.84934,-3.07348 -24.5638,-22.40481 -26.65675,-26.13871 -0.67267,-1.2001 -0.27014,-2.4745 1.26681,-4.0105 1.73296,-1.73187 3.99527,-2.29648 9.80355,-2.44674 l 7.55074,-0.19533 -3.38175,3.48548 c -3.28123,3.38186 -4.60333,8.52311 -2.19178,8.52311 0.65448,0 3.22934,-1.03977 5.7219,-2.31059 2.49257,-1.27083 4.53192,-1.81586 4.53192,-1.21118 0,0.60469 -0.51496,1.41749 -1.14437,1.80625 -0.62941,0.38876 -1.14438,1.19112 -1.14438,1.78303 0,2.18333 1.79898,0.87026 4.85274,-3.54195 3.3849,-4.89067 7.02276,-6.53372 3.89134,-1.75753 -1.14039,1.7394 -1.36737,2.92404 -0.60865,3.1768 0.66542,0.22167 -0.8717,2.70472 -3.41584,5.51788 l -4.62572,5.11485 -0.13728,-3.43102 -0.13727,-3.43103 -1.1828,3.24518 c -0.78422,2.15171 -0.79924,3.62846 -0.0445,4.38268 1.5379,1.53696 4.45513,-0.44719 9.31216,-6.33371 3.08174,-3.73493 3.70634,-4.12598 2.98042,-1.86598 -0.5051,1.57255 -1.14686,6.12236 -1.42617,10.11069 -0.45982,6.56652 -0.30895,7.21336 1.5971,6.84777 2.21763,-0.42536 8.32663,-10.45024 8.37226,-13.73891 0.0148,-1.05984 0.51344,-3.20632 1.10829,-4.76996 1.62784,-4.27888 5.22346,-2.64758 9.74939,4.42321 4.03395,6.3022 8.2627,10.06547 10.06181,8.95424 0.58592,-0.36189 0.8746,-2.65637 0.64155,-5.09884 -0.29205,-3.06046 0.0304,-4.44086 1.03694,-4.44086 0.8034,0 1.46071,0.96499 1.46071,2.1444 0,1.1794 0.30616,3.67417 0.68033,5.54389 l 0.68033,3.39952 -10.82778,0.64558 c -11.45095,0.68276 -20.28679,3.80149 -20.28679,7.1605 0,2.52243 -2.396,2.06559 -8.08845,-1.54222 z m 11.45618,0.45405 c 1.48257,-1.78527 10.92354,-4.14855 15.85695,-3.96933 2.4565,0.0893 2.03398,0.41823 -2.05899,1.60324 -2.83234,0.82002 -4.11976,1.57765 -2.86095,1.6836 l 2.28876,0.19267 -2.28876,0.98291 c -1.25881,0.5406 -4.54044,1.01908 -7.29248,1.06328 -4.21572,0.0677 -4.7897,-0.17738 -3.64453,-1.55637 z m 50.99029,0.85456 c -1.25881,-0.28427 -3.9115,-1.25389 -5.89485,-2.15468 -1.98334,-0.9008 -4.30071,-1.69871 -5.14971,-1.77312 -2.58189,-0.22634 5.04799,-1.87243 9.328,-2.01247 4.97963,-0.1629 12.66906,4.10263 10.20526,5.66114 -1.68774,1.06763 -4.57649,1.16261 -8.4887,0.27913 z m 60.89441,0.0712 c -1.64134,-1.64031 -0.7338,-6.09067 2.57295,-12.61742 1.86308,-3.67727 3.40799,-6.01226 3.43314,-5.18887 0.0765,2.50894 2.32812,0.25973 2.42481,-2.42235 0.051,-1.41684 0.35546,-1.84171 0.70041,-0.97765 1.50008,3.7574 -6.9514,23.38486 -9.13131,21.20629 z m -40.29558,-1.5764 c -4.05499,-0.72559 -3.72842,-0.82617 2.86095,-0.88119 4.09117,-0.0341 10.01332,0.3387 13.16036,0.82858 5.47802,0.8527 5.35606,0.89027 -2.86094,0.88119 -4.72056,-0.006 -10.64273,-0.37808 -13.16037,-0.82858 z m 52.1846,-1.04823 c -1.79854,-1.13806 -2.08846,-15.73611 -0.34708,-17.47642 0.55747,-0.55713 0.82075,0.65055 0.60236,2.76319 -0.30234,2.92483 -0.16773,3.24819 0.61003,1.46553 0.80744,-1.85069 1.26428,-1.01861 2.39306,4.35857 1.83642,8.74837 0.83532,11.47949 -3.25837,8.88913 z m 84.37048,-2.07848 c -4.26205,-3.50039 -5.48044,-4.94698 -5.5061,-6.53734 -0.009,-0.59757 0.60045,-0.46891 1.35574,0.28593 2.33733,2.33588 3.68238,1.50868 1.4877,-0.91496 -2.33695,-2.58069 -1.86551,-2.83844 1.94882,-1.06548 2.99096,1.39027 5.92111,5.00693 7.11769,8.7853 1.14344,3.6105 -1.62523,3.37124 -6.40385,-0.55345 z m -10.71711,-6.17831 c 0.40618,-4.00304 0.23871,-9.84984 -0.37213,-12.99287 -1.01975,-5.24685 -0.9671,-5.5277 0.64305,-3.43103 1.68997,2.20058 1.73387,2.16929 1.20806,-0.86152 -0.81448,-4.69494 0.8684,-3.79583 2.389,1.27636 2.35881,7.86819 0.50301,21.58523 -3.08188,22.77945 -1.21305,0.4041 -1.3737,-0.97938 -0.7861,-6.77039 z m -97.77521,2.93647 c -0.0139,-1.93015 0.72938,-6.04737 1.65195,-9.1494 1.52449,-5.12581 2.11121,-5.77491 6.43517,-7.11926 2.61677,-0.81356 5.01384,-1.22329 5.32682,-0.91048 0.31299,0.31279 -0.92493,2.52239 -2.75092,4.91023 -1.826,2.38784 -3.97117,5.62816 -4.76706,7.20072 -0.79588,1.57255 -2.44233,4.14582 -3.65878,5.71837 l -2.21174,2.85919 -0.0254,-3.50937 z m -106.45276,-0.35054 c 0,-1.17942 0.3428,-3.85725 0.76176,-5.95076 0.65961,-3.29606 0.89164,-3.5069 1.73081,-1.57255 0.63771,1.47001 0.80799,0.29983 0.49797,-3.42233 -0.33038,-3.96674 -0.14674,-5.07693 0.61481,-3.71694 1.58931,2.83817 3.26094,2.36655 3.26094,-0.92 0,-1.57254 0.51496,-2.85918 1.14436,-2.85918 1.73274,0 1.39368,2.70201 -1.32379,10.54953 -3.05682,8.82753 -6.68686,13.11192 -6.68686,7.89223 z m 85.25628,-0.24812 c 8.16845,-2.59803 15.44913,-3.92937 15.44913,-2.82501 0,0.43627 -0.53308,1.78868 -1.18464,3.00536 -1.0394,1.94095 -2.4074,2.19937 -11.15771,2.10784 l -9.97306,-0.1043 6.86628,-2.18387 z m 108.62717,-0.41349 c -0.37644,-1.49891 -0.0143,-5.72663 0.80472,-9.39496 1.1588,-5.19011 1.57918,-5.96768 1.89501,-3.50518 0.55602,4.33507 2.53887,2.7568 2.53887,-2.02083 0,-2.12732 0.57206,-4.22119 1.27122,-4.65303 1.57306,-0.97161 0.89022,6.56957 -1.37742,15.21168 -1.73671,6.61875 -4.06809,8.60032 -5.1324,4.36232 z m -144.42221,-2.46462 c -1.11624,-1.1942 -0.54686,-1.71993 2.8982,-2.67608 5.41493,-1.50289 10.58144,-1.54235 10.58144,-0.0809 0,0.61703 -1.28743,1.44481 -2.86094,1.8395 -1.57353,0.39469 -2.86213,1.0478 -2.86356,1.45137 -0.005,1.38852 -6.36768,0.9504 -7.75514,-0.53398 z m 31.31206,0.84878 c -1.7721,-2.86553 9.27244,-8.02494 17.35725,-8.10839 8.82642,-0.091 4.81084,3.58895 -7.90069,7.24055 -7.41531,2.13016 -8.60822,2.23963 -9.45656,0.86784 z m -56.73415,-4.89916 c -3.38848,-4.67477 -4.9573,-9.36287 -1.68735,-5.04226 0.92409,1.22101 1.68017,1.62314 1.68017,0.89364 0,-1.93435 3.25351,-0.37726 3.87097,1.85261 0.28872,1.04268 0.85799,3.05375 1.26506,4.46904 1.18128,4.10719 -1.35585,3.03224 -5.12885,-2.17303 z m 14.4883,1.6965 c -0.41961,-0.41934 -0.7708,-2.34929 -0.78044,-4.28878 -0.0137,-2.76058 -0.27145,-3.1538 -1.18683,-1.81082 -1.32186,1.93931 -0.32317,-5.5401 1.3362,-10.00716 1.17689,-3.16824 3.79942,-3.45678 2.98071,-0.32797 -0.32313,1.23492 0.13177,2.84189 1.0109,3.57107 0.87915,0.72916 1.59844,1.9759 1.59844,2.77051 0,2.46498 -3.03649,7.43576 -4.00089,6.54952 -0.503,-0.46225 -0.62925,0.31752 -0.28055,1.73281 0.67131,2.72455 0.55303,3.04063 -0.67754,1.81082 z m 32.96886,-1.52489 c 1.54172,-5.32008 6.47554,-11.43676 9.22507,-11.43676 1.74953,0 3.36051,-1.3013 4.95547,-4.00286 1.83079,-3.10108 3.08088,-3.98543 5.54883,-3.92546 3.11869,0.0759 3.13152,0.1035 0.61079,1.31844 -1.47344,0.71018 -2.57486,2.28115 -2.57486,3.67259 0,2.35236 -13.20098,16.6614 -15.37118,16.6614 -0.55268,0 -0.0699,-1.03247 1.07279,-2.29436 1.1427,-1.2619 1.79619,-2.57564 1.45221,-2.91943 -0.344,-0.34378 -1.77795,0.81735 -3.18658,2.58029 -2.54496,3.18511 -2.5559,3.18729 -1.73254,0.34615 z m -26.8655,0.0675 c 0,-0.59189 0.51497,-1.39425 1.14438,-1.783 0.62941,-0.38876 1.14438,-1.25413 1.14438,-1.92305 0,-0.76694 -0.63412,-0.69027 -1.71658,0.20753 -3.43531,2.84931 -1.59931,-0.95476 2.95822,-6.12919 4.20436,-4.77348 4.97209,-7.46151 1.10757,-3.87797 -1.26773,1.17555 -1.387,1.02312 -0.67124,-0.85775 0.47875,-1.25804 1.13508,-3.20903 1.45852,-4.33555 0.75516,-2.63017 3.0541,-1.90099 3.50104,1.11046 0.26458,1.78263 0.98739,2.19112 3.14706,1.77853 1.54197,-0.29458 2.80357,-0.0755 2.80357,0.48693 0,1.63034 -3.39619,6.28552 -8.41806,11.53862 -4.58192,4.79293 -6.45886,5.89267 -6.45886,3.78444 z m 172.06352,-2.44917 c -3.23181,-3.99959 -8.38752,-13.89626 -7.76432,-14.90401 0.37868,-0.61233 0.0661,-1.86275 -0.69452,-2.77872 -0.76066,-0.91599 -0.93375,-1.66541 -0.38462,-1.66539 1.31387,5e-5 6.43371,6.45963 8.90439,11.23443 2.23167,4.31292 2.18227,10.88984 -0.0608,8.11369 z m -73.46369,-2.46741 c -0.73016,-0.72971 -1.32756,-1.9777 -1.32756,-2.7733 0,-0.79559 -1.07406,-2.02099 -2.38678,-2.72311 -3.82599,-2.04635 -1.68645,-2.5329 2.83527,-0.64478 2.78321,1.16219 4.12902,2.46673 4.12902,4.00238 0,2.8689 -1.51907,3.86862 -3.24995,2.13881 z m 83.35652,-0.29745 c -3.46175,-0.80236 -5.52163,-1.55275 -4.57752,-1.66755 1.22202,-0.14859 1.05717,-0.49191 -0.57219,-1.19164 -1.95715,-0.84048 -1.99859,-0.99455 -0.28609,-1.06328 3.19139,-0.1281 2.31566,-2.36774 -0.92582,-2.36774 -1.87905,0 -2.64316,-0.4614 -2.13227,-1.28754 2.15443,-3.48377 21.08207,2.25677 21.08207,6.39397 0,1.25875 -3.86685,3.12079 -5.7219,2.75535 -0.31471,-0.062 -3.40453,-0.76921 -6.86628,-1.57157 z m -198.12807,-4.58594 c -3.4584,-1.87794 -5.19777,-5.13527 -2.74216,-5.13527 0.88721,0 1.96535,0.5696 2.39588,1.26578 0.55126,0.8914 1.05315,0.82859 1.69689,-0.21239 1.24098,-2.00671 4.52169,0.64977 4.52169,3.66135 0,2.53805 -1.74287,2.66286 -5.8723,0.42053 z m 65.66614,-0.69362 c -4.28681,-2.72574 -4.60134,-3.88936 -1.49972,-5.54829 1.55348,-0.83088 5.76027,-0.76215 14.01865,0.22905 6.56297,0.7877 10.2756,1.61048 8.366,1.85402 -2.97676,0.37968 -3.1289,0.55518 -1.14439,1.32028 2.09357,0.80715 1.99595,1.00368 -1.14439,2.30433 -6.15802,2.55052 -14.44599,2.47946 -18.59615,-0.15939 z m -146.74917,0.41897 c 0.0574,-2.80401 9.75033,-7.15372 19.95111,-8.95295 l 3.37511,-0.59531 -3.31987,3.07488 c -1.82594,1.69118 -5.40463,4.02122 -7.95264,5.17789 -4.64064,2.1066 -12.08662,2.90687 -12.05371,1.29549 z m 34.31388,-0.18981 c 0,-1.1354 8.38013,-8.10183 9.74593,-8.10183 0.45856,0 0.19265,0.77197 -0.5909,1.71552 -0.89836,1.08178 -0.97507,1.7155 -0.20765,1.7155 0.66932,0 1.53523,-0.51465 1.92422,-1.14368 0.8743,-1.41378 2.86094,-1.50676 2.86094,-0.13388 0,0.85425 -11.58085,6.99594 -13.19165,6.99594 -0.29749,0 -0.54089,-0.47141 -0.54089,-1.04757 z m 36.23868,0.28511 c -1.09369,-1.09299 -0.94074,-2.66857 0.25901,-2.66857 0.56209,0 1.31838,0.77198 1.68067,1.71551 0.66938,1.74328 -0.54964,2.34223 -1.93968,0.95306 z m -5.05435,-1.20494 c -0.78675,-0.28081 -1.38846,-2.14031 -1.33712,-4.1322 l 0.0934,-3.62164 1.68081,3.84999 c 1.8164,4.16052 1.75744,4.68712 -0.43704,3.90385 z m 129.31489,-1.49926 c -3.2606,-1.30981 -3.29834,-2.93954 -0.0875,-3.77868 3.15821,-0.82539 4.37892,-0.0621 4.37892,2.73814 0,2.44459 -0.49648,2.56497 -4.29143,1.04054 z m -99.84711,-4.55458 c 0,-2.52462 0.45244,-5.48389 1.00542,-6.57614 0.55298,-1.09225 2.46914,-5.24239 4.25813,-9.22254 3.79556,-8.4443 4.65441,-9.32483 4.65441,-4.77196 0,1.83172 -0.42915,3.06535 -0.95366,2.74138 -0.5245,-0.32396 -0.95365,0.18297 -0.95365,1.12649 0,2.28399 1.92226,3.38273 2.74975,1.57171 0.36105,-0.7902 0.38643,0.13436 0.0564,2.05457 -0.33004,1.9202 -1.85422,5.96704 -3.38709,8.99297 -5.05632,9.98136 -7.42973,11.28582 -7.42973,4.08352 z m 8.53134,-11.13532 c 0.42787,-1.4153 0.28832,-2.57327 -0.3101,-2.57327 -0.9984,0 -2.44634,3.63369 -2.48372,6.23303 -0.0253,1.76208 1.92847,-0.79731 2.79382,-3.65976 z m 26.57651,13.48719 c -3.57572,-2.2823 -4.75854,-3.80237 -9.19135,-11.81226 -3.45807,-6.2485 -3.55856,-6.64142 -1.59844,-6.24964 0.88951,0.1778 1.33319,-0.79534 1.17324,-2.57326 -0.22237,-2.47148 0.6069,-1.92869 6.11553,4.00286 7.23961,7.79547 9.88811,12.23501 9.37418,15.71336 -0.47,3.18102 -1.96308,3.41464 -5.87316,0.91894 z m -46.09722,-3.94616 c -2.24584,-5.84894 2.91354,-15.50118 11.97732,-22.40738 6.84428,-5.21503 8.38405,-5.71729 4.35482,-1.42048 -2.06458,2.2017 -2.73458,3.62363 -1.84675,3.91939 1.46572,0.48828 -0.11872,4.18805 -3.24758,7.58335 -0.80747,0.87622 -2.42632,3.46939 -3.59746,5.76259 -1.17114,2.29321 -3.20333,5.14017 -4.516,6.32658 -2.19217,1.9813 -2.4468,2.00054 -3.12435,0.23595 z m 183.14133,0.34135 c -0.91322,-1.4767 1.46001,-3.26331 4.36859,-3.28874 2.1181,-0.0185 2.76155,-2.8448 0.90826,-3.9895 -0.60192,-0.37178 -0.81873,-1.39392 -0.48179,-2.2714 0.44858,-1.16827 -0.10105,-1.44195 -2.05264,-1.02218 -2.58994,0.55709 -2.60248,0.52242 -0.44387,-1.22711 2.89249,-2.34432 11.33218,-2.36748 13.26798,-0.0363 1.592,1.91706 1.65977,1.82541 -5.18995,7.01644 -6.73185,5.1017 -9.42752,6.35358 -10.37658,4.81891 z m -238.52598,-1.97899 c 0,-1.60669 6.1701,-3.98631 6.64493,-2.56274 0.22665,0.67952 1.27037,1.24336 2.31938,1.25299 1.64963,0.0153 1.67539,0.1673 0.19074,1.12616 -2.11074,1.36322 -9.15505,1.50448 -9.15505,0.18359 z m 125.83687,-1.17871 c -5.18467,-2.02794 -11.39891,-6.58577 -11.39891,-8.36053 0,-2.30378 10.56895,0.74444 12.58818,3.63061 0.3147,0.44983 2.1171,1.64405 4.00532,2.65382 1.89043,1.01097 2.66178,1.89267 1.71658,1.96215 -1.17474,0.0864 -0.99412,0.43643 0.57219,1.10907 l 2.28876,0.98291 -2.28876,0.0269 c -1.25882,0.0147 -4.62634,-0.88744 -7.48336,-2.00492 z M 415.4047,621.46373 c 0,-1.10621 0.99804,-1.81244 2.57485,-1.822 1.41617,-0.009 3.86229,-0.35898 5.4358,-0.77864 2.59025,-0.6908 2.6924,-0.59431 1.07956,1.01986 -0.97978,0.98058 -3.42589,2.14384 -5.4358,2.58501 -2.90594,0.63786 -3.65441,0.43218 -3.65441,-1.00423 z m 26.32072,-0.59522 c 0,-1.8628 2.30498,-2.60012 5.50086,-1.75963 2.84844,0.74913 2.90855,0.88119 0.79323,1.7428 -3.17784,1.29438 -6.29409,1.30272 -6.29409,0.0168 z m 120.31392,-3.70076 c -3.23177,-2.6273 -5.87595,-5.4579 -5.87595,-6.29021 0,-2.86155 3.76173,-1.03379 11.3106,5.49566 3.82448,3.30802 4.42164,4.29395 2.94401,4.86063 -1.01949,0.39098 -1.99967,0.71085 -2.17815,0.71085 -0.17851,0 -2.96874,-2.14961 -6.20051,-4.77693 z m -171.59809,1.63184 c 0.30024,-1.57825 1.7093,-2.05439 6.6641,-2.25187 5.50425,-0.21937 5.92862,-0.0891 3.42242,1.0506 l -2.86095,1.30103 4.00532,0.80028 c 3.22138,0.64364 2.47699,0.82974 -3.80313,0.95084 -6.86315,0.13231 -7.76239,-0.0918 -7.42776,-1.85088 z m 271.00506,0.17614 2.86095,-1.74423 -3.66846,0.60233 c -2.81623,0.46242 -3.52698,0.23396 -3.05953,-0.98343 0.38685,-1.00749 -0.36197,-1.77068 -2.05347,-2.09285 -1.79549,-0.34198 -1.29598,-0.55781 1.5342,-0.66284 4.58811,-0.17028 14.68571,3.62653 14.68571,5.52198 0,0.68403 -2.77965,1.1672 -6.58017,1.14379 -6.39123,-0.0393 -6.49803,-0.0906 -3.71923,-1.78475 z m -77.8003,-0.23294 c -0.0498,-4.22173 7.26091,-12.80955 10.90458,-12.80955 1.07099,0 0.90575,1.13921 -0.6221,4.28878 -2.44306,5.03628 -8.00174,10.71701 -8.02876,8.20508 -0.0146,-1.35155 -0.20643,-1.33682 -1.12686,0.0866 -0.79593,1.23087 -1.11428,1.29559 -1.12686,0.22912 z m -177.11025,-1.0175 c 1.10147,-0.28766 2.90387,-0.28766 4.00533,0 1.10146,0.28767 0.20026,0.52305 -2.00267,0.52305 -2.20293,0 -3.10413,-0.23538 -2.00266,-0.52305 z m 27.17901,-0.79673 c 0,-0.38951 2.14428,-2.6368 4.76507,-4.99399 9.13732,-8.21833 14.50678,-18.58177 9.62748,-18.58177 -2.24948,0 -8.24355,5.21474 -10.6248,9.24337 -2.6931,4.55624 -3.28094,4.20277 -2.81193,-1.69079 0.45415,-5.70662 -1.68766,-17.45584 -3.37169,-18.49599 -0.61464,-0.37964 -1.92701,-0.0189 -2.91638,0.80176 -1.46862,1.21807 -1.64771,2.86335 -0.97551,8.96195 0.45285,4.10844 1.02026,9.48665 1.26091,11.95153 0.24067,2.46488 0.74191,5.55281 1.11386,6.86206 0.39376,1.38595 -2.22255,-0.72521 -6.26255,-5.05345 -3.81637,-4.08864 -6.94587,-6.87033 -6.95449,-6.18155 -0.009,0.68879 1.01427,2.18384 2.27311,3.32237 2.70145,2.44327 2.94316,4.00285 0.62037,4.00285 -2.08527,0 -10.9198,-8.28321 -10.9198,-10.23835 0,-0.79371 0.64371,-1.1801 1.43047,-0.85863 5.4296,2.21848 6.03626,2.16392 3.24702,-0.29208 -3.19219,-2.81079 -6.19063,-2.6562 -6.76975,0.34903 -0.49662,2.57718 8.79354,11.75367 14.17369,14.00025 2.08086,0.86891 4.05849,2.02469 4.39475,2.56843 1.01368,1.63918 -26.43329,0.75371 -28.44855,-0.91777 -3.31021,-2.74554 -1.95503,-3.80887 3.96172,-3.10856 3.14704,0.3725 5.72189,0.24825 5.72189,-0.27609 0,-0.52435 -1.7779,-5.86188 -3.95088,-11.86115 -5.53454,-15.27997 -10.33008,-42.28527 -8.98259,-50.58382 0.64196,-3.95343 3.75855,-5.75031 9.06775,-5.228 1.42597,0.14029 2.77867,-0.61311 3.27705,-1.82519 0.67373,-1.63857 1.12343,-1.12099 2.18132,2.51061 1.46339,5.02364 4.91168,6.62298 7.51655,3.48622 2.09377,-2.52128 3.7665,-2.19041 2.88935,0.57153 -0.4091,1.28822 -0.10871,3.10706 0.66758,4.04185 1.11922,1.34774 1.11786,2.24783 -0.007,4.34757 -0.7799,1.45636 -1.26227,3.6261 -1.07192,4.82163 0.19034,1.19552 -0.62991,3.64096 -1.82278,5.43429 -3.28665,4.94106 -1.31845,7.07762 6.3199,6.86051 3.94619,-0.11221 6.62503,0.4027 7.70364,1.48064 2.2249,2.22355 3.75154,1.53608 6.89856,-3.1065 1.98659,-2.93064 2.47619,-4.83287 1.95649,-7.60142 -1.0154,-5.40921 1.97366,-9.4714 6.96928,-9.4714 5.29477,0 4.93604,2.40351 -0.7126,4.77448 -5.19094,2.17883 -5.26175,5.08347 -0.15107,6.19583 5.20783,1.1335 5.88177,1.49453 5.88177,3.15098 0,0.88696 -1.49406,2.23113 -3.3201,2.98704 -7.17739,2.97114 -10.07992,9.07537 -5.64297,11.86762 1.47655,0.92921 2.9151,0.50394 6.3556,-1.87885 4.56108,-3.1589 6.70078,-3.92902 5.49384,-1.97737 -0.97153,1.57101 4.54763,17.53854 9.16514,26.51584 2.96696,5.76831 3.57293,7.86276 2.51003,8.67562 -0.77065,0.58937 -7.06585,1.66156 -13.98935,2.38264 -6.9235,0.72109 -13.74686,1.63763 -15.16304,2.03675 -1.41616,0.39912 -2.57484,0.40698 -2.57484,0.0175 z m 43.60638,-1.94299 c -3.35555,-1.34142 -3.02342,-1.68349 2.4549,-2.52835 3.70997,-0.57214 4.29142,-0.36163 4.29142,1.55365 0,2.43288 -2.2761,2.76173 -6.74632,0.9747 z m 167.35117,-1.77477 c 0.4001,-0.715 -0.0394,-1.93599 -0.9765,-2.71331 -2.04784,-1.69852 -2.38628,-7.40802 -0.36511,-6.15964 0.8994,0.55552 1.09973,0.2042 0.61034,-1.07034 -0.93739,-2.44129 2.99455,-11.6589 5.36033,-12.56619 4.02163,-1.54229 5.36676,5.90061 2.83077,15.66332 -1.43392,5.52 -3.88185,3.93406 -3.46546,-2.24514 0.17464,-2.59144 -0.15931,-3.82298 -0.91079,-3.35883 -0.65259,0.40307 -1.18653,1.68891 -1.18653,2.85741 0,1.16851 -0.64371,2.35752 -1.43047,2.64226 -1.12976,0.40889 -1.11,1.05835 0.094,3.08933 1.2036,2.03038 1.22847,2.84412 0.11823,3.86637 -1.04744,0.96439 -1.22062,0.96307 -0.67876,-0.006 z m 16.99347,-5.58856 c 7.81893,-7.45609 12.34041,-6.19887 6.43158,1.78833 -2.24426,3.03365 -6.66675,5.04217 -4.9345,2.24104 0.389,-0.62901 0.19229,-1.14367 -0.43711,-1.14367 -0.62941,0 -1.46264,0.51466 -1.85165,1.14367 -0.38899,0.62903 -1.57807,1.13176 -2.6424,1.11717 -1.32001,-0.0181 -0.22844,-1.65399 3.43408,-5.14654 z M 544.749,609.66719 c -3.01889,-0.56426 -12.61759,-6.96868 -12.61759,-8.41867 0,-0.47626 0.90121,-1.1013 2.00267,-1.38896 1.50705,-0.3936 1.36544,-0.55588 -0.5722,-0.6557 -1.41617,-0.073 -2.57484,-0.63752 -2.57484,-1.25455 0,-0.61704 -1.31143,-1.45083 -2.91425,-1.85287 -1.60282,-0.40205 -2.66543,-0.97964 -2.36133,-1.28354 1.33317,-1.33237 19.04714,5.76509 23.07651,9.24607 6.02575,5.20564 4.57612,7.21849 -4.03897,5.60822 z m -105.71949,-2.08262 c 0.76597,-2.0377 0.65893,-2.08006 -1.28251,-0.50771 -2.00512,1.62395 -2.03977,1.56289 -0.64913,-1.14367 2.95193,-5.74528 11.49383,-12.95294 11.49383,-9.69852 0,1.27364 -5.55492,9.24283 -7.91146,11.3499 -2.46254,2.20187 -2.47842,2.20187 -1.65073,0 z m 34.18606,-2.7632 c -1.11407,-1.80149 9.75359,-7.86175 16.57381,-9.24222 11.70891,-2.36999 12.37006,-2.40203 8.01065,-0.38837 -2.20292,1.01757 -5.195,2.30596 -6.64904,2.8631 -1.45405,0.55713 -2.34047,1.50336 -1.96983,2.1027 0.37064,0.59936 -2.74243,2.14427 -6.91794,3.43316 -8.8597,2.7348 -8.17565,2.64168 -9.04765,1.23163 z m -42.18013,-3.69195 c 0.96383,-5.0565 1.53495,-5.49283 1.53495,-1.17272 0,1.95478 -0.50721,3.86742 -1.12715,4.25033 -0.70426,0.435 -0.85728,-0.71963 -0.4078,-3.07761 z m -1.72673,-3.32825 c -0.0943,-1.01299 -0.49894,-4.22957 -0.89919,-7.14798 -0.59884,-4.3663 -0.4098,-5.30615 1.06725,-5.30615 0.98725,0 2.03932,0.90063 2.33795,2.00142 0.97898,3.60877 1.82321,8.89563 1.18708,7.4339 -1.05526,-2.42486 -2.54445,-1.58582 -3.04488,1.71551 -0.2622,1.72981 -0.55389,2.3163 -0.64821,1.3033 z m 212.74952,-0.44554 c 0.0191,-0.62903 0.73115,-3.71695 1.58244,-6.86206 1.19211,-4.40429 1.74397,-5.23408 2.40143,-3.61086 0.53996,1.33316 -0.0415,3.8544 -1.58246,6.86204 -1.33982,2.61501 -2.42046,4.23989 -2.40141,3.61088 z m -84.02197,-5.24798 c -2.9236,-2.57187 -4.99002,-5.20267 -4.59202,-5.84624 0.39798,-0.64355 0.0289,-1.59924 -0.82032,-2.12373 -0.84919,-0.52449 -1.18725,-1.31011 -0.75127,-1.74582 0.83174,-0.83123 14.59015,11.86976 14.59015,13.46879 0,2.15374 -3.46759,0.60936 -8.42654,-3.753 z m -29.7263,1.39985 c -1.81206,-0.71297 -1.55585,-1.12369 1.84166,-2.95224 3.0952,-1.66585 5.43878,-1.98884 10.8637,-1.49723 3.80441,0.34476 7.86789,1.17913 9.02993,1.85417 1.63909,0.95215 -0.0681,1.27364 -7.61442,1.43389 -8.28768,0.17597 -8.96511,0.32495 -4.57751,1.00666 l 5.14971,0.80014 -6.2941,0.0913 c -3.46175,0.0502 -7.24129,-0.28128 -8.39897,-0.73679 z m -40.23716,-1.29841 c -0.44605,-0.72127 1.95932,-1.0937 6.51263,-1.00837 5.72581,0.10728 6.50946,0.31599 3.78678,1.00837 -5.09023,1.29444 -9.49891,1.29444 -10.29941,0 z m 96.70007,-2.28735 c -1.36339,-0.88055 -1.12793,-1.11941 1.1444,-1.16094 2.59188,-0.0473 2.66234,-0.16766 0.74928,-1.27897 -1.95106,-1.13339 -1.85347,-1.38358 1.28338,-3.29003 1.86726,-1.13485 5.39237,-2.23982 7.83355,-2.4555 3.84524,-0.33971 4.48635,-0.0561 4.79637,2.12132 0.63606,4.4676 -11.23031,9.01996 -15.80698,6.06412 z m -123.593,-2.83605 c 0,-3.59333 3.33394,-12.03173 4.75364,-12.03173 0.97861,0 0.76959,2.67399 -0.91636,11.72267 -0.73784,3.96018 -3.83728,4.20982 -3.83728,0.30906 z m 23.92343,1.13847 c -9.71696,-1.6357 -13.624,-3.29227 -13.624,-5.77655 0,-1.31826 1.78032,-1.67527 8.35398,-1.67527 4.59467,0 8.84319,0.42788 9.44112,0.95087 0.59794,0.52299 3.40453,1.63499 6.23687,2.47112 4.73315,1.3973 4.91828,1.5854 2.28876,2.32547 l -2.86096,0.80519 2.86096,1.22588 2.86095,1.22588 -3.43314,-0.0447 c -1.88823,-0.0246 -7.34427,-0.70312 -12.12454,-1.50781 z m 47.01805,-2.20503 c 2.8523,-1.02892 3.50709,-1.66204 2.28877,-2.21303 -0.98486,-0.44541 -0.61767,-0.56988 0.86834,-0.29434 1.41617,0.26261 2.57486,0.0115 2.57486,-0.55914 0,-0.57014 -0.61798,-1.03661 -1.37326,-1.03661 -0.98671,0 -1.02397,-0.34908 -0.13237,-1.24013 1.77852,-1.77742 15.23818,-2.86326 15.23818,-1.22931 0,1.83574 -7.57233,5.40459 -14.64717,6.90322 -7.7899,1.65012 -9.90568,1.50489 -4.81735,-0.33066 z m 124.54875,-1.93751 c -4.47495,-2.23677 -7.54735,-5.47394 -3.84932,-4.05575 1.12714,0.43226 2.75531,0.20038 3.61817,-0.51527 1.21608,-1.00863 2.48693,-0.60137 5.65201,1.81127 6.08815,4.6408 2.25083,6.59439 -5.42086,2.75975 z m -97.87269,-0.89441 c -1.62881,-2.60655 -0.68521,-6.98958 1.50477,-6.98958 1.66686,0 1.99396,3.70363 0.63091,7.14372 -0.74019,1.8681 -0.87821,1.85815 -2.13568,-0.15414 z m 15.21351,-2.89618 c 2.4436,-2.92154 4.63246,-4.74359 4.86413,-4.04904 0.47834,1.43418 -3.88487,6.44142 -7.1404,8.19432 -1.21122,0.65216 -0.20745,-1.17578 2.27627,-4.14528 z m -65.03693,-3.00761 c -1.00886,-3.42778 -1.87584,-5.21717 -1.9266,-3.97642 -0.0879,2.14868 -0.17565,2.13702 -1.84532,-0.2453 -2.56939,-3.66606 -5.32271,-11.79384 -5.33019,-15.73471 -0.0115,-5.77046 0.16987,-6.45425 1.49097,-5.63829 1.98249,1.22451 5.1864,9.29275 7.85022,19.76886 2.75071,10.81779 2.56465,15.35197 -0.23908,5.82586 z m 3.70296,1.17326 c 0,-4.16469 12.51019,-6.70609 17.78478,-3.61293 1.91318,1.12194 1.65465,1.23051 -1.76346,0.7406 -2.58824,-0.37099 -3.26377,-0.24603 -1.90937,0.35318 1.66028,0.73454 0.80683,1.3334 -4.10591,2.88104 -8.12393,2.55928 -10.00604,2.4912 -10.00604,-0.36189 z m -70.95153,-0.34418 c 0,-3.12475 10.09318,-9.97904 14.53403,-9.87004 1.27127,0.0312 0.38887,0.93151 -2.30559,2.35243 -2.4008,1.26604 -4.15789,2.91592 -3.90465,3.66641 0.25324,0.75046 -1.0135,2.26514 -2.81495,3.36592 -3.9152,2.39239 -5.50884,2.53278 -5.50884,0.48528 z m 54.71549,-0.84316 c -0.223,-0.66858 -1.77258,-1.3656 -3.44354,-1.5489 -3.37755,-0.37054 -6.97649,-3.33307 -5.72837,-4.71541 0.44209,-0.48963 -0.12414,-0.55679 -1.25831,-0.14925 -1.13413,0.40752 -1.77465,0.27615 -1.42334,-0.29194 0.35133,-0.5681 -0.007,-1.33923 -0.79884,-1.71363 -0.79069,-0.37442 0.26875,-0.42471 2.35427,-0.11174 3.20043,0.48024 3.69978,0.25899 3.2014,-1.41837 -2.87678,-9.68199 -1.92751,-10.41389 5.18164,-3.99517 6.00934,5.42575 13.80138,17.33287 8.42392,12.87272 -1.3536,-1.12268 -1.71658,-1.12551 -1.71658,-0.0134 0,0.77573 -1.01281,0.19544 -2.25069,-1.28956 -1.23786,-1.48498 -2.2678,-2.08703 -2.28875,-1.33788 -0.021,0.74916 0.4769,1.68019 1.10631,2.06894 0.62941,0.38876 1.14438,1.19112 1.14438,1.78301 0,1.47488 -2.00224,1.36335 -2.5035,-0.13946 z m 85.59345,-0.59342 c -1.28849,-3.35567 -0.71034,-3.90931 4.08236,-3.90931 h 4.77703 l -2.68774,2.85919 c -3.08971,3.28683 -5.17648,3.64189 -6.17165,1.05012 z m -28.9104,-3.05155 c -0.29084,-0.47177 0.78902,-0.85776 2.39969,-0.85776 3.61199,0 3.88297,-1.96607 0.35363,-2.56583 -1.66376,-0.28272 -0.60516,-0.76843 2.99181,-1.37268 4.31995,-0.7257 6.47187,-0.50373 9.60863,0.99118 2.54182,1.21137 3.64007,2.328 2.95904,3.0086 -1.30656,1.30576 -17.56296,2.01279 -18.3128,0.79649 z m 125.75029,-1.0722 c 0.70731,-2.12063 3.17089,-2.47235 3.17089,-0.4527 0,0.99594 -0.81536,1.81081 -1.81193,1.81081 -0.99658,0 -1.6081,-0.61116 -1.35896,-1.35811 z m -248.36374,-2.30164 c -2.00204,-2.00082 -1.71325,-3.19694 1.4877,-6.16165 2.04702,-1.89594 2.86095,-2.17728 2.86095,-0.9889 0,0.91349 0.52819,1.6609 1.17376,1.6609 0.66841,0 0.40942,1.47718 -0.60158,3.43102 -1.94314,3.75528 -2.84542,4.13276 -4.92083,2.05863 z m -12.76149,-0.88064 c -1.32786,-0.82015 -1.38547,-1.57686 -0.30112,-3.95528 1.3908,-3.05058 4.10784,-3.87923 5.47434,-1.66954 0.43249,0.69935 0.0767,1.75989 -0.79075,2.35675 -1.05152,0.72356 -0.24233,0.83323 2.42825,0.32909 3.54005,-0.66828 3.80593,-0.55998 2.28876,0.93231 -2.2619,2.22476 -7.04032,3.27853 -9.09948,2.00667 z m 129.84847,-1.29495 c 5.3646,-2.82823 6.94826,-4.16826 6.0211,-5.09484 -0.37161,-0.37138 -2.25459,0.14076 -4.1844,1.13809 -2.54434,1.31493 -3.35389,1.41005 -2.94536,0.3461 1.04393,-2.71878 12.59675,-8.02534 15.48045,-7.11065 4.82201,1.5295 1.95935,5.26363 -7.77052,10.13605 -7.45735,3.73441 -13.6092,4.2798 -6.60127,0.58525 z m -28.05425,0.43621 c -1.57352,-0.28211 -3.35018,-0.98401 -3.94811,-1.55976 -0.59795,-0.57575 -2.02685,-1.04683 -3.17537,-1.04683 -1.87977,0 -5.09746,-5.32294 -3.92562,-6.49406 0.2523,-0.25214 3.69968,0.44206 7.66085,1.54271 l 7.20213,2.00112 -3.33741,1.38247 c -3.56197,1.47549 -3.33638,1.67917 4.10106,3.70272 3.04805,0.82932 3.32156,1.07719 1.14437,1.03717 -1.57352,-0.029 -4.14838,-0.28342 -5.7219,-0.56554 z m -66.37402,-2.60659 c 0,-0.62902 2.18863,-1.09238 4.86362,-1.02967 4.13169,0.0968 4.43308,0.25179 2.00267,1.02967 -4.11832,1.3181 -6.86629,1.3181 -6.86629,0 z m 84.3179,-1.42802 c 0.4051,-1.84702 0.2568,-2.14135 -0.52468,-1.04124 -1.6194,2.27969 -7.11979,-9.37628 -7.11979,-15.08768 v -4.5274 l 2.40593,2.17598 c 1.32326,1.1968 3.17091,3.65442 4.1059,5.46139 2.04528,3.95268 3.15158,13.99799 1.64416,14.92904 -0.60518,0.37379 -0.82907,-0.46227 -0.51152,-1.91009 z m -111.72468,-0.8233 c -1.33063,-0.82188 -1.38867,-1.57761 -0.30388,-3.95699 1.5212,-3.33665 6.42599,-4.32234 5.16488,-1.03797 -0.52494,1.36711 -0.31184,1.64438 0.75656,0.98449 2.43751,-1.50554 0.77896,1.87326 -1.74001,3.54476 -1.4055,0.93264 -2.84219,1.10519 -3.87755,0.46571 z m 18.26131,-2.29326 c -2.89511,-1.82923 0.41747,-3.78535 7.38864,-4.36309 4.56075,-0.37799 6.33435,-0.12776 6.33435,0.89365 0,0.90007 -1.05573,1.21693 -2.88826,0.86684 -1.58854,-0.30349 -3.16384,-0.10614 -3.50067,0.4385 -0.33683,0.54467 2.12156,1.05907 5.4631,1.14311 l 6.07554,0.15282 -5.7219,0.89067 c -7.94809,1.2372 -11.16576,1.23169 -13.1508,-0.0226 z m 72.65854,-2.26359 c -2.51764,-1.13954 -6.1134,-3.70081 -7.99056,-5.69172 -2.84823,-3.02081 -3.13229,-3.79723 -1.71657,-4.69187 0.93307,-0.5896 2.28411,-1.0799 3.00235,-1.08954 1.65511,-0.0222 11.41284,7.99279 13.69507,11.24912 1.57277,2.24406 1.54279,2.45047 -0.34522,2.37669 -1.13715,-0.0443 -4.12744,-1.01314 -6.64507,-2.15268 z m -97.43621,-0.64028 c -0.83336,-2.17036 1.55353,-5.16141 4.0233,-5.04168 1.25809,0.0609 1.3828,0.28266 0.38431,0.68305 -1.11134,0.44563 -1.15789,0.97852 -0.18757,2.14695 0.70986,0.8548 0.95845,2.0914 0.5524,2.74798 -1.09622,1.77265 -4.01166,1.44504 -4.77244,-0.5363 z m 53.57754,-4.77856 c -0.10998,-3.89427 0.31502,-7.39855 0.94444,-7.7873 0.62941,-0.38876 1.14437,-1.64277 1.14437,-2.78666 0,-2.2114 3.05118,-5.41018 4.1311,-4.33092 0.35346,0.35323 -0.0399,4.67246 -0.87426,9.59828 -0.92485,5.46043 -1.6628,7.72849 -1.8907,5.81094 -0.5716,-4.80971 -2.32514,-3.74182 -2.81697,1.71551 -0.34964,3.87954 -0.47842,3.43148 -0.63798,-2.21985 z m -9.08268,4.60292 c -1.39689,-0.56236 -8.28296,-9.84586 -8.28296,-11.16671 0,-0.35842 1.01671,-0.65168 2.25937,-0.65168 1.3584,0 2.97506,1.38312 4.05407,3.46843 1.04162,2.01305 2.32862,3.13863 3.06716,2.68247 0.76271,-0.47108 0.9512,-0.26646 0.47052,0.5108 -0.44106,0.71322 -0.24502,2.3367 0.43564,3.60773 1.23014,2.29713 0.75908,2.66127 -2.0038,1.54896 z m -27.71989,-1.74373 c -0.009,-1.06367 0.49745,-2.25201 1.12686,-2.64078 1.44833,-0.89455 1.44833,0.61946 0,2.8592 -0.95601,1.47842 -1.11175,1.44822 -1.12686,-0.21842 z m 69.98561,-1.03663 c -2.18706,-3.4999 -1.0058,-3.75674 2.09702,-0.45596 1.87474,1.99435 2.18899,2.85469 1.0427,2.85469 -0.90242,0 -2.31529,-1.07944 -3.13972,-2.39873 z m -19.65043,0.97014 c 0,-1.15927 7.14963,-6.22398 10.01332,-7.09331 3.51972,-1.06847 3.30561,1.09223 -0.45319,4.57363 -2.95647,2.73829 -6.96166,3.93584 -5.5548,1.66091 0.9903,-1.60135 -0.97144,-1.43087 -2.63207,0.22874 -0.75529,0.75482 -1.37326,1.03834 -1.37326,0.63003 z m -60.81144,-4.25174 -2.70162,-2.24931 4.22388,-0.0381 c 4.53472,-0.0408 7.41057,2.19538 2.99603,2.32969 -2.49631,0.076 -2.51586,0.13472 -0.35363,1.06328 1.78075,0.76475 1.87241,1.00075 0.41286,1.06328 -1.03171,0.0442 -3.0916,-0.93179 -4.57752,-2.16891 z m 124.89669,-1.4994 c 0,-3.64452 4.06565,-6.72262 9.60745,-7.27384 4.32183,-0.42986 4.46861,-0.35893 1.83636,0.88734 -1.57352,0.74499 -3.33302,1.40023 -3.90997,1.45607 -0.57696,0.0558 -1.28026,0.79485 -1.56289,1.64221 -0.40568,1.2163 -0.0201,1.27649 1.83207,0.28593 3.39694,-1.81687 8.2183,-1.58459 8.2183,0.39593 0,2.8353 -4.81199,5.21138 -10.55405,5.21138 -4.92658,0 -5.46727,-0.25762 -5.46727,-2.60502 z m 101.84979,1.72162 c 0,-0.8687 2.97401,-3.13264 4.59394,-3.49708 0.92317,-0.2077 1.94084,-0.73424 2.26151,-1.17009 2.39462,-3.2549 11.38597,-6.42509 14.98508,-5.28347 3.3545,1.06401 2.66946,2.53872 -3.05143,6.56883 -4.44091,3.12843 -6.27889,3.70195 -12.01598,3.74942 -3.72521,0.0308 -6.77312,-0.13459 -6.77312,-0.36761 z m -215.66163,-2.24038 c 1.62488,-3.70401 0.79992,-7.03689 -2.42874,-9.81237 l -3.19562,-2.74707 3.00516,-1.96784 c 1.65282,-1.08231 4.14102,-1.79948 5.52928,-1.59371 3.21706,0.47683 8.60836,7.26412 9.60877,12.0968 0.75232,3.63425 0.67997,3.71694 -3.25231,3.71694 -2.21197,0 -5.40148,0.52426 -7.08782,1.16501 -2.71437,1.03135 -2.96429,0.93296 -2.17872,-0.85776 z m 190.70359,-4.34363 -1.2609,-6.82853 0.49207,6.29021 c 0.3399,4.34479 0.14717,5.75964 -0.62308,4.5747 -0.99126,-1.52489 -1.24037,-1.52489 -2.24203,0 -0.89271,1.35908 -1.13049,1.10165 -1.14437,-1.23897 -0.009,-1.62498 -0.36814,-3.3049 -0.79667,-3.73315 -0.99933,-0.99874 -1.39021,-11.23835 -0.68445,-17.93014 0.67354,-6.38625 3.26949,-10.5648 4.95226,-7.9714 3.93191,6.05963 6.09931,24.39888 3.6448,30.84014 -0.9586,2.51562 -1.2151,2.0764 -2.33763,-4.00286 z m 14.07112,4.08458 c 0.53025,-1.66963 0.41128,-2.36169 -0.32755,-1.90536 -1.9903,1.22932 -0.15081,-3.57773 2.17351,-5.67991 2.25683,-2.04114 3.03938,-4.56875 1.0303,-3.32784 -2.61124,1.61285 -0.8364,-1.74313 3.56418,-6.73937 7.4457,-8.45358 15.49644,-11.44658 11.81408,-4.39209 -0.89738,1.71914 -1.63477,3.73498 -1.63866,4.47958 -0.009,1.80459 -10.3416,14.6001 -14.30571,17.71635 l -3.14285,2.47064 z m -179.61364,-2.98413 c -2.64825,-4.9145 -1.68825,-6.22757 1.54747,-2.11656 2.60065,3.30415 2.95127,4.58892 1.49737,5.48692 -0.507,0.31314 -1.87717,-1.20351 -3.04484,-3.37036 z m 138.43129,0.56377 c -6.01925,-4.53955 -6.50661,-6.10901 -1.56608,-5.04323 2.12017,0.45735 4.0265,1.28362 4.23631,1.83615 0.2098,0.55252 1.04793,1.00458 1.86254,1.00458 0.81458,0 2.12215,0.77198 2.9057,1.71551 1.14853,1.38305 1.12024,1.71891 -0.14598,1.73302 -1.23362,0.0137 -1.2023,0.25538 0.14598,1.12617 1.42041,0.91737 1.3217,1.10618 -0.5722,1.09435 -1.25882,-0.008 -4.34864,-1.56782 -6.86627,-3.46655 z m 10.24986,-0.11209 c -6.509,-5.71143 -13.43365,-19.24554 -9.84689,-19.24554 4.37288,0 19.58969,17.57164 17.26951,19.942 -0.64711,0.66109 -2.14998,0.0374 -3.92478,-1.62897 -3.5225,-3.30719 -3.83698,-1.75568 -0.38786,1.91349 3.61479,3.84538 1.70313,3.24242 -3.10998,-0.98093 z m -189.84872,1.59988 c -1.47532,-1.47441 -0.44601,-4.61524 2.36217,-7.20792 l 3.00309,-2.77262 -0.86641,2.85918 c -0.84655,2.79357 -0.81367,2.81213 1.43302,0.80839 1.8546,-1.65404 2.41703,-1.74462 2.90715,-0.46813 0.33425,0.87048 0.26913,2.09098 -0.14469,2.71224 -1.08065,1.62233 -7.93339,4.82935 -8.69433,4.06886 z m 11.23999,-0.47772 c -0.46329,-0.74915 -0.2362,-1.56402 0.50465,-1.81083 0.74084,-0.24679 1.36264,-1.30648 1.38179,-2.35483 0.0307,-1.67979 0.17794,-1.66022 1.24014,0.16477 2.08283,3.57849 -0.9711,7.48639 -3.12658,4.00089 z m 102.25038,-3.21257 c -2.16485,-2.52681 -4.85367,-2.97701 -6.06653,-1.01578 -0.97211,1.57194 -10.53074,0.46552 -14.71333,-1.7031 l -2.92378,-1.51594 2.56402,-1.23621 c 2.38781,-1.15125 2.28876,-1.24937 -1.4413,-1.42762 -4.96756,-0.2374 -10.98065,-1.96208 -7.43847,-2.13353 7.18117,-0.34759 22.77835,2.58973 27.36982,5.15438 5.82274,3.25239 8.75746,6.16514 6.21164,6.16514 -0.88131,0 -2.48424,-1.0293 -3.56207,-2.28734 z m -123.73608,-2.95273 c -1.08581,-2.82782 -0.81531,-8.27449 0.44975,-9.05586 0.6685,-0.4129 1.18729,0.86688 1.24759,3.0776 l 0.10322,3.78445 1.09404,-3.79463 c 1.28102,-4.4432 3.68438,-4.29115 4.22113,0.26702 0.61548,5.22688 -5.43701,10.0934 -7.11572,5.72142 z m 53.37731,-0.092 c -1.9329,-0.77946 -1.81413,-3.42542 0.18823,-4.19332 0.89029,-0.34142 3.45267,0.31366 5.69416,1.45574 l 4.07547,2.0765 -3.54846,0.70926 c -3.93096,0.78572 -4.34934,0.78256 -6.4094,-0.0481 z m 90.61618,-3.14045 c -0.87296,-3.47605 1.0539,-6.39518 4.22134,-6.39518 2.39839,0 6.72616,3.82652 6.72616,5.94711 0,1.06743 -0.30516,1.06743 -1.37325,0 -1.98537,-1.98414 -3.74863,-1.69044 -2.05988,0.34311 1.14854,1.38306 1.12025,1.71854 -0.14599,1.73112 -0.86382,0.009 -2.70592,0.31984 -4.09354,0.69167 -2.02912,0.54372 -2.67014,0.09 -3.27484,-2.31781 z m -134.89459,0.72373 c -0.88855,-0.888 -0.80162,-6.57467 0.1145,-7.49023 0.41416,-0.41388 1.44409,-0.17931 2.28876,0.52127 1.14489,0.94961 1.53576,0.91144 1.53576,-0.14995 0,-1.13588 0.34708,-1.13588 1.71658,0 2.72972,2.26407 2.00632,5.1076 -1.65028,6.48696 -1.85175,0.69854 -3.65416,0.98292 -4.00532,0.63196 z m 113.92118,-2.07838 c -1.41889,-1.63087 -2.41296,-3.10512 -2.20904,-3.27611 1.7266,-1.44793 5.89716,-2.9081 8.30618,-2.9081 4.14343,0 3.93969,3.40224 -0.21087,3.52132 -2.74781,0.0788 -2.52915,0.30884 1.7237,1.81319 5.71416,2.02123 5.37254,3.81488 -0.72657,3.81488 -3.20527,0 -4.96201,-0.75675 -6.8834,-2.96518 z m 43.44657,-0.7511 c 0.69365,-2.41714 0.66573,-3.84979 -0.0799,-4.09817 -1.76871,-0.58919 -1.36921,-2.2559 1.1424,-4.76596 3.53619,-3.53402 4.57751,-2.77208 4.57751,3.34932 0,5.70392 -1.9684,9.23111 -5.15156,9.23111 -1.21012,0 -1.31845,-0.82412 -0.48847,-3.71628 z m -184.28671,0.36044 c -1.72942,-3.22943 -1.44739,-8.72656 0.53192,-10.36824 1.42047,-1.17816 1.72909,-1.05436 1.78912,0.71772 0.0595,1.75783 0.26429,1.66332 1.14295,-0.52759 1.2941,-3.22678 3.57557,-2.73242 4.91947,1.06595 1.39302,3.9372 -1.79809,11.32435 -4.89193,11.32435 -1.26879,0 -2.83997,-0.99549 -3.49153,-2.21217 z m 9.56453,-0.74056 c 0.38204,-0.99498 0.70251,-2.92492 0.71214,-4.28878 0.0143,-2.02029 0.22307,-2.16188 1.12686,-0.76421 1.557,2.40779 1.52261,-0.58778 -0.0403,-3.50621 -0.76297,-1.42477 -0.78142,-2.21216 -0.0518,-2.21216 1.78026,0 2.73804,7.48913 1.30099,10.17265 -1.492,2.78608 -4.08321,3.29511 -3.04789,0.59872 z m 38.51638,-5.17038 c -6.23867,-5.81344 -7.38126,-7.4709 -7.38126,-10.70739 0,-4.43702 2.10299,-7.47402 5.17539,-7.47402 1.79267,0 2.14865,0.87761 2.14865,5.29742 0,4.57674 0.5471,5.8131 4.02164,9.08799 3.71016,3.49695 6.736,10.84203 4.41815,10.7248 -0.55073,-0.0278 -4.3229,-3.14581 -8.38257,-6.9288 z m 142.99021,6.32346 c 0,-0.18633 0.50223,-1.65893 1.11606,-3.27242 1.4278,-3.7531 4.60585,-3.89646 4.60585,-0.20779 0,1.9994 -0.76249,2.87153 -2.86095,3.27244 -1.57352,0.30061 -2.86096,0.39411 -2.86096,0.20777 z m -154.98268,-3.43252 c -0.46886,-1.86697 -1.95748,-3.34702 -4.12634,-4.10262 -2.18329,-0.76064 -3.39288,-1.9704 -3.39288,-3.3934 0,-3.60959 3.07738,-3.73586 9.68015,-0.39721 6.00026,3.03398 9.03579,6.26336 5.88739,6.26336 -0.83947,0 -2.82874,1.02386 -4.42057,2.27523 l -2.89428,2.27523 z m 115.47422,0.5713 c -0.41459,-1.30545 -0.57802,-2.49096 -0.36322,-2.63445 0.21482,-0.1435 1.67802,-0.85575 3.25154,-1.58277 2.53371,-1.1707 2.30683,-1.24543 -1.98362,-0.65347 -3.83777,0.5295 -4.9936,0.28033 -5.56163,-1.19904 -1.66065,-4.32492 5.7298,-10.09169 10.55942,-8.23953 1.73597,0.66575 1.73616,0.87224 0.003,2.78667 -2.27702,2.51453 -2.48868,4.39433 -0.28941,2.57022 2.1383,-1.77355 3.43802,1.49882 1.80584,4.5467 -0.65504,1.2232 -0.71684,2.2045 -0.13884,2.2045 0.57294,0 1.86676,-1.67263 2.87517,-3.71694 1.17355,-2.37913 1.84282,-2.97614 1.8595,-1.65872 0.044,3.47927 -3.17546,8.47848 -5.93611,9.21754 -4.2588,1.14013 -5.28606,0.86297 -6.0812,-1.64071 z M 464.983,532.28048 c 0.37364,-0.97309 -0.0513,-2.17795 -0.94452,-2.67747 -1.1747,-0.65698 -0.5256,-1.25173 2.34663,-2.15018 5.07726,-1.58818 8.71607,0.4709 6.69534,3.78867 -1.63932,2.69159 -9.09955,3.6488 -8.09745,1.03898 z m -57.08744,-3.30992 c -0.66579,-2.24266 -2.378,-4.27785 -4.50684,-5.35702 -1.88824,-0.9572 -3.65998,-1.88129 -3.93722,-2.05352 -1.54651,-0.96076 3.78021,-4.026 6.84498,-3.93892 3.94645,0.11219 14.83011,3.68343 14.83011,4.86626 0,0.40379 -1.28741,1.3204 -2.86095,2.03691 -1.57351,0.71649 -2.86094,1.79336 -2.86094,2.39304 0,0.59968 -1.44798,2.12073 -3.21773,3.38012 l -3.21771,2.28981 z m -30.67847,0.0506 c -1.22659,-4.57417 -0.77027,-7.32101 1.56747,-9.43532 2.34042,-2.11676 2.74142,-1.72072 2.3024,2.27392 -0.22637,2.05994 -0.0401,2.01509 1.97874,-0.47664 3.04031,-3.75232 6.37949,-2.56407 5.324,1.89454 -1.69522,7.16098 -9.69038,11.27103 -11.17261,5.7435 z m 38.83993,1.55917 c -0.34492,-0.55774 0.13967,-1.65006 1.07685,-2.42738 1.418,-1.17613 1.70398,-1.00594 1.70398,1.01409 0,2.45359 -1.62634,3.28014 -2.78083,1.41329 z m 115.8154,-1.95645 c -1.78623,-3.91792 0.004,-6.64548 4.66583,-7.10907 3.70242,-0.36819 5.02704,1.59986 1.88725,2.80397 -0.94411,0.36209 -1.71657,1.83483 -1.71657,3.27278 0,3.88317 -3.22313,4.57112 -4.83651,1.03232 z m -26.25519,-2.9e-4 c -1.43249,-1.43161 -2.33639,-1.5554 -4.17531,-0.57184 -2.99406,1.60138 -3.98652,1.59415 -2.98721,-0.0218 1.71872,-2.77921 25.66606,-12.34759 25.66606,-10.2551 0,1.04376 -8.81099,9.26059 -12.016,11.20573 -3.08214,1.87059 -4.32712,1.80206 -6.48754,-0.35703 z m -25.58385,-0.50672 c -0.40482,-0.6546 -1.63623,-0.90465 -2.7365,-0.55565 -2.65208,0.84121 -6.74583,-3.50231 -4.97184,-5.27521 0.90296,-0.90242 2.38689,-0.38159 5.35155,1.87828 2.25616,1.71981 4.10212,3.58049 4.10212,4.13485 0,1.36069 -0.84577,1.27237 -1.74533,-0.18227 z m 104.73949,-1.09712 c 0,-1.27076 0.76293,-2.28736 1.71658,-2.28736 0.95365,0 1.71656,1.0166 1.71656,2.28736 0,1.27075 -0.76291,2.28735 -1.71656,2.28735 -0.95365,0 -1.71658,-1.0166 -1.71658,-2.28735 z m -141.19926,-2.81896 c -1.0165,-1.55042 -1.84819,-4.15629 -1.84819,-5.79083 0,-2.66397 0.38536,-2.93476 3.71924,-2.61351 3.41502,0.32908 3.74884,0.71853 4.08124,4.76154 0.26868,3.26813 -0.003,4.1779 -1.05277,3.52933 -0.98621,-0.60913 -1.1934,-0.29734 -0.684,1.02931 1.15262,3.00182 -2.11199,2.29259 -4.21552,-0.91584 z m 10.58934,-1.95781 -0.15064,-4.94447 -0.84309,4.00286 -0.84308,4.00287 -0.15065,-4.79577 c -0.11792,-3.75419 0.39846,-5.18015 2.37761,-6.56554 2.90722,-2.03505 3.97577,-1.32267 5.38572,3.59052 1.17964,4.11062 -0.62387,8.69144 -3.65129,9.27411 -1.606,0.3091 -2.002,-0.54171 -2.12458,-4.56458 z m 9.30569,3.77313 c 0,-0.552 0.77245,-1.64433 1.71658,-2.42738 0.94411,-0.78307 1.71656,-1.95516 1.71656,-2.60465 0,-0.64949 -1.02993,-0.24938 -2.28876,0.88913 -2.24717,2.03241 -2.28875,1.99757 -2.28875,-1.91684 0,-3.03998 0.65355,-4.33641 2.75182,-5.45868 1.51349,-0.80951 3.31589,-1.12343 4.00534,-0.69761 2.1291,1.31507 1.45395,8.44464 -1.03527,10.93231 -2.39019,2.38873 -4.57752,3.00214 -4.57752,1.28372 z m -95.26959,-2.61302 c -1.73087,-0.63178 -3.14705,-1.84044 -3.14705,-2.68589 0,-2.52105 5.7684,-6.2798 9.59546,-6.25249 l 3.56491,0.0255 -2.86096,2.36837 c -1.87343,1.5509 -2.16969,2.14665 -0.85828,1.72598 2.33287,-0.74831 2.35861,-0.65503 0.88661,3.21422 -1.19901,3.15167 -2.27995,3.39317 -7.18069,1.60438 z m 114.64196,-1.68322 c -1.63315,-3.04966 -10.21834,-10.45024 -10.21594,-8.8063 7.7e-4,0.52464 1.28819,2.44921 2.86095,4.27686 3.65079,4.24247 3.68002,5.96275 0.0561,3.30653 -1.54185,-1.13015 -3.12768,-3.47012 -3.52406,-5.19993 -0.39638,-1.72981 -1.15274,-3.14509 -1.68082,-3.14509 -0.94907,0 -5.72429,-7.02953 -5.72429,-8.42664 0,-3.97636 11.97554,5.66851 17.20979,13.86043 2.65386,4.15345 3.31363,4.61261 4.52746,3.15094 1.15073,-1.38569 0.92442,-2.96252 -1.19023,-8.29299 -1.43615,-3.62008 -3.11532,-7.23771 -3.73151,-8.0392 -2.07939,-2.70463 -1.97973,-0.64271 0.21388,4.42559 1.19912,2.77056 2.54047,6.324 2.98078,7.89656 0.7624,2.7229 0.72423,2.75016 -0.80099,0.57184 -0.88087,-1.25805 -3.76088,-7.25854 -6.40006,-13.33443 -4.5587,-10.49504 -5.87589,-15.82929 -3.90874,-15.82929 1.78955,0 5.97653,3.60515 5.97653,5.14601 0,0.87191 0.97953,3.28734 2.17671,5.36761 1.19719,2.08028 3.33985,7.45588 4.76146,11.9458 l 2.58476,8.16345 -2.30847,2.93295 -2.30847,2.93294 z m -61.23125,-1.60485 c -3.7275,-1.90356 -7.78365,-4.46476 -9.0137,-5.69154 -2.21879,-2.21292 -2.21267,-2.25547 0.77669,-5.39613 5.25621,-5.5223 5.56449,-13.11891 0.59632,-14.69477 -1.35463,-0.42968 -3.16746,-1.4853 -4.02854,-2.34585 -2.54969,-2.54812 -6.7156,-1.8454 -9.36952,1.58048 l -2.43639,3.1451 0.76587,-5.10255 c 0.42123,-2.80641 1.155,-5.89433 1.63058,-6.86206 0.47559,-0.96772 1.75835,-4.59009 2.85059,-8.0497 1.09225,-3.45962 2.95683,-8.38266 4.14351,-10.94008 1.1867,-2.55743 2.15763,-5.25936 2.15763,-6.0043 0,-0.74493 0.51497,-1.35442 1.14438,-1.35442 0.6294,0 1.14438,-0.80449 1.14438,-1.78774 0,-2.96373 16.37384,-26.87856 23.5869,-34.44987 8.89904,-9.34103 23.19364,-21.03581 30.56744,-25.00801 3.25908,-1.75563 6.24549,-3.67035 6.63652,-4.25493 1.51132,-2.25952 28.93056,-12.03509 33.62046,-11.98645 1.25881,0.013 4.47738,-0.36836 7.15237,-0.84759 4.34148,-0.7778 4.86362,-0.63465 4.86362,1.33344 0,5.38843 7.54262,6.64441 14.94221,2.48817 4.16062,-2.33696 4.53022,-2.36456 7.30819,-0.54548 4.59325,3.00775 3.48757,4.15059 -4.01556,4.15059 -8.2795,0 -10.73722,1.11923 -12.30076,5.60168 -0.90298,2.58867 -3.07695,4.31757 -9.44535,7.51169 -4.54982,2.28199 -9.80969,5.2829 -11.68861,6.66869 -5.84821,4.31332 -21.40366,19.60384 -21.41218,21.0475 -0.005,0.75503 -0.69521,1.78433 -1.53501,2.28735 -2.28363,1.36784 -12.36688,17.32533 -13.70892,21.69537 -0.64321,2.09453 -1.55715,3.80823 -2.03094,3.80823 -0.4738,0 -1.22533,1.65574 -1.67007,3.67941 -0.44476,2.02367 -1.22796,4.46828 -1.74046,5.43246 -1.18044,2.22078 -5.64343,17.14591 -5.64343,18.87276 0,3.04941 -3.00206,7.45202 -5.08709,7.46038 -1.22438,0.004 -3.66511,1.3867 -5.42386,3.07065 -3.01818,2.88982 -6.31835,3.00667 -3.4314,0.1215 0.74479,-0.74434 1.30327,-3.18037 1.24103,-5.41339 l -0.11316,-4.06005 -1.59324,5.14653 c -0.87629,2.83061 -2.68482,6.04719 -4.01898,7.14797 -2.72351,2.24714 -6.19305,2.73342 -4.92996,0.69097 0.57034,-0.92227 -0.0876,-1.08521 -2.22123,-0.55005 -2.61778,0.65662 -3.02666,0.40617 -2.99524,-1.83464 0.0664,-4.73991 5.08646,-8.88526 10.75999,-8.88526 1.6149,0 2.93618,-0.51466 2.93618,-1.14368 0,-2.09348 -6.47395,-1.17988 -10.41629,1.46993 -3.82725,2.57248 -3.90343,2.78707 -4.83958,13.63533 -0.85701,9.93097 -0.71406,11.55732 1.44436,16.43378 1.3175,2.97662 2.22041,5.58699 2.00647,5.80082 -0.21396,0.21382 -3.43877,-1.16869 -7.16625,-3.07224 z m -26.80389,-0.90169 c 0,-3.10994 0.41012,-3.63038 2.86095,-3.63038 3.61487,0 3.61487,1.18079 0,4.5747 l -2.86095,2.68608 z m 35.56611,-3.36049 c -0.10516,-7.00856 3.18147,-13.14817 8.14825,-15.22136 4.68071,-1.95378 6.66696,-0.59668 2.38083,1.62668 -4.08128,2.11713 -6.55277,5.77 -5.59376,8.26762 0.34343,0.89438 0.16851,1.62616 -0.38869,1.62616 -0.55722,0 -1.78783,2.18726 -2.73469,4.86061 l -1.72161,4.86062 -0.0903,-6.02033 z m 64.61736,-2.27344 c 0.0519,-7.99004 1.98598,-14.65228 3.90861,-13.46477 2.06597,1.27607 2.61022,8.53053 1.03894,13.84883 -1.35361,4.58161 -1.64546,4.90817 -2.30162,2.57544 -0.64841,-2.30503 -0.76713,-2.16162 -0.86554,1.04549 -0.22163,7.22148 -1.82995,3.60359 -1.78039,-4.00499 z m -114.31084,2.19943 c -2.73921,-3.02493 -2.32868,-5.80568 1.04642,-7.0881 3.86194,-1.4674 7.70164,-0.41701 10.58333,2.8952 l 2.33189,2.68027 -4.78074,0.81764 c -3.89376,0.66595 -4.35612,0.98537 -2.492,1.72167 1.89817,0.74976 1.68433,0.91774 -1.2531,0.98441 -2.06196,0.0467 -4.33323,-0.79351 -5.4358,-2.01109 z m 23.30593,-1.47226 c -4.16274,-1.65986 -6.8898,-4.47825 -6.8898,-7.12057 0,-2.18585 0.18715,-2.14895 3.14704,0.6206 1.73088,1.61959 4.25923,3.27976 5.61855,3.68929 1.35934,0.40955 3.09605,1.49667 3.85936,2.41585 1.13458,1.36623 0.99681,1.65798 -0.75494,1.59872 -1.17853,-0.0399 -3.41963,-0.58162 -4.98021,-1.20389 z m -8.03418,-1.01097 c 0,-1.47981 1.94581,-1.47981 2.86094,0 0.389,0.62902 -0.0956,1.14367 -1.07683,1.14367 -0.98125,0 -1.78411,-0.51465 -1.78411,-1.14367 z m 30.6059,0.47028 c -0.64117,-0.64075 -0.0162,-10.36397 0.81483,-12.67602 0.47938,-1.33387 5.23622,-0.76546 5.15885,0.61646 -0.0223,0.3984 -0.7765,2.011 -1.67601,3.58356 -0.8995,1.57255 -1.65371,3.98678 -1.67601,5.36496 -0.0408,2.52502 -1.48879,4.24322 -2.62166,3.11104 z m 21.74947,-0.12209 c -2.22694,-0.57367 -2.43404,-1.32818 -0.98973,-3.60582 1.4005,-2.20857 5.28115,-1.13393 5.28115,1.46247 0,2.36182 -1.17172,2.94704 -4.29142,2.14335 z m 10.24587,-2.09978 c -2.02331,-2.77824 -2.01011,-2.84438 0.82441,-4.13507 2.22316,-1.01233 3.28007,-0.98033 4.63105,0.14018 2.24179,1.85939 2.26198,4.60282 0.0339,4.60282 -0.94411,0 -1.71655,0.51465 -1.71655,1.14366 0,1.95174 -1.62527,1.19719 -3.77279,-1.75159 z m 120.1538,0.7635 c -0.74037,-0.89155 -1.41803,-3.05008 -1.50593,-4.79675 -0.15225,-3.02544 0.0367,-3.14565 3.99295,-2.53924 2.28402,0.3501 5.0201,1.0796 6.08019,1.62113 2.94887,1.50636 3.12713,1.28479 2.42841,-3.01829 -0.50019,-3.08035 -0.25544,-4.00286 1.06199,-4.00286 1.9725,0 7.74253,4.26254 7.74253,5.71969 0,1.82662 -3.72,4.7081 -5.29726,4.10322 -0.89744,-0.34418 -1.56902,0.12931 -1.56902,1.10621 0,3.60371 -10.2523,5.03598 -12.93386,1.80689 z m 4.06492,-3.20037 c -0.78676,-0.31727 -2.07418,-0.31727 -2.86096,0 -0.78675,0.31727 -0.14304,0.57686 1.43048,0.57686 1.57352,0 2.21725,-0.25959 1.43048,-0.57686 z m -142.76135,-0.38627 c 3.44767,-3.59638 2.844,-4.80522 -0.76818,-1.53825 -2.10274,1.90178 -2.80545,0.99796 -1.19367,-1.53531 1.22423,-1.92414 6.76688,-3.84889 8.8182,-3.06221 2.33843,0.89679 2.17577,2.19005 -0.77746,6.18208 -1.80644,2.44183 -3.46005,3.38473 -5.93602,3.38473 h -3.43202 z m 122.59193,-0.14161 c -0.98455,-4.91975 2.25562,-10.34127 6.99177,-11.69874 5.39203,-1.54547 7.48252,-0.39027 5.83464,3.22423 -0.72662,1.59376 -1.83253,2.89775 -2.4576,2.89775 -0.62506,0 -3.05026,2.07172 -5.38934,4.60383 l -4.25284,4.60383 z m -20.58417,-0.56514 c -1.17195,-1.60723 -2.20189,-4.55031 -2.28877,-6.54019 -0.13511,-3.0945 0.27251,-3.66794 2.81735,-3.9633 2.37346,-0.27547 3.37184,0.41858 4.93552,3.43103 l 1.96021,3.77635 -0.70535,-4.33877 c -0.88958,-5.47212 0.13991,-8.8135 2.71545,-8.8135 2.13115,0 5.85674,6.52936 5.85674,10.26439 0,3.09302 -2.37278,4.1689 -4.07208,1.8464 -1.28558,-1.75707 -1.51865,-1.58715 -2.22381,1.62146 -0.5655,2.57318 -1.27723,3.39653 -2.52303,2.91876 -1.20925,-0.46374 -1.53412,-0.14146 -1.07165,1.06299 1.12041,2.9179 -3.06535,1.93699 -5.40058,-1.26562 z m -167.24549,-1.58953 c -2.03392,-2.24607 -2.03093,-2.36411 0.10036,-3.97575 2.89626,-2.19009 3.93668,-2.11167 7.34621,0.55366 2.5357,1.98223 2.61099,2.23939 0.6623,2.26191 -1.20925,0.014 -3.05681,0.80158 -4.10568,1.75022 -1.7109,1.54739 -2.12259,1.4867 -4.00318,-0.59004 z m 13.68863,-0.51092 c -4.74253,-4.73962 -3.05398,-8.30786 2.88968,-6.10644 3.00117,1.11158 4.55436,2.86048 4.58329,5.16082 0.0104,0.85254 -0.76007,1.10245 -1.98515,0.6436 -1.75375,-0.65684 -1.80745,-0.51023 -0.43207,1.17958 2.608,3.20419 -1.72386,2.45228 -5.05575,-0.87756 z m 12.70509,0.26537 c -2.67747,-3.82026 -2.35838,-8.89492 0.55931,-8.89492 3.26265,0 7.95864,5.03052 7.95864,8.52559 0,3.43502 -0.73732,3.61048 -3.82317,0.90973 -2.17792,-1.90614 -2.25204,-1.90614 -1.55649,0 1.03536,2.8374 -1.01884,2.48368 -3.13829,-0.5404 z m 9.19961,-4.88561 c -1.85266,-2.82576 -1.87987,-3.30199 -0.27991,-4.90095 2.52071,-2.51916 5.36064,0.0805 5.1874,4.74862 -0.093,2.50316 -0.31098,2.89027 -0.72644,1.28955 -0.56592,-2.18035 -0.62961,-2.18724 -1.36134,-0.14732 -0.6953,1.9383 -0.96108,1.845 -2.81971,-0.9899 z m 39.57475,0.94052 c -5.18406,-2.172 -4.03509,-4.25527 2.74657,-4.97997 l 5.63315,-0.60196 -4.82161,-0.92107 c -2.65189,-0.50658 -5.35549,-0.5913 -6.00799,-0.18829 -0.65251,0.40303 -1.18639,0.24281 -1.18639,-0.35602 0,-3.14451 7.90692,-3.21573 11.86166,-0.10683 4.2254,3.32164 3.60253,6.21996 -1.56223,7.26962 -0.31471,0.064 -1.08717,0.42258 -1.71658,0.79694 -0.62941,0.37435 -2.85538,-0.0362 -4.94658,-0.91239 z m 134.23979,0.73346 c -0.4335,-0.70097 -2.43229,-0.86727 -4.93116,-0.41027 l -4.20218,0.76851 2.15976,-2.42657 c 2.10028,-2.35971 9.29996,-4.5521 10.61919,-3.23367 0.96137,0.96076 -0.62428,6.48076 -1.86163,6.48076 -0.58027,0 -1.38305,-0.53045 -1.78398,-1.17876 z m 9.50734,-4.69208 c -0.23779,-0.71288 -3.75676,-1.62469 -7.81994,-2.02626 -6.18083,-0.61083 -7.01374,-0.93326 -5.09885,-1.97378 3.45414,-1.87695 9.54896,-2.77937 10.32257,-1.52842 0.37627,0.60843 1.62061,1.10622 2.7652,1.10622 2.98798,0 4.96427,2.6596 3.24962,4.37318 -1.69603,1.695 -2.86404,1.71176 -3.4186,0.049 z m -188.98175,-2.71988 c -2.24587,-1.64432 -1.67396,-3.98971 0.97288,-3.98971 2.16084,0 3.17863,1.92483 2.0646,3.90456 -0.7788,1.384 -1.24557,1.39709 -3.03748,0.0852 z m 120.20224,-6.04085 c -2.18976,-2.41818 -2.46707,-4.34447 -0.77583,-5.38907 1.95344,-1.20655 5.65152,0.5477 4.95863,2.35222 -0.39289,1.02322 0.0672,1.65697 1.20278,1.65697 1.01145,0 1.839,0.51466 1.839,1.14367 0,0.62902 -0.47286,1.14367 -1.05077,1.14367 -0.57794,0 -1.76911,0.27549 -2.64707,0.61218 -0.87794,0.33669 -2.46498,-0.34715 -3.52674,-1.51964 z m 82.03103,0.34412 c -8.78373,-1.90909 -13.05888,-4.0956 -16.87896,-8.63272 -4.02235,-4.77734 -3.91461,-8.56991 0.30539,-10.75082 6.33276,-3.27277 15.86294,-15.19999 18.51921,-23.17713 3.95581,-11.87992 1.44038,-26.22582 -6.39966,-36.49832 -3.51549,-4.60624 -11.88592,-10.32764 -17.81476,-12.17689 -2.47436,-0.77176 -4.78556,-2.306 -5.13598,-3.40941 -1.15262,-3.62937 -4.72743,-4.5241 -14.74407,-3.69023 -6.21328,0.51725 -9.73814,0.37595 -10.22407,-0.40984 -0.4879,-0.78893 0.58585,-0.98393 3.13846,-0.56996 2.66165,0.43166 4.86506,-0.0157 7.0167,-1.42466 2.82733,-1.85139 3.08003,-2.55566 2.56274,-7.14224 l -0.57389,-5.08832 11.39311,0.78419 c 17.64383,1.21447 36.16653,7.8835 53.11435,19.12365 20.34596,13.49386 28.91128,31.19417 26.05964,53.85242 -1.5114,12.00903 -4.78015,19.08752 -12.59605,27.27661 -10.37541,10.87085 -23.51577,15.0257 -37.74216,11.93367 z m -74.04352,-2.48646 c -1.24343,-1.24265 -0.86994,-5.53518 0.61033,-7.01453 0.7553,-0.75482 2.68644,-1.33178 4.29142,-1.28211 1.605,0.0496 2.23833,0.36189 1.40742,0.69387 -1.09272,0.43658 -0.83515,1.07652 0.9309,2.31274 2.31901,1.6233 2.34287,1.81823 0.47509,3.88082 -1.9298,2.13111 -6.21046,2.913 -7.71516,1.40921 z m 16.75692,-5.68321 c -1.52076,-3.96057 3.99068,-8.70066 7.10912,-6.11416 1.78223,1.47818 1.67798,1.80758 -1.33453,4.21677 -3.41107,2.7279 -2.98983,3.4746 0.81277,1.44077 1.27359,-0.68118 2.21352,-0.73314 2.21352,-0.12235 0,2.76721 -7.76453,3.278 -8.80088,0.57897 z m -24.04068,-1.16636 c -0.4649,-1.21076 0.21006,-2.65206 1.87169,-3.99673 2.53358,-2.05032 5.34299,-1.87522 4.02807,0.25104 -0.36211,0.58555 -0.0333,1.06464 0.73091,1.06464 0.86211,0 0.60332,0.86794 -0.68203,2.28735 -2.51846,2.78115 -4.96963,2.94338 -5.94864,0.3937 z m 42.69843,0.10339 c -0.52771,-1.37435 -0.15732,-1.62215 1.59413,-1.06661 1.30643,0.41436 2.28156,0.20192 2.28156,-0.49708 0,-0.67142 -1.28743,-1.22075 -2.86096,-1.22075 -4.51231,0 -3.3343,-2.00637 1.67458,-2.8521 7.03498,-1.18781 9.52555,2.034 4.36488,5.64644 -3.2533,2.2773 -6.17754,2.27318 -7.05419,-0.0103 z m -26.52831,-1.76677 c -1.10112,-1.78054 0.24291,-2.50272 2.40614,-1.29287 1.72172,0.96293 1.73479,1.15208 0.12247,1.77039 -0.99285,0.38077 -2.13072,0.16588 -2.52861,-0.47752 z m 3.8544,-3.53375 c 1.06808,-1.06743 1.67841,-1.06743 2.7465,0 1.06809,1.06743 0.76293,1.37241 -1.37325,1.37241 -2.13619,0 -2.44135,-0.30498 -1.37325,-1.37241 z m -12.07322,-0.52871 c -4.42789,-1.78558 2.15368,-8.03247 7.14404,-6.78073 3.75204,0.94113 3.64229,2.49071 -0.27776,3.92155 l -3.14703,1.1487 3.21458,0.0903 c 1.83401,0.0514 2.91083,0.58146 2.50732,1.23396 -0.72402,1.17074 -6.87202,1.42226 -9.44115,0.38624 z m 15.35377,-1.14869 c -1.24342,-1.24264 -0.86994,-5.53518 0.61033,-7.01453 2.12948,-2.12817 4.12139,-1.63855 6.19386,1.52247 2.29139,3.49495 1.15844,5.2772 -1.37827,2.16817 -1.36592,-1.6741 -1.65966,-1.75625 -1.22199,-0.3418 0.85869,2.77503 -2.32092,5.54755 -4.20393,3.66569 z m 18.97763,-1.97327 c 2.73238,-2.07289 2.53412,-3.34737 -0.2861,-1.83897 -1.60462,0.85824 -2.28876,0.86178 -2.28876,0.0119 0,-1.54483 5.63037,-3.72277 7.63581,-2.95367 3.38154,1.2968 -0.29855,6.39873 -4.57051,6.33641 -2.31622,-0.0339 -2.35101,-0.14418 -0.49044,-1.55569 z m -25.46245,-5.27001 c -2.71191,-2.71024 -3.01971,-7.79717 -0.52956,-8.75216 3.66005,-1.40362 8.36373,6.16885 5.08841,8.19186 -0.63967,0.39509 -0.86678,1.19746 -0.50465,1.78302 1.22322,1.97799 -1.74825,1.08182 -4.0542,-1.22272 z m 2.23631,-2.3853 c -0.70255,-1.3119 -1.50524,-2.15755 -1.78378,-1.87919 -0.80095,0.80045 0.82278,4.26449 1.99892,4.26449 0.58459,0 0.48784,-1.07254 -0.21514,-2.3853 z m -12.7244,2.75938 c -2.54812,-0.67445 -3.28143,-2.92726 -2.23081,-6.85343 1.578,-5.89696 8.14139,-4.33488 8.14139,1.93763 0,2.62868 -0.4021,3.07883 -2.30577,2.58132 -1.7731,-0.46339 -2.14138,-0.17445 -1.59413,1.25074 0.39139,1.01935 0.52778,1.79365 0.30309,1.72067 -0.22468,-0.073 -1.26589,-0.35959 -2.31377,-0.63693 z m 37.46116,-8.2502 c -0.74755,-1.20881 2.53252,-4.18997 3.52202,-3.20108 0.95349,0.95291 -0.42576,4.21517 -1.78215,4.21517 -0.61202,0 -1.39496,-0.45634 -1.73987,-1.01409 z m -3.61568,-2.25754 c 1.20252,-1.35342 1.91962,-2.72739 1.59357,-3.05325 -0.32607,-0.32585 -1.24424,0.19196 -2.04041,1.15069 -1.96956,2.37171 -4.86163,2.22747 -4.39021,-0.21898 0.54682,-2.8376 6.20174,-5.81138 7.87362,-4.14053 1.7846,1.78349 0.29707,5.82977 -2.72557,7.41397 -2.48115,1.30036 -2.48316,1.29289 -0.311,-1.1519 z m 5.57907,-6.73554 c -2.44984,-2.48788 -2.45816,-2.57327 -0.25016,-2.57327 1.25608,0 2.57368,0.755 2.928,1.67779 1.17858,3.06944 -0.11203,3.50105 -2.67784,0.89548 z m -44.37096,-3.69331 c -0.93335,-1.50926 1.43382,-5.75495 3.17268,-5.69043 0.76461,0.0283 2.93514,0.74122 4.82335,1.58409 l 3.43314,1.5325 -4.25467,1.84694 c -4.93071,2.14042 -6.21961,2.271 -7.1745,0.7269 z m 51.19637,0.30464 c -1.41617,-0.26805 -2.57486,-0.92412 -2.57486,-1.45795 0,-0.53383 -0.27039,-1.67479 -0.60087,-2.53548 -0.44183,-1.15065 0.63703,-1.61422 4.07575,-1.75126 4.4131,-0.17588 4.65655,-0.0174 4.32012,2.81274 -0.38339,3.22508 -1.21217,3.69058 -5.22014,2.93195 z M 521.41415,437.73 c -4.76332,-3.74451 -3.45014,-6.77903 2.93361,-6.77903 1.87261,0 2.22045,0.5652 1.77645,2.88647 -0.30368,1.58756 -0.10621,3.1619 0.43878,3.49852 0.54501,0.33664 0.99091,1.09633 0.99091,1.68822 0,1.82226 -2.97244,1.1957 -6.13975,-1.29418 z m 17.58353,0.77721 c 0,-2.01935 3.99702,-2.55816 5.14972,-0.69421 0.389,0.62903 0.20402,1.14368 -0.41106,1.14368 -0.61507,0 -1.93289,0.31239 -2.92847,0.69421 -1.18786,0.45553 -1.81019,0.0623 -1.81019,-1.14368 z m -9.03569,-0.59629 c -2.64791,-1.67562 -0.54549,-4.67261 3.27789,-4.67261 3.74431,0 4.73676,1.78855 1.4664,2.64265 -1.85081,0.48337 -1.8457,0.5331 0.0674,0.65572 2.57885,0.16525 1.37462,2.42651 -1.27945,2.40249 -1.06432,-0.009 -2.65388,-0.47235 -3.53236,-1.02825 z m 50.86372,-0.48581 c -1.96249,-1.43412 -1.96983,-1.57991 -0.11546,-2.29107 1.08922,-0.41771 2.41332,-0.49208 2.94243,-0.16526 0.52913,0.3268 1.28551,0.0712 1.68086,-0.56815 0.67685,-1.09451 -3.0398,-1.7484 -7.71304,-1.35701 -2.3509,0.19689 -2.58139,-1.04721 -0.57219,-3.08852 1.15336,-1.1718 0.82084,-1.30288 -1.71656,-0.67659 -3.99208,0.98531 -4.12734,-0.88286 -0.33812,-4.66974 2.85695,-2.8552 7.91304,-3.75602 9.21995,-1.64268 0.3961,0.64049 -0.38797,2.95644 -1.74236,5.14655 -2.71344,4.38772 -2.37996,4.85225 1.60848,2.24053 1.46269,-0.95779 3.50446,-1.41739 4.53725,-1.02131 2.84078,1.08944 2.28631,5.66325 -0.94287,7.77778 -3.42463,2.24253 -4.16467,2.27662 -6.84837,0.31547 z m -41.82803,-5.39797 c 0,-0.66615 -0.461,-0.92642 -1.02446,-0.5784 -1.10205,0.68068 -2.40867,-1.87783 -2.40867,-4.71655 0,-1.08064 0.65312,-1.49385 1.71658,-1.08602 1.03515,0.39697 1.71655,0.006 1.71655,-0.98543 0,-0.99122 -0.6814,-1.3824 -1.71655,-0.98542 -2.31584,0.88812 -2.19717,-1.84223 0.15477,-3.56094 2.06262,-1.50731 7.62965,-0.94119 6.63063,0.67428 -0.34451,0.5571 0.23155,1.0129 1.28015,1.0129 1.26836,0 1.67403,0.60556 1.21191,1.80906 -0.38204,0.99497 -0.69462,2.02428 -0.69462,2.28734 0,0.26306 -1.28743,0.4783 -2.86094,0.4783 -1.57353,0 -2.86095,0.51466 -2.86095,1.14367 0,1.50329 2.99597,1.45797 5.8884,-0.089 2.0312,-1.08639 2.26,-0.91808 1.92742,1.41792 -0.42834,3.00875 -4.16583,4.28272 -5.65851,1.92878 -0.75711,-1.19397 -0.98185,-1.09027 -0.99542,0.45931 -0.009,1.10079 -0.53249,2.00143 -1.16189,2.00143 -0.62941,0 -1.1444,-0.54503 -1.1444,-1.21117 z m -11.61421,-1.85325 c -1.11501,-1.34266 -1.06548,-1.89551 0.24401,-2.72361 2.80596,-1.77443 5.64832,-1.23098 5.64832,1.07994 0,2.73669 -4.04713,3.86563 -5.89233,1.64367 z m 60.48074,-4.55708 c 0.45514,-1.18535 0.27486,-1.62154 -0.478,-1.15654 -0.66482,0.41062 -1.48449,-0.30723 -1.82154,-1.59524 -0.51463,-1.9668 -0.14163,-2.28525 2.32934,-1.98855 3.80614,0.45698 6.18523,3.96027 3.74514,5.51481 -2.71863,1.73203 -4.58994,1.34808 -3.77494,-0.77448 z m -21.31529,-1.5279 c -0.041,-1.57255 1.14924,-4.38801 2.64519,-6.25657 2.35204,-2.93785 2.97044,-3.18962 4.57184,-1.8614 2.60928,2.16417 2.30166,5.00963 -0.8628,7.98065 -2.53963,2.38439 -2.76895,2.41567 -3.55598,0.48528 -0.78883,-1.93483 -0.89995,-1.92088 -1.78239,0.22387 -0.85663,2.08205 -0.94782,2.03071 -1.01586,-0.57183 z m -9.39481,-0.76138 c -0.85961,-1.1538 -3.10783,-2.27886 -4.99605,-2.50015 -4.74689,-0.55632 -7.43527,-2.17833 -7.45599,-4.49852 -0.0149,-1.65371 -0.18445,-1.69741 -1.08216,-0.2788 -0.58554,0.92532 -1.40265,1.34459 -1.81578,0.93172 -0.41311,-0.41288 0.0738,-1.92778 1.08217,-3.36647 1.12146,-1.60013 1.83329,-1.9841 1.83329,-0.98889 0,1.26535 0.30517,1.3219 1.37324,0.25447 2.44841,-2.44689 3.51811,-1.46089 2.85377,2.63045 -0.35748,2.20158 -0.20209,4.00287 0.34534,4.00287 1.75546,0 2.3902,-4.17274 1.13616,-7.46907 -1.41919,-3.73046 -0.12489,-5.67234 3.09912,-4.64972 1.45169,0.46048 3.00024,3.23559 4.67062,8.37013 2.49991,7.68432 1.96027,11.59408 -1.04373,7.56198 z m 21.89686,-4.19454 c 0,-0.94354 -0.64371,-1.9514 -1.43047,-2.23971 -1.10295,-0.40416 -1.12055,-0.85355 -0.0769,-1.96267 1.99992,-2.12542 5.16869,-0.46065 4.73471,2.48747 -0.41744,2.83567 -3.22733,4.32876 -3.22733,1.71491 z m -46.91956,-6.48084 c 0,-3.23364 4.02697,-6.86204 7.61584,-6.86204 2.87097,0 2.934,0.11518 1.14439,2.09148 -2.36369,2.61023 -2.49173,4.40278 -0.17738,2.48321 1.40322,-1.16384 1.71657,-1.09236 1.71657,0.39156 0,2.23197 -3.4345,4.18314 -7.36324,4.18314 -2.17325,0 -2.93618,-0.59432 -2.93618,-2.28735 z m 12.58818,-5.05123 c 0,-0.99595 0.81537,-1.81081 1.81194,-1.81081 2.02089,0 1.66893,2.46205 -0.45299,3.16892 -0.74742,0.24899 -1.35895,-0.36215 -1.35895,-1.35811 z m 25.08399,-2.27143 c 0.80034,-0.96376 0.88822,-1.76286 0.2201,-2.00143 -0.62476,-0.2231 -0.38143,-1.38851 0.55521,-2.65924 1.32805,-1.80174 2.06867,-2.0036 3.63926,-0.99198 3.56241,2.29461 1.11993,7.20082 -3.60405,7.23942 -1.70947,0.014 -1.87337,-0.3069 -0.81052,-1.58677 z m -39.19801,-1.44551 c -1.52732,-1.52638 -0.68841,-2.50319 2.80912,-3.27091 2.11462,-0.46416 3.80328,-1.66779 4.1388,-2.95004 0.6051,-2.31251 2.58859,-3.00928 2.58859,-0.90934 0,1.35875 -6.5739,7.89274 -7.94097,7.89274 -0.45793,0 -1.17593,-0.34311 -1.59554,-0.76245 z m 30.97303,-1.82075 c -1.06115,-2.7594 0.84714,-7.30638 3.70869,-8.83691 3.40183,-1.81948 4.87296,-0.4084 3.9713,3.80918 -1.31627,6.1572 -4.97675,8.89905 -5.19863,3.89399 -0.10825,-2.44287 -0.15445,-2.4284 -0.91096,0.28592 -0.67726,2.4299 -0.91304,2.5572 -1.5704,0.84782 z m -37.45783,-3.76381 c 0,-3.25965 3.31276,-8.22235 5.96216,-8.93162 3.81518,-1.02137 4.57295,-0.89555 3.64486,0.60521 -0.55637,0.89966 -0.20358,1.09877 1.07685,0.60772 2.79834,-1.07316 2.51103,4.30993 -0.38447,7.20365 -2.84315,2.8414 -10.2994,3.21426 -10.2994,0.51504 z m 47.61417,-2.32409 c -1.0247,-2.6687 -0.94875,-2.76565 2.16633,-2.76565 2.09802,0 2.86095,0.60995 2.86095,2.28735 0,2.78184 -3.99677,3.1621 -5.02728,0.4783 z m -30.79435,-3.49253 c -1.84485,-1.84372 -0.68344,-3.50864 2.07935,-2.98084 2.82607,0.53992 5.19845,2.56404 3.00516,2.56404 -0.61507,0 -1.83104,0.27332 -2.70217,0.60741 -0.87111,0.33406 -1.94317,0.24829 -2.38234,-0.19061 z m 7.39583,-3.32979 c -1.74365,-3.82453 -1.6927,-9.08493 0.10243,-10.57382 1.09685,-0.90975 1.46587,-0.20889 1.58231,3.00507 0.0835,2.30534 0.52977,5.60682 0.99169,7.33663 1.06511,3.98863 -0.8866,4.15789 -2.6764,0.23212 z m 11.26011,-1.78569 c 0,-0.76776 -1.08543,-0.9954 -2.7524,-0.57729 -2.32963,0.58436 -2.66066,0.33991 -2.15527,-1.59152 0.33335,-1.27399 0.0326,-2.28191 -0.68077,-2.28191 -0.70282,0 -1.28573,0.90065 -1.29536,2.00144 -0.0149,1.71041 -0.17883,1.75198 -1.12686,0.28591 -1.82548,-2.82299 -1.31179,-5.20384 1.86096,-8.6252 2.92276,-3.15175 3.05063,-3.17993 4.65241,-1.02477 0.91894,1.23642 1.46258,3.85924 1.22977,5.93302 -0.46478,4.14005 1.04133,5.20438 1.6184,1.14368 0.23501,-1.65371 1.28581,-2.70386 2.94053,-2.93873 2.08068,-0.29532 2.57486,0.18289 2.57486,2.49158 0,3.14639 -2.68005,6.45145 -5.23145,6.45145 -0.89914,0 -1.63482,-0.57044 -1.63482,-1.26766 z m -38.86334,-3.82399 c -2.9543,-3.55753 2.75346,-9.77612 8.97305,-9.77612 1.47509,0 2.39362,-0.89408 2.63168,-2.56159 0.52065,-3.64708 3.82225,-3.8092 7.27628,-0.35728 2.18961,2.18825 2.7546,3.62094 2.17335,5.51117 -1.07728,3.50335 -1.3387,3.66057 -3.33439,2.00534 -1.19281,-0.98934 -1.74423,-1.04086 -1.74423,-0.16298 0,1.96684 -2.1016,1.52832 -4.15354,-0.86671 -1.80326,-2.10479 -1.88806,-2.10479 -3.99414,0 -2.59693,2.59533 -2.74173,3.44857 -0.43517,2.56401 0.94411,-0.36208 2.61778,-0.30768 3.71925,0.12084 1.80725,0.70315 1.73906,0.99405 -0.69898,2.98155 -3.19574,2.60519 -8.47167,2.87967 -10.41316,0.54177 z m 22.36533,-1.36227 c -0.95805,-2.49509 0.31399,-3.65483 1.66576,-1.51869 1.35328,2.13852 1.38209,3.3979 0.0777,3.3979 -0.56207,0 -1.34664,-0.84563 -1.7435,-1.87921 z m 17.9411,-6.07348 c -0.97848,-1.56587 -1.02799,-2.46177 -0.16546,-2.99452 1.61539,-0.99775 4.94057,2.35736 3.93995,3.97542 -1.12788,1.8238 -2.19516,1.54644 -3.77449,-0.9809 z m -17.31175,-1.73613 c -2.74046,-6.49824 2.88419,-12.09691 5.77745,-5.75079 1.00625,2.20707 0.9557,3.57653 -0.22156,6.0043 l -1.52511,3.1451 -0.75898,-3.43103 -0.75895,-3.43102 -0.53979,3.43102 -0.53978,3.43103 z m -24.68448,-2.36992 c -2.66449,-4.06404 -1.56691,-6.24006 3.14752,-6.24006 3.81563,0 7.65174,2.76865 7.65174,5.52252 0,1.77543 -3.73369,1.71527 -5.58865,-0.09 -1.18355,-1.15188 -1.39475,-1.0083 -1.08716,0.73911 0.59113,3.3583 -1.939,3.40033 -4.12345,0.0685 z m 21.09869,-4.89831 c 0,-0.52007 -1.54493,-0.71899 -3.43315,-0.44203 -3.07625,0.45122 -3.43313,0.18912 -3.43313,-2.52132 0,-3.77198 2.82983,-4.99694 5.65043,-2.44589 2.37295,2.14616 3.86513,6.35485 2.25309,6.35485 -0.57049,0 -1.03724,-0.42552 -1.03724,-0.94561 z"
       id="path1287" />
  </g>
</svg>
