<svg height="500" width="500" xmlns="http://www.w3.org/2000/svg"><defs><filter style="color-interpolation-filters:sRGB" id="a" x="0" y="0" width="1" height="1"><feColorMatrix values="1.51198 -10 -10 0 9.6988 -10 1.51198 -10 0 9.6988 -10 -10 1.51198 0 9.6988 0 0 0 1 0"/></filter></defs><path style="fill:#f60;fill-opacity:1;stroke-width:.960977;filter:url(#a)" d="M684.07 918.91c-15.769-1.93-21.986-2.99-26.915-4.591-2.38-.773-6.922-2.153-10.094-3.067-14.382-4.143-36.955-14.037-45.963-20.146-1.978-1.341-4.773-3.054-6.213-3.806-4.712-2.462-21.324-15.068-24.557-18.635a30.592 30.592 0 0 0-2.51-2.402c-8.474-7.091-29.844-31.362-29.857-33.91-.003-.578-.913-1.872-2.022-2.876-4.139-3.743-17.24-28.416-21.448-40.393-1.46-4.156-3.007-8.42-3.437-9.477-.43-1.057-1.518-4.515-2.417-7.685-.898-3.17-2.015-7.061-2.481-8.646-5.694-19.367-7.82-53.343-4.75-75.895 2.582-18.967 8.612-42.486 14.162-55.24 12.871-29.57 28.013-51.473 51.057-73.851 25.403-24.67 60.765-43.851 96.761-52.487 12.075-2.897 31.328-5.336 45.504-5.765 10.198-.309 30.147 1.316 41.028 3.341 2.644.492 7.36 1.365 10.48 1.94 17.333 3.193 56.316 19.91 65.942 28.276 1.321 1.15 3.53 2.65 4.909 3.333 1.378.684 6.57 4.505 11.535 8.49 13.708 11 30.163 28.198 38.398 40.13 1.823 2.642 3.531 5.02 3.796 5.284.264.264 1.103 1.561 1.864 2.882.761 1.321 2.96 4.996 4.886 8.166 3.88 6.387 8.126 14.544 11.749 22.576 4.848 10.749 12.462 35.534 13.58 44.207.237 1.84 1.011 6.373 1.72 10.072 1.596 8.335 1.642 47.687.068 58.122-1.84 12.194-4.822 24.976-8.408 36.025-3.698 11.396-12.086 31.076-15.007 35.214-.99 1.402-1.8 2.8-1.8 3.105 0 1.323-8.575 14.395-15.825 24.126-32.315 43.371-78.795 71.747-134.616 82.182-14.009 2.618-43.47 3.317-59.119 1.401zm54.617-14.733c23.71-3.622 54.296-14.848 74.168-27.222 18.013-11.216 41.567-32.253 52.942-47.285 16.228-21.444 30.506-49.493 35.264-69.277 5.542-23.04 6.987-34.318 6.987-54.506 0-7.482-.479-17.3-1.065-21.818-2.567-19.806-9.104-42.53-16.775-58.308-2.348-4.83-4.27-9.011-4.27-9.29 0-.992-9.978-16.633-15.743-24.678-4.94-6.896-10.688-13.639-17.947-21.056-2.527-2.581-15.654-14.204-18.699-16.556a235.118 235.118 0 0 1-3.845-3.02c-.865-.713-2.73-1.945-8.636-5.707-1.048-.669-3.644-2.335-5.767-3.705-7.371-4.752-15.328-8.71-26.867-13.364-23.145-9.335-41.258-13.294-68.316-14.93-13.842-.838-39.648 2.018-53.983 5.974-3.089.852-6.697 1.595-8.02 1.651-1.32.056-2.974.643-3.673 1.303-.698.66-1.783 1.201-2.41 1.201-2.071 0-21.168 8.148-29.543 12.605-27.275 14.515-49.93 33.94-68.772 58.966-16.653 22.119-29.872 52.006-34.63 78.296a1908.272 1908.272 0 0 0-2.385 13.45c-1.686 9.817-1.873 40.041-.305 48.995 2.357 13.447 2.675 15.71 2.672 18.973-.003 1.718.338 3.123.754 3.123s1.225 1.837 1.799 4.083c2.729 10.684 10.019 30.974 11.994 33.384.65.792 2.333 3.818 3.74 6.724 2.816 5.817 4.341 8.405 6.064 10.293.627.686 1.433 2.217 1.793 3.403.795 2.623 6.648 10.662 13.567 18.635 2.822 3.251 5.13 6.13 5.13 6.396 0 .91 19.697 19.78 23.96 22.953a958.94 958.94 0 0 1 7.69 5.792c1.89 1.444 4.07 2.93 4.845 3.304.774.373 3.87 2.314 6.882 4.313 8.309 5.515 23.983 13.218 37.47 18.414 6.757 2.603 21.442 6.409 24.729 6.409 1.086 0 2.206.375 2.49.834.284.458 2.796.913 5.584 1.01 2.788.098 6.799.558 8.914 1.023 4.805 1.056 44.021.467 52.213-.785zm-43.562-6.537c-29.562-4.03-41.839-7.225-61.486-16-14.825-6.622-36.85-20.767-45.327-29.113-1.662-1.636-4.379-3.94-6.038-5.12-3.543-2.522-15.137-15.926-21.101-24.397-2.299-3.265-4.94-6.8-5.869-7.857-4.414-5.023-15.798-27.717-19.276-38.428-1.201-3.699-3.166-9.75-4.365-13.45-1.2-3.698-2.904-11.047-3.787-16.331-.882-5.284-1.977-11.12-2.432-12.97-1.27-5.158-.92-35.919.519-45.632 1.837-12.406 4.224-24.669 5.235-26.9.48-1.056 1.588-4.515 2.464-7.685.876-3.17 2.561-7.926 3.744-10.567 1.183-2.642 3.18-7.182 4.439-10.088 2.371-5.476 11.384-22.212 12.417-23.056.323-.264 1.922-2.525 3.553-5.023 10.667-16.338 30.836-37.023 45.508-46.673 2.908-1.912 5.503-3.722 5.768-4.022.782-.887 9.716-6.334 14.9-9.084 2.643-1.402 5.455-2.932 6.248-3.4 9.47-5.585 32.051-12.984 50.948-16.694 27.056-5.312 59.751-3.543 87.113 4.712 4.295 1.295 9.053 3.004 10.575 3.797 1.52.793 3.255 1.444 3.854 1.447 3.487.02 31.37 14.615 34.024 17.81.644.776 1.62 1.41 2.17 1.41 3.23 0 31.068 25.006 40.124 36.044 6.165 7.514 18.164 26.528 22.723 36.008 11.69 24.31 17.318 47.696 18.296 76.042 1.518 43.971-11.251 83.715-38.69 120.418-28.597 38.254-72.082 64.58-119.647 72.436-11.358 1.875-39.663 3.313-46.604 2.366zm47.103-14.853c36.507-6.785 67.73-23.15 94.213-49.381 10.612-10.511 14.66-15.405 23.025-27.832 19.973-29.673 31.183-67.74 29.854-101.38-.67-16.972-1.296-21.999-4.365-35.066-7.87-33.498-23.006-60.793-46.745-84.298-5.736-5.678-11.78-11.298-13.432-12.489-1.651-1.19-5.418-4-8.37-6.247-2.952-2.245-5.57-4.082-5.818-4.082-.248 0-3.84-2.08-7.984-4.62-7.319-4.49-26.614-12.923-36.346-15.886-28.943-8.81-65.701-9.588-94.064-1.99-3.25.872-6.558 1.69-7.351 1.82-1.548.252-4.12 1.132-7.21 2.467-1.057.456-4.734 1.969-8.17 3.36-46.98 19.029-84.03 57.566-101.371 105.444-1.853 5.115-3.585 10.276-3.85 11.47a992.836 992.836 0 0 1-1.954 8.414c-2.878 12.209-3.414 17.035-3.946 35.54-.295 10.3-.716 18.906-.935 19.125-.219.218-.008.87.469 1.446.476.577 1.103 2.995 1.393 5.373.29 2.377.99 7.045 1.557 10.373.566 3.327.806 6.413.531 6.856-.274.443.092 1.295.813 1.894.722.598 1.574 2.725 1.894 4.727 1.899 11.866 15.702 41.005 26.51 55.966 6.771 9.371 26.684 30.205 31.7 33.167 1.634.964 2.97 2.064 2.97 2.446 0 .851 13.457 9.64 22.59 14.751 12.61 7.06 20.907 10.473 38.45 15.822 18.307 5.582 53.937 6.9 75.942 2.81zm-94.64-51.093c.053-2.437 1.875-5.99 6.683-13.024 3.37-4.933 5.266-6.43 4.15-3.277-.352.996.835.332 2.915-1.63 1.93-1.82 3.509-2.853 3.509-2.293 0 .915-3.702 6.176-6.985 9.927-.694.793-2.758 3.695-4.588 6.45-3.792 5.708-5.753 7.035-5.684 3.847zm15.998.614c-.856-.855-.848-4.988.017-9.11l.68-3.242.648 2.882.648 2.882.128-2.882c.07-1.585.584-3.53 1.14-4.323.725-1.034.835.459.386 5.284-.588 6.336-2.158 9.997-3.647 8.509zm26.733-1.31c-2.115-.464-5.468-.869-7.45-.9-1.983-.03-3.605-.408-3.605-.84s-2.271-1.189-5.047-1.681l-5.046-.896v-9.367c0-10.572-.043-10.528 7-7.322 2.47 1.125 7.186 2.507 10.478 3.07 5.271.903 6.21.823 7.86-.67 1.7-1.536 2.398-1.576 7.493-.427 8.937 2.014 39.274 1.678 49.007-.542 4.3-.981 8.286-2.072 8.855-2.424 1.27-.784 4.432-52.647 3.549-58.212-.805-5.076-4.153-9.853-7.727-11.03-1.586-.521-5.48-1.039-8.652-1.15-5.873-.204-11.928-2.048-13.203-4.02-1.495-2.315-.704-7.267 1.587-9.926l2.322-2.695 11.376.263c6.257.144 14.727.672 18.822 1.173 4.095.5 17.505 1.178 29.8 1.504 12.294.326 23.724 1.009 25.399 1.517 1.675.508 3.783 2.05 4.685 3.425 1.553 2.368 1.547 2.661-.107 5.476-2.84 4.832-3.533 5.148-12.087 5.51-9.858.417-14.523 2.913-17.904 9.582-2.63 5.186-4.19 23.033-4.124 47.183l.043 16.07-2.637 1.332c-1.45.733-5.016 2.097-7.924 3.03-2.908.935-5.76 2.07-6.337 2.524-.577.454-1.334.54-1.682.193-.348-.347-.632-.18-.632.372 0 1.668-7.32 3.98-25.474 8.046-8.196 1.835-12.943 2.191-32.203 2.414-12.425.144-24.32-.118-26.435-.582zm-31.242-8.473c0-.436 1.067-1.795 2.372-3.02l2.372-2.227-1.14 3.02c-1.015 2.685-3.604 4.285-3.604 2.227zm-21.06-3.956c-1.69-1.044 4.59-4.137 7.114-3.504 1.253.314 3.389.149 4.747-.367 3.467-1.318 3.077-.391-.654 1.553-3.717 1.937-9.79 3.193-11.207 2.318zm11.447.057c0-.82 4.181-3.954 5.276-3.954.295 0-.172 1.081-1.038 2.402-1.516 2.311-4.238 3.308-4.238 1.552zm15.568-1.552c-.02-1.585.18-2.35.443-1.7.264.651.28 1.948.036 2.883-.244.934-.46.402-.479-1.183zm2.848-2.402c0-1.32.219-1.861.485-1.2.267.66.267 1.74 0 2.401-.266.66-.485.12-.485-1.2zm-33.861-3.677c-4.074-2.582-20.634-18.82-22.392-21.957-.565-1.008-.227-2.078 1.064-3.369 1.456-1.454 3.356-1.929 8.235-2.055l6.343-.164-2.841 2.928c-2.756 2.84-3.867 7.16-1.841 7.16.55 0 2.712-.874 4.806-1.942 2.094-1.067 3.807-1.525 3.807-1.017s-.433 1.19-.961 1.517c-.529.327-.962 1-.962 1.498 0 1.834 1.512.73 4.077-2.975 2.843-4.108 5.899-5.489 3.269-1.477-.958 1.461-1.15 2.457-.512 2.669.56.186-.732 2.272-2.869 4.635l-3.886 4.296-.115-2.882-.115-2.882-.994 2.726c-.659 1.808-.671 3.048-.037 3.682 1.292 1.29 3.742-.376 7.822-5.32 2.589-3.138 3.113-3.467 2.504-1.568-.425 1.32-.964 5.143-1.198 8.493-.387 5.516-.26 6.06 1.341 5.752 1.863-.357 6.994-8.778 7.033-11.54.012-.891.431-2.694.93-4.007 1.368-3.595 4.388-2.224 8.19 3.715 3.389 5.294 6.94 8.455 8.452 7.522.492-.304.735-2.232.54-4.283-.246-2.571.025-3.73.87-3.73.675 0 1.227.81 1.227 1.8 0 .991.257 3.087.572 4.657l.571 2.856-9.095.542c-9.62.574-17.041 3.194-17.041 6.015 0 2.119-2.013 1.735-6.794-1.295zm9.623.381c1.245-1.5 9.176-3.485 13.32-3.334 2.063.075 1.708.351-1.73 1.347-2.38.688-3.46 1.325-2.403 1.414l1.922.162-1.922.825c-1.058.454-3.814.856-6.126.893-3.541.057-4.023-.149-3.061-1.307zm42.832.718c-1.058-.239-3.286-1.053-4.952-1.81-1.666-.757-3.613-1.427-4.326-1.49-2.169-.19 4.24-1.572 7.836-1.69 4.183-.137 10.642 3.446 8.572 4.755-1.418.897-3.844.977-7.13.235zm51.15.06c-1.378-1.378-.615-5.116 2.162-10.599 1.565-3.089 2.863-5.05 2.884-4.359.064 2.108 1.956.219 2.037-2.034.043-1.19.298-1.547.588-.822 1.26 3.157-5.839 19.644-7.67 17.814zm-33.847-1.324c-3.407-.61-3.132-.694 2.403-.74 3.436-.03 8.411.284 11.055.695 4.601.717 4.499.748-2.404.74-3.965-.004-8.94-.317-11.054-.695zm43.835-.881c-1.511-.956-1.755-13.218-.292-14.68.468-.468.69.546.506 2.32-.254 2.458-.14 2.73.513 1.232.678-1.555 1.062-.856 2.01 3.661 1.542 7.349.701 9.643-2.737 7.467zm70.87-1.746c-3.58-2.94-4.603-4.155-4.624-5.491-.008-.502.504-.394 1.139.24 1.963 1.962 3.093 1.267 1.25-.769-1.964-2.167-1.568-2.384 1.636-.895 2.513 1.168 4.974 4.206 5.98 7.38.96 3.033-1.366 2.832-5.38-.465zm-9.002-5.19c.342-3.362.201-8.274-.312-10.914-.857-4.407-.812-4.643.54-2.882 1.42 1.849 1.457 1.822 1.015-.723-.684-3.944.73-3.189 2.007 1.072 1.981 6.609.422 18.131-2.59 19.134-1.018.34-1.153-.822-.66-5.687zm-82.13 2.467c-.012-1.621.612-5.08 1.387-7.686 1.28-4.305 1.773-4.85 5.406-5.98 2.198-.683 4.211-1.027 4.474-.765.263.263-.777 2.12-2.31 4.125-1.535 2.006-3.337 4.728-4.005 6.049-.669 1.32-2.052 3.482-3.073 4.803l-1.858 2.402-.022-2.948zm-89.421-.295c0-.99.288-3.24.64-4.998.554-2.769.749-2.946 1.454-1.321.535 1.235.678.252.418-2.875-.277-3.332-.123-4.264.516-3.122 1.336 2.384 2.74 1.988 2.74-.773 0-1.32.432-2.402.96-2.402 1.456 0 1.172 2.27-1.111 8.862-2.568 7.415-5.617 11.014-5.617 6.63zm71.615-.208c6.862-2.182 12.978-3.3 12.978-2.373 0 .367-.448 1.503-.996 2.525-.873 1.63-2.022 1.847-9.372 1.77l-8.377-.087 5.767-1.835zm91.247-.347c-.316-1.26-.012-4.81.676-7.892.973-4.36 1.327-5.013 1.592-2.944.467 3.641 2.133 2.315 2.133-1.698 0-1.787.48-3.546 1.067-3.908 1.322-.817.748 5.518-1.157 12.777-1.459 5.56-3.417 7.225-4.31 3.665zm-121.315-2.07c-.937-1.004-.459-1.445 2.435-2.248 4.548-1.263 8.888-1.296 8.888-.068 0 .518-1.081 1.213-2.403 1.545-1.322.331-2.404.88-2.405 1.219-.004 1.166-5.35.798-6.515-.449zm26.303.712c-1.489-2.407 7.788-6.74 14.58-6.81 7.414-.077 4.04 3.014-6.637 6.081-6.229 1.79-7.23 1.882-7.943.73zm-47.657-4.115c-2.846-3.927-4.164-7.865-1.417-4.235.776 1.025 1.41 1.363 1.41.75 0-1.625 2.734-.317 3.252 1.556.243.876.721 2.566 1.063 3.754.992 3.45-1.139 2.548-4.308-1.825zm12.17 1.425c-.352-.352-.647-1.973-.656-3.602-.011-2.32-.228-2.65-.996-1.521-1.11 1.629-.272-4.654 1.122-8.406.989-2.662 3.191-2.904 2.504-.276-.272 1.037.11 2.387.849 3 .738.612 1.343 1.66 1.343 2.327 0 2.07-2.551 6.246-3.361 5.502-.423-.389-.529.266-.236 1.455.564 2.289.465 2.554-.569 1.521zm27.694-1.28c1.295-4.47 5.44-9.608 7.749-9.608 1.47 0 2.823-1.093 4.163-3.362 1.537-2.605 2.587-3.348 4.66-3.297 2.62.063 2.631.087.514 1.107-1.238.597-2.163 1.916-2.163 3.085 0 1.976-11.09 13.996-12.912 13.996-.464 0-.059-.868.901-1.928s1.509-2.163 1.22-2.452c-.289-.289-1.494.687-2.677 2.168-2.138 2.675-2.147 2.677-1.455.29zm-22.567.056c0-.497.432-1.171.961-1.498.529-.326.961-1.053.961-1.615 0-.644-.532-.58-1.441.174-2.886 2.394-1.344-.802 2.484-5.148 3.532-4.01 4.177-6.268.93-3.258-1.064.988-1.164.86-.563-.72a55.62 55.62 0 0 0 1.225-3.642c.634-2.21 2.566-1.597 2.941.933.222 1.497.83 1.84 2.643 1.494 1.296-.248 2.355-.064 2.355.409 0 1.37-2.852 5.28-7.07 9.692-3.85 4.026-5.426 4.95-5.426 3.179zm144.533-2.057c-2.714-3.36-7.045-11.673-6.522-12.52.318-.514.056-1.564-.583-2.334-.64-.77-.785-1.399-.323-1.399 1.103 0 5.404 5.426 7.48 9.437 1.874 3.623 1.833 9.148-.052 6.816zm-61.71-2.073c-.613-.613-1.114-1.661-1.114-2.33 0-.668-.903-1.697-2.005-2.287-3.214-1.719-1.417-2.128 2.381-.542 2.338.977 3.469 2.072 3.469 3.362 0 2.41-1.276 3.25-2.73 1.797zm70.02-.25c-2.908-.674-4.638-1.304-3.845-1.4 1.027-.125.888-.414-.48-1.002-1.645-.706-1.68-.835-.24-.893 2.68-.107 1.944-1.989-.779-1.989-1.578 0-2.22-.387-1.79-1.081 1.81-2.926 17.708 1.896 17.708 5.37 0 1.058-3.248 2.622-4.806 2.315-.264-.052-2.86-.646-5.768-1.32zm-166.427-3.852c-2.905-1.577-4.366-4.314-2.304-4.314.745 0 1.651.479 2.013 1.064.463.748.884.696 1.425-.179 1.043-1.685 3.798.546 3.798 3.076 0 2.132-1.464 2.237-4.932.353zm55.16-.583c-3.602-2.29-3.866-3.267-1.26-4.66 1.304-.698 4.838-.64 11.775.192 5.513.662 8.632 1.353 7.028 1.558-2.5.318-2.629.466-.962 1.109 1.759.678 1.677.843-.961 1.935-5.173 2.143-12.135 2.083-15.62-.134zm-123.27.352c.048-2.355 8.19-6.009 16.759-7.52l2.835-.5-2.789 2.583c-1.534 1.42-4.54 3.377-6.68 4.35-3.898 1.769-10.153 2.44-10.125 1.087zm28.824-.16c0-.953 7.039-6.805 8.186-6.805.385 0 .162.649-.496 1.441-.755.91-.82 1.441-.175 1.441.563 0 1.29-.432 1.617-.96.734-1.188 2.403-1.266 2.403-.113 0 .718-9.728 5.877-11.081 5.877-.25 0-.454-.396-.454-.88zm30.44.24c-.919-.918-.79-2.241.218-2.241.472 0 1.107.648 1.411 1.44.563 1.465-.461 1.968-1.629.801zm-4.246-1.012c-.66-.236-1.166-1.798-1.123-3.47l.079-3.043 1.412 3.234c1.525 3.495 1.476 3.937-.368 3.28zm108.625-1.26c-2.739-1.1-2.77-2.468-.074-3.173 2.653-.694 3.679-.052 3.679 2.3 0 2.053-.417 2.154-3.605.874zm-83.872-3.825c0-2.12.38-4.606.845-5.524.464-.917 2.074-4.404 3.577-7.747 3.188-7.093 3.91-7.833 3.91-4.008 0 1.538-.361 2.575-.802 2.302-.44-.272-.8.154-.8.947 0 1.918 1.614 2.841 2.31 1.32.302-.664.324.113.046 1.726-.277 1.613-1.557 5.012-2.845 7.554-4.247 8.384-6.24 9.48-6.24 3.43zm7.167-9.354c.36-1.189.242-2.161-.26-2.161-.84 0-2.056 3.052-2.087 5.236-.021 1.48 1.62-.67 2.347-3.075zm22.324 11.33c-3.004-1.918-3.997-3.194-7.72-9.923-2.906-5.248-2.99-5.579-1.344-5.25.748.15 1.12-.668.986-2.161-.187-2.076.51-1.62 5.137 3.362 6.081 6.549 8.306 10.278 7.874 13.2-.394 2.672-1.649 2.868-4.933.772zm-38.722-3.315c-1.886-4.913 2.448-13.021 10.061-18.822 5.75-4.381 7.043-4.803 3.658-1.194-1.734 1.85-2.297 3.044-1.551 3.293 1.231.41-.1 3.518-2.728 6.37-.678.736-2.038 2.914-3.022 4.84-.984 1.927-2.69 4.318-3.793 5.315-1.842 1.664-2.056 1.68-2.625.198zm153.839.287c-.767-1.24 1.226-2.742 3.67-2.763 1.779-.016 2.32-2.39.763-3.351-.506-.313-.688-1.171-.405-1.908.377-.982-.085-1.211-1.724-.859-2.176.468-2.186.439-.373-1.03 2.43-1.97 9.519-1.99 11.145-.031 1.337 1.61 1.394 1.533-4.36 5.894-5.654 4.285-7.919 5.337-8.716 4.048zm-200.362-1.663c0-1.35 5.183-3.348 5.582-2.153.19.571 1.067 1.045 1.948 1.053 1.386.013 1.408.14.16.946-1.773 1.145-7.69 1.264-7.69.154zm105.703-.99c-4.355-1.703-9.575-5.532-9.575-7.023 0-1.935 8.878.626 10.574 3.05.264.378 1.778 1.38 3.365 2.23 1.588.848 2.235 1.589 1.442 1.647-.987.073-.836.367.48.932l1.923.826-1.923.022c-1.057.012-3.886-.745-6.286-1.684zm-117.238-.529c0-.929.838-1.522 2.163-1.53 1.19-.008 3.244-.302 4.566-.654 2.176-.58 2.261-.5.907.856-.823.824-2.878 1.801-4.566 2.172-2.441.536-3.07.363-3.07-.844zm22.11-.5c0-1.564 1.935-2.184 4.62-1.478 2.393.63 2.443.74.666 1.464-2.67 1.087-5.287 1.094-5.287.014zm101.063-3.108c-2.715-2.207-4.936-4.585-4.936-5.284 0-2.404 3.16-.869 9.501 4.616 3.213 2.779 3.714 3.607 2.473 4.083-.856.329-1.68.597-1.83.597-.15 0-2.493-1.805-5.208-4.012zm-144.142 1.37c.252-1.325 1.435-1.725 5.597-1.891 4.624-.184 4.98-.075 2.875.882l-2.403 1.093 3.364.672c2.706.541 2.081.697-3.194.8-5.765.11-6.52-.078-6.24-1.556zm227.644.148 2.403-1.465-3.082.506c-2.365.389-2.962.197-2.57-.826.325-.846-.304-1.487-1.724-1.758-1.509-.287-1.09-.468 1.288-.557 3.854-.143 12.336 3.047 12.336 4.639 0 .574-2.335.98-5.527.96-5.369-.032-5.458-.076-3.124-1.499zm-65.352-.195c-.042-3.547 6.099-10.76 9.16-10.76.899 0 .76.957-.523 3.602-2.052 4.23-6.722 9.002-6.744 6.892-.013-1.135-.174-1.122-.947.073-.669 1.034-.936 1.089-.946.193zm-148.773-.855c.925-.242 2.44-.242 3.364 0 .926.242.169.44-1.682.44-1.85 0-2.607-.198-1.682-.44zm22.83-.67c0-.326 1.801-2.214 4.003-4.194 7.675-6.904 12.186-15.609 8.087-15.609-1.89 0-6.925 4.38-8.925 7.765-2.262 3.827-2.756 3.53-2.362-1.42.382-4.794-1.417-14.664-2.832-15.537-.516-.32-1.619-.016-2.45.673-1.233 1.023-1.384 2.405-.82 7.528.381 3.451.858 7.969 1.06 10.04.202 2.07.623 4.664.936 5.764.33 1.164-1.867-.61-5.261-4.245-3.206-3.435-5.835-5.771-5.842-5.193-.008.579.852 1.835 1.91 2.79 2.269 2.053 2.472 3.363.52 3.363-1.75 0-9.172-6.958-9.172-8.6 0-.667.54-.991 1.202-.721 4.56 1.863 5.07 1.818 2.727-.245-2.681-2.362-5.2-2.232-5.686.293-.418 2.165 7.386 9.873 11.906 11.76 1.747.73 3.409 1.7 3.691 2.157.852 1.377-22.204.634-23.897-.77-2.78-2.307-1.642-3.2 3.328-2.612 2.644.313 4.807.209 4.807-.232 0-.44-1.494-4.924-3.32-9.963-4.648-12.835-8.676-35.52-7.545-42.49.54-3.321 3.158-4.83 7.617-4.392 1.198.118 2.334-.515 2.753-1.533.566-1.376.944-.942 1.832 2.109 1.23 4.22 4.126 5.563 6.314 2.928 1.76-2.118 3.164-1.84 2.427.48-.343 1.082-.09 2.61.561 3.395.94 1.133.94 1.889-.006 3.652-.655 1.224-1.06 3.046-.9 4.05.16 1.005-.53 3.059-1.531 4.565-2.761 4.15-1.108 5.946 5.308 5.763 3.315-.094 5.565.339 6.471 1.244 1.87 1.868 3.152 1.29 5.795-2.61 1.669-2.461 2.08-4.06 1.644-6.385-.853-4.543 1.657-7.956 5.854-7.956 4.447 0 4.146 2.02-.599 4.01-4.36 1.831-4.42 4.271-.127 5.205 4.375.953 4.941 1.256 4.941 2.647 0 .745-1.255 1.874-2.789 2.51-6.029 2.495-8.467 7.623-4.74 9.968 1.24.78 2.449.423 5.339-1.578 3.831-2.654 5.628-3.3 4.615-1.661-.817 1.32 3.82 14.732 7.698 22.273 2.493 4.846 3.002 6.605 2.109 7.288-.648.495-5.936 1.395-11.751 2.001-5.816.606-11.548 1.376-12.737 1.711-1.19.335-2.163.342-2.163.015zm36.63-1.631c-2.819-1.127-2.54-1.415 2.062-2.124 3.116-.48 3.605-.304 3.605 1.305 0 2.043-1.912 2.32-5.667.819zm140.575-1.491c.336-.6-.033-1.626-.82-2.28-1.72-1.426-2.005-6.222-.307-5.173.755.466.923.171.512-.9-.787-2.05 2.516-9.793 4.503-10.555 3.378-1.296 4.508 4.956 2.378 13.157-1.205 4.637-3.26 3.305-2.911-1.886.147-2.177-.134-3.211-.765-2.821-.548.338-.997 1.418-.997 2.4 0 .981-.54 1.98-1.201 2.22-.95.343-.933.888.079 2.594 1.01 1.706 1.031 2.39.099 3.248-.88.81-1.025.81-.57-.005zm14.274-4.695c6.568-6.263 10.366-5.207 5.403 1.503-1.886 2.548-5.6 4.235-4.145 1.882.326-.528.161-.96-.368-.96-.528 0-1.228.432-1.555.96-.327.528-1.325.95-2.22.938-1.108-.015-.191-1.389 2.885-4.323zm-98.21 1.718c-2.536-.474-10.599-5.854-10.599-7.072 0-.4.757-.925 1.682-1.166 1.266-.33 1.147-.467-.48-.551-1.19-.061-2.163-.536-2.163-1.054s-1.102-1.219-2.448-1.556c-1.346-.338-2.239-.823-1.984-1.078 1.12-1.12 16 4.842 19.385 7.766 5.061 4.373 3.844 6.064-3.393 4.711zm-88.804-1.75c.643-1.71.553-1.746-1.078-.426-1.684 1.364-1.713 1.313-.545-.96 2.48-4.826 9.655-10.88 9.655-8.147 0 1.07-4.666 7.764-6.646 9.534-2.068 1.85-2.082 1.85-1.386 0zm28.716-2.32c-.936-1.514 8.193-6.604 13.922-7.764 9.835-1.99 10.39-2.018 6.729-.326-1.85.855-4.364 1.937-5.585 2.405-1.222.468-1.966 1.263-1.655 1.766.311.504-2.304 1.801-5.811 2.884-7.442 2.297-6.868 2.22-7.6 1.035zm-35.431-3.102c.81-4.247 1.289-4.614 1.289-.985 0 1.642-.426 3.249-.947 3.57-.591.366-.72-.604-.342-2.585zm-1.45-2.795c-.08-.851-.42-3.553-.756-6.005-.503-3.667-.344-4.457.896-4.457.83 0 1.713.757 1.964 1.681.823 3.032 1.532 7.473.997 6.245-.886-2.037-2.137-1.332-2.557 1.44-.22 1.454-.466 1.947-.545 1.096zm178.709-.375c.016-.528.614-3.122 1.329-5.764 1.001-3.7 1.465-4.396 2.017-3.033.454 1.12-.035 3.238-1.329 5.764-1.126 2.197-2.033 3.562-2.017 3.033zm-70.579-4.408c-2.456-2.16-4.191-4.37-3.857-4.91.334-.541.024-1.344-.689-1.785-.713-.44-.997-1.1-.631-1.466.699-.698 12.256 9.97 12.256 11.314 0 1.809-2.913.512-7.079-3.153zm-24.97 1.176c-1.522-.599-1.307-.944 1.547-2.48 2.6-1.4 4.569-1.67 9.126-1.258 3.195.29 6.609.99 7.585 1.558 1.377.8-.057 1.07-6.396 1.204-6.962.148-7.53.273-3.845.846l4.325.672-5.287.077c-2.908.042-6.082-.237-7.055-.62zm-33.799-1.09c-.375-.607 1.646-.92 5.47-.848 4.81.09 5.469.266 3.182.847-4.276 1.088-7.98 1.088-8.652 0zm81.228-1.922c-1.145-.74-.947-.94.961-.975 2.178-.04 2.237-.141.63-1.075-1.64-.952-1.557-1.162 1.078-2.763 1.568-.953 4.53-1.882 6.58-2.063 3.23-.285 3.769-.047 4.029 1.782.534 3.753-9.434 7.577-13.278 5.094zm-103.818-2.382c0-3.019 2.8-10.107 3.993-10.107.822 0 .646 2.246-.77 9.847-.62 3.327-3.223 3.536-3.223.26zm20.096.956c-8.163-1.374-11.445-2.765-11.445-4.852 0-1.108 1.496-1.408 7.018-1.408 3.86 0 7.428.36 7.93.8.503.439 2.86 1.373 5.24 2.075 3.975 1.174 4.13 1.332 1.922 1.953l-2.403.677 2.403 1.03 2.403 1.03-2.884-.038c-1.586-.021-6.169-.591-10.184-1.267zm39.495-1.852c2.396-.865 2.946-1.396 1.922-1.86-.827-.373-.518-.478.73-.246 1.19.22 2.163.01 2.163-.47 0-.479-.52-.87-1.154-.87-.829 0-.86-.294-.111-1.043 1.494-1.493 12.8-2.405 12.8-1.032 0 1.542-6.36 4.54-12.304 5.799-6.543 1.386-8.32 1.264-4.046-.278zm104.62-1.628c-3.758-1.879-6.339-4.598-3.233-3.407.947.364 2.315.169 3.04-.432 1.021-.848 2.089-.506 4.747 1.521 5.114 3.898 1.891 5.54-4.553 2.318zm-82.212-.751c-1.369-2.19-.576-5.871 1.264-5.871 1.4 0 1.675 3.11.53 6-.622 1.57-.738 1.561-1.794-.129zm12.779-2.433c2.053-2.454 3.891-3.984 4.086-3.401.402 1.205-3.263 5.41-5.998 6.883-1.017.548-.174-.987 1.912-3.482zm-54.631-2.526c-.847-2.88-1.576-4.383-1.618-3.34-.074 1.804-.148 1.795-1.55-.206-2.159-3.08-4.471-9.907-4.478-13.218-.01-4.847.143-5.421 1.253-4.736 1.665 1.029 4.356 7.806 6.594 16.606 2.31 9.087 2.154 12.896-.201 4.894zm3.11.985c0-3.498 10.51-5.633 14.94-3.035 1.607.943 1.39 1.034-1.482.623-2.174-.312-2.741-.207-1.603.296 1.394.617.677 1.12-3.45 2.42-6.824 2.15-8.405 2.093-8.405-.304zm-59.599-.289c0-2.625 8.478-8.382 12.209-8.29 1.068.026.326.782-1.937 1.975-2.017 1.064-3.493 2.45-3.28 3.08.213.63-.851 1.903-2.364 2.828-3.29 2.01-4.628 2.127-4.628.407zm45.961-.708c-.187-.562-1.489-1.147-2.892-1.301-2.837-.311-5.86-2.8-4.812-3.961.371-.411-.104-.468-1.057-.125-.953.342-1.49.232-1.196-.246.295-.477-.006-1.125-.67-1.44-.665-.314.225-.356 1.977-.093 2.688.403 3.108.218 2.689-1.191-2.417-8.133-1.62-8.748 4.353-3.356 5.047 4.557 11.593 14.56 7.076 10.813-1.137-.943-1.442-.946-1.442-.011 0 .651-.851.164-1.89-1.084-1.04-1.247-1.906-1.753-1.923-1.124-.018.63.4 1.412.929 1.738.529.327.961 1 .961 1.498 0 1.239-1.682 1.145-2.103-.117zm71.899-.499c-1.083-2.818-.597-3.283 3.429-3.283h4.013l-2.258 2.401c-2.595 2.761-4.348 3.06-5.184.882zm-24.285-2.563c-.244-.396.663-.72 2.016-.72 3.034 0 3.261-1.652.297-2.156-1.398-.237-.509-.645 2.513-1.153 3.629-.61 5.436-.423 8.071.833 2.135 1.017 3.058 1.955 2.486 2.527-1.098 1.097-14.753 1.69-15.383.67zm105.63-.9c.594-1.782 2.664-2.077 2.664-.38 0 .836-.685 1.52-1.522 1.52s-1.351-.513-1.142-1.14zm-208.625-1.934c-1.682-1.68-1.44-2.685 1.25-5.176 1.719-1.592 2.403-1.829 2.403-.83 0 .767.443 1.395.986 1.395.561 0 .343 1.24-.506 2.882-1.632 3.154-2.39 3.471-4.133 1.73zm-10.72-.74c-1.115-.689-1.164-1.324-.253-3.322 1.168-2.563 3.45-3.259 4.599-1.402.363.587.064 1.478-.665 1.98-.883.607-.203.7 2.04.276 2.974-.562 3.197-.47 1.923.783-1.9 1.869-5.914 2.754-7.644 1.685zm109.073-1.087c4.506-2.376 5.836-3.502 5.057-4.28-.312-.312-1.893.118-3.514.956-2.138 1.105-2.818 1.184-2.475.29.877-2.283 10.582-6.74 13.004-5.972 4.05 1.285 1.646 4.421-6.527 8.514-6.264 3.137-11.432 3.595-5.545.492zm-23.566.366c-1.322-.237-2.814-.827-3.316-1.31-.502-.484-1.703-.88-2.668-.88-1.579 0-4.281-4.47-3.297-5.454.212-.212 3.108.37 6.435 1.295l6.05 1.681-2.804 1.162c-2.992 1.239-2.802 1.41 3.445 3.11 2.56.697 2.79.905.962.871-1.322-.024-3.485-.238-4.807-.475zm-55.754-2.19c0-.528 1.838-.917 4.085-.864 3.471.08 3.724.211 1.683.865-3.46 1.107-5.768 1.107-5.768 0zm70.827-1.199c.34-1.552.216-1.799-.44-.875-1.361 1.915-5.981-7.876-5.981-12.673v-3.803l2.02 1.827c1.112 1.006 2.664 3.07 3.45 4.588 1.718 3.32 2.647 11.758 1.38 12.54-.508.314-.696-.388-.429-1.604zm-93.849-.692c-1.117-.69-1.166-1.325-.255-3.323 1.278-2.803 5.398-3.631 4.339-.872-.441 1.148-.262 1.38.635.827 2.048-1.265.654 1.573-1.462 2.977-1.18.784-2.387.929-3.257.391zm15.34-1.926c-2.432-1.536.35-3.18 6.206-3.665 3.831-.317 5.321-.107 5.321.75 0 .757-.887 1.023-2.426.729-1.334-.255-2.658-.09-2.94.368-.284.458 1.782.89 4.588.96l5.104.129-4.807.748c-6.676 1.04-9.379 1.035-11.046-.019zm61.033-1.901c-2.115-.958-5.135-3.109-6.712-4.781-2.393-2.538-2.631-3.19-1.442-3.942.784-.495 1.919-.907 2.522-.915 1.39-.018 9.587 6.714 11.504 9.45 1.321 1.885 1.296 2.058-.29 1.996-.955-.037-3.467-.851-5.582-1.808zm-81.846-.538c-.7-1.823 1.305-4.336 3.38-4.235 1.056.05 1.16.237.322.574-.934.374-.973.822-.158 1.803.597.718.806 1.757.464 2.308-.92 1.49-3.37 1.214-4.008-.45zm45.005-4.014c-.093-3.271.264-6.215.793-6.541.529-.327.961-1.38.961-2.341 0-1.858 2.563-4.545 3.47-3.638.297.296-.033 3.925-.734 8.062-.777 4.587-1.397 6.492-1.588 4.881-.48-4.04-1.953-3.143-2.366 1.442-.294 3.258-.402 2.882-.536-1.865zm-7.63 3.866c-1.173-.472-6.957-8.27-6.957-9.38 0-.3.854-.547 1.897-.547 1.141 0 2.5 1.162 3.406 2.913.875 1.691 1.956 2.637 2.576 2.254.641-.396.8-.224.396.429-.371.599-.206 1.962.365 3.03 1.034 1.93.638 2.236-1.683 1.301zm-23.284-1.464c-.008-.894.417-1.892.946-2.219 1.217-.751 1.217.52 0 2.402-.803 1.242-.934 1.217-.946-.183zm58.787-.871c-1.837-2.94-.844-3.156 1.762-.383 1.575 1.675 1.839 2.398.876 2.398-.758 0-1.945-.907-2.638-2.015zm-16.506.815c0-.974 6.006-5.228 8.411-5.959 2.957-.897 2.777.918-.38 3.842-2.484 2.3-5.848 3.306-4.666 1.395.831-1.345-.816-1.202-2.211.192-.635.635-1.154.873-1.154.53zm-51.082-3.572-2.269-1.89 3.548-.031c3.81-.034 6.225 1.844 2.517 1.957-2.097.064-2.113.113-.297.893 1.496.642 1.573.84.347.893-.867.037-2.597-.783-3.846-1.822zm104.914-1.26c0-3.06 3.415-5.646 8.07-6.11 3.63-.36 3.754-.3 1.543.746-1.322.626-2.8 1.176-3.285 1.223-.485.047-1.075.668-1.313 1.38-.34 1.021-.017 1.072 1.54.24 2.853-1.526 6.903-1.331 6.903.332 0 2.382-4.042 4.378-8.866 4.378-4.138 0-4.592-.216-4.592-2.188zm85.554 1.447c0-.73 2.498-2.632 3.858-2.938.776-.174 1.63-.616 1.9-.983 2.012-2.734 9.564-5.397 12.588-4.438 2.817.894 2.242 2.133-2.564 5.518-3.73 2.628-5.274 3.11-10.093 3.15-3.13.026-5.69-.113-5.69-.31zm-181.156-1.882c1.365-3.111.672-5.911-2.04-8.242l-2.685-2.308 2.525-1.653c1.388-.91 3.478-1.511 4.644-1.339 2.703.4 7.231 6.102 8.072 10.162.632 3.052.57 3.122-2.732 3.122-1.858 0-4.538.44-5.954.979-2.28.866-2.49.783-1.83-.721zm160.19-3.649-1.058-5.736.413 5.284c.285 3.65.124 4.838-.523 3.843-.833-1.281-1.042-1.281-1.884 0-.75 1.142-.95.925-.961-1.04-.008-1.366-.31-2.777-.67-3.137-.839-.839-1.167-9.44-.574-15.061.566-5.364 2.746-8.874 4.16-6.696 3.303 5.09 5.123 20.495 3.061 25.906-.805 2.113-1.02 1.744-1.963-3.363zm11.82 3.431c.446-1.402.346-1.983-.275-1.6-1.671 1.033-.126-3.005 1.826-4.771 1.896-1.715 2.553-3.838.866-2.796-2.194 1.355-.703-1.464 2.993-5.66 6.255-7.102 13.017-9.616 9.924-3.69-.753 1.444-1.373 3.137-1.376 3.763-.008 1.516-8.687 12.264-12.017 14.882l-2.64 2.075zm-150.875-2.506c-2.224-4.128-1.418-5.231 1.3-1.778 2.184 2.775 2.479 3.854 1.258 4.609-.426.263-1.577-1.011-2.558-2.831zm116.282.473c-5.056-3.813-5.465-5.131-1.315-4.236 1.78.384 3.382 1.078 3.558 1.542.177.464.88.844 1.565.844.684 0 1.782.649 2.44 1.441.965 1.162.942 1.444-.122 1.456-1.036.011-1.01.214.123.946 1.193.77 1.11.93-.481.92-1.057-.008-3.653-1.318-5.768-2.913zm8.61-.094c-5.467-4.797-11.284-16.166-8.271-16.166 3.673 0 16.455 14.76 14.506 16.751-.543.556-1.806.032-3.297-1.368-2.958-2.778-3.223-1.475-.325 1.607 3.036 3.23 1.43 2.724-2.613-.824zm-159.473 1.344c-1.239-1.238-.374-3.877 1.985-6.055l2.522-2.329-.728 2.402c-.71 2.347-.683 2.362 1.204.68 1.558-1.39 2.03-1.466 2.442-.394.28.731.226 1.756-.121 2.278-.908 1.363-6.665 4.057-7.304 3.418zm9.442-.401c-.39-.63-.199-1.314.424-1.521.622-.208 1.144-1.098 1.16-1.978.026-1.411.15-1.395 1.042.138 1.75 3.006-.815 6.289-2.626 3.36zm85.89-2.699c-1.818-2.122-4.077-2.5-5.096-.853-.816 1.32-8.845.391-12.359-1.43l-2.456-1.274 2.154-1.038c2.006-.968 1.922-1.05-1.21-1.2-4.174-.2-9.225-1.648-6.25-1.792 6.033-.292 19.135 2.176 22.992 4.33 4.89 2.732 7.356 5.179 5.217 5.179-.74 0-2.086-.865-2.992-1.922zm-103.938-2.48c-.912-2.375-.685-6.95.378-7.607.561-.347.997.728 1.048 2.585l.086 3.18.92-3.188c1.075-3.733 3.094-3.605 3.545.224.517 4.39-4.567 8.478-5.977 4.806zm44.837-.077c-1.624-.655-1.524-2.878.158-3.523.748-.286 2.9.264 4.783 1.223l3.423 1.744-2.98.596c-3.302.66-3.654.658-5.384-.04zm76.117-2.638c-.733-2.92.886-5.372 3.546-5.372 2.015 0 5.65 3.214 5.65 4.995 0 .897-.256.897-1.153 0-1.668-1.666-3.149-1.42-1.73.289.964 1.161.94 1.443-.123 1.454-.726.008-2.273.268-3.439.58-1.704.457-2.243.076-2.75-1.946zm-113.311.608c-.746-.746-.673-5.523.096-6.292.348-.348 1.213-.15 1.923.438.961.797 1.29.765 1.29-.126 0-.954.291-.954 1.442 0 2.293 1.902 1.685 4.29-1.387 5.449-1.555.587-3.069.825-3.364.53zm95.694-1.746c-1.192-1.37-2.027-2.609-1.856-2.752 1.45-1.216 4.954-2.443 6.977-2.443 3.48 0 3.31 2.858-.177 2.958-2.308.066-2.124.26 1.448 1.523 4.8 1.698 4.513 3.205-.61 3.205-2.693 0-4.168-.636-5.782-2.491zm36.495-.631c.583-2.03.56-3.234-.067-3.443-1.486-.495-1.15-1.895.96-4.003 2.97-2.969 3.845-2.329 3.845 2.813 0 4.792-1.654 7.755-4.328 7.755-1.016 0-1.107-.693-.41-3.122zm-154.8.303c-1.454-2.713-1.217-7.33.446-8.71 1.193-.99 1.452-.885 1.503.603.05 1.477.222 1.397.96-.443 1.087-2.71 3.003-2.295 4.132.895 1.17 3.308-1.51 9.513-4.11 9.513-1.065 0-2.385-.836-2.932-1.858zm8.033-.622c.321-.836.59-2.457.598-3.603.012-1.697.188-1.816.947-.642 1.308 2.023 1.279-.494-.034-2.945-.64-1.197-.656-1.858-.043-1.858 1.495 0 2.3 6.29 1.092 8.545-1.253 2.34-3.43 2.768-2.56.503zm32.354-4.344c-5.24-4.883-6.2-6.275-6.2-8.994 0-3.727 1.766-6.278 4.347-6.278 1.506 0 1.805.737 1.805 4.45 0 3.844.46 4.883 3.378 7.634 3.117 2.937 5.658 9.107 3.711 9.009-.462-.024-3.63-2.643-7.041-5.82zm120.112 5.312c0-.156.422-1.393.937-2.749 1.2-3.152 3.87-3.273 3.87-.174 0 1.68-.641 2.412-2.404 2.749-1.322.252-2.403.33-2.403.174zm-130.186-2.883c-.393-1.568-1.644-2.812-3.466-3.446-1.834-.64-2.85-1.656-2.85-2.85 0-3.033 2.585-3.139 8.132-.334 5.04 2.548 7.59 5.26 4.945 5.26-.705 0-2.376.86-3.713 1.912l-2.432 1.911zm96.999.48c-.349-1.097-.486-2.093-.305-2.213.18-.12 1.41-.72 2.73-1.33 2.13-.983 1.939-1.046-1.665-.549-3.224.445-4.195.236-4.672-1.007-1.395-3.633 4.813-8.477 8.87-6.921 1.458.56 1.458.733.003 2.34-1.913 2.113-2.09 3.692-.243 2.16 1.796-1.49 2.888 1.259 1.517 3.819-.55 1.027-.603 1.852-.117 1.852.481 0 1.568-1.405 2.415-3.123.986-1.998 1.548-2.5 1.562-1.393.037 2.923-2.667 7.122-4.986 7.743-3.578.958-4.44.725-5.108-1.378zm-66.475-2.234c.313-.817-.044-1.83-.794-2.249-.987-.552-.441-1.051 1.971-1.806 4.265-1.334 7.322.396 5.624 3.183-1.377 2.26-7.643 3.065-6.801.872zm-47.954-2.78c-.56-1.884-1.997-3.593-3.786-4.5-1.586-.804-3.074-1.58-3.307-1.725-1.299-.807 3.176-3.382 5.75-3.309 3.315.095 12.457 3.095 12.457 4.088 0 .34-1.081 1.11-2.403 1.711-1.322.602-2.403 1.507-2.403 2.01 0 .504-1.216 1.782-2.703 2.84l-2.703 1.923zm-25.77.043c-1.03-3.843-.647-6.15 1.317-7.926 1.966-1.778 2.303-1.446 1.934 1.91-.19 1.73-.034 1.693 1.662-.4 2.554-3.152 5.359-2.154 4.472 1.591-1.424 6.015-8.14 9.468-9.385 4.825zm32.626 1.31c-.29-.47.117-1.387.904-2.04 1.191-.988 1.432-.845 1.432.852 0 2.061-1.366 2.755-2.336 1.187zm97.285-1.644c-1.5-3.291.003-5.582 3.919-5.972 3.11-.31 4.223 1.344 1.585 2.356-.793.304-1.442 1.54-1.442 2.749 0 3.262-2.707 3.84-4.062.867zm-22.055 0c-1.203-1.203-1.962-1.307-3.507-.48-2.515 1.344-3.349 1.338-2.51-.02 1.445-2.334 21.56-10.371 21.56-8.613 0 .876-7.4 7.779-10.093 9.412-2.59 1.572-3.635 1.514-5.45-.3zm-21.49-.426c-.34-.55-1.375-.76-2.299-.467-2.228.707-5.666-2.942-4.176-4.431.758-.758 2.005-.32 4.495 1.578 1.895 1.444 3.446 3.007 3.446 3.473 0 1.143-.71 1.069-1.466-.153zm87.981-.922c0-1.067.64-1.921 1.442-1.921.801 0 1.442.854 1.442 1.921 0 1.068-.64 1.922-1.442 1.922-.801 0-1.442-.854-1.442-1.922zm-118.607-2.368c-.854-1.302-1.553-3.491-1.553-4.864 0-2.238.324-2.465 3.124-2.195 2.869.276 3.15.603 3.429 4 .225 2.745-.003 3.509-.885 2.964-.828-.512-1.002-.25-.574.865.968 2.521-1.774 1.925-3.541-.77zm8.895-1.644-.127-4.154-.708 3.363-.708 3.362-.127-4.028c-.099-3.154.335-4.352 1.997-5.515 2.443-1.71 3.34-1.111 4.524 3.016.991 3.453-.524 7.3-3.067 7.79-1.349.26-1.681-.455-1.784-3.834zm7.817 3.17c0-.464.648-1.382 1.441-2.04.794-.658 1.442-1.642 1.442-2.188 0-.545-.865-.21-1.922.747-1.888 1.707-1.923 1.678-1.923-1.61 0-2.554.55-3.643 2.312-4.585 1.271-.68 2.785-.944 3.364-.586 1.789 1.104 1.222 7.093-.87 9.183-2.007 2.006-3.844 2.522-3.844 1.078zm-80.027-2.196c-1.454-.53-2.643-1.546-2.643-2.256 0-2.118 4.845-5.275 8.06-5.252l2.994.022-2.403 1.989c-1.574 1.303-1.822 1.803-.72 1.45 1.959-.629 1.98-.55.744 2.7-1.007 2.647-1.915 2.85-6.032 1.347zm96.3-1.414c-1.373-2.561-8.584-8.778-8.582-7.397 0 .44 1.082 2.057 2.403 3.593 3.067 3.563 3.091 5.008.047 2.777-1.295-.95-2.627-2.915-2.96-4.368-.333-1.453-.968-2.642-1.412-2.642-.797 0-4.808-5.905-4.808-7.078 0-3.34 10.06 4.761 14.456 11.643 2.23 3.489 2.783 3.874 3.803 2.646.967-1.164.777-2.488-1-6.966-1.206-3.04-2.617-6.08-3.134-6.753-1.747-2.271-1.663-.54.18 3.718 1.007 2.327 2.133 5.312 2.503 6.633.64 2.287.609 2.31-.673.48-.74-1.056-3.159-6.097-5.376-11.2-3.829-8.816-4.935-13.297-3.283-13.297 1.503 0 5.02 3.028 5.02 4.322 0 .733.823 2.762 1.829 4.51 1.005 1.747 2.805 6.262 4 10.034l2.17 6.857-1.939 2.464-1.939 2.463zm-51.435-1.348c-3.131-1.599-6.538-3.75-7.571-4.78-1.864-1.86-1.86-1.895.652-4.533 4.415-4.64 4.674-11.02.5-12.344-1.137-.36-2.66-1.248-3.383-1.97-2.142-2.14-5.641-1.55-7.87 1.327l-2.047 2.642.643-4.286c.354-2.358.97-4.951 1.37-5.764.4-.813 1.477-3.856 2.394-6.762.918-2.906 2.484-7.041 3.481-9.19.997-2.148 1.812-4.418 1.812-5.043 0-.626.433-1.138.962-1.138.528 0 .961-.676.961-1.502 0-2.49 13.754-22.578 19.813-28.938 7.475-7.846 19.483-17.67 25.677-21.006 2.737-1.475 5.246-3.083 5.574-3.574 1.27-1.898 24.302-10.11 28.241-10.07 1.058.012 3.761-.309 6.008-.711 3.647-.653 4.086-.533 4.086 1.12 0 4.526 6.336 5.581 12.551 2.09 3.495-1.963 3.806-1.986 6.14-.458 3.858 2.526 2.929 3.486-3.374 3.486-6.955 0-9.02.94-10.332 4.706-.759 2.174-2.585 3.627-7.935 6.31-3.821 1.916-8.24 4.437-9.818 5.601-4.912 3.623-17.98 16.468-17.986 17.68-.004.634-.584 1.499-1.29 1.922-1.918 1.149-10.388 14.553-11.515 18.224-.54 1.76-1.308 3.199-1.706 3.199-.398 0-1.03 1.39-1.403 3.09-.374 1.7-1.031 3.754-1.462 4.564-.992 1.865-4.74 14.402-4.74 15.853 0 2.561-2.522 6.26-4.274 6.266-1.028.003-3.078 1.165-4.556 2.58-2.535 2.427-5.307 2.525-2.882.102.626-.625 1.095-2.672 1.042-4.547l-.095-3.41-1.338 4.322c-.736 2.378-2.255 5.08-3.376 6.005-2.288 1.887-5.202 2.296-4.141.58.479-.775-.074-.912-1.866-.462-2.199.551-2.542.341-2.516-1.541.056-3.982 4.273-7.464 9.038-7.464 1.357 0 2.467-.432 2.467-.96 0-1.759-5.438-.992-8.75 1.234-3.215 2.161-3.279 2.341-4.065 11.454-.72 8.342-.6 9.708 1.213 13.804 1.107 2.5 1.865 4.693 1.686 4.873-.18.18-2.889-.982-6.02-2.58zm-22.515-.757c0-2.612.344-3.05 2.403-3.05 3.036 0 3.036.992 0 3.843l-2.403 2.256zm29.875-2.823c-.088-5.887 2.673-11.044 6.845-12.786 3.932-1.641 5.6-.501 2 1.367-3.429 1.778-5.505 4.846-4.699 6.944.288.752.142 1.366-.326 1.366-.469 0-1.502 1.838-2.298 4.083l-1.446 4.083-.076-5.057zm54.279-1.91c.044-6.711 1.668-12.308 3.283-11.31 1.736 1.072 2.193 7.166.873 11.633-1.137 3.849-1.382 4.123-1.934 2.163-.544-1.936-.644-1.815-.727.879-.186 6.066-1.537 3.027-1.495-3.365zm-96.021 1.848c-2.301-2.541-1.956-4.877.879-5.954 3.244-1.233 6.47-.35 8.89 2.432l1.959 2.251-4.016.687c-3.271.56-3.66.828-2.094 1.446 1.595.63 1.415.771-1.052.827-1.732.04-3.64-.666-4.566-1.69zm19.577-1.237c-3.497-1.394-5.788-3.762-5.788-5.981 0-1.836.158-1.805 2.644.521 1.454 1.36 3.578 2.755 4.72 3.1 1.141.343 2.6 1.256 3.241 2.029.953 1.147.838 1.392-.634 1.342-.99-.033-2.872-.488-4.183-1.01zm-6.749-.849c0-1.243 1.635-1.243 2.403 0 .327.528-.08.96-.904.96-.825 0-1.499-.432-1.499-.96zm25.709.395c-.539-.538-.014-8.706.684-10.648.403-1.12 4.399-.643 4.334.518-.019.335-.652 1.69-1.408 3.01-.756 1.321-1.389 3.35-1.408 4.507-.034 2.12-1.25 3.564-2.202 2.613zm18.27-.103c-1.871-.481-2.045-1.115-.832-3.028 1.177-1.856 4.436-.953 4.436 1.228 0 1.984-.984 2.476-3.604 1.8zm8.606-1.763c-1.7-2.334-1.688-2.39.693-3.474 1.867-.85 2.755-.823 3.89.118 1.883 1.562 1.9 3.866.028 3.866-.793 0-1.442.433-1.442.961 0 1.64-1.365 1.006-3.169-1.471zm100.93.641c-.623-.749-1.192-2.562-1.266-4.03-.128-2.54.031-2.642 3.354-2.132 1.919.294 4.217.907 5.108 1.361 2.477 1.266 2.627 1.08 2.04-2.535-.42-2.587-.215-3.362.892-3.362 1.657 0 6.503 3.58 6.503 4.804 0 1.535-3.124 3.955-4.45 3.447-.753-.29-1.317.109-1.317.93 0 3.026-8.612 4.23-10.865 1.517zm3.414-2.688c-.661-.267-1.742-.267-2.403 0-.661.266-.12.484 1.201.484 1.322 0 1.863-.218 1.202-.484zm-119.92-.325c2.896-3.02 2.39-4.036-.645-1.292-1.766 1.598-2.357.838-1.003-1.29 1.029-1.616 5.685-3.233 7.408-2.572 1.964.753 1.827 1.84-.653 5.193-1.518 2.051-2.907 2.843-4.987 2.843h-2.883zm102.978-.119c-.828-4.132 1.894-8.686 5.873-9.827 4.529-1.298 6.285-.328 4.9 2.709-.61 1.338-1.539 2.434-2.064 2.434-.525 0-2.562 1.74-4.527 3.867l-3.572 3.867zm-17.291-.474c-.985-1.35-1.85-3.823-1.923-5.494-.113-2.6.23-3.081 2.367-3.33 1.994-.23 2.832.352 4.146 2.883l1.646 3.172-.592-3.645c-.747-4.596.117-7.403 2.28-7.403 1.79 0 4.92 5.485 4.92 8.622 0 2.598-1.993 3.502-3.42 1.55-1.08-1.475-1.276-1.332-1.868 1.363-.475 2.161-1.073 2.853-2.12 2.452-1.015-.39-1.288-.12-.9.893.941 2.45-2.575 1.627-4.536-1.063zm-140.486-1.336c-1.709-1.886-1.706-1.986.084-3.34 2.433-1.839 3.307-1.773 6.17.466 2.13 1.665 2.194 1.88.557 1.9-1.016.012-2.568.673-3.449 1.47-1.437 1.3-1.783 1.249-3.362-.496zm11.498-.429c-3.984-3.981-2.565-6.978 2.427-5.13 2.521.934 3.826 2.404 3.85 4.336.01.716-.638.926-1.667.54-1.473-.551-1.518-.428-.363.991 2.19 2.692-1.448 2.06-4.247-.737zm10.672.223c-2.249-3.209-1.98-7.472.47-7.472 2.74 0 6.685 4.226 6.685 7.162 0 2.885-.619 3.033-3.211.764-1.83-1.601-1.892-1.601-1.307 0 .87 2.383-.856 2.086-2.637-.454zm7.728-4.104c-1.556-2.374-1.58-2.774-.235-4.117 2.117-2.116 4.503.068 4.357 3.99-.078 2.102-.26 2.427-.61 1.082-.475-1.831-.529-1.837-1.143-.123-.584 1.628-.808 1.55-2.369-.832zm33.243.79c-4.355-1.824-3.39-3.574 2.307-4.183l4.732-.506-4.05-.773c-2.228-.426-4.499-.497-5.047-.159-.548.339-.997.204-.997-.299 0-2.641 6.642-2.7 9.964-.09 3.55 2.79 3.026 5.225-1.312 6.107-.264.054-.913.355-1.442.67-.529.314-2.399-.03-4.155-.767zm112.761.616c-.364-.589-2.043-.728-4.142-.344l-3.53.645 1.814-2.038c1.765-1.982 7.812-3.824 8.92-2.716.808.807-.524 5.443-1.563 5.443-.488 0-1.162-.445-1.499-.99zm7.986-3.941c-.2-.599-3.155-1.365-6.568-1.702-5.192-.513-5.892-.784-4.283-1.658 2.901-1.577 8.02-2.335 8.67-1.284.317.511 1.362.93 2.323.93 2.51 0 4.17 2.233 2.73 3.673-1.425 1.424-2.406 1.438-2.872.04zM597.22 674.88c-1.887-1.381-1.406-3.351.817-3.351 1.815 0 2.67 1.617 1.734 3.28-.654 1.162-1.046 1.173-2.551.071zm100.97-5.074c-1.84-2.031-2.073-3.65-.652-4.527 1.64-1.013 4.747.46 4.165 1.976-.33.86.057 1.392 1.01 1.392.85 0 1.545.432 1.545.96 0 .529-.397.961-.882.961-.486 0-1.486.232-2.224.514-.737.283-2.07-.291-2.962-1.276zm68.906.289c-7.379-1.604-10.97-3.44-14.179-7.252-3.378-4.012-3.288-7.198.257-9.03 5.32-2.75 13.325-12.768 15.556-19.469 3.323-9.98 1.21-22.03-5.376-30.659-2.953-3.869-9.984-8.675-14.964-10.228-2.079-.648-4.02-1.937-4.314-2.864-.969-3.049-3.971-3.8-12.385-3.1-5.22.435-8.18.316-8.589-.344-.41-.663.493-.827 2.637-.479 2.236.363 4.086-.013 5.894-1.197 2.375-1.555 2.587-2.146 2.152-6l-.482-4.273 9.57.658c14.821 1.02 30.38 6.623 44.617 16.064 17.09 11.335 24.285 26.203 21.89 45.236-1.27 10.088-4.016 16.034-10.58 22.913-8.716 9.131-19.754 12.621-31.704 10.024zm-62.197-2.089c-1.044-1.043-.73-4.65.513-5.892.634-.634 2.256-1.119 3.605-1.077 1.348.042 1.88.304 1.182.583-.918.367-.702.904.782 1.943 1.948 1.363 1.968 1.527.399 3.26-1.621 1.79-5.217 2.447-6.48 1.183zm14.076-4.774c-1.278-3.326 3.352-7.308 5.972-5.135 1.497 1.241 1.41 1.518-1.121 3.542-2.866 2.291-2.512 2.918.682 1.21 1.07-.572 1.86-.616 1.86-.103 0 2.325-6.523 2.754-7.393.486zm-20.194-.98c-.39-1.016.176-2.227 1.572-3.357 2.128-1.722 4.488-1.575 3.384.211-.305.492-.028.895.614.895.724 0 .506.729-.573 1.921-2.116 2.336-4.175 2.472-4.997.33zm35.866.088c-.443-1.155-.132-1.363 1.34-.896 1.097.348 1.916.17 1.916-.418 0-.564-1.081-1.025-2.403-1.025-3.79 0-2.801-1.686 1.406-2.396 5.91-.998 8.002 1.708 3.667 4.743-2.733 1.913-5.19 1.91-5.926-.01zm-22.283-1.485c-.925-1.495.204-2.102 2.02-1.086 1.447.81 1.458.968.104 1.488-.834.32-1.79.139-2.124-.402zm3.237-2.968c.898-.897 1.41-.897 2.307 0 .898.897.641 1.153-1.153 1.153-1.795 0-2.05-.256-1.154-1.153zm-10.141-.444c-3.72-1.5 1.809-6.747 6-5.696 3.153.79 3.06 2.092-.232 3.294l-2.644.965 2.7.076c1.54.043 2.445.488 2.106 1.037-.608.983-5.772 1.194-7.93.324zm12.897-.965c-1.044-1.044-.73-4.65.513-5.892 1.788-1.788 3.462-1.377 5.203 1.279 1.924 2.935.973 4.433-1.158 1.821-1.148-1.406-1.394-1.475-1.027-.287.722 2.33-1.95 4.66-3.531 3.08zm15.941-1.657c2.295-1.742 2.129-2.812-.24-1.545-1.348.72-1.923.724-1.923.01 0-1.298 4.73-3.127 6.414-2.481 2.84 1.089-.25 5.375-3.839 5.322-1.945-.028-1.975-.12-.412-1.306zm-21.388-4.427c-2.278-2.277-2.537-6.55-.445-7.352 3.074-1.18 7.025 5.182 4.274 6.881-.537.332-.728 1.006-.424 1.498 1.028 1.661-1.468.909-3.405-1.027zm1.878-2.004c-.59-1.102-1.264-1.812-1.498-1.578-.673.672.691 3.582 1.679 3.582.491 0 .41-.901-.18-2.004zM704.1 650.71c-2.14-.567-2.757-2.459-1.874-5.757 1.325-4.953 6.839-3.641 6.839 1.628 0 2.208-.338 2.586-1.937 2.168-1.49-.39-1.799-.147-1.34 1.05.33.857.444 1.507.255 1.446a69.92 69.92 0 0 0-1.943-.535zm31.467-6.93c-.628-1.016 2.127-3.52 2.959-2.69.8.801-.358 3.542-1.497 3.542-.514 0-1.172-.384-1.462-.852zm-3.037-1.897c1.01-1.136 1.612-2.29 1.339-2.564-.274-.274-1.046.16-1.714.966-1.655 1.993-4.084 1.871-3.688-.184.46-2.383 5.21-4.881 6.614-3.478 1.499 1.498.25 4.897-2.29 6.228-2.084 1.092-2.086 1.086-.261-.968zm4.686-5.657c-2.057-2.09-2.064-2.162-.21-2.162 1.055 0 2.162.634 2.46 1.41.99 2.578-.094 2.94-2.25.752zm-37.271-3.103c-.784-1.268 1.204-4.834 2.665-4.78.642.024 2.465.623 4.051 1.33l2.884 1.288-3.574 1.552c-4.141 1.798-5.224 1.907-6.026.61zm43.005.256c-1.19-.225-2.163-.776-2.163-1.225 0-.448-.227-1.406-.505-2.13-.371-.966.535-1.355 3.424-1.47 3.707-.148 3.911-.015 3.629 2.362-.322 2.71-1.019 3.1-4.385 2.463zm-47.694-7.07c-4.001-3.146-2.898-5.695 2.464-5.695 1.573 0 1.865.475 1.492 2.425-.255 1.334-.089 2.656.369 2.939.458.283.832.92.832 1.418 0 1.53-2.497 1.004-5.157-1.087zm14.77.653c0-1.697 3.357-2.15 4.326-.583.326.528.171.96-.346.96-.516 0-1.623.263-2.46.583-.997.383-1.52.053-1.52-.96zm-7.59-.501c-2.224-1.408-.458-3.925 2.753-3.925 3.146 0 3.98 1.502 1.232 2.22-1.555.406-1.55.447.057.55 2.166.14 1.154 2.039-1.075 2.019-.894-.008-2.23-.397-2.967-.864zm42.725-.408c-1.648-1.205-1.654-1.327-.097-1.925.915-.35 2.028-.413 2.472-.139.445.275 1.08.06 1.412-.477.569-.92-2.553-1.469-6.479-1.14-1.975.166-2.168-.88-.48-2.594.968-.984.689-1.095-1.442-.568-3.354.827-3.467-.742-.285-3.923 2.4-2.398 6.647-3.155 7.745-1.38.333.538-.326 2.484-1.463 4.323-2.28 3.686-2 4.076 1.35 1.882 1.23-.804 2.945-1.19 3.812-.858 2.386.915 1.92 4.757-.792 6.534-2.877 1.883-3.498 1.912-5.753.265zm-35.135-4.535c0-.56-.387-.778-.86-.485-.926.571-2.024-1.578-2.024-3.962 0-.908.549-1.255 1.442-.913.87.334 1.442.005 1.442-.827 0-.833-.572-1.162-1.442-.828-1.945.746-1.846-1.548.13-2.991 1.733-1.266 6.409-.79 5.57.566-.29.468.194.85 1.075.85 1.065 0 1.406.51 1.018 1.52-.32.836-.583 1.7-.583 1.922 0 .22-1.082.402-2.404.402-1.321 0-2.403.432-2.403.96 0 1.263 2.517 1.225 4.946-.074 1.707-.913 1.899-.772 1.62 1.19-.36 2.528-3.5 3.598-4.754 1.62-.636-1.002-.824-.915-.836.387-.008.924-.447 1.68-.976 1.68-.528 0-.961-.457-.961-1.017zm-9.756-1.556c-.937-1.128-.895-1.593.205-2.288 2.357-1.49 4.745-1.034 4.745.907 0 2.299-3.4 3.247-4.95 1.38zm50.804-3.828c.382-.996.23-1.362-.402-.972-.558.345-1.247-.258-1.53-1.34-.432-1.652-.119-1.92 1.957-1.67 3.197.384 5.195 3.326 3.146 4.632-2.284 1.455-3.856 1.133-3.171-.65zm-17.905-1.284c-.035-1.32.965-3.686 2.222-5.255 1.976-2.468 2.495-2.68 3.84-1.564 2.192 1.818 1.934 4.208-.724 6.704-2.134 2.003-2.326 2.03-2.988.408-.662-1.626-.755-1.614-1.497.188-.72 1.749-.796 1.705-.853-.48zm-7.892-.64c-.722-.968-2.61-1.914-4.196-2.1-3.988-.467-6.246-1.83-6.263-3.778-.013-1.39-.155-1.426-.91-.234-.491.777-1.178 1.13-1.525.782-.347-.347.062-1.619.91-2.828.941-1.344 1.54-1.666 1.54-.83 0 1.063.256 1.11 1.153.214 2.057-2.056 2.955-1.228 2.397 2.21-.3 1.848-.17 3.362.29 3.362 1.475 0 2.008-3.506.954-6.274-1.192-3.134-.104-4.765 2.604-3.906 1.22.387 2.52 2.718 3.923 7.03 2.1 6.456 1.647 9.74-.877 6.353zm18.394-3.523c0-.792-.541-1.639-1.202-1.881-.926-.34-.941-.717-.065-1.649 1.68-1.785 4.342-.387 3.978 2.09-.351 2.382-2.711 3.636-2.711 1.44zm-39.413-5.444c0-2.716 3.383-5.764 6.398-5.764 2.411 0 2.464.097.96 1.757-1.985 2.193-2.092 3.698-.148 2.086 1.179-.978 1.442-.918 1.442.329 0 1.875-2.885 3.514-6.185 3.514-1.826 0-2.467-.5-2.467-1.922zM714.831 601c0-.836.685-1.52 1.522-1.52 1.698 0 1.402 2.067-.38 2.661-.628.21-1.142-.304-1.142-1.14zm21.07-1.908c.673-.81.747-1.48.186-1.68-.525-.188-.32-1.167.466-2.235 1.116-1.513 1.738-1.683 3.057-.833 2.993 1.928.94 6.049-3.027 6.081-1.436.012-1.574-.258-.681-1.333zm-32.925-1.214c-1.283-1.282-.579-2.103 2.36-2.747 1.775-.39 3.194-1.401 3.476-2.478.508-1.943 2.174-2.528 2.174-.764 0 1.141-5.522 6.63-6.67 6.63-.385 0-.988-.289-1.34-.64zm26.017-1.53c-.891-2.317.711-6.137 3.115-7.422 2.858-1.529 4.093-.343 3.336 3.2-1.106 5.171-4.18 7.475-4.367 3.27-.09-2.052-.13-2.04-.765.24-.569 2.042-.767 2.149-1.32.713zm-31.465-3.16c0-2.739 2.783-6.908 5.009-7.503 3.204-.858 3.84-.753 3.061.508-.467.756-.17.923.905.51 2.35-.901 2.109 3.62-.323 6.051-2.388 2.387-8.652 2.7-8.652.433zm39.996-1.953c-.86-2.242-.797-2.323 1.82-2.323 1.762 0 2.403.512 2.403 1.921 0 2.337-3.357 2.656-4.223.402zm-25.867-2.934c-1.55-1.549-.574-2.947 1.747-2.504 2.374.454 4.366 2.154 2.524 2.154-.517 0-1.538.23-2.27.51s-1.632.209-2.001-.16zm6.212-2.797c-1.464-3.212-1.421-7.631.086-8.882.922-.764 1.232-.175 1.33 2.524.07 1.937.445 4.71.833 6.163.894 3.35-.745 3.493-2.249.195zm9.459-1.5c0-.645-.912-.836-2.312-.485-1.957.491-2.235.286-1.81-1.337.28-1.07.027-1.916-.572-1.916-.59 0-1.08.756-1.088 1.68-.013 1.438-.15 1.472-.947.24-1.533-2.37-1.102-4.37 1.563-7.244 2.455-2.648 2.563-2.671 3.908-.861.772 1.039 1.229 3.242 1.033 4.984-.39 3.477.875 4.371 1.36.96.197-1.389 1.08-2.27 2.47-2.468 1.747-.248 2.163.153 2.163 2.093 0 2.643-2.252 5.419-4.395 5.419-.755 0-1.373-.48-1.373-1.065zm-32.645-3.212c-2.482-2.988 2.313-8.212 7.537-8.212 1.24 0 2.01-.751 2.21-2.152.438-3.063 3.211-3.2 6.113-.3 1.84 1.838 2.314 3.042 1.825 4.63-.905 2.942-1.124 3.074-2.8 1.684-1.002-.831-1.466-.874-1.466-.137 0 1.652-1.765 1.284-3.489-.728-1.514-1.768-1.586-1.768-3.355 0-2.181 2.18-2.303 2.897-.365 2.154.793-.304 2.199-.259 3.124.101 1.518.591 1.46.835-.587 2.505-2.685 2.188-7.116 2.419-8.747.455zm18.787-1.144c-.805-2.096.263-3.07 1.399-1.276 1.137 1.796 1.16 2.854.065 2.854-.472 0-1.131-.71-1.464-1.578zm15.07-5.102c-.822-1.315-.863-2.068-.139-2.515 1.357-.839 4.15 1.98 3.31 3.339-.948 1.532-1.844 1.299-3.17-.824zm-14.542-1.458c-2.302-5.459 2.423-10.162 4.853-4.831.846 1.854.803 3.004-.186 5.044l-1.28 2.641-.638-2.882-.638-2.882-.453 2.882-.454 2.882zm-20.735-1.991c-2.238-3.414-1.316-5.242 2.644-5.242 3.205 0 6.428 2.326 6.428 4.64 0 1.49-3.137 1.44-4.695-.076-.994-.968-1.171-.847-.913.62.497 2.821-1.629 2.857-3.464.058zm17.723-4.115c0-.437-1.298-.604-2.884-.371-2.584.379-2.883.159-2.883-2.118 0-3.168 2.377-4.197 4.746-2.054 1.993 1.802 3.247 5.338 1.892 5.338-.479 0-.87-.358-.87-.795z" transform="matrix(1.19048 0 0 1.19048 -595.238 -595.238)"/></svg>
