<?xml version="1.0" encoding="UTF-8" standalone="no"?>
<!-- Created with Inkscape (http://www.inkscape.org/) -->

<svg
   inkscape:version="1.1.1 (3bf5ae0d25, 2021-09-20)"
   sodipodi:docname="grody3.svg"
   id="SVGRoot"
   version="1.1"
   viewBox="0 0 500 500"
   height="500"
   width="500"
   xmlns:inkscape="http://www.inkscape.org/namespaces/inkscape"
   xmlns:sodipodi="http://sodipodi.sourceforge.net/DTD/sodipodi-0.dtd"
   xmlns="http://www.w3.org/2000/svg"
   xmlns:svg="http://www.w3.org/2000/svg">
  <sodipodi:namedview
     id="namedview601"
     pagecolor="#ffffff"
     bordercolor="#666666"
     borderopacity="1.0"
     inkscape:pageshadow="2"
     inkscape:pageopacity="0.0"
     inkscape:pagecheckerboard="0"
     inkscape:document-units="px"
     showgrid="true"
     inkscape:zoom="0.47215208"
     inkscape:cx="397.11781"
     inkscape:cy="224.50394"
     inkscape:window-width="1366"
     inkscape:window-height="716"
     inkscape:window-x="-8"
     inkscape:window-y="-8"
     inkscape:window-maximized="1"
     inkscape:current-layer="layer1"
     showguides="true"
     inkscape:guide-bbox="true">
    <inkscape:grid
       type="xygrid"
       id="grid607"
       originx="240.46085"
       originy="-91.233413" />
    <sodipodi:guide
       position="-19.53915,747.23341"
       orientation="0,-1"
       id="guide1493" />
  </sodipodi:namedview>
  <defs
     id="defs596">
    <filter
       style="color-interpolation-filters:sRGB"
       inkscape:label="Brilliance"
       id="filter1473"
       x="0"
       y="0"
       width="1"
       height="1">
      <feColorMatrix
         values="1.51198 -10 -10 0 9.6988 -10 1.51198 -10 0 9.6988 -10 -10 1.51198 0 9.6988 0 0 0 1 0 "
         id="feColorMatrix1471" />
    </filter>
  </defs>
  <g
     inkscape:label="Calque 1"
     inkscape:groupmode="layer"
     id="layer1"
     transform="translate(240.46085,-91.233413)">
    <path
       style="fill:#ff6600;fill-opacity:1;stroke-width:0.960977;filter:url(#filter1473)"
       d="m 684.07039,918.91021 c -15.769,-1.93048 -21.98648,-2.99113 -26.9158,-4.59163 -2.37916,-0.77249 -6.92121,-2.15225 -10.09343,-3.06611 -14.38243,-4.14337 -36.95518,-14.03751 -45.963,-20.14661 -1.97774,-1.34133 -4.77355,-3.05405 -6.21291,-3.80608 -4.71204,-2.46193 -21.32455,-15.06792 -24.55756,-18.63488 -0.62156,-0.68578 -1.75111,-1.76656 -2.5101,-2.40172 -8.47374,-7.09137 -29.84325,-31.36198 -29.85623,-33.90949 -0.003,-0.57857 -0.91309,-1.87293 -2.02253,-2.87635 -4.13863,-3.74311 -17.23942,-28.41621 -21.44785,-40.39339 -1.46011,-4.15546 -3.00688,-8.42001 -3.43726,-9.47677 -0.43037,-1.05676 -1.51777,-4.51523 -2.41644,-7.6855 -0.89866,-3.17027 -2.01525,-7.06106 -2.48129,-8.64618 -5.69384,-19.36623 -7.82056,-53.34284 -4.75054,-75.89429 2.58217,-18.96764 8.61212,-42.486 14.16302,-55.23951 12.87093,-29.57159 28.01264,-51.47379 51.05649,-73.85217 25.40312,-24.66953 60.76479,-43.85076 96.7614,-52.48633 12.07501,-2.89678 31.32727,-5.3361 45.50322,-5.76538 10.19834,-0.30883 30.14698,1.31577 41.02842,3.34129 2.64351,0.49208 7.35917,1.36498 10.47923,1.93976 17.33349,3.19323 56.31707,19.9096 65.94242,28.27649 1.32176,1.14895 3.53094,2.64871 4.90926,3.33282 1.37833,0.68409 6.56924,4.50454 11.53535,8.48986 13.70746,11.00031 30.16225,28.19761 38.39765,40.13034 1.82331,2.64188 3.5314,5.01959 3.79575,5.28377 0.26436,0.2642 1.10332,1.56113 1.86436,2.88206 0.76106,1.32095 2.95976,4.99557 4.88599,8.16585 3.88088,6.3873 8.12573,14.54415 11.7487,22.57615 4.84842,10.74874 12.46256,35.534 13.58042,44.20637 0.23733,1.8412 1.01103,6.3738 1.71934,10.07246 1.59613,8.33448 1.64268,47.68684 0.0687,58.12157 -1.83937,12.1945 -4.82262,24.97593 -8.40859,36.02576 -3.69808,11.39522 -12.08524,31.07552 -15.00691,35.21338 -0.99029,1.40252 -1.80052,2.79991 -1.80052,3.10531 0,1.32275 -8.57406,14.3948 -15.82442,24.12597 -32.31436,43.37122 -78.7946,71.747 -134.61571,82.18173 -14.00896,2.61872 -43.4706,3.31713 -59.11866,1.40145 z m 54.61672,-14.73273 c 23.70913,-3.62219 54.29608,-14.84874 74.16751,-27.22228 18.01355,-11.21666 41.56725,-32.25339 52.94242,-47.28496 16.22782,-21.444 30.50584,-49.49343 35.26401,-69.2768 5.54169,-23.04103 6.9873,-34.31812 6.9873,-54.50682 0,-7.48123 -0.47921,-17.29933 -1.06491,-21.81795 -2.56716,-19.80553 -9.10481,-42.52948 -16.77506,-58.30782 -2.3482,-4.83043 -4.26944,-9.0112 -4.26944,-9.29061 0,-0.99103 -9.97858,-16.63212 -15.74348,-24.67739 -4.94115,-6.89567 -10.68892,-13.63874 -17.94762,-21.05549 -2.52666,-2.58166 -15.65346,-14.2043 -18.69859,-16.55597 -1.5861,-1.2249 -3.31641,-2.5837 -3.84512,-3.01956 -0.86543,-0.71345 -2.72942,-1.94557 -8.63565,-5.70829 -1.04868,-0.66809 -3.64414,-2.33495 -5.76766,-3.70409 -7.37108,-4.75256 -15.32796,-8.71067 -26.86636,-13.36448 -23.14571,-9.3354 -41.25845,-13.29398 -68.31611,-14.93066 -13.84233,-0.83729 -39.64852,2.01869 -53.98332,5.97434 -3.08878,0.85235 -6.6974,1.59561 -8.01917,1.65171 -1.32176,0.0561 -2.9748,0.64236 -3.67346,1.30283 -0.69864,0.66048 -1.78307,1.20087 -2.40985,1.20087 -2.07156,0 -21.16889,8.1478 -29.54339,12.60459 -27.27542,14.51555 -49.93061,33.94051 -68.77235,58.9666 -16.6528,22.11872 -29.87182,52.00587 -34.63008,78.296 -0.81287,4.49121 -1.88617,10.54355 -2.3851,13.44963 -1.68537,9.81667 -1.87303,40.0416 -0.3042,48.99503 2.35618,13.44693 2.67482,15.70952 2.67205,18.97357 -0.003,1.71723 0.33756,3.12223 0.75337,3.12223 0.41582,0 1.22532,1.83732 1.79889,4.08292 2.72908,10.6846 10.01886,30.97394 11.99457,33.38389 0.64975,0.79256 2.33251,3.81872 3.73948,6.72479 2.81591,5.81628 4.34122,8.40493 6.0646,10.29252 0.62624,0.68591 1.43279,2.21727 1.79234,3.40297 0.79536,2.62303 6.6485,10.66244 13.56743,18.63518 2.82171,3.25148 5.13038,6.12977 5.13038,6.39622 0,0.91011 19.69606,19.77891 23.95931,22.953 2.33919,1.74157 5.7998,4.34783 7.69023,5.79169 1.89042,1.44385 4.07042,2.93061 4.84445,3.30389 0.774,0.37331 3.8711,2.31424 6.88243,4.31318 8.30891,5.51553 23.98262,13.21798 37.47078,18.41404 6.75651,2.60283 21.44152,6.40879 24.72779,6.40879 1.08613,0 2.20682,0.37522 2.49043,0.83383 0.2836,0.45861 2.79645,0.91352 5.58409,1.01095 2.78763,0.0974 6.79873,0.55744 8.91354,1.02227 4.80578,1.0563 44.02143,0.4672 52.21352,-0.78436 z m -43.56201,-6.53705 c -29.56219,-4.03095 -41.83874,-7.22573 -61.48573,-16.00071 -14.82578,-6.62168 -36.84978,-20.76711 -45.32728,-29.11249 -1.66173,-1.63582 -4.37884,-3.94028 -6.03805,-5.121 -3.5433,-2.52151 -15.13679,-15.92532 -21.10122,-24.39621 -2.29881,-3.26482 -4.93954,-6.80066 -5.86832,-7.85742 -4.41464,-5.02296 -15.79874,-27.71659 -19.27687,-38.42749 -1.20106,-3.69862 -3.16532,-9.75097 -4.36506,-13.44961 -1.19973,-3.69866 -2.90351,-11.04791 -3.78618,-16.33169 -0.88265,-5.28378 -1.97725,-11.11994 -2.43244,-12.96927 -1.26963,-5.15826 -0.91996,-35.91923 0.51872,-45.63264 1.83745,-12.40576 4.22428,-24.66869 5.23562,-26.89925 0.47913,-1.05674 1.58792,-4.51522 2.46396,-7.68548 0.87606,-3.17027 2.56086,-7.92568 3.74398,-10.56756 1.18314,-2.64189 3.18055,-7.18115 4.4387,-10.08722 2.37114,-5.47686 11.38374,-22.21233 12.41669,-23.0565 0.32327,-0.26417 1.92246,-2.52465 3.55378,-5.02327 10.66643,-16.33731 30.83567,-37.02289 45.50757,-46.67254 2.90788,-1.9125 5.50333,-3.72255 5.76769,-4.02235 0.78208,-0.88693 9.71648,-6.33358 14.89981,-9.08328 2.64351,-1.40236 5.45526,-2.93245 6.24831,-3.40021 9.46933,-5.5851 32.05132,-12.98473 50.94777,-16.69448 27.05621,-5.3117 59.75186,-3.54319 87.11394,4.71198 4.29465,1.2957 9.05296,3.00447 10.57406,3.79728 1.52109,0.79279 3.2557,1.4441 3.85469,1.44736 3.48689,0.019 31.37003,14.61453 34.02349,17.80976 0.64394,0.77545 1.6203,1.4099 2.16967,1.4099 3.23111,0 31.0682,25.00614 40.1244,36.0439 6.16534,7.51435 18.16396,26.5279 22.72283,36.00763 11.69105,24.31037 17.31795,47.69624 18.29664,76.04251 1.51815,43.97107 -11.25132,83.71443 -38.69011,120.41803 -28.59761,38.25371 -72.08177,64.57935 -119.64746,72.43545 -11.35726,1.87579 -39.66235,3.31335 -46.6036,2.36687 z m 47.10266,-14.85299 c 36.50729,-6.78544 67.7297,-23.15069 94.21302,-49.38177 10.61207,-10.51101 14.66101,-15.40514 23.02529,-27.8317 19.97268,-29.67275 31.18251,-67.73972 29.85429,-101.38073 -0.67005,-16.97121 -1.29595,-21.99827 -4.36583,-35.06508 -7.86989,-33.49789 -23.00577,-60.7933 -46.74495,-84.29784 -5.73541,-5.67873 -11.77944,-11.29875 -13.43119,-12.48895 -1.65177,-1.19018 -5.41834,-4.00131 -8.37015,-6.24691 -2.95182,-2.2456 -5.56996,-4.08292 -5.81808,-4.08292 -0.24813,0 -3.84085,-2.07911 -7.98386,-4.62028 -7.31932,-4.48937 -26.61413,-12.92191 -36.34658,-15.88477 -28.94247,-8.81102 -65.7008,-9.58851 -94.06323,-1.98955 -3.25037,0.87084 -6.55862,1.6891 -7.35168,1.81838 -1.54765,0.25225 -4.12048,1.13273 -7.20959,2.46728 -1.0574,0.45682 -4.73428,1.96939 -8.17086,3.36127 -46.98005,19.02784 -84.02867,57.56497 -101.37065,105.44339 -1.85244,5.11431 -3.5847,10.27527 -3.84948,11.46879 -0.26479,1.19353 -1.144,4.98006 -1.95381,8.41451 -2.87885,12.20932 -3.41465,17.03506 -3.94604,35.54004 -0.29579,10.3004 -0.71671,18.90679 -0.93538,19.12535 -0.21869,0.21853 -0.008,0.86943 0.46871,1.44642 0.47647,0.57699 1.10344,2.99447 1.3933,5.37217 0.28984,2.3777 0.99047,7.04566 1.55693,10.37323 0.56646,3.32758 0.80566,6.41283 0.53151,6.85614 -0.27415,0.44328 0.0917,1.29544 0.81293,1.89365 0.72126,0.59823 1.57345,2.72563 1.89377,4.72756 1.89866,11.86612 15.70148,41.00525 26.51023,55.96558 6.77078,9.37146 26.6834,30.20547 31.7004,33.16727 1.63282,0.96393 2.96875,2.06447 2.96875,2.44563 0,0.85152 13.45787,9.63969 22.59006,14.75163 12.61125,7.05943 20.90718,10.4731 38.45116,15.82225 18.30647,5.58163 53.93576,6.89999 75.94101,2.80996 z m -94.63978,-51.09312 c 0.0529,-2.43768 1.8752,-5.98956 6.68277,-13.02477 3.37061,-4.93245 5.26664,-6.42912 4.15112,-3.27678 -0.35257,0.99638 0.83442,0.33263 2.91401,-1.62948 1.92992,-1.82087 3.50893,-2.85303 3.50893,-2.29364 0,0.91539 -3.70159,6.17643 -6.98478,9.92743 -0.69371,0.79256 -2.75839,3.69481 -4.58818,6.44944 -3.79156,5.70802 -5.75295,7.03579 -5.68387,3.8478 z m 15.99802,0.61341 c -0.85571,-0.85518 -0.84818,-4.98805 0.0166,-9.10937 l 0.68033,-3.24232 0.64784,2.88207 0.64785,2.88205 0.12845,-2.88205 c 0.0707,-1.58514 0.58351,-3.53054 1.13971,-4.3231 0.72557,-1.03392 0.83476,0.45884 0.38647,5.28378 -0.58862,6.33582 -2.15806,9.99724 -3.64727,8.50894 z m 26.73271,-1.31006 c -2.11482,-0.46402 -5.46728,-0.8686 -7.44992,-0.89906 -1.98263,-0.0305 -3.60478,-0.40878 -3.60478,-0.84073 0,-0.43195 -2.27104,-1.18849 -5.04673,-1.68119 l -5.04671,-0.89584 v -9.36669 c 0,-10.57203 -0.0421,-10.528 7.00055,-7.32168 2.47052,1.12476 7.18577,2.50618 10.47834,3.06982 5.27101,0.90234 6.2104,0.82229 7.86001,-0.66968 1.69899,-1.53661 2.39708,-1.57648 7.49289,-0.42794 8.93654,2.01421 39.27359,1.67879 49.00644,-0.54181 4.30087,-0.98127 8.2858,-2.07199 8.85543,-2.42382 1.26999,-0.78441 4.43144,-52.64727 3.54853,-58.21249 -0.80521,-5.07535 -4.15228,-9.85269 -7.72709,-11.02899 -1.58611,-0.52194 -5.4793,-1.03934 -8.65151,-1.1498 -5.87343,-0.20452 -11.92837,-2.04844 -13.20287,-4.02069 -1.49575,-2.31463 -0.70411,-7.26684 1.58665,-9.92567 l 2.32234,-2.69546 11.37588,0.26269 c 6.25674,0.14448 14.72652,0.6725 18.82174,1.17339 4.0952,0.50089 17.50505,1.17766 29.79964,1.50391 12.2946,0.32626 23.72424,1.00892 25.39923,1.51703 1.67496,0.5081 3.78348,2.04958 4.68557,3.42549 1.55246,2.36787 1.54669,2.66066 -0.10764,5.47541 -2.84019,4.83238 -3.53259,5.14802 -12.08656,5.50991 -9.85817,0.41705 -14.5229,2.91353 -17.90381,9.58174 -2.62969,5.18665 -4.18979,23.03347 -4.12454,47.18323 l 0.0434,16.07018 -2.63701,1.33219 c -1.45037,0.73273 -5.01621,2.09645 -7.92406,3.03051 -2.90788,0.93405 -5.75943,2.06965 -6.33677,2.52353 -0.57735,0.4539 -1.33436,0.54078 -1.68225,0.19312 -0.34791,-0.34768 -0.63253,-0.18023 -0.63253,0.37212 0,1.66771 -7.32012,3.97955 -25.4739,8.04522 -8.19573,1.83547 -12.94286,2.19137 -32.20282,2.4143 -12.42454,0.14379 -24.32035,-0.1182 -26.43518,-0.58225 z m -31.24156,-8.47246 c 0,-0.43627 1.0673,-1.7953 2.37182,-3.02005 l 2.37181,-2.22683 -1.14065,3.02005 c -1.01401,2.68476 -3.60298,4.2849 -3.60298,2.22683 z m -21.06049,-3.95606 c -1.69022,-1.04397 4.59022,-4.13742 7.11447,-3.50426 1.2525,0.31415 3.38871,0.14887 4.74715,-0.36727 3.46705,-1.31737 3.07677,-0.3909 -0.65424,1.55312 -3.71716,1.9368 -9.79098,3.19324 -11.20738,2.31841 z m 11.4477,0.0564 c 0,-0.82038 4.18063,-3.95324 5.27536,-3.95324 0.29515,0 -0.17196,1.08078 -1.03801,2.40172 -1.51535,2.31131 -4.23735,3.30797 -4.23735,1.55152 z m 15.56786,-1.55152 c -0.0197,-1.58514 0.17981,-2.34989 0.44314,-1.69948 0.26332,0.65041 0.27934,1.94734 0.0356,2.88206 -0.24373,0.93471 -0.45917,0.40255 -0.47875,-1.18258 z m 2.84822,-2.40172 c 0,-1.32094 0.21819,-1.86133 0.48485,-1.20086 0.26668,0.66048 0.26668,1.74124 0,2.40172 -0.26666,0.66047 -0.48485,0.12009 -0.48485,-1.20086 z m -33.86189,-3.67765 c -4.07344,-2.58173 -20.63359,-18.82005 -22.39167,-21.95652 -0.56503,-1.00809 -0.22691,-2.07858 1.06413,-3.36882 1.45568,-1.45477 3.35602,-1.92904 8.23498,-2.05526 l 6.34262,-0.16408 -2.84067,2.92781 c -2.75624,2.84076 -3.86679,7.15941 -1.8411,7.15941 0.54977,0 2.71265,-0.87341 4.8064,-1.9409 2.09375,-1.0675 3.80681,-1.52533 3.80681,-1.01739 0,0.50794 -0.43257,1.19069 -0.96127,1.51725 -0.5287,0.32656 -0.96128,1.00054 -0.96128,1.49775 0,1.83399 1.51115,0.73101 4.0763,-2.97524 2.84332,-4.10817 5.89912,-5.48833 3.26873,-1.47633 -0.95793,1.4611 -1.14859,2.4562 -0.51126,2.66851 0.55894,0.18621 -0.73224,2.27197 -2.86931,4.63502 l -3.88561,4.29647 -0.11531,-2.88205 -0.11531,-2.88207 -0.99355,2.72596 c -0.65874,1.80743 -0.67136,3.0479 -0.0374,3.68145 1.29183,1.29105 3.74231,-0.37564 7.82222,-5.32032 2.58865,-3.13734 3.11332,-3.46582 2.50354,-1.56743 -0.42427,1.32095 -0.96336,5.14279 -1.19798,8.49299 -0.38624,5.51587 -0.25951,6.05922 1.34156,5.75213 1.86282,-0.35731 6.99437,-8.77821 7.03271,-11.54069 0.0124,-0.89027 0.43129,-2.69331 0.93096,-4.00677 1.36738,-3.59425 4.38771,-2.22396 8.18949,3.7155 3.38852,5.29384 6.94066,8.45499 8.45192,7.52156 0.49217,-0.30399 0.73466,-2.23135 0.5389,-4.28303 -0.24532,-2.57078 0.0255,-3.73032 0.87103,-3.73032 0.67485,0 1.22699,0.81059 1.22699,1.8013 0,0.99069 0.25718,3.0863 0.57149,4.65687 l 0.57147,2.8556 -9.09533,0.54228 c -9.61881,0.57352 -17.04091,3.19325 -17.04091,6.01482 0,2.11884 -2.01264,1.7351 -6.7943,-1.29546 z m 9.62319,0.38139 c 1.24537,-1.49962 9.17578,-3.48478 13.31984,-3.33423 2.06346,0.075 1.70855,0.35131 -1.72954,1.34673 -2.37918,0.68881 -3.46061,1.32522 -2.40321,1.41422 l 1.92257,0.16184 -1.92257,0.82564 c -1.0574,0.45411 -3.81396,0.85603 -6.12568,0.89316 -3.5412,0.0569 -4.02335,-0.149 -3.06141,-1.30736 z m 42.83185,0.71783 c -1.0574,-0.23878 -3.28566,-1.05325 -4.95168,-1.80992 -1.666,-0.75668 -3.61259,-1.42692 -4.32575,-1.48942 -2.16879,-0.19013 4.24031,-1.57285 7.83552,-1.69048 4.18289,-0.13684 10.64201,3.44621 8.57242,4.75536 -1.4177,0.8968 -3.84426,0.97659 -7.13051,0.23446 z m 51.1513,0.0598 c -1.37872,-1.37785 -0.61639,-5.11616 2.16128,-10.59863 1.56499,-3.08891 2.86271,-5.05029 2.88384,-4.35865 0.0643,2.10751 1.95562,0.21818 2.03684,-2.03477 0.0428,-1.19015 0.29859,-1.54704 0.58834,-0.82122 1.26007,3.15621 -5.83917,19.64327 -7.6703,17.81327 z m -33.84829,-1.32417 c -3.40619,-0.6095 -3.13187,-0.69398 2.40321,-0.7402 3.43658,-0.0287 8.41119,0.2845 11.0547,0.69601 4.60154,0.71627 4.49909,0.74783 -2.40319,0.7402 -3.96527,-0.005 -8.9399,-0.31759 -11.05472,-0.69601 z m 43.83507,-0.88051 c -1.51077,-0.95597 -1.7543,-13.21833 -0.29154,-14.6802 0.46827,-0.46798 0.68943,0.54647 0.50597,2.32109 -0.25396,2.45685 -0.14089,2.72848 0.51243,1.23104 0.67825,-1.55458 1.062,-0.85563 2.01017,3.6612 1.54259,7.34863 0.70167,9.64277 -2.73703,7.46687 z m 70.87119,-1.74592 c -3.58012,-2.94033 -4.60357,-4.15547 -4.62513,-5.49138 -0.008,-0.50195 0.50439,-0.39388 1.13883,0.24019 1.96336,1.96214 3.0932,1.26729 1.24966,-0.76857 -1.96303,-2.16778 -1.56702,-2.38429 1.63702,-0.895 2.51241,1.16782 4.97373,4.20582 5.97887,7.37966 0.96047,3.03281 -1.3652,2.83183 -5.37925,-0.4649 z m -9.00237,-5.18979 c 0.34119,-3.36255 0.20052,-8.27386 -0.31259,-10.914 -0.85659,-4.40736 -0.81236,-4.64327 0.54016,-2.88208 1.41958,1.8485 1.45645,1.82221 1.01477,-0.72367 -0.68416,-3.94375 0.72946,-3.18849 2.00676,1.07215 1.9814,6.60927 0.42253,18.13158 -2.58878,19.13473 -1.01896,0.33945 -1.15389,-0.82267 -0.66032,-5.68713 z m -82.13116,2.46664 c -0.0117,-1.62133 0.61267,-5.07979 1.38763,-7.6855 1.28058,-4.30568 1.77342,-4.85092 5.40555,-5.98018 2.19808,-0.68338 4.21162,-1.02756 4.47453,-0.7648 0.26291,0.26274 -0.77695,2.11881 -2.31078,4.12459 -1.53384,2.00579 -3.33578,4.72766 -4.00433,6.04861 -0.66853,1.32094 -2.05156,3.48248 -3.07337,4.80343 l -1.85786,2.40172 -0.0214,-2.94787 z m -89.42032,-0.29446 c 0,-0.99071 0.28795,-3.24008 0.63987,-4.99863 0.55408,-2.76869 0.74898,-2.9458 1.45389,-1.32095 0.53567,1.23481 0.67871,0.25187 0.41829,-2.87475 -0.27752,-3.33207 -0.12326,-4.26462 0.51644,-3.12223 1.33502,2.38406 2.73919,1.9879 2.73919,-0.7728 0,-1.32093 0.43257,-2.40171 0.96126,-2.40171 1.45551,0 1.1707,2.26969 -1.11198,8.8616 -2.56773,7.41512 -5.61696,11.01402 -5.61696,6.62947 z m 71.61527,-0.20842 c 6.8615,-2.18234 12.97727,-3.30067 12.97727,-2.373 0,0.36646 -0.44778,1.50249 -0.99509,2.5245 -0.87311,1.6304 -2.02222,1.84747 -9.37248,1.77058 l -8.37738,-0.0876 5.76768,-1.83445 z m 91.24682,-0.34733 c -0.31622,-1.25908 -0.012,-4.81036 0.67597,-7.89176 0.97339,-4.3597 1.3265,-5.01286 1.59181,-2.94436 0.46704,3.64146 2.13265,2.31572 2.13265,-1.69749 0,-1.78695 0.48052,-3.54581 1.06782,-3.90855 1.32137,-0.81615 0.74778,5.51844 -1.15703,12.77782 -1.45884,5.55975 -3.4172,7.22427 -4.31122,3.66434 z m -121.31466,-2.07028 c -0.93763,-1.00312 -0.45935,-1.44474 2.4345,-2.24791 4.54854,-1.26243 8.88841,-1.29557 8.88841,-0.0679 0,0.5183 -1.08145,1.21364 -2.4032,1.54518 -1.32176,0.33154 -2.40419,0.88015 -2.40538,1.21915 -0.004,1.16635 -5.34885,0.79834 -6.51433,-0.44854 z m 26.30213,0.71298 c -1.48856,-2.40705 7.78886,-6.74095 14.5801,-6.81105 7.41419,-0.0764 4.0411,3.01472 -6.63658,6.08207 -6.22887,1.78933 -7.23091,1.88128 -7.94352,0.72898 z m -47.65667,-4.11529 c -2.84633,-3.92682 -4.16414,-7.86482 -1.41738,-4.23551 0.77623,1.02565 1.41134,1.36344 1.41134,0.75066 0,-1.62486 2.73295,-0.3169 3.25161,1.55619 0.24253,0.87585 0.72072,2.56516 1.06266,3.754 0.99227,3.45003 -1.13891,2.54708 -4.30823,-1.82534 z m 12.17017,1.42505 c -0.35248,-0.35225 -0.64747,-1.9734 -0.65557,-3.60258 -0.0115,-2.31888 -0.22803,-2.64918 -0.99694,-1.52108 -1.11036,1.62902 -0.27147,-4.65368 1.12241,-8.40602 0.98858,-2.66132 3.19151,-2.90369 2.50379,-0.27549 -0.27143,1.03733 0.11069,2.38719 0.84916,2.9997 0.73848,0.61249 1.34269,1.65975 1.34269,2.32722 0,2.07059 -2.55066,6.24604 -3.36075,5.5016 -0.42252,-0.38828 -0.52857,0.26672 -0.23566,1.45556 0.5639,2.28863 0.46454,2.55413 -0.56913,1.52109 z m 27.69384,-1.28091 c 1.29504,-4.46886 5.43945,-9.60687 7.74906,-9.60687 1.4696,0 2.82283,-1.0931 4.16259,-3.3624 1.53787,-2.60491 2.58794,-3.34776 4.66102,-3.2974 2.6197,0.0638 2.63047,0.0869 0.51306,1.1075 -1.23769,0.59655 -2.16288,1.91616 -2.16288,3.08498 0,1.97597 -11.08882,13.99557 -12.91179,13.99557 -0.46426,0 -0.0587,-0.86728 0.90114,-1.92726 0.95987,-1.06 1.5088,-2.16354 1.21986,-2.45233 -0.28896,-0.28877 -1.49348,0.68658 -2.67673,2.16745 -2.13777,2.67549 -2.14696,2.67733 -1.45533,0.29076 z m -22.56702,0.0567 c 0,-0.49719 0.43257,-1.17117 0.96127,-1.49773 0.52871,-0.32655 0.96128,-1.05346 0.96128,-1.61536 0,-0.64423 -0.53265,-0.57982 -1.44192,0.17433 -2.88567,2.39342 -1.34342,-0.802 2.48491,-5.14853 3.53166,-4.00971 4.17654,-6.26765 0.93035,-3.25749 -1.06489,0.98747 -1.16507,0.85943 -0.56384,-0.72051 0.40215,-1.05675 0.95347,-2.69558 1.22515,-3.64186 0.63434,-2.20935 2.56545,-1.59683 2.94088,0.93279 0.22224,1.49741 0.82941,1.84054 2.64353,1.49397 1.29526,-0.24746 2.355,-0.0634 2.355,0.40902 0,1.36948 -2.8528,5.27983 -7.07117,9.69244 -3.84881,4.02605 -5.42544,4.94984 -5.42544,3.17893 z m 144.53334,-2.05731 c -2.71472,-3.35966 -7.04552,-11.67285 -6.52203,-12.51936 0.31809,-0.51436 0.0555,-1.56471 -0.5834,-2.33413 -0.63895,-0.76943 -0.78435,-1.39895 -0.32308,-1.39893 1.10365,4e-5 5.40433,5.42609 7.47969,9.43692 1.87461,3.62286 1.83311,9.14747 -0.0511,6.8155 z m -61.70949,-2.07262 c -0.61333,-0.61296 -1.11515,-1.66127 -1.11515,-2.32957 0,-0.6683 -0.9022,-1.69763 -2.00489,-2.28742 -3.21383,-1.71893 -1.41662,-2.12764 2.38162,-0.54161 2.3379,0.97624 3.46838,2.07205 3.46838,3.36199 0,2.40989 -1.27602,3.24965 -2.72996,1.79661 z m 70.01947,-0.24986 c -2.90787,-0.67398 -4.63817,-1.30431 -3.84511,-1.40074 1.02649,-0.12481 0.88801,-0.41321 -0.48065,-1.00098 -1.644,-0.706 -1.67882,-0.83542 -0.24031,-0.89315 2.68076,-0.10761 1.94515,-1.9889 -0.77769,-1.9889 -1.5784,0 -2.22026,-0.38758 -1.79111,-1.08154 1.80972,-2.92637 17.70894,1.89569 17.70894,5.37094 0,1.05735 -3.24816,2.62146 -4.8064,2.31448 -0.26435,-0.0521 -2.8598,-0.64613 -5.76767,-1.32011 z M 661.83464,791.126 c -2.90505,-1.57747 -4.36613,-4.31362 -2.30341,-4.31362 0.74526,0 1.65089,0.47845 2.01253,1.06325 0.46307,0.74878 0.88465,0.69602 1.42539,-0.17841 1.04243,-1.68564 3.79823,0.54581 3.79823,3.07553 0,2.13197 -1.46401,2.2368 -4.93274,0.35325 z m 55.15956,-0.58264 c -3.60092,-2.28962 -3.86513,-3.26706 -1.25977,-4.66057 1.30493,-0.69793 4.83863,-0.6402 11.77567,0.19241 5.5129,0.66167 8.63151,1.3528 7.02744,1.55737 -2.50047,0.31893 -2.62828,0.46635 -0.96129,1.10904 1.75861,0.67801 1.6766,0.84309 -0.96128,1.93563 -5.17275,2.14245 -12.13464,2.08275 -15.62077,-0.13388 z m -123.2693,0.35193 c 0.0482,-2.35536 8.19028,-6.00912 16.75893,-7.52047 l 2.83509,-0.50007 -2.78868,2.58291 c -1.53379,1.42059 -4.5399,3.37782 -6.68023,4.34943 -3.89813,1.76953 -10.15276,2.44176 -10.12511,1.0882 z m 28.82366,-0.15943 c 0,-0.95374 7.0393,-6.80555 8.18658,-6.80555 0.38519,0 0.16182,0.64846 -0.49636,1.44104 -0.75462,0.9087 -0.81906,1.44103 -0.17442,1.44103 0.56222,0 1.28959,-0.43231 1.61635,-0.9607 0.73441,-1.18757 2.40318,-1.26568 2.40318,-0.11246 0,0.71757 -9.72791,5.87659 -11.08099,5.87659 -0.24989,0 -0.45434,-0.39598 -0.45434,-0.87995 z m 30.44048,0.23949 c -0.91869,-0.91811 -0.79021,-2.24161 0.21758,-2.24161 0.47215,0 1.10743,0.64847 1.41176,1.44103 0.56228,1.46436 -0.4617,1.96747 -1.62934,0.80058 z m -4.24565,-1.01215 c -0.66087,-0.23588 -1.1663,-1.79786 -1.12318,-3.47105 l 0.0785,-3.04218 1.41188,3.23399 c 1.52577,3.49484 1.47625,3.93718 -0.36712,3.27924 z m 108.62451,-1.25938 c -2.73891,-1.10024 -2.7706,-2.46921 -0.0735,-3.1741 2.65289,-0.69332 3.67829,-0.0521 3.67829,2.30004 0,2.05346 -0.41704,2.15458 -3.6048,0.87406 z m -83.87158,-3.82585 c 0,-2.12068 0.38006,-4.60647 0.84456,-5.52395 0.46451,-0.9175 2.07408,-4.40362 3.57683,-7.74694 3.18828,-7.09321 3.90971,-7.83286 3.90971,-4.00845 0,1.53865 -0.36049,2.5749 -0.80108,2.30276 -0.44058,-0.27212 -0.80107,0.15369 -0.80107,0.94626 0,1.91855 1.61471,2.84148 2.30979,1.32023 0.30329,-0.66376 0.3246,0.11287 0.0474,1.72584 -0.27724,1.61297 -1.55755,5.01232 -2.84516,7.55409 -4.24731,8.38435 -6.24098,9.48009 -6.24098,3.43016 z m 7.16633,-9.35366 c 0.35942,-1.18886 0.2422,-2.16156 -0.26048,-2.16156 -0.83866,0 -2.05492,3.0523 -2.08633,5.23575 -0.0213,1.48015 1.61992,-0.66974 2.34681,-3.07419 z m 22.32427,11.32923 c -3.0036,-1.91713 -3.99717,-3.19399 -7.72073,-9.92229 -2.90478,-5.24875 -2.98919,-5.5788 -1.34269,-5.2497 0.74719,0.14935 1.11988,-0.66809 0.98552,-2.16154 -0.18679,-2.07605 0.5098,-1.6201 5.13704,3.3624 6.08128,6.5482 8.30602,10.27741 7.87432,13.19922 -0.39481,2.67206 -1.64899,2.8683 -4.93346,0.77191 z m -38.72166,-3.31478 c -1.88651,-4.9131 2.44737,-13.02098 10.06095,-18.82219 5.74919,-4.38063 7.0426,-4.80253 3.65805,-1.1932 -1.73425,1.84942 -2.29706,3.04384 -1.55127,3.29228 1.2312,0.41016 -0.0997,3.51797 -2.72798,6.37002 -0.67827,0.73602 -2.0381,2.91429 -3.02186,4.84057 -0.98376,1.9263 -2.6908,4.31775 -3.79343,5.31433 -1.84143,1.66429 -2.05532,1.68045 -2.62446,0.19819 z m 153.8387,0.28674 c -0.7671,-1.24043 1.22642,-2.74118 3.66961,-2.76254 1.77922,-0.0155 2.31971,-2.38963 0.76295,-3.35118 -0.50562,-0.31229 -0.68773,-1.1709 -0.4047,-1.90797 0.3768,-0.98135 -0.0848,-1.21124 -1.72422,-0.85864 -2.17555,0.46796 -2.18609,0.43883 -0.37286,-1.03077 2.4297,-1.96923 9.51903,-1.98868 11.1451,-0.0305 1.33728,1.61034 1.39422,1.53335 -4.35955,5.89382 -5.65475,4.28543 -7.91912,5.33701 -8.71633,4.04789 z m -200.36181,-1.66235 c 0,-1.34962 5.18289,-3.3485 5.58175,-2.1527 0.19038,0.5708 1.0671,1.04442 1.94828,1.05251 1.38568,0.0129 1.40732,0.14053 0.16022,0.94598 -1.77302,1.1451 -7.69025,1.26376 -7.69025,0.15421 z m 105.70297,-0.99011 c -4.35512,-1.70348 -9.57508,-5.53205 -9.57508,-7.02285 0,-1.93518 8.87792,0.62533 10.57407,3.04971 0.26435,0.37785 1.77836,1.381 3.36446,2.22921 1.58796,0.84922 2.2359,1.58984 1.44194,1.64821 -0.98679,0.0726 -0.83507,0.3666 0.48063,0.93162 l 1.92256,0.82564 -1.92256,0.0225 c -1.0574,0.0124 -3.88612,-0.74545 -6.28602,-1.68414 z m -117.23831,-0.5288 c 0,-0.92921 0.83836,-1.52245 2.16287,-1.53048 1.18959,-0.008 3.24433,-0.30153 4.56608,-0.65405 2.1758,-0.58027 2.26161,-0.49923 0.90683,0.85668 -0.82302,0.82368 -2.87776,1.80082 -4.56608,2.17141 -2.44099,0.5358 -3.0697,0.36303 -3.0697,-0.84356 z m 22.10941,-0.49998 c 0,-1.56475 1.93617,-2.1841 4.62072,-1.47809 2.39268,0.62927 2.44318,0.7402 0.66631,1.46395 -2.66938,1.08728 -5.28703,1.09428 -5.28703,0.0141 z m 101.06369,-3.10864 c -2.71469,-2.20693 -4.9358,-4.58464 -4.9358,-5.28378 0,-2.4037 3.15985,-0.86838 9.5009,4.61636 3.21257,2.77873 3.71418,3.60692 2.47297,4.08293 -0.85637,0.32842 -1.67973,0.59711 -1.82965,0.59711 -0.14995,0 -2.49374,-1.80567 -5.20842,-4.01262 z m -144.14239,1.37075 c 0.2522,-1.32573 1.4358,-1.72569 5.59784,-1.89157 4.62357,-0.18427 4.98004,-0.0749 2.87483,0.8825 l -2.4032,1.09287 3.36447,0.67223 c 2.70596,0.54066 2.08067,0.69698 -3.19463,0.7987 -5.76504,0.11115 -6.5204,-0.0771 -6.23931,-1.55473 z m 227.64423,0.14795 2.4032,-1.46515 -3.08151,0.50596 c -2.36563,0.38844 -2.96266,0.19652 -2.57,-0.82608 0.32495,-0.84629 -0.30406,-1.48737 -1.72492,-1.75799 -1.50821,-0.28727 -1.08862,-0.46856 1.28873,-0.5568 3.85401,-0.14303 12.336,3.0463 12.336,4.63847 0,0.57459 -2.33491,0.98045 -5.52735,0.96078 -5.36863,-0.033 -5.45834,-0.0762 -3.12415,-1.49919 z m -65.35224,-0.19566 c -0.0418,-3.54626 6.09916,-10.76003 9.15985,-10.76003 0.89963,0 0.76082,0.95694 -0.52256,3.60258 -2.05218,4.23047 -6.72147,9.00228 -6.74416,6.89227 -0.0122,-1.1353 -0.1734,-1.12293 -0.94657,0.0728 -0.66858,1.03393 -0.936,1.0883 -0.94656,0.19246 z m -148.7726,-0.8547 c 0.92523,-0.24164 2.43924,-0.24164 3.36446,0 0.92524,0.24164 0.16823,0.43936 -1.68224,0.43936 -1.85046,0 -2.60746,-0.19772 -1.68222,-0.43936 z m 22.83036,-0.66925 c 0,-0.32719 1.8012,-2.21492 4.00266,-4.19496 7.67535,-6.9034 12.18569,-15.60869 8.08708,-15.60869 -1.88956,0 -6.92458,4.38038 -8.92483,7.76444 -2.26221,3.82724 -2.75599,3.53032 -2.36202,-1.42026 0.38149,-4.79357 -1.41763,-14.66291 -2.83223,-15.53664 -0.51629,-0.3189 -1.61868,-0.0158 -2.44975,0.67348 -1.23364,1.02318 -1.38408,2.40521 -0.81943,7.52804 0.3804,3.45108 0.85702,7.96878 1.05917,10.03928 0.20216,2.0705 0.6232,4.66436 0.93564,5.76413 0.33076,1.1642 -1.86695,-0.60918 -5.26055,-4.2449 -3.20574,-3.43445 -5.83452,-5.77107 -5.84176,-5.19249 -0.008,0.57857 0.85199,1.83442 1.90941,2.79078 2.26922,2.05235 2.47225,3.3624 0.52111,3.3624 -1.75162,0 -9.17264,-6.9579 -9.17264,-8.60022 0,-0.66671 0.54073,-0.99128 1.2016,-0.72124 4.56086,1.86352 5.07046,1.81768 2.7275,-0.24536 -2.68145,-2.36106 -5.20013,-2.2312 -5.68659,0.29319 -0.41716,2.16484 7.38658,9.87308 11.9059,11.76021 1.74792,0.72989 3.40913,1.70074 3.69159,2.15749 0.85149,1.3769 -22.20397,0.63311 -23.89679,-0.77094 -2.78057,-2.30625 -1.64222,-3.19945 3.32785,-2.61118 2.64351,0.3129 4.80639,0.20853 4.80639,-0.23192 0,-0.44046 -1.49344,-4.92398 -3.31875,-9.96336 -4.64901,-12.83518 -8.67726,-35.51963 -7.54537,-42.49041 0.53925,-3.32088 3.15719,-4.83026 7.61691,-4.39153 1.19781,0.11785 2.33409,-0.51501 2.75273,-1.53316 0.56593,-1.37639 0.94367,-0.94162 1.83231,2.10892 1.22925,4.21986 4.1258,5.5633 6.3139,2.92842 1.75876,-2.11788 3.16385,-1.83994 2.42705,0.48008 -0.34365,1.08211 -0.0913,2.60994 0.56076,3.39516 0.94015,1.1321 0.93901,1.88818 -0.006,3.65196 -0.65512,1.22334 -1.06031,3.04592 -0.90041,4.05017 0.15988,1.00423 -0.52913,3.05841 -1.53114,4.56481 -2.76078,4.15049 -1.1075,5.94519 5.30871,5.76282 3.3148,-0.0942 5.56503,0.33827 6.47106,1.24374 1.86892,1.86779 3.1513,1.29031 5.7948,-2.60946 1.66872,-2.46173 2.07999,-4.05961 1.64345,-6.3852 -0.85295,-4.54373 1.65786,-7.95597 5.85419,-7.95597 4.44761,0 4.14628,2.01895 -0.59859,4.01057 -4.36038,1.83022 -4.41987,4.27011 -0.12689,5.20449 4.37457,0.95214 4.94068,1.25541 4.94068,2.64682 0,0.74505 -1.255,1.87416 -2.78888,2.50912 -6.02901,2.49576 -8.46714,7.62331 -4.74009,9.9688 1.24029,0.78053 2.44868,0.42331 5.3387,-1.57823 3.83131,-2.65348 5.62865,-3.30038 4.61483,-1.66099 -0.81609,1.31965 3.82,14.73237 7.69871,22.2733 2.49225,4.84538 3.00126,6.60471 2.10843,7.28752 -0.64735,0.49507 -5.93532,1.39571 -11.75106,2.00142 -5.81573,0.60571 -11.54736,1.37561 -12.73695,1.71087 -1.18957,0.33526 -2.16287,0.34186 -2.16287,0.0147 z m 36.62936,-1.63212 c -2.81867,-1.12679 -2.53967,-1.41413 2.06211,-2.12381 3.11638,-0.4806 3.6048,-0.30377 3.6048,1.30506 0,2.04362 -1.91192,2.31985 -5.66691,0.81875 z m 140.57497,-1.49081 c 0.33609,-0.60059 -0.0331,-1.62623 -0.82026,-2.27917 -1.72019,-1.42676 -2.00448,-6.22275 -0.30669,-5.17411 0.75549,0.46664 0.92377,0.17153 0.51268,-0.89908 -0.7874,-2.05068 2.51542,-9.79348 4.50268,-10.5556 3.37817,-1.29552 4.50808,4.95651 2.37785,13.15719 -1.2045,4.6368 -3.26076,3.30461 -2.91099,-1.88592 0.1467,-2.1768 -0.13382,-3.2113 -0.76506,-2.82141 -0.54818,0.33858 -0.99669,1.41868 -0.99669,2.40022 0,0.98155 -0.54072,1.98031 -1.20159,2.2195 -0.94901,0.34347 -0.9324,0.88901 0.079,2.59503 1.01103,1.70552 1.03192,2.38907 0.0994,3.24775 -0.87985,0.81009 -1.02533,0.80898 -0.57016,-0.005 z m 14.27451,-4.69439 c 6.5679,-6.26311 10.36595,-5.20705 5.40253,1.5022 -1.88518,2.54826 -5.60007,4.23542 -4.14498,1.88247 0.32676,-0.52837 0.16152,-0.96068 -0.36718,-0.96068 -0.5287,0 -1.22861,0.43231 -1.55538,0.96068 -0.32675,0.52839 -1.32557,0.95069 -2.21961,0.93842 -1.10881,-0.0152 -0.1919,-1.38935 2.88462,-4.32309 z m -98.21009,1.71776 c -2.53587,-0.47398 -10.59878,-5.85369 -10.59878,-7.07168 0,-0.40006 0.75702,-0.92509 1.68225,-1.16673 1.26593,-0.33062 1.14696,-0.46693 -0.48065,-0.55079 -1.18958,-0.0613 -2.16287,-0.53552 -2.16287,-1.05382 0,-0.51831 -1.10159,-1.2187 -2.44797,-1.55641 -1.34637,-0.33772 -2.23895,-0.82289 -1.98352,-1.07817 1.11987,-1.11919 15.99961,4.84267 19.38428,7.76669 5.06163,4.37274 3.84394,6.06354 -3.39274,4.71091 z m -88.80437,-1.7494 c 0.64341,-1.71167 0.5535,-1.74725 -1.07731,-0.42647 -1.68429,1.36412 -1.71341,1.31282 -0.54527,-0.96069 2.47962,-4.82603 9.65482,-10.88047 9.65482,-8.14676 0,1.06987 -4.66613,7.76398 -6.64562,9.53392 -2.06854,1.84958 -2.08188,1.84958 -1.38662,0 z m 28.71629,-2.32109 c -0.93582,-1.51325 8.19302,-6.60387 13.922,-7.76346 9.83549,-1.9908 10.39085,-2.01771 6.72895,-0.32623 -1.85045,0.85476 -4.36381,1.937 -5.5852,2.405 -1.2214,0.46799 -1.96599,1.26282 -1.65465,1.76627 0.31133,0.50346 -2.30364,1.80118 -5.81107,2.88385 -7.44215,2.29724 -6.86755,2.21901 -7.60003,1.03457 z m -35.4313,-3.10124 c 0.80961,-4.24746 1.28935,-4.61398 1.28935,-0.98508 0,1.64201 -0.42606,3.24863 -0.94681,3.57027 -0.59157,0.36541 -0.72011,-0.60449 -0.34254,-2.58519 z m -1.45046,-2.79573 c -0.0792,-0.85091 -0.41911,-3.55283 -0.75532,-6.0043 -0.50302,-3.66769 -0.34423,-4.45716 0.89648,-4.45716 0.8293,0 1.71303,0.75652 1.96389,1.68119 0.82234,3.03136 1.5315,7.47233 0.99714,6.24447 -0.88641,-2.03688 -2.13733,-1.33208 -2.55769,1.44103 -0.22025,1.45305 -0.46527,1.9457 -0.5445,1.09477 z m 178.70958,-0.37425 c 0.016,-0.52838 0.61417,-3.12223 1.32926,-5.76413 1.00137,-3.69961 1.46493,-4.39663 2.0172,-3.03312 0.45356,1.11985 -0.0349,3.23769 -1.32927,5.76411 -1.12546,2.19661 -2.03318,3.56151 -2.01719,3.03314 z m -70.57844,-4.4083 c -2.45583,-2.16037 -4.19162,-4.37024 -3.8573,-4.91084 0.33431,-0.54059 0.0242,-1.34337 -0.68906,-1.78394 -0.71333,-0.44057 -0.99729,-1.10049 -0.63107,-1.46648 0.69866,-0.69823 12.25572,9.97059 12.25572,11.31378 0,1.80914 -2.91277,0.51186 -7.07829,-3.15252 z m -24.97009,1.17587 c -1.52213,-0.59889 -1.30692,-0.94389 1.54699,-2.47988 2.59997,-1.39932 4.56858,-1.67062 9.12551,-1.25767 3.19571,0.2896 6.60903,0.99047 7.58514,1.55751 1.37684,0.7998 -0.0572,1.06985 -6.39611,1.20446 -6.96166,0.14781 -7.5307,0.27296 -3.84511,0.84559 l 4.32576,0.67212 -5.28705,0.0766 c -2.90787,0.0421 -6.08268,-0.23628 -7.05513,-0.61891 z m -33.79921,-1.09066 c -0.37469,-0.60587 1.64582,-0.91871 5.4706,-0.84704 4.80969,0.0901 5.46795,0.26544 3.1809,0.84704 -4.27579,1.08733 -7.97908,1.08733 -8.6515,0 z m 81.22805,-1.92138 c -1.14524,-0.73965 -0.94746,-0.9403 0.9613,-0.97519 2.17718,-0.0398 2.23637,-0.14083 0.62939,-1.07433 -1.63889,-0.95205 -1.55691,-1.16221 1.07804,-2.76363 1.5685,-0.95327 4.52959,-1.88144 6.58019,-2.06261 3.23,-0.28536 3.76853,-0.0471 4.02895,1.7819 0.53428,3.75278 -9.43347,7.57677 -13.27787,5.09386 z m -103.81812,-2.38228 c 0,-3.0184 2.80052,-10.10666 3.99306,-10.10666 0.82204,0 0.64646,2.24616 -0.76974,9.84705 -0.61979,3.32655 -3.22332,3.53625 -3.22332,0.25961 z m 20.09568,0.95631 c -8.16225,-1.37398 -11.44416,-2.7655 -11.44416,-4.8523 0,-1.10733 1.49547,-1.40722 7.01734,-1.40722 3.85953,0 7.42829,0.35942 7.93055,0.79873 0.50227,0.43931 2.8598,1.3734 5.23896,2.07574 3.97586,1.17373 4.13136,1.33173 1.92257,1.9534 l -2.40321,0.67635 2.40321,1.02974 2.4032,1.02974 -2.88384,-0.0376 c -1.58611,-0.0207 -6.16919,-0.59062 -10.18462,-1.26656 z m 39.49517,-1.85222 c 2.39593,-0.86429 2.94595,-1.39611 1.92256,-1.85894 -0.82728,-0.37415 -0.51884,-0.4787 0.72941,-0.24725 1.18958,0.22059 2.16288,0.01 2.16288,-0.46967 0,-0.47893 -0.51911,-0.87076 -1.15354,-0.87076 -0.82883,0 -0.86013,-0.29322 -0.11119,-1.04171 1.49395,-1.49303 12.80008,-2.40514 12.80008,-1.03262 0,1.54202 -6.36076,4.53986 -12.30363,5.79871 -6.54352,1.3861 -8.32078,1.2641 -4.04657,-0.27776 z m 104.62094,-1.6275 c -3.75896,-1.87889 -6.33978,-4.59812 -3.23343,-3.40683 0.94679,0.3631 2.31446,0.16831 3.03926,-0.43283 1.02151,-0.84725 2.08902,-0.50515 4.74769,1.52146 5.11405,3.89827 1.89069,5.53929 -4.55352,2.3182 z m -82.21305,-0.75131 c -1.36821,-2.18951 -0.57558,-5.87125 1.264,-5.87125 1.40016,0 1.67493,3.11105 0.52996,6.00072 -0.62176,1.56921 -0.73769,1.56085 -1.79396,-0.12947 z m 12.77934,-2.43279 c 2.05262,-2.45409 3.89127,-3.98462 4.08587,-3.4012 0.40181,1.20472 -3.26329,5.4108 -5.99793,6.88323 -1.01742,0.54782 -0.17426,-0.98766 1.91206,-3.48203 z m -54.63102,-2.52639 c -0.84744,-2.87934 -1.5757,-4.38243 -1.61834,-3.3402 -0.0738,1.80489 -0.14755,1.7951 -1.55007,-0.20605 -2.15829,-3.07949 -4.47108,-9.90683 -4.47736,-13.21716 -0.01,-4.84719 0.14269,-5.42156 1.25241,-4.73616 1.6653,1.02859 4.35658,7.80591 6.59419,16.60585 2.3106,9.08694 2.15431,12.89565 -0.20083,4.89372 z m 3.11049,0.98553 c 0,-3.49834 10.50856,-5.63312 14.93922,-3.03486 1.60707,0.94243 1.38991,1.03363 -1.48131,0.62211 -2.17412,-0.31163 -2.74157,-0.20667 -1.60387,0.29667 1.39463,0.61701 0.67774,1.12005 -3.44896,2.42007 -6.8241,2.14979 -8.40508,2.09261 -8.40508,-0.30399 z m -59.59928,-0.2891 c 0,-2.62479 8.47827,-8.3824 12.20858,-8.29084 1.06787,0.0262 0.32665,0.78246 -1.93669,1.97604 -2.01668,1.06348 -3.49263,2.44937 -3.27991,3.07978 0.21272,0.63039 -0.85134,1.90272 -2.36456,2.82738 -3.28877,2.00961 -4.62742,2.12754 -4.62742,0.40764 z m 45.961,-0.70826 c -0.18732,-0.56161 -1.48896,-1.14711 -2.89257,-1.30108 -2.83714,-0.31126 -5.86024,-2.79978 -4.81183,-3.96094 0.37135,-0.41129 -0.10427,-0.46771 -1.05698,-0.12537 -0.95267,0.34231 -1.49071,0.23197 -1.19561,-0.24523 0.29513,-0.47721 -0.006,-1.12495 -0.67102,-1.43945 -0.66418,-0.31451 0.22575,-0.35676 1.97758,-0.0938 2.68837,0.40339 3.10782,0.21755 2.68918,-1.19144 -2.41649,-8.13286 -1.61911,-8.74766 4.35258,-3.35594 5.04785,4.55763 11.59316,14.55962 7.07609,10.81309 -1.13702,-0.94305 -1.44192,-0.94543 -1.44192,-0.0113 0,0.65162 -0.85076,0.16417 -1.89059,-1.08323 -1.0398,-1.24739 -1.90494,-1.7531 -1.92254,-1.12382 -0.0177,0.62929 0.40059,1.41136 0.9293,1.73791 0.5287,0.32656 0.96127,1.00054 0.96127,1.49773 0,1.2389 -1.68188,1.14522 -2.10294,-0.11714 z m 71.89851,-0.49848 c -1.08234,-2.81876 -0.59669,-3.28381 3.42918,-3.28381 h 4.0127 l -2.2577,2.40171 c -2.59536,2.76094 -4.34824,3.05919 -5.18418,0.8821 z m -24.28474,-2.56329 c -0.24431,-0.39629 0.66277,-0.72052 2.01574,-0.72052 3.03407,0 3.2617,-1.6515 0.29705,-2.1553 -1.39756,-0.23749 -0.50834,-0.64548 2.51312,-1.15306 3.62876,-0.60959 5.43636,-0.42312 8.07124,0.8326 2.13513,1.01755 3.05766,1.95552 2.48559,2.52722 -1.0975,1.09684 -14.75287,1.69075 -15.38274,0.66906 z m 105.63023,-0.90066 c 0.59414,-1.78132 2.66355,-2.07677 2.66355,-0.38026 0,0.83659 -0.68491,1.52108 -1.52203,1.52108 -0.83712,0 -1.3508,-0.51338 -1.14152,-1.14082 z m -208.62553,-1.9334 c -1.68171,-1.68069 -1.43913,-2.68543 1.24967,-5.17578 1.71949,-1.5926 2.4032,-1.82893 2.4032,-0.83068 0,0.76732 0.44367,1.39515 0.98595,1.39515 0.56147,0 0.34392,1.24083 -0.50532,2.88206 -1.63224,3.15444 -2.39016,3.47152 -4.1335,1.72925 z m -10.71965,-0.73974 c -1.1154,-0.68893 -1.16379,-1.32456 -0.25294,-3.32243 1.16827,-2.5625 3.45058,-3.25856 4.59845,-1.40242 0.36329,0.58746 0.0644,1.47831 -0.66424,1.97967 -0.88327,0.60779 -0.20355,0.69991 2.03974,0.27644 2.97364,-0.56136 3.19697,-0.47039 1.92255,0.78314 -1.9,1.86879 -5.91387,2.75396 -7.64356,1.6856 z m 109.07272,-1.08776 c 4.50626,-2.37571 5.83653,-3.50133 5.05771,-4.27967 -0.31215,-0.31196 -1.89385,0.11824 -3.51489,0.956 -2.13724,1.10455 -2.81727,1.18444 -2.4741,0.29073 0.8769,-2.28377 10.58127,-6.74129 13.00357,-5.97295 4.05049,1.28478 1.64586,4.42145 -6.52723,8.51428 -6.26417,3.13691 -11.43173,3.59504 -5.54506,0.49161 z m -23.56557,0.36642 c -1.32176,-0.23698 -2.81416,-0.82657 -3.31642,-1.3102 -0.50227,-0.48363 -1.70255,-0.87933 -2.66731,-0.87933 -1.57901,0 -4.28187,-4.47128 -3.29752,-5.45501 0.21194,-0.21181 3.10773,0.37132 6.43512,1.29587 l 6.04979,1.68094 -2.80343,1.16128 c -2.99206,1.2394 -2.80257,1.4105 3.44489,3.11027 2.56036,0.69664 2.79011,0.90485 0.96127,0.87123 -1.32176,-0.0243 -3.48464,-0.23807 -4.80639,-0.47505 z m -55.75418,-2.18953 c 0,-0.52838 1.83845,-0.91761 4.08544,-0.86493 3.47062,0.0813 3.72378,0.2115 1.68224,0.86493 -3.45939,1.1072 -5.76768,1.1072 -5.76768,0 z m 70.82704,-1.19955 c 0.34027,-1.55149 0.2157,-1.79873 -0.44074,-0.87463 -1.3603,1.91494 -5.98062,-7.87608 -5.98062,-12.67365 v -3.80302 l 2.02098,1.82782 c 1.11154,1.00532 2.66356,3.06971 3.44896,4.58756 1.71803,3.32026 2.64733,11.75832 1.38109,12.54041 -0.50836,0.31397 -0.69642,-0.38831 -0.42967,-1.60449 z m -93.84874,-0.69157 c -1.11773,-0.69038 -1.16648,-1.32519 -0.25525,-3.32387 1.2778,-2.80279 5.39782,-3.63077 4.33849,-0.8719 -0.44094,1.14838 -0.26194,1.38128 0.63551,0.82698 2.04751,-1.26465 0.65433,1.57354 -1.4616,2.9776 -1.18063,0.78341 -2.38744,0.92836 -3.25715,0.39119 z m 15.3395,-1.92633 c -2.43189,-1.53655 0.35068,-3.17969 6.20646,-3.665 3.83103,-0.31751 5.32085,-0.10731 5.32085,0.75067 0,0.75605 -0.88681,1.02221 -2.42614,0.72814 -1.33437,-0.25493 -2.65762,-0.0892 -2.94056,0.36834 -0.28294,0.45752 1.78212,0.88962 4.58901,0.96021 l 5.10345,0.12838 -4.8064,0.74816 c -6.67639,1.03924 -9.37924,1.03461 -11.04667,-0.019 z m 61.03318,-1.90142 c -2.11482,-0.95722 -5.13527,-3.10868 -6.71208,-4.78104 -2.39251,-2.53749 -2.63112,-3.18968 -1.44191,-3.94118 0.78377,-0.49526 1.91865,-0.90711 2.52197,-0.91521 1.3903,-0.0187 9.58678,6.71395 11.50386,9.44926 1.32113,1.88502 1.29594,2.0584 -0.28998,1.99642 -0.95521,-0.0372 -3.46706,-0.85104 -5.58186,-1.80825 z m -81.84642,-0.53784 c -0.70002,-1.82309 1.30497,-4.33558 3.37957,-4.235 1.05679,0.0511 1.16156,0.23743 0.32282,0.57376 -0.93352,0.37432 -0.97263,0.82195 -0.15756,1.80344 0.59628,0.71802 0.8051,1.75677 0.46402,2.30829 -0.92082,1.48904 -3.36979,1.21384 -4.00885,-0.45049 z m 45.00514,-4.01399 c -0.0924,-3.27118 0.26461,-6.21478 0.79333,-6.54132 0.5287,-0.32656 0.96126,-1.37994 0.96126,-2.3408 0,-1.85758 2.56299,-4.54455 3.47012,-3.63797 0.29691,0.29671 -0.0335,3.92486 -0.73438,8.06255 -0.77686,4.58676 -1.39674,6.49193 -1.58818,4.88119 -0.48015,-4.04016 -1.95312,-3.14313 -2.36626,1.44103 -0.29369,3.25881 -0.40187,2.88244 -0.53589,-1.86468 z m -7.62946,3.86645 c -1.17339,-0.47237 -6.95768,-8.27051 -6.95768,-9.38003 0,-0.30107 0.85403,-0.54741 1.89787,-0.54741 1.14105,0 2.49905,1.16182 3.40542,2.91348 0.87496,1.69097 1.95603,2.63645 2.57641,2.25328 0.64068,-0.39572 0.799,-0.22383 0.39523,0.42907 -0.37049,0.59911 -0.20581,1.96282 0.36595,3.03049 1.03331,1.92959 0.63762,2.23547 -1.6832,1.30112 z m -23.2847,-1.46472 c -0.008,-0.89349 0.41786,-1.89169 0.94656,-2.21826 1.2166,-0.75142 1.2166,0.52034 0,2.40173 -0.80305,1.24187 -0.93387,1.2165 -0.94656,-0.18347 z m 58.7879,-0.87077 c -1.83713,-2.93992 -0.84486,-3.15567 1.7615,-0.38301 1.57478,1.67525 1.83876,2.39794 0.87587,2.39794 -0.75803,0 -1.94485,-0.90673 -2.63737,-2.01493 z m -16.50636,0.81491 c 0,-0.97378 6.00569,-5.22814 8.41119,-5.95838 2.95657,-0.89752 2.77672,0.91747 -0.38068,3.84185 -2.48343,2.30017 -5.84779,3.30611 -4.66603,1.39516 0.83185,-1.34513 -0.81601,-1.20192 -2.21094,0.19214 -0.63444,0.63406 -1.15354,0.87222 -1.15354,0.52923 z m -51.0816,-3.57146 -2.26936,-1.88942 3.54806,-0.032 c 3.80916,-0.0343 6.22487,1.84412 2.51666,1.95694 -2.0969,0.0639 -2.11332,0.11316 -0.29705,0.89316 1.49584,0.64238 1.57283,0.84062 0.34681,0.89315 -0.86665,0.0372 -2.59696,-0.78271 -3.84512,-1.82188 z m 104.91321,-1.2595 c 0,-3.06139 3.41515,-5.647 8.07027,-6.11002 3.63032,-0.36108 3.75363,-0.3015 1.54254,0.74536 -1.32176,0.62579 -2.79974,1.1762 -3.28438,1.2231 -0.48464,0.0469 -1.07542,0.66768 -1.31283,1.37946 -0.34077,1.02169 -0.0169,1.07226 1.53894,0.24018 2.85343,-1.52616 6.90337,-1.33106 6.90337,0.33258 0,2.38165 -4.04207,4.37757 -8.8654,4.37757 -4.13832,0 -4.59251,-0.2164 -4.59251,-2.18823 z m 85.55382,1.44617 c 0,-0.72971 2.49817,-2.63142 3.85891,-2.93755 0.77547,-0.17447 1.6303,-0.61677 1.89967,-0.98288 2.01148,-2.73412 9.56421,-5.39707 12.58746,-4.43811 2.81778,0.89377 2.24235,2.13252 -2.5632,5.51781 -3.73036,2.62789 -5.27426,3.10965 -10.09342,3.14952 -3.12917,0.0259 -5.68942,-0.11305 -5.68942,-0.30879 z m -181.15576,-1.88192 c 1.36489,-3.11137 0.67194,-5.91099 -2.04014,-8.24239 l -2.68432,-2.30754 2.52433,-1.65299 c 1.38837,-0.90914 3.47845,-1.51156 4.6446,-1.33871 2.70232,0.40053 7.23102,6.10186 8.07137,10.16131 0.63194,3.05277 0.57117,3.12222 -2.73194,3.12222 -1.85807,0 -4.53725,0.44039 -5.95377,0.97862 -2.28008,0.86633 -2.49001,0.78368 -1.83013,-0.72052 z m 160.191,-3.64865 -1.05915,-5.73597 0.41333,5.28378 c 0.28553,3.64962 0.12363,4.8381 -0.52338,3.84274 -0.83266,-1.2809 -1.04191,-1.2809 -1.8833,0 -0.74988,1.14163 -0.94962,0.92539 -0.96127,-1.04072 -0.008,-1.365 -0.30924,-2.77612 -0.66921,-3.13586 -0.83944,-0.83893 -1.16777,-9.44021 -0.57494,-15.06131 0.56577,-5.36445 2.74637,-8.87444 4.1599,-6.69598 3.3028,5.0901 5.12342,20.49506 3.06163,25.90572 -0.80522,2.11312 -1.02068,1.74418 -1.96361,-3.3624 z m 11.81975,3.43104 c 0.4454,-1.40248 0.34547,-1.98382 -0.27515,-1.6005 -1.67185,1.03263 -0.12668,-3.00529 1.82575,-4.77112 1.89573,-1.71456 2.55308,-3.83776 0.86546,-2.79539 -2.19344,1.3548 -0.70259,-1.46423 2.9939,-5.66107 6.25439,-7.10101 13.01701,-9.61512 9.92383,-3.68935 -0.7538,1.44408 -1.3732,3.13737 -1.37647,3.76285 -0.008,1.51585 -8.68693,12.26408 -12.0168,14.88173 l -2.63999,2.07533 z M 645.17106,718.0587 c -2.22453,-4.12817 -1.41813,-5.23115 1.29987,-1.7779 2.18455,2.77548 2.47907,3.85469 1.2578,4.60901 -0.42589,0.26304 -1.57682,-1.01095 -2.55767,-2.83111 z m 116.28228,0.47357 c -5.05616,-3.81322 -5.46555,-5.13156 -1.31551,-4.23631 1.78094,0.38417 3.38225,1.07824 3.55849,1.54237 0.17623,0.46411 0.88026,0.84384 1.56454,0.84384 0.68425,0 1.78261,0.64847 2.44079,1.44103 0.96476,1.16176 0.94099,1.44389 -0.12263,1.45574 -1.03624,0.0115 -1.00993,0.21452 0.12263,0.94598 1.19314,0.77059 1.11023,0.92919 -0.48065,0.91925 -1.05741,-0.007 -3.65286,-1.31697 -5.76766,-2.9119 z m 8.60987,-0.0941 c -5.46755,-4.79761 -11.28425,-16.16626 -8.27138,-16.16626 3.67321,0 16.45533,14.76019 14.50639,16.75128 -0.54358,0.55532 -1.80598,0.0315 -3.29682,-1.36833 -2.9589,-2.77805 -3.22306,-1.47477 -0.3258,1.60733 3.03643,3.23012 1.43062,2.72363 -2.61239,-0.82398 z m -159.47291,1.34389 c -1.23927,-1.2385 -0.37465,-3.8768 1.98422,-6.05465 l 2.5226,-2.329 -0.72779,2.40171 c -0.7111,2.3466 -0.68347,2.36219 1.20374,0.67905 1.55786,-1.3894 2.03031,-1.46548 2.442,-0.39323 0.28078,0.7312 0.22607,1.75642 -0.12153,2.27829 -0.90775,1.36275 -6.66405,4.05665 -7.30324,3.41783 z m 9.44159,-0.40128 c -0.38916,-0.62929 -0.19841,-1.31377 0.42391,-1.52109 0.6223,-0.20731 1.14461,-1.09745 1.1607,-1.97807 0.0258,-1.41102 0.14947,-1.39458 1.04172,0.13842 1.74958,3.00592 -0.81572,6.28856 -2.62633,3.36074 z m 85.89031,-2.69856 c -1.81846,-2.12252 -4.07707,-2.50069 -5.09588,-0.85326 -0.81656,1.32043 -8.84582,0.39104 -12.3592,-1.43059 l -2.45597,-1.2734 2.15378,-1.03841 c 2.00576,-0.96706 1.92255,-1.04947 -1.21069,-1.1992 -4.17275,-0.19942 -9.22375,-1.64815 -6.24832,-1.79217 6.03219,-0.29198 19.13382,2.17537 22.99065,4.32968 4.8911,2.73201 7.35627,5.17872 5.21778,5.17872 -0.7403,0 -2.08676,-0.86461 -2.99215,-1.92137 z m -103.9383,-2.48029 c -0.91208,-2.37536 -0.68486,-6.95058 0.37779,-7.60692 0.56155,-0.34683 0.99733,0.72818 1.04798,2.58518 l 0.0867,3.17894 0.919,-3.18749 c 1.07606,-3.73229 3.09488,-3.60457 3.54574,0.22429 0.51701,4.39058 -4.56708,8.47846 -5.9772,4.806 z m 44.83694,-0.0772 c -1.62363,-0.65475 -1.52386,-2.87736 0.15812,-3.52239 0.74784,-0.28679 2.90024,0.26347 4.78309,1.22282 l 3.4234,1.74426 -2.98071,0.59578 c -3.30201,0.66 -3.65344,0.65735 -5.3839,-0.0404 z m 76.11759,-2.63798 c -0.73328,-2.91988 0.88528,-5.37195 3.54593,-5.37195 2.01465,0 5.64998,3.21427 5.64998,4.99557 0,0.89665 -0.25634,0.89665 -1.15353,0 -1.66772,-1.66668 -3.14886,-1.41997 -1.7303,0.28821 0.96477,1.16178 0.941,1.44357 -0.12264,1.45415 -0.7256,0.008 -2.27297,0.26866 -3.43857,0.581 -1.70446,0.45672 -2.24292,0.0756 -2.75087,-1.94696 z m -113.31145,0.60787 c -0.74638,-0.74593 -0.67336,-5.52273 0.0962,-6.2918 0.3479,-0.34765 1.21304,-0.15062 1.92256,0.43787 0.96171,0.79767 1.29004,0.7656 1.29004,-0.12596 0,-0.95414 0.29154,-0.95414 1.44192,0 2.29297,1.90181 1.68531,4.29039 -1.38623,5.44904 -1.55547,0.58678 -3.0695,0.82566 -3.36447,0.53086 z m 95.69379,-1.74584 c -1.19187,-1.36994 -2.02689,-2.60831 -1.85559,-2.75194 1.45034,-1.21626 4.95361,-2.44281 6.97719,-2.44281 3.48048,0 3.30933,2.85789 -0.17714,2.95792 -2.30816,0.0662 -2.12447,0.25942 1.44792,1.52308 4.79989,1.69783 4.51293,3.20449 -0.61032,3.20449 -2.69243,0 -4.16809,-0.63567 -5.78206,-2.49074 z m 36.49512,-0.63093 c 0.58267,-2.03039 0.55921,-3.23382 -0.0671,-3.44246 -1.48571,-0.49492 -1.15013,-1.89496 0.95961,-4.00341 2.97041,-2.96858 3.84511,-2.32855 3.84511,2.81343 0,4.7913 -1.65345,7.75413 -4.32731,7.75413 -1.01649,0 -1.10749,-0.69226 -0.41031,-3.12168 z m -154.80084,0.30277 c -1.45271,-2.71272 -1.21581,-7.33031 0.44682,-8.70932 1.19319,-0.98966 1.45244,-0.88566 1.50286,0.60289 0.05,1.47657 0.222,1.39719 0.96007,-0.44319 1.08705,-2.71049 3.00348,-2.29522 4.13236,0.89541 1.17013,3.30724 -1.5104,9.51245 -4.10922,9.51245 -1.06579,0 -2.38558,-0.83622 -2.93289,-1.85822 z m 8.03421,-0.62207 c 0.32091,-0.83579 0.59011,-2.45693 0.5982,-3.60258 0.012,-1.69704 0.18737,-1.81597 0.94655,-0.64194 1.30789,2.02255 1.279,-0.49372 -0.0339,-2.94521 -0.64089,-1.1968 -0.65638,-1.85821 -0.0435,-1.85821 1.49541,0 2.29995,6.29087 1.09283,8.54502 -1.25329,2.34031 -3.4299,2.7679 -2.56023,0.50292 z m 32.35375,-4.34312 c -5.24047,-4.88329 -6.20025,-6.27555 -6.20025,-8.9942 0,-3.7271 1.76651,-6.27818 4.34733,-6.27818 1.50584,0 1.80486,0.73719 1.80486,4.44983 0,3.84446 0.45957,4.88301 3.37818,7.63391 3.11654,2.93744 5.65824,9.10731 3.71125,9.00883 -0.46262,-0.0233 -3.63124,-2.64248 -7.04137,-5.82019 z m 120.11179,5.31171 c 0,-0.15652 0.42187,-1.3935 0.93748,-2.74883 1.19936,-3.15261 3.86892,-3.27303 3.86892,-0.17455 0,1.67949 -0.6405,2.41209 -2.4032,2.74885 -1.32176,0.25251 -2.4032,0.33105 -2.4032,0.17453 z m -130.18546,-2.88332 c -0.39384,-1.56825 -1.64428,-2.8115 -3.46612,-3.4462 -1.83397,-0.63894 -2.85002,-1.65513 -2.85002,-2.85045 0,-3.03206 2.585,-3.13813 8.13133,-0.33366 5.04021,2.54854 7.59006,5.26122 4.9454,5.26122 -0.70516,0 -2.37614,0.86004 -3.71328,1.91119 l -2.4312,1.9112 z m 96.99835,0.47989 c -0.34826,-1.09658 -0.48554,-2.09241 -0.30511,-2.21293 0.18045,-0.12054 1.40954,-0.71884 2.7313,-1.32953 2.12831,-0.98339 1.93773,-1.04617 -1.66625,-0.54892 -3.22373,0.44479 -4.19462,0.23548 -4.67176,-1.00719 -1.39495,-3.63293 4.81303,-8.47702 8.86991,-6.92121 1.45821,0.55923 1.45838,0.73268 0.003,2.34081 -1.91269,2.1122 -2.09049,3.69123 -0.2431,2.15898 1.79618,-1.48978 2.88793,1.25901 1.5169,3.81923 -0.55023,1.02749 -0.60214,1.85178 -0.11662,1.85178 0.48127,0 1.56808,-1.40501 2.41515,-3.12223 0.98578,-1.99847 1.54796,-2.49996 1.56197,-1.39332 0.037,2.92258 -2.66739,7.12192 -4.98633,7.74273 -3.57739,0.95771 -4.44029,0.72489 -5.10821,-1.3782 z m -66.4751,-2.23336 c 0.31385,-0.8174 -0.0431,-1.82948 -0.7934,-2.24908 -0.98675,-0.55186 -0.44151,-1.05145 1.97117,-1.80615 4.26489,-1.33407 7.32149,0.39556 5.62408,3.18248 -1.37703,2.26094 -7.64362,3.06499 -6.80185,0.87275 z m -47.95345,-2.78034 c -0.55927,-1.88383 -1.99752,-3.5934 -3.78576,-4.49989 -1.58612,-0.80405 -3.07437,-1.58029 -3.30726,-1.72496 -1.29906,-0.80704 3.17538,-3.38184 5.74979,-3.3087 3.31501,0.0943 12.45729,3.09409 12.45729,4.08767 0,0.33918 -1.08142,1.10913 -2.4032,1.711 -1.32175,0.60186 -2.40319,1.50642 -2.40319,2.01015 0,0.50374 -1.2163,1.78141 -2.70289,2.8393 l -2.70288,1.92345 z m -25.76992,0.0425 c -1.03034,-3.8423 -0.64703,-6.14965 1.31667,-7.92566 1.96595,-1.77808 2.3028,-1.44541 1.93402,1.91009 -0.19015,1.73035 -0.0337,1.69268 1.66214,-0.40038 2.55386,-3.15195 5.35877,-2.15381 4.47216,1.59142 -1.42399,6.01522 -8.13992,9.46766 -9.38499,4.82453 z m 32.62554,1.30971 c -0.28973,-0.46851 0.11733,-1.38605 0.90455,-2.039 1.19112,-0.98795 1.43135,-0.84499 1.43135,0.85183 0,2.06102 -1.36613,2.75532 -2.3359,1.18717 z m 97.28493,-1.64341 c -1.50042,-3.29106 0.003,-5.58221 3.9193,-5.97162 3.11004,-0.30929 4.22272,1.34387 1.58529,2.35533 -0.79305,0.30416 -1.44192,1.54126 -1.44192,2.74914 0,3.26186 -2.70742,3.83973 -4.06267,0.86715 z m -22.05435,-2.5e-4 c -1.2033,-1.20256 -1.96257,-1.30654 -3.50727,-0.48035 -2.515,1.34516 -3.34867,1.33909 -2.50925,-0.0183 1.44372,-2.33454 21.55949,-10.37197 21.55949,-8.61428 0,0.87675 -7.40123,7.77889 -10.09344,9.4128 -2.58899,1.57131 -3.63478,1.51374 -5.44953,-0.2999 z m -21.49044,-0.42565 c -0.34004,-0.54986 -1.37443,-0.7599 -2.29866,-0.46674 -2.22775,0.70662 -5.6665,-2.94194 -4.17634,-4.43118 0.75848,-0.75803 2.00498,-0.32054 4.4953,1.57776 1.89517,1.44464 3.44577,3.00761 3.44577,3.47327 0,1.14298 -0.71044,1.06879 -1.46607,-0.15311 z m 87.98117,-0.92158 c 0,-1.06744 0.64086,-1.92138 1.44193,-1.92138 0.80106,0 1.44191,0.85394 1.44191,1.92138 0,1.06743 -0.64085,1.92138 -1.44191,1.92138 -0.80107,0 -1.44193,-0.85395 -1.44193,-1.92138 z m -118.60737,-2.368 c -0.85386,-1.30235 -1.55248,-3.49129 -1.55248,-4.8643 0,-2.23774 0.32369,-2.4652 3.12416,-2.19535 2.86862,0.27643 3.14902,0.60357 3.42824,3.9997 0.22569,2.74523 -0.003,3.50943 -0.88432,2.96463 -0.82843,-0.51167 -1.00246,-0.24976 -0.57457,0.86462 0.9682,2.52153 -1.77407,1.92578 -3.54103,-0.7693 z m 8.89504,-1.64457 -0.12654,-4.15335 -0.70819,3.3624 -0.70819,3.36242 -0.12655,-4.02845 c -0.0991,-3.15352 0.33471,-4.35132 1.99719,-5.51506 2.44207,-1.70943 3.33965,-1.11104 4.52401,3.01604 0.9909,3.45292 -0.52405,7.30081 -3.06708,7.79025 -1.34904,0.25965 -1.68168,-0.45504 -1.78465,-3.83425 z m 7.81678,3.16943 c 0,-0.46367 0.64886,-1.38123 1.44193,-2.03899 0.79305,-0.65778 1.44191,-1.64234 1.44191,-2.18791 0,-0.54557 -0.86514,-0.20948 -1.92256,0.74687 -1.88762,1.70722 -1.92255,1.67796 -1.92255,-1.61015 0,-2.55358 0.54898,-3.64258 2.31153,-4.58529 1.27133,-0.67998 2.78535,-0.94368 3.36448,-0.58599 1.78845,1.10466 1.22132,7.0935 -0.86963,9.18314 -2.00775,2.00654 -3.84511,2.52179 -3.84511,1.07832 z m -80.02646,-2.19493 c -1.45392,-0.5307 -2.64352,-1.54597 -2.64352,-2.25615 0,-2.11768 4.84546,-5.27503 8.06019,-5.25209 l 2.99453,0.0215 -2.40321,1.98943 c -1.57368,1.30275 -1.82254,1.80319 -0.72095,1.44982 1.9596,-0.62858 1.98122,-0.55023 0.74475,2.69995 -1.00718,2.6474 -1.91516,2.85026 -6.03179,1.34767 z m 96.29925,-1.41391 c -1.37184,-2.56171 -8.5834,-8.7782 -8.58139,-7.39728 6.5e-4,0.44069 1.08208,2.05733 2.4032,3.59255 3.06666,3.56368 3.09122,5.00871 0.0471,2.77749 -1.29516,-0.94933 -2.62726,-2.9149 -2.96022,-4.36794 -0.33295,-1.45305 -0.9683,-2.64188 -1.41188,-2.64188 -0.79723,0 -4.80841,-5.90481 -4.80841,-7.07838 0,-3.34013 10.05945,4.76155 14.45623,11.64277 2.22924,3.4889 2.78344,3.87459 3.80306,2.64679 0.96662,-1.16398 0.77651,-2.48853 -0.9998,-6.96612 -1.20636,-3.04086 -2.61686,-6.07967 -3.13446,-6.75292 -1.74669,-2.2719 -1.66298,-0.53988 0.17966,3.7175 1.00726,2.32726 2.13399,5.31215 2.50385,6.6331 0.64042,2.28724 0.60836,2.31014 -0.67283,0.48034 -0.73993,-1.05675 -3.15913,-6.09716 -5.37605,-11.20091 -3.82931,-8.81584 -4.93574,-13.2966 -3.28334,-13.2966 1.50322,0 5.02028,3.02832 5.02028,4.32264 0,0.73241 0.82281,2.76136 1.82844,4.5088 1.00564,1.74743 2.80548,6.26293 3.99962,10.03447 l 2.1712,6.85729 -1.93911,2.46368 -1.93911,2.46368 z m -51.43425,-1.34807 c -3.1311,-1.59899 -6.53826,-3.7504 -7.57151,-4.78089 -1.86378,-1.85886 -1.85864,-1.8946 0.65242,-4.53276 4.41522,-4.63873 4.67418,-11.01988 0.50091,-12.3436 -1.13789,-0.36093 -2.66066,-1.24765 -3.38397,-1.97052 -2.14174,-2.14042 -5.64111,-1.55013 -7.8704,1.32761 l -2.04657,2.64188 0.64334,-4.28614 c 0.35383,-2.35739 0.97019,-4.95123 1.36968,-5.76413 0.3995,-0.81288 1.47702,-3.85568 2.3945,-6.76175 0.91749,-2.90607 2.48374,-7.04143 3.48055,-9.18966 0.99682,-2.14824 1.81241,-4.41786 1.81241,-5.04362 0,-0.62574 0.43257,-1.13771 0.96127,-1.13771 0.5287,0 0.96128,-0.67577 0.96128,-1.5017 0,-2.48953 13.75403,-22.57799 19.813,-28.93789 7.47519,-7.84647 19.48266,-17.67008 25.67665,-21.00672 2.73763,-1.47474 5.24621,-3.08311 5.57467,-3.57415 1.26951,-1.89799 24.30168,-10.10948 28.24119,-10.06861 1.0574,0.0109 3.761,-0.30943 6.00799,-0.71198 3.64684,-0.65335 4.08544,-0.53311 4.08544,1.12009 0,4.52628 6.3358,5.5813 12.55146,2.09006 3.49492,-1.96305 3.80538,-1.98623 6.13888,-0.4582 3.85833,2.5265 2.92956,3.4865 -3.37307,3.4865 -6.95478,0 -9.01927,0.94015 -10.33264,4.7054 -0.7585,2.17449 -2.58464,3.62676 -7.9341,6.30982 -3.82184,1.91688 -8.24013,4.43764 -9.81842,5.60171 -4.9125,3.62318 -17.97908,16.46721 -17.98624,17.67989 -0.004,0.63422 -0.58397,1.49884 -1.28941,1.92137 -1.91824,1.14899 -10.38818,14.55328 -11.51549,18.22412 -0.54029,1.7594 -1.30801,3.1989 -1.70598,3.1989 -0.398,0 -1.02929,1.39083 -1.40287,3.09071 -0.37359,1.69989 -1.03148,3.75336 -1.46198,4.56327 -0.99157,1.86546 -4.74048,14.40257 -4.74048,15.85312 0,2.5615 -2.52173,6.2597 -4.27316,6.26672 -1.02848,0.003 -3.07869,1.16482 -4.55605,2.57934 -2.53526,2.42745 -5.30741,2.52561 -2.88236,0.10207 0.62562,-0.62525 1.09474,-2.67152 1.04245,-4.54726 l -0.0951,-3.41044 -1.33831,4.32309 c -0.73609,2.37771 -2.25526,5.07964 -3.37595,6.00429 -2.28775,1.8876 -5.20216,2.29607 -4.14116,0.58042 0.47908,-0.77471 -0.0736,-0.91158 -1.86585,-0.46205 -2.19892,0.55157 -2.54238,0.34119 -2.51599,-1.54109 0.0557,-3.98153 4.27262,-7.46362 9.03839,-7.46362 1.35651,0 2.46639,-0.43231 2.46639,-0.96069 0,-1.75852 -5.43812,-0.9911 -8.74968,1.23474 -3.21489,2.16089 -3.27889,2.34114 -4.06525,11.45367 -0.71989,8.34202 -0.59981,9.70816 1.21326,13.80438 1.10671,2.50036 1.86515,4.69307 1.68543,4.87269 -0.17973,0.17961 -2.88856,-0.9817 -6.01964,-2.58068 z m -22.51527,-0.75742 c 0,-2.61235 0.34451,-3.04952 2.4032,-3.04952 3.03649,0 3.03649,0.99187 0,3.84275 l -2.4032,2.25631 z m 29.87553,-2.82281 c -0.0883,-5.88719 2.67244,-11.04447 6.84453,-12.78595 3.9318,-1.64117 5.60025,-0.5012 1.99991,1.36642 -3.42828,1.77838 -5.50433,4.8468 -4.69876,6.9448 0.28847,0.75128 0.14154,1.36597 -0.3265,1.36597 -0.46807,0 -1.50178,1.8373 -2.29714,4.08291 l -1.44616,4.08293 -0.0758,-5.05708 z m 54.27859,-1.90969 c 0.0436,-6.71163 1.66822,-12.30791 3.28323,-11.31041 1.73542,1.0719 2.19258,7.16564 0.87271,11.63302 -1.13704,3.84855 -1.38219,4.12286 -1.93337,2.16337 -0.54465,-1.93623 -0.64438,-1.81576 -0.72704,0.87821 -0.18617,6.06604 -1.53716,3.02702 -1.49553,-3.36419 z m -96.02111,1.84752 c -2.30093,-2.54094 -1.95609,-4.87677 0.87899,-5.954 3.24403,-1.23262 6.46938,-0.3503 8.89,2.43196 l 1.95879,2.25143 -4.01582,0.68681 c -3.27076,0.55941 -3.65914,0.82771 -2.09328,1.44622 1.59447,0.62979 1.41484,0.77089 -1.0526,0.8269 -1.73205,0.0393 -3.63992,-0.66656 -4.56608,-1.68932 z m 19.57699,-1.2367 c -3.49671,-1.39428 -5.78744,-3.76172 -5.78744,-5.98128 0,-1.83611 0.15721,-1.80511 2.64351,0.5213 1.45395,1.36046 3.57776,2.75501 4.71959,3.09901 1.14184,0.34402 2.60068,1.2572 3.24186,2.02932 0.95304,1.14763 0.83732,1.3927 -0.63415,1.34292 -0.98997,-0.0335 -2.87249,-0.48856 -4.18337,-1.01127 z m -6.74871,-0.84921 c 0,-1.24304 1.63448,-1.24304 2.40318,0 0.32676,0.52838 -0.0803,0.96068 -0.90454,0.96068 -0.82424,0 -1.49864,-0.4323 -1.49864,-0.96068 z m 25.70895,0.39503 c -0.53858,-0.53823 -0.0136,-8.70573 0.68446,-10.64785 0.40267,-1.12045 4.39842,-0.64299 4.33343,0.51782 -0.0187,0.33466 -0.65226,1.68924 -1.40785,3.01019 -0.75558,1.32094 -1.38911,3.3489 -1.40785,4.50657 -0.0343,2.12101 -1.25058,3.5643 -2.20219,2.61327 z m 18.26956,-0.10256 c -1.87063,-0.48187 -2.0446,-1.11567 -0.83138,-3.02888 1.17642,-1.8552 4.43617,-0.9525 4.43617,1.22847 0,1.98393 -0.98425,2.47551 -3.60479,1.80041 z m 8.60652,-1.7638 c -1.69958,-2.33373 -1.68849,-2.38929 0.69251,-3.47347 1.86745,-0.85036 2.75526,-0.82348 3.89008,0.11775 1.8831,1.56189 1.90006,3.86637 0.0285,3.86637 -0.79306,0 -1.44191,0.43231 -1.44191,0.96068 0,1.63946 -1.36522,1.00564 -3.16914,-1.47133 z m 100.92919,0.64133 c -0.6219,-0.7489 -1.19114,-2.56207 -1.26497,-4.02927 -0.1279,-2.54137 0.0308,-2.64234 3.35407,-2.13296 1.91858,0.29408 4.21689,0.90687 5.10736,1.36175 2.47706,1.26535 2.62679,1.07923 2.03986,-2.53537 -0.42016,-2.58749 -0.21457,-3.3624 0.89207,-3.3624 1.65691,0 6.50373,3.58054 6.50373,4.80454 0,1.53437 -3.1248,3.95481 -4.4497,3.4467 -0.75385,-0.2891 -1.31798,0.10863 -1.31798,0.92922 0,3.02712 -8.61192,4.23023 -10.86444,1.51779 z m 3.41454,-2.68831 c -0.66088,-0.26651 -1.74231,-0.26651 -2.40321,0 -0.66087,0.26651 -0.12015,0.48456 1.2016,0.48456 1.32176,0 1.86249,-0.21805 1.20161,-0.48456 z M 626.8743,685.94019 c 2.89605,-3.02095 2.38896,-4.03638 -0.64526,-1.29212 -1.76631,1.59749 -2.35658,0.83828 -1.00269,-1.28967 1.02835,-1.61628 5.68418,-3.23306 7.40729,-2.57225 1.96428,0.7533 1.82764,1.83964 -0.65306,5.19295 -1.51742,2.05113 -2.90645,2.84316 -4.98626,2.84316 h -2.8829 z m 102.97722,-0.11895 c -0.82702,-4.13259 1.89473,-8.68667 5.87309,-9.82694 4.52931,-1.29819 6.28532,-0.32782 4.90109,2.70835 -0.61035,1.33876 -1.53932,2.43411 -2.06437,2.43411 -0.52506,0 -2.56222,1.74025 -4.52705,3.86722 l -3.57239,3.86722 z m -17.29069,-0.47472 c -0.98445,-1.35006 -1.8496,-3.82226 -1.92258,-5.49375 -0.11348,-2.59939 0.22891,-3.08108 2.36657,-3.32918 1.99372,-0.23139 2.83236,0.35161 4.14585,2.88207 l 1.64657,3.17213 -0.59249,-3.64457 c -0.74724,-4.59658 0.11752,-7.40333 2.28098,-7.40333 1.79016,0 4.91966,5.48466 4.91966,8.62208 0,2.59814 -1.99314,3.50188 -3.42055,1.55098 -1.07988,-1.47594 -1.27567,-1.33321 -1.868,1.36202 -0.47502,2.16148 -1.07288,2.85309 -2.11935,2.45176 -1.01577,-0.38954 -1.28865,-0.11882 -0.90019,0.89291 0.94116,2.45104 -2.57488,1.62708 -4.53647,-1.06312 z m -140.48622,-1.3352 c -1.70849,-1.8867 -1.70598,-1.98586 0.0844,-3.33963 2.43285,-1.83967 3.3068,-1.7738 6.17081,0.46507 2.12999,1.66508 2.19323,1.88109 0.55633,1.90001 -1.01577,0.0118 -2.56771,0.67333 -3.44877,1.47018 -1.43715,1.29981 -1.78297,1.24884 -3.36267,-0.49563 z m 11.49845,-0.42917 c -3.98372,-3.98129 -2.56534,-6.97861 2.42733,-5.12941 2.52099,0.93372 3.82567,2.4028 3.84996,4.33509 0.009,0.71612 -0.63845,0.92606 -1.66752,0.54062 -1.47315,-0.55175 -1.51826,-0.4286 -0.36293,0.99084 2.19072,2.69153 -1.44805,2.05992 -4.24684,-0.73714 z m 10.67228,0.22291 c -2.24908,-3.20902 -1.98104,-7.47173 0.46982,-7.47173 2.74062,0 6.68526,4.22563 6.68526,7.16149 0,2.88542 -0.61936,3.0328 -3.21147,0.76417 -1.82945,-1.60115 -1.89172,-1.60115 -1.30744,0 0.86969,2.38342 -0.85584,2.08629 -2.63617,-0.45393 z m 7.72767,-4.10392 c -1.55623,-2.37364 -1.57909,-2.77367 -0.23513,-4.1168 2.1174,-2.11609 4.50294,0.0677 4.35742,3.98884 -0.0781,2.10266 -0.26122,2.42784 -0.61021,1.08323 -0.47537,-1.8315 -0.52887,-1.83728 -1.14353,-0.12375 -0.58405,1.62817 -0.8073,1.54981 -2.36855,-0.83152 z m 33.24279,0.79005 c -4.35461,-1.82449 -3.38948,-3.57444 2.30712,-4.18318 l 4.73184,-0.50565 -4.05015,-0.7737 c -2.22758,-0.42553 -4.49861,-0.49669 -5.04671,-0.15816 -0.5481,0.33854 -0.99656,0.20396 -0.99656,-0.29906 0,-2.64139 6.64181,-2.70121 9.96378,-0.0897 3.54934,2.79017 3.02613,5.22476 -1.31227,6.10647 -0.26435,0.0538 -0.91322,0.35497 -1.44192,0.66943 -0.5287,0.31445 -2.39852,-0.0304 -4.15513,-0.76641 z m 112.76143,0.61609 c -0.36415,-0.58881 -2.04313,-0.7285 -4.14218,-0.34462 l -3.52983,0.64555 1.81419,-2.03832 c 1.76424,-1.98216 7.81197,-3.82377 8.92013,-2.71629 0.80755,0.80705 -0.5244,5.44385 -1.56378,5.44385 -0.48742,0 -1.16175,-0.44558 -1.49853,-0.99017 z m 7.98616,-3.94134 c -0.19975,-0.59882 -3.15568,-1.36474 -6.56875,-1.70206 -5.1919,-0.5131 -5.89155,-0.78394 -4.28304,-1.65797 2.90148,-1.57665 8.02113,-2.33468 8.67097,-1.28388 0.31606,0.51108 1.3613,0.92922 2.32276,0.92922 2.5099,0 4.16998,2.23407 2.72968,3.67348 -1.42467,1.4238 -2.40579,1.43788 -2.87162,0.0411 z m -158.74468,-2.2847 c -1.88652,-1.38123 -1.40612,-3.35135 0.81723,-3.35135 1.81511,0 2.67005,1.61685 1.73426,3.27983 -0.65419,1.16255 -1.04628,1.17355 -2.55149,0.0716 z m 100.96989,-5.07431 c -1.8394,-2.03128 -2.07234,-3.64936 -0.6517,-4.52682 1.64089,-1.0135 4.74728,0.46006 4.16525,1.97587 -0.33003,0.8595 0.0564,1.39185 1.01034,1.39185 0.84961,0 1.54475,0.43231 1.54475,0.96068 0,0.52838 -0.3972,0.96068 -0.88264,0.96068 -0.48547,0 -1.48606,0.23142 -2.22354,0.51423 -0.73747,0.28283 -2.07058,-0.2916 -2.96246,-1.27649 z m 68.90606,0.28906 c -7.37833,-1.60363 -10.96946,-3.44031 -14.17832,-7.25149 -3.37878,-4.01296 -3.28827,-7.19872 0.25652,-9.03069 5.31952,-2.74913 13.32488,-12.76798 15.55614,-19.46879 3.32288,-9.97913 1.20992,-22.02968 -5.37572,-30.65858 -2.95301,-3.86925 -9.98417,-8.67522 -14.96439,-10.22859 -2.07846,-0.64828 -4.01988,-1.93704 -4.31422,-2.8639 -0.9682,-3.04867 -3.97105,-3.80024 -12.38503,-3.0998 -5.21915,0.43449 -8.18003,0.3158 -8.58821,-0.34426 -0.40984,-0.66271 0.49211,-0.8265 2.6363,-0.47877 2.23579,0.36259 4.08666,-0.0132 5.89404,-1.19672 2.37495,-1.55516 2.58721,-2.14675 2.15269,-5.99948 l -0.48207,-4.27418 9.57022,0.65872 c 14.82081,1.02015 30.37989,6.62213 44.61605,16.06387 17.09061,11.33483 24.28548,26.20309 21.8901,45.23602 -1.26958,10.08759 -4.01533,16.03352 -10.58068,22.91236 -8.71535,9.13151 -19.75325,12.62158 -31.70342,10.02428 z m -62.19655,-2.08863 c -1.04449,-1.04382 -0.73075,-4.64955 0.51267,-5.89221 0.63446,-0.63405 2.25662,-1.11868 3.6048,-1.07696 1.3482,0.0416 1.8802,0.30398 1.18223,0.58285 -0.91788,0.36673 -0.70152,0.90427 0.78195,1.9427 1.94797,1.36356 1.96801,1.52731 0.39908,3.25988 -1.62103,1.79014 -5.21679,2.44692 -6.48073,1.18374 z m 14.07581,-4.7739 c -1.27744,-3.32687 3.35218,-7.30855 5.97166,-5.13589 1.49707,1.24167 1.40951,1.51837 -1.12101,3.54209 -2.86529,2.29144 -2.51145,2.91866 0.68273,1.21024 1.06982,-0.57219 1.85936,-0.61583 1.85936,-0.10277 0,2.32446 -6.5222,2.75352 -7.39274,0.48633 z m -20.19417,-0.97974 c -0.39052,-1.01703 0.17645,-2.22773 1.57222,-3.35725 2.12821,-1.72227 4.48811,-1.57518 3.38358,0.21088 -0.30417,0.49186 -0.0279,0.89429 0.61396,0.89429 0.72417,0 0.50679,0.72907 -0.57291,1.92137 -2.1155,2.33617 -4.17449,2.47244 -4.99685,0.33071 z m 35.86668,0.0868 c -0.44327,-1.15446 -0.13215,-1.36261 1.33907,-0.89595 1.0974,0.34806 1.91651,0.16962 1.91651,-0.41755 0,-0.56399 -1.08144,-1.02543 -2.40321,-1.02543 -3.79034,0 -2.80081,-1.68535 1.40665,-2.39577 5.90939,-0.99776 8.00146,1.70857 3.6665,4.74302 -2.73277,1.91293 -5.18913,1.90947 -5.92552,-0.009 z m -22.28378,-1.48409 c -0.92494,-1.49565 0.20405,-2.10228 2.02116,-1.08601 1.44624,0.80886 1.45722,0.96775 0.10287,1.48713 -0.834,0.31985 -1.7898,0.13934 -2.12403,-0.40112 z m 3.2377,-2.96834 c 0.89718,-0.89664 1.40986,-0.89664 2.30706,0 0.89719,0.89664 0.64086,1.15282 -1.15353,1.15282 -1.79441,0 -2.05074,-0.25618 -1.15353,-1.15282 z m -10.14151,-0.44413 c -3.71943,-1.49988 1.80909,-6.74727 6.001,-5.6958 3.15171,0.79054 3.05952,2.09219 -0.23332,3.2941 l -2.64351,0.96491 2.70025,0.0759 c 1.54057,0.0432 2.4451,0.48842 2.10615,1.03652 -0.60818,0.98342 -5.7725,1.1947 -7.93057,0.32444 z m 12.89716,-0.96489 c -1.04446,-1.04382 -0.73074,-4.64955 0.51269,-5.89221 1.78876,-1.78766 3.46197,-1.37638 5.20284,1.27888 1.92477,2.93575 0.97308,4.43285 -1.15775,1.82126 -1.14737,-1.40624 -1.39412,-1.47525 -1.02647,-0.28711 0.7213,2.33103 -1.94958,4.65994 -3.53131,3.07918 z m 15.94122,-1.65755 c 2.29519,-1.74122 2.12866,-2.81179 -0.24033,-1.54473 -1.34788,0.72091 -1.92255,0.72389 -1.92255,0.01 0,-1.29767 4.72951,-3.12713 6.41407,-2.48109 2.8405,1.08932 -0.25078,5.37494 -3.83923,5.32258 -1.94562,-0.0285 -1.97484,-0.1211 -0.41196,-1.30677 z m -21.38846,-4.4268 c -2.27801,-2.27661 -2.53656,-6.54963 -0.44484,-7.35182 3.07445,-1.17905 7.02554,5.18183 4.27427,6.88116 -0.53732,0.33188 -0.72809,1.00587 -0.4239,1.49774 1.0275,1.66151 -1.46853,0.90872 -3.40553,-1.02708 z m 1.8785,-2.00366 c -0.59015,-1.10199 -1.26441,-1.81234 -1.49837,-1.57852 -0.6728,0.67238 0.69113,3.58218 1.67909,3.58218 0.49105,0 0.40979,-0.90094 -0.18072,-2.00366 z m -10.6885,2.31788 c -2.14042,-0.56654 -2.7564,-2.4589 -1.87388,-5.75688 1.32553,-4.95345 6.83877,-3.6413 6.83877,1.62761 0,2.20809 -0.33776,2.58621 -1.93685,2.16831 -1.4894,-0.38925 -1.79875,-0.14654 -1.33907,1.05062 0.32877,0.85625 0.44334,1.50666 0.2546,1.44536 -0.18873,-0.0613 -1.06334,-0.30205 -1.94357,-0.53502 z m 31.46738,-6.93017 c -0.62795,-1.0154 2.12731,-3.51958 2.95849,-2.68891 0.80093,0.80045 -0.35763,3.54075 -1.497,3.54075 -0.5141,0 -1.17176,-0.38333 -1.46149,-0.85184 z m -3.03718,-1.89633 c 1.01012,-1.13688 1.61248,-2.29101 1.33861,-2.56473 -0.2739,-0.27371 -1.04516,0.16124 -1.71395,0.96657 -1.65443,1.99225 -4.08376,1.87108 -3.68778,-0.18394 0.45933,-2.38358 5.20947,-4.88155 6.61385,-3.47804 1.49906,1.49813 0.24953,4.89701 -2.28949,6.22773 -2.08416,1.0923 -2.08584,1.08603 -0.26124,-0.96759 z m 4.68642,-5.65785 c -2.05786,-2.08983 -2.06485,-2.16155 -0.21013,-2.16155 1.05511,0 2.16189,0.6342 2.45952,1.40934 0.99001,2.57833 -0.0941,2.94088 -2.24939,0.75221 z m -37.2716,-3.10239 c -0.78402,-1.26777 1.2044,-4.83415 2.66505,-4.77996 0.64227,0.0237 2.46552,0.62262 4.05161,1.33063 l 2.88384,1.2873 -3.57392,1.55144 c -4.1418,1.79795 -5.22447,1.90764 -6.02658,0.61059 z m 43.00495,0.25591 c -1.18959,-0.22517 -2.16288,-0.77627 -2.16288,-1.22468 0,-0.44843 -0.22713,-1.40683 -0.50474,-2.12981 -0.37114,-0.96655 0.53511,-1.35594 3.42364,-1.47105 3.707,-0.14775 3.9115,-0.0146 3.6289,2.3627 -0.32205,2.70906 -1.01823,3.10008 -4.38492,2.46284 z m -47.69398,-7.07029 c -4.00119,-3.1454 -2.89812,-5.6944 2.46423,-5.6944 1.57299,0 1.86518,0.47477 1.49222,2.42464 -0.25509,1.33355 -0.0892,2.656 0.36858,2.93876 0.45781,0.28278 0.83235,0.92092 0.83235,1.41811 0,1.53069 -2.49685,1.00438 -5.15738,-1.08711 z m 14.77016,0.65285 c 0,-1.69625 3.3575,-2.14885 4.32577,-0.58313 0.32676,0.52838 0.17137,0.96069 -0.3453,0.96069 -0.51665,0 -1.62363,0.2624 -2.45991,0.58313 -0.9978,0.38265 -1.52056,0.0523 -1.52056,-0.96069 z m -7.58998,-0.50088 c -2.22424,-1.40753 -0.45821,-3.925 2.75343,-3.925 3.14522,0 3.97888,1.50239 1.23177,2.21983 -1.55467,0.40603 -1.55038,0.4478 0.0566,0.55081 2.16624,0.13881 1.15468,2.03826 -1.07473,2.01808 -0.89404,-0.008 -2.22926,-0.39677 -2.96719,-0.86372 z m 42.72552,-0.40808 c -1.64848,-1.20466 -1.65465,-1.32712 -0.097,-1.9245 0.91494,-0.35088 2.02719,-0.41335 2.47164,-0.13882 0.44447,0.27451 1.07983,0.0598 1.41192,-0.47725 0.56855,-0.91939 -2.55343,-1.46865 -6.47895,-1.13989 -1.97476,0.16539 -2.16837,-0.87965 -0.48064,-2.59435 0.96882,-0.98432 0.68951,-1.09443 -1.44191,-0.56834 -3.35335,0.82766 -3.46696,-0.7416 -0.28402,-3.92258 2.39984,-2.39836 6.64696,-3.15506 7.74476,-1.37985 0.33273,0.53801 -0.32589,2.48341 -1.46359,4.3231 -2.27928,3.68569 -1.99916,4.07589 1.35112,1.88205 1.22867,-0.80455 2.94375,-1.19061 3.8113,-0.8579 2.38625,0.91512 1.9205,4.75712 -0.79201,6.53334 -2.87669,1.88371 -3.49833,1.91235 -5.75264,0.26499 z m -35.13554,-4.5343 c 0,-0.55957 -0.38724,-0.77819 -0.86055,-0.48585 -0.92572,0.57177 -2.02328,-1.57738 -2.02328,-3.9619 0,-0.90774 0.54862,-1.25484 1.44193,-0.91226 0.86953,0.33345 1.4419,0.005 1.4419,-0.82776 0,-0.83263 -0.57237,-1.16122 -1.4419,-0.82776 -1.9453,0.74602 -1.84562,-1.54747 0.13,-2.99119 1.73261,-1.26614 6.40891,-0.7906 5.56974,0.5664 -0.28939,0.46796 0.1945,0.85084 1.07532,0.85084 1.06542,0 1.40619,0.50867 1.01801,1.51961 -0.32091,0.83577 -0.58349,1.70039 -0.58349,1.92136 0,0.22097 -1.08143,0.40177 -2.40318,0.40177 -1.32177,0 -2.4032,0.43231 -2.4032,0.96068 0,1.26277 2.51661,1.2247 4.94626,-0.0748 1.7062,-0.91257 1.89839,-0.77119 1.61903,1.19105 -0.35981,2.52735 -3.4993,3.59748 -4.75315,1.62017 -0.63598,-1.00293 -0.82476,-0.91582 -0.83615,0.38583 -0.008,0.92465 -0.4473,1.68119 -0.97599,1.68119 -0.52871,0 -0.9613,-0.45782 -0.9613,-1.01738 z m -9.75593,-1.55672 c -0.93661,-1.12784 -0.89501,-1.59223 0.20496,-2.28784 2.35701,-1.49052 4.7446,-1.03403 4.7446,0.90715 0,2.29882 -3.3996,3.24713 -4.94956,1.38069 z m 50.80381,-3.82795 c 0.38232,-0.9957 0.23089,-1.3621 -0.40151,-0.9715 -0.55845,0.34492 -1.24697,-0.25807 -1.53009,-1.34 -0.4323,-1.65212 -0.11897,-1.91961 1.95664,-1.67038 3.19715,0.38386 5.1956,3.32663 3.14591,4.63244 -2.28365,1.4549 -3.85554,1.13238 -3.17095,-0.65056 z m -17.90484,-1.28344 c -0.0345,-1.32094 0.96537,-3.68593 2.22196,-5.25552 1.97572,-2.46779 2.49517,-2.67928 3.84035,-1.56358 2.19179,1.81791 1.93339,4.20809 -0.72475,6.70375 -2.13329,2.00289 -2.32592,2.02916 -2.98702,0.40763 -0.66263,-1.62526 -0.75596,-1.61354 -1.49722,0.18806 -0.71956,1.74892 -0.79616,1.70579 -0.85332,-0.48034 z m -7.89164,-0.63956 c -0.72207,-0.96919 -2.61057,-1.91424 -4.19668,-2.10013 -3.98738,-0.4673 -6.24563,-1.82979 -6.26303,-3.77875 -0.0125,-1.38912 -0.15494,-1.42583 -0.90901,-0.23419 -0.49185,0.77726 -1.17823,1.12945 -1.52526,0.78264 -0.34701,-0.34682 0.062,-1.61933 0.90902,-2.82783 0.94203,-1.34412 1.53997,-1.66665 1.53997,-0.83067 0,1.06289 0.25634,1.1104 1.15352,0.21376 2.05667,-2.05539 2.95521,-1.22716 2.39717,2.20957 -0.30029,1.84932 -0.16976,3.36241 0.29008,3.36241 1.47459,0 2.00777,-3.5051 0.95438,-6.27402 -1.19212,-3.13359 -0.10491,-4.76476 2.60326,-3.90576 1.21941,0.3868 2.5202,2.7179 3.92331,7.0309 2.09993,6.45484 1.64663,9.73903 -0.87673,6.35207 z m 18.39337,-3.52341 c 0,-0.79257 -0.54072,-1.63918 -1.2016,-1.88136 -0.92648,-0.3395 -0.94126,-0.71698 -0.0646,-1.64864 1.67993,-1.78535 4.34169,-0.38694 3.97715,2.08947 -0.35065,2.38197 -2.71095,3.63616 -2.71095,1.44053 z m -39.41244,-5.44391 c 0,-2.71626 3.38266,-5.76412 6.39732,-5.76412 2.41161,0 2.46456,0.0967 0.96128,1.75685 -1.9855,2.1926 -2.09305,3.69833 -0.149,2.0859 1.17871,-0.97763 1.44192,-0.91759 1.44192,0.32891 0,1.87485 -2.88498,3.51383 -6.18512,3.51383 -1.82553,0 -2.4664,-0.49922 -2.4664,-1.92137 z m 10.57408,-4.24303 c 0,-0.8366 0.68491,-1.52109 1.52203,-1.52109 1.69755,0 1.4019,2.06813 -0.38051,2.6619 -0.62784,0.20915 -1.14152,-0.30421 -1.14152,-1.14081 z m 21.07055,-1.90801 c 0.67228,-0.80955 0.7461,-1.48079 0.18488,-1.68119 -0.52479,-0.18741 -0.3204,-1.16635 0.46638,-2.23376 1.11556,-1.51346 1.73769,-1.68303 3.05697,-0.83327 2.99243,1.92748 0.94075,6.04869 -3.0274,6.08111 -1.43595,0.0118 -1.57363,-0.25779 -0.68083,-1.33289 z m -32.92633,-1.21423 c -1.28295,-1.28215 -0.57827,-2.10267 2.35966,-2.74756 1.77628,-0.38989 3.19476,-1.40094 3.4766,-2.47803 0.50828,-1.94251 2.17441,-2.52779 2.17441,-0.76385 0,1.14136 -5.52208,6.6299 -6.67041,6.6299 -0.38467,0 -0.98779,-0.28821 -1.34026,-0.64046 z m 26.01734,-1.52943 c -0.89136,-2.31789 0.7116,-6.13735 3.11531,-7.42299 2.85753,-1.52837 4.09328,-0.34306 3.33589,3.19971 -1.10567,5.17204 -4.18047,7.4752 -4.36686,3.27095 -0.0909,-2.05202 -0.12973,-2.03986 -0.7652,0.24017 -0.5689,2.04112 -0.76696,2.14805 -1.31914,0.71216 z m -31.46457,-3.16159 c 0,-2.73811 2.78272,-6.90678 5.00821,-7.50257 3.20476,-0.85795 3.84128,-0.75225 3.06168,0.50839 -0.46735,0.7557 -0.171,0.92296 0.90456,0.51048 2.35061,-0.90146 2.10927,3.62034 -0.32295,6.05106 -2.38825,2.38678 -8.6515,2.69999 -8.6515,0.43264 z m 39.9959,-1.95224 c -0.86075,-2.24171 -0.79695,-2.32315 1.81971,-2.32315 1.76235,0 2.4032,0.51236 2.4032,1.92138 0,2.33674 -3.35728,2.65616 -4.22291,0.40177 z m -25.86726,-2.93373 c -1.54966,-1.54872 -0.57408,-2.94725 1.74667,-2.5039 2.37389,0.45353 4.36669,2.15379 2.52433,2.15379 -0.51666,0 -1.53807,0.22959 -2.26983,0.51023 -0.73173,0.28061 -1.63226,0.20856 -2.00117,-0.16012 z m 6.2125,-2.79702 c -1.46467,-3.2126 -1.42186,-7.63134 0.086,-8.882 0.92135,-0.76419 1.23134,-0.17547 1.32915,2.52425 0.0701,1.93649 0.445,4.70973 0.83302,6.16277 0.89469,3.35045 -0.74475,3.49263 -2.24818,0.19498 z m 9.45849,-1.49998 c 0,-0.64492 -0.91176,-0.83614 -2.31201,-0.48492 -1.95689,0.49086 -2.23496,0.28552 -1.81042,-1.33688 0.28001,-1.07015 0.0274,-1.9168 -0.57185,-1.9168 -0.59038,0 -1.08002,0.75655 -1.08811,1.68121 -0.0125,1.43674 -0.15021,1.47166 -0.94655,0.24016 -1.53342,-2.37131 -1.10191,-4.37122 1.5632,-7.24517 2.45512,-2.64746 2.56253,-2.67114 3.90802,-0.86081 0.77192,1.03861 1.22857,3.24177 1.03301,4.98374 -0.39042,3.47764 0.87472,4.37168 1.35945,0.9607 0.19742,-1.38912 1.08009,-2.27125 2.47005,-2.46854 1.74777,-0.24806 2.16288,0.15363 2.16288,2.09293 0,2.64296 -2.25124,5.41922 -4.39442,5.41922 -0.75527,0 -1.37325,-0.47917 -1.37325,-1.06484 z m -32.6452,-3.21215 c -2.48161,-2.98832 2.31291,-8.21194 7.53736,-8.21194 1.23908,0 2.01065,-0.75103 2.21061,-2.15174 0.43735,-3.06354 3.2107,-3.19973 6.11208,-0.30011 1.83927,1.83813 2.31386,3.04159 1.82561,4.62938 -0.90492,2.94282 -1.12451,3.07488 -2.80088,1.68449 -1.00196,-0.83104 -1.46516,-0.87433 -1.46516,-0.13691 0,1.65215 -1.76534,1.28379 -3.48897,-0.72803 -1.51474,-1.76803 -1.58597,-1.76803 -3.35508,0 -2.18142,2.18008 -2.30305,2.8968 -0.36554,2.15376 0.79306,-0.30414 2.19893,-0.25844 3.12417,0.10151 1.51809,0.59065 1.46081,0.83501 -0.58714,2.5045 -2.68442,2.18836 -7.11621,2.41892 -8.74706,0.45509 z m 18.78688,-1.14431 c -0.80477,-2.09587 0.26375,-3.07006 1.39924,-1.2757 1.13676,1.79636 1.16095,2.85424 0.0653,2.85424 -0.47214,0 -1.13119,-0.71033 -1.46454,-1.57854 z m 15.07052,-5.10172 c -0.82192,-1.31533 -0.86351,-2.06789 -0.13899,-2.51539 1.35694,-0.83812 4.15008,1.98018 3.30957,3.33934 -0.94743,1.532 -1.84394,1.29901 -3.17058,-0.82395 z m -14.54187,-1.45835 c -2.30198,-5.45852 2.42272,-10.1614 4.85306,-4.83066 0.84525,1.85394 0.80279,3.00428 -0.18611,5.04361 l -1.28109,2.64189 -0.63755,-2.88207 -0.63751,-2.88205 -0.45343,2.88205 -0.45341,2.88207 z m -20.73496,-1.99073 c -2.23817,-3.41379 -1.3162,-5.24165 2.64391,-5.24165 3.20513,0 6.42747,2.32566 6.42747,4.63892 0,1.49135 -3.13631,1.44083 -4.69447,-0.0756 -0.99418,-0.96759 -1.17159,-0.84698 -0.91321,0.62085 0.49655,2.82097 -1.62877,2.85627 -3.4637,0.0575 z m 17.7229,-4.11458 c 0,-0.43686 -1.29775,-0.60396 -2.88385,-0.37131 -2.58404,0.37903 -2.88382,0.15887 -2.88382,-2.11791 0,-3.16845 2.37705,-4.19742 4.74636,-2.05454 1.99327,1.80277 3.24671,5.33807 1.89259,5.33807 -0.47921,0 -0.87128,-0.35744 -0.87128,-0.79431 z"
       id="path1287"
       transform="matrix(1.1904762,0,0,1.1904762,-835.69895,-504.00469)" />
  </g>
</svg>
