
<svg xmlns="http://www.w3.org/2000/svg" xmlns:xlink="http://www.w3.org/1999/xlink" width="250px" height="250px" viewBox="0 0 250 250" version="1.1">
<defs>
<linearGradient id="linear0" gradientUnits="userSpaceOnUse" x1="1.132539" y1="0.96993" x2="1.0724" y2="-0.03007" gradientTransform="matrix(250,0,0,250,0,0)">
<stop offset="0" style="stop-color:rgb(90.588236%,72.156864%,29.019609%);stop-opacity:1;"/>
<stop offset="0.449606" style="stop-color:rgb(100%,90.980393%,80.784315%);stop-opacity:1;"/>
<stop offset="1" style="stop-color:rgb(90.588236%,72.156864%,29.019609%);stop-opacity:1;"/>
</linearGradient>
</defs>
<g id="surface1">
<path style=" stroke:none;fill-rule:evenodd;fill:url(#linear0);" d="M 250 125.125 C 250 144.847656 245.417969 163.515625 237.25 180.132812 C 237.21875 180.199219 237.183594 180.261719 237.152344 180.328125 C 236.957031 180.707031 236.769531 181.078125 236.769531 181.351562 C 236.6875 181.511719 236.601562 181.679688 236.511719 181.847656 C 236.425781 182.015625 236.335938 182.183594 236.257812 182.34375 C 226.324219 201.523438 212.070312 217.117188 195.25 228.449219 C 195.15625 228.515625 195.027344 228.609375 194.929688 228.675781 C 194.765625 228.785156 194.601562 228.894531 194.4375 229.003906 C 194.039062 229.277344 193.644531 229.546875 193.230469 229.796875 C 192.765625 230.082031 192.3125 230.371094 191.855469 230.660156 C 191.398438 230.949219 190.941406 231.238281 190.476562 231.523438 C 190.476562 231.554688 190.445312 231.554688 190.414062 231.589844 C 171.414062 243.277344 149.054688 250 125.15625 250 C 122.847656 250 120.542969 249.9375 118.234375 249.808594 C 118.09375 249.792969 117.941406 249.785156 117.789062 249.777344 C 117.636719 249.765625 117.484375 249.761719 117.339844 249.742188 C 116.570312 249.710938 115.769531 249.648438 115 249.582031 C 114.804688 249.570312 114.601562 249.546875 114.394531 249.523438 C 114.160156 249.5 113.925781 249.472656 113.6875 249.457031 C 113.015625 249.390625 112.375 249.328125 111.734375 249.261719 C 111.273438 249.234375 110.835938 249.179688 110.378906 249.121094 C 110.332031 249.117188 110.277344 249.109375 110.226562 249.101562 C 109.921875 249.070312 109.625 249.03125 109.328125 248.992188 C 109.035156 248.953125 108.738281 248.910156 108.433594 248.878906 C 108.175781 248.847656 107.921875 248.808594 107.664062 248.765625 C 107.40625 248.726562 107.152344 248.6875 106.894531 248.65625 C 106.605469 248.605469 106.3125 248.558594 106.015625 248.511719 C 105.71875 248.464844 105.421875 248.414062 105.132812 248.367188 C 104.878906 248.320312 104.621094 248.277344 104.363281 248.238281 C 104.109375 248.199219 103.851562 248.160156 103.59375 248.109375 C 103.308594 248.054688 103.023438 248 102.746094 247.953125 C 102.40625 247.890625 102.074219 247.828125 101.738281 247.757812 C 101.324219 247.703125 100.9375 247.625 100.535156 247.542969 C 100.464844 247.53125 100.398438 247.515625 100.328125 247.503906 C 99.625 247.375 98.886719 247.214844 98.179688 247.054688 C 97.796875 246.988281 97.445312 246.925781 97.09375 246.828125 C 96.003906 246.574219 94.914062 246.316406 93.855469 246.03125 C 93.75 246.011719 93.652344 245.984375 93.558594 245.957031 C 93.484375 245.933594 93.414062 245.914062 93.34375 245.902344 L 93.339844 245.898438 C 92.410156 245.644531 91.484375 245.386719 90.589844 245.132812 C 90.238281 245.035156 89.914062 244.941406 89.597656 244.84375 C 89.226562 244.734375 88.851562 244.621094 88.472656 244.507812 C 88.097656 244.394531 87.722656 244.285156 87.351562 244.171875 C 87.046875 244.09375 86.761719 244 86.460938 243.898438 C 86.386719 243.871094 86.308594 243.847656 86.230469 243.820312 C 85.527344 243.59375 84.820312 243.371094 84.117188 243.117188 C 83.925781 243.050781 83.734375 242.980469 83.539062 242.90625 C 83.347656 242.835938 83.15625 242.761719 82.964844 242.699219 C 82.628906 242.570312 82.285156 242.441406 81.9375 242.316406 C 81.59375 242.1875 81.25 242.058594 80.914062 241.929688 C 80.753906 241.867188 80.59375 241.8125 80.441406 241.753906 C 80.199219 241.667969 79.964844 241.582031 79.730469 241.484375 C 79.054688 241.226562 78.382812 240.96875 77.710938 240.683594 C 77.519531 240.601562 77.316406 240.523438 77.117188 240.441406 C 76.917969 240.363281 76.71875 240.28125 76.523438 240.203125 C 76.21875 240.074219 75.925781 239.9375 75.628906 239.800781 C 75.332031 239.664062 75.035156 239.53125 74.730469 239.402344 C 73.578125 238.921875 72.425781 238.378906 71.273438 237.832031 L 71.269531 237.832031 C 71.207031 237.800781 71.136719 237.769531 71.0625 237.738281 C 70.992188 237.703125 70.917969 237.671875 70.855469 237.640625 C 70.566406 237.511719 70.308594 237.382812 70.054688 237.257812 C 69.734375 237.128906 69.445312 236.96875 69.15625 236.808594 C 67.941406 236.199219 66.691406 235.558594 65.472656 234.886719 C 64.640625 234.4375 63.808594 233.957031 62.972656 233.476562 C 62.882812 233.410156 62.792969 233.359375 62.691406 233.300781 C 62.648438 233.277344 62.605469 233.25 62.558594 233.222656 C 40.835938 220.734375 23.664062 202.324219 12.773438 179.972656 C 12.660156 179.75 12.550781 179.515625 12.4375 179.285156 C 12.324219 179.054688 12.210938 178.820312 12.101562 178.597656 C 11.75 177.859375 11.398438 177.09375 11.042969 176.324219 C 10.339844 174.820312 9.699219 173.3125 9.089844 171.777344 C 9.058594 171.679688 9.015625 171.585938 8.976562 171.488281 C 8.9375 171.394531 8.898438 171.296875 8.863281 171.199219 C 6.621094 165.597656 4.765625 159.738281 3.355469 153.75 C 3.339844 153.71875 3.332031 153.679688 3.324219 153.636719 C 3.316406 153.597656 3.308594 153.558594 3.289062 153.527344 C 2.90625 151.859375 2.554688 150.195312 2.234375 148.5 C 2.167969 148.164062 2.113281 147.828125 2.058594 147.492188 C 2 147.152344 1.945312 146.816406 1.882812 146.480469 C 1.6875 145.425781 1.527344 144.367188 1.367188 143.3125 C -0.9375 127.847656 -0.328125 112.222656 3.195312 97.042969 C 3.226562 96.882812 3.265625 96.714844 3.308594 96.546875 C 3.347656 96.378906 3.386719 96.210938 3.417969 96.050781 C 3.769531 94.578125 4.125 93.105469 4.539062 91.664062 C 4.859375 90.449219 5.214844 89.230469 5.597656 88.015625 C 5.757812 87.4375 5.949219 86.863281 6.140625 86.285156 C 6.621094 84.78125 7.136719 83.308594 7.679688 81.867188 C 7.742188 81.691406 7.816406 81.515625 7.886719 81.339844 C 7.960938 81.164062 8.03125 80.984375 8.097656 80.808594 C 8.671875 79.210938 9.3125 77.640625 9.988281 76.070312 C 10.050781 75.910156 10.121094 75.75 10.195312 75.589844 C 10.265625 75.429688 10.339844 75.269531 10.402344 75.109375 C 11.074219 73.574219 11.75 72.070312 12.484375 70.5625 C 12.535156 70.46875 12.574219 70.378906 12.613281 70.292969 C 12.652344 70.203125 12.695312 70.117188 12.742188 70.019531 C 12.871094 69.699219 13.03125 69.410156 13.191406 69.125 C 13.796875 67.875 14.4375 66.65625 15.113281 65.441406 C 15.351562 65.023438 15.585938 64.609375 15.816406 64.191406 C 16.050781 63.777344 16.28125 63.359375 16.523438 62.945312 C 16.566406 62.828125 16.628906 62.730469 16.699219 62.625 C 16.722656 62.582031 16.75 62.539062 16.777344 62.496094 C 29.273438 40.816406 47.691406 23.65625 70.023438 12.769531 C 70.503906 12.511719 70.984375 12.289062 71.464844 12.066406 C 71.832031 11.90625 72.199219 11.730469 72.570312 11.554688 C 72.9375 11.375 73.304688 11.199219 73.671875 11.039062 C 75.179688 10.335938 76.71875 9.695312 78.289062 9.054688 C 78.382812 9.023438 78.472656 8.984375 78.558594 8.941406 C 78.648438 8.902344 78.734375 8.863281 78.832031 8.832031 C 84.46875 6.589844 90.332031 4.734375 96.355469 3.324219 C 96.367188 3.324219 96.386719 3.316406 96.410156 3.3125 C 96.441406 3.304688 96.476562 3.292969 96.515625 3.292969 C 98.179688 2.90625 99.878906 2.554688 101.578125 2.234375 C 101.90625 2.164062 102.246094 2.105469 102.585938 2.046875 C 102.878906 1.992188 103.171875 1.941406 103.46875 1.882812 C 104.011719 1.804688 104.566406 1.714844 105.117188 1.625 C 105.667969 1.539062 106.222656 1.449219 106.765625 1.371094 C 131.625 -2.34375 157 1.5 180.035156 12.800781 L 160.8125 52.058594 C 149.472656 46.484375 137.296875 43.730469 125.027344 43.765625 C 120.925781 43.765625 116.921875 44.085938 112.980469 44.660156 C 112.832031 44.691406 112.683594 44.714844 112.539062 44.734375 C 112.371094 44.761719 112.207031 44.785156 112.054688 44.820312 C 111.15625 44.949219 110.226562 45.109375 109.328125 45.300781 C 109.042969 45.363281 108.746094 45.429688 108.449219 45.492188 C 108.152344 45.558594 107.855469 45.621094 107.566406 45.683594 C 107.246094 45.765625 106.933594 45.835938 106.621094 45.910156 C 106.308594 45.980469 106 46.054688 105.679688 46.132812 C 105.550781 46.164062 105.421875 46.199219 105.292969 46.230469 C 104.644531 46.390625 103.980469 46.554688 103.339844 46.742188 C 103.113281 46.804688 102.882812 46.871094 102.652344 46.933594 C 102.417969 46.996094 102.1875 47.0625 101.960938 47.125 C 101.097656 47.382812 100.230469 47.636719 99.398438 47.925781 C 99.175781 48.007812 98.957031 48.078125 98.742188 48.152344 C 98.527344 48.222656 98.308594 48.292969 98.085938 48.375 C 97.347656 48.632812 96.578125 48.917969 95.84375 49.207031 C 95.71875 49.257812 95.589844 49.304688 95.464844 49.355469 C 95.003906 49.53125 94.53125 49.710938 94.082031 49.910156 C 93.6875 50.058594 93.316406 50.222656 92.933594 50.394531 C 92.8125 50.445312 92.695312 50.5 92.574219 50.550781 C 91.710938 50.902344 90.84375 51.289062 90.011719 51.703125 C 89.933594 51.738281 89.851562 51.777344 89.773438 51.816406 C 89.691406 51.855469 89.613281 51.898438 89.53125 51.929688 C 74.25 59.359375 61.628906 71.429688 53.523438 86.316406 C 53.507812 86.332031 53.5 86.359375 53.492188 86.382812 C 53.484375 86.40625 53.476562 86.429688 53.460938 86.445312 C 52.882812 87.535156 52.339844 88.621094 51.792969 89.710938 C 51.695312 89.902344 51.609375 90.105469 51.519531 90.304688 C 51.433594 90.503906 51.34375 90.703125 51.25 90.894531 C 50.863281 91.695312 50.511719 92.496094 50.160156 93.296875 C 50.0625 93.523438 49.976562 93.746094 49.886719 93.96875 C 49.800781 94.195312 49.710938 94.417969 49.613281 94.644531 C 49.507812 94.910156 49.398438 95.175781 49.289062 95.441406 C 49.066406 95.976562 48.847656 96.511719 48.652344 97.042969 C 48.605469 97.1875 48.558594 97.324219 48.507812 97.460938 C 48.460938 97.597656 48.414062 97.734375 48.367188 97.875 C 45.320312 106.363281 43.65625 115.519531 43.65625 125.0625 C 43.65625 129.160156 43.976562 133.195312 44.554688 137.132812 C 44.570312 137.261719 44.59375 137.394531 44.617188 137.53125 C 44.640625 137.667969 44.664062 137.804688 44.679688 137.933594 C 44.839844 138.894531 45 139.855469 45.195312 140.78125 C 45.289062 141.328125 45.417969 141.902344 45.546875 142.445312 C 45.652344 143.011719 45.785156 143.550781 45.917969 144.105469 C 45.941406 144.214844 45.96875 144.324219 45.996094 144.433594 C 46.109375 144.949219 46.25 145.484375 46.394531 146.011719 C 46.453125 146.234375 46.515625 146.457031 46.570312 146.675781 C 46.644531 146.964844 46.726562 147.242188 46.808594 147.515625 C 46.871094 147.726562 46.933594 147.9375 46.988281 148.148438 C 47.132812 148.675781 47.300781 149.195312 47.46875 149.714844 C 47.566406 150.011719 47.664062 150.308594 47.757812 150.613281 C 47.917969 151.09375 48.078125 151.574219 48.238281 152.019531 C 48.492188 152.757812 48.75 153.460938 49.039062 154.199219 C 49.167969 154.503906 49.285156 154.808594 49.40625 155.109375 C 49.527344 155.414062 49.648438 155.71875 49.773438 156.023438 C 49.871094 156.261719 49.976562 156.503906 50.078125 156.742188 C 50.183594 156.984375 50.289062 157.222656 50.382812 157.464844 C 50.769531 158.359375 51.152344 159.226562 51.570312 160.089844 C 51.664062 160.21875 51.730469 160.347656 51.792969 160.507812 C 59.226562 175.8125 71.335938 188.425781 86.265625 196.527344 C 87.351562 197.136719 88.472656 197.710938 89.597656 198.257812 C 89.914062 198.425781 90.238281 198.570312 90.558594 198.710938 C 90.71875 198.78125 90.878906 198.855469 91.039062 198.929688 C 91.773438 199.28125 92.480469 199.601562 93.214844 199.921875 C 93.792969 200.171875 94.386719 200.402344 94.972656 200.628906 C 95.136719 200.691406 95.296875 200.753906 95.457031 200.816406 C 95.9375 201.011719 96.417969 201.203125 96.933594 201.394531 C 97.957031 201.777344 98.980469 202.132812 100.007812 202.453125 C 100.230469 202.546875 100.488281 202.644531 100.746094 202.707031 C 101.960938 203.089844 103.179688 203.445312 104.429688 203.765625 C 104.460938 203.78125 104.492188 203.789062 104.523438 203.796875 C 104.554688 203.804688 104.589844 203.8125 104.621094 203.828125 C 105.679688 204.085938 106.765625 204.339844 107.824219 204.566406 C 108.039062 204.589844 108.226562 204.640625 108.433594 204.691406 C 108.476562 204.703125 108.519531 204.714844 108.5625 204.726562 C 108.882812 204.789062 109.210938 204.84375 109.539062 204.902344 C 109.867188 204.957031 110.195312 205.011719 110.515625 205.078125 C 110.851562 205.125 111.1875 205.1875 111.523438 205.253906 C 111.859375 205.316406 112.199219 205.382812 112.535156 205.429688 C 113.109375 205.523438 113.6875 205.589844 114.261719 205.652344 C 114.53125 205.6875 114.792969 205.722656 115.058594 205.761719 C 115.546875 205.832031 116.035156 205.898438 116.539062 205.941406 C 116.886719 205.972656 117.242188 206 117.601562 206.023438 C 117.9375 206.046875 118.28125 206.070312 118.621094 206.101562 C 119.230469 206.164062 119.871094 206.230469 120.511719 206.261719 C 121.089844 206.304688 121.683594 206.320312 122.28125 206.332031 C 122.574219 206.339844 122.871094 206.347656 123.167969 206.359375 C 123.378906 206.359375 123.59375 206.367188 123.808594 206.375 C 124.027344 206.382812 124.242188 206.390625 124.449219 206.390625 C 125.605469 206.390625 126.757812 206.359375 127.910156 206.324219 L 128.296875 206.324219 C 140.050781 205.8125 151.554688 202.769531 161.964844 197.457031 C 161.988281 197.445312 162.007812 197.4375 162.027344 197.429688 C 162.054688 197.417969 162.074219 197.410156 162.09375 197.390625 C 163.085938 196.910156 164.046875 196.367188 165.007812 195.824219 L 165.96875 195.246094 C 166.640625 194.863281 167.316406 194.480469 167.957031 194.0625 C 168.261719 193.871094 168.5625 193.671875 168.867188 193.46875 C 169.171875 193.269531 169.476562 193.070312 169.78125 192.878906 C 169.957031 192.765625 170.132812 192.644531 170.308594 192.527344 C 170.488281 192.40625 170.664062 192.285156 170.839844 192.171875 C 171.703125 191.566406 172.570312 190.957031 173.433594 190.316406 C 173.464844 190.285156 173.507812 190.261719 173.546875 190.234375 C 173.585938 190.210938 173.625 190.1875 173.660156 190.15625 C 182.980469 183.175781 190.765625 174.210938 196.371094 163.933594 C 196.417969 163.835938 196.476562 163.730469 196.53125 163.628906 C 196.585938 163.523438 196.644531 163.417969 196.691406 163.324219 C 202.8125 151.925781 206.269531 138.925781 206.269531 125.125 Z M 206.269531 80.492188 L 161.613281 80.492188 L 161.613281 125.125 L 206.269531 125.125 Z M 206.269531 80.492188 "/>
</g>
</svg>
