<?xml version="1.0" encoding="UTF-8"?>
<!DOCTYPE svg PUBLIC "-//W3C//DTD SVG 1.1//EN" "http://www.w3.org/Graphics/SVG/1.1/DTD/svg11.dtd">
<svg xmlns="http://www.w3.org/2000/svg" version="1.1" width="200px" height="200px" style="shape-rendering:geometricPrecision; text-rendering:geometricPrecision; image-rendering:optimizeQuality; fill-rule:evenodd; clip-rule:evenodd" xmlns:xlink="http://www.w3.org/1999/xlink">
<g><path style="opacity:0.992" fill="#27dcda" d="M 94.5,-0.5 C 94.8333,-0.5 95.1667,-0.5 95.5,-0.5C 95.8333,0.833333 96.1667,0.833333 96.5,-0.5C 98.1667,-0.5 99.8333,-0.5 101.5,-0.5C 104.109,2.08954 106.275,5.08954 108,8.5C 109.675,10.5912 110.175,12.7579 109.5,15C 110.715,17.0955 111.549,16.9288 112,14.5C 113.949,16.9837 114.616,19.6504 114,22.5C 116.149,21.1602 117.316,21.8269 117.5,24.5C 119.22,25.7507 119.553,27.2507 118.5,29C 119.715,31.0955 120.549,30.9288 121,28.5C 122.728,32.9196 125.062,36.9196 128,40.5C 127.773,42.5741 127.939,44.5741 128.5,46.5C 128.058,47.7387 127.391,48.7387 126.5,49.5C 125.452,47.0673 124.786,47.0673 124.5,49.5C 123.508,49.3284 122.842,49.6618 122.5,50.5C 121.167,50.8333 121.167,51.1667 122.5,51.5C 121.811,52.7736 120.977,52.7736 120,51.5C 119.536,52.0944 119.369,52.7611 119.5,53.5C 118.508,53.3284 117.842,53.6618 117.5,54.5C 116.508,54.3284 115.842,54.6618 115.5,55.5C 114.167,55.8333 114.167,56.1667 115.5,56.5C 114.811,57.7736 113.977,57.7736 113,56.5C 111.955,57.3734 111.122,58.3734 110.5,59.5C 107.833,59.8333 107.833,60.1667 110.5,60.5C 109.458,61.7911 108.292,61.7911 107,60.5C 105.955,61.3734 105.122,62.3734 104.5,63.5C 103.209,63.2627 102.209,63.596 101.5,64.5C 100.833,64.5 100.5,64.8333 100.5,65.5C 99.5,65.5 98.5,65.5 97.5,65.5C 97.1583,64.6618 96.4916,64.3284 95.5,64.5C 93.5082,63.1696 91.5082,61.8363 89.5,60.5C 87.7772,58.7819 85.7772,57.4486 83.5,56.5C 82.1316,54.221 80.2983,53.5543 78,54.5C 77.7679,53.2625 77.2679,52.2625 76.5,51.5C 76.5,50.8333 76.1667,50.5 75.5,50.5C 74.4549,49.1224 73.1216,48.1224 71.5,47.5C 70.3754,46.9859 69.2087,46.6526 68,46.5C 66.84,42.68 68.0066,41.18 71.5,42C 70.7236,40.2302 70.8903,38.3969 72,36.5C 72.7412,35.3595 73.5745,35.3595 74.5,36.5C 75.2975,36.0431 75.6309,35.3764 75.5,34.5C 76.8333,34.1667 76.8333,33.8333 75.5,33.5C 75.7553,30.9837 76.5886,28.6504 78,26.5C 78.3333,26.8333 78.6667,27.1667 79,27.5C 79.6701,24.8261 80.8368,22.4927 82.5,20.5C 83.1667,23.1667 83.8333,23.1667 84.5,20.5C 85.8333,20.1667 85.8333,19.8333 84.5,19.5C 84.2627,18.209 84.596,17.209 85.5,16.5C 85.8333,19.1667 86.1667,19.1667 86.5,16.5C 87.1667,16.5 87.5,16.1667 87.5,15.5C 88.1667,15.5 88.5,15.1667 88.5,14.5C 89.8333,14.1667 89.8333,13.8333 88.5,13.5C 88.7073,10.7594 89.7073,8.42611 91.5,6.5C 93.297,4.56619 94.297,2.23286 94.5,-0.5 Z M 91.5,6.5 C 92.1667,6.5 92.8333,6.5 93.5,6.5C 92.4523,8.93268 91.7856,8.93268 91.5,6.5 Z M 82.5,20.5 C 83.1667,20.5 83.8333,20.5 84.5,20.5C 83.8333,23.1667 83.1667,23.1667 82.5,20.5 Z M 117.5,24.5 C 116.947,26.6569 115.947,26.4903 114.5,24C 115.577,23.5304 116.577,23.6971 117.5,24.5 Z M 125.5,39.5 C 124.711,39.2172 124.044,38.7172 123.5,38C 124.816,37.4719 125.483,37.9719 125.5,39.5 Z M 126.5,49.5 C 125.833,49.5 125.167,49.5 124.5,49.5C 124.786,47.0673 125.452,47.0673 126.5,49.5 Z"/></g>
<g><path style="opacity:0.012" fill="#22bfbf" d="M 88.5,13.5 C 88.5,13.8333 88.5,14.1667 88.5,14.5C 87.8333,14.5 87.5,14.8333 87.5,15.5C 86.8333,15.5 86.5,15.8333 86.5,16.5C 86.1667,16.5 85.8333,16.5 85.5,16.5C 85.5627,13.8049 86.5627,12.8049 88.5,13.5 Z"/></g>
<g><path style="opacity:0.005" fill="#00fffe" d="M 84.5,19.5 C 84.5,19.8333 84.5,20.1667 84.5,20.5C 83.8333,20.5 83.1667,20.5 82.5,20.5C 82.4088,18.3023 83.0755,17.9689 84.5,19.5 Z"/></g>
<g><path style="opacity:0.004" fill="#00fffe" d="M 75.5,33.5 C 75.5,33.8333 75.5,34.1667 75.5,34.5C 74.6236,34.6309 73.9569,34.2975 73.5,33.5C 73.9698,32.537 74.6365,32.537 75.5,33.5 Z"/></g>
<g><path style="opacity:0.008" fill="#00fffe" d="M 129.5,42.5 C 130.598,43.6009 130.765,44.9343 130,46.5C 129.51,45.2068 129.343,43.8734 129.5,42.5 Z"/></g>
<g><path style="opacity:0.012" fill="#00fffe" d="M 71.5,47.5 C 70.8333,48.1667 70.8333,48.1667 71.5,47.5 Z"/></g>
<g><path style="opacity:0.008" fill="#1afffe" d="M 122.5,51.5 C 122.5,51.1667 122.5,50.8333 122.5,50.5C 125.167,50.8333 125.167,51.1667 122.5,51.5 Z"/></g>
<g><path style="opacity:0.004" fill="#00fffe" d="M 63.5,51.5 C 65.337,51.6395 65.6704,52.3061 64.5,53.5C 63.7025,53.0431 63.3691,52.3764 63.5,51.5 Z"/></g>
<g><path style="opacity:0.027" fill="#16baba" d="M 75.5,50.5 C 76.1667,50.5 76.5,50.8333 76.5,51.5C 75.5029,52.7125 74.5029,52.5458 73.5,51C 74.0944,50.5357 74.7611,50.369 75.5,50.5 Z"/></g>
<g><path style="opacity:0.004" fill="#00fffe" d="M 132.5,51.5 C 134.337,51.6395 134.67,52.3061 133.5,53.5C 132.702,53.0431 132.369,52.3764 132.5,51.5 Z"/></g>
<g><path style="opacity:0.004" fill="#00fffe" d="M 119.5,53.5 C 120.833,54.1667 120.833,54.1667 119.5,53.5 Z"/></g>
<g><path style="opacity:0.995" fill="#27dcd9" d="M 67.5,55.5 C 70.5074,56.4785 72.8407,58.1452 74.5,60.5C 74.5,61.8333 75.1667,62.5 76.5,62.5C 77.7545,62.5011 79.0878,62.8344 80.5,63.5C 79.7611,63.369 79.0944,63.5357 78.5,64C 80.1957,65.1764 81.8624,66.343 83.5,67.5C 83.8417,68.3382 84.5084,68.6716 85.5,68.5C 85.8417,69.3382 86.5084,69.6716 87.5,69.5C 88.166,71.6734 89.3326,72.0067 91,70.5C 92.2247,70.8623 93.3914,71.3623 94.5,72C 91.9028,72.7792 91.9028,73.2792 94.5,73.5C 94.8333,74.5 95.5,75.1667 96.5,75.5C 97.3478,76.625 98.3478,76.625 99.5,75.5C 100.623,76.7574 101.289,76.4241 101.5,74.5C 102.492,74.6716 103.158,74.3382 103.5,73.5C 104.492,73.6716 105.158,73.3382 105.5,72.5C 108.167,72.1667 108.167,71.8333 105.5,71.5C 106.542,70.2089 107.708,70.2089 109,71.5C 109.717,70.9558 110.217,70.2891 110.5,69.5C 111.492,69.6716 112.158,69.3382 112.5,68.5C 113.492,68.6716 114.158,68.3382 114.5,67.5C 115.338,67.1583 115.672,66.4916 115.5,65.5C 116.922,65.2914 118.255,64.7914 119.5,64C 118.833,63.6667 118.167,63.3333 117.5,63C 118.984,62.3378 120.317,61.5045 121.5,60.5C 121.5,61.1667 121.5,61.8333 121.5,62.5C 122.5,62.1667 123.167,61.5 123.5,60.5C 126.543,59.3036 129.209,57.4703 131.5,55C 133.579,54.1923 135.579,54.359 137.5,55.5C 138.861,57.0284 140.028,58.6951 141,60.5C 141.684,61.7839 141.517,62.9505 140.5,64C 141.825,63.8516 142.992,64.0183 144,64.5C 145.374,66.8235 145.707,69.1569 145,71.5C 146.268,71.6158 147.602,71.9491 149,72.5C 150.11,74.3969 150.276,76.2302 149.5,78C 150.715,80.0955 151.549,79.9288 152,77.5C 153.807,79.7061 154.307,82.0394 153.5,84.5C 153.855,85.5223 154.522,86.189 155.5,86.5C 155.5,87.1667 155.833,87.5 156.5,87.5C 156.833,90.1667 157.167,90.1667 157.5,87.5C 159.351,88.8664 159.684,90.533 158.5,92.5C 159.631,93.6039 160.465,93.2705 161,91.5C 163.209,94.1413 163.709,96.9746 162.5,100C 164.125,100.853 164.458,101.853 163.5,103C 164.893,104.171 165.727,105.671 166,107.5C 166.333,106.5 166.667,105.5 167,104.5C 167.744,106.9 168.577,109.233 169.5,111.5C 166.833,113.5 166.833,115.5 169.5,117.5C 169.666,125.507 169.5,133.507 169,141.5C 168.626,142.416 168.126,143.25 167.5,144C 168.641,144.741 168.641,145.575 167.5,146.5C 168.167,147.167 168.833,147.833 169.5,148.5C 168.67,151.016 167.67,153.35 166.5,155.5C 166.167,154.167 165.833,154.167 165.5,155.5C 164.528,156.868 163.528,158.368 162.5,160C 163.709,163.025 163.209,165.859 161,168.5C 159.006,165.916 158.506,166.082 159.5,169C 159.361,170.301 158.695,171.134 157.5,171.5C 157.167,170.167 156.833,170.167 156.5,171.5C 155.094,171.973 154.427,172.973 154.5,174.5C 153.833,174.5 153.5,174.833 153.5,175.5C 151.833,176.5 150.5,177.833 149.5,179.5C 148.833,179.5 148.5,179.833 148.5,180.5C 146.833,181.5 145.5,182.833 144.5,184.5C 143.508,184.328 142.842,184.662 142.5,185.5C 141.662,185.842 141.328,186.508 141.5,187.5C 140.209,187.263 139.209,187.596 138.5,188.5C 137.833,188.5 137.5,188.833 137.5,189.5C 135.566,190.11 133.899,191.11 132.5,192.5C 131.508,192.328 130.842,192.662 130.5,193.5C 128.42,194.044 126.42,194.878 124.5,196C 125.5,196.333 126.5,196.667 127.5,197C 125.685,197.757 124.019,198.59 122.5,199.5C 120.5,199.5 118.5,199.5 116.5,199.5C 115.167,198.167 113.833,198.167 112.5,199.5C 103.5,199.5 94.5,199.5 85.5,199.5C 84.1667,198.167 82.8333,198.167 81.5,199.5C 79.5,199.5 77.5,199.5 75.5,199.5C 74.5,198.833 73.5,198.167 72.5,197.5C 73.8734,197.657 75.2068,197.49 76.5,197C 73.3526,196.054 70.3526,194.887 67.5,193.5C 67.1583,192.662 66.4916,192.328 65.5,192.5C 63.9545,191.36 62.2879,190.36 60.5,189.5C 58.6349,187.466 56.4682,186.799 54,187.5C 53.5357,186.906 53.369,186.239 53.5,185.5C 56.1667,185.167 56.1667,184.833 53.5,184.5C 53.5,183.833 53.1667,183.5 52.5,183.5C 50.8333,181.167 48.8333,179.167 46.5,177.5C 46.5,176.833 46.1667,176.5 45.5,176.5C 45.5,175.833 45.1667,175.5 44.5,175.5C 44.5,174.833 44.1667,174.5 43.5,174.5C 43.5,173.833 43.1667,173.5 42.5,173.5C 42.6716,172.508 42.3382,171.842 41.5,171.5C 41.1667,170.167 40.8333,170.167 40.5,171.5C 39.8359,170.352 39.6692,169.019 40,167.5C 39.0853,168.328 38.4186,169.328 38,170.5C 36.4379,168.043 35.4379,165.376 35,162.5C 34.6667,162.833 34.3333,163.167 34,163.5C 31.3129,159.269 30.4796,154.769 31.5,150C 31.3613,148.699 30.6946,147.866 29.5,147.5C 29.1667,139.5 28.8333,139.5 28.5,147.5C 25.7912,134.283 25.9579,120.949 29,107.5C 29.3333,109.167 29.6667,110.833 30,112.5C 30.3333,112.167 30.6667,111.833 31,111.5C 30.288,106.264 31.288,101.264 34,96.5C 34.5354,98.2705 35.3687,98.6039 36.5,97.5C 35.1688,95.1765 35.5021,93.1765 37.5,91.5C 38.0533,93.6569 39.0533,93.4903 40.5,91C 39.5089,88.1246 40.1756,85.6246 42.5,83.5C 43.0533,85.6569 44.0533,85.4903 45.5,83C 44.4829,81.9505 44.3162,80.7839 45,79.5C 47.5706,77.0118 49.7372,73.6785 51.5,69.5C 52.5462,67.2641 53.8795,65.2641 55.5,63.5C 56.1667,64.8333 56.8333,64.8333 57.5,63.5C 58.8333,63.1667 58.8333,62.8333 57.5,62.5C 58.031,59.763 58.8644,57.0964 60,54.5C 60.1492,57.2785 60.9826,57.7785 62.5,56C 62.1667,55.6667 61.8333,55.3333 61.5,55C 63.5454,54.5099 65.5454,54.6765 67.5,55.5 Z M 74.5,60.5 C 75.8333,60.5 76.5,61.1667 76.5,62.5C 76.5,61.1667 75.8333,60.5 74.5,60.5 Z M 121.5,60.5 C 122.167,60.5 122.833,60.5 123.5,60.5C 123.167,61.5 122.5,62.1667 121.5,62.5C 121.5,61.8333 121.5,61.1667 121.5,60.5 Z M 97.5,65.5 C 98.5,65.5 99.5,65.5 100.5,65.5C 99.5,68.1667 98.5,68.1667 97.5,65.5 Z M 143.5,67.5 C 140.999,67.4891 140.832,66.8224 143,65.5C 143.464,66.0944 143.631,66.7611 143.5,67.5 Z M 51.5,69.5 C 53.337,69.6395 53.6704,70.3061 52.5,71.5C 51.7025,71.0431 51.3691,70.3764 51.5,69.5 Z M 94.5,73.5 C 95.1667,73.5 95.8333,73.5 96.5,73.5C 96.5,74.1667 96.5,74.8333 96.5,75.5C 95.5,75.1667 94.8333,74.5 94.5,73.5 Z M 101.5,74.5 C 101.289,76.4241 100.623,76.7574 99.5,75.5C 100.167,75.1667 100.833,74.8333 101.5,74.5 Z"/></g>
<g><path style="opacity:0.02" fill="#16a9a9" d="M 115.5,56.5 C 115.5,56.1667 115.5,55.8333 115.5,55.5C 116.167,55.5 116.833,55.5 117.5,55.5C 117.158,56.3382 116.492,56.6716 115.5,56.5 Z"/></g>
<g><path style="opacity:0.008" fill="#00fffe" d="M 69.5,55.5 C 70.8333,56.1667 70.8333,56.1667 69.5,55.5 Z"/></g>
<g><path style="opacity:0.008" fill="#11fffe" d="M 117.5,55.5 C 117.5,55.1667 117.5,54.8333 117.5,54.5C 118.167,54.5 118.833,54.5 119.5,54.5C 119.158,55.3382 118.492,55.6716 117.5,55.5 Z"/></g>
<g><path style="opacity:0.008" fill="#00fffe" d="M 67.5,55.5 C 68.1667,54.1667 68.8333,54.1667 69.5,55.5C 68.8333,55.5 68.1667,55.5 67.5,55.5 Z"/></g>
<g><path style="opacity:0.012" fill="#00aaa9" d="M 83.5,56.5 C 82.8333,57.1667 82.8333,57.1667 83.5,56.5 Z"/></g>
<g><path style="opacity:0.016" fill="#00d3d3" d="M 83.5,59.5 C 83.8966,58.475 84.5632,58.3083 85.5,59C 84.9056,59.4643 84.2389,59.631 83.5,59.5 Z"/></g>
<g><path style="opacity:0.016" fill="#00bfbe" d="M 112.5,58.5 C 113.833,59.1667 113.833,59.1667 112.5,58.5 Z"/></g>
<g><path style="opacity:0.004" fill="#22fffe" d="M 110.5,60.5 C 110.5,60.1667 110.5,59.8333 110.5,59.5C 111.167,59.5 111.833,59.5 112.5,59.5C 112.158,60.3382 111.492,60.6716 110.5,60.5 Z"/></g>
<g><path style="opacity:0.024" fill="#23e2e2" d="M 89.5,60.5 C 89.1034,61.525 88.4368,61.6917 87.5,61C 88.0944,60.5357 88.7611,60.369 89.5,60.5 Z"/></g>
<g><path style="opacity:0.008" fill="#00fffe" d="M 57.5,62.5 C 57.5,62.8333 57.5,63.1667 57.5,63.5C 56.8333,63.5 56.1667,63.5 55.5,63.5C 55.4088,61.3023 56.0755,60.9689 57.5,62.5 Z"/></g>
<g><path style="opacity:0.004" fill="#00fffe" d="M 106.5,62.5 C 107.833,63.1667 107.833,63.1667 106.5,62.5 Z"/></g>
<g><path style="opacity:0.016" fill="#00bfbe" d="M 80.5,63.5 C 81.8333,64.1667 81.8333,64.1667 80.5,63.5 Z"/></g>
<g><path style="opacity:0.008" fill="#149797" d="M 104.5,64.5 C 104.5,64.1667 104.5,63.8333 104.5,63.5C 105.167,63.5 105.833,63.5 106.5,63.5C 106.158,64.3382 105.492,64.6716 104.5,64.5 Z"/></g>
<g><path style="opacity:0.004" fill="#00fffe" d="M 82.5,64.5 C 83.8333,65.1667 83.8333,65.1667 82.5,64.5 Z"/></g>
<g><path style="opacity:0.035" fill="#17d8d8" d="M 95.5,64.5 C 95.1034,65.525 94.4368,65.6917 93.5,65C 94.0944,64.5357 94.7611,64.369 95.5,64.5 Z"/></g>
<g><path style="opacity:0.024" fill="#18dddd" d="M 101.5,64.5 C 102.5,64.5 103.5,64.5 104.5,64.5C 103.5,65.8333 102.5,65.8333 101.5,64.5 Z"/></g>
<g><path style="opacity:0.004" fill="#00fffe" d="M 115.5,65.5 C 114.833,64.1667 114.833,64.1667 115.5,65.5 Z"/></g>
<g><path style="opacity:0.006" fill="#2ff2f2" d="M 83.5,67.5 C 85.1284,66.1472 86.4617,66.4805 87.5,68.5C 86.8333,68.5 86.1667,68.5 85.5,68.5C 85.1583,67.6618 84.4916,67.3284 83.5,67.5 Z"/></g>
<g><path style="opacity:0.006" fill="#0ffffe" d="M 114.5,67.5 C 113.508,67.3284 112.842,67.6618 112.5,68.5C 111.508,68.3284 110.842,68.6618 110.5,69.5C 108.653,69.7658 107.986,69.4325 108.5,68.5C 110.507,66.7966 112.507,66.4633 114.5,67.5 Z"/></g>
<g><path style="opacity:0.006" fill="#00e9e9" d="M 87.5,69.5 C 87.5,69.1667 87.5,68.8333 87.5,68.5C 91.5,68.8333 91.5,69.1667 87.5,69.5 Z"/></g>
<g><path style="opacity:0.012" fill="#16bebe" d="M 105.5,71.5 C 105.5,71.8333 105.5,72.1667 105.5,72.5C 104.508,72.3284 103.842,72.6618 103.5,73.5C 102.833,73.5 102.167,73.5 101.5,73.5C 102.287,71.8958 103.62,71.2291 105.5,71.5 Z"/></g>
<g><path style="opacity:0.004" fill="#00fffe" d="M 96.5,73.5 C 98.9327,73.7856 98.9327,74.4523 96.5,75.5C 96.5,74.8333 96.5,74.1667 96.5,73.5 Z"/></g>
<g><path style="opacity:0.004" fill="#00fffe" d="M 101.5,73.5 C 101.5,73.8333 101.5,74.1667 101.5,74.5C 100.833,74.8333 100.167,75.1667 99.5,75.5C 99.5,74.1667 100.167,73.5 101.5,73.5 Z"/></g>
<g><path style="opacity:0.004" fill="#00fffe" d="M 42.5,83.5 C 42.369,82.7611 42.5357,82.0944 43,81.5C 43.6917,82.4368 43.525,83.1034 42.5,83.5 Z"/></g>
<g><path style="opacity:0.012" fill="#41fffe" d="M 157.5,87.5 C 157.167,87.5 156.833,87.5 156.5,87.5C 155.833,87.5 155.5,87.1667 155.5,86.5C 156.988,83.8136 157.655,84.1469 157.5,87.5 Z"/></g>
<g><path style="opacity:0.008" fill="#00a7a7" d="M 37.5,91.5 C 37.369,90.7611 37.5357,90.0944 38,89.5C 38.6917,90.4368 38.525,91.1034 37.5,91.5 Z"/></g>
<g><path style="opacity:0.004" fill="#00fffe" d="M 164.5,98.5 C 165.525,98.8966 165.692,99.5632 165,100.5C 164.536,99.9056 164.369,99.2389 164.5,98.5 Z"/></g>
<g><path style="opacity:0.027" fill="#2dcccc" d="M 169.5,111.5 C 171.04,117.251 171.706,123.251 171.5,129.5C 171.333,133.833 171.167,138.167 171,142.5C 170.829,133.99 170.329,125.657 169.5,117.5C 169.5,115.5 169.5,113.5 169.5,111.5 Z"/></g>
<g><path style="opacity:0.008" fill="#2bb1b1" d="M 28.5,147.5 C 28.8333,147.5 29.1667,147.5 29.5,147.5C 29.1667,152.833 28.8333,152.833 28.5,147.5 Z"/></g>
<g><path style="opacity:0.02" fill="#2baeae" d="M 165.5,155.5 C 165.833,155.5 166.167,155.5 166.5,155.5C 166.768,157.099 166.434,158.432 165.5,159.5C 165.5,158.167 165.5,156.833 165.5,155.5 Z"/></g>
<g><path style="opacity:0.004" fill="#00fffe" d="M 165.5,159.5 C 164.833,160.167 164.833,160.167 165.5,159.5 Z"/></g>
<g><path style="opacity:0.005" fill="#00fffe" d="M 156.5,171.5 C 156.833,171.5 157.167,171.5 157.5,171.5C 157.912,173.973 156.912,175.306 154.5,175.5C 154.5,175.167 154.5,174.833 154.5,174.5C 155.906,174.027 156.573,173.027 156.5,171.5 Z"/></g>
<g><path style="opacity:0.008" fill="#11fffe" d="M 40.5,171.5 C 40.8333,171.5 41.1667,171.5 41.5,171.5C 41.5,172.167 41.5,172.833 41.5,173.5C 40.6618,173.158 40.3284,172.492 40.5,171.5 Z"/></g>
<g><path style="opacity:0.005" fill="#00dddd" d="M 41.5,173.5 C 41.8333,173.5 42.1667,173.5 42.5,173.5C 43.1667,173.5 43.5,173.833 43.5,174.5C 44.1667,174.5 44.5,174.833 44.5,175.5C 44.5,175.833 44.5,176.167 44.5,176.5C 42.5,176.5 41.5,175.5 41.5,173.5 Z"/></g>
<g><path style="opacity:0.027" fill="#24dad9" d="M 153.5,175.5 C 153.833,175.5 154.167,175.5 154.5,175.5C 154.315,176.17 153.981,176.17 153.5,175.5 Z"/></g>
<g><path style="opacity:0.004" fill="#41eaea" d="M 44.5,176.5 C 44.8333,176.5 45.1667,176.5 45.5,176.5C 46.1667,176.5 46.5,176.833 46.5,177.5C 45.6987,179.793 45.032,179.46 44.5,176.5 Z"/></g>
<g><path style="opacity:0.031" fill="#3fdfde" d="M 149.5,179.5 C 150.833,180.167 150.833,180.167 149.5,179.5 Z"/></g>
<g><path style="opacity:0.031" fill="#3fdfde" d="M 148.5,180.5 C 148.833,180.5 149.167,180.5 149.5,180.5C 149.315,181.17 148.981,181.17 148.5,180.5 Z"/></g>
<g><path style="opacity:0.008" fill="#15eded" d="M 52.5,183.5 C 53.1667,183.5 53.5,183.833 53.5,184.5C 53.5,184.833 53.5,185.167 53.5,185.5C 50.5404,184.968 50.2071,184.301 52.5,183.5 Z"/></g>
<g><path style="opacity:0.027" fill="#24dab5" d="M 144.5,184.5 C 145.833,185.167 145.833,185.167 144.5,184.5 Z"/></g>
<g><path style="opacity:0.005" fill="#00fffe" d="M 142.5,185.5 C 143.167,185.5 143.833,185.5 144.5,185.5C 144.214,187.933 143.548,187.933 142.5,185.5 Z"/></g>
<g><path style="opacity:0.008" fill="#00fffe" d="M 141.5,187.5 C 142.833,188.167 142.833,188.167 141.5,187.5 Z"/></g>
<g><path style="opacity:0.007" fill="#0af4f4" d="M 138.5,188.5 C 139.5,188.5 140.5,188.5 141.5,188.5C 140.295,190.138 138.962,190.471 137.5,189.5C 138.167,189.5 138.5,189.167 138.5,188.5 Z"/></g>
<g><path style="opacity:0.02" fill="#00b1b1" d="M 60.5,189.5 C 60.1034,190.525 59.4368,190.692 58.5,190C 59.0944,189.536 59.7611,189.369 60.5,189.5 Z"/></g>
<g><path style="opacity:0.004" fill="#00e1e1" d="M 135.5,192.5 C 135.897,191.475 136.563,191.308 137.5,192C 136.906,192.464 136.239,192.631 135.5,192.5 Z"/></g>
<g><path style="opacity:0.004" fill="#18d8d8" d="M 65.5,192.5 C 65.8417,193.338 66.5084,193.672 67.5,193.5C 65.9106,194.621 64.2439,194.454 62.5,193C 63.448,192.517 64.448,192.351 65.5,192.5 Z"/></g>
<g><path style="opacity:0.006" fill="#24f7f7" d="M 132.5,192.5 C 133.5,192.5 134.5,192.5 135.5,192.5C 134.005,194.345 132.338,194.678 130.5,193.5C 131.492,193.672 132.158,193.338 132.5,192.5 Z"/></g>
<g><path style="opacity:0.004" fill="#247776" d="M 69.5,196.5 C 66.9991,196.489 66.8324,195.822 69,194.5C 69.4643,195.094 69.631,195.761 69.5,196.5 Z"/></g>
<g><path style="opacity:0.004" fill="#1f4e4e" d="M 128.5,196.5 C 128.897,195.475 129.563,195.308 130.5,196C 129.906,196.464 129.239,196.631 128.5,196.5 Z"/></g>
<g><path style="opacity:0.008" fill="#2ba9a9" d="M 69.5,196.5 C 70.791,196.263 71.791,196.596 72.5,197.5C 71.209,197.737 70.209,197.404 69.5,196.5 Z"/></g>
</svg>
