
<svg xmlns="http://www.w3.org/2000/svg" xmlns:xlink="http://www.w3.org/1999/xlink" width="250px" height="250px" viewBox="0 0 250 250" version="1.1">
<g id="surface1">
<path style=" stroke:none;fill-rule:nonzero;fill:rgb(14.901961%,86.666667%,97.647059%);fill-opacity:1;" d="M 163.417969 0 C 119.269531 0.246094 82.28125 33.46875 77.3125 77.332031 C 31.722656 82.453125 -1.96875 122.238281 0.496094 168.050781 C 2.960938 213.863281 40.726562 249.804688 86.605469 250 C 130.742188 249.742188 167.71875 216.523438 172.6875 172.667969 C 218.277344 167.546875 251.964844 127.769531 249.503906 81.960938 C 247.042969 36.152344 209.289062 0.207031 163.417969 0 Z M 229.730469 96.375 C 225.304688 125.570312 202.398438 148.492188 173.207031 152.9375 L 173.207031 96.375 Z M 20.269531 153.625 C 24.695312 124.429688 47.601562 101.507812 76.792969 97.0625 L 76.792969 153.582031 Z M 152.9375 173.207031 C 148.179688 206.171875 119.929688 230.636719 86.625 230.636719 C 53.320312 230.636719 25.070312 206.171875 20.3125 173.207031 Z M 153.667969 96.375 L 153.667969 153.625 L 96.375 153.625 L 96.375 96.375 Z M 229.730469 76.792969 L 97.0625 76.792969 C 101.886719 43.882812 130.113281 19.488281 163.375 19.488281 C 196.636719 19.488281 224.863281 43.882812 229.6875 76.792969 Z M 229.730469 76.792969 "/>
</g>
</svg>
