<svg height="250" viewBox="0 0 250 250" width="250" xmlns="http://www.w3.org/2000/svg"><path d="m163.417969 0c-44.148438.246094-81.136719 33.46875-86.105469 77.332031-45.589844 5.121094-79.28125 44.90625-76.816406 90.71875s40.230468 81.753907 86.109375 81.949219c44.136719-.257812 81.113281-33.476562 86.082031-77.332031 45.589844-5.121094 79.277344-44.898438 76.816406-90.707031-2.460937-45.808594-40.214844-81.753907-86.085937-81.960938zm66.3125 96.375c-4.425781 29.195312-27.332031 52.117188-56.523438 56.5625v-56.5625zm-209.460938 57.25c4.425781-29.195312 27.332031-52.117188 56.523438-56.5625v56.519531zm132.667969 19.582031c-4.757812 32.964844-33.007812 57.429688-66.3125 57.429688s-61.554688-24.464844-66.3125-57.429688zm.730469-76.832031v57.25h-57.292969v-57.25zm76.0625-19.582031h-132.667969c4.824219-32.910157 33.050781-57.304688 66.3125-57.304688s61.488281 24.394531 66.3125 57.304688zm0 0" fill="#26ddf9"/></svg>