<svg height="250" viewBox="0 0 250 250" width="250" xmlns="http://www.w3.org/2000/svg" xmlns:xlink="http://www.w3.org/1999/xlink"><linearGradient id="a"><stop offset="0" stop-color="#5521b6"/><stop offset=".47" stop-color="#4f3dff"/><stop offset="1" stop-color="#5521b6"/></linearGradient><linearGradient id="b" gradientUnits="userSpaceOnUse" x1="184.80353828857" x2="94.40177328857" xlink:href="#a" y1="93.18748776857" y2="173.44639635572"/><linearGradient id="c" gradientUnits="userSpaceOnUse" x1="18944.72876259291" x2="11719.99847390709" xlink:href="#a" y1="6341.40087555427" y2="15289.7296965"/><filter id="d" height="100%" width="100%" x="0%" y="0%"><feColorMatrix in="SourceGraphic" type="matrix" values="0 0 0 0 1 0 0 0 0 1 0 0 0 0 1 0 0 0 1 0"/></filter><mask id="e"><g filter="url(#d)"><path d="m0 0h250v250h-250z" fill-opacity=".2"/></g></mask><clipPath id="f"><path d="m0 0h250v250h-250z"/></clipPath><mask id="g"><g filter="url(#d)"><path d="m0 0h250v250h-250z" fill-opacity=".3"/></g></mask><clipPath id="h"><path d="m0 0h250v250h-250z"/></clipPath><mask id="i"><g filter="url(#d)"><path d="m0 0h250v250h-250z" fill-opacity=".3"/></g></mask><clipPath id="j"><path d="m0 0h250v250h-250z"/></clipPath><path d="m230.710938 177.386719c28.929687-58.378907 5.054687-129.15625-53.324219-158.085938-58.382813-28.929687-129.160157-5.054687-158.089844 53.324219-28.929687 58.382812-5.054687 129.160156 53.324219 158.089844 58.382812 28.929687 129.160156 5.054687 158.089844-53.328125zm0 0" fill="#fbecdb"/><path d="m107.5 193.75c-1.164062 0-2.3125-.257812-3.367188-.75-1.054687-.496094-1.984374-1.214844-2.730468-2.105469l-.054688-.0625c-.738281-.914062-1.265625-1.976562-1.546875-3.113281-.28125-1.140625-.308593-2.328125-.078125-3.476562.480469-2.417969 1.386719-4.730469 2.679688-6.832032-16.457032-8.542968-28.570313-25.945312-30.777344-44.917968-.160156-1.375 0-2.761719.46875-4.0625.464844-1.300782 1.230469-2.472657 2.226562-3.429688 1.738282-1.652344 4.042969-2.574219 6.4375-2.570312.539063-.003907 1.070313.046874 1.597657.140624 14.21875 2.367188 28.605469 3.585938 43.019531 3.652344 14.433594-.070312 28.839844-1.296875 43.082031-3.660156.503907-.085938 1.011719-.128906 1.523438-.125 2.378906-.003906 4.671875.898438 6.402343 2.527344 1.027344.957031 1.8125 2.144531 2.289063 3.460937.480469 1.320313.636719 2.734375.460937 4.128907-2.222656 18.9375-14.285156 36.328124-30.777343 44.882812 1.292969 2.09375 2.199219 4.402344 2.679687 6.8125.226563 1.152344.199219 2.339844-.078125 3.480469-.28125 1.140625-.808593 2.203125-1.546875 3.117187l-.054687.0625c-.742188.894532-1.675781 1.613282-2.730469 2.105469-1.050781.496094-2.203125.75-3.367188.753906zm-15.917969-51.472656c.734375 1.816406 1.628907 3.566406 2.675781 5.222656l-2.015624-5.144531zm0 0" fill="url(#b)"/><path d="m80.757812 127.304688c.242188 0 .484376.027343.722657.070312 14.507812 2.414062 29.1875 3.664062 43.894531 3.730469 14.707031-.070313 29.386719-1.316407 43.894531-3.730469.234375-.042969.472657-.0625.710938-.0625 1.136719 0 2.226562.429688 3.054687 1.207031.457032.429688.804688.960938 1.019532 1.546875.214843.589844.289062 1.222656.214843 1.84375-2.242187 19.132813-15.429687 36.507813-32.796875 43.234375-.128906.046875-.242187.132813-.328125.238281-.085937.105469-.144531.234376-.167969.371094-.019531.136719-.007812.273438.039063.402344.046875.132812.128906.246094.234375.335938 2.558594 2.273437 4.292969 5.332031 4.9375 8.695312.089844.441406.082031.894531-.023438 1.332031-.105468.4375-.308593.84375-.59375 1.195313-.28125.347656-.640624.628906-1.046874.824218-.40625.191407-.851563.292969-1.300782.292969h-35.714844c-.445312 0-.886718-.101562-1.292968-.289062-.402344-.191407-.761719-.46875-1.046875-.8125-.28125-.351563-.488281-.761719-.59375-1.199219-.109375-.441406-.117188-.898438-.03125-1.34375.632812-3.367188 2.371093-6.425781 4.9375-8.695312.109375-.089844.191406-.203126.238281-.335938.046875-.128906.058594-.269531.03125-.40625-.019531-.136719-.074219-.265625-.160156-.371094-.085938-.109375-.203125-.191406-.332032-.234375-17.363281-6.726562-30.550781-24.109375-32.792968-43.234375-.066406-.625.011718-1.253906.230468-1.84375s.570313-1.117187 1.027344-1.546875c.824219-.777343 1.914063-1.210937 3.046875-1.214843zm20.546876 33.925781c.628906-.003907 1.226562-.253907 1.675781-.695313.433593-.40625.703125-.953125.765625-1.542968.0625-.589844-.089844-1.183594-.425782-1.671876l-6.890624-17.578124c-.125-.542969-.410157-1.035157-.824219-1.414063-.410157-.375-.929688-.613281-1.480469-.683594-2.25-.269531-4.269531-.5625-5.972656-.804687-.125-.015625-.25-.015625-.375 0-.324219 0-.644532.070312-.9375.203125-.292969.132812-.554688.328125-.769532.574219-.253906.273437-.4375.609374-.527343.976562-.09375.363281-.089844.75.011719 1.113281 2.214843 8.445313 7.253906 15.878907 14.285156 21.0625.414062.308594.917968.480469 1.4375.488281zm-20.5625-43.722657c-3.65625-.011718-7.175782 1.390626-9.824219 3.910157-1.554688 1.464843-2.75 3.273437-3.488281 5.277343-.738282 2.003907-1.003907 4.152344-.769532 6.277344v.097656c1.1875 9.398438 4.429688 18.421876 9.488282 26.433594 5.0625 8.007813 11.820312 14.808594 19.796874 19.914063-.457031 1.261719-.820312 2.554687-1.078124 3.867187-.375 1.859375-.332032 3.777344.121093 5.613282.453125 1.839843 1.308594 3.558593 2.503907 5.03125l.097656.113281c1.203125 1.449219 2.710937 2.609375 4.417968 3.410156 1.707032.796875 3.566407 1.210937 5.449219 1.207031h35.710938c1.875-.003906 3.726562-.417968 5.425781-1.214844 1.695312-.800781 3.199219-1.960937 4.398438-3.402343l.105468-.113281c1.195313-1.472657 2.046875-3.191407 2.503906-5.03125.453126-1.835938.492188-3.753907.121094-5.613282-.265625-1.3125-.628906-2.605468-1.089844-3.867187 7.976563-5.105469 14.730469-11.898438 19.792969-19.898438 5.058594-8.003906 8.300781-17.019531 9.492188-26.414062.28125-2.132813.054687-4.300781-.660157-6.328125-.714843-2.03125-1.898437-3.863282-3.453124-5.347656l-.0625-.074219c-2.648438-2.472657-6.136719-3.847657-9.761719-3.847657-.773438 0-1.546875.066407-2.3125.1875-13.980469 2.316407-28.121094 3.511719-42.292969 3.574219-14.148438-.066406-28.265625-1.257812-42.222656-3.574219-.789063-.140624-1.589844-.214843-2.394532-.214843zm0 0" fill="#fbecdb"/><path d="m125.277344 129.269531c-14.535156-.085937-29.042969-1.316406-43.386719-3.679687h-.273437c-1.277344-.132813-2.449219-.761719-3.269532-1.75-.816406-.988282-1.214844-2.257813-1.105468-3.535156 1.007812-12.019532 6.492187-23.21875 15.363281-31.386719 8.871093-8.167969 20.488281-12.707031 32.546875-12.722657 2.621094.003907 5.242187.214844 7.828125.636719l7.875-15.324219c.574219-1.121093 1.367187-2.121093 2.332031-2.9375.960938-.816406 2.074219-1.4375 3.277344-1.820312s2.46875-.527344 3.726562-.417969c1.257813.105469 2.484375.460938 3.601563 1.042969l4.152343 2.152344c1.582032.820312 2.902344 2.0625 3.820313 3.589844.917969 1.527343 1.394531 3.28125 1.378906 5.0625 1.863281-.691407 3.898438-.785157 5.816407-.269532 1.921874.519532 3.632812 1.625 4.894531 3.160156l2.976562 3.574219c1.609375 1.964844 2.378907 4.488281 2.136719 7.019531-.246094 2.527344-1.484375 4.859376-3.441406 6.480469l-10.714844 8.925781c4.75 6.878907 7.605469 14.882813 8.285156 23.214844.109375 1.285156-.292968 2.558594-1.117187 3.546875-.824219.992188-2.003907 1.617188-3.285157 1.738281-11.917968 1.976563-23.953124 3.171876-36.027343 3.574219h-3.980469c-.472656 0-.894531 0-1.417969 0-.679687 0-1.332031 0-2.011719 0zm0 0" fill="url(#c)"/><path d="m149.394531 61.167969c.742188.003906 1.472657.179687 2.132813.519531l4.167968 2.160156c1.101563.574219 1.933594 1.5625 2.308594 2.746094.378906 1.183594.273438 2.46875-.289062 3.574219l-7.285156 14.179687 13.097656-10.828125c.472656-.394531 1.015625-.6875 1.601562-.867187.585938-.179688 1.203125-.242188 1.8125-.1875.609375.058594 1.203125.238281 1.746094.523437.542969.289063 1.019531.679688 1.410156 1.15625l2.984375 3.625c.785157.957031 1.160157 2.1875 1.042969 3.417969-.121094 1.234375-.722656 2.371094-1.679688 3.160156l-14.410156 11.9375c5.863282 6.871094 9.417969 15.410156 10.160156 24.410156h-.070312c-11.8125 1.972657-23.746094 3.148438-35.714844 3.527344h-.402344c-.625 0-1.25 0-1.882812.046875-.632812.042969-1.027344 0-1.570312 0-.546876 0-.894532 0-1.386719 0-.648438 0-1.285157 0-1.925781 0-14.320313-.089843-28.605469-1.308593-42.734376-3.644531l-.417968-.042969c.925781-10.785156 5.863281-20.824219 13.835937-28.140625 7.976563-7.316406 18.40625-11.375 29.226563-11.371094 3.535156 0 7.058594.429688 10.492187 1.277344l9.578125-18.632812c.394532-.765625.996094-1.40625 1.730469-1.855469s1.578125-.6875 2.441406-.691406zm0-9.820313c-2.664062-.003906-5.273437.726563-7.546875 2.109375-2.273437 1.382813-4.121094 3.363281-5.339844 5.730469l-6.320312 12.292969c-1.679688-.160157-3.355469-.238281-5.035156-.238281-13.296875.003906-26.109375 5.003906-35.894532 14.007812-9.78125 9.003906-15.828124 21.355469-16.9375 34.605469-.210937 2.558593.585938 5.097656 2.21875 7.074219 1.636719 1.976562 3.980469 3.238281 6.53125 3.507812h.144532c14.554687 2.386719 29.277344 3.632812 44.027344 3.722656h2.097656 1.464844 4.035156c12.226562-.394531 24.417968-1.589844 36.492187-3.570312 2.519531-.304688 4.828125-1.574219 6.433594-3.539063 1.605469-1.96875 2.386719-4.484375 2.179687-7.015625-.621093-7.671875-2.917968-15.117187-6.730468-21.804687l7.445312-6.175781c2.949219-2.449219 4.8125-5.964844 5.179688-9.777344.367187-3.816406-.789063-7.625-3.214844-10.589844l-2.945312-3.785156c-1.300782-1.585938-2.925782-2.878906-4.761719-3.785156-1.839844-.910157-3.851563-1.414063-5.898438-1.484376-1.289062-3.226562-3.695312-5.886718-6.777343-7.488281l-4.199219-2.171875c-2.050781-1.058594-4.328125-1.613281-6.640625-1.617187zm0 0" fill="#fbecdb"/><g clip-path="url(#f)" mask="url(#e)"><path d="m61.6875 137.980469s6.542969-43.632813 27.597656-58.398438c21.054688-14.769531 49.109375-23.574219 65.609375-18.75 16.5 4.820313 18.75 15.050781 22.148438 17.035157 3.402343 1.980468 11.699219 24.464843-7.097657 25.5625-30.007812 1.785156-67.980468 36.0625-69.292968 59.070312s-24.234375-7.382812-27.597656-7.382812c-3.367188 0 .300781-13.5625-1.097657-17.144532-1.402343-3.578125-5.769531-1.882812-7.707031 1.242188s-2.5625-1.234375-2.5625-1.234375zm0 0" fill="#fff"/></g><g stroke-linecap="round" stroke-linejoin="round" stroke-width="5.07" transform="scale(.892857)"><path d="m145.81 80.07125 7.07875-13.7725c1.365-2.646875 3.434375-4.869375 5.980625-6.418125s5.46875-2.366875 8.4525-2.3625c2.275.004375 4.52375.485625 6.5975 1.413125 13.741875-10.101875 30.0825-16.331875 46.83-16.673125-15.8725-13.02-34.689375-21.966875-54.81-26.0575-11.064375 7.555625-20.475 17.29-27.65875 28.60375-7.18375 11.309375-11.9875 23.96625-14.1225 37.19625 5.210625-1.456875 10.591875-2.19625 16.00375-2.200625 1.89 0 3.775625.091875 5.648125.27125zm0 0" fill="#8cdb26" stroke="#7ec600"/><path d="m260.561875 100.550625c-16.93125-8.23375-35.875-11.40125-54.560625-9.121875-.13125 2.218125-.713125 4.38375-1.719375 6.365625-1.001875 1.9775-2.401875 3.731875-4.1125 5.145l-8.33875 6.92125c2.45 4.305 4.344375 8.9075 5.639375 13.689375 26.52125 2.130625 52.43875 15.448125 67.440625 37.340625 3.495625-20.16875 1.999375-40.884375-4.34875-60.34zm0 0" fill="#ffd654" stroke="#ffc933"/><path d="m95.76 99.82875c-10.00125-23.996875-9.358125-53.55875.441875-77.9975-19.464375 7.39375-36.8025 19.473125-50.483125 35.170625 2.3625 27.16 15.999375 52.99875 36.6625 68.709375 2.23125-9.6075 6.83375-18.50625 13.37875-25.8825zm0 0" fill="#4be1d9" stroke="#28d1c5"/><path d="m203.721875 160.51c-3.198125 10.675-8.79375 20.475-16.35375 28.660625 6.103125 21.9975 4.213125 47.368125-3.08 68.52125 6.374375-2.35375 12.551875-5.20625 18.47125-8.54 12.04-6.811875 22.88125-15.553125 32.081875-25.8825-1.4-24.548125-13.523125-47.1975-31.119375-62.759375zm0 0" fill="#ff9d33" stroke="#ff8812"/><path d="m120.4 222.481875c-2.10875 0-4.19125-.46375-6.103125-1.35625-1.9075-.8925-3.59625-2.19625-4.948125-3.815l-.109375-.13125c-.21875-.27125-.41125-.56-.608125-.84-13.741875 10.766875-29.929375 17.98125-47.123125 21 15.86375 12.85375 34.610625 21.660625 54.630625 25.659375 13.838125-10.68375 24.8675-24.57 32.143125-40.46875zm0 0" fill="#ff4545" stroke="#f43434"/><path d="m76.23875 157.390625c-23.66875-4.3925-46.449375-18.20875-59.889375-36.53125-3.03625 20.09-1.150625 40.613125 5.499375 59.810625 21 8.649375 46.213125 10.591875 68.1625 4.510625-6.531875-8.168125-11.230625-17.644375-13.7725-27.79zm0 0" fill="#dc4aff" stroke="#d137f7"/></g><g clip-path="url(#h)" mask="url(#g)"><path d="m77.152344 212.332031c-.921875-.53125-1.816406-1.105469-2.679688-1.726562-2.523437-1.714844-4.933594-3.59375-7.214844-5.625-3.636718-3.128907-7.019531-6.542969-10.117187-10.210938-4.089844-4.742187-7.714844-9.867187-10.820313-15.304687-3.839843-6.453125-6.972656-13.296875-9.347656-20.421875-.703125-1.910157-1.300781-3.859375-1.785156-5.835938-.527344-2.109375-1.046875-3.75-1.609375-6.332031-.894531-4.125-1.542969-8.296875-1.9375-12.5-.941406-9.214844-.597656-18.515625 1.027344-27.632812 3.324219-18.890626 11.742187-36.511719 24.347656-50.964844 3.238281-3.667969 6.851563-6.984375 10.777344-9.902344 3.71875-2.679688 7.640625-5.066406 11.722656-7.144531 14.21875-7.300781 29.796875-11.554688 45.753906-12.5 6.25-.40625 12.527344-.230469 18.75.527343 4.730469.546876 9.417969 1.453126 14.015625 2.707032 2.941406.773437 5.839844 1.707031 8.679688 2.792968l2.980468 1.1875-3.195312-.222656c-2.0625-.1875-5.117188-.285156-8.929688-.367187-3.8125-.078125-8.453124.089843-13.675781.511719-5.808593.542968-11.570312 1.457031-17.261719 2.738281-6.632812 1.519531-13.136718 3.554687-19.453124 6.082031-6.941407 2.777344-13.628907 6.152344-19.984376 10.089844-3.234374 2.023437-6.34375 4.242187-9.304687 6.652344-2.835937 2.410156-5.425781 5.101562-7.722656 8.035156-4.96875 6.285156-9.203125 13.117187-12.613281 20.367187-3.417969 7.269531-6.007813 14.902344-7.726563 22.75-1.621094 7.589844-2.378906 15.34375-2.257813 23.105469-.167968 3.480469.4375 7.777344.695313 11.707031.144531 1.328125.519531 3.523438.761719 5.222657.222656 1.828124.605468 3.570312.980468 5.355468 1.328126 6.652344 3.199219 13.183594 5.597657 19.527344 3.699219 9.738281 8.492187 19.023438 14.285156 27.679688 2.226563 3.359374 4.652344 6.582031 7.261719 9.652343zm0 0" fill="#fff"/></g><g clip-path="url(#j)" mask="url(#i)"><path d="m176.785156 37.882812s.992188.527344 2.734375 1.714844c2.515625 1.726563 4.925781 3.601563 7.210938 5.625 3.613281 3.136719 6.976562 6.550782 10.054687 10.214844 4.101563 4.742188 7.734375 9.871094 10.847656 15.3125 3.835938 6.449219 6.964844 13.296875 9.332032 20.417969.707031 1.910156 1.304687 3.855469 1.785156 5.832031.535156 2.117188 1.042969 3.757812 1.605469 6.332031.902343 4.121094 1.550781 8.296875 1.9375 12.5.953125 9.210938.609375 18.507813-1.015625 27.625-1.667969 9.386719-4.589844 18.511719-8.6875 27.125-4.117188 8.625-9.390625 16.652344-15.679688 23.855469-3.238281 3.664062-6.851562 6.984375-10.777344 9.902344-3.722656 2.671875-7.644531 5.0625-11.730468 7.140625-14.214844 7.304687-29.796875 11.5625-45.75 12.5-6.253906.414062-12.53125.238281-18.75-.515625-4.742188-.542969-9.4375-1.4375-14.046875-2.679688-2.941407-.769531-5.839844-1.707031-8.675781-2.804687l-2.992188-1.1875 3.195312.226562c2.074219.1875 5.125.292969 8.929688.375 3.804688.078125 8.464844-.101562 13.6875-.519531 5.804688-.539062 11.570312-1.453125 17.257812-2.730469 6.652344-1.527343 13.175782-3.566406 19.511719-6.109375 6.945313-2.757812 13.636719-6.128906 19.988281-10.070312 3.238282-2.027344 6.34375-4.25 9.304688-6.660156 2.839844-2.414063 5.425781-5.105469 7.722656-8.035157 4.980469-6.292969 9.222656-13.132812 12.644532-20.386719 3.402343-7.257812 5.984374-14.871093 7.695312-22.703124 1.625-7.59375 2.386719-15.34375 2.269531-23.109376.160157-3.488281-.449219-7.777343-.699219-11.703124-.140624-1.339844-.527343-3.574219-.765624-5.234376-.242188-1.660156-.609376-3.570312-.984376-5.355468-1.320312-6.648438-3.195312-13.179688-5.597656-19.519532-3.695312-9.722656-8.488281-18.996093-14.285156-27.632812-2.222656-3.390625-4.65625-6.644531-7.277344-9.742188zm0 0" fill="#fff"/></g><path d="m125.347656 11.214844c27.660156-.039063 54.386719 9.996094 75.1875 28.234375 20.796875 18.234375 34.242188 43.417969 37.820313 70.847656s-2.957031 55.222656-18.378907 78.183594c-15.425781 22.957031-38.683593 39.515625-65.429687 46.574219-26.746094 7.058593-55.144531 4.132812-79.890625-8.226563s-44.140625-33.308594-54.5625-58.929687c-10.425781-25.621094-11.15625-54.164063-2.066406-80.285157 9.089844-26.125 27.386718-48.042969 51.464844-61.65625 17.039062-9.640625 36.277343-14.71875 55.855468-14.742187zm0-6.109375c-29.089844.027343-57.179687 10.636719-79.023437 29.84375-21.847657 19.210937-35.964844 45.710937-39.710938 74.558593-3.75 28.847657 3.121094 58.074219 19.332031 82.230469 16.210938 24.15625 40.652344 41.589844 68.769532 49.054688 28.117187 7.460937 57.988281 4.445312 84.046875-8.492188 26.054687-12.9375 46.515625-34.910156 57.5625-61.820312 11.050781-26.914063 11.9375-56.921875 2.492187-84.4375-9.445312-27.515625-28.578125-50.65625-53.824218-65.105469-18.160157-10.390625-38.722657-15.847656-59.644532-15.832031zm0 0" fill="#fff"/></svg>