<!-- Generator: Adobe Illustrator 24.3.0, SVG Export Plug-In . SVG Version: 6.00 Build 0)  -->
<svg xmlns="http://www.w3.org/2000/svg" xmlns:xlink="http://www.w3.org/1999/xlink" width="250px" height="250px" viewBox="0 0 250 250" version="1.1">
<defs>
<linearGradient id="linear0" gradientUnits="userSpaceOnUse" x1="100.966103" y1="331.399689" x2="270.221405" y2="38.241001" gradientTransform="matrix(0.67681,0,0,0.67681,0,0)">
<stop offset="0.00202893" style="stop-color:rgb(100%,86.274511%,0%);stop-opacity:1;"/>
<stop offset="0.3333" style="stop-color:rgb(89.803922%,55.686277%,18.431373%);stop-opacity:1;"/>
<stop offset="0.6666" style="stop-color:rgb(85.882354%,17.647059%,44.705883%);stop-opacity:1;"/>
<stop offset="1" style="stop-color:rgb(100%,0%,100%);stop-opacity:1;"/>
</linearGradient>
</defs>
<g id="surface1">
<path style=" stroke:none;fill-rule:nonzero;fill:url(#linear0);" d="M 64.898438 221.09375 L 49.386719 194.222656 C 48.90625 193.359375 48.90625 191.929688 49.398438 191.078125 L 66.625 161.25 C 67.121094 160.390625 68.386719 159.660156 69.378906 159.660156 L 103.824219 159.660156 C 104.816406 159.660156 106.078125 160.390625 106.578125 161.25 L 123.800781 191.078125 C 124.296875 191.9375 124.296875 193.390625 123.800781 194.257812 L 106.578125 224.085938 C 106.089844 224.929688 104.871094 225.636719 103.890625 225.667969 L 72.890625 225.667969 C 69.96875 225.640625 66.414062 223.605469 64.898438 221.09375 Z M 176.761719 159.714844 L 142.449219 100.28125 C 141.765625 99.105469 140.046875 98.109375 138.679688 98.109375 L 70.050781 98.109375 C 68.6875 98.109375 66.964844 99.105469 66.28125 100.28125 L 31.964844 159.714844 C 31.28125 160.890625 31.28125 162.886719 31.964844 164.066406 L 42.023438 181.492188 L 59.59375 151.058594 C 60.390625 149.667969 62.347656 148.546875 63.945312 148.546875 L 109.167969 148.546875 C 110.765625 148.546875 112.722656 149.675781 113.519531 151.058594 L 136.132812 190.21875 C 136.933594 191.605469 136.933594 193.859375 136.132812 195.246094 L 118.5625 225.675781 L 138.664062 225.675781 C 140.023438 225.675781 141.75 224.679688 142.433594 223.503906 L 176.75 164.070312 C 177.4375 162.886719 177.4375 160.890625 176.761719 159.714844 Z M 239.050781 120.398438 L 186.394531 29.191406 C 184.90625 26.613281 181.25 24.5 178.273438 24.5 L 72.953125 24.5 C 69.976562 24.5 66.320312 26.613281 64.832031 29.191406 L 12.175781 120.398438 C 10.6875 122.976562 10.6875 127.199219 12.175781 129.777344 L 24.242188 150.679688 L 59.242188 90.0625 C 60.230469 88.351562 62.640625 86.964844 64.609375 86.964844 L 144.078125 86.964844 C 146.054688 86.964844 148.457031 88.351562 149.445312 90.0625 L 189.183594 158.886719 C 190.171875 160.601562 190.171875 163.375 189.183594 165.085938 L 154.199219 225.675781 L 178.273438 225.675781 C 181.25 225.675781 184.90625 223.5625 186.394531 220.984375 L 239.050781 129.777344 C 240.539062 127.199219 240.539062 122.976562 239.050781 120.398438 Z M 239.050781 120.398438 "/>
</g>
</svg>
