<svg height="250" viewBox="0 0 250 250" width="250" xmlns="http://www.w3.org/2000/svg" xmlns:xlink="http://www.w3.org/1999/xlink"><linearGradient id="a" gradientUnits="userSpaceOnUse" x1="68.33486817143" x2="182.88854911805" y1="224.29462351209" y2="25.88189188681"><stop offset=".00202893" stop-color="#ffdc00"/><stop offset=".3333" stop-color="#e58e2f"/><stop offset=".6666" stop-color="#db2d72"/><stop offset="1" stop-color="#f0f"/></linearGradient><path d="m64.898438 221.09375-15.511719-26.871094c-.480469-.863281-.480469-2.292968.011719-3.144531l17.226562-29.828125c.496094-.859375 1.761719-1.589844 2.753906-1.589844h34.445313c.992187 0 2.253906.730469 2.753906 1.589844l17.222656 29.828125c.496094.859375.496094 2.3125 0 3.179687l-17.222656 29.828126c-.488281.84375-1.707031 1.550781-2.6875 1.582031h-31c-2.921875-.027344-6.476563-2.0625-7.992187-4.574219zm111.863281-61.378906-34.3125-59.433594c-.683594-1.175781-2.402344-2.171875-3.769531-2.171875h-68.628907c-1.363281 0-3.085937.996094-3.769531 2.171875l-34.316406 59.433594c-.683594 1.175781-.683594 3.171875 0 4.351562l10.058594 17.425782 17.570312-30.433594c.796875-1.390625 2.753906-2.511719 4.351562-2.511719h45.222657c1.597656 0 3.554687 1.128906 4.351562 2.511719l22.613281 39.160156c.800782 1.386719.800782 3.640625 0 5.027344l-17.570312 30.429687h20.101562c1.359376 0 3.085938-.996093 3.769532-2.171875l34.316406-59.433594c.6875-1.183593.6875-3.179687.011719-4.355468zm62.289062-39.316406-52.65625-91.207032c-1.488281-2.578125-5.144531-4.691406-8.121093-4.691406h-105.320313c-2.976563 0-6.632813 2.113281-8.121094 4.691406l-52.65625 91.207032c-1.488281 2.578124-1.488281 6.800781 0 9.378906l12.066407 20.902344 35-60.617188c.988281-1.710938 3.398437-3.097656 5.367187-3.097656h79.46875c1.976563 0 4.378906 1.386718 5.367187 3.097656l39.738282 68.824219c.988281 1.714843.988281 4.488281 0 6.199219l-34.984375 60.589843h24.074219c2.976562 0 6.632812-2.113281 8.121093-4.691406l52.65625-91.207031c1.488281-2.578125 1.488281-6.800782 0-9.378906zm0 0" fill="url(#a)"/></svg>