
<svg xmlns="http://www.w3.org/2000/svg" xmlns:xlink="http://www.w3.org/1999/xlink" width="250px" height="250px" viewBox="0 0 250 250" version="1.1">
<g id="surface1">
<path style=" stroke:none;fill-rule:evenodd;fill:rgb(98.431373%,98.431373%,98.823529%);fill-opacity:1;" d="M 86.597656 86.597656 C 62.742188 110.453125 62.5 110.75 62.5 116.09375 C 62.5 123.128906 66.136719 128.242188 72.496094 130.148438 C 76.242188 131.269531 78.207031 131.261719 80.984375 130.109375 C 86.171875 127.960938 129.617188 83.910156 130.648438 79.753906 C 132.820312 71.015625 125.433594 62.515625 115.660156 62.503906 C 110.878906 62.5 109.816406 63.382812 86.597656 86.597656 M 124.375 106.753906 C 118.921875 109.164062 106.722656 122.507812 105.695312 127.183594 C 104.5625 132.34375 107.917969 139.503906 112.605469 141.929688 C 114.542969 142.929688 118.222656 143.75 120.785156 143.75 C 124.90625 143.75 126.5 142.695312 134.597656 134.597656 C 142.695312 126.5 143.75 124.90625 143.75 120.785156 C 143.75 114.277344 140.597656 108.871094 135.582031 106.777344 C 130.4375 104.625 129.199219 104.625 124.375 106.753906 M 142.847656 142.847656 C 118.992188 166.703125 118.75 167 118.75 172.34375 C 118.75 179.378906 122.386719 184.492188 128.746094 186.398438 C 132.492188 187.519531 134.457031 187.511719 137.234375 186.359375 C 142.421875 184.210938 185.867188 140.160156 186.898438 136.003906 C 189.070312 127.265625 181.683594 118.765625 171.910156 118.753906 C 167.128906 118.75 166.066406 119.632812 142.847656 142.847656 "/>
<path style=" stroke:none;fill-rule:evenodd;fill:rgb(42.352942%,17.254902%,95.686275%);fill-opacity:1;" d="M 0 125.007812 L 0 250.011719 L 125.3125 249.695312 L 250.625 249.375 L 250.945312 124.6875 L 251.261719 0 L 0 0 L 0 125.007812 M 0.601562 125.625 C 0.601562 194.375 0.753906 222.683594 0.9375 188.53125 C 1.121094 154.382812 1.121094 98.132812 0.9375 63.53125 C 0.753906 28.933594 0.601562 56.875 0.601562 125.625 M 86.597656 86.597656 C 62.742188 110.453125 62.5 110.75 62.5 116.09375 C 62.5 123.128906 66.136719 128.242188 72.496094 130.148438 C 76.242188 131.269531 78.207031 131.261719 80.984375 130.109375 C 86.171875 127.960938 129.617188 83.910156 130.648438 79.753906 C 132.820312 71.015625 125.433594 62.515625 115.660156 62.503906 C 110.878906 62.5 109.816406 63.382812 86.597656 86.597656 M 124.375 106.753906 C 118.921875 109.164062 106.722656 122.507812 105.695312 127.183594 C 104.5625 132.34375 107.917969 139.503906 112.605469 141.929688 C 114.542969 142.929688 118.222656 143.75 120.785156 143.75 C 124.90625 143.75 126.5 142.695312 134.597656 134.597656 C 142.695312 126.5 143.75 124.90625 143.75 120.785156 C 143.75 114.277344 140.597656 108.871094 135.582031 106.777344 C 130.4375 104.625 129.199219 104.625 124.375 106.753906 M 142.847656 142.847656 C 118.992188 166.703125 118.75 167 118.75 172.34375 C 118.75 179.378906 122.386719 184.492188 128.746094 186.398438 C 132.492188 187.519531 134.457031 187.511719 137.234375 186.359375 C 142.421875 184.210938 185.867188 140.160156 186.898438 136.003906 C 189.070312 127.265625 181.683594 118.765625 171.910156 118.753906 C 167.128906 118.75 166.066406 119.632812 142.847656 142.847656 "/>
</g>
</svg>
