<svg height="250" viewBox="0 0 250 250" width="250" xmlns="http://www.w3.org/2000/svg"><g fill-rule="evenodd"><path d="m86.597656 86.597656c-23.855468 23.855469-24.097656 24.152344-24.097656 29.496094 0 7.035156 3.636719 12.148438 9.996094 14.054688 3.746094 1.121093 5.710937 1.113281 8.488281-.039063 5.1875-2.148437 48.632813-46.199219 49.664063-50.355469 2.171874-8.738281-5.214844-17.238281-14.988282-17.25-4.78125-.003906-5.84375.878906-29.0625 24.09375m37.777344 20.15625c-5.453125 2.410156-17.652344 15.753906-18.679688 20.429688-1.132812 5.160156 2.222657 12.320312 6.910157 14.746094 1.9375 1 5.617187 1.820312 8.179687 1.820312 4.121094 0 5.714844-1.054688 13.8125-9.152344s9.152344-9.691406 9.152344-13.8125c0-6.507812-3.152344-11.914062-8.167969-14.007812-5.144531-2.152344-6.382812-2.152344-11.207031-.023438m18.472656 36.09375c-23.855468 23.855469-24.097656 24.152344-24.097656 29.496094 0 7.035156 3.636719 12.148438 9.996094 14.054688 3.746094 1.121093 5.710937 1.113281 8.488281-.039063 5.1875-2.148437 48.632813-46.199219 49.664063-50.355469 2.171874-8.738281-5.214844-17.238281-14.988282-17.25-4.78125-.003906-5.84375.878906-29.0625 24.09375" fill="#fbfbfc"/><path d="m0 125.007812v125.003907l125.3125-.316407 125.3125-.320312.320312-124.6875.316407-124.6875h-251.261719zm.601562.617188c0 68.75.152344 97.058594.335938 62.90625.183594-34.148438.183594-90.398438 0-125-.183594-34.597656-.335938-6.65625-.335938 62.09375m85.996094-39.027344c-23.855468 23.855469-24.097656 24.152344-24.097656 29.496094 0 7.035156 3.636719 12.148438 9.996094 14.054688 3.746094 1.121093 5.710937 1.113281 8.488281-.039063 5.1875-2.148437 48.632813-46.199219 49.664063-50.355469 2.171874-8.738281-5.214844-17.238281-14.988282-17.25-4.78125-.003906-5.84375.878906-29.0625 24.09375m37.777344 20.15625c-5.453125 2.410156-17.652344 15.753906-18.679688 20.429688-1.132812 5.160156 2.222657 12.320312 6.910157 14.746094 1.9375 1 5.617187 1.820312 8.179687 1.820312 4.121094 0 5.714844-1.054688 13.8125-9.152344s9.152344-9.691406 9.152344-13.8125c0-6.507812-3.152344-11.914062-8.167969-14.007812-5.144531-2.152344-6.382812-2.152344-11.207031-.023438m18.472656 36.09375c-23.855468 23.855469-24.097656 24.152344-24.097656 29.496094 0 7.035156 3.636719 12.148438 9.996094 14.054688 3.746094 1.121093 5.710937 1.113281 8.488281-.039063 5.1875-2.148437 48.632813-46.199219 49.664063-50.355469 2.171874-8.738281-5.214844-17.238281-14.988282-17.25-4.78125-.003906-5.84375.878906-29.0625 24.09375" fill="#6c2cf4"/></g></svg>