
<svg xmlns="http://www.w3.org/2000/svg" xmlns:xlink="http://www.w3.org/1999/xlink" width="250px" height="250px" viewBox="0 0 250 250" version="1.1">
<g id="surface1">
<path style="fill-rule:nonzero;fill:rgb(0%,0%,0%);fill-opacity:1;stroke-width:12.5;stroke-linecap:butt;stroke-linejoin:miter;stroke:rgb(100%,100%,100%);stroke-opacity:1;stroke-miterlimit:4;" d="M 0 0 L 512 0 L 512 512 L 0 512 Z M 18.168 248.008 C 17.568 255.008 17.928 261.936 18.384 268.944 C 19.52 296.192 25.744 323.232 36.496 348.288 C 42.648 363.592 50.912 378.08 60.368 391.568 C 87.52 430.968 126.816 461.44 171.48 478.488 C 188.816 484.528 206.048 489.72 224.36 491.824 C 239.552 493.8 254.72 493.936 270 493.368 C 301.08 492.032 332.088 483.232 360.096 469.888 C 394.008 453.28 423.664 428.56 446.4 398.44 C 459.208 381.344 469.6 362.52 477.56 342.704 C 483.744 325.8 488.816 308.944 491.264 291.048 C 494.728 265.72 494.392 239.808 490.12 214.6 C 487.536 200.488 483.56 186.752 478.648 173.288 C 457.96 118.248 416.272 71.72 363.848 45.08 C 345.504 35.72 325.88 28.568 305.672 24.488 C 285.664 19.728 264.512 18.688 244.008 19.456 C 235.504 19.928 226.952 20.576 218.544 21.968 C 206.496 24.28 194.528 26.728 182.92 30.752 C 170.784 34.192 159.312 39.32 148.088 45.032 C 131.56 53.048 117.104 63.456 102.792 74.872 C 72.416 100.448 48.288 133.752 33.912 170.8 C 29.032 184.176 24.816 197.768 22.032 211.76 C 19.824 223.728 18.592 235.84 18.168 248.008 Z M 18.168 248.008 " transform="matrix(0.488281,0,0,0.488281,0,0)"/>
<path style="fill-rule:nonzero;fill:rgb(0%,0%,0%);fill-opacity:1;stroke-width:12.5;stroke-linecap:butt;stroke-linejoin:miter;stroke:rgb(10.588235%,10.980392%,10.196079%);stroke-opacity:1;stroke-miterlimit:4;" d="M 244.008 19.456 C 264.512 18.688 285.664 19.728 305.672 24.488 C 325.88 28.568 345.504 35.72 363.848 45.08 C 416.272 71.72 457.96 118.248 478.648 173.288 C 483.56 186.752 487.536 200.488 490.12 214.6 C 494.392 239.808 494.728 265.72 491.264 291.048 C 488.816 308.944 483.744 325.8 477.56 342.704 C 469.6 362.52 459.208 381.344 446.4 398.44 C 423.664 428.56 394.008 453.28 360.096 469.888 C 332.088 483.232 301.08 492.032 270 493.368 C 254.72 493.936 239.552 493.8 224.36 491.824 C 206.048 489.72 188.816 484.528 171.48 478.488 C 126.816 461.44 87.52 430.968 60.368 391.568 C 50.912 378.08 42.648 363.592 36.496 348.288 C 25.744 323.232 19.52 296.192 18.384 268.944 C 17.928 261.936 17.568 255.008 18.168 248.008 C 18.592 235.84 19.824 223.728 22.032 211.76 C 24.816 197.768 29.032 184.176 33.912 170.8 C 48.288 133.752 72.416 100.448 102.792 74.872 C 117.104 63.456 131.56 53.048 148.088 45.032 C 159.312 39.32 170.784 34.192 182.92 30.752 C 194.528 26.728 206.496 24.28 218.544 21.968 C 226.952 20.576 235.504 19.928 244.008 19.456 Z M 195.768 104.944 C 204.176 105.456 212.576 104.44 221 104.84 C 231.352 105.36 241.76 105.12 252.048 106.16 C 265.376 107.28 278.64 109.528 291.72 112.32 C 301.752 114.72 312.032 117.432 321.456 121.672 C 327.456 124.336 333.448 127.264 338.48 131.536 C 350.72 142.464 360.728 155.2 365.752 171.024 C 366.872 174.4 367.512 178 368.912 181.264 C 370.128 183.92 373.456 185.616 375.84 187.136 C 376.224 174.392 375.232 161.488 376.472 148.648 C 376.712 145.08 377.328 141.96 375.16 138.816 C 368.784 129.352 359.04 121.6 349.56 115.392 C 337.248 107.152 324.096 100.328 309.904 96 C 297.904 91.776 285.64 90.128 273.048 88.912 C 260.768 87.84 248.888 89.072 236.784 91 C 226.832 92.64 217.568 95.728 208.112 99.112 C 203.808 100.656 199.648 102.496 195.768 104.944 Z M 273.888 206.92 C 271.912 202.44 269.408 198.256 266.968 194.016 C 253.52 170.472 240.168 146.872 226.704 123.328 C 224.368 119.376 222.432 115.04 219.648 111.392 C 218.56 109.824 216.792 110.08 215.08 109.832 C 210.168 109.632 205.168 109.6 200.272 110.088 C 201.832 114.624 204.592 118.896 206.84 123.12 C 216.88 141.728 226.792 160.352 236.84 178.952 C 238.64 182.152 240.224 186.472 243.6 188.272 C 247.264 190.392 251.2 191.992 254.848 194.16 C 261.568 197.952 267.32 202.912 273.888 206.92 Z M 302.672 228.072 C 299.584 221.768 295.92 215.76 292.4 209.616 C 275.592 180.384 258.952 151.056 242.28 121.744 C 240.144 118.256 238.44 113.672 235.312 111 C 232.112 110.12 228.552 110.256 225.248 110.336 C 227.376 115.616 230.832 120.464 233.584 125.448 C 248.464 151.528 263.592 177.472 278.488 203.536 C 281.504 208.624 284.24 215.288 289.088 218.792 C 293.456 222.08 298.016 225.192 302.672 228.072 Z M 129.128 127.04 C 131.56 132.992 135.184 138.312 138.048 144.088 C 142.784 152.44 146.864 161.248 152.112 169.28 C 158.792 169.592 165.328 168.368 172.008 168.912 C 177.616 169.376 183.984 169.616 189.232 171.768 C 192.56 173.184 194.432 175.712 197.04 178.04 C 198.648 179.912 201.904 179.208 204.144 179.392 C 202.248 173.752 199.08 168.992 196.16 163.88 C 188.008 149.376 179.44 135.12 171.368 120.576 C 170.032 118.168 168.488 115.888 166.888 113.64 C 161.232 114.384 155.744 115.824 150.24 117.296 C 142.8 119.32 135.048 121.904 129.128 127.04 Z M 263.776 113.672 C 264.792 115.792 265.824 117.888 267.056 119.888 C 288.144 152.464 309.232 185.104 330.248 217.72 C 333.696 222.912 336.672 228.704 340.88 233.192 C 346.04 231.488 350.656 229.08 354.56 225.24 C 351.616 219.696 348.04 214.608 344.704 209.312 C 327.776 182.552 310.656 155.912 293.752 129.136 C 291.424 125.568 289.424 121.6 286.632 118.368 C 285.24 116.688 283.024 116.472 281.024 116.008 C 275.32 115.032 269.528 114.224 263.776 113.672 Z M 376.392 318.808 C 375.408 327.208 374.784 336.736 377.136 344.952 C 378.48 349.392 381.168 352.608 385.248 354.784 C 393.608 359.472 404.144 360.112 412.76 355.728 C 421.96 351.112 429.08 343.16 434.8 334.76 C 443.36 322.152 448.496 308.224 452.496 293.608 C 454.352 286.208 455.192 278.464 456.048 270.888 C 456.944 262.88 455.848 254.72 454.088 246.888 C 452.672 240.72 449.888 235.408 447.272 229.712 C 443.08 220.176 437.8 211.472 432.336 202.632 C 425.424 191.744 417.992 181.232 409.832 171.24 C 403.24 163.136 396.432 154.168 387.936 148.008 C 386.368 156.36 386.712 165.512 386.768 174 C 387.696 194.304 387.872 214.68 387.56 235 C 386.92 263.904 380.048 290.464 376.392 318.808 Z M 139.616 207.192 C 139.928 200.096 135.952 193.88 136.6 186.992 C 137.04 184.064 139.32 182.944 141.824 182 C 157.048 177.264 171.28 178.36 186.864 178.4 C 186.688 177.432 186.544 176.464 186.416 175.48 C 182.608 174.648 178.888 174.304 175 174.288 C 163.44 174.176 152.168 173.808 140.928 176.928 C 137.72 177.88 133.848 179.4 131.824 182.2 C 131.072 185.168 132.248 188.768 132.864 191.72 C 134.52 197.448 135.072 202.944 139.616 207.192 Z M 168.28 223.352 C 163.44 225.448 158.272 226.648 153.032 227.112 C 149.368 226.24 145.936 225.344 142.84 223.128 C 138.08 219.888 134.96 214.6 132.312 209.616 C 129.552 204.496 128.464 199.088 126.472 193.696 C 120.56 192.552 113.968 194.256 108.512 196.576 C 95.68 202.352 86.848 213.312 80.816 225.72 C 75.328 237.872 72.336 250.768 71.008 264 C 69.28 276.576 69.2 289.24 69.696 301.904 C 70.864 317.04 73.392 331.84 78.92 346.04 C 83.104 357.696 89.768 369.68 100.064 376.992 C 103.616 379.664 107.608 381.272 111.92 382.28 C 110.792 375.504 108.416 369.272 106.712 362.656 C 104.768 355.36 103.616 348.128 102.32 340.688 C 101.264 334.488 100.32 328.32 100.368 322.008 C 100.4 314.872 99.992 307.552 100.912 300.448 C 102.752 288.96 106.632 277.424 114.848 268.872 C 120.528 262.792 127.912 259.12 135.84 256.896 C 140.64 255.56 146.008 255.616 151.032 255.08 C 151.376 250.768 151.24 246.448 151.528 242.144 C 151.88 237.952 153.616 234.368 155.712 230.792 C 155.952 239.104 154.448 246.512 157.512 254.6 C 163.024 256.44 168.8 256.952 174.32 258.72 C 181.24 260.912 188.048 263.888 194.144 267.856 C 202.112 273.112 209.552 278.976 215.696 286.336 C 230.328 302.528 240.208 321.184 251.032 339.928 C 260 356.016 269.424 373.392 282.072 386.92 C 289.056 394.448 297.768 400.144 307.936 402.2 C 319.808 405.152 332.6 402.632 342.552 395.584 C 353.568 387.672 362.04 376.336 368.6 364.6 C 369.984 361.768 371.672 358.736 370.52 355.528 C 368.736 350.2 366.248 345.424 365.664 339.712 C 364.68 328.464 365.376 317.24 367.424 306.144 C 369.728 291.52 372.08 276.912 374.472 262.312 C 375.376 256.28 376.328 250.336 375.92 244.208 C 371.744 240.848 367.008 238.088 362.08 236 C 359.752 234.704 357.728 237.36 355.752 238.336 C 348.272 243.088 339.76 244.72 331 244.752 C 323.88 244.784 317.072 245.168 310.208 242.976 C 297.584 239.008 287.208 231.152 276.888 223.16 C 266.176 214.976 254.976 206.256 243 200.08 C 228.52 192.592 212.368 188.768 196.064 190.488 C 195.032 190.6 194.328 191.008 193.984 191.712 C 192.36 194.28 191.184 197.136 189.728 199.808 C 186.992 205.032 183.104 209.8 179.12 214.12 C 175.888 217.488 172.336 221.008 168.28 223.352 Z M 112.408 331.008 C 112.576 341.928 114.312 352.672 116.704 363.296 C 118.512 372.08 123.832 380.552 130.552 386.416 C 138.976 393.008 148.232 398.632 157.792 403.408 C 185.64 418.384 218.48 425.6 249.952 421.024 C 256.92 420.16 263.8 418.712 270.48 416.528 C 277.768 414.144 284.728 412.152 291.312 408.08 C 285.504 403.288 279.208 399.568 274.12 393.888 C 258.688 377.056 247.88 355.552 236.592 335.928 C 229.216 323.856 222.048 310.816 213.024 299.992 C 207.688 293.432 201.808 287.128 195.208 281.832 C 181.216 270.656 162.768 265.136 144.952 266.6 C 136.816 267.296 129.048 270.392 123.368 276.36 C 117.28 282.36 114.576 290.288 112.728 298.432 C 110.632 308.96 111.168 320.392 112.408 331.008 Z M 112.408 331.008 " transform="matrix(0.488281,0,0,0.488281,0,0)"/>
<path style="fill-rule:nonzero;fill:rgb(0%,0%,0%);fill-opacity:1;stroke-width:12.5;stroke-linecap:butt;stroke-linejoin:miter;stroke:rgb(100%,100%,100%);stroke-opacity:1;stroke-miterlimit:4;" d="M 273.048 88.912 C 285.64 90.128 297.904 91.776 309.904 96 C 324.096 100.328 337.248 107.152 349.56 115.392 C 359.04 121.6 368.784 129.352 375.16 138.816 C 377.328 141.96 376.712 145.08 376.472 148.648 C 375.232 161.488 376.224 174.392 375.84 187.136 C 373.456 185.616 370.128 183.92 368.912 181.264 C 367.512 178 366.872 174.4 365.752 171.024 C 360.728 155.2 350.72 142.464 338.48 131.536 C 333.448 127.264 327.456 124.336 321.456 121.672 C 312.032 117.432 301.752 114.72 291.72 112.32 C 278.64 109.528 265.376 107.28 252.048 106.16 C 241.76 105.12 231.352 105.36 221 104.84 C 212.576 104.44 204.176 105.456 195.768 104.944 C 199.648 102.496 203.808 100.656 208.112 99.112 C 217.568 95.728 226.832 92.64 236.784 91 C 248.888 89.072 260.768 87.84 273.048 88.912 Z M 273.048 88.912 " transform="matrix(0.488281,0,0,0.488281,0,0)"/>
<path style="fill-rule:nonzero;fill:rgb(0%,0%,0%);fill-opacity:1;stroke-width:12.5;stroke-linecap:butt;stroke-linejoin:miter;stroke:rgb(100%,100%,100%);stroke-opacity:1;stroke-miterlimit:4;" d="M 200.272 110.088 C 205.168 109.6 210.168 109.632 215.08 109.832 C 216.792 110.08 218.56 109.824 219.648 111.392 C 222.432 115.04 224.368 119.376 226.704 123.328 C 240.168 146.872 253.52 170.472 266.968 194.016 C 269.408 198.256 271.912 202.44 273.888 206.92 C 267.32 202.912 261.568 197.952 254.848 194.16 C 251.2 191.992 247.264 190.392 243.6 188.272 C 240.224 186.472 238.64 182.152 236.84 178.952 C 226.792 160.352 216.88 141.728 206.84 123.12 C 204.592 118.896 201.832 114.624 200.272 110.088 Z M 200.272 110.088 " transform="matrix(0.488281,0,0,0.488281,0,0)"/>
<path style="fill-rule:nonzero;fill:rgb(0%,0%,0%);fill-opacity:1;stroke-width:12.5;stroke-linecap:butt;stroke-linejoin:miter;stroke:rgb(100%,100%,100%);stroke-opacity:1;stroke-miterlimit:4;" d="M 225.248 110.336 C 228.552 110.256 232.112 110.12 235.312 111 C 238.44 113.672 240.144 118.256 242.28 121.744 C 258.952 151.056 275.592 180.384 292.4 209.616 C 295.92 215.76 299.584 221.768 302.672 228.072 C 298.016 225.192 293.456 222.08 289.088 218.792 C 284.24 215.288 281.504 208.624 278.488 203.536 C 263.592 177.472 248.464 151.528 233.584 125.448 C 230.832 120.464 227.376 115.616 225.248 110.336 Z M 225.248 110.336 " transform="matrix(0.488281,0,0,0.488281,0,0)"/>
<path style="fill-rule:nonzero;fill:rgb(0%,0%,0%);fill-opacity:1;stroke-width:12.5;stroke-linecap:butt;stroke-linejoin:miter;stroke:rgb(100%,100%,100%);stroke-opacity:1;stroke-miterlimit:4;" d="M 166.888 113.64 C 168.488 115.888 170.032 118.168 171.368 120.576 C 179.44 135.12 188.008 149.376 196.16 163.88 C 199.08 168.992 202.248 173.752 204.144 179.392 C 201.904 179.208 198.648 179.912 197.04 178.04 C 194.432 175.712 192.56 173.184 189.232 171.768 C 183.984 169.616 177.616 169.376 172.008 168.912 C 165.328 168.368 158.792 169.592 152.112 169.28 C 146.864 161.248 142.784 152.44 138.048 144.088 C 135.184 138.312 131.56 132.992 129.128 127.04 C 135.048 121.904 142.8 119.32 150.24 117.296 C 155.744 115.824 161.232 114.384 166.888 113.64 Z M 166.888 113.64 " transform="matrix(0.488281,0,0,0.488281,0,0)"/>
<path style="fill-rule:nonzero;fill:rgb(0%,0%,0%);fill-opacity:1;stroke-width:12.5;stroke-linecap:butt;stroke-linejoin:miter;stroke:rgb(100%,100%,100%);stroke-opacity:1;stroke-miterlimit:4;" d="M 263.776 113.672 C 269.528 114.224 275.32 115.032 281.024 116.008 C 283.024 116.472 285.24 116.688 286.632 118.368 C 289.424 121.6 291.424 125.568 293.752 129.136 C 310.656 155.912 327.776 182.552 344.704 209.312 C 348.04 214.608 351.616 219.696 354.56 225.24 C 350.656 229.08 346.04 231.488 340.88 233.192 C 336.672 228.704 333.696 222.912 330.248 217.72 C 309.232 185.104 288.144 152.464 267.056 119.888 C 265.824 117.888 264.792 115.792 263.776 113.672 Z M 263.776 113.672 " transform="matrix(0.488281,0,0,0.488281,0,0)"/>
<path style="fill-rule:nonzero;fill:rgb(0%,0%,0%);fill-opacity:1;stroke-width:12.5;stroke-linecap:butt;stroke-linejoin:miter;stroke:rgb(100%,100%,100%);stroke-opacity:1;stroke-miterlimit:4;" d="M 387.936 148.008 C 396.432 154.168 403.24 163.136 409.832 171.24 C 417.992 181.232 425.424 191.744 432.336 202.632 C 437.8 211.472 443.08 220.176 447.272 229.712 C 444.368 244.272 441.048 258.248 434.832 271.808 C 427.592 288.04 416.752 303.728 402.224 314.224 C 395.152 319.136 386.12 323.088 377.352 322.712 C 377.024 321.408 376.704 320.112 376.392 318.808 C 380.048 290.464 386.92 263.904 387.56 235 C 387.872 214.68 387.696 194.304 386.768 174 C 386.712 165.512 386.368 156.36 387.936 148.008 Z M 387.936 148.008 " transform="matrix(0.488281,0,0,0.488281,0,0)"/>
<path style="fill-rule:nonzero;fill:rgb(0%,0%,0%);fill-opacity:1;stroke-width:12.5;stroke-linecap:butt;stroke-linejoin:miter;stroke:rgb(100%,100%,100%);stroke-opacity:1;stroke-miterlimit:4;" d="M 175 174.288 C 178.888 174.304 182.608 174.648 186.416 175.48 C 186.544 176.464 186.688 177.432 186.864 178.4 C 171.28 178.36 157.048 177.264 141.824 182 C 139.32 182.944 137.04 184.064 136.6 186.992 C 135.952 193.88 139.928 200.096 139.616 207.192 C 135.072 202.944 134.52 197.448 132.864 191.72 C 132.248 188.768 131.072 185.168 131.824 182.2 C 133.848 179.4 137.72 177.88 140.928 176.928 C 152.168 173.808 163.44 174.176 175 174.288 Z M 175 174.288 " transform="matrix(0.488281,0,0,0.488281,0,0)"/>
<path style="fill-rule:nonzero;fill:rgb(0%,0%,0%);fill-opacity:1;stroke-width:12.5;stroke-linecap:butt;stroke-linejoin:miter;stroke:rgb(100%,100%,100%);stroke-opacity:1;stroke-miterlimit:4;" d="M 196.064 190.488 C 212.368 188.768 228.52 192.592 243 200.08 C 254.976 206.256 266.176 214.976 276.888 223.16 C 287.208 231.152 297.584 239.008 310.208 242.976 C 317.072 245.168 323.88 244.784 331 244.752 C 339.76 244.72 348.272 243.088 355.752 238.336 C 361.088 240.2 368.12 242.712 371.608 247.4 C 372.232 251.952 370.992 256.88 370.52 261.424 C 369.056 273.712 367.528 285.968 365.184 298.12 C 363.272 307.888 362.192 317.968 359.512 327.568 C 357.792 333.64 354.384 338.544 349.368 342.36 C 343.368 347.056 336.352 349.92 328.76 350.72 C 320.488 351.592 312.368 351.136 304.96 347.024 C 296.384 342.168 288.8 335.088 281.832 328.168 C 264.656 310.72 249.408 291.104 233.4 272.592 C 226.8 265.08 219.96 257.104 212.128 250.864 C 200.872 242.048 187.392 236.8 173.312 234.672 C 167.888 233.92 162.384 234 156.92 233.48 C 157.104 231.592 157.288 229.712 157.52 227.832 C 161.136 226.512 164.912 225.208 168.28 223.352 C 172.336 221.008 175.888 217.488 179.12 214.12 C 183.104 209.8 186.992 205.032 189.728 199.808 C 191.184 197.136 192.36 194.28 193.984 191.712 C 194.328 191.008 195.032 190.6 196.064 190.488 Z M 196.064 190.488 " transform="matrix(0.488281,0,0,0.488281,0,0)"/>
<path style="fill-rule:nonzero;fill:rgb(0%,0%,0%);fill-opacity:1;stroke-width:12.5;stroke-linecap:butt;stroke-linejoin:miter;stroke:rgb(100%,100%,100%);stroke-opacity:1;stroke-miterlimit:4;" d="M 126.472 193.696 C 128.464 199.088 129.552 204.496 132.312 209.616 C 134.96 214.6 138.08 219.888 142.84 223.128 C 145.936 225.344 149.368 226.24 153.032 227.112 C 154.416 228.16 155.272 229.056 155.712 230.792 C 150.928 236.24 145.008 235.64 138.576 237.56 C 126.76 240.832 115.264 246.88 108.144 257.192 C 99.264 269.632 95.16 286.04 93.36 301.032 C 91.696 313.152 92.864 324.952 94.248 337.032 C 94.968 343.008 96.552 349.752 95.584 355.728 C 95.232 357.68 94.24 359.104 92.072 358.72 C 84.88 357.92 81.712 351.904 78.92 346.04 C 73.392 331.84 70.864 317.04 69.696 301.904 C 69.2 289.24 69.28 276.576 71.008 264 C 72.336 250.768 75.328 237.872 80.816 225.72 C 86.848 213.312 95.68 202.352 108.512 196.576 C 113.968 194.256 120.56 192.552 126.472 193.696 Z M 126.472 193.696 " transform="matrix(0.488281,0,0,0.488281,0,0)"/>
<path style="fill-rule:nonzero;fill:rgb(0%,0%,0%);fill-opacity:1;stroke-width:12.5;stroke-linecap:butt;stroke-linejoin:miter;stroke:rgb(82.352942%,82.352942%,82.352942%);stroke-opacity:1;stroke-miterlimit:4;" d="M 168.28 223.352 C 164.912 225.208 161.136 226.512 157.52 227.832 C 157.288 229.712 157.104 231.592 156.92 233.48 C 162.384 234 167.888 233.92 173.312 234.672 C 187.392 236.8 200.872 242.048 212.128 250.864 C 219.96 257.104 226.8 265.08 233.4 272.592 C 249.408 291.104 264.656 310.72 281.832 328.168 C 288.8 335.088 296.384 342.168 304.96 347.024 C 312.368 351.136 320.488 351.592 328.76 350.72 C 336.352 349.92 343.368 347.056 349.368 342.36 C 354.384 338.544 357.792 333.64 359.512 327.568 C 362.192 317.968 363.272 307.888 365.184 298.12 C 367.528 285.968 369.056 273.712 370.52 261.424 C 370.992 256.88 372.232 251.952 371.608 247.4 C 368.12 242.712 361.088 240.2 355.752 238.336 C 357.728 237.36 359.752 234.704 362.08 236 C 367.008 238.088 371.744 240.848 375.92 244.208 C 376.328 250.336 375.376 256.28 374.472 262.312 C 372.08 276.912 369.728 291.52 367.424 306.144 C 365.376 317.24 364.68 328.464 365.664 339.712 C 366.248 345.424 368.736 350.2 370.52 355.528 C 371.672 358.736 369.984 361.768 368.6 364.6 C 362.04 376.336 353.568 387.672 342.552 395.584 C 332.6 402.632 319.808 405.152 307.936 402.2 C 297.768 400.144 289.056 394.448 282.072 386.92 C 269.424 373.392 260 356.016 251.032 339.928 C 240.208 321.184 230.328 302.528 215.696 286.336 C 209.552 278.976 202.112 273.112 194.144 267.856 C 188.048 263.888 181.24 260.912 174.32 258.72 C 168.8 256.952 163.024 256.44 157.512 254.6 C 154.448 246.512 155.952 239.104 155.712 230.792 C 155.272 229.056 154.416 228.16 153.032 227.112 C 158.272 226.648 163.44 225.448 168.28 223.352 Z M 168.28 223.352 " transform="matrix(0.488281,0,0,0.488281,0,0)"/>
<path style="fill-rule:nonzero;fill:rgb(0%,0%,0%);fill-opacity:1;stroke-width:12.5;stroke-linecap:butt;stroke-linejoin:miter;stroke:rgb(82.352942%,82.352942%,82.352942%);stroke-opacity:1;stroke-miterlimit:4;" d="M 447.272 229.712 C 449.888 235.408 452.672 240.72 454.088 246.888 C 455.848 254.72 456.944 262.88 456.048 270.888 C 455.192 278.464 454.352 286.208 452.496 293.608 C 448.496 308.224 443.36 322.152 434.8 334.76 C 429.08 343.16 421.96 351.112 412.76 355.728 C 404.144 360.112 393.608 359.472 385.248 354.784 C 381.168 352.608 378.48 349.392 377.136 344.952 C 374.784 336.736 375.408 327.208 376.392 318.808 C 376.704 320.112 377.024 321.408 377.352 322.712 C 386.12 323.088 395.152 319.136 402.224 314.224 C 416.752 303.728 427.592 288.04 434.832 271.808 C 441.048 258.248 444.368 244.272 447.272 229.712 Z M 447.272 229.712 " transform="matrix(0.488281,0,0,0.488281,0,0)"/>
<path style="fill-rule:nonzero;fill:rgb(0%,0%,0%);fill-opacity:1;stroke-width:12.5;stroke-linecap:butt;stroke-linejoin:miter;stroke:rgb(82.352942%,82.352942%,82.352942%);stroke-opacity:1;stroke-miterlimit:4;" d="M 155.712 230.792 C 153.616 234.368 151.88 237.952 151.528 242.144 C 151.24 246.448 151.376 250.768 151.032 255.08 C 146.008 255.616 140.64 255.56 135.84 256.896 C 127.912 259.12 120.528 262.792 114.848 268.872 C 106.632 277.424 102.752 288.96 100.912 300.448 C 99.992 307.552 100.4 314.872 100.368 322.008 C 100.32 328.32 101.264 334.488 102.32 340.688 C 103.616 348.128 104.768 355.36 106.712 362.656 C 108.416 369.272 110.792 375.504 111.92 382.28 C 107.608 381.272 103.616 379.664 100.064 376.992 C 89.768 369.68 83.104 357.696 78.92 346.04 C 81.712 351.904 84.88 357.92 92.072 358.72 C 94.24 359.104 95.232 357.68 95.584 355.728 C 96.552 349.752 94.968 343.008 94.248 337.032 C 92.864 324.952 91.696 313.152 93.36 301.032 C 95.16 286.04 99.264 269.632 108.144 257.192 C 115.264 246.88 126.76 240.832 138.576 237.56 C 145.008 235.64 150.928 236.24 155.712 230.792 Z M 155.712 230.792 " transform="matrix(0.488281,0,0,0.488281,0,0)"/>
<path style="fill-rule:nonzero;fill:rgb(0%,0%,0%);fill-opacity:1;stroke-width:12.5;stroke-linecap:butt;stroke-linejoin:miter;stroke:rgb(100%,100%,100%);stroke-opacity:1;stroke-miterlimit:4;" d="M 144.952 266.6 C 162.768 265.136 181.216 270.656 195.208 281.832 C 201.808 287.128 207.688 293.432 213.024 299.992 C 222.048 310.816 229.216 323.856 236.592 335.928 C 236.144 338.2 235.768 340.352 234.416 342.304 C 227.32 352.08 218.112 360.168 206.912 364.88 C 198.112 368.672 188.528 369.552 179.048 369.76 C 169.112 369.936 159.264 368.992 150.088 364.888 C 141.664 361.104 134.064 354.944 127.648 348.336 C 122.232 342.816 118 336.384 112.408 331.008 C 111.168 320.392 110.632 308.96 112.728 298.432 C 114.576 290.288 117.28 282.36 123.368 276.36 C 129.048 270.392 136.816 267.296 144.952 266.6 Z M 144.952 266.6 " transform="matrix(0.488281,0,0,0.488281,0,0)"/>
<path style="fill-rule:nonzero;fill:rgb(0%,0%,0%);fill-opacity:1;stroke-width:12.5;stroke-linecap:butt;stroke-linejoin:miter;stroke:rgb(82.352942%,82.352942%,82.352942%);stroke-opacity:1;stroke-miterlimit:4;" d="M 112.408 331.008 C 118 336.384 122.232 342.816 127.648 348.336 C 134.064 354.944 141.664 361.104 150.088 364.888 C 159.264 368.992 169.112 369.936 179.048 369.76 C 188.528 369.552 198.112 368.672 206.912 364.88 C 218.112 360.168 227.32 352.08 234.416 342.304 C 235.768 340.352 236.144 338.2 236.592 335.928 C 247.88 355.552 258.688 377.056 274.12 393.888 C 279.208 399.568 285.504 403.288 291.312 408.08 C 284.728 412.152 277.768 414.144 270.48 416.528 C 263.8 418.712 256.92 420.16 249.952 421.024 C 218.48 425.6 185.64 418.384 157.792 403.408 C 148.232 398.632 138.976 393.008 130.552 386.416 C 123.832 380.552 118.512 372.08 116.704 363.296 C 114.312 352.672 112.576 341.928 112.408 331.008 Z M 112.408 331.008 " transform="matrix(0.488281,0,0,0.488281,0,0)"/>
<path style=" stroke:none;fill-rule:nonzero;fill:rgb(100%,100%,100%);fill-opacity:1;" d="M 0 0 L 250 0 L 250 250 L 0 250 Z M 8.871094 121.097656 C 8.578125 124.515625 8.753906 127.898438 8.976562 131.320312 C 9.53125 144.625 12.570312 157.828125 17.820312 170.0625 C 20.824219 177.535156 24.859375 184.609375 29.476562 191.195312 C 42.734375 210.433594 61.921875 225.3125 83.730469 233.636719 C 92.195312 236.585938 100.609375 239.121094 109.550781 240.148438 C 116.96875 241.113281 124.375 241.179688 131.835938 240.902344 C 147.011719 240.25 162.152344 235.953125 175.828125 229.4375 C 192.386719 221.328125 206.867188 209.257812 217.96875 194.550781 C 224.222656 186.203125 229.296875 177.011719 233.183594 167.335938 C 236.203125 159.082031 238.679688 150.851562 239.875 142.113281 C 241.566406 129.746094 241.402344 117.09375 239.316406 104.785156 C 238.054688 97.894531 236.113281 91.1875 233.714844 84.613281 C 223.613281 57.738281 203.257812 35.019531 177.660156 22.011719 C 168.703125 17.441406 159.121094 13.949219 149.253906 11.957031 C 139.484375 9.632812 129.15625 9.125 119.144531 9.5 C 114.992188 9.730469 110.816406 10.046875 106.710938 10.726562 C 100.828125 11.855469 94.984375 13.050781 89.316406 15.015625 C 83.390625 16.695312 77.789062 19.199219 72.308594 21.988281 C 64.238281 25.902344 57.179688 30.984375 50.191406 36.558594 C 35.359375 49.046875 23.578125 65.308594 16.558594 83.398438 C 14.175781 89.929688 12.117188 96.566406 10.757812 103.398438 C 9.679688 109.242188 9.078125 115.15625 8.871094 121.097656 Z M 8.871094 121.097656 "/>
<path style=" stroke:none;fill-rule:nonzero;fill:rgb(10.588235%,10.980392%,10.196079%);fill-opacity:1;" d="M 119.144531 9.5 C 129.15625 9.125 139.484375 9.632812 149.253906 11.957031 C 159.121094 13.949219 168.703125 17.441406 177.660156 22.011719 C 203.257812 35.019531 223.613281 57.738281 233.714844 84.613281 C 236.113281 91.1875 238.054688 97.894531 239.316406 104.785156 C 241.402344 117.09375 241.566406 129.746094 239.875 142.113281 C 238.679688 150.851562 236.203125 159.082031 233.183594 167.335938 C 229.296875 177.011719 224.222656 186.203125 217.96875 194.550781 C 206.867188 209.257812 192.386719 221.328125 175.828125 229.4375 C 162.152344 235.953125 147.011719 240.25 131.835938 240.902344 C 124.375 241.179688 116.96875 241.113281 109.550781 240.148438 C 100.609375 239.121094 92.195312 236.585938 83.730469 233.636719 C 61.921875 225.3125 42.734375 210.433594 29.476562 191.195312 C 24.859375 184.609375 20.824219 177.535156 17.820312 170.0625 C 12.570312 157.828125 9.53125 144.625 8.976562 131.320312 C 8.753906 127.898438 8.578125 124.515625 8.871094 121.097656 C 9.078125 115.15625 9.679688 109.242188 10.757812 103.398438 C 12.117188 96.566406 14.175781 89.929688 16.558594 83.398438 C 23.578125 65.308594 35.359375 49.046875 50.191406 36.558594 C 57.179688 30.984375 64.238281 25.902344 72.308594 21.988281 C 77.789062 19.199219 83.390625 16.695312 89.316406 15.015625 C 94.984375 13.050781 100.828125 11.855469 106.710938 10.726562 C 110.816406 10.046875 114.992188 9.730469 119.144531 9.5 Z M 95.589844 51.242188 C 99.695312 51.492188 103.796875 50.996094 107.910156 51.191406 C 112.964844 51.445312 118.046875 51.328125 123.070312 51.835938 C 129.578125 52.382812 136.054688 53.480469 142.441406 54.84375 C 147.339844 56.015625 152.359375 57.339844 156.960938 59.410156 C 159.890625 60.710938 162.816406 62.140625 165.273438 64.226562 C 171.25 69.5625 176.136719 75.78125 178.589844 83.507812 C 179.136719 85.15625 179.449219 86.914062 180.132812 88.507812 C 180.726562 89.804688 182.351562 90.632812 183.515625 91.375 C 183.703125 85.152344 183.21875 78.851562 183.824219 72.582031 C 183.941406 70.839844 184.242188 69.316406 183.183594 67.78125 C 180.070312 63.160156 175.3125 59.375 170.683594 56.34375 C 164.671875 52.320312 158.25 48.988281 151.320312 46.875 C 145.460938 44.8125 139.472656 44.007812 133.324219 43.414062 C 127.328125 42.890625 121.527344 43.492188 115.617188 44.433594 C 110.757812 45.234375 106.234375 46.742188 101.617188 48.394531 C 99.515625 49.148438 97.484375 50.046875 95.589844 51.242188 Z M 133.734375 101.035156 C 132.769531 98.847656 131.546875 96.804688 130.355469 94.734375 C 123.789062 83.238281 117.269531 71.714844 110.695312 60.21875 C 109.554688 58.289062 108.609375 56.171875 107.25 54.390625 C 106.71875 53.625 105.855469 53.75 105.019531 53.628906 C 102.621094 53.53125 100.179688 53.515625 97.789062 53.753906 C 98.550781 55.96875 99.898438 58.054688 100.996094 60.117188 C 105.898438 69.203125 110.738281 78.296875 115.644531 87.378906 C 116.523438 88.941406 117.296875 91.050781 118.945312 91.929688 C 120.734375 92.964844 122.65625 93.746094 124.4375 94.804688 C 127.71875 96.65625 130.527344 99.078125 133.734375 101.035156 Z M 147.789062 111.363281 C 146.28125 108.285156 144.492188 105.351562 142.773438 102.351562 C 134.566406 88.078125 126.441406 73.757812 118.300781 59.445312 C 117.257812 57.742188 116.425781 55.503906 114.898438 54.199219 C 113.335938 53.769531 111.597656 53.835938 109.984375 53.875 C 111.023438 56.453125 112.710938 58.820312 114.054688 61.253906 C 121.320312 73.988281 128.707031 86.65625 135.980469 99.382812 C 137.453125 101.867188 138.789062 105.121094 141.15625 106.832031 C 143.289062 108.4375 145.515625 109.957031 147.789062 111.363281 Z M 63.050781 62.03125 C 64.238281 64.9375 66.007812 67.535156 67.40625 70.355469 C 69.71875 74.433594 71.710938 78.734375 74.273438 82.65625 C 77.535156 82.808594 80.726562 82.210938 83.988281 82.476562 C 86.726562 82.703125 89.835938 82.820312 92.398438 83.871094 C 94.023438 84.5625 94.9375 85.796875 96.210938 86.933594 C 96.996094 87.847656 98.585938 87.503906 99.679688 87.59375 C 98.753906 84.839844 97.207031 82.515625 95.78125 80.019531 C 91.800781 72.9375 87.617188 65.976562 83.675781 58.875 C 83.023438 57.699219 82.269531 56.585938 81.488281 55.488281 C 78.726562 55.851562 76.046875 56.554688 73.359375 57.273438 C 69.726562 58.261719 65.941406 59.523438 63.050781 62.03125 Z M 128.796875 55.503906 C 129.292969 56.539062 129.796875 57.5625 130.398438 58.539062 C 140.695312 74.445312 150.992188 90.382812 161.253906 106.308594 C 162.9375 108.84375 164.390625 111.671875 166.445312 113.863281 C 168.964844 113.03125 171.21875 111.855469 173.125 109.980469 C 171.6875 107.273438 169.941406 104.789062 168.3125 102.203125 C 160.046875 89.136719 151.6875 76.128906 143.433594 63.054688 C 142.296875 61.3125 141.320312 59.375 139.957031 57.796875 C 139.277344 56.976562 138.195312 56.871094 137.21875 56.644531 C 134.433594 56.167969 131.605469 55.773438 128.796875 55.503906 Z M 183.785156 155.667969 C 183.304688 159.769531 183 164.421875 184.148438 168.433594 C 184.804688 170.601562 186.117188 172.171875 188.109375 173.234375 C 192.191406 175.523438 197.335938 175.835938 201.542969 173.695312 C 206.035156 171.441406 209.511719 167.558594 212.304688 163.457031 C 216.484375 157.300781 218.992188 150.5 220.945312 143.363281 C 221.851562 139.75 222.261719 135.96875 222.679688 132.269531 C 223.117188 128.359375 222.582031 124.375 221.722656 120.550781 C 221.03125 117.539062 219.671875 114.945312 218.394531 112.164062 C 216.347656 107.507812 213.769531 103.257812 211.101562 98.941406 C 207.726562 93.625 204.097656 88.492188 200.113281 83.613281 C 196.894531 79.65625 193.570312 75.277344 189.421875 72.269531 C 188.65625 76.347656 188.824219 80.816406 188.851562 84.960938 C 189.304688 94.875 189.390625 104.824219 189.238281 114.746094 C 188.925781 128.859375 185.570312 141.828125 183.785156 155.667969 Z M 68.171875 101.167969 C 68.324219 97.703125 66.382812 94.667969 66.699219 91.304688 C 66.914062 89.875 68.027344 89.328125 69.25 88.867188 C 76.683594 86.554688 83.632812 87.089844 91.242188 87.109375 C 91.15625 86.636719 91.085938 86.164062 91.023438 85.683594 C 89.164062 85.277344 87.347656 85.109375 85.449219 85.101562 C 79.804688 85.046875 74.300781 84.867188 68.8125 86.390625 C 67.246094 86.855469 65.355469 87.597656 64.367188 88.964844 C 64 90.414062 64.574219 92.171875 64.875 93.613281 C 65.683594 96.410156 65.953125 99.09375 68.171875 101.167969 Z M 82.167969 109.058594 C 79.804688 110.082031 77.28125 110.667969 74.722656 110.894531 C 72.933594 110.46875 71.257812 110.03125 69.746094 108.949219 C 67.421875 107.367188 65.898438 104.785156 64.605469 102.351562 C 63.257812 99.851562 62.726562 97.210938 61.753906 94.578125 C 58.867188 94.019531 55.648438 94.851562 52.984375 95.984375 C 46.71875 98.804688 42.40625 104.15625 39.460938 110.214844 C 36.78125 116.148438 35.320312 122.445312 34.671875 128.90625 C 33.828125 135.046875 33.789062 141.230469 34.03125 147.414062 C 34.601562 154.804688 35.835938 162.03125 38.535156 168.964844 C 40.578125 174.65625 43.832031 180.507812 48.859375 184.078125 C 50.59375 185.382812 52.542969 186.167969 54.648438 186.660156 C 54.097656 183.351562 52.9375 180.308594 52.105469 177.078125 C 51.15625 173.515625 50.59375 169.984375 49.960938 166.351562 C 49.445312 163.324219 48.984375 160.3125 49.007812 157.230469 C 49.023438 153.746094 48.824219 150.171875 49.273438 146.703125 C 50.171875 141.09375 52.066406 135.460938 56.078125 131.285156 C 58.851562 128.316406 62.457031 126.523438 66.328125 125.4375 C 68.671875 124.785156 71.292969 124.8125 73.746094 124.550781 C 73.914062 122.445312 73.847656 120.335938 73.988281 118.234375 C 74.160156 116.1875 75.007812 114.4375 76.03125 112.691406 C 76.148438 116.75 75.414062 120.367188 76.910156 124.316406 C 79.601562 125.214844 82.421875 125.464844 85.117188 126.328125 C 88.496094 127.398438 91.820312 128.851562 94.796875 130.789062 C 98.6875 133.355469 102.320312 136.21875 105.320312 139.8125 C 112.464844 147.71875 117.289062 156.828125 122.574219 165.980469 C 126.953125 173.835938 131.554688 182.320312 137.730469 188.925781 C 141.140625 192.601562 145.394531 195.382812 150.359375 196.386719 C 156.15625 197.828125 162.402344 196.597656 167.261719 193.15625 C 172.640625 189.292969 176.777344 183.757812 179.980469 178.027344 C 180.65625 176.644531 181.480469 175.164062 180.917969 173.597656 C 180.046875 170.996094 178.832031 168.664062 178.546875 165.875 C 178.066406 160.382812 178.40625 154.902344 179.40625 149.484375 C 180.53125 142.34375 181.679688 135.210938 182.847656 128.082031 C 183.289062 125.136719 183.753906 122.234375 183.554688 119.242188 C 181.515625 117.601562 179.203125 116.253906 176.796875 115.234375 C 175.660156 114.601562 174.671875 115.898438 173.707031 116.375 C 170.054688 118.695312 165.898438 119.492188 161.621094 119.507812 C 158.144531 119.523438 154.820312 119.710938 151.46875 118.640625 C 145.304688 116.703125 140.238281 112.867188 135.199219 108.964844 C 129.96875 104.96875 124.5 100.710938 118.652344 97.695312 C 111.582031 94.039062 103.695312 92.171875 95.734375 93.011719 C 95.230469 93.066406 94.886719 93.265625 94.71875 93.609375 C 93.925781 94.863281 93.351562 96.257812 92.640625 97.5625 C 91.304688 100.113281 89.40625 102.441406 87.460938 104.550781 C 85.882812 106.195312 84.148438 107.914062 82.167969 109.058594 Z M 54.886719 161.625 C 54.96875 166.957031 55.816406 172.203125 56.984375 177.390625 C 57.867188 181.679688 60.464844 185.816406 63.746094 188.679688 C 67.859375 191.898438 72.378906 194.644531 77.046875 196.976562 C 90.644531 204.289062 106.679688 207.8125 122.046875 205.578125 C 125.449219 205.15625 128.808594 204.449219 132.070312 203.382812 C 135.628906 202.21875 139.027344 201.246094 142.242188 199.257812 C 139.40625 196.917969 136.332031 195.101562 133.847656 192.328125 C 126.3125 184.109375 121.035156 173.609375 115.523438 164.027344 C 111.921875 158.132812 108.421875 151.765625 104.015625 146.480469 C 101.410156 143.277344 98.539062 140.199219 95.316406 137.613281 C 88.484375 132.15625 79.476562 129.460938 70.777344 130.175781 C 66.804688 130.515625 63.011719 132.027344 60.238281 134.941406 C 57.265625 137.871094 55.945312 141.742188 55.042969 145.71875 C 54.019531 150.859375 54.28125 156.441406 54.886719 161.625 Z M 54.886719 161.625 "/>
<path style=" stroke:none;fill-rule:nonzero;fill:rgb(100%,100%,100%);fill-opacity:1;" d="M 133.324219 43.414062 C 139.472656 44.007812 145.460938 44.8125 151.320312 46.875 C 158.25 48.988281 164.671875 52.320312 170.683594 56.34375 C 175.3125 59.375 180.070312 63.160156 183.183594 67.78125 C 184.242188 69.316406 183.941406 70.839844 183.824219 72.582031 C 183.21875 78.851562 183.703125 85.152344 183.515625 91.375 C 182.351562 90.632812 180.726562 89.804688 180.132812 88.507812 C 179.449219 86.914062 179.136719 85.15625 178.589844 83.507812 C 176.136719 75.78125 171.25 69.5625 165.273438 64.226562 C 162.816406 62.140625 159.890625 60.710938 156.960938 59.410156 C 152.359375 57.339844 147.339844 56.015625 142.441406 54.84375 C 136.054688 53.480469 129.578125 52.382812 123.070312 51.835938 C 118.046875 51.328125 112.964844 51.445312 107.910156 51.191406 C 103.796875 50.996094 99.695312 51.492188 95.589844 51.242188 C 97.484375 50.046875 99.515625 49.148438 101.617188 48.394531 C 106.234375 46.742188 110.757812 45.234375 115.617188 44.433594 C 121.527344 43.492188 127.328125 42.890625 133.324219 43.414062 Z M 133.324219 43.414062 "/>
<path style=" stroke:none;fill-rule:nonzero;fill:rgb(100%,100%,100%);fill-opacity:1;" d="M 97.789062 53.753906 C 100.179688 53.515625 102.621094 53.53125 105.019531 53.628906 C 105.855469 53.75 106.71875 53.625 107.25 54.390625 C 108.609375 56.171875 109.554688 58.289062 110.695312 60.21875 C 117.269531 71.714844 123.789062 83.238281 130.355469 94.734375 C 131.546875 96.804688 132.769531 98.847656 133.734375 101.035156 C 130.527344 99.078125 127.71875 96.65625 124.4375 94.804688 C 122.65625 93.746094 120.734375 92.964844 118.945312 91.929688 C 117.296875 91.050781 116.523438 88.941406 115.644531 87.378906 C 110.738281 78.296875 105.898438 69.203125 100.996094 60.117188 C 99.898438 58.054688 98.550781 55.96875 97.789062 53.753906 Z M 97.789062 53.753906 "/>
<path style=" stroke:none;fill-rule:nonzero;fill:rgb(100%,100%,100%);fill-opacity:1;" d="M 109.984375 53.875 C 111.597656 53.835938 113.335938 53.769531 114.898438 54.199219 C 116.425781 55.503906 117.257812 57.742188 118.300781 59.445312 C 126.441406 73.757812 134.566406 88.078125 142.773438 102.351562 C 144.492188 105.351562 146.28125 108.285156 147.789062 111.363281 C 145.515625 109.957031 143.289062 108.4375 141.15625 106.832031 C 138.789062 105.121094 137.453125 101.867188 135.980469 99.382812 C 128.707031 86.65625 121.320312 73.988281 114.054688 61.253906 C 112.710938 58.820312 111.023438 56.453125 109.984375 53.875 Z M 109.984375 53.875 "/>
<path style=" stroke:none;fill-rule:nonzero;fill:rgb(100%,100%,100%);fill-opacity:1;" d="M 81.488281 55.488281 C 82.269531 56.585938 83.023438 57.699219 83.675781 58.875 C 87.617188 65.976562 91.800781 72.9375 95.78125 80.019531 C 97.207031 82.515625 98.753906 84.839844 99.679688 87.59375 C 98.585938 87.503906 96.996094 87.847656 96.210938 86.933594 C 94.9375 85.796875 94.023438 84.5625 92.398438 83.871094 C 89.835938 82.820312 86.726562 82.703125 83.988281 82.476562 C 80.726562 82.210938 77.535156 82.808594 74.273438 82.65625 C 71.710938 78.734375 69.71875 74.433594 67.40625 70.355469 C 66.007812 67.535156 64.238281 64.9375 63.050781 62.03125 C 65.941406 59.523438 69.726562 58.261719 73.359375 57.273438 C 76.046875 56.554688 78.726562 55.851562 81.488281 55.488281 Z M 81.488281 55.488281 "/>
<path style=" stroke:none;fill-rule:nonzero;fill:rgb(100%,100%,100%);fill-opacity:1;" d="M 128.796875 55.503906 C 131.605469 55.773438 134.433594 56.167969 137.21875 56.644531 C 138.195312 56.871094 139.277344 56.976562 139.957031 57.796875 C 141.320312 59.375 142.296875 61.3125 143.433594 63.054688 C 151.6875 76.128906 160.046875 89.136719 168.3125 102.203125 C 169.941406 104.789062 171.6875 107.273438 173.125 109.980469 C 171.21875 111.855469 168.964844 113.03125 166.445312 113.863281 C 164.390625 111.671875 162.9375 108.84375 161.253906 106.308594 C 150.992188 90.382812 140.695312 74.445312 130.398438 58.539062 C 129.796875 57.5625 129.292969 56.539062 128.796875 55.503906 Z M 128.796875 55.503906 "/>
<path style=" stroke:none;fill-rule:nonzero;fill:rgb(100%,100%,100%);fill-opacity:1;" d="M 189.421875 72.269531 C 193.570312 75.277344 196.894531 79.65625 200.113281 83.613281 C 204.097656 88.492188 207.726562 93.625 211.101562 98.941406 C 213.769531 103.257812 216.347656 107.507812 218.394531 112.164062 C 216.976562 119.273438 215.355469 126.097656 212.320312 132.71875 C 208.785156 140.644531 203.492188 148.304688 196.398438 153.429688 C 192.945312 155.828125 188.535156 157.757812 184.253906 157.574219 C 184.09375 156.9375 183.9375 156.304688 183.785156 155.667969 C 185.570312 141.828125 188.925781 128.859375 189.238281 114.746094 C 189.390625 104.824219 189.304688 94.875 188.851562 84.960938 C 188.824219 80.816406 188.65625 76.347656 189.421875 72.269531 Z M 189.421875 72.269531 "/>
<path style=" stroke:none;fill-rule:nonzero;fill:rgb(100%,100%,100%);fill-opacity:1;" d="M 85.449219 85.101562 C 87.347656 85.109375 89.164062 85.277344 91.023438 85.683594 C 91.085938 86.164062 91.15625 86.636719 91.242188 87.109375 C 83.632812 87.089844 76.683594 86.554688 69.25 88.867188 C 68.027344 89.328125 66.914062 89.875 66.699219 91.304688 C 66.382812 94.667969 68.324219 97.703125 68.171875 101.167969 C 65.953125 99.09375 65.683594 96.410156 64.875 93.613281 C 64.574219 92.171875 64 90.414062 64.367188 88.964844 C 65.355469 87.597656 67.246094 86.855469 68.8125 86.390625 C 74.300781 84.867188 79.804688 85.046875 85.449219 85.101562 Z M 85.449219 85.101562 "/>
<path style=" stroke:none;fill-rule:nonzero;fill:rgb(100%,100%,100%);fill-opacity:1;" d="M 95.734375 93.011719 C 103.695312 92.171875 111.582031 94.039062 118.652344 97.695312 C 124.5 100.710938 129.96875 104.96875 135.199219 108.964844 C 140.238281 112.867188 145.304688 116.703125 151.46875 118.640625 C 154.820312 119.710938 158.144531 119.523438 161.621094 119.507812 C 165.898438 119.492188 170.054688 118.695312 173.707031 116.375 C 176.3125 117.285156 179.746094 118.511719 181.449219 120.800781 C 181.753906 123.023438 181.148438 125.429688 180.917969 127.648438 C 180.203125 133.648438 179.457031 139.632812 178.3125 145.566406 C 177.378906 150.335938 176.851562 155.257812 175.542969 159.945312 C 174.703125 162.910156 173.039062 165.304688 170.589844 167.167969 C 167.660156 169.460938 164.234375 170.859375 160.527344 171.25 C 156.488281 171.675781 152.523438 171.453125 148.90625 169.445312 C 144.71875 167.074219 141.015625 163.617188 137.613281 160.238281 C 129.226562 151.71875 121.78125 142.140625 113.964844 133.101562 C 110.742188 129.433594 107.402344 125.539062 103.578125 122.492188 C 98.082031 118.1875 91.5 115.625 84.625 114.585938 C 81.976562 114.21875 79.289062 114.257812 76.621094 114.003906 C 76.710938 113.082031 76.800781 112.164062 76.914062 111.246094 C 78.679688 110.601562 80.523438 109.964844 82.167969 109.058594 C 84.148438 107.914062 85.882812 106.195312 87.460938 104.550781 C 89.40625 102.441406 91.304688 100.113281 92.640625 97.5625 C 93.351562 96.257812 93.925781 94.863281 94.71875 93.609375 C 94.886719 93.265625 95.230469 93.066406 95.734375 93.011719 Z M 95.734375 93.011719 "/>
<path style=" stroke:none;fill-rule:nonzero;fill:rgb(100%,100%,100%);fill-opacity:1;" d="M 61.753906 94.578125 C 62.726562 97.210938 63.257812 99.851562 64.605469 102.351562 C 65.898438 104.785156 67.421875 107.367188 69.746094 108.949219 C 71.257812 110.03125 72.933594 110.46875 74.722656 110.894531 C 75.398438 111.40625 75.816406 111.84375 76.03125 112.691406 C 73.695312 115.351562 70.804688 115.058594 67.664062 115.996094 C 61.894531 117.59375 56.28125 120.546875 52.804688 125.582031 C 48.46875 131.65625 46.464844 139.667969 45.585938 146.988281 C 44.773438 152.90625 45.34375 158.667969 46.019531 164.566406 C 46.371094 167.484375 47.144531 170.777344 46.671875 173.695312 C 46.5 174.648438 46.015625 175.34375 44.957031 175.15625 C 41.445312 174.765625 39.898438 171.828125 38.535156 168.964844 C 35.835938 162.03125 34.601562 154.804688 34.03125 147.414062 C 33.789062 141.230469 33.828125 135.046875 34.671875 128.90625 C 35.320312 122.445312 36.78125 116.148438 39.460938 110.214844 C 42.40625 104.15625 46.71875 98.804688 52.984375 95.984375 C 55.648438 94.851562 58.867188 94.019531 61.753906 94.578125 Z M 61.753906 94.578125 "/>
<path style=" stroke:none;fill-rule:nonzero;fill:rgb(82.352942%,82.352942%,82.352942%);fill-opacity:1;" d="M 82.167969 109.058594 C 80.523438 109.964844 78.679688 110.601562 76.914062 111.246094 C 76.800781 112.164062 76.710938 113.082031 76.621094 114.003906 C 79.289062 114.257812 81.976562 114.21875 84.625 114.585938 C 91.5 115.625 98.082031 118.1875 103.578125 122.492188 C 107.402344 125.539062 110.742188 129.433594 113.964844 133.101562 C 121.78125 142.140625 129.226562 151.71875 137.613281 160.238281 C 141.015625 163.617188 144.71875 167.074219 148.90625 169.445312 C 152.523438 171.453125 156.488281 171.675781 160.527344 171.25 C 164.234375 170.859375 167.660156 169.460938 170.589844 167.167969 C 173.039062 165.304688 174.703125 162.910156 175.542969 159.945312 C 176.851562 155.257812 177.378906 150.335938 178.3125 145.566406 C 179.457031 139.632812 180.203125 133.648438 180.917969 127.648438 C 181.148438 125.429688 181.753906 123.023438 181.449219 120.800781 C 179.746094 118.511719 176.3125 117.285156 173.707031 116.375 C 174.671875 115.898438 175.660156 114.601562 176.796875 115.234375 C 179.203125 116.253906 181.515625 117.601562 183.554688 119.242188 C 183.753906 122.234375 183.289062 125.136719 182.847656 128.082031 C 181.679688 135.210938 180.53125 142.34375 179.40625 149.484375 C 178.40625 154.902344 178.066406 160.382812 178.546875 165.875 C 178.832031 168.664062 180.046875 170.996094 180.917969 173.597656 C 181.480469 175.164062 180.65625 176.644531 179.980469 178.027344 C 176.777344 183.757812 172.640625 189.292969 167.261719 193.15625 C 162.402344 196.597656 156.15625 197.828125 150.359375 196.386719 C 145.394531 195.382812 141.140625 192.601562 137.730469 188.925781 C 131.554688 182.320312 126.953125 173.835938 122.574219 165.980469 C 117.289062 156.828125 112.464844 147.71875 105.320312 139.8125 C 102.320312 136.21875 98.6875 133.355469 94.796875 130.789062 C 91.820312 128.851562 88.496094 127.398438 85.117188 126.328125 C 82.421875 125.464844 79.601562 125.214844 76.910156 124.316406 C 75.414062 120.367188 76.148438 116.75 76.03125 112.691406 C 75.816406 111.84375 75.398438 111.40625 74.722656 110.894531 C 77.28125 110.667969 79.804688 110.082031 82.167969 109.058594 Z M 82.167969 109.058594 "/>
<path style=" stroke:none;fill-rule:nonzero;fill:rgb(82.352942%,82.352942%,82.352942%);fill-opacity:1;" d="M 218.394531 112.164062 C 219.671875 114.945312 221.03125 117.539062 221.722656 120.550781 C 222.582031 124.375 223.117188 128.359375 222.679688 132.269531 C 222.261719 135.96875 221.851562 139.75 220.945312 143.363281 C 218.992188 150.5 216.484375 157.300781 212.304688 163.457031 C 209.511719 167.558594 206.035156 171.441406 201.542969 173.695312 C 197.335938 175.835938 192.191406 175.523438 188.109375 173.234375 C 186.117188 172.171875 184.804688 170.601562 184.148438 168.433594 C 183 164.421875 183.304688 159.769531 183.785156 155.667969 C 183.9375 156.304688 184.09375 156.9375 184.253906 157.574219 C 188.535156 157.757812 192.945312 155.828125 196.398438 153.429688 C 203.492188 148.304688 208.785156 140.644531 212.320312 132.71875 C 215.355469 126.097656 216.976562 119.273438 218.394531 112.164062 Z M 218.394531 112.164062 "/>
<path style=" stroke:none;fill-rule:nonzero;fill:rgb(82.352942%,82.352942%,82.352942%);fill-opacity:1;" d="M 76.03125 112.691406 C 75.007812 114.4375 74.160156 116.1875 73.988281 118.234375 C 73.847656 120.335938 73.914062 122.445312 73.746094 124.550781 C 71.292969 124.8125 68.671875 124.785156 66.328125 125.4375 C 62.457031 126.523438 58.851562 128.316406 56.078125 131.285156 C 52.066406 135.460938 50.171875 141.09375 49.273438 146.703125 C 48.824219 150.171875 49.023438 153.746094 49.007812 157.230469 C 48.984375 160.3125 49.445312 163.324219 49.960938 166.351562 C 50.59375 169.984375 51.15625 173.515625 52.105469 177.078125 C 52.9375 180.308594 54.097656 183.351562 54.648438 186.660156 C 52.542969 186.167969 50.59375 185.382812 48.859375 184.078125 C 43.832031 180.507812 40.578125 174.65625 38.535156 168.964844 C 39.898438 171.828125 41.445312 174.765625 44.957031 175.15625 C 46.015625 175.34375 46.5 174.648438 46.671875 173.695312 C 47.144531 170.777344 46.371094 167.484375 46.019531 164.566406 C 45.34375 158.667969 44.773438 152.90625 45.585938 146.988281 C 46.464844 139.667969 48.46875 131.65625 52.804688 125.582031 C 56.28125 120.546875 61.894531 117.59375 67.664062 115.996094 C 70.804688 115.058594 73.695312 115.351562 76.03125 112.691406 Z M 76.03125 112.691406 "/>
<path style=" stroke:none;fill-rule:nonzero;fill:rgb(100%,100%,100%);fill-opacity:1;" d="M 70.777344 130.175781 C 79.476562 129.460938 88.484375 132.15625 95.316406 137.613281 C 98.539062 140.199219 101.410156 143.277344 104.015625 146.480469 C 108.421875 151.765625 111.921875 158.132812 115.523438 164.027344 C 115.304688 165.136719 115.121094 166.1875 114.460938 167.140625 C 110.996094 171.914062 106.5 175.863281 101.03125 178.164062 C 96.734375 180.015625 92.054688 180.445312 87.425781 180.546875 C 82.574219 180.632812 77.765625 180.171875 73.285156 178.167969 C 69.171875 176.320312 65.460938 173.3125 62.328125 170.085938 C 59.683594 167.390625 57.617188 164.25 54.886719 161.625 C 54.28125 156.441406 54.019531 150.859375 55.042969 145.71875 C 55.945312 141.742188 57.265625 137.871094 60.238281 134.941406 C 63.011719 132.027344 66.804688 130.515625 70.777344 130.175781 Z M 70.777344 130.175781 "/>
<path style=" stroke:none;fill-rule:nonzero;fill:rgb(82.352942%,82.352942%,82.352942%);fill-opacity:1;" d="M 54.886719 161.625 C 57.617188 164.25 59.683594 167.390625 62.328125 170.085938 C 65.460938 173.3125 69.171875 176.320312 73.285156 178.167969 C 77.765625 180.171875 82.574219 180.632812 87.425781 180.546875 C 92.054688 180.445312 96.734375 180.015625 101.03125 178.164062 C 106.5 175.863281 110.996094 171.914062 114.460938 167.140625 C 115.121094 166.1875 115.304688 165.136719 115.523438 164.027344 C 121.035156 173.609375 126.3125 184.109375 133.847656 192.328125 C 136.332031 195.101562 139.40625 196.917969 142.242188 199.257812 C 139.027344 201.246094 135.628906 202.21875 132.070312 203.382812 C 128.808594 204.449219 125.449219 205.15625 122.046875 205.578125 C 106.679688 207.8125 90.644531 204.289062 77.046875 196.976562 C 72.378906 194.644531 67.859375 191.898438 63.746094 188.679688 C 60.464844 185.816406 57.867188 181.679688 56.984375 177.390625 C 55.816406 172.203125 54.96875 166.957031 54.886719 161.625 Z M 54.886719 161.625 "/>
</g>
</svg>
