<svg xmlns="http://www.w3.org/2000/svg" width="901" height="901" style="shape-rendering:geometricPrecision;text-rendering:geometricPrecision;image-rendering:optimizeQuality;fill-rule:evenodd;clip-rule:evenodd"><path style="opacity:.972" fill="#020202" d="M429.5 8.5c126.344-2.847 235.344 38.653 327 124.5C861.318 242.136 902.818 371.97 881 522.5 858.319 640.716 798.819 735.216 702.5 806c-124.071 81.819-257.071 100.152-399 55C197.713 822.194 117.547 753.694 63 655.5 3.98 541.487-5.353 423.487 35 301.5 71.917 200.942 136.084 123.108 227.5 68c62.771-35.688 130.104-55.522 202-59.5z"/><path style="opacity:1" fill="#fafafa" d="M431.5 23.5c125.15-2.14 232.317 40.193 321.5 127 98.484 106.188 136.151 231.188 113 375-26.342 126.311-94.509 222.477-204.5 288.5-113.656 62.474-231.989 73.141-355 32-96.758-36.578-171.592-99.078-224.5-187.5-60.631-110.048-72.298-225.048-35-345C82.298 212.547 145.798 134.713 237.5 80c60.414-33.767 125.08-52.6 194-56.5z"/><path style="opacity:1" fill="#040404" d="M442.5 40.5c113.317.848 210.984 39.681 293 116.5C832.425 258.123 870.592 378.29 850 517.5 828.856 627.674 773.022 715.507 682.5 781c-104.773 68.768-218.107 88.102-340 58C235.86 807.975 154.027 745.142 97 650.5c-65.198-120.018-71.53-243.018-19-369C126.389 177.029 204.556 104.529 312.5 64c42.293-14.361 85.626-22.194 130-23.5z"/><path style="opacity:1" fill="#1d1d1b" d="M441.5 51.5c124.981.889 228.481 47.889 310.5 141 77.428 95.01 106.428 203.343 87 325-21.303 109.544-77.47 196.044-168.5 259.5-101.588 64.468-210.921 82.135-328 53-106.258-31.301-186.758-94.801-241.5-190.5-55.335-106.027-63.669-215.693-25-329C116.54 206.188 187.707 131.022 289.5 85c34.817-15.494 71.15-25.494 109-30a880.612 880.612 0 0 1 43-3.5z"/><path style="opacity:1" fill="#d5d5d5" d="M493.5 174.5c-33.549-3.621-66.882-2.288-100 4 33.063-8.648 66.397-9.981 100-4z"/><path style="opacity:1" fill="#fcfcfc" d="M493.5 174.5a24.93 24.93 0 0 1 8 1c4.981 2.245 10.314 3.579 16 4 46.029 12.179 85.529 35.512 118.5 70a31.245 31.245 0 0 1 5.5 9 6551.96 6551.96 0 0 1-2 81 68.49 68.49 0 0 1-13.5-11c-7.112-31.73-22.612-58.564-46.5-80.5-17.609-13.805-37.276-23.305-59-28.5-1.938-1.663-4.272-2.329-7-2-49.854-12.319-100.521-17.652-152-16-8.849.326-17.516-.007-26-1l4-2c2.319-.492 4.319-1.492 6-3 4.267-2.821 8.933-4.988 14-6.5a663.921 663.921 0 0 1 34-10.5c33.118-6.288 66.451-7.621 100-4z"/><path style="opacity:1" fill="#b0b0af" d="M501.5 175.5c5.595.732 10.929 2.065 16 4-5.686-.421-11.019-1.755-16-4z"/><path style="opacity:1" fill="#767675" d="M345.5 195.5c-1.681 1.508-3.681 2.508-6 3 1.411-2.039 3.411-3.039 6-3z"/><path style="opacity:1" fill="#999998" d="M335.5 200.5c8.484.993 17.151 1.326 26 1-8.842 1.322-17.842 1.322-27 0 .124-.607.457-.94 1-1z"/><path style="opacity:1" fill="#f8f8f8" d="M347.5 205.5c11.005-.167 22.005 0 33 .5a6.978 6.978 0 0 1 3.5 2.5 9692.013 9692.013 0 0 1 92 162c.749 1.135.583 2.135-.5 3a416.293 416.293 0 0 0-57-35.5l-4.5-4.5A22923.415 22923.415 0 0 0 346.5 207c.556-.383.889-.883 1-1.5z"/><path style="opacity:1" fill="#f7f7f7" d="M388.5 205.5c4.377.077 8.71.577 13 1.5A52898.527 52898.527 0 0 1 512 395.5c1.009 1.525 1.509 3.192 1.5 5-11.699-4.858-21.199-12.525-28.5-23A14275.777 14275.777 0 0 1 387.5 207c.556-.383.889-.883 1-1.5z"/><path style="opacity:1" fill="#f9f9f9" d="M288.5 211.5c3.277-.284 6.443.049 9.5 1A17660.918 17660.918 0 0 1 360.5 322c-5.511 2.58-11.178 2.913-17 1-4.161-7.493-10.495-11.826-19-13a251.416 251.416 0 0 0-53-2 11.532 11.532 0 0 1-4.5-3.5l-36.5-69c5.455-4.568 11.455-8.402 18-11.5a551.038 551.038 0 0 1 40-12.5z"/><path style="opacity:1" fill="#f8f8f8" d="M463.5 212.5a122.533 122.533 0 0 1 28 5.5A9944.631 9944.631 0 0 1 606 396.5c-.893 2.936-2.726 5.436-5.5 7.5l-10 6c-1.284.684-2.451.517-3.5-.5l-122-192c-1.009-1.525-1.509-3.192-1.5-5z"/><path style="opacity:1" fill="#8e8e8d" d="M513.5 217.5c2.728-.329 5.062.337 7 2-2.567-.221-4.901-.888-7-2z"/><path style="opacity:1" fill="#fefefd" d="M657.5 267.5a201.894 201.894 0 0 1 21.5 20c29.302 33.268 54.135 69.601 74.5 109a126.473 126.473 0 0 1-2.5 24 3621.181 3621.181 0 0 1-11.5 39.5c-9.584 23.237-22.084 44.737-37.5 64.5-11.494 12.172-24.66 22.006-39.5 29.5a155.934 155.934 0 0 1-23 4.5 296.602 296.602 0 0 1 1-25v-4c2.374-5.297 3.374-10.963 3-17 .768-.763 1.268-1.763 1.5-3a365.11 365.11 0 0 0 1.5-17 680.506 680.506 0 0 0 9-75 1908.355 1908.355 0 0 0 0-111.5l.5-30.5c.183-2.865.683-5.531 1.5-8z"/><path style="opacity:1" fill="#494947" d="M641.5 258.5a782.678 782.678 0 0 1 0 51l-1 31c-.607-.124-.94-.457-1-1a6551.96 6551.96 0 0 0 2-81z"/><path style="opacity:1" fill="#bbbbba" d="M657.5 267.5c-.817 2.469-1.317 5.135-1.5 8l-.5 30.5a1908.355 1908.355 0 0 1 0 111.5c-.389-47.668-.556-95.335-.5-143a34.251 34.251 0 0 1 1.5-8c.607.124.94.457 1 1z"/><path style="opacity:1" fill="#e8e8e8" d="M278.5 320.5c-10.071.067-19.738 1.733-29 5-2.767 1.233-4.934 3.233-6.5 6-.667 5-.667 10 0 15a63.16 63.16 0 0 1 2 14 213.886 213.886 0 0 1-6.5-19l-1-14c1.571-2.731 3.905-4.565 7-5.5a129.49 129.49 0 0 1 29-6 400.05 400.05 0 0 1 40 0c3.123.206 6.123.873 9 2a962.207 962.207 0 0 0-44 2.5z"/><path style="opacity:1" fill="#565654" d="M278.5 320.5a1333.973 1333.973 0 0 0-29 5c9.262-3.267 18.929-4.933 29-5z"/><path style="opacity:1" fill="#5a5a59" d="m237.5 327.5 1 14c-1.828-4.603-2.161-9.269-1-14z"/><path style="opacity:1" fill="#8a8a89" d="M369.5 338.5a266.817 266.817 0 0 0-30 1c.418-.722 1.084-1.222 2-1.5 9.509-.824 18.843-.658 28 .5z"/><path style="opacity:1" fill="#fefefe" d="M369.5 338.5c3.71 1.636 7.71 2.302 12 2 15.375 3.406 30.042 8.906 44 16.5l27 17a434.036 434.036 0 0 0 71 49 109.38 109.38 0 0 0 21 5.5c13.093 1.532 26.093.865 39-2a284.952 284.952 0 0 0 18-6c5.387.69 10.387 2.523 15 5.5a94.09 94.09 0 0 0 11 7c1.444 1.126 2.11 2.626 2 4.5a1075.135 1075.135 0 0 1-20.5 130c-4.12 11.465-11.287 20.631-21.5 27.5-20.071 11.394-41.071 13.394-63 6a315.4 315.4 0 0 1-41-32L385 454.5a121.549 121.549 0 0 1-17.5-15.5 277.609 277.609 0 0 1-19-12 425.305 425.305 0 0 0-38-13c-11.361-.579-22.361-1.746-33-3.5.219-1.175-.114-2.175-1-3a289.034 289.034 0 0 1-3 6c-32.421.961-58.588 13.961-78.5 39-15.98 28.673-23.48 59.506-22.5 92.5a479.008 479.008 0 0 0 3.5 46.5c.667 8 .667 16 0 24a6.802 6.802 0 0 1-1.5 3 142.79 142.79 0 0 1-19-8c-10.647-21.003-16.98-43.336-19-67a120.336 120.336 0 0 0-2-14v-3a749.509 749.509 0 0 1-1-35 1479.768 1479.768 0 0 1 3-33c2.465-7.001 3.798-14.334 4-22 3.819-22.632 12.319-43.299 25.5-62a25.14 25.14 0 0 1 4.5-4c3-2.333 5.667-5 8-8 14.675-14.104 32.341-20.771 53-20 3.046 20.681 12.379 37.847 28 51.5 11.153 5.588 22.487 5.922 34 1 15.547-9.88 28.047-22.713 37.5-38.5 2.352-6.038 5.185-11.704 8.5-17a266.817 266.817 0 0 1 30-1z"/><path style="opacity:1" fill="#61615f" d="M369.5 338.5c4.29-.302 8.29.364 12 2-4.29.302-8.29-.364-12-2z"/><path style="opacity:1" fill="#272725" d="M213.5 350.5c5.163-.393 6.83 1.773 5 6.5a18.453 18.453 0 0 1-6 .5c-.202-2.45.131-4.783 1-7z"/><path style="opacity:1" fill="#565654" d="M364.5 348.5h7v7h-8c-.202-2.45.131-4.783 1-7z"/><path style="opacity:1" fill="#1d1d1c" d="M365.5 349.5h5v5h-6c-.134-1.792.199-3.458 1-5z"/><path style="opacity:1" fill="#30302e" d="M196.5 361.5c.241 2.386-.425 4.386-2 6-5.161.45-6.161-1.717-3-6.5 1.765-.64 3.432-.473 5 .5z"/><path style="opacity:1" fill="#8b8b8a" d="M196.5 361.5c.961 1.765 1.295 3.765 1 6h-3 3c.295-2.235-.039-4.235-1-6z"/><path style="opacity:1" fill="#aaaaa9" d="M178.5 362.5c-2.333 3-5 5.667-8 8 1.667-3.667 4.333-6.333 8-8z"/><path style="opacity:1" fill="#2a2a29" d="M348.5 365.5h6v6h-6v-6z"/><path style="opacity:1" fill="#353533" d="M392.5 372.5c2.948-.277 5.781.056 8.5 1-.359 2.909-1.526 5.576-3.5 8-3.841-1.83-5.507-4.83-5-9z"/><path style="opacity:1" fill="#363634" d="M220.5 373.5c6.504-.362 8.171 2.138 5 7.5-6.755.756-8.422-1.744-5-7.5z"/><path style="opacity:1" fill="#2d2d2b" d="M192.5 379.5a18.453 18.453 0 0 1 6 .5c1.491 2.022 1.158 3.688-1 5a18.453 18.453 0 0 1-6 .5 19.22 19.22 0 0 1 1-6z"/><path style="opacity:1" fill="#3e3e3c" d="M208.5 387.5c3.44-.163 5.44 1.504 6 5-3.792 4.478-6.458 3.978-8-1.5.362-1.434 1.028-2.601 2-3.5z"/><path style="opacity:1" fill="#353534" d="M353.5 389.5c2.601.78 4.601 2.446 6 5-3.416 4.293-6.083 3.959-8-1 .252-1.573.918-2.906 2-4z"/><path style="opacity:1" fill="#2b2b29" d="M377.5 392.5h3v7h-6v-6c1.291.237 2.291-.096 3-1z"/><path style="opacity:1" fill="#d1d1d1" d="M753.5 396.5c11.613 17.846 17.613 37.513 18 59a266.817 266.817 0 0 1-1 30 41.73 41.73 0 0 1-1 9 1170.208 1170.208 0 0 0-9 33c-8.402 30.316-24.069 56.149-47 77.5-6.465 4.898-13.465 8.731-21 11.5a116.296 116.296 0 0 1-19 2c-19.165-1.478-30.998-11.478-35.5-30-2.246-18.599-1.412-36.933 2.5-55a296.602 296.602 0 0 0-1 25 155.934 155.934 0 0 0 23-4.5c14.84-7.494 28.006-17.328 39.5-29.5 15.416-19.763 27.916-41.263 37.5-64.5a3621.181 3621.181 0 0 0 11.5-39.5 126.473 126.473 0 0 0 2.5-24zM277.5 410.5c10.639 1.754 21.639 2.921 33 3.5a425.305 425.305 0 0 1 38 13 277.609 277.609 0 0 0 19 12 121.549 121.549 0 0 0 17.5 15.5L483.5 569a315.4 315.4 0 0 0 41 32c21.929 7.394 42.929 5.394 63-6 10.213-6.869 17.38-16.035 21.5-27.5a1075.135 1075.135 0 0 0 20.5-130c.11-1.874-.556-3.374-2-4.5a94.09 94.09 0 0 1-11-7c-4.613-2.977-9.613-4.81-15-5.5 3.288-3.746 7.455-6.412 12.5-8a172.766 172.766 0 0 1 26 16c-.4 17.27-2.233 34.27-5.5 51-1.52 5.448-2.52 11.114-3 17a560.823 560.823 0 0 0-9 74c.13 7.741.963 15.408 2.5 23a812.407 812.407 0 0 1 6.5 22 67.313 67.313 0 0 1-6.5 18c-10.931 19.935-25.765 36.435-44.5 49.5-31.788 15.124-61.455 11.791-89-10a163.016 163.016 0 0 1-20.5-22.5 696.515 696.515 0 0 1-51-86 361.945 361.945 0 0 0-53.5-73.5c-24.089-23.876-53.089-37.876-87-42a72.144 72.144 0 0 1-2-5.5c-.124-4.549-.791-8.882-2-13-.367-6.915.299-13.581 2-20z"/><path style="opacity:1" fill="#d0d0d0" d="M273.5 413.5a199.699 199.699 0 0 0-2 35c-36.961-1.323-62.294 15.01-76 49-2.582 6.327-4.248 12.993-5 20a192.974 192.974 0 0 1-2 10c-1.159 11.159-1.326 22.492-.5 34 .151 6.568.985 12.901 2.5 19a1144.238 1144.238 0 0 0 6 32.5 394.133 394.133 0 0 1 11 44.5 30.465 30.465 0 0 1-9-1.5 150.824 150.824 0 0 1-18-11c-10.512-9.998-18.845-21.498-25-34.5a142.79 142.79 0 0 0 19 8 6.802 6.802 0 0 0 1.5-3c.667-8 .667-16 0-24a479.008 479.008 0 0 1-3.5-46.5c-.98-32.994 6.52-63.827 22.5-92.5 19.912-25.039 46.079-38.039 78.5-39z"/><path style="opacity:1" fill="#656564" d="M277.5 410.5c-1.701 6.419-2.367 13.085-2 20-.821-3.141-1.321-6.475-1.5-10a1336.836 1336.836 0 0 0-2.5 28 199.699 199.699 0 0 1 2-35 289.034 289.034 0 0 0 3-6c.886.825 1.219 1.825 1 3z"/><path style="opacity:1" fill="#afafae" d="M583.5 426.5c-12.907 2.865-25.907 3.532-39 2a417.618 417.618 0 0 0 39-2z"/><path style="opacity:1" fill="#737372" d="M275.5 430.5c1.209 4.118 1.876 8.451 2 13-1.554-4.067-2.22-8.4-2-13z"/><path style="opacity:1" fill="#c7c7c6" d="M140.5 436.5c-.202 7.666-1.535 14.999-4 22 .705-7.573 2.038-14.907 4-22z"/><path style="opacity:1" fill="#fefefe" d="M408.5 573.5c-.104 2.59.563 4.923 2 7-22.696 38.185-56.362 56.185-101 54-12.333.924-24.333-.576-36-4.5-22.659-10.268-41.492-25.434-56.5-45.5-3.742-4.247-7.908-7.914-12.5-11a206.775 206.775 0 0 1-.5-53c2.949-20.413 12.449-36.913 28.5-49.5 18.596-8.711 37.929-10.711 58-6 29.457 6.124 53.957 20.624 73.5 43.5a431.943 431.943 0 0 1 44.5 65z"/><path style="opacity:1" fill="#4f4f4d" d="M771.5 455.5c1.158 9.157 1.324 18.491.5 28-.278.916-.778 1.582-1.5 2a266.817 266.817 0 0 0 1-30z"/><path style="opacity:1" fill="#7d7d7c" d="M634.5 479.5c-.048 5.96-1.048 11.627-3 17 .48-5.886 1.48-11.552 3-17z"/><path style="opacity:1" fill="#8e8e8e" d="M769.5 494.5a451.277 451.277 0 0 1-6.5 29c-.2 1.82-1.034 3.153-2.5 4a1170.208 1170.208 0 0 1 9-33z"/><path style="opacity:1" fill="#575756" d="M195.5 497.5c-1.066 6.932-2.733 13.598-5 20 .752-7.007 2.418-13.673 5-20z"/><path style="opacity:1" fill="#4a4a48" d="M133.5 491.5a749.509 749.509 0 0 0 1 35c-1.399-7.286-2.065-14.786-2-22.5.001-4.347.334-8.514 1-12.5z"/><path style="opacity:1" fill="#a1a1a0" d="M646.5 492.5a365.11 365.11 0 0 1-1.5 17c-.232 1.237-.732 2.237-1.5 3 .271-6.907 1.271-13.574 3-20z"/><path style="opacity:1" fill="#afafaf" d="M643.5 512.5c.374 6.037-.626 11.703-3 17 .549-5.874 1.549-11.541 3-17z"/><path style="opacity:1" fill="#525250" d="M134.5 529.5a120.336 120.336 0 0 1 2 14c-.722-.418-1.222-1.084-1.5-2a72.367 72.367 0 0 1-.5-12z"/><path style="opacity:1" fill="#a7a7a7" d="M188.5 527.5a570.848 570.848 0 0 0 2 53c-1.515-6.099-2.349-12.432-2.5-19-.826-11.508-.659-22.841.5-34z"/><path style="opacity:1" fill="#d1d1d1" d="M204.5 573.5c4.592 3.086 8.758 6.753 12.5 11 15.008 20.066 33.841 35.232 56.5 45.5 11.667 3.924 23.667 5.424 36 4.5 44.638 2.185 78.304-15.815 101-54-1.437-2.077-2.104-4.41-2-7a846.923 846.923 0 0 0 53.5 88c3.058 2.457 5.392 5.457 7 9a95.927 95.927 0 0 1 14.5 14 101.354 101.354 0 0 1 19 14c-20.76 11.142-42.76 18.476-66 22-6.55-.046-12.883.621-19 2h-1a422.48 422.48 0 0 1-51-2c-35.907-5.953-69.574-18.119-101-36.5a358.988 358.988 0 0 1-30-20c-8.308-7.976-14.141-17.476-17.5-28.5a448.125 448.125 0 0 0-9-35 166.342 166.342 0 0 1-3.5-27z"/><path style="opacity:1" fill="#6f6f6f" d="M692.5 616.5c-6.168 2.717-12.502 3.383-19 2a116.296 116.296 0 0 0 19-2z"/><path style="opacity:1" fill="#828281" d="M365.5 720.5a422.48 422.48 0 0 0 51 2c-11.826 1.16-23.826 1.326-36 .5-5.206-.437-10.206-1.27-15-2.5z"/><path style="opacity:1" fill="#7c7c7b" d="M436.5 720.5c-6.094 1.594-12.428 2.261-19 2 6.117-1.379 12.45-2.046 19-2z"/></svg>