<svg xmlns="http://www.w3.org/2000/svg" xml:space="preserve" style="enable-background:new 0 0 1342 1342" viewBox="0 0 1342 1342">
  <style>
    .st0{fill:#1f1f1d}.st1{fill:#fff}.st2{fill:#d2d2d2}.st4{fill:#fdfefe}.st10{fill:#e0eeee}.st14{fill:#292927}.st15{fill:#292826}
  </style>
  <g id="Layer_2">
    <path d="M671 1312a640 640 0 0 1-453-188A637 637 0 0 1 80 921a636 636 0 0 1 0-499 640 640 0 0 1 1044-204 639 639 0 0 1 188 453 640 640 0 0 1-188 453 639 639 0 0 1-453 188z" class="st0"/>
    <path d="M671 60a606 606 0 0 1 342 104 609 609 0 0 1 221 269c32 75 48 156 48 238a606 606 0 0 1-104 342 609 609 0 0 1-269 221c-76 32-156 48-238 48a606 606 0 0 1-342-104 609 609 0 0 1-221-269c-32-75-48-155-48-238a606 606 0 0 1 104-342 609 609 0 0 1 269-221 606 606 0 0 1 238-48m0-60a671 671 0 1 0 0 1342A671 671 0 0 0 671 0z" class="st1"/>
  </g>
  <g id="Layer_1">
    <path d="M268 485a197 197 0 0 1-11-36 131 131 0 0 1 1-61 113 113 0 0 1 41-60 203 203 0 0 1 62-31c17-6 35-10 53-13l7-3a519 519 0 0 1 111-55 425 425 0 0 1 95-21c96-10 185 11 267 59a365 365 0 0 1 69 52c11 10 20 21 28 33a6 6 0 0 0 4 2 41 41 0 0 1 16 8l23 20c24 23 44 49 64 75a858 858 0 0 1 81 128 325 325 0 0 1 24 59c3 13 5 26 6 40 2 49-7 97-24 143a319 319 0 0 1-48 88 182 182 0 0 1-40 38c-13 9-27 16-43 19a100 100 0 0 1-60-7l-12-6-2 5a283 283 0 0 1-57 83 166 166 0 0 1-60 38c-24 9-48 11-73 5-4 0-7 0-10 2a408 408 0 0 1-120 44 381 381 0 0 1-89 6c-80-3-153-29-221-69a447 447 0 0 1-46-32 8 8 0 0 0-6-2c-39 2-70-15-96-43a222 222 0 0 1-40-66 377 377 0 0 1-23-80 509 509 0 0 1 11-225 244 244 0 0 1 34-74 159 159 0 0 1 82-62l2-1zm665 132c-2 0-3-3-5-1l-11 9c-8 3-15 7-23 9-21 7-44 8-66 8-20-1-38-7-56-16a258 258 0 0 1-35-22l-50-38a475 475 0 0 0-66-43c-40-21-82-31-128-28-4 1-6 2-7 6a185 185 0 0 1-46 68 98 98 0 0 1-28 19 54 54 0 0 1-64-13 111 111 0 0 1-14-18c-9-13-14-29-19-44l-2-10c-13-1-25 1-37 4a133 133 0 0 0-69 49 215 215 0 0 0-34 71 487 487 0 0 0-17 121 490 490 0 0 0 21 153l13 32 1 1a177 177 0 0 0 39 54c12 11 26 19 43 23l4 1-1-4a691 691 0 0 1-27-114 369 369 0 0 1-4-98c2-17 6-34 13-50a111 111 0 0 1 64-64c17-7 35-9 53-9h5l-1-15c-1-14 0-28 4-42l3-8h1l-1 7-1 4a116 116 0 0 0 2 37l4 18h5a207 207 0 0 1 55 13c31 12 57 31 80 54a436 436 0 0 1 57 72c19 28 35 58 52 88 15 26 29 53 46 78a293 293 0 0 0 42 51 131 131 0 0 0 109 35 124 124 0 0 0 56-26c17-14 31-30 43-48a270 270 0 0 0 22-40c3-6 4-12 0-18a54 54 0 0 1-6-12 123 123 0 0 1-8-40c0-14 0-27 2-41l9-66 10-60 8-55 1-19-13-7-28-16zm-598-86 3 7h1l-2-9-4-14c-2-8-3-15-3-23a16 16 0 0 1 9-14l15-6a371 371 0 0 1 106-8h6a133 133 0 0 0-37-6c-19-1-39 0-58 3a145 145 0 0 0-35 8 77 77 0 0 0-10 6 7 7 0 0 0-3 7l1 8c2 14 6 28 11 41zm822 60-2-5a873 873 0 0 0-115-168 328 328 0 0 0-34-34c-2-1-4-2-6-5l-3 21v58l2 117c1 49-3 97-11 144l-16 102-3 30a186 186 0 0 0 0 39c1 9 2 18 6 26 4 9 10 16 19 20l20 8a65 65 0 0 0 26 3 84 84 0 0 0 38-13 148 148 0 0 0 35-30 273 273 0 0 0 43-72 364 364 0 0 0 30-123c1-20 0-39-5-58a264 264 0 0 0-18-50l-4-7-1-2-1-1zM605 887v-2a854 854 0 0 0-52-83 315 315 0 0 0-58-62c-41-32-87-48-140-42a87 87 0 0 0-74 54 159 159 0 0 0-13 57v43l1 17 1 13c4 27 10 55 17 82 9 29 4 20 21 46l7 7a446 446 0 0 0 246 98 368 368 0 0 0 164-26l29-13-2-1a178 178 0 0 1-51-40 380 380 0 0 1-40-52c-17-26-32-54-47-81l-9-15zm369-389v-5l-1-70c0-16 1-32 4-48l-1-6-8-14c-8-11-18-20-28-29a391 391 0 0 0-97-63 404 404 0 0 0-150-37 396 396 0 0 0-93 6c-43 8-83 23-121 42l-3 2 29-1a1224 1224 0 0 1 144 4c32 3 65 8 96 15a434 434 0 0 1 83 27 158 158 0 0 1 42 24c40 35 68 77 78 130l2 4 24 19zm-451-26L419 291h-3a439 439 0 0 0-69 19 119 119 0 0 0-29 15l-6 5 63 117 7-1c22-2 45-2 68 0a99 99 0 0 1 28 7c8 4 14 9 14 18l1 1h30zm188 82-77-136-77-135h-58l3 5 105 196a29 29 0 0 0 14 13c32 15 61 36 90 57zm-25-261 203 319a57 57 0 0 0 30-21l-3-4a289156 289156 0 0 1-145-228l-35-54c-1-3-3-5-6-5l-12-2-32-5zm-121-11 3 5 82 143 78 136 4 6 36 25 4 2-3-4a486304 486304 0 0 0-179-307l-1-3-3-1-21-2z" class="st0"/>
    <path d="m386 615 1-6 3-8a10 10 0 0 0-3 4l-1 4-3 7-29 5a198 198 0 0 0-40 13c-15 6-29 15-41 26a137 137 0 0 0-24 34 250 250 0 0 0-25 77l-3 23a493 493 0 0 0-2 27v28l3 30a353 353 0 0 0 2 20 187 187 0 0 1 3 34l-2 9c-1 5-4 7-9 5a58 58 0 0 1-22-12l-4-2c-6-10-9-21-13-31a382 382 0 0 1-18-79 478 478 0 0 1-3-75c1-41 6-81 17-121 7-25 18-49 34-71a133 133 0 0 1 68-49c12-3 24-5 37-4l3 10c4 15 10 31 18 44l14 19a54 54 0 0 0 64 12 101 101 0 0 0 28-19c21-19 36-42 47-68 1-4 3-5 7-5 45-3 88 6 128 27a475 475 0 0 1 65 43l51 38a186 186 0 0 0 90 38c23 1 45 0 67-7l22-10 37 22c3 2 7 3 5 8v2l-3 20-3 26-3 25-5 30-6 38a1779 1779 0 0 1-14 70 70 70 0 0 1-25 37 111 111 0 0 1-71 25l-21-2a63 63 0 0 1-27-9 241 241 0 0 1-49-38l-35-36-12-13-27-32-23-27-26-32-26-30-27-29c-5-6-12-11-18-16-8-7-18-14-27-19a226 226 0 0 0-61-23 270 270 0 0 0-53-6l-10-1zm202-59c0-3-4-6-7-6a7 7 0 0 0-7 7 7 7 0 0 0 7 6c3 0 7-3 7-7zm-293-35c0-4-3-7-7-7a7 7 0 0 0-6 7c0 4 3 6 6 7 4 0 7-3 7-7zm245-3c0-4-3-7-6-7a7 7 0 0 0-7 7c0 3 3 6 6 6 4 0 7-3 7-6zm-246 40c0 4 2 7 6 7 4 1 6-2 7-5a7 7 0 0 0-6-8 7 7 0 0 0-7 6zm-42-15c4 0 7-2 6-6a6 6 0 0 0-5-5 6 6 0 0 0-6 6 6 6 0 0 0 5 5zm21 38c0 4 3 6 6 6s6-3 6-6-3-6-6-5a6 6 0 0 0-6 5zm234-43a6 6 0 0 0-6 6 6 6 0 0 0 7 6c3 0 6-3 5-6a6 6 0 0 0-6-6zm-245 29a6 6 0 0 0-6-6c-4 0-6 3-6 6a6 6 0 0 0 6 6c3 0 6-3 6-6zm251 23c3 1 6-2 6-5a6 6 0 0 0-6-6 6 6 0 0 0-6 6 6 6 0 0 0 6 5zm43-1c0-3-3-6-6-6a6 6 0 0 0-6 6c0 4 2 6 6 6a6 6 0 0 0 6-6z" class="st1"/>
    <path d="m269 869-1-17v-43c1-20 4-39 13-57a87 87 0 0 1 74-54c53-6 99 9 140 42a312 312 0 0 1 58 62 854 854 0 0 1 52 83v2l-3 4c-10 14-20 28-33 39l-13 11a145 145 0 0 1-45 25 203 203 0 0 1-57 10c-17 0-33 0-49-3a151 151 0 0 1-56-22 232 232 0 0 1-46-40 446 446 0 0 1-29-37l-5-5z" class="st1"/>
    <path d="M386 615h11a270 270 0 0 1 53 7 224 224 0 0 1 60 23 224 224 0 0 1 45 35l27 29 26 30 26 32 23 26 28 33a1986 1986 0 0 0 47 49 235 235 0 0 0 49 38 64 64 0 0 0 27 9l20 2c27-1 51-8 71-25a71 71 0 0 0 26-37l5-25 9-45 6-38 4-30 3-25 4-26 2-21v-1c2-5-1-7-5-9l-36-21 11-9 5 1 1 2 24 14h4l12 7-1 19-7 55-10 60c-4 22-8 44-10 66a291 291 0 0 0-1 41c0 14 2 28 7 40 2 5 3 9 6 12 4 7 3 13 1 19a248 248 0 0 1-22 39c-12 18-26 34-43 48a124 124 0 0 1-56 26 119 119 0 0 1-58-4c-20-6-37-17-52-31a289 289 0 0 1-41-51c-17-25-32-52-47-78-16-30-33-60-51-88a436 436 0 0 0-57-72 235 235 0 0 0-81-54 203 203 0 0 0-54-13h-6l-4-17a116 116 0 0 1-1-38v-4z" class="st2"/>
    <path d="m269 869 5 5a446 446 0 0 0 29 37c14 15 29 29 46 40a149 149 0 0 0 56 22 228 228 0 0 0 106-7c16-6 32-13 45-25a216 216 0 0 0 46-50l3-5 9 15c15 28 30 55 47 82a372 372 0 0 0 40 52c15 16 31 30 51 39l3 2-29 13a362 362 0 0 1-165 26c-67-5-128-26-186-58a443 443 0 0 1-60-40 33 33 0 0 1-7-8c-16-26-12-17-20-46a603 603 0 0 1-17-81l-2-13z" class="st2"/>
    <path d="m969 851 3-30 16-101c8-48 12-96 11-145l-2-117v-57l2-21 7 5a318 318 0 0 1 33 33 873 873 0 0 1 116 168l2 5 1 1 1 2c-3 3-2 6-2 10l-4 22a432 432 0 0 1-11 43 360 360 0 0 1-34 79c-10 19-22 35-36 51a187 187 0 0 1-46 37 102 102 0 0 1-57 15z" style="fill:#feffff"/>
    <path d="M969 851c20 2 39-5 57-15s33-23 46-38c14-15 26-31 36-50l17-33a355 355 0 0 0 17-46l11-43 3-23c1-3 0-6 2-9l4 7a271 271 0 0 1 19 50c5 19 6 38 5 58a364 364 0 0 1-73 195 146 146 0 0 1-35 31 84 84 0 0 1-38 13c-9 0-18-1-26-3l-20-9a39 39 0 0 1-19-20c-4-8-6-17-7-26-1-13-1-26 1-39z" class="st2"/>
    <path d="m974 498-24-19a7 7 0 0 1-2-4c-10-53-38-95-78-130a161 161 0 0 0-41-25 434 434 0 0 0-84-26 760 760 0 0 0-96-15c-48-4-96-5-144-4l-29 1 3-2a441 441 0 0 1 121-42c31-6 62-8 94-6a406 406 0 0 1 150 37 391 391 0 0 1 97 63c10 9 19 18 27 29l8 14 1 6a272 272 0 0 0-4 48l1 70v5z" class="st4"/>
    <path d="M523 472h-30l-1-1c0-9-6-14-14-18a99 99 0 0 0-28-7 307 307 0 0 0-68 0l-7 1-63-117 6-5c9-7 19-12 29-15a436 436 0 0 1 69-19h3l104 181z" style="fill:#fefefe"/>
    <path d="m190 933 4 2a59 59 0 0 0 22 12c5 2 8 0 10-5l1-9c1-11-1-23-3-34l-2-20-2-30-1-4v-24a487 487 0 0 1 5-50c2-12 4-23 8-33a212 212 0 0 1 17-44 135 135 0 0 1 25-34c11-11 25-20 40-26 13-6 27-11 41-13l28-5a133 133 0 0 0-4 42l1 15h-5c-18 0-35 2-52 9a112 112 0 0 0-65 64c-7 16-11 33-13 50a365 365 0 0 0 4 98c6 39 15 77 28 114l1 4-5-1a97 97 0 0 1-43-23 173 173 0 0 1-39-54l-1-1z" style="fill:#d1d1d1"/>
    <path d="M711 554c-29-21-58-42-90-57-7-3-11-7-14-13L502 288l-3-5h58l77 135 77 136z" class="st4"/>
    <path d="m686 293 32 5 12 2c3 0 5 2 6 5l35 54a289156 289156 0 0 1 147 232 57 57 0 0 1-29 21L686 293z" style="fill:#fdfdfd"/>
    <path d="m565 282 21 2 3 1 1 3 179 306 3 5-5-2-35-25-4-6-78-136-82-143-3-5z" style="fill:#fbfcfc"/>
    <path d="M335 531a187 187 0 0 1-11-41l-1-8c-1-3 0-5 3-7l10-6a312 312 0 0 1 93-11c13 0 25 2 37 6h-55a299 299 0 0 0-57 7 72 72 0 0 0-15 6c-5 3-8 8-9 15a83 83 0 0 0 3 23l4 13-2 3z" style="fill:#f2f5f5"/>
    <path d="M962 633h-4l-24-14-1-2 29 16z" class="st10"/>
    <path d="m335 531 1-2c2 2 3 6 3 9h-1l-3-7z" style="fill:#c6c6c6"/>
    <path d="m386 608 1-3a10 10 0 0 1 3-4l-3 7h-1z" style="fill:#847e7d"/>
    <path d="m933 617-5-1c2-2 3 1 5 1z" class="st10"/>
    <path d="M588 556c0 4-4 7-7 7a7 7 0 0 1-7-6 7 7 0 0 1 7-7c3 0 6 3 6 6z" class="st14"/>
    <path d="M295 521c0 4-3 7-7 7a7 7 0 0 1-6-7c0-4 3-7 6-7 4 0 7 3 7 7z" class="st15"/>
    <path d="M540 518c0 3-3 6-7 6-3 0-6-3-6-6 0-4 3-7 7-7 3 0 6 3 6 7z" style="fill:#262523"/>
    <path d="M294 558c0-3 3-6 7-6 3 1 6 4 6 8-1 3-4 6-7 6a7 7 0 0 1-6-8z" style="fill:#252422"/>
    <path d="M252 543a6 6 0 0 1-6-6 6 6 0 0 1 6-5 6 6 0 0 1 6 5c1 3-2 6-6 6z" style="fill:#2b2a28"/>
    <path d="M273 581a6 6 0 0 1 6-6 6 6 0 0 1 6 6c0 3-3 6-6 6s-6-3-6-6z" class="st15"/>
    <path d="M507 538a6 6 0 0 1 6 6 6 6 0 0 1-6 6c-3 0-6-3-5-6 0-3 2-6 5-6z" style="fill:#282725"/>
    <path d="M262 567a6 6 0 0 1-6 6 6 6 0 0 1-6-6 6 6 0 0 1 6-6 6 6 0 0 1 6 6z" class="st14"/>
    <path d="M513 590a6 6 0 0 1-6-5 6 6 0 0 1 12 0c0 3-2 6-6 5z" style="fill:#2b2826"/>
    <path d="M556 589a6 6 0 0 1-6 6 6 6 0 0 1-6-6c0-3 2-6 6-6 3 0 6 3 6 6z" style="fill:#272624"/>
  </g>
</svg>
