<?xml version="1.0" standalone="no"?>
<!DOCTYPE svg PUBLIC "-//W3C//DTD SVG 20010904//EN"
 "http://www.w3.org/TR/2001/REC-SVG-20010904/DTD/svg10.dtd">
<svg version="1.0" xmlns="http://www.w3.org/2000/svg"
 width="512.000000pt" height="512.000000pt" viewBox="0 0 512.000000 512.000000"
 preserveAspectRatio="xMidYMid meet">
<metadata>
Created by potrace 1.16, written by Peter Selinger 2001-2019
</metadata>
<g transform="translate(0.000000,512.000000) scale(0.056826,-0.056826)"
fill="#000000" stroke="none">
<path d="M4215 8879 c-82 -5 -190 -16 -240 -24 -49 -9 -133 -22 -185 -30 -202
-30 -496 -94 -525 -115 -5 -4 -62 -22 -125 -39 -128 -36 -168 -50 -255 -91
-33 -16 -103 -45 -155 -66 -52 -20 -147 -65 -211 -100 -64 -35 -119 -64 -123
-64 -3 0 -67 -37 -141 -82 -75 -46 -158 -96 -186 -113 -63 -38 -301 -227 -438
-348 -57 -51 -113 -99 -125 -107 -35 -25 -166 -155 -166 -166 0 -5 -24 -34
-53 -64 -83 -88 -345 -410 -378 -465 -16 -27 -63 -102 -104 -165 -41 -63 -100
-167 -131 -230 -30 -63 -71 -140 -89 -170 -19 -31 -41 -78 -51 -105 -9 -28
-31 -81 -49 -120 -50 -105 -90 -211 -114 -300 -12 -43 -26 -84 -31 -90 -24
-30 -128 -503 -161 -740 -26 -187 -41 -500 -34 -720 6 -179 33 -456 55 -555 6
-25 28 -137 50 -250 22 -113 51 -239 65 -280 14 -41 41 -126 60 -189 19 -63
49 -144 66 -180 17 -36 49 -110 70 -165 22 -54 48 -110 58 -125 10 -14 45 -82
78 -151 33 -69 74 -145 91 -169 18 -24 32 -48 32 -54 0 -15 191 -299 223 -331
16 -16 39 -46 52 -66 26 -42 144 -182 276 -330 141 -156 370 -358 645 -567 88
-67 255 -173 364 -231 47 -25 101 -55 120 -67 52 -32 299 -150 345 -165 22 -7
76 -30 121 -50 44 -20 130 -52 190 -69 60 -18 150 -46 199 -61 203 -64 687
-144 980 -161 165 -10 543 -3 590 11 17 5 109 19 205 30 183 22 533 84 562
100 9 5 94 32 189 60 95 27 186 57 203 66 17 9 90 40 161 69 167 67 472 223
604 309 36 24 93 59 126 78 114 66 515 397 662 548 41 41 90 92 111 113 20 21
41 46 47 56 5 11 33 45 62 77 52 59 118 140 245 303 37 47 82 113 100 146 17
33 53 92 78 130 26 39 78 133 117 210 39 77 80 158 91 180 55 108 185 423 202
490 4 17 22 78 39 138 30 100 40 140 92 367 57 248 95 715 84 1040 -9 261 -54
635 -96 795 -10 39 -27 111 -39 160 -48 208 -134 456 -219 638 -23 48 -41 92
-41 97 0 5 -25 55 -55 111 -31 55 -68 129 -84 164 -16 34 -51 95 -78 136 -28
41 -60 94 -73 119 -38 76 -143 214 -357 470 -150 179 -305 338 -390 401 -29
22 -53 44 -53 49 0 5 -18 22 -39 37 -22 15 -107 83 -189 150 -83 67 -181 141
-219 164 -257 157 -329 198 -558 313 -109 54 -376 161 -480 191 -60 17 -135
41 -166 53 -57 21 -328 79 -506 108 -54 8 -136 22 -183 30 -176 29 -522 39
-815 23z m525 -29 c146 -8 530 -53 549 -65 3 -2 85 -20 181 -40 96 -21 243
-59 325 -86 83 -27 153 -49 157 -49 4 0 96 -38 205 -84 283 -119 485 -226 773
-410 74 -47 327 -246 444 -350 43 -39 107 -96 142 -126 80 -70 254 -269 420
-480 116 -147 280 -395 344 -520 196 -382 267 -549 351 -819 62 -200 128 -489
149 -646 6 -49 18 -135 25 -190 72 -509 6 -1196 -172 -1770 -113 -367 -282
-721 -534 -1124 -22 -36 -48 -74 -57 -86 -9 -12 -44 -57 -76 -100 -32 -43 -66
-85 -75 -94 -9 -9 -34 -39 -56 -66 -93 -117 -252 -290 -333 -364 -48 -43 -103
-93 -122 -111 -86 -78 -387 -315 -453 -356 -40 -24 -115 -71 -167 -104 -109
-69 -416 -226 -535 -275 -44 -18 -109 -46 -145 -63 -36 -16 -87 -36 -115 -45
-27 -8 -114 -36 -191 -61 -122 -40 -520 -130 -624 -142 -19 -2 -45 -6 -58 -8
-230 -48 -797 -54 -1097 -11 -295 42 -585 103 -776 165 -85 28 -157 50 -162
50 -23 0 -394 164 -537 238 -352 181 -607 358 -944 656 -207 183 -557 590
-680 791 -27 44 -70 114 -96 155 -112 176 -314 605 -388 825 -94 278 -168 595
-208 895 -24 187 -27 233 -27 535 0 316 1 340 32 561 17 127 40 265 50 305 11
41 27 112 36 159 67 343 290 880 528 1270 101 166 115 187 182 272 33 42 69
89 80 104 11 15 25 32 30 38 6 6 28 34 50 61 22 28 54 66 71 85 17 19 68 77
113 129 156 178 565 517 811 672 164 104 422 239 639 336 166 74 514 193 641
218 47 9 141 30 209 46 68 16 134 29 147 29 13 0 24 4 24 9 0 5 8 7 18 4 11
-2 73 3 138 12 221 31 488 40 764 25z"/>
<path d="M4395 8534 c-11 -2 -92 -8 -180 -14 -497 -31 -1049 -182 -1510 -412
-745 -372 -1380 -997 -1768 -1738 -192 -366 -337 -792 -396 -1160 -12 -74 -28
-177 -37 -228 -8 -51 -19 -179 -25 -285 -33 -578 91 -1263 323 -1787 262 -592
597 -1051 1070 -1465 655 -573 1506 -920 2388 -975 91 -5 178 -13 194 -16 50
-11 575 36 756 67 357 61 759 193 1095 359 526 259 1024 665 1383 1126 290
372 541 847 677 1283 38 121 105 395 126 510 24 138 75 713 65 730 -3 4 -10
95 -15 203 -17 304 -50 508 -132 816 -149 560 -415 1074 -792 1532 -92 111
-359 382 -468 475 -178 151 -408 315 -594 423 -459 266 -950 440 -1445 512
-231 33 -632 58 -715 44z m506 -1265 c246 -35 524 -121 749 -233 164 -81 294
-160 414 -249 99 -75 286 -255 325 -314 l29 -44 -5 -407 c-3 -224 -7 -409 -9
-411 -5 -6 -102 69 -127 99 -14 16 -34 65 -47 112 -25 92 -66 202 -107 281
-74 147 -238 351 -359 447 -191 152 -526 277 -934 349 -379 67 -596 84 -1087
85 -211 0 -383 4 -383 9 0 17 232 118 395 171 391 128 754 162 1146 105z
m-1082 -332 c24 -12 40 -39 311 -517 151 -267 335 -591 485 -855 119 -209 158
-285 151 -292 -3 -3 -42 21 -88 53 -171 120 -298 200 -383 244 -49 25 -105 61
-124 81 -21 20 -74 108 -125 205 -137 261 -335 634 -421 794 -134 249 -148
278 -141 289 10 16 303 15 335 -2z m204 -15 c9 -9 70 -106 134 -216 64 -111
146 -253 183 -316 68 -116 142 -243 285 -490 43 -74 90 -155 105 -180 15 -25
72 -121 125 -215 54 -93 143 -246 197 -339 54 -93 96 -171 94 -174 -11 -10
-177 111 -227 166 -30 32 -79 103 -110 158 -31 54 -126 218 -210 364 -83 146
-175 306 -204 355 -28 50 -113 196 -187 325 -207 358 -318 560 -318 576 0 19
108 8 133 -14z m-1045 -44 c11 -15 127 -214 335 -578 77 -135 175 -307 218
-382 44 -76 79 -140 79 -143 0 -3 -37 -5 -83 -5 l-83 0 -37 45 c-79 94 -176
118 -492 119 l-220 1 -61 110 c-93 170 -227 421 -278 520 l-45 90 27 22 c95
76 441 196 613 212 9 0 21 -5 27 -11z m1807 -20 c140 -21 136 -17 307 -288 90
-142 405 -640 738 -1165 108 -170 206 -326 218 -346 l22 -37 -46 -41 c-53 -46
-132 -88 -143 -75 -4 5 -52 79 -106 164 -158 249 -242 380 -405 635 -84 132
-202 317 -260 410 -59 94 -167 265 -240 380 -163 256 -230 366 -230 376 0 8
20 6 145 -13z m1956 -676 c177 -187 363 -426 532 -683 172 -261 277 -455 371
-684 65 -157 71 -195 71 -455 -1 -275 -10 -333 -101 -620 -100 -313 -244 -562
-424 -733 -74 -71 -109 -96 -188 -134 -90 -44 -103 -48 -190 -51 -111 -5 -199
19 -292 79 -107 69 -144 170 -144 394 0 162 18 316 80 685 101 603 106 685
102 1593 -2 408 1 748 5 755 12 17 63 -25 178 -146z m-3647 -332 c60 -6 116
-14 123 -19 9 -4 -75 -11 -189 -15 -360 -12 -512 -40 -579 -107 -24 -24 -26
-115 -4 -220 9 -40 13 -74 11 -77 -15 -15 -65 161 -73 258 -5 63 -4 67 21 88
52 40 228 80 406 91 69 5 136 9 150 10 14 0 74 -4 134 -9z m652 -240 c239 -41
447 -125 672 -272 54 -36 191 -136 306 -222 311 -236 456 -324 601 -367 144
-42 434 -34 591 16 40 12 107 43 149 69 l77 47 101 -57 c158 -87 167 -96 167
-154 0 -54 -41 -366 -65 -500 -80 -433 -107 -651 -109 -860 -1 -181 8 -240 55
-358 41 -102 38 -139 -16 -240 -82 -154 -156 -254 -275 -372 -169 -169 -288
-231 -481 -253 -275 -31 -541 93 -748 347 -125 154 -223 312 -567 916 -245
431 -475 720 -719 903 -101 75 -294 175 -400 206 -38 12 -119 29 -180 39
l-110 18 -13 54 c-8 31 -15 113 -16 187 0 72 -4 129 -8 127 -12 -8 -27 -108
-33 -234 -4 -69 -7 -126 -9 -127 -1 -1 -52 -7 -113 -13 -62 -6 -142 -20 -180
-31 -263 -81 -436 -285 -505 -599 -20 -94 -23 -130 -22 -345 1 -326 20 -448
140 -907 27 -102 45 -190 41 -194 -4 -4 -33 1 -63 11 -328 111 -580 558 -651
1153 -22 187 -22 548 1 752 31 286 96 541 178 704 49 98 141 226 210 293 71
70 196 153 274 183 71 26 204 52 249 48 l38 -3 34 -105 c50 -155 96 -240 174
-324 90 -97 142 -121 260 -121 79 0 91 3 164 39 148 73 300 245 407 460 35 72
48 88 73 95 53 16 199 12 321 -9z m-795 -1264 c130 -30 297 -102 414 -180 165
-109 381 -350 557 -621 63 -97 142 -233 303 -520 239 -428 414 -681 571 -824
32 -29 98 -80 146 -112 48 -33 88 -63 88 -68 0 -4 -30 -22 -67 -39 -197 -90
-358 -138 -591 -178 -133 -23 -188 -27 -357 -27 -174 -1 -221 3 -360 27 -218
37 -374 78 -538 142 -337 131 -742 373 -838 501 -64 85 -90 152 -150 390 -44
177 -63 275 -79 410 -60 529 18 847 252 1018 150 111 386 140 649 81z"/>
<path d="M3652 5508 c-7 -7 -12 -22 -12 -35 0 -20 5 -23 40 -23 39 0 40 1 40
35 0 32 -3 35 -28 35 -15 0 -33 -5 -40 -12z"/>
<path d="M2137 5493 c-4 -3 -7 -19 -7 -35 0 -25 4 -28 30 -28 38 0 58 37 32
58 -17 13 -45 16 -55 5z"/>
<path d="M1912 5380 c-6 -11 -12 -24 -12 -30 0 -14 36 -31 54 -24 21 8 21 60
0 68 -24 9 -28 8 -42 -14z"/>
<path d="M3490 5320 c0 -27 3 -30 30 -30 27 0 30 3 30 30 0 27 -3 30 -30 30
-27 0 -30 -3 -30 -30z"/>
<path d="M3940 5252 c0 -16 8 -36 19 -46 20 -18 27 -14 51 33 14 28 1 41 -42
41 -24 0 -28 -4 -28 -28z"/>
<path d="M2206 5251 c-34 -38 26 -85 62 -49 16 16 15 33 -4 52 -21 21 -37 20
-58 -3z"/>
<path d="M1930 5190 c-14 -26 -5 -40 23 -40 32 0 50 15 45 36 -5 28 -54 31
-68 4z"/>
<path d="M2088 5119 c-22 -12 -23 -42 -3 -59 12 -10 20 -9 41 5 23 15 24 18
11 38 -17 26 -27 29 -49 16z"/>
<path d="M3529 5084 c-9 -11 -10 -20 -2 -32 14 -23 34 -25 57 -7 19 14 19 15
1 35 -22 24 -38 25 -56 4z"/>
<path d="M3768 5069 c-10 -5 -18 -21 -18 -34 0 -22 5 -25 35 -25 34 0 35 1 29
28 -11 46 -16 49 -46 31z"/>
</g>
</svg>
