<svg height="250" viewBox="0 0 250 250" width="250" xmlns="http://www.w3.org/2000/svg"><path d="m229.015625 224.152344.792969-.199219v.199219zm-170.683594 0v-3.46875l131.851563-.394532 35.664062-.097656v-85.789062l-24.667968 2.179687 34.671874-13.175781 5.84375-1.882812 3.46875.59375v1.980468l-15.355468 9.90625v89.851563zm-53.394531-96.6875 2.277344-.195313zm0 0" fill="#49c85b"/><path d="m201.179688 136.582031 24.667968-2.179687v85.789062l-35.664062.097656v-40.121093zm0 0" fill="#34a647"/><path d="m125.199219 45.441406 20.007812-19.8125 96.390625 95.992188-5.84375 1.882812-34.671875 13.175782-10.996093 43.585937v-42.695313l14.660156-10.203124zm-72.316407 178.511719 5.449219.199219 171.476563-.199219h.199218l-.199218.101563-.792969.195312-29.519531 5.945312h-180.789063zm.296876-82.816406.199218.101562-.398437 4.851563-.097657.992187-34.175781 1.882813v-3.667969l-13.472656-15.054687 34.769531-2.578126h.199219zm29.324218-58.347657v-10.796874l7.921875-.992188zm0 0" fill="#18471e"/><path d="m18.707031 148.964844 34.175781-1.882813v76.871094l-34.175781 6.144531zm21.296875-22.09375.199219.894531h-.199219l-34.769531 2.574219-.296875-2.875 2.277344-.195313 32.097656-2.675781zm26.746094-69.441406v40.617187l-35.761719 1.683594.398438-38.042969zm0 0" fill="#4fac5c"/><path d="m66.75 98.738281v-.792969l1.785156-.988281zm0 0" fill="#4ead5c"/><path d="m82.503906 57.628906v25.457032l-13.96875 13.871093-1.882812 1.089844v-40.617187h6.140625zm0 0" fill="#2bbb47"/><path d="m82.503906 71.992188v-14.363282l-9.710937-.199218 34.277343-34.671876 38.4375-2.773437 99.554688 99.558594v2.671875l-3.464844-.59375-96.390625-95.992188-20.007812 19.8125-80.933594 80.339844 13.964844 14.859375v83.511719l-5.449219-.199219v-76.871094l.101562-.992187.394532-4.851563-.195313-.101562-12.980469-13.472657-.195312-.890624-.695312-2.277344-32.097657 2.671875-2.277343.199219.101562-.394532 26.050781-27.242187 35.761719-1.683594v.789063l1.785156-1.878907 13.96875-13.96875v-.199219l7.921875-11.789062zm0 0" fill="#4fce6a"/></svg>