<!-- Generator: Adobe Illustrator 26.3.1, SVG Export Plug-In . SVG Version: 6.00 Build 0)  -->
<svg xmlns="http://www.w3.org/2000/svg" xmlns:xlink="http://www.w3.org/1999/xlink" width="250px" height="250px" viewBox="0 0 250 250" version="1.1">
<g id="surface1">
<path style=" stroke:none;fill-rule:nonzero;fill:rgb(28.627452%,78.431374%,35.686275%);fill-opacity:1;" d="M 229.015625 224.152344 L 229.808594 223.953125 L 229.808594 224.152344 L 229.015625 224.152344 M 58.332031 224.152344 L 58.332031 220.683594 L 190.183594 220.289062 L 225.847656 220.191406 L 225.847656 134.402344 L 201.179688 136.582031 L 235.851562 123.40625 L 241.695312 121.523438 L 245.164062 122.117188 L 245.164062 124.097656 L 229.808594 134.003906 L 229.808594 223.855469 L 58.332031 224.152344 M 4.9375 127.464844 L 7.214844 127.269531 Z M 4.9375 127.464844 "/>
<path style=" stroke:none;fill-rule:nonzero;fill:rgb(20.392157%,65.098041%,27.843139%);fill-opacity:1;" d="M 201.179688 136.582031 L 225.847656 134.402344 L 225.847656 220.191406 L 190.183594 220.289062 L 190.183594 180.167969 Z M 201.179688 136.582031 "/>
<path style=" stroke:none;fill-rule:nonzero;fill:rgb(9.411765%,27.843139%,11.764706%);fill-opacity:1;" d="M 125.199219 45.441406 L 145.207031 25.628906 L 241.597656 121.621094 L 235.753906 123.503906 L 201.082031 136.679688 L 190.085938 180.265625 L 190.085938 137.570312 L 204.746094 127.367188 L 125.199219 45.441406 M 52.882812 223.953125 L 58.332031 224.152344 L 229.808594 223.953125 L 230.007812 223.953125 L 229.808594 224.054688 L 229.015625 224.25 L 199.496094 230.195312 L 18.707031 230.195312 L 52.882812 223.953125 M 53.179688 141.136719 L 53.378906 141.238281 L 52.980469 146.089844 L 52.882812 147.082031 L 18.707031 148.964844 L 18.707031 145.296875 L 5.234375 130.242188 L 40.003906 127.664062 L 40.203125 127.664062 L 53.179688 141.136719 M 82.503906 82.789062 L 82.503906 71.992188 L 90.425781 71 Z M 82.503906 82.789062 "/>
<path style=" stroke:none;fill-rule:nonzero;fill:rgb(30.980393%,67.450982%,36.078432%);fill-opacity:1;" d="M 18.707031 148.964844 L 52.882812 147.082031 L 52.882812 223.953125 L 18.707031 230.097656 L 18.707031 148.964844 M 40.003906 126.871094 L 40.203125 127.765625 L 40.003906 127.765625 L 5.234375 130.339844 L 4.9375 127.464844 L 7.214844 127.269531 L 39.3125 124.59375 L 40.003906 126.871094 M 66.75 57.429688 L 66.75 98.046875 L 30.988281 99.730469 L 31.386719 61.6875 Z M 66.75 57.429688 "/>
<path style=" stroke:none;fill-rule:nonzero;fill:rgb(30.588236%,67.843139%,36.078432%);fill-opacity:1;" d="M 66.75 98.738281 L 66.75 97.945312 L 68.535156 96.957031 Z M 66.75 98.738281 "/>
<path style=" stroke:none;fill-rule:nonzero;fill:rgb(16.862746%,73.333335%,27.843139%);fill-opacity:1;" d="M 82.503906 57.628906 L 82.503906 83.085938 L 68.535156 96.957031 L 66.652344 98.046875 L 66.652344 57.429688 L 72.792969 57.429688 Z M 82.503906 57.628906 "/>
<path style=" stroke:none;fill-rule:nonzero;fill:rgb(30.980393%,80.784315%,41.568628%);fill-opacity:1;" d="M 82.503906 71.992188 L 82.503906 57.628906 L 72.792969 57.429688 L 107.070312 22.757812 L 145.507812 19.984375 L 245.0625 119.542969 L 245.0625 122.214844 L 241.597656 121.621094 L 145.207031 25.628906 L 125.199219 45.441406 L 44.265625 125.78125 L 58.230469 140.640625 L 58.230469 224.152344 L 52.78125 223.953125 L 52.78125 147.082031 L 52.882812 146.089844 L 53.277344 141.238281 L 53.082031 141.136719 L 40.101562 127.664062 L 39.90625 126.773438 L 39.210938 124.496094 L 7.113281 127.167969 L 4.835938 127.367188 L 4.9375 126.972656 L 30.988281 99.730469 L 66.75 98.046875 L 66.75 98.835938 L 68.535156 96.957031 L 82.503906 82.988281 L 82.503906 82.789062 L 90.425781 71 Z M 82.503906 71.992188 "/>
</g>
</svg>
