<?xml version="1.0" encoding="utf-8"?>
<!-- Generator: Adobe Illustrator 26.3.1, SVG Export Plug-In . SVG Version: 6.00 Build 0)  -->
<svg version="1.1" id="Layer_1" xmlns="http://www.w3.org/2000/svg" xmlns:xlink="http://www.w3.org/1999/xlink" x="0px" y="0px"
	 viewBox="0 0 256 256" style="enable-background:new 0 0 256 256;" xml:space="preserve">
<style type="text/css">
	.st0{fill:#49C85B;}
	.st1{fill:#34A647;}
	.st2{fill:#18471E;}
	.st3{fill:#4FAC5C;}
	.st4{fill:#4EAD5C;}
	.st5{fill:#2BBB47;}
	.st6{fill:#4FCE6A;}
</style>
<g transform="matrix( -1.014404296875, 0, 0, 1.014404296875, 128,153.35) ">
	<g transform="matrix( 1, 0, 0, 1, 0,0) ">
		<g>
			<g id="stupid_copy_0_Layer0_0_FILL">
				<path class="st0" d="M-105,75.1l-0.8-0.2v0.2H-105 M67.3,75.1v-3.5l-133.1-0.4l-36-0.1v-86.6l24.9,2.2l-35-13.3l-5.9-1.9
					l-3.5,0.6v2l15.5,10v90.7L67.3,75.1 M121.2-22.5L121.2-22.5l-2.3-0.2L121.2-22.5z"/>
				<path class="st1" d="M-76.9-13.3l-24.9-2.2v86.6l36,0.1V30.7L-76.9-13.3z"/>
				<path class="st2" d="M-0.2-105.3l-20.2-20l-97.3,96.9l5.9,1.9l35,13.3l11.1,44v-43.1l-14.8-10.3L-0.2-105.3 M72.8,74.9l-5.5,0.2
					l-173.1-0.2h-0.2l0.2,0.1l0.8,0.2l29.8,6h182.5L72.8,74.9 M72.5-8.7l-0.2,0.1l0.4,4.9l0.1,1l34.5,1.9v-3.7l13.6-15.2l-35.1-2.6
					h-0.2L72.5-8.7 M42.9-67.6v-10.9l-8-1L42.9-67.6z"/>
				<path class="st3" d="M107.3-0.8L72.8-2.7v77.6l34.5,6.2V-0.8 M85.8-23.1l-0.2,0.9h0.2l35.1,2.6l0.3-2.9l-2.3-0.2l-32.4-2.7
					L85.8-23.1 M58.8-93.2v41l36.1,1.7l-0.4-38.4L58.8-93.2z"/>
				<path class="st4" d="M58.8-51.5v-0.8L57-53.3L58.8-51.5z"/>
				<path class="st5" d="M42.9-93v14.6v10.9v0.2L57-53.3l1.9,1.1v-41l-6.2,0L42.9-93z"/>
				<path class="st6" d="M42.9-78.5V-93l9.8-0.2l-34.6-35l-38.8-2.8L-121.2-30.5v2.7l3.5-0.6l97.3-96.9l20.2,20l81.7,81.1l-14.1,15
					v80.8v3.5l5.5-0.2V-2.7l-0.1-1l-0.4-4.9l0.2-0.1l13.1-13.6l0.2-0.9l0.7-2.3l32.4,2.7l2.3,0.2l-0.1-0.4L94.9-50.5v0l-36.1-1.7
					v0.8L57-53.3L42.9-67.4v-0.2l-8-11.9L42.9-78.5z"/>
			</g>
		</g>
	</g>
</g>
</svg>
