<?xml version="1.0" encoding="UTF-8"?>
<!DOCTYPE svg PUBLIC "-//W3C//DTD SVG 1.1//EN" "http://www.w3.org/Graphics/SVG/1.1/DTD/svg11.dtd">
<svg xmlns="http://www.w3.org/2000/svg" version="1.1" width="1500px" height="1500px" style="shape-rendering:geometricPrecision; text-rendering:geometricPrecision; image-rendering:optimizeQuality; fill-rule:evenodd; clip-rule:evenodd" xmlns:xlink="http://www.w3.org/1999/xlink">
<g><path style="opacity:1" fill="#90924b" d="M -0.5,-0.5 C -0.166667,-0.5 0.166667,-0.5 0.5,-0.5C 0.5,499.167 0.5,998.833 0.5,1498.5C 15.5,1498.5 30.5,1498.5 45.5,1498.5C 45.5,1498.83 45.5,1499.17 45.5,1499.5C 30.1667,1499.5 14.8333,1499.5 -0.5,1499.5C -0.5,999.5 -0.5,499.5 -0.5,-0.5 Z"/></g>
<g><path style="opacity:1" fill="#838637" d="M 0.5,-0.5 C 500.167,-0.5 999.833,-0.5 1499.5,-0.5C 1499.5,499.5 1499.5,999.5 1499.5,1499.5C 1403.83,1499.5 1308.17,1499.5 1212.5,1499.5C 1212.41,1482.16 1212.75,1464.82 1213.5,1447.5C 1214.17,1437.84 1214.5,1428.01 1214.5,1418C 1214.61,1401.31 1213.94,1384.81 1212.5,1368.5C 1211.71,1344.82 1210.54,1321.15 1209,1297.5C 1200.38,1230.42 1170.88,1174.59 1120.5,1130C 1098.68,1110.86 1074.68,1094.86 1048.5,1082C 1083.35,1068.16 1112.52,1046.66 1136,1017.5C 1149.13,997.407 1162.63,977.573 1176.5,958C 1186.23,959.474 1196.06,960.307 1206,960.5C 1218.89,961.204 1230.72,958.037 1241.5,951C 1250.34,943.146 1254.68,933.313 1254.5,921.5C 1279.66,922.975 1303.33,917.809 1325.5,906C 1346.29,892.629 1353.45,874.129 1347,850.5C 1341.72,842.444 1334.22,838.444 1324.5,838.5C 1325.36,835.089 1326.53,831.756 1328,828.5C 1328.33,823.167 1328.67,817.833 1329,812.5C 1340.51,809.914 1350.18,804.247 1358,795.5C 1359.59,791.969 1360.76,788.302 1361.5,784.5C 1371.78,781.946 1380.61,776.946 1388,769.5C 1396.73,757.877 1396.56,746.377 1387.5,735C 1407.94,711.058 1414.11,683.891 1406,653.5C 1401.22,642.944 1394.72,633.611 1386.5,625.5C 1401.73,609.118 1401.06,593.285 1384.5,578C 1380.78,575.473 1376.78,573.473 1372.5,572C 1366.28,564.786 1360.45,557.286 1355,549.5C 1346.18,531.174 1335.84,513.841 1324,497.5C 1297.16,466.008 1262.99,452.008 1221.5,455.5C 1220.97,438.631 1218.8,421.964 1215,405.5C 1204.74,369.241 1181.58,345.407 1145.5,334C 1115.21,323.741 1084.21,316.408 1052.5,312C 1001.46,303.907 950.122,300.74 898.5,302.5C 892.931,302.376 887.598,303.043 882.5,304.5C 833.263,309.631 788.43,326.297 748,354.5C 716.65,319.73 678.15,296.563 632.5,285C 549.38,264.222 469.38,272.555 392.5,310C 334.14,350.517 301.307,406.35 294,477.5C 283.599,509.571 264.432,535.071 236.5,554C 169.773,614.606 128.439,689.44 112.5,778.5C 111.028,782.919 110.362,787.586 110.5,792.5C 103.612,824.439 96.7783,856.439 90,888.5C 83.1088,928.407 84.1088,968.074 93,1007.5C 101.556,1040.35 120.056,1065.68 148.5,1083.5C 129.995,1097.16 112.495,1112.16 96,1128.5C 68.2103,1163.12 52.877,1202.79 50,1247.5C 48.336,1265.46 47.336,1283.46 47,1301.5C 45.6293,1367.16 45.1293,1432.82 45.5,1498.5C 30.5,1498.5 15.5,1498.5 0.5,1498.5C 0.5,998.833 0.5,499.167 0.5,-0.5 Z"/></g>
<g><path style="opacity:1" fill="#030301" d="M 882.5,304.5 C 888.051,304.473 893.384,303.806 898.5,302.5C 950.122,300.74 1001.46,303.907 1052.5,312C 1084.21,316.408 1115.21,323.741 1145.5,334C 1181.58,345.407 1204.74,369.241 1215,405.5C 1218.8,421.964 1220.97,438.631 1221.5,455.5C 1262.99,452.008 1297.16,466.008 1324,497.5C 1335.84,513.841 1346.18,531.174 1355,549.5C 1360.45,557.286 1366.28,564.786 1372.5,572C 1376.78,573.473 1380.78,575.473 1384.5,578C 1401.06,593.285 1401.73,609.118 1386.5,625.5C 1394.72,633.611 1401.22,642.944 1406,653.5C 1414.11,683.891 1407.94,711.058 1387.5,735C 1396.56,746.377 1396.73,757.877 1388,769.5C 1380.61,776.946 1371.78,781.946 1361.5,784.5C 1360.76,788.302 1359.59,791.969 1358,795.5C 1350.18,804.247 1340.51,809.914 1329,812.5C 1328.67,817.833 1328.33,823.167 1328,828.5C 1326.53,831.756 1325.36,835.089 1324.5,838.5C 1334.22,838.444 1341.72,842.444 1347,850.5C 1353.45,874.129 1346.29,892.629 1325.5,906C 1303.33,917.809 1279.66,922.975 1254.5,921.5C 1254.68,933.313 1250.34,943.146 1241.5,951C 1230.72,958.037 1218.89,961.204 1206,960.5C 1196.06,960.307 1186.23,959.474 1176.5,958C 1162.63,977.573 1149.13,997.407 1136,1017.5C 1112.52,1046.66 1083.35,1068.16 1048.5,1082C 1074.68,1094.86 1098.68,1110.86 1120.5,1130C 1170.88,1174.59 1200.38,1230.42 1209,1297.5C 1210.54,1321.15 1211.71,1344.82 1212.5,1368.5C 1213.26,1394.83 1213.59,1421.16 1213.5,1447.5C 1212.75,1464.82 1212.41,1482.16 1212.5,1499.5C 1208.5,1499.5 1204.5,1499.5 1200.5,1499.5C 1203.29,1439.81 1202.79,1380.15 1199,1320.5C 1195.57,1246.47 1166.07,1185.31 1110.5,1137C 1089.25,1118.45 1065.75,1103.28 1040,1091.5C 1023.94,1112.56 1005.44,1131.4 984.5,1148C 934.177,1181.15 879.51,1204.49 820.5,1218C 748.129,1234.64 674.796,1242.48 600.5,1241.5C 498.44,1241.45 398.773,1226.29 301.5,1196C 265.758,1184.79 232.425,1168.79 201.5,1148C 182.069,1133.41 166.402,1115.57 154.5,1094.5C 134.019,1108.47 115.519,1124.81 99,1143.5C 75.8064,1176.74 63.1397,1213.74 61,1254.5C 56.8092,1336.12 55.6425,1417.79 57.5,1499.5C 53.5,1499.5 49.5,1499.5 45.5,1499.5C 45.5,1499.17 45.5,1498.83 45.5,1498.5C 45.1293,1432.82 45.6293,1367.16 47,1301.5C 47.336,1283.46 48.336,1265.46 50,1247.5C 52.877,1202.79 68.2103,1163.12 96,1128.5C 112.495,1112.16 129.995,1097.16 148.5,1083.5C 120.056,1065.68 101.556,1040.35 93,1007.5C 84.1088,968.074 83.1088,928.407 90,888.5C 96.7783,856.439 103.612,824.439 110.5,792.5C 111.972,788.081 112.638,783.414 112.5,778.5C 128.439,689.44 169.773,614.606 236.5,554C 264.432,535.071 283.599,509.571 294,477.5C 301.307,406.35 334.14,350.517 392.5,310C 469.38,272.555 549.38,264.222 632.5,285C 678.15,296.563 716.65,319.73 748,354.5C 788.43,326.297 833.263,309.631 882.5,304.5 Z"/></g>
<g><path style="opacity:1" fill="#7c5d00" d="M 695.5,326.5 C 687.999,337.5 678.666,346.667 667.5,354C 627.17,376.601 583.837,385.935 537.5,382C 498.276,380.151 462.943,367.817 431.5,345C 422.015,336.802 414.348,327.302 408.5,316.5C 483.37,282.834 560.37,277.334 639.5,300C 657.57,306.035 674.903,313.702 691.5,323C 693.093,323.949 694.426,325.115 695.5,326.5 Z"/></g>
<g><path style="opacity:1" fill="#2a2b14" d="M 898.5,302.5 C 893.384,303.806 888.051,304.473 882.5,304.5C 887.598,303.043 892.931,302.376 898.5,302.5 Z"/></g>
<g><path style="opacity:1" fill="#7c5d00" d="M 1119.5,339.5 C 1108.85,360.855 1092.51,376.355 1070.5,386C 1005.02,413.64 939.682,413.307 874.5,385C 850.421,373.425 833.087,355.591 822.5,331.5C 849.188,321.729 876.855,316.229 905.5,315C 978.135,313.095 1049.47,321.261 1119.5,339.5 Z"/></g>
<g><path style="opacity:1" fill="#838637" d="M 408.5,316.5 C 414.348,327.302 422.015,336.802 431.5,345C 462.943,367.817 498.276,380.151 537.5,382C 583.837,385.935 627.17,376.601 667.5,354C 678.666,346.667 687.999,337.5 695.5,326.5C 699.933,329.084 704.266,331.918 708.5,335C 747.992,369.816 780.825,409.982 807,455.5C 812.655,465.969 816.822,476.969 819.5,488.5C 764.636,480.434 709.636,473.267 654.5,467C 613.257,462.921 571.924,461.587 530.5,463C 510.476,464.384 490.809,467.717 471.5,473C 450.867,479.878 430.534,487.544 410.5,496C 406.874,498.251 405.707,501.418 407,505.5C 408.255,507.594 410.088,508.594 412.5,508.5C 429.516,502.105 446.516,495.605 463.5,489C 496.36,478.737 530.027,473.904 564.5,474.5C 644.408,477.657 723.742,486.157 802.5,500C 809.807,500.95 817.14,501.617 824.5,502C 830.53,511.216 836.696,520.383 843,529.5C 859.899,550.967 876.066,572.967 891.5,595.5C 801.896,556.375 707.896,538.875 609.5,543C 568.2,547.724 528.533,558.391 490.5,575C 458.685,585.131 426.018,590.464 392.5,591C 387.633,594.484 387.3,598.318 391.5,602.5C 408.819,611.158 425.819,620.325 442.5,630C 471.793,652.646 501.793,674.313 532.5,695C 578.705,721.397 627.372,741.73 678.5,756C 737.081,764.979 794.747,760.979 851.5,744C 859.511,740.912 867.344,737.412 875,733.5C 878.431,735.261 881.597,737.428 884.5,740C 873.428,755.4 859.094,766.733 841.5,774C 807.275,786.445 771.942,793.779 735.5,796C 705.844,797.376 676.178,797.71 646.5,797C 605.455,793.829 564.455,790.496 523.5,787C 519.012,792.208 520.012,796.208 526.5,799C 538.802,800.558 551.135,801.724 563.5,802.5C 568.944,803.884 574.611,804.55 580.5,804.5C 635.714,810.926 691.047,812.093 746.5,808C 779.765,805.13 812.099,798.13 843.5,787C 856.295,781.774 867.961,774.774 878.5,766C 884.011,759.657 889.677,753.491 895.5,747.5C 920.156,764.278 947.156,775.612 976.5,781.5C 979.961,782.866 983.627,783.866 987.5,784.5C 1021.61,793.23 1056.27,798.23 1091.5,799.5C 1117.17,800.833 1142.83,800.833 1168.5,799.5C 1209.95,797.888 1250.95,792.721 1291.5,784C 1311.45,778.241 1330.78,770.908 1349.5,762C 1359.34,756.918 1368.67,751.084 1377.5,744.5C 1380.42,746.334 1381.75,749 1381.5,752.5C 1379.9,760.942 1374.9,766.442 1366.5,769C 1361.76,770.47 1357.09,772.136 1352.5,774C 1351.33,775.167 1350.17,776.333 1349,777.5C 1349.64,786.866 1345.48,793.033 1336.5,796C 1296.38,810.077 1255.04,818.244 1212.5,820.5C 1202.49,820.334 1192.49,820.5 1182.5,821C 1181.26,821.232 1180.26,821.732 1179.5,822.5C 1174.16,822.666 1168.82,822.499 1163.5,822C 1158.79,817.62 1153.79,813.62 1148.5,810C 1140.47,809.454 1138.3,812.954 1142,820.5C 1152.13,828.297 1161.3,837.13 1169.5,847C 1177.27,849.575 1180.43,846.742 1179,838.5C 1177.98,837.646 1177.14,836.646 1176.5,835.5C 1223.33,834.952 1269.33,828.618 1314.5,816.5C 1316.7,826.268 1313.7,834.101 1305.5,840C 1283.95,853.989 1260.29,859.322 1234.5,856C 1203.2,852.633 1171.87,849.633 1140.5,847C 1108.51,845.532 1076.51,845.198 1044.5,846C 1029.42,846.506 1014.42,847.84 999.5,850C 972.277,855.889 945.277,862.556 918.5,870C 825.879,889.654 732.879,891.654 639.5,876C 620.826,874.232 602.493,875.899 584.5,881C 560.07,891.994 545.903,910.827 542,937.5C 541.5,944.158 541.334,950.825 541.5,957.5C 540.691,955.708 540.191,953.708 540,951.5C 510.511,1007.33 473.011,1057.16 427.5,1101C 422.167,1105 416.833,1109 411.5,1113C 398.558,1121.3 385.225,1128.8 371.5,1135.5C 303.33,1125.57 237.33,1107.74 173.5,1082C 159.067,1075.47 146.067,1066.97 134.5,1056.5C 142.763,1054.95 149.596,1050.95 155,1044.5C 167.599,1028.04 174.266,1009.38 175,988.5C 178.27,953.437 170.603,921.104 152,891.5C 141.468,875.766 126.968,866.433 108.5,863.5C 111.628,851.189 114.628,838.856 117.5,826.5C 127.628,850.765 145.295,858.931 170.5,851C 187.792,844.359 203.125,834.692 216.5,822C 266.477,771.56 299.977,711.727 317,642.5C 322.899,619.699 323.899,596.699 320,573.5C 313.425,549.291 297.591,537.958 272.5,539.5C 288.553,523.07 299.72,503.736 306,481.5C 309.961,447.915 319.961,416.248 336,386.5C 352.707,361.458 373.207,339.958 397.5,322C 400.91,319.628 404.577,317.795 408.5,316.5 Z"/></g>
<g><path style="opacity:1" fill="#838637" d="M 822.5,331.5 C 833.087,355.591 850.421,373.425 874.5,385C 939.682,413.307 1005.02,413.64 1070.5,386C 1092.51,376.355 1108.85,360.855 1119.5,339.5C 1139.95,344.726 1158.95,353.226 1176.5,365C 1195.47,383.782 1205.64,406.615 1207,433.5C 1208.02,441.47 1208.52,449.47 1208.5,457.5C 1144.76,465.308 1080.76,468.975 1016.5,468.5C 1003.97,468.296 991.633,468.962 979.5,470.5C 932.725,471.016 886.725,477.182 841.5,489C 839.167,489.667 836.833,489.667 834.5,489C 829.274,471.995 822.107,455.828 813,440.5C 796.085,413.832 777.585,388.332 757.5,364C 777.22,349.473 798.886,338.64 822.5,331.5 Z"/></g>
<g><path style="opacity:1" fill="#1f1f0f" d="M 1016.5,468.5 C 1004.35,469.667 992.014,470.334 979.5,470.5C 991.633,468.962 1003.97,468.296 1016.5,468.5 Z"/></g>
<g><path style="opacity:1" fill="#838637" d="M 958.5,484.5 C 968.065,484.937 977.398,484.27 986.5,482.5C 1064.79,482.877 1142.79,478.377 1220.5,469C 1257.67,464.719 1288.51,476.552 1313,504.5C 1324.68,519.171 1334.34,535.171 1342,552.5C 1344.92,557.34 1348.09,562.006 1351.5,566.5C 1350.83,566.833 1350.17,567.167 1349.5,567.5C 1286.92,558.669 1224.26,558.169 1161.5,566C 1122.59,572.115 1085.59,584.115 1050.5,602C 1009.52,620.16 966.858,632.327 922.5,638.5C 921.506,629.358 919.006,620.691 915,612.5C 910.509,602.849 905.509,593.515 900,584.5C 884.577,563.321 868.91,542.321 853,521.5C 848.637,515.302 844.47,508.969 840.5,502.5C 859.185,498.441 877.851,494.274 896.5,490C 917.085,487.224 937.752,485.391 958.5,484.5 Z"/></g>
<g><path style="opacity:1" fill="#66682b" d="M 986.5,482.5 C 977.398,484.27 968.065,484.937 958.5,484.5C 967.648,483.344 976.981,482.677 986.5,482.5 Z"/></g>
<g><path style="opacity:1" fill="#828537" d="M 278.5,551.5 C 295.756,552.916 305.923,562.25 309,579.5C 311.696,603.544 309.696,627.211 303,650.5C 284.915,713.844 252.748,768.677 206.5,815C 195.493,825 183.16,833 169.5,839C 147.621,846.979 133.788,839.813 128,817.5C 125.552,803.944 124.885,790.277 126,776.5C 139.853,699.285 174.353,633.119 229.5,578C 240.18,568.329 252.18,560.663 265.5,555C 269.86,553.417 274.194,552.25 278.5,551.5 Z"/></g>
<g><path style="opacity:1" fill="#b99312" d="M 516.5,648.5 C 517.889,643.731 518.556,638.731 518.5,633.5C 521.717,617.068 528.217,602.068 538,588.5C 546.53,579.636 555.363,571.136 564.5,563C 572.725,560.684 581.058,559.351 589.5,559C 568.333,572.167 551.167,589.333 538,610.5C 532.906,621.297 529.572,632.63 528,644.5C 527.2,654.837 526.367,665.17 525.5,675.5C 522.528,673.694 519.695,671.694 517,669.5C 516.5,662.508 516.334,655.508 516.5,648.5 Z"/></g>
<g><path style="opacity:1" fill="#ba9312" d="M 721.5,561.5 C 722.449,560.848 723.615,560.514 725,560.5C 729.833,561.333 734.666,562.166 739.5,563C 755.188,580.201 766.355,600.034 773,622.5C 780.762,665.215 768.596,701.048 736.5,730C 729.5,735.667 722.5,741.333 715.5,747C 710.799,747.719 706.133,747.553 701.5,746.5C 700.068,746.267 699.568,745.6 700,744.5C 718.216,731.954 734.216,716.954 748,699.5C 766.729,668.818 768.396,637.152 753,604.5C 744.955,588.3 734.455,573.966 721.5,561.5 Z"/></g>
<g><path style="opacity:1" fill="#fdfdfd" d="M 767.5,747.5 C 756.986,747.828 746.653,747.494 736.5,746.5C 778.982,713.514 795.149,670.514 785,617.5C 780.049,599.097 771.549,582.597 759.5,568C 804.44,575.757 847.44,589.757 888.5,610C 904.04,618.905 911.373,632.405 910.5,650.5C 907.183,688.655 887.85,715.155 852.5,730C 825.114,740.343 796.781,746.176 767.5,747.5 Z"/></g>
<g><path style="opacity:1" fill="#adadad" d="M 532.5,575.5 C 531.791,574.596 530.791,574.263 529.5,574.5C 531.225,573.095 533.225,572.595 535.5,573C 534.627,574.045 533.627,574.878 532.5,575.5 Z"/></g>
<g><path style="opacity:1" fill="#fafafa" d="M 529.5,574.5 C 530.791,574.263 531.791,574.596 532.5,575.5C 513.026,599.578 503.026,627.245 502.5,658.5C 487.808,648.153 473.475,637.319 459.5,626C 446.326,617.243 432.659,609.243 418.5,602C 424.435,600.761 430.435,600.261 436.5,600.5C 442.845,600.776 448.845,599.776 454.5,597.5C 464.561,595.318 474.561,592.818 484.5,590C 499.498,584.723 514.498,579.557 529.5,574.5 Z"/></g>
<g><path style="opacity:1" fill="#818437" d="M 1191.5,608.5 C 1188.94,608.198 1186.61,608.532 1184.5,609.5C 1164.33,611.522 1144.33,614.689 1124.5,619C 1095.19,626.997 1065.85,634.997 1036.5,643C 1023.52,645.413 1010.52,647.58 997.5,649.5C 993.958,649.187 990.625,649.521 987.5,650.5C 974.462,650.827 961.462,650.327 948.5,649C 945.833,648.333 945.833,647.667 948.5,647C 969.59,643.303 990.257,637.97 1010.5,631C 1044.99,617.725 1079.33,604.058 1113.5,590C 1146.46,580.481 1180.13,575.148 1214.5,574C 1263.77,571.928 1312.77,574.595 1361.5,582C 1374.23,583.735 1382.23,590.735 1385.5,603C 1384.28,609.892 1380.44,614.725 1374,617.5C 1364.56,613.348 1354.73,610.515 1344.5,609C 1332.23,607.107 1319.9,605.774 1307.5,605C 1279.83,604.333 1252.17,604.333 1224.5,605C 1213.45,605.837 1202.45,607.003 1191.5,608.5 Z"/></g>
<g><path style="opacity:1" fill="#040401" d="M 260.5,591.5 C 273.696,590.695 280.029,597.029 279.5,610.5C 277.705,622.308 275.205,633.974 272,645.5C 254.457,693.603 230.457,737.937 200,778.5C 193.795,786.373 186.628,793.206 178.5,799C 173.443,803.004 167.776,804.338 161.5,803C 157.942,801.108 155.442,798.275 154,794.5C 152.616,788.891 152.283,783.225 153,777.5C 157.988,752.869 165.988,729.202 177,706.5C 190.649,678.517 206.316,651.851 224,626.5C 233.781,612.216 245.948,600.55 260.5,591.5 Z"/></g>
<g><path style="opacity:1" fill="#f8f8f8" d="M 587.5,597.5 C 605.698,597.841 611.864,606.507 606,623.5C 596.926,632.773 587.926,632.773 579,623.5C 573.201,612.031 576.035,603.364 587.5,597.5 Z"/></g>
<g><path style="opacity:1" fill="#bcbcbc" d="M 454.5,597.5 C 448.845,599.776 442.845,600.776 436.5,600.5C 442.31,599.143 448.31,598.143 454.5,597.5 Z"/></g>
<g><path style="opacity:1" fill="#42431b" d="M 263.5,603.5 C 264.5,603.5 265.5,603.5 266.5,603.5C 266.697,619.405 263.863,634.738 258,649.5C 241.601,693.313 219.268,733.646 191,770.5C 185.833,777 180,782.833 173.5,788C 171.182,789.993 168.516,791.159 165.5,791.5C 164.826,780.95 165.993,770.616 169,760.5C 186.543,707.394 212.876,659.394 248,616.5C 252.775,611.553 257.942,607.22 263.5,603.5 Z"/></g>
<g><path style="opacity:1" fill="#010101" d="M 1184.5,609.5 C 1185.87,609.343 1187.21,609.51 1188.5,610C 1184.91,612.971 1184.57,616.304 1187.5,620C 1186.26,620.232 1185.26,620.732 1184.5,621.5C 1181.21,622.207 1177.88,622.54 1174.5,622.5C 1172.37,620.554 1170.04,618.721 1167.5,617C 1160.49,615.676 1157.99,618.51 1160,625.5C 1175.9,642.792 1188.4,662.292 1197.5,684C 1207.28,712.198 1203.12,738.031 1185,761.5C 1178.24,771.259 1169.41,778.425 1158.5,783C 1152.12,785.122 1145.96,787.622 1140,790.5C 1137.95,793.719 1138.45,796.552 1141.5,799C 1124.84,799.5 1108.17,799.667 1091.5,799.5C 1056.27,798.23 1021.61,793.23 987.5,784.5C 986.488,782.9 986.988,781.566 989,780.5C 988.97,777.639 989.803,775.305 991.5,773.5C 995.135,774.114 998.802,774.448 1002.5,774.5C 995.832,752.986 993.332,730.986 995,708.5C 997.504,692.166 1003.34,677.166 1012.5,663.5C 1015,661.601 1014.83,660.267 1012,659.5C 1008.88,660.256 1005.71,660.589 1002.5,660.5C 1002.29,658.396 1002.13,656.063 1002,653.5C 1000.6,651.93 999.103,650.596 997.5,649.5C 1010.52,647.58 1023.52,645.413 1036.5,643C 1065.85,634.997 1095.19,626.997 1124.5,619C 1144.33,614.689 1164.33,611.522 1184.5,609.5 Z"/></g>
<g><path style="opacity:1" fill="#0b0a0b" d="M 1184.5,609.5 C 1186.61,608.532 1188.94,608.198 1191.5,608.5C 1196.16,611.521 1200.16,615.187 1203.5,619.5C 1213.82,632.773 1222.65,647.106 1230,662.5C 1239.49,686.039 1242.15,710.372 1238,735.5C 1233.71,753.42 1225.55,769.254 1213.5,783C 1215.47,783.495 1217.47,783.662 1219.5,783.5C 1217.03,784.317 1214.36,784.817 1211.5,785C 1208.83,788.333 1206.17,791.667 1203.5,795C 1198.11,797.953 1194.45,796.619 1192.5,791C 1194.89,788.126 1194.56,786.626 1191.5,786.5C 1214.76,767.471 1226.76,742.637 1227.5,712C 1226.88,690.82 1221.38,670.987 1211,652.5C 1204.11,641.888 1196.61,631.722 1188.5,622C 1187.21,621.51 1185.87,621.343 1184.5,621.5C 1185.26,620.732 1186.26,620.232 1187.5,620C 1184.57,616.304 1184.91,612.971 1188.5,610C 1187.21,609.51 1185.87,609.343 1184.5,609.5 Z"/></g>
<g><path style="opacity:1" fill="#0a0908" d="M 1174.5,622.5 C 1187.82,639.027 1198.99,657.027 1208,676.5C 1222.77,719.589 1212.94,755.922 1178.5,785.5C 1181.09,786.48 1183.75,786.813 1186.5,786.5C 1182.69,787.324 1178.69,787.824 1174.5,788C 1166.28,792.633 1157.61,796.3 1148.5,799C 1155.16,799.5 1161.83,799.666 1168.5,799.5C 1142.83,800.833 1117.17,800.833 1091.5,799.5C 1108.17,799.667 1124.84,799.5 1141.5,799C 1138.45,796.552 1137.95,793.719 1140,790.5C 1145.96,787.622 1152.12,785.122 1158.5,783C 1169.41,778.425 1178.24,771.259 1185,761.5C 1203.12,738.031 1207.28,712.198 1197.5,684C 1188.4,662.292 1175.9,642.792 1160,625.5C 1157.99,618.51 1160.49,615.676 1167.5,617C 1170.04,618.721 1172.37,620.554 1174.5,622.5 Z"/></g>
<g><path style="opacity:1" fill="#2e2e2e" d="M 1286.5,616.5 C 1297.05,616.208 1307.38,616.875 1317.5,618.5C 1306.99,618.247 1296.65,617.58 1286.5,616.5 Z"/></g>
<g><path style="opacity:1" fill="#fdfdfd" d="M 1286.5,616.5 C 1296.65,617.58 1306.99,618.247 1317.5,618.5C 1329.93,619.596 1342.27,621.43 1354.5,624C 1374.36,629.027 1387.69,641.193 1394.5,660.5C 1394.41,663.152 1395.08,665.485 1396.5,667.5C 1399.17,694.978 1389.84,717.478 1368.5,735C 1339.35,754.9 1307.35,768.233 1272.5,775C 1254.87,778.161 1237.21,780.994 1219.5,783.5C 1217.47,783.662 1215.47,783.495 1213.5,783C 1225.55,769.254 1233.71,753.42 1238,735.5C 1242.15,710.372 1239.49,686.039 1230,662.5C 1222.65,647.106 1213.82,632.773 1203.5,619.5C 1231.12,617.26 1258.78,616.26 1286.5,616.5 Z"/></g>
<g><path style="opacity:1" fill="#ba9312" d="M 1184.5,621.5 C 1185.87,621.343 1187.21,621.51 1188.5,622C 1196.61,631.722 1204.11,641.888 1211,652.5C 1221.38,670.987 1226.88,690.82 1227.5,712C 1226.76,742.637 1214.76,767.471 1191.5,786.5C 1189.83,786.5 1188.17,786.5 1186.5,786.5C 1183.75,786.813 1181.09,786.48 1178.5,785.5C 1212.94,755.922 1222.77,719.589 1208,676.5C 1198.99,657.027 1187.82,639.027 1174.5,622.5C 1177.88,622.54 1181.21,622.207 1184.5,621.5 Z"/></g>
<g><path style="opacity:1" fill="#b0b0b0" d="M 695.5,623.5 C 693.485,624.924 691.152,625.59 688.5,625.5C 690.515,624.076 692.848,623.41 695.5,623.5 Z"/></g>
<g><path style="opacity:1" fill="#fcfcfc" d="M 695.5,623.5 C 719.854,622.686 731.021,634.352 729,658.5C 724.92,670.242 716.754,677.409 704.5,680C 685.871,684.924 672.705,678.757 665,661.5C 662.56,642.776 670.393,630.776 688.5,625.5C 691.152,625.59 693.485,624.924 695.5,623.5 Z"/></g>
<g><path style="opacity:1" fill="#785f0c" d="M 518.5,633.5 C 518.556,638.731 517.889,643.731 516.5,648.5C 516.444,643.269 517.111,638.269 518.5,633.5 Z"/></g>
<g><path style="opacity:1" fill="#0b0a0b" d="M 987.5,650.5 C 990.625,649.521 993.958,649.187 997.5,649.5C 999.103,650.596 1000.6,651.93 1002,653.5C 1002.13,656.063 1002.29,658.396 1002.5,660.5C 1002.5,660.833 1002.5,661.167 1002.5,661.5C 1001.5,661.414 1000.67,661.748 1000,662.5C 995.473,670.221 991.473,678.221 988,686.5C 987.023,688.74 986.523,691.073 986.5,693.5C 985.076,695.515 984.41,697.848 984.5,700.5C 980.032,724.132 981.532,747.465 989,770.5C 989.698,771.691 990.531,772.691 991.5,773.5C 989.803,775.305 988.97,777.639 989,780.5C 986.988,781.566 986.488,782.9 987.5,784.5C 983.627,783.866 979.961,782.866 976.5,781.5C 977.552,781.649 978.552,781.483 979.5,781C 977.8,777.709 976.633,774.209 976,770.5C 975.302,769.309 974.469,768.309 973.5,767.5C 974.139,766.903 974.472,766.07 974.5,765C 968.032,739.541 967.865,714.041 974,688.5C 976.675,680.149 980.175,672.149 984.5,664.5C 982.257,663.526 979.924,663.192 977.5,663.5C 980.358,662.834 983.358,662.167 986.5,661.5C 988.461,657.742 990.795,654.242 993.5,651C 991.527,650.505 989.527,650.338 987.5,650.5 Z"/></g>
<g><path style="opacity:1" fill="#f8f8f8" d="M 596.5,651.5 C 612.971,651.122 619.137,658.788 615,674.5C 609.327,682.507 601.827,684.674 592.5,681C 580.878,669.516 582.211,659.683 596.5,651.5 Z"/></g>
<g><path style="opacity:1" fill="#fbfbfb" d="M 977.5,663.5 C 979.924,663.192 982.257,663.526 984.5,664.5C 980.175,672.149 976.675,680.149 974,688.5C 967.865,714.041 968.032,739.541 974.5,765C 974.472,766.07 974.139,766.903 973.5,767.5C 940.991,760.244 911.991,746.078 886.5,725C 907.487,706.481 920.154,683.314 924.5,655.5C 941.583,661.893 959.25,664.56 977.5,663.5 Z"/></g>
<g><path style="opacity:1" fill="#8d700e" d="M 1012.5,663.5 C 1009.66,661.598 1006.33,660.931 1002.5,661.5C 1002.5,661.167 1002.5,660.833 1002.5,660.5C 1005.71,660.589 1008.88,660.256 1012,659.5C 1014.83,660.267 1015,661.601 1012.5,663.5 Z"/></g>
<g><path style="opacity:1" fill="#b89212" d="M 1002.5,661.5 C 1006.33,660.931 1009.66,661.598 1012.5,663.5C 1003.34,677.166 997.504,692.166 995,708.5C 993.332,730.986 995.832,752.986 1002.5,774.5C 998.802,774.448 995.135,774.114 991.5,773.5C 990.531,772.691 989.698,771.691 989,770.5C 981.532,747.465 980.032,724.132 984.5,700.5C 985.924,698.485 986.59,696.152 986.5,693.5C 986.523,691.073 987.023,688.74 988,686.5C 991.473,678.221 995.473,670.221 1000,662.5C 1000.67,661.748 1001.5,661.414 1002.5,661.5 Z"/></g>
<g><path style="opacity:1" fill="#aaaaaa" d="M 1394.5,660.5 C 1395.92,662.515 1396.59,664.848 1396.5,667.5C 1395.08,665.485 1394.41,663.152 1394.5,660.5 Z"/></g>
<g><path style="opacity:1" fill="#fafafa" d="M 1039.5,675.5 C 1056.96,674.108 1063.79,681.774 1060,698.5C 1054.27,707.773 1046.43,709.939 1036.5,705C 1029.04,698.356 1027.54,690.522 1032,681.5C 1034.11,678.879 1036.61,676.879 1039.5,675.5 Z"/></g>
<g><path style="opacity:1" fill="#7b610e" d="M 986.5,693.5 C 986.59,696.152 985.924,698.485 984.5,700.5C 984.41,697.848 985.076,695.515 986.5,693.5 Z"/></g>
<g><path style="opacity:1" fill="#fbfbfb" d="M 1147.5,700.5 C 1168.09,699.109 1180.09,708.442 1183.5,728.5C 1179.68,748.475 1167.51,758.475 1147,758.5C 1129.43,758.426 1119.6,749.759 1117.5,732.5C 1117.85,721.63 1122.52,713.13 1131.5,707C 1136.61,703.935 1141.94,701.769 1147.5,700.5 Z"/></g>
<g><path style="opacity:1" fill="#f9f9f9" d="M 1048.5,729.5 C 1057.04,727.858 1063.88,730.524 1069,737.5C 1071.29,746.632 1068.45,753.799 1060.5,759C 1044.52,762.355 1037.35,755.855 1039,739.5C 1041.02,734.98 1044.19,731.647 1048.5,729.5 Z"/></g>
<g><path style="opacity:1" fill="#626262" d="M 736.5,746.5 C 746.653,747.494 756.986,747.828 767.5,747.5C 756.993,748.823 746.326,748.823 735.5,747.5C 735.624,746.893 735.957,746.56 736.5,746.5 Z"/></g>
<g><path style="opacity:1" fill="#262713" d="M 112.5,778.5 C 112.638,783.414 111.972,788.081 110.5,792.5C 110.362,787.586 111.028,782.919 112.5,778.5 Z"/></g>
<g><path style="opacity:1" fill="#040401" d="M 862.5,800.5 C 866.257,800.071 869.757,800.737 873,802.5C 875.707,807.304 874.54,810.804 869.5,813C 855.983,815.142 842.649,818.142 829.5,822C 814.722,828.888 800.388,836.555 786.5,845C 768.94,851.279 750.94,854.779 732.5,855.5C 728.3,851.318 728.633,847.484 733.5,844C 747.281,841.87 760.948,839.203 774.5,836C 789.731,828.436 804.731,820.436 819.5,812C 833.825,807.671 848.158,803.838 862.5,800.5 Z"/></g>
<g><path style="opacity:1" fill="#262712" d="M 563.5,802.5 C 569.389,802.45 575.056,803.116 580.5,804.5C 574.611,804.55 568.944,803.884 563.5,802.5 Z"/></g>
<g><path style="opacity:1" fill="#64672a" d="M 1212.5,820.5 C 1201.67,821.494 1190.67,822.161 1179.5,822.5C 1180.26,821.732 1181.26,821.232 1182.5,821C 1192.49,820.5 1202.49,820.334 1212.5,820.5 Z"/></g>
<g><path style="opacity:1" fill="#a1664f" d="M 735.5,899.5 C 755.996,900.663 776.663,900.829 797.5,900C 800.695,899.819 803.695,899.319 806.5,898.5C 834.594,896.225 862.594,893.058 890.5,889C 923.592,881.477 956.592,873.477 989.5,865C 1000.45,862.96 1011.45,861.293 1022.5,860C 1057.49,858.5 1092.49,858.167 1127.5,859C 1167.7,862.204 1207.87,865.704 1248,869.5C 1258.34,869.832 1268.51,868.665 1278.5,866C 1294.91,862.4 1310.91,857.566 1326.5,851.5C 1333.96,853.039 1337.62,857.706 1337.5,865.5C 1335.22,880.557 1327.22,891.391 1313.5,898C 1293.58,906.587 1272.74,910.087 1251,908.5C 1230.13,908.057 1209.3,906.891 1188.5,905C 1142.02,899.731 1095.68,893.398 1049.5,886C 1011.12,879.887 973.119,881.553 935.5,891C 903.379,901.263 871.379,911.929 839.5,923C 783.683,941.204 726.35,949.204 667.5,947C 663.081,951.819 663.748,955.819 669.5,959C 716.89,961.384 763.557,956.718 809.5,945C 825.11,940.18 840.776,935.514 856.5,931C 884.311,921.094 912.311,911.761 940.5,903C 966.391,895.96 992.724,893.627 1019.5,896C 1061.24,901.105 1102.9,906.772 1144.5,913C 1176.73,917.044 1209.07,919.878 1241.5,921.5C 1241.75,934.152 1235.75,942.319 1223.5,946C 1211.53,949.082 1199.53,949.082 1187.5,946C 1164.94,940.621 1142.28,935.621 1119.5,931C 1092.24,927.883 1064.91,926.883 1037.5,928C 1004.21,932.85 971.214,939.184 938.5,947C 903.819,956.007 869.486,966.007 835.5,977C 761.787,996.768 686.787,1005.1 610.5,1002C 598.668,1001.37 587.335,998.701 576.5,994C 561.437,982.535 554.103,967.201 554.5,948C 554.418,925.458 563.751,908.125 582.5,896C 595.219,890.356 608.553,887.856 622.5,888.5C 627.833,888.667 633.167,888.833 638.5,889C 670.627,894.44 702.96,897.94 735.5,899.5 Z"/></g>
<g><path style="opacity:1" fill="#7c5d00" d="M 108.5,863.5 C 126.968,866.433 141.468,875.766 152,891.5C 170.603,921.104 178.27,953.437 175,988.5C 174.266,1009.38 167.599,1028.04 155,1044.5C 149.596,1050.95 142.763,1054.95 134.5,1056.5C 117.965,1039.1 107.465,1018.43 103,994.5C 95.7088,950.341 97.5422,906.674 108.5,863.5 Z"/></g>
<g><path style="opacity:1" fill="#7e4f3d" d="M 806.5,898.5 C 803.695,899.319 800.695,899.819 797.5,900C 776.663,900.829 755.996,900.663 735.5,899.5C 759.175,899.623 782.842,899.29 806.5,898.5 Z"/></g>
<g><path style="opacity:1" fill="#a9a606" d="M 476.5,1149.5 C 471.402,1148.04 466.069,1147.38 460.5,1147.5C 456.958,1147.81 453.625,1147.48 450.5,1146.5C 445.731,1145.11 440.731,1144.44 435.5,1144.5C 419.758,1143.07 404.091,1141.07 388.5,1138.5C 385.155,1136.78 381.489,1136.12 377.5,1136.5C 375.379,1136.67 373.379,1136.34 371.5,1135.5C 385.225,1128.8 398.558,1121.3 411.5,1113C 416.833,1109 422.167,1105 427.5,1101C 473.011,1057.16 510.511,1007.33 540,951.5C 540.191,953.708 540.691,955.708 541.5,957.5C 543.978,976.978 552.978,992.478 568.5,1004C 578.361,1008.73 588.695,1012.06 599.5,1014C 643.612,1016.75 687.612,1015.59 731.5,1010.5C 740.126,1010.12 748.459,1008.78 756.5,1006.5C 796.048,999.863 835.048,990.863 873.5,979.5C 878.165,978.943 882.498,977.61 886.5,975.5C 930.157,961.164 974.824,950.497 1020.5,943.5C 1026.05,943.473 1031.38,942.806 1036.5,941.5C 1079.7,937.739 1122.04,942.072 1163.5,954.5C 1159.48,959.358 1155.64,964.358 1152,969.5C 1137.97,995.87 1119.8,1019.04 1097.5,1039C 1084.33,1049.43 1070,1058.09 1054.5,1065C 931.12,1118.02 802.12,1148.02 667.5,1155C 603.63,1158.17 539.963,1156.34 476.5,1149.5 Z"/></g>
<g><path style="opacity:1" fill="#787604" d="M 1036.5,941.5 C 1031.38,942.806 1026.05,943.473 1020.5,943.5C 1025.6,942.043 1030.93,941.376 1036.5,941.5 Z"/></g>
<g><path style="opacity:1" fill="#828004" d="M 886.5,975.5 C 882.498,977.61 878.165,978.943 873.5,979.5C 877.502,977.39 881.835,976.057 886.5,975.5 Z"/></g>
<g><path style="opacity:1" fill="#7c7a04" d="M 756.5,1006.5 C 748.459,1008.78 740.126,1010.12 731.5,1010.5C 739.617,1008.62 747.95,1007.29 756.5,1006.5 Z"/></g>
<g><path style="opacity:1" fill="#1a283d" d="M 1200.5,1499.5 C 1164.83,1499.5 1129.17,1499.5 1093.5,1499.5C 1092.45,1439.9 1087.95,1380.56 1080,1321.5C 1076.61,1317.97 1072.94,1317.63 1069,1320.5C 1068.04,1322.2 1067.54,1324.03 1067.5,1326C 1075.13,1383.58 1079.47,1441.41 1080.5,1499.5C 779.833,1499.5 479.167,1499.5 178.5,1499.5C 179.844,1441.98 183.844,1384.65 190.5,1327.5C 190.931,1319.75 187.597,1317.25 180.5,1320C 179.283,1321.65 178.45,1323.48 178,1325.5C 170.807,1383.28 166.64,1441.28 165.5,1499.5C 129.5,1499.5 93.5,1499.5 57.5,1499.5C 55.6425,1417.79 56.8092,1336.12 61,1254.5C 63.1397,1213.74 75.8064,1176.74 99,1143.5C 115.519,1124.81 134.019,1108.47 154.5,1094.5C 166.402,1115.57 182.069,1133.41 201.5,1148C 232.425,1168.79 265.758,1184.79 301.5,1196C 398.773,1226.29 498.44,1241.45 600.5,1241.5C 674.796,1242.48 748.129,1234.64 820.5,1218C 879.51,1204.49 934.177,1181.15 984.5,1148C 1005.44,1131.4 1023.94,1112.56 1040,1091.5C 1065.75,1103.28 1089.25,1118.45 1110.5,1137C 1166.07,1185.31 1195.57,1246.47 1199,1320.5C 1202.79,1380.15 1203.29,1439.81 1200.5,1499.5 Z"/></g>
<g><path style="opacity:1" fill="#a8a505" d="M 319.5,1187.5 C 333.647,1175.69 345.647,1162.02 355.5,1146.5C 438.598,1160.36 522.265,1168.02 606.5,1169.5C 631.51,1169.11 656.51,1168.45 681.5,1167.5C 694.08,1167.67 706.413,1166.67 718.5,1164.5C 730.67,1162.94 743.004,1161.6 755.5,1160.5C 761.804,1160.56 767.804,1159.56 773.5,1157.5C 778.114,1156.56 782.781,1155.89 787.5,1155.5C 793.503,1155.67 799.17,1154.67 804.5,1152.5C 878.629,1140.21 950.629,1120.21 1020.5,1092.5C 1021.52,1093 1021.69,1093.67 1021,1094.5C 1001.8,1118.38 978.963,1137.88 952.5,1153C 895.561,1184.42 834.895,1205.09 770.5,1215C 629.22,1238.16 489.22,1232.16 350.5,1197C 340.066,1193.76 329.732,1190.59 319.5,1187.5 Z"/></g>
<g><path style="opacity:1" fill="#828537" d="M 355.5,1146.5 C 345.647,1162.02 333.647,1175.69 319.5,1187.5C 278.902,1176.59 241.235,1159.42 206.5,1136C 192.202,1124.54 180.202,1111.04 170.5,1095.5C 230.395,1118.23 292.061,1135.23 355.5,1146.5 Z"/></g>
<g><path style="opacity:1" fill="#717004" d="M 377.5,1136.5 C 381.489,1136.12 385.155,1136.78 388.5,1138.5C 384.64,1138.19 380.974,1137.52 377.5,1136.5 Z"/></g>
<g><path style="opacity:1" fill="#7b7905" d="M 435.5,1144.5 C 440.731,1144.44 445.731,1145.11 450.5,1146.5C 445.25,1146.7 440.25,1146.03 435.5,1144.5 Z"/></g>
<g><path style="opacity:1" fill="#787604" d="M 460.5,1147.5 C 466.069,1147.38 471.402,1148.04 476.5,1149.5C 470.931,1149.62 465.598,1148.96 460.5,1147.5 Z"/></g>
<g><path style="opacity:1" fill="#7f7d05" d="M 804.5,1152.5 C 799.17,1154.67 793.503,1155.67 787.5,1155.5C 792.959,1154.05 798.626,1153.05 804.5,1152.5 Z"/></g>
<g><path style="opacity:1" fill="#7a7804" d="M 773.5,1157.5 C 767.804,1159.56 761.804,1160.56 755.5,1160.5C 761.28,1158.96 767.28,1157.96 773.5,1157.5 Z"/></g>
<g><path style="opacity:1" fill="#8c8a04" d="M 718.5,1164.5 C 706.413,1166.67 694.08,1167.67 681.5,1167.5C 693.646,1166.02 705.98,1165.02 718.5,1164.5 Z"/></g>
<g><path style="opacity:1" fill="#000102" d="M 1093.5,1499.5 C 1089.17,1499.5 1084.83,1499.5 1080.5,1499.5C 1079.47,1441.41 1075.13,1383.58 1067.5,1326C 1067.54,1324.03 1068.04,1322.2 1069,1320.5C 1072.94,1317.63 1076.61,1317.97 1080,1321.5C 1087.95,1380.56 1092.45,1439.9 1093.5,1499.5 Z"/></g>
<g><path style="opacity:1" fill="#000102" d="M 178.5,1499.5 C 174.167,1499.5 169.833,1499.5 165.5,1499.5C 166.64,1441.28 170.807,1383.28 178,1325.5C 178.45,1323.48 179.283,1321.65 180.5,1320C 187.597,1317.25 190.931,1319.75 190.5,1327.5C 183.844,1384.65 179.844,1441.98 178.5,1499.5 Z"/></g>
<g><path style="opacity:1" fill="#565824" d="M 1212.5,1368.5 C 1213.94,1384.81 1214.61,1401.31 1214.5,1418C 1214.5,1428.01 1214.17,1437.84 1213.5,1447.5C 1213.59,1421.16 1213.26,1394.83 1212.5,1368.5 Z"/></g>
</svg>
