<?xml version="1.0" encoding="utf-8"?>
<svg width="717px" height="717px" viewBox="0 0 717 717" version="1.1" xmlns:xlink="http://www.w3.org/1999/xlink" xmlns="http://www.w3.org/2000/svg">
  <desc>Created with Lunacy</desc>
  <defs>
    <path d="M0 0L715.768 0L715.768 715.764L0 715.764L0 0Z" transform="translate(0 -0.0045)" id="path_1" />
    <clipPath id="mask_1">
      <use xlink:href="#path_1" />
    </clipPath>
  </defs>
  <g id="编组" transform="translate(0.5 0.5)">
    <path d="M0 261.5L110 0L422.5 36L486.5 229L454.5 496C454.5 496 385.5 570 366.5 570C347.5 570 78.5 517.5 78.5 517.5L0 323.5L0 261.5Z" transform="translate(100.5 69)" id="路径-2" fill="#F9F9F9" stroke="none" />
    <g id="编组备份">
      <path d="M0 0L715.768 0L715.768 715.764L0 715.764L0 0Z" transform="translate(0 -0.0045)" id="Clip-2" fill="none" stroke="none" />
      <g clip-path="url(#mask_1)">
        <path d="M0 357.9C0 160.245 160.23 0 357.885 0C555.54 0 715.77 160.245 715.77 357.9C715.77 555.54 555.54 715.77 357.885 715.77C160.23 715.77 0 555.54 0 357.9ZM507.825 565.23L431.655 565.23L431.655 434.055C431.67 423.96 427.665 414.285 420.525 407.13C413.385 399.975 403.695 395.97 393.6 395.97L284.1 395.97C242.04 395.97 207.96 361.86 207.945 319.815L207.945 150.54L284.1 150.54L284.1 281.745C284.1 302.775 301.14 319.815 322.17 319.815L431.685 319.815C442.515 319.815 453.21 322.125 463.08 326.61C490.32 338.925 507.825 366.075 507.825 395.97L507.825 565.23ZM429.045 150.54L505.215 150.54L505.215 278.505C463.14 278.505 429.06 244.395 429.045 202.35L429.045 150.54ZM210.555 565.23L286.71 565.23L286.71 513.45C286.71 471.39 252.615 437.31 210.555 437.31L210.555 565.23Z" transform="translate(-0.0015 -0.0105)" id="Fill-1" fill="#005FFA" fill-rule="evenodd" stroke="none" />
      </g>
    </g>
  </g>
</svg>