<svg width="1024" height="1024" viewBox="0 0 1024 1024" fill="none" xmlns="http://www.w3.org/2000/svg">
<rect width="1024" height="1024" fill="#CF300F"/>
<path d="M509.128 160C511.687 160 514.245 160 516.804 160C517.857 160.133 518.896 160.373 519.949 160.386C535.967 160.453 551.825 162.185 567.59 164.877C595.469 169.648 622.241 178.004 647.854 189.971C689.778 209.56 725.839 236.945 755.983 272.06C782.888 303.39 803.024 338.624 816.244 377.75C828.331 413.504 834.087 450.285 832.848 488.051C832.528 497.726 831.902 507.414 830.929 517.049C828.797 538.104 824.159 558.666 817.67 578.802C810.847 599.964 801.905 620.193 790.844 639.49C789.151 642.435 789.218 642.608 791.857 644.754C801.265 652.39 811.54 658.573 822.853 663.011C830.329 665.929 838.072 667.835 845.934 669.301C846.641 669.434 847.32 669.78 848 670.02C846.947 671.006 845.974 671.406 844.975 671.673C825.239 676.816 805.17 680.041 784.807 681.174C775.359 681.694 765.897 681.907 756.396 681.521C743.389 681.001 730.45 679.935 717.63 677.909C692.816 673.978 668.056 669.714 643.283 665.516C631.742 663.557 620.215 661.451 608.675 659.439C607.889 659.306 607.062 659.426 605.85 659.426C606.143 661.025 606.316 662.358 606.636 663.65C609.021 673.045 611.513 682.414 613.845 691.822C618.003 708.679 622.481 725.457 623.387 742.941C623.813 751.123 623.107 759.146 620.402 766.875C615.711 780.268 606.236 789.263 593.51 794.833C582.102 799.831 570.549 804.548 558.915 809.026C536.46 817.661 522.268 833.239 517.67 857.093C514.405 874.031 511.247 890.995 507.996 907.946C506.516 915.675 504.904 923.391 503.358 931.107C503.145 931.107 502.932 931.107 502.718 931.107C502.452 930.081 502.119 929.055 501.945 928.015C500.186 916.542 498.441 905.068 496.721 893.58C494.163 876.47 490.218 859.732 484.048 843.501C477.425 826.057 465.858 813.397 448.894 805.734C440.258 801.83 431.463 798.271 422.828 794.38C418.67 792.501 414.472 790.556 410.661 788.077C396.135 778.602 389.392 764.743 389.792 747.712C389.992 739.143 391.325 730.508 392.99 722.072C397.175 700.87 401.852 679.748 406.317 658.6C406.517 657.64 406.61 656.641 406.756 655.588C406.103 655.588 405.877 655.548 405.69 655.601C404.864 655.801 404.038 656.014 403.212 656.241C371.162 665.063 338.899 672.992 305.837 677.03C293.057 678.589 280.224 679.961 267.378 680.508C242.324 681.561 217.338 680.508 192.564 676.203C187.021 675.244 181.53 673.951 176 672.819C176 672.605 176 672.392 176 672.179C176.946 672.072 177.919 672.032 178.852 671.846C199.574 667.768 218.004 658.959 233.929 645.02C236.554 642.728 236.554 642.661 234.862 639.73C228.972 629.469 223.668 618.901 218.95 608.053C202.439 570.074 193.764 530.362 192.551 488.997C192.138 474.925 192.791 460.892 194.244 446.886C196.402 426.044 200.52 405.615 206.784 385.639C223.774 331.521 252.972 285.04 294.39 246.26C316.072 225.951 340.125 208.987 366.551 195.488C410.341 173.1 456.783 161.213 505.983 160.386C507.036 160.36 508.075 160.133 509.128 160ZM243.484 635.279C244.337 634.532 245.07 634.079 245.563 633.44C250.84 626.63 256.504 620.06 261.248 612.877C269.017 601.124 275.027 588.357 280.651 575.457C288.86 556.654 294.683 537.051 299.267 517.075C306.064 487.478 309.262 457.414 309.995 427.11C310.355 412.318 309.728 397.499 309.622 382.694C309.595 379.429 308.596 376.577 306.437 374.232C304.638 372.286 302.692 370.447 300.587 368.835C294.563 364.224 288.726 359.44 283.649 353.79C279.411 349.072 275.973 343.848 273.548 337.971C273.175 337.052 272.442 336.119 273.441 334.786C274.707 335.346 275.973 335.852 277.186 336.452C297.335 346.314 318.19 354.309 339.712 360.613C368.31 369.008 397.468 374.498 427.119 377.284C440.578 378.536 454.064 379.576 467.564 380.269C478.944 380.842 490.352 380.815 501.746 380.962C504.93 381.002 508.129 380.735 511.327 380.628C525.16 380.162 539.019 379.949 552.825 379.163C565.351 378.443 577.878 377.284 590.365 375.964C608.595 374.032 626.612 370.74 644.416 366.329C677.865 358.041 709.421 345.274 738.632 326.857C739.258 326.458 739.911 326.084 740.551 325.711C741.67 325.045 742.563 325.405 743.389 326.271C744.562 327.51 744.535 328.123 742.91 330.096C737.766 336.346 732.515 342.516 727.465 348.846C722.814 354.669 718.283 360.599 713.819 366.569C712.019 368.981 710.793 371.7 710.7 374.818C710.327 385.892 709.647 396.953 709.621 408.027C709.594 418.781 710.154 429.536 710.58 440.277C711.247 456.801 713.112 473.192 715.884 489.49C720.375 515.836 726.971 541.596 737.739 566.142C743.416 579.096 748.213 592.515 756.596 604.135C757.342 605.175 757.968 606.294 758.648 607.374C764.711 616.835 771.841 625.431 779.65 633.48C780.343 634.199 781.222 634.746 782.062 635.412C829.93 547.699 835.607 396.167 725.626 286.519C609.928 171.207 425.293 169.115 307.103 279.723C190.965 388.411 194.11 544.128 243.484 635.279ZM353.425 642.661C355.451 643.581 357.01 643.248 358.556 642.915C363.033 641.942 367.511 641.009 371.962 639.93C381.477 637.624 390.978 635.185 400.493 632.88C404.478 631.907 407.409 629.602 409.328 626.07C410.288 624.311 411.141 622.419 411.594 620.487C415.085 605.868 417.977 591.142 420.216 576.27C420.922 571.54 421.722 566.795 422.734 562.118C423.694 557.694 426.586 555.042 431.13 554.522C437.607 553.776 444.096 553.869 450.573 554.562C452.985 554.815 453.385 555.295 453.212 557.627C452.932 561.332 452.678 565.076 452.025 568.728C448.401 589.077 444.696 609.399 440.938 629.722C435.101 661.358 429.224 692.981 423.308 724.604C421.988 731.627 420.656 738.623 421.042 745.833C421.469 753.815 424.587 760.478 430.717 765.609C432.996 767.515 435.461 769.247 438.006 770.766C453.185 779.841 468.417 788.837 483.635 797.832C484.408 798.285 485.288 798.551 486.5 799.071C486.78 797.512 487.073 796.406 487.153 795.286C487.407 791.142 487.593 786.998 487.793 782.84C488.433 769.86 489.072 756.88 489.725 743.901C490.578 726.776 491.431 709.652 492.271 692.528C493.123 675.297 493.976 658.067 494.829 640.836C495.469 627.856 496.109 614.876 496.762 601.897C497.614 584.772 498.481 567.648 499.307 550.524C500.053 535.092 500.719 519.674 501.452 504.242C501.546 502.27 501.865 500.298 502.079 498.325C502.745 498.925 502.905 499.511 502.958 500.111C503.331 505.322 503.758 510.519 504.024 515.729C504.917 533.173 505.783 550.617 506.61 568.061C507.276 582.214 507.889 596.366 508.515 610.519C509.235 626.91 509.928 643.288 510.661 659.679C510.874 664.357 511.087 669.047 511.38 673.725C512.366 689.876 513.353 706.041 514.379 722.192C515.032 732.293 515.645 742.395 516.511 752.469C517.83 767.954 519.363 783.439 520.815 798.911C520.882 799.591 521.095 800.257 521.228 800.923C521.588 800.87 521.721 800.883 521.788 800.817C522.108 800.537 522.441 800.27 522.708 799.937C529.984 790.636 539.325 784.106 550.16 779.668C555.277 777.576 560.514 775.75 565.738 773.924C573.094 771.353 578.838 766.955 582.302 759.825C585.621 752.976 586.473 745.7 585.354 738.317C584.168 730.534 582.489 722.818 580.89 715.103C572.468 674.311 563.739 633.586 556.596 592.542C553.291 573.525 550.599 554.455 549.427 535.186C548.587 521.26 548.014 507.321 547.281 493.381C547.028 488.491 546.588 483.613 546.308 478.723C546.188 476.71 546.068 474.658 546.268 472.659C546.681 468.555 548.96 465.69 552.891 464.504C555.423 463.744 558.075 463.238 560.714 463.051C565.258 462.745 567.39 464.903 567.55 469.474C567.63 471.7 567.617 473.952 567.897 476.164C569.203 486.838 570.589 497.513 571.935 508.187C573.96 524.352 576.012 540.516 577.971 556.694C579.877 572.446 581.583 588.224 583.555 603.976C584.155 608.706 584.981 613.477 586.367 618.035C589.432 628.109 596.455 634.333 606.516 637.171C607.942 637.571 609.421 637.891 610.887 638.104C616.471 638.917 622.094 639.49 627.625 640.516C634.221 641.742 640.738 643.354 647.294 644.74C648.054 644.9 648.88 644.767 649.986 644.767C649.746 643.448 649.626 642.408 649.346 641.409C648.307 637.717 647.321 634.013 646.121 630.361C641.018 614.77 635.807 599.218 630.716 583.613C624.586 564.837 619.749 545.74 617.217 526.137C614.991 508.92 613.232 491.649 611.313 474.392C610.954 471.22 610.634 468.035 610.594 464.837C610.527 460.292 612.419 457.774 616.897 456.948C620.855 456.215 624.92 455.922 628.957 455.762C631.729 455.655 633.302 457.068 633.888 459.839C634.274 461.705 634.341 463.637 634.474 465.543C635.021 473.939 635.247 482.361 636.114 490.716C638.006 509.08 641.644 527.137 646.535 544.94C653.398 569.86 662.566 593.928 673.374 617.395C675.866 622.805 678.464 628.203 681.489 633.32C688.765 645.607 699.426 653.629 713.192 657.534C723.507 660.452 734.101 661.425 744.709 662.358C750.226 662.837 755.743 663.184 761.273 663.504C766.803 663.823 772.334 664.05 777.864 664.263C778.73 664.303 779.61 664.063 781.142 663.877C779.85 662.691 779.104 661.971 778.331 661.278C776.665 659.786 774.853 658.426 773.347 656.801C765.431 648.312 757.275 640.01 749.786 631.148C729.437 607.027 713.166 580.375 701.558 550.964C685.833 511.105 679.743 469.687 681.476 426.964C682.102 411.612 683.595 396.367 685.874 381.188C686.02 380.215 685.887 379.216 685.887 377.75C684.088 378.376 682.795 378.789 681.529 379.283C640.311 395.034 598.147 407.241 554.264 412.971C539.472 414.903 524.627 416.223 509.715 416.489C500.24 416.663 490.751 416.489 481.29 415.943C470.562 415.33 459.835 414.477 449.174 413.144C431.397 410.919 413.913 407.161 396.655 402.324C395.736 402.07 394.816 401.764 393.87 401.604C392.231 401.337 391.778 401.711 391.618 403.416C391.551 404.149 391.605 404.909 391.644 405.655C392.031 412.252 392.724 418.835 392.737 425.431C392.777 442.262 392.697 459.093 392.311 475.911C391.938 492.115 390.032 508.213 387.633 524.218C381.676 563.944 370.896 602.296 354.758 639.103C354.291 640.156 353.945 641.262 353.425 642.661ZM257.77 660.359C261.607 660.625 264.872 660.585 268.097 660.212C277.932 659.039 287.753 657.84 297.575 656.587C307.09 655.375 316.511 653.696 325.6 650.457C334.302 647.366 340.525 641.702 344.336 633.253C353.905 612.051 362.234 590.396 368.657 568.035C375.493 544.194 379.784 519.901 381.583 495.167C381.903 490.849 381.61 486.438 381.157 482.121C380.65 477.177 377.532 473.992 372.921 472.486C369.896 471.5 366.751 470.767 363.606 470.367C357.916 469.634 352.186 469.101 346.455 468.688C336.101 467.955 333.516 472.086 332.849 479.775C332.45 484.44 332.09 489.117 331.637 493.781C329.718 513.277 325.413 532.254 319.123 550.777C310.355 576.67 298.081 600.844 282.943 623.552C275.44 634.812 267.631 645.86 259.968 657.014C259.315 657.947 258.716 658.906 257.77 660.359ZM382.996 454.042C383.022 454.042 383.049 454.042 383.076 454.042C382.849 448.832 382.663 443.608 382.369 438.398C381.93 430.428 381.463 422.446 380.917 414.477C380.69 411.185 380.437 407.867 379.784 404.656C378.905 400.338 376.453 397.113 372.068 395.647C359.142 391.329 346.215 386.972 333.276 382.694C330.264 381.695 329.078 382.574 329.051 385.759C329.038 387.878 329.331 390.01 329.531 392.129C331.237 410.906 333.156 429.656 334.542 448.445C334.955 454.122 339.472 459.293 344.776 460.372C348.841 461.199 352.892 462.118 356.916 463.131C362.593 464.544 368.217 466.183 373.907 467.529C379.344 468.808 382.596 466.343 382.982 460.759C383.129 458.52 382.996 456.281 382.996 454.042Z" fill="white"/>
<path d="M430.943 489.916C430.943 482.574 430.93 475.218 430.957 467.875C430.97 464.29 431.676 463.197 435.181 462.731C440.805 461.985 446.442 462.185 451.999 463.424C455.13 464.13 457.129 466.209 457.569 469.314C458.089 472.992 458.422 476.723 458.355 480.428C458.222 489.157 457.809 497.872 457.476 506.601C457.422 507.973 457.342 509.373 457.049 510.719C455.863 516.236 452.079 519.181 446.442 518.661C442.004 518.248 437.593 517.462 433.169 516.835C431.836 516.649 431.037 515.942 430.997 514.53C430.97 513.57 430.943 512.611 430.93 511.651C430.943 504.402 430.943 497.166 430.943 489.916Z" fill="white"/>
</svg>
