
<svg xmlns="http://www.w3.org/2000/svg" xmlns:xlink="http://www.w3.org/1999/xlink" width="250px" height="250px" viewBox="0 0 250 250" version="1.1">
<g id="surface1">
<rect x="0" y="0" width="250" height="250" style="fill:rgb(81.176472%,18.82353%,5.882353%);fill-opacity:1;stroke:none;"/>
<path style=" stroke:none;fill-rule:nonzero;fill:rgb(100%,100%,100%);fill-opacity:1;" d="M 124.296875 39.0625 C 124.921875 39.0625 125.546875 39.0625 126.171875 39.0625 C 126.429688 39.09375 126.683594 39.152344 126.941406 39.15625 C 130.851562 39.171875 134.722656 39.597656 138.570312 40.253906 C 145.378906 41.417969 151.914062 43.457031 158.167969 46.378906 C 168.402344 51.164062 177.207031 57.847656 184.566406 66.421875 C 191.132812 74.070312 196.050781 82.671875 199.277344 92.222656 C 202.230469 100.953125 203.632812 109.933594 203.332031 119.152344 C 203.253906 121.515625 203.101562 123.878906 202.863281 126.234375 C 202.34375 131.375 201.210938 136.394531 199.625 141.308594 C 197.960938 146.476562 195.777344 151.414062 193.078125 156.125 C 192.664062 156.84375 192.679688 156.886719 193.324219 157.410156 C 195.621094 159.273438 198.128906 160.785156 200.890625 161.867188 C 202.71875 162.582031 204.609375 163.046875 206.527344 163.402344 C 206.699219 163.4375 206.867188 163.519531 207.03125 163.578125 C 206.773438 163.820312 206.535156 163.917969 206.292969 163.984375 C 201.472656 165.238281 196.574219 166.027344 191.601562 166.300781 C 189.296875 166.429688 186.988281 166.480469 184.667969 166.386719 C 181.492188 166.261719 178.332031 166 175.203125 165.503906 C 169.144531 164.546875 163.101562 163.503906 157.050781 162.480469 C 154.234375 162 151.417969 161.488281 148.601562 160.996094 C 148.410156 160.964844 148.207031 160.992188 147.914062 160.992188 C 147.984375 161.382812 148.027344 161.707031 148.105469 162.023438 C 148.6875 164.316406 149.296875 166.605469 149.863281 168.902344 C 150.878906 173.015625 151.972656 177.113281 152.195312 181.382812 C 152.296875 183.378906 152.125 185.339844 151.464844 187.226562 C 150.320312 190.496094 148.007812 192.691406 144.898438 194.050781 C 142.113281 195.269531 139.292969 196.421875 136.453125 197.515625 C 130.972656 199.625 127.507812 203.425781 126.382812 209.25 C 125.585938 213.386719 124.816406 217.527344 124.023438 221.667969 C 123.660156 223.554688 123.265625 225.4375 122.890625 227.320312 C 122.839844 227.320312 122.785156 227.320312 122.734375 227.320312 C 122.667969 227.070312 122.585938 226.820312 122.546875 226.566406 C 122.117188 223.765625 121.691406 220.964844 121.269531 218.160156 C 120.644531 213.980469 119.683594 209.894531 118.175781 205.933594 C 116.558594 201.675781 113.734375 198.582031 109.59375 196.710938 C 107.484375 195.757812 105.335938 194.890625 103.230469 193.941406 C 102.214844 193.480469 101.1875 193.007812 100.257812 192.402344 C 96.710938 190.089844 95.066406 186.703125 95.164062 182.546875 C 95.210938 180.453125 95.539062 178.347656 95.945312 176.289062 C 96.964844 171.109375 98.109375 165.953125 99.199219 160.789062 C 99.246094 160.554688 99.269531 160.3125 99.304688 160.054688 C 99.144531 160.054688 99.089844 160.046875 99.046875 160.058594 C 98.84375 160.109375 98.640625 160.160156 98.441406 160.214844 C 90.617188 162.367188 82.738281 164.304688 74.667969 165.289062 C 71.546875 165.671875 68.414062 166.007812 65.277344 166.140625 C 59.160156 166.398438 53.0625 166.140625 47.011719 165.089844 C 45.660156 164.855469 44.320312 164.539062 42.96875 164.261719 C 42.96875 164.210938 42.96875 164.15625 42.96875 164.105469 C 43.199219 164.078125 43.4375 164.070312 43.664062 164.023438 C 48.722656 163.03125 53.222656 160.878906 57.113281 157.476562 C 57.753906 156.914062 57.753906 156.898438 57.339844 156.183594 C 55.902344 153.679688 54.605469 151.097656 53.453125 148.449219 C 49.421875 139.179688 47.304688 129.484375 47.007812 119.382812 C 46.910156 115.949219 47.066406 112.523438 47.421875 109.101562 C 47.949219 104.015625 48.953125 99.027344 50.484375 94.148438 C 54.632812 80.9375 61.761719 69.589844 71.871094 60.121094 C 77.164062 55.164062 83.039062 51.023438 89.488281 47.726562 C 100.179688 42.261719 111.519531 39.359375 123.53125 39.15625 C 123.789062 39.148438 124.042969 39.09375 124.296875 39.0625 Z M 59.445312 155.097656 C 59.652344 154.914062 59.832031 154.804688 59.953125 154.648438 C 61.242188 152.984375 62.625 151.382812 63.78125 149.628906 C 65.679688 146.757812 67.144531 143.640625 68.519531 140.492188 C 70.523438 135.902344 71.945312 131.117188 73.0625 126.238281 C 74.722656 119.011719 75.503906 111.671875 75.683594 104.273438 C 75.769531 100.664062 75.617188 97.046875 75.589844 93.429688 C 75.585938 92.632812 75.339844 91.9375 74.8125 91.367188 C 74.375 90.890625 73.898438 90.441406 73.386719 90.046875 C 71.914062 88.921875 70.488281 87.753906 69.25 86.375 C 68.214844 85.222656 67.375 83.945312 66.785156 82.511719 C 66.691406 82.289062 66.515625 82.058594 66.757812 81.734375 C 67.066406 81.871094 67.375 81.996094 67.671875 82.140625 C 72.589844 84.550781 77.683594 86.5 82.9375 88.039062 C 89.917969 90.089844 97.039062 91.429688 104.277344 92.109375 C 107.5625 92.414062 110.855469 92.671875 114.152344 92.839844 C 116.929688 92.980469 119.714844 92.972656 122.496094 93.007812 C 123.273438 93.019531 124.054688 92.953125 124.835938 92.925781 C 128.210938 92.8125 131.597656 92.761719 134.96875 92.570312 C 138.023438 92.394531 141.082031 92.109375 144.132812 91.789062 C 148.582031 91.316406 152.980469 90.511719 157.328125 89.4375 C 165.496094 87.414062 173.199219 84.296875 180.328125 79.800781 C 180.484375 79.703125 180.640625 79.609375 180.796875 79.519531 C 181.070312 79.355469 181.289062 79.445312 181.492188 79.65625 C 181.777344 79.957031 181.769531 80.109375 181.375 80.589844 C 180.117188 82.117188 178.835938 83.621094 177.605469 85.167969 C 176.46875 86.589844 175.363281 88.035156 174.273438 89.496094 C 173.832031 90.082031 173.535156 90.746094 173.511719 91.507812 C 173.417969 94.210938 173.253906 96.914062 173.246094 99.617188 C 173.242188 102.242188 173.378906 104.867188 173.480469 107.488281 C 173.644531 111.523438 174.101562 115.523438 174.777344 119.503906 C 175.871094 125.9375 177.484375 132.226562 180.113281 138.21875 C 181.5 141.382812 182.667969 144.65625 184.714844 147.492188 C 184.898438 147.746094 185.050781 148.019531 185.21875 148.285156 C 186.695312 150.59375 188.4375 152.691406 190.34375 154.65625 C 190.511719 154.832031 190.726562 154.96875 190.933594 155.128906 C 202.621094 133.714844 204.003906 96.71875 177.15625 69.949219 C 148.90625 41.796875 103.832031 41.289062 74.976562 68.292969 C 46.621094 94.828125 47.390625 132.84375 59.445312 155.097656 Z M 86.285156 156.898438 C 86.78125 157.125 87.160156 157.042969 87.539062 156.960938 C 88.632812 156.722656 89.722656 156.496094 90.8125 156.234375 C 93.132812 155.671875 95.453125 155.074219 97.777344 154.511719 C 98.75 154.273438 99.464844 153.710938 99.933594 152.847656 C 100.167969 152.417969 100.375 151.957031 100.488281 151.484375 C 101.339844 147.917969 102.046875 144.320312 102.59375 140.691406 C 102.765625 139.535156 102.960938 138.378906 103.207031 137.234375 C 103.441406 136.15625 104.148438 135.507812 105.257812 135.382812 C 106.835938 135.199219 108.421875 135.222656 110.003906 135.390625 C 110.59375 135.453125 110.691406 135.570312 110.648438 136.140625 C 110.578125 137.042969 110.515625 137.957031 110.359375 138.851562 C 109.472656 143.816406 108.570312 148.777344 107.652344 153.742188 C 106.226562 161.464844 104.789062 169.183594 103.347656 176.90625 C 103.023438 178.621094 102.699219 180.328125 102.792969 182.089844 C 102.898438 184.035156 103.660156 185.664062 105.15625 186.917969 C 105.710938 187.382812 106.3125 187.804688 106.933594 188.175781 C 110.640625 190.390625 114.359375 192.585938 118.074219 194.78125 C 118.265625 194.894531 118.476562 194.957031 118.773438 195.085938 C 118.84375 194.703125 118.914062 194.433594 118.933594 194.160156 C 118.996094 193.148438 119.042969 192.136719 119.089844 191.125 C 119.246094 187.953125 119.402344 184.785156 119.5625 181.617188 C 119.769531 177.4375 119.976562 173.253906 120.183594 169.074219 C 120.390625 164.867188 120.601562 160.660156 120.808594 156.453125 C 120.964844 153.285156 121.121094 150.117188 121.28125 146.949219 C 121.488281 142.765625 121.699219 138.585938 121.902344 134.40625 C 122.082031 130.636719 122.246094 126.875 122.425781 123.105469 C 122.449219 122.625 122.527344 122.144531 122.578125 121.660156 C 122.742188 121.808594 122.78125 121.949219 122.792969 122.097656 C 122.882812 123.371094 122.988281 124.636719 123.054688 125.910156 C 123.269531 130.167969 123.480469 134.429688 123.683594 138.6875 C 123.847656 142.140625 123.996094 145.597656 124.148438 149.050781 C 124.324219 153.054688 124.492188 157.054688 124.671875 161.054688 C 124.726562 162.195312 124.777344 163.339844 124.847656 164.484375 C 125.089844 168.425781 125.332031 172.375 125.582031 176.316406 C 125.742188 178.78125 125.890625 181.25 126.101562 183.707031 C 126.421875 187.488281 126.796875 191.269531 127.152344 195.046875 C 127.167969 195.210938 127.21875 195.375 127.253906 195.539062 C 127.339844 195.523438 127.375 195.527344 127.390625 195.511719 C 127.46875 195.445312 127.550781 195.378906 127.613281 195.296875 C 129.390625 193.027344 131.671875 191.433594 134.316406 190.347656 C 135.566406 189.835938 136.84375 189.390625 138.121094 188.945312 C 139.914062 188.320312 141.316406 187.246094 142.164062 185.503906 C 142.972656 183.832031 143.183594 182.054688 142.910156 180.253906 C 142.617188 178.351562 142.210938 176.46875 141.820312 174.585938 C 139.761719 164.625 137.632812 154.683594 135.886719 144.664062 C 135.082031 140.019531 134.421875 135.363281 134.136719 130.660156 C 133.933594 127.261719 133.792969 123.859375 133.613281 120.453125 C 133.550781 119.261719 133.445312 118.070312 133.375 116.875 C 133.347656 116.382812 133.316406 115.882812 133.367188 115.394531 C 133.46875 114.394531 134.023438 113.695312 134.984375 113.40625 C 135.601562 113.21875 136.25 113.09375 136.894531 113.050781 C 138.003906 112.976562 138.523438 113.5 138.5625 114.617188 C 138.582031 115.160156 138.578125 115.710938 138.648438 116.25 C 138.964844 118.855469 139.304688 121.464844 139.632812 124.070312 C 140.125 128.015625 140.628906 131.960938 141.105469 135.910156 C 141.570312 139.757812 141.988281 143.609375 142.46875 147.453125 C 142.617188 148.609375 142.816406 149.773438 143.15625 150.886719 C 143.90625 153.347656 145.617188 154.867188 148.074219 155.558594 C 148.421875 155.65625 148.785156 155.734375 149.140625 155.789062 C 150.503906 155.984375 151.878906 156.125 153.230469 156.375 C 154.839844 156.675781 156.429688 157.070312 158.03125 157.40625 C 158.214844 157.445312 158.417969 157.414062 158.6875 157.414062 C 158.628906 157.09375 158.601562 156.835938 158.53125 156.59375 C 158.277344 155.691406 158.039062 154.789062 157.746094 153.898438 C 156.5 150.089844 155.226562 146.292969 153.984375 142.484375 C 152.488281 137.898438 151.304688 133.238281 150.6875 128.453125 C 150.144531 124.25 149.714844 120.03125 149.246094 115.820312 C 149.160156 115.042969 149.082031 114.265625 149.070312 113.484375 C 149.054688 112.375 149.515625 111.761719 150.609375 111.558594 C 151.574219 111.378906 152.570312 111.308594 153.554688 111.269531 C 154.230469 111.242188 154.613281 111.589844 154.757812 112.265625 C 154.851562 112.722656 154.867188 113.191406 154.902344 113.65625 C 155.035156 115.707031 155.089844 117.765625 155.300781 119.804688 C 155.761719 124.289062 156.652344 128.695312 157.84375 133.042969 C 159.519531 139.125 161.757812 145 164.398438 150.730469 C 165.007812 152.050781 165.640625 153.371094 166.378906 154.617188 C 168.15625 157.617188 170.757812 159.578125 174.117188 160.53125 C 176.636719 161.242188 179.222656 161.480469 181.8125 161.707031 C 183.160156 161.824219 184.507812 161.910156 185.859375 161.988281 C 187.207031 162.066406 188.558594 162.121094 189.90625 162.171875 C 190.121094 162.183594 190.335938 162.125 190.707031 162.078125 C 190.394531 161.789062 190.210938 161.613281 190.023438 161.445312 C 189.617188 161.082031 189.171875 160.75 188.804688 160.351562 C 186.871094 158.28125 184.882812 156.253906 183.054688 154.089844 C 178.085938 148.199219 174.113281 141.691406 171.277344 134.511719 C 167.441406 124.78125 165.953125 114.667969 166.375 104.238281 C 166.527344 100.492188 166.894531 96.769531 167.449219 93.0625 C 167.484375 92.824219 167.453125 92.582031 167.453125 92.222656 C 167.015625 92.375 166.699219 92.476562 166.390625 92.597656 C 156.324219 96.445312 146.03125 99.425781 135.320312 100.824219 C 131.707031 101.292969 128.082031 101.617188 124.441406 101.683594 C 122.128906 101.722656 119.8125 101.683594 117.503906 101.546875 C 114.882812 101.398438 112.265625 101.191406 109.660156 100.867188 C 105.320312 100.320312 101.054688 99.40625 96.839844 98.222656 C 96.617188 98.160156 96.390625 98.085938 96.160156 98.046875 C 95.757812 97.984375 95.648438 98.074219 95.609375 98.492188 C 95.59375 98.667969 95.605469 98.855469 95.617188 99.035156 C 95.710938 100.648438 95.878906 102.253906 95.882812 103.863281 C 95.894531 107.972656 95.875 112.082031 95.777344 116.1875 C 95.6875 120.144531 95.222656 124.074219 94.636719 127.984375 C 93.183594 137.679688 90.550781 147.046875 86.609375 156.03125 C 86.496094 156.289062 86.414062 156.558594 86.285156 156.898438 Z M 62.933594 161.21875 C 63.867188 161.285156 64.664062 161.277344 65.453125 161.183594 C 67.855469 160.898438 70.253906 160.605469 72.648438 160.300781 C 74.972656 160.003906 77.273438 159.59375 79.492188 158.804688 C 81.617188 158.046875 83.136719 156.664062 84.066406 154.601562 C 86.402344 149.425781 88.4375 144.140625 90.003906 138.679688 C 91.671875 132.859375 92.71875 126.929688 93.160156 120.890625 C 93.238281 119.835938 93.167969 118.757812 93.054688 117.707031 C 92.933594 116.5 92.171875 115.71875 91.046875 115.351562 C 90.304688 115.113281 89.539062 114.933594 88.769531 114.835938 C 87.382812 114.65625 85.984375 114.527344 84.582031 114.425781 C 82.054688 114.246094 81.425781 115.253906 81.261719 117.132812 C 81.164062 118.273438 81.078125 119.414062 80.964844 120.550781 C 80.496094 125.3125 79.445312 129.945312 77.910156 134.46875 C 75.769531 140.789062 72.773438 146.691406 69.078125 152.234375 C 67.246094 154.984375 65.339844 157.679688 63.46875 160.402344 C 63.308594 160.632812 63.164062 160.867188 62.933594 161.21875 Z M 93.503906 110.851562 C 93.511719 110.851562 93.519531 110.851562 93.523438 110.851562 C 93.46875 109.578125 93.421875 108.304688 93.351562 107.03125 C 93.246094 105.085938 93.128906 103.136719 92.996094 101.191406 C 92.941406 100.386719 92.878906 99.578125 92.71875 98.792969 C 92.507812 97.738281 91.90625 96.953125 90.835938 96.59375 C 87.679688 95.539062 84.523438 94.476562 81.367188 93.429688 C 80.632812 93.1875 80.339844 93.402344 80.335938 94.179688 C 80.332031 94.695312 80.402344 95.21875 80.453125 95.734375 C 80.867188 100.320312 81.335938 104.898438 81.675781 109.484375 C 81.777344 110.871094 82.878906 112.132812 84.171875 112.394531 C 85.167969 112.597656 86.15625 112.820312 87.136719 113.070312 C 88.523438 113.414062 89.898438 113.8125 91.285156 114.144531 C 92.613281 114.453125 93.40625 113.851562 93.5 112.488281 C 93.539062 111.945312 93.503906 111.398438 93.503906 110.851562 Z M 93.503906 110.851562 "/>
<path style=" stroke:none;fill-rule:nonzero;fill:rgb(100%,100%,100%);fill-opacity:1;" d="M 105.210938 119.609375 C 105.210938 117.816406 105.207031 116.019531 105.214844 114.226562 C 105.21875 113.351562 105.390625 113.085938 106.246094 112.972656 C 107.617188 112.789062 108.996094 112.839844 110.351562 113.140625 C 111.117188 113.3125 111.605469 113.820312 111.710938 114.578125 C 111.839844 115.476562 111.917969 116.386719 111.902344 117.292969 C 111.871094 119.421875 111.769531 121.550781 111.6875 123.683594 C 111.675781 124.015625 111.65625 124.359375 111.585938 124.6875 C 111.292969 126.035156 110.371094 126.753906 108.996094 126.625 C 107.910156 126.527344 106.835938 126.332031 105.753906 126.179688 C 105.429688 126.136719 105.234375 125.960938 105.222656 125.617188 C 105.21875 125.382812 105.210938 125.148438 105.207031 124.914062 C 105.210938 123.144531 105.210938 121.378906 105.210938 119.609375 Z M 105.210938 119.609375 "/>
</g>
</svg>
