<svg height="250" viewBox="0 0 250 250" width="250" xmlns="http://www.w3.org/2000/svg"><path d="m0 0h250v250h-250z" fill="#cf300f"/><g fill="#fff"><path d="m124.296875 39.0625h1.875c.257813.03125.511719.089844.769531.09375 3.910156.015625 7.78125.441406 11.628906 1.097656 6.808594 1.164063 13.34375 3.203125 19.597657 6.125 10.234375 4.785156 19.039062 11.46875 26.398437 20.042969 6.566406 7.648437 11.484375 16.25 14.710938 25.800781 2.953125 8.730469 4.355468 17.710938 4.054687 26.929688-.078125 2.363281-.230469 4.726562-.46875 7.082031-.519531 5.140625-1.652343 10.160156-3.238281 15.074219-1.664062 5.167968-3.847656 10.105468-6.546875 14.816406-.414063.71875-.398437.761719.246094 1.285156 2.296875 1.863282 4.804687 3.375 7.566406 4.457032 1.828125.714843 3.71875 1.179687 5.636719 1.535156.171875.035156.339844.117187.503906.175781-.257812.242187-.496094.339844-.738281.40625-4.820313 1.253906-9.71875 2.042969-14.691407 2.316406-2.304687.128907-4.613281.179688-6.933593.085938-3.175781-.125-6.335938-.386719-9.464844-.882813-6.058594-.957031-12.101563-2-18.152344-3.023437-2.816406-.480469-5.632812-.992188-8.449219-1.484375-.191406-.03125-.394531-.003906-.6875-.003906.070313.390624.113282.714843.191407 1.03125.582031 2.292968 1.191406 4.582031 1.757812 6.878906 1.015625 4.113281 2.109375 8.210937 2.332031 12.480468.101563 1.996094-.070312 3.957032-.730468 5.84375-1.144532 3.269532-3.457032 5.464844-6.566406 6.824219-2.785157 1.21875-5.605469 2.371094-8.445313 3.464844-5.480469 2.109375-8.945313 5.910156-10.070313 11.734375-.796874 4.136719-1.566406 8.277344-2.359374 12.417969-.363282 1.886719-.757813 3.769531-1.132813 5.652343-.050781 0-.105469 0-.15625 0-.066406-.25-.148437-.5-.1875-.753906-.429687-2.800781-.855469-5.601562-1.277344-8.40625-.625-4.179687-1.585937-8.265625-3.09375-12.226562-1.617187-4.257813-4.441406-7.351563-8.582031-9.222656-2.109375-.953126-4.257812-1.820313-6.363281-2.769532-1.015625-.460937-2.042969-.933594-2.972657-1.539062-3.546874-2.3125-5.191406-5.699219-5.09375-9.855469.046876-2.09375.375-4.199219.78125-6.257813 1.019532-5.179687 2.164063-10.335937 3.253907-15.5.046875-.234374.070312-.476562.105469-.734374-.160157 0-.214844-.007813-.257813.003906-.203125.050781-.40625.101562-.605469.15625-7.824218 2.152344-15.703125 4.089844-23.773437 5.074218-3.121094.382813-6.253907.71875-9.390625.851563-6.117188.257813-12.214844 0-18.265625-1.050781-1.351563-.234375-2.691407-.550782-4.042969-.828125 0-.050781 0-.105469 0-.15625.230469-.027344.46875-.035157.695312-.082031 5.058594-.992188 9.558594-3.144532 13.449219-6.546876.640625-.5625.640625-.578124.226563-1.292968-1.4375-2.503906-2.734375-5.085938-3.886719-7.734375-4.03125-9.269531-6.148437-18.964844-6.445313-29.066407-.097656-3.433593.058594-6.859374.414063-10.28125.527344-5.085937 1.53125-10.074218 3.0625-14.953124 4.148437-13.210938 11.277344-24.558594 21.386719-34.027344 5.292968-4.957032 11.167968-9.097656 17.617187-12.394532 10.691407-5.464843 22.03125-8.367187 34.042969-8.570312.257812-.007812.511719-.0625.765625-.09375zm-64.851563 116.035156c.207032-.183594.386719-.292968.507813-.449218 1.289063-1.664063 2.671875-3.265626 3.828125-5.019532 1.898438-2.871094 3.363281-5.988281 4.738281-9.136718 2.003907-4.589844 3.425781-9.375 4.542969-14.253907 1.660156-7.226562 2.441406-14.566406 2.621094-21.964843.085937-3.609376-.066406-7.226563-.09375-10.84375-.003906-.796876-.25-1.492188-.777344-2.0625-.4375-.476563-.914062-.925782-1.425781-1.320313-1.472657-1.125-2.898438-2.292969-4.136719-3.671875-1.035156-1.152344-1.875-2.429688-2.464844-3.863281-.09375-.222657-.269531-.453125-.027344-.777344.308594.136719.617188.261719.914063.40625 4.917969 2.410156 10.011719 4.359375 15.265625 5.898437 6.980469 2.050782 14.101562 3.390626 21.339844 4.070313 3.285156.304687 6.578125.5625 9.875.730469 2.777344.140625 5.5625.132812 8.34375.167968.777344.011719 1.558594-.054687 2.339844-.082031 3.375-.113281 6.761718-.164062 10.132812-.355469 3.054688-.175781 6.113281-.460937 9.164062-.78125 4.449219-.472656 8.847657-1.277343 13.195313-2.351562 8.167969-2.023438 15.871094-5.140625 23-9.636719.15625-.097656.3125-.191406.46875-.28125.273437-.164062.492187-.074219.695313.136719.285156.300781.277343.453125-.117188.933594-1.257812 1.527344-2.539062 3.03125-3.769531 4.578125-1.136719 1.421875-2.242188 2.867187-3.332031 4.328125-.441407.585937-.738282 1.25-.761719 2.011718-.09375 2.703126-.257813 5.40625-.265625 8.109376-.003906 2.625.132812 5.25.234375 7.871093.164062 4.035157.621093 8.035157 1.296875 12.015625 1.09375 6.433594 2.707031 12.722656 5.335937 18.714844 1.386719 3.164062 2.554688 6.4375 4.601563 9.273438.183594.253906.335937.527343.503906.792968 1.476562 2.308594 3.21875 4.40625 5.125 6.371094.167969.175781.382812.3125.589844.472656 11.6875-21.414062 13.070312-58.410156-13.777344-85.179687-28.25-28.152344-73.324219-28.660157-102.179688-1.65625-28.355468 26.535156-27.585937 64.550781-15.53125 86.804687zm26.839844 1.800782c.496094.226562.875.144531 1.253906.0625 1.09375-.238282 2.183594-.464844 3.273438-.726563 2.320312-.5625 4.640625-1.160156 6.964844-1.722656.972656-.238281 1.6875-.800781 2.15625-1.664063.234375-.429687.441406-.890625.554687-1.363281.851563-3.566406 1.558594-7.164063 2.105469-10.792969.171875-1.15625.367188-2.3125.613281-3.457031.234375-1.078125.941407-1.726563 2.050781-1.851563 1.578126-.183593 3.164063-.160156 4.746094.007813.589844.0625.6875.179687.644532.75-.070313.902344-.132813 1.816406-.289063 2.710937-.886719 4.964844-1.789063 9.925782-2.707031 14.890626-1.425782 7.722656-2.863282 15.441406-4.304688 23.164062-.324218 1.714844-.648437 3.421875-.554687 5.183594.105469 1.945312.867187 3.574218 2.363281 4.828125.554688.464843 1.15625.886719 1.777344 1.257812 3.707031 2.214844 7.425781 4.410157 11.140625 6.605469.191406.113281.402343.175781.699219.304688.070312-.382813.140624-.652344.160156-.925782.0625-1.011718.109375-2.023437.15625-3.035156.15625-3.171875.3125-6.339844.472656-9.507812.207031-4.179688.414062-8.363282.621094-12.542969.207031-4.207031.417968-8.414063.625-12.621094.15625-3.167969.3125-6.335937.472656-9.503906.207031-4.183594.417969-8.363281.621094-12.542969.179687-3.769531.34375-7.53125.523437-11.300781.023438-.480469.101563-.960938.152344-1.445313.164063.148438.203125.289063.214844.4375.089843 1.273438.195312 2.539063.261719 3.8125.214843 4.257813.425781 8.519532.628906 12.777344.164062 3.453125.3125 6.910156.464844 10.363281.175781 4.003907.34375 8.003907.523437 12.003907.054687 1.140624.105469 2.285156.175781 3.429687.242188 3.941406.484375 7.890625.734375 11.832031.160157 2.464844.308594 4.933594.519531 7.390625.320313 3.78125.695313 7.5625 1.050782 11.339844.015625.164063.066406.328125.101562.492187.085938-.015624.121094-.011718.136719-.027343.078125-.066407.160156-.132813.222656-.214844 1.777344-2.269531 4.058594-3.863281 6.703125-4.949219 1.25-.511718 2.527344-.957031 3.804688-1.402344 1.792968-.625 3.195312-1.699218 4.042968-3.441406.808594-1.671875 1.019532-3.449218.746094-5.25-.292968-1.902344-.699218-3.785156-1.089844-5.667968-2.058593-9.960938-4.1875-19.902344-5.933593-29.921876-.804688-4.644531-1.464844-9.300781-1.75-14.003906-.203125-3.398437-.34375-6.800781-.523438-10.207031-.0625-1.191406-.167969-2.382813-.238281-3.578125-.027344-.492188-.058594-.992188-.007812-1.480469.101562-1 .65625-1.699219 1.617187-1.988281.617187-.1875 1.265625-.3125 1.910156-.355469 1.109375-.074219 1.628907.449219 1.667969 1.566407.019531.542968.015625 1.09375.085938 1.632812.316406 2.605469.65625 5.214844.984374 7.820312.492188 3.945313.996094 7.890626 1.472657 11.839844.464843 3.847656.882812 7.699219 1.363281 11.542969.148438 1.15625.347656 2.320313.6875 3.433594.75 2.460937 2.460938 3.980469 4.917969 4.671875.347656.097656.710937.175781 1.066406.230468 1.363281.195313 2.738281.335938 4.089844.585938 1.609375.300781 3.199219.695312 4.800781 1.03125.183594.039062.386719.007812.65625.007812-.058594-.320312-.085938-.578124-.15625-.820312-.253906-.902344-.492188-1.804688-.785156-2.695312-1.246094-3.808594-2.519532-7.605469-3.761719-11.414063-1.496094-4.585937-2.679687-9.246094-3.296875-14.03125-.542969-4.203125-.972656-8.421875-1.441406-12.632813-.085938-.777343-.164063-1.554687-.175782-2.335937-.015624-1.109375.445313-1.722656 1.539063-1.925781.964844-.179688 1.960937-.25 2.945313-.289063.675781-.027343 1.058593.320313 1.203124.996094.09375.457031.109376.925781.144532 1.390625.132812 2.050781.1875 4.109375.398437 6.148438.460938 4.484374 1.351563 8.890624 2.542969 13.238281 1.675781 6.082031 3.914062 11.957031 6.554688 17.6875.609374 1.320312 1.242187 2.640625 1.980468 3.886719 1.777344 3 4.378906 4.960937 7.738282 5.914062 2.519531.710938 5.105468.949219 7.695312 1.175781 1.347656.117188 2.695312.203125 4.046875.28125 1.347656.078125 2.699219.132813 4.046875.183594.214844.011719.429688-.046875.800781-.09375-.3125-.289063-.496093-.464844-.683593-.632813-.40625-.363281-.851563-.695312-1.21875-1.09375-1.933594-2.070312-3.921876-4.097656-5.75-6.261718-4.96875-5.890625-8.941407-12.398438-11.777344-19.578125-3.835938-9.730469-5.324219-19.84375-4.902344-30.273438.152344-3.746093.519531-7.46875 1.074219-11.175781.035156-.238281.003906-.480469.003906-.839844-.4375.152344-.753906.253906-1.0625.375-10.066406 3.847656-20.359375 6.828125-31.070313 8.226563-3.613281.46875-7.238281.792969-10.878906.859375-2.3125.039062-4.628906 0-6.9375-.136719-2.621094-.148437-5.238281-.355469-7.84375-.679687-4.339844-.546876-8.605468-1.460938-12.820312-2.644532-.222656-.0625-.449219-.136718-.679688-.175781-.402344-.0625-.511718.027344-.550781.445313-.015625.175781-.003906.363281.007813.542968.09375 1.613282.261718 3.21875.265624 4.828125.011719 4.109375-.007812 8.21875-.105468 12.324219-.089844 3.957031-.554688 7.886719-1.140625 11.796875-1.453125 9.695313-4.085938 19.0625-8.027344 28.046875-.113281.257812-.195313.527344-.324219.867188zm-23.351562 4.320312c.933594.066406 1.730468.058594 2.519531-.035156 2.402344-.285156 4.800781-.578125 7.195313-.882813 2.324218-.296875 4.625-.707031 6.84375-1.496093 2.125-.757813 3.644531-2.140626 4.574218-4.203126 2.335938-5.175781 4.371094-10.460937 5.9375-15.921874 1.667969-5.820313 2.714844-11.75 3.15625-17.789063.078125-1.054687.007813-2.132813-.105468-3.183594-.121094-1.207031-.882813-1.988281-2.007813-2.355469-.742187-.238281-1.507813-.417968-2.277344-.515624-1.386719-.179688-2.785156-.308594-4.1875-.410157-2.527343-.179687-3.15625.828125-3.320312 2.707031-.097657 1.140626-.183594 2.28125-.296875 3.417969-.46875 4.761719-1.519532 9.394531-3.054688 13.917969-2.140625 6.320312-5.136718 12.222656-8.832031 17.765625-1.832031 2.75-3.738281 5.445313-5.609375 8.167969-.160156.230468-.304688.464844-.535156.816406zm30.570312-50.367188h.019532c-.054688-1.273437-.101563-2.546874-.171876-3.820312-.105468-1.945312-.222656-3.894531-.355468-5.839844-.054688-.804687-.117188-1.613281-.277344-2.398437-.210938-1.054688-.8125-1.839844-1.882812-2.199219-3.15625-1.054688-6.3125-2.117188-9.46875-3.164062-.734376-.242188-1.027344-.027344-1.03125.75-.003907.515624.066406 1.039062.117187 1.554687.414063 4.585937.882813 9.164063 1.222656 13.75.101563 1.386719 1.203125 2.648437 2.496094 2.910156.996094.203125 1.984375.425781 2.964844.675781 1.386719.34375 2.761719.742188 4.148437 1.074219 1.328125.308594 2.121094-.292969 2.214844-1.65625.039062-.542969.003906-1.089843.003906-1.636719zm0 0"/><path d="m105.210938 119.609375c0-1.792969-.003907-3.589844.003906-5.382813.003906-.875.175781-1.140624 1.03125-1.253906 1.371094-.183594 2.75-.132812 4.105468.167969.765626.171875 1.253907.679687 1.359376 1.4375.128906.898437.207031 1.808594.191406 2.714844-.03125 2.128906-.132813 4.257812-.214844 6.390625-.011719.332031-.03125.675781-.101562 1.003906-.292969 1.347656-1.214844 2.066406-2.589844 1.9375-1.085938-.097656-2.160156-.292969-3.242188-.445312-.324218-.042969-.519531-.21875-.53125-.5625-.003906-.234376-.011718-.46875-.015625-.703126.003907-1.769531.003907-3.535156.003907-5.304687zm0 0"/></g></svg>