<svg id="Layer_1" data-name="Layer 1" xmlns="http://www.w3.org/2000/svg" xmlns:xlink="http://www.w3.org/1999/xlink" viewBox="0 0 64 64"><defs><style>.cls-1{fill:none;}.cls-2{fill:url(#linear-gradient);}.cls-3{fill:#fff;}.cls-4{fill:#c53b86;}.cls-5{fill:#ff4724;}.cls-6{fill:#9e1f63;}.cls-7{fill:#662d91;}</style><linearGradient id="linear-gradient" x1="-6.5" y1="30.05" x2="70.5" y2="30.05" gradientUnits="userSpaceOnUse"><stop offset="0" stop-color="#0157d0"/><stop offset="0.14" stop-color="#015fcd"/><stop offset="0.36" stop-color="#0174c6"/><stop offset="0.63" stop-color="#0098ba"/><stop offset="0.94" stop-color="#00c8aa"/><stop offset="1" stop-color="#00d3a6"/></linearGradient></defs><title>itoken_BAT-clearchip</title><ellipse class="cls-1" cx="32" cy="32" rx="25.5" ry="25.45"/><path class="cls-2" d="M64,32A32,32,0,1,0,16.67,60.09l1.38,0H46l1.38,0A32,32,0,0,0,64,32Z"/><ellipse class="cls-3" cx="32" cy="32" rx="25.5" ry="25.45"/><ellipse class="cls-1" cx="32" cy="32" rx="25.5" ry="25.45"/><path class="cls-4" d="M46.34,46.42a19.9,19.9,0,0,1-14.43,5.85,19.51,19.51,0,0,1-14.32-5.8A19.4,19.4,0,0,1,11.7,32.15a19.66,19.66,0,0,1,5.85-14.57,19.46,19.46,0,0,1,14.3-5.85,19.94,19.94,0,0,1,14.45,5.8,19.52,19.52,0,0,1,6,14.56A19.2,19.2,0,0,1,46.34,46.42Z"/><g id="Layer_1-2" data-name="Layer 1-2"><polygon class="cls-3" points="25.03 37.73 38.97 37.73 32 25.7 25.03 37.73"/><path class="cls-5" d="M32,16.87a.68.68,0,0,0-.58.33L17.58,41.09a.67.67,0,0,0,0,.67L26,36.86l6-10.29Z"/><path class="cls-6" d="M46.42,41.09,32.58,17.2a.68.68,0,0,0-.58-.33v9.7l6,10.29,8.46,4.91A.69.69,0,0,0,46.42,41.09Z"/><path class="cls-7" d="M46.42,41.76,38,36.85H26l-8.46,4.91a.68.68,0,0,0,.58.33H45.84A.68.68,0,0,0,46.42,41.76Z"/></g></svg>