<svg width="256" height="256" viewBox="0 0 256 256" fill="none" xmlns="http://www.w3.org/2000/svg">
<path d="M128 49.36C143.554 49.36 158.758 53.9722 171.69 62.6132C184.622 71.2543 194.702 83.5362 200.654 97.9058C206.606 112.275 208.163 128.087 205.129 143.342C202.095 158.597 194.605 172.609 183.607 183.607C172.609 194.605 158.597 202.095 143.342 205.129C128.087 208.163 112.275 206.606 97.9058 200.654C83.5363 194.702 71.2544 184.622 62.6133 171.69C53.9722 158.758 49.3601 143.554 49.3601 128C49.3865 107.151 57.6803 87.1645 72.4224 72.4223C87.1645 57.6802 107.152 49.3865 128 49.36ZM128 0C102.684 0 77.9366 7.50707 56.8871 21.5719C35.8376 35.6367 19.4315 55.6276 9.74348 79.0165C0.05546 102.405 -2.47937 128.142 2.45954 152.972C7.39845 177.801 19.5893 200.609 37.4904 218.51C55.3915 236.411 78.1989 248.602 103.029 253.541C127.858 258.479 153.595 255.945 176.984 246.257C200.372 236.569 220.363 220.162 234.428 199.113C248.493 178.064 256 153.316 256 128C256 94.0523 242.514 61.495 218.51 37.4903C194.505 13.4857 161.948 0 128 0V0Z" fill="url(#paint0_linear)"/>
<path d="M128 229C183.228 229 228 184.228 228 129C228 73.7715 183.228 29 128 29C72.7715 29 28 73.7715 28 129C28 184.228 72.7715 229 128 229Z" fill="white"/>
<path d="M184.318 186.005C176.866 193.46 167.992 199.335 158.226 203.283C148.46 207.231 138.001 209.17 127.471 208.985C117.007 209.191 106.611 207.258 96.9185 203.303C87.2257 199.349 78.4395 193.456 71.0966 185.986C63.581 178.655 57.6532 169.853 53.6828 160.127C49.7124 150.4 47.7844 139.959 48.0191 129.454C48.0191 106.468 55.7248 87.3148 71.136 71.9951C78.4835 64.5265 87.2738 58.6368 96.97 54.6858C106.666 50.7347 117.065 48.8054 127.53 49.0155C138.058 48.8368 148.514 50.7809 158.276 54.732C168.039 58.6831 176.908 64.5606 184.358 72.0148C200.11 87.3477 207.986 106.507 207.986 129.493C208.186 140.045 206.183 150.521 202.108 160.252C198.032 169.984 191.973 178.755 184.318 186.005Z" fill="#C43C86"/>
<path d="M104.912 143.033L150.988 143.116L128.024 103.318L104.912 143.033Z" fill="white"/>
<path d="M128.09 74.1429C127.702 74.1446 127.321 74.2477 126.985 74.4418C126.649 74.6359 126.369 74.9144 126.174 75.2497L80.2966 154.102C80.1023 154.439 80 154.82 80 155.209C80 155.597 80.1023 155.979 80.2966 156.316L108.249 140.159L127.991 106.176L128.09 74.1429Z" fill="#EF4B2D"/>
<path d="M175.587 154.267L129.99 75.2497C129.797 74.9157 129.52 74.6379 129.187 74.4437C128.854 74.2496 128.476 74.1459 128.09 74.1429V106.193L147.667 140.241L175.57 156.481C175.772 156.148 175.88 155.766 175.883 155.376C175.886 154.987 175.783 154.604 175.587 154.267Z" fill="#9D2063"/>
<path d="M175.57 156.448L147.667 140.208H108.249L80.2968 156.283C80.487 156.619 80.7632 156.899 81.097 157.093C81.4308 157.288 81.8103 157.39 82.1966 157.39L173.654 157.555C174.042 157.553 174.423 157.45 174.759 157.256C175.095 157.062 175.375 156.783 175.57 156.448Z" fill="#662F8E"/>
<defs>
<linearGradient id="paint0_linear" x1="239.36" y1="239.36" x2="34.56" y2="34.56" gradientUnits="userSpaceOnUse">
<stop offset="0.159375" stop-color="#003CDA"/>
<stop offset="1" stop-color="#33DFCC"/>
</linearGradient>
</defs>
</svg>
