
<svg xmlns="http://www.w3.org/2000/svg" xmlns:xlink="http://www.w3.org/1999/xlink" width="250px" height="250px" viewBox="0 0 250 250" version="1.1">
<defs>
<linearGradient id="linear0" gradientUnits="userSpaceOnUse" x1="63.490002" y1="15.89" x2="11.41" y2="59.709999" gradientTransform="matrix(3.571429,0,0,3.571429,0,0)">
<stop offset="0" style="stop-color:rgb(71.372551%,31.37255%,61.960787%);stop-opacity:1;"/>
<stop offset="1" style="stop-color:rgb(18.039216%,72.941178%,77.64706%);stop-opacity:1;"/>
</linearGradient>
</defs>
<g id="surface1">
<path style=" stroke:none;fill-rule:nonzero;fill:url(#linear0);" d="M 125 250 C 194.035156 250 250 194.035156 250 125 C 250 55.964844 194.035156 0 125 0 C 55.964844 0 0 55.964844 0 125 C 0 194.035156 55.964844 250 125 250 Z M 125 250 "/>
<path style=" stroke:none;fill-rule:nonzero;fill:rgb(100%,100%,100%);fill-opacity:1;" d="M 178.730469 175.390625 L 137.273438 71.667969 C 134.929688 66.304688 131.464844 63.679688 126.882812 63.679688 L 123.214844 63.679688 C 118.632812 63.679688 115.167969 66.304688 112.824219 71.667969 L 94.796875 116.855469 L 81.144531 116.855469 C 79.179688 116.863281 77.296875 117.675781 75.90625 119.109375 C 74.511719 120.546875 73.722656 122.492188 73.710938 124.527344 L 73.710938 124.632812 C 73.722656 126.667969 74.511719 128.613281 75.90625 130.050781 C 77.296875 131.488281 79.179688 132.296875 81.144531 132.304688 L 88.476562 132.304688 L 71.265625 175.390625 C 70.9375 176.335938 70.765625 177.332031 70.753906 178.332031 C 70.753906 180.75 71.46875 182.644531 72.792969 184.113281 C 74.117188 185.585938 75.949219 186.320312 78.292969 186.320312 C 79.832031 186.296875 81.324219 185.785156 82.570312 184.847656 C 83.894531 183.902344 84.8125 182.535156 85.523438 180.960938 L 104.472656 132.304688 L 117.613281 132.304688 C 119.578125 132.296875 121.460938 131.484375 122.851562 130.050781 C 124.246094 128.613281 125.035156 126.664062 125.046875 124.632812 L 125.046875 124.421875 C 125.035156 122.386719 124.246094 120.441406 122.851562 119.003906 C 121.460938 117.566406 119.578125 116.757812 117.613281 116.75 L 110.585938 116.75 L 125.046875 79.441406 L 164.46875 180.960938 C 165.183594 182.535156 166.101562 183.902344 167.425781 184.847656 C 168.667969 185.785156 170.164062 186.300781 171.703125 186.320312 C 174.046875 186.320312 175.878906 185.585938 177.203125 184.113281 C 178.527344 182.640625 179.242188 180.75 179.242188 178.332031 C 179.277344 177.324219 179.105469 176.320312 178.730469 175.390625 Z M 178.730469 175.390625 "/>
</g>
</svg>
