<svg height="250" viewBox="0 0 250 250" width="250" xmlns="http://www.w3.org/2000/svg" xmlns:xlink="http://www.w3.org/1999/xlink"><linearGradient id="a" gradientTransform="matrix(.976562 0 0 -.976562 0 251.249999)" gradientUnits="userSpaceOnUse" x1="239.360001" x2="34.560001" y1="17.92" y2="222.720001"><stop offset=".1594" stop-color="#003cda"/><stop offset="1" stop-color="#33dfcc"/></linearGradient><clipPath id="b"><path d="m46.875 46.875h156.25v156.25h-156.25zm0 0"/></clipPath><path d="m125 48.242188c15.234375 0 30.078125 4.492187 42.675781 12.988281 12.597657 8.398437 22.460938 20.410156 28.320313 34.472656s7.324218 29.492187 4.394531 44.335937c-2.929687 14.941407-10.253906 28.613282-20.996094 39.355469-10.742187 10.742188-24.414062 18.066407-39.355469 20.996094-14.941406 2.929687-30.371093 1.464844-44.335937-4.394531-14.0625-5.859375-26.074219-15.625-34.472656-28.320313-8.496094-12.597656-12.988281-27.441406-12.988281-42.675781 0-20.3125 8.105468-39.84375 22.558593-54.296875 14.355469-14.355469 33.886719-22.460937 54.199219-22.460937zm0-48.242188c-24.707031 0-48.925781 7.324219-69.433594 21.09375-20.605468 13.671875-36.621094 33.203125-46.09375 56.054688-9.472656 22.851562-11.914062 47.949218-7.128906 72.265624 4.785156 24.21875 16.699219 46.484376 34.179688 63.964844 17.480468 17.480469 39.746093 29.394532 63.964843 34.179688s49.414063 2.34375 72.265625-7.128906c22.851563-9.472657 42.382813-25.488282 56.054688-45.996094 13.769531-20.605469 21.09375-44.726563 21.09375-69.433594 0-33.105469-13.183594-64.941406-36.621094-88.378906-23.339844-23.4375-55.175781-36.621094-88.28125-36.621094zm0 0" fill="url(#a)"/><path d="m125 222.65625c53.90625 0 97.65625-43.75 97.65625-97.65625s-43.75-97.65625-97.65625-97.65625-97.65625 43.75-97.65625 97.65625 43.75 97.65625 97.65625 97.65625zm0 0" fill="#fff"/><g clip-path="url(#b)"><path d="m200.78125 143.945312c-10.449219 41.894532-52.832031 67.285157-94.726562 56.933594-41.796876-10.449218-67.285157-52.832031-56.835938-94.726562 10.449219-41.894532 52.832031-67.285156 94.628906-56.933594 41.894532 10.449219 67.382813 52.832031 56.933594 94.726562zm0 0" fill="#f7931a"/></g><path d="m159.472656 113.867188c1.5625-10.351563-6.347656-16.015626-17.1875-19.726563l3.515625-14.0625-8.59375-2.148437-3.417969 13.671874c-2.246093-.585937-4.589843-1.074218-6.835937-1.660156l3.417969-13.769531-8.59375-2.148437-3.515625 14.0625c-1.855469-.390626-3.710938-.878907-5.46875-1.269532l-11.816407-2.929687-2.246093 9.179687s6.347656 1.464844 6.25 1.5625c3.515625.878906 4.101562 3.125 4.003906 4.980469l-4.003906 16.015625c.195312.097656.585937.195312.878906.292969-.292969-.097657-.585937-.195313-.878906-.195313l-5.566407 22.460938c-.390624 1.074218-1.464843 2.636718-3.90625 2.050781.097657.097656-6.25-1.5625-6.25-1.5625l-4.296874 9.765625 11.132812 2.734375c2.050781.488281 4.101562 1.074219 6.152344 1.5625l-3.515625 14.257813 8.59375 2.148437 3.515625-14.0625c2.34375.585937 4.589844 1.171875 6.835937 1.757813l-3.515625 14.0625 8.59375 2.148437 3.515625-14.257813c14.648438 2.734376 25.585938 1.660157 30.273438-11.523437 3.710937-10.644531-.195313-16.796875-7.910157-20.800781 5.46875-1.269532 9.667969-4.980469 10.839844-12.597656zm-19.628906 27.441406c-2.636719 10.644531-20.605469 4.882812-26.367188 3.417968l4.6875-18.847656c5.859376 1.464844 24.511719 4.394532 21.679688 15.429688zm2.636719-27.636719c-2.441407 9.667969-17.382813 4.785156-22.167969 3.515625l4.296875-17.089844c4.882813 1.269532 20.410156 3.515625 17.871094 13.574219zm0 0" fill="#fff"/></svg>