<svg height="250" viewBox="0 0 250 250" width="250" xmlns="http://www.w3.org/2000/svg" xmlns:xlink="http://www.w3.org/1999/xlink"><linearGradient id="a" gradientUnits="userSpaceOnUse" x1="21.428574" x2="221.428598" y1="58.9285785" y2="230.3571705"><stop offset="0" stop-color="#fff"/><stop offset="1" stop-color="#ffe1ef"/></linearGradient><path d="m0 125c0-69.035156 55.964844-125 125-125s125 55.964844 125 125-55.964844 125-125 125-125-55.964844-125-125zm0 0" fill="url(#a)"/><g fill="#ff007a"><path d="m95.941406 58.742188c-1.917968-.296876-2-.332032-1.097656-.472657 1.730469-.261719 5.816406.097657 8.632812.765625 6.574219 1.558594 12.554688 5.550782 18.941407 12.640625l1.695312 1.882813 2.425781-.390625c10.222657-1.636719 20.625-.335938 29.324219 3.671875 2.390625 1.101562 6.164063 3.296875 6.636719 3.859375.148438.179687.425781 1.339843.613281 2.574219.644531 4.269531.320313 7.542968-.988281 9.988281-.714844 1.332031-.753906 1.753906-.273438 2.890625.382813.910156 1.449219 1.582031 2.503907 1.582031 2.160156-.003906 4.488281-3.488281 5.566406-8.339844l.429687-1.925781.847657.960938c4.652343 5.257812 8.308593 12.425781 8.9375 17.527343l.160156 1.332031-.78125-1.210937c-1.34375-2.078125-2.699219-3.496094-4.429687-4.640625-3.121094-2.058594-6.421876-2.761719-15.164063-3.21875-7.898437-.414062-12.367187-1.089844-16.796875-2.527344-7.539062-2.453125-11.339844-5.71875-20.296875-17.433594-3.976563-5.203124-6.433594-8.085937-8.878906-10.402343-5.558594-5.269531-11.019531-8.03125-18.007813-9.113281zm0 0"/><path d="m164.277344 70.359375c.199218-3.484375.671875-5.785156 1.628906-7.886719.375-.832031.730469-1.511718.785156-1.511718.054688 0-.109375.613281-.367187 1.363281-.691407 2.039062-.804688 4.828125-.328125 8.070312.605468 4.117188.949218 4.710938 5.3125 9.160157 2.046875 2.082031 4.429687 4.714843 5.289062 5.84375l1.570313 2.054687-1.570313-1.46875c-1.917968-1.792969-6.328125-5.292969-7.304687-5.796875-.652344-.332031-.75-.328125-1.152344.070312-.371094.371094-.453125.925782-.503906 3.542969-.078125 4.082031-.636719 6.703125-1.984375 9.324219-.726563 1.414062-.84375 1.113281-.183594-.488281.492188-1.191407.542969-1.71875.539062-5.667969-.007812-7.941406-.953124-9.847656-6.496093-13.117188-1.402344-.832031-3.71875-2.023437-5.140625-2.65625-1.425782-.632812-2.554688-1.183593-2.515625-1.222656.15625-.15625 5.5625 1.417969 7.738281 2.25 3.238281 1.242188 3.773438 1.402344 4.164062 1.253906.265626-.101562.394532-.867187.519532-3.117187zm0 0"/><path d="m99.667969 83.941406c-3.894531-5.347656-6.304688-13.546875-5.78125-19.675781l.160156-1.898437.886719.164062c1.664062.300781 4.535156 1.367188 5.878906 2.179688 3.691406 2.234374 5.289062 5.175781 6.914062 12.730468.476563 2.214844 1.097657 4.71875 1.386719 5.566406.460938 1.363282 2.210938 4.550782 3.632813 6.621094 1.023437 1.492188.34375 2.195313-1.921875 1.992188-3.453125-.308594-8.136719-3.53125-11.15625-7.679688zm0 0"/><path d="m159.554688 123.746094c-18.203126-7.308594-24.613282-13.652344-24.613282-24.359375 0-1.574219.054688-2.863281.121094-2.863281.0625 0 .769531.519531 1.5625 1.15625 3.691406 2.949218 7.828125 4.210937 19.269531 5.878906 6.734375.976562 10.523438 1.769531 14.019531 2.925781 11.113282 3.675781 17.988282 11.132813 19.628907 21.289063.476562 2.953124.195312 8.488281-.578125 11.40625-.609375 2.300781-2.46875 6.457031-2.964844 6.613281-.136719.046875-.269531-.476563-.304688-1.1875-.1875-3.816407-2.121093-7.527344-5.367187-10.308594-3.6875-3.164063-8.648437-5.683594-20.773437-10.550781zm0 0"/><path d="m146.773438 126.785156c-.230469-1.355468-.625-3.082031-.878907-3.84375l-.464843-1.378906.863281.964844c1.191406 1.335937 2.136719 3.046875 2.9375 5.324218.609375 1.738282.675781 2.257813.671875 5.082032-.003906 2.773437-.082032 3.355468-.644532 4.917968-.886718 2.46875-1.992187 4.21875-3.839843 6.097657-3.328125 3.375-7.601563 5.242187-13.773438 6.015625-1.070312.136718-4.199219.363281-6.945312.503906-6.925781.359375-11.484375 1.101562-15.578125 2.539062-.589844.203126-1.117188.328126-1.167969.277344-.167969-.164062 2.621094-1.824218 4.925781-2.929687 3.246094-1.558594 6.480469-2.410157 13.722656-3.613281 3.578126-.59375 7.273438-1.316407 8.210938-1.601563 8.863281-2.710937 13.417969-9.703125 11.960938-18.355469zm0 0"/><path d="m155.117188 141.5625c-2.417969-5.183594-2.972657-10.191406-1.648438-14.859375.140625-.5.371094-.90625.507812-.90625.136719 0 .707032.308594 1.265626.683594 1.117187.746093 3.351562 2.007812 9.308593 5.246093 7.429688 4.039063 11.667969 7.167969 14.550781 10.742188 2.523438 3.132812 4.082032 6.699219 4.835938 11.046875.425781 2.460937.175781 8.386719-.457031 10.867187-2 7.820313-6.644531 13.960938-13.265625 17.546876-.972656.523437-1.84375.953124-1.9375.957031-.09375.003906.261718-.894531.785156-1.992188 2.230469-4.644531 2.484375-9.164062.796875-14.191406-1.03125-3.082031-3.132813-6.835937-7.378906-13.1875-4.9375-7.382813-6.148438-9.347656-7.363281-11.953125zm0 0"/><path d="m86.738281 169.539062c6.757813-5.6875 15.160157-9.730468 22.820313-10.96875 3.296875-.535156 8.796875-.324218 11.851562.457032 4.898438 1.25 9.277344 4.050781 11.558594 7.386718 2.226562 3.257813 3.179688 6.101563 4.175781 12.421876.394531 2.492187.820313 4.996093.949219 5.5625.746094 3.277343 2.199219 5.894531 4 7.210937 2.863281 2.089844 7.789062 2.21875 12.636719.332031.820312-.320312 1.535156-.542968 1.585937-.492187.175782.175781-2.265625 1.804687-3.984375 2.660156-2.316406 1.15625-4.160156 1.601563-6.609375 1.601563-4.4375 0-8.121094-2.25-11.199218-6.84375-.605469-.902344-1.964844-3.609376-3.019532-6.015626-3.25-7.382812-4.851562-9.632812-8.621094-12.09375-3.28125-2.144531-7.511718-2.527343-10.695312-.96875-4.179688 2.042969-5.347656 7.371094-2.351562 10.746094 1.1875 1.34375 3.410156 2.5 5.222656 2.726563 3.394531.421875 6.3125-2.15625 6.3125-5.574219 0-2.21875-.855469-3.484375-3.007813-4.453125-2.941406-1.324219-6.101562.222656-6.089843 2.976563.007812 1.175781.519531 1.914062 1.703124 2.445312.757813.34375.773438.371094.15625.242188-2.699218-.558594-3.332031-3.800782-1.160156-5.957032 2.605469-2.585937 7.992188-1.445312 9.84375 2.085938.773438 1.480468.867188 4.433594.1875 6.21875-1.515625 3.988281-5.9375 6.085937-10.421875 4.945312-3.054687-.777344-4.300781-1.621094-7.980469-5.402344-6.398437-6.570312-8.882812-7.84375-18.105468-9.28125l-1.769532-.273437zm0 0"/><path d="m56.71875 51.90625c21.367188 25.863281 36.082031 36.53125 37.71875 38.785156 1.351562 1.863282.839844 3.535156-1.472656 4.847656-1.285156.730469-3.929688 1.46875-5.253906 1.46875-1.5 0-2.011719-.578124-2.011719-.578124-.867188-.820313-1.359375-.675782-5.816407-8.570313-6.191406-9.582031-11.375-17.527344-11.515624-17.660156-.324219-.308594-.320313-.296875 10.882812 19.691406 1.8125 4.167969.359375 5.699219.359375 6.292969 0 1.207031-.328125 1.839844-1.824219 3.5-2.488281 2.769531-3.601562 5.882812-4.402344 12.324218-.902343 7.21875-3.433593 12.316407-10.453124 21.046876-4.109376 5.109374-4.78125 6.042968-5.816407 8.105468-1.304687 2.589844-1.664062 4.042969-1.808593 7.320313-.15625 3.460937.144531 5.699219 1.203124 9.007812.929688 2.898438 1.898438 4.8125 4.378907 8.636719 2.136719 3.304688 3.367187 5.761719 3.367187 6.71875 0 .765625.148438.765625 3.460938.019531 7.929687-1.785156 14.371094-4.925781 17.992187-8.777343 2.242188-2.382813 2.765625-3.695313 2.785157-6.960938.011718-2.136719-.066407-2.582031-.644532-3.8125-.941406-1.996094-2.65625-3.660156-6.4375-6.238281-4.953125-3.375-7.070312-6.09375-7.65625-9.835938-.476562-3.066406.078125-5.230469 2.820313-10.957031 2.835937-5.929688 3.539062-8.457031 4.015625-14.433594.304687-3.859375.730468-5.382812 1.84375-6.605468 1.160156-1.273438 2.203125-1.707032 5.074218-2.097657 4.683594-.636719 7.664063-1.84375 10.113282-4.09375 2.125-1.953125 3.011718-3.835937 3.148437-6.667969l.105469-2.148437-1.1875-1.382813c-4.300781-5-45.851562-40.875-46.113281-40.875-.058594 0 1.359375 1.769532 3.144531 3.929688zm9.949219 100.492188c.972656-1.71875.457031-3.925782-1.167969-5.007813-1.539062-1.015625-3.925781-.535156-3.925781.792969 0 .402344.226562.699218.730469.957031.855468.4375.914062.929687.246093 1.9375-.679687 1.019531-.625 1.914063.152344 2.523437 1.257813.980469 3.035156.4375 3.964844-1.203124zm0 0" fill-rule="evenodd"/><path d="m103.828125 104.273438c-2.195313.671874-4.332031 2.996093-4.992187 5.429687-.402344 1.484375-.175782 4.089844.429687 4.898437.976563 1.296876 1.917969 1.640626 4.476563 1.621094 5.003906-.035156 9.355468-2.171875 9.859374-4.847656.414063-2.195312-1.496093-5.234375-4.128906-6.570312-1.355468-.6875-4.246094-.960938-5.644531-.53125zm5.851563 4.558593c.773437-1.089843.433593-2.273437-.878907-3.074219-2.5-1.519531-6.277343-.261718-6.277343 2.09375 0 1.171876 1.96875 2.449219 3.777343 2.449219 1.203125 0 2.847657-.714843 3.378907-1.46875zm0 0" fill-rule="evenodd"/></g></svg>