<svg height="250" viewBox="0 0 250 250" width="250" xmlns="http://www.w3.org/2000/svg" xmlns:xlink="http://www.w3.org/1999/xlink"><linearGradient id="a" gradientTransform="matrix(.976562 0 0 -.976562 0 251.249999)" gradientUnits="userSpaceOnUse" x1="239.360001" x2="34.560001" y1="17.92" y2="222.720001"><stop offset=".159" stop-color="#003cda"/><stop offset="1" stop-color="#33dfcc"/></linearGradient><path d="m125 48.242188c42.382812 0 76.757812 34.375 76.757812 76.757812 0 20.410156-8.105468 39.941406-22.460937 54.296875-21.972656 21.972656-54.980469 28.515625-83.691406 16.601563-28.710938-11.914063-47.363281-39.84375-47.363281-70.996094 0-42.285156 34.375-76.660156 76.757812-76.660156zm0-48.242188c-69.042969 0-125 55.957031-125 125s55.957031 125 125 125 125-55.957031 125-125-55.957031-125-125-125zm0 0" fill="url(#a)"/><path d="m125 222.65625c53.90625 0 97.65625-43.75 97.65625-97.65625s-43.75-97.65625-97.65625-97.65625-97.65625 43.75-97.65625 97.65625 43.75 97.65625 97.65625 97.65625zm0 0" fill="#fff"/><path d="m203.125 125c0 43.148438-34.976562 78.125-78.125 78.125s-78.125-34.976562-78.125-78.125 34.976562-78.125 78.125-78.125 78.125 34.976562 78.125 78.125zm0 0" fill="#26a17b"/><path d="m133.59375 131.640625c-.585938 0-3.417969.195313-9.667969.195313-4.980469 0-8.59375-.097657-9.765625-.195313-19.335937-.878906-33.691406-4.101563-33.691406-8.105469s14.453125-7.324218 33.691406-8.105468v12.890624c1.269532.097657 4.882813.292969 9.863282.292969 5.957031 0 8.984374-.292969 9.570312-.292969v-12.890624c19.238281.878906 33.691406 4.199218 33.691406 8.105468s-14.355468 7.226563-33.691406 8.105469zm0-17.578125v-11.621094h26.855469v-17.578125h-73.242188v17.675781h26.855469v11.621094c-21.875.976563-38.28125 5.273438-38.28125 10.351563s16.40625 9.375 38.28125 10.351562v37.109375h19.433594v-37.109375c21.875-.976562 38.28125-5.273437 38.28125-10.351562.097656-5.175781-16.308594-9.472657-38.183594-10.449219" fill="#fff"/></svg>