
<svg xmlns="http://www.w3.org/2000/svg" xmlns:xlink="http://www.w3.org/1999/xlink" width="250px" height="250px" viewBox="0 0 250 250" version="1.1">
<defs>
<linearGradient id="linear0" gradientUnits="userSpaceOnUse" x1="239.360001" y1="239.360001" x2="34.560001" y2="34.560001" gradientTransform="matrix(0.976562,0,0,0.976562,0,0)">
<stop offset="0.159375" style="stop-color:rgb(0%,23.529412%,85.490197%);stop-opacity:1;"/>
<stop offset="1" style="stop-color:rgb(20%,87.450981%,80.000001%);stop-opacity:1;"/>
</linearGradient>
</defs>
<g id="surface1">
<path style=" stroke:none;fill-rule:nonzero;fill:url(#linear0);" d="M 125 48.203125 C 140.1875 48.203125 155.039062 52.707031 167.664062 61.144531 C 180.296875 69.585938 190.140625 81.578125 195.953125 95.609375 C 201.765625 109.644531 203.285156 125.085938 200.320312 139.984375 C 197.359375 154.878906 190.042969 168.5625 179.304688 179.304688 C 168.5625 190.042969 154.878906 197.359375 139.984375 200.320312 C 125.085938 203.285156 109.644531 201.765625 95.609375 195.953125 C 81.578125 190.140625 69.585938 180.296875 61.144531 167.664062 C 52.707031 155.039062 48.203125 140.1875 48.203125 125 C 48.230469 104.640625 56.328125 85.121094 70.726562 70.726562 C 85.121094 56.328125 104.640625 48.230469 125 48.203125 Z M 125 0 C 100.277344 0 76.109375 7.332031 55.554688 21.066406 C 34.996094 34.800781 18.976562 54.324219 9.515625 77.164062 C 0.0546875 100.003906 -2.421875 125.140625 2.402344 149.386719 C 7.226562 173.632812 19.128906 195.90625 36.613281 213.390625 C 54.09375 230.871094 76.367188 242.773438 100.613281 247.597656 C 124.859375 252.421875 149.996094 249.945312 172.835938 240.484375 C 195.675781 231.023438 215.199219 215 228.933594 194.445312 C 242.667969 173.890625 250 149.722656 250 125 C 250 91.847656 236.828125 60.054688 213.390625 36.613281 C 189.945312 13.167969 158.152344 0 125 0 Z M 125 0 "/>
<path style=" stroke:none;fill-rule:nonzero;fill:rgb(100%,100%,100%);fill-opacity:1;" d="M 125 223.632812 C 178.933594 223.632812 222.65625 179.910156 222.65625 125.976562 C 222.65625 72.042969 178.933594 28.320312 125 28.320312 C 71.066406 28.320312 27.34375 72.042969 27.34375 125.976562 C 27.34375 179.910156 71.066406 223.632812 125 223.632812 Z M 125 223.632812 "/>
<path style=" stroke:none;fill-rule:nonzero;fill:rgb(78.431374%,78.431374%,78.431374%);fill-opacity:1;" d="M 180.03125 181.59375 C 172.761719 188.878906 164.101562 194.625 154.566406 198.492188 C 145.03125 202.355469 134.816406 204.257812 124.53125 204.085938 C 114.304688 204.285156 104.148438 202.390625 94.675781 198.523438 C 85.207031 194.65625 76.621094 188.898438 69.449219 181.59375 C 62.113281 174.4375 56.324219 165.847656 52.441406 156.355469 C 48.5625 146.863281 46.671875 136.675781 46.890625 126.421875 C 46.890625 103.964844 54.410156 85.257812 69.449219 70.300781 C 76.628906 63.011719 85.210938 57.261719 94.683594 53.402344 C 104.152344 49.546875 114.308594 47.660156 124.53125 47.867188 C 134.8125 47.6875 145.023438 49.582031 154.558594 53.4375 C 164.09375 57.292969 172.757812 63.027344 180.03125 70.300781 C 195.417969 85.257812 203.109375 103.964844 203.109375 126.421875 C 203.3125 136.71875 201.359375 146.945312 197.386719 156.445312 C 193.414062 165.945312 187.5 174.511719 180.03125 181.59375 Z M 180.03125 181.59375 "/>
<path style=" stroke:none;fill-rule:nonzero;fill:rgb(54.509807%,54.509807%,54.509807%);fill-opacity:1;" d="M 125 72.40625 L 93.75 125.65625 L 125 111.0625 Z M 125 72.40625 "/>
<path style=" stroke:none;fill-rule:nonzero;fill:rgb(22.352941%,22.352941%,22.352941%);fill-opacity:1;" d="M 125 111.0625 L 93.75 125.65625 L 125 144.617188 Z M 125 111.0625 "/>
<path style=" stroke:none;fill-rule:nonzero;fill:rgb(20.392157%,20.392157%,20.392157%);fill-opacity:1;" d="M 125 72.40625 L 125 111.0625 L 156.21875 125.65625 Z M 125 72.40625 "/>
<path style=" stroke:none;fill-rule:nonzero;fill:rgb(8.627451%,8.627451%,8.627451%);fill-opacity:1;" d="M 125 111.0625 L 125 144.617188 L 156.21875 125.65625 Z M 125 111.0625 "/>
<path style=" stroke:none;fill-rule:nonzero;fill:rgb(54.509807%,54.509807%,54.509807%);fill-opacity:1;" d="M 93.75 131.734375 L 125 176.96875 L 125 150.710938 Z M 93.75 131.734375 "/>
<path style=" stroke:none;fill-rule:nonzero;fill:rgb(20.392157%,20.392157%,20.392157%);fill-opacity:1;" d="M 156.25 131.734375 L 125 150.710938 L 125 176.96875 Z M 156.25 131.734375 "/>
</g>
</svg>
