<svg height="250" viewBox="0 0 250 250" width="250" xmlns="http://www.w3.org/2000/svg" xmlns:xlink="http://www.w3.org/1999/xlink"><linearGradient id="a" gradientUnits="userSpaceOnUse" x1="233.74988129656" x2="33.74998369656" y1="233.74988129656" y2="33.74998369656"><stop offset=".159375" stop-color="#003cda"/><stop offset="1" stop-color="#33dfcc"/></linearGradient><path d="m125 48.203125c15.1875 0 30.039062 4.503906 42.664062 12.941406 12.632813 8.441407 22.476563 20.433594 28.289063 34.464844 5.8125 14.035156 7.332031 29.476563 4.367187 44.375-2.960937 14.894531-10.277343 28.578125-21.015624 39.320313-10.742188 10.738281-24.425782 18.054687-39.320313 21.015624-14.898437 2.964844-30.339844 1.445313-44.375-4.367187-14.03125-5.8125-26.023437-15.65625-34.464844-28.289063-8.4375-12.625-12.941406-27.476562-12.941406-42.664062.027344-20.359375 8.125-39.878906 22.523437-54.273438 14.394532-14.398437 33.914063-22.496093 54.273438-22.523437zm0-48.203125c-24.722656 0-48.890625 7.332031-69.445312 21.066406-20.558594 13.734375-36.578126 33.257813-46.039063 56.097656-9.4609375 22.839844-11.9375 47.976563-7.113281 72.222657 4.824218 24.246093 16.726562 46.519531 34.210937 64.003906 17.480469 17.480469 39.753907 29.382813 64 34.207031 24.246094 4.824219 49.382813 2.347656 72.222657-7.113281 22.839843-9.460937 42.363281-25.484375 56.097656-46.039063 13.734375-20.554687 21.066406-44.722656 21.066406-69.445312 0-33.152344-13.171875-64.945312-36.609375-88.386719-23.445313-23.445312-55.238281-36.613281-88.390625-36.613281zm0 0" fill="url(#a)"/><path d="m125 223.632812c53.933594 0 97.65625-43.722656 97.65625-97.65625 0-53.933593-43.722656-97.65625-97.65625-97.65625s-97.65625 43.722657-97.65625 97.65625c0 53.933594 43.722656 97.65625 97.65625 97.65625zm0 0" fill="#fff"/><path d="m180 181.644531c-7.28125 7.28125-15.945312 13.019531-25.484375 16.875-9.535156 3.855469-19.75 5.746094-30.03125 5.566407-10.21875.203124-20.371094-1.6875-29.835937-5.546876-9.46875-3.863281-18.046876-9.617187-25.21875-16.914062-7.339844-7.15625-13.128907-15.753906-17.003907-25.25-3.878906-9.5-5.761719-19.695312-5.53125-29.953125 0-22.449219 7.523438-41.152344 22.574219-56.113281 7.175781-7.292969 15.757812-13.046875 25.226562-16.90625 9.46875-3.855469 19.625-5.742188 29.84375-5.535156 10.28125-.175782 20.492188 1.722656 30.027344 5.582031s18.195313 9.597656 25.472656 16.878906c15.382813 14.972656 23.070313 33.683594 23.070313 56.128906.195313 10.304688-1.757813 20.535157-5.738281 30.039063-3.980469 9.503906-9.898438 18.070312-17.371094 25.148437zm0 0" fill="#2a5ada"/><path d="m125 77.695312 42.410156 24.738282v49.316406l-42.410156 24.742188-42.410156-24.742188v-49.316406zm-24.554688 34.992188v28.808594l24.554688 14.324218 24.554688-14.324218v-28.808594l-24.554688-14.320312zm0 0" fill="#fff" fill-rule="evenodd"/></svg>