<svg height="250" viewBox="0 0 250 250" width="250" xmlns="http://www.w3.org/2000/svg"><path d="m249.800781 125.238281c.109375-68.902343-55.675781-124.867187-124.601562-125-68.929688-.132812-124.894531 55.617188-125 124.519531-.1093752 68.90625 55.675781 124.871094 124.601562 125 68.929688.132813 124.894531-55.613281 125-124.519531zm0 0" fill="#3574b9"/><g fill="#fff"><path d="m104.78125 202.925781c0 2.8125-1.832031 3.800781-4.585938 3.800781-16.660156-5.515624-31.203124-16.433593-41.511718-31.164062-10.3125-14.730469-15.855469-32.511719-15.828125-50.753906.03125-18.246094 5.632812-36.003906 15.992187-50.699219s24.941406-25.558594 41.617188-31.011719c2.699218-.929687 4.585937.957032 4.558594 3.828125v6.785157c.023437.976562-.21875 1.9375-.695313 2.78125-.476563.839843-1.171875 1.523437-2 1.976562-13.121094 4.929688-24.464844 13.957031-32.496094 25.855469-8.03125 11.898437-12.355469 26.089843-12.382812 40.640625-.03125 14.554687 4.234375 28.765625 12.21875 40.699218 7.980469 11.933594 19.289062 21.011719 32.390625 26 .832031.449219 1.527344 1.132813 2.003906 1.972657.476562.84375.714844 1.804687.691406 2.785156zm0 0"/><path d="m132.1875 179.273438c-.03125 1.011718-.421875 1.976562-1.09375 2.703124-.675781.730469-1.582031 1.171876-2.550781 1.238282h-7.308594c-.949219-.066406-1.84375-.492188-2.511719-1.195313-.671875-.703125-1.070312-1.640625-1.128906-2.632812v-11.261719c-14.617188-1.941406-21.902344-10.5-24.625-22.886719 0-1.886719.941406-3.800781 2.695312-3.800781h8.226563c1.808594 0 2.699219.957031 3.644531 2.8125 1.804688 6.675781 5.390625 12.390625 17.316406 12.417969 9.113282 0 15.507813-4.730469 15.535157-12.332031.027343-7.601563-3.640625-10.472657-16.398438-12.414063-19.179687-2.816406-28.296875-8.617187-28.269531-24.777344 0-12.359375 9.171875-21.875 21.957031-23.730469v-11.65625c.058594-.988281.457031-1.921874 1.128907-2.621093.671874-.703125 1.566406-1.121094 2.511718-1.179688h7.308594c.949219.058594 1.839844.476563 2.511719 1.179688.671875.699219 1.074219 1.632812 1.128906 2.621093v11.429688c10.953125 1.914062 18.234375 8.585938 20.042969 19.058594 0 1.886718-.917969 3.800781-2.699219 3.800781h-7.253906c-1.835938 0-2.699219-.957031-3.640625-2.816406-1.808594-6.671875-6.367188-9.542969-14.59375-9.542969-9.117188 0-13.703125 4.730469-13.703125 11.261719s2.699219 10.472656 16.402343 12.417969c19.148438 2.8125 28.265626 8.613281 28.238282 24.773437 0 12.359375-9.144532 22.804687-22.84375 25.648437zm0 0"/><path d="m144.917969 203.09375c0 2.84375 1.859375 4.757812 4.558593 3.800781 16.675782-5.464843 31.253907-16.328125 41.621094-31.015625 10.367188-14.691406 15.988282-32.441406 16.046875-50.6875.050781-38.035156-24.519531-70.441406-57.34375-81.925781-2.753906 0-4.585937.984375-4.585937 3.800781v6.671875c-.023438.976563.21875 1.941407.695312 2.78125.476563.839844 1.171875 1.523438 2 1.976563 13.097656 4.988281 24.40625 14.070312 32.386719 26.003906 7.980469 11.9375 12.242187 26.148438 12.210937 40.703125s-4.359374 28.742187-12.390624 40.640625c-8.035157 11.894531-19.382813 20.921875-32.503907 25.847656-.828125.445313-1.523437 1.121094-2 1.960938-.476562.835937-.71875 1.792968-.695312 2.769531zm0 0"/></g></svg>