<svg height="250" viewBox="0 0 250 250" width="250" xmlns="http://www.w3.org/2000/svg"><path d="m0 125c0-69.035156 55.964844-125 125-125s125 55.964844 125 125-55.964844 125-125 125-125-55.964844-125-125zm0 0" fill="#5b88ff"/><g fill="#fff"><path d="m72.703125 11.429688c7.9375-3.660157 16.328125-6.511719 25.058594-8.453126v52.265626h-25.058594zm0 0"/><path d="m2.808594 98.507812c1.890625-8.753906 4.695312-17.167968 8.3125-25.132812h128.699218c18.792969 0 34.003907 15.257812 34.003907 34.109375v33.210937c0 18.851563-15.210938 34.109376-34.003907 34.109376h-33.109374c-18.792969 0-34.007813-15.257813-34.007813-34.109376v-24.234374h25.058594v24.054687c0 5.027344 3.9375 8.976563 8.949219 8.976563h33.109374c5.011719 0 8.949219-3.949219 8.949219-8.976563v-33.03125c0-5.027344-3.9375-8.976563-8.949219-8.976563zm0 0"/></g></svg>