
<svg xmlns="http://www.w3.org/2000/svg" xmlns:xlink="http://www.w3.org/1999/xlink" width="250px" height="250px" viewBox="0 0 250 250" version="1.1">
<defs>
<linearGradient id="linear0" gradientUnits="userSpaceOnUse" x1="239.360001" y1="239.360001" x2="34.560001" y2="34.560001" gradientTransform="matrix(0.976562,0,0,0.976562,0,0)">
<stop offset="0.159375" style="stop-color:rgb(0%,23.529412%,85.490197%);stop-opacity:1;"/>
<stop offset="1" style="stop-color:rgb(20%,87.450981%,80.000001%);stop-opacity:1;"/>
</linearGradient>
</defs>
<g id="surface1">
<path style=" stroke:none;fill-rule:nonzero;fill:url(#linear0);" d="M 125 48.203125 C 140.1875 48.203125 155.039062 52.707031 167.664062 61.144531 C 180.296875 69.585938 190.140625 81.578125 195.953125 95.609375 C 201.765625 109.644531 203.285156 125.085938 200.320312 139.984375 C 197.359375 154.878906 190.042969 168.5625 179.304688 179.304688 C 168.5625 190.042969 154.878906 197.359375 139.984375 200.320312 C 125.085938 203.285156 109.644531 201.765625 95.609375 195.953125 C 81.578125 190.140625 69.585938 180.296875 61.144531 167.664062 C 52.707031 155.039062 48.203125 140.1875 48.203125 125 C 48.230469 104.640625 56.328125 85.121094 70.726562 70.726562 C 85.121094 56.328125 104.640625 48.230469 125 48.203125 Z M 125 0 C 100.277344 0 76.109375 7.332031 55.554688 21.066406 C 34.996094 34.800781 18.976562 54.324219 9.515625 77.164062 C 0.0546875 100.003906 -2.421875 125.140625 2.402344 149.386719 C 7.226562 173.632812 19.128906 195.90625 36.613281 213.390625 C 54.09375 230.871094 76.367188 242.773438 100.613281 247.597656 C 124.859375 252.421875 149.996094 249.945312 172.835938 240.484375 C 195.675781 231.023438 215.199219 215 228.933594 194.445312 C 242.667969 173.890625 250 149.722656 250 125 C 250 91.847656 236.828125 60.054688 213.390625 36.613281 C 189.945312 13.167969 158.152344 0 125 0 Z M 125 0 "/>
<path style=" stroke:none;fill-rule:nonzero;fill:rgb(100%,100%,100%);fill-opacity:1;" d="M 125 223.632812 C 178.933594 223.632812 222.65625 179.910156 222.65625 125.976562 C 222.65625 72.042969 178.933594 28.320312 125 28.320312 C 71.066406 28.320312 27.34375 72.042969 27.34375 125.976562 C 27.34375 179.910156 71.066406 223.632812 125 223.632812 Z M 125 223.632812 "/>
<path style=" stroke:none;fill-rule:nonzero;fill:rgb(16.470589%,35.294119%,85.490197%);fill-opacity:1;" d="M 180 181.644531 C 172.71875 188.925781 164.054688 194.664062 154.515625 198.519531 C 144.980469 202.375 134.765625 204.265625 124.484375 204.085938 C 114.265625 204.289062 104.113281 202.398438 94.648438 198.539062 C 85.179688 194.675781 76.601562 188.921875 69.429688 181.625 C 62.089844 174.46875 56.300781 165.871094 52.425781 156.375 C 48.546875 146.875 46.664062 136.679688 46.894531 126.421875 C 46.894531 103.972656 54.417969 85.269531 69.46875 70.308594 C 76.644531 63.015625 85.226562 57.261719 94.695312 53.402344 C 104.164062 49.546875 114.320312 47.660156 124.539062 47.867188 C 134.820312 47.691406 145.03125 49.589844 154.566406 53.449219 C 164.101562 57.308594 172.761719 63.046875 180.039062 70.328125 C 195.421875 85.300781 203.109375 104.011719 203.109375 126.457031 C 203.304688 136.761719 201.351562 146.992188 197.371094 156.496094 C 193.390625 166 187.472656 174.566406 180 181.644531 Z M 180 181.644531 "/>
<path style=" stroke:none;fill-rule:evenodd;fill:rgb(100%,100%,100%);fill-opacity:1;" d="M 125 77.695312 L 167.410156 102.433594 L 167.410156 151.75 L 125 176.492188 L 82.589844 151.75 L 82.589844 102.433594 Z M 100.445312 112.6875 L 100.445312 141.496094 L 125 155.820312 L 149.554688 141.496094 L 149.554688 112.6875 L 125 98.367188 Z M 100.445312 112.6875 "/>
</g>
</svg>
