<svg xmlns="http://www.w3.org/2000/svg" viewBox="0 0 32 32" xml:space="preserve"><linearGradient id="prefix__a" x1="29.92" x2="4.32" y1="1187.57" y2="1161.97" gradientTransform="translate(0 -1157.65)" gradientUnits="userSpaceOnUse"><stop offset="0" stop-color="#22a0f6"/><stop offset="1" stop-color="#d453be"/></linearGradient><path fill="url(#prefix__a)" d="M0 16C0 7.2 7.2 0 16 0s16 7.2 16 16-7.2 16-16 16S0 24.8 0 16z"/><path fill="#FFF" d="M23.5 6.1c-3.2-2.3-6.7-3.4-9.1-3-.9.1-1.7.6-2.2 1.3l-3.9 5.7c-1.1 1.9.1 5 3.3 8 .3.3.6.6.9.8.4.3 1 .8 1.5 1.2 2.9 2 5.9 3.1 8.1 3.1 1.4 0 2.6-.4 3.2-1.4l3.9-5.8c1.6-2.3-.9-6.8-5.7-9.9z"/><linearGradient id="prefix__b" x1="27.899" x2="31.053" y1="-159.268" y2="-170.098" gradientTransform="matrix(1 0 0 -1 -12 -156)" gradientUnits="userSpaceOnUse"><stop offset="0" stop-color="#03b8ff"/><stop offset="1" stop-color="#fa52a0"/></linearGradient><path fill="url(#prefix__b)" d="m12.8 4.8 15.9 10.9-3.9 5.8-16-11 4-5.7z"/><linearGradient id="prefix__c" x1="30.488" x2="33.641" y1="-158.517" y2="-169.347" gradientTransform="matrix(1 0 0 -1 -12 -156)" gradientUnits="userSpaceOnUse"><stop offset="0" stop-color="#03b8ff"/><stop offset="1" stop-color="#fa52a0"/></linearGradient><path fill="url(#prefix__c)" d="M28.7 15.7c-1.4 2-6 1.2-10.3-1.9-4.4-3-6.8-7-5.5-9 1.3-2 6-1.2 10.3 1.9 4.4 2.9 6.8 7 5.5 9z"/><linearGradient id="prefix__d" x1="25.347" x2="28.501" y1="-160.014" y2="-170.845" gradientTransform="matrix(1 0 0 -1 -12 -156)" gradientUnits="userSpaceOnUse"><stop offset="0" stop-color="#03b8ff"/><stop offset="1" stop-color="#fa52a0"/></linearGradient><path fill="url(#prefix__d)" d="M24.8 21.4c-1.4 2-6 1.2-10.3-1.9s-6.8-7-5.5-9.1c1.4-2 6-1.2 10.3 1.9s6.7 7.1 5.5 9.1z"/><path fill="#0E0F23" d="m28.7 15.7-3.9 5.8c-1.4 2-6 1.1-10.3-1.9-.8-.6-1.6-1.2-2.3-1.9.6-.1 1.3-.4 2-1.3 1.4-1.5 2.1-1.8 2.7-1.7.6 0 1.3.6 2.4 2.1s2.7 1.9 3.6 1.1c.1-.1.2-.1.3-.2.8-.6 1-.9 2.5-3.6.6-1.1 1.9-1.7 3.2-1.3.2 1.2.2 2.1-.2 2.9z"/><path fill="#FFF" fill-rule="evenodd" d="M28.1 15.3c-1.2 1.7-5.4.9-9.4-2-4.1-2.8-6.5-6.4-5.3-8.1s5.4-.9 9.4 2 6.4 6.4 5.3 8.1zm-3.8-2.5c-.6.9-2.6.4-4.7-.9-2-1.4-3.2-3.2-2.6-4 .6-.8 2.6-.4 4.7.9 2 1.3 3.2 3.1 2.6 4z" clip-rule="evenodd"/><path fill="#FFF" d="M12.4 6.8c0-.1-.1-.2-.2-.1s-.2.1-.2.2c.1.2.1.4.2.6 0 .1.1.2.2.1.1 0 .2-.1.1-.2 0-.2 0-.4-.1-.6zM12.9 8.1c0-.1-.1-.2-.2-.1s-.1.1-.1.2c.9 2.1 2.9 4.4 5.5 6.2.1.1.2 0 .3 0 .1-.1 0-.2 0-.3-2.7-1.7-4.6-3.9-5.5-6zM23.2 16.5c-.1 0-.2 0-.2.1s0 .2.1.2l.9.3c.1 0 .2 0 .2-.1s0-.2-.1-.2l-.9-.3zM24.8 16.9c-.1 0-.2.1-.2.2s.1.2.2.2c.7.1 1.4.1 2.1.1.1 0 .2-.1.2-.2s-.1-.2-.2-.2c-.8 0-1.5 0-2.1-.1z"/><path fill="#FFF" d="M12.5 12.6c-4.7 0-8.5 3.8-8.5 8.5s3.8 8.5 8.5 8.5 8.5-3.8 8.5-8.5-3.8-8.5-8.5-8.5z"/><linearGradient id="prefix__e" x1="19.246" x2="6.791" y1="1185.547" y2="1173.092" gradientTransform="translate(0 -1157.65)" gradientUnits="userSpaceOnUse"><stop offset=".16" stop-color="#003cda"/><stop offset="1" stop-color="#33dfcc"/></linearGradient><path fill="url(#prefix__e)" d="M4.7 21.1c0-4.3 3.5-7.8 7.8-7.8s7.8 3.5 7.8 7.8-3.5 7.8-7.8 7.8-7.8-3.5-7.8-7.8z"/><path fill="#FFF" d="M9.2 14.1c.5-.2 1-.4 1.6-.5v3.3H9.2v-2.8zM4.9 19.5c.1-.5.3-1.1.5-1.6h8c1.2 0 2.1 1 2.1 2.1v2.1c0 1.2-1 2.1-2.1 2.1h-2.1c-1.2 0-2.1-1-2.1-2.1v-1.5h1.6v1.5c0 .3.2.6.5.6h2.1c.3 0 .6-.2.6-.5V20c0-.3-.2-.6-.5-.6H4.9z"/></svg>