
<svg xmlns="http://www.w3.org/2000/svg" xmlns:xlink="http://www.w3.org/1999/xlink" width="250px" height="250px" viewBox="0 0 250 250" version="1.1">
<defs>
<linearGradient id="linear0" gradientUnits="userSpaceOnUse" x1="239.360001" y1="17.92" x2="34.560001" y2="222.720001" gradientTransform="matrix(0.976562,0,0,-0.976562,0,251.249999)">
<stop offset="0.1594" style="stop-color:rgb(0%,23.529412%,85.490197%);stop-opacity:1;"/>
<stop offset="1" style="stop-color:rgb(20%,87.450981%,80.000001%);stop-opacity:1;"/>
</linearGradient>
<clipPath id="clip1">
  <path d="M 46.875 46.875 L 203.125 46.875 L 203.125 203.125 L 46.875 203.125 Z M 46.875 46.875 "/>
</clipPath>
</defs>
<g id="surface1">
<path style=" stroke:none;fill-rule:nonzero;fill:url(#linear0);" d="M 125 48.242188 C 140.234375 48.242188 155.078125 52.734375 167.675781 61.230469 C 180.273438 69.628906 190.136719 81.640625 195.996094 95.703125 C 201.855469 109.765625 203.320312 125.195312 200.390625 140.039062 C 197.460938 154.980469 190.136719 168.652344 179.394531 179.394531 C 168.652344 190.136719 154.980469 197.460938 140.039062 200.390625 C 125.097656 203.320312 109.667969 201.855469 95.703125 195.996094 C 81.640625 190.136719 69.628906 180.371094 61.230469 167.675781 C 52.734375 155.078125 48.242188 140.234375 48.242188 125 C 48.242188 104.6875 56.347656 85.15625 70.800781 70.703125 C 85.15625 56.347656 104.6875 48.242188 125 48.242188 Z M 125 0 C 100.292969 0 76.074219 7.324219 55.566406 21.09375 C 34.960938 34.765625 18.945312 54.296875 9.472656 77.148438 C 0 100 -2.441406 125.097656 2.34375 149.414062 C 7.128906 173.632812 19.042969 195.898438 36.523438 213.378906 C 54.003906 230.859375 76.269531 242.773438 100.488281 247.558594 C 124.707031 252.34375 149.902344 249.902344 172.753906 240.429688 C 195.605469 230.957031 215.136719 214.941406 228.808594 194.433594 C 242.578125 173.828125 249.902344 149.707031 249.902344 125 C 249.902344 91.894531 236.71875 60.058594 213.28125 36.621094 C 189.941406 13.183594 158.105469 0 125 0 Z M 125 0 "/>
<path style=" stroke:none;fill-rule:nonzero;fill:rgb(100%,100%,100%);fill-opacity:1;" d="M 125 222.65625 C 178.90625 222.65625 222.65625 178.90625 222.65625 125 C 222.65625 71.09375 178.90625 27.34375 125 27.34375 C 71.09375 27.34375 27.34375 71.09375 27.34375 125 C 27.34375 178.90625 71.09375 222.65625 125 222.65625 Z M 125 222.65625 "/>
<g clip-path="url(#clip1)" clip-rule="nonzero">
<path style=" stroke:none;fill-rule:nonzero;fill:rgb(96.862745%,57.647061%,10.196079%);fill-opacity:1;" d="M 200.78125 143.945312 C 190.332031 185.839844 147.949219 211.230469 106.054688 200.878906 C 64.257812 190.429688 38.769531 148.046875 49.21875 106.152344 C 59.667969 64.257812 102.050781 38.867188 143.847656 49.21875 C 185.742188 59.667969 211.230469 102.050781 200.78125 143.945312 Z M 200.78125 143.945312 "/>
</g>
<path style=" stroke:none;fill-rule:nonzero;fill:rgb(100%,100%,100%);fill-opacity:1;" d="M 159.472656 113.867188 C 161.035156 103.515625 153.125 97.851562 142.285156 94.140625 L 145.800781 80.078125 L 137.207031 77.929688 L 133.789062 91.601562 C 131.542969 91.015625 129.199219 90.527344 126.953125 89.941406 L 130.371094 76.171875 L 121.777344 74.023438 L 118.261719 88.085938 C 116.40625 87.695312 114.550781 87.207031 112.792969 86.816406 L 100.976562 83.886719 L 98.730469 93.066406 C 98.730469 93.066406 105.078125 94.53125 104.980469 94.628906 C 108.496094 95.507812 109.082031 97.753906 108.984375 99.609375 L 104.980469 115.625 C 105.175781 115.722656 105.566406 115.820312 105.859375 115.917969 C 105.566406 115.820312 105.273438 115.722656 104.980469 115.722656 L 99.414062 138.183594 C 99.023438 139.257812 97.949219 140.820312 95.507812 140.234375 C 95.605469 140.332031 89.257812 138.671875 89.257812 138.671875 L 84.960938 148.4375 L 96.09375 151.171875 C 98.144531 151.660156 100.195312 152.246094 102.246094 152.734375 L 98.730469 166.992188 L 107.324219 169.140625 L 110.839844 155.078125 C 113.183594 155.664062 115.429688 156.25 117.675781 156.835938 L 114.160156 170.898438 L 122.753906 173.046875 L 126.269531 158.789062 C 140.917969 161.523438 151.855469 160.449219 156.542969 147.265625 C 160.253906 136.621094 156.347656 130.46875 148.632812 126.464844 C 154.101562 125.195312 158.300781 121.484375 159.472656 113.867188 Z M 139.84375 141.308594 C 137.207031 151.953125 119.238281 146.191406 113.476562 144.726562 L 118.164062 125.878906 C 124.023438 127.34375 142.675781 130.273438 139.84375 141.308594 Z M 142.480469 113.671875 C 140.039062 123.339844 125.097656 118.457031 120.3125 117.1875 L 124.609375 100.097656 C 129.492188 101.367188 145.019531 103.613281 142.480469 113.671875 Z M 142.480469 113.671875 "/>
</g>
</svg>
