<svg height="250" viewBox="0 0 250 250" width="250" xmlns="http://www.w3.org/2000/svg" xmlns:xlink="http://www.w3.org/1999/xlink"><linearGradient id="a" gradientUnits="userSpaceOnUse" x1="233.75001733571" x2="33.75000405" y1="233.75001733571" y2="33.75000405"><stop offset=".159375" stop-color="#003cda"/><stop offset="1" stop-color="#33dfcc"/></linearGradient><path d="m0 125c0-69.035156 55.964844-125 125-125s125 55.964844 125 125-55.964844 125-125 125-125-55.964844-125-125zm0 0" fill="url(#a)"/><g fill="#fff"><path d="m72.707031 11.429688c7.9375-3.660157 16.324219-6.511719 25.054688-8.453126v52.265626h-25.054688zm0 0"/><path d="m2.8125 98.507812c1.890625-8.753906 4.695312-17.167968 8.3125-25.132812h128.699219c18.792969 0 34.003906 15.257812 34.003906 34.109375v33.210937c0 18.851563-15.210937 34.109376-34.003906 34.109376h-33.113281c-18.792969 0-34.003907-15.257813-34.003907-34.109376v-24.234374h25.054688v24.054687c0 5.027344 3.9375 8.976563 8.949219 8.976563h33.113281c5.007812 0 8.945312-3.949219 8.945312-8.976563v-33.03125c0-5.027344-3.9375-8.976563-8.945312-8.976563zm0 0"/></g></svg>