
<svg xmlns="http://www.w3.org/2000/svg" xmlns:xlink="http://www.w3.org/1999/xlink" width="250px" height="250px" viewBox="0 0 250 250" version="1.1">
<g id="surface1">
<path style=" stroke:none;fill-rule:nonzero;fill:rgb(10.588235%,73.725492%,60.392159%);fill-opacity:1;" d="M 125 0 C 194.035156 0 250 55.964844 250 125 C 250 194.035156 194.035156 250 125 250 C 55.964844 250 0 194.035156 0 125 C 0 55.964844 55.964844 0 125 0 Z M 125 0 "/>
<path style=" stroke:none;fill-rule:nonzero;fill:rgb(100%,100%,100%);fill-opacity:1;" d="M 60.789062 80.160156 C 61.816406 79.644531 63.050781 79.753906 63.972656 80.441406 L 117.117188 120.359375 C 117.878906 120.933594 118.335938 121.832031 118.34375 122.789062 L 118.34375 168.4375 C 118.339844 170.117188 116.980469 171.476562 115.300781 171.480469 C 113.621094 171.476562 112.261719 170.117188 112.257812 168.4375 L 112.257812 124.324219 L 65.195312 88.957031 L 65.195312 168.441406 C 65.191406 170.121094 63.832031 171.480469 62.152344 171.484375 C 61.347656 171.492188 60.574219 171.175781 60 170.609375 C 59.429688 170.042969 59.109375 169.269531 59.109375 168.464844 L 59.109375 82.871094 C 59.109375 81.722656 59.757812 80.671875 60.789062 80.160156 Z M 60.789062 80.160156 "/>
<path style=" stroke:none;fill-rule:nonzero;fill:rgb(100%,100%,100%);fill-opacity:1;" d="M 190.25 80.160156 C 191.277344 80.675781 191.925781 81.722656 191.925781 82.871094 L 191.925781 168.460938 C 191.867188 170.097656 190.523438 171.394531 188.882812 171.394531 C 187.246094 171.394531 185.902344 170.097656 185.84375 168.460938 L 185.84375 88.953125 L 138.800781 124.324219 L 138.800781 168.464844 C 138.742188 170.101562 137.398438 171.398438 135.757812 171.398438 C 134.121094 171.398438 132.777344 170.101562 132.71875 168.464844 L 132.71875 122.8125 C 132.714844 121.851562 133.167969 120.949219 133.945312 120.382812 L 187.042969 80.441406 C 187.972656 79.753906 189.214844 79.644531 190.25 80.160156 Z M 190.25 80.160156 "/>
</g>
</svg>
