<svg height="250" viewBox="0 0 250 250" width="250" xmlns="http://www.w3.org/2000/svg"><path d="m0 125c0-69.035156 55.964844-125 125-125s125 55.964844 125 125-55.964844 125-125 125-125-55.964844-125-125zm0 0" fill="#006ae3"/><g fill="#fff"><path d="m119.835938 177.699219v-104h11.324218v104zm0 0"/><path d="m177.480469 108.351562-34.972657 9.273438-7.796874-36.300781 10.398437-2.347657 4.097656 17.199219s9.449219-15.5-3.148437-31.550781c-7.425782-8.25-10.949219-8.597656-19.273438-9.898438-7.324218-1.050781-24.347656 1.425782-29.421875 21.300782-2.148437 12.796875.273438 22.273437 16.773438 34.671875l-.925781 13.800781s-18.421876-12.972656-23.171876-22.074219c-3.675781-7.199219-9.972656-21.425781 1.398438-41.226562 6.125-9.898438 18.199219-19.398438 39.472656-18.398438 10.699219.449219 36.820313 13.523438 32.773438 44.074219-.703125 5.726562-3.675782 13.351562-3.675782 13.351562l14.347657-3.199218zm0 0"/><path d="m157.507812 189.726562c-6.398437 9.722657-18.722656 18.898438-39.945312 17.347657-10.699219-.722657-36.445312-14.5-31.597656-44.921875.851562-5.703125 4.023437-13.226563 4.023437-13.226563l-14.421875 2.800781-2.824218-11.375 35.222656-8.351562 6.847656 36.5-10.472656 2.074219-3.652344-17.324219s-9.847656 15.226562 2.300781 31.625c7.199219 8.449219 10.699219 8.875 19.023438 10.402344 7.273437 1.25 24.371093-.800782 29.972656-20.527344 2.472656-12.722656.300781-22.273438-15.847656-35.125l1.296875-13.773438s18.074218 13.449219 22.574218 22.675782c3.449219 7.324218 9.375 21.722656-2.5 41.199218zm0 0"/></g></svg>