<svg height="250" viewBox="0 0 250 250" width="250" xmlns="http://www.w3.org/2000/svg"><path d="m250 125c0 69.035156-55.964844 125-125 125s-125-55.964844-125-125 55.964844-125 125-125 125 55.964844 125 125zm0 0" fill="#f8a608"/><g fill="#fff"><path d="m75.425781 65.707031h50.695313c32.753906 0 59.304687 26.550781 59.304687 59.304688 0 32.753906-26.550781 59.304687-59.304687 59.304687h-50.695313zm13.058594 13.054688v92.5h37.636719c25.542968 0 46.25-20.707031 46.25-46.25s-20.707032-46.25-46.25-46.25zm0 0" fill-rule="evenodd"/><path d="m58.761719 117.757812h138.191406v-13.054687h-138.191406zm0 0"/><path d="m58.761719 145.535156h138.191406v-13.054687h-138.191406zm0 0"/></g></svg>