<svg height="250" viewBox="0 0 250 250" width="250" xmlns="http://www.w3.org/2000/svg"><path d="m212.996094 214.070312c-11.644532 11.648438-25.507813 20.828126-40.769532 26.996094-15.257812 6.167969-31.601562 9.199219-48.054687 8.910156-16.347656.320313-32.589844-2.699218-47.738281-8.878906-15.144532-6.175781-28.871094-15.382812-40.34375-27.058594-11.746094-11.453124-21.007813-25.207031-27.210938-40.402343-6.203125-15.199219-9.214844-31.511719-8.847656-47.925781 0-35.917969 12.039062-65.84375 36.117188-89.78125 11.480468-11.667969 25.21875-20.871094 40.367187-27.046876 15.148437-6.171874 31.398437-9.1875 47.75-8.8593745 16.449219-.2773435 32.789063 2.7578125 48.042969 8.9335935 15.253906 6.171875 29.109375 15.355469 40.75 27.003907 24.613281 23.957031 36.921875 53.894531 36.921875 89.808593.308593 16.488281-2.820313 32.855469-9.1875 48.0625-6.367188 15.203125-15.835938 28.910157-27.796875 40.238281zm0 0" fill="#49bc98"/><g fill="#fff"><path d="m167.859375 79.949219-35.746094-26.378907-1.804687.140626c-.855469 1.074218-1.550782 2.269531-2.054688 3.546874-3.160156 13.617188-6.253906 27.265626-9.34375 40.910157v.007812l-.007812.03125c-.847656 3.746094-1.695313 7.496094-2.546875 11.242188-.285157 1.292969-.554688 2.601562-.859375 4.085937l-.269532 1.316406c.414063-.210937.765626-.382812 1.082032-.535156.4375-.214844.800781-.394531 1.148437-.589844l38.421875-21.167968c4.257813-2.308594 8.484375-4.617188 12.714844-6.980469.425781-.21875.785156-.542969 1.050781-.941406.265625-.394531.425781-.851563.464844-1.328125.039063-.476563-.042969-.953125-.238281-1.390625-.195313-.433594-.5-.8125-.882813-1.097657zm0 0"/><path d="m80.1875 82.929688c-2.273438 1.542968-4.046875 3.714843-5.101562 6.25l-.085938 72.878906c1.003906 1.84375 2.238281 3.554687 3.664062 5.09375 8.058594 6.625 16.207032 13.167968 24.34375 19.707031l.007813.003906c2.824219 2.269531 5.644531 4.535157 8.464844 6.804688 1.070312.875 2.226562 1.523437 3.578125.675781.570312-.386719.996094-.957031 1.203125-1.617188.210937-.65625.191406-1.367187-.046875-2.011718-4.265625-20.851563-8.484375-41.71875-12.65625-62.605469-.324219-1.605469-.324219-3.261719 0-4.867187 4.226562-20.8125 8.503906-41.605469 12.824218-62.378907.3125-1.519531.28125-2.929687-1.183593-3.773437-1.464844-.84375-2.621094-.027344-3.71875.875-2.9375 2.34375-5.867188 4.6875-8.800781 7.035156-7.488282 5.992188-14.976563 11.984375-22.492188 17.929688zm0 0"/><path d="m130.058594 196.429688c-.839844-1.023438-1.523438-2.160157-2.03125-3.378907-3.296875-14.503906-6.519532-29.046875-9.742188-43.578125-.886718-3.996094-1.773437-7.992187-2.664062-11.988281 0-.410156-.085938-.824219-.195313-1.332031-.054687-.257813-.113281-.542969-.167969-.863282.265626.128907.503907.242188.722657.34375.503906.238282.90625.425782 1.277343.640626l50.574219 27.953124c3.128907 1.746094 3.242188 3.632813.28125 5.628907l-36 26.179687-.253906.253906zm0 0"/><path d="m124.109375 120.058594-7.300781 4.140625 1.886718 1.152343 33.378907 18.777344 18.238281 10.46875c1.75.988282 3.355469.816406 4.117188-.503906.417968-.878906.613281-1.847656.5625-2.816406v-53.484375c0-3.882813-1.859376-4.953125-5.242188-3.066407zm0 0"/></g></svg>