
<svg xmlns="http://www.w3.org/2000/svg" xmlns:xlink="http://www.w3.org/1999/xlink" width="250px" height="250px" viewBox="0 0 250 250" version="1.1">
<defs>
<linearGradient id="linear0" gradientUnits="userSpaceOnUse" x1="65.449997" y1="65.449997" x2="9.45" y2="9.45" gradientTransform="matrix(3.571429,0,0,3.571429,0,0)">
<stop offset="0.159375" style="stop-color:rgb(0%,23.529412%,85.490197%);stop-opacity:1;"/>
<stop offset="1" style="stop-color:rgb(20%,87.450981%,80.000001%);stop-opacity:1;"/>
</linearGradient>
</defs>
<g id="surface1">
<path style=" stroke:none;fill-rule:nonzero;fill:url(#linear0);" d="M 0 125 C 0 55.964844 55.964844 0 125 0 C 194.035156 0 250 55.964844 250 125 C 250 194.035156 194.035156 250 125 250 C 55.964844 250 0 194.035156 0 125 Z M 0 125 "/>
<path style=" stroke:none;fill-rule:nonzero;fill:rgb(100%,100%,100%);fill-opacity:1;" d="M 72.707031 11.429688 C 80.644531 7.769531 89.03125 4.917969 97.761719 2.976562 L 97.761719 55.242188 L 72.707031 55.242188 Z M 72.707031 11.429688 "/>
<path style=" stroke:none;fill-rule:nonzero;fill:rgb(100%,100%,100%);fill-opacity:1;" d="M 2.8125 98.507812 C 4.703125 89.753906 7.507812 81.339844 11.125 73.375 L 139.824219 73.375 C 158.617188 73.375 173.828125 88.632812 173.828125 107.484375 L 173.828125 140.695312 C 173.828125 159.546875 158.617188 174.804688 139.824219 174.804688 L 106.710938 174.804688 C 87.917969 174.804688 72.707031 159.546875 72.707031 140.695312 L 72.707031 116.460938 L 97.761719 116.460938 L 97.761719 140.515625 C 97.761719 145.542969 101.699219 149.492188 106.710938 149.492188 L 139.824219 149.492188 C 144.832031 149.492188 148.769531 145.542969 148.769531 140.515625 L 148.769531 107.484375 C 148.769531 102.457031 144.832031 98.507812 139.824219 98.507812 Z M 2.8125 98.507812 "/>
</g>
</svg>
