
<svg xmlns="http://www.w3.org/2000/svg" xmlns:xlink="http://www.w3.org/1999/xlink" width="250px" height="250px" viewBox="0 0 250 250" version="1.1">
<defs>
<linearGradient id="linear0" gradientUnits="userSpaceOnUse" x1="239.360001" y1="17.92" x2="34.560001" y2="222.720001" gradientTransform="matrix(0.976562,0,0,-0.976562,0,251.249999)">
<stop offset="0.159" style="stop-color:rgb(0%,23.529412%,85.490197%);stop-opacity:1;"/>
<stop offset="1" style="stop-color:rgb(20%,87.450981%,80.000001%);stop-opacity:1;"/>
</linearGradient>
<linearGradient id="linear1" gradientUnits="userSpaceOnUse" x1="197.600006" y1="59.68" x2="69.599998" y2="187.679993" gradientTransform="matrix(0.976562,0,0,-0.976562,0,251.249999)">
<stop offset="0.159" style="stop-color:rgb(0%,23.529412%,85.490197%);stop-opacity:1;"/>
<stop offset="1" style="stop-color:rgb(20%,87.450981%,80.000001%);stop-opacity:1;"/>
</linearGradient>
</defs>
<g id="surface1">
<path style=" stroke:none;fill-rule:nonzero;fill:url(#linear0);" d="M 125 48.242188 C 140.234375 48.242188 155.078125 52.734375 167.675781 61.230469 C 180.273438 69.628906 190.136719 81.640625 195.996094 95.703125 C 201.855469 109.765625 203.320312 125.195312 200.390625 140.039062 C 197.460938 154.980469 190.136719 168.652344 179.394531 179.394531 C 168.652344 190.136719 154.980469 197.460938 140.039062 200.390625 C 125.097656 203.320312 109.667969 201.855469 95.703125 195.996094 C 81.640625 190.136719 69.628906 180.371094 61.230469 167.675781 C 52.734375 155.078125 48.242188 140.234375 48.242188 125 C 48.242188 104.6875 56.347656 85.15625 70.800781 70.703125 C 85.15625 56.347656 104.6875 48.242188 125 48.242188 Z M 125 0 C 100.292969 0 76.074219 7.324219 55.566406 21.09375 C 34.960938 34.765625 18.945312 54.296875 9.472656 77.148438 C 0 100 -2.441406 125.097656 2.34375 149.414062 C 7.128906 173.632812 19.042969 195.898438 36.523438 213.378906 C 54.003906 230.859375 76.269531 242.773438 100.488281 247.558594 C 124.707031 252.34375 149.902344 249.902344 172.753906 240.429688 C 195.605469 230.957031 215.136719 214.941406 228.808594 194.433594 C 242.578125 173.925781 249.902344 149.707031 249.902344 125 C 249.902344 91.894531 236.71875 60.058594 213.28125 36.621094 C 189.941406 13.183594 158.105469 0 125 0 Z M 125 0 "/>
<path style=" stroke:none;fill-rule:nonzero;fill:rgb(100%,100%,100%);fill-opacity:1;" d="M 125 222.65625 C 178.90625 222.65625 222.65625 178.90625 222.65625 125 C 222.65625 71.09375 178.90625 27.34375 125 27.34375 C 71.09375 27.34375 27.34375 71.09375 27.34375 125 C 27.34375 178.90625 71.09375 222.65625 125 222.65625 Z M 125 222.65625 "/>
<path style=" stroke:none;fill-rule:nonzero;fill:url(#linear1);" d="M 46.875 125 C 46.875 81.835938 81.835938 46.875 125 46.875 C 168.164062 46.875 203.125 81.835938 203.125 125 C 203.125 168.164062 168.164062 203.125 125 203.125 C 81.835938 203.125 46.875 168.164062 46.875 125 Z M 46.875 125 "/>
<path style=" stroke:none;fill-rule:nonzero;fill:rgb(100%,100%,100%);fill-opacity:1;" d="M 92.285156 54.003906 C 97.265625 51.757812 102.441406 49.902344 107.910156 48.730469 L 107.910156 81.445312 L 92.285156 81.445312 Z M 48.632812 108.398438 C 49.804688 102.929688 51.5625 97.65625 53.808594 92.675781 L 134.277344 92.675781 C 145.996094 92.675781 155.566406 102.246094 155.566406 113.964844 L 155.566406 134.765625 C 155.566406 146.582031 146.09375 156.054688 134.277344 156.054688 L 113.574219 156.054688 C 101.855469 156.054688 92.285156 146.484375 92.285156 134.765625 L 92.285156 119.628906 L 107.910156 119.628906 L 107.910156 134.667969 C 107.910156 137.792969 110.351562 140.234375 113.476562 140.234375 L 134.179688 140.234375 C 137.304688 140.234375 139.746094 137.792969 139.746094 134.667969 L 139.746094 114.0625 C 139.746094 110.9375 137.304688 108.496094 134.179688 108.496094 L 48.632812 108.496094 Z M 48.632812 108.398438 "/>
</g>
</svg>
