<svg height="250" viewBox="0 0 250 250" width="250" xmlns="http://www.w3.org/2000/svg" xmlns:xlink="http://www.w3.org/1999/xlink"><linearGradient id="a"><stop offset=".159" stop-color="#003cda"/><stop offset="1" stop-color="#33dfcc"/></linearGradient><linearGradient id="b" gradientTransform="matrix(.976562 0 0 -.976562 0 251.249999)" gradientUnits="userSpaceOnUse" x1="239.360001" x2="34.560001" xlink:href="#a" y1="17.92" y2="222.720001"/><linearGradient id="c" gradientTransform="matrix(.976562 0 0 -.976562 0 251.249999)" gradientUnits="userSpaceOnUse" x1="197.600006" x2="69.599998" xlink:href="#a" y1="59.68" y2="187.679993"/><path d="m125 48.242188c15.234375 0 30.078125 4.492187 42.675781 12.988281 12.597657 8.398437 22.460938 20.410156 28.320313 34.472656s7.324218 29.492187 4.394531 44.335937c-2.929687 14.941407-10.253906 28.613282-20.996094 39.355469-10.742187 10.742188-24.414062 18.066407-39.355469 20.996094-14.941406 2.929687-30.371093 1.464844-44.335937-4.394531-14.0625-5.859375-26.074219-15.625-34.472656-28.320313-8.496094-12.597656-12.988281-27.441406-12.988281-42.675781 0-20.3125 8.105468-39.84375 22.558593-54.296875 14.355469-14.355469 33.886719-22.460937 54.199219-22.460937zm0-48.242188c-24.707031 0-48.925781 7.324219-69.433594 21.09375-20.605468 13.671875-36.621094 33.203125-46.09375 56.054688-9.472656 22.851562-11.914062 47.949218-7.128906 72.265624 4.785156 24.21875 16.699219 46.484376 34.179688 63.964844 17.480468 17.480469 39.746093 29.394532 63.964843 34.179688s49.414063 2.34375 72.265625-7.128906c22.851563-9.472657 42.382813-25.488282 56.054688-45.996094 13.769531-20.507813 21.09375-44.726563 21.09375-69.433594 0-33.105469-13.183594-64.941406-36.621094-88.378906-23.339844-23.4375-55.175781-36.621094-88.28125-36.621094zm0 0" fill="url(#b)"/><path d="m125 222.65625c53.90625 0 97.65625-43.75 97.65625-97.65625s-43.75-97.65625-97.65625-97.65625-97.65625 43.75-97.65625 97.65625 43.75 97.65625 97.65625 97.65625zm0 0" fill="#fff"/><path d="m46.875 125c0-43.164062 34.960938-78.125 78.125-78.125s78.125 34.960938 78.125 78.125-34.960938 78.125-78.125 78.125-78.125-34.960938-78.125-78.125zm0 0" fill="url(#c)"/><path d="m92.285156 54.003906c4.980469-2.246094 10.15625-4.101562 15.625-5.273437v32.714843h-15.625zm-43.652344 54.394532c1.171876-5.46875 2.929688-10.742188 5.175782-15.722657h80.46875c11.71875 0 21.289062 9.570313 21.289062 21.289063v20.800781c0 11.816406-9.472656 21.289063-21.289062 21.289063h-20.703125c-11.71875 0-21.289063-9.570313-21.289063-21.289063v-15.136719h15.625v15.039063c0 3.125 2.441406 5.566406 5.566406 5.566406h20.703126c3.125 0 5.566406-2.441406 5.566406-5.566406v-20.605469c0-3.125-2.441406-5.566406-5.566406-5.566406h-85.546876zm0 0" fill="#fff"/></svg>