<svg width="32" height="32" viewBox="0 0 32 32" fill="none"
  xmlns="http://www.w3.org/2000/svg">
  <path d="M0 16C0 7.16344 7.16344 0 16 0C24.8366 0 32 7.16344 32 16C32 24.8366 24.8366 32 16 32C7.16344 32 0 24.8366 0 16Z" fill="url(#paint0_linear)"/>
  <path fill-rule="evenodd" clip-rule="evenodd" d="M19.1996 16.914H11.4282V21.9426C11.4282 22.4475 11.0188 22.8569 10.5139 22.8569C10.0089 22.8569 9.59961 22.4475 9.59961 21.9426V16.914V15.0854V10.0569C9.59961 9.55192 10.0089 9.14258 10.5139 9.14258C11.0188 9.14258 11.4282 9.55192 11.4282 10.0569V15.0854H19.1996C20.2095 15.0854 21.0282 14.2668 21.0282 13.2569V12.7997C21.0282 11.7898 20.2095 10.9711 19.1996 10.9711H15.892C15.3871 10.9711 14.9778 10.5618 14.9778 10.0569C14.9778 9.55192 15.3871 9.14258 15.892 9.14258H19.1996C21.2194 9.14258 22.8568 10.7799 22.8568 12.7997V13.2569C22.8568 14.3492 22.3779 15.3296 21.6186 15.9997C22.3779 16.6698 22.8568 17.6503 22.8568 18.7426V19.1997C22.8568 21.2195 21.2194 22.8569 19.1996 22.8569H15.892C15.3871 22.8569 14.9778 22.4475 14.9778 21.9426C14.9778 21.4376 15.3871 21.0283 15.892 21.0283H19.1996C20.2095 21.0283 21.0282 20.2096 21.0282 19.1997V18.7426C21.0282 17.7327 20.2095 16.914 19.1996 16.914Z" fill="white"/>
  <defs>
    <linearGradient id="paint0_linear" x1="29.92" y1="29.92" x2="4.32" y2="4.32" gradientUnits="userSpaceOnUse">
      <stop offset="0.159375" stop-color="#6D00DA"/>
      <stop offset="1" stop-color="#FFCA0E"/>
    </linearGradient>
  </defs>
</svg>