<svg width="256" height="256" viewBox="0 0 256 256" fill="none" xmlns="http://www.w3.org/2000/svg">
<path d="M128 49.36C143.554 49.36 158.758 53.9722 171.69 62.6132C184.622 71.2543 194.702 83.5362 200.654 97.9058C206.606 112.275 208.163 128.087 205.129 143.342C202.095 158.597 194.605 172.609 183.607 183.607C172.609 194.605 158.597 202.095 143.342 205.129C128.087 208.163 112.275 206.606 97.9058 200.654C83.5363 194.702 71.2544 184.622 62.6133 171.69C53.9722 158.758 49.3601 143.554 49.3601 128C49.3865 107.151 57.6803 87.1645 72.4224 72.4223C87.1645 57.6802 107.152 49.3865 128 49.36ZM128 0C102.684 0 77.9366 7.50707 56.8871 21.5719C35.8376 35.6367 19.4315 55.6276 9.74348 79.0165C0.05546 102.405 -2.47937 128.142 2.45954 152.972C7.39845 177.801 19.5893 200.609 37.4904 218.51C55.3915 236.411 78.1989 248.602 103.029 253.541C127.858 258.479 153.595 255.945 176.984 246.257C200.372 236.569 220.363 220.162 234.428 199.113C248.493 178.064 256 153.316 256 128C256 94.0523 242.514 61.495 218.51 37.4903C194.505 13.4857 161.948 0 128 0V0Z" fill="url(#paint0_linear)"/>
<path d="M128 229C183.228 229 228 184.228 228 129C228 73.7715 183.228 29 128 29C72.7715 29 28 73.7715 28 129C28 184.228 72.7715 229 128 229Z" fill="white"/>
<circle cx="128" cy="129" r="80" fill="#F8A608"/>
<path fill-rule="evenodd" clip-rule="evenodd" d="M98.9567 94.0862H128.807C148.093 94.0862 163.728 109.721 163.728 129.007C163.728 148.293 148.093 163.928 128.807 163.928H98.9567V94.0862ZM106.644 101.774V156.24H128.807C143.847 156.24 156.04 144.047 156.04 129.007C156.04 113.966 143.847 101.774 128.807 101.774H106.644Z" fill="white"/>
<path d="M89.1429 124.735H170.515V117.048H89.1429V124.735Z" fill="white"/>
<path d="M89.1429 141.092H170.515V133.404H89.1429V141.092Z" fill="white"/>
<defs>
<linearGradient id="paint0_linear" x1="239.36" y1="239.36" x2="34.56" y2="34.56" gradientUnits="userSpaceOnUse">
<stop offset="0.159375" stop-color="#003CDA"/>
<stop offset="1" stop-color="#33DFCC"/>
</linearGradient>
</defs>
</svg>
