<svg height="250" viewBox="0 0 250 250" width="250" xmlns="http://www.w3.org/2000/svg" xmlns:xlink="http://www.w3.org/1999/xlink"><linearGradient id="a"><stop offset=".00000037658" stop-color="#6fa4f2"/><stop offset=".5051" stop-color="#0f6beb"/><stop offset="1" stop-color="#0b50b0"/></linearGradient><linearGradient id="b" gradientTransform="scale(.256148 .645995)" gradientUnits="userSpaceOnUse" x1="222.184402" x2="20.240299" xlink:href="#a" y1="363.4888" y2="92.922897"/><linearGradient id="c" gradientTransform="scale(.256148 .645995)" gradientUnits="userSpaceOnUse" x1="298.516205" x2="96.572098" xlink:href="#a" y1="306.51651" y2="35.950699"/><g fill="#fff"><path d="m121.625 57.882812h10.230469v144.941407h-10.230469zm0 0"/><path d="m202.355469 57.882812v139.359376l-10.230469 14.902343v-154.261719zm0 0"/><path d="m174.632812 47.601562v61.660157c-3.164062-10.277344-7.730468-19.5-14.972656-19.5-10.476562 0-20.375 20.769531-20.375 57.460937v.425782c0 36.691406 10.058594 57.460937 20.375 57.460937 7.15625 0 11.734375-9.222656 14.972656-20.769531v18.484375h10.230469v-170.125zm.164063 100.046876c0 2.027343-.058594 4.003906-.164063 5.910156-1 17.882812-6.472656 29.542968-12.5625 29.542968-6.816406 0-12.640624-14.070312-12.640624-35.453124v-.425782c0-22.027344 5.738281-35.453125 12.640624-35.453125 6.089844 0 11.570313 11.492188 12.5625 29.496094.105469 1.90625.164063 3.910156.164063 5.964844zm0 0"/><path d="m207.574219 147.855469v-.421875c0-31.671875 8.898437-57.679688 21.457031-57.679688 13.972656 0 21.046875 27.6875 21.046875 59.574219 0 2.304687-.085937 4.613281-.167969 7.132813h-32.273437c1.082031 18.035156 6.15625 28.105468 12.640625 28.105468 4.910156 0 8.402344-4.613281 11.894531-13.214844l5.90625 13.214844c-4.160156 12.585938-9.898437 20.769532-17.964844 20.769532-12.722656-.007813-22.539062-23.292969-22.539062-57.480469zm32.519531-8.183594c-.664062-16.363281-4.488281-29.15625-11.144531-29.15625-6.15625 0-10.480469 11.957031-11.394531 29.15625zm0 0"/></g><path d="m34.246094.644531v199.757813h-34.03125l-.214844-.3125v-149.578125l1.304688-1.90625zm0 0" fill="url(#b)" fill-rule="evenodd"/><path d="m45.214844 250v-199.753906h34.03125l.214844.308594v149.582031l-1.304688 1.90625zm0 0" fill="url(#c)" fill-rule="evenodd"/></svg>