<svg height="250" viewBox="0 0 250 250" width="250" xmlns="http://www.w3.org/2000/svg"><path d="m241.488281 80c-24.765625-64.324219-96.988281-96.394531-161.3125-71.625l-.25.101562c-6.203125 2.386719-12.203125 5.277344-17.9375 8.636719-33.433593 19.546875-55.921875 53.488281-60.882812 91.898438-4.960938 38.410156 8.160156 76.949219 35.53125 104.351562 7.75 7.808594 16.515625 14.535157 26.0625 20 32.714843 18.789063 72.167969 21.796875 107.355469 8.1875 35.183593-13.613281 62.339843-42.386719 73.894531-78.300781 3.402343-10.457031 5.375-21.328125 5.863281-32.3125.8125-17.375-2.023438-34.726562-8.324219-50.9375zm0 0" fill="#b13932"/><path d="m241.488281 80c6.289063 16.21875 9.109375 33.574219 8.285157 50.949219-3.921876 5.226562-8.089844 10.261719-12.5 15.113281-27.691407-63.933594-84.527344-110.582031-152.636719-125.273438 4.453125-6.257812 9.234375-12.269531 14.324219-18.015624 60.023437-12.726563 120.410156 19.992187 142.527343 77.226562zm0 0" fill="#cc4641"/><path d="m249.773438 130.898438c-.496094 10.984374-2.464844 21.847656-5.859376 32.300781-1.015624-3.035157-2.125-6.0625-3.3125-9.050781-1.101562-2.722657-2.203124-5.511719-3.300781-8.136719 4.382813-4.847657 8.550781-9.886719 12.5-15.113281zm0 0" fill="#cc4641"/><path d="m240.648438 154.148438c1.164062 3.015624 2.277343 6.039062 3.3125 9.050781-11.550782 35.914062-38.710938 64.691406-73.894532 78.300781-35.1875 13.613281-74.640625 10.601562-107.355468-8.1875-1.25-2.914062-2.5-5.863281-3.75-8.886719-1.097657-2.75-2.0625-5.511719-3-8.261719 68.140624 6.589844 135.386718-19.421874 181.351562-70.152343 1.148438 2.675781 2.238281 5.464843 3.3125 8.136719zm0 0" fill="#b13932"/><path d="m237.300781 146.011719c-45.945312 50.765625-113.195312 76.8125-181.351562 70.238281-22.535157-65.941406-11.863281-138.707031 28.664062-195.398438 68.101563 14.652344 124.957031 61.257813 152.6875 125.160157zm0 0" fill="#be4137"/><path d="m98.976562 2.773438c-5.09375 5.75-9.878906 11.761718-14.339843 18.015624-7.488281-1.636718-15.0625-2.867187-22.6875-3.675781 5.746093-3.363281 11.757812-6.253906 17.976562-8.636719 6.191407-2.394531 12.5625-4.296874 19.050781-5.703124zm0 0" fill="#a5322d"/><path d="m61.9375 17.113281c7.628906.8125 15.207031 2.039063 22.699219 3.675781-40.550781 56.703126-51.226563 129.5-28.660157 195.460938-6.515624-.636719-13-1.5625-19.402343-2.800781-27.398438-27.386719-40.539063-65.9375-35.574219-104.359375s27.476562-72.367188 60.9375-91.890625zm0 0" fill="#a5322d"/><path d="m58.976562 224.425781c1.109376 3.023438 2.375 5.972657 3.75 8.886719-9.550781-5.46875-18.320312-12.195312-26.078124-20 6.402343 1.25 12.890624 2.199219 19.390624 2.800781.910157 2.75 1.910157 5.511719 3 8.261719zm0 0" fill="#b13932"/><path d="m41.164062 53.976562h41.886719c5.636719-.035156 11.265625.496094 16.800781 1.585938 5.089844.941406 9.96875 2.8125 14.386719 5.511719 4.179688 2.605469 7.621094 6.238281 10 10.550781 2.5 4.417969 3.75 10.039062 3.75 16.863281 0 8.75-2.414062 16.074219-7.238281 21.972657-4.824219 5.902343-11.707031 9.496093-20.648438 10.789062l31.960938 53.3125h-25.8125l-27.949219-51.085938h-15.675781v51.148438h-21.460938zm38.148438 51.097657c3.074219 0 6.164062-.136719 9.210938-.425781 2.898437-.242188 5.738281-.929688 8.425781-2.035157 2.511719-1.050781 4.675781-2.78125 6.25-5 1.589843-2.214843 2.375-5.300781 2.375-9.289062.148437-3-.621094-5.972657-2.199219-8.523438-1.457031-2.109375-3.46875-3.769531-5.8125-4.800781-2.519531-1.101562-5.191406-1.8125-7.925781-2.101562-2.78125-.34375-5.582031-.511719-8.386719-.511719h-18.625v32.6875zm54.074219-17.5h19.414062v12.261719h.335938c2.734375-4.796876 6.910156-8.609376 11.9375-10.898438 5.078125-2.3125 10.597656-3.488281 16.175781-3.449219 5.792969-.121093 11.542969.992188 16.875 3.261719 4.847656 2.105469 9.195312 5.210938 12.761719 9.113281 3.574219 3.925781 6.300781 8.546875 8.011719 13.574219 1.847656 5.433594 2.769531 11.136719 2.726562 16.875.054688 5.757812-.917969 11.484375-2.875 16.898438-1.796875 5.058593-4.539062 9.726562-8.085938 13.75-3.492187 3.871093-7.75 6.972656-12.5 9.113281-5.042968 2.238281-10.511718 3.363281-16.027343 3.300781-3.441407.027344-6.875-.390625-10.210938-1.25-2.726562-.699219-5.359375-1.726562-7.839843-3.0625-2.070313-1.109375-4.011719-2.453125-5.785157-4-1.4375-1.257812-2.746093-2.652344-3.914062-4.164062h-.636719v49.214843h-20.363281zm67.863281 40.839843c.011719-3.140624-.539062-6.257812-1.625-9.203124-1.050781-2.898438-2.675781-5.5625-4.773438-7.824219-7.191406-7.398438-18.199218-9.589844-27.675781-5.511719-2.867187 1.316406-5.441406 3.191406-7.574219 5.511719-2.097656 2.265625-3.71875 4.925781-4.777343 7.824219-2.160157 5.945312-2.160157 12.457031 0 18.402343 1.054687 2.902344 2.679687 5.566407 4.777343 7.835938 7.203126 7.375 18.214844 9.539062 27.671876 5.4375 2.859374-1.296875 5.433593-3.144531 7.578124-5.4375 2.097657-2.269531 3.71875-4.933594 4.773438-7.835938 1.082031-2.949219 1.628906-6.0625 1.625-9.199219zm0 0" fill="#fff"/></svg>