
<svg xmlns="http://www.w3.org/2000/svg" xmlns:xlink="http://www.w3.org/1999/xlink" width="250px" height="250px" viewBox="0 0 250 250" version="1.1">
<g id="surface1">
<path style=" stroke:none;fill-rule:nonzero;fill:rgb(69.411767%,22.352941%,19.607843%);fill-opacity:1;" d="M 241.488281 80 C 216.722656 15.675781 144.5 -16.394531 80.175781 8.375 L 79.925781 8.476562 C 73.722656 10.863281 67.722656 13.753906 61.988281 17.113281 C 28.554688 36.660156 6.066406 70.601562 1.105469 109.011719 C -3.855469 147.421875 9.265625 185.960938 36.636719 213.363281 C 44.386719 221.171875 53.152344 227.898438 62.699219 233.363281 C 95.414062 252.152344 134.867188 255.160156 170.054688 241.550781 C 205.238281 227.9375 232.394531 199.164062 243.949219 163.25 C 247.351562 152.792969 249.324219 141.921875 249.8125 130.9375 C 250.625 113.5625 247.789062 96.210938 241.488281 80 Z M 241.488281 80 "/>
<path style=" stroke:none;fill-rule:nonzero;fill:rgb(80.000001%,27.450982%,25.490198%);fill-opacity:1;" d="M 241.488281 80 C 247.777344 96.21875 250.597656 113.574219 249.773438 130.949219 C 245.851562 136.175781 241.683594 141.210938 237.273438 146.0625 C 209.582031 82.128906 152.746094 35.480469 84.636719 20.789062 C 89.089844 14.53125 93.871094 8.519531 98.960938 2.773438 C 158.984375 -9.953125 219.371094 22.765625 241.488281 80 Z M 241.488281 80 "/>
<path style=" stroke:none;fill-rule:nonzero;fill:rgb(80.000001%,27.450982%,25.490198%);fill-opacity:1;" d="M 249.773438 130.898438 C 249.277344 141.882812 247.308594 152.746094 243.914062 163.199219 C 242.898438 160.164062 241.789062 157.136719 240.601562 154.148438 C 239.5 151.425781 238.398438 148.636719 237.300781 146.011719 C 241.683594 141.164062 245.851562 136.125 249.800781 130.898438 Z M 249.773438 130.898438 "/>
<path style=" stroke:none;fill-rule:nonzero;fill:rgb(69.411767%,22.352941%,19.607843%);fill-opacity:1;" d="M 240.648438 154.148438 C 241.8125 157.164062 242.925781 160.1875 243.960938 163.199219 C 232.410156 199.113281 205.25 227.890625 170.066406 241.5 C 134.878906 255.113281 95.425781 252.101562 62.710938 233.3125 C 61.460938 230.398438 60.210938 227.449219 58.960938 224.425781 C 57.863281 221.675781 56.898438 218.914062 55.960938 216.164062 C 124.101562 222.753906 191.347656 196.742188 237.3125 146.011719 C 238.460938 148.6875 239.550781 151.476562 240.625 154.148438 Z M 240.648438 154.148438 "/>
<path style=" stroke:none;fill-rule:nonzero;fill:rgb(74.509805%,25.490198%,21.568628%);fill-opacity:1;" d="M 237.300781 146.011719 C 191.355469 196.777344 124.105469 222.824219 55.949219 216.25 C 33.414062 150.308594 44.085938 77.542969 84.613281 20.851562 C 152.714844 35.503906 209.570312 82.109375 237.300781 146.011719 Z M 237.300781 146.011719 "/>
<path style=" stroke:none;fill-rule:nonzero;fill:rgb(64.705884%,19.607843%,17.647059%);fill-opacity:1;" d="M 98.976562 2.773438 C 93.882812 8.523438 89.097656 14.535156 84.636719 20.789062 C 77.148438 19.152344 69.574219 17.921875 61.949219 17.113281 C 67.695312 13.75 73.707031 10.859375 79.925781 8.476562 C 86.117188 6.082031 92.488281 4.179688 98.976562 2.773438 Z M 98.976562 2.773438 "/>
<path style=" stroke:none;fill-rule:nonzero;fill:rgb(64.705884%,19.607843%,17.647059%);fill-opacity:1;" d="M 61.9375 17.113281 C 69.566406 17.925781 77.144531 19.152344 84.636719 20.789062 C 44.085938 77.492188 33.410156 150.289062 55.976562 216.25 C 49.460938 215.613281 42.976562 214.6875 36.574219 213.449219 C 9.175781 186.0625 -3.964844 147.511719 1 109.089844 C 5.964844 70.667969 28.476562 36.722656 61.9375 17.199219 Z M 61.9375 17.113281 "/>
<path style=" stroke:none;fill-rule:nonzero;fill:rgb(69.411767%,22.352941%,19.607843%);fill-opacity:1;" d="M 58.976562 224.425781 C 60.085938 227.449219 61.351562 230.398438 62.726562 233.3125 C 53.175781 227.84375 44.40625 221.117188 36.648438 213.3125 C 43.050781 214.5625 49.539062 215.511719 56.039062 216.113281 C 56.949219 218.863281 57.949219 221.625 59.039062 224.375 Z M 58.976562 224.425781 "/>
<path style=" stroke:none;fill-rule:nonzero;fill:rgb(100%,100%,100%);fill-opacity:1;" d="M 41.164062 53.976562 L 83.050781 53.976562 C 88.6875 53.941406 94.316406 54.472656 99.851562 55.5625 C 104.941406 56.503906 109.820312 58.375 114.238281 61.074219 C 118.417969 63.679688 121.859375 67.3125 124.238281 71.625 C 126.738281 76.042969 127.988281 81.664062 127.988281 88.488281 C 127.988281 97.238281 125.574219 104.5625 120.75 110.460938 C 115.925781 116.363281 109.042969 119.957031 100.101562 121.25 L 132.0625 174.5625 L 106.25 174.5625 L 78.300781 123.476562 L 62.625 123.476562 L 62.625 174.625 L 41.164062 174.625 Z M 79.3125 105.074219 C 82.386719 105.074219 85.476562 104.9375 88.523438 104.648438 C 91.421875 104.40625 94.261719 103.71875 96.949219 102.613281 C 99.460938 101.5625 101.625 99.832031 103.199219 97.613281 C 104.789062 95.398438 105.574219 92.3125 105.574219 88.324219 C 105.722656 85.324219 104.953125 82.351562 103.375 79.800781 C 101.917969 77.691406 99.90625 76.03125 97.5625 75 C 95.042969 73.898438 92.371094 73.1875 89.636719 72.898438 C 86.855469 72.554688 84.054688 72.386719 81.25 72.386719 L 62.625 72.386719 L 62.625 105.074219 Z M 133.386719 87.574219 L 152.800781 87.574219 L 152.800781 99.835938 L 153.136719 99.835938 C 155.871094 95.039062 160.046875 91.226562 165.074219 88.9375 C 170.152344 86.625 175.671875 85.449219 181.25 85.488281 C 187.042969 85.367188 192.792969 86.480469 198.125 88.75 C 202.972656 90.855469 207.320312 93.960938 210.886719 97.863281 C 214.460938 101.789062 217.1875 106.410156 218.898438 111.4375 C 220.746094 116.871094 221.667969 122.574219 221.625 128.3125 C 221.679688 134.070312 220.707031 139.796875 218.75 145.210938 C 216.953125 150.269531 214.210938 154.9375 210.664062 158.960938 C 207.171875 162.832031 202.914062 165.933594 198.164062 168.074219 C 193.121094 170.3125 187.652344 171.4375 182.136719 171.375 C 178.695312 171.402344 175.261719 170.984375 171.925781 170.125 C 169.199219 169.425781 166.566406 168.398438 164.085938 167.0625 C 162.015625 165.953125 160.074219 164.609375 158.300781 163.0625 C 156.863281 161.804688 155.554688 160.410156 154.386719 158.898438 L 153.75 158.898438 L 153.75 208.113281 L 133.386719 208.113281 Z M 201.25 128.414062 C 201.261719 125.273438 200.710938 122.15625 199.625 119.210938 C 198.574219 116.3125 196.949219 113.648438 194.851562 111.386719 C 187.660156 103.988281 176.652344 101.796875 167.175781 105.875 C 164.308594 107.191406 161.734375 109.066406 159.601562 111.386719 C 157.503906 113.652344 155.882812 116.3125 154.824219 119.210938 C 152.664062 125.15625 152.664062 131.667969 154.824219 137.613281 C 155.878906 140.515625 157.503906 143.179688 159.601562 145.449219 C 166.804688 152.824219 177.816406 154.988281 187.273438 150.886719 C 190.132812 149.589844 192.707031 147.742188 194.851562 145.449219 C 196.949219 143.179688 198.570312 140.515625 199.625 137.613281 C 200.707031 134.664062 201.253906 131.550781 201.25 128.414062 Z M 201.25 128.414062 "/>
</g>
</svg>
