<svg width="256" height="256" viewBox="0 0 256 256" fill="none" xmlns="http://www.w3.org/2000/svg">
<path d="M128 49.36C143.554 49.36 158.758 53.9722 171.69 62.6132C184.622 71.2543 194.702 83.5362 200.654 97.9058C206.606 112.275 208.163 128.087 205.129 143.342C202.095 158.597 194.605 172.609 183.607 183.607C172.609 194.605 158.597 202.095 143.342 205.129C128.087 208.163 112.275 206.606 97.9058 200.654C83.5363 194.702 71.2544 184.622 62.6133 171.69C53.9722 158.758 49.3601 143.554 49.3601 128C49.3865 107.151 57.6803 87.1645 72.4224 72.4223C87.1645 57.6802 107.152 49.3865 128 49.36ZM128 0C102.684 0 77.9366 7.50707 56.8871 21.5719C35.8376 35.6367 19.4315 55.6276 9.74348 79.0165C0.05546 102.405 -2.47937 128.142 2.45954 152.972C7.39845 177.801 19.5893 200.609 37.4904 218.51C55.3915 236.411 78.1989 248.602 103.029 253.541C127.858 258.479 153.595 255.945 176.984 246.257C200.372 236.569 220.363 220.162 234.428 199.113C248.493 178.064 256 153.316 256 128C256 94.0523 242.514 61.495 218.51 37.4903C194.505 13.4857 161.948 0 128 0V0Z" fill="url(#paint0_linear)"/>
<path d="M128 229C183.228 229 228 184.228 228 129C228 73.7715 183.228 29 128 29C72.7715 29 28 73.7715 28 129C28 184.228 72.7715 229 128 229Z" fill="white"/>
<path d="M184.318 186.005C176.866 193.46 167.992 199.335 158.226 203.283C148.46 207.231 138.001 209.17 127.471 208.985C117.007 209.191 106.611 207.258 96.9185 203.303C87.2257 199.349 78.4395 193.456 71.0966 185.986C63.581 178.655 57.6532 169.853 53.6828 160.127C49.7124 150.4 47.7844 139.959 48.0191 129.454C48.0191 106.468 55.7248 87.3148 71.136 71.9951C78.4835 64.5265 87.2738 58.6368 96.97 54.6858C106.666 50.7347 117.065 48.8054 127.53 49.0155C138.058 48.8368 148.514 50.7809 158.276 54.732C168.039 58.6831 176.908 64.5606 184.358 72.0148C200.11 87.3477 207.986 106.507 207.986 129.493C208.186 140.045 206.183 150.521 202.108 160.252C198.032 169.984 191.973 178.755 184.318 186.005Z" fill="#49BC98"/>
<path d="M155.431 100.166L132.553 83.2857L131.399 83.3758C130.849 84.0627 130.405 84.8278 130.081 85.6457C128.059 94.3593 126.081 103.095 124.104 111.827L124.102 111.832L124.098 111.852C123.555 114.251 123.012 116.649 122.468 119.046C122.285 119.874 122.113 120.712 121.919 121.664L121.746 122.505C122.01 122.37 122.236 122.26 122.437 122.161C122.718 122.024 122.951 121.911 123.171 121.785L147.763 108.237C150.487 106.76 153.193 105.283 155.9 103.769C156.172 103.629 156.403 103.422 156.573 103.168C156.743 102.914 156.846 102.621 156.871 102.317C156.896 102.012 156.843 101.707 156.718 101.428C156.592 101.149 156.397 100.907 156.152 100.725L155.431 100.166Z" fill="white"/>
<path d="M99.3197 102.076C97.8639 103.062 96.7288 104.453 96.0541 106.075L96 152.717C96.6435 153.897 97.4314 154.992 98.3455 155.978C103.501 160.217 108.717 164.406 113.925 168.59L113.929 168.593C115.736 170.045 117.543 171.496 119.346 172.949C120.032 173.507 120.772 173.921 121.638 173.381C122.003 173.131 122.274 172.767 122.408 172.346C122.542 171.925 122.531 171.471 122.378 171.057C119.647 157.713 116.947 144.358 114.277 130.991C114.069 129.962 114.069 128.902 114.277 127.874C116.983 114.555 119.719 101.247 122.486 87.9517C122.684 86.9789 122.666 86.0781 121.728 85.5377C120.79 84.9972 120.05 85.5196 119.346 86.0961C117.468 87.5964 115.592 89.0981 113.715 90.5995C108.922 94.4351 104.13 98.2694 99.3197 102.076Z" fill="white"/>
<path d="M131.236 174.714C130.701 174.06 130.263 173.332 129.937 172.552C127.829 163.269 125.765 153.964 123.701 144.662C123.134 142.104 122.567 139.547 121.999 136.99C121.999 136.727 121.943 136.463 121.874 136.137C121.839 135.972 121.8 135.79 121.764 135.585C121.934 135.667 122.088 135.739 122.228 135.805C122.55 135.957 122.807 136.077 123.045 136.215L155.413 154.105C157.415 155.222 157.487 156.429 155.593 157.708L132.553 174.462L132.391 174.624L131.236 174.714Z" fill="white"/>
<path d="M127.429 125.838L122.756 128.487L123.965 129.225L145.327 141.242L157 147.943C158.119 148.574 159.147 148.466 159.634 147.619C159.903 147.058 160.027 146.439 159.995 145.818V111.588C159.995 109.102 158.804 108.417 156.639 109.625L127.429 125.838Z" fill="white"/>
<defs>
<linearGradient id="paint0_linear" x1="239.36" y1="239.36" x2="34.56" y2="34.56" gradientUnits="userSpaceOnUse">
<stop offset="0.159375" stop-color="#003CDA"/>
<stop offset="1" stop-color="#33DFCC"/>
</linearGradient>
</defs>
</svg>
