<svg id="Layer_1" data-name="Layer 1" xmlns="http://www.w3.org/2000/svg" xmlns:xlink="http://www.w3.org/1999/xlink" viewBox="0 0 64 64"><defs><style>.cls-1{fill:none;}.cls-2{fill:url(#linear-gradient);}.cls-3{fill:#fff;}.cls-4{fill:#31cb9e;}</style><linearGradient id="linear-gradient" x1="-6.5" y1="29.99" x2="70.5" y2="29.99" gradientUnits="userSpaceOnUse"><stop offset="0" stop-color="#0157d0"/><stop offset="0.14" stop-color="#015fcd"/><stop offset="0.36" stop-color="#0174c6"/><stop offset="0.63" stop-color="#0098ba"/><stop offset="0.94" stop-color="#00c8aa"/><stop offset="1" stop-color="#00d3a6"/></linearGradient></defs><title>itoken_KNC-clearchip</title><ellipse class="cls-1" cx="32" cy="31.94" rx="25.5" ry="25.45"/><path class="cls-2" d="M64,31.94A32,32,0,1,0,16.67,60l1.38,0H46c.25,0,.85,0,1.38,0A32,32,0,0,0,64,31.94Z"/><ellipse class="cls-3" cx="32" cy="31.94" rx="25.5" ry="25.45"/><ellipse class="cls-1" cx="32" cy="31.94" rx="25.5" ry="25.45"/><path class="cls-4" d="M46.34,46.42a19.9,19.9,0,0,1-14.43,5.85,19.51,19.51,0,0,1-14.32-5.8A19.4,19.4,0,0,1,11.7,32.15a19.66,19.66,0,0,1,5.85-14.57,19.46,19.46,0,0,1,14.3-5.85,19.94,19.94,0,0,1,14.45,5.8,19.52,19.52,0,0,1,6,14.56A19.2,19.2,0,0,1,46.34,46.42Z"/><path class="cls-3" d="M23.14,25.66a2.47,2.47,0,0,1,.9-1.12c1.85-1.47,3.7-3,5.54-4.44.2-.16.4-.3.66-.16s.27.4.21.67C29.7,24.3,28.94,28,28.2,31.69a2.13,2.13,0,0,0,0,.87q1.11,5.56,2.26,11.12a.54.54,0,0,1-.2.64.51.51,0,0,1-.64-.12c-1.94-1.56-3.9-3.11-5.83-4.69a5.14,5.14,0,0,1-.65-.91Z"/><path class="cls-3" d="M33.24,19.31,39.59,24l.2.15c.35.3.33.65-.07.87l-2.25,1.25L30.66,30l-.39.2c.07-.37.13-.67.2-1,.69-3.09,1.38-6.19,2.09-9.28a2.68,2.68,0,0,1,.36-.63Z"/><path class="cls-3" d="M32.92,44.69a2.51,2.51,0,0,1-.36-.6c-.75-3.29-1.48-6.58-2.22-9.87,0-.11,0-.22-.06-.39.15.08.26.12.35.18l9,5q.84.45.06,1l-6.39,4.66,0,0Z"/><path class="cls-3" d="M30.55,31.86l1.29-.73,8.09-4.54c.6-.33.93-.14.93.54v9.49a1.13,1.13,0,0,1-.11.48c-.13.24-.42.26-.73.09l-3.21-1.8-5.93-3.32Z"/></svg>