<svg id="Layer_1" data-name="Layer 1" xmlns="http://www.w3.org/2000/svg" xmlns:xlink="http://www.w3.org/1999/xlink" viewBox="0 0 64 64"><defs><style>.cls-1{fill:none;}.cls-2{fill:url(#linear-gradient);}.cls-3{fill:#fff;}.cls-4{fill:#2a5ada;}</style><linearGradient id="linear-gradient" x1="-6.5" y1="29.99" x2="70.5" y2="29.99" gradientUnits="userSpaceOnUse"><stop offset="0" stop-color="#0157d0"/><stop offset="0.14" stop-color="#015fcd"/><stop offset="0.36" stop-color="#0174c6"/><stop offset="0.63" stop-color="#0098ba"/><stop offset="0.94" stop-color="#00c8aa"/><stop offset="1" stop-color="#00d3a6"/></linearGradient></defs><title>itoken_LINK-clearchip</title><ellipse class="cls-1" cx="32" cy="31.94" rx="25.5" ry="25.45"/><path class="cls-2" d="M64,31.94A32,32,0,1,0,16.67,60l1.38,0H46c.25,0,.85,0,1.38,0A32,32,0,0,0,64,31.94Z"/><ellipse class="cls-3" cx="32" cy="31.94" rx="25.5" ry="25.45"/><ellipse class="cls-1" cx="32" cy="31.94" rx="25.5" ry="25.45"/><path class="cls-4" d="M46.34,46.42a19.9,19.9,0,0,1-14.43,5.85,19.51,19.51,0,0,1-14.32-5.8A19.4,19.4,0,0,1,11.7,32.15a19.66,19.66,0,0,1,5.85-14.57,19.46,19.46,0,0,1,14.3-5.85,19.94,19.94,0,0,1,14.45,5.8,19.52,19.52,0,0,1,6,14.56A19.2,19.2,0,0,1,46.34,46.42Z"/><path class="cls-3" d="M32,18l-2.56,1.48-7,4L19.9,25V39l2.56,1.47,7,4L32.06,46l2.56-1.48,6.92-4L44.1,39V25l-2.56-1.47-7-4ZM25,36V28l7-4,7,4V36l-7,4Z"/></svg>