<!-- Generator: Adobe Illustrator 19.0.1, SVG Export Plug-In . SVG Version: 6.00 Build 0)  -->
<svg xmlns="http://www.w3.org/2000/svg" xmlns:xlink="http://www.w3.org/1999/xlink" width="250px" height="250px" viewBox="0 0 250 250" version="1.1">
<g id="surface1">
<path style=" stroke:none;fill-rule:nonzero;fill:rgb(8.627451%,19.607843%,33.725491%);fill-opacity:1;" d="M 163.292969 83.046875 L 181.953125 83.046875 C 201.25 83.046875 216.945312 67.351562 216.945312 48.058594 L 216.945312 34.0625 C 216.945312 27.621094 211.722656 22.398438 205.28125 22.398438 C 198.839844 22.398438 193.617188 27.621094 193.617188 34.0625 L 193.617188 48.058594 C 193.617188 54.488281 188.386719 59.722656 181.957031 59.722656 L 163.292969 59.722656 C 156.851562 59.722656 151.632812 64.941406 151.632812 71.382812 C 151.632812 77.828125 156.851562 83.046875 163.292969 83.046875 Z M 163.292969 83.046875 "/>
<path style=" stroke:none;fill-rule:nonzero;fill:rgb(1.176471%,63.921571%,70.588237%);fill-opacity:1;" d="M 55.019531 129.699219 C 29.363281 129.699219 8.367188 108.707031 8.367188 83.046875 L 241.632812 83.046875 C 241.632812 108.707031 220.636719 129.699219 194.980469 129.699219 Z M 55.019531 129.699219 "/>
<path style=" stroke:none;fill-rule:nonzero;fill:rgb(0.392157%,58.039218%,60.392159%);fill-opacity:1;" d="M 8.367188 83.046875 C 8.367188 83.046875 38.304688 106.957031 71.253906 113.078125 L 55.019531 129.699219 C 55.019531 129.699219 10.214844 129.410156 8.367188 83.046875 Z M 8.367188 83.046875 "/>
<path style=" stroke:none;fill-rule:nonzero;fill:rgb(1.176471%,63.921571%,70.588237%);fill-opacity:1;" d="M 101.671875 129.699219 L 159.988281 129.699219 C 179.234375 129.699219 194.980469 113.953125 194.980469 94.710938 C 194.980469 75.464844 179.234375 59.722656 159.988281 59.722656 L 101.671875 59.722656 C 82.429688 59.722656 66.683594 75.464844 66.683594 94.710938 C 66.683594 113.953125 82.429688 129.699219 101.671875 129.699219 Z M 101.671875 129.699219 "/>
<path style=" stroke:none;fill-rule:nonzero;fill:rgb(1.176471%,63.921571%,70.588237%);fill-opacity:1;" d="M 183.4375 106.375 L 94.550781 106.375 C 68.960938 106.375 48.023438 127.3125 48.023438 152.902344 L 48.023438 153.148438 C 48.023438 178.742188 68.960938 199.679688 94.550781 199.679688 L 183.4375 199.679688 C 209.03125 199.679688 229.96875 178.742188 229.96875 153.148438 L 229.96875 152.902344 C 229.96875 127.3125 209.03125 106.375 183.4375 106.375 Z M 183.4375 106.375 "/>
<path style=" stroke:none;fill-rule:nonzero;fill:rgb(0.392157%,58.039218%,60.392159%);fill-opacity:1;" d="M 153.769531 83.046875 C 153.769531 70.21875 141.523438 59.722656 135.109375 59.722656 L 159.988281 59.722656 C 179.234375 59.722656 194.980469 75.464844 194.980469 94.710938 C 194.980469 97.886719 194.511719 100.953125 193.710938 103.886719 C 191.394531 105.050781 188.871094 105.839844 186.210938 106.183594 C 210.527344 107.695312 229.96875 128.003906 229.96875 152.6875 C 229.96875 178.347656 208.976562 199.339844 183.316406 199.339844 L 139.773438 199.339844 C 152.601562 199.339844 163.101562 178.347656 163.101562 152.6875 C 163.101562 128.851562 156.367188 109.066406 144.796875 106.371094 C 144.796875 106.375 153.769531 100.492188 153.769531 83.046875 Z M 153.769531 83.046875 "/>
<path style=" stroke:none;fill-rule:nonzero;fill:rgb(100%,100%,100%);fill-opacity:1;" d="M 130.832031 113.371094 C 130.832031 123.679688 122.476562 132.03125 112.171875 132.03125 C 101.863281 132.03125 93.507812 123.679688 93.507812 113.371094 C 93.507812 103.066406 101.863281 94.710938 112.171875 94.710938 C 122.476562 94.710938 130.832031 103.066406 130.832031 113.371094 Z M 130.832031 113.371094 "/>
<path style=" stroke:none;fill-rule:nonzero;fill:rgb(8.627451%,19.607843%,33.725491%);fill-opacity:1;" d="M 123.832031 113.371094 C 123.832031 119.8125 118.613281 125.035156 112.171875 125.035156 C 105.730469 125.035156 100.507812 119.8125 100.507812 113.371094 C 100.507812 106.929688 105.730469 101.710938 112.171875 101.710938 C 118.613281 101.710938 123.832031 106.929688 123.832031 113.371094 Z M 123.832031 113.371094 "/>
<path style=" stroke:none;fill-rule:nonzero;fill:rgb(8.627451%,19.607843%,33.725491%);fill-opacity:1;" d="M 132.582031 107.539062 L 91.761719 107.539062 C 86.949219 107.539062 83.011719 103.605469 83.011719 98.792969 C 83.011719 93.980469 86.949219 90.046875 91.761719 90.046875 L 132.582031 90.046875 C 137.390625 90.046875 141.328125 93.980469 141.328125 98.792969 C 141.328125 103.605469 137.390625 107.539062 132.582031 107.539062 Z M 132.582031 107.539062 "/>
<path style=" stroke:none;fill-rule:nonzero;fill:rgb(100%,100%,100%);fill-opacity:1;" d="M 197.699219 113.371094 C 197.699219 123.679688 189.34375 132.03125 179.039062 132.03125 C 172.289062 132.03125 166.378906 128.449219 163.101562 123.082031 C 161.375 120.253906 160.378906 116.929688 160.378906 113.371094 C 160.378906 109.742188 161.414062 106.355469 163.207031 103.488281 C 166.503906 98.21875 172.363281 94.710938 179.039062 94.710938 C 189.34375 94.710938 197.699219 103.066406 197.699219 113.371094 Z M 197.699219 113.371094 "/>
<path style=" stroke:none;fill-rule:nonzero;fill:rgb(8.627451%,19.607843%,33.725491%);fill-opacity:1;" d="M 186.035156 113.371094 C 186.035156 119.8125 180.816406 125.035156 174.375 125.035156 C 167.933594 125.035156 162.710938 119.8125 162.710938 113.371094 C 162.710938 106.929688 167.933594 101.710938 174.375 101.710938 C 180.816406 101.710938 186.035156 106.929688 186.035156 113.371094 Z M 186.035156 113.371094 "/>
<path style=" stroke:none;fill-rule:nonzero;fill:rgb(8.627451%,19.607843%,33.725491%);fill-opacity:1;" d="M 202.363281 107.539062 L 163.75 107.539062 C 158.941406 107.539062 155.003906 103.601562 155.003906 98.792969 C 155.003906 93.980469 158.941406 90.046875 163.75 90.046875 L 202.363281 90.046875 C 207.171875 90.046875 211.109375 93.980469 211.109375 98.792969 C 211.109375 103.605469 207.171875 107.539062 202.363281 107.539062 Z M 202.363281 107.539062 "/>
<path style=" stroke:none;fill-rule:nonzero;fill:rgb(100%,100%,100%);fill-opacity:1;" d="M 167.375 122.703125 L 172.042969 111.039062 L 160.378906 115.703125 L 160.378906 121.339844 Z M 167.375 122.703125 "/>
<path style=" stroke:none;fill-rule:nonzero;fill:rgb(8.627451%,19.607843%,33.725491%);fill-opacity:1;" d="M 89.621094 83.046875 L 69.015625 83.046875 C 49.722656 83.046875 34.027344 67.351562 34.027344 48.058594 L 34.027344 34.0625 C 34.027344 27.621094 39.246094 22.398438 45.691406 22.398438 C 52.132812 22.398438 57.351562 27.621094 57.351562 34.0625 L 57.351562 48.058594 C 57.351562 54.488281 62.585938 59.722656 69.015625 59.722656 L 89.621094 59.722656 C 96.0625 59.722656 101.285156 64.941406 101.285156 71.382812 C 101.285156 77.828125 96.0625 83.046875 89.621094 83.046875 Z M 89.621094 83.046875 "/>
<path style=" stroke:none;fill-rule:nonzero;fill:rgb(8.627451%,19.607843%,33.725491%);fill-opacity:1;" d="M 190.539062 142.613281 L 96.683594 142.613281 C 91.277344 142.613281 86.621094 135.433594 84.523438 131.605469 C 83.734375 130.160156 82.222656 129.265625 80.574219 129.265625 C 78.089844 129.265625 76.070312 131.28125 76.070312 133.769531 L 76.070312 137.351562 C 76.070312 150.011719 86.335938 160.273438 98.992188 160.273438 L 190.507812 160.273438 "/>
<path style=" stroke:none;fill-rule:nonzero;fill:rgb(36.862746%,78.039217%,81.960785%);fill-opacity:1;" d="M 98.992188 156.683594 L 186.042969 156.683594 C 188.507812 156.683594 190.507812 158.679688 190.507812 161.148438 C 190.507812 163.613281 188.507812 165.613281 186.042969 165.613281 L 98.992188 165.613281 C 83.890625 165.613281 71.605469 153.328125 71.605469 138.226562 C 71.605469 138.226562 69.988281 125.675781 80.574219 125.675781 C 83.851562 125.675781 86.863281 127.460938 88.4375 130.332031 C 91.710938 136.304688 95.007812 139.023438 96.683594 139.023438 L 204.535156 139.023438 C 207.003906 139.023438 209 141.023438 209 143.488281 C 209 145.953125 207.003906 147.953125 204.535156 147.953125 L 96.683594 147.953125 C 89.433594 147.953125 83.941406 140.707031 80.609375 134.625 L 80.535156 134.644531 C 80.535156 134.644531 81.34375 156.683594 98.992188 156.683594 Z M 98.992188 156.683594 "/>
<path style=" stroke:none;fill-rule:nonzero;fill:rgb(100%,100%,100%);fill-opacity:1;" d="M 177.3125 147.996094 L 168.9375 156.683594 L 156.730469 156.683594 L 156.730469 147.996094 Z M 177.3125 147.996094 "/>
<path style=" stroke:none;fill-rule:nonzero;fill:rgb(100%,100%,100%);fill-opacity:1;" d="M 124.433594 147.996094 L 132.808594 156.683594 L 147.347656 156.683594 L 147.347656 147.996094 Z M 124.433594 147.996094 "/>
<path style=" stroke:none;fill-rule:nonzero;fill:rgb(100%,100%,100%);fill-opacity:1;" d="M 178.265625 147.972656 L 188.046875 170.929688 L 198.089844 147.972656 Z M 178.265625 147.972656 "/>
<path style=" stroke:none;fill-rule:nonzero;fill:rgb(100%,100%,100%);fill-opacity:1;" d="M 101.324219 147.972656 L 111.105469 170.929688 L 121.148438 147.972656 Z M 101.324219 147.972656 "/>
<path style=" stroke:none;fill-rule:nonzero;fill:rgb(36.862746%,78.039217%,81.960785%);fill-opacity:1;" d="M 164.015625 143.695312 L 145.355469 143.695312 C 137.625 143.695312 131.359375 137.429688 131.359375 129.699219 C 131.359375 121.96875 137.625 115.703125 145.355469 115.703125 L 164.015625 115.703125 C 171.746094 115.703125 178.011719 121.96875 178.011719 129.699219 C 178.011719 137.429688 171.746094 143.695312 164.015625 143.695312 Z M 164.015625 143.695312 "/>
<path style=" stroke:none;fill-rule:nonzero;fill:rgb(8.627451%,19.607843%,33.725491%);fill-opacity:1;" d="M 151.1875 139.03125 L 141.855469 139.03125 L 141.855469 126.035156 C 141.855469 125.484375 142.304688 125.035156 142.855469 125.035156 L 150.1875 125.035156 C 150.738281 125.035156 151.1875 125.484375 151.1875 126.035156 Z M 151.1875 139.03125 "/>
<path style=" stroke:none;fill-rule:nonzero;fill:rgb(8.627451%,19.607843%,33.725491%);fill-opacity:1;" d="M 167.515625 139.03125 L 158.183594 139.03125 L 158.183594 126.035156 C 158.183594 125.484375 158.632812 125.035156 159.183594 125.035156 L 166.515625 125.035156 C 167.066406 125.035156 167.515625 125.484375 167.515625 126.035156 Z M 167.515625 139.03125 "/>
<path style=" stroke:none;fill-rule:nonzero;fill:rgb(8.627451%,19.607843%,33.725491%);fill-opacity:1;" d="M 127.039062 199.703125 C 127.039062 199.703125 169.320312 205.703125 172.625 223.199219 C 172.625 223.199219 196 191.902344 162.320312 165.660156 C 162.320312 165.660156 159.40625 199.703125 127.039062 199.703125 Z M 127.039062 199.703125 "/>
<path style=" stroke:none;fill-rule:nonzero;fill:rgb(100%,100%,100%);fill-opacity:1;" d="M 105.171875 122.703125 L 109.839844 111.039062 L 98.175781 115.703125 L 98.175781 121.339844 Z M 105.171875 122.703125 "/>
</g>
</svg>
