<svg width="1200" height="1200" viewBox="0 0 1200 1200" fill="none" xmlns="http://www.w3.org/2000/svg">
<rect width="1200" height="1200" fill="url(#paint0_linear)"/>
<path fill-rule="evenodd" clip-rule="evenodd" d="M229.118 449.923C268.882 410.267 322.799 388 379.004 388H573V493.306H379.004C350.725 493.306 323.617 504.511 303.64 524.433C283.669 544.351 272.46 571.349 272.457 599.487M229.118 449.923C189.352 489.582 167 543.385 167 599.5L229.118 449.923ZM229.118 449.923L167 599.5L229.118 449.923ZM229.118 449.923L167 599.5C167.014 655.607 189.37 709.412 229.13 749.065C268.888 788.716 322.794 810.986 378.991 811H573V705.694H379.018C350.741 705.683 323.626 694.475 303.652 674.555C283.68 654.637 272.468 627.626 272.457 599.487" fill="white"/>
<path fill-rule="evenodd" clip-rule="evenodd" d="M823.019 389C878.928 388.989 932.567 411.231 972.137 450.855C1011.71 490.481 1033.97 544.249 1034 600.34M823.019 389C823.023 389 823.015 389 823.019 389V389ZM823.019 389H630V494.306H823.019C851.147 494.299 878.126 505.489 898.003 525.393C917.877 545.295 929.038 572.279 929.052 600.406C929.063 614.349 926.332 628.173 921.013 641.061C915.694 653.949 907.892 665.665 898.048 675.538C888.204 685.411 876.511 693.246 863.636 698.593C850.762 703.94 836.959 706.694 823.019 706.694H630V812H823.019C850.73 812 878.17 806.528 903.773 795.894C929.376 785.261 952.641 769.673 972.238 750.02C991.834 730.367 1007.38 707.032 1017.98 681.348C1028.57 655.669 1034.02 628.133 1034 600.34" fill="white"/>
<defs>
<linearGradient id="paint0_linear" x1="102.5" y1="8.55823e-06" x2="949" y2="1200" gradientUnits="userSpaceOnUse">
<stop offset="0.364583" stop-color="#3463F8"/>
<stop offset="1" stop-color="#093EE2"/>
</linearGradient>
</defs>
</svg>
