<svg height="250" viewBox="0 0 250 250" width="250" xmlns="http://www.w3.org/2000/svg" xmlns:xlink="http://www.w3.org/1999/xlink"><linearGradient id="a" gradientUnits="userSpaceOnUse" x1="41.6667" x2="208.3335" y1="125.0001" y2="125.0001"><stop offset="0" stop-color="#0082fa"/><stop offset="1" stop-color="#00f2fe"/></linearGradient><g fill="url(#a)"><path d="m61.875 70.472656c1.035156-1.300781 2.128906-2.550781 3.226562-3.804687.050782-.0625.160157-.074219.210938-.136719.097656-.121094.257812-.199219.355469-.320312l.101562-.125c.761719-.707032 1.578125-1.476563 2.515625-2.144532 3.316406-2.519531 6.761719-4.433594 10.390625-5.695312 11.648438-4.085938 24.613281-1.566406 34.78125 8.03125 14.195313 13.308594 12.925781 34.742187 1.589844 48.992187-14.320313 21.242188-38.929687 50.875-4.855469 77.421875 6.128906 4.773438 10.671875 8.710938 29.972656 14.285156-12.621093 2.324219-24.324218 1.601563-37.351562-1.722656-9.214844-5.203125-23.703125-16.339844-28.628906-31.378906-7.449219-22.808594 13.113281-56.902344 23.050781-70.035156 13.644531-18.171875-8.433594-37.847656-24.6875-15.882813-8.496094 11.445313-23.363281 43.835938-18.195313 67.863281 3.019532 13.621094 7.046876 23.554688 23.007813 37.195313-2.960937-1.746094-5.835937-3.726563-8.621094-5.941406-37.089843-34.550781-32.785156-87.964844-6.863281-116.601563zm0 0"/><path d="m188.125 179.527344c-1.035156 1.300781-2.128906 2.550781-3.226562 3.804687-.050782.0625-.160157.074219-.210938.136719-.097656.121094-.257812.199219-.355469.320312l-.101562.125c-.761719.707032-1.578125 1.476563-2.515625 2.144532-3.316406 2.519531-6.761719 4.433594-10.390625 5.695312-11.648438 4.085938-24.613281 1.566406-34.78125-8.03125-14.195313-13.308594-12.925781-34.742187-1.589844-48.992187 14.320313-21.242188 38.929687-50.875 4.855469-77.421875-6.128906-4.773438-10.671875-8.710938-29.972656-14.285156 12.621093-2.324219 24.324218-1.601563 37.351562 1.722656 9.214844 5.203125 23.703125 16.339844 28.628906 31.378906 7.449219 22.808594-13.113281 56.902344-23.050781 70.035156-13.644531 18.171875 8.433594 37.847656 24.6875 15.882813 8.496094-11.445313 23.363281-43.835938 18.195313-67.863281-3.019532-13.621094-7.046876-23.554688-23.007813-37.195313 2.960937 1.746094 5.835937 3.726563 8.621094 5.941406 37.089843 34.550781 32.785156 87.964844 6.863281 116.601563zm0 0"/></g></svg>