<svg height="250" viewBox="0 0 250 250" width="250" xmlns="http://www.w3.org/2000/svg"><path d="m129.332031 1.25h-.109375v112.132812c8.953125 1.710938 15.679688 8.945313 15.679688 17.613282 0 2.652344-.648438 5.164062-1.777344 7.429687l105.90625 43.882813-123.875 66.75 123.878906-66.75zm0 0" fill="#1e3c64"/><path d="m1.273438 182.308594 105.910156-43.882813c-1.128906-2.265625-1.773438-4.777343-1.773438-7.429687 0-8.667969 6.722656-15.902344 15.675782-17.613282v-112.132812h-.105469zm0 0" fill="#3c82b4"/><path d="m143.125 138.425781c-3.105469 6.230469-9.972656 10.570313-17.972656 10.570313l.003906 100.0625 123.875-66.75zm0 0" fill="#142846"/><path d="m125.152344 249.058594v-100.0625c-7.996094 0-14.863282-4.339844-17.96875-10.570313l-105.910156 43.882813zm0 0" fill="#2d4b69"/></svg>