
<svg xmlns="http://www.w3.org/2000/svg" xmlns:xlink="http://www.w3.org/1999/xlink" width="250px" height="250px" viewBox="0 0 250 250" version="1.1">
<g id="surface1">
<path style=" stroke:none;fill-rule:nonzero;fill:rgb(0%,0%,0%);fill-opacity:1;" d="M 98.160156 55.214844 C 98.160156 57.976562 99.234375 58.28125 107.363281 58.28125 C 115.492188 58.28125 116.5625 58.589844 116.5625 61.351562 C 116.5625 64.265625 117.636719 64.417969 137.269531 64.417969 C 156.902344 64.417969 157.976562 64.265625 157.976562 61.351562 C 157.976562 58.589844 159.050781 58.28125 167.179688 58.28125 C 175.308594 58.28125 176.378906 57.976562 176.378906 55.214844 C 176.378906 52.300781 175.308594 52.148438 137.269531 52.148438 C 99.234375 52.148438 98.160156 52.300781 98.160156 55.214844 Z M 98.160156 55.214844 "/>
<path style=" stroke:none;fill-rule:nonzero;fill:rgb(0%,0%,0%);fill-opacity:1;" d="M 73.621094 73.621094 C 73.621094 76.378906 74.691406 76.6875 83.589844 76.6875 L 93.558594 76.6875 L 93.558594 219.324219 L 83.589844 219.324219 C 73.925781 219.324219 73.621094 219.480469 73.621094 223.160156 L 73.621094 226.992188 L 151.839844 226.992188 L 151.839844 223.160156 C 151.839844 219.480469 151.378906 219.324219 142.636719 219.324219 L 133.4375 219.324219 L 133.4375 76.6875 L 143.097656 76.6875 C 151.6875 76.6875 152.761719 76.378906 152.761719 73.621094 C 152.761719 70.707031 151.6875 70.550781 113.191406 70.550781 C 74.691406 70.550781 73.621094 70.707031 73.621094 73.621094 Z M 73.621094 73.621094 "/>
<path style=" stroke:none;fill-rule:nonzero;fill:rgb(0%,0%,0%);fill-opacity:1;" d="M 139.570312 145.707031 L 139.570312 208.589844 L 176.378906 208.589844 L 176.378906 204.753906 C 176.378906 201.074219 175.921875 200.921875 167.179688 200.921875 L 157.976562 200.921875 L 157.976562 82.820312 L 139.570312 82.820312 Z M 139.570312 145.707031 "/>
</g>
</svg>
