<svg height="250" viewBox="0 0 250 250" width="250" xmlns="http://www.w3.org/2000/svg" xmlns:xlink="http://www.w3.org/1999/xlink"><linearGradient id="a"><stop offset="0" stop-color="#00dc9c"/><stop offset="1" stop-color="#00d3dc"/></linearGradient><linearGradient id="b" gradientTransform="matrix(49.285156 0 0 60.121094 151.113281 .148438)" gradientUnits="userSpaceOnUse" x1="-2.634853" x2="3.115918" xlink:href="#a" y1="-.821048" y2="2.061433"/><filter id="c" height="100%" width="100%" x="0%" y="0%"><feColorMatrix in="SourceGraphic" type="matrix" values="0 0 0 0 1 0 0 0 0 1 0 0 0 0 1 0 0 0 1 0"/></filter><mask id="d"><g filter="url(#c)"><path d="m0 0h250v250h-250z" fill-opacity=".9"/></g></mask><linearGradient id="e" gradientTransform="matrix(49.28125 0 0 60.125 200.398438 30.25)" gradientUnits="userSpaceOnUse" x1="-3.634246" x2="2.116525" xlink:href="#a" y1="-1.322645" y2="1.559836"/><clipPath id="f"><path d="m0 0h250v250h-250z"/></clipPath><mask id="g"><g filter="url(#c)"><path d="m0 0h250v250h-250z" fill-opacity=".8"/></g></mask><linearGradient id="h" gradientTransform="matrix(49.285156 0 0 60.125 151.113281 60.269531)" gradientUnits="userSpaceOnUse" x1="-3.163588" x2="2.587181" xlink:href="#a" y1="-1.08636" y2="1.796121"/><clipPath id="i"><path d="m0 0h250v250h-250z"/></clipPath><mask id="j"><g filter="url(#c)"><path d="m0 0h250v250h-250z" fill-opacity=".8"/></g></mask><linearGradient id="k" gradientTransform="matrix(49.28125 0 0 60.121094 200.398437 90.375)" gradientUnits="userSpaceOnUse" x1="-4.163486" x2="1.587284" xlink:href="#a" y1="-1.587958" y2="1.294523"/><clipPath id="l"><path d="m0 0h250v250h-250z"/></clipPath><mask id="m"><g filter="url(#c)"><path d="m0 0h250v250h-250z" fill-opacity=".8"/></g></mask><linearGradient id="n" gradientTransform="matrix(49.285156 0 0 60.121094 151.113281 120.394531)" gradientUnits="userSpaceOnUse" x1="-3.696927" x2="2.053843" xlink:href="#a" y1="-1.353722" y2="1.528759"/><clipPath id="o"><path d="m0 0h250v250h-250z"/></clipPath><linearGradient id="p" gradientTransform="matrix(49.28125 0 0 60.125 200.398437 150.496094)" gradientUnits="userSpaceOnUse" x1="-4.696774" x2="1.053992" xlink:href="#a" y1="-1.855321" y2="1.02716"/><mask id="q"><g filter="url(#c)"><path d="m0 0h250v250h-250z" fill-opacity=".5"/></g></mask><linearGradient id="r" gradientTransform="matrix(49.28125 0 0 60.125 23.726562 58.246094)" gradientUnits="userSpaceOnUse" x1="-1.070543" x2="4.680228" xlink:href="#a" y1="-.037461" y2="2.84502"/><clipPath id="s"><path d="m0 0h250v250h-250z"/></clipPath><mask id="t"><g filter="url(#c)"><path d="m0 0h250v250h-250z" fill-opacity=".2"/></g></mask><linearGradient id="u" gradientTransform="matrix(49.207031 0 0 60.121094 85.90625 80.59375)" gradientUnits="userSpaceOnUse" x1="-2.03696" x2="3.723115" xlink:href="#a" y1="-.519466" y2="2.363014"/><clipPath id="v"><path d="m0 0h250v250h-250z"/></clipPath><mask id="w"><g filter="url(#c)"><path d="m0 0h250v250h-250z" fill-opacity=".4"/></g></mask><linearGradient id="x" gradientTransform="matrix(49.285156 0 0 60.121094 49.363281 118.625)" gradientUnits="userSpaceOnUse" x1="-2.23283" x2="3.517937" xlink:href="#a" y1="-.620323" y2="2.262157"/><clipPath id="y"><path d="m0 0h250v250h-250z"/></clipPath><mask id="z"><g filter="url(#c)"><path d="m0 0h250v250h-250z" fill-opacity=".9"/></g></mask><linearGradient id="A" gradientTransform="matrix(49.203125 0 0 60.125 81.847656 163.988281)" gradientUnits="userSpaceOnUse" x1="-2.97727" x2="2.782801" xlink:href="#a" y1="-.990236" y2="1.892245"/><clipPath id="B"><path d="m0 0h250v250h-250z"/></clipPath><mask id="C"><g filter="url(#c)"><path d="m0 0h250v250h-250z" fill-opacity=".7"/></g></mask><linearGradient id="D" gradientTransform="matrix(49.207031 0 0 60.125 150.714844 189.875)" gradientUnits="userSpaceOnUse" x1="-4.34374" x2="1.416337" xlink:href="#a" y1="-1.67415" y2="1.208331"/><clipPath id="E"><path d="m0 0h250v250h-250z"/></clipPath><mask id="F"><g filter="url(#c)"><path d="m0 0h250v250h-250z" fill-opacity=".9"/></g></mask><linearGradient id="G" gradientTransform="matrix(49.203125 0 0 60.125 94.109375 50.910156)" gradientUnits="userSpaceOnUse" x1="-2.246123" x2="3.513953" xlink:href="#a" y1="-.6239" y2="2.258581"/><clipPath id="H"><path d="m0 0h250v250h-250z"/></clipPath><mask id="I"><g filter="url(#c)"><path d="m0 0h250v250h-250z" fill-opacity=".8"/></g></mask><linearGradient id="J" gradientTransform="matrix(49.28125 0 0 60.121094 101.832031 .148438)" gradientUnits="userSpaceOnUse" x1="-1.667861" x2="4.08291" xlink:href="#a" y1="-.83662" y2="2.045861"/><clipPath id="K"><path d="m0 0h250v250h-250z"/></clipPath><mask id="L"><g filter="url(#c)"><path d="m0 0h250v250h-250z" fill-opacity=".7"/></g></mask><linearGradient id="M" gradientTransform="matrix(49.285156 0 0 60.121094 44.824219 25.699219)" gradientUnits="userSpaceOnUse" x1="-.990733" x2="4.760037" xlink:href="#a" y1="-.497592" y2="2.384888"/><clipPath id="N"><path d="m0 0h250v250h-250z"/></clipPath><mask id="O"><g filter="url(#c)"><path d="m0 0h250v250h-250z" fill-opacity=".6"/></g></mask><linearGradient id="P" gradientTransform="matrix(49.28125 0 0 60.121094 94.109375 55.464844)" gradientUnits="userSpaceOnUse" x1="-2.052766" x2="3.698003" xlink:href="#a" y1="-1.029526" y2="1.852954"/><clipPath id="Q"><path d="m0 0h250v250h-250z"/></clipPath><linearGradient id="R" gradientTransform="matrix(49.28125 0 0 60.121094 36.386719 80.59375)" gradientUnits="userSpaceOnUse" x1="-1.24231" x2="4.508456" xlink:href="#a" y1="-.62356" y2="2.258921"/><mask id="S"><g filter="url(#c)"><path d="m0 0h250v250h-250z" fill-opacity=".6"/></g></mask><linearGradient id="T" gradientTransform="matrix(49.203125 0 0 60.121094 101.910156 120.394531)" gradientUnits="userSpaceOnUse" x1="-2.733921" x2="3.02615" xlink:href="#a" y1="-1.368292" y2="1.514189"/><clipPath id="U"><path d="m0 0h250v250h-250z"/></clipPath><mask id="V"><g filter="url(#c)"><path d="m0 0h250v250h-250z" fill-opacity=".65"/></g></mask><linearGradient id="W" gradientTransform="matrix(49.285156 0 0 60.125 .078125 134.390625)" gradientUnits="userSpaceOnUse" x1="-1.022454" x2="4.728315" xlink:href="#a" y1="-.513773" y2="2.368708"/><clipPath id="X"><path d="m0 0h250v250h-250z"/></clipPath><linearGradient id="Y" gradientTransform="matrix(49.28125 0 0 60.125 200.398438 60.269531)" gradientUnits="userSpaceOnUse" x1="-3.666764" x2="2.084002" xlink:href="#a" y1="-1.838244" y2="1.044236"/><mask id="Z"><g filter="url(#c)"><path d="m0 0h250v250h-250z" fill-opacity=".95"/></g></mask><linearGradient id="aa" gradientTransform="matrix(49.285156 0 0 60.121094 151.113281 90.375)" gradientUnits="userSpaceOnUse" x1="-3.198136" x2="2.552635" xlink:href="#a" y1="-1.604386" y2="1.278094"/><clipPath id="ab"><path d="m0 0h250v250h-250z"/></clipPath><mask id="ac"><g filter="url(#c)"><path d="m0 0h250v250h-250z" fill-opacity=".9"/></g></mask><linearGradient id="ad" gradientTransform="matrix(49.28125 0 0 60.121094 200.398437 120.394531)" gradientUnits="userSpaceOnUse" x1="-4.195378" x2="1.555388" xlink:href="#a" y1="-2.103557" y2=".778924"/><clipPath id="ae"><path d="m0 0h250v250h-250z"/></clipPath><mask id="af"><g filter="url(#c)"><path d="m0 0h250v250h-250z" fill-opacity=".7"/></g></mask><linearGradient id="ag" gradientTransform="matrix(49.285156 0 0 60.125 151.113281 150.496094)" gradientUnits="userSpaceOnUse" x1="-3.727561" x2="2.023208" xlink:href="#a" y1="-1.869698" y2="1.012781"/><clipPath id="ah"><path d="m0 0h250v250h-250z"/></clipPath><mask id="ai"><g filter="url(#c)"><path d="m0 0h250v250h-250z" fill-opacity=".4"/></g></mask><linearGradient id="aj" gradientTransform="matrix(49.285156 0 0 60.121094 90.921875 175.542969)" gradientUnits="userSpaceOnUse" x1="-2.985888" x2="2.764882" xlink:href="#a" y1="-1.496943" y2="1.385537"/><clipPath id="ak"><path d="m0 0h250v250h-250z"/></clipPath><linearGradient id="al" gradientTransform="matrix(49.285156 0 0 60.125 151.113281 30.25)" gradientUnits="userSpaceOnUse" x1="-2.664748" x2="3.086018" xlink:href="#a" y1="-1.337024" y2="1.545457"/><path d="m151.113281.148438v60.121093l49.285157-30.019531zm0 0" fill="url(#b)"/><g clip-path="url(#f)" mask="url(#d)"><path d="m200.398438 30.25v60.125l49.28125-30.105469zm0 0" fill="url(#e)"/></g><g clip-path="url(#i)" mask="url(#g)"><path d="m151.113281 60.269531v60.125l49.285157-30.019531zm0 0" fill="url(#h)"/></g><g clip-path="url(#l)" mask="url(#j)"><path d="m200.398438 90.375v60.121094l49.28125-30.101563zm0 0" fill="url(#k)"/></g><g clip-path="url(#o)" mask="url(#m)"><path d="m151.113281 120.394531v60.121094l49.285157-30.019531zm0 0" fill="url(#n)"/></g><path d="m200.398438 150.496094v60.125l49.28125-30.105469zm0 0" fill="url(#p)"/><g clip-path="url(#s)" mask="url(#q)"><path d="m23.726562 58.246094v60.125l49.28125-30.105469zm0 0" fill="url(#r)"/></g><g clip-path="url(#v)" mask="url(#t)"><path d="m85.90625 80.59375v60.121094l49.207031-30.101563zm0 0" fill="url(#u)"/></g><g clip-path="url(#y)" mask="url(#w)"><path d="m49.363281 118.625v60.121094l49.285157-30.105469zm0 0" fill="url(#x)"/></g><g clip-path="url(#B)" mask="url(#z)"><path d="m81.847656 163.988281v60.125l49.203125-30.105469zm0 0" fill="url(#A)"/></g><g clip-path="url(#E)" mask="url(#C)"><path d="m150.714844 189.875v60.125l49.207031-30.105469zm0 0" fill="url(#D)"/></g><g clip-path="url(#H)" mask="url(#F)"><path d="m94.109375 50.910156v60.125l49.203125-30.019531zm0 0" fill="url(#G)"/></g><g clip-path="url(#K)" mask="url(#I)"><path d="m151.113281.148438v60.121093l-49.28125-30.019531zm0 0" fill="url(#J)"/></g><g clip-path="url(#N)" mask="url(#L)"><path d="m94.109375 25.699219v60.121093l-49.285156-30.101562zm0 0" fill="url(#M)"/></g><g clip-path="url(#Q)" mask="url(#O)"><path d="m143.390625 55.464844v60.121094l-49.28125-30.101563zm0 0" fill="url(#P)"/></g><path d="m85.667969 80.59375v60.121094l-49.28125-30.101563zm0 0" fill="url(#R)"/><g clip-path="url(#U)" mask="url(#S)"><path d="m151.113281 120.394531v60.121094l-49.203125-30.019531zm0 0" fill="url(#T)"/></g><g clip-path="url(#X)" mask="url(#V)"><path d="m49.363281 134.390625v60.125l-49.285156-30.105469zm0 0" fill="url(#W)"/></g><path d="m249.679688 60.269531v60.125l-49.28125-30.019531zm0 0" fill="url(#Y)"/><g clip-path="url(#ab)" mask="url(#Z)"><path d="m200.398438 90.375v60.121094l-49.285157-30.101563zm0 0" fill="url(#aa)"/></g><g clip-path="url(#ae)" mask="url(#ac)"><path d="m249.679688 120.394531v60.121094l-49.28125-30.019531zm0 0" fill="url(#ad)"/></g><g clip-path="url(#ah)" mask="url(#af)"><path d="m200.398438 150.496094v60.125l-49.285157-30.105469zm0 0" fill="url(#ag)"/></g><g clip-path="url(#ak)" mask="url(#ai)"><path d="m140.207031 175.542969v60.121093l-49.285156-30.019531zm0 0" fill="url(#aj)"/></g><path d="m200.398438 30.25v60.125l-49.285157-30.105469zm0 0" fill="url(#al)"/></svg>