<svg height="250" viewBox="0 0 250 250" width="250" xmlns="http://www.w3.org/2000/svg" xmlns:xlink="http://www.w3.org/1999/xlink"><linearGradient id="a" gradientUnits="userSpaceOnUse" x1="24.81290725999" x2="73.7081157505" y1="179.36990897687" y2="94.68097307298"><stop offset="0" stop-color="#7bd8d7"/><stop offset="1" stop-color="#375fa2"/></linearGradient><linearGradient id="b" gradientUnits="userSpaceOnUse" x1="89.25138152156" x2="145.34723242545" y1="16.78679316201" y2="113.94760866955"><stop offset="0" stop-color="#8bf6de"/><stop offset="1" stop-color="#5393fb"/></linearGradient><linearGradient id="c" gradientUnits="userSpaceOnUse" x1="250.787502965" x2="49.10121891197" y1="91.14414866794" y2="232.36639830789"><stop offset="0" stop-color="#8dfbc6"/><stop offset="1" stop-color="#5393fb"/></linearGradient><path d="m13.332031 78.269531c6.441407-6.855469 16.949219-8.648437 25.421875-3.753906l87.433594 50.46875-87.398438 50.5c-8.472656 4.894531-19.015624 3.101563-25.421874-3.753906-.035157-.101563.035156-99.59375-.035157-93.460938zm0 0" fill="url(#a)"/><path d="m221.234375 52.433594c2.34375 8.816406-1.273437 18.464844-9.578125 23.21875l-85.433594 49.332031-87.433594-50.46875c-8.472656-4.894531-19.015624-3.101563-25.421874 3.753906.101562-10.988281 5.992187-21.082031 15.5-26.59375l80.199218-46.335937c9.613282-5.546875 21.429688-5.546875 31.039063 0zm0 0" fill="url(#b)"/><path d="m38.789062 175.484375 172.902344-99.832031c8.269532-4.789063 11.507813-14.402344 9.164063-23.21875 9.058593 5.648437 14.089843 15.605468 14.089843 26.351562v92.671875c0 11.089844-5.410156 21.355469-15.019531 26.902344l-79.992187 46.300781c-9.609375 5.546875-21.324219 5.546875-30.933594 0l-80.199219-46.335937c-9.507812-5.511719-15.398437-15.605469-15.503906-26.59375 6.441406 6.855469 16.984375 8.648437 25.492187 3.753906zm0 0" fill="url(#c)"/></svg>