<svg id="Layer_1" data-name="Layer 1" xmlns="http://www.w3.org/2000/svg" xmlns:xlink="http://www.w3.org/1999/xlink" viewBox="0 0 64 64"><defs><style>.cls-1{fill:none;}.cls-2{fill:url(#linear-gradient);}.cls-3{fill:#fff;}.cls-4{fill:#5f2652;}</style><linearGradient id="linear-gradient" x1="-6.5" y1="30.05" x2="70.5" y2="30.05" gradientUnits="userSpaceOnUse"><stop offset="0" stop-color="#0157d0"/><stop offset="0.14" stop-color="#015fcd"/><stop offset="0.36" stop-color="#0174c6"/><stop offset="0.63" stop-color="#0098ba"/><stop offset="0.94" stop-color="#00c8aa"/><stop offset="1" stop-color="#00d3a6"/></linearGradient></defs><title>itoken_REP-clearchip</title><ellipse class="cls-1" cx="32" cy="32" rx="25.5" ry="25.45"/><path class="cls-2" d="M64,32A32,32,0,1,0,16.67,60.09l1.38,0H46l1.38,0A32,32,0,0,0,64,32Z"/><ellipse class="cls-3" cx="32" cy="32" rx="25.5" ry="25.45"/><ellipse class="cls-1" cx="32" cy="32" rx="25.5" ry="25.45"/><path class="cls-4" d="M46.32,46.45a20,20,0,0,1-14.44,5.82,19.55,19.55,0,0,1-14.31-5.82A19.39,19.39,0,0,1,11.7,32.12,20,20,0,0,1,31.88,11.73a20,20,0,0,1,14.44,5.82,19.5,19.5,0,0,1,6,14.57A19.22,19.22,0,0,1,46.32,46.45Z"/><path class="cls-3" d="M42.65,37.38l-9.8-17.56a1,1,0,0,0-1.71,0l-9.8,17.56a1,1,0,0,0,.35,1.31l9.81,5.86a1,1,0,0,0,1,0l9.8-5.85a1,1,0,0,0,.33-1.32m-7.4-7.08L35,30.1h0l-.24-.17v0l-.26-.16s0,0,0,0a2,2,0,0,0-.25-.13s0,0,0,0l-.26-.11s0,0,0,0l-.24-.09a3.93,3.93,0,0,0-.67-.19,3.24,3.24,0,0,1-.68.88,3.78,3.78,0,0,1,1.18.28,4.42,4.42,0,0,1,.61.32l0,0a.63.63,0,0,1,.15.11l.06.05.14.11.08.06.12.11.08.08.1.11.08.08.1.11.08.09.07.12a.34.34,0,0,1,.07.11l.08.12a1.05,1.05,0,0,0,.07.11l.06.12a.47.47,0,0,1,.07.12.43.43,0,0,1,0,.12s0,.1.07.14a3.64,3.64,0,0,1,.23.86l.12.46a4.31,4.31,0,0,0,1.66,2.49c1.28.66,3,1.5,3.65,1.81l-8.81,5.27V39.81c0-.57,1.14-1.24,1.66-1.47h0l.33-.17,0,0a4,4,0,0,0,.64-.47s0,0,0,0,0,0,.07,0,.12-.12.18-.17l0,0a1.9,1.9,0,0,0,.19-.21s0,0,0-.07.09-.12.15-.19,0,0,0,0l.16-.24s0,0,0,0l.21-.33a5,5,0,0,1-.63-1,4.29,4.29,0,0,1-.26.58l-.13.23,0,0c0,.07-.09.13-.13.19s0,0,0,0L35,36.5l0,0a3.68,3.68,0,0,1-1.15.88l-.08,0c-.23.09-2.19,1-2.19,2.34v3.6l-8.83-5.25a19.45,19.45,0,0,1,3.6-1.76c.54-.17,1.67.55,2.32,1.07l0,0,.26.23,0,0a3.71,3.71,0,0,0,.65.44l.17.08,0,0a4.9,4.9,0,0,0,.46.21l.06,0h.06a5.31,5.31,0,0,0,.68.2,3.28,3.28,0,0,1,.69-.88,3.44,3.44,0,0,1-1.09-.24l-.06,0-.12-.05s0,0-.05,0l-.11,0a4,4,0,0,1-.73-.47l-.35-.32a5.84,5.84,0,0,0-1-.75A2.81,2.81,0,0,0,26,35.44,18.06,18.06,0,0,0,22.7,37l8.81-15.81v6.93c0,.24-.36.88-1.58,1.43l-.07,0a3,3,0,0,0-.35.19h0a5.13,5.13,0,0,0-.65.47,2.39,2.39,0,0,0-.36.35l0,0a2.24,2.24,0,0,0-.32.37h0l-.14.21s0,0,0,0l-.12.19s0,0,0,0l-.12.2s0,0,0,.05a1.54,1.54,0,0,0-.09.19,0,0,0,0,1,0,0,1.54,1.54,0,0,1-.08.19.19.19,0,0,0,0,.07l-.08.2,0,.07a.58.58,0,0,1-.05.14.41.41,0,0,0,0,.08c0,.07,0,.14-.05.19s0,.07,0,.09,0,.1,0,.14a.53.53,0,0,0,0,.12s0,.11,0,.16,0,.07,0,.11,0,.09,0,.14a.77.77,0,0,1,0,.15V34a5.81,5.81,0,0,0,.05.72,5.23,5.23,0,0,1,1.1.42A3.93,3.93,0,0,1,28.05,34V34a2.44,2.44,0,0,1,0-.27v-.06a1.81,1.81,0,0,1,0-.23v0a1.87,1.87,0,0,0,0-.25s0,0,0-.07,0-.13.05-.2,0,0,0,0l.08-.24s0,0,0-.05a1.82,1.82,0,0,1,.08-.19l0,0c0-.08.07-.15.12-.22l0,0,.11-.19,0,0a2.43,2.43,0,0,1,.14-.2h0l.14-.19,0,0a3.94,3.94,0,0,1,.82-.7l.41-.2c.23-.09,2.18-1,2.18-2.37v-6.9l8.9,15.94c-.79-.38-2.2-1.08-3.28-1.64-.63-.32-1-1.46-1.16-1.87l-.12-.48a2.5,2.5,0,0,0-.15-.76,5,5,0,0,0-1.39-2.06"/></svg>