
<svg xmlns="http://www.w3.org/2000/svg" xmlns:xlink="http://www.w3.org/1999/xlink" width="250px" height="250px" viewBox="0 0 250 250" version="1.1">
<defs>
<linearGradient id="linear0" gradientUnits="userSpaceOnUse" x1="-192" y1="-160" x2="1024.069946" y2="1023.919983" gradientTransform="matrix(0.244141,0,0,0.244141,0,0)">
<stop offset="0" style="stop-color:rgb(48.235294%,55.686277%,33.725491%);stop-opacity:1;"/>
<stop offset="1" style="stop-color:rgb(73.725492%,78.039217%,64.313728%);stop-opacity:1;"/>
</linearGradient>
</defs>
<g id="surface1">
<rect x="0" y="0" width="250" height="250" style="fill:url(#linear0);stroke:none;"/>
<path style=" stroke:none;fill-rule:nonzero;fill:rgb(100%,100%,100%);fill-opacity:1;" d="M 97.625 136.015625 C 102.75 136.015625 106.910156 122.945312 106.910156 106.824219 C 106.910156 90.699219 102.75 77.632812 97.625 77.632812 C 92.496094 77.632812 88.335938 90.699219 88.335938 106.824219 C 88.335938 122.945312 92.496094 136.015625 97.625 136.015625 Z M 97.625 136.015625 "/>
<path style=" stroke:none;fill-rule:nonzero;fill:rgb(100%,100%,100%);fill-opacity:1;" d="M 152.367188 136.015625 C 157.496094 136.015625 161.652344 122.945312 161.652344 106.824219 C 161.652344 90.699219 157.496094 77.632812 152.367188 77.632812 C 147.238281 77.632812 143.082031 90.699219 143.082031 106.824219 C 143.082031 122.945312 147.238281 136.015625 152.367188 136.015625 Z M 152.367188 136.015625 "/>
<path style=" stroke:none;fill-rule:nonzero;fill:rgb(100%,100%,100%);fill-opacity:1;" d="M 124.996094 105.261719 C 130.125 105.261719 134.28125 92.191406 134.28125 76.066406 C 134.28125 59.945312 130.125 46.875 124.996094 46.875 C 119.867188 46.875 115.707031 59.945312 115.707031 76.066406 C 115.707031 92.191406 119.867188 105.261719 124.996094 105.261719 Z M 124.996094 105.261719 "/>
<path style=" stroke:none;fill-rule:nonzero;fill:rgb(100%,100%,100%);fill-opacity:1;" d="M 196.054688 158.445312 C 193.394531 159.789062 189.757812 160.414062 186.019531 160.414062 C 185.40625 160.414062 184.792969 160.394531 184.179688 160.363281 C 183.199219 173.035156 175.34375 185.738281 163.855469 193.054688 C 154.9375 198.925781 143.4375 202.28125 129.703125 203.023438 C 128.050781 203.089844 126.429688 203.125 124.835938 203.125 C 108.882812 203.125 95.640625 199.746094 85.410156 193.054688 C 73.933594 185.746094 66.085938 173.054688 65.101562 160.390625 C 64.699219 160.40625 64.296875 160.414062 63.894531 160.414062 C 60.15625 160.414062 56.519531 159.789062 53.859375 158.445312 C 52.847656 157.9375 52.445312 156.707031 52.953125 155.695312 C 53.464844 154.691406 54.691406 154.285156 55.699219 154.792969 C 61.410156 157.675781 73.171875 156.128906 76.246094 152.980469 C 77.03125 152.171875 78.328125 152.152344 79.132812 152.941406 C 79.945312 153.730469 79.960938 155.023438 79.171875 155.835938 C 76.9375 158.125 72.558594 159.636719 67.847656 160.183594 C 72.539062 177.28125 86.726562 189.589844 106.117188 193.257812 C 124.273438 196.648438 142.542969 195.15625 156.230469 189.167969 C 168.726562 183.773438 178.0625 172.980469 181.46875 160.109375 C 176.984375 159.503906 172.878906 158.027344 170.742188 155.835938 C 169.953125 155.023438 169.96875 153.730469 170.777344 152.941406 C 171.585938 152.152344 172.878906 152.171875 173.667969 152.980469 C 176.742188 156.128906 188.5 157.675781 194.214844 154.792969 C 195.21875 154.285156 196.449219 154.691406 196.957031 155.695312 C 197.46875 156.707031 197.0625 157.9375 196.054688 158.445312 Z M 196.054688 158.445312 "/>
</g>
</svg>
