<svg height="250" viewBox="0 0 250 250" width="250" xmlns="http://www.w3.org/2000/svg" xmlns:xlink="http://www.w3.org/1999/xlink"><linearGradient id="a" gradientUnits="userSpaceOnUse" x1="-46.875072" x2="250.01746068639" y1="-39.06256" y2="249.9808485696"><stop offset="0" stop-color="#7b8e56"/><stop offset="1" stop-color="#bcc7a4"/></linearGradient><path d="m0 0h250v250h-250z" fill="url(#a)"/><g fill="#fff"><path d="m97.625 136.015625c5.125 0 9.285156-13.070313 9.285156-29.191406 0-16.125-4.160156-29.191407-9.285156-29.191407-5.128906 0-9.289062 13.066407-9.289062 29.191407 0 16.121093 4.160156 29.191406 9.289062 29.191406zm0 0"/><path d="m152.367188 136.015625c5.128906 0 9.285156-13.070313 9.285156-29.191406 0-16.125-4.15625-29.191407-9.285156-29.191407-5.128907 0-9.285157 13.066407-9.285157 29.191407 0 16.121093 4.15625 29.191406 9.285157 29.191406zm0 0"/><path d="m124.996094 105.261719c5.128906 0 9.285156-13.070313 9.285156-29.195313 0-16.121094-4.15625-29.191406-9.285156-29.191406s-9.289063 13.070312-9.289063 29.191406c0 16.125 4.160157 29.195313 9.289063 29.195313zm0 0"/><path d="m196.054688 158.445312c-2.660157 1.34375-6.296876 1.96875-10.035157 1.96875-.613281 0-1.226562-.019531-1.839843-.050781-.980469 12.671875-8.835938 25.375-20.324219 32.691407-8.917969 5.871093-20.417969 9.226562-34.152344 9.96875-1.652344.066406-3.273437.101562-4.867187.101562-15.953126 0-29.195313-3.378906-39.425782-10.070312-11.476562-7.308594-19.324218-20-20.308594-32.664063-.402343.015625-.804687.023437-1.207031.023437-3.738281 0-7.375-.625-10.035156-1.96875-1.011719-.507812-1.414063-1.738281-.90625-2.75.511719-1.003906 1.738281-1.410156 2.746094-.902343 5.710937 2.882812 17.472656 1.335937 20.546875-1.8125.785156-.808594 2.082031-.828125 2.886718-.039063.8125.789063.828126 2.082032.039063 2.894532-2.234375 2.289062-6.613281 3.800781-11.324219 4.347656 4.691406 17.097656 18.878906 29.40625 38.269532 33.074218 18.15625 3.390626 36.425781 1.898438 50.113281-4.089843 12.496093-5.394531 21.832031-16.1875 25.238281-29.058594-4.484375-.605469-8.589844-2.082031-10.726562-4.273437-.789063-.8125-.773438-2.105469.035156-2.894532.808594-.789062 2.101562-.769531 2.890625.039063 3.074219 3.148437 14.832031 4.695312 20.546875 1.8125 1.003906-.507813 2.234375-.101563 2.742187.902343.511719 1.011719.105469 2.242188-.902343 2.75zm0 0"/></g></svg>