<svg width="1024" height="1024" viewBox="0 0 1024 1024" fill="none" xmlns="http://www.w3.org/2000/svg">
<rect width="1024" height="1024" fill="url(#paint0_linear_111_661)"/>
<path d="M399.866 557.122C420.872 557.122 437.9 503.588 437.9 437.549C437.9 371.511 420.872 317.976 399.866 317.976C378.86 317.976 361.831 371.511 361.831 437.549C361.831 503.588 378.86 557.122 399.866 557.122Z" fill="white"/>
<path d="M624.099 557.122C645.105 557.122 662.133 503.588 662.133 437.549C662.133 371.511 645.105 317.976 624.099 317.976C603.093 317.976 586.064 371.511 586.064 437.549C586.064 503.588 603.093 557.122 624.099 557.122Z" fill="white"/>
<path d="M511.978 431.146C532.984 431.146 550.013 377.612 550.013 311.573C550.013 245.535 532.984 192 511.978 192C490.972 192 473.943 245.535 473.943 311.573C473.943 377.612 490.972 431.146 511.978 431.146Z" fill="white"/>
<path d="M803.041 648.985C792.138 654.49 777.242 657.051 761.929 657.051C759.43 657.051 756.913 656.98 754.406 656.847C750.386 708.754 718.203 760.786 671.151 790.755C634.619 814.801 587.523 828.541 531.258 831.582C524.499 831.858 517.856 832 511.32 832C445.984 832 391.747 818.154 349.835 790.755C302.827 760.822 270.68 708.825 266.66 656.962C265.015 657.024 263.361 657.051 261.716 657.051C246.402 657.051 231.498 654.49 220.604 648.985C216.469 646.904 214.815 641.871 216.904 637.736C218.985 633.61 224.019 631.956 228.145 634.036C251.542 645.837 299.715 639.506 312.298 626.602C315.526 623.294 320.826 623.223 324.134 626.451C327.451 629.679 327.514 634.979 324.286 638.296C315.144 647.678 297.207 653.867 277.9 656.108C297.118 726.14 355.224 776.553 434.655 791.591C509.017 805.473 583.85 799.363 639.919 774.828C691.098 752.729 729.337 708.532 743.29 655.806C724.926 653.334 708.118 647.278 699.359 638.296C696.131 634.979 696.193 629.679 699.51 626.451C702.818 623.223 708.118 623.294 711.346 626.602C723.93 639.506 772.094 645.846 795.499 634.036C799.608 631.956 804.659 633.61 806.74 637.736C808.83 641.871 807.176 646.904 803.041 648.985Z" fill="white"/>
<defs>
<linearGradient id="paint0_linear_111_661" x1="-192" y1="-160" x2="1024.07" y2="1023.92" gradientUnits="userSpaceOnUse">
<stop stop-color="#7B8E56"/>
<stop offset="1" stop-color="#BCC7A4"/>
</linearGradient>
</defs>
</svg>
