
<svg xmlns="http://www.w3.org/2000/svg" xmlns:xlink="http://www.w3.org/1999/xlink" width="250px" height="250px" viewBox="0 0 250 250" version="1.1">
<defs>
<linearGradient id="linear0" gradientUnits="userSpaceOnUse" x1="136.460007" y1="49.68" x2="373.540009" y2="460.320007" gradientTransform="matrix(0.490196,0,0,0.490196,0,0)">
<stop offset="0" style="stop-color:rgb(0%,58.431375%,84.313726%);stop-opacity:1;"/>
<stop offset="1" style="stop-color:rgb(0%,44.705883%,66.666669%);stop-opacity:1;"/>
</linearGradient>
</defs>
<g id="surface1">
<path style=" stroke:none;fill-rule:nonzero;fill:rgb(100%,100%,100%);fill-opacity:1;" d="M 250 125 C 250 194.035156 194.035156 250 125 250 C 55.964844 250 0 194.035156 0 125 C 0 55.964844 55.964844 0 125 0 C 194.035156 0 250 55.964844 250 125 Z M 250 125 "/>
<path style=" stroke:none;fill-rule:nonzero;fill:url(#linear0);" d="M 241.199219 125 C 241.199219 189.175781 189.175781 241.199219 125 241.199219 C 60.824219 241.199219 8.800781 189.175781 8.800781 125 C 8.800781 60.824219 60.824219 8.800781 125 8.800781 C 189.175781 8.800781 241.199219 60.824219 241.199219 125 Z M 241.199219 125 "/>
<path style="fill-rule:nonzero;fill:rgb(100%,100%,100%);fill-opacity:1;stroke-width:3;stroke-linecap:butt;stroke-linejoin:round;stroke:rgb(100%,100%,100%);stroke-opacity:1;stroke-miterlimit:4;" d="M 150.928125 334.448438 L 150.928125 175.726875 L 181.822969 175.726875 L 181.822969 251.167031 L 248.537344 175.50375 L 282.54 175.50375 L 221.666719 246.003281 L 286.372969 334.4325 L 251.669062 334.4325 L 202.199062 265.717969 L 181.822969 287.0025 L 181.822969 334.456406 Z M 150.928125 334.448438 " transform="matrix(0.490196,0,0,0.490196,0,0)"/>
<path style="fill-rule:nonzero;fill:rgb(100%,100%,100%);fill-opacity:1;stroke-width:3;stroke-linecap:butt;stroke-linejoin:round;stroke:rgb(100%,100%,100%);stroke-opacity:1;stroke-miterlimit:4;" d="M 367.638281 243.110625 C 359.223281 243.110625 350.903906 244.903594 343.237969 248.37 C 336.432656 251.374219 330.942187 256.745156 327.786563 263.486719 L 327.786563 334.488281 L 297.792188 334.488281 L 297.792188 217.140469 L 325.332188 217.140469 L 325.332188 242.218125 C 327.332344 238.313437 329.810625 234.66375 332.71125 231.356719 C 335.4525 228.232969 338.536406 225.42 341.89125 222.957656 C 344.967188 220.694531 348.33 218.85375 351.892031 217.483125 C 354.991875 216.263906 358.298906 215.618437 361.629844 215.578594 L 365.327344 215.578594 C 366.11625 215.578594 366.905156 215.650313 367.678125 215.801719 Z M 367.638281 243.110625 " transform="matrix(0.490196,0,0,0.490196,0,0)"/>
</g>
</svg>
