<svg width="256" height="256" viewBox="0 0 256 256" fill="none" xmlns="http://www.w3.org/2000/svg">
<g clip-path="url(#clip0)">
<path d="M128 49.36C143.554 49.36 158.758 53.9722 171.69 62.6132C184.622 71.2543 194.702 83.5362 200.654 97.9058C206.606 112.275 208.163 128.087 205.129 143.342C202.095 158.597 194.605 172.609 183.607 183.607C172.609 194.605 158.597 202.095 143.342 205.129C128.087 208.163 112.275 206.606 97.9058 200.654C83.5363 194.702 71.2544 184.622 62.6133 171.69C53.9722 158.758 49.3601 143.554 49.3601 128C49.3865 107.151 57.6803 87.1645 72.4224 72.4223C87.1645 57.6802 107.152 49.3865 128 49.36ZM128 0C102.684 0 77.9366 7.50707 56.8871 21.5719C35.8376 35.6367 19.4315 55.6276 9.74348 79.0165C0.05546 102.405 -2.47937 128.142 2.45954 152.972C7.39845 177.801 19.5893 200.609 37.4904 218.51C55.3915 236.411 78.1989 248.602 103.029 253.541C127.858 258.479 153.595 255.945 176.984 246.257C200.372 236.569 220.363 220.162 234.428 199.113C248.493 178.064 256 153.316 256 128C256 94.0523 242.514 61.495 218.51 37.4903C194.505 13.4857 161.948 0 128 0V0Z" fill="url(#paint0_linear)"/>
<path d="M128 228C183.228 228 228 183.228 228 128C228 72.7715 183.228 28 128 28C72.7715 28 28 72.7715 28 128C28 183.228 72.7715 228 128 228Z" fill="white"/>
<ellipse cx="128" cy="128" rx="80" ry="80" fill="#100E23"/>
<path d="M133.002 122.97C135.642 122.97 137.782 125.102 137.782 127.732C137.782 130.362 135.642 132.494 133.002 132.494H120.595C108.579 132.494 98.8381 122.789 98.8381 110.818C98.8381 98.8473 108.579 89.1428 120.595 89.1428H152.592C155.232 89.1428 157.371 91.2747 157.371 93.9046C157.371 96.5344 155.232 98.6663 152.592 98.6663H120.595C113.859 98.6663 108.398 104.107 108.398 110.818C108.398 117.53 113.859 122.97 120.595 122.97H133.002Z" fill="white"/>
<path d="M123.208 132.494C120.568 132.494 118.428 130.362 118.428 127.732C118.428 125.102 120.568 122.97 123.208 122.97H135.614C147.63 122.97 157.372 132.675 157.372 144.646C157.372 156.617 147.63 166.322 135.614 166.322H103.618C100.978 166.322 98.8383 164.19 98.8383 161.56C98.8383 158.93 100.978 156.798 103.618 156.798H135.614C142.351 156.798 147.812 151.357 147.812 144.646C147.812 137.935 142.351 132.494 135.614 132.494H123.208Z" fill="white"/>
<path d="M107.395 164.4L99.6248 158.853L148.498 90.9045L156.268 96.4516L107.395 164.4Z" fill="white" fill-opacity="0.5"/>
</g>
<defs>
<linearGradient id="paint0_linear" x1="239.36" y1="239.36" x2="34.56" y2="34.56" gradientUnits="userSpaceOnUse">
<stop offset="0.159375" stop-color="#003CDA"/>
<stop offset="1" stop-color="#33DFCC"/>
</linearGradient>
<clipPath id="clip0">
<path d="M0 0H256V256H0V0Z" fill="white"/>
</clipPath>
</defs>
</svg>
