<svg width="256" height="256" viewBox="0 0 256 256" fill="none" xmlns="http://www.w3.org/2000/svg">
<g clip-path="url(#clip0)">
<path d="M128 49.36C143.554 49.36 158.758 53.9722 171.69 62.6132C184.622 71.2543 194.702 83.5362 200.654 97.9058C206.606 112.275 208.163 128.087 205.129 143.342C202.095 158.597 194.605 172.609 183.607 183.607C172.609 194.605 158.597 202.095 143.342 205.129C128.087 208.163 112.275 206.606 97.9058 200.654C83.5363 194.702 71.2544 184.622 62.6133 171.69C53.9722 158.758 49.3601 143.554 49.3601 128C49.3865 107.151 57.6803 87.1645 72.4224 72.4223C87.1645 57.6802 107.152 49.3865 128 49.36ZM128 0C102.684 0 77.9366 7.50707 56.8871 21.5719C35.8376 35.6367 19.4315 55.6276 9.74348 79.0165C0.05546 102.405 -2.47937 128.142 2.45954 152.972C7.39845 177.801 19.5893 200.609 37.4904 218.51C55.3915 236.411 78.1989 248.602 103.029 253.541C127.858 258.479 153.595 255.945 176.984 246.257C200.372 236.569 220.363 220.162 234.428 199.113C248.493 178.064 256 153.316 256 128C256 94.0523 242.514 61.495 218.51 37.4903C194.505 13.4857 161.948 0 128 0V0Z" fill="url(#paint0_linear)"/>
<path d="M128 228C183.228 228 228 183.228 228 128C228 72.7715 183.228 28 128 28C72.7715 28 28 72.7715 28 128C28 183.228 72.7715 228 128 228Z" fill="white"/>
<ellipse cx="128" cy="128" rx="80" ry="80" fill="url(#paint1_linear)"/>
<path d="M166.579 146.034C166.579 140.796 162.828 137.342 158.21 137.342L144.503 137.342L144.503 141.832L158.239 141.832C160.606 141.832 162.51 143.357 162.51 146.063C162.51 148.653 160.606 150.15 158.239 150.15L144.503 150.15L144.503 154.928L158.21 154.928C162.828 154.928 166.579 151.474 166.579 146.034Z" fill="white"/>
<path d="M166.579 125.892C166.579 121.086 163.982 117.805 159.855 117.805C156.248 117.805 154.084 120.194 153.276 124.137L152.814 126.209C152.352 128.281 151.573 129.087 150.39 129.087C148.947 129.087 147.995 127.994 147.995 125.979C147.995 123.734 149.091 122.669 150.563 122.295L150.563 118.553L148.37 118.553C145.715 119.157 144.07 121.892 144.07 125.864C144.07 130.613 146.494 133.721 150.65 133.721C154.141 133.721 156.248 131.534 157.027 127.591L157.402 125.605C157.893 123.417 158.701 122.439 160.115 122.439C161.731 122.439 162.655 123.791 162.655 125.806C162.655 128.109 161.645 129.49 160.028 130.066L160.028 133.836L162.193 133.836C164.588 132.915 166.579 130.354 166.579 125.892Z" fill="white"/>
<path d="M166.146 114.25L166.146 106.681C166.146 100.032 161.241 95.9162 155.238 95.9162C149.322 95.9162 144.503 100.032 144.503 106.681L144.503 114.25L166.146 114.25ZM162.077 109.473L148.572 109.473L148.572 106.767C148.572 102.997 151.573 100.838 155.238 100.838C159.018 100.838 162.077 102.997 162.077 106.767L162.077 109.473Z" fill="white"/>
<path d="M116.443 122.413C118.641 122.413 120.422 124.187 120.422 126.377C120.422 128.566 118.641 130.341 116.443 130.341H106.114C96.11 130.341 88.0002 122.262 88.0002 112.296C88.0002 102.329 96.11 94.25 106.114 94.25H132.752C134.95 94.25 136.731 96.0249 136.731 98.2143C136.731 100.404 134.95 102.179 132.752 102.179H106.114C100.505 102.179 95.9588 106.708 95.9588 112.296C95.9588 117.883 100.505 122.413 106.114 122.413H116.443Z" fill="white"/>
<path d="M108.288 130.341C106.09 130.341 104.309 128.566 104.309 126.377C104.309 124.187 106.09 122.413 108.288 122.413H118.617C128.621 122.413 136.731 130.492 136.731 140.458C136.731 150.424 128.621 158.504 118.617 158.504H91.9791C89.7814 158.504 87.9999 156.729 87.9999 154.539C87.9999 152.35 89.7814 150.575 91.9791 150.575H118.617C124.226 150.575 128.772 146.046 128.772 140.458C128.772 134.871 124.226 130.341 118.617 130.341H108.288Z" fill="white"/>
<path d="M95.1237 156.904L88.6545 152.286L129.343 95.7169L135.812 100.335L95.1237 156.904Z" fill="white" fill-opacity="0.5"/>
</g>
<defs>
<linearGradient id="paint0_linear" x1="239.36" y1="239.36" x2="34.56" y2="34.56" gradientUnits="userSpaceOnUse">
<stop offset="0.159375" stop-color="#003CDA"/>
<stop offset="1" stop-color="#33DFCC"/>
</linearGradient>
<linearGradient id="paint1_linear" x1="84.875" y1="61.125" x2="201.125" y2="177.375" gradientUnits="userSpaceOnUse">
<stop stop-color="#342F49"/>
<stop offset="1"/>
</linearGradient>
<clipPath id="clip0">
<path d="M0 0H256V256H0V0Z" fill="white"/>
</clipPath>
</defs>
</svg>
