<svg width="100" height="100" viewBox="0 0 100 100" fill="none" xmlns="http://www.w3.org/2000/svg">
<g clip-path="url(#clip0)">
<path d="M50 19.2813C56.0756 19.2813 62.0147 21.0829 67.0664 24.4583C72.1181 27.8337 76.0554 32.6313 78.3804 38.2444C80.7054 43.8576 81.3138 50.0341 80.1285 55.9929C78.9432 61.9518 76.0175 67.4253 71.7214 71.7214C67.4253 76.0175 61.9518 78.9432 55.9929 80.1285C50.0341 81.3138 43.8576 80.7055 38.2444 78.3804C32.6313 76.0554 27.8337 72.1181 24.4583 67.0664C21.0829 62.0148 19.2812 56.0756 19.2812 50C19.2916 41.8561 22.5313 34.0486 28.29 28.29C34.0486 22.5313 41.856 19.2916 50 19.2813V19.2813ZM50 0C40.1109 0 30.4439 2.93245 22.2215 8.42652C13.999 13.9206 7.5904 21.7295 3.80601 30.8658C0.0216335 40.0021 -0.968533 50.0555 0.960728 59.7545C2.88999 69.4536 7.65203 78.3627 14.6447 85.3553C21.6373 92.348 30.5464 97.11 40.2455 99.0393C49.9445 100.969 59.9979 99.9784 69.1342 96.194C78.2705 92.4096 86.0794 86.001 91.5735 77.7785C97.0675 69.5561 100 59.8891 100 50C100 36.7392 94.7321 24.0215 85.3553 14.6447C75.9785 5.26784 63.2608 0 50 0V0Z" fill="url(#paint0_linear)"/>
<path d="M50 89.1953C71.647 89.1953 89.1953 71.647 89.1953 50C89.1953 28.353 71.647 10.8047 50 10.8047C28.353 10.8047 10.8047 28.353 10.8047 50C10.8047 71.647 28.353 89.1953 50 89.1953Z" fill="white"/>
<path d="M72.3984 72.125C69.4445 75.0806 65.926 77.4117 62.0525 78.9793C58.179 80.547 54.0297 81.3192 49.8515 81.25C45.6975 81.3302 41.5708 80.5624 37.7237 78.9934C33.8765 77.4245 30.3898 75.0874 27.4765 72.125C24.4953 69.2224 22.1433 65.7373 20.5668 61.8867C18.9902 58.036 18.2229 53.9021 18.3125 49.7422C18.3125 40.6328 21.3672 33.0443 27.4765 26.9766C30.3917 24.0185 33.8794 21.6857 37.7265 20.1209C41.5735 18.556 45.6992 17.7918 49.8515 17.875C54.028 17.8028 58.1763 18.5714 62.0497 20.1349C65.9232 21.6985 69.4425 24.0252 72.3984 26.9766C78.6484 33.0443 81.7734 40.6328 81.7734 49.7422C81.8544 53.9201 81.0624 58.0688 79.4481 61.923C77.8337 65.7772 75.4327 69.252 72.3984 72.125V72.125Z" fill="#C8C8C8"/>
<path d="M50.0313 23.0088L33.6283 50.1791L50.0313 42.7332V23.0088Z" fill="#8B8B8B"/>
<path d="M50.0313 42.7332L33.6283 50.179L50.0313 59.8523V42.7332Z" fill="#393939"/>
<path d="M50.0312 23.0088V42.7332L66.4184 50.1791L50.0312 23.0088Z" fill="#343434"/>
<path d="M50.0312 42.7332V59.8523L66.4184 50.179L50.0312 42.7332Z" fill="#161616"/>
<path d="M33.6283 53.2803L50.0313 76.3577V62.9615L33.6283 53.2803Z" fill="#8B8B8B"/>
<path d="M66.4342 53.2803L50.0312 62.9615V76.3577L66.4342 53.2803Z" fill="#343434"/>
</g>
<defs>
<linearGradient id="paint0_linear" x1="93.5" y1="93.5" x2="13.5" y2="13.5" gradientUnits="userSpaceOnUse">
<stop offset="0.159375" stop-color="#003CDA"/>
<stop offset="1" stop-color="#33DFCC"/>
</linearGradient>
<clipPath id="clip0">
<rect width="100" height="100" fill="white"/>
</clipPath>
</defs>
</svg>
