<svg width="100" height="100" viewBox="0 0 100 100" fill="none" xmlns="http://www.w3.org/2000/svg">
<g clip-path="url(#clip0)">
<path d="M50 19.2813C56.0756 19.2813 62.0148 21.0829 67.0664 24.4583C72.1181 27.8337 76.0554 32.6313 78.3804 38.2444C80.7055 43.8576 81.3138 50.0341 80.1285 55.9929C78.9432 61.9518 76.0176 67.4253 71.7215 71.7214C67.4254 76.0175 61.9518 78.9432 55.993 80.1285C50.0341 81.3138 43.8576 80.7055 38.2445 78.3804C32.6314 76.0554 27.8337 72.1181 24.4583 67.0664C21.0829 62.0148 19.2813 56.0756 19.2813 50C19.2916 41.8561 22.5314 34.0486 28.29 28.29C34.0486 22.5313 41.8561 19.2916 50 19.2813V19.2813ZM50 0C40.111 0 30.444 2.93245 22.2215 8.42652C13.9991 13.9206 7.59043 21.7295 3.80605 30.8658C0.0216641 40.0021 -0.968503 50.0555 0.960758 59.7545C2.89002 69.4536 7.65206 78.3627 14.6447 85.3553C21.6373 92.348 30.5465 97.11 40.2455 99.0393C49.9446 100.969 59.9979 99.9784 69.1342 96.194C78.2705 92.4096 86.0794 86.001 91.5735 77.7785C97.0676 69.5561 100 59.8891 100 50C100 36.7392 94.7322 24.0215 85.3554 14.6447C75.9785 5.26784 63.2608 0 50 0V0Z" fill="url(#paint0_linear)"/>
<path d="M50 89.1953C71.647 89.1953 89.1953 71.647 89.1953 50C89.1953 28.353 71.647 10.8047 50 10.8047C28.353 10.8047 10.8047 28.353 10.8047 50C10.8047 71.647 28.353 89.1953 50 89.1953Z" fill="white"/>
<path d="M81.7199 50.0568C81.7505 32.5606 67.5743 18.3524 50.0565 18.3218C32.5388 18.2912 18.3131 32.4499 18.2825 49.9461C18.252 67.4423 32.4282 81.6505 49.9459 81.6811C67.4637 81.7117 81.6894 67.553 81.7199 50.0568Z" fill="#3574B9"/>
<path d="M44.1484 71.8749C44.1484 72.6561 43.6172 72.9296 42.8203 72.9296C37.9945 71.399 33.7824 68.3698 30.7957 64.282C27.8091 60.1941 26.2035 55.2605 26.2122 50.1978C26.2209 45.1351 27.8435 40.2071 30.8442 36.1295C33.8449 32.0519 38.0674 29.0372 42.8984 27.5233C43.6797 27.2655 44.2265 27.789 44.2187 28.5858V30.4686C44.2246 30.7397 44.1546 31.007 44.0165 31.2403C43.8785 31.4736 43.6779 31.6637 43.4375 31.789C39.6375 33.1568 36.351 35.6619 34.0252 38.9636C31.6993 42.2653 30.4469 46.2034 30.4384 50.242C30.4299 54.2807 31.6656 58.224 33.9775 61.5355C36.2893 64.847 39.5652 67.366 43.3594 68.7499C43.6004 68.8745 43.8015 69.0643 43.9396 69.2978C44.0778 69.5313 44.1474 69.799 44.1406 70.0702L44.1484 71.8749Z" fill="white"/>
<path d="M52.0859 65.3125C52.0769 65.5931 51.964 65.8603 51.7692 66.0624C51.5743 66.2645 51.3113 66.387 51.0312 66.4062H48.9141C48.6391 66.3877 48.3803 66.2696 48.1862 66.0741C47.992 65.8785 47.8759 65.6188 47.8594 65.3437V62.2187C43.625 61.6797 41.5156 59.3047 40.7266 55.8672C40.7266 55.3437 41 54.8125 41.5078 54.8125H43.8906C44.4141 54.8125 44.6719 55.0781 44.9453 55.5938C45.4687 57.4453 46.5078 59.0312 49.9609 59.0391C52.6016 59.0391 54.4531 57.7266 54.4609 55.6172C54.4687 53.5078 53.4063 52.7109 49.7109 52.1719C44.1563 51.3906 41.5156 49.7812 41.5234 45.2969C41.5234 41.8672 44.1797 39.2266 47.8828 38.7109V35.4766C47.8995 35.2023 48.0159 34.9436 48.2102 34.7493C48.4045 34.555 48.6632 34.4385 48.9375 34.4219H51.0547C51.329 34.4385 51.5876 34.555 51.7819 34.7493C51.9762 34.9436 52.0927 35.2023 52.1094 35.4766V38.6484C55.2812 39.1797 57.3906 41.0312 57.9141 43.9375C57.9141 44.4609 57.6484 44.9922 57.1328 44.9922H55.0313C54.5 44.9922 54.25 44.7266 53.9766 44.2109C53.4531 42.3594 52.1328 41.5625 49.75 41.5625C47.1094 41.5625 45.7812 42.875 45.7812 44.6875C45.7812 46.5 46.5625 47.5937 50.5313 48.1328C56.0781 48.9141 58.7188 50.5234 58.7109 55.0078C58.7109 58.4375 56.0625 61.3359 52.0938 62.125L52.0859 65.3125Z" fill="white"/>
<path d="M57.0938 72.9766C56.3125 73.2422 55.7735 72.7109 55.7735 71.9219V70.0703C55.7672 69.8002 55.8372 69.5338 55.9753 69.3017C56.1135 69.0696 56.3143 68.8811 56.5547 68.7578C60.355 67.3908 63.642 64.8864 65.9686 61.5851C68.2951 58.2839 69.5483 54.3462 69.5577 50.3075C69.5671 46.2688 68.3322 42.3253 66.021 39.0132C63.7099 35.7012 60.4346 33.1815 56.6406 31.7969C56.4002 31.6716 56.1996 31.4815 56.0616 31.2482C55.9235 31.0149 55.8535 30.7476 55.8594 30.4766V28.625C55.8594 27.8437 56.3906 27.5703 57.1875 27.5703C66.6953 30.7578 73.8125 39.75 73.7969 50.3047C73.7804 55.3675 72.1528 60.2937 69.1498 64.3698C66.1468 68.446 61.9243 71.4604 57.0938 72.9766V72.9766Z" fill="white"/>
</g>
<defs>
<linearGradient id="paint0_linear" x1="93.5" y1="93.5" x2="13.5" y2="13.5" gradientUnits="userSpaceOnUse">
<stop offset="0.159375" stop-color="#003CDA"/>
<stop offset="1" stop-color="#33DFCC"/>
</linearGradient>
<clipPath id="clip0">
<rect width="100" height="100" fill="white"/>
</clipPath>
</defs>
</svg>
