<svg width="100" height="100" viewBox="0 0 100 100" fill="none" xmlns="http://www.w3.org/2000/svg">
<path d="M50 19.2812C56.0756 19.2812 62.0148 21.0829 67.0664 24.4583C72.1181 27.8337 76.0554 32.6313 78.3804 38.2444C80.7055 43.8576 81.3138 50.0341 80.1285 55.9929C78.9432 61.9518 76.0175 67.4253 71.7214 71.7214C67.4253 76.0175 61.9518 78.9432 55.9929 80.1285C50.0341 81.3138 43.8576 80.7054 38.2445 78.3804C32.6313 76.0554 27.8337 72.1181 24.4583 67.0664C21.0829 62.0147 19.2813 56.0756 19.2813 50C19.2916 41.856 22.5314 34.0486 28.29 28.29C34.0486 22.5313 41.8561 19.2916 50 19.2812V19.2812ZM50 0C40.1109 0 30.444 2.93245 22.2215 8.42652C13.999 13.9206 7.59043 21.7295 3.80604 30.8658C0.021664 40.0021 -0.968502 50.0555 0.960758 59.7545C2.89002 69.4535 7.65206 78.3627 14.6447 85.3553C21.6373 92.3479 30.5465 97.11 40.2455 99.0392C49.9445 100.969 59.9979 99.9783 69.1342 96.194C78.2705 92.4096 86.0794 86.001 91.5735 77.7785C97.0676 69.556 100 59.8891 100 50C100 36.7392 94.7322 24.0215 85.3553 14.6447C75.9785 5.26784 63.2608 0 50 0V0Z" fill="url(#paint0_linear)"/>
<path d="M50 89.4531C71.5736 89.4531 89.0625 71.9642 89.0625 50.3906C89.0625 28.817 71.5736 11.3281 50 11.3281C28.4264 11.3281 10.9375 28.817 10.9375 50.3906C10.9375 71.9642 28.4264 89.4531 50 89.4531Z" fill="white"/>
<path d="M18.75 50C18.75 32.7411 32.7411 18.75 50 18.75V18.75C67.2589 18.75 81.25 32.7411 81.25 50V50C81.25 67.2589 67.2589 81.25 50 81.25V81.25C32.7411 81.25 18.75 67.2589 18.75 50V50Z" fill="url(#paint1_linear)"/>
<path d="M36.9267 21.6077C38.9112 20.6924 41.0081 19.9791 43.1909 19.494V32.5606H36.9267V21.6077Z" fill="white"/>
<path d="M19.4532 43.377C19.9254 41.1885 20.6269 39.0853 21.5312 37.0937H53.7057C58.4038 37.0937 62.207 40.9086 62.207 45.621V53.924C62.207 58.6363 58.4038 62.4512 53.7057 62.4512H45.428C40.7299 62.4512 36.9267 58.6363 36.9267 53.924V47.8651H43.1909V53.879C43.1909 55.1358 44.175 56.1232 45.428 56.1232H53.7057C54.9583 56.1232 55.9428 55.1358 55.9428 53.879V45.621C55.9428 44.3644 54.9583 43.377 53.7057 43.377H19.4532Z" fill="white"/>
<defs>
<linearGradient id="paint0_linear" x1="93.5" y1="93.5" x2="13.5" y2="13.5" gradientUnits="userSpaceOnUse">
<stop offset="0.159375" stop-color="#003CDA"/>
<stop offset="1" stop-color="#33DFCC"/>
</linearGradient>
<linearGradient id="paint1_linear" x1="77.1875" y1="77.1875" x2="27.1875" y2="27.1875" gradientUnits="userSpaceOnUse">
<stop offset="0.159375" stop-color="#003CDA"/>
<stop offset="1" stop-color="#33DFCC"/>
</linearGradient>
</defs>
</svg>
