<svg width="90" height="90" viewBox="0 0 90 90" fill="none" xmlns="http://www.w3.org/2000/svg">
<g clip-path="url(#clip0)">
<path d="M45 17.3531C50.468 17.3531 55.8133 18.9746 60.3598 22.0125C64.9063 25.0503 68.4499 29.3682 70.5424 34.42C72.6349 39.4718 73.1824 45.0307 72.1157 50.3936C71.0489 55.7566 68.4158 60.6828 64.5493 64.5493C60.6828 68.4158 55.7566 71.0489 50.3937 72.1156C45.0307 73.1824 39.4718 72.6349 34.42 70.5424C29.3682 68.4498 25.0504 64.9063 22.0125 60.3598C18.9746 55.8133 17.3531 50.468 17.3531 45C17.3624 37.6704 20.2782 30.6438 25.461 25.461C30.6438 20.2782 37.6705 17.3624 45 17.3531ZM45 0C36.0999 0 27.3996 2.6392 19.9994 7.58387C12.5991 12.5285 6.83138 19.5566 3.42544 27.7792C0.0194976 36.0019 -0.871652 45.0499 0.864682 53.7791C2.60102 62.5082 6.88685 70.5264 13.1802 76.8198C19.4736 83.1132 27.4918 87.399 36.221 89.1353C44.9501 90.8717 53.9981 89.9805 62.2208 86.5746C70.4434 83.1686 77.4715 77.4009 82.4161 70.0006C87.3608 62.6004 90 53.9002 90 45C90 33.0653 85.2589 21.6193 76.8198 13.1802C68.3807 4.74106 56.9348 0 45 0Z" fill="url(#paint0_linear)"/>
<path d="M45 80.2757C64.4823 80.2757 80.2758 64.4822 80.2758 44.9999C80.2758 25.5176 64.4823 9.72412 45 9.72412C25.5177 9.72412 9.72421 25.5176 9.72421 44.9999C9.72421 64.4822 25.5177 80.2757 45 80.2757Z" fill="white"/>
<circle cx="45" cy="45" r="29" fill="#F8A608"/>
<path fill-rule="evenodd" clip-rule="evenodd" d="M33.4991 31.2437H45.2602C52.8591 31.2437 59.0191 37.4037 59.0191 45.0025C59.0191 52.6014 52.8591 58.7614 45.2602 58.7614H33.4991V31.2437ZM36.528 34.2725V55.7325H45.2602C51.1862 55.7325 55.9902 50.9286 55.9902 45.0025C55.9902 39.0765 51.1862 34.2725 45.2602 34.2725H36.528Z" fill="white"/>
<path d="M29.6325 43.3197H61.6936V40.2908H29.6325V43.3197Z" fill="white"/>
<path d="M29.6325 49.7641H61.6936V46.7352H29.6325V49.7641Z" fill="white"/>
</g>
<defs>
<linearGradient id="paint0_linear" x1="84.15" y1="84.15" x2="12.15" y2="12.15" gradientUnits="userSpaceOnUse">
<stop offset="0.159375" stop-color="#003CDA"/>
<stop offset="1" stop-color="#33DFCC"/>
</linearGradient>
<clipPath id="clip0">
<rect width="90" height="90" fill="white"/>
</clipPath>
</defs>
</svg>
