<svg width="100" height="100" viewBox="0 0 100 100" fill="none" xmlns="http://www.w3.org/2000/svg">
<path d="M50 19.2812C56.0756 19.2812 62.0148 21.0829 67.0664 24.4583C72.1181 27.8337 76.0554 32.6313 78.3804 38.2444C80.7055 43.8576 81.3138 50.0341 80.1285 55.9929C78.9432 61.9518 76.0175 67.4253 71.7214 71.7214C67.4253 76.0175 61.9518 78.9432 55.9929 80.1285C50.0341 81.3138 43.8576 80.7054 38.2445 78.3804C32.6313 76.0554 27.8337 72.1181 24.4583 67.0664C21.0829 62.0147 19.2813 56.0756 19.2813 50C19.2916 41.856 22.5314 34.0486 28.29 28.29C34.0486 22.5313 41.8561 19.2916 50 19.2812V19.2812ZM50 0C40.1109 0 30.444 2.93245 22.2215 8.42652C13.999 13.9206 7.59043 21.7295 3.80604 30.8658C0.021664 40.0021 -0.968502 50.0555 0.960758 59.7545C2.89002 69.4535 7.65206 78.3627 14.6447 85.3553C21.6373 92.3479 30.5465 97.11 40.2455 99.0392C49.9445 100.969 59.9979 99.9783 69.1342 96.194C78.2705 92.4096 86.0794 86.001 91.5735 77.7785C97.0676 69.556 100 59.8891 100 50C100 36.7392 94.7322 24.0215 85.3553 14.6447C75.9785 5.26784 63.2608 0 50 0V0Z" fill="url(#paint0_linear)"/>
<path d="M49.999 89.4492C71.5721 89.4492 89.0605 71.9612 89.0605 50.3887C89.0605 28.8161 71.5721 11.3281 49.999 11.3281C28.4259 11.3281 10.9375 28.8161 10.9375 50.3887C10.9375 71.9612 28.4259 89.4492 49.999 89.4492Z" fill="white"/>
<path d="M35.19 39.6927C33.5212 38.6478 31.25 39.7359 31.25 41.5803V58.7802C31.25 59.3552 31.7618 59.8214 32.3932 59.8214C33.0246 59.8214 33.5365 59.3552 33.5365 58.7802V41.5803C33.5365 41.4127 33.7429 41.3138 33.8946 41.4087L45.8834 48.9156V58.7802C45.8834 59.3552 46.3952 59.8214 47.0266 59.8214C47.658 59.8214 48.1698 59.3552 48.1698 58.7802V48.3679C48.1698 48.025 47.9845 47.7041 47.6743 47.5099L35.19 39.6927Z" fill="white"/>
<path d="M64.808 39.6927C66.4768 38.6478 68.748 39.7359 68.748 41.5803V58.7802C68.748 59.3552 68.2362 59.8214 67.6048 59.8214C66.9734 59.8214 66.4616 59.3552 66.4616 58.7802V41.5803C66.4616 41.4127 66.2551 41.3138 66.1034 41.4087L54.1147 48.9156V58.7802C54.1147 59.3552 53.6028 59.8214 52.9714 59.8214C52.34 59.8214 51.8282 59.3552 51.8282 58.7802V48.3679C51.8282 48.025 52.0135 47.7041 52.3237 47.5099L64.808 39.6927Z" fill="white"/>
<path d="M18.75 50C18.75 32.7411 32.7411 18.75 50 18.75V18.75C67.2589 18.75 81.25 32.7411 81.25 50V50C81.25 67.2589 67.2589 81.25 50 81.25V81.25C32.7411 81.25 18.75 67.2589 18.75 50V50Z" fill="#006AE3"/>
<path d="M48.7091 63.1752V37.1752H51.5401V63.1752H48.7091Z" fill="white"/>
<path d="M63.1201 45.8377L54.3772 48.1564L52.4274 39.0814L55.0271 38.4939L56.052 42.7939C56.052 42.7939 58.4143 38.9189 55.2646 34.9064C53.4085 32.8439 52.5274 32.7564 50.4463 32.4314C48.6153 32.1689 44.3594 32.7877 43.0908 37.7564C42.5534 40.9564 43.1596 43.3252 47.2842 46.4252L47.0529 49.8752C47.0529 49.8752 42.4471 46.6314 41.2598 44.3564C40.3411 42.5564 38.7663 39.0002 41.6097 34.0502C43.1408 31.5752 46.1593 29.2002 51.4775 29.4502C54.1522 29.5627 60.6828 32.8314 59.6704 40.4689C59.4954 41.9002 58.7518 43.8064 58.7518 43.8064L62.3389 43.0064L63.1201 45.8377Z" fill="white"/>
<path d="M58.127 66.1815C56.5272 68.6128 53.4463 70.9065 48.1406 70.519C45.4658 70.3378 39.029 66.894 40.2413 59.2878C40.4538 57.8628 41.2475 55.9815 41.2475 55.9815L37.6416 56.6815L36.9354 53.8378L45.7408 51.7503L47.4531 60.8753L44.8346 61.394L43.9222 57.0628C43.9222 57.0628 41.46 60.869 44.4972 64.969C46.297 67.0815 47.1719 67.1878 49.2529 67.569C51.0715 67.8815 55.3461 67.369 56.7459 62.4378C57.3646 59.2565 56.8209 56.869 52.7838 53.6565L53.1088 50.2128C53.1088 50.2128 57.6271 53.5753 58.752 55.8815C59.6144 57.7128 61.0955 61.3128 58.127 66.1815Z" fill="white"/>
<defs>
<linearGradient id="paint0_linear" x1="93.5" y1="93.5" x2="13.5" y2="13.5" gradientUnits="userSpaceOnUse">
<stop offset="0.159375" stop-color="#003CDA"/>
<stop offset="1" stop-color="#33DFCC"/>
</linearGradient>
</defs>
</svg>
