<svg id="Layer_1" data-name="Layer 1" xmlns="http://www.w3.org/2000/svg" xmlns:xlink="http://www.w3.org/1999/xlink" viewBox="0 0 64 64"><defs><style>.cls-1{fill:none;}.cls-2{fill:url(#linear-gradient);}.cls-3{fill:#fff;}.cls-4{fill:#8878b9;}.cls-5{fill:#ffce45;}.cls-6{fill:#febe44;}.cls-7{fill:#efbd46;}.cls-8{fill:#eeb445;}.cls-9{fill:#efd9b2;}.cls-10{fill:#2775ca;}</style><linearGradient id="linear-gradient" x1="-6.5" y1="30.05" x2="70.5" y2="30.05" gradientUnits="userSpaceOnUse"><stop offset="0" stop-color="#0157d0"/><stop offset="0.14" stop-color="#015fcd"/><stop offset="0.36" stop-color="#0174c6"/><stop offset="0.63" stop-color="#0098ba"/><stop offset="0.94" stop-color="#00c8aa"/><stop offset="1" stop-color="#00d3a6"/></linearGradient></defs><title>itoken_USDC-clearchip</title><ellipse class="cls-1" cx="32" cy="32" rx="25.5" ry="25.45"/><path class="cls-2" d="M64,32A32,32,0,1,0,16.67,60.09l1.38,0H46l1.38,0A32,32,0,0,0,64,32Z"/><ellipse class="cls-3" cx="32" cy="32" rx="25.5" ry="25.45"/><ellipse class="cls-1" cx="32" cy="32" rx="25.5" ry="25.45"/><path class="cls-4" d="M46.32,46a20.32,20.32,0,0,1-14.44,5.62A19.9,19.9,0,0,1,17.57,46,18.38,18.38,0,0,1,11.7,32.12a18.66,18.66,0,0,1,5.87-14.07,19.9,19.9,0,0,1,14.31-5.62,20.32,20.32,0,0,1,14.44,5.62,18.5,18.5,0,0,1,6,14.07A18.23,18.23,0,0,1,46.32,46Z"/><ellipse class="cls-1" cx="32" cy="32.63" rx="14.37" ry="14.35"/><path class="cls-5" d="M32.11,47A14.36,14.36,0,0,1,26.49,46,14.14,14.14,0,0,1,24,44.64a14.42,14.42,0,0,1-5.28-6.3,14.43,14.43,0,0,1-.09-11.22A15.17,15.17,0,0,1,20,24.67a14.33,14.33,0,0,1,6.31-5.27,14.46,14.46,0,0,1,11.23-.09A13.5,13.5,0,0,1,40,20.62a13.87,13.87,0,0,1,2.15,1.74,14.39,14.39,0,0,1,1.78,2.12,14.54,14.54,0,0,1,1.35,2.44,14.41,14.41,0,0,1,.09,11.21A14.85,14.85,0,0,1,44,40.59a14.42,14.42,0,0,1-1.75,2.15,15,15,0,0,1-2.12,1.78,14.51,14.51,0,0,1-8,2.52Zm-.22-28.7A14.29,14.29,0,1,0,46.31,32.52,14.32,14.32,0,0,0,31.89,18.34Z"/><polyline class="cls-5" points="31.91 21.4 43.01 32.3 32.08 43.38 20.99 32.48 31.91 21.4"/><polyline class="cls-6" points="32.03 35.98 20.98 32.48 31.91 21.4 43.01 32.3 32.03 35.98"/><polyline class="cls-3" points="24.81 31.73 29.84 31.69 31.97 29.28 34.39 31.65 39.42 31.61 31.93 23.66 24.81 31.73"/><polyline class="cls-7" points="43 32.31 32.03 35.98 32.08 43.38 43 32.31"/><polyline class="cls-8" points="31.91 21.4 31.93 23.66 39.42 31.61 34.39 31.65 31.97 29.28 32.03 35.98 43 32.31 43.01 32.3 31.91 21.4"/><polyline class="cls-9" points="31.93 23.66 31.97 29.28 34.39 31.65 39.42 31.61 31.93 23.66"/><ellipse class="cls-10" cx="32" cy="32" rx="20.3" ry="20.27"/><path class="cls-3" d="M28.28,46c0,.51-.34.68-.85.68a15.23,15.23,0,0,1,0-29.06c.51-.17.85.17.85.68V19.5a.92.92,0,0,1-.51.84,12.59,12.59,0,0,0,0,23.66.91.91,0,0,1,.51.84Z"/><path class="cls-3" d="M33.35,41.8a.71.71,0,0,1-.67.67H31.32a.71.71,0,0,1-.67-.67v-2a4.89,4.89,0,0,1-4.57-4.05c0-.34.17-.68.51-.68h1.52c.34,0,.51.17.68.51.33,1.18,1,2.19,3.21,2.19,1.69,0,2.88-.84,2.88-2.19s-.68-1.86-3.05-2.2c-3.55-.51-5.24-1.52-5.24-4.39a4.36,4.36,0,0,1,4.06-4.22v-2a.72.72,0,0,1,.67-.68h1.36a.72.72,0,0,1,.67.68v2a4.15,4.15,0,0,1,3.73,3.37c0,.34-.17.68-.51.68H35.21c-.33,0-.5-.17-.67-.51-.34-1.18-1.19-1.69-2.71-1.69-1.69,0-2.54.85-2.54,2s.51,1.86,3.05,2.2c3.55.5,5.24,1.52,5.24,4.39,0,2.2-1.69,4-4.23,4.56Z"/><path class="cls-3" d="M36.57,46.7c-.51.17-.85-.17-.85-.68V44.84a.91.91,0,0,1,.51-.84,12.59,12.59,0,0,0,0-23.66.92.92,0,0,1-.51-.84V18.32c0-.51.34-.68.85-.68A15.49,15.49,0,0,1,47.23,32.17,15.27,15.27,0,0,1,36.57,46.7Z"/></svg>