<svg width="256" height="256" viewBox="0 0 256 256" fill="none" xmlns="http://www.w3.org/2000/svg">
<g clip-path="url(#clip0)">
<path d="M128 49.36C143.554 49.36 158.758 53.9722 171.69 62.6132C184.622 71.2543 194.702 83.5362 200.654 97.9058C206.606 112.275 208.163 128.087 205.129 143.342C202.095 158.597 194.605 172.609 183.607 183.607C172.609 194.605 158.597 202.095 143.342 205.129C128.087 208.163 112.275 206.606 97.9058 200.654C83.5363 194.702 71.2544 184.622 62.6133 171.69C53.9722 158.758 49.3601 143.554 49.3601 128C49.3865 107.151 57.6803 87.1645 72.4224 72.4223C87.1645 57.6802 107.152 49.3865 128 49.36ZM128 0C102.684 0 77.9366 7.50707 56.8871 21.5719C35.8376 35.6367 19.4315 55.6276 9.74348 79.0165C0.05546 102.405 -2.47937 128.142 2.45954 152.972C7.39845 177.801 19.5893 200.609 37.4904 218.51C55.3915 236.411 78.1989 248.602 103.029 253.541C127.858 258.479 153.595 255.945 176.984 246.257C200.372 236.569 220.363 220.162 234.428 199.113C248.493 178.064 256 153.316 256 128C256 94.0523 242.514 61.495 218.51 37.4903C194.505 13.4857 161.948 0 128 0V0Z" fill="url(#paint0_linear)"/>
<path d="M128 228C183.228 228 228 183.228 228 128C228 72.7715 183.228 28 128 28C72.7715 28 28 72.7715 28 128C28 183.228 72.7715 228 128 228Z" fill="white"/>
<path fill-rule="evenodd" clip-rule="evenodd" d="M179.526 180.165L179.592 180.103C186.556 173.517 192.07 165.546 195.779 156.701C199.488 147.857 201.311 138.334 201.131 128.742L201.129 128.662L201.129 128.582C201.226 107.364 194.08 90.0124 179.717 76.0289L179.679 75.9917L179.642 75.9538C172.853 69.1353 164.763 63.7552 155.854 60.1338C146.945 56.5125 137.399 54.7239 127.785 54.8744L127.658 54.8764L127.53 54.8736C117.99 54.6669 108.508 56.4101 99.6637 59.9969C90.8194 63.5836 82.7981 68.9387 76.0905 75.7352L76.0616 75.7645L76.0324 75.7934C61.9395 89.7343 54.8573 107.083 54.8573 128.337V128.349C54.821 148.937 61.8084 166.018 75.8561 180.034L75.8839 180.061L75.9113 180.089C82.5916 186.909 90.5908 192.291 99.4194 195.909C108.248 199.526 117.721 201.303 127.258 201.13L127.386 201.127L127.514 201.13C137.13 201.314 146.685 199.558 155.61 195.968C164.534 192.377 172.646 187.025 179.462 180.229L179.526 180.165ZM127.383 207.986C137.92 208.187 148.39 206.264 158.169 202.33C167.948 198.395 176.836 192.531 184.304 185.085C191.962 177.842 198.025 169.078 202.103 159.353C206.181 149.629 208.185 139.158 207.987 128.613C208.092 105.627 200.263 86.4616 184.501 71.1157C177.063 63.6449 168.198 57.7497 158.436 53.7815C148.674 49.8132 138.213 47.8531 127.678 48.0181C117.205 47.7911 106.796 49.7049 97.0867 53.6424C87.3775 57.5799 78.5726 63.4584 71.21 70.9185C55.7368 86.2249 48.0002 105.364 48.0002 128.337C47.9607 150.692 55.6317 169.542 71.013 184.888C78.3459 192.373 87.1271 198.283 96.8195 202.254C106.512 206.225 116.912 208.176 127.383 207.986Z" fill="#282237"/>
<path d="M168.577 83.4979C145.612 62.4885 110.416 62.4885 87.451 83.4979L83.106 79.2502C108.446 55.869 147.483 55.869 172.823 79.2502L168.577 83.4979Z" fill="#282237"/>
<path d="M172.511 87.3771L176.757 83.1293V83.0302C200.128 108.381 200.128 147.436 176.757 172.786L172.511 168.538C193.51 145.563 193.51 110.352 172.511 87.3771Z" fill="#282237"/>
<path d="M83.4885 168.58C62.5149 145.611 62.5149 110.431 83.4885 87.4621L79.2425 83.2144C55.8715 108.565 55.8715 147.619 79.2425 172.97L83.4885 168.58Z" fill="#282237"/>
<path d="M87.4085 172.502C110.373 193.512 145.569 193.512 168.534 172.502L172.879 176.75C147.539 200.131 108.502 200.131 83.1625 176.75L87.4085 172.502Z" fill="#282237"/>
<path fill-rule="evenodd" clip-rule="evenodd" d="M141.405 115.578C141.405 124.194 127.956 123.146 123.684 123.146V107.967C127.956 107.967 141.405 106.617 141.405 115.578ZM144.917 139.144C144.917 148.564 128.802 147.487 123.669 147.487V130.772C128.802 130.786 144.917 129.307 144.917 139.144ZM155.527 112.175C154.667 103.185 146.925 100.169 137.132 99.2503V86.8571H129.562V99.0061C127.569 99.0061 125.533 99.0061 123.511 99.0779V86.8571H115.984V99.3221H111.167H100.643V107.436C100.643 107.436 106.235 107.335 106.149 107.436C108.245 107.205 110.146 108.678 110.45 110.767V144.902C110.358 146.383 109.086 147.507 107.608 147.417C107.6 147.417 107.591 147.417 107.582 147.415C107.683 147.502 102.077 147.415 102.077 147.415L100.571 156.477H110.436H115.855V169.143H123.425V156.664H129.476V169.085H137.06V156.563C149.849 155.788 158.767 152.628 159.886 140.637C160.789 130.987 156.258 126.679 149.018 124.941C153.42 122.701 156.187 118.752 155.527 112.175Z" fill="#282237"/>
</g>
<defs>
<linearGradient id="paint0_linear" x1="239.36" y1="239.36" x2="34.56" y2="34.56" gradientUnits="userSpaceOnUse">
<stop offset="0.159375" stop-color="#003CDA"/>
<stop offset="1" stop-color="#33DFCC"/>
</linearGradient>
<clipPath id="clip0">
<path d="M0 0H256V256H0V0Z" fill="white"/>
</clipPath>
</defs>
</svg>
