<svg width="256" height="256" viewBox="0 0 256 256" fill="none" xmlns="http://www.w3.org/2000/svg">
<rect width="256" height="256" fill="#E6E6E6"/>
<path d="M76.7396 59.4924C80.0761 60.4228 83.261 60.5779 86.1425 59.9576C89.9339 59.3373 93.877 60.5779 96.6069 63.3694L102.673 69.5721C105.555 72.5184 106.92 76.8607 106.01 81.0475C105.252 84.7693 105.252 88.9565 106.768 93.2983C109.346 100.742 115.716 106.635 123.299 108.031C137.403 110.666 149.687 99.6565 149.687 85.6997C149.687 83.9938 149.535 82.2884 149.08 80.7375C148.171 76.7057 149.535 72.3634 152.417 69.4171L158.332 63.3694C161.213 60.4228 165.156 59.1822 169.099 59.9576C172.587 60.5779 176.379 60.4228 180.473 59.0271C187.905 56.2358 193.668 49.4126 194.881 41.3488C197.307 25.6864 183.962 12.3501 168.493 15.4515C160.91 16.8472 154.237 23.2052 151.962 31.269C150.749 35.611 150.9 39.7981 151.962 43.6749C153.175 48.0169 151.962 52.6691 148.777 55.7706L144.228 60.4228C141.346 63.3694 137.1 64.9198 133.005 63.8344C131.336 63.3694 129.517 63.0589 127.697 63.0589C125.725 63.0589 123.905 63.3694 122.237 63.8344C118.294 64.9198 113.896 63.5244 111.014 60.4228L106.92 56.2358C103.735 52.9793 102.673 48.3271 103.886 43.985C104.948 40.1082 105.1 35.9212 104.038 31.5792C101.915 23.5153 95.3938 17.1573 87.3556 15.6066C71.7352 12.0399 58.2375 25.5313 60.8157 41.3488C62.1806 50.0329 68.5503 57.1663 76.7396 59.4924ZM180.777 197.818C176.834 196.422 172.891 196.112 169.403 196.887C165.459 197.663 161.516 196.267 158.635 193.476L152.72 187.428C149.839 184.481 148.474 180.14 149.384 176.107C149.687 174.557 149.991 172.851 149.991 171.145C149.991 157.188 137.706 146.178 123.602 148.815C116.019 150.21 109.65 156.103 107.071 163.547C105.555 167.889 105.403 171.921 106.313 175.797C107.223 179.985 106.01 184.171 102.977 187.273L96.9102 193.476C94.1802 196.267 90.2372 197.663 86.4458 196.887C83.4126 196.422 80.2278 196.422 77.0429 197.353C68.8536 199.679 62.3322 206.812 60.9673 215.341C58.3892 231.158 72.0384 244.65 87.5073 241.393C95.3938 239.687 102.067 233.33 104.19 225.421C105.252 221.079 105.252 216.737 104.038 213.015C102.825 208.673 104.038 204.021 107.071 200.764L111.166 196.577C114.048 193.631 118.294 192.08 122.388 193.165C124.209 193.631 126.029 193.941 127.848 193.941C129.668 193.941 131.488 193.631 133.157 193.165C137.1 192.08 141.346 193.476 144.379 196.577L148.929 201.23C151.962 204.331 153.175 208.983 152.114 213.325C151.052 217.047 151.052 221.389 152.114 225.731C154.237 233.795 161.062 239.998 168.948 241.548C184.416 244.65 197.762 231.314 195.336 215.651C193.971 207.432 188.208 200.609 180.777 197.818ZM60.9673 170.99C60.3607 167.113 61.574 163.082 64.3038 160.29L70.3699 154.087C73.2515 151.141 77.4978 149.745 81.593 150.676C85.2327 151.451 89.3274 151.451 93.5737 149.9C100.853 147.264 106.616 140.751 107.981 132.997C110.559 118.575 99.7917 106.015 86.1425 106.015C84.4741 106.015 82.8061 106.17 81.2897 106.635C77.3462 107.565 73.0999 106.17 70.2183 103.223L64.3038 97.1751C61.4223 94.2288 60.209 90.197 60.9673 86.1652C61.574 82.5984 61.4223 78.7216 60.0574 74.5343C57.3276 66.9357 50.6546 61.0431 42.7684 59.8025C27.451 57.1663 14.4084 70.8125 17.4416 86.4752C18.9582 94.6942 25.1761 101.517 32.9107 103.688C37.1571 104.929 41.2518 104.774 45.0433 103.688C49.2897 102.448 53.8394 103.688 56.8726 106.945L61.4223 111.597C64.3038 114.544 65.8204 118.885 64.7589 123.073C64.3038 124.778 64.0005 126.639 64.0005 128.5C64.0005 130.516 64.3038 132.377 64.7589 134.083C65.8204 138.114 64.4555 142.612 61.4223 145.558L57.3276 149.745C54.1428 153.002 49.593 154.087 45.3466 152.847C41.5551 151.761 37.4604 151.606 33.214 152.692C25.3278 154.863 19.1098 161.531 17.5932 169.75C14.4084 185.722 27.6026 199.524 43.0717 196.887C51.4129 195.492 58.5408 188.824 60.664 180.45C61.4223 177.348 61.574 174.091 60.9673 170.99ZM238.407 169.905C236.739 161.841 230.521 155.018 222.786 152.847C218.539 151.761 214.293 151.761 210.653 153.002C206.407 154.242 201.858 153.002 198.673 149.9L194.578 145.713C191.696 142.767 190.18 138.425 191.242 134.238C191.696 132.377 192 130.516 192 128.655C192 126.794 191.696 124.934 191.242 123.228C190.18 119.195 191.545 114.854 194.578 111.752L199.128 107.1C202.161 103.998 206.71 102.758 210.957 103.843C214.596 104.929 218.843 104.929 223.09 103.843C230.976 101.672 237.042 94.6942 238.558 86.6302C241.592 70.8125 228.549 57.1663 213.232 59.6475C205.346 60.888 198.673 66.7807 195.943 74.3793C194.578 78.4111 194.274 82.4434 195.033 86.0097C195.791 90.042 194.426 94.0738 191.696 97.0201L185.782 103.068C182.9 106.015 178.654 107.41 174.711 106.48C173.194 106.17 171.526 105.859 169.857 105.859C156.208 105.859 145.441 118.42 148.019 132.842C149.384 140.596 155.147 147.109 162.426 149.745C166.673 151.296 170.616 151.451 174.407 150.52C178.502 149.59 182.597 150.831 185.63 153.932L191.696 160.135C194.426 162.927 195.791 166.958 195.033 170.835C194.578 173.936 194.578 177.193 195.488 180.45C197.762 188.824 204.739 195.492 213.08 196.887C228.549 199.679 241.743 185.877 238.407 169.905Z" fill="url(#paint0_linear_28481_25422)"/>
<defs>
<linearGradient id="paint0_linear_28481_25422" x1="7.7765" y1="137.33" x2="259.881" y2="136.229" gradientUnits="userSpaceOnUse">
<stop offset="4.1024e-07" stop-color="#373ECC"/>
<stop offset="0.0119012" stop-color="#423DD1"/>
<stop offset="0.2689" stop-color="#8B37F7"/>
<stop offset="0.6895" stop-color="#FB6E80"/>
<stop offset="1" stop-color="#FFBB4D"/>
</linearGradient>
</defs>
</svg>
