<svg width="28" height="28" viewBox="0 0 28 28" fill="none" xmlns="http://www.w3.org/2000/svg">
<rect width="28" height="28" rx="14" fill="#2A2E3A"/>
<path opacity="0.7" d="M14.3341 27.6668C14.1501 27.8509 13.8584 27.8577 13.6826 27.682L7.31908 21.3185L14.4685 21.1488L14.4764 27.3092C14.4814 27.4363 14.4338 27.5673 14.3341 27.6668Z" fill="white"/>
<path d="M7.31851 21.318C7.14279 21.1423 7.14957 20.8507 7.33366 20.6666L14.4578 13.5425L27.3545 13.5546C27.4739 13.5506 27.5927 13.5928 27.6817 13.6818C27.8574 13.8575 27.8506 14.1492 27.6665 14.3333L20.7 21.2998C20.6068 21.3931 20.4859 21.4408 20.3665 21.4424L7.67001 21.4439C7.54249 21.4547 7.41354 21.4131 7.31851 21.318Z" fill="white"/>
<path opacity="0.7" d="M13.6665 0.333605C13.8506 0.149513 14.1423 0.14273 14.3181 0.318454L20.6816 6.68199L13.5395 6.85178L13.5242 0.691318C13.5192 0.564185 13.5669 0.433161 13.6665 0.333605Z" fill="white"/>
<path d="M20.6818 6.68195C20.8575 6.85768 20.8508 7.14937 20.6667 7.33346L13.5577 14.4424L0.645875 14.4454C0.526418 14.4494 0.40766 14.4072 0.318654 14.3182C0.142931 14.1425 0.149714 13.8508 0.333805 13.6667L7.30031 6.70013C7.39356 6.60689 7.5144 6.55912 7.6338 6.55754L20.3303 6.55617C20.4578 6.54527 20.5868 6.58692 20.6818 6.68195Z" fill="white"/>
</svg>
