<svg width="256" height="256" viewBox="0 0 256 256" fill="none" xmlns="http://www.w3.org/2000/svg">
<g clip-path="url(#clip0)">
<path d="M128 49.36C143.554 49.36 158.758 53.9722 171.69 62.6132C184.622 71.2543 194.702 83.5362 200.654 97.9058C206.606 112.275 208.163 128.087 205.129 143.342C202.095 158.597 194.605 172.609 183.607 183.607C172.609 194.605 158.597 202.095 143.342 205.129C128.087 208.163 112.275 206.606 97.9058 200.654C83.5363 194.702 71.2544 184.622 62.6133 171.69C53.9722 158.758 49.3601 143.554 49.3601 128C49.3865 107.151 57.6803 87.1645 72.4224 72.4223C87.1645 57.6802 107.152 49.3865 128 49.36ZM128 0C102.684 0 77.9366 7.50707 56.8871 21.5719C35.8376 35.6367 19.4315 55.6276 9.74348 79.0165C0.05546 102.405 -2.47937 128.142 2.45954 152.972C7.39845 177.801 19.5893 200.609 37.4904 218.51C55.3915 236.411 78.1989 248.602 103.029 253.541C127.858 258.479 153.595 255.945 176.984 246.257C200.372 236.569 220.363 220.162 234.428 199.113C248.493 178.064 256 153.316 256 128C256 94.0523 242.514 61.495 218.51 37.4903C194.505 13.4857 161.948 0 128 0V0Z" fill="url(#paint0_linear)"/>
<path d="M127.66 227.66C182.889 227.66 227.66 182.888 227.66 127.66C227.66 72.4315 182.889 27.66 127.66 27.66C72.4317 27.66 27.6602 72.4315 27.6602 127.66C27.6602 182.888 72.4317 227.66 127.66 227.66Z" fill="white"/>
<path d="M184.304 185.085C176.836 192.531 167.948 198.395 158.169 202.33C148.39 206.264 137.92 208.187 127.383 207.986C116.912 208.176 106.512 206.225 96.8195 202.254C87.1271 198.283 78.3459 192.373 71.013 184.888C55.6317 169.542 47.9607 150.692 48.0002 128.337C48.0002 105.364 55.7368 86.2249 71.21 70.9185C78.5726 63.4584 87.3775 57.5799 97.0867 53.6424C106.796 49.7049 117.205 47.7911 127.678 48.0181C138.213 47.8531 148.674 49.8132 158.436 53.7815C168.198 57.7497 177.063 63.6449 184.501 71.1157C200.263 86.4616 208.092 105.627 207.987 128.613C208.185 139.158 206.181 149.629 202.103 159.353C198.025 169.078 191.962 177.842 184.304 185.085Z" fill="#000004"/>
<path d="M98.5332 109.714C97.8615 108.799 97.2004 107.899 96.5474 107.011C94.6477 104.426 92.8158 101.933 90.9948 99.4218C90.4042 98.6116 89.8295 97.789 89.2557 96.9677C88.6147 96.0502 87.9747 95.134 87.3149 94.2387C87.1712 94.1105 87.056 93.9519 86.977 93.7737C86.898 93.5955 86.8571 93.4017 86.8571 93.2057C86.8571 93.0097 86.898 92.816 86.977 92.6377C87.056 92.4595 87.1712 92.3009 87.3149 92.1728C94.9056 83.3587 104.973 77.2131 116.111 74.5944C123.488 72.8143 131.148 72.6697 138.583 74.1701C144.172 75.2934 149.559 77.3031 154.553 80.128C154.862 80.3516 155.155 80.5982 155.429 80.8658L155.023 81.1717C152.922 82.7559 150.922 84.2634 148.908 85.7538C146.335 87.6505 143.757 89.5437 141.182 91.4355L141.179 91.4377C135.39 95.6902 129.611 99.9358 123.899 104.199C122.756 105.048 122.113 105.048 121.077 103.959C120.032 102.823 118.939 101.731 117.846 100.637C116.809 99.6003 115.771 98.5622 114.771 97.485C114.467 97.0757 114.018 96.8073 113.523 96.7382C113.028 96.6691 112.526 96.8049 112.127 97.1161C107.389 99.7139 103.266 103.361 100.052 107.796C99.8645 108.036 99.6806 108.265 99.4827 108.513C99.2083 108.855 98.9067 109.232 98.5332 109.714Z" fill="white"/>
<path d="M106.549 160.046L106.557 160.04L106.602 160.007C107.632 159.26 108.668 158.507 109.714 157.748C109.41 157.499 109.172 157.3 108.967 157.128C108.714 156.917 108.512 156.747 108.299 156.578C103.798 153.358 100.065 149.219 97.3592 144.448C97.1577 144.212 97.0077 143.938 96.9186 143.644C96.8295 143.349 96.803 143.039 96.8409 142.734C96.8788 142.428 96.9803 142.134 97.139 141.869C97.2977 141.603 97.5103 141.373 97.7637 141.191C98.9763 140.077 100.131 138.912 101.285 137.748C102.388 136.636 103.49 135.524 104.64 134.46C104.874 134.307 105.069 134.104 105.211 133.866C105.352 133.628 105.436 133.361 105.455 133.087C105.475 132.812 105.43 132.537 105.323 132.282C105.217 132.027 105.052 131.799 104.842 131.616C100.027 125.49 95.2489 119.336 90.4751 113.187C88.5596 110.72 86.6448 108.254 84.7284 105.791C84.1476 105.07 83.5595 104.314 82.9561 103.537C82.2032 102.569 81.4265 101.57 80.6101 100.571C80.4189 100.911 80.2496 101.203 80.0968 101.466C79.8528 101.886 79.6511 102.233 79.4702 102.587C75.7859 109.556 73.6552 117.212 73.2191 125.047C72.8321 132.164 73.9203 139.284 76.4182 145.978C79.5323 154.716 84.8958 162.52 91.9907 168.636C92.2612 168.86 92.5832 169.017 92.9291 169.092C93.275 169.167 93.6343 169.159 93.9763 169.068C98.1661 166.137 102.297 163.136 106.549 160.046Z" fill="white"/>
<path d="M112.91 165.636C108.812 168.769 104.706 171.909 100.571 175.08C100.815 175.329 101.079 175.557 101.359 175.761C108.551 179.877 116.552 182.27 124.766 182.762C131.493 183.176 138.234 182.237 144.612 179.999C153.807 176.922 162.053 171.407 168.521 164.008C168.705 163.86 168.856 163.674 168.963 163.46C169.07 163.247 169.131 163.012 169.141 162.772C169.152 162.532 169.111 162.292 169.022 162.07C168.934 161.847 168.799 161.648 168.628 161.484C167.815 160.362 167.016 159.232 166.212 158.095C165.247 156.73 164.274 155.354 163.26 153.968C161.644 151.761 160.015 149.583 158.326 147.323L157.551 146.286C157.396 146.483 157.259 146.654 157.134 146.809C156.898 147.102 156.706 147.341 156.531 147.594C153.319 152.18 149.14 155.959 144.308 158.647C144.066 158.841 143.788 158.982 143.491 159.061C143.193 159.14 142.884 159.156 142.581 159.108C142.277 159.059 141.987 158.948 141.727 158.78C141.467 158.612 141.243 158.391 141.069 158.131C139.3 156.206 137.432 154.335 135.548 152.449L135.546 152.447C134.763 151.663 133.978 150.876 133.195 150.081C126.4 155.321 119.667 160.469 112.91 165.636Z" fill="white"/>
<path d="M149.689 96.1121C148.571 96.9469 147.439 97.7923 146.286 98.6515L148.049 99.987C152.526 103.255 156.209 107.459 158.831 112.295C159.161 112.724 159.307 113.262 159.238 113.795C159.17 114.327 158.892 114.813 158.464 115.147C156.351 117.132 154.184 119.388 152.347 121.337C151.436 122.304 150.881 122.64 150.806 123.062C150.729 123.491 151.146 124.007 152.182 125.362C158.415 133.459 164.623 141.544 170.807 149.617C171.674 150.753 172.554 151.871 173.438 152.995C174.072 153.8 174.708 154.608 175.344 155.429C175.474 155.315 175.588 155.231 175.681 155.163C175.837 155.047 175.932 154.978 175.932 154.887C180.045 147.508 182.395 139.306 182.801 130.902C183.078 124.972 182.321 119.039 180.561 113.36C177.592 103.277 171.748 94.2399 163.717 87.3177C162.964 86.668 162.45 86.7402 161.678 87.3177C160.495 88.2846 159.205 89.1759 157.886 90.0873C157.384 90.4347 156.877 90.7851 156.37 91.1438C154.157 92.7747 151.952 94.4218 149.689 96.1121Z" fill="white"/>
</g>
<defs>
<linearGradient id="paint0_linear" x1="239.36" y1="239.36" x2="34.56" y2="34.56" gradientUnits="userSpaceOnUse">
<stop offset="0.159375" stop-color="#003CDA"/>
<stop offset="1" stop-color="#33DFCC"/>
</linearGradient>
<clipPath id="clip0">
<path d="M0 0H256V256H0V0Z" fill="white"/>
</clipPath>
</defs>
</svg>
