<?xml version="1.0" encoding="UTF-8"?>
<svg xmlns="http://www.w3.org/2000/svg" xmlns:xlink="http://www.w3.org/1999/xlink" width="250px" height="250px" viewBox="0 0 250 250" version="1.1">
<defs>
<linearGradient id="linear0" gradientUnits="userSpaceOnUse" x1="1.052964" y1="0.394095" x2="0" y2="0.605882" gradientTransform="matrix(250,0,0,250,0,0)">
<stop offset="0" style="stop-color:rgb(95.686275%,0%,51.372552%);stop-opacity:1;"/>
<stop offset="1" style="stop-color:rgb(98.823529%,47.843137%,13.725491%);stop-opacity:1;"/>
</linearGradient>
</defs>
<g id="surface1">
<path style=" stroke:none;fill-rule:evenodd;fill:url(#linear0);" d="M 2.324219 149.472656 C 11.75 199.199219 50.800781 238.25 100.527344 247.675781 C 188.59375 264.371094 264.371094 188.59375 247.675781 100.527344 C 238.25 50.804688 199.203125 11.757812 149.480469 2.324219 C 141.191406 0.753906 133.003906 0 125 0 C 47.960938 -0.00390625 -12.800781 69.691406 2.324219 149.472656 M 88.066406 105.304688 L 88.066406 89.980469 C 88.066406 87.9375 89.722656 86.28125 91.769531 86.28125 L 117.273438 86.28125 L 117.273438 63.527344 C 117.273438 61.195312 119.164062 59.304688 121.496094 59.304688 L 134.371094 59.304688 C 136.679688 59.304688 138.570312 61.195312 138.570312 63.507812 L 138.570312 86.28125 L 163.964844 86.28125 C 166.171875 86.28125 167.980469 88.089844 167.980469 90.296875 L 167.980469 104.964844 C 167.980469 107.183594 166.164062 108.996094 163.949219 108.996094 L 138.570312 108.996094 L 138.570312 127.660156 L 164.054688 127.660156 C 166.214844 127.660156 167.980469 129.421875 167.980469 131.582031 L 167.980469 146.378906 C 167.980469 148.585938 166.191406 150.375 163.988281 150.375 L 138.601562 150.375 C 138.601562 176.648438 117.679688 198.460938 91.671875 200.132812 C 89.722656 200.257812 88.066406 198.722656 88.066406 196.765625 L 88.066406 183.078125 C 88.066406 180.878906 89.714844 179.042969 91.898438 178.765625 C 105.988281 176.992188 117.234375 165.566406 117.234375 150.375 L 91.738281 150.375 C 89.710938 150.375 88.066406 148.730469 88.066406 146.699219 L 88.066406 131.339844 C 88.066406 129.308594 89.714844 127.660156 91.75 127.660156 L 117.273438 127.660156 L 117.273438 108.996094 L 91.757812 108.996094 C 89.71875 108.996094 88.066406 107.34375 88.066406 105.304688 "/>
</g>
</svg>
