<svg id="Logo_v6_8_pt_Icon_Logo_for_Wallets_v4" data-name="Logo v6 (8 pt)  Icon Logo for Wallets v4" xmlns="http://www.w3.org/2000/svg" xmlns:xlink="http://www.w3.org/1999/xlink" viewBox="0 0 256.05 283.34"><defs><style>.cls-1{fill:url(#radial-gradient);}.cls-2{fill:url(#linear-gradient);}.cls-3{fill:url(#linear-gradient-2);}.cls-4{fill:url(#radial-gradient-2);}.cls-5{fill:none;stroke-width:8px;stroke:url(#radial-gradient-3);}.cls-6{stroke-width:0.25px;fill:url(#radial-gradient-4);stroke:url(#Radial_latón);}</style><radialGradient id="radial-gradient" cx="133.51" cy="148.73" r="131.23" gradientUnits="userSpaceOnUse"><stop offset="0" stop-color="#0a57a4"/><stop offset="0.17" stop-color="#0b4895"/><stop offset="0.49" stop-color="#0e236f"/><stop offset="0.75" stop-color="#10004c"/></radialGradient><linearGradient id="linear-gradient" x1="319.1" y1="21.45" x2="441.34" y2="21.45" gradientTransform="translate(450.83 170.18) rotate(180)" gradientUnits="userSpaceOnUse"><stop offset="0" stop-color="#0a57a4"/><stop offset="0.19" stop-color="#0b4895"/><stop offset="0.55" stop-color="#0e236f"/><stop offset="0.84" stop-color="#10004c"/></linearGradient><linearGradient id="linear-gradient-2" x1="290.49" y1="21.45" x2="412.74" y2="21.45" gradientTransform="matrix(1, 0, 0, -1, -155.6, 170.18)" xlink:href="#linear-gradient"/><radialGradient id="radial-gradient-2" cx="299.32" cy="180.99" r="111.56" gradientTransform="matrix(-1, 0, 0, 1.03, 432.83, -2.48)" gradientUnits="userSpaceOnUse"><stop offset="0.15" stop-color="#f5ebd7"/><stop offset="0.27" stop-color="#ecd270"/><stop offset="0.39" stop-color="#ce932d"/><stop offset="0.46" stop-color="#bc6d05"/></radialGradient><radialGradient id="radial-gradient-3" cx="130.52" cy="148.92" r="137.36" gradientTransform="translate(0.54 -5.32) scale(0.98 0.99)" gradientUnits="userSpaceOnUse"><stop offset="0" stop-color="#f5ebd7"/><stop offset="0.47" stop-color="#ecd375"/><stop offset="0.89" stop-color="#ecd270"/><stop offset="0.89" stop-color="#eacd6b"/><stop offset="0.93" stop-color="#d49f3e"/><stop offset="0.96" stop-color="#c47e1d"/><stop offset="0.98" stop-color="#ba6909"/><stop offset="1" stop-color="#b76202"/></radialGradient><radialGradient id="radial-gradient-4" cx="188.7" cy="99.92" r="23.42" gradientTransform="translate(6.4 39.66) scale(0.64 0.63)" gradientUnits="userSpaceOnUse"><stop offset="0.18" stop-color="#f5ebd7"/><stop offset="0.75" stop-color="#ecd270"/><stop offset="0.79" stop-color="#eace6c"/><stop offset="0.84" stop-color="#e5c260"/><stop offset="0.89" stop-color="#dbaf4b"/><stop offset="0.94" stop-color="#cf942e"/><stop offset="0.99" stop-color="#be710a"/><stop offset="1" stop-color="#bc6d05"/></radialGradient><radialGradient id="Radial_latón" cx="188.7" cy="99.92" r="23.54" gradientTransform="translate(6.4 39.66) scale(0.64 0.63)" gradientUnits="userSpaceOnUse"><stop offset="0.18" stop-color="#f5ebd7"/><stop offset="0.59" stop-color="#ecd270"/><stop offset="1" stop-color="#bc6d05"/></radialGradient></defs><title>JobchainLogo</title><path class="cls-1" d="M8.47,80.31V217.15a.28.28,0,0,0,.15.25l124.75,68.43a.28.28,0,0,0,.27,0L258.4,217.4a.28.28,0,0,0,.15-.25V80.31a.28.28,0,0,0-.15-.25L133.65,11.63a.28.28,0,0,0-.27,0L8.62,80.06A.28.28,0,0,0,8.47,80.31Z" transform="translate(-5.49 -7.06)"/><path class="cls-2" d="M9.49,217.91l122.24-69.62L9.49,79.55Z" transform="translate(-5.49 -7.06)"/><path class="cls-3" d="M257.13,217.91,134.89,148.29,257.13,79.55Z" transform="translate(-5.49 -7.06)"/><path id="Ambas" class="cls-4" d="M133.51,285.77c-1.93-1.93,8.22-93.54-51.64-153.35C52.36,102.94,11.72,80.18,11.53,80.51S32.74,91.77,126,144.77a15.34,15.34,0,0,0,15.09,0c93.22-53,114.59-64,114.44-64.26s-40.83,22.42-70.34,51.91C125.29,192.23,135.44,283.84,133.51,285.77Z" transform="translate(-5.49 -7.06)"/><polygon class="cls-5" points="4 73.12 4 210.22 128.03 278.77 252.05 210.22 252.05 73.12 128.03 4.57 4 73.12"/><ellipse class="cls-6" cx="128.02" cy="102.29" rx="15.09" ry="14.68"/></svg>