<svg width="750" height="750" viewBox="0 0 750 750" fill="none" xmlns="http://www.w3.org/2000/svg">
<path d="M375 731.25C571.751 731.25 731.25 571.751 731.25 375C731.25 178.249 571.751 18.75 375 18.75C178.249 18.75 18.75 178.249 18.75 375C18.75 571.751 178.249 731.25 375 731.25Z" fill="#E3AD17"/>
<path fill-rule="evenodd" clip-rule="evenodd" d="M252.262 145.088L251.51 145.664C225.246 165.794 135.941 234.24 135.941 375C135.941 515.76 225.246 584.206 251.51 604.336L252.262 604.912L252.263 604.913C255.683 607.536 257.931 609.26 258.628 610.147C258.967 610.838 258.516 611.091 258.288 611.184C253.198 613.256 78.75 567.419 78.75 375C78.75 182.581 253.198 136.744 258.288 138.816C258.516 138.909 258.967 139.162 258.628 139.853C257.931 140.74 255.682 142.464 252.262 145.088ZM307.035 212.25H244.108C239.561 212.25 235.876 215.947 235.876 220.504C235.876 221.869 236.213 223.214 236.859 224.416L303.194 348.013C303.651 348.863 303.331 349.927 302.481 350.384C302.228 350.522 301.943 350.595 301.656 350.595H252.169C247.622 350.595 243.938 354.289 243.938 358.848V402.285C243.938 406.845 247.622 410.538 252.169 410.538H328.715C329.68 410.538 330.461 411.324 330.461 412.288V438.592C330.461 439.558 329.68 440.343 328.715 440.343H252.169C247.622 440.343 243.938 444.037 243.938 448.597V488.104C243.938 492.663 247.622 496.357 252.169 496.357H328.715C329.68 496.357 330.461 497.143 330.461 498.106V556.497C330.461 561.054 334.148 564.75 338.695 564.75H407.677C412.224 564.75 415.908 561.054 415.908 556.497V498.106C415.908 497.14 416.692 496.357 417.655 496.357H495.902C500.449 496.357 504.136 492.663 504.136 488.104V448.597C504.136 444.037 500.452 440.343 495.902 440.343H417.655C416.689 440.343 415.908 439.558 415.908 438.592V412.288C415.908 411.321 416.692 410.538 417.655 410.538H495.902C500.449 410.538 504.136 406.845 504.136 402.285V358.848C504.136 354.289 500.452 350.595 495.902 350.595H446.799C445.833 350.595 445.052 349.809 445.052 348.846C445.052 348.55 445.126 348.258 445.268 348L513.104 224.489C515.297 220.496 513.846 215.478 509.864 213.279C508.648 212.607 507.28 212.255 505.892 212.255H441.331C438.307 212.255 435.527 213.917 434.09 216.584L375.807 324.612C375.347 325.462 374.286 325.779 373.441 325.319C373.144 325.159 372.898 324.913 372.736 324.614L314.272 216.569C312.832 213.907 310.057 212.25 307.035 212.25ZM498.49 145.664C498.233 145.467 497.982 145.275 497.738 145.088C494.318 142.464 492.069 140.74 491.372 139.853C491.033 139.162 491.484 138.909 491.712 138.816C496.802 136.744 671.25 182.581 671.25 375C671.25 567.419 496.802 613.256 491.712 611.184C491.484 611.091 491.033 610.838 491.372 610.147C492.069 609.26 494.317 607.536 497.737 604.913L497.738 604.912L498.49 604.336C524.754 584.206 614.059 515.76 614.059 375C614.059 234.24 524.754 165.794 498.49 145.664Z" fill="white"/>
</svg>
