<svg height="250" viewBox="0 0 250 250" width="250" xmlns="http://www.w3.org/2000/svg"><path d="m250 125c0 69.035156-55.964844 125-125 125s-125-55.964844-125-125 55.964844-125 125-125 125 55.964844 125 125zm0 0" fill="#0a0806"/><path d="m169.601562 96.777344-23.808593 28.101562 23.636719 27.753906h7.410156v22.265626h-49.917969v-22.265626h7.792969l-15.398438-18.1875h-7.050781v18.1875h8.90625v22.265626h-48.800781v-22.265626h10.574218v-55.855468h-10.574218v-22.265625h12.246094v8.347656h6.492187v-8.347656h11.507813v8.347656h6.492187v-8.347656h12.0625v22.265625h-8.90625v18.1875h6.304687l16.257813-18.1875h-7.90625v-22.265625h49.917969v22.265625zm0 0" fill="#48dbb4"/></svg>