
<svg xmlns="http://www.w3.org/2000/svg" xmlns:xlink="http://www.w3.org/1999/xlink" width="250px" height="250px" viewBox="0 0 250 250" version="1.1">
<g id="surface1">
<path style=" stroke:none;fill-rule:nonzero;fill:rgb(3.921569%,3.137255%,2.352941%);fill-opacity:1;" d="M 250 125 C 250 194.035156 194.035156 250 125 250 C 55.964844 250 0 194.035156 0 125 C 0 55.964844 55.964844 0 125 0 C 194.035156 0 250 55.964844 250 125 Z M 250 125 "/>
<path style=" stroke:none;fill-rule:nonzero;fill:rgb(28.235295%,85.882354%,70.588237%);fill-opacity:1;" d="M 169.601562 96.777344 L 145.792969 124.878906 L 169.429688 152.632812 L 176.839844 152.632812 L 176.839844 174.898438 L 126.921875 174.898438 L 126.921875 152.632812 L 134.714844 152.632812 L 119.316406 134.445312 L 112.265625 134.445312 L 112.265625 152.632812 L 121.171875 152.632812 L 121.171875 174.898438 L 72.371094 174.898438 L 72.371094 152.632812 L 82.945312 152.632812 L 82.945312 96.777344 L 72.371094 96.777344 L 72.371094 74.511719 L 84.617188 74.511719 L 84.617188 82.859375 L 91.109375 82.859375 L 91.109375 74.511719 L 102.617188 74.511719 L 102.617188 82.859375 L 109.109375 82.859375 L 109.109375 74.511719 L 121.171875 74.511719 L 121.171875 96.777344 L 112.265625 96.777344 L 112.265625 114.964844 L 118.570312 114.964844 L 134.828125 96.777344 L 126.921875 96.777344 L 126.921875 74.511719 L 176.839844 74.511719 L 176.839844 96.777344 Z M 169.601562 96.777344 "/>
</g>
</svg>
