
<svg xmlns="http://www.w3.org/2000/svg" xmlns:xlink="http://www.w3.org/1999/xlink" width="250px" height="250px" viewBox="0 0 250 250" version="1.1">
<defs>
<linearGradient id="linear0" gradientUnits="userSpaceOnUse" x1="0.5" y1="0.97784" x2="0.5" y2="0.01559" gradientTransform="matrix(31.832031,0,0,32.101563,104.421875,157.589844)">
<stop offset="0" style="stop-color:rgb(3.137255%,73.725492%,80.392158%);stop-opacity:1;"/>
<stop offset="1" style="stop-color:rgb(17.647059%,63.137257%,97.254902%);stop-opacity:1;"/>
</linearGradient>
<linearGradient id="linear1" gradientUnits="userSpaceOnUse" x1="0.5" y1="0.97784" x2="0.437601" y2="-0.16397" gradientTransform="matrix(217.039062,0,0,248.054688,17.605469,0)">
<stop offset="0" style="stop-color:rgb(3.137255%,73.725492%,80.392158%);stop-opacity:1;"/>
<stop offset="1" style="stop-color:rgb(17.647059%,63.137257%,97.254902%);stop-opacity:1;"/>
</linearGradient>
</defs>
<g id="surface1">
<path style=" stroke:none;fill-rule:evenodd;fill:url(#linear0);" d="M 136.253906 173.640625 C 136.253906 182.503906 129.125 189.691406 120.335938 189.691406 C 111.546875 189.691406 104.421875 182.503906 104.421875 173.640625 C 104.421875 164.773438 111.546875 157.589844 120.335938 157.589844 C 129.125 157.589844 136.253906 164.773438 136.253906 173.640625 Z M 136.253906 173.640625 "/>
<path style=" stroke:none;fill-rule:nonzero;fill:url(#linear1);" d="M 234.644531 62.015625 L 126.125 0 L 17.605469 62.015625 L 17.605469 186.042969 L 126.125 248.054688 L 234.644531 186.042969 Z M 160.785156 53.617188 C 160.78125 57.535156 157.625 60.710938 153.71875 60.730469 L 127.433594 60.730469 L 127.433594 76.050781 L 146.824219 76.050781 C 148.699219 76.054688 150.5 76.804688 151.828125 78.140625 C 153.152344 79.472656 153.894531 81.28125 153.890625 83.164062 C 153.894531 87.082031 150.734375 90.265625 146.824219 90.273438 L 127.433594 90.273438 L 127.433594 144.808594 C 127.445312 145.058594 127.445312 145.3125 127.433594 145.5625 C 141.148438 149.195312 150.066406 162.492188 148.296875 176.652344 C 146.523438 190.808594 134.605469 201.460938 120.425781 201.554688 C 106.242188 201.652344 94.183594 191.164062 92.222656 177.027344 C 90.261719 162.894531 99 149.484375 112.667969 145.664062 C 112.636719 145.386719 112.617188 145.109375 112.613281 144.835938 L 112.613281 53.988281 C 112.609375 52.011719 113.386719 50.117188 114.777344 48.71875 C 116.167969 47.320312 118.058594 46.53125 120.027344 46.527344 C 120.648438 46.527344 121.265625 46.613281 121.867188 46.769531 C 122.449219 46.609375 123.050781 46.53125 123.652344 46.527344 L 153.742188 46.527344 C 157.648438 46.546875 160.804688 49.726562 160.808594 53.640625 L 160.785156 53.621094 Z M 160.785156 53.617188 "/>
</g>
</svg>
