<svg height="250" viewBox="0 0 250 250" width="250" xmlns="http://www.w3.org/2000/svg"><path d="m20.148438 58.613281-5.148438 13.457031v27.660157c0 15.101562.148438 27.511719.351562 27.511719.199219 0 2.597657-6.578126 5.25-14.503907l4.898438-14.652343v20.632812c0 11.214844.148438 20.484375.351562 20.484375.199219 0 .898438-1.492187 1.546876-3.4375l1.203124-3.289063 7.449219 22.726563 7.398438 22.878906h14.800781l-15-44.859375h-7.101562c-3.949219 0-7.148438-.449218-7.148438-1.195312 0-.597656 3.148438-10.464844 7-21.980469l7-20.933594v-44.855469l-17 50.835938v-25.117188c0-13.757812-.148438-24.96875-.351562-24.820312-.25 0-2.699219 6.128906-5.5 13.457031zm0 0"/><path d="m69.148438 103.019531c-2.449219 2.839844-2.597657 3.441407-1 5.53125 1.101562 1.496094 1.101562 1.945313 1.25 32.449219.101562 30.203125.101562 30.949219-1 33.941406l-1.097657 3.140625 4-.152343c3.398438 0 3.75-.296876 2.699219-1.792969-1.699219-2.394531-2-3.886719-2-11.214844 0-4.035156.199219-6.28125.648438-6.28125.300781 0 1.800781 4.335937 3.300781 9.71875l2.699219 9.722656h2.703124c2.847657 0 3.25-1.945312.699219-3.441406-1.050781-.597656-2.300781-4.035156-4.300781-11.363281-1.550781-5.832032-2.699219-11.0625-2.550781-11.8125.601562-2.988282 5.699219-13.753906 6.449219-13.753906.5 0 .851562-.75.851562-1.496094 0-.898438-1.449219-1.496094-3.351562-1.496094-3.148438.148438-3.347657.300781-2.398438 2.390625.949219 2.246094.898438 2.542969-1.75 9.871094l-2.75 7.625-.148438-27.0625c-.050781-14.953125-.300781-27.066407-.5-27.066407-.203124.152344-1.300781 1.347657-2.453124 2.542969zm0 0"/><path d="m128.300781 108.105469c-.449219 4.335937-.699219 13.15625-.402343 13.15625.203124 0 .75-2.09375 1.203124-4.484375.796876-4.335938 1-4.488282 4.398438-4.488282h3.5v61.15625l-1.351562 2.242188c-1.347657 2.09375-1.148438 2.242188 3.101562 2.394531h4.5l-1.601562-2.992187-1.648438-2.992188v-59.808594h4c3.851562 0 4.050781.152344 4.5 3.738282.699219 5.535156 1 4.636718 1-2.988282v-6.730468h-10.5c-8 0-10.601562.449218-10.699219 1.796875zm0 0"/><path d="m211.351562 134.71875c-.953124 3.289062-2.351562 3.886719-3.25 1.195312-.300781-.894531-1.703124-1.792968-3.152343-1.792968-2.25-.148438-2.699219.449218-4 4.785156-1.800781 5.980469-2.050781 16.148438-.5 20.484375 1 2.542969 1 2.542969-.097657 6.878906-.902343 3.738281-1 5.082031-.5 8.820313.5 3.886718.449219 4.785156-.402343 5.980468-.648438 1.195313-.949219 3.140626-.949219 6.730469 0 4.183594.300781 5.53125 1.449219 7.324219 2.5 3.886719 5.351562 4.484375 7.800781 1.644531 5.351562-5.980469 5-21.679687-.5-21.679687-2.050781 0-5.601562-2.09375-6.101562-3.4375-.148438-.449219-.097657-2.246094.101562-3.890625.25-2.691407.75-3.136719 2.800781-3.136719 4.300781 0 6.449219-5.234375 6.449219-15.402344 0-3.140625.300781-5.53125.699219-5.980468.652343-.75 1.652343-9.570313 1.199219-10.765626-.097657-.449218-.597657.597657-1.046876 2.242188zm-4.851562 2.992188c1.5 2.390624 2.199219 12.257812 1.300781 18.390624-.75 5.53125-1.949219 7.324219-3.652343 5.382813-1.449219-1.644531-2.296876-6.578125-2.296876-13.609375 0-9.417969 2.199219-14.054688 4.648438-10.164062zm1.398438 44.257812c3.953124 2.390625 1.351562 14.054688-3.097657 14.054688-2.601562 0-4.25-2.394532-4.601562-6.730469-.5-5.828125.550781-8.222657 3.550781-8.222657 1.449219 0 3.300781.449219 4.148438.898438zm0 0"/><path d="m93.5 135.914062c-2.050781 3.441407-4 13.609376-4 21.082032 0 7.328125 1.398438 15.101562 3.5 19.289062 2.300781 4.636719 5.25 3.886719 7.851562-2.09375 1.898438-4.335937 1.5-7.027344-.453124-2.988281-2.699219 5.679687-6.75.296875-7.898438-10.46875-1-8.820313-.601562-9.71875 4.351562-9.566406 2.449219.148437 4.648438.148437 5 .148437.949219-.148437-.152343-8.074218-1.800781-12.710937-1.851562-5.382813-4.300781-6.277344-6.550781-2.691407zm4.550781 4.785157c.847657 2.394531 1.398438 5.085937 1.199219 5.980469-.148438.75-1.851562 1.496093-3.75 1.496093h-3.5l.550781-4.1875c1.097657-8.671875 3.25-10.015625 5.5-3.289062zm0 0"/><path d="m156.199219 135.617188c-2.050781 2.988281-3.097657 8.523437-2.199219 11.8125 1.101562 4.035156 2 2.691406 2-2.992188 0-4.1875.25-5.53125 1.101562-6.578125 2.449219-2.691406 4.597657 3.289063 4.296876 11.960937-.148438 4.636719-.296876 4.933594-2.796876 6.578126-3.101562 2.09375-5.101562 7.179687-5.101562 12.5625 0 4.78125.398438 6.578124 1.851562 8.96875 1.546876 2.394531 2.648438 2.09375 4.699219-1.195313 1.648438-2.691406 1.898438-2.691406 2.597657-.597656.902343 2.691406 3.152343 3.140625 4 .597656.402343-1.195313.300781-1.644531-.449219-1.644531-1.847657 0-2.199219-2.992188-2.199219-18.691406-.050781-16.148438-.398438-18.988282-2.699219-21.679688-1.851562-2.09375-3.25-1.792969-5.101562.898438zm5.300781 28.109374c0 8.074219-1 11.664063-3.148438 11.0625-3-.894531-3.152343-10.914062-.25-15.101562 2.796876-4.183594 3.398438-3.4375 3.398438 4.039062zm0 0"/><path d="m175.5 136.066406c-2 2.539063-2.101562 2.839844-1 3.289063 1.25.597656 1.25.746093 1.398438 16.894531.101562 13.605469 0 16.746094-.699219 18.988281-.847657 2.691407-.75 2.84375 2.800781 2.84375 3.699219 0 3.949219-.601562 1.898438-3.589843-1.046876-1.644532-1.148438-2.839844-1.296876-14.953126-.152343-11.960937-.050781-13.605468.949219-16.746093 1.597657-5.082031 4.5-4.933594 5.898438.300781.902343 3.4375 1.050781 6.128906 1.050781 17.492188 0 11.066406-.148438 13.757812-.851562 15.402343-.796876 1.792969-.398438 1.941407 2.75 2.09375 2.300781 0 3.550781-.601562 3.351562-1.496093-.148438-.898438-.699219-1.496094-1.25-1.496094-1.25 0-1.5-2.839844-1.5-16.597656 0-14.351563-.800781-20.035157-3.351562-23.324219-2-2.394531-3.648438-1.644531-5.75 2.691406l-1.398438 2.988281v-3.738281c0-4.484375-.050781-4.632813-3-1.042969zm0 0"/><path d="m224.351562 135.316406c-3.550781 3.886719-4.851562 9.867188-4.851562 22.726563 0 7.777343.148438 8.824219 1.898438 14.054687 4.550781 13.609375 12.300781 6.730469 13.351562-11.8125.5-9.269531-1.300781-19.285156-4.25-23.773437-2.550781-3.738281-3.5-3.886719-6.148438-1.195313zm4.949219 3.140625c1.648438 3.289063 2.699219 11.511719 2.699219 20.933594 0 7.324219-.199219 8.96875-1.449219 12.859375-1.851562 5.53125-3.949219 5.679688-6 .597656-3-7.625-3.449219-26.464844-.851562-33.195312 1.550781-4.035156 4.050781-4.484375 5.601562-1.195313zm0 0"/><path d="m108 135.617188c0 .449218.449219 1.941406.949219 3.289062 1.050781 2.839844 6.050781 37.378906 6.050781 42.015625 0 1.496094-.550781 5.234375-1.25 8.222656-.699219 3.140625-1.351562 6.28125-1.398438 7.175781-.152343 2.246094 1.5 2.691407 2.046876.75.25-1.046874 1.851562-13.90625 3.601562-28.710937 1.75-14.800781 3.601562-28.40625 4.148438-30.351563l1-3.289062h-2.796876c-2.800781 0-3.800781 1.945312-1.851562 3.4375.601562.449219 1 2.09375 1 4.039062 0 4.035157-2.5 25.417969-2.949219 25.417969-.550781 0-4.101562-26.914062-3.800781-28.558593.199219-.746094.648438-1.34375 1.050781-1.34375.398438 0 .699219-.75.699219-1.496094 0-.898438-1.398438-1.496094-3.25-1.496094-1.800781 0-3.25.449219-3.25.898438zm0 0"/><path d="m20.351562 156.847656-5.351562 16v16.148438c0 9.269531.199219 15.996094.449219 15.699218.25-.300781 2.75-6.128906 5.5-13.160156l5.050781-12.707031v-19.140625c0-10.464844-.050781-18.988281-.148438-18.988281-.050781 0-2.550781 7.175781-5.5 16.148437zm0 0"/></svg>