<svg height="250" viewBox="0 0 250 250" width="250" xmlns="http://www.w3.org/2000/svg" xmlns:xlink="http://www.w3.org/1999/xlink"><filter id="a" height="100%" width="100%" x="0%" y="0%"><feColorMatrix in="SourceGraphic" type="matrix" values="0 0 0 0 1 0 0 0 0 1 0 0 0 0 1 0 0 0 1 0"/></filter><mask id="b"><g filter="url(#a)"><path d="m0 0h250v250h-250z" fill-opacity=".3"/></g></mask><mask id="c"><g filter="url(#a)"><path d="m0 0h250v250h-250z" fill-opacity=".0625"/></g></mask><linearGradient id="d" gradientTransform="matrix(3.125 0 0 -3.125 0 256.25)" gradientUnits="userSpaceOnUse" x1="20.959999" x2="79.110001" y1="23.832701" y2="23.832701"><stop offset=".375" stop-opacity=".0625"/><stop offset="1" stop-opacity="0"/></linearGradient><clipPath id="e"><path d="m0 0h250v250h-250z"/></clipPath><mask id="f"><g filter="url(#a)"><path d="m0 0h250v250h-250z" fill-opacity=".125"/></g></mask><linearGradient id="g" gradientTransform="matrix(3.125 0 0 -3.125 0 256.25)" gradientUnits="userSpaceOnUse" x1="20.950001" x2="78.699997" y1="23.9785" y2="23.9785"><stop offset=".375" stop-opacity=".125"/><stop offset="1" stop-opacity="0"/></linearGradient><clipPath id="h"><path d="m0 0h250v250h-250z"/></clipPath><mask id="i"><g filter="url(#a)"><path d="m0 0h250v250h-250z" fill-opacity=".1875"/></g></mask><linearGradient id="j" gradientTransform="matrix(3.125 0 0 -3.125 0 256.25)" gradientUnits="userSpaceOnUse" x1="20.950001" x2="78.309998" y1="24.124599" y2="24.124599"><stop offset=".375" stop-opacity=".1875"/><stop offset="1" stop-opacity="0"/></linearGradient><clipPath id="k"><path d="m0 0h250v250h-250z"/></clipPath><mask id="l"><g filter="url(#a)"><path d="m0 0h250v250h-250z" fill-opacity=".25"/></g></mask><linearGradient id="m" gradientTransform="matrix(3.125 0 0 -3.125 0 256.25)" gradientUnits="userSpaceOnUse" x1="20.950001" x2="77.910004" y1="24.268499" y2="24.268499"><stop offset=".375" stop-opacity=".25"/><stop offset="1" stop-opacity="0"/></linearGradient><clipPath id="n"><path d="m0 0h250v250h-250z"/></clipPath><mask id="o"><g filter="url(#a)"><path d="m0 0h250v250h-250z" fill-opacity=".3125"/></g></mask><linearGradient id="p" gradientTransform="matrix(3.125 0 0 -3.125 0 256.25)" gradientUnits="userSpaceOnUse" x1="20.950001" x2="77.519997" y1="24.414101" y2="24.414101"><stop offset=".375" stop-opacity=".3125"/><stop offset="1" stop-opacity="0"/></linearGradient><clipPath id="q"><path d="m0 0h250v250h-250z"/></clipPath><mask id="r"><g filter="url(#a)"><path d="m0 0h250v250h-250z" fill-opacity=".375"/></g></mask><linearGradient id="s" gradientTransform="matrix(3.125 0 0 -3.125 0 256.25)" gradientUnits="userSpaceOnUse" x1="20.950001" x2="77.120003" y1="24.5571" y2="24.5571"><stop offset=".375" stop-opacity=".375"/><stop offset="1" stop-opacity="0"/></linearGradient><clipPath id="t"><path d="m0 0h250v250h-250z"/></clipPath><mask id="u"><g filter="url(#a)"><path d="m0 0h250v250h-250z" fill-opacity=".4375"/></g></mask><linearGradient id="v" gradientTransform="matrix(3.125 0 0 -3.125 0 256.25)" gradientUnits="userSpaceOnUse" x1="20.950001" x2="76.730003" y1="24.7015" y2="24.7015"><stop offset=".375" stop-opacity=".4375"/><stop offset="1" stop-opacity="0"/></linearGradient><clipPath id="w"><path d="m0 0h250v250h-250z"/></clipPath><mask id="x"><g filter="url(#a)"><path d="m0 0h250v250h-250z" fill-opacity=".5"/></g></mask><linearGradient id="y" gradientTransform="matrix(3.125 0 0 -3.125 0 256.25)" gradientUnits="userSpaceOnUse" x1="20.950001" x2="76.330002" y1="24.836" y2="24.836"><stop offset=".375" stop-opacity=".5"/><stop offset="1" stop-opacity="0"/></linearGradient><clipPath id="z"><path d="m0 0h250v250h-250z"/></clipPath><mask id="A"><g filter="url(#a)"><path d="m0 0h250v250h-250z" fill-opacity=".5625"/></g></mask><linearGradient id="B" gradientTransform="matrix(3.125 0 0 -3.125 0 256.25)" gradientUnits="userSpaceOnUse" x1="20.950001" x2="75.940002" y1="24.98" y2="24.98"><stop offset=".375" stop-opacity=".5625"/><stop offset="1" stop-opacity="0"/></linearGradient><clipPath id="C"><path d="m0 0h250v250h-250z"/></clipPath><mask id="D"><g filter="url(#a)"><path d="m0 0h250v250h-250z" fill-opacity=".625"/></g></mask><linearGradient id="E" gradientTransform="matrix(3.125 0 0 -3.125 0 256.25)" gradientUnits="userSpaceOnUse" x1="20.950001" x2="75.540001" y1="25.1234" y2="25.1234"><stop offset=".375" stop-opacity=".625"/><stop offset="1" stop-opacity="0"/></linearGradient><clipPath id="F"><path d="m0 0h250v250h-250z"/></clipPath><mask id="G"><g filter="url(#a)"><path d="m0 0h250v250h-250z" fill-opacity=".6875"/></g></mask><linearGradient id="H" gradientTransform="matrix(3.125 0 0 -3.125 0 256.25)" gradientUnits="userSpaceOnUse" x1="20.950001" x2="75.139999" y1="25.264" y2="25.264"><stop offset=".375" stop-opacity=".6875"/><stop offset="1" stop-opacity="0"/></linearGradient><clipPath id="I"><path d="m0 0h250v250h-250z"/></clipPath><mask id="J"><g filter="url(#a)"><path d="m0 0h250v250h-250z" fill-opacity=".75"/></g></mask><linearGradient id="K" gradientTransform="matrix(3.125 0 0 -3.125 0 256.25)" gradientUnits="userSpaceOnUse" x1="20.950001" x2="74.75" y1="25.4086" y2="25.4086"><stop offset=".375" stop-opacity=".75"/><stop offset="1" stop-opacity="0"/></linearGradient><clipPath id="L"><path d="m0 0h250v250h-250z"/></clipPath><mask id="M"><g filter="url(#a)"><path d="m0 0h250v250h-250z" fill-opacity=".8125"/></g></mask><linearGradient id="N" gradientTransform="matrix(3.125 0 0 -3.125 0 256.25)" gradientUnits="userSpaceOnUse" x1="20.950001" x2="74.349998" y1="25.5532" y2="25.5532"><stop offset=".375" stop-opacity=".8125"/><stop offset="1" stop-opacity="0"/></linearGradient><clipPath id="O"><path d="m0 0h250v250h-250z"/></clipPath><mask id="P"><g filter="url(#a)"><path d="m0 0h250v250h-250z" fill-opacity=".875"/></g></mask><linearGradient id="Q" gradientTransform="matrix(3.125 0 0 -3.125 0 256.25)" gradientUnits="userSpaceOnUse" x1="20.950001" x2="73.959999" y1="25.691999" y2="25.691999"><stop offset=".375" stop-opacity=".875"/><stop offset="1" stop-opacity="0"/></linearGradient><clipPath id="R"><path d="m0 0h250v250h-250z"/></clipPath><mask id="S"><g filter="url(#a)"><path d="m0 0h250v250h-250z" fill-opacity=".9375"/></g></mask><linearGradient id="T" gradientTransform="matrix(3.125 0 0 -3.125 0 256.25)" gradientUnits="userSpaceOnUse" x1="20.950001" x2="73.559998" y1="25.828501" y2="25.828501"><stop offset=".375" stop-opacity=".9375"/><stop offset="1" stop-opacity="0"/></linearGradient><clipPath id="U"><path d="m0 0h250v250h-250z"/></clipPath><linearGradient id="V" gradientTransform="matrix(3.125 0 0 -3.125 0 256.25)" gradientUnits="userSpaceOnUse" x1="20.950001" x2="73.169998" y1="25.955099" y2="25.955099"><stop offset=".375"/><stop offset="1" stop-opacity="0"/></linearGradient><clipPath id="W"><path d="m0 0h250v250h-250z"/></clipPath><linearGradient id="X" gradientTransform="matrix(3.125 0 0 -3.125 0 256.25)" gradientUnits="userSpaceOnUse" x1="20.950001" x2="73.169998" y1="13.7414" y2="13.7414"><stop offset="0" stop-color="#808080"/><stop offset=".3275" stop-color="#838383"/><stop offset=".5905" stop-color="#8d8d8d"/><stop offset=".8302" stop-color="#9e9e9e"/><stop offset="1" stop-color="#afafaf"/></linearGradient><linearGradient id="Y" gradientTransform="matrix(3.125 0 0 -3.125 0 256.25)" gradientUnits="userSpaceOnUse" x1="47.060001" x2="47.060001" y1="18.4487" y2="9.0245"><stop offset=".35" stop-color="#dfdfdf"/><stop offset=".6454" stop-color="#ddd"/><stop offset=".7517" stop-color="#d6d6d6"/><stop offset=".8276" stop-color="#cbcbcb"/><stop offset=".8889" stop-color="#bababa"/><stop offset=".9414" stop-color="#a4a4a4"/><stop offset=".987" stop-color="#898989"/><stop offset="1" stop-color="#808080"/></linearGradient><linearGradient id="Z" gradientTransform="matrix(3.125 0 0 -3.125 0 256.25)" gradientUnits="userSpaceOnUse" x1="20.959999" x2="73.18" y1="29.5942" y2="29.5942"><stop offset="0" stop-color="#dfdfdf"/><stop offset=".021" stop-color="#e1e1e1"/><stop offset=".2435" stop-color="#f2f2f2"/><stop offset=".4872" stop-color="#fcfcfc"/><stop offset=".7911" stop-color="#fff"/><stop offset=".8444" stop-color="#fcfcfc"/><stop offset=".8871" stop-color="#f2f2f2"/><stop offset=".9263" stop-color="#e1e1e1"/><stop offset=".963" stop-color="#c9c9c9"/><stop offset=".966" stop-color="#c7c7c7"/><stop offset="1" stop-color="#fff"/></linearGradient><linearGradient id="aa"><stop offset="0" stop-color="#242424"/><stop offset=".3346" stop-color="#2d2d2d"/><stop offset=".7911" stop-color="#303030"/><stop offset=".8668" stop-color="#2d2d2d"/><stop offset=".9275" stop-color="#232323"/><stop offset=".966" stop-color="#181818"/><stop offset="1" stop-color="#303030"/></linearGradient><linearGradient id="ab" gradientTransform="matrix(3.125 0 0 -3.125 0 256.25)" gradientUnits="userSpaceOnUse" x1="20.9541" x2="73.171501" xlink:href="#aa" y1="40.165001" y2="40.165001"/><linearGradient id="ac" gradientTransform="matrix(3.125 0 0 -3.125 0 256.25)" gradientUnits="userSpaceOnUse" x1="20.9492" x2="73.172997" xlink:href="#aa" y1="36.689999" y2="36.689999"/><linearGradient id="ad" gradientTransform="matrix(3.125 0 0 -3.125 0 256.25)" gradientUnits="userSpaceOnUse" x1="20.954399" x2="73.171402" xlink:href="#aa" y1="39.945" y2="39.945"/><linearGradient id="ae" gradientTransform="matrix(3.125 0 0 -3.125 0 256.25)" gradientUnits="userSpaceOnUse" x1="20.9547" x2="73.170898" xlink:href="#aa" y1="43.215" y2="43.215"/><linearGradient id="af" gradientTransform="matrix(3.125 0 0 -3.125 0 256.25)" gradientUnits="userSpaceOnUse" x1="20.955" x2="73.171303" xlink:href="#aa" y1="39.73" y2="39.73"/><linearGradient id="ag" gradientTransform="matrix(3.125 0 0 -3.125 0 256.25)" gradientUnits="userSpaceOnUse" x1="20.9529" x2="73.171303" xlink:href="#aa" y1="19.844999" y2="19.844999"/><linearGradient id="ah" gradientTransform="matrix(3.125 0 0 -3.125 0 256.25)" gradientUnits="userSpaceOnUse" x1="20.9513" x2="73.176003" xlink:href="#aa" y1="20.32" y2="20.32"/><linearGradient id="ai" gradientTransform="matrix(3.125 0 0 -3.125 0 256.25)" gradientUnits="userSpaceOnUse" x1="20.954399" x2="73.166603" xlink:href="#aa" y1="16.625" y2="16.625"/><linearGradient id="aj" gradientTransform="matrix(3.125 0 0 -3.125 0 256.25)" gradientUnits="userSpaceOnUse" x1="20.952101" x2="73.172401" xlink:href="#aa" y1="17.120001" y2="17.120001"/><linearGradient id="ak" gradientTransform="matrix(3.125 0 0 -3.125 0 256.25)" gradientUnits="userSpaceOnUse" x1="20.9531" x2="73.170898" xlink:href="#aa" y1="35.125" y2="35.125"/><linearGradient id="al" gradientTransform="matrix(3.125 0 0 -3.125 0 256.25)" gradientUnits="userSpaceOnUse" x1="20.9522" x2="73.172401" xlink:href="#aa" y1="36.18" y2="36.18"/><linearGradient id="am" gradientTransform="matrix(3.125 0 0 -3.125 0 256.25)" gradientUnits="userSpaceOnUse" x1="20.952101" x2="73.172401" xlink:href="#aa" y1="37.244999" y2="37.244999"/><linearGradient id="an" gradientTransform="matrix(3.125 0 0 -3.125 0 256.25)" gradientUnits="userSpaceOnUse" x1="20.9541" x2="73.171402" xlink:href="#aa" y1="20.950001" y2="20.950001"/><linearGradient id="ao" gradientTransform="matrix(3.125 0 0 -3.125 0 256.25)" gradientUnits="userSpaceOnUse" x1="20.949301" x2="73.172997" xlink:href="#aa" y1="25.33" y2="25.33"/><linearGradient id="ap" gradientTransform="matrix(3.125 0 0 -3.125 0 256.25)" gradientUnits="userSpaceOnUse" x1="20.9538" x2="73.171997" xlink:href="#aa" y1="20.059999" y2="20.059999"/><linearGradient id="aq" gradientTransform="matrix(3.125 0 0 -3.125 0 256.25)" gradientUnits="userSpaceOnUse" x1="20.954901" x2="73.171204" xlink:href="#aa" y1="24.445" y2="24.445"/><linearGradient id="ar" gradientTransform="matrix(3.125 0 0 -3.125 0 256.25)" gradientUnits="userSpaceOnUse" x1="20.9548" x2="73.171204" xlink:href="#aa" y1="19.18" y2="19.18"/><linearGradient id="as" gradientTransform="matrix(3.125 0 0 -3.125 0 256.25)" gradientUnits="userSpaceOnUse" x1="20.955" x2="73.171303" xlink:href="#aa" y1="23.535" y2="23.535"/><linearGradient id="at" gradientTransform="matrix(3.125 0 0 -3.125 0 256.25)" gradientUnits="userSpaceOnUse" x1="20.9526" x2="73.171997" y1="30.469601" y2="30.469601"><stop offset="0" stop-color="#b41b00"/><stop offset=".021" stop-color="#b61d01"/><stop offset=".2435" stop-color="#c72e0b"/><stop offset=".4872" stop-color="#d13811"/><stop offset=".7911" stop-color="#d43b13"/><stop offset=".8415" stop-color="#d13812"/><stop offset=".8819" stop-color="#c72f0f"/><stop offset=".919" stop-color="#b61f0a"/><stop offset=".9537" stop-color="#9e0903"/><stop offset=".966" stop-color="#940000"/><stop offset="1" stop-color="#d43b13"/></linearGradient><linearGradient id="au" gradientTransform="matrix(3.125 0 0 -3.125 0 256.25)" gradientUnits="userSpaceOnUse" x1="20.9524" x2="73.171898" y1="26.428101" y2="26.428101"><stop offset="0" stop-color="#00209f"/><stop offset=".021" stop-color="#0222a1"/><stop offset=".2435" stop-color="#1333b2"/><stop offset=".4872" stop-color="#1d3dbc"/><stop offset=".7911" stop-color="#2040bf"/><stop offset=".8415" stop-color="#1e3dbc"/><stop offset=".8819" stop-color="#1933b2"/><stop offset=".919" stop-color="#1122a1"/><stop offset=".9537" stop-color="#050a89"/><stop offset=".966" stop-color="#00007f"/><stop offset="1" stop-color="#2040bf"/></linearGradient><mask id="av"><g filter="url(#a)"><path d="m0 0h250v250h-250z" fill-opacity=".19"/></g></mask><linearGradient id="aw" gradientTransform="matrix(3.125 0 0 -3.125 0 256.25)" gradientUnits="userSpaceOnUse" x1="20.959999" x2="73.18" y1="29.5942" y2="29.5942"><stop offset="0" stop-color="#404040"/><stop offset=".7911" stop-color="#fff"/><stop offset=".966" stop-color="#fff"/><stop offset="1" stop-color="#fff"/></linearGradient><clipPath id="ax"><path d="m0 0h250v250h-250z"/></clipPath><path d="m105.1875 174.03125c5.21875 19.28125 23.90625 33.96875 33.34375 33.375.34375-.03125 35.78125-6.625 55.21875-39.0625 15.09375-25.25 9.96875-49.625-10.59375-50.15625-7.40625.5625-87.90625 19.15625-77.96875 55.84375" fill="#0e3ca5"/><path d="m181.21875 50.28125v-.03125c-15.75-13.40625-36.15625-21.5-58.4375-21.5-13.03125 0-25.40625 2.78125-36.59375 7.78125-2 .84375-3.90625 1.78125-5.71875 2.8125-1.25.6875-2.53125 1.34375-3.75 2.0625l.3125.09375c-3.71875 2.5625-6.90625 5.5625-9.53125 9-25.875 34.1875 60.875 59.0625 107.25 59.125 21.34375 15.34375 27.3125-43.125 6.46875-59.34375zm0 0" fill="#0e3ca5"/><g fill="#5493f7"><path d="m91.40625 50.96875c-11.90625 17.90625-51.625 30.53125-58.15625 28.5625 0-.03125-.03125-.0625-.03125-.09375.28125-.53125.53125-1.0625.8125-1.625 2.25-4.375 4.84375-8.53125 7.71875-12.46875s6.0625-7.625 9.5-11.0625 7.15625-6.625 11.0625-9.5c2.4375-1.78125 4.96875-3.46875 7.59375-5.03125 5.5625-3.21875 11.25-3.4375 13.125-3.5 17.71875.40625 8.46875 14.59375 8.375 14.71875"/><path d="m81.65625 177.5625c.84375 5.625-.03125 27.875-1.1875 29.71875-1 .0625-3.0625.1875-9.03125-3.15625-3.15625-1.78125-6.1875-3.75-9.0625-5.90625-3.9375-2.875-7.625-6.0625-11.0625-9.5s-6.625-7.15625-9.5-11.0625c-2.875-3.9375-5.46875-8.09375-7.71875-12.46875s-4.1875-8.90625-5.75-13.625-2.78125-9.59375-3.59375-14.625-1.25-10.15625-1.25-15.40625.4375-10.40625 1.25-15.40625c.8125-5.03125 2.03125-9.90625 3.59375-14.625.3125-.96875.65625-1.90625 1-2.84375 6.84375 9.125 14.78125 17.34375 21.53125 26.5625 6.40625 8.75 15.25 23.0625 17.03125 26.09375 11.09375 18.9375 12.875 30.625 13.75 36.25"/><path d="m213.53125 121.53125c0 12.3125-2.34375 24.09375-6.625 34.90625-11.1875 12.03125-86.6875-17.59375-87.40625-17.90625-10.3125-4.53125-41.75-18.28125-44.59375-39.90625-4.0625-31.09375 59.03125-52.78125 86.78125-53.59375 3.3125.03125 13.4375.15625 19.34375 4.9375 19.90625 17.40625 32.5 43.03125 32.5 71.5625"/><path d="m162.4375 205.84375c-8.21875 3.84375-17.28125 1.03125-14.9375-6.96875 4.53125-15.375 43.96875-31.15625 52.6875-32.03125 1.0625-.09375 1.53125.625 1.0625 1.46875-9.09375 15.90625-22.53125 29.03125-38.8125 37.53125"/></g><g clip-path="url(#W)" mask="url(#b)"><g clip-path="url(#e)" mask="url(#c)"><path d="m71.59375 119.125c-3.375 0-6.09375 2.3125-6.09375 5.1875v96.5625c0 3.90625 2.71875 7.03125 6.09375 7.0625 89.1875.53125 175.65625 25.5 175.625 12.96875-.125-31.84375-.125-75.625 0-107.4375.03125-12.8125-86.46875-14.28125-175.625-14.34375zm0 0" fill="url(#d)"/></g><g clip-path="url(#h)" mask="url(#f)"><path d="m71.5625 119.125c-3.375 0-6.09375 2.3125-6.09375 5.1875v96.5625c0 3.90625 2.71875 7.03125 6.09375 7.0625 88.5625.53125 174.4375 24.25 174.375 12.125-.125-31.375-.125-74.71875 0-106.09375.0625-12.40625-85.8125-14.71875-174.375-14.84375zm0 0" fill="url(#g)"/></g><g clip-path="url(#k)" mask="url(#i)"><path d="m71.5625 119.125c-3.375 0-6.09375 2.3125-6.09375 5.1875v96.5625c0 3.90625 2.71875 7.03125 6.09375 7.0625 87.9375.5 173.1875 23 173.15625 11.28125-.125-30.9375-.125-73.8125 0-104.75.0625-11.96875-85.21875-15.1875-173.15625-15.34375zm0 0" fill="url(#j)"/></g><g clip-path="url(#n)" mask="url(#l)"><path d="m71.5625 119.125c-3.375 0-6.09375 2.3125-6.09375 5.1875v96.5625c0 3.90625 2.71875 7.03125 6.09375 7.0625 87.3125.46875 171.96875 21.78125 171.90625 10.4375-.125-30.5-.125-72.9375 0-103.40625.0625-11.5625-84.59375-15.625-171.90625-15.84375zm0 0" fill="url(#m)"/></g><g clip-path="url(#q)" mask="url(#o)"><path d="m71.5625 119.125c-3.375 0-6.09375 2.3125-6.09375 5.1875v96.5625c0 3.90625 2.71875 7.03125 6.09375 7.0625 86.65625.4375 170.71875 20.53125 170.6875 9.59375-.125-30.03125-.125-72.03125 0-102.0625.0625-11.15625-83.96875-16.09375-170.6875-16.34375zm0 0" fill="url(#p)"/></g><g clip-path="url(#t)" mask="url(#r)"><path d="m71.5625 119.125c-3.375 0-6.09375 2.3125-6.09375 5.1875v96.5625c0 3.90625 2.71875 7.03125 6.09375 7.0625 86.03125.40625 169.46875 19.28125 169.4375 8.78125-.125-29.59375-.125-71.125 0-100.71875.0625-10.75-83.34375-16.59375-169.4375-16.875zm0 0" fill="url(#s)"/></g><g clip-path="url(#w)" mask="url(#u)"><path d="m71.5625 119.125c-3.375 0-6.09375 2.3125-6.09375 5.1875v96.5625c0 3.90625 2.71875 7.03125 6.09375 7.0625 85.40625.40625 168.25 18.03125 168.21875 7.9375-.125-29.15625-.125-70.21875 0-99.375.03125-10.34375-82.75-17.21875-168.21875-17.375zm0 0" fill="url(#v)"/></g><g clip-path="url(#z)" mask="url(#x)"><path d="m71.5625 119.15625c-3.375 0-6.09375 2.3125-6.09375 5.1875v96.5625c0 3.90625 2.71875 7.03125 6.09375 7.0625 84.78125.375 167 16.78125 166.96875 7.09375-.125-28.6875-.125-69.34375 0-98.03125.0625-9.9375-82.125-17.75-166.96875-17.875zm0 0" fill="url(#y)"/></g><g clip-path="url(#C)" mask="url(#A)"><path d="m71.5625 119.15625c-3.375 0-6.09375 2.3125-6.09375 5.1875v96.5625c0 3.90625 2.71875 7.03125 6.09375 7.0625 84.15625.34375 165.78125 15.53125 165.75 6.25-.125-28.25-.125-68.4375 0-96.6875.03125-9.53125-81.53125-18.21875-165.75-18.375zm0 0" fill="url(#B)"/></g><g clip-path="url(#F)" mask="url(#D)"><path d="m71.5625 119.15625c-3.375 0-6.09375 2.3125-6.09375 5.1875v96.5625c0 3.90625 2.71875 7.03125 6.09375 7.0625 83.53125.3125 164.53125 14.28125 164.5 5.40625-.125-27.8125-.125-67.53125 0-95.34375.0625-9.125-80.90625-18.71875-164.5-18.875zm0 0" fill="url(#E)"/></g><g clip-path="url(#I)" mask="url(#G)"><path d="m71.5625 119.15625c-3.375 0-6.09375 2.3125-6.09375 5.1875v96.5625c0 3.90625 2.71875 7.03125 6.09375 7.0625 82.90625.28125 163.3125 13.03125 163.25 4.59375-.125-27.34375-.125-66.65625 0-94 .0625-8.71875-80.28125-19.21875-163.25-19.40625zm0 0" fill="url(#H)"/></g><g clip-path="url(#L)" mask="url(#J)"><path d="m71.5625 119.15625c-3.375 0-6.09375 2.3125-6.09375 5.1875v96.5625c0 3.90625 2.71875 7.03125 6.09375 7.03125 82.28125.25 162.0625 11.8125 162.03125 3.75-.125-26.90625-.125-65.75 0-92.65625.0625-8.28125-79.6875-19.65625-162.03125-19.875zm0 0" fill="url(#K)"/></g><g clip-path="url(#O)" mask="url(#M)"><path d="m71.5625 119.15625c-3.375 0-6.09375 2.3125-6.09375 5.15625v96.5625c0 3.90625 2.71875 7.03125 6.09375 7.03125 81.65625.25 160.8125 10.5625 160.78125 2.90625-.125-26.4375-.125-64.84375 0-91.3125.0625-7.84375-79.03125-20.125-160.78125-20.34375zm0 0" fill="url(#N)"/></g><g clip-path="url(#R)" mask="url(#P)"><path d="m71.5625 119.15625c-3.375 0-6.09375 2.3125-6.09375 5.15625v96.5625c0 3.875 2.71875 7.03125 6.09375 7.03125 81.03125.21875 159.59375 9.3125 159.5625 2.0625-.125-26-.125-63.96875 0-89.96875.03125-7.40625-78.4375-20.59375-159.5625-20.84375zm0 0" fill="url(#Q)"/></g><g clip-path="url(#U)" mask="url(#S)"><path d="m71.5625 119.15625c-3.375 0-6.09375 2.3125-6.09375 5.15625v96.5625c0 3.875 2.71875 7.03125 6.09375 7.03125 80.40625.1875 158.34375 8.0625 158.3125 1.21875-.125-25.5625-.125-63.0625 0-88.625.0625-7-77.8125-21.09375-158.3125-21.34375zm0 0" fill="url(#T)"/></g><path d="m71.5625 119.15625c-3.375 0-6.09375 2.3125-6.09375 5.15625v96.5625c0 3.875 2.71875 7.03125 6.09375 7.03125 79.78125.3125 157.15625 6.8125 157.09375.40625 0-25.09375 0-62.15625 0-87.28125.0625-6.59375-77.21875-21.15625-157.09375-21.875zm0 0" fill="url(#V)"/></g><path d="m65.46875 220.90625c0 3.875 2.71875 7.03125 6.0625 7.0625 79.9375.53125 157.125-3.125 157.125-15.09375 0-36.28125-163.1875 8.03125-163.1875 8.03125zm0 0" fill="url(#X)"/><path d="m65.46875 220.90625c0 3.90625 2.71875 7.0625 6.09375 7.0625 79.9375.59375 157-1.90625 157.09375-15.09375 0-36.28125-163.1875 8.03125-163.1875 8.03125zm6.09375 6.59375c-.21875 0-.4375 0-.625-.03125-2.4375-.28125-4.46875-2.125-5.1875-4.59375.78125 2.65625 3.09375 4.59375 5.8125 4.59375 79.875-.5 155.84375-25.09375 155.84375-14.25 0 11.03125-75.96875 14.84375-155.84375 14.28125zm0 0" fill="url(#Y)"/><path d="m71.59375 118.21875c-3.375 0-6.09375 2.71875-6.09375 6.09375v96.59375c0 3.34375 2.71875 6.0625 6.0625 6.09375 79.9375-.59375 157.21875-27.0625 157.125-14.125 0-36.25 0-72.53125 0-108.78125.0625-12.9375-77.1875 13.53125-157.09375 14.125zm0 0" fill="url(#Z)"/><path d="m180.59375 136.90625c1.5-1.25 2.25-1.90625 3.78125-3.15625-1.375-1.84375-2.40625-3.21875-3.4375-4.59375s-2.0625-2.75-3.46875-4.59375c-1.5 1.25-2.25 1.90625-3.78125 3.15625 1.375 1.84375 2.40625 3.21875 3.46875 4.59375 1.03125 1.375 2.0625 2.75 3.4375 4.59375zm0 0" fill="url(#ab)"/><path d="m188.75 147.75c1.5-1.28125 2.25-1.90625 3.75-3.15625-1.375-1.84375-2.40625-3.21875-3.4375-4.59375s-2.0625-2.75-3.4375-4.5625c-1.5 1.28125-2.25 1.90625-3.75 3.1875 1.375 1.84375 2.40625 3.21875 3.4375 4.59375 1.03125 1.3125 2.0625 2.6875 3.4375 4.53125zm0 0" fill="url(#ac)"/><path d="m186.875 133 3.46875 4.625c1.21875 1.625 2.53125 3.375 4.03125 5.375l3.75-3.125c-1.5-2.03125-2.8125-3.78125-4.03125-5.40625s-2.34375-3.125-3.46875-4.625-2.25-3-3.46875-4.625-2.53125-3.375-4.03125-5.375c-1.5 1.28125-2.25 1.90625-3.75 3.15625 1.5 2 2.8125 3.75 4.0625 5.375 1.1875 1.625 2.3125 3.125 3.4375 4.625zm0 0" fill="url(#ad)"/><path d="m191.875 127.375c1.5-1.28125 2.25-1.90625 3.75-3.15625-1.375-1.84375-2.40625-3.21875-3.4375-4.59375s-2.0625-2.75-3.4375-4.59375c-1.5 1.28125-2.25 1.90625-3.75 3.1875 1.375 1.84375 2.40625 3.1875 3.4375 4.5625 1.03125 1.40625 2.0625 2.78125 3.4375 4.59375zm0 0" fill="url(#ae)"/><path d="m196.90625 125.90625c-1.5 1.25-2.25 1.875-3.75 3.15625 1.375 1.84375 2.40625 3.21875 3.4375 4.59375s2.0625 2.78125 3.4375 4.625c1.5-1.25 2.25-1.875 3.75-3.09375-1.375-1.875-2.40625-3.25-3.4375-4.65625-1.03125-1.375-2.0625-2.75-3.4375-4.625zm0 0" fill="url(#af)"/><path d="m113.28125 192.8125c-1.125-1.59375-2.28125-3.15625-3.5-4.90625-1.21875-1.71875-2.5625-3.59375-4.0625-5.71875-1.5 1.125-2.28125 1.71875-3.78125 2.84375 1.5 2.15625 2.84375 4 4.0625 5.75 1.21875 1.71875 2.375 3.3125 3.5 4.90625s2.28125 3.1875 3.5 4.90625 2.5625 3.5625 4.0625 5.6875c1.5-1.15625 2.28125-1.75 3.78125-2.90625-1.5-2.09375-2.84375-3.9375-4.0625-5.65625s-2.375-3.3125-3.5-4.90625zm0 0" fill="url(#ag)"/><path d="m99.71875 194.15625c1.03125 1.46875 2.09375 2.9375 3.46875 4.90625 1.5-1.125 2.25-1.6875 3.78125-2.84375-1.375-1.9375-2.4375-3.40625-3.46875-4.875s-2.09375-2.9375-3.46875-4.90625c-1.5 1.125-2.28125 1.6875-3.78125 2.78125 1.40625 1.96875 2.4375 3.46875 3.46875 4.9375zm0 0" fill="url(#ah)"/><path d="m108.25 198c-1.5 1.15625-2.28125 1.71875-3.78125 2.84375 1.375 1.96875 2.40625 3.40625 3.46875 4.875 1.03125 1.46875 2.09375 2.9375 3.46875 4.875 1.5-1.15625 2.28125-1.71875 3.78125-2.875-1.375-1.9375-2.4375-3.40625-3.46875-4.84375-1.0625-1.46875-2.09375-2.9375-3.46875-4.875zm0 0" fill="url(#ai)"/><path d="m101.9375 201.375c-1.125-1.59375-2.28125-3.21875-3.5-4.96875s-2.5625-3.65625-4.0625-5.8125c-1.5 1.09375-2.28125 1.65625-3.78125 2.75 1.5 2.1875 2.84375 4.09375 4.0625 5.84375s2.375 3.375 3.5 5 2.28125 3.21875 3.5 4.96875 2.5625 3.625 4.0625 5.75c1.5-1.125 2.28125-1.71875 3.78125-2.84375-1.5-2.125-2.84375-3.96875-4.0625-5.71875s-2.375-3.34375-3.5-4.96875zm0 0" fill="url(#aj)"/><path d="m113 139.84375c-1.21875 1.96875-2.375 3.75-3.5 5.5625s-2.28125 3.59375-3.5 5.5625c-1.21875 1.9375-2.5625 4.03125-4.0625 6.4375 1.5.875 2.28125 1.3125 3.78125 2.1875 1.5-2.40625 2.84375-4.5 4.0625-6.4375s2.375-3.75 3.5-5.5625 2.28125-3.625 3.5-5.59375 2.5625-4.09375 4.0625-6.5c-1.5-.84375-2.28125-1.25-3.78125-2.125-1.5 2.40625-2.8125 4.5-4.0625 6.46875zm0 0" fill="url(#ak)"/><path d="m103.84375 142.125c-1.125 1.78125-2.28125 3.59375-3.5 5.5-1.21875 1.9375-2.5625 4-4.0625 6.375 1.5.90625 2.28125 1.34375 3.78125 2.25 1.5-2.375 2.84375-4.46875 4.0625-6.40625s2.375-3.75 3.5-5.53125c1.125-1.8125 2.28125-3.59375 3.5-5.5625 1.21875-1.9375 2.5625-4.0625 4.0625-6.46875-1.5-.84375-2.28125-1.28125-3.78125-2.15625-1.53125 2.40625-2.84375 4.5-4.0625 6.46875-1.25 1.9375-2.375 3.75-3.5 5.53125zm0 0" fill="url(#al)"/><path d="m98.4375 146.53125c1.21875-1.9375 2.375-3.71875 3.5-5.5s2.28125-3.59375 3.5-5.53125 2.5625-4.03125 4.0625-6.4375c-1.53125-.875-2.28125-1.3125-3.78125-2.1875-1.5 2.40625-2.84375 4.46875-4.0625 6.40625s-2.375 3.71875-3.5 5.5-2.28125 3.5625-3.5 5.46875-2.5625 3.96875-4.0625 6.3125c1.53125.9375 2.28125 1.375 3.78125 2.28125 1.5-2.3125 2.84375-4.375 4.0625-6.3125zm0 0" fill="url(#am)"/><path d="m184.375 185.90625c-1.5-.75-2.25-1.125-3.78125-1.84375-1.375 2.3125-2.40625 4.0625-3.46875 5.78125-1.03125 1.75-2.0625 3.46875-3.46875 5.78125 1.5.75 2.25 1.125 3.78125 1.875 1.375-2.3125 2.40625-4.03125 3.46875-5.78125s2.09375-3.46875 3.46875-5.8125zm0 0" fill="url(#an)"/><path d="m185.625 183.8125c1.375-2.3125 2.40625-4.0625 3.4375-5.78125 1.03125-1.75 2.0625-3.46875 3.4375-5.78125-1.5-.75-2.25-1.125-3.75-1.875-1.375 2.3125-2.40625 4.0625-3.4375 5.78125-1.03125 1.75-2.0625 3.46875-3.4375 5.78125zm0 0" fill="url(#ao)"/><path d="m190 188.6875c-1.5-.75-2.25-1.09375-3.75-1.84375-1.375 2.3125-2.40625 4.0625-3.4375 5.78125-1.03125 1.75-2.0625 3.46875-3.4375 5.78125 1.5.75 2.25 1.125 3.78125 1.875 1.375-2.3125 2.40625-4.0625 3.4375-5.78125 1-1.75 2.03125-3.5 3.40625-5.8125zm0 0" fill="url(#ap)"/><path d="m194.71875 180.8125c1.03125-1.71875 2.0625-3.46875 3.4375-5.75-1.5-.78125-2.25-1.15625-3.75-1.90625-1.375 2.3125-2.40625 4.03125-3.4375 5.78125-1.03125 1.71875-2.0625 3.46875-3.4375 5.78125 1.5.75 2.25 1.09375 3.75 1.84375 1.34375-2.28125 2.375-4.03125 3.4375-5.75zm0 0" fill="url(#aq)"/><path d="m188.4375 195.40625c-1.03125 1.75-2.0625 3.46875-3.4375 5.78125 1.5.75 2.25 1.125 3.75 1.84375 1.375-2.3125 2.40625-4.0625 3.4375-5.78125 1.03125-1.75 2.0625-3.46875 3.4375-5.78125-1.5-.75-2.25-1.125-3.75-1.875-1.375 2.34375-2.40625 4.09375-3.4375 5.8125zm0 0" fill="url(#ar)"/><path d="m196.59375 181.75c-1.03125 1.71875-2.0625 3.46875-3.4375 5.78125l3.75 1.875c1.375-2.3125 2.40625-4.03125 3.4375-5.75s2.0625-3.4375 3.4375-5.71875c-1.5-.78125-2.25-1.15625-3.75-1.9375-1.375 2.3125-2.40625 4.03125-3.4375 5.75zm0 0" fill="url(#as)"/><path d="m172.84375 152.46875c-.96875-2.46875-2.3125-4.71875-4.0625-6.65625s-3.84375-3.59375-6.34375-4.84375c-2.09375-1.0625-4.28125-1.75-6.5625-2.15625s-4.625-.46875-6.9375-.25c-2.34375.21875-4.625.75-6.90625 1.53125s-4.5 1.8125-6.625 3.125c-2.09375 1.3125-4.09375 2.84375-5.90625 4.625s-3.4375 3.8125-4.8125 6.0625c-1.5625 2.53125-2.59375 5.1875-3.0625 7.84375-.5 2.65625-.46875 5.3125.03125 7.8125s1.5 4.84375 2.96875 6.90625c1.46875 2.03125 3.375 3.78125 5.71875 5.03125 2.34375 1.28125 4.90625 1.96875 7.53125 2.09375 2.625.15625 5.28125-.25 7.8125-1.15625 2.5625-.90625 5-2.28125 7.21875-4.09375s4.1875-4.03125 5.75-6.625c2.28125 1.15625 3.96875 2 5.65625 2.84375l5.625 2.8125c1.65625-2.78125 2.875-5.65625 3.625-8.53125s1.0625-5.75.9375-8.5c-.15625-2.75-.71875-5.40625-1.65625-7.875zm0 0" fill="url(#at)"/><path d="m166.15625 159.1875c-2.0625-1.03125-4.40625-1.40625-6.71875-1.15625-2.34375.25-4.6875 1.0625-6.78125 2.40625s-3.96875 3.21875-5.375 5.5c-1.375 2.28125-3.21875 4.15625-5.34375 5.46875-2.09375 1.3125-4.4375 2.09375-6.78125 2.28125-2.34375.15625-4.6875-.28125-6.75-1.40625-2.09375-1.125-3.65625-2.8125-4.6875-4.78125s-1.5-4.28125-1.34375-6.625c.125-2.34375.875-4.75 2.28125-7-1.65625 2.6875-2.875 5.5-3.625 8.3125-.75 2.84375-1.0625 5.6875-.9375 8.46875s.6875 5.46875 1.625 8c.96875 2.5 2.3125 4.84375 4.0625 6.875s3.875 3.78125 6.40625 5.125c2.09375 1.125 4.3125 1.90625 6.5625 2.34375 2.28125.4375 4.59375.5625 6.9375.34375 2.3125-.21875 4.65625-.75 6.9375-1.5625s4.5-1.90625 6.59375-3.25 4.09375-2.96875 5.875-4.84375c1.8125-1.875 3.40625-3.96875 4.8125-6.3125 1.375-2.3125 2.125-4.78125 2.25-7.125s-.34375-4.59375-1.34375-6.53125c-1-1.90625-2.5625-3.5-4.65625-4.53125zm0 0" fill="url(#au)"/><g clip-path="url(#ax)" mask="url(#av)"><path d="m71.59375 118.21875c-3.375 0-6.09375 2.75-6.09375 6.09375v96.59375c0 3.34375 2.71875 6.0625 6.0625 6.09375 79.9375-.59375 157.21875-27.0625 157.125-14.125 0-36.25 0-72.53125 0-108.78125.0625-12.9375-77.1875 13.53125-157.09375 14.125zm0 0" fill="url(#aw)"/></g></svg>