<svg height="250" viewBox="0 0 250 250" width="250" xmlns="http://www.w3.org/2000/svg" xmlns:xlink="http://www.w3.org/1999/xlink"><linearGradient id="a" gradientTransform="matrix(60.46875 0 0 48.234375 .324219 26.46875)" gradientUnits="userSpaceOnUse" x1=".5" x2=".5" y1="1" y2="0"><stop offset="0" stop-color="#abec79"/><stop offset="1" stop-color="#72d444"/></linearGradient><linearGradient id="b" gradientTransform="matrix(93.082031 0 0 111.398438 125.128906 74.703125)" gradientUnits="userSpaceOnUse" x1=".5" x2=".5" y1="0" y2=".981349"><stop offset="0" stop-color="#36b564"/><stop offset="1" stop-color="#598e69"/></linearGradient><linearGradient id="c" gradientTransform="matrix(217.886719 0 0 24.117188 .324219 50.585938)" gradientUnits="userSpaceOnUse" x1=".5" x2=".5" y1="1" y2="0"><stop offset="0" stop-color="#499d6c"/><stop offset="1" stop-color="#1c8441"/></linearGradient><linearGradient id="d" gradientTransform="matrix(31.386719 0 0 24.117188 186.824219 50.585938)" gradientUnits="userSpaceOnUse" x1="0" x2="1" y1=".5" y2=".5"><stop offset="0" stop-color="#4c9b72"/><stop offset="1" stop-color="#25623e"/></linearGradient><linearGradient id="e" gradientTransform="matrix(168.890625 0 0 24.117188 40.820312 26.46875)" gradientUnits="userSpaceOnUse" x1=".5" x2=".5" y1="0" y2=".980604"><stop offset="0" stop-color="#b1f286"/><stop offset="1" stop-color="#6bd240"/></linearGradient><linearGradient id="f" gradientTransform="matrix(51.152344 0 0 48.234375 198.675781 26.46875)" gradientUnits="userSpaceOnUse" x1="1" x2="0" y1=".5" y2=".5"><stop offset="0" stop-color="#a6e579"/><stop offset="1" stop-color="#66b740"/></linearGradient><linearGradient id="g" gradientTransform="matrix(124.699219 0 0 148.398438 125.128906 74.703125)" gradientUnits="userSpaceOnUse" x1=".5" x2=".5" y1="1" y2="0"><stop offset="0" stop-color="#399163"/><stop offset="1" stop-color="#205a38"/></linearGradient><linearGradient id="h" gradientTransform="matrix(84.097656 0 0 100.164062 41.25 122.9375)" gradientUnits="userSpaceOnUse" x1=".5" x2=".5" y1="0" y2="1"><stop offset="0" stop-color="#54a66d"/><stop offset="1" stop-color="#2a6d3b"/></linearGradient><linearGradient id="i" gradientTransform="matrix(63.003906 0 0 19.523437 41.25 122.9375)" gradientUnits="userSpaceOnUse" x1=".5" x2=".5" y1="0" y2="1"><stop offset="0" stop-color="#b1f286"/><stop offset="1" stop-color="#79e14e"/></linearGradient><linearGradient id="j" gradientTransform="matrix(36.929688 0 0 63.164062 88.359375 122.9375)" gradientUnits="userSpaceOnUse" x1=".5" x2=".5" y1="0" y2="1"><stop offset="0" stop-color="#4c9d69"/><stop offset="1" stop-color="#256438"/></linearGradient><path d="m40.820312 26.46875 19.972657 24.117188-60.46875 24.117187zm0 0" fill="url(#a)"/><path d="m125.289062 147.996094 61.535157-73.292969h31.386719l-93.082032 111.398437zm0 0" fill="url(#b)"/><path d="m186.824219 74.703125h-186.5l60.46875-24.117187h137.882812l19.535157 24.117187zm0 0" fill="url(#c)"/><path d="m186.824219 74.703125 11.851562-24.117187 19.535157 24.117187zm0 0" fill="url(#d)"/><path d="m198.675781 50.585938h-137.882812l-19.972657-24.117188h168.890626zm0 0" fill="url(#e)"/><path d="m218.210938 74.703125-19.535157-24.117187 11.035157-24.117188 40.117187 48.234375zm0 0" fill="url(#f)"/><path d="m125.128906 186.101562 93.082032-111.398437h31.617187l-93.035156 110.8125-31.445313 37.585937zm0 0" fill="url(#g)"/><path d="m88.359375 142.460938 36.769531 43.640624.21875 37-84.097656-100.164062zm0 0" fill="url(#h)"/><path d="m88.359375 142.460938-47.109375-19.523438h63.003906zm0 0" fill="url(#i)"/><path d="m104.253906 122.9375-15.894531 19.523438 36.769531 43.640624.160156-38.105468zm0 0" fill="url(#j)"/></svg>