<svg height="250" viewBox="0 0 250 250" width="250" xmlns="http://www.w3.org/2000/svg" xmlns:xlink="http://www.w3.org/1999/xlink"><radialGradient id="a" cx="5000" cy="5000" gradientTransform="matrix(.0298413 -.0117188 .0117188 .0298413 -82.8 34.375)" gradientUnits="userSpaceOnUse" r="1683.5"><stop offset="0" stop-color="#a0d1fe"/><stop offset="1" stop-color="#3270c4"/></radialGradient><g fill-rule="evenodd"><path d="m202.5 125c0 42.800781-34.699219 77.5-77.5 77.5s-77.5-34.699219-77.5-77.5 34.699219-77.5 77.5-77.5 77.5 34.699219 77.5 77.5zm0 0" fill="url(#a)"/><path d="m111.5 125 28.625 28.523438 18.074219-18c3.199219-3.171876 8.375-3.171876 11.574219 0 3.203124 3.175781 3.203124 8.351562 0 11.527343l-23.847657 23.773438c-3.199219 3.152343-8.425781 3.125-11.574219 0l-34.425781-34.300781v20.375c0 4.476562-3.675781 8.152343-8.175781 8.152343s-8.175781-3.652343-8.175781-8.152343v-63.796876c0-4.5 3.675781-8.152343 8.175781-8.152343 4.523438 0 8.175781 3.652343 8.175781 8.152343v20.375l34.425781-34.300781c3.148438-3.125 8.375-3.152343 11.574219 0l23.847657 23.773438c3.203124 3.175781 3.203124 8.351562 0 11.527343-3.199219 3.171876-8.375 3.171876-11.574219 0l-18.074219-18zm28.648438-8.148438c4.527343 0 8.175781 3.648438 8.175781 8.148438s-3.648438 8.148438-8.175781 8.148438c-4.523438 0-8.199219-3.648438-8.199219-8.148438s3.675781-8.148438 8.199219-8.148438zm0 0" fill="#fff"/></g></svg>