<!-- Creator: CorelDRAW X7 -->
<svg xmlns="http://www.w3.org/2000/svg" xmlns:xlink="http://www.w3.org/1999/xlink" width="250px" height="250px" viewBox="0 0 250 250" version="1.1">
<defs>
<radialGradient id="radial0" gradientUnits="userSpaceOnUse" cx="5000" cy="5000" fx="5000" fy="5000" r="1683.5" gradientTransform="matrix(0.0298413,-0.0117188,0.0117188,0.0298413,-82.8,34.375)">
<stop offset="0" style="stop-color:rgb(62.7451%,81.960785%,99.607843%);stop-opacity:1;"/>
<stop offset="1" style="stop-color:rgb(19.607843%,43.921569%,76.862746%);stop-opacity:1;"/>
</radialGradient>
</defs>
<g id="surface1">
<path style=" stroke:none;fill-rule:evenodd;fill:url(#radial0);" d="M 202.5 125 C 202.5 167.800781 167.800781 202.5 125 202.5 C 82.199219 202.5 47.5 167.800781 47.5 125 C 47.5 82.199219 82.199219 47.5 125 47.5 C 167.800781 47.5 202.5 82.199219 202.5 125 Z M 202.5 125 "/>
<path style=" stroke:none;fill-rule:evenodd;fill:rgb(100%,100%,100%);fill-opacity:1;" d="M 111.5 125 L 140.125 153.523438 L 158.199219 135.523438 C 161.398438 132.351562 166.574219 132.351562 169.773438 135.523438 C 172.976562 138.699219 172.976562 143.875 169.773438 147.050781 L 145.925781 170.824219 C 142.726562 173.976562 137.5 173.949219 134.351562 170.824219 L 99.925781 136.523438 L 99.925781 156.898438 C 99.925781 161.375 96.25 165.050781 91.75 165.050781 C 87.25 165.050781 83.574219 161.398438 83.574219 156.898438 L 83.574219 93.101562 C 83.574219 88.601562 87.25 84.949219 91.75 84.949219 C 96.273438 84.949219 99.925781 88.601562 99.925781 93.101562 L 99.925781 113.476562 L 134.351562 79.175781 C 137.5 76.050781 142.726562 76.023438 145.925781 79.175781 L 169.773438 102.949219 C 172.976562 106.125 172.976562 111.300781 169.773438 114.476562 C 166.574219 117.648438 161.398438 117.648438 158.199219 114.476562 L 140.125 96.476562 Z M 140.148438 116.851562 C 144.675781 116.851562 148.324219 120.5 148.324219 125 C 148.324219 129.5 144.675781 133.148438 140.148438 133.148438 C 135.625 133.148438 131.949219 129.5 131.949219 125 C 131.949219 120.5 135.625 116.851562 140.148438 116.851562 Z M 140.148438 116.851562 "/>
</g>
</svg>
