<svg height="250" viewBox="0 0 250 250" width="250" xmlns="http://www.w3.org/2000/svg"><g fill="#31cb9e"><path d="m114.800781 125 73.734375 34.25c2.589844 1.199219 5.800782-.300781 5.800782-2.726562v-63.097657c0-2.402343-3.210938-3.925781-5.800782-2.726562zm0 0"/><path d="m184.304688 75.976562-49.011719-30.300781c-2.253907-1.402343-5.523438-.425781-6.140625 1.824219l-17.902344 67.449219 72.625-33.773438c2.40625-1.101562 2.621094-3.824219.429688-5.199219zm0 0"/><path d="m135.292969 204.324219 49.074219-30.324219c2.191406-1.351562 1.976562-4.101562-.433594-5.199219l-72.683594-33.777343 17.902344 67.476562c.585937 2.226562 3.855468 3.199219 6.140625 1.824219zm0 0"/><path d="m95.941406 125 19.289063-72.699219c.742187-2.851562-3.269531-4.925781-6.140625-3.152343l-49.414063 30.550781c-2.53125 1.574219-4.011719 4-4.011719 6.601562v77.449219c0 2.574219 1.480469 5.023438 4.011719 6.601562l49.414063 30.523438c2.871094 1.773438 6.882812-.300781 6.140625-3.148438zm0 0"/></g></svg>