<svg id="图层_1" data-name="图层 1" xmlns="http://www.w3.org/2000/svg" viewBox="0 0 154.14 152.69"><defs><style>.cls-1{fill:#e11f53;}.cls-2{fill:#43c6ac;}.cls-3{fill:#4c8bf5;}.cls-4{fill:#f8b233;}</style></defs><title>LAMBDALOGO定</title><path class="cls-1" d="M152.89,59.88V53.39a7,7,0,0,0-7-7H111a4.48,4.48,0,0,1-4.48-4.49V7a7,7,0,0,0-7-7H93a7,7,0,0,0-7,7V46.4h0V58.72a8.19,8.19,0,0,0,8.19,8.19H106.5v0h39.4A7,7,0,0,0,152.89,59.88Z"/><rect class="cls-2" x="46.28" y="125.17" width="20.47" height="27.52" rx="6.99"/><rect class="cls-2" y="85.91" width="66.91" height="20.47" rx="6.99"/><rect class="cls-3" x="126.62" y="87.03" width="27.52" height="20.47" rx="6.99"/><rect class="cls-3" x="86.67" y="85.71" width="20.47" height="66.91" rx="6.99"/><rect class="cls-4" x="0.53" y="45.04" width="27.52" height="20.47" rx="6.99"/><rect class="cls-4" x="46.28" width="20.47" height="66.91" rx="6.99"/></svg>