
<svg xmlns="http://www.w3.org/2000/svg" xmlns:xlink="http://www.w3.org/1999/xlink" width="250px" height="250px" viewBox="0 0 250 250" version="1.1">
<g id="surface1">
<path style=" stroke:none;fill-rule:nonzero;fill:rgb(96.470588%,60.000002%,53.333336%);fill-opacity:1;" d="M 250 125 C 250 194.035156 194.035156 250 125 250 C 55.964844 250 0 194.035156 0 125 C 0 55.964844 55.964844 0 125 0 C 194.035156 0 250 55.964844 250 125 Z M 250 125 "/>
<path style=" stroke:none;fill-rule:evenodd;fill:rgb(100%,100%,100%);fill-opacity:1;" d="M 125.058594 36.621094 L 168.90625 105.09375 L 125.054688 130.589844 L 81.210938 105.09375 Z M 94.632812 101.855469 L 125.058594 54.34375 L 155.484375 101.855469 L 125.054688 119.546875 Z M 94.632812 101.855469 "/>
<path style=" stroke:none;fill-rule:nonzero;fill:rgb(100%,100%,100%);fill-opacity:1;" d="M 124.992188 145.640625 L 74.128906 116.0625 L 72.742188 118.230469 C 57.074219 142.695312 60.574219 174.734375 81.152344 195.261719 C 105.367188 219.417969 144.632812 219.417969 168.847656 195.261719 C 189.425781 174.734375 192.925781 142.695312 177.257812 118.230469 L 175.871094 116.0625 L 124.996094 145.640625 Z M 124.992188 145.640625 "/>
</g>
</svg>
