<svg height="250" viewBox="0 0 250 250" width="250" xmlns="http://www.w3.org/2000/svg"><path d="m250 125c0 69.035156-55.964844 125-125 125s-125-55.964844-125-125 55.964844-125 125-125 125 55.964844 125 125zm0 0" fill="#f69988"/><g fill="#fff"><path d="m125.058594 36.621094 43.847656 68.472656-43.851562 25.496094-43.84375-25.496094zm-30.425782 65.234375 30.425782-47.511719 30.425781 47.511719-30.429687 17.691406zm0 0" fill-rule="evenodd"/><path d="m124.992188 145.640625-50.863282-29.578125-1.386718 2.167969c-15.667969 24.464843-12.167969 56.503906 8.410156 77.03125 24.214844 24.15625 63.480468 24.15625 87.695312 0 20.578125-20.527344 24.078125-52.566407 8.410156-77.03125l-1.386718-2.167969-50.875 29.578125zm0 0"/></g></svg>