<?xml version="1.0" standalone="no"?>
<!DOCTYPE svg PUBLIC "-//W3C//DTD SVG 20010904//EN"
 "http://www.w3.org/TR/2001/REC-SVG-20010904/DTD/svg10.dtd">
<svg version="1.0" xmlns="http://www.w3.org/2000/svg"
 width="256.000000pt" height="256.000000pt" viewBox="0 0 256.000000 256.000000"
 preserveAspectRatio="xMidYMid meet">

<g transform="translate(0.000000,256.000000) scale(0.100000,-0.100000)"
fill="#000000" stroke="none">
<path d="M1115 2504 c-79 -11 -217 -50 -299 -83 -368 -148 -637 -462 -736
-858 -28 -110 -38 -321 -21 -445 63 -470 410 -877 862 -1011 137 -41 215 -51
369 -50 333 3 624 125 860 362 168 168 281 382 336 632 22 101 22 347 1 454
-76 384 -312 698 -653 872 -183 93 -306 123 -524 128 -91 2 -178 1 -195 -1z
m440 -123 c569 -148 932 -700 840 -1275 -39 -240 -145 -448 -319 -622 -229
-229 -529 -346 -846 -331 -182 9 -293 38 -455 118 -318 156 -536 441 -610 799
-20 97 -21 330 0 426 48 227 140 406 292 564 163 171 362 283 588 332 137 30
373 24 510 -11z"/>
<path d="M1185 2369 c-341 -21 -670 -227 -848 -530 -103 -176 -138 -299 -144
-514 -6 -192 9 -290 68 -440 186 -478 693 -766 1195 -680 235 41 430 142 596
312 202 205 301 434 315 723 21 461 -260 892 -692 1059 -160 62 -296 82 -490
70z m-645 -1034 l0 -204 93 -3 92 -3 3 -47 3 -48 -155 0 -156 0 0 255 0 255
60 0 60 0 0 -205z m570 160 l0 -45 -105 0 -105 0 0 -60 0 -60 80 0 80 0 0 -45
0 -45 -80 0 -80 0 0 -60 0 -60 105 0 105 0 0 -45 0 -45 -165 0 -165 0 0 255 0
255 165 0 165 0 0 -45z m361 33 c151 -51 216 -216 145 -363 -21 -42 -40 -64
-74 -86 -66 -42 -101 -49 -239 -49 l-123 0 0 255 0 255 129 0 c71 0 143 -5
162 -12z m349 -167 c0 -173 1 -181 23 -206 18 -22 31 -27 70 -27 93 0 107 32
107 247 l0 165 61 0 61 0 -4 -183 -3 -184 -30 -49 c-78 -128 -292 -134 -373
-11 -27 40 -27 43 -30 234 l-3 193 60 0 61 0 0 -179z"/>
<path d="M1300 1284 l0 -167 68 5 c37 3 78 11 91 19 36 22 61 81 61 145 0 112
-50 164 -157 164 l-63 0 0 -166z"/>
</g>
</svg>
