<svg height="250" viewBox="0 0 250 250" width="250" xmlns="http://www.w3.org/2000/svg" xmlns:xlink="http://www.w3.org/1999/xlink"><linearGradient id="a" gradientUnits="userSpaceOnUse" x1="5.320312" x2="244.679687" y1="124.9999995" y2="124.9999995"><stop offset="0" stop-color="#d2f0f0"/><stop offset="1" stop-color="#f0e6b4"/></linearGradient><path d="m244.679688 125c0 66.097656-53.582032 119.679688-119.679688 119.679688s-119.679688-53.582032-119.679688-119.679688 53.582032-119.679688 119.679688-119.679688 119.679688 53.582032 119.679688 119.679688zm0 0" fill="url(#a)"/><g fill="#28646e"><path d="m125 249.734375c-68.75 0-124.734375-55.984375-124.734375-124.734375s55.984375-124.734375 124.734375-124.734375 124.734375 55.984375 124.734375 124.734375-55.984375 124.734375-124.734375 124.734375zm0-238.832031c-62.898438 0-114.097656 51.199218-114.097656 114.097656s51.199218 114.097656 114.097656 114.097656 114.097656-51.199218 114.097656-114.097656-51.199218-114.097656-114.097656-114.097656zm0 0"/><path d="m118.003906 97.253906c-1.125 0-2.410156-.480468-3.214844-1.4375-1.605468-1.757812-1.445312-4.476562.324219-6.074218 12.046875-10.550782 17.507813-19.34375 18.472657-20.941407 3.53125-6.234375 9.316406-9.433593 15.257812-8.472656 2.410156.320313 4.015625 2.398437 3.695312 4.792969-.320312 2.398437-2.410156 4-4.820312 3.679687-3.53125-.480469-5.78125 2.875-6.746094 4.316407-1.125 1.917968-7.066406 11.667968-20.078125 23.179687-.804687.636719-1.925781.957031-2.890625.957031zm0 0"/><path d="m45.882812 169.507812c-1.285156 0-2.410156-.476562-3.214843-1.597656-1.445313-1.757812-1.285157-4.476562.484375-6.074218 4.175781-3.515626 12.847656-8.953126 15.738281-10.550782 2.089844-1.117187 4.660156-.160156 5.785156 1.917969s.160157 4.636719-1.929687 5.757813c-2.246094 1.117187-10.277344 6.234374-14.132813 9.429687-.804687.800781-1.769531 1.117187-2.730469 1.117187zm0 0"/><path d="m153.664062 129.066406c1.765626 1.597656 3.691407.957032 5.460938-.800781 12.367188-11.828125 25.539062-30.210937 29.875-39.804687.964844-2.078126 2.890625-3.195313 4.820312-2.398438 2.410157.960938 2.410157 5.117188.160157 9.433594-5.78125 11.667968-13.652344 24.617187-29.394531 40.921875-1.445313 1.601562-1.285157 3.679687 0 4.796875 1.445312 1.277344 3.695312 1.117187 5.78125-.960938 8.191406-8.3125 13.65625-14.703125 18.3125-21.257812 1.285156-1.761719 2.730468-2.398438 4.175781-2.078125 2.089843.476562 2.410156 2.394531 1.765625 4.792969-.960938 3.839843-11.882813 17.90625-16.0625 22.699218-11.5625 12.949219-23.289063 19.984375-45.617188 31.652344-7.871094 3.996094-13.652344 7.996094-17.1875 13.910156-3.210937 5.433594-4.175781 7.191406-4.496094 7.832032-1.285156 2.558593-.320312 5.914062 2.410157 7.191406.800781.320312 1.445312.480468 2.246093.480468 2.089844 0 4.015626-1.277343 4.820313-3.195312 0 0-.160156.160156 4.015625-7.035156 2.089844-3.355469 6.425781-8.472656 13.171875-11.507813 22.328125-10.230469 31.644531-18.226562 44.652344-31.171875 5.945312-5.917968 14.136719-18.546875 16.386719-22.222656 6.261718-10.550781 3.050781-19.5-2.730469-20.941406-.484375-.160156-.644531-.636719-.484375-1.117188 4.339844-7.515625 6.425781-12.628906 7.230468-16.625 1.125-5.4375-.484374-11.992187-7.871093-13.589844-.320313-.160156-.644531-.480468-.484375-.957031.484375-1.757812.964844-3.835937 1.285156-5.277343 1.609375-7.03125-2.890625-13.425782-8.351562-14.546876-3.855469-.796874-7.226563 0-10.117188 2.078126-.484375.320312-.964844.160156-1.285156-.160157-1.125-1.277343-3.054688-2.558593-5.625-2.558593-4.65625-.15625-9.316406 1.28125-12.6875 8.472656-2.410156 5.117187-5.945313 11.992187-16.546875 23.660156-9.796875 10.871094-23.449219 21.261719-31.804688 26.855469-1.445312.960937-3.53125.800781-3.371093-1.277344.320312-3.199219 3.695312-24.140625 4.335937-30.375.964844-10.070313-4.496094-14.707031-10.601563-15.503906-4.976562-.640625-12.6875.796875-16.863281 12.148437-2.410156 6.714844-7.550781 17.585938-11.886719 35.167969-3.054687 12.46875-3.535156 26.855469-.804687 43.480469.160156.960937 0 2.078125-.480469 2.878906-3.375 5.433594-8.191406 12.628906-10.925781 18.863281-1.121094 2.558594-.160156 5.59375 2.25 6.875.804687.476563 1.605469.636719 2.570313.636719 1.929687 0 3.855468-1.117188 4.820312-3.035156 1.605469-3.359375 4.976562-9.753906 6.261719-12.46875 2.25-4.636719 3.695312-7.675782 4.339843-9.59375.480469-1.757813.960938-3.835938-.160156-8.3125-1.769531-7.671875-2.25-22.21875.800782-35.167969 4.175781-16.945313 11.40625-35.96875 12.691406-39.164063 1.285156-3.199218 3.050781-4.15625 4.816406-3.996093 1.769531.160156 5.300781.957031 4.339844 7.351562-1.769532 11.511719-4.179688 26.058594-4.980469 31.011719-.484375 2.398438-.804687 7.996094 3.53125 10.550781 3.535156 2.078125 7.390625.960938 11.566406-1.917969 9.476563-6.394531 26.023438-19.179687 36.300781-30.691406 10.765626-12.148437 14.296876-19.34375 17.027344-25.898437 1.285156-3.035157 4.5-2.875 5.621094-2.554688 1.125.320313 2.570312 1.917969 1.609375 5.113281-2.410156 7.992188-12.371094 26.21875-31.324219 43.320313-2.085937 1.921875-1.925781 4.15625-.800781 5.4375.960937 1.117187 3.050781 1.917969 5.300781 0 17.183594-14.546875 26.824219-31.972656 31.320313-41.242187 2.25-4.636719 3.050781-7.355469 3.695312-9.59375.964844-2.714844 3.050781-3.675782 4.496094-3.355469 2.089844.480469 3.535156 2.558593 2.730469 6.074219-.640625 3.035156-2.410156 7.992187-4.65625 12.949218-5.460938 11.667969-17.027344 27.175782-29.554688 40.441406-1.285156 1.601563-1.609375 3.679688.160156 5.277344zm0 0"/><path d="m75.359375 71.4375c.636719-.644531.476563-1.289062.160156-1.933594-.953125-2.894531-6.03125-15.289062-7.460937-17.703125-.632813-1.289062-1.585938-1.449219-2.539063-1.125-1.269531.480469-2.699219 1.609375-5.082031 3.699219-2.378906 2.09375-3.648438 3.382812-4.285156 4.667969-.476563.964843-.476563 1.769531.636718 2.574219 2.222657 1.609374 13.652344 8.53125 16.351563 9.820312.949219.320312 1.585937.644531 2.21875 0zm0 0"/><path d="m51.5 75.796875c-1.4375 0-2.078125.628906-2.238281 1.570313-.160157 1.257812 0 3.140624.480469 6.121093.476562 2.984375.957031 4.867188 1.597656 5.964844.476562.785156 1.277344 1.253906 2.554687.785156 2.554688-1.097656 14.375-7.21875 16.929688-8.945312.480469-.316407 1.117187-.785157.960937-1.570313"/><path d="m170.875 179.542969c-.78125 0-1.09375.796875-1.25 1.433593-1.097656 2.871094-4.230469 15.785157-4.703125 18.496094-.15625 1.433594.316406 2.070313 1.253906 2.390625 1.253907.320313 3.132813.320313 6.109375.160157 2.976563-.160157 4.859375-.480469 6.113282-.957032.9375-.476562 1.410156-1.117187.9375-2.550781-.78125-2.710937-5.640626-14.988281-7.050782-17.699219-.15625-.636718-.625-1.433594-1.410156-1.273437zm0 0"/><path d="m178.363281 173.535156c-.480469.816406.160157 1.464844.480469 1.953125 1.921875 2.441407 11.203125 12.207031 13.441406 14 1.121094.976563 1.921875.8125 2.722656 0 .960938-.976562 1.917969-2.605469 3.359376-5.371093 1.441406-2.769532 2.242187-4.558594 2.402343-5.859376.160157-.976562-.320312-1.792968-1.601562-2.28125-2.71875-.8125-15.84375-2.929687-18.882813-3.089843-.640625 0-1.441406-.164063-1.921875.648437zm0 0"/></g></svg>