
<svg xmlns="http://www.w3.org/2000/svg" xmlns:xlink="http://www.w3.org/1999/xlink" width="250px" height="250px" viewBox="0 0 250 250" version="1.1">
<g id="surface1">
<path style=" stroke:none;fill-rule:nonzero;fill:rgb(5.098039%,30.588236%,61.960787%);fill-opacity:1;" d="M 194.484375 201.714844 L 194.359375 177.839844 C 196.988281 174.816406 198.828125 172.949219 198.828125 172.949219 C 202.375 170.070312 201.191406 165.324219 201.191406 165.324219 L 199.136719 131.414062 C 199.109375 130.988281 198.789062 130.65625 198.398438 130.65625 L 198.234375 130.65625 C 197.835938 130.65625 197.507812 131.007812 197.5 131.449219 L 196.867188 164.320312 C 196.863281 164.636719 196.625 164.894531 196.332031 164.894531 L 196.199219 164.894531 C 195.90625 164.894531 195.667969 164.636719 195.664062 164.320312 L 195.03125 131.449219 C 195.023438 131.007812 194.695312 130.65625 194.296875 130.65625 C 193.894531 130.65625 193.566406 131.007812 193.558594 131.449219 L 192.925781 164.03125 C 192.921875 164.351562 192.683594 164.605469 192.390625 164.605469 L 192.21875 164.605469 C 191.929688 164.605469 191.691406 164.355469 191.683594 164.039062 L 190.707031 131.4375 C 190.691406 131.003906 190.367188 130.65625 189.96875 130.65625 L 189.957031 130.65625 C 189.558594 130.65625 189.230469 131.007812 189.21875 131.445312 L 188.460938 164.320312 C 188.457031 164.640625 188.21875 164.894531 187.925781 164.894531 C 187.632812 164.894531 187.394531 164.636719 187.390625 164.3125 L 187.011719 131.457031 C 187.007812 131.011719 186.679688 130.65625 186.277344 130.65625 L 185.988281 130.65625 C 185.597656 130.65625 185.277344 130.988281 185.25 131.410156 L 183.324219 162.878906 C 181.617188 169.207031 184.378906 172.085938 184.378906 172.085938 C 190.289062 177.40625 189.894531 178.558594 189.894531 178.558594 L 189.394531 201.742188 C 178.953125 201.101562 169.304688 196.136719 162.125 187.667969 C 154.695312 178.90625 150.878906 167.5 151.382812 155.546875 C 152.335938 132.996094 169.210938 114.515625 189.808594 113.480469 C 190.4375 113.449219 191.078125 113.433594 191.703125 113.433594 C 202.820312 113.433594 213.183594 118.296875 220.882812 127.125 C 228.574219 135.945312 232.527344 147.511719 232.015625 159.699219 C 231.082031 181.933594 214.675781 200.199219 194.484375 201.714844 M 130.359375 147.835938 C 130.039062 150.601562 127.972656 152.863281 125.441406 153.21875 C 125.195312 153.253906 124.941406 153.269531 124.695312 153.269531 C 123.050781 153.269531 121.488281 152.496094 120.398438 151.140625 C 119.296875 149.769531 118.808594 148.011719 119.019531 146.179688 C 119.339844 143.414062 121.40625 141.152344 123.933594 140.796875 C 124.1875 140.757812 124.4375 140.742188 124.691406 140.742188 C 126.328125 140.742188 127.894531 141.519531 128.980469 142.871094 C 130.082031 144.238281 130.574219 146 130.359375 147.835938 M 98.621094 158.742188 C 97.761719 179.222656 83.765625 196.34375 65.785156 200.09375 C 65.769531 200.097656 65.75 200.101562 65.738281 200.105469 C 64.042969 200.507812 62.371094 200.738281 60.761719 200.847656 L 60.5 178.847656 C 61.8125 175.539062 66.28125 172.660156 66.28125 172.660156 C 73.636719 167.195312 72.191406 158.421875 72.191406 158.421875 C 71.667969 137.417969 61.8125 132.671875 61.8125 132.671875 C 55.507812 130.226562 52.617188 134.542969 52.617188 134.542969 C 43.554688 143.605469 44.867188 159.28125 44.867188 159.28125 C 44.082031 168.921875 51.042969 173.234375 51.042969 173.234375 L 56.953125 178.125 L 56.316406 200.855469 C 51.074219 200.535156 47.265625 199.183594 47.003906 199.089844 C 47 199.089844 46.996094 199.089844 46.992188 199.085938 L 46.988281 199.085938 C 29.566406 193.476562 17.117188 175.246094 17.984375 154.59375 C 18.929688 132.035156 35.808594 113.558594 56.40625 112.523438 C 57.039062 112.488281 57.675781 112.472656 58.304688 112.472656 C 69.414062 112.472656 79.777344 117.335938 87.476562 126.167969 C 95.171875 134.984375 99.128906 146.558594 98.621094 158.742188 M 216.929688 107.175781 C 208.605469 94.347656 200.289062 81.53125 191.96875 68.703125 C 189.699219 65.203125 186.609375 62.460938 183.027344 60.761719 C 178.792969 58.765625 174.421875 57.761719 170.027344 57.761719 C 169.085938 57.761719 168.132812 57.804688 167.195312 57.902344 C 164.917969 58.128906 158.867188 58.730469 153.234375 63.242188 C 146.613281 68.535156 144.011719 76.292969 142.996094 81.859375 C 142.90625 82.347656 142.53125 82.570312 142.214844 82.570312 C 142.039062 82.570312 141.878906 82.5 141.738281 82.375 L 139.878906 80.679688 C 137.285156 78.324219 134.132812 76.871094 130.761719 76.488281 C 129.097656 76.292969 127.382812 76.179688 125.664062 76.148438 C 125.390625 76.144531 125.117188 76.144531 124.847656 76.144531 C 123.609375 76.144531 122.347656 76.1875 121.101562 76.277344 C 117.730469 76.515625 114.535156 77.839844 111.851562 80.105469 L 109.734375 81.898438 C 109.589844 82.019531 109.429688 82.078125 109.257812 82.078125 C 108.992188 82.078125 108.640625 81.921875 108.523438 81.496094 C 108.148438 80.097656 107.691406 78.6875 107.160156 77.292969 C 106.261719 74.945312 104.757812 71.023438 101.53125 67.035156 C 97.582031 62.167969 93.019531 59.03125 87.976562 57.699219 C 85.894531 57.148438 84.21875 57.050781 81.664062 57.050781 C 81.074219 57.050781 80.429688 57.058594 79.726562 57.0625 C 75.292969 57.09375 71.460938 57.117188 67.386719 59.316406 C 66.023438 60.050781 64.757812 60.953125 63.621094 61.996094 C 62.421875 63.085938 61.28125 64.4375 60.242188 66.003906 C 55.816406 72.664062 51.394531 79.324219 46.96875 85.984375 L 33.824219 105.777344 C 16.421875 115.855469 5.671875 135.453125 5.765625 156.957031 C 5.835938 171.777344 11.089844 185.855469 20.5625 196.59375 C 30.039062 207.339844 42.703125 213.574219 56.226562 214.148438 C 56.917969 214.179688 57.617188 214.191406 58.308594 214.191406 C 86.996094 214.191406 110.390625 188.875 110.832031 157.535156 L 113.066406 158.664062 C 115.003906 159.640625 117.046875 160.25 119.125 160.46875 C 121.179688 160.679688 123.234375 160.792969 125.222656 160.796875 L 125.691406 160.800781 C 126.996094 160.800781 128.332031 160.753906 129.65625 160.664062 C 131.992188 160.511719 134.238281 159.914062 136.335938 158.890625 L 139.164062 157.507812 L 139.164062 157.628906 C 139.164062 189.347656 162.730469 215.152344 191.695312 215.152344 L 191.699219 215.152344 C 192.386719 215.152344 193.085938 215.136719 193.777344 215.105469 C 207.238281 214.535156 219.863281 208.351562 229.328125 197.691406 C 238.789062 187.027344 244.082031 173.03125 244.230469 158.277344 C 244.449219 137.046875 233.996094 117.472656 216.929688 107.175781 "/>
<path style=" stroke:none;fill-rule:nonzero;fill:rgb(16.078432%,32.941177%,61.56863%);fill-opacity:1;" d="M 198.5625 120.734375 C 198.5625 120.734375 224.574219 134.828125 225.101562 169.925781 C 225.101562 169.925781 235.871094 128.5 198.5625 120.734375 "/>
<path style=" stroke:none;fill-rule:nonzero;fill:rgb(16.078432%,32.941177%,61.56863%);fill-opacity:1;" d="M 64.835938 120.734375 C 64.835938 120.734375 90.847656 134.828125 91.371094 169.925781 C 91.371094 169.925781 102.144531 128.5 64.835938 120.734375 "/>
<path style=" stroke:none;fill-rule:nonzero;fill:rgb(95.686275%,50.980395%,12.941177%);fill-opacity:1;" d="M 200.863281 41.929688 C 180.601562 19.738281 153.65625 7.519531 125 7.519531 C 96.339844 7.519531 69.402344 19.738281 49.136719 41.929688 C 31.414062 61.332031 20.65625 86.324219 18.234375 113.28125 L 23.59375 108.25 C 31.003906 54.253906 73.652344 12.714844 125 12.714844 C 176.359375 12.714844 219.027344 54.28125 226.414062 108.300781 L 231.644531 112.03125 C 229.007812 85.554688 218.3125 61.03125 200.863281 41.929688 M 180.644531 219.277344 C 164.605469 230.664062 145.496094 237.285156 125 237.285156 C 104.101562 237.285156 84.644531 230.40625 68.417969 218.605469 L 62.542969 220.558594 C 80.636719 234.800781 102.277344 242.480469 125 242.480469 C 147.710938 242.480469 169.347656 234.804688 187.429688 220.578125 Z M 180.644531 219.277344 "/>
<path style=" stroke:none;fill-rule:nonzero;fill:rgb(95.686275%,50.980395%,12.941177%);fill-opacity:1;" d="M 147.789062 196.765625 C 140.386719 199.703125 132.410156 201.300781 124.097656 201.300781 C 116.34375 201.300781 108.882812 199.910156 101.910156 197.34375 C 100.472656 200.015625 97.929688 203.53125 93.714844 205.972656 C 103.226562 210.246094 113.507812 212.488281 124.097656 212.488281 C 134.777344 212.488281 146.335938 209.738281 155.914062 205.394531 C 153.992188 203.433594 150.21875 200.902344 147.789062 196.765625 M 124.097656 37.320312 C 107.769531 37.320312 92.1875 42.640625 79.003906 52.535156 C 82.261719 52.765625 87.910156 53.394531 95.738281 55.101562 C 95.738281 55.109375 95.738281 55.109375 95.742188 55.101562 C 104.414062 50.863281 114.007812 48.507812 124.097656 48.507812 C 134.964844 48.507812 145.261719 51.238281 154.4375 56.113281 C 156.339844 54.984375 161.34375 53.316406 169.402344 52.167969 C 156.785156 43.464844 139.375 37.320312 124.097656 37.320312 "/>
</g>
</svg>
