<svg height="250" viewBox="0 0 250 250" width="250" xmlns="http://www.w3.org/2000/svg"><path d="m194.484375 201.714844-.125-23.875c2.628906-3.023438 4.46875-4.890625 4.46875-4.890625 3.546875-2.878907 2.363281-7.625 2.363281-7.625l-2.054687-33.910157c-.027344-.425781-.347657-.757812-.738281-.757812h-.164063c-.398437 0-.726563.351562-.734375.792969l-.632812 32.871093c-.003907.316407-.242188.574219-.535157.574219h-.132812c-.292969 0-.53125-.257812-.535157-.574219l-.632812-32.871093c-.007812-.441407-.335938-.792969-.734375-.792969-.402344 0-.730469.351562-.738281.792969l-.632813 32.582031c-.003906.320312-.242187.574219-.535156.574219h-.171875c-.289062 0-.527344-.25-.535156-.566407l-.976563-32.601562c-.015625-.433594-.339843-.78125-.738281-.78125h-.011719c-.398437 0-.726562.351562-.738281.789062l-.757812 32.875c-.003907.320313-.242188.574219-.535157.574219s-.53125-.257812-.535156-.582031l-.378906-32.855469c-.003907-.445312-.332031-.800781-.734375-.800781h-.289063c-.390625 0-.710937.332031-.738281.753906l-1.925781 31.46875c-1.707031 6.328125 1.054687 9.207032 1.054687 9.207032 5.910156 5.320312 5.515625 6.472656 5.515625 6.472656l-.5 23.183594c-10.441406-.640626-20.089843-5.605469-27.269531-14.074219-7.429688-8.761719-11.246094-20.167969-10.742188-32.121094.953126-22.550781 17.828126-41.03125 38.425782-42.066406.628906-.03125 1.269531-.046875 1.894531-.046875 11.117187 0 21.480469 4.863281 29.179687 13.691406 7.691407 8.820312 11.644532 20.386719 11.132813 32.574219-.933594 22.234375-17.339844 40.5-37.53125 42.015625m-64.125-53.878906c-.320313 2.765624-2.386719 5.027343-4.917969 5.382812-.246094.035156-.5.050781-.746094.050781-1.644531 0-3.207031-.773437-4.296874-2.128906-1.101563-1.371094-1.589844-3.128906-1.378907-4.960937.320313-2.765626 2.386719-5.027344 4.914063-5.382813.253906-.039063.503906-.054687.757812-.054687 1.636719 0 3.203125.777343 4.289063 2.128906 1.101562 1.367187 1.59375 3.128906 1.378906 4.964844m-31.738281 10.90625c-.859375 20.480468-14.855469 37.601562-32.835938 41.351562-.015625.003906-.035156.007812-.046875.011719-1.695312.402343-3.367187.632812-4.976562.742187l-.261719-22c1.3125-3.308594 5.78125-6.1875 5.78125-6.1875 7.355469-5.464844 5.910156-14.238281 5.910156-14.238281-.523437-21.003906-10.378906-25.75-10.378906-25.75-6.304688-2.445313-9.195312 1.871094-9.195312 1.871094-9.0625 9.0625-7.75 24.738281-7.75 24.738281-.785157 9.640625 6.175781 13.953125 6.175781 13.953125l5.910156 4.890625-.636719 22.730469c-5.242187-.320313-9.050781-1.671875-9.3125-1.765625-.003906 0-.007812 0-.011718-.003906h-.003907c-17.421875-5.609376-29.871093-23.839844-29.003906-44.492188.945313-22.558594 17.824219-41.035156 38.421875-42.070312.632812-.035157 1.269531-.050782 1.898438-.050782 11.109374 0 21.472656 4.863282 29.171874 13.695313 7.695313 8.816406 11.652344 20.390625 11.144532 32.574219m118.308594-51.566407c-8.324219-12.828125-16.640626-25.644531-24.960938-38.472656-2.269531-3.5-5.359375-6.242187-8.941406-7.941406-4.234375-1.996094-8.605469-3-13-3-.941406 0-1.894532.042969-2.832032.140625-2.277343.226562-8.328124.828125-13.960937 5.339844-6.621094 5.292968-9.222656 13.050781-10.238281 18.617187-.089844.488281-.464844.710937-.78125.710937-.175782 0-.335938-.070312-.476563-.195312l-1.859375-1.695312c-2.59375-2.355469-5.746094-3.808594-9.117187-4.191407-1.664063-.195312-3.378907-.308593-5.097657-.339843-.273437-.003907-.546874-.003907-.816406-.003907-1.238281 0-2.5.042969-3.746094.132813-3.371093.238281-6.566406 1.5625-9.25 3.828125l-2.117187 1.792969c-.144531.121093-.304687.179687-.476563.179687-.265624 0-.617187-.15625-.734374-.582031-.375-1.398438-.832032-2.808594-1.363282-4.203125-.898437-2.347657-2.402344-6.269531-5.628906-10.257813-3.949219-4.867187-8.511719-8.003906-13.554688-9.335937-2.082031-.550781-3.757812-.648438-6.3125-.648438-.589843 0-1.234374.007813-1.9375.011719-4.433593.03125-8.265624.054688-12.339843 2.253906-1.363281.734375-2.628907 1.636719-3.765625 2.679688-1.199219 1.089844-2.339844 2.441406-3.378906 4.007812-4.425782 6.660156-8.847657 13.320313-13.273438 19.980469l-13.144531 19.792969c-17.402344 10.078125-28.152344 29.675781-28.058594 51.179687.070313 14.820313 5.324219 28.898438 14.796875 39.636719 9.476562 10.746094 22.140625 16.980469 35.664062 17.554688.691407.03125 1.390626.042968 2.082032.042968 28.6875 0 52.082031-25.316406 52.523437-56.65625l2.234375 1.128906c1.9375.976563 3.980469 1.585938 6.058594 1.804688 2.054688.210938 4.109375.324219 6.097656.328125l.46875.003906c1.304688 0 2.640625-.046875 3.964844-.136719 2.335938-.152343 4.582031-.75 6.679688-1.773437l2.828124-1.382813v.121094c0 31.71875 23.566407 57.523438 52.53125 57.523438h.003907c.6875 0 1.386719-.015625 2.078125-.046875 13.460937-.570313 26.085937-6.753907 35.550781-17.414063 9.460937-10.664062 14.753906-24.660156 14.902344-39.414062.21875-21.230469-10.234375-40.804688-27.300781-51.101563" fill="#0d4e9e"/><path d="m198.5625 120.734375s26.011719 14.09375 26.539062 49.191406c0 0 10.769532-41.425781-26.539062-49.191406" fill="#29549d"/><path d="m64.835938 120.734375s26.011718 14.09375 26.535156 49.191406c0 0 10.773437-41.425781-26.535156-49.191406" fill="#29549d"/><g fill="#f48221"><path d="m200.863281 41.929688c-20.261719-22.191407-47.207031-34.410157-75.863281-34.410157-28.660156 0-55.597656 12.21875-75.863281 34.410157-17.722657 19.402343-28.480469 44.394531-30.902344 71.351562l5.359375-5.03125c7.410156-53.996094 50.058594-95.535156 101.40625-95.535156 51.359375 0 94.027344 41.566406 101.414062 95.585937l5.230469 3.730469c-2.636719-26.476562-13.332031-51-30.78125-70.101562m-20.21875 177.347656c-16.039062 11.386718-35.148437 18.007812-55.644531 18.007812-20.898438 0-40.355469-6.878906-56.582031-18.679687l-5.875 1.953125c18.09375 14.242187 39.734375 21.921875 62.457031 21.921875 22.710938 0 44.347656-7.675781 62.429688-21.902344zm0 0"/><path d="m147.789062 196.765625c-7.402343 2.9375-15.378906 4.535156-23.691406 4.535156-7.753906 0-15.214844-1.390625-22.1875-3.957031-1.4375 2.671875-3.980468 6.1875-8.195312 8.628906 9.511718 4.273438 19.792968 6.515625 30.382812 6.515625 10.679688 0 22.238282-2.75 31.816406-7.09375-1.921874-1.960937-5.695312-4.492187-8.125-8.628906m-23.691406-159.445313c-16.328125 0-31.910156 5.320313-45.09375 15.214844 3.257813.230469 8.90625.859375 16.734375 2.566406 0 .007813 0 .007813.003907 0 8.671874-4.238281 18.265624-6.59375 28.355468-6.59375 10.867188 0 21.164063 2.730469 30.339844 7.605469 1.902344-1.128906 6.90625-2.796875 14.964844-3.945312-12.617188-8.703125-30.027344-14.847657-45.304688-14.847657"/></g></svg>