
<svg xmlns="http://www.w3.org/2000/svg" xmlns:xlink="http://www.w3.org/1999/xlink" width="250px" height="250px" viewBox="0 0 250 250" version="1.1">
<g id="surface1">
<path style=" stroke:none;fill-rule:nonzero;fill:rgb(29.411766%,75.294119%,78.431374%);fill-opacity:1;" d="M 189.636719 250 L 19.042969 114.109375 C 7.234375 104.722656 0.203125 89.394531 0.203125 73.035156 C 0.203125 56.679688 7.234375 41.347656 19.042969 31.960938 L 60.363281 -0.796875 L 230.957031 135.109375 C 242.757812 144.5 249.785156 159.828125 249.785156 176.183594 C 249.785156 192.539062 242.757812 207.867188 230.957031 217.257812 Z M 60.347656 21.054688 L 28.140625 46.625 C 20.539062 52.660156 16.015625 62.519531 16.015625 73.046875 C 16.015625 83.570312 20.539062 93.429688 28.140625 99.464844 L 189.683594 228.148438 L 221.890625 202.597656 C 229.484375 196.558594 234.003906 186.695312 234.003906 176.175781 C 234.003906 165.65625 229.484375 155.792969 221.890625 149.753906 Z M 60.347656 21.054688 "/>
<path style=" stroke:none;fill-rule:nonzero;fill:rgb(0.784314%,50.588238%,60.784316%);fill-opacity:1;" d="M 60.191406 228.023438 L 28.03125 202.402344 C 20.4375 196.363281 15.917969 186.503906 15.917969 175.980469 C 15.917969 165.460938 20.4375 155.597656 28.03125 149.5625 L 111.28125 83.511719 L 97.550781 72.601562 L 19.027344 134.898438 C 7.21875 144.285156 0.1875 159.613281 0.1875 175.972656 C 0.1875 192.332031 7.21875 207.660156 19.027344 217.046875 L 60.238281 249.875 L 111.222656 209.394531 L 97.488281 198.453125 Z M 60.191406 228.023438 "/>
<path style=" stroke:none;fill-rule:nonzero;fill:rgb(0.784314%,50.588238%,60.784316%);fill-opacity:1;" d="M 231.035156 32.15625 L 189.808594 -0.671875 L 138.777344 39.84375 L 152.511719 50.785156 L 189.792969 21.25 L 221.96875 46.871094 C 229.5625 52.910156 234.082031 62.773438 234.082031 73.292969 C 234.082031 83.8125 229.5625 93.675781 221.96875 99.714844 L 138.703125 165.710938 L 152.433594 176.652344 L 230.972656 114.304688 C 242.78125 104.917969 249.8125 89.589844 249.8125 73.230469 C 249.8125 56.871094 242.78125 41.542969 230.972656 32.15625 Z M 231.035156 32.15625 "/>
<path style=" stroke:none;fill-rule:nonzero;fill:rgb(0.784314%,50.588238%,60.784316%);fill-opacity:1;" d="M 28.84375 127.054688 L 93.71875 75.546875 L 102.765625 90.214844 L 37.886719 141.726562 Z M 28.84375 127.054688 "/>
<path style=" stroke:none;fill-rule:nonzero;fill:rgb(0.784314%,50.588238%,60.784316%);fill-opacity:1;" d="M 213.574219 106.246094 L 181.972656 131.355469 L 191.007812 146.019531 L 223.78125 119.972656 C 220.347656 115.472656 216.960938 110.867188 213.574219 106.246094 Z M 213.574219 106.246094 "/>
</g>
</svg>
