<svg height="250" viewBox="0 0 250 250" width="250" xmlns="http://www.w3.org/2000/svg"><path d="m189.636719 250-170.59375-135.890625c-11.808594-9.386719-18.839844-24.714844-18.839844-41.074219 0-16.355468 7.03125-31.6875 18.839844-41.074218l41.320312-32.757813 170.59375 135.90625c11.800781 9.390625 18.828125 24.71875 18.828125 41.074219 0 16.355468-7.027344 31.683594-18.828125 41.074218zm-129.289063-228.945312-32.207031 25.570312c-7.601563 6.035156-12.125 15.894531-12.125 26.421875 0 10.523437 4.523437 20.382813 12.125 26.417969l161.542969 128.683594 32.207031-25.550782c7.59375-6.039062 12.113281-15.902344 12.113281-26.421875s-4.519531-20.382812-12.113281-26.421875zm0 0" fill="#4bc0c8"/><g fill="#02819b"><path d="m60.191406 228.023438-32.160156-25.621094c-7.59375-6.039063-12.113281-15.898438-12.113281-26.421875 0-10.519531 4.519531-20.382813 12.113281-26.417969l83.25-66.050781-13.730469-10.910157-78.523437 62.296876c-11.808594 9.386718-18.839844 24.714843-18.839844 41.074218s7.03125 31.6875 18.839844 41.074219l41.210937 32.828125 50.984375-40.480469-13.734375-10.941406zm0 0"/><path d="m231.035156 32.15625-41.226562-32.828125-51.03125 40.515625 13.734375 10.941406 37.28125-29.535156 32.175781 25.621094c7.59375 6.039062 12.113281 15.902344 12.113281 26.421875s-4.519531 20.382812-12.113281 26.421875l-83.265625 65.996094 13.730469 10.941406 78.539062-62.347656c11.808594-9.386719 18.839844-24.714844 18.839844-41.074219s-7.03125-31.6875-18.839844-41.074219zm0 0"/><path d="m28.84375 127.054688 64.875-51.507813 9.046875 14.667969-64.878906 51.511718zm0 0"/><path d="m213.574219 106.246094-31.601563 25.109375 9.035156 14.664062 32.773438-26.046875c-3.433594-4.5-6.820312-9.105468-10.207031-13.726562zm0 0"/></g></svg>