<svg height="250" viewBox="0 0 250 250" width="250" xmlns="http://www.w3.org/2000/svg"><path d="m250 125c0 69.035156-55.964844 125-125 125s-125-55.964844-125-125 55.964844-125 125-125 125 55.964844 125 125zm0 0" fill="#f55749"/><path d="m123.539062 47.25c.902344-.503906 2.003907-.503906 2.90625 0l64.257813 36.078125c.894531.492187 1.449219 1.433594 1.453125 2.453125 0 1.015625-.546875 1.953125-1.445312 2.453125l-55.898438 31.515625c-1.972656-2.242188-4.65625-3.730469-7.601562-4.21875v-17.132812c6.054687-1.007813 10.671874-6.132813 10.671874-12.328126 0-6.914062-5.75-12.523437-12.851562-12.523437s-12.851562 5.609375-12.851562 12.523437c0 6.15625 4.570312 11.265626 10.578124 12.3125v17.171876c-2.90625.5-5.550781 1.976562-7.5 4.1875l-55.890624-31.382813c-.898438-.488281-1.457032-1.429687-1.457032-2.449219-.003906-1.023437.554688-1.964844 1.449219-2.457031l64.1875-36.179687m67.34375 45.445312c.902344-.511719 2.003906-.511719 2.90625-.007812.894531.492187 1.453125 1.429687 1.460937 2.453124l.054688 70.046876c0 1.015624-.546875 1.945312-1.453125 2.453124l-62.226563 35.078126c-1.929687 1.09375-4.351562-.273438-4.351562-2.453126l-.054688-60.101562c3.015626-.5 5.75-2.039062 7.710938-4.335938l15.546875 8.710938c-.429687 1.597656-.527344 3.269531-.289063 4.90625.984376 6.851562 7.492188 11.617188 14.515626 10.65625 7.03125-.96875 11.921874-7.304688 10.9375-14.15625-.984376-6.851562-7.5-11.617188-14.523438-10.648438-3.527344.472657-6.703125 2.386719-8.765625 5.289063l-15.234375-8.539063c1.09375-2.898437 1.015625-6.09375-.195312-8.945312l53.96875-30.421875m-136.148438 2.453125c0-1.65625 1.390625-2.835938 2.90625-2.835938.507812 0 1.015625.132813 1.453125.390626l54.023437 30.453124c-1.195312 2.84375-1.257812 6.015626-.179687 8.90625l-15.226563 8.539063c-2.0625-2.902344-5.238281-4.816406-8.765624-5.289063-7.03125-.96875-13.523438 3.804688-14.515626 10.648438-.992187 6.84375 3.90625 13.179688 10.9375 14.148438s13.515626-3.804688 14.515626-10.648438c.238281-1.640625.140624-3.3125-.289063-4.914062l15.539063-8.710938c1.945312 2.28125 4.648437 3.8125 7.632812 4.328125l-.046875 60.117187c0 2.179688-2.421875 3.539063-4.359375 2.445313l-62.234375-35.078125c-.894531-.492188-1.449219-1.433594-1.453125-2.453125z" fill="#fff"/></svg>