
<svg xmlns="http://www.w3.org/2000/svg" xmlns:xlink="http://www.w3.org/1999/xlink" width="250px" height="250px" viewBox="0 0 250 250" version="1.1">
<g id="surface1">
<path style=" stroke:none;fill-rule:nonzero;fill:rgb(96.078432%,34.117648%,28.627452%);fill-opacity:1;" d="M 250 125 C 250 194.035156 194.035156 250 125 250 C 55.964844 250 0 194.035156 0 125 C 0 55.964844 55.964844 0 125 0 C 194.035156 0 250 55.964844 250 125 Z M 250 125 "/>
<path style=" stroke:none;fill-rule:nonzero;fill:rgb(100%,100%,100%);fill-opacity:1;" d="M 123.539062 47.25 C 124.441406 46.746094 125.542969 46.746094 126.445312 47.25 L 190.703125 83.328125 C 191.597656 83.820312 192.152344 84.761719 192.15625 85.78125 C 192.15625 86.796875 191.609375 87.734375 190.710938 88.234375 L 134.8125 119.75 C 132.839844 117.507812 130.15625 116.019531 127.210938 115.53125 L 127.210938 98.398438 C 133.265625 97.390625 137.882812 92.265625 137.882812 86.070312 C 137.882812 79.15625 132.132812 73.546875 125.03125 73.546875 C 117.929688 73.546875 112.179688 79.15625 112.179688 86.070312 C 112.179688 92.226562 116.75 97.335938 122.757812 98.382812 L 122.757812 115.554688 C 119.851562 116.054688 117.207031 117.53125 115.257812 119.742188 L 59.367188 88.359375 C 58.46875 87.871094 57.910156 86.929688 57.910156 85.910156 C 57.90625 84.886719 58.464844 83.945312 59.359375 83.453125 L 123.546875 47.273438 M 190.890625 92.71875 C 191.792969 92.207031 192.894531 92.207031 193.796875 92.710938 C 194.691406 93.203125 195.25 94.140625 195.257812 95.164062 L 195.3125 165.210938 C 195.3125 166.226562 194.765625 167.15625 193.859375 167.664062 L 131.632812 202.742188 C 129.703125 203.835938 127.28125 202.46875 127.28125 200.289062 L 127.226562 140.1875 C 130.242188 139.6875 132.976562 138.148438 134.9375 135.851562 L 150.484375 144.5625 C 150.054688 146.160156 149.957031 147.832031 150.195312 149.46875 C 151.179688 156.320312 157.6875 161.085938 164.710938 160.125 C 171.742188 159.15625 176.632812 152.820312 175.648438 145.96875 C 174.664062 139.117188 168.148438 134.351562 161.125 135.320312 C 157.597656 135.792969 154.421875 137.707031 152.359375 140.609375 L 137.125 132.070312 C 138.21875 129.171875 138.140625 125.976562 136.929688 123.125 L 190.898438 92.703125 M 54.75 95.15625 C 54.75 93.5 56.140625 92.320312 57.65625 92.320312 C 58.164062 92.320312 58.671875 92.453125 59.109375 92.710938 L 113.132812 123.164062 C 111.9375 126.007812 111.875 129.179688 112.953125 132.070312 L 97.726562 140.609375 C 95.664062 137.707031 92.488281 135.792969 88.960938 135.320312 C 81.929688 134.351562 75.4375 139.125 74.445312 145.96875 C 73.453125 152.8125 78.351562 159.148438 85.382812 160.117188 C 92.414062 161.085938 98.898438 156.3125 99.898438 149.46875 C 100.136719 147.828125 100.039062 146.15625 99.609375 144.554688 L 115.148438 135.84375 C 117.09375 138.125 119.796875 139.65625 122.78125 140.171875 L 122.734375 200.289062 C 122.734375 202.46875 120.3125 203.828125 118.375 202.734375 L 56.140625 167.65625 C 55.246094 167.164062 54.691406 166.222656 54.6875 165.203125 L 54.75 95.15625 "/>
</g>
</svg>
