<!-- Generator: Adobe Illustrator 23.0.3, SVG Export Plug-In . SVG Version: 6.00 Build 0)  -->
<svg xmlns="http://www.w3.org/2000/svg" xmlns:xlink="http://www.w3.org/1999/xlink" width="250px" height="250px" viewBox="0 0 250 250" version="1.1">
<g id="surface1">
<path style=" stroke:none;fill-rule:nonzero;fill:rgb(100%,100%,100%);fill-opacity:1;" d="M 250 125 C 250 194.035156 194.035156 250 125 250 C 55.964844 250 0 194.035156 0 125 C 0 55.964844 55.964844 0 125 0 C 194.035156 0 250 55.964844 250 125 Z M 250 125 "/>
<path style=" stroke:none;fill-rule:nonzero;fill:rgb(97.647059%,84.705883%,36.862746%);fill-opacity:1;" d="M 135.371094 153.828125 C 84.394531 131.054688 52.597656 84.824219 50.742188 38.300781 C 50.664062 36.347656 48.320312 35.371094 46.855469 36.660156 C 22.207031 58.320312 6.757812 90.136719 7.050781 125.566406 C 7.578125 188.652344 58.808594 240.429688 121.933594 241.621094 C 172.910156 242.578125 216.621094 211.015625 233.710938 166.308594 C 234.394531 164.550781 232.8125 162.714844 230.976562 163.183594 C 201.289062 170.644531 167.382812 168.144531 135.371094 153.828125 Z M 135.371094 153.828125 "/>
<path style=" stroke:none;fill-rule:nonzero;fill:rgb(93.725491%,46.666667%,18.82353%);fill-opacity:1;" d="M 239.277344 103.4375 C 239.238281 103.203125 239.199219 102.96875 239.140625 102.734375 C 238.496094 99.355469 237.714844 96.035156 236.796875 92.773438 C 236.757812 92.617188 236.71875 92.480469 236.679688 92.324219 C 236.230469 90.761719 235.742188 89.199219 235.234375 87.65625 C 235.195312 87.539062 235.15625 87.421875 235.117188 87.304688 C 234.042969 84.082031 232.832031 80.9375 231.484375 77.851562 C 231.445312 77.792969 231.425781 77.714844 231.386719 77.636719 C 230.742188 76.152344 230.058594 74.667969 229.335938 73.222656 C 229.316406 73.183594 229.296875 73.144531 229.277344 73.105469 C 228.535156 71.601562 227.773438 70.117188 226.972656 68.652344 C 226.953125 68.613281 226.933594 68.574219 226.914062 68.535156 C 226.09375 67.03125 225.234375 65.566406 224.355469 64.101562 C 224.335938 64.0625 224.316406 64.023438 224.277344 63.984375 C 223.457031 62.636719 222.617188 61.328125 221.757812 60.019531 C 221.660156 59.863281 221.5625 59.726562 221.464844 59.570312 C 219.648438 56.835938 217.695312 54.199219 215.664062 51.640625 C 215.546875 51.484375 215.410156 51.328125 215.292969 51.171875 C 214.21875 49.824219 213.105469 48.515625 211.953125 47.226562 C 211.953125 47.226562 211.953125 47.226562 211.953125 47.207031 C 210.859375 45.957031 209.726562 44.746094 208.59375 43.554688 C 208.554688 43.515625 208.496094 43.457031 208.457031 43.417969 C 207.421875 42.34375 206.367188 41.269531 205.273438 40.234375 C 205.117188 40.078125 204.960938 39.941406 204.804688 39.785156 C 203.691406 38.730469 202.578125 37.695312 201.425781 36.679688 C 201.289062 36.5625 201.152344 36.445312 201.015625 36.328125 C 199.84375 35.3125 198.652344 34.316406 197.460938 33.339844 C 197.34375 33.242188 197.246094 33.164062 197.128906 33.066406 C 195.859375 32.050781 194.550781 31.054688 193.222656 30.078125 C 193.203125 30.058594 193.164062 30.039062 193.144531 30.019531 C 191.816406 29.042969 190.449219 28.085938 189.082031 27.167969 C 189.0625 27.148438 189.042969 27.148438 189.023438 27.128906 C 186.269531 25.292969 183.417969 23.554688 180.488281 21.953125 C 180.371094 21.894531 180.273438 21.835938 180.15625 21.777344 C 178.769531 21.015625 177.34375 20.292969 175.917969 19.570312 C 175.722656 19.472656 175.546875 19.375 175.351562 19.296875 C 172.382812 17.851562 169.335938 16.523438 166.230469 15.3125 C 166.054688 15.234375 165.878906 15.175781 165.703125 15.097656 C 164.101562 14.492188 162.460938 13.90625 160.820312 13.359375 C 160.78125 13.339844 160.761719 13.339844 160.722656 13.320312 C 159.199219 12.8125 157.65625 12.34375 156.09375 11.894531 C 155.957031 11.855469 155.820312 11.816406 155.664062 11.777344 C 154.003906 11.308594 152.324219 10.878906 150.644531 10.488281 C 150.605469 10.488281 150.585938 10.46875 150.546875 10.46875 C 148.945312 10.097656 147.324219 9.765625 145.703125 9.453125 C 145.605469 9.433594 145.488281 9.414062 145.390625 9.394531 C 143.691406 9.082031 141.972656 8.808594 140.253906 8.554688 C 140.234375 8.554688 140.234375 8.554688 140.214844 8.554688 C 137.539062 8.183594 134.84375 7.910156 132.109375 7.714844 C 132.558594 7.8125 133.007812 7.851562 133.457031 7.910156 C 134.53125 8.007812 135.566406 8.105469 136.582031 8.222656 C 136.582031 8.222656 136.582031 8.222656 136.601562 8.222656 C 137.617188 8.339844 138.59375 8.457031 139.550781 8.59375 C 139.570312 8.59375 139.589844 8.59375 139.589844 8.59375 C 140.527344 8.730469 141.445312 8.867188 142.34375 9.023438 C 142.363281 9.023438 142.402344 9.023438 142.421875 9.042969 C 143.300781 9.199219 144.160156 9.355469 145 9.53125 C 145.039062 9.53125 145.078125 9.550781 145.117188 9.550781 C 145.9375 9.726562 146.738281 9.902344 147.519531 10.097656 C 147.578125 10.117188 147.617188 10.117188 147.675781 10.136719 C 148.4375 10.332031 149.179688 10.527344 149.882812 10.742188 C 149.941406 10.761719 150.019531 10.78125 150.078125 10.800781 C 150.78125 11.015625 151.464844 11.230469 152.128906 11.464844 C 152.207031 11.484375 152.285156 11.523438 152.363281 11.542969 C 153.007812 11.777344 153.632812 12.011719 154.238281 12.246094 C 154.335938 12.285156 154.433594 12.324219 154.53125 12.363281 C 155.117188 12.597656 155.683594 12.851562 156.25 13.125 C 156.367188 13.183594 156.464844 13.242188 156.582031 13.300781 C 157.109375 13.554688 157.636719 13.808594 158.125 14.082031 C 158.261719 14.160156 158.378906 14.238281 158.515625 14.296875 C 158.984375 14.570312 159.453125 14.824219 159.902344 15.117188 C 160.058594 15.214844 160.195312 15.3125 160.351562 15.410156 C 160.761719 15.683594 161.191406 15.957031 161.582031 16.25 C 161.757812 16.386719 161.933594 16.523438 162.109375 16.660156 C 162.460938 16.933594 162.832031 17.1875 163.164062 17.480469 C 163.378906 17.65625 163.574219 17.851562 163.789062 18.027344 C 164.082031 18.28125 164.375 18.535156 164.667969 18.789062 C 164.941406 19.042969 165.195312 19.316406 165.46875 19.570312 C 165.683594 19.785156 165.898438 19.980469 166.09375 20.195312 C 166.5625 20.683594 167.011719 21.191406 167.441406 21.71875 C 168.085938 22.5 171.425781 26.738281 173.222656 34.179688 C 175.390625 43.144531 175.019531 52.480469 177.070312 61.464844 C 177.421875 62.96875 177.792969 64.453125 178.164062 65.898438 C 178.261719 66.289062 178.378906 66.660156 178.476562 67.050781 C 178.789062 68.164062 179.101562 69.277344 179.414062 70.351562 C 179.511719 70.683594 179.609375 71.015625 179.707031 71.347656 C 190.253906 105.332031 211.367188 121.484375 239.6875 143.105469 C 240.664062 137.050781 241.152344 130.839844 241.152344 124.511719 C 241.171875 117.363281 240.527344 110.292969 239.277344 103.4375 Z M 239.277344 103.4375 "/>
<path style=" stroke:none;fill-rule:nonzero;fill:rgb(97.647059%,84.705883%,36.862746%);fill-opacity:1;" d="M 240.058594 108.359375 C 235.917969 98.789062 235.917969 98.789062 124.863281 58.671875 C 68.984375 38.476562 58.613281 18.984375 99.0625 10.15625 C 101.035156 9.726562 103.027344 9.355469 105.019531 9.023438 C 111.210938 8.007812 117.558594 7.5 124.023438 7.5 C 183.222656 7.5 232.167969 51.386719 240.058594 108.359375 "/>
</g>
</svg>
