<svg height="250" viewBox="0 0 250 250" width="250" xmlns="http://www.w3.org/2000/svg"><path d="m250 125c0 69.035156-55.964844 125-125 125s-125-55.964844-125-125 55.964844-125 125-125 125 55.964844 125 125zm0 0" fill="#fff"/><path d="m135.371094 153.828125c-50.976563-22.773437-82.773438-69.003906-84.628906-115.527344-.078126-1.953125-2.421876-2.929687-3.886719-1.640625-24.648438 21.660156-40.097657 53.476563-39.804688 88.90625.527344 63.085938 51.757813 114.863282 114.882813 116.054688 50.976562.957031 94.6875-30.605469 111.777344-75.3125.683593-1.757813-.898438-3.59375-2.734376-3.125-29.6875 7.460937-63.59375 4.960937-95.605468-9.355469zm0 0" fill="#f9d85e"/><path d="m239.277344 103.4375c-.039063-.234375-.078125-.46875-.136719-.703125-.644531-3.378906-1.425781-6.699219-2.34375-9.960937-.039063-.15625-.078125-.292969-.117187-.449219-.449219-1.5625-.9375-3.125-1.445313-4.667969-.039063-.117188-.078125-.234375-.117187-.351562-1.074219-3.222657-2.285157-6.367188-3.632813-9.453126-.039063-.058593-.058594-.136718-.097656-.214843-.644531-1.484375-1.328125-2.96875-2.050781-4.414063-.019532-.039062-.039063-.078125-.058594-.117187-.742188-1.503907-1.503906-2.988281-2.304688-4.453125-.019531-.039063-.039062-.078125-.058594-.117188-.820312-1.503906-1.679687-2.96875-2.558593-4.433594-.019531-.039062-.039063-.078124-.078125-.117187-.820313-1.347656-1.660156-2.65625-2.519532-3.964844-.097656-.15625-.195312-.292969-.292968-.449219-1.816406-2.734374-3.769532-5.371093-5.800782-7.929687-.117187-.15625-.253906-.3125-.371093-.46875-1.074219-1.347656-2.1875-2.65625-3.339844-3.945313 0 0 0 0 0-.019531-1.09375-1.25-2.226563-2.460937-3.359375-3.652343-.039062-.039063-.097656-.097657-.136719-.136719-1.035156-1.074219-2.089843-2.148438-3.183593-3.183594-.15625-.15625-.3125-.292969-.46875-.449219-1.113282-1.054687-2.226563-2.089844-3.378907-3.105468-.136719-.117188-.273437-.234376-.410156-.351563-1.171875-1.015625-2.363281-2.011719-3.554687-2.988281-.117188-.097656-.214844-.175782-.332032-.273438-1.269531-1.015625-2.578125-2.011718-3.90625-2.988281-.019531-.019531-.058594-.039063-.078125-.058594-1.328125-.976562-2.695312-1.933593-4.0625-2.851562-.019531-.019531-.039062-.019531-.058593-.039063-2.753907-1.835937-5.605469-3.574218-8.535157-5.175781-.117187-.058594-.214843-.117187-.332031-.175781-1.386719-.761719-2.8125-1.484375-4.238281-2.207032-.195313-.097656-.371094-.195312-.566407-.273437-2.96875-1.445313-6.015624-2.773437-9.121093-3.984375-.175781-.078125-.351563-.136719-.527344-.214844-1.601563-.605468-3.242187-1.191406-4.882813-1.738281-.039062-.019531-.058593-.019531-.097656-.039063-1.523437-.507812-3.066406-.976562-4.628906-1.425781-.136719-.039062-.273438-.078125-.429688-.117187-1.660156-.46875-3.339843-.898438-5.019531-1.289063-.039062 0-.058593-.019531-.097656-.019531-1.601563-.371094-3.222656-.703125-4.84375-1.015625-.097656-.019531-.214844-.039063-.3125-.058594-1.699219-.3125-3.417969-.585937-5.136719-.839843-.019531 0-.019531 0-.039062 0-2.675782-.371094-5.371094-.644532-8.105469-.839844.449219.097656.898437.136718 1.347656.195312 1.074219.097656 2.109375.195313 3.125.3125h.019531c1.015626.117188 1.992188.234375 2.949219.371094h.039063c.9375.136719 1.855468.273438 2.753906.429688.019531 0 .058594 0 .078125.019531.878906.15625 1.738281.3125 2.578125.488281.039062 0 .078125.019531.117188.019531.820312.175781 1.621093.351563 2.402343.546875.058594.019532.097657.019532.15625.039063.761719.195312 1.503907.390625 2.207031.605469.058594.019531.136719.039062.195313.058593.703125.214844 1.386719.429688 2.050781.664063.078125.019531.15625.058594.234375.078125.644531.234375 1.269531.46875 1.875.703125.097657.039062.195313.078125.292969.117187.585938.234375 1.152344.488281 1.71875.761719.117188.058594.214844.117188.332031.175781.527344.253907 1.054688.507813 1.542969.78125.136719.078125.253906.15625.390625.214844.46875.273437.9375.527344 1.386719.820313.15625.097656.292968.195312.449218.292968.410157.273438.839844.546875 1.230469.839844.175781.136719.351563.273438.527344.410156.351563.273438.722656.527344 1.054687.820313.214844.175781.410157.371093.625.546875l.878907.761718c.273437.253907.527343.527344.800781.78125.214844.214844.429688.410157.625.625.46875.488282.917969.996094 1.347656 1.523438.644532.78125 3.984375 5.019531 5.78125 12.460938 2.167969 8.964843 1.796875 18.300781 3.847656 27.285156.351563 1.503906.722657 2.988281 1.09375 4.433594.097657.390624.214844.761718.3125 1.152343.3125 1.113281.625 2.226563.9375 3.300781.097657.332032.195313.664063.292969.996094 10.546875 33.984375 31.660157 50.136719 59.980469 71.757813.976562-6.054688 1.464844-12.265625 1.464844-18.59375.019531-7.148438-.625-14.21875-1.875-21.074219zm0 0" fill="#ef7730"/><path d="m240.058594 108.359375c-4.140625-9.570313-4.140625-9.570313-115.195313-49.6875-55.878906-20.195313-66.25-39.6875-25.800781-48.515625 1.972656-.429688 3.964844-.800781 5.957031-1.132812 6.191407-1.015626 12.539063-1.523438 19.003907-1.523438 59.199218 0 108.144531 43.886719 116.035156 100.859375" fill="#f9d85e"/></svg>