
<svg xmlns="http://www.w3.org/2000/svg" xmlns:xlink="http://www.w3.org/1999/xlink" width="250px" height="250px" viewBox="0 0 250 250" version="1.1">
<g id="surface1">
<path style=" stroke:none;fill-rule:nonzero;fill:rgb(67.843139%,67.843139%,67.843139%);fill-opacity:1;" d="M 204.617188 172.480469 C 201.683594 179.414062 198.210938 185.792969 194.1875 191.660156 C 188.703125 199.65625 184.214844 205.195312 180.753906 208.265625 C 175.386719 213.3125 169.640625 215.898438 163.484375 216.042969 C 159.066406 216.042969 153.738281 214.757812 147.535156 212.148438 C 141.3125 209.554688 135.59375 208.265625 130.367188 208.265625 C 124.882812 208.265625 119 209.554688 112.707031 212.148438 C 106.40625 214.757812 101.332031 216.117188 97.449219 216.253906 C 91.550781 216.511719 85.667969 213.851562 79.792969 208.265625 C 76.046875 204.925781 71.359375 199.191406 65.742188 191.074219 C 59.71875 182.402344 54.761719 172.347656 50.882812 160.882812 C 46.726562 148.5 44.644531 136.511719 44.644531 124.902344 C 44.644531 111.605469 47.453125 100.136719 53.078125 90.527344 C 57.5 82.808594 63.382812 76.71875 70.746094 72.246094 C 78.109375 67.777344 86.066406 65.5 94.632812 65.355469 C 99.320312 65.355469 105.46875 66.835938 113.105469 69.75 C 120.726562 72.675781 125.617188 74.160156 127.761719 74.160156 C 129.363281 74.160156 134.796875 72.425781 144.011719 68.96875 C 152.722656 65.761719 160.074219 64.433594 166.097656 64.957031 C 182.417969 66.304688 194.679688 72.882812 202.832031 84.738281 C 188.238281 93.785156 181.015625 106.457031 181.160156 122.707031 C 181.292969 135.367188 185.78125 145.902344 194.605469 154.269531 C 198.605469 158.152344 203.074219 161.152344 208.042969 163.28125 C 206.964844 166.480469 205.828125 169.542969 204.617188 172.480469 Z M 167.1875 21.828125 C 167.1875 31.75 163.640625 41.015625 156.578125 49.589844 C 148.050781 59.785156 137.738281 65.675781 126.554688 64.746094 C 126.414062 63.554688 126.332031 62.300781 126.332031 60.984375 C 126.332031 51.460938 130.386719 41.265625 137.585938 32.929688 C 141.179688 28.710938 145.753906 25.199219 151.296875 22.402344 C 156.828125 19.644531 162.0625 18.117188 166.980469 17.855469 C 167.125 19.183594 167.1875 20.511719 167.1875 21.828125 Z M 167.1875 21.828125 "/>
</g>
</svg>
