<svg height="250" viewBox="0 0 250 250" width="250" xmlns="http://www.w3.org/2000/svg"><path d="m204.617188 172.480469c-2.933594 6.933593-6.40625 13.3125-10.429688 19.179687-5.484375 7.996094-9.972656 13.535156-13.433594 16.605469-5.367187 5.046875-11.113281 7.632813-17.269531 7.777344-4.417969 0-9.746094-1.285157-15.949219-3.894531-6.222656-2.59375-11.941406-3.882813-17.167968-3.882813-5.484376 0-11.367188 1.289063-17.660157 3.882813-6.300781 2.609374-11.375 3.96875-15.257812 4.105468-5.898438.257813-11.78125-2.402344-17.65625-7.988281-3.746094-3.339844-8.433594-9.074219-14.050781-17.191406-6.023438-8.671875-10.980469-18.726563-14.859376-30.191407-4.15625-12.382812-6.238281-24.371093-6.238281-35.980468 0-13.296875 2.808594-24.765625 8.433594-34.375 4.421875-7.71875 10.304687-13.808594 17.667969-18.28125 7.363281-4.46875 15.320312-6.746094 23.886718-6.890625 4.6875 0 10.835938 1.480469 18.472657 4.394531 7.621093 2.925781 12.511719 4.410156 14.65625 4.410156 1.601562 0 7.035156-1.734375 16.25-5.191406 8.710937-3.207031 16.0625-4.535156 22.085937-4.011719 16.320313 1.347657 28.582032 7.925781 36.734375 19.78125-14.59375 9.046875-21.816406 21.71875-21.671875 37.96875.132813 12.660157 4.621094 23.195313 13.445313 31.5625 4 3.882813 8.46875 6.882813 13.4375 9.011719-1.078125 3.199219-2.214844 6.261719-3.425781 9.199219zm-37.429688-150.652344c0 9.921875-3.546875 19.1875-10.609375 27.761719-8.527344 10.195312-18.839844 16.085937-30.023437 15.15625-.140626-1.191406-.222657-2.445313-.222657-3.761719 0-9.523437 4.054688-19.71875 11.253907-28.054687 3.59375-4.21875 8.167968-7.730469 13.710937-10.527344 5.53125-2.757813 10.765625-4.285156 15.683594-4.546875.144531 1.328125.207031 2.65625.207031 3.972656zm0 0" fill="#adadad"/></svg>