<svg height="250" viewBox="0 0 250 250" width="250" xmlns="http://www.w3.org/2000/svg" xmlns:xlink="http://www.w3.org/1999/xlink"><linearGradient id="a" gradientTransform="scale(.244141 .325521)" gradientUnits="userSpaceOnUse" x1="400.537109" x2="621.595825" y1="495.586487" y2="274.52771"><stop offset="0" stop-color="#ff8506"/><stop offset=".5805" stop-color="#fd3947"/><stop offset="1" stop-color="#fb0078"/></linearGradient><filter id="b" height="100%" width="100%" x="0%" y="0%"><feColorMatrix in="SourceGraphic" type="matrix" values="0 0 0 0 1 0 0 0 0 1 0 0 0 0 1 0 0 0 1 0"/></filter><mask id="c"><g filter="url(#b)"><path d="m0 0h250v250h-250z" fill-opacity=".6"/></g></mask><linearGradient id="d" gradientTransform="scale(.244141 .325521)" gradientUnits="userSpaceOnUse" x1="491.356903" x2="465.533691" y1="473.116089" y2="509.661102"><stop offset="0" stop-color="#78005b"/><stop offset=".3483" stop-color="#7a025a" stop-opacity=".6517"/><stop offset=".51" stop-color="#820955" stop-opacity=".49"/><stop offset=".6332" stop-color="#8e154e" stop-opacity=".3668"/><stop offset=".7369" stop-color="#a12643" stop-opacity=".2631"/><stop offset=".8283" stop-color="#b83c36" stop-opacity=".1717"/><stop offset=".9111" stop-color="#d65725" stop-opacity=".0889"/><stop offset=".9857" stop-color="#f87711" stop-opacity=".0143"/><stop offset="1" stop-color="#ff7e0d" stop-opacity="0"/></linearGradient><clipPath id="e"><path d="m0 0h250v250h-250z"/></clipPath><mask id="f"><g filter="url(#b)"><path d="m0 0h250v250h-250z" fill-opacity=".6"/></g></mask><linearGradient id="g" gradientTransform="matrix(-.244141 0 0 .325521 2414.484262 0)" gradientUnits="userSpaceOnUse" x1="9335.275391" x2="9359.581055" y1="506.94101" y2="471.982788"><stop offset="0" stop-color="#ff7e0d" stop-opacity="0"/><stop offset=".00928743" stop-color="#f97811" stop-opacity=".0127"/><stop offset=".0651" stop-color="#d65825" stop-opacity=".0888"/><stop offset=".1269" stop-color="#b93d36" stop-opacity=".1729"/><stop offset=".1949" stop-color="#a12643" stop-opacity=".2657"/><stop offset=".272" stop-color="#8f154e" stop-opacity=".3707"/><stop offset=".3632" stop-color="#820955" stop-opacity=".495"/><stop offset=".4822" stop-color="#7a025a" stop-opacity=".6573"/><stop offset=".7336" stop-color="#78005b"/></linearGradient><clipPath id="h"><path d="m0 0h250v250h-250z"/></clipPath><mask id="i"><g filter="url(#b)"><path d="m0 0h250v250h-250z" fill-opacity=".6"/></g></mask><linearGradient id="j" gradientTransform="scale(.244141 .325521)" gradientUnits="userSpaceOnUse" x1="492.200592" x2="511.854492" y1="472.929596" y2="444.661713"><stop offset="0" stop-color="#ff7e0d" stop-opacity="0"/><stop offset=".0133" stop-color="#f97910" stop-opacity=".0192"/><stop offset=".1144" stop-color="#d25427" stop-opacity=".1659"/><stop offset=".219" stop-color="#b1363a" stop-opacity=".3175"/><stop offset=".3263" stop-color="#981e48" stop-opacity=".4731"/><stop offset=".4375" stop-color="#860d53" stop-opacity=".6344"/><stop offset=".5551" stop-color="#7b0359" stop-opacity=".8048"/><stop offset=".6897" stop-color="#78005b"/></linearGradient><clipPath id="k"><path d="m0 0h250v250h-250z"/></clipPath><linearGradient id="l"><stop offset="0" stop-color="#ff4630" stop-opacity="0"/><stop offset=".5722" stop-color="#b31f48" stop-opacity=".5722"/><stop offset="1" stop-color="#78005b"/></linearGradient><linearGradient id="m" gradientTransform="scale(.244141 .325521)" gradientUnits="userSpaceOnUse" x1="433.950989" x2="477.684113" xlink:href="#l" y1="331.151001" y2="287.417908"/><linearGradient id="n" gradientTransform="scale(.244141 .325521)" gradientUnits="userSpaceOnUse" x1="480.20459" x2="509.334808" xlink:href="#l" y1="360.242493" y2="331.112305"/><linearGradient id="o" gradientTransform="scale(.244141 .325521)" gradientUnits="userSpaceOnUse" x1="512.803589" x2="542.030029" xlink:href="#l" y1="315.682007" y2="286.455688"/><path d="m-.300781.273438h250.144531v250.144531h-250.144531zm0 0"/><path d="m165.53125 117.164062-18.835938-34.375c-1.402343-2.5625-3.570312-4.03125-5.949218-4.03125s-4.546875 1.46875-5.949219 4.03125l-2.046875 3.742188-2.050781-3.742188c-1.402344-2.5625-3.570313-4.03125-5.949219-4.03125-2.375 0-4.546875 1.46875-5.949219 4.03125l-2.023437 3.695313-2.023438-3.695313c-1.402344-2.5625-3.574218-4.03125-5.949218-4.03125-2.378907 0-4.550782 1.46875-5.949219 4.03125l-18.835938 34.375c-2.683593 4.894532-2.683593 11.464844 0 16.359376l18.835938 34.375c1.402343 2.558593 3.570312 4.027343 5.949219 4.027343 2.375 0 4.546874-1.46875 5.949218-4.027343l10.023438-18.296876 2.066406 3.777344c.007812.011719.015625.027344.023438.039063l7.933593 14.480469c1.40625 2.558593 3.574219 4.027343 5.949219 4.027343 2.378906 0 4.550781-1.46875 5.953125-4.027343l18.835937-34.375c2.671876-4.894532 2.671876-11.464844-.007812-16.359376zm-43.730469-31.449218c.695313-1.265625 1.769531-1.996094 2.945313-1.996094 1.175781 0 2.25.726562 2.945312 1.996094l2.746094 5.019531-5.667969 10.347656-5.695312-10.394531zm-10.058593 79.253906c-.691407 1.269531-1.765626 1.996094-2.945313 1.996094-1.175781 0-2.25-.722656-2.941406-1.992188l-18.835938-34.378906c-1.722656-3.140625-1.722656-7.359375 0-10.5l18.835938-34.375c.691406-1.265625 1.765625-1.996094 2.941406-1.996094 1.179687 0 2.253906.726563 2.945313 1.996094l2.726562 4.976562-14.507812 26.472657c-2.679688 4.890625-2.679688 11.464843.003906 16.367187l1.105468 1.996094v-.003906l9.726563 17.855468c1.238281 2.257813 3.074219 3.667969 5.121094 3.96875zm7.953124-14.511719-.003906-.003906c-.691406 1.265625-1.765625 1.996094-2.941406 1.996094-1.179688 0-2.253906-.726563-2.945312-1.992188l-9.996094-18.355469h-.003906l-.835938-1.507812c-1.722656-3.140625-1.722656-7.363281 0-10.503906l13.804688-25.195313 5.695312 10.394531-6.507812 11.875c-2.679688 4.894532-2.679688 11.464844 0 16.359376l6.507812 11.875zm5.078126-40.957031 5.804687 10.59375c1.722656 3.140625 1.722656 7.359375 0 10.5l-5.804687 10.597656-5.804688-10.597656c-1.722656-3.140625-1.722656-7.359375 0-10.5zm8.8125 24.023438c2.679687-4.894532 2.679687-11.464844 0-16.359376l-6.507813-11.875 5.671875-10.347656 13.78125 25.152344c1.71875 3.140625 1.71875 7.359375-.007812 10.519531l-2.207032 4.089844-8.578125 15.753906c-.695312 1.265625-1.769531 1.992188-2.945312 1.992188-1.164063 0-2.226563-.710938-2.921875-1.953125l-2.792969-5.09375zm28.941406-2.929688-18.835938 34.375c-.691406 1.269531-1.769531 1.996094-2.945312 1.996094-1.175782 0-2.25-.726563-2.941406-1.996094l-4.179688-7.621094c2.046875-.304687 3.878906-1.710937 5.121094-3.972656l7.371094-13.535156.007812.007812 1.207031-2.242187 1.410157-2.589844-.007813-.007813.800781-1.484374c2.679688-4.894532 2.679688-11.464844 0-16.359376l-14.484375-26.429687 2.75-5.015625c.691407-1.265625 1.765625-1.996094 2.945313-1.996094 1.175781 0 2.25.726563 2.941406 1.996094l18.835938 34.375c1.726562 3.136719 1.726562 7.359375.003906 10.5zm0 0" fill="url(#a)"/><g clip-path="url(#e)" mask="url(#c)"><path d="m116.75 157.410156c-.289062 0-.570312-.023437-.847656-.066406l-4.042969 7.429688 3.046875 2.875 7.394531-13.539063c-1.394531 2.105469-3.414062 3.300781-5.550781 3.300781zm0 0" fill="url(#d)"/></g><g clip-path="url(#h)" mask="url(#f)"><path d="m132.773438 157.410156c.285156 0 .566406-.023437.84375-.066406l4.046874 7.429688-3.050781 2.875-7.355469-13.523438c1.394532 2.101562 3.375 3.285156 5.515626 3.285156zm0 0" fill="url(#g)"/></g><g clip-path="url(#k)" mask="url(#i)"><path d="m122.4375 145.363281 2.351562 4.28125-3.574218 6.398438-2.351563-4.160157zm0 0" fill="url(#j)"/></g><path d="m114.46875 90.6875 2.3125 4.242188-8.371094 15.332031-2.929687-3.082031zm0 0" fill="url(#m)"/><path d="m122.472656 105.28125 2.289063 4.242188-5.339844 9.835937-2.925781-3.082031zm0 0" fill="url(#n)"/><path d="m130.445312 90.730469 2.300782 4.21875-5.660156 10.332031-2.3125-4.214844zm0 0" fill="url(#o)"/></svg>