<svg xmlns="http://www.w3.org/2000/svg" xmlns:xlink="http://www.w3.org/1999/xlink" width="250" height="250"><linearGradient id="c" x1="400.537" x2="621.596" y1="495.586" y2="274.528" gradientTransform="scale(.24414 .32552)" gradientUnits="userSpaceOnUse"><stop offset="0" stop-color="#ff8506"/><stop offset=".581" stop-color="#fd3947"/><stop offset="1" stop-color="#fb0078"/></linearGradient><filter id="a" width="100%" height="100%" x="0%" y="0%"><feColorMatrix in="SourceGraphic" values="0 0 0 0 1 0 0 0 0 1 0 0 0 0 1 0 0 0 1 0"/></filter><mask id="e"><g filter="url(#a)"><path fill-opacity=".6" d="M0 0h250v250H0z"/></g></mask><linearGradient id="f" x1="491.357" x2="465.534" y1="473.116" y2="509.661" gradientTransform="scale(.24414 .32552)" gradientUnits="userSpaceOnUse"><stop offset="0" stop-color="#78005b"/><stop offset=".348" stop-color="#7a025a" stop-opacity=".652"/><stop offset=".51" stop-color="#820955" stop-opacity=".49"/><stop offset=".633" stop-color="#8e154e" stop-opacity=".367"/><stop offset=".737" stop-color="#a12643" stop-opacity=".263"/><stop offset=".828" stop-color="#b83c36" stop-opacity=".172"/><stop offset=".911" stop-color="#d65725" stop-opacity=".089"/><stop offset=".986" stop-color="#f87711" stop-opacity=".014"/><stop offset="1" stop-color="#ff7e0d" stop-opacity="0"/></linearGradient><clipPath id="d"><path d="M0 0h250v250H0z"/></clipPath><mask id="h"><g filter="url(#a)"><path fill-opacity=".6" d="M0 0h250v250H0z"/></g></mask><linearGradient id="i" x1="9335.275" x2="9359.581" y1="506.941" y2="471.983" gradientTransform="matrix(-.24414 0 0 .32552 2414.484 0)" gradientUnits="userSpaceOnUse"><stop offset="0" stop-color="#ff7e0d" stop-opacity="0"/><stop offset=".009" stop-color="#f97811" stop-opacity=".013"/><stop offset=".065" stop-color="#d65825" stop-opacity=".089"/><stop offset=".127" stop-color="#b93d36" stop-opacity=".173"/><stop offset=".195" stop-color="#a12643" stop-opacity=".266"/><stop offset=".272" stop-color="#8f154e" stop-opacity=".371"/><stop offset=".363" stop-color="#820955" stop-opacity=".495"/><stop offset=".482" stop-color="#7a025a" stop-opacity=".657"/><stop offset=".734" stop-color="#78005b"/></linearGradient><clipPath id="g"><path d="M0 0h250v250H0z"/></clipPath><mask id="k"><g filter="url(#a)"><path fill-opacity=".6" d="M0 0h250v250H0z"/></g></mask><linearGradient id="l" x1="492.201" x2="511.854" y1="472.93" y2="444.662" gradientTransform="scale(.24414 .32552)" gradientUnits="userSpaceOnUse"><stop offset="0" stop-color="#ff7e0d" stop-opacity="0"/><stop offset=".013" stop-color="#f97910" stop-opacity=".019"/><stop offset=".114" stop-color="#d25427" stop-opacity=".166"/><stop offset=".219" stop-color="#b1363a" stop-opacity=".318"/><stop offset=".326" stop-color="#981e48" stop-opacity=".473"/><stop offset=".438" stop-color="#860d53" stop-opacity=".634"/><stop offset=".555" stop-color="#7b0359" stop-opacity=".805"/><stop offset=".69" stop-color="#78005b"/></linearGradient><clipPath id="j"><path d="M0 0h250v250H0z"/></clipPath><linearGradient id="b"><stop offset="0" stop-color="#ff4630" stop-opacity="0"/><stop offset=".572" stop-color="#b31f48" stop-opacity=".572"/><stop offset="1" stop-color="#78005b"/></linearGradient><linearGradient xlink:href="#b" id="m" x1="433.951" x2="477.684" y1="331.151" y2="287.418" gradientTransform="scale(.24414 .32552)" gradientUnits="userSpaceOnUse"/><linearGradient xlink:href="#b" id="n" x1="480.205" x2="509.335" y1="360.242" y2="331.112" gradientTransform="scale(.24414 .32552)" gradientUnits="userSpaceOnUse"/><linearGradient xlink:href="#b" id="o" x1="512.804" x2="542.03" y1="315.682" y2="286.456" gradientTransform="scale(.24414 .32552)" gradientUnits="userSpaceOnUse"/><path d="M-.3.273h250.144v250.145H-.301zm0 0"/><path fill="url(#c)" d="M165.531 117.164 146.695 82.79c-1.402-2.562-3.57-4.031-5.949-4.031s-4.547 1.469-5.95 4.031l-2.046 3.742-2.05-3.742c-1.403-2.562-3.571-4.031-5.95-4.031-2.375 0-4.547 1.469-5.95 4.031l-2.023 3.695-2.023-3.695c-1.402-2.562-3.574-4.031-5.95-4.031-2.378 0-4.55 1.469-5.949 4.031L84.02 117.164c-2.684 4.895-2.684 11.465 0 16.36l18.835 34.374c1.403 2.559 3.57 4.028 5.95 4.028 2.375 0 4.547-1.469 5.949-4.028l10.023-18.296 2.067 3.777.023.039 7.934 14.48c1.406 2.559 3.574 4.028 5.949 4.028 2.379 0 4.55-1.469 5.953-4.028l18.836-34.375c2.672-4.894 2.672-11.464-.008-16.359zm-43.73-31.45c.695-1.265 1.77-1.995 2.945-1.995 1.176 0 2.25.726 2.945 1.996l2.746 5.02-5.667 10.347-5.696-10.394zm-10.059 79.255c-.691 1.27-1.765 1.996-2.945 1.996-1.176 0-2.25-.723-2.942-1.992l-18.835-34.38c-1.723-3.14-1.723-7.359 0-10.5l18.835-34.374c.692-1.266 1.766-1.996 2.942-1.996 1.18 0 2.254.726 2.945 1.996l2.727 4.976-14.508 26.473c-2.68 4.89-2.68 11.465.004 16.367l1.105 1.996v-.004l9.727 17.856c1.238 2.258 3.074 3.668 5.121 3.969zm7.953-14.512-.004-.004c-.691 1.266-1.765 1.996-2.941 1.996-1.18 0-2.254-.726-2.945-1.992l-9.996-18.355h-.004l-.836-1.508c-1.723-3.14-1.723-7.364 0-10.504l13.804-25.195 5.696 10.394-6.508 11.875c-2.68 4.895-2.68 11.465 0 16.36l6.508 11.874zm5.078-40.957 5.805 10.594c1.723 3.14 1.723 7.36 0 10.5l-5.805 10.597-5.804-10.597c-1.723-3.14-1.723-7.36 0-10.5zm8.813 24.023c2.68-4.894 2.68-11.464 0-16.359l-6.508-11.875 5.672-10.348 13.781 25.153c1.719 3.14 1.719 7.36-.008 10.52l-2.207 4.09-8.578 15.753c-.695 1.266-1.77 1.992-2.945 1.992-1.164 0-2.227-.71-2.922-1.953l-2.793-5.094zm28.941-2.93-18.836 34.376c-.691 1.27-1.77 1.996-2.945 1.996-1.176 0-2.25-.727-2.941-1.996l-4.18-7.621c2.047-.305 3.879-1.711 5.121-3.973l7.371-13.535.008.008 1.207-2.243 1.41-2.59-.008-.007.801-1.485c2.68-4.894 2.68-11.464 0-16.359l-14.484-26.43 2.75-5.015c.691-1.266 1.765-1.996 2.945-1.996 1.176 0 2.25.726 2.941 1.996l18.836 34.375c1.727 3.136 1.727 7.36.004 10.5zm0 0"/><g clip-path="url(#d)" mask="url(#e)"><path fill="url(#f)" d="M116.75 157.41c-.29 0-.57-.023-.848-.066l-4.043 7.43 3.047 2.874 7.395-13.539c-1.395 2.106-3.414 3.301-5.551 3.301zm0 0"/></g><g clip-path="url(#g)" mask="url(#h)"><path fill="url(#i)" d="M132.773 157.41c.286 0 .567-.023.844-.066l4.047 7.43-3.05 2.874-7.356-13.523c1.394 2.102 3.375 3.285 5.515 3.285zm0 0"/></g><g clip-path="url(#j)" mask="url(#k)"><path fill="url(#l)" d="m122.438 145.363 2.351 4.282-3.574 6.398-2.352-4.16zm0 0"/></g><path fill="url(#m)" d="m114.469 90.688 2.312 4.242-8.37 15.332-2.93-3.082zm0 0"/><path fill="url(#n)" d="m122.473 105.281 2.289 4.242-5.34 9.836-2.926-3.082zm0 0"/><path fill="url(#o)" d="m130.445 90.73 2.301 4.22-5.66 10.331-2.313-4.215zm0 0"/></svg>