<svg height="250" viewBox="0 0 250 250" width="250" xmlns="http://www.w3.org/2000/svg" xmlns:xlink="http://www.w3.org/1999/xlink"><linearGradient id="a" gradientUnits="userSpaceOnUse" x1="0" x2="250.000384" y1="250.000384" y2="0"><stop offset="0" stop-color="#4629a7"/><stop offset="1" stop-color="#3e89bc"/></linearGradient><path d="m0 0h250v250h-250z" fill="url(#a)"/><g fill="#fff"><path d="m58.140625 150.996094c4.585937-1.394532 9.058594-1.316406 13.453125.46875 4.398438 1.785156 7.667969 4.847656 9.921875 8.921875h6.453125c7.488281-13.855469 27.246094-13.769531 34.636719 0h6.40625c.101562-.160157.253906-.40625.402343-.652344 3.34375-5.496094 8.183594-8.871094 14.570313-9.539063 8.082031-.847656 14.449219 2.300782 18.890625 9.128907.601562.921875 1.109375 1.246093 2.210938 1.074219 1.171874-.179688 2.390624-.039063 3.585937-.015626.433594.007813.867187.078126 1.242187.113282 5.175782-8.402344 12.53125-11.722656 22.269532-9.949219.085937-.203125.207031-.457031.292968-.726563 1.417969-4.378906 2.398438-8.851562 2.894532-13.429687.507812-4.671875.417968-9.34375.199218-14.023437-.15625-3.273438-.433593-6.535157-.9375-9.773438-.28125-1.816406-.648437-3.621094-.976562-5.433594-.042969-.230468-.117188-.453125-.144531-.6875-.058594-.503906.160156-.855468.570312-.945312.410157-.089844.761719.121094.933594.605468.105469.304688.164063.621094.230469.9375.667968 3.085938 1.121094 6.207032 1.445312 9.351563.453125 4.398437.679688 8.804687.648438 13.222656-.042969 7.101563-1.140625 14.042969-3.414063 20.765625-5.335937 15.777344-15.144531 28.082032-29.085937 37.097656-8.304688 5.375-17.382813 8.804688-27.132813 10.476563-5.273437.902344-10.578125 1.257813-15.90625.972656-17.839843-.953125-33.425781-7.386719-46.601562-19.476562-8.972657-8.234375-15.414063-18.140625-19.167969-29.75-1.535156-4.742188-2.496094-9.605469-2.941406-14.578125-.4375-4.914063-.324219-9.8125.175781-14.710938.628906-6.167968 2.128906-12.136718 3.941406-18.039062.066407-.222656.140625-.453125.261719-.648438.179688-.300781.460938-.457031.820312-.355468.382813.109374.601563.375.566407.777343-.023438.257813-.101563.515625-.179688.765625-1.1875 3.914063-2.261719 7.859375-3.023437 11.882813-.964844 5.109375-1.3125 10.257812-1.242188 15.449219.09375 6.75 1.230469 13.316406 3.355469 19.714843.109375.328125.238281.644531.375 1.007813zm63.011719 30.34375c-3.785156-6.125-9.101563-9.410156-16.175782-9.296875-6.8125.105469-11.917968 3.382812-15.542968 9.300781.730468.226562 1.324218.40625 1.910156.585938 3.351562-5.109376 7.925781-7.945313 14.007812-7.925782 6.074219.019532 10.625 2.902344 13.894532 7.929688.625-.195313 1.175781-.367188 1.90625-.59375zm20.488281 10.28125c-1.617187-2.835938-3.703125-5.027344-6.367187-6.671875-3.429688-2.117188-7.171876-2.953125-11.160157-2.59375-3.839843.34375-7.234375 1.816406-10.152343 4.347656-1.589844 1.382813-2.929688 2.96875-3.949219 4.925781.707031.207032 1.285156.378906 1.84375.542969 6.332031-10.476563 21.378906-10.644531 27.90625 0 .566406-.167969 1.144531-.335937 1.878906-.550781zm-20.582031-30.761719c-2.511719-4.875-8.292969-9.523437-15.992188-9.359375-6.84375.148438-11.992187 3.367188-15.632812 9.328125.730468.21875 1.324218.398437 1.910156.578125 3.332031-5.082031 7.890625-7.921875 13.925781-7.929688 6.070313-.003906 10.652344 2.84375 13.960938 7.921876.597656-.179688 1.175781-.347657 1.828125-.539063zm9.382812 20.488281c.726563.214844 1.328125.394532 1.914063.566406 3.324219-5.074218 7.875-7.902343 13.921875-7.910156 6.082031-.007812 10.648437 2.855469 13.96875 7.925782.605468-.191407 1.195312-.378907 1.800781-.570313-2.546875-4.953125-8.53125-9.652344-16.347656-9.328125-6.699219.273438-11.722657 3.488281-15.257813 9.316406zm11.113282-10.226562c-2.253907-4.613282-8.496094-10.058594-17.359376-9.300782-3.902343.335938-7.34375 1.839844-10.304687 4.417969-1.777344 1.554688-3.5 3.800781-3.742187 4.90625.574218.171875 1.152343.347657 1.707031.519531 6.414062-10.546874 21.445312-10.601562 27.90625-.011718.566406-.167969 1.144531-.339844 1.792969-.53125zm20.4375-10.269532c-1.808594-5.0625-9.597657-9.597656-15.992188-9.378906-4 .136719-7.628906 1.347656-10.796875 3.824219-1.921875 1.5-3.515625 3.285156-4.695313 5.53125.539063.175781.976563.324219 1.417969.457031.132813.039063.28125.042969.457031.070313 3.277344-5.042969 7.859376-7.886719 13.921876-7.878907 6.066406.003907 10.640624 2.863282 13.9375 7.9375.609374-.195312 1.179687-.378906 1.75-.5625zm-92.824219 9.792969c.402343.832031 1.070312.839844 1.675781 1.007813 3.304688-5.097656 7.902344-7.929688 13.972656-7.917969 6.058594.011719 10.644532 2.882813 13.902344 7.929687.335938-.101562.613281-.183593.890625-.269531.296875-.09375.59375-.191406 1.003906-.320312-3.390625-5.601563-8.191406-8.863281-14.640625-9.246094-7.300781-.441406-12.847656 2.722656-16.804687 8.816406zm112.664062-.742187c-2.851562-4.679688-9.085937-8.820313-16.816406-8.066406-3.707031.359374-7.007813 1.769531-9.859375 4.179687-1.679688 1.421875-3.074219 3.074219-4.144531 5.09375.695312.203125 1.277343.375 1.867187.550781 3.253906-5.03125 7.789063-7.871094 13.78125-7.925781 5.976563-.054687 10.574219 2.683594 13.945313 7.679687.4375-.539062.816406-1.007812 1.226562-1.511718zm-84.636719 2.382812c-1.734374-3.519531-6.691406-7.335937-12.878906-7.113281-5.03125.183594-10.933594 3.738281-11.914062 7.109375.113281.070312.234375.152344.359375.21875.386719.199219.777343.390625 1.207031.609375 2.617188-3.8125 6.167969-5.960937 10.828125-5.953125 4.652344.003906 8.1875 2.171875 10.796875 5.957031.582031-.300781 1.09375-.566406 1.601562-.828125zm61.550782-10.277344c-2.0625-4.300781-7.667969-7.332031-13.3125-7.039062-5.042969.257812-8.875 2.71875-11.683594 7 .648438.316406 1.1875.578125 1.75.855469 2.652344-3.824219 6.203125-5.941407 10.824219-5.929688 4.613281.007813 8.152343 2.148438 10.753906 5.917969.195313-.078125.332031-.121094.457031-.1875.390625-.191406.777344-.394531 1.210938-.617188zm20.609375 10.21875c-2.941407-4.472656-6.980469-6.929687-12.226563-7.03125-5.507812-.105468-9.761718 2.347657-12.804687 6.9375.121093.125.167969.207032.238281.246094.464844.238282.933594.472656 1.441406.726563 2.632813-3.800781 6.179688-5.960938 10.84375-5.949219 4.652344.011719 8.1875 2.1875 10.785156 5.953125.578126-.296875 1.070313-.550781 1.722657-.882813zm-61.601563-10.226562c-2.261718-4.421875-7.71875-7.355469-13.40625-7.03125-5 .289062-8.808594 2.742188-11.597656 6.996094.632812.316406 1.167969.585937 1.738281.871094 2.644531-3.8125 6.183594-5.945313 10.796875-5.941407 4.648438 0 8.207032 2.152344 10.820313 5.960938.574219-.296875 1.089843-.5625 1.648437-.855469zm17.746094 21.355469c2.632812-3.839844 6.195312-5.949219 10.796875-5.949219 4.628906.003906 8.199219 2.152344 10.8125 5.96875.59375-.308594 1.101563-.574219 1.613281-.835938-1.417968-3.023437-6.199218-7.105468-12.429687-7.105468-6.136719-.003906-10.960938 4.007812-12.414063 7.078125.117188.074219.234375.15625.363282.222656.386718.195313.777343.386719 1.257812.621094zm-20.496094-10.242188c2.640625-3.820312 6.171875-5.957031 10.800782-5.957031 4.660156-.003906 8.203124 2.160156 10.820312 5.953125.589844-.3125 1.117188-.59375 1.730469-.917969-3.199219-4.738281-7.539063-7.203125-13.15625-6.988281-5.128907.199219-9.074219 2.644531-11.914063 7.023437.617188.320313 1.128906.585938 1.71875.886719zm23.253906 19.671875c-2.046874-3.863281-7.128906-7.398437-13.183593-7.082031-4.890625.257813-10.632813 3.777344-11.652344 7.113281.351563.1875.714844.375 1.074219.558594.152344.082031.308594.148438.515625.246094 2.597656-3.777344 6.117187-5.921875 10.742187-5.941406 4.664063-.019532 8.210938 2.125 10.863282 5.941406.570312-.289063 1.105468-.5625 1.640624-.835938zm-43.761718-9.417968c2.644531-3.863282 6.21875-5.964844 10.824218-5.957032 4.601563.003906 8.160157 2.140625 10.785157 5.96875.578125-.304687 1.105469-.582031 1.734375-.910156-3.324219-4.90625-7.808594-7.265625-13.65625-6.988281-4.457032.207031-10.066406 3.683593-11.277344 7.03125.105469.078125.21875.171875.34375.234375.382812.199218.773438.386718 1.246094.621094zm-35.148438-29.160157c3.667969-1.097656 7.199219-1.015625 10.671875.3125 3.503907 1.34375 6.175781 3.699219 8.160157 6.894531.648437-.199218 1.21875-.375 1.898437-.589843-2.308594-3.980469-5.5-6.753907-9.730469-8.269531-3.851562-1.382813-7.738281-1.433594-11.71875-.136719.253906.628906.464844 1.164062.71875 1.789062zm132.339844-2.101562c-7.425781-2.136719-16.457031 1.519531-20.09375 8.753906.609375.183594 1.210938.359375 1.773438.53125 4.292968-6.351563 10.136718-8.867187 17.644531-7.589844.222656-.5625.433593-1.09375.675781-1.695312zm-76.851562 32.050781c-2.476563-3.644531-5.835938-5.449219-10.140626-5.28125-4.617187.183594-8.027343 3.34375-8.820312 5.378906.460938.347656.9375.703125 1.425781 1.078125 1.96875-2.894531 4.5625-4.496093 7.996094-4.492187 3.460937 0 6.0625 1.636718 7.988281 4.492187.515625-.390625.976563-.742187 1.550782-1.175781zm2.992187-9.078125c1.910156-2.898437 4.542969-4.503906 7.992187-4.503906 3.449219-.003907 6.070313 1.632812 7.972657 4.476562.296875-.222656.535156-.394531.761719-.574219.25-.191406.488281-.386718.722656-.574218-1.617188-2.878906-5.519532-5.773438-10.710938-5.246094-3.621094.367188-7.1875 2.90625-8.175781 5.339844.453125.339844.914063.6875 1.4375 1.082031zm20.472656 10.230469c.1875-.242188.292969-.378906.398438-.519532 3.886719-5.308593 11.246093-5.3125 15.179687-.007812.128906.175781.296875.328125.457032.5.292968-.214844.527343-.386719.761718-.5625.226563-.175781.449219-.355469.730469-.578125-2.417969-3.566406-5.714844-5.371094-9.957031-5.273437-4.625.109374-8.105469 3.21875-9 5.363281.449218.339843.910156.683593 1.429687 1.078125zm37.980469-11.351563c-1.570312-3.269531-5.824219-5.535156-10.164062-5.308593-3.808594.199218-6.714844 2.050781-8.835938 5.246093.3125.242188.539062.429688.773438.601563.246093.183594.503906.355468.761718.53125 3.667969-5.75 12.09375-6.125 16.035156.003906.464844-.351562.929688-.699219 1.429688-1.074219zm-62.960938-9.167969c.492188-.386718.980469-.765624 1.507813-1.175781-2.414063-3.527343-5.660156-5.359375-9.832031-5.257812-3.945313.097656-7 1.917969-9.234375 5.277343.558593.421876 1.035156.785157 1.515625 1.148438 3.789062-5.859375 12.058594-6.0625 16.042968.007812zm22.007813 29.582032c-2.4375-3.542969-5.71875-5.378906-10.015625-5.210938-3.898438.15625-6.847656 2-9.046875 5.257813.570313.425781 1.050781.785156 1.535156 1.148437 3.695313-5.785156 12.027344-6.136718 16.027344-.027344.347656-.257812.695313-.515624 1.039063-.777343.136718-.101563.261718-.21875.460937-.390625zm20.507813-30.730469c-2.363282-3.511719-5.578126-5.34375-9.699219-5.289063-4 .050782-7.117188 1.882813-9.378907 5.277344.566407.417969 1.046876.769532 1.5625 1.148438 1.957032-2.867188 4.558594-4.46875 7.976563-4.464844 3.449219 0 6.058594 1.636719 7.992187 4.5.519532-.398438.980469-.742188 1.546876-1.171875zm-79.050782 11.429687c1.941406-2.898437 4.570313-4.503906 8.027344-4.496093 3.441406.003906 6.050781 1.648437 7.96875 4.503906.546875-.4375 1.015625-.808594 1.527344-1.21875-2.558594-3.679687-5.964844-5.5-10.355469-5.210937-3.734375.25-6.601563 2.070312-8.703125 5.246093.542969.417969 1.019531.78125 1.535156 1.175781zm4.671875 7.625c.542969.414063 1.027344.765626 1.492188 1.144532.386719.308594.800781.398437 1.296875.398437.960937.007813 1.9375.015625 2.878906.167969 4.753906.765625 8.46875 3.164062 11.15625 7.164062.125.191407.265625.375.421875.601563.320313-.089844.625-.171875.929687-.265625.292969-.089844.585938-.191406.890626-.289062-3.785157-7.273438-12.464844-10.539063-19.066407-8.921876zm69.640625 8.941407c.308594.097656.605469.199219.902344.285156.800781.234375.910156.1875 1.386719-.472656.378906-.519531.746093-1.050781 1.164062-1.535157 3.046875-3.515624 6.90625-5.382812 11.539063-5.679687 1.046875-.066406 2.273437-.808594 2.933594-1.734375-6.90625-1.246094-14.914063 2.878906-17.925782 9.136719zm-69.511718-10.621094c.304687-.019531.59375-.042969.878906-.050781 1.339844-.035156 2.703125-.230469 4.011718-.042969 1.15625.171875 1.765626-.109375 2.257813-1.125.253906-.523437.34375-.945313.148437-1.476563-.609374-1.636718-2.15625-2.792968-3.855468-2.847656-1.921875-.070312-3.527344.925782-4.261719 2.621094-.273437.621094-.390625 1.195312.117187 1.78125.277344.324219.457032.734375.703126 1.140625zm88.421874-.023437c.289063-.472657.558594-.953126.871094-1.40625.21875-.320313.234375-.617188.125-.988282-.492187-1.664062-1.976562-2.949218-3.644531-3.113281-1.898437-.191406-3.585937.703125-4.429687 2.339844-.390626.746093-.578126 1.472656.074218 2.179687.117188.128906.207032.289063.269532.449219.191406.5.542968.613281 1.039062.539063 1.683594-.253907 3.371094-.238282 5.058594-.003907.199218.027344.40625.003907.636718.003907zm-47.449218-.074219h6.453125c.222656-.363281.476562-.820313.78125-1.246094.300781-.425781.296875-.84375.128906-1.316406-.617187-1.738281-2.21875-2.882813-4.074219-2.890625-1.867187-.007813-3.488281 1.109375-4.132812 2.820312-.214844.558594-.214844 1.046875.171875 1.542969.265625.34375.460937.742187.671875 1.089844zm-14.019532 10.246093c.214844-.347656.464844-.8125.769532-1.234374.273437-.375.273437-.746094.15625-1.160157-.515625-1.773437-2.363282-3.113281-4.242188-3.074219-1.957031.039063-3.722656 1.433594-4.144531 3.296876-.046875.207031-.046875.476562.050781.65625.300782.5625.660156 1.089843.921875 1.515624zm34.640626.167969c2.121093-.386719 4.210937-.308593 6.28125-.027343.339843-.558594.675781-1.039063.933593-1.558594.117188-.234375.15625-.566406.09375-.820313-.433593-1.820312-2.179687-3.175781-4.105469-3.230469-1.886718-.050781-3.699218 1.253907-4.246093 3.054688-.105469.34375-.152344.667969.066406 1 .320313.484375.609375.988281.976563 1.582031zm-41.035157-20.527343c2.136719-.351563 4.199219-.320313 6.300781-.007813.285157-.460937.539063-.917969.839844-1.347656.300782-.429688.285156-.863281.128906-1.328125-.605468-1.8125-2.355468-2.988282-4.339843-2.90625-1.917969.082031-3.558594 1.402344-3.988281 3.238281-.054688.230469-.03125.527344.074218.734375.28125.539062.628906 1.042969.984375 1.617188zm47.332031-.054688c.3125-.507812.671876-1.035156.960938-1.601562.105469-.203126.113281-.511719.054688-.746094-.4375-1.832032-2.167969-3.15625-4.117188-3.1875-1.972656-.03125-3.71875 1.199218-4.230469 3.03125-.078125.28125-.078125.65625.042969.910156.277344.570312.652344 1.09375.960938 1.59375 1.09375-.074219 2.109374-.203125 3.125-.203125 1.042968 0 2.085937.125 3.203124.203125zm-88.753906-13.4375c6.058594-1.296875 10.800782.542969 14.355469 5.523438.285156-.140626.542969-.265626.796875-.402344.277344-.144532.542969-.296875.886719-.484375-2.003907-3.171875-4.6875-5.289063-8.175781-6.371094-2.847657-.886719-5.707032-.902344-8.617188-.003906.113281.300781.175781.492187.257812.675781.148438.34375.316407.679688.496094 1.0625zm115.796875 5.539062c3.207031-4.640624 7.613281-6.523437 13.128907-5.824218.257812-.609375.484374-1.136719.710937-1.675782-4.84375-1.472656-12.308594.820313-15.472656 6.652344.53125.277344 1.066406.550782 1.632812.847656zm-97.195312 14.789063c1.191406-2.34375 2.945312-3.644531 5.484375-3.640625 2.53125 0 4.242187 1.378906 5.4375 3.59375.503906-.546875.933594-1.011719 1.382812-1.5-1.59375-2.6875-3.914062-4.097656-6.957031-4.0625-2.960937.035156-5.21875 1.445312-6.742187 4.066406.460937.511719.886718.984375 1.394531 1.542969zm61.535156 10.210937c1.152344-2.292968 2.929687-3.59375 5.441406-3.597656 2.535157-.003906 4.292969 1.363282 5.457031 3.621094.335938-.371094.589844-.648438.84375-.929688.566407-.621093.566407-.621093.082032-1.320312-3.058594-4.460938-9.800782-4.433594-12.820313.054688-.140625.210937-.25.445312-.382812.6875.46875.503906.898437.964843 1.378906 1.484374zm32.808594-11.765624c-1.636719-2.679688-3.941407-4.101563-6.988281-4.050782-2.960938.046875-5.195313 1.472656-6.722657 4.066406.488281.53125.925781 1.003907 1.398438 1.511719 2.15625-4.550781 8.371093-5.0625 10.949219-.03125.4375-.484375.867187-.949219 1.363281-1.496093zm-73.835938 11.800781c1.160157-2.289063 2.917969-3.625 5.433594-3.632813 2.550781-.011718 4.320313 1.347656 5.488281 3.628906.511719-.5625.933594-1.035156 1.398438-1.546874-1.703125-2.742188-4.085938-4.179688-7.308594-4.011719-2.847656.144531-4.933594 1.5625-6.398438 4.027343.46875.519532.894532.992188 1.386719 1.535157zm41.019531-20.542969c1.207032-2.339844 2.972657-3.617188 5.503907-3.601562 2.523437.015624 4.230469 1.382812 5.398437 3.621093.496094-.550781.917969-1.023437 1.382813-1.542969-1.566407-2.585937-3.773438-4-6.761719-4.03125-3.058594-.03125-5.328125 1.386719-6.925781 4.019532.476562.515625.902343.984375 1.402343 1.535156zm-8.246093 8.769531c-1.15625-2.414062-3.992188-4.253906-7.105469-4.085937-2.890625.152344-5.058594 1.550781-6.542969 4.070312.5.542969.925781 1.007813 1.398438 1.527344 1.164062-2.285156 2.898437-3.613281 5.4375-3.625 2.558593-.011719 4.300781 1.359375 5.472656 3.597656.488281-.539062.894531-.996094 1.339844-1.484375zm-32.773438-8.761719c1.167969-2.261718 2.90625-3.601562 5.4375-3.609374 2.5625-.007813 4.308594 1.359374 5.496094 3.613281.503906-.5625.929687-1.03125 1.382813-1.535157-1.703126-2.761718-4.09375-4.191406-7.3125-4.023437-2.835938.148437-4.933594 1.566406-6.394532 4.035156.472656.523438.902344.988281 1.390625 1.519531zm19.148438 29.226563c.832031.980469 1.578125.992187 2.277343.125 2.359376-2.917969 6.628907-2.933594 9.074219-.035156.65625.777343 1.574219.746093 2.292969-.132813-1.519531-2.535156-3.757812-3.949218-6.722656-3.980468-3.039063-.03125-5.339844 1.378906-6.921875 4.023437zm-1.933594.457031c-4.003906-3.976562-11.347656-5.503906-16.277344-3.804687 1.007813.34375 1.875.632812 2.742188.929687.722656.25 1.457031.367188 2.230469.363282 2.074218-.007813 4.089843.402343 5.9375 1.320312 1.65625.824219 3.429687.84375 5.367187 1.191406zm-55.554687-38.246094c.445312 1.09375.515624 1.210938.972656 1.640626 4.160156-.578126 7.390625.890624 9.785156 4.375.507812-.390626.988281-.753907 1.453125-1.109376-2.15625-4.144531-7.992187-6.367187-12.210937-4.90625zm73.34375 37.824219c.011718.070313.023437.136719.035156.203125.414062-.054687.832031-.109375 1.246094-.171875 1.527343-.230469 3.035156-.488281 4.492187-1.078125 1.070313-.433594 2.242187-.640625 3.378906-.886718.792969-.171876 1.628907-.164063 2.414063-.367188 1.070312-.28125 2.113281-.679688 3.164062-1.035156.164063-.058594.308594-.167969.613282-.339844-5.832032-1.09375-10.871094.15625-15.34375 3.675781zm54.078124-38.074219c-4.011718-.851562-9.109374 1.445313-11.046874 5.148438.464843.359375.941406.726562 1.457031 1.121094.195312-.253906.351562-.460938.503906-.667969 1.351563-1.828125 3.121094-3.058594 5.339844-3.574219.757812-.175781 1.554687-.195312 2.339843-.265625.265626-.023437.519532-.011719.664063-.304687.226563-.460938.464844-.921875.742187-1.457032zm-125.757812 3.421876c.222656.394531.4375.707031.589844 1.046874.242187.546876.652344.726563 1.230468.789063 1.863282.203125 3.261719 1.171875 4.257813 2.742187.152344.238282.292969.488282.488281.816407.492188-.542969.929688-1.023438 1.339844-1.476563-1.351562-2.890625-5.132812-4.640625-7.90625-3.917968zm123.980469-.074219c-2.394531-.3125-5.496094 1.59375-6.617188 4 .429688.464843.875.941406 1.371094 1.476562.855469-1.738281 2.066406-2.886719 3.820313-3.421875.171874-.054687.339843-.230468.445312-.394531.328125-.507813.621094-1.042969.980469-1.660156zm-101.003907 23.988281c3.148438 2.167969 6.484376 3.972656 10.019532 5.40625-2.550782-3.257812-5.886719-5.078125-10.019532-5.40625zm-6.066406-4.523438c-1.972656-3.484374-4.667968-5.964843-8.265625-7.6875 1.019531 1.628907 7.003907 7.226563 8.265625 7.6875zm76.136719 9.050782c2.753906-1.191406 5.371094-2.621094 7.824219-4.347656-3.113282.542968-5.730469 1.980468-7.824219 4.347656zm-33.441406 7.003906c2.089843.128906 4.046875.109375 6.050781-.078125-1.226562-1.777344-4.816406-1.75-6.050781.078125zm-57.535157-31.996094c.992188 1.390625 1.929688 2.703125 3 4.210938.144532-.476563.324219-.746094.28125-.976563-.242187-1.425781-1.570312-3.050781-3.28125-3.234375zm107.574219 14.035156c1.554688-1.144531 3.851563-3.453124 4.160157-4.152343-1.667969 1.167969-3.042969 2.523437-4.160157 4.152343zm0 0"/><path d="m43.394531 89.382812c-.296875-.636718-.003906-1.195312.496094-1.71875 1.5625-1.632812 3.421875-2.832031 5.476563-3.726562 1.796874-.777344 3.621093-1.480469 5.570312-2.273438-1.101562-.164062-2.097656-.320312-3.097656-.457031-.640625-.089843-1.269532-.117187-1.902344.121094-.390625.144531-.800781.078125-1.128906-.074219-.339844-.875.320312-1.417968.585937-2.160156-.898437.152344-1.550781.542969-2.097656 1.136719-.175781.191406-.332031.414062-.535156.574219-.261719.199218-.570313.34375-.878907.085937-.273437-.226563-.367187-.535156-.246093-.871094.136719-.375.300781-.738281.507812-1.238281-1.023437.398438-1.734375.949219-2.261719 1.742188-.273437.414062-.519531.847656-.808593 1.253906-.378907.542968-.421875.554687-1.214844.738281-.566406-.585937-.171875-1.265625-.144531-2.019531-.664063.417968-1.0625.9375-1.386719 1.519531-.28125.515625-.539063 1.039063-.804687 1.558594-.226563.441406-.550782.746093-1.105469.828125-.488281-.449219-.425781-1.015625-.304688-1.597656.109375-.523438.199219-1.054688.226563-1.605469-.792969.816406-1.347656 1.765625-1.828125 2.753906-.191407.398437-.351563.804687-.546875 1.199219-.265625.53125-.339844.578125-1.035156.851562-.410157-.332031-.460938-.78125-.414063-1.261718.078125-.8125.160156-1.621094.257813-2.601563-.273438.226563-.433594.328125-.554688.464844-1.234375 1.382812-2.363281 2.832031-3 4.601562-.199219.554688-.617188.90625-1.164062 1.164063-.632813-.46875-.667969-1.121094-.597657-1.804688.058594-.59375.136719-1.1875.128907-1.804687-.613282.625-.988282 1.367187-1.300782 2.144531-.21875.542969-.425781 1.09375-.621094 1.640625-.207031.570313-.636718.875-1.164062 1.066406-.808594-.671875-.496094-1.582031-.609375-2.429687-.953125.621094-1.265625 1.902344-2.472656 2.175781-.496094-.527344-.40625-1.128906-.234375-1.671875.960937-3.039062 2.269531-5.902344 4.488281-8.25 1.183594-1.257812 2.429687-2.453125 3.648437-3.675781 1.058594-1.0625 2.257813-1.949219 3.566407-2.679688 3.285156-1.84375 6.722656-3.28125 10.484375-3.820312 2.65625-.382813 5.304687-.359375 7.941406.191406.160156.03125.328125.046875.703125.097656-.71875-.679687-1.328125-1.15625-2.027344-1.519531-.832031-.429688-1.675781-.828125-2.515625-1.242188-.625-.308593-.664062-.347656-1.054687-1.113281.753906-.917969 1.84375-.351562 2.835937-.597656-.898437-.953125-1.867187-1.671875-3.011718-2.148437-.835938-.347657-1.6875-.660157-2.519532-1.015626-.316406-.136718-.660156-.289062-.890625-.53125-.171875-.179687-.277343-.539062-.226562-.773437.042969-.183594.363281-.398437.585937-.425781.578125-.074219 1.164063-.054688 1.75-.078125.226563-.007813.453125-.023438.816406-.042969-.414062-.492188-.847656-.753906-1.300781-1-1.804687-.972656-3.664062-1.816406-5.601562-2.488281-.457031-.15625-.898438-.429688-1.265625-.742188-.394532-.335937-.21875-.839843.296875-.847656 1.136719-.019531 2.273437.03125 3.410156.070313.554687.019531 1.105469.082031 1.714844.128906.027343-.296875.050781-.546875.074219-.792969.535156-.398437 1.09375-.335937 1.660156-.097656 1.203125.507812 2.410156 1.019531 3.660156 1.546875.023438-.066406.050781-.167969.09375-.269532.234375-.535156.515625-.664062 1.023438-.425781.257812.125.492187.3125.726562.484375 1.273438.917969 2.386719 1.980469 3.078125 3.523438.085937-.199219.132813-.339844.207031-.464844.34375-.542969.800782-.570312 1.171875-.046875.164063.234375.265625.519531.378907.785156.644531 1.503907 1.28125 3.007813 1.96875 4.621094.191406-.292969.328124-.492187.472656-.714844.691406.179688 1.03125.644531 1.246094 1.253907.566406 1.628906 1.152343 3.25 1.734374 4.875.074219.203124.171876.398437.324219.757812.105469-.414062.175781-.65625.226563-.902344.667968-3.074218 1.953125-5.875 3.789062-8.417968 1.210938-1.683594 2.5-3.316407 3.769532-4.960938.226562-.292969.511718-.574219.832031-.761719.648437-.378906 1.152343-.074219 1.191406.675781.007813.167969-.046875.339844.035156.585938.199219-.222656.398438-.445312.59375-.671875 1.1875-1.382813 2.476563-2.65625 4.078125-3.5625.402344-.226563.84375-.402344 1.289063-.535156.375-.109375.78125-.070313 1.015625.308593.21875.351563.0625.679688-.167969.96875-.308594.390626-.628906.765626-.898437 1.257813.257812-.125.519531-.242187.765624-.382813 1.917969-1.113281 4.007813-1.585937 6.203126-1.667968 1.195312-.046875 2.394531-.15625 3.589843-.152344.507813 0 1.023438.1875 1.515625.355469.316406.109375.566406.398437.472656.75-.066406.25-.273437.527343-.492187.65625-.347656.199219-.757813.300781-1.152344.414062-1.402343.410157-2.808593.808594-4.210937 1.210938-.136719.039062-.269532.09375-.507813.179687.410157.164063.753907.234375 1.007813.421875.242187.175781.390625.480469.566406.710938-.300781.589843-.796875.667969-1.289062.730469-1.128907.140624-2.261719.261718-3.410157.503906.277344.078125.585938.105468.824219.25.230469.140625.523438.394531.527344.609375.007812.21875-.265625.480469-.476563.65625-.144531.121093-.378906.132812-.578125.175781-.964844.203125-1.929687.398438-3.042968.625.355468.183594.59375.269531.792968.410156.507813.363282.488282.863282-.050781 1.199219-.191406.117187-.429687.160156-.652344.230469-.664062.21875-1.328125.433594-2.035156.664062.484375.226563.910156.421875 1.382813.640625-.234376.613281-.652344.894531-1.125 1.132813-1.015626.5-2.03125 1.007812-3.039063 1.582031.644531.097656 1.347656-.128906 1.878906.484375-.089843.523438-.425781.847656-.867187 1.117188-.992188.605468-1.980469 1.226562-2.9375 2.003906.433594-.042969.875-.066406 1.308594-.132813.605468-.085937 1.164062-.03125 1.65625.441407-.148438.628906-.671876.886718-1.171876 1.191406-1.316406.816406-2.617187 1.65625-3.925781 2.488281-.09375.0625-.167969.152344-.203125.332031.238282-.105468.480469-.195312.707032-.3125 3.035156-1.542968 6.195312-2.757812 9.511718-3.539062 3.011719-.710938 6.011719-.652344 9.03125.046875 3.371094.785156 6.488282 2.152343 9.433594 3.917969 1.046875.625 2.011719 1.410156 2.933594 2.214843 1.183594 1.035157 2.042968 2.328125 2.550781 3.828125.566406 1.6875 1.238281 3.355469 1.625 5.085938.503906 2.253906.226563 4.539062-.222656 6.792968-.09375.457032-.179688.917969-.292969 1.371094-.140625.558594-.453125.863282-.847656.878906-.402344.015626-.871094-.34375-.96875-.871093-.164063-.890625-.257813-1.792969-.378906-2.691407-.101563-.769531-.191407-1.539062-.425782-2.308593-.128906.351562-.234375.714843-.390625 1.050781-.132812.289062-.273437.613281-.503906.800781-.191406.15625-.554687.234375-.78125.164063-.167969-.054688-.296875-.394532-.34375-.625-.050781-.25.023437-.523438.027344-.785156.003906-1.050782 0-2.097657-.082031-3.171876-.523438.742188-.582032 1.804688-1.691407 2.144532-.886719-1.414063-.417969-3.070313-.789062-4.570313-.367188.550781-.742188 1.121094-1.132813 1.679688-.117187.167969-.261718.320312-.421875.445312-.585937.472657-1.265625.21875-1.34375-.53125-.050781-.492187.007813-.992187.019531-1.492187.011719-.378906.035157-.757813.035157-1.136719-.003907-.292969-.039063-.582031-.152344-.902344-.277344.78125-.570313 1.554688-.832031 2.339844-.1875.574219-.578125.914063-1.136719 1.117187-.753906-.8125-.488281-1.824218-.640625-2.875-.199219.460938-.335938.804688-.496094 1.136719-.113281.234375-.222656.488281-.394531.679688-.40625.457031-.945313.375-1.179687-.1875-.109376-.261719-.125-.566407-.148438-.851563-.035156-.425781-.039062-.855468-.0625-1.503906-.746094 1.023438-.875 2.265625-2.132812 2.582031-.941407-.714843-.78125-1.914062-1.15625-3.007812-.128907.21875-.203126.339843-.269532.460937-.222656.398438-.484375.753906-1.003906.722656-.484375-.027343-.675781-.402343-.851562-.78125-.15625-.34375-.320313-.679687-.535157-1.128906-.191406.511719-.320312.921875-.5 1.304688-.46875 1.019531-1.0625 1.089844-1.757812.230468-.257813-.320312-.507813-.636718-.800781-1.003906-1.019532 1.183594-1.820313-.035156-2.765626-.214844-.445312.894532-1.359374.863282-2.320312 1.089844.351562.082032.558594.128906.769531.175782 1.144531.230468 2.296875.425781 3.429688.707031 1.921875.480469 3.847656.96875 5.679687 1.765625.605469.265625 1.074219.59375 1.007813 1.449218-.402344.09375-.832031.195313-1.328125.3125.367187.144532.683594.277344 1.007812.398438 1.628906.605469 3.121094 1.460938 4.527344 2.472656.296875.210938.535156.527344.726562.84375.09375.152344.015626.40625.015626.753906-.070313-.085937-.042969-.019531 0 0 2.234374.902344 4.078124 2.382813 5.890624 3.917969.476563.402344.746094.875.761719 1.601563-1.464843.277344-2.429687-.859375-3.753906-1.203125.171875.203125.292969.363281.429687.515625.792969.859375 1.65625 1.664062 2.359376 2.589844.519531.6875.941406 1.492187 1.214843 2.308593.535157 1.605469.960938 3.25 1.394531 4.890625.1875.710938.285157 1.449219-.3125 2.058594-.039062.039062-.101562.050781-.277343.140625-.304688-.296875-.644531-.625-1.023438-.992187.195313 2.335937-.050781 4.628906-.214843 6.921874-.027344.402344-.109376.808594-.230469 1.195313-.101563.316406-.328125.5625-.722657.5-.386718-.058594-.503906-.332031-.554687-.683594-.160156-1.128906-.328125-2.253906-.511719-3.378906-.363281-2.253906-.796875-4.492187-1.796875-6.574219-.074219-.148437-.152343-.296875-.308593-.617187-.109376.554687-.179688.9375-.265626 1.316406-.046874.226563-.0625.5-.199218.660156-.175782.199219-.457032.417969-.695313.414063-.234375 0-.515625-.222656-.691406-.421875-.136719-.160157-.160156-.433594-.210937-.660157-.417969-1.925781-1.179688-3.726562-2.039063-5.492187-.023437-.046875-.082031-.078125-.15625-.148437-.359375.882812.035156 2.066406-1.101563 2.640624-.484374-.246093-.679687-.703124-.777343-1.238281-.289063-1.558593-.84375-3.019531-1.699219-4.433593-.03125.4375-.0625.875-.089844 1.3125-.015625.234374-.007812.46875-.046875.699218-.058593.332032-.3125.535156-.617187.515625-.230469-.015625-.515625-.152343-.65625-.328125-.152344-.1875-.183594-.484375-.234375-.738281-.351563-1.710937-1.003907-3.292969-2.027344-4.71875-.085937-.117187-.171875-.234375-.265625-.347656-.03125-.035157-.097656-.042969-.246094-.109375 0 1.078125.011719 2.117187-.007812 3.152344-.003906.34375-.023438.714843-.15625 1.023437-.101563.234375-.394532.535156-.597656.53125-.261719-.003906-.613282-.226563-.757813-.457031-.195313-.304688-.265625-.707032-.320313-1.074219-.195312-1.355469-.800781-2.523437-1.589843-3.742187 0 .753906-.015625 1.382812.003906 2.011718.019531.613282-.125 1.148438-.621094 1.585938-.558593-.183594-.824219-.609375-1.074219-1.089844-.535156-1.035156-1.097656-2.058594-1.671874-3.074219-.148438-.261719-.390626-.476562-.585938-.710937-.066406.019531-.132812.035156-.199219.054687 0 .597657.019531 1.199219-.007812 1.796875-.015625.40625-.035157.832032-.167969 1.203125-.085938.234375-.355469.476563-.59375.554688-.339844.109375-.601562-.15625-.78125-.441407-.074219-.117187-.113281-.269531-.144531-.410156-.363281-1.539062-1.167969-2.859375-2.066407-4.128906-.355468-.503906-.699218-1.011719-1.046874-1.515625-.289063-.417969-.171876-.707031.289062-.890625.496094.15625.839844.5 1.121094.925781.632812.945313 1.273437 1.890625 2.042968 2.816407-.035156-.460938-.070312-.921876-.113281-1.386719-.019531-.203125-.082031-.402344-.078125-.605469.011719-.609375.484375-.902344 1.019532-.605469.25.140625.488281.332031.679687.546875.792969.890625 1.566406 1.796875 2.441406 2.800782-.0625-.371094-.132812-.660157-.148437-.949219-.03125-.53125-.304688-1.148438.335937-1.503907.453125-.25 1.03125.011719 1.542969.710938.414062.566406.746094 1.1875 1.109375 1.789062.191406.3125.367187.640626.679687.925782.039063-.390625.078126-.785156.117188-1.179688.035156-.355468.101562-.71875.5-.847656.40625-.128906.761719.035156 1.023438.339844.65625.75 1.292968 1.511718 1.933593 2.273437.09375.105469.167969.226563.308594.417969.117187-.355469.207031-.640625.308594-.953125.761719-.019531 1.34375.253906 1.6875.90625.410156.773437.78125 1.566406 1.15625 2.359375.210937.445312.394531.90625.636719 1.457031.128906-.167969.195312-.269531.273437-.359375.394531-.449218.851563-.476562 1.242187.054688.585938.796875 1.144532 1.625 1.613282 2.496094.476562.890624.832031 1.847656 1.289062 2.886718.371094-.871094-.179687-1.855468.660156-2.46875.554688.105469.785157.527344 1 .996094 1.050782 2.285156 2.066407 4.582031 2.558594 7.070312.019532.109376.066406.210938.152344.308594.164062-.914062.054688-1.824218-.074219-2.722656-.082031-.578125-.242187-1.148438-.28125-1.730469-.027343-.378906.101563-.773437.179688-1.273437.476562.179687.820312.308594 1.253906.472656-.554687-2.273438-1.386719-4.316406-3.171875-5.847656-1.175781-1.011719-2.363281-2.003906-3.558594-2.992188-.414062-.34375-.761718-.710937-.886718-1.285156.671874-.539062 1.386718-.273438 2.136718-.226562-.175781-.101563-.347656-.214844-.527344-.296876-1.390624-.613281-2.78125-1.234374-4.183593-1.816406-.574219-.234375-.988281-.59375-1.292969-1.257812.351562-.210938.710938-.425782 1.132812-.679688-.949218-.554687-1.941406-1.007812-2.972656-1.367187-.910156-.316407-1.832031-.601563-2.753906-.886719-.53125-.164062-.933594-.453125-1.160156-1.089844.386718-.234375.769531-.46875 1.140625-.695312-2.28125-.765625-4.601563-1.53125-7.089844-1.574219-.703125-.011719-1.402344-.109375-2.101563-.136719-.554687-.023437-.894531-.339844-1.25-.699218.375-.664063 1.0625-.769532 1.722657-1.191407-.675781-.09375-1.203125-.179687-1.738281-.234375-.433594-.046875-.820313-.15625-.9375-.636718-.085938-.355469.21875-.796876.765624-.933594.789063-.203125 1.597657-.34375 2.40625-.445313 1.546876-.191406 3.082032-.121093 4.742188.351563-.234375-.328125-.382812-.527344-.519531-.730469-.152344-.21875-.316407-.425781-.4375-.65625-.164063-.304687-.179688-.628906.085937-.890625.265625-.257812.582032-.246094.886719-.054688.320313.199219.628906.421876.949219.632813 1.035156.679687 1.96875 1.46875 2.636718 2.53125.058594.09375.148438.164063.285157.3125.316406-.625.246093-1.242187.304687-1.832031.039063-.40625.019532-.824219.113282-1.21875.070312-.300782.273437-.5625.433593-.871094 1.511719.601562 1.367188 2.207031 2.222657 3.335938.058593-.351563.132812-.613282.140624-.875.019532-.644532.019532-1.289063.007813-1.933594-.007813-.484375.089844-.921875.449219-1.324219.582031.132813.953125.464844 1.105468 1.070313.363282 1.472656.75 2.9375 1.160157 4.523437.109375-.230469.242187-.402344.28125-.59375.1875-.945313.355469-1.894531.519531-2.84375.085938-.476563.257812-.894531.699219-1.203125.480469.234375.71875.613281.804687 1.148438.152344.949218.347656 1.886718.550782 2.964843.421874-.777343.398437-1.519531.546874-2.21875.132813-.632812.121094-.636719.71875-1.222656 1.121094.90625.640626 2.34375 1.25 3.453125.0625-.523438.144532-1.042969.1875-1.566406.046876-.589844.09375-1.171875.605469-1.644532.519531.125.789063.527344 1.007813.976563.589844 1.199219.804687 2.496094.886718 3.816406.011719.226563 0 .449219 0 .859375.742188-1.148437.316407-2.566406 1.347657-3.390625.699219.425781.699219.425781 1.519531 3.046875.046875-.011718.113281-.007812.136719-.035156.570312-.691406 1.058593-.65625 1.40625.160156.328125.769532.574219 1.578125.882812 2.4375.179688-.308594.347657-.59375.535157-.921875.582031.269531.855468.75.992187 1.277344.289063 1.101563.511719 2.214844.753906 3.328125.0625.28125.078125.574219.128907.984375.316406-1.527344.214843-4.050781-.277344-5.6875-.339844-1.117187-.738282-2.21875-1.171875-3.304687-.742188-1.867188-1.9375-3.417969-3.601563-4.539063-1.210937-.8125-2.488281-1.535156-3.78125-2.210937-1.992187-1.042969-4.050781-1.921876-6.269531-2.441407-2.140625-.5-4.277344-.566406-6.445313-.402343-3.289062.246093-6.308593 1.457031-9.308593 2.6875-1.539063.628906-3 1.441406-4.5 2.171874-.621094.304688-1.226563.699219-2.015625.46875-.152344-.414062-.089844-.789062.089844-1.179687.515624-1.113281 1.242187-2.046875 2.253906-2.75.546875-.378906 1.105468-.75 1.835937-1.238281-.871093-.007813-1.574219.40625-2.25-.042969-.066406-.554687.183594-.941406.605469-1.265625.734375-.566406 1.457031-1.148438 2.3125-1.824219-1.078125.109375-1.863281.972657-2.902344.515625-.105468-.488281.050782-.882812.394532-1.1875.542968-.484375 1.109374-.949218 1.675781-1.40625.222656-.179687.46875-.328125.71875-.5-.460938-.070312-.875-.136718-1.292969-.199218-.054688-.671876.257812-1.027344.707031-1.289063 1.082031-.632813 2.175781-1.253906 3.265625-1.875.226563-.128906.464844-.238281.863282-.4375-1.046876.097656-1.90625.675781-2.792969.097656.089843-.621093.421875-1.03125.96875-1.273437.984375-.4375 1.964843-.878906 2.953125-1.320313-.171875-.101562-.414063-.25-.675782-.410156.117188-.53125.433594-.835937.890626-1.019531.863281-.347656 1.730468-.695313 2.597656-1.039063-.15625-.507812-.003906-.890625.5-1.167969.226562-.125.488281-.199218.734375-.277343 1.789062-.546875 3.582031-1.082031 5.371093-1.628907.332032-.101562.652344-.222656.863282-.296874-3.3125-.332032-6.253906.945312-9.027344 2.753906-.390625.257812-.773438.527344-1.171875.769531-.304687.183594-.640625.339844-.984375.109375-.382812-.253906-.363281-.632812-.257812-1.023438.019531-.078124.046874-.160156.121093-.421874-.273437.246093-.441406.371093-.574219.527343-.757812.894531-1.496093 1.796875-2.257812 2.6875-.265625.3125-.539062.628907-.855469.878907-.703125.550781-1.296875.292968-1.414062-.582032-.015625-.117187-.003907-.234375-.003907-.4375-.136718.089844-.242187.125-.300781.199219-1.976562 2.515625-3.738281 5.160156-4.8125 8.210937-.640625 1.804688-1.027343 3.648438-.980469 5.578126.03125 1.433593 0 2.867187.035157 4.300781.015625.730469-.289063 1.277343-.796875 1.800781-.5-.472656-.699219-1.015625-.695313-1.660156.015625-2.785156-.746093-5.421875-1.59375-8.179688-.035156.121094-.054687.152344-.058593.191406-.089844.464844-.289063.882813-.820313.863282-.492187-.019532-.632813-.453125-.730469-.867188-.457031-1.941406-1.273437-3.753906-2.027344-5.714844-.210937.296876-.359374.515626-.535156.765626-.554687-.257813-.902344-.648438-1.152344-1.167969-.613281-1.292969-1.246093-2.582031-1.878906-3.863281-.164062-.332032-.367187-.644532-.683594-.917969.015626.179687.042969.363281.042969.542969 0 .347656-.117187.644531-.457031.777343-.335938.128907-.554688-.085937-.753906-.308593-.507813-.566407-1.015625-1.132813-1.515625-1.707032-.535157-.609375-1.207031-.980468-2.035157-1.230468.035157.398437.070313.726562.101563 1.054687-.484375.253906-.902344.105469-1.304687-.058594-.460938-.183593-.902344-.421875-1.367188-.597656-.304688-.121094-.636719-.175781-1.007812-.125.308593.160156.605468.332031.917968.476563 1.699219.769531 3.164063 1.871093 4.535156 3.117187.433594.398437.71875.835937.664063 1.445313-.679687.175781-.679687.175781-1.785156-.078126.269531.1875.402343.285157.542969.378907.167968.113281.355468.203125.511718.332031.996094.816406 1.984375 1.640625 2.972656 2.464844.046876.035156.089844.074218.128907.117187.675781.726563.546875 1.179688-.425781 1.492188-.105469.03125-.199219.082031-.367188.15625.21875.167969.367188.300781.535156.410156 1.4375.929687 2.648438 2.113281 3.730469 3.433594.257813.316406.367187.75.566406 1.171875-.335937.179687-.554687.296875-.796875.425781.042969.078125.066406.15625.117188.214844.222656.230469.488281.429687.664062.6875.1875.28125.191406.628906-.082031.882812-.285156.261719-.59375.1875-.878906-.027343-.113281-.085938-.214844-.195313-.324219-.292969-1.84375-1.640625-3.996094-2.644531-6.4375-2.949219-1.730469-.214844-3.449219.042969-5.144531.355469-3.707031.683593-7.152344 2.101562-10.199219 4.273437-3.355469 2.394532-6.226562 5.3125-8.242188 8.980469-.109374.203125-.214843.414063-.3125.625-.015624.039063.015626.101563.039063.222656.5-.535156.796875-1.316406 1.757813-1.21875.101562.28125.214843.59375.320312.890625.8125-1.0625 1.613281-2.136718 2.4375-3.191406.460938-.585938.652344-.65625 1.433594-.703125.398437 1.15625-.363282 2.136719-.515625 3.332031.171875-.203125.28125-.335937.394531-.464844 1.222656-1.378906 2.445312-2.753906 3.671875-4.128906.308594-.347656.710937-.488281 1.160156-.484375.550781.644531.199219 1.34375.105469 2.203125.253906-.300781.402344-.453125.53125-.625.699219-.9375 1.390625-1.882812 2.101562-2.8125.3125-.410156.714844-.683594 1.308594-.550781.507813.851563-.105468 1.625-.226562 2.53125.582031-.257813.863281-.738281 1.242187-1.089844.429688-.398437.828125-.828125 1.238281-1.246093.390626-.398438.753907-.835938 1.429688-.761719.433594.429687.230469.945312.054688 1.601562 1.171874-.777343 2.226562-1.445312 3.242187-2.164062.511719-.363281 1.011719-.402344 1.570313-.210938.046874.015625.085937.074219.160156.144531.105468.601563-.308594 1.0625-.675782 1.730469.824219-.25 1.476563-.449219 2.132813-.644531.222656-.066406.457031-.195312.671875-.171875.273438.03125.636719.113281.765625.308594.121094.175781.054687.554687-.050781.796875-.136719.3125-.390625.574218-.59375.863281-.128906.183594-.246094.371094-.425782.644531 1.070313.148438 2.054688.230469 3.007813.4375 1.597656.351563 3.179687.761719 4.757813 1.199219.398437.105469.746093.398437 1.078124.582031-.09375.605469-.453124.804688-.859374.910156-.390626.109376-.804688.15625-1.203126.230469-3.398437.664063-6.734374 1.515625-9.730468 3.34375-.570313.347657-1.128906.714844-1.832032 1.160157.574219.117187 1 .203124 1.460938.296874-.101562.628907-.402344 1.023438-.878906 1.296876-.632813.367187-1.289063.695312-1.890625 1.105468-.71875.488282-1.386719 1.046875-2.074219 1.574219.03125.058594.0625.113281.089844.171875.261718-.070312.53125-.222656.78125-.199219.292968.027344.65625.132813.828125.335938.226562.273437.046875.640625-.21875.847656-.390625.300781-.8125.574219-1.25.808594-2.417969 1.304687-4.214844 3.214843-5.519531 5.609375-.058594.101562-.101563.210937-.144532.316406-.007812.023438.007813.058594.015625.148438.105469-.007813.207031-.019532.3125-.023438.085938-.003906.171875 0 .257813 0 .378906.527344.285156 1.046875.070312 1.585938-.859375 2.144531-1.65625 4.3125-2.117187 6.585937-.101563.5-.183594 1.003906-.179688 1.527344.101563-.269531.214844-.535157.304688-.808594.695312-2.148437 2.089843-3.90625 3.257812-5.792969.242188-.390625.65625-.554687 1.089844-.609375.621094.773438.253906 1.589844.273437 2.433594.164063-.226563.332032-.445313.484376-.679687 1.914062-2.941407 3.832031-5.882813 5.738281-8.828126.324219-.503906.6875-.9375 1.320312-1.128906.386719.496094.488281 1.035156.363281 1.644532-.277343 1.390624-.53125 2.789062-.738281 4.203124.921875-1.113281 1.660157-2.316406 2.195313-3.65625.671875-1.679687 1.402344-3.339843 2.105468-5.007812.035157-.082031.074219-.160156.109376-.238281.167968-.363281.378906-.679688.847656-.617188.359375.042969.605468.382813.625.9375.035156.730469.019531 1.464844.019531 2.195313.003906.808594 0 1.609375.132813 2.441406.113281-.222656.226562-.445312.339843-.667969 1.140625-2.304687 2.292969-4.605469 3.425781-6.917969.230469-.472656.523438-.835937 1.109376-.9375.523437.34375.5625.875.527343 1.445313-.070312 1.195313-.125 2.390625-.0625 3.652344.207031-.332031.441407-.644531.613281-.992188.511719-1.019531 1.007813-2.042969 1.496094-3.074219.242188-.515624.546875-.957031 1.101563-1.25.410156.492188.414062 1.070313.402343 1.640626-.058593 3-.554687 5.933593-1.265624 8.835937-.019532.085937-.035157.167969-.0625.316406 1.136718-.605469 1.175781-2.054687 2.1875-2.710937.570312.328125.734374.757812.636718 1.347656-.347656 2.070312-.675781 4.148438-1.011718 6.226562-.035157.21875-.066407.445313-.046876.703126.527344-.539063.878907-1.265626 1.730469-1.429688.347657.597656.257813 1.195312.117188 1.789062-.324219 1.363282-.667969 2.722657-1.03125 4.207032.191406-.132813.296875-.242188.425781-.289063.410156-.140625.734375-.015625.820312.398438.074219.359375.0625.757812-.019531 1.113281-.410156 1.734375-.855469 3.464844-1.28125 5.191406-.050781.195313-.078125.394532-.117187.597656.804687.054688 1.03125.269532 1.054687 1.046876.011719.40625-.007812.828124-.097656 1.21875-.480469 2.066406-.992187 4.125-1.492187 6.214843.519531-.285156.714843-.839843.914062-1.363281.179688-.460938.4375-.8125.929688-1.074219.242187.207031.5.429688.875.746094.195312-1.160156.4375-2.230469.539062-3.316406.199219-2.152344.320312-4.316407.464844-6.472657.039062-.558593.085937-1.109374.589844-1.542968.15625.050781.332031.105468.617187.195312.0625-.925781.15625-1.796875.167969-2.664062.015625-1.023438-.007813-2.050782-.070313-3.070313-.03125-.457031-.171875-.914062-.300781-1.363281-.167969-.601562-.136719-1.148438.355469-1.640625.175781.0625.359375.121094.542969.179687.019531-.082031.058593-.144531.046874-.1875-.3125-1.21875-.628906-2.433593-.9375-3.652343-.1875-.734375-.183593-.746094.078126-1.574219.238281.015625.492187.03125.761718.046875.015625-.078125.070313-.167969.046875-.238281-.34375-1.117188-.683593-2.230469-1.050781-3.339844-.375-1.140625-.785156-2.265625-1.171875-3.398438-.066406-.195312-.164063-.402343-.140625-.589843.023438-.167969.160156-.367188.308594-.457031.105468-.0625.363281-.019532.457031.070312.21875.226562.445313.484375.558594.773438.945312 2.390624 1.992187 4.746093 2.550781 7.269531.140625.628906.277344 1.257812.398438 1.886719.167968.839843.046874 1.046874-.84375 1.417968.140624.859375.292968 1.742188.429687 2.628906.109375.691407.210937 1.386719.289063 2.082032.027343.257812.003906.53125-.0625.777344-.128907.476562-.222657.523437-.789063.5625-.0625 1.136718-.097656 2.269531-.203125 3.402343-.148438 1.570313-.363281 3.136719-.539062 4.703125-.054688.5-.3125.800782-.792969.902344-.207031 1.597656-.386719 3.164062-.613281 4.71875-.269532 1.859375-.734376 3.664062-1.371094 5.433594-.175782.488281-.410156.898437-.949219 1.128906-.902344-.429688-.628906-1.328125-.773437-2.117188-1.207032.511719-2.035157 1.800782-3.5 1.722657-.355469-.789063-.113282-1.410157.234374-1.992188.929688-1.5625 1.375-3.269531 1.644532-5.164062-.277344.257812-.464844.460937-.683594.628906-.296875.234375-.644531.304687-.976562.09375-.300782-.195313-.398438-.511719-.296876-.847656.179688-.585938.347657-1.179688.597657-1.734375.613281-1.367188 1.015625-2.785156 1.296875-4.367188-.675782.324219-1.089844 1-1.898438.777344-.289062-.585938-.082031-1.148438.148438-1.722656.488281-1.214844.976562-2.433594 1.425781-3.667969.183594-.515625.257813-1.074219.417969-1.777344-.570313.449219-1.042969.820313-1.691406.714844-.410157-.53125-.296876-1.109375-.171876-1.679687.429688-1.9375.871094-3.878907 1.300782-5.816407.023437-.109375.039062-.222656-.058594-.414062-.328125.386719-.683594.753906-.980469 1.164062-.429687.589844-1.015625.84375-1.738281.929688-.324219-.597657-.433594-1.183594-.195312-1.84375.808593-2.265625 1.234374-4.625 1.617187-6.996094.019531-.132813.003906-.277344-.117187-.472656-.382813.605469-.765626 1.207031-1.148438 1.8125-.1875.296875-.359375.605469-.566406.886719-.339844.453124-.804688.621093-1.21875.484374-.363282-.121093-.605469-.515624-.578125-1.082031.042969-.871093.128906-1.742187.082031-2.667969-.09375.148438-.210938.285157-.28125.441407-.570312 1.1875-1.09375 2.398437-1.710938 3.558593-.433593.820313-.988281 1.582032-1.503906 2.359376-.109375.167968-.265625.320312-.429687.429687-.535157.351563-1.074219.164063-1.21875-.460937-.089844-.359376-.070313-.753907-.070313-1.132813-.011718-.757813-.003906-1.519531-.113281-2.328125-.109375.242188-.238281.476562-.332031.726562-.941406 2.539063-2.179688 4.914063-3.820313 7.074219-.160156.207031-.308593.425781-.492187.613281-.289063.296876-.636719.402344-1.039063.242188-.417969-.164062-.585937-.503906-.53125-.910156.121094-.894532.28125-1.789063.433594-2.679688.074219-.429687.179687-.851562.148437-1.351562-.164062.246094-.332031.492187-.496093.738281-1.863281 2.835937-3.726563 5.671875-5.578125 8.511719-.332032.503906-.6875.945312-1.339844 1.03125-.5625-.472656-.5625-1.113282-.496094-1.941406-.214844.273437-.359375.398437-.433594.558593-.382812.820313-.769531 1.640625-1.109374 2.476563-.417969 1.027344-.800782 2.070312-1.183594 3.113281-.203125.558594-.542969.953125-1.160156 1.132813-.476563-.375-.707032-.84375-.722657-1.488282-.042969-1.828125.140625-3.617187.703125-5.363281.3125-.972656.589844-1.953125.917969-3.03125-.3125.078125-.546875.140625-.816406.207031-.347657-.449218-.390625-.949218-.214844-1.472656 1.027344-3.027344 2.425781-5.832031 4.875-7.992188.222656-.199218.355469-.363281.308594-.734374-.042969-.320313.152343-.742188.375-1.003907.953125-1.136719 1.972656-2.21875 3.070312-3.417969zm0 0"/><path d="m196.128906 84.699219c.710938.527343 1.308594.992187 1.921875 1.421875 1.238281.867187 2.242188 1.949218 3.105469 3.191406 1.347656 1.941406 1.351562 3.910156.210938 5.933594-.605469 1.070312-1.421876 1.863281-2.527344 2.46875-1.558594.855468-3.015625 1.898437-4.519532 2.855468-.515624.328126-1.027343.671876-1.570312.953126-.609375.3125-1.261719.390624-1.957031.316406-2.195313-.230469-4.394531-.210938-6.527344.398437-1.226563.351563-2.316406.179688-3.355469-.464843-1.640625-1.015626-3.253906-2.070313-4.898437-3.082032-1.472657-.910156-2.042969-2.273437-2.027344-3.929687.007813-.523438.070313-1.050781.160156-1.570313.117188-.675781.554688-1.144531 1.117188-1.5.558593-.351562 1.125-.691406 1.648437-1.109375-1.96875.28125-3.953125.472657-5.714844 1.476563-.636718.363281-1.285156.710937-1.867187 1.148437-1.203125.902344-2.550781 1.410157-4.019531 1.625-1.101563.160157-2.199219.332031-3.300782.457031-2.808593.3125-5.339843-.414062-7.550781-2.160156-1.21875-.964844-2.394531-1.972656-3.816406-2.632812-.15625-.070313-.296875-.191406-.425781-.308594-.804688-.710938-.824219-1.21875-.074219-1.976562 1.339844-1.351563 2.710937-2.671876 4.019531-4.050782.492188-.519531.914063-1.136718 1.273438-1.769531.8125-1.433594 1.769531-2.746094 2.96875-3.886719 1.160156-1.113281 2.535156-1.78125 4.128906-1.941406 1.539062-.152344 3.085938-.246094 4.628906-.363281.257813-.019531.511719-.03125.859375-.050781-.113281-.234376-.171875-.429688-.285156-.578126-1.214844-1.570312-1.773437-3.375-2.082031-5.320312-.234375-1.464844-.617188-2.921875-1.121094-4.3125-.640625-1.761719-.714844-3.46875-.128906-5.230469.355468-1.0625.804687-2.066406 1.449218-2.984375.882813-1.265625 2.074219-2.042968 3.601563-2.265625.714844-.105469 1.277344-.386719 1.828125-.902343 1.210938-1.132813 2.445312-1.519532 3.996094-.738282 1.597656.800782 3.167968 1.644532 4.492187 2.871094.300781.277344.613281.542969.929688.800781.433593.363281.863281.597657 1.507812.476563.882813-.167969 1.734375.703125 1.421875 1.496094-.433594 1.101562.128906 1.765624.792969 2.597656.085937-.304688.144531-.511719.199219-.71875.292968-1.097656.480468-2.238282.902344-3.285156.878906-2.171876 2.480468-3.636719 4.71875-4.402344.546874-.183594 1.070312-.457032 1.5625-.761719 2.03125-1.261719 4.175781-1.890625 6.597656-1.5.757812.121094 1.5625-.054687 2.34375-.125.40625-.039063.804687-.15625 1.210937-.214844 1.339844-.1875 2.402344.296875 3.21875 1.355469.808594 1.046875 1.175781 2.277344 1.46875 3.535156.640625 2.703125.417969 5.402344-.070312 8.097656-.140625.761719-.296875 1.523438-.457031 2.328126 1.949218-.332032 3.800781-.179688 5.644531.144531 1.847656.324219 3.207031 1.359375 4.167969 2.933593.886718 1.445313 1.300781 3.058594 1.597656 4.703126.144531.777343.234375 1.5625.332031 2.34375.101563.855468.027344 1.679687-.363281 2.480468-.183594.375-.269532.835938-.273438 1.261719-.011718 1.136719.023438 2.277344.074219 3.414063.09375 2.035156-1.78125 3.800781-3.925781 3.453124-2.042969-.335937-4.082032-.253906-6.125-.292968-.523438-.011719-1.046875-.085938-1.5625-.167969-.738282-.121094-1.363282-.46875-1.929688-.96875-.679687-.601563-1.386718-1.167969-2.121094-1.699219-.917968-.664062-1.90625-.792968-2.972656-.292968-.761718.363281-1.566406.636718-2.53125 1.019531zm-6.632812-4.929688c.652344-.613281 1.210937-1.261719 1.886718-1.75 1.601563-1.152343 3.347657-2.011719 5.261719-2.550781.742188-.210938 1.417969-.652344 2.125-.992188.3125-.152343.605469-.371093.933594-.457031.554687-.148437 1.109375.207031 1.402344.804688.28125.570312.183593 1.128906-.265625 1.511719-.46875.394531-.964844.429687-1.5-.035157-.484375-.417969-1-.464843-1.554688-.335937-2.371094.542968-4.550781 1.5-6.46875 3.007812-.773437.613282-1.371094 1.375-1.773437 2.246094 1.003906-.394531 1.949219-.855469 2.949219-1.140625 1.542968-.4375 3.136718-.289063 4.710937-.167969.292969.023438.605469.207032.847656.402344.335938.269531.5.671875.304688 1.097656-.199219.441406-.617188.613282-1.074219.648438-.449219.035156-.796875-.148438-.96875-.59375-.09375-.242188-.179688-.484375-.289062-.777344-2.277344-.113281-4.375.351562-6.253907 1.625-.496093.335938-.933593.785156-1.066406 1.5.644531-.171875 1.222656-.359375 1.8125-.480469 1.40625-.28125 2.8125-.523437 4.214844.125.308593.140625.769531.113281 1.105469.003907.828124-.273438 1.644531-.597657 2.433593-.976563.6875-.332031 1.371094-.460937 2.121094-.339844 1.003906.160157 1.910156.511719 2.691406 1.183594.507813.4375 1.027344.863281 1.558594 1.277344.617187.476562 1.308594.765625 2.105469.769531.613281.003906 1.226562 0 1.839844-.011719 1.605468-.023437 3.210937-.210937 4.796874.261719.308594.09375.703126.023438 1.027344-.070312 1.035156-.3125 1.582032-1.082032 1.613282-2.246094.03125-1.144532.003906-2.285156.046874-3.421875.019532-.523438.023438-1.101563.242188-1.546875.476562-.957032.472656-1.90625.277344-2.902344-.085938-.429688-.121094-.871094-.195313-1.300781-.246093-1.417969-.597656-2.800781-1.320312-4.066407-.667969-1.171874-1.628907-2.011718-2.921875-2.363281-.835938-.230469-1.726563-.261719-2.582032-.421875-1.425781-.269531-2.65625.164063-3.792968.976563-.914063.660156-1.941406 1.078125-3.023438 1.351562-.796875.195313-1.609375.320313-2.394531.546875-1.148437.328125-2.292969.671875-3.414063 1.089844-.664062.246094-1.269531.671875-1.515624 1.382812-.257813.757813-.785157 1.277344-1.351563 1.796876-.46875.433593-1.050781.828124-1.335937 1.367187-.472657.898437-1.148438 1.527344-1.945313 2.082031-.285156.199219-.542969.449219-.769531.714844-.285156.324219-.527344.683594-.53125 1.175781zm5.222656-7.570312c.148438-.214844.28125-.367188.378906-.542969.414063-.738281 1.027344-1.269531 1.765625-1.65625.335938-.175781.667969-.367188 1.027344-.488281 1.375-.476563 2.761719-.941407 4.152344-1.382813 1.585937-.5 2.5625-1.523437 2.96875-3.148437.855469-3.421875.875-6.828125-.09375-10.222657-.449219-1.570312-1.964844-2.523437-3.585938-2.261718-1.113281.179687-2.214843.160156-3.316406-.019532-1.96875-.324218-3.757813.074219-5.425781 1.1875-.792969.53125-1.675782.949219-2.550782 1.339844-.738281.332032-1.398437.753906-1.871093 1.402344-1.261719 1.722656-2.101563 3.621094-2.425781 5.753906-.246094 1.644532.003906 3.269532.078124 4.902344.050782 1.042969-.046874 2.046875-.527343 2.980469-.226563.441406-.265625.863281-.140625 1.351562.246094.9375.316406 1.890625.148437 2.867188-.1875 1.070312-.09375 2.125.410157 3.117187.226562-1.085937.457031-2.15625.671874-3.230468.085938-.425782-.027343-.777344-.335937-1.117188-.71875-.792969-.476563-1.644531.503906-2.085938.664063-.300781 1.242188-.144531 1.792969.304688.484375-.703125.75-1.40625.5-2.132812-.324219-.933594-.296875-2.015626-1.242188-2.714844-.492187-.363282-.484374-1.332032-.171874-1.695313.324218-.371093 1.082031-.464843 1.640624-.195312.523438.25.816407.800781.683594 1.378906-.066406.28125-.191406.546875-.316406.8125-.277344.605469-.15625 1.152344.121094 1.640625 1.292968-1.402344 2.554687-2.78125 3.828125-4.144531.273437-.292969.324219-.585938.21875-.960938s-.105469-.75.207031-1.0625c.402344-.40625 1.078125-.523437 1.621094-.257812.601562.289062.871094.800781.753906 1.425781-.140625.746094-.519531 1.207031-1.160156 1.214844-.621094.003906-1.078125.261718-1.445313.699218-1.089843 1.296876-2.183593 2.589844-3.21875 3.929688-.242187.316406-.355469.808594-.359375 1.222656-.007812 1.574219.136719 3.15625-.304687 4.707032-.109375.382812.089843.609374.566406.652343.117187-.199219.234375-.429687.382813-.632812.257812-.355469.492187-.742188.8125-1.027344.414062-.359375.679687-.726563.757812-1.304687.125-.925782.886719-1.28125 1.777344-.929688.234375.097656.460937.207031.722656.324219zm5.898438 20.496093c-.019532-1.429687-.484376-2.476562-1.199219-3.4375-.960938-1.289062-2.183594-2.269531-3.519531-3.132812-.3125-.203125-.695313-.398438-.878907-.703125-.660156-1.09375-1.578125-1.398437-2.769531-1.082031-.136719.035156-.292969.019531-.433594.035156-1.632812.203125-3.21875.539062-4.726562 1.238281-.894532.417969-1.847656.726563-2.785156 1.039063-.664063.222656-1.351563.371094-2.03125.554687-.8125.21875-1.3125.714844-1.421876 1.578125-.046874.375-.109374.753906-.199218 1.121094-.351563 1.476562-1.21875 2.160156-2.75 2.179688-.144532 0-.292969-.007813-.4375.003906-1.332032.097656-2.210938 1.015625-2.222656 2.347656-.011719 1.421875.730468 2.410156 1.84375 3.199219.949218.675781 1.886718 1.371093 2.789062 2.109375.597656.488281 1.238281.699218 1.953125.457031.875-.296875 1.773437-.351563 2.679687-.335937 1.859376.039062 3.578126-.402344 5.175782-1.378907.816406-.5 1.683594-.941406 2.566406-1.316406 1.367188-.578125 2.785156-.828125 4.28125-.476563.855469.199219 1.722656.089844 2.375-.5625 1-1 1.566406-2.230468 1.710938-3.4375zm-49.613282-3.234374c1.21875.902343 2.367188 1.65625 3.40625 2.539062 2.066406 1.75 4.410156 2.160156 6.976563 1.589844 1.519531-.335938 2.667969-1.25 3.582031-2.5 1.246094-1.703125 2.925781-2.738282 5.050781-2.726563 1.628907.007813 2.867188-.628906 3.972657-1.714843.480468-.46875.992187-.914063 1.515624-1.328126 1.050782-.832031 2.230469-1.214843 3.59375-1.09375.878907.078126 1.769532.015626 2.65625.015626-.25-.21875-.535156-.339844-.828124-.429688-1.835938-.578125-3.679688-1.148438-5.519532-1.714844-.765625-.234375-1.484375-.433594-2.152344.328125-.378906.433594-1.058593.234375-1.445312-.269531-.398438-.515625-.378906-1.230469.042969-1.589844.363281-.3125.785156-.207031 1.171875-.101562 1.523437.402344 3.039062.832031 4.558594 1.257812.617187.171875 1.234374.363282 1.851562.546875-1.253906-1.167969-2.558594-2.195312-3.875-3.214843-.203125-.160157-.453125-.402344-.671875-.390626-1.058594.054688-1.90625-.570312-2.867187-.828124-.058594-.015626-.117188-.023438-.171876-.03125-2.703124-.355469-5.414062-.4375-8.136718-.40625-2.402344.03125-4.179688 1.136718-5.457032 3.117187-.507812.785156-1.035156 1.5625-1.476562 2.382813-.683594 1.277343-1.546875 2.410156-2.5625 3.429687-.886719.890625-1.808594 1.742187-2.714844 2.617187-.183594.175782-.351562.359376-.5.515626zm28.558594-16c-.03125-.164063-.023438-.320313-.082031-.441407-.511719-1.046875-1.027344-2.101562-1.566407-3.136719-.34375-.664062-.789062-1.175781-1.628906-1.308593-.6875-.105469-1.140625-.738281-1.09375-1.300781.054688-.660157.5-1.027344 1.0625-1.28125.558594-.25 1.105469-.195313 1.566406.191406.476563.398437.589844.957031.339844 1.511718-.226562.492188-.105468.871094.132813 1.3125.777343 1.441407 1.511719 2.898438 2.269531 4.347657.148438.28125.339844.539062.5.8125.289062.5.652344.980469.835938 1.519531.359374 1.046875.609374 2.132812.914062 3.199219.09375.316406.230469.621093.351562.957031.6875-.425781.664063-.417969.421876-1.078125-.59375-1.617187-1.15625-3.25-1.242188-4.992187-.023438-.53125-.25-.925782-.683594-1.253907-.550781-.417969-.613281-.644531-.335937-1.28125.179687-.414062.140625-.773437.019531-1.183593-.234375-.78125-.433594-1.574219-.625-2.367188-.09375-.386719-.222656-.710938-.621094-.890625-.460937-.207031-.691406-.601563-.796875-1.089844-.15625-.738281.050781-1.28125.625-1.566406.613281-.304687 1.359375-.164063 1.753907.328125.46875.582031.523437 1.355469.03125 1.835938-.335938.324218-.359376.632812-.253907 1.019531.285157 1.011719.566407 2.023437.863281 3.035156.042969.140625.164063.257813.25.386719.121094-.5.132813-.960938.121094-1.417969-.082031-2.574219-.171875-5.144531-.261718-7.714844 0-.117187-.003907-.234375-.007813-.351562-.011719-.414063-.140625-.710938-.59375-.851563-.257813-.082031-.554687-.273437-.6875-.503906-.746094-1.289062-1.949219-2.078125-3.109375-2.914062-1.171875-.839844-2.445312-1.488282-3.777344-2.03125-.914062-.371094-1.695312-.261719-2.417968.425781-.804688.769531-1.796876 1.191406-2.875 1.417969-.785157.167968-1.382813.589843-1.789063 1.292968-.378906.660156-.761719 1.320313-1.179687 1.953125-1.242188 1.882813-1.300782 3.835938-.355469 5.835938.695312 1.46875 1.144531 2.992187 1.378906 4.597656.332031 2.308594 1.359375 4.191406 3.402344 5.46875 1.4375.894531 2.894531.730469 4.410156.347656-.808594-.832031-1.5625-1.648437-2.355469-2.421875-1.09375-1.070312-2.109375-2.191406-2.664062-3.65625-.15625-.417968-.449219-.628906-.886719-.746094-.6875-.1875-1.121094-.8125-1.140625-1.492187-.015625-.558594.246094-.957031.734375-1.191406.457031-.21875.90625-.167969 1.320313.148437.585937.453125.75.910156.523437 1.6875-.148437.515625-.117187.988282.160156 1.433594.292969.472656.570313.960938.921875 1.382812 1.503906 1.800782 3.09375 3.515626 4.929688 4.988282.453125.363281.949218.683594 1.4375 1.003906.117187.078125.277344.082031.421875.121094.039062-.046875.078125-.09375.117187-.140625-.792968-1.117188-1.582031-2.234375-2.378906-3.347657-.3125-.4375-.683594-.726562-1.265625-.832031-.90625-.160156-1.484375-1.019531-1.335937-1.875.046874-.28125.246093-.628906.484374-.757812.59375-.332031 1.199219-.105469 1.738282.21875.503906.300781.714844.761719.539062 1.351562-.132812.4375.023438.773438.285156 1.128907.625.84375 1.234376 1.707031 1.792969 2.59375.820313 1.3125 1.941407 2.34375 2.96875 3.46875-.429687-.902344-.886719-1.78125-1.386719-2.628907-.140624-.238281-.445312-.371093-.625-.597656-.285156-.355469-.59375-.71875-.773437-1.132813-.222656-.515624-.039063-.882812.457031-1.179687.214844-.136719.457032-.238281.714844-.367187zm-17.109375 20.8125c.117187-.011719.230469-.011719.34375-.035157 2.089844-.398437 4.023437-1.148437 5.792969-2.367187 1.421875-.984375 2.976562-1.746094 4.699218-2.082032 1.089844-.210937 2.179688-.429687 3.277344-.597656 1.226563-.183594 2.257813-.628906 3.082032-1.640625.929687-1.144531 2.203124-1.796875 3.675781-2.039062.183593-.03125.359375-.085938.570312-.136719-1.417969-.054688-2.789062-.066406-4.152343-.171875-1.257813-.089844-2.382813.191406-3.390626.929687-.421874.308594-.8125.667969-1.214843 1-.632813.519532-1.25 1.054688-1.898438 1.558594-.941406.726563-1.972656 1.070313-3.195312.824219-1.394531-.28125-2.589844.21875-3.613281 1.164063-.277344.257812-.550782.527343-.785157.824218-.871093 1.117188-1.871093 2.082032-3.191406 2.769532zm25.253906 6.390624c1.097657 0 2.003907-.039062 2.90625.007813.910157.046875 1.738281-.152344 2.503907-.628906 1.042968-.648438 2.085937-1.292969 3.121093-1.945313.054688-.03125.066407-.125.117188-.226562-1.449219-.3125-2.816407-.304688-4.128907.398437-1.4375.769531-2.882812 1.527344-4.519531 2.394531zm-12.496093-23.058593c.433593.726562 6.320312 5.238281 7.3125 5.582031-.273438-.398438-.445313-.679688-.652344-.9375-1.355469-1.679688-3.230469-2.761719-4.820313-4.175781-.453125-.402344-1.0625-.714844-1.839843-.46875zm8.996093-2.824219c.082031-.011719.164063-.019531.242188-.03125-.070313-.359375-.121094-.726562-.214844-1.078125-.410156-1.5625-.417969-3.132813-.03125-4.6875.523437-2.078125.1875-4.054687-.574219-6-.039062-.101563-.125-.183594-.289062-.40625.285156 4.191406-.035156 8.238281.867187 12.203125zm3.410157-1.019531c-1.222657 1.652343-1.355469 5.832031-.457032 6.839843.148438-2.234374.304688-4.535156.457032-6.839843zm-3.933594 7.691406c.644531 1.007813 1.085937 1.941406 1.976562 2.746094.308594-1.039063-.316406-1.6875-.4375-2.398438-.515625-.117187-.933594-.210937-1.539062-.347656zm-3.910156 7.375c-.585938.789063-1.113282 1.5-1.65625 2.234375 1.144531.160156 1.621093-.472656 1.65625-2.234375zm7.035156-5.757813c.292968-.988281-.398438-1.703124-.625-2.679687-.753906 1.21875.097656 1.910156.625 2.679687zm1.238281-3.605468c.0625.015625.125.027344.1875.042968.207031-.28125.40625-.570312.621094-.839843.269531-.328125.253906-.636719-.035157-.9375-.152343-.15625-.320312-.300781-.589843-.550781-.070313.863281-.128907 1.574218-.183594 2.285156zm-7.09375-3.816406c-.082031-.007813-.164063-.011719-.246094-.015626-.042969.253907-.191406.550782-.109375.753907.25.605469.59375 1.175781.902344 1.757812.039062-.910156-.066406-1.757812-.546875-2.496093zm-3.996094-8.976563c-.484375.003906-.863281.34375-.855469.65625.011719.40625.304688.453125.617188.445313.378906-.011719.742188-.28125.65625-.546876-.074219-.234374-.308594-.421874-.417969-.554687zm11.625 8.863281c.082031.003906.164063.007813.246094.015625.101563-1.035156.203125-2.070312.304687-3.105469-.378906 1.007813-.671874 2.023438-.550781 3.089844zm-13.28125-3.464844c.035157-.4375-.335937-.886718-.632812-.835937-.179688.03125-.410157.222656-.472657.394531-.101562.269532.308594.710938.632813.683594.1875-.011719.359375-.179688.472656-.242188zm13.738281-6.226562c-.046874-.453125-.242187-.65625-.527343-.59375-.167969.035156-.371094.265625-.410157.441406-.058593.285156.296876.605469.550782.507813.179687-.0625.300781-.269531.386718-.355469zm-8.609374 8.953125c-.316407-.199219-.484376-.394531-.65625-.394531-.257813-.003906-.554688.148437-.484376.46875.035157.171875.296876.421875.433594.410156.199219-.023438.378906-.246094.707032-.484375zm-11.886719-7.03125c.148437.402344.152343.839844.671875.769531.117187-.015625.273437-.292968.277344-.453125.003906-.339843-.265626-.433593-.949219-.316406zm16.65625 12.789063c-.027344-.441407-.292969-.664063-.621094-.578126-.15625.039063-.34375.214844-.382813.367188-.066406.234375.308594.574219.566407.511719.183593-.046875.332031-.226563.4375-.300781zm8.417969-7.011719c.210937-.210938.40625-.3125.417968-.425781.019532-.308594-.125-.601563-.453125-.644532-.128906-.015625-.421875.25-.402343.304688.078124.246094.25.460937.4375.765625zm-5.996094-1.160157c-.089844-.441406-.332032-.582031-.640625-.527343-.144531.027343-.25.222656-.375.34375.207031.160156.402343.363281.636719.457031.078124.035156.269531-.1875.378906-.273438zm-4.542969-13.203124c-.285156-.199219-.460937-.417969-.609375-.398438-.164062.019531-.386719.242188-.421875.410156-.066406.289063.140625.523438.445313.46875.175781-.035156.316406-.25.585937-.480468zm-2.71875 6.695312c.089844.019531.175781.039062.265625.058594.105469-.207032.269531-.402344.296875-.617188.019531-.132812-.136719-.375-.269531-.421875-.269532-.097656-.445313.105469-.449219.359375 0 .207032.101563.414063.15625.621094zm14.617187-2.046875c.183594-.398437.363282-.601563.332032-.765625-.035156-.171875-.261719-.410156-.421875-.429688-.289063-.035156-.390625.257813-.339844.492188.035156.183594.199219.34375.429687.703125zm-5.847656 12.714844c-.011718.363281-.105468.738281.398438.734375.257812 0 .472656-.164063.410156-.453125-.09375-.410157-.382812-.464844-.808594-.28125zm10.375-1.347657c.136719.296876.300782.570313.691406.414063.101563-.042969.207032-.390625.144532-.492187-.246094-.398438-.53125-.21875-.835938.078124zm-8.207031.417969c.058594.0625.121094.125.183594.1875.320312-.371093.648437-.746093.96875-1.117187-.058594-.054688-.117188-.105469-.175781-.15625-.324219.363281-.652344.726562-.976563 1.085937zm-7.269531 25.304688c-.457032-.140625-.890625-.128907-1.371094.246093.585938.207032.976562-.035156 1.371094-.246093zm-11.601563-20c-.175781.804687-.109375.882812.640625.792969-.207031-.257813-.375-.464844-.640625-.792969zm12.1875-1.882813c.265625-.871094.246094-1.132812 0-1.625zm1.199219-.625c-.0625.429688-.417969.886719.152344 1.375-.058594-.53125-.105469-.953125-.152344-1.375zm-11.839844-1.355468c-.183594.148437-.285156.234374-.386718.316406.113281.132812.214843.292968.355468.386718.042969.027344.304688-.148437.292969-.191406-.039063-.160156-.148437-.304687-.261719-.511718zm23.296875 3.53125c-.125.203124-.257812.324218-.242187.414062.019531.105469.160156.210938.273437.261719.039063.019531.226563-.132813.214844-.175781-.03125-.144532-.125-.273438-.246094-.5zm-13.871093-5.652344c-.035157.027344-.066407.058594-.101563.085937.074219.1875.144531.378907.21875.566407.03125-.011719.058594-.019532.09375-.03125-.070313-.210938-.140625-.417969-.210937-.621094zm5.210937 6.128906c.035156.019531.070313.039062.105469.058594.082031-.148438.167968-.296875.25-.445313-.035156-.019531-.070313-.035156-.105469-.054687-.082031.144531-.167969.292968-.25.441406zm0 0"/><path d="m150.765625 128.132812c.605469.117188.984375-.113281 1.320313-.390624.691406-.566407 1.167968-1.257813 1.375-2.167969.269531-1.195313.636718-2.371094 1.027343-3.53125.164063-.488281.425781-.972657.75-1.375.214844-.273438.589844-.5.929688-.574219.679687-.144531 1.160156.332031 1.042969 1.023438-.089844.511718-.265626 1.019531-.476563 1.496093-.53125 1.214844-.910156 2.472657-1.0625 3.785157-.0625.539062-.035156 1.113281.078125 1.644531.128906.625.578125.773437 1.132812.449219.222657-.132813.433594-.304688.601563-.503907.871094-1.039062 1.59375-2.15625 1.90625-3.507812.273437-1.167969.566406-2.328125.890625-3.480469.105469-.382812.28125-.777344.523438-1.089844.363281-.46875.957031-.574218 1.421874-.351562.457032.214844.554688.507812.429688 1.261718-.003906.046876.027344.101563.027344.101563.367187-.332031.75-.683594 1.140625-1.027344.597656-.523437 1.226562-.988281 2.054687-1.097656 1.449219-.199219 2.574219.753906 2.484375 2.214844-.039062.65625-.261719 1.308593-.457031 1.949219-.238281.78125-.5625 1.535156-.789062 2.320312-.113282.386719-.140626.808594-.113282 1.210938.042969.636718.5.871093 1.042969.519531.335937-.21875.660156-.511719.878906-.839844.484375-.726563.898438-1.503906 1.347657-2.257813.179687-.296874.328124-.625.558593-.882812.324219-.367188.808594-.390625 1.195313-.128906.371094.25.503906.613281.289062 1.074218-.738281 1.570313-1.621094 3.050782-3.054687 4.105469-.601563.445313-1.265625.71875-2.027344.742188-1.5625.046875-2.578125-.863281-2.59375-2.425781-.003906-.546876.121094-1.105469.273437-1.632813.226563-.785156.53125-1.546875.796876-2.324219.074218-.21875.148437-.441406.191406-.671875.070312-.382812.355468-.863281-.09375-1.109375-.398438-.214844-.777344.148438-1.074219.414063-1.214844 1.089843-2.152344 2.40625-2.804687 3.882812-.46875 1.0625-.761719 2.207031-1.125 3.3125-.082032.25-.105469.519531-.195313.765625-.296875.785156-1.085937 1.03125-1.773437.558594-.117188-.078125-.210938-.1875-.304688-.273438-2.4375 1.59375-4.066406 1.148438-5.09375-.472656-.148438.082032-.296875.164063-.445312.253906-.816407.496094-1.699219.800782-2.660157.75-.59375-.03125-1.046875.140626-1.5.535157-.957031.824219-2.082031 1.265625-3.375 1.25-1.117187-.011719-2.066406-.351563-2.773437-1.246094-.074219-.089844-.121094-.195313-.203125-.332031-.28125.253906-.46875.429687-.660157.605468-1.765624 1.59375-3.84375 2.289063-6.207031 2.152344-1.03125-.058594-1.921875-.464844-2.65625-1.332031-.316406.328125-.605469.644531-.90625.941406-.703125.691407-1.496093 1.210938-2.503906 1.335938-1.636719.203125-2.851563-.789063-2.816406-2.4375.015625-.742188.253906-1.488281.457031-2.21875.226562-.8125.554688-1.597657.796875-2.410157.09375-.316406.074219-.667968.109375-.992187-.667969-.273437-1.046875.09375-1.40625.421875-.980469.894531-1.789062 1.957031-2.347656 3.144531-.574219 1.207031-.964844 2.503907-1.417969 3.761719-.089844.246094-.109375.515625-.183594.765625-.285156 1-1.09375 1.265625-1.945312.640625-.066407-.046875-.140625-.089844-.199219-.128906-2.441406 1.371094-3.460938 1.285156-4.925781-.46875-.230469.257812-.453125.519531-.6875.761718-.796875.820313-1.699219 1.410157-2.910157 1.410157-.902343.003906-1.667968-.257813-2.269531-.941407-.097656-.109374-.144531-.261718-.148437-.273437-.5625.496094-1.019532.902344-1.476563 1.304687-1.113281.972657-2.359375 1.511719-3.867187 1.136719-1.386719-.339843-2.246094-1.378906-2.363282-2.808593-.082031-1.042969.089844-2.050782.472657-3.007813.558593-1.378906 1.183593-2.734375 1.773437-4.097656.570313-1.3125 1.195313-2.609375 1.671875-3.953125.246094-.695313.296875-1.488282.304688-2.234375.007812-.742188-.417969-1.0625-1.152344-.945313-.390625.0625-.820313.195313-1.128906.429688-.71875.546875-1.4375 1.113281-2.042969 1.777344-2.019531 2.21875-3.402344 4.820312-4.367188 7.640624-.75 2.183594-1.410156 4.398438-2.125 6.589844-.183593.550782-.386718 1.109375-.675781 1.605469-.386719.667969-1.054687.875-1.644531.617187-.550781-.242187-.859375-.832031-.664062-1.550781.257812-.925781.582031-1.839843.9375-2.730469 1.371093-3.40625 2.355468-6.914062 2.765624-10.566406.0625-.539062 0-1.113281-.101562-1.652344-.117188-.625-.515625-.910156-1.144531-.8125-.417969.066407-.882813.199219-1.207031.453126-.6875.539062-1.359376 1.121093-1.921876 1.78125-1.898437 2.226562-3.28125 4.769531-4.242187 7.523437-.746094 2.152344-1.40625 4.335937-2.105469 6.503906-.144531.445313-.273437.898438-.472656 1.316407-.148438.308593-.359375.609374-.609375.84375-.375.359374-.867187.359374-1.320313.183593-.445312-.175781-.710937-.585937-.640624-1.050781.097656-.6875.25-1.375.476562-2.03125.542969-1.574219 1.234375-3.097656 1.699219-4.695312.5625-1.929688.976562-3.90625 1.398437-5.878907.121094-.558593.09375-1.164062.074219-1.746093-.015625-.496094-.15625-.972657-.640625-1.394532-.109375.355469-.203125.648438-.289062.941406-.609376 2.054688-1.605469 3.890626-3.167969 5.382813-1.058594 1.007813-2.277344 1.628906-3.800781 1.433594-1.324219-.167969-2.183594-.96875-2.433594-2.277344-.199219-1.050781 0-2.039063.527344-2.957031 1.316406-2.296875 3.339843-3.707032 5.800781-4.546875.246093-.085938.496093-.160157.746093-.242188.023438-.011719.042969-.039062.144532-.136719-.074219-.21875-.117188-.507812-.257813-.738281-.40625-.65625.195313-1.332031.820313-1.375.667968-.046875 1.144531.253907 1.449218.796875.242188.429688.394532.90625.621094 1.441406 1.816406.515626 2.855469 1.785157 2.988282 3.953126.304687-.425782.472656-.691407.675781-.929688.886719-1.046875 1.738281-2.128906 2.691406-3.109375.808594-.824219 1.808594-1.378906 2.992187-1.539063 1.957032-.269531 3.460938.871094 3.714844 2.835938.046875.332031.09375.667969.160156 1.167969.269532-.34375.429688-.535157.578126-.742188.878906-1.210937 1.832031-2.359375 3.015624-3.289062.859376-.675781 1.78125-1.207031 2.914063-1.316407 2.414063-.226562 3.855469 1.386719 3.613281 3.695313-.082031.773437-.285156 1.5625-.582031 2.28125-.640625 1.566406-1.375 3.097656-2.085937 4.636719-.65625 1.433594-1.367188 2.855468-1.554688 4.449218-.054688.480469-.019531.996094.09375 1.464844.164062.683594.679688.9375 1.347656.730469.246094-.074219.492188-.207031.683594-.375 1.160156-1.027344 2.050781-2.246094 2.457031-3.757813.558594-2.058593 1.667969-3.722656 3.449219-4.910156.3125-.210937.652344-.394531 1.003906-.535156 1.167969-.457031 2.324219-.640625 3.417969.3125.191406-.222656.351563-.417969.523437-.605469.289063-.316406.628907-.519531 1.074219-.507812.597657.015625 1.003907.445312.890625 1.035156-.074218.398437-.234375.78125-.386718 1.160156-.609376 1.496094-1.039063 3.042969-1.222657 4.648438-.050781.421875.007813.878906.117188 1.292969.121093.464843.453125.574218.886719.351562.207031-.101562.410156-.242188.5625-.410156.898437-.984375 1.589843-2.089844 1.925781-3.394532.816406-3.171874 1.636719-6.339843 2.472656-9.5.097656-.359374.265625-.722656.488281-1.015624.371094-.492188 1.113282-.640626 1.578125-.386719.441407.242187.574219.683593.355469 1.390625-.605469 1.976562-1.226562 3.953125-1.710938 6.011718.140626-.144531.28125-.292968.433594-.433593.535156-.496094 1.027344-1.046875 1.625-1.457031.410156-.28125.953125-.476563 1.453125-.515626 1.550781-.125 2.566407 1 2.316407 2.542969-.105469.65625-.351563 1.292969-.554688 1.933594-.222656.695313-.515625 1.367187-.699219 2.070313-.109375.414062-.117187.875-.066406 1.300781.054687.46875.414063.648437.832031.429687.328125-.171875.65625-.410156.882813-.699218.792969-1.015626 1.410156-2.09375 1.726562-3.394532.636719-2.621094 2.324219-4.414062 4.851563-5.363281.808594-.300781 1.660156-.339844 2.5-.078125.953125.300781 1.464844.96875 1.449218 1.855469-.019531.980469-.730468 2.023437-1.539062 2.257812-.917969.265625-1.667969-.386719-1.503906-1.332031.066406-.386719.214844-.761719.332031-1.179688-.515625-.136718-.886719.078126-1.199219.3125-1.726562 1.285157-2.5625 3.003907-2.382812 5.164063.074218.855469.65625 1.34375 1.527344 1.398437 2.074218.132813 4.496093-1.375 5.277343-3.292968.085938-.210938.101563-.453125.148438-.679688.464843-2.3125 1.703125-4.074218 3.757812-5.238281.945313-.539063 1.96875-.71875 3.046875-.617187 1.425782.136718 2.414063 1.027343 2.753906 2.429687.316407 1.285156.03125 2.492187-.425781 3.683594-.113281.277343-.238281.539062-.378906.871093zm-1.589844-2.898437c-.035156-.425781-.046875-.691406-.085937-.949219-.027344-.199218-.070313-.402344-.144532-.59375-.203124-.535156-.574218-.765625-1.152343-.746094-.597657.015626-1.054688.332032-1.453125.726563-1.132813 1.113281-1.714844 2.488281-1.773438 4.066406-.019531.425781.082032.878907.230469 1.28125.234375.628907.78125.875 1.496094.773438.757812-.113281 1.246093-.527344 1.28125-1.164063.027343-.496094.253906-.84375.671875-1.046875.351562-.171875.535156-.425781.609375-.789062.117187-.570313.234375-1.140625.320312-1.558594zm-37.488281 7.148437c0 .234376-.023438.46875 0 .699219.128906 1.109375.984375 1.503907 1.863281.816407.40625-.316407.746094-.742188 1.03125-1.175782.855469-1.300781 1.390625-2.746094 1.796875-4.246094.238282-.871093-.1875-1.417968-1.09375-1.378906-.640625.027344-1.175781.324219-1.621094.765625-1.261718 1.242188-1.917968 2.753907-1.976562 4.519531zm-28.90625-9.414062c-2.1875.742188-3.871094 1.90625-4.671875 4.085938-.109375.292968-.136719.628906-.132813.945312.003907.949219.585938 1.375 1.4375.960938.53125-.257813 1.03125-.675782 1.417969-1.128907 1.027344-1.199219 1.582031-2.644531 1.945313-4.164062.042968-.1875.003906-.394531.003906-.699219zm0 0"/><path d="m125.160156 207.03125c-28.125-.039062-53.140625-14.890625-67.183594-37.851562-5.085937-8.320313-8.484374-17.292969-10.238281-26.882813-.867187-4.757813-1.289062-9.5625-1.25-14.398437.039063-4.710938.886719-9.300782 2.121094-13.828126 1.25-4.574218 2.933594-9 4.59375-13.433593.054687-.136719.109375-.277344.183594-.398438.253906-.402343.667969-.542969 1.050781-.375.390625.171875.605469.570313.507812 1.007813-.054687.253906-.175781.496094-.265624.742187-1.652344 4.40625-3.277344 8.816407-4.53125 13.363281-1.621094 5.867188-2.183594 11.824219-1.808594 17.890626 1.78125 28.976562 19.320312 53.214843 43.742187 64.917968 6.820313 3.269532 13.972657 5.457032 21.453125 6.617188 5.226563.808594 10.480469 1.074218 15.746094.785156 17.140625-.9375 32.503906-6.644531 45.742188-17.648438 13.421874-11.152343 21.988281-25.3125 25.613281-42.417968 1.261719-5.949219 1.777343-11.972656 1.523437-18.046875-.175781-4.15625-.832031-8.261719-1.835937-12.292969-.808594-3.257812-1.789063-6.472656-2.695313-9.710938-.039062-.140624-.105468-.277343-.125-.417968-.050781-.425782.128906-.738282.515625-.917969.363281-.167969.761719-.066406 1 .292969.160157.238281.257813.523437.347657.800781 1.859374 5.707031 3.296874 11.515625 4.09375 17.472656.585937 4.394531.59375 8.800781.261718 13.21875-.476562 6.386719-1.667968 12.632813-3.75 18.6875-6.5625 19.070313-18.8125 33.390625-36.394531 43.164063-7.894531 4.386718-16.367187 7.160156-25.273437 8.609375-4.308594.703125-8.648438 1.007812-13.144532 1.050781zm0 0"/><path d="m128.0625 50.878906c.222656-.042968.335938-.085937.445312-.089844 1.375-.039062 1.414063-.007812 1.785157 1.328126.195312.699218.394531 1.398437.636719 2.253906.15625-.304688.265624-.484375.34375-.675782.277343-.707031.570312-1.410156.8125-2.125.148437-.441406.414062-.601562.855468-.542968.371094.046875.746094.074218 1.097656.109375.179688.832031-.023437 4.898437-.28125 5.621093-.324218 0-.664062 0-1.085937 0-.199219-.960937.101563-1.914062-.066406-3.042968-.457031 1.078125-.847657 1.996094-1.230469 2.898437-.382812 0-.699219 0-1.085938 0-.308593-1.015625-.609374-2.011719-.914062-3.003906-.03125 0-.0625 0-.09375 0-.070312.933594-.136719 1.867187-.210938 2.867187-.441406 0-.824218 0-1.339843 0 .125-1.921874.164062-3.765624.332031-5.597656zm0 0"/><path d="m118.34375 51.3125c.28125-.074219.445312-.136719.613281-.160156.171875-.023438.34375-.003906.632813-.003906.367187 1.804687.445312 3.65625.679687 5.46875-1.148437.484374-1.238281.464843-1.949219-.4375-.582031-.726563-1.160156-1.457032-1.871093-2.152344.101562 1.007812.203125 2.019531.3125 3.101562-.425781.074219-.785157.132813-1.269531.214844-.3125-1.894531-.488282-3.734375-.648438-5.554688 1.125-.441406 1.246094-.414062 1.902344.414063.578125.730469 1.152344 1.460937 1.878906 2.148437-.089844-.984374-.183594-1.972656-.28125-3.039062zm0 0"/><path d="m139.894531 51.777344c1.691407.019531 2.863281 1.207031 2.847657 2.890625-.019532 1.769531-1.207032 3.082031-2.796876 3.085937-1.695312.003906-2.890624-1.179687-2.886718-2.851562.003906-1.820313 1.203125-3.140625 2.835937-3.125zm-1.457031 3.160156c.070312.945312.476562 1.484375 1.25 1.578125.695312.082031 1.277344-.347656 1.492188-1.175781.089843-.359375.109374-.75.082031-1.121094-.046875-.664062-.441407-1.0625-1.074219-1.179688-.589844-.109374-1.089844.101563-1.367188.671876-.1875.382812-.257812.816406-.382812 1.226562zm0 0"/><path d="m92.820312 57.976562c1.292969-.539062 2.550782-1.0625 3.878907-1.617187.171875.378906.308593.6875.492187 1.089844-.882812.394531-1.699218.757812-2.601562 1.15625.101562.292969.191406.542969.296875.855469.855469-.328126 1.632812-.625 2.480469-.953126.140624.363282.25.652344.394531 1.023438-.808594.351562-1.546875.675781-2.382813 1.042969.128906.332031.25.640625.402344 1.023437.910156-.363281 1.765625-.710937 2.710938-1.089844.160156.359376.296874.660157.441406.980469-.574219.535157-1.28125.664063-1.90625.945313-.636719.292968-1.292969.539062-1.925782.800781-.441406-.488281-1.953124-3.949219-2.28125-5.257813zm0 0"/><path d="m157.492188 62.777344c-.390626-.132813-.652344-.242188-.929688-.3125-.445312-.121094-.671875-.382813-.753906-.851563-.128906-.710937-.324219-1.414062-.496094-2.128906-1.164062.125-.886719 1.304687-1.546875 1.886719-.320313-.128906-.6875-.273438-1.035156-.414063.054687-.714843 1.460937-4.4375 2.011719-5.324219.371093.144532.761718.292969 1.191406.460938-.21875.625-.40625 1.171875-.664063 1.917969.664063-.308594 1.207031-.488281 1.667969-.792969.824219-.539062 1.523438-.28125 2.328125.226562-.792969.671876-1.785156.804688-2.605469 1.382813.144532 1.28125.71875 2.515625.832032 3.949219zm0 0"/><path d="m149.320312 57.417969c.421876.140625.769532.253906 1.117188.371093-.332031 1.164063-1.15625 1.808594-2.234375 1.804688-1.46875-.003906-2.628906-1.03125-2.816406-2.488281-.195313-1.523438.816406-3.097657 2.21875-3.457031 1.632812-.421876 3.296875.761718 3.285156 2.339843 0 .113281-.046875.222657-.085937.378907-.632813-.039063-1.140626-.070313-1.398438-.847657-.269531-.804687-1.371094-.921875-1.96875-.292969-.488281.515626-.679688 1.152344-.636719 1.851563.039063.589844.375 1.039063.886719 1.179687.523438.144532.980469.035157 1.308594-.441406.082031-.117187.179687-.222656.324218-.398437zm0 0"/><path d="m112.9375 57.605469c-1.160156.519531-1.160156.519531-2.074219-.664063-.542969.117188-1.132812.242188-1.691406.363282-.402344 1.453124-.402344 1.453124-1.628906 1.4375.078125-.632813.140625-1.257813.230469-1.882813.15625-1.09375.332031-2.1875.5-3.285156.101562-.671875.183593-.75.769531-.886719.472656-.113281.808593-.046875 1.097656.421875.832031 1.375 1.71875 2.710937 2.582031 4.066406.074219.117188.128906.253907.214844.429688zm-2.71875-1.722657c-.195312-.515624-.382812-.90625-.789062-1.265624-.066407.523437-.121094.9375-.1875 1.460937.398437-.078125.660156-.132813.976562-.195313zm0 0"/><path d="m102.96875 57.734375c0-1.128906 0-2.261719 0-3.449219.449219-.148437.847656-.277344 1.320312-.429687.023438.335937.054688.5625.054688.789062-.011719 1.398438-.023438 2.800781-.042969 4.203125-.011719 1.027344-.019531 1.027344-1 1.308594-.136719.035156-.277343.066406-.507812.125-1.117188-1.585938-2.238281-3.167969-3.4375-4.867188.519531-.175781.914062-.3125 1.367187-.464843.695313.984375 1.367188 1.925781 2.035156 2.871093.070313-.027343.140626-.058593.210938-.085937zm0 0"/><path d="m157.585938 116.175781c.746093.007813 1.191406.457031 1.1875 1.199219-.003907.917969-.75 1.640625-1.683594 1.632812-.777344-.007812-1.277344-.5-1.261719-1.246093.015625-.855469.835937-1.59375 1.757813-1.585938zm0 0"/></g></svg>