<svg width="1024" height="1024" viewBox="0 0 1024 1024" fill="none" xmlns="http://www.w3.org/2000/svg">
<rect width="1024" height="1024" fill="url(#paint0_linear_112_734)"/>
<path d="M238.142 618.487C256.925 612.763 275.247 613.087 293.246 620.4C311.259 627.72 324.656 640.261 333.896 656.951C342.863 656.951 351.55 656.951 360.323 656.951C390.992 600.193 471.919 600.539 502.186 656.951C510.872 656.951 519.458 656.951 528.425 656.951C528.842 656.283 529.468 655.276 530.079 654.269C543.771 631.762 563.596 617.941 589.764 615.201C622.857 611.735 648.938 624.621 667.138 652.586C669.598 656.369 671.683 657.692 676.199 656.995C680.988 656.261 685.979 656.836 690.883 656.93C692.659 656.966 694.435 657.246 695.967 657.39C717.166 622.974 747.289 609.369 787.191 616.646C787.529 615.812 788.04 614.762 788.392 613.662C794.188 595.728 798.2 577.413 800.235 558.651C802.314 539.523 801.947 520.381 801.048 501.217C800.422 487.814 799.279 474.446 797.215 461.186C796.057 453.743 794.562 446.351 793.21 438.93C793.037 437.988 792.735 437.067 792.627 436.118C792.383 434.047 793.282 432.616 794.964 432.242C796.633 431.868 798.085 432.738 798.783 434.723C799.214 435.96 799.452 437.268 799.732 438.556C802.457 451.204 804.327 463.983 805.65 476.862C807.498 494.875 808.426 512.931 808.311 531.031C808.124 560.111 803.637 588.537 794.317 616.085C772.471 680.703 732.288 731.097 675.178 768.037C641.165 790.041 603.981 804.092 564.042 810.938C542.455 814.641 520.717 816.094 498.892 814.929C425.832 811.031 361.991 784.677 308.016 735.153C271.263 701.427 244.887 660.849 229.506 613.295C223.221 593.865 219.28 573.946 217.461 553.589C215.663 533.462 216.131 513.399 218.173 493.322C220.747 468.067 226.895 443.618 234.316 419.435C234.597 418.522 234.899 417.587 235.388 416.782C236.129 415.559 237.279 414.919 238.746 415.336C240.314 415.782 241.212 416.861 241.069 418.515C240.975 419.572 240.659 420.621 240.342 421.643C235.467 437.678 231.066 453.836 227.952 470.325C223.997 491.244 222.581 512.342 222.868 533.605C223.25 561.247 227.902 588.141 236.603 614.352C237.063 615.697 237.588 616.991 238.142 618.487ZM496.239 742.761C480.742 717.679 458.961 704.232 429.982 704.685C402.081 705.116 381.162 718.549 366.32 742.789C369.312 743.71 371.749 744.451 374.137 745.184C387.871 724.258 406.611 712.638 431.528 712.717C456.401 712.796 475.047 724.604 488.437 745.198C490.997 744.4 493.255 743.695 496.239 742.761ZM580.164 784.878C573.534 773.265 564.998 764.283 554.083 757.545C540.039 748.88 524.701 745.457 508.363 746.924C492.636 748.334 478.729 754.367 466.792 764.736C460.277 770.395 454.79 776.903 450.605 784.907C453.51 785.763 455.876 786.46 458.163 787.129C484.093 744.221 545.727 743.537 572.47 787.129C574.778 786.453 577.158 785.755 580.164 784.878ZM495.858 658.879C485.567 638.917 461.895 619.875 430.356 620.551C402.318 621.148 381.234 634.343 366.313 658.749C369.305 659.655 371.742 660.389 374.144 661.122C387.785 640.297 406.46 628.677 431.182 628.648C456.042 628.619 474.81 640.283 488.372 661.086C490.817 660.36 493.19 659.662 495.858 658.879ZM534.286 742.804C537.263 743.688 539.722 744.415 542.131 745.127C555.744 724.338 574.39 712.746 599.148 712.717C624.058 712.688 642.768 724.409 656.366 745.191C658.854 744.4 661.263 743.638 663.744 742.847C653.31 722.561 628.796 703.318 596.79 704.634C569.349 705.763 548.761 718.923 534.286 742.804ZM579.812 700.917C570.571 682.019 545.015 659.713 508.708 662.819C492.715 664.185 478.621 670.355 466.504 680.919C459.213 687.275 452.166 696.473 451.173 701.003C453.525 701.715 455.883 702.434 458.156 703.132C484.431 659.936 546.007 659.72 572.47 703.081C574.778 702.398 577.158 701.701 579.812 700.917ZM663.521 658.85C656.108 638.104 624.201 619.53 598.019 620.429C581.624 620.99 566.767 625.958 553.795 636.098C545.928 642.246 539.392 649.559 534.566 658.756C536.774 659.475 538.557 660.079 540.362 660.626C540.916 660.791 541.52 660.806 542.232 660.906C555.657 640.261 574.426 628.612 599.27 628.633C624.115 628.655 642.847 640.369 656.359 661.151C658.847 660.36 661.184 659.605 663.521 658.85ZM283.315 698.961C284.955 702.376 287.702 702.405 290.183 703.081C303.709 682.213 322.549 670.607 347.401 670.657C372.224 670.708 391 682.458 404.353 703.139C405.727 702.722 406.87 702.384 408.006 702.031C409.221 701.65 410.429 701.255 412.119 700.715C398.219 677.776 378.566 664.423 352.147 662.841C322.247 661.043 299.517 673.994 283.315 698.961ZM744.786 695.919C733.101 676.748 707.566 659.785 675.897 662.877C660.717 664.358 647.198 670.125 635.52 680.005C628.638 685.83 622.921 692.597 618.549 700.859C621.39 701.701 623.77 702.405 626.186 703.124C639.518 682.515 658.099 670.887 682.635 670.657C707.127 670.427 725.946 681.652 739.767 702.11C741.55 699.91 743.111 697.983 744.786 695.919ZM398.119 705.677C391.014 691.266 370.707 675.633 345.359 676.547C324.75 677.294 300.581 691.849 296.561 705.67C297.028 705.958 297.517 706.288 298.035 706.554C299.624 707.374 301.221 708.165 302.968 709.05C313.704 693.445 328.244 684.636 347.329 684.665C366.378 684.694 380.868 693.575 391.553 709.071C393.941 707.842 396.033 706.756 398.119 705.677ZM650.218 663.589C641.769 645.971 618.815 633.552 595.689 634.746C575.037 635.81 559.339 645.892 547.841 663.423C550.494 664.718 552.709 665.796 555.01 666.925C565.876 651.256 580.416 642.591 599.342 642.634C618.247 642.67 632.737 651.443 643.394 666.882C644.185 666.558 644.746 666.379 645.264 666.12C646.867 665.329 648.449 664.502 650.218 663.589ZM734.64 705.44C722.588 687.125 706.049 677.05 684.555 676.64C662.004 676.209 644.581 686.262 632.119 705.059C632.6 705.562 632.795 705.907 633.089 706.058C634.988 707.043 636.908 707.993 638.986 709.035C649.772 693.467 664.298 684.629 683.404 684.672C702.46 684.716 716.943 693.639 727.578 709.057C729.958 707.834 731.972 706.806 734.64 705.44ZM482.324 663.553C473.055 645.439 450.699 633.423 427.407 634.76C406.927 635.939 391.33 645.992 379.897 663.409C382.5 664.71 384.686 665.803 387.03 666.968C397.853 651.364 412.349 642.627 431.254 642.634C450.289 642.634 464.858 651.45 475.572 667.062C477.923 665.839 480.03 664.746 482.324 663.553ZM555.003 751.03C565.789 735.304 580.387 726.653 599.234 726.66C618.19 726.667 632.823 735.469 643.516 751.102C645.947 749.844 648.039 748.758 650.125 747.679C644.314 735.304 624.734 718.578 599.22 718.57C574.081 718.563 554.313 734.987 548.366 747.564C548.855 747.866 549.329 748.211 549.854 748.477C551.436 749.283 553.04 750.06 555.003 751.03ZM471.049 709.078C481.879 693.424 496.332 684.68 515.295 684.665C534.379 684.658 548.898 693.524 559.62 709.05C562.036 707.77 564.2 706.626 566.703 705.303C553.594 685.88 535.825 675.792 512.814 676.676C491.802 677.481 475.651 687.506 464.009 705.433C466.54 706.749 468.633 707.834 471.049 709.078ZM566.3 789.653C557.923 773.826 537.098 759.343 512.311 760.645C492.269 761.694 468.748 776.119 464.577 789.782C466.023 790.537 467.497 791.314 468.971 792.069C469.596 792.393 470.244 792.68 471.085 793.076C481.728 777.601 496.138 768.821 515.086 768.734C534.193 768.655 548.725 777.435 559.577 793.076C561.914 791.889 564.107 790.775 566.3 789.653ZM387.052 751.066C397.888 735.253 412.522 726.639 431.391 726.667C450.246 726.696 464.822 735.44 475.565 751.117C477.938 749.873 480.095 748.736 482.67 747.392C469.05 727.3 450.684 717.636 426.731 718.765C408.474 719.62 385.506 733.858 380.537 747.571C380.983 747.881 381.436 748.276 381.946 748.535C383.514 749.34 385.125 750.11 387.052 751.066ZM243.089 631.639C258.118 627.138 272.579 627.469 286.803 632.919C301.149 638.413 312.093 648.071 320.226 661.158C322.873 660.338 325.217 659.612 328.007 658.742C318.551 642.426 305.478 631.078 288.148 624.858C272.371 619.199 256.45 618.99 240.148 624.297C241.184 626.886 242.054 629.065 243.089 631.639ZM785.149 623.025C754.731 614.266 717.741 629.252 702.841 658.886C705.351 659.634 707.803 660.36 710.119 661.05C727.693 635.048 751.632 624.736 782.38 629.964C783.294 627.67 784.164 625.484 785.149 623.025ZM470.373 754.309C460.227 739.374 446.463 731.982 428.824 732.679C409.912 733.42 395.954 746.363 392.711 754.698C394.595 756.121 396.537 757.588 398.55 759.12C406.611 747.262 417.225 740.711 431.29 740.719C445.471 740.726 456.135 747.428 464.016 759.12C466.123 757.516 468.022 756.086 470.373 754.309ZM482.626 717.118C490.443 705.253 501.237 698.673 515.352 698.666C529.482 698.659 540.219 705.361 548.021 717.003C549.229 716.097 550.2 715.392 551.142 714.659C552.155 713.875 553.141 713.069 554.097 712.307C547.474 700.514 531.496 688.656 510.218 690.813C495.397 692.316 480.785 702.722 476.744 712.681C478.599 714.083 480.483 715.507 482.626 717.118ZM566.473 759.027C567.242 758.027 567.688 757.466 568.112 756.891C584.04 735.146 614.177 735.138 630.292 756.862C630.824 757.581 631.5 758.2 632.155 758.912C633.363 758.027 634.326 757.33 635.275 756.603C636.203 755.891 637.116 755.151 638.267 754.245C628.372 739.633 614.86 732.233 597.494 732.643C578.539 733.096 564.294 745.824 560.619 754.604C562.46 755.999 564.344 757.416 566.473 759.027ZM722.041 712.53C715.612 699.141 698.189 689.85 680.42 690.777C664.809 691.597 652.915 699.177 644.228 712.278C645.501 713.271 646.429 714.026 647.385 714.73C648.406 715.486 649.463 716.19 650.506 716.917C665.535 693.366 700.044 691.82 716.195 716.924C718.101 715.493 719.992 714.069 722.041 712.53ZM464.153 674.979C466.174 673.397 468.173 671.837 470.33 670.154C460.442 655.707 447.146 648.214 430.061 648.631C413.91 649.02 401.39 656.484 392.244 670.247C394.523 671.973 396.472 673.455 398.442 674.943C413.975 650.947 447.837 650.106 464.153 674.979ZM554.306 796.146C544.325 781.635 530.885 774.106 513.281 774.803C497.317 775.436 485.237 782.994 476.226 796.333C478.556 798.073 480.527 799.555 482.511 801.043C497.655 777.349 531.769 775.911 548.165 800.928C549.588 799.871 551.012 798.821 552.422 797.75C552.982 797.326 553.493 796.844 554.306 796.146ZM638.31 670.269C628.631 655.894 615.45 648.38 598.573 648.603C582.185 648.811 569.421 656.326 560.152 670.226C562.482 671.937 564.452 673.383 566.566 674.929C574.57 663.179 585.227 656.628 599.227 656.635C613.357 656.635 624.05 663.337 631.96 675.065C634.103 673.447 635.987 672.024 638.31 670.269ZM314.517 717.089C322.463 705.224 333.235 698.637 347.387 698.666C361.488 698.695 372.174 705.425 380.026 717.118C382.27 715.327 384.19 713.803 386.289 712.127C375.805 697.062 361.855 689.598 343.87 690.792C328.568 691.806 316.839 699.263 308.225 712.278C310.447 713.983 312.395 715.471 314.517 717.089ZM333.652 748.327C335.867 750.009 337.851 751.462 339.764 753.001C341.339 754.266 343.043 754.64 345.071 754.647C349.012 754.669 353.003 754.705 356.871 755.33C376.33 758.459 391.56 768.296 402.555 784.677C403.08 785.461 403.641 786.216 404.288 787.129C405.604 786.762 406.856 786.431 408.092 786.05C409.3 785.683 410.501 785.266 411.745 784.856C396.242 755.064 360.69 741.696 333.652 748.327ZM618.902 784.95C620.153 785.345 621.368 785.755 622.598 786.108C625.877 787.064 626.315 786.877 628.279 784.173C629.825 782.045 631.32 779.866 633.039 777.881C645.515 763.492 661.328 755.841 680.305 754.626C684.591 754.352 689.61 751.311 692.328 747.521C664.032 742.423 631.234 759.314 618.902 784.95ZM334.17 741.445C335.428 741.366 336.6 741.258 337.779 741.229C343.266 741.092 348.854 740.28 354.211 741.064C358.942 741.754 361.438 740.603 363.458 736.447C364.501 734.304 364.868 732.571 364.062 730.399C361.567 723.698 355.225 718.966 348.278 718.729C340.397 718.455 333.832 722.525 330.811 729.472C329.704 732.017 329.222 734.369 331.293 736.771C332.437 738.094 333.17 739.776 334.17 741.445ZM696.348 741.344C697.534 739.41 698.642 737.439 699.915 735.577C700.814 734.268 700.878 733.053 700.432 731.543C698.419 724.726 692.335 719.462 685.511 718.779C677.724 718.002 670.82 721.67 667.354 728.365C665.765 731.428 664.996 734.398 667.671 737.303C668.145 737.821 668.519 738.482 668.771 739.144C669.547 741.186 670.986 741.653 673.028 741.344C679.924 740.301 686.834 740.373 693.745 741.33C694.565 741.438 695.406 741.344 696.348 741.344ZM501.999 741.035C510.966 741.035 519.516 741.035 528.425 741.035C529.346 739.554 530.389 737.684 531.625 735.944C532.869 734.196 532.855 732.485 532.165 730.543C529.626 723.431 523.075 718.743 515.467 718.707C507.831 718.671 501.186 723.252 498.54 730.249C497.67 732.55 497.67 734.549 499.252 736.584C500.338 737.979 501.136 739.611 501.999 741.035ZM444.579 783.016C445.456 781.585 446.478 779.686 447.729 777.96C448.843 776.421 448.851 774.89 448.362 773.207C446.255 765.937 438.683 760.443 430.988 760.601C422.978 760.767 415.751 766.476 414.011 774.113C413.816 774.962 413.831 776.069 414.226 776.803C415.463 779.096 416.923 781.268 418.001 783.016C427.048 783.016 435.619 783.016 444.579 783.016ZM586.456 783.699C595.157 782.11 603.707 782.44 612.185 783.576C613.588 781.29 614.961 779.327 616.018 777.198C616.493 776.234 616.651 774.875 616.399 773.833C614.623 766.383 607.468 760.832 599.58 760.616C591.849 760.407 584.428 765.743 582.185 773.114C581.753 774.53 581.566 775.861 582.458 777.22C583.774 779.204 584.968 781.268 586.456 783.699ZM418.39 699.622C427.134 698.177 435.591 698.299 444.198 699.579C445.363 697.688 446.406 695.818 447.635 694.071C448.872 692.302 448.807 690.533 448.167 688.62C445.687 681.199 438.51 676.381 430.391 676.726C422.525 677.057 415.801 682.458 414.054 689.979C413.831 690.921 413.917 692.151 414.356 692.985C415.499 695.2 416.923 697.271 418.39 699.622ZM612.264 699.385C613.53 697.314 615.004 695.15 616.198 692.834C616.629 691.993 616.651 690.734 616.421 689.778C614.616 682.278 607.54 676.849 599.551 676.719C591.468 676.59 584.32 681.638 582.221 689.131C581.897 690.289 581.897 691.82 582.408 692.863C583.537 695.2 585.076 697.336 586.341 699.392C590.814 699.083 594.97 698.565 599.134 698.565C603.405 698.565 607.684 699.076 612.264 699.385ZM248.727 644.36C273.529 639.032 292.958 646.582 307.52 666.968C308.685 666.393 309.749 665.882 310.792 665.329C311.914 664.739 313.014 664.113 314.423 663.344C306.211 650.357 295.209 641.678 280.935 637.241C269.257 633.61 257.557 633.545 245.635 637.234C246.095 638.463 246.347 639.247 246.685 639.995C247.303 641.405 247.986 642.792 248.727 644.36ZM723.019 667.033C736.164 648.027 754.206 640.319 776.807 643.181C777.864 640.693 778.785 638.521 779.72 636.328C759.88 630.295 729.297 639.672 716.332 663.574C718.518 664.703 720.704 665.832 723.019 667.033ZM324.908 727.617C329.79 718.01 336.981 712.695 347.372 712.703C357.741 712.71 364.753 718.348 369.65 727.422C371.713 725.186 373.468 723.28 375.309 721.281C368.787 710.265 359.273 704.498 346.818 704.642C334.68 704.785 325.447 710.56 319.198 721.289C321.089 723.388 322.83 725.323 324.908 727.617ZM576.964 769.446C581.681 760.055 588.959 754.726 599.242 754.705C609.625 754.683 616.831 760.292 621.598 769.533C622.972 768.022 624.014 766.879 625.05 765.736C627.373 763.19 627.373 763.19 625.395 760.321C612.861 742.056 585.255 742.164 572.887 760.537C572.304 761.407 571.851 762.363 571.305 763.356C573.225 765.419 574.987 767.318 576.964 769.446ZM711.348 721.245C704.646 710.265 695.197 704.447 682.728 704.649C670.597 704.843 661.443 710.689 655.18 721.31C657.186 723.482 658.984 725.431 660.911 727.509C669.742 708.863 695.197 706.77 705.754 727.379C707.559 725.395 709.306 723.489 711.348 721.245ZM408.905 769.59C413.665 760.213 420.863 754.741 431.175 754.698C441.609 754.655 448.865 760.22 453.654 769.561C455.74 767.26 457.48 765.333 459.378 763.24C452.396 751.994 442.638 746.119 429.442 746.795C417.779 747.392 409.236 753.202 403.231 763.291C405.159 765.427 406.892 767.361 408.905 769.59ZM576.928 685.435C581.868 675.863 589.11 670.621 599.465 670.686C609.805 670.744 616.802 676.36 621.591 685.514C623.619 683.256 625.345 681.329 627.25 679.207C620.836 668.608 611.79 662.812 599.558 662.69C587.017 662.567 577.734 668.371 571.183 679.15C573.131 681.271 574.879 683.184 576.928 685.435ZM543.145 721.361C538.421 711.466 526.8 703.944 514.044 704.62C502.207 705.246 493.334 710.97 487.25 721.296C489.292 723.525 491.033 725.431 492.974 727.552C497.742 718.197 504.854 712.746 515.252 712.703C525.736 712.659 532.862 718.268 537.659 727.437C539.658 725.229 541.333 723.367 543.145 721.361ZM408.912 685.478C413.701 676.209 420.813 670.722 431.19 670.686C441.681 670.65 448.836 676.259 453.69 685.485C455.761 683.191 457.501 681.264 459.364 679.207C452.389 667.889 442.587 662.028 429.414 662.718C417.786 663.33 409.207 669.14 403.21 679.25C405.159 681.386 406.906 683.292 408.912 685.478ZM487.351 805.178C490.759 809.205 493.808 809.241 496.67 805.703C506.342 793.744 523.823 793.673 533.847 805.552C536.522 808.73 540.283 808.615 543.224 805.013C537.011 794.629 527.843 788.84 515.697 788.711C503.243 788.581 493.823 794.356 487.351 805.178ZM479.426 807.055C463.017 790.767 432.944 784.504 412.759 791.479C416.873 792.874 420.432 794.068 423.977 795.283C426.94 796.297 429.946 796.779 433.117 796.765C441.609 796.736 449.872 798.419 457.437 802.179C464.225 805.552 471.488 805.631 479.426 807.055ZM251.877 650.393C253.696 654.88 253.984 655.355 255.853 657.117C272.889 654.744 286.127 660.77 295.935 675.037C298.021 673.44 299.977 671.952 301.882 670.492C293.059 653.521 269.149 644.418 251.877 650.393ZM552.285 805.329C552.335 805.609 552.386 805.89 552.436 806.163C554.133 805.933 555.837 805.717 557.534 805.458C563.798 804.516 569.975 803.459 575.943 801.036C580.322 799.26 585.112 798.411 589.771 797.412C593.029 796.707 596.452 796.736 599.666 795.902C604.052 794.758 608.317 793.126 612.617 791.659C613.293 791.429 613.89 790.976 615.134 790.278C591.245 785.798 570.607 790.911 552.285 805.329ZM773.787 649.372C757.356 645.884 736.488 655.29 728.549 670.463C730.455 671.93 732.403 673.433 734.517 675.051C735.308 674.008 735.948 673.174 736.574 672.326C742.111 664.825 749.359 659.799 758.442 657.685C761.555 656.959 764.82 656.879 768.027 656.599C769.127 656.498 770.163 656.541 770.753 655.348C771.673 653.449 772.658 651.573 773.787 649.372ZM258.686 663.394C259.607 665.012 260.477 666.292 261.103 667.687C262.102 669.917 263.77 670.664 266.151 670.916C273.78 671.743 279.504 675.72 283.589 682.141C284.214 683.126 284.782 684.147 285.581 685.485C287.594 683.27 289.385 681.3 291.067 679.445C285.53 667.601 270.041 660.432 258.686 663.394ZM766.51 663.085C756.709 661.812 743.995 669.622 739.407 679.473C741.169 681.372 742.988 683.328 745.031 685.521C748.525 678.402 753.494 673.699 760.671 671.499C761.383 671.283 762.066 670.564 762.49 669.895C763.835 667.802 765.036 665.616 766.51 663.085ZM352.794 761.342C365.702 770.23 379.365 777.622 393.847 783.49C383.384 770.137 369.729 762.68 352.794 761.342ZM327.949 742.818C319.867 728.537 308.836 718.383 294.102 711.336C298.265 718.002 322.779 740.934 327.949 742.818ZM639.813 779.895C651.081 775.012 661.81 769.159 671.856 762.083C659.099 764.298 648.392 770.194 639.813 779.895ZM502.833 808.572C511.39 809.104 519.408 809.025 527.62 808.256C522.586 800.971 507.881 801.086 502.833 808.572ZM267.165 677.517C271.235 683.22 275.067 688.599 279.461 694.768C280.051 692.82 280.777 691.719 280.612 690.763C279.612 684.924 274.176 678.265 267.165 677.517ZM707.789 735.002C714.153 730.32 723.566 720.857 724.824 718.002C717.993 722.792 712.369 728.336 707.789 735.002Z" fill="white"/>
<path d="M177.738 366.114C176.523 363.511 177.724 361.21 179.773 359.074C186.173 352.387 193.796 347.468 202.216 343.815C209.565 340.63 217.037 337.739 225.019 334.489C220.51 333.82 216.433 333.187 212.341 332.619C209.716 332.252 207.128 332.151 204.539 333.115C202.942 333.705 201.267 333.439 199.915 332.813C198.534 329.225 201.238 327.01 202.324 323.968C198.635 324.587 195.967 326.19 193.731 328.621C193.005 329.412 192.372 330.325 191.53 330.972C190.466 331.799 189.193 332.382 187.928 331.325C186.82 330.397 186.439 329.131 186.935 327.758C187.489 326.226 188.165 324.738 189.014 322.695C184.821 324.313 181.902 326.571 179.744 329.829C178.623 331.526 177.609 333.295 176.437 334.963C174.883 337.185 174.711 337.235 171.46 337.976C169.138 335.582 170.749 332.799 170.871 329.714C168.138 331.418 166.506 333.547 165.183 335.941C164.025 338.041 162.968 340.191 161.882 342.319C160.962 344.124 159.631 345.383 157.359 345.714C155.353 343.865 155.619 341.557 156.115 339.17C156.561 337.02 156.928 334.848 157.043 332.597C153.792 335.934 151.527 339.817 149.557 343.88C148.773 345.498 148.119 347.173 147.313 348.777C146.22 350.956 145.926 351.15 143.064 352.265C141.388 350.92 141.179 349.079 141.374 347.101C141.704 343.779 142.028 340.464 142.424 336.452C141.316 337.379 140.662 337.796 140.158 338.357C135.096 344.009 130.487 349.949 127.876 357.205C127.056 359.477 125.338 360.908 123.109 361.972C120.52 360.052 120.362 357.377 120.649 354.58C120.901 352.142 121.21 349.712 121.182 347.188C118.672 349.748 117.133 352.789 115.853 355.975C114.961 358.197 114.12 360.441 113.307 362.691C112.459 365.028 110.704 366.265 108.54 367.056C105.232 364.309 106.519 360.57 106.045 357.097C102.147 359.642 100.867 364.892 95.9198 366.014C93.8919 363.863 94.2515 361.39 94.9562 359.161C98.8896 346.72 104.254 334.992 113.343 325.37C118.197 320.229 123.288 315.325 128.286 310.32C132.629 305.962 137.541 302.338 142.898 299.339C156.36 291.789 170.439 285.907 185.842 283.692C196.722 282.124 207.573 282.225 218.36 284.476C219.021 284.612 219.704 284.67 221.243 284.885C218.309 282.095 215.8 280.139 212.945 278.658C209.544 276.896 206.078 275.257 202.64 273.567C200.073 272.309 199.922 272.143 198.319 269.008C201.404 265.247 205.876 267.57 209.932 266.556C206.257 262.651 202.281 259.717 197.607 257.761C194.184 256.33 190.696 255.05 187.281 253.598C185.979 253.044 184.57 252.411 183.628 251.419C182.93 250.685 182.491 249.211 182.707 248.248C182.88 247.5 184.196 246.63 185.102 246.515C187.467 246.205 189.876 246.285 192.271 246.198C193.199 246.162 194.133 246.098 195.608 246.011C193.925 244.005 192.149 242.926 190.294 241.927C182.901 237.936 175.286 234.484 167.34 231.73C165.478 231.083 163.666 229.968 162.155 228.681C160.552 227.315 161.264 225.251 163.371 225.215C168.03 225.129 172.69 225.337 177.35 225.503C179.615 225.582 181.873 225.834 184.368 226.028C184.483 224.812 184.577 223.799 184.67 222.785C186.863 221.152 189.15 221.411 191.473 222.389C196.406 224.467 201.339 226.553 206.466 228.717C206.559 228.444 206.674 228.027 206.847 227.624C207.811 225.424 208.961 224.892 211.032 225.877C212.104 226.387 213.053 227.15 214.024 227.854C219.237 231.615 223.796 235.966 226.622 242.286C226.982 241.474 227.169 240.891 227.478 240.388C228.873 238.159 230.757 238.044 232.274 240.194C232.95 241.157 233.353 242.322 233.827 243.415C236.459 249.571 239.077 255.733 241.888 262.328C242.679 261.141 243.226 260.321 243.83 259.415C246.649 260.142 248.044 262.04 248.921 264.55C251.251 271.216 253.646 277.86 256.033 284.504C256.335 285.346 256.731 286.151 257.363 287.611C257.788 285.928 258.075 284.936 258.291 283.922C261.031 271.331 266.294 259.854 273.802 249.434C278.771 242.538 284.042 235.851 289.248 229.127C290.183 227.919 291.348 226.761 292.649 226.006C295.317 224.453 297.381 225.69 297.532 228.775C297.568 229.458 297.345 230.155 297.683 231.176C298.495 230.256 299.308 229.343 300.106 228.415C304.982 222.756 310.253 217.542 316.811 213.832C318.457 212.897 320.27 212.178 322.089 211.639C323.628 211.186 325.289 211.351 326.26 212.904C327.151 214.335 326.511 215.687 325.569 216.866C324.304 218.456 322.988 219.995 321.888 222.015C322.937 221.497 324.016 221.03 325.023 220.448C332.882 215.889 341.432 213.954 350.428 213.609C355.333 213.422 360.237 212.969 365.141 212.991C367.212 212.998 369.333 213.767 371.34 214.45C372.634 214.889 373.669 216.083 373.281 217.521C373.001 218.542 372.167 219.685 371.26 220.21C369.837 221.03 368.154 221.433 366.543 221.9C360.798 223.583 355.045 225.208 349.292 226.869C348.738 227.027 348.199 227.25 347.214 227.603C348.889 228.271 350.299 228.559 351.349 229.328C352.334 230.055 352.945 231.291 353.664 232.234C352.427 234.657 350.4 234.973 348.386 235.225C343.755 235.8 339.117 236.311 334.414 237.289C335.55 237.612 336.823 237.727 337.794 238.324C338.729 238.892 339.93 239.942 339.958 240.812C339.987 241.711 338.858 242.79 337.995 243.509C337.413 243.998 336.442 244.048 335.629 244.221C331.682 245.048 327.727 245.853 323.175 246.788C324.627 247.529 325.598 247.881 326.411 248.463C328.496 249.959 328.424 252.001 326.209 253.368C325.418 253.857 324.44 254.029 323.534 254.324C320.816 255.216 318.098 256.1 315.193 257.042C317.192 257.97 318.932 258.775 320.866 259.667C319.91 262.177 318.199 263.334 316.257 264.298C312.094 266.354 307.937 268.433 303.802 270.784C306.441 271.18 309.332 270.252 311.504 272.762C311.137 274.904 309.756 276.242 307.959 277.342C303.881 279.83 299.847 282.376 295.914 285.554C297.704 285.382 299.509 285.274 301.286 285.015C303.766 284.655 306.053 284.878 308.059 286.813C307.448 289.387 305.305 290.444 303.27 291.702C297.877 295.039 292.541 298.476 287.191 301.892C286.803 302.137 286.501 302.518 286.35 303.244C287.321 302.82 288.313 302.446 289.248 301.964C301.681 295.643 314.618 290.667 328.201 287.467C340.541 284.562 352.837 284.792 365.206 287.668C379.005 290.876 391.776 296.477 403.843 303.704C408.128 306.271 412.076 309.486 415.851 312.786C420.705 317.022 424.229 322.321 426.3 328.47C428.63 335.38 431.377 342.212 432.959 349.295C435.022 358.528 433.893 367.89 432.045 377.116C431.671 378.993 431.319 380.877 430.852 382.732C430.269 385.019 428.996 386.278 427.378 386.342C425.725 386.407 423.805 384.926 423.409 382.761C422.74 379.115 422.345 375.419 421.863 371.738C421.446 368.595 421.072 365.445 420.116 362.281C419.591 363.727 419.152 365.208 418.512 366.596C417.966 367.775 417.39 369.098 416.441 369.875C415.664 370.508 414.183 370.831 413.248 370.537C412.558 370.314 412.033 368.933 411.839 367.984C411.63 366.963 411.94 365.841 411.947 364.762C411.968 360.469 411.954 356.176 411.609 351.768C409.48 354.817 409.236 359.161 404.684 360.563C401.052 354.767 402.98 347.979 401.455 341.845C399.945 344.096 398.413 346.433 396.817 348.727C396.342 349.403 395.738 350.028 395.091 350.546C392.689 352.48 389.899 351.438 389.583 348.367C389.374 346.354 389.612 344.297 389.662 342.262C389.705 340.709 389.813 339.148 389.806 337.595C389.799 336.401 389.648 335.215 389.18 333.906C388.044 337.099 386.843 340.27 385.779 343.492C385.002 345.843 383.413 347.224 381.126 348.072C378.027 344.743 379.12 340.594 378.502 336.293C377.682 338.17 377.114 339.58 376.46 340.946C375.992 341.91 375.546 342.938 374.849 343.722C373.188 345.606 370.973 345.268 370.009 342.959C369.563 341.895 369.499 340.644 369.405 339.472C369.261 337.724 369.247 335.963 369.146 333.316C366.097 337.502 365.565 342.586 360.424 343.894C356.555 340.968 357.217 336.049 355.678 331.562C355.146 332.468 354.851 332.964 354.57 333.46C353.664 335.085 352.586 336.545 350.464 336.423C348.48 336.308 347.703 334.762 346.984 333.209C346.344 331.813 345.668 330.433 344.791 328.585C343.992 330.692 343.468 332.367 342.741 333.942C340.814 338.106 338.391 338.4 335.536 334.877C334.486 333.575 333.451 332.267 332.257 330.771C328.086 335.618 324.8 330.62 320.924 329.894C319.112 333.554 315.358 333.431 311.418 334.359C312.863 334.683 313.719 334.884 314.582 335.064C319.263 336.02 323.987 336.811 328.618 337.969C336.5 339.932 344.388 341.931 351.881 345.196C354.376 346.282 356.282 347.626 356.023 351.136C354.362 351.524 352.607 351.934 350.572 352.416C352.082 353.012 353.384 353.552 354.7 354.041C361.373 356.522 367.492 360.038 373.252 364.173C374.46 365.043 375.438 366.344 376.222 367.632C376.603 368.257 376.287 369.3 376.287 370.724C376.007 370.371 376.107 370.637 376.294 370.716C385.434 374.42 392.999 380.475 400.42 386.767C402.368 388.421 403.476 390.355 403.541 393.332C397.543 394.468 393.581 389.801 388.166 388.399C388.857 389.226 389.36 389.895 389.928 390.506C393.171 394.029 396.709 397.323 399.586 401.12C401.714 403.931 403.433 407.239 404.554 410.583C406.755 417.155 408.495 423.893 410.264 430.602C411.034 433.515 411.443 436.542 408.984 439.037C408.826 439.196 408.574 439.253 407.862 439.613C406.611 438.397 405.223 437.053 403.67 435.55C404.468 445.128 403.454 454.512 402.785 463.896C402.67 465.55 402.332 467.219 401.836 468.794C401.426 470.095 400.499 471.102 398.881 470.85C397.292 470.606 396.81 469.484 396.608 468.053C395.947 463.429 395.264 458.812 394.516 454.203C393.027 444.97 391.244 435.809 387.145 427.287C386.85 426.669 386.534 426.058 385.894 424.756C385.441 427.021 385.153 428.589 384.808 430.149C384.6 431.077 384.549 432.199 383.981 432.846C383.269 433.666 382.104 434.557 381.141 434.55C380.177 434.543 379.02 433.637 378.308 432.817C377.74 432.156 377.646 431.048 377.445 430.114C375.733 422.218 372.605 414.847 369.089 407.613C368.995 407.419 368.758 407.297 368.456 407.016C366.982 410.626 368.593 415.466 363.94 417.831C361.948 416.817 361.157 414.948 360.755 412.755C359.575 406.369 357.289 400.379 353.794 394.59C353.664 396.388 353.535 398.179 353.42 399.976C353.355 400.926 353.391 401.896 353.233 402.831C352.988 404.197 351.953 405.017 350.702 404.938C349.76 404.881 348.595 404.327 348.012 403.601C347.394 402.831 347.264 401.623 347.049 400.58C345.61 393.562 342.943 387.083 338.757 381.251C338.405 380.762 338.053 380.28 337.664 379.827C337.535 379.676 337.269 379.64 336.651 379.374C336.651 383.79 336.701 388.047 336.622 392.289C336.6 393.699 336.528 395.223 335.982 396.482C335.572 397.438 334.364 398.675 333.53 398.66C332.458 398.639 331.027 397.733 330.43 396.784C329.639 395.532 329.337 393.893 329.122 392.383C328.316 386.831 325.843 382.042 322.607 377.052C322.607 380.137 322.549 382.718 322.621 385.3C322.7 387.816 322.11 390.003 320.075 391.786C317.789 391.038 316.696 389.298 315.682 387.335C313.481 383.092 311.187 378.9 308.829 374.736C308.218 373.658 307.24 372.787 306.427 371.817C306.154 371.896 305.888 371.975 305.614 372.047C305.614 374.499 305.694 376.958 305.586 379.41C305.514 381.071 305.442 382.812 304.888 384.343C304.55 385.292 303.443 386.285 302.465 386.601C301.07 387.054 299.998 385.961 299.265 384.803C298.956 384.314 298.805 383.696 298.668 383.121C297.18 376.814 293.893 371.407 290.204 366.201C288.752 364.151 287.35 362.066 285.919 359.995C284.739 358.283 285.221 357.111 287.105 356.349C289.14 356.996 290.542 358.398 291.7 360.139C294.282 364.022 296.913 367.883 300.07 371.687C299.919 369.796 299.775 367.898 299.603 366.006C299.524 365.172 299.272 364.345 299.286 363.518C299.33 361.016 301.271 359.829 303.457 361.045C304.486 361.613 305.449 362.404 306.233 363.281C309.49 366.927 312.662 370.637 316.243 374.758C315.991 373.233 315.696 372.054 315.631 370.86C315.502 368.689 314.387 366.165 317.005 364.712C318.86 363.684 321.226 364.755 323.326 367.624C325.016 369.94 326.389 372.478 327.878 374.938C328.661 376.232 329.373 377.569 330.66 378.742C330.819 377.131 330.97 375.52 331.135 373.909C331.286 372.442 331.559 370.954 333.192 370.436C334.853 369.911 336.298 370.58 337.384 371.824C340.059 374.894 342.669 378.022 345.294 381.129C345.675 381.575 345.992 382.071 346.56 382.855C347.034 381.395 347.415 380.223 347.825 378.95C350.946 378.871 353.326 379.978 354.743 382.653C356.418 385.825 357.936 389.075 359.467 392.318C360.33 394.144 361.092 396.029 362.085 398.294C362.61 397.603 362.883 397.186 363.207 396.819C364.817 394.971 366.68 394.871 368.283 397.042C370.692 400.3 372.979 403.694 374.892 407.261C376.855 410.907 378.3 414.833 380.177 419.083C381.695 415.516 379.437 411.482 382.881 408.972C385.146 409.404 386.095 411.144 386.973 413.049C391.287 422.412 395.436 431.825 397.45 442.022C397.536 442.46 397.723 442.885 398.075 443.287C398.751 439.534 398.306 435.816 397.773 432.12C397.435 429.754 396.781 427.417 396.623 425.044C396.515 423.483 397.04 421.873 397.356 419.823C399.319 420.564 400.715 421.089 402.498 421.765C400.226 412.453 396.81 404.082 389.504 397.805C384.693 393.67 379.825 389.6 374.935 385.559C373.238 384.149 371.8 382.639 371.304 380.288C374.043 378.073 376.97 379.173 380.041 379.36C379.322 378.95 378.631 378.475 377.883 378.145C372.188 375.635 366.5 373.089 360.755 370.709C358.403 369.738 356.699 368.279 355.448 365.553C356.9 364.683 358.36 363.806 360.093 362.763C356.21 360.491 352.147 358.636 347.919 357.169C344.187 355.874 340.411 354.709 336.643 353.537C334.464 352.861 332.811 351.675 331.89 349.079C333.472 348.115 335.047 347.152 336.564 346.224C327.223 343.082 317.71 339.954 307.513 339.781C304.644 339.731 301.782 339.335 298.905 339.22C296.647 339.127 295.252 337.825 293.793 336.351C295.324 333.64 298.143 333.201 300.847 331.468C298.086 331.087 295.914 330.735 293.728 330.505C291.945 330.318 290.37 329.879 289.895 327.902C289.543 326.449 290.78 324.644 293.016 324.076C296.252 323.249 299.567 322.667 302.882 322.257C309.21 321.48 315.509 321.753 322.297 323.702C321.341 322.357 320.744 321.53 320.169 320.696C319.558 319.812 318.882 318.956 318.378 318.014C317.71 316.763 317.645 315.433 318.738 314.368C319.831 313.311 321.125 313.362 322.369 314.138C323.685 314.965 324.951 315.878 326.252 316.734C330.495 319.524 334.313 322.753 337.06 327.111C337.298 327.485 337.664 327.779 338.225 328.383C339.513 325.823 339.225 323.299 339.469 320.883C339.635 319.215 339.556 317.496 339.937 315.886C340.224 314.663 341.059 313.577 341.713 312.312C347.897 314.778 347.315 321.365 350.824 325.989C351.061 324.536 351.363 323.472 351.392 322.393C351.471 319.762 351.471 317.122 351.421 314.483C351.385 312.491 351.795 310.701 353.262 309.061C355.656 309.608 357.166 310.96 357.785 313.448C359.273 319.474 360.862 325.471 362.538 331.972C362.998 331.03 363.537 330.325 363.696 329.541C364.465 325.672 365.155 321.782 365.831 317.892C366.169 315.936 366.881 314.224 368.693 312.966C370.656 313.915 371.634 315.476 371.987 317.662C372.612 321.545 373.411 325.392 374.245 329.807C375.963 326.629 375.877 323.58 376.481 320.725C377.028 318.122 376.97 318.108 379.429 315.706C384.017 319.424 382.04 325.313 384.549 329.858C384.808 327.715 385.139 325.586 385.312 323.436C385.506 321.027 385.693 318.647 387.785 316.705C389.928 317.223 391.021 318.87 391.92 320.696C394.336 325.622 395.221 330.922 395.544 336.337C395.602 337.257 395.551 338.177 395.551 339.86C398.6 335.157 396.846 329.34 401.074 325.967C403.929 327.707 403.929 327.707 407.301 338.444C407.488 338.4 407.762 338.422 407.855 338.307C410.185 335.466 412.191 335.61 413.622 338.961C414.967 342.118 415.974 345.419 417.239 348.949C417.973 347.684 418.649 346.512 419.425 345.167C421.806 346.267 422.927 348.245 423.488 350.402C424.668 354.911 425.588 359.477 426.573 364.036C426.825 365.187 426.889 366.38 427.112 368.063C428.407 361.814 427.983 351.466 425.962 344.764C424.581 340.191 422.949 335.675 421.173 331.231C418.124 323.58 413.227 317.23 406.41 312.635C401.462 309.306 396.227 306.358 390.935 303.589C382.766 299.31 374.338 295.708 365.256 293.587C356.483 291.537 347.725 291.271 338.844 291.94C325.368 292.947 313.007 297.908 300.717 302.942C294.418 305.523 288.428 308.853 282.294 311.844C279.742 313.088 277.268 314.699 274.039 313.757C273.406 312.06 273.672 310.521 274.406 308.932C276.506 304.373 279.483 300.54 283.625 297.671C285.875 296.111 288.162 294.6 291.146 292.594C287.587 292.558 284.703 294.255 281.942 292.422C281.669 290.149 282.683 288.56 284.408 287.23C287.429 284.907 290.391 282.52 293.886 279.766C289.478 280.211 286.256 283.742 281.999 281.872C281.568 279.866 282.208 278.263 283.61 277.011C285.847 275.027 288.162 273.128 290.485 271.244C291.391 270.511 292.405 269.9 293.426 269.195C291.535 268.907 289.845 268.648 288.126 268.382C287.896 265.628 289.183 264.176 291.017 263.104C295.461 260.515 299.934 257.963 304.406 255.417C305.327 254.892 306.305 254.446 307.937 253.627C303.651 254.029 300.135 256.402 296.489 254.036C296.87 251.484 298.229 249.815 300.466 248.816C304.493 247.018 308.512 245.213 312.554 243.408C311.863 242.991 310.857 242.38 309.785 241.733C310.267 239.554 311.569 238.303 313.438 237.548C316.983 236.124 320.528 234.707 324.074 233.291C323.441 231.22 324.059 229.652 326.13 228.509C327.058 227.998 328.122 227.696 329.143 227.38C336.471 225.143 343.805 222.943 351.133 220.706C352.492 220.289 353.815 219.786 354.671 219.484C341.109 218.125 329.064 223.353 317.702 230.774C316.099 231.824 314.531 232.924 312.892 233.923C311.648 234.678 310.274 235.318 308.858 234.376C307.29 233.334 307.383 231.78 307.801 230.184C307.887 229.853 307.995 229.523 308.304 228.451C307.189 229.458 306.492 229.968 305.952 230.608C302.853 234.269 299.819 237.972 296.705 241.618C295.619 242.89 294.504 244.185 293.196 245.213C290.319 247.471 287.889 246.421 287.407 242.826C287.342 242.358 287.4 241.877 287.4 241.042C286.825 241.409 286.393 241.553 286.163 241.848C278.066 252.167 270.854 262.989 266.445 275.48C263.828 282.886 262.239 290.437 262.426 298.34C262.562 304.208 262.44 310.083 262.57 315.958C262.634 318.942 261.397 321.192 259.305 323.335C257.263 321.387 256.45 319.172 256.464 316.533C256.529 305.114 253.416 294.313 249.942 283.023C249.784 283.512 249.719 283.656 249.691 283.807C249.324 285.712 248.511 287.417 246.332 287.338C244.319 287.266 243.737 285.49 243.341 283.792C241.479 275.839 238.128 268.418 235.043 260.379C234.18 261.608 233.561 262.5 232.849 263.514C230.577 262.464 229.146 260.868 228.132 258.732C225.615 253.432 223.027 248.161 220.431 242.905C219.762 241.553 218.935 240.273 217.626 239.151C217.691 239.892 217.813 240.64 217.813 241.38C217.813 242.797 217.331 244.012 215.929 244.559C214.556 245.091 213.657 244.206 212.844 243.293C210.766 240.978 208.688 238.648 206.639 236.304C204.445 233.801 201.691 232.284 198.297 231.27C198.455 232.888 198.585 234.247 198.721 235.592C196.729 236.627 195.025 236.016 193.371 235.347C191.487 234.585 189.682 233.621 187.784 232.888C186.525 232.399 185.166 232.169 183.656 232.385C184.908 233.039 186.13 233.751 187.41 234.333C194.364 237.49 200.375 241.999 205.984 247.112C207.767 248.737 208.932 250.534 208.702 253.03C205.919 253.749 205.919 253.749 201.396 252.699C202.497 253.476 203.043 253.878 203.611 254.252C204.309 254.72 205.078 255.093 205.718 255.618C209.788 258.962 213.837 262.335 217.885 265.707C218.072 265.858 218.252 266.016 218.417 266.196C221.186 269.166 220.654 271.021 216.67 272.301C216.246 272.438 215.85 272.647 215.16 272.949C216.059 273.639 216.677 274.178 217.353 274.617C223.25 278.435 228.211 283.282 232.634 288.682C233.691 289.977 234.144 291.767 234.956 293.493C233.59 294.219 232.684 294.701 231.692 295.226C231.864 295.55 231.965 295.88 232.181 296.111C233.08 297.06 234.18 297.865 234.892 298.929C235.668 300.087 235.683 301.504 234.554 302.546C233.396 303.611 232.123 303.316 230.965 302.439C230.491 302.079 230.081 301.633 229.635 301.238C222.085 294.507 213.269 290.408 203.259 289.157C196.183 288.272 189.143 289.329 182.189 290.609C167.002 293.407 152.894 299.21 140.417 308.112C126.675 317.913 114.911 329.879 106.663 344.894C106.203 345.735 105.779 346.591 105.376 347.461C105.304 347.619 105.441 347.871 105.534 348.367C107.583 346.181 108.806 342.981 112.732 343.377C113.149 344.534 113.609 345.814 114.048 347.022C117.37 342.665 120.649 338.264 124.036 333.949C125.913 331.555 126.711 331.26 129.897 331.066C131.529 335.804 128.416 339.817 127.79 344.714C128.495 343.887 128.948 343.341 129.415 342.808C134.42 337.171 139.432 331.533 144.444 325.903C145.717 324.479 147.356 323.911 149.197 323.918C151.455 326.557 150.017 329.426 149.629 332.942C150.672 331.72 151.283 331.087 151.808 330.383C154.677 326.55 157.496 322.674 160.408 318.87C161.695 317.187 163.349 316.065 165.772 316.612C167.858 320.099 165.341 323.256 164.852 326.974C167.232 325.917 168.383 323.947 169.936 322.508C171.691 320.876 173.33 319.122 175.006 317.41C176.602 315.778 178.098 313.98 180.859 314.289C182.642 316.044 181.801 318.158 181.089 320.847C185.893 317.662 190.214 314.929 194.371 311.981C196.463 310.5 198.513 310.334 200.792 311.118C200.994 311.19 201.145 311.42 201.454 311.708C201.885 314.174 200.188 316.065 198.685 318.798C202.065 317.777 204.74 316.957 207.422 316.159C208.336 315.886 209.292 315.368 210.176 315.461C211.291 315.584 212.78 315.922 213.312 316.713C213.808 317.446 213.535 318.999 213.11 319.977C212.549 321.264 211.5 322.336 210.673 323.515C210.148 324.27 209.659 325.047 208.932 326.154C213.305 326.773 217.339 327.103 221.25 327.959C227.787 329.39 234.273 331.08 240.731 332.856C242.363 333.302 243.794 334.489 245.16 335.244C244.772 337.724 243.291 338.537 241.637 338.983C240.026 339.422 238.343 339.608 236.704 339.925C222.789 342.643 209.127 346.131 196.844 353.609C194.507 355.033 192.221 356.536 189.352 358.362C191.703 358.844 193.436 359.197 195.32 359.578C194.91 362.159 193.68 363.77 191.732 364.899C189.136 366.395 186.446 367.747 183.98 369.429C181.046 371.428 178.306 373.715 175.487 375.872C175.61 376.11 175.739 376.34 175.861 376.577C176.926 376.282 178.026 375.671 179.054 375.764C180.248 375.872 181.751 376.297 182.448 377.138C183.376 378.26 182.642 379.763 181.549 380.604C179.946 381.841 178.22 382.955 176.437 383.919C166.528 389.262 159.171 397.086 153.821 406.894C153.591 407.311 153.411 407.757 153.239 408.196C153.203 408.296 153.26 408.433 153.296 408.8C153.72 408.764 154.145 408.72 154.576 408.706C154.929 408.692 155.274 408.706 155.633 408.706C157.179 410.871 156.798 412.992 155.914 415.2C152.405 423.987 149.133 432.86 147.249 442.173C146.832 444.222 146.501 446.286 146.515 448.436C146.932 447.329 147.4 446.243 147.766 445.121C150.614 436.312 156.324 429.114 161.106 421.391C162.091 419.795 163.788 419.126 165.571 418.903C168.11 422.067 166.614 425.411 166.693 428.862C167.354 427.935 168.045 427.036 168.67 426.079C176.516 414.035 184.361 401.99 192.178 389.923C193.508 387.86 194.996 386.076 197.578 385.3C199.167 387.335 199.577 389.528 199.074 392.03C197.937 397.733 196.902 403.45 196.053 409.245C199.829 404.686 202.849 399.753 205.042 394.274C207.796 387.385 210.78 380.59 213.664 373.758C213.801 373.427 213.966 373.104 214.117 372.78C214.807 371.299 215.67 370.005 217.583 370.249C219.05 370.436 220.057 371.824 220.15 374.103C220.28 377.095 220.222 380.093 220.229 383.092C220.237 386.393 220.229 389.686 220.769 393.095C221.229 392.181 221.696 391.268 222.157 390.348C226.838 380.913 231.548 371.486 236.186 362.023C237.142 360.074 238.343 358.6 240.731 358.175C242.874 359.578 243.032 361.764 242.895 364.101C242.615 368.991 242.385 373.888 242.644 379.051C243.485 377.699 244.441 376.412 245.153 374.995C247.253 370.824 249.281 366.618 251.273 362.397C252.265 360.29 253.523 358.485 255.796 357.277C257.478 359.29 257.486 361.656 257.442 364.007C257.198 376.282 255.17 388.305 252.251 400.199C252.171 400.537 252.114 400.875 251.992 401.486C256.659 399.013 256.81 393.073 260.966 390.384C263.303 391.721 263.965 393.49 263.562 395.899C262.138 404.392 260.801 412.898 259.427 421.405C259.283 422.311 259.154 423.225 259.24 424.282C261.397 422.088 262.836 419.104 266.323 418.435C267.74 420.88 267.38 423.332 266.805 425.763C265.475 431.343 264.072 436.916 262.577 442.992C263.353 442.453 263.792 442 264.324 441.813C266 441.238 267.323 441.748 267.675 443.445C267.977 444.905 267.941 446.545 267.596 448.005C265.928 455.109 264.101 462.185 262.347 469.268C262.152 470.066 262.03 470.879 261.872 471.706C265.173 471.943 266.1 472.813 266.194 476.006C266.244 477.667 266.165 479.386 265.791 480.989C263.821 489.453 261.735 497.895 259.672 506.445C261.815 505.28 262.606 503.001 263.425 500.872C264.152 498.974 265.216 497.528 267.236 496.471C268.229 497.32 269.286 498.219 270.818 499.513C271.609 494.774 272.615 490.388 273.025 485.937C273.838 477.113 274.334 468.261 274.931 459.424C275.089 457.13 275.283 454.879 277.347 453.103C277.98 453.304 278.706 453.534 279.871 453.901C280.123 450.104 280.504 446.545 280.561 442.985C280.626 438.793 280.525 434.593 280.266 430.416C280.151 428.539 279.562 426.669 279.044 424.835C278.346 422.362 278.483 420.125 280.489 418.119C281.223 418.364 281.971 418.601 282.719 418.853C282.805 418.507 282.956 418.263 282.906 418.076C281.64 413.085 280.338 408.109 279.066 403.126C278.296 400.106 278.318 400.063 279.396 396.668C280.374 396.733 281.403 396.798 282.51 396.87C282.582 396.546 282.798 396.172 282.711 395.892C281.302 391.318 279.907 386.745 278.404 382.2C276.858 377.541 275.19 372.931 273.6 368.286C273.327 367.495 272.932 366.639 273.032 365.87C273.119 365.187 273.687 364.367 274.284 364.007C274.722 363.748 275.779 363.914 276.153 364.295C277.059 365.215 277.987 366.272 278.454 367.452C282.316 377.246 286.602 386.896 288.903 397.237C289.471 399.804 290.025 402.378 290.535 404.967C291.211 408.397 290.722 409.245 287.069 410.763C287.652 414.293 288.277 417.911 288.838 421.535C289.277 424.375 289.701 427.216 290.01 430.07C290.125 431.113 290.032 432.242 289.758 433.256C289.234 435.197 288.845 435.384 286.53 435.55C286.264 440.202 286.134 444.855 285.696 449.486C285.084 455.922 284.214 462.329 283.495 468.758C283.265 470.793 282.208 472.037 280.238 472.454C279.396 478.99 278.656 485.405 277.728 491.783C276.621 499.384 274.715 506.79 272.112 514.032C271.393 516.038 270.429 517.713 268.229 518.648C264.533 516.894 265.654 513.219 265.058 509.983C260.11 512.083 256.716 517.354 250.712 517.037C249.266 513.809 250.252 511.256 251.675 508.876C255.487 502.483 257.313 495.493 258.413 487.727C257.284 488.784 256.515 489.618 255.623 490.309C254.401 491.258 252.97 491.553 251.611 490.683C250.381 489.892 249.978 488.59 250.403 487.209C251.136 484.815 251.826 482.384 252.847 480.112C255.357 474.517 257.004 468.707 258.154 462.228C255.386 463.544 253.703 466.327 250.381 465.414C249.202 463.012 250.043 460.711 250.992 458.359C252.991 453.369 254.998 448.386 256.824 443.33C257.586 441.216 257.881 438.93 258.543 436.053C256.213 437.88 254.278 439.411 251.618 438.973C249.942 436.801 250.403 434.435 250.92 432.098C252.675 424.152 254.473 416.213 256.242 408.267C256.342 407.822 256.393 407.354 256.004 406.578C254.66 408.16 253.207 409.67 251.985 411.338C250.223 413.754 247.828 414.797 244.866 415.156C243.542 412.697 243.089 410.31 244.06 407.599C247.375 398.315 249.115 388.651 250.683 378.95C250.769 378.396 250.697 377.814 250.208 377.008C248.641 379.482 247.066 381.956 245.498 384.43C244.729 385.645 244.039 386.918 243.183 388.061C241.795 389.916 239.889 390.614 238.192 390.046C236.711 389.549 235.719 387.939 235.826 385.623C235.992 382.042 236.344 378.475 236.157 374.686C235.769 375.29 235.302 375.858 235 376.498C232.67 381.359 230.527 386.314 228.003 391.067C226.219 394.432 223.954 397.553 221.84 400.739C221.387 401.422 220.754 402.047 220.078 402.493C217.892 403.939 215.685 403.169 215.081 400.616C214.728 399.128 214.807 397.524 214.793 395.971C214.757 392.857 214.779 389.744 214.333 386.429C213.88 387.421 213.362 388.392 212.981 389.413C209.127 399.811 204.05 409.54 197.326 418.378C196.672 419.234 196.061 420.132 195.313 420.902C194.133 422.117 192.71 422.549 191.056 421.887C189.352 421.211 188.661 419.83 188.884 418.162C189.38 414.488 190.027 410.835 190.66 407.182C190.962 405.427 191.387 403.694 191.264 401.652C190.588 402.659 189.905 403.665 189.236 404.679C181.607 416.293 173.97 427.906 166.377 439.541C165.025 441.605 163.565 443.402 160.89 443.762C158.589 441.82 158.589 439.196 158.869 435.802C157.977 436.931 157.388 437.448 157.086 438.095C155.525 441.454 153.943 444.812 152.548 448.242C150.837 452.456 149.262 456.72 147.702 460.999C146.868 463.285 145.465 464.889 142.948 465.637C140.993 464.091 140.043 462.171 139.979 459.539C139.806 452.053 140.554 444.718 142.862 437.563C144.142 433.587 145.286 429.567 146.616 425.145C145.343 425.468 144.379 425.72 143.279 426C141.848 424.167 141.676 422.117 142.402 419.967C146.609 407.563 152.333 396.079 162.364 387.227C163.284 386.414 163.817 385.745 163.63 384.221C163.464 382.919 164.248 381.179 165.168 380.115C169.066 375.462 173.251 371.026 177.738 366.114Z" fill="white"/>
<path d="M803.349 346.929C806.254 349.086 808.699 350.985 811.223 352.753C816.293 356.306 820.406 360.743 823.93 365.819C829.452 373.78 829.467 381.841 824.792 390.125C822.326 394.511 818.968 397.754 814.452 400.242C808.066 403.752 802.098 408.023 795.942 411.942C793.821 413.287 791.729 414.696 789.499 415.84C787.011 417.112 784.343 417.436 781.481 417.134C772.493 416.192 763.49 416.271 754.746 418.773C749.734 420.204 745.268 419.5 741.004 416.861C734.287 412.704 727.672 408.39 720.948 404.241C714.915 400.516 712.578 394.935 712.643 388.14C712.664 385.997 712.923 383.833 713.29 381.711C713.772 378.943 715.562 377.016 717.878 375.563C720.164 374.132 722.473 372.737 724.63 371.018C716.555 372.169 708.436 372.953 701.209 377.073C698.606 378.555 695.945 379.986 693.565 381.776C688.639 385.479 683.124 387.55 677.098 388.428C672.596 389.082 668.102 389.794 663.586 390.297C652.081 391.577 641.711 388.607 632.651 381.452C627.667 377.512 622.85 373.377 617.018 370.673C616.378 370.378 615.81 369.889 615.278 369.415C611.984 366.488 611.898 364.41 614.983 361.304C620.469 355.774 626.078 350.366 631.435 344.721C633.463 342.586 635.189 340.061 636.649 337.48C639.978 331.598 643.912 326.226 648.809 321.545C653.576 317 659.193 314.253 665.722 313.606C672.036 312.98 678.371 312.599 684.692 312.118C685.741 312.038 686.791 311.988 688.215 311.909C687.74 310.938 687.51 310.147 687.043 309.543C682.06 303.107 679.78 295.708 678.507 287.74C677.551 281.75 675.991 275.775 673.92 270.072C671.302 262.867 670.993 255.877 673.395 248.658C674.84 244.307 676.695 240.187 679.32 236.426C682.937 231.241 687.827 228.07 694.083 227.15C697.01 226.718 699.311 225.575 701.569 223.453C706.523 218.808 711.578 217.233 717.942 220.426C724.486 223.712 730.908 227.171 736.337 232.19C737.566 233.327 738.854 234.412 740.141 235.477C741.924 236.958 743.672 237.922 746.318 237.418C749.942 236.735 753.43 240.302 752.15 243.552C750.373 248.068 752.667 250.779 755.4 254.187C755.745 252.943 755.99 252.102 756.213 251.254C757.413 246.759 758.183 242.085 759.909 237.799C763.497 228.897 770.062 222.892 779.238 219.764C781.467 219.002 783.624 217.888 785.638 216.636C793.958 211.466 802.738 208.892 812.661 210.495C815.753 210.999 819.061 210.265 822.261 209.978C823.922 209.827 825.547 209.338 827.209 209.1C832.702 208.331 837.06 210.323 840.404 214.659C843.705 218.945 845.215 223.986 846.423 229.134C849.033 240.215 848.127 251.268 846.121 262.299C845.553 265.427 844.905 268.541 844.251 271.841C852.247 270.475 859.819 271.108 867.377 272.438C874.942 273.768 880.515 278.004 884.456 284.447C888.08 290.365 889.77 296.981 890.999 303.719C891.582 306.897 891.956 310.111 892.344 313.318C892.768 316.82 892.466 320.193 890.863 323.465C890.108 325.011 889.763 326.895 889.741 328.635C889.691 333.295 889.842 337.962 890.05 342.621C890.424 350.963 882.744 358.197 873.964 356.766C865.594 355.4 857.252 355.731 848.882 355.565C846.739 355.522 844.589 355.22 842.475 354.875C839.448 354.386 836.895 352.955 834.572 350.905C831.796 348.453 828.891 346.131 825.893 343.959C822.125 341.226 818.076 340.709 813.711 342.758C810.59 344.239 807.304 345.361 803.349 346.929ZM776.175 326.73C778.842 324.227 781.143 321.574 783.912 319.575C790.456 314.85 797.611 311.327 805.449 309.112C808.491 308.256 811.266 306.444 814.157 305.049C815.437 304.43 816.638 303.532 817.983 303.179C820.248 302.582 822.52 304.028 823.735 306.487C824.886 308.817 824.483 311.104 822.642 312.664C820.722 314.289 818.695 314.44 816.494 312.535C814.517 310.823 812.402 310.622 810.123 311.147C800.422 313.369 791.484 317.295 783.639 323.479C780.468 325.982 778.015 329.11 776.362 332.676C780.475 331.058 784.358 329.167 788.449 328.002C794.763 326.205 801.292 326.809 807.743 327.319C808.944 327.413 810.231 328.168 811.209 328.952C812.597 330.066 813.258 331.72 812.467 333.46C811.647 335.258 809.929 335.963 808.066 336.106C806.218 336.257 804.802 335.502 804.097 333.683C803.716 332.691 803.356 331.691 802.91 330.49C793.591 330.037 784.991 331.936 777.289 337.156C775.261 338.53 773.478 340.364 772.924 343.29C775.57 342.586 777.929 341.823 780.345 341.334C786.12 340.169 791.872 339.177 797.618 341.838C798.876 342.42 800.76 342.305 802.141 341.852C805.535 340.737 808.886 339.407 812.108 337.854C814.926 336.495 817.724 335.97 820.794 336.459C824.907 337.12 828.625 338.566 831.818 341.306C833.911 343.096 836.039 344.851 838.211 346.541C840.735 348.496 843.575 349.683 846.825 349.697C849.342 349.705 851.852 349.69 854.369 349.647C860.941 349.546 867.528 348.777 874.014 350.718C875.28 351.1 876.898 350.819 878.221 350.424C882.456 349.158 884.707 345.994 884.837 341.226C884.959 336.552 884.851 331.878 885.024 327.211C885.103 325.076 885.117 322.71 886.023 320.876C887.965 316.957 887.95 313.074 887.145 308.989C886.8 307.228 886.663 305.43 886.354 303.661C885.34 297.858 883.902 292.199 880.946 287.014C878.207 282.21 874.28 278.773 868.981 277.321C865.551 276.379 861.905 276.256 858.396 275.595C852.557 274.495 847.523 276.271 842.87 279.607C839.117 282.297 834.917 284.015 830.473 285.13C827.223 285.943 823.894 286.453 820.679 287.374C815.969 288.718 811.273 290.135 806.686 291.839C803.975 292.846 801.487 294.586 800.487 297.498C799.423 300.612 797.266 302.741 794.95 304.862C793.016 306.638 790.643 308.256 789.471 310.471C787.529 314.138 784.775 316.713 781.496 318.992C780.331 319.805 779.281 320.84 778.346 321.919C777.181 323.242 776.196 324.716 776.175 326.73ZM797.56 295.722C798.179 294.852 798.725 294.219 799.121 293.507C800.811 290.473 803.32 288.308 806.348 286.719C807.721 286 809.095 285.216 810.554 284.713C816.199 282.771 821.866 280.859 827.561 279.061C834.062 277.011 838.06 272.812 839.728 266.153C843.23 252.138 843.309 238.195 839.34 224.28C837.506 217.859 831.3 213.954 824.649 215.026C820.097 215.759 815.588 215.687 811.065 214.939C803.011 213.609 795.684 215.241 788.852 219.8C785.595 221.979 781.992 223.691 778.404 225.301C775.369 226.661 772.68 228.379 770.731 231.033C765.561 238.094 762.131 245.875 760.808 254.612C759.786 261.35 760.815 268.008 761.124 274.689C761.325 278.967 760.93 283.066 758.959 286.899C758.032 288.711 757.874 290.437 758.391 292.429C759.384 296.276 759.686 300.181 758.988 304.172C758.226 308.565 758.607 312.88 760.671 316.943C761.599 312.499 762.548 308.112 763.432 303.704C763.777 301.971 763.317 300.533 762.044 299.131C759.096 295.895 760.088 292.4 764.115 290.588C766.834 289.365 769.199 289.998 771.45 291.832C773.435 288.956 774.528 286.086 773.5 283.109C772.169 279.284 772.284 274.854 768.408 271.978C766.395 270.489 766.431 266.52 767.718 265.039C769.041 263.514 772.148 263.14 774.427 264.233C776.57 265.261 777.771 267.527 777.232 269.885C776.966 271.036 776.441 272.136 775.937 273.222C774.794 275.695 775.297 277.932 776.433 279.931C781.733 274.185 786.903 268.548 792.117 262.96C793.231 261.767 793.44 260.559 793.008 259.027C792.577 257.495 792.584 255.956 793.857 254.676C795.504 253.008 798.265 252.534 800.501 253.612C802.954 254.799 804.061 256.898 803.586 259.451C803.011 262.515 801.458 264.399 798.833 264.427C796.295 264.456 794.418 265.506 792.915 267.296C788.449 272.603 783.97 277.91 779.734 283.397C778.735 284.691 778.274 286.705 778.26 288.395C778.217 294.852 778.814 301.324 777.009 307.681C776.563 309.256 777.383 310.176 779.324 310.349C779.813 309.536 780.288 308.594 780.899 307.753C781.949 306.307 782.905 304.718 784.228 303.56C785.925 302.072 787.011 300.583 787.328 298.203C787.838 294.421 790.966 292.961 794.605 294.406C795.561 294.795 796.503 295.255 797.56 295.722ZM821.729 379.676C821.643 373.83 819.752 369.544 816.81 365.596C812.884 360.326 807.872 356.306 802.407 352.775C801.113 351.941 799.552 351.136 798.804 349.892C796.093 345.404 792.333 344.153 787.457 345.455C786.889 345.606 786.263 345.534 785.674 345.606C778.993 346.425 772.5 347.813 766.323 350.675C762.648 352.38 758.758 353.645 754.904 354.932C752.186 355.838 749.374 356.45 746.598 357.197C743.262 358.096 741.212 360.131 740.766 363.662C740.572 365.201 740.313 366.747 739.954 368.257C738.516 374.312 734.963 377.102 728.693 377.181C728.096 377.188 727.492 377.152 726.895 377.195C721.437 377.598 717.835 381.366 717.791 386.824C717.748 392.642 720.79 396.683 725.342 399.926C729.232 402.695 733.079 405.542 736.775 408.562C739.22 410.561 741.838 411.424 744.765 410.432C748.36 409.217 752.027 408.987 755.745 409.058C763.36 409.209 770.4 407.405 776.937 403.406C780.295 401.357 783.84 399.545 787.464 398.013C793.059 395.64 798.862 394.626 804.989 396.064C808.491 396.884 812.05 396.438 814.725 393.756C818.824 389.665 821.139 384.631 821.729 379.676ZM618.513 366.438C623.504 370.127 628.207 373.219 632.471 376.836C640.935 384.005 650.535 385.681 661.041 383.351C667.268 381.97 671.971 378.231 675.717 373.104C680.816 366.129 687.697 361.893 696.406 361.936C703.079 361.972 708.141 359.355 712.679 354.904C714.642 352.984 716.734 351.171 718.884 349.467C723.185 346.066 728.017 344.491 733.597 344.994C737.193 345.318 740.846 345.052 744.477 345.052C743.456 344.168 742.291 343.664 741.09 343.29C733.561 340.932 726.018 338.595 718.475 336.272C715.346 335.308 712.405 334.503 709.666 337.617C708.105 339.393 705.329 338.58 703.74 336.516C702.108 334.395 702.187 331.468 703.92 329.994C705.416 328.714 707.134 329.153 708.724 329.577C714.958 331.238 721.171 332.993 727.384 334.733C729.922 335.445 732.446 336.229 734.978 336.977C729.843 332.187 724.493 327.981 719.107 323.803C718.266 323.148 717.252 322.156 716.36 322.206C712.01 322.429 708.537 319.877 704.603 318.819C704.373 318.755 704.136 318.712 703.898 318.683C692.839 317.23 681.722 316.9 670.576 317.029C660.739 317.144 653.454 321.674 648.219 329.793C646.141 333.007 643.977 336.186 642.172 339.551C639.374 344.779 635.836 349.424 631.68 353.602C628.049 357.248 624.266 360.743 620.563 364.324C619.815 365.036 619.125 365.798 618.513 366.438ZM735.481 300.9C735.366 300.224 735.388 299.591 735.15 299.095C733.051 294.795 730.951 290.487 728.743 286.237C727.327 283.512 725.507 281.427 722.07 280.887C719.251 280.442 717.396 277.853 717.583 275.559C717.806 272.855 719.625 271.345 721.933 270.309C724.22 269.281 726.456 269.511 728.348 271.086C730.304 272.718 730.771 275.005 729.743 277.277C728.822 279.298 729.304 280.851 730.282 282.663C733.468 288.553 736.481 294.536 739.587 300.468C740.191 301.619 740.975 302.669 741.629 303.79C742.816 305.84 744.304 307.803 745.059 310.011C746.526 314.304 747.547 318.755 748.806 323.12C749.18 324.421 749.741 325.672 750.244 327.032C753.056 325.291 752.955 325.327 751.963 322.631C749.532 316.001 747.231 309.32 746.886 302.172C746.778 299.994 745.85 298.383 744.074 297.038C741.816 295.334 741.572 294.406 742.701 291.796C743.434 290.099 743.283 288.625 742.78 286.949C741.816 283.742 741.011 280.492 740.22 277.242C739.839 275.667 739.307 274.336 737.674 273.596C735.797 272.747 734.841 271.136 734.417 269.137C733.77 266.117 734.618 263.895 736.97 262.723C739.486 261.472 742.55 262.04 744.168 264.068C746.073 266.455 746.303 269.619 744.283 271.582C742.909 272.913 742.809 274.171 743.254 275.753C744.419 279.902 745.57 284.051 746.785 288.186C746.958 288.769 747.461 289.25 747.806 289.783C748.31 287.726 748.36 285.842 748.302 283.965C747.965 273.43 747.598 262.903 747.238 252.368C747.224 251.886 747.21 251.412 747.195 250.93C747.159 249.233 746.627 248.018 744.772 247.435C743.707 247.097 742.499 246.313 741.96 245.379C738.897 240.093 733.964 236.864 729.211 233.442C724.421 229.997 719.208 227.344 713.743 225.122C710.004 223.597 706.796 224.043 703.841 226.869C700.54 230.019 696.485 231.737 692.069 232.672C688.841 233.355 686.403 235.088 684.742 237.972C683.181 240.668 681.621 243.372 679.91 245.968C674.818 253.677 674.574 261.68 678.45 269.871C681.297 275.882 683.131 282.124 684.088 288.704C685.454 298.153 689.66 305.876 698.031 311.096C703.913 314.764 709.896 314.095 716.094 312.527C712.786 309.112 709.694 305.775 706.451 302.604C701.964 298.217 697.801 293.63 695.543 287.632C694.903 285.921 693.695 285.051 691.897 284.569C689.092 283.814 687.316 281.247 687.23 278.471C687.165 276.17 688.237 274.538 690.236 273.581C692.105 272.682 693.953 272.898 695.643 274.193C698.052 276.041 698.721 277.917 697.793 281.11C697.182 283.21 697.304 285.144 698.448 286.978C699.656 288.905 700.785 290.911 702.23 292.645C708.378 300.022 714.901 307.041 722.415 313.067C724.278 314.562 726.305 315.864 728.297 317.18C728.779 317.496 729.448 317.518 730.038 317.676C730.196 317.482 730.347 317.295 730.505 317.101C727.262 312.527 724.04 307.947 720.776 303.388C719.496 301.597 717.971 300.411 715.577 299.986C711.866 299.325 709.5 295.816 710.104 292.299C710.298 291.156 711.125 289.725 712.089 289.193C714.534 287.848 717.008 288.776 719.215 290.099C721.279 291.329 722.149 293.213 721.423 295.629C720.883 297.419 721.523 298.8 722.595 300.253C725.148 303.719 727.65 307.242 729.937 310.888C733.295 316.252 737.883 320.488 742.097 325.09C740.335 321.394 738.472 317.798 736.416 314.318C735.841 313.347 734.597 312.794 733.863 311.88C732.691 310.413 731.418 308.932 730.692 307.235C729.779 305.114 730.526 303.618 732.554 302.403C733.446 301.842 734.431 301.425 735.481 300.9ZM665.413 386.141C665.88 386.098 666.347 386.091 666.808 386.004C675.372 384.365 683.297 381.301 690.545 376.297C696.37 372.27 702.741 369.156 709.795 367.775C714.253 366.905 718.719 366.014 723.213 365.33C728.247 364.568 732.468 362.749 735.833 358.614C739.652 353.918 744.872 351.243 750.898 350.251C751.646 350.129 752.373 349.899 753.235 349.69C747.418 349.467 741.809 349.417 736.222 349C731.08 348.619 726.471 349.776 722.343 352.797C720.61 354.069 719.014 355.529 717.353 356.895C714.771 359.031 712.233 361.224 709.587 363.274C705.732 366.258 701.511 367.667 696.499 366.661C690.782 365.51 685.885 367.545 681.7 371.421C680.557 372.478 679.435 373.578 678.486 374.801C674.905 379.382 670.813 383.329 665.413 386.141ZM768.854 412.316C773.341 412.316 777.059 412.165 780.755 412.359C784.487 412.546 787.867 411.734 791.009 409.778C795.274 407.124 799.545 404.485 803.795 401.81C804.011 401.673 804.068 401.299 804.277 400.882C798.33 399.595 792.728 399.631 787.356 402.508C781.474 405.664 775.556 408.764 768.854 412.316ZM717.662 317.87C719.438 320.847 743.549 339.328 747.612 340.73C746.49 339.112 745.793 337.947 744.944 336.89C739.393 330.009 731.706 325.579 725.198 319.79C723.35 318.151 720.855 316.864 717.662 317.87ZM754.516 306.3C754.846 306.257 755.177 306.221 755.508 306.178C755.22 304.704 755.012 303.208 754.63 301.755C752.948 295.363 752.905 288.927 754.501 282.563C756.637 274.049 755.256 265.952 752.142 257.991C751.977 257.574 751.625 257.236 750.963 256.316C752.121 273.481 750.812 290.07 754.516 306.3ZM768.487 302.129C763.475 308.889 762.929 326.018 766.603 330.152C767.222 320.998 767.855 311.564 768.487 302.129ZM752.373 333.64C755.004 337.76 756.809 341.586 760.47 344.879C761.721 340.622 759.161 337.962 758.672 335.049C756.565 334.575 754.853 334.194 752.373 333.64ZM736.344 363.842C733.949 367.071 731.799 369.976 729.57 372.989C734.259 373.65 736.207 371.054 736.344 363.842ZM765.172 340.256C766.366 336.207 763.54 333.28 762.612 329.275C759.513 334.28 763.001 337.099 765.172 340.256ZM770.235 325.493C770.494 325.55 770.753 325.601 771.004 325.658C771.853 324.508 772.665 323.335 773.557 322.228C774.65 320.876 774.585 319.61 773.406 318.388C772.788 317.748 772.104 317.158 770.99 316.13C770.709 319.661 770.472 322.573 770.235 325.493ZM741.183 309.852C740.846 309.831 740.515 309.809 740.177 309.788C740.004 310.83 739.393 312.053 739.731 312.88C740.759 315.361 742.161 317.691 743.42 320.078C743.578 316.346 743.147 312.887 741.183 309.852ZM724.817 273.085C722.825 273.1 721.279 274.502 721.315 275.782C721.365 277.436 722.552 277.637 723.839 277.601C725.399 277.551 726.881 276.451 726.536 275.365C726.226 274.401 725.263 273.639 724.817 273.085ZM772.428 309.385C772.766 309.407 773.104 309.428 773.442 309.457C773.859 305.221 774.276 300.979 774.693 296.743C773.14 300.871 771.932 305.02 772.428 309.385ZM718.029 295.204C718.172 293.407 716.662 291.573 715.433 291.782C714.699 291.904 713.764 292.688 713.506 293.392C713.096 294.493 714.771 296.298 716.102 296.197C716.864 296.139 717.576 295.456 718.029 295.204ZM774.305 269.698C774.118 267.836 773.32 267.009 772.14 267.261C771.457 267.404 770.616 268.354 770.472 269.065C770.228 270.245 771.673 271.546 772.723 271.158C773.449 270.899 773.96 270.043 774.305 269.698ZM739.041 306.365C737.746 305.552 737.049 304.754 736.344 304.747C735.301 304.732 734.072 305.358 734.367 306.674C734.518 307.372 735.589 308.407 736.143 308.35C736.962 308.263 737.696 307.343 739.041 306.365ZM690.351 277.572C690.955 279.212 690.984 281.01 693.105 280.715C693.58 280.65 694.22 279.514 694.234 278.859C694.263 277.464 693.148 277.083 690.351 277.572ZM758.571 329.951C758.47 328.146 757.37 327.233 756.026 327.585C755.393 327.751 754.623 328.47 754.458 329.081C754.192 330.045 755.724 331.447 756.781 331.181C757.536 330.994 758.147 330.253 758.571 329.951ZM793.059 301.23C793.922 300.375 794.727 299.958 794.763 299.483C794.849 298.225 794.253 297.031 792.908 296.851C792.39 296.786 791.189 297.865 791.261 298.102C791.592 299.102 792.289 299.979 793.059 301.23ZM768.495 296.484C768.128 294.672 767.136 294.09 765.87 294.327C765.287 294.435 764.842 295.24 764.331 295.729C765.187 296.384 765.978 297.211 766.941 297.606C767.272 297.75 768.042 296.83 768.495 296.484ZM749.885 242.394C748.727 241.589 747.993 240.683 747.389 240.762C746.721 240.848 745.807 241.761 745.656 242.452C745.397 243.631 746.239 244.595 747.483 244.365C748.202 244.228 748.777 243.343 749.885 242.394ZM738.76 269.828C739.12 269.907 739.479 269.986 739.839 270.058C740.277 269.216 740.946 268.411 741.061 267.534C741.133 266.994 740.493 265.995 739.954 265.801C738.854 265.405 738.127 266.239 738.12 267.282C738.113 268.131 738.53 268.979 738.76 269.828ZM798.617 261.436C799.372 259.811 800.113 258.969 799.984 258.301C799.847 257.596 798.919 256.625 798.251 256.546C797.071 256.402 796.661 257.596 796.856 258.56C797.014 259.315 797.683 259.962 798.617 261.436ZM774.679 313.513C774.628 315.008 774.24 316.547 776.311 316.533C777.354 316.526 778.246 315.857 777.979 314.678C777.606 312.995 776.419 312.765 774.679 313.513ZM817.17 307.997C817.731 309.212 818.393 310.334 819.996 309.694C820.42 309.522 820.845 308.098 820.586 307.674C819.579 306.048 818.421 306.789 817.17 307.997ZM783.545 309.716C783.797 309.975 784.049 310.226 784.3 310.485C785.623 308.954 786.954 307.429 788.277 305.897C788.032 305.682 787.795 305.473 787.551 305.257C786.22 306.746 784.883 308.234 783.545 309.716ZM753.782 413.366C751.898 412.791 750.122 412.834 748.159 414.365C750.56 415.221 752.157 414.229 753.782 413.366ZM706.257 331.44C705.531 334.74 705.811 335.049 708.875 334.69C708.026 333.633 707.343 332.784 706.257 331.44ZM756.169 323.731C757.27 320.157 757.176 319.093 756.169 317.072C756.169 319.093 756.169 321.415 756.169 323.731ZM761.095 321.164C760.836 322.933 759.369 324.802 761.714 326.801C761.476 324.623 761.282 322.897 761.095 321.164ZM712.592 315.62C711.844 316.231 711.42 316.569 711.003 316.907C711.478 317.46 711.888 318.108 712.47 318.503C712.635 318.611 713.707 317.885 713.664 317.719C713.498 317.058 713.06 316.461 712.592 315.62ZM808.009 330.08C807.498 330.915 806.959 331.404 807.031 331.77C807.11 332.202 807.678 332.633 808.138 332.849C808.304 332.928 809.073 332.302 809.03 332.123C808.893 331.54 808.505 331.015 808.009 330.08ZM751.193 306.926C751.057 307.041 750.927 307.163 750.791 307.278C751.085 308.055 751.38 308.831 751.675 309.608C751.805 309.558 751.927 309.514 752.056 309.464C751.768 308.616 751.481 307.767 751.193 306.926ZM772.543 332.036C772.687 332.116 772.838 332.195 772.982 332.274C773.32 331.67 773.665 331.058 774.003 330.454C773.859 330.375 773.708 330.296 773.564 330.217C773.226 330.821 772.881 331.432 772.543 332.036Z" fill="white"/>
<path d="M617.528 524.825C620.009 525.307 621.57 524.372 622.95 523.236C625.783 520.906 627.732 518.087 628.581 514.348C629.681 509.458 631.191 504.647 632.78 499.887C633.449 497.881 634.535 495.903 635.851 494.249C636.735 493.135 638.274 492.214 639.669 491.912C642.452 491.316 644.415 493.271 643.933 496.097C643.574 498.197 642.847 500.275 641.992 502.231C639.813 507.207 638.252 512.356 637.627 517.728C637.368 519.943 637.49 522.287 637.95 524.466C638.483 527.018 640.323 527.63 642.589 526.299C643.502 525.767 644.372 525.048 645.055 524.236C648.622 519.979 651.592 515.405 652.872 509.875C653.979 505.093 655.187 500.333 656.51 495.616C656.949 494.041 657.661 492.437 658.653 491.157C660.142 489.237 662.579 488.806 664.478 489.705C666.347 490.589 666.757 491.797 666.247 494.875C666.218 495.069 666.347 495.292 666.347 495.292C667.85 493.94 669.418 492.495 671.022 491.093C673.474 488.943 676.055 487.044 679.442 486.584C685.382 485.779 689.984 489.676 689.617 495.659C689.452 498.355 688.539 501.03 687.74 503.648C686.763 506.848 685.432 509.94 684.505 513.154C684.052 514.729 683.937 516.469 684.044 518.116C684.217 520.726 686.101 521.676 688.323 520.237C689.696 519.346 691.02 518.145 691.918 516.793C693.903 513.816 695.607 510.645 697.441 507.56C698.175 506.33 698.786 504.985 699.721 503.928C701.051 502.433 703.043 502.339 704.618 503.403C706.142 504.439 706.696 505.913 705.811 507.804C702.784 514.247 699.174 520.302 693.292 524.631C690.825 526.443 688.114 527.565 684.994 527.658C678.586 527.853 674.437 524.128 674.372 517.721C674.351 515.491 674.862 513.198 675.487 511.033C676.408 507.819 677.659 504.698 678.745 501.527C679.054 500.621 679.356 499.707 679.536 498.772C679.831 497.205 680.988 495.227 679.147 494.221C677.522 493.336 675.969 494.825 674.746 495.918C669.77 500.383 665.938 505.769 663.263 511.831C661.343 516.182 660.142 520.856 658.653 525.393C658.315 526.414 658.222 527.515 657.848 528.521C656.647 531.75 653.411 532.757 650.585 530.822C650.11 530.499 649.722 530.053 649.341 529.701C639.367 536.23 632.687 534.396 628.48 527.766C627.876 528.104 627.258 528.428 626.661 528.795C623.31 530.83 619.7 532.081 615.759 531.872C613.329 531.743 611.466 532.455 609.618 534.058C605.692 537.445 601.09 539.243 595.79 539.178C591.217 539.128 587.333 537.74 584.428 534.087C584.134 533.713 583.932 533.275 583.601 532.714C582.451 533.764 581.674 534.483 580.89 535.195C573.671 541.724 565.149 544.579 555.478 544.018C551.242 543.773 547.604 542.112 544.591 538.553C543.289 539.912 542.117 541.199 540.873 542.421C537.997 545.255 534.753 547.383 530.619 547.894C523.924 548.721 518.941 544.651 519.084 537.898C519.149 534.857 520.12 531.8 520.954 528.823C521.889 525.487 523.226 522.265 524.219 518.943C524.607 517.642 524.535 516.211 524.665 514.873C521.939 513.766 520.386 515.268 518.919 516.606C514.892 520.273 511.591 524.624 509.29 529.492C506.946 534.439 505.35 539.739 503.48 544.895C503.113 545.902 503.034 547.002 502.739 548.038C501.574 552.129 498.252 553.215 494.765 550.662C494.491 550.461 494.197 550.288 493.945 550.13C483.949 555.739 479.779 555.394 473.774 548.21C472.825 549.267 471.926 550.331 470.963 551.324C467.691 554.689 463.995 557.098 459.04 557.105C455.351 557.113 452.209 556.041 449.742 553.251C449.347 552.805 449.16 552.18 449.131 552.122C446.83 554.157 444.967 555.825 443.083 557.472C438.524 561.463 433.419 563.663 427.242 562.132C421.575 560.73 418.045 556.487 417.57 550.626C417.225 546.355 417.93 542.22 419.504 538.308C421.784 532.649 424.351 527.112 426.774 521.517C429.104 516.139 431.664 510.839 433.613 505.323C434.62 502.476 434.828 499.24 434.864 496.169C434.9 493.135 433.153 491.819 430.147 492.301C428.543 492.56 426.789 493.106 425.523 494.07C422.582 496.306 419.627 498.629 417.153 501.347C408.883 510.429 403.21 521.086 399.262 532.635C396.199 541.58 393.495 550.648 390.554 559.629C389.813 561.887 388.979 564.174 387.792 566.216C386.21 568.942 383.471 569.797 381.062 568.74C378.797 567.748 377.531 565.332 378.344 562.383C379.386 558.587 380.717 554.855 382.184 551.202C387.792 537.244 391.819 522.884 393.509 507.919C393.761 505.705 393.502 503.36 393.092 501.153C392.61 498.593 390.978 497.428 388.404 497.823C386.685 498.089 384.787 498.643 383.456 499.686C380.645 501.886 377.891 504.274 375.582 506.977C367.802 516.095 362.15 526.508 358.216 537.798C355.146 546.607 352.456 555.552 349.587 564.433C348.997 566.252 348.465 568.107 347.645 569.826C347.041 571.092 346.171 572.314 345.157 573.278C343.619 574.752 341.598 574.752 339.75 574.026C337.916 573.306 336.837 571.638 337.118 569.725C337.521 566.914 338.139 564.088 339.074 561.405C341.303 554.962 344.136 548.714 346.035 542.184C348.336 534.267 350.026 526.17 351.759 518.102C352.255 515.801 352.14 513.334 352.068 510.947C352.003 508.912 351.428 506.963 349.443 505.237C348.99 506.683 348.602 507.883 348.249 509.091C345.754 517.512 341.684 525.027 335.284 531.132C330.948 535.266 325.95 537.805 319.716 537.014C314.294 536.324 310.763 533.037 309.742 527.687C308.922 523.373 309.749 519.324 311.899 515.57C317.293 506.158 325.577 500.383 335.658 496.939C336.672 496.594 337.7 496.284 338.722 495.946C338.822 495.91 338.901 495.788 339.318 495.393C339.016 494.501 338.829 493.315 338.254 492.373C336.586 489.676 339.059 486.907 341.619 486.735C344.345 486.548 346.301 487.778 347.552 490.007C348.537 491.761 349.163 493.717 350.09 495.911C357.54 498.01 361.79 503.216 362.329 512.097C363.588 510.357 364.271 509.264 365.098 508.286C368.736 504.007 372.217 499.571 376.136 495.558C379.437 492.178 383.543 489.906 388.382 489.245C396.407 488.144 402.555 492.811 403.605 500.858C403.785 502.231 403.979 503.598 404.26 505.647C405.353 504.245 406.021 503.454 406.625 502.612C410.228 497.651 414.126 492.948 418.972 489.137C422.496 486.368 426.278 484.189 430.909 483.751C440.797 482.823 446.708 489.431 445.708 498.873C445.37 502.052 444.55 505.28 443.335 508.229C440.696 514.643 437.69 520.906 434.792 527.213C432.096 533.088 429.183 538.912 428.421 545.434C428.191 547.405 428.335 549.519 428.795 551.446C429.464 554.236 431.592 555.279 434.325 554.437C435.324 554.128 436.338 553.589 437.122 552.891C441.868 548.685 445.514 543.701 447.189 537.503C449.469 529.068 454.014 522.258 461.312 517.39C462.6 516.534 463.988 515.772 465.426 515.204C470.201 513.327 474.939 512.572 479.419 516.477C480.203 515.563 480.865 514.765 481.569 513.996C482.749 512.709 484.144 511.874 485.97 511.918C488.422 511.982 490.083 513.751 489.623 516.16C489.314 517.785 488.66 519.367 488.027 520.913C485.532 527.047 483.784 533.382 483.022 539.948C482.821 541.681 483.051 543.55 483.497 545.255C483.993 547.153 485.359 547.599 487.142 546.693C487.984 546.269 488.811 545.701 489.443 545.01C493.118 540.976 495.951 536.453 497.332 531.096C500.676 518.116 504.034 505.136 507.464 492.186C507.852 490.719 508.542 489.237 509.449 488.029C510.973 486.016 514.022 485.412 515.92 486.447C517.732 487.44 518.272 489.245 517.38 492.142C514.899 500.247 512.346 508.336 510.362 516.771C510.951 516.175 511.527 515.563 512.138 514.995C514.331 512.967 516.359 510.702 518.797 509.027C520.487 507.869 522.709 507.078 524.758 506.913C531.108 506.402 535.264 511.004 534.243 517.325C533.811 520.022 532.805 522.625 531.963 525.242C531.05 528.09 529.849 530.851 529.101 533.735C528.663 535.425 528.627 537.309 528.828 539.056C529.051 540.969 530.525 541.717 532.244 540.818C533.588 540.113 534.926 539.142 535.854 537.956C539.111 533.8 541.628 529.377 542.93 524.041C545.54 513.313 552.45 505.971 562.805 502.08C566.106 500.843 569.608 500.685 573.045 501.764C576.95 502.994 579.042 505.726 578.978 509.358C578.899 513.37 575.986 517.642 572.671 518.605C568.918 519.691 565.847 517.023 566.516 513.154C566.789 511.565 567.386 510.026 567.868 508.322C565.754 507.754 564.243 508.646 562.963 509.602C555.895 514.859 552.465 521.906 553.205 530.751C553.5 534.253 555.895 536.252 559.461 536.482C567.954 537.021 577.877 530.851 581.077 522.984C581.43 522.121 581.487 521.136 581.674 520.201C583.58 510.731 588.657 503.526 597.07 498.744C600.939 496.543 605.138 495.803 609.553 496.227C615.393 496.788 619.434 500.434 620.836 506.179C622.123 511.443 620.958 516.39 619.081 521.266C618.621 522.402 618.111 523.466 617.528 524.825ZM611.02 512.967C610.877 511.213 610.833 510.134 610.675 509.077C610.553 508.25 610.38 507.416 610.086 506.639C609.251 504.446 607.727 503.511 605.361 503.576C602.909 503.641 601.047 504.949 599.414 506.553C594.762 511.119 592.389 516.757 592.137 523.222C592.072 524.962 592.482 526.817 593.093 528.457C594.05 531.045 596.293 532.052 599.22 531.628C602.319 531.175 604.326 529.478 604.469 526.86C604.577 524.825 605.498 523.401 607.209 522.574C608.655 521.877 609.41 520.827 609.712 519.339C610.186 517.001 610.668 514.672 611.02 512.967ZM457.465 542.242C457.465 543.198 457.372 544.162 457.48 545.104C457.997 549.641 461.507 551.259 465.109 548.44C466.763 547.146 468.165 545.406 469.323 543.637C472.825 538.301 475.026 532.376 476.694 526.242C477.665 522.675 475.924 520.439 472.214 520.59C469.582 520.698 467.396 521.913 465.562 523.725C460.406 528.809 457.717 535.008 457.465 542.242ZM339.074 503.677C330.114 506.718 323.211 511.493 319.932 520.417C319.493 521.618 319.378 522.992 319.385 524.286C319.407 528.176 321.787 529.916 325.282 528.227C327.461 527.169 329.496 525.458 331.092 523.603C335.299 518.691 337.564 512.766 339.052 506.539C339.232 505.769 339.074 504.928 339.074 503.677Z" fill="white"/>
<path d="M512.663 848C397.45 847.842 294.986 787.006 237.48 692.964C216.634 658.879 202.719 622.126 195.543 582.842C191.983 563.354 190.258 543.673 190.423 523.869C190.581 504.583 194.047 485.771 199.11 467.226C204.222 448.494 211.126 430.365 217.928 412.208C218.137 411.647 218.36 411.079 218.676 410.583C219.719 408.922 221.401 408.347 222.984 409.044C224.58 409.749 225.457 411.374 225.054 413.172C224.824 414.214 224.343 415.2 223.969 416.213C217.195 434.255 210.55 452.326 205.409 470.936C198.772 494.968 196.463 519.375 197.995 544.219C205.301 662.905 277.138 762.198 377.171 810.133C405.101 823.515 434.404 832.482 465.037 837.228C486.445 840.55 507.967 841.629 529.533 840.45C599.752 836.602 662.673 813.239 716.9 768.166C771.874 722.475 806.966 664.48 821.815 594.419C826.978 570.042 829.085 545.384 828.043 520.503C827.331 503.475 824.641 486.656 820.535 470.138C817.22 456.792 813.201 443.625 809.49 430.372C809.332 429.797 809.052 429.236 808.98 428.654C808.764 426.906 809.497 425.626 811.094 424.893C812.568 424.21 814.215 424.62 815.185 426.101C815.833 427.079 816.242 428.244 816.609 429.373C824.224 452.751 830.107 476.545 833.371 500.937C835.773 518.936 835.802 536.985 834.45 555.085C832.494 581.252 827.618 606.838 819.09 631.625C792.203 709.747 742.032 768.396 670.008 808.428C637.677 826.398 602.974 837.753 566.501 843.7C548.855 846.583 531.064 847.827 512.663 848Z" fill="white"/>
<path d="M524.55 208.403C525.456 208.216 525.916 208.05 526.376 208.036C531.999 207.878 532.158 208.007 533.675 213.472C534.473 216.334 535.3 219.196 536.292 222.698C536.925 221.454 537.378 220.721 537.695 219.93C538.838 217.046 540.024 214.163 541.024 211.229C541.635 209.431 542.721 208.77 544.533 209.007C546.05 209.201 547.582 209.316 549.027 209.46C549.761 212.861 548.927 229.515 547.877 232.478C546.539 232.478 545.144 232.478 543.419 232.478C542.606 228.537 543.836 224.633 543.152 220.023C541.276 224.431 539.672 228.199 538.104 231.881C536.537 231.881 535.25 231.881 533.668 231.881C532.402 227.732 531.165 223.655 529.921 219.577C529.792 219.585 529.662 219.585 529.533 219.592C529.252 223.41 528.972 227.229 528.677 231.335C526.865 231.335 525.297 231.335 523.19 231.335C523.694 223.461 523.852 215.903 524.55 208.403Z" fill="white"/>
<path d="M484.733 210.179C485.884 209.87 486.56 209.611 487.25 209.517C487.948 209.424 488.66 209.496 489.839 209.496C491.349 216.902 491.665 224.474 492.622 231.896C487.919 233.887 487.545 233.801 484.633 230.119C482.26 227.128 479.894 224.137 476.982 221.289C477.399 225.431 477.809 229.566 478.254 234.002C476.514 234.297 475.04 234.542 473.048 234.88C471.768 227.121 471.056 219.592 470.395 212.128C475.011 210.323 475.5 210.438 478.19 213.832C480.555 216.816 482.914 219.808 485.891 222.626C485.517 218.585 485.136 214.537 484.733 210.179Z" fill="white"/>
<path d="M573.009 212.085C579.941 212.156 584.738 217.025 584.666 223.921C584.587 231.176 579.726 236.541 573.211 236.555C566.279 236.577 561.374 231.73 561.389 224.884C561.403 217.427 566.314 212.013 573.009 212.085ZM567.034 225.021C567.321 228.89 568.997 231.105 572.161 231.486C575.008 231.831 577.396 230.062 578.266 226.668C578.64 225.201 578.712 223.604 578.604 222.087C578.417 219.362 576.806 217.722 574.21 217.24C571.787 216.795 569.737 217.657 568.601 220.002C567.846 221.562 567.544 223.346 567.034 225.021Z" fill="white"/>
<path d="M380.184 237.469C385.491 235.261 390.633 233.118 396.084 230.846C396.788 232.406 397.349 233.657 398.097 235.318C394.48 236.922 391.143 238.411 387.447 240.05C387.857 241.244 388.224 242.279 388.663 243.559C392.157 242.215 395.343 240.985 398.809 239.655C399.391 241.143 399.844 242.315 400.434 243.832C397.126 245.285 394.092 246.615 390.669 248.118C391.201 249.47 391.697 250.729 392.323 252.311C396.055 250.808 399.557 249.398 403.418 247.838C404.08 249.305 404.634 250.549 405.23 251.858C402.879 254.051 399.981 254.569 397.421 255.733C394.811 256.92 392.129 257.941 389.533 259.005C387.721 257.013 381.536 242.833 380.184 237.469Z" fill="white"/>
<path d="M645.084 257.143C643.495 256.596 642.409 256.151 641.28 255.849C639.453 255.36 638.533 254.281 638.195 252.368C637.67 249.449 636.865 246.579 636.167 243.646C631.385 244.163 632.521 248.996 629.825 251.376C628.509 250.851 627.013 250.254 625.589 249.686C625.812 246.745 631.565 231.5 633.83 227.869C635.347 228.458 636.937 229.069 638.698 229.753C637.807 232.327 637.037 234.556 635.98 237.612C638.706 236.347 640.92 235.613 642.812 234.376C646.191 232.154 649.053 233.211 652.354 235.297C649.111 238.044 645.034 238.59 641.683 240.963C642.279 246.213 644.624 251.268 645.084 257.143Z" fill="white"/>
<path d="M611.617 235.182C613.336 235.757 614.767 236.232 616.184 236.699C614.832 241.474 611.452 244.113 607.037 244.099C601.025 244.077 596.272 239.877 595.51 233.909C594.711 227.66 598.846 221.217 604.599 219.743C611.279 218.024 618.096 222.871 618.053 229.328C618.053 229.789 617.852 230.242 617.701 230.882C615.112 230.723 613.027 230.587 611.962 227.408C610.862 224.115 606.354 223.633 603.901 226.215C601.91 228.314 601.119 230.925 601.298 233.794C601.449 236.21 602.83 238.051 604.923 238.626C607.08 239.216 608.942 238.763 610.294 236.821C610.632 236.34 611.028 235.908 611.617 235.182Z" fill="white"/>
<path d="M462.6 235.958C457.839 238.08 457.839 238.08 454.1 233.226C451.871 233.708 449.462 234.225 447.168 234.714C445.521 240.676 445.521 240.676 440.502 240.604C440.811 238.015 441.07 235.448 441.437 232.902C442.084 228.408 442.796 223.928 443.486 219.441C443.91 216.687 444.241 216.37 446.636 215.802C448.577 215.342 449.951 215.608 451.13 217.542C454.539 223.166 458.17 228.645 461.708 234.189C462.017 234.678 462.233 235.232 462.6 235.958ZM451.461 228.89C450.656 226.776 449.886 225.186 448.225 223.712C447.945 225.862 447.722 227.559 447.448 229.702C449.088 229.372 450.167 229.156 451.461 228.89Z" fill="white"/>
<path d="M421.755 236.483C421.755 231.852 421.755 227.221 421.755 222.346C423.603 221.749 425.236 221.217 427.163 220.591C427.263 221.965 427.393 222.892 427.386 223.82C427.35 229.558 427.299 235.304 427.22 241.042C427.163 245.249 427.141 245.249 423.121 246.392C422.561 246.551 421.985 246.673 421.043 246.91C416.463 240.424 411.875 233.931 406.956 226.977C409.092 226.251 410.71 225.704 412.558 225.079C415.413 229.105 418.153 232.967 420.899 236.836C421.18 236.713 421.468 236.598 421.755 236.483Z" fill="white"/>
<path d="M645.465 475.855C648.528 475.884 650.355 477.732 650.341 480.766C650.319 484.527 647.256 487.49 643.437 487.454C640.252 487.425 638.202 485.405 638.267 482.356C638.339 478.846 641.697 475.819 645.465 475.855Z" fill="white"/>
<defs>
<linearGradient id="paint0_linear_112_734" x1="0" y1="1024" x2="1024" y2="0" gradientUnits="userSpaceOnUse">
<stop stop-color="#4629A7"/>
<stop offset="1" stop-color="#3E89BC"/>
</linearGradient>
</defs>
</svg>
