
<svg xmlns="http://www.w3.org/2000/svg" xmlns:xlink="http://www.w3.org/1999/xlink" width="250px" height="250px" viewBox="0 0 250 250" version="1.1">
<g id="surface1">
<path style=" stroke:none;fill-rule:evenodd;fill:rgb(100%,100%,100%);fill-opacity:1;" d="M 250 125 C 250 194.035156 194.035156 250 125 250 C 55.964844 250 0 194.035156 0 125 C 0 55.964844 55.964844 0 125 0 C 194.035156 0 250 55.964844 250 125 Z M 250 125 "/>
<path style=" stroke:none;fill-rule:evenodd;fill:rgb(0%,0%,0%);fill-opacity:1;" d="M 137.914062 115.824219 L 137.90625 115.824219 C 137.90625 124.515625 138.113281 131.738281 133.710938 139.46875 C 130.148438 145.75 124.476562 149.609375 118.195312 149.609375 C 109.578125 149.609375 104.554688 143.089844 104.554688 133.4375 C 104.554688 114.449219 121.695312 110.992188 137.914062 110.992188 Z M 177.847656 149.5 C 173.757812 143.871094 169.386719 139.285156 169.386719 128.839844 L 169.386719 94.109375 C 169.386719 79.394531 170.421875 65.878906 159.507812 55.746094 C 150.910156 47.535156 136.644531 44.644531 125.734375 44.644531 C 104.398438 44.644531 80.578125 52.558594 75.578125 78.773438 C 75.039062 81.550781 77.089844 83.035156 78.929688 83.429688 L 100.65625 85.777344 C 102.699219 85.671875 104.171875 83.683594 104.554688 81.671875 C 106.421875 72.648438 114.03125 68.289062 122.582031 68.289062 C 127.203125 68.289062 132.449219 69.988281 135.179688 74.074219 C 138.324219 78.675781 137.898438 84.945312 137.898438 90.257812 L 137.898438 93.148438 C 124.894531 94.589844 107.898438 95.554688 95.722656 100.875 C 81.675781 106.90625 71.804688 119.210938 71.804688 137.304688 C 71.804688 160.472656 86.503906 172.046875 105.382812 172.046875 C 121.332031 172.046875 130.050781 168.308594 142.359375 155.84375 C 146.445312 161.699219 147.765625 164.550781 155.234375 170.699219 C 156.886719 171.597656 159.039062 171.519531 160.519531 170.179688 L 160.578125 170.226562 C 165.042969 166.261719 173.183594 159.238281 177.777344 155.421875 C 179.601562 153.945312 179.296875 151.535156 177.847656 149.5 Z M 177.847656 149.5 "/>
<path style=" stroke:none;fill-rule:evenodd;fill:rgb(97.254902%,58.431375%,0%);fill-opacity:1;" d="M 45.351562 176.382812 C 43.71875 174.535156 45.164062 172.015625 47.132812 173.449219 C 69.519531 189.765625 97.199219 199.59375 125.785156 199.59375 C 145.078125 199.59375 166.277344 194.589844 185.785156 184.207031 C 188.730469 182.632812 191.199219 186.648438 188.3125 189.304688 C 170.914062 205.390625 145.695312 213.953125 123.96875 213.953125 C 93.515625 213.953125 66.113281 199.847656 45.351562 176.382812 Z M 174.078125 176.699219 C 184.214844 169.621094 200.824219 171.667969 202.753906 174.039062 C 204.699219 176.421875 202.242188 192.972656 192.738281 200.875 C 191.277344 202.09375 189.894531 201.4375 190.539062 199.835938 C 192.675781 194.539062 197.460938 182.660156 195.195312 179.765625 C 192.9375 176.875 180.234375 178.398438 174.519531 179.074219 C 172.785156 179.289062 172.515625 177.785156 174.078125 176.699219 Z M 174.078125 176.699219 "/>
</g>
</svg>
