<svg height="250" viewBox="0 0 250 250" width="250" xmlns="http://www.w3.org/2000/svg"><g fill-rule="evenodd"><path d="m250 125c0 69.035156-55.964844 125-125 125s-125-55.964844-125-125 55.964844-125 125-125 125 55.964844 125 125zm0 0" fill="#fff"/><path d="m137.914062 115.824219h-.007812c0 8.691406.207031 15.914062-4.195312 23.644531-3.5625 6.28125-9.234376 10.140625-15.515626 10.140625-8.617187 0-13.640624-6.519531-13.640624-16.171875 0-18.988281 17.140624-22.445312 33.359374-22.445312zm39.933594 33.675781c-4.089844-5.628906-8.460937-10.214844-8.460937-20.660156v-34.730469c0-14.714844 1.035156-28.230469-9.878907-38.363281-8.597656-8.210938-22.863281-11.101563-33.773437-11.101563-21.335937 0-45.15625 7.914063-50.15625 34.128907-.539063 2.777343 1.511719 4.261718 3.351563 4.65625l21.726562 2.347656c2.042969-.105469 3.515625-2.09375 3.898438-4.105469 1.867187-9.023437 9.476562-13.382813 18.027343-13.382813 4.621094 0 9.867188 1.699219 12.597657 5.785157 3.144531 4.601562 2.71875 10.871093 2.71875 16.183593v2.890626c-13.003907 1.441406-30 2.40625-42.175782 7.726562-14.046875 6.03125-23.917968 18.335938-23.917968 36.429688 0 23.167968 14.699218 34.742187 33.578124 34.742187 15.949219 0 24.667969-3.738281 36.976563-16.203125 4.085937 5.855469 5.40625 8.707031 12.875 14.855469 1.652344.898437 3.804687.820312 5.285156-.519531l.058594.046874c4.464844-3.964843 12.605469-10.988281 17.199219-14.804687 1.824218-1.476563 1.519531-3.886719.070312-5.921875zm0 0"/><path d="m45.351562 176.382812c-1.632812-1.847656-.1875-4.367187 1.78125-2.933593 22.386719 16.316406 50.066407 26.144531 78.652344 26.144531 19.292969 0 40.492188-5.003906 60-15.386719 2.945313-1.574219 5.414063 2.441407 2.527344 5.097657-17.398438 16.085937-42.617188 24.648437-64.34375 24.648437-30.453125 0-57.855469-14.105469-78.617188-37.570313zm128.726563.316407c10.136719-7.078125 26.746094-5.03125 28.675781-2.660157 1.945313 2.382813-.511718 18.933594-10.015625 26.835938-1.460937 1.21875-2.84375.5625-2.199219-1.039062 2.136719-5.296876 6.921876-17.175782 4.65625-20.070313-2.257812-2.890625-14.960937-1.367187-20.675781-.691406-1.734375.214843-2.003906-1.289063-.441406-2.375zm0 0" fill="#f89500"/></g></svg>