<?xml version="1.0" encoding="UTF-8"?>
<svg width="28px" height="28px" viewBox="0 0 28 28" version="1.1" xmlns="http://www.w3.org/2000/svg" xmlns:xlink="http://www.w3.org/1999/xlink">
    <title>mAMZN</title>
    <g id="mAMZN" stroke="none" stroke-width="1" fill="none" fill-rule="evenodd">
        <g id="Group-9" transform="translate(3.000000, 2.000000)">
            <path d="M13.0579749,9.96526601 L13.0569812,9.96526601 C13.0569812,11.1820359 13.0857991,12.193377 12.4696918,13.2758281 C11.9708435,14.1548258 11.1768601,14.6950637 10.2974165,14.6950637 C9.09103857,14.6950637 8.38748373,13.7824863 8.38748373,12.4313977 C8.38748373,9.77267663 10.7873212,9.28873408 13.0579749,9.28873408 L13.0579749,9.96526601 Z M18.6486522,14.6802492 C18.0762686,13.8921141 17.4641361,13.2501495 17.4641361,11.7874579 L17.4641361,6.92531668 C17.4641361,4.8651041 17.6092195,2.97278996 16.0808758,1.55454199 C14.877479,0.404931523 12.8800987,-2.66453526e-14 11.3527488,-2.66453526e-14 C8.36562186,-2.66453526e-14 5.03069243,1.10812968 4.33111247,4.77819197 C4.25558964,5.16732129 4.54277516,5.37472524 4.80014903,5.43003296 L7.84193062,5.75891636 C8.12812242,5.7441018 8.33382277,5.46558792 8.38748373,5.18411113 C8.64883249,3.92092231 9.71410197,3.31056211 10.9115364,3.31056211 C11.5584491,3.31056211 12.2928093,3.54858283 12.6753921,4.12042515 C13.1156107,4.76436504 13.0559875,5.6423751 13.0559875,6.38606641 L13.0559875,6.79099793 C11.2354896,6.99247605 8.85552657,7.12778244 7.15129416,7.87246138 C5.18471926,8.71689176 3.80245262,10.4393322 3.80245262,12.9726233 C3.80245262,16.216026 5.8604499,17.8367398 8.50374915,17.8367398 C10.7366414,17.8367398 11.9569314,17.3132917 13.6800446,15.5681356 C14.2524282,16.387875 14.4372604,16.7868807 15.4826554,17.6481009 C15.7141925,17.7735309 16.0152901,17.7626669 16.2229779,17.5750157 L16.2309277,17.5819292 C16.8559786,17.0268767 17.9957771,16.0431894 18.638715,15.5088773 C18.8941014,15.302461 18.8513714,14.9646889 18.6486522,14.6802492 L18.6486522,14.6802492 Z" id="Fill-1" fill="#F9F9F9"></path>
            <path d="M0.0989518782,18.4435445 C-0.129604072,18.1847833 0.0731151186,17.8321966 0.348375981,18.0326871 C3.48257367,20.3170935 7.35808761,21.692873 11.3598042,21.692873 C14.0607393,21.692873 17.0289855,20.9926378 19.7597322,19.5388348 C20.1721267,19.3185916 20.5179417,19.8805575 20.1134971,20.252897 C17.6778856,22.5047113 14.1471931,23.7037037 11.1054115,23.7037037 C6.84234614,23.7037037 3.00558733,21.728428 0.0989518782,18.4435445 Z M18.1209861,18.4877906 C19.5400204,17.4971899 21.8653288,17.7836048 22.135621,18.1154512 C22.4079007,18.4492728 22.0640731,20.7662712 20.7334799,21.8724256 C20.5287733,22.0432869 20.3349976,21.9514366 20.4254263,21.7272428 C20.7245364,20.9855268 21.3943048,19.3223446 21.0773076,18.9174131 C20.7613041,18.5124816 18.9825426,18.7258114 18.1825968,18.8206246 C17.9401287,18.8502537 17.9023673,18.6398869 18.1209861,18.4877906 Z" id="Combined-Shape" fill="#F89500"></path>
        </g>
    </g>
</svg>