<!-- Generator: Adobe Illustrator 25.0.0, SVG Export Plug-In . SVG Version: 6.00 Build 0)  -->
<svg xmlns="http://www.w3.org/2000/svg" xmlns:xlink="http://www.w3.org/1999/xlink" width="250px" height="250px" viewBox="0 0 250 250" version="1.1">
<g id="surface1">
<path style=" stroke:none;fill-rule:nonzero;fill:rgb(5.882353%,82.352942%,59.215689%);fill-opacity:1;" d="M 137.511719 145.761719 C 140.535156 149.875 143.464844 153.929688 146.828125 157.777344 C 152.886719 164.714844 159.816406 170.40625 168.824219 173.125 C 173.769531 174.621094 178.851562 175.289062 183.972656 175.761719 C 184.375 175.800781 184.679688 175.839844 184.910156 176.285156 C 187.585938 181.390625 189.066406 186.742188 188.371094 192.5625 C 188.316406 193.015625 188.242188 193.464844 188.15625 194.027344 C 188.140625 194.144531 187.996094 194.191406 187.914062 194.109375 C 186.699219 192.914062 185.542969 191.835938 184.277344 190.886719 C 180.054688 187.707031 175.410156 185.542969 170.054688 185.328125 C 162.925781 185.039062 156.804688 189.277344 154.300781 196.09375 C 152.261719 201.648438 152.34375 207.277344 153.707031 212.953125 C 153.773438 213.226562 153.839844 213.503906 153.890625 213.785156 C 153.917969 213.914062 153.898438 214.078125 153.792969 214.050781 C 151.691406 213.4375 149.808594 212.378906 148.023438 211.148438 C 144.738281 208.882812 142.195312 205.921875 140.078125 202.558594 C 139.726562 202.003906 139.949219 201.628906 140.152344 201.183594 C 141.894531 197.390625 143.433594 193.523438 144.605469 189.507812 C 146.972656 181.390625 146.613281 173.296875 144.492188 165.203125 C 142.832031 158.867188 140.261719 152.875 137.632812 146.902344 C 137.488281 146.578125 137.363281 146.246094 137.230469 145.914062 C 137.132812 145.679688 137.402344 145.578125 137.511719 145.761719 Z M 137.511719 145.761719 "/>
<path style=" stroke:none;fill-rule:nonzero;fill:rgb(5.882353%,82.352942%,59.215689%);fill-opacity:1;" d="M 125.332031 220.222656 C 125.207031 220.574219 124.703125 220.582031 124.574219 220.226562 C 121.8125 212.605469 118.046875 205.753906 114.917969 198.617188 C 112.851562 193.914062 110.914062 189.160156 110.195312 184.019531 C 110.195312 184.019531 110.195312 184.015625 110.195312 184.015625 C 110.152344 183.703125 110.472656 183.46875 110.761719 183.597656 C 120.203125 187.765625 129.578125 187.765625 139.007812 183.546875 C 139.296875 183.417969 139.613281 183.660156 139.570312 183.976562 C 139.050781 187.777344 137.90625 191.164062 136.601562 194.507812 C 134.148438 200.789062 131.023438 206.765625 128.28125 212.914062 C 127.238281 215.25 126.261719 217.617188 125.332031 220.222656 Z M 125.332031 220.222656 "/>
<path style=" stroke:none;fill-rule:nonzero;fill:rgb(5.882353%,82.352942%,59.215689%);fill-opacity:1;" d="M 124.339844 133.195312 C 124.511719 132.777344 125.105469 132.78125 125.269531 133.203125 C 125.652344 134.183594 126.023438 135.140625 126.429688 136.085938 C 129.140625 142.359375 131.894531 148.617188 134.582031 154.90625 C 135.390625 156.800781 136.011719 158.777344 136.777344 160.695312 C 137.050781 161.378906 136.925781 161.664062 136.230469 161.925781 C 128.640625 164.816406 121.0625 164.832031 113.464844 161.960938 C 112.746094 161.691406 112.707031 161.390625 112.9375 160.722656 C 115.261719 153.863281 118.378906 147.332031 121.222656 140.691406 C 122.289062 138.203125 123.296875 135.691406 124.339844 133.195312 Z M 124.339844 133.195312 "/>
<path style=" stroke:none;fill-rule:nonzero;fill:rgb(5.882353%,82.352942%,59.215689%);fill-opacity:1;" d="M 192.195312 176.496094 C 192.117188 176.296875 192.269531 176.082031 192.484375 176.09375 C 197.554688 176.4375 202.472656 176.9375 207.339844 177.910156 C 207.992188 178.039062 207.976562 178.453125 208.046875 178.894531 C 209.199219 185.988281 208.996094 193.046875 207.460938 200.058594 C 205.613281 208.472656 202.121094 216.105469 196.265625 222.496094 C 187.320312 232.257812 176.042969 236.457031 162.957031 235.773438 C 150.992188 235.148438 140.4375 230.707031 131.121094 223.234375 C 130.664062 222.863281 130.558594 222.558594 130.753906 221.984375 C 132.328125 217.304688 134.378906 212.828125 136.539062 208.398438 C 136.539062 208.398438 136.539062 208.398438 136.539062 208.394531 C 136.632812 208.210938 136.894531 208.199219 137.023438 208.363281 C 147.910156 222.199219 165.921875 225.917969 180.054688 217.070312 C 192.96875 208.984375 198.609375 192.785156 192.195312 176.496094 Z M 192.195312 176.496094 "/>
<path style=" stroke:none;fill-rule:nonzero;fill:rgb(5.882353%,82.352942%,59.215689%);fill-opacity:1;" d="M 112.390625 146.03125 C 110.335938 150.707031 108.292969 155.269531 106.640625 160.109375 C 103.664062 168.824219 102.199219 177.671875 104.347656 186.832031 C 105.523438 191.863281 107.488281 196.597656 109.640625 201.269531 C 109.808594 201.636719 109.921875 201.917969 109.65625 202.339844 C 106.570312 207.210938 102.675781 211.167969 97.289062 213.476562 C 96.867188 213.65625 96.441406 213.816406 95.914062 214.027344 C 95.804688 214.070312 95.691406 213.96875 95.722656 213.855469 C 96.148438 212.203125 96.503906 210.664062 96.695312 209.09375 C 97.335938 203.847656 96.886719 198.742188 94.394531 193.996094 C 91.078125 187.679688 84.351562 184.496094 77.195312 185.738281 C 71.367188 186.746094 66.53125 189.636719 62.296875 193.652344 C 62.09375 193.847656 61.886719 194.046875 61.671875 194.230469 C 61.570312 194.316406 61.417969 194.382812 61.390625 194.277344 C 60.871094 192.148438 60.847656 189.988281 61.019531 187.832031 C 61.339844 183.851562 62.632812 180.167969 64.484375 176.652344 C 64.789062 176.074219 65.226562 176.078125 65.710938 176.03125 C 69.867188 175.640625 73.988281 175.039062 78.050781 174.046875 C 86.265625 172.039062 93.09375 167.679688 99.042969 161.800781 C 103.699219 157.195312 107.601562 151.96875 111.460938 146.707031 C 111.671875 146.421875 111.898438 146.144531 112.117188 145.863281 C 112.273438 145.664062 112.492188 145.84375 112.390625 146.03125 Z M 112.390625 146.03125 "/>
<path style=" stroke:none;fill-rule:nonzero;fill:rgb(5.882353%,82.352942%,59.215689%);fill-opacity:1;" d="M 41.816406 172.714844 C 41.445312 172.78125 41.191406 172.351562 41.433594 172.0625 C 46.652344 165.855469 50.703125 159.167969 55.316406 152.890625 C 58.359375 148.753906 61.503906 144.699219 65.597656 141.503906 C 65.601562 141.503906 65.601562 141.503906 65.601562 141.5 C 65.851562 141.308594 66.214844 141.46875 66.246094 141.78125 C 67.355469 152.042969 72.046875 160.160156 80.414062 166.222656 C 80.671875 166.40625 80.617188 166.800781 80.324219 166.921875 C 76.773438 168.371094 73.269531 169.074219 69.71875 169.617188 C 63.054688 170.632812 56.316406 170.914062 49.617188 171.613281 C 47.074219 171.878906 44.535156 172.214844 41.816406 172.714844 Z M 41.816406 172.714844 "/>
<path style=" stroke:none;fill-rule:nonzero;fill:rgb(5.882353%,82.352942%,59.215689%);fill-opacity:1;" d="M 116.6875 128.339844 C 117.132812 128.28125 117.425781 128.796875 117.144531 129.152344 C 116.488281 129.972656 115.84375 130.773438 115.230469 131.597656 C 111.152344 137.082031 107.105469 142.59375 103.003906 148.066406 C 101.769531 149.714844 100.367188 151.242188 99.089844 152.863281 C 98.636719 153.441406 98.324219 153.476562 97.75 153.007812 C 91.453125 147.878906 87.648438 141.324219 86.335938 133.304688 C 86.210938 132.550781 86.453125 132.367188 87.148438 132.230469 C 94.25 130.8125 101.460938 130.25 108.636719 129.390625 C 111.324219 129.070312 114.003906 128.6875 116.6875 128.339844 Z M 116.6875 128.339844 "/>
<path style=" stroke:none;fill-rule:nonzero;fill:rgb(5.882353%,82.352942%,59.215689%);fill-opacity:1;" d="M 113.113281 208.753906 C 113.25 208.585938 113.511719 208.613281 113.609375 208.808594 C 115.847656 213.367188 117.871094 217.878906 119.464844 222.578125 C 119.675781 223.210938 119.308594 223.402344 118.960938 223.6875 C 113.394531 228.226562 107.183594 231.582031 100.34375 233.757812 C 92.132812 236.363281 83.777344 237.15625 75.3125 235.277344 C 62.386719 232.414062 53.109375 224.75 47.160156 213.074219 C 41.722656 202.398438 40.285156 191.039062 42.101562 179.234375 C 42.191406 178.652344 42.40625 178.410156 43 178.289062 C 47.839844 177.3125 52.742188 176.851562 57.65625 176.507812 C 57.660156 176.507812 57.660156 176.507812 57.660156 176.507812 C 57.867188 176.492188 58.007812 176.714844 57.933594 176.910156 C 51.394531 193.253906 57.175781 210.710938 71.90625 218.527344 C 85.367188 225.671875 102.214844 222.457031 113.113281 208.753906 Z M 113.113281 208.753906 "/>
<path style=" stroke:none;fill-rule:nonzero;fill:rgb(5.882353%,82.352942%,59.215689%);fill-opacity:1;" d="M 112.179688 102.273438 C 109.160156 98.160156 106.230469 94.109375 102.867188 90.257812 C 96.804688 83.320312 89.875 77.632812 80.867188 74.910156 C 75.925781 73.417969 70.839844 72.746094 65.71875 72.277344 C 65.316406 72.238281 65.015625 72.195312 64.78125 71.753906 C 62.109375 66.648438 60.628906 61.292969 61.324219 55.476562 C 61.378906 55.023438 61.453125 54.570312 61.535156 54.011719 C 61.554688 53.894531 61.695312 53.847656 61.78125 53.929688 C 62.996094 55.125 64.152344 56.203125 65.414062 57.152344 C 69.636719 60.332031 74.285156 62.496094 79.640625 62.710938 C 86.769531 62.996094 92.886719 58.761719 95.394531 51.941406 C 97.433594 46.390625 97.347656 40.761719 95.988281 35.085938 C 95.921875 34.808594 95.851562 34.535156 95.800781 34.253906 C 95.777344 34.125 95.792969 33.957031 95.898438 33.984375 C 98 34.601562 99.886719 35.660156 101.667969 36.890625 C 104.953125 39.15625 107.496094 42.117188 109.617188 45.476562 C 109.964844 46.03125 109.742188 46.410156 109.539062 46.851562 C 107.800781 50.648438 106.257812 54.515625 105.089844 58.53125 C 102.722656 66.648438 103.082031 74.742188 105.199219 82.832031 C 106.859375 89.167969 109.433594 95.164062 112.058594 101.136719 C 112.203125 101.460938 112.328125 101.792969 112.464844 102.121094 C 112.558594 102.359375 112.292969 102.460938 112.179688 102.273438 Z M 112.179688 102.273438 "/>
<path style=" stroke:none;fill-rule:nonzero;fill:rgb(5.882353%,82.352942%,59.215689%);fill-opacity:1;" d="M 124.359375 27.816406 C 124.488281 27.460938 124.988281 27.457031 125.117188 27.8125 C 127.882812 35.433594 131.648438 42.285156 134.777344 49.421875 C 136.839844 54.125 138.78125 58.875 139.496094 64.019531 C 139.496094 64.019531 139.496094 64.019531 139.496094 64.023438 C 139.539062 64.335938 139.222656 64.566406 138.933594 64.441406 C 129.492188 60.273438 120.117188 60.273438 110.683594 64.488281 C 110.394531 64.617188 110.082031 64.375 110.125 64.0625 C 110.644531 60.261719 111.785156 56.875 113.089844 53.53125 C 115.542969 47.25 118.667969 41.273438 121.414062 35.121094 C 122.457031 32.785156 123.433594 30.421875 124.359375 27.816406 Z M 124.359375 27.816406 "/>
<path style=" stroke:none;fill-rule:nonzero;fill:rgb(5.882353%,82.352942%,59.215689%);fill-opacity:1;" d="M 125.355469 114.84375 C 125.183594 115.261719 124.589844 115.253906 124.421875 114.832031 C 124.039062 113.855469 123.667969 112.894531 123.261719 111.953125 C 120.550781 105.675781 117.800781 99.417969 115.113281 93.132812 C 114.300781 91.234375 113.679688 89.257812 112.914062 87.34375 C 112.644531 86.660156 112.769531 86.375 113.460938 86.109375 C 121.050781 83.222656 128.628906 83.207031 136.230469 86.074219 C 136.945312 86.347656 136.984375 86.644531 136.757812 87.316406 C 134.429688 94.175781 131.3125 100.703125 128.46875 107.347656 C 127.40625 109.835938 126.394531 112.34375 125.355469 114.84375 Z M 125.355469 114.84375 "/>
<path style=" stroke:none;fill-rule:nonzero;fill:rgb(5.882353%,82.352942%,59.215689%);fill-opacity:1;" d="M 57.5 71.542969 C 57.578125 71.742188 57.421875 71.957031 57.207031 71.941406 C 52.136719 71.601562 47.21875 71.101562 42.355469 70.128906 C 41.699219 70 41.714844 69.582031 41.644531 69.140625 C 40.496094 62.050781 40.695312 54.992188 42.234375 47.980469 C 44.078125 39.566406 47.574219 31.933594 53.429688 25.542969 C 62.375 15.78125 73.652344 11.578125 86.734375 12.265625 C 98.699219 12.890625 109.253906 17.328125 118.570312 24.804688 C 119.03125 25.175781 119.132812 25.480469 118.9375 26.054688 C 117.363281 30.734375 115.3125 35.210938 113.15625 39.640625 C 113.152344 39.640625 113.152344 39.640625 113.152344 39.640625 C 113.0625 39.828125 112.796875 39.839844 112.667969 39.675781 C 101.785156 25.839844 83.773438 22.117188 69.640625 30.96875 C 56.722656 39.054688 51.082031 55.253906 57.5 71.542969 Z M 57.5 71.542969 "/>
<path style=" stroke:none;fill-rule:nonzero;fill:rgb(5.882353%,82.352942%,59.215689%);fill-opacity:1;" d="M 137.304688 102.003906 C 139.355469 97.332031 141.398438 92.765625 143.050781 87.929688 C 146.03125 79.210938 147.492188 70.367188 145.347656 61.207031 C 144.167969 56.175781 142.207031 51.4375 140.054688 46.769531 C 139.886719 46.402344 139.769531 46.117188 140.039062 45.695312 C 143.121094 40.828125 147.019531 36.867188 152.40625 34.5625 C 152.824219 34.382812 153.25 34.21875 153.78125 34.011719 C 153.890625 33.96875 154 34.070312 153.972656 34.183594 C 153.542969 35.832031 153.191406 37.371094 153 38.941406 C 152.355469 44.191406 152.804688 49.296875 155.296875 54.042969 C 158.613281 60.355469 165.339844 63.539062 172.5 62.300781 C 178.328125 61.289062 183.160156 58.402344 187.394531 54.386719 C 187.601562 54.191406 187.804688 53.992188 188.023438 53.808594 C 188.125 53.722656 188.273438 53.65625 188.304688 53.757812 C 188.824219 55.886719 188.847656 58.046875 188.671875 60.207031 C 188.355469 64.183594 187.0625 67.867188 185.210938 71.382812 C 184.90625 71.964844 184.464844 71.960938 183.980469 72.007812 C 179.824219 72.398438 175.703125 72.996094 171.640625 73.992188 C 163.429688 76 156.597656 80.355469 150.652344 86.238281 C 145.992188 90.84375 142.089844 96.070312 138.230469 101.332031 C 138.019531 101.617188 137.796875 101.890625 137.578125 102.171875 C 137.421875 102.375 137.199219 102.191406 137.304688 102.003906 Z M 137.304688 102.003906 "/>
<path style=" stroke:none;fill-rule:nonzero;fill:rgb(5.882353%,82.352942%,59.215689%);fill-opacity:1;" d="M 207.875 75.324219 C 208.246094 75.253906 208.503906 75.6875 208.261719 75.976562 C 203.042969 82.179688 198.988281 88.867188 194.375 95.144531 C 191.335938 99.285156 188.1875 103.339844 184.09375 106.535156 C 184.09375 106.535156 184.089844 106.535156 184.089844 106.535156 C 183.839844 106.730469 183.480469 106.570312 183.445312 106.257812 C 182.335938 95.996094 177.644531 87.875 169.277344 81.816406 C 169.023438 81.632812 169.074219 81.238281 169.367188 81.117188 C 172.921875 79.667969 176.425781 78.960938 179.972656 78.421875 C 186.640625 77.40625 193.378906 77.121094 200.078125 76.425781 C 202.621094 76.160156 205.15625 75.824219 207.875 75.324219 Z M 207.875 75.324219 "/>
<path style=" stroke:none;fill-rule:nonzero;fill:rgb(5.882353%,82.352942%,59.215689%);fill-opacity:1;" d="M 133.007812 119.699219 C 132.558594 119.757812 132.265625 119.238281 132.550781 118.886719 C 133.207031 118.066406 133.851562 117.265625 134.464844 116.441406 C 138.542969 110.953125 142.585938 105.441406 146.6875 99.972656 C 147.925781 98.324219 149.324219 96.796875 150.601562 95.175781 C 151.058594 94.597656 151.367188 94.5625 151.941406 95.03125 C 158.238281 100.160156 162.042969 106.714844 163.359375 114.730469 C 163.480469 115.488281 163.242188 115.671875 162.546875 115.808594 C 155.445312 117.222656 148.230469 117.789062 141.054688 118.648438 C 138.371094 118.96875 135.691406 119.351562 133.007812 119.699219 Z M 133.007812 119.699219 "/>
<path style=" stroke:none;fill-rule:nonzero;fill:rgb(5.882353%,82.352942%,59.215689%);fill-opacity:1;" d="M 136.578125 39.28125 C 136.445312 39.453125 136.179688 39.425781 136.085938 39.230469 C 133.847656 34.667969 131.820312 30.160156 130.230469 25.460938 C 130.015625 24.828125 130.382812 24.636719 130.730469 24.351562 C 136.296875 19.8125 142.511719 16.457031 149.351562 14.28125 C 157.5625 11.671875 165.917969 10.882812 174.378906 12.757812 C 187.304688 15.625 196.585938 23.289062 202.53125 34.964844 C 207.972656 45.636719 209.40625 56.996094 207.589844 68.804688 C 207.5 69.386719 207.289062 69.628906 206.691406 69.746094 C 201.851562 70.722656 196.953125 71.1875 192.035156 71.53125 C 192.035156 71.53125 192.03125 71.53125 192.03125 71.53125 C 191.824219 71.542969 191.683594 71.320312 191.761719 71.128906 C 198.300781 54.785156 192.519531 37.324219 177.789062 29.507812 C 164.328125 22.367188 147.476562 25.582031 136.578125 39.28125 Z M 136.578125 39.28125 "/>
<path style=" stroke:none;fill-rule:nonzero;fill:rgb(5.882353%,82.352942%,59.215689%);fill-opacity:1;" d="M 150.191406 123.75 C 155.265625 123.1875 160.242188 122.675781 165.257812 121.6875 C 174.296875 119.910156 182.6875 116.753906 189.546875 110.3125 C 193.3125 106.777344 196.433594 102.710938 199.402344 98.511719 C 199.636719 98.183594 199.824219 97.941406 200.324219 97.960938 C 206.082031 98.199219 211.460938 99.59375 216.148438 103.105469 C 216.515625 103.378906 216.871094 103.667969 217.3125 104.023438 C 217.40625 104.09375 217.375 104.242188 217.261719 104.273438 C 215.617188 104.726562 214.109375 105.191406 212.652344 105.808594 C 207.789062 107.878906 203.589844 110.820312 200.726562 115.351562 C 196.914062 121.378906 197.523438 128.796875 202.175781 134.375 C 205.964844 138.917969 210.882812 141.660156 216.476562 143.320312 C 216.75 143.398438 217.023438 143.476562 217.289062 143.574219 C 217.414062 143.617188 217.550781 143.714844 217.472656 143.792969 C 215.890625 145.308594 214.03125 146.40625 212.074219 147.335938 C 208.46875 149.050781 204.632812 149.773438 200.664062 149.925781 C 200.007812 149.953125 199.792969 149.570312 199.511719 149.171875 C 197.09375 145.769531 194.515625 142.5 191.621094 139.480469 C 185.777344 133.371094 178.585938 129.632812 170.519531 127.425781 C 164.203125 125.695312 157.726562 124.925781 151.238281 124.214844 C 150.886719 124.175781 150.535156 124.117188 150.183594 124.070312 C 149.933594 124.035156 149.976562 123.753906 150.191406 123.75 Z M 150.191406 123.75 "/>
<path style=" stroke:none;fill-rule:nonzero;fill:rgb(5.882353%,82.352942%,59.215689%);fill-opacity:1;" d="M 208.585938 171.527344 C 208.828125 171.8125 208.582031 172.25 208.210938 172.183594 C 200.230469 170.769531 192.414062 170.601562 184.667969 169.746094 C 179.5625 169.179688 174.476562 168.484375 169.664062 166.535156 C 169.664062 166.535156 169.664062 166.53125 169.660156 166.53125 C 169.371094 166.414062 169.328125 166.019531 169.582031 165.835938 C 177.914062 159.742188 182.597656 151.621094 183.664062 141.347656 C 183.695312 141.03125 184.0625 140.878906 184.3125 141.074219 C 187.347656 143.425781 189.707031 146.109375 191.953125 148.910156 C 196.164062 154.175781 199.777344 159.871094 203.730469 165.320312 C 205.234375 167.390625 206.792969 169.417969 208.585938 171.527344 Z M 208.585938 171.527344 "/>
<path style=" stroke:none;fill-rule:nonzero;fill:rgb(5.882353%,82.352942%,59.215689%);fill-opacity:1;" d="M 132.722656 128.875 C 132.445312 128.515625 132.75 128.003906 133.195312 128.070312 C 134.234375 128.230469 135.25 128.386719 136.269531 128.507812 C 143.0625 129.296875 149.855469 130.042969 156.644531 130.859375 C 158.691406 131.105469 160.714844 131.554688 162.757812 131.851562 C 163.484375 131.957031 163.667969 132.207031 163.550781 132.9375 C 162.257812 140.957031 158.484375 147.527344 152.199219 152.675781 C 151.605469 153.160156 151.328125 153.042969 150.859375 152.511719 C 146.082031 147.066406 141.988281 141.105469 137.65625 135.320312 C 136.035156 133.152344 134.363281 131.023438 132.722656 128.875 Z M 132.722656 128.875 "/>
<path style=" stroke:none;fill-rule:nonzero;fill:rgb(5.882353%,82.352942%,59.215689%);fill-opacity:1;" d="M 204.148438 91.757812 C 203.9375 91.726562 203.828125 91.484375 203.949219 91.304688 C 206.777344 87.085938 209.671875 83.078125 212.945312 79.351562 C 213.386719 78.847656 213.734375 79.070312 214.15625 79.230469 C 220.871094 81.78125 226.882812 85.484375 232.1875 90.320312 C 238.550781 96.125 243.414062 102.96875 246.019531 111.234375 C 250 123.863281 248.003906 135.730469 240.867188 146.71875 C 234.339844 156.765625 225.222656 163.6875 214.089844 168.019531 C 213.539062 168.230469 213.222656 168.167969 212.824219 167.710938 C 209.554688 164.007812 206.707031 159.996094 203.949219 155.910156 C 203.949219 155.910156 203.949219 155.90625 203.949219 155.90625 C 203.832031 155.734375 203.957031 155.5 204.160156 155.472656 C 221.585938 152.960938 233.8125 139.226562 233.21875 122.5625 C 232.671875 107.332031 221.464844 94.347656 204.148438 91.757812 Z M 204.148438 91.757812 "/>
<path style=" stroke:none;fill-rule:nonzero;fill:rgb(5.882353%,82.352942%,59.215689%);fill-opacity:1;" d="M 99.824219 124.140625 C 94.75 124.699219 89.773438 125.210938 84.757812 126.199219 C 75.71875 127.980469 67.328125 131.136719 60.46875 137.574219 C 56.703125 141.109375 53.582031 145.179688 50.613281 149.375 C 50.378906 149.707031 50.191406 149.949219 49.691406 149.925781 C 43.933594 149.691406 38.554688 148.296875 33.863281 144.785156 C 33.5 144.511719 33.144531 144.222656 32.703125 143.867188 C 32.609375 143.792969 32.640625 143.648438 32.753906 143.617188 C 34.398438 143.160156 35.90625 142.699219 37.363281 142.078125 C 42.226562 140.011719 46.425781 137.070312 49.289062 132.539062 C 53.101562 126.507812 52.492188 119.089844 47.839844 113.511719 C 44.050781 108.96875 39.132812 106.226562 33.539062 104.570312 C 33.265625 104.488281 32.992188 104.410156 32.726562 104.316406 C 32.601562 104.269531 32.464844 104.171875 32.542969 104.09375 C 34.125 102.582031 35.984375 101.480469 37.941406 100.550781 C 41.546875 98.839844 45.382812 98.117188 49.351562 97.960938 C 50.007812 97.9375 50.222656 98.316406 50.503906 98.714844 C 52.921875 102.121094 55.5 105.386719 58.394531 108.410156 C 64.238281 114.519531 71.425781 118.253906 79.496094 120.464844 C 85.8125 122.195312 92.289062 122.964844 98.777344 123.675781 C 99.128906 123.714844 99.480469 123.769531 99.832031 123.820312 C 100.082031 123.855469 100.039062 124.136719 99.824219 124.140625 Z M 99.824219 124.140625 "/>
<path style=" stroke:none;fill-rule:nonzero;fill:rgb(5.882353%,82.352942%,59.215689%);fill-opacity:1;" d="M 41.429688 76.363281 C 41.1875 76.074219 41.433594 75.640625 41.804688 75.703125 C 49.785156 77.121094 57.601562 77.285156 65.347656 78.144531 C 70.453125 78.707031 75.539062 79.40625 80.351562 81.355469 C 80.644531 81.476562 80.6875 81.867188 80.433594 82.054688 C 72.101562 88.144531 67.414062 96.269531 66.351562 106.542969 C 66.320312 106.859375 65.953125 107.007812 65.703125 106.816406 C 62.667969 104.464844 60.308594 101.78125 58.0625 98.980469 C 53.851562 93.714844 50.238281 88.019531 46.285156 82.566406 C 44.78125 80.496094 43.222656 78.46875 41.429688 76.363281 Z M 41.429688 76.363281 "/>
<path style=" stroke:none;fill-rule:nonzero;fill:rgb(5.882353%,82.352942%,59.215689%);fill-opacity:1;" d="M 117.292969 119.015625 C 117.570312 119.371094 117.265625 119.882812 116.820312 119.816406 C 115.78125 119.660156 114.765625 119.5 113.746094 119.382812 C 106.953125 118.59375 100.160156 117.84375 93.371094 117.03125 C 91.324219 116.78125 89.300781 116.332031 87.257812 116.039062 C 86.53125 115.933594 86.347656 115.683594 86.464844 114.949219 C 87.757812 106.933594 91.53125 100.359375 97.816406 95.214844 C 98.410156 94.726562 98.6875 94.84375 99.15625 95.378906 C 103.933594 100.820312 108.027344 106.785156 112.359375 112.570312 C 113.980469 114.734375 115.652344 116.863281 117.292969 119.015625 Z M 117.292969 119.015625 "/>
<path style=" stroke:none;fill-rule:nonzero;fill:rgb(5.882353%,82.352942%,59.215689%);fill-opacity:1;" d="M 45.867188 156.128906 C 46.078125 156.160156 46.1875 156.402344 46.066406 156.582031 C 43.238281 160.804688 40.34375 164.808594 37.070312 168.539062 C 36.628906 169.039062 36.277344 168.816406 35.859375 168.660156 C 29.144531 166.109375 23.132812 162.40625 17.828125 157.570312 C 11.464844 151.761719 6.601562 144.921875 3.996094 136.65625 C 0.015625 124.027344 2.011719 112.160156 9.148438 101.171875 C 15.671875 91.121094 24.792969 84.203125 35.925781 79.871094 C 36.476562 79.65625 36.792969 79.722656 37.191406 80.175781 C 40.457031 83.878906 43.308594 87.894531 46.066406 91.976562 C 46.066406 91.980469 46.066406 91.980469 46.066406 91.980469 C 46.183594 92.15625 46.058594 92.386719 45.855469 92.417969 C 28.429688 94.925781 16.199219 108.664062 16.796875 125.328125 C 17.34375 140.554688 28.550781 153.542969 45.867188 156.128906 Z M 45.867188 156.128906 "/>
</g>
</svg>
