<svg height="250" viewBox="0 0 250 250" width="250" xmlns="http://www.w3.org/2000/svg"><g fill="#0fd297"><path d="m137.511719 145.761719c3.023437 4.113281 5.953125 8.167969 9.316406 12.015625 6.058594 6.9375 12.988281 12.628906 21.996094 15.347656 4.945312 1.496094 10.027343 2.164062 15.148437 2.636719.402344.039062.707032.078125.9375.523437 2.675782 5.105469 4.15625 10.457032 3.460938 16.277344-.054688.453125-.128906.902344-.214844 1.464844-.015625.117187-.160156.164062-.242188.082031-1.214843-1.195313-2.371093-2.273437-3.636718-3.222656-4.222656-3.179688-8.867188-5.34375-14.222656-5.558594-7.128907-.289063-13.25 3.949219-15.753907 10.765625-2.039062 5.554688-1.957031 11.183594-.59375 16.859375.066407.273437.132813.550781.183594.832031.027344.128906.007813.292969-.097656.265625-2.101563-.613281-3.984375-1.671875-5.769531-2.902343-3.285157-2.265626-5.828126-5.226563-7.945313-8.589844-.351563-.554688-.128906-.929688.074219-1.375 1.742187-3.792969 3.28125-7.660156 4.453125-11.675782 2.367187-8.117187 2.007812-16.210937-.113281-24.304687-1.660157-6.335937-4.230469-12.328125-6.859376-18.300781-.144531-.324219-.269531-.65625-.402343-.988282-.097657-.234374.171875-.335937.28125-.152343zm0 0"/><path d="m125.332031 220.222656c-.125.351563-.628906.359375-.757812.003906-2.761719-7.621093-6.527344-14.472656-9.65625-21.609374-2.066407-4.703126-4.003907-9.457032-4.722657-14.597657v-.003906c-.042968-.3125.277344-.546875.566407-.417969 9.441406 4.167969 18.816406 4.167969 28.246093-.050781.289063-.128906.605469.113281.5625.429687-.519531 3.800782-1.664062 7.1875-2.96875 10.53125-2.453124 6.28125-5.578124 12.257813-8.320312 18.40625-1.042969 2.335938-2.019531 4.703126-2.949219 7.308594zm0 0"/><path d="m124.339844 133.195312c.171875-.417968.765625-.414062.929687.007813.382813.980469.753907 1.9375 1.160157 2.882813 2.710937 6.273437 5.464843 12.53125 8.152343 18.820312.808594 1.894531 1.429688 3.871094 2.195313 5.789062.273437.683594.148437.96875-.546875 1.230469-7.589844 2.890625-15.167969 2.90625-22.765625.035157-.71875-.269532-.757813-.570313-.527344-1.238282 2.324219-6.859375 5.441406-13.390625 8.285156-20.03125 1.066406-2.488281 2.074219-5 3.117188-7.496094zm0 0"/><path d="m192.195312 176.496094c-.078124-.199219.074219-.414063.289063-.402344 5.070313.34375 9.988281.84375 14.855469 1.816406.652344.128906.636718.542969.707031.984375 1.152344 7.09375.949219 14.152344-.585937 21.164063-1.847657 8.414062-5.339844 16.046875-11.195313 22.4375-8.945313 9.761718-20.222656 13.960937-33.308594 13.277344-11.964843-.625-22.519531-5.066407-31.835937-12.539063-.457032-.371094-.5625-.675781-.367188-1.25 1.574219-4.679687 3.625-9.15625 5.785156-13.585937 0 0 0 0 0-.003907.09375-.183593.355469-.195312.484376-.03125 10.886718 13.835938 28.898437 17.554688 43.03125 8.707031 12.914062-8.085937 18.554687-24.285156 12.140624-40.574218zm0 0"/><path d="m112.390625 146.03125c-2.054687 4.675781-4.097656 9.238281-5.75 14.078125-2.976563 8.714844-4.441406 17.5625-2.292969 26.722656 1.175782 5.03125 3.140625 9.765625 5.292969 14.4375.167969.367188.28125.648438.015625 1.070313-3.085938 4.871094-6.980469 8.828125-12.367188 11.136718-.421874.179688-.847656.339844-1.375.550782-.109374.042968-.222656-.058594-.191406-.171875.425782-1.652344.78125-3.191407.972656-4.761719.640626-5.246094.191407-10.351562-2.300781-15.097656-3.316406-6.316406-10.042969-9.5-17.199219-8.257813-5.828124 1.007813-10.664062 3.898438-14.898437 7.914063-.203125.195312-.410156.394531-.625.578125-.101563.085937-.253906.152343-.28125.046875-.519531-2.128906-.542969-4.289063-.371094-6.445313.320313-3.980469 1.613281-7.664062 3.464844-11.179687.304687-.578125.742187-.574219 1.226563-.621094 4.15625-.390625 8.277343-.992188 12.339843-1.984375 8.214844-2.007813 15.042969-6.367187 20.992188-12.246094 4.65625-4.605469 8.558593-9.832031 12.417969-15.09375.210937-.285156.4375-.5625.65625-.84375.15625-.199219.375-.019531.273437.167969zm0 0"/><path d="m41.816406 172.714844c-.371094.066406-.625-.363282-.382812-.652344 5.21875-6.207031 9.269531-12.894531 13.882812-19.171875 3.042969-4.136719 6.1875-8.191406 10.28125-11.386719.003906 0 .003906 0 .003906-.003906.25-.191406.613282-.03125.644532.28125 1.109375 10.261719 5.800781 18.378906 14.167968 24.441406.257813.183594.203126.578125-.089843.699219-3.550781 1.449219-7.054688 2.152344-10.605469 2.695313-6.664062 1.015624-13.402344 1.296874-20.101562 1.996093-2.542969.265625-5.082032.601563-7.800782 1.101563zm0 0"/><path d="m116.6875 128.339844c.445312-.058594.738281.457031.457031.8125-.65625.820312-1.300781 1.621094-1.914062 2.445312-4.078125 5.484375-8.125 10.996094-12.226563 16.46875-1.234375 1.648438-2.636718 3.175782-3.914062 4.796875-.453125.578125-.765625.613281-1.339844.144531-6.296875-5.128906-10.101562-11.683593-11.414062-19.703124-.125-.753907.117187-.9375.8125-1.074219 7.101562-1.417969 14.3125-1.980469 21.488281-2.839844 2.6875-.320313 5.367187-.703125 8.050781-1.050781zm0 0"/><path d="m113.113281 208.753906c.136719-.167968.398438-.140625.496094.054688 2.238281 4.558594 4.261719 9.070312 5.855469 13.769531.210937.632813-.15625.824219-.503906 1.109375-5.566407 4.539062-11.777344 7.894531-18.617188 10.070312-8.210938 2.605469-16.566406 3.398438-25.03125 1.519532-12.925781-2.863282-22.203125-10.527344-28.152344-22.203125-5.4375-10.675781-6.875-22.035157-5.058594-33.839844.089844-.582031.304688-.824219.898438-.945313 4.839844-.976562 9.742188-1.4375 14.65625-1.78125h.003906c.207032-.015624.347656.207032.273438.402344-6.539063 16.34375-.757813 33.800782 13.972656 41.617188 13.460938 7.144531 30.308594 3.929687 41.207031-9.773438zm0 0"/><path d="m112.179688 102.273438c-3.019532-4.113282-5.949219-8.164063-9.3125-12.015626-6.0625-6.9375-12.992188-12.625-22-15.347656-4.941407-1.492187-10.027344-2.164062-15.148438-2.632812-.402344-.039063-.703125-.082032-.9375-.523438-2.671875-5.105468-4.152344-10.460937-3.457031-16.277344.054687-.453124.128906-.90625.210937-1.464843.019532-.117188.160156-.164063.246094-.082031 1.214844 1.195312 2.371094 2.273437 3.632812 3.222656 4.222657 3.179687 8.871094 5.34375 14.226563 5.558594 7.128906.285156 13.246094-3.949219 15.753906-10.769532 2.039063-5.550781 1.953125-11.179687.59375-16.855468-.066406-.277344-.136719-.550782-.1875-.832032-.023437-.128906-.007812-.296875.097657-.269531 2.101562.617187 3.988281 1.675781 5.769531 2.90625 3.285156 2.265625 5.828125 5.226563 7.949219 8.585937.347656.554688.125.933594-.078126 1.375-1.738281 3.796876-3.28125 7.664063-4.449218 11.679688-2.367188 8.117188-2.007813 16.210938.109375 24.300781 1.660156 6.335938 4.234375 12.332031 6.859375 18.304688.144531.324219.269531.65625.40625.984375.09375.238281-.171875.339844-.285156.152344zm0 0"/><path d="m124.359375 27.816406c.128906-.355468.628906-.359375.757813-.003906 2.765624 7.621094 6.53125 14.472656 9.660156 21.609375 2.0625 4.703125 4.003906 9.453125 4.71875 14.597656v.003907c.042968.3125-.273438.542968-.5625.417968-9.441406-4.167968-18.816406-4.167968-28.25.046875-.289063.128907-.601563-.113281-.558594-.425781.519531-3.800781 1.660156-7.1875 2.964844-10.53125 2.453125-6.28125 5.578125-12.257812 8.324218-18.410156 1.042969-2.335938 2.019532-4.699219 2.945313-7.304688zm0 0"/><path d="m125.355469 114.84375c-.171875.417969-.765625.410156-.933594-.011719-.382813-.976562-.753906-1.9375-1.160156-2.878906-2.710938-6.277344-5.460938-12.535156-8.148438-18.820313-.8125-1.898437-1.433593-3.875-2.199219-5.789062-.269531-.683594-.144531-.96875.546876-1.234375 7.589843-2.886719 15.167968-2.902344 22.769531-.035156.714843.273437.753906.570312.527343 1.242187-2.328124 6.859375-5.445312 13.386719-8.289062 20.03125-1.0625 2.488282-2.074219 4.996094-3.113281 7.496094zm0 0"/><path d="m57.5 71.542969c.078125.199219-.078125.414062-.292969.398437-5.070312-.339844-9.988281-.839844-14.851562-1.8125-.65625-.128906-.640625-.546875-.710938-.988281-1.148437-7.089844-.949219-14.148437.589844-21.160156 1.84375-8.414063 5.339844-16.046875 11.195313-22.4375 8.945312-9.761719 20.222656-13.964844 33.304687-13.277344 11.964844.625 22.519531 5.0625 31.835937 12.539063.460938.371093.5625.675781.367188 1.25-1.574219 4.679687-3.625 9.15625-5.78125 13.585937-.003906 0-.003906 0-.003906 0-.089844.1875-.355469.199219-.484375.035156-10.882813-13.835937-28.894531-17.558593-43.027344-8.707031-12.917969 8.085938-18.558594 24.285156-12.140625 40.574219zm0 0"/><path d="m137.304688 102.003906c2.050781-4.671875 4.09375-9.238281 5.746093-14.074218 2.980469-8.71875 4.441407-17.5625 2.296875-26.722657-1.179687-5.03125-3.140625-9.769531-5.292968-14.4375-.167969-.367187-.285157-.652343-.015626-1.074219 3.082032-4.867187 6.980469-8.828124 12.367188-11.132812.417969-.179688.84375-.34375 1.375-.550781.109375-.042969.21875.058593.191406.171875-.429687 1.648437-.78125 3.1875-.972656 4.757812-.644531 5.25-.195312 10.355469 2.296875 15.101563 3.316406 6.3125 10.042969 9.496093 17.203125 8.257812 5.828125-1.011719 10.660156-3.898437 14.894531-7.914062.207031-.195313.410157-.394531.628907-.578125.101562-.085938.25-.152344.28125-.050782.519531 2.128907.542968 4.289063.367187 6.449219-.316406 3.976563-1.609375 7.660157-3.460937 11.175781-.304688.582032-.746094.578126-1.230469.625-4.15625.390626-8.277344.988282-12.339844 1.984376-8.210937 2.007812-15.042969 6.363281-20.988281 12.246093-4.660156 4.605469-8.5625 9.832031-12.421875 15.09375-.210938.285157-.433594.558594-.652344.839844-.15625.203125-.378906.019531-.273437-.167969zm0 0"/><path d="m207.875 75.324219c.371094-.070313.628906.363281.386719.652343-5.21875 6.203126-9.273438 12.890626-13.886719 19.167969-3.039062 4.140625-6.1875 8.195313-10.28125 11.390625h-.003906c-.25.195313-.609375.035156-.644532-.277344-1.109374-10.261718-5.800781-18.382812-14.167968-24.441406-.253906-.183594-.203125-.578125.089844-.699218 3.554687-1.449219 7.058593-2.15625 10.605468-2.695313 6.667969-1.015625 13.40625-1.300781 20.105469-1.996094 2.542969-.265625 5.078125-.601562 7.796875-1.101562zm0 0"/><path d="m133.007812 119.699219c-.449218.058593-.742187-.460938-.457031-.8125.65625-.820313 1.300781-1.621094 1.914063-2.445313 4.078125-5.488281 8.121094-11 12.222656-16.46875 1.238281-1.648437 2.636719-3.175781 3.914062-4.796875.457032-.578125.765626-.613281 1.339844-.144531 6.296875 5.128906 10.101563 11.683594 11.417969 19.699219.121094.757812-.117187.941406-.8125 1.078125-7.101563 1.414062-14.316406 1.980468-21.492187 2.839844-2.683594.320312-5.363282.703124-8.046876 1.050781zm0 0"/><path d="m136.578125 39.28125c-.132813.171875-.398437.144531-.492187-.050781-2.238282-4.5625-4.265626-9.070313-5.855469-13.769531-.214844-.632813.152343-.824219.5-1.109376 5.566406-4.539062 11.78125-7.894531 18.621093-10.070312 8.210938-2.609375 16.566407-3.398438 25.027344-1.523438 12.925782 2.867188 22.207032 10.53125 28.152344 22.207032 5.441406 10.671875 6.875 22.03125 5.058594 33.839844-.089844.582031-.300782.824218-.898438.941406-4.839844.976562-9.738281 1.441406-14.65625 1.785156h-.003906c-.207031.011719-.347656-.210938-.269531-.402344 6.539062-16.34375.757812-33.804687-13.972657-41.621094-13.460937-7.140624-30.3125-3.925781-41.210937 9.773438zm0 0"/><path d="m150.191406 123.75c5.074219-.5625 10.050782-1.074219 15.066406-2.0625 9.039063-1.777344 17.429688-4.933594 24.289063-11.375 3.765625-3.535156 6.886719-7.601562 9.855469-11.800781.234375-.328125.421875-.570313.921875-.550781 5.757812.238281 11.136719 1.632812 15.824219 5.144531.367187.273437.722656.5625 1.164062.917969.09375.070312.0625.21875-.050781.25-1.644531.453124-3.152344.917968-4.609375 1.535156-4.863282 2.070312-9.0625 5.011718-11.925782 9.542968-3.8125 6.027344-3.203124 13.445313 1.449219 19.023438 3.789063 4.542969 8.707031 7.285156 14.300781 8.945312.273438.078126.546876.15625.8125.253907.125.042969.261719.140625.183594.21875-1.582031 1.515625-3.441406 2.613281-5.398437 3.542969-3.605469 1.714843-7.441407 2.4375-11.410157 2.589843-.65625.027344-.871093-.355469-1.152343-.753906-2.417969-3.402344-4.996094-6.671875-7.890625-9.691406-5.84375-6.109375-13.035156-9.847657-21.101563-12.054688-6.316406-1.730469-12.792969-2.5-19.28125-3.210937-.351562-.039063-.703125-.097656-1.054687-.144532-.25-.035156-.207032-.316406.007812-.320312zm0 0"/><path d="m208.585938 171.527344c.242187.285156-.003907.722656-.375.65625-7.980469-1.414063-15.796876-1.582032-23.542969-2.4375-5.105469-.566406-10.191407-1.261719-15.003907-3.210938 0 0 0-.003906-.003906-.003906-.289062-.117188-.332031-.511719-.078125-.695312 8.332031-6.09375 13.015625-14.214844 14.082031-24.488282.03125-.316406.398438-.46875.648438-.273437 3.035156 2.351562 5.394531 5.035156 7.640625 7.835937 4.210937 5.265625 7.824219 10.960938 11.777344 16.410156 1.503906 2.070313 3.0625 4.097657 4.855469 6.207032zm0 0"/><path d="m132.722656 128.875c-.277344-.359375.027344-.871094.472656-.804688 1.039063.160157 2.054688.316407 3.074219.4375 6.792969.789063 13.585938 1.535157 20.375 2.351563 2.046875.246094 4.070313.695313 6.113281.992187.726563.105469.910157.355469.792969 1.085938-1.292969 8.019531-5.066406 14.589844-11.351562 19.738281-.59375.484375-.871094.367188-1.339844-.164062-4.777344-5.445313-8.871094-11.40625-13.203125-17.191407-1.621094-2.167968-3.292969-4.296874-4.933594-6.445312zm0 0"/><path d="m204.148438 91.757812c-.210938-.03125-.320313-.273437-.199219-.453124 2.828125-4.21875 5.722656-8.226563 8.996093-11.953126.441407-.503906.789063-.28125 1.210938-.121093 6.714844 2.550781 12.726562 6.253906 18.03125 11.089843 6.363281 5.804688 11.226562 12.648438 13.832031 20.914063 3.980469 12.628906 1.984375 24.496094-5.152343 35.484375-6.527344 10.046875-15.644532 16.96875-26.777344 21.300781-.550782.210938-.867188.148438-1.265625-.308593-3.269531-3.703126-6.117188-7.714844-8.875-11.800782v-.003906c-.117188-.171875.007812-.40625.210937-.433594 17.425782-2.511718 29.652344-16.246094 29.058594-32.910156-.546875-15.230469-11.753906-28.214844-29.070312-30.804688zm0 0"/><path d="m99.824219 124.140625c-5.074219.558594-10.050781 1.070313-15.066407 2.058594-9.039062 1.78125-17.429687 4.9375-24.289062 11.375-3.765625 3.535156-6.886719 7.605469-9.855469 11.800781-.234375.332031-.421875.574219-.921875.550781-5.757812-.234375-11.136718-1.628906-15.828125-5.140625-.363281-.273437-.71875-.5625-1.160156-.917968-.09375-.074219-.0625-.21875.050781-.25 1.644532-.457032 3.152344-.917969 4.609375-1.539063 4.863281-2.066406 9.0625-5.007813 11.925781-9.539063 3.8125-6.03125 3.203126-13.449218-1.449218-19.027343-3.789063-4.542969-8.707032-7.285157-14.300782-8.941407-.273437-.082031-.546874-.160156-.8125-.253906-.125-.046875-.261718-.144531-.183593-.222656 1.582031-1.511719 3.441406-2.613281 5.398437-3.542969 3.605469-1.710937 7.441406-2.433593 11.410156-2.589843.65625-.023438.871094.355468 1.152344.753906 2.417969 3.40625 4.996094 6.671875 7.890625 9.695312 5.84375 6.109375 13.03125 9.84375 21.101563 12.054688 6.316406 1.730468 12.792968 2.5 19.28125 3.210937.351562.039063.703125.09375 1.054687.144531.25.035157.207031.316407-.007812.320313zm0 0"/><path d="m41.429688 76.363281c-.242188-.289062.003906-.722656.375-.660156 7.980468 1.417969 15.796874 1.582031 23.542968 2.441406 5.105469.5625 10.191406 1.261719 15.003906 3.210938.292969.121093.335938.511719.082032.699219-8.332032 6.089843-13.019532 14.214843-14.082032 24.488281-.03125.316406-.398437.464843-.648437.273437-3.035156-2.351562-5.394531-5.035156-7.640625-7.835937-4.210938-5.265625-7.824219-10.960938-11.777344-16.414063-1.503906-2.070312-3.0625-4.097656-4.855468-6.203125zm0 0"/><path d="m117.292969 119.015625c.277343.355469-.027344.867187-.472657.800781-1.039062-.15625-2.054687-.316406-3.074218-.433594-6.792969-.789062-13.585938-1.539062-20.375-2.351562-2.046875-.25-4.070313-.699219-6.113282-.992188-.726562-.105468-.910156-.355468-.792968-1.089843 1.292968-8.015625 5.066406-14.589844 11.351562-19.734375.59375-.488282.871094-.371094 1.339844.164062 4.777344 5.441406 8.871094 11.40625 13.203125 17.191406 1.621094 2.164063 3.292969 4.292969 4.933594 6.445313zm0 0"/><path d="m45.867188 156.128906c.210937.03125.320312.273438.199218.453125-2.828125 4.222657-5.722656 8.226563-8.996094 11.957031-.441406.5-.792968.277344-1.210937.121094-6.714844-2.550781-12.726563-6.253906-18.03125-11.089844-6.363281-5.808593-11.226563-12.648437-13.832031-20.914062-3.980469-12.628906-1.984375-24.496094 5.152344-35.484375 6.523437-10.050781 15.644531-16.96875 26.777343-21.300781.550781-.214844.867188-.148438 1.265625.304687 3.265625 3.703125 6.117188 7.71875 8.875 11.800781v.003907c.117188.175781-.007812.40625-.210937.4375-17.425781 2.507812-29.65625 16.246093-29.058594 32.910156.546875 15.226563 11.753906 28.214844 29.070313 30.800781zm0 0"/></g></svg>