<svg height="250" viewBox="0 0 250 250" width="250" xmlns="http://www.w3.org/2000/svg"><path d="m123.699219 0h2.601562c68.316407 0 123.699219 55.382812 123.699219 123.699219v2.601562c0 68.316407-55.382812 123.699219-123.699219 123.699219h-2.601562c-68.316407 0-123.699219-55.382812-123.699219-123.699219v-2.601562c0-68.316407 55.382812-123.699219 123.699219-123.699219zm0 0"/><g fill="#fff"><path d="m107.929688 63.332031c-17.964844 1.921875-33.125 14.410157-38.394532 31.671875-1.84375 6.050782-2.492187 12.824219-1.6875 17.964844.128906.855469.15625.832031 1.558594-1.6875 6.125-11.136719 16.820312-18.925781 29.464844-21.417969 4.230468-.855469 11.578125-.832031 15.546875 0 17.578125 3.714844 30.636719 16.902344 34.425781 34.683594l.441406 2.078125.882813-1.949219c5.011719-10.980469 5.527343-23.128906 1.453125-34.136719-1.167969-3.167968-3.6875-7.761718-5.789063-10.539062-6.777343-9.0625-16.925781-14.980469-28.246093-16.460938-2.671876-.363281-7.371094-.464843-9.65625-.207031zm0 0"/><path d="m155.179688 85.582031c0 .050781.542968.882813 1.21875 1.867188 1.609374 2.414062 3.996093 7.449219 4.984374 10.59375 1.347657 4.230469 1.894532 7.941406 1.921876 13.132812.023437 6.074219-.703126 10.175781-2.859376 15.835938-4.773437 12.617187-15.054687 22.480469-27.800781 26.738281-6.957031 2.3125-14.746093 2.882812-21.546875 1.585938-1.324218-.261719-2.386718-.363282-2.386718-.261719 0 .363281 5.214843 5.660156 6.824218 6.957031 5.660156 4.46875 11.917969 7.375 19.132813 8.878906 3.921875.804688 10.59375.832032 14.851562.027344 21.441407-4.050781 36.394531-23.054688 35.433594-45.066406-.726563-16.25-10.019531-30.867188-24.195313-37.980469-2.203124-1.117187-5.578124-2.515625-5.578124-2.308594zm0 0"/><path d="m99.234375 99.730469c-10.332031 1.839843-19.574219 7.449219-26.140625 15.886719-4.207031 5.398437-7.089844 11.835937-8.570312 19.183593-.777344 3.945313-.828126 11.683594-.101563 15.707031 3.21875 17.753907 15.703125 31.410157 32.605469 35.667969 12.71875 3.191407 26.789062-.050781 36.992187-8.539062l1.738281-1.429688-3.996093-.15625c-13.734375-.542969-25.832031-7.269531-33.851563-18.820312-6.800781-9.761719-9.425781-22.921875-6.957031-34.890625.699219-3.425782 1.894531-6.777344 3.765625-10.515625 1.996094-4.074219 4.359375-7.550781 7.214844-10.5625l1.894531-2.027344-.984375.027344c-.574219 0-2.183594.234375-3.609375.46875zm0 0"/></g></svg>