
<svg xmlns="http://www.w3.org/2000/svg" xmlns:xlink="http://www.w3.org/1999/xlink" width="250px" height="250px" viewBox="0 0 250 250" version="1.1">
<g id="surface1">
<path style=" stroke:none;fill-rule:evenodd;fill:rgb(100%,53.333336%,0.784314%);fill-opacity:1;" d="M 243.222656 103.917969 C 240.808594 107.730469 235.035156 115.621094 220.101562 125.171875 C 216.527344 127.480469 212.605469 129.480469 208.464844 131.332031 C 205.292969 132.910156 204.386719 136.796875 204.195312 139.683594 L 204.195312 142.878906 C 204.195312 142.996094 204.195312 143.035156 204.195312 143.035156 L 204.195312 173.914062 C 226.878906 164.558594 242.910156 151.042969 248.148438 135.566406 C 249.339844 131.984375 250 128.328125 250 124.59375 C 249.96875 117.394531 247.554688 110.386719 243.222656 103.917969 Z M 243.222656 103.917969 "/>
<path style=" stroke:none;fill-rule:evenodd;fill:rgb(100%,53.333336%,0.784314%);fill-opacity:1;" d="M 178.097656 138.988281 C 165.863281 141.914062 152.5 143.839844 138.445312 144.570312 L 138.445312 157.238281 C 138.445312 164.4375 134.554688 170.253906 129.722656 170.253906 C 124.921875 170.253906 121.003906 164.4375 121.003906 157.238281 L 121.003906 144.878906 C 69.238281 143.957031 25.664062 127.054688 9.351562 103.722656 C 5.335938 109.765625 3.136719 116.273438 3.136719 123.011719 C 3.136719 126.667969 3.828125 130.25 5.050781 133.753906 C 15.214844 162.628906 65.535156 184.535156 126.148438 184.535156 C 147.511719 184.535156 167.589844 181.804688 185.09375 177.027344 L 185.09375 149.308594 C 184.96875 139.453125 179.164062 138.988281 178.097656 138.988281 Z M 178.097656 138.988281 "/>
<path style=" stroke:none;fill-rule:evenodd;fill:rgb(100%,53.333336%,0.784314%);fill-opacity:1;" d="M 123.195312 0 C 55.152344 0 0 28.027344 0 62.640625 C 0 66.375 0.691406 70.035156 1.914062 73.578125 C 11.828125 102.222656 60.046875 124.167969 118.742188 125.207031 L 118.742188 124.128906 C 118.742188 111.539062 118.179688 94.445312 112.027344 86.707031 C 108.074219 81.699219 92.953125 74.691406 85.832031 69.839844 C 83.417969 68.457031 81.253906 66.953125 79.464844 65.375 C 78.742188 64.757812 78.148438 64.183594 77.675781 63.605469 C 74.601562 60.292969 72.875 56.636719 72.875 52.785156 C 72.875 38.195312 97.347656 26.375 127.496094 26.375 C 157.644531 26.375 182.113281 38.195312 182.113281 52.785156 C 182.113281 60.0625 176.027344 66.644531 166.175781 71.421875 C 162.191406 74.152344 145.441406 79.3125 140.890625 89.515625 C 137.03125 98.21875 136.8125 111.960938 136.8125 124.898438 C 191.304688 121.855469 235.070312 100.71875 244.480469 73.578125 C 245.703125 70.035156 246.394531 66.375 246.394531 62.640625 C 246.425781 28.027344 191.242188 0 123.195312 0 Z M 123.195312 0 "/>
<path style=" stroke:none;fill-rule:evenodd;fill:rgb(100%,53.333336%,0.784314%);fill-opacity:1;" d="M 199.554688 192.890625 L 199.554688 214.105469 C 199.554688 219.957031 195.699219 224.691406 190.898438 224.691406 C 186.128906 224.691406 182.238281 219.957031 182.238281 214.105469 L 182.238281 198.664062 C 164.703125 203.476562 144.59375 206.210938 123.195312 206.210938 C 69.960938 206.210938 24.625 189.269531 7.402344 165.515625 C 2.605469 172.136719 0 179.261719 0 186.691406 C 0 220.84375 55.152344 248.5625 123.195312 248.5625 C 191.242188 248.5625 246.394531 220.878906 246.394531 186.691406 C 246.394531 179.261719 243.757812 172.136719 238.992188 165.515625 C 231.117188 176.375 217.3125 185.804688 199.554688 192.890625 Z M 199.554688 192.890625 "/>
</g>
</svg>
