<svg height="250" viewBox="0 0 250 250" width="250" xmlns="http://www.w3.org/2000/svg"><g fill="#ff8802" fill-rule="evenodd"><path d="m243.222656 103.917969c-2.414062 3.8125-8.1875 11.703125-23.121094 21.253906-3.574218 2.308594-7.496093 4.308594-11.636718 6.160156-3.171875 1.578125-4.078125 5.464844-4.269532 8.351563v3.195312.15625 30.878906c22.683594-9.355468 38.714844-22.871093 43.953126-38.347656 1.191406-3.582031 1.851562-7.238281 1.851562-10.972656-.03125-7.199219-2.445312-14.207031-6.777344-20.675781zm0 0"/><path d="m178.097656 138.988281c-12.234375 2.925781-25.597656 4.851563-39.652344 5.582031v12.667969c0 7.199219-3.890624 13.015625-8.722656 13.015625-4.800781 0-8.71875-5.816406-8.71875-13.015625v-12.359375c-51.765625-.921875-95.339844-17.824218-111.652344-41.15625-4.015624 6.042969-6.214843 12.550782-6.214843 19.289063 0 3.65625.691406 7.238281 1.914062 10.742187 10.164063 28.875 60.484375 50.78125 121.097657 50.78125 21.363281 0 41.441406-2.730468 58.945312-7.507812v-27.71875c-.125-9.855469-5.929688-10.320313-6.996094-10.320313zm0 0"/><path d="m123.195312 0c-68.042968 0-123.195312 28.027344-123.195312 62.640625 0 3.734375.691406 7.394531 1.914062 10.9375 9.914063 28.644531 58.132813 50.589844 116.828126 51.628906v-1.078125c0-12.589844-.5625-29.683594-6.714844-37.421875-3.953125-5.007812-19.074219-12.015625-26.195313-16.867187-2.414062-1.382813-4.578125-2.886719-6.367187-4.464844-.722656-.617188-1.316406-1.191406-1.789063-1.769531-3.074219-3.3125-4.800781-6.96875-4.800781-10.820313 0-14.589844 24.472656-26.410156 54.621094-26.410156 30.148437 0 54.617187 11.820312 54.617187 26.410156 0 7.277344-6.085937 13.859375-15.9375 18.636719-3.984375 2.730469-20.734375 7.890625-25.285156 18.09375-3.859375 8.703125-4.078125 22.445313-4.078125 35.382813 54.492188-3.042969 98.257812-24.179688 107.667969-51.320313 1.222656-3.542969 1.914062-7.203125 1.914062-10.9375.03125-34.613281-55.152343-62.640625-123.199219-62.640625zm0 0"/><path d="m199.554688 192.890625v21.214844c0 5.851562-3.855469 10.585937-8.65625 10.585937-4.769532 0-8.660157-4.734375-8.660157-10.585937v-15.441407c-17.535156 4.8125-37.644531 7.546876-59.042969 7.546876-53.234374 0-98.570312-16.941407-115.792968-40.695313-4.796875 6.621094-7.402344 13.746094-7.402344 21.175781 0 34.152344 55.152344 61.871094 123.195312 61.871094 68.046876 0 123.199219-27.683594 123.199219-61.871094 0-7.429687-2.636719-14.554687-7.402343-21.175781-7.875 10.859375-21.679688 20.289063-39.4375 27.375zm0 0"/></g></svg>