<!-- Generator: Adobe Illustrator 26.0.1, SVG Export Plug-In . SVG Version: 6.00 Build 0)  -->
<svg xmlns="http://www.w3.org/2000/svg" xmlns:xlink="http://www.w3.org/1999/xlink" width="250px" height="250px" viewBox="0 0 250 250" version="1.1">
<g id="surface1">
<path style=" stroke:none;fill-rule:nonzero;fill:rgb(10.980392%,40.784314%,95.294118%);fill-opacity:1;" d="M 125.273438 250 C 194.503906 250 250.550781 193.957031 250.550781 124.726562 C 250 56.042969 193.957031 0 125.273438 0 C 56.59375 0 0 56.042969 0 125.273438 C 0 193.957031 56.042969 250 125.273438 250 Z M 125.273438 250 "/>
<path style=" stroke:none;fill-rule:evenodd;fill:rgb(100%,100%,100%);fill-opacity:1;" d="M 200.550781 94.503906 L 200.550781 136.265625 L 68.679688 136.265625 C 74.175781 161.539062 97.253906 180.21875 124.726562 180.21875 C 147.253906 180.21875 167.03125 167.582031 176.375 148.902344 L 201.097656 148.902344 L 201.097656 183.515625 C 201.097656 191.757812 194.503906 198.351562 185.714844 198.351562 L 63.734375 198.351562 C 55.496094 198.351562 48.351562 191.757812 48.351562 183.515625 L 48.351562 94.503906 Z M 161.539062 148.351562 C 153.296875 159.890625 140.109375 167.582031 124.726562 167.582031 C 109.339844 167.582031 95.605469 159.890625 87.910156 148.351562 Z M 92.308594 104.394531 C 80.21875 104.394531 70.328125 113.1875 68.679688 124.175781 L 81.867188 124.175781 C 83.515625 119.78125 87.363281 116.484375 92.308594 116.484375 C 97.253906 116.484375 101.097656 119.78125 102.746094 124.175781 L 115.382812 124.175781 C 113.734375 112.636719 103.847656 104.394531 92.308594 104.394531 Z M 157.144531 104.394531 C 145.054688 104.394531 135.164062 113.1875 133.515625 124.175781 L 146.703125 124.175781 C 148.351562 119.78125 152.199219 116.484375 157.144531 116.484375 C 162.089844 116.484375 165.933594 119.78125 167.582031 124.175781 L 180.769531 124.175781 C 178.570312 112.636719 168.679688 104.394531 157.144531 104.394531 Z M 185.164062 48.351562 C 193.40625 48.351562 200.550781 54.945312 200.550781 63.1875 L 200.550781 81.320312 L 48.351562 81.320312 L 48.351562 63.1875 C 48.351562 54.945312 54.945312 48.351562 63.734375 48.351562 Z M 185.164062 48.351562 "/>
</g>
</svg>
