<svg height="250" viewBox="0 0 250 250" width="250" xmlns="http://www.w3.org/2000/svg"><path d="m125.273438 250c69.230468 0 125.277343-56.042969 125.277343-125.273438-.550781-68.683593-56.59375-124.726562-125.277343-124.726562-68.679688 0-125.273438 56.042969-125.273438 125.273438 0 68.683593 56.042969 124.726562 125.273438 124.726562zm0 0" fill="#1c68f3"/><path d="m200.550781 94.503906v41.761719h-131.871093c5.496093 25.273437 28.574218 43.953125 56.046874 43.953125 22.527344 0 42.304688-12.636719 51.648438-31.316406h24.722656v34.613281c0 8.242187-6.59375 14.835937-15.382812 14.835937h-121.980469c-8.238281 0-15.382813-6.59375-15.382813-14.835937v-89.011719zm-39.011719 53.847656c-8.242187 11.539063-21.429687 19.230469-36.8125 19.230469-15.386718 0-29.121093-7.691406-36.816406-19.230469zm-69.230468-43.957031c-12.089844 0-21.980469 8.792969-23.628906 19.78125h13.1875c1.648437-4.394531 5.496093-7.691406 10.441406-7.691406 4.945312 0 8.789062 3.296875 10.4375 7.691406h12.636718c-1.648437-11.539062-11.535156-19.78125-23.074218-19.78125zm64.835937 0c-12.089843 0-21.980469 8.792969-23.628906 19.78125h13.1875c1.648437-4.394531 5.496094-7.691406 10.441406-7.691406 4.945313 0 8.789063 3.296875 10.4375 7.691406h13.1875c-2.199219-11.539062-12.089843-19.78125-23.625-19.78125zm28.019531-56.042969c8.242188 0 15.386719 6.59375 15.386719 14.835938v18.132812h-152.199219v-18.132812c0-8.242188 6.59375-14.835938 15.382813-14.835938zm0 0" fill="#fff" fill-rule="evenodd"/></svg>