<svg height="250" viewBox="0 0 250 250" width="250" xmlns="http://www.w3.org/2000/svg"><g fill-rule="evenodd"><path d="m103.796875 112.402344 21.273437 47.160156 31.664063-18.257812h.039063v-36.511719zm0 0" fill="#2bbdf7"/><path d="m197.585938 77.40625-19.714844-7.433594-21.117188-1.714844v113.40625l31.683594 18.257813 25.039062-51.085937-15.773437-49.546876zm0 0" fill="#2891f9"/><path d="m195.8125 68.277344-7.355469 18.234375v113.488281l31.683594-18.257812v-113.464844zm0 0" fill="#2bbdf7"/><path d="m188.460938 50.019531-31.6875 18.257813 31.6875 18.257812 31.679687-18.257812zm0 0" fill="#2b6def"/><path d="m125.089844 123.027344-31.703125-35.449219-63.386719-19.320313v113.484376l31.683594 18.257812 9.070312-62.796875 22.632813 4.101563v-.019532l31.703125 18.257813zm0 0" fill="#2891f9"/><path d="m61.703125 50-31.703125 18.257812 95.070312 54.789063 14.375-8.28125 17.328126-9.976563zm0 0" fill="#2b6def"/><path d="m61.703125 123.027344h-.019531v76.953125l31.703125-18.257813v-40.4375zm0 0" fill="#2bbdf7"/></g></svg>