<?xml version="1.0" encoding="UTF-8"?>
<svg width="28px" height="28px" viewBox="0 0 28 28" version="1.1" xmlns="http://www.w3.org/2000/svg" xmlns:xlink="http://www.w3.org/1999/xlink">
    <title>mBABA</title>
    <g id="Icons" stroke="none" stroke-width="1" fill="none" fill-rule="evenodd">
        <g id="iconfinder_alibaba_294696" transform="translate(1.000000, 7.000000)">
            <g id="形状_4_3_" transform="translate(2.577007, 0.878525)" fill="#000000" fill-rule="nonzero">
                <g id="形状_4">
                    <path d="M16.6864685,2.12351193 L16.6626312,1.83875271 C16.4494425,1.07918004 14.9800217,0.462045553 12.2544859,0.0348481562 C12.5625553,0.248446855 12.7995813,0.485824295 12.9180651,0.699422993 L13.060269,1.07918004 L7.70407809,2.3608308 L4.14909761,3.35772234 L4.64681128,4.52071367 L4.38606508,4.92424946 L3.48551844,5.66004338 L2.89298265,5.9448026 L2.32410846,5.58876573 L2.46648807,8.08096529 C1.28147505,8.34206291 0.523015184,8.84053796 0.215004338,9.57627332 L0.0726247289,10.0034707 C-0.0458590022,10.5493275 0.120065076,10.9528633 0.61783731,11.2377397 C0.215004338,10.7630434 0.143843818,10.3119501 0.404531453,9.86103254 C0.546618221,9.64749241 0.712600868,9.43383514 0.973288503,9.24389805 C1.447282,8.84047939 1.99243601,8.60316052 2.56113449,8.48444252 L2.79810195,8.48444252 L2.91658568,6.18206291 L4.50454881,6.60937744 L6.18727549,6.53809978 C6.70859219,6.39566161 7.18258568,6.20584165 7.60925597,5.94474403 C8.03592625,5.70736659 8.43875922,5.3988872 8.79426898,5.01907158 C8.98391323,5.16150976 9.10245553,5.61242733 9.14977874,6.34822126 L9.2445423,5.65992625 C9.2445423,5.01907158 8.93647289,4.56809544 8.3675987,4.28321909 L8.72310846,4.71053362 L8.486141,4.90035358 C8.01214751,5.30388937 7.49077223,5.61236876 6.94561822,5.8497462 L6.7324295,5.92090672 C6.06873319,6.15828416 5.38149241,6.22956182 4.69407592,6.18200434 L4.38600651,6.13462256 L4.31496312,6.11084382 C4.05427549,6.08712364 3.84096963,5.99218438 3.67504555,5.8497462 L5.07342299,4.90035358 C5.00226247,4.52059653 4.88372017,4.14078091 4.71791323,3.80852278 L4.67041432,3.73730369 L4.55193059,3.59486551 C4.69401735,3.59486551 5.42887419,3.38132538 6.82701735,2.9065705 C8.20167462,2.43193275 10.4058351,1.88590022 13.3919414,1.26888286 L13.0128286,0.366930586 C15.2170477,0.889360087 16.4494425,1.48271584 16.6864685,2.12351193 Z" id="Path"></path>
                </g>
            </g>
            <g id="形状_4_1_" fill="#F08200">
                <path d="M26.4208178,9.00698915 C22.1548178,10.5735163 19.1685944,11.4516312 17.4621475,11.594128 C15.6610542,11.7602863 15.5187918,11.0007137 17.0355944,9.36302603 L18.8605249,7.20314317 C19.2870781,6.70466811 19.6425879,6.2299718 19.9270542,5.70789371 C21.0172451,3.8327115 21.0172451,2.36124078 19.9270542,1.29318872 L19.8322907,1.17452928 C19.4530022,0.842212581 19.026449,0.581114967 18.5286182,0.414898048 C17.4621475,0.0114793926 16.040167,-0.0597396963 14.3337787,0.177579176 C11.679462,0.50983731 9.0250282,1.45922993 6.41803471,3.02575705 L6.1572885,3.16819523 C3.64505857,4.687282 1.86756833,6.3486898 0.824759219,8.15259436 C-0.289093275,10.0276594 -0.265490239,11.4992473 0.848479393,12.5672993 L1.79646638,13.2555944 L1.96239046,13.3267549 C3.14740347,13.7777896 4.40345987,13.9438894 5.73055965,13.7777896 C7.38956616,13.5878525 9.14345336,12.9233362 11.0394859,11.7603449 L11.4897592,11.4516898 L11.0394859,11.5941866 C8.6457397,12.3537592 6.631282,12.6860174 4.99599566,12.5672993 L3.57395662,12.2824816 L3.47907592,12.2350412 L3.19478525,12.1163818 C2.69701302,11.8315054 2.53108894,11.4279696 2.64957267,10.8821128 L2.79195228,10.4549154 C3.10002169,9.71912148 3.85842299,9.22070499 5.04343601,8.95960738 L4.9010564,6.46740781 L5.46993059,6.82344469 L6.06246638,6.53868547 L6.96301302,5.80289154 L7.22375922,5.39935575 L6.72604555,4.23636443 L10.281026,3.23947289 L15.6372169,1.95782213 L15.495013,1.57806508 C15.3765293,1.36452495 15.1395033,1.12714751 14.8314338,0.913490239 C17.5569696,1.34068764 19.0263905,1.95782213 19.2395792,2.71739479 L19.2634165,3.00215401 L19.2634165,3.31080911 L19.1685358,3.8328872 C18.9790087,4.37886117 18.5997787,5.04337744 18.007243,5.75545119 L15.4002495,8.67490672 C14.6655098,9.36320174 14.0730325,10.3125944 13.6464794,11.5230846 C13.1724859,12.7098547 13.6700824,13.326872 15.0921215,13.3506508 C16.4904989,13.3506508 18.3865315,12.9234534 20.7090586,12.0689414 C22.8183384,11.261987 24.7143709,10.2888156 26.4207592,9.17326464 L26.9421931,8.79362473 L26.4208178,9.00698915 Z" id="Path"></path>
            </g>
        </g>
    </g>
</svg>