<svg height="250" viewBox="0 0 250 250" width="250" xmlns="http://www.w3.org/2000/svg"><path d="m250 125c0 69.035156-55.964844 125-125 125s-125-55.964844-125-125 55.964844-125 125-125 125 55.964844 125 125zm0 0" fill="#fff" fill-rule="evenodd"/><path d="m173.308594 92.871094-.167969-2.035156c-1.523437-5.421876-12.019531-9.832032-31.488281-12.882813 2.203125 1.523437 3.894531 3.222656 4.742187 4.746094l1.015625 2.714843-38.257812 9.152344-25.394532 7.121094 3.554688 8.308594-1.863281 2.882812-6.429688 5.253906-4.234375 2.035157-4.0625-2.542969 1.015625 17.800781c-8.464843 1.863281-13.882812 5.425781-16.082031 10.679688l-1.015625 3.050781c-.847656 3.898438.339844 6.78125 3.894531 8.816406-2.878906-3.390625-3.386718-6.613281-1.523437-9.832031 1.015625-1.527344 2.199219-3.050781 4.0625-4.410156 3.386719-2.878907 7.277343-4.574219 11.339843-5.421875h1.695313l.84375-16.445313 11.34375 3.050781 12.019531-.507812c3.722656-1.019531 7.109375-2.375 10.15625-4.238281 3.046875-1.699219 5.925782-3.902344 8.464844-6.613281 1.355469 1.015624 2.203125 4.238281 2.539062 9.492187l.675782-4.914063c0-4.578124-2.199219-7.800781-6.261719-9.835937l2.539063 3.054687-1.691407 1.355469c-3.386719 2.882813-7.109375 5.085938-11.003906 6.78125l-1.523437.507813c-4.742188 1.695312-9.648438 2.203125-14.558594 1.863281l-2.203125-.335937-.507813-.171876c-1.859375-.167968-3.382812-.847656-4.570312-1.863281l9.988281-6.78125c-.507813-2.714843-1.355469-5.425781-2.539063-7.800781l-.339843-.507812-.84375-1.015626c1.011719 0 6.261719-1.527343 16.25-4.917968 9.816406-3.390625 25.5625-7.289063 46.890625-11.699219l-2.707032-6.441406c15.746094 3.730469 24.546876 7.96875 26.238282 12.546875zm0 0"/><path d="m224.433594 135.765625c-30.46875 11.1875-51.800782 17.460937-63.988282 18.476563-12.867187 1.1875-13.882812-4.238282-3.046874-15.933594l13.035156-15.429688c3.046875-3.558594 5.585937-6.949218 7.617187-10.679687 7.785157-13.394531 7.785157-23.90625 0-31.535157l-.675781-.847656c-2.710938-2.371094-5.757812-4.238281-9.3125-5.425781-7.617188-2.878906-17.777344-3.390625-29.964844-1.695313-18.957031 2.375-37.917968 9.15625-56.539062 20.347657l-1.863282 1.015625c-17.945312 10.851562-30.640624 22.71875-38.089843 35.601562-7.957031 13.394532-7.789063 23.90625.167969 31.535156l6.773437 4.917969 1.183594.507813c8.464843 3.21875 17.4375 4.40625 26.917969 3.21875 11.847656-1.355469 24.375-6.101563 37.917968-14.410156l3.21875-2.203126-3.21875 1.019532c-17.097656 5.421875-31.484375 7.796875-43.167968 6.949218l-10.15625-2.035156-.675782-.339844-2.03125-.847656c-3.554687-2.035156-4.742187-4.914062-3.894531-8.816406l1.015625-3.050781c2.199219-5.253907 7.617188-8.816407 16.082031-10.679688l-1.015625-17.800781 4.0625 2.542969 4.234375-2.035157 6.429688-5.253906 1.863281-2.882812-3.554688-8.308594 25.390626-7.121094 38.261718-9.152344-1.015625-2.714843c-.847656-1.523438-2.539062-3.21875-4.742187-4.746094 19.46875 3.050781 29.964844 7.460937 31.488281 12.886719l.167969 2.03125v2.207031l-.675782 3.726563c-1.355468 3.902343-4.0625 8.648437-8.296874 13.734374l-18.621094 20.851563c-5.246094 4.917969-9.480469 11.699219-12.527344 20.34375-3.382812 8.480469.171875 12.886719 10.328125 13.054687 9.988281 0 23.53125-3.050781 40.121094-9.152343 15.066406-5.765625 28.609375-12.714844 40.796875-20.683594l3.726562-2.714844zm0 0" fill="#f08200" fill-rule="evenodd"/></svg>