<?xml version="1.0" encoding="UTF-8"?>
<svg version="1.1" xmlns="http://www.w3.org/2000/svg" width="210" height="210">
<path d="M0 0 C1.21042969 0.51949219 2.42085938 1.03898437 3.66796875 1.57421875 C11.76732347 5.2068197 18.46397976 10.02908428 25 16 C25.65613281 16.598125 26.31226563 17.19625 26.98828125 17.8125 C28.73461898 19.48526696 30.37918121 21.2056629 32 23 C32.56074219 23.61746094 33.12148437 24.23492187 33.69921875 24.87109375 C50.80278005 45.20319247 52.46976147 69.60226834 51 95 C48.58624987 113.3693484 37.26870532 130.5909319 23 142 C21.87419128 143.01994138 20.74917664 144.04076002 19.625 145.0625 C13.07085796 150.59026633 5.9084304 154.2279874 -2.0625 157.25 C-3.03497681 157.61931641 -3.03497681 157.61931641 -4.02709961 157.99609375 C-24.30786447 165.36629014 -47.55395803 164.18850317 -67.08203125 155.16796875 C-78.47868849 149.57477534 -93.84619058 140.08012608 -99.28125 128.19921875 C-99.5184375 127.47347656 -99.755625 126.74773437 -100 126 C-100.66 126 -101.32 126 -102 126 C-102.33 124.68 -102.66 123.36 -103 122 C-103.66 122 -104.32 122 -105 122 C-106.3079845 119.04862705 -107.59318121 116.08781991 -108.875 113.125 C-109.42220703 111.89136719 -109.42220703 111.89136719 -109.98046875 110.6328125 C-118.11106318 91.71070183 -118.1581365 66.29849868 -111 47 C-102.9884453 27.26653934 -86.26970092 9.96212126 -67 1 C-61.75565642 -0.961759 -56.38774511 -2.48918387 -51 -4 C-36.53028072 -8.82323976 -13.51075508 -6.27114954 0 0 Z " fill="#FDFEFE" transform="translate(137,42)"/>
<path d="M0 0 C3.4372166 -0.11604679 6.87393086 -0.18719508 10.3125 -0.25 C11.28896484 -0.28351563 12.26542969 -0.31703125 13.27148438 -0.3515625 C14.20927734 -0.36445312 15.14707031 -0.37734375 16.11328125 -0.390625 C16.97735596 -0.41157227 17.84143066 -0.43251953 18.73168945 -0.45410156 C21 0 21 0 22.76318359 1.90795898 C26.65329536 8.48797631 25.69885679 18.00652568 24.5 25.3125 C21.76195394 35.87630892 15.15628631 45.96805989 9.62890625 55.2421875 C8.12986603 57.7801309 6.70809307 60.34161551 5.3125 62.9375 C2.19962294 68.6882647 -1.01932086 74.37736559 -4.25 80.0625 C-4.78197998 81.00407959 -5.31395996 81.94565918 -5.86206055 82.91577148 C-6.36648682 83.80079346 -6.87091309 84.68581543 -7.390625 85.59765625 C-7.84469727 86.39695557 -8.29876953 87.19625488 -8.76660156 88.01977539 C-10 90 -10 90 -12 92 C-14.93178173 92.17384434 -17.75828536 92.23177612 -20.6875 92.1875 C-21.47833984 92.18685547 -22.26917969 92.18621094 -23.08398438 92.18554688 C-27.81795837 92.15036457 -32.33109883 91.7812753 -37 91 C-35.63138432 87.29553582 -33.94296079 84.09308431 -31.83984375 80.75390625 C-31.2152124 79.75834717 -30.59058105 78.76278809 -29.94702148 77.73706055 C-28.95230835 76.16565308 -28.95230835 76.16565308 -27.9375 74.5625 C-27.26082275 73.48589111 -26.58414551 72.40928223 -25.88696289 71.30004883 C-22.27850947 65.56851922 -18.63148258 59.86416111 -14.9375 54.1875 C-11.80688884 49.35623729 -8.98517466 44.43358932 -6.27734375 39.35546875 C-4.67786536 36.40597191 -3.02535983 33.67636835 -1 31 C-0.34 31 0.32 31 1 31 C4.06310869 16.60476673 4.06310869 16.60476673 0 3 C0 2.01 0 1.02 0 0 Z " fill="#D0EFF8" transform="translate(128,104)"/>
<path d="M0 0 C5.94 0 11.88 0 18 0 C21.21463972 22.50247805 17.34392091 43.09759372 3.68676758 61.38330078 C-5.05936258 72.66916305 -17.1750737 82.61832937 -31 87 C-31.66 86.67 -32.32 86.34 -33 86 C-27.49153086 76.26423836 -21.97065878 66.54215221 -16.16699219 56.97851562 C-4.82002884 38.28009978 3.18725222 22.31076554 0 0 Z " fill="#6FBBE4" transform="translate(162,105)"/>
<path d="M0 0 C2.69112729 -0.0314063 5.38010125 -0.0874035 8.0703125 -0.1640625 C11.97673325 -0.27492268 15.88214521 -0.3118764 19.79003906 -0.34423828 C21.58710297 -0.40921005 21.58710297 -0.40921005 23.42047119 -0.47549438 C31.56589679 -0.45704933 31.56589679 -0.45704933 35.06349182 2.5148468 C36.86614962 4.79229179 38.35883841 7.03687418 39.77441406 9.56982422 C40.433125 10.70291016 41.09183594 11.83599609 41.77050781 13.00341797 C42.24617188 13.99470703 42.72183594 14.98599609 43.21191406 16.00732422 C43.705625 17.01666016 44.19933594 18.02599609 44.70800781 19.06591797 C45.77441406 21.56982422 45.77441406 21.56982422 45.77441406 23.56982422 C30.07514138 23.70536051 14.45255954 23.40150914 -1.22558594 22.56982422 C-0.89558594 21.24982422 -0.56558594 19.92982422 -0.22558594 18.56982422 C-1.54558594 18.23982422 -2.86558594 17.90982422 -4.22558594 17.56982422 C-3.22558594 15.56982422 -3.22558594 15.56982422 -2.22558594 14.56982422 C-3.21558594 14.56982422 -4.20558594 14.56982422 -5.22558594 14.56982422 C-5.22558594 12.91982422 -5.22558594 11.26982422 -5.22558594 9.56982422 C-5.55558594 10.22982422 -5.88558594 10.88982422 -6.22558594 11.56982422 C-7.15371094 11.34294922 -8.08183594 11.11607422 -9.03808594 10.88232422 C-12.19385442 10.20662439 -12.19385442 10.20662439 -14.10058594 12.00732422 C-14.47183594 12.52294922 -14.84308594 13.03857422 -15.22558594 13.56982422 C-15.91266149 11.07917534 -16.22558594 9.1909613 -16.22558594 6.56982422 C-16.88558594 6.56982422 -17.54558594 6.56982422 -18.22558594 6.56982422 C-17.73058594 8.54982422 -17.73058594 8.54982422 -17.22558594 10.56982422 C-17.88558594 10.89982422 -18.54558594 11.22982422 -19.22558594 11.56982422 C-19.22558594 10.57982422 -19.22558594 9.58982422 -19.22558594 8.56982422 C-20.54558594 7.90982422 -21.86558594 7.24982422 -23.22558594 6.56982422 C-23.88558594 7.55982422 -24.54558594 8.54982422 -25.22558594 9.56982422 C-26.21558594 9.56982422 -27.20558594 9.56982422 -28.22558594 9.56982422 C-28.22558594 10.55982422 -28.22558594 11.54982422 -28.22558594 12.56982422 C-31.85087161 12.77122898 -34.09060302 12.42759187 -37.22558594 10.56982422 C-37.55558594 12.54982422 -37.88558594 14.52982422 -38.22558594 16.56982422 C-38.88558594 15.24982422 -39.54558594 13.92982422 -40.22558594 12.56982422 C-40.55558594 14.21982422 -40.88558594 15.86982422 -41.22558594 17.56982422 C-41.88558594 17.23982422 -42.54558594 16.90982422 -43.22558594 16.56982422 C-43.22558594 14.58982422 -43.22558594 12.60982422 -43.22558594 10.56982422 C-44.54558594 11.55982422 -45.86558594 12.54982422 -47.22558594 13.56982422 C-46.89558594 14.55982422 -46.56558594 15.54982422 -46.22558594 16.56982422 C-46.88558594 17.22982422 -47.54558594 17.88982422 -48.22558594 18.56982422 C-50.35058594 18.19482422 -50.35058594 18.19482422 -52.22558594 17.56982422 C-52.49371094 18.16794922 -52.76183594 18.76607422 -53.03808594 19.38232422 C-54.21052061 21.54207229 -55.41927876 22.92772678 -57.22558594 24.56982422 C-58.78808594 22.94482422 -58.78808594 22.94482422 -60.22558594 20.56982422 C-60.04940904 17.04152466 -59.70070875 15.1312407 -57.39746094 12.40966797 C-40.18456801 -1.1107818 -20.87212956 0.22258829 0 0 Z " fill="#B4E7F3" transform="translate(130.2255859375,70.43017578125)"/>
<path d="M0 0 C3.38821573 2.79056663 5.00550009 6.60632607 6.9140625 10.45703125 C7.68352973 11.978548 8.45306328 13.50003122 9.22265625 15.02148438 C10.4159651 17.3981457 11.60677652 19.77602643 12.79541016 22.1550293 C26.57039334 49.94998282 26.57039334 49.94998282 51 68 C52.32307345 68.37197519 53.6541567 68.72144174 55 69 C54.43555175 73.34863652 52.84572036 76.17827655 50.4375 79.8125 C49.79683594 80.78832031 49.15617187 81.76414062 48.49609375 82.76953125 C48.00238281 83.50558594 47.50867188 84.24164063 47 85 C38.92234695 82.33665236 32.63409148 78.26998095 26 73 C25.01515625 72.22527344 24.0303125 71.45054687 23.015625 70.65234375 C19.76394385 67.91598201 17.11551759 64.839088 14.5 61.5 C14.02369141 60.89196533 13.54738281 60.28393066 13.05664062 59.6574707 C8.6690092 53.871394 5.61041447 47.77634988 3 41 C2.68546875 40.18789062 2.3709375 39.37578125 2.046875 38.5390625 C1.27229763 36.37480219 0.60847744 34.21630854 0 32 C-0.20496094 31.27039063 -0.40992187 30.54078125 -0.62109375 29.7890625 C-1.9036609 24.46419749 -2.20318992 19.21304886 -2.25 13.75 C-2.25926514 13.07638428 -2.26853027 12.40276855 -2.27807617 11.70874023 C-2.25115702 7.44020658 -1.55281086 3.96829443 0 0 Z " fill="#6DBAE3" transform="translate(31,106)"/>
<path d="M0 0 C2.16665389 1.65268282 3.99957794 3.51768141 5.91015625 5.45703125 C4.86018463 5.46583061 4.86018463 5.46583061 3.78900146 5.47480774 C-2.85916742 5.53309488 -9.50702694 5.60537186 -16.15488052 5.69274616 C-19.57132792 5.73717247 -22.98766364 5.77648633 -26.40429688 5.8034668 C-30.34660285 5.8348356 -34.2884289 5.8896097 -38.23046875 5.9453125 C-39.43721252 5.95170242 -40.6439563 5.95809235 -41.88726807 5.9646759 C-55.29372067 6.19338407 -69.95425275 9.01605709 -79.83984375 18.83203125 C-80.58234375 19.69828125 -81.32484375 20.56453125 -82.08984375 21.45703125 C-85.97369868 20.16241294 -86.39518854 18.73761886 -88.33984375 15.20703125 C-88.88125 14.253125 -89.42265625 13.29921875 -89.98046875 12.31640625 C-91.273551 8.98353227 -91.53085923 7.72966713 -90.08984375 4.45703125 C-87.98608414 2.70439842 -86.09919236 1.34989611 -83.77734375 -0.04296875 C-83.14868408 -0.43170166 -82.52002441 -0.82043457 -81.87231445 -1.22094727 C-56.3120727 -16.64206781 -25.13637929 -15.82998841 0 0 Z " fill="#6EBAE4" transform="translate(147.08984375,56.54296875)"/>
<path d="M0 0 C3.76345461 1.25448487 3.92391652 2.21287777 5.671875 5.671875 C6.41691284 7.12533325 6.41691284 7.12533325 7.17700195 8.6081543 C7.95563599 10.16336792 7.95563599 10.16336792 8.75 11.75 C9.82060467 13.85598246 10.8922142 15.96145439 11.96484375 18.06640625 C12.48288574 19.08750488 13.00092773 20.10860352 13.53466797 21.16064453 C15.88246306 25.70993759 18.4181912 30.14695407 20.98828125 34.57421875 C22.13919435 37.33374398 22.07461245 38.27036944 21 41 C20.67 41.99 20.34 42.98 20 44 C19.01 44.66 18.02 45.32 17 46 C17 46.99 17 47.98 17 49 C17 49.99 17 50.98 17 52 C17.185625 52.845625 17.37125 53.69125 17.5625 54.5625 C18 57 18 57 17 59 C18.485 58.505 18.485 58.505 20 58 C20.20496094 58.75925781 20.40992187 59.51851562 20.62109375 60.30078125 C20.89050781 61.29464844 21.15992188 62.28851563 21.4375 63.3125 C21.70433594 64.29863281 21.97117188 65.28476563 22.24609375 66.30078125 C22.78079425 68.21517526 23.37144538 70.11433615 24 72 C23.34 72.99 22.68 73.98 22 75 C22.66 75 23.32 75 24 75 C24.495 73.515 24.495 73.515 25 72 C25.99 72.33 26.98 72.66 28 73 C28.33 73.99 28.66 74.98 29 76 C29.99 76.495 29.99 76.495 31 77 C31 78.32 31 79.64 31 81 C30.34 81 29.68 81 29 81 C29 81.66 29 82.32 29 83 C32.0745356 82.2236068 32.0745356 82.2236068 34 80 C34.33 79.67 34.66 79.34 35 79 C35.68268138 77.67479497 36.3507041 76.34187818 37 75 C37.98120464 78.05263664 37.98120464 79.94736336 37 83 C38.32 83.33 39.64 83.66 41 84 C41.33 85.65 41.66 87.3 42 89 C42.66 89 43.32 89 44 89 C44.144375 88.401875 44.28875 87.80375 44.4375 87.1875 C44.8872439 85.43849596 45.42892341 83.71322977 46 82 C48 82 48 82 50.125 84 C50.74375 84.66 51.3625 85.32 52 86 C49.7739726 92.33561644 49.7739726 92.33561644 47 94 C37.93341812 94.15906284 31.01466877 89.10470356 24.5 83.1875 C12.29861455 70.2633844 4.96831723 51.86310061 -3.25585938 36.23535156 C-4.40402755 34.10551889 -5.59225344 31.99672395 -6.82226562 29.91308594 C-7.66047852 28.48270996 -7.66047852 28.48270996 -8.515625 27.0234375 C-9.01868164 26.19505371 -9.52173828 25.36666992 -10.04003906 24.51318359 C-11.28171268 21.26247448 -10.88209993 19.33084757 -10 16 C-8.22265625 12.67578125 -8.22265625 12.67578125 -6.0625 9.3125 C-5.70220703 8.74466797 -5.34191406 8.17683594 -4.97070312 7.59179688 C-3.345914 5.03941176 -1.67831423 2.51747134 0 0 Z M33 84 C33.99 85.485 33.99 85.485 35 87 C35 86.01 35 85.02 35 84 C34.34 84 33.68 84 33 84 Z " fill="#B2E6F3" transform="translate(46,72)"/>
<path d="M0 0 C0.804375 0.495 1.60875 0.99 2.4375 1.5 C4.64896185 3.08419653 4.64896185 3.08419653 6 3 C6 2.34 6 1.68 6 1 C6.66 1 7.32 1 8 1 C8.66 2.65 9.32 4.3 10 6 C10.33 5.67 10.66 5.34 11 5 C11.66 4.34 12.32 3.68 13 3 C13 3.66 13 4.32 13 5 C15.97065509 4.65772428 15.97065509 4.65772428 19 4 C19.33 3.34 19.66 2.68 20 2 C19.67 4.31 19.34 6.62 19 9 C19.99 9 20.98 9 22 9 C21.67 9.99 21.34 10.98 21 12 C22.32 12.33 23.64 12.66 25 13 C24.34 13.33 23.68 13.66 23 14 C23 14.99 23 15.98 23 17 C30.59 17 38.18 17 46 17 C46 17.33 46 17.66 46 18 C45.15341072 17.99333817 45.15341072 17.99333817 44.28971863 17.98654175 C38.36773229 17.94198561 32.44579427 17.91200083 26.52368164 17.89013672 C24.31923485 17.88013484 22.11480114 17.86652901 19.91040039 17.84912109 C16.72539016 17.82461547 13.5405567 17.81345845 10.35546875 17.8046875 C9.38417526 17.79436493 8.41288177 17.78404236 7.41215515 17.77340698 C-3.10658641 17.77171684 -12.15293545 18.44835436 -20 26 C-22.41827455 28.68336564 -22.41827455 28.68336564 -24 31 C-27.81793093 29.5416487 -29.06523523 27.73382088 -30.875 24.125 C-31.55175781 22.82949219 -31.55175781 22.82949219 -32.2421875 21.5078125 C-33 19 -33 19 -32.234375 16.8203125 C-30.8833014 14.82790649 -29.48736741 12.89301307 -28 11 C-27.34 11.33 -26.68 11.66 -26 12 C-25.67 11.34 -25.34 10.68 -25 10 C-24.67 10.66 -24.34 11.32 -24 12 C-23.34 11.01 -22.68 10.02 -22 9 C-22.66 8.67 -23.32 8.34 -24 8 C-22.625 6.5 -22.625 6.5 -21 5 C-20.34 5 -19.68 5 -19 5 C-18.67 6.98 -18.34 8.96 -18 11 C-17.67 9.35 -17.34 7.7 -17 6 C-16.01 6.99 -15.02 7.98 -14 9 C-13.67 7.35 -13.34 5.7 -13 4 C-12.67 4.66 -12.34 5.32 -12 6 C-11.01 5.67 -10.02 5.34 -9 5 C-9 5.66 -9 6.32 -9 7 C-8.01 6.67 -7.02 6.34 -6 6 C-5.34 6.33 -4.68 6.66 -4 7 C-4 6.01 -4 5.02 -4 4 C-3.01 3.67 -2.02 3.34 -1 3 C-0.67 2.01 -0.34 1.02 0 0 Z " fill="#CCEDF7" transform="translate(106,76)"/>
<path d="M0 0 C3.1250627 1.56253135 3.71237785 4.26272856 5.1875 7.375 C12.21999195 22.11711265 12.21999195 22.11711265 24 33 C26.9164048 33.9838474 29.75592341 34.71503339 32.77734375 35.296875 C33.51082031 35.52890625 34.24429688 35.7609375 35 36 C36 39 36 39 35.00390625 41.04296875 C34.29041016 42.10451172 34.29041016 42.10451172 33.5625 43.1875 C33.08941406 43.90292969 32.61632812 44.61835938 32.12890625 45.35546875 C31.75636719 45.89816406 31.38382813 46.44085938 31 47 C29.0625 46.6875 29.0625 46.6875 27 46 C26.67 45.01 26.34 44.02 26 43 C25.34 43 24.68 43 24 43 C23.855625 43.598125 23.71125 44.19625 23.5625 44.8125 C23.1127561 46.56150404 22.57107659 48.28677023 22 50 C21.34 50 20.68 50 20 50 C19.731875 49.195625 19.46375 48.39125 19.1875 47.5625 C18.795625 46.716875 18.40375 45.87125 18 45 C16.515 44.505 16.515 44.505 15 44 C14.67 44.66 14.34 45.32 14 46 C14 44.66666667 14 43.33333333 14 42 C13.1028125 42.495 13.1028125 42.495 12.1875 43 C10 44 10 44 7 44 C7 43.34 7 42.68 7 42 C7.66 42 8.32 42 9 42 C7.6910428 38.87802522 7.6910428 38.87802522 5 37 C5.33 36.01 5.66 35.02 6 34 C5.01 34 4.02 34 3 34 C2.67 34.66 2.34 35.32 2 36 C1.34 36 0.68 36 0 36 C0.185625 35.236875 0.37125 34.47375 0.5625 33.6875 C1.16590925 29.98084319 -0.26931083 27.24226259 -1.5625 23.8125 C-1.83191406 23.09707031 -2.10132812 22.38164062 -2.37890625 21.64453125 C-2.68634766 20.83048828 -2.68634766 20.83048828 -3 20 C-3.66 20 -4.32 20 -5 20 C-6.125 13.25 -6.125 13.25 -5 11 C-5.66 10.67 -6.32 10.34 -7 10 C-5.625 7.5 -5.625 7.5 -4 5 C-3.34 5 -2.68 5 -2 5 C-1.855625 4.360625 -1.71125 3.72125 -1.5625 3.0625 C-1 1 -1 1 0 0 Z M11 45 C11.66 45 12.32 45 13 45 C12.67 45.99 12.34 46.98 12 48 C11.67 47.01 11.34 46.02 11 45 Z " fill="#CBEDF7" transform="translate(68,111)"/>
<path d="M0 0 C0.495 0.99 0.495 0.99 1 2 C-0.1081543 4.44262695 -0.1081543 4.44262695 -1.82421875 7.48828125 C-2.44103516 8.58720703 -3.05785156 9.68613281 -3.69335938 10.81835938 C-4.02102295 11.39223389 -4.34868652 11.9661084 -4.6862793 12.55737305 C-5.67468468 14.2900349 -6.64896978 16.03072703 -7.62304688 17.77148438 C-15.40011614 31.53215191 -15.40011614 31.53215191 -18.99536133 32.58349609 C-19.6839624 32.56367676 -20.37256348 32.54385742 -21.08203125 32.5234375 C-21.84966797 32.51183594 -22.61730469 32.50023437 -23.40820312 32.48828125 C-24.20162109 32.45089844 -24.99503906 32.41351563 -25.8125 32.375 C-26.98522461 32.35373047 -26.98522461 32.35373047 -28.18164062 32.33203125 C-32.85791509 32.21483139 -37.38503832 31.7517027 -42 31 C-39.21682724 23.36528565 -34.66982229 11.79869115 -27.01269531 8.01904297 C-23.43868956 7.02201344 -19.88323714 6.74418462 -16.1953125 6.46875 C-10.05494466 5.99706194 -5.2400134 3.11977677 0 0 Z " fill="#74BDE5" transform="translate(133,164)"/>
<path d="M0 0 C4.57120953 -0.22372271 9.13919159 -0.38632695 13.71459961 -0.49438477 C15.26789884 -0.53944773 16.8208204 -0.60072454 18.37280273 -0.67895508 C31.19932588 -1.30895766 31.19932588 -1.30895766 35.49975586 1.81713867 C37.33939052 4.1273379 38.69319528 6.35641427 40 9 C40.65871094 10.13308594 41.31742188 11.26617187 41.99609375 12.43359375 C42.47175781 13.42488281 42.94742188 14.41617188 43.4375 15.4375 C43.93121094 16.44683594 44.42492187 17.45617187 44.93359375 18.49609375 C46 21 46 21 46 23 C42.12660021 23.29160411 38.2560148 23.46832697 34.375 23.625 C32.73337891 23.75068359 32.73337891 23.75068359 31.05859375 23.87890625 C27.76846585 23.9786071 25.16067041 23.93813853 22 23 C19.82547376 20.64896477 18.58079513 18.44507301 17.25585938 15.5378418 C14.12724426 9.21553346 7.39756505 5.38858586 1.46875 1.9453125 C0.74171875 1.47738281 0.74171875 1.47738281 0 1 C0 0.67 0 0.34 0 0 Z " fill="#70BBE4" transform="translate(130,71)"/>
<path d="M0 0 C0.66 0.99 1.32 1.98 2 3 C2.433125 2.505 2.86625 2.01 3.3125 1.5 C5 0 5 0 8 0 C7.41418208 3.83670085 6.29275372 6.62816303 4.34765625 9.9765625 C3.55391602 11.35328125 3.55391602 11.35328125 2.74414062 12.7578125 C2.18919922 13.70398438 1.63425781 14.65015625 1.0625 15.625 C0.51142578 16.57890625 -0.03964844 17.5328125 -0.60742188 18.515625 C-4.50297438 25.23699141 -6.96706011 29.41748321 -14.25 32.625 C-14.95640625 32.93767822 -15.6628125 33.25035645 -16.390625 33.57250977 C-23.24349263 36.41690873 -29.56675744 37.08130109 -37 37 C-29.27190795 23.17381051 -29.27190795 23.17381051 -26.25 19.0625 C-23.86277868 15.81322654 -21.94347031 12.5270387 -20 9 C-19.34 9 -18.68 9 -18 9 C-15.78578579 11.56018518 -13.87799375 14.18300938 -12 17 C-11.01 17 -10.02 17 -9 17 C-8.34 17.33 -7.68 17.66 -7 18 C-7.495 17.566875 -7.99 17.13375 -8.5 16.6875 C-10 15 -10 15 -10 12 C-8.35 12 -6.7 12 -5 12 C-5 10.02 -5 8.04 -5 6 C-4.34 6.66 -3.68 7.32 -3 8 C-2.67 7.01 -2.34 6.02 -2 5 C-1.34 4.67 -0.68 4.34 0 4 C-0.495 3.01 -0.495 3.01 -1 2 C-0.67 1.34 -0.34 0.68 0 0 Z " fill="#BFEAF5" transform="translate(141,136)"/>
<path d="M0 0 C4.59917418 1.53305806 5.58016244 5.10882738 7.75 9.25 C8.17410156 10.01441406 8.59820312 10.77882813 9.03515625 11.56640625 C12.03962506 17.23281485 12.03962506 17.23281485 11.859375 20.72265625 C11.57578125 21.47417969 11.2921875 22.22570312 11 23 C10.7628125 23.85980469 10.525625 24.71960938 10.28125 25.60546875 C10.0234375 26.45753906 9.765625 27.30960938 9.5 28.1875 C9.11328125 29.47720703 9.11328125 29.47720703 8.71875 30.79296875 C8 33 8 33 7 35 C6.7677354 37.71262116 6.58063765 40.40773126 6.4375 43.125 C6.39431641 43.87910156 6.35113281 44.63320312 6.30664062 45.41015625 C6.2005168 47.27321888 6.09974999 49.13658524 6 51 C1.72121848 47.21511119 -0.57218399 41.94749181 -3.26269531 36.99487305 C-4.24574065 35.19529722 -5.25128143 33.40956572 -6.2578125 31.62304688 C-6.87914062 30.48287109 -7.50046875 29.34269531 -8.140625 28.16796875 C-8.71329102 27.12922607 -9.28595703 26.0904834 -9.87597656 25.02026367 C-11.19966483 21.46349834 -11.01331329 19.62098969 -10 16 C-8.22265625 12.67578125 -8.22265625 12.67578125 -6.0625 9.3125 C-5.70220703 8.74466797 -5.34191406 8.17683594 -4.97070312 7.59179688 C-3.345914 5.03941176 -1.67831423 2.51747134 0 0 Z " fill="#6EBAE4" transform="translate(46,72)"/>
<path d="M0 0 C0.66 0.66 1.32 1.32 2 2 C1.73441078 6.51501679 -0.29013586 11.38950455 -3 15 C-5.30078125 16.078125 -5.30078125 16.078125 -8 17 C-8.86496094 17.41378906 -9.72992188 17.82757813 -10.62109375 18.25390625 C-18.43194012 21.88307897 -25.42495413 22.86046523 -34 23 C-32.35 20.36 -30.7 17.72 -29 15 C-28.67 15.99 -28.34 16.98 -28 18 C-27.34 18 -26.68 18 -26 18 C-25.67 16.68 -25.34 15.36 -25 14 C-24.34 14 -23.68 14 -23 14 C-22.67 13.34 -22.34 12.68 -22 12 C-21.34 12 -20.68 12 -20 12 C-19.67 11.34 -19.34 10.68 -19 10 C-17.0625 7.375 -17.0625 7.375 -15 5 C-14.34 5 -13.68 5 -13 5 C-13 6.32 -13 7.64 -13 9 C-12.01 8.67 -11.02 8.34 -10 8 C-10 7.34 -10 6.68 -10 6 C-7.03 6.66 -4.06 7.32 -1 8 C-1.495 4.535 -1.495 4.535 -2 1 C-1.34 0.67 -0.68 0.34 0 0 Z " fill="#A9E4F1" transform="translate(138,150)"/>
<path d="M0 0 C4.29 0 8.58 0 13 0 C17.38011416 7.84770453 16.8505501 16.60844511 15.125 25.25 C14.75375 26.4875 14.3825 27.725 14 29 C13.34 29.33 12.68 29.66 12 30 C12 29.34 12 28.68 12 28 C11.01 28 10.02 28 9 28 C8.34 29.32 7.68 30.64 7 32 C6.67 30.68 6.34 29.36 6 28 C6.99 27.67 7.98 27.34 9 27 C9 26.01 9 25.02 9 24 C10.5 22.3125 10.5 22.3125 12 21 C8.27385847 22.11854586 8.27385847 22.11854586 6 25 C5.34 24.67 4.68 24.34 4 24 C5.39332574 20.63279613 6.9789286 19.0140476 10 17 C9.69964844 16.46890625 9.39929688 15.9378125 9.08984375 15.390625 C8.70957031 14.68421875 8.32929688 13.9778125 7.9375 13.25 C7.55464844 12.55390625 7.17179688 11.8578125 6.77734375 11.140625 C5.8687594 8.63859372 6.11663163 7.4667645 7 5 C6.01 5.33 5.02 5.66 4 6 C3.67 5.01 3.34 4.02 3 3 C3.66 3 4.32 3 5 3 C5 2.34 5 1.68 5 1 C3.35 1 1.7 1 0 1 C0 0.67 0 0.34 0 0 Z " fill="#BCE9F4" transform="translate(137,105)"/>
<path d="M0 0 C2.30925485 2.44579177 2.99001814 3.59442134 3.07421875 7.015625 C2.88279297 8.61664063 2.88279297 8.61664063 2.6875 10.25 C2.56761719 11.32765625 2.44773437 12.4053125 2.32421875 13.515625 C2.21722656 14.33546875 2.11023437 15.1553125 2 16 C1.01 15.67 0.02 15.34 -1 15 C-0.87625 16.299375 -0.7525 17.59875 -0.625 18.9375 C-0.52058594 20.03384766 -0.52058594 20.03384766 -0.4140625 21.15234375 C-0.27742188 21.76207031 -0.14078125 22.37179688 0 23 C0.66 23.33 1.32 23.66 2 24 C1.67 24.99 1.34 25.98 1 27 C0.34 27 -0.32 27 -1 27 C-1 27.99 -1 28.98 -1 30 C-1.66 30 -2.32 30 -3 30 C-3.33 31.32 -3.66 32.64 -4 34 C-2.35 33.34 -0.7 32.68 1 32 C1 33.32 1 34.64 1 36 C1.66 36.66 2.32 37.32 3 38 C2.34 38 1.68 38 1 38 C1.33 40.31 1.66 42.62 2 45 C-2.54797006 41.29424661 -5.36001835 36.57593761 -7 31 C-7.41610582 22.7186783 -6.52645669 15.52798008 -3 8 C-2.32204472 6.00379834 -1.65266469 4.00461299 -1 2 C-0.67 1.34 -0.34 0.68 0 0 Z " fill="#A4E4F1" transform="translate(58,92)"/>
<path d="M0 0 C1.875 0.1875 1.875 0.1875 4 1 C4.71727778 2.64551962 5.38325228 4.31422289 6 6 C6.99 6.66 7.98 7.32 9 8 C9 8.99 9 9.98 9 11 C13.25731568 11.40749675 13.25731568 11.40749675 16.875 9.5 C17.24625 9.005 17.6175 8.51 18 8 C16.125 12.875 16.125 12.875 15 14 C12.11528347 14.10111378 9.25956869 14.13862788 6.375 14.125 C5.18197266 14.13080078 5.18197266 14.13080078 3.96484375 14.13671875 C-0.79464435 14.1289035 -5.30652624 13.79273149 -10 13 C-8.44298069 8.32894208 -5.91552627 4.91294315 -3 1 C-2.34 1.66 -1.68 2.32 -1 3 C-0.67 2.01 -0.34 1.02 0 0 Z " fill="#6DBAE3" transform="translate(101,182)"/>
<path d="M0 0 C6.95628244 -0.88803606 10.58127969 1.86759273 16 6 C17.010625 6.7425 18.02125 7.485 19.0625 8.25 C19.701875 8.8275 20.34125 9.405 21 10 C21 10.66 21 11.32 21 12 C21.99 12.33 22.98 12.66 24 13 C25.38671875 15.06640625 25.38671875 15.06640625 26.6875 17.5625 C27.12449219 18.38878906 27.56148437 19.21507813 28.01171875 20.06640625 C28.33785156 20.70449219 28.66398437 21.34257813 29 22 C26.36 22 23.72 22 21 22 C21.66 21.67 22.32 21.34 23 21 C22.67 19.68 22.34 18.36 22 17 C21.34 17.66 20.68 18.32 20 19 C19.2575 18.21625 18.515 17.4325 17.75 16.625 C15.45566682 14.43495469 13.87841142 13.17268614 11 12 C10.67 12.66 10.34 13.32 10 14 C10 12.02 10 10.04 10 8 C9.34 7.67 8.68 7.34 8 7 C8 6.34 8 5.68 8 5 C6.02 5.99 6.02 5.99 4 7 C4 5.68 4 4.36 4 3 C2.68 3 1.36 3 0 3 C0 2.01 0 1.02 0 0 Z " fill="#A3E2F0" transform="translate(123,71)"/>
<path d="M0 0 C1.45823212 -0.0270043 2.91660675 -0.04639787 4.375 -0.0625 C5.18710938 -0.07410156 5.99921875 -0.08570312 6.8359375 -0.09765625 C9 0 9 0 11 1 C12.37342831 1.0689472 13.75002102 1.08467708 15.125 1.0625 C17.043125 1.0315625 17.043125 1.0315625 19 1 C18.67 3.97 18.34 6.94 18 10 C19.2065625 9.7215625 19.2065625 9.7215625 20.4375 9.4375 C21.7059375 9.2209375 21.7059375 9.2209375 23 9 C23.33 9.33 23.66 9.66 24 10 C23.91015699 11.85772162 23.75388139 13.71247985 23.5625 15.5625 C23.46066406 16.57441406 23.35882813 17.58632812 23.25390625 18.62890625 C23.17011719 19.41136719 23.08632812 20.19382812 23 21 C22.34 21 21.68 21 21 21 C19.9921875 19.49609375 19.9921875 19.49609375 18.875 17.4375 C14.65083362 10.42612706 8.45635312 6.00349739 1.46875 1.9453125 C0.74171875 1.47738281 0.74171875 1.47738281 0 1 C0 0.67 0 0.34 0 0 Z " fill="#7DC2E7" transform="translate(130,71)"/>
<path d="M0 0 C2.475 0.99 2.475 0.99 5 2 C4.67 2.99 4.34 3.98 4 5 C5.32 5.33 6.64 5.66 8 6 C7.01 6.495 7.01 6.495 6 7 C6 7.99 6 8.98 6 10 C13.59 10 21.18 10 29 10 C29 10.33 29 10.66 29 11 C24.91065419 11.02500541 20.82133895 11.04300222 16.73193359 11.05493164 C15.34520694 11.05991293 13.95848541 11.06670039 12.57177734 11.07543945 C6.0962966 11.11518067 -0.38608413 11.14509682 -6.8515625 10.74609375 C-7.61549316 10.70025146 -8.37942383 10.65440918 -9.16650391 10.60717773 C-11 10 -11 10 -12.25927734 8.14086914 C-13 6 -13 6 -13 3 C-9.06687842 3 -6.6128101 3.55487596 -3 5 C-2.67 5.66 -2.34 6.32 -2 7 C-1.34 7 -0.68 7 0 7 C-0.185625 6.401875 -0.37125 5.80375 -0.5625 5.1875 C-1 3 -1 3 0 0 Z " fill="#D3F0F8" transform="translate(123,83)"/>
<path d="M0 0 C2 0 2 0 4.125 2 C4.74375 2.66 5.3625 3.32 6 4 C3.7739726 10.33561644 3.7739726 10.33561644 1 12 C-4.46785122 11.82072619 -8.20431509 10.75751882 -13 8 C-12.34 7.67 -11.68 7.34 -11 7 C-11 5.35 -11 3.7 -11 2 C-9.35 1.67 -7.7 1.34 -6 1 C-4 4 -4 4 -4 7 C-3.34 7 -2.68 7 -2 7 C-1.855625 6.401875 -1.71125 5.80375 -1.5625 5.1875 C-1.1127561 3.43849596 -0.57107659 1.71322977 0 0 Z " fill="#BCEAF4" transform="translate(92,154)"/>
<path d="M0 0 C1.05557942 3.16673827 0.95516343 4.74234782 0.5625 8 C0.24356175 10.71299373 0 13.26403716 0 16 C-0.99 16.33 -1.98 16.66 -3 17 C-4.21869929 19.50447516 -4.21869929 19.50447516 -5 22 C-8.12886338 20.92108159 -9.02646902 19.95941417 -10.875 17.125 C-12 14 -12 14 -11.375 11.875 C-10.92125 11.25625 -10.4675 10.6375 -10 10 C-9.46375 9.2575 -8.9275 8.515 -8.375 7.75 C-7.92125 7.1725 -7.4675 6.595 -7 6 C-6.34 6.33 -5.68 6.66 -5 7 C-4.67 6.34 -4.34 5.68 -4 5 C-3.67 5.66 -3.34 6.32 -3 7 C-2.34 6.01 -1.68 5.02 -1 4 C-1.66 3.67 -2.32 3.34 -3 3 C-2.01 2.01 -1.02 1.02 0 0 Z " fill="#C2EAF6" transform="translate(85,81)"/>
<path d="M0 0 C0.66 0 1.32 0 2 0 C2 1.32 2 2.64 2 4 C2.99 3.67 3.98 3.34 5 3 C5 2.34 5 1.68 5 1 C6.32 1.33 7.64 1.66 9 2 C9.33 3.65 9.66 5.3 10 7 C8.35 7.99 6.7 8.98 5 10 C4.34 9.01 3.68 8.02 3 7 C2.62875 7.433125 2.2575 7.86625 1.875 8.3125 C0 10 0 10 -3.0625 11.5 C-6.23025749 12.81589255 -6.23025749 12.81589255 -8 16 C-8.66 15.67 -9.32 15.34 -10 15 C-10 13.02 -10 11.04 -10 9 C-9.34 9 -8.68 9 -8 9 C-7.67 8.34 -7.34 7.68 -7 7 C-6.34 7 -5.68 7 -5 7 C-4.67 6.34 -4.34 5.68 -4 5 C-2.0625 2.375 -2.0625 2.375 0 0 Z " fill="#B5E8F3" transform="translate(123,155)"/>
<path d="M0 0 C0.33 0.66 0.66 1.32 1 2 C-0.21484375 4.6015625 -0.21484375 4.6015625 -1.9375 7.625 C-2.50339844 8.62789062 -3.06929687 9.63078125 -3.65234375 10.6640625 C-4.09707031 11.43492187 -4.54179687 12.20578125 -5 13 C-5.5775 12.835 -6.155 12.67 -6.75 12.5 C-9.26664369 11.85537969 -9.26664369 11.85537969 -13 12 C-14.75 10.5 -14.75 10.5 -16 9 C-14.41151269 5.82302539 -11.14880832 5.21127974 -8 3.9375 C-3.68883536 2.44790877 -3.68883536 2.44790877 0 0 Z " fill="#7ABFE7" transform="translate(133,164)"/>
<path d="M0 0 C0.66 1.32 1.32 2.64 2 4 C2.66 4 3.32 4 4 4 C3.41196203 7.02419525 2.77321882 10.01758453 2 13 C0.68 12.34 -0.64 11.68 -2 11 C-2.99 11.99 -3.98 12.98 -5 14 C-5.33 13.34 -5.66 12.68 -6 12 C-4.78515625 9.1796875 -4.78515625 9.1796875 -3.0625 5.875 C-2.49660156 4.77929688 -1.93070313 3.68359375 -1.34765625 2.5546875 C-0.90292969 1.71164063 -0.45820313 0.86859375 0 0 Z " fill="#7EC3E6" transform="translate(158,140)"/>
<path d="M0 0 C0.99 0 1.98 0 3 0 C3 4.95 3 9.9 3 15 C0.42355713 12.42355713 -0.68769359 10.96726521 -2.1875 7.8125 C-2.53167969 7.09707031 -2.87585937 6.38164063 -3.23046875 5.64453125 C-3.48441406 5.10183594 -3.73835938 4.55914062 -4 4 C-3.01 4 -2.02 4 -1 4 C-0.67 2.68 -0.34 1.36 0 0 Z " fill="#7EC3E7" transform="translate(49,108)"/>
<path d="M0 0 C0.33 0.66 0.66 1.32 1 2 C0.67 2.66 0.34 3.32 0 4 C0.99 4.33 1.98 4.66 3 5 C1.35 6.98 -0.3 8.96 -2 11 C-2.99 10.67 -3.98 10.34 -5 10 C-5.33 7.69 -5.66 5.38 -6 3 C-5.38125 2.87625 -4.7625 2.7525 -4.125 2.625 C-1.80879168 2.12802644 -1.80879168 2.12802644 0 0 Z " fill="#74BEE5" transform="translate(68,66)"/>
<path d="M0 0 C4.8270487 1.28721299 5.83922605 1.78563473 9 6 C2.73 6 -3.54 6 -10 6 C-10 5.67 -10 5.34 -10 5 C-6.7 4.67 -3.4 4.34 0 4 C0 2.68 0 1.36 0 0 Z " fill="#5FB3E1" transform="translate(142,55)"/>
<path d="M0 0 C1.5625 1.0625 1.5625 1.0625 3 3 C2.6875 6.6875 2.6875 6.6875 2 10 C1.34 10 0.68 10 0 10 C0.09539063 10.62648438 0.19078125 11.25296875 0.2890625 11.8984375 C0.39992188 12.71570313 0.51078125 13.53296875 0.625 14.375 C0.74101562 15.18710938 0.85703125 15.99921875 0.9765625 16.8359375 C0.98429687 17.55007812 0.99203125 18.26421875 1 19 C0.34 19.66 -0.32 20.32 -1 21 C-1.0270203 18.24993392 -1.04684883 15.50013454 -1.0625 12.75 C-1.07087891 11.97269531 -1.07925781 11.19539063 -1.08789062 10.39453125 C-1.09111328 9.64042969 -1.09433594 8.88632813 -1.09765625 8.109375 C-1.10289307 7.41811523 -1.10812988 6.72685547 -1.11352539 6.01464844 C-0.99437971 3.90026102 -0.57618237 2.03358485 0 0 Z " fill="#5FB2E1" transform="translate(31,106)"/>
<path d="M0 0 C1.32 0 2.64 0 4 0 C4.6875 3.3125 4.6875 3.3125 5 7 C3.5625 8.9375 3.5625 8.9375 2 10 C0.68 8.35 -0.64 6.7 -2 5 C-1.34 3.35 -0.68 1.7 0 0 Z " fill="#7FC3E7" transform="translate(105,173)"/>
<path d="M0 0 C1.875 0.5625 1.875 0.5625 4 2 C5.53624995 6.07106237 6.2632782 9.65590962 6 14 C5.34 14 4.68 14 4 14 C3.71125 12.88625 3.4225 11.7725 3.125 10.625 C2.30758671 6.99708908 2.30758671 6.99708908 0 5 C-0.125 2.375 -0.125 2.375 0 0 Z " fill="#79C1E5" transform="translate(49,143)"/>
<path d="M0 0 C0.66 0.33 1.32 0.66 2 1 C2.73075648 3.3140622 3.40138258 5.64828869 4 8 C2.02 8.99 2.02 8.99 0 10 C-2.21538462 4.58461538 -2.21538462 4.58461538 -1.125 1.625 C-0.75375 1.08875 -0.3825 0.5525 0 0 Z " fill="#C9E7F7" transform="translate(131,128)"/>
<path d="M0 0 C0.33 0.66 0.66 1.32 1 2 C0.34 2.66 -0.32 3.32 -1 4 C-2.2065625 5.2684375 -2.2065625 5.2684375 -3.4375 6.5625 C-6 9 -6 9 -9 10 C-9.33 8.35 -9.66 6.7 -10 5 C-6.7 3.35 -3.4 1.7 0 0 Z " fill="#88C7E9" transform="translate(133,164)"/>
<path d="M0 0 C2.4377963 -0.05397335 4.87439685 -0.09365616 7.3125 -0.125 C8.00279297 -0.14175781 8.69308594 -0.15851562 9.40429688 -0.17578125 C13.17135396 -0.21217794 14.78431704 -0.14378864 18 2 C17.1028125 2.1546875 17.1028125 2.1546875 16.1875 2.3125 C13.71756736 3.08876455 12.67748765 4.07088921 11 6 C10.64808594 5.03320312 10.64808594 5.03320312 10.2890625 4.046875 C9.18838927 1.7922092 9.18838927 1.7922092 6.8359375 1.390625 C5.61777344 1.32101563 5.61777344 1.32101563 4.375 1.25 C3.14910156 1.16492187 3.14910156 1.16492187 1.8984375 1.078125 C1.27195312 1.05234375 0.64546875 1.0265625 0 1 C0 0.67 0 0.34 0 0 Z " fill="#5FB2E1" transform="translate(101,45)"/>
<path d="M0 0 C0.99 0.66 1.98 1.32 3 2 C3 2.66 3 3.32 3 4 C2.34 4 1.68 4 1 4 C1 4.66 1 5.32 1 6 C1.66 6 2.32 6 3 6 C3 6.99 3 7.98 3 9 C1.68 9.33 0.36 9.66 -1 10 C-2.1875 7.8125 -2.1875 7.8125 -3 5 C-1.625 2.1875 -1.625 2.1875 0 0 Z " fill="#D0F0F8" transform="translate(119,148)"/>
<path d="M0 0 C-1.09601169 1.00893131 -2.20213918 2.00688225 -3.3125 3 C-3.92738281 3.556875 -4.54226562 4.11375 -5.17578125 4.6875 C-7 6 -7 6 -10 6 C-10.66 4.35 -11.32 2.7 -12 1 C-10 1 -10 1 -8.375 2.5 C-7.92125 2.995 -7.4675 3.49 -7 4 C-6.67 2.68 -6.34 1.36 -6 0 C-2.25 -1.125 -2.25 -1.125 0 0 Z " fill="#63B4E2" transform="translate(154,178)"/>
<path d="M0 0 C1.45606519 4.52092968 0.27032841 7.51648796 -1 12 C-1.99 11.67 -2.98 11.34 -4 11 C-3.38461538 3.49230769 -3.38461538 3.49230769 -1.4375 1 C-0.963125 0.67 -0.48875 0.34 0 0 Z " fill="#7FC3E7" transform="translate(166,119)"/>
<path d="M0 0 C0.66 1.32 1.32 2.64 2 4 C0.88266271 5.50571657 -0.24410035 7.00444292 -1.375 8.5 C-2.00148437 9.3353125 -2.62796875 10.170625 -3.2734375 11.03125 C-3.84320313 11.6809375 -4.41296875 12.330625 -5 13 C-5.66 13 -6.32 13 -7 13 C-6.67 11.02 -6.34 9.04 -6 7 C-5.67 7.66 -5.34 8.32 -5 9 C-4.34 9 -3.68 9 -3 9 C-2.01 6.03 -1.02 3.06 0 0 Z " fill="#62B3E2" transform="translate(165,160)"/>
<path d="M0 0 C0.66 0.33 1.32 0.66 2 1 C1.47731534 3.76276177 0.89130413 6.3260876 0 9 C-1.65 8.67 -3.3 8.34 -5 8 C-4.67 7.01 -4.34 6.02 -4 5 C-3.34 5 -2.68 5 -2 5 C-2 4.34 -2 3.68 -2 3 C-1.34 3 -0.68 3 0 3 C0 2.01 0 1.02 0 0 Z " fill="#82C5E7" transform="translate(54,96)"/>
<path d="M0 0 C1.09658936 3.28976808 0.79953138 4.71303767 0 8 C-1.98 8.66 -3.96 9.32 -6 10 C-5.18957164 8.51969728 -4.37659652 7.04078858 -3.5625 5.5625 C-2.88380859 4.32693359 -2.88380859 4.32693359 -2.19140625 3.06640625 C-1 1 -1 1 0 0 Z " fill="#64B5E2" transform="translate(135,182)"/>
<path d="M0 0 C0.66 0.33 1.32 0.66 2 1 C1.67 2.32 1.34 3.64 1 5 C1.66 5.33 2.32 5.66 3 6 C-1 6 -1 6 -2.75 4.5 C-3.1625 4.005 -3.575 3.51 -4 3 C-3 1 -3 1 0 0 Z " fill="#84C6E8" transform="translate(121,170)"/>
<path d="M0 0 C0.99 0 1.98 0 3 0 C3.99 2.31 4.98 4.62 6 7 C4.68 7 3.36 7 2 7 C0.5393715 4.35261084 0 3.10551666 0 0 Z " fill="#7CC2E6" transform="translate(52,84)"/>
<path d="M0 0 C0.33 0.99 0.66 1.98 1 3 C0.34 3 -0.32 3 -1 3 C-1 3.66 -1 4.32 -1 5 C0.65 5 2.3 5 4 5 C4.33 5.66 4.66 6.32 5 7 C-0.625 7.25 -0.625 7.25 -4 5 C-2.25 1.125 -2.25 1.125 0 0 Z " fill="#ADE4F2" transform="translate(86,158)"/>
<path d="M0 0 C2.4375 0.6875 2.4375 0.6875 5 2 C5.8125 4.625 5.8125 4.625 6 7 C5.38125 6.67 4.7625 6.34 4.125 6 C2.08981656 4.85806765 2.08981656 4.85806765 0 5 C-0.33 4.01 -0.66 3.02 -1 2 C-0.67 1.34 -0.34 0.68 0 0 Z " fill="#7BC1E5" transform="translate(75,171)"/>
<path d="M0 0 C0.556875 0.226875 1.11375 0.45375 1.6875 0.6875 C0.90375 1.120625 0.12 1.55375 -0.6875 2 C-3.52948375 3.57970247 -3.52948375 3.57970247 -5.3125 6.6875 C-5.9725 5.3675 -6.6325 4.0475 -7.3125 2.6875 C-2.88173077 -0.38942308 -2.88173077 -0.38942308 0 0 Z " fill="#61B2E2" transform="translate(71.3125,53.3125)"/>
<path d="M0 0 C1.98 0.495 1.98 0.495 4 1 C2.515 4.465 2.515 4.465 1 8 C0.34 8 -0.32 8 -1 8 C-0.67 5.36 -0.34 2.72 0 0 Z " fill="#D1F2F8" transform="translate(78,92)"/>
<path d="M0 0 C1.485 0.99 1.485 0.99 3 2 C2.625 4.9375 2.625 4.9375 2 8 C1.01 8.495 1.01 8.495 0 9 C0.020625 8.21625 0.04125 7.4325 0.0625 6.625 C0.18684063 4.01885039 0.18684063 4.01885039 -1 2 C-0.67 1.34 -0.34 0.68 0 0 Z " fill="#63B4E2" transform="translate(173,142)"/>
<path d="M0 0 C0.99 0 1.98 0 3 0 C2.50168276 3.68754757 1.89932357 5.60490662 -1 8 C-0.67 5.36 -0.34 2.72 0 0 Z " fill="#B7E9F4" transform="translate(146,136)"/>
<path d="M0 0 C0.99 0.33 1.98 0.66 3 1 C3.33 2.65 3.66 4.3 4 6 C3.67 5.34 3.34 4.68 3 4 C2.34 4 1.68 4 1 4 C0.67 4.66 0.34 5.32 0 6 C-1.125 2.25 -1.125 2.25 0 0 Z " fill="#61B2E2" transform="translate(46,72)"/>
<path d="M0 0 C4.75 0.875 4.75 0.875 7 2 C6.67 3.32 6.34 4.64 6 6 C3.97945196 4.35830472 1.97956942 2.69088222 0 1 C0 0.67 0 0.34 0 0 Z " fill="#88C9E8" transform="translate(134,73)"/>
<path d="M0 0 C1.32 0.33 2.64 0.66 4 1 C3.34 2.98 2.68 4.96 2 7 C0 5 0 5 -0.125 2.375 C-0.08375 1.59125 -0.0425 0.8075 0 0 Z " fill="#85C6E8" transform="translate(162,105)"/>
<path d="M0 0 C1.32 0.33 2.64 0.66 4 1 C4.33 2.65 4.66 4.3 5 6 C3.0625 5.25 3.0625 5.25 1 4 C0.25 1.875 0.25 1.875 0 0 Z " fill="#DAF4F9" transform="translate(110,86)"/>
<path d="" fill="#FFFFFF" transform="translate(0,0)"/>
</svg>
