<!-- Generator: Adobe Illustrator 23.0.0, SVG Export Plug-In . SVG Version: 6.00 Build 0)  -->
<svg xmlns="http://www.w3.org/2000/svg" xmlns:xlink="http://www.w3.org/1999/xlink" width="250px" height="250px" viewBox="0 0 250 250" version="1.1">
<g id="surface1">
<path style=" stroke:none;fill-rule:nonzero;fill:rgb(3.137255%,4.705882%,3.921569%);fill-opacity:1;" d="M 124.632812 239.304688 C 154.976562 229.660156 186.949219 203.558594 210.03125 166.316406 C 233 129.183594 240.878906 81.355469 235.363281 44.445312 C 211.4375 24.164062 171.414062 10.640625 126.378906 10.640625 C 80.445312 10.640625 40.023438 24.496094 16.269531 45.5 C 16.269531 45.5 6.867188 116.714844 42.050781 167.089844 C 66.371094 201.949219 95.078125 228.996094 124.632812 239.304688 Z M 124.632812 239.304688 "/>
<path style=" stroke:none;fill-rule:nonzero;fill:rgb(100%,100%,100%);fill-opacity:1;" d="M 22.628906 49.710938 C 22.628906 49.710938 47.117188 31.921875 69.523438 25.605469 C 91.925781 19.285156 122.269531 17.570312 122.269531 17.570312 L 122.269531 232.488281 C 118.78125 231.210938 115.34375 229.828125 112.023438 228.21875 C 107.859375 226.113281 102.171875 221.902344 102.171875 221.902344 L 102.285156 37.574219 C 102.285156 37.574219 98.402344 38.074219 94.347656 38.792969 C 91.589844 39.292969 88.886719 40.070312 86.242188 41.011719 L 86.128906 209.542969 L 74.644531 198.734375 C 71.15625 195.464844 67.832031 192.03125 64.738281 188.429688 L 64.738281 48.546875 C 64.738281 48.546875 57.589844 51.984375 53.816406 53.980469 C 50.046875 56.03125 42.78125 61.960938 42.78125 61.960938 C 42.78125 61.960938 42.050781 85.789062 43.796875 95.820312 C 45.542969 105.851562 49.761719 115.382812 49.761719 115.382812 L 49.761719 167.589844 C 49.761719 167.589844 31.582031 142.097656 26.0625 111.949219 C 20.546875 81.800781 22.628906 49.710938 22.628906 49.710938 Z M 22.628906 49.710938 "/>
<path style=" stroke:none;fill-rule:nonzero;fill:rgb(41.568628%,37.254903%,66.274512%);fill-opacity:1;" d="M 230.070312 49.710938 C 230.070312 49.710938 205.585938 31.921875 183.179688 25.605469 C 160.773438 19.285156 130.433594 17.570312 130.433594 17.570312 L 130.433594 232.488281 C 133.808594 231.210938 137.074219 229.769531 140.226562 228.109375 C 143.773438 226.222656 147.265625 224.175781 150.527344 221.847656 L 150.472656 37.519531 C 150.472656 37.519531 154.355469 38.019531 158.355469 38.738281 C 161.113281 39.238281 163.816406 40.011719 166.460938 40.957031 L 166.574219 209.488281 C 166.574219 209.488281 175.015625 202.171875 178.789062 198.347656 C 182.558594 194.523438 188.019531 188.429688 188.019531 188.429688 L 188.019531 48.546875 C 188.019531 48.546875 195.171875 51.984375 198.941406 53.980469 C 202.714844 55.972656 209.976562 61.960938 209.976562 61.960938 C 209.976562 61.960938 210.707031 85.789062 208.960938 95.820312 C 207.21875 105.851562 203.050781 115.382812 203.050781 115.382812 L 203.050781 167.589844 C 203.050781 167.589844 221.347656 139.992188 226.863281 109.84375 C 232.378906 79.695312 230.070312 49.710938 230.070312 49.710938 Z M 230.070312 49.710938 "/>
</g>
</svg>
