<svg height="250" viewBox="0 0 250 250" width="250" xmlns="http://www.w3.org/2000/svg"><path d="m124.632812 239.304688c30.34375-9.644532 62.316407-35.746094 85.398438-72.988282 22.96875-37.132812 30.847656-84.960937 25.332031-121.871094-23.925781-20.28125-63.949219-33.804687-108.984375-33.804687-45.933594 0-86.355468 13.855469-110.109375 34.859375 0 0-9.402343 71.214844 25.78125 121.589844 24.320313 34.859375 53.027344 61.90625 82.582031 72.214844zm0 0" fill="#080c0a"/><path d="m22.628906 49.710938s24.488282-17.789063 46.894532-24.105469c22.402343-6.320313 52.746093-8.035157 52.746093-8.035157v214.917969c-3.488281-1.277343-6.925781-2.660156-10.246093-4.269531-4.164063-2.105469-9.851563-6.316406-9.851563-6.316406l.113281-184.328125s-3.882812.5-7.9375 1.21875c-2.757812.5-5.460937 1.277343-8.105468 2.21875l-.113282 168.53125-11.484375-10.808594c-3.488281-3.269531-6.8125-6.703125-9.90625-10.304687v-139.882813s-7.148437 3.4375-10.921875 5.433594c-3.769531 2.050781-11.035156 7.980469-11.035156 7.980469s-.730469 23.828124 1.015625 33.859374 5.964844 19.5625 5.964844 19.5625v52.207032s-18.179688-25.492188-23.699219-55.640625c-5.515625-30.148438-3.433594-62.238281-3.433594-62.238281zm0 0" fill="#fff"/><path d="m230.070312 49.710938s-24.484374-17.789063-46.890624-24.105469c-22.40625-6.320313-52.746094-8.035157-52.746094-8.035157v214.917969c3.375-1.277343 6.640625-2.71875 9.792968-4.378906 3.546876-1.886719 7.039063-3.933594 10.300782-6.261719l-.054688-184.328125s3.882813.5 7.882813 1.21875c2.757812.5 5.460937 1.273438 8.105469 2.21875l.113281 168.53125s8.441406-7.316406 12.214843-11.140625c3.769532-3.824218 9.230469-9.917968 9.230469-9.917968v-139.882813s7.152344 3.4375 10.921875 5.433594c3.773438 1.992187 11.035156 7.980469 11.035156 7.980469s.730469 23.828124-1.015624 33.859374c-1.742188 10.03125-5.910157 19.5625-5.910157 19.5625v52.207032s18.296875-27.597656 23.8125-57.746094 3.207031-60.132812 3.207031-60.132812zm0 0" fill="#6a5fa9"/></svg>