<svg height="250" viewBox="0 0 250 250" width="250" xmlns="http://www.w3.org/2000/svg" xmlns:xlink="http://www.w3.org/1999/xlink"><symbol id="a" overflow="visible"><path d="m1.15625-1.859375c-.230469 0-.40625.074219-.53125.21875-.125.148437-.1875.34375-.1875.59375 0 .261719.0625.46875.1875.625.132812.148437.316406.21875.546875.21875.289063 0 .507813-.140625.65625-.421875l.21875.109375c-.085937.179687-.203125.3125-.359375.40625-.148438.09375-.324219.140625-.53125.140625-.210938 0-.390625-.0390625-.546875-.125-.148437-.09375-.261719-.21875-.34375-.375-.074219-.164062-.109375-.359375-.109375-.578125 0-.320313.085938-.578125.265625-.765625.175781-.1875.421875-.28125.734375-.28125.21875 0 .398438.042969.546875.125.144531.085938.253906.214844.328125.390625l-.265625.078125c-.042969-.113281-.121094-.203125-.234375-.265625-.105469-.0625-.230469-.09375-.375-.09375zm0 0"/></symbol><symbol id="b" overflow="visible"><path d="m.203125-1.921875v-.25h.265625v.25zm0 1.921875v-1.578125h.265625v1.578125zm0 0"/></symbol><symbol id="c" overflow="visible"><path d="m.203125 0v-1.21875c0-.113281 0-.234375 0-.359375h.25v.3125h.015625c.039062-.132813.085938-.222656.140625-.265625.050781-.050781.128906-.078125.234375-.078125.03125 0 .066406.007813.109375.015625v.234375c-.042969-.007813-.089844-.015625-.140625-.015625-.117188 0-.203125.046875-.265625.140625-.054687.09375-.078125.230469-.078125.40625v.828125zm0 0"/></symbol><symbol id="d" overflow="visible"><path d="m.40625-.796875c0 .210937.03125.367187.09375.46875.070312.105469.171875.15625.296875.15625.09375 0 .171875-.023437.234375-.078125.0625-.050781.101562-.128906.125-.234375l.265625.015625c-.023437.148438-.089844.265625-.203125.359375-.105469.09375-.242188.140625-.40625.140625-.21875 0-.390625-.0664062-.515625-.203125-.117187-.144531-.171875-.351563-.171875-.625 0-.257813.054688-.457031.171875-.59375.125-.144531.296875-.21875.515625-.21875.15625 0 .285156.042969.390625.125.113281.085937.179687.199219.203125.34375l-.265625.015625c-.011719-.082031-.046875-.148438-.109375-.203125-.054688-.050781-.132812-.078125-.234375-.078125-.136719 0-.234375.046875-.296875.140625s-.09375.25-.09375.46875zm0 0"/></symbol><symbol id="e" overflow="visible"><path d="m.203125 0v-2.171875h.265625v2.171875zm0 0"/></symbol><symbol id="f" overflow="visible"><path d="m.40625-.734375c0 .179687.035156.320313.109375.421875.070313.09375.179687.140625.328125.140625.113281 0 .203125-.019531.265625-.0625.070313-.050781.125-.109375.15625-.171875l.234375.0625c-.105469.25-.324219.375-.65625.375-.230469 0-.40625-.0664062-.53125-.203125-.125-.144531-.1875-.351563-.1875-.625 0-.269531.0625-.472656.1875-.609375.125-.132812.300781-.203125.53125-.203125.457031 0 .6875.28125.6875.84375v.03125zm.859375-.203125c-.023437-.164062-.070313-.285156-.140625-.359375-.0625-.082031-.164062-.125-.296875-.125-.125 0-.226563.046875-.296875.140625-.074219.085938-.117188.199219-.125.34375zm0 0"/></symbol><symbol id="g" overflow="visible"><path d="m2 0v-1.375c0-.15625.003906-.300781.015625-.4375-.054687.179688-.09375.3125-.125.40625l-.53125 1.40625h-.203125l-.546875-1.40625-.078125-.25-.046875-.15625v.15625l.015625.28125v1.375h-.25v-2.0625h.359375l.546875 1.421875c.019531.0625.039062.132813.0625.203125.019531.0625.03125.105469.03125.125.007812-.03125.023438-.085938.046875-.171875.03125-.082031.050781-.132813.0625-.15625l.53125-1.421875h.359375v2.0625zm0 0"/></symbol><symbol id="h" overflow="visible"><path d="m-.046875.59375v-.1875h1.75v.1875zm0 0"/></symbol><symbol id="i" overflow="visible"><path d="m2.21875 0h-.34375l-.359375-1.3125c-.023437-.082031-.054687-.226562-.09375-.4375-.03125.117188-.058594.210938-.078125.28125-.011719.074219-.140625.5625-.390625 1.46875h-.328125l-.609375-2.0625h.296875l.359375 1.3125c.039063.167969.082031.335938.125.5.019531-.101562.046875-.21875.078125-.34375s.164062-.613281.40625-1.46875h.265625l.359375 1.28125c.0625.210938.109375.386719.140625.53125v-.046875c.03125-.113281.050781-.203125.0625-.265625.019531-.070312.160156-.570312.421875-1.5h.296875zm0 0"/></symbol><symbol id="j" overflow="visible"><path d="m.46875-1.3125c.050781-.101562.113281-.175781.1875-.21875.082031-.050781.1875-.078125.3125-.078125.175781 0 .300781.042969.375.125.082031.085937.125.226563.125.421875v1.0625h-.265625v-1c0-.113281-.011719-.195312-.03125-.25-.023437-.050781-.058594-.085938-.109375-.109375-.042969-.03125-.105469-.046875-.1875-.046875-.117188 0-.214844.042969-.296875.125-.074219.085938-.109375.199219-.109375.34375v.9375h-.265625v-2.171875h.265625v.5625.1875c0 .0625-.007812.101563-.015625.109375zm0 0"/></symbol><symbol id="k" overflow="visible"><path d="m.8125-.015625c-.085938.03125-.171875.046875-.265625.046875-.210937 0-.3125-.1171875-.3125-.359375v-1.0625h-.1875v-.1875h.1875l.078125-.359375h.1875v.359375h.28125v.1875h-.28125v1c0 .074219.007812.125.03125.15625.019531.03125.0625.046875.125.046875.039062 0 .09375-.003906.15625-.015625zm0 0"/></symbol><symbol id="l" overflow="visible"><path d="m2.1875-1.046875c0 .21875-.042969.414063-.125.578125-.085938.15625-.203125.28125-.359375.375-.148437.0859375-.324219.125-.53125.125-.21875 0-.40625-.0390625-.5625-.125-.148437-.09375-.261719-.21875-.34375-.375-.085937-.164062-.125-.359375-.125-.578125 0-.320313.085937-.578125.265625-.765625.1875-.1875.441406-.28125.765625-.28125.207031 0 .390625.042969.546875.125.15625.085938.269531.210938.34375.375.082031.15625.125.339844.125.546875zm-.28125 0c0-.25-.070312-.445313-.203125-.59375-.125-.144531-.304687-.21875-.53125-.21875-.242187 0-.429687.074219-.5625.21875-.125.136719-.1875.335937-.1875.59375 0 .261719.0625.46875.1875.625.132813.148437.320313.21875.5625.21875.226563 0 .40625-.070313.53125-.21875.132813-.144531.203125-.351563.203125-.625zm0 0"/></symbol><symbol id="m" overflow="visible"><path d="m1.203125 0v-1c0-.101562-.011719-.179688-.03125-.234375-.023437-.0625-.054687-.101563-.09375-.125-.042969-.03125-.109375-.046875-.203125-.046875-.125 0-.226562.042969-.296875.125-.074219.085938-.109375.203125-.109375.359375v.921875h-.265625v-1.25c0-.1875 0-.296875 0-.328125h.25v.03125.078125.15625h.015625c.0625-.113281.128906-.191406.203125-.234375.082031-.039063.179687-.0625.296875-.0625.175781 0 .300781.042969.375.125.082031.085937.125.226563.125.421875v1.0625zm0 0"/></symbol><symbol id="n" overflow="visible"><path d="m1.84375-1.4375c0 .1875-.070312.34375-.203125.46875-.125.117188-.296875.171875-.515625.171875h-.59375v.796875h-.28125v-2.0625h.859375c.238281 0 .421875.058594.546875.171875.125.105469.1875.257813.1875.453125zm-.28125 0c0-.269531-.164062-.40625-.484375-.40625h-.546875v.8125h.5625c.3125 0 .46875-.132812.46875-.40625zm0 0"/></symbol><symbol id="o" overflow="visible"><path d="m.453125-1.578125v1c0 .105469.007813.1875.03125.25.019531.054687.050781.09375.09375.125.050781.023437.117187.03125.203125.03125.132812 0 .238281-.039063.3125-.125.070312-.09375.109375-.21875.109375-.375v-.90625h.25v1.234375c0 .1875.003906.3046875.015625.34375h-.25s0-.0078125 0-.03125c0-.03125 0-.0546875 0-.078125 0-.03125-.007812-.082031-.015625-.15625-.0625.105469-.136719.1835938-.21875.234375-.074219.0390625-.167969.0625-.28125.0625-.179687 0-.308594-.0390625-.390625-.125-.085938-.09375-.125-.238281-.125-.4375v-1.046875zm0 0"/></symbol><symbol id="p" overflow="visible"><path d="m1.546875-.796875c0 .554687-.199219.828125-.59375.828125-.242187 0-.402344-.09375-.484375-.28125h-.015625c.007813.011719.015625.09375.015625.25v.625h-.265625v-1.890625c0-.15625-.007813-.257813-.015625-.3125h.265625v.046875.109375c.007813.042969.015625.074219.015625.09375.050781-.101563.113281-.175781.1875-.21875.070312-.039063.171875-.0625.296875-.0625.195313 0 .34375.070313.4375.203125.101563.125.15625.328125.15625.609375zm-.28125 0c0-.21875-.03125-.375-.09375-.46875-.054687-.09375-.148437-.140625-.28125-.140625-.105469 0-.1875.023438-.25.0625-.054687.042969-.09375.109375-.125.203125s-.046875.214844-.046875.359375c0 .210938.03125.367188.09375.46875.070312.09375.179688.140625.328125.140625.125 0 .21875-.046875.28125-.140625s.09375-.253906.09375-.484375zm0 0"/></symbol><g><use x="108.25" xlink:href="#a" y="124.750977"/><use x="110.5" xlink:href="#b" y="124.750977"/><use x="111.25" xlink:href="#c" y="124.750977"/><use x="112.25" xlink:href="#d" y="124.750977"/><use x="113.75" xlink:href="#e" y="124.750977"/><use x="114.5" xlink:href="#f" y="124.750977"/><use x="116.25" xlink:href="#g" y="124.750977"/><use x="118.75" xlink:href="#h" y="124.750977"/><use x="120.5" xlink:href="#i" y="124.750977"/><use x="123.25" xlink:href="#j" y="124.750977"/><use x="125" xlink:href="#b" y="124.750977"/><use x="125.75" xlink:href="#k" y="124.750977"/><use x="126.5" xlink:href="#f" y="124.750977"/><use x="128.25" xlink:href="#l" y="124.750977"/><use x="130.5" xlink:href="#m" y="124.750977"/><use x="132.25" xlink:href="#n" y="124.750977"/><use x="134.25" xlink:href="#o" y="124.750977"/><use x="136" xlink:href="#c" y="124.750977"/><use x="137" xlink:href="#p" y="124.750977"/><use x="138.75" xlink:href="#e" y="124.750977"/><use x="139.5" xlink:href="#f" y="124.750977"/></g><path d="m250 125c0 69.035156-55.964844 125-125 125s-125-55.964844-125-125 55.964844-125 125-125 125 55.964844 125 125zm0 0" fill="#7e61f8"/><path d="m60.761719 169.53125c4.867187 0 8.824219-4.054688 8.824219-9.035156v-49.207032c.226562-12.84375 10.550781-22.882812 23.5-22.882812 12.828124 0 22.871093 10.042969 22.882812 22.859375v.023437 49.207032c0 .0625.019531.117187.019531.175781.097657 4.816406 4.175781 8.859375 9.007813 8.859375.039062 0 .070312-.011719.109375-.015625.035156 0 .066406.015625.101562.015625 4.867188 0 8.824219-4.054688 8.824219-9.035156v-49.207032c.226562-12.84375 10.546875-22.882812 23.5-22.882812 12.832031 0 22.882812 10.054688 22.882812 22.882812v49.207032c0 4.898437 4.136719 9.035156 9.03125 9.035156 4.8125 0 9.035157-4.21875 9.035157-9.035156v-49.207032c0-22.578124-18.367188-40.945312-40.945313-40.945312-12.910156 0-24.652344 6.171875-32.34375 15.609375-7.503906-9.488281-19.089844-15.609375-32.101562-15.609375-22.53125 0-41.566406 18.75-41.566406 40.945312v49.207032c0 4.644531 4.488281 9.035156 9.238281 9.035156zm0 0" fill="#fff"/></svg>