<?xml version="1.0" standalone="no"?>
<!DOCTYPE svg PUBLIC "-//W3C//DTD SVG 20010904//EN"
 "http://www.w3.org/TR/2001/REC-SVG-20010904/DTD/svg10.dtd">
<svg version="1.0" xmlns="http://www.w3.org/2000/svg"
 width="201.000000pt" height="201.000000pt" viewBox="0 0 201.000000 201.000000"
 preserveAspectRatio="xMidYMid meet">
<metadata>
Created by potrace 1.16, written by Peter Selinger 2001-2019
</metadata>
<g transform="translate(0.000000,201.000000) scale(0.100000,-0.100000)"
fill="#000000" stroke="none">
<path d="M305 1608 c-3 -7 -4 -283 -3 -613 l3 -600 45 0 45 0 0 610 0 610 -43
3 c-28 2 -44 -1 -47 -10z"/>
<path d="M1625 1608 c-3 -7 -4 -283 -3 -613 l3 -600 45 0 45 0 0 610 0 610
-43 3 c-28 2 -44 -1 -47 -10z"/>
<path d="M470 1010 l0 -480 45 0 45 0 0 480 0 480 -45 0 -45 0 0 -480z"/>
<path d="M1460 1010 l0 -480 45 0 45 0 0 480 0 480 -45 0 -45 0 0 -480z"/>
<path d="M637 1394 c-4 -4 -7 -218 -7 -476 l0 -468 50 0 50 0 -2 473 -3 472
-40 3 c-23 2 -44 0 -48 -4z"/>
<path d="M1297 1394 c-4 -4 -7 -218 -7 -476 l0 -468 50 0 50 0 -2 473 -3 472
-40 3 c-23 2 -44 0 -48 -4z"/>
<path d="M800 870 l0 -390 45 0 45 0 0 390 0 390 -45 0 -45 0 0 -390z"/>
<path d="M1130 871 l0 -391 45 0 45 0 -2 388 -3 387 -42 3 -43 3 0 -390z"/>
<path d="M967 1124 c-4 -4 -7 -169 -7 -366 l0 -358 50 0 50 0 -2 363 -3 362
-40 3 c-23 2 -44 0 -48 -4z"/>
</g>
</svg>
