<svg height="250" viewBox="0 0 250 250" width="250" xmlns="http://www.w3.org/2000/svg" xmlns:xlink="http://www.w3.org/1999/xlink"><linearGradient id="a"><stop offset="0" stop-color="#e5c45d"/><stop offset="1" stop-color="#987a3b"/></linearGradient><linearGradient id="b" gradientTransform="matrix(1.086957 0 0 -1.131222 0 253.393665)" gradientUnits="userSpaceOnUse" x1="178.427704" x2="101.277702" xlink:href="#a" y1="152.729599" y2="104.349602"/><linearGradient id="c" gradientTransform="matrix(1.086957 0 0 -1.131222 0 253.393665)" gradientUnits="userSpaceOnUse" x1="112.3209" x2="113.620796" xlink:href="#a" y1="33.990601" y2="100.030602"/><linearGradient id="d" gradientTransform="matrix(1.086957 0 0 -1.131222 0 253.393665)" gradientUnits="userSpaceOnUse" x1="44.128101" x2="111.598099" xlink:href="#a" y1="153.706604" y2="115.326599"/><path d="m202.5 152.828125c-40.109375 0-72.71875-33.824219-72.71875-75.679687 0-15.722657 4.675781-30.996094 13.480469-43.777344h-40.871094c23.261719 34.050781 15.542969 81.335937-17.171875 105.542968-12.285156 9.050782-27.066406 14.027344-42.066406 14.027344-2.5 0-5.109375-.113281-7.609375-.453125l20.980469 38.007813c16.519531-38.121094 59.671874-54.976563 96.195312-37.78125 16.085938 7.578125 29.019531 21.039062 36.304688 37.78125l21.085937-38.007813c-2.5.226563-5.109375.339844-7.609375.339844zm0 0" fill="#e5c45d"/><path d="m188.585938 126.46875c0-13.347656 9.132812-24.886719 21.738281-27.375l-21.085938-37.894531c-9.890625 11.425781-26.738281 12.441406-37.714843 2.148437-8.046876-7.464844-10.980469-19.34375-7.394532-29.976562h-.976562c-23.261719 34.050781-15.542969 81.335937 17.171875 105.542968 12.285156 9.050782 27.066406 14.027344 42.066406 14.027344 1.414063 0 2.828125 0 4.132813-.113281-10.761719-3.960937-17.9375-14.480469-17.9375-26.359375zm0 0" fill="url(#b)"/><path d="m90 185.746094c10.871094 6.335937 16.085938 19.570312 12.609375 32.015625h41.519531c-4.5625-14.59375 3.152344-30.316407 17.175782-35.070313 7.066406-2.375 14.78125-1.582031 21.195312 2.148438 2.175781 1.246094 4.238281 2.828125 5.976562 4.753906-17.0625-37.785156-60.324218-54.074219-96.738281-36.3125-15.652343 7.691406-28.261719 20.925781-35.324219 37.328125l.542969.90625c8.476563-9.839844 22.066407-12.105469 33.042969-5.769531zm0 0" fill="url(#c)"/><path d="m102.390625 33.371094h-.542969c4.890625 14.480468-2.390625 30.429687-16.414062 35.519531-10.324219 3.734375-21.847656.566406-29.019532-8.03125l-21.089843 38.121094c14.566406 2.601562 24.351562 16.96875 21.851562 32.128906-1.632812 10.066406-8.480469 18.324219-17.71875 21.605469 1.195313.113281 2.5.113281 3.695313.113281 40.109375 0 72.71875-33.824219 72.71875-75.679687 0-15.609376-4.675782-30.882813-13.480469-43.777344zm0 0" fill="url(#d)"/></svg>