
<svg xmlns="http://www.w3.org/2000/svg" xmlns:xlink="http://www.w3.org/1999/xlink" width="250px" height="250px" viewBox="0 0 250 250" version="1.1">
<g id="surface1">
<path style=" stroke:none;fill-rule:nonzero;fill:rgb(25.882354%,52.156866%,95.686275%);fill-opacity:1;" d="M 223.039062 124.707031 C 223.039062 118.222656 222.511719 111.703125 221.390625 105.324219 L 131.425781 105.324219 L 131.425781 142.054688 L 182.945312 142.054688 C 180.808594 153.898438 173.9375 164.378906 163.878906 171.039062 L 163.878906 194.871094 L 194.617188 194.871094 C 212.664062 178.257812 223.039062 153.726562 223.039062 124.707031 Z M 223.039062 124.707031 "/>
<path style=" stroke:none;fill-rule:nonzero;fill:rgb(20.392157%,65.882355%,32.549021%);fill-opacity:1;" d="M 131.425781 217.894531 C 157.152344 217.894531 178.84375 209.449219 194.652344 194.871094 L 163.914062 171.039062 C 155.363281 176.855469 144.324219 180.148438 131.460938 180.148438 C 106.578125 180.148438 85.480469 163.363281 77.910156 140.792969 L 46.191406 140.792969 L 46.191406 165.359375 C 62.386719 197.570312 95.363281 217.894531 131.425781 217.894531 Z M 131.425781 217.894531 "/>
<path style=" stroke:none;fill-rule:nonzero;fill:rgb(98.431373%,73.725492%,1.568628%);fill-opacity:1;" d="M 77.875 140.792969 C 73.878906 128.945312 73.878906 116.121094 77.875 104.273438 L 77.875 79.707031 L 46.191406 79.707031 C 32.664062 106.65625 32.664062 138.410156 46.191406 165.359375 Z M 77.875 140.792969 "/>
<path style=" stroke:none;fill-rule:nonzero;fill:rgb(91.764706%,26.274511%,20.784314%);fill-opacity:1;" d="M 131.425781 64.882812 C 145.023438 64.671875 158.167969 69.789062 168.015625 79.179688 L 195.246094 51.949219 C 178.003906 35.757812 155.117188 26.855469 131.425781 27.136719 C 95.363281 27.136719 62.386719 47.464844 46.191406 79.707031 L 77.875 104.273438 C 85.410156 81.667969 106.542969 64.882812 131.425781 64.882812 Z M 131.425781 64.882812 "/>
</g>
</svg>
