<!-- Generator: Adobe Illustrator 25.3.1, SVG Export Plug-In . SVG Version: 6.00 Build 0)  -->
<svg xmlns="http://www.w3.org/2000/svg" xmlns:xlink="http://www.w3.org/1999/xlink" width="250px" height="250px" viewBox="0 0 250 250" version="1.1">
<defs>
<linearGradient id="linear0" gradientUnits="userSpaceOnUse" x1="68.035301" y1="-110.601303" x2="166.925201" y2="110.5187" gradientTransform="matrix(1.062014,0,0,1.066553,0.478811,125.490622)">
<stop offset="0" style="stop-color:rgb(97.254902%,74.117649%,0%);stop-opacity:1;"/>
<stop offset="0.89" style="stop-color:rgb(92.54902%,58.431375%,0%);stop-opacity:1;"/>
</linearGradient>
</defs>
<g id="surface1">
<path style=" stroke:none;fill-rule:nonzero;fill:url(#linear0);" d="M 124.945312 0 C 56.234375 0.105469 0.480469 56.101562 0.585938 125.105469 C 0.691406 194.113281 56.445312 250.105469 125.160156 250 C 193.871094 249.894531 249.519531 194.007812 249.519531 125 C 249.519531 55.992188 193.765625 0 124.945312 0 Z M 124.945312 0 "/>
<path style=" stroke:none;fill-rule:nonzero;fill:rgb(100%,100%,100%);fill-opacity:1;" d="M 227.429688 131.507812 C 227.539062 129.371094 227.644531 127.238281 227.644531 125 C 227.644531 109.214844 224.140625 93.535156 217.34375 79.246094 L 170.613281 52.261719 L 202.15625 55.78125 C 194.507812 46.820312 185.480469 39.25 175.394531 33.277344 L 113.582031 32.101562 L 148.097656 21.863281 C 139.496094 19.625 130.683594 18.558594 121.761719 18.558594 C 104.664062 18.558594 87.777344 22.71875 72.695312 30.714844 L 84.058594 50.554688 L 63.03125 36.476562 C 62.394531 36.902344 61.863281 37.222656 61.226562 37.648438 L 73.546875 60.046875 L 53.578125 77.003906 L 51.5625 92.683594 L 22.355469 121.585938 L 38.285156 119.027344 L 46.570312 122.332031 L 24.691406 138.972656 L 33.933594 151.128906 L 61.542969 153.371094 L 75.882812 141.957031 L 65.261719 132.890625 L 104.875 130.226562 L 121.972656 111.667969 L 115.390625 68.472656 L 143.425781 114.867188 L 115.175781 185.582031 L 114.539062 143.132812 L 96.699219 189.527344 L 65.261719 215.015625 C 82.148438 225.683594 101.582031 231.335938 121.546875 231.441406 L 150.753906 166.277344 L 146.082031 228.5625 C 159.039062 225.46875 171.355469 219.921875 182.296875 212.242188 L 181.234375 134.386719 L 203.640625 192.300781 C 211.925781 182.0625 218.296875 170.433594 222.332031 157.851562 L 195.039062 101.960938 Z M 82.785156 97.804688 L 67.597656 101.003906 L 59.527344 110.386719 L 54.960938 113.375 L 65.6875 92.578125 L 65.472656 84.898438 L 96.589844 83.9375 C 96.589844 83.9375 82.785156 97.804688 82.785156 97.804688 Z M 84.695312 172.035156 L 72.164062 162.222656 L 57.828125 166.914062 L 38.179688 161.6875 L 44.871094 180.355469 L 58.570312 189.417969 L 66.21875 182.699219 Z M 84.695312 172.035156 "/>
</g>
</svg>
