
<svg xmlns="http://www.w3.org/2000/svg" xmlns:xlink="http://www.w3.org/1999/xlink" width="250px" height="250px" viewBox="0 0 250 250" version="1.1">
<g id="surface1">
<path style=" stroke:none;fill-rule:evenodd;fill:rgb(0%,19.215687%,42.745098%);fill-opacity:1;" d="M 250 125 C 250 194.035156 194.035156 250 125 250 C 55.964844 250 0 194.035156 0 125 C 0 55.964844 55.964844 0 125 0 C 194.035156 0 250 55.964844 250 125 Z M 250 125 "/>
<path style=" stroke:none;fill-rule:nonzero;fill:rgb(100%,100%,100%);fill-opacity:1;" d="M 141.84375 155.367188 C 141.742188 155.179688 141.726562 155.101562 141.6875 155.078125 C 136.84375 152.789062 132 150.492188 127.140625 148.234375 C 126.882812 148.109375 126.359375 148.140625 126.195312 148.320312 C 124.085938 150.585938 122.023438 152.90625 119.929688 155.226562 C 121.445312 156.34375 140.578125 156.351562 141.84375 155.367188 M 97.515625 99.40625 L 97.03125 98.390625 C 96.625 98.679688 96.09375 98.890625 95.828125 99.28125 C 91.351562 105.941406 86.90625 112.617188 82.484375 119.3125 C 82.210938 119.734375 82.226562 120.351562 82.09375 120.875 C 82.640625 120.765625 83.25 120.789062 83.695312 120.515625 C 87.492188 118.234375 91.25 115.894531 94.976562 113.5 C 95.632812 113.039062 96.082031 112.339844 96.234375 111.554688 C 96.734375 107.648438 97.078125 103.71875 97.515625 99.40625 M 191.242188 156.046875 L 197.695312 156.046875 C 198.9375 156.046875 199.414062 155.578125 198.625 154.382812 C 194.523438 148.117188 190.4375 141.84375 186.320312 135.601562 C 186.101562 135.257812 185.601562 135.109375 185.226562 134.875 C 185.03125 135.265625 184.695312 135.65625 184.65625 136.070312 C 184.179688 142.179688 183.75 148.289062 183.28125 154.398438 C 183.195312 155.5625 183.601562 156.085938 184.789062 156.0625 C 186.9375 156.015625 189.085938 156.046875 191.242188 156.046875 M 52.695312 155.578125 C 53.679688 155.8125 54.164062 156.03125 54.640625 156.039062 C 61.617188 156.054688 68.59375 156.039062 75.5625 156.054688 C 76.914062 156.054688 77.257812 155.578125 76.6875 154.273438 C 74.5 149.308594 72.359375 144.324219 70.265625 139.320312 C 69.65625 137.859375 69.09375 137.929688 68.132812 138.960938 C 64.414062 142.976562 60.664062 146.953125 56.929688 150.945312 C 55.625 152.351562 54.351562 153.757812 52.695312 155.578125 M 155.78125 119.539062 C 156.234375 120.421875 156.382812 120.804688 156.609375 121.132812 L 166.046875 134.835938 C 169.945312 140.5 173.835938 146.164062 177.765625 151.804688 C 178.03125 152.195312 178.546875 152.40625 178.9375 152.695312 C 179.140625 152.226562 179.46875 151.78125 179.53125 151.296875 C 179.6875 149.96875 179.71875 148.640625 179.804688 147.3125 C 180.226562 141.257812 180.695312 135.210938 181.054688 129.164062 C 181.210938 126.585938 180.09375 125.257812 177.648438 124.648438 C 171.125 123.015625 164.601562 121.375 158.070312 119.757812 C 157.484375 119.617188 156.867188 119.640625 155.78125 119.539062 M 154.125 79.421875 L 153.53125 79.523438 C 153.453125 80.71875 153.335938 81.921875 153.296875 83.132812 L 152.429688 112.59375 C 152.390625 113.671875 152.710938 114.234375 153.828125 114.5 C 160.59375 116.140625 167.34375 117.867188 174.109375 119.53125 C 174.695312 119.671875 175.34375 119.539062 175.960938 119.53125 C 175.804688 118.929688 175.773438 118.25 175.484375 117.71875 C 168.742188 105.453125 161.984375 93.1875 155.210938 80.9375 C 154.914062 80.398438 154.492188 79.921875 154.125 79.421875 M 123.773438 139.632812 C 123.960938 138.59375 124.140625 137.96875 124.164062 137.34375 C 124.265625 134.070312 124.273438 130.796875 124.421875 127.523438 C 124.5625 125.03125 123.820312 122.566406 122.328125 120.5625 C 116.125 111.957031 109.941406 103.335938 103.773438 94.703125 C 103.492188 94.3125 103.375 93.804688 103.179688 93.351562 L 102.445312 93.789062 C 102.265625 94.445312 101.984375 95.09375 101.914062 95.757812 C 101.367188 101.070312 100.898438 106.382812 100.3125 111.679688 C 100.132812 112.808594 100.5 113.960938 101.304688 114.773438 C 108.296875 122.5625 115.242188 130.398438 122.21875 138.210938 C 122.59375 138.632812 123.046875 138.976562 123.773438 139.632812 M 128.28125 138 L 128.75 138.3125 C 129.179688 137.976562 129.6875 137.710938 130.03125 137.296875 C 135.972656 130.085938 141.890625 122.855469 147.789062 115.609375 C 148.152344 115.148438 148.363281 114.589844 148.398438 114.007812 C 148.679688 104.359375 148.921875 94.710938 149.140625 85.0625 C 149.15625 84.53125 148.851562 83.992188 148.6875 83.460938 C 148.257812 83.875 147.65625 84.210938 147.414062 84.710938 C 141.945312 96.289062 136.71875 107.984375 130.984375 119.414062 C 127.953125 125.460938 128.4375 131.703125 128.28125 138.007812 M 100.914062 156.054688 C 104.671875 156.054688 108.4375 156.109375 112.195312 156.007812 C 113.054688 155.96875 113.867188 155.621094 114.492188 155.03125 C 117.109375 152.289062 119.5625 149.382812 122.171875 146.632812 C 123.148438 145.617188 122.929688 144.992188 122.101562 144.085938 C 117.691406 139.304688 113.324219 134.484375 108.992188 129.632812 C 107.945312 128.460938 107.34375 128.46875 106.40625 129.75 C 100.460938 137.882812 94.453125 145.960938 88.476562 154.078125 C 88.179688 154.484375 88.070312 155.023438 87.867188 155.5 C 88.390625 155.6875 88.914062 156.023438 89.445312 156.023438 C 93.273438 156.070312 97.085938 156.054688 100.914062 156.054688 M 104.804688 125.070312 C 102.726562 122.65625 100.6875 120.382812 98.757812 118 C 97.945312 117.007812 97.320312 116.90625 96.226562 117.585938 C 89.695312 121.695312 83.09375 125.695312 76.578125 129.828125 C 75.398438 130.578125 74.46875 131.742188 73.46875 132.765625 C 72.539062 133.71875 72.664062 134.765625 73.171875 135.9375 C 75.710938 141.742188 78.1875 147.570312 80.695312 153.390625 C 81.648438 155.578125 82.007812 155.617188 83.46875 153.664062 C 87.335938 148.507812 91.1875 143.328125 95.039062 138.164062 L 104.804688 125.070312 M 150.078125 118.914062 C 149.570312 119.734375 149.328125 120.234375 148.984375 120.640625 C 142.796875 128.1875 136.601562 135.734375 130.367188 143.25 C 129.351562 144.476562 129.875 144.960938 131.023438 145.484375 C 138.1875 148.765625 145.320312 152.101562 152.5 155.367188 C 153.417969 155.78125 154.414062 156.003906 155.421875 156.023438 C 161.328125 156.078125 167.242188 156.0625 173.15625 156.03125 C 173.703125 156.03125 174.257812 155.78125 174.8125 155.640625 C 174.617188 155.0625 174.53125 154.398438 174.1875 153.90625 C 168.738281 145.949219 163.269531 138 157.789062 130.0625 C 155.367188 126.546875 152.929688 123.03125 150.078125 118.914062 M 124.945312 164.046875 C 98.054688 164.046875 71.164062 164.039062 44.273438 164.0625 C 42.179688 164.0625 40.289062 163.828125 39.382812 161.578125 C 38.523438 159.445312 39.523438 157.867188 40.921875 156.375 C 48.953125 147.796875 57.09375 139.3125 64.90625 130.546875 C 67.890625 127.203125 70.195312 123.226562 72.71875 119.46875 C 80.804688 107.375 88.828125 95.234375 96.953125 83.171875 C 97.75 81.992188 98.96875 80.796875 100.25 80.328125 C 102.015625 79.671875 103.523438 80.6875 104.648438 82.296875 C 111.1875 91.640625 117.773438 100.953125 124.34375 110.28125 C 125.695312 112.1875 126.179688 112.125 127.179688 109.953125 L 147.445312 65.8125 C 148.242188 64.078125 149.296875 62.601562 151.351562 62.507812 C 153.5 62.40625 154.804688 63.710938 155.8125 65.554688 C 165.984375 84.007812 175.921875 102.617188 186.492188 120.835938 C 192.882812 131.851562 200.28125 142.25 207.226562 152.929688 C 208.085938 154.242188 208.953125 155.546875 209.796875 156.875 C 210.8125 158.476562 211.414062 160.234375 210.460938 162.007812 C 209.523438 163.726562 207.789062 164.054688 205.96875 164.054688 C 178.960938 164.039062 151.953125 164.046875 124.945312 164.046875 "/>
</g>
</svg>
