
<svg xmlns="http://www.w3.org/2000/svg" xmlns:xlink="http://www.w3.org/1999/xlink" width="250px" height="250px" viewBox="0 0 250 250" version="1.1">
<g id="surface1">
<path style=" stroke:none;fill-rule:nonzero;fill:rgb(0.392157%,0.392157%,0.392157%);fill-opacity:1;" d="M 0 0 L 0 250 L 34.722656 250 L 34.722656 152.777344 L 41.667969 152.777344 L 41.667969 250 L 208.332031 250 L 208.332031 194.660156 L 201.605469 194.660156 C 201.605469 196.097656 202.308594 200.207031 201.257812 201.257812 C 200.550781 201.96875 198.621094 201.605469 197.699219 201.605469 L 187.71875 201.605469 C 187.71875 203.042969 188.421875 207.152344 187.371094 208.203125 C 186.660156 208.910156 184.730469 208.550781 183.8125 208.550781 L 173.828125 208.550781 C 173.828125 209.902344 174.539062 214.460938 173.324219 215.273438 C 172.289062 215.960938 169.828125 215.496094 168.621094 215.496094 L 111.109375 215.496094 L 111.109375 208.550781 L 100.910156 208.550781 C 99.992188 208.550781 98.0625 208.910156 97.351562 208.203125 C 96.300781 207.152344 97.003906 203.042969 97.003906 201.605469 L 83.332031 201.605469 L 83.332031 194.660156 L 76.390625 194.660156 L 76.390625 187.71875 L 69.445312 187.71875 L 69.445312 173.609375 L 62.5 173.609375 L 62.5 145.832031 L 69.445312 145.832031 L 69.445312 138.890625 L 76.390625 138.890625 L 76.390625 131.945312 L 83.332031 131.945312 L 83.332031 125 L 90.277344 125 L 90.277344 117.839844 L 122.394531 117.839844 C 123.113281 117.839844 124.308594 117.625 124.871094 118.1875 C 125.945312 119.261719 125.21875 123.527344 125.21875 125 L 132.160156 125 L 132.160156 131.945312 L 139.105469 131.945312 L 139.105469 138.890625 L 152.777344 138.890625 L 152.777344 131.945312 L 159.503906 131.945312 L 159.503906 125 L 166.667969 125 L 166.667969 117.839844 L 201.390625 117.839844 L 201.390625 104.167969 L 194.445312 104.167969 L 194.445312 97.222656 L 187.5 97.222656 L 187.5 90.277344 L 194.445312 90.277344 L 194.445312 97.003906 L 201.390625 97.003906 L 201.390625 90.277344 L 208.550781 90.277344 L 208.550781 125 L 215.496094 125 L 215.496094 140.40625 C 215.496094 141.625 216.054688 144.792969 215.148438 145.703125 C 214.074219 146.777344 209.804688 146.050781 208.332031 146.050781 L 208.332031 173.394531 C 209.804688 173.394531 214.074219 172.667969 215.148438 173.742188 C 216.007812 174.601562 215.496094 177.460938 215.496094 178.601562 L 215.496094 250 L 250 250 L 250 0 Z M 0 0 "/>
<path style=" stroke:none;fill-rule:nonzero;fill:rgb(100%,100%,100%);fill-opacity:1;" d="M 118.054688 13.890625 L 118.054688 20.832031 L 111.109375 20.832031 L 111.109375 27.777344 L 104.167969 27.777344 L 104.167969 41.667969 L 111.109375 41.667969 L 111.109375 48.609375 L 118.054688 48.609375 L 118.054688 55.554688 L 131.945312 55.554688 L 131.945312 48.609375 L 138.890625 48.609375 L 138.890625 41.667969 L 145.832031 41.667969 L 145.832031 34.722656 L 138.890625 34.722656 L 138.890625 41.667969 L 125 41.667969 L 125 34.722656 L 118.054688 34.722656 L 118.054688 20.832031 L 125 20.832031 L 125 13.890625 L 118.054688 13.890625 M 62.5 55.554688 L 62.5 62.5 L 55.554688 62.5 L 55.554688 76.390625 L 48.609375 76.390625 L 48.609375 90.277344 L 41.667969 90.277344 L 41.667969 152.777344 L 48.609375 152.777344 L 48.609375 90.277344 L 55.554688 90.277344 L 55.554688 76.390625 L 62.5 76.390625 L 62.5 62.5 L 69.445312 62.5 L 69.445312 76.390625 L 76.390625 76.390625 L 76.390625 90.277344 L 83.332031 90.277344 L 83.332031 97.222656 L 90.277344 97.222656 L 90.277344 83.332031 L 111.109375 83.332031 L 111.109375 76.390625 L 159.722656 76.390625 L 159.722656 83.332031 L 173.609375 83.332031 L 173.609375 90.277344 L 187.5 90.277344 L 187.5 83.332031 L 173.609375 83.332031 L 173.609375 76.390625 L 180.554688 76.390625 L 180.554688 62.5 L 187.5 62.5 L 187.5 76.390625 L 194.445312 76.390625 L 194.445312 90.277344 L 201.390625 90.277344 L 201.390625 76.390625 L 194.445312 76.390625 L 194.445312 62.5 L 187.5 62.5 L 187.5 55.554688 L 180.554688 55.554688 L 180.554688 62.5 L 173.609375 62.5 L 173.609375 76.390625 L 159.722656 76.390625 L 159.722656 69.445312 L 111.109375 69.445312 L 111.109375 76.390625 L 90.277344 76.390625 L 90.277344 83.332031 L 83.332031 83.332031 L 83.332031 76.390625 L 76.390625 76.390625 L 76.390625 62.5 L 69.445312 62.5 L 69.445312 55.554688 Z M 62.5 55.554688 "/>
<path style=" stroke:none;fill-rule:nonzero;fill:rgb(6.666667%,6.666667%,6.666667%);fill-opacity:1;" d="M 83.332031 76.390625 L 83.332031 83.332031 L 83.550781 83.332031 L 83.332031 76.390625 M 76.390625 90.277344 L 76.390625 90.496094 L 83.332031 90.496094 Z M 76.390625 90.277344 "/>
<path style=" stroke:none;fill-rule:nonzero;fill:rgb(100%,100%,100%);fill-opacity:1;" d="M 187.5 90.277344 L 187.5 97.222656 L 194.445312 97.222656 L 194.445312 104.167969 L 201.390625 104.167969 L 201.390625 118.054688 L 166.667969 118.054688 L 166.667969 125 L 159.722656 125 L 159.722656 131.945312 L 152.777344 131.945312 L 152.777344 138.890625 L 138.890625 138.890625 L 138.890625 131.945312 L 131.945312 131.945312 L 131.945312 125 L 125 125 L 125 118.054688 L 90.277344 118.054688 L 90.277344 125 L 83.332031 125 L 83.332031 131.945312 L 76.390625 131.945312 L 76.390625 138.890625 L 69.445312 138.890625 L 69.445312 145.832031 L 62.5 145.832031 L 62.5 173.609375 L 69.445312 173.609375 L 69.445312 187.5 L 76.390625 187.5 L 76.390625 194.445312 L 83.332031 194.445312 L 83.332031 201.390625 L 97.222656 201.390625 L 97.222656 208.332031 L 111.109375 208.332031 L 111.109375 215.277344 L 173.609375 215.277344 L 173.609375 208.332031 L 187.5 208.332031 L 187.5 201.390625 L 201.390625 201.390625 L 201.390625 194.445312 L 208.332031 194.445312 L 208.332031 250 L 215.277344 250 L 215.277344 173.609375 L 208.332031 173.609375 L 208.332031 145.832031 L 215.277344 145.832031 L 215.277344 125 L 208.332031 125 L 208.332031 90.277344 L 201.390625 90.277344 L 201.390625 97.222656 L 194.445312 97.222656 L 194.445312 90.277344 Z M 187.5 90.277344 "/>
<path style=" stroke:none;fill-rule:nonzero;fill:rgb(6.666667%,6.666667%,6.666667%);fill-opacity:1;" d="M 208.332031 90.277344 L 208.332031 125 L 208.550781 125 L 208.550781 100.695312 C 208.550781 97.761719 209.464844 92.96875 208.332031 90.277344 M 194.445312 97.003906 L 194.445312 97.222656 L 201.390625 97.222656 L 194.445312 97.003906 M 90.277344 117.839844 L 90.277344 118.054688 L 125 118.054688 C 122.308594 116.925781 117.515625 117.839844 114.582031 117.839844 L 90.277344 117.839844 M 166.667969 117.839844 L 166.667969 118.054688 L 201.390625 118.054688 C 198.695312 116.925781 193.90625 117.839844 190.972656 117.839844 L 166.667969 117.839844 M 125 118.054688 L 125 125 L 125.21875 125 L 125 118.054688 M 131.945312 125 L 131.945312 131.945312 L 132.160156 131.945312 L 131.945312 125 M 159.503906 125 L 159.503906 131.945312 L 159.722656 131.945312 L 159.503906 125 M 215.277344 125 L 215.277344 145.832031 L 215.496094 145.832031 L 215.496094 131.292969 Z M 215.277344 125 "/>
<path style=" stroke:none;fill-rule:nonzero;fill:rgb(12.156863%,12.156863%,12.156863%);fill-opacity:1;" d="M 90.277344 131.945312 L 90.496094 132.160156 Z M 90.277344 131.945312 "/>
<path style=" stroke:none;fill-rule:nonzero;fill:rgb(6.666667%,6.666667%,6.666667%);fill-opacity:1;" d="M 90.277344 138.890625 C 88.796875 138.890625 84.851562 138.183594 83.679688 139.113281 C 82.628906 139.945312 83.332031 144.535156 83.332031 145.832031 C 82.035156 145.832031 77.445312 145.128906 76.613281 146.179688 C 75.757812 147.257812 76.390625 150.777344 76.390625 152.125 L 76.390625 167.75 C 76.390625 169.019531 75.804688 172.246094 76.613281 173.261719 C 77.445312 174.3125 82.035156 173.609375 83.332031 173.609375 L 83.332031 173.394531 L 76.605469 173.394531 L 76.605469 146.050781 C 77.902344 146.050781 82.496094 146.753906 83.328125 145.703125 C 84.253906 144.53125 83.550781 140.585938 83.550781 139.105469 C 85.03125 139.105469 88.976562 139.8125 90.148438 138.882812 C 91.199219 138.050781 90.496094 133.460938 90.496094 132.160156 L 118.054688 132.160156 C 116.34375 131.445312 113.613281 131.945312 111.761719 131.945312 L 97.222656 131.945312 C 95.75 131.945312 91.792969 131.242188 90.625 132.167969 C 89.574219 133 90.277344 137.589844 90.277344 138.890625 M 138.890625 131.945312 L 138.890625 138.890625 L 139.105469 138.890625 Z M 138.890625 131.945312 "/>
<path style=" stroke:none;fill-rule:nonzero;fill:rgb(12.156863%,12.156863%,12.156863%);fill-opacity:1;" d="M 173.609375 131.945312 L 173.828125 132.160156 Z M 173.609375 131.945312 "/>
<path style=" stroke:none;fill-rule:nonzero;fill:rgb(6.666667%,6.666667%,6.666667%);fill-opacity:1;" d="M 173.609375 138.890625 L 173.828125 138.890625 L 173.828125 132.160156 L 208.332031 132.160156 C 206.210938 131.269531 202.613281 131.945312 200.304688 131.945312 L 176.214844 131.945312 C 175.582031 131.945312 174.492188 131.746094 173.960938 132.167969 C 172.90625 133 173.609375 137.589844 173.609375 138.890625 Z M 173.609375 138.890625 "/>
<path style=" stroke:none;fill-rule:nonzero;fill:rgb(0.392157%,0.392157%,0.392157%);fill-opacity:1;" d="M 90.496094 132.160156 L 90.496094 138.890625 L 118.054688 138.890625 L 118.054688 132.160156 L 90.496094 132.160156 M 173.828125 132.160156 L 173.828125 138.890625 L 201.605469 138.890625 L 201.605469 145.832031 L 208.332031 145.832031 L 208.332031 132.160156 Z M 173.828125 132.160156 "/>
<path style=" stroke:none;fill-rule:nonzero;fill:rgb(12.156863%,12.156863%,12.156863%);fill-opacity:1;" d="M 83.332031 138.890625 L 83.550781 139.105469 Z M 83.332031 138.890625 "/>
<path style=" stroke:none;fill-rule:nonzero;fill:rgb(100%,100%,100%);fill-opacity:1;" d="M 90.277344 138.890625 L 90.277344 145.832031 L 83.332031 145.832031 L 83.332031 173.609375 L 90.277344 173.609375 L 90.277344 180.554688 L 118.054688 180.554688 L 118.054688 173.609375 L 125 173.609375 L 125 145.832031 L 118.054688 145.832031 L 118.054688 138.890625 Z M 90.277344 138.890625 "/>
<path style=" stroke:none;fill-rule:nonzero;fill:rgb(12.156863%,12.156863%,12.156863%);fill-opacity:1;" d="M 118.054688 138.890625 L 118.273438 139.105469 Z M 118.054688 138.890625 "/>
<path style=" stroke:none;fill-rule:nonzero;fill:rgb(6.666667%,6.666667%,6.666667%);fill-opacity:1;" d="M 118.054688 145.832031 L 118.273438 145.832031 L 118.273438 139.105469 L 125 139.105469 L 119.792969 138.890625 L 118.1875 139.390625 Z M 118.054688 145.832031 "/>
<path style=" stroke:none;fill-rule:nonzero;fill:rgb(12.156863%,12.156863%,12.156863%);fill-opacity:1;" d="M 166.667969 138.890625 L 166.882812 139.105469 Z M 166.667969 138.890625 "/>
<path style=" stroke:none;fill-rule:nonzero;fill:rgb(6.666667%,6.666667%,6.666667%);fill-opacity:1;" d="M 166.667969 145.832031 L 166.882812 145.832031 L 166.882812 139.105469 L 173.609375 139.105469 L 168.402344 138.890625 L 166.796875 139.390625 L 166.667969 145.832031 M 201.390625 138.890625 L 201.390625 145.832031 L 201.605469 145.832031 Z M 201.390625 138.890625 "/>
<path style=" stroke:none;fill-rule:nonzero;fill:rgb(0.392157%,0.392157%,0.392157%);fill-opacity:1;" d="M 83.550781 139.105469 L 83.550781 145.832031 L 90.277344 145.832031 L 90.277344 139.105469 L 83.550781 139.105469 M 118.273438 139.105469 L 118.273438 145.832031 L 125 145.832031 L 125 139.105469 L 118.273438 139.105469 M 166.882812 139.105469 L 166.882812 145.832031 L 173.609375 145.832031 L 173.609375 139.105469 Z M 166.882812 139.105469 "/>
<path style=" stroke:none;fill-rule:nonzero;fill:rgb(12.156863%,12.156863%,12.156863%);fill-opacity:1;" d="M 76.390625 145.832031 L 76.605469 146.050781 Z M 76.390625 145.832031 "/>
<path style=" stroke:none;fill-rule:nonzero;fill:rgb(6.666667%,6.666667%,6.666667%);fill-opacity:1;" d="M 125 145.832031 L 125 146.050781 L 131.945312 146.050781 L 125 145.832031 M 159.722656 145.832031 L 159.722656 146.050781 L 166.667969 146.050781 L 159.722656 145.832031 M 208.332031 145.832031 L 208.332031 146.050781 L 215.277344 146.050781 Z M 208.332031 145.832031 "/>
<path style=" stroke:none;fill-rule:nonzero;fill:rgb(0.392157%,0.392157%,0.392157%);fill-opacity:1;" d="M 76.605469 146.050781 L 76.605469 173.394531 L 83.332031 173.394531 L 83.332031 146.050781 L 76.605469 146.050781 M 125 146.050781 L 125 173.394531 L 131.945312 173.394531 L 131.945312 146.050781 L 125 146.050781 M 159.722656 146.050781 L 159.722656 166.667969 L 139.105469 166.667969 L 139.105469 173.609375 L 159.722656 173.609375 L 159.722656 194.445312 L 166.667969 194.445312 L 166.667969 180.339844 L 173.609375 180.339844 L 173.609375 173.828125 L 166.667969 173.828125 L 166.667969 146.050781 Z M 159.722656 146.050781 "/>
<path style=" stroke:none;fill-rule:nonzero;fill:rgb(100%,100%,100%);fill-opacity:1;" d="M 34.722656 152.777344 L 34.722656 250 L 41.667969 250 L 41.667969 152.777344 Z M 34.722656 152.777344 "/>
<path style=" stroke:none;fill-rule:nonzero;fill:rgb(12.156863%,12.156863%,12.156863%);fill-opacity:1;" d="M 97.222656 152.777344 L 97.4375 152.996094 Z M 97.222656 152.777344 "/>
<path style=" stroke:none;fill-rule:nonzero;fill:rgb(6.666667%,6.666667%,6.666667%);fill-opacity:1;" d="M 97.222656 166.667969 L 97.4375 166.667969 L 97.4375 152.996094 L 104.167969 152.996094 C 103.15625 152.570312 98.171875 152.207031 97.445312 153.125 C 96.835938 153.894531 97.222656 155.964844 97.222656 156.902344 Z M 97.222656 166.667969 "/>
<path style=" stroke:none;fill-rule:nonzero;fill:rgb(12.156863%,12.156863%,12.156863%);fill-opacity:1;" d="M 180.554688 152.777344 L 180.773438 152.996094 Z M 180.554688 152.777344 "/>
<path style=" stroke:none;fill-rule:nonzero;fill:rgb(6.666667%,6.666667%,6.666667%);fill-opacity:1;" d="M 180.554688 166.667969 L 180.773438 166.667969 L 180.773438 152.996094 L 187.5 152.996094 C 186.488281 152.570312 181.503906 152.207031 180.777344 153.125 C 180.167969 153.894531 180.554688 155.964844 180.554688 156.902344 Z M 180.554688 166.667969 "/>
<path style=" stroke:none;fill-rule:nonzero;fill:rgb(0.392157%,0.392157%,0.392157%);fill-opacity:1;" d="M 97.4375 152.996094 L 97.4375 166.667969 L 111.109375 166.667969 L 111.109375 159.9375 L 104.167969 159.9375 L 104.167969 152.996094 L 97.4375 152.996094 M 180.773438 152.996094 L 180.773438 166.667969 L 194.445312 166.667969 L 194.445312 159.9375 L 187.5 159.9375 L 187.5 152.996094 Z M 180.773438 152.996094 "/>
<path style=" stroke:none;fill-rule:nonzero;fill:rgb(6.666667%,6.666667%,6.666667%);fill-opacity:1;" d="M 104.167969 159.722656 L 104.167969 159.9375 L 111.109375 159.9375 L 104.167969 159.722656 M 187.5 159.722656 L 187.5 159.9375 L 194.445312 159.9375 L 187.5 159.722656 M 138.890625 166.667969 L 138.890625 173.609375 L 139.105469 173.609375 Z M 138.890625 166.667969 "/>
<path style=" stroke:none;fill-rule:nonzero;fill:rgb(12.156863%,12.156863%,12.156863%);fill-opacity:1;" d="M 76.390625 173.394531 L 76.605469 173.609375 Z M 76.390625 173.394531 "/>
<path style=" stroke:none;fill-rule:nonzero;fill:rgb(6.666667%,6.666667%,6.666667%);fill-opacity:1;" d="M 125 173.394531 L 125 173.609375 L 131.945312 173.609375 L 125 173.394531 M 208.332031 173.394531 L 208.332031 173.609375 L 215.277344 173.609375 Z M 208.332031 173.394531 "/>
<path style=" stroke:none;fill-rule:nonzero;fill:rgb(12.156863%,12.156863%,12.156863%);fill-opacity:1;" d="M 83.332031 173.609375 L 83.550781 173.828125 Z M 83.332031 173.609375 "/>
<path style=" stroke:none;fill-rule:nonzero;fill:rgb(6.666667%,6.666667%,6.666667%);fill-opacity:1;" d="M 90.277344 180.554688 L 90.277344 180.339844 L 83.550781 180.339844 L 83.550781 173.828125 L 90.277344 173.828125 C 89.179688 173.367188 84.652344 173.066406 83.679688 173.835938 C 82.953125 174.410156 82.953125 179.757812 83.679688 180.332031 C 84.851562 181.261719 88.796875 180.554688 90.277344 180.554688 Z M 90.277344 180.554688 "/>
<path style=" stroke:none;fill-rule:nonzero;fill:rgb(12.156863%,12.156863%,12.156863%);fill-opacity:1;" d="M 118.054688 173.609375 L 118.273438 173.828125 Z M 118.054688 173.609375 "/>
<path style=" stroke:none;fill-rule:nonzero;fill:rgb(6.666667%,6.666667%,6.666667%);fill-opacity:1;" d="M 125 180.554688 L 125 180.339844 L 118.273438 180.339844 L 118.273438 173.828125 L 125 173.828125 C 123.902344 173.367188 119.371094 173.066406 118.402344 173.835938 C 117.675781 174.410156 117.675781 179.757812 118.402344 180.332031 C 119.574219 181.261719 123.519531 180.554688 125 180.554688 M 131.945312 173.609375 L 131.945312 187.5 L 132.160156 187.5 L 132.160156 177.953125 Z M 131.945312 173.609375 "/>
<path style=" stroke:none;fill-rule:nonzero;fill:rgb(0.392157%,0.392157%,0.392157%);fill-opacity:1;" d="M 132.160156 173.609375 L 132.160156 187.5 L 138.890625 187.5 L 138.890625 173.609375 Z M 132.160156 173.609375 "/>
<path style=" stroke:none;fill-rule:nonzero;fill:rgb(100%,100%,100%);fill-opacity:1;" d="M 138.890625 173.609375 L 138.890625 187.5 L 145.832031 187.5 L 145.832031 194.445312 L 159.722656 194.445312 L 159.722656 173.609375 Z M 138.890625 173.609375 "/>
<path style=" stroke:none;fill-rule:nonzero;fill:rgb(6.666667%,6.666667%,6.666667%);fill-opacity:1;" d="M 166.667969 173.609375 L 166.667969 173.828125 L 173.609375 173.828125 Z M 166.667969 173.609375 "/>
<path style=" stroke:none;fill-rule:nonzero;fill:rgb(12.156863%,12.156863%,12.156863%);fill-opacity:1;" d="M 201.390625 173.609375 L 201.605469 173.828125 Z M 201.390625 173.609375 "/>
<path style=" stroke:none;fill-rule:nonzero;fill:rgb(6.666667%,6.666667%,6.666667%);fill-opacity:1;" d="M 208.332031 180.554688 L 208.332031 180.339844 L 201.605469 180.339844 L 201.605469 173.828125 L 208.332031 173.828125 C 207.238281 173.367188 202.707031 173.066406 201.738281 173.835938 C 201.007812 174.410156 201.007812 179.757812 201.738281 180.332031 C 202.910156 181.261719 206.851562 180.554688 208.332031 180.554688 M 215.277344 173.609375 L 215.277344 250 L 215.496094 250 L 215.496094 180.339844 Z M 215.277344 173.609375 "/>
<path style=" stroke:none;fill-rule:nonzero;fill:rgb(0.392157%,0.392157%,0.392157%);fill-opacity:1;" d="M 83.550781 173.828125 L 83.550781 180.339844 L 90.277344 180.339844 L 90.277344 173.828125 L 83.550781 173.828125 M 118.273438 173.828125 L 118.273438 180.339844 L 125 180.339844 L 125 173.828125 L 118.273438 173.828125 M 201.605469 173.828125 L 201.605469 180.339844 L 208.332031 180.339844 L 208.332031 173.828125 Z M 201.605469 173.828125 "/>
<path style=" stroke:none;fill-rule:nonzero;fill:rgb(12.156863%,12.156863%,12.156863%);fill-opacity:1;" d="M 83.332031 180.339844 L 83.550781 180.554688 L 83.332031 180.339844 M 118.054688 180.339844 L 118.273438 180.554688 Z M 118.054688 180.339844 "/>
<path style=" stroke:none;fill-rule:nonzero;fill:rgb(6.666667%,6.666667%,6.666667%);fill-opacity:1;" d="M 166.667969 180.339844 L 166.667969 180.554688 L 173.609375 180.554688 Z M 166.667969 180.339844 "/>
<path style=" stroke:none;fill-rule:nonzero;fill:rgb(12.156863%,12.156863%,12.156863%);fill-opacity:1;" d="M 201.390625 180.339844 L 201.605469 180.554688 Z M 201.390625 180.339844 "/>
<path style=" stroke:none;fill-rule:nonzero;fill:rgb(6.666667%,6.666667%,6.666667%);fill-opacity:1;" d="M 90.277344 180.554688 L 90.277344 187.5 L 90.496094 187.5 Z M 90.277344 180.554688 "/>
<path style=" stroke:none;fill-rule:nonzero;fill:rgb(0.392157%,0.392157%,0.392157%);fill-opacity:1;" d="M 90.496094 180.554688 L 90.496094 187.5 L 118.054688 187.5 L 118.054688 180.554688 Z M 90.496094 180.554688 "/>
<path style=" stroke:none;fill-rule:nonzero;fill:rgb(6.666667%,6.666667%,6.666667%);fill-opacity:1;" d="M 173.609375 180.554688 L 173.609375 187.5 L 173.828125 187.5 Z M 173.609375 180.554688 "/>
<path style=" stroke:none;fill-rule:nonzero;fill:rgb(0.392157%,0.392157%,0.392157%);fill-opacity:1;" d="M 173.828125 180.554688 L 173.828125 187.5 L 201.390625 187.5 L 201.390625 180.554688 Z M 173.828125 180.554688 "/>
<path style=" stroke:none;fill-rule:nonzero;fill:rgb(6.666667%,6.666667%,6.666667%);fill-opacity:1;" d="M 69.445312 187.5 L 69.445312 187.71875 L 76.390625 187.71875 Z M 69.445312 187.5 "/>
<path style=" stroke:none;fill-rule:nonzero;fill:rgb(12.156863%,12.156863%,12.156863%);fill-opacity:1;" d="M 138.890625 187.5 L 139.105469 187.71875 Z M 138.890625 187.5 "/>
<path style=" stroke:none;fill-rule:nonzero;fill:rgb(6.666667%,6.666667%,6.666667%);fill-opacity:1;" d="M 138.890625 194.445312 L 139.105469 194.445312 L 139.105469 187.71875 L 145.832031 187.71875 L 140.625 187.5 L 139.019531 188.003906 Z M 138.890625 194.445312 "/>
<path style=" stroke:none;fill-rule:nonzero;fill:rgb(0.392157%,0.392157%,0.392157%);fill-opacity:1;" d="M 139.105469 187.71875 L 139.105469 194.445312 L 145.832031 194.445312 L 145.832031 187.71875 Z M 139.105469 187.71875 "/>
<path style=" stroke:none;fill-rule:nonzero;fill:rgb(6.666667%,6.666667%,6.666667%);fill-opacity:1;" d="M 76.390625 194.445312 L 76.390625 194.660156 L 83.332031 194.660156 L 76.390625 194.445312 M 145.832031 194.445312 L 145.832031 208.332031 L 146.050781 208.332031 L 146.050781 198.785156 Z M 145.832031 194.445312 "/>
<path style=" stroke:none;fill-rule:nonzero;fill:rgb(0.392157%,0.392157%,0.392157%);fill-opacity:1;" d="M 146.050781 194.445312 L 146.050781 208.332031 L 152.777344 208.332031 L 152.777344 201.390625 L 159.503906 201.390625 L 159.503906 194.445312 Z M 146.050781 194.445312 "/>
<path style=" stroke:none;fill-rule:nonzero;fill:rgb(6.666667%,6.666667%,6.666667%);fill-opacity:1;" d="M 159.503906 194.445312 L 159.503906 201.390625 L 159.722656 201.390625 Z M 159.503906 194.445312 "/>
<path style=" stroke:none;fill-rule:nonzero;fill:rgb(12.156863%,12.156863%,12.156863%);fill-opacity:1;" d="M 201.390625 194.445312 L 201.605469 194.660156 Z M 201.390625 194.445312 "/>
<path style=" stroke:none;fill-rule:nonzero;fill:rgb(6.666667%,6.666667%,6.666667%);fill-opacity:1;" d="M 201.605469 194.445312 L 201.605469 194.660156 L 208.332031 194.660156 L 201.605469 194.445312 M 201.390625 194.660156 L 201.390625 201.390625 L 201.605469 201.390625 L 201.390625 194.660156 M 83.332031 201.390625 L 83.332031 201.605469 L 97.003906 201.605469 L 97.003906 208.332031 C 97.429688 207.320312 97.792969 202.339844 96.875 201.613281 C 96.105469 201.003906 94.035156 201.390625 93.097656 201.390625 Z M 83.332031 201.390625 "/>
<path style=" stroke:none;fill-rule:nonzero;fill:rgb(12.156863%,12.156863%,12.156863%);fill-opacity:1;" d="M 97.003906 201.390625 L 97.222656 201.605469 L 97.003906 201.390625 M 187.5 201.390625 L 187.71875 201.605469 Z M 187.5 201.390625 "/>
<path style=" stroke:none;fill-rule:nonzero;fill:rgb(6.666667%,6.666667%,6.666667%);fill-opacity:1;" d="M 187.71875 201.390625 L 187.71875 201.605469 L 201.390625 201.605469 L 197.046875 201.390625 L 187.71875 201.390625 M 187.5 201.605469 L 187.5 208.332031 L 187.71875 208.332031 L 187.5 201.605469 M 97.222656 208.332031 L 97.222656 208.550781 L 111.109375 208.550781 L 106.769531 208.332031 Z M 97.222656 208.332031 "/>
<path style=" stroke:none;fill-rule:nonzero;fill:rgb(12.156863%,12.156863%,12.156863%);fill-opacity:1;" d="M 173.609375 208.332031 L 173.828125 208.550781 Z M 173.609375 208.332031 "/>
<path style=" stroke:none;fill-rule:nonzero;fill:rgb(6.666667%,6.666667%,6.666667%);fill-opacity:1;" d="M 173.828125 208.332031 L 173.828125 208.550781 L 187.5 208.550781 L 183.160156 208.332031 L 173.828125 208.332031 M 173.609375 208.550781 L 173.609375 215.277344 L 173.828125 215.277344 L 173.609375 208.550781 M 111.109375 215.277344 L 111.109375 215.496094 L 173.609375 215.496094 L 167.96875 215.277344 Z M 111.109375 215.277344 "/>
</g>
</svg>
