<?xml version="1.0" encoding="UTF-8"?>
<svg width="28px" height="28px" viewBox="0 0 28 28" version="1.1" xmlns="http://www.w3.org/2000/svg" xmlns:xlink="http://www.w3.org/1999/xlink">
    <title>mQQQ</title>
    <g id="Icons" stroke="none" stroke-width="1" fill="none" fill-rule="evenodd">
        <g id="QQQ" fill="#FFFFFF" fill-rule="nonzero">
            <path d="M14.3659574,5.99361702 C13.3382979,5.99361702 12.9361702,6.88723404 12.9361702,8.00425532 C12.9361702,9.16595745 13.3829787,10.0595745 14.4106383,10.0595745 C14.5,10.0595745 14.5446809,10.0595745 14.6340426,10.0595745 L14.187234,9.43404255 L15.1702128,8.80851064 L15.5723404,9.43404255 C15.7510638,9.07659574 15.8404255,8.58510638 15.8404255,8.04893617 C15.8404255,6.88723404 15.393617,5.99361702 14.3659574,5.99361702 Z" id="Path"></path>
            <path d="M20.3978723,5.99361702 C19.3702128,5.99361702 18.9680851,6.88723404 18.9680851,8.00425532 C18.9680851,9.16595745 19.4148936,10.0595745 20.4425532,10.0595745 C20.5319149,10.0595745 20.5765957,10.0595745 20.6659574,10.0595745 L20.2191489,9.43404255 L21.2021277,8.80851064 L21.6042553,9.43404255 C21.7829787,9.07659574 21.8723404,8.58510638 21.8723404,8.04893617 C21.8276596,6.88723404 21.4255319,5.99361702 20.3978723,5.99361702 Z" id="Path"></path>
            <path d="M8.3787234,5.99361702 C7.35106383,5.99361702 6.94893617,6.88723404 6.94893617,8.00425532 C6.94893617,9.16595745 7.39574468,10.0595745 8.42340426,10.0595745 C8.51276596,10.0595745 8.55744681,10.0595745 8.64680851,10.0595745 L8.2,9.43404255 L9.18297872,8.80851064 L9.58510638,9.43404255 C9.76382979,9.07659574 9.85319149,8.58510638 9.85319149,8.04893617 C9.80851064,6.88723404 9.40638298,5.99361702 8.3787234,5.99361702 Z" id="Path"></path>
            <path d="M4.22340426,3.13404255 L4.22340426,23.9553191 L18.7,23.9553191 L25,17.6106383 L25,3.13404255 L4.22340426,3.13404255 Z M10.7468085,11.1319149 L9.76382979,11.7574468 L9.31702128,11.087234 C9.04893617,11.2212766 8.73617021,11.2659574 8.3787234,11.2659574 C6.63617021,11.2659574 5.60851064,9.92553191 5.60851064,8.00425532 C5.60851064,6.08297872 6.63617021,4.74255319 8.3787234,4.74255319 C10.1212766,4.74255319 11.1489362,6.08297872 11.1489362,8.00425532 C11.1042553,9.03191489 10.7914894,9.88085106 10.2553191,10.4617021 L10.7468085,11.1319149 Z M16.7787234,11.1319149 L15.7957447,11.7574468 L15.3489362,11.087234 C15.0808511,11.2212766 14.7680851,11.2659574 14.4106383,11.2659574 C12.6680851,11.2659574 11.6404255,9.92553191 11.6404255,8.00425532 C11.6404255,6.08297872 12.6680851,4.74255319 14.4106383,4.74255319 C16.1531915,4.74255319 17.1808511,6.08297872 17.1808511,8.00425532 C17.1361702,9.03191489 16.8234043,9.88085106 16.287234,10.4617021 L16.7787234,11.1319149 Z M22.7659574,11.1319149 L21.7829787,11.7574468 L21.3361702,11.087234 C21.0680851,11.2212766 20.7553191,11.2659574 20.3978723,11.2659574 C18.6553191,11.2659574 17.6276596,9.92553191 17.6276596,8.00425532 C17.6276596,6.08297872 18.6553191,4.74255319 20.3978723,4.74255319 C22.1404255,4.74255319 23.1680851,6.08297872 23.1680851,8.00425532 C23.1680851,9.03191489 22.8106383,9.88085106 22.2744681,10.4617021 L22.7659574,11.1319149 Z" id="Shape"></path>
        </g>
    </g>
</svg>