<?xml version="1.0" standalone="no"?>
<!DOCTYPE svg PUBLIC "-//W3C//DTD SVG 20010904//EN"
 "http://www.w3.org/TR/2001/REC-SVG-20010904/DTD/svg10.dtd">
<svg version="1.0" xmlns="http://www.w3.org/2000/svg"
 width="1200.000000pt" height="1194.000000pt" viewBox="0 0 1200.000000 1194.000000"
 preserveAspectRatio="xMidYMid meet">
<metadata>
Created by potrace 1.16, written by Peter Selinger 2001-2019
</metadata>
<g transform="translate(0.000000,1194.000000) scale(0.100000,-0.100000)"
fill="#000000" stroke="none">
<path d="M0 8830 c0 -2786 2 -3110 15 -3110 21 0 30 27 15 46 -10 11 -10 18
-2 26 17 17 42 1 42 -25 0 -14 7 -30 15 -37 12 -10 12 -16 4 -26 -6 -8 -9 -21
-5 -29 4 -12 24 -15 92 -15 76 0 89 3 110 23 32 30 31 57 -1 57 -16 0 -25 -6
-25 -15 0 -8 -7 -15 -15 -15 -13 0 -11 6 7 30 27 38 37 38 71 -1 l27 -31 0 25
c0 14 5 29 10 32 15 9 40 -14 40 -36 0 -16 8 -19 46 -19 32 0 51 5 59 17 17
23 45 10 45 -21 0 -25 -1 -25 -98 -28 -89 -3 -97 -5 -97 -23 0 -19 8 -20 104
-23 99 -3 104 -2 129 23 22 23 24 29 14 46 -16 25 -8 39 23 39 12 0 25 7 29
15 3 8 17 15 32 15 23 0 26 -3 22 -27 l-4 -28 63 3 c51 3 63 1 63 -12 0 -9
-12 -16 -32 -19 -18 -2 -7 -2 24 0 48 3 61 0 78 -17 20 -20 20 -20 20 0 0 13
-7 20 -20 20 -11 0 -20 7 -20 15 0 31 57 17 96 -22 21 -21 29 -28 19 -15 l-18
22 60 0 c45 0 62 -4 67 -15 3 -8 15 -15 26 -15 17 0 20 6 20 40 0 34 -3 40
-21 40 -28 0 -59 18 -59 35 0 21 19 28 36 15 12 -10 12 -16 2 -29 -12 -14 -11
-15 6 -1 16 13 20 12 31 -3 11 -15 13 -16 19 -2 7 19 35 19 42 0 6 -14 8 -13
19 1 7 10 19 15 29 11 24 -10 19 -27 -8 -27 -15 0 -26 -7 -29 -17 -4 -17 -5
-17 -6 0 -1 11 -9 17 -26 17 -22 0 -25 -4 -25 -40 0 -36 2 -40 26 -40 23 0 25
-2 14 -15 -12 -14 -15 -14 -30 0 -15 14 -18 13 -35 -5 -14 -15 -33 -20 -99
-22 l-81 -3 0 -35 c0 -35 0 -35 48 -38 35 -2 49 1 53 12 8 21 70 21 78 1 5
-13 21 -15 83 -13 73 3 78 4 84 28 l6 25 4 -25 c5 -29 36 -39 45 -15 11 29
-12 37 -95 36 -60 -1 -81 2 -81 11 1 22 69 88 90 88 25 0 36 25 20 45 -6 8 -9
19 -5 25 9 15 33 12 43 -6 8 -15 10 -15 15 0 8 21 65 22 74 0 8 -23 -11 -37
-59 -43 -34 -5 -43 -10 -43 -26 0 -16 7 -20 35 -20 29 0 36 4 38 23 2 13 10
22 22 22 10 0 20 7 24 15 7 19 35 19 42 0 9 -23 44 -19 44 5 0 15 7 20 25 20
18 0 25 -5 25 -20 0 -15 -7 -20 -25 -20 -16 0 -25 -6 -25 -15 0 -8 -9 -15 -20
-15 -11 0 -20 7 -20 15 0 9 -9 15 -25 15 -22 0 -25 -4 -25 -34 0 -41 13 -51
59 -47 39 3 81 36 81 64 0 10 8 17 19 17 10 0 21 7 25 15 7 20 33 19 44 -1 8
-15 10 -15 15 0 10 24 31 19 55 -13 l21 -29 -23 -24 c-12 -12 -25 -33 -28 -44
-5 -18 -2 -21 16 -16 11 2 26 11 32 18 7 9 40 14 95 16 76 3 84 5 84 23 0 13
-8 21 -21 23 -12 2 -30 12 -39 22 -17 19 -17 21 6 45 13 13 34 25 45 25 12 0
25 7 28 16 7 18 67 16 74 -3 2 -9 -9 -13 -38 -13 -37 0 -41 -2 -38 -22 2 -15
13 -24 36 -30 18 -5 35 -15 39 -23 7 -20 32 -19 56 2 17 17 20 17 31 1 11 -15
13 -15 22 -1 7 12 34 15 135 17 l125 1 -4 28 c-4 23 -1 27 20 27 15 0 32 -11
46 -30 27 -35 27 -47 5 -74 -18 -21 -18 -21 3 -4 19 17 21 17 39 0 19 -17 19
-16 2 4 -23 27 -21 43 7 78 29 35 55 29 57 -11 l1 -28 7 30 c7 33 37 46 47 21
3 -9 14 -16 24 -16 23 0 50 -31 50 -58 0 -15 -6 -22 -19 -22 -10 0 -24 -7 -31
-15 -12 -14 -15 -14 -31 1 -9 8 -26 14 -36 11 -15 -4 -15 -5 3 -6 12 0 27 -8
34 -16 12 -14 15 -14 30 0 22 20 39 19 64 -3 21 -17 21 -17 3 5 -18 21 -18 21
5 25 32 4 32 42 0 46 -38 6 -6 32 39 32 41 0 59 -18 59 -60 0 -31 44 -24 48 8
3 18 -1 22 -22 22 -29 0 -35 17 -10 27 11 4 22 -1 30 -12 13 -18 14 -17 14 8
0 33 28 48 45 24 7 -10 25 -17 42 -17 16 0 35 -6 43 -12 12 -11 12 -10 1 4
-14 19 -7 38 14 38 19 0 30 -21 16 -29 -7 -4 -14 -31 -15 -60 -2 -29 -9 -58
-15 -64 -6 -6 -11 -28 -11 -48 0 -65 -11 -99 -32 -99 -23 0 -35 -27 -19 -43 9
-9 16 -9 31 1 19 12 20 9 20 -48 0 -47 -3 -60 -15 -60 -13 0 -15 -42 -15 -314
0 -257 3 -316 14 -325 10 -9 15 -46 18 -146 2 -90 7 -138 16 -147 7 -7 12 -38
12 -75 0 -49 3 -63 15 -63 12 0 15 -15 15 -74 0 -53 4 -79 15 -90 8 -8 15 -32
15 -53 0 -21 7 -47 15 -57 10 -13 15 -43 15 -83 0 -38 4 -63 11 -63 5 0 8 -4
4 -9 -3 -5 -1 -12 5 -16 5 -3 10 -24 10 -46 0 -26 5 -42 15 -45 11 -5 15 -21
15 -60 0 -40 4 -56 18 -63 15 -9 15 -10 1 -11 -9 0 -19 -7 -23 -15 -3 -8 -15
-15 -26 -15 -11 0 -23 -7 -26 -15 -4 -9 -19 -15 -40 -15 -24 0 -34 5 -34 15 0
8 -6 15 -14 15 -8 0 -16 7 -20 15 -4 11 -20 15 -55 15 -34 0 -51 -4 -55 -15
-3 -8 -15 -15 -26 -15 -11 0 -23 -7 -26 -15 -4 -8 -12 -15 -20 -15 -8 0 -14
-7 -14 -15 0 -8 -7 -15 -15 -15 -8 0 -15 -7 -15 -15 0 -8 -7 -15 -15 -15 -8 0
-15 -7 -15 -15 0 -8 -7 -15 -15 -15 -8 0 -15 -7 -15 -15 0 -8 -7 -15 -15 -15
-8 0 -15 -7 -15 -15 0 -12 -9 -14 -37 -11 -21 2 -28 1 -15 -1 32 -6 28 -18
-23 -66 -25 -24 -45 -50 -45 -58 0 -8 -13 -26 -30 -39 -16 -14 -29 -31 -30
-37 0 -7 -7 -13 -15 -13 -8 0 -15 -7 -15 -15 0 -8 -7 -15 -15 -15 -8 0 -15 -7
-15 -15 0 -8 -7 -15 -15 -15 -8 0 -15 -7 -15 -15 0 -8 -7 -15 -15 -15 -8 0
-15 -7 -15 -15 0 -8 -7 -15 -15 -15 -8 0 -15 -7 -15 -15 0 -8 -7 -15 -15 -15
-8 0 -15 -7 -15 -15 0 -8 -6 -15 -12 -15 -7 -1 -24 -14 -38 -30 -13 -17 -31
-30 -40 -30 -9 0 -27 -13 -40 -30 -14 -16 -31 -29 -37 -30 -7 0 -13 -7 -13
-15 0 -8 -7 -15 -15 -15 -8 0 -15 -7 -15 -15 0 -8 -6 -15 -14 -15 -8 0 -16 -7
-20 -15 -3 -8 -15 -15 -26 -15 -11 0 -23 -7 -26 -15 -4 -8 -12 -15 -20 -15 -8
0 -14 -7 -14 -15 0 -8 -7 -15 -15 -15 -8 0 -15 -7 -15 -15 0 -9 -9 -15 -25
-15 -14 0 -28 -7 -31 -15 -4 -8 -12 -15 -19 -15 -7 0 -15 -7 -19 -15 -3 -8
-14 -15 -24 -15 -10 0 -29 -13 -42 -30 -14 -16 -30 -29 -36 -30 -7 0 -14 -7
-18 -15 -3 -8 -13 -15 -22 -15 -24 0 -64 -42 -64 -67 0 -14 -6 -23 -15 -23
-10 0 -15 -10 -15 -30 0 -20 -5 -30 -15 -30 -8 0 -15 -7 -15 -15 0 -8 -7 -15
-15 -15 -8 0 -15 -7 -15 -15 0 -8 -7 -15 -15 -15 -8 0 -15 -6 -15 -14 0 -7 -7
-19 -15 -26 -8 -7 -15 -20 -15 -30 0 -10 -7 -20 -15 -24 -10 -3 -15 -19 -15
-45 0 -25 -5 -41 -15 -45 -10 -3 -15 -19 -15 -45 0 -25 -5 -41 -15 -45 -10 -3
-15 -19 -15 -44 0 -23 -6 -45 -15 -52 -8 -7 -15 -26 -15 -42 0 -16 -7 -36 -15
-44 -8 -9 -15 -30 -15 -49 0 -20 -6 -35 -15 -39 -10 -3 -15 -19 -15 -45 0 -25
-5 -41 -15 -45 -10 -3 -15 -19 -15 -45 0 -25 -5 -41 -15 -45 -8 -3 -15 -15
-15 -26 0 -12 -7 -28 -15 -36 -8 -9 -15 -29 -15 -45 0 -17 -7 -37 -15 -45 -8
-9 -15 -30 -15 -48 0 -19 -7 -39 -15 -46 -8 -7 -15 -26 -15 -42 0 -16 -7 -36
-15 -44 -8 -9 -15 -29 -15 -45 0 -17 -7 -37 -15 -45 -8 -9 -15 -29 -15 -45 0
-17 -7 -37 -15 -45 -8 -9 -15 -29 -15 -45 0 -17 -7 -37 -15 -45 -8 -9 -15 -29
-15 -45 0 -17 -7 -37 -15 -45 -8 -9 -15 -24 -15 -33 0 -10 -7 -24 -15 -31 -8
-7 -15 -27 -15 -45 0 -18 -7 -38 -15 -45 -8 -7 -15 -27 -15 -45 0 -18 -7 -38
-15 -45 -8 -7 -15 -27 -15 -45 0 -18 -7 -38 -15 -45 -8 -7 -15 -26 -15 -42 0
-16 -7 -36 -15 -44 -8 -9 -15 -29 -15 -45 0 -17 -7 -37 -15 -45 -8 -9 -15 -30
-15 -48 0 -19 -7 -39 -15 -46 -8 -7 -15 -27 -15 -45 0 -18 -7 -38 -15 -45 -8
-7 -15 -26 -15 -42 0 -16 -7 -36 -15 -44 -8 -9 -15 -29 -15 -45 0 -17 -7 -37
-15 -45 -25 -25 -17 -35 23 -32 l37 3 36 105 c19 58 54 161 77 230 24 69 46
134 51 145 5 11 18 49 30 85 11 36 30 92 42 125 11 33 25 74 29 90 5 17 18 55
30 85 11 30 30 84 41 120 12 36 27 81 35 100 7 19 40 114 73 210 32 96 68 202
80 235 11 33 36 105 56 160 20 55 40 111 45 125 19 61 122 349 137 385 34 82
87 129 108 96 3 -5 18 -12 34 -16 34 -7 100 -75 129 -132 39 -75 80 -222 102
-363 30 -192 52 -348 60 -435 5 -55 14 -129 19 -165 6 -36 11 -90 11 -120 0
-30 7 -107 15 -170 20 -161 44 -466 50 -655 8 -223 11 -245 37 -245 21 0 21 2
15 148 -7 152 -11 200 -53 692 -14 162 -30 342 -34 400 -5 58 -14 129 -19 159
-6 29 -11 72 -11 94 0 80 -82 506 -114 593 -44 119 -109 205 -181 238 -34 15
-55 31 -55 41 0 34 57 94 157 166 247 177 281 204 417 320 104 89 302 288 416
416 35 40 71 73 81 73 10 0 19 11 22 28 8 37 125 142 159 142 29 0 77 -45 56
-53 -7 -2 -21 2 -30 11 -16 13 -18 13 -24 -3 -4 -10 -2 -36 5 -59 7 -23 15
-52 18 -66 3 -14 9 -27 13 -30 10 -7 70 -136 70 -150 0 -16 193 -207 288 -284
45 -37 82 -71 82 -76 0 -4 10 -10 23 -14 12 -3 43 -22 69 -43 61 -50 123 -93
167 -118 57 -32 95 -59 107 -73 5 -8 17 -12 25 -10 8 1 32 -8 54 -22 22 -13
49 -29 60 -35 11 -6 57 -34 103 -61 96 -57 108 -63 182 -100 141 -70 169 -86
180 -99 7 -8 19 -15 27 -15 8 0 38 -11 66 -24 29 -13 77 -33 107 -46 30 -12
66 -30 80 -40 14 -9 30 -15 35 -13 6 2 66 -15 133 -37 68 -22 129 -40 138 -40
8 0 33 -9 54 -20 22 -11 52 -20 67 -20 16 0 73 -8 128 -20 55 -11 129 -24 165
-30 36 -5 83 -14 105 -20 22 -5 61 -10 87 -10 26 0 53 -6 60 -13 8 -8 51 -13
122 -14 60 -1 171 -9 248 -18 80 -9 269 -17 447 -20 303 -4 376 0 665 35 50 6
97 8 105 5 8 -3 17 -1 21 5 6 10 42 20 179 50 25 6 59 14 75 20 104 32 162 52
176 60 9 5 23 4 32 -1 13 -7 20 -5 28 10 5 11 20 23 32 26 13 4 81 36 151 71
71 35 137 64 147 64 10 0 21 8 25 18 3 11 15 24 28 30 48 25 200 133 247 175
19 18 47 38 63 44 15 7 27 17 27 23 0 16 191 210 206 210 7 0 16 9 19 20 4 12
15 28 25 38 10 9 20 26 22 37 5 26 32 21 67 -11 79 -72 105 -94 114 -94 6 0
26 -12 46 -27 19 -15 123 -86 231 -158 181 -122 310 -210 485 -330 108 -74
184 -134 195 -154 10 -19 49 -38 89 -43 16 -2 36 -20 57 -50 34 -48 274 -446
274 -454 0 -2 12 -23 26 -45 94 -149 424 -802 424 -838 0 -5 12 -35 26 -67 30
-68 38 -90 111 -299 70 -201 66 -195 108 -195 38 0 44 10 20 34 -8 8 -15 28
-15 44 0 16 -7 35 -15 42 -8 7 -15 23 -15 37 0 13 -7 26 -15 29 -10 4 -15 20
-15 45 0 26 -5 42 -15 45 -10 4 -15 20 -15 45 0 26 -5 42 -15 45 -10 4 -15 20
-15 50 0 32 -4 44 -15 44 -9 0 -15 9 -15 25 0 14 -7 28 -15 31 -10 4 -15 20
-15 50 0 32 -4 44 -15 44 -9 0 -15 9 -15 25 0 14 -7 28 -15 31 -9 4 -15 19
-15 35 0 19 -5 29 -15 29 -10 0 -15 10 -15 30 0 20 -5 30 -15 30 -11 0 -15 11
-15 40 0 27 -5 43 -15 46 -8 4 -15 17 -15 30 0 14 -7 27 -15 30 -8 4 -15 14
-15 24 0 10 -7 23 -15 30 -8 7 -15 23 -15 37 0 13 -7 26 -15 29 -8 4 -15 14
-15 23 0 9 -13 31 -30 49 -16 18 -30 42 -30 53 0 11 -7 22 -15 25 -8 4 -15 17
-15 30 0 14 -7 27 -15 30 -8 4 -15 14 -15 24 0 10 -7 23 -15 30 -8 7 -15 20
-15 30 0 10 -7 23 -15 30 -8 7 -15 20 -15 29 0 9 -13 31 -30 49 -16 18 -30 44
-30 58 0 15 -6 24 -15 24 -8 0 -15 8 -15 19 0 10 -7 24 -15 31 -8 7 -15 21
-15 31 0 10 -13 32 -30 49 -16 17 -30 40 -30 51 0 11 -7 22 -15 25 -8 4 -15
12 -15 20 0 8 -7 14 -15 14 -9 0 -15 9 -15 25 0 14 -7 28 -15 31 -8 4 -15 17
-15 30 0 14 -7 27 -15 30 -8 4 -15 12 -15 20 0 8 -7 14 -15 14 -9 0 -15 9 -15
23 0 39 -41 67 -98 67 -48 0 -51 2 -54 27 -2 22 -9 29 -30 31 -16 2 -28 9 -28
18 0 8 -7 14 -15 14 -8 0 -15 7 -15 15 0 8 -6 15 -14 15 -8 0 -16 7 -20 15 -3
8 -17 15 -31 15 -16 0 -25 6 -25 15 0 8 -6 15 -14 15 -7 0 -19 7 -26 15 -7 8
-21 15 -31 15 -11 0 -19 7 -19 15 0 8 -6 15 -14 15 -8 0 -16 7 -20 15 -3 8
-15 15 -26 15 -11 0 -23 7 -26 15 -4 8 -12 15 -19 15 -7 0 -15 7 -19 15 -3 8
-15 15 -26 15 -11 0 -23 7 -26 15 -4 8 -12 15 -20 15 -8 0 -14 7 -14 15 0 8
-6 15 -14 15 -8 0 -16 7 -20 15 -3 8 -17 15 -31 15 -16 0 -25 6 -25 15 0 8 -7
15 -15 15 -8 0 -15 7 -15 15 0 10 -10 15 -30 15 -20 0 -30 5 -30 15 0 8 -6 15
-14 15 -8 0 -16 7 -20 15 -3 8 -17 15 -31 15 -16 0 -25 6 -25 15 0 8 -6 15
-14 15 -8 0 -16 7 -20 15 -3 8 -17 15 -31 15 -16 0 -25 6 -25 15 0 8 -6 15
-14 15 -8 0 -16 7 -20 15 -3 8 -17 15 -31 15 -16 0 -25 6 -25 15 0 8 -6 15
-12 15 -7 1 -24 14 -38 30 -14 17 -34 30 -47 30 -14 0 -23 6 -23 15 0 8 -7 15
-15 15 -8 0 -15 7 -15 15 0 8 -6 15 -14 15 -8 0 -16 7 -20 15 -3 8 -17 15 -31
15 -16 0 -25 6 -25 15 0 12 -13 15 -55 15 -42 0 -55 -3 -55 -15 0 -21 -95 -21
-104 0 -4 11 -21 15 -60 15 -49 0 -54 2 -49 20 3 13 14 20 29 20 15 0 24 6 24
15 0 11 11 15 40 15 27 0 43 5 46 15 4 8 17 15 30 15 14 0 27 7 30 15 4 9 19
15 35 15 19 0 29 5 29 15 0 9 9 15 25 15 14 0 28 7 31 15 4 8 16 15 29 15 12
0 28 7 35 15 7 8 23 15 36 15 15 0 24 6 24 15 0 9 9 15 25 15 14 0 28 7 31 15
4 9 19 15 35 15 19 0 29 5 29 15 0 8 6 15 14 15 8 0 16 7 20 15 3 8 17 15 31
15 16 0 25 6 25 15 0 8 7 15 15 15 8 0 15 7 15 15 0 9 9 15 25 15 14 0 28 7
31 15 4 8 12 15 19 15 7 0 15 7 19 15 3 8 15 15 26 15 11 0 23 7 26 15 4 8 12
15 19 15 7 0 15 7 19 15 6 17 52 21 58 4 2 -7 11 -7 28 0 l25 10 -27 0 c-29 1
-42 31 -14 31 8 0 16 7 20 15 3 8 15 15 26 15 11 0 23 7 26 15 4 8 12 15 20
15 8 0 14 7 14 16 0 14 8 16 43 11 23 -3 36 -4 30 -1 -18 8 -16 34 2 34 8 0
15 7 15 15 0 8 7 15 15 15 8 0 15 7 15 15 0 8 7 15 15 15 8 0 15 7 15 15 0 8
5 15 10 15 6 0 30 20 53 45 24 25 50 45 58 45 8 0 26 13 39 30 14 16 31 29 38
30 6 0 12 6 12 14 0 8 7 16 15 20 8 3 15 14 15 24 0 9 20 35 45 57 25 22 45
46 45 53 0 6 7 12 15 12 8 0 15 7 15 15 0 8 7 15 15 15 8 0 15 6 15 14 0 8 7
16 15 20 8 3 15 15 15 26 0 11 7 23 15 26 8 4 15 12 15 20 0 8 7 14 15 14 8 0
15 6 15 14 0 21 31 24 61 7 29 -16 95 -7 68 10 -7 5 -29 9 -46 9 -18 0 -33 5
-33 10 0 6 9 10 20 10 11 0 20 7 20 15 0 8 7 15 15 15 8 0 15 7 15 15 0 20 10
19 34 -4 16 -15 43 -21 109 -27 55 -4 87 -3 87 3 0 6 -36 13 -80 16 -43 4 -88
12 -100 19 -20 13 -28 38 -11 38 10 0 34 38 47 73 3 9 13 17 20 17 8 0 14 8
14 19 0 10 7 24 15 31 8 7 15 20 15 30 0 10 7 23 15 30 8 7 15 25 15 41 0 19
5 29 15 29 11 0 15 12 15 45 0 25 5 45 10 45 16 0 12 -96 -5 -110 -21 -18 -9
-30 29 -30 19 0 39 -7 46 -15 9 -11 33 -15 90 -15 57 0 81 -4 90 -15 9 -10 32
-15 77 -15 47 0 65 -4 69 -15 4 -10 20 -15 44 -15 21 0 43 -7 50 -15 7 -8 27
-15 44 -15 18 0 36 -4 42 -9 5 -5 42 -12 82 -16 62 -6 72 -5 72 9 0 12 -10 16
-40 16 -27 0 -43 5 -46 15 -5 11 -21 15 -60 15 -39 0 -56 4 -60 15 -5 11 -21
15 -60 15 -39 0 -56 4 -60 15 -5 11 -23 15 -75 15 -53 0 -71 4 -75 15 -5 11
-21 15 -60 15 -35 0 -56 5 -61 14 -4 8 -25 16 -46 18 -64 5 -47 23 26 26 53 2
68 0 73 -13 4 -10 19 -15 45 -15 26 0 42 -5 45 -15 5 -11 23 -15 75 -15 53 0
71 -4 75 -15 5 -11 23 -15 75 -15 53 0 71 -4 75 -15 5 -11 21 -15 60 -15 39 0
56 -4 60 -15 4 -10 20 -15 45 -15 26 0 42 -5 45 -15 5 -11 23 -15 75 -15 53 0
71 -4 75 -15 5 -11 20 -15 56 -14 27 1 54 -3 60 -9 7 -7 28 -12 48 -12 19 0
48 -7 64 -15 15 -8 42 -15 60 -15 17 0 43 -7 58 -14 16 -8 49 -18 75 -22 27
-3 53 -10 58 -14 17 -13 95 -23 95 -12 0 5 -18 12 -40 16 -23 3 -43 13 -46 21
-4 9 -20 15 -43 15 -20 0 -45 7 -55 15 -12 9 -42 15 -78 15 -43 0 -60 4 -64
15 -5 11 -21 15 -60 15 -39 0 -56 4 -60 15 -5 11 -21 15 -60 15 -39 0 -56 4
-60 15 -4 10 -20 15 -45 15 -26 0 -42 5 -45 15 -5 11 -23 15 -75 15 -49 0 -70
4 -76 14 -5 9 -28 16 -61 18 -84 5 -66 23 26 26 67 2 83 0 88 -13 5 -11 21
-15 60 -15 39 0 56 -4 60 -15 4 -11 21 -15 59 -15 34 0 57 -5 65 -15 8 -10 30
-15 62 -15 34 0 50 -4 54 -15 5 -11 23 -15 75 -15 53 0 70 -4 77 -16 7 -12 17
-15 36 -10 33 8 34 26 1 26 -14 0 -28 7 -31 15 -4 11 -21 15 -59 15 -34 0 -57
5 -65 15 -8 10 -30 15 -62 15 -34 0 -50 4 -54 15 -5 11 -23 15 -74 15 -48 0
-71 4 -80 15 -8 9 -30 15 -60 15 -30 0 -52 6 -60 15 -7 8 -28 15 -47 15 -21 0
-36 6 -39 15 -5 12 -25 15 -89 15 -61 0 -86 4 -95 15 -8 10 -30 15 -62 15 -51
0 -67 13 -54 46 6 16 8 16 24 0 14 -12 38 -16 94 -16 55 0 79 -4 88 -15 16
-19 94 -21 88 -2 -3 6 -21 13 -41 15 -19 2 -41 10 -47 18 -8 8 -31 14 -60 14
-30 0 -52 6 -60 15 -8 10 -31 15 -65 15 -38 0 -55 4 -59 15 -3 9 -18 15 -39
15 -43 0 -51 -9 -31 -31 9 -10 14 -26 12 -36 -4 -25 -98 -32 -118 -8 -7 8 -27
15 -44 15 -33 0 -83 39 -69 53 11 12 40 7 53 -8 9 -11 27 -15 62 -13 55 3 65
22 14 26 -19 2 -40 10 -46 18 -17 20 -98 18 -122 -3 -17 -15 -18 -15 -18 3 0
22 -58 84 -78 84 -9 0 -12 34 -11 128 1 70 3 119 6 110 4 -15 16 -18 74 -18
49 0 75 -5 85 -15 10 -9 34 -15 65 -15 37 0 49 -4 49 -15 0 -12 15 -15 75 -15
41 0 75 -4 75 -9 0 -14 37 -23 60 -16 11 3 20 15 20 26 0 14 -7 19 -29 19 -16
0 -31 6 -35 15 -4 11 -22 15 -76 15 -56 0 -70 3 -70 15 0 11 -12 15 -45 15
-33 0 -45 4 -45 15 0 12 -17 15 -87 15 -113 1 -123 8 -123 89 0 48 -3 61 -15
61 -21 0 -19 26 5 50 14 14 33 20 64 20 26 0 51 6 60 15 8 8 19 15 25 15 6 0
11 7 11 15 0 12 18 15 105 15 87 0 105 3 105 15 0 10 10 15 30 15 21 0 30 5
30 16 0 14 1 14 16 0 11 -11 35 -16 80 -16 50 0 64 -3 64 -15 0 -10 10 -15 30
-15 23 0 30 -4 30 -20 0 -18 -7 -20 -60 -20 -47 0 -60 -3 -60 -15 0 -12 -18
-15 -105 -15 -87 0 -105 -3 -105 -15 0 -10 -10 -15 -29 -15 -20 0 -31 -6 -34
-17 -4 -17 -5 -17 -6 0 -1 14 -11 17 -71 17 -68 0 -70 -1 -70 -24 0 -20 6 -25
33 -29 17 -2 -3 -5 -45 -5 -76 -2 -78 -3 -78 -27 0 -24 2 -25 75 -25 60 0 75
-3 75 -15 0 -10 10 -15 30 -15 20 0 30 -5 30 -15 0 -12 13 -15 60 -15 47 0 60
-3 60 -15 0 -12 14 -15 70 -15 67 0 70 1 70 24 0 15 -7 26 -17 29 -10 3 24 5
75 6 90 1 92 1 92 25 0 15 -7 26 -17 29 -10 3 4 5 30 6 44 1 48 3 45 24 -3 19
-10 22 -55 25 -43 2 -53 0 -53 -12 0 -13 -14 -16 -75 -16 l-75 0 0 -30 0 -30
-80 0 c-63 0 -80 3 -80 14 0 11 -14 16 -47 19 -27 2 -7 4 45 5 90 2 92 2 92
26 0 15 -7 26 -17 29 -10 3 -2 5 18 6 24 1 39 -4 43 -14 4 -11 22 -15 71 -15
l65 0 0 30 0 30 90 0 c73 0 90 3 90 15 0 12 18 15 105 15 87 0 105 3 105 15 0
12 16 15 80 15 77 0 80 -1 79 -22 -1 -17 -2 -19 -6 -5 -4 14 -16 17 -74 17
l-69 0 0 -30 0 -30 -75 0 c-73 0 -75 -1 -75 -24 0 -15 7 -26 18 -29 13 -4 11
-5 -5 -6 -15 -1 -23 5 -23 15 0 12 -9 14 -37 12 -31 -2 -39 -7 -41 -25 -3 -20
1 -23 27 -23 21 0 31 -5 31 -15 0 -11 11 -15 40 -15 29 0 40 4 40 15 0 11 13
15 55 15 41 0 56 4 64 18 10 16 10 16 11 0 0 -12 8 -18 25 -18 20 0 25 5 25
24 0 15 -7 26 -17 29 -10 3 19 5 65 6 65 1 82 -2 82 -13 0 -9 13 -16 33 -19
17 -2 -3 -5 -45 -5 -76 -2 -78 -3 -78 -27 0 -24 3 -25 60 -25 47 0 60 -3 60
-15 0 -9 9 -15 25 -15 21 0 25 5 25 30 l0 30 80 0 c64 0 80 -3 80 -15 0 -10
10 -15 30 -15 20 0 30 -5 30 -15 0 -11 12 -15 45 -15 33 0 45 -4 45 -15 0 -11
11 -15 40 -15 36 0 40 3 40 25 0 16 -6 25 -15 25 -8 0 -15 7 -15 15 0 10 -16
15 -62 18 l-63 3 63 2 c59 2 62 3 62 27 0 21 -5 25 -30 25 -25 0 -30 4 -29 23
1 16 2 18 6 5 4 -15 16 -18 69 -18 l64 0 0 40 0 40 -70 0 c-54 0 -70 3 -70 14
0 8 -8 17 -17 19 -10 3 6 5 35 6 40 1 52 -2 52 -14 0 -10 11 -15 35 -15 30 0
35 3 35 24 0 13 -6 27 -12 29 -10 4 -10 6 0 6 7 1 12 15 12 37 0 26 -7 43 -26
60 l-25 24 25 0 c25 0 26 3 26 55 0 51 -2 55 -24 55 -13 0 -26 6 -29 14 -3 8
-18 16 -34 19 -15 2 -2 5 30 6 l57 1 0 3140 0 3140 -6000 0 -6000 0 0 -3110z
m9570 2759 c53 -12 87 -40 95 -81 12 -52 -4 -58 -141 -58 -122 0 -124 0 -130
24 -12 49 -101 105 -119 75 -5 -7 6 -24 30 -43 34 -29 37 -35 30 -66 -8 -39
-43 -107 -129 -250 -64 -108 -61 -102 -118 -194 -24 -37 -49 -78 -56 -90 -15
-24 -30 -48 -87 -135 -148 -227 -195 -301 -266 -416 -95 -156 -93 -153 -146
-237 -24 -37 -43 -70 -43 -73 0 -3 -12 -24 -27 -48 -40 -61 -51 -80 -62 -102
-5 -11 -21 -37 -35 -58 -14 -21 -26 -40 -26 -42 0 -2 -74 -129 -165 -281 -91
-152 -165 -278 -165 -280 0 -1 -13 -23 -30 -47 -16 -25 -30 -47 -30 -50 0 -3
-48 -86 -106 -184 -59 -98 -126 -215 -151 -260 -24 -46 -75 -135 -113 -199
l-68 -115 -78 98 c-87 108 -248 274 -364 374 -41 35 -84 72 -95 82 -99 91
-307 226 -410 267 -33 13 -68 31 -78 39 -18 15 -17 17 11 41 17 14 86 72 153
130 68 57 187 159 264 225 78 66 163 138 189 160 27 22 54 45 60 50 6 6 49 42
96 82 47 39 94 80 105 90 11 10 45 38 75 63 30 25 57 47 60 51 3 3 64 54 135
114 72 60 132 112 135 115 3 3 77 67 165 140 88 74 162 137 165 140 3 4 79 69
170 145 91 76 181 152 201 169 19 17 57 49 84 71 49 40 196 165 205 175 3 3
37 31 75 62 39 31 79 65 90 75 11 10 45 38 75 63 67 55 88 72 120 101 53 46
108 73 170 84 83 16 222 17 280 4z m-3150 -2408 c41 -7 79 -17 84 -22 6 -5 18
-9 27 -9 33 0 239 -119 314 -181 11 -9 63 -52 115 -95 103 -85 351 -328 391
-383 155 -214 230 -246 574 -246 193 0 201 1 232 23 18 13 36 34 39 48 3 13
10 24 15 24 5 0 9 5 9 11 0 14 42 102 52 109 3 3 10 18 13 33 4 15 11 27 15
27 5 0 11 14 15 30 4 17 11 30 16 30 5 0 9 5 9 12 0 6 50 112 111 236 l111
224 47 -6 c25 -4 86 -11 134 -16 132 -15 309 -75 405 -138 55 -36 163 -153
208 -224 37 -59 94 -171 94 -186 0 -7 4 -20 10 -30 20 -37 50 -157 50 -204 0
-70 37 -127 83 -128 10 0 15 -5 12 -10 -10 -16 6 -99 21 -115 19 -19 48 -8 38
14 -4 9 -9 31 -12 49 -3 24 0 32 11 32 9 0 18 -4 21 -9 3 -5 23 -12 43 -16 21
-4 43 -10 48 -15 6 -4 22 -10 37 -14 15 -3 56 -20 91 -36 36 -17 70 -30 75
-30 6 0 12 -3 14 -7 2 -5 24 -19 51 -33 72 -37 71 -38 -83 -64 -97 -16 -163
-32 -188 -45 -9 -5 -35 -18 -57 -29 -151 -73 -199 -106 -303 -206 -93 -90
-190 -220 -234 -316 -53 -113 -59 -131 -91 -280 l-12 -55 -46 -2 c-25 -1 -50
2 -56 5 -6 4 -17 45 -26 92 -22 124 -29 146 -82 256 -138 289 -393 504 -695
588 -137 38 -386 45 -505 15 -22 -6 -59 -14 -82 -19 -23 -5 -50 -14 -60 -19
-10 -5 -53 -26 -97 -46 -264 -123 -472 -355 -564 -630 -16 -49 -35 -116 -42
-147 -10 -49 -15 -58 -33 -59 -12 0 -96 -4 -187 -10 -91 -5 -273 -16 -405 -24
-132 -8 -334 -19 -450 -24 -115 -6 -257 -15 -315 -20 -58 -6 -179 -13 -270
-16 -91 -4 -201 -10 -245 -15 -44 -5 -154 -12 -245 -15 -91 -4 -190 -10 -220
-15 -30 -5 -145 -12 -255 -15 -110 -4 -225 -10 -255 -15 -30 -5 -124 -12 -207
-15 -136 -6 -153 -5 -153 9 0 9 3 16 8 16 4 0 18 17 32 37 14 21 35 49 46 63
12 14 41 48 64 75 161 192 242 274 335 343 39 28 75 55 80 59 6 5 27 19 47 33
30 20 41 37 58 90 12 36 28 79 36 97 8 17 14 36 14 42 0 6 4 19 10 29 5 9 19
40 31 67 20 48 62 140 97 215 10 19 23 41 30 48 6 7 12 17 12 22 0 12 95 169
146 241 96 137 190 253 285 350 228 232 332 311 575 434 230 117 356 144 654
141 113 -1 239 -8 280 -15z m1675 -1461 c205 -52 395 -178 513 -338 130 -176
181 -328 182 -540 0 -204 -42 -347 -154 -521 -41 -64 -182 -203 -251 -247 -93
-59 -114 -70 -215 -102 -242 -78 -456 -63 -690 50 -125 60 -226 145 -333 278
-38 48 -121 221 -143 300 -28 98 -26 377 3 475 73 247 242 454 458 564 53 26
143 58 255 90 47 14 313 7 375 -9z m2291 -54 c146 -39 286 -116 396 -218 131
-122 229 -304 263 -488 25 -136 26 -165 11 -272 -32 -226 -117 -396 -276 -548
-263 -253 -666 -319 -998 -164 -246 116 -424 329 -494 593 -30 116 -30 336 0
451 53 196 170 371 331 494 102 77 272 150 396 170 66 10 311 -2 371 -18z
m-3581 -949 c7 -112 53 -272 110 -382 69 -133 112 -193 206 -285 84 -82 104
-99 186 -152 194 -124 375 -173 608 -165 223 8 340 41 520 146 33 19 62 37 65
40 3 4 24 19 47 34 88 60 242 245 301 362 66 131 94 219 121 390 6 37 8 40 41
43 19 1 41 -1 48 -6 6 -5 17 -46 23 -91 30 -247 131 -446 318 -631 121 -120
208 -178 375 -251 83 -36 234 -185 318 -315 39 -60 95 -174 104 -211 4 -15 10
-33 15 -38 14 -18 24 -177 19 -290 l-5 -110 -135 -11 c-515 -44 -708 -53
-1115 -53 -434 0 -725 16 -880 50 -27 5 -81 14 -120 19 -38 5 -106 16 -150 24
-44 9 -125 23 -180 31 -165 25 -357 64 -440 89 -27 8 -75 22 -106 30 -31 8
-81 27 -112 41 -31 14 -60 25 -65 25 -5 0 -36 12 -68 26 -40 18 -85 28 -143
32 l-84 7 26 31 c23 28 25 33 12 44 -12 10 -20 9 -42 -5 -87 -55 -123 -120
-123 -222 0 -37 6 -79 13 -93 63 -117 95 -160 119 -160 14 0 16 6 11 32 l-6
32 30 -22 c16 -11 36 -28 43 -37 7 -8 19 -15 26 -15 8 0 14 -3 14 -7 0 -5 17
-19 38 -33 20 -14 41 -30 45 -37 4 -7 14 -13 22 -13 7 0 15 -3 17 -7 5 -11 66
-53 77 -53 5 0 11 -3 13 -7 5 -12 66 -53 78 -53 5 0 10 -4 10 -9 0 -5 10 -13
23 -17 12 -4 24 -10 27 -13 9 -12 127 -81 139 -81 6 0 11 -4 11 -9 0 -4 21
-16 48 -26 26 -10 95 -42 153 -71 58 -29 150 -71 205 -94 54 -23 119 -51 144
-62 25 -11 63 -26 85 -33 22 -7 65 -23 95 -34 53 -19 75 -26 200 -55 30 -8 62
-16 70 -20 8 -3 42 -10 75 -15 33 -5 110 -19 170 -30 135 -24 480 -36 640 -22
190 18 367 46 535 85 89 21 120 20 121 -1 0 -11 3 -13 6 -5 5 13 63 47 63 37
0 -3 -11 -16 -25 -29 -14 -13 -25 -29 -25 -36 0 -7 -42 -55 -92 -107 -142
-146 -311 -283 -488 -397 -41 -27 -87 -57 -102 -67 -15 -11 -30 -19 -34 -19
-4 0 -21 -10 -38 -23 -27 -21 -89 -59 -209 -131 -73 -43 -273 -138 -422 -200
-200 -83 -209 -88 -213 -108 -2 -12 5 -19 25 -23 121 -26 213 -66 281 -124 35
-28 55 -38 70 -35 l20 6 -19 -40 c-31 -61 -220 -238 -360 -336 -84 -59 -282
-177 -341 -204 -27 -12 -67 -31 -90 -41 -146 -67 -295 -115 -453 -147 -243
-50 -318 -59 -595 -75 -187 -11 -255 -10 -515 4 -165 10 -331 22 -370 27 -38
5 -115 14 -170 21 -55 6 -134 15 -175 20 -75 8 -212 34 -345 64 -38 9 -88 19
-110 24 -22 4 -56 13 -75 19 -19 6 -89 28 -155 48 -66 20 -124 41 -129 45 -6
5 -17 9 -27 9 -18 0 -69 36 -69 49 0 4 10 13 23 19 32 17 56 34 88 62 15 14
45 38 66 53 21 15 59 43 85 62 26 19 52 35 57 35 6 0 11 4 11 10 0 5 12 13 27
16 15 4 36 17 47 28 24 24 82 66 91 66 4 0 25 13 48 28 59 39 70 45 182 101
115 57 169 81 182 81 4 0 39 15 77 34 l68 34 -41 7 c-22 4 -43 11 -47 16 -3 5
-14 9 -24 9 -25 0 -120 41 -120 52 0 4 -6 8 -13 8 -8 0 -27 16 -43 36 -16 20
-38 46 -49 58 -16 17 -20 34 -19 96 1 63 6 84 30 130 34 66 94 150 106 150 4
0 8 7 8 15 0 8 7 15 15 15 8 0 15 7 15 15 0 8 7 15 15 15 8 0 15 7 15 15 0 8
7 15 15 15 8 0 15 7 15 15 0 8 7 15 15 15 8 0 15 7 15 15 0 8 7 15 15 15 8 0
15 5 15 10 0 6 -7 10 -15 10 -8 0 -15 5 -15 10 0 6 -7 10 -15 10 -8 0 -16 8
-16 18 -1 16 -2 16 -6 0 -3 -12 -14 -18 -34 -18 -19 0 -29 -5 -29 -15 0 -12
-13 -15 -55 -15 -38 0 -55 4 -55 13 0 22 22 37 55 37 24 0 41 11 77 48 54 56
78 102 78 150 0 80 -64 152 -135 152 -38 0 -100 -43 -148 -103 -28 -34 -31
-43 -29 -108 1 -49 6 -77 17 -88 8 -10 15 -25 15 -34 0 -9 7 -17 15 -17 9 0
15 -9 15 -25 0 -16 -6 -25 -15 -25 -8 0 -15 -7 -15 -15 0 -9 -9 -15 -25 -15
-20 0 -25 5 -25 24 0 15 7 26 18 29 9 3 2 5 -15 6 -24 1 -33 6 -34 19 -1 16
-2 16 -6 0 -3 -11 -14 -18 -29 -18 -19 0 -24 5 -24 24 0 15 7 26 18 29 13 4
11 5 -5 6 -14 1 -23 -5 -23 -14 0 -11 -11 -15 -40 -15 -38 0 -40 2 -42 33 l-1
32 -4 -32 c-4 -27 -9 -33 -29 -33 -16 0 -24 6 -25 18 -1 16 -2 16 -6 0 -2 -10
-11 -18 -19 -18 -8 0 -14 -7 -14 -15 0 -9 -9 -15 -25 -15 -20 0 -25 5 -25 25
0 17 6 25 18 26 15 1 15 2 0 6 -10 2 -18 17 -21 36 -3 24 -4 20 -5 -15 -2 -44
-4 -48 -27 -48 -16 0 -25 6 -25 15 0 9 -9 15 -22 14 -17 -1 -19 -2 -5 -6 10
-3 17 -14 17 -29 0 -19 -5 -24 -25 -24 -16 0 -25 6 -25 15 0 8 -7 15 -15 15
-22 0 -20 50 3 51 16 1 16 2 0 6 -10 2 -18 11 -18 19 0 10 -13 14 -44 14 -34
0 -46 4 -49 18 -3 9 -5 2 -6 -15 -1 -28 -5 -33 -26 -33 -24 0 -24 1 -20 76 4
60 2 82 -12 105 -21 36 -71 69 -103 69 -33 0 -82 -34 -104 -71 -15 -25 -17
-43 -12 -90 6 -58 5 -59 -19 -59 -17 0 -25 6 -26 18 -1 16 -2 16 -6 0 -3 -11
-14 -18 -29 -18 -19 0 -24 5 -24 24 0 15 7 26 18 29 13 4 11 5 -5 6 -19 1 -23
-4 -23 -29 0 -25 -4 -30 -25 -30 -23 0 -25 4 -26 48 -1 26 -3 39 -6 30 -3 -12
-15 -18 -36 -19 -18 -1 -24 -3 -14 -6 9 -2 17 -11 17 -19 0 -8 7 -14 15 -14 9
0 15 -9 15 -25 0 -20 -5 -25 -25 -25 -16 0 -25 6 -25 15 0 8 -7 15 -15 15 -8
0 -15 7 -15 15 0 8 -7 15 -15 15 -8 0 -16 8 -16 18 -1 16 -2 16 -6 0 -6 -22
-53 -25 -53 -3 0 10 -10 15 -30 15 -21 0 -30 5 -31 18 -1 16 -2 16 -6 0 -6
-22 -53 -25 -53 -3 0 11 -10 15 -37 14 -21 -1 -30 -3 -20 -6 10 -3 17 -14 17
-29 0 -19 -5 -24 -25 -24 -16 0 -25 6 -25 15 0 8 -9 15 -20 15 -11 0 -20 -7
-20 -15 0 -9 -9 -15 -25 -15 -16 0 -25 6 -25 15 0 8 -6 15 -14 15 -8 0 -17 8
-19 18 -4 13 -5 11 -6 -5 -1 -14 5 -23 14 -23 11 0 15 -12 15 -45 0 -34 4 -45
16 -45 14 0 15 -21 12 -177 -2 -136 -7 -184 -18 -203 -27 -44 -63 -80 -82 -80
-10 0 -21 -7 -24 -15 -4 -8 -18 -15 -34 -15 -16 0 -30 -5 -32 -12 -4 -12 -91
71 -109 105 -8 13 -6 19 8 23 10 3 26 10 35 15 10 5 23 9 30 9 19 0 78 62 78
81 0 10 5 21 10 24 13 8 13 112 0 120 -5 3 -10 15 -10 27 0 11 -6 32 -14 46
-8 15 -17 34 -20 42 -4 8 -17 35 -31 59 -14 24 -25 50 -25 58 0 15 -40 94 -52
103 -4 3 -6 78 -5 165 2 179 3 175 -80 287 -43 56 -111 118 -132 118 -6 0 -11
4 -11 10 0 5 -11 12 -25 16 -14 3 -25 10 -25 15 0 5 -18 12 -40 15 -22 4 -43
11 -46 16 -23 36 -43 440 -33 658 7 152 31 390 43 420 3 8 10 42 15 75 18 108
58 284 84 365 14 43 24 69 53 137 8 17 14 37 14 45 0 8 4 18 9 24 5 5 26 49
47 99 21 49 57 126 79 170 l41 80 94 7 c160 13 604 39 815 48 110 5 232 12
270 15 87 8 520 32 800 45 116 5 237 11 270 14 58 4 503 31 755 45 69 4 174 7
233 7 l108 -1 4 -58z m-85 -1702 c7 -8 29 -15 50 -15 24 0 40 -5 44 -15 3 -9
18 -15 40 -15 21 0 36 -6 40 -15 3 -9 18 -15 35 -15 16 0 31 -5 33 -10 2 -6
21 -13 43 -17 22 -3 43 -10 46 -16 4 -5 28 -12 55 -15 27 -3 55 -11 62 -19 7
-7 31 -13 52 -13 24 0 40 -5 44 -15 4 -11 22 -15 69 -15 35 0 68 -5 75 -12 6
-6 47 -13 91 -16 51 -3 85 -10 92 -18 8 -10 35 -14 84 -14 45 0 84 -6 101 -15
16 -8 54 -15 84 -15 31 0 61 -5 67 -11 6 -6 51 -13 100 -16 48 -3 94 -11 102
-17 8 -7 74 -12 165 -14 118 -3 155 -7 168 -19 12 -10 28 -14 47 -10 24 5 32
1 45 -18 9 -13 16 -31 16 -39 0 -13 -3 -13 -27 0 -36 18 -67 18 -83 -1 -9 -11
-35 -15 -105 -15 -70 0 -96 -4 -105 -15 -10 -12 -47 -15 -210 -15 -163 0 -200
3 -210 15 -8 9 -30 15 -57 15 -26 0 -51 6 -59 15 -9 8 -28 15 -44 15 -15 0
-41 7 -56 15 -16 8 -41 15 -55 15 -15 0 -29 7 -33 15 -4 11 -20 15 -55 15 -34
0 -51 4 -55 15 -3 8 -17 15 -31 15 -15 0 -33 7 -41 15 -9 8 -27 15 -42 15 -15
0 -36 7 -46 15 -11 8 -31 15 -44 15 -13 0 -30 7 -38 15 -9 8 -26 15 -39 15
-12 0 -25 7 -29 15 -3 9 -18 15 -40 15 -21 0 -36 6 -40 15 -3 9 -18 15 -36 15
-16 0 -30 4 -30 10 0 5 -12 13 -27 16 -15 4 -34 13 -41 21 -7 7 -27 13 -43 13
-19 0 -29 5 -29 15 0 10 -10 15 -29 15 -16 0 -31 6 -35 15 -7 20 -65 20 -72 0
-8 -20 36 -65 64 -65 13 0 22 -6 22 -15 0 -8 9 -15 20 -15 11 0 20 -4 20 -10
0 -5 11 -12 25 -16 13 -3 29 -12 36 -20 6 -8 19 -14 29 -14 10 0 23 -7 30 -15
7 -8 21 -15 32 -15 11 0 26 -7 34 -15 9 -8 24 -15 35 -15 10 0 19 -4 19 -10 0
-5 12 -13 27 -16 15 -4 34 -13 41 -21 7 -7 26 -13 42 -13 16 0 30 -7 34 -15 3
-8 15 -15 26 -15 12 0 28 -7 36 -15 9 -8 24 -15 35 -15 11 0 27 -7 35 -15 9
-8 27 -15 40 -15 14 0 32 -7 40 -15 9 -8 26 -15 39 -15 12 0 25 -7 29 -15 3
-9 18 -15 36 -15 17 0 38 -7 46 -15 9 -8 29 -15 45 -15 17 0 37 -7 45 -15 9
-8 29 -15 45 -15 17 0 37 -7 45 -15 9 -8 30 -15 48 -15 19 0 39 -7 46 -15 8
-9 30 -15 57 -15 26 0 51 -6 59 -15 9 -9 34 -15 60 -15 27 0 52 -6 60 -15 9
-8 33 -15 54 -15 21 0 40 -5 42 -12 2 -6 37 -13 86 -16 52 -3 86 -10 93 -18 8
-10 38 -14 103 -14 60 0 96 -4 104 -12 10 -10 100 -14 362 -16 291 -2 355 0
382 12 18 8 72 16 121 18 48 3 93 10 99 16 7 7 33 12 59 12 29 0 51 6 59 15 8
10 30 15 61 15 29 0 53 6 63 15 8 8 28 15 45 15 16 0 36 7 45 15 8 8 26 15 40
15 13 0 31 7 40 15 8 8 26 15 41 15 14 0 28 7 31 15 4 8 14 15 24 15 10 0 23
7 30 15 7 8 20 15 30 15 10 0 23 7 30 15 7 8 20 15 30 15 10 0 23 6 29 14 7 8
23 17 36 20 14 4 25 11 25 16 0 6 6 10 14 10 18 0 49 48 42 66 -7 19 -52 18
-60 -1 -3 -8 -14 -15 -24 -15 -11 0 -25 -7 -32 -15 -7 -8 -20 -15 -30 -15 -10
0 -23 -7 -30 -15 -10 -12 -38 -15 -135 -15 -97 0 -125 -3 -135 -15 -7 -8 -27
-15 -45 -15 -18 0 -38 -7 -45 -15 -7 -8 -27 -15 -44 -15 -36 0 -56 -15 -56
-42 0 -16 -11 -18 -124 -18 -98 0 -126 3 -136 15 -7 8 -27 15 -45 15 -18 0
-38 7 -45 15 -7 8 -20 15 -30 15 -10 0 -23 7 -30 15 -7 8 -20 15 -30 15 -10 0
-23 7 -30 15 -7 8 -20 15 -30 15 -10 0 -23 7 -30 15 -9 11 -33 15 -91 15 -43
0 -81 5 -84 10 -3 6 -39 10 -80 10 -41 0 -77 -4 -80 -10 -3 -5 -36 -10 -73
-10 -56 0 -69 3 -80 20 -12 20 -9 20 370 22 211 2 408 3 439 3 32 1 63 6 71
12 8 7 83 13 210 15 141 2 201 7 210 16 9 9 62 12 195 12 l183 0 0 -64 c0 -48
-4 -65 -15 -70 -8 -3 -15 -16 -15 -29 0 -14 -7 -30 -15 -37 -8 -7 -15 -20 -15
-29 0 -9 -14 -31 -30 -50 -17 -18 -30 -40 -30 -47 0 -8 -7 -14 -15 -14 -8 0
-15 -7 -15 -15 0 -8 -7 -15 -15 -15 -8 0 -15 -7 -15 -15 0 -8 -7 -15 -15 -15
-8 0 -15 -7 -15 -15 0 -9 -9 -15 -25 -15 -14 0 -28 -7 -31 -15 -4 -8 -14 -15
-23 -15 -9 0 -22 -5 -27 -10 -6 -6 -45 -13 -87 -15 -42 -2 -85 -8 -94 -14 -10
-5 -45 -12 -78 -16 -33 -4 -68 -12 -77 -16 -19 -10 -144 -35 -253 -51 -38 -5
-74 -14 -79 -19 -6 -5 -17 -3 -26 6 -15 14 -18 14 -30 0 -7 -8 -28 -15 -49
-15 -20 0 -49 -7 -65 -15 -42 -22 -558 -22 -576 0 -9 11 -35 15 -105 15 -70 0
-96 4 -105 15 -9 11 -35 16 -94 17 -58 1 -67 3 -31 5 64 5 75 16 75 69 0 34
-4 44 -16 44 -13 0 -14 3 -4 15 29 34 -21 62 -54 30 -8 -8 -26 -15 -40 -15
-14 0 -26 -5 -26 -11 0 -6 -7 -17 -15 -25 -21 -22 -19 -51 5 -64 11 -6 18 -15
15 -19 -7 -13 -98 -1 -116 15 -8 8 -29 14 -46 14 -17 0 -36 7 -43 15 -8 9 -30
15 -60 15 -30 0 -52 6 -60 15 -7 8 -27 15 -45 15 -18 0 -38 7 -45 15 -7 8 -27
15 -45 15 -18 0 -38 7 -45 15 -7 8 -20 15 -30 15 -10 0 -23 7 -30 15 -7 8 -27
15 -45 15 -18 0 -38 7 -45 15 -7 8 -20 15 -30 15 -10 0 -23 7 -30 15 -7 8 -20
15 -30 15 -10 0 -23 7 -30 15 -7 8 -20 15 -30 15 -10 0 -23 7 -30 15 -7 8 -20
15 -30 15 -10 0 -23 7 -30 15 -7 8 -20 15 -30 15 -10 0 -23 7 -30 15 -7 8 -20
15 -30 15 -10 0 -20 7 -24 15 -3 8 -17 15 -31 15 -16 0 -25 6 -25 15 0 8 -9
15 -20 15 -11 0 -20 4 -20 10 0 5 -11 12 -25 16 -13 3 -29 12 -36 20 -6 8 -20
14 -30 14 -11 0 -19 7 -19 15 0 8 -6 15 -14 15 -7 0 -19 7 -26 15 -7 8 -21 15
-31 15 -11 0 -19 7 -19 15 0 8 -7 15 -15 15 -8 0 -15 7 -15 15 0 8 -6 15 -14
15 -7 0 -19 7 -26 15 -7 8 -21 15 -31 15 -11 0 -19 7 -19 15 0 8 -7 15 -15 15
-8 0 -15 7 -15 15 0 8 -6 15 -13 15 -19 0 -64 49 -87 95 -24 47 -25 65 -5 65
8 0 15 7 15 15 0 10 10 15 34 15 18 0 39 -7 46 -15z m-3445 -1567 c47 -95 58
-113 67 -116 4 -2 8 -10 8 -18 0 -17 70 -114 82 -114 4 0 8 -6 8 -13 0 -19
-131 -10 -146 11 -17 23 -23 3 -25 -82 -1 -42 -5 -78 -9 -81 -4 -2 -28 18 -54
45 l-46 49 0 75 0 76 25 -6 c20 -5 27 -1 34 17 5 13 10 18 10 12 1 -18 38 -16
45 2 9 26 -5 72 -30 96 l-23 22 -13 -29 c-27 -62 -71 -59 -83 6 -7 37 -3 41
68 70 15 7 27 16 27 21 0 5 6 9 14 9 8 0 26 -24 41 -52z"/>
<path d="M3991 7225 c-46 -45 -62 -67 -58 -79 6 -14 15 -9 52 29 68 67 93 61
30 -8 -19 -21 -35 -42 -35 -46 0 -15 54 -45 73 -42 10 1 24 -5 30 -13 9 -13
12 7 12 91 0 157 -8 162 -104 68z"/>
<path d="M7808 6995 c-108 -73 -96 -225 23 -285 51 -27 100 -25 158 5 111 56
122 201 20 274 -36 27 -51 31 -103 31 -49 0 -69 -5 -98 -25z"/>
<path d="M10094 6965 c-17 -8 -45 -30 -62 -49 -107 -122 -25 -307 135 -306 63
1 110 25 150 78 28 37 33 52 33 98 0 142 -131 233 -256 179z"/>
<path d="M8715 5682 c-49 -35 -75 -72 -75 -107 0 -38 23 -31 64 20 47 56 87
61 130 16 16 -16 35 -27 42 -24 44 17 -23 109 -87 119 -27 5 -42 0 -74 -24z"/>
<path d="M9170 5703 c-31 -13 -90 -70 -90 -87 0 -33 25 -35 59 -5 50 43 83 39
133 -16 36 -40 43 -44 56 -31 23 22 8 57 -42 99 -45 37 -87 52 -116 40z"/>
<path d="M8008 2899 c-21 -5 -82 -13 -135 -18 -54 -6 -127 -15 -163 -21 -36
-5 -209 -10 -388 -9 -178 1 -326 -2 -329 -5 -3 -3 -3 -11 0 -19 6 -17 99 -24
398 -34 139 -4 221 -2 255 5 27 7 99 16 159 22 97 9 167 19 243 36 17 3 22 11
20 26 -4 26 -12 28 -60 17z"/>
<path d="M2483 5575 c-11 -31 13 -36 163 -33 141 3 149 4 149 23 0 19 -8 20
-153 23 -132 2 -153 0 -159 -13z"/>
<path d="M10970 5116 c0 -20 6 -25 33 -29 17 -2 -10 -5 -61 -5 -91 -2 -93 -3
-90 -24 2 -19 10 -24 46 -26 28 -2 42 -8 42 -18 0 -11 16 -14 75 -14 58 0 77
-4 81 -15 4 -11 21 -15 56 -15 31 0 55 -6 64 -15 9 -8 30 -15 48 -15 19 0 39
-6 46 -14 6 -8 18 -12 26 -9 19 7 18 43 -1 43 -8 0 -15 7 -15 15 0 11 -12 15
-45 15 -33 0 -45 4 -45 15 0 12 -13 15 -60 15 -45 0 -60 3 -60 14 0 9 -13 16
-32 19 -18 2 9 5 60 5 91 2 92 2 92 27 0 25 -1 25 -90 25 -73 0 -90 3 -90 15
0 11 -11 15 -40 15 -36 0 -40 -3 -40 -24z"/>
<path d="M10923 4953 c-7 -2 -13 -13 -13 -24 0 -16 7 -19 41 -19 23 0 47 -7
55 -15 9 -9 34 -15 60 -15 27 0 52 -6 60 -15 10 -9 34 -15 63 -15 32 0 53 -5
61 -16 13 -15 56 -14 114 3 26 7 5 18 -53 28 -25 4 -51 14 -59 21 -8 8 -34 14
-62 14 -33 0 -50 5 -54 15 -3 10 -19 15 -44 15 -23 0 -45 6 -52 15 -12 15 -89
20 -117 8z"/>
<path d="M11403 4953 c-46 -18 32 -56 141 -69 30 -4 61 -13 67 -20 6 -8 26
-14 44 -14 18 0 45 -6 60 -14 28 -15 112 -15 135 -1 18 11 -7 33 -33 28 -13
-3 -50 5 -82 16 -33 12 -70 21 -83 21 -13 0 -30 7 -38 15 -9 8 -31 15 -50 15
-22 0 -37 6 -40 15 -5 11 -21 15 -58 14 -28 0 -57 -3 -63 -6z"/>
<path d="M11130 4575 c0 -12 14 -15 69 -15 49 0 72 -4 81 -15 7 -8 27 -15 45
-15 18 0 38 -7 45 -15 8 -10 30 -15 62 -15 34 0 50 -4 54 -15 5 -11 23 -15 75
-15 53 0 71 -4 75 -15 4 -10 20 -15 45 -15 26 0 42 -5 45 -15 4 -11 21 -15 58
-15 29 0 59 -7 70 -15 11 -8 39 -15 63 -15 30 0 45 -5 49 -15 7 -17 34 -20 34
-4 0 20 -45 48 -78 49 -20 0 -35 6 -38 15 -4 11 -21 15 -59 15 -34 0 -57 5
-65 15 -8 9 -30 15 -60 15 -30 0 -52 6 -60 15 -9 10 -32 15 -75 15 -43 0 -66
5 -75 15 -7 8 -27 15 -45 15 -18 0 -38 7 -45 15 -8 9 -30 15 -60 15 -30 0 -52
6 -60 15 -9 11 -32 15 -81 15 -55 0 -69 -3 -69 -15z"/>
<path d="M11522 4578 c3 -7 21 -14 41 -16 19 -2 41 -10 47 -18 7 -8 27 -14 45
-14 18 0 38 -7 45 -15 9 -10 32 -15 77 -15 47 0 65 -4 69 -15 4 -9 19 -15 42
-15 19 0 44 -7 54 -16 16 -16 18 -16 24 0 13 33 -3 46 -54 46 -32 0 -54 5 -62
15 -7 8 -27 15 -45 15 -18 0 -38 7 -45 15 -8 9 -30 15 -60 15 -30 0 -52 6 -60
15 -16 19 -124 22 -118 3z"/>
<path d="M30 4094 c0 -15 10 -16 86 -10 91 8 186 -6 215 -31 12 -10 51 -14
138 -15 87 -1 125 -5 132 -15 15 -17 43 -17 58 1 21 25 -27 42 -158 54 -68 6
-129 16 -135 22 -6 6 -73 10 -173 10 -144 0 -163 -2 -163 -16z"/>
<path d="M692 4048 c-7 -7 -12 -20 -12 -29 0 -14 12 -18 63 -23 143 -13 177
-19 188 -32 13 -16 66 -19 88 -5 9 6 22 6 32 1 11 -7 20 -5 28 4 17 20 3 26
-59 26 -42 0 -64 5 -83 20 -15 12 -40 20 -65 20 -21 0 -53 7 -71 16 -29 15
-34 15 -50 0 -15 -14 -19 -14 -32 -1 -12 12 -18 13 -27 3z"/>
<path d="M11956 3245 c-11 -8 -39 -15 -62 -15 -24 0 -46 -4 -49 -10 -3 -5 -13
-10 -22 -10 -8 0 -26 -9 -39 -19 -35 -28 -131 -18 -157 16 -25 31 -95 33 -122
3 -18 -20 -17 -20 12 -20 64 0 123 -13 123 -26 0 -20 157 -20 180 1 9 8 49 17
98 21 l82 7 0 33 c0 37 -13 42 -44 19z"/>
<path d="M11884 3106 c-3 -8 -25 -17 -49 -21 -25 -3 -47 -10 -50 -16 -4 -5
-35 -9 -70 -9 -48 0 -66 -4 -73 -16 -6 -10 -27 -18 -58 -21 -27 -2 -58 -9 -69
-14 -11 -5 -46 -10 -78 -11 -100 -5 -69 -23 45 -26 107 -3 107 -3 135 27 27
27 33 29 126 32 93 4 100 6 122 32 21 23 31 27 80 27 42 0 55 3 55 15 0 21
-108 22 -116 1z"/>
<path d="M10790 2843 c-64 -3 -79 -8 -102 -30 -24 -23 -37 -26 -122 -31 -60
-3 -93 -8 -89 -15 9 -14 219 -3 239 14 10 8 56 14 124 17 60 3 107 8 104 13
-3 5 -13 9 -23 9 -10 0 -24 7 -31 15 -7 8 -15 14 -19 13 -3 -1 -40 -4 -81 -5z"/>
<path d="M9910 1873 c0 -10 15 -61 34 -113 18 -52 49 -140 69 -195 67 -190
116 -366 172 -625 9 -41 21 -91 25 -110 8 -32 28 -133 61 -310 6 -36 15 -96
20 -135 4 -38 12 -117 19 -175 6 -58 14 -129 16 -158 5 -47 8 -52 30 -52 24 0
25 2 20 43 -3 23 -10 87 -16 142 -26 242 -43 351 -96 605 -14 69 -29 143 -34
165 -4 22 -24 105 -45 185 -20 80 -41 161 -45 180 -4 19 -13 49 -19 65 -6 17
-26 77 -46 135 -19 58 -51 150 -71 205 -20 55 -40 115 -45 133 -11 35 -49 47
-49 15z"/>
<path d="M5358 1599 c-22 -12 -23 -42 -2 -127 37 -153 43 -181 58 -255 9 -42
22 -110 31 -150 8 -39 22 -115 30 -167 39 -230 45 -267 49 -300 4 -33 15 -104
36 -230 5 -30 12 -116 15 -190 8 -175 9 -180 41 -180 l25 0 -5 88 c-3 48 -8
161 -11 252 -5 149 -4 163 10 146 8 -11 15 -37 15 -59 0 -38 0 -38 38 -35 l37
3 3 169 c2 112 -1 173 -9 182 -6 7 -8 22 -4 33 3 12 -1 31 -10 45 -9 14 -14
34 -11 44 4 11 0 24 -9 32 -8 7 -15 20 -15 30 0 10 -7 23 -15 30 -8 7 -15 20
-15 30 0 10 -7 23 -15 30 -8 7 -15 21 -15 32 0 10 -13 48 -30 83 -16 35 -30
71 -30 79 0 8 -4 18 -10 21 -5 3 -10 15 -10 25 0 35 -50 120 -71 120 -16 0
-19 7 -19 45 0 27 -5 47 -14 52 -7 4 -15 23 -18 41 l-5 32 90 0 89 0 -23 -19
-24 -19 23 -31 c12 -16 22 -36 22 -44 0 -7 11 -24 25 -37 14 -13 25 -34 25
-47 0 -29 28 -73 46 -73 8 0 14 -7 14 -15 0 -8 7 -15 15 -15 17 0 19 -12 5
-26 -7 -7 0 -20 20 -39 16 -16 30 -36 30 -46 0 -9 6 -22 14 -29 8 -6 16 -21
18 -33 2 -13 13 -23 28 -27 15 -4 26 -15 30 -30 4 -15 15 -26 30 -30 20 -5 26
-14 30 -45 4 -30 10 -41 25 -43 28 -5 63 -40 67 -66 2 -12 12 -22 23 -24 11
-2 34 -17 51 -33 35 -33 44 -30 44 17 0 18 4 35 9 38 5 4 11 -126 13 -311 4
-265 7 -323 20 -348 9 -16 24 -63 34 -102 18 -73 19 -73 53 -73 l34 0 -7 52
c-4 29 -11 57 -17 63 -5 5 -9 17 -9 27 0 9 -9 35 -20 57 -26 49 -38 168 -20
201 l12 23 18 -23 c15 -20 20 -21 40 -10 l24 13 -27 19 c-32 23 -35 48 -8 48
11 0 23 5 27 11 9 15 -34 48 -63 49 -29 0 -31 9 -26 125 3 77 9 110 26 143 24
47 54 63 72 38 7 -9 17 -16 22 -16 6 0 16 -7 23 -15 8 -10 31 -15 70 -15 52 0
58 2 53 19 -3 11 -16 22 -29 25 -13 4 -24 11 -24 16 0 6 -5 10 -11 10 -7 0
-45 34 -86 75 -40 41 -78 75 -83 75 -6 0 -10 7 -10 15 0 8 -6 15 -13 15 -17 0
-66 40 -145 118 -35 34 -67 62 -71 62 -5 0 -24 15 -43 33 -20 17 -55 48 -79
69 -36 30 -41 39 -31 51 17 20 25 18 257 -70 22 -8 56 -21 75 -28 19 -7 55
-21 80 -30 25 -9 63 -24 85 -32 22 -8 55 -21 73 -29 18 -8 40 -14 48 -14 9 0
28 -6 42 -14 30 -15 47 -21 215 -79 65 -23 130 -51 143 -64 21 -19 36 -23 92
-23 37 0 93 -7 124 -15 74 -19 188 -74 229 -111 66 -57 169 -206 169 -244 0
-8 10 -40 21 -70 28 -71 35 -244 17 -390 -12 -97 -15 -105 -35 -108 -16 -2
-23 2 -23 12 0 9 -7 16 -15 16 -8 0 -15 7 -15 15 0 11 -12 15 -45 15 -33 0
-45 4 -45 15 0 12 -13 15 -59 15 -48 0 -60 3 -64 18 -4 16 -5 16 -6 0 -1 -23
-51 -25 -51 -3 0 8 -6 15 -14 15 -9 0 -16 13 -19 33 l-4 32 -1 -32 c-2 -28 -6
-33 -27 -33 -21 0 -25 5 -25 30 0 20 -5 30 -15 30 -8 0 -15 7 -15 15 0 8 -7
15 -15 15 -8 0 -15 7 -15 15 0 8 -7 15 -15 15 -8 0 -15 7 -15 15 0 8 -7 15
-15 15 -22 0 -19 47 3 53 16 4 16 5 0 6 -10 0 -18 8 -18 16 0 8 -7 15 -15 15
-11 0 -15 12 -15 45 0 33 -4 45 -15 45 -10 0 -15 16 -18 63 -2 50 -4 44 -5
-30 -2 -75 -5 -93 -17 -93 -11 0 -15 -12 -15 -45 0 -33 -4 -45 -15 -45 -10 0
-15 -10 -15 -30 0 -20 -5 -30 -15 -30 -8 0 -15 -7 -15 -15 0 -8 -7 -15 -15
-15 -12 0 -15 -14 -15 -65 0 -51 3 -65 15 -65 12 0 15 -14 15 -65 l0 -65 399
0 399 0 7 123 c10 174 3 389 -12 395 -7 2 -13 19 -13 37 0 19 -7 40 -15 49 -8
8 -15 22 -15 30 0 21 -40 96 -51 96 -5 0 -9 11 -9 25 0 14 -7 28 -15 31 -8 4
-15 12 -15 20 0 8 -7 14 -15 14 -8 0 -15 4 -15 10 0 10 -66 80 -76 80 -3 0
-15 11 -27 24 -13 14 -35 28 -49 31 -15 4 -29 13 -32 21 -3 8 -16 14 -30 14
-13 0 -26 7 -30 15 -3 8 -18 15 -33 15 -15 0 -37 7 -47 15 -12 9 -42 15 -73
15 -57 0 -62 4 -36 32 15 16 18 17 33 3 12 -11 24 -13 39 -7 21 7 21 9 7 22
-15 12 -15 15 5 36 20 22 24 23 39 9 15 -14 18 -14 30 0 7 8 23 15 35 15 13 0
26 7 29 16 3 8 11 12 17 8 9 -5 7 -11 -5 -20 -21 -15 -13 -34 13 -34 10 0 24
-7 31 -15 12 -14 15 -14 30 0 21 19 44 19 60 0 16 -19 74 -19 90 0 12 14 15
14 31 -1 22 -20 53 -15 57 11 6 32 22 42 33 22 6 -9 15 -14 21 -11 7 5 5 12
-7 21 -14 9 -16 16 -8 24 17 17 47 6 53 -21 4 -15 15 -26 30 -30 31 -7 39 -46
13 -65 -17 -13 -17 -14 0 -20 21 -9 22 -48 2 -65 -14 -12 -14 -15 0 -30 14
-15 14 -18 0 -30 -14 -12 -14 -15 0 -30 14 -15 14 -18 0 -30 -11 -9 -15 -32
-15 -80 0 -53 -3 -69 -16 -74 -13 -5 -4 -19 44 -68 57 -58 60 -64 45 -80 -14
-16 -14 -18 1 -24 24 -9 44 2 48 28 2 18 10 24 38 26 19 2 43 11 53 19 16 15
18 15 31 -2 8 -12 15 -14 20 -7 3 6 -2 15 -11 21 -17 9 -16 12 10 38 26 26 29
27 38 10 6 -9 15 -14 21 -11 7 5 5 12 -7 21 -18 12 -17 14 9 42 25 26 28 37
32 117 4 102 24 142 24 48 0 -34 6 -68 14 -79 7 -11 15 -52 18 -91 3 -39 9
-78 14 -85 9 -15 27 -112 44 -239 6 -41 14 -88 19 -105 5 -16 12 -78 15 -138
8 -126 17 -157 47 -157 21 0 22 2 15 83 -9 107 -25 238 -38 307 -6 30 -12 71
-15 90 -2 19 -10 71 -18 115 -8 44 -24 134 -35 200 -31 185 -41 236 -55 290
-8 28 -21 79 -31 115 -18 71 -65 230 -96 324 -11 33 -27 66 -36 73 -22 16
-2506 19 -2534 2z"/>
</g>
</svg>
