
<svg xmlns="http://www.w3.org/2000/svg" xmlns:xlink="http://www.w3.org/1999/xlink" width="250px" height="250px" viewBox="0 0 250 250" version="1.1">
<g id="surface1">
<path style=" stroke:none;fill-rule:nonzero;fill:rgb(0%,0%,0%);fill-opacity:1;" d="M 250 125 C 250 194.035156 194.035156 250 125 250 C 55.964844 250 0 194.035156 0 125 C 0 55.964844 55.964844 0 125 0 C 194.035156 0 250 55.964844 250 125 Z M 250 125 "/>
<path style=" stroke:none;fill-rule:nonzero;fill:rgb(100%,100%,100%);fill-opacity:1;" d="M 64.023438 84.324219 C 64.023438 79.410156 63.71875 74.652344 63.265625 69.734375 L 85.234375 69.734375 L 85.992188 79.71875 C 88.453125 76.339844 94.4375 68.046875 109.953125 68.046875 C 127.773438 68.046875 132.839844 78.945312 134.371094 82.636719 C 140.816406 70.195312 151.257812 68.183594 159.25 68.183594 C 174.910156 68.183594 181.21875 77.554688 182.894531 80.621094 C 187.046875 87.378906 186.734375 96.75 186.734375 103.507812 L 186.734375 145.992188 L 163.855469 145.992188 L 163.855469 101.683594 C 163.855469 93.347656 162.621094 84.175781 150.804688 84.175781 C 137.128906 84.175781 136.824219 96.917969 136.824219 108.417969 L 136.824219 145.984375 L 113.9375 145.984375 L 113.9375 101.21875 C 113.9375 95.226562 113.789062 84.175781 101.1875 84.175781 C 86.910156 84.175781 86.910156 96.453125 86.910156 101.683594 L 86.910156 146.007812 L 64.023438 146.007812 Z M 64.023438 84.324219 "/>
<path style=" stroke:none;fill-rule:nonzero;fill:rgb(100%,100%,100%);fill-opacity:1;" d="M 63.257812 163.0625 L 186.742188 163.0625 L 186.742188 181.953125 L 63.257812 181.953125 Z M 63.257812 163.0625 "/>
</g>
</svg>
