<svg height="250" viewBox="0 0 250 250" width="250" xmlns="http://www.w3.org/2000/svg" xmlns:xlink="http://www.w3.org/1999/xlink"><linearGradient id="a"><stop offset="0" stop-color="#4400e2"/><stop offset=".041" stop-color="#7013c5"/><stop offset=".087" stop-color="#9a25aa"/><stop offset=".133" stop-color="#bc3494"/><stop offset=".18" stop-color="#d73f82"/><stop offset=".228" stop-color="#ea4876"/><stop offset=".278" stop-color="#f54c6e"/><stop offset=".33" stop-color="#f94e6c"/><stop offset="1" stop-color="#ffd402"/></linearGradient><linearGradient id="b" gradientTransform="matrix(4.545455 0 0 5.681818 13.636364 28.409091)" gradientUnits="userSpaceOnUse" x1=".226" x2="210.727005" xlink:href="#a" y1="13.636" y2="8.706"/><linearGradient id="c" gradientTransform="matrix(4.545455 0 0 5.681818 13.636364 28.409091)" gradientUnits="userSpaceOnUse" x1=".209" x2="210.710007" xlink:href="#a" y1="12.945" y2="8.015"/><linearGradient id="d" gradientTransform="matrix(4.545455 0 0 5.681818 13.636364 28.409091)" gradientUnits="userSpaceOnUse" x1=".215" x2="210.716003" xlink:href="#a" y1="13.176" y2="8.246"/><linearGradient id="e" gradientTransform="matrix(4.545455 0 0 5.681818 13.636364 28.409091)" gradientUnits="userSpaceOnUse" x1=".221" x2="210.722" xlink:href="#a" y1="13.383" y2="8.453"/><path d="m188.703125 52.109375c-5.289063.019531-9.5625 5.398437-9.542969 12.011719v120.550781c0 6.640625 4.273438 12.011719 9.542969 12.011719 5.292969-.019532 9.570313-5.398438 9.550781-12.011719v-120.550781c.019532-6.613282-4.253906-11.996094-9.542968-12.011719" fill="url(#b)"/><path d="m56.140625 52.109375c-5.289063.015625-9.566406 5.394531-9.550781 12.011719v120.550781c0 6.640625 4.28125 12.011719 9.550781 12.011719 5.292969-.019532 9.566406-5.398438 9.550781-12.011719v-120.550781c.011719-3.179688-.988281-6.230469-2.78125-8.484375-1.789062-2.253907-4.222656-3.527344-6.765625-3.535157" fill="url(#c)"/><path d="m100.335938 77.171875c-5.289063.015625-9.566407 5.390625-9.550782 12.003906v70.4375c0 6.640625 4.277344 12.011719 9.546875 12.011719 5.292969-.015625 9.570313-5.394531 9.554688-12.011719v-70.4375c0-6.625-4.273438-12.003906-9.550781-12.003906" fill="url(#d)"/><path d="m144.53125 97.402344c-5.289062.015625-9.570312 5.394531-9.554688 12.007812v29.714844c0 6.636719 4.28125 12.011719 9.554688 12.011719 5.269531 0 9.546875-5.386719 9.546875-12.011719v-29.714844c.015625-6.609375-4.257813-11.984375-9.546875-12.007812" fill="url(#e)"/></svg>