
<svg xmlns="http://www.w3.org/2000/svg" xmlns:xlink="http://www.w3.org/1999/xlink" width="250px" height="250px" viewBox="0 0 250 250" version="1.1">
<g id="surface1">
<path style=" stroke:none;fill-rule:evenodd;fill:rgb(100%,100%,100%);fill-opacity:1;" d="M 250 125 C 250 194.035156 194.035156 250 125 250 C 55.964844 250 0 194.035156 0 125 C 0 55.964844 55.964844 0 125 0 C 194.035156 0 250 55.964844 250 125 Z M 250 125 "/>
<path style=" stroke:none;fill-rule:nonzero;fill:rgb(16.470589%,66.274512%,87.843138%);fill-opacity:1;" d="M 205.355469 78.355469 C 199.445312 81.042969 193.089844 82.859375 186.421875 83.675781 C 193.226562 79.492188 198.457031 72.867188 200.917969 64.972656 C 194.546875 68.847656 187.488281 71.660156 179.980469 73.175781 C 173.964844 66.605469 165.394531 62.5 155.910156 62.5 C 137.703125 62.5 122.9375 77.636719 122.9375 96.308594 C 122.9375 98.960938 123.230469 101.539062 123.792969 104.015625 C 96.390625 102.605469 72.09375 89.144531 55.832031 68.6875 C 52.992188 73.683594 51.367188 79.488281 51.367188 85.6875 C 51.367188 97.417969 57.1875 107.765625 66.035156 113.828125 C 60.628906 113.652344 55.546875 112.132812 51.101562 109.597656 C 51.097656 109.738281 51.097656 109.882812 51.097656 110.023438 C 51.097656 126.40625 62.464844 140.070312 77.546875 143.175781 C 74.78125 143.949219 71.867188 144.363281 68.859375 144.363281 C 66.734375 144.363281 64.671875 144.152344 62.65625 143.757812 C 66.851562 157.1875 79.03125 166.964844 93.457031 167.234375 C 82.171875 176.304688 67.957031 181.710938 52.507812 181.710938 C 49.847656 181.710938 47.222656 181.550781 44.644531 181.238281 C 59.234375 190.832031 76.566406 196.429688 95.1875 196.429688 C 155.835938 196.429688 189 144.910156 189 100.230469 C 189 98.761719 188.96875 97.304688 188.90625 95.855469 C 195.347656 91.089844 200.9375 85.132812 205.355469 78.355469 Z M 205.355469 78.355469 "/>
</g>
</svg>
