<svg height="250" viewBox="0 0 250 250" width="250" xmlns="http://www.w3.org/2000/svg"><path d="m250 125c0 69.035156-55.964844 125-125 125s-125-55.964844-125-125 55.964844-125 125-125 125 55.964844 125 125zm0 0" fill="#fff" fill-rule="evenodd"/><path d="m205.355469 78.355469c-5.910157 2.6875-12.265625 4.503906-18.933594 5.320312 6.804687-4.183593 12.035156-10.808593 14.496094-18.703125-6.371094 3.875-13.429688 6.6875-20.9375 8.203125-6.015625-6.570312-14.585938-10.675781-24.070313-10.675781-18.207031 0-32.972656 15.136719-32.972656 33.808594 0 2.652344.292969 5.230468.855469 7.707031-27.402344-1.410156-51.699219-14.871094-67.960938-35.328125-2.839843 4.996094-4.464843 10.800781-4.464843 17 0 11.730469 5.820312 22.078125 14.667968 28.140625-5.40625-.175781-10.488281-1.695313-14.933594-4.230469-.003906.140625-.003906.285156-.003906.425782 0 16.382812 11.367188 30.046874 26.449219 33.152343-2.765625.773438-5.679687 1.1875-8.6875 1.1875-2.125 0-4.1875-.210937-6.203125-.605469 4.195312 13.429688 16.375 23.207032 30.800781 23.476563-11.285156 9.070313-25.5 14.476563-40.949219 14.476563-2.660156 0-5.285156-.160157-7.863281-.472657 14.589844 9.59375 31.921875 15.191407 50.542969 15.191407 60.648438 0 93.8125-51.519532 93.8125-96.199219 0-1.46875-.03125-2.925781-.09375-4.375 6.441406-4.765625 12.03125-10.722657 16.449219-17.5zm0 0" fill="#2aa9e0"/></svg>