
<svg xmlns="http://www.w3.org/2000/svg" xmlns:xlink="http://www.w3.org/1999/xlink" width="250px" height="250px" viewBox="0 0 250 250" version="1.1">
<g id="surface1">
<path style=" stroke:none;fill-rule:nonzero;fill:rgb(0%,0%,0%);fill-opacity:1;" d="M 249.484375 124.097656 C 249.484375 191.386719 193.925781 245.9375 125.386719 245.9375 C 56.851562 245.9375 1.289062 191.386719 1.289062 124.097656 C 1.289062 56.804688 56.851562 2.257812 125.386719 2.257812 C 193.925781 2.257812 249.484375 56.804688 249.484375 124.097656 Z M 249.484375 124.097656 "/>
<path style=" stroke:none;fill-rule:nonzero;fill:rgb(100%,100%,100%);fill-opacity:1;" d="M 122.554688 144.453125 C 104.898438 142.925781 92.046875 133.875 91.398438 117.433594 L 115.023438 117.433594 C 115.542969 122.660156 118.140625 125.84375 122.550781 127.25 L 122.550781 107.109375 C 108.660156 103.542969 91.265625 99.71875 91.265625 79.707031 C 91.265625 63.773438 104.898438 54.34375 122.550781 53.195312 L 122.550781 42.871094 L 130.859375 42.871094 L 130.859375 53.195312 C 148.644531 54.597656 160.070312 63.519531 161.238281 79.707031 L 137.480469 79.707031 C 136.964844 74.988281 134.5 72.058594 130.863281 70.785156 L 130.863281 90.539062 C 144.753906 94.363281 162.535156 98.058594 162.535156 117.816406 C 162.535156 131.578125 151.371094 143.691406 130.863281 144.582031 L 130.863281 154.90625 L 122.554688 154.90625 Z M 122.554688 87.863281 L 122.554688 70.144531 C 117.75 70.914062 114.765625 73.714844 114.765625 78.6875 C 114.765625 83.144531 117.878906 85.824219 122.554688 87.863281 Z M 130.859375 109.53125 L 130.859375 127.628906 C 136.054688 126.738281 139.300781 123.296875 139.300781 118.578125 C 139.300781 113.988281 135.921875 111.441406 130.859375 109.53125 Z M 130.859375 109.53125 "/>
<path style=" stroke:none;fill-rule:evenodd;fill:rgb(100%,100%,100%);fill-opacity:1;" d="M 51.847656 170.90625 L 200.300781 170.90625 L 200.300781 192.871094 L 51.847656 192.871094 Z M 51.847656 170.90625 "/>
</g>
</svg>
