<svg height="250" viewBox="0 0 250 250" width="250" xmlns="http://www.w3.org/2000/svg" xmlns:xlink="http://www.w3.org/1999/xlink"><symbol id="a" overflow="visible"><path d="m25.21875.703125c-6.773438 0-11.953125-1.648437-15.546875-4.953125-3.585937-3.300781-5.375-8.019531-5.375-14.15625v-30.734375h10.28125v29.921875c0 3.886719.921875 6.835938 2.765625 8.84375 1.851562 2.011719 4.570312 3.015625 8.15625 3.015625 3.664062 0 6.488281-1.050781 8.46875-3.15625 1.976562-2.101563 2.96875-5.117187 2.96875-9.046875v-29.578125h10.28125v30.203125c0 6.230469-1.929688 11.0625-5.78125 14.5-3.84375 3.429688-9.25 5.140625-16.21875 5.140625zm0 0"/></symbol><symbol id="b" overflow="visible"><path d="m44.84375-14.15625c0 4.8125-1.789062 8.496094-5.359375 11.046875-3.5625 2.542969-8.796875 3.8125-15.703125 3.8125-6.304688 0-11.246094-1.113281-14.828125-3.34375-3.574219-2.238281-5.871094-5.625-6.890625-10.15625l9.9375-1.640625c.675781 2.605469 1.988281 4.496094 3.9375 5.671875 1.945312 1.167969 4.65625 1.75 8.125 1.75 7.1875 0 10.78125-2.179687 10.78125-6.546875 0-1.394531-.417969-2.546875-1.25-3.453125-.824219-.90625-1.984375-1.660156-3.484375-2.265625-1.5-.601562-4.375-1.335938-8.625-2.203125-3.679687-.851563-6.242187-1.539063-7.6875-2.0625-1.4375-.53125-2.742187-1.148437-3.90625-1.859375-1.15625-.707031-2.140625-1.5625-2.953125-2.5625s-1.449219-2.171875-1.90625-3.515625c-.449219-1.351563-.671875-2.898437-.671875-4.640625 0-4.445312 1.664063-7.847656 5-10.203125 3.34375-2.363281 8.195313-3.546875 14.5625-3.546875 6.09375 0 10.664063.953125 13.71875 2.859375 3.0625 1.90625 5.035156 5.058594 5.921875 9.453125l-9.984375 1.359375c-.511719-2.113281-1.554687-3.703125-3.125-4.765625-1.5625-1.070312-3.808594-1.609375-6.734375-1.609375-6.230469 0-9.34375 1.953125-9.34375 5.859375 0 1.28125.328125 2.328125.984375 3.140625.664063.8125 1.648437 1.507813 2.953125 2.078125 1.300781.5625 3.9375 1.277344 7.90625 2.140625 4.71875 1 8.09375 1.929687 10.125 2.78125 2.039062.84375 3.65625 1.828125 4.84375 2.953125s2.09375 2.476562 2.71875 4.046875c.625 1.5625.9375 3.371094.9375 5.421875zm0 0"/></symbol><symbol id="c" overflow="visible"><path d="m52.5625-24.796875c0 5.117187-1.015625 9.617187-3.046875 13.5-2.023437 3.886719-4.917969 6.859375-8.6875 8.921875-3.761719 2.054688-8.152344 3.078125-13.171875 3.078125-7.71875 0-13.773438-2.269531-18.15625-6.8125-4.386719-4.550781-6.578125-10.78125-6.578125-18.6875 0-7.882813 2.1875-14.035156 6.5625-18.453125 4.375-4.414062 10.453125-6.625 18.234375-6.625 7.789062 0 13.878906 2.234375 18.265625 6.703125 4.382813 4.460937 6.578125 10.585937 6.578125 18.375zm-10.5 0c0-5.300781-1.257812-9.457031-3.765625-12.46875-2.511719-3.007813-6.039063-4.515625-10.578125-4.515625-4.605469 0-8.164062 1.496094-10.671875 4.484375-2.511719 2.992187-3.765625 7.15625-3.765625 12.5 0 5.398437 1.285156 9.648437 3.859375 12.75 2.570313 3.105469 6.078125 4.65625 10.515625 4.65625 4.601562 0 8.15625-1.507813 10.65625-4.53125 2.5-3.019531 3.75-7.3125 3.75-12.875zm0 0"/></symbol><path d="m250 125c0 69.035156-55.964844 125-125 125s-125-55.964844-125-125 55.964844-125 125-125 125 55.964844 125 125zm0 0" fill="#fff" fill-rule="evenodd"/><g fill="#121a2f"><use x="56.929688" xlink:href="#a" y="151.787388"/><use x="108.722377" xlink:href="#b" y="151.787388"/><use x="151.586496" xlink:href="#c" y="151.787388"/></g></svg>