<svg height="250" viewBox="0 0 250 250" width="250" xmlns="http://www.w3.org/2000/svg" xmlns:xlink="http://www.w3.org/1999/xlink"><symbol id="a" overflow="visible"><path d="m29.078125 0h-10.421875l-18.171875-49.140625h10.75l10.109375 31.5625c.625 2.054687 1.484375 5.148437 2.578125 9.28125l.734375-3 1.78125-6.28125 10.078125-31.5625h10.640625zm0 0"/></symbol><symbol id="b" overflow="visible"><path d="m4.78125 0v-49.140625h10.28125v49.140625zm0 0"/></symbol><symbol id="c" overflow="visible"><path d="m36.203125 0-12.34375-19.5625-12.34375 19.5625h-10.890625l17.015625-25.84375-15.578125-23.296875h10.875l10.921875 17.375 10.90625-17.375h10.8125l-14.921875 23.296875 16.359375 25.84375zm0 0"/></symbol><symbol id="d" overflow="visible"><path d="m28.984375-20.15625v20.15625h-10.25v-20.15625l-17.515625-28.984375h10.78125l11.78125 20.78125 11.9375-20.78125h10.765625zm0 0"/></symbol><path d="m250 125c0 69.035156-55.964844 125-125 125s-125-55.964844-125-125 55.964844-125 125-125 125 55.964844 125 125zm0 0" fill="#fff" fill-rule="evenodd"/><g fill="#121a2f"><use x="46.929688" xlink:href="#a" y="151.787388"/><use x="89.793806" xlink:href="#b" y="151.787388"/><use x="105.87221" xlink:href="#c" y="151.787388"/><use x="148.736328" xlink:href="#d" y="151.787388"/></g></svg>