<svg height="250" viewBox="0 0 250 250" width="250" xmlns="http://www.w3.org/2000/svg" xmlns:xlink="http://www.w3.org/1999/xlink"><linearGradient id="a" gradientTransform="matrix(.361272 0 0 .690608 -37.574062 -185.773481)" gradientUnits="userSpaceOnUse" x1="450" x2="450" y1="630.159973" y2="242.190002"><stop offset="0" stop-color="#272460"/><stop offset=".21" stop-color="#3a2460"/><stop offset=".62" stop-color="#6a2362"/><stop offset="1" stop-color="#9c2363"/></linearGradient><path d="m247.941406 155.386719-79.589844-153.613281c-.589843-1.132813-1.390624-1.773438-2.226562-1.773438s-1.636719.640625-2.226562 1.773438l-36.214844 69.835937c-.710938 1.367187-1.675782 2.136719-2.683594 2.136719-1.003906 0-1.96875-.769532-2.679688-2.136719l-36.210937-69.820313c-1.242187-2.269531-3.199219-2.269531-4.445313 0l-79.609374 153.597657c-2.667969 5.148437-2.667969 13.441406 0 18.589843l38.492187 74.226563c1.246094 2.273437 3.207031 2.273437 4.453125 0l36.199219-69.832031c.707031-1.367188 1.671875-2.132813 2.679687-2.132813 1.007813 0 1.972656.765625 2.683594 2.132813l36.207031 69.828125c.589844 1.128906 1.390625 1.765625 2.226563 1.765625.832031 0 1.632812-.636719 2.222656-1.765625l36.21875-69.816407c.707031-1.367187 1.671875-2.136718 2.679688-2.136718 1.007812 0 1.972656.769531 2.679687 2.136718l36.203125 69.835938c.585938 1.136719 1.386719 1.773438 2.222656 1.773438.835938 0 1.636719-.636719 2.226563-1.773438l38.492187-74.246094c2.664063-5.148437 2.664063-13.4375 0-18.585937zm-79.589844 5.109375-9.394531-18.515625c-.882812-1.746094-1.25-4.230469-.96875-6.605469s1.164063-4.320312 2.355469-5.175781l15.085938-10.8125c1.253906-.902344 2.664062-.460938 3.703124 1.152343 1.042969 1.617188 1.554688 4.164063 1.351563 6.699219l-2.800781 34.921875c-.21875 2.695313-1.210938 4.925782-2.566406 5.765625-1.359376.84375-2.847657.15625-3.851563-1.78125zm-103.296874-69.75-22.035157 13.425781c-.925781.566406-1.929687-.148437-2.4375-1.730469-.503906-1.582031-.378906-3.621094.304688-4.933594l24.597656-47.453124c.753906-1.429688 1.898437-1.792969 2.855469-.902344.953125.890625 1.507812 2.835937 1.382812 4.851562l-2.074218 30.769532c-.1875 2.78125-1.199219 5.101562-2.601563 5.953124zm4.492187 17.066406 7.007813 36.25c.394531 2.03125.140624 4.316406-.648438 5.875s-1.972656 2.109375-3.050781 1.421875l-19.914063-12.707031c-1.507812-.960938-2.539062-3.628906-2.578125-6.671875l-.179687-14.15625c-.039063-3.207031 1.03125-6.078125 2.628906-7.050781l12.046875-7.335938c1.917969-1.164062 3.976563.75 4.679687 4.351562zm-13.863281 45.21875 16.660156 10.644531c1.238281.785157 2.175781 2.742188 2.476562 5.171875.304688 2.425782-.070312 4.980469-.988281 6.753906l-18.558593 35.722657c-.65625 1.269531-1.644532 1.664062-2.511719 1.007812-.863281-.660156-1.441407-2.242187-1.464844-4.023437l-.605469-48.300782c-.027344-2.355468.546875-4.585937 1.539063-5.980468.996093-1.390625 2.28125-1.773438 3.445312-1.015625zm27.945312-41.933594 20.832032 16.609375c.964843.773438 1.71875 2.273438 2.082031 4.152344.367187 1.875.308593 3.953125-.160157 5.746094l-8.441406 32.179687c-.542968 2.078125-1.578125 3.527344-2.777344 3.894532-1.199218.367187-2.421874-.394532-3.277343-2.042969l-4.722657-9.109375c-.378906-.730469-.671874-1.609375-.859374-2.574219l-7.667969-39.691406c-.523438-2.691407-.164063-5.722657.917969-7.714844 1.082031-1.996094 2.679687-2.570313 4.066406-1.46875zm94.800782-6.628906-15.304688 10.980469c-.972656.699219-2.054688.597656-2.984375-.273438-.933594-.875-1.636719-2.445312-1.945313-4.339843l-1.335937-8.199219c-.421875-2.59375-.046875-5.425781.976563-7.320313l15.386718-28.554687c.582032-1.074219 1.417969-1.480469 2.195313-1.066407.777343.414063 1.382812 1.582032 1.589843 3.074219l3.75 27.101563c.488282 3.578125-.519531 7.285156-2.335937 8.578125zm-28.265626 20.269531-16.058593 11.519531c-.898438.640626-1.890625.605469-2.777344-.097656l-2.578125-2.070312c-1.507812-1.203125-2.4375-4.121094-2.308594-7.230469l1.492188-36.277344c.074218-1.703125.457031-3.304687 1.085937-4.519531l9.707031-18.75c.933594-1.796875 2.289063-2.53125 3.578126-1.929688 1.285156.601563 2.3125 2.449219 2.707031 4.867188l7.421875 45.578125c.59375 3.648437-.40625 7.546875-2.277344 8.890625zm-34.832031-1.332031-5.160156-4.144531c-1.105469-.882813-1.925781-2.71875-2.210937-4.945313l-6.617188-51.796875c-.304688-2.375.257812-4.84375 1.375-6.039062 1.117188-1.195313 2.511719-.824219 3.414062.910156l14.421876 27.808594c.773437 1.492187 1.167968 3.554687 1.082031 5.648437l-1.082031 26.429688c-.09375 2.316406-.761719 4.402344-1.796876 5.613281-1.039062 1.207031-2.316406 1.390625-3.433593.492187zm1.910157 14.5 10.78125 8.597656c1.164062.929688 2.011718 2.917969 2.25 5.292969l2.050781 20.242187c.214843 2.09375-.199219 4.242188-1.066407 5.578126-.871093 1.339843-2.054687 1.652343-3.082031.808593l-17.292969-14.199219c-.953124-.785156-1.699218-2.285156-2.054687-4.152343-.359375-1.867188-.296875-3.933594.167969-5.710938l3.414062-13.03125c.886719-3.390625 2.992188-4.898437 4.824219-3.453125zm21.96875 7.488281 7.039062-5.050781c1.402344-1.011719 2.988281-.339844 4.039062 1.714844l8.875 17.519531c1.429688 2.824219 1.414063 7.3125-.03125 10.105469l-12.257812 23.632812c-.988281 1.898438-2.441406 2.597656-3.78125 1.820313-1.339844-.777344-2.34375-2.910157-2.609375-5.539063l-3.65625-36.101562c-.347656-3.453125.65625-6.886719 2.375-8.128906zm52.023437-33.839843 6.464844-.324219c1.4375-.074219 2.773437 1.417969 3.441406 3.851562l8.484375 30.816407c.6875 2.484374.554688 5.503906-.335938 7.742187l-16.734374 41.90625c-.660157 1.660156-1.667969 2.6875-2.757813 2.820313-1.089844.132812-2.15625-.644532-2.921875-2.132813l-3.507812-6.757813c-.839844-1.625-1.230469-3.917968-1.046876-6.175781l5.273438-65.640625c.277344-3.449218 1.808594-6.019531 3.632812-6.105468zm-4.21875-17.328126-4.734375-34.199218c-.324219-2.367188.21875-4.855469 1.332031-6.070313 1.109375-1.214843 2.511719-.851562 3.410157.882813l16.554687 31.941406c1.058594 2.046875 1.378906 5.101562.820313 7.769531-.5625 2.671875-1.898438 4.453125-3.402344 4.53125l-10.230469.515625c-1.753906.097656-3.3125-2.128906-3.757813-5.371094zm-18.222656-74.550781 1.226562 2.375c.46875.894531.800781 2.011719.96875 3.230469l2.617188 18.917969c.347656 2.523437-.042969 5.207031-1.019531 7.023437l-14.089844 26.167969c-.941406 1.742187-2.292969 2.425781-3.5625 1.808594-1.269532-.621094-2.28125-2.453125-2.675782-4.847657l-3.425781-21.058593c-.417969-2.546875-.0625-5.328125.921875-7.222657l13.683594-26.394531c.707031-1.363281 1.671875-2.128906 2.675781-2.128906 1.007813 0 1.96875.765625 2.679688 2.128906zm-82.222657 0 3.023438 5.875c.480469.933594.820312 2.097657.984375 3.371094l8.863281 69.371094c.339844 2.644531-.128906 5.429687-1.210937 7.199219-1.082031 1.769531-2.59375 2.222656-3.90625 1.171874l-18.066407-14.40625c-1.570312-1.253906-2.507812-4.367187-2.289062-7.597656l3.792969-56.222656c.109375-1.566406.484375-3.019531 1.066406-4.140625l2.375-4.585937c.707031-1.371094 1.671875-2.144532 2.679687-2.152344 1.007813-.003906 1.976563.761718 2.6875 2.125zm-60.363281 107.273438 12.878907-7.839844c1.132812-.691406 2.371093-.320313 3.339843.996094.964844 1.320312 1.554688 3.429687 1.582031 5.703125l.304688 24.101562c.03125 2.632813-.6875 5.089844-1.878906 6.410156l-23.289063 25.890626c-1.484375 1.648437-3.367187 1.171874-4.578125-1.160157l-5.863281-11.3125c-1.460937-2.8125-1.460937-7.347656 0-10.160156l15.980469-30.835937c.425781-.824219.949218-1.4375 1.523437-1.792969zm14.769531 105.09375-16.371093-31.585938c-.824219-1.589843-1.214844-3.8125-1.0625-6.027343.152343-2.214844.835937-4.171876 1.84375-5.292969l13.628906-15.164063c1.152344-1.285156 2.574219-1.308594 3.742187-.0625 1.164063 1.246094 1.898438 3.574219 1.929688 6.125l.605469 48.464844c.019531 1.3125-.238281 2.585938-.722657 3.523438-.472656.921874-1.117187 1.441406-1.792968 1.445312-.675782.003906-1.324219-.511719-1.800782-1.425781zm81.335938-1.71875-20.167969-38.894531c-1.132812-2.195313-1.414062-5.527344-.695312-8.289063l1.339843-5.101563c.886719-3.441406 3.023438-4.957031 4.867188-3.445312l25.347656 20.808594c1.148438.941406 1.980469 2.914062 2.21875 5.261718l.898438 8.886719c.238281 2.34375-.144532 4.761719-1.023438 6.457031l-7.417968 14.296876c-.710938 1.367187-1.675782 2.136718-2.683594 2.136718-1.007813 0-1.972656-.769531-2.683594-2.136718zm82.230469 0-7.847657-15.128907c-1.324218-2.558593-1.460937-6.59375-.320312-9.457031l14-35.089843c.78125-1.957032 2.03125-3.015626 3.316406-2.8125 1.28125.207031 2.421875 1.648437 3.023438 3.828124l6.910156 25.046876c.765625 2.792968.5 6.207031-.660156 8.449218l-13.066406 25.171875c-.710938 1.363281-1.671876 2.128907-2.679688 2.128907-1.003906 0-1.96875-.765626-2.675781-2.128907zm22.585937-46.554688-18.148437-65.902343c-.421875-1.53125-.402344-3.367188.054687-4.855469.457032-1.492188 1.285156-2.425781 2.1875-2.472657l2.910156-.144531c1.039063-.054687 2.046876.71875 2.78125 2.132813l24.390626 47.070312c1.460937 2.8125 1.460937 7.347656 0 10.160156l-8.152344 15.734376c-.847656 1.632812-2.050782 2.394531-3.238282 2.054687-1.191406-.339844-2.222656-1.742187-2.785156-3.777344zm0 0" fill="url(#a)"/></svg>