<?xml version="1.0" encoding="UTF-8"?>
<svg width="162px" height="85px" viewBox="0 0 162 85" version="1.1" xmlns="http://www.w3.org/2000/svg" xmlns:xlink="http://www.w3.org/1999/xlink">
    <title>myst</title>
    <defs>
        <linearGradient x1="50.0022703%" y1="99.9795313%" x2="50.0022703%" y2="-0.0039800841%" id="linearGradient-1">
            <stop stop-color="#262262" offset="0%"></stop>
            <stop stop-color="#392262" offset="20%"></stop>
            <stop stop-color="#692063" offset="61%"></stop>
            <stop stop-color="#9E1F63" offset="100%"></stop>
        </linearGradient>
    </defs>
    <g id="Page-1" stroke="none" stroke-width="1" fill="none" fill-rule="evenodd">
        <g id="myst" fill="url(#linearGradient-1)" fill-rule="nonzero">
            <path d="M159.75,52.21 L108.61,0.6 C108.234085,0.2182843 107.720741,0.00334422007 107.185,0.00334422007 C106.649259,0.00334422007 106.135915,0.2182843 105.76,0.6 L82.5,24.06 C82.0468098,24.5217526 81.4269906,24.7818946 80.78,24.7818946 C80.1330094,24.7818946 79.5131902,24.5217526 79.06,24.06 L55.8,0.6 C54.997889,-0.159381993 53.742111,-0.159381993 52.94,0.6 L1.81,52.21 C0.0910861206,53.934872 0.0910861206,56.725128 1.81,58.45 L26.53,83.45 C27.3280148,84.2195981 28.5919852,84.2195981 29.39,83.45 L52.64,59.94 C53.0962495,59.4801551 53.7172185,59.2215125 54.365,59.2215125 C55.0127815,59.2215125 55.6337505,59.4801551 56.09,59.94 L79.35,83.4 C79.7259148,83.7817157 80.2392587,83.9966558 80.775,83.9966558 C81.3107413,83.9966558 81.8240852,83.7817157 82.2,83.4 L105.47,59.94 C105.925853,59.483227 106.544675,59.2265372 107.19,59.2265372 C107.835325,59.2265372 108.454147,59.483227 108.91,59.94 L132.17,83.41 C132.545915,83.7917157 133.059259,84.0066558 133.595,84.0066558 C134.130741,84.0066558 134.644085,83.7917157 135.02,83.41 L159.75,58.46 C161.459196,56.7272289 161.459196,53.9427711 159.75,52.21 Z M108.62,53.93 L102.62,47.71 C102.033769,47.1223895 101.78802,46.2762012 101.968293,45.4659828 C102.148567,44.6557643 102.729923,43.9936072 103.51,43.71 L113.2,40.08 C114.006714,39.7734273 114.915643,39.9196578 115.585496,40.4637838 C116.255348,41.0079099 116.584744,41.8675804 116.45,42.72 L114.65,54.45 C114.508064,55.3535448 113.870802,56.1008593 113.001025,56.3837481 C112.131247,56.666637 111.176297,56.4371776 110.53,55.79 L108.65,53.89 L108.62,53.93 Z M42.27,30.49 L28.11,35 C27.5160424,35.1927722 26.8673895,34.9530301 26.5415739,34.4203097 C26.2157583,33.8875893 26.2978212,33.2009362 26.74,32.76 L42.54,16.81 C43.0273147,16.3282773 43.76614,16.2077825 44.3812598,16.5097094 C44.9963797,16.8116364 45.3529963,17.4698206 45.27,18.15 L43.94,28.49 C43.8180023,29.4239868 43.1672412,30.2033415 42.27,30.49 L42.27,30.49 Z M45.16,36.22 L49.66,48.4 C49.9153433,49.0840966 49.753774,49.8540849 49.2449828,50.3778405 C48.7361917,50.901596 47.971209,51.0854113 47.28,50.85 L34.49,46.58 C33.5207558,46.2565938 32.8573603,45.3614095 32.83,44.34 L32.72,39.58 C32.6932844,38.5042568 33.3829659,37.5411513 34.41,37.22 L42.15,34.75 C43.384743,34.3597031 44.708628,35.0062516 45.16,36.22 Z M36.25,51.41 L47,55 C47.7896576,55.2698532 48.3856095,55.926024 48.5784381,56.7379335 C48.7712666,57.549843 48.5339947,58.4039044 47.95,59 L36,71 C35.5814024,71.4243245 34.950203,71.5583537 34.3952967,71.3407433 C33.8403904,71.123133 33.4685642,70.5957606 33.45,70 L33.06,53.77 C33.0430905,52.9813457 33.4100545,52.2335553 34.0442106,51.764399 C34.6783667,51.2952428 35.5007976,51.1631047 36.25,51.41 L36.25,51.41 Z M54.25,37.32 L67.63,42.91 C68.2513066,43.166664 68.7378572,43.6701971 68.9730626,44.2999405 C69.208268,44.9296839 69.1709315,45.6288856 68.87,46.23 L63.4,57.05 C63.0483212,57.7462663 62.38377,58.231379 61.6134514,58.3541547 C60.8431328,58.4769305 60.0607017,58.2224421 59.51,57.67 L56.51,54.61 C56.2678426,54.361654 56.0804746,54.0652718 55.96,53.74 L51,40.4 C50.6722625,39.4971973 50.9070278,38.4860622 51.5990195,37.8200202 C52.2910112,37.1539782 53.3103768,36.9580123 54.2,37.32 L54.25,37.32 Z M115.15,35.1 L105.31,38.79 C104.686232,39.0235197 103.993794,38.9896304 103.39581,38.6963156 C102.797827,38.4030007 102.347168,37.8761941 102.15,37.24 L101.29,34.48 C101.018351,33.6068309 101.262085,32.65511 101.92,32.02 L111.8,22.43 C112.171446,22.0679224 112.707116,21.9301183 113.207178,22.0679956 C113.70724,22.2058728 114.096598,22.5987256 114.23,23.1 L116.64,32.21 C116.950306,33.4265132 116.28282,34.6791317 115.1,35.1 L115.15,35.1 Z M96.94,41.91 L86.62,45.78 C86.0471093,46.0002664 85.4128907,46.0002664 84.84,45.78 L83.18,45.08 C82.2181653,44.674863 81.6224525,43.7007922 81.7,42.66 L82.7,30.47 C82.7415823,29.8973135 82.9862704,29.3582906 83.39,28.95 L89.64,22.65 C90.2431426,22.0675685 91.1039354,21.837218 91.9173567,22.0405733 C92.7307779,22.2439286 93.3819008,22.852258 93.64,23.65 L98.4,38.92 C98.7843973,40.1462247 98.1433465,41.4590616 96.94,41.91 L96.94,41.91 Z M74.56,41.46 L71.25,40.08 C70.5382072,39.7805781 70.0110996,39.16067 69.83,38.41 L65.58,21 C65.3846897,20.2005989 65.7469883,19.369148 66.4654629,18.9679219 C67.1839375,18.5666959 68.0818606,18.6943866 68.66,19.28 L77.92,28.62 C78.4186565,29.1213237 78.6742164,29.8149863 78.62,30.52 L77.92,39.4 C77.8614811,40.1784835 77.4325031,40.8814471 76.7669515,41.2894936 C76.1013998,41.6975402 75.2803298,41.760975 74.56,41.46 L74.56,41.46 Z M75.79,46.33 L82.72,49.22 C83.4680679,49.5343873 84.008781,50.2027687 84.16,51 L85.48,57.8 C85.6389709,58.5130024 85.3839389,59.2548587 84.8201585,59.7193969 C84.256378,60.1839351 83.4794419,60.2923896 82.81,60 L71.71,55.22 C71.0946735,54.9596296 70.6150528,54.4554948 70.3856532,53.8279636 C70.1562536,53.2004325 70.197665,52.5058297 70.5,51.91 L72.69,47.53 C73.2416935,46.3713071 74.6019447,45.8447582 75.79,46.33 Z M89.9,48.85 L94.42,47.15 C95.3250562,46.8114417 96.3446396,47.0388873 97.02,47.73 L102.72,53.62 C103.644871,54.5646452 103.644871,56.0753548 102.72,57.02 L94.83,65 C94.1956163,65.6389008 93.2599689,65.8746731 92.3985732,65.6126915 C91.5371774,65.3507098 90.8912388,64.6339198 90.72,63.75 L88.37,51.58 C88.1524313,50.419698 88.7967365,49.2700554 89.9,48.85 L89.9,48.85 Z M123.32,37.49 L127.47,37.38 C128.393587,37.3486592 129.253127,37.8503815 129.68,38.67 L135.13,49 C135.570508,49.8339794 135.488645,50.8475291 134.92,51.6 L124.18,65.71 C123.754604,66.2681282 123.107878,66.6141118 122.407506,66.6582448 C121.707133,66.7023779 121.022093,66.4403138 120.53,65.94 L118.28,63.67 C117.732259,63.1303569 117.478976,62.359334 117.6,61.6 L121,39.54 C121.174137,38.3846182 122.151969,37.5205852 123.32,37.49 L123.32,37.49 Z M120.61,31.66 L117.61,20.17 C117.405527,19.3753782 117.758037,18.5421921 118.470725,18.1356095 C119.183413,17.729027 120.080032,17.8495948 120.66,18.43 L131.29,29.16 C131.965425,29.8489411 132.169295,30.8722121 131.809483,31.7674072 C131.449671,32.6626022 130.594338,33.2601403 129.63,33.29 L123.06,33.47 C121.919603,33.5169154 120.900247,32.76384 120.61,31.66 L120.61,31.66 Z M108.91,6.66 L109.7,7.46 C109.99847,7.76283271 110.212256,8.13868088 110.32,8.55 L112,14.85 C112.22001,15.6962946 111.972293,16.5956956 111.35,17.21 L102.29,26 C101.686857,26.5824315 100.826065,26.812782 100.012643,26.6094267 C99.1992221,26.4060714 98.5480992,25.797742 98.29,25 L96.09,17.93 C95.8205199,17.0732728 96.0476593,16.1377665 96.68,15.5 L105.47,6.63 C105.923192,6.17056666 106.540524,5.91027205 107.185852,5.90647902 C107.83118,5.90276824 108.451496,6.15586722 108.91,6.61 L108.91,6.66 Z M56.09,6.66 L58.04,8.66 C58.3515898,8.97030302 58.5698623,9.36180774 58.67,9.79 L64.37,33 C64.5895661,33.888972 64.2885736,34.8257378 63.5922884,35.4204373 C62.8960032,36.0151368 61.9236889,36.1659066 61.08,35.81 L49.47,31 C48.4584273,30.5761864 47.8561312,29.5272898 48,28.44 L50.44,9.55 C50.5077113,9.02451562 50.7467027,8.53598909 51.12,8.16 L52.65,6.61 C53.1058534,6.15322704 53.7246754,5.89653721 54.37,5.89653721 C55.0153246,5.89653721 55.6341466,6.15322704 56.09,6.61 L56.09,6.66 Z M17.32,42.66 L25.59,40 C26.3171768,39.7662444 27.1120303,39.889518 27.7342444,40.3325501 C28.3564584,40.7755823 28.7329905,41.486365 28.75,42.25 L28.95,50.35 C28.9711931,51.236894 28.5073821,52.0648542 27.74,52.51 L12.74,61.21 C11.7850885,61.7624376 10.5778552,61.6022944 9.8,60.82 L6.07,57 C5.13199913,56.0529486 5.13199913,54.5270514 6.07,53.58 L16.34,43.26 C16.612502,42.9826375 16.9490605,42.7765813 17.32,42.66 Z M26.81,78 L16.29,67.35 C15.7606833,66.8182155 15.5079723,66.070988 15.6058542,65.3270861 C15.703736,64.5831842 16.1411379,63.926761 16.79,63.55 L25.55,58.46 C26.2846923,58.0303592 27.1910697,58.0182404 27.9369864,58.4280848 C28.6829031,58.8379291 29.1586926,59.6094802 29.19,60.46 L29.58,76.74 C29.6188134,77.2090382 29.4465082,77.6709627 29.11,78 L29.11,78 C28.8058337,78.3065633 28.3918544,78.4789917 27.96,78.4789917 C27.5281456,78.4789917 27.1141663,78.3065633 26.81,78 L26.81,78 Z M79.05,77.43 L66.05,64.36 C65.3201704,63.6171551 65.1396824,62.4941186 65.6,61.56 L66.46,59.85 C67.0377763,58.7021611 68.4093596,58.2026068 69.59,58.71 L85.87,65.71 C86.6077598,66.0277603 87.1397643,66.6908927 87.29,67.48 L87.87,70.48 C88.0235793,71.2680315 87.7763384,72.0809296 87.21,72.65 L82.5,77.39 C81.5471987,78.3424253 80.0028013,78.3424253 79.05,77.39 L79.05,77.43 Z M131.87,77.43 L126.87,72.34 C126.016472,71.4796175 125.930995,70.1205418 126.67,69.16 L135.67,57.37 C136.170734,56.7109679 136.973548,56.3535562 137.798357,56.4224592 C138.623166,56.4913621 139.355552,56.9770216 139.74,57.71 L144.17,66.13 C144.663946,67.0670252 144.494019,68.2160541 143.75,68.97 L135.37,77.43 C134.906517,77.8989505 134.272977,78.1603668 133.61366,78.1548053 C132.954342,78.1490642 132.325377,77.8768264 131.87,77.4 L131.87,77.43 Z M146.38,61.78 L134.72,39.6 C134.450644,39.0867346 134.464907,38.4708708 134.757734,37.9706245 C135.050561,37.4703783 135.580583,37.1564227 136.16,37.14 L138.03,37.14 C138.699392,37.1285516 139.344976,37.3882281 139.82,37.86 L155.49,53.68 C156.421417,54.6258593 156.421417,56.1441407 155.49,57.09 L150.25,62.38 C149.697859,62.9232752 148.91979,63.1707669 148.155252,63.0463073 C147.390715,62.9218476 146.731319,62.4403501 146.38,61.75 L146.38,61.78 Z" id="Shape"></path>
        </g>
    </g>
</svg>