<svg height="250" viewBox="0 0 250 250" width="250" xmlns="http://www.w3.org/2000/svg"><path d="m0 0h250v250h-250z" fill="#fff"/><path d="m164.277344 66.601562-27.167969 40.34375c-.4375.582032-.640625 1.308594-.570313 2.035157.074219.726562.421876 1.398437.972657 1.878906.546875.480469 1.257812.738281 1.988281.714844.726562-.019531 1.421875-.316407 1.941406-.832031l26.734375-23.109376c.152344-.140624.34375-.234374.550781-.269531.207032-.03125.417969-.003906.609376.082031.191406.085938.351562.226563.464843.402344.109375.179688.167969.382813.164063.59375v72.640625c-.003906.222657-.070313.433594-.199219.617188-.128906.179687-.304687.316406-.511719.390625-.210937.074218-.433594.085937-.648437.03125-.210938-.058594-.402344-.179688-.546875-.34375l-80.835938-96.78125c-1.289062-1.550782-2.902344-2.804688-4.730468-3.667969-1.824219-.863281-3.816407-1.316406-5.835938-1.328125h-2.8125c-3.671875 0-7.191406 1.460938-9.789062 4.058594-2.597657 2.597656-4.054688 6.121094-4.054688 9.792968v102.296876c0 3.671874 1.457031 7.195312 4.054688 9.792968 2.597656 2.597656 6.117187 4.058594 9.789062 4.058594 2.363281 0 4.691406-.605469 6.753906-1.761719 2.066406-1.15625 3.800782-2.824219 5.039063-4.839843l27.164062-40.34375c.441407-.582032.644531-1.308594.570313-2.035157-.074219-.726562-.417969-1.398437-.96875-1.878906-.546875-.480469-1.257813-.738281-1.988282-.714844-.730468.019531-1.421874.316407-1.941406.832031l-26.734375 23.109376c-.152343.140624-.347656.234374-.550781.269531-.207031.03125-.417969.003906-.609375-.082031-.191406-.085938-.351563-.226563-.464844-.402344-.109375-.179688-.167969-.382813-.164062-.59375v-72.570313c0-.21875.070312-.433593.199219-.613281.125-.179688.304687-.316406.511718-.390625.207032-.078125.433594-.085937.648438-.03125.210937.054687.402344.175781.546875.34375l80.835937 96.777344c1.296875 1.539062 2.917969 2.777343 4.746094 3.625 1.828125.847656 3.816406 1.289062 5.832031 1.285156h2.886719c1.820312 0 3.617188-.355469 5.296875-1.054687 1.679687-.695313 3.207031-1.714844 4.492187-3 1.285157-1.289063 2.304688-2.816407 3-4.496094.695313-1.679688 1.054688-3.480469 1.054688-5.300782v-102.28125c0-1.824218-.359375-3.632812-1.0625-5.320312-.699219-1.6875-1.726562-3.21875-3.023438-4.503906-1.292968-1.289063-2.828124-2.308594-4.519531-2.996094-1.691406-.691406-3.5-1.042969-5.324219-1.03125-2.367187 0-4.691406.609375-6.757812 1.761719-2.0625 1.15625-3.796875 2.824219-5.035156 4.839843zm0 0" fill="#111618"/></svg>