<svg width="50" height="50" viewBox="0 0 50 50" fill="none" xmlns="http://www.w3.org/2000/svg">
<rect width="50" height="50" fill="white"/>
<path d="M32.8554 13.3203L27.4222 21.3889C27.3341 21.5054 27.2934 21.6509 27.3082 21.7962C27.323 21.9414 27.3923 22.0757 27.502 22.172C27.6117 22.2682 27.7538 22.3193 27.8997 22.315C28.0456 22.3107 28.1844 22.2513 28.2883 22.1487L33.6349 17.5265C33.6657 17.4982 33.7042 17.4796 33.7455 17.473C33.7868 17.4663 33.8291 17.472 33.8672 17.4892C33.9053 17.5064 33.9376 17.5345 33.9599 17.5699C33.9823 17.6053 33.9937 17.6464 33.9929 17.6883V32.2165C33.9925 32.2606 33.9786 32.3035 33.9531 32.3395C33.9276 32.3755 33.8918 32.4029 33.8504 32.4179C33.8089 32.433 33.7639 32.4351 33.7213 32.4239C33.6787 32.4126 33.6405 32.3886 33.6118 32.3551L17.4448 12.9996C17.1867 12.6889 16.8638 12.4384 16.4988 12.2657C16.1337 12.0931 15.7353 12.0024 15.3316 12.0001H14.7686C14.0343 12.0001 13.3301 12.2919 12.8109 12.8115C12.2917 13.3311 12 14.0357 12 14.7705V35.2296C12 35.9643 12.2917 36.669 12.8109 37.1886C13.3301 37.7081 14.0343 38 14.7686 38V38C15.2417 37.9999 15.7069 37.8786 16.1198 37.6474C16.5328 37.4163 16.8796 37.0832 17.1272 36.6798L22.5605 28.6111C22.6486 28.4947 22.6893 28.3492 22.6745 28.2039C22.6596 28.0586 22.5904 27.9244 22.4807 27.8281C22.3709 27.7318 22.2288 27.6807 22.083 27.685C21.9371 27.6893 21.7983 27.7488 21.6944 27.8514L16.3478 32.4736C16.3169 32.5019 16.2785 32.5205 16.2372 32.5271C16.1959 32.5337 16.1536 32.5281 16.1154 32.5108C16.0773 32.4936 16.0451 32.4656 16.0228 32.4302C16.0004 32.3948 15.989 32.3536 15.9898 32.3118V17.798C15.9902 17.7539 16.0041 17.711 16.0296 17.675C16.055 17.639 16.0909 17.6116 16.1323 17.5966C16.1737 17.5815 16.2188 17.5794 16.2614 17.5906C16.304 17.6019 16.3422 17.6258 16.3709 17.6594L32.5379 37.0149C32.7979 37.3228 33.122 37.5703 33.4875 37.7399C33.853 37.9096 34.2511 37.9973 34.654 37.9971H35.2314C35.595 37.9971 35.955 37.9255 36.2909 37.7862C36.6268 37.647 36.932 37.4429 37.1891 37.1857C37.4462 36.9284 37.6501 36.623 37.7893 36.2869C37.9284 35.9507 38 35.5905 38 35.2267V14.7705C38 14.4052 37.9278 14.0435 37.7876 13.7063C37.6474 13.369 37.4419 13.0628 37.183 12.8053C36.9241 12.5479 36.6168 12.3441 36.2789 12.2059C35.941 12.0677 35.5791 11.9978 35.2141 12.0001V12.0001C34.741 12.0001 34.2757 12.1215 33.8628 12.3526C33.4499 12.5837 33.1031 12.9169 32.8554 13.3203Z" fill="#111618"/>
</svg>
