<svg height="250" viewBox="0 0 250 250" width="250" xmlns="http://www.w3.org/2000/svg"><g fill-rule="evenodd"><path d="m250 125c0 69.035156-55.964844 125-125 125s-125-55.964844-125-125 55.964844-125 125-125 125 55.964844 125 125zm0 0" fill="#d5e20f"/><path d="m58.316406 88.957031v83.070313l70.121094 41.535156 70.128906-41.535156v-83.070313l-70.128906-41.542969zm37-13.964843 1.417969-.84375 31.703125-18.773438 33.089844 19.585938v104.609374zm72.136719 3.484374 24.398437 14.449219v75.121094l-24.398437 14.457031zm-102.421875 89.570313v-75.121094l23.652344-14.003906v103.140625zm29.570312 17.519531v-100.550781l64.746094 102.28125-30.910156 18.3125zm0 0" fill="#1e3038"/></g></svg>