
<svg xmlns="http://www.w3.org/2000/svg" xmlns:xlink="http://www.w3.org/1999/xlink" width="250px" height="250px" viewBox="0 0 250 250" version="1.1">
<g id="surface1">
<path style=" stroke:none;fill-rule:evenodd;fill:rgb(83.529413%,88.627452%,5.882353%);fill-opacity:1;" d="M 250 125 C 250 194.035156 194.035156 250 125 250 C 55.964844 250 0 194.035156 0 125 C 0 55.964844 55.964844 0 125 0 C 194.035156 0 250 55.964844 250 125 Z M 250 125 "/>
<path style=" stroke:none;fill-rule:evenodd;fill:rgb(11.764706%,18.82353%,21.960784%);fill-opacity:1;" d="M 58.316406 88.957031 L 58.316406 172.027344 L 128.4375 213.5625 L 198.566406 172.027344 L 198.566406 88.957031 L 128.4375 47.414062 Z M 95.316406 74.992188 L 96.734375 74.148438 L 128.4375 55.375 L 161.527344 74.960938 L 161.527344 179.570312 Z M 167.453125 78.476562 L 191.851562 92.925781 L 191.851562 168.046875 L 167.453125 182.503906 Z M 65.03125 168.046875 L 65.03125 92.925781 L 88.683594 78.921875 L 88.683594 182.0625 Z M 94.601562 185.566406 L 94.601562 85.015625 L 159.347656 187.296875 L 128.4375 205.609375 Z M 94.601562 185.566406 "/>
</g>
</svg>
