
<svg xmlns="http://www.w3.org/2000/svg" xmlns:xlink="http://www.w3.org/1999/xlink" width="250px" height="250px" viewBox="0 0 250 250" version="1.1">
<g id="surface1">
<path style=" stroke:none;fill-rule:nonzero;fill:rgb(95.686275%,71.764708%,19.215687%);fill-opacity:1;" d="M 250.300781 81.007812 L 223.414062 81.007812 C 208.609375 33.039062 168.808594 0 116.3125 0 L 29.984375 0 L 29.984375 81.007812 L 0 81.007812 L 0 110.070312 L 29.984375 110.070312 L 29.984375 140.546875 L 0 140.546875 L 0 169.609375 L 29.984375 169.609375 L 29.984375 249.648438 L 116.3125 249.648438 C 168.203125 249.648438 207.703125 216.960938 222.886719 169.609375 L 250.300781 169.609375 L 250.300781 140.546875 L 228.925781 140.546875 C 229.457031 135.425781 229.683594 130.125 229.683594 124.824219 L 229.683594 124.117188 C 229.683594 119.347656 229.457031 114.664062 229.078125 110.070312 L 250.300781 110.070312 Z M 54.152344 25.972656 L 116.3125 25.972656 C 154.832031 25.972656 183.460938 48.144531 196.675781 81.007812 L 54.152344 81.007812 Z M 116.3125 223.585938 L 54.152344 223.585938 L 54.152344 169.609375 L 196.527344 169.609375 C 183.15625 201.945312 154.683594 223.585938 116.3125 223.585938 Z M 204.757812 125.53125 C 204.757812 130.652344 204.457031 135.6875 203.851562 140.546875 L 54.152344 140.546875 L 54.152344 110.070312 L 203.925781 110.070312 C 204.457031 114.839844 204.757812 119.789062 204.757812 124.824219 Z M 204.757812 125.53125 "/>
</g>
</svg>
