
<svg xmlns="http://www.w3.org/2000/svg" xmlns:xlink="http://www.w3.org/1999/xlink" width="250px" height="250px" viewBox="0 0 250 250" version="1.1">
<defs>
<linearGradient id="linear0" gradientUnits="userSpaceOnUse" x1="5.43862" y1="47.0154" x2="61.4263" y2="-4.30678" gradientTransform="matrix(3.333333,0,0,3.90625,0,0)">
<stop offset="0" style="stop-color:rgb(0%,93.725491%,76.862746%);stop-opacity:1;"/>
<stop offset="1" style="stop-color:rgb(4.313726%,57.254905%,95.294118%);stop-opacity:1;"/>
</linearGradient>
<linearGradient id="linear1" gradientUnits="userSpaceOnUse" x1="5.4386" y1="16.984699" x2="61.4263" y2="68.306801" gradientTransform="matrix(3.333333,0,0,3.90625,0,0)">
<stop offset="0" style="stop-color:rgb(0%,93.725491%,76.862746%);stop-opacity:1;"/>
<stop offset="1" style="stop-color:rgb(4.313726%,57.254905%,95.294118%);stop-opacity:1;"/>
</linearGradient>
</defs>
<g id="surface1">
<path style=" stroke:none;fill-rule:evenodd;fill:url(#linear0);" d="M 165.933594 0 L 165.933594 0.53125 L 165.289062 0 L 54.425781 186.105469 L 0 186.105469 L 0 250 L 82.15625 250 L 82.15625 249.535156 L 82.722656 250 L 193.582031 63.890625 L 193.722656 63.890625 L 193.722656 250 L 248.078125 250 L 248.078125 0 Z M 165.933594 0 "/>
<path style=" stroke:none;fill-rule:evenodd;fill:url(#linear1);" d="M 165.933594 249.46875 L 165.933594 250 L 248.078125 250 L 248.078125 0 L 193.722656 0 L 193.722656 186.109375 L 193.582031 186.109375 L 82.722656 0 L 82.15625 0.464844 L 82.15625 0 L 0 0 L 0 250 L 54.355469 250 L 54.355469 63.894531 L 54.425781 63.894531 L 165.289062 250 Z M 165.933594 249.46875 "/>
</g>
</svg>
