<!-- Generator: Adobe Illustrator 25.0.0, SVG Export Plug-In . SVG Version: 6.00 Build 0)  -->
<svg xmlns="http://www.w3.org/2000/svg" xmlns:xlink="http://www.w3.org/1999/xlink" width="250px" height="250px" viewBox="0 0 250 250" version="1.1">
<g id="surface1">
<path style=" stroke:none;fill-rule:nonzero;fill:rgb(9.803922%,9.803922%,9.803922%);fill-opacity:1;" d="M 222.449219 125 C 222.449219 179 178.820312 222.777344 125 222.777344 C 71.179688 222.777344 27.550781 179 27.550781 125 C 27.550781 71 71.179688 27.222656 125 27.222656 C 178.820312 27.222656 222.449219 71 222.449219 125 Z M 222.449219 125 "/>
<path style=" stroke:none;fill-rule:nonzero;fill:rgb(100%,76.078433%,3.529412%);fill-opacity:1;" d="M 156.113281 85.378906 L 167.230469 65.683594 L 179.132812 85.457031 L 167.527344 78.859375 Z M 156.113281 85.378906 "/>
<path style=" stroke:none;fill-rule:nonzero;fill:rgb(100%,76.078433%,3.529412%);fill-opacity:1;" d="M 156.113281 85.378906 L 167.527344 78.859375 L 167.582031 78.886719 L 167.152344 65.824219 Z M 156.113281 85.378906 "/>
<path style=" stroke:none;fill-rule:nonzero;fill:rgb(100%,76.078433%,3.529412%);fill-opacity:1;" d="M 167.230469 65.683594 L 167.152344 65.824219 L 167.582031 78.886719 L 179.132812 85.457031 Z M 167.230469 65.683594 "/>
<path style=" stroke:none;fill-rule:nonzero;fill:rgb(100%,76.078433%,3.529412%);fill-opacity:1;" d="M 82.300781 182.5625 L 82.300781 65.679688 L 179.132812 153.046875 L 179.132812 182.558594 L 101.667969 112.582031 L 101.667969 182.5625 Z M 82.300781 182.5625 "/>
<path style=" stroke:none;fill-rule:nonzero;fill:rgb(100%,76.078433%,3.529412%);fill-opacity:1;" d="M 164.628906 118.816406 C 163.863281 118.816406 163.246094 118.195312 163.246094 117.433594 L 163.246094 96.0625 C 163.246094 95.300781 163.863281 94.679688 164.628906 94.679688 C 165.394531 94.679688 166.011719 95.300781 166.011719 96.0625 L 166.011719 117.433594 C 166.011719 118.195312 165.394531 118.816406 164.628906 118.816406 Z M 164.628906 118.816406 "/>
<path style=" stroke:none;fill-rule:nonzero;fill:rgb(100%,76.078433%,3.529412%);fill-opacity:1;" d="M 170.617188 118.816406 C 169.851562 118.816406 169.234375 118.195312 169.234375 117.433594 L 169.234375 96.0625 C 169.234375 95.300781 169.851562 94.679688 170.617188 94.679688 C 171.382812 94.679688 172 95.300781 172 96.0625 L 172 117.433594 C 172 118.195312 171.382812 118.816406 170.617188 118.816406 Z M 170.617188 118.816406 "/>
</g>
</svg>
