<svg height="250" viewBox="0 0 250 250" width="250" xmlns="http://www.w3.org/2000/svg" xmlns:xlink="http://www.w3.org/1999/xlink"><linearGradient id="a" gradientUnits="userSpaceOnUse" x1="121.093936" x2="121.093936" y1="0" y2="250.000384"><stop offset="0" stop-color="#ccc"/><stop offset="1" stop-color="#bcbfc4"/></linearGradient><path d="m0 0h250v250h-250z" fill="#eee"/><g fill="url(#a)"><path d="m7.8125 0h7.8125v250h-7.8125zm0 0"/><path d="m226.5625 0h7.8125v250h-7.8125zm0 0"/><path d="m23.4375 0h7.8125v250h-7.8125zm0 0"/><path d="m39.0625 0h15.625v250h-15.625zm0 0"/><path d="m70.3125 0h15.625v250h-15.625zm0 0"/><path d="m101.5625 0h23.4375v250h-23.4375zm0 0"/><path d="m132.8125 0h7.8125v250h-7.8125zm0 0"/><path d="m148.4375 0h7.8125v250h-7.8125zm0 0"/><path d="m179.6875 0h7.8125v250h-7.8125zm0 0"/><path d="m203.125 0h15.625v250h-15.625zm0 0"/></g></svg>