
<svg xmlns="http://www.w3.org/2000/svg" xmlns:xlink="http://www.w3.org/1999/xlink" width="250px" height="250px" viewBox="0 0 250 250" version="1.1">
<defs>
<linearGradient id="linear0" gradientUnits="userSpaceOnUse" x1="496" y1="0" x2="496" y2="1024" gradientTransform="matrix(0.244141,0,0,0.244141,0,0)">
<stop offset="0" style="stop-color:rgb(80.000001%,80.000001%,80.000001%);stop-opacity:1;"/>
<stop offset="1" style="stop-color:rgb(73.725492%,74.901962%,76.862746%);stop-opacity:1;"/>
</linearGradient>
<linearGradient id="linear1" gradientUnits="userSpaceOnUse" x1="496" y1="0" x2="496" y2="1024" gradientTransform="matrix(0.244141,0,0,0.244141,0,0)">
<stop offset="0" style="stop-color:rgb(80.000001%,80.000001%,80.000001%);stop-opacity:1;"/>
<stop offset="1" style="stop-color:rgb(73.725492%,74.901962%,76.862746%);stop-opacity:1;"/>
</linearGradient>
<linearGradient id="linear2" gradientUnits="userSpaceOnUse" x1="496" y1="0" x2="496" y2="1024" gradientTransform="matrix(0.244141,0,0,0.244141,0,0)">
<stop offset="0" style="stop-color:rgb(80.000001%,80.000001%,80.000001%);stop-opacity:1;"/>
<stop offset="1" style="stop-color:rgb(73.725492%,74.901962%,76.862746%);stop-opacity:1;"/>
</linearGradient>
<linearGradient id="linear3" gradientUnits="userSpaceOnUse" x1="496" y1="0" x2="496" y2="1024" gradientTransform="matrix(0.244141,0,0,0.244141,0,0)">
<stop offset="0" style="stop-color:rgb(80.000001%,80.000001%,80.000001%);stop-opacity:1;"/>
<stop offset="1" style="stop-color:rgb(73.725492%,74.901962%,76.862746%);stop-opacity:1;"/>
</linearGradient>
<linearGradient id="linear4" gradientUnits="userSpaceOnUse" x1="496" y1="0" x2="496" y2="1024" gradientTransform="matrix(0.244141,0,0,0.244141,0,0)">
<stop offset="0" style="stop-color:rgb(80.000001%,80.000001%,80.000001%);stop-opacity:1;"/>
<stop offset="1" style="stop-color:rgb(73.725492%,74.901962%,76.862746%);stop-opacity:1;"/>
</linearGradient>
<linearGradient id="linear5" gradientUnits="userSpaceOnUse" x1="496" y1="0" x2="496" y2="1024" gradientTransform="matrix(0.244141,0,0,0.244141,0,0)">
<stop offset="0" style="stop-color:rgb(80.000001%,80.000001%,80.000001%);stop-opacity:1;"/>
<stop offset="1" style="stop-color:rgb(73.725492%,74.901962%,76.862746%);stop-opacity:1;"/>
</linearGradient>
<linearGradient id="linear6" gradientUnits="userSpaceOnUse" x1="496" y1="0" x2="496" y2="1024" gradientTransform="matrix(0.244141,0,0,0.244141,0,0)">
<stop offset="0" style="stop-color:rgb(80.000001%,80.000001%,80.000001%);stop-opacity:1;"/>
<stop offset="1" style="stop-color:rgb(73.725492%,74.901962%,76.862746%);stop-opacity:1;"/>
</linearGradient>
<linearGradient id="linear7" gradientUnits="userSpaceOnUse" x1="496" y1="0" x2="496" y2="1024" gradientTransform="matrix(0.244141,0,0,0.244141,0,0)">
<stop offset="0" style="stop-color:rgb(80.000001%,80.000001%,80.000001%);stop-opacity:1;"/>
<stop offset="1" style="stop-color:rgb(73.725492%,74.901962%,76.862746%);stop-opacity:1;"/>
</linearGradient>
<linearGradient id="linear8" gradientUnits="userSpaceOnUse" x1="496" y1="0" x2="496" y2="1024" gradientTransform="matrix(0.244141,0,0,0.244141,0,0)">
<stop offset="0" style="stop-color:rgb(80.000001%,80.000001%,80.000001%);stop-opacity:1;"/>
<stop offset="1" style="stop-color:rgb(73.725492%,74.901962%,76.862746%);stop-opacity:1;"/>
</linearGradient>
<linearGradient id="linear9" gradientUnits="userSpaceOnUse" x1="496" y1="0" x2="496" y2="1024" gradientTransform="matrix(0.244141,0,0,0.244141,0,0)">
<stop offset="0" style="stop-color:rgb(80.000001%,80.000001%,80.000001%);stop-opacity:1;"/>
<stop offset="1" style="stop-color:rgb(73.725492%,74.901962%,76.862746%);stop-opacity:1;"/>
</linearGradient>
</defs>
<g id="surface1">
<rect x="0" y="0" width="250" height="250" style="fill:rgb(93.333334%,93.333334%,93.333334%);fill-opacity:1;stroke:none;"/>
<path style=" stroke:none;fill-rule:nonzero;fill:url(#linear0);" d="M 7.8125 0 L 15.625 0 L 15.625 250 L 7.8125 250 Z M 7.8125 0 "/>
<path style=" stroke:none;fill-rule:nonzero;fill:url(#linear1);" d="M 226.5625 0 L 234.375 0 L 234.375 250 L 226.5625 250 Z M 226.5625 0 "/>
<path style=" stroke:none;fill-rule:nonzero;fill:url(#linear2);" d="M 23.4375 0 L 31.25 0 L 31.25 250 L 23.4375 250 Z M 23.4375 0 "/>
<path style=" stroke:none;fill-rule:nonzero;fill:url(#linear3);" d="M 39.0625 0 L 54.6875 0 L 54.6875 250 L 39.0625 250 Z M 39.0625 0 "/>
<path style=" stroke:none;fill-rule:nonzero;fill:url(#linear4);" d="M 70.3125 0 L 85.9375 0 L 85.9375 250 L 70.3125 250 Z M 70.3125 0 "/>
<path style=" stroke:none;fill-rule:nonzero;fill:url(#linear5);" d="M 101.5625 0 L 125 0 L 125 250 L 101.5625 250 Z M 101.5625 0 "/>
<path style=" stroke:none;fill-rule:nonzero;fill:url(#linear6);" d="M 132.8125 0 L 140.625 0 L 140.625 250 L 132.8125 250 Z M 132.8125 0 "/>
<path style=" stroke:none;fill-rule:nonzero;fill:url(#linear7);" d="M 148.4375 0 L 156.25 0 L 156.25 250 L 148.4375 250 Z M 148.4375 0 "/>
<path style=" stroke:none;fill-rule:nonzero;fill:url(#linear8);" d="M 179.6875 0 L 187.5 0 L 187.5 250 L 179.6875 250 Z M 179.6875 0 "/>
<path style=" stroke:none;fill-rule:nonzero;fill:url(#linear9);" d="M 203.125 0 L 218.75 0 L 218.75 250 L 203.125 250 Z M 203.125 0 "/>
</g>
</svg>
