<svg id="OnDark" xmlns="http://www.w3.org/2000/svg" xmlns:xlink="http://www.w3.org/1999/xlink" viewBox="0 0 1880 1880"><defs><style>.cls-1{fill:none;}.cls-2{fill:#fff;}.cls-3{fill:#6ecff5;}.cls-4{fill:url(#radial-gradient);}.cls-5{fill:url(#radial-gradient-3);}.cls-6{fill:url(#radial-gradient-7);}.cls-7{fill:url(#radial-gradient-11);}.cls-8{fill:url(#radial-gradient-15);}.cls-9{fill:url(#radial-gradient-16);}.cls-10{fill:url(#radial-gradient-20);}.cls-11{clip-path:url(#clip-path);}.cls-12{fill:#28aae1;}</style><radialGradient id="radial-gradient" cx="955.29" cy="922.47" r="744.69" gradientUnits="userSpaceOnUse"><stop offset="0" stop-color="#28aae1"/><stop offset="0.36" stop-color="#29a8df"/><stop offset="0.56" stop-color="#2c9fd9"/><stop offset="0.73" stop-color="#3091cf"/><stop offset="0.88" stop-color="#377dc0"/><stop offset="1" stop-color="#3e67b0"/></radialGradient><radialGradient id="radial-gradient-3" cx="955.04" cy="922.47" r="744.69" xlink:href="#radial-gradient"/><radialGradient id="radial-gradient-7" cx="955.35" cy="922.47" r="744.69" xlink:href="#radial-gradient"/><radialGradient id="radial-gradient-11" cx="955.29" cy="922.05" r="744.69" xlink:href="#radial-gradient"/><radialGradient id="radial-gradient-15" cx="955.29" cy="922.84" r="744.69" xlink:href="#radial-gradient"/><radialGradient id="radial-gradient-16" cx="955.3" cy="922.47" r="744.69" xlink:href="#radial-gradient"/><radialGradient id="radial-gradient-20" cx="944.61" cy="945.57" r="751.99" xlink:href="#radial-gradient"/><clipPath id="clip-path"><circle class="cls-1" cx="940.65" cy="944.17" r="236.5"/></clipPath></defs><title>Artboard 1</title><g id="Logo"><path id="Outline" class="cls-2" d="M1825.17,989l-114.66-27.1L1564.3,927.36,1654,881l46-23.76-49.88-13.86-108.95-30.26,75.52-34.66-89.12-1.59-1,0,74.87-41.18,66.27-36.44-75.61-1.66-102.8-2.26,48.07-74.46,40-62-66.13,32.8L1410,641.9l144.76-167.63L1614,405.63l-82.89,36.8L1309.75,540.7,1352,415.54l23.87-70.67-56.41,48.82-58.66,50.77,34.92-212.88,13.28-81L1259.5,216l-39.36,52,4.38-37.37,10.76-91.81L1187,217.69,1077.11,397.27l1-126.68V151.41l-39.46,112.21-34.27,95.75L953.85,203.06,933,138.63,915,203.89,872.85,356,795.5,149.2l-49.78-133,10.5,141.67,18.23,246-65.87-59.72-43.87-39.78,10.23,58.33,15.52,88.59-128-125.94-86.88-85.46,54.47,109,41.35,82.75-58-21.15L474,396.11l13.08,39.77,12.24,37.23L389.57,448.37l-69.79-15.73L370.9,482.7l118,115.54L342.79,545.49l-103.5-37.37L322.63,580l104.18,89.61-187.64,2-68.19.65L228.1,709,388.59,812.22l-215.8,23.85L67,847.77l102.68,28.08,224.71,61.47-134.6,56.41-61.71,25.86,65.68,12.8,148.69,29-172,79.4L109.5,1201.23,252,1179.31l114.08-17.55-82.34,42.63-130.32,67.47,143.75-29.53,113.9-23.41L258,1351.05l-80.26,69.24,100.17-34.67,178-61.6L362,1469.38l-38.19,59.17,63.83-29.74,75.43-35.15-6.51,32.73L448.31,1538l37.59-19.59,111.39-58.07-44.7,96.77-53.47,115.77,86.79-93.43,84.5-90.94-10.3,82.07-6.93,55.24,40.88-37.8,55.87-51.68,8.16,51.3,7.16,45,28.69-35.44,27.8-34.37,7.68,80,9,94.07,30.43-89.47L912,1520.59l60.76,219,24.1,86.84,15.49-88.78,40.35-231.36,38.75,108.13,34.52,96.32,4.89-102.2,5.53-115.38.53.31,91.74,54.31,32.87,19.46-2.25-38.13-2.33-39.51,110.11,50.91,80.79,37.37-56.58-68.71-97.18-118,157.56,94.78,74.9,45-47.36-73.46-64.39-99.9h149.42l-26.56-33-74.24-92.34-3.28-4.08,27.3-2.56,53.92-5.07-43.95-31.64-30.61-22,179-9.88,60.35-3.33L1656,1119.81,1512.9,1023.3l195.15-21.43Z"/><g id="Logo-2" data-name="Logo"><g id="Diamond_Color_" data-name="Diamond (Color)"><polygon class="cls-3" points="412.22 483.2 536.56 607.71 684.85 666.83 573.76 461.97 520.25 442.1 540.64 510.38 412.22 483.2"/><polygon class="cls-3" points="778.62 524.14 770.46 433.94 709.31 380.44 722.56 468.6 778.62 524.14"/><polygon class="cls-3" points="942.2 515.48 988.57 386.55 937.61 236.22 896.84 383.49 942.2 515.48"/><polygon class="cls-3" points="1086.62 587.84 1238.48 444.64 1268.54 256.6 1184.97 364.13 1195.67 263.23 1088.15 435.98 1086.62 587.84"/><polygon class="cls-3" points="1328.47 762.63 1492.05 770.27 1567.47 726.45 1446.69 721.35 1501.73 633.19 1398.79 681.1 1328.47 762.63"/><polygon class="cls-3" points="1422.23 883.91 1544.54 911.94 1625.05 867.1 1528.23 837.03 1422.23 883.91"/><polygon class="cls-3" points="1328.47 1056.16 1459.94 1142.79 1625.05 1131.58 1491.03 1038.83 1328.47 1056.16"/><polygon class="cls-3" points="1377.9 1258.47 1425.29 1334.9 1511.41 1332.36 1449.24 1253.37 1377.9 1258.47"/><polygon class="cls-3" points="1235.61 1517.85 1233.06 1450.58 1357.4 1508.68 1267.71 1396.06 1158.15 1327.77 1157.13 1474.02 1235.61 1517.85"/><polygon class="cls-3" points="995.2 1698.76 1029.85 1503.58 988.06 1354.27 940.67 1513.26 995.2 1698.76"/><polygon class="cls-3" points="783.2 1572.38 814.29 1535.17 797.47 1373.63 701.16 1480.14 691.48 1561.16 771.99 1486.25 783.2 1572.38"/><polygon class="cls-3" points="490.19 1489.31 589.56 1438.35 683.83 1259.99 483.05 1338.47 399.48 1466.89 499.87 1420.52 490.19 1489.31"/><polygon class="cls-3" points="340.37 1208.53 442.29 1188.65 483.56 1152.98 424.96 1163.68 340.37 1208.53"/><polygon class="cls-3" points="291.95 1012.84 432.6 1040.36 541.66 990.93 417.31 959.84 291.95 1012.84"/><polygon class="cls-3" points="262.91 699.71 409.67 795.51 535.03 784.81 439.23 697.67 262.91 699.71"/></g><g id="Diamonds_Outline_" data-name="Diamonds (Outline)"><path class="cls-4" d="M789.36,1385.18l15.1,148.43L786,1556.38l-9.81-61.68-3.59-22.59-16.79,15.53-59.13,54.69,7.75-61.82,84.9-95.33m9.36-28.9L692.8,1475.21l-12.4,98.87,83.74-77.46,14.13,88.8,38.87-48-18.42-181.11Z"/><path class="cls-4" d="M984.14,1372.32,1020.68,1502l-31,177.54L943.49,1513l40.65-140.67m.15-44.57-53.51,185.17,61.66,222.19,40.77-233.73-48.92-173.63Z"/><path class="cls-5" d="M1161.82,1337.44l97,62.43,73.77,89.58-92.25-42.66-18.55-8.58,1.2,20.4,3,50.42-65.84-39,1.67-132.37m-12.67-22.47-2,161.77,91.73,54.3-4.33-73.38,140.9,65.15-109.06-132.42-117.2-75.42Z"/><path class="cls-4" d="M1484.55,1044.45l123.16,83-147.27,8.13-121.63-77.49,145.74-13.69m3.21-12.58-185.6,17.42,155,98.76,187.53-10.35-157-105.83Z"/><path class="cls-4" d="M1523.32,843l88.09,24.47-70.24,36.3L1438,880.07,1523.32,843m-.9-12.94L1399,883.66l143.76,33L1644.72,864l-122.3-34Z"/><path class="cls-4" d="M1486,641.65l-43.67,67.64-11.87,18.38,21.87.48,93.6,2.05-59,32.46-149.25-6.47L1400.6,684l85.4-42.36m34.38-30.71L1393,674.13l-81.24,93.17L1489.8,775l101.92-56-139.12-3.06,67.78-105Z"/><path class="cls-6" d="M1255.29,276.19l-27,164.7L1091.15,574l.73-137.9,93.5-152.77-6.58,56.21-5.24,44.64,27.13-35.84,54.6-72.11m20.54-46.76-84.41,111.49,13.07-111.49L1080.15,432.58,1079.24,603l160.92-156.17,35.67-217.42Z"/><path class="cls-4" d="M935.33,253l43.18,133.59L939.05,498.42,899.24,383.26,935.33,253m-.91-42.56-48,173.26,52.49,151.86,52.49-148.8-57-176.32Z"/><path class="cls-4" d="M713,393.23l48.57,44,7.24,72.52L725.6,464.93,713,393.23m-18.2-33,19.36,110.5,70.32,73-11.21-112.3-78.47-71.16Z"/><path class="cls-4" d="M525.78,450.75,566,465.42l102,188.17L538.55,602.51,424.34,490.68,527,513.82l21.05,4.74-6.74-20.49-15.57-47.32m-19.49-20.13,23.44,71.27L385,469.28,531.77,613l163.07,64.31L574.57,455.52l-68.28-24.9Z"/><path class="cls-7" d="M432.59,703.22l86.65,74.92L409.5,787.81,280.27,704.67l151.88-1.45m4.94-12.55-197.83,1.89L406.41,800.09l142.68-12.58-112-96.84Z"/><path class="cls-4" d="M415.16,965l110.22,25.09-96.93,42.27-118.77-23.15L415.16,965m-1.11-12.79L267.8,1013.52l162.05,31.6,134.53-58.68L414.05,952.23Z"/><path class="cls-4" d="M462.16,1160.37l-25.54,21.16-59.25,12.18,49.54-25.65,35.25-7.69m46.5-22.67-85.94,18.76-129.44,67,148.8-30.57,66.58-55.2Z"/><path class="cls-4" d="M668.27,1269.7l-87.53,163.63-87.1,45.4,9.35-47,4.72-23.67-21.88,10.2-73.31,34.15,70.33-109,185.42-73.77M694.84,1246l-220.15,87.58-95.44,147.86L491,1429.35l-14.34,72,113.08-59L694.84,1246Z"/><path class="cls-8" d="M1442,1258.05l54.37,67.62h-70.59l-42.43-65.14,58.65-2.48m5.66-11.71-86.27,3.65,57.76,88.68h102.74l-74.23-92.33Z"/></g><g id="Burst"><path class="cls-9" d="M1056.15,522.83l1.53-251.28-84.82,237A434.31,434.31,0,0,1,1056.15,522.83Z"/><path class="cls-4" d="M758.22,547.56,548.07,340.86,676.14,597.17A437.52,437.52,0,0,1,758.22,547.56Z"/><path class="cls-4" d="M907.78,508.66,776.37,157.4l27.57,372.07A433.44,433.44,0,0,1,907.78,508.66Z"/><path class="cls-4" d="M1351.51,795.13a431.66,431.66,0,0,1,19.83,74.7l155.91-71.56Z"/><path class="cls-10" d="M1353,944.07a412.73,412.73,0,0,0-2.5-45.26l-28.07-6.64,25.65-11.77A408.86,408.86,0,0,0,1325,794.66l-71.84-1.28L1299,740.27a415.18,415.18,0,0,0-163.54-159.46l-80.32,69.52.62-102.13a410.05,410.05,0,0,0-91.71-15.67l-23.25,65L916.53,532.6a409.39,409.39,0,0,0-110.92,22.07l3.17,42.82-32-31.52a412.84,412.84,0,0,0-89.66,53.47l44.59,89.24L631.1,672.38a413.59,413.59,0,0,0-62.35,94.34l48.42,41.74L549,816a410.48,410.48,0,0,0-20.4,128.07c0,3.35,0,6.69.13,10l104.75,28.66L537,1027.27a409.11,409.11,0,0,0,27.25,84.5l4-.61-3.06,2.64a413.9,413.9,0,0,0,85.12,122.43l87.21-30.18-34.45,74.58a411.69,411.69,0,0,0,89.08,47.9l24.78-26.68,3.5,36.48a410.73,410.73,0,0,0,120.38,18c2,0,3.93,0,5.89-.07l35.7-105,35.09,97.9A408.8,408.8,0,0,0,1124.61,1313l2.16-45.09,37.4,22.5a414.53,414.53,0,0,0,161.59-198.91L1245,1033.32l100.56-11A413.07,413.07,0,0,0,1353,944.07Z"/><path class="cls-4" d="M1705.87,982.75l-330-78c1.16,13,1.79,26.07,1.79,39.32a438,438,0,0,1-6.54,75.42Z"/><path class="cls-4" d="M1155.38,563.76a440,440,0,0,1,160.71,157l223.32-258.61-263.64,117,57.08-169Z"/><path class="cls-4" d="M514.5,1037.77,249.11,1160.29l290.37-44.67A433,433,0,0,1,514.5,1037.77Z"/><path class="cls-4" d="M1026,1372.41l84.62,236.12,12.82-267.79A433.07,433.07,0,0,1,1026,1372.41Z"/><path class="cls-4" d="M1346.45,1106.21a439.06,439.06,0,0,1-158.91,198.09l274.64,165.2-158.6-246,182-17.09Z"/><path class="cls-4" d="M823.15,1364.57l26.6,277.32,88.82-261.18A435.73,435.73,0,0,1,823.15,1364.57Z"/><path class="cls-4" d="M692.86,1303.16,571.17,1566.6l203.35-218.87A436.23,436.23,0,0,1,692.86,1303.16Z"/><path class="cls-4" d="M504.35,944.07a435.54,435.54,0,0,1,18.3-125.14L175.2,857.34l329.19,90C504.38,946.28,504.35,945.18,504.35,944.07Z"/><path class="cls-4" d="M606.71,663.5,335.79,565.68l214,184.54A437.82,437.82,0,0,1,606.71,663.5Z"/><path class="cls-4" d="M546.16,1130.4,271.4,1367.46,625,1245.08A438.43,438.43,0,0,1,546.16,1130.4Z"/></g><g id="CenterN"><circle class="cls-2" cx="940.65" cy="944.17" r="293.5"/><g id="N"><g class="cls-11"><path class="cls-12" d="M1064.15,1013V731.67h129v422H1062.67L825.15,871.16v282.51h-130v-422H827.61Z"/></g></g></g></g></g></svg>