<svg width="450" height="450" viewBox="0 0 450 450" fill="none" xmlns="http://www.w3.org/2000/svg">
<g clip-path="url(#clip0_1_50)">
<path d="M365.294 0H84.7059C37.9241 0 0 37.9241 0 84.7059V365.294C0 412.076 37.9241 450 84.7059 450H365.294C412.076 450 450 412.076 450 365.294V84.7059C450 37.9241 412.076 0 365.294 0Z" fill="black"/>
<g clip-path="url(#clip1_1_50)">
<path d="M353.097 253.877C353.097 253.877 353.159 253.824 353.194 253.797C346.331 245.208 339.468 236.618 332.614 228.02H281.422C292.252 241.559 303.091 255.09 313.921 268.63C314.727 269.524 316.099 271.313 316.657 273.925C316.684 274.058 316.896 275.156 316.896 276.237C316.896 282.426 311.875 287.447 305.686 287.447C302.329 287.447 299.319 285.968 297.264 283.631C289.87 274.377 282.476 265.114 275.091 255.834C267.705 246.563 260.32 237.291 252.952 228.02H201.335C204.071 231.455 206.825 234.882 209.579 238.318C217.992 248.794 226.404 259.261 234.826 269.719C235.348 270.498 236.039 271.694 236.491 273.279C236.491 273.279 236.986 274.961 236.986 276.555C236.986 282.657 232.036 287.607 225.935 287.607C222.34 287.607 219.143 285.889 217.124 283.241C217.106 283.214 217.089 283.188 217.071 283.17C202.495 264.787 187.928 246.403 173.353 228.02H121.647C147.876 260.811 174.114 293.602 200.352 326.393C200.768 326.968 201.22 327.535 201.698 328.066C201.787 328.173 201.867 328.288 201.955 328.394C201.964 328.394 201.973 328.394 201.982 328.394C205.754 332.459 211.138 335.009 217.124 335.009C223.11 335.009 228.698 332.361 232.47 328.164C232.47 328.181 232.488 328.19 232.488 328.208C240.821 318.095 249.154 307.974 257.486 297.861C265.252 307.487 273.01 317.112 280.785 326.729C282.671 329.244 285.106 331.307 287.922 332.751C290.747 334.194 293.935 335.009 297.317 335.009C303.853 335.009 309.679 331.963 313.46 327.225H313.505C316.631 323.506 319.748 319.787 322.865 316.067C332.561 303.768 342.249 291.468 351.945 279.176C352.494 278.557 353.008 277.901 353.486 277.219C353.495 277.202 353.504 277.193 353.513 277.184C355.735 273.952 357.046 270.047 357.046 265.823C357.046 261.351 355.576 257.215 353.097 253.886V253.877Z" fill="url(#paint0_linear_1_50)"/>
<path d="M325.486 219.102C300.257 187.516 275.029 155.92 249.809 124.325C246.214 118.958 240.095 115.425 233.152 115.425C227.095 115.425 221.667 118.126 217.992 122.376C217.992 122.376 217.989 122.371 217.983 122.359C209.615 132.507 201.247 142.646 192.87 152.794C185.298 143.337 177.727 133.871 170.147 124.422C168.314 121.588 165.799 119.233 162.841 117.586C159.875 115.939 156.466 115 152.844 115C146.557 115 140.925 117.825 137.143 122.27C137.143 122.252 137.135 122.244 137.135 122.235C124.109 138.688 111.082 155.141 98.0475 171.594C97.5516 172.152 97.0911 172.736 96.6572 173.347C96.6395 173.374 96.6218 173.392 96.6041 173.418H96.6129C94.3371 176.668 93 180.617 93 184.877C93 189.535 94.5939 193.821 97.2594 197.221C97.2062 197.265 97.1531 197.31 97.1 197.345C102.9 204.597 108.709 211.85 114.509 219.102H166.286C156.315 206.519 146.335 193.936 136.364 181.352C135.443 180.555 133.672 178.784 132.769 175.951C132.61 175.446 132.238 174.109 132.238 172.559C132.238 166.52 137.143 161.614 143.183 161.614C147.3 161.614 150.896 163.89 152.755 167.255C166.543 184.549 180.348 201.835 194.189 219.102H245.851C235.57 206.191 225.262 193.289 214.955 180.396L214.99 180.369C214.184 179.546 212.741 177.855 212.05 175.295C211.979 175.03 211.669 173.746 211.669 172.409C211.669 166.281 216.637 161.313 222.765 161.313C224.315 161.313 225.554 161.649 226.095 161.818C229.628 162.942 231.567 165.59 232.222 166.6C239.227 175.322 246.231 184.053 253.236 192.793C260.258 201.56 267.271 210.327 274.285 219.102H325.486Z" fill="white"/>
</g>
</g>
<defs>
<linearGradient id="paint0_linear_1_50" x1="239.346" y1="228.02" x2="239.346" y2="335.009" gradientUnits="userSpaceOnUse">
<stop stop-color="white"/>
<stop offset="1" stop-color="white" stop-opacity="0"/>
</linearGradient>
<clipPath id="clip0_1_50">
<rect width="450" height="450" fill="white"/>
</clipPath>
<clipPath id="clip1_1_50">
<rect width="264.046" height="220" fill="white" transform="translate(93 115)"/>
</clipPath>
</defs>
</svg>
