<svg height="250" viewBox="0 0 250 250" width="250" xmlns="http://www.w3.org/2000/svg" xmlns:xlink="http://www.w3.org/1999/xlink"><clipPath id="a"><path d="m0 49h112v201h-112zm0 0"/></clipPath><clipPath id="b"><path d="m36.054688 174.476562 63.28125 31.160157v25.84375l-86.207032-42.394531v-121.707032l17.050782-8.378906-6.28125-9.257812-23.332032 11.464843v134.023438l111.332032 54.769531v-50.535156l-69.5625-34.21875zm0 0"/></clipPath><linearGradient id="c"><stop offset="0" stop-color="#35b7ea"/><stop offset=".13" stop-color="#35b7ea"/><stop offset="1" stop-color="#304ba0"/></linearGradient><linearGradient id="d" gradientTransform="matrix(0 348.982825 400.858651 0 -45393.645741 9875.499658)" gradientUnits="userSpaceOnUse" x1="-28.35" x2="-27.35" xlink:href="#c" y1="113.389999" y2="113.389999"/><clipPath id="e"><path d="m46 0h158v48h-158zm0 0"/></clipPath><clipPath id="f"><path d="m125.035156 12.347656 72.160156 35.511719 6.28125-9.261719-78.441406-38.597656-78.445312 38.570312 6.28125 9.261719zm0 0"/></clipPath><linearGradient id="g" gradientTransform="matrix(0 348.982825 400.858651 0 -45324.827172 9875.499658)" gradientUnits="userSpaceOnUse" x1="-28.35" x2="-27.35" xlink:href="#c" y1="113.389999" y2="113.389999"/><clipPath id="h"><path d="m46 38h158v49h-158zm0 0"/></clipPath><clipPath id="i"><path d="m125.035156 50.652344 72.160156 35.511718 6.28125-9.257812-78.441406-38.570312-78.445312 38.570312 6.28125 9.257812zm0 0"/></clipPath><clipPath id="j"><path d="m138 49h112v201h-112zm0 0"/></clipPath><clipPath id="k"><path d="m226.101562 49.742188-6.28125 9.257812 17.050782 8.378906v121.707032l-86.207032 42.394531v-25.84375l63.988282-31.484375-6.28125-9.257813-70.269532 34.570313v50.535156l111.332032-54.769531v-134.023438zm0 0"/></clipPath><linearGradient id="l" gradientTransform="matrix(0 348.982825 400.858651 0 -45256.110829 9875.499658)" gradientUnits="userSpaceOnUse" x1="-28.35" x2="-27.35" xlink:href="#c" y1="113.389999" y2="113.389999"/><clipPath id="m"><path d="m89 86h72v82h-72zm0 0"/></clipPath><clipPath id="n"><path d="m114.195312 148.222656c-.496093.03125-.992187.03125-1.488281 0 0 0-.300781-.144531-.300781-.261718-.121094-.40625-.1875-.820313-.203125-1.234376 0-2.058593 0-4.117187 0-6.144531 0-2.03125 0-3.824219 0-5.878906-.019531-.285156-.019531-.570313 0-.855469.101563-.261718.335937-.46875.640625-.558594h23.636719c1.148437-.035156 2.292969.113282 3.378906.441407 3.035156.894531 5.144531 3.300781 5.332031 6.085937.148438 1.195313.019532 2.402344-.371094 3.558594-1.039062 2.804688-3.976562 4.75-7.359374 4.878906h-23.265626m0-28.222656c-.484374.03125-.96875.03125-1.453124 0-.15625-.050781-.28125-.15625-.335938-.292969-.03125-.34375-.03125-.6875 0-1.03125 0-1.851562 0-3.671875 0-5.523437 0-1.855469 0-3.117188 0-4.644532-.054688-.421874-.054688-.847656 0-1.265624.023438-.222657.21875-.402344.472656-.441407h22.148438c2.082031-.058593 4.097656.632813 5.574218 1.910157 1.058594.964843 1.691407 2.226562 1.789063 3.558593v2.117188c-.292969 2.796875-2.75 5.058593-5.941406 5.464843-.8125 0-1.65625 0-2.46875 0h-19.921875m-12.191406-33.6875h-.976563c-.417969.054688-.734375.367188-.742187.734376v3.617187 2.117187c-.066407.363282-.421876.636719-.847657.644532h-8.070312c-.480469-.042969-.96875-.042969-1.449219 0-.234375.058594-.429688.195312-.542969.382812-.050781.203125-.050781.414063 0 .617188v11.230468c-.050781.203126-.050781.414063 0 .617188.035157.144531.148438.265625.304688.324219.328125.027343.65625.027343.980469 0h4.253906c.402344-.042969.8125-.042969 1.214844 0 .234374.054687.410156.230469.441406.441406.050781.554687.050781 1.117187 0 1.675781v27.132813 1.910156 2.734375 1.058594 4.851562c.015625.28125.015625.566406 0 .851563.007812.214843-.085938.425781-.257813.582031-.171875.152344-.40625.242188-.65625.242188h-5.605469c-.429687 0-.777343.300781-.777343.675781v1.058593 9.554688 1.261719c.097656.273437.355469.476562.675781.53125.496094.027343.992188.027343 1.488281 0h7.730469c.25-.027344.496094.042969.679688.191406.179687.144531.277343.355469.265624.570313v2.53125 1.910156c.035157.289062.308594.515625.644532.527344h12.929687 1.25c.332031-.046876.589844-.269532.644531-.558594 0-.351563 0-.703125 0-1.058594 0-.910156 0-1.820312 0-2.761719-.050781-.273437-.050781-.550781 0-.824219.089844-.191406.257813-.347656.472657-.441406.230469-.042968.472656-.042968.707031 0h2.5c1.722656 0 1.824219.265625 1.855469 1.617188.035156 1.351562 0 1.96875 0 2.941406 0 .96875 0 1.292969 1.621093 1.320312h13.035157c.777343 0 1.113281-.261718 1.113281-.851562 0-.585938 0-1.703125 0-2.558594 0-.851562 0-1.117187 0-1.675781.058594-.367187.390625-.652344.8125-.703125h1.722656c9.992188-.695312 18.355469-6.875 20.765625-15.347656 1.707031-5.785156.480469-11.929688-3.375-16.871094l-.40625-.53125-1.6875-2.058594c-.285156-.253906-.546875-.527344-.777343-.820312-.066407-.121094-.066407-.261719 0-.382813.304687-.5.640624-1 .980468-1.472656 1.363282-1.847656 2.328125-3.902344 2.835938-6.054687.589844-2.578126.65625-5.222657.203125-7.820313-.609375-3.527344-2.339844-6.835937-5-9.554687-3.535157-3.589844-8.4375-5.960938-13.808594-6.671876-2.0625-.292968-2.027344-.234374-2.027344-2.175781v-4c.035157-.28125.035157-.566406 0-.851562-.066406-.132813-.1875-.238281-.339843-.292969-.324219-.03125-.652344-.03125-.976563 0h-12.730469c-.324218-.058594-.65625-.058594-.980468 0-.21875.070312-.390626.222656-.472657.410156-.050781.34375-.050781.6875 0 1.03125v4.027344c.050781.351562.050781.707031 0 1.058594-.105469.183594-.285156.332031-.507812.410156-.15625.03125-.316407.03125-.472657 0h-3.375c-.292968.011719-.578124-.089844-.777343-.277344-.203125-.1875-.300781-.4375-.269531-.691406 0-1.265625 0-2.558594 0-3.824219 0-.558593 0-1.117187 0-1.675781-.046876-.363281-.390626-.648438-.8125-.675781h-13.40625"/></clipPath><g clip-path="url(#a)"><g clip-path="url(#b)"><path d="m.566406 49.742188h111.332032v200.257812h-111.332032zm0 0" fill="url(#d)"/></g></g><g clip-path="url(#e)"><g clip-path="url(#f)"><path d="m46.589844 0h156.851562v47.859375h-156.851562zm0 0" fill="url(#g)"/></g></g><g clip-path="url(#h)"><g clip-path="url(#i)"><path d="m46.589844 38.335938h156.851562v47.859374h-156.851562zm0 0" fill="url(#g)"/></g></g><g clip-path="url(#j)"><g clip-path="url(#k)"><path d="m138.101562 49.742188h111.332032v200.257812h-111.332032zm0 0" fill="url(#l)"/></g></g><g clip-path="url(#m)"><g clip-path="url(#n)"><path d="m89.136719 86.164062h72.636719v81.140626h-72.636719zm0 0" fill="url(#g)"/></g></g></svg>