<svg id="Layer_1" data-name="Layer 1" xmlns="http://www.w3.org/2000/svg" viewBox="0 0 1042.53 1042.53"><defs><clipPath id="clip-path" transform="translate(1128.05 573.26)"><path class="cls-2" d="M-211.51-232.88h1.79v2.18h-1.79z"/></clipPath><clipPath id="clip-path-2" transform="translate(1128.05 573.26)"><path class="cls-2" d="M-211.51-232.88c.37.72.72 1.47 1 2.19l.75-.75z"/></clipPath><linearGradient id="linear-gradient" x1="22.69" y1="1415.82" x2="25.02" y2="1415.82" gradientTransform="matrix(0 -.84 -.84 0 984.27 -211.23)" gradientUnits="userSpaceOnUse"><stop offset="0"/><stop offset=".28" stop-color="#4e4e4e"/><stop offset=".63" stop-color="#acacac"/><stop offset=".88" stop-color="#e8e8e8"/><stop offset="1" stop-color="#fff"/></linearGradient><style>.cls-2,.cls-4{fill:#012b55}.cls-2,.cls-8{stroke:#379bd6;stroke-miterlimit:10;stroke-width:3.29px}.cls-8{fill:none}</style><mask id="mask" x="913.57" y="337.56" width="7.72" height="7.83" maskUnits="userSpaceOnUse"><path transform="rotate(-23.55 1728.395 -2650.9)" fill="url(#linear-gradient)" d="M-211.87-233.14h2.51v2.72h-2.51z"/></mask></defs><g opacity=".3"><path class="cls-4" d="M916.54 340.38h1.79v2.18h-1.79z"/><g clip-path="url(#clip-path)"><path class="cls-4" d="M-211.51-232.88c.37.72.72 1.47 1 2.19l.75-.75z" transform="translate(1128.05 573.26)"/><g mask="url(#mask)" clip-path="url(#clip-path-2)"><path class="cls-2" transform="rotate(-23.55 1728.395 -2650.9)" d="M-211.87-233.14h2.51v2.72h-2.51z"/></g><path class="cls-8" d="M-211.51-232.88c.37.72.72 1.47 1 2.19l.75-.75z" transform="translate(1128.05 573.26)"/></g><path class="cls-8" d="M916.54 340.38h1.79v2.18h-1.79z"/></g><path fill-rule="evenodd" stroke-width="3.29" stroke-miterlimit="10" stroke="#379bd6" fill="#012b55" d="M647.98 735.03l.33-.13-.13-.35-.2.48z"/><circle cx="521.27" cy="521.27" r="498.05" stroke-width="46.44" stroke="#fff" stroke-miterlimit="10" fill="#012b55"/><path class="cls-4" d="M-564.87-142.35h-88.88v60.44h88.88a27.8 27.8 0 006.31-.72A27.86 27.86 0 00-537-109.72v-4.76a27.9 27.9 0 00-27.84-27.87m7.47 120.79h-96.35v67.38h96.35a31.2 31.2 0 0031.19-31.18v-5a31.22 31.22 0 00-31.22-31.2m0 0h-96.35v67.38h96.35a31.2 31.2 0 0031.19-31.18v-5a31.22 31.22 0 00-31.19-31.2m-7.47-120.79h-88.88v60.44h88.88a27.8 27.8 0 006.31-.72A27.86 27.86 0 00-537-109.72v-4.76a27.9 27.9 0 00-27.84-27.87m0 0h-88.88v60.44h88.88a27.8 27.8 0 006.31-.72A27.86 27.86 0 00-537-109.72v-4.76a27.9 27.9 0 00-27.84-27.87m7.47 120.79h-96.35v67.38h96.35a31.2 31.2 0 0031.19-31.18v-5a31.22 31.22 0 00-31.22-31.2m0 0h-96.35v67.38h96.35a31.2 31.2 0 0031.19-31.18v-5a31.22 31.22 0 00-31.19-31.2m-7.47-120.79h-88.88v60.44h88.88a27.8 27.8 0 006.31-.72A27.86 27.86 0 00-537-109.72v-4.76a27.9 27.9 0 00-27.84-27.87m0 0h-88.88v60.44h88.88a27.8 27.8 0 006.31-.72A27.86 27.86 0 00-537-109.72v-4.76a27.9 27.9 0 00-27.84-27.87m7.47 120.79h-96.35v67.38h96.35a31.2 31.2 0 0031.19-31.18v-5a31.22 31.22 0 00-31.22-31.2m354.56-222.37l-48.48 48.51H-334L-484.3-45.15A91.22 91.22 0 01-465.87 9.6v5a91.65 91.65 0 01-91.53 91.53h-1v26.65h-60.35v-26.61h-21.43v26.65h-60.34v-26.65h-42.31V45.82h28.77V8.58h-42l-67 57.07-67.23-67.15-127 127a444.43 444.43 0 0037.1 68.5 449.45 449.45 0 0058.63 71.58c2.32 2.3 4.64 4.55 7 6.78 1.55 1.51 3.13 3 4.74 4.44.11.11.23.23.34.32 16.26-13.79 35.11-23.75 54.94-32.6 18-8 36.87-15.21 55.26-23.47 69.77-30.79 142.15-55.54 212.32-33.28l.34-.09a.35.35 0 00.45.24c.34-.1.44.23.79.14 21.54 5.08 45 6.59 65.89.94 22.17-6.4 45.53-9 67.38-16.46 22.32-7.2 44.82-13.72 68-14.39 17.67-.12 38.38-2.67 48.34 13.88 10.52 17.14-8.75 30.58-21.4 39.73C-373.76 224-394.21 229.86-414 234s-39.64 6.09-59.58 9.92c-2.86.49-5.71 1-8.94 1.6-.33.09-.67.21-1 .3-19.85 4.2-39.71 9.52-58.28 17.84-23 9.84-43.47 23.51-62 40.23-1.37 1.23-2.74 2.49-4.09 3.76-2.9 2.77 1.76 7 4.69 4.21a237.16 237.16 0 0158.95-40.26c5-2.28 9.69-4.11 14.77-6l5.74-2.14c5.43-2 10.93-3.71 16.46-5.41.09.35 1.37-.42 1.37-.42l10.56-2.46c4.23-.92 8-2.09 12.28-3a2.67 2.67 0 001.82-.18l15.72-2.9c24.72-4.18 50-6.62 73.79-13.91-6.92 8.15-12.4 17.37-18 26.24-7.39 11.67-13.84 23.84-20 35.91-13 24-26.29 48.39-44.59 68.69l-.69.21c-22.1 12.79-48.37 18.18-73.67 21.78-25.75 3.34-51.78 4.5-77.93 5.34-4.39.21-8.8.39-13.19.58 2.72.21 5.41.37 8.13.53 2.49.14 5 .26 7.43.35h1.18c1.4.05 2.79.1 4.2.12s2.54.09 3.82.09c.76 0 1.53.05 2.32.05 2 0 4 .05 6 .05A445.71 445.71 0 00-285.45 258.9 445.69 445.69 0 00-159.68-52a445.25 445.25 0 00-43.16-192m-267.55 418.36c7.08-13 16.41-24.73 25.75-36.47 10.28-13.56 18.92-27.73 27.77-42.36 8.19-14.42 17.6-28.46 30.73-38.68a85.1 85.1 0 0126.27-13 70.12 70.12 0 0117.11-3.13c-10.59 8.75-19.11 20.61-26.7 31.87-5.41 7.23-10.36 14.7-15.77 21.9-6.08 7.43-12.28 14.51-18.83 21.69-12.37 14.16-25.33 28.86-32.6 46.39-11.42 3.37-22.64 7.41-33.73 11.77m48.06-18a21 21 0 00-4.6 1c7-14.2 17.21-26.37 27.54-38.21 11.4-13.29 22.1-26.35 32-40.73 9.47-14.58 19.67-29.4 33.74-40.08C-321.4 28.94-303 21.4-288.22 29c.12 4.1-1.67 8.05-2.78 11.79a78.27 78.27 0 00-12.84 2.44c-17.56 4.22-30.56 17.22-41 31.34s-19.32 29.31-32.72 40.94c-12.47 11-26.07 20.8-31.16 37.43-4.57 1-9.19 2.06-13.65 3.43m146-76.32c-6.54 10.68-13.16 21-19.82 31.35-12.57 19.29-25.36 37.92-37.92 57.21-6.09-7.57-15.56-12.59-24.61-15.09-13.35-4.2-28.31-3.79-42.73-1.65 4.88-13.56 18-22.47 28.73-31.79 12.26-10.54 20.57-24 30-37.47 9.21-13 19.69-25.64 35.24-31.51 14.17-5.48 33.37-6.83 46.72 2.3-4.34 9.24-10.38 17.88-15.63 26.65m-546.5-20.68l65-55.41h43.74v-146.31h-28.77v-60.34h42.31v-32.62h60.34v32.62h21.43v-32.62h60.35v33a88.24 88.24 0 0181.75 87.86v4.76a87.28 87.28 0 01-17.85 53 86.55 86.55 0 017.34 7.87L-336-200.07h82.71l48.29-48.27c-2.71-5.57-5.57-11.1-8.52-16.56a449 449 0 00-86.67-112.52c-30.49 24.13-69.27 36.21-106.21 52.83l-1.37.6c-69.33 30.49-141.23 54.8-210.92 32.67l-.35.12a.37.37 0 00-.47-.26c-.32.09-.44-.23-.79-.14-21.52-5.08-45-6.59-65.89-.95-22.17 6.41-45.51 9-67.36 16.46-22.31 7.2-44.84 13.72-68 14.4-17.69.11-38.38 2.67-48.36-13.89-10.52-17.13 8.75-30.57 21.43-39.73 16.6-12.23 37.06-18.13 56.88-22.31s39.6-6.08 59.6-9.91c2.88-.49 5.74-1 8.94-1.6l1-.31c19.83-4.2 39.69-9.52 58.29-17.83 24.07-10.31 45.41-24.84 64.66-42.68.49-.44 1-.88 1.44-1.32 2.93-2.76-1.76-7-4.69-4.2a238 238 0 01-59 40.28c-4.95 2.26-9.69 4.09-14.75 6l-5.76 2.13c-5.41 2-10.93 3.72-16.44 5.41-.11-.35-1.39.42-1.39.42l-10.54 2.46c-4.25 1-8 2.09-12.28 3a2.8 2.8 0 00-1.84.19l-15.69 2.9c-24.75 4.18-50 6.62-73.82 13.91 7-8.15 12.43-17.37 18-26.24 7.36-11.68 13.84-23.84 19.94-35.92 13-24 26.31-48.39 44.61-68.68.35-.12.69-.21.69-.21 22.11-12.8 48.37-18.18 73.65-21.78 25.76-3.32 51.81-4.5 78-5.34 3.86-.19 7.71-.35 11.56-.51q-19.47-1.68-39.35-1.7c-247 0-447.11 200.17-447.11 447.13a445.21 445.21 0 0034.67 172.85l128.92-128.9zm79.62-335.08c-6.92 13.05-16.12 24.92-25.34 36.76-10.14 13.67-18.59 27.93-27.28 42.67-8 14.51-17.25 28.66-30.3 39A84.44 84.44 0 01-852.28-144a71.58 71.58 0 01-17.09 3.34c10.5-8.87 18.88-20.85 26.36-32.2 5.31-7.27 10.17-14.8 15.51-22.06 6-7.5 12.1-14.65 18.57-21.9 12.22-14.33 25-29.16 32.07-46.78 11.38-3.49 22.54-7.67 33.6-12.15M-951-157.16c4.34-9.26 10.36-17.88 15.61-26.65 6.54-10.68 13.18-21 19.82-31.35 12.57-19.3 25.36-37.92 37.92-57.24 6.08 7.57 15.56 12.61 24.61 15.12 13.35 4.2 28.31 3.79 42.73 1.63-4.88 13.58-18 22.47-28.73 31.78-12.23 10.57-20.54 24-30 37.48-9.22 13-19.69 25.63-35.24 31.51-14.17 5.48-33.35 6.82-46.7-2.28m27.45 24.38c-.12-4.08 1.69-8 2.81-11.79a76 76 0 0012.83-2.43c17.58-4.22 30.56-17.25 41-31.35s19.32-29.3 32.72-40.93c12.49-11 26.07-20.81 31.16-37.43 4.59-1 9.19-2.06 13.67-3.43a20.87 20.87 0 004.58-1.05c-7 14.23-17.21 26.4-27.54 38.24-11.4 13.28-22.1 26.33-32 40.7-9.48 14.61-19.67 29.4-33.74 40.1-12.19 9.41-30.65 16.93-45.39 9.36m269.76 178.6h96.35a31.2 31.2 0 0031.19-31.18v-5a31.22 31.22 0 00-31.27-31.19h-96.35zm95.19-128.45A27.86 27.86 0 00-537-109.72v-4.76a27.9 27.9 0 00-27.84-27.87h-88.88v60.44h88.88a27.8 27.8 0 006.31-.72m-6.31-59.72h-88.88v60.44h88.88a27.8 27.8 0 006.31-.72A27.86 27.86 0 00-537-109.72v-4.76a27.9 27.9 0 00-27.84-27.87m7.47 120.79h-96.35v67.38h96.35a31.2 31.2 0 0031.19-31.18v-5a31.22 31.22 0 00-31.22-31.2m0 0h-96.35v67.38h96.35a31.2 31.2 0 0031.19-31.18v-5a31.22 31.22 0 00-31.19-31.2m-7.47-120.79h-88.88v60.44h88.88a27.8 27.8 0 006.31-.72A27.86 27.86 0 00-537-109.72v-4.76a27.9 27.9 0 00-27.84-27.87m0 0h-88.88v60.44h88.88a27.8 27.8 0 006.31-.72A27.86 27.86 0 00-537-109.72v-4.76a27.9 27.9 0 00-27.84-27.87m7.47 120.79h-96.35v67.38h96.35a31.2 31.2 0 0031.19-31.18v-5a31.22 31.22 0 00-31.22-31.2m0 0h-96.35v67.38h96.35a31.2 31.2 0 0031.19-31.18v-5a31.22 31.22 0 00-31.19-31.2m-7.47-120.79h-88.88v60.44h88.88a27.8 27.8 0 006.31-.72A27.86 27.86 0 00-537-109.72v-4.76a27.9 27.9 0 00-27.84-27.87m0 0h-88.88v60.44h88.88a27.8 27.8 0 006.31-.72A27.86 27.86 0 00-537-109.72v-4.76a27.9 27.9 0 00-27.84-27.87m7.47 120.79h-96.35v67.38h96.35a31.2 31.2 0 0031.19-31.18v-5a31.22 31.22 0 00-31.22-31.2m0 0h-96.35v67.38h96.35a31.2 31.2 0 0031.19-31.18v-5a31.22 31.22 0 00-31.19-31.2m-7.47-120.79h-88.88v60.44h88.88a27.8 27.8 0 006.31-.72A27.86 27.86 0 00-537-109.72v-4.76a27.9 27.9 0 00-27.84-27.87" transform="translate(1128.05 573.26)"/><circle cx="521.27" cy="521.27" r="498.05" stroke-width="46.44" fill="none" stroke-miterlimit="10" stroke="#379bd6"/><path d="M-564.87-142.35h-88.88v60.44h88.88a27.8 27.8 0 006.31-.72A27.86 27.86 0 00-537-109.72v-4.76a27.9 27.9 0 00-27.84-27.87m7.47 120.79h-96.35v67.38h96.35a31.2 31.2 0 0031.19-31.18v-5a31.22 31.22 0 00-31.22-31.2m0 0h-96.35v67.38h96.35a31.2 31.2 0 0031.19-31.18v-5a31.22 31.22 0 00-31.19-31.2m-7.47-120.79h-88.88v60.44h88.88a27.8 27.8 0 006.31-.72A27.86 27.86 0 00-537-109.72v-4.76a27.9 27.9 0 00-27.84-27.87m0 0h-88.88v60.44h88.88a27.8 27.8 0 006.31-.72A27.86 27.86 0 00-537-109.72v-4.76a27.9 27.9 0 00-27.84-27.87m7.47 120.79h-96.35v67.38h96.35a31.2 31.2 0 0031.19-31.18v-5a31.22 31.22 0 00-31.22-31.2m0 0h-96.35v67.38h96.35a31.2 31.2 0 0031.19-31.18v-5a31.22 31.22 0 00-31.19-31.2m-7.47-120.79h-88.88v60.44h88.88a27.8 27.8 0 006.31-.72A27.86 27.86 0 00-537-109.72v-4.76a27.9 27.9 0 00-27.84-27.87m0 0h-88.88v60.44h88.88a27.8 27.8 0 006.31-.72A27.86 27.86 0 00-537-109.72v-4.76a27.9 27.9 0 00-27.84-27.87m7.47 120.79h-96.35v67.38h96.35a31.2 31.2 0 0031.19-31.18v-5a31.22 31.22 0 00-31.22-31.2m354.56-222.37l-48.48 48.51H-334L-484.3-45.15A91.22 91.22 0 01-465.87 9.6v5a91.65 91.65 0 01-91.53 91.53h-1v26.65h-60.35v-26.61h-21.43v26.65h-60.34v-26.65h-42.31V45.82h28.77V8.58h-42l-67 57.07-67.23-67.15-127 127a444.43 444.43 0 0037.1 68.5 449.45 449.45 0 0058.63 71.58c2.32 2.3 4.64 4.55 7 6.78 1.55 1.51 3.13 3 4.74 4.44.11.11.23.23.34.32 16.26-13.79 35.11-23.75 54.94-32.6 18-8 36.87-15.21 55.26-23.47 69.77-30.79 142.15-55.54 212.32-33.28l.34-.09a.35.35 0 00.45.24c.34-.1.44.23.79.14 21.54 5.08 45 6.59 65.89.94 22.17-6.4 45.53-9 67.38-16.46 22.32-7.2 44.82-13.72 68-14.39 17.67-.12 38.38-2.67 48.34 13.88 10.52 17.14-8.75 30.58-21.4 39.73C-373.76 224-394.21 229.86-414 234s-39.64 6.09-59.58 9.92c-2.86.49-5.71 1-8.94 1.6-.33.09-.67.21-1 .3-19.85 4.2-39.71 9.52-58.28 17.84-23 9.84-43.47 23.51-62 40.23-1.37 1.23-2.74 2.49-4.09 3.76-2.9 2.77 1.76 7 4.69 4.21a237.16 237.16 0 0158.95-40.26c5-2.28 9.69-4.11 14.77-6l5.74-2.14c5.43-2 10.93-3.71 16.46-5.41.09.35 1.37-.42 1.37-.42l10.56-2.46c4.23-.92 8-2.09 12.28-3a2.67 2.67 0 001.82-.18l15.72-2.9c24.72-4.18 50-6.62 73.79-13.91-6.92 8.15-12.4 17.37-18 26.24-7.39 11.67-13.84 23.84-20 35.91-13 24-26.29 48.39-44.59 68.69l-.69.21c-22.1 12.79-48.37 18.18-73.67 21.78-25.75 3.34-51.78 4.5-77.93 5.34-4.39.21-8.8.39-13.19.58 2.72.21 5.41.37 8.13.53 2.49.14 5 .26 7.43.35h1.18c1.4.05 2.79.1 4.2.12s2.54.09 3.82.09c.76 0 1.53.05 2.32.05 2 0 4 .05 6 .05A445.71 445.71 0 00-285.45 258.9 445.69 445.69 0 00-159.68-52a445.25 445.25 0 00-43.16-192m-267.55 418.36c7.08-13 16.41-24.73 25.75-36.47 10.28-13.56 18.92-27.73 27.77-42.36 8.19-14.42 17.6-28.46 30.73-38.68a85.1 85.1 0 0126.27-13 70.12 70.12 0 0117.11-3.13c-10.59 8.75-19.11 20.61-26.7 31.87-5.41 7.23-10.36 14.7-15.77 21.9-6.08 7.43-12.28 14.51-18.83 21.69-12.37 14.16-25.33 28.86-32.6 46.39-11.42 3.37-22.64 7.41-33.73 11.77m48.06-18a21 21 0 00-4.6 1c7-14.2 17.21-26.37 27.54-38.21 11.4-13.29 22.1-26.35 32-40.73 9.47-14.58 19.67-29.4 33.74-40.08C-321.4 28.94-303 21.4-288.22 29c.12 4.1-1.67 8.05-2.78 11.79a78.27 78.27 0 00-12.84 2.44c-17.56 4.22-30.56 17.22-41 31.34s-19.32 29.31-32.72 40.94c-12.47 11-26.07 20.8-31.16 37.43-4.57 1-9.19 2.06-13.65 3.43m146-76.32c-6.54 10.68-13.16 21-19.82 31.35-12.57 19.29-25.36 37.92-37.92 57.21-6.09-7.57-15.56-12.59-24.61-15.09-13.35-4.2-28.31-3.79-42.73-1.65 4.88-13.56 18-22.47 28.73-31.79 12.26-10.54 20.57-24 30-37.47 9.21-13 19.69-25.64 35.24-31.51 14.17-5.48 33.37-6.83 46.72 2.3-4.34 9.24-10.38 17.88-15.63 26.65m-546.5-20.68l65-55.41h43.74v-146.31h-28.77v-60.34h42.31v-32.62h60.34v32.62h21.43v-32.62h60.35v33a88.24 88.24 0 0181.75 87.86v4.76a87.28 87.28 0 01-17.85 53 86.55 86.55 0 017.34 7.87L-336-200.07h82.71l48.29-48.27c-2.71-5.57-5.57-11.1-8.52-16.56a449 449 0 00-86.67-112.52c-30.49 24.13-69.27 36.21-106.21 52.83l-1.37.6c-69.33 30.49-141.23 54.8-210.92 32.67l-.35.12a.37.37 0 00-.47-.26c-.32.09-.44-.23-.79-.14-21.52-5.08-45-6.59-65.89-.95-22.17 6.41-45.51 9-67.36 16.46-22.31 7.2-44.84 13.72-68 14.4-17.69.11-38.38 2.67-48.36-13.89-10.52-17.13 8.75-30.57 21.43-39.73 16.6-12.23 37.06-18.13 56.88-22.31s39.6-6.08 59.6-9.91c2.88-.49 5.74-1 8.94-1.6l1-.31c19.83-4.2 39.69-9.52 58.29-17.83 24.07-10.31 45.41-24.84 64.66-42.68.49-.44 1-.88 1.44-1.32 2.93-2.76-1.76-7-4.69-4.2a238 238 0 01-59 40.28c-4.95 2.26-9.69 4.09-14.75 6l-5.76 2.13c-5.41 2-10.93 3.72-16.44 5.41-.11-.35-1.39.42-1.39.42l-10.54 2.46c-4.25 1-8 2.09-12.28 3a2.8 2.8 0 00-1.84.19l-15.69 2.9c-24.75 4.18-50 6.62-73.82 13.91 7-8.15 12.43-17.37 18-26.24 7.36-11.68 13.84-23.84 19.94-35.92 13-24 26.31-48.39 44.61-68.68.35-.12.69-.21.69-.21 22.11-12.8 48.37-18.18 73.65-21.78 25.76-3.32 51.81-4.5 78-5.34 3.86-.19 7.71-.35 11.56-.51q-19.47-1.68-39.35-1.7c-247 0-447.11 200.17-447.11 447.13a445.21 445.21 0 0034.67 172.85l128.92-128.9zm79.62-335.08c-6.92 13.05-16.12 24.92-25.34 36.76-10.14 13.67-18.59 27.93-27.28 42.67-8 14.51-17.25 28.66-30.3 39A84.44 84.44 0 01-852.28-144a71.58 71.58 0 01-17.09 3.34c10.5-8.87 18.88-20.85 26.36-32.2 5.31-7.27 10.17-14.8 15.51-22.06 6-7.5 12.1-14.65 18.57-21.9 12.22-14.33 25-29.16 32.07-46.78 11.38-3.49 22.54-7.67 33.6-12.15M-951-157.16c4.34-9.26 10.36-17.88 15.61-26.65 6.54-10.68 13.18-21 19.82-31.35 12.57-19.3 25.36-37.92 37.92-57.24 6.08 7.57 15.56 12.61 24.61 15.12 13.35 4.2 28.31 3.79 42.73 1.63-4.88 13.58-18 22.47-28.73 31.78-12.23 10.57-20.54 24-30 37.48-9.22 13-19.69 25.63-35.24 31.51-14.17 5.48-33.35 6.82-46.7-2.28m27.45 24.38c-.12-4.08 1.69-8 2.81-11.79a76 76 0 0012.83-2.43c17.58-4.22 30.56-17.25 41-31.35s19.32-29.3 32.72-40.93c12.49-11 26.07-20.81 31.16-37.43 4.59-1 9.19-2.06 13.67-3.43a20.87 20.87 0 004.58-1.05c-7 14.23-17.21 26.4-27.54 38.24-11.4 13.28-22.1 26.33-32 40.7-9.48 14.61-19.67 29.4-33.74 40.1-12.19 9.41-30.65 16.93-45.39 9.36m269.76 178.6h96.35a31.2 31.2 0 0031.19-31.18v-5a31.22 31.22 0 00-31.27-31.19h-96.35zm95.19-128.45A27.86 27.86 0 00-537-109.72v-4.76a27.9 27.9 0 00-27.84-27.87h-88.88v60.44h88.88a27.8 27.8 0 006.31-.72m-6.31-59.72h-88.88v60.44h88.88a27.8 27.8 0 006.31-.72A27.86 27.86 0 00-537-109.72v-4.76a27.9 27.9 0 00-27.84-27.87m7.47 120.79h-96.35v67.38h96.35a31.2 31.2 0 0031.19-31.18v-5a31.22 31.22 0 00-31.22-31.2m0 0h-96.35v67.38h96.35a31.2 31.2 0 0031.19-31.18v-5a31.22 31.22 0 00-31.19-31.2m-7.47-120.79h-88.88v60.44h88.88a27.8 27.8 0 006.31-.72A27.86 27.86 0 00-537-109.72v-4.76a27.9 27.9 0 00-27.84-27.87m0 0h-88.88v60.44h88.88a27.8 27.8 0 006.31-.72A27.86 27.86 0 00-537-109.72v-4.76a27.9 27.9 0 00-27.84-27.87m7.47 120.79h-96.35v67.38h96.35a31.2 31.2 0 0031.19-31.18v-5a31.22 31.22 0 00-31.22-31.2m0 0h-96.35v67.38h96.35a31.2 31.2 0 0031.19-31.18v-5a31.22 31.22 0 00-31.19-31.2m-7.47-120.79h-88.88v60.44h88.88a27.8 27.8 0 006.31-.72A27.86 27.86 0 00-537-109.72v-4.76a27.9 27.9 0 00-27.84-27.87m0 0h-88.88v60.44h88.88a27.8 27.8 0 006.31-.72A27.86 27.86 0 00-537-109.72v-4.76a27.9 27.9 0 00-27.84-27.87m7.47 120.79h-96.35v67.38h96.35a31.2 31.2 0 0031.19-31.18v-5a31.22 31.22 0 00-31.22-31.2m0 0h-96.35v67.38h96.35a31.2 31.2 0 0031.19-31.18v-5a31.22 31.22 0 00-31.19-31.2m-7.47-120.79h-88.88v60.44h88.88a27.8 27.8 0 006.31-.72A27.86 27.86 0 00-537-109.72v-4.76a27.9 27.9 0 00-27.84-27.87" transform="translate(1128.05 573.26)" fill="#fff"/></svg>