<svg width="1024" height="1024" viewBox="0 0 1024 1024" fill="none" xmlns="http://www.w3.org/2000/svg">
<rect width="1024" height="1024" fill="url(#paint0_linear_111_605)"/>
<rect width="1024" height="1024" fill="black" fill-opacity="0.2"/>
<g clip-path="url(#clip0_111_605)">
<path d="M401.465 619.163C404.58 609.127 407.579 599.552 410.463 589.862C419.691 559.177 427.536 528.261 433.303 496.769C439.879 460.662 442.878 424.325 441.609 387.526C440.571 357.418 431.458 329.963 416.692 304.238C408.848 290.396 400.427 276.899 391.544 263.633C387.045 256.942 385.892 250.713 389.468 243.561C390.621 241.138 391.544 238.6 392.813 235.601C399.158 237.677 405.502 239.292 411.501 241.715C456.721 259.826 494.327 287.973 524.32 326.618C551.429 361.571 572.655 399.869 590.881 439.783C604.493 469.545 616.375 500.114 627.103 531.03C627.449 532.068 627.911 533.222 628.487 534.952C629.756 533.568 630.679 532.414 631.717 531.261C640.6 521.917 650.405 513.611 661.941 507.497C687.089 494.116 712.121 497.461 732.77 516.956C746.613 530.107 755.726 546.257 761.609 564.137C778.567 615.471 771.184 663.229 738.653 706.372C720.657 730.251 696.202 744.671 666.209 748.593C643.83 751.477 622.258 747.67 602.071 737.865C558.696 716.985 530.088 683.532 518.552 636.466C512.784 612.933 514.399 589.631 525.82 567.713C539.086 542.335 564.464 529.415 592.727 533.452C600.225 534.491 607.492 536.452 614.991 537.951C614.875 537.49 614.76 536.798 614.529 536.106C599.648 492.155 583.037 448.896 561.465 407.713C546.584 379.336 529.05 352.688 508.285 328.117C496.634 314.274 482.099 305.623 465.603 299.278C455.106 295.241 444.493 291.203 433.88 287.166C433.419 287.05 433.073 286.935 432.15 286.704C433.534 289.934 434.688 292.933 435.957 295.702C445.301 316.351 450.376 338.153 453.145 360.533C457.298 394.101 456.144 427.67 452.107 461.124C445.762 512.919 432.957 563.099 417.615 612.818C416.577 616.163 415.539 619.624 414.385 623.431C416.807 623.085 418.884 622.739 421.076 622.508C436.649 620.201 452.107 619.624 467.334 624.238C491.213 631.506 504.479 648.233 508.516 672.342C512.323 694.837 508.285 716.524 499.749 737.173C480.484 784.008 446.454 814.808 397.427 827.728C350.016 840.302 303.758 821.153 276.533 778.932C262.691 757.476 255.423 733.827 253.577 708.449C251.732 681.686 256.231 656.192 268.689 632.313C276.418 617.548 286.8 604.974 300.528 595.399C331.559 573.712 367.55 578.326 392.236 607.05C395.236 611.088 398.12 614.894 401.465 619.163ZM745.229 612.357C744.767 608.55 744.536 603.128 743.614 597.937C740.73 582.825 735.192 568.867 724.003 557.677C720.196 553.871 715.928 550.871 710.737 549.372C708.199 548.564 705.892 549.256 704.277 551.217C702.662 553.063 703.354 555.024 704.623 556.755C711.66 566.445 715.582 577.634 718.696 589.055C727.464 620.201 725.272 650.309 710.967 679.494C710.852 679.84 710.506 680.186 710.506 680.533C710.506 681.225 710.391 682.263 710.737 682.609C711.198 682.955 712.236 682.955 712.813 682.724C714.197 681.917 715.466 680.879 716.62 679.725C735.885 661.96 744.306 639.581 745.229 612.357ZM477.831 709.026C477.601 706.257 477.601 703.95 477.37 701.643C476.562 695.76 475.063 690.107 471.602 685.262C469.987 682.955 467.564 681.917 464.796 682.724C462.258 683.532 462.027 685.839 461.912 688.146C461.797 690.222 461.797 692.414 461.451 694.491C459.951 706.488 455.798 717.793 450.953 728.752C438.956 755.63 419.922 775.817 393.736 789.314C392.813 789.775 392.236 791.044 391.544 791.852C392.582 792.313 393.736 793.005 394.774 793.005C398.35 792.775 401.926 792.544 405.387 791.852C422.229 788.737 436.88 781.008 449.338 769.357C466.872 752.861 476.332 732.558 477.831 709.026Z" fill="white"/>
<path d="M646.714 283.935C642.215 281.282 637.716 278.398 633.102 275.976C612.222 264.786 590.304 256.134 568.156 247.944C528.127 232.948 487.29 220.143 446.108 208.607C445.647 208.492 445.301 208.377 444.262 208.031C445.301 207.454 445.993 207.108 446.57 206.877C478.062 196.149 510.362 190.381 543.7 192.457C596.533 195.687 643.022 214.145 681.321 251.636C698.394 268.362 713.159 287.05 727.81 305.853C728.848 307.238 729.886 308.622 731.04 310.237C724.003 313.005 717.312 315.659 710.506 318.312C694.01 324.772 677.283 330.77 659.749 334.231C631.602 339.768 604.378 336.538 577.846 325.925C555.928 317.158 536.317 304.469 517.399 290.626C496.75 275.399 476.678 259.48 454.298 246.675C445.301 241.484 435.957 237.101 426.728 232.256C425.344 231.563 423.96 230.987 422.691 230.064C499.057 241.138 573.347 260.287 646.714 283.935Z" fill="white"/>
</g>
<defs>
<linearGradient id="paint0_linear_111_605" x1="1024" y1="0" x2="1.19209e-07" y2="992" gradientUnits="userSpaceOnUse">
<stop stop-color="#F2DDE7"/>
<stop offset="1" stop-color="#CD5C8C"/>
</linearGradient>
<clipPath id="clip0_111_605">
<rect width="517.491" height="640" fill="white" transform="translate(253.119 192)"/>
</clipPath>
</defs>
</svg>
