
<svg xmlns="http://www.w3.org/2000/svg" xmlns:xlink="http://www.w3.org/1999/xlink" width="250px" height="250px" viewBox="0 0 250 250" version="1.1">
<g id="surface1">
<path style=" stroke:none;fill-rule:nonzero;fill:rgb(0%,0%,0%);fill-opacity:1;" d="M 124.523438 0.628906 C 119.46875 0.738281 118.542969 0.851562 118.542969 1.292969 C 118.542969 2.035156 118.261719 1.996094 117.8125 1.183594 C 117.445312 0.589844 117.390625 0.589844 117.027344 1.21875 C 116.746094 1.703125 116.605469 1.738281 116.519531 1.40625 C 116.324219 0.664062 109.304688 1.847656 100.628906 4.105469 C 99.84375 4.328125 98.972656 4.734375 98.746094 5.03125 C 98.523438 5.363281 98.214844 5.511719 98.074219 5.398438 C 97.429688 4.84375 83.191406 12.128906 80.722656 14.273438 C 80.386719 14.570312 79.429688 15.125 78.617188 15.53125 C 77.800781 15.9375 76.484375 16.902344 75.695312 17.714844 C 74.910156 18.492188 73.648438 19.601562 72.886719 20.191406 C 67.246094 24.480469 62.246094 29.769531 56.40625 37.722656 C 53.261719 42.011719 51.605469 44.007812 51.464844 43.714844 C 51.242188 43.195312 50.035156 45.007812 48.828125 47.707031 C 48.433594 48.632812 47.84375 49.554688 47.535156 49.816406 C 46.71875 50.480469 44.644531 55.25 44.867188 55.992188 C 44.980469 56.433594 44.921875 56.546875 44.613281 56.359375 C 44.335938 56.214844 43.886719 56.730469 43.265625 57.914062 C 42.199219 59.984375 37.960938 71.152344 37.960938 71.929688 C 37.960938 72.226562 37.847656 72.484375 37.707031 72.484375 C 37.371094 72.484375 36.386719 75.628906 35.882812 78.402344 C 35.65625 79.734375 35.039062 82.46875 34.535156 84.503906 L 33.609375 88.203125 L 32.203125 88.425781 C 31.222656 88.609375 30.605469 88.5 30.183594 88.164062 C 29.847656 87.871094 28.863281 87.648438 28.019531 87.648438 C 27.152344 87.648438 26.394531 87.464844 26.28125 87.203125 C 26.027344 86.6875 17.464844 87.09375 16.144531 87.722656 C 15.441406 88.054688 14.910156 88.054688 14.09375 87.757812 C 13.054688 87.425781 12.914062 87.464844 12.464844 88.238281 C 12.046875 89.015625 11.847656 89.054688 10.949219 88.792969 C 8.648438 88.089844 6.964844 89.644531 8.28125 91.273438 C 9.070312 92.195312 10.835938 92.53125 15.078125 92.640625 C 16.929688 92.675781 20.019531 92.824219 21.929688 93.011719 C 24.457031 93.195312 25.355469 93.160156 25.214844 92.863281 C 25.101562 92.640625 25.15625 92.457031 25.296875 92.457031 C 25.464844 92.457031 25.605469 92.640625 25.605469 92.863281 C 25.605469 93.121094 26.054688 93.160156 26.898438 92.972656 C 27.769531 92.824219 28.273438 92.863281 28.386719 93.160156 C 28.527344 93.453125 28.835938 93.453125 29.425781 93.195312 C 29.957031 92.9375 30.546875 92.9375 30.96875 93.121094 C 31.699219 93.492188 32.484375 93.453125 33.300781 93.011719 C 33.664062 92.789062 33.945312 92.898438 34.199219 93.34375 C 34.449219 93.824219 34.871094 93.972656 35.6875 93.898438 C 36.304688 93.824219 36.894531 93.898438 37.003906 94.046875 C 37.316406 94.453125 39.703125 94.339844 39.503906 93.972656 C 39.222656 93.34375 41.808594 93.085938 43.324219 93.566406 C 44.25 93.859375 44.839844 93.898438 44.953125 93.675781 C 45.035156 93.453125 46.523438 93.195312 48.207031 93.046875 C 49.921875 92.898438 51.832031 92.75 52.503906 92.675781 C 53.148438 92.605469 53.769531 92.714844 53.851562 92.863281 C 54.078125 93.378906 56.15625 93.269531 56.324219 92.714844 C 56.464844 92.34375 56.519531 92.34375 56.660156 92.714844 C 56.882812 93.378906 57.894531 93.304688 57.894531 92.640625 C 57.894531 91.976562 58.484375 91.902344 58.960938 92.53125 C 59.214844 92.863281 59.300781 92.863281 59.300781 92.53125 C 59.300781 92.269531 59.441406 92.085938 59.578125 92.085938 C 59.75 92.085938 59.859375 92.34375 59.859375 92.640625 C 59.859375 93.085938 60.308594 93.160156 62.613281 93.046875 C 64.101562 92.9375 65.558594 92.75 65.839844 92.605469 C 66.121094 92.457031 67.019531 92.566406 67.835938 92.824219 C 68.621094 93.085938 69.996094 93.230469 70.894531 93.160156 C 71.765625 93.085938 72.523438 93.121094 72.578125 93.269531 C 72.664062 93.640625 73.898438 93.195312 73.898438 92.789062 C 73.898438 92.605469 73.785156 92.457031 73.617188 92.457031 C 73.476562 92.457031 73.335938 92.269531 73.335938 92.085938 C 73.335938 91.605469 75.023438 91.605469 75.585938 92.085938 C 75.808594 92.269531 75.894531 92.53125 75.78125 92.675781 C 75.695312 92.824219 75.414062 92.714844 75.191406 92.492188 C 74.742188 91.976562 74.066406 92.269531 74.320312 92.863281 C 74.433594 93.046875 75.332031 93.195312 76.371094 93.195312 C 77.410156 93.195312 78.757812 93.378906 79.347656 93.601562 C 80.273438 93.933594 80.496094 93.898438 80.695312 93.417969 C 81.03125 92.640625 81.734375 92.675781 83.191406 93.527344 C 84.035156 94.046875 84.511719 94.15625 84.738281 93.898438 C 84.960938 93.640625 85.46875 93.675781 86.28125 93.933594 C 87.179688 94.269531 87.515625 94.269531 87.65625 93.898438 C 87.769531 93.675781 88.554688 93.417969 89.371094 93.378906 C 90.210938 93.34375 91.25 93.121094 91.671875 92.863281 C 92.121094 92.640625 92.402344 92.605469 92.289062 92.824219 C 92.207031 93.011719 92.597656 93.269531 93.1875 93.378906 C 93.777344 93.492188 94.453125 93.75 94.675781 93.898438 C 94.902344 94.082031 96.25 94.082031 97.625 93.898438 C 101.527344 93.453125 101.78125 93.492188 101.582031 94.15625 C 101.441406 94.601562 101.554688 94.675781 102.0625 94.414062 C 102.398438 94.269531 103.101562 94.195312 103.605469 94.230469 C 106.046875 94.453125 106.972656 94.453125 107.871094 94.15625 C 108.769531 93.859375 108.828125 93.898438 108.433594 94.488281 C 108.042969 95.082031 108.097656 95.117188 108.996094 94.859375 C 109.53125 94.710938 110.117188 94.453125 110.289062 94.269531 C 110.652344 93.898438 115.648438 94.082031 116.410156 94.488281 C 116.859375 94.75 116.914062 94.675781 116.773438 94.195312 C 116.632812 93.675781 116.773438 93.566406 117.503906 93.566406 C 118.007812 93.566406 118.570312 93.75 118.765625 94.007812 C 119.019531 94.339844 119.246094 94.339844 119.777344 93.972656 C 120.3125 93.566406 120.5625 93.566406 121.097656 93.972656 C 122.109375 94.675781 126.234375 94.785156 127.472656 94.082031 C 128.3125 93.640625 128.621094 93.601562 129.15625 93.972656 C 129.632812 94.339844 129.855469 94.339844 130.109375 94.007812 C 130.304688 93.75 130.867188 93.566406 131.402344 93.566406 C 132.1875 93.566406 132.328125 93.675781 132.1875 94.15625 C 132.019531 94.710938 132.1875 94.75 133.480469 94.527344 C 137.128906 93.933594 138.535156 93.824219 138.703125 94.195312 C 138.8125 94.414062 139.402344 94.675781 140.019531 94.824219 C 141.058594 95.082031 141.117188 95.042969 140.582031 94.527344 C 139.882812 93.785156 140.441406 93.785156 141.902344 94.453125 C 142.746094 94.859375 143.109375 94.859375 144.007812 94.414062 C 145.019531 93.933594 145.917969 93.972656 146.984375 94.488281 C 147.347656 94.710938 147.433594 94.601562 147.292969 94.121094 C 147.125 93.566406 147.320312 93.527344 149.734375 93.75 C 151.476562 93.898438 152.234375 93.859375 151.980469 93.640625 C 151.730469 93.378906 152.207031 93.34375 153.441406 93.453125 C 155.4375 93.675781 156.839844 93.378906 156.585938 92.824219 C 156.476562 92.605469 156.753906 92.640625 157.203125 92.863281 C 157.625 93.085938 158.722656 93.34375 159.648438 93.378906 C 160.546875 93.453125 161.386719 93.675781 161.472656 93.898438 C 161.585938 94.15625 162.0625 94.15625 162.875 93.898438 C 163.691406 93.675781 164.167969 93.675781 164.28125 93.898438 C 164.390625 94.121094 164.925781 93.972656 165.683594 93.527344 C 167.144531 92.675781 167.847656 92.640625 168.183594 93.417969 C 168.378906 93.898438 168.605469 93.933594 169.726562 93.527344 C 170.570312 93.269531 172.394531 93.195312 174.894531 93.304688 C 177.25 93.417969 179.300781 93.34375 180.144531 93.085938 C 181.324219 92.714844 181.519531 92.75 181.773438 93.304688 C 181.96875 93.824219 182.25 93.898438 183.0625 93.714844 C 183.625 93.566406 184.242188 93.304688 184.441406 93.121094 C 184.636719 92.898438 185.648438 92.863281 186.882812 93.011719 C 188.566406 93.230469 189.042969 93.160156 189.15625 92.789062 C 189.351562 92.121094 191.148438 92.121094 191.066406 92.75 C 191.007812 93.011719 191.289062 93.195312 191.710938 93.195312 C 192.105469 93.195312 192.355469 93.046875 192.246094 92.824219 C 192.160156 92.605469 192.21875 92.457031 192.355469 92.457031 C 192.527344 92.457031 192.667969 92.640625 192.667969 92.863281 C 192.667969 93.121094 193.117188 93.195312 194.015625 93.046875 C 196.148438 92.714844 196.851562 92.675781 200.105469 92.972656 C 201.820312 93.121094 203.476562 93.417969 203.785156 93.640625 C 204.207031 93.898438 204.851562 93.898438 205.945312 93.566406 C 207.632812 93.121094 209.625 93.378906 209.316406 94.046875 C 209.203125 94.304688 209.765625 94.339844 211.085938 94.195312 C 212.152344 94.046875 213.445312 93.933594 213.949219 93.933594 C 214.566406 93.933594 214.847656 93.75 214.847656 93.378906 C 214.847656 92.824219 215.4375 92.640625 215.800781 93.085938 C 216.082031 93.453125 217.148438 93.492188 217.964844 93.121094 C 218.414062 92.9375 218.976562 92.9375 219.480469 93.195312 C 220.070312 93.492188 220.324219 93.492188 220.492188 93.160156 C 220.632812 92.863281 221.109375 92.789062 221.980469 92.9375 C 222.765625 93.085938 223.269531 93.046875 223.269531 92.824219 C 223.269531 92.605469 223.410156 92.457031 223.578125 92.457031 C 223.71875 92.457031 223.777344 92.640625 223.664062 92.863281 C 223.523438 93.195312 224.367188 93.230469 226.808594 93.011719 C 228.660156 92.863281 231.722656 92.675781 233.660156 92.640625 C 238.433594 92.492188 239.949219 92.160156 240.679688 91.160156 C 241.886719 89.460938 240.171875 88.019531 237.925781 88.832031 C 237.113281 89.128906 236.945312 89.054688 236.4375 88.238281 C 235.960938 87.425781 235.765625 87.351562 235.289062 87.683594 C 234.980469 87.90625 234.277344 87.980469 233.6875 87.871094 C 230.066406 87.019531 222.878906 86.648438 222.570312 87.277344 C 222.484375 87.464844 221.726562 87.648438 220.882812 87.648438 C 220.042969 87.648438 219.285156 87.796875 219.199219 88.019531 C 218.976562 88.5 215.859375 88.5 214.539062 88.019531 C 213.414062 87.609375 213.332031 87.351562 210.609375 77.109375 C 209.988281 74.851562 209.230469 72.300781 208.867188 71.375 C 207.265625 67.34375 204.375 60.796875 204.007812 60.429688 C 203.785156 60.207031 203.617188 59.835938 203.617188 59.652344 C 203.617188 58.988281 200.585938 52.441406 199.207031 50.035156 C 196.261719 45.042969 190.839844 36.871094 190.390625 36.722656 C 190.109375 36.613281 189.800781 36.242188 189.71875 35.871094 C 189.578125 35.316406 188.003906 33.246094 185.925781 30.917969 C 184.441406 29.214844 179.078125 24.039062 176.71875 22.042969 C 175.144531 20.710938 173.769531 19.339844 173.601562 18.972656 C 173.011719 17.492188 160.460938 9.320312 158.523438 9.132812 C 157.992188 9.097656 157.570312 8.875 157.570312 8.652344 C 157.570312 8.285156 153.863281 6.804688 149.34375 5.398438 C 148.304688 5.105469 147.125 4.511719 146.675781 4.105469 C 145.75 3.179688 142.578125 2.21875 141.398438 2.476562 C 140.890625 2.589844 140.160156 2.402344 139.65625 2.070312 C 137.945312 0.886719 133.421875 0.480469 124.523438 0.628906 Z M 139.039062 2.550781 C 140.5 2.921875 141.816406 3.179688 141.929688 3.070312 C 142.042969 2.957031 142.296875 3.03125 142.492188 3.21875 C 142.996094 3.734375 145.160156 4.734375 146.730469 5.175781 C 147.488281 5.398438 148.246094 5.804688 148.417969 6.066406 C 148.585938 6.359375 149.316406 6.839844 150.074219 7.210938 C 150.804688 7.582031 151.394531 8.023438 151.394531 8.171875 C 151.394531 8.617188 149.371094 8.578125 148.5 8.171875 C 147.882812 7.839844 146.199219 7.324219 142.546875 6.285156 C 141.929688 6.101562 141.199219 5.84375 140.949219 5.730469 C 140.554688 5.511719 140.441406 5.660156 140.414062 6.324219 C 140.359375 7.136719 140.359375 7.136719 140.246094 6.433594 C 140.078125 5.25 138.984375 4.808594 134.96875 4.214844 C 130.980469 3.625 129.015625 3.179688 128.707031 2.8125 C 127.835938 1.664062 134.910156 1.480469 139.039062 2.550781 Z M 124.664062 9.800781 C 132.132812 9.875 133.703125 10.023438 136.511719 10.726562 C 142.578125 12.242188 150.242188 15.050781 153.21875 16.828125 C 154.003906 17.308594 155.183594 17.9375 155.886719 18.230469 C 157.375 18.898438 159.929688 20.414062 160.433594 20.96875 C 160.628906 21.191406 161.445312 21.632812 162.203125 21.96875 C 162.988281 22.300781 164.167969 23.261719 164.871094 24.074219 C 165.570312 24.890625 167.199219 26.292969 168.519531 27.21875 C 170.765625 28.734375 174.667969 32.394531 174.695312 32.988281 C 174.695312 33.171875 174.5 33.285156 174.21875 33.285156 C 173.964844 33.285156 173.855469 33.171875 173.9375 33.023438 C 174.527344 32.285156 161.921875 22.558594 161.164062 23.152344 C 160.996094 23.296875 160.9375 23.261719 161.023438 23.039062 C 161.332031 22.375 150.578125 16.679688 148.136719 16.160156 C 147.855469 16.125 147.488281 15.976562 147.320312 15.828125 C 146.957031 15.53125 139.628906 13.425781 138.898438 13.386719 C 138.589844 13.386719 137.832031 13.203125 137.214844 13.019531 C 132.046875 11.28125 115.960938 11.464844 109.726562 13.3125 C 109.109375 13.5 108.492188 13.574219 108.378906 13.460938 C 108.265625 13.351562 108.152344 13.386719 108.152344 13.574219 C 108.152344 13.71875 107.734375 13.90625 107.226562 13.941406 C 105.765625 14.089844 101.921875 15.457031 101.695312 15.902344 C 101.582031 16.125 101.332031 16.199219 101.078125 16.085938 C 100.855469 15.976562 100.292969 16.050781 99.84375 16.308594 C 99.394531 16.53125 98.328125 16.9375 97.484375 17.234375 C 94.507812 18.269531 86.984375 22.558594 84.847656 24.410156 C 84.625 24.628906 84.121094 24.925781 83.726562 25.148438 C 83.332031 25.332031 82.828125 25.664062 82.601562 25.851562 C 82.378906 26.035156 81.367188 26.8125 80.355469 27.589844 C 77.859375 29.476562 71.289062 35.652344 69.882812 37.390625 C 69.265625 38.203125 68.675781 38.832031 68.566406 38.832031 C 68.171875 38.832031 61.320312 48.152344 59.160156 51.589844 C 53.148438 61.242188 48.066406 72.742188 44.980469 83.765625 L 43.800781 87.945312 L 42.480469 88.089844 C 41.777344 88.203125 41.105469 88.203125 41.019531 88.128906 C 40.910156 88.089844 41.328125 86.242188 41.949219 84.0625 C 42.566406 81.839844 43.296875 79.328125 43.546875 78.402344 C 43.800781 77.476562 44.082031 76.664062 44.164062 76.554688 C 44.25 76.441406 45.09375 74.371094 46.019531 71.929688 C 48.039062 66.605469 48.828125 64.683594 49.835938 62.609375 C 50.257812 61.722656 50.59375 60.796875 50.59375 60.464844 C 50.59375 60.171875 50.707031 59.910156 50.820312 59.910156 C 50.933594 59.910156 51.550781 58.949219 52.195312 57.765625 C 52.8125 56.621094 54.695312 53.585938 56.351562 51.035156 C 58.007812 48.519531 59.550781 46.078125 59.777344 45.597656 C 60.113281 44.894531 63.820312 40.3125 67.890625 35.503906 C 68.480469 34.761719 69.882812 33.394531 70.953125 32.433594 C 72.046875 31.472656 73.367188 30.175781 73.957031 29.511719 C 75.023438 28.21875 79.457031 24.628906 83.277344 21.96875 C 91.109375 16.492188 100.769531 12.464844 111.101562 10.355469 C 112.195312 10.132812 113.515625 9.835938 114.050781 9.652344 C 114.582031 9.46875 115.257812 9.394531 115.539062 9.503906 C 115.820312 9.617188 119.945312 9.726562 124.664062 9.800781 Z M 130.53125 13.71875 C 134.996094 14.203125 139.882812 15.199219 144.175781 16.605469 C 146.871094 17.457031 147.460938 17.53125 147.460938 17.085938 C 147.460938 16.714844 147.601562 16.753906 147.96875 17.308594 C 148.359375 17.9375 153.722656 20.710938 154.539062 20.710938 C 154.648438 20.710938 154.761719 20.414062 154.789062 20.042969 C 154.816406 19.601562 154.875 19.675781 154.988281 20.265625 C 155.125 20.894531 155.886719 21.523438 157.992188 22.78125 C 159.535156 23.707031 162.257812 25.480469 164.027344 26.738281 C 165.796875 27.996094 167.398438 28.992188 167.59375 28.921875 C 167.789062 28.847656 167.957031 29.03125 167.957031 29.289062 C 167.957031 29.546875 169.054688 30.695312 170.402344 31.804688 C 172.589844 33.652344 175.484375 36.539062 179.019531 40.457031 C 179.75 41.234375 180.425781 41.789062 180.507812 41.640625 C 180.621094 41.492188 180.535156 41.234375 180.3125 41.050781 C 180.003906 40.792969 179.976562 40.644531 180.3125 40.164062 C 180.507812 39.828125 180.59375 39.421875 180.480469 39.3125 C 180.367188 39.164062 180.171875 39.273438 180.058594 39.535156 C 179.890625 39.902344 179.777344 39.902344 179.609375 39.570312 C 179.496094 39.347656 179.496094 39.054688 179.582031 38.941406 C 179.667969 38.832031 179.609375 38.5 179.441406 38.203125 C 178.851562 37.277344 179.636719 37.722656 180.394531 38.757812 C 180.929688 39.460938 181.097656 40.015625 180.957031 40.605469 C 180.84375 41.273438 180.929688 41.421875 181.40625 41.421875 C 181.714844 41.421875 181.996094 41.566406 181.996094 41.753906 C 181.996094 41.9375 181.800781 42.046875 181.546875 42.011719 C 180.507812 41.902344 180.984375 42.898438 183.597656 46.265625 C 189.101562 53.367188 194.042969 62.277344 198.058594 72.335938 C 200.585938 78.699219 201.933594 83.0625 201.933594 85.023438 C 201.933594 85.835938 202.042969 86.574219 202.183594 86.722656 C 202.351562 86.835938 202.4375 87.242188 202.410156 87.609375 C 202.351562 88.683594 198.84375 88.980469 187.976562 88.832031 L 183.175781 88.757812 L 181.324219 84.394531 C 177.449219 75.332031 176.71875 73.890625 173.179688 68.527344 C 168.828125 61.871094 165.460938 57.878906 164.503906 58.210938 C 164.253906 58.285156 164.113281 58.210938 164.195312 58.023438 C 164.449219 57.46875 163.804688 56.65625 161.5 54.621094 C 160.347656 53.625 159.03125 52.328125 158.550781 51.773438 C 156.335938 49.074219 144.289062 42.269531 142.351562 42.640625 C 141.929688 42.714844 141.539062 42.675781 141.507812 42.566406 C 141.285156 41.9375 138.535156 40.605469 137.128906 40.457031 L 135.527344 40.273438 L 137.914062 41.273438 C 139.234375 41.789062 140.5 42.382812 140.722656 42.566406 C 140.949219 42.75 141.621094 43.195312 142.210938 43.527344 C 142.773438 43.859375 143.25 44.230469 143.25 44.378906 C 143.25 44.710938 142.519531 44.527344 136.652344 42.789062 C 134.179688 42.085938 131.175781 41.308594 129.96875 41.125 C 127.921875 40.792969 127.273438 40.53125 127.554688 40.164062 C 127.609375 40.089844 128.59375 39.941406 129.6875 39.867188 C 131.738281 39.757812 132.523438 39.238281 130.839844 39.164062 C 128.144531 39.015625 118.148438 39.3125 116.578125 39.570312 C 109.164062 40.902344 103.914062 42.605469 100.460938 44.785156 C 99.84375 45.191406 99.253906 45.488281 99.113281 45.488281 C 99 45.488281 97.457031 46.414062 95.6875 47.523438 C 93.945312 48.632812 92.429688 49.554688 92.375 49.554688 C 92.09375 49.554688 85.296875 55.585938 83.164062 57.730469 C 80.214844 60.652344 74.964844 67.824219 75.191406 68.601562 C 75.332031 69.082031 75.21875 69.15625 74.515625 68.972656 C 73.730469 68.785156 73.5625 68.933594 72.75 70.523438 C 72.242188 71.523438 71.402344 72.964844 70.894531 73.742188 C 70.390625 74.554688 69.96875 75.40625 69.96875 75.664062 C 69.96875 75.960938 69.546875 76.773438 69.070312 77.515625 C 68.566406 78.292969 67.328125 81.066406 66.320312 83.726562 L 64.492188 88.574219 L 60.339844 88.574219 C 58.0625 88.574219 56.210938 88.683594 56.210938 88.832031 C 56.210938 89.128906 53.824219 89.015625 48.433594 88.574219 C 44.699219 88.238281 44.785156 88.425781 46.160156 83.617188 C 48.179688 76.480469 53.121094 64.683594 56.714844 58.320312 C 61.097656 50.554688 67.582031 41.789062 72.691406 36.6875 C 74.097656 35.242188 74.375 34.800781 74.265625 34.097656 C 74.179688 33.652344 74.265625 33.285156 74.433594 33.285156 C 74.601562 33.285156 74.742188 33.433594 74.742188 33.652344 C 74.742188 34.320312 75.21875 34.023438 77.914062 31.695312 C 79.375 30.4375 81.171875 28.957031 81.875 28.402344 C 82.800781 27.664062 83.164062 27.144531 83.191406 26.554688 C 83.191406 25.8125 83.222656 25.777344 83.53125 26.332031 C 83.8125 26.886719 84.089844 26.773438 86.507812 25.148438 C 90.71875 22.375 97.257812 18.933594 100.292969 17.9375 C 104.757812 16.492188 107.480469 15.382812 107.816406 14.828125 C 108.152344 14.273438 108.183594 14.3125 108.042969 14.902344 C 107.929688 15.421875 107.984375 15.53125 108.378906 15.382812 C 108.632812 15.273438 109.359375 15.089844 109.980469 14.941406 C 110.597656 14.792969 111.242188 14.421875 111.4375 14.089844 C 111.71875 13.644531 111.777344 13.609375 111.804688 14.015625 C 111.804688 14.421875 112.113281 14.460938 113.152344 14.273438 C 113.882812 14.128906 115.621094 13.941406 116.996094 13.832031 C 118.402344 13.71875 119.582031 13.535156 119.636719 13.460938 C 119.863281 13.164062 126.992188 13.3125 130.53125 13.71875 Z M 190.558594 43.640625 C 195.839844 51.367188 200.695312 60.871094 204.457031 70.820312 C 206.480469 76.144531 209.511719 86.425781 209.511719 87.871094 C 209.511719 88.277344 209.289062 88.386719 208.613281 88.3125 C 207.882812 88.238281 207.574219 87.945312 207.210938 86.910156 L 206.703125 85.613281 L 206.875 87.019531 C 207.042969 88.351562 207.015625 88.386719 206.394531 88.089844 C 205.976562 87.871094 205.609375 87.203125 205.355469 86.167969 C 205.046875 85.023438 204.878906 84.726562 204.683594 85.097656 C 204.515625 85.464844 204.488281 85.355469 204.597656 84.761719 C 204.90625 83.320312 202.324219 74.371094 199.347656 66.566406 C 196.652344 59.578125 193.621094 53.144531 190.898438 48.667969 C 189.523438 46.414062 189.410156 45.894531 190.390625 46.5625 C 191.039062 47.042969 191.347656 46.597656 191.066406 45.597656 C 190.980469 45.230469 190.167969 43.859375 189.324219 42.566406 C 187.023438 39.089844 188.035156 39.976562 190.558594 43.640625 Z M 121.042969 45.710938 C 121.941406 45.894531 122.21875 45.859375 122.078125 45.5625 C 121.96875 45.304688 122.050781 45.117188 122.304688 45.117188 C 122.527344 45.117188 122.753906 45.265625 122.808594 45.488281 C 122.867188 45.710938 123.539062 45.710938 124.578125 45.523438 C 126.375 45.230469 130.785156 45.304688 131.515625 45.671875 C 131.765625 45.820312 132.046875 45.746094 132.160156 45.523438 C 132.242188 45.304688 132.46875 45.117188 132.609375 45.117188 C 132.777344 45.117188 132.832031 45.265625 132.75 45.453125 C 132.636719 45.636719 132.972656 45.894531 133.453125 46.042969 C 135.023438 46.488281 134.179688 46.855469 128.875 47.890625 C 128.285156 48.003906 127.808594 48.296875 127.808594 48.519531 C 127.808594 49 129.4375 48.707031 132.300781 47.671875 C 134.714844 46.820312 136.285156 46.78125 137.914062 47.523438 C 138.5625 47.816406 139.152344 48.039062 139.261719 48.003906 C 139.488281 47.929688 141.285156 48.667969 142.546875 49.371094 C 143.027344 49.628906 144.035156 50.148438 144.792969 50.480469 C 145.582031 50.851562 146.898438 51.554688 147.742188 52.070312 C 149.203125 52.921875 149.257812 52.996094 148.585938 53.292969 C 147.996094 53.550781 148.050781 53.585938 148.894531 53.476562 C 149.457031 53.367188 150.046875 53.476562 150.183594 53.660156 C 150.324219 53.847656 150.832031 54.066406 151.308594 54.105469 C 151.785156 54.140625 152.121094 54.289062 152.066406 54.402344 C 151.953125 54.695312 153.300781 56.359375 154.144531 56.914062 C 154.480469 57.175781 154.707031 57.507812 154.621094 57.730469 C 154.507812 57.914062 154.789062 58.0625 155.183594 58.0625 C 156.054688 58.0625 156.925781 58.800781 159.535156 61.761719 C 160.546875 62.871094 161.835938 64.203125 162.425781 64.644531 C 162.988281 65.125 163.464844 65.679688 163.464844 65.867188 C 163.464844 66.011719 163.664062 66.085938 163.886719 65.976562 C 164.195312 65.828125 164.253906 65.902344 164.167969 66.308594 C 164.054688 66.640625 164.421875 67.269531 165.152344 68.046875 C 165.769531 68.714844 166.246094 69.304688 166.1875 69.414062 C 165.964844 69.675781 167.707031 71.746094 167.957031 71.5625 C 168.097656 71.449219 168.265625 71.523438 168.351562 71.707031 C 168.464844 71.894531 168.40625 72.152344 168.265625 72.300781 C 168.097656 72.410156 168.042969 72.742188 168.15625 73.039062 C 168.265625 73.445312 168.097656 73.59375 167.507812 73.59375 C 167.058594 73.59375 166.5 73.78125 166.273438 74 C 165.964844 74.261719 166.246094 74.296875 167.285156 74.148438 C 168.6875 73.925781 168.746094 73.925781 169.613281 75.332031 C 170.90625 77.402344 170.90625 77.402344 168.097656 77.882812 C 167.171875 78.03125 166.667969 78.21875 167.003906 78.292969 C 167.3125 78.367188 168.324219 78.292969 169.25 78.070312 C 170.851562 77.738281 170.933594 77.773438 171.523438 78.699219 C 171.859375 79.253906 172.199219 80.066406 172.308594 80.546875 C 172.394531 81.027344 172.84375 82.101562 173.292969 82.914062 C 174.613281 85.316406 174.527344 85.464844 171.328125 85.945312 C 170.792969 86.019531 171.328125 86.058594 172.535156 85.984375 C 174.667969 85.910156 174.726562 85.910156 175.117188 86.945312 C 175.34375 87.5 175.539062 88.054688 175.539062 88.128906 C 175.539062 88.460938 170.0625 87.945312 169.558594 87.574219 C 169.222656 87.351562 168.773438 87.425781 168.15625 87.832031 C 167.507812 88.277344 165.796875 88.535156 161.921875 88.832031 C 154.875 89.386719 154.226562 89.347656 153.105469 88.574219 C 152.261719 88.019531 151.671875 87.980469 148.386719 88.203125 C 145.863281 88.386719 144.652344 88.351562 144.652344 88.089844 C 144.652344 87.871094 144.992188 87.609375 145.441406 87.535156 C 146.535156 87.277344 141.566406 87.535156 138.984375 87.871094 C 137.773438 88.019531 136.792969 88.238281 136.792969 88.351562 C 136.792969 88.574219 122.472656 88.609375 122.191406 88.425781 C 122.109375 88.351562 119.328125 88.277344 116.015625 88.238281 C 112.421875 88.164062 109.5 87.980469 108.800781 87.683594 C 107.929688 87.351562 107.480469 87.351562 106.917969 87.683594 C 106.386719 88.019531 106.105469 88.019531 105.824219 87.683594 C 105.515625 87.351562 105.234375 87.390625 104.617188 87.832031 C 103.941406 88.3125 103.183594 88.386719 100.375 88.164062 C 97.371094 87.945312 96.78125 88.019531 95.882812 88.609375 C 94.703125 89.347656 93.976562 89.386719 88.722656 88.941406 C 86.675781 88.757812 85.214844 88.5 85.296875 88.3125 C 85.410156 88.089844 84.679688 88.054688 83.558594 88.203125 C 82.070312 88.386719 81.425781 88.3125 80.804688 87.871094 C 80.273438 87.535156 79.824219 87.425781 79.542969 87.648438 C 79.289062 87.796875 78.027344 87.980469 76.707031 88.054688 C 75.386719 88.089844 74.011719 88.277344 73.648438 88.460938 C 73.226562 88.683594 72.886719 88.644531 72.777344 88.425781 C 72.664062 88.164062 72.269531 88.164062 71.539062 88.425781 C 70.953125 88.644531 70.417969 88.757812 70.363281 88.644531 C 70.277344 88.574219 70.363281 88.019531 70.53125 87.464844 C 70.699219 86.871094 70.753906 86.167969 70.671875 85.871094 C 70.558594 85.429688 70.585938 85.429688 70.921875 85.761719 C 71.203125 86.058594 71.820312 86.09375 73.085938 85.871094 L 74.882812 85.503906 L 73.28125 85.464844 C 72.382812 85.464844 71.652344 85.242188 71.652344 85.058594 C 71.652344 84.46875 73.085938 81.730469 73.394531 81.730469 C 73.535156 81.730469 73.589844 81.582031 73.476562 81.359375 C 73.335938 81.101562 74.097656 79.253906 75.023438 77.589844 C 75.105469 77.441406 76.511719 77.109375 78.109375 76.886719 C 80.917969 76.480469 84.878906 75.519531 84.007812 75.480469 C 83.78125 75.445312 82.238281 75.703125 80.582031 76.035156 C 78.953125 76.332031 77.183594 76.554688 76.707031 76.480469 L 75.835938 76.367188 L 77.15625 74.335938 C 78.054688 72.964844 78.671875 72.335938 79.039062 72.410156 C 79.488281 72.484375 79.515625 72.410156 79.261719 71.96875 C 78.980469 71.5625 79.289062 70.96875 80.835938 68.898438 C 85.019531 63.3125 86.058594 62.203125 87.460938 61.945312 C 88.191406 61.796875 88.863281 61.5 88.976562 61.28125 C 89.089844 61.058594 88.894531 60.984375 88.386719 61.167969 C 87.964844 61.316406 87.65625 61.242188 87.65625 61.019531 C 87.65625 60.835938 87.769531 60.652344 87.882812 60.652344 C 87.996094 60.652344 88.808594 59.835938 89.652344 58.875 C 91.335938 56.914062 91.839844 56.546875 93.273438 56.324219 C 93.804688 56.25 95.070312 56.027344 96.082031 55.84375 L 97.90625 55.546875 L 95.996094 55.585938 C 94.957031 55.621094 94.113281 55.546875 94.113281 55.398438 C 94.113281 55.25 95.097656 54.476562 96.304688 53.660156 C 97.511719 52.847656 98.664062 51.960938 98.859375 51.628906 C 99.054688 51.332031 99.367188 51.144531 99.5625 51.257812 C 99.984375 51.480469 100.855469 50.480469 100.855469 49.777344 C 100.855469 49.039062 101.613281 48.296875 101.835938 48.816406 C 101.921875 49 101.863281 49.1875 101.722656 49.1875 C 101.554688 49.1875 101.414062 49.445312 101.414062 49.777344 C 101.414062 50.445312 102.230469 50.296875 103.800781 49.371094 C 105.375 48.445312 110.0625 46.96875 111.464844 46.96875 C 112.253906 46.96875 112.925781 46.78125 112.984375 46.597656 C 113.039062 46.375 114.023438 45.96875 115.171875 45.671875 C 117.195312 45.191406 118.316406 45.191406 121.042969 45.710938 Z M 173.574219 74.445312 C 175.035156 77.070312 176.464844 79.476562 176.746094 79.808594 C 177 80.140625 177.222656 80.621094 177.222656 80.917969 C 177.222656 81.285156 177.363281 81.285156 177.785156 80.992188 C 178.09375 80.769531 178.347656 80.730469 178.347656 80.953125 C 178.347656 81.140625 178.148438 81.398438 177.898438 81.507812 C 177.53125 81.695312 177.671875 82.25 178.738281 84.875 C 179.976562 87.832031 180.03125 87.980469 179.496094 88.386719 C 178.179688 89.3125 177.898438 88.941406 176.074219 84.207031 C 174.277344 79.511719 172.308594 75.371094 170.457031 72.410156 C 169.304688 70.5625 168.941406 69.304688 169.921875 70.453125 C 170.34375 70.96875 170.484375 71.007812 170.484375 70.597656 C 170.484375 69.785156 170.007812 69.046875 169.671875 69.304688 C 169.335938 69.601562 169.25 69.082031 169.53125 68.675781 C 169.894531 68.230469 170.960938 69.75 173.574219 74.445312 Z M 173.574219 74.445312 "/>
<path style=" stroke:none;fill-rule:nonzero;fill:rgb(0%,0%,0%);fill-opacity:1;" d="M 23.921875 97.152344 C 23.527344 97.226562 23.109375 97.484375 22.96875 97.671875 C 22.796875 97.855469 22.40625 98.003906 22.070312 98.003906 C 21.730469 98.003906 20.523438 98.632812 19.402344 99.371094 C 16.199219 101.480469 13.195312 105.621094 11.34375 110.613281 C 9.6875 115.015625 8.3125 121.671875 9.011719 121.96875 C 9.320312 122.117188 9.320312 122.1875 9.039062 122.410156 C 8.621094 122.742188 8.507812 127.144531 8.84375 130.917969 C 9.152344 134.652344 9.828125 137.425781 11.34375 141.566406 C 13.871094 148.410156 18.109375 152.996094 23.21875 154.402344 C 24.371094 154.695312 25.832031 154.957031 26.503906 154.917969 C 28.105469 154.917969 29.902344 154.476562 29.847656 154.105469 C 29.761719 153.4375 29.847656 153.105469 30.097656 153.105469 C 30.265625 153.105469 30.378906 153.367188 30.378906 153.660156 C 30.378906 153.957031 30.546875 154.214844 30.773438 154.214844 C 31.335938 154.214844 31.585938 153.585938 31.164062 153.328125 C 30.96875 153.21875 31.136719 153.21875 31.53125 153.328125 C 32.007812 153.476562 32.792969 153.179688 33.722656 152.589844 C 34.984375 151.738281 35.125 151.515625 34.871094 150.886719 C 34.507812 150 34.507812 149.777344 34.871094 149.777344 C 35.039062 149.777344 35.152344 150.109375 35.152344 150.519531 C 35.152344 151.628906 35.433594 151.441406 37.203125 149.371094 C 41.777344 144.007812 44.417969 135.355469 44.417969 125.777344 C 44.417969 117.011719 41.890625 108.578125 37.707031 103.21875 C 35.910156 100.960938 32.710938 98.261719 32.148438 98.558594 C 31.953125 98.632812 31.785156 98.59375 31.785156 98.410156 C 31.785156 97.558594 26 96.597656 23.921875 97.152344 Z M 26.222656 108.46875 C 26.671875 109.0625 29.257812 109.875 29.257812 109.429688 C 29.257812 109.246094 29.398438 109.097656 29.539062 109.097656 C 29.707031 109.097656 29.816406 109.355469 29.816406 109.652344 C 29.816406 109.949219 29.957031 110.207031 30.125 110.207031 C 30.265625 110.207031 31.082031 111.058594 31.894531 112.054688 C 37.003906 118.417969 36.949219 133.800781 31.8125 139.867188 C 30.210938 141.753906 28.695312 142.457031 26.28125 142.457031 C 22.210938 142.417969 19.121094 138.792969 17.914062 132.542969 C 16.480469 125.148438 17.605469 116.976562 20.664062 112.5 C 21.730469 110.984375 23.753906 109.46875 24.792969 109.46875 C 25.128906 109.46875 25.4375 109.171875 25.523438 108.726562 C 25.691406 107.839844 25.746094 107.839844 26.222656 108.46875 Z M 26.222656 108.46875 "/>
<path style=" stroke:none;fill-rule:nonzero;fill:rgb(0%,0%,0%);fill-opacity:1;" d="M 86.113281 97.558594 C 80.664062 100.035156 77.242188 106.878906 77.632812 114.460938 C 77.832031 118.527344 78.109375 119.636719 79.65625 122.597656 C 81.058594 125.332031 84.933594 129.476562 86.195312 129.621094 C 86.476562 129.621094 86.957031 129.957031 87.234375 130.324219 C 87.546875 130.660156 88.582031 131.621094 89.539062 132.433594 C 91.8125 134.355469 92.625 136.316406 92.207031 138.941406 C 91.953125 140.347656 91.980469 140.828125 92.316406 141.308594 C 92.542969 141.605469 92.710938 142.085938 92.710938 142.308594 C 92.710938 143.046875 92.09375 142.789062 91.953125 142.011719 C 91.757812 141.050781 91.699219 141.085938 90.550781 142.234375 C 89.679688 143.121094 89.398438 143.195312 87.574219 143.046875 C 85.074219 142.898438 82.660156 141.492188 80.160156 138.71875 L 78.390625 136.796875 L 76.371094 142.234375 L 74.320312 147.632812 L 75.136719 148.484375 C 75.585938 148.964844 76.117188 149.261719 76.34375 149.148438 C 76.59375 149 76.652344 149.148438 76.511719 149.59375 C 76.371094 150.148438 76.453125 150.222656 76.933594 150.074219 C 77.296875 149.925781 77.464844 150 77.382812 150.296875 C 77.296875 150.554688 77.578125 150.960938 77.96875 151.183594 C 78.953125 151.773438 78.953125 151.773438 78.980469 150.589844 L 79.007812 149.59375 L 79.207031 150.519531 C 79.316406 151.035156 79.289062 151.554688 79.121094 151.703125 C 78.785156 151.996094 80.863281 153.21875 82.96875 153.992188 C 85.214844 154.808594 86.757812 155.03125 86.984375 154.546875 C 87.09375 154.253906 87.234375 154.289062 87.40625 154.621094 C 87.574219 154.992188 88.078125 155.03125 90.070312 154.660156 C 95.773438 153.660156 99.449219 149.410156 100.714844 142.34375 C 101.246094 139.273438 101.246094 135.242188 100.714844 132.839844 C 100.152344 130.363281 98.019531 126.257812 97.371094 126.40625 C 97.121094 126.480469 96.921875 126.367188 96.949219 126.21875 C 96.980469 126.074219 96.980469 125.738281 96.949219 125.519531 C 96.894531 124.890625 94.03125 122.375 90.886719 120.230469 C 88.132812 118.34375 86.308594 116.492188 85.71875 115.050781 C 85.046875 113.460938 85.664062 110.503906 86.84375 109.542969 C 87.65625 108.875 90.296875 107.988281 90.464844 108.320312 C 90.550781 108.46875 91.308594 108.800781 92.148438 109.0625 C 92.992188 109.355469 94.367188 110.132812 95.210938 110.835938 C 96.023438 111.539062 96.808594 111.980469 96.921875 111.796875 C 97.257812 111.316406 98.605469 106.953125 98.605469 106.324219 C 98.605469 106.027344 98.71875 105.769531 98.832031 105.769531 C 98.945312 105.769531 99.253906 104.992188 99.535156 104.03125 C 99.984375 102.402344 99.984375 102.292969 99.535156 101.628906 C 98.777344 100.519531 94.480469 97.855469 93.328125 97.78125 C 92.765625 97.742188 91.925781 97.523438 91.503906 97.300781 C 90.324219 96.707031 87.714844 96.820312 86.113281 97.558594 Z M 86.113281 97.558594 "/>
<path style=" stroke:none;fill-rule:nonzero;fill:rgb(0%,0%,0%);fill-opacity:1;" d="M 117.925781 97.449219 C 115.285156 98.335938 111.636719 101.035156 112 101.8125 C 112.113281 102.035156 112 102.109375 111.746094 101.960938 C 111.15625 101.703125 108.632812 105.140625 107.085938 108.320312 C 104.644531 113.238281 103.296875 120.5625 103.492188 127.476562 C 103.914062 141.457031 109.699219 152.070312 118.121094 154.402344 C 120.59375 155.066406 122.109375 155.066406 124.578125 154.402344 C 129.914062 152.921875 134.265625 148.003906 136.933594 140.457031 C 137.859375 137.757812 139.121094 132.175781 139.011719 131.214844 C 138.984375 130.953125 139.039062 130.4375 139.179688 130.03125 C 139.542969 128.957031 139.121094 120.230469 138.617188 117.972656 C 137.636719 113.683594 136.734375 110.6875 135.949219 108.914062 C 134.179688 104.917969 130.585938 100.332031 129.40625 100.519531 C 128.957031 100.554688 128.902344 100.519531 129.183594 100.257812 C 129.660156 99.851562 129.183594 99.480469 126.460938 98.113281 C 124.101562 96.96875 120.28125 96.632812 117.925781 97.449219 Z M 123.792969 109.652344 C 126.910156 110.871094 129.40625 115.382812 130.195312 121.152344 C 130.726562 124.964844 130.699219 127.21875 130.167969 130.953125 C 129.71875 134.171875 128.875 136.722656 127.695312 138.609375 C 127.273438 139.203125 126.964844 139.902344 126.964844 140.125 C 126.964844 140.347656 126.851562 140.53125 126.683594 140.53125 C 126.542969 140.53125 125.675781 141.011719 124.746094 141.605469 C 123.203125 142.566406 122.949219 142.640625 120.902344 142.382812 C 117.476562 142.011719 115.339844 140.199219 113.9375 136.539062 C 112.195312 132.027344 111.71875 124.964844 112.757812 119.453125 C 114.21875 111.796875 118.824219 107.691406 123.792969 109.652344 Z M 123.792969 109.652344 "/>
<path style=" stroke:none;fill-rule:nonzero;fill:rgb(0%,0%,0%);fill-opacity:1;" d="M 48.066406 125.925781 L 48.066406 153.847656 L 50.371094 153.847656 C 52.5625 153.847656 52.617188 153.808594 52.195312 153.179688 C 51.691406 152.476562 51.550781 151.257812 51.941406 151.257812 C 52.082031 151.257812 52.363281 151.8125 52.589844 152.441406 L 52.980469 153.660156 L 58.148438 153.773438 C 64.015625 153.882812 65.757812 153.476562 68.226562 151.515625 C 71.90625 148.632812 73.816406 142.160156 73.058594 135.28125 C 72.496094 130.066406 70.613281 126.515625 67.722656 125.109375 C 65.898438 124.222656 65.871094 124.074219 66.992188 122.78125 C 67.527344 122.152344 68.394531 120.488281 68.902344 119.15625 C 69.800781 116.753906 69.828125 116.566406 69.828125 111.871094 C 69.828125 107.730469 69.742188 106.804688 69.238281 105.363281 C 68.3125 102.738281 66.683594 100.628906 64.632812 99.335938 C 62.835938 98.261719 62.695312 98.226562 57.503906 98.078125 C 53.261719 97.964844 52.167969 98.003906 51.941406 98.410156 C 51.746094 98.816406 51.632812 98.816406 51.523438 98.445312 C 51.4375 98.152344 50.792969 98.003906 49.726562 98.003906 L 48.066406 98.003906 Z M 60.027344 108.542969 C 60.5625 108.839844 61.238281 109.617188 61.546875 110.28125 C 62.050781 111.316406 62.105469 111.910156 61.996094 114.089844 C 61.910156 115.496094 61.824219 117.046875 61.796875 117.53125 C 61.796875 118.011719 61.6875 118.304688 61.601562 118.195312 C 61.515625 118.085938 61.039062 118.34375 60.507812 118.75 C 59.972656 119.195312 58.878906 119.601562 57.894531 119.710938 L 56.210938 119.933594 L 56.210938 107.507812 L 57.671875 107.765625 C 58.457031 107.914062 59.523438 108.246094 60.027344 108.542969 Z M 62.585938 131.878906 C 63.988281 133.246094 64.464844 134.46875 64.578125 136.945312 C 64.746094 140.164062 64.242188 141.566406 62.359375 143.230469 C 61.515625 143.972656 60.789062 144.414062 60.703125 144.230469 C 60.617188 144.082031 59.609375 143.972656 58.457031 143.972656 L 56.351562 144.046875 L 56.265625 139.273438 C 56.238281 136.648438 56.070312 134.28125 55.929688 134.0625 C 55.789062 133.839844 55.789062 133.46875 55.929688 133.136719 C 56.097656 132.839844 56.210938 132.175781 56.210938 131.695312 C 56.210938 130.84375 56.210938 130.84375 59.019531 130.992188 C 61.265625 131.101562 61.964844 131.285156 62.585938 131.878906 Z M 62.585938 131.878906 "/>
<path style=" stroke:none;fill-rule:nonzero;fill:rgb(0%,0%,0%);fill-opacity:1;" d="M 142.96875 101.703125 C 142.96875 104.992188 143.222656 106.25 143.613281 104.917969 C 143.699219 104.660156 143.785156 104.734375 143.785156 105.140625 C 143.8125 105.511719 143.613281 105.878906 143.390625 105.992188 C 143.164062 106.140625 142.96875 106.621094 142.96875 107.136719 C 142.96875 107.804688 143.082031 108.023438 143.390625 107.839844 C 143.613281 107.730469 143.8125 107.804688 143.8125 107.988281 C 143.8125 108.210938 143.613281 108.359375 143.390625 108.359375 C 143.027344 108.359375 142.96875 111.316406 142.96875 131.101562 L 142.96875 153.847656 L 145.636719 153.847656 C 147.433594 153.847656 148.304688 153.699219 148.304688 153.4375 C 148.304688 153.144531 148.417969 153.144531 148.667969 153.4375 C 148.921875 153.699219 151.335938 153.808594 156.136719 153.808594 L 163.214844 153.773438 L 163.15625 148.261719 L 163.128906 142.75 L 157.121094 142.675781 L 151.082031 142.566406 L 151.113281 128.808594 L 151.113281 115.050781 L 150.496094 114.273438 C 149.90625 113.574219 149.90625 113.5 150.382812 113.609375 C 151.027344 113.757812 151.167969 112.683594 150.832031 110.28125 C 150.71875 109.429688 150.71875 108.617188 150.859375 108.507812 C 151 108.394531 151.113281 105.992188 151.113281 103.144531 L 151.113281 98.003906 L 149.820312 98.003906 C 149.0625 98.003906 148.613281 98.152344 148.726562 98.371094 C 148.808594 98.558594 148.78125 98.742188 148.613281 98.742188 C 148.472656 98.742188 148.277344 98.59375 148.191406 98.410156 C 148.109375 98.226562 146.871094 98.039062 145.496094 98.039062 L 142.96875 98.003906 Z M 142.96875 101.703125 "/>
<path style=" stroke:none;fill-rule:nonzero;fill:rgb(0%,0%,0%);fill-opacity:1;" d="M 167.398438 105.953125 C 167.398438 111.910156 167.480469 113.90625 167.734375 113.90625 C 167.984375 113.90625 167.984375 114.015625 167.734375 114.347656 C 167.535156 114.609375 167.398438 115.792969 167.398438 117.046875 C 167.398438 119.082031 167.480469 119.378906 168.210938 120.191406 C 168.6875 120.671875 168.996094 121.191406 168.914062 121.339844 C 168.714844 121.78125 167.707031 121.265625 167.59375 120.597656 C 167.507812 120.265625 167.453125 127.625 167.425781 136.945312 L 167.398438 153.882812 L 170.625 153.808594 C 172.421875 153.773438 173.769531 153.625 173.6875 153.4375 C 173.601562 153.253906 173.6875 153.105469 173.828125 153.105469 C 173.996094 153.105469 174.136719 153.253906 174.136719 153.476562 C 174.136719 154.066406 175.035156 153.921875 175.59375 153.21875 C 176.042969 152.664062 176.101562 152.664062 176.101562 153.21875 C 176.101562 153.734375 176.746094 153.808594 181.855469 153.847656 L 187.613281 153.847656 L 187.640625 152.996094 C 187.640625 152.550781 187.695312 151.886719 187.753906 151.515625 C 187.808594 151.144531 187.667969 150.886719 187.386719 150.886719 C 187.050781 150.886719 187.023438 150.777344 187.273438 150.445312 C 187.753906 149.816406 187.695312 148.667969 187.21875 148.667969 C 186.742188 148.667969 186.347656 148.003906 186.601562 147.671875 C 186.6875 147.558594 186.9375 147.671875 187.191406 147.929688 C 187.554688 148.335938 187.613281 148.039062 187.613281 145.5625 L 187.613281 142.75 L 175.539062 142.75 L 175.539062 131.285156 L 187.359375 131.285156 L 187.273438 125.8125 L 187.191406 120.378906 L 182.277344 120.304688 C 179.582031 120.265625 176.941406 120.230469 176.464844 120.230469 L 175.539062 120.191406 L 175.539062 117.789062 C 175.539062 116.125 175.425781 115.382812 175.203125 115.382812 C 174.921875 115.382812 174.949219 115.273438 175.203125 115.050781 C 175.453125 114.867188 175.566406 114.203125 175.539062 113.3125 C 175.484375 112.5 175.484375 111.242188 175.511719 110.464844 L 175.539062 109.097656 L 177.363281 109.097656 C 178.796875 109.097656 179.21875 108.949219 179.441406 108.433594 C 179.695312 107.839844 179.722656 107.839844 179.917969 108.46875 C 180.058594 108.949219 180.171875 109.023438 180.3125 108.726562 C 180.453125 108.433594 180.675781 108.394531 180.902344 108.578125 C 181.464844 109.023438 181.996094 109.097656 181.996094 108.726562 C 181.996094 108.542969 181.882812 108.285156 181.714844 108.171875 C 181.378906 107.878906 181.351562 107.25 181.660156 107.25 C 181.800781 107.25 182.054688 107.65625 182.222656 108.171875 C 182.53125 109.0625 182.644531 109.097656 185.085938 109.097656 L 187.613281 109.097656 L 187.640625 104.476562 C 187.667969 101.921875 187.695312 99.59375 187.695312 99.296875 C 187.695312 99 187.667969 98.558594 187.640625 98.371094 C 187.613281 98.152344 186.179688 98.003906 183.90625 98.003906 C 181.015625 98.003906 180.285156 98.113281 180.535156 98.445312 C 180.984375 99.039062 180.957031 99.480469 180.480469 99.480469 C 179.890625 99.480469 179.359375 98.484375 179.808594 98.261719 C 180.003906 98.152344 179.636719 98.039062 178.992188 98.039062 C 177.980469 98.003906 177.785156 98.113281 177.785156 98.707031 C 177.785156 99.113281 177.644531 99.554688 177.503906 99.667969 C 177.308594 99.816406 177.25 99.59375 177.390625 98.964844 L 177.5625 98.003906 L 167.398438 98.003906 Z M 167.398438 105.953125 "/>
<path style=" stroke:none;fill-rule:nonzero;fill:rgb(0%,0%,0%);fill-opacity:1;" d="M 190.140625 103.550781 L 190.140625 109.097656 L 198.5625 109.097656 L 198.5625 117.863281 C 198.589844 122.707031 198.5625 132.765625 198.5625 140.238281 L 198.535156 153.847656 L 206.703125 153.847656 L 206.703125 109.097656 L 215.128906 109.097656 L 215.128906 98.003906 L 204.851562 98.003906 C 198.085938 98.003906 194.660156 98.113281 194.773438 98.371094 C 194.855469 98.558594 194.800781 98.742188 194.660156 98.742188 C 194.492188 98.742188 194.351562 98.558594 194.351562 98.371094 C 194.351562 98.152344 193.453125 98.003906 192.246094 98.003906 L 190.140625 98.003906 Z M 190.140625 103.550781 "/>
<path style=" stroke:none;fill-rule:nonzero;fill:rgb(0%,0%,0%);fill-opacity:1;" d="M 218.246094 115.902344 L 218.273438 133.800781 L 218.835938 133.578125 C 219.226562 133.46875 219.367188 133.542969 219.226562 133.800781 C 219.113281 134.0625 218.835938 134.246094 218.609375 134.246094 C 218.300781 134.246094 218.214844 134.761719 218.214844 136.425781 C 218.214844 138.757812 218.554688 139.535156 219.03125 138.425781 C 219.285156 137.832031 219.3125 137.832031 219.339844 138.574219 C 219.339844 139.683594 219.621094 140.570312 219.902344 140.347656 C 220.042969 140.238281 220.210938 140.3125 220.324219 140.496094 C 220.574219 141.050781 219.339844 141.789062 218.976562 141.308594 C 218.804688 141.085938 218.554688 140.902344 218.441406 140.902344 C 218.300781 140.902344 218.214844 143.824219 218.246094 147.375 L 218.246094 153.847656 L 238.433594 153.847656 L 238.433594 142.75 L 232.507812 142.75 C 229.25 142.789062 226.527344 142.75 226.5 142.675781 C 226.332031 142.457031 226.246094 131.695312 226.414062 131.472656 C 226.5 131.359375 229.109375 131.285156 232.226562 131.285156 L 237.871094 131.285156 L 237.871094 120.117188 L 234.304688 120.191406 C 232.3125 120.265625 229.726562 120.265625 228.550781 120.230469 L 226.359375 120.191406 L 226.359375 109.097656 L 238.433594 109.097656 L 238.433594 98.003906 L 236.355469 98.003906 C 234.417969 98.003906 234.277344 98.039062 234.417969 98.742188 C 234.5 99.148438 234.417969 99.480469 234.277344 99.480469 C 234.109375 99.480469 233.828125 99.148438 233.660156 98.742188 C 233.378906 98.039062 233.070312 98.003906 225.796875 98.003906 L 218.246094 98.003906 Z M 218.246094 115.902344 "/>
<path style=" stroke:none;fill-rule:nonzero;fill:rgb(0%,0%,0%);fill-opacity:1;" d="M 14.515625 156.839844 C 13.589844 157.0625 11.820312 157.25 10.585938 157.324219 C 9.351562 157.359375 8.199219 157.507812 8.03125 157.617188 C 7.863281 157.765625 7.804688 158.507812 7.890625 159.46875 L 8.058594 161.019531 L 9.601562 160.945312 C 10.445312 160.871094 11.484375 160.761719 11.90625 160.652344 C 12.355469 160.539062 12.746094 160.652344 12.886719 160.945312 C 13.28125 161.796875 16.3125 162.351562 20.382812 162.351562 C 23.667969 162.351562 24.230469 162.425781 24.117188 162.90625 C 23.976562 163.3125 24.089844 163.351562 24.652344 163.089844 C 25.578125 162.609375 31.53125 162.90625 32.316406 163.425781 C 32.652344 163.683594 33.523438 163.832031 34.226562 163.792969 C 35.433594 163.683594 35.519531 163.757812 36.023438 164.941406 C 36.304688 165.644531 36.527344 166.085938 36.554688 165.9375 C 36.554688 165.792969 36.359375 165.125 36.105469 164.535156 C 35.601562 163.203125 35.574219 163.277344 36.835938 162.832031 C 37.960938 162.425781 38.523438 162.574219 38.523438 163.277344 C 38.523438 163.535156 38.71875 163.941406 38.941406 164.203125 C 39.28125 164.570312 39.363281 164.570312 39.363281 164.089844 C 39.363281 163.71875 39.53125 163.609375 39.953125 163.71875 C 40.347656 163.867188 40.429688 164.015625 40.207031 164.203125 C 40.011719 164.347656 39.839844 165.273438 39.839844 166.273438 C 39.757812 169.488281 42.761719 177.664062 47.984375 188.460938 C 49.246094 191.160156 50.316406 193.566406 50.316406 193.859375 C 50.316406 194.121094 50.847656 195.191406 51.523438 196.191406 C 52.195312 197.226562 53.207031 198.855469 53.796875 199.890625 C 54.386719 200.886719 55.058594 201.738281 55.3125 201.738281 C 55.59375 201.738281 55.789062 202.035156 55.789062 202.367188 C 55.789062 202.699219 56.800781 204.402344 58.035156 206.175781 C 60.421875 209.578125 67.355469 217.714844 67.777344 217.53125 C 67.890625 217.492188 68.003906 217.675781 68.003906 217.972656 C 68.003906 218.75 69.605469 220.414062 71.371094 221.414062 C 72.214844 221.929688 73.226562 222.632812 73.648438 223.039062 C 74.066406 223.410156 74.601562 223.632812 74.855469 223.519531 C 75.164062 223.371094 75.304688 223.484375 75.304688 223.890625 C 75.304688 224.519531 75.359375 224.554688 79.316406 227.625 C 80.835938 228.773438 82.015625 229.808594 81.929688 229.917969 C 81.84375 230.03125 81.339844 229.769531 80.777344 229.328125 C 79.488281 228.328125 79.289062 228.328125 79.964844 229.363281 C 80.664062 230.398438 88.105469 235.132812 92.316406 237.203125 C 94.171875 238.089844 96.304688 239.203125 97.0625 239.644531 C 98.296875 240.347656 102.230469 241.566406 102.761719 241.421875 C 102.875 241.382812 103.324219 241.566406 103.746094 241.789062 C 104.167969 242.046875 104.617188 242.195312 104.726562 242.160156 C 104.839844 242.121094 105.121094 242.195312 105.347656 242.34375 C 106.46875 242.898438 108.714844 243.195312 108.996094 242.824219 C 109.191406 242.566406 109.277344 242.566406 109.277344 242.863281 C 109.277344 243.085938 110.203125 243.492188 111.296875 243.714844 C 113.910156 244.304688 114.359375 244.601562 113.515625 245.15625 C 112.871094 245.636719 111.464844 245.378906 107.03125 244.046875 C 105.710938 243.640625 104.027344 243.269531 103.238281 243.195312 C 102.425781 243.160156 101.164062 242.675781 100.207031 242.085938 C 98.550781 241.011719 96.050781 240.164062 93.273438 239.644531 C 91.785156 239.386719 88.582031 237.832031 84.90625 235.539062 C 83.949219 234.949219 83.082031 234.46875 82.941406 234.46875 C 82.6875 234.503906 84.0625 235.910156 84.371094 235.945312 C 84.484375 235.945312 85.101562 236.28125 85.777344 236.648438 C 87.855469 237.90625 96.191406 242.160156 97.429688 242.566406 C 98.074219 242.824219 98.746094 242.898438 98.886719 242.789062 C 99.027344 242.675781 100.234375 243.085938 101.554688 243.714844 C 105.824219 245.636719 114.722656 247.261719 122.894531 247.632812 C 127.472656 247.816406 128.566406 247.964844 128.847656 248.445312 C 129.15625 248.925781 129.632812 248.964844 132.691406 248.59375 C 134.601562 248.335938 136.539062 247.964844 136.988281 247.742188 C 137.4375 247.523438 138.449219 247.449219 139.402344 247.597656 C 140.527344 247.742188 141.003906 247.707031 141.003906 247.375 C 141.003906 247.152344 141.230469 247.042969 141.566406 247.152344 C 142.324219 247.410156 151.167969 245.230469 151.53125 244.675781 C 151.703125 244.453125 152.066406 244.304688 152.402344 244.378906 C 152.710938 244.453125 154.734375 243.566406 156.867188 242.417969 C 161.359375 240.050781 161.386719 240.015625 160.9375 239.644531 C 160.601562 239.347656 164.054688 237.019531 166.976562 235.578125 C 169.785156 234.207031 172.507812 232.394531 174.078125 230.917969 C 174.921875 230.105469 176.691406 228.402344 178.011719 227.109375 C 179.359375 225.777344 181.15625 224.261719 182.023438 223.707031 C 183.878906 222.523438 186.769531 218.972656 186.769531 217.898438 C 186.769531 217.492188 186.574219 217.085938 186.347656 216.9375 C 185.816406 216.679688 185.816406 215.457031 186.347656 214.867188 C 186.601562 214.570312 186.769531 214.535156 186.769531 214.792969 C 186.769531 215.015625 186.628906 215.3125 186.488281 215.421875 C 186.320312 215.53125 186.207031 215.828125 186.207031 216.011719 C 186.207031 216.234375 186.347656 216.273438 186.488281 216.160156 C 186.65625 216.050781 186.769531 216.199219 186.769531 216.492188 C 186.769531 216.789062 186.910156 217.160156 187.050781 217.269531 C 187.386719 217.53125 194.070312 209.023438 194.070312 208.320312 C 194.070312 208.0625 194.265625 207.839844 194.492188 207.839844 C 195.417969 207.839844 199.097656 202.589844 200.472656 199.296875 C 200.78125 198.558594 202.351562 195.597656 203.980469 192.714844 C 207.292969 186.871094 209.511719 181.65625 211.058594 176.21875 C 211.617188 174.1875 212.320312 171.855469 212.601562 171.042969 C 212.882812 170.230469 213.414062 168.269531 213.753906 166.679688 C 214.34375 164.015625 214.425781 163.832031 215.15625 163.832031 C 215.578125 163.832031 216.277344 163.644531 216.726562 163.425781 C 217.824219 162.871094 223.71875 162.609375 224.394531 163.089844 C 224.84375 163.425781 224.957031 163.386719 224.957031 162.90625 C 224.957031 162.425781 225.542969 162.351562 228.828125 162.316406 C 232.507812 162.316406 235.289062 161.835938 236.1875 161.058594 C 236.410156 160.871094 237.5625 160.761719 238.742188 160.835938 L 240.902344 160.945312 L 241.015625 159.503906 C 241.210938 157.65625 240.847656 157.101562 239.695312 157.394531 C 239.21875 157.507812 237.140625 157.324219 235.089844 156.988281 C 233.042969 156.621094 230.570312 156.433594 229.617188 156.546875 C 226.472656 156.914062 223.410156 157.582031 223.328125 157.953125 C 223.1875 158.433594 221.671875 158.359375 219.199219 157.730469 C 217.570312 157.324219 216.699219 157.285156 215.746094 157.582031 C 213.894531 158.136719 208.613281 157.914062 208.78125 157.285156 C 208.980469 156.65625 208.53125 156.65625 208.136719 157.324219 C 207.882812 157.691406 206.703125 157.914062 203.8125 158.097656 C 195.054688 158.617188 187.726562 158.800781 187.304688 158.46875 C 187.191406 158.359375 185.140625 158.285156 182.726562 158.246094 C 180.3125 158.246094 178.289062 158.097656 178.207031 157.914062 C 178.011719 157.507812 172.730469 157.359375 170.90625 157.691406 C 170.597656 157.765625 170.175781 157.839844 169.980469 157.878906 C 169.785156 157.878906 169.699219 158.097656 169.785156 158.285156 C 170.007812 158.765625 169.558594 158.765625 169.195312 158.285156 C 168.828125 157.804688 166.890625 157.765625 161.078125 158.171875 C 158.1875 158.394531 155.914062 158.394531 155.324219 158.171875 C 154.257812 157.804688 152.234375 158.023438 151.980469 158.578125 C 151.898438 158.800781 151.617188 158.988281 151.394531 159.0625 C 150.886719 159.171875 148.585938 157.953125 148.585938 157.582031 C 148.585938 157.136719 145.242188 157.175781 143.585938 157.582031 C 141.988281 157.988281 136.0625 158.171875 135.78125 157.839844 C 135.699219 157.691406 135.21875 157.765625 134.742188 157.953125 C 134.238281 158.136719 132.214844 158.285156 130.195312 158.285156 C 128.199219 158.246094 125.421875 158.246094 124.015625 158.285156 C 116.6875 158.320312 114.386719 158.285156 110.679688 158.136719 C 108.460938 158.023438 105.992188 157.765625 105.207031 157.542969 C 102.988281 156.953125 100.882812 157.25 99.535156 158.320312 C 98.496094 159.132812 98.1875 159.207031 96.585938 158.988281 C 95.601562 158.839844 91.558594 158.507812 87.574219 158.285156 C 82.238281 157.953125 80.214844 157.953125 79.992188 158.246094 C 79.597656 158.765625 78.671875 158.765625 78.671875 158.246094 C 78.671875 157.988281 78.476562 157.953125 78.195312 158.097656 C 77.382812 158.507812 77.128906 158.507812 77.183594 158.023438 C 77.210938 157.804688 76.902344 157.507812 76.484375 157.394531 C 75.527344 157.175781 74.742188 157.210938 74.742188 157.507812 C 74.742188 157.617188 73.898438 157.691406 72.859375 157.65625 C 71.820312 157.617188 70.8125 157.765625 70.640625 157.953125 C 70.472656 158.136719 69.882812 158.285156 69.378906 158.246094 C 68.84375 158.246094 64.578125 158.285156 59.859375 158.359375 C 55.144531 158.433594 49.414062 158.359375 47.085938 158.210938 C 39.167969 157.691406 31.390625 157.582031 28.609375 158.023438 C 26.5625 158.320312 25.804688 158.320312 25.664062 158.023438 C 25.183594 157.027344 17.492188 156.214844 14.515625 156.839844 Z M 64.074219 162.390625 C 64.074219 162.648438 64.746094 162.757812 65.980469 162.722656 C 67.019531 162.683594 68.003906 162.683594 68.144531 162.722656 C 68.3125 162.757812 68.507812 162.796875 68.621094 162.757812 C 68.734375 162.757812 69.015625 163.089844 69.210938 163.574219 C 69.433594 164.015625 70.445312 166.160156 71.457031 168.304688 C 72.496094 170.488281 73.335938 172.375 73.335938 172.523438 C 73.335938 173.152344 77.660156 179.734375 79.738281 182.324219 C 84.878906 188.683594 86.644531 190.679688 87.9375 191.566406 C 89.59375 192.714844 94.675781 196.746094 94.675781 196.929688 C 94.675781 197.003906 94.425781 196.96875 94.113281 196.855469 C 91.757812 196.042969 97.148438 199.703125 102.257812 202.402344 C 106.777344 204.734375 107.480469 205.03125 112.363281 206.175781 C 117.308594 207.359375 117.335938 207.359375 116.941406 207.878906 C 116.71875 208.171875 115.847656 208.0625 113.851562 207.507812 C 112.335938 207.101562 110.738281 206.730469 110.316406 206.730469 C 109.894531 206.730469 108.769531 206.324219 107.816406 205.804688 C 106.890625 205.289062 105.316406 204.695312 104.390625 204.476562 C 102.285156 203.992188 101.078125 203.476562 98.128906 201.773438 C 96.839844 201.074219 95.800781 200.554688 95.800781 200.628906 C 95.800781 201.257812 104.8125 205.917969 106.863281 206.359375 C 107.648438 206.546875 108.6875 206.878906 109.136719 207.101562 C 110.820312 207.988281 118.148438 209.320312 122.445312 209.542969 C 124.859375 209.652344 127.105469 209.910156 127.441406 210.132812 C 127.890625 210.429688 128.875 210.390625 130.953125 210.097656 C 132.554688 209.835938 134.601562 209.578125 135.527344 209.503906 C 138.421875 209.246094 143.8125 207.617188 146.957031 205.992188 C 148.640625 205.140625 149.933594 204.289062 149.847656 204.105469 C 149.679688 203.773438 152.347656 201.921875 154.058594 201.183594 C 155.914062 200.40625 157.570312 199.1875 160.460938 196.414062 C 161.976562 194.96875 163.691406 193.453125 164.253906 193.085938 C 165.65625 192.121094 175.371094 179.363281 176.632812 176.8125 C 177.195312 175.664062 178.460938 173.371094 179.441406 171.671875 C 180.425781 169.96875 181.773438 167.269531 182.472656 165.644531 C 183.34375 163.574219 183.878906 162.722656 184.269531 162.722656 C 184.550781 162.722656 184.804688 162.535156 184.804688 162.351562 C 184.804688 161.835938 186.601562 161.910156 188.484375 162.5 C 189.464844 162.796875 190.222656 162.871094 190.449219 162.683594 C 190.953125 162.242188 197.4375 162.425781 197.4375 162.871094 C 197.4375 163.019531 197.832031 163.089844 198.308594 162.945312 C 198.785156 162.832031 199.855469 162.832031 200.667969 162.945312 C 202.128906 163.164062 202.15625 163.203125 201.933594 164.164062 C 201.820312 164.71875 200.695312 167.898438 199.460938 171.265625 C 196.121094 180.25 192.246094 188.128906 187.695312 195.230469 C 186.714844 196.746094 185.925781 198.1875 185.925781 198.484375 C 185.925781 198.742188 185.757812 198.964844 185.5625 198.964844 C 185.085938 198.964844 180.257812 205.398438 180.480469 205.730469 C 180.59375 205.878906 180.480469 205.992188 180.199219 205.992188 C 179.945312 205.992188 179.667969 206.25 179.582031 206.546875 C 179.46875 206.839844 179.300781 207.101562 179.132812 207.101562 C 178.992188 207.101562 178.011719 208.023438 177 209.171875 C 175.960938 210.316406 174.835938 211.539062 174.5 211.910156 C 174.191406 212.277344 172.167969 214.089844 170.0625 215.9375 C 164.421875 220.859375 156.644531 225.886719 150.832031 228.367188 C 149.988281 228.734375 149.230469 229.140625 149.144531 229.253906 C 149.0625 229.363281 148.753906 229.511719 148.445312 229.546875 C 148.136719 229.546875 146.367188 230.105469 144.515625 230.769531 C 142.660156 231.398438 140.695312 232.027344 140.160156 232.101562 C 139.628906 232.210938 138.167969 232.507812 136.933594 232.804688 C 127.890625 234.875 115.0625 234.320312 106.074219 231.546875 C 104.8125 231.140625 103.183594 230.695312 102.398438 230.546875 C 101.640625 230.398438 100.9375 230.140625 100.855469 229.992188 C 100.769531 229.808594 100.265625 229.621094 99.730469 229.585938 C 99.195312 229.511719 98.636719 229.289062 98.46875 229.066406 C 98.15625 228.625 96.53125 227.8125 95.910156 227.8125 C 95.6875 227.8125 95.519531 228.070312 95.519531 228.367188 C 95.519531 229.253906 105.289062 232.839844 109.558594 233.507812 C 110.257812 233.617188 112.195312 233.988281 113.882812 234.28125 C 117.417969 234.949219 125.421875 235.171875 129.886719 234.726562 C 131.570312 234.578125 133.03125 234.355469 133.140625 234.28125 C 133.226562 234.207031 134.125 234.0625 135.109375 233.914062 C 136.117188 233.800781 137.128906 233.617188 137.355469 233.542969 C 137.578125 233.46875 138.421875 233.285156 139.179688 233.171875 C 139.964844 233.0625 140.78125 232.878906 141.003906 232.804688 C 141.230469 232.730469 143.195312 232.210938 145.355469 231.695312 C 150.128906 230.546875 153.359375 229.363281 157.429688 227.257812 C 175.847656 217.824219 191.597656 198.558594 200.78125 174.261719 C 201.820312 171.449219 203.082031 167.824219 203.589844 166.125 L 204.515625 163.089844 L 205.75 163.089844 C 206.425781 163.089844 206.984375 163.164062 206.984375 163.238281 C 206.984375 163.609375 205.46875 168.601562 204.347656 171.929688 C 203.644531 173.964844 203.054688 175.960938 203.054688 176.332031 C 203.054688 177.882812 197.46875 189.089844 193.253906 196.007812 C 191.710938 198.558594 190.421875 200.851562 190.421875 201.074219 C 190.421875 201.332031 190.28125 201.554688 190.109375 201.554688 C 189.941406 201.554688 188.144531 203.660156 186.125 206.214844 C 182.222656 211.132812 177 216.53125 173.714844 219.046875 C 172.648438 219.859375 170.597656 221.414062 169.195312 222.523438 C 167.761719 223.59375 165.121094 225.40625 163.296875 226.554688 C 158.859375 229.253906 158.582031 229.4375 156.304688 230.398438 C 153.527344 231.621094 152.515625 232.210938 152.515625 232.582031 C 152.515625 232.765625 151.925781 233.171875 151.195312 233.507812 C 148.894531 234.46875 141.761719 236.761719 140.582031 236.910156 C 137.972656 237.203125 136.90625 237.535156 136.597656 238.089844 C 136.371094 238.425781 136.230469 238.5 136.230469 238.238281 C 136.230469 237.90625 135.699219 237.832031 134.351562 237.980469 C 128.3125 238.535156 121.492188 238.609375 117.953125 238.128906 C 115.875 237.832031 113.347656 237.609375 112.28125 237.609375 C 111.242188 237.609375 110.398438 237.464844 110.398438 237.277344 C 110.398438 237.128906 110.203125 237.054688 109.980469 237.203125 C 109.753906 237.316406 109.558594 237.277344 109.558594 237.09375 C 109.558594 236.910156 108.574219 236.574219 107.394531 236.316406 C 100.152344 234.800781 87.796875 228.699219 81.058594 223.335938 C 75.78125 219.121094 73.757812 217.382812 71.738281 215.199219 C 70.082031 213.386719 69.714844 213.128906 69.605469 213.644531 C 69.519531 214.128906 69.464844 214.015625 69.433594 213.386719 C 69.40625 212.757812 68.929688 211.980469 67.976562 210.984375 C 67.21875 210.171875 66.121094 208.652344 65.53125 207.65625 C 64.972656 206.621094 63.761719 204.917969 62.863281 203.808594 C 60.199219 200.554688 56.996094 195.378906 54.46875 190.273438 C 53.179688 187.609375 51.886719 185.242188 51.632812 184.949219 C 51.214844 184.503906 51.15625 184.542969 51.15625 185.28125 C 51.15625 186.09375 51.128906 186.132812 50.59375 185.464844 C 49.5 184.171875 46.945312 178.144531 44.671875 171.597656 C 43.941406 169.453125 43.183594 167.75 42.984375 167.824219 C 42.789062 167.898438 42.734375 167.675781 42.847656 167.308594 C 42.929688 166.976562 42.761719 165.976562 42.453125 165.050781 C 42.144531 164.089844 41.917969 163.3125 41.949219 163.238281 C 42.003906 163.203125 44.195312 163.089844 46.804688 162.980469 C 49.445312 162.871094 51.578125 162.757812 51.578125 162.722656 C 51.578125 162.464844 57.953125 162.351562 58.371094 162.648438 C 58.679688 162.871094 59.382812 162.832031 60.28125 162.535156 C 62.105469 161.945312 64.074219 161.871094 64.074219 162.390625 Z M 80.214844 162.351562 C 80.132812 162.5 80.75 162.757812 81.566406 162.871094 C 82.351562 163.019531 83.472656 163.238281 84.035156 163.351562 C 84.652344 163.460938 85.128906 163.351562 85.242188 163.128906 C 85.664062 162.242188 87.9375 162.945312 87.9375 163.980469 C 87.9375 164.347656 88.386719 164.347656 90.410156 163.90625 C 94.253906 163.089844 96.867188 163.019531 97.148438 163.71875 C 97.371094 164.238281 97.484375 164.238281 98.15625 163.644531 C 98.886719 163.019531 98.972656 163.019531 99.898438 163.574219 C 100.433594 163.90625 100.855469 164.015625 100.855469 163.832031 C 100.855469 163.644531 101.21875 163.574219 101.640625 163.683594 C 102.089844 163.792969 103.070312 163.644531 103.859375 163.351562 C 104.644531 163.054688 105.402344 162.90625 105.515625 163.089844 C 105.65625 163.238281 106.019531 163.5 106.328125 163.609375 C 106.636719 163.71875 106.441406 163.757812 105.90625 163.683594 C 105.375 163.609375 104.558594 163.792969 104.109375 164.089844 C 103.660156 164.386719 102.988281 164.570312 102.621094 164.460938 C 102.230469 164.347656 101.582031 164.535156 101.164062 164.792969 C 100.769531 165.089844 100.125 165.3125 99.757812 165.3125 C 99.394531 165.3125 99.140625 165.421875 99.253906 165.53125 C 99.335938 165.679688 100.601562 165.496094 102.03125 165.164062 C 104.980469 164.496094 111.4375 163.941406 115.453125 163.980469 C 121.070312 164.054688 122.78125 164.203125 122.613281 164.570312 C 122.527344 164.757812 122.699219 164.941406 123.035156 164.941406 C 123.371094 164.941406 123.539062 164.757812 123.457031 164.570312 C 123.257812 164.164062 123.148438 164.164062 128.230469 164.015625 C 130.25 163.941406 132.441406 163.792969 133.113281 163.683594 C 133.816406 163.535156 134.488281 163.609375 134.6875 163.832031 C 134.910156 164.054688 135.136719 164.089844 135.21875 163.90625 C 135.304688 163.71875 136.035156 163.71875 136.988281 163.90625 C 137.886719 164.089844 139.011719 164.164062 139.460938 164.054688 C 141.03125 163.644531 142.828125 163.574219 142.996094 163.90625 C 143.082031 164.089844 143.644531 164.3125 144.261719 164.460938 C 145.300781 164.644531 145.328125 164.609375 144.792969 164.089844 C 144.066406 163.351562 144.375 162.980469 145.328125 163.460938 C 146.140625 163.867188 148.667969 163.757812 149.511719 163.277344 C 149.792969 163.128906 150.269531 163.238281 150.71875 163.644531 C 151.308594 164.164062 151.503906 164.203125 151.703125 163.792969 C 152.011719 163.128906 156.726562 162.871094 157.035156 163.5 C 157.175781 163.832031 157.542969 163.832031 158.441406 163.535156 C 159.367188 163.238281 159.703125 163.238281 159.871094 163.574219 C 160.011719 163.867188 160.320312 163.832031 161.078125 163.351562 C 162.175781 162.648438 163.746094 162.5 163.746094 163.089844 C 163.746094 163.535156 165.488281 163.574219 165.878906 163.128906 C 166.019531 162.945312 167.199219 162.722656 168.519531 162.609375 C 169.839844 162.535156 170.652344 162.574219 170.34375 162.722656 C 170.035156 162.871094 171.242188 162.945312 173.011719 162.871094 C 174.78125 162.796875 176.605469 162.832031 177.027344 162.945312 L 177.8125 163.164062 L 177.082031 164.386719 C 176.691406 165.089844 176.382812 165.753906 176.382812 165.867188 C 176.382812 166.566406 171.75 174.59375 171.382812 174.519531 C 171.269531 174.480469 169.921875 174.519531 168.378906 174.59375 L 165.570312 174.703125 L 168.433594 174.890625 L 171.328125 175.109375 L 170.175781 176.847656 L 169.023438 178.625 L 166.46875 178.699219 L 163.886719 178.773438 L 165.992188 178.957031 C 167.199219 179.105469 168.070312 179.328125 167.984375 179.546875 C 167.789062 180.324219 165.683594 183.0625 165.289062 183.0625 C 165.066406 183.0625 164.871094 183.210938 164.871094 183.433594 C 164.871094 183.617188 164.222656 184.46875 163.4375 185.28125 C 162.175781 186.613281 161.835938 186.761719 160.488281 186.761719 C 159.648438 186.761719 158.972656 186.910156 158.972656 187.09375 C 158.972656 187.316406 159.421875 187.351562 159.957031 187.242188 C 161.5 186.910156 161.136719 187.648438 158.917969 189.460938 C 156.925781 191.050781 156.785156 191.085938 153.21875 191.53125 C 149.203125 192.046875 146.703125 192.566406 148.164062 192.605469 C 148.640625 192.640625 150.4375 192.417969 152.179688 192.160156 C 153.917969 191.902344 155.40625 191.789062 155.464844 191.863281 C 155.800781 192.308594 149.539062 196.523438 148.921875 196.300781 C 148.808594 196.265625 147.882812 196.746094 146.871094 197.410156 C 145.832031 198.078125 144.765625 198.59375 144.515625 198.59375 C 144.121094 198.59375 144.066406 198.816406 144.175781 199.703125 C 144.289062 200.332031 144.234375 200.8125 144.09375 200.8125 C 143.925781 200.8125 143.8125 200.554688 143.8125 200.257812 C 143.8125 199.628906 143.980469 199.59375 139.742188 201.035156 C 135.585938 202.441406 127.75 203.476562 122.726562 203.253906 C 118.625 203.03125 111.804688 201.847656 110.90625 201.183594 C 110.625 200.960938 110.148438 200.8125 109.808594 200.8125 C 109.472656 200.8125 107.984375 200.296875 106.496094 199.703125 C 102.621094 198.078125 102.902344 198.261719 103.378906 197.855469 C 103.6875 197.597656 103.519531 197.484375 102.789062 197.484375 C 101.472656 197.484375 97.765625 195.304688 98.355469 194.894531 C 98.578125 194.710938 100.066406 194.339844 101.667969 194.007812 C 104.53125 193.453125 105.570312 193.046875 104.167969 193.046875 C 103.773438 193.046875 101.921875 193.378906 100.066406 193.785156 L 96.699219 194.5625 L 95.6875 193.75 C 95.125 193.34375 94.675781 193.085938 94.675781 193.230469 C 94.675781 193.34375 94.453125 193.195312 94.199219 192.824219 C 93.917969 192.492188 92.851562 191.457031 91.785156 190.570312 C 90.71875 189.683594 89.707031 188.792969 89.511719 188.574219 C 89.34375 188.386719 88.527344 187.574219 87.683594 186.722656 C 85.972656 184.984375 86.058594 184.761719 88.527344 184.394531 C 89.425781 184.246094 90.492188 183.988281 90.914062 183.765625 C 91.617188 183.46875 91.558594 183.46875 90.519531 183.617188 C 89.875 183.726562 88.414062 183.914062 87.292969 184.023438 L 85.242188 184.28125 L 84.34375 182.839844 C 83.222656 181.066406 83.222656 180.84375 84.289062 180.84375 C 84.765625 180.84375 85.128906 180.660156 85.128906 180.472656 C 85.128906 180.25 84.710938 180.175781 84.035156 180.324219 C 83.050781 180.546875 82.828125 180.398438 81.789062 179.179688 C 80.46875 177.625 80.441406 177.070312 81.648438 176.738281 C 82.324219 176.515625 82.265625 176.480469 81.171875 176.441406 C 79.765625 176.40625 79.316406 175.925781 77.492188 172.523438 C 76.144531 169.96875 76.0625 169.75 76.484375 169.75 C 76.679688 169.75 77.183594 170.453125 77.605469 171.339844 C 78.027344 172.1875 78.785156 173.371094 79.289062 174 C 79.796875 174.59375 79.992188 174.777344 79.710938 174.335938 C 79.457031 173.925781 79.234375 173.410156 79.234375 173.226562 C 79.234375 173.039062 78.839844 172.410156 78.390625 171.820312 C 77.4375 170.597656 77.324219 170.117188 78.027344 170.117188 C 78.53125 170.117188 78.28125 169.601562 77.746094 169.527344 C 76.453125 169.414062 75.640625 168.785156 74.910156 167.417969 C 74.433594 166.605469 74.011719 166.125 73.957031 166.347656 C 73.816406 166.976562 73.421875 166.902344 73.226562 166.160156 C 73.113281 165.828125 73.199219 165.421875 73.394531 165.238281 C 73.648438 165.050781 73.589844 164.941406 73.167969 164.941406 C 72.496094 164.941406 71.484375 163.277344 71.933594 162.90625 C 72.074219 162.796875 73.730469 162.757812 75.640625 162.832031 C 77.550781 162.945312 78.867188 162.90625 78.617188 162.832031 C 77.746094 162.535156 78.082031 162.167969 79.234375 162.128906 C 79.851562 162.09375 80.300781 162.203125 80.214844 162.351562 Z M 80.214844 162.351562 "/>
<path style=" stroke:none;fill-rule:nonzero;fill:rgb(0%,0%,0%);fill-opacity:1;" d="M 45.34375 165.125 C 45.316406 165.828125 45.402344 166.421875 45.511719 166.421875 C 45.625 166.421875 45.710938 166.753906 45.738281 167.195312 C 45.820312 168.453125 48.320312 174.925781 48.714844 174.816406 C 48.910156 174.777344 49.023438 175.074219 48.964844 175.628906 C 48.855469 177.070312 52.027344 184.0625 55.761719 190.605469 C 63.792969 204.695312 73.589844 215.382812 85.777344 223.371094 C 88.527344 225.183594 91.25 226.738281 91.867188 226.886719 C 92.488281 227.035156 92.992188 227.257812 92.992188 227.402344 C 92.992188 227.625 94.621094 228.550781 95.042969 228.550781 C 95.460938 228.550781 95.210938 227.402344 94.761719 227.183594 C 94.480469 227.070312 92.515625 226 90.378906 224.777344 C 75.105469 216.011719 61.6875 200.589844 52.730469 181.507812 C 51.71875 179.328125 50.875 177.441406 50.875 177.367188 C 50.875 177.257812 50.453125 176.21875 49.949219 175.035156 C 49.414062 173.855469 48.65625 171.746094 48.207031 170.378906 C 47.675781 168.714844 47.28125 167.9375 47.03125 168.046875 C 46.832031 168.160156 46.664062 168.085938 46.664062 167.9375 C 46.664062 167.75 46.832031 167.492188 47.03125 167.417969 C 47.226562 167.308594 47.167969 167.195312 46.890625 167.195312 C 46.523438 167.160156 46.382812 166.863281 46.382812 166.085938 C 46.382812 163.71875 45.402344 162.796875 45.34375 165.125 Z M 45.34375 165.125 "/>
<path style=" stroke:none;fill-rule:nonzero;fill:rgb(0%,0%,0%);fill-opacity:1;" d="M 76.398438 181.546875 C 76.875 182.324219 77.269531 183.136719 77.269531 183.320312 C 77.269531 183.507812 78.195312 184.835938 79.316406 186.242188 C 81.789062 189.3125 82.519531 190.089844 82.714844 189.828125 C 82.800781 189.71875 83.050781 189.867188 83.277344 190.199219 C 83.5 190.496094 83.640625 190.828125 83.558594 190.9375 C 83.304688 191.273438 85.609375 193.417969 86.226562 193.417969 C 87.320312 193.417969 86.84375 192.417969 84.792969 190.382812 C 83.671875 189.273438 81.621094 186.835938 80.214844 184.949219 C 76.988281 180.621094 74.488281 178.367188 76.398438 181.546875 Z M 76.398438 181.546875 "/>
<path style=" stroke:none;fill-rule:nonzero;fill:rgb(0%,0%,0%);fill-opacity:1;" d="M 53.121094 204.03125 C 53.121094 204.328125 54.582031 206.769531 55.566406 208.136719 C 55.761719 208.394531 55.929688 208.949219 55.929688 209.320312 C 55.929688 210.097656 61.628906 217.417969 65.027344 221.007812 C 67.75 223.890625 69.125 224.742188 69.96875 224.039062 C 70.472656 223.632812 70.472656 223.519531 70.054688 222.929688 C 69.800781 222.558594 69.433594 222.261719 69.238281 222.261719 C 69.042969 222.261719 68.84375 222.152344 68.789062 221.96875 C 68.761719 221.820312 67.046875 219.933594 65.027344 217.75 C 63.035156 215.570312 61.179688 213.351562 60.984375 212.796875 C 60.757812 212.277344 60 211.207031 59.300781 210.429688 C 58.316406 209.355469 57.8125 209.023438 57.304688 209.171875 C 56.800781 209.320312 56.746094 209.28125 57.023438 209.023438 C 57.613281 208.46875 57.222656 207.65625 55.875 206.398438 C 55.199219 205.804688 54.328125 204.957031 53.910156 204.511719 C 53.460938 204.066406 53.121094 203.882812 53.121094 204.03125 Z M 53.121094 204.03125 "/>
</g>
</svg>
