<?xml version="1.0" encoding="UTF-8"?>
<svg width="200px" height="200px" viewBox="0 0 200 200" version="1.1" xmlns="http://www.w3.org/2000/svg" xmlns:xlink="http://www.w3.org/1999/xlink">
    <!-- Generator: Sketch 51.2 (57519) - http://www.bohemiancoding.com/sketch -->
    <title>OCN_token_stroke</title>
    <desc>Created with Sketch.</desc>
    <defs></defs>
    <g id="Page-1" stroke="none" stroke-width="1" fill="none" fill-rule="evenodd">
        <g id="token_stroke" fill="#000029">
            <g id="OCN_token_stroke" transform="translate(38.000000, 36.000000)">
                <path d="M64.4057971,128.6 C28.9741958,128.6 0.251207729,99.946224 0.251207729,64.6 C0.251207729,29.253776 28.9741958,0.6 64.4057971,0.6 C99.8373984,0.6 128.560386,29.253776 128.560386,64.6 C128.560386,99.946224 99.8373984,128.6 64.4057971,128.6 Z M64.4057971,123.251741 C96.876502,123.251741 123.199209,96.9924623 123.199209,64.6 C123.199209,32.2075377 96.876502,5.94825871 64.4057971,5.94825871 C31.9350922,5.94825871 5.61238494,32.2075377 5.61238494,64.6 C5.61238494,96.9924623 31.9350922,123.251741 64.4057971,123.251741 Z" id="Combined-Shape"></path>
                <path d="M39.0011899,43.8396383 C37.7517454,43.8396383 36.5050744,43.9579637 35.2833645,44.1932386 C42.297449,34.4231409 53.6464541,28.6155671 65.8219507,28.6155671 C80.3548898,28.6155671 93.7063341,37.0758304 99.8204303,50.1301448 C99.8800598,50.3131363 99.9521698,50.4920003 100.03676,50.6653607 C101.11009,52.9011597 101.653688,55.2649152 101.653688,57.6933368 C101.653688,66.7287165 94.2457724,74.0800236 85.1391111,74.0800236 C80.4408671,74.0800236 75.9839142,72.0327196 72.5864237,68.3178536 C70.9792027,66.5581078 69.421904,64.7336959 67.7619872,62.7868309 C65.4905221,60.1245103 63.1414001,57.3727576 60.5010646,54.6141257 C52.2624967,46.0066435 43.8880293,44.4037476 42.9741737,44.2524012 C41.648459,43.9786018 40.3130372,43.8396383 39.0011899,43.8396383 Z M60.308309,61.5609251 C61.6159961,63.0399921 62.8862416,64.5273144 64.1176586,65.9678569 C64.7486211,66.7053266 65.3754234,67.4400446 66.000839,68.1651314 C62.5880945,72.184066 60.7118476,77.2541702 60.7118476,82.4783725 C60.7118476,87.7699928 62.5728404,92.7864378 65.9883584,96.7984931 C58.7634908,92.8153312 54.1872791,85.2218699 54.1872791,76.9679879 C54.1872791,71.2374631 56.3575129,65.7807377 60.308309,61.5609251 Z M56.9829285,57.9299876 C52.065581,63.1349276 49.3337212,69.8643386 49.3337212,76.9679879 C49.3337212,87.1494726 54.9430474,96.3527092 63.8416991,101.139383 C50.3363276,97.6790539 40.4711245,85.3002948 40.4711245,71.2539737 C40.4711245,63.8806526 43.1447416,56.7522374 48.0066198,51.151045 C51.2432496,52.808976 54.2621626,55.088803 56.9829285,57.9299876 Z M42.3154765,49.0335714 C42.5012985,49.0679683 42.8341139,49.1422656 43.2861881,49.2674704 C38.3369458,55.5249558 35.6175667,63.3110398 35.6175667,71.2539737 C35.6175667,82.1564175 40.6167313,92.350285 49.1368055,99.1058376 C45.5132778,97.3171985 42.2239523,94.9672017 39.3340053,92.0998755 C35.8921394,88.6863264 33.1907877,84.7114198 31.3034471,80.2838498 C29.3509301,75.7035576 28.3608043,70.8370831 28.3608043,65.8165105 C28.3608043,60.7973138 29.3509301,55.9308393 31.3020603,51.3532988 C31.3686234,51.1992007 31.4435069,51.0519819 31.5183903,50.9047632 C31.5641525,50.8139553 31.6113013,50.7203957 31.6570634,50.6268361 C34.7952353,48.8175588 38.4756189,48.2011662 42.1421352,49.0005504 L42.3154765,49.0335714 Z M106.507246,57.6933368 C106.507246,54.609998 105.834682,51.6119636 104.507581,48.781786 C97.6002743,33.5246937 82.4419197,23.8 65.8219507,23.8 C44.1792428,23.8 26.0976596,39.8661076 23.7624048,61.1715521 C23.7637916,61.273367 23.7568579,61.3738059 23.7485375,61.4756208 L23.7208029,61.7975758 C23.6694939,62.240608 23.6459195,62.5047763 23.6459195,62.5047763 C23.5530085,63.8393763 23.5072464,64.8602765 23.5072464,65.8165105 C23.5072464,71.483745 24.6263382,76.9831226 26.8326269,82.1591692 C28.9640322,87.1604796 32.0162267,91.649964 35.9018465,95.5037935 C39.7874662,99.3589989 44.3123689,102.385927 49.3517487,104.502025 C54.5672434,106.689668 60.1086197,107.8 65.8219507,107.8 C72.0941343,107.8 78.1402806,106.464024 83.7912088,103.829221 C84.6454349,103.50589 85.1765528,102.765669 85.1765528,101.934639 C85.1765528,100.825683 84.2654707,99.9217323 83.1477656,99.9217323 C73.4531305,99.9217323 65.5654055,92.0971238 65.5654055,82.4783725 C65.5654055,78.63555 66.8689325,74.8684007 69.2430157,71.8249623 C73.5404945,76.3873681 79.1720084,78.8955906 85.1391111,78.8955906 C96.9221629,78.8955906 106.507246,69.3841578 106.507246,57.6933368 Z" id="ocean_logo"></path>
            </g>
        </g>
    </g>
</svg>