<svg height="250" viewBox="0 0 250 250" width="250" xmlns="http://www.w3.org/2000/svg"><path d="m125 0c69.035156 0 125 55.964844 125 125s-55.964844 125-125 125-125-55.964844-125-125 55.964844-125 125-125zm0 0" fill="#1a82ff"/><path d="m170.699219 176.472656c-10.820313 13.257813-26.039063 19.882813-45.65625 19.882813-19.617188 0-34.839844-6.625-45.664063-19.882813-10.828125-13.265625-16.242187-30.410156-16.234375-51.4375.003907-21.027344 5.414063-38.167968 16.226563-51.429687 10.820312-13.261719 26.042968-19.894531 45.664062-19.890625 19.621094 0 34.839844 6.632812 45.65625 19.890625 10.824219 13.257812 16.234375 30.402343 16.238282 51.429687 0 21.027344-5.410157 38.175782-16.230469 51.4375zm0 0" fill="#fff"/><g fill="#1a82ff"><path d="m124.8125 168.636719c5.167969 0 9.554688-1.40625 13.171875-4.222657 3.617187-2.8125 6.238281-6.628906 7.859375-11.449218 1.617188-4.820313 2.761719-9.445313 3.425781-13.863282.667969-4.421874 1-9.109374.996094-14.066406 0-6.097656-.371094-11.558594-1.109375-16.378906l-44.492188 46.363281c4.113282 9.074219 10.832032 13.613281 20.148438 13.617188zm0 0"/><path d="m125.257812 81.4375c-5.164062 0-9.554687 1.40625-13.171874 4.21875-3.617188 2.816406-6.234376 6.632812-7.855469 11.449219-1.628907 4.824219-2.773438 9.445312-3.429688 13.867187-.667969 4.421875-1 9.109375-.992187 14.0625 0 3.265625.101562 6.347656.3125 9.242188l42.4375-44.214844c-4.121094-5.75-9.890625-8.625-17.300782-8.625zm0 0"/><path d="m66.601562 169.234375-5.464843-5.242187 41.433593-43.191407 5.464844 5.242188zm78.070313-45.070313-5.464844-5.242187 41.4375-43.191406 5.460938 5.242187zm0 0"/></g></svg>