<svg height="250" viewBox="0 0 250 250" width="250" xmlns="http://www.w3.org/2000/svg" xmlns:xlink="http://www.w3.org/1999/xlink"><filter id="a" height="100%" width="100%" x="0%" y="0%"><feColorMatrix in="SourceGraphic" type="matrix" values="0 0 0 0 1 0 0 0 0 1 0 0 0 0 1 0 0 0 1 0"/></filter><mask id="b"><g filter="url(#a)"><path d="m0 0h250v250h-250z" fill-opacity=".2"/></g></mask><clipPath id="c"><path d="m0 0h250v250h-250z"/></clipPath><linearGradient id="d" gradientUnits="userSpaceOnUse" x1="92.75256190131" x2="116.69624638383" y1="106.31664035289" y2="127.79189892477"><stop offset="0" stop-color="#1d313f"/><stop offset="1" stop-color="#fff"/></linearGradient><path d="m225.195312 124.105469c.183594 54.90625-44.175781 99.5625-99.082031 99.746093-54.902343.1875-99.5625-44.175781-99.746093-99.078124-.183594-54.90625 44.175781-99.5625 99.082031-99.75 54.90625-.183594 99.5625 44.179687 99.746093 99.082031zm0 0" fill="#1e313f"/><g clip-path="url(#c)" mask="url(#b)"><path d="m187.914062 186.15625c34.082032-34.324219 33.914063-89.769531-.414062-123.851562-34.328125-34.082032-89.769531-33.910157-123.851562.414062zm0 0" fill="#fff"/></g><path d="m179.515625 94.824219-11.304687-11.402344-6.148438 6.25c-.027344-.023437-.050781-.046875-.074219-.070313l-5.003906 5.050782-30.789063 31.203125-19.480468-19.753907c-4.03125 4.203126-6.691406 9.71875-7.277344 15.824219l26.757812 27.121094 30.273438-30.6875c.390625 1.953125.585938 3.980469.585938 6.054687 0 17.234376-14.039063 31.273438-31.273438 31.273438-17.238281 0-31.273438-14.039062-31.273438-31.273438 0-17.234374 14.035157-31.273437 31.273438-31.273437 7.078125 0 13.621094 2.367187 18.871094 6.347656l13.402344-13.597656c-8.738282-7.328125-19.992188-11.769531-32.273438-11.769531-27.710938 0-50.269531 22.558594-50.269531 50.269531 0 27.734375 22.558593 50.265625 50.269531 50.265625s50.269531-22.554688 50.269531-50.265625c0-7.617187-1.710937-14.820313-4.738281-21.289063zm0 0" fill="#fff"/><path d="m126.195312 149.046875-26.734374-27.125c.585937-6.125 3.25-11.621094 7.277343-15.820313l19.480469 19.753907v23.191406zm0 0" fill="url(#d)"/></svg>