<svg height="250" viewBox="0 0 250 250" width="250" xmlns="http://www.w3.org/2000/svg"><path d="m0 125c0-69.035156 55.964844-125 125-125s125 55.964844 125 125-55.964844 125-125 125-125-55.964844-125-125zm0 0" fill="#708b96"/><path d="m70 180h43v-20.582031c-15.667969-4.933594-27-19.261719-27-36.167969 0-20.988281 17.460938-38 39-38s39 17.011719 39 38c0 16.90625-11.332031 31.234375-27 36.167969v20.582031h43v-15.5h-20.90625c12.589844-9.6875 20.65625-24.621094 20.65625-41.375 0-29.203125-24.511719-52.875-54.75-52.875s-54.75 23.671875-54.75 52.875c0 16.753906 8.066406 31.6875 20.65625 41.375h-20.90625zm0 0" fill="#fff" fill-rule="evenodd"/></svg>