<svg height="250" viewBox="0 0 250 250" width="250" xmlns="http://www.w3.org/2000/svg"><path d="m250 125c0 69.035156-55.964844 125-125 125s-125-55.964844-125-125 55.964844-125 125-125 125 55.964844 125 125zm0 0" fill="#1a53f0"/><path d="m100.398438 141.929688c-15.960938 0-28.902344 12.980468-28.902344 28.988281 0 16.011719 12.941406 28.988281 28.90625 28.988281 15.960937 0 28.90625-12.976562 28.90625-28.988281 0-16.007813-12.941406-28.988281-28.90625-28.988281zm0 49.210937c-11.125 0-20.148438-9.050781-20.148438-20.210937 0-11.164063 9.019531-20.210938 20.148438-20.210938 11.128906 0 20.152343 9.046875 20.152343 20.210938-.015625 11.152343-9.027343 20.195312-20.152343 20.210937zm61.734374-111.046875c-15.964843 0-28.90625 12.980469-28.90625 28.988281 0 16.011719 12.941407 28.988281 28.90625 28.988281 15.964844 0 28.90625-12.976562 28.90625-28.988281 0-16.007812-12.941406-28.988281-28.90625-28.988281zm0 49.207031c-11.125 0-20.152343-9.046875-20.152343-20.207031 0-11.164062 9.019531-20.210938 20.152343-20.210938 11.132813 0 20.152344 9.046876 20.152344 20.210938-.019531 11.15625-9.035156 20.1875-20.152344 20.207031zm-61.734374-49.207031c-13.757813-.011719-25.625 9.710938-28.359376 23.234375-2.734374 13.527344 4.414063 27.113281 17.085938 32.484375 12.707031 5.339844 27.417969.988281 35.179688-10.40625 7.757812-11.394531 6.417968-26.675781-3.203126-36.546875h8.195313v-8.765625zm20.15625 28.988281c0 11.160157-9.023438 20.210938-20.152344 20.210938-11.132813 0-20.152344-9.050781-20.152344-20.210938 0-11.160156 9.019531-20.207031 20.148438-20.207031 11.128906 0 20.144531 9.050781 20.164062 20.210938h-.007812zm0 0" fill="#fff"/></svg>