<?xml version="1.0" encoding="UTF-8"?>
<svg id="Layer_1" data-name="Layer 1" xmlns="http://www.w3.org/2000/svg" xmlns:xlink="http://www.w3.org/1999/xlink" viewBox="0 0 512 512">
  <defs>
    <clipPath id="clippath-1">
      <path d="M255.8,512c141.31,0,255.72-114.41,255.72-255.64S396.87,.72,255.8,.72,0,115.13,0,256.36s114.49,255.64,255.8,255.64Z" fill="none"/>
    </clipPath>
  </defs>
  <g>
    <path d="M255.8,511.28c141.31,0,255.72-114.41,255.72-255.64S396.87,0,255.8,0,0,114.41,0,255.64s114.49,255.64,255.8,255.64Z" fill="#f6be4e"/>
    <g clip-path="url(#clippath-1)">
      <g opacity=".69">
        <path d="M508.7,216.59c32.21,120.37-52.42,249.17-187.49,285.31-135.06,36.14-272.71-33.17-304.92-153.55,63.34,76.71,172.71,110.1,277.91,84.97,110.89-26.49,196.9-113.16,214.5-216.73Z" fill="#e38329"/>
      </g>
    </g>
  </g>
  <g>
    <circle cx="153.77" cy="243.71" r="16.29" fill="#313076"/>
    <circle cx="357.76" cy="243.71" r="16.29" fill="#313076"/>
    <path d="M236.5,254.57c-4.7,.21-7.97,3.59-8.27,8.2-.38,5.98,2.33,12.33,6.99,16.08,4.89,3.94,11.39,5.64,17.62,5.73,6.19,.09,11.92-1.61,16.67-5.55,2.66-2.21,4.45-5.14,5.67-8.34,1.25-3.3,2.08-6.1,1.43-9.71-.62-3.46-4.58-6.11-7.94-6.04-10.73,.2-21.45-.57-32.18-.37" fill="#313076"/>
  </g>
</svg>