
<svg xmlns="http://www.w3.org/2000/svg" xmlns:xlink="http://www.w3.org/1999/xlink" width="250px" height="250px" viewBox="0 0 250 250" version="1.1">
<defs>
<clipPath id="clip1">
  <path d="M 124.902344 250 C 193.902344 250 249.765625 194.136719 249.765625 125.175781 C 249.765625 56.214844 193.785156 0.351562 124.902344 0.351562 C 56.019531 0.351562 0 56.214844 0 125.175781 C 0 194.136719 55.902344 250 124.902344 250 Z M 124.902344 250 "/>
</clipPath>
<filter id="alpha" filterUnits="objectBoundingBox" x="0%" y="0%" width="100%" height="100%">
  <feColorMatrix type="matrix" in="SourceGraphic" values="0 0 0 0 1 0 0 0 0 1 0 0 0 0 1 0 0 0 1 0"/>
</filter>
<mask id="mask0">
  <g filter="url(#alpha)">
<rect x="0" y="0" width="250" height="250" style="fill:rgb(0%,0%,0%);fill-opacity:0.69;stroke:none;"/>
  </g>
</mask>
<clipPath id="clip2">
  <rect x="0" y="0" width="250" height="250"/>
</clipPath>
<g id="surface5" clip-path="url(#clip2)">
<path style=" stroke:none;fill-rule:nonzero;fill:rgb(89.019608%,51.372552%,16.078432%);fill-opacity:1;" d="M 248.390625 105.757812 C 264.117188 164.53125 222.792969 227.421875 156.839844 245.070312 C 90.894531 262.714844 23.679688 228.871094 7.953125 170.09375 C 38.882812 207.546875 92.285156 223.851562 143.652344 211.582031 C 197.796875 198.648438 239.796875 156.328125 248.390625 105.757812 Z M 248.390625 105.757812 "/>
</g>
</defs>
<g id="surface1">
<path style=" stroke:none;fill-rule:nonzero;fill:rgb(96.470588%,74.509805%,30.588236%);fill-opacity:1;" d="M 124.902344 249.648438 C 193.902344 249.648438 249.765625 193.785156 249.765625 124.824219 C 249.765625 55.863281 193.785156 0 124.902344 0 C 56.019531 0 0 55.863281 0 124.824219 C 0 193.785156 55.902344 249.648438 124.902344 249.648438 Z M 124.902344 249.648438 "/>
<g clip-path="url(#clip1)" clip-rule="nonzero">
<use xlink:href="#surface5" mask="url(#mask0)"/>
</g>
<path style=" stroke:none;fill-rule:nonzero;fill:rgb(19.215687%,18.82353%,46.27451%);fill-opacity:1;" d="M 83.039062 119 C 83.039062 123.390625 79.476562 126.953125 75.082031 126.953125 C 70.691406 126.953125 67.128906 123.390625 67.128906 119 C 67.128906 114.605469 70.691406 111.046875 75.082031 111.046875 C 79.476562 111.046875 83.039062 114.605469 83.039062 119 Z M 83.039062 119 "/>
<path style=" stroke:none;fill-rule:nonzero;fill:rgb(19.215687%,18.82353%,46.27451%);fill-opacity:1;" d="M 182.640625 119 C 182.640625 123.390625 179.082031 126.953125 174.6875 126.953125 C 170.292969 126.953125 166.734375 123.390625 166.734375 119 C 166.734375 114.605469 170.292969 111.046875 174.6875 111.046875 C 179.082031 111.046875 182.640625 114.605469 182.640625 119 Z M 182.640625 119 "/>
<path style=" stroke:none;fill-rule:nonzero;fill:rgb(19.215687%,18.82353%,46.27451%);fill-opacity:1;" d="M 115.476562 124.300781 C 113.183594 124.40625 111.585938 126.054688 111.441406 128.304688 C 111.253906 131.226562 112.578125 134.324219 114.851562 136.15625 C 117.242188 138.082031 120.414062 138.910156 123.457031 138.953125 C 126.480469 139 129.277344 138.167969 131.597656 136.246094 C 132.894531 135.164062 133.769531 133.734375 134.367188 132.171875 C 134.976562 130.5625 135.382812 129.195312 135.0625 127.433594 C 134.761719 125.742188 132.828125 124.449219 131.1875 124.484375 C 125.945312 124.582031 120.714844 124.203125 115.472656 124.300781 "/>
</g>
</svg>
