<svg height="250" viewBox="0 0 250 250" width="250" xmlns="http://www.w3.org/2000/svg"><path d="m95.546875 95c11.8125-11.835938 28.960937-16.59375 45.167969-12.535156 16.207031 4.0625 29.097656 16.347656 33.960937 32.363281-10.703125-3.253906-22.203125-2.632813-32.496093 1.753906-.144532-.160156-.292969-.316406-.449219-.472656-7.097657-7.09375-18.589844-7.089844-25.679688.015625-7.089843 7.101562-7.09375 18.617188-.011719 25.730469.230469.230469.46875.453125.710938.667969-4.074219 10.117187-4.574219 21.324218-1.414062 31.761718-15.980469-4.871094-28.242188-17.789062-32.292969-34.027344-4.054688-16.242187.691406-33.421874 12.503906-45.257812zm0 0" fill="#fff" fill-rule="evenodd"/><path d="m36.960938 36.539062c48.621093-48.71875 127.453124-48.71875 176.074218 0 27.113282 27.109376 40.230469 65.234376 35.554688 103.324219-12.78125-12.144531-29.355469-19.507812-46.921875-20.84375-1.335938-17.683593-8.742188-34.355469-20.964844-47.183593-.4375-.464844-.886719-.925782-1.339844-1.382813-19.4375-19.484375-47.773437-27.097656-74.332031-19.96875s-47.304688 27.914063-54.417969 54.527344c-7.117187 26.609375.484375 55.003906 19.929688 74.480469.523437.523437 1.054687 1.042968 1.589843 1.546874 12.777344 12.125 29.332032 19.472657 46.878907 20.800782 1.324219 17.503906 8.597656 34.019531 20.601562 46.804687-37.867187 4.523438-75.714843-8.632812-102.652343-35.683593-48.617188-48.714844-48.617188-127.703126 0-176.421876zm0 0" fill="#80b9ff" fill-rule="evenodd"/><path d="m241.699219 183.164062c-1.042969-3.972656-2.601563-7.792968-4.632813-11.363281-.125-.234375-.265625-.460937-.398437-.6875-.164063-.285156-.339844-.570312-.515625-.851562-12.679688-20.476563-38.617188-28.253907-60.441406-18.117188-.867188-1.722656-2.003907-3.292969-3.367188-4.65625-.105469-.105469-.214844-.214843-.324219-.316406-7.039062-6.707031-18.097656-6.683594-25.105469.058594-7.003906 6.738281-7.480468 17.808593-1.082031 25.128906.261719.296875.53125.589844.816407.875 1.515624 1.519531 3.289062 2.761719 5.234374 3.660156-3.871093 9.246094-4.742187 19.476563-2.484374 29.246094.917968 4.003906 2.351562 7.871094 4.273437 11.503906.175781.34375.367187.691407.558594 1.03125.375.671875.765625 1.339844 1.175781 1.992188.101562.164062.210938.328125.316406.488281 12.351563 19.238281 36.597656 26.972656 57.777344 18.433594.023438.035156.046875.070312.070312.105468 11.425782-4.628906 20.617188-13.511718 25.65625-24.78125-.027343-.023437-.054687-.042968-.085937-.0625 4.441406-9.960937 5.34375-21.144531 2.558594-31.6875zm-39.753907 16.421876v19.757812h-13.148437v-19.757812h-18.132813l24.695313-29.664063 24.71875 29.664063zm0 0" fill="#fff"/></svg>