<?xml version="1.0" encoding="UTF-8"?>
<svg xmlns="http://www.w3.org/2000/svg" xmlns:xlink="http://www.w3.org/1999/xlink" width="250px" height="250px" viewBox="0 0 250 250" version="1.1">
<g id="surface1">
<path style=" stroke:none;fill-rule:evenodd;fill:rgb(100%,100%,100%);fill-opacity:1;" d="M 95.546875 95 C 107.359375 83.164062 124.507812 78.40625 140.714844 82.464844 C 156.921875 86.527344 169.8125 98.8125 174.675781 114.828125 C 163.972656 111.574219 152.472656 112.195312 142.179688 116.582031 C 142.035156 116.421875 141.886719 116.265625 141.730469 116.109375 C 134.632812 109.015625 123.140625 109.019531 116.050781 116.125 C 108.960938 123.226562 108.957031 134.742188 116.039062 141.855469 C 116.269531 142.085938 116.507812 142.308594 116.75 142.523438 C 112.675781 152.640625 112.175781 163.847656 115.335938 174.285156 C 99.355469 169.414062 87.09375 156.496094 83.042969 140.257812 C 78.988281 124.015625 83.734375 106.835938 95.546875 95 Z M 95.546875 95 "/>
<path style=" stroke:none;fill-rule:evenodd;fill:rgb(50.196081%,72.549021%,100%);fill-opacity:1;" d="M 36.960938 36.539062 C 85.582031 -12.179688 164.414062 -12.179688 213.035156 36.539062 C 240.148438 63.648438 253.265625 101.773438 248.589844 139.863281 C 235.808594 127.71875 219.234375 120.355469 201.667969 119.019531 C 200.332031 101.335938 192.925781 84.664062 180.703125 71.835938 C 180.265625 71.371094 179.816406 70.910156 179.363281 70.453125 C 159.925781 50.96875 131.589844 43.355469 105.03125 50.484375 C 78.472656 57.613281 57.726562 78.398438 50.613281 105.011719 C 43.496094 131.621094 51.097656 160.015625 70.542969 179.492188 C 71.066406 180.015625 71.597656 180.535156 72.132812 181.039062 C 84.910156 193.164062 101.464844 200.511719 119.011719 201.839844 C 120.335938 219.34375 127.609375 235.859375 139.613281 248.644531 C 101.746094 253.167969 63.898438 240.011719 36.960938 212.960938 C -11.65625 164.246094 -11.65625 85.257812 36.960938 36.539062 Z M 36.960938 36.539062 "/>
<path style=" stroke:none;fill-rule:nonzero;fill:rgb(100%,100%,100%);fill-opacity:1;" d="M 241.699219 183.164062 C 240.65625 179.191406 239.097656 175.371094 237.066406 171.800781 C 236.941406 171.566406 236.800781 171.339844 236.667969 171.113281 C 236.503906 170.828125 236.328125 170.542969 236.152344 170.261719 C 223.472656 149.785156 197.535156 142.007812 175.710938 152.144531 C 174.84375 150.421875 173.707031 148.851562 172.34375 147.488281 C 172.238281 147.382812 172.128906 147.273438 172.019531 147.171875 C 164.980469 140.464844 153.921875 140.488281 146.914062 147.230469 C 139.910156 153.96875 139.433594 165.039062 145.832031 172.359375 C 146.09375 172.65625 146.363281 172.949219 146.648438 173.234375 C 148.164062 174.753906 149.9375 175.996094 151.882812 176.894531 C 148.011719 186.140625 147.140625 196.371094 149.398438 206.140625 C 150.316406 210.144531 151.75 214.011719 153.671875 217.644531 C 153.847656 217.988281 154.039062 218.335938 154.230469 218.675781 C 154.605469 219.347656 154.996094 220.015625 155.40625 220.667969 C 155.507812 220.832031 155.617188 220.996094 155.722656 221.15625 C 168.074219 240.394531 192.320312 248.128906 213.5 239.589844 C 213.523438 239.625 213.546875 239.660156 213.570312 239.695312 C 224.996094 235.066406 234.1875 226.183594 239.226562 214.914062 C 239.199219 214.890625 239.171875 214.871094 239.140625 214.851562 C 243.582031 204.890625 244.484375 193.707031 241.699219 183.164062 Z M 201.945312 199.585938 L 201.945312 219.34375 L 188.796875 219.34375 L 188.796875 199.585938 L 170.664062 199.585938 L 195.359375 169.921875 L 220.078125 199.585938 Z M 201.945312 199.585938 "/>
</g>
</svg>
