<!-- Generator: Adobe Illustrator 22.0.1, SVG Export Plug-In . SVG Version: 6.00 Build 0)  -->
<svg xmlns="http://www.w3.org/2000/svg" xmlns:xlink="http://www.w3.org/1999/xlink" width="250px" height="250px" viewBox="0 0 250 250" version="1.1">
<defs>
<linearGradient id="linear0" gradientUnits="userSpaceOnUse" x1="88.606697" y1="311.057892" x2="306.700989" y2="92.963501" gradientTransform="matrix(0.625,0,0,-0.625,0,251.25)">
<stop offset="0" style="stop-color:rgb(21.568628%,56.862748%,81.176472%);stop-opacity:1;"/>
<stop offset="0.5025" style="stop-color:rgb(27.843139%,54.901963%,79.607844%);stop-opacity:1;"/>
<stop offset="1" style="stop-color:rgb(35.686275%,75.686276%,81.960785%);stop-opacity:1;"/>
</linearGradient>
</defs>
<g id="surface1">
<path style=" stroke:none;fill-rule:nonzero;fill:url(#linear0);" d="M 123.5625 221.375 C 79.5625 221.375 41.1875 191.625 30.25 149.0625 C 29.6875 147 30.1875 144.75 31.5 143.0625 C 32.8125 141.375 34.875 140.375 37 140.375 L 63.875 140.375 C 66.8125 140.375 69.375 142.1875 70.4375 144.875 C 78.75 166.9375 100.125 181.75 123.625 181.75 C 145.375 181.75 164.875 169.625 174.5625 150.1875 C 175.3125 148.625 175.4375 146.875 174.875 145.25 C 174.3125 143.625 173.1875 142.3125 171.625 141.5625 C 168.4375 140 164.5625 141.3125 163 144.4375 C 155.5 159.5 140.4375 168.875 123.625 168.875 C 99.375 168.875 79.6875 149.1875 79.6875 124.9375 C 79.6875 100.6875 99.375 81 123.625 81 C 140.4375 81 155.5 90.375 163 105.4375 C 164.5625 108.625 168.4375 109.9375 171.625 108.3125 C 173.1875 107.5625 174.3125 106.25 174.875 104.625 C 175.4375 103 175.3125 101.25 174.5625 99.6875 C 164.875 80.1875 145.375 68.125 123.625 68.125 C 100.125 68.125 78.75 82.9375 70.4375 105 C 69.4375 107.75 66.8125 109.5 63.875 109.5 L 37 109.5 C 34.8125 109.5 32.8125 108.5 31.5 106.8125 C 30.1875 105.125 29.75 102.875 30.25 100.8125 C 41.1875 58.375 79.5625 28.625 123.5625 28.625 C 176.75 28.625 220 71.875 220 125 C 220 178.125 176.75 221.375 123.5625 221.375 Z M 46.5 154.3125 C 58.5 186 89 207.4375 123.5625 207.4375 C 169 207.4375 206 170.4375 206 125 C 206 79.5625 169.0625 42.5625 123.5625 42.5625 C 89 42.5625 58.5 64 46.5 95.6875 L 59.1875 95.6875 C 70.625 70.75 95.875 54.25 123.5625 54.25 C 150.625 54.25 174.9375 69.3125 187 93.5625 C 189.4375 98.4375 189.8125 104 188.0625 109.125 C 186.3125 114.3125 182.6875 118.4375 177.8125 120.875 C 167.75 125.875 155.5 121.75 150.5 111.6875 C 145.375 101.375 135.0625 95 123.625 95 C 107.125 95 93.625 108.4375 93.625 125 C 93.625 141.5625 107.0625 155 123.625 155 C 135.125 155 145.375 148.625 150.5 138.3125 C 155.5 128.25 167.75 124.125 177.8125 129.125 C 182.6875 131.5625 186.3125 135.75 188.0625 140.875 C 189.8125 146.0625 189.4375 151.5625 187 156.4375 C 174.9375 180.6875 150.6875 195.75 123.5625 195.75 C 95.875 195.75 70.625 179.3125 59.1875 154.3125 Z M 46.5 154.3125 "/>
</g>
</svg>
