<?xml version="1.0" encoding="UTF-8"?>
<svg width="256px" height="256px" viewBox="0 0 256 256" version="1.1" xmlns="http://www.w3.org/2000/svg" xmlns:xlink="http://www.w3.org/1999/xlink">
    <!-- Generator: Sketch 63.1 (92452) - https://sketch.com -->
    <title>Group</title>
    <desc>Created with Sketch.</desc>
    <defs>
        <circle id="path-1" cx="128" cy="128" r="128"></circle>
    </defs>
    <g id="Page-1" stroke="none" stroke-width="1" fill="none" fill-rule="evenodd">
        <g id="Group">
            <mask id="mask-2" fill="white">
                <use xlink:href="#path-1"></use>
            </mask>
            <circle stroke="#979797" cx="128" cy="128" r="127.5"></circle>
            <g id="new_logo" mask="url(#mask-2)" fill="#F8195F">
                <g transform="translate(-34.000000, 0.000000)" id="Shape">
                    <path d="M288.371,148.476 C289.443,141.809 290,134.97 290,128 C290,57.3076 232.693,0 162,0 C91.3079,0 34.000302,57.3076 34.000302,128 C34.000302,134.97 34.55734,141.809 35.62932,148.476 C27.51637,150.711 19.1861,152.333 10.7013,153.304 L0.0598,154.522 L2.1389,172.689 L12.7805,171.472 C21.9802,170.419 31.0165,168.677 39.82456,166.286 C56.1,218.276 104.6447,256 162,256 C219.356,256 267.901,218.276 284.176,166.286 C292.984,168.677 302.02,170.419 311.22,171.472 L321.862,172.689 L323.941,154.522 L313.299,153.304 C304.814,152.333 296.484,150.711 288.371,148.476 Z M266.785,160.616 C252.897,205.282 211.236,237.714 162,237.714 C112.7645,237.714 71.1035,205.282 57.2155,160.616 C91.2111,147.61 120.8342,122.501 141.905,92.028 C142.312,91.4383 143.232,91.8078 143.1,92.5126 C137.164,124.236 118.6493,154.37 91.5322,172.223 L101.5874,187.496 C133.1722,166.702 154.64,129.67 161.268,92.457 C161.403,91.6987 162.598,91.6987 162.733,92.457 C169.36,129.67 190.828,166.702 222.413,187.496 L232.468,172.223 C205.351,154.37 186.836,124.236 180.9,92.5126 C180.769,91.8079 181.688,91.4383 182.096,92.028 C203.166,122.501 232.79,147.61 266.785,160.616 Z M270.76,142.534 C238.86,129.714 211.418,107.04 192.795,77.2658 L190.109,72.9712 L133.8913,72.9712 L131.2052,77.2658 C112.5823,107.04 85.1403,129.714 53.2402,142.534 C52.6108,137.779 52.286,132.927 52.286,128 C52.286,67.4065 101.4068,18.2857 162,18.2857 C222.594,18.2857 271.715,67.4065 271.715,128 C271.715,132.927 271.39,137.779 270.76,142.534 Z"></path>
                </g>
            </g>
        </g>
    </g>
</svg>