<svg height="250" viewBox="0 0 250 250" width="250" xmlns="http://www.w3.org/2000/svg"><g fill="#34445b"><path d="m139.246094 77.683594 31.546875-34.085938c15.050781 2.179688 30.195312-3.410156 35.988281-13.273437 5.792969-9.867188.578125-21.191407-12.394531-26.910157-12.96875-5.71875-29.984375-4.199218-40.4375 3.613282-10.449219 7.8125-11.339844 19.683594-2.121094 28.210937l-39.1875 42.28125c-66.054687 4.519531-115.460937 44.054688-112.460937 89.992188 2.996093 45.9375 57.347656 82.21875 123.722656 82.589843 66.371094.375 121.566406-35.296874 125.632812-81.195312 4.070313-45.898438-44.40625-85.976562-110.34375-91.238281zm-14.398438 131.714844c-33.492187 0-61.710937-17.324219-65.734375-40.359376-4.019531-23.035156 17.417969-44.523437 49.945313-50.058593 32.523437-5.53125 65.890625 6.632812 77.726562 28.339843-10.011718-8.9375-27.109375-12.480468-42.5625-8.820312-15.449218 3.660156-25.839844 13.714844-25.859375 25.027344s10.335938 21.382812 25.773438 25.070312c15.4375 3.683594 32.550781.167969 42.59375-8.75-9.78125 17.789063-34.40625 29.546875-61.882813 29.550782zm0 0"/><path d="m139.246094 77.683594 31.546875-34.085938c15.050781 2.179688 30.195312-3.410156 35.988281-13.273437 5.792969-9.867188.578125-21.191407-12.394531-26.910157-12.96875-5.71875-29.984375-4.199218-40.4375 3.613282-10.449219 7.8125-11.339844 19.683594-2.121094 28.210937l-39.1875 42.28125c-66.054687 4.519531-115.460937 44.054688-112.460937 89.992188 2.996093 45.9375 57.347656 82.21875 123.722656 82.589843 66.371094.375 121.566406-35.296874 125.632812-81.195312 4.070313-45.898438-44.40625-85.976562-110.34375-91.238281zm-14.398438 131.714844c-33.492187 0-61.710937-17.324219-65.734375-40.359376-4.019531-23.035156 17.417969-44.523437 49.945313-50.058593 32.523437-5.53125 65.890625 6.632812 77.726562 28.339843-10.011718-8.9375-27.109375-12.480468-42.5625-8.820312-15.449218 3.660156-25.839844 13.714844-25.859375 25.027344s10.335938 21.382812 25.773438 25.070312c15.4375 3.683594 32.550781.167969 42.59375-8.75-9.78125 17.789063-34.40625 29.546875-61.882813 29.550782zm0 0"/></g></svg>