
<svg xmlns="http://www.w3.org/2000/svg" xmlns:xlink="http://www.w3.org/1999/xlink" width="250px" height="250px" viewBox="0 0 250 250" version="1.1">
<g id="surface1">
<path style=" stroke:none;fill-rule:nonzero;fill:rgb(20.392157%,26.666668%,35.686275%);fill-opacity:1;" d="M 139.246094 77.683594 L 170.792969 43.597656 C 185.84375 45.777344 200.988281 40.1875 206.78125 30.324219 C 212.574219 20.457031 207.359375 9.132812 194.386719 3.414062 C 181.417969 -2.304688 164.402344 -0.785156 153.949219 7.027344 C 143.5 14.839844 142.609375 26.710938 151.828125 35.238281 L 112.640625 77.519531 C 46.585938 82.039062 -2.820312 121.574219 0.179688 167.511719 C 3.175781 213.449219 57.527344 249.730469 123.902344 250.101562 C 190.273438 250.476562 245.46875 214.804688 249.535156 168.90625 C 253.605469 123.007812 205.128906 82.929688 139.191406 77.667969 Z M 124.847656 209.398438 C 91.355469 209.398438 63.136719 192.074219 59.113281 169.039062 C 55.09375 146.003906 76.53125 124.515625 109.058594 118.980469 C 141.582031 113.449219 174.949219 125.613281 186.785156 147.320312 C 176.773438 138.382812 159.675781 134.839844 144.222656 138.5 C 128.773438 142.160156 118.382812 152.214844 118.363281 163.527344 C 118.34375 174.839844 128.699219 184.910156 144.136719 188.597656 C 159.574219 192.28125 176.6875 188.765625 186.730469 179.847656 C 176.949219 197.636719 152.324219 209.394531 124.847656 209.398438 Z M 124.847656 209.398438 "/>
<path style=" stroke:none;fill-rule:nonzero;fill:rgb(20.392157%,26.666668%,35.686275%);fill-opacity:1;" d="M 139.246094 77.683594 L 170.792969 43.597656 C 185.84375 45.777344 200.988281 40.1875 206.78125 30.324219 C 212.574219 20.457031 207.359375 9.132812 194.386719 3.414062 C 181.417969 -2.304688 164.402344 -0.785156 153.949219 7.027344 C 143.5 14.839844 142.609375 26.710938 151.828125 35.238281 L 112.640625 77.519531 C 46.585938 82.039062 -2.820312 121.574219 0.179688 167.511719 C 3.175781 213.449219 57.527344 249.730469 123.902344 250.101562 C 190.273438 250.476562 245.46875 214.804688 249.535156 168.90625 C 253.605469 123.007812 205.128906 82.929688 139.191406 77.667969 Z M 124.847656 209.398438 C 91.355469 209.398438 63.136719 192.074219 59.113281 169.039062 C 55.09375 146.003906 76.53125 124.515625 109.058594 118.980469 C 141.582031 113.449219 174.949219 125.613281 186.785156 147.320312 C 176.773438 138.382812 159.675781 134.839844 144.222656 138.5 C 128.773438 142.160156 118.382812 152.214844 118.363281 163.527344 C 118.34375 174.839844 128.699219 184.910156 144.136719 188.597656 C 159.574219 192.28125 176.6875 188.765625 186.730469 179.847656 C 176.949219 197.636719 152.324219 209.394531 124.847656 209.398438 Z M 124.847656 209.398438 "/>
</g>
</svg>
