
<svg xmlns="http://www.w3.org/2000/svg" xmlns:xlink="http://www.w3.org/1999/xlink" width="250px" height="250px" viewBox="0 0 250 250" version="1.1">
<g id="surface1">
<path style=" stroke:none;fill-rule:nonzero;fill:rgb(0%,0%,0%);fill-opacity:1;" d="M 0 125 L 0 250 L 250 250 L 250 0 L 0 0 Z M 106.25 46.8125 C 101.75 57.875 96.375 77.1875 94.75 88.1875 C 93.8125 94.5625 93.375 105 94.0625 105 C 94.25 105 95.0625 104.5625 95.875 104.0625 C 98.75 102.1875 108.125 99.4375 115.125 98.375 C 127.125 96.625 141 98.25 151.3125 102.75 L 156.4375 104.9375 L 156.0625 96.0625 C 155.5 83.5 151.9375 68.375 145.0625 49.6875 C 143.6875 45.9375 142.6875 42.75 142.8125 42.625 C 143.5 41.9375 151 47.8125 156.25 53.125 C 162.4375 59.375 167.375 65.875 172.4375 74.3125 L 175.4375 79.25 L 180.875 74.625 C 184.625 71.375 186.25 70.25 186.25 71 C 186.25 71.625 185.6875 78.8125 184.9375 87.0625 C 184.25 95.25 183.8125 102.125 184 102.3125 C 184.1875 102.5 186.5 101.125 189.1875 99.25 C 196.1875 94.375 195.8125 94.5 195.3125 96.9375 C 194.5 101.125 190 113.6875 186.875 120.5625 C 184.375 126.0625 183.875 127.8125 184.375 128.75 C 184.6875 129.375 188.3125 135.1875 192.375 141.6875 L 200.25 154.25 C 200.6875 154.9375 199.5625 155.0625 193.8125 154.6875 C 189.1875 154.375 186.875 154.4375 186.875 154.875 C 186.875 155.1875 188.5625 160.6875 190.5625 167 C 195.625 182.6875 195.3125 181.4375 193.9375 181 C 191.8125 180.375 178.0625 178 177.875 178.1875 C 177.75 178.3125 176.625 180.5 175.3125 182.9375 C 171.0625 191.125 162.125 198.3125 151.4375 202.125 C 140.5 206 121.875 207.1875 109.0625 204.75 C 92.4375 201.6875 79.875 193.5 74.375 182.25 C 73.25 180 72 178.125 71.5625 178.125 C 71.125 178.125 67.375 178.8125 63.125 179.6875 C 54 181.5625 54.75 181.5 55.3125 180.125 C 55.8125 178.875 60.8125 163.375 62.5625 157.875 L 63.6875 154.1875 L 56.875 154.625 C 53.0625 154.875 50 154.875 50 154.625 C 50 154.4375 53.6875 148.3125 58.1875 141.125 C 62.6875 133.9375 66.25 127.75 66.0625 127.3125 C 65.9375 126.875 63.875 123.75 61.5625 120.3125 C 57 113.5 51.9375 103.5 50.375 98.25 C 49.875 96.5 49.5625 95 49.6875 95 C 50.0625 95 59.875 99.5625 63.875 101.625 L 66.8125 103.125 L 66.5625 98.3125 C 66.375 95.625 66.125 88.0625 66 81.5625 L 65.6875 69.6875 L 70.125 74.375 C 74.3125 78.8125 74.5625 79 75.4375 77.8125 C 75.875 77.125 78.5 73.1875 81.1875 69.0625 C 86.3125 61.25 92.25 54.25 98.125 49.0625 C 101.375 46.1875 106.6875 42.5 107.5625 42.5 C 107.8125 42.5 107.1875 44.4375 106.25 46.8125 Z M 94.25 132.1875 C 85.375 135.5625 80 144.5625 81.875 152.875 C 84.6875 165.3125 98.9375 172.125 110.75 166.6875 C 117.8125 163.5 121.3125 158.5 121.75 151.0625 C 122.0625 145.625 120.75 142 116.9375 137.9375 C 112.5625 133.25 109 131.6875 102.1875 131.4375 C 98.375 131.3125 95.8125 131.5625 94.25 132.1875 Z M 141.4375 136.9375 C 139.625 137.625 136.875 139.4375 135.3125 141 C 126.25 149.75 128.5625 163.25 139.9375 168.875 C 144.25 171 152.1875 170.875 156.625 168.625 C 161.1875 166.25 163.25 164.3125 165.3125 160.5 C 166.9375 157.625 167.1875 156.5625 167.1875 152.5 C 167.125 147 165.875 144 161.9375 140.4375 C 157.9375 136.8125 155.875 136.0625 150 135.8125 C 145.75 135.6875 144 135.875 141.4375 136.9375 Z M 141.4375 136.9375 "/>
</g>
</svg>
