<svg height="250" viewBox="0 0 250 250" width="250" xmlns="http://www.w3.org/2000/svg"><path d="m0 125v125h250v-250h-250zm106.25-78.1875c-4.5 11.0625-9.875 30.375-11.5 41.375-.9375 6.375-1.375 16.8125-.6875 16.8125.1875 0 1-.4375 1.8125-.9375 2.875-1.875 12.25-4.625 19.25-5.6875 12-1.75 25.875-.125 36.1875 4.375l5.125 2.1875-.375-8.875c-.5625-12.5625-4.125-27.6875-11-46.375-1.375-3.75-2.375-6.9375-2.25-7.0625.6875-.6875 8.1875 5.1875 13.4375 10.5 6.1875 6.25 11.125 12.75 16.1875 21.1875l3 4.9375 5.4375-4.625c3.75-3.25 5.375-4.375 5.375-3.625 0 .625-.5625 7.8125-1.3125 16.0625-.6875 8.1875-1.125 15.0625-.9375 15.25s2.5-1.1875 5.1875-3.0625c7-4.875 6.625-4.75 6.125-2.3125-.8125 4.1875-5.3125 16.75-8.4375 23.625-2.5 5.5-3 7.25-2.5 8.1875.3125.625 3.9375 6.4375 8 12.9375l7.875 12.5625c.4375.6875-.6875.8125-6.4375.4375-4.625-.3125-6.9375-.25-6.9375.1875 0 .3125 1.6875 5.8125 3.6875 12.125 5.0625 15.6875 4.75 14.4375 3.375 14-2.125-.625-15.875-3-16.0625-2.8125-.125.125-1.25 2.3125-2.5625 4.75-4.25 8.1875-13.1875 15.375-23.875 19.1875-10.9375 3.875-29.5625 5.0625-42.375 2.625-16.625-3.0625-29.1875-11.25-34.6875-22.5-1.125-2.25-2.375-4.125-2.8125-4.125s-4.1875.6875-8.4375 1.5625c-9.125 1.875-8.375 1.8125-7.8125.4375.5-1.25 5.5-16.75 7.25-22.25l1.125-3.6875-6.8125.4375c-3.8125.25-6.875.25-6.875 0 0-.1875 3.6875-6.3125 8.1875-13.5s8.0625-13.375 7.875-13.8125c-.125-.4375-2.1875-3.5625-4.5-7-4.5625-6.8125-9.625-16.8125-11.1875-22.0625-.5-1.75-.8125-3.25-.6875-3.25.375 0 10.1875 4.5625 14.1875 6.625l2.9375 1.5-.25-4.8125c-.1875-2.6875-.4375-10.25-.5625-16.75l-.3125-11.875 4.4375 4.6875c4.1875 4.4375 4.4375 4.625 5.3125 3.4375.4375-.6875 3.0625-4.625 5.75-8.75 5.125-7.8125 11.0625-14.8125 16.9375-20 3.25-2.875 8.5625-6.5625 9.4375-6.5625.25 0-.375 1.9375-1.3125 4.3125zm-12 85.375c-8.875 3.375-14.25 12.375-12.375 20.6875 2.8125 12.4375 17.0625 19.25 28.875 13.8125 7.0625-3.1875 10.5625-8.1875 11-15.625.3125-5.4375-1-9.0625-4.8125-13.125-4.375-4.6875-7.9375-6.25-14.75-6.5-3.8125-.125-6.375.125-7.9375.75zm47.1875 4.75c-1.8125.6875-4.5625 2.5-6.125 4.0625-9.0625 8.75-6.75 22.25 4.625 27.875 4.3125 2.125 12.25 2 16.6875-.25 4.5625-2.375 6.625-4.3125 8.6875-8.125 1.625-2.875 1.875-3.9375 1.875-8-.0625-5.5-1.3125-8.5-5.25-12.0625-4-3.625-6.0625-4.375-11.9375-4.625-4.25-.125-6 .0625-8.5625 1.125zm0 0"/></svg>