<?xml version="1.0" standalone="no"?>
<!DOCTYPE svg PUBLIC "-//W3C//DTD SVG 20010904//EN"
 "http://www.w3.org/TR/2001/REC-SVG-20010904/DTD/svg10.dtd">
<svg version="1.0" xmlns="http://www.w3.org/2000/svg"
 width="400.000000pt" height="400.000000pt" viewBox="0 0 400.000000 400.000000"
 preserveAspectRatio="xMidYMid meet">
<metadata>
Created by potrace 1.16, written by Peter Selinger 2001-2019
</metadata>
<g transform="translate(0.000000,400.000000) scale(0.100000,-0.100000)"
fill="#000000" stroke="none">
<path d="M0 2000 l0 -2000 2000 0 2000 0 0 2000 0 2000 -2000 0 -2000 0 0
-2000z m1700 1251 c-72 -177 -158 -486 -184 -662 -15 -102 -22 -269 -11 -269
3 0 16 7 29 15 46 30 196 74 308 91 192 28 414 2 579 -70 l82 -35 -6 142 c-9
201 -66 443 -176 742 -22 60 -38 111 -36 113 11 11 131 -83 215 -168 99 -100
178 -204 259 -339 l48 -79 87 74 c60 52 86 70 86 58 0 -10 -9 -125 -21 -257
-11 -131 -18 -241 -15 -244 3 -3 40 19 83 49 112 78 106 76 98 37 -13 -67 -85
-268 -135 -378 -40 -88 -48 -116 -40 -131 5 -10 63 -103 128 -207 65 -103 122
-194 126 -201 7 -11 -11 -13 -103 -7 -74 5 -111 4 -111 -3 0 -5 27 -93 59
-194 81 -251 76 -231 54 -224 -34 10 -254 48 -257 45 -2 -2 -20 -37 -41 -76
-68 -131 -211 -246 -382 -307 -175 -62 -473 -81 -678 -42 -266 49 -467 180
-555 360 -18 36 -38 66 -45 66 -7 0 -67 -11 -135 -25 -146 -30 -134 -29 -125
-7 8 20 88 268 116 356 l18 59 -109 -7 c-61 -4 -110 -4 -110 0 0 3 59 101 131
216 72 115 129 214 126 221 -2 7 -35 57 -72 112 -73 109 -154 269 -179 353 -8
28 -13 52 -11 52 6 0 163 -73 227 -106 l47 -24 -4 77 c-3 43 -7 164 -9 268
l-5 190 71 -75 c67 -71 71 -74 85 -55 7 11 49 74 92 140 82 125 177 237 271
320 52 46 137 105 151 105 4 0 -6 -31 -21 -69z"/>
<path d="M1508 1885 c-142 -54 -228 -198 -198 -331 45 -199 273 -308 462 -221
113 51 169 131 176 250 5 87 -16 145 -77 210 -70 75 -127 100 -236 104 -61 2
-102 -2 -127 -12z"/>
<path d="M2263 1809 c-29 -11 -73 -40 -98 -65 -145 -140 -108 -356 74 -446 69
-34 196 -32 267 4 73 38 106 69 139 130 26 46 30 63 30 128 -1 88 -21 136 -84
193 -64 58 -97 70 -191 74 -68 2 -96 -1 -137 -18z"/>
</g>
</svg>
