<!-- Generator: Adobe Illustrator 21.1.0, SVG Export Plug-In . SVG Version: 6.00 Build 0)  -->
<svg xmlns="http://www.w3.org/2000/svg" xmlns:xlink="http://www.w3.org/1999/xlink" width="250px" height="250px" viewBox="0 0 250 250" version="1.1">
<defs>
<filter id="alpha" filterUnits="objectBoundingBox" x="0%" y="0%" width="100%" height="100%">
  <feColorMatrix type="matrix" in="SourceGraphic" values="0 0 0 0 1 0 0 0 0 1 0 0 0 0 1 0 0 0 1 0"/>
</filter>
<mask id="mask0">
  <g filter="url(#alpha)">
<rect x="0" y="0" width="250" height="250" style="fill:rgb(0%,0%,0%);fill-opacity:0.2;stroke:none;"/>
  </g>
</mask>
<clipPath id="clip1">
  <rect x="0" y="0" width="250" height="250"/>
</clipPath>
<g id="surface5" clip-path="url(#clip1)">
<path style=" stroke:none;fill-rule:nonzero;fill:rgb(100%,100%,100%);fill-opacity:1;" d="M 202.234375 201.800781 C 244.488281 159.152344 244.269531 90.246094 201.730469 47.886719 C 159.195312 5.523438 90.460938 5.746094 48.207031 48.390625 Z M 202.234375 201.800781 "/>
</g>
<linearGradient id="linear0" gradientUnits="userSpaceOnUse" x1="281.790497" y1="484.096588" x2="222.189697" y2="245.693207" gradientTransform="matrix(0.314861,0,0,0.315657,0,0)">
<stop offset="0.00058093" style="stop-color:rgb(100%,100%,100%);stop-opacity:1;"/>
<stop offset="1" style="stop-color:rgb(11.764706%,19.215687%,24.705882%);stop-opacity:1;"/>
</linearGradient>
<linearGradient id="linear1" gradientUnits="userSpaceOnUse" x1="514.419128" y1="296.093506" x2="568.059875" y2="517.808716" gradientTransform="matrix(0.314861,0,0,0.315657,0,0)">
<stop offset="0.00058093" style="stop-color:rgb(100%,100%,100%);stop-opacity:1;"/>
<stop offset="0.9967" style="stop-color:rgb(30.588236%,35.294119%,39.215687%);stop-opacity:1;"/>
</linearGradient>
</defs>
<g id="surface1">
<path style=" stroke:none;fill-rule:nonzero;fill:rgb(11.764706%,19.215687%,24.705882%);fill-opacity:1;" d="M 248.425781 124.679688 C 248.65625 192.898438 193.679688 248.382812 125.632812 248.613281 C 57.589844 248.839844 2.242188 193.726562 2.015625 125.507812 C 1.789062 57.292969 56.765625 1.808594 124.808594 1.578125 C 192.851562 1.351562 248.199219 56.464844 248.425781 124.679688 Z M 248.425781 124.679688 "/>
<use xlink:href="#surface5" mask="url(#mask0)"/>
<path style=" stroke:none;fill-rule:nonzero;fill:rgb(98.039216%,98.431373%,98.823529%);fill-opacity:1;" d="M 136.808594 114.046875 C 135.609375 113.792969 134.445312 113.574219 133.3125 113.351562 C 118.136719 110.289062 107.179688 108.082031 107.179688 97.539062 C 107.179688 90.972656 113.632812 85.730469 125.21875 85.730469 C 135.515625 85.730469 143.765625 89.929688 149.117188 97.820312 L 149.90625 98.074219 L 166.371094 81.15625 L 166.308594 80.492188 C 159.730469 72.664062 151.449219 67.234375 141.972656 64.332031 C 140.679688 63.953125 139.359375 63.605469 138.035156 63.289062 C 138.003906 63.289062 137.972656 63.257812 137.941406 63.257812 C 137.46875 63.164062 136.996094 63.066406 136.523438 62.972656 L 136.523438 47.980469 L 113.980469 47.980469 L 113.980469 63.003906 C 113.253906 63.132812 112.53125 63.289062 111.839844 63.445312 C 111.808594 63.445312 111.746094 63.480469 111.710938 63.480469 C 101.039062 66.003906 91.78125 71.621094 84.507812 80.082031 C 81.484375 85.195312 79.941406 91.320312 79.941406 98.421875 C 79.941406 122.632812 98.171875 130.335938 115.996094 134.660156 C 119.269531 135.449219 122.542969 136.046875 125.660156 136.617188 C 136.808594 138.636719 146.441406 140.371094 146.441406 150.472656 C 146.441406 156.722656 139.578125 164.519531 125.21875 164.519531 C 116.75 164.519531 109.792969 161.679688 104.660156 156.4375 C 104.34375 156.125 103.96875 155.839844 103.683594 155.523438 L 84.257812 169.097656 L 84.226562 169.761719 C 86.996094 173.042969 90.050781 175.914062 93.386719 178.347656 C 94.488281 179.167969 95.625 179.925781 96.789062 180.648438 C 96.820312 180.648438 96.820312 180.683594 96.851562 180.683594 C 97.984375 181.375 99.179688 182.039062 100.378906 182.640625 C 100.410156 182.671875 100.441406 182.671875 100.472656 182.703125 C 101.667969 183.300781 102.867188 183.839844 104.09375 184.34375 C 104.15625 184.375 104.21875 184.375 104.28125 184.40625 C 105.511719 184.910156 106.738281 185.355469 108.027344 185.730469 C 108.09375 185.765625 108.1875 185.765625 108.25 185.796875 C 108.816406 185.984375 109.414062 186.144531 109.980469 186.300781 C 110.042969 186.332031 110.105469 186.332031 110.171875 186.363281 C 110.800781 186.519531 111.429688 186.679688 112.089844 186.835938 C 112.183594 186.867188 112.28125 186.867188 112.375 186.898438 C 112.910156 187.027344 113.476562 187.121094 114.011719 187.246094 L 114.011719 202.273438 L 136.523438 202.273438 L 136.523438 187.246094 C 136.933594 187.183594 137.3125 187.089844 137.71875 187.027344 C 137.785156 187.027344 137.878906 186.996094 137.941406 186.964844 C 139.484375 186.617188 141.027344 186.207031 142.507812 185.730469 C 143.261719 185.480469 143.984375 185.226562 144.742188 184.976562 C 153.023438 181.914062 160.296875 176.800781 166.246094 169.761719 C 168.449219 167.140625 170.433594 164.269531 172.199219 161.238281 C 173.078125 157.890625 173.519531 154.261719 173.519531 150.316406 C 173.488281 124.496094 153.902344 117.359375 136.808594 114.046875 Z M 136.808594 114.046875 "/>
<path style=" stroke:none;fill-rule:nonzero;fill:url(#linear0);" d="M 84.257812 169.664062 C 83.15625 168.371094 82.117188 167.015625 81.140625 165.59375 C 80.730469 165.023438 80.351562 164.425781 79.941406 163.824219 C 79.847656 163.667969 79.753906 163.542969 79.660156 163.414062 C 79.3125 162.847656 78.96875 162.277344 78.621094 161.710938 C 78.496094 161.519531 78.402344 161.332031 78.273438 161.144531 C 77.960938 160.574219 77.644531 160.039062 77.328125 159.46875 C 77.203125 159.25 77.109375 159.027344 76.984375 158.808594 C 76.699219 158.238281 76.417969 157.671875 76.132812 157.101562 C 76.007812 156.882812 75.914062 156.628906 75.820312 156.40625 C 75.566406 155.839844 75.285156 155.238281 75.03125 154.671875 C 74.9375 154.449219 74.84375 154.199219 74.75 153.976562 C 74.496094 153.378906 74.246094 152.746094 73.992188 152.144531 C 73.929688 152.019531 73.898438 151.894531 73.867188 151.769531 C 73.332031 150.378906 72.859375 148.925781 72.417969 147.476562 C 72.386719 147.347656 72.324219 147.222656 72.292969 147.097656 C 72.132812 146.589844 72.007812 146.054688 71.851562 145.519531 C 71.757812 145.105469 71.632812 144.730469 71.535156 144.316406 C 71.410156 143.84375 71.316406 143.339844 71.191406 142.867188 C 71.097656 142.394531 70.96875 141.949219 70.875 141.476562 C 70.78125 141.003906 70.6875 140.53125 70.59375 140.089844 C 70.496094 139.582031 70.402344 139.078125 70.308594 138.574219 C 70.246094 138.132812 70.152344 137.65625 70.089844 137.214844 C 69.992188 136.679688 69.929688 136.144531 69.867188 135.605469 C 69.804688 135.164062 69.773438 134.753906 69.710938 134.3125 C 69.648438 133.742188 69.585938 133.144531 69.554688 132.542969 C 69.519531 132.132812 69.488281 131.722656 69.457031 131.34375 C 69.394531 130.683594 69.363281 130.019531 69.332031 129.324219 C 69.300781 128.976562 69.300781 128.660156 69.269531 128.3125 C 69.238281 127.304688 69.207031 126.292969 69.207031 125.253906 C 69.207031 124.242188 69.238281 123.265625 69.269531 122.285156 C 69.269531 121.96875 69.300781 121.6875 69.300781 121.371094 C 69.332031 120.675781 69.363281 120.011719 69.425781 119.316406 C 69.457031 118.972656 69.488281 118.625 69.519531 118.277344 C 69.585938 117.613281 69.648438 116.980469 69.710938 116.320312 C 69.742188 116.003906 69.773438 115.65625 69.804688 115.339844 C 69.898438 114.550781 69.992188 113.792969 70.121094 113.035156 C 70.152344 112.847656 70.183594 112.6875 70.183594 112.5 C 70.339844 111.585938 70.496094 110.636719 70.6875 109.722656 C 70.75 109.4375 70.8125 109.152344 70.875 108.871094 C 71 108.238281 71.160156 107.605469 71.285156 106.976562 C 71.378906 106.628906 71.441406 106.28125 71.535156 105.933594 C 71.695312 105.367188 71.820312 104.796875 71.976562 104.230469 C 72.070312 103.882812 72.167969 103.535156 72.261719 103.21875 C 72.449219 102.621094 72.636719 102.019531 72.828125 101.421875 C 72.921875 101.136719 72.984375 100.851562 73.078125 100.601562 C 73.363281 99.746094 73.644531 98.925781 73.960938 98.105469 C 74.054688 97.855469 74.179688 97.570312 74.277344 97.316406 C 74.496094 96.75 74.714844 96.179688 74.96875 95.613281 C 75.125 95.265625 75.25 94.949219 75.410156 94.632812 C 75.628906 94.160156 75.851562 93.65625 76.070312 93.183594 C 76.226562 92.835938 76.386719 92.519531 76.542969 92.171875 C 76.792969 91.667969 77.046875 91.191406 77.296875 90.71875 C 77.457031 90.4375 77.613281 90.121094 77.769531 89.835938 C 78.179688 89.109375 78.589844 88.382812 79.03125 87.65625 C 78.148438 91.035156 77.675781 94.695312 77.675781 98.578125 C 77.675781 111.898438 83.3125 122.0625 94.425781 128.914062 C 95.023438 140.941406 98.519531 150.316406 104.472656 156.40625 Z M 84.257812 169.664062 "/>
<path style=" stroke:none;fill-rule:nonzero;fill:url(#linear1);" d="M 149.085938 97.820312 C 152.582031 103 154.785156 109.597656 155.605469 117.550781 C 158.4375 118.90625 160.988281 120.484375 163.160156 122.191406 C 171.410156 128.660156 175.628906 138.066406 175.628906 150.09375 C 175.628906 151.546875 175.566406 153 175.441406 154.386719 C 175.441406 154.355469 175.472656 154.324219 175.472656 154.292969 C 175.882812 153.3125 176.257812 152.335938 176.636719 151.355469 C 176.730469 151.074219 176.828125 150.820312 176.921875 150.535156 C 177.171875 149.8125 177.425781 149.085938 177.644531 148.359375 C 177.738281 148.011719 177.867188 147.664062 177.960938 147.316406 C 178.085938 146.875 178.210938 146.433594 178.335938 145.992188 C 178.496094 145.421875 178.652344 144.824219 178.808594 144.253906 C 178.9375 143.8125 179.03125 143.371094 179.125 142.929688 C 179.25 142.425781 179.34375 141.917969 179.472656 141.414062 C 179.535156 141.066406 179.628906 140.75 179.691406 140.402344 C 179.847656 139.644531 179.976562 138.890625 180.101562 138.101562 C 180.164062 137.785156 180.195312 137.5 180.257812 137.183594 C 180.382812 136.363281 180.511719 135.542969 180.605469 134.691406 C 180.636719 134.5 180.636719 134.34375 180.667969 134.152344 C 180.761719 133.363281 180.824219 132.574219 180.886719 131.816406 C 180.917969 131.597656 180.917969 131.40625 180.949219 131.1875 C 181.015625 130.269531 181.078125 129.386719 181.109375 128.472656 C 181.109375 128.28125 181.109375 128.09375 181.140625 127.871094 C 181.171875 126.925781 181.203125 125.945312 181.203125 125 C 181.203125 123.957031 181.171875 122.917969 181.140625 121.875 C 181.140625 121.527344 181.109375 121.210938 181.078125 120.863281 C 181.046875 120.171875 181.015625 119.476562 180.949219 118.78125 C 180.917969 118.371094 180.886719 117.960938 180.855469 117.582031 C 180.792969 116.980469 180.761719 116.351562 180.667969 115.75 C 180.605469 115.308594 180.574219 114.898438 180.511719 114.457031 C 180.445312 113.890625 180.351562 113.320312 180.289062 112.753906 C 180.226562 112.3125 180.132812 111.867188 180.070312 111.425781 C 179.976562 110.890625 179.878906 110.355469 179.785156 109.816406 C 179.691406 109.375 179.597656 108.902344 179.503906 108.460938 C 179.40625 107.953125 179.28125 107.417969 179.15625 106.914062 C 179.0625 106.472656 178.9375 105.996094 178.808594 105.554688 C 178.683594 105.050781 178.558594 104.546875 178.402344 104.070312 C 178.273438 103.628906 178.148438 103.15625 178.023438 102.714844 C 177.867188 102.242188 177.738281 101.769531 177.582031 101.292969 C 177.425781 100.851562 177.296875 100.410156 177.140625 99.96875 C 176.984375 99.496094 176.828125 99.054688 176.636719 98.578125 C 176.480469 98.136719 176.324219 97.695312 176.132812 97.253906 C 175.945312 96.8125 175.789062 96.371094 175.597656 95.929688 C 175.410156 95.484375 175.21875 95.042969 175.03125 94.632812 C 174.84375 94.191406 174.652344 93.78125 174.433594 93.371094 C 174.246094 92.929688 174.023438 92.519531 173.835938 92.078125 C 173.644531 91.667969 173.425781 91.257812 173.207031 90.878906 C 172.984375 90.46875 172.765625 90.023438 172.542969 89.613281 C 172.324219 89.234375 172.101562 88.824219 171.882812 88.445312 C 171.632812 88.035156 171.410156 87.625 171.160156 87.214844 C 170.9375 86.835938 170.6875 86.488281 170.433594 86.109375 C 169.679688 84.976562 168.921875 83.839844 168.105469 82.765625 C 167.539062 82.007812 166.941406 81.25 166.308594 80.492188 Z M 149.085938 97.820312 "/>
</g>
</svg>
