<svg height="250" viewBox="0 0 250 250" width="250" xmlns="http://www.w3.org/2000/svg" xmlns:xlink="http://www.w3.org/1999/xlink"><filter id="a" height="100%" width="100%" x="0%" y="0%"><feColorMatrix in="SourceGraphic" type="matrix" values="0 0 0 0 1 0 0 0 0 1 0 0 0 0 1 0 0 0 1 0"/></filter><mask id="b"><g filter="url(#a)"><path d="m0 0h250v250h-250z" fill-opacity=".2"/></g></mask><clipPath id="c"><path d="m0 0h250v250h-250z"/></clipPath><linearGradient id="d" gradientTransform="scale(.314861 .315657)" gradientUnits="userSpaceOnUse" x1="281.790497" x2="222.189697" y1="484.096588" y2="245.693207"><stop offset=".00058093" stop-color="#fff"/><stop offset="1" stop-color="#1e313f"/></linearGradient><linearGradient id="e" gradientTransform="scale(.314861 .315657)" gradientUnits="userSpaceOnUse" x1="514.419128" x2="568.059875" y1="296.093506" y2="517.808716"><stop offset=".00058093" stop-color="#fff"/><stop offset=".9967" stop-color="#4e5a64"/></linearGradient><path d="m248.425781 124.679688c.230469 68.21875-54.746093 123.703124-122.792969 123.933593-68.042968.226563-123.390624-54.886719-123.617187-123.105469-.226563-68.214843 54.75-123.699218 122.792969-123.929687 68.042968-.226563 123.390625 54.886719 123.617187 123.101563zm0 0" fill="#1e313f"/><g clip-path="url(#c)" mask="url(#b)"><path d="m202.234375 201.800781c42.253906-42.648437 42.035156-111.554687-.503906-153.914062-42.535157-42.363281-111.269531-42.140625-153.523438.503906zm0 0" fill="#fff"/></g><path d="m136.808594 114.046875c-1.199219-.253906-2.363282-.472656-3.496094-.695313-15.175781-3.0625-26.132812-5.269531-26.132812-15.8125 0-6.566406 6.453124-11.808593 18.039062-11.808593 10.296875 0 18.546875 4.199219 23.898438 12.089843l.789062.253907 16.464844-16.917969-.0625-.664062c-6.578125-7.828126-14.859375-13.257813-24.335938-16.160157-1.292968-.378906-2.613281-.726562-3.9375-1.042969-.03125 0-.0625-.03125-.09375-.03125-.472656-.09375-.945312-.191406-1.417968-.285156v-14.992187h-22.542969v15.023437c-.726563.128906-1.449219.285156-2.140625.441406-.03125 0-.09375.035157-.128906.035157-10.671876 2.523437-19.929688 8.140625-27.203126 16.601562-3.023437 5.113281-4.566406 11.238281-4.566406 18.339844 0 24.210937 18.230469 31.914063 36.054688 36.238281 3.273437.789063 6.546875 1.386719 9.664062 1.957032 11.148438 2.019531 20.78125 3.753906 20.78125 13.855468 0 6.25-6.863281 14.046875-21.222656 14.046875-8.46875 0-15.425781-2.839843-20.558594-8.082031-.316406-.3125-.691406-.597656-.976562-.914062l-19.425782 13.574218-.03125.664063c2.769532 3.28125 5.824219 6.152343 9.160157 8.585937 1.101562.820313 2.238281 1.578125 3.402343 2.300782.03125 0 .03125.035156.0625.035156 1.132813.691406 2.328126 1.355468 3.527344 1.957031.03125.03125.0625.03125.09375.0625 1.195313.597656 2.394532 1.136719 3.621094 1.640625.0625.03125.125.03125.1875.0625 1.230469.503906 2.457031.949219 3.746094 1.324219.066406.035156.160156.035156.222656.066406.566406.1875 1.164062.347656 1.730469.503906.0625.03125.125.03125.191406.0625.628906.15625 1.257813.316407 1.917969.472657.09375.03125.191406.03125.285156.0625.535156.128906 1.101562.222656 1.636719.347656v15.027344h22.511719v-15.027344c.410156-.0625.789062-.15625 1.195312-.21875.066406 0 .160156-.03125.222656-.0625 1.542969-.347656 3.085938-.757813 4.566406-1.234375.753907-.25 1.476563-.503907 2.234376-.753907 8.28125-3.0625 15.554687-8.175781 21.503906-15.214843 2.203125-2.621094 4.1875-5.492188 5.953125-8.523438.878906-3.347656 1.320312-6.976562 1.320312-10.921875-.03125-25.820312-19.617187-32.957031-36.710937-36.269531zm0 0" fill="#fafbfc"/><path d="m84.257812 169.664062c-1.101562-1.292968-2.140624-2.648437-3.117187-4.070312-.410156-.570312-.789063-1.167969-1.199219-1.769531-.09375-.15625-.1875-.28125-.28125-.410157-.347656-.566406-.691406-1.136718-1.039062-1.703124-.125-.191407-.21875-.378907-.347656-.566407-.3125-.570312-.628907-1.105469-.945313-1.675781-.125-.21875-.21875-.441406-.34375-.660156-.285156-.570313-.566406-1.136719-.851563-1.707032-.125-.21875-.21875-.472656-.3125-.695312-.253906-.566406-.535156-1.167969-.789062-1.734375-.09375-.222656-.1875-.472656-.28125-.695313-.253906-.597656-.503906-1.230468-.757812-1.832031-.0625-.125-.09375-.25-.125-.375-.535157-1.390625-1.007813-2.84375-1.449219-4.292969-.03125-.128906-.09375-.253906-.125-.378906-.160157-.507812-.285157-1.042968-.441407-1.578125-.09375-.414062-.21875-.789062-.316406-1.203125-.125-.472656-.21875-.976562-.34375-1.449218-.09375-.472657-.222656-.917969-.316406-1.390626-.09375-.472656-.1875-.945312-.28125-1.386718-.097656-.507813-.191406-1.011719-.285156-1.515625-.0625-.441407-.15625-.917969-.21875-1.359375-.097656-.535156-.160156-1.070313-.222656-1.609375-.0625-.441407-.09375-.851563-.15625-1.292969-.0625-.570312-.125-1.167969-.15625-1.769531-.035157-.410157-.066407-.820313-.097657-1.199219-.0625-.660156-.09375-1.324219-.125-2.019531-.03125-.347657-.03125-.664063-.0625-1.011719-.03125-1.007812-.0625-2.019531-.0625-3.058594 0-1.011718.03125-1.988281.0625-2.96875 0-.316406.03125-.597656.03125-.914062.03125-.695313.0625-1.359375.125-2.054688.03125-.34375.0625-.691406.09375-1.039062.066407-.664063.128907-1.296875.191407-1.957032.03125-.316406.0625-.664062.09375-.980468.09375-.789063.1875-1.546875.316406-2.304688.03125-.1875.0625-.347656.0625-.535156.15625-.914062.3125-1.863281.503906-2.777344.0625-.285156.125-.570312.1875-.851562.125-.632813.285156-1.265625.410156-1.894532.09375-.347656.15625-.695312.25-1.042968.160156-.566406.285156-1.136719.441406-1.703125.09375-.347657.191407-.695313.285157-1.011719.1875-.597656.375-1.199219.566406-1.796875.09375-.285156.15625-.570313.25-.820313.285156-.855468.566406-1.675781.882813-2.496093.09375-.25.21875-.535157.316406-.789063.21875-.566406.4375-1.136718.691406-1.703125.15625-.347656.28125-.664062.441406-.980469.21875-.472656.441406-.976562.660156-1.449218.15625-.347656.316407-.664063.472657-1.011719.25-.503906.503906-.980469.753906-1.453125.160156-.28125.316406-.597656.472656-.882812.410157-.726563.820313-1.453126 1.261719-2.179688-.882812 3.378906-1.355469 7.039062-1.355469 10.921875 0 13.320313 5.636719 23.484375 16.75 30.335937.597657 12.027344 4.09375 21.402344 10.046875 27.492188zm0 0" fill="url(#d)"/><path d="m149.085938 97.820312c3.496093 5.179688 5.699218 11.777344 6.519531 19.730469 2.832031 1.355469 5.382812 2.933594 7.554687 4.640625 8.25 6.46875 12.46875 15.875 12.46875 27.902344 0 1.453125-.0625 2.90625-.1875 4.292969 0-.03125.03125-.0625.03125-.09375.410156-.980469.785156-1.957031 1.164063-2.9375.09375-.28125.191406-.535157.285156-.820313.25-.722656.503906-1.449218.722656-2.175781.09375-.347656.222657-.695313.316407-1.042969.125-.441406.25-.882812.375-1.324218.160156-.570313.316406-1.167969.472656-1.738282.128906-.441406.222656-.882812.316406-1.324218.125-.503907.21875-1.011719.347656-1.515626.0625-.347656.15625-.664062.21875-1.011718.15625-.757813.285156-1.511719.410156-2.300782.0625-.316406.09375-.601562.15625-.917968.125-.820313.253907-1.640625.347657-2.492188.03125-.191406.03125-.347656.0625-.539062.09375-.789063.15625-1.578125.21875-2.335938.03125-.21875.03125-.410156.0625-.628906.066406-.917969.128906-1.800781.160156-2.714844 0-.191406 0-.378906.03125-.601562.03125-.945313.0625-1.925782.0625-2.871094 0-1.042969-.03125-2.082031-.0625-3.125 0-.347656-.03125-.664062-.0625-1.011719-.03125-.691406-.0625-1.386719-.128906-2.082031-.03125-.410156-.0625-.820312-.09375-1.199219-.0625-.601562-.09375-1.230469-.1875-1.832031-.0625-.441406-.09375-.851562-.15625-1.292969-.066407-.566406-.160157-1.136719-.222657-1.703125-.0625-.441406-.15625-.886718-.21875-1.328125-.09375-.535156-.191406-1.070312-.285156-1.609375-.09375-.441406-.1875-.914062-.28125-1.355468-.097656-.507813-.222656-1.042969-.347656-1.546876-.09375-.441406-.21875-.917968-.347656-1.359374-.125-.503907-.25-1.007813-.40625-1.484376-.128906-.441406-.253906-.914062-.378906-1.355468-.15625-.472656-.285157-.945313-.441407-1.421875-.15625-.441407-.285156-.882813-.441406-1.324219-.15625-.472656-.3125-.914062-.503906-1.390625-.15625-.441406-.3125-.882813-.503907-1.324219-.1875-.441406-.34375-.882812-.535156-1.324218-.1875-.445313-.378906-.886719-.566406-1.296876-.1875-.441406-.378906-.851562-.597656-1.261718-.1875-.441406-.410156-.851563-.597656-1.292969-.191407-.410156-.410157-.820313-.628907-1.199219-.222656-.410156-.441406-.855468-.664062-1.265625-.21875-.378906-.441407-.789062-.660157-1.167969-.25-.410156-.472656-.820312-.722656-1.230468-.222656-.378906-.472656-.726563-.726562-1.105469-.753906-1.132813-1.511719-2.269531-2.328125-3.34375-.566407-.757813-1.164063-1.515625-1.796875-2.273437zm0 0" fill="url(#e)"/></svg>