<svg height="250" viewBox="0 0 250 250" width="250" xmlns="http://www.w3.org/2000/svg"><path d="m250 125c0 69.035156-55.964844 125-125 125s-125-55.964844-125-125 55.964844-125 125-125 125 55.964844 125 125zm0 0" fill="#5f45ba"/><g fill="#fff"><path d="m82.867188 70.058594c0 4.5-3.644532 8.148437-8.144532 8.148437s-8.148437-3.648437-8.148437-8.148437 3.648437-8.148438 8.148437-8.148438 8.144532 3.648438 8.144532 8.148438zm0 0"/><path d="m54.726562 67.644531c0 3.167969-2.566406 5.738281-5.734374 5.738281-3.167969 0-5.734376-2.570312-5.734376-5.738281s2.566407-5.734375 5.734376-5.734375c3.167968 0 5.734374 2.566406 5.734374 5.734375zm0 0"/><path d="m131.378906 188.570312c32.59375-3.867187 56.855469-31.949218 55.949219-64.757812-.902344-32.808594-26.679687-59.515625-59.433594-61.582031-4.097656-.261719-8.207031-.117188-12.273437.429687-5.335938.503906-10.558594 1.824219-15.492188 3.914063-5.734375 2.785156-9.433594 7.503906-9.433594 13.773437.015626 8.164063 6.628907 14.777344 14.792969 14.796875 1.394531 0 6.109375-1.5 7.238281-1.875 4.296876-1.507812 8.855469-2.128906 13.398438-1.824219 16.054688 1.003907 29.242188 13.054688 31.683594 28.953126 2.441406 15.898437-6.519532 31.351562-21.53125 37.125-15.015625 5.777343-32.023438.316406-40.867188-13.121094-6.804687-8.949219-5.25-23.207032-5.25-23.421875-.25-7.328125-5.820312-13.371094-13.101562-14.214844s-14.085938 3.761719-16.003906 10.835937c-.304688 1.773438-.445313 3.566407-.429688 5.363282-1.414062 34.457031 24.972656 63.722656 59.390625 65.875 3.785156.285156 7.59375.195312 11.363281-.269532m-36.019531-42.933593"/><path d="m74.722656 91.445312c0 5.832032-4.730468 10.558594-10.5625 10.558594-5.832031 0-10.558594-4.726562-10.558594-10.558594 0-5.832031 4.726563-10.558593 10.558594-10.558593 5.832032 0 10.5625 4.726562 10.5625 10.558593zm0 0"/></g></svg>