<?xml version="1.0" encoding="UTF-8"?>
<svg xmlns="http://www.w3.org/2000/svg" viewBox="0 0 850 850">
  <defs>
    <style>
      .cls-1 {
        fill: #021f6a;
      }

      .cls-1, .cls-2 {
        stroke-width: 0px;
      }

      .cls-3 {
        isolation: isolate;
      }

      .cls-2, .cls-4 {
        fill: #fff;
        mix-blend-mode: lighten;
      }

      .cls-4 {
        stroke: #fff;
        stroke-miterlimit: 10;
      }
    </style>
  </defs>
  <g class="cls-3">
    <g id="Layer_1" data-name="Layer 1">
      <g>
        <path class="cls-1" d="m850,425c0,117.36-47.57,223.61-124.48,300.52-76.91,76.91-183.16,124.48-300.52,124.48s-223.61-47.57-300.52-124.48C47.57,648.61,0,542.36,0,425S47.57,201.39,124.48,124.48C201.39,47.57,307.64,0,425,0s223.61,47.57,300.52,124.48c76.91,76.91,124.48,183.16,124.48,300.52Z"/>
        <path class="cls-4" d="m401.41,743.54v-297.75s.24-4.55,1.33-10.54,3.04-13.42,6.47-19.17c2.61-4.38,7.59-8.51,11.92-11.56s8.01-4.99,8.01-4.99l51.32-29.9,51.32-29.9-44.01-25.57-44.01-25.57s-2.35-1.41-5.86-2.83-8.21-2.83-12.89-2.83-9.27,1.41-12.75,2.83-5.79,2.83-5.79,2.83l-44.68,25.57-44.68,25.57s-3.12,1.56-6.98,4.78-8.47,8.11-11.44,14.78c-2.93,6.56-4.05,14.36-4.45,20.53s-.06,10.69-.06,10.69v270.04s.19,2.59,1.04,6.19,2.35,8.21,4.98,12.24c2.82,4.32,6.76,8.08,10.01,10.76s5.78,4.28,5.78,4.28l42.73,24.76,42.73,24.76Zm70.99-137.66l50.82-28.9,50.82-28.9s3.72-1.97,8.38-5.58,10.26-8.88,14.03-15.48c3.42-5.98,5.01-13.33,5.76-19.17s.63-10.2.63-10.2v-138.34s.11-4.35-.63-10.2-2.34-13.19-5.76-19.17c-3.77-6.6-9.37-11.86-14.03-15.48s-8.38-5.58-8.38-5.58l-65.15-37.05-65.15-37.05s-1.8-.94-5.05-1.88-7.93-1.88-13.7-1.88c-5.45,0-10.14.94-13.47,1.88s-5.29,1.88-5.29,1.88l-65.15,37.05-65.15,37.05s-3.72,1.97-8.38,5.58-10.26,8.88-14.03,15.48c-3.42,5.98-5.01,13.32-5.76,19.17s-.63,10.2-.63,10.2l.1,147.87.1,147.87-38.45-22.08-38.45-22.08s-4.18-2.04-9.32-5.79-11.25-9.2-15.12-16.02c-3.44-6.06-4.85-13.21-5.4-18.84s-.24-9.74-.24-9.74v-264.02s-.31-4.11.24-9.74,1.96-12.78,5.4-18.84c3.87-6.82,9.98-12.28,15.12-16.02s9.32-5.79,9.32-5.79l117.87-67.7,117.87-67.7s2.35-1.03,5.88-2.07,8.22-2.07,12.92-2.07,9.4,1.03,12.92,2.07,5.87,2.07,5.87,2.07l117.87,67.7,117.87,67.7s4.18,2.04,9.32,5.79,11.25,9.2,15.12,16.02c3.44,6.06,4.85,13.21,5.4,18.84s.24,9.74.24,9.74v264.02s.31,4.11-.24,9.74-1.96,12.78-5.4,18.84c-3.87,6.82-9.98,12.28-15.12,16.02s-9.32,5.79-9.32,5.79l-115.4,66.28-115.4,66.28-.03-47.1-.03-47.1s-.18-3.48.16-8.23,1.18-10.77,3.23-15.84c2.33-5.77,7.41-10.59,11.91-13.98s8.42-5.33,8.42-5.33Z"/>
        <path class="cls-2" d="m448.76,565.39l41.89-24.07,41.89-24.07s2.53-1.55,5.81-4.3,7.33-6.7,10.36-11.49c2.79-4.4,4.58-9.67,5.67-13.83s1.49-7.23,1.49-7.23v-68.82s-.04-3.32-.96-7.28-2.71-8.57-6.21-11.15c-3.05-2.25-7.38-1.87-10.94-.93s-6.36,2.44-6.36,2.44l-33.28,19.56-33.28,19.56s-1.96,1.14-4.44,3.49-5.49,5.93-7.59,10.8c-1.88,4.34-2.9,9.99-3.44,14.54s-.62,8.03-.62,8.03v94.78h0Z"/>
      </g>
    </g>
  </g>
</svg>