<!-- Generator: Adobe Illustrator 23.0.1, SVG Export Plug-In . SVG Version: 6.00 Build 0)  -->
<svg xmlns="http://www.w3.org/2000/svg" xmlns:xlink="http://www.w3.org/1999/xlink" width="250px" height="250px" viewBox="0 0 250 250" version="1.1">
<g id="surface1">
<path style=" stroke:none;fill-rule:nonzero;fill:rgb(94.117647%,91.37255%,7.843138%);fill-opacity:1;" d="M 32.144531 39.730469 C 34 34.4375 35.6875 29.933594 37.296875 26.152344 C 10.039062 23.933594 17.972656 73.671875 9.09375 124.210938 C -1.132812 182.410156 10.296875 204.601562 27.332031 211.511719 C 24.96875 204.480469 23.042969 196.433594 21.574219 187.746094 C 10.535156 152.644531 14.976562 88.707031 32.144531 39.730469 "/>
<path style=" stroke:none;fill-rule:nonzero;fill:rgb(92.941177%,90.980393%,3.921569%);fill-opacity:1;" d="M 97.734375 101.726562 C 95.199219 119.761719 90.542969 139.984375 83.964844 159.902344 C 78.839844 175.421875 73.136719 187.636719 67.246094 196.488281 C 60.441406 207.609375 52 214.171875 42.566406 214.171875 C 37.289062 214.171875 32.09375 213.4375 27.335938 211.496094 C 30.148438 219.867188 33.566406 226.804688 37.535156 231.65625 C 62.179688 261.730469 63.734375 205.855469 89.804688 177.503906 C 104.449219 161.585938 104.503906 130.46875 97.734375 101.726562 "/>
<path style=" stroke:none;fill-rule:nonzero;fill:rgb(93.333334%,90.980393%,3.529412%);fill-opacity:1;" d="M 67.242188 43.582031 C 70.875 45.253906 74.328125 48.273438 77.414062 52.671875 C 85.691406 64.488281 93.226562 82.574219 97.738281 101.726562 C 102.175781 70.167969 100.113281 45.359375 90.398438 40.867188 C 79.722656 35.9375 71.378906 34.359375 63.359375 20.214844 C 53.484375 2.800781 44.824219 8.546875 37.308594 26.152344 C 37.839844 26.191406 38.378906 26.257812 38.941406 26.339844 C 49.355469 27.890625 59.300781 33.007812 67.242188 43.582031 "/>
<path style=" stroke:none;fill-rule:nonzero;fill:rgb(87.450981%,76.47059%,10.980392%);fill-opacity:1;" d="M 32.144531 39.730469 C 14.976562 88.707031 10.535156 152.644531 21.574219 187.746094 C 16.617188 158.363281 16.960938 121.710938 23.953125 92.464844 C 33.257812 53.511719 51.921875 36.523438 67.242188 43.59375 C 59.300781 33.007812 49.355469 27.902344 38.933594 26.339844 C 38.375 26.257812 37.832031 26.203125 37.304688 26.152344 C 35.6875 29.933594 34 34.4375 32.144531 39.730469 "/>
<path style=" stroke:none;fill-rule:nonzero;fill:rgb(90.196079%,79.607844%,13.725491%);fill-opacity:1;" d="M 77.410156 52.683594 C 74.320312 48.273438 70.875 45.265625 67.234375 43.59375 C 77.691406 57.523438 84.644531 80.914062 84.5625 118.183594 C 84.496094 150.519531 77.875 179.097656 67.246094 196.488281 C 73.128906 187.636719 78.839844 175.421875 83.964844 159.902344 C 90.546875 139.984375 95.203125 119.761719 97.734375 101.726562 C 93.226562 82.585938 85.6875 64.488281 77.410156 52.683594 "/>
<path style=" stroke:none;fill-rule:nonzero;fill:rgb(80.392158%,65.490198%,15.294118%);fill-opacity:1;" d="M 67.242188 43.582031 C 51.921875 36.539062 33.257812 53.511719 23.953125 92.464844 C 16.960938 121.726562 16.617188 158.363281 21.582031 187.746094 C 23.046875 196.433594 24.976562 204.480469 27.335938 211.511719 C 32.09375 213.4375 37.289062 214.171875 42.566406 214.171875 C 52.003906 214.171875 60.445312 207.609375 67.246094 196.488281 C 77.878906 179.097656 84.5 150.519531 84.5625 118.183594 C 84.648438 80.902344 77.691406 57.511719 67.242188 43.582031 M 65.519531 178.761719 C 53.722656 197.902344 37.988281 189.363281 30.371094 159.6875 C 22.757812 130.011719 26.527344 91.808594 37.957031 71.304688 C 50.734375 48.378906 67.125 57.417969 73.105469 90.378906 C 78.929688 122.515625 77.320312 159.632812 65.519531 178.761719 "/>
<path style=" stroke:none;fill-rule:nonzero;fill:rgb(79.607844%,69.803923%,5.882353%);fill-opacity:1;" d="M 144.003906 177.625 L 144.003906 212.167969 C 142.90625 213.648438 141.410156 214.878906 139.496094 215.828125 C 137.585938 216.777344 135.664062 217.257812 133.730469 217.257812 C 130.8125 217.257812 128.296875 215.722656 126.195312 212.632812 C 124.089844 209.546875 122.480469 205.109375 121.371094 199.292969 C 120.261719 193.492188 119.707031 186.542969 119.707031 178.453125 C 119.707031 170.449219 120.261719 163.535156 121.371094 157.722656 C 122.476562 151.90625 124.070312 147.484375 126.152344 144.4375 C 128.226562 141.386719 130.683594 139.863281 133.523438 139.863281 C 137.761719 139.863281 141.160156 143.164062 143.710938 149.742188 L 142.617188 154.957031 C 141.1875 151.695312 139.746094 149.339844 138.300781 147.882812 C 136.855469 146.425781 135.25 145.707031 133.476562 145.707031 C 129.9375 145.707031 127.210938 148.539062 125.289062 154.207031 C 123.367188 159.875 122.402344 167.960938 122.402344 178.441406 C 122.402344 189.148438 123.375 197.328125 125.332031 202.996094 C 127.28125 208.664062 130.097656 211.496094 133.773438 211.496094 C 136.605469 211.496094 139.234375 210.320312 141.648438 207.996094 L 141.648438 183.226562 L 133.730469 183.226562 L 133.730469 177.597656 L 144.003906 177.597656 Z M 144.003906 177.625 "/>
<path style=" stroke:none;fill-rule:nonzero;fill:rgb(79.607844%,69.803923%,5.882353%);fill-opacity:1;" d="M 161.585938 212.59375 C 159.578125 209.480469 158.03125 205.015625 156.953125 199.199219 C 155.871094 193.398438 155.332031 186.515625 155.332031 178.574219 C 155.332031 170.636719 155.867188 163.765625 156.929688 157.949219 C 157.996094 152.136719 159.535156 147.671875 161.542969 144.554688 C 163.550781 141.441406 165.929688 139.878906 168.683594 139.878906 C 171.4375 139.878906 173.820312 141.441406 175.84375 144.554688 C 177.867188 147.671875 179.40625 152.121094 180.476562 157.894531 C 181.539062 163.671875 182.074219 170.527344 182.074219 178.46875 C 182.074219 186.40625 181.535156 193.292969 180.457031 199.148438 C 179.375 204.988281 177.828125 209.480469 175.820312 212.59375 C 173.8125 215.707031 171.4375 217.273438 168.683594 217.273438 C 165.960938 217.273438 163.59375 215.707031 161.585938 212.59375 Z M 176.535156 202.808594 C 178.402344 197.074219 179.335938 188.960938 179.335938 178.46875 C 179.335938 167.976562 178.410156 159.902344 176.558594 154.234375 C 174.703125 148.566406 172.078125 145.730469 168.683594 145.730469 C 165.316406 145.730469 162.691406 148.578125 160.828125 154.285156 C 158.960938 159.996094 158.027344 168.054688 158.027344 178.46875 C 158.027344 188.882812 158.960938 196.980469 160.828125 202.753906 C 162.691406 208.53125 165.316406 211.417969 168.683594 211.417969 C 172.050781 211.417969 174.671875 208.558594 176.535156 202.808594 Z M 176.535156 202.808594 "/>
<path style=" stroke:none;fill-rule:nonzero;fill:rgb(79.607844%,69.803923%,5.882353%);fill-opacity:1;" d="M 193.742188 216.417969 L 193.742188 140.734375 L 196.351562 140.734375 L 196.351562 210.667969 L 211.847656 210.667969 L 211.847656 216.402344 L 193.742188 216.402344 Z M 193.742188 216.417969 "/>
<path style=" stroke:none;fill-rule:nonzero;fill:rgb(79.607844%,69.803923%,5.882353%);fill-opacity:1;" d="M 221.449219 140.734375 L 231.09375 140.734375 C 235.867188 140.734375 239.546875 143.996094 242.125 150.519531 C 244.710938 157.039062 246 166.359375 246 178.46875 C 246 190.59375 244.703125 199.933594 242.105469 206.523438 C 239.507812 213.117188 235.839844 216.402344 231.09375 216.402344 L 221.449219 216.402344 Z M 230.96875 210.683594 C 235.039062 210.683594 238.101562 207.96875 240.148438 202.554688 C 242.199219 197.128906 243.222656 189.109375 243.222656 178.480469 C 243.222656 157.148438 239.136719 146.480469 230.96875 146.480469 L 224.0625 146.480469 L 224.0625 210.683594 Z M 230.96875 210.683594 "/>
<path style=" stroke:none;fill-rule:nonzero;fill:rgb(50.196081%,50.980395%,52.156866%);fill-opacity:1;" d="M 120.46875 42.765625 L 132.9375 42.765625 C 136.082031 42.765625 138.527344 44.703125 140.285156 48.566406 C 142.039062 52.429688 142.917969 57.695312 142.917969 64.355469 C 142.917969 71.011719 142.027344 76.277344 140.242188 80.140625 C 138.460938 84.003906 136.023438 85.929688 132.9375 85.929688 L 124.808594 85.929688 L 124.808594 118.449219 L 120.46875 118.449219 Z M 132.425781 77.214844 C 134.503906 77.214844 136.070312 76.117188 137.125 73.910156 C 138.179688 71.707031 138.703125 68.523438 138.703125 64.339844 C 138.703125 60.238281 138.179688 57.082031 137.125 54.875 C 136.070312 52.683594 134.507812 51.574219 132.425781 51.574219 L 124.808594 51.574219 L 124.808594 77.199219 L 132.425781 77.199219 Z M 132.425781 77.214844 "/>
<path style=" stroke:none;fill-rule:nonzero;fill:rgb(50.196081%,50.980395%,52.156866%);fill-opacity:1;" d="M 172.933594 118.449219 L 169.738281 99.738281 L 154.574219 99.738281 L 151.375 118.449219 L 146.953125 118.449219 L 160.304688 42.765625 L 163.96875 42.765625 L 177.363281 118.449219 Z M 156.050781 91.019531 L 168.265625 91.019531 L 162.15625 54.996094 Z M 156.050781 91.019531 "/>
<path style=" stroke:none;fill-rule:nonzero;fill:rgb(50.196081%,50.980395%,52.156866%);fill-opacity:1;" d="M 198.539062 79.871094 L 209.953125 118.449219 L 204.816406 118.449219 L 196.058594 88.054688 L 187.296875 118.449219 L 182.160156 118.449219 L 193.574219 79.765625 L 182.667969 42.78125 L 187.761719 42.78125 L 196.097656 71.691406 L 204.390625 42.78125 L 209.53125 42.78125 Z M 198.539062 79.871094 "/>
</g>
</svg>
