<?xml version="1.0" encoding="utf-8"?>
<!-- Generator: Adobe Illustrator 16.0.0, SVG Export Plug-In . SVG Version: 6.00 Build 0)  -->
<!DOCTYPE svg PUBLIC "-//W3C//DTD SVG 1.1//EN" "http://www.w3.org/Graphics/SVG/1.1/DTD/svg11.dtd">
<svg version="1.1" id="Layer_1" xmlns="http://www.w3.org/2000/svg" xmlns:xlink="http://www.w3.org/1999/xlink" x="0px" y="0px"
	 width="848px" height="848.005px" viewBox="0 0 848 848.005" enable-background="new 0 0 848 848.005" xml:space="preserve">
<g id="PegNet_Frame">
	<path fill="#0C3352" d="M453.856,822.53c-16.252,16.269-42.633,16.295-58.911,0l-93.757-93.734l-161.93,0.441l-60.865-71.099
		h252.744c10.994,0,21.736,4.393,29.472,12.163l63.806,63.83l129.496-129.479v117.835L453.856,822.53z"/>
	<path fill="#0872B9" d="M816.242,390.285c16.277,16.27,16.312,42.658,0,58.927l-93.743,93.752l0.476,161.931l-71.132,60.857
		V513.016c0-10.994,4.419-21.71,12.216-29.472l63.785-63.786L598.37,290.253h117.849L816.242,390.285z"/>
	<path fill="#0C3352" d="M30.417,457.234c-16.278-16.244-16.321-42.623,0-58.918l93.733-93.739l-0.464-161.935l71.135-60.87v252.74
		c0,11.011-4.426,21.736-12.204,29.463l-63.821,63.829l129.505,129.479h-117.87L30.417,457.234z"/>
	<path fill="#0C3352" d="M395.092,27.913c16.27-16.28,42.664-16.321,58.92,0l93.765,93.73l161.934-0.459l60.841,71.12H517.82
		c-10.994,0-21.71-4.424-29.472-12.203l-63.808-63.804L295.055,245.794V127.938L395.092,27.913z"/>
</g>
<g id="Cryptos" display="none">
	<g id="Decred" display="inline">
		<g id="Layer_1-2_1_">
			
				<linearGradient id="_Pad__1_" gradientUnits="userSpaceOnUse" x1="-8028.394" y1="477.8008" x2="-8019.876" y2="477.8008" gradientTransform="matrix(19.961 0 0 -19.961 160659.9688 9962.3047)">
				<stop  offset="0" style="stop-color:#62D0C9"/>
				<stop  offset="1" style="stop-color:#7DE2AC"/>
			</linearGradient>
			<path id="_Pad_" fill="url(#_Pad__1_)" d="M405.088,453.391h75.035c27.879,0,50.715-22.54,50.715-50.715
				c0-28.176-22.54-50.419-50.418-50.419h-24.023l-51.309-44.487h75.035c52.495-0.296,95.202,42.114,95.202,94.609
				c0.297,38.852-23.43,73.849-59.612,88.381l59.316,51.309h-67.62L405.088,453.391z"/>
			<path id="_Pad_2" fill="#4971FA" d="M441.864,396.744h-75.035c-27.878,0-50.715,22.54-50.715,50.715s22.54,50.716,50.715,50.716
				h24.023l51.012,44.486h-75.035c-52.495,0-95.202-42.41-95.499-94.608c-0.297-39.149,23.43-74.146,59.612-88.678l-59.316-51.605
				h67.917L441.864,396.744z"/>
			
				<linearGradient id="_Pad_3_1_" gradientUnits="userSpaceOnUse" x1="-8035.0684" y1="477.7861" x2="-8026.5503" y2="477.7861" gradientTransform="matrix(19.961 0 0 -19.961 160659.9688 9962.3047)">
				<stop  offset="0" style="stop-color:#3268FB"/>
				<stop  offset="1" style="stop-color:#4795FA"/>
			</linearGradient>
			<path id="_Pad_3" fill="url(#_Pad_3_1_)" d="M441.864,396.744h-75.035c-27.878,0-50.715,22.54-50.715,50.715
				s22.54,50.716,50.715,50.716h24.023l51.012,44.486h-75.035c-52.495,0-95.202-42.41-95.499-94.608
				c-0.297-39.149,23.43-74.146,59.612-88.678l-59.316-51.605h67.917L441.864,396.744z"/>
		</g>
	</g>
	<g id="Stellar">
		<g id="Layer_1-2" display="inline">
			<path d="M532.421,330.272l-36.603,18.649l-176.763,90.035c-0.598-4.563-0.898-9.152-0.899-13.752
				c0.078-58.154,47.284-105.237,105.438-105.162c17.929,0.022,35.556,4.624,51.205,13.364l20.953-10.675l3.125-1.592
				c-57.488-41.726-137.915-28.948-179.64,28.535c-15.942,21.97-24.532,48.421-24.528,75.57c0,3.275,0.128,6.538,0.375,9.786
				c0.711,9.408-4.299,18.324-12.705,22.613l-11.051,5.633v26.272l32.528-16.577l0,0l10.535-5.378l10.378-5.284l0,0l186.342-94.943
				l20.939-10.661l43.278-22.063V308.38L532.421,330.272z"/>
			<path d="M575.328,360.938L335.355,483.12l-20.94,10.688l-43.087,21.955v26.255l42.793-21.806l36.602-18.646l176.938-90.16
				c0.599,4.585,0.9,9.211,0.901,13.838c-0.038,58.153-47.209,105.265-105.363,105.229c-18.015-0.005-35.72-4.641-51.437-13.447
				l-1.285,0.675l-22.714,11.58c57.484,41.734,137.912,28.966,179.645-28.514c15.94-21.957,24.529-48.397,24.539-75.523
				c0-3.307-0.133-6.614-0.375-9.881c-0.711-9.403,4.292-18.317,12.69-22.613l11.064-5.633V360.938z"/>
		</g>
	</g>
	<g id="RavenCoin">
		<path display="inline" fill="#384182" d="M410.422,525.323l-84.452,60.635l53.613-246.714L410.422,525.323z M412.13,524.754
			l51.43,0.663l-81.984-185.224L412.13,524.754z M468.4,520.673l39.379-145.939l-14.898-18.218L468.4,520.673z M449.422,291.895
			l-64.81,43.648l94.7-30.648L449.422,291.895z M441.261,291.895l-40.233,1.328l-5.882,16.795L441.261,291.895z"/>
		<path display="inline" fill="#F79534" d="M490.035,350.916L386.32,336.682l93.467-29.415L490.035,350.916z M465.458,296.069
			l5.693-15.467l-29.89-13L465.458,296.069z M474.094,279.085l6.737,24.291l39.854-10.533L474.094,279.085z"/>
		<path display="inline" fill="#F0513A" d="M465.838,524.468l-83.124-185.981l108.364,15.181L465.838,524.468z M446.291,291.895
			l-51.24,20.021l-12.336,22.774L446.291,291.895z M414.502,276.712l-12.81,14.139l42.511-1.043L414.502,276.712z M436.896,265.705
			l-20.307,9.395l46.307,20.401L436.896,265.705z M460.05,264.472h-21.825l33.78,13.095L460.05,264.472z M472.669,281.837
			l-5.219,15.562l10.438,5.029L472.669,281.837z"/>
	</g>
	<g id="Binance">
		<path display="inline" fill="#F3BA2F" d="M364.287,400.956l59.038-59.038l59.067,59.066l34.35-34.343l-93.417-93.426
			l-93.387,93.396L364.287,400.956 M271.328,425.21l34.35-34.356l34.354,34.355l-34.356,34.355L271.328,425.21z M364.287,449.474
			l59.038,59.037l59.066-59.064l34.371,34.326l-0.02,0.018l-93.417,93.424l-93.39-93.395l-0.052-0.046L364.287,449.474
			 M506.623,425.228l34.356-34.354l34.349,34.353l-34.351,34.356L506.623,425.228z"/>
		<path display="inline" fill="#F3BA2F" d="M458.169,425.198h0.014l-34.858-34.854l-25.764,25.752h-0.001l-2.959,2.962l-6.104,6.111
			l-0.046,0.045l0.046,0.047l34.829,34.837l34.858-34.866l0.017-0.018L458.169,425.198"/>
	</g>
	<path id="Cardano" fill="#2B63D5" d="M419.599,285.594c6.627-3.455,14.713,4.56,11.185,11.181
		c-2.044,5.395-9.795,6.83-13.752,2.717C412.839,295.544,414.209,287.742,419.599,285.594 M348.333,293.275
		c4.024-1.658,9.117,2.03,8.707,6.417c0.427,4.761-5.395,8.269-9.498,6.004C342.108,303.593,342.728,294.768,348.333,293.275
		 M494.292,305.832c-6.289-0.761-7.284-10.648-1.228-12.646c4.696-2.291,9.005,2.004,9.691,6.456
		c-0.984,3.802-4.169,7.283-8.464,6.184 M364.544,323.602c6.729-4.255,16.331,2.082,15.297,9.897
		c-0.349,7.895-10.833,12.466-16.747,7.129c-5.713-4.189-4.851-13.805,1.45-17.023 M467.267,328.121
		c3.005-7.729,15.17-7.973,18.587-0.433c3.378,5.861-0.776,13.122-6.794,15.107c-7.97,1.49-15.54-7.123-11.788-14.667
		 M411.015,342.359c-0.063-6.652,5.99-11.607,12.313-12.06c4.191,0.839,8.761,2.625,10.56,6.857
		c3.353,5.837,0.377,13.868-5.68,16.547c-2.77,1.551-6.044,0.972-9.059,0.793C414.539,352.231,410.658,347.792,411.015,342.359
		 M305.034,352.047c6.146-3.778,14.439,3.118,12.112,9.797c-1.281,5.774-9.046,8.124-13.483,4.435
		C298.919,362.826,299.674,354.519,305.034,352.047 M532.616,352.034c5.215-4.048,13.821,0.596,13.199,7.178
		c0.35,6.002-7.091,10.528-12.268,7.44c-5.702-2.564-6.284-11.336-0.932-14.624 M440.821,363.984
		c8.605-3.095,18.829,0.607,23.734,8.282c6.468,9.375,3.026,23.66-7.017,29.042c-10.404,6.368-25.596,0.976-29.438-10.645
		C423.738,380.264,430.095,367.245,440.821,363.984 M390.327,365.011c9.537-4.498,22.372-0.726,26.979,9.036
		c5.424,9.497,1.232,22.717-8.463,27.623c-9.703,5.51-23.395,1.335-28.089-8.863C375.484,382.948,380.159,369.555,390.327,365.011
		 M339.765,382.295c0.729-6.14,6.522-10.142,12.37-10.555c6.305,0.758,11.34,5.654,12.021,12.036
		c-0.412,6.318-5.291,12.487-11.981,12.448c-7.363,0.633-13.815-6.685-12.41-13.924 M489.102,373.078
		c7.558-4.393,18.053,2.008,17.717,10.688c0.518,9.2-11.096,15.688-18.623,10.289C480.377,389.563,480.989,376.907,489.102,373.078
		 M369.775,405.502c8.841-2.438,18.946,1.729,23.281,9.855c4.742,8.174,2.809,19.539-4.568,25.536
		c-9.457,8.794-26.903,5.267-31.938-6.742C350.765,423.145,357.793,408.393,369.775,405.502 M465.547,405.45
		c8.593-2.456,18.688,0.853,23.308,8.688c6.109,8.951,3.193,22.305-5.899,28.074c-9.524,6.703-24.278,3.182-29.518-7.293
		C447.083,424.076,453.477,408.762,465.547,405.45 M312.925,415.668c7.636-2.891,16.1,5.533,13.006,13.106
		c-1.89,6.893-11.607,9.449-16.627,4.363C303.427,428.364,305.604,417.739,312.925,415.668 M519.878,426.653
		c-0.22-6.321,4.407-11.928,10.896-12.286c5.229,0.83,10.313,5.047,9.899,10.744c0.479,7.516-8.58,12.624-14.986,9.092
		c-3.002-1.524-4.541-4.602-5.809-7.554 M275.386,419.373c4.593-2.001,10.276,1.978,9.228,7.077
		c-0.243,5.779-8.774,7.997-11.906,3.173C269.939,426.279,271.594,421.107,275.386,419.373z M565.013,419.253
		c3.234-2.304,8.424-0.646,9.705,3.128c2.173,4.128-1.813,9.782-6.458,9.086C561.74,432.063,559.626,422.127,565.013,419.253
		 M394.726,446.977c12.089-3.142,25.08,6.935,25.158,19.386c0.788,12.574-12.009,23.727-24.38,20.823
		c-9.565-1.539-17.067-10.752-16.758-20.419C378.72,457.526,385.695,448.934,394.726,446.977 M442.596,446.951
		c12.268-3.425,25.648,6.83,25.452,19.563c0.65,12.348-11.749,23.123-23.862,20.675c-11.399-1.474-19.812-13.997-16.631-25.066
		C429.163,454.756,435.323,448.759,442.596,446.951 M350.302,454.612c8.487-1.448,16.447,8.025,13.006,16.082
		c-2.512,8.59-15.013,10.921-20.541,3.901C336.287,467.863,341.125,455.542,350.302,454.612 M490.682,455.001
		c7.569-3.167,16.859,3.381,16.277,11.593c0.304,9.049-11.169,15.284-18.57,10.004C480,471.854,481.531,457.911,490.682,455.001
		 M529.918,494.358c-2.964-5.527,2.42-12.845,8.555-11.825c3.054-0.05,5.19,2.354,7.144,4.379c0.402,3.274,1.075,7.175-1.643,9.702
		c-3.689,4.669-12.051,3.341-14.056-2.25 M305.011,484.071c5.733-3.817,13.983,1.88,12.693,8.58
		c-0.684,5.927-8.146,9.317-13.071,5.957c-5.277-3.051-5.084-11.744,0.378-14.53 M418.281,496.488
		c7.509-3.313,17.068,3.223,16.356,11.492c0.558,9.134-11.271,15.461-18.604,9.967c-8.148-4.71-6.794-18.565,2.252-21.464
		 M365.811,508.72c6.394-3.361,14.971,2.448,14.39,9.608c0.195,5.874-5.539,10.88-11.337,10.012
		c-4.801-0.103-7.932-4.405-9.474-8.497c0.081-4.463,1.916-9.433,6.421-11.117 M472.082,508.833
		c6.574-4.064,15.918,1.772,15.294,9.419c0.171,7.998-10.391,13.124-16.512,7.87C464.937,522.004,465.662,512.107,472.082,508.833
		 M490.564,554.518c-2.919-4.422,0.519-9.756,5.266-10.766c3.818,0.779,7.856,3.651,7.054,8.075
		C502.326,557.818,493.564,559.657,490.564,554.518 M343.868,550.678c1.164-3.509,3.985-6.995,8.112-6.085
		c6.02,0.429,7.806,9.498,2.537,12.294C349.782,560.078,344.287,555.709,343.868,550.678 M414.637,554.698
		c1.153-5.185,7.869-7.713,12.293-4.954c2.921,1.256,3.781,4.529,4.532,7.308c-0.402,1.449-0.76,2.9-1.114,4.351
		c-1.812,2.145-4.132,4.293-7.155,4.218C417.586,566.274,412.532,559.94,414.637,554.698"/>
	<g id="Litecoin">
		<path display="inline" fill="#365E9B" d="M575.328,425.213c0,83.946-68.055,152.002-151.999,152.002
			c-83.945,0-152.001-68.056-152.001-152.002c0-83.943,68.056-151.999,152.001-151.999
			C507.272,273.214,575.328,341.27,575.328,425.213"/>
		<path display="inline" fill="#365E9B" d="M543.058,425.215c0,66.117-53.609,119.734-119.729,119.734
			c-66.126,0-119.728-53.617-119.728-119.734c0-66.121,53.602-119.727,119.728-119.727
			C489.45,305.488,543.058,359.094,543.058,425.215"/>
		<path display="inline" fill="#FFFFFF" d="M414.446,465.817l9.87-37.179l23.377-8.537l5.815-21.842l-0.201-0.541l-23.009,8.396
			l16.575-62.412H399.86l-21.68,81.456l-18.101,6.615l-5.983,22.523l18.09-6.611l-12.775,48.02h125.126l8.021-29.888H414.446"/>
	</g>
	<g id="Zcash">
		<path display="inline" fill="#231F20" d="M423.328,273.215c-83.823,0-152,68.178-152,152s68.177,152,152,152
			c83.822,0,152-68.178,152-152S507.15,273.215,423.328,273.215z M423.328,552.127c-69.998,0-126.914-56.914-126.914-126.912
			s56.916-126.914,126.914-126.914s126.914,56.916,126.914,126.914S493.326,552.127,423.328,552.127z"/>
		<circle display="inline" fill="#F4B728" cx="423.328" cy="425.216" r="119.767"/>
		<polygon display="inline" fill="#231F20" points="369.109,472.489 369.109,495.687 410.582,495.687 410.582,521.109 
			436.073,521.109 436.073,495.687 477.546,495.687 477.546,465.002 413.212,465.002 477.546,377.741 477.546,354.542 
			436.073,354.542 436.073,329.187 410.582,329.187 410.582,354.542 369.109,354.542 369.109,385.291 433.443,385.291 		"/>
	</g>
	<g id="Monero">
		<path display="inline" fill="#FFFFFF" d="M575.328,425.201c0,83.946-68.047,152.003-152,152.003c-83.952,0-152-68.057-152-152.003
			c0-83.948,68.049-152.007,152-152.007S575.328,341.245,575.328,425.201z"/>
		<path id="_149931032" display="inline" fill="#F26822" d="M423.324,273.194c-83.923,0-152.09,68.153-151.983,152.001
			c0.021,16.776,2.695,32.911,7.716,48.003h45.478V345.33l98.79,98.789l98.786-98.789V473.2h45.487
			c5.028-15.09,7.689-31.225,7.719-48.003c0.143-83.933-68.06-151.983-151.992-151.983V273.194z"/>
		<path id="_149931160" display="inline" fill="#4D4D4D" d="M400.604,466.831l-43.113-43.117v80.466h-32.96l-31.104,0.004
			c26.679,43.772,74.896,73.052,129.897,73.052c55.003,0,103.221-29.287,129.906-73.056h-64.083v-80.466l-43.116,43.117
			l-22.712,22.711l-22.712-22.711l0,0H400.604z"/>
	</g>
	<g id="Dash">
		<g display="inline">
			<path fill="#008DE4" d="M469.874,303.314H360.55l-9.066,50.655l98.678,0.117c48.607,0,62.938,17.666,62.529,46.912
				c-0.234,14.975-6.726,40.36-9.534,48.608c-7.488,21.935-22.871,46.911-80.546,46.853l-95.929-0.059l-9.066,50.714h109.09
				c38.488,0,54.809-4.505,72.18-12.459c38.43-17.84,61.301-55.743,70.484-105.229C583,355.725,566.038,303.314,469.874,303.314"/>
			<path fill="#008DE4" d="M313.346,399.771c-28.662,0-32.756,18.659-35.447,29.949c-3.568,14.739-4.738,20.765-4.738,20.765
				h111.957c28.662,0,32.756-18.66,35.447-29.948c3.568-14.741,4.738-20.766,4.738-20.766H313.346L313.346,399.771z"/>
		</g>
	</g>
	<g id="Bitcoin_Cash">
		<g id="wordmark-bitcoincash-dark.min" display="inline">
			<g id="Rectangle" transform="translate(-229 -486)">
				<path id="path0_fill" fill="#F9F9F9" d="M492.155,811.046H812.5v200.229H492.155V811.046z"/>
			</g>
			<g id="Vector" transform="translate(-229 -486)">
				<path id="path1_fill" fill="#F7941D" d="M492.155,811.046h91.497c-15.937,11.274-28.837,26.234-37.834,43.688
					c-8.998,17.453-13.66,36.751-13.66,56.372c0,19.624,4.662,39.027,13.66,56.482c8.998,17.452,21.898,32.414,37.834,43.687
					h-91.497V811.046z M652.273,811.046c-26.126,0-51.169,10.516-69.707,29.271c-18.429,18.756-28.836,44.23-28.836,70.79
					c0,26.561,10.408,52.036,28.836,70.791c18.43,18.755,43.581,29.271,69.707,29.271c26.126,0,51.168-10.516,69.706-29.271
					c18.429-18.755,28.836-44.23,28.836-70.791c0-26.56-10.407-52.034-28.836-70.79C703.55,821.562,678.4,811.046,652.273,811.046z
					 M812.5,811.046h-91.497c15.937,11.274,28.836,26.234,37.834,43.688c8.998,17.453,13.66,36.751,13.66,56.48
					c0,19.621-4.662,39.027-13.66,56.481c-8.998,17.453-21.897,32.415-37.834,43.688H812.5V811.046z"/>
			</g>
			<g id="Vector_1_" transform="translate(-218.105 -482.324)">
				<path id="path2_fill" fill="#FFFFFF" d="M684.953,878.135c-4.444-12.683-16.586-14.201-30.788-11.924l-4.445-17.997
					l-10.84,2.712l4.336,17.562c-2.819,0.759-5.746,1.517-8.564,2.277l-4.336-17.671l-10.84,2.709l4.444,17.996
					c-2.277,0.65-4.662,1.3-6.829,1.844v-0.108l-14.96,3.793l2.927,11.707c0,0,7.914-2.168,7.806-1.95
					c4.336-1.085,6.396,1.084,7.372,3.253l5.095,20.599c0.434-0.109,0.759-0.219,1.192-0.219l-1.192,0.326l7.046,28.834
					c0.108,1.411-0.108,3.905-3.144,4.664c0.217,0.107-7.914,1.951-7.914,1.951l1.083,13.659l14.094-3.577
					c2.602-0.651,5.204-1.302,7.697-1.844l4.445,18.214l10.841-2.712l-4.445-18.104c3.036-0.65,5.854-1.408,8.673-2.059
					l4.444,17.995l10.841-2.71l-4.445-18.212c17.887-5.638,29.487-13.551,26.777-31.33c-2.168-14.31-10.19-18.864-21.141-18.754
					C685.712,894.18,688.205,887.458,684.953,878.135L684.953,878.135z M679.424,920.957c3.361,13.658-20.055,17.886-27.318,19.729
					l-5.962-24.175C653.515,914.777,675.955,906.864,679.424,920.957z M666.09,888.218c3.035,12.358-16.478,15.826-22.548,17.344
					l-5.421-21.898C644.192,882.037,662.837,875.208,666.09,888.218z"/>
			</g>
		</g>
	</g>
	<g id="Bitcoin">
		<path display="inline" fill="#F7931A" d="M423.328,273.215c83.941,0,152,68.059,152,152s-68.059,152-152,152
			c-83.946,0-152-68.059-152-152S339.382,273.215,423.328,273.215z"/>
		<path display="inline" fill="#FFFFFF" d="M491.627,406.401c2.979-19.909-12.19-30.617-32.916-37.759l6.716-26.98l-16.412-4.082
			l-6.559,26.265c-4.305-1.085-8.739-2.087-13.155-3.098l6.605-26.432l-16.417-4.1l-6.726,26.97
			c-3.572-0.817-7.088-1.615-10.488-2.469l0.019-0.083l-22.651-5.658l-4.37,17.542c0,0,12.19,2.792,11.931,2.96
			c6.652,1.67,7.849,6.066,7.65,9.555l-7.659,30.736c0.458,0.112,1.048,0.287,1.711,0.547l-1.74-0.435l-10.734,43.055
			c-0.816,2.014-2.875,5.048-7.533,3.898c0.172,0.241-11.931-2.969-11.931-2.969l-8.155,18.786l21.375,5.325
			c3.975,1.002,7.867,2.051,11.699,3.024l-6.796,27.283l16.408,4.084l6.726-26.98c4.485,1.207,8.837,2.329,13.09,3.396
			l-6.707,26.868l16.417,4.081l6.795-27.229c28.003,5.299,49.054,3.165,57.924-22.163c7.143-20.391-0.353-32.156-15.085-39.818
			C481.385,428.044,489.465,420.984,491.627,406.401z M454.091,459.021c-5.056,20.391-39.401,9.36-50.534,6.596l9.027-36.144
			C423.717,432.257,459.407,437.758,454.091,459.021z M459.175,406.112c-4.62,18.546-33.198,9.12-42.457,6.811l8.169-32.776
			C434.145,382.455,464,386.761,459.175,406.112z"/>
	</g>
	<g id="Factom">
		<path display="inline" fill="#1D1D1D" d="M423.948,318.594c-2.63,9.198-15.114,21.681-31.538,32.192l-0.654,0.657
			c-0.659,1.969,2.627,7.225,6.568,5.256c19.052-12.486,33.505-26.94,36.131-37.448c1.974-8.541-3.284-12.484-14.451-13.143
			c-3.283,0-7.226,0-10.511,0.658h-2.629C419.344,306.108,426.572,310.052,423.948,318.594"/>
		<path display="inline" fill="#1D1D1D" d="M471.905,331.076c-5.915,22.336-49.928,57.155-98.544,78.18
			c-9.197,3.94-17.74,7.227-25.622,9.188c-0.655,0-1.314,0.662-1.971,1.317c-1.97,2.631-1.315,9.199,3.287,8.537
			c8.535-2.616,17.735-5.906,27.589-9.854c51.242-21.673,98.541-59.118,104.457-82.77c1.966-7.882-0.657-13.14-7.229-16.423
			c-3.286-1.313-7.224-3.286-10.51-4.601C470.586,317.281,473.872,323.191,471.905,331.076"/>
		<path display="inline" fill="#1D1D1D" d="M532.345,382.322C532.999,382.322,532.999,382.322,532.345,382.322
			c0-2.635,0-2.635-1.315-7.23l-1.316-2.629l-4.596-7.227c1.311,1.971,1.969,4.601,1.969,7.884
			C527.744,375.748,531.029,381.66,532.345,382.322"/>
		<path display="inline" fill="#1D1D1D" d="M537.597,401.37c-6.567,23.652-47.3,59.118-96.57,84.746
			c-1.313,0.666-1.97,1.314-2.627,3.295c-1.314,3.278,1.968,7.874,7.224,5.254c48.617-25.626,88.688-59.791,94.604-83.443
			c1.312-3.941,1.312-7.222,0.657-9.852c-0.657-3.284-2.629-7.885-3.287-11.165C538.912,392.832,538.912,396.771,537.597,401.37"/>
		<path display="inline" fill="#1D1D1D" d="M496.209,476.921c-0.656,0.657-1.969,1.974-2.625,3.935
			c-0.658,2.633,1.309,6.575,5.252,3.947c24.308-17.734,42.048-36.788,45.333-51.239c0.656-1.975,0.656-4.604,0.656-5.913v-3.944
			l-0.656-7.884c0,2.625,0,4.594-0.657,7.884C539.573,438.813,521.174,458.527,496.209,476.921"/>
		<path display="inline" fill="#1D1D1D" d="M360.88,356.699c5.909-2.631,11.822-5.259,17.079-8.542c1.314-1.314,0.655-2.63,0-3.287
			c-0.657-0.657-2.628-2.629-3.941-1.969c-4.603,2.626-9.198,5.256-13.798,7.227c-15.111,6.571-26.936,7.224-29.562,3.284
			c-0.661-1.31-1.316-2.626-0.661-4.598c0.661-1.972,1.972-3.944,3.945-6.573c2.626-2.627,5.914-5.911,9.198-9.191
			c8.538-5.915,18.391-11.83,28.246-15.769c1.974-1.972,3.944-2.631,5.258-3.288c15.111-4.597,24.966-3.286,22.993,3.945
			c-0.654,2.629-1.97,5.253-4.597,7.88c1.312,1.316,7.224,2.63,9.196,1.316c3.283-3.286,5.256-7.229,5.914-9.854
			c2.628-8.543-7.886-11.173-23.65-6.574c-1.969,0.659-2.629,0.659-3.944,1.314c-1.968,0.657-1.968,0.657-3.941,1.316
			c-1.97,0.655-2.628,1.313-3.94,1.313c-1.313,0.659-1.972,0.659-3.942,1.975c-1.316,0.656-1.968,0.656-3.288,1.313
			c-1.311,0.655-1.971,0.655-3.281,1.313c-1.971,1.316-1.971,1.316-3.283,1.969l-2.634,1.314c-1.307,0.657-1.968,0.657-2.625,1.314
			c-1.312,0.657-1.312,0.657-2.624,1.97c-1.318,0.656-1.972,1.316-2.632,1.974c-1.31,0.656-1.31,1.314-2.626,1.967
			c-1.314,0.659-1.971,1.317-2.629,1.977c-1.312,0.654-1.968,1.314-2.627,1.967c-1.314,1.314-1.973,1.314-3.285,2.628
			c-1.31,1.315-1.97,1.315-3.283,2.63c-3.945,2.629-6.571,5.253-8.543,7.883c-1.968,1.972-3.283,3.943-3.941,5.913
			c0,0.656-0.659,1.313-0.659,1.968v1.319c0,1.967,0,3.282,0.659,4.594C327.371,365.894,342.482,364.58,360.88,356.699"/>
		<path display="inline" fill="#1D1D1D" d="M308.977,378.375v0.658v0.654c0,0.656,0.657,1.319,0.657,1.319
			c3.945,4.596,13.137,5.254,19.709,3.939c22.994-2.624,23.654-6.571,23.654-9.198c0,0,0-4.599-2.632-4.599
			c-18.396,5.912-31.533,5.912-35.474,0.655c-0.655-1.313-1.312-3.941-0.655-7.225c0.655-2.627,1.969-3.943,2.625-5.912
			c0.66-1.316,1.971-2.625,3.284-4.6l-1.97,1.975c-0.655,1.309-1.971,2.625-3.285,3.942c-1.312,1.31-1.971,3.283-2.628,3.939
			c-0.656,1.312-1.968,3.282-2.629,4.598c-0.657,1.314-0.657,1.97-1.313,3.282c0,0.658,0,1.315-0.654,1.974
			C308.32,375.748,308.32,377.062,308.977,378.375C308.977,377.719,308.977,378.375,308.977,378.375"/>
		<path display="inline" fill="#1D1D1D" d="M369.416,396.11c44.019-18.392,84.092-49.926,89.35-70.292
			c1.967-7.225-0.658-12.48-7.884-14.452c-1.316-0.656-2.631-0.656-4.604-1.314c-3.279-0.655-3.279-0.655-3.939-0.655
			c5.913,1.97,8.543,6.568,6.571,13.138c-5.256,18.396-41.388,47.303-81.465,64.384c-31.53,13.139-55.838,15.111-62.409,6.567
			c-1.97-2.627-1.97-5.254-1.312-9.195c0.655-1.311,0.655-2.63,1.312-3.946c-1.312,3.291-3.285,7.888-4.597,11.168
			c0,0.66-0.658,1.32-0.658,1.974c0,0.657-0.655,1.971-0.655,2.625c-0.658,3.288,0,5.919,1.971,7.89
			C307.666,413.196,334.599,411.222,369.416,396.11"/>
		<path display="inline" fill="#1D1D1D" d="M293.871,417.791v2.625V417.791z"/>
		<path display="inline" fill="#1D1D1D" d="M293.871,445.389L293.871,445.389v0.653V445.389c0,0.653,0,1.313,0.655,1.971v0.663
			v0.645c0,0.66,0.657,0.66,0.657,1.317l-0.657-0.657c0.657,0.657,0.657,1.973,1.313,2.629c9.196,12.483,44.018,9.852,88.687-9.2
			c57.156-24.313,109.058-65.037,116.282-91.97c1.972-7.23,0-12.483-3.943-16.427l-5.25-4.601l-3.945-2.624
			c1.972,1.972,6.572,4.601,5.915,11.825c-1.97,41.384-162.268,139.935-198.4,101.828c-1.313-1.976-2.631-4.599-2.631-7.884
			c0,3.285,0,7.229,0.657,10.515v0.654C293.871,444.736,293.871,445.389,293.871,445.389"/>
		<path display="inline" fill="#1D1D1D" d="M298.468,465.098v-1.315V465.098z"/>
		<path display="inline" fill="#1D1D1D" d="M395.04,464.439c60.437-25.627,115.621-68.983,123.507-97.232
			c1.967-6.57,0.653-11.164-1.976-15.107c-1.967-2.63-5.248-5.915-7.882-8.544c3.945,3.943,4.603,9.2,3.286,15.77
			c-7.225,27.593-61.752,70.292-120.878,95.261c-46.645,19.702-82.12,22.992-91.971,9.854v0.658v-0.658
			c-1.317-1.313-1.975-3.287-1.975-4.604c0.658,3.291,1.975,7.892,3.288,11.177v0.661v0.647v0.662
			c0.655,0.65,0.655,1.306,1.313,1.969C310.294,488.093,347.083,484.803,395.04,464.439"/>
		<path display="inline" fill="#1D1D1D" d="M310.95,497.285c0-0.66-0.655-0.66-0.655-1.313
			C310.294,496.625,310.294,496.625,310.95,497.285"/>
		<path display="inline" fill="#1D1D1D" d="M406.863,487.431c36.133-15.758,70.952-37.446,94.603-58.471
			c0.657-1.31,2.628-3.278,1.314-6.568c-0.657-1.308-2.626-4.601-6.57-2.631c-23.651,21.027-57.81,42.707-94.599,58.474
			c-48.614,19.714-86.064,23-95.92,9.196c1.317,1.98,1.976,3.942,2.63,5.916c0,0.658,0.657,1.318,0.657,1.318
			c0,0.646,0.657,0.646,0.657,1.308c0-0.662-0.657-0.662-0.657-1.308c0,0.646,0.657,0.646,0.657,1.308
			C318.832,511.082,356.939,508.455,406.863,487.431"/>
		<path display="inline" fill="#1D1D1D" d="M366.134,523.568c2.63-0.657,1.973-2.633,1.311-3.943
			c-0.655-0.66-3.281-4.601-7.224-3.945c-20.364,3.285-34.817,1.318-40.732-5.914v-0.65c1.315,1.31,2.63,2.629,3.941,4.596
			c1.317,1.313,2.63,3.287,3.941,4.601C332.627,524.884,346.424,526.848,366.134,523.568"/>
		<path display="inline" fill="#1D1D1D" d="M423.287,526.201c3.286-1.317,2.631-3.29,2.631-4.604c0,0-1.971-3.944-7.885-1.973
			c-39.418,15.759-69.638,18.387-80.806,9.194c2.63,1.971,6.571,4.598,9.198,7.229C357.592,543.934,386.5,540.655,423.287,526.201"
			/>
		<path display="inline" fill="#1D1D1D" d="M359.562,543.934c3.287,1.304,7.229,3.285,10.514,5.25
			c12.479,5.26,38.758,1.313,71.606-12.481c49.93-21.022,95.258-57.15,101.173-80.147c0-0.656,0-1.309,0.658-1.969
			c0.657-2.63,0.657-6.571,1.313-9.85v-1.98C538.255,488.093,403.578,562.33,359.562,543.934"/>
		<path display="inline" fill="#1D1D1D" d="M447.595,541.959c-27.592,11.825-50.589,15.766-63.065,12.484
			c3.282,0.657,8.536,1.974,11.821,2.624c34.163,5.263,120.879-37.442,139.273-76.212c1.315-3.277,2.63-7.873,3.948-11.156
			C532.999,490.711,492.269,522.911,447.595,541.959"/>
		<path display="inline" fill="#1D1D1D" d="M507.378,518.312c-13.794,11.167-31.535,21.676-50.585,29.561
			c-18.394,7.884-34.163,11.168-44.675,10.51h13.142c9.195-0.657,21.02-3.938,35.478-9.85c16.42-7.231,32.188-16.429,44.672-26.276
			c1.969-1.32,2.624-3.291,3.28-3.291c0-0.653,0.663-0.653,0.663-1.312v-0.655C508.033,517.653,507.378,517.653,507.378,518.312"/>
		<path display="inline" fill="#1D1D1D" d="M293.871,420.416L293.871,420.416v0.668v1.308v0.662v0.652c0,0.658,0,0.658,0.655,1.316
			v0.659c0,0.655,0.657,0.655,0.657,1.311v0.658c1.313,1.31,2.625,3.28,4.597,3.938c1.316,0,1.971-1.972,1.971-3.291
			c0,0,0.658-5.244-0.655-7.214c-1.971-0.668-3.289-1.974-4.601-3.943c-1.313-1.974-1.97-4.602-1.97-7.885
			c0-1.318,0.657-2.634,0.657-3.287v1.312l-0.657,4.601l-1.317,6.563C293.871,418.443,293.871,419.761,293.871,420.416"/>
		<path display="inline" fill="#407BA4" d="M541.538,508.455c-2.626-1.972-6.565-1.312-8.539,1.311
			c-11.825,17.082-26.933,30.89-44.674,41.39c-21.023,11.825-44.017,18.396-68.322,18.396h-0.659
			c-44.016,0-85.402-21.02-111.024-55.841h-0.654c0-0.662-0.659-0.662-0.659-0.662l-0.654-0.654c-0.663,0-0.663,0-1.317-0.65h-1.312
			h-0.658h-0.655h-1.313c-0.659,0-0.659,0-1.316,0.65h-0.655v0.654c-0.658,0-0.658,0.662-0.658,0.662l-0.66,0.654
			c0,0.659,0,0.659-0.658,1.314v1.318v0.655v24.963c0,3.285,2.63,6.567,6.572,6.567c3.943,0,6.569-2.63,6.569-6.567v-7.232
			c28.249,30.224,68.322,47.308,110.369,47.308h0.657c26.277,0,51.898-7.229,74.232-20.361
			c19.708-11.175,36.137-26.281,48.619-45.332C545.479,514.365,544.825,510.425,541.538,508.455"/>
		<path display="inline" fill="#D37D41" d="M413.434,287.717C413.434,287.717,413.434,287.06,413.434,287.717v-1.315
			c0-0.653,0-0.653-0.656-1.312c0-0.659,0-0.659-0.66-1.316l-0.656-0.654c0-0.661-0.658-0.661-1.312-0.661l-0.658-0.656
			L386.5,268.667c-3.287-1.977-6.571-0.657-8.541,2.624c-1.973,3.286-0.657,6.572,2.628,8.542l7.226,3.94
			c-15.767,3.286-30.221,9.201-44.672,17.083c-22.337,13.137-40.73,32.193-53.872,54.525
			c-26.277,44.017-27.593,97.231-5.255,143.214c1.313,1.98,3.284,3.289,5.915,3.289c0.655,0,1.97,0,2.625-0.65
			c3.286-1.323,4.598-5.262,2.63-8.545c-20.37-42.052-19.051-90.66,4.597-131.395c11.826-20.365,29.562-38.104,49.931-49.929
			c17.733-10.51,37.443-16.423,57.808-17.737c0.657,0,1.314,0,1.973-0.654c0.658-0.662,1.312-0.662,1.969-1.317l0.656-0.657
			l0.66-0.654v-0.657c0-0.657,0-0.657,0.656-1.314V287.717z"/>
		<path display="inline" fill="#E9B520" d="M577.672,476.921c-1.974-3.288-5.915-3.938-8.543-2.633l-5.905,3.29
			c13.135-40.078,8.534-84.753-13.145-121.535c-24.962-42.05-68.978-70.295-117.59-74.898c-3.287,0-6.571,1.975-6.571,5.915
			c0,3.286,1.968,6.569,5.911,6.569c44.672,3.943,84.748,29.563,107.745,68.324c22.331,38.759,24.302,86.714,5.906,127.458v0.655
			v1.307v1.316v1.315c0,0.66,0,0.66,0.658,1.306v0.662l0.657,0.652v0.66c0.659,0.663,1.314,0.663,1.972,1.311h0.66h0.654h1.315
			h1.312h0.66c0,0,0.654,0,0.654-0.647l21.679-12.487C578.33,483.488,578.982,479.552,577.672,476.921"/>
	</g>
	<g>
		<polygon display="inline" fill="#343434" points="423.295,249.262 420.936,257.281 420.936,489.969 423.295,492.324 
			531.307,428.479 		"/>
		<polygon display="inline" fill="#8C8C8C" points="423.296,249.262 315.285,428.479 423.296,492.325 423.296,379.385 		"/>
		<polygon display="inline" fill="#3C3C3B" points="423.295,512.775 421.966,514.396 421.966,597.284 423.295,601.168 
			531.371,448.962 		"/>
		<polygon display="inline" fill="#8C8C8C" points="423.296,601.167 423.296,512.774 315.285,448.961 		"/>
		<polygon display="inline" fill="#141414" points="423.295,492.324 531.305,428.479 423.295,379.385 		"/>
		<polygon display="inline" fill="#393939" points="315.286,428.479 423.295,492.324 423.295,379.385 		"/>
	</g>
</g>
<g id="Fiat">
	<g display="none">
		<path display="inline" fill="#0C3352" d="M333.991,445.972V362.42h23.417v124.172h-18.98l-65.989-82.663v82.663h-23.417V362.42
			h18.981L333.991,445.972z"/>
		<path display="inline" fill="#0C3352" d="M414.55,383.705h-39.382V362.42c35.833,0,66.166,0,102.179,0v21.285h-39.382v102.887
			H414.55V383.705z"/>
		<path display="inline" fill="#0C3352" d="M573.33,392.221c-4.614-7.627-17.738-13.483-29.979-13.483
			c-14.723,0-28.206,4.257-28.206,16.676c0,11.708,14.017,13.835,28.917,15.611c25.897,3.192,53.573,7.805,53.573,39.027
			c0,23.943-20.048,37.424-42.043,39.018v17.743h-22.528v-16.851c-19.869-1.775-38.321-10.82-46.655-30.338l20.929-8.871
			c4.791,11.357,20.58,18.635,35.302,18.635c15.968,0,30.69-5.501,30.69-19.336c0-11.713-14.723-15.967-31.223-17.925
			c-25.365-2.832-50.198-7.269-50.198-36.714c0-23.239,20.575-33.881,41.154-36.364v-15.432h22.528v15.432
			c15.078,2.305,28.914,7.984,36.896,24.3L573.33,392.221z"/>
	</g>
	<g display="none">
		<path display="inline" fill="#0C3352" d="M328.848,486.766v-50.202h-61.023v50.202h-23.417V362.598h23.417v52.328h61.023v-52.328
			h23.236v124.168H328.848z"/>
		<path display="inline" fill="#0C3352" d="M481.249,363.129l-55.171,59.427l59.785,62.616v1.42h-28.917L404.971,431.6v54.992
			h-23.416V362.42h23.416v52.506l47.183-52.506h29.095V363.129z"/>
		<path display="inline" fill="#0C3352" d="M577.942,392.221c-4.612-7.627-17.737-13.483-29.979-13.483
			c-14.723,0-28.202,4.257-28.202,16.676c0,11.708,14.013,13.835,28.913,15.611c25.898,3.192,53.572,7.805,53.572,39.027
			c0,23.943-20.046,37.424-42.042,39.018v17.743h-22.527v-16.851c-19.869-1.775-38.318-10.82-46.656-30.338l20.934-8.871
			c4.786,11.357,20.575,18.635,35.298,18.635c15.966,0,30.688-5.501,30.688-19.336c0-11.713-14.723-15.967-31.221-17.925
			c-25.366-2.832-50.203-7.269-50.203-36.714c0-23.239,20.579-33.881,41.159-36.364v-15.432h22.527v15.432
			c15.078,2.305,28.913,7.984,36.896,24.3L577.942,392.221z"/>
	</g>
	<g display="none">
		<path display="inline" fill="#0C3352" d="M346.141,471.516c-12.771,12.596-29.269,18.447-47.186,18.447
			c-46.12,0-65.634-31.748-65.812-64.037c-0.178-32.461,20.932-65.459,65.812-65.459c16.852,0,32.818,6.389,45.589,18.98
			l-15.61,15.08c-8.159-7.979-19.159-11.705-29.979-11.705c-29.979,0-42.928,22.352-42.751,43.104
			c0.178,20.578,12.062,42.041,42.751,42.041c10.82,0,23.061-4.434,31.222-12.596L346.141,471.516z"/>
		<path display="inline" fill="#0C3352" d="M449.402,446.504v-83.551h23.417v124.172h-18.98l-65.989-82.662v82.662h-23.417V362.953
			h18.98L449.402,446.504z"/>
		<path display="inline" fill="#0C3352" d="M513.106,449.52h27.497v-9.049h-27.497v-17.205h19.158l-39.383-59.246v-1.066h27.853
			l31.577,51.266l32.993-51.266h28.208v1.066l-40.804,59.246h18.63v17.205H564.02v9.049h27.319v16.852H564.02v20.754h-23.416
			v-20.754h-27.497V449.52z"/>
	</g>
	<g display="none">
		<path display="inline" fill="#0C3352" d="M357.494,471.516c-12.772,12.596-29.269,18.447-47.186,18.447
			c-46.12,0-65.634-31.748-65.812-64.037c-0.178-32.461,20.932-65.459,65.812-65.459c16.852,0,32.818,6.389,45.59,18.98
			l-15.611,15.08c-8.158-7.979-19.158-11.705-29.979-11.705c-29.979,0-42.928,22.352-42.75,43.104
			c0.177,20.578,12.061,42.041,42.75,42.041c10.82,0,23.061-4.434,31.222-12.596L357.494,471.516z"/>
		<path display="inline" fill="#0C3352" d="M460.225,487.305v-50.203h-61.023v50.203h-23.416V363.133h23.416v52.328h61.023v-52.328
			h23.235v124.172H460.225z"/>
		<path display="inline" fill="#0C3352" d="M512.932,487.125V363.133h89.228v22.527h-65.812v33.881h62.261v21.643h-62.261v45.941
			H512.932z"/>
	</g>
	<g display="none">
		<path display="inline" fill="#0C3352" d="M330.247,403.072l-31.355,41.807h-3.577l-30.669-41.946v70.003h-18.153v-96.27h20.904
			l30.117,41.396l30.117-41.396h20.771v96.27h-18.154V403.072z"/>
		<path display="inline" fill="#0C3352" d="M380.558,444.879c1.1,8.391,8.391,14.438,20.215,14.438
			c6.19,0,14.303-2.336,18.158-6.325l10.726,10.591c-7.152,7.425-18.843,11.002-29.156,11.002
			c-23.381,0-37.273-14.441-37.273-36.172c0-20.628,14.03-35.48,36.035-35.48c22.691,0,36.856,14.03,34.245,41.946H380.558z
			 M417.416,430.988c-1.102-8.803-7.979-13.203-17.604-13.203c-9.078,0-16.503,4.4-18.98,13.203H417.416z"/>
		<path display="inline" fill="#0C3352" d="M486.304,404.995h20.081v0.55l-22.281,32.868l23.65,33.972v0.412h-20.073l-14.719-22.693
			l-14.718,22.693h-20.072v-0.412l23.649-33.972l-22.281-32.868v-0.55h20.081l13.341,22.971L486.304,404.995z"/>
		<path display="inline" fill="#0C3352" d="M581.321,399.633c-3.578-5.913-13.756-10.452-23.242-10.452
			c-11.419,0-21.866,3.301-21.866,12.924c0,9.08,10.863,10.73,22.411,12.103c20.081,2.479,41.54,6.056,41.54,30.262
			c0,18.565-15.541,29.016-32.599,30.251v13.757h-17.466v-13.069c-15.403-1.372-29.706-8.389-36.169-23.515l16.226-6.878
			c3.717,8.801,15.958,14.441,27.367,14.441c12.38,0,23.798-4.264,23.798-14.987c0-9.08-11.418-12.381-24.204-13.893
			c-19.666-2.2-38.924-5.64-38.924-28.472c0-18.014,15.958-26.266,31.906-28.188v-11.963h17.466v11.963
			c11.694,1.784,22.42,6.185,28.605,18.843L581.321,399.633z"/>
	</g>
	<g display="none">
		<path display="inline" fill="#0C3352" d="M416.306,498.887h-32.149l-43.224-49.826h-28.532v49.826h-28.104V349.625
			c23.634,0,47.267,0.217,70.904,0.217c35.129,0.213,53.655,23.633,53.655,49.396c0,20.439-9.37,41.094-37.689,46.842l45.139,50.891
			V498.887z M312.401,376.031v47.693h42.8c17.885,0,25.548-11.924,25.548-23.85c0-11.922-7.88-23.844-25.548-23.844H312.401z"/>
		<path display="inline" fill="#0C3352" d="M533.188,385.611c-5.535-9.156-21.293-16.182-35.986-16.182
			c-17.667,0-33.851,5.111-33.851,20.016c0,14.051,16.819,16.607,34.705,18.734c31.087,3.832,64.302,9.369,64.302,46.844
			c0,28.746-24.058,44.928-50.463,46.842v21.295h-27.042v-20.229c-23.845-2.131-45.988-12.99-55.999-36.412l25.128-10.646
			c5.748,13.627,24.699,22.359,42.371,22.359c19.163,0,36.834-6.602,36.834-23.209c0-14.051-17.672-19.162-37.475-21.504
			c-30.446-3.406-60.257-8.729-60.257-44.074c0-27.895,24.699-40.67,49.397-43.654v-18.522h27.042v18.522
			c18.102,2.771,34.709,9.586,44.29,29.174L533.188,385.611z"/>
	</g>
	<g display="none">
		<path display="inline" fill="#0C3352" d="M405.875,470.778h-77.931l-12.774,28.107h-30.448l66.857-149.044h30.661L449.1,498.886
			h-30.663L405.875,470.778z M366.912,381.142l-27.682,63.447h55.362L366.912,381.142z"/>
		<path display="inline" fill="#0C3352" d="M484.004,393.914v54.934c0,15.972,8.732,28.108,25.34,28.108
			c15.965,0,26.824-13.415,26.824-29.387v-53.655h25.765v105.185h-23.209l-1.701-14.265c-10.859,10.647-20.866,15.754-35.559,15.754
			c-25.123,0-43.437-18.951-43.437-51.527v-55.146H484.004z"/>
	</g>
	<g display="none">
		<path display="inline" fill="#0C3352" d="M402.363,440.332h-77.931l-12.773,28.104h-30.449l66.857-149.04h30.661l66.86,149.04
			h-30.663L402.363,440.332z M363.399,350.694l-27.681,63.448h55.361L363.399,350.694z"/>
		<path display="inline" fill="#0C3352" d="M546.283,352.185l19.163,14.477l-13.198,15.333c9.152,10.86,12.137,20.441,12.137,31.301
			c0,18.729-8.732,31.506-25.977,39.382c22.355,8.091,25.977,23.849,25.977,34.071c0,29.81-29.173,44.286-57.276,44.286
			c-36.411,0-57.705-18.313-56.639-48.332h25.764c-0.854,14.693,14.48,22.992,30.875,23.209c14.476,0,30.235-6.177,30.235-19.163
			c0-12.561-10.224-20.653-29.811-20.653c-34.704,0-57.488-20.011-57.488-52.8c0-35.346,28.103-53.236,57.488-53.236
			c8.304,0,19.805,1.708,27.042,6.603L546.283,352.185z M476.021,413.295c0,18.305,14.476,28.951,31.512,28.951
			c17.031,0,30.875-10.855,30.875-28.951c0-17.89-13.844-29.174-30.875-29.174C490.497,384.121,476.021,393.703,476.021,413.295z"/>
	</g>
	<g display="none">
		<path display="inline" fill="#0C3352" d="M385.756,385.824c-5.111-8.518-19.165-16.607-35.348-16.607
			c-20.864,0-30.874,8.729-30.874,19.799c0,12.992,15.332,16.611,33.217,18.738c31.085,3.834,60.042,11.924,60.042,47.482
			c0,33.215-29.381,47.482-62.598,47.482c-30.449,0-53.87-9.369-64.941-36.623l23.421-12.137
			c6.601,16.396,23.847,23.633,41.946,23.633c17.673,0,34.28-6.172,34.28-22.355c0-14.051-14.693-19.803-34.495-21.932
			c-30.446-3.619-58.553-11.713-58.553-45.137c0-30.664,30.235-43.225,57.702-43.438c23.208,0,47.271,6.602,58.554,29.598
			L385.756,385.824z"/>
		<path display="inline" fill="#0C3352" d="M532.231,385.611c-5.535-9.156-21.293-16.182-35.986-16.182
			c-17.668,0-33.851,5.111-33.851,20.016c0,14.051,16.819,16.607,34.704,18.734c31.088,3.832,64.302,9.369,64.302,46.844
			c0,28.746-24.057,44.928-50.462,46.842v21.295h-27.042v-20.229c-23.845-2.131-45.988-12.99-55.999-36.412l25.128-10.646
			c5.748,13.627,24.698,22.359,42.371,22.359c19.163,0,36.834-6.602,36.834-23.209c0-14.051-17.672-19.162-37.477-21.504
			c-30.445-3.406-60.255-8.729-60.255-44.074c0-27.895,24.699-40.67,49.397-43.654v-18.522h27.042v18.522
			c18.102,2.771,34.708,9.586,44.29,29.174L532.231,385.611z"/>
	</g>
	<g display="none">
		<path display="inline" fill="#0C3352" d="M418.651,480.146c-15.329,15.117-35.134,22.145-56.639,22.145
			c-55.36,0-78.781-38.109-78.994-76.863c-0.213-38.965,25.125-78.57,78.994-78.57c20.229,0,39.391,7.666,54.72,22.783
			l-18.733,18.098c-9.799-9.58-22.997-14.051-35.987-14.051c-35.982,0-51.525,26.83-51.313,51.74
			c0.212,24.699,14.478,50.463,51.313,50.463c12.99,0,27.683-5.324,37.477-15.117L418.651,480.146z"/>
		<path display="inline" fill="#0C3352" d="M534.47,385.611c-5.535-9.156-21.293-16.182-35.987-16.182
			c-17.667,0-33.851,5.111-33.851,20.016c0,14.051,16.819,16.607,34.705,18.734c31.087,3.832,64.3,9.369,64.3,46.844
			c0,28.746-24.057,44.928-50.461,46.842v21.295h-27.042v-20.229c-23.845-2.131-45.989-12.99-55.999-36.412l25.128-10.646
			c5.748,13.627,24.698,22.359,42.372,22.359c19.163,0,36.834-6.602,36.834-23.209c0-14.051-17.672-19.162-37.477-21.504
			c-30.445-3.406-60.256-8.729-60.256-44.074c0-27.895,24.699-40.67,49.397-43.654v-18.522h27.042v18.522
			c18.101,2.771,34.708,9.586,44.289,29.174L534.47,385.611z"/>
	</g>
	<g display="none">
		<path display="inline" fill="#0C3352" d="M456.685,391.395c-3.976,30.606-28.155,49.274-62.432,51.112
			c22.036,22.953,47.437,53.253,71.923,83.55h-40.708c-20.503-24.787-43.764-52.641-70.084-80.794v-25.709h18.058
			c29.075,0,44.376-11.328,47.437-28.159h-65.495v-18.669h64.271c-4.591-13.77-18.363-21.729-41.929-21.729h-22.342v-26.624h135.582
			v18.668h-48.969c7.65,7.039,12.852,16.833,14.688,29.685h34.587v18.669H456.685z"/>
	</g>
	<g display="none">
		<path display="inline" fill="#0C3352" d="M402.319,419.111h58.758v31.508h-52.226c1.136,13.055-2.841,32.645-18.452,40.023
			h111.273v35.48c-63.587,0-93.106,0-156.689,0v-35.48c18.733-4.543,26.682-20.439,26.115-40.023h-26.115v-31.508h20.154
			c-2.273-8.801-5.111-19.588-5.111-28.67c0-41.727,27.537-66.135,72.385-66.135c39.737,0,66.42,17.596,68.403,59.889h-34.34
			c-1.706-18.449-12.778-26.965-33.776-26.965c-26.12,0-34.917,15.045-34.917,32.643
			C397.781,399.811,400.049,409.461,402.319,419.111z"/>
	</g>
	<g display="none">
		<path display="inline" fill="#0C3352" d="M359.177,464.384h43.995v-14.475h-43.995v-27.532h30.654l-63.016-94.805v-1.705h44.567
			l50.524,82.034l52.797-82.034h45.135v1.705l-65.286,94.805h29.801v27.532h-43.713v14.475h43.713v26.969h-43.713v33.21h-37.469
			v-33.21h-43.995V464.384z"/>
	</g>
	<g display="none">
		<path display="inline" fill="#0C3352" d="M482.071,523.996c-10.501,3.123-22.992,4.825-34.35,4.825
			c-58.187,0-88.273-28.951-98.491-68.408h-19.301v-27.532h15.325v-6.527c0-2.841,0-5.679,0.285-8.517h-15.61v-27.816h20.15
			c11.357-38.888,42.012-68.412,97.642-68.412c10.508,0,20.723,1.421,30.659,4.544l-11.921,33.496
			c-6.246-1.706-12.492-2.275-18.738-2.275c-30.087,0-49.384,14.195-59.603,32.647h64.714l-6.246,27.816h-66.983
			c-0.286,2.838-0.286,5.676-0.286,8.517c0,2.27,0,4.54,0.286,6.527h62.443l-5.674,27.532h-49.106
			c9.65,19.02,28.67,33.213,60.455,33.213c7.667,0,15.896-1.419,23.849-4.257L482.071,523.996z"/>
	</g>
	<g>
		<path fill="#0C3352" d="M473.427,372.417c-7.381-12.206-28.385-21.571-47.972-21.571c-23.56,0-45.131,6.813-45.131,26.682
			c0,18.734,22.425,22.141,46.265,24.98c41.445,5.106,85.726,12.489,85.726,62.445c0,38.317-32.075,59.895-67.273,62.443v28.389
			h-36.047v-26.969c-31.793-2.832-61.313-17.31-74.654-48.538l33.492-14.192c7.667,18.167,32.928,29.802,56.487,29.802
			c25.547,0,49.107-8.793,49.107-30.935c0-18.73-23.56-25.549-49.957-28.668c-40.59-4.547-80.332-11.639-80.332-58.758
			c0-37.186,32.929-54.217,65.856-58.188v-24.694h36.047v24.694c24.126,3.69,46.266,12.772,59.039,38.889L473.427,372.417z"/>
	</g>
	<g display="none">
		<g display="inline">
			<path fill="#0C3352" stroke="#0C3352" stroke-width="8.871" stroke-miterlimit="10" d="M553.448,452.933h-35.312l-20.41,73.367
				h-25.651l-20.405-73.367h-56.684L374.294,526.3h-27.302l-19.583-73.367h-34.202v-18.755h29.377l-5.38-20.271h-23.997v-18.618
				h19.033l-19.033-71.158h27.445l16.407,71.158h50.203l20.406-71.158h32.136l20.137,71.158h48.813l17.525-71.158h27.168
				l-19.864,71.158h19.864v18.618h-24.69l-5.648,20.271h30.339V452.933z M435.672,395.288
				c-7.269-26.384-11.448-41.926-12.557-46.616c-1.564,8.095-5.787,23.629-12.684,46.616H435.672z M504.484,413.906h-38.897
				l5.665,20.271h28.13L504.484,413.906z M446.566,434.178l-5.656-20.271h-35.307l-5.514,20.271H446.566z M382.295,413.906h-40.678
				l4.682,20.271h30.343L382.295,413.906z M495.249,452.933h-19.587c4.6,21.147,7.536,36.182,8.828,45.096L495.249,452.933z
				 M371.543,452.933h-21.246c4.969,21.147,8.282,36.182,9.932,45.096C363.448,484.327,367.217,469.297,371.543,452.933z"/>
		</g>
	</g>
	<g display="none">
		<g display="inline">
			<path fill="#0C3352" stroke="#0C3352" stroke-width="4.4355" stroke-miterlimit="10" d="M309.87,532.152v-7.94l28.454-7.948
				V409.019h-54.19v-15.887h54.19v-21.386h-54.19v-15.889h54.19V334.16l-28.454-7.938v-7.944h125.985
				c18.066,0,34.314,3.159,48.773,9.474c14.454,6.311,24.715,15.681,30.818,28.106h47.075v15.889h-42.341
				c0.688,3.77,1.022,7.333,1.022,10.695c-0.226,3.361-0.677,6.922-1.355,10.69h42.674v15.887H515.11
				c-5.87,12.428-16.027,21.691-30.481,27.804c-14.459,6.113-30.707,9.375-48.773,9.777h-65.023v69.053l28.451,8.56v7.94H309.87z
				 M370.832,430.71h65.023c9.03,0,17.841-1.831,26.417-5.495c8.582-3.665,14.624-9.062,18.124-16.196H370.832V430.71z
				 M370.832,393.132h116.334c1.019-4.479,1.525-8.045,1.525-10.69c0-2.647-0.507-6.213-1.525-10.695H370.832V393.132z
				 M370.832,355.857h109.387c-3.383-6.111-9.364-11.228-17.946-15.354c-8.576-4.119-17.387-6.233-26.417-6.343h-65.023V355.857z"/>
		</g>
	</g>
</g>
</svg>
