
<svg xmlns="http://www.w3.org/2000/svg" xmlns:xlink="http://www.w3.org/1999/xlink" width="250px" height="250px" viewBox="0 0 250 250" version="1.1">
<g id="surface1">
<path style=" stroke:none;fill-rule:nonzero;fill:rgb(100%,85.09804%,51.372552%);fill-opacity:1;" d="M 222.222656 0 L 69.445312 0 C 54.105469 0 41.667969 12.4375 41.667969 27.777344 L 41.667969 194.445312 L 27.777344 194.445312 C 12.4375 194.445312 0 206.882812 0 222.222656 C 0 237.5625 12.4375 250 27.777344 250 L 194.445312 250 C 209.785156 250 222.222656 237.5625 222.222656 222.222656 L 222.222656 55.554688 C 237.5625 55.554688 250 43.117188 250 27.777344 C 250 12.4375 237.5625 0 222.222656 0 Z M 222.222656 0 "/>
<path style=" stroke:none;fill-rule:nonzero;fill:rgb(89.019608%,62.352943%,23.921569%);fill-opacity:1;" d="M 55.554688 69.445312 L 222.222656 69.445312 L 222.222656 55.554688 L 69.445312 55.554688 L 55.554688 48.609375 Z M 55.554688 69.445312 "/>
<path style=" stroke:none;fill-rule:nonzero;fill:rgb(100%,90.980393%,71.372551%);fill-opacity:1;" d="M 69.445312 0 C 54.105469 0 41.667969 12.4375 41.667969 27.777344 L 41.667969 198.296875 C 37.570312 195.910156 32.859375 194.445312 27.777344 194.445312 C 12.4375 194.445312 0 206.882812 0 222.222656 C 0 237.5625 12.4375 250 27.777344 250 C 43.117188 250 55.554688 237.5625 55.554688 222.222656 L 55.554688 51.703125 C 59.652344 54.089844 64.359375 55.554688 69.445312 55.554688 C 84.785156 55.554688 97.222656 43.117188 97.222656 27.777344 C 97.222656 12.4375 84.785156 0 69.445312 0 Z M 69.445312 0 "/>
<path style=" stroke:none;fill-rule:nonzero;fill:rgb(75.686276%,41.176471%,30.980393%);fill-opacity:1;" d="M 83.332031 27.777344 C 83.332031 35.445312 77.109375 41.667969 69.445312 41.667969 C 61.777344 41.667969 55.554688 35.445312 55.554688 27.777344 C 55.554688 20.109375 61.777344 13.890625 69.445312 13.890625 C 77.109375 13.890625 83.332031 20.109375 83.332031 27.777344 M 41.667969 222.222656 C 41.667969 229.890625 35.445312 236.109375 27.777344 236.109375 C 20.109375 236.109375 13.890625 229.890625 13.890625 222.222656 C 13.890625 214.554688 20.109375 208.332031 27.777344 208.332031 C 35.445312 208.332031 41.667969 214.554688 41.667969 222.222656 M 208.332031 104.167969 C 208.332031 108 205.230469 111.109375 201.390625 111.109375 L 76.390625 111.109375 C 72.554688 111.109375 69.445312 108 69.445312 104.167969 C 69.445312 100.332031 72.554688 97.222656 76.390625 97.222656 L 201.390625 97.222656 C 205.230469 97.222656 208.332031 100.332031 208.332031 104.167969 M 208.332031 131.945312 C 208.332031 135.785156 205.230469 138.890625 201.390625 138.890625 L 76.390625 138.890625 C 72.554688 138.890625 69.445312 135.785156 69.445312 131.945312 C 69.445312 128.105469 72.554688 125 76.390625 125 L 201.390625 125 C 205.230469 125 208.332031 128.105469 208.332031 131.945312 M 208.332031 159.722656 C 208.332031 163.5625 205.230469 166.667969 201.390625 166.667969 L 76.390625 166.667969 C 72.554688 166.667969 69.445312 163.5625 69.445312 159.722656 C 69.445312 155.882812 72.554688 152.777344 76.390625 152.777344 L 201.390625 152.777344 C 205.230469 152.777344 208.332031 155.882812 208.332031 159.722656 M 208.332031 187.5 C 208.332031 191.339844 205.230469 194.445312 201.390625 194.445312 L 76.390625 194.445312 C 72.554688 194.445312 69.445312 191.339844 69.445312 187.5 C 69.445312 183.660156 72.554688 180.554688 76.390625 180.554688 L 201.390625 180.554688 C 205.230469 180.554688 208.332031 183.660156 208.332031 187.5 "/>
</g>
</svg>
