<svg height="250" viewBox="0 0 250 250" width="250" xmlns="http://www.w3.org/2000/svg" xmlns:xlink="http://www.w3.org/1999/xlink"><linearGradient id="a"><stop offset="0" stop-color="#17e2cf"/><stop offset="1" stop-color="#5181fd"/></linearGradient><linearGradient id="b" gradientUnits="userSpaceOnUse" x1="-11.19117983932" x2="133.83402268462" xlink:href="#a" y1="78.13019986078" y2="264.060746989"/><linearGradient id="c" gradientUnits="userSpaceOnUse" x1="-33.6466992355" x2="111.47255883798" xlink:href="#a" y1="90.40694213062" y2="276.23505870984"/><g fill-rule="evenodd"><path d="m247.035156 112.957031-40.488281-69.910156c-.332031-.964844-.9375-1.8125-1.679687-2.59375-1.933594-2.761719-5.230469-4.425781-8.828126-4.425781-3.621093 0-6.574218 1.664062-8.859374 4.355468l-1.628907 2.761719-43.519531 75.527344-1.980469 3.476563c-.21875 1.132812-.710937 2.386718-.710937 3.746093 0 1.378907.492187 2.546875.710937 3.839844l1.980469 3.347656 24.867188 43.21875c1.253906 1.8125 1.566406 3.722657 1.566406 5.527344 0 3.929687-1.921875 7.714844-5.539063 9.730469-5.28125 3.136718-12.261719 1.28125-15.21875-4.0625l-12.757812-21.648438-.902344-1.769531c-1.972656-2.742187-5.34375-4.597656-9.082031-4.597656-3.65625 0-7.078125 1.855469-9.003906 4.597656l-.917969 1.769531-31.703125 54.527344-.113282.402344c-.957031 1.746094-1.765624 3.753906-1.765624 5.957031 0 6.15625 5.203124 11.175781 11.324218 11.175781h81.929688c8.03125 0 18.339844-5.816406 22.226562-12.894531l50.09375-86.179687c3.953125-7.109376 3.953125-18.785157 0-25.878907zm0 0" fill="url(#b)"/><path d="m109.859375 129.738281c.300781-1.292969.789063-2.460937.789063-3.84375 0-1.386719-.488282-2.609375-.789063-3.742187l-1.886719-3.472656-24.886718-43.160157c-1.257813-1.820312-1.628907-3.769531-1.628907-5.675781 0-3.832031 1.980469-7.652344 5.535157-9.710938 5.359374-3.066406 12.195312-1.183593 15.300781 4.183594l12.75 21.570313.917969 1.800781c1.925781 2.855469 5.347656 4.769531 9.003906 4.769531 3.738281 0 7.105468-1.914062 9.078125-4.769531l.90625-1.78125 31.648437-54.5625.136719-.25c.996094-1.78125 1.746094-3.886719 1.746094-6.15625 0-6.167969-5.121094-11.046875-11.003907-11.046875h-82.269531c-7.996093 0-18.300781 5.730469-22.183593 12.859375l-49.976563 86.207031c-4.0625 7.09375-4.0625 18.769531 0 25.878907l40.414063 69.980468c.4375.871094.921874 1.792969 1.558593 2.574219 2.03125 2.664063 5.34375 4.429687 8.933594 4.429687 3.523437 0 6.609375-1.6875 8.832031-4.386718l1.671875-2.773438 43.515625-75.578125zm0 0" fill="url(#c)"/></g></svg>