<?xml version="1.0" standalone="no"?>
<!DOCTYPE svg PUBLIC "-//W3C//DTD SVG 20010904//EN"
 "http://www.w3.org/TR/2001/REC-SVG-20010904/DTD/svg10.dtd">
<svg version="1.0" xmlns="http://www.w3.org/2000/svg"
 width="200.000000pt" height="200.000000pt" viewBox="0 0 200.000000 200.000000"
 preserveAspectRatio="xMidYMid meet">

<g transform="translate(0.000000,200.000000) scale(0.100000,-0.100000)"
fill="#000000" stroke="none">
<path d="M895 1989 c-230 -25 -458 -138 -614 -305 -80 -85 -112 -134 -118
-181 -3 -21 -11 -45 -19 -54 -8 -9 -12 -18 -9 -21 3 -3 -1 -25 -8 -49 -26 -82
-40 -153 -41 -206 0 -29 -3 -53 -6 -53 -3 0 -2 -64 1 -143 5 -103 13 -163 29
-217 25 -84 92 -234 109 -244 6 -4 11 -15 11 -26 0 -10 7 -20 15 -24 8 -3 14
-9 13 -13 -4 -13 56 -94 108 -147 126 -126 252 -205 419 -262 90 -30 111 -34
211 -34 286 0 527 101 720 301 163 171 248 353 274 590 39 352 -125 709 -421
916 -192 134 -439 197 -674 172z m307 -94 c263 -54 499 -240 627 -492 108
-215 120 -501 30 -734 -83 -215 -283 -420 -498 -508 -133 -55 -193 -66 -361
-65 -138 1 -165 4 -243 27 -328 100 -563 350 -644 685 -24 102 -22 294 5 405
91 371 404 650 781 697 80 10 213 4 303 -15z"/>
<path d="M885 1734 c-148 -35 -253 -84 -344 -158 -100 -82 -183 -200 -225
-321 -35 -101 -60 -295 -36 -280 6 4 8 10 5 14 -2 5 0 47 7 95 l11 86 40 -40
c35 -35 38 -42 26 -58 -11 -14 61 46 81 67 3 3 42 40 85 81 44 41 2 -4 -94
-101 l-173 -177 11 -67 c24 -138 90 -269 188 -376 30 -32 58 -59 62 -59 3 0 6
141 6 313 0 354 7 400 74 505 138 213 395 282 623 166 69 -35 168 -135 201
-205 44 -88 62 -197 48 -283 -14 -85 -66 -196 -118 -250 -48 -51 -140 -110
-206 -133 -76 -26 -234 -24 -304 4 l-53 21 0 -143 0 -143 48 -11 c77 -19 293
-8 377 19 286 91 481 325 517 621 37 296 -120 596 -381 733 -119 62 -182 78
-326 82 -71 1 -139 1 -150 -2z m-568 -546 c-3 -8 -6 -5 -6 6 -1 11 2 17 5 13
3 -3 4 -12 1 -19z m891 -670 c-52 -51 -93 -92 -90 -91 3 2 15 -9 28 -22 13
-14 28 -25 33 -25 6 0 15 -9 21 -19 5 -11 20 -23 32 -27 18 -5 19 -8 5 -15
-32 -19 -167 -40 -232 -37 l-67 3 177 163 c97 89 179 162 182 162 4 0 -37 -42
-89 -92z"/>
<path d="M818 1268 l-27 -28 28 -27 27 -28 32 33 c18 17 28 32 22 32 -6 0 -21
10 -33 23 l-22 22 -27 -27z"/>
<path d="M1014 1200 l-49 -91 -94 -51 c-107 -58 -108 -53 9 -113 77 -39 84
-46 140 -149 50 -91 42 -94 113 33 41 72 45 76 129 120 48 25 88 49 88 53 0 4
-38 27 -83 52 -97 53 -101 57 -151 151 -21 39 -41 74 -46 78 -4 5 -30 -32 -56
-83z"/>
<path d="M835 810 c-4 -11 -15 -25 -26 -31 -19 -10 -18 -11 12 -41 25 -25 33
-29 40 -17 5 8 9 17 9 20 0 3 8 10 19 15 16 8 15 12 -15 41 -30 30 -33 31 -39
13z"/>
</g>
</svg>
