<?xml version="1.0" encoding="utf-8"?>
<!-- Generator: Adobe Illustrator 24.3.0, SVG Export Plug-In . SVG Version: 6.00 Build 0)  -->
<svg version="1.1" id="레이어_1" xmlns="http://www.w3.org/2000/svg" xmlns:xlink="http://www.w3.org/1999/xlink" x="0px"
	 y="0px" viewBox="0 0 512 512" style="enable-background:new 0 0 512 512;" xml:space="preserve">
<style type="text/css">
	.st0{fill:#666666;}
	.st1{fill:#FFFFFF;}
</style>
<rect x="0.2" y="0.5" class="st0" width="512" height="512"/>
<g>
	<g>
		<path class="st1" d="M150,175.7c-4.1-2.5-7.6-5.6-10.6-9v212.7c0,20.3,16.5,36.8,36.8,36.8s36.8-16.5,36.8-36.8V215.1L150,175.7z"
			/>
		<path class="st1" d="M403.9,237.1c-10.8-17.3-33.5-22.5-50.8-11.7l-127.6,79.7v74.3c0,4.8-0.7,9.4-2,13.8l168.6-105.4
			C409.5,277.1,414.7,254.4,403.9,237.1z"/>
		<path class="st1" d="M156.7,165.1l134.7,84.2l55.2-34.5c5.5-3.4,11.5-5.7,17.8-6.8L195.7,102.6c-17.3-10.8-40-5.5-50.8,11.7
			C134.2,131.6,139.4,154.3,156.7,165.1z"/>
	</g>
</g>
</svg>
