<svg height="250" viewBox="0 0 250 250" width="250" xmlns="http://www.w3.org/2000/svg"><path d="m250 125c0 69.035156-55.964844 125-125 125s-125-55.964844-125-125 55.964844-125 125-125 125 55.964844 125 125" fill="#00bfff" fill-rule="evenodd"/><g fill="#fff"><path d="m77.085938 154.136719h-.585938v24.308593h-13.925781v-82.3125h13.632812v3.785157h.527344c4.757813-4.484375 10.816406-4.605469 14.207031-4.605469 14.234375 0 23.585938 13.367188 23.585938 31.222656v2.316406c0 18.582032-10.816406 29.65625-23.824219 29.65625-6.089844 0-10.613281-1.371093-13.617187-4.371093zm24.507812-24.191407v-4.054687c0-11.625-4.488281-19.417969-12.519531-19.417969-8.671875 0-13.308594 9.050782-13.308594 19.402344v4.027344c0 9.886718 4.578125 17.445312 13.546875 17.445312 7.050781 0 12.28125-5.425781 12.28125-17.402344zm0 0"/><path d="m121.488281 71.441406h13.925781v86.28125h-13.925781zm0 0"/><path d="m174.933594 109.097656c-7.851563 0-15.636719 6.128906-15.636719 13.875v34.796875h-13.929687v-61.695312h12.894531v3.789062h.527343c3.136719-3.242187 10.800782-4.765625 17.097657-4.6875.625.007813.113281.015625.714843.015625l.066407 13.882813zm0 0"/><path d="m169.058594 142.941406h13.929687v14.773438h-13.929687zm0 0"/></g></svg>