<svg height="250" viewBox="0 0 250 250" width="250" xmlns="http://www.w3.org/2000/svg"><g fill="#213654"><path d="m154.160156 109.464844c0 .105468-.085937.195312-.195312.195312-.105469 0-.191406-.089844-.191406-.195312 0-.105469.085937-.191406.191406-.191406.109375 0 .195312.085937.195312.191406zm0 0"/><path d="m27.261719 68.847656v112.207032l97.175781 56.105468 97.175781-56.105468v-112.207032l-97.175781-56.105468zm80.972656 28.722656c-.054687 0-5.613281-.015624-8.0625.261719-2.960937.332031-7.21875 1.46875-9.476563 3.582031-2.394531 2.246094-2.617187 5-2.074218 12.148438.5 6.574219.3125 9.328125.273437 9.789062.007813.679688-.058593 5.804688-3.433593 9.035157-3.507813 3.359375-9.171876 3.398437-9.410157 3.398437h-3.464843v-2.082031h3.464843c.046875 0 5.074219-.046875 7.96875-2.820313 2.882813-2.761718 2.792969-7.496093 2.792969-7.542968l-.003906-.066406.007812-.070313c.003906-.023437.25-2.613281-.273437-9.484375-.542969-7.148438-.453125-10.84375 2.730469-13.824219 3.390624-3.175781 9.480468-4 10.667968-4.136719 2.566406-.285156 8.0625-.269531 8.296875-.269531zm-1.492187-13.234374c.179687 1.222656.910156 2.3125 2.171874 3.234374 4.308594 3.144532 8.175782-1.933593 8.339844-2.148437l7.355469-10.460937c.183594-.234376 3.660156-4.511719 8.125-4.367188 4.3125.148438 8.410156 3.71875 8.582031 3.871094l-1.375 1.5625c-.039062-.03125-3.71875-3.230469-7.277344-3.351563-3.40625-.097656-6.359374 3.5-6.390624 3.535157l-7.332032 10.429687c-1.285156 1.722656-3.988281 4.042969-7.136718 4.042969-1.320313 0-2.714844-.40625-4.117188-1.429688-1.742188-1.269531-2.75-2.832031-3.007812-4.636718-.4375-3.109376 1.578124-5.757813 1.664062-5.867188l1.648438 1.273438c-.015626.019531-1.570313 2.085937-1.25 4.3125zm42.167968 99.257812-.1875.097656c-.265625.109375-6.636718 2.84375-4.96875 12.351563l-2.054687.359375c-1.832031-10.46875 5.117187-14.117188 6.128906-14.59375 1.554687-1.039063 5.359375-4.15625 5.359375-6.796875 0-3.523438-3.601562-7.558594-4.957031-9.074219-.15625-.175781-.285157-.324219-.382813-.4375-.152344-.175781-.335937-.371094-.539062-.589844-1.128906-1.214844-3.023438-3.242187-3.769532-6.488281-1.078124-4.699219 6.425782-9.652344 7.28125-10.203125l1.125 1.753906c-1.855468 1.191406-7.011718 5.210938-6.375 7.984375.621094 2.699219 2.148438 4.335938 3.265626 5.535157.222656.238281.425781.457031.59375.652343.089843.105469.210937.242188.355468.40625 1.5 1.679688 5.488282 6.144531 5.488282 10.460938 0 4.273437-5.710938 8.152343-6.363282 8.582031zm-12.039062-121.023438c11.667968-8.011718 22.6875-.964843 22.800781-.890624.292969.171874 8.089844 4.902343 8.894531 12.484374.675782 6.351563-2.683594 11.070313-4.15625 12.804688.066406.101562.121094.214844.148438.339844l3.382812 15.351562c.039063.175782.03125.359375-.023437.53125l-.40625 1.316406c-.082031.265626-.265625.488282-.511719.617188l-1.238281.644531.128906.902344c.589844.875 3.015625 4.507813 5.328125 8.285156 5.613281 9.160157 5.148438 10.210938 4.84375 10.90625-.761719 1.730469-5.628906 2.867188-9.859375 3.542969l1.875.960938c.054687.03125.109375.066406.160156.105468.265625.207032 6.457031 5.085938 6.960938 11.222656.507812 6.167969-3.914063 10.523438-4.101563 10.707032-2.351562 2.574218-8.835937 9.964844-10.054687 12.667968-1.300781 2.882813.785156 6.292969.808593 6.328126l-1.765624 1.105468c-.113282-.175781-2.707032-4.375-.941407-8.289062 1.605469-3.5625 10.101563-12.867188 10.460938-13.261719.082031-.082031 3.945312-3.917969 3.515625-9.085937-.402344-4.902344-5.433594-9.15625-6.089844-9.695313l-3.855469-1.976563c-2.578125 4.214844-7.78125 8.859376-18.222656 8.972657-.125.003906-.253906.003906-.378906.003906-3.769531 0-6.816407-.636719-9.296875-1.640625-2.246094 1.734375-5.363282 4.703125-4.859375 6.898438.621093 2.695312 2.148437 4.335937 3.265625 5.53125.222656.242187.425781.457031.59375.65625.09375.105468.214844.242187.359375.40625 1.5 1.679687 5.484375 6.144531 5.484375 10.460937 0 4.269531-5.710938 8.152344-6.363282 8.582031l-.1875.097656c-.265624.109376-6.636718 2.839844-4.96875 12.351563l-2.050781.359375c-1.835937-10.46875 5.113281-14.121094 6.128907-14.59375 1.550781-1.039062 5.355468-4.160156 5.355468-6.796875 0-3.523437-3.597656-7.554687-4.953125-9.074219-.15625-.175781-.289062-.324218-.386719-.4375-.152343-.179687-.335937-.375-.535156-.589844-1.132812-1.214843-3.027344-3.246093-3.773437-6.488281-.722657-3.144531 2.390625-6.394531 4.792969-8.371093-7.902344-4.46875-8.507813-13.035157-8.515626-13.152344l2.082032-.117188c.027344.429688.59375 8.195313 8.242187 11.898438.429688.230468.574219.332031.804688.375l.539062.199218c2.28125.867188 5.097657 1.398438 8.597657 1.359376 10.125-.113282 14.773437-4.707032 16.898437-8.578126.035156-.113281.089844-.210937.160156-.304687 1.339844-2.574219 1.578125-4.761719 1.597657-4.980469l2.074218.183594c-.003906.050781-.1875 1.816406-1.144531 4.144531 4.742187-.695312 8.863281-1.75 9.597656-2.492187-.136719-1.757813-5.273437-10.308594-10.082031-17.417969-.089844-.128906-.148438-.277344-.167969-.433594l-.273437-1.871093c-.0625-.4375.160156-.867188.550781-1.070313l1.507813-.785156.199218-.636719-3.195312-14.492188c-2.238282-.648437-10.84375-2.867187-19.21875-1.347656-9.972656 1.804688-20.710938 5.050782-22.0625 20.707032-.003906.277343-.039063.453124-.042969.484374-.109375.539063-.621094.902344-1.164063.832032-.546874-.074219-.941406-.5625-.898437-1.113282.011719-.136718.023437-.269531.035156-.40625-.011719-.605468-.292969-2.015624-2.460937-3.074218-2.691406-1.316406-4.972656 1.886718-5.066406 2.023437-.171876.253907-4.0625 6.324219 6.582031 14.316407.699219-.523438 1.238281-.875 1.433593-1l1.121094 1.753906c-1.855468 1.191406-7.011718 5.210937-6.375 7.984375.617188 2.699219 2.148438 4.335937 3.265625 5.53125.222657.242187.425781.460937.59375.65625.089844.105469.214844.242187.359375.40625 1.5 1.679687 5.484375 6.144531 5.484375 10.460937 0 4.273438-5.710937 8.152344-6.363281 8.582032l-.1875.097656c-.265625.109375-6.636719 2.839844-4.96875 12.351562l-2.054688.359375c-1.832031-10.46875 5.117188-14.121093 6.132813-14.59375 1.550781-1.039062 5.355469-4.160156 5.355469-6.796875 0-3.519531-3.597656-7.554687-4.953125-9.074218-.15625-.175782-.289063-.324219-.386719-.4375-.152344-.175782-.335938-.371094-.535156-.589844-1.132813-1.210938-3.027344-3.242188-3.773438-6.488282-.664062-2.878906 1.898438-5.855468 4.179688-7.851562-11.800782-9.113281-6.847656-16.535156-6.621094-16.855469 1.148438-1.671875 4.242188-4.398437 7.691406-2.707031.867188.421875 1.527344.902344 2.035156 1.402344 2.589844-13.371094 12.640626-17.085938 23.273438-19.011719 8.0625-1.460937 16.082031.285156 19.320312 1.15625.644532-.679687 4.789063-5.339844 4.113282-11.722656-.699219-6.539063-7.859375-10.894531-7.933594-10.941407-.460938-.300781-10.632812-6.742187-21.480469 1.546876l-1.152343.878906-.464844-1.371094c-.132813-.371094-3.386719-9.230469-17.738282-9.757812-8.65625-.316407-14.90625 3.175781-17.191406 4.691406-3.527344 2.34375-7.613281 8.042968-8.234375 13.992187-.46875 4.515625.988281 8.589844 4.332031 12.121094.117188.011719.191407.019531.21875.023437l-.019531.183594c.019531.019532.042969.042969.066407.066406l-.082032.078126-.179687 1.742187-.515625-.046875c-1.582032-.128906-6.652344-.429688-10.546875.714844-4.78125 1.402344-6.636719 2.304687-8.199219 4.863281-1.496094 2.460937-1.996094 4.265625-2.070312 4.5625-.058594.507813-.511719 4.871094.667968 10.324219 1.183594 5.46875 1.535156 7.394531 1.59375 7.742187.582032 2.082031.207032 6.386719-5.289062 8.167969-.761719.246094-1.535156.359375-2.296875.359375-2.640625 0-5.144531-1.324219-6.632813-2.855469-1.601562-1.652344-2.164062-3.605468-1.535156-5.351562l1.960938.703125c-.496094 1.378906.585937 2.699219 1.070312 3.199219 1.527344 1.574218 4.351562 2.753906 6.789062 1.964843 5.035157-1.632812 3.964844-5.496093 3.917969-5.660156l-.027343-.121094c0-.015625-.304688-1.78125-1.589844-7.707031-1.328125-6.152344-.714844-10.894531-.6875-11.09375l.011718-.085938c.023438-.089843.511719-2.230468 2.339844-5.230468 2.019532-3.316406 4.53125-4.351563 9.390625-5.777344 2.925781-.859375 6.351563-.984375 8.765625-.929688-2.769531-3.601562-3.984375-7.765624-3.523437-12.171874.695312-6.652344 5.128906-12.839844 9.152343-15.507813 2.453126-1.628906 9.15625-5.382813 18.417969-5.039063 12.710938.460938 17.566407 7.078126 19.070313 9.90625zm15.789062 39.902344-13.320312 5.546875-.800782-1.925781 14.105469-5.871094 8.628907 3.441406-.773438 1.9375zm3.199219 6.992188c0 1.042968-.851563 1.890625-1.894531 1.890625-1.039063 0-1.890625-.847657-1.890625-1.890625 0-1.042969.847656-1.890625 1.890625-1.890625 1.042968 0 1.894531.847656 1.894531 1.890625zm0 0"/><path d="m125.132812 0v.351562l107.558594 62.101563v125l-.347656.199219-107.210938 61.898437v.402344h-1.390624v-.402344l-107.558594-62.097656v-125l.34375-.199219 107.214844-61.902344v-.351562h-123.742188v250h250v-250zm0 0"/><path d="m231.308594 63.246094-106.871094-61.699219-106.875 61.699219v123.410156l106.875 61.703125 106.875-61.703125v-123.410156zm-8.441406 118.535156-.3125.179688-98.117188 56.648437-.316406-.179687-98.113282-56.648438v-113.660156l.3125-.179688 98.117188-56.648437 98.429688 56.828125zm0 0"/></g></svg>