
<svg xmlns="http://www.w3.org/2000/svg" xmlns:xlink="http://www.w3.org/1999/xlink" width="250px" height="250px" viewBox="0 0 250 250" version="1.1">
<g id="surface1">
<path style=" stroke:none;fill-rule:evenodd;fill:rgb(100%,20%,41.176471%);fill-opacity:1;" d="M 63.207031 188.265625 C 59.78125 187.398438 58.488281 186.53125 56.839844 183.980469 C 56.328125 183.1875 55.78125 182.226562 55.234375 181.140625 C 54.023438 178.734375 52.804688 175.699219 51.929688 172.394531 C 51.367188 170.273438 50.945312 168.042969 50.605469 165.75 C 50.171875 162.851562 49.863281 159.855469 49.558594 156.859375 C 48.960938 156.699219 49.320312 156.335938 50.359375 155.464844 C 52.003906 154.089844 55.347656 151.4375 56.777344 148.808594 C 58.207031 146.183594 57.722656 143.578125 54.785156 137.660156 C 51.84375 131.746094 46.449219 122.511719 43.671875 116.261719 C 40.894531 110.015625 40.734375 106.75 41.675781 103.433594 C 42.621094 100.117188 44.671875 96.75 50.0625 91.777344 C 55.457031 86.804688 64.195312 80.222656 74.980469 73.335938 L 75.417969 73.058594 L 75.703125 73.757812 C 78.871094 81.652344 79.355469 82.542969 81.027344 82.976562 C 81.714844 83.15625 82.605469 83.257812 83.601562 83.253906 C 82.789062 82.550781 82.046875 81.074219 80.472656 77.636719 C 78.109375 72.480469 73.863281 62.898438 71.289062 54.019531 C 69.035156 46.246094 68.0625 39.011719 68.078125 32.703125 C 30.644531 52.023438 5.246094 89.59375 5.246094 132.769531 C 5.246094 184.628906 41.886719 228.398438 92.019531 242.179688 C 92.179688 235.40625 92.339844 228.632812 93.269531 222.175781 C 93.886719 217.886719 94.84375 213.738281 95.933594 209.796875 C 96.484375 207.804688 97.074219 205.863281 97.667969 203.984375 C 99.277344 198.921875 100.941406 194.324219 102.613281 189.769531 C 95.707031 190.667969 86.738281 190.765625 79.492188 190.382812 C 72.183594 190 66.628906 189.132812 63.207031 188.265625 Z M 63.207031 188.265625 "/>
<path style=" stroke:none;fill-rule:evenodd;fill:rgb(100%,20%,41.176471%);fill-opacity:1;" d="M 91.433594 24.125 C 97.203125 22.199219 108.242188 19.277344 122.164062 18.949219 C 136.082031 18.625 152.878906 20.894531 168.730469 26.710938 C 184.578125 32.527344 199.480469 41.890625 207.765625 47.753906 C 216.058594 53.617188 217.734375 55.980469 218.332031 57.367188 C 218.929688 58.75 218.453125 59.152344 214.566406 62.320312 C 210.675781 65.488281 203.378906 71.421875 197.960938 73.996094 C 192.542969 76.570312 189 75.78125 186.660156 74.664062 C 184.320312 73.550781 183.179688 72.105469 179.71875 67.671875 C 176.257812 63.242188 170.472656 55.824219 167.214844 49.421875 C 163.953125 43.019531 163.21875 37.632812 161.707031 35.242188 C 160.199219 32.851562 157.914062 33.460938 147.554688 37.847656 C 137.199219 42.234375 118.769531 50.398438 108.875 54.96875 C 98.980469 59.542969 97.625 60.523438 95.71875 58.242188 C 93.8125 55.957031 91.363281 50.410156 89.425781 44.808594 C 87.488281 39.210938 86.066406 33.5625 85.609375 30.269531 C 85.152344 26.980469 85.660156 26.050781 91.433594 24.125 Z M 91.433594 24.125 "/>
<path style=" stroke:none;fill-rule:evenodd;fill:rgb(100%,20%,41.176471%);fill-opacity:1;" d="M 221.453125 90.984375 C 221.988281 93.746094 222.835938 99.03125 220.167969 104.679688 C 217.503906 110.328125 211.324219 116.335938 208 119.515625 C 204.667969 122.695312 204.191406 123.046875 204.882812 125.335938 C 205.570312 127.628906 207.425781 131.859375 206.371094 135.445312 C 205.316406 139.027344 201.351562 141.960938 199.527344 143.640625 C 197.703125 145.316406 198.015625 145.742188 198.996094 146.972656 C 199.980469 148.199219 201.632812 150.234375 199.527344 152.539062 C 197.417969 154.84375 191.558594 157.421875 185.921875 159.550781 C 180.285156 161.675781 174.871094 163.355469 171.5 164.867188 C 168.128906 166.375 166.796875 167.71875 164.183594 172.542969 C 161.570312 177.367188 157.675781 185.671875 156.207031 193.472656 C 154.738281 201.269531 155.695312 208.5625 156.566406 212.390625 C 157.433594 216.214844 158.214844 216.574219 162.179688 215.535156 C 166.136719 214.492188 173.28125 212.054688 177.796875 211.234375 C 182.3125 210.414062 184.203125 211.21875 185.410156 211.628906 C 186.613281 212.042969 187.136719 212.0625 189.265625 211.191406 C 191.394531 210.320312 195.132812 208.554688 197.761719 207.625 C 200.390625 206.691406 201.917969 206.597656 203.253906 207.058594 C 204.589844 207.519531 205.742188 208.535156 206.027344 210.078125 C 206.308594 211.621094 205.722656 213.683594 207.707031 212.9375 C 209.6875 212.1875 214.234375 208.628906 219.273438 203.4375 C 224.316406 198.25 229.847656 191.429688 234.382812 180.355469 C 238.917969 169.285156 242.449219 153.953125 244.148438 141.277344 C 245.847656 128.605469 245.714844 118.589844 243.371094 108.652344 C 241.027344 98.71875 236.46875 88.867188 233.976562 83.566406 C 231.480469 78.269531 231.046875 77.527344 229.664062 78.632812 C 228.277344 79.738281 225.945312 82.699219 224.25 84.527344 C 222.558594 86.355469 221.507812 87.054688 221.097656 87.519531 C 220.683594 87.988281 220.914062 88.222656 221.453125 90.984375 Z M 221.453125 90.984375 "/>
<path style=" stroke:none;fill-rule:evenodd;fill:rgb(100%,82.352942%,49.803922%);fill-opacity:1;" d="M 186.871094 93.257812 C 183.175781 94.507812 177.078125 94.707031 167.882812 96.011719 C 158.691406 97.308594 146.390625 99.707031 134.257812 104.121094 C 122.121094 108.535156 110.148438 114.960938 102.113281 120.726562 C 94.074219 126.488281 89.976562 131.589844 86.765625 136.539062 C 83.558594 141.488281 81.238281 146.28125 78.355469 149.675781 C 75.46875 153.070312 72.015625 155.058594 69.832031 156.050781 C 67.648438 157.046875 66.730469 157.046875 63.441406 157.046875 C 60.152344 157.046875 54.488281 157.046875 51.628906 156.996094 C 50.582031 156.976562 49.910156 156.953125 49.558594 156.859375 C 49.867188 159.855469 50.171875 162.851562 50.605469 165.75 C 50.949219 168.042969 51.367188 170.273438 51.929688 172.394531 C 52.804688 175.699219 54.023438 178.734375 55.234375 181.140625 C 55.785156 182.226562 56.328125 183.1875 56.84375 183.980469 C 58.488281 186.53125 59.78125 187.398438 63.207031 188.265625 C 66.632812 189.132812 72.1875 190 79.496094 190.382812 C 85.140625 190.679688 91.832031 190.6875 97.777344 190.25 C 99.527344 190.121094 101.21875 189.953125 102.792969 189.746094 C 109.726562 188.828125 114.523438 187.09375 121.292969 184.007812 C 128.0625 180.921875 136.800781 176.480469 146.078125 172.835938 C 152.988281 170.117188 160.203125 167.835938 167.246094 165.703125 C 169.652344 164.972656 172.042969 164.257812 174.390625 163.550781 C 183.617188 160.769531 192.246094 158.066406 196.585938 155.464844 C 200.511719 153.113281 200.933594 150.84375 199.460938 147.996094 C 199.304688 147.695312 199.128906 147.386719 198.933594 147.074219 C 196.882812 143.78125 192.730469 139.703125 189.628906 134.984375 C 188.910156 133.894531 188.253906 132.773438 187.648438 131.621094 C 185.644531 127.789062 184.277344 123.660156 183.617188 119.503906 C 182.894531 114.992188 183 110.441406 183.84375 106.28125 C 184.011719 105.457031 184.207031 104.644531 184.433594 103.851562 C 185.789062 99.070312 188.171875 94.960938 190.5625 90.855469 C 189.800781 91.859375 188.597656 92.671875 186.871094 93.257812 Z M 152.328125 131.175781 C 151.0625 134.847656 148.308594 138.765625 144.28125 141.765625 C 142.410156 143.15625 140.265625 144.351562 138.035156 145.328125 C 135.460938 146.453125 132.773438 147.292969 130.261719 147.816406 C 125.574219 148.792969 121.5 148.675781 117.988281 148.097656 C 114.472656 147.515625 111.523438 146.480469 109.824219 145.6875 C 108.121094 144.902344 107.675781 144.363281 108.019531 142.707031 C 108.078125 142.40625 108.167969 142.074219 108.285156 141.703125 C 108.824219 140.019531 110.011719 137.613281 112.375 134.582031 C 115.257812 130.878906 119.898438 126.253906 125.039062 123.195312 C 125.148438 123.132812 125.253906 123.066406 125.363281 123.003906 C 129.160156 120.804688 133.214844 119.445312 136.9375 118.699219 C 138.171875 118.453125 139.367188 118.273438 140.503906 118.152344 C 145.171875 117.660156 148.863281 118.167969 150.804688 118.75 C 152.753906 119.335938 152.953125 120 153.160156 122.042969 C 153.371094 124.082031 153.59375 127.503906 152.328125 131.175781 Z M 152.328125 131.175781 "/>
<path style=" stroke:none;fill-rule:evenodd;fill:rgb(100%,89.019608%,72.941178%);fill-opacity:1;" d="M 147.898438 172.230469 C 139.300781 175.613281 131.199219 179.726562 124.921875 182.585938 C 118.648438 185.449219 114.199219 187.054688 107.773438 187.90625 C 106.3125 188.101562 104.746094 188.253906 103.121094 188.375 C 101.28125 193.390625 99.4375 198.402344 97.667969 203.984375 C 95.894531 209.566406 94.195312 215.714844 93.265625 222.175781 C 92.335938 228.632812 92.175781 235.40625 92.019531 242.179688 C 102.703125 245.117188 114.003906 246.691406 125.691406 246.691406 C 140.675781 246.691406 155.019531 244.101562 168.253906 239.375 C 165.800781 236.707031 163.347656 234.035156 161.296875 230.433594 C 159.25 226.828125 157.597656 222.289062 156.773438 216.730469 C 156.730469 216.441406 156.6875 216.152344 156.652344 215.855469 C 155.949219 210.492188 155.976562 204.269531 156.5 198.191406 C 157.046875 191.785156 158.148438 185.542969 160.078125 180.140625 C 162.007812 174.738281 164.765625 170.179688 167.523438 165.617188 C 160.996094 167.597656 154.308594 169.710938 147.898438 172.230469 Z M 147.898438 172.230469 "/>
<path style=" stroke:none;fill-rule:evenodd;fill:rgb(100%,89.019608%,72.941178%);fill-opacity:1;" d="M 106.65625 55.324219 C 115.839844 50.507812 133.472656 41.300781 143.9375 36.792969 C 154.40625 32.285156 157.703125 32.476562 159.53125 33.148438 C 161.363281 33.824219 161.722656 34.984375 162.703125 38.21875 C 163.683594 41.453125 165.285156 46.765625 169.378906 53.183594 C 173.480469 59.605469 180.070312 67.132812 184.125 72.363281 C 188.183594 77.589844 189.703125 80.519531 190.519531 82.78125 C 191.335938 85.042969 191.449219 86.640625 190.6875 88.578125 C 189.929688 90.519531 188.289062 92.804688 181.273438 94.488281 C 174.253906 96.175781 161.851562 97.261719 148.453125 100.667969 C 135.054688 104.074219 120.652344 109.792969 109.054688 117.667969 C 97.457031 125.542969 88.65625 135.570312 83.378906 142.449219 C 78.105469 149.328125 76.355469 153.066406 72.457031 155.21875 C 68.554688 157.371094 62.503906 157.9375 58.378906 157.957031 C 54.25 157.972656 52.046875 157.441406 50.90625 157.046875 C 49.761719 156.652344 49.683594 156.394531 51.535156 154.910156 C 53.386719 153.425781 57.171875 150.714844 56.613281 144.066406 C 56.054688 137.414062 51.15625 126.820312 47.859375 120.125 C 44.566406 113.433594 42.878906 110.640625 41.703125 107.496094 C 40.527344 104.351562 39.867188 100.851562 44.585938 95.417969 C 49.304688 89.980469 59.40625 82.601562 65.628906 78.203125 C 71.855469 73.804688 74.207031 72.386719 75.832031 72.671875 C 77.457031 72.957031 78.355469 74.941406 79.605469 77.589844 C 80.855469 80.238281 82.457031 83.546875 85.6875 84.160156 C 88.921875 84.773438 93.785156 82.6875 97.410156 80.488281 C 101.035156 78.289062 103.417969 75.976562 103.839844 74.238281 C 104.257812 72.5 102.710938 71.335938 101.074219 69.222656 C 99.441406 67.113281 97.71875 64.054688 97.226562 62.308594 C 96.734375 60.566406 97.472656 60.140625 106.65625 55.324219 Z M 106.65625 55.324219 "/>
<path style=" stroke:none;fill-rule:evenodd;fill:rgb(94.117647%,78.431374%,49.803922%);fill-opacity:1;" d="M 147.898438 172.230469 C 139.300781 175.613281 131.199219 179.726562 124.925781 182.589844 C 118.648438 185.449219 114.199219 187.054688 107.773438 187.90625 C 106.3125 188.101562 104.746094 188.257812 103.125 188.375 C 101.28125 193.390625 99.4375 198.402344 97.667969 203.984375 C 97.070312 205.863281 96.484375 207.804688 95.933594 209.800781 C 101.980469 209.769531 110.4375 209.0625 118.007812 206.648438 C 127.359375 203.667969 135.359375 198.089844 145.007812 193.738281 C 149.132812 191.878906 153.5625 190.242188 157.816406 188.5625 C 158.394531 185.609375 159.136719 182.773438 160.078125 180.140625 C 162.007812 174.742188 164.765625 170.179688 167.523438 165.617188 C 160.996094 167.597656 154.308594 169.710938 147.898438 172.230469 Z M 147.898438 172.230469 "/>
<path style=" stroke:none;fill-rule:evenodd;fill:rgb(94.117647%,78.431374%,49.803922%);fill-opacity:1;" d="M 137.296875 246.167969 C 148.09375 245.191406 158.476562 242.867188 168.253906 239.375 C 165.800781 236.707031 163.347656 234.039062 161.300781 230.433594 C 159.25 226.828125 157.597656 222.289062 156.773438 216.730469 C 156.730469 216.441406 156.6875 216.152344 156.652344 215.855469 C 155.949219 210.492188 155.976562 204.269531 156.5 198.195312 C 157.050781 191.785156 158.148438 185.542969 160.078125 180.140625 C 162.007812 174.742188 164.765625 170.179688 167.523438 165.617188 C 163.300781 166.898438 159.011719 168.234375 154.773438 169.699219 C 150.519531 178.554688 146.253906 188.339844 143.210938 196.386719 C 137.660156 211.046875 136.160156 219.9375 136.160156 231.003906 C 136.160156 235.882812 136.449219 241.183594 137.296875 246.167969 Z M 137.296875 246.167969 "/>
<path style=" stroke:none;fill-rule:evenodd;fill:rgb(43.921569%,80.000001%,50.588238%);fill-opacity:1;" d="M 188.035156 136.84375 C 190.695312 140.890625 194.253906 144.386719 196.011719 147.207031 C 196.179688 147.476562 196.332031 147.738281 196.460938 147.996094 C 199.175781 145.355469 201.890625 142.71875 203.824219 139.824219 C 205.761719 136.933594 206.917969 133.785156 206.769531 131.003906 C 206.617188 128.222656 205.167969 125.808594 203.714844 123.394531 C 202.671875 124.144531 201.636719 124.859375 200.636719 125.527344 C 195.28125 129.125 190.8125 131.542969 186.34375 133.960938 C 186.859375 134.949219 187.425781 135.910156 188.035156 136.84375 Z M 188.035156 136.84375 "/>
<path style=" stroke:none;fill-rule:evenodd;fill:rgb(56.862748%,96.862745%,64.313728%);fill-opacity:1;" d="M 186.339844 133.960938 C 190.8125 131.542969 195.28125 129.125 200.636719 125.527344 C 201.636719 124.855469 202.667969 124.144531 203.714844 123.394531 C 208.25 120.136719 213 116.195312 216.34375 111.949219 C 220.457031 106.722656 222.445312 101.039062 223.054688 96.894531 C 223.660156 92.746094 222.890625 90.136719 222.121094 87.523438 C 219.351562 90.222656 216.242188 92.789062 212.921875 95.25 C 206.867188 99.730469 200.121094 103.839844 195.03125 106.609375 C 189.941406 109.378906 186.511719 110.8125 183.078125 112.246094 C 182.355469 115.8125 182.265625 119.707031 182.882812 123.578125 C 183.453125 127.140625 184.621094 130.679688 186.339844 133.960938 Z M 186.339844 133.960938 "/>
<path style=" stroke:none;fill-rule:evenodd;fill:rgb(51.372552%,87.058824%,57.647061%);fill-opacity:1;" d="M 186.339844 133.960938 C 190.8125 131.542969 195.28125 129.125 200.636719 125.527344 C 201.636719 124.855469 202.667969 124.144531 203.714844 123.394531 C 208.25 120.136719 213 116.195312 216.34375 111.949219 C 219.683594 107.703125 221.621094 103.160156 222.558594 99.378906 C 221.140625 101.445312 218.335938 104.882812 214.507812 108.117188 C 210.207031 111.746094 204.617188 115.113281 199.066406 116.519531 C 193.519531 117.929688 188.015625 117.382812 182.722656 115.722656 L 182.585938 115.679688 C 182.371094 118.25 182.457031 120.917969 182.882812 123.578125 C 183.453125 127.140625 184.621094 130.679688 186.339844 133.960938 Z M 186.339844 133.960938 "/>
<path style=" stroke:none;fill-rule:evenodd;fill:rgb(78.039217%,100%,81.960785%);fill-opacity:1;" d="M 195.027344 106.609375 C 200.121094 103.839844 206.867188 99.730469 212.921875 95.25 C 216.242188 92.792969 219.351562 90.222656 222.117188 87.523438 C 224.09375 85.597656 225.894531 83.601562 227.46875 81.535156 C 227.707031 81.21875 227.945312 80.902344 228.175781 80.582031 C 232.011719 75.25 234.324219 69.433594 235.433594 63.660156 C 236.542969 57.890625 236.449219 52.164062 235.871094 48.949219 C 235.292969 45.738281 234.230469 45.039062 231.804688 46.851562 C 229.375 48.667969 225.585938 52.996094 220.015625 57.828125 C 218.058594 59.523438 215.878906 61.285156 213.566406 63.003906 C 209.296875 66.175781 205.832031 68.597656 199.882812 71.449219 C 193.9375 74.296875 192.335938 74.503906 185.257812 76.085938 C 187.414062 78.648438 188.703125 80.113281 191.21875 83.445312 C 193.738281 86.78125 189.5 93.570312 189.691406 95.507812 C 189.886719 97.453125 189.578125 98.046875 188.835938 99.027344 C 186.789062 102.546875 184.742188 106.066406 183.582031 110.164062 C 183.390625 110.84375 183.222656 111.539062 183.078125 112.246094 C 186.507812 110.8125 189.941406 109.378906 195.027344 106.609375 Z M 195.027344 106.609375 "/>
<path style=" stroke:none;fill-rule:evenodd;fill:rgb(56.862748%,96.862745%,64.313728%);fill-opacity:1;" d="M 195.03125 106.609375 C 200.121094 103.839844 206.871094 99.730469 212.925781 95.25 C 216.246094 92.792969 219.355469 90.222656 222.121094 87.523438 C 224.097656 85.597656 225.898438 83.601562 227.472656 81.535156 C 227.710938 81.21875 227.949219 80.902344 228.179688 80.582031 C 232.015625 75.25 234.324219 69.433594 235.433594 63.660156 C 236.074219 60.332031 236.316406 57.019531 236.292969 54.195312 C 236.121094 54.363281 235.941406 54.574219 235.753906 54.832031 C 234.136719 57.105469 232.113281 63.003906 227.355469 68.75 C 222.597656 74.5 215.113281 80.09375 207.402344 82.710938 C 199.699219 85.332031 195.503906 84.980469 192.472656 84.964844 C 189.4375 84.953125 190.730469 84.96875 189.984375 84.992188 L 190.324219 85.445312 C 193.675781 89.882812 189.503906 93.570312 189.695312 95.507812 C 189.890625 97.453125 189.582031 98.046875 188.839844 99.027344 C 186.792969 102.546875 184.746094 106.066406 183.585938 110.164062 C 183.457031 110.609375 183.34375 111.058594 183.238281 111.515625 C 183.535156 111.613281 183.835938 111.710938 184.148438 111.796875 C 187.238281 110.503906 190.46875 109.09375 195.03125 106.609375 Z M 195.03125 106.609375 "/>
<path style=" stroke:none;fill-rule:evenodd;fill:rgb(100%,82.352942%,49.803922%);fill-opacity:1;" d="M 161.554688 215.265625 C 165.179688 213.625 172.800781 211.617188 177.140625 210.941406 C 181.484375 210.265625 182.539062 210.914062 183.1875 211.5625 C 183.835938 212.207031 184.074219 212.851562 186.097656 212.019531 C 188.117188 211.183594 191.925781 208.871094 195.113281 207.707031 C 198.300781 206.539062 200.871094 206.519531 202.730469 207.019531 C 204.589844 207.519531 205.742188 208.535156 205.53125 210.917969 C 205.320312 213.296875 203.742188 217.042969 200.410156 220.601562 C 197.078125 224.160156 191.992188 227.53125 186.339844 230.628906 C 180.691406 233.726562 174.472656 236.550781 171.265625 237.855469 C 168.058594 239.160156 167.863281 238.949219 166.292969 236.554688 C 164.71875 234.160156 161.769531 229.582031 160.273438 226.371094 C 158.773438 223.160156 158.726562 221.3125 158.519531 219.75 C 158.308594 218.1875 157.933594 216.910156 161.554688 215.265625 Z M 161.554688 215.265625 "/>
<path style=" stroke:none;fill-rule:evenodd;fill:rgb(100%,100%,100%);fill-opacity:1;" d="M 144.277344 141.765625 C 148.308594 138.765625 151.0625 134.847656 152.328125 131.175781 C 153.59375 127.507812 153.371094 124.085938 153.160156 122.042969 C 152.949219 120 152.75 119.335938 150.804688 118.75 C 148.863281 118.167969 145.171875 117.660156 140.503906 118.152344 C 139.367188 118.273438 138.167969 118.453125 136.9375 118.699219 C 139.011719 121.378906 140.527344 124.511719 141.277344 127.976562 C 142.628906 134.1875 141.296875 140.328125 138.035156 145.328125 C 140.265625 144.351562 142.410156 143.15625 144.277344 141.765625 Z M 144.277344 141.765625 "/>
<path style=" stroke:none;fill-rule:evenodd;fill:rgb(56.862748%,96.862745%,64.313728%);fill-opacity:1;" d="M 126.359375 134.40625 C 126.359375 140.703125 121.898438 146.015625 115.804688 147.667969 C 116.5 147.828125 117.230469 147.972656 117.984375 148.097656 C 121.496094 148.675781 125.570312 148.792969 130.257812 147.816406 C 132.769531 147.292969 135.457031 146.453125 138.03125 145.328125 C 141.292969 140.328125 142.625 134.183594 141.273438 127.976562 C 140.523438 124.511719 139.007812 121.378906 136.933594 118.699219 C 133.109375 119.464844 128.925781 120.882812 125.035156 123.195312 C 124.132812 123.730469 123.246094 124.316406 122.378906 124.9375 C 124.847656 127.410156 126.359375 130.742188 126.359375 134.40625 Z M 126.359375 134.40625 "/>
<path style="fill:none;stroke-width:1.06563;stroke-linecap:round;stroke-linejoin:miter;stroke:rgb(5.882353%,9.019608%,16.470589%);stroke-opacity:1;stroke-miterlimit:22.9256;" d="M 20.739 30.824719 C 20.805 30.466969 21.02175 29.86875 21.576 29.069719 C 22.1295 28.270688 23.01975 27.270844 24.0075 26.610187 C 24.7545 26.110688 25.55775 25.80525 26.292 25.639031 C 26.69025 26.217844 26.9805 26.894531 27.12525 27.642937 C 27.38475 28.9845 27.129 30.310875 26.50275 31.390875 C 26.0085 31.633875 25.49175 31.815281 25.0095 31.928344 C 24.1095 32.139281 23.328 32.113969 22.65375 31.989094 C 21.97875 31.864219 21.4125 31.639781 21.0855 31.4685 C 20.75925 31.298906 20.67375 31.182469 20.739 30.824719 Z M 20.739 30.824719 " transform="matrix(5.208333,0,0,4.62963,0,0)"/>
<path style="fill:none;stroke-width:1.06563;stroke-linecap:round;stroke-linejoin:miter;stroke:rgb(5.882353%,9.019608%,16.470589%);stroke-opacity:1;stroke-miterlimit:22.9256;" d="M 20.739 30.824719 C 20.805 30.466969 21.0225 29.86875 21.576 29.069719 C 22.03275 28.41075 22.7175 27.615938 23.4975 26.9865 C 23.9715 27.520594 24.26175 28.240312 24.26175 29.032594 C 24.26175 30.391875 23.40525 31.539375 22.23525 31.896281 C 21.74625 31.769719 21.342 31.602656 21.0855 31.4685 C 20.75925 31.298906 20.67375 31.182469 20.739 30.824719 Z M 20.739 30.824719 " transform="matrix(5.208333,0,0,4.62963,0,0)"/>
<path style=" stroke:none;fill-rule:evenodd;fill:rgb(100%,100%,100%);fill-opacity:1;" d="M 128.734375 128.21875 C 131 128.21875 132.835938 129.957031 132.835938 132.097656 C 132.835938 134.242188 131 135.980469 128.734375 135.980469 C 126.46875 135.980469 124.632812 134.242188 124.632812 132.097656 C 124.632812 129.957031 126.46875 128.21875 128.734375 128.21875 Z M 128.734375 128.21875 "/>
<path style="fill:none;stroke-width:0.799218;stroke-linecap:round;stroke-linejoin:miter;stroke:rgb(100%,100%,100%);stroke-opacity:1;stroke-miterlimit:22.9256;" d="M 13.58625 44.825906 C 13.58625 45.441844 13.58625 46.056937 13.58625 46.672875 " transform="matrix(5.208333,0,0,4.62963,0,0)"/>
<path style="fill:none;stroke-width:0.799218;stroke-linecap:round;stroke-linejoin:miter;stroke:rgb(100%,100%,100%);stroke-opacity:1;stroke-miterlimit:22.9256;" d="M 12.94125 45.749812 C 13.371 45.749812 13.80075 45.749812 14.2305 45.749812 " transform="matrix(5.208333,0,0,4.62963,0,0)"/>
<path style="fill:none;stroke-width:0.799218;stroke-linecap:round;stroke-linejoin:miter;stroke:rgb(100%,100%,100%);stroke-opacity:1;stroke-miterlimit:22.9256;" d="M 5.9895 35.668687 C 5.9895 36.649125 5.9895 37.628719 5.9895 38.608312 " transform="matrix(5.208333,0,0,4.62963,0,0)"/>
<path style="fill:none;stroke-width:0.799218;stroke-linecap:round;stroke-linejoin:miter;stroke:rgb(100%,100%,100%);stroke-opacity:1;stroke-miterlimit:22.9256;" d="M 4.9635 37.1385 C 5.6475 37.1385 6.3315 37.1385 7.0155 37.1385 " transform="matrix(5.208333,0,0,4.62963,0,0)"/>
<path style="fill:none;stroke-width:0.799218;stroke-linecap:round;stroke-linejoin:miter;stroke:rgb(100%,100%,100%);stroke-opacity:1;stroke-miterlimit:22.9256;" d="M 35.13375 39.314531 C 35.13375 39.80475 35.13375 40.294969 35.13375 40.785187 " transform="matrix(5.208333,0,0,4.62963,0,0)"/>
<path style="fill:none;stroke-width:0.799218;stroke-linecap:round;stroke-linejoin:miter;stroke:rgb(100%,100%,100%);stroke-opacity:1;stroke-miterlimit:22.9256;" d="M 34.62 40.049437 C 34.962 40.049437 35.30475 40.049437 35.64675 40.049437 " transform="matrix(5.208333,0,0,4.62963,0,0)"/>
<path style="fill:none;stroke-width:0.799218;stroke-linecap:round;stroke-linejoin:miter;stroke:rgb(100%,100%,100%);stroke-opacity:1;stroke-miterlimit:22.9256;" d="M 41.28075 37.1655 C 41.28075 37.781438 41.28075 38.396531 41.28075 39.012469 " transform="matrix(5.208333,0,0,4.62963,0,0)"/>
<path style="fill:none;stroke-width:0.799218;stroke-linecap:round;stroke-linejoin:miter;stroke:rgb(100%,100%,100%);stroke-opacity:1;stroke-miterlimit:22.9256;" d="M 40.6365 38.088563 C 41.06625 38.088563 41.49675 38.088563 41.92575 38.088563 " transform="matrix(5.208333,0,0,4.62963,0,0)"/>
<path style="fill:none;stroke-width:0.799218;stroke-linecap:round;stroke-linejoin:miter;stroke:rgb(100%,100%,100%);stroke-opacity:1;stroke-miterlimit:22.9256;" d="M 43.587 27.846281 C 43.587 28.266469 43.587 28.686656 43.587 29.106 " transform="matrix(5.208333,0,0,4.62963,0,0)"/>
<path style="fill:none;stroke-width:0.799218;stroke-linecap:round;stroke-linejoin:miter;stroke:rgb(100%,100%,100%);stroke-opacity:1;stroke-miterlimit:22.9256;" d="M 43.14675 28.476562 C 43.44 28.476562 43.73325 28.476562 44.0265 28.476562 " transform="matrix(5.208333,0,0,4.62963,0,0)"/>
<path style="fill:none;stroke-width:0.799218;stroke-linecap:round;stroke-linejoin:miter;stroke:rgb(100%,100%,100%);stroke-opacity:1;stroke-miterlimit:22.9256;" d="M 4.54425 24.497438 C 4.54425 24.987656 4.54425 25.477875 4.54425 25.968094 " transform="matrix(5.208333,0,0,4.62963,0,0)"/>
<path style="fill:none;stroke-width:0.799218;stroke-linecap:round;stroke-linejoin:miter;stroke:rgb(100%,100%,100%);stroke-opacity:1;stroke-miterlimit:22.9256;" d="M 4.0305 25.233187 C 4.37325 25.233187 4.71525 25.233187 5.05725 25.233187 " transform="matrix(5.208333,0,0,4.62963,0,0)"/>
<path style="fill:none;stroke-width:0.799218;stroke-linecap:round;stroke-linejoin:miter;stroke:rgb(100%,100%,100%);stroke-opacity:1;stroke-miterlimit:22.9256;" d="M 9.792 13.408875 C 9.792 14.0805 9.792 14.752125 9.792 15.42375 " transform="matrix(5.208333,0,0,4.62963,0,0)"/>
<path style="fill:none;stroke-width:0.799218;stroke-linecap:round;stroke-linejoin:miter;stroke:rgb(100%,100%,100%);stroke-opacity:1;stroke-miterlimit:22.9256;" d="M 9.0885 14.416313 C 9.558 14.416313 10.02675 14.416313 10.4955 14.416313 " transform="matrix(5.208333,0,0,4.62963,0,0)"/>
<path style="fill:none;stroke-width:0.799218;stroke-linecap:round;stroke-linejoin:miter;stroke:rgb(100%,100%,100%);stroke-opacity:1;stroke-miterlimit:22.9256;" d="M 20.271 7.030125 C 20.271 7.852781 20.271 8.674594 20.271 9.496406 " transform="matrix(5.208333,0,0,4.62963,0,0)"/>
<path style="fill:none;stroke-width:0.799218;stroke-linecap:round;stroke-linejoin:miter;stroke:rgb(100%,100%,100%);stroke-opacity:1;stroke-miterlimit:22.9256;" d="M 19.41 8.263687 C 19.98375 8.263687 20.5575 8.263687 21.13125 8.263687 " transform="matrix(5.208333,0,0,4.62963,0,0)"/>
<path style="fill:none;stroke-width:0.799218;stroke-linecap:round;stroke-linejoin:miter;stroke:rgb(100%,100%,100%);stroke-opacity:1;stroke-miterlimit:22.9256;" d="M 7.089 30.074625 C 7.089 30.564844 7.089 31.055062 7.089 31.545281 " transform="matrix(5.208333,0,0,4.62963,0,0)"/>
<path style="fill:none;stroke-width:0.799218;stroke-linecap:round;stroke-linejoin:miter;stroke:rgb(100%,100%,100%);stroke-opacity:1;stroke-miterlimit:22.9256;" d="M 6.576 30.810375 C 6.918 30.810375 7.26 30.810375 7.602 30.810375 " transform="matrix(5.208333,0,0,4.62963,0,0)"/>
<path style="fill:none;stroke-width:0.799218;stroke-linecap:round;stroke-linejoin:miter;stroke:rgb(100%,100%,100%);stroke-opacity:1;stroke-miterlimit:22.9256;" d="M 36.61725 11.421 C 36.61725 11.841188 36.61725 12.261375 36.61725 12.681563 " transform="matrix(5.208333,0,0,4.62963,0,0)"/>
<path style="fill:none;stroke-width:0.799218;stroke-linecap:round;stroke-linejoin:miter;stroke:rgb(100%,100%,100%);stroke-opacity:1;stroke-miterlimit:22.9256;" d="M 36.177 12.051281 C 36.47025 12.051281 36.7635 12.051281 37.05675 12.051281 " transform="matrix(5.208333,0,0,4.62963,0,0)"/>
<path style=" stroke:none;fill-rule:evenodd;fill:rgb(100%,100%,100%);fill-opacity:1;" d="M 92.210938 83.53125 C 94.914062 82.835938 97.472656 81.472656 99.4375 80.0625 C 101.398438 78.65625 102.769531 77.207031 103.441406 76.34375 C 104.117188 75.480469 104.089844 75.207031 101.925781 71.480469 C 100.878906 69.667969 99.324219 67.042969 97.636719 64.007812 C 95.855469 60.800781 93.925781 57.136719 92.292969 53.5 C 89.636719 47.589844 87.761719 41.757812 86.351562 35.972656 C 86.074219 34.832031 85.816406 33.691406 85.570312 32.554688 C 84.085938 25.648438 83.179688 18.800781 82.648438 13.984375 C 82.117188 9.167969 81.960938 6.386719 81.558594 4.78125 C 81.15625 3.179688 80.511719 2.761719 78.816406 4.148438 C 77.121094 5.535156 74.378906 8.730469 72.21875 13.132812 C 70.058594 17.539062 68.484375 23.15625 68.144531 30.054688 C 67.945312 34.222656 68.191406 38.859375 68.992188 43.835938 C 69.511719 47.09375 70.269531 50.5 71.289062 54.019531 C 73.863281 62.898438 78.109375 72.480469 80.472656 77.636719 C 82.003906 80.972656 82.746094 82.460938 83.53125 83.191406 C 83.960938 83.589844 84.402344 83.761719 84.988281 83.886719 C 86.65625 84.246094 89.507812 84.222656 92.210938 83.53125 Z M 92.210938 83.53125 "/>
<path style=" stroke:none;fill-rule:evenodd;fill:rgb(87.058824%,87.058824%,87.058824%);fill-opacity:1;" d="M 95.222656 82.476562 C 96.78125 81.789062 98.222656 80.933594 99.433594 80.0625 C 101.398438 78.65625 102.769531 77.207031 103.441406 76.34375 C 104.117188 75.484375 104.089844 75.207031 101.925781 71.480469 C 100.875 69.667969 99.324219 67.042969 97.636719 64.011719 C 95.855469 60.800781 93.925781 57.136719 92.292969 53.5 C 89.636719 47.589844 87.761719 41.757812 86.351562 35.972656 C 86.074219 34.832031 85.8125 33.691406 85.570312 32.554688 C 84.085938 25.648438 83.179688 18.800781 82.648438 13.984375 C 82.113281 9.171875 81.957031 6.386719 81.558594 4.785156 C 81.3125 3.808594 80.976562 3.269531 80.371094 3.3125 C 79.25 7.34375 78.191406 12.132812 77.773438 17.238281 C 77.03125 26.238281 78.265625 36.214844 80.65625 45.390625 C 83.046875 54.566406 86.585938 62.941406 90.171875 71.160156 C 91.894531 75.109375 93.621094 79.023438 95.222656 82.476562 Z M 95.222656 82.476562 "/>
<path style="fill:none;stroke-width:1.06563;stroke-linecap:round;stroke-linejoin:miter;stroke:rgb(5.882353%,9.019608%,16.470589%);stroke-opacity:1;stroke-miterlimit:22.9256;" d="M 18.8565 12.897562 C 19.6515 12.412406 20.44875 11.943281 21.22575 11.504531 C 23.51925 10.210219 25.6425 9.174094 27.08175 8.489812 C 28.52175 7.804688 29.277 7.47225 29.8815 7.359187 C 30.486 7.246125 30.939 7.353281 31.11975 7.806375 C 31.30125 8.259469 31.21125 9.0585 31.40925 9.843187 C 31.60725 10.628719 32.094 11.399906 32.907 12.512812 C 33.72 13.625719 34.85925 15.080344 35.61 16.198313 C 36.36075 17.316281 36.723 18.099281 36.78 18.738 C 36.83625 19.377562 36.588 19.872844 35.87925 20.143687 C 35.16975 20.413687 33.999 20.456719 32.2335 20.738531 C 30.468 21.018656 28.107 21.536719 25.77675 22.490156 C 23.44725 23.443594 21.1485 24.831563 19.60575 26.076937 C 18.06225 27.321469 17.2755 28.423406 16.659 29.492438 C 16.04325 30.561469 15.59775 31.59675 15.0435 32.329969 C 14.49 33.063187 13.827 33.492656 13.40775 33.706969 C 12.9885 33.922125 12.81225 33.922125 12.18075 33.922125 C 11.54925 33.922125 10.46175 33.922125 9.91275 33.911156 C 9.36375 33.900188 9.35325 33.87825 9.669 33.580406 C 9.9855 33.283406 10.6275 32.709656 10.902 32.142656 C 11.17575 31.574813 11.08275 31.012875 10.51875 29.734594 C 9.954 28.457156 8.919 26.462531 8.385 25.112531 C 7.85175 23.763375 7.821 23.058 8.0025 22.341656 C 8.18325 21.625312 8.577 20.898 9.61275 19.823906 C 10.64775 18.749813 12.3255 17.328094 14.39625 15.840562 C 14.42475 15.820312 14.4525 15.800062 14.481 15.780656 " transform="matrix(5.208333,0,0,4.62963,0,0)"/>
<path style="fill:none;stroke-width:1.06563;stroke-linecap:round;stroke-linejoin:miter;stroke:rgb(5.882353%,9.019608%,16.470589%);stroke-opacity:1;stroke-miterlimit:22.9256;" d="M 9.51525 33.881625 C 9.621 35.040937 9.72675 36.20025 9.9705 37.237219 C 10.215 38.274187 10.59825 39.188812 10.914 39.739781 C 11.22975 40.29075 11.478 40.478063 12.13575 40.665375 C 12.7935 40.852688 13.86 41.04 15.26325 41.122687 C 16.6665 41.205375 18.40575 41.183437 19.73625 40.985156 C 21.0675 40.786875 21.9885 40.41225 23.28825 39.745688 C 24.588 39.079125 26.26575 38.119781 28.047 37.332563 C 29.8275 36.5445 31.71225 35.927719 33.483 35.326969 C 35.2545 34.726219 36.91125 34.142344 37.7445 33.580406 C 38.57775 33.018469 38.58825 32.478469 38.1945 31.768031 C 37.8015 31.057594 37.00425 30.175875 36.40875 29.156625 C 35.81325 28.137375 35.4195 26.980594 35.2545 25.812844 C 35.088 24.64425 35.15025 23.465531 35.41125 22.431938 C 35.6715 21.399188 36.129 20.511563 36.588 19.624781 " transform="matrix(5.208333,0,0,4.62963,0,0)"/>
<path style="fill:none;stroke-width:1.06563;stroke-linecap:round;stroke-linejoin:miter;stroke:rgb(5.882353%,9.019608%,16.470589%);stroke-opacity:1;stroke-miterlimit:22.9256;" d="M 32.16525 35.773313 C 31.63575 36.758812 31.1055 37.743469 30.735 38.910375 C 30.36525 40.077281 30.15375 41.425594 30.048 42.809344 C 29.94225 44.193937 29.94225 45.613969 30.1005 46.813781 C 30.2595 48.014437 30.576 48.994875 30.96975 49.773656 C 31.3635 50.551594 31.8345 51.128719 32.30475 51.705 " transform="matrix(5.208333,0,0,4.62963,0,0)"/>
<path style="fill:none;stroke-width:1.06563;stroke-linecap:round;stroke-linejoin:miter;stroke:rgb(5.882353%,9.019608%,16.470589%);stroke-opacity:1;stroke-miterlimit:22.9256;" d="M 19.8 40.689 C 19.446 41.772375 19.09275 42.854906 18.75225 44.060625 C 18.4125 45.266344 18.08625 46.594406 17.90775 47.989969 C 17.72925 49.384687 17.6985 50.84775 17.66775 52.310812 " transform="matrix(5.208333,0,0,4.62963,0,0)"/>
<path style="fill:none;stroke-width:1.06563;stroke-linecap:round;stroke-linejoin:miter;stroke:rgb(5.882353%,9.019608%,16.470589%);stroke-opacity:1;stroke-miterlimit:22.9256;" d="M 30.07725 46.624781 C 31.10775 46.332 32.1375 46.039219 32.931 45.78525 C 33.7245 45.532125 34.28175 45.317813 34.64175 45.276469 C 35.00175 45.235969 35.1645 45.368437 35.2515 45.6975 C 35.33775 46.027406 35.3475 46.553063 35.2725 47.025562 C 35.19825 47.498062 35.04 47.917406 34.88175 48.335906 " transform="matrix(5.208333,0,0,4.62963,0,0)"/>
<path style="fill:none;stroke-width:1.06563;stroke-linecap:round;stroke-linejoin:miter;stroke:rgb(5.882353%,9.019608%,16.470589%);stroke-opacity:1;stroke-miterlimit:22.9256;" d="M 35.38725 46.115156 C 36.54825 45.563344 37.70925 45.011531 38.448 44.760937 C 39.18675 44.510344 39.50325 44.561813 39.64275 44.760937 C 39.78225 44.960062 39.74325 45.306844 39.62625 45.775125 C 39.51 46.242562 39.315 46.8315 39.11925 47.419594 " transform="matrix(5.208333,0,0,4.62963,0,0)"/>
<path style="fill:none;stroke-width:1.06563;stroke-linecap:round;stroke-linejoin:miter;stroke:rgb(5.882353%,9.019608%,16.470589%);stroke-opacity:1;stroke-miterlimit:22.9256;" d="M 35.784 16.46325 C 36.63975 16.254844 37.49625 16.046437 38.6295 15.366375 C 39.76275 14.685469 41.17425 13.53375 42.243 12.490031 C 43.3125 11.447156 44.04 10.512281 44.5065 10.119938 C 44.97225 9.728438 45.17625 9.879469 45.28725 10.573031 C 45.39825 11.267437 45.41625 12.504375 45.20325 13.750594 C 44.99025 14.997656 44.54625 16.253156 43.80975 17.405719 C 43.07325 18.557437 42.0435 19.605375 40.881 20.573156 C 39.7185 21.541781 38.42325 22.429406 37.44525 23.027625 C 36.46875 23.625844 35.8095 23.9355 35.151 24.245156 " transform="matrix(5.208333,0,0,4.62963,0,0)"/>
<path style="fill:none;stroke-width:1.06563;stroke-linecap:round;stroke-linejoin:miter;stroke:rgb(5.882353%,9.019608%,16.470589%);stroke-opacity:1;stroke-miterlimit:22.9256;" d="M 42.64725 18.905062 C 42.795 19.468688 42.94275 20.033156 42.8265 20.929219 C 42.7095 21.824437 42.32775 23.052094 41.538 24.181031 C 40.74825 25.309125 39.54975 26.3385 38.58525 27.075937 C 37.62 27.813375 36.88725 28.259719 36.1545 28.705219 " transform="matrix(5.208333,0,0,4.62963,0,0)"/>
<path style="fill:none;stroke-width:1.06563;stroke-linecap:round;stroke-linejoin:miter;stroke:rgb(5.882353%,9.019608%,16.470589%);stroke-opacity:1;stroke-miterlimit:22.9256;" d="M 39.11325 26.653219 C 39.39225 27.174656 39.6705 27.696094 39.699 28.296844 C 39.7275 28.897594 39.5055 29.577656 39.1935 30.136219 C 38.88225 30.695625 38.48025 31.134375 38.07825 31.572281 " transform="matrix(5.208333,0,0,4.62963,0,0)"/>
<path style="fill:none;stroke-width:1.06563;stroke-linecap:round;stroke-linejoin:miter;stroke:rgb(5.882353%,9.019608%,16.470589%);stroke-opacity:1;stroke-miterlimit:22.9256;" d="M 20.739 30.824719 C 20.805 30.466969 21.02175 29.86875 21.576 29.069719 C 22.1295 28.269844 23.01975 27.270844 24.0075 26.610187 C 24.99525 25.949531 26.07975 25.627219 26.97675 25.520906 C 27.873 25.414594 28.581 25.524281 28.9545 25.65 C 29.328 25.776563 29.36625 25.92 29.40675 26.361281 C 29.44725 26.801719 29.49 27.540844 29.247 28.333969 C 29.004 29.127094 28.47525 29.974219 27.70125 30.621375 C 26.928 31.268531 25.91025 31.717406 25.0095 31.928344 C 24.1095 32.139281 23.328 32.113969 22.65375 31.989094 C 21.97875 31.863375 21.4125 31.639781 21.0855 31.4685 C 20.75925 31.298906 20.67375 31.182469 20.739 30.824719 Z M 20.739 30.824719 " transform="matrix(5.208333,0,0,4.62963,0,0)"/>
<path style=" stroke:none;fill-rule:evenodd;fill:rgb(5.882353%,9.019608%,16.470589%);fill-opacity:1;" d="M 115.808594 147.667969 C 121.902344 146.015625 126.363281 140.703125 126.363281 134.40625 C 126.363281 130.742188 124.851562 127.410156 122.382812 124.9375 C 118.320312 127.851562 114.753906 131.53125 112.375 134.582031 C 109.492188 138.28125 108.359375 141.050781 108.015625 142.707031 C 107.675781 144.363281 108.121094 144.902344 109.820312 145.6875 C 111.15625 146.308594 113.261719 147.082031 115.808594 147.667969 Z M 115.808594 147.667969 "/>
<path style="fill:none;stroke-width:1.06563;stroke-linecap:round;stroke-linejoin:miter;stroke:rgb(5.882353%,9.019608%,16.470589%);stroke-opacity:1;stroke-miterlimit:22.9256;" d="M 10.60425 39.126375 C 11.65275 39.074906 12.7005 39.023438 13.84575 39.261375 C 14.991 39.501 16.23375 40.029187 17.5665 40.27725 C 18.8985 40.525312 20.32125 40.491563 21.564 40.211438 C 22.80675 39.931312 23.87025 39.403969 24.609 38.654719 C 25.34775 37.905469 25.761 36.934312 26.175 35.964 " transform="matrix(5.208333,0,0,4.62963,0,0)"/>
<path style="fill:none;stroke-width:1.06563;stroke-linecap:round;stroke-linejoin:miter;stroke:rgb(5.882353%,9.019608%,16.470589%);stroke-opacity:1;stroke-miterlimit:22.9256;" d="M 13.272 36.860906 C 13.407 36.640687 13.54125 36.420469 13.6425 36.185906 C 13.743 35.952188 13.8105 35.704125 13.878 35.456063 " transform="matrix(5.208333,0,0,4.62963,0,0)"/>
<path style="fill:none;stroke-width:1.06563;stroke-linecap:round;stroke-linejoin:miter;stroke:rgb(5.882353%,9.019608%,16.470589%);stroke-opacity:1;stroke-miterlimit:22.9256;" d="M 10.659 36.707344 C 10.431 36.545344 10.20375 36.381656 10.04625 36.230625 C 9.88875 36.079594 9.8025 35.941219 9.7155 35.802 " transform="matrix(5.208333,0,0,4.62963,0,0)"/>
<path style="fill:none;stroke-width:1.06563;stroke-linecap:round;stroke-linejoin:miter;stroke:rgb(5.882353%,9.019608%,16.470589%);stroke-opacity:1;stroke-miterlimit:22.9256;" d="M 16.31775 18.119531 C 16.638 18.197156 17.1855 18.192094 17.7045 18.04275 C 18.2235 17.892563 18.714 17.598094 19.09125 17.2935 C 19.46775 16.98975 19.73175 16.676719 19.86075 16.49025 C 19.98975 16.304625 19.9845 16.244719 19.56975 15.439781 C 19.155 14.634844 18.33 13.084031 17.7195 11.556 C 17.10975 10.027969 16.71375 8.523563 16.42875 7.031813 C 16.14375 5.540063 15.96975 4.060969 15.86775 3.020625 C 15.76575 1.981125 15.73575 1.379531 15.6585 1.033594 C 15.58125 0.686812 15.45825 0.596531 15.13275 0.896062 C 14.80725 1.195594 14.28 1.885781 13.86525 2.836688 C 13.4505 3.788438 13.14825 5.00175 13.08375 6.491812 C 13.01925 7.981875 13.19325 9.749531 13.6875 11.668219 C 14.18175 13.586063 14.99625 15.655781 15.45075 16.769531 C 15.9045 17.884125 15.9975 18.04275 16.31775 18.119531 Z M 16.31775 18.119531 " transform="matrix(5.208333,0,0,4.62963,0,0)"/>
<path style="fill:none;stroke-width:1.06563;stroke-linecap:round;stroke-linejoin:miter;stroke:rgb(5.882353%,9.019608%,16.470589%);stroke-opacity:1;stroke-miterlimit:22.9256;" d="M 13.071 7.063875 C 5.88375 11.237063 1.00725 19.35225 1.00725 28.678219 C 1.00725 42.2685 11.361 53.285344 24.13275 53.285344 C 36.90525 53.285344 47.259 42.2685 47.259 28.678219 C 47.259 24.282281 46.17525 20.156344 44.27775 16.58475 M 41.8515 12.863812 C 37.6095 7.488281 31.2465 4.071094 24.13275 4.071094 C 21.339 4.071094 18.66 4.598438 16.1805 5.564531 " transform="matrix(5.208333,0,0,4.62963,0,0)"/>
</g>
</svg>
