<svg width="48" height="48" viewBox="0 0 48 48" fill="none" xmlns="http://www.w3.org/2000/svg">
<rect width="48" height="48" rx="24" fill="white"/>
<path d="M16.5137 34.568L24.2887 26.8011C26.6464 29.1563 27.3025 29.3615 29.3198 31.9709C30.9355 34.0596 29.9269 37.3214 27.7961 38.917C25.5427 40.6015 22.6362 40.5525 20.6434 38.669C18.6077 36.7456 18.6199 36.6721 16.5137 34.568Z" fill="#00FFB8"/>
<path d="M23.8851 21.573C26.5861 18.8748 29.1338 16.3297 31.6601 13.806C29.3025 11.4508 29.0971 10.7954 26.4849 8.78018C24.394 7.16615 21.1288 8.17377 19.5315 10.3023C17.8453 12.5534 17.8943 15.4568 19.7799 17.4476C21.7052 19.4812 21.7788 19.4689 23.8851 21.573Z" fill="#00FFB8"/>
<path d="M36.9531 27.6035C34.8805 29.6738 31.922 29.7228 29.8249 27.7137C26.4617 24.4887 21.3478 24.3233 17.9048 27.8301C16.3351 29.4288 13.4532 29.5789 11.5431 28.2344C9.43992 26.752 8.72557 24.0722 9.76491 21.8793C11.3162 18.5992 15.3049 17.5916 18.2175 20.4001C21.3815 23.4535 26.6364 23.3586 29.598 20.3939C32.388 17.6038 36.392 18.7156 37.9771 21.5424C38.9643 23.3035 38.5504 26.0078 36.9561 27.6035H36.9531Z" fill="#32434A"/>
<path d="M7.3333 25.286L12.8007 30.7478C13.4461 31.3924 14.4924 31.3924 15.1377 30.7478L20.6052 25.286C21.2505 24.6413 21.2505 23.5961 20.6052 22.9515L15.1377 17.4897C14.4924 16.845 13.4461 16.845 12.8007 17.4897L7.3333 22.9515C6.68796 23.5961 6.68795 24.6413 7.3333 25.286Z" fill="#32434A"/>
<path d="M27.0579 25.5021L32.5253 30.9638C33.1707 31.6085 34.217 31.6085 34.8623 30.9638L40.3298 25.5021C40.9751 24.8574 40.9751 23.8122 40.3298 23.1675L34.8623 17.7058C34.217 17.0611 33.1707 17.0611 32.5253 17.7058L27.0579 23.1675C26.4126 23.8122 26.4126 24.8574 27.0579 25.5021Z" fill="#00FFFF"/>
<path d="M27.0579 25.5021L32.5253 30.9638C33.1707 31.6085 34.217 31.6085 34.8623 30.9638L40.3298 25.5021C40.9751 24.8574 40.9751 23.8122 40.3298 23.1675L34.8623 17.7058C34.217 17.0611 33.1707 17.0611 32.5253 17.7058L27.0579 23.1675C26.4126 23.8122 26.4126 24.8574 27.0579 25.5021Z" fill="#32434A"/>
</svg>
