<svg width="252" height="252" viewBox="0 0 252 252" fill="none" xmlns="http://www.w3.org/2000/svg">
<rect width="252" height="252" rx="126" fill="white"/>
<path d="M85.9702 182.507L127.543 140.977C140.149 153.57 143.657 154.667 154.444 168.62C163.083 179.788 157.69 197.229 146.297 205.761C134.248 214.767 118.707 214.505 108.052 204.434C97.1667 194.15 97.2322 193.757 85.9702 182.507Z" fill="#00FFB8"/>
<path d="M125.385 113.023C139.827 98.5957 153.449 84.9873 166.957 71.4935C154.351 58.9003 153.253 55.3959 139.286 44.6205C128.106 35.9904 110.647 41.3781 102.106 52.7594C93.0902 64.7957 93.3525 80.3201 103.434 90.9645C113.729 101.838 114.123 101.773 125.385 113.023Z" fill="#00FFB8"/>
<path d="M195.261 145.268C184.179 156.338 168.36 156.6 157.147 145.857C139.164 128.613 111.82 127.729 93.4108 146.479C85.0175 155.028 69.608 155.83 59.3952 148.641C48.1495 140.715 44.3299 126.386 49.8872 114.661C58.1821 97.1222 79.5095 91.7345 95.0829 106.751C112.001 123.078 140.098 122.57 155.934 106.719C170.852 91.8 192.261 97.7445 200.736 112.86C206.015 122.276 203.802 136.736 195.277 145.268H195.261Z" fill="#32434A"/>
<path d="M36.8856 132.876L66.1198 162.08C69.5704 165.527 75.165 165.527 78.6156 162.08L107.85 132.876C111.3 129.429 111.3 123.841 107.85 120.393L78.6156 91.1898C75.165 87.7428 69.5704 87.7428 66.1198 91.1898L36.8857 120.393C33.435 123.84 33.435 129.429 36.8856 132.876Z" fill="#32434A"/>
<path d="M142.35 134.032L171.584 163.235C175.034 166.682 180.629 166.682 184.079 163.235L213.314 134.032C216.764 130.585 216.764 124.996 213.314 121.549L184.079 92.3452C180.629 88.8982 175.034 88.8982 171.584 92.3453L142.349 121.549C138.899 124.996 138.899 130.585 142.35 134.032Z" fill="#00FFFF"/>
<path d="M142.35 134.032L171.584 163.235C175.034 166.682 180.629 166.682 184.079 163.235L213.314 134.032C216.764 130.585 216.764 124.996 213.314 121.549L184.079 92.3452C180.629 88.8982 175.034 88.8982 171.584 92.3453L142.349 121.549C138.899 124.996 138.899 130.585 142.35 134.032Z" fill="#32434A"/>
</svg>
