<svg height="250" viewBox="0 0 250 250" width="250" xmlns="http://www.w3.org/2000/svg"><path d="m226.316406 8.351562-24.046875 19.59375 10.289063 12.007813zm0 0" fill="#0000cf"/><path d="m151.417969.222656 33.507812 65.007813-3.59375-40.125zm0 0" fill="#0000ab"/><path d="m151.417969.222656.050781.167969.023438-.007813 28.703124 98.972657 4.730469-34.125zm0 0" fill="#0014bf"/><path d="m151.46875.390625-17.140625 5.464844 45.867187 93.5-28.703124-98.972657zm0 0" fill="#0000cf"/><path d="m134.328125 5.855469-3.867187 62.03125 49.734374 31.46875zm0 0" fill="#0000e3"/><path d="m134.328125 5.855469-55.136719 73.699219 51.269532-11.667969zm0 0" fill="#0000cf"/><path d="m180.195312 99.355469-54.839843 24.015625 30.097656-5.464844zm0 0" fill="#0014bf"/><path d="m125.355469 123.371094-30.296875 8.363281 30.816406 8.359375zm0 0" fill="#001cd1"/><path d="m155.453125 117.90625-30.097656 5.464844.519531 16.722656zm0 0" fill="#0000ab"/><path d="m130.460938 67.886719-51.269532 11.667969 46.164063 43.816406zm0 0" fill="#0000ab"/><path d="m79.191406 79.554688 15.867188 52.179687 30.296875-8.363281zm0 0" fill="#0000cf"/><path d="m79.191406 79.554688.578125 70.171874 15.289063-17.992187zm0 0" fill="#0000ab"/><path d="m53.214844 93.617188-10.738282 18.464843 16.832032 40.988281zm0 0" fill="#001cd1"/><path d="m42.476562 112.082031-19.429687.40625 19.46875 18.746094zm0 0" fill="#0000ab"/><path d="m23.046875 112.496094 1.558594 12.964844 17.910156 5.808593v-.035156zm0 0" fill="#0000e3"/><path d="m23.046875 112.496094-9.578125 28.855468 11.136719-15.890624zm0 0" fill="#0000cf"/><path d="m0 147.628906 12.6875 3.351563.777344-9.628907zm0 0" fill="#0000ab"/><path d="m24.601562 125.460938-11.132812 15.890624-.777344 9.628907zm0 0" fill="#0000e3"/><path d="m42.578125 158.414062-.0625-27.136718zm0 0" fill="#404a80"/><path d="m42.476562 112.082031.039063 19.152344v.035156l.0625 27.144531 16.730469-5.34375zm0 0" fill="#0014bf"/><path d="m47.332031 189.195312-13.921875 9.054688 1.796875 31.382812zm0 0" fill="#0000cf"/><path d="m33.410156 198.25-5.199218 36.824219 6.996093-5.441407zm0 0" fill="#0000ab"/><path d="m22.558594 249.777344 14.523437-4.820313-1.875-15.324219zm0 0" fill="#0000cf"/><path d="m28.207031 235.074219-5.644531 14.703125 12.644531-20.144532zm0 0" fill="#0000e3"/><path d="m59.308594 153.070312-16.730469 5.34375-9.167969 39.835938zm0 0" fill="#0000ab"/><path d="m59.308594 153.070312-25.898438 45.179688 13.921875-9.054688 23.371094-15.210937zm0 0" fill="#0000e3"/><path d="m79.191406 79.554688-25.976562 14.0625 6.09375 59.453124zm0 0" fill="#0000cf"/><path d="m79.191406 79.554688-19.882812 73.515624 20.460937-3.34375zm0 0" fill="#0000e3"/><path d="m79.769531 149.726562-20.460937 3.34375 11.398437 20.914063zm0 0" fill="#0000ab"/><path d="m179.542969 117.644531-24.089844.261719 8.726563 37.6875zm0 0" fill="#0000cf"/><path d="m180.195312 99.355469-24.742187 18.550781 24.089844-.261719zm0 0" fill="#0000e3"/><path d="m155.453125 117.90625-4.710937 33.621094 13.4375 4.066406zm0 0" fill="#0014bf"/><path d="m150.742188 151.527344-5.8125 17.601562 19.25-13.535156zm0 0" fill="#0000cf"/><path d="m150.742188 151.527344-13.84375 1.292968-3.621094 28.863282zm0 0" fill="#0000cf"/><path d="m150.742188 151.527344-17.464844 30.15625 11.652344-12.554688zm0 0" fill="#0000ab"/><path d="m225.179688 1.960938-22.910157 25.984374 24.042969-19.59375zm0 0" fill="#0014bf"/><path d="m225.179688 1.960938 1.132812 6.390624 17.644531-7.890624zm0 0" fill="#0000bf"/><path d="m202.710938 49.359375 10.421874 11.855469 7.734376-3.667969 17.152343-8.144531zm0 0" fill="#0000bf"/><path d="m233.085938 43.019531-16.164063 3.375-14.210937 2.964844 35.308593.042969zm0 0" fill="#00009e"/><path d="m247.011719 23.289062-13.925781 19.730469 4.9375 6.382813zm0 0" fill="#0014bf"/><path d="m238.023438 49.402344 11.980468-23.871094-2.992187-2.242188zm0 0" fill="#0000e3"/><path d="m247.011719 23.289062 2.988281 2.242188-.503906-13.542969zm0 0" fill="#000f91"/><path d="m184.925781 65.230469-4.730469 34.125 8.132813 13.550781zm0 0" fill="#0000ab"/><path d="m213.132812 61.214844-28.207031 4.015625 3.402344 47.675781zm0 0" fill="#0000cf"/><path d="m181.332031 25.105469 3.59375 40.125 28.207031-4.015625zm0 0" fill="#0000e3"/><path d="m212.5625 39.953125-9.851562 9.40625 14.210937-2.964844zm0 0" fill="#0000ab"/><path d="m181.332031 25.105469 21.378907 24.253906 9.847656-9.40625zm0 0" fill="#0000cf"/><path d="m181.332031 25.105469 31.226563 14.847656-10.289063-12.007813zm0 0" fill="#0000ab"/><path d="m213.132812 61.214844-1.296874 75.496094 12.582031-60.703126zm0 0" fill="#0014bf"/><path d="m213.132812 61.214844-24.804687 51.691406 23.507813 23.804688zm0 0" fill="#0000e3"/><path d="m220.867188 57.539062-7.734376 3.675782 11.285157 14.792968zm0 0" fill="#0000ab"/><path d="m224.417969 76.007812-12.582031 60.703126 14.074218-10.433594zm0 0" fill="#0000ab"/><path d="m130.460938 67.886719-5.105469 55.484375 54.839843-24.015625zm0 0" fill="#0000cf"/><g fill="#170087"><path d="m40.628906 232.390625h1.1875v5.355469h.6875v-5.355469h1.1875v-.964844h-3.0625zm0 0"/><path d="m48.328125 231.425781h-.703125l-1.214844 4.640625-1.210937-4.640625h-.828125v6.320313h.679687v-4.300782l1.183594 4.300782h.359375l1.179688-4.300782v4.300782h.679687v-6.320313zm0 0"/></g></svg>