<?xml version="1.0" encoding="UTF-8"?>
<svg width="560px" height="176px" viewBox="0 0 560 176" version="1.1" xmlns="http://www.w3.org/2000/svg" xmlns:xlink="http://www.w3.org/1999/xlink">
    <title>Logo-light</title>
    <defs>
        <linearGradient x1="-2.22044605e-14%" y1="50%" x2="100%" y2="50%" id="linearGradient-1">
            <stop stop-color="#0BBDDA" offset="0%"></stop>
            <stop stop-color="#7D58F2" offset="38.6651967%"></stop>
            <stop stop-color="#FB71AE" offset="100%"></stop>
        </linearGradient>
    </defs>
    <g id="Page-1" stroke="none" stroke-width="1" fill="none" fill-rule="evenodd">
        <g id="Dark" transform="translate(-680.000000, -452.000000)">
            <g id="Logo-light" transform="translate(680.000000, 452.000000)">
                <path d="M49.9455426,0 L0,62.8137305 L17.8250956,141.140398 L90.0005653,176 L162.174904,141.140398 L180,62.8137305 L130.053327,0 L49.9455426,0 Z M64.4070927,11.3390372 L115.592907,11.3390372 L90.0005653,43.5248943 L64.4070927,11.3390372 Z M15.203226,61.87826 L52.668036,14.7622925 L82.769225,52.6188022 L60.3550095,80.8065148 L15.203226,61.87826 Z M130.230832,18.4089269 L163.73966,60.5515926 L118.475946,70.0582414 L130.230832,18.4089269 Z M97.2296444,52.6188022 L116.308579,28.6253994 L107.818877,65.9342336 L97.2296444,52.6188022 Z M90.0005653,61.7115761 L99.7610658,73.9883517 L76.3247847,78.9106278 L90.0005653,61.7115761 Z M120.047485,81.3133698 L166.407884,71.5765385 L154.369217,124.476549 L120.047485,81.3133698 Z M14.0726224,73.6946707 L53.0264373,90.0240181 L25.6307826,124.476549 L14.0726224,73.6946707 Z M31.569843,135.194207 L65.2640901,92.8190908 L103.528237,84.7819812 L86.0660649,161.51438 L31.569843,135.194207 Z M113.616612,91.4119163 L148.429026,135.194207 L98.1228212,159.490362 L113.616612,91.4119163 Z" id="Symbol" fill="url(#linearGradient-1)"></path>
                <path d="M273.938194,53.3308331 C290.843468,53.3308331 304.420598,67.8648673 304.420598,88.2646405 C304.420598,108.664414 290.843468,123.197357 273.938194,123.197357 C263.153749,123.197357 257.324094,118.544752 253.631639,113.519052 L253.263393,113.006844 L253.263393,113.006844 L252.909224,112.493064 C252.851332,112.407359 252.793999,112.321629 252.737212,112.235897 L252.402922,111.721635 L252.402922,111.721635 L252.24048,111.464789 L250.642274,111.464789 L250.642274,139.664828 C250.642274,144.177527 247.062469,147.851711 242.591749,147.994062 L242.322458,147.998343 L236.0004,147.998343 L236.0004,55.1977499 L250.376633,55.1977499 L250.376633,65.0644921 L252.24048,65.0644921 L252.568472,64.5392605 C252.624183,64.4517739 252.680424,64.3643263 252.737212,64.2769372 L253.08459,63.7534612 C253.143614,63.6663842 253.20321,63.5794048 253.263393,63.4925424 L253.631639,62.9729286 C253.819391,62.71398 254.012669,62.4564358 254.211842,62.2008228 L254.618161,61.6923277 C258.347755,57.1418545 264.067685,53.3308331 273.938194,53.3308331 Z M347.550493,53.3307241 C366.851987,53.3307241 381.62886,67.5975885 381.62886,88.2645314 C381.62886,108.931474 366.851987,123.198339 347.550493,123.198339 C328.248999,123.198339 313.473215,108.931474 313.473215,88.2645314 C313.473215,67.5975885 328.248999,53.3307241 347.550493,53.3307241 Z M424.757557,53.3307241 C444.059051,53.3307241 458.834835,67.5975885 458.834835,88.2645314 C458.834835,108.931474 444.059051,123.198339 424.757557,123.198339 C405.456063,123.198339 390.680279,108.931474 390.680279,88.2645314 C390.680279,67.5975885 405.456063,53.3307241 424.757557,53.3307241 Z M486.654614,27.9983431 L486.654614,121.331095 L472.01274,121.331095 L472.01274,36.3831112 C472.01274,31.840869 475.617291,28.1430317 480.117966,28.002487 L480.383725,27.9983431 L486.654614,27.9983431 Z M560.0004,55.1972046 L560.0004,66.9308637 L520.997861,108.664959 L551.639214,108.664959 C556.16865,108.664959 559.856117,112.27125 559.996268,116.773001 L560.0004,117.038822 L560.0004,121.330986 L501.696367,121.330986 L501.696367,109.597327 L540.831727,67.864322 L501.696367,67.864322 L501.696367,55.1972046 L560.0004,55.1972046 Z M270.077678,66.3981599 C258.497217,66.3981599 250.642274,74.6640647 250.642274,88.2646405 C250.642274,101.864126 258.497217,110.131121 270.077678,110.131121 C281.392497,110.131121 289.779812,102.264335 289.779812,88.2646405 C289.779812,74.2638553 281.392497,66.3981599 270.077678,66.3981599 Z M347.550493,66.7971697 C335.970032,66.7971697 328.116178,75.064165 328.116178,88.2645314 C328.116178,101.464898 335.970032,109.730803 347.550493,109.730803 C359.133131,109.730803 366.986985,101.464898 366.986985,88.2645314 C366.986985,75.064165 359.133131,66.7971697 347.550493,66.7971697 Z M424.757557,66.7971697 C413.176008,66.7971697 405.322154,75.064165 405.322154,88.2645314 C405.322154,101.464898 413.176008,109.730803 424.757557,109.730803 C436.339107,109.730803 444.192961,101.464898 444.192961,88.2645314 C444.192961,75.064165 436.339107,66.7971697 424.757557,66.7971697 Z" id="Logotype" fill="#FFFFFF"></path>
            </g>
        </g>
    </g>
</svg>