<svg height="250" viewBox="0 0 250 250" width="250" xmlns="http://www.w3.org/2000/svg" xmlns:xlink="http://www.w3.org/1999/xlink"><linearGradient id="a" gradientTransform="scale(248.375 250)" gradientUnits="userSpaceOnUse" x1="0" x2="1" y1=".5" y2=".5"><stop offset="0" stop-color="#0bbdda"/><stop offset=".386652" stop-color="#7d58f2"/><stop offset="1" stop-color="#fb71ae"/></linearGradient><path d="m68.917969 0-68.917969 89.222656 24.597656 111.261719 99.589844 49.515625 99.59375-49.515625 24.59375-111.261719-68.917969-89.222656zm19.957031 16.105469h70.628906l-35.316406 45.71875zm-67.898438 71.789062 51.699219-66.925781 41.535157 53.773438-30.929688 40.039062zm158.726563-61.746093 46.238281 59.863281-62.460937 13.503906zm-45.539063 48.59375 26.328126-34.082032-11.714844 52.996094zm-9.976562 12.917968 13.46875 17.4375-32.339844 6.992188zm41.460938 27.839844 63.972656-13.828125-16.613282 75.140625zm-146.230469-10.820312 53.75 23.195312-37.800781 48.9375zm24.144531 87.359374 46.492188-60.195312 52.800781-11.414062-24.09375 108.996093zm113.214844-62.191406 48.035156 62.191406-69.414062 34.507813zm0 0" fill="url(#a)" fill-rule="evenodd"/></svg>