<svg height="250" viewBox="0 0 250 250" width="250" xmlns="http://www.w3.org/2000/svg"><path d="m250 125c0 69.035156-55.964844 125-125 125s-125-55.964844-125-125 55.964844-125 125-125 125 55.964844 125 125zm0 0" fill="#152743"/><path d="m125.382812 64.96875c-10.28125 0-18.617187-5.726562-18.617187-12.796875s8.335937-12.796875 18.617187-12.796875 18.609376 5.726562 18.609376 12.796875-8.328126 12.796875-18.609376 12.796875zm-9.632812 142.84375v-136.6875h41.5c1.539062 0 2.625 1.148438 2.625 2.6875v75.84375c0 1.53125-1.09375 2.84375-2.625 2.84375h-22.875v55.3125c0 1.539062-1.171875 2.9375-2.710938 2.9375h-13.03125c-1.585937-.0625-2.847656-1.34375-2.882812-2.929688zm-7-55.320312h-15.703125c-1.578125-.015626-2.863281-1.269532-2.921875-2.84375v-75.835938c0-1.539062 1.382812-2.6875 2.914062-2.6875h15.710938v81.375zm0 0" fill="#fff"/></svg>