<?xml version="1.0" encoding="UTF-8"?>
<svg id="_レイヤー_2" data-name="レイヤー 2" xmlns="http://www.w3.org/2000/svg" viewBox="0 0 107.36 107.36">
  <defs>
    <style>
      .cls-1 {
        fill: #fff;
      }

      .cls-2 {
        fill: #b10000;
      }
    </style>
  </defs>
  <g id="_レイヤー_1-2" data-name="レイヤー 1">
    <g>
      <circle class="cls-2" cx="53.68" cy="53.68" r="53.68" transform="translate(-22.23 53.68) rotate(-45)"/>
      <path class="cls-1" d="M86.09,25.97L56.7,9c-.64-.37-1.43-.37-2.07,0l-14.7,8.49-14.7,8.49c-.64,.37-1.03,1.05-1.03,1.79v60.33c0,.74,.39,1.42,1.03,1.79l14.7,8.49c.32,.18,.68,.28,1.03,.28s.71-.09,1.03-.28l14.7-8.49c.64-.37,1.03-1.05,1.03-1.79v-8.22l28.36-16.37c.15-.08,.28-.19,.39-.3,.03-.03,.06-.07,.09-.1,.08-.09,.16-.19,.22-.29,.02-.04,.05-.08,.07-.12,.07-.14,.14-.28,.18-.43,0,0,0,0,0-.01,.04-.16,.06-.32,.06-.48,0-.02,0-.04,0-.05V27.76c0-.74-.39-1.42-1.03-1.79Zm-30.43-12.79l25.26,14.58-7.92,4.57-2.64,1.52-13.66-7.89h0l-8.84-5.1-2.76-1.59,10.56-6.1Zm-16.77,40.04v39.77l-10.56-6.1V31.34l10.56,6.1v15.78Zm2.07-19.36l-.66-.38-9.91-5.72,10.56-6.1,10.56,6.1-10.56,6.1Zm12.63,53.03l-10.56,6.1v-19.22l10.56,6.1v7.02Zm0-11.8l-10.56-6.1v-12.19l10.56,6.1v12.19Zm2.07-15.78l-12.63-7.29v-14.58l12.63-7.29,12.63,7.29v14.58l-12.63,7.29Zm27.33,1.19l-6.31,3.65-18.94,10.94v-12.2l25.26-14.58v12.2Zm0-16.97l-1.56,.9-9,5.2v-12.2l2.64-1.52,7.92-4.57v12.2Z"/>
    </g>
  </g>
</svg>