<svg height="250" viewBox="0 0 250 250" width="250" xmlns="http://www.w3.org/2000/svg"><path d="m0 0h250v250h-250z" fill="#0e0122"/><path d="m83.332031 68.75c.535157 1.53125 3.035157 1.875 4.429688 2.394531 3.328125 1.234375 6.300781 1.960938 7.667969 5.679688 2.433593 6.613281 1.675781 13.941406 1.976562 20.832031.71875 16.4375.25 33.011719.25 49.480469 0 5.703125-.167969 11.511719-.738281 17.1875-.351563 3.507812-.566407 7.433593-2.101563 10.675781-1.273437 2.683594-4.082031 4.136719-6.796875 4.976562-1.445312.449219-3.796875.757813-4.6875 2.054688h55.46875c-1.09375-1.445312-4.539062-1.480469-6.25-1.824219-5.269531-1.050781-10.804687-2.117187-12.835937-7.8125-2.730469-7.640625-2.203125-16.003906-2.539063-23.957031-.742187-17.660156-.199219-35.460938.011719-53.125.070312-6.011719.265625-11.972656.53125-17.96875.082031-1.859375-.09375-5.355469 2.335938-5.464844 6.371093-.277344 13.347656.613282 19.007812 3.722656 10.734375 5.898438 13.773438 17.664063 13.292969 29.085938-.226563 5.3125-.972657 10.507812-3.890625 15.105469-5.121094 8.070312-15.128906 13.203125-24.507813 14.582031.226563 1.957031 1.835938 1.417969 3.386719 1.226562 3.226562-.394531 6.433594-.796874 9.636719-1.375 12.390625-2.242187 26.03125-7.503906 33.058593-18.601562 5.730469-9.050781 6.238282-22.664062.253907-31.769531-3.207031-4.875-8.171875-8.335938-13.523438-10.519531-11.355469-4.640626-23.363281-4.585938-35.414062-4.585938zm0 0" fill="#dcb6f0"/><path d="m134.375 68.75v.261719h1.300781zm0 0" fill="#9b76b6"/><path d="m135.851562 68.835938.171876.085937zm0 0" fill="#64579a"/><path d="m136.199219 68.75v.261719h1.039062zm0 0" fill="#4b3066"/><path d="m138.542969 69.011719v.257812h.78125zm0 0" fill="#9b76b6"/><path d="m139.324219 69.011719.257812.257812zm0 0" fill="#64579a"/><path d="m139.757812 69.097656.171876.085938zm0 0" fill="#4b3066"/><path d="m141.144531 69.269531.261719.261719zm0 0" fill="#9b76b6"/><path d="m141.578125 69.359375.175781.085937zm0 0" fill="#64579a"/><path d="m142.101562 69.359375.171876.085937zm-58.769531.171875.261719.261719zm0 0" fill="#4b3066"/><path d="m83.59375 69.53125.261719.261719zm59.546875.085938.175781.085937zm0 0" fill="#9b76b6"/><path d="m143.488281 69.53125.261719.261719zm0 0" fill="#64579a"/><path d="m143.75 69.53125.261719.261719zm-59.636719.261719.261719.257812zm0 0" fill="#4b3066"/><path d="m84.375 69.792969.261719.257812zm60.328125.085937.175781.085938zm0 0" fill="#9b76b6"/><path d="m145.050781 69.792969.261719.257812zm0 0" fill="#64579a"/><path d="m145.3125 69.792969.261719.257812zm0 0" fill="#4b3066"/><path d="m84.894531 70.050781.261719.261719zm0 0" fill="#64579a"/><path d="m146.09375 70.050781.261719.261719zm0 0" fill="#9b76b6"/><path d="m146.355469 70.050781.257812.261719zm0 0" fill="#64579a"/><path d="m146.613281 70.050781.261719.261719zm-61.195312.261719.257812.261719zm0 0" fill="#4b3066"/><path d="m85.675781 70.3125.261719.261719zm0 0" fill="#64579a"/><path d="m147.394531 70.3125.261719.261719zm0 0" fill="#9b76b6"/><path d="m147.65625 70.3125.261719.261719zm0 0" fill="#64579a"/><path d="m147.917969 70.3125.257812.261719zm-61.71875.261719.257812.257812zm0 0" fill="#4b3066"/><path d="m86.457031 70.574219.261719.257812zm61.980469 0 .261719.257812zm0 0" fill="#9b76b6"/><path d="m148.699219 70.574219.257812.257812zm0 0" fill="#64579a"/><path d="m148.957031 70.574219.261719.257812zm-61.976562.257812.257812.261719zm0 0" fill="#4b3066"/><path d="m87.238281 70.832031.261719.261719zm62.242188 0 .257812.261719zm0 0" fill="#9b76b6"/><path d="m149.738281 70.832031.261719.261719zm0 0" fill="#64579a"/><path d="m150 70.832031.261719.261719zm0 0" fill="#4b3066"/><path d="m87.761719 71.09375.257812.261719zm0 0" fill="#64579a"/><path d="m150.519531 71.09375.261719.261719zm0 0" fill="#9b76b6"/><path d="m150.78125 71.09375.261719.261719zm0 0" fill="#64579a"/><path d="m151.042969 71.09375.257812.261719zm-62.761719.261719.261719.257812zm0 0" fill="#4b3066"/><path d="m88.542969 71.355469.257812.257812zm0 0" fill="#64579a"/><path d="m151.5625 71.355469.261719.257812zm0 0" fill="#9b76b6"/><path d="m151.824219 71.355469.257812.257812zm-62.5.257812.257812.261719zm0 0" fill="#4b3066"/><path d="m89.582031 71.613281.261719.261719zm62.761719 0 .261719.261719zm0 0" fill="#9b76b6"/><path d="m152.605469 71.613281.257812.261719zm-62.5.261719.257812.261719zm0 0" fill="#4b3066"/><path d="m90.363281 71.875.261719.261719zm28.125 0 .261719.261719zm0 0" fill="#64579a"/><path d="m123.4375 71.875v.261719h1.300781zm0 0" fill="#4b3066"/><path d="m124.914062 71.960938.171876.085937zm0 0" fill="#64579a"/><path d="m125.261719 71.875v.261719h.78125zm27.863281 0 .261719.261719zm0 0" fill="#9b76b6"/><path d="m153.386719 71.875.257812.261719zm-62.5.261719.257812.257812zm0 0" fill="#4b3066"/><path d="m91.144531 72.136719.261719.257812zm0 0" fill="#9b76b6"/><path d="m127.257812 72.222656.171876.085938zm0 0" fill="#4b3066"/><path d="m127.605469 72.136719.257812.257812zm0 0" fill="#64579a"/><path d="m128.039062 72.222656.171876.085938zm25.867188-.085937.261719.257812zm0 0" fill="#9b76b6"/><path d="m154.167969 72.136719.257812.257812zm-62.761719.257812.261719.261719zm0 0" fill="#4b3066"/><path d="m91.667969 72.394531.257812.261719zm26.5625 0 .257812.261719zm0 0" fill="#9b76b6"/><path d="m129.167969 72.394531.257812.261719zm0 0" fill="#4b3066"/><path d="m129.425781 72.394531.261719.261719zm0 0" fill="#64579a"/><path d="m129.6875 72.394531.261719.261719zm25 0 .261719.261719zm0 0" fill="#9b76b6"/><path d="m154.949219 72.394531.257812.261719zm-63.023438.261719.261719.261719zm0 0" fill="#4b3066"/><path d="m92.1875 72.65625.261719.261719zm0 0" fill="#9b76b6"/><path d="m118.230469 72.65625.257812.261719zm0 0" fill="#64579a"/><path d="m130.640625 72.742188.175781.085937zm0 0" fill="#4b3066"/><path d="m130.988281 72.65625.261719.261719zm24.21875 0 .261719.261719zm0 0" fill="#9b76b6"/><path d="m155.46875 72.65625.261719.261719zm-63.019531.261719.257812.257812zm0 0" fill="#64579a"/><path d="m118.230469 72.917969.257812.257812zm13.539062 0 .261719.257812zm0 0" fill="#4b3066"/><path d="m132.03125 72.917969.261719.257812zm0 0" fill="#64579a"/><path d="m155.988281 72.917969.261719.257812zm0 0" fill="#9b76b6"/><path d="m156.25 72.917969.261719.257812zm-63.542969.257812.261719.261719zm0 0" fill="#4b3066"/><path d="m92.96875 73.175781.261719.261719zm0 0" fill="#9b76b6"/><path d="m132.8125 73.175781.261719.261719zm0 0" fill="#4b3066"/><path d="m133.074219 73.175781.257812.261719zm23.4375 0 .257812.261719zm0 0" fill="#9b76b6"/><path d="m156.769531 73.175781.261719.261719zm0 0" fill="#4b3066"/><path d="m93.230469 73.4375.257812.261719zm0 0" fill="#9b76b6"/><path d="m133.59375 73.4375.261719.261719zm0 0" fill="#4b3066"/><path d="m133.855469 73.4375.257812.261719zm0 0" fill="#64579a"/><path d="m134.113281 73.4375.261719.261719zm0 0" fill="#9b76b6"/><path d="m157.292969 73.4375.257812.261719zm0 0" fill="#64579a"/><path d="m93.488281 73.699219.261719.257812zm24.566407.171875.085937.175781zm0 0" fill="#9b76b6"/><path d="m134.636719 73.699219.257812.257812zm0 0" fill="#64579a"/><path d="m134.894531 73.699219.261719.257812zm0 0" fill="#9b76b6"/><path d="m157.8125 73.699219.261719.257812zm0 0" fill="#64579a"/><path d="m158.074219 73.699219.257812.257812zm0 0" fill="#4b3066"/><path d="m93.75 73.957031.261719.261719zm0 0" fill="#9b76b6"/><path d="m135.417969 73.957031.257812.261719zm0 0" fill="#64579a"/><path d="m135.675781 73.957031.261719.261719zm22.65625 0 .261719.261719zm0 0" fill="#9b76b6"/><path d="m158.59375 73.957031.261719.261719zm0 0" fill="#4b3066"/><path d="m94.011719 74.21875.257812.261719zm0 0" fill="#9b76b6"/><path d="m117.96875 74.21875v.78125h.261719zm17.96875 0 .261719.261719zm0 0" fill="#4b3066"/><path d="m136.199219 74.21875.257812.261719zm22.65625 0 .257812.261719zm0 0" fill="#9b76b6"/><path d="m159.113281 74.21875.261719.261719zm0 0" fill="#4b3066"/><path d="m136.71875 74.480469.261719.257812zm0 0" fill="#64579a"/><path d="m136.980469 74.480469.257812.257812zm0 0" fill="#9b76b6"/><path d="m159.375 74.480469.261719.257812zm0 0" fill="#64579a"/><path d="m159.636719 74.480469.257812.257812zm-65.367188.257812.261719.261719zm42.96875 0 .261719.261719zm0 0" fill="#4b3066"/><path d="m137.5 74.738281.261719.261719zm0 0" fill="#9b76b6"/><path d="m159.894531 74.738281.261719.261719zm-65.363281.261719.261719.261719zm0 0" fill="#64579a"/><path d="m137.761719 75 .257812.261719zm0 0" fill="#4b3066"/><path d="m138.019531 75 .261719.261719zm0 0" fill="#9b76b6"/><path d="m160.417969 75 .257812.261719zm0 0" fill="#64579a"/><path d="m138.28125 75.261719.261719.257812zm0 0" fill="#4b3066"/><path d="m138.542969 75.261719.257812.257812zm0 0" fill="#9b76b6"/><path d="m160.9375 75.261719.261719.257812zm-66.144531.257812.257812.261719zm44.007812 0 .261719.261719zm0 0" fill="#4b3066"/><path d="m139.0625 75.519531.261719.261719zm22.136719 0 .257812.261719zm0 0" fill="#9b76b6"/><path d="m161.457031 75.519531.261719.261719zm-22.132812.261719.257812.261719zm0 0" fill="#4b3066"/><path d="m139.582031 75.78125.261719.261719zm0 0" fill="#9b76b6"/><path d="m161.71875 75.78125.261719.261719zm-66.667969.261719.261719.257812zm0 0" fill="#64579a"/><path d="m117.707031 76.042969v.78125h.261719zm0 0" fill="#9b76b6"/><path d="m139.84375 76.042969.261719.257812zm0 0" fill="#64579a"/><path d="m162.238281 76.042969.261719.257812zm0 0" fill="#4b3066"/><path d="m140.363281 76.300781.261719.261719zm22.136719 0 .261719.261719zm0 0" fill="#64579a"/><path d="m95.3125 76.5625.261719.261719zm0 0" fill="#9b76b6"/><path d="m140.625 76.5625.261719.261719zm22.394531 0 .261719.261719zm-67.707031.261719.261719.257812zm0 0" fill="#4b3066"/><path d="m117.707031 76.824219.261719.257812zm23.4375 0 .261719.257812zm22.136719 0 .261719.257812zm0 0" fill="#64579a"/><path d="m117.707031 77.082031v1.042969h.261719zm23.699219 0 .261719.261719zm22.394531 0 .261719.261719zm0 0" fill="#4b3066"/><path d="m141.925781 77.34375.261719.261719zm22.136719 0 .261719.261719zm-68.488281.261719.257812.257812zm0 0" fill="#64579a"/><path d="m142.1875 77.605469.261719.257812zm0 0" fill="#4b3066"/><path d="m164.324219 77.605469.257812.257812zm0 0" fill="#9b76b6"/><path d="m95.574219 77.863281.257812.261719zm46.875 0 .257812.261719zm22.394531 0 .261719.261719zm0 0" fill="#4b3066"/><path d="m142.96875 78.125.261719.261719zm0 0" fill="#9b76b6"/><path d="m165.105469 78.125.257812.261719zm0 0" fill="#4b3066"/><path d="m95.832031 78.386719.261719.257812zm0 0" fill="#9b76b6"/><path d="m143.230469 78.386719.257812.257812zm22.132812 0 .261719.257812zm-69.53125.257812.261719.261719zm0 0" fill="#64579a"/><path d="m143.488281 78.644531.261719.261719zm0 0" fill="#4b3066"/><path d="m165.625 78.644531.261719.261719zm0 0" fill="#9b76b6"/><path d="m95.832031 78.90625.261719.261719zm47.917969 0 .261719.261719zm0 0" fill="#4b3066"/><path d="m165.886719 78.90625.257812.261719zm0 0" fill="#9b76b6"/><path d="m166.144531 78.90625.261719.261719zm-22.132812.261719.257812.257812zm22.394531 0 .261719.257812zm0 0" fill="#4b3066"/><path d="m96.179688 79.601562.085937.171876zm0 0" fill="#9b76b6"/><path d="m144.269531 79.425781.261719.261719zm22.398438 0 .257812.261719zm0 0" fill="#4b3066"/><path d="m117.449219 79.6875v1.300781h.257812zm0 0" fill="#9b76b6"/><path d="m144.53125 79.6875.261719.261719zm22.394531 0 .261719.261719zm-70.746093.433594.085937.175781zm48.613281-.171875.257812.257812zm22.394531 0 .261719.257812zm-22.136719.257812.261719.261719zm22.398438 0 .257812.261719zm-22.136719.261719.261719.261719zm22.394531 0 .261719.261719zm-22.132812.261719.257812.257812zm22.394531 0 .261719.257812zm0 0" fill="#4b3066"/><path d="m96.355469 80.988281.257812.261719zm0 0" fill="#9b76b6"/><path d="m117.535156 81.164062.085938.171876zm28.296875-.175781.261719.261719zm-49.476562.261719.257812.261719zm49.738281 0 .261719.261719zm0 0" fill="#64579a"/><path d="m168.230469 81.25.257812.261719zm0 0" fill="#9b76b6"/><path d="m96.441406 81.683594.085938.175781zm21.007813-.171875v1.5625h.257812zm0 0" fill="#4b3066"/><path d="m146.355469 81.511719.257812.257812zm22.132812 0 .261719.257812zm0 0" fill="#9b76b6"/><path d="m168.75 81.769531.261719.261719zm0 0" fill="#64579a"/><path d="m146.613281 82.03125.261719.261719zm22.398438 0 .257812.261719zm0 0" fill="#4b3066"/><path d="m146.875 82.292969.261719.257812zm0 0" fill="#64579a"/><path d="m169.269531 82.292969.261719.257812zm0 0" fill="#4b3066"/><path d="m96.703125 82.726562.085937.171876zm50.433594-.175781.257812.261719zm22.132812 0 .261719.261719zm.261719.261719.261719.261719zm0 0" fill="#9b76b6"/><path d="m96.613281 83.074219.261719.257812zm0 0" fill="#64579a"/><path d="m147.394531 83.074219.261719.257812zm22.398438 0 .257812.257812zm-73.089844.433593.085937.171876zm0 0" fill="#4b3066"/><path d="m147.65625 83.332031.261719.261719zm0 0" fill="#9b76b6"/><path d="m147.65625 83.59375.261719.261719zm0 0" fill="#4b3066"/><path d="m170.050781 83.59375.261719.261719zm0 0" fill="#9b76b6"/><path d="m147.917969 83.855469.257812.257812zm0 0" fill="#64579a"/><path d="m170.3125 83.855469.261719.257812zm-22.136719.519531.261719.261719zm0 0" fill="#4b3066"/><path d="m170.574219 84.375.257812.261719zm-73.699219.261719v.78125h.261719zm51.5625 0 .261719.257812zm0 0" fill="#9b76b6"/><path d="m170.832031 84.636719.261719.257812zm-22.394531.257812.261719.261719zm0 0" fill="#4b3066"/><path d="m170.832031 84.894531.261719.261719zm-22.132812.261719.257812.261719zm0 0" fill="#9b76b6"/><path d="m171.09375 85.15625.261719.261719zm0 0" fill="#4b3066"/><path d="m96.875 85.417969.261719.257812zm0 0" fill="#64579a"/><path d="m117.1875 85.417969.261719.257812zm0 0" fill="#9b76b6"/><path d="m148.699219 85.417969.257812.257812zm-51.824219.257812v1.042969h.261719zm0 0" fill="#4b3066"/><path d="m148.957031 85.675781.261719.261719zm0 0" fill="#9b76b6"/><path d="m171.355469 85.675781.257812.261719zm0 0" fill="#64579a"/><path d="m117.1875 85.9375v2.082031h.261719zm0 0" fill="#9b76b6"/><path d="m148.957031 85.9375.261719.261719zm0 0" fill="#4b3066"/><path d="m149.21875 86.199219.261719.257812zm0 0" fill="#9b76b6"/><path d="m171.613281 86.199219.261719.257812zm0 0" fill="#64579a"/><path d="m149.21875 86.457031.261719.261719zm0 0" fill="#4b3066"/><path d="m149.480469 86.71875.257812.261719zm0 0" fill="#9b76b6"/><path d="m171.875 86.71875.261719.261719zm-22.394531.261719.257812.257812zm0 0" fill="#4b3066"/><path d="m171.875 86.980469.261719.257812zm0 0" fill="#9b76b6"/><path d="m172.136719 87.238281.257812.261719zm0 0" fill="#4b3066"/><path d="m149.738281 87.5.261719.261719zm0 0" fill="#64579a"/><path d="m172.136719 87.5.257812.261719zm0 0" fill="#9b76b6"/><path d="m117.1875 88.019531v1.304688h.261719zm0 0" fill="#64579a"/><path d="m150 88.019531.261719.261719zm0 0" fill="#9b76b6"/><path d="m172.394531 88.019531.261719.261719zm-22.394531.261719.261719.261719zm0 0" fill="#64579a"/><path d="m172.394531 88.28125.261719.261719zm0 0" fill="#9b76b6"/><path d="m172.65625 88.542969.261719.257812zm0 0" fill="#4b3066"/><path d="m150.261719 88.800781.257812.261719zm22.394531 0 .261719.261719zm-75.519531.261719v1.824219h.257812zm0 0" fill="#9b76b6"/><path d="m150.261719 89.0625.257812.261719zm-33.074219.261719v3.125h.261719zm55.730469 0 .257812.257812zm0 0" fill="#4b3066"/><path d="m150.519531 89.582031.261719.261719zm22.398438 0 .257812.261719zm0 0" fill="#9b76b6"/><path d="m150.519531 89.84375.261719.261719zm0 0" fill="#64579a"/><path d="m173.175781 90.105469.261719.257812zm0 0" fill="#4b3066"/><path d="m150.78125 90.363281.261719.261719zm0 0" fill="#9b76b6"/><path d="m173.175781 90.363281.261719.261719zm-22.394531.261719.261719.261719zm0 0" fill="#64579a"/><path d="m173.175781 90.625.261719.261719zm0 0" fill="#9b76b6"/><path d="m97.136719 90.886719v1.039062h.257812zm0 0" fill="#64579a"/><path d="m150.78125 90.886719.261719.257812zm22.65625.257812.261719.261719zm0 0" fill="#4b3066"/><path d="m151.042969 91.40625.257812.261719zm22.480469.171875.085937.175781zm0 0" fill="#9b76b6"/><path d="m151.042969 91.667969.257812.257812zm0 0" fill="#64579a"/><path d="m97.136719 91.925781v2.34375h.257812zm53.90625 0 .257812.261719zm22.65625.261719.257812.261719zm0 0" fill="#4b3066"/><path d="m151.390625 92.621094.085937.175781zm0 0" fill="#9b76b6"/><path d="m173.699219 92.449219.257812.257812zm0 0" fill="#64579a"/><path d="m173.785156 92.882812.085938.171876zm0 0" fill="#9b76b6"/><path d="m151.390625 93.140625.085937.175781zm22.65625.523437.085937.171876zm0 0" fill="#4b3066"/><path d="m151.648438 93.921875.085937.175781zm0 0" fill="#9b76b6"/><path d="m173.957031 94.011719.261719.257812zm-22.394531.257812.261719.261719zm0 0" fill="#64579a"/><path d="m174.046875 94.445312.085937.171876zm0 0" fill="#9b76b6"/><path d="m151.5625 94.53125.261719.261719zm0 0" fill="#4b3066"/><path d="m151.910156 95.484375.085938.175781zm0 0" fill="#9b76b6"/><path d="m174.304688 95.484375.085937.175781zm0 0" fill="#4b3066"/><path d="m151.910156 96.007812.085938.171876zm22.308594-.175781v.78125h.261719zm0 0" fill="#64579a"/><path d="m151.910156 96.527344.085938.175781zm0 0" fill="#4b3066"/><path d="m174.21875 96.613281v1.042969h.261719zm-57.292969.261719v48.4375h.261719v-43.75zm35.15625.519531v.78125h.261719zm0 0" fill="#9b76b6"/><path d="m152.082031 98.175781v.78125h.261719zm0 0" fill="#64579a"/><path d="m97.394531 98.699219v4.425781h.261719zm0 0" fill="#9b76b6"/><path d="m152.082031 98.957031v1.042969h.261719zm0 0" fill="#4b3066"/><path d="m174.21875 102.082031v.78125h.261719zm-21.875.261719v1.300781h.261719zm0 0" fill="#9b76b6"/><path d="m174.304688 103.039062.085937.171876zm-76.910157.085938v2.863281h.261719zm0 0" fill="#64579a"/><path d="m174.21875 103.386719v.78125h.261719zm0 0" fill="#4b3066"/><path d="m174.046875 104.859375.085937.175781zm0 0" fill="#9b76b6"/><path d="m173.957031 105.207031.261719.261719zm0 0" fill="#64579a"/><path d="m173.957031 105.46875.261719.261719zm-76.5625.519531v38.28125h.261719v-26.820312c0-3.25.992188-8.476563-.261719-11.460938m54.6875 0v1.042969h.261719zm0 0" fill="#4b3066"/><path d="m173.699219 106.25.257812.261719zm0 0" fill="#9b76b6"/><path d="m173.699219 106.511719.257812.257812zm0 0" fill="#64579a"/><path d="m173.699219 106.769531.257812.261719zm0 0" fill="#4b3066"/><path d="m152.171875 107.203125.085937.175781zm0 0" fill="#64579a"/><path d="m173.4375 107.292969.261719.257812zm-21.355469.257812v.78125h.261719zm0 0" fill="#9b76b6"/><path d="m173.4375 107.550781.261719.261719zm0 0" fill="#64579a"/><path d="m173.4375 107.8125.261719.261719zm0 0" fill="#4b3066"/><path d="m173.175781 108.332031.261719.261719zm0 0" fill="#9b76b6"/><path d="m173.265625 108.765625.085937.175781zm-21.355469.261719.085938.175781zm0 0" fill="#4b3066"/><path d="m172.917969 109.113281.257812.261719zm0 0" fill="#9b76b6"/><path d="m151.910156 109.546875.085938.175781zm21.007813-.171875.257812.261719zm0 0" fill="#64579a"/><path d="m172.917969 109.636719.257812.257812zm0 0" fill="#4b3066"/><path d="m151.910156 110.070312.085938.171876zm20.746094-.175781.261719.261719zm0 0" fill="#9b76b6"/><path d="m172.65625 110.15625.261719.261719zm0 0" fill="#64579a"/><path d="m172.65625 110.417969.261719.257812zm-21.007812.433593.085937.171876zm0 0" fill="#4b3066"/><path d="m172.394531 110.675781.261719.261719zm0 0" fill="#9b76b6"/><path d="m172.394531 110.9375.261719.261719zm0 0" fill="#4b3066"/><path d="m151.5625 111.199219.261719.257812zm0 0" fill="#64579a"/><path d="m172.136719 111.199219.257812.257812zm-20.574219.257812.261719.261719zm0 0" fill="#9b76b6"/><path d="m172.136719 111.457031.257812.261719zm0 0" fill="#4b3066"/><path d="m171.960938 111.890625.085937.175781zm0 0" fill="#9b76b6"/><path d="m151.300781 111.980469.261719.257812zm0 0" fill="#4b3066"/><path d="m151.300781 112.238281.261719.261719zm0 0" fill="#64579a"/><path d="m171.875 112.238281.261719.261719zm0 0" fill="#4b3066"/><path d="m151.300781 112.5.261719.261719zm20.3125 0 .261719.261719zm0 0" fill="#9b76b6"/><path d="m171.613281 112.761719.261719.257812zm-20.570312.257812.257812.261719zm0 0" fill="#4b3066"/><path d="m171.355469 113.019531.257812.261719zm0 0" fill="#9b76b6"/><path d="m151.042969 113.28125.257812.261719zm0 0" fill="#64579a"/><path d="m171.355469 113.28125.257812.261719zm0 0" fill="#4b3066"/><path d="m151.042969 113.542969.257812.257812zm20.050781 0 .261719.257812zm0 0" fill="#9b76b6"/><path d="m171.09375 113.800781.261719.261719zm-20.3125.261719.261719.261719zm0 0" fill="#4b3066"/><path d="m170.832031 114.0625.261719.261719zm0 0" fill="#64579a"/><path d="m150.78125 114.324219.261719.257812zm19.792969 0 .257812.257812zm0 0" fill="#9b76b6"/><path d="m170.832031 114.324219.261719.257812zm-.257812.257812.257812.261719zm-20.054688.261719.261719.261719zm0 0" fill="#4b3066"/><path d="m170.3125 114.84375.261719.261719zm-19.792969.261719.261719.257812zm0 0" fill="#9b76b6"/><path d="m170.3125 115.105469.261719.257812zm0 0" fill="#4b3066"/><path d="m170.050781 115.363281.261719.261719zm0 0" fill="#64579a"/><path d="m150.261719 115.625.257812.261719zm0 0" fill="#4b3066"/><path d="m169.792969 115.625.257812.261719zm0 0" fill="#9b76b6"/><path d="m170.050781 115.625.261719.261719zm0 0" fill="#4b3066"/><path d="m150.261719 115.886719.257812.257812zm0 0" fill="#9b76b6"/><path d="m169.792969 115.886719.257812.257812zm-19.792969.257812.261719.261719zm0 0" fill="#4b3066"/><path d="m169.53125 116.144531-.261719.523438zm0 0" fill="#9b76b6"/><path d="m150 116.40625.261719.261719zm0 0" fill="#64579a"/><path d="m169.53125 116.40625.261719.261719zm-.261719.261719.261719.257812zm0 0" fill="#4b3066"/><path d="m149.738281 116.925781.261719.261719zm19.273438 0 .257812.261719zm0 0" fill="#64579a"/><path d="m149.738281 117.1875.261719.261719zm19.011719 0 .261719.261719zm0 0" fill="#9b76b6"/><path d="m149.480469 117.449219.257812.257812zm19.269531 0 .261719.257812zm0 0" fill="#4b3066"/><path d="m149.480469 117.707031.257812.261719zm0 0" fill="#9b76b6"/><path d="m168.488281 117.707031.261719.261719zm-19.269531.261719.261719.261719zm0 0" fill="#4b3066"/><path d="m168.230469 117.96875.257812.261719zm0 0" fill="#64579a"/><path d="m149.21875 118.230469.261719.257812zm18.75 0-.519531.78125zm0 0" fill="#9b76b6"/><path d="m148.957031 118.488281.261719.261719zm19.011719 0 .261719.261719zm-.261719.261719.261719.261719zm0 0" fill="#4b3066"/><path d="m148.699219 119.011719.257812.257812zm0 0" fill="#64579a"/><path d="m167.449219 119.011719.257812.257812zm-19.011719.257812.261719.261719zm0 0" fill="#4b3066"/><path d="m148.699219 119.269531.257812.261719zm0 0" fill="#9b76b6"/><path d="m167.1875 119.269531.261719.261719zm0 0" fill="#4b3066"/><path d="m148.4375 119.53125.261719.261719zm18.488281 0 .261719.261719zm0 0" fill="#64579a"/><path d="m148.175781 119.792969.261719.257812zm0 0" fill="#4b3066"/><path d="m166.667969 119.792969.257812.257812zm-.261719.257812.261719.261719zm-18.488281.261719.257812.261719zm18.226562 0 .261719.261719zm0 0" fill="#64579a"/><path d="m147.65625 120.574219-.261719.519531zm0 0" fill="#4b3066"/><path d="m165.886719 120.574219.257812.257812zm0 0" fill="#64579a"/><path d="m147.65625 120.832031.261719.261719zm0 0" fill="#9b76b6"/><path d="m165.625 120.832031.261719.261719zm0 0" fill="#64579a"/><path d="m147.394531 121.09375.261719.261719zm0 0" fill="#9b76b6"/><path d="m165.363281 121.09375.261719.261719zm-18.226562.261719.257812.257812zm17.96875 0 .257812.257812zm0 0" fill="#64579a"/><path d="m146.875 121.613281.261719.261719zm0 0" fill="#4b3066"/><path d="m164.84375 121.613281.261719.261719zm0 0" fill="#64579a"/><path d="m164.582031 121.875.261719.261719zm0 0" fill="#4b3066"/><path d="m146.613281 122.136719.261719.257812zm0 0" fill="#9b76b6"/><path d="m164.324219 122.136719.257812.257812zm0 0" fill="#4b3066"/><path d="m146.355469 122.394531.257812.261719zm0 0" fill="#64579a"/><path d="m163.800781 122.394531.261719.261719zm0 0" fill="#9b76b6"/><path d="m164.0625 122.394531.261719.261719zm-17.96875.261719.261719.261719zm0 0" fill="#4b3066"/><path d="m163.542969 122.65625.257812.261719zm0 0" fill="#9b76b6"/><path d="m145.832031 122.917969.261719.257812zm0 0" fill="#4b3066"/><path d="m163.28125 122.917969.261719.257812zm0 0" fill="#64579a"/><path d="m145.574219 123.175781.257812.261719zm0 0" fill="#4b3066"/><path d="m163.019531 123.175781.261719.261719zm0 0" fill="#64579a"/><path d="m145.574219 123.4375.257812.261719zm16.925781 0 .261719.261719zm0 0" fill="#9b76b6"/><path d="m162.761719 123.4375.257812.261719zm0 0" fill="#4b3066"/><path d="m145.3125 123.699219.261719.257812zm16.925781 0 .261719.257812zm0 0" fill="#9b76b6"/><path d="m145.050781 123.957031.261719.261719zm16.929688 0 .257812.261719zm-17.1875.261719.257812.261719zm0 0" fill="#64579a"/><path d="m161.457031 124.21875.261719.261719zm0 0" fill="#9b76b6"/><path d="m161.71875 124.21875.261719.261719zm0 0" fill="#4b3066"/><path d="m144.53125 124.480469.261719.257812zm0 0" fill="#64579a"/><path d="m161.199219 124.480469.257812.257812zm0 0" fill="#9b76b6"/><path d="m144.269531 124.738281.261719.261719zm16.667969 0 .261719.261719zm-16.925781.261719.257812.261719zm0 0" fill="#64579a"/><path d="m160.417969 125 .257812.261719zm0 0" fill="#9b76b6"/><path d="m160.675781 125 .261719.261719zm0 0" fill="#4b3066"/><path d="m143.75 125.261719.261719.257812zm16.40625 0 .261719.257812zm-16.667969.257812.261719.261719zm0 0" fill="#64579a"/><path d="m159.636719 125.519531.257812.261719zm0 0" fill="#9b76b6"/><path d="m159.894531 125.519531.261719.261719zm0 0" fill="#4b3066"/><path d="m143.230469 125.78125.257812.261719zm16.144531 0 .261719.261719zm0 0" fill="#64579a"/><path d="m142.96875 126.042969.261719.257812zm15.886719 0 .257812.257812zm0 0" fill="#9b76b6"/><path d="m142.449219 126.300781.257812.261719zm0 0" fill="#4b3066"/><path d="m142.707031 126.300781.261719.261719zm15.625 0 .261719.261719zm0 0" fill="#9b76b6"/><path d="m158.59375 126.300781.261719.261719zm-16.40625.261719.261719.261719zm0 0" fill="#4b3066"/><path d="m158.074219 126.5625.257812.261719zm-16.148438.261719.261719.257812zm0 0" fill="#64579a"/><path d="m157.550781 126.824219.261719.257812zm0 0" fill="#9b76b6"/><path d="m157.8125 126.824219.261719.257812zm0 0" fill="#4b3066"/><path d="m141.667969 127.082031.257812.261719zm0 0" fill="#64579a"/><path d="m157.03125 127.082031.261719.261719zm0 0" fill="#9b76b6"/><path d="m157.292969 127.082031.257812.261719zm-16.148438.261719.261719.261719zm15.625 0 .261719.261719zm0 0" fill="#4b3066"/><path d="m140.886719 127.605469.257812.257812zm15.363281 0 .261719.257812zm0 0" fill="#64579a"/><path d="m140.363281 127.863281.261719.261719zm0 0" fill="#4b3066"/><path d="m140.625 127.863281.261719.261719zm0 0" fill="#9b76b6"/><path d="m155.730469 127.863281.257812.261719zm-15.625.261719.257812.261719zm0 0" fill="#64579a"/><path d="m155.207031 128.125.261719.261719zm0 0" fill="#9b76b6"/><path d="m155.46875 128.125.261719.261719zm-15.886719.261719.261719.257812zm0 0" fill="#4b3066"/><path d="m154.6875 128.386719.261719.257812zm0 0" fill="#9b76b6"/><path d="m154.949219 128.386719.257812.257812zm-15.886719.257812.261719.261719zm0 0" fill="#4b3066"/><path d="m139.324219 128.644531.257812.261719zm14.84375 0 .257812.261719zm0 0" fill="#9b76b6"/><path d="m154.425781 128.644531.261719.261719zm-15.882812.261719.257812.261719zm0 0" fill="#4b3066"/><path d="m138.800781 128.90625.261719.261719zm14.84375 0 .261719.261719zm0 0" fill="#9b76b6"/><path d="m153.90625 128.90625.261719.261719zm-15.886719.261719.261719.257812zm0 0" fill="#4b3066"/><path d="m138.28125 129.167969.261719.257812zm14.84375 0 .261719.257812zm0 0" fill="#9b76b6"/><path d="m153.386719 129.167969.257812.257812zm-15.886719.257812.261719.261719zm0 0" fill="#4b3066"/><path d="m137.761719 129.425781.257812.261719zm0 0" fill="#9b76b6"/><path d="m152.605469 129.425781.257812.261719zm-15.625.261719.257812.261719zm15.101562 0 .261719.261719zm0 0" fill="#64579a"/><path d="m136.199219 129.949219.257812.257812zm0 0" fill="#4b3066"/><path d="m136.457031 129.949219.261719.257812zm0 0" fill="#64579a"/><path d="m151.300781 129.949219.261719.257812zm0 0" fill="#9b76b6"/><path d="m151.5625 129.949219.261719.257812zm-15.886719.257812.261719.261719zm0 0" fill="#4b3066"/><path d="m135.9375 130.207031.261719.261719zm0 0" fill="#9b76b6"/><path d="m150.78125 130.207031.261719.261719zm0 0" fill="#64579a"/><path d="m151.042969 130.207031.257812.261719zm0 0" fill="#4b3066"/><path d="m135.15625 130.46875.261719.261719zm0 0" fill="#64579a"/><path d="m150 130.46875.261719.261719zm0 0" fill="#9b76b6"/><path d="m150.261719 130.46875.257812.261719zm0 0" fill="#64579a"/><path d="m134.375 130.730469.261719.257812zm0 0" fill="#4b3066"/><path d="m134.636719 130.730469.257812.257812zm0 0" fill="#9b76b6"/><path d="m149.480469 130.730469.257812.257812zm0 0" fill="#64579a"/><path d="m149.738281 130.730469.261719.257812zm0 0" fill="#4b3066"/><path d="m133.855469 130.988281.257812.261719zm0 0" fill="#64579a"/><path d="m134.113281 130.988281.261719.261719zm14.585938 0 .257812.261719zm0 0" fill="#9b76b6"/><path d="m148.957031 130.988281.261719.261719zm0 0" fill="#64579a"/><path d="m133.074219 131.25.257812.261719zm0 0" fill="#4b3066"/><path d="m133.332031 131.25.261719.261719zm14.585938 0 .257812.261719zm0 0" fill="#9b76b6"/><path d="m148.175781 131.25.261719.261719zm-15.625.261719.261719.257812zm0 0" fill="#64579a"/><path d="m147.136719 131.511719.257812.257812zm0 0" fill="#9b76b6"/><path d="m147.394531 131.511719.261719.257812zm0 0" fill="#64579a"/><path d="m147.65625 131.511719.261719.257812zm0 0" fill="#4b3066"/><path d="m131.769531 131.769531.261719.261719zm0 0" fill="#64579a"/><path d="m132.03125 131.769531.261719.261719zm14.324219 0 .257812.261719zm0 0" fill="#9b76b6"/><path d="m146.613281 131.769531.261719.261719zm0 0" fill="#64579a"/><path d="m146.875 131.769531.261719.261719zm-15.886719.261719.261719.261719zm0 0" fill="#4b3066"/><path d="m131.25 132.03125.261719.261719zm14.324219 0 .257812.261719zm0 0" fill="#9b76b6"/><path d="m145.832031 132.03125.261719.261719zm0 0" fill="#64579a"/><path d="m146.09375 132.03125.261719.261719zm-15.886719.261719.261719.257812zm0 0" fill="#4b3066"/><path d="m130.46875 132.292969.261719.257812zm0 0" fill="#64579a"/><path d="m144.792969 132.292969.257812.257812zm0 0" fill="#9b76b6"/><path d="m145.050781 132.292969.261719.257812zm-15.625.257812.261719.261719zm0 0" fill="#4b3066"/><path d="m129.6875 132.550781.261719.261719zm0 0" fill="#64579a"/><path d="m143.75 132.550781.261719.261719zm0 0" fill="#9b76b6"/><path d="m144.011719 132.550781.257812.261719zm0 0" fill="#64579a"/><path d="m144.269531 132.550781.261719.261719zm-15.625.261719.261719.261719zm0 0" fill="#4b3066"/><path d="m128.90625 132.8125.261719.261719zm0 0" fill="#64579a"/><path d="m142.707031 132.8125.261719.261719zm0 0" fill="#9b76b6"/><path d="m142.96875 132.8125.261719.261719zm0 0" fill="#64579a"/><path d="m143.230469 132.8125.257812.261719zm-15.367188.261719.261719.257812zm0 0" fill="#4b3066"/><path d="m128.125 133.074219.261719.257812zm13.542969 0 .257812.257812zm0 0" fill="#9b76b6"/><path d="m141.925781 133.074219.261719.257812zm0 0" fill="#64579a"/><path d="m142.1875 133.074219.261719.257812zm0 0" fill="#4b3066"/><path d="m127.082031 133.332031.261719.261719zm0 0" fill="#64579a"/><path d="m127.34375 133.332031.261719.261719zm13.28125 0 .261719.261719zm0 0" fill="#9b76b6"/><path d="m140.886719 133.332031.257812.261719zm0 0" fill="#64579a"/><path d="m141.144531 133.332031.261719.261719zm-15.101562.261719.257812.261719zm0 0" fill="#4b3066"/><path d="m126.300781 133.59375.261719.261719zm0 0" fill="#64579a"/><path d="m126.5625 133.59375.261719.261719zm12.933594.085938.175781.085937zm0 0" fill="#9b76b6"/><path d="m139.84375 133.59375.261719.261719zm0 0" fill="#64579a"/><path d="m140.105469 133.59375.257812.261719zm0 0" fill="#4b3066"/><path d="m125.261719 133.855469.257812.257812zm0 0" fill="#64579a"/><path d="m125.519531 133.855469.261719.257812zm12.761719 0 .261719.257812zm0 0" fill="#9b76b6"/><path d="m138.542969 133.855469.257812.257812zm0 0" fill="#64579a"/><path d="m138.976562 133.941406.171876.085938zm-14.757812.171875.261719.261719zm0 0" fill="#4b3066"/><path d="m124.480469 134.113281.257812.261719zm0 0" fill="#64579a"/><path d="m124.738281 134.113281.261719.261719zm12.152344.089844.175781.085937zm0 0" fill="#9b76b6"/><path d="m137.238281 134.113281.261719.261719zm0 0" fill="#64579a"/><path d="m137.671875 134.203125.175781.085937zm0 0" fill="#4b3066"/><path d="m123.699219 134.375.257812.261719zm0 0" fill="#64579a"/><path d="m135.417969 134.375.257812.261719zm0 0" fill="#9b76b6"/><path d="m135.851562 134.460938.171876.085937zm0 0" fill="#64579a"/><path d="m136.199219 134.375.257812.261719zm-12.414063.433594.085938.175781zm0 0" fill="#4b3066"/><path d="m133.765625 134.722656.175781.085938zm0 0" fill="#9b76b6"/><path d="m134.289062 134.722656.171876.085938zm0 0" fill="#64579a"/><path d="m134.808594 134.722656.175781.085938zm0 0" fill="#4b3066"/><path d="m132.203125 134.984375.175781.085937zm0 0" fill="#9b76b6"/><path d="m132.550781 134.894531.261719.261719zm0 0" fill="#64579a"/><path d="m132.984375 134.984375.175781.085937zm0 0" fill="#4b3066"/><path d="m130.121094 135.242188.175781.085937zm0 0" fill="#9b76b6"/><path d="m130.640625 135.242188.175781.085937zm0 0" fill="#64579a"/><path d="m131.164062 135.242188.171876.085937zm0 0" fill="#4b3066"/><path d="m124.046875 135.589844.085937.175781zm3.558594-.171875v.257812h.78125zm0 0" fill="#9b76b6"/><path d="m128.558594 135.503906.175781.085938zm0 0" fill="#64579a"/><path d="m129.078125 135.503906.175781.085938zm0 0" fill="#4b3066"/><path d="m125.261719 135.675781v.261719h.78125zm0 0" fill="#9b76b6"/><path d="m126.214844 135.765625.175781.085937zm0 0" fill="#64579a"/><path d="m126.5625 135.675781v.261719h.78125zm-2.34375.261719.261719.261719zm0 0" fill="#4b3066"/><path d="m97.394531 144.269531v4.6875h.261719zm0 0" fill="#64579a"/><path d="m116.925781 146.09375v1.300781h.261719zm-19.53125 2.863281v3.386719h.261719zm0 0" fill="#9b76b6"/><path d="m117.1875 149.21875v2.605469h.261719zm0 0" fill="#4b3066"/><path d="m117.1875 151.824219v2.082031h.261719zm0 0" fill="#64579a"/><path d="m117.1875 153.90625v2.34375h.261719zm0 0" fill="#9b76b6"/><path d="m97.136719 154.6875v1.824219h.257812zm0 0" fill="#4b3066"/><path d="m97.136719 156.511719v1.5625h.257812zm0 0" fill="#64579a"/><path d="m117.449219 157.03125v1.5625h.257812zm0 0" fill="#4b3066"/><path d="m97.136719 158.074219v1.5625h.257812zm0 0" fill="#9b76b6"/><path d="m117.449219 158.59375v.78125h.257812zm0 0" fill="#64579a"/><path d="m117.449219 159.375v1.300781h.257812zm0 0" fill="#9b76b6"/><path d="m96.875 160.675781v1.5625h.261719zm20.832031.261719v1.042969h.261719zm0 0" fill="#4b3066"/><path d="m117.707031 161.980469v.78125h.261719zm-20.746093.433593.085937.171876zm0 0" fill="#64579a"/><path d="m96.875 162.761719v1.039062h.261719zm20.921875.171875.085937.175781zm0 0" fill="#9b76b6"/><path d="m117.96875 163.800781v.78125h.261719zm-21.355469.523438v.78125h.261719zm0 0" fill="#4b3066"/><path d="m117.96875 164.582031.261719.261719zm0 0" fill="#64579a"/><path d="m118.054688 165.015625.085937.175781zm0 0" fill="#9b76b6"/><path d="m96.703125 165.277344.085937.175781zm0 0" fill="#64579a"/><path d="m96.613281 165.625v.78125h.261719zm0 0" fill="#9b76b6"/><path d="m118.230469 165.886719.257812.257812zm0 0" fill="#4b3066"/><path d="m118.316406 166.320312.085938.171876zm0 0" fill="#64579a"/><path d="m118.230469 166.667969.257812.257812zm0 0" fill="#9b76b6"/><path d="m96.441406 167.101562.085938.171876zm0 0" fill="#4b3066"/><path d="m96.441406 167.621094.085938.175781zm0 0" fill="#64579a"/><path d="m118.488281 167.449219.261719.257812zm0 0" fill="#4b3066"/><path d="m118.488281 167.707031.261719.261719zm0 0" fill="#64579a"/><path d="m96.441406 168.140625.085938.175781zm22.136719 0 .085937.175781zm0 0" fill="#9b76b6"/><path d="m96.179688 168.921875.085937.175781zm22.570312-.171875.261719.261719zm0 0" fill="#4b3066"/><path d="m118.75 169.011719.261719.257812zm-22.65625.257812.261719.261719zm0 0" fill="#64579a"/><path d="m118.75 169.269531.261719.261719zm-22.570312.433594.085937.175781zm0 0" fill="#9b76b6"/><path d="m119.011719 169.792969.257812.257812zm0 0" fill="#4b3066"/><path d="m119.011719 170.050781.257812.261719zm0 0" fill="#64579a"/><path d="m95.921875 170.484375.085937.175781zm0 0" fill="#4b3066"/><path d="m119.011719 170.3125.257812.261719zm0 0" fill="#9b76b6"/><path d="m95.832031 170.832031.261719.261719zm0 0" fill="#64579a"/><path d="m119.269531 170.832031.261719.261719zm0 0" fill="#4b3066"/><path d="m95.832031 171.09375.261719.261719zm0 0" fill="#9b76b6"/><path d="m119.269531 171.09375.261719.261719zm0 0" fill="#64579a"/><path d="m119.269531 171.355469.261719.257812zm0 0" fill="#9b76b6"/><path d="m95.574219 171.613281.257812.261719zm0 0" fill="#4b3066"/><path d="m95.574219 171.875.257812.261719zm23.957031 0 .261719.261719zm0 0" fill="#64579a"/><path d="m95.574219 172.136719.257812.257812zm23.957031 0 .261719.257812zm0 0" fill="#9b76b6"/><path d="m95.3125 172.65625.261719.261719zm0 0" fill="#4b3066"/><path d="m119.792969 172.65625.257812.261719zm-24.480469.261719.261719.257812zm0 0" fill="#64579a"/><path d="m119.792969 172.917969.257812.257812zm-24.480469.257812.261719.261719zm0 0" fill="#9b76b6"/><path d="m120.050781 173.175781.261719.261719zm-24.910156.433594.085937.175781zm0 0" fill="#4b3066"/><path d="m120.050781 173.4375.261719.261719zm-25 .519531.261719.261719zm0 0" fill="#9b76b6"/><path d="m120.3125 173.957031.261719.261719zm0 0" fill="#64579a"/><path d="m94.792969 174.21875.257812.261719zm0 0" fill="#4b3066"/><path d="m94.878906 174.652344.085938.175781zm0 0" fill="#9b76b6"/><path d="m120.574219 174.480469.257812.257812zm0 0" fill="#64579a"/><path d="m120.832031 174.738281.261719.261719zm-26.300781.261719-.261719.519531zm0 0" fill="#4b3066"/><path d="m120.832031 175 .261719.261719zm-26.300781.261719.261719.257812zm0 0" fill="#9b76b6"/><path d="m121.09375 175.261719.261719.257812zm-26.824219.257812.261719.261719zm0 0" fill="#64579a"/><path d="m121.355469 175.519531.257812.261719zm-27.34375.261719.257812.261719zm0 0" fill="#4b3066"/><path d="m94.269531 175.78125.261719.261719zm0 0" fill="#9b76b6"/><path d="m121.613281 175.78125.261719.261719zm0 0" fill="#4b3066"/><path d="m94.011719 176.042969.257812.257812zm0 0" fill="#9b76b6"/><path d="m121.875 176.042969.261719.257812zm-28.125.257812.261719.261719zm28.386719 0 .257812.261719zm-28.648438.261719-.519531.78125zm0 0" fill="#4b3066"/><path d="m122.394531 176.5625.261719.261719zm0 0" fill="#64579a"/><path d="m93.488281 176.824219.261719.257812zm29.167969 0 .519531.519531zm0 0" fill="#9b76b6"/><path d="m122.917969 176.824219.257812.257812zm0 0" fill="#4b3066"/><path d="m93.230469 177.082031.257812.261719zm0 0" fill="#9b76b6"/><path d="m123.175781 177.082031.261719.261719zm-30.46875.261719.261719.261719zm0 0" fill="#4b3066"/><path d="m123.4375 177.34375.261719.261719zm0 0" fill="#9b76b6"/><path d="m123.699219 177.34375.257812.261719zm0 0" fill="#4b3066"/><path d="m92.449219 177.605469.257812.257812zm31.507812 0 .261719.257812zm0 0" fill="#64579a"/><path d="m91.925781 177.863281.261719.261719zm0 0" fill="#4b3066"/><path d="m92.1875 177.863281.261719.261719zm0 0" fill="#9b76b6"/><path d="m124.480469 177.863281.257812.261719zm0 0" fill="#64579a"/><path d="m124.738281 177.863281.261719.261719zm0 0" fill="#4b3066"/><path d="m91.667969 178.125.257812.261719zm0 0" fill="#64579a"/><path d="m125 178.125.261719.261719zm0 0" fill="#9b76b6"/><path d="m125.261719 178.125.257812.261719zm-34.117188.261719.261719.257812zm0 0" fill="#4b3066"/><path d="m91.40625 178.386719.261719.257812zm34.113281 0 .261719.257812zm0 0" fill="#9b76b6"/><path d="m125.78125 178.386719.261719.257812zm0 0" fill="#64579a"/><path d="m126.042969 178.386719.257812.257812zm-35.417969.257812.261719.261719zm0 0" fill="#4b3066"/><path d="m90.886719 178.644531.257812.261719zm35.414062 0 .261719.261719zm0 0" fill="#9b76b6"/><path d="m126.5625 178.644531.261719.261719zm0 0" fill="#64579a"/><path d="m126.824219 178.644531.257812.261719zm-36.71875.261719.257812.261719zm0 0" fill="#4b3066"/><path d="m90.363281 178.90625.261719.261719zm36.71875 0 .261719.261719zm0 0" fill="#9b76b6"/><path d="m127.34375 178.90625.261719.261719zm0 0" fill="#64579a"/><path d="m127.605469 178.90625.257812.261719zm-38.023438.261719.261719.257812zm0 0" fill="#4b3066"/><path d="m89.84375 179.167969.261719.257812zm38.28125 0 .261719.257812zm0 0" fill="#9b76b6"/><path d="m128.386719 179.167969.257812.257812zm0 0" fill="#64579a"/><path d="m128.644531 179.167969.261719.257812zm-39.84375.257812.261719.261719zm0 0" fill="#4b3066"/><path d="m89.0625 179.425781.261719.261719zm0 0" fill="#64579a"/><path d="m129.339844 179.515625.175781.085937zm0 0" fill="#9b76b6"/><path d="m129.6875 179.425781.261719.261719zm0 0" fill="#64579a"/><path d="m129.949219 179.425781.257812.261719zm-41.929688.261719.261719.261719zm0 0" fill="#4b3066"/><path d="m88.28125 179.6875.261719.261719zm0 0" fill="#64579a"/><path d="m88.542969 179.6875.257812.261719zm42.097656.085938.175781.085937zm0 0" fill="#9b76b6"/><path d="m130.988281 179.6875.261719.261719zm0 0" fill="#64579a"/><path d="m131.25 179.6875.261719.261719zm-44.011719.261719.261719.257812zm0 0" fill="#4b3066"/><path d="m87.5 179.949219.261719.257812zm0 0" fill="#64579a"/><path d="m131.945312 180.035156.171876.085938zm0 0" fill="#9b76b6"/><path d="m132.292969 179.949219.257812.257812zm0 0" fill="#64579a"/><path d="m132.550781 179.949219.261719.257812zm-46.09375.257812.261719.261719zm0 0" fill="#4b3066"/><path d="m86.71875 180.207031.261719.261719zm0 0" fill="#64579a"/><path d="m133.074219 180.207031.257812.261719zm0 0" fill="#9b76b6"/><path d="m133.332031 180.207031.261719.261719zm0 0" fill="#64579a"/><path d="m133.765625 180.296875.175781.085937zm-48.089844.171875.261719.261719zm0 0" fill="#4b3066"/><path d="m85.9375 180.46875.261719.261719zm48.4375 0 .261719.261719zm0 0" fill="#9b76b6"/><path d="m134.636719 180.46875.257812.261719zm0 0" fill="#64579a"/><path d="m135.070312 180.554688.171876.085937zm0 0" fill="#4b3066"/><path d="m84.894531 180.730469.261719.257812zm0 0" fill="#64579a"/><path d="m85.15625 180.730469.261719.257812zm50.519531 0 .261719.257812zm0 0" fill="#9b76b6"/><path d="m135.9375 180.730469.261719.257812zm0 0" fill="#64579a"/><path d="m136.371094 180.816406.175781.085938zm0 0" fill="#4b3066"/><path d="m84.113281 180.988281.261719.261719zm0 0" fill="#64579a"/><path d="m84.375 180.988281.261719.261719zm52.605469 0 .257812.261719zm0 0" fill="#9b76b6"/><path d="m137.238281 180.988281.261719.261719zm0 0" fill="#64579a"/><path d="m137.5 180.988281.261719.261719zm0 0" fill="#4b3066"/><path d="m83.332031 181.25.261719.261719zm0 0" fill="#64579a"/><path d="m83.59375 181.25.261719.261719zm54.601562.085938.171876.085937zm0 0" fill="#9b76b6"/><path d="m138.542969 181.25.257812.261719zm0 0" fill="#64579a"/><path d="m138.800781 181.511719v.78125h.261719zm0 0" fill="#4b3066"/><path d="m83.332031 182.03125v.261719h6.773438zm0 0" fill="#9b76b6"/><path d="m90.105469 182.03125v.261719h48.695312l-4.6875-.261719zm0 0" fill="#64579a"/></svg>