<?xml version="1.0" encoding="UTF-8"?>
<!DOCTYPE svg PUBLIC "-//W3C//DTD SVG 1.1//EN" "http://www.w3.org/Graphics/SVG/1.1/DTD/svg11.dtd">
<svg xmlns="http://www.w3.org/2000/svg" version="1.1" width="1024px" height="1024px" style="shape-rendering:geometricPrecision; text-rendering:geometricPrecision; image-rendering:optimizeQuality; fill-rule:evenodd; clip-rule:evenodd" xmlns:xlink="http://www.w3.org/1999/xlink">
<g><path style="opacity:0.994" fill="#00d1ff" d="M 482.5,73.5 C 524.964,71.3165 566.964,74.6499 608.5,83.5C 608.5,160.5 608.5,237.5 608.5,314.5C 510.5,314.5 412.5,314.5 314.5,314.5C 314.833,510.834 314.5,707.168 313.5,903.5C 192.062,839.369 115.229,740.369 83,606.5C 55.5914,465.137 86.9247,338.804 177,227.5C 257.815,135.174 359.649,83.8411 482.5,73.5 Z"/></g>
<g><path style="opacity:0.994" fill="#00d1ff" d="M 709.5,120.5 C 806.812,170.313 876.645,245.647 919,346.5C 952.82,432.337 959.82,520.337 940,610.5C 904.627,750.521 821.794,851.354 691.5,913C 602.489,951.649 510.489,960.816 415.5,940.5C 415.5,863.5 415.5,786.5 415.5,709.5C 513.5,709.5 611.5,709.5 709.5,709.5C 709.5,513.167 709.5,316.833 709.5,120.5 Z"/></g>
<g><path style="opacity:0.994" fill="#00d1ff" d="M 415.5,415.5 C 479.833,415.5 544.167,415.5 608.5,415.5C 608.5,479.833 608.5,544.167 608.5,608.5C 544.167,608.5 479.833,608.5 415.5,608.5C 415.5,544.167 415.5,479.833 415.5,415.5 Z"/></g>
</svg>
