
<svg xmlns="http://www.w3.org/2000/svg" xmlns:xlink="http://www.w3.org/1999/xlink" width="250px" height="250px" viewBox="0 0 250 250" version="1.1">
<defs>
<linearGradient id="linear0" gradientUnits="userSpaceOnUse" x1="0.0406794" y1="0.970817" x2="0.972239" y2="1.274127" gradientTransform="matrix(250,0,0,250,0,0)">
<stop offset="0" style="stop-color:rgb(45.882353%,26.274511%,89.019608%);stop-opacity:1;"/>
<stop offset="1" style="stop-color:rgb(34.509805%,16.470589%,79.607844%);stop-opacity:1;"/>
</linearGradient>
</defs>
<g id="surface1">
<path style=" stroke:none;fill-rule:nonzero;fill:url(#linear0);" d="M 125 0 C 194.035156 0 250 55.964844 250 125 C 250 194.035156 194.035156 250 125 250 C 55.964844 250 0 194.035156 0 125 C 0 55.964844 55.964844 0 125 0 Z M 125 0 "/>
<path style=" stroke:none;fill-rule:evenodd;fill:rgb(100%,100%,100%);fill-opacity:1;" d="M 125.007812 31.25 C 137.054688 31.25 147.445312 43.8125 154.289062 64.226562 C 151.527344 65 148.703125 65.863281 145.851562 66.824219 C 140.164062 49.9375 132.363281 40 125.007812 40 C 116.71875 40 107.878906 52.601562 102.117188 73.550781 C 104.367188 74.28125 106.640625 75.054688 108.957031 75.914062 C 114.179688 77.84375 119.570312 80.117188 125.0625 82.695312 C 125.375 82.550781 125.691406 82.390625 126.003906 82.25 C 129.527344 80.625 133.023438 79.125 136.480469 77.75 C 136.90625 77.585938 137.316406 77.425781 137.726562 77.261719 C 148.089844 73.238281 158.109375 70.351562 167.28125 68.824219 C 187.027344 65.523438 200.914062 68.9375 206.367188 78.4375 C 211.828125 87.9375 207.832031 101.726562 195.117188 117.25 C 194.382812 118.136719 193.636719 119.039062 192.851562 119.925781 C 190.960938 117.8125 188.945312 115.699219 186.792969 113.585938 C 198.015625 100.511719 202.433594 89.085938 198.824219 82.8125 C 195.414062 76.875 184.164062 74.875 168.710938 77.449219 C 165.410156 78.003906 161.976562 78.75 158.449219 79.671875 C 158.953125 81.996094 159.425781 84.367188 159.839844 86.824219 C 160.792969 92.324219 161.53125 98.144531 162.054688 104.203125 C 164.769531 106.121094 167.421875 108.070312 169.96875 110.050781 C 179.949219 117.8125 188.519531 125.949219 195.117188 134 C 207.832031 149.523438 211.828125 163.3125 206.367188 172.8125 C 202.269531 179.949219 193.410156 183.648438 180.882812 183.648438 C 176.738281 183.648438 172.195312 183.25 167.28125 182.425781 C 166.011719 182.210938 164.714844 181.976562 163.410156 181.710938 C 164.195312 179 164.917969 176.164062 165.574219 173.226562 C 166.632812 173.4375 167.679688 173.625 168.710938 173.800781 C 184.15625 176.375 195.414062 174.375 198.824219 168.4375 C 202.96875 161.222656 196.496094 147.195312 181.277344 131.679688 C 179.757812 133.074219 178.195312 134.460938 176.578125 135.835938 C 176.339844 136.039062 176.089844 136.25 175.855469 136.4375 C 171.546875 140.0625 166.921875 143.621094 162.035156 147.074219 C 161.796875 149.816406 161.53125 152.53125 161.207031 155.164062 C 156.453125 193.613281 142.46875 220 125.007812 220 C 112.988281 220 102.609375 207.476562 95.765625 187.113281 C 98.515625 186.363281 101.328125 185.488281 104.203125 184.511719 C 109.890625 201.351562 117.667969 211.25 125.007812 211.25 C 133.296875 211.25 142.164062 198.605469 147.929688 177.601562 C 145.667969 176.878906 143.386719 176.105469 141.085938 175.25 C 135.828125 173.328125 130.460938 171.078125 125.058594 168.5625 C 124.941406 168.617188 124.824219 168.671875 124.710938 168.726562 C 121.660156 170.148438 118.664062 171.476562 115.699219 172.699219 C 115.238281 172.886719 114.792969 173.074219 114.34375 173.238281 C 97.296875 180.136719 81.730469 183.710938 69.347656 183.710938 C 57.015625 183.710938 47.871094 180.164062 43.640625 172.8125 C 37.589844 162.289062 43.316406 146.875 57.636719 130.625 L 63.722656 137.074219 C 52.136719 150.398438 47.535156 162.074219 51.191406 168.4375 C 55.332031 175.640625 70.617188 177.035156 91.554688 171.574219 C 91.0625 169.253906 90.59375 166.890625 90.179688 164.4375 C 89.234375 158.945312 88.5 153.140625 87.972656 147.09375 C 85.246094 145.175781 82.589844 143.242188 80.074219 141.300781 C 55.808594 122.550781 41.25 102.636719 41.25 87.8125 C 41.25 84.386719 42.035156 81.238281 43.640625 78.4375 C 49.660156 67.976562 65.652344 65.210938 86.644531 69.4375 C 85.847656 72.1875 85.113281 75.0625 84.453125 78.039062 C 67.195312 74.613281 54.839844 76.449219 51.191406 82.8125 C 47.054688 90.015625 53.5 104.015625 68.671875 119.507812 C 70.621094 117.730469 72.640625 115.972656 74.761719 114.226562 C 78.851562 110.828125 83.273438 107.457031 87.984375 104.140625 C 88.222656 101.390625 88.492188 98.671875 88.820312 96.039062 C 93.574219 57.625 107.5625 31.25 125.007812 31.25 Z M 152.570312 153.410156 C 150.476562 154.742188 148.355469 156.0625 146.1875 157.351562 C 145.453125 157.789062 144.71875 158.210938 143.984375 158.636719 C 141.410156 160.125 138.832031 161.5625 136.28125 162.914062 C 135.90625 163.117188 135.53125 163.300781 135.152344 163.503906 C 137.800781 164.628906 140.425781 165.679688 143.027344 166.648438 C 145.375 167.527344 147.691406 168.332031 149.988281 169.085938 C 150.5 166.691406 150.972656 164.21875 151.402344 161.664062 C 151.847656 159.007812 152.222656 156.234375 152.570312 153.410156 Z M 97.417969 153.398438 C 97.785156 156.363281 98.203125 159.242188 98.675781 162.023438 C 99.089844 164.457031 99.550781 166.796875 100.039062 169.078125 C 101.449219 168.621094 102.871094 168.140625 104.316406 167.625 C 104.75 167.476562 105.199219 167.3125 105.632812 167.148438 C 108.609375 166.074219 111.65625 164.886719 114.765625 163.550781 C 114.796875 163.539062 114.824219 163.523438 114.851562 163.515625 C 111.910156 161.964844 108.964844 160.335938 106.03125 158.636719 C 105.882812 158.550781 105.722656 158.460938 105.570312 158.363281 C 102.769531 156.734375 100.066406 155.074219 97.417969 153.398438 Z M 125.011719 92.386719 C 122.035156 93.84375 119.046875 95.371094 116.0625 97 C 114.171875 98.023438 112.277344 99.085938 110.386719 100.1875 C 105.429688 103.0625 100.761719 106.015625 96.359375 109 C 96.179688 111.550781 96.023438 114.132812 95.925781 116.789062 C 95.816406 119.675781 95.765625 122.625 95.765625 125.625 C 95.765625 131.378906 95.976562 136.917969 96.351562 142.242188 C 98.894531 143.96875 101.507812 145.679688 104.238281 147.363281 C 106.242188 148.613281 108.285156 149.851562 110.386719 151.0625 C 115.257812 153.886719 120.148438 156.484375 125.015625 158.859375 C 125.332031 158.707031 125.640625 158.566406 125.953125 158.414062 C 129.191406 156.8125 132.460938 155.085938 135.785156 153.238281 C 137.066406 152.539062 138.347656 151.8125 139.628906 151.0625 C 144.585938 148.191406 149.257812 145.238281 153.65625 142.253906 C 153.835938 139.703125 153.992188 137.113281 154.089844 134.460938 C 154.203125 131.574219 154.25 128.625 154.25 125.625 C 154.25 119.875 154.039062 114.335938 153.667969 109.011719 C 151.132812 107.289062 148.519531 105.578125 145.789062 103.886719 C 143.785156 102.636719 141.734375 101.414062 139.628906 100.1875 C 134.671875 97.3125 129.792969 94.726562 125.011719 92.386719 Z M 125.007812 114.375 C 131.195312 114.375 136.207031 119.410156 136.207031 125.625 C 136.207031 131.839844 131.195312 136.875 125.007812 136.875 C 118.824219 136.875 113.808594 131.839844 113.808594 125.625 C 113.808594 119.410156 118.824219 114.375 125.007812 114.375 Z M 162.765625 115.542969 C 162.894531 118.847656 162.960938 122.207031 162.960938 125.625 C 162.960938 126.449219 162.960938 127.273438 162.949219 128.101562 C 162.925781 130.683594 162.847656 133.226562 162.746094 135.742188 C 164.988281 134.039062 167.144531 132.332031 169.195312 130.625 C 169.457031 130.414062 169.707031 130.210938 169.957031 130 C 171.695312 128.535156 173.359375 127.078125 174.964844 125.625 C 173.496094 124.296875 171.976562 122.960938 170.390625 121.625 C 167.988281 119.585938 165.433594 117.5625 162.765625 115.542969 Z M 87.269531 115.519531 C 85.253906 117.050781 83.304688 118.582031 81.441406 120.113281 C 79.195312 121.945312 77.070312 123.785156 75.046875 125.628906 C 76.515625 126.960938 78.039062 128.296875 79.628906 129.636719 C 82.027344 131.664062 84.585938 133.6875 87.253906 135.707031 C 87.125 132.40625 87.054688 129.042969 87.054688 125.625 C 87.054688 124.800781 87.054688 123.976562 87.082031 123.164062 C 87.097656 120.582031 87.171875 118.042969 87.269531 115.519531 Z M 149.976562 82.167969 C 148.816406 82.546875 147.648438 82.9375 146.472656 83.351562 C 143.015625 84.550781 139.503906 85.914062 135.945312 87.414062 C 135.695312 87.515625 135.441406 87.632812 135.191406 87.738281 C 138.105469 89.28125 141.039062 90.902344 143.984375 92.613281 C 144.132812 92.699219 144.296875 92.789062 144.445312 92.886719 C 147.226562 94.496094 149.933594 96.167969 152.601562 97.859375 C 152.234375 94.890625 151.8125 92.007812 151.339844 89.226562 C 150.921875 86.796875 150.460938 84.453125 149.976562 82.167969 Z M 100.03125 82.167969 C 99.527344 84.558594 99.054688 87.023438 98.628906 89.574219 C 98.175781 92.234375 97.792969 94.996094 97.441406 97.820312 C 100.101562 96.132812 102.828125 94.472656 105.632812 92.835938 C 105.769531 92.761719 105.894531 92.6875 106.03125 92.613281 C 108.96875 90.910156 111.917969 89.289062 114.867188 87.738281 C 112.199219 86.605469 109.570312 85.558594 107.003906 84.601562 C 104.625 83.699219 102.308594 82.90625 100.03125 82.167969 Z M 100.03125 82.167969 "/>
</g>
</svg>
