<svg height="250" viewBox="0 0 250 250" width="250" xmlns="http://www.w3.org/2000/svg" xmlns:xlink="http://www.w3.org/1999/xlink"><linearGradient id="a"><stop offset="0" stop-color="#4eceff"/><stop offset=".1" stop-color="#4eceff"/><stop offset=".2" stop-color="#4eceff"/><stop offset=".3" stop-color="#4eceff"/><stop offset=".4" stop-color="#4dceff"/><stop offset=".5" stop-color="#48cafc"/><stop offset=".6" stop-color="#40c6f9"/><stop offset=".7" stop-color="#38c2f6"/><stop offset=".8" stop-color="#2fbdf2"/><stop offset=".9" stop-color="#25b7ef"/><stop offset="1" stop-color="#21b5ed"/></linearGradient><linearGradient id="b" gradientUnits="userSpaceOnUse" x1="13.4086" x2="86.284798" xlink:href="#a" y1="196.826996" y2="166.746994"/><linearGradient id="c" gradientUnits="userSpaceOnUse" x1="123.213997" x2="69.1744" xlink:href="#a" y1="239.888" y2="143.451996"/><linearGradient id="d" gradientUnits="userSpaceOnUse" x1="215.306" x2="105.709999" xlink:href="#a" y1="166.059998" y2="185.817001"/><linearGradient id="e" gradientUnits="userSpaceOnUse" x1="197.591003" x2="124.714996" xlink:href="#a" y1="49.172501" y2="79.253502"/><linearGradient id="f" gradientUnits="userSpaceOnUse" x1="87.785599" x2="141.826004" xlink:href="#a" y1="6.11225" y2="102.547997"/><linearGradient id="g" gradientUnits="userSpaceOnUse" x1="-4.30584" x2="105.290001" xlink:href="#a" y1="79.939697" y2="60.182499"/><g stroke-width="2"><g stroke="#fff"><path d="m50.963094 91.427437v120.997407l-49.964141-28.924219v-63.148969zm0 0" fill="url(#b)" transform="scale(1.184834 1.01626)"/><path d="m50.963094 154.572562 104.501047 60.500625-49.964141 28.928063-54.536906-31.576406zm0 0" fill="url(#c)" transform="scale(1.184834 1.01626)"/><path d="m105.5 186.148969 104.501047-60.500625v57.852281l-54.536906 31.572562zm0 0" fill="url(#d)" transform="scale(1.184834 1.01626)"/><path d="m160.036906 154.572562v-120.997406l49.964141 28.924219v63.148969zm0 0" fill="url(#e)" transform="scale(1.184834 1.01626)"/></g><path d="m160.036906 91.427437-104.501047-60.500625 49.964141-28.928062 54.536906 31.576406zm0 0" fill="url(#f)" stroke="#fefefe" transform="scale(1.184834 1.01626)"/><path d="m105.5 59.851031-104.501047 60.500625v-57.852281l54.536906-31.572563zm0 0" fill="url(#g)" stroke="#fff" transform="scale(1.184834 1.01626)"/></g></svg>