<svg xmlns="http://www.w3.org/2000/svg" viewBox="-0.51 -0.89 400.51 401.39">
<path style="fill:#ffffff; stroke:none;" d="M0 0L0 180L1 180C1.18792 157.3 9.71572 133.077 19.7531 113C48.6905 55.1177 111.973 1.56305 180 1L162 0L126 0L0 0z"/>
<path style="fill:#010101; stroke:none;" d="M180 0.424377C146.833 4.83249 116.057 14.6288 88 33.3333C66.6321 47.5786 48.5748 65.8807 34.0255 87C20.9626 105.962 11.3404 127.713 5.62963 150C-21.4222 255.574 43.5506 366.296 149 394.116C174.011 400.714 201.38 402.087 227 398.718C255.65 394.951 283.659 384.978 308 369.308C417.32 298.93 430.965 140.514 336 52.0895C313.55 31.1853 286.103 16.7404 257 7.65894C233.136 0.21228 204.889 -2.88354 180 0.424377z"/>
<path style="fill:#ffffff; stroke:none;" d="M220 0L220 1C242.7 1.1879 266.923 9.7157 287 19.7531C344.882 48.6906 398.437 111.973 399 180L400 180L400 0L220 0z"/>
<path style="fill:#e50913; stroke:none;" d="M113 62L113 96L287 96L287 62L113 62z"/>
<path style="fill:#575757; stroke:none;" d="M183.667 108.333L184.333 108.667L183.667 108.333z"/>
<path style="fill:#a1a1a1; stroke:none;" d="M185 108L185 109L190 109L185 108z"/>
<path style="fill:#ffffff; stroke:none;" d="M173 270L116 270C118.574 290.364 124.501 307.125 141 320.532C182.009 353.858 264.805 343.747 280.255 288C292.626 243.36 259.976 218.528 222 205.344C207.911 200.453 183.097 195.409 175.684 180.999C169.856 169.669 176.582 155.491 189 152.532C204.281 148.892 220.598 159.041 222 175L280 175C276.048 124.925 231.245 105.278 186 108.914C158.007 111.164 128.223 124.999 119.91 154C112.438 180.065 118.553 207.513 141 224.076C150.961 231.425 163.398 235.628 175 239.656C191.434 245.361 217.648 248.96 225.467 267C233.455 285.43 212.197 296.135 197 294.907C183.107 293.784 175.595 282.539 173 270z"/>
<path style="fill:#a1a1a1; stroke:none;" d="M204 108L204 109L210 109L204 108z"/>
<path style="fill:#575757; stroke:none;" d="M210 108L210 109L213 109L210 108M176.667 109.333L177.333 109.667L176.667 109.333z"/>
<path style="fill:#a1a1a1; stroke:none;" d="M178.667 109.333L179.333 109.667L178.667 109.333M215.667 109.333L216.333 109.667L215.667 109.333z"/>
<path style="fill:#575757; stroke:none;" d="M217.667 109.333L218.333 109.667L217.667 109.333M171 110L172 111L171 110z"/>
<path style="fill:#a1a1a1; stroke:none;" d="M172.667 110.333L173.333 110.667L172.667 110.333M221.667 110.333L222.333 110.667L221.667 110.333z"/>
<path style="fill:#575757; stroke:none;" d="M223 110L224 111L223 110M167 111L168 112L167 111z"/>
<path style="fill:#a1a1a1; stroke:none;" d="M168.667 111.333L169.333 111.667L168.667 111.333M225.667 111.333L226.333 111.667L225.667 111.333z"/>
<path style="fill:#575757; stroke:none;" d="M227 111L228 112L227 111M164 112L165 113L164 112z"/>
<path style="fill:#a1a1a1; stroke:none;" d="M165 112L166 113L165 112M229 112L230 113L229 112z"/>
<path style="fill:#575757; stroke:none;" d="M230 112L231 113L230 112M161 113L162 114L161 113z"/>
<path style="fill:#a1a1a1; stroke:none;" d="M162 113L163 114L162 113M232 113L233 114L232 113z"/>
<path style="fill:#575757; stroke:none;" d="M233 113L234 114L233 113M158 114L159 115L158 114z"/>
<path style="fill:#a1a1a1; stroke:none;" d="M159 114L160 115L159 114M235 114L236 115L235 114z"/>
<path style="fill:#575757; stroke:none;" d="M236 114L237 115L236 114z"/>
<path style="fill:#a1a1a1; stroke:none;" d="M156 115L157 116L156 115M238 115L239 116L238 115M154 116L155 117L154 116M240 116L241 117L240 116M152 117L153 118L152 117M242 117L243 118L242 117M150 118L151 119L150 118M244 118L245 119L244 118M148 119L149 120L148 119M246 119L247 120L246 119z"/>
<path style="fill:#575757; stroke:none;" d="M146 120L147 121L146 120M248 120L249 121L248 120z"/>
<path style="fill:#a1a1a1; stroke:none;" d="M145 121L146 122L145 121z"/>
<path style="fill:#575757; stroke:none;" d="M143 122L144 123L143 122z"/>
<path style="fill:#a1a1a1; stroke:none;" d="M251 122L252 123L251 122M142 123L143 124L142 123z"/>
<path style="fill:#575757; stroke:none;" d="M140 124L141 125L140 124M254 124L255 125L254 124M139 125L140 126L139 125z"/>
<path style="fill:#a1a1a1; stroke:none;" d="M255 125L256 126L255 125M138 126L139 127L138 126M256 126L257 127L256 126z"/>
<path style="fill:#575757; stroke:none;" d="M259 128L260 129L259 128M260 129L261 130L260 129M261 130L262 131L261 130M262 131L263 132L262 131M263 132L264 133L263 132M264 133L265 134L264 133z"/>
<path style="fill:#a1a1a1; stroke:none;" d="M129 135L130 136L129 135z"/>
<path style="fill:#575757; stroke:none;" d="M128 136L129 137L128 136z"/>
<path style="fill:#a1a1a1; stroke:none;" d="M266 136L267 137L266 136M267 137L268 138L267 137z"/>
<path style="fill:#575757; stroke:none;" d="M268 138L269 139L268 138z"/>
<path style="fill:#a1a1a1; stroke:none;" d="M126 139L127 140L126 139M269 140L270 141L269 140z"/>
<path style="fill:#575757; stroke:none;" d="M270 141L271 142L270 141M124 142L125 143L124 142M271 143L272 144L271 143z"/>
<path style="fill:#a1a1a1; stroke:none;" d="M123 144L124 145L123 144M272 145L273 146L272 145M122 146L123 147L122 146M273 147L274 148L273 147z"/>
<path style="fill:#575757; stroke:none;" d="M121 148L122 149L121 148z"/>
<path style="fill:#a1a1a1; stroke:none;" d="M121 149L122 150L121 149M274 149L275 150L274 149z"/>
<path style="fill:#575757; stroke:none;" d="M120 150L121 151L120 150z"/>
<path style="fill:#a1a1a1; stroke:none;" d="M120 151L121 152L120 151z"/>
<path style="fill:#575757; stroke:none;" d="M275 151L276 152L275 151z"/>
<path style="fill:#a1a1a1; stroke:none;" d="M188.667 152.333L189.333 152.667L188.667 152.333z"/>
<path style="fill:#575757; stroke:none;" d="M190.667 152.333L191.333 152.667L190.667 152.333M199.667 152.333L200.333 152.667L199.667 152.333z"/>
<path style="fill:#a1a1a1; stroke:none;" d="M201.667 152.333L202.333 152.667L201.667 152.333M275 152L276 153L275 152z"/>
<path style="fill:#575757; stroke:none;" d="M119 153L120 154L119 153z"/>
<path style="fill:#a1a1a1; stroke:none;" d="M185 153L186 154L185 153z"/>
<path style="fill:#575757; stroke:none;" d="M186 153L187 154L186 153M204 153L205 154L204 153z"/>
<path style="fill:#a1a1a1; stroke:none;" d="M205 153L206 154L205 153M119.333 154.667L119.667 155.333L119.333 154.667M183 154L184 155L183 154z"/>
<path style="fill:#575757; stroke:none;" d="M184 154L185 155L184 154M207 154L208 155L207 154z"/>
<path style="fill:#a1a1a1; stroke:none;" d="M208 154L209 155L208 154z"/>
<path style="fill:#575757; stroke:none;" d="M276 154L277 155L276 154M182 155L183 156L182 155M209 155L210 156L209 155z"/>
<path style="fill:#a1a1a1; stroke:none;" d="M276 155L277 156L276 155M180 156L181 157L180 156M211 156L212 157L211 156z"/>
<path style="fill:#575757; stroke:none;" d="M118 157L119 158L118 157z"/>
<path style="fill:#a1a1a1; stroke:none;" d="M179 157L180 158L179 157z"/>
<path style="fill:#575757; stroke:none;" d="M212 157L213 158L212 157M277 157L278 158L277 157z"/>
<path style="fill:#a1a1a1; stroke:none;" d="M118.333 158.667L118.667 159.333L118.333 158.667M178 158L179 159L178 158M277 158L278 159L277 158M177 159L178 160L177 159M215 159L216 160L215 159z"/>
<path style="fill:#575757; stroke:none;" d="M117.333 161.667L117.667 162.333L117.333 161.667M176 161L177 162L176 161M278 161L279 162L278 161z"/>
<path style="fill:#a1a1a1; stroke:none;" d="M175 162L176 163L175 162z"/>
<path style="fill:#575757; stroke:none;" d="M217 162L218 163L217 162z"/>
<path style="fill:#a1a1a1; stroke:none;" d="M278.333 162.667L278.667 163.333L278.333 162.667M117 163L117 166L118 166L117 163z"/>
<path style="fill:#575757; stroke:none;" d="M175 163L176 164L175 163z"/>
<path style="fill:#a1a1a1; stroke:none;" d="M218 163L219 164L218 163M174 165L175 166L174 165M219 165L220 166L219 165z"/>
<path style="fill:#575757; stroke:none;" d="M174 166L175 167L174 166M279.333 166.667L279.667 167.333L279.333 166.667z"/>
<path style="fill:#a1a1a1; stroke:none;" d="M220 167L221 168L220 167z"/>
<path style="fill:#575757; stroke:none;" d="M220 168L221 169L220 168z"/>
<path style="fill:#a1a1a1; stroke:none;" d="M279 168L279 171L280 171L279 168z"/>
<path style="fill:#575757; stroke:none;" d="M116 169L116 181L117 181L116 169z"/>
<path style="fill:#a1a1a1; stroke:none;" d="M173 169L173 175L174 175L173 169M221.333 170.667L221.667 171.333L221.333 170.667z"/>
<path style="fill:#575757; stroke:none;" d="M221 172L221 175L222 175L221 172z"/>
<path style="fill:#a1a1a1; stroke:none;" d="M222 175L222 176L280 176L261 175L222 175z"/>
<path style="fill:#575757; stroke:none;" d="M174 177L175 178L174 177z"/>
<path style="fill:#a1a1a1; stroke:none;" d="M174 178L175 179L174 178z"/>
<path style="fill:#575757; stroke:none;" d="M175 180L176 181L175 180z"/>
<path style="fill:#a1a1a1; stroke:none;" d="M175 181L176 182L175 181z"/>
<path style="fill:#575757; stroke:none;" d="M176 182L177 183L176 182z"/>
<path style="fill:#a1a1a1; stroke:none;" d="M177 184L178 185L177 184M117.333 185.667L117.667 186.333L117.333 185.667M178 185L179 186L178 185M179 186L180 187L179 186z"/>
<path style="fill:#575757; stroke:none;" d="M117.333 187.667L117.667 188.333L117.333 187.667z"/>
<path style="fill:#a1a1a1; stroke:none;" d="M180 187L181 188L180 187M183 189L184 190L183 189z"/>
<path style="fill:#575757; stroke:none;" d="M185 190L186 191L185 190z"/>
<path style="fill:#a1a1a1; stroke:none;" d="M118 191L119 192L118 191z"/>
<path style="fill:#575757; stroke:none;" d="M187 191L188 192L187 191M118 192L119 193L118 192z"/>
<path style="fill:#a1a1a1; stroke:none;" d="M188 192L189 193L188 192z"/>
<path style="fill:#575757; stroke:none;" d="M189 192L190 193L189 192M191 193L192 194L191 193M193 194L194 195L193 194z"/>
<path style="fill:#a1a1a1; stroke:none;" d="M119 195L120 196L119 195M195 195L196 196L195 195z"/>
<path style="fill:#575757; stroke:none;" d="M119 196L120 197L119 196z"/>
<path style="fill:#a1a1a1; stroke:none;" d="M197 196L198 197L197 196z"/>
<path style="fill:#575757; stroke:none;" d="M198 196L199 197L198 196z"/>
<path style="fill:#a1a1a1; stroke:none;" d="M200 197L201 198L200 197M120 198L121 199L120 198M202 198L203 199L202 198z"/>
<path style="fill:#575757; stroke:none;" d="M203 198L204 199L203 198M120 199L121 200L120 199z"/>
<path style="fill:#a1a1a1; stroke:none;" d="M205 199L206 200L205 199z"/>
<path style="fill:#575757; stroke:none;" d="M206 199L207 200L206 199z"/>
<path style="fill:#a1a1a1; stroke:none;" d="M121 200L122 201L121 200M208 200L209 201L208 200z"/>
<path style="fill:#575757; stroke:none;" d="M209 200L210 201L209 200M121 201L122 202L121 201z"/>
<path style="fill:#a1a1a1; stroke:none;" d="M210 201L211 202L210 201z"/>
<path style="fill:#575757; stroke:none;" d="M211 201L212 202L211 201z"/>
<path style="fill:#a1a1a1; stroke:none;" d="M122 202L123 203L122 202M213 202L214 203L213 202z"/>
<path style="fill:#575757; stroke:none;" d="M214 202L215 203L214 202M122 203L123 204L122 203z"/>
<path style="fill:#a1a1a1; stroke:none;" d="M216 203L217 204L216 203z"/>
<path style="fill:#575757; stroke:none;" d="M217 203L218 204L217 203z"/>
<path style="fill:#a1a1a1; stroke:none;" d="M123 204L124 205L123 204M219 204L220 205L219 204z"/>
<path style="fill:#575757; stroke:none;" d="M220 204L221 205L220 204M123 205L124 206L123 205z"/>
<path style="fill:#a1a1a1; stroke:none;" d="M222 205L223 206L222 205z"/>
<path style="fill:#575757; stroke:none;" d="M223 205L224 206L223 205z"/>
<path style="fill:#a1a1a1; stroke:none;" d="M124 206L125 207L124 206M225 206L226 207L225 206M227 207L228 208L227 207z"/>
<path style="fill:#575757; stroke:none;" d="M228 207L229 208L228 207M125 208L126 209L125 208z"/>
<path style="fill:#a1a1a1; stroke:none;" d="M230 208L231 209L230 208z"/>
<path style="fill:#575757; stroke:none;" d="M231 208L232 209L231 208z"/>
<path style="fill:#a1a1a1; stroke:none;" d="M126 209L127 210L126 209z"/>
<path style="fill:#575757; stroke:none;" d="M233 209L234 210L233 209z"/>
<path style="fill:#a1a1a1; stroke:none;" d="M235 210L236 211L235 210z"/>
<path style="fill:#575757; stroke:none;" d="M236 210L237 211L236 210z"/>
<path style="fill:#a1a1a1; stroke:none;" d="M237 211L238 212L237 211z"/>
<path style="fill:#575757; stroke:none;" d="M238 211L239 212L238 211M128 212L129 213L128 212z"/>
<path style="fill:#a1a1a1; stroke:none;" d="M240 212L241 213L240 212M129 213L130 214L129 213M242 213L243 214L242 213M130 214L131 215L130 214M244 214L245 215L244 214z"/>
<path style="fill:#575757; stroke:none;" d="M245 214L246 215L245 214z"/>
<path style="fill:#a1a1a1; stroke:none;" d="M131 215L132 216L131 215M246 215L247 216L246 215z"/>
<path style="fill:#575757; stroke:none;" d="M247 215L248 216L247 215z"/>
<path style="fill:#a1a1a1; stroke:none;" d="M132 216L133 217L132 216z"/>
<path style="fill:#575757; stroke:none;" d="M249 216L250 217L249 216z"/>
<path style="fill:#a1a1a1; stroke:none;" d="M133 217L134 218L133 217z"/>
<path style="fill:#575757; stroke:none;" d="M251 217L252 218L251 217z"/>
<path style="fill:#a1a1a1; stroke:none;" d="M134 218L135 219L134 218M252 218L253 219L252 218M135 219L136 220L135 219M254 219L255 220L254 219z"/>
<path style="fill:#ffffff; stroke:none;" d="M0 220L0 400L180 400L180 399C109.178 398.414 44.2977 341.127 16.3086 280C10.78 267.926 6.69492 254.997 4.00309 242C2.56404 235.052 2.73133 226.449 0 220z"/>
<path style="fill:#a1a1a1; stroke:none;" d="M136 220L137 221L136 220z"/>
<path style="fill:#575757; stroke:none;" d="M256 220L257 221L256 220z"/>
<path style="fill:#ffffff; stroke:none;" d="M399 220C398.812 242.7 390.284 266.923 380.247 287C351.309 344.882 288.027 398.437 220 399L220 400L400 400L400 274L400 238L399 220z"/>
<path style="fill:#a1a1a1; stroke:none;" d="M137 221L138 222L137 221M257 221L258 222L257 221z"/>
<path style="fill:#575757; stroke:none;" d="M138 222L139 223L138 222z"/>
<path style="fill:#a1a1a1; stroke:none;" d="M140 223L141 224L140 223M260 223L261 224L260 223M141 224L142 225L141 224M261 224L262 225L261 224M144 226L145 227L144 226M146 227L147 228L146 227z"/>
<path style="fill:#575757; stroke:none;" d="M265 227L266 228L265 227M147 228L148 229L147 228M266 228L267 229L266 228M149 229L150 230L149 229M267 229L268 230L267 229M151 230L152 231L151 230M268 230L269 231L268 230M153 231L154 232L153 231z"/>
<path style="fill:#a1a1a1; stroke:none;" d="M154 231L155 232L154 231M156 232L157 233L156 232z"/>
<path style="fill:#575757; stroke:none;" d="M158 233L159 234L158 233z"/>
<path style="fill:#a1a1a1; stroke:none;" d="M270 233L271 234L270 233z"/>
<path style="fill:#575757; stroke:none;" d="M160 234L161 235L160 234z"/>
<path style="fill:#a1a1a1; stroke:none;" d="M161 234L162 235L161 234M271 234L272 235L271 234M163 235L164 236L163 235z"/>
<path style="fill:#575757; stroke:none;" d="M272 235L273 236L272 235M165 236L166 237L165 236z"/>
<path style="fill:#a1a1a1; stroke:none;" d="M166 236L167 237L166 236z"/>
<path style="fill:#575757; stroke:none;" d="M273 236L274 237L273 236M168 237L169 238L168 237z"/>
<path style="fill:#a1a1a1; stroke:none;" d="M169 237L170 238L169 237M171 238L172 239L171 238M274 238L275 239L274 238z"/>
<path style="fill:#575757; stroke:none;" d="M173 239L174 240L173 239z"/>
<path style="fill:#a1a1a1; stroke:none;" d="M174 239L175 240L174 239z"/>
<path style="fill:#575757; stroke:none;" d="M275 239L276 240L275 239M176 240L177 241L176 240z"/>
<path style="fill:#a1a1a1; stroke:none;" d="M177 240L178 241L177 240z"/>
<path style="fill:#575757; stroke:none;" d="M179 241L180 242L179 241z"/>
<path style="fill:#a1a1a1; stroke:none;" d="M180 241L181 242L180 241M276 241L277 242L276 241z"/>
<path style="fill:#575757; stroke:none;" d="M182 242L183 243L182 242z"/>
<path style="fill:#a1a1a1; stroke:none;" d="M183 242L184 243L183 242z"/>
<path style="fill:#575757; stroke:none;" d="M185.667 243.333L186.333 243.667L185.667 243.333z"/>
<path style="fill:#a1a1a1; stroke:none;" d="M187 243L188 244L187 243M277 243L278 244L277 243z"/>
<path style="fill:#575757; stroke:none;" d="M189 244L190 245L189 244z"/>
<path style="fill:#a1a1a1; stroke:none;" d="M190 244L191 245L190 244z"/>
<path style="fill:#575757; stroke:none;" d="M192 245L193 246L192 245z"/>
<path style="fill:#a1a1a1; stroke:none;" d="M193 245L194 246L193 245M278 245L279 246L278 245z"/>
<path style="fill:#575757; stroke:none;" d="M195 246L196 247L195 246z"/>
<path style="fill:#a1a1a1; stroke:none;" d="M196 246L197 247L196 246z"/>
<path style="fill:#575757; stroke:none;" d="M198 247L199 248L198 247z"/>
<path style="fill:#a1a1a1; stroke:none;" d="M199 247L200 248L199 247z"/>
<path style="fill:#575757; stroke:none;" d="M279 247L280 248L279 247M200 248L201 249L200 248z"/>
<path style="fill:#a1a1a1; stroke:none;" d="M201 248L202 249L201 248M279 248L280 249L279 248z"/>
<path style="fill:#575757; stroke:none;" d="M203 249L204 250L203 249z"/>
<path style="fill:#a1a1a1; stroke:none;" d="M204 249L205 250L204 249M206 250L207 251L206 250z"/>
<path style="fill:#575757; stroke:none;" d="M280 250L281 251L280 250M208 251L209 252L208 251z"/>
<path style="fill:#a1a1a1; stroke:none;" d="M280 251L281 252L280 251z"/>
<path style="fill:#575757; stroke:none;" d="M210 252L211 253L210 252z"/>
<path style="fill:#a1a1a1; stroke:none;" d="M212 253L213 254L212 253z"/>
<path style="fill:#575757; stroke:none;" d="M281.333 253.667L281.667 254.333L281.333 253.667z"/>
<path style="fill:#a1a1a1; stroke:none;" d="M214 254L215 255L214 254z"/>
<path style="fill:#575757; stroke:none;" d="M215 255L216 256L215 255z"/>
<path style="fill:#a1a1a1; stroke:none;" d="M281 255L282 256L281 255M218 257L219 258L218 257M219 258L220 259L219 258z"/>
<path style="fill:#575757; stroke:none;" d="M282 258L282 261L283 261L282 258z"/>
<path style="fill:#a1a1a1; stroke:none;" d="M220 259L221 260L220 259M221 260L222 261L221 260M222 261L223 262L222 261M282 261L282 264L283 264L282 261z"/>
<path style="fill:#575757; stroke:none;" d="M223 263L224 264L223 263z"/>
<path style="fill:#a1a1a1; stroke:none;" d="M224 264L225 265L224 264M225 266L226 267L225 266z"/>
<path style="fill:#575757; stroke:none;" d="M225 267L226 268L225 267z"/>
<path style="fill:#a1a1a1; stroke:none;" d="M116 269L116 270L158 270C162.904 270 170.041 268.436 173 273C174.289 267.262 163.535 269 160 269L116 269z"/>
<path style="fill:#575757; stroke:none;" d="M173 269L174 270L173 269z"/>
<path style="fill:#a1a1a1; stroke:none;" d="M226 269L226 272L227 272L226 269z"/>
<path style="fill:#575757; stroke:none;" d="M226 272L226 275L227 275L226 272z"/>
<path style="fill:#a1a1a1; stroke:none;" d="M116 273L116 277L117 277L116 273z"/>
<path style="fill:#575757; stroke:none;" d="M174.333 274.667L174.667 275.333L174.333 274.667z"/>
<path style="fill:#a1a1a1; stroke:none;" d="M282 274L282 278L283 278L282 274M226 275L226 279L227 279L226 275M174 276L175 277L174 276z"/>
<path style="fill:#575757; stroke:none;" d="M116.333 277.667L116.667 278.333L116.333 277.667M175 278L176 279L175 278M282 278L282 281L283 281L282 278z"/>
<path style="fill:#a1a1a1; stroke:none;" d="M175 279L176 280L175 279z"/>
<path style="fill:#575757; stroke:none;" d="M176 280L177 281L176 280M225 280L226 281L225 280z"/>
<path style="fill:#a1a1a1; stroke:none;" d="M117.333 281.667L117.667 282.333L117.333 281.667M176 281L177 282L176 281M225 281L226 282L225 281z"/>
<path style="fill:#575757; stroke:none;" d="M177 282L178 283L177 282z"/>
<path style="fill:#a1a1a1; stroke:none;" d="M281.333 282.667L281.667 283.333L281.333 282.667z"/>
<path style="fill:#575757; stroke:none;" d="M117 283L118 284L117 283z"/>
<path style="fill:#a1a1a1; stroke:none;" d="M177 283L178 284L177 283M224 283L225 284L224 283z"/>
<path style="fill:#575757; stroke:none;" d="M178 284L179 285L178 284M281.333 284.667L281.667 285.333L281.333 284.667z"/>
<path style="fill:#a1a1a1; stroke:none;" d="M223 285L224 286L223 285M118 286L119 287L118 286z"/>
<path style="fill:#575757; stroke:none;" d="M222 286L223 287L222 286M118 287L119 288L118 287z"/>
<path style="fill:#a1a1a1; stroke:none;" d="M180 287L181 288L180 287z"/>
<path style="fill:#575757; stroke:none;" d="M221 287L222 288L221 287z"/>
<path style="fill:#a1a1a1; stroke:none;" d="M280 287L281 288L280 287M181 288L182 289L181 288z"/>
<path style="fill:#575757; stroke:none;" d="M220 288L221 289L220 288M280 288L281 289L280 288z"/>
<path style="fill:#a1a1a1; stroke:none;" d="M119.333 289.667L119.667 290.333L119.333 289.667z"/>
<path style="fill:#575757; stroke:none;" d="M219 289L220 290L219 289M184 290L185 291L184 290z"/>
<path style="fill:#a1a1a1; stroke:none;" d="M218 290L219 291L218 290M279 290L280 291L279 290z"/>
<path style="fill:#575757; stroke:none;" d="M216 291L217 292L216 291M279 291L280 292L279 291z"/>
<path style="fill:#a1a1a1; stroke:none;" d="M120 292L121 293L120 292M187 292L188 293L187 292z"/>
<path style="fill:#575757; stroke:none;" d="M188 292L189 293L188 292z"/>
<path style="fill:#a1a1a1; stroke:none;" d="M214 292L215 293L214 292z"/>
<path style="fill:#575757; stroke:none;" d="M120 293L121 294L120 293z"/>
<path style="fill:#a1a1a1; stroke:none;" d="M190 293L191 294L190 293z"/>
<path style="fill:#575757; stroke:none;" d="M191 293L192 294L191 293M211 293L212 294L211 293z"/>
<path style="fill:#a1a1a1; stroke:none;" d="M212 293L213 294L212 293M278 293L279 294L278 293M193.667 294.333L194.333 294.667L193.667 294.333z"/>
<path style="fill:#575757; stroke:none;" d="M195 294L195 295L198 295L195 294M205.667 294.333L206.333 294.667L205.667 294.333z"/>
<path style="fill:#a1a1a1; stroke:none;" d="M207.667 294.333L208.333 294.667L207.667 294.333z"/>
<path style="fill:#575757; stroke:none;" d="M278 294L279 295L278 294z"/>
<path style="fill:#a1a1a1; stroke:none;" d="M121 295L122 296L121 295z"/>
<path style="fill:#575757; stroke:none;" d="M121 296L122 297L121 296z"/>
<path style="fill:#a1a1a1; stroke:none;" d="M277 296L278 297L277 296M122 297L123 298L122 297z"/>
<path style="fill:#575757; stroke:none;" d="M122 298L123 299L122 298z"/>
<path style="fill:#a1a1a1; stroke:none;" d="M276 298L277 299L276 298M123 299L124 300L123 299z"/>
<path style="fill:#575757; stroke:none;" d="M123 300L124 301L123 300z"/>
<path style="fill:#a1a1a1; stroke:none;" d="M275 300L276 301L275 300M124 301L125 302L124 301M274 302L275 303L274 302M125 303L126 304L125 303z"/>
<path style="fill:#575757; stroke:none;" d="M273 304L274 305L273 304M126 305L127 306L126 305z"/>
<path style="fill:#a1a1a1; stroke:none;" d="M272 305L273 306L272 305M127 306L128 307L127 306M128 307L129 308L128 307z"/>
<path style="fill:#575757; stroke:none;" d="M271 307L272 308L271 307z"/>
<path style="fill:#a1a1a1; stroke:none;" d="M270 308L271 309L270 308z"/>
<path style="fill:#575757; stroke:none;" d="M129 309L130 310L129 309M130 310L131 311L130 310M269 310L270 311L269 310z"/>
<path style="fill:#a1a1a1; stroke:none;" d="M131 311L132 312L131 311M268 311L269 312L268 311M132 312L133 313L132 312M267 312L268 313L267 312M133 313L134 314L133 313M134 314L135 315L134 314M135 315L136 316L135 315M136 316L137 317L136 316M137 317L138 318L137 317M138 318L139 319L138 318z"/>
<path style="fill:#575757; stroke:none;" d="M139 319L140 320L139 319z"/>
<path style="fill:#a1a1a1; stroke:none;" d="M260 319L261 320L260 319z"/>
<path style="fill:#575757; stroke:none;" d="M140 320L141 321L140 320z"/>
<path style="fill:#a1a1a1; stroke:none;" d="M259 320L260 321L259 320M142 321L143 322L142 321z"/>
<path style="fill:#575757; stroke:none;" d="M258 321L259 322L258 321z"/>
<path style="fill:#a1a1a1; stroke:none;" d="M143 322L144 323L143 322z"/>
<path style="fill:#575757; stroke:none;" d="M257 322L258 323L257 322z"/>
<path style="fill:#a1a1a1; stroke:none;" d="M255 323L256 324L255 323M146 324L147 325L146 324z"/>
<path style="fill:#575757; stroke:none;" d="M254 324L255 325L254 324z"/>
<path style="fill:#a1a1a1; stroke:none;" d="M148 325L149 326L148 325M252 325L253 326L252 325z"/>
<path style="fill:#575757; stroke:none;" d="M149 326L150 327L149 326M251 326L252 327L251 326z"/>
<path style="fill:#a1a1a1; stroke:none;" d="M151 327L152 328L151 327M249 327L250 328L249 327M153 328L154 329L153 328M247 328L248 329L247 328z"/>
<path style="fill:#575757; stroke:none;" d="M155 329L156 330L155 329z"/>
<path style="fill:#a1a1a1; stroke:none;" d="M245 329L246 330L245 329z"/>
<path style="fill:#575757; stroke:none;" d="M246 329L247 330L246 329M157 330L158 331L157 330z"/>
<path style="fill:#a1a1a1; stroke:none;" d="M243 330L244 331L243 330z"/>
<path style="fill:#575757; stroke:none;" d="M244 330L245 331L244 330M159 331L160 332L159 331z"/>
<path style="fill:#a1a1a1; stroke:none;" d="M160 331L161 332L160 331M241 331L242 332L241 331z"/>
<path style="fill:#575757; stroke:none;" d="M162 332L163 333L162 332z"/>
<path style="fill:#a1a1a1; stroke:none;" d="M163 332L164 333L163 332M238 332L239 333L238 332z"/>
<path style="fill:#575757; stroke:none;" d="M239 332L240 333L239 332M165 333L166 334L165 333z"/>
<path style="fill:#a1a1a1; stroke:none;" d="M166 333L167 334L166 333M236 333L237 334L236 333z"/>
<path style="fill:#575757; stroke:none;" d="M237 333L238 334L237 333M168 334L169 335L168 334z"/>
<path style="fill:#a1a1a1; stroke:none;" d="M169 334L170 335L169 334M233 334L234 335L233 334z"/>
<path style="fill:#575757; stroke:none;" d="M234 334L235 335L234 334M171 335L172 336L171 335z"/>
<path style="fill:#a1a1a1; stroke:none;" d="M172.667 335.333L173.333 335.667L172.667 335.333M229 335L230 336L229 335z"/>
<path style="fill:#575757; stroke:none;" d="M230.667 335.333L231.333 335.667L230.667 335.333M175.667 336.333L176.333 336.667L175.667 336.333z"/>
<path style="fill:#a1a1a1; stroke:none;" d="M177.667 336.333L178.333 336.667L177.667 336.333M225 336L226 337L225 336z"/>
<path style="fill:#575757; stroke:none;" d="M226.667 336.333L227.333 336.667L226.667 336.333M180.667 337.333L181.333 337.667L180.667 337.333z"/>
<path style="fill:#a1a1a1; stroke:none;" d="M182 337L182 338L185 338L182 337M219.667 337.333L220.333 337.667L219.667 337.333z"/>
<path style="fill:#575757; stroke:none;" d="M221.667 337.333L222.333 337.667L221.667 337.333M187 338L187 339L190 339L187 338z"/>
<path style="fill:#a1a1a1; stroke:none;" d="M190 338L190 339L195 339L190 338M209 338L209 339L214 339L209 338z"/>
<path style="fill:#575757; stroke:none;" d="M214 338L214 339L217 339L214 338z"/>
</svg>