
<svg xmlns="http://www.w3.org/2000/svg" xmlns:xlink="http://www.w3.org/1999/xlink" width="250px" height="250px" viewBox="0 0 250 250" version="1.1">
<g id="surface1">
<rect x="0" y="0" width="250" height="250" style="fill:rgb(98.039216%,93.333334%,0%);fill-opacity:1;stroke:none;"/>
<path style=" stroke:none;fill-rule:nonzero;fill:rgb(3.529412%,1.960784%,0.784314%);fill-opacity:1;" d="M 191.355469 59.652344 C 191.773438 58.898438 192.191406 58.226562 192.527344 57.558594 C 193.28125 55.796875 193.113281 55.128906 191.773438 53.785156 C 191.101562 53.117188 190.179688 52.53125 189.761719 51.691406 C 187.75 48.007812 184.316406 46.496094 180.460938 46.078125 C 178.03125 45.828125 175.601562 45.910156 173.257812 45.242188 C 173.007812 45.15625 172.753906 45.15625 172.503906 45.15625 C 169.402344 45.578125 166.472656 44.824219 163.457031 44.570312 C 151.308594 43.648438 139.160156 44.152344 127.09375 45.324219 C 115.53125 46.414062 103.886719 47.253906 92.242188 47.167969 C 90.484375 47.167969 89.894531 47.753906 89.730469 49.515625 C 89.644531 50.101562 89.730469 50.769531 89.644531 51.355469 C 89.644531 51.777344 89.644531 52.277344 89.226562 52.363281 C 88.136719 52.699219 87.382812 53.621094 86.210938 53.953125 C 83.949219 54.457031 83.445312 55.378906 83.695312 57.640625 C 84.117188 60.742188 85.371094 63.589844 86.460938 66.4375 C 87.71875 69.539062 87.71875 69.539062 84.617188 70.878906 C 83.695312 71.296875 83.027344 71.882812 83.277344 72.972656 C 83.695312 75.066406 83.949219 77.328125 85.625 78.835938 C 87.132812 80.261719 88.136719 81.9375 88.890625 83.863281 C 92.578125 92.242188 95.257812 101.039062 98.191406 109.667969 C 98.527344 110.589844 97.9375 110.757812 97.4375 111.09375 C 93.667969 113.855469 89.730469 116.371094 85.789062 118.882812 L 81.433594 121.648438 C 81.433594 121.648438 66.4375 131.785156 62.164062 134.632812 L 55.378906 139.242188 L 55.128906 139.492188 C 54.207031 140.082031 53.367188 140.667969 52.445312 141.335938 C 51.609375 141.921875 51.105469 142.675781 50.769531 143.429688 L 50.6875 143.515625 L 50.769531 143.597656 C 50.4375 144.6875 50.601562 145.777344 51.441406 146.949219 C 55.378906 152.648438 58.5625 158.761719 63.171875 164.042969 C 64.007812 165.046875 64.929688 165.632812 66.1875 165.71875 C 67.441406 165.800781 68.53125 165.382812 69.621094 164.796875 C 75.652344 161.445312 81.433594 157.757812 87.214844 153.902344 C 89.394531 152.394531 91.65625 151.222656 94.421875 151.390625 C 95.257812 151.390625 96.011719 151.140625 96.851562 151.054688 C 98.191406 150.804688 99.027344 150.050781 98.859375 148.625 C 98.777344 147.453125 99.28125 146.699219 100.285156 146.113281 C 102.546875 144.773438 104.808594 143.347656 106.988281 141.839844 C 107.992188 141.167969 108.242188 141.253906 108.578125 142.425781 C 110.339844 149.296875 112.265625 156.082031 114.023438 162.953125 C 115.367188 167.894531 117.375 172.585938 118.800781 177.445312 C 120.058594 181.886719 121.3125 186.328125 122.652344 190.765625 C 123.574219 193.617188 124.582031 196.378906 125.753906 199.0625 L 125.921875 199.480469 L 126.089844 199.730469 C 127.847656 203.503906 130.109375 206.9375 133.378906 209.871094 C 134.300781 210.707031 135.808594 210.957031 136.730469 210.203125 C 138.574219 208.695312 140.5 207.355469 142.089844 205.597656 C 142.59375 205.09375 142.84375 204.757812 143.347656 205.597656 C 144.019531 206.519531 145.023438 207.105469 145.945312 207.605469 C 147.117188 208.277344 148.457031 208.109375 149.464844 207.019531 C 150.132812 206.351562 150.71875 205.597656 151.390625 204.84375 C 151.894531 204.257812 152.230469 203.667969 153.148438 203.585938 C 153.820312 203.503906 154.492188 202.914062 154.492188 202.078125 C 154.742188 198.726562 154.40625 195.460938 152.5625 192.441406 C 152.3125 192.023438 151.976562 191.519531 151.808594 191.101562 C 149.210938 183.480469 146.28125 175.9375 144.941406 167.894531 C 144.855469 167.558594 144.773438 167.226562 144.605469 166.972656 C 143.765625 165.296875 143.179688 163.539062 142.84375 161.613281 C 142.511719 160.105469 142.34375 158.511719 141.921875 157.085938 C 138.40625 146.617188 135.390625 135.890625 131.449219 125.503906 C 131.199219 124.75 131.285156 124.328125 131.953125 123.828125 C 134.886719 121.648438 155.160156 105.394531 162.28125 99.363281 C 170.074219 92.828125 177.78125 86.210938 183.730469 77.832031 C 186.828125 73.390625 189.929688 68.949219 192.945312 64.34375 C 194.621094 61.746094 194.035156 60.152344 191.355469 59.652344 Z M 152.730469 57.558594 C 152.648438 57.640625 152.648438 57.558594 152.730469 57.558594 Z M 105.480469 66.355469 C 105.898438 65.011719 106.652344 64.847656 107.824219 65.179688 C 110.671875 65.933594 113.269531 67.109375 115.953125 68.113281 C 121.0625 69.957031 126.171875 71.882812 131.285156 73.808594 C 132.207031 74.144531 132.625 73.976562 133.125 73.140625 C 136.5625 67.695312 140.164062 62.417969 143.933594 57.222656 C 144.519531 56.382812 144.855469 56.132812 145.777344 56.886719 C 147.203125 57.890625 148.625 58.980469 150.46875 59.484375 C 147.789062 64.09375 145.105469 68.699219 141.921875 73.054688 C 141.167969 73.976562 141.167969 74.480469 142.425781 74.648438 C 142.675781 74.730469 142.929688 74.898438 143.265625 74.898438 C 144.1875 75.152344 144.351562 75.484375 143.765625 76.40625 C 142.761719 77.746094 142.84375 77.832031 144.351562 78.417969 C 148.542969 79.925781 152.730469 81.601562 156.921875 83.027344 C 157.925781 83.359375 157.84375 83.949219 157.675781 84.703125 C 157.507812 85.539062 157.171875 86.042969 156.167969 85.707031 C 156.082031 85.707031 156 85.707031 155.914062 85.625 C 154.238281 85.289062 154.238281 85.289062 154.238281 87.046875 C 154.238281 88.972656 154.238281 88.972656 152.394531 88.972656 C 151.472656 88.972656 150.554688 88.808594 149.714844 88.472656 C 145.273438 86.542969 140.667969 84.953125 136.058594 83.195312 C 135.222656 82.859375 134.886719 83.109375 134.382812 83.78125 C 133.292969 85.457031 132.039062 86.964844 131.03125 88.722656 C 128.265625 93.332031 124.582031 97.183594 121.0625 101.121094 C 119.804688 102.546875 119.554688 102.628906 118.382812 101.121094 C 117.792969 100.285156 117.039062 99.78125 116.203125 99.363281 C 115.28125 98.859375 115.28125 98.359375 115.867188 97.519531 C 118.632812 93.917969 121.566406 90.316406 124.078125 86.542969 C 124.414062 86.042969 124.75 85.625 125.082031 85.121094 C 126.425781 83.027344 126.425781 83.027344 124.164062 82.019531 C 123.574219 81.769531 123.242188 81.519531 123.742188 80.929688 C 124.164062 80.429688 124.414062 79.925781 124.75 79.339844 C 120.222656 77.496094 115.785156 75.820312 111.34375 73.976562 C 109.082031 73.054688 106.820312 72.050781 104.558594 71.128906 L 104.222656 68.785156 C 104.894531 67.863281 105.226562 67.109375 105.480469 66.355469 Z M 144.019531 201.742188 L 144.6875 201.574219 C 144.519531 201.742188 144.269531 201.828125 144.019531 201.742188 Z M 144.019531 201.742188 "/>
<path style=" stroke:none;fill-rule:nonzero;fill:rgb(85.09804%,22.352941%,47.058824%);fill-opacity:1;" d="M 186.828125 57.976562 C 185.90625 57.722656 184.734375 57.472656 184.484375 56.550781 C 184.148438 55.460938 185.320312 55.042969 185.992188 54.539062 C 186.242188 54.375 186.496094 54.121094 186.578125 53.953125 C 186.746094 53.199219 188.171875 52.53125 187.082031 51.609375 C 184.566406 49.515625 181.804688 47.921875 178.285156 48.007812 C 176.355469 48.089844 174.347656 48.675781 172.585938 47.335938 C 172.335938 47.085938 171.664062 47.167969 171.332031 47.253906 C 170.742188 47.503906 170.074219 47.503906 169.488281 47.417969 C 166.21875 47.085938 162.953125 46.832031 159.683594 46.496094 C 155.746094 46.078125 151.808594 46.164062 147.789062 46.164062 C 143.429688 46.164062 138.992188 46.414062 134.632812 46.75 C 128.183594 47.253906 121.816406 47.921875 115.367188 48.425781 C 111.007812 48.761719 106.652344 48.339844 102.378906 49.011719 C 99.28125 49.429688 96.261719 49.597656 93.164062 49.261719 C 91.90625 49.09375 91.570312 49.515625 91.570312 50.6875 C 91.570312 53.621094 89.894531 55.460938 87.046875 56.050781 C 85.539062 56.382812 85.289062 56.71875 85.707031 58.226562 C 86.210938 59.820312 86.710938 61.410156 87.300781 63.003906 C 88.21875 65.433594 89.140625 67.777344 89.8125 70.207031 C 89.980469 70.960938 90.148438 71.464844 88.972656 71.632812 C 87.886719 71.800781 86.796875 72.386719 85.707031 72.804688 C 85.371094 72.972656 85.203125 73.054688 85.371094 73.558594 C 86.042969 75.570312 86.628906 77.496094 88.472656 78.835938 C 89.140625 79.257812 89.476562 80.011719 89.730469 80.765625 C 91.070312 83.949219 92.410156 87.132812 93.832031 90.316406 C 94 90.816406 94.167969 91.238281 94.335938 91.738281 C 94.671875 92.746094 98.527344 103.804688 100.035156 108.410156 C 100.199219 108.914062 100.285156 109.417969 100.453125 109.835938 C 100.453125 110.589844 100.789062 111.34375 100.535156 112.097656 C 99.78125 112.347656 99.195312 112.769531 98.609375 113.355469 C 97.855469 113.773438 97.101562 114.191406 96.515625 114.777344 C 96.347656 114.945312 96.179688 115.113281 96.011719 115.367188 C 94 116.121094 92.410156 117.710938 90.566406 118.800781 C 89.5625 119.46875 88.554688 120.140625 87.464844 120.8125 C 87.300781 120.894531 87.214844 120.980469 87.046875 121.0625 C 86.210938 121.480469 85.371094 121.984375 84.617188 122.652344 C 83.277344 123.40625 82.019531 124.246094 80.679688 125 C 79.757812 125.585938 78.921875 126.257812 78 126.84375 C 75.988281 128.265625 73.976562 129.609375 71.96875 131.03125 C 71.632812 131.117188 71.296875 131.285156 71.128906 131.617188 C 68.867188 133.042969 66.605469 134.46875 64.425781 135.976562 C 64.175781 136.144531 63.839844 136.394531 63.589844 136.5625 C 63.171875 136.8125 62.835938 137.0625 62.417969 137.316406 C 61.914062 137.652344 57.054688 141.003906 55.128906 142.257812 C 54.625 142.511719 54.121094 142.761719 53.703125 143.265625 C 52.277344 144.4375 52.277344 144.855469 53.453125 146.027344 L 53.621094 146.28125 L 53.953125 146.867188 C 53.953125 146.867188 57.976562 153.066406 58.8125 154.40625 C 58.8125 154.324219 58.8125 154.324219 58.898438 154.238281 C 58.898438 154.324219 58.898438 154.324219 58.8125 154.40625 C 59.066406 154.742188 59.234375 155.078125 59.484375 155.414062 C 59.734375 155.832031 59.988281 156.332031 60.320312 156.753906 L 61.328125 158.511719 C 62.25 160.1875 63.003906 160.355469 64.761719 159.433594 L 66.6875 158.34375 C 67.109375 158.175781 67.441406 157.925781 67.863281 157.675781 L 70.792969 156 L 76.15625 152.5625 C 76.15625 152.5625 76.238281 152.5625 76.238281 152.480469 C 76.40625 152.394531 76.828125 152.0625 77.414062 151.726562 L 83.695312 147.703125 C 84.117188 147.535156 84.449219 147.371094 84.617188 146.949219 C 85.289062 146.867188 85.789062 146.53125 86.210938 146.027344 C 86.878906 145.945312 87.550781 145.859375 88.136719 145.777344 C 89.140625 145.859375 90.230469 145.695312 91.152344 145.441406 L 91.402344 145.441406 C 92.324219 145.441406 93.582031 145.695312 93.5 144.4375 C 93.414062 142.34375 94.421875 141.167969 96.097656 140.332031 C 96.597656 140.082031 96.933594 139.746094 97.351562 139.410156 C 98.105469 138.90625 98.859375 138.488281 99.613281 137.984375 C 100.367188 137.484375 101.121094 136.980469 101.960938 136.476562 C 102.882812 136.058594 103.71875 135.472656 104.558594 134.800781 C 105.058594 134.632812 105.480469 134.382812 105.8125 133.964844 C 107.824219 132.707031 107.824219 132.707031 108.578125 134.214844 C 108.832031 135.136719 109.082031 135.976562 109.332031 136.898438 L 112.347656 148.542969 L 112.433594 148.375 C 112.769531 149.632812 113.019531 150.886719 113.4375 152.0625 C 113.605469 153.234375 113.941406 154.40625 114.359375 155.496094 C 114.609375 156.417969 114.863281 157.253906 115.113281 158.175781 C 115.785156 161.277344 116.621094 164.292969 117.710938 167.308594 C 118.214844 169.65625 119.386719 171.832031 120.222656 174.09375 C 120.390625 175.101562 120.558594 176.023438 121.0625 176.945312 C 122.570312 183.058594 124.328125 189.007812 126.59375 194.871094 C 127.679688 197.804688 128.519531 200.988281 130.695312 203.417969 C 131.449219 204.257812 132.207031 205.34375 133.125 203.585938 C 133.210938 203.417969 133.460938 203.335938 133.714844 203.25 C 135.304688 202.414062 136.644531 201.324219 137.652344 199.730469 C 138.320312 198.644531 139.660156 198.894531 140.667969 198.726562 C 141.503906 198.558594 141.335938 199.480469 141.589844 199.898438 C 142.257812 200.90625 143.097656 201.742188 144.101562 201.992188 C 145.023438 202.246094 145.273438 200.90625 145.945312 200.402344 C 146.28125 200.152344 146.949219 199.816406 146.617188 199.3125 C 145.859375 197.972656 146.699219 198.140625 147.535156 198.140625 C 149.546875 198.054688 149.546875 198.054688 149.464844 196.046875 C 149.464844 195.625 149.378906 195.292969 149.378906 194.871094 C 149.210938 192.527344 147.703125 190.601562 146.867188 188.421875 C 145.609375 185.238281 144.4375 181.886719 143.429688 178.621094 C 141.335938 171.414062 139.410156 164.125 137.398438 156.921875 C 136.980469 155.414062 136.394531 153.902344 135.976562 152.394531 C 135.976562 152.230469 136.058594 152.0625 136.058594 151.976562 C 134.71875 147.789062 133.378906 143.515625 132.121094 139.328125 C 131.871094 137.820312 130.613281 134.800781 130.53125 134.632812 C 130.53125 134.300781 130.445312 133.964844 130.277344 133.796875 C 129.609375 131.785156 128.855469 129.859375 128.183594 127.847656 C 128.183594 127.09375 127.847656 126.507812 127.511719 125.921875 C 126.757812 125.167969 127.261719 123.996094 126.59375 123.242188 C 126.507812 122.90625 125.835938 120.308594 125.835938 120.308594 C 126.003906 120.058594 126.171875 119.804688 126.339844 119.554688 C 127.011719 119.050781 127.679688 118.550781 128.265625 118.046875 C 129.441406 117.292969 130.53125 116.453125 131.535156 115.449219 C 131.871094 115.28125 132.207031 115.113281 132.371094 114.777344 C 133.042969 114.359375 133.714844 113.855469 134.214844 113.355469 C 135.390625 112.683594 136.476562 111.929688 137.230469 110.757812 C 138.070312 110.589844 138.65625 109.917969 139.242188 109.417969 C 141.589844 107.65625 143.933594 105.8125 146.113281 103.804688 C 147.453125 102.796875 148.710938 101.875 149.882812 100.703125 C 153.820312 97.605469 157.589844 94.421875 161.277344 91.070312 C 173.089844 82.523438 180.796875 70.460938 188.839844 58.480469 C 187.835938 58.144531 187.332031 58.058594 186.828125 57.976562 Z M 158.761719 86.042969 C 158.429688 87.046875 157.589844 87.132812 156.667969 87.046875 C 155.832031 86.964844 155.414062 87.214844 155.578125 88.136719 C 155.914062 89.5625 155.078125 89.980469 153.902344 90.230469 C 151.894531 90.566406 149.964844 89.980469 148.039062 89.394531 C 146.867188 88.722656 145.609375 88.054688 144.1875 87.96875 C 143.933594 87.550781 143.515625 87.382812 143.011719 87.382812 C 142.511719 87.214844 142.007812 87.046875 141.503906 86.878906 C 140.667969 86.378906 139.746094 86.125 138.824219 85.875 C 135.976562 84.785156 135.472656 84.703125 134.382812 86.378906 L 134.382812 86.292969 C 134.382812 86.292969 128.015625 95.59375 125.167969 98.609375 C 125 98.859375 124.917969 98.945312 124.832031 99.113281 L 123.40625 100.871094 C 122.570312 101.710938 121.734375 102.628906 120.726562 103.21875 C 120.222656 103.300781 119.804688 103.46875 119.304688 103.550781 C 118.714844 103.300781 118.128906 102.882812 117.542969 102.464844 C 117.460938 102.378906 117.375 102.296875 117.292969 102.210938 C 116.875 101.542969 116.203125 101.039062 115.53125 100.703125 C 115.113281 100.199219 114.609375 99.867188 114.109375 99.53125 C 112.601562 98.023438 111.511719 96.683594 111.511719 96.683594 C 111.425781 96.179688 111.511719 95.675781 111.511719 95.257812 C 114.609375 90.316406 118.714844 86.125 121.816406 81.183594 C 122.488281 80.09375 122.402344 79.675781 121.230469 79.257812 C 115.199219 76.910156 109.082031 74.5625 103.21875 71.882812 C 100.035156 70.460938 99.613281 69.285156 100.621094 66.019531 C 101.207031 64.257812 102.464844 62.917969 102.964844 61.074219 C 103.21875 60.070312 104.390625 59.988281 105.3125 60.070312 C 106.234375 60.152344 107.238281 60.320312 108.160156 60.65625 C 115.03125 63.253906 121.898438 65.765625 128.769531 68.363281 C 129.777344 68.785156 130.363281 68.53125 130.863281 67.695312 C 131.449219 66.6875 132.121094 65.683594 132.792969 64.679688 C 135.554688 60.742188 138.320312 56.804688 141.085938 52.867188 C 142.425781 50.9375 143.011719 50.855469 144.941406 52.027344 C 145.023438 52.109375 145.105469 52.109375 145.191406 52.195312 C 146.949219 53.703125 149.042969 54.539062 151.390625 54.625 C 151.976562 54.625 152.5625 54.792969 152.648438 55.546875 C 152.816406 57.222656 152.816406 58.898438 151.808594 60.320312 C 150.804688 61.664062 147.117188 67.945312 146.027344 69.621094 C 145.359375 70.625 144.855469 71.714844 144.1875 72.636719 C 143.515625 73.558594 144.019531 73.726562 144.773438 73.976562 C 148.125 75.066406 151.390625 76.238281 154.574219 77.664062 C 155.246094 78 156 78.25 156.25 79.089844 C 156.332031 79.507812 156.667969 79.589844 157.003906 79.507812 C 158.34375 79.257812 158.679688 80.175781 158.929688 81.097656 C 159.351562 82.859375 159.183594 84.449219 158.761719 86.042969 Z M 158.761719 86.042969 "/>
</g>
</svg>
