<svg height="250" viewBox="0 0 250 250" width="250" xmlns="http://www.w3.org/2000/svg"><path d="m0 0h250v250h-250z" fill="#faee00"/><path d="m191.355469 59.652344c.417969-.753906.835937-1.425782 1.171875-2.09375.753906-1.761719.585937-2.429688-.753906-3.773438-.671876-.667968-1.59375-1.253906-2.011719-2.09375-2.011719-3.683594-5.445313-5.195312-9.300781-5.613281-2.429688-.25-4.859376-.167969-7.203126-.835937-.25-.085938-.503906-.085938-.753906-.085938-3.101562.421875-6.03125-.332031-9.046875-.585938-12.148437-.921874-24.296875-.417968-36.363281.753907-11.5625 1.089843-23.207031 1.929687-34.851562 1.84375-1.757813 0-2.347657.585937-2.511719 2.347656-.085938.585937 0 1.253906-.085938 1.839844 0 .421875 0 .921875-.417969 1.007812-1.089843.335938-1.84375 1.257813-3.015624 1.589844-2.261719.503906-2.765626 1.425781-2.515626 3.6875.421876 3.101563 1.675782 5.949219 2.765626 8.796875 1.257812 3.101562 1.257812 3.101562-1.84375 4.441406-.921876.417969-1.589844 1.003906-1.339844 2.09375.417968 2.09375.671875 4.355469 2.347656 5.863282 1.507812 1.425781 2.511719 3.101562 3.265625 5.027343 3.6875 8.378907 6.367187 17.175781 9.300781 25.804688.335938.921875-.253906 1.089843-.753906 1.425781-3.769531 2.761719-7.707031 5.277344-11.648438 7.789062l-4.355468 2.765626s-14.996094 10.136718-19.269532 12.984374l-6.785156 4.609376-.25.25c-.921875.589843-1.761718 1.175781-2.683594 1.84375-.835937.585937-1.339843 1.339843-1.675781 2.09375l-.082031.085937.082031.082031c-.332031 1.089844-.167969 2.179688.671875 3.351563 3.9375 5.699219 7.121094 11.8125 11.730469 17.09375.835937 1.003906 1.757813 1.589843 3.015625 1.675781 1.253906.082031 2.34375-.335938 3.433594-.921875 6.03125-3.351563 11.8125-7.039063 17.59375-10.894531 2.179687-1.507813 4.441406-2.679688 7.207031-2.511719.835937 0 1.589844-.25 2.429687-.335937 1.339844-.25 2.175782-1.003907 2.007813-2.429688-.082031-1.171875.421875-1.925781 1.425781-2.511719 2.261719-1.339843 4.523438-2.765625 6.703125-4.273437 1.003907-.671875 1.253907-.585938 1.589844.585937 1.761719 6.871094 3.6875 13.65625 5.445313 20.527344 1.34375 4.941406 3.351562 9.632813 4.777343 14.492187 1.257813 4.441407 2.511719 8.882813 3.851563 13.320313.921875 2.851563 1.929687 5.613281 3.101562 8.296875l.167969.417969.167969.25c1.757812 3.773437 4.019531 7.207031 7.289062 10.140625.921875.835937 2.429688 1.085937 3.351563.332031 1.84375-1.507813 3.769531-2.847656 5.359375-4.605469.503906-.503906.753906-.839844 1.257812 0 .671875.921875 1.675782 1.507813 2.597656 2.007813 1.171876.671875 2.511719.503906 3.519532-.585938.667968-.667969 1.253906-1.421875 1.925781-2.175781.503906-.585938.839844-1.175781 1.757813-1.257812.671874-.082032 1.34375-.671876 1.34375-1.507813.25-3.351563-.085938-6.617187-1.929688-9.636719-.25-.417968-.585938-.921875-.753906-1.339844-2.597656-7.621093-5.527344-15.164062-6.867188-23.207031-.085937-.335937-.167968-.667969-.335937-.921875-.839844-1.675781-1.425781-3.433594-1.761719-5.359375-.332031-1.507812-.5-3.101562-.921875-4.527343-3.515625-10.46875-6.53125-21.195313-10.472656-31.582032-.25-.753906-.164063-1.175781.503906-1.675781 2.933594-2.179687 23.207031-18.433594 30.328125-24.464844 7.792969-6.535156 15.5-13.152343 21.449219-21.53125 3.097656-4.441406 6.199219-8.882812 9.214843-13.488281 1.675782-2.597656 1.089844-4.191406-1.589843-4.691406zm-38.625-2.09375c-.082031.082031-.082031 0 0 0zm-47.25 8.796875c.417969-1.34375 1.171875-1.507813 2.34375-1.175781 2.847656.753906 5.445312 1.929687 8.128906 2.933593 5.109375 1.84375 10.21875 3.769531 15.332031 5.695313.921875.335937 1.339844.167968 1.839844-.667969 3.4375-5.445313 7.039062-10.722656 10.808594-15.917969.585937-.839844.921875-1.089844 1.84375-.335937 1.425781 1.003906 2.847656 2.09375 4.691406 2.597656-2.679688 4.609375-5.363281 9.214844-8.546875 13.570313-.753906.921874-.753906 1.425781.503906 1.59375.25.082031.503907.25.839844.25.921875.253906 1.085937.585937.5 1.507812-1.003906 1.339844-.921875 1.425781.585937 2.011719 4.191407 1.507812 8.378907 3.183593 12.570313 4.609375 1.003906.332031.921875.921875.753906 1.675781-.167969.835937-.503906 1.339844-1.507812 1.003906-.085938 0-.167969 0-.253907-.082031-1.675781-.335938-1.675781-.335938-1.675781 1.421875 0 1.925781 0 1.925781-1.84375 1.925781-.921875 0-1.839843-.164062-2.679687-.5-4.441406-1.929687-9.046875-3.519531-13.65625-5.277344-.835938-.335937-1.171875-.085937-1.675782.585938-1.089843 1.675781-2.34375 3.183594-3.351562 4.941406-2.765625 4.609375-6.449219 8.460938-9.96875 12.398438-1.257812 1.425781-1.507812 1.507812-2.679688 0-.589843-.835938-1.34375-1.339844-2.179687-1.757813-.921875-.503906-.921875-1.003906-.335937-1.84375 2.765624-3.601562 5.699218-7.203125 8.210937-10.976562.335937-.5.671875-.917969 1.003906-1.421875 1.34375-2.09375 1.34375-2.09375-.917969-3.101563-.589843-.25-.921874-.5-.421874-1.089843.421874-.5.671874-1.003907 1.007812-1.589844-4.527344-1.84375-8.964844-3.519532-13.40625-5.363282-2.261719-.921874-4.523438-1.925781-6.785156-2.847656l-.335938-2.34375c.671875-.921875 1.003906-1.675781 1.257813-2.429687zm38.539062 135.386719.667969-.167969c-.167969.167969-.417969.253906-.667969.167969zm0 0" fill="#090502"/><path d="m186.828125 57.976562c-.921875-.253906-2.09375-.503906-2.34375-1.425781-.335937-1.089843.835937-1.507812 1.507813-2.011719.25-.164062.503906-.417968.585937-.585937.167969-.753906 1.59375-1.421875.503906-2.34375-2.515625-2.09375-5.277343-3.6875-8.796875-3.601563-1.929687.082032-3.9375.667969-5.699218-.671874-.25-.25-.921876-.167969-1.253907-.082032-.589843.25-1.257812.25-1.84375.164063-3.269531-.332031-6.535156-.585938-9.804687-.921875-3.9375-.417969-7.875-.332032-11.894532-.332032-4.359374 0-8.796874.25-13.15625.585938-6.449218.503906-12.816406 1.171875-19.265624 1.675781-4.359376.335938-8.714844-.085937-12.988282.585938-3.097656.417969-6.117187.585937-9.214844.25-1.257812-.167969-1.59375.253906-1.59375 1.425781 0 2.933594-1.675781 4.773438-4.523437 5.363281-1.507813.332031-1.757813.667969-1.339844 2.175781.503907 1.59375 1.003907 3.183594 1.59375 4.777344.917969 2.429688 1.839844 4.773438 2.511719 7.203125.167969.753907.335938 1.257813-.839844 1.425781-1.085937.167969-2.175781.753907-3.265625 1.171876-.335937.167968-.503906.25-.335937.753906.671875 2.011718 1.257812 3.9375 3.101562 5.277344.667969.421874 1.003906 1.175781 1.257813 1.929687 1.339843 3.183594 2.679687 6.367187 4.101562 9.550781.167969.5.335938.921875.503907 1.421875.335937 1.007813 4.191406 12.066407 5.699218 16.671875.164063.503906.25 1.007813.417969 1.425782 0 .753906.335937 1.507812.082031 2.261718-.753906.25-1.339844.671875-1.925781 1.257813-.753906.417969-1.507813.835937-2.09375 1.421875-.167969.167968-.335937.335937-.503906.589844-2.011719.753906-3.601563 2.34375-5.445313 3.433593-1.003906.667969-2.011718 1.339844-3.101562 2.011719-.164063.082031-.25.167969-.417969.25-.835937.417969-1.675781.921875-2.429687 1.589844-1.339844.753906-2.597657 1.59375-3.9375 2.347656-.921876.585938-1.757813 1.257812-2.679688 1.84375-2.011719 1.421875-4.023438 2.765625-6.03125 4.1875-.335938.085938-.671875.253906-.839844.585938-2.261718 1.425781-4.523437 2.851562-6.703125 4.359374-.25.167969-.585937.417969-.835937.585938-.417969.25-.753906.5-1.171875.753906-.503907.335938-5.363281 3.6875-7.289063 4.941406-.503906.253907-1.007812.503907-1.425781 1.007813-1.425781 1.171875-1.425781 1.589844-.25 2.761719l.167969.253906.332031.585938s4.023437 6.199218 4.859375 7.539062c0-.082031 0-.082031.085938-.167969 0 .085938 0 .085938-.085938.167969.253906.335938.421875.671875.671875 1.007812.25.417969.503906.917969.835937 1.339844l1.007813 1.757813c.921875 1.675781 1.675781 1.84375 3.433594.921875l1.925781-1.089844c.421875-.167969.753906-.417969 1.175781-.667969l2.929688-1.675781 5.363281-3.4375s.082031 0 .082031-.082031c.167969-.085938.589844-.417969 1.175781-.753907l6.28125-4.023437c.421876-.167969.753907-.332031.921876-.753906.671874-.082031 1.171874-.417969 1.59375-.921875.667968-.082032 1.339843-.167969 1.925781-.25 1.003906.082031 2.09375-.082032 3.015625-.335938h.25c.921875 0 2.179687.253906 2.097656-1.003906-.085938-2.09375.921875-3.269531 2.597656-4.105469.5-.25.835938-.585937 1.253906-.921875.753907-.503906 1.507813-.921875 2.261719-1.425781.753907-.5 1.507813-1.003906 2.347657-1.507813.921874-.417968 1.757812-1.003906 2.597656-1.675781.5-.167969.921875-.417969 1.253906-.835937 2.011719-1.257813 2.011719-1.257813 2.765625.25.253906.921875.503906 1.761718.753906 2.683594l3.015625 11.644531.085938-.167969c.335937 1.257812.585937 2.511719 1.003906 3.6875.167969 1.171875.503906 2.34375.921875 3.433594.25.921875.503906 1.757812.753906 2.679687.671875 3.101563 1.507813 6.117188 2.597657 9.132813.503906 2.347656 1.675781 4.523437 2.511718 6.785156.167969 1.007812.335938 1.929688.839844 2.851562 1.507812 6.113282 3.265625 12.0625 5.53125 17.925782 1.085938 2.933594 1.925781 6.117187 4.101562 8.546875.753907.839843 1.511719 1.925781 2.429688.167969.085938-.167969.335938-.25.589844-.335938 1.589844-.835938 2.929687-1.925781 3.9375-3.519531.667968-1.085938 2.007812-.835938 3.015625-1.003907.835937-.167968.667969.753907.921875 1.171876.667968 1.007812 1.507812 1.84375 2.511718 2.09375.921876.253906 1.171876-1.085938 1.84375-1.589844.335938-.25 1.003907-.585938.671876-1.089844-.757813-1.339844.082031-1.171875.917968-1.171875 2.011719-.085937 2.011719-.085937 1.929688-2.09375 0-.421875-.085938-.753906-.085938-1.175781-.167968-2.34375-1.675781-4.269532-2.511718-6.449219-1.257813-3.183594-2.429688-6.535156-3.4375-9.800781-2.09375-7.207032-4.019532-14.496094-6.03125-21.699219-.417969-1.507813-1.003907-3.019531-1.421876-4.527344 0-.164062.082032-.332031.082032-.417969-1.339844-4.1875-2.679688-8.460937-3.9375-12.648437-.25-1.507813-1.507813-4.527344-1.589844-4.695313 0-.332031-.085938-.667968-.253906-.835937-.667969-2.011719-1.421875-3.9375-2.09375-5.949219 0-.753906-.335938-1.339844-.671875-1.925781-.753907-.753906-.25-1.925781-.917969-2.679687-.085938-.335938-.757812-2.933594-.757812-2.933594.167968-.25.335937-.503906.503906-.753906.671875-.503907 1.339844-1.003907 1.925781-1.507813 1.175781-.753906 2.265625-1.59375 3.269531-2.597656.335938-.167969.671875-.335938.835938-.671875.671875-.417969 1.34375-.921875 1.84375-1.421875 1.175781-.671875 2.261718-1.425781 3.015625-2.597657.839843-.167968 1.425781-.839843 2.011719-1.339843 2.347656-1.761719 4.691406-3.605469 6.871093-5.613281 1.339844-1.007813 2.597657-1.929688 3.769531-3.101563 3.9375-3.097656 7.707032-6.28125 11.394532-9.632813 11.8125-8.546874 19.519531-20.609374 27.5625-32.589843-1.003906-.335938-1.507813-.421875-2.011719-.503907zm-28.066406 28.066407c-.332031 1.003906-1.171875 1.089843-2.09375 1.003906-.835938-.082031-1.253907.167969-1.089844 1.089844.335937 1.425781-.5 1.84375-1.675781 2.09375-2.007813.335937-3.9375-.25-5.863282-.835938-1.171874-.671875-2.429687-1.339843-3.851562-1.425781-.253906-.417969-.671875-.585938-1.175781-.585938-.5-.167968-1.003907-.335937-1.507813-.503906-.835937-.5-1.757812-.753906-2.679687-1.003906-2.847657-1.089844-3.351563-1.171875-4.441407.503906v-.085937s-6.367187 9.300781-9.214843 12.316406c-.167969.25-.25.335937-.335938.503906l-1.425781 1.757813c-.835938.839844-1.671875 1.757812-2.679688 2.347656-.503906.082031-.921874.25-1.421874.332031-.589844-.25-1.175782-.667969-1.761719-1.085937-.082031-.085938-.167969-.167969-.25-.253906-.417969-.667969-1.089844-1.171876-1.761719-1.507813-.417969-.503906-.921875-.835937-1.421875-1.171875-1.507813-1.507812-2.597656-2.847656-2.597656-2.847656-.085938-.503906 0-1.007813 0-1.425782 3.097656-4.941406 7.203125-9.132812 10.304687-14.074218.671875-1.089844.585938-1.507813-.585937-1.925782-6.03125-2.347656-12.148438-4.695312-18.011719-7.375-3.183594-1.421874-3.605469-2.597656-2.597656-5.863281.585937-1.761719 1.84375-3.101562 2.34375-4.945312.253906-1.003907 1.425781-1.085938 2.347656-1.003907.921875.082032 1.925781.25 2.847656.585938 6.871094 2.597656 13.738282 5.109375 20.609375 7.707031 1.007813.421875 1.59375.167969 2.09375-.667969.585938-1.007812 1.257813-2.011718 1.929688-3.015624 2.761719-3.9375 5.527343-7.875 8.292969-11.8125 1.339843-1.929688 1.925781-2.011719 3.855468-.839844.082032.082031.164063.082031.25.167968 1.757813 1.507813 3.851563 2.34375 6.199219 2.429688.585937 0 1.171875.167969 1.257813.921875.167968 1.675781.167968 3.351563-.839844 4.773437-1.003906 1.34375-4.691406 7.625-5.78125 9.300782-.667969 1.003906-1.171875 2.09375-1.839844 3.015625-.671875.921875-.167969 1.089843.585938 1.339843 3.351562 1.089844 6.617187 2.261719 9.800781 3.6875.671875.335938 1.425781.585938 1.675781 1.425782.082031.417968.417969.5.753906.417968 1.339844-.25 1.675782.667969 1.925782 1.589844.421874 1.761719.253906 3.351563-.167969 4.945313zm0 0" fill="#d93978"/></svg>