<svg height="250" viewBox="0 0 250 250" width="250" xmlns="http://www.w3.org/2000/svg"><path d="m220.84375 133.25c.011719-19.125-5.472656-37.839844-15.777344-53.859375l38.300782-38.84375-28.765626-29.175781-38.277343 38.84375c-32.28125-21.351563-73.953125-21.351563-106.234375 0l-38.335938-38.84375-28.773437 29.175781 38.304687 38.839844c-21.050781 32.738281-21.050781 74.996093 0 107.730469l-38.304687 38.847656 28.773437 29.179687 38.304688-38.84375c32.28125 21.347657 73.953125 21.347657 106.234375 0l38.304687 38.84375 28.769532-29.179687-38.300782-38.8125c10.3125-16.03125 15.796875-34.761719 15.777344-53.902344zm-154.644531 0c-.042969-23.589844 14.0625-44.835938 35.628906-53.675781 21.570313-8.835938 46.269531-3.492188 62.402344 13.503906 16.132812 17 20.457031 42.234375 10.921875 63.75l-37.585938-38.164063-28.78125 29.183594 37.597656 38.117188c-17.613281 8.03125-38.046874 6.449218-54.253906-4.207032-16.203125-10.652343-25.972656-28.921874-25.929687-48.507812zm0 0" fill="#052892"/></svg>