
<svg xmlns="http://www.w3.org/2000/svg" xmlns:xlink="http://www.w3.org/1999/xlink" width="250px" height="250px" viewBox="0 0 250 250" version="1.1">
<g id="surface1">
<path style=" stroke:none;fill-rule:nonzero;fill:rgb(1.960784%,15.686275%,57.254905%);fill-opacity:1;" d="M 220.84375 133.25 C 220.855469 114.125 215.371094 95.410156 205.066406 79.390625 L 243.367188 40.546875 L 214.601562 11.371094 L 176.324219 50.214844 C 144.042969 28.863281 102.371094 28.863281 70.089844 50.214844 L 31.753906 11.371094 L 2.980469 40.546875 L 41.285156 79.386719 C 20.234375 112.125 20.234375 154.382812 41.285156 187.117188 L 2.980469 225.964844 L 31.753906 255.144531 L 70.058594 216.300781 C 102.339844 237.648438 144.011719 237.648438 176.292969 216.300781 L 214.597656 255.144531 L 243.367188 225.964844 L 205.066406 187.152344 C 215.378906 171.121094 220.863281 152.390625 220.84375 133.25 Z M 66.199219 133.25 C 66.15625 109.660156 80.261719 88.414062 101.828125 79.574219 C 123.398438 70.738281 148.097656 76.082031 164.230469 93.078125 C 180.363281 110.078125 184.6875 135.3125 175.152344 156.828125 L 137.566406 118.664062 L 108.785156 147.847656 L 146.382812 185.964844 C 128.769531 193.996094 108.335938 192.414062 92.128906 181.757812 C 75.925781 171.105469 66.15625 152.835938 66.199219 133.25 Z M 66.199219 133.25 "/>
</g>
</svg>
