<svg height="250" viewBox="0 0 250 250" width="250" xmlns="http://www.w3.org/2000/svg"><path d="m187.40625 93.375v62.253906l62.464844-31.125v-62.253906zm0 0" fill="#9391bb"/><path d="m249.871094 186.753906-62.464844-31.128906v62.253906h-.003906l62.46875 31.125zm0 0" fill="#a2eee3"/><path d="m124.9375 62.25v-62.25l-124.9375 62.25 62.46875 31.125zm0 0" fill="#46ddc8"/><path d="m124.9375 186.753906-62.46875-31.128906-62.46875 31.128906 124.9375 62.25zm0 0" fill="#262278"/><path d="m0 62.253906v124.5l62.46875-31.125v-62.253906zm0 0" fill="#9391bb"/><path d="m187.402344 155.628906-62.464844 31.125v62.25l62.46875-31.125zm0 0" fill="#46ddc8"/><path d="m187.40625 93.375 62.464844-31.125-62.464844-31.125-62.46875-31.125v62.25zm0 0" fill="#262278"/></svg>