
<svg xmlns="http://www.w3.org/2000/svg" xmlns:xlink="http://www.w3.org/1999/xlink" width="250px" height="250px" viewBox="0 0 250 250" version="1.1">
<g id="surface1">
<path style=" stroke:none;fill-rule:nonzero;fill:rgb(57.647061%,56.862748%,73.333335%);fill-opacity:1;" d="M 187.40625 93.375 L 187.40625 155.628906 L 249.871094 124.503906 L 249.871094 62.25 Z M 187.40625 93.375 "/>
<path style=" stroke:none;fill-rule:nonzero;fill:rgb(63.529414%,93.333334%,89.019608%);fill-opacity:1;" d="M 249.871094 186.753906 L 187.40625 155.625 L 187.40625 217.878906 L 187.402344 217.878906 L 249.871094 249.003906 Z M 249.871094 186.753906 "/>
<path style=" stroke:none;fill-rule:nonzero;fill:rgb(27.450982%,86.666667%,78.431374%);fill-opacity:1;" d="M 124.9375 62.25 L 124.9375 0 L 0 62.25 L 62.46875 93.375 Z M 124.9375 62.25 "/>
<path style=" stroke:none;fill-rule:nonzero;fill:rgb(14.901961%,13.333334%,47.058824%);fill-opacity:1;" d="M 124.9375 186.753906 L 62.46875 155.625 L 0 186.753906 L 124.9375 249.003906 Z M 124.9375 186.753906 "/>
<path style=" stroke:none;fill-rule:nonzero;fill:rgb(57.647061%,56.862748%,73.333335%);fill-opacity:1;" d="M 0 62.253906 L 0 186.753906 L 62.46875 155.628906 L 62.46875 93.375 Z M 0 62.253906 "/>
<path style=" stroke:none;fill-rule:nonzero;fill:rgb(27.450982%,86.666667%,78.431374%);fill-opacity:1;" d="M 187.402344 155.628906 L 124.9375 186.753906 L 124.9375 249.003906 L 187.40625 217.878906 Z M 187.402344 155.628906 "/>
<path style=" stroke:none;fill-rule:nonzero;fill:rgb(14.901961%,13.333334%,47.058824%);fill-opacity:1;" d="M 187.40625 93.375 L 249.871094 62.25 L 187.40625 31.125 L 124.9375 0 L 124.9375 62.25 Z M 187.40625 93.375 "/>
</g>
</svg>
