<svg height="250" viewBox="0 0 250 250" width="250" xmlns="http://www.w3.org/2000/svg"><path d="m116.210938 1.269531c-.292969.292969-3.417969.683594-6.835938.78125-3.515625.097657-7.03125.585938-7.8125.976563-1.660156.878906-8.886719 2.246094-10.15625 1.953125-.390625-.097657-1.269531.195312-1.953125.683593-.585937.488282-2.832031 1.464844-4.980469 2.050782-7.226562 2.148437-24.21875 10.253906-25.976562 12.402344-.585938.78125-1.757813 1.367187-2.441406 1.367187-.78125 0-1.367188.390625-1.367188.878906s-.78125 1.171875-1.660156 1.464844c-.976563.292969-3.027344 1.757813-4.6875 3.222656-1.5625 1.5625-4.6875 4.003907-6.835938 5.664063-4.199218 3.125-9.277344 8.105468-9.277344 9.179687 0 .390625-1.757812 2.636719-3.90625 4.980469-2.148437 2.34375-4.199218 5.078125-4.492187 6.054688-.292969.976562-.976563 1.757812-1.464844 1.757812s-.878906.585938-.878906 1.269531c0 .683594-.78125 2.148438-1.757813 3.222657-.976562.976562-2.441406 3.320312-3.125 4.980468-.78125 1.757813-1.855468 3.222656-2.246093 3.222656-.488281 0-.585938.390626-.292969.78125.292969.488282-.390625 2.050782-1.464844 3.710938-.976562 1.5625-1.855468 3.613281-1.855468 4.492188 0 .976562-.390626 1.757812-.976563 1.757812-.488281 0-.976563 1.074219-.976563 2.34375 0 1.367188-.390624 2.734375-.976562 3.027344-.488281.292968-.976562 1.660156-.976562 3.027344 0 1.269531-.390626 2.34375-.78125 2.34375-.390626 0-1.269532 2.929687-1.855469 6.542968-.683594 3.710938-1.464844 8.203125-1.953125 10.058594-1.464844 6.738281-.78125 36.132812.976562 44.433594.878906 4.296875 1.757813 8.789062 1.953125 9.960937.195313 1.171875.585938 2.539063.976563 2.832031.390625.390626.683594 1.757813.683594 3.027344 0 1.269532.488281 2.246094.976562 2.246094.585938 0 .976562.878906.976562 1.855469 0 1.074219.488282 2.246093.976563 2.539062.585937.292969.976563 1.660157.976563 3.027344 0 1.269531.390624 2.34375.878906 2.34375.488281 0 1.171875 1.367187 1.5625 2.929687.390625 1.660157 1.074218 2.929688 1.5625 2.929688.488281 0 .878906.683594.878906 1.464844 0 .878906.878906 2.441406 1.953125 3.613281s1.953125 2.734375 1.953125 3.417969.390625 1.269531.78125 1.269531 1.5625 1.464844 2.636719 3.125c.976562 1.757813 2.34375 3.710937 2.832031 4.296875.585938.585938 2.34375 2.734375 4.003906 4.785156 4.785156 6.152344 16.992188 18.066406 18.457032 18.066406.78125 0 2.246093 1.074219 3.320312 2.441407 1.074219 1.367187 2.539062 2.441406 3.320312 2.441406.683594 0 1.953126.878906 2.734376 1.953125s1.953124 1.953125 2.539062 1.953125c.683594 0 3.90625 1.5625 7.226562 3.417969 3.320313 1.855468 6.640626 3.417968 7.421876 3.417968s1.367187.390626 1.367187.976563c0 .488281.976563.976563 2.246094.976563s2.636719.390624 3.125.878906c.976562.878906 15.527343 4.882812 20.507812 5.566406 1.660157.292969 4.003907.683594 5.371094 1.074219 3.613281.878906 33.496094 1.171875 34.667969.292969.585937-.390626 2.929687-.976563 5.371094-1.269532 2.441406-.390625 6.152343-.976562 8.300781-1.5625 2.148437-.488281 4.882812-1.171875 6.054687-1.367187 1.171875-.292969 2.929688-.976563 3.90625-1.464844.976563-.488281 2.34375-.683594 3.027344-.488281.585938.292968 1.171875 0 1.171875-.585938 0-.585937.878906-1.074218 1.855469-1.074218 1.074218 0 2.246094-.488282 2.539062-.976563.292969-.585937 1.464844-.976563 2.539063-.976563.976562 0 1.855469-.390624 1.855469-.878906 0-.78125 2.050781-1.660156 5.664062-2.539062.78125-.195313 2.148438-1.074219 3.027344-1.855469.976562-.878906 2.246094-1.5625 2.832031-1.5625.683594 0 1.171875-.488281 1.171875-.976563 0-.585937.78125-.976562 1.757812-.976562.976563 0 2.34375-.878906 3.125-1.953125s1.953126-1.953125 2.636719-1.953125c.78125 0 3.125-1.953125 5.371094-4.394531 2.246094-2.441407 4.6875-4.394531 5.371094-4.394531.683593 0 1.269531-.488282 1.269531-1.074219 0-.488281.292969-.78125.78125-.585938.878906.390625 5.078125-3.90625 4.296875-4.589843-.292969-.292969 0-.585938.585937-.585938.683594 0 1.171876-.488281 1.171876-1.074219 0-.683593 1.953124-3.125 4.394531-5.566406 2.441406-2.34375 4.394531-4.980469 4.394531-5.664063 0-.78125.488281-1.367187.976562-1.367187.585938 0 .976563-.683594.976563-1.5625 0-.78125.488281-1.171875.976563-.878906.585937.292969.976562-.292969.976562-1.367188 0-1.171875.488281-2.050781.976562-2.050781.585938 0 .976563-.488281.976563-1.074219 0-.585937.878906-2.148437 1.953125-3.515625 1.074219-1.367187 1.757812-2.832031 1.464844-3.222656-.292969-.390625.195312-1.269531.976562-1.953125s1.171875-1.5625.878906-2.050781c-.292968-.488282 0-.878906.488282-.878906.585937 0 1.074218-.878907 1.074218-1.855469 0-1.074219.488282-2.246094.976563-2.539063.585937-.292968.976563-1.464844.976563-2.539062 0-.976563.488281-1.855469.976562-1.855469.585938 0 .976562-1.074219.976562-2.441406 0-1.367188.488282-2.441407 1.074219-2.441407.488281 0 .78125-.390624.488281-.878906-.390624-.488281.097657-3.515625.976563-6.640625s1.855469-7.421875 2.050781-9.570312c.195313-2.148438.683594-4.589844.976563-5.371094.976562-2.246094 1.171875-27.929687.292969-32.03125-.488282-1.953125-1.074219-5.371094-1.367188-7.519531-.78125-6.152344-4.101562-19.335938-5.371094-21.777344-2.441406-4.492188-7.910156-16.894531-7.910156-17.773438 0-.488281-.390625-.976562-.976562-.976562-.488282 0-.976563-.78125-.976563-1.757812 0-.976563-.878906-2.34375-1.953125-3.125s-1.953125-1.855469-1.953125-2.441407c0-.683593-1.074219-2.148437-2.441406-3.417969-1.367188-1.269531-2.441407-2.832031-2.441407-3.417968 0-.585938-.976562-1.953125-2.148437-3.125-1.269531-1.074219-3.613281-3.417969-5.273437-5.273438-3.613282-4.003906-11.914063-11.621094-12.695313-11.621094-.292969 0-1.5625-1.074218-2.929687-2.441406-1.367188-1.367187-2.734376-2.441406-3.222657-2.441406-.390625 0-1.660156-.878906-2.832031-1.953125-1.171875-1.171875-2.148438-1.757813-2.148438-1.464844s-1.464843-.488281-3.222656-1.855469c-1.855468-1.464843-3.808594-2.539062-4.492187-2.539062-.683594 0-1.855469-.683594-2.636719-1.464844-.878906-.78125-2.34375-1.464844-3.417969-1.464844s-1.660156-.488281-1.367187-.976562c.292968-.585938-.195313-.976562-1.074219-.976562-2.34375 0-8.203125-2.148438-8.203125-3.027344 0-.390625-.78125-.78125-1.660156-.78125-.976563 0-3.515625-.390625-5.664063-.976563-9.472656-2.636719-19.433593-4.101562-31.25-4.589843-6.933593-.390626-12.890625-.390626-13.183593-.097657zm24.121093 75.878907c9.570313 3.320312 18.554688 11.132812 23.046875 20.214843 6.542969 12.792969 6.054688 31.542969-1.074218 44.628907-3.125 5.664062-10.742188 13.574218-14.84375 15.234374-3.613282 1.464844-3.613282 2.636719-.195313 6.347657 9.667969 10.546875 14.84375 11.035156 24.121094 2.34375 2.050781-1.855469 3.417969-2.441407 4.296875-1.953125 1.953125 1.171875-.195313 6.152344-4.6875 11.132812-9.472656 10.546875-19.726563 8.59375-28.90625-5.273437l-4.882813-7.421875-8.789062.488281c-14.0625.78125-24.21875-3.027344-33.59375-12.597656-4.980469-5.078125-9.179688-12.695313-10.742188-19.53125-1.464843-6.347657-1.269531-18.261719.390625-24.804688 6.152344-23.730469 32.03125-37.011719 55.859375-28.808593zm0 0"/><path d="m116.601562 80.46875c-6.445312 2.050781-10.839843 6.054688-14.0625 12.695312-3.90625 8.007813-5.273437 17.089844-4.589843 30.273438.683593 13.574219 3.125 21.191406 8.789062 27.636719l1.953125 2.148437 4.394532-3.808594c7.421874-6.640624 14.648437-6.25 23.046874 1.074219l4.589844 4.101563 2.441406-2.34375c12.988282-12.207032 13.574219-52.441406 1.074219-66.113282-5.46875-5.957031-18.652343-8.691406-27.636719-5.664062zm0 0"/></svg>