<?xml version="1.0" standalone="no"?>
<!DOCTYPE svg PUBLIC "-//W3C//DTD SVG 20010904//EN"
 "http://www.w3.org/TR/2001/REC-SVG-20010904/DTD/svg10.dtd">
<svg version="1.0" xmlns="http://www.w3.org/2000/svg"
 width="1020.000000pt" height="1020.000000pt" viewBox="0 0 1020.000000 1020.000000"
 preserveAspectRatio="xMidYMid meet">

<g transform="translate(0.000000,1020.000000) scale(0.100000,-0.100000)"
fill="#000000" stroke="none">
<path d="M0 5100 l0 -5100 5100 0 5100 0 0 5100 0 5100 -5100 0 -5100 0 0
-5100z m5275 4773 c28 -10 905 -512 1950 -1114 1704 -981 1906 -1100 1961
-1154 63 -62 111 -144 133 -225 9 -34 11 -579 9 -2305 l-3 -2260 -36 -77 c-76
-159 61 -73 -2064 -1297 -1045 -602 -1922 -1104 -1950 -1115 -72 -29 -268 -29
-340 0 -28 11 -905 513 -1950 1115 -2124 1223 -1987 1137 -2063 1296 l-37 78
-3 2270 c-2 2220 -2 2271 17 2327 25 74 80 157 140 210 30 27 761 454 1917
1120 2182 1257 1946 1124 2014 1143 76 21 237 15 305 -12z"/>
<path d="M5079 9552 c-14 -2 -876 -493 -1915 -1092 -1379 -795 -1896 -1097
-1914 -1121 l-25 -32 -3 -2186 c-3 -2478 -11 -2245 82 -2306 130 -84 3742
-2158 3769 -2164 18 -4 46 -4 63 -1 25 5 3606 2061 3766 2162 31 19 54 44 67
72 21 42 21 43 21 2217 l0 2175 -22 44 c-23 45 -35 52 -1917 1137 -1041 600
-1905 1093 -1920 1095 -14 1 -38 2 -52 0z m-316 -1124 c132 -76 241 -138 243
-138 2 0 4 22 4 49 0 27 3 63 6 80 l7 31 83 0 84 0 0 -80 c0 -44 3 -80 6 -80
4 0 106 58 228 129 121 71 259 149 304 173 80 41 84 42 97 24 18 -23 4 -52
-31 -68 -13 -6 -24 -14 -24 -17 0 -3 23 -18 50 -33 l49 -27 3 67 c3 64 4 67
29 70 32 4 39 -14 39 -113 l1 -70 257 -146 c141 -81 364 -209 495 -284 131
-75 241 -135 244 -132 3 4 5 60 4 126 l0 121 44 0 45 0 0 -154 0 -153 40 -27
c22 -14 40 -30 40 -35 0 -18 -29 -32 -54 -25 l-26 6 0 -198 0 -199 451 -260
c248 -143 481 -275 517 -292 36 -18 69 -38 74 -45 4 -7 8 -233 8 -503 0 -269
3 -541 7 -604 l6 -113 66 -43 c79 -51 242 -145 252 -145 4 0 10 12 13 26 5 20
12 25 34 22 24 -3 28 -8 33 -47 7 -53 16 -61 156 -143 57 -33 103 -63 103 -67
0 -3 -7 -17 -16 -29 l-16 -23 -105 57 c-57 31 -108 53 -111 49 -12 -11 -15
-1107 -3 -1137 6 -16 32 -39 68 -60 32 -19 59 -42 61 -51 6 -28 -27 -31 -74
-8 -25 11 -49 21 -54 21 -6 0 -10 -22 -10 -50 0 -54 7 -59 47 -33 25 16 26 16
45 -8 l20 -24 -29 -24 c-16 -13 -152 -94 -302 -181 -150 -86 -273 -161 -273
-166 0 -5 27 -25 59 -44 60 -37 73 -63 41 -84 -14 -8 -34 -3 -95 27 -83 40
-70 21 16 -26 60 -32 70 -50 46 -77 -20 -22 -30 -19 -102 27 l-53 33 0 -224
c0 -122 -3 -285 -7 -360 l-6 -137 -36 3 c-34 3 -36 5 -39 41 -4 43 -13 45 -66
13 l-38 -24 56 -36 c54 -35 68 -57 45 -72 -6 -4 -46 11 -89 34 l-78 40 -63
-38 c-35 -20 -261 -151 -501 -290 -241 -139 -435 -256 -432 -261 2 -5 52 -36
109 -71 58 -34 105 -66 105 -72 0 -5 -7 -17 -16 -27 -16 -17 -19 -17 -68 8
-28 14 -80 42 -116 63 -90 52 -105 55 -151 35 -31 -15 -41 -15 -54 -5 -23 19
-18 39 10 46 21 5 23 9 13 21 -13 16 -218 139 -289 173 l-46 22 -214 -122
c-346 -198 -741 -430 -787 -464 -42 -29 -45 -30 -70 -14 -15 8 -160 94 -322
190 -508 300 -684 398 -715 398 -18 0 -82 -31 -169 -81 -194 -112 -185 -105
-153 -120 31 -14 34 -31 11 -49 -13 -11 -22 -10 -58 7 l-43 21 -119 -69 c-127
-74 -158 -82 -170 -47 -8 25 -3 30 119 101 48 28 87 54 87 58 0 7 -140 89
-708 417 l-294 169 -79 -40 c-54 -28 -82 -38 -89 -31 -17 17 -3 37 52 72 l51
34 -44 29 c-24 16 -47 29 -51 29 -5 0 -8 -16 -8 -35 0 -36 -20 -55 -59 -55
-20 0 -21 4 -23 359 l-3 360 -55 -35 c-30 -19 -64 -34 -77 -34 -23 0 -49 33
-38 49 3 5 41 30 85 56 45 26 79 50 76 52 -3 3 -29 -9 -58 -25 -109 -63 -110
-63 -130 -45 -32 29 -21 47 47 84 36 18 65 37 65 40 0 10 -65 50 -250 154
-342 192 -378 219 -336 254 11 10 21 9 45 -3 16 -9 32 -16 36 -16 9 0 5 89 -5
95 -5 3 -31 -5 -58 -19 -37 -19 -52 -22 -61 -13 -22 22 -10 36 59 78 l70 41 0
574 c0 329 -4 575 -9 578 -8 6 -30 -5 -165 -78 -51 -27 -69 -24 -79 13 -3 14
19 32 102 81 131 79 151 98 151 144 0 29 4 37 24 42 31 7 46 -1 46 -27 0 -28
21 -20 150 54 162 93 169 99 180 137 6 21 10 244 10 561 0 289 3 554 6 587 l7
62 76 39 c83 43 278 153 694 390 l267 154 0 91 c0 50 3 142 7 205 6 110 6 114
-13 107 -43 -18 -53 -17 -64 3 -10 19 -6 24 35 48 l45 28 0 152 0 153 40 0 40
0 0 -120 c0 -89 3 -120 13 -120 14 0 130 65 634 354 l362 207 3 87 c3 85 3 87
28 87 23 0 25 -4 30 -55 6 -64 19 -71 75 -42 l37 19 -36 21 c-37 22 -48 56
-24 80 13 13 15 12 381 -200z"/>
<path d="M4413 8447 c-69 -40 -73 -44 -79 -85 -8 -53 0 -539 9 -548 8 -8 155
71 422 226 218 126 235 137 235 150 0 16 -480 301 -504 299 -6 -1 -44 -20 -83
-42z"/>
<path d="M5525 8392 c-199 -115 -325 -194 -325 -204 0 -11 644 -388 662 -388
9 0 11 554 2 586 -5 19 -136 104 -160 104 -5 0 -86 -44 -179 -98z"/>
<path d="M4225 8341 c-6 -5 -203 -120 -440 -256 -236 -136 -451 -261 -477
-278 l-48 -32 0 -192 c0 -127 4 -193 10 -193 6 0 28 9 50 20 51 26 66 25 87
-6 14 -22 15 -27 2 -34 -8 -5 -43 -28 -79 -52 l-65 -43 -3 -477 -2 -478 -39 0
-39 0 -3 444 c-2 244 -7 447 -11 451 -5 5 -449 -245 -845 -477 l-103 -60 0
-560 0 -560 23 14 c98 65 741 428 755 428 20 0 33 -36 19 -53 -7 -9 -187 -117
-402 -240 l-390 -224 -3 -102 -3 -101 -49 0 -50 0 0 65 c0 36 -3 65 -7 65 -3
0 -80 -41 -170 -91 l-163 -91 0 -589 0 -588 117 68 c65 37 182 105 260 150
l143 83 0 138 0 138 -63 36 c-79 44 -94 60 -77 81 15 18 38 13 92 -21 21 -13
40 -24 43 -24 3 0 5 153 5 341 0 307 2 341 16 335 9 -3 27 -6 40 -6 l24 0 1
-307 c1 -170 4 -335 8 -367 l6 -59 93 -50 c51 -27 103 -49 115 -49 12 0 186
94 387 209 l365 210 10 59 c8 50 14 59 32 62 16 2 26 -4 35 -22 6 -14 18 -26
27 -26 9 0 84 39 166 86 83 48 181 102 220 120 63 31 71 32 85 18 20 -20 26
-15 -253 -177 -157 -91 -229 -138 -233 -152 -2 -11 -3 -190 -2 -398 l3 -377
470 270 c259 149 506 289 551 312 83 43 114 45 114 9 0 -23 -17 -34 -325 -211
-414 -239 -760 -442 -770 -453 -14 -15 57 26 565 318 487 281 531 305 554 305
14 0 34 -46 25 -54 -2 -2 -206 -122 -454 -266 -588 -343 -648 -381 -632 -396
12 -12 79 -52 456 -268 l203 -117 202 114 c293 167 340 188 323 144 -7 -18
-108 -84 -270 -176 -152 -87 -189 -116 -167 -131 8 -5 19 -11 24 -13 14 -5 -4
-47 -20 -47 -8 0 -33 9 -55 21 l-41 20 -379 -218 -379 -218 -2 -107 c-1 -60
-2 -120 -2 -135 -1 -25 14 -36 175 -128 303 -173 439 -255 439 -264 0 -5 -7
-17 -16 -25 -21 -22 -40 -13 -314 143 -289 165 -271 156 -281 140 -5 -8 -9
-37 -9 -65 0 -53 -13 -70 -44 -58 -14 5 -26 68 -26 135 0 27 -7 45 -22 59 -27
25 -188 123 -203 123 -26 1 -505 -288 -505 -303 0 -5 53 -40 118 -78 129 -76
748 -433 827 -477 l50 -27 173 98 c94 54 172 101 172 105 0 3 -23 16 -50 29
-70 33 -77 43 -50 80 l22 31 85 -46 85 -45 127 72 c69 39 233 134 365 211 131
76 258 148 282 160 42 20 45 20 61 4 34 -33 51 -22 -530 -357 -170 -98 -214
-127 -205 -138 20 -24 260 -166 791 -469 131 -74 150 -82 170 -72 58 31 763
439 840 486 48 30 87 58 87 62 0 4 -100 65 -222 136 -454 262 -540 316 -534
332 3 8 6 17 6 19 0 2 9 4 20 4 30 0 111 -43 482 -257 l338 -194 84 46 84 46
21 -27 c12 -15 21 -32 21 -38 0 -6 -25 -24 -55 -40 -30 -16 -55 -32 -55 -36 0
-8 225 -142 308 -184 l34 -17 136 77 c311 176 780 449 820 476 23 16 42 32 42
36 0 10 -493 292 -510 292 -18 0 -177 -90 -206 -117 -21 -20 -24 -31 -24 -101
0 -60 -4 -83 -16 -93 -30 -25 -49 1 -52 75 -2 36 -5 66 -8 66 -3 0 -112 -61
-241 -136 -295 -170 -333 -188 -352 -170 -7 8 -11 21 -8 29 5 13 214 139 494
298 l113 64 0 135 0 135 -183 102 c-100 56 -272 154 -382 218 l-200 116 -43
-23 c-33 -18 -46 -20 -60 -12 -27 18 -25 39 5 53 28 13 28 13 7 29 -11 10 -98
62 -193 117 -209 121 -290 185 -235 185 18 0 25 -4 316 -169 178 -101 199
-111 220 -100 13 7 136 78 273 157 264 153 375 222 375 233 0 4 -165 103 -367
220 -611 353 -735 429 -729 446 3 8 6 17 6 19 0 2 12 4 27 4 31 0 34 -2 588
-320 489 -281 576 -329 555 -308 -13 14 -449 267 -625 363 -38 21 -74 45 -78
52 -4 7 -13 13 -19 13 -12 0 -351 192 -388 220 -21 16 -23 21 -12 44 6 14 18
26 25 26 7 0 258 -142 557 -315 300 -173 548 -315 552 -315 10 0 10 373 1 616
l-6 179 -245 140 c-135 77 -245 144 -245 150 0 5 8 14 16 19 20 13 71 -11 287
-134 173 -99 193 -106 198 -73 3 24 41 41 61 28 6 -3 11 -28 11 -56 0 -49 1
-50 53 -83 55 -35 433 -254 606 -351 l104 -59 61 32 c34 18 82 48 109 67 l47
35 0 355 0 355 40 0 40 0 0 -335 c0 -184 3 -335 6 -335 4 0 31 14 61 31 57 33
83 33 83 0 0 -14 -22 -32 -75 -62 l-75 -43 0 -137 0 -138 163 -92 c89 -51 206
-119 260 -151 l97 -57 0 588 0 589 -143 81 c-78 44 -153 82 -167 83 -24 3 -25
0 -28 -54 l-3 -58 -44 0 -43 0 -6 63 c-3 34 -7 80 -9 101 l-2 39 -372 216
c-412 240 -435 254 -427 276 15 39 43 26 491 -231 166 -96 305 -174 308 -174
3 0 4 249 3 552 l-3 552 -57 38 c-59 39 -847 495 -873 504 -13 5 -15 -51 -17
-442 l-3 -449 -38 0 -38 0 1 374 c0 205 -3 420 -6 476 l-7 103 -54 33 c-95 59
-99 63 -85 93 15 33 41 33 97 0 l44 -25 7 37 c7 37 -3 351 -12 365 -2 4 -93
59 -202 122 -608 352 -775 447 -783 447 -6 0 -8 -119 -7 -302 l3 -303 110 -62
110 -62 72 40 c81 44 113 49 113 20 0 -13 -19 -31 -55 -53 -30 -18 -53 -37
-52 -42 2 -6 100 -66 219 -135 341 -199 381 -229 333 -247 -26 -10 -78 14
-332 160 -139 78 -266 149 -283 156 -30 12 -37 11 -96 -18 -36 -18 -82 -43
-104 -57 l-40 -25 0 -448 0 -449 38 -24 c22 -15 37 -32 37 -44 0 -17 -6 -20
-37 -17 l-38 3 0 -271 0 -270 -35 0 -35 0 -2 296 -3 296 -100 61 c-145 87
-563 327 -569 327 -3 0 -6 -290 -6 -645 l0 -645 -83 0 -84 0 -6 107 c-4 58 -7
348 -7 645 0 296 -2 538 -5 538 -5 0 -429 -245 -581 -336 -79 -47 -82 -50 -88
-93 -3 -24 -6 -158 -6 -297 l0 -254 -28 0 -29 0 -6 271 c-3 149 -8 273 -10
276 -3 2 -15 -2 -27 -9 -18 -11 -23 -11 -35 6 -18 24 -13 31 36 56 l39 20 0
450 0 449 -107 60 c-105 59 -106 60 -137 44 -17 -8 -152 -84 -301 -168 -148
-85 -278 -155 -289 -157 -10 -2 -24 6 -33 18 -18 28 -27 21 287 204 319 186
291 163 237 194 -53 31 -81 61 -72 75 11 19 35 12 110 -29 l73 -40 88 52 c49
28 99 57 110 64 20 12 22 25 29 144 9 170 -3 470 -19 470 -7 0 -16 -4 -21 -9z
m289 -2541 c-4 -209 -4 -380 -1 -380 3 0 77 41 164 90 172 98 200 110 214 89
12 -21 -11 -39 -146 -117 -66 -38 -144 -83 -172 -101 l-53 -32 -2 -227 -3
-227 -30 0 -30 0 -5 197 c-3 108 -8 199 -11 202 -3 3 -61 -26 -130 -65 -436
-248 -510 -286 -531 -273 -5 3 -1 15 9 26 18 20 280 178 524 317 l126 72 6 82
c4 45 7 227 7 405 l0 322 36 0 35 0 -7 -380z m1238 -20 l3 -401 270 -155 c149
-85 303 -176 343 -201 67 -41 72 -47 58 -61 -14 -14 -19 -14 -58 4 -48 21
-253 135 -461 256 -76 44 -141 77 -144 74 -4 -4 -9 -93 -12 -199 -6 -177 -7
-192 -25 -195 -10 -2 -22 2 -27 10 -5 7 -9 83 -9 169 0 86 -3 183 -6 216 l-6
59 -79 45 c-226 126 -284 164 -284 184 0 11 7 21 15 22 8 2 83 -35 167 -81 83
-46 161 -87 172 -91 l21 -6 0 375 0 376 30 0 30 0 2 -400z m-979 -1266 c29
-15 114 -62 190 -106 l137 -78 138 78 c227 131 272 150 272 117 0 -17 -73 -67
-233 -159 l-118 -69 58 -34 c32 -20 162 -95 288 -167 315 -182 319 -184 305
-202 -7 -8 -18 -14 -25 -14 -16 0 -100 45 -270 145 -289 170 -409 236 -422
230 -8 -3 -160 -88 -338 -190 -178 -102 -330 -185 -338 -185 -8 0 -20 6 -26
14 -15 17 -15 17 144 108 416 239 504 293 498 299 -5 4 -75 46 -158 94 -157
90 -192 116 -181 134 10 16 21 14 79 -15z"/>
<path d="M5103 8290 c0 -25 2 -35 4 -22 2 12 2 32 0 45 -2 12 -4 2 -4 -23z"/>
<path d="M5103 8100 c0 -25 2 -35 4 -22 2 12 2 32 0 45 -2 12 -4 2 -4 -23z"/>
<path d="M5190 7602 c0 -274 3 -507 6 -518 5 -19 34 -5 337 170 l332 191 3
110 c2 61 0 120 -3 132 -5 22 -56 54 -457 286 l-218 125 0 -496z"/>
<path d="M4684 7909 c-170 -99 -317 -189 -327 -198 -23 -22 -31 -98 -22 -194
l7 -76 86 -48 c48 -27 198 -113 334 -191 136 -78 250 -142 253 -142 7 0 6 683
-2 873 -3 86 -9 157 -13 157 -3 0 -146 -81 -316 -181z"/>
<path d="M5096 7913 c10 -40 14 -41 14 -5 0 18 -5 32 -10 32 -6 0 -8 -11 -4
-27z"/>
<path d="M4192 7624 c-35 -20 -61 -41 -59 -47 3 -12 104 -77 119 -77 4 0 8 36
8 80 0 44 -1 80 -2 80 -2 0 -31 -16 -66 -36z"/>
<path d="M5940 7580 c0 -57 4 -80 13 -80 6 0 38 17 70 38 l58 37 -23 19 c-12
10 -44 29 -70 42 l-48 24 0 -80z"/>
<path d="M5091 7538 c0 -7 4 -22 9 -33 7 -17 9 -15 9 13 1 17 -3 32 -9 32 -5
0 -10 -6 -9 -12z"/>
<path d="M5097 7367 c-4 -10 -7 -26 -7 -35 1 -15 2 -15 11 1 6 10 9 25 7 35
-3 16 -4 15 -11 -1z"/>
<path d="M5795 7337 c-317 -178 -595 -349 -595 -367 0 -6 39 -35 86 -66 119
-77 574 -337 580 -332 2 3 3 185 2 404 l-3 400 -70 -39z"/>
<path d="M4336 7268 c-8 -120 -8 -698 1 -698 22 0 591 335 645 380 l31 26 -99
64 c-124 79 -544 320 -560 320 -7 0 -13 -33 -18 -92z"/>
<path d="M5090 7056 c0 -9 5 -16 10 -16 6 0 10 4 10 9 0 6 -4 13 -10 16 -5 3
-10 -1 -10 -9z"/>
<path d="M5103 6750 c0 -30 2 -43 4 -27 2 15 2 39 0 55 -2 15 -4 2 -4 -28z"/>
<path d="M5097 6577 c-4 -10 -7 -26 -7 -35 1 -15 2 -15 11 1 6 10 9 25 7 35
-3 16 -4 15 -11 -1z"/>
<path d="M5091 6408 c0 -7 4 -22 9 -33 7 -17 9 -15 9 13 1 17 -3 32 -9 32 -5
0 -10 -6 -9 -12z"/>
<path d="M5098 6244 c-5 -4 -8 -19 -8 -33 1 -23 2 -24 11 -8 11 19 9 53 -3 41z"/>
<path d="M5091 5958 c0 -7 4 -22 9 -33 8 -18 9 -17 9 7 1 15 -3 30 -9 33 -5 3
-10 0 -9 -7z"/>
<path d="M5097 5787 c-11 -29 -9 -53 4 -40 6 6 9 21 7 34 -3 21 -4 22 -11 6z"/>
<path d="M6840 4508 c0 -211 4 -389 9 -396 6 -11 20 -7 67 17 110 56 608 347
611 357 1 5 -19 22 -45 38 -93 56 -631 366 -636 366 -3 0 -6 -172 -6 -382z"/>
<path d="M3190 4795 c-183 -103 -454 -260 -493 -288 -16 -11 -25 -23 -20 -28
11 -11 543 -314 617 -351 32 -16 60 -27 62 -25 3 2 7 139 11 303 6 285 -1 474
-16 474 -4 0 -76 -38 -161 -85z"/>
<path d="M2384 4556 c-3 -7 -4 -42 -2 -77 3 -58 5 -64 23 -61 31 5 110 56 110
72 0 12 -99 80 -118 80 -4 0 -10 -6 -13 -14z"/>
<path d="M7740 4535 c-30 -19 -55 -39 -55 -46 0 -16 102 -72 120 -65 20 7 22
146 3 146 -7 0 -38 -16 -68 -35z"/>
<path d="M2555 4429 c-22 -12 -68 -39 -102 -61 -57 -37 -63 -43 -69 -84 -8
-53 -1 -720 7 -729 7 -6 181 90 539 298 230 133 330 196 330 209 0 4 -18 19
-39 33 -74 46 -613 355 -619 355 -4 -1 -25 -10 -47 -21z"/>
<path d="M7393 4334 c-106 -62 -252 -146 -325 -187 -73 -41 -133 -78 -135 -83
-1 -5 46 -38 105 -73 241 -143 762 -441 772 -441 7 0 10 130 10 379 0 356 -1
380 -19 402 -18 23 -189 120 -207 118 -5 0 -96 -52 -201 -115z"/>
<path d="M2027 4127 l-248 -141 3 -104 3 -103 130 -76 c291 -169 369 -213 377
-213 9 0 11 686 2 743 -4 20 -9 37 -13 37 -3 -1 -118 -65 -254 -143z"/>
<path d="M7907 4163 c-9 -137 -9 -488 -1 -586 4 -46 11 -77 18 -77 6 0 119 62
251 138 l240 138 3 106 3 105 -249 142 c-136 77 -250 141 -253 141 -3 0 -9
-48 -12 -107z"/>
<path d="M3295 3976 c-22 -13 -229 -133 -460 -266 -392 -226 -504 -294 -395
-240 92 46 910 518 910 526 0 8 -16 2 -55 -20z"/>
<path d="M6860 3996 c0 -3 39 -29 88 -59 95 -59 766 -443 822 -472 131 -66
-203 135 -605 363 -121 68 -239 135 -262 149 -24 13 -43 22 -43 19z"/>
<path d="M3440 3554 c0 -217 3 -393 8 -391 4 3 142 82 307 178 165 95 317 182
337 193 21 12 36 25 35 30 -5 15 -649 386 -669 386 -17 0 -18 -24 -18 -396z"/>
<path d="M6676 3916 c-153 -80 -596 -341 -593 -349 4 -13 180 -120 453 -277
l221 -127 6 171 c13 333 7 616 -14 616 -4 0 -37 -15 -73 -34z"/>
<path d="M3230 3832 c-216 -118 -760 -435 -760 -442 0 -5 46 -34 103 -66 56
-32 209 -120 339 -196 l237 -138 108 63 108 62 3 275 c1 151 -1 328 -5 393
l-8 117 -125 -68z"/>
<path d="M6840 3506 l0 -394 101 -58 c56 -31 106 -57 113 -57 18 0 691 391
684 398 -20 18 -880 505 -893 505 -3 0 -5 -177 -5 -394z"/>
<path d="M2386 3324 c-3 -8 -6 -143 -6 -299 l0 -283 82 -48 82 -48 60 33 c84
45 417 239 440 257 13 9 16 18 10 23 -10 11 -446 264 -576 335 -72 39 -87 44
-92 30z"/>
<path d="M7627 3240 c-240 -135 -470 -274 -474 -287 -5 -13 101 -80 336 -213
l165 -93 55 29 c30 15 67 39 83 52 l28 24 0 281 c0 155 -4 287 -8 294 -5 9
-60 -17 -185 -87z"/>
<path d="M3300 3014 c-102 -58 -100 -50 -26 -95 36 -21 70 -39 75 -39 6 0 13
11 17 25 7 29 -4 135 -14 135 -4 0 -27 -12 -52 -26z"/>
<path d="M6840 2960 c0 -52 4 -80 11 -80 16 0 129 70 129 80 0 9 -74 54 -114
70 l-26 10 0 -80z"/>
</g>
</svg>
