<svg height="250" viewBox="0 0 250 250" width="250" xmlns="http://www.w3.org/2000/svg"><g fill="#252836"><path d="m247.851562 77.933594-89.851562-51.699219c-1.519531-.894531-3.445312-.699219-4.757812.484375-1.308594 1.179688-1.703126 3.074219-.972657 4.679688l36.832031 82.222656c.46875 1.042968 1.355469 1.839844 2.445313 2.191406s2.277344.230469 3.269531-.34375l53.035156-30.5c1.265626-.71875 2.046876-2.0625 2.046876-3.515625 0-1.457031-.78125-2.800781-2.046876-3.519531zm0 0"/><path d="m60.898438 113.621094 36.832031-82.222656c.730469-1.605469.335937-3.5-.972657-4.679688-1.3125-1.183594-3.238281-1.378906-4.757812-.484375l-89.851562 51.699219c-1.246094.726562-2.015626 2.058594-2.015626 3.5 0 1.445312.769532 2.777344 2.015626 3.5l53.035156 30.5c.988281.574218 2.171875.703125 3.261718.359375 1.085938-.347657 1.980469-1.136719 2.453126-2.171875zm0 0"/><path d="m121.605469 223.609375-43.445313-96.914063c-.46875-1.050781-.46875-2.253906 0-3.304687l43.433594-97c.652344-1.460937 2.101562-2.402344 3.703125-2.402344 1.597656 0 3.046875.941407 3.699219 2.402344l42.855468 97.292969c.457032 1.042968.457032 2.230468 0 3.269531l-42.851562 96.640625c-.648438 1.460938-2.09375 2.402344-3.691406 2.40625s-3.046875-.933594-3.703125-2.390625zm0 0"/></g></svg>