<svg height="250" viewBox="0 0 250 250" width="250" xmlns="http://www.w3.org/2000/svg"><path d="m105.378906 116.667969c-.941406-.046875-1.929687.359375-2.800781-.316407.945313-.191406 1.925781-.078124 2.800781.316407zm0 0" fill="#2a373b"/><path d="m109.335938 117.085938c-.78125.023437-1.601563.332031-2.304688-.292969.78125-.171875 1.59375-.070313 2.304688.292969zm0 0" fill="#2a373b"/><path d="m27.382812 46.878906c1.96875-2.742187 4.164063-5.3125 6.570313-7.679687 16.496094-17.597657 37.765625-30 61.207031-35.683594 3.800782-1.015625 7.675782-1.734375 11.585938-2.148437.441406 1.277343-.636719 1.644531-1.367188 2.066406-4.382812 2.53125-8.742187 5.105468-13.144531 7.609375-4.734375 2.691406-9.394531 5.503906-14.128906 8.203125-.5625.226562-1.03125.648437-1.316407 1.1875-.222656.320312-.535156.5625-.898437.695312-5.382813 2.515625-10.554687 5.46875-15.457031 8.828125-.546875.464844-1.191406.804688-1.882813.996094-.550781-.03125-1.097656.117187-1.5625.417969-8.84375 5-17.632812 10.097656-26.414062 15.210937-.582031.417969-1.230469.730469-1.917969.929688-.53125.101562-1.222656.332031-1.273438-.632813zm0 0" fill="#283036"/><path d="m160.285156 244.871094c-6.992187 2.175781-14.191406 3.613281-21.484375 4.296875-.382812-1.164063.558594-1.5625 1.261719-1.964844 5.113281-2.992187 10.269531-5.914063 15.386719-8.902344 2.59375-1.515625 5.371093-2.753906 7.640625-4.789062 2.230468-1.335938 4.746094-1.996094 7.117187-3.003907 10.8125-4.644531 20.84375-10.929687 29.742188-18.632812 1.410156-1.203125 2.5625-2.726562 4.257812-3.597656.96875-.183594 1.894531-.554688 2.722657-1.09375 6.261718-3.625 12.488281-7.308594 18.828124-10.800782.460938-.253906 1.210938-1.347656 1.675782.097657-4.21875 6.226562-9.050782 12.011719-14.425782 17.269531-.386718.390625-.8125.730469-1.21875 1.097656-10.839843 6.046875-21.507812 12.386719-32.28125 18.546875-5.4375 3.109375-10.84375 6.273438-16.28125 9.382813-1.074218.554687-2.0625 1.261718-2.941406 2.09375zm0 0" fill="#399584"/><path d="m27.382812 46.878906c.726563.878906 1.429688.238282 2.042969-.109375 4.46875-2.558593 8.910157-5.164062 13.371094-7.738281 4.789063-2.761719 9.582031-5.515625 14.382813-8.253906.414062-.234375.871093-.578125 1.3125-.011719-1.953126 1.832031-4.019532 3.539063-6.1875 5.113281-5.578126 4.71875-10.75 9.898438-15.464844 15.484375-.550782.820313-1.265625 1.523438-2.09375 2.0625-2.941406.867188-5.355469 2.746094-7.988282 4.199219-2.59375 1.429688-5.105468 3.007812-7.738281 4.371094-.546875.285156-1.433593 1.164062-1.878906-.238282 1.960937-3.632812 4.203125-7.109374 6.703125-10.394531 1.046875-1.597656 2.230469-3.097656 3.539062-4.484375zm0 0" fill="#293237"/><path d="m76.667969 20.195312c.191406-1.410156 1.578125-1.457031 2.441406-1.984374 3.925781-2.394532 7.945313-4.636719 11.929687-6.933594 4.613282-2.664063 9.222657-5.324219 13.835938-7.984375.808594-.464844 1.695312-.839844 1.871094-1.917969 4.042968-.746094 8.140625-1.179688 12.25-1.3007812 1.855468-.1171876 3.730468-.0429688 5.597656-.0546876.125 1.1328128-.808594 1.4531248-1.515625 1.8789068-4.035156 2.433593-8.132813 4.757812-12.214844 7.109374-1.210937.640626-2.339843 1.425782-3.367187 2.335938-3.257813.976562-6.640625 1.398438-9.945313 2.148438-6.304687 1.476562-12.460937 3.515624-18.398437 6.09375-.78125.328124-1.539063.886718-2.484375.609374zm0 0" fill="#293237"/><path d="m227.4375 196.484375c-.1875-.367187-.417969-.421875-.789062-.207031-5.214844 3.011718-10.429688 6.019531-15.652344 9.023437-1.5625.902344-3.117188 1.824219-4.675782 2.734375-.597656.398438-1.308593.59375-2.027343.554688-.316407-.683594.246093-1.019532.605469-1.367188 5.066406-4.847656 9.671874-10.160156 13.761718-15.859375.265625-.414062.644532-.753906 1.085938-.976562 4.121094-1.855469 7.859375-4.394531 11.792968-6.578125.867188-.480469 1.714844-.988282 2.59375-1.4375.605469-.308594 1.253907-.789063 1.972657-.195313-2.441407 5.027344-5.34375 9.816407-8.667969 14.308594zm0 0" fill="#389181"/><path d="m160.285156 244.875c-.109375-.941406.691406-1.199219 1.261719-1.535156 4.863281-2.851563 9.746094-5.664063 14.628906-8.496094 10.519531-6.085938 21.046875-12.160156 31.574219-18.230469 1.210938-.859375 2.585938-1.460937 4.039062-1.765625-1.625 1.480469-3.25 2.964844-4.871093 4.445313-4.90625 4.433593-10.21875 8.398437-15.863281 11.84375-9.550782 6.019531-19.910157 10.644531-30.769532 13.738281zm0 0" fill="#3a9987"/><path d="m17.140625 61.757812c.625.832032 1.214844.164063 1.710937-.117187 4.140626-2.332031 8.238282-4.738281 12.386719-7.054687 1.074219-.601563 2.019531-1.644532 3.457031-1.347657-.601562 1.820313-2.023437 3.105469-3.082031 4.621094-2.265625 3.25-4.296875 6.640625-6.292969 10.046875-.386718.652344-.660156 1.410156-1.476562 1.691406-1.75.082032-3.007812 1.269532-4.414062 2.070313-2.425782 1.386719-4.84375 2.796875-7.273438 4.175781-.703125.398438-1.425781 1.136719-2.382812.5 2.003906-5.078125 4.46875-9.960938 7.367187-14.585938zm0 0" fill="#293439"/><path d="m107.40625 10.941406c2.199219-2.117187 5.058594-3.1875 7.597656-4.765625 2.691406-1.675781 5.46875-3.207031 8.210938-4.792969.582031-.316406 1.0625-.789062 1.382812-1.367187 3.53125-.125 7.070313.0117188 10.582032.40625.671874.277344 1.410156-.054687 2.078124.234375l1.226563.09375c.542969.257812 1.160156-.019531 1.707031.214844v-.015625c.164063.933593-.59375 1.203125-1.171875 1.5625-2.636719 1.652343-5.351562 3.1875-8.078125 4.6875-1.535156.84375-2.902344 1.929687-4.429687 2.773437-2.488281.316406-5.003907-.175781-7.480469.308594-.957031.136719-1.921875.1875-2.886719.148438-.65625-.074219-1.320312-.007813-1.953125.195312-1.605468.175781-3.207031.402344-4.804687.632812-.671875.230469-1.414063.113282-1.980469-.316406zm0 0" fill="#293439"/><path d="m184.078125 14.957031c2.53125 1.09375 4.945313 2.4375 7.210937 4.011719 1.613282.988281 3.136719 2.117188 4.703126 3.183594.167968.570312-.292969.792968-.632813 1-2.734375 1.660156-5.433594 3.398437-8.320313 4.804687-.554687-.015625-1.089843-.195312-1.542968-.519531-3.164063-1.890625-6.300782-3.84375-9.621094-5.464844-.355469-.152344-.65625-.417968-.851562-.75-.222657-.84375.363281-1.203125.945312-1.527344 2.738281-1.515624 5.398438-3.179687 8.109375-4.738281zm0 0" fill="#2c4345"/><path d="m163.261719 233.730469c-1.191407 1.777343-3.222657 2.375-4.925781 3.382812-6.03125 3.5625-12.140626 6.992188-18.210938 10.484375-.671875.277344-1.164062.867188-1.320312 1.578125l-1.535157.097657c-.671875.277343-1.410156-.039063-2.085937.230468-2.519532.382813-5.074219.496094-7.617188.335938-.367187-1 .519532-1.21875 1.054688-1.53125 4.355468-2.519532 8.679687-5.085938 13.058594-7.558594 1.390624-.75 2.691406-1.65625 3.878906-2.703125 5.46875-1.335937 10.972656-2.570313 16.308594-4.394531.457031-.15625.953124-.332032 1.394531.078125zm0 0" fill="#389282"/><path d="m9.773438 76.339844c2.003906-.328125 3.507812-1.679688 5.214843-2.601563 2.441407-1.3125 4.796875-2.785156 7.214844-4.148437.464844-.261719.996094-.832032 1.589844-.144532.207031.640626.074219 1.34375-.355469 1.859376-1.652344 3.042968-3.132812 6.175781-4.429688 9.382812-.25.542969-.378906 1.167969-1.007812 1.441406-1.203125.136719-2.351562.585938-3.332031 1.300782-2.296875 1.390624-4.644531 2.695312-6.972657 4.03125-.628906.359374-1.246093.992187-2.09375.488281 1.042969-3.984375 2.441407-7.871094 4.171876-11.609375zm0 0" fill="#2a373b"/><path d="m116.558594 249.597656c-3.984375-.0625-7.949219-.507812-11.84375-1.335937.347656-.625.894531-1.117188 1.554687-1.398438 3.015625-1.789062 6.046875-3.550781 9.117188-5.242187 1.054687-.585938 1.964843-1.375 3-1.988282 4.476562.433594 8.953125-.402343 13.425781.015626 1.269531.949218.109375 1.398437-.460938 1.777343-1.730468 1.152344-3.546874 2.15625-5.351562 3.191407-2.65625 1.519531-5.339844 2.992187-7.921875 4.640624-.457031.292969-.929687.609376-1.519531.339844zm0 0" fill="#388d7e"/><path d="m126.90625 9.613281c1.515625-2 3.933594-2.652343 5.929688-3.925781 2.0625-1.316406 4.226562-2.472656 6.347656-3.695312.433594-.242188.78125-.605469 1.011718-1.042969 3.738282.246093 7.4375.917969 11.023438 2.003906.375.078125.757812.109375 1.136719.097656.382812 1.109375-.628907 1.28125-1.195313 1.613281-2.078125 1.214844-4.136718 2.46875-6.242187 3.644532-1.417969.792968-2.898438 1.492187-3.835938 2.914062-3.316406-.128906-6.582031-.738281-9.890625-.929687-.851562-.203125-1.726562-.277344-2.601562-.222657-.59375-.023437-1.222656.054688-1.683594-.457031zm0 0" fill="#2a373b"/><path d="m161.285156 5.371094c4.074219 1.101562 8.050782 2.535156 11.890625 4.28125.460938 1.039062-.414062 1.355468-1.007812 1.722656-2.863281 1.78125-5.8125 3.417969-8.730469 5.109375-2.277344-.066406-4.285156-1.15625-6.417969-1.757813-2.023437-.570312-4.199219-.691406-6.046875-1.828124-.292968-1.105469.582032-1.433594 1.269532-1.832032 2.34375-1.339844 4.632812-2.761718 7.011718-4.042968.796875-.378907 1.492188-.945313 2.03125-1.652344zm0 0" fill="#2a3c3f"/><path d="m.976562 109.433594c.359376-4.375 1.128907-8.707032 2.300782-12.9375 1.300781.027344 2.210937-.859375 3.246094-1.421875 2.15625-1.171875 4.238281-2.484375 6.417968-3.613281.585938-.304688 1.421875-.96875 1.8125.316406-.9375 4.125-1.628906 8.308594-2.972656 12.335937-3.089844 1.644531-6.125 3.390625-9.152344 5.15625-.515625.300781-1.046875.679688-1.652344.164063zm0 0" fill="#2a3c3f"/><path d="m163.589844 16.242188c1.910156-1.878907 4.539062-2.625 6.640625-4.1875 1.011719-.753907 2.585937-.847657 2.949219-2.402344 3.808593 1.394531 7.460937 3.171875 10.90625 5.304687-1.320313 1.78125-3.46875 2.34375-5.203126 3.527344-.96875.613281-1.972656 1.175781-3.003906 1.679687-.417968.164063-.699218.5625-.710937 1.011719-.550781.425781-1.058594.105469-1.53125-.128906-2.859375-1.398437-5.789063-2.644531-8.777344-3.742187-.503906-.191407-1.238281-.242188-1.269531-1.0625zm0 0" fill="#2b4042"/><path d="m53.496094 227.515625c-3.515625-2.277344-6.832032-4.847656-9.921875-7.679687 2.855469-1.953126 5.90625-3.558594 8.925781-5.226563.5-.027344.988281.15625 1.34375.511719 2.429688 1.898437 4.882812 3.769531 7.472656 5.449218.457032.292969.929688.609376 1 1.234376-.042968.503906-.347656.953124-.804687 1.171874-2.695313 1.480469-5.246094 3.203126-8.015625 4.539063zm0 0" fill="#34736a"/><path d="m243.503906 164.625c-1.054687 3.511719-2.371094 6.9375-3.945312 10.246094-4.25 2.699218-8.683594 5.085937-13.039063 7.609375-.515625.425781-1.21875.550781-1.855469.328125-.277343-.523438.019532-.949219.257813-1.367188 1.761719-3.015625 3.34375-6.132812 4.730469-9.335937.164062-.46875.488281-.867188.921875-1.109375 3.332031-1.230469 6.15625-3.390625 9.257812-5.042969.726563-.390625 1.441407-.804687 2.164063-1.203125.472656-.261719.964844-.605469 1.507812-.125zm0 0" fill="#388c7d"/><path d="m.976562 109.429688c1.929688-.375 3.332032-1.773438 5.035157-2.59375 1.367187-.660157 2.660156-1.496094 3.992187-2.246094.457032-.3125 1-.46875 1.550782-.449219.253906.671875.292968 1.402344.109374 2.09375-.417968 3.027344-.796874 6.0625-.996093 9.113281-.015625.332032-.121094.648438-.308594.921875-3.023437.894531-5.5 2.847657-8.242187 4.285157-.632813.332031-1.222657 1.054687-2.070313.441406v-.339844c.316406-1.226562-.1015625-2.503906.238281-3.726562-.039062-2.519532.191406-5.03125.691406-7.5zm0 0" fill="#2b4042"/><path d="m116.558594 249.601562 6.054687-3.507812c2.832031-1.640625 5.671875-3.265625 8.484375-4.945312.429688-.257813 1.035156-.453126 1.097656-1.121094.78125-.765625 1.839844-.667969 2.777344-.75 2.886719-.261719 5.746094-.671875 8.601563-1.128906.621093-.097657 1.304687-.351563 1.839843.257812-.578124 1.414062-1.992187 1.796875-3.140624 2.464844-4.519532 2.644531-9.082032 5.21875-13.605469 7.851562-.433594.253906-1.035157.453125-1.101563 1.117188-3.667968.273437-7.355468.195312-11.007812-.238282zm0 0" fill="#389081"/><path d="m247.914062 102.734375c.734376 3.140625 1.171876 6.34375 1.3125 9.570313.308594 2.472656.300782 2.460937-1.738281 3.613281-1.808593 1.019531-3.585937 2.101562-5.398437 3.125-.90625.425781-1.464844 1.363281-1.40625 2.363281-.003906.667969.355468 1.578125-.671875 1.941406-.359375-.265625-.554688-.703125-.519531-1.148437.070312-4.585938-.519532-9.128907-.851563-13.683594.128906-.554687.613281-.71875 1.046875-.957031 2.78125-1.539063 5.535156-3.128906 8.226562-4.824219zm0 0" fill="#34736a"/><path d="m187.054688 27.804688c2.222656-1.777344 4.871093-2.863282 7.214843-4.441407.585938-.390625 1.152344-.808593 1.726563-1.210937 3.058594 1.925781 5.941406 4.113281 8.621094 6.542968.144531 1.230469-.929688 1.5-1.652344 1.929688-2.195313 1.308594-4.4375 2.535156-6.605469 3.886719-.101563.035156-.214844.035156-.320313 0-3.125-1.867188-5.957031-4.152344-8.914062-6.257813-.128906-.089844-.121094-.285156-.070312-.449218zm0 0" fill="#2d4949"/><path d="m211.183594 34.496094c2.714844 2.445312 5.25 5.085937 7.578125 7.902344.039062 1.117187-.9375 1.359374-1.613281 1.8125-2.023438 1.351562-4.316407 2.269531-6.226563 3.808593-.578125.140625-.9375-.238281-1.285156-.578125-2.117188-2.085937-4.21875-4.183594-6.300781-6.300781-.34375-.285156-.554688-.699219-.585938-1.144531.289062-.882813 1.121094-1.140625 1.8125-1.554688 2.199219-1.324218 4.523438-2.445312 6.621094-3.945312zm0 0" fill="#2e504f"/><path d="m6.636719 165.28125c-1.292969-3.320312-2.289063-6.75-2.976563-10.246094.300782-.808594 1.09375-1.042968 1.738282-1.417968 1.84375-1.074219 3.695312-2.128907 5.542968-3.191407.628906-.355469 1.28125-.738281 1.886719.054688 1 3.308593 2.1875 6.566406 2.574219 10.035156-2.550782 1.855469-5.273438 3.460937-8.132813 4.800781-.203125.085938-.4375.074219-.632812-.035156zm0 0" fill="#2e504f"/><path d="m247.914062 102.730469c-.046874.160156-.039062.398437-.140624.464843-2.832032 1.820313-5.578126 3.785157-8.789063 4.914063-.410156-.289063-.667969-.75-.699219-1.253906-.371094-2.605469-1.023437-5.160157-1.425781-7.761719-.097656-1.003906.460937-1.957031 1.382813-2.367188 2.464843-1.398437 4.910156-2.84375 7.367187-4.257812 1.070313 3.34375 1.84375 6.78125 2.304687 10.261719zm0 0" fill="#336e66"/><path d="m245.609375 92.46875c-.441406 1.335938-1.847656 1.425781-2.796875 2.085938-1.503906 1-3.074219 1.902343-4.695312 2.703124-.621094.273438-.964844.941407-.828126 1.601563-.132812.03125-.277343 0-.390624-.078125-.113282-.078125-.191407-.199219-.214844-.335938-.820313-3.347656-2.015625-6.59375-2.695313-9.976562.027344-.449219.261719-.859375.628907-1.113281 2.625-1.5625 5.109374-3.367188 8-4.445313 1.296874 3.085938 2.300781 6.285156 2.992187 9.558594zm0 0" fill="#326962"/><path d="m52.601562 214.832031c-2.691406 1.613281-5.378906 3.230469-8.082031 4.820313-.304687.113281-.621093.175781-.945312.183594-2.535157-2.0625-4.945313-4.277344-7.21875-6.628907.027343-.164062.058593-.363281.1875-.441406 2.792969-1.757813 5.484375-3.710937 8.65625-4.785156 2.015625 1.042969 3.382812 2.863281 5.097656 4.273437.882813.726563 2.171875 1.167969 2.304687 2.578125zm0 0" fill="#336e66"/><path d="m53.496094 227.515625c1.261718-1.4375 3.113281-1.984375 4.617187-3.054687 1.324219-.9375 3.070313-1.25 4.03125-2.722657 2.558594.714844 4.660157 2.320313 6.933594 3.578125.847656.464844 2.058594.566406 2.371094 1.785156-2.246094 1.933594-4.960938 3.125-7.488281 4.613282-.707032.417968-1.28125 1.246094-2.289063 1.050781-2.867187-1.515625-5.601563-3.273437-8.175781-5.25zm0 0" fill="#34786d"/><path d="m14.535156 91.585938c-.585937-.601563-1.027344.019531-1.425781.242187-2.8125 1.5625-5.582031 3.1875-8.398437 4.742187-.410157.226563-1.039063 1.238282-1.4375-.074218.492187-2.917969 1.269531-5.785156 2.320312-8.550782 3.019531-1.183593 5.648438-3.085937 8.464844-4.640624.863281-.476563 1.746094-.921876 2.617187-1.378907.402344-.210937.808594-.410156 1.160157.082031.242187.3125.269531.738282.074218 1.082032-.890625 2.539062-1.726562 5.089844-2.574218 7.644531-.125.382813-.175782.90625-.800782.851563zm0 0" fill="#2a393d"/><path d="m161.285156 5.375c.425782.835938-.292968 1.035156-.773437 1.316406-2.617188 1.542969-5.242188 3.078125-7.878907 4.597656-.613281.351563-1.289062.601563-1.601562 1.316407-.378906.332031-.90625.4375-1.382812.273437-2.359376-.46875-4.707032-.992187-7.097657-1.304687-.441406-.042969-.84375-.277344-1.101562-.644531-.535157-.8125 0-1.117188.632812-1.472657 2.980469-1.683593 5.949219-3.390625 8.902344-5.121093.535156-.3125 1.226563-.527344 1.367187-1.28125 2.636719.222656 5.042969 1.316406 7.535157 2.054687.472656.058594.9375.144531 1.398437.265625zm0 0" fill="#2a393d"/><path d="m242.621094 82.914062c-2.160156 1.472657-4.398438 2.828126-6.703125 4.054688-.605469.371094-1.296875.613281-1.605469 1.332031-.507812.054688-.664062-.339843-.789062-.683593-.9375-2.625-1.976563-5.207032-2.953126-7.8125-.121093-.308594-.152343-.644532-.085937-.96875.824219-1.253907 2.230469-1.683594 3.441406-2.375 1.578125-1.074219 3.257813-1.980469 5.015625-2.707032 1.503906 2.933594 2.734375 6 3.679688 9.160156zm0 0" fill="#31655f"/><path d="m45.253906 208.257812c-3.148437 1.324219-5.925781 3.308594-8.894531 4.945313-2.347656-2.292969-4.566406-4.714844-6.640625-7.257813 1.007812-1.324218 2.597656-1.773437 3.945312-2.578124 1.460938-.980469 2.996094-1.835938 4.59375-2.570313 1.230469.484375 1.835938 1.660156 2.75 2.496094 1.214844 1.101562 2.351563 2.285156 3.484376 3.472656.386718.40625 1.003906.742187.761718 1.492187zm0 0" fill="#326962"/><path d="m249.136719 138.855469c-.28125 3.671875-.839844 7.3125-1.660157 10.898437-3.058593 1.371094-5.886718 3.164063-8.785156 4.824219-.757812.433594-1.550781 1.1875-2.539062.398437-.363282-.890624.074218-1.710937.253906-2.539062.464844-2.175781.894531-4.363281 1.5625-6.492188.28125-.539062.734375-.976562 1.289062-1.234374 2.597657-1.332032 5.007813-3.007813 7.625-4.292969.851563-.417969 1.351563-1.269531 2.253907-1.5625zm0 0" fill="#368275"/><path d="m38.300781 200.988281c-2.769531 1.804688-5.636719 3.460938-8.585937 4.960938-2.167969-2.382813-4.160156-4.921875-5.949219-7.601563.230469-.699218.867187-.976562 1.429687-1.289062 1.8125-1.027344 3.625-2.050782 5.421876-3.117188.464843-.394531 1.085937-.558594 1.6875-.449218 2.019531 1.472656 3.21875 3.675781 4.835937 5.503906.492187.558594 1.398437.972656 1.160156 1.992187zm0 0" fill="#31655f"/><path d="m240.261719 123.332031c-.613281-2.921875.671875-4.652343 3.355469-5.703125 1.25-.488281 2.292968-1.507812 3.542968-2.007812 1.59375-.636719 2.351563-1.601563 2.070313-3.320313.371093 2.078125.570312 4.183594.597656 6.292969.089844 1.789062.042969 3.582031.054687 5.371094-.382812.539062-.90625.964844-1.511718 1.230468-2.289063 1.207032-4.464844 2.621094-6.75 3.839844-.609375.375-.992188 1.035156-1.011719 1.757813-.097656.472656-.195313 1.269531-.960937.4375-.429688-2.644531-.21875-5.351563.613281-7.898438zm0 0" fill="#34786d"/><path d="m243.503906 164.625c-2.667968.890625-4.859375 2.667969-7.328125 3.921875-1.832031.929687-3.378906 2.46875-5.5625 2.664063-.257812-.367188-.277343-.847657-.050781-1.238282 1.015625-2.34375 1.9375-4.726562 2.796875-7.128906.105469-.25.273437-.472656.488281-.644531 3.300782-1.515625 6.347656-3.476563 9.503906-5.273438.761719-.433593 1.503907-1.226562 2.539063-.5625-.550781 2.816407-1.351563 5.582031-2.386719 8.261719zm0 0" fill="#37887a"/><path d="m.046875 120.996094c1.902344-.421875 3.3125-1.796875 5.011719-2.621094 1.171875-.566406 2.253906-1.316406 3.40625-1.933594.4375-.234375.9375-.703125 1.445312-.066406.574219.828125.75 1.867188.472656 2.832031-.382812 3.019531.148438 6.019531.035157 9.023438.042969.765625-.019531 1.535156-.1875 2.28125-.613281.878906-.859375.277343-.976563-.292969-.148437-1.089844-.183594-2.195312-.105468-3.292969 0-1.0625-.367188-1.285156-1.285157-.730469-2.023437 1.226563-4.039062 2.476563-6.175781 3.496094-.605469.285156-1.367188.773438-1.6367188-.417968zm0 0" fill="#2c4345"/><path d="m84.601562 243.25c-2.953124-.824219-5.828124-1.921875-8.582031-3.273438-.011719-.71875.511719-1.0625 1.019531-1.367187 2.84375-1.703125 5.808594-3.210937 8.554688-5.078125.238281-.132812.507812-.199219.78125-.195312 2.925781.625 5.777344 1.542968 8.519531 2.734374.15625.917969-.546875 1.253907-1.144531 1.609376-2.078125 1.238281-4.152344 2.488281-6.269531 3.660156-1.003907.566406-1.964844 1.207031-2.878907 1.910156zm0 0" fill="#368275"/><path d="m12.527344 150.417969c-1.828125.097656-3.035156 1.5-4.582032 2.203125-1.488281.675781-2.863281 1.601562-4.285156 2.414062-.914062-3.015625-1.570312-6.109375-1.953125-9.238281 2.539063-1.269531 4.957031-2.773437 7.445313-4.140625.585937-.324219 1.226562-1.101562 2.003906-.234375.453125 2.371094 1.015625 4.722656 1.449219 7.097656.113281.621094.410156 1.285157-.078125 1.898438zm0 0" fill="#2d4c4b"/><path d="m.0507812 129.269531c.4140628.699219.9023438.367188 1.3789068.097657 2.234374-1.277344 4.480468-2.539063 6.695312-3.847657 1.113281-.660156 1.464844-.464843 1.484375.878907.023437 1.503906-.394531 3.054687.285156 4.523437.746094.933594.496094 1.972656.320313 3.003906-1.140625 1.429688-2.957032 1.828125-4.375 2.839844-1.058594.703125-2.15625 1.335937-3.292969 1.894531-.585937.3125-1.292969.851563-1.828125-.132812l-.097656-1.234375c-.324219-.777344.054687-1.621094-.246094-2.398438-.3007812-1.859375-.4101562-3.746093-.3242188-5.625zm0 0" fill="#2c4647"/><path d="m211.179688 34.496094c-.683594 1.742187-2.582032 1.835937-3.847657 2.792968-1.375 1.046876-3.105469 1.5625-4.414062 2.746094-.734375.183594-1.058594-.4375-1.511719-.78125-1.476562-1.128906-2.820312-2.417968-4.269531-3.585937-.390625-.316407-1.003907-.542969-.828125-1.257813 1.511718-1.769531 3.765625-2.386718 5.621094-3.625.949218-.632812 2.089843-1 2.683593-2.085937 1.660157 1.144531 3.160157 2.5 4.460938 4.039062.570312.726563 1.289062 1.324219 2.105469 1.757813zm0 0" fill="#2d4c4b"/><path d="m224.726562 182.800781c3.769532-1.640625 7.15625-3.976562 10.757813-5.921875 1.328125-.714844 2.460937-1.855468 4.074219-2.003906-.96875 2.515625-2.125 4.960938-3.457032 7.308594-2.496093.46875-4.40625 2.132812-6.5625 3.285156-2.804687 1.496094-5.535156 3.132812-8.300781 4.695312-.445312.332032-.976562.523438-1.53125.550782-.269531-.46875-.019531-.859375.214844-1.222656 1.355469-2.070313 2.734375-4.121094 4.027344-6.234376.164062-.273437.367187-.566406.777343-.457031zm0 0" fill="#388e7e"/><path d="m210.847656 47.980469c.617188-1.617188 2.359375-1.71875 3.535156-2.582031 1.421876-1.046876 3.207032-1.570313 4.378907-3 1.957031 2.015624 3.742187 4.191406 5.332031 6.503906.390625.652344-.027344 1.054687-.5 1.339844-2.351562 1.570312-4.820312 2.953124-7.386719 4.136718-.386719.035156-.769531-.132812-1.011719-.4375-1.363281-1.632812-2.742187-3.246094-4.070312-4.90625-.28125-.269531-.390625-.679687-.277344-1.054687zm0 0" fill="#2f5552"/><path d="m6.636719 165.28125c2.304687-1.320312 4.601562-2.652344 6.917969-3.949219.53125-.257812 1.082031-.484375 1.644531-.671875.105469.03125.25.050782.292969.136719 1.394531 2.402344 2.347656 5.039063 2.8125 7.777344-2.386719 1.613281-4.914063 2.984375-7.421876 4.394531-.425781.28125-.980468.257812-1.382812-.054688-1.171875-2.457031-2.128906-5.011718-2.863281-7.632812zm0 0" fill="#2f5552"/><path d="m86.304688 233.679688c-3.355469 2.21875-7.128907 3.761718-10.285157 6.296874-2.671875-.945312-5.242187-2.152343-7.675781-3.605468 1.421875-1.574219 3.429688-2.265625 5.164062-3.367188 1.511719-.960937 3.078126-1.84375 4.589844-2.8125 2.789063.703125 5.492188 1.726563 8.046875 3.050782.144531.066406.160157.269531.160157.4375zm0 0" fill="#367f73"/><path d="m117.984375 240.03125c-.144531 1.179688-1.296875 1.269531-2.019531 1.707031-3.710938 2.246094-7.492188 4.363281-11.25 6.527344-2.339844-.179687-4.65625-.628906-6.898438-1.332031-.203125-.613282.226563-.960938.625-1.207032 3.820313-2.363281 7.683594-4.660156 11.636719-6.808593 2.160156.042969 4.3125.214843 6.453125.507812.550781-.015625 1.078125.207031 1.453125.605469zm0 0" fill="#378a7b"/><path d="m249.132812 138.859375c-.839843 1.976563-2.96875 2.191406-4.492187 3.214844-2.019531 1.359375-4.199219 2.488281-6.308594 3.710937-.226562-.164062-.347656-.4375-.316406-.714844.253906-2.597656.6875-5.171874 1.300781-7.707031 2.246094-1.550781 4.65625-2.832031 7.039063-4.152343 1.386719-.667969 2.570312-1.683594 3.441406-2.949219.023437 2.878906-.195313 5.753906-.664063 8.597656zm0 0" fill="#367f73"/><path d="m249.796875 130.265625c-.140625 1.214844-.949219 2.25-2.097656 2.679687-2.324219 1.21875-4.554688 2.617188-6.820313 3.941407-.378906.226562-.820312.335937-1.261718.304687-.945313-1.941406-.480469-3.792968.378906-5.613281-.078125-2.105469 1.347656-2.992187 2.964844-3.824219 2.34375-1.203125 4.617187-2.519531 6.921874-3.785156.125 2.097656.09375 4.203125-.085937 6.296875zm0 0" fill="#357b70"/><path d="m78.003906 230.339844c-.847656 1.417968-2.414062 1.824218-3.710937 2.601562-1.964844 1.179688-3.96875 2.292969-5.957031 3.433594-2.339844-.980469-4.570313-2.1875-6.667969-3.609375 3.132812-2.050781 6.378906-3.914063 9.6875-5.664063.351562-.171874.773437-.136718 1.085937.097657 1.464844.734375 2.96875 1.394531 4.46875 2.0625.480469.207031 1.066406.382812 1.09375 1.078125zm0 0" fill="#357b70"/><path d="m32.34375 193.710938c-1.878906.351562-3.222656 1.757812-4.890625 2.519531-1.28125.585937-2.460937 1.402343-3.6875 2.113281-1.59375-1.976562-3.03125-4.078125-4.304687-6.277344.035156-.277344.191406-.527344.421874-.683594 2.542969-1.617187 5.160157-3.109374 7.851563-4.46875.433594.09375.800781.382813.988281.78125 1.050782 1.585938 2.195313 3.105469 3.246094 4.6875.257812.386719.640625.777344.375 1.328126zm0 0" fill="#31615c"/><path d="m15.554688 185.449219c-1.445313-2.308594-2.675782-4.738281-3.683594-7.269531 2.507812-.617188 4.492187-2.269532 6.730468-3.417969.714844-.363281 1.359376-1.003907 2.28125-.640625 1.207032 1.863281 2.15625 3.871094 3.222657 5.8125.25.367187.292969.835937.121093 1.246094-2.320312 1.621093-4.863281 2.867187-7.296874 4.296874-.414063.304688-.976563.292969-1.375-.027343zm0 0" fill="#2f5a56"/><path d="m238.941406 73.753906c-2.546875 2.015625-5.503906 3.34375-8.300781 4.949219-.167969.015625-.378906.011719-.445313-.125-1.097656-2.222656-2.5625-4.28125-2.980468-6.800781 1.757812-1.589844 3.980468-2.441406 5.957031-3.683594.714844-.609375 1.597656-.984375 2.53125-1.074219 1.285156 2.140625 2.371094 4.394531 3.238281 6.734375zm0 0" fill="#31615c"/><path d="m228.207031 54.515625c1.429688 1.886719 2.703125 3.886719 3.808594 5.984375.179687.828125-.527344 1.007812-1.007813 1.292969-2.320312 1.367187-4.632812 2.742187-6.945312 4.128906-.054688 0-.132812.015625-.160156-.011719-1.96875-1.859375-3.4375-4.183594-4.277344-6.757812.351562-.5625.871094-1 1.480469-1.253906 1.765625-1 3.535156-1.996094 5.269531-3.046876.5625-.339843 1.128906-.722656 1.832031-.335937zm0 0" fill="#2f5a56"/><path d="m245.886719 156.363281c-2.496094.453125-4.261719 2.328125-6.476563 3.328125-1.820312.824219-3.300781 2.339844-5.382812 2.621094-.242188-.230469-.320313-.585938-.195313-.898438.5625-1.917968 1.179688-3.816406 1.796875-5.714843.101563-.316407.351563-.5625.667969-.660157 2.496094-.4375 4.242187-2.34375 6.46875-3.308593 1.5625-.683594 2.773437-2.191407 4.707031-1.980469-.332031 2.25-.863281 4.460938-1.585937 6.613281zm0 0" fill="#368578"/><path d="m15.554688 185.449219c2.382812-.574219 4.21875-2.222657 6.355468-3.28125.679688-.449219 1.425782-.792969 2.210938-1.015625 1.457031 1.023437 3.679687 4.660156 3.640625 5.945312l-8.300781 4.972656c-1.472657-2.101562-2.78125-4.316406-3.90625-6.621093zm0 0" fill="#305e59"/><path d="m224.054688 65.847656c1.316406-1.636718 3.335937-2.230468 5-3.351562.984374-.667969 2.175781-1.027344 2.960937-1.996094 1.421875 2.058594 2.652344 4.242188 3.683594 6.523438-2.742188 1.660156-5.460938 3.359374-8.363281 4.742187-.269532.078125-.5625-.027344-.71875-.265625-.996094-1.628906-1.898438-3.3125-2.699219-5.046875-.078125-.210937-.023438-.449219.136719-.605469zm0 0" fill="#305e59"/><path d="m109.746094 239.3125c-3.042969 2.230469-6.453125 3.847656-9.648438 5.820312-.910156.378907-1.695312 1.003907-2.277344 1.796876-2.257812-.300782-4.476562-.851563-6.613281-1.640626-.445312-.960937.363281-1.238281.921875-1.589843 1.984375-1.246094 4.035156-2.386719 6.089844-3.515625 1.34375-.738282 2.539062-1.683594 3.839844-2.480469 2.472656-.078125 4.824218.714844 7.242187 1.015625.140625.019531.265625.089844.347657.203125.082031.113281.117187.253906.097656.390625zm0 0" fill="#37877a"/><path d="m101.792969 237.96875c-1.164063 1.953125-3.394531 2.375-5.105469 3.542969-1.476562 1.003906-3.085938 1.816406-4.652344 2.683593-.460937.253907-.820312.527344-.832031 1.097657-2.261719-.453125-4.476563-1.136719-6.601563-2.039063.460938-1.613281 2.089844-1.785156 3.214844-2.539062 2.296875-1.546875 4.90625-2.597656 7.058594-4.378906.34375-.289063.8125-.367188 1.230469-.207032 1.589843.367188 3.183593.730469 4.777343 1.089844.402344.089844.890626.15625.910157.75zm0 0" fill="#368577"/><path d="m.710938 138.523438c.988281.585937 1.613281-.261719 2.34375-.621094 2.335937-1.136719 4.328124-2.910156 6.859374-3.683594 1.046876 2.152344 1.382813 4.585938.957032 6.941406-2.214844 1.269532-4.40625 2.582032-6.65625 3.785156-.765625.410157-1.449219 1.230469-2.503906.851563-.539063-2.394531-.875-4.828125-1-7.273437zm0 0" fill="#2d4949"/><path d="m228.207031 54.515625c-2.996093 1.242187-5.628906 3.148437-8.460937 4.6875-1.847656-1.058594-3.164063-2.851563-3.613282-4.933594 2.28125-1.367187 4.5625-2.746093 6.851563-4.101562.523437-.308594 1.113281-.515625 1.113281-1.269531 1.527344 1.753906 2.902344 3.632812 4.109375 5.617187zm0 0" fill="#2f5754"/><path d="m20.769531 174.210938c-2.355469 1.074218-4.632812 2.3125-6.808593 3.710937-.695313.390625-1.320313.765625-2.089844.253906-.96875-1.667969-1.761719-3.433593-2.371094-5.265625 2.246094-.449218 3.925781-1.992187 5.871094-3.027344.863281-.558593 1.800781-.996093 2.78125-1.300781 1.480468 1.53125 2.402344 3.515625 2.617187 5.628907zm0 0" fill="#2f5754"/><path d="m.289062 116.929688c-.058593 1.246093.3125 2.515624-.2382808 3.730468-.1484374-1.25-.0664062-2.511718.2382808-3.730468zm0 0" fill="#2c4345"/><path d="m.378906 134.886719c.53125.753906.1875 1.597656.242188 2.398437-.292969-.761718-.375-1.589844-.242188-2.398437zm0 0" fill="#2d4949"/><path d="m135.183594 249.503906c.648437-.496094 1.386718-.195312 2.085937-.226562-.652343.300781-1.382812.382812-2.085937.226562zm0 0" fill="#399584"/><path d="m20.769531 174.214844-2.617187-5.621094c-.984375-2.644531-1.96875-5.289062-2.953125-7.933594-.890625-3.414062-1.78125-6.828125-2.671875-10.242187-.480469-3.097657-1.539063-6.089844-1.660156-9.253907-.316407-2.316406-.636719-4.628906-.953126-6.945312-.007812-1.101562-.015624-2.199219-.023437-3.300781.082031-4.847657-.3125-9.695313.015625-14.539063.5625-1.722656.367188-3.539062.648438-5.296875.371093-2.304687.667968-4.625.996093-6.933593.972657-4.191407 1.71875-8.4375 2.980469-12.558594l3.308594-9.582032c1.261718-2.234374 2.105468-4.664062 3.179687-6.984374.875-1.878907 1.84375-3.71875 2.769531-5.574219 2.164063-3.460938 4.273438-6.953125 6.515626-10.359375 1.277343-2.082032 2.746093-4.042969 4.386718-5.847656 2.878906-3.390626 5.9375-6.605469 8.949219-9.863282 3.589844-3.890625 7.773437-7.0625 11.691406-10.546875 1-.765625 2.054688-1.453125 3.15625-2.050781 5.613281-3.964844 11.578125-7.398438 17.824219-10.257812.140625-.0625.238281-.21875.355469-.328126 8.292969-3.820312 17.023437-6.601562 25.992187-8.285156 1.613282-.152344 3.203125-.476562 4.746094-.96875 2.34375.039063 4.589844-.820312 6.945312-.667968.496094-.375 1.15625.078124 1.652344-.324219l2.972656-.007813c4.074219-.253906 8.15625-.253906 12.226563 0 3.433594.117188 6.855469.449219 10.246094.988282l9.582031 1.671874 12.554688 3.640626 11.570312 4.933593c4.125 1.921875 7.917969 4.4375 11.894531 6.628907l9.257813 6.601562 6.605468 5.628906c2.535157 2.757813 5.175782 5.40625 7.929688 7.945313 1.628906 2.203125 3.390625 4.304687 5.28125 6.289062 1.023438 1.769531 2.234375 3.421875 3.613281 4.933594 1.277344 2.3125 2.71875 4.53125 4.308594 6.640625.914063 2.070312 2.011719 4.050781 3.285156 5.917969l3.300781 6.941406 3.671876 9.59375 2.980468 10.5625c.566406 3.085937 1.128906 6.167969 1.691406 9.25.679688 4.90625 1.027344 9.847656 1.050782 14.800781 0 .140625.148437.28125.226562.421875.050782 2.753907-.488281 5.484375-.265625 8.242188-.039062 1.878906-.539062 3.726562-.378906 5.617187-.425781 2.863282-.855469 5.730469-1.285156 8.59375l-2.035157 9.253906c-.757812 2.421876-1.511718 4.847657-2.269531 7.273438-1.136719 2.964844-2.277343 5.929688-3.417969 8.898438l-5.886718 11.585937-5.023438 7.910156c-4.660156 6.355469-9.8125 12.335938-15.410156 17.882813-3.738281 3.320312-7.503906 6.601562-11.550781 9.546875-8.800781 6.425781-18.476563 11.558593-28.734375 15.246093-.253906.097657-.496094.230469-.746094.34375-5.84375 1.929688-11.804688 3.492188-17.84375 4.675782-4.394531.671875-8.789062 1.28125-13.222656 1.625-4.734375-.105469-9.472656.496094-14.210938 0l-8.242187-.722656-7.949219-1.34375-6.917969-1.632813-8.570312-2.65625-8.300781-3.339844-6.640626-3.242187c-2.378906-1.355469-4.761718-2.707032-7.128906-4.070313-.707031-.40625-1.390625-.859375-2.085937-1.289062l-9.542969-6.90625-7.347656-6.574219-6.953125-7.269531-5.957031-7.273438-4.582032-6.617187c-1.105468-2.042969-2.320312-4.03125-3.640625-5.945313-.765625-2.472656-2.554687-4.460937-3.34375-6.929687zm0 0" fill="#192123"/><path d="m131.203125 9.945312h-12.226563c1.453126-.691406 2.996094-.195312 4.492188-.308593 1.140625-.082031 2.292969-.019531 3.441406-.019531 1.421875.1875 2.90625-.382813 4.292969.328124zm0 0" fill="#293237"/><path d="m116.003906 9.949219c-.46875.539062-1.09375.253906-1.652344.320312.464844-.539062 1.09375-.242187 1.652344-.320312zm0 0" fill="#293237"/><path d="m95.84375 154.800781c-2.050781 1.4375-4.753906 1.535157-6.902344.25-1.597656-5.257812-2.792968-10.621093-4.238281-15.917969-3.675781-13.460937-7.210937-26.957031-10.824219-40.433593-.25-.722657-.320312-1.5-.195312-2.253907.039062-.4375.363281-.660156.667968-.898437 3.429688-1.667969 7.246094-1.929687 10.839844-2.976563.734375-.214843 1.480469-.375 2.234375-.488281 1.472657.785157 2.296875 2.40625 2.058594 4.058594 1.152344-2.171875 1.367187-4.980469 4.363281-5.605469.921875-.117187 1.835938-.292968 2.734375-.523437.269531-.019531.539063.050781.765625.203125.421875.4375.691406 1.003906.761719 1.613281 3.125 13.289063 6.28125 26.574219 9.472656 39.851563.125.421874.199219.855468.21875 1.296874-.15625 1.773438-1.304687 3.109376-2.109375 4.582032-2.839844 5.191406-5.640625 10.402344-8.570312 15.542968-.347656.621094-.777344 1.191407-1.277344 1.699219zm0 0" fill="#1fc8a7"/><path d="m176.4375 153.421875c-.261719.5625-.703125 1.019531-1.257812 1.300781-2.621094 1.222656-5.484376 1.585938-8.257813 2.242188-11.460937 2.703125-22.910156 5.449218-34.375 8.132812-5.625 1.316406-11.238281 2.691406-16.871094 3.96875-.570312.207032-1.191406.242188-1.78125.09375-.8125-.589844-.230469-1.179687.046875-1.722656 2.152344-4.207031 4.527344-8.292969 6.804688-12.433594 3.996094-7.269531 7.953125-14.5625 12.011718-21.796875.757813-1.347656 1.136719-3.007812 2.6875-3.816406 1.542969.386719 3.007813 1.042969 4.324219 1.9375 7.179688 3.917969 14.375 7.8125 21.546875 11.742187 4.765625 2.605469 9.617188 5.054688 14.257813 7.894532.402343.773437.695312 1.601562.863281 2.457031zm0 0" fill="#1fc8a7"/><path d="m113.714844 168.945312c5.027344-.878906 9.9375-2.246093 14.898437-3.40625 15.148438-3.539062 30.28125-7.15625 45.421875-10.730468.378906-.058594.761719-.089844 1.144532-.085938-2.78125 2.246094-5.96875 3.878906-8.992188 5.742188-17.351562 10.691406-34.714844 21.355468-52.09375 31.996094-2.058594 1.261718-4.101562 2.550781-6.179688 3.789062-2.71875 1.835938-6.390624 1.285156-8.453124-1.269531-.367188-.527344 0-.941407.226562-1.359375 4.324219-7.898438 8.640625-15.800782 13.03125-23.660156.234375-.425782.433594-.90625.996094-1.015626zm0 0" fill="#198889"/><path d="m97.191406 90.265625-.683594.007813c-.34375.21875-.609374.179687-.757812-.234376-.902344-.203124 1.269531-.234374.015625-.644531-1.828125-.597656-3.859375-1.03125-4.6875-3.164062-.15625-.398438-.410156-.78125-.160156-1.238281 4.230469-2.546876 8.480469-5.0625 12.695312-7.640626 12.695313-7.78125 25.382813-15.574218 38.0625-23.378906 3.292969-2.019531 6.382813-1.5625 9.027344 1.234375-1.226563 3.140625-3.105469 5.941407-4.695313 8.886719-2.773437 5.128906-5.617187 10.21875-8.421874 15.332031-.320313.765625-.84375 1.425781-1.515626 1.917969-5.058593 1.433594-10.175781 2.636719-15.34375 3.613281-1.523437.40625-3.042968.824219-4.589843 1.164063-2.652344.699218-5.304688 1.398437-8 1.921875-2.953125.648437-5.902344 1.339843-8.835938 2.066406-.671875.273437-1.410156.328125-2.109375.15625zm0 0" fill="#198889"/><g fill="#68fde1"><path d="m113.714844 168.945312c-4.75 8.679688-9.503906 17.359376-14.257813 26.035157-1.609375-1.394531-2.289062-3.582031-1.746093-5.644531 1.246093-5.214844 2.503906-10.425782 3.773437-15.632813.242187-.898437.644531-1.75 1.179687-2.511719 16.394532-24.621094 32.78125-49.242187 49.167969-73.871094.460938-.945312 1.222657-1.714843 2.167969-2.183593.347656.726562-.152344 1.269531-.4375 1.832031-1.515625 2.988281-3.21875 5.878906-4.8125 8.824219-.492188.855469-.90625 1.753906-1.230469 2.6875-1.167969 1.726562-2.226562 3.519531-3.179687 5.371093-1.445313 2.527344-2.84375 5.078126-4.179688 7.664063-1.269531 2.402344-2.699218 4.714844-3.917968 7.140625-.140626.359375-.394532.65625-.730469.847656-1.535157 1.757813-2.40625 3.914063-3.519531 5.914063-6.113282 10.988281-12.144532 22.027343-18.195313 33.050781-.050781.152344-.078125.3125-.082031.476562zm0 0"/><path d="m136.164062 81.007812c3.984376-7.214843 7.949219-14.441406 11.96875-21.632812.792969-1.421875 1.335938-3.007812 2.558594-4.167969 1.5 1.8125 1.976563 4.261719 1.261719 6.503907-1.234375 4.816406-2.382813 9.652343-3.578125 14.480468-.261719.953125-.6875 1.851563-1.257812 2.65625-16.371094 24.589844-32.738282 49.183594-49.097657 73.78125-.46875.941406-1.234375 1.703125-2.175781 2.171875 3.417969-6.265625 6.839844-12.53125 10.265625-18.800781.558594-.878906 1.019531-1.820312 1.367187-2.804688.855469-2.820312 2.585938-5.207031 3.933594-7.777343 1.199219-2.289063 2.503906-4.527344 3.699219-6.820313 2.121094-3.4375 3.957031-7.03125 5.914063-10.5625 1.304687-2.449218 2.613281-4.898437 3.976562-7.316406 3.042969-5.328125 5.941406-10.734375 8.910156-16.101562.601563-1.289063 1.359375-2.5 2.253906-3.609376zm0 0"/><path d="m176.4375 153.421875c-.953125-.496094-.683594-1.503906-.964844-2.285156-1.457031-2.496094-1.644531-5.390625-2.511718-8.074219-.371094-1.53125-.851563-3.035156-1.4375-4.5-.773438-3.738281-2.035157-7.355469-2.769532-11.101562-.621094-2.933594-1.425781-5.824219-2.410156-8.65625-1.9375-7.28125-3.863281-14.5625-5.777344-21.84375-.1875-.710938-.773437-1.5625.34375-2.097657 1.300782.613281 2.332032 1.6875 2.894532 3.015625 5.828124 11.761719 11.648437 23.527344 17.460937 35.296875.753906 1.289063.945313 2.835938.53125 4.273438-1.738281 5.339843-3.289063 10.742187-5.359375 15.972656zm0 0"/><path d="m73.679688 96.441406c1.941406 7.207032 3.882812 14.410156 5.824218 21.617188 3.089844 11.554687 6.160156 23.117187 9.210938 34.683594.191406.726562.859375 1.476562.226562 2.308593-1.1875-.59375-2.136718-1.578125-2.691406-2.78125-5.808594-11.722656-11.621094-23.441406-17.441406-35.15625-.914063-1.777343-1.050782-3.851562-.375-5.730469 1.441406-4.351562 2.847656-8.71875 4.296875-13.066406.128906-.703125.457031-1.355468.949219-1.875zm0 0"/></g><path d="m160.910156 94.863281c-.523437.488281-.195312 1-.054687 1.519531 1.914062 7.195313 3.824219 14.390626 5.730469 21.585938.066406.257812.214843.519531-.007813.773438-.601563.101562-1.21875-.0625-1.691406-.449219-5.554688-2.960938-11.0625-6.015625-16.617188-8.976563-.386719-.207031-.78125-.421875-.878906-.910156-.398437-1.132812.515625-1.828125.9375-2.65625 1.824219-3.574219 4.03125-6.941406 5.671875-10.609375 2.039062-1.472656 4.761719-1.582031 6.910156-.277344zm0 0" fill="#1fc8a7"/><path d="m90.910156 84.992188c.578125 2.636718 2.8125 3.296874 4.921875 4.066406.988281.359375.804688.601562.023438.929687-.554688.683594-1.417969.625-2.140625.90625-1.570313.382813-2.246094 1.617188-2.8125 2.957031-.359375.847657-.703125 1.703126-1.101563 2.671876-.847656-1.503907-1.089843-3.125-2.117187-4.355469-1.539063-.835938-3.34375-1.171875-4.648438-2.464844-.195312-.226563-.132812-.359375.152344-.425781 3.546875-.832032 5.761719-2.996094 6.445312-7.046875zm0 0" fill="#fdfefe"/><path d="m83.039062 89.703125c1.589844.738281 3.429688 1.011719 4.648438 2.464844-1.757812 1.074219-3.828125 1.082031-5.738281 1.628906-2.492188.71875-5.0625 1.171875-7.597657 1.746094 2.304688-1.976563 5.085938-3.222657 7.570313-4.914063.402344-.273437.902344-.425781 1.117187-.925781zm0 0" fill="#19898a"/><path d="m115.390625 118.648438c-1.332031 3.253906-3.289063 6.175781-4.902344 9.285156-.929687 1.792968-2.003906 3.507812-3.015625 5.257812-3.332031-13.996094-6.664062-27.988281-9.996094-41.980468-.078124-.320313-.195312-.632813-.289062-.945313 3.566406-1.113281 7.226562-1.851563 10.871094-2.636719.535156.484375.875 1.144532.957031 1.859375 2.191406 9.074219 4.351563 18.152344 6.480469 27.238281.21875.632813.179687 1.320313-.105469 1.921876zm0 0" fill="#a4e8db"/><path d="m93.710938 90.894531c.640624-.457031 1.375-.765625 2.148437-.910156l.648437.285156c-.851562.476563-1.824218.695313-2.796874.625zm0 0" fill="#2aa197"/><path d="m171.867188 138.546875c1.1875 1.648437 1.238281 3.667969 1.773437 5.523437.667969 2.339844 1.226563 4.710938 1.832031 7.066407-5.121094-2.757813-10.242187-5.515625-15.359375-8.273438-8.203125-4.445312-16.402343-8.898437-24.601562-13.359375 1.074219-2.9375 2.96875-5.445312 4.3125-8.242187.71875-.332031 1.28125.097656 1.84375.414062 9.582031 5.304688 19.226562 10.488281 28.851562 15.707031.554688.242188 1.023438.648438 1.347657 1.164063zm0 0" fill="#a4e8db"/><path d="m132.09375 169.070312c1.589844-.457031 2.757812-1.8125 2.96875-3.453124.359375 1.785156 1.796875 3.152343 3.597656 3.417968-1.8125.230469-3.25 1.632813-3.535156 3.433594-.535156-1.949219-1.441406-2.988281-3.03125-3.398438zm0 0" fill="#f9fbfb"/><path d="m115.390625 118.652344c-1.113281-4.800782-2.210937-9.605469-3.347656-14.402344-1.3125-5.542969-2.652344-11.078125-3.984375-16.617188l7.964844-1.945312c.414062.441406.675781 1.003906.75 1.605469 1.464843 6.179687 2.917968 12.359375 4.417968 18.527343.261719.722657.316406 1.503907.148438 2.257813-1.726563 3.660156-3.714844 7.195313-5.949219 10.574219zm0 0" fill="#1fc8a7"/><path d="m136.164062 81.007812c-1.113281 2.5-2.386718 4.921876-3.808593 7.253907-2.011719 3.769531-4.082031 7.507812-6.144531 11.25-.285157.460937-.601563.902343-.941407 1.328125-.75-.457032-.808593-1.269532-.976562-1.996094-.820313-3.566406-1.6875-7.117188-2.515625-10.683594-.265625-1.226562-.644532-2.425781-1.132813-3.582031zm0 0" fill="#1fc8a7"/><path d="m120.644531 84.582031c.820313.027344.871094.636719 1.015625 1.25 1.191406 5.003907 2.40625 10.003907 3.613282 15.007813l-3.933594 7.238281c-1.914063-7.433594-3.714844-14.886719-5.3125-22.394531zm0 0" fill="#a4e8db"/><path d="m171.867188 138.546875c-10.089844-5.480469-20.175782-10.957031-30.265626-16.4375-.578124-.3125-1.1875-.566406-1.78125-.847656 1.429688-2.527344 2.625-5.183594 4.285157-7.578125 1.03125-.1875 1.785156.472656 2.574219.914062 6.96875 3.886719 14.039062 7.582032 21.011718 11.460938.613282.253906 1.136719.6875 1.496094 1.242187.824219 3.269531 1.652344 6.53125 2.464844 9.800781.097656.480469.167968.960938.214844 1.445313zm0 0" fill="#1fc8a7"/><path d="m169.1875 127.300781-25.082031-13.617187c1.027343-1.800782 1.5625-3.910156 3.285156-5.273438l19.1875 10.339844c1.246094 1.632812 1.160156 3.722656 1.882813 5.539062.316406.984376.558593 1.992188.726562 3.011719zm0 0" fill="#a4e8db"/><path d="m111.300781 95.761719c1.769531-.242188 3.167969-1.621094 3.4375-3.390625.308594 1.726562 1.679688 3.0625 3.410157 3.320312-1.757813.632813-2.988282 1.394532-3.339844 3.140625-.488282-1.609375-1.847656-2.800781-3.507813-3.070312zm0 0" fill="#fafdfc"/></svg>