
<svg xmlns="http://www.w3.org/2000/svg" xmlns:xlink="http://www.w3.org/1999/xlink" width="250px" height="250px" viewBox="0 0 250 250" version="1.1">
<g id="surface1">
<path style=" stroke:none;fill-rule:nonzero;fill:rgb(16.470589%,21.568628%,23.137255%);fill-opacity:1;" d="M 105.378906 116.667969 C 104.4375 116.621094 103.449219 117.027344 102.578125 116.351562 C 103.523438 116.160156 104.503906 116.273438 105.378906 116.667969 Z M 105.378906 116.667969 "/>
<path style=" stroke:none;fill-rule:nonzero;fill:rgb(16.470589%,21.568628%,23.137255%);fill-opacity:1;" d="M 109.335938 117.085938 C 108.554688 117.109375 107.734375 117.417969 107.03125 116.792969 C 107.8125 116.621094 108.625 116.722656 109.335938 117.085938 Z M 109.335938 117.085938 "/>
<path style=" stroke:none;fill-rule:nonzero;fill:rgb(15.686275%,18.82353%,21.176471%);fill-opacity:1;" d="M 27.382812 46.878906 C 29.351562 44.136719 31.546875 41.566406 33.953125 39.199219 C 50.449219 21.601562 71.71875 9.199219 95.160156 3.515625 C 98.960938 2.5 102.835938 1.78125 106.746094 1.367188 C 107.1875 2.644531 106.109375 3.011719 105.378906 3.433594 C 100.996094 5.964844 96.636719 8.539062 92.234375 11.042969 C 87.5 13.734375 82.839844 16.546875 78.105469 19.246094 C 77.542969 19.472656 77.074219 19.894531 76.789062 20.433594 C 76.566406 20.753906 76.253906 20.996094 75.890625 21.128906 C 70.507812 23.644531 65.335938 26.597656 60.433594 29.957031 C 59.886719 30.421875 59.242188 30.761719 58.550781 30.953125 C 58 30.921875 57.453125 31.070312 56.988281 31.371094 C 48.144531 36.371094 39.355469 41.46875 30.574219 46.582031 C 29.992188 47 29.34375 47.3125 28.65625 47.511719 C 28.125 47.613281 27.433594 47.84375 27.382812 46.878906 Z M 27.382812 46.878906 "/>
<path style=" stroke:none;fill-rule:nonzero;fill:rgb(22.352941%,58.431375%,51.764709%);fill-opacity:1;" d="M 160.285156 244.871094 C 153.292969 247.046875 146.09375 248.484375 138.800781 249.167969 C 138.417969 248.003906 139.359375 247.605469 140.0625 247.203125 C 145.175781 244.210938 150.332031 241.289062 155.449219 238.300781 C 158.042969 236.785156 160.820312 235.546875 163.089844 233.511719 C 165.320312 232.175781 167.835938 231.515625 170.207031 230.507812 C 181.019531 225.863281 191.050781 219.578125 199.949219 211.875 C 201.359375 210.671875 202.511719 209.148438 204.207031 208.277344 C 205.175781 208.09375 206.101562 207.722656 206.929688 207.183594 C 213.191406 203.558594 219.417969 199.875 225.757812 196.382812 C 226.21875 196.128906 226.96875 195.035156 227.433594 196.480469 C 223.214844 202.707031 218.382812 208.492188 213.007812 213.75 C 212.621094 214.140625 212.195312 214.480469 211.789062 214.847656 C 200.949219 220.894531 190.28125 227.234375 179.507812 233.394531 C 174.070312 236.503906 168.664062 239.667969 163.226562 242.777344 C 162.152344 243.332031 161.164062 244.039062 160.285156 244.871094 Z M 160.285156 244.871094 "/>
<path style=" stroke:none;fill-rule:nonzero;fill:rgb(16.078432%,19.607843%,21.568628%);fill-opacity:1;" d="M 27.382812 46.878906 C 28.109375 47.757812 28.8125 47.117188 29.425781 46.769531 C 33.894531 44.210938 38.335938 41.605469 42.796875 39.03125 C 47.585938 36.269531 52.378906 33.515625 57.179688 30.777344 C 57.59375 30.542969 58.050781 30.199219 58.492188 30.765625 C 56.539062 32.597656 54.472656 34.304688 52.304688 35.878906 C 46.726562 40.597656 41.554688 45.777344 36.839844 51.363281 C 36.289062 52.183594 35.574219 52.886719 34.746094 53.425781 C 31.804688 54.292969 29.390625 56.171875 26.757812 57.625 C 24.164062 59.054688 21.652344 60.632812 19.019531 61.996094 C 18.472656 62.28125 17.585938 63.160156 17.140625 61.757812 C 19.101562 58.125 21.34375 54.648438 23.84375 51.363281 C 24.890625 49.765625 26.074219 48.265625 27.382812 46.878906 Z M 27.382812 46.878906 "/>
<path style=" stroke:none;fill-rule:nonzero;fill:rgb(16.078432%,19.607843%,21.568628%);fill-opacity:1;" d="M 76.667969 20.195312 C 76.859375 18.785156 78.246094 18.738281 79.109375 18.210938 C 83.035156 15.816406 87.054688 13.574219 91.039062 11.277344 C 95.652344 8.613281 100.261719 5.953125 104.875 3.292969 C 105.683594 2.828125 106.570312 2.453125 106.746094 1.375 C 110.789062 0.628906 114.886719 0.195312 118.996094 0.0742188 C 120.851562 -0.0429688 122.726562 0.03125 124.59375 0.0195312 C 124.71875 1.152344 123.785156 1.472656 123.078125 1.898438 C 119.042969 4.332031 114.945312 6.65625 110.863281 9.007812 C 109.652344 9.648438 108.523438 10.433594 107.496094 11.34375 C 104.238281 12.320312 100.855469 12.742188 97.550781 13.492188 C 91.246094 14.96875 85.089844 17.007812 79.152344 19.585938 C 78.371094 19.914062 77.613281 20.472656 76.667969 20.195312 Z M 76.667969 20.195312 "/>
<path style=" stroke:none;fill-rule:nonzero;fill:rgb(21.960784%,56.862748%,50.588238%);fill-opacity:1;" d="M 227.4375 196.484375 C 227.25 196.117188 227.019531 196.0625 226.648438 196.277344 C 221.433594 199.289062 216.21875 202.296875 210.996094 205.300781 C 209.433594 206.203125 207.878906 207.125 206.320312 208.035156 C 205.722656 208.433594 205.011719 208.628906 204.292969 208.589844 C 203.976562 207.90625 204.539062 207.570312 204.898438 207.222656 C 209.964844 202.375 214.570312 197.0625 218.660156 191.363281 C 218.925781 190.949219 219.304688 190.609375 219.746094 190.386719 C 223.867188 188.53125 227.605469 185.992188 231.539062 183.808594 C 232.40625 183.328125 233.253906 182.820312 234.132812 182.371094 C 234.738281 182.0625 235.386719 181.582031 236.105469 182.175781 C 233.664062 187.203125 230.761719 191.992188 227.4375 196.484375 Z M 227.4375 196.484375 "/>
<path style=" stroke:none;fill-rule:nonzero;fill:rgb(22.745098%,60.000002%,52.941179%);fill-opacity:1;" d="M 160.285156 244.875 C 160.175781 243.933594 160.976562 243.675781 161.546875 243.339844 C 166.410156 240.488281 171.292969 237.675781 176.175781 234.84375 C 186.695312 228.757812 197.222656 222.683594 207.75 216.613281 C 208.960938 215.753906 210.335938 215.152344 211.789062 214.847656 C 210.164062 216.328125 208.539062 217.8125 206.917969 219.292969 C 202.011719 223.726562 196.699219 227.691406 191.054688 231.136719 C 181.503906 237.15625 171.144531 241.78125 160.285156 244.875 Z M 160.285156 244.875 "/>
<path style=" stroke:none;fill-rule:nonzero;fill:rgb(16.078432%,20.392157%,22.352941%);fill-opacity:1;" d="M 17.140625 61.757812 C 17.765625 62.589844 18.355469 61.921875 18.851562 61.640625 C 22.992188 59.308594 27.089844 56.902344 31.238281 54.585938 C 32.3125 53.984375 33.257812 52.941406 34.695312 53.238281 C 34.09375 55.058594 32.671875 56.34375 31.613281 57.859375 C 29.347656 61.109375 27.316406 64.5 25.320312 67.90625 C 24.933594 68.558594 24.660156 69.316406 23.84375 69.597656 C 22.09375 69.679688 20.835938 70.867188 19.429688 71.667969 C 17.003906 73.054688 14.585938 74.464844 12.15625 75.84375 C 11.453125 76.242188 10.730469 76.980469 9.773438 76.34375 C 11.777344 71.265625 14.242188 66.382812 17.140625 61.757812 Z M 17.140625 61.757812 "/>
<path style=" stroke:none;fill-rule:nonzero;fill:rgb(16.078432%,20.392157%,22.352941%);fill-opacity:1;" d="M 107.40625 10.941406 C 109.605469 8.824219 112.464844 7.753906 115.003906 6.175781 C 117.695312 4.5 120.472656 2.96875 123.214844 1.382812 C 123.796875 1.066406 124.277344 0.59375 124.597656 0.015625 C 128.128906 -0.109375 131.667969 0.0273438 135.179688 0.421875 C 135.851562 0.699219 136.589844 0.367188 137.257812 0.65625 L 138.484375 0.75 C 139.027344 1.007812 139.644531 0.730469 140.191406 0.964844 L 140.191406 0.949219 C 140.355469 1.882812 139.597656 2.152344 139.019531 2.511719 C 136.382812 4.164062 133.667969 5.699219 130.941406 7.199219 C 129.40625 8.042969 128.039062 9.128906 126.511719 9.972656 C 124.023438 10.289062 121.507812 9.796875 119.03125 10.28125 C 118.074219 10.417969 117.109375 10.46875 116.144531 10.429688 C 115.488281 10.355469 114.824219 10.421875 114.191406 10.625 C 112.585938 10.800781 110.984375 11.027344 109.386719 11.257812 C 108.714844 11.488281 107.972656 11.371094 107.40625 10.941406 Z M 107.40625 10.941406 "/>
<path style=" stroke:none;fill-rule:nonzero;fill:rgb(17.254902%,26.274511%,27.058825%);fill-opacity:1;" d="M 184.078125 14.957031 C 186.609375 16.050781 189.023438 17.394531 191.289062 18.96875 C 192.902344 19.957031 194.425781 21.085938 195.992188 22.152344 C 196.160156 22.722656 195.699219 22.945312 195.359375 23.152344 C 192.625 24.8125 189.925781 26.550781 187.039062 27.957031 C 186.484375 27.941406 185.949219 27.761719 185.496094 27.4375 C 182.332031 25.546875 179.195312 23.59375 175.875 21.972656 C 175.519531 21.820312 175.21875 21.554688 175.023438 21.222656 C 174.800781 20.378906 175.386719 20.019531 175.96875 19.695312 C 178.707031 18.179688 181.367188 16.515625 184.078125 14.957031 Z M 184.078125 14.957031 "/>
<path style=" stroke:none;fill-rule:nonzero;fill:rgb(21.960784%,57.254905%,50.980395%);fill-opacity:1;" d="M 163.261719 233.730469 C 162.070312 235.507812 160.039062 236.105469 158.335938 237.113281 C 152.304688 240.675781 146.195312 244.105469 140.125 247.597656 C 139.453125 247.875 138.960938 248.464844 138.804688 249.175781 L 137.269531 249.273438 C 136.597656 249.550781 135.859375 249.234375 135.183594 249.503906 C 132.664062 249.886719 130.109375 250 127.566406 249.839844 C 127.199219 248.839844 128.085938 248.621094 128.621094 248.308594 C 132.976562 245.789062 137.300781 243.222656 141.679688 240.75 C 143.070312 240 144.371094 239.09375 145.558594 238.046875 C 151.027344 236.710938 156.53125 235.476562 161.867188 233.652344 C 162.324219 233.496094 162.820312 233.320312 163.261719 233.730469 Z M 163.261719 233.730469 "/>
<path style=" stroke:none;fill-rule:nonzero;fill:rgb(16.470589%,21.568628%,23.137255%);fill-opacity:1;" d="M 9.773438 76.339844 C 11.777344 76.011719 13.28125 74.660156 14.988281 73.738281 C 17.429688 72.425781 19.785156 70.953125 22.203125 69.589844 C 22.667969 69.328125 23.199219 68.757812 23.792969 69.445312 C 24 70.085938 23.867188 70.789062 23.4375 71.304688 C 21.785156 74.347656 20.304688 77.480469 19.007812 80.6875 C 18.757812 81.230469 18.628906 81.855469 18 82.128906 C 16.796875 82.265625 15.648438 82.714844 14.667969 83.429688 C 12.371094 84.820312 10.023438 86.125 7.695312 87.460938 C 7.066406 87.820312 6.449219 88.453125 5.601562 87.949219 C 6.644531 83.964844 8.042969 80.078125 9.773438 76.339844 Z M 9.773438 76.339844 "/>
<path style=" stroke:none;fill-rule:nonzero;fill:rgb(21.960784%,55.29412%,49.411765%);fill-opacity:1;" d="M 116.558594 249.597656 C 112.574219 249.535156 108.609375 249.089844 104.714844 248.261719 C 105.0625 247.636719 105.609375 247.144531 106.269531 246.863281 C 109.285156 245.074219 112.316406 243.3125 115.386719 241.621094 C 116.441406 241.035156 117.351562 240.246094 118.386719 239.632812 C 122.863281 240.066406 127.339844 239.230469 131.8125 239.648438 C 133.082031 240.597656 131.921875 241.046875 131.351562 241.425781 C 129.621094 242.578125 127.804688 243.582031 126 244.617188 C 123.34375 246.136719 120.660156 247.609375 118.078125 249.257812 C 117.621094 249.550781 117.148438 249.867188 116.558594 249.597656 Z M 116.558594 249.597656 "/>
<path style=" stroke:none;fill-rule:nonzero;fill:rgb(16.470589%,21.568628%,23.137255%);fill-opacity:1;" d="M 126.90625 9.613281 C 128.421875 7.613281 130.839844 6.960938 132.835938 5.6875 C 134.898438 4.371094 137.0625 3.214844 139.183594 1.992188 C 139.617188 1.75 139.964844 1.386719 140.195312 0.949219 C 143.933594 1.195312 147.632812 1.867188 151.21875 2.953125 C 151.59375 3.03125 151.976562 3.0625 152.355469 3.050781 C 152.738281 4.160156 151.726562 4.332031 151.160156 4.664062 C 149.082031 5.878906 147.023438 7.132812 144.917969 8.308594 C 143.5 9.101562 142.019531 9.800781 141.082031 11.222656 C 137.765625 11.09375 134.5 10.484375 131.191406 10.292969 C 130.339844 10.089844 129.464844 10.015625 128.589844 10.070312 C 127.996094 10.046875 127.367188 10.125 126.90625 9.613281 Z M 126.90625 9.613281 "/>
<path style=" stroke:none;fill-rule:nonzero;fill:rgb(16.470589%,23.529412%,24.705882%);fill-opacity:1;" d="M 161.285156 5.371094 C 165.359375 6.472656 169.335938 7.90625 173.175781 9.652344 C 173.636719 10.691406 172.761719 11.007812 172.167969 11.375 C 169.304688 13.15625 166.355469 14.792969 163.4375 16.484375 C 161.160156 16.417969 159.152344 15.328125 157.019531 14.726562 C 154.996094 14.15625 152.820312 14.035156 150.972656 12.898438 C 150.679688 11.792969 151.554688 11.464844 152.242188 11.066406 C 154.585938 9.726562 156.875 8.304688 159.253906 7.023438 C 160.050781 6.644531 160.746094 6.078125 161.285156 5.371094 Z M 161.285156 5.371094 "/>
<path style=" stroke:none;fill-rule:nonzero;fill:rgb(16.470589%,23.529412%,24.705882%);fill-opacity:1;" d="M 0.976562 109.433594 C 1.335938 105.058594 2.105469 100.726562 3.277344 96.496094 C 4.578125 96.523438 5.488281 95.636719 6.523438 95.074219 C 8.679688 93.902344 10.761719 92.589844 12.941406 91.460938 C 13.527344 91.15625 14.363281 90.492188 14.753906 91.777344 C 13.816406 95.902344 13.125 100.085938 11.78125 104.113281 C 8.691406 105.757812 5.65625 107.503906 2.628906 109.269531 C 2.113281 109.570312 1.582031 109.949219 0.976562 109.433594 Z M 0.976562 109.433594 "/>
<path style=" stroke:none;fill-rule:nonzero;fill:rgb(16.862746%,25.098041%,25.882354%);fill-opacity:1;" d="M 163.589844 16.242188 C 165.5 14.363281 168.128906 13.617188 170.230469 12.054688 C 171.242188 11.300781 172.816406 11.207031 173.179688 9.652344 C 176.988281 11.046875 180.640625 12.824219 184.085938 14.957031 C 182.765625 16.738281 180.617188 17.300781 178.882812 18.484375 C 177.914062 19.097656 176.910156 19.660156 175.878906 20.164062 C 175.460938 20.328125 175.179688 20.726562 175.167969 21.175781 C 174.617188 21.601562 174.109375 21.28125 173.636719 21.046875 C 170.777344 19.648438 167.847656 18.402344 164.859375 17.304688 C 164.355469 17.113281 163.621094 17.0625 163.589844 16.242188 Z M 163.589844 16.242188 "/>
<path style=" stroke:none;fill-rule:nonzero;fill:rgb(20.392157%,45.09804%,41.568628%);fill-opacity:1;" d="M 53.496094 227.515625 C 49.980469 225.238281 46.664062 222.667969 43.574219 219.835938 C 46.429688 217.882812 49.480469 216.277344 52.5 214.609375 C 53 214.582031 53.488281 214.765625 53.84375 215.121094 C 56.273438 217.019531 58.726562 218.890625 61.316406 220.570312 C 61.773438 220.863281 62.246094 221.179688 62.316406 221.804688 C 62.273438 222.308594 61.96875 222.757812 61.511719 222.976562 C 58.816406 224.457031 56.265625 226.179688 53.496094 227.515625 Z M 53.496094 227.515625 "/>
<path style=" stroke:none;fill-rule:nonzero;fill:rgb(21.960784%,54.901963%,49.019608%);fill-opacity:1;" d="M 243.503906 164.625 C 242.449219 168.136719 241.132812 171.5625 239.558594 174.871094 C 235.308594 177.570312 230.875 179.957031 226.519531 182.480469 C 226.003906 182.90625 225.300781 183.03125 224.664062 182.808594 C 224.386719 182.285156 224.683594 181.859375 224.921875 181.441406 C 226.683594 178.425781 228.265625 175.308594 229.652344 172.105469 C 229.816406 171.636719 230.140625 171.238281 230.574219 170.996094 C 233.90625 169.765625 236.730469 167.605469 239.832031 165.953125 C 240.558594 165.5625 241.273438 165.148438 241.996094 164.75 C 242.46875 164.488281 242.960938 164.144531 243.503906 164.625 Z M 243.503906 164.625 "/>
<path style=" stroke:none;fill-rule:nonzero;fill:rgb(16.862746%,25.098041%,25.882354%);fill-opacity:1;" d="M 0.976562 109.429688 C 2.90625 109.054688 4.308594 107.65625 6.011719 106.835938 C 7.378906 106.175781 8.671875 105.339844 10.003906 104.589844 C 10.460938 104.277344 11.003906 104.121094 11.554688 104.140625 C 11.808594 104.8125 11.847656 105.542969 11.664062 106.234375 C 11.246094 109.261719 10.867188 112.296875 10.667969 115.347656 C 10.652344 115.679688 10.546875 115.996094 10.359375 116.269531 C 7.335938 117.164062 4.859375 119.117188 2.117188 120.554688 C 1.484375 120.886719 0.894531 121.609375 0.046875 120.996094 L 0.046875 120.65625 C 0.363281 119.429688 -0.0546875 118.152344 0.285156 116.929688 C 0.246094 114.410156 0.476562 111.898438 0.976562 109.429688 Z M 0.976562 109.429688 "/>
<path style=" stroke:none;fill-rule:nonzero;fill:rgb(21.960784%,56.470591%,50.588238%);fill-opacity:1;" d="M 116.558594 249.601562 L 122.613281 246.09375 C 125.445312 244.453125 128.285156 242.828125 131.097656 241.148438 C 131.527344 240.890625 132.132812 240.695312 132.195312 240.027344 C 132.976562 239.261719 134.035156 239.359375 134.972656 239.277344 C 137.859375 239.015625 140.71875 238.605469 143.574219 238.148438 C 144.195312 238.050781 144.878906 237.796875 145.414062 238.40625 C 144.835938 239.820312 143.421875 240.203125 142.273438 240.871094 C 137.753906 243.515625 133.191406 246.089844 128.667969 248.722656 C 128.234375 248.976562 127.632812 249.175781 127.566406 249.839844 C 123.898438 250.113281 120.210938 250.035156 116.558594 249.601562 Z M 116.558594 249.601562 "/>
<path style=" stroke:none;fill-rule:nonzero;fill:rgb(20.392157%,45.09804%,41.568628%);fill-opacity:1;" d="M 247.914062 102.734375 C 248.648438 105.875 249.085938 109.078125 249.226562 112.304688 C 249.535156 114.777344 249.527344 114.765625 247.488281 115.917969 C 245.679688 116.9375 243.902344 118.019531 242.089844 119.042969 C 241.183594 119.46875 240.625 120.40625 240.683594 121.40625 C 240.679688 122.074219 241.039062 122.984375 240.011719 123.347656 C 239.652344 123.082031 239.457031 122.644531 239.492188 122.199219 C 239.5625 117.613281 238.972656 113.070312 238.640625 108.515625 C 238.769531 107.960938 239.253906 107.796875 239.6875 107.558594 C 242.46875 106.019531 245.222656 104.429688 247.914062 102.734375 Z M 247.914062 102.734375 "/>
<path style=" stroke:none;fill-rule:nonzero;fill:rgb(17.647059%,28.627452%,28.627452%);fill-opacity:1;" d="M 187.054688 27.804688 C 189.277344 26.027344 191.925781 24.941406 194.269531 23.363281 C 194.855469 22.972656 195.421875 22.554688 195.996094 22.152344 C 199.054688 24.078125 201.9375 26.265625 204.617188 28.695312 C 204.761719 29.925781 203.6875 30.195312 202.964844 30.625 C 200.769531 31.933594 198.527344 33.160156 196.359375 34.511719 C 196.257812 34.546875 196.144531 34.546875 196.039062 34.511719 C 192.914062 32.644531 190.082031 30.359375 187.125 28.253906 C 186.996094 28.164062 187.003906 27.96875 187.054688 27.804688 Z M 187.054688 27.804688 "/>
<path style=" stroke:none;fill-rule:nonzero;fill:rgb(18.039216%,31.37255%,30.980393%);fill-opacity:1;" d="M 211.183594 34.496094 C 213.898438 36.941406 216.433594 39.582031 218.761719 42.398438 C 218.800781 43.515625 217.824219 43.757812 217.148438 44.210938 C 215.125 45.5625 212.832031 46.480469 210.921875 48.019531 C 210.34375 48.160156 209.984375 47.78125 209.636719 47.441406 C 207.519531 45.355469 205.417969 43.257812 203.335938 41.140625 C 202.992188 40.855469 202.78125 40.441406 202.75 39.996094 C 203.039062 39.113281 203.871094 38.855469 204.5625 38.441406 C 206.761719 37.117188 209.085938 35.996094 211.183594 34.496094 Z M 211.183594 34.496094 "/>
<path style=" stroke:none;fill-rule:nonzero;fill:rgb(18.039216%,31.37255%,30.980393%);fill-opacity:1;" d="M 6.636719 165.28125 C 5.34375 161.960938 4.347656 158.53125 3.660156 155.035156 C 3.960938 154.226562 4.753906 153.992188 5.398438 153.617188 C 7.242188 152.542969 9.09375 151.488281 10.941406 150.425781 C 11.570312 150.070312 12.222656 149.6875 12.828125 150.480469 C 13.828125 153.789062 15.015625 157.046875 15.402344 160.515625 C 12.851562 162.371094 10.128906 163.976562 7.269531 165.316406 C 7.066406 165.402344 6.832031 165.390625 6.636719 165.28125 Z M 6.636719 165.28125 "/>
<path style=" stroke:none;fill-rule:nonzero;fill:rgb(20%,43.137255%,40.000001%);fill-opacity:1;" d="M 247.914062 102.730469 C 247.867188 102.890625 247.875 103.128906 247.773438 103.195312 C 244.941406 105.015625 242.195312 106.980469 238.984375 108.109375 C 238.574219 107.820312 238.316406 107.359375 238.285156 106.855469 C 237.914062 104.25 237.261719 101.695312 236.859375 99.09375 C 236.761719 98.089844 237.320312 97.136719 238.242188 96.726562 C 240.707031 95.328125 243.152344 93.882812 245.609375 92.46875 C 246.679688 95.8125 247.453125 99.25 247.914062 102.730469 Z M 247.914062 102.730469 "/>
<path style=" stroke:none;fill-rule:nonzero;fill:rgb(19.607843%,41.176471%,38.431373%);fill-opacity:1;" d="M 245.609375 92.46875 C 245.167969 93.804688 243.761719 93.894531 242.8125 94.554688 C 241.308594 95.554688 239.738281 96.457031 238.117188 97.257812 C 237.496094 97.53125 237.152344 98.199219 237.289062 98.859375 C 237.15625 98.890625 237.011719 98.859375 236.898438 98.78125 C 236.785156 98.703125 236.707031 98.582031 236.683594 98.445312 C 235.863281 95.097656 234.667969 91.851562 233.988281 88.46875 C 234.015625 88.019531 234.25 87.609375 234.617188 87.355469 C 237.242188 85.792969 239.726562 83.988281 242.617188 82.910156 C 243.914062 85.996094 244.917969 89.195312 245.609375 92.46875 Z M 245.609375 92.46875 "/>
<path style=" stroke:none;fill-rule:nonzero;fill:rgb(20%,43.137255%,40.000001%);fill-opacity:1;" d="M 52.601562 214.832031 C 49.910156 216.445312 47.222656 218.0625 44.519531 219.652344 C 44.214844 219.765625 43.898438 219.828125 43.574219 219.835938 C 41.039062 217.773438 38.628906 215.558594 36.355469 213.207031 C 36.382812 213.042969 36.414062 212.84375 36.542969 212.765625 C 39.335938 211.007812 42.027344 209.054688 45.199219 207.980469 C 47.214844 209.023438 48.582031 210.84375 50.296875 212.253906 C 51.179688 212.980469 52.46875 213.421875 52.601562 214.832031 Z M 52.601562 214.832031 "/>
<path style=" stroke:none;fill-rule:nonzero;fill:rgb(20.392157%,47.058824%,42.745098%);fill-opacity:1;" d="M 53.496094 227.515625 C 54.757812 226.078125 56.609375 225.53125 58.113281 224.460938 C 59.4375 223.523438 61.183594 223.210938 62.144531 221.738281 C 64.703125 222.453125 66.804688 224.058594 69.078125 225.316406 C 69.925781 225.78125 71.136719 225.882812 71.449219 227.101562 C 69.203125 229.035156 66.488281 230.226562 63.960938 231.714844 C 63.253906 232.132812 62.679688 232.960938 61.671875 232.765625 C 58.804688 231.25 56.070312 229.492188 53.496094 227.515625 Z M 53.496094 227.515625 "/>
<path style=" stroke:none;fill-rule:nonzero;fill:rgb(16.470589%,22.352941%,23.921569%);fill-opacity:1;" d="M 14.535156 91.585938 C 13.949219 90.984375 13.507812 91.605469 13.109375 91.828125 C 10.296875 93.390625 7.527344 95.015625 4.710938 96.570312 C 4.300781 96.796875 3.671875 97.808594 3.273438 96.496094 C 3.765625 93.578125 4.542969 90.710938 5.59375 87.945312 C 8.613281 86.761719 11.242188 84.859375 14.058594 83.304688 C 14.921875 82.828125 15.804688 82.382812 16.675781 81.925781 C 17.078125 81.714844 17.484375 81.515625 17.835938 82.007812 C 18.078125 82.320312 18.105469 82.746094 17.910156 83.089844 C 17.019531 85.628906 16.183594 88.179688 15.335938 90.734375 C 15.210938 91.117188 15.160156 91.640625 14.535156 91.585938 Z M 14.535156 91.585938 "/>
<path style=" stroke:none;fill-rule:nonzero;fill:rgb(16.470589%,22.352941%,23.921569%);fill-opacity:1;" d="M 161.285156 5.375 C 161.710938 6.210938 160.992188 6.410156 160.511719 6.691406 C 157.894531 8.234375 155.269531 9.769531 152.632812 11.289062 C 152.019531 11.640625 151.34375 11.890625 151.03125 12.605469 C 150.652344 12.9375 150.125 13.042969 149.648438 12.878906 C 147.289062 12.410156 144.941406 11.886719 142.550781 11.574219 C 142.109375 11.53125 141.707031 11.296875 141.449219 10.929688 C 140.914062 10.117188 141.449219 9.8125 142.082031 9.457031 C 145.0625 7.773438 148.03125 6.066406 150.984375 4.335938 C 151.519531 4.023438 152.210938 3.808594 152.351562 3.054688 C 154.988281 3.277344 157.394531 4.371094 159.886719 5.109375 C 160.359375 5.167969 160.824219 5.253906 161.285156 5.375 Z M 161.285156 5.375 "/>
<path style=" stroke:none;fill-rule:nonzero;fill:rgb(19.215687%,39.607844%,37.254903%);fill-opacity:1;" d="M 242.621094 82.914062 C 240.460938 84.386719 238.222656 85.742188 235.917969 86.96875 C 235.3125 87.339844 234.621094 87.582031 234.3125 88.300781 C 233.804688 88.355469 233.648438 87.960938 233.523438 87.617188 C 232.585938 84.992188 231.546875 82.410156 230.570312 79.804688 C 230.449219 79.496094 230.417969 79.160156 230.484375 78.835938 C 231.308594 77.582031 232.714844 77.152344 233.925781 76.460938 C 235.503906 75.386719 237.183594 74.480469 238.941406 73.753906 C 240.445312 76.6875 241.675781 79.753906 242.621094 82.914062 Z M 242.621094 82.914062 "/>
<path style=" stroke:none;fill-rule:nonzero;fill:rgb(19.607843%,41.176471%,38.431373%);fill-opacity:1;" d="M 45.253906 208.257812 C 42.105469 209.582031 39.328125 211.566406 36.359375 213.203125 C 34.011719 210.910156 31.792969 208.488281 29.71875 205.945312 C 30.726562 204.621094 32.316406 204.171875 33.664062 203.367188 C 35.125 202.386719 36.660156 201.53125 38.257812 200.796875 C 39.488281 201.28125 40.09375 202.457031 41.007812 203.292969 C 42.222656 204.394531 43.359375 205.578125 44.492188 206.765625 C 44.878906 207.171875 45.496094 207.507812 45.253906 208.257812 Z M 45.253906 208.257812 "/>
<path style=" stroke:none;fill-rule:nonzero;fill:rgb(21.176471%,50.980395%,45.882353%);fill-opacity:1;" d="M 249.136719 138.855469 C 248.855469 142.527344 248.296875 146.167969 247.476562 149.753906 C 244.417969 151.125 241.589844 152.917969 238.691406 154.578125 C 237.933594 155.011719 237.140625 155.765625 236.152344 154.976562 C 235.789062 154.085938 236.226562 153.265625 236.40625 152.4375 C 236.871094 150.261719 237.300781 148.074219 237.96875 145.945312 C 238.25 145.40625 238.703125 144.96875 239.257812 144.710938 C 241.855469 143.378906 244.265625 141.703125 246.882812 140.417969 C 247.734375 140 248.234375 139.148438 249.136719 138.855469 Z M 249.136719 138.855469 "/>
<path style=" stroke:none;fill-rule:nonzero;fill:rgb(19.215687%,39.607844%,37.254903%);fill-opacity:1;" d="M 38.300781 200.988281 C 35.53125 202.792969 32.664062 204.449219 29.714844 205.949219 C 27.546875 203.566406 25.554688 201.027344 23.765625 198.347656 C 23.996094 197.648438 24.632812 197.371094 25.195312 197.058594 C 27.007812 196.03125 28.820312 195.007812 30.617188 193.941406 C 31.082031 193.546875 31.703125 193.382812 32.304688 193.492188 C 34.324219 194.964844 35.523438 197.167969 37.140625 198.996094 C 37.632812 199.554688 38.539062 199.96875 38.300781 200.988281 Z M 38.300781 200.988281 "/>
<path style=" stroke:none;fill-rule:nonzero;fill:rgb(20.392157%,47.058824%,42.745098%);fill-opacity:1;" d="M 240.261719 123.332031 C 239.648438 120.410156 240.933594 118.679688 243.617188 117.628906 C 244.867188 117.140625 245.910156 116.121094 247.160156 115.621094 C 248.753906 114.984375 249.511719 114.019531 249.230469 112.300781 C 249.601562 114.378906 249.800781 116.484375 249.828125 118.59375 C 249.917969 120.382812 249.871094 122.175781 249.882812 123.964844 C 249.5 124.503906 248.976562 124.929688 248.371094 125.195312 C 246.082031 126.402344 243.90625 127.816406 241.621094 129.035156 C 241.011719 129.410156 240.628906 130.070312 240.609375 130.792969 C 240.511719 131.265625 240.414062 132.0625 239.648438 131.230469 C 239.21875 128.585938 239.429688 125.878906 240.261719 123.332031 Z M 240.261719 123.332031 "/>
<path style=" stroke:none;fill-rule:nonzero;fill:rgb(21.568628%,53.333336%,47.843137%);fill-opacity:1;" d="M 243.503906 164.625 C 240.835938 165.515625 238.644531 167.292969 236.175781 168.546875 C 234.34375 169.476562 232.796875 171.015625 230.613281 171.210938 C 230.355469 170.84375 230.335938 170.363281 230.5625 169.972656 C 231.578125 167.628906 232.5 165.246094 233.359375 162.84375 C 233.464844 162.59375 233.632812 162.371094 233.847656 162.199219 C 237.148438 160.683594 240.195312 158.722656 243.351562 156.925781 C 244.113281 156.492188 244.855469 155.699219 245.890625 156.363281 C 245.339844 159.179688 244.539062 161.945312 243.503906 164.625 Z M 243.503906 164.625 "/>
<path style=" stroke:none;fill-rule:nonzero;fill:rgb(17.254902%,26.274511%,27.058825%);fill-opacity:1;" d="M 0.046875 120.996094 C 1.949219 120.574219 3.359375 119.199219 5.058594 118.375 C 6.230469 117.808594 7.3125 117.058594 8.464844 116.441406 C 8.902344 116.207031 9.402344 115.738281 9.910156 116.375 C 10.484375 117.203125 10.660156 118.242188 10.382812 119.207031 C 10 122.226562 10.53125 125.226562 10.417969 128.230469 C 10.460938 128.996094 10.398438 129.765625 10.230469 130.511719 C 9.617188 131.390625 9.371094 130.789062 9.253906 130.21875 C 9.105469 129.128906 9.070312 128.023438 9.148438 126.925781 C 9.148438 125.863281 8.78125 125.640625 7.863281 126.195312 C 5.839844 127.421875 3.824219 128.671875 1.6875 129.691406 C 1.082031 129.976562 0.320312 130.464844 0.0507812 129.273438 Z M 0.046875 120.996094 "/>
<path style=" stroke:none;fill-rule:nonzero;fill:rgb(21.176471%,50.980395%,45.882353%);fill-opacity:1;" d="M 84.601562 243.25 C 81.648438 242.425781 78.773438 241.328125 76.019531 239.976562 C 76.007812 239.257812 76.53125 238.914062 77.039062 238.609375 C 79.882812 236.90625 82.847656 235.398438 85.59375 233.53125 C 85.832031 233.398438 86.101562 233.332031 86.375 233.335938 C 89.300781 233.960938 92.152344 234.878906 94.894531 236.070312 C 95.050781 236.988281 94.347656 237.324219 93.75 237.679688 C 91.671875 238.917969 89.597656 240.167969 87.480469 241.339844 C 86.476562 241.90625 85.515625 242.546875 84.601562 243.25 Z M 84.601562 243.25 "/>
<path style=" stroke:none;fill-rule:nonzero;fill:rgb(17.647059%,29.803923%,29.411766%);fill-opacity:1;" d="M 12.527344 150.417969 C 10.699219 150.515625 9.492188 151.917969 7.945312 152.621094 C 6.457031 153.296875 5.082031 154.222656 3.660156 155.035156 C 2.746094 152.019531 2.089844 148.925781 1.707031 145.796875 C 4.246094 144.527344 6.664062 143.023438 9.152344 141.65625 C 9.738281 141.332031 10.378906 140.554688 11.15625 141.421875 C 11.609375 143.792969 12.171875 146.144531 12.605469 148.519531 C 12.71875 149.140625 13.015625 149.804688 12.527344 150.417969 Z M 12.527344 150.417969 "/>
<path style=" stroke:none;fill-rule:nonzero;fill:rgb(17.254902%,27.450982%,27.843139%);fill-opacity:1;" d="M 0.0507812 129.269531 C 0.464844 129.96875 0.953125 129.636719 1.429688 129.367188 C 3.664062 128.089844 5.910156 126.828125 8.125 125.519531 C 9.238281 124.859375 9.589844 125.054688 9.609375 126.398438 C 9.632812 127.902344 9.214844 129.453125 9.894531 130.921875 C 10.640625 131.855469 10.390625 132.894531 10.214844 133.925781 C 9.074219 135.355469 7.257812 135.753906 5.839844 136.765625 C 4.78125 137.46875 3.683594 138.101562 2.546875 138.660156 C 1.960938 138.972656 1.253906 139.511719 0.71875 138.527344 L 0.621094 137.292969 C 0.296875 136.515625 0.675781 135.671875 0.375 134.894531 C 0.0742188 133.035156 -0.0351562 131.148438 0.0507812 129.269531 Z M 0.0507812 129.269531 "/>
<path style=" stroke:none;fill-rule:nonzero;fill:rgb(17.647059%,29.803923%,29.411766%);fill-opacity:1;" d="M 211.179688 34.496094 C 210.496094 36.238281 208.597656 36.332031 207.332031 37.289062 C 205.957031 38.335938 204.226562 38.851562 202.917969 40.035156 C 202.183594 40.21875 201.859375 39.597656 201.40625 39.253906 C 199.929688 38.125 198.585938 36.835938 197.136719 35.667969 C 196.746094 35.351562 196.132812 35.125 196.308594 34.410156 C 197.820312 32.640625 200.074219 32.023438 201.929688 30.785156 C 202.878906 30.152344 204.019531 29.785156 204.613281 28.699219 C 206.273438 29.84375 207.773438 31.199219 209.074219 32.738281 C 209.644531 33.464844 210.363281 34.0625 211.179688 34.496094 Z M 211.179688 34.496094 "/>
<path style=" stroke:none;fill-rule:nonzero;fill:rgb(21.960784%,55.686277%,49.411765%);fill-opacity:1;" d="M 224.726562 182.800781 C 228.496094 181.160156 231.882812 178.824219 235.484375 176.878906 C 236.8125 176.164062 237.945312 175.023438 239.558594 174.875 C 238.589844 177.390625 237.433594 179.835938 236.101562 182.183594 C 233.605469 182.652344 231.695312 184.316406 229.539062 185.46875 C 226.734375 186.964844 224.003906 188.601562 221.238281 190.164062 C 220.792969 190.496094 220.261719 190.6875 219.707031 190.714844 C 219.4375 190.246094 219.6875 189.855469 219.921875 189.492188 C 221.277344 187.421875 222.65625 185.371094 223.949219 183.257812 C 224.113281 182.984375 224.316406 182.691406 224.726562 182.800781 Z M 224.726562 182.800781 "/>
<path style=" stroke:none;fill-rule:nonzero;fill:rgb(18.431373%,33.333334%,32.156864%);fill-opacity:1;" d="M 210.847656 47.980469 C 211.464844 46.363281 213.207031 46.261719 214.382812 45.398438 C 215.804688 44.351562 217.589844 43.828125 218.761719 42.398438 C 220.71875 44.414062 222.503906 46.589844 224.09375 48.902344 C 224.484375 49.554688 224.066406 49.957031 223.59375 50.242188 C 221.242188 51.8125 218.773438 53.195312 216.207031 54.378906 C 215.820312 54.414062 215.4375 54.246094 215.195312 53.941406 C 213.832031 52.308594 212.453125 50.695312 211.125 49.035156 C 210.84375 48.765625 210.734375 48.355469 210.847656 47.980469 Z M 210.847656 47.980469 "/>
<path style=" stroke:none;fill-rule:nonzero;fill:rgb(18.431373%,33.333334%,32.156864%);fill-opacity:1;" d="M 6.636719 165.28125 C 8.941406 163.960938 11.238281 162.628906 13.554688 161.332031 C 14.085938 161.074219 14.636719 160.847656 15.199219 160.660156 C 15.304688 160.691406 15.449219 160.710938 15.492188 160.796875 C 16.886719 163.199219 17.839844 165.835938 18.304688 168.574219 C 15.917969 170.1875 13.390625 171.558594 10.882812 172.96875 C 10.457031 173.25 9.902344 173.226562 9.5 172.914062 C 8.328125 170.457031 7.371094 167.902344 6.636719 165.28125 Z M 6.636719 165.28125 "/>
<path style=" stroke:none;fill-rule:nonzero;fill:rgb(21.176471%,49.803922%,45.09804%);fill-opacity:1;" d="M 86.304688 233.679688 C 82.949219 235.898438 79.175781 237.441406 76.019531 239.976562 C 73.347656 239.03125 70.777344 237.824219 68.34375 236.371094 C 69.765625 234.796875 71.773438 234.105469 73.507812 233.003906 C 75.019531 232.042969 76.585938 231.160156 78.097656 230.191406 C 80.886719 230.894531 83.589844 231.917969 86.144531 233.242188 C 86.289062 233.308594 86.304688 233.511719 86.304688 233.679688 Z M 86.304688 233.679688 "/>
<path style=" stroke:none;fill-rule:nonzero;fill:rgb(21.568628%,54.11765%,48.235294%);fill-opacity:1;" d="M 117.984375 240.03125 C 117.839844 241.210938 116.6875 241.300781 115.964844 241.738281 C 112.253906 243.984375 108.472656 246.101562 104.714844 248.265625 C 102.375 248.085938 100.058594 247.636719 97.816406 246.933594 C 97.613281 246.320312 98.042969 245.972656 98.441406 245.726562 C 102.261719 243.363281 106.125 241.066406 110.078125 238.917969 C 112.238281 238.960938 114.390625 239.132812 116.53125 239.425781 C 117.082031 239.410156 117.609375 239.632812 117.984375 240.03125 Z M 117.984375 240.03125 "/>
<path style=" stroke:none;fill-rule:nonzero;fill:rgb(21.176471%,49.803922%,45.09804%);fill-opacity:1;" d="M 249.132812 138.859375 C 248.292969 140.835938 246.164062 141.050781 244.640625 142.074219 C 242.621094 143.433594 240.441406 144.5625 238.332031 145.785156 C 238.105469 145.621094 237.984375 145.347656 238.015625 145.070312 C 238.269531 142.472656 238.703125 139.898438 239.316406 137.363281 C 241.5625 135.8125 243.972656 134.53125 246.355469 133.210938 C 247.742188 132.542969 248.925781 131.527344 249.796875 130.261719 C 249.820312 133.140625 249.601562 136.015625 249.132812 138.859375 Z M 249.132812 138.859375 "/>
<path style=" stroke:none;fill-rule:nonzero;fill:rgb(20.784314%,48.235294%,43.921569%);fill-opacity:1;" d="M 249.796875 130.265625 C 249.65625 131.480469 248.847656 132.515625 247.699219 132.945312 C 245.375 134.164062 243.144531 135.5625 240.878906 136.886719 C 240.5 137.113281 240.058594 137.222656 239.617188 137.191406 C 238.671875 135.25 239.136719 133.398438 239.996094 131.578125 C 239.917969 129.472656 241.34375 128.585938 242.960938 127.753906 C 245.304688 126.550781 247.578125 125.234375 249.882812 123.96875 C 250.007812 126.066406 249.976562 128.171875 249.796875 130.265625 Z M 249.796875 130.265625 "/>
<path style=" stroke:none;fill-rule:nonzero;fill:rgb(20.784314%,48.235294%,43.921569%);fill-opacity:1;" d="M 78.003906 230.339844 C 77.15625 231.757812 75.589844 232.164062 74.292969 232.941406 C 72.328125 234.121094 70.324219 235.234375 68.335938 236.375 C 65.996094 235.394531 63.765625 234.1875 61.667969 232.765625 C 64.800781 230.714844 68.046875 228.851562 71.355469 227.101562 C 71.707031 226.929688 72.128906 226.964844 72.441406 227.199219 C 73.90625 227.933594 75.410156 228.59375 76.910156 229.261719 C 77.390625 229.46875 77.976562 229.644531 78.003906 230.339844 Z M 78.003906 230.339844 "/>
<path style=" stroke:none;fill-rule:nonzero;fill:rgb(19.215687%,38.039216%,36.078432%);fill-opacity:1;" d="M 32.34375 193.710938 C 30.464844 194.0625 29.121094 195.46875 27.453125 196.230469 C 26.171875 196.816406 24.992188 197.632812 23.765625 198.34375 C 22.171875 196.367188 20.734375 194.265625 19.460938 192.066406 C 19.496094 191.789062 19.652344 191.539062 19.882812 191.382812 C 22.425781 189.765625 25.042969 188.273438 27.734375 186.914062 C 28.167969 187.007812 28.535156 187.296875 28.722656 187.695312 C 29.773438 189.28125 30.917969 190.800781 31.96875 192.382812 C 32.226562 192.769531 32.609375 193.160156 32.34375 193.710938 Z M 32.34375 193.710938 "/>
<path style=" stroke:none;fill-rule:nonzero;fill:rgb(18.431373%,35.294119%,33.725491%);fill-opacity:1;" d="M 15.554688 185.449219 C 14.109375 183.140625 12.878906 180.710938 11.871094 178.179688 C 14.378906 177.5625 16.363281 175.910156 18.601562 174.761719 C 19.316406 174.398438 19.960938 173.757812 20.882812 174.121094 C 22.089844 175.984375 23.039062 177.992188 24.105469 179.933594 C 24.355469 180.300781 24.398438 180.769531 24.226562 181.179688 C 21.90625 182.800781 19.363281 184.046875 16.929688 185.476562 C 16.515625 185.78125 15.953125 185.769531 15.554688 185.449219 Z M 15.554688 185.449219 "/>
<path style=" stroke:none;fill-rule:nonzero;fill:rgb(19.215687%,38.039216%,36.078432%);fill-opacity:1;" d="M 238.941406 73.753906 C 236.394531 75.769531 233.4375 77.097656 230.640625 78.703125 C 230.472656 78.71875 230.261719 78.714844 230.195312 78.578125 C 229.097656 76.355469 227.632812 74.296875 227.214844 71.777344 C 228.972656 70.1875 231.195312 69.335938 233.171875 68.09375 C 233.886719 67.484375 234.769531 67.109375 235.703125 67.019531 C 236.988281 69.160156 238.074219 71.414062 238.941406 73.753906 Z M 238.941406 73.753906 "/>
<path style=" stroke:none;fill-rule:nonzero;fill:rgb(18.431373%,35.294119%,33.725491%);fill-opacity:1;" d="M 228.207031 54.515625 C 229.636719 56.402344 230.910156 58.402344 232.015625 60.5 C 232.195312 61.328125 231.488281 61.507812 231.007812 61.792969 C 228.6875 63.160156 226.375 64.535156 224.0625 65.921875 C 224.007812 65.921875 223.929688 65.9375 223.902344 65.910156 C 221.933594 64.050781 220.464844 61.726562 219.625 59.152344 C 219.976562 58.589844 220.496094 58.152344 221.105469 57.898438 C 222.871094 56.898438 224.640625 55.902344 226.375 54.851562 C 226.9375 54.511719 227.503906 54.128906 228.207031 54.515625 Z M 228.207031 54.515625 "/>
<path style=" stroke:none;fill-rule:nonzero;fill:rgb(21.176471%,52.156866%,47.058824%);fill-opacity:1;" d="M 245.886719 156.363281 C 243.390625 156.816406 241.625 158.691406 239.410156 159.691406 C 237.589844 160.515625 236.109375 162.03125 234.027344 162.3125 C 233.785156 162.082031 233.707031 161.726562 233.832031 161.414062 C 234.394531 159.496094 235.011719 157.597656 235.628906 155.699219 C 235.730469 155.382812 235.980469 155.136719 236.296875 155.039062 C 238.792969 154.601562 240.539062 152.695312 242.765625 151.730469 C 244.328125 151.046875 245.539062 149.539062 247.472656 149.75 C 247.140625 152 246.609375 154.210938 245.886719 156.363281 Z M 245.886719 156.363281 "/>
<path style=" stroke:none;fill-rule:nonzero;fill:rgb(18.82353%,36.862746%,34.901962%);fill-opacity:1;" d="M 15.554688 185.449219 C 17.9375 184.875 19.773438 183.226562 21.910156 182.167969 C 22.589844 181.71875 23.335938 181.375 24.121094 181.152344 C 25.578125 182.175781 27.800781 185.8125 27.761719 187.097656 L 19.460938 192.070312 C 17.988281 189.96875 16.679688 187.753906 15.554688 185.449219 Z M 15.554688 185.449219 "/>
<path style=" stroke:none;fill-rule:nonzero;fill:rgb(18.82353%,36.862746%,34.901962%);fill-opacity:1;" d="M 224.054688 65.847656 C 225.371094 64.210938 227.390625 63.617188 229.054688 62.496094 C 230.039062 61.828125 231.230469 61.46875 232.015625 60.5 C 233.4375 62.558594 234.667969 64.742188 235.699219 67.023438 C 232.957031 68.683594 230.238281 70.382812 227.335938 71.765625 C 227.066406 71.84375 226.773438 71.738281 226.617188 71.5 C 225.621094 69.871094 224.71875 68.1875 223.917969 66.453125 C 223.839844 66.242188 223.894531 66.003906 224.054688 65.847656 Z M 224.054688 65.847656 "/>
<path style=" stroke:none;fill-rule:nonzero;fill:rgb(21.568628%,52.941179%,47.843137%);fill-opacity:1;" d="M 109.746094 239.3125 C 106.703125 241.542969 103.292969 243.160156 100.097656 245.132812 C 99.1875 245.511719 98.402344 246.136719 97.820312 246.929688 C 95.5625 246.628906 93.34375 246.078125 91.207031 245.289062 C 90.761719 244.328125 91.570312 244.050781 92.128906 243.699219 C 94.113281 242.453125 96.164062 241.3125 98.21875 240.183594 C 99.5625 239.445312 100.757812 238.5 102.058594 237.703125 C 104.53125 237.625 106.882812 238.417969 109.300781 238.71875 C 109.441406 238.738281 109.566406 238.808594 109.648438 238.921875 C 109.730469 239.035156 109.765625 239.175781 109.746094 239.3125 Z M 109.746094 239.3125 "/>
<path style=" stroke:none;fill-rule:nonzero;fill:rgb(21.176471%,52.156866%,46.666667%);fill-opacity:1;" d="M 101.792969 237.96875 C 100.628906 239.921875 98.398438 240.34375 96.6875 241.511719 C 95.210938 242.515625 93.601562 243.328125 92.035156 244.195312 C 91.574219 244.449219 91.214844 244.722656 91.203125 245.292969 C 88.941406 244.839844 86.726562 244.15625 84.601562 243.253906 C 85.0625 241.640625 86.691406 241.46875 87.816406 240.714844 C 90.113281 239.167969 92.722656 238.117188 94.875 236.335938 C 95.21875 236.046875 95.6875 235.96875 96.105469 236.128906 C 97.695312 236.496094 99.289062 236.859375 100.882812 237.21875 C 101.285156 237.308594 101.773438 237.375 101.792969 237.96875 Z M 101.792969 237.96875 "/>
<path style=" stroke:none;fill-rule:nonzero;fill:rgb(17.647059%,28.627452%,28.627452%);fill-opacity:1;" d="M 0.710938 138.523438 C 1.699219 139.109375 2.324219 138.261719 3.054688 137.902344 C 5.390625 136.765625 7.382812 134.992188 9.914062 134.21875 C 10.960938 136.371094 11.296875 138.804688 10.871094 141.160156 C 8.65625 142.429688 6.464844 143.742188 4.214844 144.945312 C 3.449219 145.355469 2.765625 146.175781 1.710938 145.796875 C 1.171875 143.402344 0.835938 140.96875 0.710938 138.523438 Z M 0.710938 138.523438 "/>
<path style=" stroke:none;fill-rule:nonzero;fill:rgb(18.431373%,34.117648%,32.941177%);fill-opacity:1;" d="M 228.207031 54.515625 C 225.210938 55.757812 222.578125 57.664062 219.746094 59.203125 C 217.898438 58.144531 216.582031 56.351562 216.132812 54.269531 C 218.414062 52.902344 220.695312 51.523438 222.984375 50.167969 C 223.507812 49.859375 224.097656 49.652344 224.097656 48.898438 C 225.625 50.652344 227 52.53125 228.207031 54.515625 Z M 228.207031 54.515625 "/>
<path style=" stroke:none;fill-rule:nonzero;fill:rgb(18.431373%,34.117648%,32.941177%);fill-opacity:1;" d="M 20.769531 174.210938 C 18.414062 175.285156 16.136719 176.523438 13.960938 177.921875 C 13.265625 178.3125 12.640625 178.6875 11.871094 178.175781 C 10.902344 176.507812 10.109375 174.742188 9.5 172.910156 C 11.746094 172.460938 13.425781 170.917969 15.371094 169.882812 C 16.234375 169.324219 17.171875 168.886719 18.152344 168.582031 C 19.632812 170.113281 20.554688 172.097656 20.769531 174.210938 Z M 20.769531 174.210938 "/>
<path style=" stroke:none;fill-rule:nonzero;fill:rgb(17.254902%,26.274511%,27.058825%);fill-opacity:1;" d="M 0.289062 116.929688 C 0.230469 118.175781 0.601562 119.445312 0.0507812 120.660156 C -0.0976562 119.410156 -0.015625 118.148438 0.289062 116.929688 Z M 0.289062 116.929688 "/>
<path style=" stroke:none;fill-rule:nonzero;fill:rgb(17.647059%,28.627452%,28.627452%);fill-opacity:1;" d="M 0.378906 134.886719 C 0.910156 135.640625 0.566406 136.484375 0.621094 137.285156 C 0.328125 136.523438 0.246094 135.695312 0.378906 134.886719 Z M 0.378906 134.886719 "/>
<path style=" stroke:none;fill-rule:nonzero;fill:rgb(22.352941%,58.431375%,51.764709%);fill-opacity:1;" d="M 135.183594 249.503906 C 135.832031 249.007812 136.570312 249.308594 137.269531 249.277344 C 136.617188 249.578125 135.886719 249.660156 135.183594 249.503906 Z M 135.183594 249.503906 "/>
<path style=" stroke:none;fill-rule:nonzero;fill:rgb(9.803922%,12.941177%,13.725491%);fill-opacity:1;" d="M 20.769531 174.214844 L 18.152344 168.59375 C 17.167969 165.949219 16.183594 163.304688 15.199219 160.660156 C 14.308594 157.246094 13.417969 153.832031 12.527344 150.417969 C 12.046875 147.320312 10.988281 144.328125 10.867188 141.164062 C 10.550781 138.847656 10.230469 136.535156 9.914062 134.21875 C 9.90625 133.117188 9.898438 132.019531 9.890625 130.917969 C 9.972656 126.070312 9.578125 121.222656 9.90625 116.378906 C 10.46875 114.65625 10.273438 112.839844 10.554688 111.082031 C 10.925781 108.777344 11.222656 106.457031 11.550781 104.148438 C 12.523438 99.957031 13.269531 95.710938 14.53125 91.589844 L 17.839844 82.007812 C 19.101562 79.773438 19.945312 77.34375 21.019531 75.023438 C 21.894531 73.144531 22.863281 71.304688 23.789062 69.449219 C 25.953125 65.988281 28.0625 62.496094 30.304688 59.089844 C 31.582031 57.007812 33.050781 55.046875 34.691406 53.242188 C 37.570312 49.851562 40.628906 46.636719 43.640625 43.378906 C 47.230469 39.488281 51.414062 36.316406 55.332031 32.832031 C 56.332031 32.066406 57.386719 31.378906 58.488281 30.78125 C 64.101562 26.816406 70.066406 23.382812 76.3125 20.523438 C 76.453125 20.460938 76.550781 20.304688 76.667969 20.195312 C 84.960938 16.375 93.691406 13.59375 102.660156 11.910156 C 104.273438 11.757812 105.863281 11.433594 107.40625 10.941406 C 109.75 10.980469 111.996094 10.121094 114.351562 10.273438 C 114.847656 9.898438 115.507812 10.351562 116.003906 9.949219 L 118.976562 9.941406 C 123.050781 9.6875 127.132812 9.6875 131.203125 9.941406 C 134.636719 10.058594 138.058594 10.390625 141.449219 10.929688 L 151.03125 12.601562 L 163.585938 16.242188 L 175.15625 21.175781 C 179.28125 23.097656 183.074219 25.613281 187.050781 27.804688 L 196.308594 34.40625 L 202.914062 40.035156 C 205.449219 42.792969 208.089844 45.441406 210.84375 47.980469 C 212.472656 50.183594 214.234375 52.285156 216.125 54.269531 C 217.148438 56.039062 218.359375 57.691406 219.738281 59.203125 C 221.015625 61.515625 222.457031 63.734375 224.046875 65.84375 C 224.960938 67.914062 226.058594 69.894531 227.332031 71.761719 L 230.632812 78.703125 L 234.304688 88.296875 L 237.285156 98.859375 C 237.851562 101.945312 238.414062 105.027344 238.976562 108.109375 C 239.65625 113.015625 240.003906 117.957031 240.027344 122.910156 C 240.027344 123.050781 240.175781 123.191406 240.253906 123.332031 C 240.304688 126.085938 239.765625 128.816406 239.988281 131.574219 C 239.949219 133.453125 239.449219 135.300781 239.609375 137.191406 C 239.183594 140.054688 238.753906 142.921875 238.324219 145.785156 L 236.289062 155.039062 C 235.53125 157.460938 234.777344 159.886719 234.019531 162.3125 C 232.882812 165.277344 231.742188 168.242188 230.601562 171.210938 L 224.714844 182.796875 L 219.691406 190.707031 C 215.03125 197.0625 209.878906 203.042969 204.28125 208.589844 C 200.542969 211.910156 196.777344 215.191406 192.730469 218.136719 C 183.929688 224.5625 174.253906 229.695312 163.996094 233.382812 C 163.742188 233.480469 163.5 233.613281 163.25 233.726562 C 157.40625 235.65625 151.445312 237.21875 145.40625 238.402344 C 141.011719 239.074219 136.617188 239.683594 132.183594 240.027344 C 127.449219 239.921875 122.710938 240.523438 117.972656 240.027344 L 109.730469 239.304688 L 101.78125 237.960938 L 94.863281 236.328125 L 86.292969 233.671875 L 77.992188 230.332031 L 71.351562 227.089844 C 68.972656 225.734375 66.589844 224.382812 64.222656 223.019531 C 63.515625 222.613281 62.832031 222.160156 62.136719 221.730469 L 52.59375 214.824219 L 45.246094 208.25 L 38.292969 200.980469 L 32.335938 193.707031 L 27.753906 187.089844 C 26.648438 185.046875 25.433594 183.058594 24.113281 181.144531 C 23.347656 178.671875 21.558594 176.683594 20.769531 174.214844 Z M 20.769531 174.214844 "/>
<path style=" stroke:none;fill-rule:nonzero;fill:rgb(16.078432%,19.607843%,21.568628%);fill-opacity:1;" d="M 131.203125 9.945312 L 118.976562 9.945312 C 120.429688 9.253906 121.972656 9.75 123.46875 9.636719 C 124.609375 9.554688 125.761719 9.617188 126.910156 9.617188 C 128.332031 9.804688 129.816406 9.234375 131.203125 9.945312 Z M 131.203125 9.945312 "/>
<path style=" stroke:none;fill-rule:nonzero;fill:rgb(16.078432%,19.607843%,21.568628%);fill-opacity:1;" d="M 116.003906 9.949219 C 115.535156 10.488281 114.910156 10.203125 114.351562 10.269531 C 114.816406 9.730469 115.445312 10.027344 116.003906 9.949219 Z M 116.003906 9.949219 "/>
<path style=" stroke:none;fill-rule:nonzero;fill:rgb(12.156863%,78.431374%,65.490198%);fill-opacity:1;" d="M 95.84375 154.800781 C 93.792969 156.238281 91.089844 156.335938 88.941406 155.050781 C 87.34375 149.792969 86.148438 144.429688 84.703125 139.132812 C 81.027344 125.671875 77.492188 112.175781 73.878906 98.699219 C 73.628906 97.976562 73.558594 97.199219 73.683594 96.445312 C 73.722656 96.007812 74.046875 95.785156 74.351562 95.546875 C 77.78125 93.878906 81.597656 93.617188 85.191406 92.570312 C 85.925781 92.355469 86.671875 92.195312 87.425781 92.082031 C 88.898438 92.867188 89.722656 94.488281 89.484375 96.140625 C 90.636719 93.96875 90.851562 91.160156 93.847656 90.535156 C 94.769531 90.417969 95.683594 90.242188 96.582031 90.011719 C 96.851562 89.992188 97.121094 90.0625 97.347656 90.214844 C 97.769531 90.652344 98.039062 91.21875 98.109375 91.828125 C 101.234375 105.117188 104.390625 118.402344 107.582031 131.679688 C 107.707031 132.101562 107.78125 132.535156 107.800781 132.976562 C 107.644531 134.75 106.496094 136.085938 105.691406 137.558594 C 102.851562 142.75 100.050781 147.960938 97.121094 153.101562 C 96.773438 153.722656 96.34375 154.292969 95.84375 154.800781 Z M 95.84375 154.800781 "/>
<path style=" stroke:none;fill-rule:nonzero;fill:rgb(12.156863%,78.431374%,65.490198%);fill-opacity:1;" d="M 176.4375 153.421875 C 176.175781 153.984375 175.734375 154.441406 175.179688 154.722656 C 172.558594 155.945312 169.695312 156.308594 166.921875 156.964844 C 155.460938 159.667969 144.011719 162.414062 132.546875 165.097656 C 126.921875 166.414062 121.308594 167.789062 115.675781 169.066406 C 115.105469 169.273438 114.484375 169.308594 113.894531 169.160156 C 113.082031 168.570312 113.664062 167.980469 113.941406 167.4375 C 116.09375 163.230469 118.46875 159.144531 120.746094 155.003906 C 124.742188 147.734375 128.699219 140.441406 132.757812 133.207031 C 133.515625 131.859375 133.894531 130.199219 135.445312 129.390625 C 136.988281 129.777344 138.453125 130.433594 139.769531 131.328125 C 146.949219 135.246094 154.144531 139.140625 161.316406 143.070312 C 166.082031 145.675781 170.933594 148.125 175.574219 150.964844 C 175.976562 151.738281 176.269531 152.566406 176.4375 153.421875 Z M 176.4375 153.421875 "/>
<path style=" stroke:none;fill-rule:nonzero;fill:rgb(9.803922%,53.333336%,53.725493%);fill-opacity:1;" d="M 113.714844 168.945312 C 118.742188 168.066406 123.652344 166.699219 128.613281 165.539062 C 143.761719 162 158.894531 158.382812 174.035156 154.808594 C 174.414062 154.75 174.796875 154.71875 175.179688 154.722656 C 172.398438 156.96875 169.210938 158.601562 166.1875 160.464844 C 148.835938 171.15625 131.472656 181.820312 114.09375 192.460938 C 112.035156 193.722656 109.992188 195.011719 107.914062 196.25 C 105.195312 198.085938 101.523438 197.535156 99.460938 194.980469 C 99.09375 194.453125 99.460938 194.039062 99.6875 193.621094 C 104.011719 185.722656 108.328125 177.820312 112.71875 169.960938 C 112.953125 169.535156 113.152344 169.054688 113.714844 168.945312 Z M 113.714844 168.945312 "/>
<path style=" stroke:none;fill-rule:nonzero;fill:rgb(9.803922%,53.333336%,53.725493%);fill-opacity:1;" d="M 97.191406 90.265625 L 96.507812 90.273438 C 96.164062 90.492188 95.898438 90.453125 95.75 90.039062 C 94.847656 89.835938 97.019531 89.804688 95.765625 89.394531 C 93.9375 88.796875 91.90625 88.363281 91.078125 86.230469 C 90.921875 85.832031 90.667969 85.449219 90.917969 84.992188 C 95.148438 82.445312 99.398438 79.929688 103.613281 77.351562 C 116.308594 69.570312 128.996094 61.777344 141.675781 53.972656 C 144.96875 51.953125 148.058594 52.410156 150.703125 55.207031 C 149.476562 58.347656 147.597656 61.148438 146.007812 64.09375 C 143.234375 69.222656 140.390625 74.3125 137.585938 79.425781 C 137.265625 80.191406 136.742188 80.851562 136.070312 81.34375 C 131.011719 82.777344 125.894531 83.980469 120.726562 84.957031 C 119.203125 85.363281 117.683594 85.78125 116.136719 86.121094 C 113.484375 86.820312 110.832031 87.519531 108.136719 88.042969 C 105.183594 88.691406 102.234375 89.382812 99.300781 90.109375 C 98.628906 90.382812 97.890625 90.4375 97.191406 90.265625 Z M 97.191406 90.265625 "/>
<path style=" stroke:none;fill-rule:nonzero;fill:rgb(40.784314%,99.215686%,88.235295%);fill-opacity:1;" d="M 113.714844 168.945312 C 108.964844 177.625 104.210938 186.304688 99.457031 194.980469 C 97.847656 193.585938 97.167969 191.398438 97.710938 189.335938 C 98.957031 184.121094 100.214844 178.910156 101.484375 173.703125 C 101.726562 172.804688 102.128906 171.953125 102.664062 171.191406 C 119.058594 146.570312 135.445312 121.949219 151.832031 97.320312 C 152.292969 96.375 153.054688 95.605469 154 95.136719 C 154.347656 95.863281 153.847656 96.40625 153.5625 96.96875 C 152.046875 99.957031 150.34375 102.847656 148.75 105.792969 C 148.257812 106.648438 147.84375 107.546875 147.519531 108.480469 C 146.351562 110.207031 145.292969 112 144.339844 113.851562 C 142.894531 116.378906 141.496094 118.929688 140.160156 121.515625 C 138.890625 123.917969 137.460938 126.230469 136.242188 128.65625 C 136.101562 129.015625 135.847656 129.3125 135.511719 129.503906 C 133.976562 131.261719 133.105469 133.417969 131.992188 135.417969 C 125.878906 146.40625 119.847656 157.445312 113.796875 168.46875 C 113.746094 168.621094 113.71875 168.78125 113.714844 168.945312 Z M 113.714844 168.945312 "/>
<path style=" stroke:none;fill-rule:nonzero;fill:rgb(40.784314%,99.215686%,88.235295%);fill-opacity:1;" d="M 136.164062 81.007812 C 140.148438 73.792969 144.113281 66.566406 148.132812 59.375 C 148.925781 57.953125 149.46875 56.367188 150.691406 55.207031 C 152.191406 57.019531 152.667969 59.46875 151.953125 61.710938 C 150.71875 66.527344 149.570312 71.363281 148.375 76.191406 C 148.113281 77.144531 147.6875 78.042969 147.117188 78.847656 C 130.746094 103.4375 114.378906 128.03125 98.019531 152.628906 C 97.550781 153.570312 96.785156 154.332031 95.84375 154.800781 C 99.261719 148.535156 102.683594 142.269531 106.109375 136 C 106.667969 135.121094 107.128906 134.179688 107.476562 133.195312 C 108.332031 130.375 110.0625 127.988281 111.410156 125.417969 C 112.609375 123.128906 113.914062 120.890625 115.109375 118.597656 C 117.230469 115.160156 119.066406 111.566406 121.023438 108.035156 C 122.328125 105.585938 123.636719 103.136719 125 100.71875 C 128.042969 95.390625 130.941406 89.984375 133.910156 84.617188 C 134.511719 83.328125 135.269531 82.117188 136.164062 81.007812 Z M 136.164062 81.007812 "/>
<path style=" stroke:none;fill-rule:nonzero;fill:rgb(40.784314%,99.215686%,88.235295%);fill-opacity:1;" d="M 176.4375 153.421875 C 175.484375 152.925781 175.753906 151.917969 175.472656 151.136719 C 174.015625 148.640625 173.828125 145.746094 172.960938 143.0625 C 172.589844 141.53125 172.109375 140.027344 171.523438 138.5625 C 170.75 134.824219 169.488281 131.207031 168.753906 127.460938 C 168.132812 124.527344 167.328125 121.636719 166.34375 118.804688 C 164.40625 111.523438 162.480469 104.242188 160.566406 96.960938 C 160.378906 96.25 159.792969 95.398438 160.910156 94.863281 C 162.210938 95.476562 163.242188 96.550781 163.804688 97.878906 C 169.632812 109.640625 175.453125 121.40625 181.265625 133.175781 C 182.019531 134.464844 182.210938 136.011719 181.796875 137.449219 C 180.058594 142.789062 178.507812 148.191406 176.4375 153.421875 Z M 176.4375 153.421875 "/>
<path style=" stroke:none;fill-rule:nonzero;fill:rgb(40.784314%,99.215686%,88.235295%);fill-opacity:1;" d="M 73.679688 96.441406 C 75.621094 103.648438 77.5625 110.851562 79.503906 118.058594 C 82.59375 129.613281 85.664062 141.175781 88.714844 152.742188 C 88.90625 153.46875 89.574219 154.21875 88.941406 155.050781 C 87.753906 154.457031 86.804688 153.472656 86.25 152.269531 C 80.441406 140.546875 74.628906 128.828125 68.808594 117.113281 C 67.894531 115.335938 67.757812 113.261719 68.433594 111.382812 C 69.875 107.03125 71.28125 102.664062 72.730469 98.316406 C 72.859375 97.613281 73.1875 96.960938 73.679688 96.441406 Z M 73.679688 96.441406 "/>
<path style=" stroke:none;fill-rule:nonzero;fill:rgb(12.156863%,78.431374%,65.490198%);fill-opacity:1;" d="M 160.910156 94.863281 C 160.386719 95.351562 160.714844 95.863281 160.855469 96.382812 C 162.769531 103.578125 164.679688 110.773438 166.585938 117.96875 C 166.652344 118.226562 166.800781 118.488281 166.578125 118.742188 C 165.976562 118.84375 165.359375 118.679688 164.886719 118.292969 C 159.332031 115.332031 153.824219 112.277344 148.269531 109.316406 C 147.882812 109.109375 147.488281 108.894531 147.390625 108.40625 C 146.992188 107.273438 147.90625 106.578125 148.328125 105.75 C 150.152344 102.175781 152.359375 98.808594 154 95.140625 C 156.039062 93.667969 158.761719 93.558594 160.910156 94.863281 Z M 160.910156 94.863281 "/>
<path style=" stroke:none;fill-rule:nonzero;fill:rgb(99.215686%,99.607843%,99.607843%);fill-opacity:1;" d="M 90.910156 84.992188 C 91.488281 87.628906 93.722656 88.289062 95.832031 89.058594 C 96.820312 89.417969 96.636719 89.660156 95.855469 89.988281 C 95.300781 90.671875 94.4375 90.613281 93.714844 90.894531 C 92.144531 91.277344 91.46875 92.511719 90.902344 93.851562 C 90.542969 94.699219 90.199219 95.554688 89.800781 96.523438 C 88.953125 95.019531 88.710938 93.398438 87.683594 92.167969 C 86.144531 91.332031 84.339844 90.996094 83.035156 89.703125 C 82.839844 89.476562 82.902344 89.34375 83.1875 89.277344 C 86.734375 88.445312 88.949219 86.28125 89.632812 82.230469 Z M 90.910156 84.992188 "/>
<path style=" stroke:none;fill-rule:nonzero;fill:rgb(9.803922%,53.725493%,54.11765%);fill-opacity:1;" d="M 83.039062 89.703125 C 84.628906 90.441406 86.46875 90.714844 87.6875 92.167969 C 85.929688 93.242188 83.859375 93.25 81.949219 93.796875 C 79.457031 94.515625 76.886719 94.96875 74.351562 95.542969 C 76.65625 93.566406 79.4375 92.320312 81.921875 90.628906 C 82.324219 90.355469 82.824219 90.203125 83.039062 89.703125 Z M 83.039062 89.703125 "/>
<path style=" stroke:none;fill-rule:nonzero;fill:rgb(64.313728%,90.980393%,85.882354%);fill-opacity:1;" d="M 115.390625 118.648438 C 114.058594 121.902344 112.101562 124.824219 110.488281 127.933594 C 109.558594 129.726562 108.484375 131.441406 107.472656 133.191406 C 104.140625 119.195312 100.808594 105.203125 97.476562 91.210938 C 97.398438 90.890625 97.28125 90.578125 97.1875 90.265625 C 100.753906 89.152344 104.414062 88.414062 108.058594 87.628906 C 108.59375 88.113281 108.933594 88.773438 109.015625 89.488281 C 111.207031 98.5625 113.367188 107.640625 115.496094 116.726562 C 115.714844 117.359375 115.675781 118.046875 115.390625 118.648438 Z M 115.390625 118.648438 "/>
<path style=" stroke:none;fill-rule:nonzero;fill:rgb(16.470589%,63.137257%,59.215689%);fill-opacity:1;" d="M 93.710938 90.894531 C 94.351562 90.4375 95.085938 90.128906 95.859375 89.984375 L 96.507812 90.269531 C 95.65625 90.746094 94.683594 90.964844 93.710938 90.894531 Z M 93.710938 90.894531 "/>
<path style=" stroke:none;fill-rule:nonzero;fill:rgb(64.313728%,90.980393%,85.882354%);fill-opacity:1;" d="M 171.867188 138.546875 C 173.054688 140.195312 173.105469 142.214844 173.640625 144.070312 C 174.308594 146.410156 174.867188 148.78125 175.472656 151.136719 C 170.351562 148.378906 165.230469 145.621094 160.113281 142.863281 C 151.910156 138.417969 143.710938 133.964844 135.511719 129.503906 C 136.585938 126.566406 138.480469 124.058594 139.824219 121.261719 C 140.542969 120.929688 141.105469 121.359375 141.667969 121.675781 C 151.25 126.980469 160.894531 132.164062 170.519531 137.382812 C 171.074219 137.625 171.542969 138.03125 171.867188 138.546875 Z M 171.867188 138.546875 "/>
<path style=" stroke:none;fill-rule:nonzero;fill:rgb(97.647059%,98.431373%,98.431373%);fill-opacity:1;" d="M 132.09375 169.070312 C 133.683594 168.613281 134.851562 167.257812 135.0625 165.617188 C 135.421875 167.402344 136.859375 168.769531 138.660156 169.035156 C 136.847656 169.265625 135.410156 170.667969 135.125 172.46875 C 134.589844 170.519531 133.683594 169.480469 132.09375 169.070312 Z M 132.09375 169.070312 "/>
<path style=" stroke:none;fill-rule:nonzero;fill:rgb(12.156863%,78.431374%,65.490198%);fill-opacity:1;" d="M 115.390625 118.652344 C 114.277344 113.851562 113.179688 109.046875 112.042969 104.25 C 110.730469 98.707031 109.390625 93.171875 108.058594 87.632812 L 116.023438 85.6875 C 116.4375 86.128906 116.699219 86.691406 116.773438 87.292969 C 118.238281 93.472656 119.691406 99.652344 121.191406 105.820312 C 121.453125 106.542969 121.507812 107.324219 121.339844 108.078125 C 119.613281 111.738281 117.625 115.273438 115.390625 118.652344 Z M 115.390625 118.652344 "/>
<path style=" stroke:none;fill-rule:nonzero;fill:rgb(12.156863%,78.431374%,65.490198%);fill-opacity:1;" d="M 136.164062 81.007812 C 135.050781 83.507812 133.777344 85.929688 132.355469 88.261719 C 130.34375 92.03125 128.273438 95.769531 126.210938 99.511719 C 125.925781 99.972656 125.609375 100.414062 125.269531 100.839844 C 124.519531 100.382812 124.460938 99.570312 124.292969 98.84375 C 123.472656 95.277344 122.605469 91.726562 121.777344 88.160156 C 121.511719 86.933594 121.132812 85.734375 120.644531 84.578125 Z M 136.164062 81.007812 "/>
<path style=" stroke:none;fill-rule:nonzero;fill:rgb(64.313728%,90.980393%,85.882354%);fill-opacity:1;" d="M 120.644531 84.582031 C 121.464844 84.609375 121.515625 85.21875 121.660156 85.832031 C 122.851562 90.835938 124.066406 95.835938 125.273438 100.839844 L 121.339844 108.078125 C 119.425781 100.644531 117.625 93.191406 116.027344 85.683594 Z M 120.644531 84.582031 "/>
<path style=" stroke:none;fill-rule:nonzero;fill:rgb(12.156863%,78.431374%,65.490198%);fill-opacity:1;" d="M 171.867188 138.546875 C 161.777344 133.066406 151.691406 127.589844 141.601562 122.109375 C 141.023438 121.796875 140.414062 121.542969 139.820312 121.261719 C 141.25 118.734375 142.445312 116.078125 144.105469 113.683594 C 145.136719 113.496094 145.890625 114.15625 146.679688 114.597656 C 153.648438 118.484375 160.71875 122.179688 167.691406 126.058594 C 168.304688 126.3125 168.828125 126.746094 169.1875 127.300781 C 170.011719 130.570312 170.839844 133.832031 171.652344 137.101562 C 171.75 137.582031 171.820312 138.0625 171.867188 138.546875 Z M 171.867188 138.546875 "/>
<path style=" stroke:none;fill-rule:nonzero;fill:rgb(64.313728%,90.980393%,85.882354%);fill-opacity:1;" d="M 169.1875 127.300781 L 144.105469 113.683594 C 145.132812 111.882812 145.667969 109.773438 147.390625 108.410156 L 166.578125 118.75 C 167.824219 120.382812 167.738281 122.472656 168.460938 124.289062 C 168.777344 125.273438 169.019531 126.28125 169.1875 127.300781 Z M 169.1875 127.300781 "/>
<path style=" stroke:none;fill-rule:nonzero;fill:rgb(98.039216%,99.215686%,98.823529%);fill-opacity:1;" d="M 111.300781 95.761719 C 113.070312 95.519531 114.46875 94.140625 114.738281 92.371094 C 115.046875 94.097656 116.417969 95.433594 118.148438 95.691406 C 116.390625 96.324219 115.160156 97.085938 114.808594 98.832031 C 114.320312 97.222656 112.960938 96.03125 111.300781 95.761719 Z M 111.300781 95.761719 "/>
</g>
</svg>
