<svg height="250" viewBox="0 0 250 250" width="250" xmlns="http://www.w3.org/2000/svg"><path d="m48.007812 176.34375c-6.804687-.140625-10.925781 1.25-13.933593 3.007812v-43.703124h.324219c6.992187 15.832031 19.167968 41.667968 43.101562 41.667968 12.035156 0 20.417969-6.667968 20.417969-19.492187 0-11.714844-13.9375-17.269531-34.214844-24.398438-25.046875-8.378906-31.667969-18.84375-31.667969-33.890625 0-24.535156 21.25-34.070312 37.6875-34.070312 13.285156 0 19.492188 2.359375 28.84375 2.359375 2.542969 0 5.042969-.324219 7.128906-.789063l2.035157 37.410156h-.324219c-12.359375-23.613281-24.257812-36.574218-39.441406-36.574218-11.390625 0-21.25 6.664062-21.25 19.488281 0 11.574219 10.460937 15.835937 31.527344 23.613281 20.925781 7.269532 34.535156 15.832032 34.535156 34.535156 0 26.160157-21.25 34.214844-37.082032 34.214844-9.492187-.046875-19.445312-3.195312-27.6875-3.378906zm0 0"/><path d="m223.519531 177.640625v.324219h-33.101562l-21.714844-36.898438c-7.777344-14.585937-9.027344-17.917968-14.257813-18.382812v35.972656c0 8.378906 4.445313 15.695312 11.710938 19.027344v.324218h-48.472656v-.324218c7.269531-3.332032 11.898437-10.601563 11.898437-19.027344v-72.222656c0-8.378906-4.582031-15.691406-11.898437-19.027344v-.324219h56.390625c16.15625 0 34.210937 9.675781 34.210937 29.769531 0 12.175782-8.378906 21.527344-24.257812 25.046876l19.953125 31.667968c8.425781 13.285156 14.121093 21.203125 19.539062 24.074219zm-69.074219-108.382813v51.484376c2.683594.460937 5.695313.648437 8.703126.648437 10.136718 0 19.628906-6.160156 19.628906-22.824219 0-16.808594-11.574219-29.308594-25.507813-29.308594zm0 0"/></svg>