<!-- Generator: Adobe Illustrator 25.3.1, SVG Export Plug-In . SVG Version: 6.00 Build 0)  -->
<svg xmlns="http://www.w3.org/2000/svg" xmlns:xlink="http://www.w3.org/1999/xlink" width="250px" height="250px" viewBox="0 0 250 250" version="1.1">
<g id="surface1">
<path style=" stroke:none;fill-rule:nonzero;fill:rgb(0%,0%,0%);fill-opacity:1;" d="M 48.007812 176.34375 C 41.203125 176.203125 37.082031 177.59375 34.074219 179.351562 L 34.074219 135.648438 L 34.398438 135.648438 C 41.390625 151.480469 53.566406 177.316406 77.5 177.316406 C 89.535156 177.316406 97.917969 170.648438 97.917969 157.824219 C 97.917969 146.109375 83.980469 140.554688 63.703125 133.425781 C 38.65625 125.046875 32.035156 114.582031 32.035156 99.535156 C 32.035156 75 53.285156 65.464844 69.722656 65.464844 C 83.007812 65.464844 89.214844 67.824219 98.566406 67.824219 C 101.109375 67.824219 103.609375 67.5 105.695312 67.035156 L 107.730469 104.445312 L 107.40625 104.445312 C 95.046875 80.832031 83.148438 67.871094 67.964844 67.871094 C 56.574219 67.871094 46.714844 74.535156 46.714844 87.359375 C 46.714844 98.933594 57.175781 103.195312 78.242188 110.972656 C 99.167969 118.242188 112.777344 126.804688 112.777344 145.507812 C 112.777344 171.667969 91.527344 179.722656 75.695312 179.722656 C 66.203125 179.675781 56.25 176.527344 48.007812 176.34375 Z M 48.007812 176.34375 "/>
<path style=" stroke:none;fill-rule:nonzero;fill:rgb(0%,0%,0%);fill-opacity:1;" d="M 223.519531 177.640625 L 223.519531 177.964844 L 190.417969 177.964844 L 168.703125 141.066406 C 160.925781 126.480469 159.675781 123.148438 154.445312 122.683594 L 154.445312 158.65625 C 154.445312 167.035156 158.890625 174.351562 166.15625 177.683594 L 166.15625 178.007812 L 117.683594 178.007812 L 117.683594 177.683594 C 124.953125 174.351562 129.582031 167.082031 129.582031 158.65625 L 129.582031 86.433594 C 129.582031 78.054688 125 70.742188 117.683594 67.40625 L 117.683594 67.082031 L 174.074219 67.082031 C 190.230469 67.082031 208.285156 76.757812 208.285156 96.851562 C 208.285156 109.027344 199.90625 118.378906 184.027344 121.898438 L 203.980469 153.566406 C 212.40625 166.851562 218.101562 174.769531 223.519531 177.640625 Z M 154.445312 69.257812 L 154.445312 120.742188 C 157.128906 121.203125 160.140625 121.390625 163.148438 121.390625 C 173.285156 121.390625 182.777344 115.230469 182.777344 98.566406 C 182.777344 81.757812 171.203125 69.257812 157.269531 69.257812 Z M 154.445312 69.257812 "/>
</g>
</svg>
