<svg height="250" viewBox="0 0 250 250" width="250" xmlns="http://www.w3.org/2000/svg" xmlns:xlink="http://www.w3.org/1999/xlink"><radialGradient id="a" cx="0" cy="0" gradientTransform="matrix(81.320496 128.428763 -134.336255 85.061093 58.464941 83.478808)" gradientUnits="userSpaceOnUse" r="1"><stop offset="0" stop-color="#0c50ff"/><stop offset=".557292" stop-color="#5b9dff"/><stop offset="1" stop-color="#ff74f1"/></radialGradient><path d="m125 0c69.035156 0 125 55.964844 125 125s-55.964844 125-125 125-125-55.964844-125-125 55.964844-125 125-125zm0 0" fill="url(#a)"/><path d="m164.585938 124.238281c6.5625-1.707031 12.402343-6.613281 12.402343-16.484375 0-16.429687-13.949219-20.253906-31.828125-20.253906h-71.203125v73.992188h29.96875v-25.113282h35.550781c5.476563 0 8.679688 2.171875 8.679688 7.542969v17.570313h29.96875v-18.5c0-10.074219-5.683594-16.429688-13.539062-18.753907zm-24.59375-7.800781h-36.066407v-7.234375h36.066407c3.929687 0 6.304687.515625 6.304687 3.617187 0 3.097657-2.375 3.617188-6.304687 3.617188zm0 0" fill="#fff"/></svg>