<?xml version="1.0" encoding="UTF-8"?>
<svg xmlns="http://www.w3.org/2000/svg" xmlns:xlink="http://www.w3.org/1999/xlink" width="250px" height="250px" viewBox="0 0 250 250" version="1.1">
<defs>
<linearGradient id="linear0" gradientUnits="userSpaceOnUse" x1="0.093978" y1="0.883248" x2="1.061819" y2="0.345693" gradientTransform="matrix(250,0,0,250,0,0)">
<stop offset="0" style="stop-color:rgb(100%,22.745098%,32.941177%);stop-opacity:1;"/>
<stop offset="0.417289" style="stop-color:rgb(100%,71.764708%,0%);stop-opacity:1;"/>
<stop offset="0.72418" style="stop-color:rgb(19.607843%,75.294119%,39.607844%);stop-opacity:1;"/>
<stop offset="1" style="stop-color:rgb(7.058824%,22.352941%,100%);stop-opacity:1;"/>
</linearGradient>
</defs>
<g id="surface1">
<path style=" stroke:none;fill-rule:evenodd;fill:url(#linear0);" d="M 0 129.378906 C 0.0546875 170.769531 19.242188 209.636719 51.617188 233.9375 C 52.222656 231.117188 52.523438 227.875 52.523438 224.179688 L 52.523438 99.105469 C 52.523438 89.179688 50.464844 82.511719 46.355469 79.109375 C 43.617188 76.839844 38.277344 75.140625 30.328125 74.003906 L 30.328125 63.792969 L 108.019531 63.792969 L 108.019531 97.40625 C 115.964844 86.34375 122.8125 78.257812 128.570312 73.15625 C 139.53125 63.511719 150.898438 58.6875 162.683594 58.6875 C 175.015625 58.6875 184.195312 62.945312 190.222656 71.453125 C 194.605469 77.410156 196.804688 84.214844 196.804688 91.871094 C 196.804688 98.964844 195.023438 105.054688 191.460938 110.160156 C 186.800781 116.96875 179.808594 120.375 170.492188 120.375 C 161.722656 120.375 153.367188 114.703125 145.417969 103.359375 C 141.582031 97.96875 137.75 95.273438 133.914062 95.273438 C 127.0625 95.273438 121.035156 99.816406 115.828125 108.890625 C 111.71875 116.265625 109.660156 125.199219 109.660156 135.691406 L 109.660156 216.097656 C 109.660156 229.425781 111.578125 238.359375 115.414062 242.898438 C 119.25 247.4375 127.199219 251.089844 139.667969 249.703125 C 191.53125 248.125 249.921875 186.902344 250 121.390625 C 250.003906 49.9375 194.039062 0 125 0 C 55.960938 0 -0.00390625 57.925781 0 129.378906 Z M 0 129.378906 "/>
</g>
</svg>
