<svg height="250" viewBox="0 0 250 250" width="250" xmlns="http://www.w3.org/2000/svg" xmlns:xlink="http://www.w3.org/1999/xlink"><linearGradient id="a" gradientTransform="matrix(.957854 0 0 -.961538 124.521073 125)" gradientUnits="userSpaceOnUse" x1="320.329987" x2="320.329987" y1="-50.181801" y2="432.085999"><stop offset="0" stop-color="#9e00f6"/><stop offset="1" stop-color="#fa7564"/></linearGradient><path d="m125.023438 246.949219c67.089843 0 121.480468-54.597657 121.480468-121.949219s-54.390625-121.949219-121.480468-121.949219c-67.09375 0-121.484376 54.597657-121.484376 121.949219s54.390626 121.949219 121.484376 121.949219zm0 0" fill="#fff"/><path d="m155.503906 195.300781v-56.300781h-60.964844v56.300781h-27.84375v-140.601562h27.84375v56.300781h60.964844v-56.300781h27.84375v140.601562zm0 0" fill="#4d2176"/><path d="m249.042969 125c0-69.035156-55.75-125-124.523438-125-68.769531 0-124.519531 55.964844-124.519531 125s55.75 125 124.519531 125c68.773438 0 124.523438-55.964844 124.523438-125zm0 0" fill="url(#a)"/><path d="m115.902344 125.109375c-.402344 0-.808594-.035156-1.210938-.101563 1.75-3.714843 3.429688-7.324218 5.042969-10.835937 1.617187-3.582031 3.027344-6.855469 4.238281-9.828125 1.210938-2.96875 2.1875-5.605469 2.925782-7.902344.742187-2.292968 1.113281-4.082031 1.113281-5.367187 0-1.28125-.203125-2.328125-.605469-3.140625-.40625-.875-.875-1.519532-1.414062-1.921875-.539063-.472657-1.144532-.777344-1.816407-.914063-.671875-.203125-1.242187-.304687-1.714843-.304687-1.75 0-3.734376 1.015625-5.953126 3.039062-2.152343 1.960938-4.472656 4.59375-6.960937 7.902344-2.425781 3.308594-4.945313 7.125-7.570313 11.445313-2.554687 4.253906-5.113281 8.679687-7.667968 13.269531l-29.765625 54.699219c-.742188 1.417968-1.3125 2.9375-1.71875 4.558593-.402344 1.621094-.605469 3.207031-.605469 4.761719 0 1.078125.136719 2.226562.40625 3.441406.335938 1.214844.875 2.332032 1.613281 3.34375.738281 1.011719 1.78125 1.855469 3.128907 2.53125 1.34375.675782 3.09375 1.015625 5.246093 1.015625 2.625 0 5.046875-.945312 7.265625-2.839843 2.21875-1.890626 4.304688-4.351563 6.257813-7.394532 1.949219-3.105468 3.730469-6.582031 5.347656-10.429687 1.613281-3.917969 3.160156-7.867188 4.640625-11.851563s2.859375-7.835937 4.136719-11.546875c1.277343-3.785156 2.523437-7.058593 3.734375-9.828125 2.152344 7.023438 4.605468 13.710938 7.363281 20.058594 2.757813 6.277344 5.820313 11.78125 9.183594 16.507812 3.363281 4.726563 7.097656 8.476563 11.203125 11.246094 4.101562 2.769532 8.574218 4.152344 13.417968 4.152344 5.921876 0 12.175782-1.484375 18.769532-4.457031 6.660156-3.039063 13.453125-7.832031 20.382812-14.382813 2.351563-2.230468 4-4.355468 4.941406-6.382812 1.011719-2.09375 1.515626-3.917969 1.515626-5.46875 0-1.621094-.472657-2.90625-1.414063-3.851563-.941406-.945312-2.085937-1.417969-3.429687-1.417969-2.152344 0-4.273438 1.183594-6.355469 3.546876-2.222657 2.972656-4.84375 5.570312-7.871094 7.800781-2.558594 1.957031-5.753906 3.746093-9.585937 5.367187-3.835938 1.621094-8.207032 2.429688-13.117188 2.429688h-1.414062c-.472657 0-.976563-.03125-1.511719-.101563-2.691407-.203125-5.25-1.550781-7.671875-4.050781-2.421875-2.496094-4.640625-5.503906-6.65625-9.015625-1.953125-3.578125-3.636719-7.324219-5.046875-11.242187-1.347657-3.984376-2.320313-7.5625-2.925781-10.738282 4.304687-.742187 8.742187-1.957031 13.320312-3.644531 4.640625-1.6875 9.148438-3.75 13.519531-6.179687 4.371094-2.429688 8.476563-5.199219 12.308594-8.304688 3.902344-3.175781 7.300781-6.617188 10.191406-10.332031 2.894531-3.78125 5.183594-7.800781 6.863281-12.054688 1.75-4.324219 2.625-8.847656 2.625-13.574219 0-7.023437-1.449218-13.167968-4.339843-18.433593-2.824219-5.269531-6.660157-9.625-11.503907-13.066407-4.84375-3.511718-10.425781-6.148437-16.75-7.902343-6.257812-1.757813-12.816406-2.632813-19.675781-2.632813-6.996093 0-13.625.742188-19.878906 2.226563-6.257813 1.417969-12.042969 3.34375-17.355469 5.773437-5.246094 2.363282-9.988281 5.132813-14.226562 8.308594-4.238282 3.105469-7.839844 6.347656-10.796875 9.722656-2.894531 3.375-5.148438 6.753906-6.761719 10.128906-1.546875 3.375-2.320312 6.515626-2.320312 9.421876 0 3.105468.839843 5.535156 2.523437 7.292968 1.679687 1.6875 4.203125 2.53125 7.566406 2.53125 2.488281 0 4.574219-.574218 6.257813-1.722656 1.679687-1.148438 3.195312-2.632812 4.539062-4.457031 1.414063-1.824219 2.757813-3.914063 4.035156-6.28125 1.277344-2.363281 2.691407-4.792969 4.238282-7.292969 1.613281-2.496094 3.5-4.929688 5.652344-7.292969 2.21875-2.363281 4.910156-4.457031 8.070312-6.277343 3.230469-1.824219 7.03125-3.308594 11.402344-4.457032 4.441406-1.148437 9.722656-1.722656 15.84375-1.722656 5.449218 0 10.125.640625 14.027344 1.925781 3.964843 1.28125 7.195312 3.003907 9.683593 5.164063 2.558594 2.160156 4.40625 4.695312 5.550781 7.597656 1.210938 2.902344 1.816407 5.976562 1.816407 9.21875 0 4.523438-1.144531 9.183594-3.429688 13.976562-2.21875 4.796876-5.28125 9.152344-9.183593 13.066407-3.902344 3.917969-8.476563 7.160156-13.722657 9.726562-5.179687 2.496094-10.695312 3.746094-16.550781 3.746094zm0 0" fill="#fff"/></svg>