
<svg xmlns="http://www.w3.org/2000/svg" xmlns:xlink="http://www.w3.org/1999/xlink" width="250px" height="250px" viewBox="0 0 250 250" version="1.1">
<defs>
<linearGradient id="linear0" gradientUnits="userSpaceOnUse" x1="320.329987" y1="-50.181801" x2="320.329987" y2="432.085999" gradientTransform="matrix(0.957854,0,0,-0.961538,124.521073,125)">
<stop offset="0" style="stop-color:rgb(61.960787%,0%,96.470588%);stop-opacity:1;"/>
<stop offset="1" style="stop-color:rgb(98.039216%,45.882353%,39.215687%);stop-opacity:1;"/>
</linearGradient>
</defs>
<g id="surface1">
<path style=" stroke:none;fill-rule:nonzero;fill:rgb(100%,100%,100%);fill-opacity:1;" d="M 125.023438 246.949219 C 192.113281 246.949219 246.503906 192.351562 246.503906 125 C 246.503906 57.648438 192.113281 3.050781 125.023438 3.050781 C 57.929688 3.050781 3.539062 57.648438 3.539062 125 C 3.539062 192.351562 57.929688 246.949219 125.023438 246.949219 Z M 125.023438 246.949219 "/>
<path style=" stroke:none;fill-rule:nonzero;fill:rgb(30.19608%,12.941177%,46.27451%);fill-opacity:1;" d="M 155.503906 195.300781 L 155.503906 139 L 94.539062 139 L 94.539062 195.300781 L 66.695312 195.300781 L 66.695312 54.699219 L 94.539062 54.699219 L 94.539062 111 L 155.503906 111 L 155.503906 54.699219 L 183.347656 54.699219 L 183.347656 195.300781 Z M 155.503906 195.300781 "/>
<path style=" stroke:none;fill-rule:nonzero;fill:url(#linear0);" d="M 249.042969 125 C 249.042969 55.964844 193.292969 0 124.519531 0 C 55.75 0 0 55.964844 0 125 C 0 194.035156 55.75 250 124.519531 250 C 193.292969 250 249.042969 194.035156 249.042969 125 Z M 249.042969 125 "/>
<path style=" stroke:none;fill-rule:nonzero;fill:rgb(100%,100%,100%);fill-opacity:1;" d="M 115.902344 125.109375 C 115.5 125.109375 115.09375 125.074219 114.691406 125.007812 C 116.441406 121.292969 118.121094 117.683594 119.734375 114.171875 C 121.351562 110.589844 122.761719 107.316406 123.972656 104.34375 C 125.183594 101.375 126.160156 98.738281 126.898438 96.441406 C 127.640625 94.148438 128.011719 92.359375 128.011719 91.074219 C 128.011719 89.792969 127.808594 88.746094 127.40625 87.933594 C 127 87.058594 126.53125 86.414062 125.992188 86.011719 C 125.453125 85.539062 124.847656 85.234375 124.175781 85.097656 C 123.503906 84.894531 122.933594 84.792969 122.460938 84.792969 C 120.710938 84.792969 118.726562 85.808594 116.507812 87.832031 C 114.355469 89.792969 112.035156 92.425781 109.546875 95.734375 C 107.121094 99.042969 104.601562 102.859375 101.976562 107.179688 C 99.421875 111.433594 96.863281 115.859375 94.308594 120.449219 L 64.542969 175.148438 C 63.800781 176.566406 63.230469 178.085938 62.824219 179.707031 C 62.421875 181.328125 62.21875 182.914062 62.21875 184.46875 C 62.21875 185.546875 62.355469 186.695312 62.625 187.910156 C 62.960938 189.125 63.5 190.242188 64.238281 191.253906 C 64.976562 192.265625 66.019531 193.109375 67.367188 193.785156 C 68.710938 194.460938 70.460938 194.800781 72.613281 194.800781 C 75.238281 194.800781 77.660156 193.855469 79.878906 191.960938 C 82.097656 190.070312 84.183594 187.609375 86.136719 184.566406 C 88.085938 181.460938 89.867188 177.984375 91.484375 174.136719 C 93.097656 170.21875 94.644531 166.269531 96.125 162.285156 C 97.605469 158.300781 98.984375 154.449219 100.261719 150.738281 C 101.539062 146.953125 102.785156 143.679688 103.996094 140.910156 C 106.148438 147.933594 108.601562 154.621094 111.359375 160.96875 C 114.117188 167.246094 117.179688 172.75 120.542969 177.476562 C 123.90625 182.203125 127.640625 185.953125 131.746094 188.722656 C 135.847656 191.492188 140.320312 192.875 145.164062 192.875 C 151.085938 192.875 157.339844 191.390625 163.933594 188.417969 C 170.59375 185.378906 177.386719 180.585938 184.316406 174.035156 C 186.667969 171.804688 188.316406 169.679688 189.257812 167.652344 C 190.269531 165.558594 190.773438 163.734375 190.773438 162.183594 C 190.773438 160.5625 190.300781 159.277344 189.359375 158.332031 C 188.417969 157.386719 187.273438 156.914062 185.929688 156.914062 C 183.777344 156.914062 181.65625 158.097656 179.574219 160.460938 C 177.351562 163.433594 174.730469 166.03125 171.703125 168.261719 C 169.144531 170.21875 165.949219 172.007812 162.117188 173.628906 C 158.28125 175.25 153.910156 176.058594 149 176.058594 L 147.585938 176.058594 C 147.113281 176.058594 146.609375 176.027344 146.074219 175.957031 C 143.382812 175.753906 140.824219 174.40625 138.402344 171.90625 C 135.980469 169.410156 133.761719 166.402344 131.746094 162.890625 C 129.792969 159.3125 128.109375 155.566406 126.699219 151.648438 C 125.351562 147.664062 124.378906 144.085938 123.773438 140.910156 C 128.078125 140.167969 132.515625 138.953125 137.09375 137.265625 C 141.734375 135.578125 146.242188 133.515625 150.613281 131.085938 C 154.984375 128.65625 159.089844 125.886719 162.921875 122.78125 C 166.824219 119.605469 170.222656 116.164062 173.113281 112.449219 C 176.007812 108.667969 178.296875 104.648438 179.976562 100.394531 C 181.726562 96.070312 182.601562 91.546875 182.601562 86.820312 C 182.601562 79.796875 181.152344 73.652344 178.261719 68.386719 C 175.4375 63.117188 171.601562 58.761719 166.757812 55.320312 C 161.914062 51.808594 156.332031 49.171875 150.007812 47.417969 C 143.75 45.660156 137.191406 44.785156 130.332031 44.785156 C 123.335938 44.785156 116.707031 45.527344 110.453125 47.011719 C 104.195312 48.429688 98.410156 50.355469 93.097656 52.785156 C 87.851562 55.148438 83.109375 57.917969 78.871094 61.09375 C 74.632812 64.199219 71.03125 67.441406 68.074219 70.816406 C 65.179688 74.191406 62.925781 77.570312 61.3125 80.945312 C 59.765625 84.320312 58.992188 87.460938 58.992188 90.367188 C 58.992188 93.472656 59.832031 95.902344 61.515625 97.660156 C 63.195312 99.347656 65.71875 100.191406 69.082031 100.191406 C 71.570312 100.191406 73.65625 99.617188 75.339844 98.46875 C 77.019531 97.320312 78.535156 95.835938 79.878906 94.011719 C 81.292969 92.1875 82.636719 90.097656 83.914062 87.730469 C 85.191406 85.367188 86.605469 82.9375 88.152344 80.4375 C 89.765625 77.941406 91.652344 75.507812 93.804688 73.144531 C 96.023438 70.78125 98.714844 68.6875 101.875 66.867188 C 105.105469 65.042969 108.90625 63.558594 113.277344 62.410156 C 117.71875 61.261719 123 60.6875 129.121094 60.6875 C 134.570312 60.6875 139.246094 61.328125 143.148438 62.613281 C 147.113281 63.894531 150.34375 65.617188 152.832031 67.777344 C 155.390625 69.9375 157.238281 72.472656 158.382812 75.375 C 159.59375 78.277344 160.199219 81.351562 160.199219 84.59375 C 160.199219 89.117188 159.054688 93.777344 156.769531 98.570312 C 154.550781 103.367188 151.488281 107.722656 147.585938 111.636719 C 143.683594 115.554688 139.109375 118.796875 133.863281 121.363281 C 128.683594 123.859375 123.167969 125.109375 117.3125 125.109375 Z M 115.902344 125.109375 "/>
</g>
</svg>
