<svg height="250" viewBox="0 0 250 250" width="250" xmlns="http://www.w3.org/2000/svg" xmlns:xlink="http://www.w3.org/1999/xlink"><linearGradient id="a" gradientUnits="userSpaceOnUse" x1="26.2078228502" x2="230.63490191267" y1="62.70430908493" y2="191.61042502247"><stop offset="0" stop-color="#21a9d7"/><stop offset="1" stop-color="#004e83"/></linearGradient><path d="m250 125c0 69.035156-55.964844 125-125 125s-125-55.964844-125-125 55.964844-125 125-125 125 55.964844 125 125zm0 0" fill="url(#a)"/><g fill="#fff"><path d="m124.476562 112.226562c-3.410156 0-5.601562.25-6.644531.5v17.832032h6.382813c7.261718 0 11.808594-3.683594 11.808594-9.292969-.007813-6.191406-4.558594-9.039063-11.546876-9.039063zm0 0"/><path d="m124.898438 79.183594c-29.648438 0-53.683594 24.03125-53.683594 53.683594 0 29.648437 24.035156 53.683593 53.683594 53.683593 29.652343 0 53.683593-24.035156 53.683593-53.683593 0-29.652344-24.039062-53.683594-53.683593-53.683594zm32.375 40.140625c0 .09375-.074219.160156-.15625.160156h-10.46875c.011718.257813.042968.515625.042968.773437 0 1.652344-.273437 3.175782-.75 4.574219h11.175782c.089843 0 .15625.078125.15625.160157v5.800781c0 .089843-.074219.15625-.15625.15625h-15.242188c-1.726562 1.558593-3.765625 2.726562-5.851562 3.460937v.25c4.203124 1.507813 6.734374 5.441406 8.21875 10.882813 1.832031 7.03125 3.40625 13.566406 4.632812 15.742187h-11.109375c-.875-1.675781-2.273437-6.285156-3.933594-13.320312-1.65625-7.363282-4.457031-9.714844-10.582031-9.882813h-5.425781v23.191407h-10.664063v-30.332032h-11.960937c-.089844 0-.15625-.074218-.15625-.15625v-5.785156c0-.089844.074219-.160156.15625-.160156h11.960937v-5.347656h-11.960937c-.089844 0-.15625-.074219-.15625-.160157v-5.796875c0-.09375.074219-.160156.15625-.160156h11.960937v-7.757812c4.023438-.667969 10.054688-1.175782 16.265625-1.175782 8.484375 0 14.25 1.34375 18.183594 4.523438 1.492187 1.203125 2.664063 2.695312 3.523437 4.410156h11.976563c.089844 0 .15625.074219.15625.160156v5.789063zm0 0"/><path d="m241.75 91.714844c-.109375-.589844-.285156-1.171875-.507812-1.714844-.234376-.550781-.515626-1.042969-.832032-1.484375-.328125-.433594-.695312-.808594-1.085937-1.117187-.199219-.148438-.398438-.289063-.617188-.40625-.632812-.359376-1.324219-.550782-2.03125-.550782h-72.683593c-.507813 0-1.015626.023438-1.527344.066406-.15625.015626-.324219.035157-.480469.050782-.34375.03125-.691406.082031-1.035156.140625-1.824219-1.433594-3.699219-2.800781-5.691407-4.015625-8.859374-5.390625-19.257812-8.492188-30.367187-8.492188-11.066406 0-21.414063 3.082032-30.257813 8.433594-2.015624 1.214844-3.917968 2.601562-5.765624 4.050781-.292969-.042969-.582032-.09375-.875-.117187-.160157-.015625-.308594-.035156-.46875-.050782-.507813-.042968-1.015626-.066406-1.523438-.066406h-72.675781c-1.890625 0-3.640625 1.359375-4.566407 3.550782-.925781 2.191406-.875 4.875.117188 7.015624l1.726562 3.699219c4.488282 9.652344 12.230469 15.46875 20.765626 15.632813l2.023437 5.75c3.492187 9.910156 9.941406 16.058594 16.824219 16.058594h2.367187l1.203125 5.027343c2.472656 10.375 9.714844 15.597657 15.039063 15.597657h3.574219c9.59375 19.316406 29.5 32.652343 52.492187 32.652343 22.617187 0 42.269531-12.882812 52.035156-31.683593h5.539063c1.667968 0 4.558594-.609376 6.042968-1.75.59375-.457032 1.175782-1.007813 1.726563-1.632813.832031-.941406 1.625-2.074219 2.347656-3.375.734375-1.308594 1.410157-2.785156 2.007813-4.417969.601562-1.632812 1.152344-3.433594 1.609375-5.382812l1.199219-5.023438h2.367187c1.726563 0 3.417969-.386718 5.042969-1.117187 1.214844-.550781 2.398437-1.292969 3.53125-2.21875.75-.617188 1.484375-1.308594 2.183594-2.082031.703124-.765626 1.367187-1.617188 2.011718-2.535157 1.589844-2.289062 2.972656-5.015625 4.066406-8.117187l2.023438-5.75c1.601562-.03125 3.175781-.257813 4.699219-.671875 1.015625-.277344 2.015625-.644531 2.992187-1.078125 1.457032-.65625 2.867188-1.5 4.207032-2.507813 2.226562-1.671875 4.261718-3.816406 6.019531-6.355469.699219-1.019531 1.367187-2.101562 1.972656-3.25.308594-.578124.601563-1.160156.882813-1.769531l.859374-1.847656.859376-1.851563c.25-.53125.441406-1.097656.566406-1.691406.066406-.292968.117187-.589844.148437-.890625.109375-.890625.085938-1.816406-.082031-2.710937zm-174.214844 59.71875c-2.34375 0-6.234375-4.324219-7.769531-10.757813l-.597656-2.527343h.367187c1.730469 0 3.132813-1.855469 3.132813-4.15625 0-2.292969-1.402344-4.160157-3.132813-4.160157h-4.636718c-.03125 0-.066407.007813-.097657.007813h-4.574219c-4.492187 0-8.660156-4.207032-11.144531-11.265625l-.707031-2.007813h25.273438c1.734374 0 3.136718-1.859375 3.136718-4.15625 0-2.292968-1.386718-3.734375-3.109375-3.734375h-30.058593l-1.640626.039063c-.101562-.015625-.203124-.015625-.300781-.015625-6.492187 0-12.324219-5.03125-15.734375-12.347657l-.742187-2.316406h65.824219c-9.15625 10.339844-14.738282 23.914063-14.738282 38.78125 0 5.050782.640625 9.957032 1.847656 14.640625.351563 1.351563.757813 2.675781 1.199219 3.984375h-1.796875zm106.847656-3.984375c-.890624 3.007812-2.050781 5.902343-3.449218 8.652343-8.523438 16.789063-25.957032 28.324219-46.042969 28.324219-20.082031 0-37.507813-11.535156-46.039063-28.324219-1.402343-2.75-2.558593-5.644531-3.453124-8.652343-1.375-4.640625-2.125-9.558594-2.125-14.640625 0-16.773438 8.042968-31.699219 20.476562-41.132813 2.140625-1.625 4.410156-3.085937 6.792969-4.367187 7.257812-3.898438 15.546875-6.117188 24.347656-6.117188 8.859375 0 17.199219 2.242188 24.492187 6.191406 2.367188 1.285157 4.617188 2.75 6.742188 4.367188 12.375 9.441406 20.375 24.324219 20.375 41.050781.007812 5.097657-.742188 10.007813-2.117188 14.648438zm59.683594-51.109375c-.214844.460937-.433594.902344-.667968 1.34375-1.15625 2.167968-2.546876 4.042968-4.113282 5.574218-.320312.308594-.636718.601563-.960937.875-.648438.558594-1.332031 1.058594-2.03125 1.507813-1.402344.894531-2.894531 1.542969-4.453125 1.941406-.773438.203125-1.589844.792969-2.390625.902344-.464844.066406-.941407.097656-1.339844.097656-.101563 0-.199219.007813-.300781.019531l-1.367188.066407h-30.050781c-.214844 0-.425781.023437-.632813.082031-.40625.109375-.78125.324219-1.125.625-.332031.300781-.625.683594-.847656 1.125-.34375.667969-.558594 1.042969-.558594 1.898438 0 .859374.199219 1.660156.53125 2.328124.226563.441407.515626.824219.851563 1.125.332031.296876.714844.515626 1.125.625.199219.058594.414063.082032.632813.082032h25.273437l-.707031 2.007812c-.625 1.765625-1.351563 3.351563-2.160156 4.734375-.605469 1.039063-1.265626 1.964844-1.957032 2.773438-.457031.542969-.941406 1.027343-1.433594 1.449219-.492187.425781-1 .800781-1.523437 1.109374-.519531.308594-1.050781.566407-1.59375.757813-.265625.09375-.539063.175781-.816406.242187-.550781.125-1.109375.191407-1.664063.191407h-4.578125c-.015625 0-.03125 0-.046875 0-.019531 0-.035156 0-.050781 0h-4.632813c-.21875 0-.425781.027343-.636718.085937-.40625.105469-.78125.324219-1.125.625-.332032.296875-.625.679688-.847656 1.125-.34375.664063-.535157 1.464844-.535157 2.324219 0 .855469.203125 1.65625.535157 2.324219.222656.441406.515624.824218.847656 1.125.335937.300781.71875.515625 1.125.625.203125.058594.417968.082031.636718.082031h.363282l-.597656 2.527344c-.191407.808593-.402344 1.574219-.625 2.308593-.332032 1.097657-.699219 2.113282-1.09375 3.039063-.257813.617187-.523438 1.183594-.808594 1.699219-.273438.519531-.554688.992187-.847656 1.417968-.292969.417969-.582032.792969-.882813 1.101563-.742187.773437-2.792969 1.199219-3.527344 1.199219h-2.007812c.441406-1.308594.851562-2.632813 1.199219-3.984375 1.210937-4.683594 1.851562-9.589844 1.851562-14.640625 0-14.042969-5.601562-28.265625-14.867188-38.867188h66.160157zm0 0"/></g></svg>