
<svg xmlns="http://www.w3.org/2000/svg" xmlns:xlink="http://www.w3.org/1999/xlink" width="250px" height="250px" viewBox="0 0 250 250" version="1.1">
<g id="surface1">
<path style=" stroke:none;fill-rule:nonzero;fill:rgb(5.490196%,19.215687%,34.509805%);fill-opacity:1;" d="M 250 125 C 250 194.035156 194.035156 250 125 250 C 55.964844 250 0 194.035156 0 125 C 0 55.964844 55.964844 0 125 0 C 194.035156 0 250 55.964844 250 125 Z M 250 125 "/>
<path style=" stroke:none;fill-rule:nonzero;fill:rgb(100%,100%,100%);fill-opacity:1;" d="M 74.429688 76.867188 L 86.632812 69.855469 L 88.269531 72.6875 L 133.230469 46.742188 L 129.945312 44.851562 L 126.644531 42.9375 L 125.007812 41.992188 L 51.757812 84.304688 L 51.757812 86.195312 L 72.792969 74.03125 Z M 74.429688 76.867188 "/>
<path style=" stroke:none;fill-rule:nonzero;fill:rgb(100%,100%,100%);fill-opacity:1;" d="M 74.429688 103.503906 L 109.667969 83.148438 L 111.320312 86.007812 L 156.28125 60.0625 L 152.992188 58.144531 L 149.695312 56.253906 L 148.042969 55.3125 L 51.757812 110.902344 L 51.757812 112.792969 L 72.792969 100.628906 Z M 74.429688 103.503906 "/>
<path style=" stroke:none;fill-rule:nonzero;fill:rgb(100%,100%,100%);fill-opacity:1;" d="M 74.429688 116.824219 L 121.191406 89.8125 L 122.84375 92.644531 L 167.804688 66.667969 L 164.503906 64.816406 L 161.21875 62.886719 L 159.5625 61.949219 L 51.757812 124.195312 L 51.757812 126.125 L 72.792969 113.960938 Z M 74.429688 116.824219 "/>
<path style=" stroke:none;fill-rule:nonzero;fill:rgb(100%,100%,100%);fill-opacity:1;" d="M 74.429688 130.117188 L 133.042969 96.277344 L 134.695312 99.109375 L 179.324219 73.351562 L 176.023438 71.433594 L 172.734375 69.546875 L 171.085938 68.601562 L 51.757812 137.515625 L 51.757812 139.402344 L 72.792969 127.242188 Z M 74.429688 130.117188 "/>
<path style=" stroke:none;fill-rule:nonzero;fill:rgb(100%,100%,100%);fill-opacity:1;" d="M 74.429688 143.398438 L 144.566406 102.917969 L 146.21875 105.792969 L 190.847656 80.007812 L 187.546875 78.105469 L 184.261719 76.1875 L 182.609375 75.242188 L 51.757812 150.808594 L 51.757812 152.695312 L 72.792969 140.5625 Z M 74.429688 143.398438 "/>
<path style=" stroke:none;fill-rule:nonzero;fill:rgb(100%,100%,100%);fill-opacity:1;" d="M 195.78125 82.867188 L 194.128906 81.894531 L 51.757812 164.125 L 51.757812 166.015625 L 72.792969 153.878906 L 74.429688 156.710938 L 144.566406 116.238281 L 146.21875 119.070312 L 198.242188 89.054688 L 198.242188 84.304688 Z M 195.78125 82.867188 "/>
<path style=" stroke:none;fill-rule:nonzero;fill:rgb(100%,100%,100%);fill-opacity:1;" d="M 60.78125 174.09375 L 72.578125 167.292969 L 74.214844 170.125 L 144.234375 129.714844 L 145.882812 132.574219 L 198.242188 102.34375 L 198.242188 92.832031 L 59.167969 173.148438 Z M 60.78125 174.09375 "/>
<path style=" stroke:none;fill-rule:nonzero;fill:rgb(100%,100%,100%);fill-opacity:1;" d="M 144.234375 143.039062 L 145.886719 145.898438 L 198.242188 115.667969 L 198.242188 106.152344 L 70.691406 179.789062 L 72.328125 180.746094 L 84.304688 173.828125 L 85.957031 176.6875 "/>
<path style=" stroke:none;fill-rule:nonzero;fill:rgb(100%,100%,100%);fill-opacity:1;" d="M 83.851562 187.414062 L 95.828125 180.472656 L 97.476562 183.332031 L 144.234375 156.332031 L 145.882812 159.191406 L 198.242188 128.960938 L 198.242188 119.445312 L 82.175781 186.441406 Z M 83.851562 187.414062 "/>
<path style=" stroke:none;fill-rule:nonzero;fill:rgb(100%,100%,100%);fill-opacity:1;" d="M 95.375 194.066406 L 107.351562 187.148438 L 109 189.980469 L 144.234375 169.648438 L 145.886719 172.480469 L 198.246094 142.234375 L 198.246094 132.761719 L 93.726562 193.121094 Z M 95.375 194.066406 "/>
<path style=" stroke:none;fill-rule:nonzero;fill:rgb(100%,100%,100%);fill-opacity:1;" d="M 105.246094 199.757812 L 106.898438 200.703125 L 118.910156 193.785156 L 120.519531 196.644531 L 144.230469 182.925781 L 145.882812 185.800781 L 198.238281 155.554688 L 198.238281 146.058594 Z M 105.246094 199.757812 "/>
<path style=" stroke:none;fill-rule:nonzero;fill:rgb(100%,100%,100%);fill-opacity:1;" d="M 118.421875 207.386719 L 130.398438 200.425781 L 132.042969 203.304688 L 144.234375 196.222656 L 145.882812 199.097656 L 198.242188 168.878906 L 198.242188 159.378906 L 116.769531 206.441406 Z M 118.421875 207.386719 "/>
<path style=" stroke:none;fill-rule:nonzero;fill:rgb(100%,100%,100%);fill-opacity:1;" d="M 144.753906 53.394531 L 141.464844 51.507812 L 138.167969 49.617188 L 136.53125 48.632812 L 51.757812 97.585938 L 51.757812 99.472656 L 72.792969 87.351562 L 74.429688 90.183594 L 98.15625 76.492188 L 99.832031 79.367188 Z M 144.753906 53.394531 "/>
</g>
</svg>
