<svg height="250" viewBox="0 0 250 250" width="250" xmlns="http://www.w3.org/2000/svg"><path d="m139.753906 96.515625c3.941406 15.421875-20.808594 19.824219-28.523437 21.792969l-7.039063-27.324219c7.746094-1.96875 31.371094-10.5625 35.492188 5.53125m17.289062 40.808594c4.332032 17.007812-25.246094 22.464843-34.542968 24.859375l-7.570313-30.140625c9.261719-2.359375 37.675781-12.464844 42.253906 5.28125m6.796875-53.519531c-5.707031-15.8125-21.128906-17.609376-39.15625-14.753907l-5.738281-22.5-13.699219 3.519531 5.597656 21.9375c-3.519531.914063-7.253906 1.902344-10.878906 2.921876l-5.808594-22.113282-13.699218 3.523438 5.742187 22.535156c-2.960937.84375-5.847656 1.617188-8.699219 2.355469l-18.875 4.789062 3.734376 14.648438s10.105468-2.78125 9.929687-2.535157c3.695313-1.457031 7.875.3125 9.402344 3.980469l6.582031 25.492188c.488281-.117188.980469-.199219 1.480469-.246094l-1.445313.351563 9.085938 35.914062c.472656 2.730469-1.332032 5.328125-4.050782 5.847656.210938 0-9.964843 2.535156-9.964843 2.535156l1.445312 17.042969 17.816407-4.542969 9.964843-2.5 5.808594 22.746094 13.664063-3.523437-5.917969-22.355469c3.523437-.8125 7.324219-1.726562 10.953125-2.679688l5.703125 22.429688 13.699219-3.519531-5.777344-22.570313c22.746094-7.042968 37.324218-17.113281 33.804687-39.226562-2.851562-17.816406-12.921875-23.484375-26.761719-23.308594 7.042969-6.054688 10.105469-14.472656 5.878907-26.019531m71.304687-18.136719c32.667969 60.785156 9.886719 136.542969-50.894531 169.222656-60.777344 32.683594-136.539063 9.914063-169.230469-50.859375-32.691406-60.773437-9.9375-136.539062 50.828125-169.242187 60.722657-32.554688 136.335938-9.808594 169.015625 50.84375" fill="#87888c" fill-rule="evenodd"/></svg>