
<svg xmlns="http://www.w3.org/2000/svg" xmlns:xlink="http://www.w3.org/1999/xlink" width="250px" height="250px" viewBox="0 0 250 250" version="1.1">
<g id="surface1">
<path style=" stroke:none;fill-rule:evenodd;fill:rgb(52.941179%,53.333336%,54.901963%);fill-opacity:1;" d="M 139.753906 96.515625 C 143.695312 111.9375 118.945312 116.339844 111.230469 118.308594 L 104.191406 90.984375 C 111.9375 89.015625 135.5625 80.421875 139.683594 96.515625 M 156.972656 137.324219 C 161.304688 154.332031 131.726562 159.789062 122.429688 162.183594 L 114.859375 132.042969 C 124.121094 129.683594 152.535156 119.578125 157.113281 137.324219 M 163.910156 83.804688 C 158.203125 67.992188 142.78125 66.195312 124.753906 69.050781 L 119.015625 46.550781 L 105.316406 50.070312 L 110.914062 72.007812 C 107.394531 72.921875 103.660156 73.910156 100.035156 74.929688 L 94.226562 52.816406 L 80.527344 56.339844 L 86.269531 78.875 C 83.308594 79.71875 80.421875 80.492188 77.570312 81.230469 L 58.695312 86.019531 L 62.429688 100.667969 C 62.429688 100.667969 72.535156 97.886719 72.359375 98.132812 C 76.054688 96.675781 80.234375 98.445312 81.761719 102.113281 L 88.34375 127.605469 C 88.832031 127.488281 89.324219 127.40625 89.824219 127.359375 L 88.378906 127.710938 L 97.464844 163.625 C 97.9375 166.355469 96.132812 168.953125 93.414062 169.472656 C 93.625 169.472656 83.449219 172.007812 83.449219 172.007812 L 84.894531 189.050781 L 102.710938 184.507812 L 112.675781 182.007812 L 118.484375 204.753906 L 132.148438 201.230469 L 126.230469 178.875 C 129.753906 178.0625 133.554688 177.148438 137.183594 176.195312 L 142.886719 198.625 L 156.585938 195.105469 L 150.808594 172.535156 C 173.554688 165.492188 188.132812 155.421875 184.613281 133.308594 C 181.761719 115.492188 171.691406 109.824219 157.851562 110 C 164.894531 103.945312 167.957031 95.527344 163.730469 83.980469 M 235.035156 65.84375 C 267.703125 126.628906 244.921875 202.386719 184.140625 235.066406 C 123.363281 267.75 47.601562 244.980469 14.910156 184.207031 C -17.78125 123.433594 4.972656 47.667969 65.738281 14.964844 C 126.460938 -17.589844 202.074219 5.15625 234.753906 65.808594 "/>
</g>
</svg>
