<svg height="250" viewBox="0 0 250 250" width="250" xmlns="http://www.w3.org/2000/svg"><path d="m151.492188 106.960938c-3.835938 15.480468-27.734376 7.597656-35.511719 5.679687l6.890625-27.414063c7.738281 1.917969 32.667968 5.539063 28.621094 21.699219m-4.226563 44.210938c-4.226563 17.046875-32.917969 7.8125-42.222656 5.503906l7.527343-30.183594c9.304688 2.308594 39.0625 7.101563 34.695313 24.855469m31.320313-43.925781c2.523437-16.832031-10.15625-25.710938-27.484376-31.746094l5.609376-22.375-13.707032-3.550781-5.46875 21.910156c-3.550781-.886719-7.316406-1.738281-10.972656-2.554688l5.503906-22.089843-13.707031-3.550781-5.644531 22.515624c-2.984375-.675781-5.898438-1.351562-8.738282-2.058593l-18.75-4.652344-3.550781 14.628906s10.15625 2.34375 9.945313 2.484375c3.957031.464844 6.804687 4.027344 6.390625 7.992188l-6.640625 25.746094c.484375.09375.960937.238281 1.421875.425781l-1.457031-.355469-8.949219 35.902344c-.832031 2.636718-3.648438 4.101562-6.285157 3.265625 0 .179687-9.980468-2.519531-9.980468-2.519531l-6.816406 15.730468 17.753906 4.4375c3.339844.820313 6.570312 1.707032 9.765625 2.523438l-5.644531 22.796875 13.671874 3.550781 5.644532-22.546875c3.550781.992187 7.28125 1.917969 10.902344 2.839844l-5.574219 22.441406 13.707031 3.550781 5.683594-22.761718c23.363281 4.441406 40.976562 2.664062 48.363281-18.5 5.96875-17.011719-.28125-26.847657-12.605469-33.238282 8.984375-2.097656 15.730469-7.992187 17.507813-20.136718m71.414062 17.757812c-.136719 69.015625-56.183593 124.859375-125.203125 124.75-69.015625-.109375-124.882812-56.136719-124.796875-125.152344.0859378-69.019531 56.089844-124.9062498 125.105469-124.847656 69.035156 0 125 55.964844 125 125" fill="#87888c"/></svg>