<svg height="250" viewBox="0 0 250 250" width="250" xmlns="http://www.w3.org/2000/svg"><g fill="#87888c"><path d="m125 0c-69.035156 0-125 55.964844-125 125s55.964844 125 125 125 125-55.964844 125-125c-.058594-69.011719-55.988281-124.9414062-125-125zm0 229.367188c-57.640625 0-104.367188-46.726563-104.367188-104.367188s46.726563-104.367188 104.367188-104.367188 104.367188 46.726563 104.367188 104.367188c-.058594 57.617188-46.75 104.308594-104.367188 104.367188zm0 0"/><path d="m125 26.515625c-54.449219 0-98.589844 44.140625-98.589844 98.589844s44.140625 98.589843 98.589844 98.589843 98.589844-44.140624 98.589844-98.589843-44.140625-98.589844-98.589844-98.589844zm44.578125 59.433594-52.816406 71.761719h52.816406v25.386718h-34.085937v20.777344h-21.125v-20.777344h-33.945313v-19.222656l52.816406-71.691406h-52.816406v-25.28125h34.085937v-20.882813h21.125v20.882813h34.085938zm0 0"/></g></svg>