<svg height="250" viewBox="0 0 250 250" width="250" xmlns="http://www.w3.org/2000/svg"><path d="m250 125c0 69.035156-55.964844 125-125 125s-125-55.964844-125-125 55.964844-125 125-125 125 55.964844 125 125zm0 0" fill="#5f2652"/><path d="m196.074219 157.375-65.398438-117.300781c-1.132812-2.09375-3.320312-3.398438-5.699219-3.398438-2.382812 0-4.570312 1.304688-5.703124 3.398438l-65.375 117.300781c-1.699219 3.023438-.722657 6.949219 2.328124 8.75l65.472657 39.148438c2.109375 1.199218 4.691406 1.199218 6.800781 0l65.375-39.074219c2.898438-1.875 3.976562-5.800781 2.199219-8.824219m-49.425781-47.273438-1.597657-1.351562-.101562-.101562c-.507813-.414063-1.042969-.796876-1.597657-1.148438l-.101562-.101562c-.523438-.347657-1.074219-.722657-1.699219-1.074219-.101562 0-.101562-.097657-.175781-.097657-.523438-.351562-1.148438-.625-1.699219-.902343-.101562 0-.101562-.097657-.175781-.097657-.523438-.277343-1.148438-.527343-1.773438-.800781-.101562 0-.101562-.101562-.175781-.101562-.527343-.175781-1.074219-.449219-1.601562-.625-1.445313-.539063-2.933594-.957031-4.449219-1.25-1.148438 2.226562-2.773438 4.199219-4.550781 5.875 2.777343.175781 5.449219.902343 7.851562 1.875 1.417969.613281 2.789063 1.332031 4.097657 2.152343.070312.003907.136718.042969.175781.097657.351562.175781.625.449219.976562.726562.167969.089844.320313.210938.449219.347657.324219.210937.625.457031.898438.726562.175781.175781.351562.273438.527343.449219.273438.277343.523438.449219.800781.726562l1.773438 1.773438c.1875.257812.398438.5.625.726562.175781.199219.351562.449219.523438.625l.527343.800781c.175781.273438.347657.449219.449219.722657l.523438.800781c.175781.273438.277343.523438.453124.726562.171876.273438.273438.523438.449219.796876.175781.277343.273438.527343.449219.800781.101562.277343.273438.527343.351562.800781.171876.351562.273438.726562.449219.976562.75 1.824219 1.261719 3.742188 1.523438 5.699219l.800781 3.125c.351562 1.347657 3.574219 12.75 11.050781 16.597657 8.574219 4.453124 19.898438 10 24.347657 12.125l-58.75 35.152343v-24.074219c0-3.828124 7.578124-8.300781 11.050781-9.800781l.175781-.101562c.726562-.347657 1.425781-.722657 2.148438-1.148438l.277343-.175781c1.519531-.902344 2.953125-1.949219 4.273438-3.125.101562-.101562.277343-.175781.351562-.351562.175781-.097657.273438-.273438.449219-.347657.449219-.351562.800781-.800781 1.25-1.152343l.175781-.171876c.460938-.433593.878907-.910156 1.25-1.425781.097657-.175781.273438-.277343.347657-.449219.351562-.351562.625-.800781.976562-1.25.101562-.101562.175781-.277343.273438-.351562l1.078124-1.601562c0-.097657.097657-.097657.097657-.171876.449219-.726562.902343-1.527343 1.351562-2.226562-1.777343-2.148438-3.125-4.449219-4.199219-6.601562-.457031 1.324218-1.027343 2.601562-1.703124 3.828124-.273438.523438-.625 1.074219-.898438 1.597657-.101562.101562-.101562.175781-.175781.175781-.273438.433594-.574219.851562-.898438 1.25-.101562.101562-.175781.273438-.277343.351562-.277344.417969-.601563.804688-.972657 1.148438-.101562.101562-.101562.175781-.175781.175781-2.148438 2.398438-4.726562 4.449219-7.675781 5.875l-.523438.273438c-1.527343.625-14.625 6.601562-14.625 15.601562v24.074219l-58.875-35.050781c3.824219-2.324219 14.898438-8.925781 24-11.773438 3.574219-1.152343 11.148438 3.648438 15.425781 7.125l.273438.273438c.550781.554687 1.144531 1.066406 1.773438 1.527343l.175781.171876c1.351562 1.078124 2.777343 2.152343 4.375 2.953124l1.074219.523438c.070312.007812.136718.042969.175781.101562.976562.523438 1.949219.972657 3.027343 1.421876.144532.070312.292969.128906.449219.175781.097657 0 .175781.101562.347657.101562 1.527343.523438 3.027343.972657 4.550781 1.347657 1.152343-2.222657 2.851562-4.199219 4.652343-5.875-2.507812-.167969-4.976562-.707032-7.328124-1.597657-.097657-.101562-.273438-.101562-.347657-.175781-.28125-.085938-.546875-.203125-.800781-.351562-.101562-.097657-.273438-.097657-.351562-.171876-.273438-.101562-.523438-.277343-.722657-.351562-1.777343-.898438-3.402343-1.875-4.902343-3.125l-2.324219-2.148438c-2.148438-1.890624-4.476563-3.566406-6.949219-5-5.800781-3.300781-10.699219-4.375-14.449219-3.203124-7.75 2.5-16.601562 7.226562-21.949219 10.351562l58.773438-105.601562v46.300781c0 1.601562-2.398438 5.875-10.523438 9.550781l-.527343.273438c-.800781.351562-1.523438.800781-2.324219 1.25l-.175781.101562c-1.539063.925781-3 1.96875-4.375 3.125-.863281.703125-1.667969 1.480469-2.398438 2.324219l-.101562.101562c-.789063.765625-1.507813 1.601563-2.148438 2.5l-.101562.097657c-.347657.453124-.625.902343-.972657 1.351562 0 .101562-.101562.101562-.101562.175781-.273438.449219-.523438.800781-.800781 1.25 0 .097657-.097657.097657-.097657.175781l-.800781 1.347657c-.101562.101562-.101562.175781-.175781.351562-.273438.449219-.449219.898438-.625 1.25-.007812.070313-.042969.132813-.101562.175781-.171876.449219-.347657.796876-.523438 1.25-.070312.144532-.128906.292969-.175781.449219l-.523438 1.347657c-.070312.148437-.128906.296874-.175781.453124-.082031.335938-.199219.660157-.351562.972657-.097657.175781-.097657.351562-.171876.527343-.101562.449219-.277343.898438-.351562 1.25-.101562.171876-.101562.449219-.175781.625-.097657.273438-.097657.625-.175781.898438-.097657.273438-.097657.523438-.171876.800781-.101562.347657-.101562.722657-.175781 1.074219 0 .273438-.101562.449219-.101562.726562 0 .347657-.097657.625-.097657.972657.015626.328125-.019531.65625-.101562.976562v1.347657c-.011719 1.617187.105469 3.230468.351562 4.828124 2.324219.523438 4.722657 1.523438 7.324219 2.773438-.726562-2.324219-1.074219-4.726562-1.152343-7.226562v-.449219c-.015626-.59375.019531-1.1875.101562-1.773438v-.449219c0-.527343.101562-.976562.175781-1.527343v-.175781c.097657-.523438.175781-1.074219.273438-1.699219 0-.175781.101562-.273438.101562-.449219.097657-.449219.273438-.898438.347657-1.351562 0-.097657.101562-.171876.101562-.273438l.523438-1.601562c.101562-.097657.101562-.273438.175781-.347657.175781-.449219.351562-.902343.527343-1.25.097657-.101562.097657-.175781.171876-.351562.277343-.523438.453124-.972657.800781-1.425781.066406-.085938.125-.175782.175781-.273438.273438-.449219.449219-.800781.726562-1.25.066407-.085938.125-.179688.171876-.273438.300781-.46875.628906-.917968.976562-1.351562 0-.027344.007812-.050781.027344-.070312.019531-.019532.046875-.03125.074218-.03125.347657-.449219.625-.796876.972657-1.25.066406-.085938.125-.175782.175781-.273438 1.609375-1.777344 3.441406-3.339844 5.449219-4.648438l2.777343-1.351562c1.523438-.625 14.546876-6.773438 14.546876-15.800781v-46.125l59.328124 106.5c-5.277343-2.574219-14.625-7.222657-21.851562-10.972657-4.199219-2.152343-6.949219-9.726562-7.75-12.5l-.800781-3.203124c0-1.699219-.449219-3.398438-.972657-5.074219-1.886718-5.296875-5.097656-10.023438-9.328124-13.722657" fill="#fff"/></svg>