
<svg xmlns="http://www.w3.org/2000/svg" xmlns:xlink="http://www.w3.org/1999/xlink" width="250px" height="250px" viewBox="0 0 250 250" version="1.1">
<g id="surface1">
<path style=" stroke:none;fill-rule:nonzero;fill:rgb(5.490196%,5.490196%,12.941177%);fill-opacity:1;" d="M 250 125 C 250 194.035156 194.035156 250 125 250 C 55.964844 250 0 194.035156 0 125 C 0 55.964844 55.964844 0 125 0 C 194.035156 0 250 55.964844 250 125 Z M 250 125 "/>
<path style=" stroke:none;fill-rule:nonzero;fill:rgb(100%,100%,100%);fill-opacity:1;" d="M 194.773438 154.050781 L 179.902344 128.828125 C 179.351562 127.890625 178.128906 127.605469 177.230469 128.191406 L 167.546875 134.480469 C 166.671875 135.039062 166.402344 136.210938 166.929688 137.109375 L 175.433594 151.523438 C 175.703125 151.980469 175.5625 152.554688 175.125 152.839844 L 125.511719 185.066406 C 125.191406 185.273438 124.792969 185.273438 124.484375 185.066406 L 74.882812 152.839844 C 74.445312 152.554688 74.320312 151.96875 74.574219 151.523438 L 83.078125 137.109375 C 83.605469 136.210938 83.335938 135.039062 82.460938 134.480469 L 72.777344 128.191406 C 71.867188 127.605469 70.660156 127.890625 70.105469 128.828125 L 55.234375 154.050781 C 54.167969 155.847656 54.707031 158.179688 56.453125 159.3125 L 122.941406 202.515625 C 124.203125 203.335938 125.820312 203.335938 127.078125 202.515625 L 193.566406 159.3125 C 195.289062 158.179688 195.828125 155.847656 194.773438 154.050781 Z M 194.773438 154.050781 "/>
<path style=" stroke:none;fill-rule:nonzero;fill:rgb(16.470589%,90.588236%,65.882355%);fill-opacity:1;" d="M 80.546875 114.765625 L 90.230469 121.054688 C 91.144531 121.640625 92.351562 121.355469 92.902344 120.417969 L 124.175781 67.398438 C 124.546875 66.773438 125.445312 66.773438 125.820312 67.398438 L 157.09375 120.417969 C 157.644531 121.355469 158.863281 121.640625 159.765625 121.054688 L 169.449219 114.765625 C 170.320312 114.207031 170.589844 113.035156 170.0625 112.136719 L 132.691406 48.765625 C 131.996094 47.59375 130.75 46.875 129.402344 46.875 L 120.59375 46.875 C 119.242188 46.875 118 47.59375 117.304688 48.765625 L 79.929688 112.136719 C 79.40625 113.035156 79.675781 114.207031 80.546875 114.765625 Z M 80.546875 114.765625 "/>
</g>
</svg>
