<svg height="250" viewBox="0 0 250 250" width="250" xmlns="http://www.w3.org/2000/svg"><path d="m250 125c0 69.035156-55.964844 125-125 125s-125-55.964844-125-125 55.964844-125 125-125 125 55.964844 125 125zm0 0" fill="#0e0e21"/><path d="m194.773438 154.050781-14.871094-25.222656c-.550782-.9375-1.773438-1.222656-2.671875-.636719l-9.683594 6.289063c-.875.558593-1.144531 1.730469-.617187 2.628906l8.503906 14.414063c.269531.457031.128906 1.03125-.308594 1.316406l-49.613281 32.226562c-.320313.207032-.71875.207032-1.027344 0l-49.601563-32.226562c-.4375-.285156-.5625-.871094-.308593-1.316406l8.503906-14.414063c.527344-.898437.257813-2.070313-.617187-2.628906l-9.683594-6.289063c-.910156-.585937-2.117188-.300781-2.671875.636719l-14.871094 25.222656c-1.066406 1.796875-.527344 4.128907 1.21875 5.261719l66.488281 43.203125c1.261719.820313 2.878906.820313 4.136719 0l66.488281-43.203125c1.722656-1.132812 2.261719-3.464844 1.207032-5.261719zm0 0" fill="#fff"/><path d="m80.546875 114.765625 9.683594 6.289063c.914062.585937 2.121093.300781 2.671875-.636719l31.273437-53.019531c.371094-.625 1.269531-.625 1.644531 0l31.273438 53.019531c.550781.9375 1.769531 1.222656 2.671875.636719l9.683594-6.289063c.871093-.558594 1.140625-1.730469.613281-2.628906l-37.371094-63.371094c-.695312-1.171875-1.941406-1.890625-3.289062-1.890625h-8.808594c-1.351562 0-2.59375.71875-3.289062 1.890625l-37.375 63.371094c-.523438.898437-.253907 2.070312.617187 2.628906zm0 0" fill="#2ae7a8"/></svg>