<svg height="250" viewBox="0 0 250 250" width="250" xmlns="http://www.w3.org/2000/svg"><path d="m158.460938 137.8125 51.976562-51.777344c3.894531-3.871094 6.082031-9.128906 6.082031-14.617187l.089844-41.882813c-.007813-2.15625-.839844-4.226562-2.332031-5.785156l-99.695313 99.414062c-8.089843 8.070313-8.105469 21.167969-.039062 29.261719l.039062.039063 70.300781 70.082031c8.121094 7.890625 21.078126 7.785156 29.070313-.234375s8.054687-20.976562.132813-29.070312zm0 0" fill="#008c62"/><path d="m208.472656 21.421875h-156.574218c-12.722657 0-22.082032 9.582031-22.082032 22.636719v163.402344c0 11.640624 9.011719 21.066406 21.070313 21.066406 11.632812 0 21.066406-8.882813 21.066406-21.066406v-145.71875h104.210937l38.113282-37.992188c-1.539063-1.53125-3.636719-2.371094-5.804688-2.328125zm0 0" fill="#00e6a0"/></svg>