<svg height="250" viewBox="0 0 250 250" width="250" xmlns="http://www.w3.org/2000/svg" xmlns:xlink="http://www.w3.org/1999/xlink"><clipPath id="a"><path d="m250.371094 125.183594c0 69.140625-56.046875 125.1875-125.1875 125.1875-69.136719 0-125.183594-56.046875-125.183594-125.1875 0-69.136719 56.046875-125.183594 125.183594-125.183594 69.140625 0 125.1875 56.046875 125.1875 125.183594zm0 0"/></clipPath><linearGradient id="b" gradientTransform="matrix(.231481 0 0 -.231481 0 250)" gradientUnits="userSpaceOnUse" x1="-4.7037" x2="1077.989746" y1="2.0104" y2="1071.358398"><stop offset="0" stop-color="#ffd275"/><stop offset=".1315" stop-color="#feca74"/><stop offset=".358" stop-color="#fbb570"/><stop offset=".6523" stop-color="#f79569"/><stop offset="1" stop-color="#f2665f"/></linearGradient><clipPath id="c"><path d="m30 46h36v45h-36zm0 0"/></clipPath><clipPath id="d"><path d="m250.371094 125.183594c0 69.140625-56.046875 125.1875-125.1875 125.1875-69.136719 0-125.183594-56.046875-125.183594-125.1875 0-69.136719 56.046875-125.183594 125.183594-125.183594 69.140625 0 125.1875 56.046875 125.1875 125.183594zm0 0"/></clipPath><clipPath id="e"><path d="m34 0h27v31h-27zm0 0"/></clipPath><clipPath id="f"><path d="m250.371094 125.183594c0 69.140625-56.046875 125.1875-125.1875 125.1875-69.136719 0-125.183594-56.046875-125.183594-125.1875 0-69.136719 56.046875-125.183594 125.183594-125.183594 69.140625 0 125.1875 56.046875 125.1875 125.183594zm0 0"/></clipPath><clipPath id="g"><path d="m65 2h72v42h-72zm0 0"/></clipPath><clipPath id="h"><path d="m250.371094 125.183594c0 69.140625-56.046875 125.1875-125.1875 125.1875-69.136719 0-125.183594-56.046875-125.183594-125.1875 0-69.136719 56.046875-125.183594 125.183594-125.183594 69.140625 0 125.1875 56.046875 125.1875 125.183594zm0 0"/></clipPath><clipPath id="i"><path d="m169 39h40v83h-40zm0 0"/></clipPath><clipPath id="j"><path d="m250.371094 125.183594c0 69.140625-56.046875 125.1875-125.1875 125.1875-69.136719 0-125.183594-56.046875-125.183594-125.1875 0-69.136719 56.046875-125.183594 125.183594-125.183594 69.140625 0 125.1875 56.046875 125.1875 125.183594zm0 0"/></clipPath><clipPath id="k"><path d="m139 90h23v36h-23zm0 0"/></clipPath><clipPath id="l"><path d="m250.371094 125.183594c0 69.140625-56.046875 125.1875-125.1875 125.1875-69.136719 0-125.183594-56.046875-125.183594-125.1875 0-69.136719 56.046875-125.183594 125.183594-125.183594 69.140625 0 125.1875 56.046875 125.1875 125.183594zm0 0"/></clipPath><clipPath id="m"><path d="m120 142h17v29h-17zm0 0"/></clipPath><clipPath id="n"><path d="m250.371094 125.183594c0 69.140625-56.046875 125.1875-125.1875 125.1875-69.136719 0-125.183594-56.046875-125.183594-125.1875 0-69.136719 56.046875-125.183594 125.183594-125.183594 69.140625 0 125.1875 56.046875 125.1875 125.183594zm0 0"/></clipPath><clipPath id="o"><path d="m144 172h18v27h-18zm0 0"/></clipPath><clipPath id="p"><path d="m250.371094 125.183594c0 69.140625-56.046875 125.1875-125.1875 125.1875-69.136719 0-125.183594-56.046875-125.183594-125.1875 0-69.136719 56.046875-125.183594 125.183594-125.183594 69.140625 0 125.1875 56.046875 125.1875 125.183594zm0 0"/></clipPath><clipPath id="q"><path d="m161 200h26v43h-26zm0 0"/></clipPath><clipPath id="r"><path d="m250.371094 125.183594c0 69.140625-56.046875 125.1875-125.1875 125.1875-69.136719 0-125.183594-56.046875-125.183594-125.1875 0-69.136719 56.046875-125.183594 125.183594-125.183594 69.140625 0 125.1875 56.046875 125.1875 125.183594zm0 0"/></clipPath><clipPath id="s"><path d="m0 170h95v80h-95zm0 0"/></clipPath><clipPath id="t"><path d="m250.371094 125.183594c0 69.140625-56.046875 125.1875-125.1875 125.1875-69.136719 0-125.183594-56.046875-125.183594-125.1875 0-69.136719 56.046875-125.183594 125.183594-125.183594 69.140625 0 125.1875 56.046875 125.1875 125.183594zm0 0"/></clipPath><clipPath id="u"><path d="m250.371094 125.183594c0 69.140625-56.046875 125.1875-125.1875 125.1875-69.136719 0-125.183594-56.046875-125.183594-125.1875 0-69.136719 56.046875-125.183594 125.183594-125.183594 69.140625 0 125.1875 56.046875 125.1875 125.183594zm0 0"/></clipPath><filter id="v" height="100%" width="100%" x="0%" y="0%"><feColorMatrix in="SourceGraphic" type="matrix" values="0 0 0 0 1 0 0 0 0 1 0 0 0 0 1 0 0 0 1 0"/></filter><mask id="w"><g filter="url(#v)"><path d="m0 0h250v250h-250z" fill-opacity=".15"/></g></mask><linearGradient id="x" gradientTransform="matrix(.231481 0 0 -.231481 0 250)" gradientUnits="userSpaceOnUse" x1=".3" x2="464.5" y1="316.299988" y2="316.299988"><stop offset="0" stop-color="#f296bf"/><stop offset=".214" stop-color="#f19dc1"/><stop offset=".5823" stop-color="#f0b0ca"/><stop offset="1" stop-color="#f0cdd7"/></linearGradient><linearGradient id="y" gradientTransform="matrix(.231481 0 0 -.231481 0 250)" gradientUnits="userSpaceOnUse" x1="308.566803" x2="1093.806885" y1="-52.604801" y2="1061.047241"><stop offset="0" stop-color="#f6ad6c"/><stop offset=".121" stop-color="#f6a871"/><stop offset=".3295" stop-color="#f49b7d"/><stop offset=".6003" stop-color="#f2858d"/><stop offset=".9197" stop-color="#ef629b"/><stop offset="1" stop-color="#ef579f"/></linearGradient><linearGradient id="z" gradientTransform="matrix(.231481 0 0 -.231481 0 250)" gradientUnits="userSpaceOnUse" x1="510.175415" x2="988.825378" y1="26.6103" y2="705.43042"><stop offset="0" stop-color="#db2166"/><stop offset=".1441" stop-color="#dc2262"/><stop offset=".3922" stop-color="#e02257"/><stop offset=".7122" stop-color="#e62344"/><stop offset="1" stop-color="#ee232e"/></linearGradient><linearGradient id="A" gradientTransform="matrix(.231481 0 0 -.231481 0 250)" gradientUnits="userSpaceOnUse" x1="359.502289" x2="669.97229" y1="582.54248" y2="1022.876526"><stop offset="0" stop-color="#e074ad"/><stop offset=".1738" stop-color="#e27cad"/><stop offset=".4731" stop-color="#e890ae"/><stop offset=".8594" stop-color="#f3b3b0"/><stop offset="1" stop-color="#f9c1b0"/></linearGradient><linearGradient id="B" gradientTransform="matrix(.231481 0 0 -.231481 0 250)" gradientUnits="userSpaceOnUse" x1="716" x2="1060.300049" y1="1041.599976" y2="1041.599976"><stop offset="0" stop-color="#ed1982"/><stop offset=".4921" stop-color="#ed1b87"/><stop offset="1" stop-color="#ed1d8f"/></linearGradient><mask id="C"><g filter="url(#v)"><path d="m0 0h250v250h-250z" fill-opacity=".5"/></g></mask><clipPath id="D"><path d="m0 0h250v250h-250z"/></clipPath><linearGradient id="E" gradientTransform="matrix(.231481 0 0 -.231481 0 250)" gradientUnits="userSpaceOnUse" x1="600.900024" x2="639.700012" y1="387.25" y2="387.25"><stop offset="0" stop-color="#1e3567"/><stop offset=".1984" stop-color="#1c3966"/><stop offset=".5399" stop-color="#144465"/><stop offset=".981" stop-color="#075362"/><stop offset="1" stop-color="#065461"/></linearGradient><linearGradient id="F"><stop offset="0" stop-color="#02a0b5" stop-opacity="0"/><stop offset=".9517" stop-color="#009ab4" stop-opacity=".7614"/><stop offset="1" stop-color="#009ab4" stop-opacity=".8"/></linearGradient><linearGradient id="G" gradientTransform="matrix(.231481 0 0 -.231481 0 250)" gradientUnits="userSpaceOnUse" x1="1.8306" x2="559.361084" xlink:href="#F" y1="761.151917" y2="399.01181"/><mask id="H"><g filter="url(#v)"><path d="m0 0h250v250h-250z" fill-opacity=".3"/></g></mask><clipPath id="I"><path d="m0 0h250v250h-250z"/></clipPath><mask id="J"><g filter="url(#v)"><path d="m0 0h250v250h-250z" fill-opacity=".3"/></g></mask><clipPath id="K"><path d="m0 0h250v250h-250z"/></clipPath><mask id="L"><g filter="url(#v)"><path d="m0 0h250v250h-250z" fill-opacity=".3"/></g></mask><clipPath id="M"><path d="m0 0h250v250h-250z"/></clipPath><mask id="N"><g filter="url(#v)"><path d="m0 0h250v250h-250z" fill-opacity=".3"/></g></mask><clipPath id="O"><path d="m0 0h250v250h-250z"/></clipPath><mask id="P"><g filter="url(#v)"><path d="m0 0h250v250h-250z" fill-opacity=".3"/></g></mask><clipPath id="Q"><path d="m0 0h250v250h-250z"/></clipPath><mask id="R"><g filter="url(#v)"><path d="m0 0h250v250h-250z" fill-opacity=".3"/></g></mask><clipPath id="S"><path d="m0 0h250v250h-250z"/></clipPath><mask id="T"><g filter="url(#v)"><path d="m0 0h250v250h-250z" fill-opacity=".3"/></g></mask><clipPath id="U"><path d="m0 0h250v250h-250z"/></clipPath><mask id="V"><g filter="url(#v)"><path d="m0 0h250v250h-250z" fill-opacity=".3"/></g></mask><clipPath id="W"><path d="m0 0h250v250h-250z"/></clipPath><mask id="X"><g filter="url(#v)"><path d="m0 0h250v250h-250z" fill-opacity=".3"/></g></mask><clipPath id="Y"><path d="m0 0h250v250h-250z"/></clipPath><mask id="Z"><g filter="url(#v)"><path d="m0 0h250v250h-250z" fill-opacity=".3"/></g></mask><clipPath id="aa"><path d="m0 0h250v250h-250z"/></clipPath><mask id="ab"><g filter="url(#v)"><path d="m0 0h250v250h-250z" fill-opacity=".3"/></g></mask><clipPath id="ac"><path d="m0 0h250v250h-250z"/></clipPath><mask id="ad"><g filter="url(#v)"><path d="m0 0h250v250h-250z" fill-opacity=".3"/></g></mask><clipPath id="ae"><path d="m0 0h250v250h-250z"/></clipPath><mask id="af"><g filter="url(#v)"><path d="m0 0h250v250h-250z" fill-opacity=".3"/></g></mask><clipPath id="ag"><path d="m0 0h250v250h-250z"/></clipPath><mask id="ah"><g filter="url(#v)"><path d="m0 0h250v250h-250z" fill-opacity=".3"/></g></mask><clipPath id="ai"><path d="m0 0h250v250h-250z"/></clipPath><mask id="aj"><g filter="url(#v)"><path d="m0 0h250v250h-250z" fill-opacity=".3"/></g></mask><clipPath id="ak"><path d="m0 0h250v250h-250z"/></clipPath><mask id="al"><g filter="url(#v)"><path d="m0 0h250v250h-250z" fill-opacity=".3"/></g></mask><clipPath id="am"><path d="m0 0h250v250h-250z"/></clipPath><mask id="an"><g filter="url(#v)"><path d="m0 0h250v250h-250z" fill-opacity=".3"/></g></mask><clipPath id="ao"><path d="m0 0h250v250h-250z"/></clipPath><mask id="ap"><g filter="url(#v)"><path d="m0 0h250v250h-250z" fill-opacity=".3"/></g></mask><clipPath id="aq"><path d="m0 0h250v250h-250z"/></clipPath><mask id="ar"><g filter="url(#v)"><path d="m0 0h250v250h-250z" fill-opacity=".2"/></g></mask><clipPath id="as"><path d="m0 0h250v250h-250z"/></clipPath><mask id="at"><g filter="url(#v)"><path d="m0 0h250v250h-250z" fill-opacity=".2"/></g></mask><clipPath id="au"><path d="m0 0h250v250h-250z"/></clipPath><mask id="av"><g filter="url(#v)"><path d="m0 0h250v250h-250z" fill-opacity=".8"/></g></mask><clipPath id="aw"><path d="m0 0h250v250h-250z"/></clipPath><mask id="ax"><g filter="url(#v)"><path d="m0 0h250v250h-250z" fill-opacity=".2"/></g></mask><clipPath id="ay"><path d="m0 0h250v250h-250z"/></clipPath><mask id="az"><g filter="url(#v)"><path d="m0 0h250v250h-250z" fill-opacity=".2"/></g></mask><clipPath id="aA"><path d="m0 0h250v250h-250z"/></clipPath><mask id="aB"><g filter="url(#v)"><path d="m0 0h250v250h-250z" fill-opacity=".68"/></g></mask><clipPath id="aC"><path d="m0 0h250v250h-250z"/></clipPath><mask id="aD"><g filter="url(#v)"><path d="m0 0h250v250h-250z" fill-opacity=".8"/></g></mask><clipPath id="aE"><path d="m0 0h250v250h-250z"/></clipPath><linearGradient id="aF" gradientTransform="matrix(.231481 0 0 -.231481 0 250)" gradientUnits="userSpaceOnUse" x1="141.100006" x2="330.600006" xlink:href="#F" y1="443.149994" y2="443.149994"/><mask id="aG"><g filter="url(#v)"><path d="m0 0h250v250h-250z" fill-opacity=".5"/></g></mask><clipPath id="aH"><path d="m0 0h250v250h-250z"/></clipPath><clipPath id="aI"><path d="m0 0h250v250h-250z"/></clipPath><clipPath id="aJ"><path d="m250.371094 125.183594c0 69.140625-56.046875 125.1875-125.1875 125.1875-69.136719 0-125.183594-56.046875-125.183594-125.1875 0-69.136719 56.046875-125.183594 125.183594-125.183594 69.140625 0 125.1875 56.046875 125.1875 125.183594zm0 0"/></clipPath><mask id="aK"><g filter="url(#v)"><path d="m0 0h250v250h-250z" fill-opacity=".7"/></g></mask><clipPath id="aL"><path d="m0 0h250v250h-250z"/></clipPath><g clip-path="url(#a)" fill="url(#b)"><path d="m0 0h250v250h-250z"/><path d="m0 0h250v250h-250z"/></g><g clip-path="url(#c)"><g clip-path="url(#d)"><path d="m63.195312 90.253906h-29.628906c-1.53125 0-2.78125-1.25-2.78125-2.777344v-38.585937c0-1.53125 1.25-2.78125 2.78125-2.78125h29.628906c1.527344 0 2.777344 1.25 2.777344 2.78125v38.585937c0 1.527344-1.25 2.777344-2.777344 2.777344zm0 0" fill="#f8a171"/></g></g><g clip-path="url(#e)"><g clip-path="url(#f)"><path d="m57.339844 30.832031h-19.746094c-1.527344 0-2.777344-1.25-2.777344-2.777343v-27.082032c0-1.527344 1.25-2.777344 2.777344-2.777344h19.746094c1.527344 0 2.777344 1.25 2.777344 2.777344v27.082032c0 1.527343-1.25 2.777343-2.777344 2.777343zm0 0" fill="#faaa71"/></g></g><g clip-path="url(#g)"><g clip-path="url(#h)"><path d="m133.566406 43.796875h-64.816406c-1.527344 0-2.777344-1.25-2.777344-2.777344v-35.417969c0-1.527343 1.25-2.777343 2.777344-2.777343h64.816406c1.527344 0 2.777344 1.25 2.777344 2.777343v35.417969c0 1.550781-1.25 2.777344-2.777344 2.777344zm0 0" fill="#f9a471"/></g></g><g clip-path="url(#i)"><g clip-path="url(#j)"><path d="m205.484375 121.574219h-33.65625c-1.527344 0-2.777344-1.25-2.777344-2.777344v-76.851563c0-1.527343 1.25-2.777343 2.777344-2.777343h33.636719c1.527344 0 2.777344 1.25 2.777344 2.777343v76.851563c.023437 1.527344-1.226563 2.777344-2.757813 2.777344zm0 0" fill="#f7956b"/></g></g><g clip-path="url(#k)"><g clip-path="url(#l)"><path d="m158.265625 125.277344h-15.742187c-1.527344 0-2.777344-1.25-2.777344-2.777344v-29.003906c0-1.527344 1.25-2.777344 2.777344-2.777344h15.742187c1.527344 0 2.777344 1.25 2.777344 2.777344v29.003906c0 1.527344-1.25 2.777344-2.777344 2.777344zm0 0" fill="#faab72"/></g></g><g clip-path="url(#m)"><g clip-path="url(#n)"><path d="m133.566406 170.183594h-10.488281c-1.527344 0-2.777344-1.25-2.777344-2.777344v-22.523438c0-1.527343 1.25-2.777343 2.777344-2.777343h10.488281c1.527344 0 2.777344 1.25 2.777344 2.777343v22.523438c0 1.527344-1.25 2.777344-2.777344 2.777344zm0 0" fill="#f9a571"/></g></g><g clip-path="url(#o)"><g clip-path="url(#p)"><path d="m158.265625 198.75h-11.414063c-1.527343 0-2.777343-1.25-2.777343-2.777344v-20.671875c0-1.527343 1.25-2.777343 2.777343-2.777343h11.414063c1.527344 0 2.777344 1.25 2.777344 2.777343v20.671875c0 1.527344-1.25 2.777344-2.777344 2.777344zm0 0" fill="#fbb171"/></g></g><g clip-path="url(#q)"><g clip-path="url(#r)"><path d="m163.820312 200.277344h20.371094c1.527344 0 2.777344 1.25 2.777344 2.777344v37.039062c0 1.527344-1.25 2.777344-2.777344 2.777344h-20.371094c-1.527343 0-2.777343-1.25-2.777343-2.777344v-37.039062c0-1.503907 1.25-2.777344 2.777343-2.777344zm0 0" fill="#f89e71"/></g></g><g clip-path="url(#s)"><g clip-path="url(#t)"><path d="m-.695312 249.816406h91.96875c1.527343 0 2.777343-1.25 2.777343-2.78125v-74.070312c0-1.53125-1.25-2.78125-2.777343-2.78125h-91.96875c-1.527344 0-2.777344 1.25-2.777344 2.78125v74.070312c0 1.53125 1.25 2.78125 2.777344 2.78125zm0 0" fill="#fcbb71"/></g></g><g clip-path="url(#u)"><g clip-path="url(#aI)" mask="url(#w)"><path d="m0 0h250v250h-250z" fill="#fff"/><path d="m45.832031 76.179688-13.171875 20.535156 89.910156-15.605469v-19.71875zm0 0" fill="#dbc2de"/><path d="m3.820312 264.46875 103.703126-153.566406-10.742188-21.804688-96.7109375 141.273438zm0 0" fill="url(#x)"/><path d="m156.480469-1.226562 44.421875-10.371094-35.160156 51.691406zm0 0" fill="#ed1c24"/><path d="m140.832031 257.429688 117.664063-184.976563-31.019532-125.277344-207.660156 321.25zm0 0" fill="url(#y)"/><path d="m104.558594 260.277344 123.773437-197.777344 5.511719 24.351562-108.566406 171.804688zm0 0" fill="url(#z)"/><path d="m56.804688 21.945312 23.171874 107.777344 100.832032-22.316406-24.328125-108.632812zm0 0" fill="url(#A)"/><path d="m170.765625 62.5 74.675781-16.804688-22.039062-90.417968-57.660156 84.816406zm0 0" fill="url(#B)"/><path d="m78.449219 16.898438-37.292969 60.671874 5.511719 42.011719 66.226562-110.691406zm0 0" fill="#ed1e24"/><path d="m56.804688 21.945312 4.816406 22.359376 16.828125-27.40625zm0 0" fill="#f7c752"/><path d="m94.121094 13.265625 3.171875 21.710937 15.601562-26.085937zm0 0" fill="#f26422"/><g clip-path="url(#D)" mask="url(#C)"><path d="m111.851562 66.574219-6.667968-31.597657-23.449219 37.476563zm0 0" fill="#7c8fb7"/></g><path d="m79.976562 129.722656 7.246094 34.769532 27.175782-42.386719zm0 0" fill="#f26328"/><path d="m69.792969 163.632812 57.660156-9.28125-44.90625 67.800782zm0 0" fill="#f36e37"/><path d="m74.167969 183.632812 15.949219-23.285156-20.324219 3.285156zm0 0" fill="#f7b351"/><path d="m70.878906 228.519531 2.894532 11.015625 8.402343-13.03125zm0 0" fill="#ec165f"/><path d="m87.222656 164.492188 2.894532-4.144532-3.636719.601563zm0 0" fill="#f15822"/><path d="m139.097656 156.875 2.3125 9.28125 6.667969-11.597656zm0 0" fill="url(#E)"/><path d="m2.917969 65.808594 126.78125-25.4375-110.902344 162.777344zm0 0" fill="url(#G)"/><path d="m110.507812 9.375-13.726562 22.199219-2.660156-18.308594zm0 0" fill="#ef4823"/><path d="m6.273438 232.941406 34.746093-6.738281-29.769531 46.136719zm0 0" fill="#f6aa59"/><path d="m10.023438 262.683594 24.582031-35.183594-28.332031 5.441406zm0 0" fill="#f37053"/><g clip-path="url(#I)" mask="url(#H)"><path d="m443.998125 1004.805 465.699375-734.805" fill="none" stroke="#fff" stroke-miterlimit="10" stroke-width="4.5" transform="scale(.231481)"/></g><g clip-path="url(#K)" mask="url(#J)"><path d="m487.400625 997.396875 427.393125-674.3925" fill="none" stroke="#fff" stroke-miterlimit="10" stroke-width="4.5" transform="scale(.231481)"/></g><g clip-path="url(#M)" mask="url(#L)"><path d="m537.705 979.104375 382.303125-603.1125" fill="none" stroke="#fff" stroke-miterlimit="10" stroke-width="4.5" transform="scale(.231481)"/></g><g clip-path="url(#O)" mask="url(#N)"><path d="m576.399375 979.104375 348.705-550.209375" fill="none" stroke="#fff" stroke-miterlimit="10" stroke-width="4.5" transform="scale(.231481)"/></g><g clip-path="url(#Q)" mask="url(#P)"><path d="m622.805625 962.499375 316.1025-498.8925" fill="none" stroke="#fff" stroke-miterlimit="10" stroke-width="4.5" transform="scale(.231481)"/></g><g clip-path="url(#S)" mask="url(#R)"><path d="m670.393125 945.894375 276.31125-435.999375" fill="none" stroke="#fff" stroke-miterlimit="10" stroke-width="4.5" transform="scale(.231481)"/></g><g clip-path="url(#U)" mask="url(#T)"><path d="m190.603125 205.605 348.705-550.209375" fill="none" stroke="#fff" stroke-miterlimit="10" stroke-width="4.5" transform="scale(.231481)"/></g><g clip-path="url(#W)" mask="url(#V)"><path d="m236.908125 189 316.186875-498.8925" fill="none" stroke="#fff" stroke-miterlimit="10" stroke-width="4.5" transform="scale(.231481)"/></g><g clip-path="url(#Y)" mask="url(#X)"><path d="m284.596875 172.395 276.31125-435.999375" fill="none" stroke="#fff" stroke-miterlimit="10" stroke-width="4.5" transform="scale(.231481)"/></g><g clip-path="url(#aa)" mask="url(#Z)"><path d="m-9.399375 1098.6975 584.701875-922.59" fill="none" stroke="#b44b34" stroke-miterlimit="10" stroke-width="4.5" transform="scale(.231481)"/></g><g clip-path="url(#ac)" mask="url(#ab)"><path d="m-31.606875 1039.2975 584.701875-922.59" fill="none" stroke="#b44b34" stroke-miterlimit="10" stroke-width="4.5" transform="scale(.231481)"/></g><g clip-path="url(#ae)" mask="url(#ad)"><path d="m-53.69625 979.99875 584.600625-922.606875" fill="none" stroke="#b44b34" stroke-miterlimit="10" stroke-width="4.5" transform="scale(.231481)"/></g><g clip-path="url(#ag)" mask="url(#af)"><path d="m-75.90375 920.59875 584.701875-922.606875" fill="none" stroke="#b44b34" stroke-miterlimit="10" stroke-width="4.5" transform="scale(.231481)"/></g><g clip-path="url(#ai)" mask="url(#ah)"><path d="m45.106875 1089.399375 536.59125-846.804375" fill="none" stroke="#b44b34" stroke-miterlimit="10" stroke-width="4.5" transform="scale(.231481)"/></g><g clip-path="url(#ak)" mask="url(#aj)"><path d="m108.30375 1066.5 479.89125-757.400625" fill="none" stroke="#b44b34" stroke-miterlimit="10" stroke-width="4.5" transform="scale(.231481)"/></g><g clip-path="url(#am)" mask="url(#al)"><path d="m156.90375 1066.5 437.788125-690.89625" fill="none" stroke="#b44b34" stroke-miterlimit="10" stroke-width="4.5" transform="scale(.231481)"/></g><g clip-path="url(#ao)" mask="url(#an)"><path d="m215.004375 1045.591875 397.00125-626.4" fill="none" stroke="#b44b34" stroke-miterlimit="10" stroke-width="4.5" transform="scale(.231481)"/></g><g clip-path="url(#aq)" mask="url(#ap)"><path d="m274.89375 1024.801875 346.899375-547.509375" fill="none" stroke="#b44b34" stroke-miterlimit="10" stroke-width="4.5" transform="scale(.231481)"/></g><g clip-path="url(#as)" mask="url(#ar)"><path d="m-499.095 1063.69875 979.4925-1545.699375" fill="none" stroke="#0396b6" stroke-miterlimit="10" stroke-width="4.5" transform="scale(.231481)"/></g><g clip-path="url(#au)" mask="url(#at)"><path d="m-388.395 1041.69375 876.099375-1382.50125" fill="none" stroke="#0396b6" stroke-miterlimit="10" stroke-width="4.5" transform="scale(.231481)"/></g><g clip-path="url(#aw)" mask="url(#av)"><path d="m-2.175781 176.945312v26.203126l78.703125-122.039063v-25.300781zm0 0" fill="#eda3c8"/></g><g clip-path="url(#ay)" mask="url(#ax)"><path d="m-285.89625 1039.2975 799.2-1261.1025" fill="none" stroke="#0396b6" stroke-miterlimit="10" stroke-width="4.5" transform="scale(.231481)"/></g><g clip-path="url(#aA)" mask="url(#az)"><path d="m-164.295 992.401875 724.595625-1143.399375" fill="none" stroke="#0396b6" stroke-miterlimit="10" stroke-width="4.5" transform="scale(.231481)"/></g><g clip-path="url(#aC)" mask="url(#aB)"><path d="m-21.550781 222.800781 46.621093-7.5-6.828124-56.226562zm0 0" fill="#0396b6"/></g><g clip-path="url(#aE)" mask="url(#aD)"><path d="m31.804688 92.941406.789062 8.402344 6.640625-9.308594zm0 0" fill="#006185"/></g><path d="m32.660156 129.46875 13.171875 40.066406 30.695313-44.234375zm0 0" fill="url(#aF)"/><g clip-path="url(#aH)" mask="url(#aG)"><path d="m56.804688 127.175781-16.457032 25.648438-7.6875-23.355469zm0 0" fill="#8d5b76"/></g></g></g><path d="m125.183594 11.574219c15.347656 0 30.210937 3.007812 44.214844 8.910156 13.519531 5.71875 25.671874 13.914063 36.109374 24.355469 10.441407 10.4375 18.636719 22.589844 24.351563 36.109375 5.925781 14.003906 8.914063 28.867187 8.914063 44.210937 0 15.347656-3.007813 30.210938-8.914063 44.214844-5.714844 13.519531-13.910156 25.671875-24.351563 36.109375-10.4375 10.441406-22.589843 18.636719-36.109374 24.355469-14.003907 5.925781-28.867188 8.910156-44.214844 8.910156-15.34375 0-30.207032-3.007812-44.210938-8.910156-13.519531-5.71875-25.671875-13.914063-36.113281-24.355469-10.4375-10.4375-18.632813-22.589844-24.351563-36.109375-5.925781-13.980469-8.933593-28.867188-8.933593-44.191406 0-15.324219 3.007812-30.207032 8.910156-44.210938 5.71875-13.519531 13.914063-25.671875 24.355469-36.113281 10.4375-10.4375 22.589844-18.632813 36.109375-24.351563 14.003906-5.925781 28.890625-8.933593 44.234375-8.933593m0-11.574219c-69.140625 0-125.183594 56.042969-125.183594 125.183594 0 69.144531 56.042969 125.1875 125.183594 125.1875 69.144531 0 125.1875-56.042969 125.1875-125.1875 0-69.140625-56.066406-125.183594-125.1875-125.183594zm0 0" fill="#ffd48a"/><g clip-path="url(#aJ)"><g clip-path="url(#aL)" mask="url(#aK)"><path d="m125.183594 258.449219c-17.984375 0-35.4375-3.519531-51.875-10.484375-15.878906-6.714844-30.113282-16.320313-42.359375-28.566406-12.246094-12.222657-21.851563-26.480469-28.566407-42.339844-6.941406-16.433594-10.484374-33.886719-10.484374-51.875 0-17.984375 3.519531-35.4375 10.484374-51.875 6.714844-15.878906 16.320313-30.113282 28.566407-42.359375 12.246093-12.246094 26.480469-21.851563 42.359375-28.566407 16.414062-6.964843 33.867187-10.484374 51.875-10.484374 17.988281 0 35.441406 3.519531 51.875 10.484374 15.882812 6.714844 30.117187 16.320313 42.363281 28.566407 12.246094 12.246093 21.851563 26.480469 28.5625 42.359375 6.945313 16.4375 10.488281 33.890625 10.488281 51.875 0 17.988281-3.519531 35.441406-10.488281 51.875-6.710937 15.882812-16.316406 30.117187-28.5625 42.363281s-26.480469 21.851563-42.363281 28.5625c-16.433594 6.945313-33.886719 10.464844-51.875 10.464844zm0-238.773438c-14.257813 0-28.054688 2.777344-41.0625 8.289063-12.570313 5.320312-23.84375 12.914062-33.542969 22.613281s-17.3125 20.972656-22.613281 33.542969c-5.511719 12.984375-8.289063 26.804687-8.289063 41.0625 0 14.261718 2.777344 28.058594 8.289063 41.066406 5.320312 12.570312 12.914062 23.84375 22.613281 33.542969s20.972656 17.3125 33.542969 22.613281c12.984375 5.488281 26.804687 8.289062 41.0625 8.289062 14.261718 0 28.058594-2.777343 41.066406-8.289062 12.570312-5.324219 23.84375-12.914062 33.542969-22.613281s17.3125-20.972657 22.613281-33.542969c5.488281-12.984375 8.289062-26.804688 8.289062-41.066406 0-14.257813-2.777343-28.054688-8.289062-41.0625-5.324219-12.570313-12.914062-23.84375-22.613281-33.542969s-20.972657-17.3125-33.542969-22.613281c-13.007812-5.511719-26.828125-8.289063-41.066406-8.289063zm0 0" fill="#f04b36"/></g></g><path d="m125.183594 11.574219c15.347656 0 30.210937 3.007812 44.214844 8.910156 13.519531 5.71875 25.671874 13.914063 36.109374 24.355469 10.441407 10.4375 18.636719 22.589844 24.351563 36.109375 5.925781 14.003906 8.914063 28.867187 8.914063 44.210937 0 15.347656-3.007813 30.210938-8.914063 44.214844-5.714844 13.519531-13.910156 25.671875-24.351563 36.109375-10.4375 10.441406-22.589843 18.636719-36.109374 24.355469-14.003907 5.925781-28.867188 8.910156-44.214844 8.910156-15.34375 0-30.207032-3.007812-44.210938-8.910156-13.519531-5.71875-25.671875-13.914063-36.113281-24.355469-10.4375-10.4375-18.632813-22.589844-24.351563-36.109375-5.925781-13.980469-8.933593-28.867188-8.933593-44.191406 0-15.324219 3.007812-30.207032 8.910156-44.210938 5.71875-13.519531 13.914063-25.671875 24.355469-36.113281 10.4375-10.4375 22.589844-18.632813 36.109375-24.351563 14.003906-5.925781 28.890625-8.933593 44.234375-8.933593m0-11.574219c-69.140625 0-125.183594 56.042969-125.183594 125.183594 0 69.144531 56.042969 125.1875 125.183594 125.1875 69.144531 0 125.1875-56.042969 125.1875-125.1875 0-69.140625-56.066406-125.183594-125.1875-125.183594zm0 0" fill="#ffd48a"/><path d="m168.820312 128.21875-42.964843-73.3125-42.960938 73.3125 42.960938 26.0625zm0 0" fill="#d7492d"/><path d="m82.894531 136.804688 42.960938 63.011718 42.964843-63.011718-42.964843 26.34375zm0 0" fill="#d7492d"/><g fill="#fff"><path d="m168.195312 126.621094-42.964843-73.3125-42.960938 73.3125 42.960938 26.0625zm0 0"/><path d="m82.269531 135.230469 42.960938 62.988281 42.964843-62.988281-42.964843 26.34375zm0 0"/></g></svg>