<svg height="250" viewBox="0 0 250 250" width="250" xmlns="http://www.w3.org/2000/svg"><path d="m23.609375 169.796875c-.25.578125-.539063 1.132813-.871094 1.667969-1.714843 2.890625-2.75 6.132812-3.019531 9.484375 2.75 5.550781 5.921875 10.882812 9.484375 15.949219.195313-1.980469.632813-3.929688 1.304687-5.800782.769532-2.390625.738282-4.96875-.082031-7.339844-2.589843-4.492187-4.867187-9.15625-6.816406-13.960937zm0 0"/><path d="m15 97.234375c2.21875-1.011719 4.039062-2.734375 5.175781-4.894531 1.527344-5.039063 3.398438-9.96875 5.605469-14.75-.601562.207031-1.21875.367187-1.847656.476562-3.230469.613282-6.269532 1.992188-8.855469 4.027344-2.242187 5.90625-4.023437 11.976562-5.332031 18.160156 1.609375-1.238281 3.375-2.25 5.253906-3.019531zm0 0"/><path d="m94.53125 13.515625c1.945312 1.484375 4.347656 2.246094 6.792969 2.15625 4.980469-1.125 10.03125-1.894531 15.121093-2.300781-.539062-.476563-1.035156-1-1.484374-1.558594-1.917969-2.339844-4.324219-4.230469-7.054688-5.53125-6.15625.921875-12.230469 2.34375-18.15625 4.25 1.710938.792969 3.316406 1.792969 4.78125 2.984375zm0 0"/><path d="m72.433594 22.539062c2.175781 1.015626 4.640625 1.253907 6.972656.675782 4.660156-2.195313 9.472656-4.054688 14.402344-5.554688-.605469-.34375-1.179688-.734375-1.714844-1.175781-2.394531-1.90625-5.1875-3.246094-8.167969-3.925781-5.832031 2.222656-11.476562 4.917968-16.871093 8.054687 1.867187.410157 3.675781 1.054688 5.378906 1.925781zm0 0"/><path d="m23.269531 74.28125c2.363281-.511719 4.484375-1.800781 6.023438-3.664062 2.53125-4.609376 5.382812-9.035157 8.535156-13.25-.664063.082031-1.332031.105468-2 .078124-3.207031-.089843-6.386719.582032-9.28125 1.960938-3.433594 5.328125-6.445313 10.914062-9.003906 16.710938 1.816406-.863282 3.746093-1.480469 5.726562-1.835938zm0 0"/><path d="m52.636719 36.101562c2.390625.535157 4.898437.21875 7.082031-.894531 4.082031-3.121093 8.378906-5.949219 12.859375-8.464843-.65625-.207032-1.292969-.464844-1.902344-.777344-2.761719-1.371094-5.800781-2.089844-8.878906-2.097656-5.242187 3.4375-10.203125 7.28125-14.839844 11.5 1.917969 0 3.824219.246093 5.679688.734374zm0 0"/><path d="m36.003906 53.605469c2.507813.007812 4.933594-.871094 6.859375-2.480469 1.453125-1.683594 2.957031-3.328125 4.515625-4.9375 2.035156-2.09375 4.132813-4.09375 6.300782-6-.6875-.0625-1.371094-.183594-2.039063-.359375-3.011719-.757813-6.164063-.804687-9.199219-.132813-.316406.320313-.636718.632813-.949218.957032-4.097657 4.222656-7.886719 8.734375-11.335938 13.5 1.917969-.441406 3.882812-.625 5.847656-.546875zm0 0"/><path d="m11.53125 121.453125c2.027344-1.515625 3.488281-3.671875 4.144531-6.121094.476563-5.179687 1.300781-10.324219 2.464844-15.394531-.542969.328125-1.113281.613281-1.703125.851562-3.054688 1.304688-5.753906 3.316407-7.878906 5.871094-.976563 6.230469-1.484375 12.523438-1.515625 18.828125 1.3125-1.535156 2.824219-2.890625 4.488281-4.035156zm0 0"/><path d="m197.734375 216.289062c-2.394531-.535156-4.898437-.21875-7.085937.894532-4.078126 3.117187-8.371094 5.945312-12.851563 8.460937.652344.207031 1.289063.46875 1.898437.78125 2.757813 1.371094 5.796876 2.085938 8.878907 2.097657 5.242187-3.4375 10.203125-7.28125 14.839843-11.5-1.917968 0-3.824218-.246094-5.679687-.734376zm0 0"/><path d="m238.835938 130.941406c-2.027344 1.515625-3.484376 3.664063-4.144532 6.105469-.476562 5.183594-1.300781 10.328125-2.464844 15.398437.546876-.328124 1.113282-.613281 1.703126-.851562 3.058593-1.308594 5.757812-3.328125 7.882812-5.886719.976562-6.226562 1.480469-12.515625 1.515625-18.816406-1.3125 1.539063-2.824219 2.902344-4.492187 4.050781zm0 0"/><path d="m155.835938 238.878906c-1.945313-1.480468-4.34375-2.246094-6.789063-2.160156-4.980469 1.128906-10.035156 1.898438-15.125 2.304688.539063.476562 1.035156.996093 1.484375 1.554687 1.917969 2.34375 4.324219 4.230469 7.054688 5.535156 6.160156-.921875 12.230468-2.34375 18.160156-4.25-1.714844-.789062-3.320313-1.792969-4.785156-2.984375zm0 0"/><path d="m108.65625 241.992188c-1.195312-2.183594-3.097656-3.894532-5.394531-4.851563-4.960938-1.027344-9.839844-2.40625-14.601563-4.125.277344.625.507813 1.269531.683594 1.925781.84375 2.992188 2.328125 5.761719 4.351562 8.125 5.914063 1.664063 11.953126 2.851563 18.058594 3.550782-1.214844-1.414063-2.253906-2.964844-3.097656-4.625zm0 0"/><path d="m226.503906 158.902344s.25-.035156.277344-.070313c2.179688-7.160156 4.632812-14.640625 4.632812-22.347656 0-3.382813.199219-6.738281.199219-10.203125-.085937-4.183594-.414062-8.355469-.984375-12.5h.21875v-.160156c-1.011718-7.566406-2.664062-15.03125-4.949218-22.316406h-.03125s-.050782-.039063-.058594-.074219c-14.1875-43.199219-53.9375-74.371094-100.617188-74.371094-47.476562 0-87.785156 32.265625-101.316406 76.625 0 0-.015625.023437-.03125.054687-3.214844 10.5625-4.84375 21.542969-4.832031 32.582032-.019531 4.179687.214843 8.351562.703125 12.5h.351562v.160156c.914063 7.558594 2.472656 15.023438 4.664063 22.316406h-.109375s-.019532.035156-.015625.066406c14.195312 43.191407 53.910156 74.363282 100.578125 74.363282 47.492187.003906 87.792968-32.265625 101.320312-76.625zm-190.613281-32.703125c0-50.917969 40.058594-92.339844 89.292969-92.339844 49.238281 0 89.296875 41.421875 89.296875 92.339844 0 50.914062-40.058594 92.339843-89.296875 92.339843-49.234375 0-89.292969-41.425781-89.292969-92.339843zm0 0"/><path d="m85.628906 235.941406c-.722656-2.359375-2.203125-4.417968-4.214844-5.847656-4.675781-2.085938-9.195312-4.503906-13.527343-7.234375.144531.660156.238281 1.328125.277343 2 .230469 3.160156 1.144532 6.230469 2.679688 9 5.4375 2.898437 11.09375 5.355469 16.921875 7.34375-.917969-1.660156-1.636719-3.425781-2.136719-5.261719zm0 0"/><path d="m64.316406 225.101562c-.238281-2.53125-1.3125-4.90625-3.054687-6.75-4.105469-3.027343-7.996094-6.332031-11.648438-9.890624.011719.683593-.035156 1.363281-.132812 2.035156-.417969 3.191406-.132813 6.433594.835937 9.5 4.726563 3.984375 9.757813 7.59375 15.046875 10.789062-.574219-1.847656-.925781-3.753906-1.046875-5.683594zm0 0"/><path d="m164.738281 16.453125c.71875 2.359375 2.199219 4.417969 4.210938 5.847656 4.675781 2.085938 9.195312 4.503907 13.527343 7.234375-.140624-.660156-.234374-1.328125-.277343-2-.226563-3.160156-1.144531-6.230468-2.683594-9-5.433594-2.90625-11.097656-5.367187-16.929687-7.363281.929687 1.667969 1.652343 3.441406 2.152343 5.28125zm0 0"/><path d="m235.378906 155.160156c-2.222656 1.011719-4.039062 2.730469-5.175781 4.890625-1.523437 5.039063-3.398437 9.96875-5.609375 14.75.605469-.207031 1.222656-.363281 1.851562-.472656 3.234376-.621094 6.273438-2.007813 8.863282-4.046875 2.238281-5.902344 4.019531-11.96875 5.328125-18.144531-1.613281 1.238281-3.378907 2.253906-5.257813 3.023437zm0 0"/><path d="m214.363281 198.789062c-2.503906-.011718-4.933593.867188-6.855469 2.476563-1.457031 1.683594-2.960937 3.332031-4.519531 4.941406-2.035156 2.09375-4.132812 4.09375-6.300781 6 .6875.0625 1.367188.183594 2.035156.359375 3.015625.757813 6.164063.800782 9.199219.132813.316406-.320313.636719-.632813.953125-.957031 4.097656-4.21875 7.886719-8.730469 11.335938-13.5-1.914063.441406-3.882813.625-5.847657.546874zm0 0"/><path d="m204.6875 42.460938c-.277344 2.582031.316406 5.179687 1.691406 7.378906 3.378906 3.792968 6.5 7.8125 9.339844 12.023437.128906-.640625.304688-1.269531.527344-1.886719 1.070312-3.101562 1.433594-6.402343 1.070312-9.664062-2.640625-3.367188-5.457031-6.589844-8.4375-9.664062-1.335937-1.367188-2.691406-2.703126-4.074218-4 .195312 1.9375.15625 3.886718-.117188 5.8125zm0 0"/><path d="m227.097656 178.109375c-2.367187.511719-4.488281 1.804687-6.03125 3.667969-2.535156 4.609375-5.386718 9.039062-8.535156 13.25.664062-.078125 1.332031-.105469 2-.074219 3.203125.089844 6.378906-.578125 9.273438-1.957031 3.441406-5.324219 6.457031-10.910156 9.023437-16.707032-1.820313.859376-3.746094 1.472657-5.730469 1.820313zm0 0"/><path d="m117.96875 9.40625c1.660156 1.929688 3.949219 3.210938 6.464844 3.617188h.75c4.75.003906 9.496094.316406 14.207031.9375-.417969-.574219-.789063-1.179688-1.109375-1.8125-1.398438-2.6875-3.359375-5.042969-5.75-6.902344-2.4375-.152344-4.882812-.25-7.34375-.25-3.761719 0-7.492188.179687-11.191406.539062 1.472656 1.125 2.808594 2.425782 3.972656 3.871094zm0 0"/><path d="m132.402344 242.984375c-1.660156-1.929687-3.953125-3.210937-6.46875-3.613281-.25 0-.5 0-.75 0-4.75 0-9.5-.3125-14.210938-.9375.421875.574218.792969 1.179687 1.113282 1.8125 1.398437 2.691406 3.359374 5.046875 5.75 6.902344 2.4375.152343 4.886718.25 7.347656.25 3.757812 0 7.488281-.175782 11.1875-.535157-1.472656-1.128906-2.808594-2.429687-3.96875-3.878906zm0 0"/><path d="m13.050781 145.878906c1.679688-1.917968 2.675781-4.339844 2.828125-6.886718-.464844-4.25-.699218-8.519532-.703125-12.792969 0-.929688.011719-1.851563.035157-2.777344-.46875.441406-.96875.847656-1.5 1.214844-2.730469 1.9375-4.964844 4.488281-6.527344 7.449219.289062 6.289062 1.054687 12.550781 2.292968 18.726562.972657-1.792969 2.171876-3.453125 3.574219-4.933594zm0 0"/><path d="m45.679688 209.933594c.277343-2.582032-.320313-5.179688-1.695313-7.382813-3.378906-3.792969-6.496094-7.808593-9.335937-12.019531-.128907.640625-.304688 1.273438-.527344 1.890625-1.070313 3.09375-1.441406 6.390625-1.078125 9.648437 2.644531 3.371094 5.464843 6.601563 8.449219 9.675782 1.332031 1.371094 2.691406 2.703125 4.070312 4-.195312-1.933594-.15625-3.886719.117188-5.8125zm0 0"/><path d="m186.039062 27.296875c.242188 2.527344 1.316407 4.902344 3.058594 6.75 4.101563 3.027344 7.992188 6.332031 11.644532 9.890625-.007813-.679688.039062-1.359375.136718-2.035156.417969-3.191406.132813-6.433594-.839844-9.5-4.722656-3.984375-9.757812-7.589844-15.046874-10.789063.578124 1.847657.929687 3.753907 1.046874 5.683594zm0 0"/><path d="m141.714844 10.402344c1.195312 2.183594 3.097656 3.894531 5.394531 4.851562 4.957031 1.027344 9.839844 2.40625 14.601563 4.125-.277344-.621094-.503907-1.265625-.683594-1.925781-.84375-2.992187-2.328125-5.765625-4.351563-8.125-5.914062-1.664063-11.953125-2.851563-18.054687-3.554687 1.210937 1.414062 2.25 2.96875 3.09375 4.628906zm0 0"/><path d="m19.46875 169.441406c1.222656-2.164062 1.714844-4.660156 1.40625-7.125-1.625-4.988281-2.90625-10.082031-3.835938-15.25-.367187.523438-.769531 1.015625-1.210937 1.476563-2.285156 2.480469-3.960937 5.460937-4.894531 8.703125 1.554687 6.0625 3.570312 11.996094 6.035156 17.75.59375-1.953125 1.433594-3.820313 2.5-5.554688zm0 0"/><path d="m236.671875 127.761719c2.730469-1.9375 4.964844-4.492188 6.53125-7.453125-.292969-6.289063-1.058594-12.550782-2.296875-18.730469-.972656 1.796875-2.179688 3.453125-3.582031 4.9375-1.683594 1.917969-2.679688 4.339844-2.828125 6.886719.464844 4.25.695312 8.519531.699218 12.796875 0 .925781-.011718 1.851562-.03125 2.773437.46875-.441406.972657-.847656 1.507813-1.210937zm0 0"/><path d="m226.761719 82.597656c.25-.574218.539062-1.132812.867187-1.664062 1.722656-2.886719 2.757813-6.125 3.027344-9.472656-2.75-5.5625-5.925781-10.902344-9.5-15.972657-.191406 1.980469-.628906 3.929688-1.300781 5.800781-.773438 2.390626-.742188 4.964844.078125 7.339844 2.59375 4.492188 4.875 9.160156 6.828125 13.96875zm0 0"/><path d="m230.902344 82.953125c-1.222656 2.160156-1.714844 4.660156-1.40625 7.121094 1.625 4.992187 2.90625 10.085937 3.835937 15.25.367188-.519531.769531-1.011719 1.207031-1.472657 2.289063-2.480468 3.964844-5.460937 4.902344-8.703124-1.554687-6.0625-3.574218-11.996094-6.039062-17.75-.59375 1.949218-1.433594 3.820312-2.5 5.554687zm0 0"/><path d="m177.9375 229.851562c-2.179688-1.019531-4.640625-1.257812-6.976562-.679687-4.65625 2.195313-9.46875 4.050781-14.394532 5.554687.601563.34375 1.171875.738282 1.707032 1.175782 2.394531 1.90625 5.1875 3.246094 8.167968 3.925781 5.835938-2.222656 11.476563-4.917969 16.875-8.054687-1.867187-.40625-3.675781-1.054688-5.378906-1.921876zm0 0"/><path d="m169.820312 163.761719-20.808593-28.214844c3.425781-1.355469 6.589843-3.292969 9.351562-5.722656 5.046875-4.46875 11.0625-12.882813 11.0625-27.613281.347657-9.007813-3.195312-17.730469-9.726562-23.941407-10.289063-9.441406-23.847657-9.140625-28.195313-9.140625h-41.34375c-6.605468.046875-11.929687 5.425782-11.914062 12.03125 0 .25.039062.632813.039062.890625v10.808594h58.25c5.296875.164063 9.519532 4.492187 9.546875 9.792969v2.269531c-.058593 5.226563-4.320312 9.425781-9.546875 9.410156h-9.191406c-4.496094.003907-8.609375 2.535157-10.636719 6.550781-2.027343 4.015626-1.625 8.828126 1.042969 12.449219l32.871094 44.574219c3.902344 5.300781 11.367187 6.429688 16.664062 2.523438s6.425782-11.367188 2.523438-16.664063zm0 0" fill="#f00"/><path d="m78.285156 114.328125v55.945313h.140625c.773438 7.238281 6.917969 12.707031 14.195313 12.636718 7.230468 0 13.324218-5.398437 14.195312-12.574218l.15625-56zm0 0"/></svg>