<svg height="250" viewBox="0 0 250 250" width="250" xmlns="http://www.w3.org/2000/svg"><path d="m250 125c0 69.035156-55.964844 125-125 125s-125-55.964844-125-125 55.964844-125 125-125 125 55.964844 125 125" fill="#000a0f"/><g fill="#00a5f3"><path d="m189.65625 60.34375h-129.3125v129.3125h129.3125zm-39.414062 89.898438c-13.9375 13.949218-36.546876 13.949218-50.484376 0l-27.765624 27.765624v-106.035156h106.035156l-27.769532 27.769532c13.949219 13.9375 13.949219 36.546874 0 50.480468"/><path d="m99.757812 99.757812c-13.949218 13.9375-13.949218 36.546876 0 50.484376l50.484376-50.484376c-13.9375-13.949218-36.546876-13.949218-50.484376 0"/></g></svg>