<svg height="250" viewBox="0 0 250 250" width="250" xmlns="http://www.w3.org/2000/svg" xmlns:xlink="http://www.w3.org/1999/xlink"><linearGradient id="a" gradientTransform="matrix(-250 0 0 -227.941406 250 250)" gradientUnits="userSpaceOnUse" x1="0" x2="1" y1=".5" y2=".5"><stop offset="0" stop-color="#929297"/><stop offset=".780357" stop-color="#88878d"/><stop offset="1" stop-color="#bab9c6"/></linearGradient><linearGradient id="b" gradientTransform="scale(250 227.941406)" gradientUnits="userSpaceOnUse" x1="0" x2="1" y1=".5" y2=".5"><stop offset="0" stop-color="#919fb7"/><stop offset="1" stop-color="#f8fafe"/></linearGradient><path d="m127.78125 214.382812c42.296875.175782 79.691406-21.050781 102.324219-53.269531 9.164062-13.042969 15.910156-27.921875 19.578125-43.980469.210937 2.949219.316406 5.925782.316406 8.925782 0 68.449218-55.355469 123.941406-123.636719 123.941406-74.191406 0-126.363281-51.34375-126.363281-114.683594 0-49.3125 31.628906-91.359375 76.011719-107.558594 10.785156-3.6875 21.808593-5.699218 33.296875-5.699218 53.371094 0 99.480468 43.371094 99.480468 96.875 0 9.191406-1.277343 18.085937-6.507812 26.511718 1.964844-5.199218 2.242188-9.054687 2.242188-12.976562 0-44.457031-37.367188-79.066406-81.714844-79.066406-44.34375 0-80.292969 36.035156-80.292969 80.488281 0 37.648437 25.78125 69.257813 60.613281 78.058594 7.097656 1.421875 14.355469 2.402343 24.652344 2.433593zm0 0" fill="url(#a)"/><path d="m122.21875 35.617188c-42.296875-.175782-79.691406 21.050781-102.324219 53.269531-9.164062 13.042969-15.910156 27.921875-19.578125 43.980469-.210937-2.949219-.316406-5.925782-.316406-8.925782 0-68.449218 55.355469-123.941406 123.636719-123.941406 74.191406 0 126.363281 51.34375 126.363281 114.683594 0 49.3125-31.628906 91.359375-76.011719 107.558594-10.785156 3.6875-21.808593 5.699218-33.296875 5.699218-53.371094 0-99.480468-43.371094-99.480468-96.875 0-9.191406 1.277343-18.085937 6.507812-26.511718-1.964844 5.199218-2.242188 9.054687-2.242188 12.976562 0 44.457031 37.367188 79.066406 81.714844 79.066406 44.34375 0 80.292969-36.035156 80.292969-80.488281 0-37.648437-25.78125-69.257813-60.613281-78.058594-7.097656-1.421875-14.355469-2.402343-24.652344-2.433593zm0 0" fill="url(#b)"/></svg>