
<svg xmlns="http://www.w3.org/2000/svg" xmlns:xlink="http://www.w3.org/1999/xlink" width="250px" height="250px" viewBox="0 0 250 250" version="1.1">
<g id="surface1">
<path style=" stroke:none;fill-rule:nonzero;fill:rgb(0%,0%,0%);fill-opacity:1;" d="M 3.96875 128.640625 C 1.777344 61.976562 54.042969 6.15625 120.707031 3.96875 C 187.375 1.777344 243.191406 54.042969 245.382812 120.707031 C 247.574219 187.375 195.308594 243.191406 128.640625 245.382812 C 61.976562 247.574219 6.15625 195.308594 3.96875 128.640625 Z M 3.96875 128.640625 "/>
<path style=" stroke:none;fill-rule:nonzero;fill:rgb(100%,100%,100%);fill-opacity:1;" d="M 128.742188 88.164062 C 133.574219 80.757812 139.613281 74.960938 146.859375 70.773438 C 154.105469 66.425781 162.160156 64.25 171.015625 64.25 L 171.015625 107.972656 L 159.660156 107.972656 C 149.355469 107.972656 141.625 110.226562 136.472656 114.734375 C 131.320312 119.082031 128.742188 126.8125 128.742188 137.921875 L 128.742188 200.484375 L 87.441406 200.484375 L 87.441406 65.699219 L 128.742188 65.699219 Z M 128.742188 88.164062 "/>
</g>
</svg>
