<?xml version="1.0" encoding="UTF-8"?>
<svg version="1.1" viewBox="0 0 250 250" xmlns="http://www.w3.org/2000/svg">
<defs>
<clipPath id="e">
<path transform="translate(0 .00025)" d="m13662 4976.9c-9.6-0.7-18.7-1.3-27.6-2.7-23.2-3.5-40.2-11.9-50.6-24.8-8.3-10.3-13.3-24.9-14.4-41.2 24.9 9.5 49.9 15.2 74.5 17.1 12.3 0.9 23.3 0.8 33 0.7 20-0.2 35.9-0.4 56.3 7.6 18 7 34.8 18.5 49.9 34.3-2.2 10.1-5.2 19.9-8.8 29.3l-72.9-15.7c-13.3-2.8-26.5-3.7-39.4-4.6z"/>
</clipPath>
<clipPath id="d">
<path transform="translate(0 .00025)" d="m12365 4974.2c-8.9 1.4-18 2-27.6 2.7-12.9 0.9-26.2 1.8-39.4 4.6l-72.9 15.7c-3.6-9.4-6.6-19.2-8.9-29.3 15.2-15.8 32-27.3 50-34.3 20.4-8 36.2-7.8 56.3-7.6h9.7c7.2 0 14.9-0.1 23.3-0.7 24.6-1.9 49.6-7.6 74.5-17.1-1.1 16.3-6.2 30.9-14.4 41.2-10.4 12.9-27.4 21.3-50.6 24.8z"/>
</clipPath>
<clipPath id="c">
<path transform="translate(0 .00025)" d="m11979 5380.8c22.2-37.5 49.9-70.8 81.9-98.3 9.7-8.4 19.7-16.5 30.2-23.8 33.8-23.4 60.8-37 108.7-58.4 55.9-25.1 113.8-45.8 172.3-61.7l71-19.2-73.2-7.9c-22.1-2.3-77.9-13.6-118.5-66.9-10.6-13.8-19.2-29.4-25.8-46.3l73.4 10.4c22.9 3.3 46.2 3.1 67.9 2.5 14.8-0.4 29.3-1.2 43.6-6 23.3-7.7 44.3-26 57.6-50.2 12-21.9 17.9-48.2 17-75.9-0.4-11.1-1.8-21.9-3.2-32.3l-3.3-24.6c45.1-38.2 81.7-72.8 112.2-115 29.4-40.6 51.4-86.2 70.7-129.4 23.8-53.2 45.8-108.2 65.5-163.5 4.3-11.9 8.3-22.6 13.5-31.4 7.3-0.5 18.6 4.8 28.7 9.6 6.3 2.9 12.8 5.9 19.4 8.2 17.2 6 27.2 10.3 30.4 15.5 3.4 5.6 2.8 17.7 0.6 36.9-10.9 95.8-34.4 178.1-72 251.7-6.6 13-24 26.7-35.8 28.3-39.2 5.2-72.8 25.2-94.6 56.2-22 31.3-30.1 70.7-23.2 111.8-21.6 26.5-43.1 53.1-64.7 79.6 6.7-3.7 13.2-7.8 19.5-11.8 6.2-4 12-7.7 18-11 30.4-17 61.9-34.6 89.3-59.4 9.6-8.7 18.2-17.8 27-27.2 12.8-13.8 27.8-30.2 42.1-48.1l0.3-0.4c6.8-8.5 13.2-17.2 19.1-25.8l1.3-2c1.4-2 2.7-4 4.1-6l0.9-1.5c21.3-32.3 39.2-68.2 53.3-106.4 35.2-95.9 53.2-183.4 54.8-267.7 0.5-27.1-11.8-37.3-30.5-44.4-25.7-9.6-59.1-23.2-90.2-41.9-26.2-15.8-39.1-46.5-34.6-82 6.7-53.6 29.9-101.6 67.1-138.9 20.1-20.2 28.9-21.7 37.3-19.4 34.3 30.6 72.9 53.7 114.6 68.5 24.4 8.7 49.9 14.4 75.8 17l1.4 0.2 1.4-0.2c25.9-2.6 51.4-8.3 75.8-17 41.7-14.8 80.2-37.8 114.6-68.5 8.5-2.3 17.2-0.8 37.3 19.4 37.2 37.3 60.4 85.3 67.1 138.9 4.5 35.5-8.4 66.2-34.6 82-31.1 18.7-64.5 32.3-90.2 41.9-18.7 7.1-31 17.3-30.5 44.4 1.6 84.3 19.5 171.8 54.8 267.7 14.1 38.2 32 74.1 53.4 106.6l0.8 1.2c1.4 2.2 2.8 4.3 4.3 6.4l1.1 1.7c5.9 8.6 12.3 17.3 19.1 25.9l0.3 0.3c14.3 17.9 29.3 34.4 42.1 48.1 8.8 9.4 17.4 18.6 27 27.2 27.4 24.8 58.8 42.4 89.3 59.4 6 3.3 11.8 7 18 11 6.3 4 12.7 8.1 19.5 11.8-21.6-26.5-43.2-53.1-64.7-79.6 6.9-41.1-1.2-80.5-23.2-111.8-21.8-31-55.4-51-94.6-56.2-11.8-1.6-29.2-15.3-35.8-28.3-37.6-73.6-61.1-155.9-72-251.7-2.2-19.2-2.8-31.3 0.6-36.9 3.2-5.2 13.1-9.5 30.4-15.5 6.6-2.3 13.1-5.3 19.3-8.2 10.2-4.8 21.7-10.1 28.8-9.6 5.2 8.8 9.2 19.5 13.5 31.4 19.7 55.3 41.7 110.3 65.5 163.5 19.3 43.2 41.3 88.8 70.7 129.4 30.6 42.2 67.1 76.8 112.2 115l-3.3 24.4c-1.4 10.5-2.8 21.3-3.2 32.5-0.9 27.7 4.9 54 17 75.9 13.3 24.2 34.3 42.5 57.6 50.2 14.3 4.8 28.8 5.6 43.6 6 21.7 0.6 45 0.8 67.9-2.5l73.4-10.4c-6.6 16.9-15.3 32.5-25.8 46.3-40.6 53.3-96.4 64.6-118.5 66.9l-73.3 7.9 71.1 19.2c58.5 15.9 116.4 36.6 172.3 61.7 47.9 21.4 74.9 35 108.7 58.4 10.5 7.3 20.5 15.4 30.2 23.8 31.9 27.5 59.7 60.8 81.9 98.3 5.1 8.7 10.1 17.6 14.7 26.8 40.1 80.9 49.7 169.5 26.4 243-7.4 23.2-18 45.2-30.2 69.5-21 42.2-46.1 88.1-78.5 128.5 24.5-64.3 39.5-125.9 30-190.2-6.5-43.5-24.7-85.7-52.7-122.8-12.9-17.2-27.9-33.3-44.7-48-12.4-10.8-26.1-21-40.8-30.5-0.6-0.4-1.3-0.9-2-1.3-33.9-21.7-73.7-39.8-121.6-55.2-102.2-33-212-45.3-318.4-36 24.8-27.2 45.3-59.2 60.2-94l49.4-115.6-75.8 105.5c-3 4.8-6.6 9.5-11 14.5l-0.6 0.6c-13.7 17.3-28.3 33.2-43.5 47.4-10.8 10.1-22.4 19.8-33.6 29.2-11.2 9.5-22.2 19.2-32.8 28.7-9.5 8.4-19.2 17.1-29 25.3-18.2 2.4-36 7.8-52.7 16.1-0.3 0.2-0.7 0.3-1 0.5-0.4-0.2-0.7-0.3-1-0.4-7.4-3.3-14.8-6.7-22.3-10.1-11.9-5.3-24.2-10.9-36.4-16.1-36.4-15.6-79.8-31.8-126-33.9-15.9-0.7-31.7 0.4-46.3 1.6h-1.4c-14.7-1.2-30.4-2.3-46.4-1.6-46.1 2.1-89.5 18.3-125.9 33.9-12.2 5.2-24.5 10.8-36.4 16.1-7.4 3.4-14.9 6.8-22.3 10.1-0.3 0.1-0.6 0.2-1 0.4-0.3-0.1-0.5-0.3-0.7-0.4l-0.3-0.1c-16.7-8.3-34.5-13.7-52.7-16.1-9.8-8.2-19.5-16.9-29-25.3-10.6-9.5-21.6-19.2-32.7-28.6-11.3-9.5-22.9-19.2-33.7-29.3-15.2-14.2-29.8-30.1-43.6-47.4l-0.5-0.6c-4.4-5-8.1-9.7-11-14.5l-2.4-3.4-73.9-103.3 49.9 116.8c14.9 34.8 35.4 66.8 60.2 94-106.4-9.3-216.3 3-318.4 36-47.9 15.4-87.7 33.5-121.6 55.2-0.7 0.4-1.4 0.9-2 1.3-14.7 9.5-28.5 19.7-40.8 30.5-16.9 14.7-31.8 30.8-44.8 48-27.9 37.1-46.1 79.3-52.6 122.8-9.5 64.3 5.5 125.9 30 190.2-32.4-40.4-57.5-86.3-78.5-128.5-12.2-24.3-22.8-46.3-30.2-69.5-23.3-73.5-13.7-162.1 26.4-243 4.6-9.2 9.6-18.1 14.7-26.8z"/>
</clipPath>
<clipPath id="b">
<path transform="translate(0 .00025)" d="m14034 5350.6c-23.7-36.3-52.4-68.4-84.9-95.2 43.3-112.9 67.1-235.4 67.1-363.4 0-560.8-456.2-1017.1-1017-1017.1s-1017 456.3-1017 1017.1c0 128 23.8 250.5 67.1 363.4-32.5 26.8-61.2 58.9-84.9 95.2-62.4-140.2-97.2-295.4-97.2-458.6 0-624.2 507.8-1132 1132-1132s1132 507.8 1132 1132c0 163.2-34.8 318.4-97.2 458.6z"/>
</clipPath>
<clipPath id="a">
<path transform="translate(0 .00025)" d="m12132 5508.4c11.5-10 24.4-19.6 38.3-28.5 184.4 259.5 487.5 429.1 829.4 429.1s645-169.6 829.4-429.1c13.9 8.9 26.8 18.5 38.3 28.5 17.7 15.5 33.1 32.6 46 50.9-206.1 281.5-538.9 464.7-913.7 464.7s-707.6-183.2-913.7-464.7c12.8-18.3 28.3-35.4 46-50.9z"/>
</clipPath>
</defs>
<g transform="matrix(.094015 0 0 .094015 -.35335 -.3534)">
<circle cx="1333.3" cy="1333.3" r="1329.6" fill="#00002d" stroke-width=".99313"/>
<g transform="matrix(8.809 0 0 8.809 -13935 -16412)" fill="#6366f1">
<path transform="matrix(.13333 0 0 -.13333 0 2666.7)" d="m13120 4090.4c-39.6 26.4-80.1 39.3-120.2 38.2h-0.8c-40.1 1.1-80.6-11.8-120.2-38.2-5.1-3.4-10.3-7.5-16.9-13.4-3.1-2.7-4.9-6.9-4.9-11.5-0.1-4.6 1.6-8.9 4.6-11.8 6.7-6.5 13.5-13 20.3-19.4 25.6-0.1 51.1-0.2 76.7-0.2h81.6c25.6 0 51.1 0.1 76.7 0.2 6.8 6.4 13.6 12.9 20.3 19.4 3 2.9 4.7 7.2 4.6 11.8 0 4.6-1.8 8.8-4.9 11.5-6.5 5.8-11.8 10.1-16.9 13.4"/>
<path transform="matrix(.13333 0 0 -.13333 0 2666.7)" d="m13662 4976.9c-9.6-0.7-18.7-1.3-27.6-2.7-23.2-3.5-40.2-11.9-50.6-24.8-8.3-10.3-13.3-24.9-14.4-41.2 24.9 9.5 49.9 15.2 74.5 17.1 12.3 0.9 23.3 0.8 33 0.7 20-0.2 35.9-0.4 56.3 7.6 18 7 34.8 18.5 49.9 34.3-2.2 10.1-5.2 19.9-8.8 29.3l-72.9-15.7c-13.3-2.8-26.5-3.7-39.4-4.6" clip-path="url(#e)"/>
<path transform="matrix(.13333 0 0 -.13333 0 2666.7)" d="m12365 4974.2c-8.9 1.4-18 2-27.6 2.7-12.9 0.9-26.2 1.8-39.4 4.6l-72.9 15.7c-3.6-9.4-6.6-19.2-8.9-29.3 15.2-15.8 32-27.3 50-34.3 20.4-8 36.2-7.8 56.3-7.6h9.7c7.2 0 14.9-0.1 23.3-0.7 24.6-1.9 49.6-7.6 74.5-17.1-1.1 16.3-6.2 30.9-14.4 41.2-10.4 12.9-27.4 21.3-50.6 24.8" clip-path="url(#d)"/>
<path transform="matrix(.13333 0 0 -.13333 0 2666.7)" d="m12046 5848.6c-32.4-40.4-57.5-86.3-78.5-128.5-12.2-24.3-22.799-46.299-30.199-69.499-23.3-73.5-13.7-162.1 26.4-243 4.6-9.2 9.6-18.101 14.7-26.801 22.2-37.5 49.899-70.8 81.899-98.3 9.7-8.4 19.699-16.499 30.199-23.799 33.8-23.4 60.8-37.001 108.7-58.401 55.9-25.1 113.8-45.8 172.3-61.7l71-19.2-73.2-7.9003c-22.1-2.3-77.9-13.6-118.5-66.9-10.6-13.8-19.199-29.4-25.799-46.3l73.4 10.4c22.9 3.3 46.199 3.0993 67.899 2.4993 14.8-0.4 29.301-1.1997 43.601-5.9997 23.3-7.7 44.299-25.999 57.599-50.199 12-21.9 17.9-48.201 17-75.901-0.4-11.1-1.8-21.9-3.2-32.3l-3.301-24.599c45.1-38.2 81.701-72.8 112.2-115 29.4-40.6 51.401-86.2 70.701-129.4 23.8-53.2 45.799-108.2 65.499-163.5 4.3-11.9 8.3-22.6 13.5-31.4 7.3-0.5 18.6 4.7998 28.7 9.5998 6.3 2.9 12.8 5.9014 19.4 8.2014 17.2 6 27.2 10.3 30.4 15.5 3.4 5.6 2.8 17.7 0.6 36.9-10.9 95.8-34.4 178.1-72 251.7-6.6 13-24 26.701-35.8 28.301-39.2 5.2-72.8 25.199-94.6 56.199-22 31.3-30.099 70.7-23.199 111.8-21.6 26.5-43.102 53.101-64.702 79.601 6.7-3.7 13.201-7.7999 19.501-11.8 6.2-4 12.001-7.7 18.001-11 30.4-17 61.899-34.6 89.299-59.4 9.6-8.7 18.2-17.8 27-27.2 12.8-13.8 27.799-30.201 42.099-48.101l0.301-0.3991c6.8-8.5 13.2-17.2 19.1-25.8l1.301-2.0005c1.4-2 2.699-3.9997 4.099-5.9997l0.899-1.4999c21.3-32.3 39.201-68.2 53.301-106.4 35.2-95.9 53.201-183.4 54.801-267.7 0.5-27.1-11.801-37.301-30.501-44.401-25.7-9.5999-59.1-23.2-90.2-41.9-26.2-15.8-39.1-46.499-34.6-81.999 6.7-53.6 29.899-101.6 67.099-138.9 20.1-20.2 28.901-21.699 37.301-19.399 34.3 30.6 72.899 53.699 114.6 68.499 24.4 8.7 49.902 14.4 75.802 17l1.4 0.2013 1.4-0.2013c25.9-2.6 51.399-8.2997 75.799-17 41.7-14.8 80.2-37.8 114.6-68.499 8.5-2.3 17.2-0.8007 37.3 19.399 37.2 37.3 60.4 85.301 67.1 138.9 4.5 35.5-8.4 66.199-34.6 81.999-31.1 18.7-64.5 32.3-90.2 41.9-18.7 7.1-30.999 17.301-30.499 44.401 1.6 84.3 19.499 171.8 54.799 267.7 14.1 38.2 32 74.1 53.4 106.6l0.8 1.2006c1.4 2.2 2.8 4.2988 4.3 6.3988l1.099 1.7012c5.9 8.6 12.3 17.3 19.1 25.9l0.301 0.2993c14.3 17.9 29.3 34.401 42.1 48.101 8.8 9.4 17.4 18.6 27 27.2 27.4 24.8 58.801 42.4 89.301 59.4 6 3.3 11.799 7 17.999 11 6.3 4 12.7 8.0999 19.5 11.8-21.6-26.5-43.199-53.101-64.699-79.601 6.9-41.1-1.201-80.5-23.201-111.8-21.8-31-55.4-50.999-94.6-56.199-11.8-1.6-29.201-15.301-35.801-28.301-37.6-73.6-61.099-155.9-71.999-251.7-2.2-19.2-2.8-31.3 0.6-36.9 3.2-5.2 13.099-9.4998 30.399-15.5 6.6-2.3 13.101-5.3014 19.301-8.2014 10.2-4.8 21.7-10.1 28.8-9.5998 5.2 8.7999 9.199 19.5 13.499 31.4 19.7 55.3 41.702 110.3 65.502 163.5 19.3 43.2 41.299 88.8 70.699 129.4 30.6 42.2 67.1 76.801 112.2 115l-3.301 24.4c-1.4 10.5-2.799 21.3-3.199 32.5-0.9 27.7 4.9 54.001 17 75.901 13.3 24.2 34.301 42.499 57.601 50.199 14.3 4.8 28.799 5.5997 43.599 5.9997 21.7 0.6 45.001 0.8007 67.901-2.4993l73.4-10.4c-6.6 16.9-15.302 32.5-25.802 46.3-40.6 53.3-96.399 64.6-118.5 66.9l-73.3 7.9003 71.1 19.2c58.5 15.9 116.4 36.6 172.3 61.7 47.9 21.4 74.9 35.001 108.7 58.401 10.5 7.3 20.5 15.399 30.2 23.799 31.9 27.5 59.701 60.8 81.901 98.3 5.1 8.7 10.1 17.601 14.7 26.801 40.1 80.9 49.7 169.5 26.4 243-7.4 23.2-18.002 45.199-30.202 69.499-21 42.2-46.1 88.1-78.5 128.5 24.5-64.3 39.5-125.9 30-190.2-6.5-43.5-24.698-85.7-52.698-122.8-12.9-17.2-27.9-33.299-44.7-47.999-12.4-10.8-26.101-21.001-40.801-30.501-0.6-0.4-1.3-0.9004-2-1.3004-33.9-21.7-73.699-39.8-121.6-55.2-102.2-33-212-45.3-318.4-36 24.8-27.2 45.3-59.2 60.2-94l49.4-115.6-75.8 105.5c-3 4.8-6.6 9.5005-11 14.5l-0.6 0.6004c-13.7 17.3-28.3 33.199-43.5 47.399-10.8 10.1-22.4 19.8-33.6 29.2-11.2 9.5-22.201 19.2-32.801 28.7-9.5 8.4-19.199 17.101-28.999 25.301-18.2 2.4-36 7.8001-52.7 16.1-0.3 0.2-0.699 0.2988-0.999 0.4988-0.4-0.2-0.701-0.2991-1.001-0.3991-7.4-3.3-14.8-6.7004-22.3-10.1-11.9-5.3-24.201-10.9-36.401-16.1-36.399-15.6-79.798-31.8-126-33.9-15.9-0.7-31.7 0.3997-46.3 1.5997h-1.4c-14.7-1.2-30.402-2.2997-46.402-1.5997-46.1 2.1-89.499 18.3-125.9 33.9-12.2 5.2-24.5 10.8-36.4 16.1-7.4 3.4-14.9 6.8004-22.3 10.1-0.3 0.1-0.599 0.1991-0.999 0.3991-0.3-0.1-0.5-0.2991-0.7-0.3991l-0.301-0.1c-16.7-8.3-34.501-13.7-52.701-16.1-9.8-8.2-19.499-16.901-28.999-25.301-10.6-9.5-21.601-19.2-32.701-28.6-11.3-9.5-22.9-19.2-33.7-29.3-15.2-14.2-29.799-30.099-43.599-47.399l-0.501-0.6004c-4.4-4.9999-8.1-9.7004-11-14.5l-2.399-3.4006-73.901-103.3 49.9 116.8c14.9 34.8 35.4 66.8 60.2 94-106.4-9.3-216.3 3-318.4 36-47.9 15.4-87.701 33.5-121.6 55.2-0.7 0.4-1.4 0.9004-2 1.3004-14.7 9.5-28.499 19.701-40.799 30.501-16.9 14.7-31.8 30.799-44.8 47.999-27.9 37.1-46.101 79.3-52.601 122.8-9.5 64.3 5.5 125.9 30 190.2zm768.92-1516c7.705-5.5727 15.865-9.3218 23.48-10.436 28.556-4.2555 52.851-20.366 68.626-45.29 15.32-24.418 21.396-55.322 17.407-87.947-5.349 4.4582-10.426 9.2198-15.412 14.184-7.887 8.1057-15.321 16.819-22.936 25.938-11.242 13.476-24.387 29.586-36.807 46.912l-0.543 0.9129c-5.712 7.903-11.062 16.008-15.958 24.012l-1.268 2.1285c-1.088 1.8238-2.175 3.5458-3.263 5.4709l-0.908 1.5199c-4.261 7.2951-8.429 14.895-12.418 22.595zm368.77 0c-3.989-7.7004-8.16-15.3-12.42-22.595l-0.907-1.5199c-1.088-1.9251-2.176-3.6471-3.264-5.4709l-1.269-2.1285c-4.895-8.0043-10.244-16.109-15.955-24.012l-0.544-0.9129c-12.42-17.326-25.565-33.436-36.806-46.912-7.616-9.1189-15.05-17.832-22.937-25.938-4.986-4.9647-10.063-9.7263-15.411-14.184-3.989 32.625 2.084 63.529 17.405 87.947 15.774 24.925 40.071 41.035 68.628 45.29 7.615 1.1145 15.774 4.8636 23.48 10.436z" clip-path="url(#c)"/>
<path transform="matrix(.13333 0 0 -.13333 0 2666.7)" d="m14034 5350.6c-23.7-36.3-52.4-68.4-84.9-95.2 43.3-112.9 67.1-235.4 67.1-363.4 0-560.8-456.2-1017.1-1017-1017.1s-1017 456.3-1017 1017.1c0 128 23.8 250.5 67.1 363.4-32.5 26.8-61.2 58.9-84.9 95.2-62.4-140.2-97.2-295.4-97.2-458.6 0-624.2 507.8-1132 1132-1132s1132 507.8 1132 1132c0 163.2-34.8 318.4-97.2 458.6" clip-path="url(#b)"/>
<path transform="matrix(.13333 0 0 -.13333 0 2666.7)" d="m12132 5508.4c11.5-10 24.4-19.6 38.3-28.5 184.4 259.5 487.5 429.1 829.4 429.1s645-169.6 829.4-429.1c13.9 8.9 26.8 18.5 38.3 28.5 17.7 15.5 33.1 32.6 46 50.9-206.1 281.5-538.9 464.7-913.7 464.7s-707.6-183.2-913.7-464.7c12.8-18.3 28.3-35.4 46-50.9" clip-path="url(#a)"/>
</g>
</g>
</svg>
