
<svg xmlns="http://www.w3.org/2000/svg" xmlns:xlink="http://www.w3.org/1999/xlink" width="250px" height="250px" viewBox="0 0 250 250" version="1.1">
<defs>
<linearGradient id="linear0" gradientUnits="userSpaceOnUse" x1="122.220001" y1="410.450012" x2="292.790009" y2="239.889999" gradientTransform="matrix(0.5,0,0,0.5,0,0)">
<stop offset="0" style="stop-color:rgb(97.647059%,76.47059%,0%);stop-opacity:1;"/>
<stop offset="1" style="stop-color:rgb(94.901961%,91.37255%,0%);stop-opacity:1;"/>
</linearGradient>
<linearGradient id="linear1" gradientUnits="userSpaceOnUse" x1="95.660004" y1="383.890015" x2="266.220001" y2="213.320007" gradientTransform="matrix(0.5,0,0,0.5,0,0)">
<stop offset="0" style="stop-color:rgb(97.647059%,76.47059%,0%);stop-opacity:1;"/>
<stop offset="1" style="stop-color:rgb(94.901961%,91.37255%,0%);stop-opacity:1;"/>
</linearGradient>
<linearGradient id="linear2" gradientUnits="userSpaceOnUse" x1="68.889999" y1="357.109985" x2="239.449997" y2="186.550003" gradientTransform="matrix(0.5,0,0,0.5,0,0)">
<stop offset="0" style="stop-color:rgb(97.647059%,76.47059%,0%);stop-opacity:1;"/>
<stop offset="1" style="stop-color:rgb(94.901961%,91.37255%,0%);stop-opacity:1;"/>
</linearGradient>
<linearGradient id="linear3" gradientUnits="userSpaceOnUse" x1="105.889999" y1="394.109985" x2="276.450012" y2="223.550003" gradientTransform="matrix(0.5,0,0,0.5,0,0)">
<stop offset="0" style="stop-color:rgb(97.647059%,76.47059%,0%);stop-opacity:1;"/>
<stop offset="1" style="stop-color:rgb(94.901961%,91.37255%,0%);stop-opacity:1;"/>
</linearGradient>
</defs>
<g id="surface1">
<path style=" stroke:none;fill-rule:nonzero;fill:url(#linear0);" d="M 110.289062 157.453125 C 106.472656 157.445312 103.074219 155.023438 101.816406 151.417969 C 100.5625 147.808594 101.71875 143.800781 104.703125 141.421875 C 107.6875 139.039062 111.851562 138.800781 115.089844 140.824219 C 115.609375 141.152344 116.207031 141.324219 116.820312 141.324219 C 117.457031 141.324219 118.082031 141.152344 118.628906 140.824219 C 119.730469 140.175781 120.375 138.96875 120.308594 137.695312 C 119.960938 132.867188 123.496094 128.625 128.308594 128.101562 C 128.640625 128.0625 128.976562 128.046875 129.308594 128.046875 C 131.007812 128.042969 132.667969 128.527344 134.101562 129.433594 C 134.621094 129.761719 135.222656 129.9375 135.839844 129.933594 C 136.476562 129.933594 137.101562 129.761719 137.644531 129.433594 L 137.683594 129.433594 C 138.761719 128.777344 139.390625 127.585938 139.324219 126.324219 C 138.972656 121.453125 142.574219 117.191406 147.433594 116.71875 C 147.726562 116.71875 148.019531 116.679688 148.308594 116.679688 C 153.28125 116.679688 157.308594 120.710938 157.308594 125.679688 C 157.308594 130.652344 153.28125 134.679688 148.308594 134.679688 C 146.609375 134.683594 144.945312 134.203125 143.511719 133.296875 C 142.992188 132.96875 142.390625 132.796875 141.78125 132.796875 C 141.140625 132.792969 140.515625 132.964844 139.96875 133.296875 C 138.871094 133.945312 138.226562 135.15625 138.296875 136.429688 C 138.328125 136.902344 138.328125 137.378906 138.296875 137.851562 C 137.921875 142.136719 134.570312 145.558594 130.296875 146.019531 C 129.960938 146.054688 129.628906 146.074219 129.296875 146.074219 C 127.597656 146.074219 125.933594 145.59375 124.5 144.683594 C 123.980469 144.359375 123.378906 144.183594 122.765625 144.183594 C 122.128906 144.1875 121.503906 144.359375 120.953125 144.683594 L 120.914062 144.683594 C 119.839844 145.339844 119.210938 146.535156 119.28125 147.796875 C 119.316406 148.273438 119.316406 148.753906 119.28125 149.234375 C 118.898438 153.546875 115.5 156.972656 111.191406 157.394531 C 110.890625 157.429688 110.589844 157.449219 110.289062 157.453125 Z M 110.289062 157.453125 "/>
<path style=" stroke:none;fill-rule:nonzero;fill:url(#linear1);" d="M 110.289062 134.648438 C 105.484375 134.699219 101.488281 130.964844 101.210938 126.167969 C 100.9375 121.371094 104.476562 117.203125 109.253906 116.699219 C 109.605469 116.660156 109.953125 116.640625 110.304688 116.640625 C 112.003906 116.640625 113.664062 117.121094 115.101562 118.03125 C 115.617188 118.355469 116.21875 118.527344 116.828125 118.53125 C 117.46875 118.527344 118.09375 118.355469 118.640625 118.03125 C 119.742188 117.382812 120.390625 116.175781 120.320312 114.898438 C 119.96875 110.027344 123.570312 105.761719 128.433594 105.296875 C 128.722656 105.265625 129.015625 105.253906 129.304688 105.253906 C 134.136719 105.164062 138.175781 108.90625 138.457031 113.726562 C 138.738281 118.550781 135.164062 122.734375 130.355469 123.210938 C 130.007812 123.25 129.65625 123.269531 129.304688 123.269531 C 127.609375 123.269531 125.945312 122.789062 124.511719 121.886719 C 123.992188 121.554688 123.390625 121.378906 122.773438 121.386719 C 122.136719 121.382812 121.511719 121.554688 120.964844 121.886719 C 119.867188 122.535156 119.222656 123.742188 119.289062 125.015625 C 119.328125 125.496094 119.328125 125.976562 119.289062 126.453125 C 118.910156 130.769531 115.511719 134.199219 111.199219 134.621094 C 110.90625 134.621094 110.609375 134.664062 110.316406 134.664062 Z M 110.289062 134.648438 "/>
<path style=" stroke:none;fill-rule:nonzero;fill:url(#linear2);" d="M 116.664062 108.210938 L 116.296875 106.355469 C 116.925781 106.09375 117.226562 105.371094 116.96875 104.738281 L 118.386719 103.796875 C 118.449219 103.859375 118.519531 103.917969 118.59375 103.96875 L 116.804688 108.246094 C 116.75 108.238281 116.695312 108.238281 116.640625 108.246094 M 116.683594 101.484375 L 118.121094 102.433594 C 117.992188 102.742188 117.992188 103.085938 118.121094 103.394531 L 116.699219 104.335938 C 116.253906 103.890625 115.546875 103.84375 115.050781 104.230469 L 114.300781 103.554688 C 114.550781 103.160156 114.550781 102.660156 114.300781 102.265625 L 115.039062 101.59375 C 115.257812 101.761719 115.523438 101.851562 115.796875 101.851562 C 116.128906 101.851562 116.453125 101.714844 116.683594 101.476562 M 113.046875 98.386719 C 113.117188 98.355469 113.183594 98.320312 113.25 98.28125 L 114.785156 99.878906 C 114.539062 100.226562 114.484375 100.675781 114.644531 101.070312 C 114.667969 101.128906 114.695312 101.1875 114.730469 101.238281 L 114 101.894531 C 113.578125 101.566406 112.992188 101.550781 112.550781 101.855469 L 111.265625 100.574219 C 111.574219 100.128906 111.554688 99.535156 111.214844 99.109375 L 111.945312 98.28125 C 112.28125 98.480469 112.691406 98.511719 113.050781 98.359375 M 116.949219 101.058594 C 117.214844 100.425781 116.917969 99.695312 116.285156 99.429688 L 116.253906 99.429688 L 116.621094 97.503906 C 116.699219 97.503906 116.777344 97.496094 116.855469 97.480469 L 118.59375 101.84375 C 118.515625 101.894531 118.445312 101.949219 118.378906 102.015625 Z M 104.320312 97.628906 C 104.46875 97.570312 104.929688 97.320312 105.003906 96.960938 L 106.710938 97.285156 C 106.699219 97.535156 106.769531 97.785156 106.910156 97.996094 L 105.378906 99.53125 C 105.167969 99.386719 104.917969 99.308594 104.660156 99.316406 Z M 113.578125 97.925781 C 113.742188 97.699219 113.828125 97.425781 113.816406 97.144531 L 115.488281 96.75 C 115.550781 96.890625 115.636719 97.015625 115.746094 97.125 C 115.867188 97.246094 116.011719 97.335938 116.171875 97.398438 L 115.804688 99.324219 C 115.632812 99.320312 115.464844 99.351562 115.304688 99.421875 C 115.234375 99.449219 115.164062 99.484375 115.101562 99.523438 Z M 110.675781 94.925781 L 111.675781 96.324219 C 111.253906 96.769531 111.21875 97.460938 111.59375 97.945312 L 110.871094 98.769531 C 110.480469 98.53125 109.984375 98.53125 109.59375 98.769531 L 108.941406 98.046875 C 109.328125 97.539062 109.269531 96.824219 108.804688 96.386719 L 109.761719 94.949219 C 109.882812 95.007812 110.015625 95.035156 110.148438 95.03125 C 110.320312 95.03125 110.492188 94.996094 110.648438 94.925781 M 105.109375 96.5 C 105.117188 96.421875 105.117188 96.347656 105.109375 96.269531 L 109.164062 94.515625 C 109.230469 94.605469 109.308594 94.691406 109.394531 94.765625 L 108.453125 96.179688 C 108.152344 96.054688 107.808594 96.054688 107.503906 96.179688 C 107.199219 96.308594 106.960938 96.550781 106.835938 96.855469 Z M 111.070312 94.675781 C 111.128906 94.605469 111.183594 94.53125 111.230469 94.453125 L 115.421875 96.03125 C 115.410156 96.121094 115.410156 96.210938 115.421875 96.300781 L 113.738281 96.695312 C 113.46875 96.074219 112.75 95.789062 112.125 96.050781 L 112.078125 96.050781 Z M 110.144531 92.546875 C 109.769531 92.550781 109.414062 92.726562 109.183594 93.027344 C 108.953125 93.324219 108.871094 93.710938 108.960938 94.074219 L 104.921875 95.824219 C 104.875 95.738281 104.816406 95.660156 104.746094 95.59375 C 104.253906 95.132812 103.484375 95.144531 103.007812 95.621094 C 102.53125 96.097656 102.523438 96.863281 102.984375 97.355469 L 103.109375 97.433594 C 102.117188 98.746094 101.507812 100.300781 101.339844 101.933594 C 101.308594 102.238281 101.296875 102.550781 101.296875 102.859375 C 101.296875 107.832031 105.324219 111.859375 110.296875 111.859375 C 110.601562 111.859375 110.910156 111.84375 111.214844 111.808594 C 112.902344 111.644531 114.503906 110.992188 115.824219 109.933594 C 115.824219 109.933594 115.855469 109.988281 115.875 110.011719 C 116.296875 110.363281 116.921875 110.335938 117.308594 109.945312 C 117.699219 109.554688 117.726562 108.933594 117.375 108.511719 C 117.332031 108.464844 117.28125 108.425781 117.230469 108.390625 L 119.015625 104.089844 C 119.683594 104.238281 120.347656 103.816406 120.496094 103.148438 C 120.648438 102.476562 120.226562 101.8125 119.554688 101.664062 C 119.457031 101.640625 119.355469 101.628906 119.253906 101.636719 C 119.179688 101.628906 119.101562 101.628906 119.023438 101.636719 L 117.273438 97.269531 C 117.859375 96.910156 118.042969 96.140625 117.679688 95.554688 C 117.316406 94.96875 116.550781 94.789062 115.964844 95.148438 C 115.792969 95.253906 115.652344 95.402344 115.550781 95.574219 L 111.394531 94 C 111.515625 93.324219 111.070312 92.675781 110.394531 92.550781 L 110.191406 92.550781 Z M 110.144531 92.546875 "/>
<path style=" stroke:none;fill-rule:nonzero;fill:url(#linear3);" d="M 125 197.5 C 87.886719 197.453125 56.839844 169.300781 53.171875 132.367188 C 49.503906 95.433594 74.40625 61.726562 110.785156 54.378906 C 147.164062 47.035156 183.195312 68.4375 194.148438 103.898438 C 205.101562 139.359375 187.414062 177.351562 153.226562 191.800781 C 144.296875 195.578125 134.695312 197.515625 125 197.5 Z M 125 74 C 100.65625 73.996094 79.699219 91.1875 74.945312 115.0625 C 70.195312 138.9375 82.96875 162.847656 105.457031 172.164062 C 127.949219 181.480469 153.886719 173.617188 167.414062 153.375 C 180.941406 133.136719 178.285156 106.160156 161.070312 88.945312 C 151.523438 79.347656 138.535156 73.964844 125 74 Z M 125 74 "/>
</g>
</svg>
