
<svg xmlns="http://www.w3.org/2000/svg" xmlns:xlink="http://www.w3.org/1999/xlink" width="250px" height="250px" viewBox="0 0 250 250" version="1.1">
<g id="surface1">
<path style=" stroke:none;fill-rule:nonzero;fill:rgb(8.627451%,20.392157%,28.235295%);fill-opacity:1;" d="M 172.054688 7.882812 C 157.457031 3.164062 141.832031 0.5 125.953125 0.03125 C 111.480469 0.214844 97.148438 2.242188 83.574219 6.027344 C 38.691406 19.035156 -0.429688 73.546875 0 128.058594 C 0 133.4375 1.515625 190.007812 52.0625 227.027344 C 62.535156 235.066406 75.132812 241.363281 89.042969 245.511719 C 128.554688 256.511719 165.765625 243.972656 171.363281 242.042969 C 230.835938 222.019531 249.902344 162.105469 249.867188 124.34375 C 249.902344 72.332031 213.449219 21.859375 172.054688 7.882812 Z M 172.054688 7.882812 "/>
<path style=" stroke:none;fill-rule:nonzero;fill:rgb(41.176471%,52.156866%,59.215689%);fill-opacity:1;" d="M 223.097656 61.902344 C 219.296875 55.960938 214.8125 50.28125 209.695312 44.929688 C 209.199219 44.40625 203.601562 38.261719 202.484375 38.734375 C 202.1875 38.855469 207.421875 45.25 207.71875 45.621094 C 212.273438 51.523438 216.269531 57.65625 219.671875 63.984375 C 228.691406 81.167969 233.210938 99.5 232.976562 117.976562 C 232.976562 120.453125 232.976562 123.054688 232.976562 125.605469 C 232.976562 126.128906 232.582031 128.582031 233.335938 128.953125 C 234.09375 129.324219 235.542969 125.136719 235.644531 124.765625 C 236.808594 120.527344 237.503906 116.226562 237.71875 111.90625 C 238.480469 94.578125 233.453125 77.386719 223.097656 61.902344 Z M 223.097656 61.902344 "/>
<path style=" stroke:none;fill-rule:nonzero;fill:rgb(82.745099%,89.803922%,93.725491%);fill-opacity:1;" d="M 196.753906 38.238281 C 176.5 15.9375 148.511719 2.109375 117.722656 2.109375 C 86.933594 2.109375 58.8125 15.914062 38.691406 38.238281 C 18.570312 60.5625 5.761719 91.414062 5.761719 125.582031 C 5.761719 159.753906 18.308594 190.503906 38.691406 212.828125 C 59.074219 235.152344 86.933594 248.953125 117.722656 248.953125 C 148.511719 248.953125 176.632812 235.152344 196.753906 212.828125 C 216.871094 190.503906 229.683594 159.652344 229.683594 125.582031 C 229.683594 91.511719 217.136719 60.5625 196.753906 38.238281 Z M 196.753906 38.238281 "/>
<path style=" stroke:none;fill-rule:nonzero;fill:rgb(8.627451%,20.392157%,28.235295%);fill-opacity:1;" d="M 140.445312 79.570312 C 129.210938 75.40625 116.414062 74.304688 104.222656 76.445312 C 100.863281 77.070312 97.605469 77.96875 94.507812 79.121094 C 93.914062 110.8125 97.800781 141.191406 97.175781 172.910156 C 101.390625 173.949219 122.859375 178.929688 142.089844 170.183594 C 151.394531 165.574219 158.6875 159.007812 163.066406 151.300781 C 168.171875 143.492188 170.851562 134.90625 170.902344 126.203125 C 170.835938 123.105469 170.410156 90.890625 140.445312 79.570312 Z M 140.445312 79.570312 "/>
<path style=" stroke:none;fill-rule:nonzero;fill:rgb(41.176471%,52.156866%,59.215689%);fill-opacity:1;" d="M 162.011719 108.832031 C 161.425781 106.464844 160.394531 104.167969 158.949219 102.019531 C 157.730469 100.234375 154.898438 95.847656 152.101562 95.128906 C 150.058594 94.609375 150.980469 95.972656 151.476562 97.085938 C 152.792969 100.085938 154.273438 103.058594 155.328125 106.132812 C 156.488281 109.476562 157.390625 112.867188 158.027344 116.289062 C 158.257812 117.527344 158.027344 120.625 159.179688 121.691406 C 160.332031 122.757812 161.386719 119.832031 161.652344 118.992188 C 162.675781 115.65625 162.796875 112.203125 162.011719 108.832031 Z M 162.011719 108.832031 "/>
<path style=" stroke:none;fill-rule:nonzero;fill:rgb(80.392158%,14.509805%,21.176471%);fill-opacity:1;" d="M 155.820312 116.363281 C 154.519531 108.574219 151.160156 101.058594 145.941406 94.261719 C 137.316406 83.382812 124.308594 76.445312 109.722656 76.445312 C 83.804688 76.445312 62.796875 98.449219 62.796875 125.582031 C 62.796875 152.714844 83.804688 174.71875 109.722656 174.71875 C 135.636719 174.71875 156.679688 152.839844 156.679688 125.582031 C 156.679688 122.5 156.390625 119.417969 155.820312 116.363281 Z M 155.820312 116.363281 "/>
<path style=" stroke:none;fill-rule:nonzero;fill:rgb(96.078432%,24.313726%,24.705882%);fill-opacity:1;" d="M 74.914062 142.011719 C 67.933594 122.980469 76.988281 107.320312 70.796875 105.757812 C 69.367188 105.488281 67.851562 105.746094 66.714844 106.453125 C 64.125 112.785156 62.816406 119.378906 62.828125 126.003906 C 62.503906 138.824219 67.714844 151.382812 77.679688 161.785156 C 78.796875 162.015625 79.996094 161.878906 80.972656 161.414062 C 84.53125 159.28125 78.207031 150.980469 74.914062 142.011719 Z M 74.914062 142.011719 "/>
</g>
</svg>
