<svg width="1024" height="1024" viewBox="0 0 1024 1024" fill="none" xmlns="http://www.w3.org/2000/svg">
<g clip-path="url(#clip0_111_374)">
<rect width="1024" height="1024" fill="url(#paint0_linear_111_374)"/>
<path fill-rule="evenodd" clip-rule="evenodd" d="M396.293 0H376.983L412.624 61.7305L328.416 207.583H160L75.7922 61.7305L111.432 0H92.1229L60.6235 54.5586H0V68.0965H60.6235L144.831 213.949L60.6235 359.801H0V374.951H60.6235L144.831 520.803L60.6235 666.655H0V680.193H60.6235L144.831 826.045L60.6235 971.897H0V987.047H60.6235L81.9584 1024H101.733L75.7922 979.069L160 833.217H328.416L412.624 979.069L386.683 1024H406.457L427.792 987.047H596.208L617.543 1024H637.317L611.377 979.069L695.584 833.217H864L948.208 979.069L922.267 1024H944.496L963.377 991.297H1024V976.148H963.377L879.169 830.296L963.377 684.444H1024V670.906H963.377L879.169 525.053L963.377 379.201H1024V364.052H963.377L879.169 218.199L963.377 72.3472H1024V58.8093H963.377L929.423 0H912.568L948.208 61.7305L864 207.583H695.584L611.377 61.7305L647.017 0H627.707L596.208 54.5586H427.792L396.293 0ZM427.792 374.951H596.208L680.416 520.803L596.208 666.655H427.792L343.584 520.803L427.792 374.951ZM864 527.974H695.584L611.377 673.827L695.584 819.679H864L948.208 673.827L864 527.974ZM328.416 527.974H160L75.7922 673.827L160 819.679H328.416L412.624 673.827L328.416 527.974ZM596.208 68.0965H427.792L343.584 213.949L427.792 359.801H596.208L680.416 213.949L596.208 68.0965ZM596.208 680.193H427.792L343.584 826.045L427.792 971.897H596.208L680.416 826.045L596.208 680.193ZM864 221.121H695.584L611.377 366.973L695.584 512.825H864L948.208 366.973L864 221.121ZM328.416 221.121H160L75.7922 366.973L160 512.825H328.416L412.624 366.973L328.416 221.121Z" fill="#C4B59A"/>
<g filter="url(#filter0_d_111_374)">
<path d="M192 609.874H272.607V543.859H298.735L319.859 609.874H405.192L389.209 557.479C386.43 548.029 377.813 541.497 367.946 541.497V534.131C384.345 534.131 397.27 521.206 397.27 504.807V445.324C397.27 428.925 384.345 416 367.946 416H192V609.874ZM272.607 493.411V464.086H316.663V493.411H272.607Z" fill="white"/>
<path d="M438.448 609.874H585.07C601.469 609.874 614.394 596.949 614.394 580.55V445.324C614.394 428.925 601.469 416 585.07 416H438.448C422.049 416 409.124 428.925 409.124 445.324V580.55C409.124 596.949 422.049 609.874 438.448 609.874ZM489.731 561.788V464.086H533.787V561.788H489.731Z" fill="white"/>
<path d="M626.526 609.874H707.133V483.543H714.498C714.498 513.284 720.891 541.497 733.538 568.875L752.578 609.874H853.615V416H773.147V542.47H765.781C765.781 512.728 759.388 484.516 746.602 456.998L727.562 416H626.526V609.874Z" fill="white"/>
</g>
</g>
<defs>
<filter id="filter0_d_111_374" x="168.281" y="392.281" width="709.053" height="241.311" filterUnits="userSpaceOnUse" color-interpolation-filters="sRGB">
<feFlood flood-opacity="0" result="BackgroundImageFix"/>
<feColorMatrix in="SourceAlpha" type="matrix" values="0 0 0 0 0 0 0 0 0 0 0 0 0 0 0 0 0 0 127 0" result="hardAlpha"/>
<feOffset/>
<feGaussianBlur stdDeviation="11.8594"/>
<feComposite in2="hardAlpha" operator="out"/>
<feColorMatrix type="matrix" values="0 0 0 0 0 0 0 0 0 0 0 0 0 0 0 0 0 0 0.25 0"/>
<feBlend mode="normal" in2="BackgroundImageFix" result="effect1_dropShadow_111_374"/>
<feBlend mode="normal" in="SourceGraphic" in2="effect1_dropShadow_111_374" result="shape"/>
</filter>
<linearGradient id="paint0_linear_111_374" x1="512" y1="0" x2="168.247" y2="1077.67" gradientUnits="userSpaceOnUse">
<stop stop-color="#CFBEA1"/>
<stop offset="1" stop-color="#887254"/>
</linearGradient>
<clipPath id="clip0_111_374">
<rect width="1024" height="1024" fill="white"/>
</clipPath>
</defs>
</svg>
