
<svg xmlns="http://www.w3.org/2000/svg" xmlns:xlink="http://www.w3.org/1999/xlink" width="250px" height="250px" viewBox="0 0 250 250" version="1.1">
<defs>
<linearGradient id="linear0" gradientUnits="userSpaceOnUse" x1="313.540009" y1="307.160004" x2="633.98999" y2="307.160004" gradientTransform="matrix(0.263844,0,0,0.263844,0,0)">
<stop offset="0" style="stop-color:rgb(100%,54.509807%,39.607844%);stop-opacity:1;"/>
<stop offset="1" style="stop-color:rgb(100%,23.921569%,33.725491%);stop-opacity:1;"/>
</linearGradient>
<linearGradient id="linear1" gradientUnits="userSpaceOnUse" x1="318.380005" y1="622.02002" x2="601.460022" y2="622.02002" gradientTransform="matrix(0.263844,0,0,0.263844,0,0)">
<stop offset="0" style="stop-color:rgb(100%,54.509807%,39.607844%);stop-opacity:1;"/>
<stop offset="1" style="stop-color:rgb(100%,23.921569%,33.725491%);stop-opacity:1;"/>
</linearGradient>
</defs>
<g id="surface1">
<path style=" stroke:none;fill-rule:nonzero;fill:rgb(24.313726%,24.313726%,36.862746%);fill-opacity:1;" d="M 249.996094 125 C 249.996094 194.035156 194.035156 249.996094 125 249.996094 C 55.964844 249.996094 0 194.035156 0 125 C 0 55.964844 55.964844 0 125 0 C 194.035156 0 249.996094 55.964844 249.996094 125 Z M 249.996094 125 "/>
<path style="fill-rule:nonzero;fill:rgb(15.686275%,15.686275%,25.490198%);fill-opacity:1;stroke-width:2;stroke-linecap:butt;stroke-linejoin:miter;stroke:rgb(19.607843%,19.607843%,31.37255%);stroke-opacity:1;stroke-miterlimit:10;" d="M 897.710677 473.765015 C 897.710677 707.893763 707.893763 897.710677 473.765015 897.710677 C 239.621461 897.710677 49.804547 707.893763 49.804547 473.765015 C 49.804547 239.621461 239.621461 49.804547 473.765015 49.804547 C 707.893763 49.804547 897.710677 239.621461 897.710677 473.765015 Z M 897.710677 473.765015 " transform="matrix(0.263844,0,0,0.263844,0,0)"/>
<path style=" stroke:none;fill-rule:nonzero;fill:url(#linear0);" d="M 167.277344 90.515625 C 167.300781 98.027344 164.246094 105.222656 158.816406 110.417969 L 135.632812 132.753906 C 145.21875 120.976562 144.796875 103.589844 134.050781 92.324219 C 133.257812 91.496094 132.414062 90.710938 131.527344 89.980469 L 84.070312 44.253906 C 83.230469 43.449219 82.746094 42.339844 82.726562 41.179688 C 82.703125 40.015625 83.144531 38.890625 83.953125 38.054688 C 94.875 26.714844 112.917969 26.382812 124.253906 37.308594 L 158.816406 70.613281 C 164.246094 75.804688 167.304688 83 167.277344 90.515625 Z M 167.277344 90.515625 "/>
<path style=" stroke:none;fill-rule:nonzero;fill:url(#linear1);" d="M 117.097656 146.933594 C 106.328125 135.636719 105.917969 118.203125 115.5625 106.417969 L 92.582031 128.558594 C 87.160156 133.785156 84.0625 140.972656 83.996094 148.503906 C 83.925781 156.035156 86.886719 163.28125 92.214844 168.605469 L 144.136719 220.53125 C 145.847656 222.242188 148.625 222.242188 150.335938 220.53125 C 161.464844 209.402344 161.464844 191.359375 150.335938 180.230469 L 118.9375 148.832031 L 119.015625 148.757812 C 118.367188 148.175781 117.714844 147.578125 117.097656 146.933594 Z M 117.097656 146.933594 "/>
</g>
</svg>
