<svg height="250" viewBox="0 0 250 250" width="250" xmlns="http://www.w3.org/2000/svg" xmlns:xlink="http://www.w3.org/1999/xlink"><clipPath id="a"><path d="m250.371094 125.183594c0 69.140625-56.046875 125.1875-125.1875 125.1875-69.136719 0-125.183594-56.046875-125.183594-125.1875 0-69.136719 56.046875-125.183594 125.183594-125.183594 69.140625 0 125.1875 56.046875 125.1875 125.183594zm0 0"/></clipPath><linearGradient id="b" gradientUnits="userSpaceOnUse" x1="-1.0888171797" x2="249.53417263451" y1="249.53411615314" y2="2.0003662096"><stop offset="0" stop-color="#ffd275"/><stop offset=".1315" stop-color="#feca74"/><stop offset=".358" stop-color="#fbb570"/><stop offset=".6523" stop-color="#f79569"/><stop offset="1" stop-color="#f2665f"/></linearGradient><clipPath id="c"><path d="m30 46h36v45h-36zm0 0"/></clipPath><clipPath id="d"><path d="m250.371094 125.183594c0 69.140625-56.046875 125.1875-125.1875 125.1875-69.136719 0-125.183594-56.046875-125.183594-125.1875 0-69.136719 56.046875-125.183594 125.183594-125.183594 69.140625 0 125.1875 56.046875 125.1875 125.183594zm0 0"/></clipPath><clipPath id="e"><path d="m34 0h27v31h-27zm0 0"/></clipPath><clipPath id="f"><path d="m250.371094 125.183594c0 69.140625-56.046875 125.1875-125.1875 125.1875-69.136719 0-125.183594-56.046875-125.183594-125.1875 0-69.136719 56.046875-125.183594 125.183594-125.183594 69.140625 0 125.1875 56.046875 125.1875 125.183594zm0 0"/></clipPath><clipPath id="g"><path d="m65 2h72v42h-72zm0 0"/></clipPath><clipPath id="h"><path d="m250.371094 125.183594c0 69.140625-56.046875 125.1875-125.1875 125.1875-69.136719 0-125.183594-56.046875-125.183594-125.1875 0-69.136719 56.046875-125.183594 125.183594-125.183594 69.140625 0 125.1875 56.046875 125.1875 125.183594zm0 0"/></clipPath><clipPath id="i"><path d="m169 39h40v83h-40zm0 0"/></clipPath><clipPath id="j"><path d="m250.371094 125.183594c0 69.140625-56.046875 125.1875-125.1875 125.1875-69.136719 0-125.183594-56.046875-125.183594-125.1875 0-69.136719 56.046875-125.183594 125.183594-125.183594 69.140625 0 125.1875 56.046875 125.1875 125.183594zm0 0"/></clipPath><clipPath id="k"><path d="m139 90h23v36h-23zm0 0"/></clipPath><clipPath id="l"><path d="m250.371094 125.183594c0 69.140625-56.046875 125.1875-125.1875 125.1875-69.136719 0-125.183594-56.046875-125.183594-125.1875 0-69.136719 56.046875-125.183594 125.183594-125.183594 69.140625 0 125.1875 56.046875 125.1875 125.183594zm0 0"/></clipPath><clipPath id="m"><path d="m120 142h17v29h-17zm0 0"/></clipPath><clipPath id="n"><path d="m250.371094 125.183594c0 69.140625-56.046875 125.1875-125.1875 125.1875-69.136719 0-125.183594-56.046875-125.183594-125.1875 0-69.136719 56.046875-125.183594 125.183594-125.183594 69.140625 0 125.1875 56.046875 125.1875 125.183594zm0 0"/></clipPath><clipPath id="o"><path d="m144 172h18v27h-18zm0 0"/></clipPath><clipPath id="p"><path d="m250.371094 125.183594c0 69.140625-56.046875 125.1875-125.1875 125.1875-69.136719 0-125.183594-56.046875-125.183594-125.1875 0-69.136719 56.046875-125.183594 125.183594-125.183594 69.140625 0 125.1875 56.046875 125.1875 125.183594zm0 0"/></clipPath><clipPath id="q"><path d="m161 200h26v43h-26zm0 0"/></clipPath><clipPath id="r"><path d="m250.371094 125.183594c0 69.140625-56.046875 125.1875-125.1875 125.1875-69.136719 0-125.183594-56.046875-125.183594-125.1875 0-69.136719 56.046875-125.183594 125.183594-125.183594 69.140625 0 125.1875 56.046875 125.1875 125.183594zm0 0"/></clipPath><clipPath id="s"><path d="m0 170h95v80h-95zm0 0"/></clipPath><clipPath id="t"><path d="m250.371094 125.183594c0 69.140625-56.046875 125.1875-125.1875 125.1875-69.136719 0-125.183594-56.046875-125.183594-125.1875 0-69.136719 56.046875-125.183594 125.183594-125.183594 69.140625 0 125.1875 56.046875 125.1875 125.183594zm0 0"/></clipPath><clipPath id="u"><path d="m250.371094 125.183594c0 69.140625-56.046875 125.1875-125.1875 125.1875-69.136719 0-125.183594-56.046875-125.183594-125.1875 0-69.136719 56.046875-125.183594 125.183594-125.183594 69.140625 0 125.1875 56.046875 125.1875 125.183594zm0 0"/></clipPath><filter id="v" height="100%" width="100%" x="0%" y="0%"><feColorMatrix in="SourceGraphic" type="matrix" values="0 0 0 0 1 0 0 0 0 1 0 0 0 0 1 0 0 0 1 0"/></filter><mask id="w"><g filter="url(#v)"><path d="m0 0h250v250h-250z" fill-opacity=".7"/></g></mask><clipPath id="x"><path d="m0 0h250v250h-250z"/></clipPath><g clip-path="url(#a)" fill="url(#b)"><path d="m0 0h250v250h-250z"/><path d="m0 0h250v250h-250z"/></g><g clip-path="url(#c)"><g clip-path="url(#d)"><path d="m63.195312 90.253906h-29.628906c-1.53125 0-2.78125-1.25-2.78125-2.777344v-38.585937c0-1.53125 1.25-2.78125 2.78125-2.78125h29.628906c1.527344 0 2.777344 1.25 2.777344 2.78125v38.585937c0 1.527344-1.25 2.777344-2.777344 2.777344zm0 0" fill="#f8a171"/></g></g><g clip-path="url(#e)"><g clip-path="url(#f)"><path d="m57.339844 30.832031h-19.746094c-1.527344 0-2.777344-1.25-2.777344-2.777343v-27.082032c0-1.527344 1.25-2.777344 2.777344-2.777344h19.746094c1.527344 0 2.777344 1.25 2.777344 2.777344v27.082032c0 1.527343-1.25 2.777343-2.777344 2.777343zm0 0" fill="#faaa71"/></g></g><g clip-path="url(#g)"><g clip-path="url(#h)"><path d="m133.566406 43.796875h-64.816406c-1.527344 0-2.777344-1.25-2.777344-2.777344v-35.417969c0-1.527343 1.25-2.777343 2.777344-2.777343h64.816406c1.527344 0 2.777344 1.25 2.777344 2.777343v35.417969c0 1.550781-1.25 2.777344-2.777344 2.777344zm0 0" fill="#f9a471"/></g></g><g clip-path="url(#i)"><g clip-path="url(#j)"><path d="m205.484375 121.574219h-33.65625c-1.527344 0-2.777344-1.25-2.777344-2.777344v-76.851563c0-1.527343 1.25-2.777343 2.777344-2.777343h33.636719c1.527344 0 2.777344 1.25 2.777344 2.777343v76.851563c.023437 1.527344-1.226563 2.777344-2.757813 2.777344zm0 0" fill="#f7956b"/></g></g><g clip-path="url(#k)"><g clip-path="url(#l)"><path d="m158.265625 125.277344h-15.742187c-1.527344 0-2.777344-1.25-2.777344-2.777344v-29.003906c0-1.527344 1.25-2.777344 2.777344-2.777344h15.742187c1.527344 0 2.777344 1.25 2.777344 2.777344v29.003906c0 1.527344-1.25 2.777344-2.777344 2.777344zm0 0" fill="#faab72"/></g></g><g clip-path="url(#m)"><g clip-path="url(#n)"><path d="m133.566406 170.183594h-10.488281c-1.527344 0-2.777344-1.25-2.777344-2.777344v-22.523438c0-1.527343 1.25-2.777343 2.777344-2.777343h10.488281c1.527344 0 2.777344 1.25 2.777344 2.777343v22.523438c0 1.527344-1.25 2.777344-2.777344 2.777344zm0 0" fill="#f9a571"/></g></g><g clip-path="url(#o)"><g clip-path="url(#p)"><path d="m158.265625 198.75h-11.414063c-1.527343 0-2.777343-1.25-2.777343-2.777344v-20.671875c0-1.527343 1.25-2.777343 2.777343-2.777343h11.414063c1.527344 0 2.777344 1.25 2.777344 2.777343v20.671875c0 1.527344-1.25 2.777344-2.777344 2.777344zm0 0" fill="#fbb171"/></g></g><g clip-path="url(#q)"><g clip-path="url(#r)"><path d="m163.820312 200.277344h20.371094c1.527344 0 2.777344 1.25 2.777344 2.777344v37.039062c0 1.527344-1.25 2.777344-2.777344 2.777344h-20.371094c-1.527343 0-2.777343-1.25-2.777343-2.777344v-37.039062c0-1.503907 1.25-2.777344 2.777343-2.777344zm0 0" fill="#f89e71"/></g></g><g clip-path="url(#s)"><g clip-path="url(#t)"><path d="m-.695312 249.816406h91.96875c1.527343 0 2.777343-1.25 2.777343-2.78125v-74.070312c0-1.53125-1.25-2.78125-2.777343-2.78125h-91.96875c-1.527344 0-2.777344 1.25-2.777344 2.78125v74.070312c0 1.53125 1.25 2.78125 2.777344 2.78125zm0 0" fill="#fcbb71"/></g></g><path d="m125.183594 11.574219c15.347656 0 30.210937 3.007812 44.214844 8.910156 13.519531 5.71875 25.671874 13.914063 36.109374 24.355469 10.441407 10.4375 18.636719 22.589844 24.351563 36.109375 5.925781 14.003906 8.914063 28.867187 8.914063 44.210937 0 15.347656-3.007813 30.210938-8.914063 44.214844-5.714844 13.519531-13.910156 25.671875-24.351563 36.109375-10.4375 10.441406-22.589843 18.636719-36.109374 24.355469-14.003907 5.925781-28.867188 8.910156-44.214844 8.910156-15.34375 0-30.207032-3.007812-44.210938-8.910156-13.519531-5.71875-25.671875-13.914063-36.113281-24.355469-10.4375-10.4375-18.632813-22.589844-24.351563-36.109375-5.925781-13.980469-8.933593-28.867188-8.933593-44.191406 0-15.324219 3.007812-30.207032 8.910156-44.210938 5.71875-13.519531 13.914063-25.671875 24.355469-36.113281 10.4375-10.4375 22.589844-18.632813 36.109375-24.351563 14.003906-5.925781 28.890625-8.933593 44.234375-8.933593m0-11.574219c-69.140625 0-125.183594 56.042969-125.183594 125.183594 0 69.144531 56.042969 125.1875 125.183594 125.1875 69.144531 0 125.1875-56.042969 125.1875-125.1875 0-69.140625-56.066406-125.183594-125.1875-125.183594zm0 0" fill="#ffd48a"/><g clip-path="url(#u)"><g clip-path="url(#x)" mask="url(#w)"><path d="m125.183594 258.449219c-17.984375 0-35.4375-3.519531-51.875-10.484375-15.878906-6.714844-30.113282-16.320313-42.359375-28.566406-12.246094-12.222657-21.851563-26.480469-28.566407-42.339844-6.941406-16.433594-10.484374-33.886719-10.484374-51.875 0-17.984375 3.519531-35.4375 10.484374-51.875 6.714844-15.878906 16.320313-30.113282 28.566407-42.359375 12.246093-12.246094 26.480469-21.851563 42.359375-28.566407 16.414062-6.964843 33.867187-10.484374 51.875-10.484374 17.988281 0 35.441406 3.519531 51.875 10.484374 15.882812 6.714844 30.117187 16.320313 42.363281 28.566407 12.246094 12.246093 21.851563 26.480469 28.5625 42.359375 6.945313 16.4375 10.488281 33.890625 10.488281 51.875 0 17.988281-3.519531 35.441406-10.488281 51.875-6.710937 15.882812-16.316406 30.117187-28.5625 42.363281s-26.480469 21.851563-42.363281 28.5625c-16.433594 6.945313-33.886719 10.464844-51.875 10.464844zm0-238.773438c-14.257813 0-28.054688 2.777344-41.0625 8.289063-12.570313 5.320312-23.84375 12.914062-33.542969 22.613281s-17.3125 20.972656-22.613281 33.542969c-5.511719 12.984375-8.289063 26.804687-8.289063 41.0625 0 14.261718 2.777344 28.058594 8.289063 41.066406 5.320312 12.570312 12.914062 23.84375 22.613281 33.542969s20.972656 17.3125 33.542969 22.613281c12.984375 5.488281 26.804687 8.289062 41.0625 8.289062 14.261718 0 28.058594-2.777343 41.066406-8.289062 12.570312-5.324219 23.84375-12.914062 33.542969-22.613281s17.3125-20.972657 22.613281-33.542969c5.488281-12.984375 8.289062-26.804688 8.289062-41.066406 0-14.257813-2.777343-28.054688-8.289062-41.0625-5.324219-12.570313-12.914062-23.84375-22.613281-33.542969s-20.972657-17.3125-33.542969-22.613281c-13.007812-5.511719-26.828125-8.289063-41.066406-8.289063zm0 0" fill="#f04b36"/></g></g><path d="m125.183594 11.574219c15.347656 0 30.210937 3.007812 44.214844 8.910156 13.519531 5.71875 25.671874 13.914063 36.109374 24.355469 10.441407 10.4375 18.636719 22.589844 24.351563 36.109375 5.925781 14.003906 8.914063 28.867187 8.914063 44.210937 0 15.347656-3.007813 30.210938-8.914063 44.214844-5.714844 13.519531-13.910156 25.671875-24.351563 36.109375-10.4375 10.441406-22.589843 18.636719-36.109374 24.355469-14.003907 5.925781-28.867188 8.910156-44.214844 8.910156-15.34375 0-30.207032-3.007812-44.210938-8.910156-13.519531-5.71875-25.671875-13.914063-36.113281-24.355469-10.4375-10.4375-18.632813-22.589844-24.351563-36.109375-5.925781-13.980469-8.933593-28.867188-8.933593-44.191406 0-15.324219 3.007812-30.207032 8.910156-44.210938 5.71875-13.519531 13.914063-25.671875 24.355469-36.113281 10.4375-10.4375 22.589844-18.632813 36.109375-24.351563 14.003906-5.925781 28.890625-8.933593 44.234375-8.933593m0-11.574219c-69.140625 0-125.183594 56.042969-125.183594 125.183594 0 69.144531 56.042969 125.1875 125.183594 125.1875 69.144531 0 125.1875-56.042969 125.1875-125.1875 0-69.140625-56.066406-125.183594-125.1875-125.183594zm0 0" fill="#ffd48a"/><path d="m98.195312 148.910156c1.433594 1.414063 2.847657 2.824219 4.28125 4.238282.878907.855468 1.132813.878906 1.96875 0 1.78125-1.828126 3.585938-3.632813 5.371094-5.464844.324219-.34375.625-.460938 1.085938-.300782 3.101562 1.089844 6.296875 1.183594 9.515625.835938 1.25-.140625 1.273437-.140625 1.363281 1.203125-1.039062.09375-2.058594.230469-3.078125.300781-.738281.046875-1.503906.023438-2.246094.023438h-.878906c-1.25-.277344-2.523437-.511719-3.773437-.878906-.671876-.210938-1.132813-.117188-1.621094.414062-1.734375 1.828125-3.492188 3.636719-5.277344 5.441406-.691406.695313-.996094.695313-1.710938 0-1.480468-1.480468-3.011718-2.964844-4.445312-4.492187-.277344-.371094-.371094-.902344-.554688-1.320313zm0 0" fill="#fe8c2c"/><g fill="#fefefe"><path d="m51.59375 200.679688c-.1875-.113282-.371094-.230469-.535156-.394532-.855469-.902344-1.734375-1.78125-2.589844-2.707031-.09375-.113281-.164062-.253906-.234375-.394531l2.59375-2.453125 2.546875-2.382813 3.84375-3.613281c.253906-.207031.53125-.414063.785156-.644531 2.039063-1.898438 4.074219-3.796875 6.113282-5.71875l18.816406-17.570313c3.519531-3.285156 7.039062-6.597656 10.578125-9.882812.742187-.695313 1.621093-.671875 2.339843.066406.347657.347656.671876.742187 1.019532 1.113281.714844.785156.714844 1.574219-.046875 2.3125-.695313.671875-1.414063 1.34375-2.128907 1.992188-3.378906 3.148437-6.761718 6.296875-10.117187 9.445312-4.90625 4.582032-9.816406 9.1875-14.746094 13.773438-2.660156 2.5-5.324219 4.976562-7.984375 7.476562-.394531.371094-.742187.785156-1.089844 1.179688l-4.421874 4.003906-2.40625 2.246094zm0 0"/><path d="m58.121094 206.675781-3.542969-3.265625 2.152344-2.082031 2.339843-2.175781 4.074219-3.796875c.136719-.113281.300781-.207031.414063-.324219 2.085937-1.941406 4.167968-3.886719 6.25-5.855469l15.578125-14.582031c1.992187-1.875 4.007812-3.75 6.019531-5.601562.742188-.695313 1.621094-.648438 2.339844.113281.253906.277343.484375.535156.714844.8125 1.089843 1.132812 1.089843 1.78125-.042969 2.847656-4.632813 4.328125-9.238281 8.679687-13.867188 13.007813-1.597656 1.480468-3.195312 2.941406-4.769531 4.445312-1.574219 1.480469-3.148438 2.984375-4.722656 4.488281l-4.210938 3.914063-2.894531 2.730468-1.597656 1.503907-.925781.8125-1.757813 1.617187zm0 0"/><path d="m42.242188 190.101562 1.503906-1.597656.671875-.53125 1.851562-1.78125 1.898438-1.785156c.230469-.136719.4375-.300781.625-.460938.855469-.835937 1.710937-1.691406 2.542969-2.523437l1.113281-1.089844c.277343-.160156.53125-.324219.761719-.53125 1.296874-1.203125 2.570312-2.40625 3.867187-3.609375 2.082031-1.96875 4.167969-3.9375 6.25-5.90625.902344-.808594 1.804687-1.617187 2.683594-2.453125 3.125-2.914062 6.25-5.878906 9.398437-8.796875 1.066406-.992187 2.199219-1.941406 3.289063-2.914062.742187-.117188 1.320312.160156 1.804687.695312.230469.277344.488282.53125.71875.808594.949219 1.089844.925782 1.714844-.140625 2.707031-1.085937 1.019531-2.199219 2.039063-3.285156 3.058594-5.277344 4.929687-10.535156 9.859375-15.8125 14.8125-1.597656 1.480469-3.191406 2.941406-4.765625 4.421875-.902344.855469-1.761719 1.734375-2.664062 2.59375-.417969.347656-.832032.671875-1.226563 1.039062-.855469.8125-1.710937 1.644532-2.570313 2.476563l-2.613281 2.410156-2.894531 2.636719c-.671875-.761719-1.367188-1.527344-2.015625-2.3125-.367187-.394531-.667969-.902344-.992187-1.367188zm0 0"/><path d="m99.117188 148.804688c-.648438-.996094-.671876-1.019532.160156-1.988282 1.433594-1.691406 2.917968-3.335937 4.375-5 .230468-.28125.417968-.511718.183594-.882812-1.410157-2.21875-1.894532-4.699219-1.894532-7.3125 0-.046875 0-.09375-.023437-.140625.113281-1.015625.113281-1.015625-.789063-1.320313-3.078125-1.015625-6.15625-2.035156-9.234375-3.054687-1.785156-.578125-3.566406-1.132813-5.347656-1.6875-.878906-.671875-.902344-.925781-.1875-1.738281 3.589844-4.050782 7.175781-8.101563 10.8125-12.152344.347656-.394532.902344-.648438 1.386719-.832032.765625-.277343 1.550781-.441406 2.339844-.648437.09375-.023437.183593-.023437.277343-.046875 4.027344-.972656 8.054688-1.921875 12.058594-2.894531.1875-.046875.324219-.136719.464844-.277344 1.019531-1.15625 2.035156-2.335937 3.054687-3.519531 2.523438-2.890625 5.140625-5.714844 8.078125-8.214844 1.921875-1.644531 3.84375-3.289062 5.765625-4.910156 1.226563-.902344 2.40625-1.804688 3.632813-2.707032 5.210937-3.796874 10.671875-7.105468 16.574219-9.699218 1.992187-.878906 4.050781-1.621094 6.089843-2.453125.136719-.023438.253907-.046875.390625-.09375 4.097656-1.363281 8.335938-2.265625 12.617188-2.683594.140625 0 .277344.023437.417968.023437 2.105469.046876 4.210938.046876 6.316407.136719 1.230469.070313 1.230469.164063 1.554687 1.507813.160156 2.890625 0 5.808594-.464844 8.65625-1.367187 7.960937-4.445312 15.277344-8.589843 22.152344-6.664063 11.085937-15.183594 20.578124-25.042969 28.867187-.394531.300781-.648438.738281-.742188 1.226563-1.019531 4.8125-2.035156 9.652343-3.101562 14.464843-.09375.417969-.300781.789063-.601562 1.089844-4.144532 3.726563-8.3125 7.453125-12.5 11.132813-.253907.210937-.671876.210937-1.042969.324218-.230469-.414062-.507813-.785156-.648438-1.203125-.714843-2.082031-1.386719-4.167969-2.082031-6.273437-.765625-2.40625-1.550781-4.835938-2.316406-7.246094-.023438-.089844-.136719-.160156-.207032-.230469-.070312-1.226562-.09375-1.226562-1.25-1.109375-2.964843.324219-5.902343.230469-8.773437-.765625-.441406-.160156-.695313-.046875-1.019531.277344-1.617188 1.691406-3.285156 3.355469-4.929688 5.046875-.785156.808594-1.019531.785156-1.828125 0-1.296875-1.226562-2.617187-2.523438-3.933593-3.820312zm33.378906-31.226563.136718.1875c.070313.160156.1875.300781.300782.4375 2.640625 2.570313 5.789062 3.449219 9.398437 2.707031 1.367188-.277344 2.640625-.832031 3.703125-1.78125 2.246094-1.734375 3.449219-4.050781 3.683594-6.851562.160156-1.945313-.117188-3.84375-1.183594-5.554688-.042968-.117187-.089844-.207031-.136718-.300781-3.75-6.296875-13.078126-6.25-16.738282.113281-1.550781 2.6875-1.78125 5.535156-.667968 8.472656.507812.859376.992187 1.714844 1.503906 2.570313zm0 0"/></g><path d="m145.945312 119.199219c-1.066406.949219-2.316406 1.503906-3.683593 1.757812-3.5625.742188-6.710938-.136719-9.351563-2.683593-.113281-.140626-.207031-.277344-.300781-.441407l-.136719-.183593v.023437c-.046875-.1875-.117187-.371094-.1875-.554687-1.15625-2.152344-1.363281-4.421876-.601562-6.738282.488281-1.457031 1.34375-2.730468 2.5-3.726562 2.339844-2.035156 5.046875-2.636719 8.011718-1.851563 1.550782.417969 2.847657 1.296875 3.957032 2.5 2.476562 2.664063 2.984375 6.804688 1.132812 9.90625-.414062.671875-.902344 1.320313-1.339844 1.992188zm0 0" fill="#fecaa8"/><path d="m148.421875 106.859375c-.140625-.066406-.324219-.089844-.417969-.207031-1.804687-2.082032-4.027344-3.242188-6.804687-3.449219-2.339844-.183594-4.445313.394531-6.296875 1.761719-2.335938 1.710937-3.75 4.003906-3.890625 6.941406-.042969.949219.070312 1.921875.09375 2.871094 0 .09375-.070313.1875-.113281.277344-1.136719-2.914063-.882813-5.738282.667968-8.402344 3.636719-6.320313 12.917969-6.367188 16.667969-.117188.023437.117188.070313.210938.09375.324219zm0 0" fill="#fe7837"/></svg>