<svg height="250" viewBox="0 0 250 250" width="250" xmlns="http://www.w3.org/2000/svg" xmlns:xlink="http://www.w3.org/1999/xlink"><linearGradient id="a" gradientUnits="userSpaceOnUse" x1="23.4945" x2="265.45475" y1="220.812" y2="86.42325"><stop offset="0" stop-color="#ff3a54"/><stop offset=".417289" stop-color="#ffb700"/><stop offset=".72418" stop-color="#32c065"/><stop offset="1" stop-color="#1239ff"/></linearGradient><path d="m0 129.378906c.0546875 41.390625 19.242188 80.257813 51.617188 104.558594.605468-2.820312.90625-6.0625.90625-9.757812v-125.074219c0-9.925781-2.058594-16.59375-6.167969-19.996094-2.738281-2.269531-8.078125-3.96875-16.027344-5.105469v-10.210937h77.691406v33.613281c7.945313-11.0625 14.792969-19.148438 20.550781-24.25 10.960938-9.644531 22.328126-14.46875 34.113282-14.46875 12.332031 0 21.511718 4.257812 27.539062 12.765625 4.382813 5.957031 6.582032 12.761719 6.582032 20.417969 0 7.09375-1.78125 13.183594-5.34375 18.289062-4.660157 6.808594-11.652344 10.214844-20.96875 10.214844-8.769532 0-17.125-5.671875-25.074219-17.015625-3.835938-5.390625-7.667969-8.085937-11.503907-8.085937-6.851562 0-12.878906 4.542968-18.085937 13.617187-4.109375 7.375-6.167969 16.308594-6.167969 26.800781v80.40625c0 13.328125 1.917969 22.261719 5.753906 26.800782 3.835938 4.539062 11.785157 8.191406 24.253907 6.804687 51.863281-1.578125 110.253906-62.800781 110.332031-128.3125.003906-71.453125-55.960938-121.390625-125-121.390625s-125.00390625 57.925781-125 129.378906zm0 0" fill="url(#a)" fill-rule="evenodd"/></svg>