
<svg xmlns="http://www.w3.org/2000/svg" xmlns:xlink="http://www.w3.org/1999/xlink" width="250px" height="250px" viewBox="0 0 250 250" version="1.1">
<g id="surface1">
<path style=" stroke:none;fill-rule:nonzero;fill:rgb(0%,0%,0%);fill-opacity:1;" d="M 250 125 C 250 194.035156 194.035156 250 125 250 C 55.964844 250 0 194.035156 0 125 C 0 55.964844 55.964844 0 125 0 C 194.035156 0 250 55.964844 250 125 Z M 250 125 "/>
<path style=" stroke:none;fill-rule:nonzero;fill:rgb(100%,100%,100%);fill-opacity:1;" d="M 170.65625 175.339844 C 163.632812 175.339844 157.304688 175.476562 150.988281 175.195312 C 150.027344 175.152344 148.847656 173.296875 148.292969 172.050781 C 143.792969 161.957031 139.335938 151.84375 135.074219 141.648438 C 133.992188 139.050781 132.554688 138.085938 129.773438 138.234375 C 125.785156 138.449219 121.773438 138.289062 117.359375 138.289062 C 117.253906 140.261719 117.097656 141.867188 117.089844 143.472656 C 117.066406 152.878906 116.984375 162.285156 117.132812 171.691406 C 117.175781 174.609375 116.195312 175.554688 113.296875 175.441406 C 108.199219 175.242188 103.085938 175.386719 97.460938 175.386719 L 97.460938 137.875 C 91.984375 137.875 87.023438 137.714844 82.078125 137.929688 C 78.730469 138.074219 77.183594 137.089844 77.441406 133.507812 C 77.691406 130.066406 77.574219 126.589844 77.472656 123.136719 C 77.398438 120.636719 78.453125 119.667969 80.941406 119.714844 C 86.199219 119.808594 91.464844 119.742188 97.039062 119.742188 L 97.039062 110.464844 C 92.082031 110.464844 87.132812 110.296875 82.203125 110.523438 C 78.660156 110.6875 77.042969 109.589844 77.304688 105.847656 C 77.546875 102.40625 77.4375 98.933594 77.332031 95.476562 C 77.265625 93.144531 78.25 92.273438 80.546875 92.3125 C 85.808594 92.394531 91.070312 92.335938 97.078125 92.335938 C 97.078125 87.894531 97.214844 83.683594 97.03125 79.480469 C 96.910156 76.605469 97.910156 75.648438 100.839844 75.667969 C 116.382812 75.785156 131.925781 75.621094 147.472656 75.757812 C 158.570312 75.855469 167.472656 84.824219 167.855469 96.300781 C 168.105469 103.898438 168.058594 111.515625 167.855469 119.121094 C 167.648438 126.894531 164.371094 133.019531 157.015625 136.363281 C 154.453125 137.527344 154.84375 138.933594 155.761719 140.957031 C 160.140625 150.648438 164.425781 160.378906 168.71875 170.113281 C 169.371094 171.570312 169.839844 173.105469 170.65625 175.339844 Z M 117.484375 94.570312 L 117.484375 120 C 125.902344 120 133.925781 120.082031 141.945312 119.960938 C 145.695312 119.90625 147.90625 117.636719 148.105469 113.996094 C 148.347656 109.445312 148.34375 104.886719 148.09375 100.339844 C 147.917969 97.136719 146.109375 94.695312 142.65625 94.625 C 134.371094 94.460938 126.078125 94.570312 117.484375 94.570312 Z M 117.484375 94.570312 "/>
</g>
</svg>
