<svg height="250" viewBox="0 0 250 250" width="250" xmlns="http://www.w3.org/2000/svg" xmlns:xlink="http://www.w3.org/1999/xlink"><clipPath id="a"><path d="m250 125c0 69.035156-55.964844 125-125 125s-125-55.964844-125-125 55.964844-125 125-125 125 55.964844 125 125zm0 0"/></clipPath><linearGradient id="b" gradientUnits="userSpaceOnUse" x1="-3.735" x2="289.76251225" y1="228.66000375" y2="-21.7024995"><stop offset="0" stop-color="#12ff80"/><stop offset=".13" stop-color="#15fd85"/><stop offset=".29" stop-color="#1ff896"/><stop offset=".49" stop-color="#30f1b2"/><stop offset=".69" stop-color="#48e7d9"/><stop offset=".87" stop-color="#5fddff"/></linearGradient><g clip-path="url(#a)"><path d="m0 0h250v250h-250z" fill="url(#b)"/></g><g fill="#121312"><path d="m195.015625 124.953125h-17.074219c-5.101562 0-9.234375 4.132813-9.234375 9.230469v24.785156c0 5.101562-4.132812 9.234375-9.230469 9.234375h-67.945312c-5.097656 0-9.230469 4.132813-9.230469 9.230469v17.078125c0 5.101562 4.132813 9.234375 9.230469 9.234375h71.875c5.101562 0 9.179688-4.136719 9.179688-9.234375v-13.699219c0-5.101562 4.132812-8.71875 9.230468-8.71875h13.199219c5.101563 0 9.234375-4.136719 9.234375-9.234375v-28.785156c0-5.097657-4.136719-9.125-9.234375-9.125zm0 0"/><path d="m82.296875 91.027344c0-5.101563 4.132813-9.230469 9.230469-9.230469h67.898437c5.101563 0 9.234375-4.136719 9.234375-9.234375v-17.078125c0-5.097656-4.136718-9.230469-9.234375-9.230469h-71.832031c-5.101562 0-9.234375 4.132813-9.234375 9.230469v13.15625c0 5.101563-4.132813 9.234375-9.230469 9.234375h-13.144531c-5.097656 0-9.230469 4.136719-9.230469 9.234375v28.8125c0 5.101563 4.148438 9.027344 9.25 9.027344h17.074219c5.101563 0 9.234375-4.136719 9.234375-9.234375l-.015625-24.683594zm0 0"/><path d="m117.460938 107.003906h16.40625c5.34375 0 9.683593 4.339844 9.683593 9.683594v16.40625c0 5.34375-4.339843 9.683594-9.683593 9.683594h-16.40625c-5.34375 0-9.683594-4.339844-9.683594-9.683594v-16.40625c0-5.34375 4.339844-9.683594 9.683594-9.683594zm0 0"/></g></svg>