<?xml version="1.0" encoding="UTF-8"?><svg id="Layer_2" xmlns="http://www.w3.org/2000/svg" xmlns:xlink="http://www.w3.org/1999/xlink" viewBox="0 0 1000 1000"><defs><style>.cls-1{fill:none;}.cls-2{fill:url(#linear-gradient);}.cls-3{clip-path:url(#clippath);}.cls-4{fill:#121312;}</style><clipPath id="clippath"><circle class="cls-1" cx="500" cy="500" r="500"/></clipPath><linearGradient id="linear-gradient" x1="-14.94" y1="914.64" x2="1159.05" y2="-86.81" gradientUnits="userSpaceOnUse"><stop offset="0" stop-color="#12ff80"/><stop offset=".13" stop-color="#15fd85"/><stop offset=".29" stop-color="#1ff896"/><stop offset=".49" stop-color="#30f1b2"/><stop offset=".69" stop-color="#48e7d9"/><stop offset=".87" stop-color="#5fddff"/></linearGradient></defs><g id="Layer_1-2"><g class="cls-3"><rect class="cls-2" x="-48" y="-81.5" width="1050" height="1153"/></g><g><path class="cls-4" d="M780.07,499.81h-68.31c-20.4,0-36.93,16.54-36.93,36.93v99.14c0,20.4-16.54,36.93-36.93,36.93H366.13c-20.4,0-36.93,16.54-36.93,36.93v68.31c0,20.4,16.54,36.93,36.93,36.93h287.5c20.4,0,36.71-16.54,36.71-36.93v-54.8c0-20.4,16.54-34.88,36.93-34.88h52.8c20.4,0,36.93-16.54,36.93-36.93v-115.14c0-20.4-16.54-36.5-36.93-36.5Z"/><path class="cls-4" d="M329.18,364.11c0-20.4,16.54-36.93,36.93-36.93h271.6c20.4,0,36.93-16.54,36.93-36.93v-68.31c0-20.4-16.54-36.93-36.93-36.93H350.37c-20.4,0-36.93,16.54-36.93,36.93v52.63c0,20.4-16.54,36.93-36.93,36.93h-52.57c-20.4,0-36.93,16.54-36.93,36.93v115.26c0,20.4,16.6,36.1,37,36.1h68.31c20.4,0,36.93-16.54,36.93-36.93l-.06-98.74Z"/><path class="cls-4" d="M469.85,428.01h65.62c21.38,0,38.74,17.36,38.74,38.74v65.62c0,21.38-17.36,38.74-38.74,38.74h-65.62c-21.38,0-38.74-17.36-38.74-38.74v-65.62c0-21.38,17.36-38.74,38.74-38.74Z"/></g></g></svg>