<svg height="250" viewBox="0 0 250 250" width="250" xmlns="http://www.w3.org/2000/svg" xmlns:xlink="http://www.w3.org/1999/xlink"><linearGradient id="a" gradientTransform="matrix(250 0 0 -250 -6250 256250)" gradientUnits="userSpaceOnUse" x1="25.214399" x2="25.8374" y1="1024.822266" y2="1024.119263"><stop offset="0" stop-color="#00adef"/><stop offset="1" stop-color="#0084ff"/></linearGradient><path d="m250 125c0 69.035156-55.964844 125-125 125s-125-55.964844-125-125 55.964844-125 125-125 125 55.964844 125 125zm0 0" fill="url(#a)"/><path d="m83 59-13.5 13.5v53.5l13.5 13.5h53.5v27h-26.5v-13.5h-40.5v27l13.5 13.5h80.5l13.5-13.5v-54l-13.5-13.5h-53.5v-27h27v13.5h40.5v-27l-13.5-13.5h-81zm0 0" fill="#fff"/></svg>