<svg height="250" viewBox="0 0 250 250" width="250" xmlns="http://www.w3.org/2000/svg"><path d="m396.999437 202.801688c0 107.583937-87.213499 194.797437-194.797437 194.797437-107.583937 0-194.80375-87.2135-194.80375-194.797437 0-107.583938 87.219813-194.80375 194.80375-194.80375 107.583938 0 194.797437 87.219812 194.797437 194.80375zm0 0" fill="#fff" stroke="#231f20" stroke-miterlimit="10" stroke-width="4.6684" transform="scale(.618812)"/><path d="m163.803063 259.79725c4.494499 2.70175 9.797 5.005813 15.995875 6.905875 6.198875 1.89375 12.49875 2.897438 19.000625 2.897438 7.39825 0 13.698125-1.900063 18.798625-5.599188 5.2015-3.699125 7.70125-9.702312 7.70125-18.10425 0-6.99425-1.597063-12.694437-4.6965-17.19525-3.10575-4.500812-7.101563-8.603937-11.905375-12.202062-4.7975-3.598125-9.999-6.899563-15.598188-9.898-5.599187-3.00475-10.800688-6.602875-15.598187-10.901688-4.803813-4.197812-8.799625-9.298312-11.899063-15.0995-3.099437-5.801187-4.702812-13.199437-4.702812-22.100062 0-14.297813 3.901125-25.098501 11.602375-32.301063 7.70125-7.29725 18.697625-10.901687 32.79975-10.901687 9.197312 0 17.100562.801687 23.899125 2.49975 6.697562 1.704375 12.49875 4.002125 17.49825 6.899562l-6.400875 20.2c-4.298813-2.19675-9.197313-4.096812-14.7965-5.498187-5.599188-1.496063-11.299375-2.19675-17.100563-2.19675-8.098937 0-13.900125 1.698062-17.59925 4.9995-3.699125 3.396125-5.5045 8.597625-5.5045 15.800187 0 5.599188 1.603375 10.396687 4.702813 14.297813 3.099437 3.901125 7.101562 7.49925 11.899062 10.800687 4.803813 3.301438 9.999 6.596563 15.598188 9.898 5.6055 3.402438 10.800687 7.303563 15.6045 11.899063 4.7975 4.601812 8.799625 10.1 11.899062 16.500875 3.099438 6.400875 4.6965 14.398812 4.6965 24.000125 0 6.299875-.997375 12.202062-2.998437 17.80125-2.001063 5.599187-5.1005 10.497687-9.197313 14.600812-4.103125 4.096812-9.304625 7.49925-15.5035 9.898-6.198875 2.49975-13.395125 3.699125-21.696062 3.699125-9.904313 0-18.400938-.997375-25.5025-2.897437-7.202563-1.900063-13.199438-4.399813-18.198938-7.60025zm0 0" stroke="#231f20" stroke-miterlimit="10" stroke-width="4.6684" transform="scale(.618812)"/><path d="m70.296875 123.949219c0 7.074219-5.734375 12.808593-12.808594 12.808593s-12.808593-5.734374-12.808593-12.808593 5.734374-12.8125 12.808593-12.8125 12.808594 5.738281 12.808594 12.8125zm0 0"/><path d="m207.984375 123.949219c0 7.074219-5.738281 12.808593-12.8125 12.808593s-12.808594-5.734374-12.808594-12.808593 5.734375-12.8125 12.808594-12.8125 12.8125 5.738281 12.8125 12.8125zm0 0"/></svg>