<!-- Generator: Adobe Illustrator 22.0.1, SVG Export Plug-In . SVG Version: 6.00 Build 0)  -->
<svg xmlns="http://www.w3.org/2000/svg" xmlns:xlink="http://www.w3.org/1999/xlink" width="250px" height="250px" viewBox="0 0 250 250" version="1.1">
<g id="surface1">
<path style="fill-rule:nonzero;fill:rgb(100%,100%,100%);fill-opacity:1;stroke-width:4.6684;stroke-linecap:butt;stroke-linejoin:miter;stroke:rgb(13.725491%,12.156863%,12.54902%);stroke-opacity:1;stroke-miterlimit:10;" d="M 396.999437 202.801688 C 396.999437 310.385625 309.785938 397.599125 202.202 397.599125 C 94.618063 397.599125 7.39825 310.385625 7.39825 202.801688 C 7.39825 95.21775 94.618063 7.997938 202.202 7.997938 C 309.785938 7.997938 396.999437 95.21775 396.999437 202.801688 Z M 396.999437 202.801688 " transform="matrix(0.618812,0,0,0.618812,0,0)"/>
<path style="fill-rule:nonzero;fill:rgb(0%,0%,0%);fill-opacity:1;stroke-width:4.6684;stroke-linecap:butt;stroke-linejoin:miter;stroke:rgb(13.725491%,12.156863%,12.54902%);stroke-opacity:1;stroke-miterlimit:10;" d="M 163.803063 259.79725 C 168.297562 262.499 173.600063 264.803063 179.798938 266.703125 C 185.997813 268.596875 192.297688 269.600563 198.799563 269.600563 C 206.197813 269.600563 212.497688 267.7005 217.598188 264.001375 C 222.799688 260.30225 225.299438 254.299063 225.299438 245.897125 C 225.299438 238.902875 223.702375 233.202688 220.602938 228.701875 C 217.497188 224.201063 213.501375 220.097938 208.697563 216.499813 C 203.900063 212.901688 198.698563 209.60025 193.099375 206.601813 C 187.500188 203.597063 182.298687 199.998938 177.501188 195.700125 C 172.697375 191.502313 168.701563 186.401813 165.602125 180.600625 C 162.502688 174.799438 160.899313 167.401188 160.899313 158.500563 C 160.899313 144.20275 164.800438 133.402062 172.501688 126.1995 C 180.202938 118.90225 191.199313 115.297813 205.301438 115.297813 C 214.49875 115.297813 222.402 116.0995 229.200563 117.797563 C 235.898125 119.501938 241.699313 121.799688 246.698813 124.697125 L 240.297938 144.897125 C 235.999125 142.700375 231.100625 140.800313 225.501438 139.398938 C 219.90225 137.902875 214.202063 137.202188 208.400875 137.202188 C 200.301938 137.202188 194.50075 138.90025 190.801625 142.201688 C 187.1025 145.597813 185.297125 150.799313 185.297125 158.001875 C 185.297125 163.601063 186.9005 168.398562 189.999938 172.299688 C 193.099375 176.200813 197.1015 179.798938 201.899 183.100375 C 206.702813 186.401813 211.898 189.696938 217.497188 192.998375 C 223.102688 196.400813 228.297875 200.301938 233.101688 204.897438 C 237.899188 209.49925 241.901313 214.997438 245.00075 221.398313 C 248.100188 227.799188 249.69725 235.797125 249.69725 245.398438 C 249.69725 251.698313 248.699875 257.6005 246.698813 263.199688 C 244.69775 268.798875 241.598313 273.697375 237.5015 277.8005 C 233.398375 281.897312 228.196875 285.29975 221.998 287.6985 C 215.799125 290.19825 208.602875 291.397625 200.301938 291.397625 C 190.397625 291.397625 181.901 290.40025 174.799438 288.500188 C 167.596875 286.600125 161.6 284.100375 156.6005 280.899938 Z M 163.803063 259.79725 " transform="matrix(0.618812,0,0,0.618812,0,0)"/>
<path style=" stroke:none;fill-rule:nonzero;fill:rgb(0%,0%,0%);fill-opacity:1;" d="M 70.296875 123.949219 C 70.296875 131.023438 64.5625 136.757812 57.488281 136.757812 C 50.414062 136.757812 44.679688 131.023438 44.679688 123.949219 C 44.679688 116.875 50.414062 111.136719 57.488281 111.136719 C 64.5625 111.136719 70.296875 116.875 70.296875 123.949219 Z M 70.296875 123.949219 "/>
<path style=" stroke:none;fill-rule:nonzero;fill:rgb(0%,0%,0%);fill-opacity:1;" d="M 207.984375 123.949219 C 207.984375 131.023438 202.246094 136.757812 195.171875 136.757812 C 188.097656 136.757812 182.363281 131.023438 182.363281 123.949219 C 182.363281 116.875 188.097656 111.136719 195.171875 111.136719 C 202.246094 111.136719 207.984375 116.875 207.984375 123.949219 Z M 207.984375 123.949219 "/>
</g>
</svg>
