<svg width="33" height="32" viewBox="0 0 33 32" fill="none" xmlns="http://www.w3.org/2000/svg">
<ellipse cx="16.0479" cy="15.9127" rx="16" ry="15.7154" fill="#4048FF"/>
<path d="M27.043 13.5955C26.8819 12.9319 26.6658 12.0908 26.4024 11.7704H25.8476H24.9601H24.2217H20.6705H7.81371C9.0766 8.88719 12.316 7.15518 16.0178 7.15518C18.2437 7.15518 20.3017 7.60576 21.864 8.88719H24.7832C24.2341 8.40666 23.5827 7.67191 22.842 7.16655C20.9374 5.86621 18.5136 5.15918 16.0178 5.15918C13.5218 5.15918 11.0981 5.87983 9.19321 7.17984C7.25745 8.50116 5.92883 10.3969 5.45199 12.4694L5.17638 13.6926H13.0222V16.2554H4.70508V18.1776H13.0222V26.6671H14.9791V18.1776H16.773V26.6671H18.7775V18.1776H25.2232H27.1788H27.2524C27.4895 16.5758 27.4231 15.1576 27.043 13.5955ZM16.773 16.2554H14.9791V13.6926H16.773V16.2554ZM18.7775 16.2554V13.6926H24.9689C25.0095 13.6926 25.0487 13.9482 25.0837 14.0916C25.263 14.8282 25.3621 15.6147 25.3828 16.2554H18.7775Z" fill="white"/>
</svg>
