<?xml version="1.0" encoding="UTF-8"?>
<svg width="106px" height="106px" viewBox="0 0 106 106" version="1.1" xmlns="http://www.w3.org/2000/svg" xmlns:xlink="http://www.w3.org/1999/xlink">
    <!-- Generator: Sketch 45 (43475) - http://www.bohemiancoding.com/sketch -->
    <title>SvgjsG1825</title>
    <desc>Created with Sketch.</desc>
    <defs></defs>
    <g id="Page-1" stroke="none" stroke-width="1" fill="none" fill-rule="evenodd">
        <g id="rados-alpha-logo" transform="translate(-1.000000, -1.000000)" fill-rule="nonzero" fill="#005736">
            <g id="SvgjsG1825" transform="translate(0.987841, 0.988976)">
                <g id="Group">
                    <path d="M101.899269,4.69234902 C95.2190785,-1.98897539 81.8439561,-0.523892036 65.1451809,8.6668979 C49.0258621,3.51415892 31.669387,7.68488383 19.6754345,19.6777024 C7.68488383,31.668253 3.51415892,49.0247281 8.66576394,65.1451809 C-0.522758071,81.84509 -1.98784143,95.2224804 4.69121505,101.901537 C7.44675108,104.655939 11.3770753,106.011028 16.212304,106.011028 C23.891518,106.011028 33.8488686,102.58305 44.9628639,95.9130654 C47.1083265,96.2249059 49.2878081,96.3904648 51.457084,96.3904648 C51.457084,96.3904648 51.457084,96.3904648 51.458218,96.3904648 C63.4601083,96.3904648 74.7441984,91.7173932 83.2296618,83.2319298 C93.2357729,73.2269526 97.9383276,58.9662032 95.9062616,44.9651318 C106.77532,26.8534357 109.02851,11.8204558 101.899269,4.69234902 Z M73.7292993,10.5107257 C73.8109448,10.4880464 73.8948583,10.4619652 73.9776378,10.4404199 C74.6614189,10.2589854 75.3225208,10.1104359 75.972283,9.98116386 C76.1661911,9.94260903 76.3578312,9.9074561 76.5483374,9.87343714 C77.0665596,9.78045197 77.5711743,9.70674422 78.0655832,9.64777801 C78.3400028,9.61602698 78.6087526,9.59221371 78.8752345,9.57066836 C79.252845,9.5400513 79.6213838,9.51963992 79.9819848,9.5105682 C81.946013,9.46407561 83.6639706,9.72942353 85.0712217,10.3258894 C85.0723557,10.3258894 85.0734897,10.3258894 85.0746236,10.3270233 C85.3524452,10.4449557 85.6155251,10.5776297 85.8683994,10.7205093 C85.8922127,10.7329829 85.916026,10.7443226 85.9387053,10.7567962 C86.1677663,10.8894702 86.3820858,11.0357517 86.5907354,11.1877031 C86.6270223,11.2149183 86.6678451,11.2387315 86.7063999,11.2670807 C86.9411307,11.4473812 87.163388,11.6401553 87.3709037,11.847671 C87.6725385,12.1493058 87.9356184,12.4883615 88.1771531,12.8466945 C88.2157079,12.9045268 88.2576646,12.9600911 88.2950855,13.0179233 C88.5162088,13.3683186 88.7078489,13.7459291 88.8756758,14.145085 C88.9085608,14.2233286 88.9391779,14.3038401 88.9697949,14.3832177 C89.1274161,14.7959811 89.262358,15.228022 89.3644149,15.6884119 C89.3780225,15.7496461 89.3870942,15.8131481 89.3984339,15.8743823 C89.491419,16.3325043 89.559457,16.8121717 89.5980118,17.3145184 C89.6025476,17.3644129 89.6104854,17.4120394 89.6138873,17.4619339 C89.6490402,17.983558 89.6479063,18.5323973 89.6274949,19.09938 C89.622959,19.2048388 89.6195571,19.3102976 89.6138873,19.4180243 C89.5821363,19.9804712 89.524304,20.5621954 89.4392566,21.1643311 C89.4222471,21.2754597 89.4041037,21.3877223 89.3859602,21.4999849 C89.2861713,22.1304696 89.1671049,22.775696 89.0094837,23.4481375 C89.000412,23.4866923 88.9890723,23.5263811 88.9811346,23.5660699 C88.8235134,24.2271718 88.6330072,24.9109529 88.4209557,25.6094756 C88.4005443,25.6741117 88.3835348,25.7376137 88.3631234,25.8022498 C87.9605657,25.2239274 87.5409985,24.6569447 87.1112256,24.0967657 C87.0284461,23.987905 86.9399968,23.8835802 86.8549494,23.7758535 C86.4036311,23.1997991 85.9353034,22.6362182 85.45677,22.0805752 C85.3048186,21.9048105 85.1528672,21.7301798 84.9997819,21.5578171 C84.4271294,20.9171266 83.8431371,20.2855079 83.2341977,19.6765684 C82.7250472,19.166284 82.2011552,18.6752769 81.6715933,18.1933416 C81.5117042,18.048194 81.3484132,17.9064484 81.1862561,17.7635687 C80.8041098,17.424513 80.4162936,17.0933951 80.0250755,16.769081 C79.843641,16.6193976 79.6622065,16.4697141 79.4785041,16.3222986 C79.0487312,15.9787071 78.6121545,15.6441873 78.172176,15.3164713 C78.040636,15.2189503 77.9113639,15.1168934 77.777556,15.0205063 C77.2071714,14.6077429 76.627715,14.208587 76.0403209,13.8230388 C75.8940394,13.7277857 75.743222,13.6370685 75.5958065,13.5429493 C75.1433542,13.2537881 74.6852322,12.9725647 74.2214403,12.699279 C74.0184605,12.5813466 73.8166147,12.4645482 73.6125009,12.3488837 C73.1702544,12.0982773 72.723472,11.8556087 72.2721537,11.6208779 C72.0850494,11.5233569 71.8990791,11.4224339 71.7097069,11.3271808 C71.6291953,11.2863581 71.5498177,11.2421334 71.4681722,11.2013107 C71.5464159,11.1752295 71.6223915,11.1514162 71.6995012,11.125335 C72.3855503,10.8985419 73.0659295,10.6921602 73.7292993,10.5107257 Z M22.0817091,22.0828431 C33.3351822,10.8316379 49.6960357,7.00904042 64.7868478,12.108483 C65.3186776,12.2876496 65.8482395,12.4781558 66.3721315,12.6788677 C66.3721315,12.6788677 66.3721315,12.6788677 66.3732655,12.6788677 C71.8094958,14.766498 76.6708057,17.9302616 80.8233872,22.0817091 C81.4334606,22.6929165 82.0219886,23.3222673 82.5912393,23.9663597 C82.7726738,24.1704735 82.9405007,24.3859269 83.1162653,24.5934426 C83.4950098,25.040225 83.8737542,25.4870074 84.2332213,25.9473973 C84.437335,26.2082094 84.6278412,26.4792271 84.8240173,26.744575 C85.1358578,27.1652762 85.4476983,27.5859774 85.7447972,28.0180182 C85.9466431,28.3139832 86.1371492,28.616752 86.3321913,28.9172528 C86.5215635,29.2098159 86.7063999,29.5046469 86.8878344,29.8006119 C86.8073228,29.995654 86.7245433,30.19183 86.6406299,30.388006 C86.5045541,30.7021145 86.3684782,31.0173568 86.2244646,31.3348672 C86.0736472,31.6659851 85.9171599,31.9993709 85.7584048,32.3338907 C85.6041855,32.6582048 85.4499662,32.982519 85.2878091,33.309101 C85.1222502,33.6424869 84.9476195,33.9804086 84.7741228,34.3183303 C84.60176,34.6528501 84.4293973,34.9873699 84.2479628,35.3241576 C84.0676623,35.6609453 83.879424,36.000001 83.6900518,36.3401906 C83.5006796,36.6826482 83.3101734,37.0251058 83.1117294,37.3698313 C82.9155534,37.7122888 82.7103057,38.0558804 82.5061919,38.4006059 C82.2986762,38.7487333 82.0945624,39.0957267 81.880243,39.444988 C81.6681914,39.7908475 81.4482021,40.1389749 81.2293468,40.4859683 C81.0082235,40.8386316 80.7871003,41.1901609 80.5569053,41.5439581 C80.3301122,41.8943534 80.0953813,42.2458827 79.8606505,42.597412 C79.6236517,42.9534771 79.3889209,43.3095423 79.1439843,43.6667414 C78.9024497,44.0194046 78.6518433,44.3743358 78.4046389,44.7281331 C78.1528985,45.0864661 77.9056941,45.4436652 77.64715,45.8031323 C77.3886058,46.1625993 77.1221239,46.5232004 76.856776,46.8838014 C76.595964,47.2387326 76.3374199,47.5947977 76.069804,47.9508629 C75.7942504,48.3159997 75.5096251,48.6834045 75.2272677,49.0485414 C74.9562499,49.4023386 74.6875001,49.7550019 74.4085446,50.1087991 C74.1171155,50.4807398 73.8154807,50.8515465 73.5172478,51.2223532 C73.2371583,51.5704806 72.9604708,51.9186079 72.6747115,52.2667353 C72.361737,52.6488817 72.0362889,53.031028 71.7165107,53.4131744 C71.4341533,53.7499621 71.1551978,54.0878838 70.8671705,54.4246716 C70.5269809,54.8215595 70.1788535,55.2184474 69.8307261,55.6142013 C69.5506367,55.9351136 69.2750831,56.2560258 68.9893238,56.578072 C68.6117133,57.002175 68.2238971,57.4240102 67.8383488,57.8469793 C67.5741349,58.1372745 67.3133228,58.4298375 67.045707,58.7201327 C66.6091303,59.1918623 66.1623479,59.66019 65.7166995,60.1285178 C65.4876385,60.3700524 65.2653812,60.6115871 65.0340523,60.8508538 C64.353673,61.5584482 63.664222,62.2615068 62.9645654,62.9611635 C62.2637747,63.6619541 61.5584482,64.353673 60.8508538,65.0340523 C60.6558117,65.2222906 60.4585017,65.4025911 60.2623257,65.5885614 C59.7486394,66.0795684 59.2326851,66.5694415 58.7155968,67.0491089 C58.4831339,67.2634284 58.2484031,67.472078 58.0148062,67.6852635 C57.5328709,68.1263761 57.0509356,68.5674886 56.5678663,68.9972615 C56.3081882,69.2285905 56.0485101,69.4508477 55.787698,69.6799087 C55.329576,70.0813325 54.87032,70.4861582 54.411064,70.8796442 C54.1377783,71.1132411 53.8633587,71.3389002 53.5878051,71.5702291 C53.1398887,71.9467057 52.6931063,72.3243161 52.24519,72.691721 C51.9628326,72.9230499 51.6793412,73.1464411 51.3969838,73.3755021 C50.9592732,73.7292993 50.5215625,74.0842305 50.0838519,74.4278221 C49.7867529,74.6614189 49.4919219,74.8859441 49.1948229,75.1138711 C48.7729878,75.4404532 48.3511527,75.7670352 47.9293175,76.0845456 C47.6220129,76.3158745 47.3147082,76.5381317 47.0074036,76.7660588 C46.5980421,77.0688276 46.1875466,77.3715963 45.779319,77.6652934 C45.4663446,77.8898186 45.1545041,78.105272 44.8437975,78.3241273 C44.4423738,78.6053508 44.042084,78.8888421 43.6429281,79.1609938 C43.3242838,79.3775812 43.0067735,79.5873648 42.6903971,79.7994164 C42.300313,80.0590945 41.9102289,80.3210405 41.5224127,80.5716468 C41.2026345,80.7802965 40.8839902,80.9787404 40.563078,81.1805863 C40.1831995,81.420987 39.8021872,81.6625216 39.4245767,81.8927166 C39.1002625,82.0911605 38.7793503,82.2816667 38.4561702,82.4733069 C38.0876314,82.6921622 37.7202266,82.9110176 37.3539558,83.1208012 C37.0285077,83.3079055 36.7064615,83.485938 36.3832813,83.6651046 C36.0249483,83.8646825 35.6666152,84.0642604 35.31055,84.2547666 C34.9873699,84.4282633 34.6664577,84.5949562 34.3432775,84.7605152 C33.9951501,84.9396817 33.6492906,85.1177143 33.3045651,85.2889431 C32.982519,85.4499662 32.6638747,85.6007836 32.3429625,85.752735 C32.0061747,85.9137581 31.669387,86.0713792 31.3360011,86.2233306 C31.0162229,86.3673442 30.6987126,86.5045541 30.3834702,86.6406299 C30.1884281,86.7245433 29.99452,86.8061889 29.8006119,86.8867004 C29.503513,86.7063999 29.2098159,86.5215635 28.9183868,86.3321913 C28.6144841,86.1360153 28.3094474,85.9432412 28.0112144,85.7402613 C27.5871114,85.4499662 27.1743479,85.1437955 26.7604506,84.8364909 C26.4860309,84.6323771 26.2059415,84.4350671 25.9349237,84.2252835 C25.4915432,83.879424 25.0617703,83.5154211 24.6331314,83.1514182 C24.4086062,82.960912 24.1772773,82.7794776 23.95502,82.5844355 C23.3143296,82.0163188 22.6861127,81.4311926 22.0794412,80.8233872 C17.9302616,76.6719397 14.766498,71.8106298 12.6777337,66.3721315 C12.6777337,66.3709976 12.6765997,66.3698636 12.6765997,66.3687296 C12.4747539,65.8448376 12.2842477,65.3198116 12.1062151,64.7891158 L12.1062151,64.7891158 C12.1062151,64.7868478 12.1062151,64.7857139 12.1050811,64.7845799 C7.00790646,49.6971696 10.830504,33.3340483 22.0817091,22.0828431 Z M25.4563903,88.4629124 C25.0243495,88.5921844 24.6002464,88.7112508 24.1829471,88.8189775 C23.9822352,88.8711399 23.7803894,88.9255703 23.5830794,88.9720629 C23.0648572,89.0956651 22.5557067,89.2056597 22.0590298,89.295243 C21.8741935,89.328128 21.6961609,89.3519413 21.5135924,89.3802904 C21.1597952,89.4358547 20.8139358,89.4834813 20.4737461,89.5209021 C20.2775701,89.5435814 20.0802601,89.5651268 19.88862,89.5810023 C19.4384357,89.6172892 18.9961892,89.6411025 18.5675502,89.6445044 C16.0422092,89.6637818 13.9817939,89.0899953 12.4758878,87.9231448 C12.471352,87.918609 12.4645482,87.9152071 12.4588784,87.9106712 C12.2434249,87.7439783 12.0393111,87.5625438 11.846537,87.3697697 C11.6480931,87.1713257 11.4643907,86.9581402 11.2920279,86.7324811 C11.2353296,86.6610413 11.1865691,86.5816637 11.1332727,86.5079559 C11.0198762,86.3492008 10.9110155,86.1893117 10.8100926,86.0180829 C10.7545283,85.9250977 10.7034998,85.8264427 10.6502035,85.7289217 C10.5628881,85.5656307 10.4801087,85.3989377 10.401865,85.226575 C10.3542385,85.1199822 10.3088799,85.0133895 10.2646552,84.9033948 C10.1932154,84.7242283 10.1274454,84.5393919 10.0662113,84.3511537 C10.0299244,84.2400251 9.99250351,84.1311644 9.95961851,84.0166339 C9.89838438,83.8045823 9.84735593,83.585727 9.79859542,83.3634698 C9.77591611,83.2636808 9.75096887,83.1684277 9.73055749,83.0663708 C9.60582129,82.4086709 9.53097957,81.7078802 9.5071663,80.9651328 C9.50263044,80.8483344 9.50489837,80.7270001 9.5037644,80.6079337 C9.50263044,80.3505236 9.50263044,80.0885776 9.51170216,79.8198277 C9.51737199,79.6746802 9.52530975,79.5261307 9.5332475,79.3775812 C9.54798906,79.123573 9.56499854,78.8672968 9.58994578,78.6053508 C9.60468733,78.4488635 9.62056284,78.2912423 9.63870629,78.1302192 C9.66932336,77.8637374 9.70674422,77.5904517 9.74756697,77.316032 C9.77138025,77.1572769 9.79292559,77.0007896 9.8190068,76.8397666 C9.87003524,76.5358638 9.92900145,76.2274252 9.99136954,75.9167187 C10.0185847,75.7783749 10.043532,75.643433 10.0730151,75.5028213 C10.1705361,75.0492351 10.2782628,74.5865772 10.401865,74.1148476 C10.4052669,74.10124 10.4098028,74.0876324 10.4132047,74.0728909 C10.5322711,73.6170368 10.666079,73.1521109 10.8078247,72.6803813 C10.8565852,72.5193582 10.9121495,72.3549332 10.9631779,72.1916422 C11.0391536,71.9512415 11.1207991,71.7074389 11.2024446,71.4625024 C11.2409995,71.54188 11.2852241,71.6189896 11.3249129,71.6983672 C11.4224339,71.8934093 11.5267588,72.0850494 11.6276817,72.2789575 C11.8601446,72.724606 12.0994113,73.1657185 12.3477497,73.6034292 C12.4645482,73.8098109 12.5824806,74.0150586 12.7026809,74.2203064 C12.9736987,74.6818303 13.2549221,75.1388184 13.5440833,75.5901366 C13.6370685,75.7386861 13.7277857,75.8883695 13.8230388,76.0357851 C14.208587,76.6254471 14.6077429,77.2037695 15.0216403,77.775288 C15.1168934,77.9056941 15.2178163,78.0338322 15.3142033,78.1642382 C15.6430533,78.6064847 15.9775731,79.0430614 16.3234326,79.4751023 C16.4708481,79.6588047 16.6205315,79.8402391 16.770215,80.0216736 C17.0933951,80.4117577 17.4233791,80.797306 17.7601668,81.1783184 C17.9064484,81.3427433 18.049328,81.5083023 18.1990114,81.6727273 C18.6798128,82.2011552 19.1696859,82.7227793 19.6788364,83.2307958 C20.2900437,83.8420032 20.9239304,84.4282633 21.5668888,85.0020498 C21.7324478,85.1505993 21.8991407,85.2957469 22.0669676,85.4408945 C22.6316824,85.9307675 23.2066029,86.407033 23.793997,86.866289 C23.8937859,86.9433987 23.989039,87.0261782 24.0899619,87.1021538 C24.6524088,87.5353286 25.2227934,87.9560298 25.8045177,88.3608555 C25.6854513,88.3960084 25.5720548,88.4288934 25.4563903,88.4629124 Z M7.09635576,99.4963962 C3.20798825,95.6080287 2.96078378,88.2871477 6.14382479,78.9444064 C6.13475306,79.0680087 6.13928892,79.1836731 6.13248513,79.3061414 C6.11207375,79.7098331 6.0973322,80.1112569 6.09846617,80.501341 C6.09960013,80.697517 6.11093979,80.8846213 6.11774358,81.0773954 C6.12794927,81.3994416 6.14155686,81.7203538 6.1665041,82.0321943 C6.18464754,82.2363081 6.20959478,82.4336181 6.23340806,82.6309281 C6.26856099,82.9189553 6.30598185,83.2047146 6.35474236,83.4825361 C6.38876132,83.6809801 6.42845011,83.8748882 6.4715408,84.0676623 C6.52937304,84.3341442 6.59174114,84.5949562 6.66318096,84.8500985 C6.71534337,85.0372028 6.76977371,85.2209052 6.82873992,85.4023396 C6.91038543,85.652946 6.9999687,85.8956146 7.0952218,86.1348813 C7.16439369,86.3038422 7.23016368,86.4762049 7.3050054,86.6394959 C7.41386609,86.8810306 7.53406642,87.1112256 7.65880262,87.3391526 C7.7381802,87.4877021 7.81415589,87.6396535 7.90033726,87.7825331 C8.04661881,88.0274696 8.20877586,88.2587986 8.37433482,88.4878596 C8.4537124,88.6012562 8.52742015,88.7191886 8.61246756,88.8291832 C8.87101168,89.1603011 9.14656529,89.4778114 9.44366423,89.7760444 C9.71128008,90.0436602 9.99136954,90.2931326 10.2839326,90.5278635 C10.3497026,90.5800259 10.4200085,90.6242505 10.4869124,90.674145 C10.7205093,90.8533115 10.9586421,91.0290762 11.2092484,91.1878313 C11.2750184,91.2297881 11.3464583,91.263807 11.4133622,91.3057637 C11.6730403,91.4645189 11.9383882,91.6153363 12.2150758,91.7525461 C12.272908,91.7808953 12.3341422,91.8047085 12.3942423,91.8319237 C12.6890733,91.9714015 12.9895742,92.1006735 13.3025486,92.217472 C13.3490412,92.2344814 13.3989357,92.248089 13.4465623,92.2650985 C13.7788141,92.3830309 14.1190038,92.4896237 14.4682651,92.5803409 C14.5034181,92.5894126 14.5397049,92.5973504 14.5759918,92.6052882 C14.9433966,92.6971394 15.3210071,92.7765169 15.7088233,92.840019 C15.7371725,92.8445549 15.7677895,92.8490907 15.7972726,92.8536266 C16.1930266,92.9159947 16.5978522,92.9647552 17.0128836,92.9965062 C17.0457686,92.9999081 17.0809215,93.0010421 17.1149405,93.00331 C17.523168,93.0327931 17.9404673,93.0498026 18.3668383,93.0509366 C18.3906516,93.0509366 18.411063,93.0532045 18.4348763,93.0532045 C18.4360102,93.0532045 18.4360102,93.0532045 18.4360102,93.0532045 C18.4722971,93.0532045 18.5119859,93.0498026 18.5494068,93.0498026 C18.9122757,93.0475347 19.2819484,93.036195 19.657291,93.0135157 C19.7389365,93.0089798 19.821716,93.0021761 19.9033615,92.9965062 C20.2650965,92.970425 20.6313673,92.93754 21.0055759,92.8933154 C21.1133026,92.8808418 21.2221633,92.8649662 21.331024,92.8502247 C21.6859552,92.8037321 22.0420203,92.7527037 22.4060232,92.6892016 C22.5489029,92.6653883 22.6940505,92.6347713 22.8380641,92.60869 C23.1771198,92.544054 23.5150415,92.480552 23.8609009,92.4023083 C24.0502731,92.3603516 24.2464492,92.3104571 24.4392233,92.2639646 C24.7476619,92.1891228 25.0572345,92.1154151 25.3736108,92.0303677 C25.6264851,91.9623297 25.8850292,91.8829522 26.1424394,91.8092444 C26.4089213,91.7310008 26.6742692,91.657293 26.9452869,91.5711117 C27.2911464,91.462251 27.6426757,91.3409167 27.9953389,91.2195824 C28.190381,91.1526784 28.3820211,91.0937122 28.5804651,91.0222724 C29.1395101,90.8215605 29.7053588,90.609509 30.2802793,90.3804479 C40.9327507,86.1371492 53.722747,77.021201 65.373108,65.3685721 C77.022335,53.7159432 86.1382832,40.9248129 90.379314,30.2768774 C94.1497491,20.8116678 93.9410994,13.6075854 89.7737764,9.4413963 C89.4766775,9.14429736 89.1614351,8.87101168 88.8314511,8.61360153 C88.7101168,8.51834843 88.5763089,8.43670292 88.4504388,8.34711965 C88.2372533,8.19516828 88.0229338,8.04321691 87.7961407,7.90714106 C87.6317157,7.80848606 87.458219,7.72117072 87.2881242,7.63045349 C87.0851444,7.52272677 86.8821645,7.41500005 86.670113,7.31861299 C86.4762049,7.23016368 86.2743591,7.15192007 86.0736472,7.07367645 C85.8695334,6.99429887 85.6642857,6.91718922 85.4533681,6.84688336 C85.2345128,6.77544354 85.0111216,6.70967354 84.7854624,6.64843941 C84.5756788,6.59174114 84.3624933,6.53957873 84.1470399,6.49195218 C83.9066392,6.4386558 83.6639706,6.38876132 83.4156322,6.3468046 C83.2001787,6.31051771 82.9779215,6.28103461 82.7556643,6.25268547 C82.4948522,6.21980047 82.2340402,6.18578151 81.9641564,6.16423616 C81.747569,6.14722668 81.5230438,6.13928892 81.3007866,6.1302172 C81.0104915,6.11660962 80.7224642,6.10186807 80.4242313,6.10186807 C80.2416629,6.10186807 80.0522907,6.11320772 79.8663203,6.11774358 C79.5590157,6.12568134 79.2596488,6.12341341 78.9444064,6.14382479 C88.2837458,2.95964981 95.6068947,3.20912221 99.4941282,7.09748973 C105.421366,13.0235931 102.814379,27.0586835 92.6914695,43.7245736 C92.6914695,43.7245736 92.6903356,43.7257076 92.6903356,43.7268416 C87.1452445,52.8586653 79.6293216,62.2728464 70.952218,70.9533519 C62.2717125,79.6304555 52.8563974,87.1486464 43.7245736,92.6926035 C27.0564155,102.814379 13.0235931,105.420232 7.09635576,99.4963962 Z M80.8233872,80.8256551 C72.5556451,89.0922632 61.3577363,93.4512264 49.6597488,92.9488797 C50.4830077,92.4023083 51.3074006,91.8319237 52.1317935,91.2570032 C52.2871467,91.1470086 52.4425,91.0460857 52.5989872,90.937225 C53.7000677,90.1615926 54.8000141,89.3587451 55.9010946,88.5366201 C56.2276766,88.2916836 56.5531247,88.0354074 56.8797068,87.787069 C57.6530712,87.1974069 58.4241677,86.604343 59.1941302,85.9942696 C59.6057597,85.6676876 60.0162552,85.3331677 60.4267507,85.0009159 C61.1150677,84.4441388 61.8033847,83.880558 62.4871659,83.3067715 C62.9158048,82.9484384 63.3433098,82.5855695 63.7696808,82.2204326 C64.4477922,81.6398423 65.1225016,81.0524482 65.7949431,80.4571163 C66.2065726,80.0931134 66.618202,79.7302445 67.0275635,79.3617057 C67.7510335,78.7096756 68.4676997,78.0451718 69.1832319,77.3761322 C69.5302253,77.0529521 69.8783527,76.7354417 70.2230782,76.4077257 C71.2765321,75.4064342 72.3231822,74.3938031 73.3573587,73.3596266 C74.3938031,72.3231822 75.4098361,71.2742641 76.4122616,70.2185423 C76.727504,69.8862904 77.0336746,69.5495027 77.3455151,69.2161169 C78.0281623,68.4847091 78.7051397,67.7533014 79.3707774,67.0162239 C79.7279765,66.619336 80.0806398,66.2201802 80.4333031,65.8210243 C81.0411085,65.1338413 81.6421102,64.4443903 82.2351741,63.7526713 C82.5889714,63.338774 82.9393667,62.9260105 83.2874941,62.5098452 C83.8760221,61.8079206 84.4509426,61.104862 85.0224612,60.3995355 C85.3422395,60.0026476 85.6654196,59.6080276 85.981796,59.2100058 C86.604343,58.4241677 87.2098806,57.6371957 87.8086143,56.8490897 C88.047881,56.5361152 88.2939515,56.2220068 88.5298163,55.9078984 C89.3530753,54.8079519 90.1547888,53.7080054 90.9304212,52.605791 C91.0551574,52.4277584 91.1708219,52.2508598 91.2944241,52.0728272 C91.854603,51.2688457 92.4113801,50.4648642 92.9454778,49.6620167 C93.430815,61.204651 89.0707179,72.5794584 80.8233872,80.8256551 Z" id="Shape"></path>
                    <path d="M18.8363,56.2118011 C19.2717428,56.2118011 19.7071855,56.0462422 20.0394374,55.7139903 L27.6846324,48.0665273 C28.3491362,47.4020236 28.3491362,46.3247564 27.6846324,45.6613866 C27.0201286,44.9968829 25.9439954,44.9968829 25.2794917,45.6613866 L17.6342967,53.3088496 C16.9697929,53.9733533 16.9697929,55.0494865 17.6342967,55.7139903 C17.9665485,56.0451082 18.4019913,56.2118011 18.8363,56.2118011 Z" id="Shape"></path>
                    <path d="M20.9987721,67.0309654 C21.331024,67.3632173 21.7664667,67.5287763 22.2019095,67.5287763 C22.6373522,67.5287763 23.0727949,67.3632173 23.4050468,67.0309654 L31.0525098,59.3835025 C31.7170135,58.7189987 31.7170135,57.6428655 31.0525098,56.9783618 C30.388006,56.313858 29.3118728,56.313858 28.6473691,56.9783618 L20.9999061,64.6258247 C20.3342684,65.2903285 20.3342684,66.3664617 20.9987721,67.0309654 Z" id="Shape"></path>
                    <path d="M26.6062313,76.103823 C26.9384831,76.4360749 27.3739259,76.6016338 27.8093686,76.6016338 C28.2448113,76.6016338 28.6802541,76.4360749 29.0125059,76.103823 L36.657701,68.457494 C37.3222047,67.7929902 37.3222047,66.716857 36.657701,66.0523533 C35.9931972,65.3878495 34.917064,65.3878495 34.2525603,66.0523533 L26.6073652,73.6986823 C25.9417275,74.363186 25.9417275,75.4393192 26.6062313,76.103823 Z" id="Shape"></path>
                </g>
            </g>
        </g>
    </g>
</svg>