<svg height="250" viewBox="0 0 250 250" width="250" xmlns="http://www.w3.org/2000/svg" xmlns:xlink="http://www.w3.org/1999/xlink"><filter id="a" height="100%" width="100%" x="0%" y="0%"><feColorMatrix in="SourceGraphic" type="matrix" values="0 0 0 0 1 0 0 0 0 1 0 0 0 0 1 0 0 0 1 0"/></filter><mask id="b"><g filter="url(#a)"><path d="m0 0h250v250h-250z" fill-opacity=".3"/></g></mask><mask id="c"><g filter="url(#a)"><path d="m0 0h250v250h-250z" fill-opacity=".0625"/></g></mask><linearGradient id="d" gradientTransform="matrix(3.125 0 0 -3.125 0 256.25)" gradientUnits="userSpaceOnUse" x1="20.959999" x2="79.110001" y1="23.832701" y2="23.832701"><stop offset=".375" stop-opacity=".0625"/><stop offset="1" stop-opacity="0"/></linearGradient><clipPath id="e"><path d="m0 0h250v250h-250z"/></clipPath><mask id="f"><g filter="url(#a)"><path d="m0 0h250v250h-250z" fill-opacity=".125"/></g></mask><linearGradient id="g" gradientTransform="matrix(3.125 0 0 -3.125 0 256.25)" gradientUnits="userSpaceOnUse" x1="20.950001" x2="78.699997" y1="23.9785" y2="23.9785"><stop offset=".375" stop-opacity=".125"/><stop offset="1" stop-opacity="0"/></linearGradient><clipPath id="h"><path d="m0 0h250v250h-250z"/></clipPath><mask id="i"><g filter="url(#a)"><path d="m0 0h250v250h-250z" fill-opacity=".1875"/></g></mask><linearGradient id="j" gradientTransform="matrix(3.125 0 0 -3.125 0 256.25)" gradientUnits="userSpaceOnUse" x1="20.950001" x2="78.309998" y1="24.124599" y2="24.124599"><stop offset=".375" stop-opacity=".1875"/><stop offset="1" stop-opacity="0"/></linearGradient><clipPath id="k"><path d="m0 0h250v250h-250z"/></clipPath><mask id="l"><g filter="url(#a)"><path d="m0 0h250v250h-250z" fill-opacity=".25"/></g></mask><linearGradient id="m" gradientTransform="matrix(3.125 0 0 -3.125 0 256.25)" gradientUnits="userSpaceOnUse" x1="20.950001" x2="77.910004" y1="24.268499" y2="24.268499"><stop offset=".375" stop-opacity=".25"/><stop offset="1" stop-opacity="0"/></linearGradient><clipPath id="n"><path d="m0 0h250v250h-250z"/></clipPath><mask id="o"><g filter="url(#a)"><path d="m0 0h250v250h-250z" fill-opacity=".3125"/></g></mask><linearGradient id="p" gradientTransform="matrix(3.125 0 0 -3.125 0 256.25)" gradientUnits="userSpaceOnUse" x1="20.950001" x2="77.519997" y1="24.414101" y2="24.414101"><stop offset=".375" stop-opacity=".3125"/><stop offset="1" stop-opacity="0"/></linearGradient><clipPath id="q"><path d="m0 0h250v250h-250z"/></clipPath><mask id="r"><g filter="url(#a)"><path d="m0 0h250v250h-250z" fill-opacity=".375"/></g></mask><linearGradient id="s" gradientTransform="matrix(3.125 0 0 -3.125 0 256.25)" gradientUnits="userSpaceOnUse" x1="20.950001" x2="77.120003" y1="24.5571" y2="24.5571"><stop offset=".375" stop-opacity=".375"/><stop offset="1" stop-opacity="0"/></linearGradient><clipPath id="t"><path d="m0 0h250v250h-250z"/></clipPath><mask id="u"><g filter="url(#a)"><path d="m0 0h250v250h-250z" fill-opacity=".4375"/></g></mask><linearGradient id="v" gradientTransform="matrix(3.125 0 0 -3.125 0 256.25)" gradientUnits="userSpaceOnUse" x1="20.950001" x2="76.730003" y1="24.7015" y2="24.7015"><stop offset=".375" stop-opacity=".4375"/><stop offset="1" stop-opacity="0"/></linearGradient><clipPath id="w"><path d="m0 0h250v250h-250z"/></clipPath><mask id="x"><g filter="url(#a)"><path d="m0 0h250v250h-250z" fill-opacity=".5"/></g></mask><linearGradient id="y" gradientTransform="matrix(3.125 0 0 -3.125 0 256.25)" gradientUnits="userSpaceOnUse" x1="20.950001" x2="76.330002" y1="24.836" y2="24.836"><stop offset=".375" stop-opacity=".5"/><stop offset="1" stop-opacity="0"/></linearGradient><clipPath id="z"><path d="m0 0h250v250h-250z"/></clipPath><mask id="A"><g filter="url(#a)"><path d="m0 0h250v250h-250z" fill-opacity=".5625"/></g></mask><linearGradient id="B" gradientTransform="matrix(3.125 0 0 -3.125 0 256.25)" gradientUnits="userSpaceOnUse" x1="20.950001" x2="75.940002" y1="24.98" y2="24.98"><stop offset=".375" stop-opacity=".5625"/><stop offset="1" stop-opacity="0"/></linearGradient><clipPath id="C"><path d="m0 0h250v250h-250z"/></clipPath><mask id="D"><g filter="url(#a)"><path d="m0 0h250v250h-250z" fill-opacity=".625"/></g></mask><linearGradient id="E" gradientTransform="matrix(3.125 0 0 -3.125 0 256.25)" gradientUnits="userSpaceOnUse" x1="20.950001" x2="75.540001" y1="25.1234" y2="25.1234"><stop offset=".375" stop-opacity=".625"/><stop offset="1" stop-opacity="0"/></linearGradient><clipPath id="F"><path d="m0 0h250v250h-250z"/></clipPath><mask id="G"><g filter="url(#a)"><path d="m0 0h250v250h-250z" fill-opacity=".6875"/></g></mask><linearGradient id="H" gradientTransform="matrix(3.125 0 0 -3.125 0 256.25)" gradientUnits="userSpaceOnUse" x1="20.950001" x2="75.139999" y1="25.264" y2="25.264"><stop offset=".375" stop-opacity=".6875"/><stop offset="1" stop-opacity="0"/></linearGradient><clipPath id="I"><path d="m0 0h250v250h-250z"/></clipPath><mask id="J"><g filter="url(#a)"><path d="m0 0h250v250h-250z" fill-opacity=".75"/></g></mask><linearGradient id="K" gradientTransform="matrix(3.125 0 0 -3.125 0 256.25)" gradientUnits="userSpaceOnUse" x1="20.950001" x2="74.75" y1="25.4086" y2="25.4086"><stop offset=".375" stop-opacity=".75"/><stop offset="1" stop-opacity="0"/></linearGradient><clipPath id="L"><path d="m0 0h250v250h-250z"/></clipPath><mask id="M"><g filter="url(#a)"><path d="m0 0h250v250h-250z" fill-opacity=".8125"/></g></mask><linearGradient id="N" gradientTransform="matrix(3.125 0 0 -3.125 0 256.25)" gradientUnits="userSpaceOnUse" x1="20.950001" x2="74.349998" y1="25.5532" y2="25.5532"><stop offset=".375" stop-opacity=".8125"/><stop offset="1" stop-opacity="0"/></linearGradient><clipPath id="O"><path d="m0 0h250v250h-250z"/></clipPath><mask id="P"><g filter="url(#a)"><path d="m0 0h250v250h-250z" fill-opacity=".875"/></g></mask><linearGradient id="Q" gradientTransform="matrix(3.125 0 0 -3.125 0 256.25)" gradientUnits="userSpaceOnUse" x1="20.950001" x2="73.959999" y1="25.691999" y2="25.691999"><stop offset=".375" stop-opacity=".875"/><stop offset="1" stop-opacity="0"/></linearGradient><clipPath id="R"><path d="m0 0h250v250h-250z"/></clipPath><mask id="S"><g filter="url(#a)"><path d="m0 0h250v250h-250z" fill-opacity=".9375"/></g></mask><linearGradient id="T" gradientTransform="matrix(3.125 0 0 -3.125 0 256.25)" gradientUnits="userSpaceOnUse" x1="20.950001" x2="73.559998" y1="25.828501" y2="25.828501"><stop offset=".375" stop-opacity=".9375"/><stop offset="1" stop-opacity="0"/></linearGradient><clipPath id="U"><path d="m0 0h250v250h-250z"/></clipPath><linearGradient id="V" gradientTransform="matrix(3.125 0 0 -3.125 0 256.25)" gradientUnits="userSpaceOnUse" x1="20.950001" x2="73.169998" y1="25.955099" y2="25.955099"><stop offset=".375"/><stop offset="1" stop-opacity="0"/></linearGradient><clipPath id="W"><path d="m0 0h250v250h-250z"/></clipPath><linearGradient id="X" gradientTransform="matrix(3.125 0 0 -3.125 0 256.25)" gradientUnits="userSpaceOnUse" x1="20.950001" x2="73.169998" y1="13.7406" y2="13.7406"><stop offset="0" stop-color="#004080"/><stop offset=".3246" stop-color="#004383"/><stop offset=".5853" stop-color="#004d8d"/><stop offset=".823" stop-color="#005e9d"/><stop offset="1" stop-color="#0070af"/></linearGradient><linearGradient id="Y" gradientTransform="matrix(3.125 0 0 -3.125 0 256.25)" gradientUnits="userSpaceOnUse" x1="47.060001" x2="47.060001" y1="18.4487" y2="9.0245"><stop offset=".35" stop-color="#009fdf"/><stop offset=".6454" stop-color="#009ddd"/><stop offset=".7517" stop-color="#0096d6"/><stop offset=".8276" stop-color="#008bcb"/><stop offset=".8889" stop-color="#007aba"/><stop offset=".9414" stop-color="#0064a4"/><stop offset=".987" stop-color="#004989"/><stop offset="1" stop-color="#004080"/></linearGradient><linearGradient id="Z" gradientTransform="matrix(3.125 0 0 -3.125 0 256.25)" gradientUnits="userSpaceOnUse" x1="20.959999" x2="73.18" y1="29.5942" y2="29.5942"><stop offset="0" stop-color="#009fdf"/><stop offset=".021" stop-color="#02a1e1"/><stop offset=".2435" stop-color="#13b2f2"/><stop offset=".4872" stop-color="#1dbcfc"/><stop offset=".7911" stop-color="#20bfff"/><stop offset=".8415" stop-color="#1ebcfc"/><stop offset=".8819" stop-color="#19b2f2"/><stop offset=".919" stop-color="#11a1e1"/><stop offset=".9537" stop-color="#0589c9"/><stop offset=".966" stop-color="#007fbf"/><stop offset="1" stop-color="#20bfff"/></linearGradient><path d="m105.1875 174.03125c5.21875 19.28125 23.90625 33.96875 33.34375 33.375.34375-.03125 35.78125-6.625 55.21875-39.0625 15.09375-25.25 9.96875-49.625-10.59375-50.15625-7.40625.5625-87.90625 19.15625-77.96875 55.84375" fill="#0e3ca5"/><path d="m181.21875 50.28125v-.03125c-15.75-13.40625-36.15625-21.5-58.4375-21.5-13.03125 0-25.40625 2.78125-36.59375 7.78125-2 .84375-3.90625 1.78125-5.71875 2.8125-1.25.6875-2.53125 1.34375-3.75 2.0625l.3125.09375c-3.71875 2.5625-6.90625 5.5625-9.53125 9-25.875 34.1875 60.875 59.0625 107.25 59.125 21.34375 15.34375 27.3125-43.125 6.46875-59.34375zm0 0" fill="#0e3ca5"/><g fill="#5493f7"><path d="m91.40625 50.96875c-11.90625 17.90625-51.625 30.53125-58.15625 28.5625 0-.03125-.03125-.0625-.03125-.09375.28125-.53125.53125-1.0625.8125-1.625 2.25-4.375 4.84375-8.53125 7.71875-12.46875s6.0625-7.625 9.5-11.0625 7.15625-6.625 11.0625-9.5c2.4375-1.78125 4.96875-3.46875 7.59375-5.03125 5.5625-3.21875 11.25-3.4375 13.125-3.5 17.71875.40625 8.46875 14.59375 8.375 14.71875"/><path d="m81.65625 177.5625c.84375 5.625-.03125 27.875-1.1875 29.71875-1 .0625-3.0625.1875-9.03125-3.15625-3.15625-1.78125-6.1875-3.75-9.0625-5.90625-3.9375-2.875-7.625-6.0625-11.0625-9.5s-6.625-7.15625-9.5-11.0625c-2.875-3.9375-5.46875-8.09375-7.71875-12.46875s-4.1875-8.90625-5.75-13.625-2.78125-9.59375-3.59375-14.625-1.25-10.15625-1.25-15.40625.4375-10.40625 1.25-15.40625c.8125-5.03125 2.03125-9.90625 3.59375-14.625.3125-.96875.65625-1.90625 1-2.84375 6.84375 9.125 14.78125 17.34375 21.53125 26.5625 6.40625 8.75 15.25 23.0625 17.03125 26.09375 11.09375 18.9375 12.875 30.625 13.75 36.25"/><path d="m213.53125 121.53125c0 12.3125-2.34375 24.09375-6.625 34.90625-11.1875 12.03125-86.6875-17.59375-87.40625-17.90625-10.3125-4.53125-41.75-18.28125-44.59375-39.90625-4.0625-31.09375 59.03125-52.78125 86.78125-53.59375 3.3125.03125 13.4375.15625 19.34375 4.9375 19.90625 17.40625 32.5 43.03125 32.5 71.5625"/><path d="m162.4375 205.84375c-8.21875 3.84375-17.28125 1.03125-14.9375-6.96875 4.53125-15.375 43.96875-31.15625 52.6875-32.03125 1.0625-.09375 1.53125.625 1.0625 1.46875-9.09375 15.90625-22.53125 29.03125-38.8125 37.53125"/></g><g clip-path="url(#W)" mask="url(#b)"><g clip-path="url(#e)" mask="url(#c)"><path d="m71.59375 119.125c-3.375 0-6.09375 2.3125-6.09375 5.1875v96.5625c0 3.90625 2.71875 7.03125 6.09375 7.0625 89.1875.53125 175.65625 25.5 175.625 12.96875-.125-31.84375-.125-75.625 0-107.4375.03125-12.8125-86.46875-14.28125-175.625-14.34375zm0 0" fill="url(#d)"/></g><g clip-path="url(#h)" mask="url(#f)"><path d="m71.5625 119.125c-3.375 0-6.09375 2.3125-6.09375 5.1875v96.5625c0 3.90625 2.71875 7.03125 6.09375 7.0625 88.5625.53125 174.4375 24.25 174.375 12.125-.125-31.375-.125-74.71875 0-106.09375.0625-12.40625-85.8125-14.71875-174.375-14.84375zm0 0" fill="url(#g)"/></g><g clip-path="url(#k)" mask="url(#i)"><path d="m71.5625 119.125c-3.375 0-6.09375 2.3125-6.09375 5.1875v96.5625c0 3.90625 2.71875 7.03125 6.09375 7.0625 87.9375.5 173.1875 23 173.15625 11.28125-.125-30.9375-.125-73.8125 0-104.75.0625-11.96875-85.21875-15.1875-173.15625-15.34375zm0 0" fill="url(#j)"/></g><g clip-path="url(#n)" mask="url(#l)"><path d="m71.5625 119.125c-3.375 0-6.09375 2.3125-6.09375 5.1875v96.5625c0 3.90625 2.71875 7.03125 6.09375 7.0625 87.3125.46875 171.96875 21.78125 171.90625 10.4375-.125-30.5-.125-72.9375 0-103.40625.0625-11.5625-84.59375-15.625-171.90625-15.84375zm0 0" fill="url(#m)"/></g><g clip-path="url(#q)" mask="url(#o)"><path d="m71.5625 119.125c-3.375 0-6.09375 2.3125-6.09375 5.1875v96.5625c0 3.90625 2.71875 7.03125 6.09375 7.0625 86.65625.4375 170.71875 20.53125 170.6875 9.59375-.125-30.03125-.125-72.03125 0-102.0625.0625-11.15625-83.96875-16.09375-170.6875-16.34375zm0 0" fill="url(#p)"/></g><g clip-path="url(#t)" mask="url(#r)"><path d="m71.5625 119.125c-3.375 0-6.09375 2.3125-6.09375 5.1875v96.5625c0 3.90625 2.71875 7.03125 6.09375 7.0625 86.03125.40625 169.46875 19.28125 169.4375 8.78125-.125-29.59375-.125-71.125 0-100.71875.0625-10.75-83.34375-16.59375-169.4375-16.875zm0 0" fill="url(#s)"/></g><g clip-path="url(#w)" mask="url(#u)"><path d="m71.5625 119.125c-3.375 0-6.09375 2.3125-6.09375 5.1875v96.5625c0 3.90625 2.71875 7.03125 6.09375 7.0625 85.40625.40625 168.25 18.03125 168.21875 7.9375-.125-29.15625-.125-70.21875 0-99.375.03125-10.34375-82.75-17.21875-168.21875-17.375zm0 0" fill="url(#v)"/></g><g clip-path="url(#z)" mask="url(#x)"><path d="m71.5625 119.15625c-3.375 0-6.09375 2.3125-6.09375 5.1875v96.5625c0 3.90625 2.71875 7.03125 6.09375 7.0625 84.78125.375 167 16.78125 166.96875 7.09375-.125-28.6875-.125-69.34375 0-98.03125.0625-9.9375-82.125-17.75-166.96875-17.875zm0 0" fill="url(#y)"/></g><g clip-path="url(#C)" mask="url(#A)"><path d="m71.5625 119.15625c-3.375 0-6.09375 2.3125-6.09375 5.1875v96.5625c0 3.90625 2.71875 7.03125 6.09375 7.0625 84.15625.34375 165.78125 15.53125 165.75 6.25-.125-28.25-.125-68.4375 0-96.6875.03125-9.53125-81.53125-18.21875-165.75-18.375zm0 0" fill="url(#B)"/></g><g clip-path="url(#F)" mask="url(#D)"><path d="m71.5625 119.15625c-3.375 0-6.09375 2.3125-6.09375 5.1875v96.5625c0 3.90625 2.71875 7.03125 6.09375 7.0625 83.53125.3125 164.53125 14.28125 164.5 5.40625-.125-27.8125-.125-67.53125 0-95.34375.0625-9.125-80.90625-18.71875-164.5-18.875zm0 0" fill="url(#E)"/></g><g clip-path="url(#I)" mask="url(#G)"><path d="m71.5625 119.15625c-3.375 0-6.09375 2.3125-6.09375 5.1875v96.5625c0 3.90625 2.71875 7.03125 6.09375 7.0625 82.90625.28125 163.3125 13.03125 163.25 4.59375-.125-27.34375-.125-66.65625 0-94 .0625-8.71875-80.28125-19.21875-163.25-19.40625zm0 0" fill="url(#H)"/></g><g clip-path="url(#L)" mask="url(#J)"><path d="m71.5625 119.15625c-3.375 0-6.09375 2.3125-6.09375 5.1875v96.5625c0 3.90625 2.71875 7.03125 6.09375 7.03125 82.28125.25 162.0625 11.8125 162.03125 3.75-.125-26.90625-.125-65.75 0-92.65625.0625-8.28125-79.6875-19.65625-162.03125-19.875zm0 0" fill="url(#K)"/></g><g clip-path="url(#O)" mask="url(#M)"><path d="m71.5625 119.15625c-3.375 0-6.09375 2.3125-6.09375 5.15625v96.5625c0 3.90625 2.71875 7.03125 6.09375 7.03125 81.65625.25 160.8125 10.5625 160.78125 2.90625-.125-26.4375-.125-64.84375 0-91.3125.0625-7.84375-79.03125-20.125-160.78125-20.34375zm0 0" fill="url(#N)"/></g><g clip-path="url(#R)" mask="url(#P)"><path d="m71.5625 119.15625c-3.375 0-6.09375 2.3125-6.09375 5.15625v96.5625c0 3.875 2.71875 7.03125 6.09375 7.03125 81.03125.21875 159.59375 9.3125 159.5625 2.0625-.125-26-.125-63.96875 0-89.96875.03125-7.40625-78.4375-20.59375-159.5625-20.84375zm0 0" fill="url(#Q)"/></g><g clip-path="url(#U)" mask="url(#S)"><path d="m71.5625 119.15625c-3.375 0-6.09375 2.3125-6.09375 5.15625v96.5625c0 3.875 2.71875 7.03125 6.09375 7.03125 80.40625.1875 158.34375 8.0625 158.3125 1.21875-.125-25.5625-.125-63.0625 0-88.625.0625-7-77.8125-21.09375-158.3125-21.34375zm0 0" fill="url(#T)"/></g><path d="m71.5625 119.15625c-3.375 0-6.09375 2.3125-6.09375 5.15625v96.5625c0 3.875 2.71875 7.03125 6.09375 7.03125 79.78125.3125 157.15625 6.8125 157.09375.40625 0-25.09375 0-62.15625 0-87.28125.0625-6.59375-77.21875-21.15625-157.09375-21.875zm0 0" fill="url(#V)"/></g><path d="m65.46875 220.90625c0 3.875 2.71875 7.03125 6.0625 7.0625 79.9375.5625 157.125-3.125 157.125-15.09375 0-36.28125-163.1875 8.03125-163.1875 8.03125zm0 0" fill="url(#X)"/><path d="m65.46875 220.90625c0 3.90625 2.71875 7.0625 6.09375 7.0625 79.9375.59375 157-1.90625 157.09375-15.09375 0-36.28125-163.1875 8.03125-163.1875 8.03125zm6.09375 6.59375c-.21875 0-.4375 0-.625-.03125-2.4375-.28125-4.46875-2.125-5.1875-4.59375.78125 2.65625 3.09375 4.59375 5.8125 4.59375 79.875-.5 155.84375-25.09375 155.84375-14.28125 0 11.0625-75.96875 14.875-155.84375 14.3125zm0 0" fill="url(#Y)"/><path d="m71.59375 118.21875c-3.375 0-6.09375 2.71875-6.09375 6.09375v96.59375c0 3.34375 2.71875 6.0625 6.0625 6.09375 79.9375-.59375 157.21875-27.0625 157.125-14.125 0-36.25 0-72.53125 0-108.78125.0625-12.9375-77.1875 13.53125-157.09375 14.125zm0 0" fill="url(#Z)"/><path d="m143.09375 153.28125c-.21875.125-.4375.21875-.53125.40625-.0625 0-.09375.03125-.15625.0625 4 2.3125 6.375 5.96875 6.4375 10.09375.0625 4.21875-2.3125 8.46875-6.34375 11.6875.125.0625.25.15625.4375.21875.3125.125.65625.34375.96875.46875 3.03125 1.1875 6.65625 1.59375 10.03125 1.0625 3.75-.59375 7.09375-2.34375 9.28125-4.84375 3.21875-3.71875 6-9.21875 5.40625-13.8125-.59375-4.5-3.625-7.90625-7.8125-9.28125-4.78125-1.53125-12.25-.03125-17.71875 3.9375zm11-2.1875c.09375.0625 0 .25 0 .4375-.1875-.0625-.3125-.03125-.3125-.21875.03125-.09375.125-.28125.3125-.21875zm-.5625 1.1875c.09375-.09375.1875-.125.40625-.0625.09375.0625.09375.0625.09375.25-.09375 0 0 .15625 0 .15625 0 .09375.09375.0625.1875.0625s.09375.0625.1875.15625c0 .09375.09375.0625.1875.15625 0 .09375-.09375.09375-.09375.1875-.1875.125-.40625.0625-.59375 0-.09375 0-.3125.03125-.5-.09375 0 0 .09375-.28125.09375-.34375.03125-.21875-.1875-.34375.03125-.46875zm.78125.0625c-.09375 0-.3125-.125-.40625-.1875s.09375-.1875.09375-.1875c.09375 0 0-.15625 0-.25h.09375c.1875-.125.3125.03125.3125.21875.09375.125 0 .21875-.09375.40625zm-.8125-.75c.09375-.09375.40625-.15625.3125.03125 0 .09375-.09375.28125-.1875.375-.09375.1875-.3125.03125-.3125-.125 0-.0625.09375-.1875.1875-.28125zm-.875.71875c.09375-.09375.09375-.1875.1875-.125.09375 0 .09375 0 .1875.0625.125.09375.21875.25.125.4375s-.1875.1875-.40625.0625c-.21875-.0625-.09375-.34375-.09375-.4375zm-7.6875.90625c0 .09375-.09375.09375-.21875.1875-.09375 0-.53125.0625-.65625.09375-.21875.03125-.4375.0625-.65625.09375.21875-.375.75-.4375.96875-.78125.4375-.0625.65625-.15625.84375-.4375.09375-.09375.21875-.1875.3125-.21875.21875-.03125.3125-.125.53125-.25.09375 0 .3125-.125.4375-.125.21875-.125.21875-.1875.4375-.3125.3125-.03125.65625 0 .96875.0625.21875.0625.75 0 .75.25.09375.0625 0 .15625.125.3125.09375.0625.21875.21875.21875.3125s-.09375.09375-.09375.1875v.15625c-.09375.1875-.21875.28125-.3125.375s-.21875.1875-.40625.21875c-.09375 0-.125-.40625-.125-.5-.09375 0-.21875.03125-.21875.125-.09375 0-.21875-.0625-.21875-.15625-.09375.09375-.21875.1875-.4375.3125-.21875.03125-.3125.03125-.53125-.03125-.3125.03125-.65625.09375-1.0625.125-.09375 0-.3125.03125-.4375-.03125-.125.03125-.21875-.03125-.21875.03125zm1 2.78125c-.09375-.0625-.3125.03125-.4375-.125s.09375-.09375.3125-.21875c.09375.0625.21875.0625.3125.125.15625.09375-.0625.1875-.1875.21875zm.53125-.40625c-.09375 0-.3125-.03125-.3125-.125.09375-.09375.3125-.125.4375-.125.09375 0 .3125.03125.3125.125 0 .15625-.3125.09375-.4375.125zm4.90625 1.75c-.21875.125-.3125-.125-.3125-.21875-.09375-.0625-.21875-.15625-.09375-.25.21875.0625.21875.0625.3125.125.0625.0625.1875.21875.09375.34375zm9.1875-7.09375c.09375 0 .15625-.03125.15625-.125.15625-.1875.25-.21875.40625-.15625.15625.125.34375.09375.40625.1875.15625.125.25.21875.40625.25 0 .09375.09375.15625 0 .25-.09375.03125-.15625.03125-.25.03125-.15625.03125-.25-.03125-.40625-.09375-.09375-.0625-.09375-.15625-.15625-.125-.09375-.0625-.15625.03125-.25.03125-.15625.125-.25.125-.34375-.03125-.03125-.03125-.03125-.21875.03125-.21875zm.15625 10.34375c.15625-.03125.40625-.15625.5.0625 0 .15625-.15625.03125-.15625.03125-.09375.03125-.25.0625-.34375.0625-.09375.03125-.15625.03125-.25-.03125-.09375.03125-.09375-.0625-.15625-.125-.09375-.0625.15625-.125.15625-.125.1875-.03125.1875-.03125.25.125zm-.1875-5.28125c.09375-.09375.15625-.28125.25-.3125.15625-.03125.15625.125 0 .25 0 .09375-.09375.1875-.15625.28125-.1875.03125-.09375-.125-.09375-.21875zm.15625-.625c-.09375-.15625.09375-.4375.15625-.53125.09375-.03125.15625-.1875.25-.125s-.09375.1875-.09375.28125c.09375.0625.40625-.09375.40625.09375.09375.0625 0 .25-.09375.28125s-.15625-.0625-.15625-.125c-.0625-.125-.375.28125-.46875.125zm.78125 6c.09375-.09375.09375-.09375.25-.0625 0 0 .09375.0625.09375.15625s-.25-.03125-.3125-.03125c-.03125-.0625-.03125-.0625-.03125-.0625zm-.875-6.8125c.09375.0625.25.125.15625.3125 0 .25-.34375.40625-.59375.4375-.15625.03125-.25.125-.4375.15625-.09375 0-.1875.1875-.25.3125.09375 0 .25-.125.34375-.0625.1875-.03125.09375 0 .1875.125.09375.0625.15625-.03125.25-.125 0-.15625-.09375-.15625-.1875-.21875.09375-.03125.25-.125.34375-.15625.09375.0625.15625.0625.09375.15625 0 0-.09375.03125-.15625.03125-.09375.1875.15625.125.15625.21875 0 .15625 0 .15625-.09375.28125-.15625.28125-.34375.46875-.40625.65625-.15625.1875 0 .40625-.25.625-.25.125-.25.46875-.34375.65625 0 .15625 0 .5-.09375.6875-.1875.1875-.34375.40625-.53125.6875-.09375.09375-.09375.1875-.09375.34375 0 .09375.09375.15625.09375.25.1875.21875.1875.46875-.09375.78125-.09375.1875-.28125-.03125-.28125-.125 0-.15625.09375-.28125 0-.34375-.09375-.15625-.1875-.21875-.375-.28125-.1875.03125-.28125.125-.46875.15625-.1875.125-.28125.125-.46875.25-.09375 0-.28125.125-.375.15625-.1875.03125-.28125-.03125-.375.0625-.1875.1875-.1875.375-.1875.4375-.09375.1875-.1875.1875-.1875.375.09375.25.09375.25.1875.40625.09375.0625.1875.21875.28125.28125s.28125.03125.375-.0625c.28125-.125.5625-.4375.8125-.3125.375.09375-.1875.46875-.09375.6875.1875.21875.53125-.09375.8125-.15625.34375-.0625.28125.28125.28125.53125-.09375.09375-.09375.34375 0 .4375.09375.0625.1875.0625.34375.09375.09375-.03125.25-.21875.34375-.21875s.25-.0625.34375.03125c.09375-.03125.15625-.125.15625-.1875.09375-.03125.09375-.03125.09375-.03125.09375-.09375.09375-.03125.09375-.03125.09375-.09375.15625-.28125.25-.3125.25-.125.59375-.1875.8125-.40625.09375-.03125.09375.0625.15625.0625 0 .09375 0 .09375-.09375.1875s-.15625.1875-.25.3125c.25-.0625.40625-.25.46875-.34375.09375-.1875.15625-.03125.3125-.0625.09375.0625.15625.0625.25.03125.15625.0625.3125.28125.46875.3125.15625.0625.3125.1875.4375.21875.0625.0625.15625.125.21875.1875 0 .09375.0625.15625.15625.21875.15625.0625.3125.09375.5625.03125.15625.03125.25.1875.40625.3125.09375.15625.09375.3125 0 .59375.15625-.03125.25-.0625.40625-.09375.09375-.03125.15625.03125.25.03125.25.03125.4375.0625.6875.09375.09375-.03125.1875-.03125.34375 0 0 .09375.28125.09375.28125.1875.09375.15625.1875.375.375.5.09375.15625.1875.21875.09375.3125s-.1875.28125-.1875.375c-.1875.28125-.28125.5-.46875.6875-.1875.28125-.375.5-.4375.78125.125.09375.125.25.125.34375-.1875.125-.1875.21875-.25.40625-.09375.28125-.34375.5-.5.71875s-.34375.34375-.59375.46875c-.15625.125-.3125.40625-.46875.625-.25.21875-.375.34375-.59375.5625-.0625.09375-.15625.1875-.28125.25-.15625.125-.21875.125-.375.25-.15625.1875-.46875.34375-.625.5625-.25.3125-.40625.5-.5625.6875-.25.21875-.5625.375-.8125.5-.15625.125-.34375.3125-.59375.53125-.25.3125-.4375.5-.59375.875-.1875.1875-.25.46875-.4375.75-.09375.1875-.09375.25-.28125.3125-.09375.09375-.09375.03125-.1875.125s-.09375.09375-.09375.1875c.09375.15625.1875-.1875.28125.03125v.15625.15625c.09375.0625.09375.0625 0 .15625 0 0-.1875.03125-.1875-.0625-.09375.03125-.09375.03125-.1875-.0625-.09375.03125-.09375.09375-.28125.125 0-.09375.09375-.25 0-.34375 0-.09375-.1875-.125-.1875-.125-.28125-.1875-.09375-.40625.09375-.59375-.28125-.03125-.09375-.3125 0-.40625.1875-.125 0-.40625.09375-.59375 0-.15625.28125-.3125.375-.40625s.28125-.125.28125-.21875c.09375-.09375 0-.15625-.09375-.15625.09375-.1875.28125-.375.28125-.53125.09375-.1875.1875-.375.34375-.5625.09375-.1875.1875-.375.25-.5625.09375-.09375.09375-.03125.09375-.1875 0-.09375 0-.15625 0-.25s.09375-.1875.1875-.28125c0-.09375.09375-.1875.09375-.34375.0625-.03125.09375-.0625.15625-.125 0-.09375.09375-.1875.09375-.28125.09375-.1875.15625-.375.15625-.625 0-.09375.09375-.1875.09375-.28125.09375-.09375.09375-.1875.09375-.28125s0-.34375 0-.40625c-.15625-.0625-.25-.125-.34375-.28125-.09375-.0625-.15625-.21875-.25-.28125 0-.09375.09375-.28125.09375-.4375-.09375-.21875 0-.5-.15625-.71875 0-.15625-.09375-.21875-.09375-.40625 0-.15625 0-.34375-.09375-.40625 0-.15625-.09375-.5625 0-.75s.09375-.34375.15625-.46875c.09375-.1875.15625-.28125.25-.375.09375-.28125-.09375-.5625-.25-.71875-.1875-.0625-.25-.03125-.34375.15625-.09375.09375-.09375.34375-.15625.28125-.09375-.0625-.09375-.15625-.1875-.21875 0 0-.09375.03125-.1875.03125-.09375.03125-.28125-.03125-.34375-.09375-.09375-.0625-.09375-.25-.28125-.28125-.09375-.0625-.28125.0625-.375.0625-.28125-.03125-.5625-.15625-.75-.3125-.1875-.0625-.28125-.125-.46875-.09375-.09375-.0625-.28125.03125-.46875.0625-.5625.09375-1.0625-.34375-1.375-.8125-.09375-.0625-.09375-.25-.1875-.3125-.09375-.15625-.28125-.03125-.40625-.125-.09375-.0625-.1875-.21875-.1875-.3125-.09375-.15625-.1875-.15625-.3125-.21875-.09375-.15625-.21875-.21875-.3125-.375 0-.09375-.09375-.15625-.21875-.3125 0-.09375-.09375-.25-.21875-.21875-.1875-.0625-.3125.03125-.1875.1875.09375.15625.3125.21875.40625.28125.09375.15625.21875.15625.09375.3125 0 .15625.09375.25.21875.3125 0 .09375.21875.40625 0 .34375-.3125-.125-.40625-.375-.625-.59375s-.3125-.375-.40625-.71875c-.09375-.0625-.21875-.15625-.3125-.3125-.09375-.0625-.21875-.21875-.3125-.375 0-.09375-.21875-.21875-.21875-.3125-.09375-.0625-.09375-.25-.09375-.3125 0-.34375 0-.59375.09375-.9375 0-.15625 0-.34375 0-.4375s-.09375-.15625-.09375-.25c0 0-.09375 0-.09375-.0625-.3125-.46875-.53125-.9375-.84375-1.40625-.09375-.15625-.3125-.46875-.625-.4375-.40625-.03125-.75 0-1.15625.15625-.09375 0-.3125.125-.4375.0625-.21875-.0625-.21875.03125-.4375.125-.21875.03125-.4375.0625-.53125-.03125-.09375 0-.21875.03125-.21875.03125s-.09375-.0625-.21875-.15625c.21875-.1875.53125-.15625.75-.1875.21875.0625.21875.0625.3125-.125.09375-.09375.09375-.09375 0-.25s-.125-.40625.09375-.59375c0 0 .09375-.09375.21875-.1875 0-.15625-.09375-.0625.21875-.1875.09375 0 .21875-.03125.21875-.125s.09375-.28125.21875-.375c.09375-.09375.40625-.125.625-.25.3125-.125.625-.34375.84375-.28125.09375 0 .21875.0625.21875.15625.09375 0 .21875.0625.3125.125.3125.03125.625.15625.9375.21875.3125.125.625 0 .90625.03125.1875-.03125.3125.03125.40625.125.1875.0625.3125.125.5.1875.3125.03125.5 0 .90625-.03125.1875-.125.28125-.03125.5-.25.09375-.1875-.09375-.25-.1875-.40625 0-.09375-.09375-.25-.09375-.3125.09375-.1875.1875-.1875.28125-.125.1875-.03125.1875.15625.40625.1875.09375.0625.1875.125.375.1875s.5625.15625.6875.3125c-.1875.125-.375.21875-.46875.3125-.09375 0 .09375.3125.09375.40625-.09375.1875-.28125.3125-.375.46875-.1875.125-.1875.1875 0 .34375 0 0 .09375.0625.1875.125 0 .09375.1875-.03125.1875.0625.1875-.03125.375.03125.5625.09375.1875.125.28125.03125.5625.09375.1875-.03125.28125.125.46875.1875 0-.25-.09375-.5-.09375-.75 0-.09375-.1875-.125-.28125-.21875-.09375-.0625 0-.15625-.09375-.25-.1875-.0625-.28125-.03125-.1875-.3125 0-.15625.09375-.1875.28125-.21875.28125-.125.5625-.09375.84375-.0625.1875.0625.28125.03125.375-.0625.1875-.125.28125.03125.28125.125.28125.21875.375.28125.71875.3125.25.03125.59375.15625.78125.125.09375 0 .15625-.125.25-.125-.15625.1875-.09375.25-.09375.34375zm-.6875 6.875c0 .09375-.25.125-.34375.15625-.25-.03125-.4375-.09375-.6875-.21875-.09375.03125-.1875-.0625-.1875-.21875 0-.09375.28125.03125.28125.03125.25.03125.53125.15625.78125.125.0625-.03125.15625.03125.15625.125zm-3.15625-7.34375c0 .15625 0 .25-.1875.1875-.1875.03125-.28125-.03125-.375-.125 0-.09375 0-.15625 0-.15625.0625 0 .125-.03125.1875-.03125.1875.09375.28125.0625.375.125zm-1.40625-3.5c.09375-.1875.1875-.28125.28125-.375.1875-.125.28125-.125.46875-.15625.375-.0625.65625-.1875.9375-.0625.09375.0625.09375.0625.28125-.03125.1875-.03125.28125-.03125.46875 0 .1875.0625.28125.125.46875.1875.09375.0625.1875.125.375.1875.09375.0625.1875-.03125.375.03125.1875-.03125.28125.03125.4375.09375.09375.0625.09375.0625.09375.3125 0 .15625.09375.25.1875.40625.09375.0625 0 .15625.09375.3125.09375.0625.1875.21875.1875.40625.09375.0625.09375.15625.1875.21875.1875.0625.25.21875.25.28125 0 .34375-.25.46875-.5.5s-.53125 0-.78125-.03125c-.34375-.09375-.53125-.15625-.8125-.375-.09375-.0625-.1875-.21875-.28125-.21875-.1875-.0625-.28125-.125-.28125-.21875s.09375-.34375-.09375-.3125-.28125-.03125-.46875 0c-.28125.03125-.5625 0-.84375.03125-.09375 0-.28125.03125-.46875.15625 0 0 .09375.0625 0 .15625-.0625 0-.125.03125-.1875.03125 0 .4375.46875.09375.78125.21875.375.03125.65625-.03125.9375.03125.1875.0625.1875.0625.28125.21875.09375.0625.1875.125.375.1875s.28125.03125.46875.09375c.1875-.03125.1875.125 0 .25-.09375 0-.28125.03125-.28125.125-.09375.1875 0 .25 0 .4375 0 .09375 0 .25-.1875.28125-.09375-.0625-.28125-.03125-.46875-.09375s-.84375.3125-.84375-.03125c0-.15625.1875-.28125.1875-.375.09375-.1875-.09375-.15625-.1875-.21875-.1875-.0625-.28125-.03125-.46875-.09375-.1875.03125-.375-.03125-.46875-.1875-.09375 0-.1875.03125-.1875-.0625-.09375-.0625-.09375-.15625-.1875-.21875-.09375-.15625-.1875-.21875-.40625-.1875-.28125.03125-.28125-.125-.40625-.28125 0-.09375 0-.15625 0-.25-.09375-.15625-.09375-.0625-.1875-.0625-.09375-.0625-.09375-.0625-.09375-.15625s-.1875-.15625-.1875-.21875c.09375-.1875.40625-.0625.40625.03125.09375 0 .1875-.1875.1875-.28125s0-.15625.09375-.28125c.1875-.125.28125-.125.5-.15625 0 0-.03125-.25-.03125-.25zm-.375.125s-.1875.03125-.28125.03125c-.09375.09375-.1875.1875-.1875.28125-.09375 0-.1875.125-.1875.1875-.09375 0-.28125.125-.1875-.0625s.1875-.375.375-.46875c.0625-.0625.5625-.21875.46875.03125zm8.03125-11.75c-.15625-.125-.3125-.28125-.3125-.625.09375-.34375 0-.59375.3125-1.0625.25-.46875 1.28125-2.21875 1.28125-2.21875s.5-.75.84375-.8125c.25-.03125.53125-.09375.71875-.03125.1875-.03125.46875.15625.46875.15625s.75.21875.5625.90625c-.1875.59375-.4375 1.15625-2 3.28125 0 0-.59375.9375-1.3125.75-.03125-.03125-.5-.28125-.5625-.34375zm6.46875 11.65625c2.5625 3.3125 4.1875 7.15625 4.1875 11.9375.0625 15.125-11.8125 29.75-30.8125 33.1875 1.34375-.4375 2.6875-.9375 4-1.46875 3.15625-1.3125 6.28125-2.84375 8.96875-4.625 3.34375-2.0625 5.84375-4.5625 7.875-7.5 2.3125-3.28125 4.21875-7.3125 5.0625-11.1875.5625-2.65625.46875-5.25.59375-7.84375 0-3.3125.0625-6.75.125-10.125 0-.78125 0-1.59375 0-2.375zm-11.75 6.375c-.09375.09375-.375.65625-.5625.59375 0-.09375.09375-.09375.09375-.1875s.09375-.1875.09375-.28125c0-.15625.28125-.28125.375-.125zm-34.90625-17.03125c-.46875-.75-.71875-1.125-1.15625-1.875.5-.3125.75-.5 1.25-.8125 0 0 .34375-.15625.5 0 .1875.125.875 1.375.875 1.375s-.09375.34375-.28125.46875c-.0625.15625-1.1875.84375-1.1875.84375zm35.625 17.15625c-.09375 0-.28125-.03125-.375-.03125-.09375-.0625-.46875-.1875-.1875-.21875.1875-.03125.1875-.03125.375.03125.09375.0625.375.09375.1875.21875zm-.90625-.78125c.09375.0625.09375.25.1875.40625-.1875.03125-.375.0625-.5625.09375-.09375 0-.46875.0625-.375-.125.09375 0 .28125-.03125.46875-.15625.09375-.09375-.28125-.125-.1875-.3125.09375-.09375.375.125.46875.09375zm1.71875.40625c.09375.0625-.4375.15625-.53125.1875l.09375-.09375c.09375-.09375.1875-.03125.25-.125.09375-.125.1875-.0625.1875.03125zm-16-22.53125c-1 .125-1.46875.1875-2.46875.3125.5625-.96875.84375-1.46875 1.375-2.4375.46875.84375.6875 1.28125 1.09375 2.125zm-15.96875 28.46875c.1875-.03125.09375-.25.09375-.34375 0-.15625 0-.25 0-.34375 0-.15625.09375-.25.28125-.28125.09375-.09375.375-.125.28125.125-.09375.09375-.1875.1875-.09375.34375 0 .15625.09375.15625-.09375.4375 0 .09375 0 .25-.28125.28125-.09375 0-.1875.125-.28125-.03125-.09375-.0625 0-.15625.09375-.1875zm-2.15625-3.46875c-.09375.09375-.375-.03125-.375-.03125-.21875-.0625-.1875-.28125-.15625-.46875.03125.21875.71875-.03125.8125-.125 0 0 0-.09375.09375-.1875 0-.09375.09375-.09375.1875-.125.09375-.09375.1875-.28125.28125-.375.09375-.1875.46875-.5.65625-.59375.09375 0 .375-.0625.375.03125s0 .25-.1875.375c-.09375.09375-.28125-.03125-.375.0625s-.28125.125-.375.3125c0 .09375-.09375.09375 0 .15625.03125.03125.0625.03125.09375.0625.09375 0 .28125.03125.375-.0625.1875-.03125.375-.125.46875-.15625.1875-.03125.375-.0625.1875.15625-.09375.25-.5625.15625-.75.28125s-.375.125-.5625.25c-.09375 0-.28125-.03125-.375.125-.09375.125-.28125.21875-.375.3125zm.5625 0c-.09375 0-.1875-.0625 0-.15625.09375 0 .09375.0625 0 .15625zm20.21875 31.25c.75-.125 1.40625-.40625 2.125-.6875.40625-.15625.84375-.3125 1.25-.46875.3125-.125.625-.4375 1.03125-.59375.40625-.25.8125-.46875 1.34375-.71875.21875-.03125.40625-.0625.5-.09375.1875-.03125.3125-.125.40625-.15625.09375-.28125 0-.25-.3125-.28125-.09375-.0625-.1875-.125-.40625-.09375s-.40625.0625-.625.09375c-.21875-.0625-.40625.15625-.71875.1875-.21875.03125-.53125.09375-.71875.125-.71875.125-1.46875.0625-2.09375 0-.3125-.03125-.53125-.09375-.84375-.125-.4375.0625-.75.03125-1.1875 0-.65625-.15625-1.1875-.3125-1.8125-.40625-.4375-.03125-.75-.0625-1.09375-.1875-.4375-.03125-.75.03125-1.1875 0-.65625.09375-1.40625.125-2.0625.3125-.3125.125-.4375.15625-.53125.25-.21875.125-.3125.125-.4375.15625-.4375.0625-.875.125-1.1875.09375 0 0-.53125-.09375-.3125-.21875.09375 0 .21875-.125.4375-.21875.3125-.125.53125-.34375.96875-.3125.21875-.03125.3125-.03125.53125-.0625.09375 0 .3125-.03125.4375-.0625.4375-.0625.75-.09375 1.09375-.15625.75-.1875 1.5-.3125 2.15625-.5625.4375-.0625.75-.1875 1.1875-.25.09375-.09375.3125-.125.53125-.25.09375-.03125.3125-.0625.53125-.09375.21875-.125.3125-.21875.53125-.25.09375-.03125.3125.03125.53125-.09375.3125-.125.75-.28125 1.0625-.40625.75-.1875 1.375-.5625 2-.8125.40625-.15625.71875-.28125 1.03125-.5.3125-.125.53125-.34375.84375-.5625s.625-.4375.9375-.46875c.40625-.15625.71875-.28125 1-.5.40625-.21875-.40625-.28125-.5-.34375-.3125-.03125-.71875.03125-1.03125.0625-.3125.0625-.625.1875-1.03125.25-.3125.0625-.625.09375-1.03125.15625s-.71875.125-1.0625.0625c-.4375-.03125-.84375.03125-1.28125.03125-.75.03125-1.375.21875-2.15625.3125-.3125.125-.75.1875-1.09375.25-.3125.03125-.75.09375-1.09375.25-.75.375-1.40625.71875-2.15625 1.15625-.53125.40625-1.1875.84375-1.71875 1.25-.21875.1875-.4375.5-.75.78125-.09375.09375-.21875.1875-.3125.375-.09375.09375-.3125.125-.4375.21875-.3125.125-.65625.34375-.96875.375-.21875.03125-.3125.21875-.4375.21875-.21875.03125-.4375.0625-.625.09375-.21875.03125-.4375-.03125-.75 0-.09375 0-.3125-.03125-.4375-.03125-.3125-.03125-.625.15625-.9375.03125 0-.09375.21875-.1875.21875-.28125.09375-.09375 0-.15625 0-.25l.09375-.09375c.09375-.09375.3125-.21875.40625-.40625 0 0 0-.09375 0-.15625l.09375-.09375c.09375.0625.3125.3125.21875.40625-.09375.1875-.40625.3125-.3125.46875 0 .09375.40625.03125.53125.09375.21875-.03125.4375-.0625.625-.09375.4375-.0625.84375-.1875 1.28125-.4375.21875-.125.4375-.21875.65625-.34375.09375-.09375.09375-.28125.21875-.46875.3125-.3125.4375-.5625.53125-.9375.09375-.28125 0-.5-.21875-.75-.09375 0-.4375.0625-.53125.0625-.21875.03125-.3125-.03125-.53125-.09375s-.75.09375-1.0625.15625c-.3125.03125-.625.15625-.96875.28125-.3125.125-.625.34375-.84375.53125-.09375.1875-.21875.28125-.3125.375-.09375.1875-.21875.28125-.3125.46875 0 .09375.09375.34375.21875.40625.03125.03125.0625.03125.09375.0625-.09375.09375-.09375.1875-.21875.1875 0 .15625-.09375.28125-.21875.46875-.09375.09375-.21875.125-.40625.0625-.3125-.125-.71875-.15625-1.03125-.125-.71875 0-1.21875-.375-1.84375-.46875-.71875-.15625-1.3125-.34375-1.78125-.65625-.59375-.28125-1.0625-.65625-1.625-.84375-.28125-.125-.65625-.28125-.9375-.40625-.1875-.0625-.5625-.03125-.71875-.09375-.1875-.25-.1875-.25-.4375-.21875-.1875.03125-.09375.1875-.09375.34375.09375.15625.4375.375.625.4375.5625.1875 1.03125.65625 1.40625 1.03125.375.46875.375 1.0625.96875 1.34375.09375.15625.28125.125.46875.125.09375 0 .28125-.125.375-.125.1875-.09375.5-.0625.59375-.0625.1875-.03125.28125-.03125.40625.03125.6875.09375 1.40625.1875 2.125.34375.625.09375 1.21875.28125 1.84375.375.40625.03125.71875.0625 1.0625.125.40625.03125.75.15625 1.15625.09375-.09375-.25-.3125-.3125-.09375-.5.21875-.28125.3125.125.3125.21875s.3125.21875.4375.28125c.21875.15625.3125.21875.53125.34375.09375.0625.09375.15625.09375.25s0 .15625.09375.25c.09375.0625.4375.1875.21875.40625-.21875.1875-.3125.125-.4375-.03125-.09375-.15625-.21875-.3125-.3125-.46875-.3125.3125-.4375.5625-.625 1.03125 0 .09375.09375.3125.09375.5v.34375c.09375.25.21875.40625.3125.5625.09375.0625.4375.1875.53125.1875.3125.21875.625.34375 1.0625.375.3125.03125.75.0625 1.0625-.0625.21875-.03125.4375-.15625.65625-.28125.09375-.03125.21875-.28125.21875-.375s.09375-.28125.21875-.46875c0-.09375 0-.25 0-.4375 0-.25-.09375-.65625-.21875-.90625-.3125-.5625-.75-1.15625-1.625-1.125-.21875.03125-.53125.15625-.75.1875s-.09375-.15625-.21875-.3125c-.21875-.21875-.4375-.375-.65625-.59375.09375-.09375.09375 0 .3125.03125.09375 0 .21875.0625.3125.125s.21875.0625.3125.125c0 .09375.09375.25.21875.21875.3125-.03125.65625-.09375.96875-.125.21875-.03125.4375.1875.65625.25.21875.125.3125.28125.53125.34375.21875.3125.53125.53125.875.625.75.21875 1.625.4375 2.375.65625.4375.03125.75.125 1.0625.15625.8125.40625 1.78125.34375 2.53125.21875zm-4.59375-5.21875c.75-.375 1.71875-.6875 2.5-.9375.65625-.25 1.40625-.375 2.03125-.5625.75-.1875 1.5-.3125 2.25-.5.3125-.0625.625-.1875.9375-.21875.21875-.03125.40625-.0625.625-.09375.09375-.03125.09375-.03125.09375.0625s-.09375.09375-.21875.125c-.21875.125-.625.09375-.9375.21875-.40625.15625-.75.1875-1.15625.4375-.21875.125-.53125.34375-.84375.46875-.3125.0625-.75.1875-1.0625.25-.75.125-1.5.3125-2.25.59375-.65625.1875-1.40625.375-2.15625.65625-.65625.25-1.3125.53125-2.0625.8125 0 0-.09375 0-.21875-.0625.8125-.4375 1.59375-.875 2.46875-1.25zm-14.40625 2.125c0-.09375-.09375-.15625-.09375-.25s-.09375-.25-.09375-.34375.09375-.09375.1875-.03125c.09375-.28125-.375-.65625-.46875-.71875s-.5625-.28125-.46875-.46875c.1875.0625.375.3125.5625.375.1875.15625.46875.28125.5625.4375.1875.25.28125.5625.28125.8125-.09375.21875-.28125.34375-.46875.1875zm15.15625 1.40625c-.3125-.03125-.65625-.15625-.875-.21875-.21875.03125-.96875.0625-1.09375-.09375.75-.125 1.5-.21875 2.15625-.0625.875.125 1.71875.34375 2.59375.375.53125 0 .96875.09375 1.5.09375.4375.03125.84375.03125 1.375-.0625.3125-.0625.625-.09375 1.0625-.15625 0 0 0 .15625-.09375.1875-.3125.0625-.75.125-1.0625.34375-.4375.15625-1.0625.15625-1.5.25-.3125.0625-.625.03125-1.0625.09375-.3125-.03125-.75-.125-1.0625-.15625-.65625-.1875-1.3125-.4375-1.9375-.59375zm-11.625-7.9375c3.59375-.4375 7.3125-1.90625 10.375-4.09375-.03125-.03125-.0625-.03125-.0625-.09375-.21875.125-.4375-.03125-.4375-.1875 0-.09375.21875-.28125.3125-.375h.09375c.09375 0 .21875-.03125.3125.03125v.09375c.09375 0 .125-.03125.21875-.03125.09375-.09375.21875-.1875.3125-.21875.125.03125.15625.09375.15625.125.09375-.0625.1875-.125.28125-.1875l.9375-.84375c-.15625.125-.3125.21875-.5.34375-.21875.03125-.3125.03125-.4375.0625-.21875.03125-.4375.125-.53125.15625-.21875.03125-.3125.03125-.4375-.03125-.09375-.0625-.09375-.25-.21875-.40625 0-.25 0-.5.125-.875-.21875.125-.3125.28125-.4375.21875-.21875-.0625-.09375-.15625-.21875-.3125-.21875-.21875-.3125-.46875-.75-.5-.75 0-1.40625.25-2.0625.40625-.09375 0-.3125-.125-.4375-.125-.09375-.0625-.21875-.21875-.09375-.34375.09375-.09375.21875-.28125.21875-.375.09375-.1875.09375-.34375.09375-.4375 0-.15625.09375-.28125.21875-.375.09375-.1875.09375-.28125.21875-.4375.09375-.1875.3125-.46875.65625-.59375.3125-.125.65625-.25.96875-.46875 0 0 .09375 0 .21875-.03125.09375 0 .09375-.09375.21875-.125.125-.1875.21875-.1875.3125-.28125.3125-.28125.65625-.40625.96875-.46875.3125-.125.5625-.40625.875-.53125.21875-.03125.3125-.03125.53125-.0625.09375 0 .3125-.03125.53125-.0625s.09375.0625.09375.25c0 .15625-.125.1875-.21875.375-.3125.21875.09375.40625.3125.5625.09375.15625.21875.15625.3125-.03125.125-.1875.21875-.1875.21875-.375.09375-.1875.21875-.28125.21875-.375.09375-.1875.125-.34375.21875-.4375.4375-.3125.3125.46875.3125.625s0 .25.09375.40625.09375.25.09375.40625c-.09375.28125 0 .59375.09375.84375v.75c0 .15625 0 .34375-.125.4375 0 .15625-.21875.28125-.21875.375-.09375.1875-.21875.28125-.3125.46875 0 .09375-.21875.1875-.3125.28125 0 .0625-.03125.125-.0625.15625 1.65625-1.71875 2.875-3.625 3.5625-5.625 0 .03125-.03125.0625-.03125.0625-.21875.125-.09375-.15625-.21875-.21875 0-.09375-.09375 0 0-.15625l.09375-.09375c.09375-.09375.21875-.125.3125-.21875v.125c.34375-1.125.5-2.25.5-3.40625-.0625-3.96875-2.375-7.5-6.1875-9.6875-3.28125-1.875-7.5625-2.5625-11.59375-2-9.1875 1.25-14.28125 8.5625-14.28125 16.125.1875 7.65625 5.34375 12.96875 14.59375 11.8125zm-3.78125-8.1875c0 .09375-.1875.28125-.1875.375-.09375.09375-.1875.1875-.1875.375 0 .09375-.09375.28125-.09375.4375 0 .09375.1875.21875.09375.34375 0 0-.1875.1875-.28125.21875-.09375-.0625-.28125-.125-.375-.28125-.1875-.15625-.09375-.5-.09375-.65625s0-.34375 0-.4375c-.09375-.15625 0-.25 0-.4375.09375-.09375.09375-.28125.1875-.375.1875-.03125.1875-.1875.375-.3125 0-.15625 0-.15625.1875-.28125.09375 0 .28125.125.28125.21875.1875.21875.09375.46875.09375.8125zm6.21875-5.375c0 .09375-.09375.34375-.3125.375-.21875-.0625-.09375-.3125-.09375-.40625s.3125-.375.3125-.375c.21875.0625.09375.3125.09375.40625zm4.75 1.5625c-.09375.1875-.4375-.375-.53125-.375-.125-.25-.34375-.375-.4375-.53125-.09375-.0625-.53125-.375-.65625-.34375-.09375 0-.3125.03125-.4375-.03125 0 0-.09375-.15625 0-.25.3125-.03125.53125-.0625.875.0625.21875.0625.4375.21875.65625.34375.21875.15625.4375.28125.5625.4375.15625.0625-.03125.5-.03125.6875zm1.40625.4375c-.09375-.0625-.21875-.15625-.4375-.125s-.3125-.0625-.53125-.03125c-.09375-.0625-.3125-.125-.21875-.3125.09375-.09375 0-.25.09375-.34375.125.0625.125.25.21875.40625 0 .09375.4375.03125.53125.03125s.4375-.0625.4375.03125c.21875.125.125.3125-.09375.34375zm.21875-1.21875c-.125-.0625-.21875-.0625-.4375-.03125-.09375 0-.3125.125-.4375.0625 0 0-.125-.25-.125-.3125-.125-.0625-.21875-.15625-.125-.3125 0-.15625 0-.15625.21875-.28125.3125-.03125.53125-.15625.75-.34375.09375-.09375.3125-.21875.4375-.3125.09375-.09375.21875-.28125.3125-.21875.09375 0 .4375.03125.4375.125-.09375.1875-.09375.09375-.3125.28125-.09375 0-.09375.1875 0 .25.21875.15625.125.15625 0 .34375-.09375.09375-.3125.28125-.3125.375 0 .15625-.09375.1875-.09375.34375-.09375.09375-.21875.09375-.3125.03125zm2.25-2.125c0 .15625.21875.3125 0 .4375-.3125.03125-.34375-.03125-.4375-.125-.125-.0625-.21875-.0625-.34375-.0625 0 0 0 .09375-.09375.09375-.21875.03125-.21875-.15625-.125-.25.21875-.03125.3125-.125.53125-.0625 0-.09375.09375-.1875.09375-.28125s-.125-.0625-.21875-.15625c0-.09375.21875-.28125.3125-.28125s.21875.21875.125.3125c-.0625.21875.15625.21875.15625.375zm-.28125 1.96875c-.125 0-.65625.0625-.3125.21875.125 0 .21875.0625.21875.15625.125 0-.125.09375-.21875.125-.125 0-.21875-.0625-.21875-.15625-.125-.0625-.125-.15625-.21875-.15625-.09375.1875.4375.46875.125.59375-.125 0-.3125-.125-.4375-.21875 0-.09375 0-.25 0-.34375 0-.25.09375-.53125.3125-.625.3125-.21875.65625-.25.96875-.28125.21875.15625-.09375.28125-.21875.28125-.21875.03125-.4375.125-.4375.3125.09375-.03125.75-.1875.4375.09375zm-.59375-2.8125c.09375 0 .4375.21875.21875.21875-.21875.0625-.4375-.09375-.21875-.21875zm.4375-7.84375c-.125-.0625-.125-.40625-.21875-.46875-.34375-.3125-.875-.40625-1.09375-.71875.09375 0 .09375-.09375.09375-.09375.4375.125.875.40625 1.21875.53125.125.15625.125.15625.21875.21875 0 .15625 0 .15625.125.25.125.0625.65625.25.4375.375-.125.09375-.65625 0-.78125-.09375zm-.09375 7.8125c-.21875.03125-.125-.40625.09375-.28125 0 0 .125.15625.125.25s-.125.03125-.21875.03125zm-.46875-1.96875c0-.09375 0-.4375.09375-.53125 0-.09375 0-.15625.09375-.28125.09375-.09375.21875.0625.21875.0625 0 .15625.125.40625.125.5-.09375.28125-.3125.3125-.53125.25zm.21875.90625c.125.0625 0 .15625-.09375.28125-.09375 0 .125.25.125.3125.09375 0 .125.25 0 .25s-.34375-.03125-.4375-.125c-.125-.0625-.125-.15625 0-.25 0-.15625-.34375-.5625.09375-.59375.09375-.03125.21875-.03125.3125.125zm-.71875 5.40625c-.21875.03125-.21875-.0625-.4375-.03125-.09375 0-.3125-.0625-.09375-.15625.21875-.03125.21875-.03125.4375.03125.09375 0 .3125-.03125.3125-.03125.21875-.03125.3125-.03125.4375.03125.21875-.03125.3125.0625.09375.15625-.09375.09375-.625 0-.75 0zm1.53125.1875c-.125 0-.125 0-.3125.03125-.09375-.0625-.125 0-.21875.03125-.125.09375-.3125.125-.3125.03125-.09375 0-.21875-.15625-.09375-.15625.21875-.03125.65625-.0625.75-.1875.09375 0 .3125-.03125.3125-.03125.09375.15625.09375.25-.125.28125zm0-2.46875c-.125-.25.09375-.34375.09375-.53125.09375 0 .4375-.0625.4375.03125s-.09375.1875-.09375.28125.09375 0 .21875.0625-.09375.28125-.09375.28125c-.125.0625-.5625-.03125-.5625-.125zm.78125-6.71875c0 .15625-.3125.28125-.53125.3125-.21875-.03125.3125-.34375.53125-.3125zm4.96875 7.5625c-.21875.125-.3125-.46875-.09375-.5625.3125-.15625.3125.4375.09375.5625zm-.75-1.09375c.3125-.03125.75.15625.65625.34375 0 .09375-.09375.1875-.21875.1875-.09375-.0625-.09375-.0625-.09375-.15625-.09375-.0625-.125-.15625-.125-.25-.09375 0-.21875.03125-.21875-.0625 0-.0625 0-.0625 0-.0625zm-.09375.59375.09375-.09375c.09375 0 .09375.0625.125.15625v.15625c-.09375.09375-.09375.09375-.21875.125-.09375.1875-.3125.125-.21875-.0625.125-.09375.34375-.125.21875-.28125zm-3.15625-.625c0 .09375 0 .09375-.09375.1875 0 .09375.125.15625.21875.15625.21875.15625.53125-.3125.875-.1875s.4375.46875.78125.59375c.09375 0 .3125.03125.4375.125.125.0625.09375.0625.09375.15625.09375 0 .21875-.03125.21875.0625.21875.21875.4375.46875.53125.6875.09375.15625.53125.59375.21875.71875-.21875.125-.3125-.21875-.3125-.3125-.09375-.15625-.3125.03125-.4375-.03125-.21875-.0625-.3125-.3125-.53125-.28125-.21875-.0625-.3125.28125-.53125.15625-.3125-.03125-.3125-.21875-.65625-.25-.21875-.0625-.53125-.09375-.4375-.28125.09375-.09375.125-.1875.125-.28125 0-.15625 0-.15625-.125-.25-.21875-.15625-.4375-.21875-.65625-.1875-.09375 0-.3125.03125-.4375-.03125 0 0-.125-.15625-.21875-.21875-.09375 0-.21875-.0625 0-.15625.125 0 .21875-.125.3125-.125 0 0 0 0-.125-.0625-.34375-.3125.09375-.34375.53125-.3125.09375-.03125.09375.03125.21875.125zm-.34375-7.53125c-.03125.03125-.0625.0625-.09375.09375 0 .09375.125.15625 0 .15625 0 .09375-.09375.09375-.09375.09375 0 .09375 0 .15625-.09375.28125 0 .09375-.09375.09375-.21875.125-.21875.125-.4375.3125-.65625.34375 0 .0625-.0625.25-.21875.28125 0 .0625.09375.0625.09375.15625.125.0625-.09375.1875-.09375.1875-.09375.09375-.09375.28125-.21875.1875-.21875-.0625.09375-.4375.21875-.53125-.03125 0-.0625.03125-.09375 0-.125-.0625 0-.34375.09375-.34375.09375-.1875.21875-.28125.3125-.46875.09375-.09375.21875-.125.4375-.125-.125-.15625-.34375-.21875-.34375-.3125s.3125-.28125.3125-.46875c.09375-.09375-.125-.3125 0-.5.09375-.09375.09375-.4375.3125-.46875.125.0625 0 .25 0 .34375.125.0625.21875.0625.34375.125 0 .15625-.09375.34375-.09375.4375.09375.09375.09375.34375.09375.40625zm-.21875-1.5625c-.09375.09375-.4375.21875-.4375.3125 0 0-.09375.28125-.21875.28125-.21875-.0625-.125-.3125-.21875-.40625 0-.09375-.5625-.34375-.125-.5.125.0625.34375.125.34375.125.09375 0 .53125-.15625.53125-.0625.125.15625.34375.125.125.25zm-.46875-1.5625c.09375 0 .21875-.03125.3125-.03125.125.0625.125.0625 0 .15625s-.21875.03125-.3125.03125c-.09375.03125-.09375-.125 0-.15625zm.3125-.21875c-.09375 0-.3125.125-.53125-.03125.09375 0 .21875-.125.3125-.21875 0 .03125.5625.125.21875.25zm-18.71875-.3125c.09375 0 .1875-.03125.34375.03125.1875-.03125.1875-.03125.28125-.125.1875.0625.09375.25 0 .34375-.1875.125-.28125.21875-.53125.25-.1875.03125-.34375.0625-.34375-.125 0-.15625.1875-.28125.25-.375zm-.9375 2.5c.15625-.1875.25-.28125.53125-.40625.09375 0 .1875.0625.1875.0625-.09375.1875-.1875.1875-.1875.28125-.09375.28125-.1875.4375-.34375.71875-.09375.09375.09375.0625-.09375.1875-.09375 0-.15625.125-.25.125-.09375.09375-.15625.125-.25.125s-.15625-.0625-.25-.03125c-.09375 0-.25.125-.25-.03125 0-.09375.09375-.1875.15625-.28125.15625-.1875.34375-.0625.59375-.1875.15625-.15625.0625-.375.15625-.5625zm-1 .25c.09375 0 .15625-.1875.15625-.28125.09375 0 .15625-.125.15625-.125.09375.0625.15625.0625.25.03125.09375 0 .15625.0625.15625.21875 0 .09375.09375.15625-.09375.28125-.09375 0-.15625.125-.25.125s-.25.03125-.34375.0625c-.15625.125-.25.21875-.34375.0625-.03125-.21875.125-.25.3125-.375zm-.09375.9375c-.09375 0-.15625-.0625-.09375-.0625.09375-.09375.1875-.03125.09375.0625zm-2.21875 11.0625c0-.09375.09375-.4375 0-.5 0-.09375-.21875-.125-.40625-.09375-.09375-.0625-.15625-.21875-.25-.28125s-.625.125-.78125.15625-.25.03125-.3125-.03125c-.15625-.125-.15625-.125-.40625 0-.15625.03125-.25.125-.3125-.03125-.15625-.0625-.15625-.0625-.15625-.3125 0-.09375 0-.25 0-.34375-.09375-.15625-.15625-.3125-.25-.46875-.09375-.25-.15625-.5625-.25-.78125-.09375-.0625-.15625-.21875-.09375-.3125 0-.15625.09375-.28125.09375-.4375.09375-.34375.09375-.59375.15625-.9375 0-.15625 0-.5.15625-.6875.15625-.28125.40625-.65625.625-.96875.3125-.46875.78125-.8125 1.1875-1.21875.3125-.21875.625-.53125.875-.84375.09375 0 .15625-.125.21875-.21875 0 0 .15625.125.21875.125.15625.0625.21875.125.375.1875.0625 0 .21875-.03125.3125-.0625.25-.03125.40625-.0625.5625-.09375.09375 0 .25-.03125.3125.03125.09375 0 .09375.0625.15625.0625.09375.0625.09375 0 .09375.15625.09375 0 .09375.0625.15625.0625.09375.0625 0 0 .09375 0 .15625-.03125.09375 0 .15625.0625.09375.0625.09375.0625.15625.125 0 .09375.09375.15625-.09375.28125-.09375-.0625-.09375-.15625-.15625-.3125-.0625 0-.09375.03125-.15625.03125v.25c0 .25.5.15625.59375.3125.15625.0625.15625.125.25.28125.125-.03125.21875-.03125.34375-.0625.1875-.03125.25-.03125.4375-.0625.1875.0625.1875.125.25.21875.1875.0625.34375.125.4375.09375.09375.0625.375.03125.4375 0 .09375 0 .1875-.1875.1875-.375.09375 0-.09375-.25-.1875-.21875-.09375 0-.1875.125-.1875-.0625 0-.09375 0-.09375-.09375-.15625s-.28125-.03125-.34375-.125c0-.0625 0-.09375 0-.15625-.09375-.0625 0-.09375 0-.15625 0-.15625 0-.25.09375-.4375-.09375 0-.28125.03125-.28125.125s.09375.25.09375.3125c-.09375.1875-.4375.25-.625.28125 0-.25 0-.5 0-.75s.09375-.59375-.25-.53125c-.09375 0-.09375 0-.09375.09375v.25c0 .09375.1875.125.1875.21875 0 .34375 0 .5-.25.78125 0-.09375 0-.15625 0-.25-.1875.1875-.25.28125-.5.34375 0-.09375 0-.15625 0-.25.15625-.125.15625-.125.15625-.28125 0-.09375-.09375-.15625-.09375-.25-.09375-.0625-.09375-.0625-.15625-.21875 0-.09375.09375-.28125 0-.34375-.09375-.15625-.09375-.25-.25-.28125-.09375-.0625-.25-.03125-.34375.0625-.09375 0-.3125.0625-.3125-.03125-.09375-.0625-.3125-.03125-.40625 0-.09375.09375 0 .09375-.09375.1875 0 .09375-.09375.09375-.09375.1875-.15625.1875-.09375.1875-.3125.21875-.15625.03125-.375 0-.53125.03125-.0625 0-.3125.15625-.3125-.03125 0-.15625 0-.25-.0625-.40625s.0625-.28125.15625-.375c.0625-.09375.15625-.125.15625-.28125s.0625-.28125.21875-.375c.0625-.1875.15625-.125.21875-.03125.0625.15625.3125-.0625.40625 0 .09375 0 .15625.21875.25.125.15625-.125.15625-.28125.25-.375s.15625-.28125.25-.375c.09375-.1875.09375-.28125.25-.28125.15625-.03125.25-.03125.40625-.0625.09375 0 .34375.03125.34375-.0625.15625-.03125.25-.125.4375-.15625.25-.125.53125-.34375.6875-.53125.1875-.125.25-.125.4375-.15625.09375 0 .34375-.125.34375-.0625.09375.03125.09375.125.09375.21875.03125-.09375.15625-.1875.15625-.34375 0 0 0-.09375 0-.15625 0-.09375 0-.09375-.09375-.0625-.09375 0-.375.125-.375-.03125s0-.25.09375-.34375c.1875-.125.1875-.28125.375-.3125s.28125-.03125.46875-.0625c.1875-.125.28125-.125.46875-.15625s.1875-.1875.375-.21875c.09375 0 .1875-.03125.1875-.125.09375 0 .09375-.09375.1875-.125l.28125-.28125c.09375-.09375.375-.0625.46875 0s.1875.0625.375.03125c.375-.0625.59375 0 .78125.21875 0 .15625.09375.25.1875.3125s.09375.25.09375.3125c.1875-.03125.1875-.03125.40625-.125.09375-.09375.40625.03125.59375 0 .3125-.03125.5-.15625.8125-.1875.1875.0625.21875.0625.3125-.125.09375-.09375.1875-.125.3125-.125.21875-.15625.3125.0625.3125.0625.09375.15625.21875.15625.3125.21875.09375-.28125-.21875-.21875.09375-.34375.09375-.09375.3125-.21875.40625-.3125.40625-.125.71875-.34375 1.03125-.5625.21875-.125.3125-.21875.40625-.3125.09375-.1875.21875-.1875.40625-.21875.21875.0625.4375.03125.53125.03125.21875-.03125.4375-.0625.625-.15625.09375 0 .3125-.125.4375-.125.21875-.03125.4375-.0625.53125-.15625l.65625-.09375c.09375 0 .21875-.125.3125-.28125.09375-.09375.09375-.28125.21875-.375 0 0 0-.15625.09375-.1875.09375 0 .125-.03125.21875-.03125.21875-.1875.3125-.21875.53125-.25s.3125-.03125.4375-.0625c.4375.03125.65625.09375.96875.3125.21875.0625.3125.03125.4375.125.21875.0625.3125.125.4375.1875.3125.125.5625.34375.875.5.3125.03125.53125.1875.875.3125 0 .15625.125.15625.125.3125s0 .09375-.21875.125c-.3125.03125-.53125-.09375-.875-.0625-.21875.03125-.125-.0625-.3125-.125 0 0-.09375.09375-.09375 0-.09375 0-.125-.0625-.21875-.15625-.125-.15625-.21875-.3125-.34375-.46875-.21875.125-.21875.28125-.3125.375s-.21875.125-.4375.21875c-.21875.03125-.3125.125-.3125.21875-.09375.09375-.21875.4375-.09375.4375.09375 0 .3125-.21875.4375-.125.09375 0 .21875.0625.21875.15625 0 0-.09375.09375 0 .15625 0 .09375.3125.125.4375.1875s.21875.15625.34375.3125c.21875.15625.4375.46875.5625.625.125.3125-.09375.53125-.09375.84375v.15625c-.09375.09375 0 .09375.125.0625.125.25.125.25-.09375.34375-.21875.1875-.21875.53125-.21875.78125s.125.25.34375.375c.125.0625 0 .25 0 .4375 0 .09375-.21875.1875-.21875.28125-.09375.09375-.09375.09375-.21875.125-.125-.0625-.125-.0625-.125-.15625-.125-.15625 0-.34375-.21875-.40625-.125-.0625-.21875-.15625-.34375-.21875s-.125-.0625-.21875.03125c-.09375 0-.09375.09375-.21875.125-.09375.09375.125.3125.125.3125.09375-.09375.21875-.28125.4375-.125.125.0625-.09375.1875-.21875.28125.4375.1875.4375.625.5625 1.03125.125.15625 0 .4375 0 .59375s-.09375.4375-.21875.53125c-.09375.09375-.3125.375-.53125.5-.21875.03125-.4375.21875-.4375.375 0 .09375.125.25 0 .25 0 .09375-.21875.1875-.3125.125 0-.09375-.125-.0625 0-.15625.09375-.09375 0-.15625-.125-.25 0 .09375-.3125.28125-.3125.375 0 .25 0 .34375.125.5.125.3125.34375.625.21875.90625-.09375.1875-.09375.1875-.21875.28125-.09375 0-.09375 0-.21875.125-.09375.09375-.21875.28125-.4375.3125-.3125-.0625-.5625-.375-.75-.5-.3125.21875-.4375.375-.3125.625.09375.0625.125.25.21875.21875.09375.0625.3125.125.4375.21875.125.15625.21875.40625.34375.625v.25c0 .09375.125.0625.125.0625.125.15625 0 .15625-.09375.1875-.3125-.0625-.53125-.28125-.78125-.5-.125-.15625-.21875-.40625-.34375-.625-.125-.25-.125-.5-.21875-.65625-.21875-.15625-.21875-.46875-.34375-.625-.21875.28125-.4375.3125-.65625 0 0-.09375-.125-.25-.125-.3125-.09375 0-.21875.03125-.21875-.0625-.09375 0-.09375-.0625-.09375-.0625-.09375-.0625 0-.25-.125-.3125-.09375-.0625-.21875-.15625-.3125-.125-.3125.03125-.53125.15625-.75.34375s-.53125.40625-.75.59375-.3125.28125-.3125.625c0 .15625 0 .25-.09375.34375s-.21875.125-.21875.28125-.21875.4375-.3125.625c-.3125-.125-.40625-.375-.53125-.53125-.3125-.21875-.40625-.375-.625-.59375s-.21875-.5625-.21875-.8125c0-.15625 0-.15625-.21875-.15625s-.21875.03125-.3125-.125-.21875-.21875-.3125-.3125c-.09375-.15625-.21875-.15625-.40625-.125s-.5.15625-.8125.1875c-.09375-.0625-.3125-.03125-.5-.03125-.09375 0-.1875-.15625-.28125-.21875-.1875-.0625-.1875-.15625-.40625-.125-.09375 0-.28125.125-.375.125 0-.15625 0-.25-.09375-.40625 0-.09375-.1875-.0625-.28125-.125 0 .15625 0 .15625.09375.25 0 .15625.09375.3125.1875.40625.09375.15625.09375.15625.375.125.1875-.03125.59375-.09375.6875 0 .09375.0625.1875.15625.1875.3125.09375 0 .125-.03125.1875-.03125.09375 0 0 .25 0 .34375-.09375.09375-.1875.1875-.28125.28125 0 .09375-.1875.375-.28125.375-.1875.03125-.28125.03125-.5.15625-.1875.1875-.46875.40625-.78125.53125-.1875.125-.28125.125-.46875.21875-.09375 0-.28125.125-.46875.15625s-.28125.03125-.375-.1875c-.09375-.15625-.09375-.3125-.09375-.5625-.09375-.0625 0-.25-.1875-.3125-.09375-.0625-.28125-.03125-.28125-.21875-.1875-.21875-.28125-.46875-.375-.78125-.09375-.15625-.09375-.5625-.28125-.71875 0-.09375-.28125.125-.28125.21875v.40625c0 .09375 0 .25.09375.40625.09375.0625.09375.15625.1875.3125.09375.25.28125.46875.28125.71875 0 .09375-.09375.25 0 .25 0 .09375.09375 0 .1875-.03125.09375.0625.1875.21875.28125.28125.1875.125.1875.46875.46875.59375.09375 0 .375.03125.46875.03125.28125-.21875.75-.53125 1.03125-.46875.1875.0625-.09375.34375-.09375.34375-.09375.1875-.1875.28125-.1875.4375-.09375.25-.1875.625-.375.8125-.46875.5625-.9375 1.0625-1.40625 1.53125-.1875.1875-.375.40625-.625.6875-.09375.09375.375.46875.375.53125v1.125c0 .25 0 .4375-.28125.71875-.1875.1875-.375.21875-.34375.5625v.34375c0 .09375.09375.15625.09375.15625.1875.21875 0 .5-.28125.625-.09375.09375-.1875.125-.1875.1875-.09375.28125-.09375.6875-.34375.8125-.25.21875-.59375.34375-.875.5625-.09375.09375-.25.28125-.34375.3125-.09375 0-.25-.0625-.34375-.125-.09375-.25-.25-.46875-.34375-.71875-.34375-.53125-.5-1.09375-.71875-1.65625-.09375-.15625-.15625-.40625-.25-.5625-.15625-.15625-.21875-.28125-.3125-.4375-.0625-.15625-.0625-.15625-.0625-.3125.0625-.09375.15625-.28125.15625-.4375s0-.25 0-.40625c0-.25-.21875-.46875-.3125-.6875-.0625-.25-.15625-.5625-.3125-.78125.03125-.1875.03125-.1875.03125-.34375zm30.65625 15.25c.625-.28125 1.4375-.40625 1.9375-.8125-.3125.0625-.5.09375-.8125.21875-.09375.09375-.21875.03125-.40625.0625-.09375.03125-.21875.125-.40625.15625-.21875.03125-.3125-.03125-.53125 0-.09375.03125-.21875.125-.40625.15625-.3125.125-.71875.1875-1.0625.34375-.625.1875-1.15625.28125-1.6875.34375-.3125.0625-.625.09375-.96875.15625-.21875.03125-.65625.1875-.84375.03125.3125-.125.53125-.25.84375-.3125.4375-.15625.75-.1875 1.0625-.34375.75-.28125 1.5-.5625 2.125-.90625.625-.28125 1.34375-.625 2.0625-.90625.3125-.0625.625-.09375.90625-.15625.40625-.0625.90625-.15625 1.40625-.21875.6875-.125 1.28125-.53125 1.96875-.8125.46875-.15625.78125-.28125 1.21875-.375l.5625-.09375c.09375-.03125.09375-.03125.1875.0625.09375-.03125.28125.1875.1875.3125-.09375.09375-.09375.1875-.1875.1875-.09375.03125-.28125.0625-.375.0625 0 0-.1875.1875-.28125.21875-.28125.3125-.5625.59375-.84375.90625-.46875.34375-.875.8125-1.34375 1.15625-.28125.21875-.59375.4375-.78125.625-.3125.125-.6875.4375-1 .59375-.71875.28125-1.40625.5625-2.125.78125-.625.09375-1.34375.21875-2.09375.25-.53125.09375-1.0625 0-1.59375 0-.53125-.09375-1.0625-.09375-1.59375-.1875-.65625-.0625-1.1875-.25-1.71875-.34375.75-.03125 1.40625-.03125 2.15625-.15625s1.59375-.25 2.34375-.375c.3125-.0625.75-.1875 1.0625-.25.3125-.09375.625-.21875 1.03125-.375zm-15.84375-39.75c-3.84375.5-7.40625 1-10.5625 1.53125 4.5-3.53125 10.875-6.0625 17.96875-6.96875 7.0625-.90625 13.5-.03125 18.03125 2.0625-.21875.03125-.4375.0625-.65625.09375-3.5.5625-7.375 1.0625-11.40625 1.59375-4.46875.5625-8.96875 1.125-13.375 1.6875zm4.28125 50.03125c.53125.09375 1.09375.15625 1.65625.1875-18.65625 2.21875-28.5625-9.375-28.5-23.5625 0-4.65625 1.21875-9.53125 3.3125-13.8125v5.46875 9.1875 2.125c0 1.875.25 3.65625.71875 5.375.875 3.21875 2.75 6.125 5.25 8.4375 2.28125 2.125 5.375 3.78125 8.875 4.875 2.71875.875 5.59375 1.40625 8.6875 1.71875zm-12.25-34.125c0 .15625 0 .15625-.09375.34375s-.5625-.09375-.75.03125c-.09375 0-.375-.03125-.28125-.125 0-.09375.09375-.34375.1875-.375.09375-.09375.28125-.21875.375-.125 0 0 0 0 .09375.0625 0 .09375.09375.0625.1875.0625.1875-.03125.1875-.03125.28125.125zm56.125-16.9375c-2.4375 2.34375-3.625 3.53125-5.9375 5.875.0625.21875.0625.34375.125.5625-.25.125-.34375.15625-.59375.28125-1.03125-1.46875-1.5625-2.21875-2.53125-3.71875.21875-.125.34375-.15625.5625-.28125.3125.375.46875.5625.8125.90625.5-.5.78125-.75 1.3125-1.25-.65625-.71875-1-1.09375-1.625-1.84375-.75.21875-1.09375.3125-1.8125.53125.125.21875.1875.3125.34375.5-.1875.125-.28125.1875-.4375.34375-.59375-.5625-.875-.8125-1.4375-1.375.1875-.125.25-.1875.4375-.34375.21875.1875.34375.28125.5625.46875 3.25-.9375 5.03125-1.4375 8.65625-2.40625.59375.71875.90625 1.0625 1.5625 1.75zm-7.71875 17.4375c-.6875 16.5-15.8125 31.8125-32.71875 34.34375-19.78125 2.96875-31.0625-8.96875-31-24 .03125-5.21875 1.53125-10.65625 4.03125-15.40625 0-1.125 0-2.25 0-3.375 0-1.59375 0-3.1875 0-4.84375.65625-.125 1.28125-.21875 2-.375 1.75-.3125 3.40625-.65625 5.3125-1 4.59375-4.0625 11.53125-6.9375 19.34375-7.9375 7.75-1 14.8125.09375 19.4375 2.59375 1.6875-.28125 3.1875-.59375 5.03125-.9375.03125 0 .0625 0 .09375-.03125.125-.03125.25-.0625.375-.0625.21875-.03125.4375-.09375.65625-.125.34375-.0625.71875-.125 1.09375-.21875.375-.0625.75-.15625 1.125-.21875v2.71875c-.03125 1.875-.09375 3.75-.09375 5.625 3.125 3.5625 5.5 8.09375 5.3125 13.25zm-3.53125-26.125c1.09375.65625 1.65625.96875 2.78125 1.625-.28125 1.75-.40625 2.59375-.6875 4.34375 1.125-.84375 1.71875-1.28125 2.90625-2.125-.25-.1875-.34375-.28125-.59375-.46875.25-.1875.34375-.25.59375-.4375.75.59375 1.15625.875 1.90625 1.4375-.25.1875-.375.28125-.59375.4375-.25-.1875-.375-.28125-.59375-.46875-2.65625 1.78125-3.9375 2.6875-6.28125 4.4375-.34375-.25-.5-.40625-.84375-.65625 0-.21875 0-.34375 0-.59375.25-1.9375.375-2.90625.65625-4.84375-.71875.6875-1.09375 1.0625-1.78125 1.75-.4375.09375-.65625.125-1.09375.21875 1.4375-1.5 2.21875-2.28125 3.84375-3.8125-.25-.1875-.40625-.28125-.65625-.46875.1875-.125.25-.21875.4375-.375zm-6.125-2.875c1.09375.53125 1.65625.8125 2.90625 1.3125 0 0 1.90625 1.34375.40625 3.65625-.96875 1.5-3.1875 2.34375-4.625 1.78125-.40625-.09375-2.09375-1.40625-2.09375-1.40625s-1.3125-.75-.875-2.625c.3125-1.375 1.3125-3.1875 4.28125-2.71875zm-6.75-2.46875s3.78125 1.03125 3.78125 1.09375c.09375.0625-.15625.53125-.15625.53125-.28125-.09375-.40625-.125-.6875-.21875-.875 1.96875-1.34375 2.96875-2.25 4.96875.28125.125.4375.1875.71875.3125-.09375.1875-.15625.28125-.25.46875 0 0-3.65625-1.15625-4.03125-1.09375.03125-.1875.0625-.25.09375-.4375.34375.0625.53125.09375.875.125.96875-2.03125 1.4375-3.03125 2.40625-5.0625-.28125-.125-.4375-.1875-.75-.3125.09375-.125.15625-.21875.25-.375zm-9.15625-.84375c0-.09375 5.28125-.03125 8.125.65625-.1875.59375-.28125.90625-.46875 1.5-.28125-.03125-.40625-.03125-.65625-.0625.0625-.25.125-.375.1875-.625 0 0-1.46875-.5625-1.65625-.53125 0 0-1.4375 4.96875-1.4375 5.0625.3125.0625.5.09375.8125.15625-.03125.21875-.0625.3125-.09375.53125 0 0-4.3125-.53125-4.84375-.46875.03125-.1875.0625-.25.09375-.4375.375 0 .5625-.03125.9375-.03125.59375-2 .90625-3 1.5-4.96875-.8125.0625-1.21875.125-2.0625.1875-.09375.21875-.125.3125-.21875.53125-.25 0-.375 0-.625 0 0-.03125.3125-1.3125.40625-1.5zm-10.53125 6.65625c1.3125-2.5 2-3.71875 3.3125-6.21875 1.03125-.09375 1.53125-.15625 2.5625-.25 1.21875 2.21875 1.8125 3.34375 3 5.5625h.75v.5s-4.28125.125-4.90625.28125c-.03125-.1875-.0625-.28125-.125-.5.34375-.0625.5-.125.84375-.1875-.3125-.5-.46875-.75-.75-1.25-1.1875.1875-1.8125.28125-3 .46875-.25.53125-.375.8125-.65625 1.34375.25-.03125.375-.0625.65625-.09375.03125.21875.0625.34375.125.5625 0 0-2.15625.28125-2.46875.40625-.03125-.1875-.0625-.28125-.125-.5.34375-.03125.5-.0625.78125-.125zm-7.28125-3.875c1.6875 1.0625 2.5625 1.59375 4.3125 2.65625-.15625-1.3125-.25-1.96875-.40625-3.28125-.375.09375-.5625.125-.9375.21875-.03125-.15625-.0625-.25-.09375-.40625 1.09375-.28125 1.625-.4375 2.71875-.6875.03125.1875.0625.28125.09375.5-.375.125-.5625.1875-.9375.28125.34375 2.1875.46875 3.28125.84375 5.5-.96875.21875-1.46875.34375-2.40625.59375-1.71875-1.09375-2.5625-1.625-4.1875-2.6875.4375 1.28125.625 1.90625 1.09375 3.1875.28125-.09375.4375-.15625.71875-.28125.03125.1875.0625.28125.09375.5-.90625.3125-1.34375.5-2.21875.8125-.09375-.15625-.125-.25-.1875-.40625.3125-.125.46875-.15625.8125-.28125-.6875-1.90625-1-2.875-1.65625-4.78125-.28125.09375-.40625.15625-.6875.28125-.0625-.1875-.125-.28125-.1875-.46875 1.21875-.53125 1.875-.75 3.21875-1.25zm-7 3.0625c1.40625-.40625 3 1.28125 1.25 2.90625 0 0 .28125.03125.75-.125s.9375.28125 1.03125.25c.09375.0625.46875.6875.46875.78125.09375.0625.375.1875.5.1875.1875-.03125.5-.15625.5-.15625l.09375-.09375c.09375.1875.125.28125.1875.46875-.75.34375-1.125.53125-1.84375.875 0 0-.9375.40625-1.03125.3125-.09375 0-.46875.0625-.5625-.09375-.1875-.21875-1-1.53125-1-1.53125s-.1875-.125-.28125-.125c-.1875.125-.53125.25-.53125.25-.375.21875-.59375.34375-.96875.59375.4375.71875.6875 1.09375 1.125 1.8125 0 0 0 .09375.1875-.03125.1875-.03125.4375-.3125.4375-.3125.09375.1875.15625.28125.28125.46875-1.40625.96875-2.09375 1.4375-3.375 2.40625-.125-.125-.1875-.15625-.3125-.28125.21875-.21875.34375-.3125.5625-.53125-1-1.625-1.4375-2.4375-2.375-4.0625-.21875.1875-.3125.25-.5625.4375-.125-.125-.1875-.15625-.3125-.28125.0625.03125 4.53125-3.75 5.78125-4.125zm-6.75 5c.3125.40625.46875.625.78125 1.03125-.125.15625-.1875.25-.3125.40625-.15625-.15625-.25-.25-.40625-.4375 0 0-1.09375.53125-2.3125 1.9375.5625.5625.875.84375 1.4375 1.40625 0 0 .78125-.5625.71875-.8125-.125-.125-.1875-.15625-.3125-.28125.125-.15625.1875-.25.3125-.40625.40625.46875.625.6875 1.03125 1.15625-.125.125-.1875.1875-.3125.3125-.15625-.125-.25-.21875-.40625-.34375-.25.28125-.375.4375-.625.71875v.15625c.09375 0 1.40625 1.3125 1.40625 1.3125s0 0 .09375-.09375c.15625-.125 1.25-1.5 1.3125-1.9375 0 0-.0625-.15625-.21875-.28125s-.0625-.15625-.0625-.15625c.15625-.15625.21875-.25.375-.40625.34375.46875.5.71875.875 1.1875-1.125 1.15625-1.625 1.71875-2.71875 2.875-.75.15625-1.125.21875-1.90625.34375-1.125-1.09375-1.6875-1.65625-2.8125-2.78125-.1875.28125-.28125.40625-.5.65625-.125-.125-.1875-.15625-.3125-.28125.0625-.21875 4.40625-5 4.875-5.28125zm-5.375 5.90625c.40625.34375.625.5 1.0625.84375-.15625.1875-.25.28125-.40625.5-.15625-.09375-.25-.15625-.40625-.28125 0 0-.8125.5625-1.375 1.3125 1.46875.96875 2.1875 1.4375 3.625 2.40625v1.1875c-.46875.78125-.71875 1.1875-1.21875 1.96875-.15625-.0625-.25-.125-.40625-.1875.15625-.25.25-.40625.40625-.65625-1.5625-1-2.34375-1.53125-3.90625-2.5625 0 0-.5625 1.09375-.75 1.78125.15625.15625.25.21875.40625.34375-.09375.15625-.15625.21875-.25.375-.5-.21875-.75-.34375-1.21875-.5625.1875-.53125 3.9375-6.0625 4.4375-6.46875zm-6.8125 11.40625c1.90625-.53125 2.875-.8125 4.78125-1.375-1.21875-.5-1.8125-.78125-3.03125-1.3125-.15625.28125-.25.4375-.40625.71875-.15625-.0625-.25-.125-.40625-.1875.4375-.84375.65625-1.25 1.0625-2.09375.15625.0625.25.125.40625.1875-.15625.28125-.25.4375-.40625.71875 1.96875.8125 2.96875 1.21875 4.90625 2-.40625.875-.625 1.3125-1.0625 2.1875-1.78125.53125-2.6875.78125-4.5 1.28125 1.28125.3125 1.9375.46875 3.1875.78125.125-.28125.1875-.4375.3125-.71875.15625.0625.25.125.40625.1875-.28125.8125-.4375 1.21875-.75 2.03125-.15625-.03125-.25-.0625-.40625-.09375.09375-.28125.15625-.4375.25-.71875-1.90625-.46875-2.84375-.71875-4.78125-1.25-.125.3125-.1875.46875-.34375.8125-.15625-.09375-.25-.125-.40625-.1875.5-1.15625.75-1.78125 1.1875-2.96875zm-1.5625 4.46875c.15625 0 .25.03125.40625.03125-.0625.28125-.09375.40625-.15625.6875 2 .25 2.96875.34375 4.9375.5625.09375-.28125.15625-.4375.25-.71875.15625.03125.25.0625.40625.09375-.375 1.59375-.53125 2.40625-.90625 4-.1875 0-.28125 0-.5 0l.15625-.78125c-1.96875-.25-2.96875-.375-4.9375-.65625-.0625.3125-.09375.46875-.15625.78125-.1875 0-.3125 0-.5-.03125.40625-1.5625.59375-2.375 1-3.96875zm.84375 9.875c.25-.78125.40625-1.15625.65625-1.9375.1875.71875.3125 1.0625.5 1.78125.75-.09375 1.125-.15625 1.90625-.28125-.625.5625-.9375.84375-1.5625 1.40625.21875.6875.34375 1.03125.5625 1.6875-.59375-.375-.875-.5625-1.46875-.9375-.65625.5625-1 .875-1.65625 1.4375.28125-.78125.40625-1.1875.65625-1.96875-.59375-.375-.90625-.59375-1.5-.96875.75-.0625 1.125-.125 1.90625-.21875zm.125 14.78125c-.53125-1.40625-.78125-2.125-1.3125-3.5625.15625-.09375.25-.125.40625-.21875.125.28125.1875.40625.34375.6875 1.28125-.65625 1.9375-1 3.21875-1.6875-1.6875.09375-2.53125.125-4.21875.1875-.125-.46875-.1875-.71875-.3125-1.1875 1.46875-1.09375 2.1875-1.65625 3.65625-2.78125-1.375.4375-2.09375.625-3.46875 1.03125l.15625.625c-.15625.09375-.25.125-.40625.21875-.15625-.8125-.25-1.25-.40625-2.0625.15625-.0625.25-.09375.40625-.125.0625.28125.09375.4375.15625.71875 2.03125-.59375 3.03125-.90625 5.03125-1.5-.03125-.3125-.0625-.46875-.09375-.8125.1875-.0625.28125-.09375.5-.15625 0 0 .40625 2.84375.46875 3 .15625.0625-2.625 2.25-2.625 2.25 1.28125-.03125 1.9375-.03125 3.21875-.0625.4375 1 .625 1.5 1.0625 2.53125-.15625.125-.25.1875-.40625.3125-.15625-.3125-.25-.4375-.40625-.75-1.90625.96875-2.84375 1.4375-4.78125 2.40625.09375.28125.15625.40625.25.6875-.21875.125-.28125.15625-.4375.25zm2.59375 4.5625c-.25-.28125-1.21875-2.09375-1.21875-2.09375s-.65625-1.15625.40625-2.75c.71875-1.09375 2.46875-2.46875 4.59375-1 .5625.9375.8125 1.40625 1.375 2.3125 0 0 .5 1.96875-1.0625 3.40625-1.125 1-3.09375 1.28125-4.09375.125zm4.5 5.46875c.4375-1.96875.65625-2.96875 1.0625-4.9375-1.09375 1-1.65625 1.46875-2.78125 2.46875.1875.21875.28125.34375.5.59375-.125.125-.1875.1875-.3125.28125-.5625-.625-.84375-.96875-1.375-1.59375.15625-.125.25-.1875.40625-.3125.1875.21875.28125.34375.5.59375 1.59375-1.5 2.40625-2.21875 4-3.6875-.15625-.15625-.25-.21875-.40625-.34375.15625-.15625.25-.21875.40625-.375.625.6875.90625 1 1.53125 1.6875-.4375 1.96875-.625 2.96875-1.0625 4.9375.96875-1.09375 1.46875-1.625 2.40625-2.6875-.15625-.1875-.25-.28125-.40625-.46875.125-.15625.1875-.21875.3125-.375.46875.4375.71875.6875 1.1875 1.125-.09375.1875-.15625.25-.25.4375-.15625-.15625-.25-.21875-.40625-.375-1.5 1.75-2.25 2.625-3.78125 4.375-.59375-.53125-.90625-.8125-1.53125-1.34375zm8.4375-.53125c-.53125.75-.8125 1.125-1.34375 1.875l.625.46875c.125-.125.1875-.21875.3125-.34375.15625.09375.25.15625.40625.25-.3125.53125-.46875.8125-.78125 1.34375-.15625-.0625-.25-.09375-.40625-.15625.125-.25.1875-.34375.3125-.59375-.28125-.1875-.4375-.28125-.71875-.46875-.59375.71875-.90625 1.09375-1.53125 1.8125 0 0 1.03125.84375 2 1.09375.15625-.28125.25-.40625.40625-.6875.1875.125.28125.1875.46875.34375-.3125.5-.46875.75-.78125 1.25 0 0-4.15625-2.875-4.65625-3.375.09375-.125.15625-.21875.25-.34375.1875.15625.28125.21875.46875.375 1.25-1.71875 1.875-2.5625 3.125-4.28125-.15625-.15625-.25-.25-.40625-.375.09375-.1875.15625-.25.25-.4375 0 0 2.25 2.0625 4.34375 3.125-.34375.5625-.53125.84375-.84375 1.40625-.15625-.09375-.25-.125-.4375-.21875.125-.28125.1875-.40625.34375-.6875 0 0-.78125-1.15625-1.40625-1.375zm5.34375 8.84375c-1.65625-.5-2.4375-.75-3.9375-1.34375.0625-.15625.09375-.25.15625-.4375l.78125.3125c.84375-1.9375 1.28125-2.9375 2.15625-4.96875 0 0-1.1875-.25-1.53125-.0625-.15625.15625-.21875.21875-.34375.375-.1875-.09375-.25-.125-.4375-.21875.28125-.5625.40625-.84375.6875-1.40625 0 0 4.25 1.78125 6.78125 2.0625-.1875.59375-.3125.90625-.5 1.53125-.28125-.03125-.40625-.0625-.6875-.09375.09375-.25.125-.375.1875-.625 0 0-1.375-.71875-1.46875-.78125-.96875 2.0625-1.4375 3.0625-2.375 5.03125.3125.0625.4375.125.75.1875-.09375.1875-.125.28125-.21875.4375zm10.71875.75s-4.8125.0625-5.21875.03125c0-.125 0-.1875 0-.34375.5-.03125.75-.0625 1.21875-.09375-.09375-.53125-.125-.78125-.1875-1.3125-1.3125-.09375-1.96875-.125-3.25-.25-.40625.46875-.59375.71875-1 1.1875.28125.0625.40625.09375.6875.15625-.125.15625-.1875.21875-.28125.375-.8125-.15625-1.21875-.25-2.03125-.4375.0625-.15625.125-.21875.1875-.34375h.6875c1.71875-2.09375 2.59375-3.125 4.40625-5.3125 1.125.09375 1.6875.125 2.8125.21875.59375 2.34375.875 3.40625 1.46875 5.65625.21875-.03125.3125-.0625.53125-.09375-.03125.28125-.03125.375-.03125.5625zm7.71875-1.125c-.21875-.03125-.75-.28125-.75-.34375 0-.09375-.09375-1.78125-.09375-1.78125s-.3125-.4375-.4375-.34375c-.09375.03125-1.5.25-1.5.25-.0625.9375-.0625 1.40625-.125 2.3125.25-.03125.375-.0625.65625-.125.03125.1875.0625.28125.09375.46875 0 0-4.59375.625-4.71875.625-.09375.03125 0-.5 0-.5.3125-.0625.4375-.0625.75-.125.125-2.03125.21875-3.0625.34375-5.09375-.3125 0-.4375.03125-.75.03125-.03125-.1875-.0625-.28125-.09375-.5 0 0 4.9375-.46875 6.875-.96875 0 0 .625-.125.96875-.09375.3125-.0625 1.46875.3125 1.46875 1.28125s-1.59375 1.90625-1.59375 1.90625 1.15625.4375 1.15625 1.28125c.09375.3125 0 .40625 0 .40625s.09375-.03125.09375.0625c.21875.125.84375 0 .84375 0l.09375-.09375c.09375.1875.125.28125.21875.46875 0 .0625-3.3125.84375-3.5.875zm11.90625-9.6875c-.65625 1.46875-1 2.21875-1.65625 3.6875.28125.84375.40625 1.25.65625 2.09375.3125-.09375.46875-.125.78125-.21875.0625.15625.125.21875.1875.375-1.75.65625-2.65625 1-4.53125 1.6875-.09375-.125-.125-.1875-.1875-.28125.375-.15625.5625-.25.90625-.40625-.28125-.84375-.40625-1.25-.6875-2.09375-1.5-.65625-2.25-.96875-3.8125-1.59375-.25.0625-.375.125-.625.1875-.03125-.1875-.0625-.28125-.09375-.46875 2.03125-.625 3.03125-.9375 4.96875-1.5625 0 0 .1875.3125.1875.375 0 .09375-.71875.125-.59375.28125 0 .09375 2.28125 1.0625 2.28125 1.0625s1.375-2.375 1.28125-2.71875c-.21875.09375-.34375.15625-.59375.28125-.0625-.15625-.125-.21875-.1875-.375.875-.40625 1.28125-.625 2.125-1.03125l.28125.28125c-.28125.15625-.4375.25-.6875.4375zm7.15625 1.8125c-.125-.15625-.1875-.21875-.3125-.375.21875-.1875.3125-.28125.53125-.5-1-1.625-1.46875-2.4375-2.53125-4.03125-.3125.1875-.46875.28125-.75.46875-.0625-.125-.09375-.1875-.15625-.3125 0 0 3.9375-3 4.71875-4.21875.40625.4375.625.65625 1.0625 1.0625-.1875.1875-.28125.3125-.4375.5-.21875-.15625-.3125-.25-.53125-.40625 0 0-1.3125.5625-1.84375 1.25.46875.71875.6875 1.09375 1.1875 1.8125.3125-.28125.4375-.4375.75-.71875-.09375-.1875-.15625-.28125-.25-.46875.21875-.15625.3125-.25.53125-.4375.40625.4375.625.65625 1.09375 1.09375-.21875.21875-.34375.3125-.53125.53125-.15625-.15625-.21875-.21875-.34375-.375-.34375.28125-.53125.4375-.875.71875.46875.6875.71875 1.03125 1.21875 1.75.25-.21875.375-.3125.625-.53125.15625.15625.21875.21875.375.34375-1.59375 1.21875-2.3125 1.78125-3.53125 2.84375zm11.71875-10.34375c-.21875.21875-2.5 2.4375-2.5 2.4375s-1.09375.71875-1.65625.8125c-.4375.09375-1.28125-.03125-1.46875-.25-.3125-.125-3.3125-2.28125-3.3125-2.28125-.1875.1875-.28125.3125-.4375.5-.09375-.125-.15625-.1875-.28125-.28125 1.0625-1.28125 1.625-1.90625 2.8125-3.21875.1875.125.3125.1875.5.34375-.1875.21875-.3125.3125-.5.53125 1.3125.90625 2 1.34375 3.46875 2.25 0 0 .875.25 1.65625-.3125.78125-.5 1.375-.96875 1.125-1.65625-.21875-.625-.46875-.59375-.6875-.71875-.34375-.09375-3.625-1.78125-3.625-1.78125-.21875.28125-.3125.40625-.53125.6875-.21875-.125-.3125-.1875-.5-.3125.5625-.71875.875-1.09375 1.46875-1.8125.21875.09375.3125.15625.53125.25-.1875.25-.25.34375-.4375.59375 1.46875.71875 2.21875 1.0625 3.78125 1.75 0 0 .9375.84375.9375 1.4375-.125.5625-.21875.90625-.34375 1.03125zm6.78125-8.4375c-2.96875.875-4.40625 1.34375-7.15625 2.1875 1.5.53125 2.25.8125 3.8125 1.3125.25-.34375.375-.53125.59375-.875l.625.15625c-.75.875-1.09375 1.34375-1.84375 2.21875-.1875-.0625-.28125-.09375-.5-.15625.25-.3125.375-.46875.59375-.78125-2.46875-.6875-3.6875-1.03125-5.9375-1.75-.21875.25-.34375.375-.53125.625-.1875-.0625-.25-.09375-.4375-.15625.59375-.9375.90625-1.40625 1.53125-2.34375 2.6875-.9375 4.125-1.40625 7.09375-2.375-1.78125-.28125-2.65625-.4375-4.34375-.71875-.1875.28125-.28125.40625-.46875.6875-.21875-.0625-.34375-.09375-.59375-.15625.46875-.78125.6875-1.15625 1.15625-1.9375.25.03125.34375.03125.59375.0625-.15625.28125-.21875.40625-.34375.65625 2.875.4375 4.40625.65625 7.5 1.0625-.5.90625-.78125 1.34375-1.34375 2.28125zm2.53125-4.125c-.3125 0-.46875-.03125-.75-.03125.15625-.375.21875-.5625.375-.90625-2.9375-.15625-4.40625-.21875-7.1875-.375-.15625.3125-.21875.4375-.34375.75-.25-.03125-.34375-.03125-.59375-.0625.78125-2.0625 1.1875-3.09375 2.03125-5.15625 0 0 1.4375-2.40625 4.84375-2.5 2.90625-.09375 4.09375 1.40625 3.96875 2.46875-.0625.96875-2.34375 5.8125-2.34375 5.8125zm.3125-13.375c.40625.6875.625 1.03125 1.03125 1.6875-.96875-.3125-1.46875-.46875-2.4375-.78125-1 .6875-1.53125 1.03125-2.5 1.71875.40625-.84375.59375-1.28125 1-2.15625-.90625-.3125-1.34375-.46875-2.25-.78125 1.125-.21875 1.71875-.3125 2.875-.53125.40625-.8125.625-1.1875 1.03125-2 .3125.6875.46875 1 .75 1.6875 1.15625-.1875 1.75-.3125 2.9375-.5-.96875.71875-1.46875 1.03125-2.4375 1.65625zm1.6875-8.125c-.15625-.3125-.21875-.46875-.375-.75-3.03125 1-4.53125 1.53125-7.40625 2.5625 0 0 .375 1.65625.96875 1.71875.4375-.09375.65625-.125 1.125-.21875v.5625c-.90625.25-1.34375.40625-2.21875.65625 0 0-1.3125-5.125-1.78125-5.34375.1875-.09375.28125-.15625.46875-.25.1875.25.28125.40625.46875.65625 2.90625-1.03125 4.4375-1.5625 7.5-2.59375-.09375-.3125-.15625-.46875-.25-.78125.25-.0625.375-.125.625-.1875.65625 1.46875 1 2.21875 1.65625 3.6875-.3125.09375-.46875.15625-.78125.28125zm-43.03125 46.9375s.21875.125.3125.1875c0 .15625-.125 1.75-.125 1.75s0 .25-.21875.375c-.21875.03125-1.71875.28125-1.71875.28125.09375-.9375.125-1.40625.21875-2.34375.625-.09375.9375-.125 1.53125-.25zm33.4375-53.21875c-.5-.5625-.75-.84375-1.25-1.40625 1.46875-.40625 2.25-.625 3.78125-1.03125-1 .96875-1.5 1.46875-2.53125 2.4375zm-65.03125 41.96875c-.09375.09375-1.15625 1.0625-2.875 2.1875 0 0-.75.5-1.21875.09375 0 0-.40625-.34375-.40625-.5-.09375-.15625-.15625-.3125 0-.65625.15625-.28125.15625-.5.59375-.8125.40625-.3125 2.0625-1.5 2.0625-1.5s.75-.5.96875-.375c.3125.03125.5.09375.5625.15625.15625.125.25.375.25.375s.46875.46875.0625 1.03125zm19.8125 13.09375c.28125 1 .4375 1.5.71875 2.46875-1.125-.125-1.65625-.1875-2.75-.3125.8125-.875 1.21875-1.28125 2.03125-2.15625zm53.6875-32.625c.78125-.0625.5.4375.5.4375-.1875.53125-.3125.8125-.5 1.375 0 0-7.375-.28125-7.375-.375 0 0 .125-.625.25-1.0625.25-.46875.84375-.40625.84375-.40625s5.5-.03125 6.28125.03125zm0 0" fill="#fff"/></svg>