<svg xmlns="http://www.w3.org/2000/svg" width="1006" height="1024" viewBox="0 0 1006 1024">
  <defs>
    <style>
      .cls-1 {
        fill: #ff0545;
        fill-rule: evenodd;
      }
    </style>
  </defs>
  <path id="Color_Fill_1" data-name="Color Fill 1" class="cls-1" d="M548,46c2.837-.293,4.364-0.666,6-2,1.65-1.79,1.746-2.512,2-6-1.988-2.151-2.666-5.148-5-7-6.263-4.977-8.976,1.422-14,3-13.852-19.9-57.593-1.106-68,8-4.681,4.1-7.657,10.611-14,13-0.325-5.765-1.982-6.944-8-7-3.5,4.658-5.169,5.813-5,15,5.057,2.62,7.593.832,8,7-1.344,1.681-1.637,3.143-2,6h-3c-1.708,2.725-2.536,2.5-3,7a6.234,6.234,0,0,0,1,6c-0.553-8.477-.441-12.087,8-12v1h1c1.071,7.69.217,9.572-4,14-2.631-.759-2.385-1.2-5-2v1h1v1c2.4,0.88,3.707.76,5,3,3.267,4.843-.5,6.992-1,14,1.523,1.506,2.234,4.843,4,6,4.813,3.153,6.433-2.355,9,4,2.71,6-4.38,10.716,5,17,3.82,2.751,6.891-.295,10,1l2,1c-1.4,5.1-2.057,6.963,0,12,3.516,2.288,4.425,4.427,10,5,3.36,1.534,6.057-1.948,10-3v1h1v8c3.3,1.435,2.985,3.009,7,4,4.2,3.406,8.069.9,13,0v7l6,5c23.4,1.726,30.537-19.4,46-31,24.047-18.046,50.138-33.655,83-43,6.6-1.878,10.954-.411,18-2,9.319-2.1,28.847-4.759,41-2,23.948,5.437,38.868,11.867,55,24,6.985,5.254,16.91,22.812,23,26,7.746,4.055,17.473,3.941,25,8,22.459,12.112,63.08,53.025,53,93-9.8,38.853-41.362,56.06-64,82-2.677,3.067-7.646,10.436-7,16,0.239,2.057,2.192,8.385,1,12-1.891,5.736-8.06,8.208-12,12-25.478.237-29.643-27.013-21-47,12.85-29.717,64.154-43.883,72-72h2c0.344,3.542.435,4.609,3,6,2.347,1.544,4.281.586,7,0,1.88-4.779,3.9-6.577,4-14-2.744-1.939-2.02-2.677-7-3-1.671,2.766-3.282,5.1-7,6v-2c2.984-4.548-.64-11.737-2-15-4.864-11.667-12-22.641-22-29v3c6.612,10.2,2.194,41.313-1,51-8.334,25.279-19.986,36.339-46,44-6.6,1.943-17.337,3.675-25,2H733c-6.416-1.6-14.785-3.163-21-6-31.865-14.548-60.709-67.855-38-111,5.846-11.106,18.529-21.465,30-27,3.949-1.906,8.663-1.656,12-4-13.2-2.379-19.523-8.17-36-5v-2c2.273-2.31,2.87-4.349,3-9-3.472-3.3-4.5-4.189-12-4-1.359,1.262-1.768,1.365-4,2-2.09,4.806-4.147,5.683-3,12,3.172,1.4,8,1.952,10,3-12.77,7.791-24.708,18.054-38,25q-0.5-5-1-10c-2.9-.836-2.574-1.391-6-2-4.494,5.186-8.1,4.4-8,15,2.542,1.372,3.5,1.917,8,2v3c-10.538,4.747-15.063,20.218-23,28,0.631,1.754.193,0.971,1,2,3.027,4.253,7.775,5.9,12,9a321.286,321.286,0,0,1,26,22c27.519,25.334,69.308,86.556,54,147-2.811,11.1-5.513,23.624-10,34-6.337,14.653-15.744,30.721-26,42-5.391,5.929-13.468,10.335-18,17h3c6.46-4.179,16.868-2.833,24-6a141.619,141.619,0,0,0,34-22c30.131-26.641,51.857-64.65,93-80,23.739-8.857,64.58-9.267,90-2,49.954,14.281,90.225,37.29,109,82,4.08,9.726,5.54,21.142,8,32,3.45,15.245-1.01,35.54-4,46-12.624,44.089-33.99,67.755-74,84-59.062,23.98-115.774-11.624-130-56-3.907-12.186-2.3-26.494-2-40,3.352-2.813,5.242-7.661,9-10,12.223-7.61,34.567-8.017,34,12h-1c-1.667-1.938-1.439-1.668-5-2-3.735,6.068-4.09,10.263-2,18,4.021,1.457,5.112.192,6,4,0.8,1.18.773,1.681,1,4h-3c-6.837,11.668-.016,16.523,7,23,2.631-.759,2.385-1.2,5-2,0.759,2.631,1.2,2.385,2,5-1.938,1.667-1.668,1.439-2,5,5.4,5.938,5.167,12,17,12,4.3-3.808,11.957,4.032,21,2,13.406-3.013,27.635-5.589,38-12,33.391-20.652,58.855-65.3,35-113a88.038,88.038,0,0,0-16-22c-3.585-3.511-8.576-4.184-10-10,5.306-1.622,6.287-4.719,6-12-8.683-6.746-12.285-11.138-29-11a22.609,22.609,0,0,1-6,5v8l-13-2c1.108-5,6.707-8.656,5-13a9.979,9.979,0,0,0-5-7c-8.254-7.053-27.255-2.214-30,6-4.908,7.682,5.645,10.154,8,14h-1c-8.774,5.7-15.986-6.937-29-1-9.562,4.362-4.931,15.99-9,19-1.334-5.567-4.359-7.719-11-8-6.561,4.921-14.513,4.776-15,16a6.234,6.234,0,0,0,1,6c1.807,4.832,5.557,4,7,9-2.773,2.2-3.575,5.376-7,7-2.337-3.491-5.2-4.861-11-5-4.574,4.117-10.715,4.41-13,11-3.659,4.292-1.649,12.224,2,15,3.209,2.607,6.572,1.634,11,1v2c-5.721,4.708-6.472,15.206-14,18,2.087-9.667-.754-16.26-12-16-8.14,7.044-14.359,5.613-14,22,0.8,1.021.355,0.274,1,2,3.694,2.322,6.088,3.124,13,3,2.1-2.042,5.279-3.646,8-5v3c-10.94,7.489-18.033,26.5-33,29v-1c5.1-3.235,6.263-7.206,6-16-1.685-1.271-2.316-2.729-4-4-3.043-2.345-4.416-1.371-9-1-4.96,6.216-10.013,7.1-10,19,4.523,3.667,3.895,6.1,13,6,0.087-.1,1.313-2.886,2-2v1h1q-0.5,1-1,2l-15,9c1.021,0.8.274,0.355,2,1,4,3.691,10.112,4.063,15,7,10.211,6.136,21.17,12.1,31,19,39.82,27.96,70.946,67.306,86,120,10.274,35.963,3.06,81.6-10,108-28.315,57.238-73.93,92.863-136,116-11.973,4.463-25.386,6.866-38,10l-17,1c-4.328,1.573-5.909,7.113-9,10-8.429,7.873-18.456,16.6-28,23-21.766,14.607-47.648,25.25-75,34-16.246,5.2-34.716,5.17-52,9H476c-22.382,0-42.012-1.22-59-6-13.426-3.78-24.3-4.11-36-9-58.354-24.41-97.687-66.62-116-131-5.089-17.891-3.97-39.66-4-62h-1c-7.086,4.511-18.468,1-28,3-18.5,3.887-42.3.755-58-4-49.785-15.079-73.323-44.725-89-94-4.7-14.768-8.785-43.522-4-63,1.868-7.6,3.113-17.13,6-25,21.956-59.846,70.058-96.321,130-118,21.1-7.629,43.745-11.92,65-18,7.832-2.24,17.2-.818,23-5-11.553-9.256-27.2-35.816-36-49-2.073-3.108-8.722-17.807-11-19H234c-10.985-6.872-23.234-2.613-30-15-10.186,3.436-31.116,1.173-40-1-27.148-6.64-44.213-11.343-57-32-4.362-7.047-8.145-16.185-11-24-1.4-3.823-.958-8.031-3-11-1.851-.359-1.593.583-2-3,1.882-2.038,2-3.835,2-8-3.742-2.484-4.736-4.53-11-5-10.461,7.116-20.36,6.671-20,25,1.77,1.028,11.186,5.686,12,7-3.1,2.082-4.565,5.37-8,7v1H65c-1.06-4.622-2.532-6.594-8-7-11.024-5.192-21.625,15.745-21,26,4.361,3.16,5.76,5.056,14,5-0.435,4.4-2.726,11.239-6,13-2.275-3.7-3.774-4.99-10-5-8.923,9.056-12.372,14.529-8,31l6,5,7-1,1,22H38c-2.239-1.4-3.276-.545-6,0-3.134,6.805-7.331,20.472,2,25,1.919,1.772,3.136,1.9,7,2,1.675-2.614,2.165-3.314,6-4,5.585,25.331,42.283,50.592,72,32,11.867-7.425,23.146-29.235,16-49-3.3-9.14-10.849-13.746-17-20-19-1.323-38.486,2.736-40,21-7.721,11.174,8.791,26.13,19,26,6.109-5.723,11.8-8.041,12-20-4.5-1.8-8.957-2.378-10-8a29.369,29.369,0,0,0,6-4,59.021,59.021,0,0,1,17,2c0.894,3.076,1.584,2.958,2,7,3.389,5.13-.473,14.485-2,18-4.622,10.643-14.032,25.9-33,21-14.9-3.849-28.419-13.792-33-28-3.957-12.272,1.1-25.565,5-33,14.513-27.635,45.229-38.7,77-19,23.045,14.29,41.874,59.914,22,92-20.011,32.308-66.256,43.83-106,22C30.705,524.205,12.072,499.9,4,472c-14.789-51.106,4.79-112.314,26-141,9.607-12.993,25.505-26.088,40-34,5.867-3.2,17.663-4.406,21-10,2.178-3.352.683-7.212,2-12,2.9-10.53,5.219-23.243,10-33,16.747-34.178,38.538-57.823,66-81,14.353-12.113,38.4-20.859,58-28,10.225-3.725,23.333-7.148,35-10,27.785-6.792,66.09-1.017,88,6,70.807,22.678,117.975,56.984,151,117h1c2.288-10.756,9.11-18.825,12-29-13.9-8.668-26.715-20.5-39-31-23.73-20.292-45.258-34.212-60-64-22.079-44.612,2.341-88.722,32-107C492.652-13.133,565.141-.414,579,48c6.535,22.829-4.939,46.381-12,60-4.174,8.052-3.612,13.934-16,14-2.11-1.912-5.827-2.073-8-4-2.021-1.792-3.035-5.094-5-7-1.048-12.2,3.315-16.337,7-25q2.5-9.5,5-19c2.712,1.345,4.7,2.99,7,2,2.684-.891,2.589-1.028,4-3,3.781-4.275,1.939-13.612-3-15-3.37-.947-7.221,2.924-8,3C548.336,51.931,548.09,49.845,548,46ZM493,4c-3.229,2.218-10.356,2.561-14,4V9h2c10.027-6.149,31.227,4.357,40-1C512.659,5.9,505.288,4.016,493,4Zm50,28h6l1,3c1.48,1.906,1.85,3.319,1,5-1.475,2.542-2.119,2.007-6,2C542.82,38.705,541.309,36.892,543,32ZM449,49c5.449,1.347,5.391,4.089,5,11-0.8,1.021-.355.274-1,2-2.542,1.372-3.5,1.917-8,2l-1-3c-2.042-3.135.123-6.692,1-10C447.245,50.413,447.655,50.252,449,49Zm106,4c2.963,0.829,2.733.443,4,3,1.737,2.505.664,6.033-1,8-1.295.877-2.467,0.894-5,1-0.85-2.448-1.039-6.184-1-10A10.943,10.943,0,0,0,555,53ZM430,66c-3.679,3.845-5.915,5.134-6,13,1.724,1.733,1.5,2.783,4,4,1.073,0.752.946,0.6,3,1,1.912-1.615,3.488-1.89,5-4,3.78-4.509,1.252-10.3-1-14h-5Zm-3,16a51.119,51.119,0,0,1,0-12c1.766-.962,1.68-1.257,4-2,2.583-1.5,3.66-.721,5,2,1.9,2.814.506,6.665,0,10C432.968,81.129,431.953,81.936,427,82Zm133-8c-2.734,4.221-4.851,5.643-5,13,2.2,1.664,2.026,2.836,5,4,2.24,1.4,3.276.545,6,0,1.684-3.6,3.327-6.163,4-11C566.583,76.237,567.655,74.083,560,74Zm0,2h4c1.372,2.542,1.917,3.5,2,8-2.379,2.243-1.752,3.174-6,4A11.354,11.354,0,0,1,560,76ZM433,91c-1.928,1.949-3.7,2.245-5,5-3.6,3.83-1.185,9.52,0,14,3.086,1.947,3.43,2.887,9,3C442.442,106.5,447.417,92.846,433,91Zm0,2h3c1.285,1.834,1.968,1.712,3,4,2.006,2.906.71,8.911,0,12a16.531,16.531,0,0,1-8,2l-1-3C425.127,102.122,429.668,96.405,433,93Zm118,0c-1.073.752-.946,0.6-3,1-3,4.568-5.024,5.7-5,14,2.919,1.838,2.9,2.739,8,3,1.021-.8.274-0.355,2-1,3.143-4.709,5.4-6.884,4-14C554.8,94.741,553.945,93.82,551,93Zm-2,2h4c1.3,2.418,1.8,2.833,2,7-0.8,1.021-.355.274-1,2a18.068,18.068,0,0,0-4,3c-1.754-.631-0.971-0.193-2-1-2.584-1.5-2.115-3-2-7A19.092,19.092,0,0,0,549,95Zm-96,5h3c2.516,3.881,3.984,4.934,4,12a18.068,18.068,0,0,0-4,3c-1.754-.631-0.971-0.193-2-1-4.306-1.582-5.091-5.066-5-11A18.068,18.068,0,0,0,453,100Zm251,10c-1.724,2.46-3.938,5.614-6,8q0.5,2.5,1,5c9.237,3.328,21.189,7.254,23-7-0.8-1.021-.355-0.274-1-2C716.091,111.027,712.929,109.866,704,110Zm-24,1c-3.9,2.906-7.665,2.246-9,8-1.049,1.549-1.031,4.085-1,7,3.846,2.413,6.82,3.141,14,3,1.359-1.262,1.768-1.365,4-2,3.921-8.644,6.245-8.376-1-16h-7Zm27,0c5.72,0.14,7.67,1.8,12,3v7c-4.487,2.246-8.265,3.1-16,3-1.372-2.542-1.917-3.5-2-8a35.383,35.383,0,0,1,3-3C704.771,112.318,706.232,111.689,707,111Zm-28,2,10,1v8c-3.065,2.154-8.043,6.916-12,5-5.006-.779-5.14-2.259-5-8,0.8-1.021.355-.274,1-2A29.369,29.369,0,0,0,679,113Zm57,1c-4.753,4.264-8.459,4.905-7,13,4.361,2.577,7.6,5.133,14,6,1.444-1.341,3.265-.683,5-2,1.616-1.227,2.517-4.517,4-6C750.268,117.663,744.507,114.407,736,114Zm-292,1c-2.179,2.27-3.77,2.507-5,6-1.049,1.549-1.031,4.085-1,7,3.931,4.282,4.052,8.371,12,9,3.355-4.46,5.132-5.245,5-14C450.948,119.764,450.641,116.051,444,115Zm0,2,5,1c0.961,1.766,1.257,1.68,2,4,2.71,3.321,1.665,7.432,1,12h-2c-2.24,1.4-3.276.545-6,0C439.151,126.3,438.616,124.329,444,117Zm290,0c8.986-.5,14.8.375,15,9-0.8,1.021-.355.274-1,2-7.648,2.282-16.507,3.554-18-6A26.36,26.36,0,0,0,734,117Zm-270,4h6c2.652,4.362,4.071,6.155,4,14a21.509,21.509,0,0,1-7,1C463.591,131.2,460.313,127.838,464,121Zm187,1c-3.488,4.044-7.281,3.719-8,11-0.589.962-.107,1.913,0,5,3.393,2.14,4.685,3.054,11,3,1.359-1.262,1.768-1.365,4-2C663.392,131.669,668.281,121.2,651,122Zm3,1,6,1a25.086,25.086,0,0,1,1,8c-4.712,4.839-7.978,8.707-16,5-0.257-3.2-.994-3.191,0-5C646.208,125.565,650.141,126.413,654,123Zm42,5c-2.047,1.948-4.308,2.6-6,5-1.521,1.9-1.789,3.59-2,7,3.711,2.539,3.608,4.643,10,5,5.58,3.818,12.308-2.881,13-8h1c0.99-1.01-.985-0.988-1-1-0.715-2.84-1.083-3.49-3-5C705.053,128.548,701.56,127.971,696,128Zm61,0c-3.055,3.772-5.634,2.968-6,10,5.409,5.322,6.526,9.155,18,9,2.471-3.3,4.433-3.335,5-9C769.046,132.82,767.334,128.151,757,128Zm2,2c3.5,0.4,4.912,1.257,8,2,2.512,3.746,3.975,4.065,4,11h-1v1c-4.665.463-5.678,0.222-11,0-3.126-3.9-5.007-3.232-5-11A30.978,30.978,0,0,0,759,130Zm-65,1h12c1.947,3.086,2.887,3.43,3,9-2.67.979-1.718,1.282-5,2-3.973,2.957-7.574,1.129-12,0-0.836-2.9-1.391-2.574-2-6A26.36,26.36,0,0,0,694,131Zm30,0c-1.18.8-1.681,0.773-4,1-2.867,3.8-4.862,3.859-5,11a50.613,50.613,0,0,1,8,6,50.073,50.073,0,0,0,11-1c2.234-3.453,3.741-4.022,4-10A54.988,54.988,0,0,0,724,131Zm-1,2c4.7,0.235,7.555,1.532,11,3a16.935,16.935,0,0,1,2,6c-3.916,3.694-6.622,4.254-15,4-1.285-1.834-1.968-1.712-3-4-1.342-2.329-.092-4.423,1-7A17.682,17.682,0,0,0,723,133Zm-57,15a42.859,42.859,0,0,1,0-9l2-1c3.155-2.756,8.672-3.675,12-1,1.049,1.549,1.031,4.085,1,7-3.773,1.6-3.672,3.409-9,4C669.859,149.221,669.23,148.388,666,148ZM261,137c-1.3.877-2.467,0.894-5,1-4.566,5.686-8.131,5.735-8,17a50.613,50.613,0,0,1,8,6c8.726,0.187,13.327-1.416,19-3,2.353-4.6,4-6.3,4-14-2.2-1.664-2.026-2.836-5-4C271.272,137.514,266.175,137,261,137Zm368,1c-4.694,4.542-8.824,6.666-10,15,2.43,2.5,4.654,5.474,7,8,1.754-.631.971-0.193,2-1,5.244-1.252,9.5-4.875,10-11C641.536,143.606,635.189,137.964,629,138Zm-171,1c-3.106,3.736-4.145,5.437-4,13,4.637,4.677,6.464,8.648,15,7,1.225-2.281,1.638-2.251,2-6,1.2-2.113.311-3.431,0-7-3.862-1.84-4.147-4.814-9-6C460.82,139.2,460.319,139.227,458,139Zm23,0h6c3.68,4.563,6.866,4.216,7,13-2.542,1.372-3.5,1.917-8,2C481.218,148.9,475.42,149.182,481,139Zm-183,1c-3.378,2.9-8.647,5.236-10,10-3.838,13.515,20.225,16.93,28,11C329.86,150.429,313.521,139.225,298,140Zm332,0,5,1v2c5.372,7.426-3.278,15.332-11,15-1.043-3.528-1.974-5.533-2-11C624.647,145,627.389,142.289,630,140Zm-373,1c4.279-.154,11.387-0.744,14,1,4.121,1.268,4.9,2.619,5,8-1.262,1.359-1.365,1.768-2,4-8.8,2.858-10.5,4.734-21,2-0.894-3.076-1.584-2.958-2-7A98.968,98.968,0,0,0,257,141Zm202,0h4c2.484,3.029,8.154,7.536,6,12-0.731,4.735-1.68,4.945-7,5-3.4-4.442-6.666-4.961-7-13A21.612,21.612,0,0,0,459,141Zm-232,2c-3.185,2.1-7.872,1.863-11,4-2.614,1.785-3.817,5.719-6,8a50.073,50.073,0,0,0,1,11c7.644,4.85,22.071,4.424,26-5,3.325-3.579,2.483-7.617,2-13-3.091-2.057-2.926-3.46-8-4C229.82,143.2,229.319,143.227,227,143Zm72,0c7.817-.378,15.549.871,17,7,1.342,2.329.092,4.423-1,7-6.461,3.193-13.547,2.994-21,1-0.736-3.024-1.464-3.527-2-7C294.5,148.028,296.339,145.683,299,143Zm351,3c-3.347,4.193-6.614,4.331-7,12,1.834,1.285,1.712,1.968,4,3,2.5,1.41,4.813-.179,8-1,2.288-3.516,4.427-4.425,5-10a19.089,19.089,0,0,1-3-4h-7Zm-427,1h11c0.973,3.3,1.85,4.127,2,9-3.338,3.415-6.624,6.639-10,10a50.073,50.073,0,0,1-11-1c-0.806-3.267-1.627-3.889-2-8a11.725,11.725,0,0,0,2-5Zm428,0h6v2c0.877,1.295.894,2.467,1,5-3.819,3.8-3.8,6.031-12,6-0.587-2.245-.748-2.655-2-4,0.631-1.754.193-.971,1-2C646.272,149.383,648.178,149.7,651,147Zm-148,4h9c3.164,4.091,5.074,3.93,5,12-2.448.85-6.184,1.039-10,1-1.96-2.515-3.722-2.522-5-6-0.8-1.18-.773-1.681-1-4A11.568,11.568,0,0,0,503,151Zm247,1c-6.326,4.568-16.931,3.255-25,6-20.2,6.872-45.52,17.785-47,43,1.886,1.606,2.428,2.892,5,4v1h1c0.289-33.107,37.193-43.337,63-51,6.41-1.9,19.239.553,25-3H750Zm-270,5c-3.872,3.153-5.8,2.774-6,10,2.388,2.557,2.162,4.595,6,6,2.908,2.964,8.528,3.854,12,1,1.151-1.172,1.839-2.836,3-4q-1-3.5-2-7C488.764,160.312,486.26,158.294,480,157Zm93,0c-16.02,16.3-44.734,32.851-45,64h1v1c1.754-.631.971-0.193,2-1,15.808-5.1,25.328-29.663,33-44C566.429,172.461,575.047,162.067,573,157Zm-94,2c5.8,0.041,8.672,1.578,11,5,1.664,2.069,1.91,4.155,2,8-2.542,1.372-3.5,1.917-8,2C478.593,169.364,473.568,168.779,479,159Zm-151,1c-6.7,5.956-10.939,5.35-10,17,7.2,4.792,9.842,8.115,23,8,4.889-4.6,8.137-4.815,8-15C342.745,165.228,339.066,160.463,328,160Zm-135,1c-1.008.693-4,1.287-5,2-8.348,2.032-13.2,8.2-13,19,1.311,1.788,2.066,5.9,4,7,12.125,6.881,24.563-8.55,24-21-1.262-1.359-1.365-1.768-2-4Zm331,1c2.9-.06,5.468-0.048,7,1,3.856,1.052,7.833,5.6,6,9-1.256,3.816-2.028,3.914-7,4-3.486-2.672-6.337-2.255-8-7-1.4-2.24-.545-3.276,0-6C523.754,162.369,522.971,162.807,524,162ZM209,200c-4.872.812-6.154,3.062-11,4q-0.5-4-1-8c-2.424-.906-1.59-1.069-4-2-1.295-.877-2.467-0.894-5-1-6.611,5.234-12.151,5.561-12,18,2.029,1.829,4.806,4.412,6,7-3.593,1.564-4.423,4.4-8,6-1.483-4.434-4.038-4.283-10-4-1.9,3.1-4.949,7.006-9,8-0.036-5.025-1.044-6.422-2-10-4.111-2.752-5.209-4.106-13-4-6.356,7.905-12.179,8.484-12,24,5.173,4.2,4.561,7.161,15,7,2.3-3.139,9.032-10.922,13-12,0.639,5.791,4.87,7.89,4,11-2.869,11.457-10.669,20.193-12,34l22,1c11.22-17.376,45.882-25.644,72-16,29.466,10.881,53.313,35.339,48,78,6.088,2.015,14.6,9.972,18,15,11.737-5.993,21.411-21.777,33-26v3c-1.544,2.347-.586,4.281,0,7a24.935,24.935,0,0,1,5,4c8.213-1.67,11.381-6.566,11-17a12.205,12.205,0,0,1-4-4,18.324,18.324,0,0,1,6-1,19.54,19.54,0,0,0,4,2c7.988,16.9-1.41,36.294-10,46-1.816,2.052-13.238,11.342-11,13,6.757,8.9,31.442,20.713,44,24,14.315,3.747,40.1-3.713,42-12-1.942-3.342.116-9.338-1-14-2.69-11.24-2.658-24.177-6-36-7.31-25.865-15.762-50.427-28-71-5.628-9.462-10.153-21.891-19-28v-3a30.439,30.439,0,0,0,7-1c2.068-3.211,3.542-3.7,4-9-6.153-6.944-6.183-13.142-20-13-1.655,2.281-5.416,6.731-8,8-5.782-8.451-24.809-15.189-28-23,14.658-9.665-5.9-21.62-19-21-1.359,1.262-1.768,1.365-4,2-1.44,3.441-3.144,3.585-4,8-13.638-.579-24.5-5.787-41-6v-2c5.091-2.483,7.819-6.607,8-14-3.066-2.548-5.78-6.679-10-8-11.165-3.494-25.847,6.028-22,17,1.316,3.754,6.1,4.562,8,8-4.956.444-11,1.453-15,3v-3c1.238-1.838,1.089-5.7,1-9-1.834-1.285-1.712-1.968-4-3-3.437-2.774-7.049-1.494-12-1-1.84,2.037-5.092,2.086-7,4C200.78,187.244,207.076,193.152,209,200Zm75-36c-1.742,1.648-3.93,1.5-6,3l-5,7a34.041,34.041,0,0,0,1,8c6.247,4.015,10.041,7.016,21,7,5.328-4.9,10-5.3,10-16C298.794,168.168,295.607,164.085,284,164Zm43,0c10.25-.442,18.739,2.3,19,12a35.383,35.383,0,0,1-3,3c-5.221,4.458-17.728,2.079-20-3C318.193,170.813,323.88,167.064,327,164Zm58,0c10.842,17.656,24.962,33.911,35,53,3.854,7.329,8.349,26.5,14,31,10.62,8.757,18.021-3.19,23-9-5.858-27.153-26.072-45.406-44-61C405.843,171.775,397.339,164.885,385,164Zm-196,1h8q0.5,1.5,1,3c1.65,1.79,1.746,2.512,2,6-5.7,6.353-5.232,12.136-18,12-1.708-2.725-2.536-2.5-3-7-0.829-1.66-.238-2.585,0-6A86.5,86.5,0,0,0,189,165Zm439,1h5q0.5,1.5,1,3c0.8,1.18.773,1.681,1,4-3.692,4.079-2.792,6.9-11,7-1.372-2.542-1.917-3.5-2-8,0.8-1.021.355-.274,1-2A24.935,24.935,0,0,0,628,166Zm-377,1c5.715-.066,11.128,1.084,13,5,1.641,2.526.471,4.756,0,8-4.417,1.765-5.321,3.782-12,4-2.064,1.161-4.18.254-8,0-2.14-3.393-3.054-4.685-3-11l6-5C249.328,167.805,249.826,167.807,251,167Zm32,1c7.74-.142,11.609,1.537,17,3,0.894,3.076,1.584,2.958,2,7-0.8,1.021-.355.274-1,2a24.935,24.935,0,0,0-5,4,107.567,107.567,0,0,1-15,0c-2.512-3.746-3.975-4.065-4-11Zm223,3c1.72,0.881,1.278.889,3,0h-3Zm-3,1c-1.782,3.043-2.781,3.841-3,9,5.049,5.027,8.463,8.965,18,7,2.142-3.408,4.145-6.057,1-10,0.207,7.043-.976,8.183-8,8-4.833-4.1-8.084-2.348-8-12a6.1,6.1,0,0,0,2-2h-2Zm8,0a33.684,33.684,0,0,0,8,5v-1C516.107,174.271,515.125,172.758,511,172Zm-292,6a34.041,34.041,0,0,1,8,1,28.9,28.9,0,0,1,1,9c-5.4,4.254-6.732,7.95-17,8-2.14-3.393-3.054-4.685-3-11,0.8-1.021.355-.274,1-2C211.7,181.516,216.338,180,219,178Zm-61,4c-3.862,3.384-9.109,5.727-12,10-6.692,9.89.877,21.184,12,21,4.6-5.485,20.205-14.5,11-27-1.16-1.575-4.539-2.594-6-4h-5Zm618,0c4.924,2.91,13.284,1.245,19,3,9.949,3.055,18.809,9.045,27,14C814.3,187.456,795.2,181.943,776,182Zm-619,4h7c1.225,2.281,1.638,2.251,2,6,3.512,5.471-3.458,14.579-8,16-2.453,1.659-5.25.616-8,0-1.046-4.045-2.517-5.024-3-10C150.574,194.131,153.448,189.776,157,186Zm558,35c-5.082-.623-5.323-1.176-10-1q-0.5,1-1,2c-2.774,3.437-1.494,7.049-1,12,1.834,1.285,1.712,1.968,4,3,1.624,1.5,2.023,1.552,5,2,1.785-2.045,2.74-3.225,6-4,6.1,25.822,47.067,41.93,62,13,8.237-15.958,1.563-58.357-14-60-8.032-3.964-35.726,7.339-41,11-4.407,3.059-6.388,9.083-10,13v9ZM345,188c-2.147,2.613-4.56,2.464-6,6-1.142,1.69-1.066,4.9-1,8,6.873,7.379,7.834,13.235,23,13,2.818-3.5,5.348-2.857,6-9,0.829-1.66.238-2.585,0-6-4.141-3.191-9.133-8.234-13-12h-9Zm-36,1c11.816-.576,20.7,1.011,21,12-1.834,1.285-1.712,1.968-4,3-4.192,3.916-12.289,1.231-17,0-2.379-3.549-3.857-3.585-4-10A10.315,10.315,0,0,0,309,189Zm36,3c2.9-.06,5.468-0.048,7,1,5.578,1.733,6.469,5.464,10,9v7c-3.415,2-4.94,2.988-11,3-3.733-3.376-8.106-3.564-10-9-1.48-1.906-1.85-3.319-1-5a21.42,21.42,0,0,1,2-5C344.076,192.628,343.924,192.758,345,192Zm267,0c-3.915,6.037-10.384,10.6-15,16-9.627,11.261-21.247,33.621-25,50h1v-2c5.126-6.248,6.975-14.637,11-22a295.622,295.622,0,0,1,17-27C603.985,202.753,612.129,195.806,612,192Zm-424,3h4c0.961,1.766,1.257,1.68,2,4,1.782,2.674.491,5.722,0,9-4.632,2.2-5.016,5.36-12,6-1.806-2.569-2.425-1.639-3-6-0.752-1.073-.6-0.946-1-3C181.366,201.084,184.359,198.532,188,195Zm614,1-5,7v11c4.033,3.04,4.257,4.989,12,5,3.133-4.915,5.059-7.2,5-16-0.8-1.021-.355-0.274-1-2l-6-5h-5Zm0,3h7c2.661,4.3,5.162,13.967-1,17-1.18.8-1.681,0.773-4,1a35.383,35.383,0,0,1-3-3C797.109,209.376,799.718,202.77,802,199Zm-674,9c-1.633,5.113-5.722,7.9-8,12a259.366,259.366,0,0,0-18,41c-15.939,46.226-2.559,113.513,28,132-2.572-4.274-6.481-7.918-9-12-13.788-22.337-24.894-65.909-16-103,4.528-18.882,8.944-37.337,16-54C122.85,219.632,129.29,211.812,128,208Zm14,9h5c4.592,6.713,5.37,19.778-4,23-3.174,2.492-5.436,1.5-9,0-1.731-3.626-2.87-5.254-3-11,1.93-2.018,2.265-4.67,4-7Zm23,5a30.439,30.439,0,0,1,7,1v2c1.869,2.837.4,6.248,0,10-3.8,2.867-3.859,4.862-11,5-0.961-1.766-1.257-1.68-2-4C155.094,230.162,162.289,224.737,165,222Zm542,0,5,1v1h1c0.623,5.082,1.176,5.323,1,10-2.281,1.225-2.251,1.638-6,2-2.092-3.312-3.592-4.515-4-10A19.089,19.089,0,0,0,707,222Zm-344,1h9c4.109,5.111,7.952,5.148,8,15-3.528,1.043-5.533,1.974-11,2-2.423-2.3-5.056-3.119-7-6C358.609,229.892,360.885,226.487,363,223Zm441,4c-2.9,4.472-4.955,6.043-5,14,3.306,2.566,3.707,5.036,9,6,3.8-4,5.934-5.853,6-14-2.515-1.96-2.522-3.722-6-5C806.82,227.2,806.319,227.227,804,227Zm0,2h5c2.14,3.393,3.054,4.685,3,11-2.589,3.172-1.315,4.446-7,5a11.568,11.568,0,0,0-3-2,47.641,47.641,0,0,1,0-13C803.754,229.369,802.971,229.807,804,229Zm43,16h3c1.372,2.542,1.917,3.5,2,8-2.773,3.411-1.592,4.745-8,5-1.372-2.542-1.917-3.5-2-8A22.418,22.418,0,0,0,847,245Zm-715,3c-6.8,6.393-12.051,9.326-12,23,4.217,4.528,5.088,8.858,13,10,2.3-2.249,6.091-3.4,8-6,1.726-2.353,2.054-4.984,4-7,0.141-3.671.435-8.875-1-11-1.009-3.621-2.47-5.782-6-7C136.21,248.35,135.488,248.254,132,248Zm499,0c16.173,19.51,38.641,39.414,46,67h1v-3c-3.451-3.921-3.389-8.955-6-14C665.284,285.025,644.325,252.655,631,248ZM514,258c-5.584-.194-12.656-0.329-16,2,24.884-.45,44.171,1.5,61,8-9.671-12.1-31.911-15.4-50-19v1h2c1.133,1.546,1.085.843,2,3C513.877,254.3,513.894,255.467,514,258Zm-381-6,6,1a18.068,18.068,0,0,0,3,4c0.649,12.465-.32,19.445-13,19a24.935,24.935,0,0,0-4-5C124.706,259.761,127.844,257.284,133,252Zm580,0c-3.106,3.736-4.145,5.437-4,13,1.262,1.359,1.365,1.768,2,4,3.3,0.973,4.127,1.85,9,2C724.5,264.059,725.459,252.3,713,252Zm88,2c-2.029,1.832-6.044,2.055-8,4-1.429,1.42-1.717,4.478-3,6,0.643,3.469,1.125,5.593,4,7,1.18,0.8,1.681.773,4,1,3.269-2.594,6.383-2.538,8-7,1.5-1.624,1.552-2.023,2-5C805.431,257.42,804.629,255.786,801,254Zm-88,1h5c1.839,3.656,2.947,4.911,3,11-2.418,1.3-2.833,1.8-7,2C711.2,263.481,710.528,260.327,713,255Zm87,1c2.962,0.639,3.69.6,5,3,0.877,1.3.894,2.467,1,5-4.049,4.026-4.21,6.13-13,6v-2C788.964,261.758,796.8,258.462,800,256Zm-347,4c-7.636,6.955-14.119,7.669-14,23,1.766,0.961,1.68,1.257,4,2-0.1-11.753,5.761-20.719,14-24v-1h-4Zm137,5c-5.276,3.956-7.313,2.95-7,13,6.219,5.2,5.859,10.933,18,11,2.179-2.27,3.77-2.507,5-6,1.7-2.643.381-5.306,0-9C600.466,269.971,599.836,265.388,590,265Zm-1,3,10,1c1.917,4.614,5.033,6.843,6,13-3.1,2.832-3.608,3.957-10,4-2.878-3.3-6.3-3.193-8-8-1.142-1.69-1.066-4.9-1-8A10.925,10.925,0,0,0,589,268Zm-402,2c-2.632,3.361-7.322,4.839-10,8-10.849,12.806-16.909,24.861-19,47-0.529,5.6-2.058,14.3,1,19-0.594-25.141,12.738-67.123,30-73v-1h-2Zm309,0c-8.794,5.076-23.058-.886-27,9-5.25,8.144,6.627,26.071,10,30,3.7,4.314,6.793,9.32,12,12,27.967,14.395,56.039-15.739,50-44C529.749,270.638,514,269.991,496,270Zm276,3c-1.073.752-.946,0.6-3,1-2.512,3.746-3.975,4.065-4,11,2.281,1.225,2.251,1.638,6,2,2.413,1.377,5.764-.2,9-1a29.369,29.369,0,0,1,4-6c-0.631-1.754-.193-0.971-1-2-0.946-3.393-.385-3.111-4-4C777.451,272.951,774.915,272.969,772,273Zm62,0c-1.791,1.261-5.231,1.5-7,3-4.872,4.126-12.447,18.571,1,19,0.962,0.589,1.913.107,5,0,3.863-5.762,8.532-8.418,9-18-2.3-1.605-1.51-2.142-5-3C835.927,273.248,836.054,273.4,834,273Zm-99,1c-2.563,3.3-3.876,2.586-4,9,0.8,1.021.355,0.274,1,2,3.96,2.56,5.307,4.7,12,5,2.44-2.519,4.66-3.164,6-7h-1c-1.492-5.571-4.528-5.731-8-9h-6Zm38,1h5c1.533,2.464,2.291,2.276,3,6-4.167,4.258-13.291,9-13-3A17.263,17.263,0,0,0,773,275ZM557,378c0.114,9.2,4.516,11.6,6,19h3c8.051-10.8,20.622-18.188,28-30,3.152-5.047,3.471-14.387,10-16,1.916,2.509,4.025,3.464,8,4,1.359-1.262,1.768-1.365,4-2,1.794-5.638,3.964-8.323,4-17-3.428-3.763-3.123-7.315-10-8-3.123-1.682-4.721.861-8,2v-2c-1.337-1.992-1.1-6.507-1-10,5.417,0.791,8.391,2.079,14,1,2.322-3.694,3.124-6.088,3-13a11.725,11.725,0,0,1-2-5l-7-6-10,1c-1.008,1.861-2.058,3.829-3,6h-1v-1c-7.053-7.185-9.637-19.164-18-25-0.857,7.108-4.373,12.989-6,19-3.1,11.434-.57,22.46-4,33-3.506,10.774-10.043,23.484-8,37,3.053,1.908,3.314,3.392,8,4,1.97-2.281,4.543-2.14,9-2a21.509,21.509,0,0,1,1,7c-3.122,4.026-3.392,16.771-9,15-4.307-2.408-2.407-7.889-7-10C559.82,378.2,559.319,378.227,557,378ZM735,277h7a35.639,35.639,0,0,0,5,5c-0.631,1.754-.193.971-1,2-1.12,2.873-.174,1.842-3,3-1.073.752-.946,0.6-3,1-2.557-2.388-4.6-2.162-6-6C732.6,279.38,733.774,279.383,735,277Zm95,1h6c1.3,2.418,1.8,2.833,2,7-3.88,4.852-3.6,7.19-13,7a28.9,28.9,0,0,1-1-9Zm-605,6c-1.752,2.184-3.651,2.282-5,5-0.8,1.18-.773,1.681-1,4l4,2c-1.121-2.091-1.434-1.832-2-5,3.393-2.14,4.685-3.054,11-3,1.121,2.091,1.434,1.832,2,5a11.568,11.568,0,0,0-2,3h1a2.834,2.834,0,0,1,1-1c1.479-2.556,2.4-3.147,3-7a18.068,18.068,0,0,1-4-3h-8Zm-98,2c-5.234,7.038-7.213,10.277-7,24,6.086,5.394,5.809,10.944,18,11,1.021-.8.274-0.355,2-1,4.935-7.533,6.026-12.827,5-25C139.16,290.344,138.2,286.049,127,286Zm117,4c-2.486,2.616-3.49,1.906-4,7l3,2v-1c-1.207-2.111-.483-2.232,0-5h10a21.509,21.509,0,0,1,1,7,6.1,6.1,0,0,0-2,2h2c1.565-1.8,1.966-1.281,3-4,1.207-2.111.483-2.232,0-5C252.975,291.077,250.614,290,244,290Zm-117,1a50.073,50.073,0,0,1,11,1c3.268,5.415,4.149,10.186,4,20-0.8,1.021-.355.274-1,2-4.323,2.544-4.774,2.481-11,2C124.5,307.81,121.3,300.658,127,291Zm70,3c-3.154,4.093-8.578,7.318-11,12-7.9,15.271-4.471,40.354,7,48-10.96-23.032-8.68-42.06,6-60h-2ZM87,295c-10.8,8.55-24.937,11.924-35,21-18,16.231-27.906,35.388-38,60-2.433,5.933-11.686,32.817-6,42,2.291-39.294,20.806-81.638,44-99,5.233-3.917,10.8-8.6,16-12,6.527-4.27,15.245-6.054,20-12H87Zm478,2c-2.243,2.379-3.174,1.752-4,6,1.938,1.667,1.668,1.439,2,5-3.607,3.953-4.376,8.942-9,12,0.867,2.707,1.382,6.979,3,9v-1C562.925,322.544,573.046,306.76,565,297Zm37,1a38.784,38.784,0,0,1,9,1c2.437,3.761,8.446,13.391,2,17-1.418.961-3.273,0.976-6,1-5.231-5.2-9.169-7.8-7-18C601.754,298.369,600.971,298.807,602,298Zm199,0a151.928,151.928,0,0,1-11,12c0.015,3.811.354,5.985,2,8v1c12.556,1.664,18.539-5.186,20-17C808.686,298.843,808.15,297.864,801,298Zm-359,2a34.728,34.728,0,0,0-2,12c6.256,4.918,9.275,13.472,16,18q0.5-4,1-8c-6.243-2.072-11.46-10.239-12-18a6.1,6.1,0,0,0,2-2C444.369,301.241,444.615,300.8,442,300Zm-206,1c1.35,1.624.64,1.121,3,2A11.568,11.568,0,0,0,236,301Zm558,15v-9c3.742-2.484,4.736-4.53,11-5,1.021,0.8.274,0.355,2,1v9l-6,5ZM259,303c-0.961,1.766-1.257,1.68-2,4h2c2.347-1.544,4.281-.586,7,0,0.86,3.453,1.758,4.384,2,9-2.054.383-4.608,0.949-6,2h1c1.418,0.961,3.273.976,6,1,1.372-2.542,1.917-3.5,2-8-2.7-2.049-5.679-5.492-8-8h-4Zm-33,1c6.249,6.269,15.182,9.238,22,15,18,15.21,38.228,28.332,56,44,15.068,13.284,27.746,30.068,51,35v-1c-23.541-9.808-43.634-29.3-62-45-8.818-7.536-19.155-12.492-28-20C254.792,323.335,239.311,308.478,226,304Zm224,9h4l1-3a21.42,21.42,0,0,1-5-2v5Zm106-5q-0.5,1.5-1,3h3v-1C557.128,309.26,556.872,308.74,556,308Zm-356,3c-1.073.752-.946,0.6-3,1-1.6,2.3-2.142,1.51-3,5-1.243,1.567-.642.51,0,2,1.212,4.553,3.763,5.7,6,9-8.37-.409-11.869,1.086-12,9,2.526,2.981,2.076,7.15,4,11,4.66,9.327,15.659,23.749,28,25,1.667-1.938,1.439-1.668,5-2,2.531,4.019,5.3,5.962,12,6,4-3.637,6.074-2.7,6-11-6.1-6.55-7.706-12.151-21-12-1.021.8-.274,0.355-2,1-0.836,2.9-1.391,2.574-2,6,1.67,1.794,2.351,4.12,3,7h-2c-3.807-6.174-11.5-10.078-14-17,4.053-.552,5.745-1.62,7-5,0.877-1.3.894-2.467,1-5-2.457-2.468-5.789-6.539-7-10,9.311,0.435,13.994-1.131,15-9C215.179,315.849,212.192,311.155,200,311Zm4,3,8,1c1.254,1.623,2.1,2.007,4,3,0.436,4,.618,4.376,0,8-3.3.973-4.127,1.85-9,2-4.019-3.684-7.415-3.47-8-11A30.978,30.978,0,0,0,204,314Zm475,4q0.5,2.5,1,5h1A10.965,10.965,0,0,0,679,318Zm2,6v2h1C681.369,324.246,681.807,325.029,681,324Zm-332,1,5,1v2c2.285,3.283.218,8.223-1,11-2.825,1.647-3.424,2.611-8,3-1.782-3.043-2.781-3.841-3-9C344.435,330.16,346.513,327.653,349,325Zm-197,1h-5c0.361,2.951,2,2.068-1,4-1.759-2.45-5.615-4.2-8-3-4.445,1.093-5.832,2.467-6,8-1.146,2.381,1.093,8.737,2,12,4.579,1.916,5.592,3.911,13,4,1.194-2.216,3.792-9.617,6-11a2.834,2.834,0,0,0,1,1C152.653,337,152.177,330.816,152,326Zm-15,3c4.614,0.135,5.578,1.087,9,2,0.973,3.3,1.85,4.127,2,9,1.514,2.3.624,5.061-1,7-1.69,1.142-4.9,1.066-8,1C135.479,340.281,131.148,338.423,137,329Zm91,0c-0.771.682-2.232,1.311-3,2-1.772,1.919-1.9,3.136-2,7,2.132,2.571,2.747,6.481,5,9,2.328,2.6,6.43,3.617,9,6,7.681-1.321,10.478-3.2,10-13C240.7,335.449,238.919,329.471,228,329Zm378,2h8a18.068,18.068,0,0,0,3,4c0.522,9.186.306,16.313-8,17-1.411-1.514-2.764-2.209-4-4C600.23,342.407,602.98,335.974,606,331Zm175,0c-3.072,3.2-5.434,3.969-6,10-1.756,2.561-.641,6.192,0,9a10.925,10.925,0,0,1,3,2l6-1c2.225-5.32,4.062-7.956,4-17a8.894,8.894,0,0,1-3-3h-4ZM80,332c3.7,0.623,5.651.726,7,4,0.8,1.18.773,1.681,1,4-3.376,3.733-3.564,8.106-9,10-3.874,2.886-8.758.424-10-3C63.592,338.69,75.929,334.758,80,332Zm112,1h9c2.112,2.784,3.992,2.8,5,7,2.308,3.611-1.309,9.723-7,8-3.442-1.042-5.745-5.573-8-8A20.14,20.14,0,0,1,192,333Zm39,0c4.614,0.135,5.578,1.087,9,2,2.269,3.731,3.843,4.626,4,11-2.806,1.513-4.964,2.043-10,2C229.6,342.4,226.683,339.938,231,333Zm550,2h3c1.513,2.806,2.043,4.964,2,10-0.8,1.021-.355.274-1,2a25.086,25.086,0,0,1-8,1v-2c-0.877-1.3-.894-2.467-1-5A49.244,49.244,0,0,0,781,335Zm-137,9c-6.654,16.289-13.084,29.253-25,40-11.564,10.43-31.769,14.427-32,36,2.389,1.556,2.924,2.923,6,4,8.286,6.549,19.469-.2,25-5,13.08-11.355,23.95-25.807,30-44,2.7-8.131,4.105-25.1-2-30C644.979,344.2,645.726,344.645,644,344Zm-295,3c-3.172,3-10.488,7.748-8,13,1.06,4.622,2.532,6.594,8,7,1.359-1.262,1.768-1.365,4-2,1.89-4.471,4.449-5.467,5-12a19.54,19.54,0,0,1-2-4C353.524,347.887,352.767,347.312,349,347Zm-2,2h7c0.937,3.2,1.739,3.5,2,8-2.407,2.7-2.3,5.358-6,7-1.18.8-1.681,0.773-4,1a11.568,11.568,0,0,0-3-2q-0.5-3-1-6A33.684,33.684,0,0,0,347,349Zm-21,1c-4.4,4.488-7.875,5.821-8,15,2.589,1.8,2.26,3.05,6,4,0.962,0.589,1.913.107,5,0,2.616-5.774,5.956-5.415,6-15-0.8-1.021-.355-0.274-1-2a6.1,6.1,0,0,1-2-2h-6Zm1,1,5,1v2c1.869,2.837.4,6.248,0,10-3.211,2.068-3.7,3.542-9,4C317.929,359.771,321.625,356.421,327,351Zm-174,7c-2.711,3.425-5.1,3.29-6,9,0.8,1.18.773,1.681,1,4,6.883,3.384,6.173,8.015,18,8,2.679-3.56,4.68-3.544,5-10-3.706-3.813-7.188-7.293-11-11h-7Zm73,0,9,1c2.6,3.86,4.7,4.3,5,11C231.289,375.7,220.045,368.591,226,358Zm230,1c-2.3,7.6-10.955,8.161-16,5v11h1v1c2.043-1.327,3.59-4.149,6-5,8.354-2.948,12.776,2.185,13-9-0.8-1.021-.355-0.274-1-2Zm-300,1c7.713,1.332,12.215,4.516,12,14-2.95,1.588-5.721,2.075-11,2-4.107-4.118-7.014-4.239-7-13C151.5,362.226,154.565,361.106,156,360Zm97,2c-1.565,1.8-1.966,1.281-3,4-0.877,1.3-.894,2.467-1,5,5.851,7.392,6.018,14.245,20,14,2.943-3.8,4.156-4.312,4-12-3.1-2.339-10.145-8.216-13-11h-7ZM52,364a34.043,34.043,0,0,1,8,1v4c0.249,0.632.088,3.8,0,7-2.479,1.976-2.92,4.521-6,6-5.451,5.117-11.817.028-12-7C45.673,370.562,47.636,367.73,52,364Zm206,2c3.5,0.4,4.912,1.257,8,2,2.381,3.674,3.885,4.441,4,11-2.825,1.647-3.424,2.611-8,3-4.677-4.637-8.648-6.464-7-15C257.076,366.628,256.924,366.758,258,366Zm265,0c-5.78,4.844-18.246.756-25,5,11.7,0.29,20.678-.555,28-4v-1h-3Zm48,6c-0.736,3.024-1.464,3.527-2,7h1v-2C571.672,375.145,572.261,374.234,571,372Zm-360,2c-4.753,4.264-8.459,4.9-7,13,2.8,1.03,2.1,1.518,6,2,3.38,2.265,7.637-.106,11-1,1.332-2.84,2.409-4.156,3-8-0.8-1.021-.355-0.274-1-2C219.14,375.706,217.542,374.133,211,374Zm310,0c-3.382,2.471-10.443,1.586-14,4l14-1c1.35-1.624.64-1.121,3-2v-1h-3Zm-337,1c-1.073.752-.946,0.6-3,1-1.283,2.072-2.077,2.3-3,5-1.119,1.473-2.087,3.052-1,4,5.536,9.346,20.53,7.059,20-7C192.566,376.645,190.6,375.1,184,375Zm27,1a21.971,21.971,0,0,1,10,2,18.324,18.324,0,0,1,1,6c-4.362,2.652-6.155,4.071-14,4-1.838-2.919-2.739-2.9-3-8,2.569-1.806,1.639-2.425,6-3v-1Zm-29,1h11c1.533,2.464,2.291,2.276,3,6-4.239,4.143-5.753,5.26-15,5C178.248,383.163,179.394,381.081,182,377Zm316,1c1.72,0.881,1.278.889,3,0h-3Zm335,0c-6.213,3.807-20.685,3.171-28,6-25.266,9.771-48.229,31.556-62,53h1c3.73-4.752,9.722-7.75,14-12,24.108-23.947,33.416-30.764,73-40l36-2c5.163,1.094,17.949,4.145,23,1-7.692-.134-13.958-2.513-20-4C858.109,377.074,846.253,378.142,833,378Zm-589,4c-3.723,3.528-5.917,3.34-6,11,4.973,5.418,5.051,10.041,16,10,1.285-1.834,1.968-1.712,3-4,3.894-5.584-2.786-13.674-7-15C248.319,382.656,246.857,382.363,244,382Zm281,1c-7.494,5.12-24.714-1.178-33,4,9.55,1.375,28.025,3.568,34-4h-1Zm-283,2h7c3.8,4.752,6.968,4.787,7,14h-1v1c-4.156.513-6.1,0.758-10,0-2.367-3.942-4.514-5.8-5-12A11.568,11.568,0,0,0,242,385Zm40,3c-2.2,2.088-3.689,1.716-5,5-0.961,1.418-.976,3.273-1,6,5.766,6.687,11.621,23.635,25,16,3.865-2.2,5.314-3.633,6-9C300.152,397.183,297.806,388.046,282,388Zm3,6,11,1c2.453,5.084,5.738,4.788,6,13-0.8,1.021-.355.274-1,2-2.991,1.354-5.051,1.98-10,2-4.033-5.175-7.923-6.315-8-16A6.1,6.1,0,0,0,285,394Zm553,1c-10.246,6.407-21.105,3.99-21,21l7,5c9.983,0.213,14.963-2.09,22-4,3.023-4.847,5.815-6.814,6-15-0.8-1.021-.355-0.274-1-2-2.072-1.283-2.3-2.077-5-3C843.931,395.336,841.845,395.09,838,395Zm-282,4a9.257,9.257,0,0,0,3,4A9.257,9.257,0,0,0,556,399Zm278,0c3.09-.094,6.33-0.14,8,1,4.236,1.406,4.209,3.317,4,9-1.514,1.411-2.209,2.764-4,4-6.259,5.358-13.624,2.216-18-2q1-3.5,2-7Zm-572,5c-4.18,3.969-6.155,4.142-6,13,5.706,6.275,5.3,12.134,18,12a18.711,18.711,0,0,1,5-3,51.119,51.119,0,0,0,0-12,140.24,140.24,0,0,1-11-10h-6ZM34,405h6c3.661,8.342,7.987,21.752-7,22-1.285-1.834-1.968-1.712-3-4-1.582-2.179-1.554-9.819,0-12C31.025,407.909,32.438,407.371,34,405Zm844,0c8.885,1.343,11.727,3.27,11,12-5.626,3.682-9.312,3.793-18,3-1.605-2.3-2.142-1.51-3-5-1.221-2.141-.388-2.77,0-6,2.8-1.03,2.1-1.518,6-2C874.86,406.351,877.144,405.662,878,405Zm-616,2c7.046,0.141,9.227,2.833,13,6a23.754,23.754,0,0,1,2,10c-3.393,2.14-4.685,3.054-11,3-4.083-5.453-7.094-6.606-7-17C261.389,408.158,260.645,408.6,262,407Zm194,3c-2.789,11.965-10.7,22.257-16,32-18.708,34.412-53.168,90.791-36,146,2.68,8.617,6.387,19.447,11,27,7.983,13.07,17.671,24.142,30,33a127.547,127.547,0,0,0,42,20h10c6.526,1.458,22.473,2.47,28-1-80.892.786-135.4-81.472-104-165,8.032-21.364,17.54-42.152,26-65C449.289,430.817,458.155,415.752,456,410Zm-39,14c-5.856.208-10.084,2.918-15,2-15.519-2.9-28-9.787-41-14v3c0.8,1.18.773,1.681,1,4,14.473,11.2,18.922,17.137,44,16,2.419-2.861,7.886-5.986,11-8v-3Zm378-11c-1.073.752-.946,0.6-3,1-6.031,7.725-13.308,10.236-15,23,3.742,4.193,2.92,7.666,11,8,3.217-2.857,8.7-3.186,12-6,3.211-2.735,5.07-6.959,8-10,0.286-6.9-.314-11.16-4-14C801.774,413.209,799.2,413,795,413Zm-486,5c-2.2,2.088-3.689,1.716-5,5-5.608,8.153,6.052,24.058,11,26h10a35.383,35.383,0,0,0,3-3c1.157-1.441,1.744-3.666,3-5C328.877,429.369,321.8,418.828,309,418Zm484,0h7c2.14,3.393,3.054,4.685,3,11-5.35,4.605-19.655,17.094-19-2,1.262-1.359,1.365-1.768,2-4A25.044,25.044,0,0,0,793,418Zm124,0c5.34,0.264,8.792,1.867,13,3,1.638,3.272,2.721,3.893,3,9-0.8,1.021-.355.274-1,2-7.2,3.77-17.168,3.586-20-5C908.39,421.559,913.983,420.052,917,418Zm-451,3v2h1v-2h-1Zm-1,3v2h1v-2h-1Zm-154,1c2.9-.06,5.468-0.048,7,1,5.992,1.885,8.244,6.685,8,15-0.8,1.021-.355.274-1,2h-2c-1.69,1.142-4.9,1.066-8,1C311.257,438.63,306.676,433.066,311,425Zm535,0c4.614,0.135,5.578,1.087,9,2v2c4.993,6.911-3.03,13.231-10,13-2.561,1.756-6.192.641-9,0-1.441-2.67-1.994-4.221-2-9,0.8-1.021.355-.274,1-2C838.05,429.292,843.132,427.324,846,425Zm-382,2c-1.362,9.525-6.971,18.757-10,27-8.96,24.38-15.3,49.685-22,75-5.519,20.859-2.1,51.041,6,65,9.383,16.162,45.652,37.745,73,32,17.845-3.749,38.267-3.047,41-21h-2c-5.816,3.784-39.868,2.911-48,1l-13-1a66.925,66.925,0,0,1-28-18c-17.162-19.386-16.385-78.7-8-109,3.13-11.31,4.456-23.647,8-36C462.146,438.007,466.086,431.035,464,427Zm-184,3c-2.057,3.091-3.46,2.926-4,8-1.126,2.015-.213,4.982,0,9,6.634,6.038,9.187,14.331,22,9,1.731-3.626,2.87-5.254,3-11C294.416,436,296.784,429.551,280,430Zm295,0c0.842,2.389.4,1.645,2,3A10.925,10.925,0,0,0,575,430Zm-294,3c5.379-.031,7.275,1.006,11,2,2,4.824,5.066,7.342,6,14-2.711,2.92-1.454,4.395-7,5-1.66.829-2.585,0.238-6,0C281.117,448.441,276.315,441.738,281,433ZM563,650c23.466,0.07,35.563-16.635,45-31a136.065,136.065,0,0,0,16-34c2.413-7.731.209-14.246,2-23,7.478-36.542-16.931-78.35-30-99-5.494-8.681-10.08-21.776-18-28v-1h-1v2c8.517,7.026,13.062,27.632,18,39,5.394,12.417,10.023,27.566,14,42,8.939,32.446-3.676,81.266-16,100-5.244,7.971-13.4,14.244-21,20-3.574,2.709-4.749,7.944-9,10v3ZM815,439h8c1.785,3.048,3.317,4.538,4,9a11.725,11.725,0,0,0-2,5c-4.819,3.1-7.319,6.4-15,7-1.021-.8-0.274-0.355-2-1q-0.5-1.5-1-3c-1.049-1.549-1.031-4.085-1-7A123.972,123.972,0,0,0,815,439Zm-44,7c-1.073.752-.946,0.6-3,1-4.725,5.617-23.812,18.894-11,29,1.681,1.344,3.143,1.637,6,2,9.963-6.808,21.036-6.981,21-24C779.832,449.437,780.171,446.074,771,446Zm-436,4c-2.2,2.088-3.689,1.716-5,5-5.823,7.31,4.292,25.392,13,26,2.41,1.67,6.928.647,9-1,2.119-2.026,2.651-2.943,3-7,0.249-.632.088-3.8,0-7C347.787,459.685,347.607,451.642,335,450Zm433,1h8q0.5,1.5,1,3c1.772,1.919,1.9,3.136,2,7-3.96,4.149-5.373,8.282-13,9-1.288.7-3.251-.368-6-1V459A48.631,48.631,0,0,0,768,451Zm-431,6h6c3.015,3.394,7.868,5.8,9,11,2.05,9.428-7.939,9.17-13,7C335.837,469.94,333.432,463.622,337,457ZM35,459h5c2.079,4.966,4.017,6.7,4,15C31.377,482.174,29.49,467.27,35,459Zm269,3c-2.824,4.235-4.883,5.417-5,13,2.012,2.854,1.965,7.081,4,10,2.163,3.1,7.035,3.66,10,6,4.915-.8,8.464-1.588,10-6,3.2-4.084.632-8.222,0-14-3.039-2.307-6.382-6.18-9-9H304Zm1,3h7c4.668,5.867,8.965,6.752,9,18a11.568,11.568,0,0,0-2,3l-8,1C304.528,481.178,299.5,474.618,305,465Zm487,7a34.041,34.041,0,0,1,8,1v1h1c2.72,17.621-20.078,27.22-19,7C785.359,478.409,788.61,474.907,792,472Zm-96,2c-7.323,8.95-22.654,14.322-35,18-5.476,1.631-17.159-.253-20,4,6.758,5.03,8.532,5.251,21,5,2.943-2.057,5.622-.528,10-2C678.753,496.73,699.1,481.1,696,474Zm293,0c0.136,19.23.831,38.1-4,53-2,6.155-9.7,19.583-7,26,1.455,2.542-.217,1.128,3,2,1.411-1.514,2.764-2.209,4-4C993.713,540.685,998.524,487.85,989,474Zm-251,4c-7.874,7.8-15.187,9.484-15,26,3.189,2.337,3.816,4.217,9,5,8.857-7.7,19.159-6.708,19-24-2.388-2.557-2.162-4.6-6-6C743.451,477.951,740.915,477.969,738,478Zm-2,5h8q0.5,1.5,1,3c5.662,8.194-6.634,15.485-13,16-1.565-1.8-1.966-1.281-3-4-0.961-1.418-.976-3.273-1-6C730.765,489.15,733.315,485.869,736,483ZM377,495c-14.454-.337-41.177,7.129-54,11-7.992,2.413-16.017.555-17,10,3.033,1.51,3.538,2.543,8,3,2.594,1.69,7.9.65,12,1,19.565,1.673,40.562-4.154,51-15V495Zm388,8,10,1c0.514,3.808,1.4,4.209,2,8a11.725,11.725,0,0,0-2,5c-6.089,2.608-7.159,5.932-17,6-1.007-3.411-1.925-4.814-2-10A123.972,123.972,0,0,0,765,503Zm-54,14c-1.073.752-.946,0.6-3,1-6.613,6.743-12.727,11.671-13,25,3.937,4.347,3.074,7.062,12,7v-1c8.05-2.416,14.919-11.547,15-22C717.959,522.56,718.058,518.829,711,517Zm106,5c-1.073.752-.946,0.6-3,1l-2,3c-2.743,3.307-3.112,7.69-3,14,2.088,2.2,1.716,3.689,5,5,1.18,0.8,1.681.773,4,1,4.8-4.869,6.286-6.35,6-17C821.3,526.163,820.8,523.979,817,522Zm-110,1h7c1.839,3.656,2.947,4.911,3,11-5.08,4.182-4.3,8.8-14,9-2-3.415-2.988-4.94-3-11A86.985,86.985,0,0,0,707,523Zm109,4c4.121,1.268,4.9,2.619,5,8,1.221,2.141.388,2.77,0,6-3.076.894-2.958,1.584-7,2a18.068,18.068,0,0,0-3-4q0.5-5,1-10C814.245,528.413,814.655,528.252,816,527Zm17,0h5v1h1c0.541,4.269.807,6.948,0,11h-2c-2.583,1.5-3.66.721-5-2C829.715,533.731,831.762,529.569,833,527Zm-98,7h8c1.62,2.9,2.657,4.372,3,9-4.681,5.916-4.759,10.173-16,10-0.86-3.453-1.758-4.384-2-9C730.467,541.311,733.072,536.938,735,534Zm-473,7c-5.62,3.589-14.953,1.972-22,4-14.546,4.186-31.811,8.534-44,16-24.868,15.232-44.774,37.231-60,62-3.867,6.291-4.365,13.264-8,20-2.828,5.241-9.657,6.366-12,14-3.616,11.782,3.709,24.351,6,32,7.545,25.188,8.808,35.553,24,53,2.7,3.1,3.567,6.61,7,9v-2c-6.188-5.046-7.985-14.708-12-22-2-3.63-6.083-8.129-8-12-4.24-8.56-3.118-17.685-6-28-2.224-7.962-5.764-15.685-7-25,3.454-3.947,8.613-8.384,11-13,3.767-7.284,4.318-14.874,8-22,9.254-17.909,22.6-38.066,39-49,18.2-12.132,40.771-20.115,63-28,10.209-3.621,37.649-4.228,45-9H262Zm397,10c-2.392,3.234-3.752,3.016-4,9,3.416,2.173,6.4,6.129,10,8,19.1,9.924,46.9,10.874,70,16-5.3-5.3-12-7.2-19-11C699.066,563.81,684.7,551.278,659,551Zm-75,3a19.54,19.54,0,0,1-4,2c-7.66,16.64-4.736,28.731-23,36v2c2.389,1.556,2.924,2.923,6,4,1.69,1.142,4.9,1.066,8,1,12.03-9.732,24.843-14.225,25-36C591.751,558.376,591.777,555.616,584,554Zm252,0h6c3.4,4.982,5.92,7.5,3,14-3.042.075-2.744,0.756-4,0-2.963-.829-2.733-0.443-4-3-1.988-2.156-2.069-4.577-2-9C835.8,554.979,835.355,555.726,836,554Zm-543,1c-4.255,2.968-16.882,6.776-11,16,4.98,7.81,27.285,9.95,31,0,1.988-2.156,2.069-4.577,2-9-2.784-2.112-2.8-3.992-7-5C304.9,554.544,298.732,554.849,293,555Zm524,1c-5.783,5.719-6.75,18.847,3,22,1.18,0.8,1.681.773,4,1a35.383,35.383,0,0,0,3-3c2.647-3.309,1.469-6.171,1-11C823.836,561.671,823.188,557.72,817,556Zm-522,2c6.549-.257,11.021.658,13,5,1.671,2.64.135,5.376-1,8-7.69,3.883-19.316,2.748-20-7,2.2-1.664,2.026-2.836,5-4C292.771,559.318,294.232,558.689,295,558Zm522,3h4c1.891,2.7,6.662,6.975,5,10-1.042,4.358-1.59,4.9-7,5C814.305,570.942,813.369,567.126,817,561Zm-565,3c-9.237,5.816-18.883,3.832-19,19l7,5c8.063,0.1,12.643-1.413,19-2,3.519-4.591,7-6.419,8-14-2.388-2.557-2.162-4.6-6-6C258.774,564.209,256.2,564,252,564Zm94,0c-1.18.8-1.681,0.773-4,1-1.96,2.515-3.722,2.522-5,6-0.961,1.418-.976,3.273-1,6,6.007,5.852,8.308,9.184,21,9,1.021-.8.274-0.355,2-1a57.644,57.644,0,0,1,5-7q-1-3.5-2-7C356.846,567.972,353.3,565.519,346,564Zm-98,4h10c1.947,3.086,2.887,3.43,3,9-0.8,1.021-.355.274-1,2-4.795,3.091-8.057,4.151-17,4-1.513-2.806-2.043-4.964-2-10Zm94,0a51.654,51.654,0,0,1,15,2c1.638,3.272,2.721,3.893,3,9-4.283,2.862-5.846,4.139-14,4-3.76-3.467-7-3.4-8-10A26.36,26.36,0,0,0,342,568Zm511,8c5.85,0.239,9.487,2.395,11,7,2.656,3.782-1.716,6.621-6,7-1.359-1.262-1.768-1.365-4-2C851.636,583.378,850.431,580.849,853,576ZM255,607V597c-4.551-2.764-6.762-4.1-15-4-4.864,4.162-10.99,3.709-12,12-3.88,5.8,2.491,10.145,4,14-3.9,1.239-4.515,3.127-9,4-0.275-4.114-1.138-4.761-2-8-3.528-1.043-5.533-1.974-11-2-2.714,2.556-7.393,3.336-10,6-1.817,1.856-2.211,5.141-4,7,0.017,9.58,4.18,9.619,6,16-3.128,2.023-5.712,5.143-8,8-4.267-1.657-3.632-3.636-10-4-6.921,5.558-12.206,6.886-12,20,2.376,2.279,5.131,5.295,6,9-10.13,10.653-10.263,33.775-8,51l-8,1c-2.642,4.078-4.051,5.484-4,13,6.805,7.5,7.827,16.523,22,17,2.186-2.283,5.2-5.286,7-5,3.621,1.009,5.782,2.47,7,6-2.191,1.886-2.087,3.723-2,8,3.091,2.057,2.926,3.46,8,4,7.812,5.041,14.874-3.705,19-5l9,1c2.5,3.929,5.61,5.837,12,6a52.34,52.34,0,0,1,9-5h14c2.761-1.733.423-6.988,4-9,3.2-2.379,7.734-.811,9-3,3.751-4.867,4.068-11.128,7-17a322.66,322.66,0,0,1,24-40c15.3-21.782,32.909-41.32,48-64,4.657-7,11.171-13.178,14-22-0.222-1.292-1.959-1.914-3-5,2.2-1.706,2.488-2.421,3-6-4.112-4.452-4.939-9.236-13-10-1.18-.8-1.681-0.773-4-1-2.972,2.5-5.317,4.339-8,7q0.5,3,1,6c-5.7-.424-8.24-1.885-15-2,1.731-6.394,6.465-6.139,7-15-5.822-5.631-8.914-9.116-21-9-3.241,3.117-6.789,5.913-10,9,0.09,7.841,3.065,7.818,5,13H289v1h-1v-2c4.971-3.09,7.163-6.534,7-15-5.632-4.138-8.191-6.153-19-6-3.41,3.076-7.242,3.027-9,8-2.607,3.209-1.634,6.572-1,11,2.419,0.869,8.7,3.763,10,6h-2C269.646,604.874,260.941,606.708,255,607Zm-48-27c-1.073.752-.946,0.6-3,1-5.931,7.417-13.681,9.385-14,23,1.262,1.359,1.365,1.768,2,4,3.3,0.973,4.127,1.85,9,2,9.3-7.047,18.33-6.809,18-24-2.515-1.96-2.522-3.722-6-5C211.582,580.039,209.727,580.024,207,580Zm72,0h8c1.664,2.2,2.836,2.026,4,5,0.8,1.18.773,1.681,1,4-5.54,5.984-6.439,8.318-19,8-1.359-1.262-1.768-1.365-4-2v-9A38.882,38.882,0,0,0,279,580Zm37,1c11.3-.618,16.466.438,16,12a24.935,24.935,0,0,0-5,4c-10.868.621-18.249-.025-18-11A57.644,57.644,0,0,0,316,581Zm-110,3,6,1c1.588,2.95,2.075,5.721,2,11-5.179,3.879-6.246,7.029-16,7l-1-3c-2.042-3.135.123-6.692,1-10A50.613,50.613,0,0,0,206,584Zm630,1c-1.782,3.043-2.781,3.841-3,9,5.223,4.584,5.764,11.072,15,12,2.486-2.616,3.49-1.906,4-7,0.566-.713,1.442-0.042,1-2h-1C850.9,589.881,844.36,585,836,585Zm3,4,6,1c2.692,3.711,7.082,6.855,3,12-1.418.961-3.273,0.976-6,1a50.613,50.613,0,0,0-6-8c0.631-1.754.193-.971,1-2C837.708,590.653,838.025,590.766,839,589Zm-488,4c5.147,0.026,7.163,1.065,11,2,2.379,3.549,3.857,3.585,4,10-2.424.906-1.59,1.069-4,2a6.732,6.732,0,0,1-7,0c-3.621-1.009-5.782-2.47-7-6-0.877-1.295-.894-2.467-1-5A18.068,18.068,0,0,0,351,593Zm-110,3h8c2.14,3.393,3.054,4.685,3,11-5.185,4.98-8.352,8.06-19,8-1.588-2.95-2.075-5.721-2-11A112.637,112.637,0,0,0,241,596Zm437,1c-4.678,2.826-14.352.059-19,3,58.222-.52,104.461,9.915,132,40,8.6,9.4,16.86,22.644,23,34,3.658,6.765,5.278,15.217,10,21v-4c-3.527-4.113-3.774-11.7-6-17-5.666-13.488-12.707-30.466-22-41C772.105,605.914,728.954,596.856,678,597ZM176,609c-4.926,6.1-12.94,7.785-14,18-2.124,3.1-.192,7.282,1,10,2.556,1.479,3.147,2.4,7,3,9.94-7.5,19.41-6.507,19-25-1.262-1.359-1.365-1.768-2-4C183.472,609.957,181.467,609.026,176,609Zm-2,5h8c1.225,2.281,1.638,2.251,2,6,0.829,1.66.238,2.585,0,6-4.536,3-6.756,6.366-14,7-2.322-3.287-3.126-4.549-3-11A74.01,74.01,0,0,0,174,614Zm36,2a34.041,34.041,0,0,1,8,1,34.728,34.728,0,0,1,2,12,68.33,68.33,0,0,0-10,8,38.784,38.784,0,0,1-9-1q-0.5-4.5-1-9C203.215,623.28,207.115,619.743,210,616Zm370,3c-19.364,29.093-82.218,18.141-116,11v1h2c14.637,14.894,68.354,17.052,91,7,10.215-4.534,16.556-12.3,25-18C580.979,619.2,581.726,619.645,580,619Zm126,11c-7.157,4.419-13.117,1.892-13,14,0.8,1.021.355,0.274,1,2,7.458,4.442,12.414,7.994,25,8,5.333-4.9,9.132-5.075,9-16C721.677,633.365,717.579,630.066,706,630ZM417,851c0.342-4.29,1.8-12.229,5-14,2.11,3.436,3.378,4.812,9,5,1.359-1.262,1.768-1.365,4-2a29.369,29.369,0,0,1,4-6,81.859,81.859,0,0,0-1-16c-3.086-1.947-3.43-2.887-9-3-1.021.8-.274,0.355-2,1q-2.5,4.5-5,9h-1c-0.98-8.733-5.629-12.634-8-19,5.778,0.409,6.943.188,12-1,1.774-6.637.785-7.664-1-14-6.224-3-9.3-5.918-19-6-2.14,3.393-3.054,4.685-3,11,3.18,2.253,4.27,5.032,8,7v1h-1c-2.1.937-14.509-.888-21-1v-2c4.92-2.16,7.034-3.667,7-11a85.326,85.326,0,0,1-8-7c-11.213-.636-19.239-0.331-19,11,2.789,1.69,8.5,4.979,10,8H355c-1.447,3.193-2.046,5.055-6,6-1.371-3.761-2.98-3.969-8-4-3.383,3.467-6.38,4.478-7,11-3.324,5.041,2.494,10.716,8,11,0.025,12.158-3.435,24.091-10,30a88.466,88.466,0,0,0,0,12l6,5h6c0.763,5.614,3.568,7.965,5,13h-2c-2.672-1.844-7.113-.664-10,0-2,3.415-2.988,4.94-3,11,6.336,7.325,5.679,15.133,20,15,2.322-3.694,3.124-6.088,3-13-0.8-1.021-.355-0.274-1-2h2c3.632,5.689,10.672,9.547,13,16-7,1.665-9.378,5.714-9,15,9.092,6.126,11.48,12.066,28,12,1.655-2.281,5.416-6.731,8-8,2.158,2.809,5.642,4.416,9,6-1.243,3.933-2.692,4.462-3,10,2.249,2.3,3.4,6.091,6,8,2.353,1.726,4.984,2.054,7,4a138.779,138.779,0,0,0,18,0c1.729-3.657,3.369-2.609,4-8l20,3c-0.117,3.28-.236,7.184,1,9,1.447,3.37,3.666,3.717,6,6,12.556,0.5,24.922-3.3,27-13l12-1v5l6,5c12.356,0.5,23.981-1.427,27-10,1.883-2.038,2-3.835,2-8,5.256-.859,11.213-5.566,15-4,2.871,3.069,2.349,5.3,8,6,7.968,5.5,20.412-2.946,24-6,2.385-5.836,2.279-8.134,1-14-36.909-17.84-54.371-52.794-53-106h-2c-1.6,2.545-4.37,3.747-6,6-2.876,3.973-3.811,12.465-8,15-2.545-4.619-4.877-7.757-12-8a17.672,17.672,0,0,1-4,6c-0.154,4.279-.744,11.387,1,14,1.381,4.567,3.99,6.849,10,7,1.675,0.16,2.955-1.037,6-2v2c1.3,1.92,1.716,6.25,2,9-4.016-.374-5.09-1.273-8,1-4.869,4.907-2.724,15.771-1,22,4.126,1.719,4.735,3.676,11,4,1.671-2.766,3.282-5.105,7-6v9c-3.045,1.376-7.6,5.591-10,8-32.491.327-49.524-45.634-38-79,7.632-22.1,26.391-43.791,46-54,4.8-2.5,10.623-2.115,15-5,3.307-3.738,3.473-9.348,6-14,6.154-11.329,14.843-25.54,25-33,20.337-14.938,62.145-35.154,101-24,16.854,4.838,32.56,14.492,43,26,12.441,13.713,16.545,30.857,22,52,1.167,4.524,3.947,14.763,2,22-3.645,13.55-10.842,22.425-18,32-8.3,11.1-15.136,15.638-33,15a101.322,101.322,0,0,0-8-9V830c4.027,1.049,5.086,4.079,8,3,9.83-2.379,11.048-13.946,7-22h-3c1.844-7.565,7.067-1.712,10-9,3.491-4.248,1.23-10.275,0-15-2.213-1.339-5.749-3.647-7-6-2.046-3.962,1.128-4.078,2-7,1.322-4.428-1.326-7.872-2-11-1.47-.883-2.776-3.447-4-4-3.956-1.788-4.959,1.706-8,0-2.962-1.661-5.819-6.316-9-8-4.552-2.409-11.409-1.743-14-6,2.739-1.643,5.611-5.093,4-8-3.442-11.537-21.8-4.633-23,5,2.271,1.47,3.009,2.1,4,5-12.98.647-37.02,13.748-39,25,15.047,0.154,24.823,7.866,34,14,27.76,18.556,47.338,58.756,37,108h1c2.439-2.25,6.808-3.636,11-4,0.036,5.025,1.044,6.422,2,10,3.614,2.143,5.06,3.735,11,4,5.872-5.046,24.795-12.705,18-26-1.052-2.059-3.744-2.462-5-5,9.916-5.523,27.081-29.5,34-31,2.526,1.641,4.756.471,8,0,5.539-7.429,12.025-11.458,13-24-6.181-7.082-5.109-8.252-4-18,6.117,0.875,6.726,2.184,13,2,5.361-7.309,9.07-11.414,9-25-3.124-3.577-2.826-7.2-8-9-2.526-1.641-4.756-.471-8,0V753h2c2.8,4.363,6.74,6.008,14,6,3.567-3.582,5.887-3.469,6-11,4.036-6.861-4.527-20.244-10-22-2.989-2.373-4.856-1.533-9-1-0.918,2.734-3.522,9.553-6,11v-2c-3.033-4.561-5.448-13.007-7-18h3c3.882,3.657,9.707,1.232,14,0,1.125-4.307,2.676-5.37,3-11-7.228-8.282-7.31-18.809-23-19-0.771.682-2.232,1.311-3,2-2.626,2.5-3.063,4.564-3,10,0.752,1.073.6,0.946,1,3h-2c-2.968-7.061-10.838-10.477-14-17,9.41,0.013,14.415-3.744,14-14-7.909-6.45-10.636-14.32-25-15-4.193,3.742-7.666,2.92-8,11,1.428,1.55,2.118,3.874,3,6h-2c-7.494-6.732-22.041-11.393-32-15-6.5-2.354-17.741-1.349-22-6,6.977-2.5,7.66-4.414,12-9-0.631-1.754-.193-0.971-1-2-1.273-4.479-3.5-6.609-9-7-4.3-3.155-8.65-.838-14,0-2.679,3.56-4.68,3.544-5,10,3.724,2.366,5.821,4.741,11,6v2h-6c-4.3-2.83-13.115-2-20-2H615c-6.5,2.185-19.547,13.127-27,17-20.286,10.543-73.059,30.333-105,21-7.336-2.144-15.771-5.894-23-8-2.984,8.723-11.935,13.3-17,20-11.745,15.538-25.829,29.681-39,44-5.348,5.814-11.74,9.957-16,17h13c6.188,3.721,16.973,1.566,24,4,21.5,7.446,40.6,24.475,47,47,11.494,40.453-24.147,67.677-50,76-12.283,3.954-31.675,5.993-44,0-8.055-3.917-11.273-9.925-17-16-0.406-10.366.037-18.038,6-22,4.94-3.661,14.278-3.146,23-3v2c-10.011,1.228-10.753,7.356-16,13a38.784,38.784,0,0,0,1,9l3,1c3.673,2.455,7.682-.191,10-1h13c3.3-1.081,6.313-4.182,9-6l3,8,8,1c4.422-3.476,14.354-11.783,11-19-0.478-3.625-.262-3.642-3-5C424.658,846.16,421.066,850.091,417,851ZM664,634c3.09-.094,6.33-0.14,8,1,4.4,1.356,5.085,3.121,5,9-3.393,2.14-4.685,3.054-11,3-1.341-1.231-3.583-1.825-5-3-1.5-1.624-1.552-2.023-2-5,0.752-1.073.6-.946,1-3C662.245,635.413,662.655,635.252,664,634Zm42,0a48.713,48.713,0,0,1,15,2c0.937,3.2,1.739,3.5,2,8-4.239,4.143-5.753,5.26-15,5-4.079-3.692-6.9-2.792-7-11,0.8-1.021.355-.274,1-2C704.245,635.413,704.655,635.252,706,634Zm46,4c-1.073.752-.946,0.6-3,1-1.939,3.215-3.489,4-4,9,7.106,7.694,9.62,16.294,23,18,3.356-2.521,6.588-2.451,9-6,2.5-3.18,1.431-5.292,1-10C769.99,644.009,766.717,638.042,752,638Zm-599,5c-4.313,5.215-25.018,31.05-2,33,7.6-7.144,16.045-9.879,16-25a55.8,55.8,0,0,1-6-8h-8Zm604,0,10,1c2.818,3.5,5.348,2.857,6,9,0.916,1.652.469,3.142-1,5-2.129,2.089-3.882,2.714-8,3-6.053-5.3-12.3-5.784-10-17C756.076,643.628,755.924,643.758,757,643Zm-605,5h7c2.231,3.544,3.1,5.373,3,12-3.119,2.466-3.7,5.476-8,7-2.347,1.544-4.281.586-7,0-0.806-3.267-1.627-3.889-2-8C147.573,655.685,149.857,651.248,152,648Zm32,1,6,1c1.043,3.528,1.974,5.533,2,11-5.311,4.364-4.381,8.094-15,8-1.043-3.528-1.974-5.533-2-11A127.145,127.145,0,0,1,184,649Zm216,0c-6.523,8.216-14.07,9.348-14,25,3.933,2.636,4.612,4.054,12,4,2.507-2.277,6.225-2.951,9-5,3.367-2.486,5.1-7,8-10v-7l-5-7H400Zm1,4a30.439,30.439,0,0,1,7,1c1.354,2.991,1.98,5.051,2,10-5.446,4.156-8.1,8.655-17,7-0.736-3.024-1.464-3.527-2-7C395.319,659.243,395.68,657.556,401,653Zm333,8,10,1c3.777,4.643,6.979,3.884,7,13-0.8,1.021-.355.274-1,2-3.609.9-4.971,1.853-10,2-4.063-5.112-8.151-6.007-10-14A21.612,21.612,0,0,0,734,661Zm-208,5c1.72,0.881,1.278.889,3,0h-3Zm260,1c-1.605,2.3-2.142,1.51-3,5-6.294,9.716,9.848,22.234,14,26,6.137,0.188,9.463-.694,12-4,2.884-3.568,1.514-7.921,1-13C801.8,674.376,801.964,666.843,786,667Zm6,6,8,1c3.912,5.612,7.855,7.788,6,17-3.453.86-4.384,1.758-9,2-4.834-4.953-8.847-6.976-9-17A18.068,18.068,0,0,0,792,673Zm-363,2c-6.7,6.09-14.166,6.649-15,19,5.148,6.86,5.014,9.041,16,8,5.183-6.236,11.56-6.349,12-18-0.8-1.18-.773-1.681-1-4-1.834-1.285-1.712-1.968-4-3C434.962,675.117,433.165,675,429,675Zm-1,4h7c2.231,3.544,3.1,5.373,3,12-0.8,1.021-.355.274-1,2-5.406,3.622-7.043,6.075-17,6v-1h-1c-0.522-4.652-.353-6.049,0-11C421.955,684.773,425.19,681.587,428,679Zm-276,4c-2.423,2.3-5.056,3.119-7,6-6.52,7.438-2.955,25.346,5,28,1.549,1.049,4.085,1.031,7,1,3.222-7.684,7.78-11.98,8-24C160.558,689.242,159.567,684.964,152,683Zm222,2c-6.327,7.907-14.7,9.4-15,24a19.54,19.54,0,0,1,2,4c2.556,1.479,3.147,2.4,7,3,7.529-5.67,18.417-6.336,19-19,1.273-2.61-1.026-6.607-2-10-2.389-.842-1.645-0.4-3-2h-8Zm-224,4a30.439,30.439,0,0,1,7,1c2.322,3.694,3.124,6.088,3,13a11.725,11.725,0,0,0-2,5c-2.556,1.479-3.147,2.4-7,3-1.9-2.031-2.872-1.868-4-5-3.491-4.248-1.23-10.275,0-15A10.925,10.925,0,0,0,150,689Zm222,1h8l1,2c6.815,8.282-4.781,16.647-13,17-2.322-3.287-3.126-4.549-3-11A74.01,74.01,0,0,0,372,690Zm394,3c2.9-.06,5.468-0.048,7,1,6.338,2,8.307,7.162,8,16-3.043,1.782-3.841,2.781-9,3-5.705-5.434-8.272-6.94-8-19C765.754,693.369,764.971,693.807,766,693ZM312,703c-2.854,10.458-13.007,19.787-18,29-14.951,27.585-36.566,86.694-24,131,6.894,24.3,15.5,47.852,28,67,6.263,9.591,18.037,19,22,30h1v-3c-9.376-7.48-13.713-21.335-20-32-21.031-35.676-36.524-103.844-18-155,6.287-17.362,14.888-32.59,23-48C308.222,717.779,313.94,707.755,312,703Zm92,3c-6.488,4.646-18.3,7.975-14,20,1.322,3.694.634,4.439,4,6,1.919,1.772,3.136,1.9,7,2,6.212-5.409,13.629-5.437,15-16,0.752-2.721-.954-7.909-4-10C409.931,706.336,407.845,706.09,404,706Zm-3,4h9l1,2c7.23,8.47-7.183,21.394-14,18-4.62-1.559-4.328-4.793-4-11C395.686,716.936,399,712.7,401,710Zm216,3c-2.9,1.991-5.813.643-10,2a90.527,90.527,0,0,0-23,12c-16.962,12.217-28.34,36.693-35,59-1.677,5.618-.47,8.924-2,15-2.047,8.126-6.022,38.921-1,47,1.223-42.528,19.007-99.3,44-118,5.564-4.162,11.865-8.825,18-12,3.94-2.039,8.677-2.432,12-5h-3Zm191,3c-11.736,11.871-7.285,34.822,14,34,1.908-3.053,3.392-3.314,4-8,5.3-7.811-6.706-24.454-14-25C810.82,716.2,810.319,716.227,808,716Zm2,8h7c3.778,5.642,6.109,7.532,6,18-3.241,2.046-4.032,2.988-10,3-2.471-3.3-4.433-3.335-5-9C805.191,731.973,808.4,726.7,810,724Zm-465,1c-7.715,7.345-13.146,11.274-13,27,2.515,1.96,2.522,3.722,6,5,1.18,0.8,1.681.773,4,1,5.669-5.26,13.96-8.164,15-18,1.049-1.549,1.031-4.085,1-7a55.8,55.8,0,0,1-6-8h-7Zm-2,5h7c1.785,3.048,3.317,4.538,4,9a11.725,11.725,0,0,0-2,5c-4.529,3.1-4.923,5.838-13,6-1.667-3.1-2.1-6.486-2-12A55.8,55.8,0,0,0,343,730Zm-176,1a19.857,19.857,0,0,1,8,2c2.286,4.583,4.651,7.171,5,14a11.568,11.568,0,0,0-2,3l-6,1c-5.865-5.228-12.721-8.738-8-19C166.076,731.628,165.924,731.758,167,731Zm615,1a30.439,30.439,0,0,1,7,1c1.939,3.215,3.489,4,4,9,1.756,2.561.641,6.192,0,9-2.556,1.479-3.147,2.4-7,3-1.18-.8-1.681-0.773-4-1-0.906-2.424-1.069-1.59-2-4-3.615-4.391-1.3-11.367,0-16C781.754,732.369,780.971,732.807,782,732Zm-125,1c3.382,0.137,5.156.494,7,2,1.049,1.549,1.031,4.085,1,7l-3,1c-2.951,2-7.591.519-11,0v-2c-0.8-1.18-.773-1.681-1-4C651.914,735.873,655.088,734.48,657,733Zm25,3c-1.073.752-.946,0.6-3,1-1.065,2.878-1.709,2.662-2,7,4.418,3.249,17.222,16.118,22,4,0.752-1.073.6-.946,1-3-3.728-3.917-4.708-7.349-12-8C686.582,736.039,684.727,736.024,682,736Zm-307,1c-7.411,6.466-13.279,6.163-13,21,0.8,1.021.355,0.274,1,2a29.369,29.369,0,0,1,6,4c8.822-1.887,10.906-6.7,16-12v-8c-2.818-2.22-3.1-4.6-7-6C376.927,737.248,377.054,737.4,375,737Zm310,1,9,2c1.838,2.919,2.739,2.9,3,8a17.263,17.263,0,0,0-5,3c-6.09-1.252-10.07-3.107-10-11C684.389,739.158,683.645,739.6,685,738Zm-310,2c6.379,1.494,7.4,4.716,7,13-4.88,3.336-5.9,7.538-14,8-2.14-3.393-3.054-4.685-3-11,2.644-2.887,2.914-6.381,7-8C372.771,741.318,374.232,740.689,375,740Zm331,11c-1.332,2.84-2.409,4.156-3,8,3.4,5.231,1.8,11.334,9,13,2.347,1.544,4.281.586,7,0,0.736-3.024,1.464-3.527,2-7l-3-8c-1.474-2.209-4.395-3.6-6-6h-6Zm-506,5c5.988-.1,8.976.93,13,2a21.509,21.509,0,0,1,1,7c-3.975,2.329-6.311,3.881-13,4-1.732-1.724-2.783-1.5-4-4C194.193,760.7,198.1,758.5,200,756Zm508,0h7c1.719,4.126,3.676,4.735,4,11-0.8,1.021-.355.274-1,2h-2c-3.651,2.393-6.874-.55-8-4C706.349,762.659,707.111,758.382,708,756Zm-470,1,10,1,1,3c0.745,1.216.137,0.992,0,4h-1v1c-3.832,1.83-5.794,2.95-12,3-1.838-2.919-2.739-2.9-3-8A43.988,43.988,0,0,0,238,757Zm370,4c-12.655,11.986-15.951,14.478-22,34-1.271,4.1-3.881,14.428-1,19-0.072-20.155,9.83-46.946,25-52v-1h-2Zm83,1h4c2.636,3.933,4.054,4.612,4,12a21.509,21.509,0,0,1-7,1C690.542,771.32,689.3,766.755,691,762Zm-336,6c-1.073.752-.946,0.6-3,1-2.22,2.818-4.6,3.1-6,7-5.354,5.675-.082,13.661,7,14,5.636-5.187,10.12-5.517,10-17-2.031-1.9-1.868-2.872-5-4C356.927,768.248,357.054,768.4,355,768Zm-1,2h4c5.467,7.9,3.533,17.4-10,17-0.85-2.448-1.039-6.184-1-10A60.887,60.887,0,0,0,354,770Zm455,0c-1.18.8-1.681,0.773-4,1-4.978,11.371-10.3,14.24-6,31,4.881,1.7,5.459,3.88,13,4,7.623-9.705,9.789-14.332,6-30C814.845,773.731,813.093,771.773,809,770Zm-488,3c-8.088,10.724-8.115,16.341-4,31a29.369,29.369,0,0,1,6,4c1.754-.631.971-0.193,2-1C339.659,803.373,342.226,772.574,321,773Zm458,2,6,1c1.225,2.281,1.638,2.251,2,6,1.869,2.837.4,6.248,0,10-3.9,3.126-3.232,5.007-11,5-2-4.645-3.975-5.261-4-13C774.559,781.28,776.523,777.711,779,775Zm-458,3h6c3.2,4.252,5.075,4.723,5,13-4.141,4.939-2.055,8.194-12,8l-1-3c-2.3-2.517-2.157-6.921-2-12A32.314,32.314,0,0,0,321,778Zm488,0c2.988,1.309,4.736,1.747,6,5,3.907,4.707.976,11.6-1,16a16.531,16.531,0,0,1-8,2c-4.089-6.012-4.6-7.379-4-17C804.288,782.29,806.762,779.98,809,778Zm-91,5c-2.967,6.185-3.627,10.829-3,19,3.488,2.115,4.26,3.692,10,4,2.279-3.667,4.263-6.418,5-12-2.372-3.39-3.973-7.876-6-11h-6Zm-340,3,10,1c1.782,3.043,2.781,3.841,3,9-3.415,2-4.94,2.988-11,3-2.557-2.388-4.6-2.162-6-6-0.752-1.073-.6-0.946-1-3A24.935,24.935,0,0,0,378,786Zm320,2h5c1.225,2.281,1.638,2.251,2,6,1.737,2.5.664,6.033-1,8-0.74.872-1.26,1.128-2,2a10.965,10.965,0,0,1-5-2C693.236,798.057,695.882,791.663,698,788Zm21,0h6c1.749,3.261,2.108,7.256,2,13-2.418,1.3-2.833,1.8-7,2-2.231-3.544-3.1-5.373-3-12A11.568,11.568,0,0,0,719,788Zm-311,1,10,1c2.512,3.746,3.975,4.065,4,11-2.67,1.441-4.221,1.994-9,2C408.383,798.848,404.063,796.307,408,789Zm196,4c-2.867,3.8-4.862,3.859-5,11,1.262,1.359,1.365,1.768,2,4-5.168-.265-7.454-0.684-9,3-4.714,7.125-2.813,23.435-1,31,5.134,21.423,11.44,43.975,31,50v-1c3.284-2.544,5.157-7.06,7-11h2c1.227,4.047,2.954,5.618,8,6,5.915-5.307,17.2-14.1,11-25-2.215-3.895-3.285-5.537-9-6a18.711,18.711,0,0,1-5,3V846c-1.593-2.237-1.307-5.382-1-7,3.885,1.634,6.477,1.907,11,1,0.973-3.3,1.85-4.127,2-9-3.223-4.5-2.389-10.753-8-13-1.924-1.877-3.524-2.514-7-3a43.7,43.7,0,0,1-7,5c-2.836-1.751-6.714-4.67-8-8,4.8-2.032,7.791-3.046,8-10C619.171,796.848,616.978,792.893,604,793Zm2,3c8.588-.354,13.833,1.726,14,10-3.393,2.14-4.685,3.054-11,3-3.471-3.206-6.07-2.846-7-9A12.205,12.205,0,0,0,606,796Zm-82,6c-6.3,6.324-11.127,8.709-11,22,3.711,2.539,3.608,4.643,10,5,1.359-1.262,1.768-1.365,4-2,3.446-7.083,5.6-11.51,5-21-2.072-1.283-2.3-2.077-5-3C525.927,802.248,526.054,802.4,524,802Zm-183,4h5c1.785,3.048,3.317,4.538,4,9-3.841,4.5-2.544,8.624-11,9-1.021-.8-0.274-0.355-2-1v-2c-2.6-3.8.076-9.507,1-13A10.925,10.925,0,0,0,341,806Zm181,2h5c1.667,3.1,2.1,6.486,2,12-3.682,2.955-2.823,4.866-10,5-2.046-3.241-2.988-4.032-3-10A28.713,28.713,0,0,0,522,808Zm170,8h6c0.85,2.448,1.039,6.184,1,10-3,2.231-3.262,4.123-8,5-1.806-2.569-2.425-1.639-3-6C687.2,821.618,689.892,819.093,692,816Zm19,1c-3.488,5.288-7.563,8.359-8,17,3.772,3.055,2.968,5.634,10,6,4.038-5.459,7.024-7.812,7-18-0.8-1.021-.355-0.274-1-2a8.894,8.894,0,0,1-3-3h-5Zm51,0c5.371,2.058,6.317,3.182,6,11a11.725,11.725,0,0,0-2,5c-3.742,2.484-4.736,4.53-11,5-1.021-.8-0.274-0.355-2-1-1.489-3.146-2.6-4.409-3-9C755.177,822.631,755.713,821.729,762,817Zm-333,3h4a18.068,18.068,0,0,0,3,4,50.073,50.073,0,0,1-1,11c-1.766.961-1.68,1.257-4,2-2.24,1.4-3.276.545-6,0-0.806-3.267-1.627-3.889-2-8,1.353-1.725,2.128-4.847,3-7A10.925,10.925,0,0,0,429,820Zm202,0h8c2.764,4.551,4.1,6.762,4,15h-2c-2.358,1.461-3.768.44-7,0C631.9,830.355,628.512,827.113,631,820Zm79,2h6c0.924,2.667,1.051,6.931,1,11-0.8,1.021-.355.274-1,2-2.418,1.3-2.833,1.8-7,2-1.947-3.086-2.887-3.43-3-9A32.314,32.314,0,0,0,710,822Zm78,1c-7.985,7.45-17.043,10.208-17,26,3.715,4.024,4,7.938,11,9,9.372-7.217,18.582-12.788,15-30a15.923,15.923,0,0,1-5-5h-4Zm-472,4c-1.734,1.833-3.53,2.808-5,5-8.259,9.844,1.307,29.383,13,30,6.928-9.168,8.792-14.7,5-29C324.648,830.089,323.415,827.335,316,827Zm349,0c1.711,5.662,4.512,12.831,6,19,2.844,11.791.161,32.147-2,41-11.425,46.8-25.785,68.353-60,92-14.817,10.24-42.348,18.447-62,23v1h2c4.306-2.65,10.648-1.4,16-3l30-10c40.618-20.026,64.332-47.423,77-96C677.207,874.035,678.193,839.52,665,827Zm121,4,5,1c1.667,3.1,2.1,6.486,2,12-2.992,2.611-2.626,5.424-7,7-2.453,1.659-5.25.616-8,0-1.043-3.528-1.974-5.533-2-11C779.367,837.434,782.67,833.9,786,831Zm-469,1c3.962,0.441,6.117,1.546,8,4,3.085,3.822,1.54,9.66,1,15-3.408,2.142-6.057,4.145-10,1-2.119-2.026-2.651-2.943-3-7-2.285-3.283-.218-8.223,1-11A10.925,10.925,0,0,0,317,832Zm192,11,6,1c2.18,3.727,3.76,5.887,4,12-1.724,1.732-1.5,2.783-4,4-4.091,2.395-8.038-1.3-8-7C504.972,849.817,507.49,845.605,509,843Zm-171,9c3.907,0.407,5.6,1.046,7,4,1.438,2.15,1.113,7.308,1,11-3.115,2.414-2.167,3.682-8,4l-2-3c-2.733-3.325-2.007-9.517-1-14C337.389,853.158,336.645,853.6,338,852Zm45,1h7l1,3c3.856,6.065-4.21,13.015-11,13-2.231-3.153-3.073-3.84-3-10A36,36,0,0,0,383,853Zm38,0h5c1.441,2.67,1.994,4.221,2,9-4.177,4.606-3.428,7.174-13,7-0.736-3.024-1.464-3.527-2-7,1.988-2.151,2.666-5.148,5-7C418.771,854.318,420.232,853.689,421,853Zm330,1c-9.014,6.839-19.068,6.694-19,23,4.1,5.112,4.03,7.263,14,7,8.461-7.838,16.227-8.8,16-26a24.935,24.935,0,0,1-5-4h-6Zm-113,6h7c1.9,3.236,2.9,4.357,3,10-2.594,3.269-2.538,6.383-7,8-1.295.877-2.467,0.894-5,1-2.726-4.783-2.581-7.3-2-14A16.137,16.137,0,0,0,638,860Zm109,1h7q0.5,1.5,1,3c1.049,1.549,1.031,4.085,1,7-4.607,4.531-5.782,8.694-15,9a11.568,11.568,0,0,0-3-2C736.488,866.574,740.233,866.359,747,861ZM517,878c4.166,0.206,5.154.651,7,3,3.817,4.437,2.462,8.716,1,14a52.778,52.778,0,0,1-8,0q-0.5-1-1-2C512.2,888.48,514.753,881.843,517,878Zm192,3a34.041,34.041,0,0,1,8,1v2c1.782,2.674.491,5.722,0,9-5.9,2.651-6.147,5.962-16,6-1.489-3.146-2.6-4.409-3-9,1.547-1.585,2.243-4.68,4-6C703.982,882.51,707.051,882.45,709,881Zm-368,8a19.857,19.857,0,0,1,8,2c2.01,4.21,3.038,7.018,3,14-2.418,1.3-2.833,1.8-7,2-1.021-.8-0.274-0.355-2-1-3.1-4.628-5.83-5.864-6-14A18.068,18.068,0,0,0,341,889Zm277,6c-6.06,5.024-13.829,7.11-17,15-3.491,8.687.171,14.8,9,15,3.51-2.469,8.408-2.561,12-5,3.4-2.308,5.171-7.046,8-10,0.32-6.756-.27-11.2-5-13C623.105,895.479,621.41,895.211,618,895Zm-3,5h7c2,3.415,2.988,4.94,3,11-5.041,3.382-7.059,6.948-15,8-3.008-3.151-4.053-3.247-4-10h1C608.6,903.789,611.634,903.189,615,900ZM372,916c3.09-.094,6.33-0.14,8,1a11.481,11.481,0,0,1,8,7c1.659,2.453.616,5.25,0,8h-2c-5.533,4.017-14.385-1.295-16-5C365.708,922.514,369.586,919.181,372,916Zm201,14h7c1.285,1.834,1.968,1.712,3,4,3.564,5.072-1.5,10.749-7,11-2.787,1.926-8.018.687-11,0-1.113-2.476-1.688-3.233-2-7C566.158,935.09,569.953,932.826,573,930Zm-158,8h8c4.55,5.086,8.987,3.631,9,14-9.343,4.93-21.555,3.33-21-11A9.257,9.257,0,0,0,415,938Zm107,6c4.312,0.693,7.524,1.194,9,5,0.752,1.073.6,0.946,1,3-1.944,2.322-2.406,4.242-5,6-6.733,5.938-16.99,3.369-17-7,1.514-1.411,2.209-2.764,4-4C515.945,945.55,519.92,945.429,522,944Zm-51,4c6.681-.353,11.893-0.366,14,4,0.8,1.18.773,1.681,1,4-2.088,2.2-1.716,3.689-5,5-3.483,3.372-9.584,3.2-15,2l-1-3c-1.925-2.887-.165-6.333,1-9A17.263,17.263,0,0,0,471,948Z"/>
</svg>
