<svg height="250" viewBox="0 0 250 250" width="250" xmlns="http://www.w3.org/2000/svg"><path d="m192.308594 0h-134.617188c-31.863281 0-57.691406 25.828125-57.691406 57.691406v134.617188c0 31.863281 25.828125 57.691406 57.691406 57.691406h134.617188c31.863281 0 57.691406-25.828125 57.691406-57.691406v-134.617188c0-31.863281-25.828125-57.691406-57.691406-57.691406zm0 0" fill="#c44536"/><path d="m114.839844 172.550781c.226562-48.601562.226562-48.601562-2.332032-49.007812-10.714843-1.703125-17.550781-4.261719-25.152343-9.417969-10.207031-6.925781-16.546875-16.375-19.09375-28.46875-1.75-8.304688-1.136719-15.503906 2.210937-26.023438 3.433594-10.785156 3.535156-14.445312.570313-20.421874l-2.261719-4.558594 9.085938-3.265625c10.320312-3.710938 10.144531-3.746094 12.820312 2.523437 2.640625 6.191406 2.371094 15.5-.742188 25.460938-3.128906 10.003906-3.796874 14.726562-2.960937 20.960937 1.625 12.089844 9.136719 19.902344 22.414063 23.300781 7.171874 1.839844 25.226562 1.820313 31.601562-.03125 6.429688-1.867187 12.632812-5.472656 15.808594-9.179687 7.085937-8.285156 8.363281-18.957031 3.992187-33.34375-3.972656-13.066406-3.757812-24.292969.578125-30.359375 1.292969-1.8125 1.292969-1.8125 8.539063.234375 13.179687 3.726563 12.242187 2.988281 9.566406 7.535156-3.109375 5.289063-3.015625 9.589844.488281 22.082031 4.003906 14.261719 3.636719 23.078126-1.433594 34.765626-3.535156 8.144531-11.90625 16.800781-20.238281 20.921874-6.523437 3.230469-17.714843 6.921876-20.972656 6.921876-3.792969 0-4.175781.484374-3.554687 4.46875.3125 1.996093.585937 23.851562.609374 48.570312l.042969 44.933594h-19.8125zm-46.167969 23.917969v-9.257812h35.800781v18.515624h-35.800781zm75.984375 0v-9.257812h35.796875v18.515624h-35.796875zm-75.984375-30.089844v-9.253906h35.800781v18.511719h-35.800781zm75.984375 0v-9.253906h35.796875v18.511719h-35.796875zm-75.984375-30.085937v-9.253907h35.800781v18.511719h-35.800781zm75.984375 0v-9.253907h35.796875v18.511719h-35.796875zm-12.324219-42.621094c-2.070312-4.347656-4.851562-11.136719-6.183593-15.082031l-2.421876-7.171875-1.246093 4.859375c-1.488281 5.820312-9.921875 24.550781-11.023438 24.484375-.425781-.023438-4.300781-1.847657-8.605469-4.050781l-7.832031-4.003907 10.386719-20.617187 10.390625-20.617188 8.066406-.019531 8.070313-.019531 10.429687 20.519531c5.738281 11.285156 10.324219 20.613281 10.195313 20.730469-.53125.492187-15.730469 8.894531-16.082032 8.894531-.210937 0-2.074218-3.558594-4.144531-7.90625zm0 0" fill="#fff"/></svg>