
<svg xmlns="http://www.w3.org/2000/svg" xmlns:xlink="http://www.w3.org/1999/xlink" width="250px" height="250px" viewBox="0 0 250 250" version="1.1">
<defs>
<linearGradient id="linear0" gradientUnits="userSpaceOnUse" x1="55.644199" y1="108.865997" x2="80.689697" y2="14.0648" gradientTransform="matrix(1.953125,0,0,1.953125,0,0)">
<stop offset="0" style="stop-color:rgb(55.29412%,55.29412%,55.29412%);stop-opacity:1;"/>
<stop offset="0.0820154" style="stop-color:rgb(57.647061%,57.647061%,57.647061%);stop-opacity:1;"/>
<stop offset="0.225294" style="stop-color:rgb(100%,100%,100%);stop-opacity:1;"/>
<stop offset="0.40625" style="stop-color:rgb(100%,100%,100%);stop-opacity:1;"/>
<stop offset="0.565835" style="stop-color:rgb(100%,100%,100%);stop-opacity:1;"/>
<stop offset="0.729167" style="stop-color:rgb(100%,100%,100%);stop-opacity:1;"/>
<stop offset="0.874661" style="stop-color:rgb(42.745098%,42.745098%,42.745098%);stop-opacity:1;"/>
<stop offset="1" style="stop-color:rgb(46.27451%,46.27451%,46.27451%);stop-opacity:1;"/>
</linearGradient>
<linearGradient id="linear1" gradientUnits="userSpaceOnUse" x1="77.8881" y1="64.019402" x2="93.2967" y2="45.8116" gradientTransform="matrix(1.953125,0,0,1.953125,0,0)">
<stop offset="0" style="stop-color:rgb(69.01961%,69.01961%,69.01961%);stop-opacity:1;"/>
<stop offset="0.31001" style="stop-color:rgb(100%,100%,100%);stop-opacity:1;"/>
<stop offset="0.548888" style="stop-color:rgb(99.215686%,99.215686%,99.215686%);stop-opacity:1;"/>
<stop offset="0.989583" style="stop-color:rgb(35.294119%,34.509805%,34.509805%);stop-opacity:1;"/>
</linearGradient>
<linearGradient id="linear2" gradientUnits="userSpaceOnUse" x1="57.036499" y1="66.8573" x2="54.751202" y2="28.8573" gradientTransform="matrix(1.953125,0,0,1.953125,0,0)">
<stop offset="0.078125" style="stop-color:rgb(51.764709%,51.764709%,51.764709%);stop-opacity:1;"/>
<stop offset="0.322917" style="stop-color:rgb(85.490197%,85.09804%,85.09804%);stop-opacity:1;"/>
<stop offset="0.854167" style="stop-color:rgb(100%,99.607843%,99.607843%);stop-opacity:1;"/>
<stop offset="1" style="stop-color:rgb(51.764709%,51.764709%,51.764709%);stop-opacity:1;"/>
</linearGradient>
<linearGradient id="linear3" gradientUnits="userSpaceOnUse" x1="29.961" y1="58.580299" x2="39.302799" y2="39.480801" gradientTransform="matrix(1.953125,0,0,1.953125,0,0)">
<stop offset="0" style="stop-color:rgb(43.921569%,43.921569%,43.921569%);stop-opacity:1;"/>
<stop offset="0.328125" style="stop-color:rgb(100%,100%,100%);stop-opacity:1;"/>
<stop offset="0.489583" style="stop-color:rgb(100%,100%,100%);stop-opacity:1;"/>
<stop offset="0.6875" style="stop-color:rgb(100%,100%,100%);stop-opacity:1;"/>
<stop offset="1" style="stop-color:rgb(46.27451%,46.27451%,46.27451%);stop-opacity:1;"/>
</linearGradient>
</defs>
<g id="surface1">
<path style=" stroke:none;fill-rule:nonzero;fill:rgb(9.803922%,9.411765%,12.54902%);fill-opacity:1;" d="M 250 125 C 250 194.035156 194.035156 250 125 250 C 55.964844 250 0 194.035156 0 125 C 0 55.964844 55.964844 0 125 0 C 194.035156 0 250 55.964844 250 125 Z M 250 125 "/>
<path style=" stroke:none;fill-rule:nonzero;fill:url(#linear0);" d="M 200.441406 162.046875 C 205.84375 151.0625 208.867188 138.722656 208.867188 125.683594 L 179.964844 125.683594 C 179.964844 134.808594 177.675781 143.402344 173.632812 150.9375 C 173.566406 151.0625 173.484375 151.210938 173.417969 151.339844 C 169.714844 158.132812 164.566406 164.058594 158.40625 168.671875 C 158.363281 168.714844 158.296875 168.738281 158.257812 168.78125 C 157.683594 169.203125 157.113281 169.605469 156.542969 170.007812 C 156.308594 170.15625 156.074219 170.324219 155.84375 170.472656 C 155.441406 170.726562 155.039062 171 154.636719 171.253906 C 154.210938 171.53125 153.765625 171.785156 153.320312 172.039062 C 153.109375 172.164062 152.898438 172.292969 152.6875 172.421875 C 152.050781 172.78125 151.417969 173.140625 150.757812 173.457031 C 150.738281 173.476562 150.71875 173.476562 150.675781 173.5 C 143.792969 177.011719 136.191406 179.023438 128.417969 179.363281 C 128.332031 179.363281 128.25 179.363281 128.164062 179.363281 C 127.402344 179.382812 126.640625 179.40625 125.875 179.40625 C 125.601562 179.40625 125.304688 179.382812 125.03125 179.382812 C 124.4375 179.363281 123.84375 179.363281 123.273438 179.320312 C 122.847656 179.296875 122.425781 179.257812 122.023438 179.214844 C 121.554688 179.171875 121.089844 179.152344 120.644531 179.109375 C 120.136719 179.066406 119.652344 178.980469 119.140625 178.917969 C 118.761719 178.875 118.378906 178.832031 118 178.769531 C 117.554688 178.707031 117.109375 178.601562 116.664062 178.535156 C 116.242188 178.453125 115.796875 178.390625 115.371094 178.304688 C 115.203125 178.261719 115.054688 178.21875 114.886719 178.199219 C 114.1875 178.050781 113.46875 177.878906 112.769531 177.710938 C 112.726562 177.691406 112.683594 177.691406 112.640625 177.667969 C 111.816406 177.457031 111.011719 177.222656 110.207031 176.96875 C 110.035156 176.929688 109.867188 176.863281 109.71875 176.800781 C 109.039062 176.589844 108.363281 176.355469 107.6875 176.101562 C 107.347656 175.976562 107.027344 175.847656 106.710938 175.722656 C 106.222656 175.53125 105.714844 175.339844 105.230469 175.128906 C 104.742188 174.917969 104.277344 174.707031 103.789062 174.472656 C 103.472656 174.324219 103.152344 174.199219 102.835938 174.027344 C 102.09375 173.667969 101.355469 173.289062 100.632812 172.886719 C 90.765625 167.53125 82.761719 159.191406 77.847656 149.074219 C 77.804688 148.96875 77.761719 148.882812 77.699219 148.796875 C 77.421875 148.226562 77.167969 147.65625 76.914062 147.0625 C 76.789062 146.746094 76.640625 146.429688 76.511719 146.109375 C 76.34375 145.707031 76.195312 145.304688 76.027344 144.902344 C 75.835938 144.417969 75.664062 143.953125 75.496094 143.464844 C 75.390625 143.167969 75.285156 142.851562 75.179688 142.535156 C 75.007812 141.984375 74.820312 141.453125 74.671875 140.902344 C 74.585938 140.585938 74.480469 140.269531 74.394531 139.929688 C 74.269531 139.441406 74.121094 138.933594 74.015625 138.449219 C 73.90625 138.003906 73.800781 137.582031 73.71875 137.136719 C 73.632812 136.777344 73.546875 136.394531 73.484375 136.035156 C 73.359375 135.421875 73.25 134.785156 73.144531 134.152344 C 73.125 133.984375 73.082031 133.792969 73.0625 133.621094 C 72.679688 131.019531 72.46875 128.351562 72.46875 125.644531 C 72.46875 119.335938 73.570312 113.28125 75.582031 107.671875 C 75.644531 107.484375 75.707031 107.3125 75.773438 107.121094 C 75.960938 106.59375 76.195312 106.0625 76.40625 105.535156 C 76.535156 105.238281 76.640625 104.941406 76.765625 104.644531 C 77 104.117188 77.234375 103.585938 77.488281 103.058594 C 77.613281 102.804688 77.71875 102.53125 77.847656 102.277344 C 78.207031 101.554688 78.566406 100.835938 78.949219 100.117188 C 78.96875 100.09375 78.96875 100.054688 78.992188 100.03125 C 84.347656 90.191406 92.691406 82.210938 102.792969 77.300781 C 102.898438 77.257812 103.003906 77.195312 103.109375 77.152344 C 103.664062 76.875 104.234375 76.621094 104.804688 76.390625 C 105.144531 76.242188 105.460938 76.09375 105.800781 75.964844 C 106.183594 75.796875 106.585938 75.648438 106.964844 75.5 C 107.453125 75.308594 107.960938 75.121094 108.449219 74.949219 C 108.746094 74.84375 109.019531 74.757812 109.316406 74.652344 C 109.867188 74.464844 110.4375 74.292969 111.011719 74.125 C 111.308594 74.039062 111.625 73.957031 111.921875 73.871094 C 112.429688 73.722656 112.957031 73.59375 113.46875 73.46875 C 113.890625 73.363281 114.292969 73.277344 114.714844 73.171875 C 115.097656 73.085938 115.5 73.003906 115.882812 72.917969 C 116.472656 72.792969 117.089844 72.6875 117.679688 72.601562 C 117.871094 72.558594 118.082031 72.539062 118.296875 72.496094 C 120.898438 72.113281 123.546875 71.902344 126.257812 71.902344 C 134.367188 71.882812 142.414062 73.703125 149.914062 77.382812 L 162.617188 51.433594 C 147.394531 43.964844 130.621094 41.421875 114.1875 43.878906 C 113.46875 43.984375 112.726562 44.113281 112.007812 44.21875 C 111.582031 44.300781 111.160156 44.367188 110.757812 44.449219 C 109.632812 44.660156 108.511719 44.894531 107.410156 45.148438 C 107.367188 45.148438 107.324219 45.167969 107.304688 45.167969 C 103.324219 46.101562 99.449219 47.328125 95.71875 48.808594 C 95.59375 48.851562 95.488281 48.917969 95.359375 48.957031 C 94.324219 49.382812 93.304688 49.804688 92.3125 50.269531 C 91.824219 50.484375 91.335938 50.734375 90.851562 50.949219 C 90.53125 51.097656 90.214844 51.246094 89.898438 51.414062 C 75.136719 58.609375 62.960938 69.953125 54.699219 84.285156 C 54.636719 84.390625 54.574219 84.476562 54.53125 84.582031 C 54.214844 85.132812 53.917969 85.679688 53.597656 86.230469 C 53.15625 87.035156 52.730469 87.839844 52.328125 88.664062 C 52.222656 88.855469 52.117188 89.046875 52.03125 89.257812 C 51.96875 89.386719 51.925781 89.492188 51.863281 89.617188 C 51.375 90.613281 50.929688 91.609375 50.484375 92.625 C 50.402344 92.835938 50.296875 93.046875 50.210938 93.257812 C 49.765625 94.296875 49.34375 95.332031 48.960938 96.390625 C 48.875 96.625 48.769531 96.855469 48.6875 97.089844 C 48.328125 98.042969 47.988281 99.015625 47.667969 100.011719 C 47.542969 100.390625 47.414062 100.773438 47.308594 101.152344 C 47.054688 101.957031 46.824219 102.761719 46.609375 103.566406 C 46.335938 104.519531 46.101562 105.492188 45.871094 106.464844 C 45.828125 106.679688 45.765625 106.910156 45.722656 107.121094 C 43.390625 117.15625 42.988281 127.484375 44.515625 137.707031 C 44.621094 138.40625 44.726562 139.105469 44.851562 139.804688 C 44.9375 140.246094 45 140.691406 45.085938 141.136719 C 45.296875 142.257812 45.53125 143.359375 45.785156 144.460938 C 45.804688 144.5 45.804688 144.566406 45.828125 144.609375 C 46.757812 148.566406 47.988281 152.4375 49.46875 156.144531 C 49.511719 156.269531 49.574219 156.398438 49.617188 156.523438 C 50.019531 157.539062 50.445312 158.535156 50.910156 159.53125 C 51.144531 160.039062 51.375 160.546875 51.609375 161.03125 C 51.757812 161.328125 51.90625 161.644531 52.054688 161.941406 C 59.253906 176.714844 70.605469 188.886719 84.960938 197.140625 C 85.070312 197.203125 85.152344 197.25 85.238281 197.3125 C 85.789062 197.628906 86.339844 197.945312 86.890625 198.242188 C 87.695312 198.6875 88.519531 199.109375 89.324219 199.511719 C 89.515625 199.617188 89.707031 199.726562 89.917969 199.808594 C 90.085938 199.890625 90.257812 199.976562 90.449219 200.0625 C 90.53125 200.105469 90.636719 200.148438 90.722656 200.1875 C 91.484375 200.546875 92.246094 200.910156 93.011719 201.226562 C 93.414062 201.398438 93.792969 201.585938 94.195312 201.757812 C 94.449219 201.859375 94.726562 201.96875 94.980469 202.074219 C 95.425781 202.265625 95.867188 202.433594 96.3125 202.601562 C 96.566406 202.710938 96.820312 202.792969 97.097656 202.898438 C 97.542969 203.070312 98.007812 203.238281 98.453125 203.40625 C 98.707031 203.492188 98.960938 203.597656 99.214844 203.679688 C 99.679688 203.851562 100.148438 204 100.613281 204.148438 C 100.867188 204.234375 101.101562 204.316406 101.355469 204.382812 C 101.839844 204.53125 102.347656 204.679688 102.835938 204.824219 C 103.046875 204.890625 103.257812 204.953125 103.492188 205.015625 C 104.085938 205.1875 104.699219 205.351562 105.3125 205.523438 C 105.417969 205.546875 105.527344 205.585938 105.652344 205.609375 C 106.351562 205.796875 107.070312 205.96875 107.792969 206.136719 C 108.023438 206.203125 108.257812 206.242188 108.511719 206.285156 C 108.976562 206.390625 109.464844 206.5 109.929688 206.582031 C 110.25 206.644531 110.542969 206.710938 110.863281 206.75 C 111.265625 206.835938 111.667969 206.898438 112.089844 206.984375 C 112.429688 207.046875 112.769531 207.089844 113.105469 207.152344 C 113.488281 207.21875 113.890625 207.28125 114.273438 207.34375 C 114.609375 207.386719 114.949219 207.449219 115.289062 207.492188 C 115.691406 207.535156 116.070312 207.597656 116.472656 207.640625 C 116.8125 207.679688 117.128906 207.726562 117.46875 207.746094 C 117.894531 207.789062 118.316406 207.828125 118.761719 207.875 C 119.058594 207.894531 119.355469 207.9375 119.628906 207.957031 C 120.136719 208 120.667969 208.042969 121.175781 208.0625 C 121.367188 208.085938 121.578125 208.085938 121.769531 208.105469 C 123.292969 208.1875 124.816406 208.234375 126.34375 208.234375 C 142.140625 208.234375 156.921875 203.789062 169.480469 196.0625 C 169.5 196.039062 169.523438 196.039062 169.523438 196.019531 C 170.136719 195.640625 170.730469 195.257812 171.34375 194.875 C 171.726562 194.644531 172.085938 194.390625 172.464844 194.136719 C 172.53125 194.09375 172.613281 194.03125 172.679688 193.988281 C 183.796875 186.496094 193.21875 176.1875 199.785156 163.507812 C 199.890625 163.296875 200.015625 163.0625 200.125 162.851562 C 200.125 162.640625 200.292969 162.34375 200.441406 162.046875 Z M 200.441406 162.046875 "/>
<path style=" stroke:none;fill-rule:nonzero;fill:url(#linear1);" d="M 149.945312 96.417969 L 179.464844 96.417969 L 179.464844 125.921875 L 149.945312 125.921875 Z M 149.945312 96.417969 "/>
<path style=" stroke:none;fill-rule:nonzero;fill:url(#linear2);" d="M 101.5625 95.703125 C 101.5625 116.199219 84.949219 132.8125 64.453125 132.8125 C 43.957031 132.8125 27.34375 116.199219 27.34375 95.703125 C 27.34375 75.207031 43.957031 58.59375 64.453125 58.59375 C 84.949219 58.59375 101.5625 75.207031 101.5625 95.703125 Z M 101.5625 95.703125 "/>
<path style=" stroke:none;fill-rule:nonzero;fill:rgb(9.803922%,9.411765%,12.54902%);fill-opacity:1;" d="M 97.65625 95.703125 C 97.65625 114.039062 82.789062 128.90625 64.453125 128.90625 C 46.117188 128.90625 31.25 114.039062 31.25 95.703125 C 31.25 77.367188 46.117188 62.5 64.453125 62.5 C 82.789062 62.5 97.65625 77.367188 97.65625 95.703125 Z M 97.65625 95.703125 "/>
<path style=" stroke:none;fill-rule:nonzero;fill:url(#linear3);" d="M 74.300781 87.628906 C 72.546875 86.851562 70.914062 86.269531 69.410156 85.882812 C 67.90625 85.445312 66.300781 85.226562 64.597656 85.226562 C 63.34375 85.226562 62.367188 85.46875 61.664062 85.953125 C 61.011719 86.390625 60.6875 87.019531 60.6875 87.84375 C 60.6875 88.429688 61.085938 88.984375 61.890625 89.519531 C 62.742188 90.050781 64.097656 90.632812 65.953125 91.265625 C 69.011719 92.332031 71.84375 93.835938 74.449219 95.777344 C 77.058594 97.667969 78.363281 100.140625 78.363281 103.195312 C 78.363281 106.691406 77.058594 109.40625 74.449219 111.347656 C 71.894531 113.285156 68.132812 114.257812 63.167969 114.257812 C 61.613281 114.257812 59.53125 113.964844 56.925781 113.382812 C 54.367188 112.800781 52.238281 111.878906 50.53125 110.617188 L 53.464844 103.78125 C 55.21875 104.554688 56.902344 105.160156 58.503906 105.597656 C 60.160156 105.984375 61.664062 106.179688 63.019531 106.179688 C 64.824219 106.179688 66.203125 105.9375 67.15625 105.453125 C 68.109375 104.96875 68.585938 104.335938 68.585938 103.5625 C 68.585938 102.589844 68.109375 101.71875 67.15625 100.941406 C 66.203125 100.164062 64.699219 99.460938 62.640625 98.832031 C 59.734375 97.910156 56.976562 96.601562 54.367188 94.902344 C 51.8125 93.15625 50.53125 90.828125 50.53125 87.917969 C 50.53125 84.570312 51.8125 81.953125 54.367188 80.0625 C 56.925781 78.121094 60.386719 77.148438 64.75 77.148438 C 66.300781 77.148438 68.308594 77.464844 70.765625 78.097656 C 73.222656 78.726562 75.378906 79.648438 77.234375 80.859375 Z M 74.300781 87.628906 "/>
</g>
</svg>
