<svg height="250" viewBox="0 0 250 250" width="250" xmlns="http://www.w3.org/2000/svg" xmlns:xlink="http://www.w3.org/1999/xlink"><linearGradient id="a" gradientUnits="userSpaceOnUse" x1="108.68007617188" x2="157.59706445313" y1="212.62890039062" y2="27.4703125"><stop offset="0" stop-color="#8d8d8d"/><stop offset=".0820154" stop-color="#939393"/><stop offset=".225294" stop-color="#fff"/><stop offset=".40625" stop-color="#fff"/><stop offset=".565835" stop-color="#fff"/><stop offset=".729167" stop-color="#fff"/><stop offset=".874661" stop-color="#6d6d6d"/><stop offset="1" stop-color="#767676"/></linearGradient><linearGradient id="b" gradientUnits="userSpaceOnUse" x1="152.1251953125" x2="182.2201171875" y1="125.03789453125" y2="89.47578125"><stop offset="0" stop-color="#b0b0b0"/><stop offset=".31001" stop-color="#fff"/><stop offset=".548888" stop-color="#fdfdfd"/><stop offset=".989583" stop-color="#5a5858"/></linearGradient><linearGradient id="c" gradientUnits="userSpaceOnUse" x1="111.39941210938" x2="106.93594140625" y1="130.5806640625" y2="56.3619140625"><stop offset=".078125" stop-color="#848484"/><stop offset=".322917" stop-color="#dad9d9"/><stop offset=".854167" stop-color="#fffefe"/><stop offset="1" stop-color="#848484"/></linearGradient><linearGradient id="d" gradientUnits="userSpaceOnUse" x1="58.517578125" x2="76.76327929688" y1="114.41464648438" y2="77.11093945313"><stop offset="0" stop-color="#707070"/><stop offset=".328125" stop-color="#fff"/><stop offset=".489583" stop-color="#fff"/><stop offset=".6875" stop-color="#fff"/><stop offset="1" stop-color="#767676"/></linearGradient><path d="m250 125c0 69.035156-55.964844 125-125 125s-125-55.964844-125-125 55.964844-125 125-125 125 55.964844 125 125zm0 0" fill="#191820"/><path d="m200.441406 162.046875c5.402344-10.984375 8.425782-23.324219 8.425782-36.363281h-28.902344c0 9.125-2.289063 17.71875-6.332032 25.253906-.066406.125-.148437.273438-.214843.402344-3.703125 6.792968-8.851563 12.71875-15.011719 17.332031-.042969.042969-.109375.066406-.148438.109375-.574218.421875-1.144531.824219-1.714843 1.226562-.234375.148438-.46875.316407-.699219.464844-.402344.253906-.804688.527344-1.207031.78125-.425781.277344-.871094.53125-1.316407.785156-.210937.125-.421874.253907-.632812.382813-.636719.359375-1.269531.71875-1.929688 1.035156-.019531.019531-.039062.019531-.082031.042969-6.882812 3.511719-14.484375 5.523438-22.257812 5.863281-.085938 0-.167969 0-.253907 0-.761718.019531-1.523437.042969-2.289062.042969-.273438 0-.570312-.023438-.84375-.023438-.59375-.019531-1.1875-.019531-1.757812-.0625-.425782-.023437-.847657-.0625-1.25-.105468-.46875-.042969-.933594-.0625-1.378907-.105469-.507812-.042969-.992187-.128906-1.503906-.191406-.378906-.042969-.761719-.085938-1.140625-.148438-.445312-.0625-.890625-.167969-1.335938-.234375-.421874-.082031-.867187-.144531-1.292968-.230468-.167969-.042969-.316406-.085938-.484375-.105469-.699219-.148438-1.417969-.320313-2.117188-.488281-.042969-.019532-.085937-.019532-.128906-.042969-.824219-.210938-1.628906-.445313-2.433594-.699219-.171875-.039062-.339843-.105469-.488281-.167969-.679688-.210937-1.355469-.445312-2.03125-.699219-.339844-.125-.660156-.253906-.976562-.378906-.488282-.191406-.996094-.382812-1.480469-.59375-.488281-.210937-.953125-.421875-1.441407-.65625-.316406-.148437-.636718-.273437-.953124-.445312-.742188-.359375-1.480469-.738282-2.203126-1.140625-9.867187-5.355469-17.871093-13.695313-22.785156-23.8125-.042968-.105469-.085937-.191407-.148437-.277344-.277344-.570313-.53125-1.140625-.785157-1.734375-.125-.316406-.273437-.632812-.402343-.953125-.167969-.402344-.316407-.804687-.484375-1.207031-.191406-.484375-.363282-.949219-.53125-1.4375-.105469-.296875-.210938-.613282-.316406-.929688-.171876-.550781-.359376-1.082031-.507813-1.632812-.085937-.316406-.191406-.632813-.277344-.972656-.125-.488282-.273437-.996094-.378906-1.480469-.109375-.445313-.214844-.867188-.296875-1.3125-.085938-.359375-.171875-.742188-.234375-1.101563-.125-.613281-.234375-1.25-.339844-1.882812-.019531-.167969-.0625-.359375-.082031-.53125-.382812-2.601563-.59375-5.269532-.59375-7.976563 0-6.308593 1.101562-12.363281 3.113281-17.972656.0625-.1875.125-.359375.191407-.550781.1875-.527344.421874-1.058594.632812-1.585938.128906-.296875.234375-.59375.359375-.890625.234375-.527343.46875-1.058593.722656-1.585937.125-.253906.230469-.527344.359375-.78125.359375-.722656.71875-1.441406 1.101563-2.160156.019531-.023438.019531-.0625.042969-.085938 5.355468-9.839844 13.699218-17.820312 23.800781-22.730469.105469-.042969.210937-.105469.316406-.148437.554687-.277344 1.125-.53125 1.695313-.761719.339843-.148437.65625-.296875.996093-.425781.382813-.167969.785157-.316406 1.164063-.464844.488281-.191406.996094-.378906 1.484375-.550781.296875-.105469.570312-.191407.867187-.296875.550782-.1875 1.121094-.359375 1.695313-.527344.296875-.085938.613281-.167969.910156-.253906.507813-.148438 1.035156-.277344 1.546875-.402344.421875-.105469.824219-.191406 1.246094-.296875.382812-.085937.785156-.167969 1.167968-.253906.589844-.125 1.207032-.230469 1.796876-.316407.191406-.042968.402343-.0625.617187-.105468 2.601563-.382813 5.25-.59375 7.960937-.59375 8.109376-.019532 16.15625 1.800781 23.65625 5.480468l12.703126-25.949218c-15.222657-7.46875-31.996094-10.011719-48.429688-7.554688-.71875.105469-1.460938.234375-2.179688.339844-.425781.082031-.847656.148438-1.25.230469-1.125.210937-2.246093.445312-3.347656.699219-.042968 0-.085937.019531-.105468.019531-3.980469.933593-7.855469 2.160156-11.585938 3.640625-.125.042968-.230469.109375-.359375.148437-1.035156.425781-2.054687.847657-3.046875 1.3125-.488281.214844-.976562.464844-1.460938.679688-.320312.148437-.636718.296875-.953124.464843-14.761719 7.195313-26.9375 18.539063-35.199219 32.871094-.0625.105469-.125.191406-.167969.296875-.316406.550781-.613281 1.097657-.933594 1.648438-.441406.804687-.867187 1.609375-1.269531 2.433593-.105469.191407-.210937.382813-.296875.59375-.0625.128907-.105469.234376-.167969.359376-.488281.996093-.933593 1.992187-1.378906 3.007812-.082031.210938-.1875.421875-.273437.632812-.445313 1.039063-.867188 2.074219-1.25 3.132813-.085938.234375-.191407.464844-.273438.699219-.359375.953125-.699219 1.925781-1.019531 2.921875-.125.378906-.253907.761719-.359375 1.140625-.253906.804687-.484375 1.609375-.699219 2.414062-.273437.953125-.507813 1.925782-.738281 2.898438-.042969.214844-.105469.445312-.148438.65625-2.332031 10.035156-2.734375 20.363281-1.207031 30.585937.105469.699219.210937 1.398438.335937 2.097657.085938.441406.148438.886718.234376 1.332031.210937 1.121093.445312 2.222656.699218 3.324219.019532.039062.019532.105468.042969.148437.929687 3.957031 2.160156 7.828125 3.640625 11.535156.042969.125.105469.253907.148438.378907.402343 1.015624.828124 2.011718 1.292968 3.007812.234375.507812.464844 1.015625.699219 1.5.148437.296875.296875.613281.445313.910156 7.199218 14.773438 18.550781 26.945313 32.90625 35.199219.109374.0625.191406.109375.277343.171875.550781.316406 1.101563.632812 1.652344.929688.804687.445312 1.628906.867187 2.433594 1.269531.191406.105469.382812.214843.59375.296875.167969.082031.339843.167968.53125.253906.082031.042969.1875.085938.273437.125.761719.359375 1.523438.722656 2.289063 1.039062.402343.171876.78125.359376 1.183593.53125.253907.101563.53125.210938.785157.316407.445312.191406.886719.359375 1.332031.527343.253906.109376.507812.191407.785156.296876.445313.171874.910156.339843 1.355469.507812.253906.085938.507813.191406.761719.273438.464844.171874.933594.320312 1.398437.46875.253907.085937.488281.167968.742188.234374.484375.148438.992187.296876 1.480469.441407.210937.066406.421874.128906.65625.191406.59375.171875 1.207031.335937 1.820312.507813.105469.023437.214844.0625.339844.085937.699218.1875 1.417968.359375 2.140625.527344.230469.066406.464843.105469.71875.148437.464843.105469.953125.214844 1.417969.296875.320312.0625.613281.128907.933593.167969.402344.085938.804688.148438 1.226563.234375.339844.0625.679687.105469 1.015625.167969.382812.066406.785156.128906 1.167969.191406.335937.042969.675781.105469 1.015624.148438.402344.042968.78125.105468 1.183594.148437.339844.039063.65625.085937.996094.105469.425781.042968.847656.082031 1.292969.128906.296875.019531.59375.0625.867187.082031.507813.042969 1.039063.085938 1.546875.105469.191407.023438.402344.023438.59375.042969 1.523438.082031 3.046875.128906 4.574219.128906 15.796875 0 30.578125-4.445313 43.136719-12.171875.019531-.023438.042969-.023438.042969-.042969.613281-.378906 1.207031-.761719 1.820312-1.144531.382812-.230469.742188-.484375 1.121094-.738281.066406-.042969.148437-.105469.214844-.148438 11.117187-7.492187 20.539062-17.800781 27.105468-30.480469.105469-.210937.230469-.445312.339844-.65625 0-.210937.167969-.507812.316406-.804687zm0 0" fill="url(#a)"/><path d="m149.945312 96.417969h29.519532v29.503906h-29.519532zm0 0" fill="url(#b)"/><path d="m101.5625 95.703125c0 20.496094-16.613281 37.109375-37.109375 37.109375s-37.109375-16.613281-37.109375-37.109375 16.613281-37.109375 37.109375-37.109375 37.109375 16.613281 37.109375 37.109375zm0 0" fill="url(#c)"/><path d="m97.65625 95.703125c0 18.335937-14.867188 33.203125-33.203125 33.203125s-33.203125-14.867188-33.203125-33.203125 14.867188-33.203125 33.203125-33.203125 33.203125 14.867188 33.203125 33.203125zm0 0" fill="#191820"/><path d="m74.300781 87.628906c-1.753906-.777344-3.386719-1.359375-4.890625-1.746094-1.503906-.4375-3.109375-.65625-4.8125-.65625-1.253906 0-2.230468.242188-2.933594.726563-.652343.4375-.976562 1.066406-.976562 1.890625 0 .585938.398438 1.140625 1.203125 1.675781.851563.53125 2.207031 1.113281 4.0625 1.746094 3.058594 1.066406 5.890625 2.570313 8.496094 4.511719 2.609375 1.890625 3.914062 4.363281 3.914062 7.417968 0 3.496094-1.304687 6.210938-3.914062 8.152344-2.554688 1.9375-6.316407 2.910156-11.28125 2.910156-1.554688 0-3.636719-.292968-6.242188-.875-2.558593-.582031-4.6875-1.503906-6.394531-2.765624l2.933594-6.835938c1.753906.773438 3.4375 1.378906 5.039062 1.816406 1.65625.386719 3.160156.582032 4.515625.582032 1.804688 0 3.183594-.242188 4.136719-.726563s1.429688-1.117187 1.429688-1.890625c0-.972656-.476563-1.84375-1.429688-2.621094s-2.457031-1.480468-4.515625-2.109375c-2.90625-.921875-5.664063-2.230469-8.273437-3.929687-2.554688-1.746094-3.835938-4.074219-3.835938-6.984375 0-3.347657 1.28125-5.964844 3.835938-7.855469 2.558593-1.941406 6.019531-2.914062 10.382812-2.914062 1.550781 0 3.558594.316406 6.015625.949218 2.457031.628906 4.613281 1.550782 6.46875 2.761719zm0 0" fill="url(#d)"/></svg>