<svg height="250" viewBox="0 0 250 250" width="250" xmlns="http://www.w3.org/2000/svg"><path d="m183.023438 21.996094c-6.503907 6.429687-12.460938 13.402344-17.757813 20.835937l-1.675781-.539062c-9.65625-3.117188-19.664063-5.042969-29.75-5.699219-3.035156-.230469-14.367188-.230469-18.066406 0-11.175782.730469-19.746094 2.386719-29.480469 5.738281-.390625.15625-.738281.269531-1.089844.386719-5.492187-7.394531-11.605469-14.328125-18.339844-20.6875 32.320313-16.371094 70.132813-18.335938 103.972657-5.429688 3.621093 1.347657 7.164062 2.925782 10.628906 4.621094zm0 0" fill="#f00500"/><path d="m243.304688 168.105469c-4.910157 13.828125-12.269532 26.65625-21.808594 37.824219-5.179688 6.011718-10.902344 11.519531-17.054688 16.527343-14.410156 11.480469-31.230468 19.683594-49.183594 23.996094-19.859374 4.738281-40.578124 4.738281-60.4375 0-17.988281-4.3125-34.773437-12.515625-49.179687-23.996094-6.152344-5.007812-11.878906-10.515625-17.058594-16.527343-27.453125-32.085938-35.785156-76.152344-21.804687-115.871094 2.648437-7.355469 5.957031-14.445313 9.929687-21.183594 1.828125-3.082031 4.089844-6.550781 5.179688-7.976562 3.738281 15.910156 8.332031 29.894531 10.046875 34.941406-.117188.269531-.273438.578125-.429688.847656-9.074218 18.179688-13.980468 35.707031-15.148437 54.351562 0 .230469-.039063.5-.039063.730469-.3125 5.585938-.15625 8.246094.78125 11.75 2.917969 10.980469 11.914063 23.074219 26.011719 34.9375 23.089844 19.414063 54.398437 33.4375 78.113281 35.054688 24.726563 1.65625 61.214844-12.632813 85.515625-33.511719 3.816407-3.351562 7.398438-6.894531 10.746094-10.671875 2.414063-2.773437 5.996094-7.550781 5.726563-7.550781-.078126 0 0-.074219.15625-.152344.113281-.078125.230468-.191406.152343-.269531-.039062-.039063.039063-.15625.15625-.191407.117188-.039062.195313-.117187.15625-.195312-.039062-.078125 0-.152344.15625-.191406.117188-.039063.15625-.15625.117188-.230469-.039063-.078125 0-.15625.078125-.15625s.15625-.113281.15625-.191406.078125-.191407.15625-.191407.152344-.078124.152344-.15625c.117187-.308593.3125-.617187.507812-.886718.585938-.882813 2.921875-5.007813 3.230469-5.699219 2.222656-4.96875 3.625-9.398437 4.285156-13.828125.3125-2.121094.507813-6.011719.351563-6.933594-.039063-.15625-.039063-.425781-.078126-.847656-.078124-.769531-.117187-1.925781-.195312-3.082031-.078125-1.734375-.234375-4.160157-.351562-5.355469-1.671876-17.488281-6.191407-31.777344-14.757813-46.917969-.351563-.578125-.660156-1.15625-.855469-1.617187-.078125-.117188-.117187-.230469-.15625-.308594 1.207032-3.582031 6.152344-18.566406 10.085938-35.707031l.078125.074219.582031.769531c1.011719 1.351562 3.699219 5.355469 4.90625 7.28125 5.492188 8.859375 9.777344 18.375 12.8125 28.3125 7.046875 23.921875 6.464844 49.421875-1.789062 73zm0 0" fill="#f00500"/><path d="m192.757812 122.070312c-.117187.617188-1.945312 2.464844-3.777343 3.816407-5.375 3.890625-14.992188 7.507812-24.765625 9.242187-5.570313 1.003906-11.136719 1.15625-12.8125.347656-1.089844-.539062-1.246094-.964843-.855469-2.351562.816406-2.886719 3.464844-6.046875 7.59375-9.011719 2.101563-1.503906 10.628906-6.625 14.601563-8.78125 6.542968-3.546875 11.839843-5.664062 15.421874-6.164062 1.128907-.15625 2.492188-.195313 2.917969 0 .703125.269531 1.480469 2.308593 1.792969 4.777343.15625 1.308594.078125 7.085938-.117188 8.125zm0 0"/><path d="m101.011719 134.820312c-.230469.464844-1.398438.964844-2.722657 1.15625-1.324218.191407-5.375.078126-7.671874-.191406-8.257813-1.078125-17.019532-3.582031-23.40625-6.664062-3.582032-1.734375-6.152344-3.46875-8.058594-5.355469l-1.089844-1.117187-.117188-1.464844c-.195312-2.539063-.15625-6.546875.15625-7.972656.195313-1.195313.621094-2.347657 1.207032-3.390626.3125-.382812.3125-.382812 1.710937-.382812 1.714844 0 3.15625.269531 5.492188 1 4.789062 1.464844 11.914062 5.007812 20.601562 10.171875 7.164063 4.234375 9.851563 6.316406 11.914063 9.167969 1.402344 1.769531 2.335937 4.273437 1.984375 5.042968zm0 0"/><path d="m156.152344 188.441406c0 .117188-.464844 1.964844-1.050782 4.160156-.582031 2.195313-1.050781 3.96875-1.050781 4.046876-.429687.039062-.816406.074218-1.246093.039062h-1.246094l-1.714844 4.003906c-.933594 2.195313-1.789062 4.238282-1.90625 4.546875l-.234375.539063-.816406-1.308594-.820313-1.3125v-10.667969l-.308594.074219c-.664062.15625-5.375.773438-7.4375.964844-8.53125.847656-17.097656.65625-25.585937-.539063-1.363281-.191406-2.53125-.347656-2.570313-.308593-.039062.039062 0 2.503906.078126 5.546874l.117187 5.46875-.664063 1.003907c-.347656.539062-.699218 1-.699218 1.039062-.117188.117188-.507813-.5-1.402344-2.273437-.972656-1.847656-1.675781-3.8125-2.179688-5.855469l-.273437-1.117187-1.207031.078124-1.207032.117188-.3125-1.425781c-.15625-.769531-.347656-1.964844-.425781-2.621094l-.117187-1.230469-1.011719-.886718c-.585937-.5-1.171875-1.003907-1.285156-1.078126-.195313-.15625-.273438-.425781-.273438-.65625v-.460937l4.867188.039063 4.867187.035156.15625.503906.15625.5 1.671875.078125c.9375.035156 3.894531.113281 6.542969.191406l4.867188.113281 1.246093-1.925781 1.285157-1.925781h1.636718l-.039062-4.003906-.039063-4.007813-2.140625-.925781c-6.894531-3.003906-10.945312-6.429688-12.460937-10.589844-.3125-.847656-.3125-1.15625-.390625-5.007812-.039063-3.816406-.039063-4.160156.234375-5.007813.542969-1.925781 2.0625-3.429687 4.011719-3.929687.660156-.191406 2.414062-.191406 11.601562-.191406l10.828125.035156 1.207031.578125c1.441406.695312 2.101563 1.195312 2.917969 2.273437.9375 1.234375 1.207031 2.195313 1.207031 4.546875 0 3.351563-.230468 6.238281-.582031 7.394531-.507813 1.578126-1.285156 3.082032-2.257813 4.429688-1.949218 2.464844-5.492187 4.929688-8.722656 6.046875l-.9375.347656.039063 4.046875.039062 4.042969.859375.078125.855469.074219 1.167969 1.734375 1.128906 1.734375h5.21875c2.882812 0 5.414062.039062 5.644531.078125.390625.074218.46875.039062.859375-.617188l.464844-.695312h4.480469c3.347656-.152344 4.359375-.074219 4.359375.039062zm0 0"/><path d="m135.59375 199.5c-.742188.421875-1.246094.613281-1.363281.539062-.117188-.039062-.664063-.503906-1.246094-.925781l-1.050781-.847656-1.089844 1.15625c-2.378906 2.542969-2.457031 2.65625-3.15625 2.695313-1.089844.117187-1.324219-.078126-2.648438-2.042969-.699218-1-1.246093-1.847657-1.246093-1.847657s-.503907-.078124-1.089844-.117187l-1.089844-.113281-.507812 1.039062-.503907 1.039063-.898437-.269531c-.699219-.230469-1.398437-.5-2.0625-.808594l-1.167969-.578125v-2.195313l10.359375.039063 10.355469.039062.039062 1.039063c.039063 1.234375.078126 1.195312-1.632812 2.160156zm0 0"/><path d="m232.945312 152.503906c-.039062-.15625-.039062-.425781-.078124-.847656-9.347657-1.003906-36.019532-1.617188-60.785157 18.605469 0 0-7.984375-36.210938-45.367187-36.210938-37.382813 0-51.246094 36.210938-51.246094 36.210938-20.949219-22.304688-48.988281-20.6875-59.113281-19.222657 0 .230469-.039063.5-.039063.730469-.3125 5.585938-.15625 8.246094.78125 11.75 2.917969 10.980469 11.914063 23.074219 26.011719 34.9375 23.089844 19.414063 54.398437 33.4375 78.113281 35.054688 24.726563 1.65625 61.214844-12.632813 85.515625-33.511719 3.816407-3.351562 7.398438-6.894531 10.746094-10.671875 2.414063-2.773437 5.996094-7.550781 5.726563-7.550781-.078126 0 0-.074219.15625-.152344.113281-.078125.230468-.191406.152343-.269531-.039062-.039063.039063-.15625.15625-.191407.117188-.039062.195313-.117187.15625-.195312-.039062-.078125 0-.152344.15625-.191406.117188-.039063.15625-.15625.117188-.230469-.039063-.078125 0-.15625.078125-.15625s.15625-.113281.15625-.191406.078125-.191407.15625-.191407.152344-.078124.152344-.15625c.117187-.308593.3125-.617187.507812-.886718.585938-.882813 2.921875-5.007813 3.230469-5.699219 2.222656-4.96875 3.625-9.398437 4.285156-13.828125.234375-2.121094.429687-6.011719.273437-6.933594zm-97.351562 46.996094c-.742188.421875-1.246094.613281-1.363281.539062-.117188-.039062-.664063-.503906-1.246094-.925781l-1.050781-.847656-1.089844 1.15625c-2.378906 2.542969-2.457031 2.65625-3.15625 2.695313-1.089844.117187-1.324219-.078126-2.648438-2.042969-.699218-1-1.246093-1.847657-1.246093-1.847657s-.503907-.078124-1.089844-.117187l-1.089844-.113281-.507812 1.039062-.503907 1.039063-.898437-.269531c-.699219-.230469-1.398437-.5-2.0625-.808594l-1.167969-.578125v-2.195313l10.359375.039063 10.355469.039062.039062 1.039063c.039063 1.234375.078126 1.195312-1.632812 2.160156zm19.46875-6.9375c-.582031 2.199219-1.050781 3.96875-1.050781 4.046875-.429688.039063-.816407.078125-1.246094.039063h-1.246094l-1.675781 4.042968c-.933594 2.195313-1.789062 4.238282-1.90625 4.546875l-.234375.539063-.816406-1.308594-.820313-1.3125v-10.667969l-.308594.074219c-.664062.15625-5.375.773438-7.4375.964844-8.53125.847656-17.097656.65625-25.585937-.539063-1.363281-.191406-2.53125-.347656-2.570313-.308593-.039062.039062 0 2.503906.078126 5.546874l.117187 5.46875-.664063 1.003907c-.347656.539062-.699218 1-.699218 1.039062-.117188.117188-.507813-.5-1.402344-2.273437-.972656-1.847656-1.675781-3.8125-2.179688-5.855469l-.273437-1.117187-1.207031.078124-1.207032.117188-.3125-1.425781c-.15625-.769531-.347656-1.964844-.425781-2.621094l-.117187-1.230469-1.011719-.886718c-.585937-.5-1.171875-1.003907-1.285156-1.078126-.195313-.15625-.273438-.425781-.273438-.65625v-.460937l4.867188.039063 4.867187.035156.15625.503906.15625.5 1.671875.078125c.9375.035156 3.894531.113281 6.542969.191406l4.867188.113281 1.246093-1.925781 1.285157-1.925781h1.636718l-.039062-4.003906-.039063-4.007813-2.140625-.925781c-6.894531-3.003906-10.945312-6.429688-12.460937-10.589844-.3125-.847656-.3125-1.15625-.390625-5.007812-.039063-3.816406-.039063-4.160156.234375-5.007813.542969-1.925781 2.0625-3.429687 4.011719-3.929687.660156-.191406 2.414062-.191406 11.601562-.191406l10.828125.035156 1.207031.578125c1.441406.695312 2.101563 1.195312 2.917969 2.273437.9375 1.234375 1.207031 2.195313 1.207031 4.546875 0 3.351563-.230468 6.238281-.582031 7.394531-.507813 1.578126-1.285156 3.082032-2.257813 4.429688-1.949218 2.464844-5.492187 4.929688-8.722656 6.046875l-.9375.347656.039063 4.046875.039062 4.042969.859375.078125.855469.074219 1.167969 1.734375 1.128906 1.734375h5.21875c2.882812 0 5.414062.039062 5.644531.078125.390625.074218.46875.039062.859375-.617188l.464844-.695312h4.480469c3.464843 0 4.476562.039062 4.476562.15625-.117187-.039063-.621093 1.847656-1.207031 4.003906zm0 0" fill="#fff"/><path d="m232.632812 148.574219c-.078124-1.734375-.234374-4.160157-.351562-5.355469-1.671875-17.488281-6.191406-31.777344-14.757812-46.917969-.351563-.578125-.660157-1.15625-.855469-1.617187-.078125-.117188-.117188-.230469-.15625-.308594 1.207031-3.582031 6.152343-18.566406 10.085937-35.707031 5.335938-23.269531 8.722656-50.464844-1.636718-58.6289065 0 0-17.910157-1.3125005-41.898438 21.9570315-6.503906 6.429687-12.460938 13.402344-17.757812 20.835937l-1.675782-.539062c-9.65625-3.117188-19.664062-5.042969-29.75-5.699219-3.035156-.230469-14.367187-.230469-18.066406 0-11.179688.730469-19.746094 2.386719-29.480469 5.738281-.390625.15625-.738281.269531-1.089843.386719-5.492188-7.394531-11.605469-14.328125-18.339844-20.6875-24.960938-23.378906-43.535156-22.03125-43.535156-22.03125-10.984376 8.433594-7.246094 36.863281-1.558594 60.898438 3.738281 15.910156 8.332031 29.894531 10.046875 34.941406-.117188.269531-.273438.578125-.429688.847656-9.074219 18.179688-13.980469 35.707031-15.148437 54.351562 10.164062-1.464843 38.164062-3.121093 59.152344 19.222657 0 0 13.863281-36.210938 51.246093-36.210938 37.382813 0 45.367188 36.210938 45.367188 36.210938 24.765625-20.222657 51.4375-19.570313 60.785156-18.605469-.039063-.769531-.117187-1.925781-.195313-3.082031zm-193.417968-67.257813s-14.566406-36.015625-10.828125-56.585937c.625-3.46875 1.792969-6.511719 3.625-8.824219 0 0 16.507812 1.621094 43.144531 30.894531 0 0-5.0625 2.425781-11.835938 7.589844 0 0-.039062.039063-.078124.039063-7.363282 5.585937-16.785157 14.445312-24.027344 26.886718zm61.796875 53.503906c-.230469.464844-1.398438.964844-2.722657 1.15625-1.324218.191407-5.375.078126-7.671874-.191406-8.257813-1.078125-17.019532-3.582031-23.40625-6.664062-3.582032-1.734375-6.152344-3.46875-8.058594-5.355469l-1.089844-1.117187-.117188-1.464844c-.195312-2.539063-.15625-6.546875.15625-7.972656.195313-1.195313.621094-2.347657 1.207032-3.390626.3125-.382812.3125-.382812 1.710937-.382812 1.714844 0 3.15625.269531 5.492188 1 4.789062 1.464844 11.914062 5.007812 20.601562 10.171875 7.164063 4.234375 9.851563 6.316406 11.914063 9.167969 1.402344 1.769531 2.335937 4.273437 1.984375 5.042968zm91.746093-12.75c-.117187.617188-1.945312 2.464844-3.777343 3.816407-5.375 3.890625-14.992188 7.507812-24.765625 9.242187-5.570313 1.003906-11.136719 1.15625-12.8125.347656-1.089844-.539062-1.246094-.964843-.855469-2.351562.816406-2.886719 3.464844-6.046875 7.59375-9.011719 2.101563-1.503906 10.628906-6.625 14.601563-8.78125 6.542968-3.546875 11.839843-5.664062 15.421874-6.164062 1.128907-.15625 2.492188-.195313 2.917969 0 .703125.269531 1.480469 2.308593 1.792969 4.777343.15625 1.308594.078125 7.085938-.117188 8.125zm-6.464843-67.679687-.078125-.039063c-6.542969-5.160156-11.449219-7.589843-11.449219-7.589843 25.742187-29.273438 41.667969-30.890625 41.667969-30.890625 1.753906 2.347656 2.882812 5.351562 3.503906 8.820312 3.621094 20.570313-10.433594 56.625-10.433594 56.625-5.882812-10.363281-13.785156-19.53125-23.210937-26.925781zm0 0" fill="#ffa409"/><path d="m219.976562 24.691406c-3.035156-.386718-17.40625-.464844-33.683593 29.699219l-.078125-.039063c-6.542969-5.160156-11.449219-7.589843-11.449219-7.589843 25.742187-29.273438 41.667969-30.890625 41.667969-30.890625 1.792968 2.347656 2.921875 5.351562 3.542968 8.820312zm0 0" fill="#ff9300"/><path d="m209.542969 81.316406c-5.921875-10.402344-13.785157-19.53125-23.25-26.925781 16.277343-30.164063 30.609375-30.085937 33.683593-29.699219 3.621094 20.609375-10.433593 56.625-10.433593 56.625zm0 0" fill="#ff8300"/><path d="m220.5625 24.804688c-.195312-.035157-.390625-.074219-.585938-.113282zm0 0" fill="#ff8300"/><path d="m75.15625 46.761719s-5.0625 2.429687-11.835938 7.589843c0 0-.039062.039063-.078124.039063-16.863282-30.199219-31.699219-30.085937-34.890626-29.699219.621094-3.46875 1.789063-6.511718 3.621094-8.820312.039063 0 16.546875 1.617187 43.183594 30.890625zm0 0" fill="#ff9300"/><path d="m63.28125 54.390625c-7.402344 5.625-16.824219 14.445313-24.066406 26.925781 0 0-14.566406-36.015625-10.828125-56.625 3.15625-.386718 18.03125-.464844 34.894531 29.699219zm0 0" fill="#ff8300"/><path d="m28.386719 24.691406c-.191407.039063-.425781.078125-.621094.113282zm0 0" fill="#ff8300"/><g fill="#fff"><path d="m170.132812 101.308594s-12.460937.769531-10.902343-8.859375c1.558593-9.628907 11.292969-10.785157 14.019531-10.402344 2.722656.386719 13.628906 4.238281 11.679688 12.328125-1.945313 8.089844-4.671876 6.546875-6.230469 6.933594-1.558594.386718-8.566407 0-8.566407 0zm0 0"/><path d="m78.234375 101.308594s-12.460937.769531-10.90625-8.859375c1.558594-9.628907 11.292969-10.785157 14.019531-10.402344 2.726563.386719 13.628906 4.238281 11.683594 12.328125-1.949219 8.089844-4.671875 6.546875-6.230469 6.933594-1.558593.386718-8.566406 0-8.566406 0zm0 0"/></g></svg>