<!-- Generator: Adobe Illustrator 24.0.0, SVG Export Plug-In . SVG Version: 6.00 Build 0)  -->
<svg xmlns="http://www.w3.org/2000/svg" xmlns:xlink="http://www.w3.org/1999/xlink" width="250px" height="250px" viewBox="0 0 250 250" version="1.1">
<g id="surface1">
<path style=" stroke:none;fill-rule:nonzero;fill:rgb(94.117647%,1.960784%,0%);fill-opacity:1;" d="M 183.023438 21.996094 C 176.519531 28.425781 170.5625 35.398438 165.265625 42.832031 L 163.589844 42.292969 C 153.933594 39.175781 143.925781 37.25 133.839844 36.59375 C 130.804688 36.363281 119.472656 36.363281 115.773438 36.59375 C 104.597656 37.324219 96.027344 38.980469 86.292969 42.332031 C 85.902344 42.488281 85.554688 42.601562 85.203125 42.71875 C 79.710938 35.324219 73.597656 28.390625 66.863281 22.03125 C 99.183594 5.660156 136.996094 3.695312 170.835938 16.601562 C 174.457031 17.949219 178 19.527344 181.464844 21.222656 Z M 183.023438 21.996094 "/>
<path style=" stroke:none;fill-rule:nonzero;fill:rgb(94.117647%,1.960784%,0%);fill-opacity:1;" d="M 243.304688 168.105469 C 238.394531 181.933594 231.035156 194.761719 221.496094 205.929688 C 216.316406 211.941406 210.59375 217.449219 204.441406 222.457031 C 190.03125 233.9375 173.210938 242.140625 155.257812 246.453125 C 135.398438 251.191406 114.679688 251.191406 94.820312 246.453125 C 76.832031 242.140625 60.046875 233.9375 45.640625 222.457031 C 39.488281 217.449219 33.761719 211.941406 28.582031 205.929688 C 1.128906 173.84375 -7.203125 129.777344 6.777344 90.058594 C 9.425781 82.703125 12.734375 75.613281 16.707031 68.875 C 18.535156 65.792969 20.796875 62.324219 21.886719 60.898438 C 25.625 76.808594 30.21875 90.792969 31.933594 95.839844 C 31.816406 96.109375 31.660156 96.417969 31.503906 96.6875 C 22.429688 114.867188 17.523438 132.394531 16.355469 151.039062 C 16.355469 151.269531 16.316406 151.539062 16.316406 151.769531 C 16.003906 157.355469 16.160156 160.015625 17.097656 163.519531 C 20.015625 174.5 29.011719 186.59375 43.109375 198.457031 C 66.199219 217.871094 97.507812 231.894531 121.222656 233.511719 C 145.949219 235.167969 182.4375 220.878906 206.738281 200 C 210.554688 196.648438 214.136719 193.105469 217.484375 189.328125 C 219.898438 186.554688 223.480469 181.777344 223.210938 181.777344 C 223.132812 181.777344 223.210938 181.703125 223.367188 181.625 C 223.480469 181.546875 223.597656 181.433594 223.519531 181.355469 C 223.480469 181.316406 223.558594 181.199219 223.675781 181.164062 C 223.792969 181.125 223.871094 181.046875 223.832031 180.96875 C 223.792969 180.890625 223.832031 180.816406 223.988281 180.777344 C 224.105469 180.738281 224.144531 180.621094 224.105469 180.546875 C 224.066406 180.46875 224.105469 180.390625 224.183594 180.390625 C 224.261719 180.390625 224.339844 180.277344 224.339844 180.199219 C 224.339844 180.121094 224.417969 180.007812 224.496094 180.007812 C 224.574219 180.007812 224.648438 179.929688 224.648438 179.851562 C 224.765625 179.542969 224.960938 179.234375 225.15625 178.964844 C 225.742188 178.082031 228.078125 173.957031 228.386719 173.265625 C 230.609375 168.296875 232.011719 163.867188 232.671875 159.4375 C 232.984375 157.316406 233.179688 153.425781 233.023438 152.503906 C 232.984375 152.347656 232.984375 152.078125 232.945312 151.65625 C 232.867188 150.886719 232.828125 149.730469 232.75 148.574219 C 232.671875 146.839844 232.515625 144.414062 232.398438 143.21875 C 230.726562 125.730469 226.207031 111.441406 217.640625 96.300781 C 217.289062 95.722656 216.980469 95.144531 216.785156 94.683594 C 216.707031 94.566406 216.667969 94.453125 216.628906 94.375 C 217.835938 90.792969 222.78125 75.808594 226.714844 58.667969 L 226.792969 58.742188 L 227.375 59.511719 C 228.386719 60.863281 231.074219 64.867188 232.28125 66.792969 C 237.773438 75.652344 242.058594 85.167969 245.09375 95.105469 C 252.140625 119.027344 251.558594 144.527344 243.304688 168.105469 Z M 243.304688 168.105469 "/>
<path style=" stroke:none;fill-rule:nonzero;fill:rgb(0%,0%,0%);fill-opacity:1;" d="M 192.757812 122.070312 C 192.640625 122.6875 190.8125 124.535156 188.980469 125.886719 C 183.605469 129.777344 173.988281 133.394531 164.214844 135.128906 C 158.644531 136.132812 153.078125 136.285156 151.402344 135.476562 C 150.3125 134.9375 150.15625 134.511719 150.546875 133.125 C 151.363281 130.238281 154.011719 127.078125 158.140625 124.113281 C 160.242188 122.609375 168.769531 117.488281 172.742188 115.332031 C 179.285156 111.785156 184.582031 109.667969 188.164062 109.167969 C 189.292969 109.011719 190.65625 108.972656 191.082031 109.167969 C 191.785156 109.4375 192.5625 111.476562 192.875 113.945312 C 193.03125 115.253906 192.953125 121.03125 192.757812 122.070312 Z M 192.757812 122.070312 "/>
<path style=" stroke:none;fill-rule:nonzero;fill:rgb(0%,0%,0%);fill-opacity:1;" d="M 101.011719 134.820312 C 100.78125 135.285156 99.613281 135.785156 98.289062 135.976562 C 96.964844 136.167969 92.914062 136.054688 90.617188 135.785156 C 82.359375 134.707031 73.597656 132.203125 67.210938 129.121094 C 63.628906 127.386719 61.058594 125.652344 59.152344 123.765625 L 58.0625 122.648438 L 57.945312 121.183594 C 57.75 118.644531 57.789062 114.636719 58.101562 113.210938 C 58.296875 112.015625 58.722656 110.863281 59.308594 109.820312 C 59.621094 109.4375 59.621094 109.4375 61.019531 109.4375 C 62.734375 109.4375 64.175781 109.707031 66.511719 110.4375 C 71.300781 111.902344 78.425781 115.445312 87.113281 120.609375 C 94.277344 124.84375 96.964844 126.925781 99.027344 129.777344 C 100.429688 131.546875 101.363281 134.050781 101.011719 134.820312 Z M 101.011719 134.820312 "/>
<path style=" stroke:none;fill-rule:nonzero;fill:rgb(0%,0%,0%);fill-opacity:1;" d="M 156.152344 188.441406 C 156.152344 188.558594 155.6875 190.40625 155.101562 192.601562 C 154.519531 194.796875 154.050781 196.570312 154.050781 196.648438 C 153.621094 196.6875 153.234375 196.722656 152.804688 196.6875 L 151.558594 196.6875 L 149.84375 200.691406 C 148.910156 202.886719 148.054688 204.929688 147.9375 205.238281 L 147.703125 205.777344 L 146.886719 204.46875 L 146.066406 203.15625 L 146.066406 192.488281 L 145.757812 192.5625 C 145.09375 192.71875 140.382812 193.335938 138.320312 193.527344 C 129.789062 194.375 121.222656 194.183594 112.734375 192.988281 C 111.371094 192.796875 110.203125 192.640625 110.164062 192.679688 C 110.125 192.71875 110.164062 195.183594 110.242188 198.226562 L 110.359375 203.695312 L 109.695312 204.699219 C 109.347656 205.238281 108.996094 205.699219 108.996094 205.738281 C 108.878906 205.855469 108.488281 205.238281 107.59375 203.464844 C 106.621094 201.617188 105.917969 199.652344 105.414062 197.609375 L 105.140625 196.492188 L 103.933594 196.570312 L 102.726562 196.6875 L 102.414062 195.261719 C 102.257812 194.492188 102.066406 193.296875 101.988281 192.640625 L 101.871094 191.410156 L 100.859375 190.523438 C 100.273438 190.023438 99.6875 189.519531 99.574219 189.445312 C 99.378906 189.289062 99.300781 189.019531 99.300781 188.789062 L 99.300781 188.328125 L 104.167969 188.367188 L 109.035156 188.402344 L 109.191406 188.90625 L 109.347656 189.40625 L 111.019531 189.484375 C 111.957031 189.519531 114.914062 189.597656 117.5625 189.675781 L 122.429688 189.789062 L 123.675781 187.863281 L 124.960938 185.9375 L 126.597656 185.9375 L 126.558594 181.933594 L 126.519531 177.925781 L 124.378906 177 C 117.484375 173.996094 113.433594 170.570312 111.917969 166.410156 C 111.605469 165.5625 111.605469 165.253906 111.527344 161.402344 C 111.488281 157.585938 111.488281 157.242188 111.761719 156.394531 C 112.304688 154.46875 113.824219 152.964844 115.773438 152.464844 C 116.433594 152.273438 118.1875 152.273438 127.375 152.273438 L 138.203125 152.308594 L 139.410156 152.886719 C 140.851562 153.582031 141.511719 154.082031 142.328125 155.160156 C 143.265625 156.394531 143.535156 157.355469 143.535156 159.707031 C 143.535156 163.058594 143.304688 165.945312 142.953125 167.101562 C 142.445312 168.679688 141.667969 170.183594 140.695312 171.53125 C 138.746094 173.996094 135.203125 176.460938 131.972656 177.578125 L 131.035156 177.925781 L 131.074219 181.972656 L 131.113281 186.015625 L 131.972656 186.09375 L 132.828125 186.167969 L 133.996094 187.902344 L 135.125 189.636719 L 140.34375 189.636719 C 143.226562 189.636719 145.757812 189.675781 145.988281 189.714844 C 146.378906 189.789062 146.457031 189.753906 146.847656 189.097656 L 147.3125 188.402344 L 151.792969 188.402344 C 155.140625 188.25 156.152344 188.328125 156.152344 188.441406 Z M 156.152344 188.441406 "/>
<path style=" stroke:none;fill-rule:nonzero;fill:rgb(0%,0%,0%);fill-opacity:1;" d="M 135.59375 199.5 C 134.851562 199.921875 134.347656 200.113281 134.230469 200.039062 C 134.113281 200 133.566406 199.535156 132.984375 199.113281 L 131.933594 198.265625 L 130.84375 199.421875 C 128.464844 201.964844 128.386719 202.078125 127.6875 202.117188 C 126.597656 202.234375 126.363281 202.039062 125.039062 200.074219 C 124.339844 199.074219 123.792969 198.226562 123.792969 198.226562 C 123.792969 198.226562 123.289062 198.148438 122.703125 198.109375 L 121.613281 197.996094 L 121.105469 199.035156 L 120.601562 200.074219 L 119.703125 199.804688 C 119.003906 199.574219 118.304688 199.304688 117.640625 198.996094 L 116.472656 198.417969 L 116.472656 196.222656 L 126.832031 196.261719 L 137.1875 196.300781 L 137.226562 197.339844 C 137.265625 198.574219 137.304688 198.535156 135.59375 199.5 Z M 135.59375 199.5 "/>
<path style=" stroke:none;fill-rule:nonzero;fill:rgb(100%,100%,100%);fill-opacity:1;" d="M 232.945312 152.503906 C 232.90625 152.347656 232.90625 152.078125 232.867188 151.65625 C 223.519531 150.652344 196.847656 150.039062 172.082031 170.261719 C 172.082031 170.261719 164.097656 134.050781 126.714844 134.050781 C 89.332031 134.050781 75.46875 170.261719 75.46875 170.261719 C 54.519531 147.957031 26.480469 149.574219 16.355469 151.039062 C 16.355469 151.269531 16.316406 151.539062 16.316406 151.769531 C 16.003906 157.355469 16.160156 160.015625 17.097656 163.519531 C 20.015625 174.5 29.011719 186.59375 43.109375 198.457031 C 66.199219 217.871094 97.507812 231.894531 121.222656 233.511719 C 145.949219 235.167969 182.4375 220.878906 206.738281 200 C 210.554688 196.648438 214.136719 193.105469 217.484375 189.328125 C 219.898438 186.554688 223.480469 181.777344 223.210938 181.777344 C 223.132812 181.777344 223.210938 181.703125 223.367188 181.625 C 223.480469 181.546875 223.597656 181.433594 223.519531 181.355469 C 223.480469 181.316406 223.558594 181.199219 223.675781 181.164062 C 223.792969 181.125 223.871094 181.046875 223.832031 180.96875 C 223.792969 180.890625 223.832031 180.816406 223.988281 180.777344 C 224.105469 180.738281 224.144531 180.621094 224.105469 180.546875 C 224.066406 180.46875 224.105469 180.390625 224.183594 180.390625 C 224.261719 180.390625 224.339844 180.277344 224.339844 180.199219 C 224.339844 180.121094 224.417969 180.007812 224.496094 180.007812 C 224.574219 180.007812 224.648438 179.929688 224.648438 179.851562 C 224.765625 179.542969 224.960938 179.234375 225.15625 178.964844 C 225.742188 178.082031 228.078125 173.957031 228.386719 173.265625 C 230.609375 168.296875 232.011719 163.867188 232.671875 159.4375 C 232.90625 157.316406 233.101562 153.425781 232.945312 152.503906 Z M 135.59375 199.5 C 134.851562 199.921875 134.347656 200.113281 134.230469 200.039062 C 134.113281 200 133.566406 199.535156 132.984375 199.113281 L 131.933594 198.265625 L 130.84375 199.421875 C 128.464844 201.964844 128.386719 202.078125 127.6875 202.117188 C 126.597656 202.234375 126.363281 202.039062 125.039062 200.074219 C 124.339844 199.074219 123.792969 198.226562 123.792969 198.226562 C 123.792969 198.226562 123.289062 198.148438 122.703125 198.109375 L 121.613281 197.996094 L 121.105469 199.035156 L 120.601562 200.074219 L 119.703125 199.804688 C 119.003906 199.574219 118.304688 199.304688 117.640625 198.996094 L 116.472656 198.417969 L 116.472656 196.222656 L 126.832031 196.261719 L 137.1875 196.300781 L 137.226562 197.339844 C 137.265625 198.574219 137.304688 198.535156 135.59375 199.5 Z M 155.0625 192.5625 C 154.480469 194.761719 154.011719 196.53125 154.011719 196.609375 C 153.582031 196.648438 153.195312 196.6875 152.765625 196.648438 L 151.519531 196.648438 L 149.84375 200.691406 C 148.910156 202.886719 148.054688 204.929688 147.9375 205.238281 L 147.703125 205.777344 L 146.886719 204.46875 L 146.066406 203.15625 L 146.066406 192.488281 L 145.757812 192.5625 C 145.09375 192.71875 140.382812 193.335938 138.320312 193.527344 C 129.789062 194.375 121.222656 194.183594 112.734375 192.988281 C 111.371094 192.796875 110.203125 192.640625 110.164062 192.679688 C 110.125 192.71875 110.164062 195.183594 110.242188 198.226562 L 110.359375 203.695312 L 109.695312 204.699219 C 109.347656 205.238281 108.996094 205.699219 108.996094 205.738281 C 108.878906 205.855469 108.488281 205.238281 107.59375 203.464844 C 106.621094 201.617188 105.917969 199.652344 105.414062 197.609375 L 105.140625 196.492188 L 103.933594 196.570312 L 102.726562 196.6875 L 102.414062 195.261719 C 102.257812 194.492188 102.066406 193.296875 101.988281 192.640625 L 101.871094 191.410156 L 100.859375 190.523438 C 100.273438 190.023438 99.6875 189.519531 99.574219 189.445312 C 99.378906 189.289062 99.300781 189.019531 99.300781 188.789062 L 99.300781 188.328125 L 104.167969 188.367188 L 109.035156 188.402344 L 109.191406 188.90625 L 109.347656 189.40625 L 111.019531 189.484375 C 111.957031 189.519531 114.914062 189.597656 117.5625 189.675781 L 122.429688 189.789062 L 123.675781 187.863281 L 124.960938 185.9375 L 126.597656 185.9375 L 126.558594 181.933594 L 126.519531 177.925781 L 124.378906 177 C 117.484375 173.996094 113.433594 170.570312 111.917969 166.410156 C 111.605469 165.5625 111.605469 165.253906 111.527344 161.402344 C 111.488281 157.585938 111.488281 157.242188 111.761719 156.394531 C 112.304688 154.46875 113.824219 152.964844 115.773438 152.464844 C 116.433594 152.273438 118.1875 152.273438 127.375 152.273438 L 138.203125 152.308594 L 139.410156 152.886719 C 140.851562 153.582031 141.511719 154.082031 142.328125 155.160156 C 143.265625 156.394531 143.535156 157.355469 143.535156 159.707031 C 143.535156 163.058594 143.304688 165.945312 142.953125 167.101562 C 142.445312 168.679688 141.667969 170.183594 140.695312 171.53125 C 138.746094 173.996094 135.203125 176.460938 131.972656 177.578125 L 131.035156 177.925781 L 131.074219 181.972656 L 131.113281 186.015625 L 131.972656 186.09375 L 132.828125 186.167969 L 133.996094 187.902344 L 135.125 189.636719 L 140.34375 189.636719 C 143.226562 189.636719 145.757812 189.675781 145.988281 189.714844 C 146.378906 189.789062 146.457031 189.753906 146.847656 189.097656 L 147.3125 188.402344 L 151.792969 188.402344 C 155.257812 188.402344 156.269531 188.441406 156.269531 188.558594 C 156.152344 188.519531 155.648438 190.40625 155.0625 192.5625 Z M 155.0625 192.5625 "/>
<path style=" stroke:none;fill-rule:nonzero;fill:rgb(100%,64.313728%,3.529412%);fill-opacity:1;" d="M 232.632812 148.574219 C 232.554688 146.839844 232.398438 144.414062 232.28125 143.21875 C 230.609375 125.730469 226.089844 111.441406 217.523438 96.300781 C 217.171875 95.722656 216.863281 95.144531 216.667969 94.683594 C 216.589844 94.566406 216.550781 94.453125 216.511719 94.375 C 217.71875 90.792969 222.664062 75.808594 226.597656 58.667969 C 231.933594 35.398438 235.320312 8.203125 224.960938 0.0390625 C 224.960938 0.0390625 207.050781 -1.273438 183.0625 21.996094 C 176.558594 28.425781 170.601562 35.398438 165.304688 42.832031 L 163.628906 42.292969 C 153.972656 39.175781 143.964844 37.25 133.878906 36.59375 C 130.84375 36.363281 119.511719 36.363281 115.8125 36.59375 C 104.632812 37.324219 96.066406 38.980469 86.332031 42.332031 C 85.941406 42.488281 85.59375 42.601562 85.242188 42.71875 C 79.75 35.324219 73.636719 28.390625 66.902344 22.03125 C 41.941406 -1.347656 23.367188 0 23.367188 0 C 12.382812 8.433594 16.121094 36.863281 21.808594 60.898438 C 25.546875 76.808594 30.140625 90.792969 31.855469 95.839844 C 31.738281 96.109375 31.582031 96.417969 31.425781 96.6875 C 22.351562 114.867188 17.445312 132.394531 16.277344 151.039062 C 26.441406 149.574219 54.441406 147.917969 75.429688 170.261719 C 75.429688 170.261719 89.292969 134.050781 126.675781 134.050781 C 164.058594 134.050781 172.042969 170.261719 172.042969 170.261719 C 196.808594 150.039062 223.480469 150.691406 232.828125 151.65625 C 232.789062 150.886719 232.710938 149.730469 232.632812 148.574219 Z M 39.214844 81.316406 C 39.214844 81.316406 24.648438 45.300781 28.386719 24.730469 C 29.011719 21.261719 30.179688 18.21875 32.011719 15.90625 C 32.011719 15.90625 48.519531 17.527344 75.15625 46.800781 C 75.15625 46.800781 70.09375 49.226562 63.320312 54.390625 C 63.320312 54.390625 63.28125 54.429688 63.242188 54.429688 C 55.878906 60.015625 46.457031 68.875 39.214844 81.316406 Z M 101.011719 134.820312 C 100.78125 135.285156 99.613281 135.785156 98.289062 135.976562 C 96.964844 136.167969 92.914062 136.054688 90.617188 135.785156 C 82.359375 134.707031 73.597656 132.203125 67.210938 129.121094 C 63.628906 127.386719 61.058594 125.652344 59.152344 123.765625 L 58.0625 122.648438 L 57.945312 121.183594 C 57.75 118.644531 57.789062 114.636719 58.101562 113.210938 C 58.296875 112.015625 58.722656 110.863281 59.308594 109.820312 C 59.621094 109.4375 59.621094 109.4375 61.019531 109.4375 C 62.734375 109.4375 64.175781 109.707031 66.511719 110.4375 C 71.300781 111.902344 78.425781 115.445312 87.113281 120.609375 C 94.277344 124.84375 96.964844 126.925781 99.027344 129.777344 C 100.429688 131.546875 101.363281 134.050781 101.011719 134.820312 Z M 192.757812 122.070312 C 192.640625 122.6875 190.8125 124.535156 188.980469 125.886719 C 183.605469 129.777344 173.988281 133.394531 164.214844 135.128906 C 158.644531 136.132812 153.078125 136.285156 151.402344 135.476562 C 150.3125 134.9375 150.15625 134.511719 150.546875 133.125 C 151.363281 130.238281 154.011719 127.078125 158.140625 124.113281 C 160.242188 122.609375 168.769531 117.488281 172.742188 115.332031 C 179.285156 111.785156 184.582031 109.667969 188.164062 109.167969 C 189.292969 109.011719 190.65625 108.972656 191.082031 109.167969 C 191.785156 109.4375 192.5625 111.476562 192.875 113.945312 C 193.03125 115.253906 192.953125 121.03125 192.757812 122.070312 Z M 186.292969 54.390625 L 186.214844 54.351562 C 179.671875 49.191406 174.765625 46.761719 174.765625 46.761719 C 200.507812 17.488281 216.433594 15.871094 216.433594 15.871094 C 218.1875 18.21875 219.316406 21.222656 219.9375 24.691406 C 223.558594 45.261719 209.503906 81.316406 209.503906 81.316406 C 203.621094 70.953125 195.71875 61.785156 186.292969 54.390625 Z M 186.292969 54.390625 "/>
<path style=" stroke:none;fill-rule:nonzero;fill:rgb(100%,57.647061%,0%);fill-opacity:1;" d="M 219.976562 24.691406 C 216.941406 24.304688 202.570312 24.226562 186.292969 54.390625 L 186.214844 54.351562 C 179.671875 49.191406 174.765625 46.761719 174.765625 46.761719 C 200.507812 17.488281 216.433594 15.871094 216.433594 15.871094 C 218.226562 18.21875 219.355469 21.222656 219.976562 24.691406 Z M 219.976562 24.691406 "/>
<path style=" stroke:none;fill-rule:nonzero;fill:rgb(100%,51.372552%,0%);fill-opacity:1;" d="M 209.542969 81.316406 C 203.621094 70.914062 195.757812 61.785156 186.292969 54.390625 C 202.570312 24.226562 216.902344 24.304688 219.976562 24.691406 C 223.597656 45.300781 209.542969 81.316406 209.542969 81.316406 Z M 209.542969 81.316406 "/>
<path style=" stroke:none;fill-rule:nonzero;fill:rgb(100%,51.372552%,0%);fill-opacity:1;" d="M 220.5625 24.804688 C 220.367188 24.769531 220.171875 24.730469 219.976562 24.691406 Z M 220.5625 24.804688 "/>
<path style=" stroke:none;fill-rule:nonzero;fill:rgb(100%,57.647061%,0%);fill-opacity:1;" d="M 75.15625 46.761719 C 75.15625 46.761719 70.09375 49.191406 63.320312 54.351562 C 63.320312 54.351562 63.28125 54.390625 63.242188 54.390625 C 46.378906 24.191406 31.542969 24.304688 28.351562 24.691406 C 28.972656 21.222656 30.140625 18.179688 31.972656 15.871094 C 32.011719 15.871094 48.519531 17.488281 75.15625 46.761719 Z M 75.15625 46.761719 "/>
<path style=" stroke:none;fill-rule:nonzero;fill:rgb(100%,51.372552%,0%);fill-opacity:1;" d="M 63.28125 54.390625 C 55.878906 60.015625 46.457031 68.835938 39.214844 81.316406 C 39.214844 81.316406 24.648438 45.300781 28.386719 24.691406 C 31.542969 24.304688 46.417969 24.226562 63.28125 54.390625 Z M 63.28125 54.390625 "/>
<path style=" stroke:none;fill-rule:nonzero;fill:rgb(100%,51.372552%,0%);fill-opacity:1;" d="M 28.386719 24.691406 C 28.195312 24.730469 27.960938 24.769531 27.765625 24.804688 Z M 28.386719 24.691406 "/>
<path style=" stroke:none;fill-rule:nonzero;fill:rgb(100%,100%,100%);fill-opacity:1;" d="M 170.132812 101.308594 C 170.132812 101.308594 157.671875 102.078125 159.230469 92.449219 C 160.789062 82.820312 170.523438 81.664062 173.25 82.046875 C 175.972656 82.433594 186.878906 86.285156 184.929688 94.375 C 182.984375 102.464844 180.257812 100.921875 178.699219 101.308594 C 177.140625 101.695312 170.132812 101.308594 170.132812 101.308594 Z M 170.132812 101.308594 "/>
<path style=" stroke:none;fill-rule:nonzero;fill:rgb(100%,100%,100%);fill-opacity:1;" d="M 78.234375 101.308594 C 78.234375 101.308594 65.773438 102.078125 67.328125 92.449219 C 68.886719 82.820312 78.621094 81.664062 81.347656 82.046875 C 84.074219 82.433594 94.976562 86.285156 93.03125 94.375 C 91.082031 102.464844 88.359375 100.921875 86.800781 101.308594 C 85.242188 101.695312 78.234375 101.308594 78.234375 101.308594 Z M 78.234375 101.308594 "/>
</g>
</svg>
