<?xml version="1.0" standalone="no"?>
<!DOCTYPE svg PUBLIC "-//W3C//DTD SVG 20010904//EN"
 "http://www.w3.org/TR/2001/REC-SVG-20010904/DTD/svg10.dtd">
<svg version="1.0" xmlns="http://www.w3.org/2000/svg"
 width="352.000000pt" height="349.000000pt" viewBox="0 0 352.000000 349.000000"
 preserveAspectRatio="xMidYMid meet">

<g transform="translate(0.000000,349.000000) scale(0.100000,-0.100000)"
fill="#0777CA" stroke="none">
<path d="M1650 3114 c-167 -16 -366 -76 -517 -154 -375 -197 -636 -548 -724
-974 -28 -133 -30 -370 -5 -501 45 -232 146 -455 285 -630 82 -102 254 -256
334 -298 12 -7 37 -22 54 -35 40 -28 211 -105 283 -126 260 -78 502 -83 765
-16 521 131 917 560 1021 1105 22 120 23 349 1 472 -35 195 -112 387 -220 548
-73 110 -263 301 -364 368 -230 152 -481 233 -746 241 -67 2 -142 2 -167 0z
m245 -567 c156 -152 393 -257 613 -274 l82 -6 0 -168 c0 -630 -219 -1099 -611
-1306 -41 -22 -103 -49 -138 -61 -61 -21 -66 -21 -120 -6 -96 28 -232 103
-316 174 -237 200 -387 522 -434 930 -16 140 -24 314 -16 377 l7 60 81 7 c260
20 543 167 693 359 l38 48 35 -43 c20 -24 59 -65 86 -91z"/>
<path d="M1739 2130 c-108 -5 -119 -9 -167 -57 -37 -38 -52 -86 -52 -172 0
-71 -2 -79 -18 -74 -10 2 -30 -5 -45 -17 l-27 -21 0 -220 c0 -219 0 -220 24
-244 l24 -24 293 0 c265 -1 296 1 316 17 37 28 44 74 40 276 l-3 189 -30 23
c-16 13 -36 24 -45 24 -14 0 -17 15 -21 93 -4 105 -21 140 -87 181 -45 29 -71
32 -202 26z m153 -127 c14 -13 18 -31 18 -95 l0 -78 -139 0 -139 0 2 74 c2
108 11 116 139 116 79 0 104 -3 119 -17z m-78 -284 c37 -17 60 -72 47 -111 -6
-17 -18 -36 -27 -42 -11 -9 -16 -31 -17 -81 l-2 -70 -40 0 -40 0 0 65 c0 54
-4 69 -22 88 -45 46 -37 118 16 147 32 17 53 18 85 4z"/>
</g>
</svg>
