<svg height="50" viewBox="0 0 50 50" width="50" xmlns="http://www.w3.org/2000/svg"><g fill-rule="evenodd"><path d="m6.345 20.093c-.185-.09-.335-.153-.478-.232-.797-.444-1.085-1.198-.778-2.06.246-.683.664-1.249 1.224-1.71.905-.747 1.914-1.336 2.929-1.915.427-.242.863-.469 1.294-.704.094-.054.186-.11.279-.163-.052-.12-.163-.12-.248-.158-.291-.13-.57-.273-.811-.484-.529-.464-.595-1.107-.173-1.667.235-.311.54-.541.867-.74.968-.591 2.019-.981 3.114-1.256 1.254-.314 2.527-.49 3.819-.536.107-.002.214-.018.33-.028.029-.12-.054-.191-.09-.275-.282-.62-.156-1.091.404-1.481.427-.295.916-.4 1.421-.438 1.035-.082 2.047.082 3.054.286.663.135 1.32.296 1.964.507.174.059.32.021.474-.025 1.059-.311 2.13-.574 3.22-.739.787-.12 1.58-.222 2.379-.097.26.041.512.107.748.227.607.311.801.821.537 1.451-.08.186-.184.364-.285.568.203.051.389.041.57.051 1.941.112 3.84.428 5.637 1.208.561.242 1.105.52 1.586.91.178.146.338.309.463.502.33.504.271 1.063-.152 1.494-.242.245-.541.4-.85.543-.1.046-.213.059-.301.161.162.133.352.209.529.306 1.266.688 2.525 1.384 3.682 2.253.521.393.971.846 1.283 1.425.143.26.26.527.318.818.143.701-.105 1.241-.67 1.652-.215.155-.461.247-.699.349.004.11.1.143.158.199 1.709 1.586 2.891 3.516 3.693 5.688.707 1.914 1.154 3.891 1.289 5.93.064.973.004 1.941-.273 2.885-.502 1.711-1.639 2.82-3.287 3.436-.938.352-1.918.514-2.91.59-.709.057-1.418.084-2.127.057-.146-.008-.223.047-.285.16-.113.201-.252.385-.404.557-.621.709-1.395 1.072-2.348.994-.209-.018-.305.051-.393.234-.398.809-.9 1.547-1.564 2.162-.645.596-1.381.992-2.287.992-.457-.004-.893-.105-1.293-.314-.217-.111-.4-.105-.619-.033-1.268.418-2.572.678-3.903.799-2.498.223-4.948-.021-7.338-.793-.232-.078-.42-.072-.648.035-1.248.578-2.505.324-3.578-.695-.65-.615-1.147-1.344-1.545-2.141-.096-.188-.19-.264-.419-.248-1.3.088-2.164-.588-2.792-1.648-.126-.217-.243-.439-.329-.676-.07-.193-.183-.229-.367-.234-1.062-.02-2.115-.117-3.145-.393-.971-.256-1.871-.662-2.62-1.354-.93-.861-1.406-1.951-1.593-3.186-.205-1.346-.088-2.682.139-4.01.292-1.717.744-3.386 1.482-4.971.641-1.377 1.454-2.634 2.481-3.753.075-.084.143-.168.235-.272zm-1.137 15.988c.014.01.036.035.041.031.036-.023.015-.043-.008-.064-.006-.135-.07-.252-.115-.375-.236-.656-.441-1.322-.595-2.006-.028-.127-.05-.258-.073-.385-.021-.119-.038-.24-.002-.436.291.619.585 1.139.917 1.639.534.807 1.13 1.555 1.885 2.164.085.07.165.141.282.158.515.088 1.031.141 1.559.121-.009-.029-.01-.045-.018-.047-.039-.018-.079-.031-.12-.043-.724-.225-1.263-.678-1.635-1.33-.33-.582-.489-1.215-.529-1.875-.022-.369-.009-.744-.008-1.113 0-.115.005-.213-.144-.25-.692-.168-.984-.678-1.092-1.324-.153-.924-.104-1.85.029-2.77.073-.506.176-1.006.271-1.534-.794.158-1.424-.011-1.709-.85-.121.089-.126.217-.163.326-.266.788-.474 1.589-.635 2.403-.275 1.395-.473 2.797-.293 4.225.083.654.25 1.287.583 1.863.374.65.879 1.163 1.572 1.472zm6.629 3.217c.033.025.064.059.101.078.402.201.822.203 1.244.086.202-.057.363-.008.52.107.134.096.242.213.313.369.094.209.2.412.31.615.367.674.799 1.303 1.396 1.799.802.67 1.648.736 2.533.184.207-.127.403-.15.622-.076.166.057.329.117.495.168 1.933.609 3.908.871 5.935.801 1.716-.061 3.38-.369 4.999-.926.301-.102.549-.1.832.076.777.484 1.553.432 2.295-.1.15-.105.291-.23.422-.361.605-.6 1.039-1.318 1.402-2.08.254-.531.477-.652 1.059-.541.408.08.801.055 1.158-.188.443-.24.711-.635.939-1.064.303-.561.473-1.17.611-1.789.1-.441.199-.525.658-.576.58-.066 1.027-.346 1.336-.842.217-.348.326-.736.391-1.137.104-.654.066-1.305-.01-1.961-.07-.607.148-.814.768-.723.01.002.021.002.031.004.301.037.389-.018.471-.318.076-.271.104-.555.113-.84.031-.947-.105-1.873-.301-2.795-.098-.458-.213-.912-.342-1.363-.064-.237-.033-.461.174-.622.193-.15.402-.143.615-.033.127.063.254.13.383.184.191.079.385.158.594.181.137.016.207-.043.229-.17.023-.141.016-.281-.008-.423-.076-.459-.25-.879-.463-1.288-.643-1.239-1.479-2.343-2.393-3.391-.072-.082-.15-.158-.213-.247-.23-.334-.066-.754.332-.841.115-.023.24-.015.357-.025.428-.038.848-.11 1.223-.332.273-.158.338-.321.275-.629-.049-.229-.168-.426-.285-.622-.293-.492-.73-.836-1.189-1.155-1.438-1.002-2.982-1.815-4.535-2.611-.234-.12-.416-.288-.572-.479-.25-.301-.115-.724.256-.844.125-.041.258-.056.385-.084.488-.115.975-.247 1.408-.512.262-.158.268-.24.053-.444-.063-.061-.131-.115-.201-.168-.4-.291-.838-.513-1.289-.706-1.461-.625-3.002-.908-4.574-1.05-.762-.072-1.527-.089-2.291-.066-.268.007-.482-.077-.584-.329-.098-.247-.027-.469.174-.65.111-.104.213-.219.311-.336.211-.248.426-.495.537-.808-.166-.125-.35-.153-.533-.173-.48-.048-.961-.031-1.439.028-1.314.161-2.597.472-3.862.852-.241.074-.457.074-.7 0-1.202-.367-2.418-.668-3.675-.783-.544-.048-1.09-.071-1.625.082-.507.143-.528.212-.208.614.163.207.353.388.548.563.183.166.227.377.145.597-.083.227-.263.342-.507.342-.088.002-.174-.003-.263-.003-1.656-.025-3.292.125-4.902.528-.967.242-1.899.576-2.757 1.094-.217.13-.421.275-.593.461-.106.115-.093.207.035.296.143.102.299.178.458.25.423.184.868.291 1.319.38.237.046.408.163.469.398.06.232-.025.418-.199.586-.199.194-.421.342-.666.464-1.189.602-2.359 1.236-3.487 1.945-.482.301-.952.617-1.394.979-.405.332-.712.737-.896 1.226-.153.411-.057.632.334.829.195.1.405.158.62.204.257.056.52.059.78.084.478.048.667.51.377.893-.046.061-.099.115-.15.173-.692.775-1.322 1.598-1.88 2.475-.346.543-.666 1.102-.872 1.718-.088.257-.165.522-.158.798.005.293.083.352.363.291.158-.036.314-.094.464-.155.141-.056.275-.133.413-.199.203-.094.403-.097.588.041.199.148.241.352.19.584-.012.054-.031.104-.045.158-.178.666-.34 1.333-.448 2.011-.142.887-.237 1.777-.091 2.672.093.566.259.582.669.492.413-.09.711.191.669.607-.019.195-.051.389-.067.586-.055.678-.047 1.354.151 2.012.26.867.784 1.416 1.731 1.49.312.023.452.174.525.492.021.084.037.172.056.256.148.629.34 1.244.677 1.799.21.342.446.67.826.856zm31.613-12.652c.143.679.273 1.331.344 1.991.08.795.117 1.59-.043 2.379-.125.619-.42 1.102-1.084 1.256-.105.023-.15.08-.145.182.004.066.004.133.008.195.063.84-.031 1.658-.342 2.443-.314.787-.85 1.363-1.646 1.682-.502.021-.619.385-.697.783-.041.203-.029.24.18.236.426 0 .852-.016 1.277-.021.514-.006.99-.111 1.369-.498.137-.141.301-.252.443-.387.771-.725 1.385-1.57 1.912-2.484.182-.314.352-.643.529-.963-.107 1.234-.512 2.381-.951 3.51.109.051.162-.002.215-.033.709-.381 1.27-.918 1.639-1.645.318-.631.471-1.309.52-2.014.092-1.35-.072-2.68-.359-3.996-.285-1.303-.656-2.577-1.207-3.799-.045-.102-.072-.222-.188-.308.004 1.143-.58 1.701-1.774 1.491z" fill="#662a14"/><path d="m11.837 39.298c-.381-.186-.617-.514-.827-.861-.336-.555-.529-1.17-.677-1.799-.019-.084-.036-.172-.056-.256-.073-.318-.213-.469-.525-.492-.947-.074-1.471-.623-1.731-1.49-.199-.658-.206-1.334-.151-2.012.017-.197.048-.391.067-.586.042-.416-.256-.697-.669-.607-.411.09-.576.074-.669-.492-.146-.895-.051-1.785.091-2.672.108-.678.27-1.345.448-2.011.014-.053.033-.104.045-.158.051-.232.009-.436-.19-.584-.185-.138-.385-.135-.588-.041-.138.066-.271.143-.413.199-.15.061-.306.12-.464.155-.28.062-.358.003-.363-.291-.006-.275.07-.541.158-.798.207-.617.526-1.175.872-1.718.558-.877 1.188-1.7 1.88-2.475.051-.059.104-.112.15-.173.29-.383.101-.844-.377-.893-.26-.025-.522-.028-.78-.084-.214-.046-.424-.104-.62-.204-.391-.196-.487-.418-.334-.829.184-.489.491-.895.896-1.226.441-.362.912-.678 1.394-.979 1.128-.708 2.298-1.343 3.487-1.945.245-.123.466-.271.666-.464.173-.168.259-.354.199-.586-.061-.235-.232-.352-.469-.398-.451-.089-.896-.196-1.319-.38-.159-.071-.316-.148-.458-.25-.128-.089-.141-.181-.035-.296.172-.186.376-.332.593-.461.858-.518 1.79-.852 2.757-1.094 1.61-.403 3.247-.553 4.902-.528.088 0 .175.005.263.003.245 0 .424-.115.507-.342.082-.219.038-.431-.145-.597-.195-.176-.385-.357-.548-.563-.32-.402-.299-.471.208-.614.535-.153 1.081-.13 1.625-.082 1.257.115 2.473.416 3.675.783.243.074.459.074.7 0 1.266-.38 2.548-.691 3.862-.852.479-.059.959-.076 1.439-.028.184.02.367.048.533.173-.111.313-.326.561-.537.808-.098.117-.199.232-.311.336-.201.181-.271.403-.174.65.102.252.316.336.584.329.764-.023 1.529-.005 2.291.066 1.572.143 3.113.425 4.574 1.05.451.193.889.416 1.289.706.07.053.139.107.201.168.215.204.209.286-.053.444-.434.265-.92.397-1.408.512-.127.028-.26.043-.385.084-.371.12-.506.543-.256.844.156.191.338.359.572.479 1.553.795 3.098 1.609 4.535 2.611.459.318.896.663 1.189 1.155.117.196.236.393.285.622.063.308-.002.471-.275.629-.375.222-.795.293-1.223.332-.117.01-.242.002-.357.025-.398.087-.563.507-.332.841.063.089.141.166.213.247.914 1.048 1.75 2.152 2.393 3.391.213.408.387.829.463 1.288.023.143.031.283.008.423-.021.127-.092.186-.229.17-.209-.023-.402-.102-.594-.181-.129-.054-.256-.12-.383-.184-.213-.11-.422-.117-.615.033-.207.161-.238.385-.174.622.129.451.244.905.342 1.363.195.922.332 1.848.301 2.795-.01.285-.037.568-.113.84-.082.301-.17.355-.471.318-.01-.002-.021-.002-.031-.004-.619-.092-.838.115-.768.723.076.656.113 1.307.01 1.961-.064.4-.174.789-.391 1.137-.309.496-.756.775-1.336.842-.459.051-.559.135-.658.576-.139.619-.309 1.229-.611 1.789-.229.43-.496.824-.939 1.064.018-.146-.053-.248-.15-.346-.111-.109-.242-.188-.371-.268-.295-.18-.555-.385-.643-.744-.029-.119-.113-.242-.246-.229-.23.018-.465-.016-.678.143-.494.359-1.027.344-1.57.111-.426-.184-.717-.119-1.057.213-.422.41-.807.854-1.182 1.305-.199.236-.441.424-.713.568-.143.076-.283.076-.439.025-.455-.15-.654-.52-.801-.926-.172-.471-.191-.977-.273-1.465-.02-.117-.01-.24.039-.355.035-.078.084-.172.07-.25-.082-.418.064-.814.107-1.221.061-.6.211-1.189.412-1.766.016.018.029.033.041.051.059.078.109.188.23.127.125-.064.047-.17.027-.258-.191-.813-.695-1.344-1.471-1.619-.299-.105-.605-.184-.91-.264-.164-.047-.287-.125-.391-.271-.568-.789-1.347-1.289-2.257-1.6-.307-.107-.624-.121-.933-.021-.869.277-1.642.727-2.206 1.453-.228.293-.476.459-.825.518-.129.021-.251.068-.377.105-.274.08-.534.189-.775.344-.52.326-.807.814-.945 1.398-.044.182-.021.199.19.221.223.58.286 1.199.4 1.807.082.424.047.859.173 1.275.021.07.002.152.018.227.049.242-.125.441-.12.664.004.291-.069.564-.146.834-.103.359-.25.693-.603.895-.259.148-.542.166-.769.016-.229-.152-.453-.336-.637-.555-.386-.457-.764-.92-1.206-1.326-.32-.293-.564-.344-.947-.168-.563.26-1.105.268-1.63-.098-.07-.049-.153-.084-.234-.113-.398-.146-.643-.033-.708.377-.05.309-.244.471-.468.627-.07.051-.157.076-.231.121-.173.117-.355.221-.43.432zm24.381-6.178c.002.059.018.105.068.139.184.416.367.83.551 1.244.125-.914.184-1.816.125-2.734-.057-.906-.188-1.801-.367-2.764.766.402 1.111 1.055 1.477 1.715.023-.051.035-.068.035-.084.031-1.238-.102-2.459-.389-3.66-.115-.474-.225-.953-.449-1.394-.234-.722-.602-1.372-1.031-1.994-.273-.395-.621-.727-.932-1.089.297.043.594.087.891.13.016-.092-.037-.117-.076-.153-.234-.214-.484-.41-.744-.589-1.16-.788-2.395-1.335-3.838-1.295-1.094.031-1.967.467-2.598 1.349-.668.931-.879 2.004-.91 3.125-.09.013-.172-.018-.256-.041-1.136-.334-2.296-.479-3.478-.426-.959.043-1.898.202-2.809.513-.001-.772-.137-1.52-.409-2.241-.214-.566-.524-1.076-.984-1.484-.882-.78-1.934-.923-3.038-.747-1.407.225-2.603.905-3.665 1.838-.038.033-.096.056-.077.153.294-.048.592-.094.889-.143-.047.132-.167.199-.255.293-.769.811-1.341 1.741-1.707 2.799-.101.158-.141.341-.199.517-.409 1.242-.577 2.525-.644 3.826-.013.252-.002.508-.002.762.404-.637.762-1.281 1.485-1.621-.156.898-.283 1.789-.329 2.693-.048.914-.017 1.824.11 2.744.23-.627.591-1.182.875-1.779.013-.041.067-.076.015-.127v.01c.131-.023.143-.15.198-.234 1.091-1.678 2.396-3.164 3.982-4.395 1.314-1.02 2.761-1.784 4.376-2.215.104-.028.206-.082.347-.03-.214.161-.418.288-.581.463-.432.465-.484.987-.148 1.526.099.158.213.305.346.434.588.586 1.286 1.008 2.03 1.357.472.221.957.188 1.421-.045.461-.227.902-.486 1.316-.789.31-.225.604-.469.837-.777.514-.689.445-1.311-.205-1.872-.066-.055-.141-.104-.209-.16-.053-.046-.146-.054-.146-.158.033 0 .066-.01.098-.002.086.015.17.038.254.061 2.078.568 3.848 1.672 5.41 3.129 1.141 1.064 2.119 2.26 2.959 3.57.111.227.225.453.383.654zm-11.725-16.902c.022.002.046.002.067.002.021-.025.047-.048.06-.077.029-.068.057-.14.079-.214.192-.599.258-1.208.12-1.831-.242-1.101-.888-1.869-1.918-2.317-.064-.028-.138-.061-.229.041.675.515 1.189 1.152 1.506 1.932.319.789.338 1.625.315 2.464zm-3.587.703c.022-.056.04-.079.037-.094-.015-.054-.028-.107-.057-.15-.306-.507-.723-.887-1.272-1.122-.614-.262-1.257-.204-1.897-.191-.042.002-.085.018-.124.038-.036.021-.105-.007-.103.082 1.273.147 2.525.354 3.416 1.437zm8.488-2.077c0 .237.023.479-.008.714-.027.224-.084.446-.164.66-.084.224-.201.433-.311.645-.104.204-.32.329-.412.579.949-.411 1.34-1.818.895-2.598z" fill="#f2f1e9"/><path d="m29.978 34.106c-.201.576-.352 1.166-.412 1.766-.043.406-.189.803-.107 1.221.014.078-.035.172-.07.25-.049.115-.059.238-.039.355.082.488.102.994.273 1.465.146.406.346.775.801.926.156.051.297.051.439-.025.271-.145.514-.332.713-.568.375-.451.76-.895 1.182-1.305.34-.332.631-.396 1.057-.213.543.232 1.076.248 1.57-.111.213-.158.447-.125.678-.143.133-.014.217.109.246.229.088.359.348.564.643.744.129.08.26.158.371.268.098.098.168.199.15.346-.357.242-.75.268-1.158.188-.582-.111-.805.01-1.059.541-.363.762-.797 1.48-1.402 2.08-.131.131-.271.256-.422.361-.742.531-1.518.584-2.295.1-.283-.176-.531-.178-.832-.076-1.619.557-3.283.865-4.999.926-2.027.07-4.002-.191-5.935-.801-.166-.051-.329-.111-.495-.168-.219-.074-.416-.051-.622.076-.885.553-1.731.486-2.533-.184-.597-.496-1.029-1.125-1.396-1.799-.109-.203-.215-.406-.31-.615-.07-.156-.178-.273-.313-.369-.157-.115-.318-.164-.52-.107-.422.117-.841.115-1.244-.086-.037-.02-.068-.053-.101-.078.074-.211.256-.314.432-.426.074-.045.161-.07.231-.121.224-.156.418-.318.468-.627.065-.41.31-.523.708-.377.082.029.164.064.234.113.525.365 1.067.357 1.63.098.382-.176.627-.125.947.168.442.406.82.869 1.206 1.326.185.219.408.402.637.555.227.15.51.133.769-.016.353-.201.5-.535.603-.895.078-.27.15-.543.146-.834-.005-.223.169-.422.12-.664-.016-.074.003-.156-.018-.227-.126-.416-.092-.852-.173-1.275-.115-.607-.177-1.227-.4-1.807.232-.43.528-.801.933-1.076.242-.164.25-.16.38.092.218.418.471.811.769 1.176.783.949 1.742 1.633 2.949 1.941.207.055.409.066.614.016.607-.152 1.174-.4 1.693-.754.894-.609 1.567-1.408 2.06-2.367.139-.268.156-.275.402-.1.332.237.611.522.801.887zm-4.833 5.905c.451-.012.764-.199 1.027-.475.344-.357.741-.627 1.202-.814.689-.275.92-.707.787-1.438-.059-.328-.277-.561-.59-.619-.221-.043-.459.1-.621.389-.056.098-.114.18-.224.223-.146.059-.246.18-.357.283-.094.092-.184.191-.287.268-.492.355-1.053.383-1.626.314-.455-.057-.801-.289-1.08-.656-.24-.313-.534-.58-.97-.594-.268-.008-.521.043-.735.207-.24.182-.255.451-.021.713.181.199.314.406.347.68.059.48.661 1.088 1.14 1.096.259.002.516.051.775.023.213-.021.402.045.587.158.21.13.429.269.646.242z" fill="#e2c4ab"/><path d="m43.45 26.646c1.193.21 1.777-.349 1.773-1.491.115.086.143.207.188.308.551 1.222.922 2.496 1.207 3.799.287 1.316.451 2.646.359 3.996-.049.705-.201 1.383-.52 2.014-.369.727-.93 1.264-1.639 1.645-.053.031-.105.084-.215.033.439-1.129.844-2.275.951-3.51-.178.32-.348.648-.529.963-.527.914-1.141 1.76-1.912 2.484-.143.135-.307.246-.443.387-.379.387-.855.492-1.369.498-.426.006-.852.021-1.277.021-.209.004-.221-.033-.18-.236.078-.398.195-.762.697-.783.797-.318 1.332-.895 1.646-1.682.311-.785.404-1.604.342-2.443-.004-.063-.004-.129-.008-.195-.006-.102.039-.158.145-.182.664-.154.959-.637 1.084-1.256.16-.789.123-1.584.043-2.379-.069-.659-.2-1.312-.343-1.991z" fill="#b8a887"/><path d="m5.208 36.081c-.693-.309-1.198-.822-1.573-1.471-.333-.576-.5-1.209-.583-1.863-.18-1.428.018-2.83.293-4.225.161-.814.369-1.615.635-2.403.037-.109.042-.237.163-.326.286.839.916 1.008 1.709.85-.096.528-.199 1.028-.271 1.534-.133.92-.182 1.846-.029 2.77.108.646.4 1.156 1.092 1.324.149.037.144.135.144.25-.001.369-.014.744.008 1.113.04.66.199 1.293.529 1.875.372.652.912 1.105 1.635 1.33.041.012.082.025.12.043.007.002.009.018.018.047-.527.02-1.044-.033-1.559-.121-.117-.018-.196-.088-.282-.158-.755-.609-1.351-1.357-1.885-2.164-.332-.5-.626-1.02-.917-1.639-.036.195-.018.316.002.436.023.127.045.258.073.385.154.684.359 1.35.595 2.006.044.123.108.24.115.375-.011.009-.02.022-.032.032z" fill="#b8a785"/><path d="m5.241 36.048c.023.021.043.041.008.064-.005.004-.027-.021-.041-.031.012-.01.021-.023.033-.033z" fill="#b8a785"/><path d="m35.837 32.47c-.84-1.311-1.818-2.506-2.959-3.57-1.563-1.457-3.332-2.562-5.41-3.129-.084-.023-.168-.046-.254-.061-.031-.008-.064.002-.098.002 0 .104.094.112.146.158.068.056.143.104.209.16.65.562.719 1.183.205 1.872-.232.309-.527.553-.837.777-.414.303-.855.563-1.316.789-.465.232-.95.266-1.421.045-.744-.35-1.442-.771-2.03-1.357-.133-.129-.247-.275-.346-.434-.336-.539-.283-1.062.148-1.526.163-.176.367-.303.581-.463-.141-.051-.242.002-.347.03-1.615.431-3.062 1.196-4.376 2.215-1.586 1.23-2.891 2.717-3.982 4.395-.055.084-.066.211-.198.234-.036-.129.043-.229.093-.336.382-.826.882-1.586 1.365-2.354.227-.24.442-.484.575-.793.127-.115.289-.201.329-.391.125-.004.191-.104.258-.182.2-.242.409-.475.647-.68.455-.377.909-.754 1.372-1.138-.143-.169-.317-.261-.432-.426-.351-.503-.496-1.043-.426-1.653.023-.193.088-.382.085-.579.144-.339.373-.625.587-.917.163-.115.376-.125.532-.255.065-.003.131-.005.196-.01.455-.033.83.125 1.139.456.39.421.557.92.563 1.489.002.199-.12.487.06.571.164.079.401-.094.592-.199.132-.033.265-.066.398-.1.91-.311 1.85-.469 2.809-.513 1.182-.053 2.342.092 3.478.426.084.023.166.054.256.041.113.084.25.115.385.14.209.115.424.211.662.248.01.007.02.015.031.025-.01-.01-.018-.021-.025-.031-.002-.173.004-.347-.008-.52-.021-.377.063-.734.223-1.071.271-.576.773-1.017 1.477-.969.193.016.342.146.527.153.375.258.613.622.793 1.033.01.064.014.13.031.191.182.64.098 1.244-.221 1.826-.143.257-.344.461-.605.658.512.349.955.729 1.383 1.128.133.125.264.25.4.369.26.23.428.543.707.752.209.324.461.619.711.914.066.111.129.227.203.332.475.682.877 1.4 1.221 2.154-.027.027-.055.05-.086.074zm-10.323-6.843c-.131-.036-.225-.013-.268.066-.041.079.047.133.102.181.049.043.104.079.16.112.303.175.637.273.969.367.145.041.297.054.448.069.078.007.15-.026.176-.112.021-.071-.018-.125-.072-.166-.033-.025-.072-.049-.109-.066-.455-.242-.924-.428-1.406-.451zm6.038-1.654c.004-.196-.133-.37-.289-.367-.15.005-.271.158-.279.347-.004.194.137.375.289.373.136-.004.273-.178.279-.353zm-11.84-.018c-.002-.196-.115-.342-.269-.344-.165-.005-.288.15-.286.362.001.186.124.347.269.352.157.005.289-.164.286-.37z" fill="#662913"/><path d="m29.978 34.106c-.189-.365-.469-.65-.801-.889-.246-.176-.264-.168-.402.1-.492.959-1.166 1.758-2.06 2.367-.52.354-1.086.602-1.693.754-.205.051-.407.039-.614-.016-1.207-.309-2.166-.992-2.949-1.941-.298-.365-.551-.758-.769-1.176-.13-.252-.138-.256-.38-.092-.405.275-.701.646-.933 1.076-.211-.021-.234-.039-.19-.221.138-.584.425-1.072.945-1.398.241-.154.5-.264.775-.344.126-.037.248-.084.377-.105.35-.059.598-.225.825-.518.564-.727 1.337-1.176 2.206-1.453.31-.1.626-.086.933.021.91.311 1.688.811 2.257 1.6.104.146.227.225.391.271.305.08.611.158.91.264.775.275 1.279.807 1.471 1.619.02.088.098.193-.027.258-.121.061-.172-.049-.23-.127-.013-.016-.027-.032-.042-.05zm-5.333 1.846c.183-.008.367-.012.55-.055 1.033-.244 1.841-.822 2.46-1.67.32-.436.258-.709-.201-.998-.045-.029-.092-.057-.141-.08-.841-.387-1.669-.4-2.454.127-.177.121-.303.113-.469.02-.296-.17-.615-.287-.948-.346-.459-.084-.914-.086-1.325.184-.513.334-.589.715-.244 1.215.062.092.128.176.202.256.502.531 1.101.922 1.773 1.199.254.107.517.175.797.148z" fill="#672913"/><path d="m29.077 25.454c-.238-.036-.453-.133-.662-.248.045-.112.102-.222.125-.336.117-.584.357-1.111.713-1.588.512-.691 1.164-1.193 1.965-1.504.566-.219 1.15-.278 1.756-.265.799.018 1.504.296 2.178.686.113.066.168.166.154.301.311.362.658.694.932 1.089.43.622.797 1.272 1.031 1.994-.141.018-.127.127-.127.224-.004.261-.008.518-.059.78-.102.515-.232 1.009-.514 1.466-.143.23-.301.451-.469.662-.428.545-.986.908-1.6 1.199-.25-.295-.502-.59-.711-.914.064-.096.176-.127.271-.174.635-.301 1.158-.721 1.494-1.355.33-.627.521-1.271.414-1.996-.111-.775-.447-1.412-.994-1.968-.865-.875-2.344-1.114-3.457-.65-.092.039-.184.079-.217.186-.186-.007-.334-.137-.527-.153-.703-.048-1.205.393-1.477.969-.16.336-.244.693-.223 1.071.012.173.006.347.008.52z" fill="#b2723d"/><path d="m21.089 25.212c-.19.104-.428.278-.592.199-.18-.084-.058-.372-.06-.571-.006-.568-.173-1.068-.563-1.489-.31-.332-.684-.489-1.139-.456-.065.005-.131.007-.196.01-.088-.046-.175-.092-.263-.135-.746-.375-1.527-.451-2.336-.263-.487.112-.905.359-1.309.645-.588.413-.913 1.004-1.154 1.657-.146.397-.138.813-.128 1.226.02.829.347 1.534.875 2.159.369.436.869.678 1.363.93-.133.309-.348.553-.575.793-.093-.057-.182-.119-.279-.168-.877-.439-1.5-1.121-1.931-1.99-.294-.592-.394-1.231-.438-1.884-.006-.107.059-.252-.12-.293.366-1.058.938-1.989 1.707-2.799.088-.094.208-.161.255-.293-.014-.123.04-.194.146-.263.997-.65 2.083-.856 3.244-.64 1.146.214 2.046.829 2.727 1.767.4.555.6 1.2.766 1.858z" fill="#b2723d"/><path d="m12.243 25.582c.179.041.114.186.12.293.044.653.144 1.292.438 1.884.431.869 1.054 1.551 1.931 1.99.097.049.186.111.279.168-.483.768-.982 1.527-1.365 2.354-.05.107-.129.207-.093.336v-.01c-.082.033-.088.076-.015.127-.283.598-.644 1.152-.875 1.779-.126-.92-.158-1.83-.11-2.744.046-.904.173-1.795.329-2.693-.723.34-1.081.984-1.485 1.621 0-.254-.01-.51.002-.762.066-1.301.234-2.584.644-3.826.059-.176.099-.36.2-.517z" fill="#b58050"/><path d="m34.501 29.913c.613-.291 1.172-.654 1.6-1.199.168-.211.326-.432.469-.662.281-.457.412-.951.514-1.466.051-.263.055-.52.059-.78 0-.097-.014-.207.127-.224.225.441.334.92.449 1.394.287 1.201.42 2.422.389 3.66 0 .016-.012.033-.035.084-.365-.66-.711-1.313-1.477-1.715.18.963.311 1.857.367 2.764.059.918 0 1.82-.125 2.734-.184-.414-.367-.828-.551-1.244-.008-.053-.008-.111-.068-.139l.002.004c-.025-.27-.158-.5-.295-.725-.344-.754-.746-1.473-1.221-2.154-.075-.105-.138-.221-.204-.332z" fill="#b58050"/><path d="m21.089 25.212c-.166-.658-.366-1.303-.769-1.859-.681-.938-1.581-1.552-2.727-1.767-1.161-.216-2.247-.01-3.244.64-.106.069-.16.14-.146.263-.297.048-.594.094-.889.143-.019-.097.039-.12.077-.153 1.062-.933 2.257-1.614 3.665-1.838 1.104-.176 2.156-.033 3.038.747.46.408.77.918.984 1.484.272.721.408 1.468.409 2.241-.133.033-.266.066-.398.099z" fill="#b57e4f"/><path d="m35.306 22.499c.014-.135-.041-.234-.154-.301-.674-.39-1.379-.668-2.178-.686-.605-.013-1.189.046-1.756.265-.801.311-1.453.813-1.965 1.504-.355.477-.596 1.004-.713 1.588-.023.115-.08.224-.125.336-.135-.025-.271-.056-.385-.14.031-1.122.242-2.195.91-3.125.631-.882 1.504-1.318 2.598-1.349 1.443-.041 2.678.507 3.838 1.295.26.179.51.375.744.589.039.036.092.062.076.153-.297-.042-.593-.086-.89-.129z" fill="#b57e4f"/><g fill="#f2d39e"><path d="m24.493 16.218c.023-.839.004-1.675-.316-2.463-.316-.78-.831-1.417-1.506-1.932.092-.102.165-.069.229-.041 1.03.449 1.677 1.216 1.918 2.317.139.622.072 1.231-.12 1.831-.022.074-.05.146-.079.214-.013.028-.039.051-.06.077-.02-.001-.044-.001-.066-.003z"/><path d="m20.906 16.921c-.891-1.083-2.143-1.29-3.415-1.438-.002-.089.067-.061.103-.082.039-.021.082-.036.124-.038.64-.013 1.283-.071 1.897.191.549.235.966.615 1.272 1.122.028.043.042.097.057.15.002.016-.016.039-.038.095z"/><path d="m29.394 14.844c.445.78.055 2.187-.895 2.598.092-.25.309-.375.412-.579.109-.212.227-.421.311-.645.08-.214.137-.436.164-.66.031-.235.008-.477.008-.714z"/></g><path d="m35.925 32.399c.137.225.27.455.295.725-.158-.201-.271-.428-.383-.654.031-.024.059-.047.088-.071z" fill="#ac6123"/><path d="m13.538 32.724c-.073-.051-.066-.094.015-.127.052.05-.002.086-.015.127z" fill="#662913"/><path d="m36.218 33.12c.061.027.061.086.068.139-.051-.033-.066-.08-.068-.139z" fill="#ac6123"/><path d="m25.145 40.011c-.217.027-.435-.111-.647-.242-.185-.113-.374-.18-.587-.158-.26.027-.517-.021-.775-.023-.479-.008-1.081-.615-1.14-1.096-.032-.273-.166-.48-.347-.68-.233-.262-.219-.531.021-.713.215-.164.468-.215.735-.207.436.014.729.281.97.594.279.367.625.6 1.08.656.574.068 1.134.041 1.626-.314.104-.076.193-.176.287-.268.111-.104.211-.225.357-.283.109-.043.168-.125.224-.223.162-.289.4-.432.621-.389.313.059.531.291.59.619.133.73-.098 1.162-.787 1.438-.461.188-.858.457-1.202.814-.263.276-.575.463-1.026.475z" fill="#f2f1e9"/><path d="m31.302 23.042c.033-.107.125-.147.217-.186 1.113-.464 2.592-.224 3.457.65.547.556.883 1.193.994 1.968.107.724-.084 1.369-.414 1.996-.336.635-.859 1.055-1.494 1.355-.096.047-.207.078-.271.174-.279-.209-.447-.521-.707-.752-.137-.119-.268-.244-.4-.369.012-.111.088-.135.184-.133.471.008.832-.234 1.156-.527.455-.415.619-.953.563-1.563-.088-.938-.791-1.593-1.715-1.645-.262-.015-.521 0-.775.064-.182-.41-.42-.774-.795-1.032z" fill="#ae682c"/><path d="m16.82 27.872c-.238.205-.448.438-.647.68-.066.078-.133.178-.258.182-.293-.168-.6-.301-.882-.494-.897-.621-1.407-1.916-1.118-3.089.207-.831.682-1.443 1.411-1.866.612-.356 1.269-.441 1.966-.339.253.036.473.158.715.214-.214.293-.443.579-.587.917-.065-.005-.134.002-.195-.015-.312-.092-.626-.082-.932.015-.552.173-.969.479-1.198 1.053-.155.385-.153.76-.094 1.14.059.383.246.741.544.981.274.217.59.404.969.438.107.011.279-.001.306.183z" fill="#ae682c"/><path d="m32.095 24.075c.254-.064.514-.079.775-.064.924.051 1.627.707 1.715 1.645.057.609-.107 1.147-.563 1.563-.324.293-.686.535-1.156.527-.096-.002-.172.021-.184.133-.428-.398-.871-.779-1.383-1.128.262-.197.463-.401.605-.658.318-.582.402-1.186.221-1.826-.017-.062-.021-.128-.03-.192z" fill="#ac6123"/><path d="m16.82 27.872c-.027-.184-.199-.172-.307-.184-.379-.033-.695-.221-.969-.438-.298-.24-.486-.599-.544-.981-.059-.38-.061-.754.094-1.14.229-.573.646-.879 1.198-1.053.306-.097.62-.107.932-.015.062.018.13.01.195.015.002.196-.063.385-.085.579-.07.609.075 1.15.426 1.653.115.165.289.257.432.426-.463.384-.917.761-1.372 1.138z" fill="#ac6123"/><path d="m18.007 23.16c-.242-.056-.461-.179-.715-.214-.697-.102-1.354-.018-1.966.339-.729.423-1.205 1.035-1.411 1.866-.289 1.173.221 2.468 1.118 3.089.282.193.589.326.882.494-.04.189-.201.275-.329.391-.494-.252-.994-.494-1.363-.93-.529-.625-.855-1.33-.875-2.159-.009-.413-.018-.829.128-1.226.241-.653.566-1.244 1.154-1.657.404-.286.822-.533 1.309-.645.81-.188 1.591-.112 2.336.263.088.043.175.089.263.135-.155.129-.368.139-.531.254z" fill="#b06c32"/><path d="m25.514 25.627c.482.023.951.209 1.405.451.037.018.076.041.109.066.055.041.094.095.072.166-.025.086-.098.119-.176.112-.151-.016-.304-.028-.448-.069-.332-.094-.666-.191-.969-.367-.057-.033-.111-.069-.16-.112-.055-.048-.143-.102-.102-.181.044-.079.138-.102.269-.066z" fill="#ae682c"/><path d="m31.552 23.973c-.006.176-.143.349-.279.352-.152.002-.293-.179-.289-.373.008-.188.129-.341.279-.347.156-.002.293.171.289.368z" fill="#f2f1e9"/><path d="m19.712 23.955c.002.206-.129.375-.286.37-.145-.005-.268-.166-.269-.352-.002-.211.121-.367.286-.362.155.002.267.148.269.344z" fill="#f2f1e9"/><path d="m29.083 25.449c.008.01.016.021.025.031-.012-.01-.021-.018-.031-.025z" fill="#b2723d"/><path d="m24.645 35.952c-.28.027-.543-.041-.797-.148-.673-.277-1.271-.668-1.773-1.199-.074-.08-.141-.164-.202-.256-.345-.5-.269-.881.244-1.215.411-.27.866-.268 1.325-.184.333.059.652.176.948.346.166.094.292.102.469-.02.785-.527 1.613-.514 2.454-.127.049.023.096.051.141.08.459.289.521.563.201.998-.619.848-1.427 1.426-2.46 1.67-.183.043-.367.047-.55.055zm-.852-.793c-.188 0-.238.045-.193.152.129.307.654.459.927.27.081-.055.096-.111.001-.17-.235-.148-.49-.226-.735-.252z" fill="#ec6570"/><path d="m23.793 35.159c.244.025.5.104.734.252.095.059.08.115-.001.17-.272.189-.798.037-.927-.27-.044-.107.006-.152.194-.152z" fill="#e2c4ab"/></g></svg>