<svg width="291" height="296" version="1.1" viewBox="0 0 291 296" xmlns="http://www.w3.org/2000/svg"><g transform="matrix(.82238 0 0 .82238 25.039 37.957)" style="opacity:.96"><circle cx="146" cy="155" r="130" style="fill-opacity:.147;fill:#f0f;stroke-width:.885"/></g><g transform="matrix(.82238 0 0 .82238 25.039 37.957)"><path d="m36.6 206c0.0224-0.0624-0.419-0.885-0.981-1.83-2.26-3.79-4.4-8.41-5.59-12-0.578-1.77-1.35-4.85-1.35-5.39 0-0.168-0.0697-0.348-0.155-0.401-0.0851-0.0528-0.875 0.082-1.75 0.3-0.88 0.218-2.19 0.468-2.92 0.556-3.84 0.467-8.43-0.231-9.44-1.44-0.399-0.476-0.411-0.542-0.305-1.76 0.278-3.2 1.83-6.56 4.55-9.85 1.08-1.31 1.47-1.9 1.34-2.04-0.0528-0.0529-0.382-0.0962-0.733-0.0962-0.919-5e-5 -4.14-0.55-5.86-1 136-194 206-69.8 265 3e-5 -2.16 0.558-4.42 0.812-6.59 1.1-0.132 0.133 0.258 0.724 1.34 2.04 2.72 3.29 4.27 6.65 4.55 9.85 0.106 1.21 0.0941 1.28-0.305 1.76-1.01 1.2-5.6 1.9-9.44 1.44-1.61-0.213-3.1-0.655-4.68-0.856-0.085 0.0528-0.155 0.233-0.155 0.401 0 0.54-0.77 3.62-1.35 5.39-2.78 8.51-8.62 18-17 27.5-2.45 2.79-9.22 9.57-12.2 12.2-14.7 13.1-31.8 24.1-49.1 31.5-2.33 1.23-4.97 2.1-7.28 2.93-13.3 4.85-23.6 6.86-33 6.47-7.63-0.315-17.1-2.5-28-6.47-67.3-35.3-57.2-30.8-79-60.3z" style="fill:#fdf4ea;stroke-width:.156"/><path d="m40.4 138c55.9-80.6 68.9-67.9 55.9-80.6-13.1-12.7-57.6-57.6-66.5-50.6-8.84 7.07-23.7 89.1 10.6 131z" style="fill:#fdf4ea"/><path d="m38.2 134c-5.55-7.87-9.96-17.3-13-27.9-6.19-21.4-7.3-48.5-3.03-74.1 1.9-11.4 5.01-21.2 7.6-23.9 1.34-1.41 1.41-1.44 3.22-1.22 5.74 0.68 17 8.49 33.4 23.2 4.23 3.77 8.79 8 13.7 12.7 6.51 6.21 11.6 11.1 14.9 14.5 3.12 3.14 4.85 5.02 5.01 5.48 0.234 0.639 0.237 1.28 0.01 1.88-0.19 0.5-3.71 4.36-7.83 8.57-12 12.2-17.5 18.5-27.1 30.5-5.94 7.4-13.4 17.3-19.7 26.2-2.15 3.02-4.23 5.77-4.62 6.13-0.699 0.633-0.742 0.6-2.54-1.95z" style="fill:#fdf4ea;paint-order:stroke fill markers"/><path d="m254 139c-55.9-80.6-68.9-67.9-55.9-80.6 13.1-12.7 57.6-57.6 66.5-50.6 8.84 7.07 23.7 89.1-10.6 131z" style="fill:#fdf4ea"/><path d="m257 135c5.55-7.87 9.96-17.3 13-27.9 6.19-21.4 7.3-48.5 3.03-74.1-1.9-11.4-5.01-21.2-7.6-23.9-1.34-1.41-1.41-1.44-3.22-1.22-5.74 0.68-17 8.49-33.4 23.2-4.23 3.77-8.79 8-13.7 12.7-6.51 6.21-11.6 11.1-14.9 14.5-3.12 3.14-4.85 5.02-5.01 5.48-0.234 0.639-0.237 1.28-0.01 1.88 0.19 0.5 3.71 4.36 7.83 8.57 12 12.2 17.5 18.5 27.1 30.5 5.94 7.4 13.4 17.3 19.7 26.2 2.15 3.02 4.23 5.77 4.62 6.13 0.699 0.633 0.742 0.6 2.54-1.95z" style="fill:#fdf4ea;paint-order:stroke fill markers"/></g><g transform="matrix(.82238 0 0 .82238 25.039 37.957)"><path d="m40 89c-3.67-13.4-5.68-31.5-5.17-46.3 0.209-5.96 0.787-13 1.09-13.4 0.149-0.166 3.02 1.11 5.03 2.22 7.38 4.12 14.3 10.1 21.3 18.5 4.09 4.88 8.57 11.4 11.6 16.8l0.574 1.03-0.468 4.59c-11.6 11.6-19.8 22.8-26.2 35.8-2.98-5.37-6.33-14.1-7.78-19.4zm203 14.7c-7.87-13.8-14.8-24.7-26.2-34.3 3.72-6.35 8.79-14.1 13-19.2 7.08-8.44 14-14.4 21.3-18.5 2.01-1.12 4.88-2.39 5.03-2.22 0.305 0.34 0.884 7.42 1.09 13.4 0.591 16.8-2.03 37-6.65 51.3-1.44 3.96-2.89 8.49-4.92 12-0.101 0.0625-1.95-0.777-2.72-2.32z" style="fill:#f87b04;stroke-width:.156"/></g><g transform="matrix(.82238 0 0 .82238 25.039 37.957)"><path d="m120 192c-6.52 1.67-12.3 2.55-18.4 1.46-14-2.46-24.9-11.7-33.5-19.4-4.41-4-9.22-8.38-14.7-10.3-12.219-2.3187-23.235 3.1377-32.04 8.896-7.02-1.26-13.6-1.87-18.8-6.76-6.7067-1.5391 13.845-13.656 18.514-15.643-4.19-3.8-12-8.22-13-14 2.3007-4.0716 12.986-2.1784 17.08-1.125 2.25 0.691 1.89 0.177 1.1-1.29-2.65-4.79-5.5-13-7.72-22.2-6.5232-34.297-10.281-70.32-0.6-103.5 0.865-2.42 2.72-6.24 3.32-6.85 11.424-3.5827 28.969 5.526 37.1 9.91 16.6 9.13 35.4 23.6 47.9 36.9 1.46 1.55 2.73 2.86 2.83 2.92 5.8831-2.8764 12.613-4.2953 17.97-5.243 0.64667-2.6552 1.1542-5.6625 2.09-8.12 3.64-9.46 11.4-17.3 20.4-20.4 2.31-0.8 3.38-0.989 3.86-0.677 1.5453 6.9641-0.77693 13.441-5.159 18.66 6.1165-1.1992 11.26-1.4875 14.57 1.602 0.74687 1.5918-3.1547 5.4848-5.85 7.59 5.3187 0.38278 10.963 1.7551 15.66 2.935 2.69 0.683 8.21 2.47 9.98 3.24 0.599 0.259 1.17 0.424 1.27 0.366 0.0993-0.0574 1.37-1.37 2.83-2.92 12.5-13.3 31.3-27.8 47.9-36.9 13.9-7.61 26.5-11.7 33.5-10.9 4.4966 0.12466 5.5774 4.1634 6.92 7.84 5.75 16.1 7.3 46.6 3.91 77.1-2.86 17.4-5.35 34.7-13 50.1 3.4417-2.3068 18.516-2.6672 18.99 0.868-2.8 6.65-8.27 10.3-13 14 3.5304 1.5826 23.755 11.318 18.474 15.66-4.73 4.78-13 6.27-18.8 6.76-4.48-2.92-9.43-5.65-13.8-7.44-6.42-2.58-13.3-3.12-18.2-1.46-5.98 2.27-10.3 6.35-14.7 10.3-5.06 4.8-11.5 9.97-15.4 12.4-6.21 3.77-11.6 5.87-18 7.05-7.02 1.26-14.5-0.194-20.6-1.95-18.554 12.061-37.151-2.9081-50.899 0.521zm-3.702-33.39c-3.1294-7.4754-7.4823-13.53-13.88-18.6-9.6076-6.776-22.973-11.619-33.348-6.0052-3.14 1.7465-4.6198 3.4898-7.0088 6.8556-3.3898 4.8283-2.7076 8.8513-1.9094 9.2431 20.208-1.7904 39.846-0.30994 56.759 19.896 1.6499-3.8967 0.54446-7.5737-0.6128-11.389zm109.57-24.219c-10.951-6.6179-26.248-1.141-35.249 5.5647-5.9595 4.9633-11.301 11.482-13.88 18.6-1.19 1.94-1.75 12.5-1.2 9.23 14.956-13.833 31.136-15.991 42.205-19.932 4.276-2.0686 13.371 5.3079 14.988 2.2952 2.4444-4.5548-1.8059-12.714-6.8638-15.758zm4.9515 17.891c-174.18 107.66-87.089 53.831 0 0zm-191.08-23.934c0.496-0.529 0.727-1.2 1.35-3.91 1.06-4.59 2.41-10.1 4.62-15.2 6.6-13.5 18.3-33.2 29.5-41 3-1.95 6.05-4.31 8.84-5.75 3.23-1.66 3.18-2.12-0.845-8.17-10.5-15.8-26.7-29.6-42.2-36.2-3.6757-1.331-7.3099-3.3059-10.95-2.716-1.59 1.26-3.64 9.1-4.79 18.4-0.922 7.41-1.17 12.1-1.18 22.2-4e-3 10.2 0.251 15.3 1.25 25 1.51 14.7 4.86 29.8 8.8 39.8 1.03 2.62 2.89 6.28 3.6 7.09 0.757 0.863 1.42 0.99 1.99 0.382zm229-47.3c1.4721-16.801 1.9406-32.009 0.07-47.2-2.9715-14.618-0.11193-22.321-15.74-15.684-15.6 6.61-31.7 20.4-42.2 36.2-2.3 3.45-3.15 4.99-3.15 5.71 0 1.1 0.307 1.43 2.3 2.45 3.5 1.85 5.91 3.75 8.92 5.83 8.06 5.18 11.3 8.74 15.4 14.2 4.92 6.58 10.354 15.2 13.713 23.328 2.2275 6.442 6.4392 19.12 7.1768 22.932 9.03-9.28 12.4-37.1 13.5-47.6zm-137.01 35.76c3.49-8.81 0.076-17-4.51-23.3-1.52-2.06-4.69-5.22-6.62-6.61-4.36-2.87-10.2-5.2-15-3.64-7 2.93-8.32 9.2-7.27 15.7 2.16 12.7 14.1 24.3 24.4 23.7 3.9723-0.82915 7.4066-2.6619 9-5.85zm43.51 5.48c4.89-1.44 8.44-3.71 11.7-7.01 4.45-4.52 7.66-10.5 8.65-16.3 1.87-6.95-1.76-13.7-7.27-15.7-5.56-1.26-10.5 0.445-15 3.64-6.31 4.49-10.5 11.7-12.1 18.3-0.756 3.99-0.647 8.31 0.977 11.7 2.3 5.21 8.96 6.38 13.1 5.48z" style="fill:#f79d0a;stroke-width:.156"/></g><g transform="matrix(.82238 0 0 .82238 25.039 37.957)"><path d="m143 261c-6.19-0.855-11.7-3.57-15.4-7.62-3.3145-4.2566-5.2511-8.6337-5.4776-13.401 5.7426-0.93481 22.879-6.2286 24.369-6.035 6.41 0.918 16.101 4.8965 23.811 5.205-1.0508 14.567-14.826 23.422-27.456 21.9z" style="fill:#fda3a3;stroke-width:.156"/></g><g transform="matrix(.82238 0 0 .82238 25.039 37.957)"><path d="m58.91 291.96c-1.94-1.79-4.78-8.04-6.66-14.7-1.5847-5.9416-2.7058-10.892-2.226-16.42-3-0.528-4.29-1.78-5.33-3.95-6.01 2.95-13.3 2.53-18.8 2.02-4.9992-0.59908-9.7747-1.5342-14.12-4.05-0.847-0.605-2.17-4.68-2.76-8.47-0.373-2.41-0.374-7.34-2e-3 -9.84 2.1-14.1 11.7-27.1 25.3-34.2 4.5-2.36 9.88-4.14 11.8-3.91 2.69 0.319 6.6 5.36 9.3 12 2.6121 6.8122 4.4565 13.63 3.518 20.95-0.295 2.12-0.267 2.26 0.449 2.26 4.73 0.564 8.1 4.13 9.49 7.67 0.0689 0 0.834-0.357 1.7-0.792 7.94-4 19.7-3.84 29.5 0.394 2.6 1.12 5.4 2.83 5.75 3.49 0.247 0.472 0.207 5.69-0.0597 7.74-1.43 11-6.3 21-13.9 28.7-8.7864 6.5693-21.355 15.223-32.949 11.108z" style="fill:#f865b0;stroke-width:.156"/></g><g><path transform="matrix(.82238 0 0 .82238 25.039 37.957)" d="m118 240c-10.223-0.48128-20.358-5.6958-25.3-13.51-2.62-3.95-4.03-8.14-4.46-13.3-0.211-2.5-0.0136-5.49 0.419-6.33 0.272-0.527 0.886-0.843 1.35-0.696 0.697 0.222 0.788 0.664 0.92 4.49 0.134 3.9 0.25 4.85 0.867 7.14 3.41 12.7 16.1 20.5 32 19.6 6.64-0.378 13.7-2.23 19.9-5.25 0.961-0.466 1.27-0.7 1.42-1.07 0.267-0.657 0.425-9.57 0.173-9.75-5.2385-1.419-10.731-4.8151-14.64-7.953-4.5686-4.1115-12.665-11.48-11.13-17.81 2.2896-5.545 8.3663-8.0962 13.22-9.55 12.8-3.75 28.5-1.83 36.6 4.46 1.95 1.51 3.73 3.71 4.11 5.09 1.3403 5.5033-5.2061 12.988-11.13 17.81-4.6195 3.6103-9.1561 6.3244-14.63 7.947-0.247 0.182-0.0953 9.12 0.166 9.76 0.218 0.533 1.22 1.08 4.49 2.43 22 9.09 44.1 2 48.8-15.7 1.5384-4.2422 0.53884-11.936 1.787-11.63 2.3189-0.99238 1.9163 5.1247 1.769 7.026-0.541 6.42-2.75 11.8-6.78 16.4-3.13 3.59-8.13 6.81-13.2 8.48-6.51 2.07-12.7 2.56-18.7 1.83-7.7006-1.2173-13.435-3.1058-19.53-5.97-8.9153 4.4366-19.85 6.6188-28.38 6.11zm-2.38-70c-2.5418-2.101-4.4435-4.4421-7.13-6.67-3.42-2.8-8.31-5.74-12.4-7.42-8.812-3.4866-18.961-4.9748-27.8-2.34-1.11 0.349-3.01 0.707-3.74 0.705-2.7013-0.47042-4.2854-2.9774-3.74-5.36l-0.936-0.214c-0.515-0.118-1.6-0.543-2.42-0.945-3.44-2.32-5.84-4.75-6.71-8.57 0.144-0.0892 0.345 0.158 1.6 1.96 3.0827 3.1719 6.0655 5.2784 9.913 5.4642l3.07-3.01c-3.735-2.6954-5.8574-7.2414-6.105-10.91-0.1-1.89 0.0439-1.93 0.569-0.156 1.5874 4.0676 4.0155 8.0905 7.768 9.72l1.3-0.7c7.26-3.9 17.3-3.89 26.5 9e-3 8.41 3.58 15.6 10.2 19.4 17.9 1.47 2.95 2.44 6.34 2.47 8.66 0.02 1.33 5e-3 1.39-0.417 1.76-0.5 0.433-0.63 0.448-1.28 0.154zm60.3-0.154c-0.422-0.365-0.437-0.429-0.417-1.76 0.035-2.32 1-5.71 2.47-8.66 3.83-7.69 11-14.3 19.4-17.9 9.16-3.9 19.2-3.9 26.5-9e-3l1.3 0.7 0.808-0.41c2.76-1.4 5.84-5.52 6.96-9.31 0.525-1.78 0.669-1.74 0.569 0.156-0.807 4.81-1.76 7.19-5.93 11.1l1.36 1.33 1.53 1.51 0.883-0.0942c1.1-0.118 2.47-0.453 3.49-0.858 1.87-0.74 4.28-2.7 5.54-4.51s1.46-2.05 1.6-1.96c-0.476 2.51-2.08 4.65-3.67 6.26-1.59 1.63-3.03 2.65-5.46 3.25l-0.936 0.214 0.0474 1.02c0.0534 1.16-0.24 1.96-1.09 3-0.592 0.72-1.84 1.34-2.7 1.34-0.73 2e-3 -2.63-0.356-3.74-0.705-3.01-0.944-6.36-1.39-10.3-1.38-3.85 0.0112-6.26 0.323-10.1 1.3-5.93 1.52-11 3.74-15.8 6.92-3.11 2.07-5.31 3.91-8.21 6.88-2.17 2.22-3.07 2.96-3.62 2.96-0.25-0.0809-0.413-0.265-0.59-0.379z" style="fill:#050403;stroke-width:.156"/></g></svg>
