<svg width="291" height="296" version="1.1" viewBox="0 0 291 296" xmlns="http://www.w3.org/2000/svg" xmlns:osb="http://www.openswatchbook.org/uri/2009/osb"><g style="opacity:.96"><ellipse cx="146" cy="155" rx="130" ry="130" style="fill-opacity:.147;fill:#f0f;stroke-width:.885"/></g><g><path d="m36.6 206c0.0224-0.0624-0.419-0.885-0.981-1.83-2.26-3.79-4.4-8.41-5.59-12-0.578-1.77-1.35-4.85-1.35-5.39 0-0.168-0.0697-0.348-0.155-0.401-0.0851-0.0528-0.875 0.082-1.75 0.3-0.88 0.218-2.19 0.468-2.92 0.556-3.84 0.467-8.43-0.231-9.44-1.44-0.399-0.476-0.411-0.542-0.305-1.76 0.278-3.2 1.83-6.56 4.55-9.85 1.08-1.31 1.47-1.9 1.34-2.04-0.0528-0.0529-0.382-0.0962-0.733-0.0962-0.919-5e-5 -4.14-0.55-5.86-1 136-194 206-69.8 265 3e-5 -2.16 0.558-4.42 0.812-6.59 1.1-0.132 0.133 0.258 0.724 1.34 2.04 2.72 3.29 4.27 6.65 4.55 9.85 0.106 1.21 0.0941 1.28-0.305 1.76-1.01 1.2-5.6 1.9-9.44 1.44-1.61-0.213-3.1-0.655-4.68-0.856-0.085 0.0528-0.155 0.233-0.155 0.401 0 0.54-0.77 3.62-1.35 5.39-2.78 8.51-8.62 18-17 27.5-2.45 2.79-9.22 9.57-12.2 12.2-14.7 13.1-31.8 24.1-49.1 31.5-2.33 1.23-4.97 2.1-7.28 2.93-13.3 4.85-23.6 6.86-33 6.47-7.63-0.315-17.1-2.5-28-6.47-67.3-35.3-57.2-30.8-79-60.3z" style="fill:#fdf4ea;stroke-width:.156"/><path d="m40.4 138c55.9-80.6 68.9-67.9 55.9-80.6-13.1-12.7-57.6-57.6-66.5-50.6-8.84 7.07-23.7 89.1 10.6 131z" style="fill:#fdf4ea"/><path d="m38.2 134c-5.55-7.87-9.96-17.3-13-27.9-6.19-21.4-7.3-48.5-3.03-74.1 1.9-11.4 5.01-21.2 7.6-23.9 1.34-1.41 1.41-1.44 3.22-1.22 5.74 0.68 17 8.49 33.4 23.2 4.23 3.77 8.79 8 13.7 12.7 6.51 6.21 11.6 11.1 14.9 14.5 3.12 3.14 4.85 5.02 5.01 5.48 0.234 0.639 0.237 1.28 0.01 1.88-0.19 0.5-3.71 4.36-7.83 8.57-12 12.2-17.5 18.5-27.1 30.5-5.94 7.4-13.4 17.3-19.7 26.2-2.15 3.02-4.23 5.77-4.62 6.13-0.699 0.633-0.742 0.6-2.54-1.95z" style="fill:#fdf4ea;paint-order:stroke fill markers"/><path d="m254 139c-55.9-80.6-68.9-67.9-55.9-80.6 13.1-12.7 57.6-57.6 66.5-50.6 8.84 7.07 23.7 89.1-10.6 131z" style="fill:#fdf4ea"/><path d="m257 135c5.55-7.87 9.96-17.3 13-27.9 6.19-21.4 7.3-48.5 3.03-74.1-1.9-11.4-5.01-21.2-7.6-23.9-1.34-1.41-1.41-1.44-3.22-1.22-5.74 0.68-17 8.49-33.4 23.2-4.23 3.77-8.79 8-13.7 12.7-6.51 6.21-11.6 11.1-14.9 14.5-3.12 3.14-4.85 5.02-5.01 5.48-0.234 0.639-0.237 1.28-0.01 1.88 0.19 0.5 3.71 4.36 7.83 8.57 12 12.2 17.5 18.5 27.1 30.5 5.94 7.4 13.4 17.3 19.7 26.2 2.15 3.02 4.23 5.77 4.62 6.13 0.699 0.633 0.742 0.6 2.54-1.95z" style="fill:#fdf4ea;paint-order:stroke fill markers"/></g><g><path d="m40 89c-3.67-13.4-5.68-31.5-5.17-46.3 0.209-5.96 0.787-13 1.09-13.4 0.149-0.166 3.02 1.11 5.03 2.22 7.38 4.12 14.3 10.1 21.3 18.5 4.09 4.88 8.57 11.4 11.6 16.8l0.574 1.03-0.468 4.59c-11.6 11.6-19.8 22.8-26.2 35.8-2.98-5.37-6.33-14.1-7.78-19.4zm203 14.7c-7.87-13.8-14.8-24.7-26.2-34.3 3.72-6.35 8.79-14.1 13-19.2 7.08-8.44 14-14.4 21.3-18.5 2.01-1.12 4.88-2.39 5.03-2.22 0.305 0.34 0.884 7.42 1.09 13.4 0.591 16.8-2.03 37-6.65 51.3-1.44 3.96-2.89 8.49-4.92 12-0.101 0.0625-1.95-0.777-2.72-2.32z" style="fill:#f87b04;stroke-width:.156"/></g><g><path d="m120 192c-6.52 1.67-12.3 2.55-18.4 1.46-14-2.46-24.9-11.7-33.5-19.4-4.41-4-9.22-8.38-14.7-10.3-3.22-1.08-6.99-1.23-11.7-0.444-3.31 0.553-6.65 1.76-11.5 4.17-3.03 1.5-4.5 2.33-7.16 4.07l-1.68 1.1c-7.02-1.26-13.6-1.87-18.8-6.76-1.06-1.01-1.1-1.54-0.226-2.86 3.23-4.88 10.2-9.9 16.7-12 1.12-0.365 2.04-0.718 2.04-0.783-4.19-3.8-12-8.22-13-14-0.146-1.07 0.163-1.31 2.28-1.8 4.89-0.76 10.1-0.58 14.8 0.675 2.25 0.691 1.89 0.177 1.1-1.29-2.65-4.79-5.5-13-7.72-22.2-5.16-21.4-7.44-50.8-5.76-74.1 0.873-12.1 2.7-22.5 5.16-29.4 0.865-2.42 2.72-6.24 3.32-6.85 0.502-0.503 1.26-0.712 3.6-0.99 6.97-0.828 19.6 3.3 33.5 10.9 16.6 9.13 35.4 23.6 47.9 36.9 1.46 1.55 2.73 2.86 2.83 2.92 0.0993 0.0574 0.671-0.108 1.27-0.367 3.05-1.32 9.85-3.33 14.5-4.28 1.12-0.229 2.11-0.497 2.2-0.596 0.0956-0.0985 0.258-0.807 0.36-1.57 0.254-1.9 0.945-4.52 1.73-6.55 3.64-9.46 11.4-17.3 20.4-20.4 2.31-0.8 3.38-0.989 3.86-0.677 0.573 0.377 0.783 1.53 0.674 3.69-0.201 3.98-1.99 8.85-4.9 13.3-0.563 0.866-0.983 1.62-0.933 1.67 0.0504 0.0507 0.744-0.0922 1.54-0.318 3.8-1.07 6.77-1.13 9.78-0.17 1.56 0.494 3.03 1.44 3.25 2.09 0.534 1.54-1.36 4.18-4.69 6.55-0.669 0.474-1.19 0.942-1.16 1.04 0.0324 0.0977 0.509 0.23 1.06 0.295 4.99 0.584 10.2 1.52 14.6 2.64 2.69 0.683 8.21 2.47 9.98 3.24 0.599 0.259 1.17 0.424 1.27 0.366 0.0993-0.0574 1.37-1.37 2.83-2.92 12.5-13.3 31.3-27.8 47.9-36.9 13.9-7.61 26.5-11.7 33.5-10.9 2.34 0.278 3.1 0.487 3.6 0.99 0.6 0.602 2.45 4.42 3.32 6.85 5.75 16.1 7.3 46.6 3.91 77.1-2.86 17.4-5.35 34.7-13 50.1 0 0.21 0.333 0.165 1.89-0.252 3.81-1.06 17.2-1.9 17.1 1.12-2.8 6.65-8.27 10.3-13 14 6.95 2.36 14.7 7 18.7 12.8 0.871 1.31 0.829 1.84-0.226 2.86-4.73 4.78-13 6.27-18.8 6.76-4.48-2.92-9.43-5.65-13.8-7.44-6.42-2.58-13.3-3.12-18.2-1.46-5.98 2.27-10.3 6.35-14.7 10.3-5.06 4.8-11.5 9.97-15.4 12.4-6.21 3.77-11.6 5.87-18 7.05-7.02 1.26-14.5-0.194-20.6-1.95-23.3 10.8-36.5-3.72-50.8 0.488zm-2.15-25.6c2e-3 -1.64-0.0726-2.23-0.532-4.15-0.294-1.23-0.755-2.87-1.02-3.64-1.16-3.33-3.83-8-6.49-11.3-1.5-1.89-5.46-5.8-7.39-7.3-6.29-4.9-12.9-7.88-19.6-8.89-5.51-0.822-10.7 0.698-15 3.73-1.72 1.24-4.9 4.39-4.9 5.02 2.25 2.25 3.62 4.22 6.16 1.91 8.2-4.4 12-1.85 22 3.5 7.63-4.5 26.7 28 26.7 22.2zm58.2-0.982c7.35-26 50.3-14.6 53.9-27 0-0.633-2.26-3.09-3.98-4.33-1.89-1.37-4.88-2.55-7.64-3.02-2.03-0.351-5.79-0.351-8.11-2e-3 -6.72 1.01-13.3 4-19.6 8.89-1.93 1.5-5.89 5.41-7.39 7.3-2.66 3.34-5.34 8.02-6.49 11.3-1.19 1.94-1.75 12.5-1.2 9.23 0.0696-0.516 0.271-1.61 0.448-2.42zm-115-16.2c-0.45-1.45-1.25-0.457-0.758 0.871 0.0969-0.0319 0.73-0.63 0.758-0.871zm2.69-3.9c0.541-0.369 2-0.92 2.1-1.5 0.236-1.41-2.35-5.43-3.27-3.89-0.725 1.2-2.43 4.2-2.37 7.62 0.508 0.295 1.56 0.0556 2.15 0.116 0.143 0.0145 2.74-1.25 3.58-2.08zm169 1.13c0.305-0.449-0.906-6.13-1.37-6.42-13.1 6.13 2.4 20.7 1.37 6.42zm-193-18.1c0.496-0.529 0.727-1.2 1.35-3.91 1.06-4.59 2.41-10.1 4.62-15.2 6.6-13.5 18.3-33.2 29.5-41 3-1.95 6.05-4.31 8.84-5.75 3.23-1.66 3.18-2.12-0.845-8.17-10.5-15.8-26.7-29.6-42.2-36.2-2.8-1.19-5.01-1.96-7.3-2.56-2.09-0.544-3.1-0.587-3.65-0.156-1.59 1.26-3.64 9.1-4.79 18.4-0.922 7.41-1.17 12.1-1.18 22.2-4e-3 10.2 0.251 15.3 1.25 25 1.51 14.7 4.86 29.8 8.8 39.8 1.03 2.62 2.89 6.28 3.6 7.09 0.757 0.863 1.42 0.99 1.99 0.382zm229-47.3c1-9.7 1.26-14.8 1.25-25-4e-3 -10.1-0.255-14.8-1.18-22.2-1.16-9.29-3.2-17.1-4.79-18.4-0.546-0.431-1.55-0.388-3.65 0.156-2.29 0.595-4.5 1.37-7.3 2.56-15.6 6.61-31.7 20.4-42.2 36.2-2.3 3.45-3.15 4.99-3.15 5.71 0 1.1 0.307 1.43 2.3 2.45 3.5 1.85 5.91 3.75 8.92 5.83 8.06 5.18 11.3 8.74 15.4 14.2 4.92 6.58 9.95 15.2 12.5 23.8 1.59 5.39 3.83 11.6 6.2 18.2 0.821 3.55 1.19 4.26 2.19 4.26 9.03-9.28 12.4-37.1 13.5-47.6zm-139 38.5c1.03-1.03 1.39-1.53 1.99-2.74 3.49-8.81 0.076-17-4.51-23.3-1.52-2.06-4.69-5.22-6.62-6.61-4.36-2.87-10.2-5.2-15-3.64-7 2.93-8.32 9.2-7.27 15.7 2.16 12.7 14.1 24.3 24.4 23.7 2.74-0.131 5.46-1.53 7.06-3.1zm45.5 2.74c4.89-1.44 8.44-3.71 11.7-7.01 4.45-4.52 7.66-10.5 8.65-16.3 1.87-6.95-1.76-13.7-7.27-15.7-5.56-1.26-10.5 0.445-15 3.64-6.31 4.49-10.5 11.7-12.1 18.3-0.756 3.99-0.647 8.31 0.977 11.7 2.3 5.21 8.96 6.38 13.1 5.48z" style="fill:#f79d0a;stroke-width:.156"/></g><g><path d="m143 261c-6.19-0.855-11.7-3.57-15.4-7.62-3.05-3.35-5.03-7.63-5.36-11.6l-0.104-1.25-0.0136-0.551c-0.631-2.63 3.16-0.902 4.98-1.18 8.56-2.63 14.5-6.88 19.5-6.16 6.41 0.918 11.7 7.25 23.7 6.51 0.109 0.397-0.048 0.777-0.0424 1.38l-0.104 1.25c-0.407 4.92-3.34 10.2-7.51 13.7-5.32 4.36-13 6.51-19.8 5.57z" style="fill:#fda3a3;stroke-width:.156"/></g><g><path d="m118 240c-4.87-0.327-9.77-1.62-13.9-3.66-4.9-2.42-8.56-5.58-11.4-9.85-2.62-3.95-4.03-8.14-4.46-13.3-0.211-2.5-0.0136-5.49 0.419-6.33 0.272-0.527 0.886-0.843 1.35-0.696 0.697 0.222 0.788 0.664 0.92 4.49 0.134 3.9 0.25 4.85 0.867 7.14 3.41 12.7 16.1 20.5 32 19.6 6.64-0.378 13.7-2.23 19.9-5.25 0.961-0.466 1.27-0.7 1.42-1.07 0.267-0.657 0.425-9.57 0.173-9.75-0.0964-0.0714-1.01-0.401-2.04-0.733-3.75-1.22-8.67-4.02-12.6-7.22-2.12-1.7-5.75-5.32-7.13-7.11-3.27-4.23-4.72-8.12-4-10.7 0.38-1.37 2.16-3.57 4.11-5.09 2.41-1.86 5.59-3.43 9.11-4.46 12.8-3.75 28.5-1.83 36.6 4.46 1.95 1.51 3.73 3.71 4.11 5.09 0.717 2.59-0.738 6.48-4 10.7-1.38 1.79-5.01 5.41-7.13 7.11-3.98 3.19-8.9 6-12.6 7.22-1.02 0.332-1.94 0.659-2.03 0.727-0.247 0.182-0.0953 9.12 0.166 9.76 0.218 0.533 1.22 1.08 4.49 2.43 22 9.09 44.1 2 48.8-15.7 0.617-2.3 0.732-3.25 0.867-7.14 0.132-3.83 0.223-4.27 0.92-4.49 0.464-0.148 1.08 0.168 1.35 0.696 0.432 0.839 0.63 3.82 0.419 6.33-0.541 6.42-2.75 11.8-6.78 16.4-3.13 3.59-8.13 6.81-13.2 8.48-6.51 2.07-12.7 2.56-18.7 1.83-6.56-0.805-11.7-2.3-17.7-5.11l-1.83-0.86c-2.4 1.17-5.16 2.33-6.78 2.94-7.05 2.62-14.2 3.67-21.6 3.17zm-2.38-70c-0.257-0.117-1.58-1.35-2.93-2.73-1.36-1.39-3.25-3.16-4.2-3.94-3.42-2.8-8.31-5.74-12.4-7.42-3.55-1.47-8.32-2.82-12-3.38-4.94-0.755-11.4-0.33-15.8 1.04-1.11 0.349-3.01 0.707-3.74 0.705-0.861-2e-3 -2.11-0.622-2.7-1.34-1.34-1.36-1.37-2.64-1.04-4.02l-0.936-0.214c-0.515-0.118-1.6-0.543-2.42-0.945-3.44-2.32-5.84-4.75-6.71-8.57 0.144-0.0892 0.345 0.158 1.6 1.96 2.37 2.99 5.42 4.96 9.03 5.37l0.883 0.0942 3.07-3.01-0.545-0.41c-3.38-2.55-5.34-6.24-5.56-10.5-0.1-1.89 0.0439-1.93 0.569-0.156 1.12 3.79 4.2 7.91 6.96 9.31l0.808 0.41 1.3-0.7c7.26-3.9 17.3-3.89 26.5 9e-3 8.41 3.58 15.6 10.2 19.4 17.9 1.47 2.95 2.44 6.34 2.47 8.66 0.02 1.33 5e-3 1.39-0.417 1.76-0.5 0.433-0.63 0.448-1.28 0.154zm60.3-0.154c-0.422-0.365-0.437-0.429-0.417-1.76 0.035-2.32 1-5.71 2.47-8.66 3.83-7.69 11-14.3 19.4-17.9 9.16-3.9 19.2-3.9 26.5-9e-3l1.3 0.7 0.808-0.41c2.76-1.4 5.84-5.52 6.96-9.31 0.525-1.78 0.669-1.74 0.569 0.156-0.807 4.81-1.76 7.19-5.93 11.1l1.36 1.33 1.53 1.51 0.883-0.0942c1.1-0.118 2.47-0.453 3.49-0.858 1.87-0.74 4.28-2.7 5.54-4.51 1.26-1.81 1.46-2.05 1.6-1.96-0.476 2.51-2.08 4.65-3.67 6.26-1.59 1.63-3.03 2.65-5.46 3.25l-0.936 0.214 0.0474 1.02c0.0534 1.16-0.24 1.96-1.09 3-0.592 0.72-1.84 1.34-2.7 1.34-0.73 2e-3 -2.63-0.356-3.74-0.705-3.01-0.944-6.36-1.39-10.3-1.38-3.85 0.0112-6.26 0.323-10.1 1.3-5.93 1.52-11 3.74-15.8 6.92-3.11 2.07-5.31 3.91-8.21 6.88-2.17 2.22-3.07 2.96-3.62 2.96-0.25-0.0809-0.413-0.265-0.59-0.379z" style="fill:#050403;stroke-width:.156"/></g><g><path d="m62.9 293c-0.386-0.0343-1.29-0.142-2.01-0.238-1.2-0.161-1.37-0.227-1.98-0.799-1.94-1.79-4.78-8.04-6.66-14.7-1.97-6.96-2.54-10.3-2.41-14.3l0.184-2.12c-3-0.528-4.29-1.78-5.33-3.95-6.01 2.95-13.3 2.53-18.8 2.02-3.82-0.382-8-1.27-10.3-2.18-1.44-0.575-3.22-1.45-3.82-1.87-0.847-0.605-2.17-4.68-2.76-8.47-0.373-2.41-0.374-7.34-2e-3 -9.84 2.1-14.1 11.7-27.1 25.3-34.2 4.5-2.36 9.88-4.14 11.8-3.91 2.69 0.319 6.6 5.36 9.3 12 1.44 3.52 2.78 8.03 3.38 11.4 0.404 2.24 0.475 7.13 0.138 9.55-0.295 2.12-0.267 2.26 0.449 2.26 4.73 0.564 8.1 4.13 9.49 7.67 0.0689 0 0.834-0.357 1.7-0.792 7.94-4 19.7-3.84 29.5 0.394 2.6 1.12 5.4 2.83 5.75 3.49 0.247 0.472 0.207 5.69-0.0597 7.74-1.43 11-6.3 21-13.9 28.7-7.66 7.73-16.6 11.9-26.1 12.2-1.18 0.0325-2.46 0.0311-2.85-3e-3z" style="fill:#f865b0;stroke-width:.156"/></g></svg>
