
<svg xmlns="http://www.w3.org/2000/svg" xmlns:xlink="http://www.w3.org/1999/xlink" width="250px" height="250px" viewBox="0 0 250 250" version="1.1">
<g id="surface1">
<path style=" stroke:none;fill-rule:nonzero;fill:rgb(95.294118%,84.705883%,44.705883%);fill-opacity:1;" d="M 136.984375 156.25 C 82.578125 131.921875 48.625 82.558594 46.640625 32.882812 C 46.613281 32.21875 46.320312 31.59375 45.832031 31.148438 C 45.34375 30.699219 44.695312 30.464844 44.03125 30.5 C 43.464844 30.527344 42.917969 30.746094 42.492188 31.121094 C 15.167969 55.0625 -0.351562 89.730469 0 126.054688 C 0.554688 193.4375 55.253906 248.703125 122.636719 249.972656 C 175.382812 251.007812 223.109375 218.847656 241.953125 169.570312 C 242.453125 168.285156 241.820312 166.835938 240.539062 166.328125 C 240.058594 166.140625 239.53125 166.105469 239.035156 166.230469 C 207.351562 174.199219 171.164062 171.535156 136.984375 156.25 Z M 136.984375 156.25 "/>
<path style=" stroke:none;fill-rule:nonzero;fill:rgb(87.450981%,49.411765%,25.882354%);fill-opacity:1;" d="M 247.890625 102.441406 C 247.890625 102.1875 247.804688 101.945312 247.753906 101.691406 C 247.101562 98.089844 246.269531 94.542969 245.253906 91.054688 L 245.128906 90.578125 C 244.640625 88.898438 244.152344 87.238281 243.585938 85.585938 C 243.585938 85.460938 243.496094 85.332031 243.449219 85.207031 C 242.296875 81.769531 240.992188 78.394531 239.542969 75.089844 L 239.445312 74.875 C 238.742188 73.285156 238.015625 71.710938 237.265625 70.15625 L 237.199219 70.03125 C 236.40625 68.417969 235.585938 66.847656 234.738281 65.285156 L 234.679688 65.15625 C 233.800781 63.566406 232.890625 61.984375 231.953125 60.429688 L 231.875 60.304688 C 231.007812 58.867188 230.109375 57.460938 229.179688 56.066406 L 228.867188 55.585938 C 226.914062 52.675781 224.855469 49.855469 222.6875 47.121094 L 222.296875 46.632812 C 221.144531 45.195312 219.953125 43.789062 218.742188 42.414062 C 217.558594 41.085938 216.367188 39.777344 215.148438 38.507812 L 215 38.359375 C 213.875 37.207031 212.75 36.074219 211.632812 34.960938 L 211.125 34.484375 C 209.9375 33.363281 208.738281 32.261719 207.519531 31.183594 L 207.082031 30.800781 C 205.839844 29.707031 204.570312 28.652344 203.28125 27.609375 L 202.921875 27.324219 C 201.5625 26.230469 200.175781 25.175781 198.761719 24.140625 L 198.683594 24.074219 C 197.246094 23.027344 195.800781 22.023438 194.328125 21.035156 L 194.277344 21.035156 C 191.328125 19.082031 188.292969 17.238281 185.175781 15.507812 L 184.816406 15.3125 C 183.324219 14.5 181.828125 13.71875 180.324219 12.96875 L 179.726562 12.667969 C 176.554688 11.117188 173.300781 9.699219 169.960938 8.417969 L 169.40625 8.203125 C 167.6875 7.550781 165.949219 6.9375 164.191406 6.359375 L 164.09375 6.359375 C 162.453125 5.820312 160.8125 5.3125 159.140625 4.84375 L 158.691406 4.71875 C 156.925781 4.21875 155.128906 3.742188 153.332031 3.339844 L 153.320312 3.339844 C 151.613281 2.9375 149.890625 2.574219 148.144531 2.257812 L 147.804688 2.199219 C 145.984375 1.851562 144.164062 1.554688 142.335938 1.308594 L 142.285156 1.308594 C 139.421875 0.917969 136.542969 0.617188 133.621094 0.421875 L 135.066406 0.546875 C 136.210938 0.65625 137.324219 0.761719 138.40625 0.898438 C 139.492188 1.015625 140.535156 1.152344 141.5625 1.300781 C 142.539062 1.445312 143.515625 1.601562 144.492188 1.769531 L 144.570312 1.769531 C 145.515625 1.9375 146.433594 2.113281 147.324219 2.296875 L 147.460938 2.296875 L 150.019531 2.851562 L 150.183594 2.851562 C 150.996094 3.058594 151.785156 3.273438 152.558594 3.507812 L 152.761719 3.566406 C 153.515625 3.789062 154.238281 4.023438 154.949219 4.269531 L 155.203125 4.367188 C 155.886719 4.609375 156.550781 4.855469 157.15625 5.117188 L 157.460938 5.253906 C 158.085938 5.519531 158.691406 5.78125 159.285156 6.054688 L 159.648438 6.242188 C 160.214844 6.503906 160.769531 6.796875 161.308594 7.082031 L 161.71875 7.324219 C 162.226562 7.609375 162.695312 7.882812 163.203125 8.195312 L 163.691406 8.515625 C 164.128906 8.808594 164.578125 9.074219 165 9.40625 L 165.566406 9.835938 C 165.9375 10.117188 166.328125 10.390625 166.6875 10.703125 C 167.050781 11.015625 167.128906 11.09375 167.351562 11.269531 L 168.328125 12.089844 C 168.632812 12.34375 168.886719 12.648438 169.179688 12.929688 C 169.472656 13.214844 169.628906 13.371094 169.84375 13.59375 C 170.339844 14.121094 170.820312 14.660156 171.289062 15.214844 C 174.289062 19.152344 176.394531 23.691406 177.460938 28.527344 C 179.785156 38.078125 179.414062 48.058594 181.570312 57.667969 C 181.941406 59.28125 182.332031 60.855469 182.742188 62.394531 C 182.851562 62.8125 182.96875 63.214844 183.074219 63.625 C 183.398438 64.816406 183.738281 65.988281 184.050781 67.140625 L 184.375 68.203125 C 195.632812 104.492188 218.171875 121.738281 248.398438 144.835938 C 250.632812 130.769531 250.472656 116.429688 247.921875 102.421875 Z M 247.890625 102.441406 "/>
<path style=" stroke:none;fill-rule:nonzero;fill:rgb(95.294118%,84.705883%,44.705883%);fill-opacity:1;" d="M 248.742188 107.6875 C 244.328125 97.46875 244.328125 97.46875 125.761719 54.6875 C 66.09375 33.125 55 12.3125 98.203125 2.929688 C 100.3125 2.472656 102.433594 2.070312 104.570312 1.71875 C 111.277344 0.605469 118.0625 0.03125 124.863281 0 C 187.234375 -0.03125 240.082031 45.917969 248.71875 107.6875 "/>
<path style=" stroke:none;fill-rule:nonzero;fill:rgb(100%,100%,100%);fill-opacity:1;" d="M 152.082031 171.875 C 152.082031 212.71875 118.96875 245.832031 78.125 245.832031 C 37.28125 245.832031 4.167969 212.71875 4.167969 171.875 C 4.167969 131.03125 37.28125 97.917969 78.125 97.917969 C 118.96875 97.917969 152.082031 131.03125 152.082031 171.875 Z M 152.082031 171.875 "/>
<path style=" stroke:none;fill-rule:nonzero;fill:rgb(5.490196%,23.529412%,64.705884%);fill-opacity:1;" d="M 78.125 102.078125 C 116.671875 102.078125 147.921875 133.328125 147.921875 171.875 C 147.921875 210.421875 116.671875 241.671875 78.125 241.671875 C 39.578125 241.671875 8.332031 210.421875 8.332031 171.875 C 8.375 133.347656 39.597656 102.125 78.125 102.078125 M 78.125 93.75 C 34.976562 93.75 0 128.726562 0 171.875 C 0 215.023438 34.976562 250 78.125 250 C 121.273438 250 156.25 215.023438 156.25 171.875 C 156.25 128.726562 121.273438 93.75 78.125 93.75 Z M 78.125 93.75 "/>
<path style=" stroke:none;fill-rule:nonzero;fill:rgb(32.941177%,57.647061%,96.862745%);fill-opacity:1;" d="M 120.507812 203.507812 L 111.425781 211.042969 C 105.105469 216.300781 95.769531 215.65625 90.234375 209.578125 L 49.804688 165.226562 L 72.023438 146.484375 Z M 120.507812 203.507812 "/>
<path style=" stroke:none;fill-rule:nonzero;fill:rgb(5.490196%,23.529412%,64.705884%);fill-opacity:1;" d="M 74.53125 179.992188 L 38.59375 172.414062 C 37.355469 172.171875 36.230469 171.539062 35.382812 170.605469 L 25.242188 159.375 C 25.167969 159.292969 25.121094 159.183594 25.117188 159.074219 L 25.046875 157.335938 L 74.851562 178.203125 Z M 74.53125 179.992188 "/>
<path style=" stroke:none;fill-rule:nonzero;fill:rgb(32.941177%,57.647061%,96.862745%);fill-opacity:1;" d="M 76.515625 139.953125 L 90.867188 129.335938 C 91.207031 129.097656 91.65625 129.097656 91.992188 129.335938 L 100.546875 135.574219 C 101.046875 135.929688 101.367188 136.480469 101.4375 137.089844 L 104.492188 163.378906 Z M 76.515625 139.953125 "/>
<path style=" stroke:none;fill-rule:nonzero;fill:rgb(5.490196%,23.529412%,64.705884%);fill-opacity:1;" d="M 125 181.84375 L 130.957031 204.101562 C 131.640625 206.660156 130.910156 209.394531 129.03125 211.265625 C 127.15625 213.136719 124.421875 213.863281 121.863281 213.171875 L 101.355469 207.617188 C 97.398438 206.59375 93.800781 204.492188 90.96875 201.542969 L 49.414062 158.203125 C 43.488281 151.976562 43.554688 142.175781 49.570312 136.035156 C 55.265625 130.214844 64.433594 129.625 70.828125 134.667969 L 105.46875 162.109375 L 119.140625 172.921875 C 122.003906 175.1875 124.058594 178.316406 125 181.84375 Z M 125 181.84375 "/>
<path style=" stroke:none;fill-rule:nonzero;fill:rgb(32.941177%,57.647061%,96.862745%);fill-opacity:1;" d="M 125 181.84375 C 124.703125 180.742188 124.296875 179.671875 123.789062 178.652344 C 121.769531 180.253906 119.5 181.515625 117.070312 182.382812 C 110.511719 184.636719 103.46875 185.085938 96.679688 183.683594 C 95.5 183.4375 94.460938 183.210938 93.429688 183.953125 C 92.621094 184.535156 92.140625 185.46875 92.140625 186.464844 C 92.140625 188.339844 93.605469 189.21875 95.214844 189.511719 L 95.734375 189.589844 C 102.570312 190.332031 110.109375 190.292969 116.828125 188.613281 C 119.816406 187.851562 123.085938 186.660156 125.136719 184.210938 C 125.234375 184.101562 125.371094 183.925781 125.539062 183.710938 Z M 50.078125 153.25 L 74.992188 177.890625 C 75.027344 177.925781 75.050781 177.972656 75.050781 178.023438 C 75.050781 178.074219 75.027344 178.121094 74.992188 178.15625 C 74.9375 178.175781 74.878906 178.175781 74.824219 178.15625 L 38.886719 170.945312 C 37.652344 170.703125 36.53125 170.070312 35.683594 169.140625 L 25.117188 157.609375 C 25.003906 157.492188 25.003906 157.3125 25.117188 157.199219 C 25.15625 157.160156 25.207031 157.136719 25.265625 157.128906 L 49.902344 153.222656 C 49.960938 153.195312 50.03125 153.207031 50.078125 153.25 Z M 50.078125 153.25 "/>
<path style=" stroke:none;fill-rule:nonzero;fill:rgb(32.941177%,57.647061%,96.862745%);fill-opacity:1;" d="M 129.167969 204.886719 C 130.257812 205.980469 129.730469 208.277344 127.988281 210.019531 C 126.246094 211.761719 123.949219 212.289062 122.855469 211.199219 C 121.765625 210.109375 122.296875 207.8125 124.039062 206.070312 C 125.78125 204.324219 128.078125 203.796875 129.167969 204.886719 Z M 129.167969 204.886719 "/>
</g>
</svg>
