<svg height="250" viewBox="0 0 250 250" width="250" xmlns="http://www.w3.org/2000/svg"><path d="m136.984375 156.25c-54.40625-24.328125-88.359375-73.691406-90.34375-123.367188-.027344-.664062-.320313-1.289062-.808594-1.734374-.488281-.449219-1.136719-.683594-1.800781-.648438-.566406.027344-1.113281.246094-1.539062.621094-27.324219 23.941406-42.84375 58.609375-42.492188 94.933594.554688 67.382812 55.253906 122.648437 122.636719 123.917968 52.746093 1.035156 100.472656-31.125 119.316406-80.402344.5-1.285156-.132813-2.734374-1.414063-3.242187-.480468-.1875-1.007812-.222656-1.503906-.097656-31.683594 7.96875-67.871094 5.304687-102.050781-9.980469zm0 0" fill="#f3d872"/><path d="m247.890625 102.441406c0-.253906-.085937-.496094-.136719-.75-.652344-3.601562-1.484375-7.148437-2.5-10.636718l-.125-.476563c-.488281-1.679687-.976562-3.339844-1.542968-4.992187 0-.125-.089844-.253907-.136719-.378907-1.152344-3.4375-2.457031-6.8125-3.90625-10.117187l-.097657-.214844c-.703124-1.589844-1.429687-3.164062-2.179687-4.71875l-.066406-.125c-.792969-1.613281-1.613281-3.183594-2.460938-4.746094l-.058593-.128906c-.878907-1.589844-1.789063-3.171875-2.726563-4.726562l-.078125-.125c-.867188-1.4375-1.765625-2.84375-2.695312-4.238282l-.3125-.480468c-1.953126-2.910157-4.011719-5.730469-6.179688-8.464844l-.390625-.488282c-1.152344-1.4375-2.34375-2.84375-3.554687-4.21875-1.183594-1.328124-2.375-2.636718-3.59375-3.90625l-.148438-.148437c-1.125-1.152344-2.25-2.285156-3.367188-3.398437l-.507812-.476563c-1.1875-1.121094-2.386719-2.222656-3.605469-3.300781l-.4375-.382813c-1.242187-1.09375-2.511719-2.148437-3.800781-3.191406l-.359375-.285156c-1.359375-1.09375-2.746094-2.148438-4.160156-3.183594l-.078125-.066406c-1.4375-1.046875-2.882813-2.050781-4.355469-3.039063h-.050781c-2.949219-1.953125-5.984375-3.796875-9.101563-5.527344l-.359375-.195312c-1.492187-.8125-2.988281-1.59375-4.492187-2.34375l-.597657-.300781c-3.171874-1.550781-6.425781-2.96875-9.765624-4.25l-.554688-.214844c-1.71875-.652344-3.457031-1.265625-5.214844-1.84375h-.097656c-1.640625-.539063-3.28125-1.046875-4.953125-1.515625l-.449219-.125c-1.765625-.5-3.5625-.976562-5.359375-1.378906h-.011719c-1.707031-.402344-3.429687-.765625-5.175781-1.082032l-.339843-.058593c-1.820313-.347657-3.640626-.644531-5.46875-.890625h-.050782c-2.863281-.390625-5.742187-.691406-8.664062-.886719l1.445312.125c1.144532.109375 2.257813.214844 3.339844.351563 1.085938.117187 2.128906.253906 3.15625.402343.976562.144531 1.953125.300781 2.929688.46875h.078124c.945313.167969 1.863282.34375 2.753907.527344h.136719l2.558593.554687h.164063c.8125.207032 1.601562.421876 2.375.65625l.203125.058594c.753906.222656 1.476562.457032 2.1875.703125l.253906.097657c.683594.242187 1.347656.488281 1.953125.75l.304688.136718c.625.265625 1.230468.527344 1.824218.800782l.363282.1875c.566406.261718 1.121093.554687 1.660156.839843l.410156.242188c.507812.285156.976562.558593 1.484375.871093l.488281.320313c.4375.292969.886719.558594 1.308594.890625l.566406.429688c.371094.28125.761719.554687 1.121094.867187.363281.3125.441406.390625.664062.566406l.976563.820313c.304687.253906.558594.558594.851563.839844.292968.285156.449218.441406.664062.664062.496094.527344.976562 1.066406 1.445312 1.621094 3 3.9375 5.105469 8.476562 6.171876 13.3125 2.324218 9.550781 1.953124 19.53125 4.109374 29.140625.371094 1.613281.761719 3.1875 1.171876 4.726562.109374.417969.226562.820313.332031 1.230469.324219 1.191406.664062 2.363281.976562 3.515625l.324219 1.0625c11.257812 36.289063 33.796875 53.535156 64.023438 76.632813 2.234374-14.066407 2.074218-28.40625-.476563-42.414063zm0 0" fill="#df7e42"/><path d="m248.742188 107.6875c-4.414063-10.21875-4.414063-10.21875-122.980469-53-59.667969-21.5625-70.761719-42.375-27.558594-51.757812 2.109375-.457032 4.230469-.859376 6.367187-1.210938 6.707032-1.113281 13.492188-1.6875 20.292969-1.71875 62.371094-.03125 115.21875 45.917969 123.855469 107.6875" fill="#f3d872"/><path d="m152.082031 171.875c0 40.84375-33.113281 73.957031-73.957031 73.957031s-73.957031-33.113281-73.957031-73.957031 33.113281-73.957031 73.957031-73.957031 73.957031 33.113281 73.957031 73.957031zm0 0" fill="#fff"/><path d="m78.125 102.078125c38.546875 0 69.796875 31.25 69.796875 69.796875s-31.25 69.796875-69.796875 69.796875-69.792969-31.25-69.792969-69.796875c.042969-38.527344 31.265625-69.75 69.792969-69.796875m0-8.328125c-43.148438 0-78.125 34.976562-78.125 78.125s34.976562 78.125 78.125 78.125 78.125-34.976562 78.125-78.125-34.976562-78.125-78.125-78.125zm0 0" fill="#0e3ca5"/><path d="m120.507812 203.507812-9.082031 7.535157c-6.320312 5.257812-15.65625 4.613281-21.191406-1.464844l-40.429687-44.351563 22.21875-18.742187zm0 0" fill="#5493f7"/><path d="m74.53125 179.992188-35.9375-7.578126c-1.238281-.242187-2.363281-.875-3.210938-1.808593l-10.140624-11.230469c-.074219-.082031-.121094-.191406-.125-.300781l-.070313-1.738281 49.804687 20.867187zm0 0" fill="#0e3ca5"/><path d="m76.515625 139.953125 14.351563-10.617187c.339843-.238282.789062-.238282 1.125 0l8.554687 6.238281c.5.355469.820313.90625.890625 1.515625l3.054688 26.289062zm0 0" fill="#5493f7"/><path d="m125 181.84375 5.957031 22.257812c.683594 2.558594-.046875 5.292969-1.925781 7.164063-1.875 1.871094-4.609375 2.597656-7.167969 1.90625l-20.507812-5.554687c-3.957031-1.023438-7.554688-3.125-10.386719-6.074219l-41.554688-43.339844c-5.925781-6.226563-5.859374-16.027344.15625-22.167969 5.695313-5.820312 14.863282-6.410156 21.257813-1.367187l34.640625 27.441406 13.671875 10.8125c2.863281 2.265625 4.917969 5.394531 5.859375 8.921875zm0 0" fill="#0e3ca5"/><g fill="#5493f7"><path d="m125 181.84375c-.296875-1.101562-.703125-2.171875-1.210938-3.191406-2.019531 1.601562-4.289062 2.863281-6.71875 3.730468-6.558593 2.253907-13.601562 2.703126-20.390624 1.300782-1.179688-.246094-2.21875-.472656-3.25.269531-.808594.582031-1.289063 1.515625-1.289063 2.511719 0 1.875 1.464844 2.753906 3.074219 3.046875l.519531.078125c6.835937.742187 14.375.703125 21.09375-.976563 2.988281-.761719 6.257813-1.953125 8.308594-4.402343.097656-.109376.234375-.285157.402343-.5zm-74.921875-28.59375 24.914063 24.640625c.035156.035156.058593.082031.058593.132813 0 .050781-.023437.097656-.058593.132812-.054688.019531-.113282.019531-.167969 0l-35.9375-7.210938c-1.234375-.242187-2.355469-.875-3.203125-1.804687l-10.566406-11.53125c-.113282-.117187-.113282-.296875 0-.410156.039062-.039063.089843-.0625.148437-.070313l24.636719-3.90625c.058594-.027344.128906-.015625.175781.027344zm0 0"/><path d="m129.167969 204.886719c1.089843 1.09375.5625 3.390625-1.179688 5.132812-1.742187 1.742188-4.039062 2.269531-5.132812 1.179688-1.089844-1.089844-.558594-3.386719 1.183593-5.128907 1.742188-1.746093 4.039063-2.273437 5.128907-1.183593zm0 0"/></g></svg>