<svg height="250" viewBox="0 0 250 250" width="250" xmlns="http://www.w3.org/2000/svg" xmlns:xlink="http://www.w3.org/1999/xlink"><linearGradient id="a" gradientTransform="matrix(.98316 0 0 -1.027665 .182977 -278.219668)" gradientUnits="userSpaceOnUse" x1="54.279999" x2="253.309998" y1="-495.970001" y2="-495.970001"><stop offset="0" stop-color="#600000"/><stop offset=".33" stop-color="#630000"/><stop offset=".59" stop-color="#6d0000"/><stop offset=".83" stop-color="#7e0000"/><stop offset="1" stop-color="#8f0000"/></linearGradient><linearGradient id="b" gradientTransform="matrix(.98316 0 0 -1.027665 .182977 -278.219668)" gradientUnits="userSpaceOnUse" x1="153.759995" x2="153.759995" y1="-477.869995" y2="-513.820007"><stop offset=".35" stop-color="#bf1010"/><stop offset=".65" stop-color="#bd1010"/><stop offset=".75" stop-color="#b60f0f"/><stop offset=".83" stop-color="#ab0d0d"/><stop offset=".89" stop-color="#9a0a0a"/><stop offset=".94" stop-color="#840606"/><stop offset=".99" stop-color="#690202"/><stop offset="1" stop-color="#600000"/></linearGradient><linearGradient id="c" gradientTransform="matrix(.98316 0 0 -1.027665 .182977 -278.219668)" gradientUnits="userSpaceOnUse" x1="53.91" x2="252.910004" y1="-435.470001" y2="-435.470001"><stop offset="0" stop-color="#bf1010"/><stop offset=".02" stop-color="#c11212"/><stop offset=".24" stop-color="#d22323"/><stop offset=".49" stop-color="#dc2d2d"/><stop offset=".79" stop-color="#df3030"/><stop offset=".84" stop-color="#dc2e2e"/><stop offset=".88" stop-color="#d22626"/><stop offset=".92" stop-color="#c11919"/><stop offset=".95" stop-color="#a90808"/><stop offset=".97" stop-color="#9f0000"/><stop offset="1" stop-color="#df3030"/></linearGradient><linearGradient id="d"><stop offset="0" stop-color="#dfdfdf"/><stop offset=".02" stop-color="#e1e1e1"/><stop offset=".24" stop-color="#f2f2f2"/><stop offset=".49" stop-color="#fcfcfc"/><stop offset=".79" stop-color="#fff"/><stop offset=".84" stop-color="#fcfcfc"/><stop offset=".88" stop-color="#f2f2f2"/><stop offset=".92" stop-color="#e1e1e1"/><stop offset=".95" stop-color="#c9c9c9"/><stop offset=".97" stop-color="#bfbfbf"/><stop offset="1" stop-color="#fff"/></linearGradient><linearGradient id="e" gradientTransform="matrix(.98316 0 0 -1.027665 .182977 -278.219668)" gradientUnits="userSpaceOnUse" x1="53.889999" x2="252.979996" xlink:href="#d" y1="-415.059998" y2="-415.059998"/><linearGradient id="f" gradientTransform="matrix(.98316 0 0 -1.027665 .182977 -278.219668)" gradientUnits="userSpaceOnUse" x1="54.279999" x2="253.289993" xlink:href="#d" y1="-466.290009" y2="-466.290009"/><linearGradient id="g" gradientTransform="matrix(.98316 0 0 -1.027665 .182977 -278.219668)" gradientUnits="userSpaceOnUse" x1="53.889999" x2="252.940002" xlink:href="#d" y1="-486.48999" y2="-486.48999"/><linearGradient id="h" gradientTransform="matrix(.98316 0 0 -1.027665 .182977 -278.219668)" gradientUnits="userSpaceOnUse" x1="54.009998" x2="253.100006" y1="-411.690002" y2="-411.690002"><stop offset="0" stop-color="#00209f"/><stop offset=".02" stop-color="#0222a1"/><stop offset=".24" stop-color="#1333b2"/><stop offset=".49" stop-color="#1d3dbc"/><stop offset=".79" stop-color="#2040bf"/><stop offset=".84" stop-color="#1e3dbc"/><stop offset=".88" stop-color="#1933b2"/><stop offset=".92" stop-color="#1122a1"/><stop offset=".95" stop-color="#050a89"/><stop offset=".97" stop-color="#00007f"/><stop offset="1" stop-color="#2040bf"/></linearGradient><linearGradient id="i" gradientTransform="matrix(.98316 0 0 -1.027665 .182977 -278.219668)" gradientUnits="userSpaceOnUse" x1="54.080002" x2="253.169998" xlink:href="#d" y1="-386.589996" y2="-386.589996"/><linearGradient id="j" gradientTransform="matrix(.98316 0 0 -1.027665 .182977 -278.219668)" gradientUnits="userSpaceOnUse" x1="54.080002" x2="253.169998" xlink:href="#d" y1="-421.98999" y2="-421.98999"/><linearGradient id="k" gradientTransform="matrix(.98316 0 0 -1.027665 .182977 -278.219668)" gradientUnits="userSpaceOnUse" x1="54.080002" x2="253.169998" xlink:href="#d" y1="-436.089996" y2="-436.089996"/><linearGradient id="l" gradientTransform="matrix(.98316 0 0 -1.027665 .182977 -278.219668)" gradientUnits="userSpaceOnUse" x1="54.080002" x2="253.169998" xlink:href="#d" y1="-415.190002" y2="-415.190002"/><linearGradient id="m" gradientTransform="matrix(.98316 0 0 -1.027665 .182977 -278.219668)" gradientUnits="userSpaceOnUse" x1="54.080002" x2="253.169998" xlink:href="#d" y1="-429.290009" y2="-429.290009"/><linearGradient id="n" gradientTransform="matrix(.98316 0 0 -1.027665 .182977 -278.219668)" gradientUnits="userSpaceOnUse" x1="54.080002" x2="253.169998" xlink:href="#d" y1="-401.089996" y2="-401.089996"/><linearGradient id="o" gradientTransform="matrix(.98316 0 0 -1.027665 .182977 -278.219668)" gradientUnits="userSpaceOnUse" x1="54.080002" x2="253.210007" xlink:href="#d" y1="-435.190002" y2="-435.190002"/><linearGradient id="p" gradientTransform="matrix(.98316 0 0 -1.027665 .182977 -278.219668)" gradientUnits="userSpaceOnUse" x1="54.080002" x2="253.169998" xlink:href="#d" y1="-407.48999" y2="-407.48999"/><linearGradient id="q" gradientTransform="matrix(.98316 0 0 -1.027665 .182977 -278.219668)" gradientUnits="userSpaceOnUse" x1="54.080002" x2="253.169998" xlink:href="#d" y1="-428.48999" y2="-428.48999"/><linearGradient id="r" gradientTransform="matrix(.98316 0 0 -1.027665 .182977 -278.219668)" gradientUnits="userSpaceOnUse" x1="54.080002" x2="253.169998" xlink:href="#d" y1="-442.790009" y2="-442.790009"/><linearGradient id="s" gradientTransform="matrix(.98316 0 0 -1.027665 .182977 -278.219668)" gradientUnits="userSpaceOnUse" x1="54.080002" x2="253.169998" xlink:href="#d" y1="-393.390015" y2="-393.390015"/><linearGradient id="t" gradientTransform="matrix(.98316 0 0 -1.027665 .182977 -278.219668)" gradientUnits="userSpaceOnUse" x1="54.080002" x2="253.169998" xlink:href="#d" y1="-413.98999" y2="-413.98999"/><linearGradient id="u" gradientTransform="matrix(.98316 0 0 -1.027665 .182977 -278.219668)" gradientUnits="userSpaceOnUse" x1="54.080002" x2="253.169998" xlink:href="#d" y1="-443.690002" y2="-443.690002"/><linearGradient id="v" gradientTransform="matrix(.98316 0 0 -1.027665 .182977 -278.219668)" gradientUnits="userSpaceOnUse" x1="54.080002" x2="253.210007" xlink:href="#d" y1="-415.339996" y2="-415.339996"/><linearGradient id="w" gradientTransform="matrix(.98316 0 0 -1.027665 .182977 -278.219668)" gradientUnits="userSpaceOnUse" x1="54.080002" x2="253.210007" xlink:href="#d" y1="-401.23999" y2="-401.23999"/><linearGradient id="x" gradientTransform="matrix(.98316 0 0 -1.027665 .182977 -278.219668)" gradientUnits="userSpaceOnUse" x1="54.080002" x2="253.130005" xlink:href="#d" y1="-444.089996" y2="-444.089996"/><linearGradient id="y" gradientTransform="matrix(.98316 0 0 -1.027665 .182977 -278.219668)" gradientUnits="userSpaceOnUse" x1="54.080002" x2="253.169998" xlink:href="#d" y1="-400.040009" y2="-400.040009"/><linearGradient id="z" gradientTransform="matrix(.98316 0 0 -1.027665 .182977 -278.219668)" gradientUnits="userSpaceOnUse" x1="54.080002" x2="253.169998" xlink:href="#d" y1="-385.98999" y2="-385.98999"/><linearGradient id="A" gradientTransform="matrix(.98316 0 0 -1.027665 .182977 -278.219668)" gradientUnits="userSpaceOnUse" x1="54.080002" x2="253.169998" xlink:href="#d" y1="-430.040009" y2="-430.040009"/><linearGradient id="B" gradientTransform="matrix(.98316 0 0 -1.027665 .182977 -278.219668)" gradientUnits="userSpaceOnUse" x1="54.080002" x2="253.169998" xlink:href="#d" y1="-394.190002" y2="-394.190002"/><linearGradient id="C" gradientTransform="matrix(.98316 0 0 -1.027665 .182977 -278.219668)" gradientUnits="userSpaceOnUse" x1="54.080002" x2="253.169998" xlink:href="#d" y1="-408.290009" y2="-408.290009"/><linearGradient id="D" gradientTransform="matrix(.98316 0 0 -1.027665 .182977 -278.219668)" gradientUnits="userSpaceOnUse" x1="54.080002" x2="253.169998" xlink:href="#d" y1="-436.73999" y2="-436.73999"/><linearGradient id="E" gradientTransform="matrix(.98316 0 0 -1.027665 .182977 -278.219668)" gradientUnits="userSpaceOnUse" x1="54.080002" x2="253.169998" xlink:href="#d" y1="-422.440002" y2="-422.440002"/><linearGradient id="F" gradientTransform="matrix(.98316 0 0 -1.027665 .182977 -278.219668)" gradientUnits="userSpaceOnUse" x1="54.080002" x2="253.210007" xlink:href="#d" y1="-386.890015" y2="-386.890015"/><linearGradient id="G" gradientTransform="matrix(.98316 0 0 -1.027665 .182977 -278.219668)" gradientUnits="userSpaceOnUse" x1="54.080002" x2="253.210007" xlink:href="#d" y1="-420.690002" y2="-420.690002"/><linearGradient id="H" gradientTransform="matrix(.98316 0 0 -1.027665 .182977 -278.219668)" gradientUnits="userSpaceOnUse" x1="54.119999" x2="253.169998" xlink:href="#d" y1="-417.290009" y2="-417.290009"/><linearGradient id="I" gradientTransform="matrix(.98316 0 0 -1.027665 .182977 -278.219668)" gradientUnits="userSpaceOnUse" x1="54.119999" x2="253.169998" xlink:href="#d" y1="-402.790009" y2="-402.790009"/><linearGradient id="J" gradientTransform="matrix(.98316 0 0 -1.027665 .182977 -278.219668)" gradientUnits="userSpaceOnUse" x1="54.119999" x2="253.169998" xlink:href="#d" y1="-431.290009" y2="-431.290009"/><linearGradient id="K" gradientTransform="matrix(.98316 0 0 -1.027665 .182977 -278.219668)" gradientUnits="userSpaceOnUse" x1="54.080002" x2="253.210007" xlink:href="#d" y1="-396.940002" y2="-396.940002"/><linearGradient id="L" gradientTransform="matrix(.98316 0 0 -1.027665 .182977 -278.219668)" gradientUnits="userSpaceOnUse" x1="54.119999" x2="253.169998" xlink:href="#d" y1="-388.690002" y2="-388.690002"/><linearGradient id="M" gradientTransform="matrix(.98316 0 0 -1.027665 .182977 -278.219668)" gradientUnits="userSpaceOnUse" x1="54.080002" x2="253.210007" xlink:href="#d" y1="-382.540009" y2="-382.540009"/><linearGradient id="N" gradientTransform="matrix(.98316 0 0 -1.027665 .182977 -278.219668)" gradientUnits="userSpaceOnUse" x1="54.080002" x2="253.169998" xlink:href="#d" y1="-408.890015" y2="-408.890015"/><linearGradient id="O" gradientTransform="matrix(.98316 0 0 -1.027665 .182977 -278.219668)" gradientUnits="userSpaceOnUse" x1="54.080002" x2="253.169998" xlink:href="#d" y1="-394.839996" y2="-394.839996"/><linearGradient id="P" gradientTransform="matrix(.98316 0 0 -1.027665 .182977 -278.219668)" gradientUnits="userSpaceOnUse" x1="54.080002" x2="253.169998" xlink:href="#d" y1="-437.390015" y2="-437.390015"/><linearGradient id="Q" gradientTransform="matrix(.98316 0 0 -1.027665 .182977 -278.219668)" gradientUnits="userSpaceOnUse" x1="54.080002" x2="253.169998" xlink:href="#d" y1="-380.640015" y2="-380.640015"/><linearGradient id="R" gradientTransform="matrix(.98316 0 0 -1.027665 .182977 -278.219668)" gradientUnits="userSpaceOnUse" x1="54.080002" x2="253.169998" xlink:href="#d" y1="-423.190002" y2="-423.190002"/><linearGradient id="S" gradientTransform="matrix(.98316 0 0 -1.027665 .182977 -278.219668)" gradientUnits="userSpaceOnUse" x1="54.080002" x2="253.210007" xlink:href="#d" y1="-411.190002" y2="-411.190002"/><linearGradient id="T" gradientTransform="matrix(.98316 0 0 -1.027665 .182977 -278.219668)" gradientUnits="userSpaceOnUse" x1="54.080002" x2="253.210007" xlink:href="#d" y1="-392.48999" y2="-392.48999"/><linearGradient id="U" gradientTransform="matrix(.98316 0 0 -1.027665 .182977 -278.219668)" gradientUnits="userSpaceOnUse" x1="54.080002" x2="253.169998" xlink:href="#d" y1="-426.98999" y2="-426.98999"/><linearGradient id="V" gradientTransform="matrix(.98316 0 0 -1.027665 .182977 -278.219668)" gradientUnits="userSpaceOnUse" x1="54.080002" x2="253.210007" xlink:href="#d" y1="-425.339996" y2="-425.339996"/><linearGradient id="W" gradientTransform="matrix(.98316 0 0 -1.027665 .182977 -278.219668)" gradientUnits="userSpaceOnUse" x1="54.080002" x2="253.169998" xlink:href="#d" y1="-398.640015" y2="-398.640015"/><linearGradient id="X" gradientTransform="matrix(.98316 0 0 -1.027665 .182977 -278.219668)" gradientUnits="userSpaceOnUse" x1="54.080002" x2="253.169998" xlink:href="#d" y1="-441.690002" y2="-441.690002"/><linearGradient id="Y" gradientTransform="matrix(.98316 0 0 -1.027665 .182977 -278.219668)" gradientUnits="userSpaceOnUse" x1="54.080002" x2="253.210007" xlink:href="#d" y1="-406.589996" y2="-406.589996"/><linearGradient id="Z" gradientTransform="matrix(.98316 0 0 -1.027665 .182977 -278.219668)" gradientUnits="userSpaceOnUse" x1="54.080002" x2="253.210007" xlink:href="#d" y1="-384.440002" y2="-384.440002"/><linearGradient id="aa" gradientTransform="matrix(.98316 0 0 -1.027665 .182977 -278.219668)" gradientUnits="userSpaceOnUse" x1="54.080002" x2="253.169998" xlink:href="#d" y1="-413.089996" y2="-413.089996"/><linearGradient id="ab" gradientTransform="matrix(.98316 0 0 -1.027665 .182977 -278.219668)" gradientUnits="userSpaceOnUse" x1="54.080002" x2="253.210007" xlink:href="#d" y1="-439.690002" y2="-439.690002"/><linearGradient id="ac" gradientTransform="matrix(.98316 0 0 -1.027665 .182977 -278.219668)" gradientUnits="userSpaceOnUse" x1="54.080002" x2="253.169998" xlink:href="#d" y1="-433.589996" y2="-433.589996"/><linearGradient id="ad" gradientTransform="matrix(.98316 0 0 -1.027665 .182977 -278.219668)" gradientUnits="userSpaceOnUse" x1="54.080002" x2="253.169998" xlink:href="#d" y1="-390.589996" y2="-390.589996"/><linearGradient id="ae" gradientTransform="matrix(.98316 0 0 -1.027665 .182977 -278.219668)" gradientUnits="userSpaceOnUse" x1="54.080002" x2="253.169998" xlink:href="#d" y1="-419.190002" y2="-419.190002"/><linearGradient id="af" gradientTransform="matrix(.98316 0 0 -1.027665 .182977 -278.219668)" gradientUnits="userSpaceOnUse" x1="54.080002" x2="253.169998" xlink:href="#d" y1="-405.089996" y2="-405.089996"/><path d="m101.164062 182.175781c6.390626 24.25 28.902344 42.75 40.113282 41.925781.390625 0 43.0625-8.21875 66.363281-49.019531 17.992187-31.753906 11.992187-62.273437-12.78125-62.6875-9.339844.414063-105.691406 23.84375-93.695313 69.78125m91.039063-155.179687c-31.652344-28.167969-75.945313-34.878906-113.949219-17.265625-2.257812 1.132812-4.519531 2.363281-6.78125 3.496093-1.578125.792969-3.089844 1.71875-4.523437 2.773438h.394531c-4.273438 3.183594-8.050781 7.03125-11.210938 11.40625-31.066406 42.753906 72.753907 73.683594 128.597657 74.097656 25.464843 19.101563 32.640625-54.167968 7.472656-74.507812zm0 0" fill="#0e3ca5"/><path d="m84.253906 27.707031c-14.257812 22.402344-61.839844 38.433594-69.707031 35.660157l1.082031-1.953126c2.648438-5.527343 5.777344-10.789062 9.339844-15.722656 3.304688-4.925781 7.058594-9.5 11.207031-13.667968 4.097657-4.214844 8.464844-8.128907 13.078125-11.714844 2.949219-2.367188 5.996094-4.316406 8.945313-6.269532 4.8125-2.804687 10.222656-4.289062 15.730469-4.316406 21.628906.410156 10.714843 17.984375 10.324218 17.984375m-11.601562 158.773438c1.082031 7.089843 0 34.835937-1.476563 37.199219-1.082031 0-3.734375.414062-10.910156-3.902344-3.738281-2.363282-7.082031-4.726563-10.914063-7.398438-9.417968-7.328125-17.765624-16.054687-24.777343-25.898437-3.339844-5.140625-6.78125-10.175781-9.339844-15.621094-2.6875-5.460937-5.050781-11.089844-7.078125-16.855469-1.875-6.023437-3.386719-12.167968-4.523438-18.394531-1.867187-12.734375-1.867187-25.695313 0-38.433594 1.179688-6.371093 2.261719-12.640625 4.523438-18.496093.394531-1.132813.785156-2.367188 1.082031-3.496094 8.257813 11.40625 17.597657 21.890625 25.855469 33.296875 7.394531 10.515625 14.160156 21.496093 20.253906 32.886719 14.355469 23.53125 16.222656 38.433593 17.304688 45.113281m158.191406-70.191407c-.011719 15.011719-2.679688 29.886719-7.867188 43.882813-13.46875 14.902344-103.820312-21.890625-104.902343-22.300781-12.386719-5.550782-49.945313-22.710938-53.289063-50.148438-4.914062-39.15625 70.886719-66.183594 104.214844-67.414062 4.128906 0 16.125 0 23.203125 6.265625 24.820313 22.554687 38.941406 55.339843 38.640625 89.714843m-61.054688 105.75c-9.734374 4.726563-20.648437 1.128907-17.992187-8.632812 5.601563-19.21875 52.894531-39.15625 63.316406-39.976562 1.078125 0 1.867188.820312 1.078125 1.953124-10.996094 19.773438-27.070312 35.933594-46.402344 46.65625" fill="#5493f7"/><path d="m53.578125 240.84375c-.25 2.1875.363281 4.390625 1.699219 6.09375 1.335937 1.707031 3.277344 2.773438 5.378906 2.949219 95.957031.824219 188.570312-3.90625 188.570312-18.804688 0-45.824219-195.648437 9.761719-195.648437 9.761719zm0 0" fill="url(#a)"/><path d="m53.578125 240.84375c-.25 2.1875.363281 4.390625 1.699219 6.09375 1.335937 1.707031 3.277344 2.773438 5.378906 2.949219 95.957031.824219 188.175781-2.363281 188.570312-18.804688 0-45.824219-195.648437 9.761719-195.648437 9.761719zm7.078125 8.324219h-.785156c-3.042969-.476563-5.539063-2.765625-6.390625-5.859375.808593 3.453125 3.777343 5.875 7.175781 5.859375 95.5625-.824219 186.703125-31.34375 186.703125-17.984375s-90.746094 18.703125-186.703125 17.984375zm0 0" fill="url(#b)"/><path d="m60.65625 111.972656c-4.125 0-7.472656 3.5-7.472656 7.8125v121.058594c-.042969 4.175781 3.089844 7.632812 7.082031 7.808594 95.953125-.820313 188.566406-34.117188 188.566406-17.984375v-136.265625c.394531-16.136719-92.21875 16.75-188.175781 17.570312zm0 0" fill="url(#c)"/><path d="m74.902344 195.832031c3.34375 0 6.785156-.410156 10.128906-.410156l9.730469-.824219c2.949219-.410156 6.390625-.410156 9.339843-.820312l9.046876-.824219 8.652343-.820313c2.949219-.410156 5.601563-.824218 8.652344-1.132812l8.648437-1.128906 8.261719-1.128906 8.257813-1.132813 8.652344-1.128906 8.652343-1.542969 8.648438-1.539062 8.652343-1.542969 9.046876-1.542969 9.339843-1.539062 9.734375-1.542969c3.339844-.410157 6.390625-.820313 10.519532-1.539063 4.457031-.683594 8.964843-.957031 13.46875-.824218 4.128906.410156 7.472656 1.542968 7.472656 4.316406v-10.585938c0-3.183594-3.050782-3.902344-7.082032-4.316406-4.128906-.273438-8.277343-.136719-12.386718.414062-3.734375.410157-6.78125.820313-9.734375 1.128907-2.910157.320312-5.800781.835937-8.648438 1.542969l-8.261719 1.539062-8.257812 1.542969-8.945312 1.128906-8.652344 1.542969-9.046875 1.539062-9.730469 1.542969-10.519531 1.542969v-10.585938l10.519531-1.542968 9.730469-1.539063 9.046875-1.542969 8.652344-1.542968 8.257812-1.539063 8.257812-1.542969 8.257813-1.539062 8.652344-1.542969c3.050781-.410156 5.605469-.824219 9.734375-1.128906 4.089844-.753907 8.261718-.890625 12.386718-.414063 3.738282.414063 7.078126 1.542969 7.078126 4.316406v-10.582031c0-3.085937-3.046876-3.90625-7.078126-4.316406-4.132812-.277344-8.277343-.136719-12.386718.410156-3.734375.410157-6.785156.820313-9.734375 1.128907l-8.652344 1.542968-8.257813 1.539063-16.515624 3.085937-8.652344 1.539063-9.046875 1.542969-9.730469 1.542968-10.519531 1.539063v-10.585938l10.519531-1.539062 9.730469-1.542969 9.046875-1.539062 8.652344-1.542969 8.257812-1.542969 8.257812-1.539062 8.257813-1.542969 8.652344-1.542969c3.050781-.410156 5.605469-.820312 9.734375-1.128906s8.257812-.820313 12.386718-.410156c3.738282.410156 7.078126 1.539062 7.078126 4.316406v-10.6875c0-3.1875-3.046876-3.90625-7.078126-4.316406-4.132812-.273438-8.277343-.136719-12.386718.410156-3.734375.410156-6.785156.820312-9.734375 1.128906s-5.601563.824219-8.652344 1.542969l-8.257813 1.542969-8.257812 1.539062-8.257812 1.542969-8.652344 1.542969-9.046875 1.539062-9.730469 1.542969-10.519531 1.539062v-10.171875l10.519531-1.542968 9.730469-1.539063c3.050781-.414063 6-1.132813 9.046875-1.542969l8.652344-1.542968 8.257812-1.539063 8.257812-1.542969 8.257813-1.539062c3.050781-.414063 5.605469-.824219 8.652344-1.542969 3.050781-.71875 5.605469-.824219 9.734375-1.128906 4.089844-.75 8.261718-.886719 12.386718-.402344 3.738282.410156 7.078126 1.542969 7.078126 4.316406v-10.585937c0-3.082032-3.046876-3.90625-7.078126-4.316406-4.132812-.273438-8.277343-.136719-12.386718.410156-3.734375.414062-6.785156.824218-9.734375 1.132812s-5.601563.820313-8.652344 1.539063l-16.515625 3.085937-8.257812 1.539063-8.652344 1.542969-9.046875 1.542968-9.730469 1.539063-10.519531 1.542969v-10.378907c-29.019531 4.773438-58.328125 7.382813-87.699219 7.808594-4.125 0-7.472656 3.496094-7.472656 7.808594v76.355469h10.914062c3.144532.105468 7.273438-.304688 10.617188-.304688zm0 0" fill="url(#e)"/><path d="m74.902344 216.589844 10.128906-.410156 9.730469-.824219 9.339843-.820313 9.046876-.820312 8.652343-.824219 8.652344-1.128906 8.648437-.824219 8.261719-1.128906 8.257813-1.132813 8.652344-1.128906 8.652343-1.542969 8.648438-1.539062 8.652343-1.542969 9.046876-1.539063 9.339843-1.542968 9.734375-1.542969c3.339844-.410156 6.390625-.820313 10.519532-1.539063 4.128906-1.542968 8.652343-1.542968 13.074218-1.542968 4.128906.410156 7.472656 1.542968 7.472656 4.726562v-10.574218c0-3.183594-3.34375-4.316407-7.472656-4.726563-4.503906-.136719-9.011718.140625-13.46875.820313-4.128906.414062-7.078125 1.132812-10.519531 1.542968l-9.734375 1.542969-9.339844 1.539063-9.242187 1.441406-8.652344 1.539062-8.648437 1.542969c-2.953126.410156-5.605469.820313-8.652344 1.539063l-8.257813 1.542968-8.261719 1.132813-8.257812 1.128906-8.652344 1.128906c-3.046875.414063-5.601562.824219-8.652344 1.132813l-8.648437.820312-9.046875.824219c-3.09375.492187-6.210938.769531-9.339844.820313l-9.734375.824218c-3.339843 0-6.78125.410156-10.125.410156s-6.785156.410157-10.519531.410157c-3.738281 0-7.078125.410156-10.914062.410156v10.585937h10.914062l10.714844-.71875zm0 0" fill="url(#f)"/><path d="m241.65625 205.59375c-4.503906-.136719-9.011719.140625-13.46875.824219-4.128906.410156-7.078125 1.128906-10.519531 1.539062l-9.734375 1.542969-9.339844 1.542969-8.945312 1.539062-8.652344 1.542969-8.652344 1.539062-8.652344 1.542969-8.257812 1.128907-8.257813 1.132812-8.257812 1.128906-8.652344 1.542969-8.652344 1.128906-8.652343.824219-9.042969.820312-9.734375 1.132813-9.734375.820313-10.125.410156-10.519531.410156h-10.914063v10.175781h10.914063c3.507812.066407 7.023437-.070312 10.519531-.410156 3.363281-.34375 6.746093-.480469 10.125-.410156 3.257812-.070313 6.507812-.347657 9.734375-.824219l9.339844-.820312 9.042968-.824219 8.652344-.820313 8.652344-1.132812 8.652344-1.128906 8.652343-1.542969 8.257813-1.128907 8.257812-1.132812 8.652344-1.128906 8.652344-1.542969 8.652344-1.539063 8.945312-1.542968 9.339844-1.539063 9.734375-1.542969c3.34375-.410156 6.390625-1.128906 10.519531-1.542968 4.457031-.679688 8.964844-.953125 13.46875-.820313 4.128906.410157 7.472656 1.542969 7.472656 4.316407v-10.585938c.097656-3.390625-3.34375-4.625-7.472656-4.625zm0 0" fill="url(#g)"/><path d="m74.125 185.257812 9.339844-.410156 9.046875-.414062 8.652343-.820313 8.652344-.824219 8.652344-.820312c2.949219-.410156 5.996094-.824219 9.339844-1.128906l9.730468-1.132813c3.34375-.410156 7.078126-1.128906 10.914063-1.539062v-73.992188c-29.019531 4.773438-58.324219 7.382813-87.699219 7.808594-4.125 0-7.46875 3.496094-7.46875 7.808594v65.773437h10.910156zm0 0" fill="url(#h)"/><path d="m75.996094 115.160156c-.394532 1.128906-.394532 1.953125-.789063 3.1875h-2.949219l2.261719 1.539063c-.394531 1.132812-.394531 1.953125-.785156 3.082031l2.261719-1.949219 2.257812 1.539063c-.390625-1.128906-.390625-1.539063-.785156-2.773438l2.261719-1.953125h-2.949219zm0 0" fill="url(#i)"/><path d="m84.253906 151.539062c-.394531 1.128907-.394531 1.953126-.789062 3.082032h-2.949219l2.261719 1.542968c-.390625 1.128907-.390625 1.953126-.785156 3.1875l2.261718-1.953124 2.261719 1.539062c-.394531-1.128906-.394531-1.539062-.789063-2.773438l2.261719-1.953124h-2.949219c0-1.128907-.394531-1.4375-.785156-2.671876zm0 0" fill="url(#j)"/><path d="m85.039062 168.816406c-.394531-1.132812-.394531-1.542968-.785156-2.777344-.394531 1.132813-.394531 1.953126-.789062 3.1875h-2.949219l2.261719 1.539063c-.390625 1.132813-.390625 1.953125-.785156 3.085937l2.261718-1.953124 2.261719 1.539062c-.394531-1.128906-.394531-1.539062-.789063-2.773438l2.261719-1.953124h-2.949219zm0 0" fill="url(#k)"/><path d="m75.996094 144.550781c-.394532 1.132813-.394532 1.953125-.789063 3.1875h-2.949219l2.261719 1.539063c-.394531 1.132812-.394531 1.953125-.785156 3.085937l2.261719-1.953125 2.257812 1.539063c-.390625-1.128907-.390625-1.539063-.785156-2.773438.785156-.820312 1.476562-1.128906 2.261719-1.953125h-2.949219c-.394531-1.128906-.394531-1.539062-.785156-2.671875zm0 0" fill="url(#l)"/><path d="m75.996094 159.042969c-.394532 1.128906-.394532 1.949219-.789063 3.082031h-2.949219l2.261719 1.539062c-.394531 1.132813-.394531 1.953126-.785156 3.1875l2.261719-1.953124 2.257812 1.542968c-.390625-1.132812-.390625-1.542968-.785156-2.777344l2.261719-1.949218h-2.949219zm0 0" fill="url(#m)"/><path d="m75.996094 130.0625c-.394532 1.128906-.394532 1.953125-.789063 3.082031h-2.949219l2.261719 1.542969c-.394531 1.128906-.394531 1.949219-.785156 3.183594l2.261719-1.953125 2.257812 1.542969c-.390625-1.132813-.390625-1.542969-.785156-2.773438.785156-.824219 1.476562-1.132812 2.261719-1.953125h-2.949219zm0 0" fill="url(#n)"/><path d="m101.164062 164.898438c-.445312.96875-.710937 2.015624-.789062 3.082031l-2.949219.414062 2.261719 1.539063c-.390625 1.132812-.390625 1.953125-.785156 3.1875l2.261718-1.953125 2.261719 1.542969c-.394531-1.132813-.394531-1.542969-.789062-2.777344l2.261719-1.953125-2.949219-.410157zm0 0" fill="url(#o)"/><path d="m84.253906 136.636719c-.394531 1.132812-.394531 1.953125-.789062 3.1875h-2.949219l2.261719 1.542969c-.390625 1.128906-.390625 1.949218-.785156 3.082031l2.261718-1.953125 2.261719 1.542968c-.394531-1.132812-.394531-1.542968-.789063-2.777343l2.261719-1.953125h-2.949219c-.148437-.921875-.410156-1.820313-.785156-2.671875zm0 0" fill="url(#p)"/><path d="m92.511719 158.21875c-.394531 1.132812-.394531 1.953125-.785157 3.1875h-2.949218l2.257812 1.539062c-.390625 1.132813-.390625 1.953126-.785156 3.085938l2.261719-1.953125 2.261719 1.539063c-.394532-1.128907-.394532-1.539063-.789063-2.773438l2.261719-1.953125-3.046875.410156c.054687-1.074219-.183594-2.140625-.6875-3.082031zm0 0" fill="url(#q)"/><path d="m93.691406 175.484375c-.394531-1.128906-.394531-1.542969-.785156-2.773437-.394531 1.128906-.394531 1.949218-.789062 3.082031l-2.949219.410156 2.261719 1.542969c-.394532 1.128906-.394532 1.953125-.785157 3.183594l2.261719-1.953126 2.261719 1.542969c-.394531-1.128906-.394531-1.542969-.789063-2.773437l2.261719-1.953125zm0 0" fill="url(#r)"/><path d="m84.253906 122.148438c-.394531 1.128906-.394531 1.953124-.789062 3.082031h-2.949219l2.261719 1.542969c-.390625 1.128906-.390625 1.953124-.785156 3.183593l2.261718-1.949219 2.261719 1.539063c-.394531-1.128906-.394531-1.539063-.789063-2.773437l2.261719-1.953126h-2.949219c0-1.027343-.394531-1.4375-.785156-2.671874zm0 0" fill="url(#s)"/><path d="m92.511719 143.316406c-.394531 1.132813-.394531 1.953125-.785157 3.085938h-2.949218l2.257812 1.539062c-.390625 1.132813-.390625 1.953125-.785156 3.1875l2.261719-1.953125 2.261719 1.542969c-.394532-1.132812-.394532-1.542969-.789063-2.777344l2.261719-1.953125-3.046875.414063c-.003907-1.070313-.238281-2.125-.6875-3.085938zm0 0" fill="url(#t)"/><path d="m76.78125 176.613281-.785156-2.773437c-.394532 1.128906-.394532 1.953125-.789063 3.1875h-2.949219l2.261719 1.539062c-.394531 1.132813-.394531 1.953125-.785156 3.082032l2.261719-2.363282 2.257812 1.542969-.6875-2.671875 2.261719-1.953125zm0 0" fill="url(#u)"/><path d="m59.171875 144.859375c-.394531 1.128906-.394531 1.542969-.785156 2.773437h-2.949219l2.261719 1.953126c-.394531 1.132812-.394531 1.542968-.789063 2.777343l2.261719-1.953125 2.261719 1.953125c-.394532-1.132812-.394532-1.542969-.785156-2.777343l2.261718-1.953126h-2.949218c-.179688-.945312-.445313-1.875-.789063-2.773437zm0 0" fill="url(#v)"/><path d="m59.171875 130.371094-.785156 2.773437h-2.949219l2.261719 1.953125c-.394531 1.128906-.394531 1.539063-.789063 2.773438l2.261719-1.941406 2.261719 1.953124c-.394532-1.132812-.394532-1.542968-.785156-2.777343l2.261718-1.949219h-2.949218c-.140626-.964844-.402344-1.902344-.789063-2.785156zm0 0" fill="url(#w)"/><path d="m60.265625 177.035156-.789063-2.773437c-.390624 1.128906-.390624 1.953125-.785156 2.773437h-2.949218l2.261718 1.953125-.789062 3.082031 2.261718-1.953124 2.261719 1.953124c-.394531-1.128906-.394531-1.539062-.785156-2.773437l2.261719-1.953125zm0 0" fill="url(#x)"/><path d="m90.25 136.636719 2.261719-1.949219 2.261719 1.539062c-.394532-1.128906-.394532-1.539062-.789063-2.773437l2.261719-1.953125-3.046875.410156c-.394531-1.128906-.394531-1.539062-.785157-2.773437-.394531 1.128906-.394531 1.953125-.789062 3.183593h-2.957031l2.261719 1.542969c-.03125.96875-.265626 1.914063-.6875 2.773438zm0 0" fill="url(#y)"/><path d="m90.25 122.148438 2.261719-1.953126 2.261719 1.542969c-.394532-1.132812-.394532-1.542969-.789063-2.777343l2.261719-1.949219-2.949219.511719-.785156-2.773438c-.394531 1.128906-.394531 1.953125-.785157 3.082031h-2.949218l2.257812 1.542969c-.117187.960938-.382812 1.898438-.785156 2.773438zm0 0" fill="url(#z)"/><path d="m59.171875 159.761719c-.394531 1.128906-.394531 1.953125-.785156 3.183593h-2.949219l2.261719 1.953126c-.375.886718-.636719 1.820312-.789063 2.773437l2.261719-1.941406 2.261719 1.542969-.785156-2.773438 2.261718-1.953125h-2.949218c-.085938-.972656-.351563-1.914063-.789063-2.777344zm0 0" fill="url(#A)"/><path d="m67.734375 122.96875c-.390625 1.132812-.390625 1.953125-.785156 3.1875h-2.949219l2.261719 1.542969-.789063 3.082031 2.261719-1.953125 2.261719 1.542969c-.390625-1.132813-.390625-1.953125-.785156-2.777344l2.261718-1.953125h-2.949218zm0 0" fill="url(#B)"/><path d="m67.734375 137.460938c-.390625 1.128906-.390625 1.953124-.785156 3.082031h-2.949219l2.261719 1.542969-.789063 3.183593 2.261719-1.953125 2.261719 1.542969c-.390625-1.128906-.390625-1.542969-.785156-2.773437l2.261718-1.953126h-2.949218zm0 0" fill="url(#C)"/><path d="m68.523438 169.625c-.394532-1.128906-.394532-1.539062-.789063-2.773438-.390625 1.128907-.390625 1.953126-.785156 2.773438h-2.949219l2.261719 1.953125c-.394531 1.132813-.394531 1.542969-.789063 2.777344l2.261719-1.953125 2.253906 1.550781c-.394531-1.128906-.394531-1.542969-.789062-2.773437l2.261719-1.953126zm0 0" fill="url(#D)"/><path d="m67.734375 151.949219c-.390625 1.132812-.390625 1.953125-.785156 3.1875h-2.949219l2.261719 1.953125-1.082031 2.773437 2.261718-1.953125 2.261719 1.542969-.789063-2.773437 2.261719-1.953126h-2.652343c-.394532-.824218-.394532-1.644531-.789063-2.777343zm0 0" fill="url(#E)"/><path d="m59.171875 115.46875c-.394531 1.128906-.394531 1.953125-.785156 2.773438h-2.949219l2.261719 1.953124-.789063 3.082032 2.261719-1.953125 2.261719 1.953125c-.394532-1.128906-.394532-1.539063-.785156-2.773438l2.261718-1.953125h-2.949218zm0 0" fill="url(#F)"/><path d="m101.164062 149.996094c-.457031 1-.722656 2.082031-.789062 3.1875l-2.949219.410156 2.261719 1.542969c-.390625 1.128906-.390625 1.953125-.785156 3.082031l2.261718-1.953125 2.261719 1.542969c-.394531-1.128906-.394531-1.542969-.789062-2.773438l2.261719-1.953125-2.949219.410157zm0 0" fill="url(#G)"/><path d="m134.492188 146.503906c-.394532 1.128906-.394532 1.953125-.785157 3.1875l-3.050781.410156 2.261719 1.539063c-.441407.96875-.707031 2.015625-.785157 3.085937l2.261719-1.953124 2.261719 1.539062c-.453125-.851562-.722656-1.800781-.789062-2.773438l2.261718-1.953124-2.949218.410156c-.097657-1.1875-.332032-2.359375-.6875-3.492188zm0 0" fill="url(#H)"/><path d="m134.492188 131.601562c-.394532 1.132813-.394532 1.953126-.785157 3.085938l-3.050781.410156 2.261719 1.539063c-.453125 1-.722657 2.082031-.785157 3.1875l2.261719-1.953125 2.261719 1.542968c-.453125-.855468-.722656-1.800781-.789062-2.777343l2.261718-1.949219-2.949218.410156c-.140626-1.183594-.371094-2.351562-.6875-3.496094zm0 0" fill="url(#I)"/><path d="m135.277344 163.675781c-.390625-1.128906-.390625-1.542969-.785156-2.773437-.394532 1.128906-.394532 1.953125-.785157 3.082031l-3.050781.410156 2.261719 1.542969c-.453125 1-.722657 2.082031-.785157 3.183594l2.261719-1.949219 2.261719 1.539063c-.453125-.851563-.722656-1.800782-.789062-2.773438l2.261718-1.953125zm0 0" fill="url(#J)"/><path d="m125.839844 125.746094-.785156 2.773437-2.949219.410157 2.261719 1.542968c-.394532 1.128906-.394532 1.953125-.789063 3.183594l2.261719-1.949219 2.261718 1.539063c-.453124-.851563-.722656-1.800782-.785156-2.773438l2.261719-1.953125-3.050781.410157c.117187-1.109376-.125-2.234376-.6875-3.183594zm0 0" fill="url(#K)"/><path d="m134.492188 117.113281c-.394532 1.128907-.394532 1.953125-.785157 3.183594l-3.34375.414063 2.261719 1.539062c-.445312.96875-.710938 2.015625-.789062 3.085938l2.261718-1.953126 2.261719 1.539063c-.453125-.851563-.722656-1.800781-.785156-2.773437l2.261719-1.953126c-1.082032 0-1.867188.410157-3.046876.410157.1875-1.171875.085938-2.375-.296874-3.492188zm0 0" fill="url(#L)"/><path d="m125.839844 110.84375-.785156 3.082031-2.949219.414063 2.261719 1.539062c-.394532 1.132813-.394532 1.953125-.789063 3.082032l2.261719-1.949219 2.261718 1.539062c-.453124-.851562-.722656-1.800781-.785156-2.773437l2.261719-1.953125-3.050781.410156c.039062-1.171875-.195313-2.335937-.6875-3.390625zm0 0" fill="url(#M)"/><path d="m142.742188 137.871094c-.394532 1.128906-.394532 1.953125-.789063 3.082031l-2.949219.414063 2.261719 1.539062c-.457031 1-.722656 2.082031-.785156 3.1875l2.261719-1.941406 2.261718 1.539062-.789062-2.773437 2.261718-2.363281h-2.949218c-.382813-1.140626-.382813-1.542969-.785156-2.683594zm0 0" fill="url(#N)"/><path d="m142.742188 123.382812c-.394532 1.128907-.394532 1.953126-.789063 3.183594l-2.949219.410156 2.261719 1.542969c-.457031 1-.722656 2.082031-.785156 3.1875l2.261719-1.945312 2.261718 1.542969c-.453125-.855469-.722656-1.800782-.789062-2.773438l2.261718-1.953125-2.949218-.410156c-.394532-1.234375-.394532-1.644531-.785156-2.777344zm0 0" fill="url(#O)"/><path d="m143.539062 169.933594c-.394531-1.128906-.394531-1.539063-.789062-2.773438-.390625 1.128906-.390625 1.953125-.785156 3.082032l-2.949219.410156 2.261719 1.542968-.789063 3.1875 2.261719-1.953124 2.261719 1.539062c-.394531-1.128906-.394531-1.539062-.785157-2.773438l2.261719-1.953124zm0 0" fill="url(#P)"/><path d="m142.742188 108.890625-.789063 3.082031-2.949219.414063 2.261719 1.539062c-.441406.96875-.710937 2.015625-.785156 3.085938.785156-.824219 1.472656-1.132813 2.261719-1.953125l2.261718 1.539062c-.453125-.851562-.722656-1.800781-.789062-2.773437l2.261718-1.953125-2.949218-.410156c-.21875-.871094-.480469-1.726563-.785156-2.570313zm0 0" fill="url(#Q)"/><path d="m142.742188 152.773438c-.394532 1.128906-.394532 1.953124-.789063 3.183593h-2.949219l2.261719 1.542969-.785156 3.082031 2.261719-1.953125 2.261718 1.542969c-.394531-1.128906-.394531-1.542969-.789062-2.773437l2.261718-1.953126h-2.949218c-.394532-1.132812-.394532-1.542968-.785156-2.671874zm0 0" fill="url(#R)"/><path d="m125.839844 140.234375-.785156 3.1875-2.949219.410156 2.261719 1.542969c-.394532 1.128906-.394532 1.949219-.789063 3.082031l2.261719-1.953125 2.261718 1.542969c-.453124-.855469-.722656-1.800781-.785156-2.777344l2.261719-1.953125-3.050781.414063c.097656-1.210938-.140625-2.421875-.6875-3.496094zm0 0" fill="url(#S)"/><path d="m101.164062 121.019531c-.457031.996094-.722656 2.078125-.789062 3.183594l-2.949219.410156 2.261719 1.542969c-.390625 1.128906-.390625 1.953125-.785156 3.082031l2.261718-1.953125 2.261719 1.542969c-.394531-1.128906-.394531-1.542969-.789062-2.773437l2.261719-1.953126-2.949219.410157zm0 0" fill="url(#T)"/><path d="m109.421875 156.679688-.785156 3.183593h-2.949219l2.257812 1.542969c-.441406.964844-.707031 2.011719-.785156 3.082031l2.261719-1.953125 2.261719 1.542969c-.394532-1.132813-.394532-1.542969-.785156-2.777344l2.257812-1.949219-2.949219.410157c-.210937-1.042969-.472656-2.070313-.785156-3.082031zm0 0" fill="url(#U)"/><path d="m125.839844 154.726562-.785156 3.183594-2.949219.410156 2.652343 1.542969c-.390624 1.128907-.390624 1.953125-.785156 3.1875l2.261719-1.953125 2.261719 1.539063c-.453125-.851563-.722656-1.800781-.789063-2.773438l2.261719-1.953125-3.046875.410156c-.242187-1.230468-.605469-2.4375-1.082031-3.59375zm0 0" fill="url(#V)"/><path d="m109.421875 127.285156-.785156 3.1875-2.949219.410156 2.257812 1.542969c-.453124 1-.722656 2.078125-.785156 3.183594l2.261719-1.953125 2.261719 1.542969c-.394532-1.128907-.394532-1.542969-.785156-2.773438l2.257812-1.953125-2.949219.410156c-.390625-1.644531-.390625-2.464843-.785156-3.597656zm0 0" fill="url(#W)"/><path d="m109.421875 171.578125-.785156 3.1875-2.949219.410156 2.257812 1.542969c-.441406.964844-.707031 2.011719-.785156 3.082031l2.261719-1.953125 2.261719 1.542969c-.394532-1.132813-.394532-1.542969-.785156-2.777344l2.257812-1.953125-2.949219.414063c-.390625-1.953125-.390625-2.777344-.785156-3.496094zm0 0" fill="url(#X)"/><path d="m101.164062 135.507812c-.445312.96875-.710937 2.011719-.789062 3.082032l-2.949219.410156 2.261719 1.542969c-.390625 1.132812-.390625 1.953125-.785156 3.1875l2.261718-1.953125 2.261719 1.539062c-.394531-1.128906-.394531-1.539062-.789062-2.773437l2.261719-1.953125-2.949219.410156zm0 0" fill="url(#Y)"/><path d="m109.421875 112.796875c-.394531 1.128906-.394531 1.953125-.785156 3.082031l-2.949219.410156 2.257812 1.542969c-.441406.96875-.707031 2.011719-.785156 3.082031l2.261719-1.953124 2.261719 1.542968c-.394532-1.128906-.394532-1.542968-.785156-2.773437l2.257812-1.953125-2.949219.410156c-.179687-1.148438-.441406-2.28125-.785156-3.390625zm0 0" fill="url(#Z)"/><path d="m109.421875 142.1875c-.394531 1.128906-.394531 1.953125-.785156 3.1875l-2.949219.410156 2.257812 1.539063c-.390624 1.132812-.390624 1.953125-.785156 3.085937l2.261719-1.953125 2.261719 1.539063c-.394532-1.128906-.394532-1.539063-.785156-2.773438l2.257812-1.953125-2.949219.414063c-.171875-1.1875-.433593-2.355469-.785156-3.496094zm0 0" fill="url(#aa)"/><path d="m127.011719 172.296875c-.394531-1.128906-.394531-1.539063-.789063-2.773437l-.785156 3.1875-2.949219.410156 2.261719 1.539062c-.394531 1.132813-.394531 1.953125-.789062 3.085938.789062-.824219 1.476562-1.132813 2.261718-1.953125l2.261719 1.539062c-.453125-.851562-.722656-1.800781-.785156-2.773437l2.261719-1.953125zm0 0" fill="url(#ab)"/><path d="m118.367188 166.03125c-.390626-1.132812-.390626-1.542969-.785157-2.777344-.394531 1.132813-.394531 1.953125-.785156 3.082032l-3.050781.414062 2.261718 1.539062c-.453124 1-.722656 2.082032-.785156 3.1875l2.261719-1.953124 2.261719 1.542968c-.453125-.855468-.722656-1.800781-.789063-2.777344l2.261719-1.953124zm0 0" fill="url(#ac)"/><path d="m117.679688 119.066406c-.390626 1.539063-.390626 1.953125-.785157 3.183594l-3.046875.410156 2.257813 1.542969c-.441407.96875-.707031 2.011719-.785157 3.082031l2.261719-1.949218 2.261719 1.539062c-.453125-.851562-.722656-1.800781-.785156-2.773438l2.257812-1.953124-3.046875.410156c.03125-1.195313-.167969-2.382813-.589843-3.492188zm0 0" fill="url(#ad)"/><path d="m117.679688 148.457031c-.390626 1.128907-.390626 1.953125-.785157 3.183594l-3.046875.414063 2.257813 1.539062c-.441407.96875-.707031 2.015625-.785157 3.085938l2.261719-1.953126 2.261719 1.539063c-.453125-.851563-.722656-1.800781-.785156-2.773437l2.257812-1.953126-3.046875.410157c.070313-1.195313-.132812-2.394531-.589843-3.492188zm0 0" fill="url(#ae)"/><path d="m117.679688 133.964844c-.390626 1.132812-.390626 1.953125-.785157 3.085937l-3.046875.410157 2.257813 1.539062c-.453125 1-.722657 2.082031-.785157 3.1875l2.261719-1.953125 2.261719 1.542969c-.453125-.855469-.722656-1.800782-.785156-2.777344l2.257812-1.949219-3.046875.410157c.070313-1.199219-.132812-2.394532-.589843-3.496094zm0 0" fill="url(#af)"/><path d="m153.289062 167.785156c0 42.984375-33.332031 77.828125-74.453124 77.828125-41.121094 0-74.453126-34.84375-74.453126-77.828125 0-42.980468 33.332032-77.824218 74.453126-77.824218 41.121093 0 74.453124 34.84375 74.453124 77.824218zm0 0" fill="#fff"/><path d="m78.835938 94.339844c38.808593 0 70.265624 32.882812 70.265624 73.445312 0 40.566406-31.457031 73.449219-70.265624 73.449219-38.808594 0-70.265626-32.882813-70.265626-73.449219.042969-40.542968 31.476563-73.398437 70.265626-73.445312m0-8.765625c-43.4375 0-78.652344 36.808593-78.652344 82.210937 0 45.40625 35.214844 82.214844 78.652344 82.214844s78.652343-36.808594 78.652343-82.214844c0-45.402344-35.214843-82.210937-78.652343-82.210937zm0 0" fill="#0e3ca5"/><path d="m121.503906 201.074219-9.140625 7.933593c-6.363281 5.53125-15.761719 4.851563-21.335937-1.542968l-40.703125-46.675782 22.367187-19.722656zm0 0" fill="#5493f7"/><path d="m75.21875 176.328125-36.179688-7.976563c-1.246093-.253906-2.382812-.917968-3.234374-1.902343l-10.207032-11.816407c-.078125-.085937-.121094-.199218-.128906-.320312l-.066406-1.828125 50.140625 21.960937zm0 0" fill="#0e3ca5"/><path d="m77.214844 134.191406 14.449218-11.167968c.339844-.25.792969-.25 1.132813 0l8.613281 6.566406c.5.371094.824219.953125.894532 1.589844l3.078124 27.667968zm0 0" fill="#5493f7"/><path d="m126.027344 178.277344 5.996094 23.421875c.691406 2.695312-.046876 5.570312-1.9375 7.539062-1.886719 1.96875-4.636719 2.734375-7.214844 2.007813l-20.644532-5.847656c-3.988281-1.078126-7.609374-3.289063-10.460937-6.390626l-41.835937-45.609374c-5.964844-6.550782-5.894532-16.863282.160156-23.328126 5.734375-6.125 14.964844-6.746093 21.402344-1.4375l34.871093 28.878907 13.765625 11.375c2.878906 2.386719 4.949219 5.679687 5.898438 9.390625zm0 0" fill="#0e3ca5"/><g fill="#5493f7"><path d="m126.027344 178.277344c-.296875-1.15625-.707032-2.285156-1.21875-3.359375-2.035156 1.6875-4.320313 3.011719-6.765625 3.925781-6.601563 2.371094-13.691407 2.84375-20.527344 1.367188-1.191406-.257813-2.230469-.492188-3.273437.289062-.8125.609375-1.296876 1.59375-1.296876 2.640625 0 1.972656 1.472657 2.898437 3.097657 3.207031l.519531.082032c6.882812.78125 14.472656.738281 21.234375-1.027344 3.011719-.804688 6.304687-2.058594 8.367187-4.636719.097657-.113281.238282-.296875.402344-.523437zm-75.429688-30.089844 25.082032 25.929688c.039062.035156.058593.085937.058593.140624 0 .050782-.019531.101563-.058593.136719-.054688.023438-.113282.023438-.167969 0l-36.179688-7.585937c-1.242187-.253906-2.371093-.921875-3.222656-1.898438l-10.640625-12.136718c-.109375-.121094-.109375-.3125 0-.433594.042969-.039063.09375-.0625.148438-.070313l24.804687-4.109375c.058594-.03125.128906-.019531.175781.027344zm0 0"/><path d="m130.222656 202.527344c1.097656 1.148437.566406 3.566406-1.1875 5.398437-1.753906 1.835938-4.066406 2.390625-5.164062 1.242188-1.097656-1.144531-.566406-3.5625 1.1875-5.398438 1.753906-1.832031 4.066406-2.390625 5.164062-1.242187zm0 0"/></g></svg>