<svg xmlns="http://www.w3.org/2000/svg" viewBox="0 0 250 250" width="250" height="250">
	<style>
		tspan { white-space:pre }
		.shp0 { fill: #f5db5f } 
		.shp1 { opacity: 0.996;fill: #f9ec18 } 
		.shp2 { fill: #f8dc1c } 
		.shp3 { fill: #f6ca16 } 
		.shp4 { fill: #f8d934 } 
		.shp5 { fill: #ea950b } 
		.shp6 { fill: #e39c1c } 
		.shp7 { fill: #f2c335 } 
		.shp8 { opacity: 0.996;fill: #f3b40b } 
		.shp9 { fill: #d28f15 } 
		.shp10 { fill: #efc14c } 
		.shp11 { fill: #e7b334 } 
		.shp12 { fill: #c67c10 } 
		.shp13 { fill: #b2610d } 
		.shp14 { opacity: 0.996;fill: #02dc1b } 
		.shp15 { opacity: 0.996;fill: #43a50b } 
		.shp16 { opacity: 0.996;fill: #58e01c } 
	</style>
	<g id="Background">
		<path id="Path 0" class="shp0" d="M123 6.88C122.17 7.37 117.9 8.1 113.5 8.5C109.1 8.91 102.8 10.13 99.5 11.22C96.2 12.31 92.83 13.62 92 14.15C90.83 14.89 90.94 14.98 92.5 14.58C93.6 14.3 97.2 13.38 100.5 12.53C103.8 11.69 110.78 10.57 116 10.05C121.77 9.47 129.03 9.44 134.5 9.98C139.45 10.47 145.07 11.17 147 11.53C148.93 11.89 152.75 12.85 155.5 13.67C158.25 14.48 160.61 15 160.75 14.83C160.88 14.65 157.28 13.26 152.75 11.75C148.21 10.24 140.9 8.6 136.5 8.1C132.1 7.61 127.6 6.93 126.5 6.6C125.4 6.27 123.83 6.4 123 6.88Z" />
		<path id="Path 1" class="shp1" d="M118.5 9.65C116.3 9.85 111.58 10.49 108 11.06C104.42 11.64 98.35 13.03 94.5 14.17C90.65 15.3 85.14 17.07 82.25 18.11C78.27 19.54 77.09 20.42 77.37 21.75C77.57 22.71 78.24 24.51 78.87 25.75C79.49 26.99 80.9 28 82 28C83.3 28 84.09 28.75 84.25 30.14C84.39 31.32 85.51 32.67 86.75 33.14C88.77 33.91 89 33.7 89 31C89 29.35 89.45 28 90 28C90.55 28 92.01 29.11 93.25 30.46C94.49 31.81 96.29 32.94 97.25 32.96C98.21 32.98 99.22 32.55 99.5 32C99.78 31.45 103.04 30.51 106.75 29.91C110.46 29.31 115.75 28.97 118.5 29.16C122.83 29.45 123.53 29.8 123.75 31.75C123.92 33.25 124.67 34 126 34C127.33 34 128 34.67 128 36C128 37.56 128.67 38 131 38C133.33 38 134 38.44 134 40C134 41.1 134.79 42.26 135.75 42.57C136.71 42.89 138.29 43.56 139.25 44.07C140.56 44.77 142.2 44.2 145.75 41.84C149.21 39.54 151.86 38.6 155.5 38.41C158.35 38.25 161.57 38.72 163 39.5C164.38 40.25 166.74 42.02 168.25 43.43C169.76 44.85 171.26 47.24 171.59 48.75C171.91 50.26 172.25 51.9 172.34 52.4C172.43 52.89 173.85 53.47 175.5 53.68C177.15 53.9 179.63 54.16 181 54.26C182.38 54.37 184.96 54.13 186.75 53.73C189.6 53.09 190.52 53.47 194.17 56.75C196.47 58.81 200.99 64.1 204.22 68.5C207.45 72.9 210.86 78.18 211.79 80.22C212.8 82.43 214.22 83.96 215.25 83.97C216.21 83.99 217.39 82.99 217.86 81.75C218.54 79.99 219.84 79.34 223.86 78.75C227.03 78.29 229.19 77.42 229.5 76.5C229.78 75.67 228.59 72.41 226.88 69.25C225.16 66.09 221.61 60.58 218.98 57C216.35 53.42 210.45 46.88 205.85 42.46C201.26 38.04 194.8 32.59 191.5 30.35C188.2 28.1 181.79 24.41 177.25 22.13C172.71 19.86 165.51 16.85 161.25 15.45C156.99 14.04 150.13 12.28 146 11.53C141.88 10.78 134.9 9.97 130.5 9.73C126.1 9.49 120.7 9.45 118.5 9.65Z" />
		<path id="Path 2" class="shp2" d="M68.33 24.83C64.93 26.85 58.41 31.46 53.83 35.09C49.25 38.71 42.91 44.67 39.75 48.34C36.38 52.24 34.21 55.62 34.5 56.5C34.89 57.68 37.18 58.05 45.25 58.25C55.01 58.49 55.62 58.38 58 56C59.37 54.63 63.07 51.48 66.21 49C69.35 46.52 73.18 43.6 74.71 42.5C76.24 41.41 79.97 39.44 83 38.14C86.03 36.84 89.96 35.26 91.75 34.64C93.54 34.01 95 33.16 95 32.75C95 32.34 94.1 31.1 93 30C91.9 28.9 90.55 28 90 28C89.45 28 89 29.35 89 31C89 33.7 88.77 33.91 86.75 33.14C85.51 32.67 84.39 31.32 84.25 30.14C84.09 28.75 83.3 28 82 28C80.84 28 79.38 26.84 78.53 25.25C77.72 23.74 77.35 22.16 77.7 21.75C78.05 21.34 77.47 21.04 76.42 21.08C75.36 21.13 71.72 22.82 68.33 24.83Z" />
		<path id="Path 3" class="shp3" d="M105 30.2C102.53 30.75 100.05 31.55 99.5 31.98C98.95 32.42 96.92 33.11 95 33.54C93.08 33.96 88.58 35.62 85 37.22C81.42 38.83 78 40.45 77.4 40.82C76.79 41.2 74.54 42.7 72.4 44.18C70.25 45.65 67.15 47.96 65.5 49.31C62.8 51.52 62.65 51.93 64 53.43C64.83 54.34 66.29 55.07 67.25 55.04C68.64 55.01 68.96 55.76 68.82 58.75C68.73 60.81 68.73 63.74 68.82 65.25C68.97 67.47 69.53 68.05 71.75 68.25C73.77 68.43 74.57 69.1 74.75 70.75C74.89 72.04 75.86 73.21 77 73.5C78.33 73.83 79 74.83 79 76.5C79 78.33 79.53 79 81 79C82.33 79 83.17 79.83 83.5 81.5C83.88 83.4 84.48 83.88 86 83.5C87.4 83.15 87.99 82.18 87.98 80.25C87.96 77.69 88.16 77.55 90.98 78.25C93.84 78.96 94 78.84 94 76C94 73.6 94.5 72.9 96.5 72.5C97.88 72.22 99 71.33 99 70.5C99 69.67 99.9 68.78 101 68.5C102.67 68.08 103 67.17 103 63L103 58C108.87 59.46 109.05 59.33 109.14 56.5C109.19 54.85 109.16 52.83 109.07 52C108.98 51.17 109.38 49.26 109.96 47.75C110.53 46.24 111.67 45 112.5 45C113.5 45 114.04 43.92 114.12 41.75C114.18 39.96 114.12 38.05 113.98 37.5C113.83 36.95 113.43 34.92 113.09 33C112.73 30.98 111.84 29.44 110.98 29.35C110.17 29.26 107.47 29.64 105 30.2Z" />
		<path id="Path 4" class="shp2" d="M113.08 32.7C113.44 34.79 113.85 36.95 113.99 37.5C114.12 38.05 114.18 39.96 114.12 41.75C114.04 43.92 113.5 45 112.5 45C111.67 45 110.53 46.24 109.96 47.75C109.38 49.26 108.98 51.17 109.07 52C109.16 52.83 109.19 54.85 109.14 56.5C109.05 59.33 108.87 59.46 106.02 58.75L103 58C103 67.17 102.67 68.08 101 68.5C99.9 68.78 99 69.67 99 70.5C99 71.33 97.88 72.22 96.5 72.5C94.5 72.9 94 73.6 94 76C94 78.84 93.84 78.96 90.98 78.25C88.16 77.55 87.96 77.69 87.98 80.25C87.99 82.18 87.4 83.15 86 83.5C84.8 83.8 84.1 84.7 84.26 85.75C84.42 86.85 85.53 87.59 87.26 87.75C88.77 87.89 89.99 88.56 89.97 89.25C89.95 89.94 91.3 91.74 92.97 93.25C95.95 95.95 96.17 95.99 105.25 95.37C112.56 94.88 115.34 95.09 118.5 96.37L122.5 97.99C129.47 91.45 132.4 88.43 133.5 87.05C135.32 84.77 135.47 83.35 135.15 71.03C134.81 57.6 134.83 57.46 137.88 51.5C140.31 46.75 140.69 45.24 139.72 44.23C139.05 43.53 137.6 42.86 136.5 42.73C135.25 42.59 134.41 41.65 134.25 40.25C134.05 38.47 133.37 38 131 38C128.67 38 128 37.56 128 36C128 34.67 127.33 34 126 34C124.67 34 123.92 33.25 123.75 31.75C123.53 29.76 122.86 29.47 117.97 29.2L112.43 28.91L113.08 32.7Z" />
		<path id="Path 5" class="shp4" d="M153.41 40C153.79 41.3 153.39 42.37 152.25 43.07C150.78 43.96 150.91 44.05 153 43.58C154.38 43.28 157.07 42.99 159 42.95C162.33 42.87 162.39 42.81 160.22 41.68C158.96 41.03 157.95 39.94 157.97 39.25C157.99 38.56 156.83 38 155.41 38C153.28 38 152.92 38.36 153.41 40Z" />
		<path id="Path 6" class="shp0" d="M158.55 39C158.25 39.55 158.11 40.17 158.25 40.37C158.39 40.58 159.96 41.48 161.75 42.37C163.81 43.41 165.72 45.55 166.98 48.25C168.07 50.59 168.95 54.52 168.95 57C168.94 59.94 167.92 63.58 166 67.5C164.38 70.8 160.75 76.2 157.92 79.5C153.07 85.16 152.82 85.73 153.47 89.5C153.85 91.7 154.6 96.2 155.14 99.5C155.68 102.8 156.26 106.4 156.41 107.5C156.57 108.6 157.19 110.4 157.79 111.5C158.67 113.15 158.98 113.23 159.5 112C159.85 111.17 159.91 108.47 159.63 106C159.35 103.53 158.66 98.35 158.1 94.5L157.07 87.5C162.83 80.58 165.64 76.76 167.04 74.54C168.44 72.32 170.3 68.47 171.18 66C172.14 63.29 172.67 59.11 172.51 55.5C172.36 52.2 171.66 48.38 170.95 47C170.24 45.63 168.53 43.6 167.16 42.5C165.79 41.4 163.73 39.95 162.58 39.29C161.44 38.62 160.18 38.05 159.8 38.04C159.41 38.02 158.85 38.45 158.55 39ZM145.5 41.87C142.9 43.71 140.33 46.93 138.16 51.1L134.82 57.5C135.47 83.34 135.32 84.77 133.5 87.05C132.4 88.43 129.47 91.45 127 93.77L122.5 97.99C115.47 95.15 112.44 94.88 106 95.27C101.33 95.55 95.47 96.5 93 97.39C90.53 98.27 86.74 100.24 84.59 101.75C82.44 103.26 78.87 106.97 76.65 110C74.44 113.03 71.58 117.64 70.31 120.25C69.04 122.86 68 125.67 68 126.5C68 127.33 68.79 128 69.75 128C70.87 128 72.29 126.29 73.67 123.25C74.87 120.64 77.61 116.25 79.77 113.5C81.93 110.75 85.9 107.03 88.6 105.24C91.29 103.44 95.97 101.23 99 100.32C102.92 99.15 106.22 98.86 110.5 99.32C113.8 99.67 117.96 100.87 119.75 101.98L123 104L139.16 88.5C139.49 57.49 139.66 56.13 142.03 51.48C143.98 47.63 145.57 46.01 149.03 44.34C151.49 43.15 153.5 41.58 153.5 40.84C153.5 40.1 152.6 39.4 151.5 39.27C150.4 39.15 147.7 40.32 145.5 41.87ZM207.5 44C209.7 46.22 211.72 48.03 212 48.03C212.28 48.03 210.85 46.22 208.84 44.02C206.83 41.81 204.8 39.99 204.34 39.98C203.88 39.98 205.3 41.78 207.5 44Z" />
		<path id="Path 7" class="shp5" d="M151.07 44.36C149.19 45.06 147.05 46.62 146.32 47.82C145.14 49.76 145.27 50.22 147.5 52L150 54C153.8 50.13 155.83 49 156.95 49C158.08 49 159.69 50.01 160.54 51.25L162.08 53.5C165.3 49.22 165.58 48 164.92 46.75C164.41 45.79 162.54 44.54 160.75 43.98C158.96 43.42 156.82 42.99 156 43.02C155.18 43.05 152.96 43.65 151.07 44.36Z" />
		<path id="Path 8" class="shp3" d="M161.5 44.31C163.15 45.04 164.84 46.39 165.25 47.32C165.76 48.47 165.21 49.79 163.5 51.5L161 54C167.57 54 168.04 54.34 168.35 56.75C168.64 59.03 168.73 58.9 168.86 56C168.95 54.07 168 50.48 166.76 48C164.92 44.33 163.95 43.45 161.5 43.24L158.5 42.98L161.5 44.31Z" />
		<path id="Path 9" class="shp2" d="M144.86 47.25C143.24 49.04 141.26 52.41 140.46 54.75C139.65 57.09 139.34 59 139.75 59C140.16 58.99 141.4 56.89 142.5 54.33C143.6 51.76 146.03 48.39 147.89 46.83C150.35 44.78 150.8 44 149.54 44C148.59 44 146.48 45.46 144.86 47.25Z" />
		<path id="Path 10" class="shp1" d="M152.5 51.45C151.18 52.8 150.06 54.72 150.02 55.7C149.98 56.9 150.97 57.75 152.98 58.25C154.64 58.66 156.45 58.77 157 58.5C157.55 58.23 158 57.1 158 56C158 54.9 158.79 53.59 159.75 53.1C161.31 52.3 161.34 52.02 160 50.55C159.18 49.65 157.69 48.93 156.7 48.96C155.72 48.98 153.82 50.1 152.5 51.45Z" />
		<path id="Path 11" class="shp6" d="M142.65 53.5C141.74 55.42 141 57.45 141 58C141 58.55 142.8 59 145 59C148.47 59 149.07 58.67 149.5 56.5C149.85 54.73 149.34 53.42 147.75 52.03C146.51 50.95 145.23 50.05 144.9 50.03C144.57 50.01 143.55 51.58 142.65 53.5Z" />
		<path id="Path 12" class="shp7" d="M58.42 55.71C56.26 57.79 52.2 62.2 49.39 65.5C46.57 68.8 42.86 74.09 41.14 77.25C39.41 80.41 38.34 83.51 38.75 84.13C39.24 84.88 41.29 85.05 44.75 84.63C49.85 84.02 50 84.07 50 86.5C50 87.88 50.56 90.14 51.25 91.53C51.94 92.92 53.06 94.04 53.75 94.03C54.44 94.01 55 94.45 55 95C55 95.55 55.9 96.9 57 98C58.1 99.1 59.45 100.9 60 102C60.55 103.1 61.56 104 62.25 104.01C62.94 104.01 64.29 105.36 65.25 107.01C66.64 109.39 67.46 109.87 69.25 109.35C70.49 109 72.85 108.74 74.5 108.77C76.23 108.81 77.98 108.13 78.64 107.17C79.58 105.81 79.4 105.31 77.71 104.5C76.55 103.94 75.23 101.95 74.74 100C74.26 98.08 74.19 95.38 74.6 94C75 92.63 75.37 91.15 75.42 90.71C75.46 90.28 76 89.61 76.62 89.21C77.23 88.82 78.02 87.49 78.37 86.25C78.81 84.69 79.76 84 81.5 84C83.28 84 83.86 83.57 83.5 82.5C83.22 81.67 83 80.55 83 80C83 79.45 82.1 79 81 79C79.53 79 79 78.33 79 76.5C79 74.83 78.33 73.83 77 73.5C75.86 73.21 74.89 72.04 74.75 70.75C74.57 69.1 73.77 68.43 71.75 68.25C69.53 68.05 68.97 67.47 68.82 65.25C68.73 63.74 68.73 60.81 68.82 58.75C68.96 55.79 68.63 54.99 67.25 54.97C66.29 54.96 64.79 54.27 63.92 53.43C62.49 52.07 61.94 52.3 58.42 55.71Z" />
		<path id="Path 13" class="shp2" d="M158.52 53.65C158.05 54.02 157.74 55.16 157.83 56.17C157.93 57.17 157.55 58.23 157 58.5C156.45 58.77 154.43 58.55 152.5 58L149 57C149 72.67 149.43 77.22 150 77.5C150.55 77.78 152.71 75.41 154.79 72.25C156.88 69.09 159.39 64.47 160.38 62C161.36 59.52 162.02 56.64 161.83 55.58C161.65 54.53 161.02 53.51 160.43 53.31C159.85 53.12 158.98 53.27 158.52 53.65ZM173.05 55.16C172.36 56.45 172.05 58.4 172.37 59.5C172.7 60.6 172.2 63.52 171.27 66C170.34 68.47 168.44 72.32 167.04 74.54C165.64 76.76 162.81 80.58 160.75 83.04C157.26 87.19 157.05 87.8 157.75 91.79C158.48 95.94 158.6 96.06 161.5 95.4C163.15 95.03 165.29 94.22 166.25 93.61C167.34 92.92 168.01 91.26 168 89.25C168 86.58 168.54 85.78 171.01 84.75C173.82 83.58 174.02 83.15 174.01 78.25C174 73.55 174.23 72.97 176.24 72.75C177.57 72.6 178.63 71.69 178.86 70.5C179.06 69.4 179.62 68.28 180.1 68C180.58 67.72 180.41 66.06 179.73 64.3C179.05 62.54 178.87 60.74 179.33 60.3C179.79 59.86 183.17 59.42 186.83 59.31C190.5 59.21 193.87 58.76 194.32 58.31C194.77 57.87 193.98 56.49 192.57 55.25C190.51 53.45 189.35 53.15 186.75 53.73C184.96 54.13 182.38 54.41 181 54.36C179.63 54.3 177.56 53.93 176.4 53.54C174.8 52.98 174.01 53.36 173.05 55.16Z" />
		<path id="Path 14" class="shp5" d="M162 55C162 55.55 162.22 56.67 162.5 57.5C162.78 58.33 164.13 59 165.5 59C167.5 59 168 58.5 168 56.5C168 54.39 167.53 54 165 54C163.35 54 162 54.45 162 55Z" />
		<path id="Path 15" class="shp4" d="M30.49 59.7C28.88 61.79 25.67 67.1 23.34 71.5C21.02 75.9 18.91 80.63 18.66 82C18.41 83.38 17.19 87.65 15.94 91.5C14.7 95.35 13.64 99.69 13.59 101.15C13.54 102.61 13.16 103.62 12.75 103.4C12.34 103.18 11.79 104.24 11.53 105.75C11.28 107.26 10.83 110.19 10.53 112.25C10.03 115.8 10.2 116.1 13.75 117.75C15.81 118.72 18.64 120.63 20.04 122C21.43 123.38 22.89 125.74 23.29 127.25C23.76 129.1 24.66 130 26 130C27.78 130 28 129.33 28 124C28 118.13 27.94 118.01 25.5 118.5C23.01 119 23 118.98 23.64 113.25C23.99 110.09 24.66 106.71 25.14 105.75C25.66 104.69 25.6 103.8 25 103.5C24.45 103.22 24 102.1 24 101C24 99.67 24.75 98.92 26.25 98.75C27.75 98.58 28.58 97.75 28.75 96.25C28.92 94.75 29.67 94 31 94C32.55 94 34.09 91.71 37.87 83.75C40.77 77.65 45.02 70.76 48.37 66.75C51.47 63.04 54 59.55 54 59C54 58.4 50.26 58.01 44.75 58.02C39.52 58.03 35.05 57.57 34.45 56.97C33.72 56.22 32.54 57.04 30.49 59.7Z" />
		<path id="Path 16" class="shp6" d="M160.28 62.09C159.06 65.07 158.28 67.84 158.53 68.25C158.79 68.66 160.57 69 162.5 69C164.43 69 166 68.55 166 68C166 67.45 165.37 66.44 164.61 65.75C163.85 65.06 163.06 62.74 162.86 60.59L162.5 56.68L160.28 62.09Z" />
		<path id="Path 17" class="shp3" d="M193.73 58.63C193.4 58.97 190.21 59.31 186.65 59.38C183.08 59.44 179.79 59.86 179.33 60.3C178.87 60.74 179.05 62.54 179.73 64.3C180.41 66.06 180.58 67.72 180.1 68C179.62 68.28 179.06 69.4 178.86 70.5C178.63 71.69 177.57 72.6 176.24 72.75C174.23 72.97 174 73.55 174.01 78.25C174.02 83.15 173.82 83.58 171.01 84.75C168.54 85.78 168 86.58 168 89.25C168.01 91.26 167.34 92.92 166.25 93.61C165.29 94.22 163.04 95.01 161.25 95.36C158.32 95.94 158.06 96.27 158.6 98.75C158.93 100.26 159.43 103.97 159.7 107C159.97 110.03 160.55 112.95 160.97 113.5C161.4 114.05 162.03 116.64 162.37 119.25C162.92 123.36 162.73 124.14 161 125C159.67 125.67 159 125.67 159 125C159 124.45 158.66 124 158.25 124C157.84 124 157.69 125.92 157.93 128.25C158.17 130.59 158.51 131.71 158.68 130.75C158.87 129.74 159.74 129.11 160.75 129.26C161.94 129.43 162.58 130.56 162.75 132.76C162.97 135.59 163.28 135.92 165.25 135.39C166.49 135.05 167.93 134.38 168.45 133.89C168.97 133.4 170.21 133 171.2 133C172.33 133 173.09 132.16 173.25 130.75C173.43 129.1 174.23 128.43 176.25 128.25C178.96 128 179.01 127.88 179.53 119.75C179.97 112.82 180.45 111.06 182.53 108.75C184 107.12 185 104.78 185 103C185 100.81 185.47 100 186.75 100.01C188.2 100.02 188.63 98.72 189.25 92.51C189.66 88.38 189.78 84.55 189.5 84C189.22 83.45 189.22 80.97 189.5 78.5C189.88 75.07 190.48 73.88 192 73.5C193.41 73.15 193.85 72.41 193.5 71C193.12 69.48 193.6 68.88 195.5 68.5C196.88 68.22 198 67.33 198 66.5C198 65.67 198.69 64.66 199.53 64.25C200.8 63.63 200.59 63.03 198.28 60.73C196.75 59.2 195.24 57.97 194.92 57.98C194.6 57.99 194.06 58.28 193.73 58.63Z" />
		<path id="Path 18" class="shp8" d="M139.14 69.25C139.21 74.89 139.44 78.49 139.64 77.25C139.84 76.01 140.9 74.78 142 74.5C143.33 74.17 144 73.17 144 71.5C144 69.83 143.33 68.83 142 68.5C140.67 68.17 140 67.17 140 65.5C140 63.5 140.5 63 142.5 63C144.5 63 144.9 62.6 144.5 61C144.17 59.67 143.17 59 141.5 59L139 59L139.14 69.25Z" />
		<path id="Path 19" class="shp9" d="M144.17 64C144.04 67.7 144.41 69.19 145.59 69.75C146.58 70.22 147.51 69.94 148.07 69C148.57 68.17 148.98 65.59 148.98 63.25C149 59.46 148.75 59 146.67 59C144.56 59 144.32 59.48 144.17 64Z" />
		<path id="Path 20" class="shp8" d="M163 61.5C163 62.88 163.68 64.67 164.5 65.5C165.32 66.33 166.13 66.89 166.3 66.75C166.46 66.61 167.14 65.26 167.8 63.75C168.46 62.24 169 60.55 169 60C169 59.45 167.65 59 166 59C163.47 59 163 59.39 163 61.5Z" />
		<path id="Path 21" class="shp6" d="M140 65.5C140 67.17 140.67 68.17 142 68.5C143.33 68.83 144 69.83 144 71.5C144 73.57 144.43 73.96 146.5 73.75C148.57 73.54 149 72.97 148.99 70.5C148.97 68.28 148.74 67.89 148.07 69C147.51 69.94 146.58 70.22 145.59 69.75C144.56 69.26 144.09 67.95 144.25 66.01C144.46 63.51 144.14 63.02 142.25 63.01C140.51 63 140 63.57 140 65.5Z" />
		<path id="Path 22" class="shp8" d="M198.17 65.99C197.8 67.08 196.49 68.21 195.25 68.49C193.59 68.87 193.13 69.53 193.5 71C193.85 72.41 193.41 73.15 192 73.5C190.48 73.88 189.88 75.07 189.5 78.5C189.22 80.97 189.22 83.45 189.5 84C189.78 84.55 189.66 88.38 189.25 92.51C188.63 98.72 188.2 100.02 186.75 100.01C185.47 100 185 100.81 185 103C185 104.78 184 107.12 182.53 108.75C180.45 111.06 179.97 112.82 179.53 119.75C179.01 127.88 178.96 128 176.25 128.25C174.23 128.43 173.43 129.1 173.25 130.75C173.11 131.99 172.44 133.01 171.75 133.02C171.06 133.03 168.82 133.81 166.76 134.77C164.55 135.79 162.91 137.31 162.74 138.5C162.58 139.6 162.76 142.3 163.14 144.5C163.6 147.14 163.43 148.74 162.66 149.22C162.02 149.62 160.82 150.37 160 150.89C158.67 151.74 158.67 152.02 160 153.47C160.82 154.36 162.06 155.07 162.75 155.04C163.44 155.02 163.88 155.79 163.74 156.75C163.6 157.72 162.48 158.61 161.24 158.75C159.51 158.94 159.06 159.56 159.25 161.48C159.39 162.84 159.28 163.97 159 163.98C158.72 164 158.41 165.92 158.31 168.25C158.2 170.59 158.31 174.86 158.56 177.75C158.91 181.96 159.4 183.1 161 183.5C162.43 183.86 163.05 184.92 163.18 187.25C163.28 189.04 163.29 191.63 163.19 193C163.04 195.15 163.62 195.66 167.26 196.63L171.5 197.76C164.46 197.99 163.95 198.34 163.6 200.75C163.38 202.26 163.43 204.85 163.72 206.5C164.1 208.66 163.79 209.71 162.62 210.25C161.64 210.71 160.41 210.41 159.5 209.5C158.68 208.68 157.1 208.22 156 208.5C154.56 208.86 154 209.83 154 212C154 213.65 153.55 215 153 215C152.45 215 151.11 216.01 150.03 217.25C148.95 218.49 148.05 220.74 148.03 222.25C148 224.93 148.08 224.97 151.09 223.75C153.37 222.83 154.03 222.04 153.59 220.75C153.19 219.57 153.57 218.9 154.75 218.69C155.71 218.52 157.97 219.08 159.77 219.94C161.57 220.8 163.03 222.06 163.02 222.75C163.01 223.44 163.9 224 165 224C166.17 224 167.21 224.83 167.5 226C167.79 227.17 168.83 228 170 228C171.33 228 172.08 227.25 172.25 225.75C172.42 224.25 173.25 223.42 174.75 223.25C176.27 223.08 177.4 223.78 178.25 225.43C179.04 226.95 180.06 227.64 181 227.28C181.82 226.96 185.2 224.91 188.5 222.71C191.8 220.52 197.62 216.2 201.43 213.11C205.25 210.03 211.17 203.9 214.59 199.5C220.1 192.41 220.67 191.25 219.65 189.33C218.72 187.58 218.97 185.74 221 179.62C223.37 172.46 223.57 172.19 224.89 174.29C225.73 175.63 226.03 177.58 225.64 179.25C225.19 181.19 225.37 181.9 226.25 181.67C226.94 181.49 229.79 176.21 232.59 169.92C235.4 163.64 238.71 155.57 239.96 152C241.67 147.1 242.32 142.68 242.59 134C242.83 126.61 242.64 123.39 242.08 125L241.2 127.5C240.77 122.63 240.72 122.66 240 125.5C239.3 128.24 239.23 128.11 239.12 124C239.03 120.45 238.63 119.49 237.25 119.43C236.29 119.39 234.49 119.06 233.25 118.68C231.48 118.15 230.73 118.53 229.75 120.51C229.01 121.99 227.38 123.22 225.75 123.51C223.16 123.97 223.01 124.28 223.25 128.75C223.5 133.45 223.53 133.5 226.75 133.25C229.8 133.02 230 133.2 229.99 136.25C229.98 138.04 229.75 140.51 229.49 141.75C229.22 142.99 228.32 144 227.5 144C226.57 144 226 144.94 226 146.5C226 148.56 225.52 149 223.25 148.99C220.68 148.99 220.32 149.54 217.75 157.49C216.24 162.17 213.36 168.81 211.36 172.25C209.35 175.69 206.31 180.65 204.61 183.28C202.9 185.91 201.16 188.04 200.75 188.03C200.34 188.01 199.79 188.79 199.54 189.75C199.29 190.71 197.94 192.06 196.54 192.75C194.14 193.93 193.99 193.84 193.82 191.25C193.72 189.74 193.69 187.38 193.77 186C193.88 183.84 193.56 183.57 191.36 184C189.4 184.39 188.9 185.01 189.16 186.73C189.36 188.02 188.97 188.97 188.25 188.98C187.56 188.99 186.32 188.78 185.5 188.5C184.58 188.19 184.19 187.23 184.5 186C184.78 184.9 185.68 184 186.5 184C187.32 184 188.19 183.21 188.42 182.25C188.65 181.29 189.13 178.03 189.49 175C190.12 169.71 190.04 169.47 187.57 168.75C185.92 168.27 185 167.29 185 166C185 164.9 185.9 163.44 187 162.75C188.11 162.06 189.01 160.94 189 160.25C189 159.56 190.01 158.79 191.25 158.54L193.5 158.09L193.5 112.91C196.99 113.75 198.06 113.66 198.14 113.25C198.21 112.84 198.41 108 198.58 102.5C198.75 97 199.14 91.94 199.44 91.25C199.75 90.56 199.44 87.53 198.75 84.51C197.74 80.09 197.75 78.77 198.77 77.76C199.46 77.07 200.03 75.94 200.02 75.25C200.01 74.56 201.16 72.99 202.58 71.75L205.16 69.5C201.94 65.24 200.52 64 199.92 64C199.33 64 198.54 64.9 198.17 65.99Z" />
		<path id="Path 23" class="shp9" d="M156.2 70C155.54 71.1 155.11 72.16 155.25 72.36C155.39 72.57 156.51 73.24 157.75 73.86C159.49 74.74 160 74.72 159.99 73.75C159.98 73.06 159.82 71.49 159.64 70.25C159.46 69.01 158.88 68 158.36 68C157.83 68 156.86 68.9 156.2 70Z" />
		<path id="Path 24" class="shp8" d="M159.34 70.5C159.7 71.33 160.02 73.01 160.04 74.25C160.07 76.39 160.2 76.35 162.53 73.5C163.88 71.85 164.99 70.16 165 69.75C165 69.34 163.58 69 161.84 69C159.41 69 158.84 69.34 159.34 70.5Z" />
		<path id="Path 25" class="shp6" d="M202.25 72.03C201.01 73.11 200.01 74.56 200.02 75.25C200.03 75.94 199.54 76.95 198.93 77.5C198.25 78.12 198.08 80.02 198.49 82.5L199.16 86.5C202.1 82.63 202.97 80.94 202.98 80.25C202.99 79.56 203.34 79.07 203.75 79.16C204.16 79.25 205.74 79.03 207.25 78.66C208.76 78.3 209.99 77.66 209.98 77.25C209.97 76.84 208.96 75.04 207.73 73.26C206.5 71.47 205.28 70.03 205 70.04C204.72 70.05 203.49 70.95 202.25 72.03Z" />
		<path id="Path 26" class="shp9" d="M143.52 74.2C141.04 74.83 139.63 75.72 139.77 76.6C139.9 77.37 141.35 78.45 143 79C145.57 79.86 145.86 80.29 145 82C144.45 83.1 143.21 83.99 142.25 83.98C141.08 83.96 140.25 85.05 139.75 87.23C139.31 89.16 139.42 90.91 140.02 91.5C140.58 92.05 141.03 93.06 141.02 93.75C141 94.69 140.2 94.76 137.75 94.03C135.42 93.34 134.08 93.41 133 94.28C132.18 94.95 129.93 97.08 128 99L124.5 102.5L129.06 107.5C138.27 98.2 141.15 95.72 141.39 96C141.64 96.28 142.55 101.22 143.41 107C144.27 112.78 144.99 118.85 144.99 120.5C145 122.83 145.45 123.5 147 123.5C148.52 123.5 149 122.83 149 120.75C149 119.24 149.45 117.1 150 116C150.55 114.9 151.48 114 152.07 114C152.66 114 153.73 113.44 154.45 112.75C155.53 111.72 155.41 109.46 153.76 100C152.66 93.67 151.37 88.39 150.88 88.25C150.4 88.11 150 87.33 150 86.5C150 85.67 150.79 85.01 151.75 85.03C152.71 85.04 154.18 83.87 155 82.43C156.38 80.01 156.35 79.69 154.5 78.38C153.4 77.59 151.94 77.19 151.25 77.48C150.55 77.77 149.56 76.9 149 75.5C148.45 74.13 147.89 73.05 147.75 73.1C147.61 73.16 145.71 73.65 143.52 74.2Z" />
		<path id="Path 27" class="shp6" d="M152.86 74.51C151.69 75.81 151.89 76.38 154.25 78.51C156.84 80.86 157.08 80.9 158.47 79.25C159.29 78.29 159.96 76.94 159.97 76.25C159.99 75.56 159.1 74.55 158 74C156.9 73.45 155.6 73 155.11 73C154.62 73 153.61 73.68 152.86 74.51Z" />
		<path id="Path 28" class="shp2" d="M224.12 78.4C220.04 79.23 218.53 80.04 217.87 81.75C217.39 82.99 216.32 84 215.5 84C214.24 84 214.18 84.52 215.15 87.25C215.77 89.04 216.62 90.95 217.03 91.5C217.44 92.05 218.05 93.96 218.38 95.75C218.72 97.54 219.56 98.99 220.25 98.98C220.94 98.98 222.01 98.64 222.63 98.23C223.26 97.83 223.94 96.6 224.14 95.5C224.46 93.81 225.42 93.46 230.26 93.25C234.99 93.04 235.99 92.69 235.95 91.25C235.92 90.29 234.86 86.8 233.58 83.5C232.31 80.2 230.87 77.45 230.39 77.4C229.9 77.34 227.08 77.79 224.12 78.4Z" />
		<path id="Path 29" class="shp6" d="M139.35 78.75C138.97 79.07 138.75 80.5 138.85 81.92C139.01 84.13 139.41 84.43 141.64 84C143.08 83.72 144.64 82.71 145.12 81.75C145.83 80.34 145.42 79.82 143.02 79.08C141.38 78.58 139.73 78.43 139.35 78.75Z" />
		<path id="Path 30" class="shp9" d="M206 78.95C205.18 79.45 204.16 79.67 203.75 79.43C203.34 79.2 203 79.45 203 80C203 80.55 202.1 82.35 201 84L199 87C205.97 97.08 208.34 99.74 208.75 99.41C209.16 99.09 209.61 96.95 209.75 94.66C209.9 92.06 210.65 90.02 211.75 89.23C212.71 88.53 213.95 87.83 214.5 87.67C215.06 87.51 214.5 85.3 213.25 82.69C211.83 79.73 210.36 78.01 209.25 78.02C208.29 78.02 206.82 78.44 206 78.95Z" />
		<path id="Path 31" class="shp0" d="M17.62 83.75C17.36 84.16 15.58 88.55 13.65 93.5C11.56 98.89 9.67 106.11 8.94 111.5C8.21 116.94 7.97 125.04 8.33 132C8.7 139.09 9.73 146.18 11.01 150.5C12.16 154.35 13.33 157.28 13.62 157C13.91 156.72 13.69 154.93 13.13 153C12.58 151.07 11.59 146.13 10.95 142C10.23 137.38 9.99 129.31 10.34 121C10.65 113.58 11.15 106.49 11.45 105.25C11.75 104.01 12.34 103.18 12.75 103.4C13.16 103.62 13.58 102.38 13.68 100.65C13.78 98.92 14.93 94.24 16.25 90.25C17.56 86.26 18.52 83 18.37 83C18.22 83 17.88 83.34 17.62 83.75Z" />
		<path id="Path 32" class="shp10" d="M35.05 89.29C33.93 92.16 32.16 97.88 31.11 102C30.07 106.13 29.05 111.27 28.86 113.44C28.54 116.96 28.77 117.45 31 117.98C33.23 118.52 33.53 119.15 33.75 123.79L34 129C42.83 129 43 128.89 43 126C43 124.35 43.45 122.78 44 122.5C44.55 122.22 45.9 122.56 47 123.25C48.1 123.94 48.76 124.72 48.47 125C48.19 125.28 48.53 127.41 49.23 129.75C50.17 132.91 51.02 134.01 52.5 134.01C54.3 134.02 54.45 134.52 54 139.02L53.5 144.02C58.54 144.01 60.67 144.22 61.5 144.5C62.62 144.87 63.31 143.64 64.25 139.59C65.36 134.78 65.72 134.27 67.5 134.99C69.22 135.69 69.64 135.26 70.5 131.93C71.38 128.53 71.29 128.05 69.75 128.03C68.79 128.01 68 127.33 68 126.5C68 125.67 69.17 122.64 70.6 119.75C72.03 116.86 74.09 113.38 75.17 112C77.06 109.61 77.06 109.47 75.32 108.9C74.32 108.56 72.15 108.66 70.5 109.11C68.49 109.66 67.07 109.53 66.19 108.72C65.48 108.05 64.69 106.71 64.44 105.75C64.2 104.79 63.33 104 62.5 104C61.67 104 60.44 102.86 59.75 101.48C59.06 100.09 57.94 98.74 57.25 98.48C56.56 98.21 55.77 98.45 55.5 99C55.23 99.55 53.88 100 52.5 100C50.39 100 50 99.53 50 97C50 94.67 49.56 94 48 94C46.48 94 46 93.34 46.02 91.25C46.03 89.74 45.46 87.77 44.77 86.87C44.07 85.98 42.06 84.99 40.3 84.67C37.21 84.11 37.02 84.27 35.05 89.29Z" />
		<path id="Path 33" class="shp11" d="M44.61 84.75C44.35 85.16 44.55 86.17 45.05 87C45.56 87.83 45.98 89.74 45.98 91.25C46 93.33 46.49 94 48 94C49.56 94 50 94.67 50 97C50 99.53 50.39 100 52.5 100C53.88 100 55.23 99.55 55.5 99C55.77 98.45 55.77 97.1 55.5 96C55.23 94.9 54.44 94.01 53.75 94.03C53.06 94.04 51.94 92.92 51.25 91.53C50.56 90.14 50 87.88 50 86.5C50 84.51 49.5 84 47.55 84C46.2 84 44.88 84.34 44.61 84.75Z" />
		<path id="Path 34" class="shp4" d="M78.42 86.25C78.04 87.49 77.23 88.83 76.62 89.23C76 89.63 75.32 90.75 75.1 91.73C74.88 92.7 74.65 95.34 74.6 97.58C74.54 99.91 75.14 102.4 76 103.38C76.83 104.32 78.06 105.07 78.75 105.04C79.44 105.02 81.91 103.64 84.25 101.99C86.59 100.33 90.3 98.37 92.5 97.63L96.5 96.29C91.42 91.8 89.95 89.94 89.97 89.25C89.99 88.56 88.88 88 87.5 88C85.83 88 84.83 87.33 84.5 86C84.17 84.68 83.17 84 81.55 84C79.89 84 78.89 84.72 78.42 86.25Z" />
		<path id="Path 35" class="shp3" d="M150 86.5C150 87.33 150.41 88.11 150.92 88.25C151.43 88.39 153.05 95.7 154.52 104.5C155.99 113.3 157.42 120.72 157.7 121C157.97 121.28 157.98 119.03 157.71 116C157.45 112.97 156.98 109.38 156.68 108C156.37 106.63 155.68 102.8 155.14 99.5C154.6 96.2 153.96 91.59 153.7 89.25C153.37 86.19 152.79 85 151.62 85C150.73 85 150 85.67 150 86.5Z" />
		<path id="Path 36" class="shp12" d="M211.75 89.25C210.64 90.07 209.91 92.38 209.62 96C209.2 101.18 209.39 101.75 212.84 105.73L216.5 109.96C218.82 106.1 219.85 105.32 220.28 105.74C220.71 106.16 221.04 105.83 221.01 105C220.99 104.17 220.07 100.8 218.96 97.5C217.85 94.2 216.74 90.71 216.48 89.75C216.21 88.79 215.43 88 214.72 88C214.02 88 212.69 88.56 211.75 89.25Z" />
		<path id="Path 37" class="shp6" d="M136.38 91C134.62 92.86 134.61 93.02 136.25 93.49C137.21 93.77 138.68 94.22 139.5 94.5C140.32 94.78 140.99 94.44 140.97 93.75C140.95 93.06 140.34 91.72 139.6 90.76C138.34 89.12 138.16 89.13 136.38 91ZM199.61 91.19C199.25 92.46 198.78 95.3 198.58 97.5C198.38 99.7 198.5 102.02 198.85 102.65C199.21 103.28 200.63 103.93 202 104.08C203.38 104.24 205.51 104.06 206.75 103.69C207.99 103.31 209.11 102.55 209.23 102C209.36 101.45 207.4 98.28 204.87 94.94C200.63 89.34 200.23 89.05 199.61 91.19Z" />
		<path id="Path 38" class="shp4" d="M236.42 92C236.82 93.38 237.62 96.3 238.21 98.5C238.8 100.7 239.67 102.95 240.15 103.5C240.71 104.14 241.03 103.95 241.02 103C241.01 102.17 240.06 99.03 238.91 96C237.76 92.97 236.57 90.28 236.26 90C235.96 89.72 236.03 90.63 236.42 92Z" />
		<path id="Path 39" class="shp3" d="M224.5 93.67C224.04 94.03 223.74 95.16 223.83 96.17C223.93 97.25 223.19 98.2 222 98.5C220.52 98.87 220.13 99.59 220.52 101.25C220.8 102.49 221.59 108.14 222.27 113.8C223.5 124.06 223.51 124.1 226 123.48C227.38 123.13 228.6 122.55 228.73 122.18C228.86 121.8 229.53 120.69 230.23 119.69C231.28 118.2 231.97 118.07 234.25 118.94C235.76 119.53 237.45 119.78 238 119.5C238.59 119.21 239.06 120.96 239.15 123.75C239.26 127.38 239.42 127.79 239.8 125.5C240.29 122.51 240.3 122.51 241.01 125C241.62 127.13 241.86 126.73 242.62 122.32C243.1 119.47 243.84 117.34 244.25 117.57C244.66 117.81 244.55 117.1 244 116C243.45 114.9 243 113.1 243 112C243 110.9 242.44 109.78 241.75 109.51C241.06 109.23 240.17 107.1 239.77 104.76C239.37 102.42 238.58 98.81 238.02 96.75L237 93C227.96 93 224.96 93.3 224.5 93.67Z" />
		<path id="Path 40" class="shp0" d="M28.81 96.25C28.61 97.73 27.73 98.59 26.25 98.75C24.75 98.92 24 99.67 24 101C24 102.1 24.45 103.22 25 103.5C25.6 103.8 25.66 104.69 25.14 105.75C24.66 106.71 23.99 110.09 23.64 113.25C23.02 118.86 23.06 118.98 25.25 118.38C26.49 118.03 27.58 117.69 27.67 117.63C27.77 117.56 28.76 113.22 29.87 108C30.98 102.78 32.14 97.49 32.45 96.25C32.88 94.5 32.57 94 31.06 94C29.81 94 29.01 94.8 28.81 96.25Z" />
		<path id="Path 41" class="shp3" d="M139.11 97.5C138.5 98.33 138.29 99.56 138.64 100.25C138.99 100.94 139.33 104.54 139.39 108.26C139.48 113.92 139.26 114.91 138 114.36C137.18 113.99 134.93 113.46 133 113.18C129.84 112.72 129.58 112.85 130.36 114.58C130.83 115.64 131.45 118.3 131.72 120.5C132 122.7 131.72 127.09 131.11 130.25C130.46 133.62 128.97 137.24 127.5 139C126.13 140.65 124.99 142.34 124.98 142.75C124.97 143.16 126.76 144.85 128.96 146.5C131.52 148.42 132.96 150.31 132.98 151.75C132.99 153.36 132.29 154.14 130.5 154.5C128.02 155 128 155.08 128.25 164.5C128.49 173.76 128.44 174 126.25 174C124.52 174 124 174.57 124 176.5C124 177.88 124.34 179.01 124.75 179.03C125.16 179.05 127.58 177.14 130.12 174.78C132.66 172.43 135.67 169.15 136.81 167.5C137.95 165.85 139.97 161.35 141.31 157.5C142.64 153.65 144.33 146.45 145.04 141.5C146.09 134.26 146.11 130.25 145.13 121C144.46 114.67 143.49 106.46 142.97 102.75C142.45 99.04 141.62 96 141.13 96C140.63 96 139.72 96.67 139.11 97.5Z" />
		<path id="Path 42" class="shp12" d="M98 100.45C95.17 101.52 94.56 102.23 94.84 104.14C95.02 105.44 95.58 106.95 96.07 107.5C96.67 108.16 97.82 108.08 99.49 107.25C100.87 106.56 104.25 106 107 106C109.75 106 113.13 106.45 114.5 107C115.88 107.55 116.99 108.56 116.98 109.25C116.97 109.94 115.11 112.08 112.84 114C109.33 116.99 108.82 117.9 109.37 120.25C109.71 121.76 110.56 122.99 111.25 122.99C111.94 122.98 114.3 121.13 116.5 118.88C118.75 116.57 121.05 115.05 121.75 115.39C122.49 115.75 122.99 117.93 122.98 120.75C122.97 123.36 122.45 127.08 121.82 129C120.8 132.13 120.93 132.84 123.09 135.69C124.41 137.45 126.06 138.91 126.75 138.94C127.44 138.98 128.68 137.43 129.5 135.5C130.32 133.57 131.29 129.41 131.64 126.25C132.12 121.93 131.81 119.13 130.4 115C129.37 111.97 128.5 109.05 128.47 108.5C128.43 107.95 127.87 106.49 127.2 105.25C126.5 103.93 125.38 103.21 124.5 103.5C123.67 103.78 121.31 103.01 119.25 101.8C116.52 100.2 113.59 99.53 108.5 99.36C104.49 99.22 100 99.69 98 100.45Z" />
		<path id="Path 43" class="shp2" d="M132.61 103.76C128.37 107.96 127.95 108.76 128.91 110.75C129.64 112.25 131.08 113.12 133.25 113.35C135.04 113.54 137.18 113.99 138 114.36C139.27 114.91 139.47 113.89 139.28 107.76C139.15 103.77 138.68 100.17 138.23 99.76C137.77 99.35 135.25 101.15 132.61 103.76Z" />
		<path id="Path 44" class="shp9" d="M88.86 104.92C86.46 106.5 82.9 109.75 80.94 112.15C78.98 114.54 76.44 118.08 75.29 120C74.14 121.92 72.24 126.65 71.08 130.5C69.91 134.35 68.97 137.84 68.98 138.25C68.99 138.66 70.54 139.11 72.42 139.25C75.75 139.49 75.86 139.38 76.55 135C76.94 132.53 78.54 128.03 80.11 125C81.67 121.97 84.65 117.67 86.73 115.44C88.8 113.2 91.63 110.62 93 109.7C94.92 108.42 95.38 107.42 95 105.4C94.72 103.94 94.21 102.59 93.86 102.4C93.51 102.21 91.26 103.34 88.86 104.92Z" />
		<path id="Path 45" class="shp5" d="M207.45 103.26C206.38 103.87 204.04 104.29 202.25 104.19C199.36 104.02 198.98 104.3 198.85 106.75C198.76 108.26 198.59 109.95 198.46 110.5C198.34 111.05 198.18 112.06 198.12 112.75C198.04 113.53 197.15 113.79 195.75 113.45L193.5 112.91L193.5 158.09C190.01 158.79 189 159.56 189 160.25C189.01 160.94 188.11 162.06 187 162.75C185.9 163.44 185 164.9 185 166C185 167.29 185.92 168.27 187.57 168.75C190.04 169.47 190.12 169.71 189.49 175C189.13 178.03 188.65 181.29 188.42 182.25C188.19 183.21 187.32 184 186.5 184C185.68 184 184.78 184.9 184.5 186C184.19 187.23 184.58 188.19 185.5 188.5C186.32 188.78 187.56 188.99 188.25 188.98C188.97 188.97 189.36 188.02 189.16 186.73C188.9 185.01 189.4 184.39 191.36 184C193.56 183.57 193.88 183.84 193.77 186C193.69 187.38 193.72 189.74 193.82 191.25C193.99 193.84 194.14 193.93 196.54 192.75C197.94 192.06 199.29 190.71 199.54 189.75C199.79 188.79 200.34 188.01 200.75 188.03C201.16 188.04 202.9 185.91 204.61 183.28C206.31 180.65 209.28 175.8 211.19 172.5C213.1 169.2 215.64 163.69 216.83 160.25C218.02 156.81 219 153.78 219 153.5C219 153.22 218.66 153.09 218.25 153.2C217.84 153.31 216.38 153.02 215 152.57C212.62 151.78 212.54 151.48 213.25 146.62C213.67 143.8 214.37 138.35 214.82 134.5C215.31 130.33 215.21 123.13 214.57 116.67C213.7 107.88 213.12 105.5 211.45 103.99C209.81 102.5 209.01 102.36 207.45 103.26Z" />
		<path id="Path 46" class="shp7" d="M240 106.5C240 107.88 240.45 109 241 109C241.55 109 242 107.88 242 106.5C242 105.13 241.55 104 241 104C240.45 104 240 105.13 240 106.5Z" />
		<path id="Path 47" class="shp13" d="M218.17 107.05C217.52 108.12 217 109.67 217 110.5C217 111.33 218.11 113.24 219.47 114.75L221.94 117.5C222.39 108.62 222.05 106.96 220.9 106.17C219.69 105.34 219.07 105.54 218.17 107.05Z" />
		<path id="Path 48" class="shp2" d="M100.05 106.66C99.25 106.94 98.69 107.58 98.8 108.08C98.91 108.59 100.13 109 101.5 109C103.33 109 104 109.53 104 111C104 112.1 104.54 114.69 105.21 116.75L106.41 120.5C112.34 114.3 114.04 112.16 114.03 111.75C114.01 111.34 113.1 110.44 112 109.75C110.89 109.06 109.99 107.94 110 107.25C110 106.43 108.53 106.03 105.75 106.08C103.41 106.12 100.85 106.38 100.05 106.66Z" />
		<path id="Path 49" class="shp3" d="M110.03 107.25C110.05 107.94 111.17 109.29 112.53 110.25C113.89 111.21 115.45 111.78 116 111.5C116.55 111.22 117 110.33 117 109.5C117 108.67 115.88 107.55 114.5 107C113.13 106.45 111.55 106 111 106C110.45 106 110.01 106.56 110.03 107.25Z" />
		<path id="Path 50" class="shp4" d="M92.37 110.19C90.64 111.46 87.85 114.08 86.16 116C84.47 117.92 82.17 121.19 81.04 123.25C79.92 125.31 79.34 126.99 79.75 126.98C80.16 126.96 81.06 128.76 81.75 130.98C82.77 134.27 83.45 135 85.5 135C87.2 135 88.4 135.83 89.25 137.59L90.5 140.18C95.07 134.23 98.59 130.03 101.28 127C105.51 122.23 106.07 121.1 105.51 118.5C105.15 116.85 104.61 114.04 104.32 112.25C104.02 110.46 103.27 109.01 102.64 109.01C102.01 109.02 100.15 108.77 98.5 108.45C96.3 108.03 94.66 108.5 92.37 110.19Z" />
		<path id="Path 51" class="shp9" d="M214.63 115.12C215.01 119.18 215.24 125.88 215.16 130L215.01 137.5C221.28 138.69 222.75 138.53 223.28 137.71C223.7 137.05 223.81 135.15 223.51 133.5C223.22 131.85 222.98 127.91 222.99 124.75C223 119.5 222.83 119.04 221 119.5C219.83 119.79 218.95 119.48 218.88 118.75C218.82 118.06 218.82 116.94 218.88 116.25C218.95 115.56 218.32 113.65 217.5 112C216.68 110.35 215.54 108.72 214.98 108.37C214.3 107.95 214.18 110.19 214.63 115.12Z" />
		<path id="Path 52" class="shp12" d="M154 113C154 113.55 153.21 114 152.25 114C151.29 114 150.16 114.9 149.75 116C149.34 117.1 149 119.35 149 121C149 123.22 148.61 123.87 147.5 123.5C146.27 123.09 146 124.2 145.99 129.75C145.99 133.46 145.5 139.43 144.92 143C144.33 146.57 142.76 152.99 141.42 157.25C140.09 161.51 138.55 165.22 138 165.5C137.45 165.78 137 166.68 137 167.5C137 168.66 137.73 168.85 140.25 168.34C142.04 167.97 144.74 167.74 146.25 167.84C148.65 167.98 149.31 167.33 151.4 162.75C152.73 159.86 154.61 154.8 155.59 151.5C156.8 147.43 157.39 141.97 157.44 134.5C157.47 128.45 157.19 120.91 156.81 117.75C156.43 114.59 155.64 112 155.06 112C154.48 112 154 112.45 154 113Z" />
		<path id="Path 53" class="shp10" d="M158.52 113.2C158.09 113.92 158.07 116.08 158.46 118C159.14 121.34 159.24 121.41 160.6 119.5C161.39 118.4 162.13 116.77 162.25 115.87C162.37 114.98 161.75 113.72 160.88 113.07C159.65 112.17 159.11 112.2 158.52 113.2Z" />
		<path id="Path 54" class="shp3" d="M118.43 116.91C116.52 118.84 116.54 118.86 119.78 119.18C122.52 119.45 123.01 119.19 122.78 117.58C122.62 116.52 122.02 115.5 121.43 115.3C120.84 115.11 119.49 115.83 118.43 116.91Z" />
		<path id="Path 55" class="shp12" d="M218.76 116.22C218.44 116.93 218.47 118.07 218.84 118.78C219.2 119.48 220.29 119.82 221.25 119.53C222.28 119.22 222.97 118.07 222.92 116.75C222.88 115.51 222.65 115.06 222.42 115.75C222.12 116.63 221.61 116.7 220.68 115.97C219.74 115.25 219.18 115.33 218.76 116.22Z" />
		<path id="Path 56" class="shp2" d="M10.5 117.67C10.04 118.03 9.74 122.42 9.83 127.42C9.93 132.41 10.63 140.1 11.4 144.5C12.17 148.9 13.99 156.1 15.45 160.5C16.91 164.9 19.77 172 21.8 176.28C23.84 180.56 26.06 184.05 26.75 184.03C27.7 184.01 28 180.12 28 168C28 153.78 28.17 152.17 29.5 153.5C30.32 154.32 31.19 154.89 31.41 154.75C31.64 154.61 30.97 150.45 29.93 145.5C28.89 140.55 28.03 135.04 28.02 133.25C28 130.67 27.59 130 26 130C24.68 130 23.75 129.08 23.25 127.29C22.84 125.8 21.38 123.43 20 122.03C18.63 120.62 16.26 118.91 14.75 118.23C13.24 117.56 11.85 117 11.67 117C11.48 117 10.96 117.3 10.5 117.67Z" />
		<path id="Path 57" class="shp11" d="M27.89 123.09C28 128.76 28.19 129.17 32.54 133.25C35.04 135.59 38.57 139.53 40.38 142C42.19 144.47 46.85 149.88 50.74 154C54.64 158.13 58.73 162.63 59.85 164C61.64 166.22 62.04 166.33 63.36 165C64.17 164.18 64.95 162.82 65.08 162C65.22 161.18 65.03 159.26 64.66 157.75C64.21 155.88 63.28 154.92 61.75 154.75C60.38 154.6 59.38 153.71 59.18 152.5C58.96 151.07 59.6 150.28 61.43 149.75C62.84 149.34 64 148.32 64 147.5C64 146.68 63.1 145.55 62 145C60.9 144.45 58.54 144.01 56.75 144.01L53.5 144.02C54.45 134.52 54.3 134.02 52.5 134.01C51.02 134.01 50.17 132.91 49.23 129.75C48.53 127.41 48.19 125.28 48.47 125C48.76 124.72 48.1 123.94 47 123.25C45.9 122.56 44.55 122.22 44 122.5C43.45 122.78 43 124.35 43 126C43 128.89 42.83 129 38.5 129L34 129C33.52 119.03 33.28 118.58 30.64 117.9L27.77 117.17L27.89 123.09Z" />
		<path id="Path 58" class="shp9" d="M102.3 125.35C99.11 129.2 94.1 135.54 91.17 139.43C88.24 143.32 85.2 147.74 84.42 149.25C83.64 150.76 83 152.22 83 152.5C83 152.78 83.9 153 85 153C86.1 153 87.28 153.56 87.62 154.25C87.98 155 89.44 153.3 91.26 150C92.92 146.97 96.12 142.25 98.36 139.5C100.6 136.75 104.62 132.03 107.29 129C109.96 125.97 111.69 123.28 111.14 123C110.59 122.72 109.68 121.57 109.12 120.42C108.18 118.5 107.66 118.87 102.3 125.35Z" />
		<path id="Path 59" class="shp7" d="M157.66 120.25C157.26 121.92 157.49 123.57 158.25 124.45C159.25 125.6 159.88 125.65 161.38 124.7C162.85 123.76 163.11 122.84 162.55 120.5C161.89 117.69 161.78 117.63 160.76 119.5L159.66 121.5C158.39 117.71 158.25 117.79 157.66 120.25Z" />
		<path id="Path 60" class="shp2" d="M109.9 125.98C106.38 129.88 103.72 133.16 104 133.28C104.28 133.4 105.51 134.06 106.75 134.75C108.57 135.76 109.14 135.75 109.75 134.67C110.16 133.95 111.29 133.05 112.25 132.67C113.21 132.3 114 132.11 114 132.25C114 132.39 113.59 133.85 113.1 135.5C112.59 137.17 112.57 139.16 113.04 140C113.76 141.26 114.31 141.1 116.49 139C117.92 137.63 119.99 134.03 121.1 131C122.21 127.97 122.98 124.15 122.81 122.5C122.55 119.96 122.03 119.45 119.4 119.2C116.68 118.93 115.53 119.75 109.9 125.98Z" />
		<path id="Path 61" class="shp10" d="M78.19 129.25C77.6 130.49 76.7 133.53 76.18 136C75.67 138.47 75.55 142.07 75.92 144C76.37 146.38 77.21 147.61 78.54 147.85C79.62 148.05 81.3 148.95 82.28 149.85C83.81 151.26 84.08 151.28 84.15 150C84.2 149.18 84.16 147.82 84.06 147C83.97 146.18 82.68 144.52 81.19 143.33C79.34 141.83 78.73 140.66 79.25 139.58C79.66 138.71 80.9 138 82 138C83.1 138 85.35 138.68 87 139.5C88.67 140.33 90 140.56 90 140C90 139.45 89.55 138.1 89 137C88.4 135.8 87 135 85.5 135C83.39 135 82.87 134.37 82.14 131C81.67 128.8 80.83 127 80.28 127C79.73 127 78.79 128.01 78.19 129.25Z" />
		<path id="Path 62" class="shp7" d="M158.93 130.18C158.8 130.9 158.62 136.68 158.53 143L158.36 154.5C161.36 145.2 162.29 139.59 162.36 136.03C162.47 130.74 162.2 129.49 160.84 129.2C159.93 129.01 159.07 129.45 158.93 130.18Z" />
		<path id="Path 63" class="shp9" d="M28.19 134.25C28.47 138.07 28.78 138.53 31.25 138.75C33.5 138.95 34 138.59 34.03 136.75C34.04 135.51 33.03 133.5 31.78 132.27C30.52 131.05 29.14 130.03 28.69 130.02C28.24 130.01 28.02 131.91 28.19 134.25Z" />
		<path id="Path 64" class="shp4" d="M111.92 132.79C111.14 133.07 110.16 133.9 109.75 134.65C109.27 135.52 108.56 135.68 107.75 135.1C107.06 134.6 105.76 134.03 104.86 133.85C103.82 133.63 101.43 135.72 98.36 139.54C95.69 142.86 91.65 149.16 89.39 153.54C87.13 157.92 84.43 163.92 83.39 166.87L81.5 172.24C87.7 177.67 90.85 179.81 92.5 180.5C94.15 181.19 96.51 182.04 97.75 182.38C99.54 182.87 100 182.59 100 181C100 179.53 100.67 179 102.5 179C104.5 179 104.9 179.4 104.5 181C104.05 182.82 104.48 182.99 109.25 182.93C112.14 182.89 115.35 182.55 116.39 182.18C117.72 181.7 118.67 179.73 119.58 175.5C120.5 171.27 120.6 168.47 119.91 166C119.37 164.07 118.38 161.89 117.72 161.14C116.75 160.06 116.85 159.55 118.21 158.64C119.15 158.01 119.95 156.38 119.98 155C120.03 152.66 119.81 152.55 116.52 153.25C113.49 153.89 112.93 153.72 112.5 152C112.21 150.83 111.17 150 110 150C108.9 150 107.33 149.32 106.5 148.5C105.67 147.68 105 146.55 105 146C105 145.45 105.45 145 106 145C106.55 145 108.58 144.32 110.5 143.5C113.33 142.29 113.83 141.67 113.11 140.25C112.62 139.29 112.54 137.18 112.94 135.57C113.34 133.95 113.59 132.56 113.5 132.46C113.42 132.37 112.7 132.52 111.92 132.79Z" />
		<path id="Path 65" class="shp9" d="M120 134C120 134.55 118.31 136.83 116.25 139.07C114.17 141.33 110.82 143.67 108.73 144.32C106.65 144.97 104.96 145.84 104.98 146.25C104.99 146.66 105.67 147.68 106.5 148.5C107.33 149.32 109.01 149.99 110.25 149.98C111.49 149.97 114.53 149.03 117 147.9C119.47 146.77 122.74 144.53 124.25 142.92L127 140C122.6 134.57 121.03 133 120.66 133C120.3 133 120 133.45 120 134Z" />
		<path id="Path 66" class="shp3" d="M225.38 133.77C224.76 134.17 223.53 137.2 222.65 140.5C221.76 143.8 221.03 147.06 221.02 147.75C221.01 148.44 222.13 149 223.5 149C225.5 149 226 148.5 226 146.5C226 144.94 226.57 144 227.5 144C228.32 144 229.22 142.99 229.49 141.75C229.75 140.51 229.98 138.04 229.99 136.25C230 133.81 229.56 133 228.25 133.02C227.29 133.02 226 133.36 225.38 133.77Z" />
		<path id="Path 67" class="shp0" d="M64.08 139.38C63.57 142.19 63.33 146.97 63.55 150C63.77 153.03 64.26 156.63 64.64 158C65.02 159.38 65.25 161.06 65.16 161.75C65.07 162.44 65.76 164.46 66.68 166.25C67.61 168.04 68.39 171.52 68.43 173.99C68.48 177.46 68.9 178.53 70.25 178.74C71.42 178.91 72.33 178.01 73 176C73.79 173.63 73.59 172.11 72.07 168.75C71.01 166.41 69.6 161.35 68.93 157.5C68.22 153.36 67.99 147.33 68.37 142.75C68.96 135.54 68.86 134.97 67 134.63C65.31 134.31 64.87 135.03 64.08 139.38Z" />
		<path id="Path 68" class="shp6" d="M34.34 140.25C34.69 142.59 35.21 144.61 35.49 144.75C35.77 144.89 36.9 144.1 38 143L40 141C36.9 137.13 35.48 136 34.85 136C34.06 136 33.9 137.34 34.34 140.25Z" />
		<path id="Path 69" class="shp0" d="M79.5 138.67C79.04 139.03 78.74 139.93 78.83 140.67C78.92 141.4 79.9 142.45 81 143C82.78 143.89 83 143.67 83 141C83 139.17 82.48 138 81.67 138C80.93 138 79.96 138.3 79.5 138.67Z" />
		<path id="Path 70" class="shp4" d="M83.07 141.25C83.11 143.04 83.45 145.34 83.82 146.37C84.42 148.02 84.83 147.81 87.25 144.62L90 141C85.35 138.68 83.78 138 83.5 138C83.22 138 83.03 139.46 83.07 141.25Z" />
		<path id="Path 71" class="shp12" d="M214.58 138.58C214.08 138.99 213.74 140.16 213.83 141.17C213.93 142.18 214.68 143 215.5 143C216.32 143 217.76 144.24 218.7 145.75L220.4 148.5C222.38 141.53 222.85 139.39 222.73 139.26C222.6 139.13 220.93 138.76 219 138.43C217.07 138.09 215.09 138.16 214.58 138.58ZM29 140.5C29 141.32 29.93 145.94 31.07 150.75C32.2 155.56 33.44 160.03 33.82 160.68C34.19 161.33 34.84 161.89 35.25 161.93C35.66 161.97 36.85 162.56 37.89 163.25C39.42 164.26 39.62 165.03 38.89 167.25C38.22 169.33 38.46 170.8 39.86 173.25C40.89 175.04 42.69 178.19 43.86 180.25C45.04 182.31 46.45 184 47 184C47.55 184 47.8 182.76 47.56 181.25C47.32 179.74 46.73 176.7 46.25 174.5C45.76 172.3 44.15 168.03 42.67 165C41.18 161.97 39.55 158.82 39.03 158C38.52 157.18 37.07 152.55 35.8 147.73C33.76 139.96 33.24 138.96 31.25 138.98C29.93 138.99 29 139.62 29 140.5ZM68.58 140.5C68.26 141.32 68 142.45 68 143C68 143.55 68.56 143.84 69.25 143.64C69.94 143.45 71.51 143.67 72.75 144.14C74.77 144.91 75 144.7 75 142C75 139.35 74.66 139 72.08 139C70.42 139 68.92 139.64 68.58 140.5Z" />
		<path id="Path 72" class="shp8" d="M157.78 141.11C157.44 141.87 156.92 144.3 156.63 146.5C156.33 148.7 155.85 151.29 155.55 152.25C155.19 153.38 155.53 154 156.5 154C157.62 154 158.16 152.32 158.64 147.42C158.99 143.8 159.08 140.59 158.84 140.28C158.59 139.97 158.12 140.34 157.78 141.11Z" />
		<path id="Path 73" class="shp3" d="M161.19 145.5C160.51 148.25 160.08 150.58 160.23 150.67C160.38 150.76 161.23 150.31 162.12 149.67C163.38 148.77 163.6 147.59 163.08 144.5L162.42 140.5L161.19 145.5Z" />
		<path id="Path 74" class="shp9" d="M36.92 143.75C35.6 145.3 35.61 146.19 36.97 151.59C37.81 154.94 38.99 158.32 39.59 159.09C40.19 159.87 41.74 162.75 43.04 165.5C44.33 168.25 45.79 172.3 46.29 174.5C46.78 176.7 47.35 180.3 47.55 182.5C47.82 185.5 48.85 187.47 51.7 190.39C53.79 192.54 57.26 195.91 59.4 197.89C61.55 199.88 64.92 202.72 66.9 204.22C68.88 205.72 70.95 206.97 71.5 207C72.05 207.04 71.77 206.26 70.87 205.28C69.97 204.3 68.96 202.49 68.62 201.25C68.24 199.87 67.22 199 66 199C64.4 199 64.01 198.34 64.03 195.75C64.05 193.96 63.15 191.26 62.03 189.75C60.92 188.24 60 186.32 60 185.5C60 184.68 60.67 184 61.5 184C62.62 184 63 182.8 63 179.25C63.01 175.58 62.44 173.88 60.5 171.75C59.13 170.24 58 168.1 58 167C58 165.47 57.42 165.06 55.52 165.25C53.79 165.42 53.08 165.03 53.16 163.94C53.23 163.08 52.56 161.51 51.67 160.44C50.79 159.37 50.06 157.38 50.05 156C50.04 154.46 48.32 151.58 45.55 148.5C43.09 145.75 41.05 143.16 41.03 142.75C41.02 142.34 40.42 142 39.71 142C39 142 37.74 142.79 36.92 143.75Z" />
		<path id="Path 75" class="shp7" d="M75.17 148C75.18 151.57 75.52 155.63 75.91 157C76.56 159.25 76.69 159.1 77.2 155.5C77.52 153.3 77.18 149.25 76.46 146.5L75.13 141.5L75.17 148Z" />
		<path id="Path 76" class="shp9" d="M68.95 143.73C67.97 144.05 67.7 145.7 67.97 149.83C68.26 154.36 68.4 154.74 68.67 151.75C68.85 149.69 69.22 148 69.5 148C69.78 148 71.13 148.45 72.5 149C74.81 149.93 74.98 149.8 74.75 147.36C74.59 145.71 73.71 144.45 72.4 144C71.25 143.61 69.69 143.49 68.95 143.73Z" />
		<path id="Path 77" class="shp2" d="M122.84 144.39C122.1 145.16 119.36 146.74 116.75 147.9C112.92 149.59 112.1 150.39 112.5 152C112.93 153.72 113.49 153.89 116.52 153.25C119.81 152.55 120.03 152.66 119.98 155C119.95 156.38 119.15 158.01 118.21 158.64C116.85 159.55 116.75 160.06 117.72 161.14C118.38 161.89 119.37 164.07 119.91 166C120.59 168.43 120.53 171.09 119.7 174.69C119.04 177.54 118.84 180.13 119.25 180.44C119.66 180.75 120.9 180.55 122 180C123.2 179.4 124 178 124 176.5C124 174.57 124.52 174 126.25 174C128.44 174 128.49 173.76 128.25 164.5C128 155.08 128.02 155 130.5 154.5C132.29 154.14 132.96 153.39 132.87 151.86C132.8 150.68 132.02 149.1 131.12 148.34C130.23 147.59 128.3 146.07 126.84 144.97C124.56 143.26 123.99 143.18 122.84 144.39Z" />
		<path id="Path 78" class="shp9" d="M213.5 143.67C213.04 144.03 212.73 145.95 212.8 147.92C212.91 150.68 213.52 151.79 215.47 152.75C217.49 153.75 218.18 153.75 218.9 152.75C219.4 152.06 219.95 150.82 220.12 150C220.3 149.18 219.66 147.26 218.72 145.75C217.77 144.24 216.4 143 215.67 143C214.93 143 213.96 143.3 213.5 143.67Z" />
		<path id="Path 79" class="shp12" d="M69.08 153.18C69.02 156.11 69.32 159.95 69.74 161.73C70.16 163.5 71.17 165.13 72 165.35C72.83 165.57 74.4 165.14 75.5 164.4C76.6 163.66 77.84 163.27 78.25 163.53C78.66 163.79 79 165.13 79 166.5C79 168.21 79.56 169.01 80.75 169.02C82 169.03 83.29 167.02 85.25 162.02C86.76 158.16 87.78 154.55 87.5 154C87.22 153.45 85.88 153 84.5 153C82.52 153 81.51 153.99 79.62 157.75L77.23 162.5C75.26 153.2 74.42 150.21 74.09 149.86C73.77 149.51 72.53 148.92 71.34 148.55C69.33 147.91 69.18 148.21 69.08 153.18Z" />
		<path id="Path 80" class="shp0" d="M77 148.5C77 148.78 77.45 149.9 78 151C78.55 152.1 79.9 153 81 153C82.1 153 83.01 152.44 83.02 151.75C83.03 151.06 82.46 149.93 81.77 149.23C81.07 148.54 79.71 147.97 78.75 147.98C77.79 147.99 77 148.22 77 148.5Z" />
		<path id="Path 81" class="shp10" d="M60.61 149.72C59.59 149.9 59.09 150.83 59.25 152.25C59.42 153.75 60.25 154.58 61.75 154.75C63.33 154.93 64 154.48 63.98 153.25C63.98 152.29 63.57 151.04 63.09 150.47C62.61 149.91 61.49 149.57 60.61 149.72Z" />
		<path id="Path 82" class="shp14" d="M28.06 167.21C28.01 175.62 27.73 183.4 27.44 184.5C27.14 185.6 27.57 187.4 28.38 188.5C29.57 190.1 30.12 190.25 31.13 189.25C31.83 188.56 33.43 188 34.7 188C36.94 188 37 187.74 36.98 178.75C36.96 171.36 36.44 168.09 34.41 162.5C33 158.65 31.02 154.69 30 153.71C28.21 151.97 28.15 152.36 28.06 167.21Z" />
		<path id="Path 83" class="shp10" d="M77.33 153.33C77.1 153.97 77.04 156.25 77.2 158.38L77.5 162.27L82 153C78.7 152.35 77.56 152.68 77.33 153.33Z" />
		<path id="Path 84" class="shp3" d="M156.98 153.97C155.97 154.28 154.17 156.77 152.98 159.52C151.79 162.26 149.33 166.75 147.51 169.5C144.81 173.57 144.41 174.81 145.35 176.19C146.27 177.54 146.1 178.31 144.5 180.03C143.4 181.21 140.93 183.11 139 184.26C137.07 185.41 135.28 186.51 135 186.7C134.72 186.89 135.51 187.71 136.75 188.52C137.99 189.34 140.01 192.06 141.25 194.59C143.2 198.56 143.3 199.3 142 200.07C140.73 200.83 140.77 200.97 142.25 200.98C143.21 200.99 145.13 200.55 146.5 200C148.23 199.31 149 198.23 149 196.5C149 194.57 149.57 193.94 151.48 193.75C153.38 193.56 153.96 193.97 153.96 195.5C153.96 197.31 154.36 197.42 158.23 196.69C160.58 196.24 162.61 195.79 162.74 195.69C162.87 195.58 163.07 194.38 163.17 193C163.28 191.63 163.28 189.04 163.18 187.25C163.05 184.92 162.43 183.86 161 183.5C159.4 183.1 158.91 181.96 158.56 177.75C158.31 174.86 158.2 170.59 158.31 168.25C158.41 165.92 158.72 164 159 163.98C159.28 163.97 159.39 162.84 159.25 161.48C159.06 159.56 159.51 158.94 161.24 158.75C162.47 158.61 163.6 157.82 163.75 157C163.91 156.16 162.88 155.04 161.42 154.46C159.98 153.88 157.99 153.67 156.98 153.97Z" />
		<path id="Path 85" class="shp6" d="M50.26 156.13C50.15 157.43 50.73 159.4 51.55 160.5C52.37 161.6 53.04 163.18 53.04 164C53.04 165 53.87 165.42 55.52 165.25C57.42 165.06 58 165.47 58 167C58 168.1 59.13 170.24 60.5 171.75C62.44 173.88 63.01 175.58 63 179.25C63 182.8 62.62 184 61.5 184C60.67 184 60 184.68 60 185.5C60 186.32 60.92 188.24 62.03 189.75C63.15 191.26 64.05 193.96 64.03 195.75C64.01 198.34 64.4 199 66 199C67.63 199 67.91 198.5 67.51 196.25C67.23 194.74 66.96 192.15 66.89 190.5C66.82 188.85 67.04 184.69 67.38 181.25C67.94 175.56 67.75 174.62 65.25 170.81C63.74 168.5 61.6 165.69 60.5 164.55C59.4 163.42 57.36 161.15 55.98 159.5C54.59 157.85 52.78 155.88 51.96 155.13C50.67 153.94 50.44 154.08 50.26 156.13Z" />
		<path id="Path 86" class="shp9" d="M34.65 161.75C34.39 162.16 34.81 163.96 35.59 165.75C36.37 167.54 37.45 169 38 169C38.55 169 39.15 167.99 39.33 166.75C39.54 165.32 38.84 163.86 37.4 162.75C36.15 161.79 34.91 161.34 34.65 161.75Z" />
		<path id="Path 87" class="shp13" d="M75.36 164.45C74.04 165.44 73.41 167.38 73.19 171.17C73.03 174.1 72.95 180.78 73.02 186C73.13 193.68 73.57 196.26 75.33 199.5C77.01 202.6 78.96 204.22 84 206.73C87.58 208.5 91.4 209.98 92.5 210.01C93.6 210.04 95.74 209.49 97.26 208.78C99.88 207.56 99.93 207.42 98.26 205.78C97.27 204.81 94.96 204.05 93 204.04C90.83 204.04 88.17 203.06 86 201.47C84.08 200.07 81.73 197.47 80.79 195.71C79.85 193.94 79.07 190.25 79.06 187.5C79.04 184.75 79.45 181.82 79.96 181C80.76 179.71 81.22 179.8 83.2 181.63C84.46 182.79 86.51 184.26 87.75 184.88C89.53 185.76 90.31 185.69 91.5 184.5C92.33 183.68 92.89 182.6 92.75 182.11C92.61 181.62 90.14 179.37 87.25 177.11C84.04 174.59 82 172.22 82 171C82 169.89 81.33 169 80.5 169C79.55 169 79.04 168.11 79.1 166.56C79.16 165.22 78.76 163.88 78.22 163.59C77.67 163.3 76.39 163.69 75.36 164.45Z" />
		<path id="Path 88" class="shp10" d="M63.23 165.61C62.73 166.71 63.29 167.8 65 169.04C66.38 170.04 67.72 170.67 68 170.44C68.28 170.2 67.83 168.64 67 166.97C66.17 165.29 65.15 163.94 64.73 163.96C64.3 163.98 63.62 164.72 63.23 165.61Z" />
		<path id="Path 89" class="shp9" d="M71.04 166.25C71.05 166.94 71.76 168.63 72.6 170L74.13 172.5C73.27 168.63 73.02 166.94 73.01 166.25C73.01 165.56 72.55 165 72 165C71.45 165 71.02 165.56 71.04 166.25Z" />
		<path id="Path 90" class="shp5" d="M143.85 168.84C143.9 169.75 144.29 170.83 144.72 171.24C145.15 171.65 146.08 171.43 146.79 170.74C147.51 170.06 148.01 169.21 147.92 168.87C147.83 168.52 146.85 168 145.75 167.71C144.33 167.34 143.78 167.66 143.85 168.84Z" />
		<path id="Path 91" class="shp9" d="M133.56 171.75C131.65 174.17 131.38 175 132.5 175C133.32 175 134.11 174.59 134.25 174.08C134.39 173.58 135.74 173.35 137.25 173.58C138.84 173.82 140 174.63 140 175.5C140 176.32 140.34 177.01 140.75 177.03C141.16 177.05 142.3 176.26 143.28 175.28C144.47 174.09 144.88 172.59 144.53 170.75C144.05 168.25 143.65 168.02 140.06 168.25C136.96 168.45 135.57 169.2 133.56 171.75Z" />
		<path id="Path 92" class="shp2" d="M36.99 180.5C37.01 189.52 36.65 193 35.54 194.5C34.21 196.32 34.3 196.73 36.62 199C38.02 200.38 39.46 201.34 39.83 201.14C40.2 200.94 41.27 202.29 42.22 204.14C43.16 205.99 46.09 209.42 48.72 211.76C51.35 214.1 53.84 216.01 54.25 216.01C54.66 216 55 215.32 55 214.5C55 213.29 55.62 213.18 58.25 213.92C60.04 214.43 61.85 214.54 62.28 214.17C62.71 213.8 63.12 214.18 63.2 215C63.29 215.82 63.61 213.36 63.93 209.53L64.5 202.56C57.64 196.31 54.15 192.93 52.31 191C50.48 189.07 46.96 184.46 44.49 180.75C42.02 177.04 39.99 173.66 39.97 173.25C39.95 172.84 39.27 171.6 38.45 170.5C37.11 168.69 36.97 169.66 36.99 180.5Z" />
		<path id="Path 93" class="shp11" d="M65.46 171.5C66.31 172.88 67.45 174 68 174C68.55 174 68.98 173.44 68.96 172.75C68.94 172.06 68.15 170.95 67.21 170.28C66.27 169.61 65.14 169.05 64.71 169.03C64.27 169.01 64.61 170.13 65.46 171.5Z" />
		<path id="Path 94" class="shp14" d="M221.58 177.25C220.71 180.41 220 183.22 220 183.5C220 183.78 220.9 184 222 184C223.1 184 223.99 184.56 223.97 185.25C223.96 185.94 224.29 186.12 224.72 185.65C225.15 185.18 225.61 182.82 225.75 180.4C225.89 177.89 225.39 175.03 224.58 173.75C223.2 171.58 223.09 171.71 221.58 177.25Z" />
		<path id="Path 95" class="shp12" d="M134 174C134 174.55 132.76 175.11 131.25 175.25C129.11 175.44 128.58 175.95 128.84 177.5C129.03 178.6 129.26 180.51 129.34 181.75C129.43 182.99 129.72 183.87 130 183.72C130.28 183.56 131.74 182.78 133.26 181.97C135.58 180.74 136.01 179.9 135.88 176.75C135.81 174.69 135.35 173 134.87 173C134.39 173 134 173.45 134 174Z" />
		<path id="Path 96" class="shp5" d="M135.73 174.75C135.52 175.16 135.61 176.75 135.93 178.28C136.47 180.92 136.61 180.98 138.75 179.53C140.25 178.51 140.83 177.33 140.5 176C140.21 174.85 139.17 174 138.05 174C136.98 174 135.93 174.34 135.73 174.75Z" />
		<path id="Path 97" class="shp7" d="M141.43 177.11C140.37 178.3 137.93 179.93 136 180.74C134.07 181.54 131.82 182.81 131 183.57C130.18 184.32 127.47 185.58 125 186.37C122.53 187.16 121.29 187.85 122.25 187.9C123.44 187.97 123.92 188.71 123.75 190.21C123.56 191.88 122.59 192.61 119.75 193.21C117.69 193.64 115.33 194.68 114.5 195.5C113.28 196.72 113.23 197.31 114.25 198.66C115.27 200.02 115.23 200.43 114 200.88C113.17 201.19 112.05 201.93 111.5 202.52C110.95 203.11 108.92 204.09 107 204.69L103.5 205.8C111.25 205.97 114.85 205.75 116.5 205.4C118.7 204.95 119.43 204.28 119.25 202.89C119.11 201.85 118.55 201 118 201C117.45 201 116.99 200.66 116.97 200.25C116.95 199.84 119.99 198.05 123.72 196.28C127.45 194.52 131.4 192.98 132.5 192.88C133.6 192.77 135.29 192.75 136.25 192.84C137.21 192.93 138.2 193.56 138.45 194.25C138.69 194.94 138.35 196.31 137.7 197.3C136.92 198.48 134.85 199.26 131.75 199.55C129.11 199.8 126.78 199.56 126.5 199C126.22 198.45 125.44 197.99 124.75 197.97C124.06 197.96 123.82 198.29 124.2 198.72C124.59 199.15 124.48 200.51 123.95 201.75C123.15 203.65 123.31 204 125 204C126.1 204 130.04 203.31 133.75 202.47C137.46 201.63 141.18 200.54 142 200.06C143.3 199.3 143.2 198.56 141.25 194.59C140.01 192.06 137.99 189.28 136.75 188.4C134.93 187.1 134.79 186.68 136 186.2C136.82 185.87 139.3 184.2 141.5 182.5C143.7 180.79 145.5 178.56 145.5 177.53C145.5 176.51 145.02 175.51 144.43 175.31C143.84 175.11 142.49 175.92 141.43 177.11Z" />
		<path id="Path 98" class="shp10" d="M67.75 178.34C67.74 178.43 67.6 179.85 67.42 181.5C67.25 183.15 67.06 186.53 66.99 189C66.93 191.47 67.4 195.75 68.03 198.5C68.66 201.25 70.07 204.63 71.17 206C72.26 207.38 74.59 209.22 76.33 210.1C79.24 211.57 79.65 211.57 81.26 210.1C82.23 209.22 83.01 208.05 83 207.5C82.99 206.95 81.64 205.71 79.99 204.75C78.13 203.66 75.96 200.82 74.25 197.25C72.01 192.57 71.55 190.34 71.75 185.25C71.98 179.58 71.8 178.96 69.88 178.59C68.71 178.37 67.75 178.26 67.75 178.34Z" />
		<path id="Path 99" class="shp13" d="M125.92 178.25C125.87 178.39 125.76 179.74 125.67 181.25C125.58 182.76 125.95 183.99 126.5 183.98C127.05 183.98 128.1 183.64 128.84 183.23C129.66 182.79 129.95 181.63 129.59 180.25C129.27 179.01 128.32 178 127.5 178C126.67 178 125.96 178.11 125.92 178.25Z" />
		<path id="Path 100" class="shp10" d="M100.03 180.75C100.05 181.71 100.72 183.29 101.53 184.25C102.34 185.21 103.19 185.66 103.42 185.25C103.65 184.84 104.1 183.26 104.42 181.75C104.93 179.33 104.7 179 102.5 179C100.77 179 100.01 179.54 100.03 180.75Z" />
		<path id="Path 101" class="shp9" d="M119 181.06C116.53 182.06 112.25 182.97 109.5 183.06C106.75 183.16 105.29 183.4 106.25 183.62C107.21 183.83 108.26 185.24 108.57 186.75C109.11 189.4 109.3 189.48 113.82 188.84C116.39 188.47 121.09 187.46 124.25 186.59C127.41 185.71 129.78 184.55 129.5 184C129.22 183.45 128.21 183.24 127.25 183.54C125.95 183.94 125.5 183.52 125.5 181.89C125.5 180.69 125.05 179.59 124.5 179.46C123.95 179.33 121.47 180.05 119 181.06Z" />
		<path id="Path 102" class="shp11" d="M79.58 181.5C79.26 182.32 79.06 185.36 79.14 188.25L79.28 193.5C80.23 185.06 81.05 182.53 81.75 182.34C82.44 182.15 82.78 181.55 82.5 181C82.22 180.45 81.59 180 81.08 180C80.58 180 79.91 180.68 79.58 181.5Z" />
		<path id="Path 103" class="shp12" d="M92.55 183C92.25 184.1 91.55 185 91 185C90.45 185 90 185.45 90 186C90 186.55 90.9 187.22 92 187.5C93.2 187.8 94.01 187.5 94.01 186.75C94.02 186.06 94.21 184.49 94.43 183.25C94.65 182.01 94.44 181 93.97 181C93.5 181 92.86 181.9 92.55 183Z" />
		<path id="Path 104" class="shp0" d="M80.58 183.5C80.26 184.32 80 187.03 80 189.5C80 192.83 80.39 194 81.5 194C82.39 194 82.99 193.09 82.98 191.75C82.97 190.51 83.61 188.6 84.39 187.5C85.35 186.15 85.52 184.93 84.91 183.75C84.41 182.79 83.36 182 82.58 182C81.81 182 80.91 182.68 80.58 183.5Z" />
		<path id="Path 105" class="shp13" d="M94.58 183.5C94.26 184.32 94 185.68 94 186.5C94 187.43 94.94 188 96.5 188C98.06 188 99 187.43 99 186.5C99 185.68 98.78 184.32 98.5 183.5C98.22 182.68 97.36 182 96.58 182C95.81 182 94.91 182.68 94.58 183.5Z" />
		<path id="Path 106" class="shp12" d="M71.56 184.5C71.11 185.6 71.11 188.07 71.57 190L72.4 193.5C72.97 188.85 72.96 186.38 72.76 185C72.41 182.68 72.32 182.64 71.56 184.5ZM98.67 185.5C98.9 187.24 98.47 188.12 97.25 188.39C96.29 188.6 98.54 188.71 102.26 188.64C107.24 188.54 108.89 188.17 108.51 187.25C108.23 186.56 108 185.55 108 185C108 184.45 107.1 183.78 106 183.5C104.68 183.17 103.81 183.59 103.43 184.75C102.89 186.42 102.82 186.42 101.93 184.75C101.42 183.79 100.4 183 99.67 183C98.83 183 98.46 183.92 98.67 185.5Z" />
		<path id="Path 107" class="shp8" d="M150.5 183.67C150.04 184.03 149.74 185.16 149.83 186.17C149.93 187.28 150.79 188 152 188C153.47 188 154 187.33 154 185.5C154 184.08 153.42 183 152.67 183C151.93 183 150.96 183.3 150.5 183.67Z" />
		<path id="Path 108" class="shp10" d="M85.22 184.72C85.61 185.15 85.27 186.4 84.46 187.5C83.65 188.6 82.99 190.51 82.99 191.75C83 193.09 82.39 194 81.5 194C80.23 194 80.19 194.4 81.25 196.57C81.94 197.98 84.08 200.24 86 201.58C89.23 203.84 90.31 204.01 100 203.81C105.95 203.69 110.93 203.13 111.5 202.52C112.05 201.93 113.17 201.19 114 200.88C115.33 200.39 115.33 200.12 114 198.5C112.87 197.12 112.8 196.59 113.75 196.34C114.44 196.15 115 195.55 115 195C115 194.4 111.86 194.1 107.08 194.25C102.72 194.39 98.78 194.15 98.33 193.72C97.87 193.29 96.49 192.96 95.25 192.97C93.32 193 93.12 192.68 93.87 190.75C94.63 188.77 94.21 188.23 90.37 186.25C87.96 185.01 85.66 183.99 85.25 183.97C84.84 183.96 84.82 184.29 85.22 184.72Z" />
		<path id="Path 109" class="shp15" d="M218.72 185.25C218.47 185.94 218.69 187.63 219.2 189L220.14 191.5C223.2 187.63 224.07 185.94 224.04 185.25C224.02 184.56 222.91 184 221.58 184C220.26 184 218.97 184.56 218.72 185.25Z" />
		<path id="Path 110" class="shp16" d="M31.14 189.25C30.35 190.16 30.46 191.11 31.53 192.75C32.34 193.99 33.67 195 34.5 195C35.33 195 36.23 194.32 36.5 193.5C36.77 192.68 37 191.1 37 190C37 188.56 36.33 188 34.61 188C33.3 188 31.74 188.56 31.14 189.25Z" />
		<path id="Path 111" class="shp4" d="M94.17 189.87C93.91 190.77 93.54 191.84 93.35 192.25C93.16 192.66 94.24 192.89 95.75 192.75C97.26 192.61 98.35 192.05 98.16 191.5C97.98 190.95 98.27 190.22 98.82 189.88C99.36 189.55 98.65 189.04 97.23 188.76C95.41 188.4 94.51 188.72 94.17 189.87Z" />
		<path id="Path 112" class="shp0" d="M101.05 189.08C98.18 189.83 97.67 190.37 98.05 192.22C98.45 194.21 99.01 194.42 103 194.11C105.47 193.91 108.06 193.13 108.75 192.38C109.44 191.62 110 190.55 110 190C110 189.45 109.33 189 108.5 189C107.67 189 106.44 188.82 105.75 188.59C105.06 188.37 102.95 188.59 101.05 189.08Z" />
		<path id="Path 113" class="shp4" d="M113.25 188.66C111.18 188.88 110 189.54 110 190.5C110 191.32 109.55 192 109 192C108.45 192 108 192.45 108 193C108 193.55 110.14 193.95 112.75 193.88C115.36 193.82 118.85 193.48 120.5 193.13C122.63 192.67 123.57 191.84 123.75 190.24C123.97 188.25 123.58 188.02 120.25 188.16C118.19 188.25 115.04 188.47 113.25 188.66Z" />
		<path id="Path 114" class="shp8" d="M130 193.5C127.44 194.49 127.03 194.9 128.5 195.04C129.6 195.15 131.06 195.18 131.75 195.12C132.44 195.05 133.22 195.45 133.5 196C133.78 196.55 134.68 197 135.5 197C136.32 197 137 196.55 137 196C137 195.45 136.32 194.32 135.5 193.5C134.68 192.68 133.89 192.03 133.75 192.08C133.61 192.12 131.93 192.76 130 193.5Z" />
		<path id="Path 115" class="shp5" d="M135.75 193.58C136.44 193.81 137 194.68 137 195.5C137 196.32 136.44 197.01 135.75 197.02C135.06 197.03 134.05 196.53 133.5 195.91C132.95 195.29 131.93 195.09 131.24 195.45C130.54 195.82 129.98 196.77 129.99 197.56C129.99 198.35 130.68 199.22 131.5 199.5C132.32 199.78 134.01 199.62 135.25 199.15C136.49 198.69 137.77 197.67 138.1 196.9C138.43 196.13 138.55 194.94 138.35 194.25C138.16 193.56 137.21 193.04 136.25 193.08C135.29 193.12 135.06 193.35 135.75 193.58Z" />
		<path id="Path 116" class="shp8" d="M151.25 193.71C149.59 193.92 149 194.66 149 196.5C149 198.61 149.47 199 152 199C154.76 199 154.95 198.78 154.36 196.25C154.01 194.74 153.67 193.48 153.61 193.46C153.55 193.44 152.49 193.55 151.25 193.71Z" />
		<path id="Path 117" class="shp11" d="M121.04 197.26C118.59 198.43 116.68 199.76 116.79 200.2C116.91 200.64 117.45 201 118 201C118.55 201 119 201.68 119 202.5C119 203.32 119.56 204.28 120.25 204.61C120.94 204.95 122.07 204.61 122.77 203.86C123.46 203.11 124.14 201.49 124.27 200.25C124.4 199.01 124.72 197.99 125 197.98C125.28 197.97 125.95 198.47 126.5 199.09C127.05 199.71 128.06 199.94 128.75 199.61C129.44 199.27 130 198.1 130 197C130 195.57 129.35 195.02 127.75 195.06C126.51 195.1 123.49 196.08 121.04 197.26Z" />
		<path id="Path 118" class="shp5" d="M157 197C155.33 197.53 157.33 197.8 163 197.8C168.67 197.8 170.67 197.53 169 197C167.63 196.56 164.93 196.2 163 196.2C161.07 196.2 158.38 196.56 157 197Z" />
		<path id="Path 119" class="shp3" d="M153.75 198.62C152.79 198.83 152.22 199.45 152.5 200C152.78 200.55 154.01 201 155.25 200.99C156.49 200.99 158.51 201.66 159.75 202.49C160.99 203.32 162 204.45 162 205C162 205.58 160.24 205.37 157.75 204.48C155.41 203.64 151.25 202.97 148.5 202.99C145.75 203.01 142.82 203.42 142 203.9C140.84 204.58 141.18 204.93 143.5 205.47C145.15 205.85 147.06 206.58 147.75 207.08C148.52 207.65 148.71 208.76 148.25 209.98C147.84 211.08 146.71 212.2 145.75 212.48C144.73 212.79 143.79 212.38 143.5 211.5C143.22 210.68 143.56 209.3 144.25 208.46C145.35 207.1 144.89 206.92 140.5 206.97C137.75 207 134.49 207.36 133.26 207.76C132.03 208.17 130.83 209.4 130.59 210.5C130.31 211.78 128.24 213.32 124.83 214.77C121.9 216.02 118.83 217.01 118 216.98C116.67 216.92 116.67 217.09 118 218.5C118.83 219.37 120.29 220.07 121.25 220.04C122.21 220.02 123.22 220.9 123.5 222C123.83 223.33 124.83 224 126.5 224C128.23 224 128.99 224.54 128.97 225.75C128.96 226.71 130.08 228.06 131.47 228.75C132.86 229.44 133.8 230.34 133.56 230.75C133.32 231.16 133.66 233.37 134.31 235.66C134.96 237.95 135.72 240.09 136 240.41C136.28 240.73 140.55 240.56 145.5 240.03C152.62 239.27 157.06 238.02 166.75 234.03C173.49 231.27 179.01 228.44 179.02 227.75C179.03 227.06 178.46 225.67 177.77 224.66C177.05 223.61 175.63 222.97 174.5 223.17C173.3 223.38 172.4 224.42 172.25 225.76C172.08 227.25 171.33 228 170 228C168.83 228 167.79 227.17 167.5 226C167.21 224.83 166.17 224 165 224C163.9 224 163.01 223.44 163.02 222.75C163.03 222.06 161.57 220.8 159.77 219.94C157.97 219.08 155.71 218.52 154.75 218.69C153.57 218.9 153.19 219.57 153.59 220.75C154.03 222.04 153.37 222.83 151.09 223.75C148.08 224.97 148 224.93 148.03 222.25C148.05 220.74 148.95 218.49 150.03 217.25C151.11 216.01 152.45 215 153 215C153.55 215 154 213.65 154 212C154 209.83 154.56 208.86 156 208.5C157.1 208.22 158.68 208.68 159.5 209.5C160.32 210.32 161.68 210.78 162.5 210.5C163.63 210.12 163.97 208.52 163.88 204L163.76 198C157.36 198.18 154.71 198.4 153.75 198.62Z" />
		<path id="Path 120" class="shp9" d="M146.07 200.03C144.73 200.53 143.72 201.4 143.82 201.97C143.92 202.54 145.13 203 146.5 203C148.33 203 149 202.47 149 201C149 199.9 148.89 199.03 148.75 199.06C148.61 199.1 147.41 199.53 146.07 200.03Z" />
		<path id="Path 121" class="shp12" d="M149 201C149 202.56 149.67 203 152 203C153.65 203 154.98 202.66 154.96 202.25C154.94 201.84 154.15 200.95 153.21 200.28C152.27 199.61 150.94 199.05 150.25 199.03C149.56 199.01 149 199.9 149 201Z" />
		<path id="Path 122" class="shp0" d="M39.5 203C41.15 204.64 42.61 205.76 42.75 205.49C42.89 205.22 42.31 203.99 41.47 202.75C40.63 201.51 39.16 200.39 38.22 200.26C36.97 200.09 37.32 200.84 39.5 203Z" />
		<path id="Path 123" class="shp5" d="M132 202.7C128.43 203.51 125.62 204.47 125.76 204.84C125.9 205.2 127.02 205.99 128.26 206.59C129.57 207.23 133.45 207.48 137.59 207.19C143.95 206.75 144.6 206.87 143.84 208.35C143.38 209.26 143.22 210.68 143.5 211.5C143.79 212.38 144.73 212.79 145.75 212.48C146.71 212.2 147.84 211.08 148.25 209.98C148.71 208.76 148.52 207.65 147.75 207.08C147.06 206.58 145.15 205.85 143.5 205.46C140.97 204.86 140.77 204.61 142.25 203.87C143.21 203.39 144 202.55 144 202C144 201.45 142.76 201.05 141.25 201.12C139.74 201.18 135.58 201.9 132 202.7ZM154.98 202.25C154.97 202.94 156.54 204.06 158.48 204.75C160.66 205.52 162 205.62 162 205C162 204.45 160.99 203.32 159.75 202.49C158.51 201.66 156.94 200.99 156.25 200.99C155.56 201 154.99 201.56 154.98 202.25Z" />
		<path id="Path 124" class="shp1" d="M64.04 211.75C64.07 218.79 64.41 220.76 65.79 221.83C67.4 223.08 67.39 223.13 65.75 222.58C64.75 222.25 64.21 222.43 64.5 223C64.78 223.55 66.13 223.78 67.5 223.5C68.88 223.22 70.67 223.22 71.5 223.5C72.33 223.78 72.99 225.01 72.97 226.25C72.95 227.68 73.87 228.96 75.47 229.75C76.86 230.44 78.56 230.99 79.25 230.98C80.07 230.97 79.98 230.67 79 230.09C77.84 229.42 78.1 229.14 80.18 228.86C82.06 228.61 83.03 229.02 83.43 230.25C83.83 231.47 83.62 231.77 82.76 231.25C81.94 230.75 81.77 230.92 82.26 231.75C82.67 232.44 84.24 233.48 85.75 234.06C87.26 234.64 90.3 235.55 92.5 236.07C96.14 236.94 96.36 236.88 95 235.43C93.67 234.02 93.67 233.75 95 233.05C95.83 232.62 98.22 232.77 100.32 233.38C103.47 234.3 104.09 234.9 103.82 236.74C103.61 238.2 104.11 239.16 105.25 239.49C106.21 239.77 107.45 239.78 108 239.5C108.55 239.22 109 238.32 109 237.5C109 236.31 109.94 236.1 113.5 236.5C116.17 236.8 118 236.59 118 236C118 235.45 117.1 234.78 116 234.5C114.7 234.17 113.91 233.04 113.75 231.25C113.57 229.29 112.92 228.47 111.5 228.4C110.4 228.34 108.49 228.23 107.25 228.15C105.91 228.06 104.8 227.19 104.5 226C104.16 224.63 103.29 224.08 101.75 224.25C100.07 224.44 99.44 223.93 99.25 222.25C99.1 220.87 98.13 219.78 96.75 219.43C95.51 219.11 91.58 217.67 88 216.21C84.42 214.76 80.38 212.84 79 211.95C77.63 211.05 73.91 208.67 70.75 206.66C67.59 204.65 64.78 203 64.5 203C64.22 203 64.02 206.94 64.04 211.75Z" />
		<path id="Path 125" class="shp9" d="M100.75 203.67C97.51 203.95 97.17 204.21 98.25 205.54C99.11 206.61 101.04 207.04 104.5 206.93C108.9 206.78 109.14 206.67 106.5 206C104.85 205.58 104.29 205.18 105.25 205.12C106.21 205.05 107 204.55 107 204C107 203.45 106.44 203.08 105.75 203.17C105.06 203.26 102.81 203.49 100.75 203.67Z" />
		<path id="Path 126" class="shp12" d="M115 205.56C110.88 206.28 105.92 206.91 104 206.94C102.08 206.98 99.15 207.7 97.5 208.54C95.85 209.38 93.83 210.1 93 210.14C92.17 210.18 93.3 210.8 95.5 211.53C97.7 212.25 100.85 212.87 102.5 212.91C104.79 212.95 105.14 212.74 104 212C102.88 211.28 103.52 210.99 106.5 210.87L110.5 210.72C104.3 209.61 102.95 209.22 103.5 209.13C104.05 209.05 108.55 208.53 113.5 207.97C118.45 207.41 123.29 206.73 124.25 206.47C125.21 206.21 126 205.55 126 205C126 204.45 125.21 204.06 124.25 204.13C123.29 204.2 119.13 204.84 115 205.56Z" />
		<path id="Path 127" class="shp8" d="M118.5 207.15C115.2 207.65 110.25 208.47 107.5 208.98C103.3 209.75 103.94 209.83 111.5 209.45C116.45 209.2 122.53 208.36 125 207.59C127.99 206.67 128.66 206.21 127 206.23C125.63 206.24 121.8 206.66 118.5 207.15Z" />
		<path id="Path 128" class="shp11" d="M81.75 209.08C80.79 210.14 80.22 211.68 80.5 212.5C80.78 213.32 82.01 214.01 83.25 214.01C84.49 214.02 86.4 214.27 87.5 214.56C89.17 215.01 89.5 214.61 89.51 212.1C89.52 209.66 88.96 208.89 86.51 208.03C84.85 207.45 83.5 207.01 83.5 207.07C83.5 207.12 82.71 208.03 81.75 209.08Z" />
		<path id="Path 129" class="shp12" d="M125.55 208C125.25 208.55 125.34 209.2 125.75 209.44C126.16 209.69 127.51 209.69 128.75 209.44C129.99 209.2 130.78 208.55 130.5 208C130.22 207.45 129.12 207 128.05 207C126.98 207 125.85 207.45 125.55 208Z" />
		<path id="Path 130" class="shp5" d="M118 209.02C115.53 209.44 111.03 210.11 108 210.51C104.42 210.97 103.02 211.5 104 212.01C104.83 212.43 107.08 212.41 109 211.96C111.04 211.47 113.02 211.52 113.75 212.06C114.53 212.65 117.07 212.62 120.5 212C124.06 211.35 125.88 210.56 125.67 209.75C125.48 209.06 124.7 208.44 123.92 208.37C123.14 208.3 120.47 208.59 118 209.02Z" />
		<path id="Path 131" class="shp7" d="M125 210.77C122.56 211.89 117.85 212.47 109.5 212.68C102.9 212.85 97.16 212.99 96.75 212.99C96.34 213 96 213.68 96 214.5C96 215.53 97.5 216.21 100.75 216.68C103.36 217.06 108.65 217.37 112.5 217.37C117.65 217.38 120.82 216.78 124.5 215.11C127.25 213.86 129.83 212.32 130.23 211.67C130.64 211.03 130.98 210.16 130.98 209.75C130.99 209.34 130.44 209.04 129.75 209.08C129.06 209.13 126.92 209.89 125 210.77Z" />
		<path id="Path 132" class="shp10" d="M89.32 211.75C88.93 212.87 89.39 213.96 90.6 214.77C91.64 215.46 93.29 216.03 94.25 216.02C95.21 216.01 96 215.32 96 214.5C96 213.68 96.56 212.97 97.25 212.92C97.94 212.88 96.92 212.24 95 211.5C93.08 210.76 91.15 210.12 90.73 210.08C90.3 210.03 89.67 210.79 89.32 211.75Z" />
		<path id="Path 133" class="shp12" d="M108.5 212C105.68 212.72 105.76 212.77 109.75 212.88C112.29 212.95 113.8 212.6 113.5 212C113.22 211.45 112.66 211.05 112.25 211.12C111.84 211.18 110.15 211.58 108.5 212Z" />
		<path id="Path 134" class="shp14" d="M55.11 215.38C55.18 216.7 56.97 218.69 59.86 220.65C63.04 222.82 64.97 223.54 66 222.96C67.29 222.22 67.25 222.03 65.75 221.55C64.77 221.24 63.99 220.01 63.98 218.75C63.98 217.51 63.53 215.82 63 215C62.47 214.18 61.96 213.79 61.88 214.14C61.8 214.5 60.22 214.45 58.36 214.03C55.33 213.34 55 213.48 55.11 215.38Z" />
		<path id="Path 135" class="shp8" d="M88.5 216.32C91.25 217.64 97.1 219.48 101.5 220.43C105.9 221.37 109.59 222 109.7 221.82C109.81 221.65 109.68 220.6 109.41 219.5C108.98 217.77 107.52 217.33 98.7 216.27C93.09 215.59 87.38 214.78 86 214.48C84.63 214.18 85.75 215 88.5 216.32Z" />
		<path id="Path 136" class="shp5" d="M109 218.5C109 218.78 109.45 219.9 110 221C110.55 222.1 111.67 223 112.5 223C113.33 223 114 222.55 114 222C114 221.45 114.22 220.32 114.5 219.5C114.87 218.39 114.22 218 112 218C110.35 218 109 218.22 109 218.5Z" />
		<path id="Path 137" class="shp8" d="M114.58 219.5C114.26 220.32 114 221.45 114 222C114 222.55 115.8 223.22 118 223.5C120.2 223.78 122.45 223.78 123 223.5C123.55 223.22 123.84 222.32 123.63 221.5C123.43 220.68 122.31 220 121.13 220C119.96 220 118.78 219.55 118.5 219C118.22 218.45 117.36 218 116.58 218C115.81 218 114.91 218.68 114.58 219.5ZM128.22 218.77C127.41 219.23 127.23 220.19 127.72 221.39C128.43 223.1 129.22 223.21 136.5 222.57C141.21 222.15 145.1 221.27 145.96 220.43C147.25 219.17 147.25 218.99 145.96 218.9C145.16 218.84 142.47 218.77 140 218.73C137.53 218.7 135.05 218.94 134.5 219.27C133.95 219.6 132.82 219.45 132 218.95C131.18 218.44 130.28 218.03 130 218.03C129.72 218.03 128.93 218.36 128.22 218.77Z" />
		<path id="Path 138" class="shp2" d="M99.27 222.16C99.45 223.94 100.05 224.44 101.75 224.25C103.29 224.08 104.16 224.63 104.5 226C104.8 227.19 105.91 228.06 107.25 228.15C108.49 228.23 110.4 228.34 111.5 228.4C112.92 228.47 113.57 229.29 113.75 231.25C113.89 232.76 114.45 234 115 234C115.55 234 116.75 234.34 117.66 234.75C119.09 235.39 119.23 235.04 118.66 232.25C118.06 229.27 118.21 229 120.5 229C122.33 229 123 229.53 123 231C123 232.25 123.84 233.19 125.25 233.52C126.62 233.83 127.7 235 128 236.5C128.28 237.85 128.05 239.16 127.5 239.4C126.95 239.64 127.06 239.88 127.75 239.92C128.44 239.96 128.78 240.45 128.5 241C128.19 241.62 129.06 241.76 130.75 241.37C132.26 241.02 133.95 240.35 134.5 239.87C135.16 239.29 135.1 237.73 134.3 235.25C133.64 233.19 133.31 231.16 133.55 230.75C133.8 230.34 132.86 229.44 131.47 228.75C130.08 228.06 128.96 226.71 128.97 225.75C128.99 224.53 128.17 223.96 126.25 223.88C124.74 223.82 122.83 223.84 122 223.94C121.17 224.03 116.45 223.4 111.5 222.53C106.55 221.66 101.72 220.69 100.76 220.38C99.41 219.94 99.08 220.33 99.27 222.16Z" />
		<path id="Path 139" class="shp14" d="M67 223.92C65.8 224.62 66.15 225.13 68.75 226.4C70.54 227.28 72.22 228 72.5 228C72.78 228 73 227.1 73 226C73 224.9 72.33 223.78 71.5 223.5C70.67 223.22 69.66 223.01 69.25 223.02C68.84 223.02 67.83 223.43 67 223.92Z" />
		<path id="Path 140" class="shp2" d="M80 229C78.63 229.44 78.06 229.85 78.75 229.9C79.44 229.96 79.78 230.45 79.5 231C79.22 231.55 79.67 232.22 80.5 232.5C81.33 232.78 82 232.55 82 232C82 231.45 82.45 231.22 83 231.5C83.57 231.79 83.79 231.14 83.5 230C83.23 228.9 82.89 228.04 82.75 228.1C82.61 228.15 81.38 228.56 80 229Z" />
		<path id="Path 141" class="shp1" d="M118.33 231.25C118.69 232.49 118.97 233.95 118.96 234.5C118.96 235.05 120.2 235.81 121.73 236.18C123.25 236.55 125.29 237.12 126.25 237.43C127.52 237.84 128 237.46 128 236C128 234.67 127.17 233.83 125.5 233.5C123.83 233.17 123 232.33 123 231C123 229.5 122.33 229 120.35 229C118.07 229 117.79 229.32 118.33 231.25Z" />
		<path id="Path 142" class="shp2" d="M94.8 233.04C93.75 233.69 93.79 234.16 95 235.47C95.83 236.36 97.29 237.07 98.25 237.04C99.33 237.02 99.95 236.28 99.88 235.12C99.81 234.08 98.93 233.01 97.93 232.74C96.92 232.47 95.52 232.6 94.8 233.04Z" />
		<path id="Path 143" class="shp4" d="M99.99 235.75C99.98 237.11 99.25 237.44 96.74 237.25L93.5 237C98.25 239.2 100.33 239.47 101.5 239.03C102.6 238.62 103.54 237.32 103.59 236.14C103.65 234.7 103.08 234 101.84 234C100.76 234 100 234.72 99.99 235.75Z" />
		<path id="Path 144" class="shp0" d="M90.5 236.47C92.15 237.21 93.84 237.63 94.25 237.4C94.66 237.18 94.89 236.84 94.75 236.64C94.61 236.45 92.92 236.03 91 235.71L87.5 235.14L90.5 236.47Z" />
		<path id="Path 145" class="shp14" d="M117.93 236.05C117.97 236.6 116.17 236.75 113.64 236.41C109.82 235.89 109.21 236.07 108.64 237.91C108.08 239.73 107.45 239.93 103.75 239.44C100.09 238.95 99.78 239.05 101.5 240.11C102.6 240.79 107.78 241.88 113 242.54C118.22 243.2 125.42 243.57 129 243.36C132.57 243.16 136.85 242.55 138.5 242.01C140.99 241.2 140.36 241.08 134.85 241.27C131.19 241.4 128.38 241.16 128.6 240.75C128.82 240.34 128.44 239.99 127.75 239.98C126.92 239.97 127 239.65 128 239C128.82 238.47 129.05 238.02 128.5 238C127.95 237.99 125.33 237.33 122.68 236.54C120.01 235.74 117.9 235.52 117.93 236.05Z" />
	</g>
</svg>