

<svg xmlns="http://www.w3.org/2000/svg"  width="75px" height="75px" viewBox="0 0 250 250"  fill="none">
<style type="text/css">
	.st0{fill:#FFFFFF;}
	.st1{fill:#C3C3C3;}
	.st2{fill:#96989B;}
</style>
<g>
	<g>
		<ellipse class="st0" cx="124.07" cy="124.09" rx="118.9" ry="119.39"/>
	</g>
	<g>
		<path class="st1" d="M125,0.56C56,0.56,0.07,56.28,0.07,125S56,249.44,125,249.44S249.93,193.72,249.93,125S194,0.56,125,0.56z
			 M124.07,239.18c-63.3,0-114.62-51.53-114.62-115.09S60.77,8.99,124.07,8.99s114.62,51.53,114.62,115.09
			S187.37,239.18,124.07,239.18z"/>
		<path d="M125,249.5c-16.87,0-33.24-3.29-48.66-9.78c-14.88-6.27-28.25-15.25-39.73-26.68c-11.48-11.43-20.49-24.75-26.79-39.57
			C3.31,158.11,0,141.81,0,125s3.31-33.11,9.82-48.46c6.3-14.83,15.31-28.14,26.79-39.57s24.85-20.41,39.73-26.68
			C91.76,3.79,108.13,0.5,125,0.5s33.25,3.29,48.66,9.78c14.88,6.27,28.25,15.25,39.73,26.68s20.49,24.75,26.79,39.57
			C246.7,91.89,250,108.19,250,125s-3.3,33.11-9.82,48.46c-6.3,14.83-15.31,28.14-26.79,39.57c-11.48,11.43-24.85,20.41-39.73,26.68
			C158.24,246.21,141.87,249.5,125,249.5z M125,0.63C56.15,0.63,0.13,56.42,0.13,125S56.15,249.37,125,249.37
			S249.87,193.58,249.87,125S193.85,0.63,125,0.63z M124.07,239.25c-15.48,0-30.5-3.04-44.64-9.05
			c-13.66-5.8-25.92-14.1-36.45-24.68c-10.53-10.58-18.8-22.89-24.58-36.6c-5.98-14.2-9.01-29.28-9.01-44.83
			c0-15.55,3.03-30.63,9.01-44.83c5.78-13.71,14.05-26.03,24.58-36.6c10.53-10.58,22.8-18.88,36.45-24.68
			c14.14-6,29.16-9.05,44.64-9.05c15.48,0,30.5,3.04,44.64,9.05c13.66,5.8,25.92,14.1,36.45,24.68
			c10.53,10.58,18.8,22.89,24.58,36.6c5.98,14.2,9.01,29.28,9.01,44.83c0,15.55-3.03,30.63-9.01,44.83
			c-5.78,13.71-14.05,26.03-24.58,36.6c-10.53,10.58-22.8,18.88-36.45,24.68C154.57,236.2,139.55,239.25,124.07,239.25z
			 M124.07,9.06C60.9,9.06,9.52,60.66,9.52,124.09S60.9,239.12,124.07,239.12c63.16,0,114.55-51.6,114.55-115.03
			S187.23,9.06,124.07,9.06z"/>
	</g>
	<g>
		<path class="st2" d="M182.72,112.14c-3.76-5.22-10.25-9.57-17.24-13.05c-13.7-6.82-29.3-10.29-29.86-10.41
			c-14.91-3.15-24.13-8.72-29.79-14.82C94,61.12,97.74,46.1,97.74,46.1c48.49-11.82,70.28,11.87,72.82,14.77
			C190.72,83.99,182.72,112.14,182.72,112.14z"/>
	</g>
	<g>
		<path class="st2" d="M173.34,196.6c0,0,3.65-13.48-8.95-28.75c-1.25-1.52-2.66-3.06-4.26-4.6c-9-8.72-23.75-17.64-47.79-24.69
			c-2.84-0.83-40.32-15.29-48.84-37.54c-0.47-1.24-9.21-22.42,17.38-46.92c0,0-13.03,37.19,56.83,58.05
			c1.5,0.44,40.15,10.95,50.05,34.75C188.3,148.19,198.54,174.18,173.34,196.6z"/>
	</g>
	<g>
		<path class="st2" d="M151.26,205.81c0,0-45.07,14.08-74.21-12.16c-1.04-0.94-24.33-21.9-16.33-57.7c0,0,3.68,6.39,18.92,14
			c8.85,4.42,21.62,9.24,39.82,13.46c0.72,0.17,14.16,3.32,23.45,13.5C148.8,183.37,153.02,192.65,151.26,205.81z"/>
	</g>
	<g>
		<path class="st1" d="M165.49,99.09c-13.7-6.82-29.3-10.29-29.86-10.41c-14.91-3.15-24.13-8.72-29.79-14.82
			c4.46-8.34,22.9-4.78,25.27-4.47C160.74,73.21,164.56,92.59,165.49,99.09z"/>
		<path d="M165.57,99.2l-0.11-0.06c-13.81-6.88-29.69-10.37-29.85-10.41c-13.25-2.8-23.28-7.79-29.82-14.84l-0.03-0.03l0.02-0.04
			c1.76-3.3,5.88-5.14,12.25-5.47c5.08-0.27,10.14,0.51,12.31,0.85c0.34,0.05,0.61,0.09,0.79,0.12c12.69,1.64,22.11,6.3,28,13.87
			c5.11,6.56,6.11,13.58,6.44,15.89L165.57,99.2z M105.91,73.85c6.52,7.01,16.52,11.98,29.72,14.76
			c0.16,0.03,15.97,3.51,29.77,10.36c-2.44-16.74-14.3-26.94-34.31-29.52c-0.18-0.02-0.44-0.06-0.79-0.12
			C116.87,67.27,108.66,68.79,105.91,73.85z"/>
	</g>
	<g>
		<path class="st1" d="M164.39,167.85c-1.25-1.52-2.66-3.06-4.26-4.6c-15.62-22.11-42.99-28.64-44.67-29.21
			c-53.71-18.25-28.33-50.05-28.33-50.05c21.03,29.2,45.56,31.92,48.48,33.02C185.89,135.95,168.62,162.49,164.39,167.85z"/>
		<path d="M164.39,167.95l-0.05-0.06c-1.31-1.58-2.74-3.13-4.25-4.6c-12.68-17.95-32.99-25.87-43.97-29
			c-0.34-0.1-0.56-0.16-0.67-0.2c-18.97-6.45-30.22-15.28-33.44-26.25c-1.94-6.63-0.46-12.78,1.13-16.77
			c1.72-4.32,3.93-7.11,3.95-7.14l0.05-0.07l0.05,0.07c18.61,25.84,39.7,30.86,46.63,32.51c0.86,0.21,1.48,0.35,1.82,0.48
			c19.68,7.41,31.22,16.79,34.3,27.87c3.08,11.06-3.42,20.46-5.49,23.08L164.39,167.95z M87.13,84.1c-0.35,0.45-2.31,3.11-3.88,7.04
			c-1.58,3.97-3.05,10.08-1.12,16.68c3.2,10.93,14.42,19.73,33.35,26.16c0.11,0.04,0.34,0.1,0.67,0.2
			c2.39,0.68,9.67,2.75,18.28,7.27c10.94,5.73,19.6,13.06,25.76,21.77c1.49,1.44,2.91,2.97,4.21,4.54
			c2.11-2.69,8.45-11.99,5.42-22.9c-3.07-11.04-14.58-20.38-34.22-27.78c-0.33-0.12-0.95-0.27-1.81-0.48
			c-3.36-0.8-10.35-2.47-18.87-7.18C104.41,103.6,95.06,95.08,87.13,84.1z"/>
	</g>
	<g>
		<path class="st1" d="M142.75,181.48c-47.24,13.64-60.08-19.58-63.11-31.54c8.85,4.42,21.62,9.24,39.82,13.46
			c0.72,0.17,14.16,3.32,23.45,13.5C144.23,179.18,143.98,181.13,142.75,181.48z"/>
		<path d="M122.01,184.78c-8.2,0-15.45-1.79-21.69-5.37c-5.99-3.44-10.99-8.49-14.85-15.03c-3.24-5.49-5-10.87-5.9-14.42l-0.04-0.14
			l0.13,0.06c10.52,5.25,23.91,9.77,39.81,13.46c1.44,0.33,14.37,3.53,23.48,13.52c0.84,1.45,1.11,2.87,0.74,3.81
			c-0.18,0.45-0.5,0.75-0.92,0.87C135.3,183.7,128.37,184.78,122.01,184.78z M79.73,150.07c1.97,7.68,7.26,21.55,20.65,29.23
			c11.04,6.33,25.29,7.05,42.35,2.12l0,0c0.38-0.11,0.67-0.39,0.84-0.8c0.36-0.91,0.1-2.28-0.72-3.69
			c-9.07-9.94-21.96-13.14-23.4-13.47C103.6,159.8,90.24,155.29,79.73,150.07z"/>
	</g>
	<g>
		<rect x="114.42" y="34.28" class="st2" width="20.42" height="183.61"/>
	</g>
</g>
</svg>
