<svg xmlns="http://www.w3.org/2000/svg" width="75px" height="75px" viewBox="0, 0, 400,400"><g id="svgg"><path id="path0" d="M171.200 0.600 C 171.200 1.103,170.353 1.200,165.981 1.200 C 160.952 1.200,160.729 1.236,159.851 2.183 C 159.021 3.078,158.611 3.171,155.241 3.233 C 151.744 3.297,151.522 3.352,151.181 4.250 C 150.836 5.158,150.652 5.200,147.010 5.200 C 143.213 5.200,143.200 5.203,143.200 6.200 C 143.200 7.173,143.123 7.200,140.358 7.200 C 137.802 7.200,137.436 7.301,136.729 8.200 C 136.048 9.066,135.624 9.200,133.571 9.200 C 131.309 9.200,131.200 9.246,131.200 10.200 C 131.200 11.037,131.004 11.206,130.000 11.236 C 125.411 11.372,125.400 11.375,125.400 12.200 C 125.400 12.883,125.093 13.018,123.300 13.121 C 121.372 13.232,121.200 13.322,121.200 14.221 C 121.200 15.140,120.096 15.531,118.300 15.247 C 118.135 15.221,118.045 15.425,118.100 15.700 C 118.155 15.975,117.975 16.155,117.700 16.100 C 117.425 16.045,117.245 16.225,117.300 16.500 C 117.368 16.838,116.718 17.039,115.300 17.121 C 113.385 17.231,113.200 17.326,113.200 18.199 C 113.200 19.057,113.003 19.169,111.300 19.278 C 109.679 19.382,109.381 19.532,109.272 20.300 C 109.159 21.094,108.913 21.200,107.172 21.200 C 105.335 21.200,105.200 21.269,105.200 22.200 C 105.200 23.133,105.067 23.200,103.200 23.200 C 101.345 23.200,101.200 23.271,101.200 24.178 C 101.200 25.061,101.015 25.168,99.300 25.278 C 97.696 25.381,97.381 25.536,97.275 26.275 C 97.198 26.821,96.821 27.198,96.275 27.275 C 95.721 27.354,95.353 27.730,95.272 28.300 C 95.155 29.128,93.453 29.556,91.500 29.247 C 91.335 29.221,91.221 29.335,91.247 29.500 C 91.435 30.690,91.115 31.200,90.182 31.200 C 89.622 31.200,88.711 31.653,88.157 32.207 C 87.604 32.760,86.724 33.248,86.204 33.291 C 85.683 33.335,85.265 33.467,85.276 33.585 C 85.391 34.887,85.103 35.161,83.500 35.277 C 82.187 35.372,81.710 35.605,81.405 36.300 C 81.163 36.852,80.660 37.200,80.105 37.200 C 79.406 37.200,79.200 37.428,79.200 38.200 C 79.200 38.992,78.998 39.200,78.228 39.200 C 77.524 39.200,77.220 39.449,77.128 40.100 C 77.022 40.844,76.688 41.035,75.200 41.200 C 73.712 41.365,73.378 41.556,73.272 42.300 C 73.180 42.951,72.876 43.200,72.172 43.200 C 71.402 43.200,71.200 43.408,71.200 44.200 C 71.200 45.000,71.000 45.200,70.200 45.200 C 69.400 45.200,69.200 45.400,69.200 46.200 C 69.200 47.000,69.000 47.200,68.200 47.200 C 67.400 47.200,67.200 47.400,67.200 48.200 C 67.200 49.000,67.000 49.200,66.200 49.200 C 65.400 49.200,65.200 49.400,65.200 50.200 C 65.200 51.000,65.000 51.200,64.200 51.200 C 63.400 51.200,63.200 51.400,63.200 52.200 C 63.200 53.000,63.000 53.200,62.200 53.200 C 61.255 53.200,61.200 53.320,61.200 55.400 C 61.200 56.635,61.020 57.600,60.790 57.600 C 60.565 57.600,60.208 58.053,59.997 58.607 C 59.787 59.161,59.161 59.787,58.607 59.997 C 58.053 60.208,57.600 60.565,57.600 60.790 C 57.600 61.020,56.635 61.200,55.400 61.200 C 53.320 61.200,53.200 61.255,53.200 62.200 C 53.200 63.000,53.000 63.200,52.200 63.200 C 51.400 63.200,51.200 63.400,51.200 64.200 C 51.200 65.000,51.000 65.200,50.200 65.200 C 49.400 65.200,49.200 65.400,49.200 66.200 C 49.200 67.000,49.000 67.200,48.200 67.200 C 47.400 67.200,47.200 67.400,47.200 68.200 C 47.200 69.000,47.000 69.200,46.200 69.200 C 45.400 69.200,45.200 69.400,45.200 70.200 C 45.200 71.115,44.682 71.434,43.500 71.247 C 43.335 71.221,43.221 71.335,43.247 71.500 C 43.413 72.548,43.085 73.161,42.300 73.272 C 41.668 73.362,41.364 73.713,41.278 74.451 C 41.211 75.029,40.716 75.915,40.178 76.420 C 39.640 76.926,39.200 77.758,39.200 78.270 C 39.200 78.995,38.980 79.200,38.200 79.200 C 37.360 79.200,37.200 79.388,37.200 80.376 C 37.200 81.023,36.992 81.681,36.738 81.838 C 36.452 82.015,36.385 81.948,36.562 81.662 C 36.938 81.054,36.293 81.067,35.680 81.680 C 35.049 82.311,35.063 82.925,35.700 82.565 C 36.100 82.339,36.100 82.390,35.700 82.821 C 35.425 83.118,35.200 83.774,35.200 84.280 C 35.200 85.112,34.644 85.428,33.500 85.247 C 33.335 85.221,33.221 85.335,33.247 85.500 C 33.428 86.645,33.092 87.535,32.411 87.713 C 31.851 87.859,31.546 88.395,31.360 89.560 C 31.138 90.945,30.950 91.200,30.149 91.200 C 29.279 91.200,29.200 91.364,29.200 93.172 C 29.200 94.913,29.094 95.159,28.300 95.272 C 27.730 95.353,27.354 95.721,27.275 96.275 C 27.198 96.821,26.821 97.198,26.275 97.275 C 25.536 97.381,25.381 97.696,25.278 99.300 C 25.168 101.015,25.061 101.200,24.178 101.200 C 23.271 101.200,23.200 101.345,23.200 103.200 C 23.200 105.067,23.133 105.200,22.200 105.200 C 21.269 105.200,21.200 105.335,21.200 107.172 C 21.200 108.913,21.094 109.159,20.300 109.272 C 19.532 109.381,19.382 109.679,19.278 111.300 C 19.168 113.015,19.061 113.200,18.178 113.200 C 17.247 113.200,17.200 113.318,17.200 115.649 C 17.200 117.820,17.129 118.039,16.577 117.581 C 16.063 117.154,15.976 117.163,16.077 117.632 C 16.146 117.951,15.951 118.146,15.632 118.077 C 15.163 117.976,15.154 118.063,15.581 118.577 C 15.930 118.998,15.952 119.200,15.649 119.200 C 15.402 119.200,15.200 119.650,15.200 120.200 C 15.200 121.000,15.000 121.200,14.200 121.200 C 13.269 121.200,13.200 121.335,13.200 123.172 C 13.200 124.913,13.094 125.159,12.300 125.272 C 11.482 125.388,11.393 125.636,11.323 127.989 C 11.250 130.446,10.494 131.953,9.609 131.405 C 9.458 131.313,9.300 132.263,9.258 133.518 C 9.194 135.385,9.000 135.960,8.190 136.681 C 7.315 137.459,7.200 137.887,7.200 140.354 C 7.200 142.794,7.099 143.178,6.401 143.400 C 5.437 143.706,5.233 144.489,5.101 148.400 C 5.010 151.100,4.920 151.400,4.200 151.400 C 3.465 151.400,3.390 151.709,3.274 155.200 C 3.204 157.290,2.976 159.061,2.767 159.136 C 1.400 159.623,1.200 160.476,1.200 165.829 C 1.200 170.337,1.104 171.200,0.600 171.200 C 0.072 171.200,0.000 174.756,0.000 200.800 C 0.000 226.844,0.072 230.400,0.600 230.400 C 1.096 230.400,1.209 231.200,1.250 235.000 C 1.314 240.908,1.254 240.579,2.300 240.728 C 3.164 240.850,3.200 241.014,3.200 244.797 C 3.200 248.418,3.281 248.835,4.200 249.927 C 5.085 250.979,5.200 251.485,5.200 254.329 C 5.200 257.460,5.688 258.800,6.829 258.800 C 7.033 258.800,7.200 259.970,7.200 261.400 C 7.200 262.830,7.335 263.979,7.500 263.953 C 8.290 263.828,8.540 264.051,8.000 264.400 C 7.513 264.715,7.566 264.789,8.282 264.794 C 9.091 264.799,9.173 265.021,9.282 267.500 C 9.385 269.857,9.514 270.250,10.300 270.595 C 11.032 270.916,11.200 271.310,11.200 272.705 C 11.200 274.166,11.348 274.476,12.200 274.800 C 13.106 275.145,13.201 275.397,13.206 277.490 C 13.213 280.086,13.616 281.033,14.560 280.671 C 15.039 280.487,15.200 280.671,15.200 281.405 C 15.200 282.112,15.474 282.453,16.183 282.631 C 17.087 282.858,17.175 283.091,17.283 285.539 C 17.385 287.856,17.516 288.251,18.300 288.595 C 19.116 288.953,19.426 289.890,19.242 291.447 C 19.184 291.937,20.380 293.069,20.761 292.884 C 20.893 292.820,21.050 293.180,21.112 293.684 C 21.362 295.732,21.639 296.359,22.401 296.600 C 22.903 296.760,23.200 297.206,23.200 297.799 C 23.200 298.475,23.457 298.781,24.100 298.872 C 24.868 298.981,25.018 299.279,25.122 300.900 C 25.232 302.615,25.339 302.800,26.222 302.800 C 27.111 302.800,27.200 302.960,27.200 304.557 C 27.200 306.097,27.323 306.344,28.200 306.564 C 28.931 306.748,29.200 307.083,29.200 307.808 C 29.200 308.599,29.402 308.800,30.200 308.800 C 31.133 308.800,31.200 308.933,31.200 310.800 C 31.200 311.900,31.335 312.779,31.500 312.753 C 32.682 312.566,33.200 312.885,33.200 313.800 C 33.200 314.600,33.400 314.800,34.200 314.800 C 35.133 314.800,35.200 314.933,35.200 316.800 C 35.200 317.900,35.335 318.779,35.500 318.753 C 36.765 318.553,37.200 318.876,37.200 320.018 C 37.200 320.784,37.571 321.608,38.200 322.236 C 38.750 322.786,39.200 323.588,39.200 324.018 C 39.200 324.448,39.335 324.779,39.500 324.753 C 40.548 324.587,41.161 324.915,41.272 325.700 C 41.354 326.278,41.722 326.646,42.300 326.728 C 42.951 326.820,43.200 327.124,43.200 327.828 C 43.200 328.598,43.408 328.800,44.200 328.800 C 45.072 328.800,45.200 328.975,45.200 330.171 C 45.200 331.405,46.013 332.800,46.732 332.800 C 46.884 332.800,47.244 333.179,47.533 333.642 C 47.918 334.258,47.927 334.402,47.568 334.180 C 47.253 333.985,47.179 334.042,47.362 334.338 C 47.519 334.592,48.447 334.800,49.424 334.800 C 51.038 334.800,51.200 334.889,51.200 335.772 C 51.200 336.474,51.449 336.780,52.096 336.872 C 52.629 336.948,53.040 337.324,53.111 337.800 C 53.413 339.815,53.641 340.290,54.490 340.673 C 54.991 340.899,55.760 341.031,56.200 340.967 C 56.948 340.858,56.954 340.885,56.296 341.373 C 55.633 341.864,55.632 341.928,56.272 342.447 C 56.687 342.783,56.840 342.810,56.663 342.516 C 56.258 341.841,57.243 340.400,58.110 340.400 C 60.226 340.400,62.288 344.104,60.600 344.873 C 59.366 345.435,59.338 345.832,60.492 346.449 C 60.983 346.712,61.716 347.348,62.121 347.864 C 62.594 348.464,63.278 348.800,64.029 348.800 C 65.011 348.800,65.200 348.961,65.200 349.800 C 65.200 350.600,65.400 350.800,66.200 350.800 C 67.052 350.800,67.207 350.992,67.246 352.100 C 67.336 354.635,67.304 354.594,69.275 354.721 C 70.856 354.823,71.169 354.979,71.275 355.721 C 71.354 356.279,71.729 356.647,72.300 356.728 C 72.951 356.820,73.200 357.124,73.200 357.828 C 73.200 358.598,73.408 358.800,74.200 358.800 C 75.000 358.800,75.200 359.000,75.200 359.800 C 75.200 360.631,75.391 360.800,76.332 360.800 C 77.248 360.800,77.457 360.971,77.432 361.700 C 77.399 362.618,77.519 362.669,79.900 362.754 C 81.008 362.793,81.200 362.948,81.200 363.800 C 81.200 364.600,81.400 364.800,82.200 364.800 C 82.750 364.800,83.200 364.967,83.200 365.171 C 83.200 365.978,84.527 366.800,85.829 366.800 C 87.025 366.800,87.200 366.928,87.200 367.800 C 87.200 368.572,87.406 368.800,88.105 368.800 C 88.660 368.800,89.163 369.148,89.405 369.700 C 89.709 370.392,90.188 370.628,91.475 370.722 C 92.849 370.822,93.173 371.001,93.275 371.722 C 93.381 372.464,93.694 372.619,95.300 372.722 C 97.015 372.832,97.200 372.939,97.200 373.822 C 97.200 374.591,97.408 374.800,98.172 374.800 C 98.876 374.800,99.180 375.049,99.272 375.700 C 99.381 376.468,99.679 376.618,101.300 376.722 C 103.015 376.832,103.200 376.939,103.200 377.822 C 103.200 378.727,103.347 378.800,105.172 378.800 C 106.913 378.800,107.159 378.906,107.272 379.700 C 107.381 380.468,107.679 380.618,109.300 380.722 C 111.099 380.837,111.477 381.169,111.100 382.300 C 111.045 382.465,111.990 382.690,113.200 382.800 C 115.066 382.970,115.400 383.121,115.400 383.799 C 115.400 384.628,115.498 384.667,117.772 384.750 C 118.872 384.790,119.170 384.979,119.272 385.700 C 119.381 386.468,119.679 386.618,121.300 386.722 C 122.830 386.820,123.200 386.986,123.200 387.575 C 123.200 388.764,128.479 389.431,128.935 388.300 C 129.046 388.025,129.151 388.475,129.168 389.300 L 129.200 390.800 131.154 390.800 C 132.797 390.800,133.212 390.959,133.763 391.800 C 134.343 392.685,134.698 392.800,136.852 392.800 C 138.966 392.800,139.387 392.930,140.065 393.792 C 140.495 394.338,140.971 394.767,141.123 394.745 C 143.546 394.398,147.200 394.884,147.200 395.553 C 147.200 396.527,148.237 396.788,152.142 396.795 C 155.015 396.800,155.352 396.886,156.071 397.800 C 156.825 398.758,157.043 398.800,161.229 398.800 C 164.848 398.800,165.600 398.903,165.600 399.400 C 165.600 399.929,169.711 400.000,200.200 400.000 C 230.689 400.000,234.800 399.929,234.800 399.400 C 234.800 398.899,235.622 398.800,239.800 398.800 L 244.800 398.800 244.800 397.800 L 244.800 396.800 249.019 396.800 C 253.006 396.800,253.289 396.745,254.165 395.800 C 254.984 394.916,255.418 394.800,257.903 394.800 C 260.567 394.800,260.726 394.748,260.964 393.800 C 261.202 392.855,261.366 392.800,263.964 392.800 C 266.563 392.800,266.727 392.745,266.964 391.800 C 267.190 390.901,267.427 390.795,269.308 390.754 C 272.505 390.683,272.600 390.656,272.600 389.800 C 272.600 389.173,272.903 388.977,274.000 388.892 C 276.611 388.691,277.164 388.452,277.000 387.598 C 276.860 386.874,277.063 386.800,279.194 386.800 C 281.222 386.800,281.649 386.664,282.329 385.800 C 282.761 385.250,283.382 384.800,283.709 384.800 C 284.481 384.800,285.342 383.754,285.011 383.218 C 284.843 382.946,285.554 382.800,287.043 382.800 C 288.303 382.800,289.228 382.695,289.100 382.567 C 288.565 382.032,290.465 380.800,291.824 380.800 C 292.607 380.800,293.146 380.636,293.022 380.436 C 292.422 379.464,293.324 378.800,295.243 378.800 C 296.319 378.800,297.179 378.665,297.153 378.500 C 296.940 377.156,297.264 376.800,298.700 376.794 C 300.504 376.787,301.123 376.435,300.979 375.500 C 300.888 374.914,301.190 374.800,302.835 374.800 C 304.664 374.800,304.800 374.731,304.800 373.800 C 304.800 373.000,305.000 372.800,305.800 372.800 C 306.594 372.800,306.800 372.599,306.800 371.822 C 306.800 370.939,306.985 370.832,308.700 370.722 C 310.321 370.618,310.619 370.468,310.728 369.700 C 310.828 368.997,311.116 368.800,312.047 368.800 C 312.804 368.800,313.576 368.435,314.165 367.800 C 314.675 367.250,315.476 366.800,315.946 366.800 C 316.590 366.800,316.800 366.554,316.800 365.800 C 316.800 364.867,316.933 364.800,318.800 364.800 C 320.667 364.800,320.800 364.733,320.800 363.800 C 320.800 363.000,321.000 362.800,321.800 362.800 C 322.600 362.800,322.800 362.600,322.800 361.800 C 322.800 361.000,323.000 360.800,323.800 360.800 C 324.594 360.800,324.800 360.599,324.800 359.822 C 324.800 358.939,324.985 358.832,326.700 358.722 C 328.304 358.619,328.619 358.464,328.725 357.725 C 328.802 357.179,329.179 356.802,329.725 356.725 C 330.279 356.646,330.647 356.270,330.728 355.700 C 330.820 355.049,331.124 354.800,331.828 354.800 C 332.598 354.800,332.800 354.592,332.800 353.800 C 332.800 353.000,333.000 352.800,333.800 352.800 C 334.592 352.800,334.800 352.598,334.800 351.828 C 334.800 351.124,335.049 350.820,335.700 350.728 C 336.278 350.646,336.646 350.278,336.728 349.700 C 336.820 349.049,337.124 348.800,337.828 348.800 C 338.598 348.800,338.800 348.592,338.800 347.800 C 338.800 347.062,339.012 346.800,339.613 346.800 C 340.687 346.800,341.038 345.767,340.474 344.271 C 339.881 342.699,342.634 339.669,343.994 340.397 C 345.467 341.185,346.800 340.902,346.800 339.800 C 346.800 339.000,347.000 338.800,347.800 338.800 C 348.592 338.800,348.800 338.598,348.800 337.828 C 348.800 337.124,349.049 336.820,349.700 336.728 C 350.278 336.646,350.646 336.278,350.728 335.700 C 350.820 335.049,351.124 334.800,351.828 334.800 C 352.598 334.800,352.800 334.592,352.800 333.800 C 352.800 333.000,353.000 332.800,353.800 332.800 C 354.592 332.800,354.800 332.598,354.800 331.828 C 354.800 331.125,355.049 330.820,355.697 330.728 C 356.282 330.645,356.665 330.252,356.797 329.600 C 356.932 328.934,357.267 328.600,357.800 328.600 C 358.598 328.600,358.660 328.424,358.757 325.900 C 358.792 325.005,358.986 324.800,359.800 324.800 C 360.600 324.800,360.800 324.600,360.800 323.800 C 360.800 323.000,361.000 322.800,361.800 322.800 C 362.600 322.800,362.800 322.600,362.800 321.800 C 362.800 321.000,363.000 320.800,363.800 320.800 C 364.733 320.800,364.800 320.667,364.800 318.800 C 364.800 316.933,364.867 316.800,365.800 316.800 C 366.554 316.800,366.800 316.590,366.800 315.946 C 366.800 315.476,367.250 314.675,367.800 314.165 C 368.445 313.567,368.800 312.806,368.800 312.019 C 368.800 310.985,368.952 310.800,369.800 310.800 C 370.648 310.800,370.800 310.615,370.800 309.581 C 370.800 308.794,371.155 308.033,371.800 307.435 C 372.350 306.925,372.800 306.124,372.800 305.654 C 372.800 305.010,373.046 304.800,373.800 304.800 C 374.731 304.800,374.800 304.665,374.800 302.828 C 374.800 301.087,374.906 300.841,375.700 300.728 C 376.468 300.619,376.618 300.321,376.722 298.700 C 376.832 296.985,376.939 296.800,377.822 296.800 C 378.594 296.800,378.800 296.593,378.800 295.818 C 378.800 295.278,379.250 294.386,379.800 293.836 C 380.436 293.201,380.800 292.386,380.800 291.599 C 380.800 290.793,381.149 290.039,381.800 289.435 C 382.563 288.728,382.800 288.107,382.800 286.817 C 382.800 285.458,382.959 285.084,383.604 284.915 C 384.047 284.799,384.516 284.276,384.648 283.752 C 384.779 283.228,385.034 282.800,385.215 282.800 C 386.194 282.800,386.800 281.414,386.800 279.171 C 386.800 276.909,386.846 276.800,387.800 276.800 C 388.733 276.800,388.800 276.667,388.800 274.800 C 388.800 273.700,388.980 272.778,389.200 272.750 C 389.420 272.723,389.825 272.678,390.100 272.650 C 390.665 272.594,390.681 272.507,390.750 269.200 C 390.798 266.920,390.850 266.800,391.800 266.800 C 392.778 266.800,392.800 266.733,392.800 263.800 C 392.800 260.867,392.822 260.800,393.800 260.800 C 394.773 260.800,394.800 260.723,394.800 257.958 C 394.800 255.402,394.901 255.036,395.800 254.329 C 396.757 253.576,396.800 253.355,396.800 249.199 C 396.800 244.999,396.830 244.851,397.700 244.728 C 398.570 244.604,398.604 244.438,398.712 239.700 C 398.804 235.708,398.933 234.800,399.412 234.800 C 399.925 234.800,400.000 230.367,400.000 200.200 C 400.000 169.711,399.929 165.600,399.400 165.600 C 398.902 165.600,398.800 164.823,398.800 161.009 C 398.800 156.554,398.771 156.399,397.800 155.763 C 396.879 155.160,396.800 154.867,396.795 152.054 C 396.788 148.237,396.522 147.200,395.553 147.200 C 394.875 147.200,394.800 146.863,394.800 143.809 C 394.800 140.634,394.736 140.377,393.800 139.763 C 392.923 139.189,392.800 138.822,392.800 136.783 C 392.800 134.551,392.186 133.200,391.171 133.200 C 390.967 133.200,390.800 132.371,390.800 131.358 C 390.800 129.879,390.607 129.363,389.820 128.744 C 389.018 128.113,388.817 127.556,388.720 125.686 C 388.616 123.707,388.493 123.400,387.800 123.400 C 387.133 123.400,386.967 123.067,386.800 121.400 C 386.630 119.704,386.463 119.381,385.700 119.272 C 384.914 119.161,384.799 118.907,384.794 117.272 C 384.789 115.916,384.681 115.565,384.400 116.000 C 384.051 116.540,383.828 116.290,383.953 115.500 C 383.979 115.335,383.730 115.200,383.400 115.200 C 382.947 115.200,382.800 114.711,382.800 113.200 C 382.800 112.100,382.665 111.221,382.500 111.247 C 381.057 111.475,380.800 111.166,380.800 109.200 C 380.800 108.100,380.665 107.221,380.500 107.247 C 379.057 107.475,378.800 107.166,378.800 105.200 C 378.800 103.333,378.733 103.200,377.800 103.200 C 376.948 103.200,376.793 103.008,376.754 101.900 C 376.669 99.519,376.618 99.399,375.700 99.432 C 375.004 99.456,374.800 99.242,374.800 98.489 C 374.800 97.933,374.381 97.186,373.825 96.748 C 373.230 96.280,372.801 95.477,372.725 94.690 C 372.630 93.714,372.386 93.370,371.722 93.275 C 371.001 93.173,370.822 92.849,370.722 91.475 C 370.628 90.188,370.392 89.709,369.700 89.405 C 369.148 89.163,368.800 88.660,368.800 88.105 C 368.800 87.406,368.572 87.200,367.800 87.200 C 366.928 87.200,366.800 87.025,366.800 85.829 C 366.800 84.527,365.978 83.200,365.171 83.200 C 364.967 83.200,364.800 82.750,364.800 82.200 C 364.800 81.462,364.588 81.200,363.987 81.200 C 363.069 81.200,362.849 80.796,362.683 78.800 C 362.586 77.646,362.411 77.406,361.683 77.432 C 360.973 77.457,360.800 77.242,360.800 76.332 C 360.800 75.391,360.631 75.200,359.800 75.200 C 359.000 75.200,358.800 75.000,358.800 74.200 C 358.800 73.408,358.598 73.200,357.828 73.200 C 357.124 73.200,356.820 72.951,356.728 72.300 C 356.646 71.722,356.278 71.354,355.700 71.272 C 354.833 71.149,354.534 70.224,354.783 68.443 C 354.895 67.645,354.028 67.213,352.300 67.206 C 350.968 67.201,350.800 67.088,350.800 66.200 C 350.800 65.400,350.600 65.200,349.800 65.200 C 349.015 65.200,348.800 64.996,348.800 64.255 C 348.800 63.735,348.314 62.823,347.720 62.229 C 347.125 61.635,346.597 60.863,346.546 60.514 C 346.438 59.774,345.654 59.201,344.800 59.238 C 344.458 59.252,344.397 59.344,344.658 59.451 C 344.909 59.554,345.025 59.984,344.914 60.406 C 344.174 63.237,340.006 59.932,340.668 57.039 C 341.118 55.073,340.554 53.911,338.910 53.419 C 338.421 53.273,337.675 52.713,337.253 52.176 C 336.830 51.639,336.106 51.200,335.642 51.200 C 334.991 51.200,334.799 50.950,334.795 50.100 C 334.786 48.403,334.362 47.200,333.772 47.200 C 333.477 47.200,332.786 46.750,332.236 46.200 C 331.608 45.571,330.784 45.200,330.018 45.200 C 328.985 45.200,328.800 45.048,328.800 44.200 C 328.800 43.400,328.600 43.200,327.800 43.200 C 327.000 43.200,326.800 43.000,326.800 42.200 C 326.800 41.400,326.600 41.200,325.800 41.200 C 325.000 41.200,324.800 41.000,324.800 40.200 C 324.800 39.400,324.600 39.200,323.800 39.200 C 323.250 39.200,322.800 39.033,322.800 38.829 C 322.800 38.022,321.473 37.200,320.171 37.200 C 318.975 37.200,318.800 37.072,318.800 36.200 C 318.800 35.650,318.665 35.221,318.500 35.247 C 316.367 35.584,314.800 35.141,314.800 34.200 C 314.800 33.400,314.600 33.200,313.800 33.200 C 313.000 33.200,312.800 33.000,312.800 32.200 C 312.800 31.650,312.665 31.221,312.500 31.247 C 310.367 31.584,308.800 31.141,308.800 30.200 C 308.800 29.400,308.600 29.200,307.800 29.200 C 307.030 29.200,306.800 28.993,306.799 28.300 C 306.799 27.528,306.560 27.384,305.117 27.284 C 303.205 27.153,303.178 27.138,303.034 26.137 C 302.951 25.565,302.516 25.373,301.089 25.279 C 299.545 25.178,299.230 25.017,299.125 24.279 C 299.040 23.679,298.679 23.363,297.987 23.282 C 297.401 23.214,296.811 22.792,296.587 22.282 C 296.282 21.586,295.809 21.375,294.343 21.280 C 292.725 21.175,292.512 21.059,292.689 20.380 C 292.802 19.951,292.737 19.580,292.547 19.555 C 292.356 19.531,291.570 19.441,290.800 19.356 C 288.956 19.151,288.300 18.885,288.570 18.448 C 288.974 17.794,287.825 17.322,285.624 17.237 C 283.124 17.141,282.658 16.948,282.968 16.139 C 283.093 15.815,283.016 15.666,282.795 15.803 C 282.578 15.937,282.400 15.857,282.400 15.624 C 282.400 15.391,282.040 15.200,281.600 15.200 C 281.160 15.200,280.778 15.020,280.750 14.800 C 280.723 14.580,280.678 14.175,280.650 13.900 C 280.616 13.562,279.649 13.362,277.664 13.282 C 275.416 13.191,274.776 13.039,274.933 12.630 C 275.280 11.725,274.325 11.200,272.333 11.200 C 270.748 11.200,270.467 11.092,270.671 10.560 C 271.038 9.602,270.078 9.213,267.328 9.206 C 265.071 9.201,264.845 9.122,264.728 8.300 C 264.611 7.479,264.354 7.389,261.800 7.273 C 260.260 7.203,258.939 6.975,258.864 6.766 C 258.429 5.547,257.437 5.200,254.390 5.200 C 251.559 5.200,251.134 5.098,250.236 4.200 C 249.297 3.261,248.982 3.200,245.046 3.200 C 241.005 3.200,240.851 3.168,240.728 2.300 C 240.604 1.427,240.445 1.397,235.500 1.288 C 231.330 1.197,230.400 1.069,230.400 0.588 C 230.400 -0.500,219.760 -0.255,219.474 0.840 C 219.238 1.741,218.400 1.535,218.400 0.576 C 218.400 0.081,215.082 0.000,194.800 0.000 C 174.089 0.000,171.200 0.073,171.200 0.600 M217.000 26.636 C 242.497 29.468,264.254 38.371,277.395 51.351 C 279.818 53.743,282.635 56.370,283.655 57.187 C 285.971 59.041,288.164 61.493,293.103 67.750 C 293.819 68.657,294.594 69.628,294.825 69.907 C 296.802 72.297,302.834 82.218,303.407 84.021 C 303.560 84.503,304.570 86.666,305.653 88.829 C 306.736 90.992,307.889 93.520,308.216 94.446 C 308.543 95.373,308.971 96.326,309.166 96.565 C 309.362 96.804,309.736 97.810,309.997 98.800 C 310.258 99.790,310.713 101.140,311.008 101.800 C 311.794 103.562,313.181 108.489,314.046 112.600 C 314.463 114.580,314.994 117.007,315.226 117.994 C 315.457 118.980,315.916 122.097,316.244 124.921 C 316.572 127.745,317.040 130.538,317.283 131.128 C 318.063 133.021,318.178 144.979,317.450 148.613 C 317.099 150.366,316.549 153.960,316.228 156.600 C 315.907 159.240,315.364 162.473,315.022 163.784 C 314.680 165.095,314.400 166.406,314.400 166.697 C 314.400 166.988,314.126 167.882,313.791 168.684 L 313.181 170.143 311.091 167.773 C 306.263 162.301,301.046 157.522,295.180 153.200 C 294.434 152.650,293.029 151.480,292.059 150.600 C 290.010 148.742,288.723 147.930,283.800 145.390 C 279.016 142.922,279.499 143.714,279.232 137.900 C 279.176 136.682,277.200 136.973,277.200 138.200 C 277.200 139.031,277.009 139.200,276.068 139.200 C 275.152 139.200,274.943 139.029,274.968 138.300 C 274.996 137.508,274.761 137.376,273.000 137.200 C 271.900 137.090,270.997 136.820,270.994 136.600 C 270.979 135.661,270.252 135.200,268.784 135.200 C 267.491 135.200,267.176 135.042,266.989 134.300 C 266.801 133.551,266.448 133.380,264.881 133.279 C 263.847 133.213,262.952 133.033,262.893 132.879 C 262.380 131.532,261.782 131.283,258.943 131.231 C 257.522 131.204,257.251 131.058,257.036 130.200 C 256.796 129.245,256.651 129.200,253.792 129.200 C 250.768 129.200,250.507 129.054,250.753 127.500 C 250.779 127.335,249.450 127.200,247.800 127.200 C 244.867 127.200,244.800 127.178,244.800 126.200 C 244.800 125.222,244.733 125.200,241.800 125.200 C 238.867 125.200,238.800 125.178,238.800 124.200 C 238.800 123.222,238.733 123.200,235.800 123.200 C 232.867 123.200,232.800 123.178,232.800 122.200 C 232.800 121.222,232.733 121.200,229.800 121.200 C 227.432 121.200,226.800 121.077,226.800 120.614 C 226.800 119.604,225.371 119.200,221.803 119.200 C 219.806 119.200,218.449 119.045,218.580 118.832 C 218.834 118.421,217.762 117.200,217.148 117.200 C 216.931 117.200,216.880 117.425,217.035 117.700 C 217.261 118.100,217.210 118.100,216.779 117.700 C 216.457 117.402,215.142 117.200,213.520 117.200 C 210.919 117.200,210.800 117.158,210.800 116.244 C 210.800 115.719,210.575 115.297,210.300 115.307 C 207.500 115.411,206.800 115.190,206.800 114.200 C 206.800 113.223,206.731 113.200,203.828 113.200 C 201.050 113.200,200.847 113.141,200.728 112.300 C 200.619 111.534,200.321 111.382,198.725 111.279 C 197.144 111.177,196.831 111.021,196.725 110.279 C 196.597 109.378,196.455 109.326,193.937 109.246 C 192.693 109.207,192.505 109.083,192.679 108.418 C 192.894 107.597,192.329 107.341,189.800 107.110 C 188.903 107.028,188.600 106.798,188.600 106.200 C 188.600 105.409,188.427 105.345,185.995 105.243 C 185.362 105.216,184.844 104.867,184.595 104.300 C 184.291 103.608,183.812 103.372,182.525 103.278 C 181.153 103.179,180.827 102.998,180.725 102.282 C 180.654 101.786,180.255 101.342,179.800 101.255 C 179.360 101.172,178.491 100.675,177.869 100.151 C 177.247 99.628,176.302 99.200,175.769 99.200 C 175.002 99.200,174.800 98.992,174.800 98.200 C 174.800 97.400,174.600 97.200,173.800 97.200 C 173.000 97.200,172.800 97.000,172.800 96.200 C 172.800 95.400,172.600 95.200,171.800 95.200 C 171.025 95.200,170.800 94.994,170.800 94.285 C 170.800 93.641,170.550 93.351,169.955 93.307 C 168.902 93.227,168.773 93.098,168.693 92.045 C 168.649 91.450,168.359 91.200,167.715 91.200 C 166.715 91.200,166.621 90.779,166.784 87.000 C 166.886 84.615,166.697 84.859,168.543 84.735 C 170.022 84.635,170.500 84.310,170.653 83.300 C 170.708 82.942,169.959 82.800,168.007 82.800 C 164.821 82.800,164.800 82.826,164.800 86.786 C 164.800 89.182,163.711 91.037,162.982 89.884 C 162.952 89.838,162.146 88.750,161.190 87.466 C 160.234 86.182,158.865 84.022,158.147 82.666 C 155.712 78.067,152.735 71.917,152.175 70.328 C 151.868 69.459,151.274 68.264,150.855 67.674 C 147.547 63.009,145.903 35.537,148.762 32.678 C 149.605 31.835,162.856 28.834,170.400 27.777 C 172.930 27.422,176.170 26.961,177.600 26.750 C 185.503 25.589,207.015 25.526,217.000 26.636 M114.566 54.800 C 113.548 62.341,114.006 76.515,115.424 81.373 C 115.741 82.458,116.000 83.904,116.000 84.588 C 116.000 85.272,116.373 86.544,116.829 87.415 C 117.285 88.287,118.348 90.902,119.191 93.227 C 120.901 97.943,123.026 102.410,126.062 107.670 C 128.029 111.078,128.075 111.227,127.448 112.183 C 127.092 112.727,126.800 113.538,126.800 113.986 C 126.800 114.588,126.539 114.800,125.800 114.800 C 124.716 114.800,124.244 118.009,125.238 118.624 C 126.050 119.126,126.935 117.800,126.425 116.847 C 126.126 116.288,126.113 116.000,126.386 116.000 C 126.614 116.000,126.755 115.775,126.700 115.500 C 126.640 115.201,127.122 114.950,127.900 114.875 C 129.006 114.768,129.200 114.879,129.200 115.617 C 129.200 116.094,129.650 116.839,130.200 117.271 C 130.907 117.828,131.200 118.446,131.200 119.384 C 131.200 120.726,131.535 120.932,134.282 121.273 C 134.548 121.306,134.677 121.475,134.570 121.649 C 134.462 121.823,134.065 121.868,133.687 121.750 C 133.309 121.632,133.487 121.856,134.083 122.250 C 134.679 122.643,135.219 123.333,135.283 123.782 C 135.383 124.481,135.690 124.600,137.400 124.600 C 139.199 124.600,139.413 124.695,139.534 125.546 C 139.608 126.068,140.011 126.582,140.434 126.693 C 140.855 126.803,141.200 127.052,141.200 127.247 C 141.200 127.731,140.105 127.694,139.800 127.200 C 139.405 126.560,137.333 126.713,137.333 127.382 C 137.333 127.703,137.451 127.892,137.595 127.803 C 137.999 127.554,139.248 129.179,139.313 130.037 C 139.354 130.587,139.675 130.800,140.462 130.800 C 141.643 130.800,142.318 131.406,141.502 131.734 C 141.208 131.853,141.300 131.950,141.724 131.968 C 142.122 131.986,142.355 132.150,142.241 132.333 C 142.128 132.517,142.297 132.667,142.618 132.667 C 143.391 132.667,143.376 130.953,142.600 130.655 C 141.874 130.377,141.801 128.936,142.500 128.693 C 142.775 128.598,143.360 128.862,143.800 129.281 C 145.285 130.694,149.916 134.189,152.439 135.800 C 153.817 136.680,155.677 137.889,156.572 138.486 C 157.468 139.084,158.830 139.946,159.600 140.403 C 160.370 140.859,162.530 142.147,164.400 143.266 C 166.270 144.384,169.690 146.290,172.000 147.503 C 174.310 148.715,176.824 150.171,177.587 150.740 C 179.158 151.911,183.151 153.968,183.888 153.987 C 184.157 153.994,185.327 154.429,186.488 154.954 C 187.650 155.478,189.950 156.484,191.600 157.190 C 193.250 157.895,195.281 158.815,196.112 159.236 C 196.944 159.656,197.801 160.000,198.017 160.000 C 198.232 160.000,199.172 160.346,200.104 160.770 C 202.797 161.992,206.853 163.618,208.678 164.207 C 209.602 164.505,210.772 164.971,211.278 165.243 C 211.785 165.515,214.450 166.503,217.200 167.439 C 219.950 168.374,224.540 170.074,227.400 171.217 C 232.366 173.200,235.940 174.587,239.372 175.862 C 240.237 176.183,241.690 176.785,242.600 177.200 C 243.510 177.615,244.963 178.220,245.828 178.545 C 251.603 180.717,252.811 181.189,254.600 181.977 C 255.700 182.461,256.901 183.130,257.269 183.463 C 257.637 183.795,261.417 185.821,265.669 187.964 C 269.921 190.107,275.706 193.242,278.523 194.930 C 281.341 196.619,283.775 198.000,283.932 198.000 C 286.141 198.000,303.249 212.536,305.824 216.600 C 306.242 217.260,307.690 219.245,309.042 221.012 C 310.394 222.778,312.631 225.928,314.014 228.012 C 315.398 230.095,317.042 232.393,317.668 233.118 C 320.069 235.897,324.346 245.865,325.839 252.161 C 326.365 254.382,326.972 256.740,327.186 257.400 C 329.271 263.803,329.176 282.477,327.012 292.017 C 325.937 296.753,323.720 304.297,323.196 305.000 C 323.032 305.220,322.771 305.850,322.615 306.400 C 322.109 308.187,317.888 317.377,317.195 318.200 C 316.825 318.640,315.928 320.080,315.203 321.400 C 310.033 330.806,298.823 345.636,296.125 346.638 L 294.946 347.075 295.116 341.238 C 295.292 335.182,294.248 324.830,293.027 320.530 C 292.725 319.468,292.363 317.880,292.221 317.000 C 291.934 315.211,289.432 307.736,288.565 306.074 C 288.257 305.483,288.004 304.854,288.002 304.675 C 287.996 303.857,285.307 298.765,283.738 296.600 C 279.112 290.218,278.473 288.983,278.832 287.121 C 279.465 283.848,279.336 283.079,278.200 283.364 C 277.327 283.583,277.200 283.484,277.200 282.581 C 277.200 281.371,276.519 279.939,275.719 279.468 C 275.409 279.285,274.983 278.682,274.772 278.127 C 274.539 277.514,274.173 277.202,273.839 277.330 C 273.472 277.470,273.208 277.141,273.049 276.344 C 272.917 275.686,272.664 275.237,272.486 275.347 C 271.974 275.663,271.157 274.993,271.037 274.160 C 270.977 273.742,270.550 273.344,270.088 273.275 C 269.581 273.200,269.200 272.805,269.125 272.275 C 269.043 271.704,268.669 271.353,268.046 271.265 C 267.521 271.191,266.711 270.759,266.246 270.306 C 265.781 269.853,265.625 269.609,265.900 269.765 C 266.175 269.920,266.400 269.844,266.400 269.597 C 266.400 269.328,266.077 269.249,265.600 269.400 C 265.160 269.540,264.800 269.485,264.800 269.279 C 264.800 269.073,264.395 268.926,263.900 268.952 C 263.168 268.991,263.004 268.794,263.022 267.900 C 263.035 267.283,262.828 266.800,262.552 266.800 C 262.280 266.800,261.999 266.493,261.927 266.117 C 261.835 265.637,261.348 265.409,260.288 265.349 C 258.746 265.262,256.298 264.025,253.333 261.833 C 252.416 261.155,250.796 260.109,249.733 259.509 C 248.670 258.909,246.540 257.611,245.000 256.624 C 243.460 255.638,241.030 254.165,239.600 253.352 C 238.170 252.538,236.460 251.424,235.800 250.875 C 234.725 249.982,232.944 249.078,225.125 245.454 C 223.873 244.874,222.715 244.400,222.551 244.400 C 222.387 244.400,221.521 244.052,220.626 243.626 C 219.732 243.201,218.010 242.505,216.800 242.081 C 214.545 241.290,203.703 236.916,194.800 233.205 C 192.050 232.059,188.720 230.673,187.400 230.125 C 186.080 229.577,184.370 228.949,183.600 228.729 C 182.830 228.509,180.760 227.700,179.000 226.930 C 177.240 226.160,175.260 225.298,174.600 225.015 C 165.649 221.173,160.411 218.595,158.173 216.929 C 157.498 216.427,155.338 215.286,153.373 214.393 C 148.466 212.164,143.044 209.464,142.789 209.123 C 142.672 208.967,142.222 208.696,141.788 208.520 C 141.354 208.344,139.199 207.156,136.999 205.881 C 123.827 198.243,109.162 187.872,106.574 184.365 C 106.110 183.736,103.995 181.419,101.874 179.216 C 94.949 172.023,90.776 166.232,86.296 157.600 C 84.869 154.850,83.420 152.060,83.077 151.400 C 81.655 148.667,79.813 141.850,78.592 134.800 C 77.802 130.237,77.799 116.675,78.588 111.800 C 79.686 105.017,82.324 95.345,83.230 94.782 C 83.423 94.663,85.188 91.116,87.153 86.900 C 92.790 74.806,98.236 67.078,108.857 56.100 C 111.530 53.338,113.518 51.600,114.005 51.600 C 114.442 51.600,114.800 51.390,114.800 51.133 C 114.800 50.877,114.863 50.742,114.940 50.833 C 115.016 50.925,114.848 52.710,114.566 54.800 M343.600 58.024 C 343.600 58.257,343.450 58.355,343.267 58.241 C 343.083 58.128,342.933 58.294,342.933 58.611 C 342.933 59.036,343.069 59.075,343.449 58.759 C 343.733 58.524,344.198 58.471,344.482 58.642 C 344.867 58.874,344.859 58.780,344.451 58.277 C 343.816 57.494,343.600 57.430,343.600 58.024 M189.000 78.776 C 188.110 78.942,187.788 79.232,187.752 79.900 L 187.704 80.800 199.152 80.800 L 210.600 80.800 210.600 79.800 C 210.600 79.088,210.370 78.782,209.800 78.737 C 207.471 78.552,190.025 78.586,189.000 78.776 M172.406 81.300 C 172.422 82.631,173.051 82.832,176.833 82.716 C 180.394 82.606,180.607 82.551,180.728 81.700 C 180.853 80.815,180.783 80.800,176.628 80.800 C 173.509 80.800,172.402 80.931,172.406 81.300 M215.600 80.984 C 215.600 82.097,217.566 82.800,220.675 82.800 C 223.955 82.800,224.000 82.786,224.000 81.800 L 224.000 80.800 219.800 80.800 C 217.490 80.800,215.600 80.883,215.600 80.984 M225.401 83.198 C 225.132 83.634,225.843 84.805,226.338 84.740 C 227.879 84.536,229.056 84.905,229.405 85.700 C 230.045 87.158,233.600 87.262,233.600 85.822 C 233.600 84.880,233.462 84.800,231.828 84.800 C 230.295 84.800,230.038 84.679,229.928 83.900 C 229.785 82.895,225.956 82.301,225.401 83.198 M235.272 87.700 C 235.478 89.152,238.400 89.268,238.400 87.824 C 238.400 86.893,238.252 86.800,236.772 86.800 C 235.313 86.800,235.158 86.893,235.272 87.700 M239.200 89.722 C 239.200 91.186,242.174 91.272,242.258 89.810 C 242.310 88.893,242.172 88.800,240.758 88.800 C 239.398 88.800,239.200 88.917,239.200 89.722 M243.292 91.800 C 243.353 92.541,243.604 92.800,244.260 92.800 C 244.795 92.800,245.247 93.117,245.400 93.600 C 245.540 94.040,245.777 94.414,245.927 94.431 C 246.077 94.447,246.515 94.522,246.900 94.595 C 247.285 94.669,247.600 94.578,247.600 94.393 C 247.600 94.208,247.905 93.752,248.278 93.379 C 248.915 92.742,248.855 92.711,247.278 92.861 C 245.672 93.014,245.600 92.974,245.600 91.911 C 245.600 90.944,245.445 90.800,244.404 90.800 C 243.374 90.800,243.220 90.938,243.292 91.800 M248.700 94.687 C 249.123 94.832,249.354 95.528,249.276 96.415 C 249.265 96.533,249.694 96.666,250.228 96.711 C 251.018 96.776,251.200 96.605,251.200 95.796 C 251.200 95.116,250.978 94.798,250.500 94.795 C 250.115 94.792,249.440 94.727,249.000 94.652 C 248.560 94.577,248.425 94.592,248.700 94.687 M251.791 97.231 C 252.197 98.291,253.428 98.819,253.493 97.960 C 253.524 97.551,253.383 97.113,253.179 96.987 C 252.972 96.859,252.925 97.076,253.072 97.479 C 253.313 98.139,253.261 98.134,252.451 97.422 C 251.855 96.899,251.639 96.837,251.791 97.231 M259.232 104.884 C 259.214 105.261,259.476 105.801,259.814 106.084 C 261.374 107.395,261.632 107.740,261.436 108.252 C 261.292 108.625,261.540 108.800,262.213 108.800 C 263.731 108.800,263.628 106.902,262.100 106.727 C 261.151 106.617,261.018 106.445,261.133 105.468 C 261.253 104.447,261.188 104.378,260.465 104.765 C 259.870 105.084,259.613 105.066,259.464 104.697 C 259.343 104.398,259.251 104.472,259.232 104.884 M265.458 112.251 C 265.709 112.354,265.827 112.774,265.720 113.185 C 265.594 113.667,265.821 114.090,266.362 114.380 C 266.865 114.649,267.200 115.223,267.200 115.814 C 267.200 116.599,267.404 116.800,268.200 116.800 C 269.209 116.800,269.774 114.872,268.800 114.750 C 268.580 114.722,268.175 114.678,267.900 114.650 C 267.625 114.623,267.344 114.015,267.275 113.300 C 267.166 112.177,267.003 112.004,266.075 112.032 C 265.484 112.049,265.206 112.148,265.458 112.251 M269.200 119.444 C 269.200 120.235,269.880 120.800,270.833 120.800 C 271.035 120.800,271.200 120.262,271.200 119.604 C 271.200 118.574,271.062 118.420,270.200 118.492 C 269.465 118.553,269.200 118.805,269.200 119.444 M122.800 120.800 C 122.800 122.667,122.733 122.800,121.800 122.800 C 120.867 122.800,120.800 122.934,120.800 124.796 C 120.800 126.664,120.862 126.786,121.772 126.711 C 122.306 126.666,122.735 126.533,122.724 126.415 C 122.507 123.967,122.854 122.800,123.800 122.800 C 124.933 122.800,125.269 120.665,124.300 119.621 C 123.900 119.190,123.900 119.139,124.300 119.365 C 124.575 119.520,124.800 119.457,124.800 119.224 C 124.800 118.991,124.350 118.800,123.800 118.800 C 122.867 118.800,122.800 118.933,122.800 120.800 M271.200 123.800 C 271.200 124.600,271.400 124.800,272.200 124.800 C 273.000 124.800,273.200 124.600,273.200 123.800 C 273.200 123.000,273.000 122.800,272.200 122.800 C 271.400 122.800,271.200 123.000,271.200 123.800 M273.200 127.945 C 273.200 129.453,273.968 130.800,274.829 130.800 C 275.033 130.800,275.200 131.601,275.200 132.580 C 275.200 133.853,275.399 134.476,275.900 134.768 C 276.288 134.994,276.377 135.181,276.100 135.188 C 275.350 135.206,275.498 135.917,276.346 136.371 C 277.040 136.743,277.097 136.565,277.160 133.813 C 277.229 130.856,277.229 130.856,276.114 130.728 C 274.994 130.599,274.864 129.975,275.336 127.000 C 275.371 126.780,274.905 126.543,274.300 126.473 C 273.262 126.354,273.200 126.438,273.200 127.945 M118.731 128.405 C 118.458 129.219,118.895 132.800,119.267 132.800 C 120.978 132.800,121.525 128.235,119.831 128.094 C 119.298 128.050,118.803 128.190,118.731 128.405 M116.800 136.414 C 116.800 138.654,116.854 138.799,117.553 138.425 C 119.196 137.546,119.394 134.000,117.800 134.000 C 116.844 134.000,116.800 134.106,116.800 136.414 M145.600 137.085 C 145.930 137.207,146.425 137.485,146.700 137.703 C 147.057 137.985,147.200 137.912,147.200 137.449 C 147.200 137.000,146.861 136.810,146.100 136.832 C 145.473 136.850,145.258 136.959,145.600 137.085 M146.300 138.377 C 146.795 138.790,147.200 139.504,147.200 139.964 C 147.200 140.589,147.452 140.800,148.200 140.800 C 149.916 140.800,149.633 138.603,147.900 138.472 C 147.185 138.419,146.540 138.200,146.467 137.987 C 146.393 137.774,146.123 137.606,145.867 137.613 C 145.610 137.621,145.805 137.964,146.300 138.377 M149.600 141.130 C 149.600 141.312,150.037 141.871,150.571 142.373 C 151.105 142.875,151.455 143.512,151.348 143.790 C 151.153 144.299,152.562 144.905,152.977 144.490 C 153.596 143.871,153.143 142.800,152.262 142.800 C 151.746 142.800,150.981 142.409,150.562 141.932 C 149.878 141.153,149.872 141.090,150.500 141.320 C 150.885 141.460,151.200 141.401,151.200 141.187 C 151.200 140.974,150.840 140.800,150.400 140.800 C 149.960 140.800,149.600 140.949,149.600 141.130 M153.357 145.433 C 153.491 145.781,153.600 146.231,153.600 146.433 C 153.600 146.635,153.735 146.779,153.900 146.753 C 154.826 146.606,155.200 146.908,155.200 147.800 C 155.200 148.600,155.400 148.800,156.200 148.800 C 156.750 148.800,157.222 148.980,157.250 149.200 C 157.278 149.420,157.322 149.825,157.350 150.100 C 157.456 151.157,159.200 150.926,159.200 149.856 C 159.200 149.123,158.959 148.821,158.300 148.728 C 157.730 148.647,157.354 148.279,157.275 147.725 C 157.198 147.179,156.821 146.802,156.275 146.725 C 155.721 146.646,155.353 146.270,155.272 145.700 C 155.178 145.037,154.877 144.800,154.129 144.800 C 153.368 144.800,153.175 144.958,153.357 145.433 M161.200 153.773 C 161.200 154.538,161.436 154.774,162.300 154.873 C 163.117 154.967,163.389 155.210,163.359 155.818 C 163.294 157.101,165.054 157.078,165.299 155.792 C 165.458 154.963,165.334 154.800,164.545 154.800 C 163.804 154.800,163.600 154.584,163.600 153.800 C 163.600 152.956,163.413 152.800,162.400 152.800 C 161.395 152.800,161.200 152.959,161.200 153.773 M116.800 157.558 C 116.800 159.821,116.840 159.913,117.800 159.858 C 118.899 159.794,119.347 156.385,118.338 155.762 C 118.052 155.585,117.985 155.652,118.162 155.938 C 118.319 156.192,118.257 156.400,118.024 156.400 C 117.791 156.400,117.600 156.130,117.600 155.800 C 117.600 155.470,117.420 155.200,117.200 155.200 C 116.979 155.200,116.800 156.253,116.800 157.558 M165.600 157.138 C 165.600 157.324,165.960 157.802,166.400 158.200 C 167.181 158.907,167.200 158.899,167.200 157.862 C 167.200 157.067,166.999 156.800,166.400 156.800 C 165.960 156.800,165.600 156.952,165.600 157.138 M169.338 159.417 C 169.011 160.270,169.449 160.574,171.287 160.769 C 171.446 160.786,171.478 161.052,171.360 161.360 C 171.115 162.000,171.793 162.524,173.100 162.704 C 173.709 162.787,174.000 162.621,174.000 162.190 C 174.000 161.840,174.178 161.663,174.395 161.797 C 174.619 161.935,174.691 161.781,174.561 161.443 C 174.429 161.099,173.708 160.792,172.866 160.722 C 171.696 160.625,171.374 160.418,171.272 159.700 C 171.123 158.653,169.711 158.446,169.338 159.417 M118.800 163.055 C 118.800 165.087,118.854 165.200,119.820 165.200 C 121.309 165.200,121.226 161.375,119.730 161.089 C 118.850 160.921,118.800 161.027,118.800 163.055 M175.200 163.717 C 175.200 164.573,175.370 164.678,176.700 164.641 C 178.898 164.581,178.898 163.058,176.700 162.876 C 175.347 162.764,175.200 162.846,175.200 163.717 M179.272 165.700 C 179.478 167.152,182.400 167.268,182.400 165.824 C 182.400 164.893,182.252 164.800,180.772 164.800 C 179.313 164.800,179.158 164.893,179.272 165.700 M183.272 167.700 C 183.404 168.626,183.494 168.665,185.705 168.750 C 186.647 168.786,187.120 169.051,187.405 169.700 C 188.009 171.076,191.200 171.112,191.200 169.742 C 191.200 168.892,191.024 168.800,189.400 168.800 C 187.652 168.800,187.402 168.595,187.570 167.300 C 187.615 166.952,186.954 166.800,185.390 166.800 C 183.290 166.800,183.153 166.858,183.272 167.700 M120.800 168.396 C 120.800 169.426,120.938 169.580,121.800 169.508 C 122.607 169.441,122.800 169.211,122.800 168.313 C 122.800 167.392,122.627 167.200,121.800 167.200 C 120.956 167.200,120.800 167.387,120.800 168.396 M193.200 171.800 C 193.200 172.676,193.373 172.800,194.600 172.800 C 195.827 172.800,196.000 172.676,196.000 171.800 C 196.000 170.924,195.827 170.800,194.600 170.800 C 193.373 170.800,193.200 170.924,193.200 171.800 M122.800 172.447 C 122.800 173.561,122.906 173.673,123.800 173.502 C 124.706 173.329,124.800 173.437,124.800 174.655 C 124.800 176.016,125.023 176.196,126.167 175.757 C 126.965 175.451,126.980 174.647,126.200 174.000 C 125.785 173.656,125.600 173.641,125.600 173.951 C 125.600 174.198,125.780 174.400,126.000 174.400 C 126.220 174.400,126.400 174.602,126.400 174.849 C 126.400 175.804,125.321 174.382,124.849 172.805 C 124.227 170.730,122.800 170.481,122.800 172.447 M197.200 173.830 C 197.200 174.805,197.300 174.854,199.044 174.747 C 200.654 174.648,200.989 174.771,201.678 175.717 C 202.817 177.281,206.000 177.342,206.000 175.800 C 206.000 174.844,205.893 174.800,203.600 174.800 C 201.307 174.800,201.200 174.756,201.200 173.800 C 201.200 172.867,201.067 172.800,199.200 172.800 C 197.318 172.800,197.200 172.861,197.200 173.830 M207.200 177.800 C 207.200 178.733,207.333 178.800,209.200 178.800 C 211.067 178.800,211.200 178.733,211.200 177.800 C 211.200 176.867,211.067 176.800,209.200 176.800 C 207.333 176.800,207.200 176.867,207.200 177.800 M211.600 178.984 C 211.600 180.705,216.179 181.468,216.498 179.800 C 216.686 178.818,216.643 178.800,214.145 178.800 C 212.745 178.800,211.600 178.883,211.600 178.984 M128.800 180.428 C 128.800 181.472,128.934 181.637,129.700 181.528 C 131.115 181.327,131.230 179.200,129.827 179.200 C 128.947 179.200,128.800 179.376,128.800 180.428 M217.600 181.118 C 217.600 181.315,217.940 181.783,218.354 182.159 C 219.214 182.937,223.064 183.000,222.421 182.226 C 222.227 181.992,222.055 181.620,222.039 181.400 C 222.002 180.903,217.600 180.624,217.600 181.118 M223.200 183.386 C 223.200 184.640,226.115 185.319,226.557 184.167 C 227.011 182.984,226.801 182.800,225.000 182.800 C 223.686 182.800,223.200 182.958,223.200 183.386 M227.293 185.781 C 227.222 186.647,227.374 186.799,228.304 186.794 C 230.628 186.781,231.061 185.072,228.789 184.881 C 227.530 184.775,227.369 184.872,227.293 185.781 M231.300 187.800 C 231.300 188.743,231.423 188.800,233.450 188.800 C 235.477 188.800,235.600 188.743,235.600 187.800 C 235.600 186.857,235.477 186.800,233.450 186.800 C 231.423 186.800,231.300 186.857,231.300 187.800 M235.402 189.197 C 234.900 190.009,235.978 190.687,237.701 190.643 C 239.118 190.607,239.399 190.467,239.399 189.800 C 239.400 188.889,235.917 188.363,235.402 189.197 M241.272 191.700 C 241.476 193.137,244.000 193.253,244.000 191.825 C 244.000 190.916,243.838 190.800,242.572 190.800 C 241.320 190.800,241.160 190.911,241.272 191.700 M140.414 191.974 C 139.791 193.138,139.886 193.262,141.297 193.125 C 142.231 193.035,142.628 192.777,142.718 192.200 C 142.821 191.540,142.770 191.505,142.428 192.000 C 142.054 192.539,141.826 192.299,141.953 191.500 C 142.054 190.858,140.806 191.242,140.414 191.974 M245.272 193.700 C 245.473 195.115,247.600 195.230,247.600 193.827 C 247.600 192.947,247.424 192.800,246.372 192.800 C 245.328 192.800,245.163 192.934,245.272 193.700 M142.680 193.736 C 142.397 194.472,142.844 195.078,143.800 195.258 C 144.263 195.345,144.654 195.786,144.728 196.304 C 144.848 197.146,146.822 197.717,146.787 196.900 C 146.764 196.358,145.721 195.200,145.256 195.200 C 145.005 195.200,144.800 194.859,144.800 194.443 C 144.800 193.318,143.062 192.739,142.680 193.736 M249.326 195.590 C 249.494 196.691,249.810 196.914,250.770 196.610 C 252.122 196.180,251.842 194.800,250.403 194.800 C 249.436 194.800,249.228 194.952,249.326 195.590 M253.200 197.567 C 253.200 198.111,253.685 198.495,254.875 198.892 C 255.796 199.199,256.593 199.668,256.645 199.935 C 256.697 200.202,256.649 200.236,256.537 200.010 C 256.425 199.785,256.146 199.600,255.918 199.600 C 254.797 199.600,256.610 200.736,257.932 200.862 C 259.369 200.999,259.426 200.959,259.271 199.903 C 259.120 198.872,258.982 198.800,257.155 198.800 C 255.336 198.800,255.200 198.730,255.200 197.800 C 255.200 197.000,255.000 196.800,254.200 196.800 C 253.481 196.800,253.200 197.016,253.200 197.567 M148.260 197.517 C 147.787 198.324,148.775 199.494,149.769 199.304 C 151.329 199.006,151.205 197.428,149.612 197.317 C 148.960 197.272,148.351 197.362,148.260 197.517 M152.800 200.242 C 152.800 200.997,153.012 201.200,153.800 201.200 C 154.594 201.200,154.800 201.401,154.800 202.178 C 154.800 203.061,154.985 203.168,156.700 203.278 C 157.853 203.352,158.620 203.597,158.650 203.900 C 158.678 204.175,158.722 204.580,158.750 204.800 C 158.813 205.302,160.800 205.333,160.800 204.833 C 160.800 203.941,160.258 203.200,159.606 203.200 C 159.216 203.200,158.651 202.831,158.349 202.381 C 157.887 201.692,157.097 201.411,155.100 201.228 C 154.935 201.212,154.800 200.795,154.800 200.300 C 154.800 199.622,154.553 199.386,153.800 199.342 C 152.996 199.296,152.800 199.472,152.800 200.242 M261.338 203.417 C 261.029 204.224,261.346 204.503,262.748 204.656 C 263.741 204.765,263.900 204.646,263.900 203.791 C 263.900 202.621,261.763 202.309,261.338 203.417 M162.000 206.167 C 162.000 207.285,163.699 208.061,164.467 207.293 C 165.275 206.485,164.650 205.405,163.297 205.275 C 162.141 205.163,162.000 205.260,162.000 206.167 M165.798 208.007 C 165.453 209.092,165.641 209.262,167.271 209.338 C 168.438 209.392,168.600 209.278,168.600 208.400 C 168.600 207.011,166.220 206.677,165.798 208.007 M169.984 210.029 C 169.425 211.074,169.580 211.231,171.258 211.325 C 172.420 211.390,172.616 211.264,172.718 210.386 C 172.879 209.005,170.686 208.718,169.984 210.029 M173.496 212.167 C 173.838 213.959,176.800 213.951,176.800 212.157 C 176.800 211.294,176.629 211.200,175.055 211.200 C 173.426 211.200,173.323 211.264,173.496 212.167 M178.492 214.200 C 178.414 215.136,178.529 215.200,180.274 215.200 L 182.139 215.200 181.200 214.200 C 180.683 213.650,179.881 213.200,179.418 213.200 C 178.807 213.200,178.552 213.476,178.492 214.200 M273.600 215.120 C 273.600 215.296,273.816 215.656,274.080 215.920 C 274.785 216.625,275.200 216.507,275.200 215.600 C 275.200 215.067,274.933 214.800,274.400 214.800 C 273.960 214.800,273.600 214.944,273.600 215.120 M182.660 216.093 C 182.364 217.225,182.772 217.637,183.899 217.342 C 184.534 217.176,184.761 216.842,184.705 216.155 C 184.598 214.867,182.993 214.818,182.660 216.093 M275.292 217.800 C 275.354 218.550,275.602 218.800,276.287 218.800 C 276.994 218.800,277.200 218.575,277.200 217.800 C 277.200 217.001,277.000 216.800,276.204 216.800 C 275.387 216.800,275.224 216.979,275.292 217.800 M186.400 218.147 C 186.400 219.150,186.500 219.200,188.500 219.206 C 190.897 219.213,191.825 219.636,191.471 220.560 C 191.268 221.088,191.538 221.200,193.013 221.200 C 195.800 221.200,195.697 219.455,192.900 219.283 C 191.559 219.200,190.817 218.927,190.377 218.355 C 189.311 216.967,186.400 216.815,186.400 218.147 M277.403 220.795 C 277.253 221.037,277.372 221.532,277.666 221.894 C 278.116 222.450,278.112 222.501,277.638 222.215 C 277.257 221.985,277.168 222.025,277.362 222.338 C 277.519 222.592,277.997 222.800,278.424 222.800 C 278.958 222.800,279.204 223.080,279.213 223.700 C 279.219 224.195,279.651 224.910,280.172 225.288 L 281.118 225.976 281.268 224.406 C 281.404 222.984,281.324 222.824,280.425 222.718 C 279.744 222.637,279.358 222.286,279.198 221.602 C 278.951 220.546,277.860 220.056,277.403 220.795 M196.400 222.200 C 196.400 223.044,196.587 223.200,197.600 223.200 C 198.613 223.200,198.800 223.044,198.800 222.200 C 198.800 221.356,198.613 221.200,197.600 221.200 C 196.587 221.200,196.400 221.356,196.400 222.200 M82.004 227.600 C 83.238 228.810,84.777 230.235,85.424 230.766 C 86.071 231.297,87.860 232.833,89.400 234.180 C 93.942 238.151,100.661 242.883,107.200 246.717 C 112.432 249.784,112.800 250.263,112.800 254.004 C 112.800 256.996,112.836 257.114,113.800 257.298 C 114.706 257.471,114.800 257.363,114.800 256.145 L 114.800 254.800 116.972 254.800 C 118.920 254.800,119.158 254.893,119.272 255.700 C 119.381 256.468,119.679 256.618,121.300 256.722 C 123.015 256.832,123.200 256.939,123.200 257.822 C 123.200 258.727,123.347 258.800,125.172 258.800 C 126.913 258.800,127.159 258.906,127.272 259.700 C 127.381 260.466,127.679 260.618,129.275 260.721 C 130.856 260.823,131.169 260.979,131.275 261.721 C 131.389 262.521,131.660 262.611,134.300 262.718 C 137.063 262.830,137.200 262.880,137.200 263.797 C 137.200 264.675,137.383 264.769,139.300 264.879 C 141.093 264.982,141.400 265.117,141.400 265.800 C 141.400 266.516,141.706 266.612,144.300 266.718 C 147.081 266.830,147.200 266.875,147.200 267.818 C 147.200 268.773,147.281 268.800,150.200 268.800 C 151.850 268.800,153.200 268.967,153.200 269.171 C 153.200 270.207,154.553 270.800,156.929 270.807 C 159.036 270.813,159.539 270.960,160.342 271.807 C 161.177 272.687,161.615 272.800,164.199 272.800 C 167.082 272.800,168.073 273.310,167.378 274.436 C 167.250 274.643,168.479 274.800,170.219 274.800 C 173.013 274.800,173.355 274.889,174.071 275.800 C 174.799 276.725,175.110 276.800,178.229 276.800 C 180.923 276.800,181.600 276.918,181.600 277.386 C 181.600 278.367,183.000 278.800,186.174 278.800 C 189.135 278.800,189.200 278.821,189.200 279.800 C 189.200 280.778,189.267 280.800,192.200 280.800 C 195.133 280.800,195.200 280.822,195.200 281.800 C 195.200 282.350,195.335 282.779,195.500 282.753 C 197.434 282.447,199.109 282.883,199.527 283.800 C 199.903 284.625,200.264 284.800,201.591 284.800 C 203.033 284.800,203.284 284.969,203.166 285.855 C 203.097 286.367,204.235 286.788,205.700 286.794 C 207.032 286.799,207.200 286.912,207.200 287.800 C 207.200 288.731,207.335 288.800,209.172 288.800 C 210.913 288.800,211.159 288.906,211.272 289.700 C 211.364 290.344,211.712 290.636,212.500 290.727 C 213.115 290.797,213.600 291.100,213.600 291.412 C 213.600 292.126,214.850 292.800,216.174 292.800 C 216.738 292.800,217.200 292.967,217.200 293.171 C 217.200 293.972,218.523 294.800,219.801 294.800 C 220.888 294.800,221.169 294.971,221.272 295.696 C 221.346 296.214,221.737 296.655,222.200 296.742 C 223.141 296.919,223.666 297.596,223.408 298.300 C 223.295 298.610,223.582 298.800,224.167 298.800 C 224.729 298.800,225.372 299.202,225.763 299.800 C 226.254 300.549,226.767 300.800,227.809 300.800 C 229.026 300.800,229.200 300.925,229.200 301.800 C 229.200 302.592,229.402 302.800,230.172 302.800 C 230.876 302.800,231.180 303.049,231.272 303.700 C 231.354 304.278,231.722 304.646,232.300 304.728 C 232.935 304.818,233.200 305.126,233.200 305.773 C 233.200 306.685,234.949 308.800,235.704 308.800 C 235.920 308.800,235.851 309.099,235.549 309.464 C 235.046 310.072,235.171 310.105,237.054 309.856 L 239.108 309.585 240.907 312.492 C 241.896 314.092,243.638 317.380,244.776 319.800 C 247.526 325.646,247.386 325.320,248.819 329.200 C 249.509 331.070,250.502 333.590,251.025 334.800 C 253.935 341.530,254.501 364.857,251.820 367.549 C 251.003 368.370,247.452 369.492,243.400 370.210 C 241.420 370.560,239.388 371.016,238.884 371.223 C 238.379 371.429,236.669 371.788,235.084 372.019 C 233.498 372.251,230.040 372.784,227.400 373.204 C 213.754 375.372,175.809 375.507,172.399 373.399 C 172.259 373.313,170.357 372.944,168.172 372.580 C 165.987 372.216,161.860 371.286,159.000 370.515 C 156.140 369.743,152.608 368.795,151.150 368.408 C 149.693 368.020,147.083 367.118,145.350 366.403 C 143.618 365.688,141.390 364.776,140.400 364.377 C 134.141 361.852,121.907 354.417,119.407 351.619 C 118.971 351.131,117.711 350.083,116.607 349.289 C 112.337 346.220,103.343 336.797,98.395 330.209 C 96.372 327.515,96.026 327.023,93.846 323.740 C 92.991 322.453,91.991 320.950,91.622 320.400 C 91.254 319.850,89.542 316.610,87.817 313.200 C 86.093 309.790,84.271 306.459,83.768 305.798 C 81.821 303.236,77.097 290.551,76.023 285.000 C 75.768 283.680,75.304 281.520,74.993 280.200 C 72.575 269.933,71.414 248.715,72.761 239.400 C 75.177 222.689,75.907 220.641,78.363 223.676 C 79.131 224.624,80.769 226.390,82.004 227.600 M200.769 223.555 C 200.753 223.690,200.678 224.115,200.605 224.500 C 200.490 225.098,200.791 225.200,202.663 225.200 C 204.708 225.200,204.847 225.139,204.728 224.300 C 204.607 223.447,200.871 222.744,200.769 223.555 M206.000 226.141 C 206.000 227.243,206.507 227.545,207.906 227.278 C 209.421 226.988,208.950 225.434,207.300 225.275 C 206.149 225.164,206.000 225.263,206.000 226.141 M281.200 227.229 C 281.200 227.464,281.457 227.914,281.771 228.229 C 282.086 228.543,282.536 228.800,282.771 228.800 C 283.007 228.800,283.200 229.250,283.200 229.800 C 283.200 231.253,283.222 231.343,283.734 231.977 C 284.110 232.442,284.084 232.488,283.600 232.218 C 283.103 231.940,283.089 231.978,283.517 232.438 C 283.950 232.904,284.087 232.906,284.368 232.451 C 284.650 231.996,284.734 231.997,284.896 232.455 C 285.002 232.755,285.159 232.068,285.245 230.930 C 285.394 228.942,285.356 228.850,284.300 228.640 C 283.534 228.487,283.200 228.174,283.200 227.610 C 283.200 227.013,282.937 226.800,282.200 226.800 C 281.650 226.800,281.200 226.993,281.200 227.229 M210.400 228.200 C 210.400 229.145,210.520 229.200,212.600 229.200 C 214.886 229.200,215.237 228.894,214.171 227.829 C 213.069 226.726,210.400 226.989,210.400 228.200 M215.200 230.237 C 215.200 231.197,216.157 231.560,217.900 231.261 C 219.844 230.928,219.059 229.184,217.000 229.262 C 215.416 229.322,215.200 229.438,215.200 230.237 M222.684 232.400 C 222.799 232.840,223.170 233.200,223.509 233.200 C 224.026 233.200,224.009 233.073,223.400 232.400 C 223.002 231.960,222.631 231.600,222.575 231.600 C 222.520 231.600,222.569 231.960,222.684 232.400 M224.800 234.200 C 224.800 235.119,224.947 235.200,226.600 235.200 C 228.242 235.200,228.400 235.286,228.400 236.176 C 228.400 237.351,228.923 237.742,230.027 237.391 C 231.087 237.055,230.919 235.469,229.800 235.255 C 229.360 235.172,228.491 234.675,227.869 234.151 C 226.315 232.844,224.800 232.868,224.800 234.200 M285.355 234.174 C 284.803 235.611,285.392 238.597,286.251 238.721 C 287.137 238.848,287.783 236.187,287.308 234.369 C 287.073 233.473,285.677 233.334,285.355 234.174 M232.400 238.188 C 232.400 238.866,232.729 239.236,233.600 239.540 C 234.260 239.770,234.800 240.238,234.800 240.579 C 234.800 240.975,235.163 241.200,235.800 241.200 C 236.600 241.200,236.800 241.000,236.800 240.200 C 236.800 239.400,236.600 239.200,235.800 239.200 C 235.017 239.200,234.800 238.996,234.800 238.261 C 234.800 237.492,234.583 237.316,233.600 237.288 C 232.599 237.259,232.400 237.409,232.400 238.188 M238.643 241.833 C 238.210 242.959,238.379 243.200,239.600 243.200 C 240.667 243.200,240.800 243.333,240.800 244.400 C 240.800 245.415,240.955 245.600,241.806 245.600 C 242.678 245.600,242.800 245.440,242.721 244.400 C 242.648 243.443,242.445 243.200,241.715 243.200 C 241.185 243.200,240.800 242.957,240.800 242.624 C 240.800 242.307,240.592 241.919,240.338 241.762 C 240.052 241.585,239.985 241.652,240.162 241.938 C 240.319 242.192,240.257 242.400,240.024 242.400 C 239.791 242.400,239.600 242.130,239.600 241.800 C 239.600 241.008,238.951 241.030,238.643 241.833 M287.481 241.852 C 287.343 241.991,287.223 246.446,287.216 251.752 L 287.202 261.400 288.201 261.458 C 288.962 261.502,289.210 261.311,289.243 260.658 C 289.396 257.633,289.432 243.239,289.288 242.500 C 289.124 241.653,288.061 241.272,287.481 241.852 M243.481 246.243 C 242.785 247.170,242.787 247.200,243.539 247.200 C 244.380 247.200,244.886 246.383,244.463 245.707 C 244.305 245.454,243.914 245.667,243.481 246.243 M245.067 247.467 C 244.495 248.038,244.816 249.200,245.545 249.200 C 246.123 249.200,246.246 248.977,246.098 248.200 C 245.907 247.202,245.571 246.963,245.067 247.467 M247.295 249.665 C 246.482 250.478,246.730 251.139,247.900 251.273 C 248.834 251.381,248.981 251.562,248.875 252.475 C 248.720 253.805,249.914 255.092,251.469 255.271 C 252.301 255.366,252.649 255.662,252.798 256.400 C 252.949 257.147,253.291 257.431,254.153 257.523 C 255.183 257.634,255.279 257.548,255.058 256.723 C 254.922 256.216,254.808 255.665,254.805 255.500 C 254.802 255.335,254.393 255.200,253.895 255.200 C 253.346 255.200,252.834 254.851,252.595 254.313 C 252.378 253.825,251.784 253.330,251.276 253.213 C 250.768 253.096,250.363 252.865,250.376 252.700 C 250.444 251.836,250.304 251.657,249.194 251.197 C 248.168 250.772,248.063 250.604,248.494 250.072 C 248.820 249.668,248.835 249.545,248.534 249.726 C 248.278 249.879,248.006 249.817,247.929 249.587 C 247.839 249.318,247.614 249.346,247.295 249.665 M255.491 257.653 C 254.342 258.296,254.653 259.200,256.025 259.200 C 256.952 259.200,257.233 259.370,257.179 259.900 C 257.045 261.214,257.200 261.550,257.914 261.496 C 258.936 261.420,258.809 260.024,257.714 259.307 C 257.211 258.978,256.800 258.469,256.800 258.178 C 256.800 257.413,256.287 257.208,255.491 257.653 M114.800 261.255 C 114.800 262.868,114.956 263.598,115.300 263.594 C 117.114 263.572,117.507 259.428,115.727 259.088 C 114.843 258.919,114.800 259.020,114.800 261.255 M258.800 262.376 C 258.800 262.839,259.567 263.340,260.497 263.485 C 261.114 263.582,261.102 263.502,260.397 262.797 C 259.551 261.951,258.800 261.753,258.800 262.376 M116.800 266.400 C 116.800 267.321,116.980 267.600,117.576 267.600 C 118.615 267.600,118.931 266.993,118.404 266.008 C 117.738 264.764,116.800 264.993,116.800 266.400 M285.310 266.300 C 285.157 268.162,285.550 269.200,286.408 269.200 C 287.092 269.200,287.200 268.927,287.200 267.200 C 287.200 264.841,285.496 264.030,285.310 266.300 M118.800 269.813 C 118.800 271.879,118.855 272.000,119.800 272.000 C 120.935 272.000,121.154 270.814,120.346 269.041 C 119.463 267.103,118.800 267.434,118.800 269.813 M283.539 271.525 C 283.506 271.676,283.436 271.980,283.385 272.200 C 283.334 272.420,283.272 273.252,283.246 274.048 C 283.207 275.283,283.068 275.489,282.302 275.448 C 281.002 275.379,281.052 276.951,282.356 277.135 C 283.105 277.241,283.258 277.128,283.060 276.613 C 282.876 276.133,283.131 275.843,284.004 275.539 C 285.541 275.003,285.877 271.421,284.400 271.310 C 283.960 271.277,283.573 271.374,283.539 271.525 M120.800 274.433 C 120.800 275.261,121.029 275.551,121.800 275.698 C 122.696 275.869,122.800 275.758,122.800 274.625 C 122.800 273.542,122.656 273.360,121.800 273.360 C 120.982 273.360,120.800 273.555,120.800 274.433 M122.800 278.590 C 122.800 279.514,122.980 280.012,123.300 279.970 C 124.598 279.802,124.800 280.051,124.800 281.828 C 124.800 283.492,124.880 283.644,125.696 283.528 C 126.967 283.347,127.047 282.103,125.868 280.860 C 125.315 280.277,124.803 279.260,124.731 278.600 C 124.518 276.649,122.800 276.639,122.800 278.590 M279.287 280.259 C 279.224 281.022,279.402 281.200,280.232 281.200 C 281.065 281.200,281.232 281.032,281.128 280.300 C 280.946 279.018,279.392 278.983,279.287 280.259 M128.800 288.348 C 128.800 289.331,128.949 289.481,129.889 289.443 C 130.792 289.407,130.979 289.570,130.989 290.400 C 130.997 291.138,131.224 291.411,131.856 291.443 C 132.441 291.473,132.673 291.282,132.587 290.843 C 132.518 290.489,132.447 290.077,132.431 289.927 C 132.414 289.777,132.040 289.540,131.600 289.400 C 131.117 289.247,130.800 288.795,130.800 288.260 C 130.800 287.604,130.541 287.353,129.800 287.292 C 128.948 287.221,128.800 287.378,128.800 288.348 M134.873 296.300 C 134.947 296.943,135.215 297.356,135.519 297.294 C 135.804 297.235,136.227 297.730,136.458 298.394 C 136.725 299.160,137.153 299.600,137.632 299.600 C 138.101 299.600,138.479 299.976,138.636 300.600 C 138.898 301.647,139.123 301.758,140.167 301.357 C 141.246 300.943,140.971 299.200,139.828 299.200 C 139.124 299.200,138.820 298.951,138.728 298.300 C 138.646 297.722,138.278 297.354,137.700 297.272 C 137.049 297.180,136.800 296.876,136.800 296.172 C 136.800 295.395,136.594 295.200,135.773 295.200 C 134.890 295.200,134.764 295.353,134.873 296.300 M144.492 304.200 C 144.420 305.062,144.574 305.200,145.604 305.200 C 146.936 305.200,147.113 304.770,146.171 303.829 C 145.254 302.911,144.586 303.059,144.492 304.200 M146.533 305.830 C 146.249 306.571,146.700 307.083,147.800 307.267 C 148.402 307.367,148.629 307.150,148.718 306.389 C 148.858 305.192,146.964 304.708,146.533 305.830 M148.800 308.196 C 148.800 309.129,148.936 309.200,150.733 309.200 C 152.491 309.200,152.660 309.118,152.601 308.300 C 152.494 306.841,148.800 306.740,148.800 308.196 M153.200 309.871 C 153.200 310.162,153.391 310.400,153.624 310.400 C 153.857 310.400,153.936 310.580,153.800 310.800 C 153.661 311.026,153.985 311.200,154.544 311.200 C 156.058 311.200,156.800 311.609,156.800 312.443 C 156.800 313.086,157.105 313.200,158.828 313.200 C 161.715 313.200,161.702 311.483,158.813 311.283 C 156.817 311.145,156.612 311.033,156.605 310.072 C 156.601 309.553,156.212 309.393,154.900 309.371 C 153.743 309.352,153.200 309.512,153.200 309.871 M161.908 314.231 C 162.223 315.880,164.956 315.896,164.721 314.248 C 164.625 313.574,164.306 313.391,163.167 313.358 C 161.880 313.321,161.751 313.410,161.908 314.231 M166.800 316.172 C 166.800 317.009,166.991 317.200,167.828 317.200 C 169.196 317.200,169.081 315.468,167.700 315.272 C 166.967 315.168,166.800 315.335,166.800 316.172 M232.337 316.267 L 231.461 317.200 232.430 317.197 C 233.053 317.195,233.554 316.861,233.831 316.264 C 234.416 315.001,233.525 315.003,232.337 316.267 M170.400 318.157 C 170.400 319.372,171.708 319.744,174.680 319.373 C 176.350 319.164,176.797 318.968,176.624 318.518 C 176.501 318.197,176.400 317.769,176.400 317.567 C 176.400 317.365,175.050 317.200,173.400 317.200 C 170.503 317.200,170.400 317.233,170.400 318.157 M223.467 317.467 C 222.566 318.367,223.284 319.100,225.300 319.336 C 228.502 319.712,230.286 319.307,230.507 318.154 C 230.688 317.207,224.346 316.588,223.467 317.467 M181.200 320.156 C 181.200 320.730,181.425 321.214,181.700 321.231 C 185.777 321.486,218.001 321.218,217.300 320.935 C 217.025 320.824,216.800 320.372,216.800 319.931 C 216.800 318.830,203.247 319.031,200.653 320.170 C 199.195 320.811,199.013 320.810,197.453 320.154 C 196.153 319.608,194.240 319.422,188.500 319.286 L 181.200 319.112 181.200 320.156 " stroke="none" fill="#c3c3c4" fill-rule="evenodd"></path><path id="path1" d="M218.471 0.621 C 218.652 1.490,219.361 1.543,219.524 0.700 C 219.608 0.262,219.412 0.000,219.000 0.000 C 218.616 0.000,218.395 0.259,218.471 0.621 M117.569 15.367 C 116.977 16.012,117.397 16.746,118.030 16.173 C 118.454 15.789,118.800 15.444,118.800 15.405 C 118.800 15.336,117.631 15.299,117.569 15.367 M187.400 26.021 C 183.440 26.212,179.030 26.540,177.600 26.750 C 176.170 26.961,172.930 27.422,170.400 27.777 C 162.856 28.834,149.605 31.835,148.762 32.678 C 145.903 35.537,147.547 63.009,150.855 67.674 C 151.274 68.264,151.868 69.459,152.175 70.328 C 152.735 71.917,155.712 78.067,158.147 82.666 C 158.865 84.022,160.234 86.182,161.190 87.466 C 162.146 88.750,162.952 89.838,162.982 89.884 C 163.711 91.037,164.800 89.182,164.800 86.786 C 164.800 82.694,164.687 82.800,169.050 82.800 L 172.815 82.800 172.566 81.809 L 172.318 80.818 180.059 80.709 C 187.734 80.601,187.800 80.593,187.754 79.726 C 187.695 78.589,189.686 78.407,200.600 78.550 C 211.246 78.690,210.670 78.624,210.632 79.700 C 210.594 80.761,210.142 80.695,217.900 80.754 L 224.000 80.800 224.000 81.800 C 224.000 82.475,224.227 82.809,224.700 82.828 C 225.085 82.843,226.390 82.888,227.600 82.928 C 229.551 82.992,229.814 83.102,229.928 83.900 C 230.038 84.679,230.295 84.800,231.828 84.800 C 233.451 84.800,233.600 84.884,233.600 85.800 C 233.600 86.756,233.707 86.800,236.000 86.800 C 238.293 86.800,238.400 86.844,238.400 87.800 C 238.400 88.733,238.534 88.800,240.395 88.800 C 242.226 88.800,242.383 88.874,242.295 89.700 C 242.212 90.491,242.406 90.615,243.900 90.723 C 245.453 90.835,245.600 90.940,245.600 91.934 C 245.600 92.970,245.680 93.014,247.278 92.861 C 248.855 92.711,248.915 92.742,248.278 93.379 C 247.410 94.247,247.418 94.664,248.300 94.660 C 250.828 94.649,251.200 94.795,251.200 95.800 C 251.200 96.350,251.391 96.800,251.624 96.800 C 251.857 96.800,251.933 96.984,251.794 97.210 C 251.655 97.435,251.771 97.570,252.052 97.510 C 252.333 97.449,252.572 97.670,252.582 98.000 C 252.600 98.598,252.750 98.655,254.545 98.750 C 255.336 98.792,255.457 98.967,255.291 99.834 C 255.119 100.737,255.215 100.851,256.047 100.734 C 256.830 100.624,257.023 100.797,257.127 101.700 C 257.226 102.564,257.462 102.800,258.227 102.800 C 258.762 102.800,259.223 102.980,259.250 103.200 C 259.278 103.420,259.345 103.780,259.400 104.000 C 259.455 104.220,259.522 104.586,259.550 104.814 C 259.583 105.091,259.876 105.081,260.433 104.782 C 261.195 104.375,261.254 104.433,261.133 105.468 C 261.018 106.445,261.151 106.617,262.100 106.727 C 263.066 106.838,263.200 107.023,263.200 108.250 C 263.200 109.019,263.350 109.555,263.533 109.441 C 263.717 109.328,263.867 109.489,263.867 109.800 C 263.867 110.111,263.717 110.272,263.533 110.159 C 263.350 110.045,263.200 110.143,263.200 110.376 C 263.200 110.609,263.650 110.800,264.200 110.800 C 264.822 110.800,265.200 111.027,265.200 111.400 C 265.200 111.769,265.575 112.000,266.175 112.000 C 266.982 112.000,267.171 112.223,267.275 113.300 C 267.344 114.015,267.625 114.623,267.900 114.650 C 268.175 114.678,268.570 114.722,268.778 114.750 C 268.986 114.778,269.211 115.655,269.278 116.700 C 269.388 118.412,269.489 118.588,270.300 118.475 C 271.140 118.358,271.200 118.497,271.200 120.575 C 271.200 122.682,271.253 122.800,272.200 122.800 C 273.116 122.800,273.200 122.948,273.200 124.573 C 273.200 126.211,273.284 126.357,274.300 126.473 C 275.404 126.600,275.534 127.237,275.064 130.200 C 275.029 130.420,275.507 130.658,276.127 130.729 C 277.234 130.856,277.252 130.901,277.195 133.329 C 277.104 137.214,277.100 137.200,278.200 137.200 C 278.873 137.200,279.210 137.429,279.232 137.900 C 279.499 143.714,279.016 142.922,283.800 145.390 C 288.723 147.930,290.010 148.742,292.059 150.600 C 293.029 151.480,294.434 152.650,295.180 153.200 C 301.046 157.522,306.263 162.301,311.091 167.773 L 313.181 170.143 313.791 168.684 C 314.126 167.882,314.400 166.988,314.400 166.697 C 314.400 166.406,314.680 165.095,315.022 163.784 C 315.364 162.473,315.907 159.240,316.228 156.600 C 316.549 153.960,317.099 150.366,317.450 148.613 C 318.178 144.979,318.063 133.021,317.283 131.128 C 317.040 130.538,316.572 127.745,316.244 124.921 C 315.916 122.097,315.457 118.980,315.226 117.994 C 314.994 117.007,314.463 114.580,314.046 112.600 C 313.181 108.489,311.794 103.562,311.008 101.800 C 310.713 101.140,310.258 99.790,309.997 98.800 C 309.736 97.810,309.362 96.804,309.166 96.565 C 308.971 96.326,308.543 95.373,308.216 94.446 C 307.889 93.520,306.736 90.992,305.653 88.829 C 304.570 86.666,303.560 84.503,303.407 84.021 C 302.834 82.218,296.802 72.297,294.825 69.907 C 294.594 69.628,293.819 68.657,293.103 67.750 C 288.164 61.493,285.971 59.041,283.655 57.187 C 282.635 56.370,279.818 53.743,277.395 51.351 C 259.028 33.208,226.749 24.124,187.400 26.021 M114.800 51.133 C 114.800 51.390,114.442 51.600,114.005 51.600 C 113.518 51.600,111.530 53.338,108.857 56.100 C 98.236 67.078,92.790 74.806,87.153 86.900 C 85.188 91.116,83.423 94.663,83.230 94.782 C 82.324 95.345,79.686 105.017,78.588 111.800 C 77.799 116.675,77.802 130.237,78.592 134.800 C 79.813 141.850,81.655 148.667,83.077 151.400 C 83.420 152.060,84.869 154.850,86.296 157.600 C 90.776 166.232,94.949 172.023,101.874 179.216 C 103.995 181.419,106.110 183.736,106.574 184.365 C 109.162 187.872,123.827 198.243,136.999 205.881 C 139.199 207.156,141.354 208.344,141.788 208.520 C 142.222 208.696,142.672 208.967,142.789 209.123 C 143.044 209.464,148.466 212.164,153.373 214.393 C 155.338 215.286,157.498 216.427,158.173 216.929 C 160.411 218.595,165.649 221.173,174.600 225.015 C 175.260 225.298,177.240 226.160,179.000 226.930 C 180.760 227.700,182.830 228.509,183.600 228.729 C 184.370 228.949,186.080 229.577,187.400 230.125 C 188.720 230.673,192.050 232.059,194.800 233.205 C 203.703 236.916,214.545 241.290,216.800 242.081 C 218.010 242.505,219.732 243.201,220.626 243.626 C 221.521 244.052,222.387 244.400,222.551 244.400 C 222.715 244.400,223.873 244.874,225.125 245.454 C 232.944 249.078,234.725 249.982,235.800 250.875 C 236.460 251.424,238.170 252.538,239.600 253.352 C 241.030 254.165,243.460 255.638,245.000 256.624 C 246.540 257.611,248.670 258.909,249.733 259.509 C 250.796 260.109,252.416 261.155,253.333 261.833 C 257.879 265.194,261.200 266.340,261.200 264.548 C 261.200 264.026,261.020 263.578,260.800 263.550 C 260.001 263.450,259.791 263.382,259.273 263.053 C 258.983 262.870,258.842 262.467,258.960 262.160 C 259.375 261.078,258.780 260.280,258.160 261.088 C 257.497 261.955,256.774 261.186,257.096 259.956 C 257.259 259.331,257.071 259.200,256.017 259.200 C 255.014 259.200,254.772 259.051,254.886 258.500 C 254.966 258.115,255.337 257.825,255.711 257.855 C 256.085 257.885,256.310 257.779,256.212 257.619 C 256.113 257.459,255.350 257.353,254.516 257.385 C 253.190 257.435,252.975 257.314,252.798 256.421 C 252.648 255.660,252.309 255.367,251.469 255.271 C 249.914 255.092,248.720 253.805,248.875 252.475 C 248.981 251.562,248.834 251.381,247.900 251.273 C 246.738 251.140,246.481 250.479,247.280 249.680 C 247.653 249.307,247.653 249.200,247.280 249.200 C 247.016 249.200,246.800 248.750,246.800 248.200 C 246.800 247.650,246.599 247.200,246.353 247.200 C 246.093 247.200,245.986 247.616,246.098 248.200 C 246.247 248.979,246.123 249.200,245.538 249.200 C 244.986 249.200,244.787 248.909,244.786 248.100 C 244.783 245.100,244.769 245.004,244.419 245.569 C 244.229 245.876,244.167 246.369,244.280 246.664 C 244.414 247.015,244.173 247.200,243.581 247.200 C 242.730 247.200,242.715 247.157,243.338 246.469 C 244.337 245.365,244.155 245.166,242.400 245.446 C 240.820 245.699,240.800 245.687,240.800 244.451 C 240.800 243.318,240.683 243.200,239.557 243.200 C 238.430 243.200,238.337 243.106,238.564 242.200 C 238.807 241.233,238.749 241.200,236.808 241.200 C 235.260 241.200,234.800 241.058,234.800 240.579 C 234.800 240.238,234.260 239.770,233.600 239.540 C 232.701 239.227,232.400 238.873,232.400 238.128 C 232.400 237.190,232.293 237.142,230.500 237.267 C 228.687 237.394,228.594 237.350,228.473 236.300 C 228.357 235.284,228.211 235.200,226.573 235.200 C 224.948 235.200,224.800 235.116,224.800 234.200 C 224.800 233.400,224.600 233.200,223.800 233.200 C 222.879 233.200,222.557 232.665,222.761 231.474 C 222.792 231.294,221.509 231.172,219.909 231.203 C 215.115 231.295,215.200 231.313,215.200 230.200 C 215.200 229.244,215.093 229.200,212.800 229.200 C 210.488 229.200,210.400 229.162,210.400 228.170 C 210.400 227.214,210.277 227.144,208.700 227.207 C 206.103 227.310,206.000 227.271,206.000 226.200 C 206.000 225.229,205.918 225.200,203.226 225.200 C 200.486 225.200,200.455 225.188,200.634 224.200 C 200.810 223.232,200.745 223.200,198.608 223.200 C 196.519 223.200,196.400 223.146,196.400 222.200 C 196.400 221.236,196.306 221.200,193.813 221.200 C 191.604 221.200,191.261 221.106,191.471 220.560 C 191.825 219.636,190.897 219.213,188.500 219.206 C 186.509 219.200,186.400 219.146,186.400 218.164 C 186.400 217.176,186.313 217.134,184.500 217.264 C 182.638 217.397,182.602 217.378,182.715 216.300 C 182.828 215.217,182.795 215.200,180.590 215.200 C 178.496 215.200,178.358 215.141,178.475 214.300 C 178.588 213.486,178.428 213.396,176.800 213.360 C 173.840 213.295,173.661 213.237,173.528 212.300 C 173.419 211.536,173.139 211.391,171.677 211.344 C 169.587 211.275,169.400 211.121,170.013 209.976 C 170.477 209.109,170.446 209.090,168.945 209.330 C 166.543 209.714,165.488 209.302,165.790 208.097 C 166.027 207.152,165.973 207.116,164.673 207.360 C 162.852 207.701,162.000 207.318,162.000 206.157 C 162.000 205.307,161.821 205.200,160.400 205.200 C 159.520 205.200,158.778 205.020,158.750 204.800 C 158.722 204.580,158.678 204.175,158.650 203.900 C 158.620 203.597,157.853 203.352,156.700 203.278 C 154.985 203.168,154.800 203.061,154.800 202.178 C 154.800 201.401,154.594 201.200,153.800 201.200 C 152.992 201.200,152.800 201.002,152.800 200.170 C 152.800 199.183,152.715 199.145,150.733 199.250 C 148.722 199.357,147.643 198.589,148.274 197.500 C 148.369 197.335,147.639 197.200,146.651 197.200 C 145.094 197.200,144.839 197.081,144.728 196.300 C 144.646 195.722,144.278 195.354,143.700 195.272 C 142.820 195.147,142.649 194.837,142.766 193.579 C 142.811 193.097,142.508 192.995,141.412 193.123 C 139.886 193.301,139.775 193.168,140.427 191.950 C 140.754 191.338,140.731 191.169,140.327 191.224 C 139.145 191.383,138.800 191.152,138.800 190.200 C 138.800 189.408,138.598 189.200,137.828 189.200 C 137.124 189.200,136.820 188.951,136.728 188.300 C 136.646 187.722,136.278 187.354,135.700 187.272 C 135.049 187.180,134.800 186.876,134.800 186.172 C 134.800 185.409,134.591 185.200,133.828 185.200 C 133.124 185.200,132.820 184.951,132.728 184.300 C 132.646 183.722,132.278 183.354,131.700 183.272 C 131.066 183.182,130.800 182.874,130.800 182.228 C 130.800 181.466,130.631 181.343,129.800 181.502 C 128.829 181.688,128.800 181.627,128.800 179.447 C 128.800 177.317,128.748 177.200,127.800 177.200 C 127.064 177.200,126.800 176.987,126.800 176.392 C 126.800 175.731,126.619 175.630,125.800 175.836 C 124.877 176.067,124.800 175.980,124.800 174.699 C 124.800 173.443,124.707 173.329,123.822 173.498 C 122.895 173.675,122.838 173.574,122.722 171.542 C 122.610 169.579,122.525 169.410,121.700 169.525 C 120.860 169.642,120.800 169.503,120.800 167.425 C 120.800 165.329,120.743 165.200,119.818 165.200 C 118.885 165.200,118.831 165.068,118.718 162.500 C 118.607 159.969,118.544 159.806,117.700 159.895 C 116.832 159.987,116.800 159.873,116.795 156.695 C 116.793 154.883,116.776 150.520,116.759 147.000 C 116.692 133.600,116.659 134.000,117.828 134.000 C 118.828 134.000,118.854 133.933,118.796 131.500 C 118.711 127.902,118.702 127.936,119.700 128.075 C 120.547 128.193,120.607 128.042,120.718 125.500 C 120.831 122.932,120.885 122.800,121.818 122.800 C 122.730 122.800,122.800 122.657,122.800 120.800 C 122.800 118.885,122.847 118.800,123.900 118.800 C 124.972 118.800,124.996 118.749,124.861 116.800 C 124.728 114.878,124.763 114.800,125.761 114.800 C 126.539 114.800,126.800 114.596,126.800 113.986 C 126.800 113.538,127.092 112.727,127.448 112.183 C 128.075 111.227,128.029 111.078,126.062 107.670 C 123.026 102.410,120.901 97.943,119.191 93.227 C 118.348 90.902,117.285 88.287,116.829 87.415 C 116.373 86.544,116.000 85.272,116.000 84.588 C 116.000 83.904,115.741 82.458,115.424 81.373 C 114.006 76.515,113.548 62.341,114.566 54.800 C 114.848 52.710,115.016 50.925,114.940 50.833 C 114.863 50.742,114.800 50.877,114.800 51.133 M59.200 56.200 C 59.200 57.000,59.000 57.200,58.200 57.200 C 57.400 57.200,57.200 57.400,57.200 58.200 C 57.200 59.000,57.000 59.200,56.200 59.200 C 55.400 59.200,55.200 59.400,55.200 60.200 C 55.200 61.044,55.387 61.200,56.400 61.200 C 57.060 61.200,57.600 61.016,57.600 60.790 C 57.600 60.565,58.053 60.208,58.607 59.997 C 59.161 59.787,59.787 59.161,59.997 58.607 C 60.208 58.053,60.565 57.600,60.790 57.600 C 61.016 57.600,61.200 57.060,61.200 56.400 C 61.200 55.387,61.044 55.200,60.200 55.200 C 59.400 55.200,59.200 55.400,59.200 56.200 M341.060 55.503 C 339.682 57.733,341.823 62.091,343.963 61.412 C 344.713 61.174,345.428 59.600,344.786 59.600 C 344.599 59.600,344.515 59.244,344.598 58.808 C 344.682 58.373,344.554 57.895,344.314 57.747 C 344.073 57.598,343.983 57.648,344.112 57.858 C 344.242 58.068,344.030 58.439,343.641 58.682 C 343.094 59.023,342.933 59.000,342.933 58.579 C 342.933 58.280,343.083 58.128,343.267 58.241 C 343.450 58.355,343.600 58.156,343.600 57.800 C 343.600 57.444,343.420 57.264,343.200 57.400 C 342.980 57.536,342.778 57.457,342.750 57.224 C 342.655 56.415,342.586 56.197,342.270 55.700 C 341.914 55.139,341.343 55.046,341.060 55.503 M15.570 117.385 C 15.275 117.533,15.327 119.200,15.626 119.200 C 15.858 119.200,15.949 119.040,15.828 118.845 C 15.556 118.405,16.575 117.508,16.937 117.870 C 17.082 118.015,17.200 117.935,17.200 117.692 C 17.200 117.370,16.037 117.151,15.570 117.385 M133.605 121.612 C 134.040 121.886,134.059 121.989,133.676 121.994 C 133.388 121.997,133.264 122.180,133.400 122.400 C 133.536 122.620,133.847 122.800,134.090 122.800 C 134.334 122.800,134.415 122.682,134.270 122.537 C 134.125 122.392,134.176 122.070,134.383 121.820 C 134.642 121.508,134.487 121.347,133.885 121.301 C 133.193 121.249,133.135 121.314,133.605 121.612 M137.700 124.660 C 136.595 125.116,137.127 126.800,138.376 126.800 C 139.023 126.800,139.664 126.980,139.800 127.200 C 140.105 127.694,141.200 127.731,141.200 127.247 C 141.200 127.052,140.855 126.803,140.434 126.693 C 140.013 126.583,139.608 126.069,139.534 125.550 C 139.401 124.618,138.667 124.261,137.700 124.660 M137.333 127.789 C 137.333 128.106,137.573 128.458,137.867 128.570 C 138.160 128.683,138.400 128.623,138.400 128.436 C 138.400 128.250,138.160 127.899,137.867 127.655 C 137.464 127.321,137.333 127.354,137.333 127.789 M142.500 128.693 C 141.801 128.936,141.874 130.377,142.600 130.655 C 143.020 130.817,143.200 131.472,143.200 132.843 C 143.200 133.919,143.335 134.779,143.500 134.753 C 144.682 134.566,145.200 134.885,145.200 135.800 C 145.200 136.600,145.400 136.800,146.200 136.800 C 146.856 136.800,147.200 137.023,147.200 137.449 C 147.200 137.974,147.088 138.005,146.613 137.611 C 146.291 137.343,145.796 137.217,145.513 137.331 C 145.177 137.466,145.230 137.548,145.667 137.568 C 146.033 137.586,146.393 137.774,146.467 137.987 C 146.540 138.200,147.185 138.419,147.900 138.472 C 149.032 138.558,149.200 138.714,149.200 139.685 C 149.200 140.608,149.373 140.800,150.200 140.800 C 150.750 140.800,151.200 140.960,151.200 141.156 C 151.200 141.351,150.975 141.486,150.700 141.456 C 150.425 141.425,150.155 141.580,150.100 141.800 C 150.045 142.020,150.165 142.200,150.367 142.200 C 150.568 142.200,150.868 142.335,151.033 142.500 C 151.198 142.665,151.774 142.800,152.313 142.800 C 153.143 142.800,153.264 142.953,153.102 143.800 C 152.935 144.674,153.052 144.800,154.028 144.800 C 154.881 144.800,155.174 145.012,155.272 145.700 C 155.353 146.270,155.721 146.646,156.275 146.725 C 156.821 146.802,157.198 147.179,157.275 147.725 C 157.354 148.279,157.730 148.647,158.300 148.728 C 159.186 148.854,159.452 149.829,159.221 152.100 C 159.161 152.691,159.495 152.800,161.375 152.800 C 163.482 152.800,163.600 152.853,163.600 153.800 C 163.600 154.584,163.804 154.800,164.545 154.800 C 165.336 154.800,165.458 154.962,165.298 155.800 C 165.133 156.661,165.253 156.800,166.153 156.800 C 167.003 156.800,167.200 156.988,167.200 157.800 C 167.200 158.826,167.789 159.019,170.300 158.816 C 171.127 158.749,171.398 159.301,171.278 160.808 C 171.269 160.922,171.942 160.950,172.774 160.871 C 173.899 160.764,174.351 160.895,174.539 161.384 C 174.686 161.769,174.627 161.940,174.395 161.797 C 174.178 161.663,174.000 161.824,174.000 162.155 C 174.000 162.601,174.549 162.790,176.100 162.879 C 177.992 162.988,178.195 163.089,178.152 163.900 C 178.108 164.728,178.277 164.800,180.252 164.800 C 182.277 164.800,182.400 164.857,182.400 165.800 C 182.400 166.765,182.492 166.800,185.018 166.800 C 186.880 166.800,187.616 166.944,187.570 167.300 C 187.402 168.595,187.652 168.800,189.400 168.800 C 191.053 168.800,191.200 168.881,191.200 169.800 C 191.200 170.756,191.307 170.800,193.600 170.800 C 195.893 170.800,196.000 170.844,196.000 171.800 C 196.000 172.764,196.093 172.800,198.600 172.800 C 201.107 172.800,201.200 172.836,201.200 173.800 C 201.200 174.756,201.307 174.800,203.600 174.800 C 205.893 174.800,206.000 174.844,206.000 175.800 C 206.000 176.764,206.093 176.800,208.600 176.800 C 211.107 176.800,211.200 176.836,211.200 177.800 C 211.200 178.770,211.284 178.800,213.945 178.800 C 216.643 178.800,216.686 178.817,216.501 179.782 C 216.317 180.744,216.372 180.766,219.257 180.882 C 222.005 180.992,222.197 181.058,222.154 181.882 C 222.128 182.367,222.218 182.751,222.354 182.735 C 225.047 182.412,226.873 182.856,226.641 183.778 C 226.409 184.702,226.502 184.763,228.298 184.878 C 230.167 184.998,230.867 185.745,229.813 186.494 C 229.586 186.656,230.815 186.791,232.545 186.794 L 235.691 186.800 235.529 187.900 C 235.370 188.976,235.410 189.000,237.383 189.000 C 239.222 189.000,239.396 189.079,239.352 189.900 C 239.308 190.737,239.470 190.800,241.652 190.800 C 243.890 190.800,244.000 190.847,244.000 191.800 C 244.000 192.719,244.147 192.800,245.800 192.800 C 247.453 192.800,247.600 192.881,247.600 193.800 C 247.600 194.733,247.733 194.800,249.600 194.800 C 251.581 194.800,252.569 195.942,251.100 196.535 C 250.825 196.646,251.635 196.751,252.900 196.768 C 255.078 196.798,255.200 196.853,255.200 197.800 C 255.200 198.733,255.333 198.800,257.200 198.800 C 259.373 198.800,259.283 198.665,259.302 201.922 C 259.306 202.564,259.485 202.776,259.890 202.621 C 260.210 202.498,260.678 202.525,260.930 202.681 C 261.182 202.836,261.987 202.912,262.719 202.849 C 263.645 202.769,264.028 202.897,263.978 203.267 C 263.831 204.347,264.015 204.800,264.600 204.800 C 264.973 204.800,265.200 205.178,265.200 205.800 C 265.200 206.600,265.400 206.800,266.200 206.800 C 267.000 206.800,267.200 207.000,267.200 207.800 C 267.200 208.600,267.400 208.800,268.200 208.800 C 269.000 208.800,269.200 209.000,269.200 209.800 C 269.200 210.600,269.400 210.800,270.200 210.800 C 271.000 210.800,271.200 211.000,271.200 211.800 C 271.200 212.634,271.390 212.800,272.345 212.800 C 273.350 212.800,273.466 212.922,273.298 213.800 C 273.133 214.661,273.253 214.800,274.153 214.800 C 275.003 214.800,275.200 214.988,275.200 215.800 C 275.200 216.600,275.400 216.800,276.200 216.800 C 277.129 216.800,277.200 216.938,277.200 218.732 C 277.200 220.462,277.291 220.660,278.075 220.632 C 278.691 220.609,279.021 220.896,279.191 221.600 C 279.355 222.280,279.746 222.637,280.416 222.717 C 281.335 222.826,281.391 222.964,281.261 224.817 C 281.128 226.721,281.164 226.800,282.161 226.800 C 282.938 226.800,283.200 227.005,283.200 227.610 C 283.200 228.174,283.534 228.487,284.300 228.639 C 285.379 228.854,285.397 228.907,285.268 231.380 C 285.136 233.900,285.137 233.901,286.168 233.704 C 287.364 233.475,287.342 233.379,287.212 238.452 L 287.124 241.904 288.109 241.715 C 289.440 241.461,289.480 241.778,289.375 251.600 C 289.257 262.529,289.357 261.607,288.300 261.495 C 287.283 261.388,287.311 261.271,287.246 265.900 C 287.201 269.110,286.240 270.621,285.465 268.700 C 285.354 268.425,285.249 269.763,285.232 271.673 C 285.200 275.179,284.614 276.274,283.229 275.418 C 283.011 275.283,282.931 275.633,283.042 276.242 C 283.214 277.194,283.132 277.280,282.217 277.105 C 281.158 276.903,280.959 277.519,281.184 280.300 C 281.243 281.019,281.050 281.200,280.229 281.200 C 279.257 281.200,279.199 281.316,279.183 283.300 C 279.173 284.455,279.015 286.175,278.832 287.121 C 278.473 288.983,279.112 290.218,283.738 296.600 C 285.401 298.894,287.569 303.073,288.201 305.200 C 288.364 305.750,288.633 306.380,288.798 306.600 C 289.306 307.279,291.949 315.307,292.221 317.000 C 292.363 317.880,292.725 319.468,293.027 320.530 C 294.248 324.830,295.292 335.182,295.116 341.238 L 294.946 347.075 296.125 346.638 C 298.823 345.636,310.033 330.806,315.203 321.400 C 315.928 320.080,316.825 318.640,317.195 318.200 C 317.888 317.377,322.109 308.187,322.615 306.400 C 322.771 305.850,323.032 305.220,323.196 305.000 C 323.720 304.297,325.937 296.753,327.012 292.017 C 329.176 282.477,329.271 263.803,327.186 257.400 C 326.972 256.740,326.365 254.382,325.839 252.161 C 324.346 245.865,320.069 235.897,317.668 233.118 C 317.042 232.393,315.398 230.095,314.014 228.012 C 312.631 225.928,310.394 222.778,309.042 221.012 C 307.690 219.245,306.242 217.260,305.824 216.600 C 303.249 212.536,286.141 198.000,283.932 198.000 C 283.775 198.000,281.341 196.619,278.523 194.930 C 275.706 193.242,269.921 190.107,265.669 187.964 C 261.417 185.821,257.637 183.795,257.269 183.463 C 256.901 183.130,255.700 182.461,254.600 181.977 C 252.811 181.189,251.603 180.717,245.828 178.545 C 244.963 178.220,243.510 177.615,242.600 177.200 C 241.690 176.785,240.237 176.183,239.372 175.862 C 235.940 174.587,232.366 173.200,227.400 171.217 C 224.540 170.074,219.950 168.374,217.200 167.439 C 214.450 166.503,211.785 165.515,211.278 165.243 C 210.772 164.971,209.602 164.505,208.678 164.207 C 206.853 163.618,202.797 161.992,200.104 160.770 C 199.172 160.346,198.232 160.000,198.017 160.000 C 197.801 160.000,196.944 159.656,196.112 159.236 C 195.281 158.815,193.250 157.895,191.600 157.190 C 189.950 156.484,187.650 155.478,186.488 154.954 C 185.327 154.429,184.157 153.994,183.888 153.987 C 183.151 153.968,179.158 151.911,177.587 150.740 C 176.824 150.171,174.310 148.715,172.000 147.503 C 169.690 146.290,166.270 144.384,164.400 143.266 C 162.530 142.147,160.370 140.859,159.600 140.403 C 158.830 139.946,157.468 139.084,156.572 138.486 C 155.677 137.889,153.817 136.680,152.439 135.800 C 149.916 134.189,145.285 130.694,143.800 129.281 C 143.360 128.862,142.775 128.598,142.500 128.693 M141.200 132.375 C 141.200 132.581,141.548 132.724,141.972 132.692 C 142.397 132.660,142.656 132.491,142.549 132.317 C 142.275 131.873,141.200 131.920,141.200 132.375 M125.246 173.651 C 125.221 174.009,125.470 174.526,125.800 174.800 C 126.215 175.144,126.400 175.159,126.400 174.849 C 126.400 174.602,126.233 174.400,126.029 174.400 C 125.825 174.400,125.576 174.085,125.476 173.700 C 125.321 173.109,125.286 173.102,125.246 173.651 M76.345 222.676 C 75.270 223.927,74.435 227.822,72.761 239.400 C 71.414 248.715,72.575 269.933,74.993 280.200 C 75.304 281.520,75.768 283.680,76.023 285.000 C 77.097 290.551,81.821 303.236,83.768 305.798 C 84.271 306.459,86.093 309.790,87.817 313.200 C 89.542 316.610,91.254 319.850,91.622 320.400 C 91.991 320.950,92.991 322.453,93.846 323.740 C 96.026 327.023,96.372 327.515,98.395 330.209 C 103.343 336.797,112.337 346.220,116.607 349.289 C 117.711 350.083,118.971 351.131,119.407 351.619 C 121.907 354.417,134.141 361.852,140.400 364.377 C 141.390 364.776,143.618 365.688,145.350 366.403 C 147.083 367.118,149.693 368.020,151.150 368.408 C 152.608 368.795,156.140 369.743,159.000 370.515 C 161.860 371.286,165.987 372.216,168.172 372.580 C 170.357 372.944,172.259 373.313,172.399 373.399 C 175.809 375.507,213.754 375.372,227.400 373.204 C 230.040 372.784,233.498 372.251,235.084 372.019 C 236.669 371.788,238.379 371.429,238.884 371.223 C 239.388 371.016,241.420 370.560,243.400 370.210 C 247.452 369.492,251.003 368.370,251.820 367.549 C 254.501 364.857,253.935 341.530,251.025 334.800 C 250.502 333.590,249.509 331.070,248.819 329.200 C 247.386 325.320,247.526 325.646,244.776 319.800 C 241.246 312.296,239.311 309.478,237.885 309.763 C 237.233 309.893,236.362 310.000,235.950 310.000 C 235.294 310.000,235.200 310.324,235.200 312.600 C 235.200 315.080,235.030 315.426,233.900 315.247 C 233.735 315.221,233.621 315.335,233.647 315.500 C 233.848 316.772,233.511 317.159,232.100 317.276 C 230.895 317.376,230.575 317.577,230.472 318.300 C 230.323 319.351,230.499 319.330,222.500 319.251 C 217.123 319.198,216.800 319.238,216.800 319.964 C 216.800 320.387,217.025 320.824,217.300 320.935 C 218.001 321.218,185.777 321.486,181.700 321.231 C 181.425 321.214,181.200 320.750,181.200 320.200 C 181.200 319.578,180.973 319.200,180.600 319.200 C 180.270 319.200,179.997 319.425,179.994 319.700 C 179.990 320.055,179.884 320.036,179.632 319.637 C 179.349 319.191,178.547 319.127,175.737 319.326 C 171.363 319.636,170.400 319.425,170.400 318.153 C 170.400 317.290,170.230 317.200,168.600 317.200 C 166.930 317.200,166.800 317.125,166.800 316.163 C 166.800 315.181,166.701 315.131,164.900 315.215 C 161.998 315.350,161.886 315.310,162.094 314.220 C 162.197 313.681,162.173 313.252,162.041 313.267 C 159.557 313.552,156.800 313.118,156.800 312.443 C 156.800 311.609,156.058 311.200,154.544 311.200 C 153.985 311.200,153.661 311.026,153.800 310.800 C 153.936 310.580,153.857 310.400,153.624 310.400 C 153.391 310.400,153.200 310.130,153.200 309.800 C 153.200 309.339,152.689 309.200,151.000 309.200 C 148.906 309.200,148.800 309.150,148.800 308.176 C 148.800 307.613,148.665 307.232,148.500 307.329 C 147.769 307.760,146.312 306.780,146.517 305.996 C 146.690 305.333,146.526 305.200,145.537 305.200 C 144.535 305.200,144.369 305.059,144.475 304.300 C 144.569 303.624,144.376 303.368,143.700 303.272 C 143.033 303.177,142.800 302.878,142.800 302.116 C 142.800 301.121,142.739 301.096,140.838 301.321 C 139.004 301.538,138.859 301.489,138.630 300.577 C 138.479 299.974,138.097 299.600,137.632 299.600 C 137.153 299.600,136.725 299.160,136.458 298.394 C 136.227 297.730,135.804 297.235,135.519 297.294 C 135.158 297.368,134.963 296.762,134.879 295.300 C 134.768 293.372,134.678 293.200,133.779 293.200 C 132.855 293.200,132.506 292.447,132.775 291.032 C 132.814 290.830,132.573 290.891,132.240 291.167 C 131.445 291.826,130.731 291.352,130.881 290.265 C 130.979 289.551,130.808 289.408,129.900 289.443 C 128.846 289.485,128.800 289.406,128.800 287.551 C 128.800 285.820,128.694 285.589,127.800 285.364 C 127.104 285.189,126.800 284.840,126.800 284.212 C 126.800 283.467,126.627 283.344,125.800 283.502 C 124.850 283.684,124.800 283.601,124.800 281.847 C 124.800 280.058,124.601 279.805,123.321 279.965 C 123.016 280.004,122.799 279.262,122.721 277.913 C 122.616 276.070,122.485 275.784,121.700 275.672 C 120.921 275.562,120.800 275.305,120.800 273.772 C 120.800 272.149,120.716 272.000,119.800 272.000 C 118.847 272.000,118.800 271.890,118.800 269.655 C 118.800 267.370,118.775 267.316,117.800 267.502 C 116.829 267.688,116.800 267.628,116.800 265.439 C 116.800 263.245,116.774 263.191,115.818 263.431 C 114.844 263.676,114.834 263.651,114.718 260.539 C 114.609 257.630,114.534 257.391,113.700 257.272 C 112.854 257.152,112.800 256.955,112.800 254.022 C 112.800 250.260,112.438 249.787,107.200 246.717 C 100.661 242.883,93.942 238.151,89.400 234.180 C 87.860 232.833,86.071 231.297,85.424 230.766 C 83.521 229.203,79.868 225.534,78.363 223.676 C 77.042 222.042,76.935 221.990,76.345 222.676 M261.884 266.000 C 261.999 266.440,262.342 266.800,262.647 266.800 C 262.951 266.800,263.200 266.440,263.200 266.000 C 263.200 265.480,262.933 265.200,262.437 265.200 C 261.872 265.200,261.729 265.407,261.884 266.000 M262.942 268.100 C 263.030 268.674,263.355 268.997,263.840 268.990 C 264.258 268.985,264.805 269.165,265.055 269.390 C 267.077 271.208,267.200 271.255,267.200 270.196 C 267.200 269.648,267.020 269.200,266.800 269.200 C 266.580 269.200,266.400 269.402,266.400 269.649 C 266.400 269.959,266.215 269.944,265.800 269.600 C 265.470 269.326,265.200 268.674,265.200 268.151 C 265.200 267.361,264.997 267.200,264.003 267.200 C 262.987 267.200,262.826 267.336,262.942 268.100 M341.468 341.606 C 340.144 342.925,339.997 343.246,340.382 343.966 C 341.053 345.220,342.800 345.100,342.800 343.800 C 342.800 343.000,343.000 342.800,343.800 342.800 C 345.061 342.800,345.226 341.056,344.026 340.414 C 343.065 339.900,343.281 339.799,341.468 341.606 M56.807 341.386 C 56.517 341.929,56.082 342.260,55.840 342.122 C 55.590 341.980,55.544 342.029,55.733 342.236 C 55.917 342.436,56.232 342.623,56.433 342.650 C 56.635 342.678,56.974 342.723,57.187 342.750 C 57.401 342.778,57.478 343.052,57.360 343.360 C 57.177 343.836,57.711 344.488,58.400 344.628 C 58.510 344.651,58.901 344.802,59.269 344.965 C 61.469 345.940,62.133 343.706,60.213 341.787 C 58.578 340.151,57.534 340.028,56.807 341.386 " stroke="none" fill="#949a9b" fill-rule="evenodd"></path></g></svg>