
<svg xmlns="http://www.w3.org/2000/svg" xmlns:xlink="http://www.w3.org/1999/xlink" width="250px" height="250px" viewBox="0 0 250 250" version="1.1">
<g id="surface1">
<path style=" stroke:none;fill-rule:evenodd;fill:rgb(0.392157%,0.392157%,0.392157%);fill-opacity:1;" d="M 126.246094 10.046875 C 141.570312 10.078125 156.328125 12.871094 170.617188 18.507812 C 179.089844 21.847656 186.769531 26.441406 194.34375 31.390625 C 203.609375 37.441406 211.074219 45.289062 218.132812 53.675781 C 233.332031 71.726562 240.636719 92.796875 242.792969 116.019531 C 243.183594 120.203125 243.871094 124.328125 243.476562 128.542969 C 241.359375 151.070312 235.472656 172.355469 221.625 190.671875 C 214.773438 199.738281 207.035156 208.144531 197.75 214.882812 C 183.667969 225.09375 168.242188 232.484375 151.128906 235.921875 C 127.175781 240.730469 103.800781 238.871094 81.039062 229.609375 C 72.335938 226.070312 64.457031 221.277344 56.710938 216.058594 C 47.53125 209.867188 40.167969 201.929688 33.28125 193.410156 C 15.886719 171.878906 8.738281 146.980469 9.585938 119.691406 C 10.277344 97.417969 17.035156 76.882812 30.175781 58.835938 C 36.855469 49.664062 44.511719 41.160156 53.757812 34.347656 C 75.304688 18.476562 99.355469 10.019531 126.246094 10.046875 Z M 59.128906 124.207031 C 59.128906 146.183594 59.175781 168.160156 59.070312 190.132812 C 59.058594 192.65625 59.628906 193.355469 62.238281 193.347656 C 101.191406 193.253906 140.140625 193.285156 179.09375 193.285156 C 179.566406 193.285156 180.042969 193.230469 180.507812 193.292969 C 181.777344 193.464844 182.101562 192.902344 182.074219 191.695312 C 182.003906 188.300781 181.839844 184.886719 182.117188 181.515625 C 182.335938 178.875 181.363281 178.503906 178.996094 178.511719 C 145.515625 178.589844 112.035156 178.550781 78.554688 178.601562 C 76.507812 178.605469 75.664062 178.324219 75.671875 175.921875 C 75.761719 141.496094 75.757812 107.074219 75.683594 72.648438 C 75.679688 70.445312 76.203125 69.824219 78.464844 69.835938 C 98.082031 69.933594 117.699219 69.890625 137.316406 69.890625 C 151.460938 69.890625 165.609375 69.859375 179.757812 69.933594 C 181.566406 69.941406 182.195312 69.535156 182.097656 67.636719 C 181.929688 64.441406 181.882812 61.214844 182.105469 58.023438 C 182.273438 55.640625 181.523438 55.113281 179.179688 55.117188 C 140.136719 55.195312 101.089844 55.195312 62.042969 55.117188 C 59.738281 55.113281 59.058594 55.605469 59.070312 58.003906 C 59.171875 80.070312 59.128906 102.136719 59.128906 124.207031 Z M 145.367188 140.550781 C 146.304688 150.234375 151.152344 157.449219 159.164062 161.820312 C 172.863281 169.292969 187.316406 168.960938 201.320312 162.738281 C 211.101562 158.390625 216.007812 148.121094 214.613281 137.792969 C 213.132812 126.84375 206.851562 120.242188 195.386719 117.832031 C 187.746094 116.226562 180.050781 114.878906 172.402344 113.316406 C 168.414062 112.5 165.820312 109.84375 165.417969 106.503906 C 164.972656 102.832031 166.617188 99.828125 170.117188 97.933594 C 172.488281 96.652344 175.132812 96.121094 177.71875 96.046875 C 184.777344 95.84375 191.753906 96.160156 194.609375 104.492188 C 194.878906 105.277344 195.46875 105.371094 196.175781 105.367188 C 200.988281 105.355469 205.800781 105.320312 210.609375 105.386719 C 212.023438 105.410156 212.128906 104.820312 211.894531 103.679688 C 210.539062 97.054688 207.597656 91.253906 201.847656 87.566406 C 190.167969 80.082031 177.539062 79.871094 164.691406 83.886719 C 156.164062 86.554688 150.730469 92.804688 148.328125 101.082031 C 145.253906 111.683594 151.679688 122.398438 161.5 126.394531 C 166.359375 128.371094 171.535156 128.835938 176.609375 129.800781 C 181.40625 130.714844 186.367188 130.992188 190.929688 132.863281 C 193.902344 134.078125 196.421875 136.003906 197.378906 139.34375 C 198.808594 144.316406 196.1875 148.101562 191.035156 150.695312 C 186.671875 152.894531 181.886719 152.839844 177.179688 152.238281 C 170.359375 151.363281 164.550781 148.945312 162.773438 141.339844 C 162.589844 140.546875 162.066406 140.558594 161.515625 140.558594 C 156.15625 140.546875 150.796875 140.550781 145.367188 140.550781 Z M 145.367188 140.550781 "/>
<path style=" stroke:none;fill-rule:evenodd;fill:rgb(98.823529%,98.823529%,98.823529%);fill-opacity:1;" d="M 59.128906 124.207031 C 59.128906 102.136719 59.171875 80.070312 59.074219 58 C 59.0625 55.605469 59.742188 55.113281 62.046875 55.117188 C 101.089844 55.191406 140.136719 55.195312 179.183594 55.113281 C 181.527344 55.109375 182.277344 55.636719 182.109375 58.023438 C 181.882812 61.210938 181.933594 64.4375 182.097656 67.636719 C 182.199219 69.53125 181.566406 69.941406 179.757812 69.929688 C 165.613281 69.855469 151.464844 69.886719 137.316406 69.886719 C 117.699219 69.886719 98.082031 69.929688 78.464844 69.832031 C 76.207031 69.824219 75.683594 70.441406 75.6875 72.644531 C 75.757812 107.070312 75.765625 141.496094 75.675781 175.917969 C 75.667969 178.320312 76.511719 178.601562 78.554688 178.597656 C 112.035156 178.546875 145.519531 178.585938 179 178.507812 C 181.367188 178.503906 182.339844 178.871094 182.121094 181.511719 C 181.839844 184.886719 182.007812 188.300781 182.078125 191.691406 C 182.101562 192.898438 181.777344 193.460938 180.507812 193.289062 C 180.046875 193.226562 179.566406 193.28125 179.097656 193.28125 C 140.144531 193.28125 101.191406 193.25 62.242188 193.347656 C 59.628906 193.351562 59.058594 192.652344 59.070312 190.128906 C 59.175781 168.160156 59.128906 146.183594 59.128906 124.207031 Z M 59.128906 124.207031 "/>
<path style=" stroke:none;fill-rule:evenodd;fill:rgb(98.823529%,98.823529%,98.823529%);fill-opacity:1;" d="M 145.367188 140.550781 C 150.796875 140.550781 156.15625 140.546875 161.515625 140.558594 C 162.066406 140.558594 162.589844 140.546875 162.773438 141.339844 C 164.550781 148.945312 170.355469 151.363281 177.179688 152.238281 C 181.886719 152.839844 186.671875 152.894531 191.03125 150.695312 C 196.183594 148.101562 198.804688 144.316406 197.378906 139.34375 C 196.417969 136.003906 193.898438 134.078125 190.929688 132.863281 C 186.367188 130.992188 181.40625 130.710938 176.609375 129.800781 C 171.53125 128.835938 166.359375 128.371094 161.496094 126.394531 C 151.679688 122.398438 145.25 111.683594 148.328125 101.082031 C 150.730469 92.804688 156.164062 86.554688 164.691406 83.886719 C 177.539062 79.871094 190.167969 80.082031 201.84375 87.566406 C 207.597656 91.253906 210.539062 97.054688 211.894531 103.679688 C 212.125 104.820312 212.023438 105.410156 210.605469 105.386719 C 205.796875 105.320312 200.988281 105.355469 196.175781 105.367188 C 195.464844 105.367188 194.878906 105.277344 194.609375 104.492188 C 191.75 96.160156 184.777344 95.84375 177.71875 96.046875 C 175.132812 96.121094 172.488281 96.652344 170.117188 97.933594 C 166.617188 99.824219 164.972656 102.832031 165.414062 106.503906 C 165.820312 109.84375 168.414062 112.5 172.402344 113.316406 C 180.050781 114.878906 187.746094 116.226562 195.382812 117.832031 C 206.851562 120.242188 213.128906 126.84375 214.609375 137.792969 C 216.007812 148.121094 211.101562 158.390625 201.316406 162.738281 C 187.316406 168.960938 172.863281 169.292969 159.164062 161.820312 C 151.152344 157.449219 146.304688 150.234375 145.367188 140.550781 Z M 145.367188 140.550781 "/>
</g>
</svg>
