<svg height="250" viewBox="0 0 250 250" width="250" xmlns="http://www.w3.org/2000/svg"><path d="m146.085938 123.847656c-14.984376.863282-24.371094-2.617187-39.355469-1.753906-3.71875.207031-7.40625.742188-11.027344 1.605469 2.210937-27.628907 21.820313-51.800781 48.488281-53.335938 16.363282-.941406 32.722656 9.132813 33.609375 25.488281.871094 16.074219-11.417969 26.828126-31.714843 27.996094m-40.234376 56.515625c-15.675781.882813-31.34375-8.546875-32.195312-23.851562-.835938-15.046875 10.941406-25.109375 30.382812-26.203125 14.351563-.804688 23.347657 2.453125 37.699219 1.644531 3.558594-.195313 7.09375-.699219 10.5625-1.503906-2.113281 25.855469-20.898437 48.476562-46.449219 49.914062m19.148438-180c-69.035156 0-125 55.800781-125 124.636719s55.964844 124.636719 125 124.636719 125-55.800781 125-124.636719-55.964844-124.636719-125-124.636719" fill="#4360df" fill-rule="evenodd"/></svg>