<?xml version="1.0" standalone="no"?>
<!DOCTYPE svg PUBLIC "-//W3C//DTD SVG 20010904//EN"
 "http://www.w3.org/TR/2001/REC-SVG-20010904/DTD/svg10.dtd">
<svg version="1.0" xmlns="http://www.w3.org/2000/svg"
 width="256.000000pt" height="256.000000pt" viewBox="0 0 256.000000 256.000000"
 preserveAspectRatio="xMidYMid meet">

<g transform="translate(0.000000,256.000000) scale(0.100000,-0.100000)"
fill="#000000" stroke="none">
<path d="M805 1680 c-241 -242 -436 -442 -433 -445 3 -3 70 22 149 55 l144 61
292 292 293 292 223 -223 222 -222 95 0 95 0 -315 315 c-173 173 -317 315
-320 315 -3 0 -203 -198 -445 -440z"/>
<path d="M1073 1547 c-100 -58 -123 -76 -123 -94 0 -14 -6 -23 -15 -23 -23 0
-27 -37 -23 -189 3 -122 6 -143 24 -168 12 -16 74 -57 148 -97 158 -85 159
-85 167 40 l5 89 2 -92 2 -93 28 0 c34 0 227 110 265 151 l27 29 0 153 c0 116
-3 158 -14 172 -16 22 -22 20 -143 -50 -35 -20 -63 -34 -63 -32 0 3 33 24 73
47 77 46 107 68 107 81 0 4 -58 40 -128 78 -170 94 -176 94 -339 -2z m325 -7
c62 -34 115 -66 117 -70 7 -12 -241 -160 -267 -160 -12 0 -82 32 -155 72 -110
58 -132 74 -121 84 7 7 65 43 128 79 95 55 121 65 150 62 19 -3 86 -33 148
-67z m170 -273 c2 -125 0 -146 -16 -172 -22 -35 -245 -170 -266 -162 -23 9
-28 293 -7 325 22 33 263 173 276 161 6 -6 11 -74 13 -152z m-478 75 l135 -77
3 -164 c1 -91 -1 -168 -5 -172 -13 -13 -256 125 -274 156 -34 55 -35 337 -2
335 5 -1 69 -36 143 -78z m172 -70 c-8 -12 -15 -21 -16 -20 -1 2 -9 12 -18 23
-16 19 -15 20 16 20 32 0 33 -1 18 -23z"/>
<path d="M1218 1479 c-44 -25 7 -68 57 -49 30 11 33 35 6 50 -24 12 -41 12
-63 -1z"/>
<path d="M1457 1312 c-38 -42 -6 -102 34 -66 23 21 25 70 3 78 -21 8 -19 9
-37 -12z"/>
<path d="M1351 1126 c-17 -20 -10 -70 10 -74 25 -5 51 27 47 57 -3 30 -38 41
-57 17z"/>
<path d="M973 1323 c-9 -23 19 -67 45 -71 19 -3 22 1 22 30 0 19 -5 39 -12 46
-17 17 -48 15 -55 -5z"/>
<path d="M1045 1200 c-9 -27 19 -70 45 -70 26 0 35 36 16 65 -20 30 -52 32
-61 5z"/>
<path d="M1127 1093 c-12 -12 -7 -60 8 -73 19 -16 49 -9 53 13 7 36 -40 82
-61 60z"/>
<path d="M1976 1277 l-149 -62 -287 -292 -287 -292 -224 224 -223 225 -96 0
-95 0 318 -317 317 -318 447 448 c247 246 443 447 438 446 -6 0 -77 -28 -159
-62z"/>
</g>
</svg>
