<svg height="250" viewBox="0 0 250 250" width="250" xmlns="http://www.w3.org/2000/svg"><path d="m250 125c0 69.027344-55.972656 125-125 125s-125-55.972656-125-125 55.972656-125 125-125 125 55.972656 125 125zm0 0" fill="#fff"/><path d="m19.792969 57.640625c-.070313 0-.140625-.070313-.070313-.140625 4.375-6.804688 9.445313-13.195312 15-19.027344h.070313 180.347656.066406c5.625 5.832032 10.625 12.222656 15 19.027344.070313.070312 0 .140625-.066406.140625zm38.886719-38.40625h132.570312c.070312 0 .140625-.136719.070312-.136719-19.238281-12.082031-41.945312-19.097656-66.320312-19.097656s-47.082031 7.015625-66.320312 19.027344c-.070313.070312-.070313.207031 0 .207031zm-55.207032 76.875h243.054688c.070312 0 .070312-.066406.070312-.066406-1.527344-6.597657-3.613281-12.917969-6.179687-19.027344 0 0-.070313-.070313-.070313-.070313h-230.695312s-.070313 0-.070313.070313c-2.566406 6.109375-4.652343 12.5-6.179687 19.027344-.070313.066406 0 .066406.070312.066406zm16.320313 96.25c-.070313 0-.140625.070313-.070313.140625 4.375 6.804688 9.445313 13.195312 15 19.027344h.070313 180.347656.066406c5.625-5.832032 10.625-12.222656 15-19.027344.070313-.070312 0-.140625-.066406-.140625zm229.859375-76.941406h-249.304688c-.207031 3.125-.347656 6.316406-.347656 9.582031 0 1.042969 0 2.082031.0703125 3.125 0 .417969 0 .832031.0703125 1.25 0 .625.066406 1.25.066406 1.875.070313 1.109375.140625 2.152344.210938 3.195312v.136719h249.304687c.207032-3.191406.347656-6.386719.347656-9.582031-.070312-3.265625-.210937-6.457031-.417968-9.582031zm-3.125 38.472656h-243.054688c-.070312 0-.070312.066406-.070312.066406 1.527344 6.597657 3.613281 12.917969 6.179687 19.027344 0 0 .070313.070313.070313.070313h230.695312s.070313 0 .070313-.070313c2.566406-6.109375 4.652343-12.5 6.179687-19.027344.070313-.066406 0-.066406-.070312-.066406zm-55.207032 76.875h-132.640624c-.070313 0-.136719.136719-.070313.136719 19.238281 12.082031 41.945313 19.027344 66.320313 19.027344s47.085937-7.011719 66.320312-19.027344c.140625 0 .140625-.136719.070312-.136719zm0 0" fill="#b32235"/><path d="m125.277344 134.582031h-124.929688c-.070312-1.527343-.140625-3.125-.2773435-4.652343 0-1.664063-.0703125-3.261719-.0703125-4.929688 0-69.027344 55.972656-125 125-125h.277344zm0 0" fill="#3c3b6e"/><path d="m55.695312 117.152344-4.515624 3.265625 1.738281 5.207031-4.445313-3.195312-4.515625 3.195312 1.738281-5.207031-4.445312-3.265625h5.484375l1.738281-5.207032 1.734375 5.207032zm8.402344-45-1.738281 5.207031h-5.484375l4.445312 3.265625-1.738281 5.207031 4.445313-3.191406 4.445312 3.191406-1.738281-5.207031 4.445313-3.265625h-5.484376zm-4.929687-39.167969 4.441406-3.261719 4.445313 3.261719-1.734376-5.277344 4.445313-3.191406h-5.488281l-1.734375-5.28125-1.738281 5.28125h-5.484376l4.445313 3.191406zm-8.890625 31.390625-1.734375-5.207031-1.738281 5.207031h-5.484376l4.445313 3.195312-1.738281 5.277344 4.445312-3.265625 4.445313 3.265625-1.738281-5.277344 4.445312-3.195312zm-6.667969-18.054688 4.445313-3.195312 4.445312 3.195312-1.734375-5.277343 4.441406-3.195313h-5.484375l-1.738281-5.207031-1.734375 5.207031h-5.484375l4.441406 3.195313zm-10.625 25.832032-1.734375 5.207031h-5.484375l4.441406 3.265625-1.734375 5.207031 4.445313-3.191406 4.441406 3.191406-1.734375-5.207031 4.445312-3.265625h-5.347656zm15.835937 13.195312-1.738281 5.277344h-5.484375l4.445313 3.195312-1.738281 5.277344 4.445312-3.265625 4.445312 3.265625-1.738281-5.277344 4.445313-3.195312h-5.484375zm-45.277343 18.542969-1.113281-3.472656c-.277344 1.457031-.554688 2.847656-.761719 4.304687 0 .136719-.070313.277344-.070313.417969-.140625.625-.207031 1.316406-.277344 1.941406 0 .210938-.070312.417969-.070312.625-.070312.695313-.207031 1.320313-.277344 2.015625l.902344-.695312 4.445312 3.265625-1.738281-5.277344 4.445313-3.195313h-5.484375zm62.222656-52.710937-1.738281-5.277344-1.734375 5.277344h-5.488281l4.445312 3.195312-1.734375 5.347656 4.441406-3.265625 4.515625 3.265625-1.738281-5.277344 4.445313-3.195312h-5.414063zm-37.363281 8.542968 4.515625-3.265625 4.441406 3.265625-1.734375-5.277344 4.445312-3.195312h-5.488281l-1.734375-5.277344-1.597656 5.207032h-5.554688l4.445313 3.195312zm51.527344 25.625-1.734376 5.277344h-5.488281l4.445313 3.195312-1.734375 5.277344 4.441406-3.265625 4.445313 3.265625-1.734376-5.277344 4.445313-3.195312h-5.488281zm1.320312 31.804688-1.734375-5.207032-1.738281 5.207032h-5.484375l4.441406 3.265625-1.734375 5.207031 4.445312-3.195312 4.445313 3.195312-1.738281-5.207031 4.515625-3.265625zm.140625-52.777344-1.738281-5.207031-1.734375 5.207031h-5.488281l4.445312 3.195312-1.734375 5.277344 4.441406-3.265625 4.445313 3.265625-1.734375-5.277344 4.441406-3.195312zm-15.625 39.515625-1.738281-5.28125-1.734375 5.28125h-5.488281l4.445312 3.191406-1.734375 5.277344 4.441406-3.261719 4.515625 3.261719-1.738281-5.277344 4.445313-3.191406zm8.957031-57.570313 4.445313-3.195312 4.441406 3.195312-1.734375-5.277343 4.445312-3.195313h-5.488281l-1.734375-5.207031-1.738281 5.207031h-5.484375l4.445312 3.195313zm37.707032 18.054688-1.734376-5.207031-1.738281 5.207031h-5.484375l4.445313 3.195312-1.738281 5.277344 4.445312-3.265625 4.445312 3.265625-1.738281-5.277344 4.445313-3.195312zm-.070313 52.777344-1.734375-5.207032-1.734375 5.207032h-5.488281l4.445312 3.265625-1.738281 5.207031 4.445313-3.195312 4.445312 3.195312-1.734375-5.207031 4.441406-3.265625zm-6.527344-97.5 4.445313-3.261719 4.445312 3.261719-1.738281-5.277344 4.445313-3.195312h-5.484376l-1.738281-5.277344-1.734375 5.277344h-5.488281l4.445313 3.195312zm-15.554687 13.332031 4.445312-3.261719 4.445313 3.261719-1.738281-5.277344 4.445312-3.191406h-5.484375l-1.738281-5.28125-1.734375 5.28125h-5.417969l4.445312 3.191406zm15.554687 13.335937 4.445313-3.195312 4.445312 3.195312-1.738281-5.277343 4.445313-3.195313h-5.484376l-1.738281-5.207031-1.734375 5.207031h-5.488281l4.445313 3.195313zm-9.027343 4.859376-1.734376-5.277344-1.738281 5.277344h-5.484375l4.445313 3.195312-1.738281 5.277344 4.445312-3.261719 4.445312 3.261719-1.738281-5.277344 4.515625-3.195312zm-22.082032-31.527344 4.445313-3.261719 4.441406 3.261719-1.734375-5.277344 4.445312-3.195312h-5.488281l-.902343-2.777344c-.625.207031-1.25.488281-1.804688.695312l-.695312 2.082032h-4.164063c-.28125.140624-.558594.277343-.835937.347656l3.960937 2.847656zm38.054688 70.972656-1.734375-5.277344-1.738281 5.277344h-5.484376l4.445313 3.195312-1.738281 5.277344 4.445312-3.265625 4.445313 3.265625-1.738281-5.277344 4.445312-3.195312zm-95.070313-5.277344-1.734375 5.277344h-5.488281l4.445313 3.195312-1.734376 5.277344 4.445313-3.265625 4.441406 3.265625-1.734375-5.277344 4.445313-3.195312h-5.347657zm-.277343-15.695312 4.445312 3.265625-1.734375-5.277344 4.441406-3.195313h-5.484375l-1.25-3.890624c-.695312 1.179687-1.390625 2.292968-2.015625 3.472656l-.136719.347656h-.070312c-.484375.902344-1.042969 1.875-1.527344 2.847656l.554688.417969-1.734375 5.277344zm1.667968 47.5-1.738281-5.207032-1.734375 5.207032h-5.554688l4.511719 3.265625-1.734375 5.207031 4.511719-3.195312 4.445313 3.195312-1.734376-5.207031 4.445313-3.265625zm-12.777344-31.457032c0 .070313 0 .070313 0 0v.070313l.070313.066406zm88.886719-13.542968-1.734375 5.207031h-5.488281l4.445313 3.265625-1.734376 5.207031 4.445313-3.191406 4.441406 3.191406-1.734375-5.207031 4.445313-3.265625h-5.488281zm-60.554687 31.738281-1.734375-5.28125-1.738281 5.28125h-5.554688l4.445312 3.191406-1.738281 5.277344 4.515625-3.261719 4.445313 3.261719-1.738281-5.277344 4.445312-3.191406zm62.152344 0-1.734376-5.28125-1.738281 5.28125h-5.484375l4.445313 3.191406-1.738281 5.277344 4.445312-3.261719 4.445312 3.261719-1.738281-5.277344 4.515625-3.191406zm0 0" fill="#fff"/><path d="m125 0c69.027344 0 125 55.972656 125 125s-55.972656 125-125 125-125-55.972656-125-125 55.972656-125 125-125zm0 0" fill="#888" fill-opacity=".25"/><path d="m167.5 211.597656-42.5-67.707031-42.777344 67.707031-45.765625-.070312 61.320313-96.109375h-53.332032v-77.085938h161.109376v77.085938h-53.332032l61.597656 96.109375zm0 0" fill="#fff"/><path d="m53.890625 202.222656h22.914063l48.195312-76.597656 48.195312 76.597656h22.914063l-61.59375-96.527344h61.316406v-19.027343h-61.316406v-19.585938h61.316406v-19.027343h-141.664062v19.027343h61.316406v19.585938h-61.316406v19.027343h61.316406zm0 0" fill="#e23"/></svg>