<svg height="250" viewBox="0 0 250 250" width="250" xmlns="http://www.w3.org/2000/svg"><path d="m250 125c0 69.027344-55.972656 125-125 125s-125-55.972656-125-125 55.972656-125 125-125 125 55.972656 125 125zm0 0" fill="#fff"/><path d="m125 146.320312 59.515625 88.679688c-17.710937 9.515625-37.988281 15-59.515625 15s-41.804688-5.484375-59.515625-15.070312zm0-146.320312c-69.027344 0-125 55.972656-125 125 0 40.140625 18.890625 75.832031 48.332031 98.75l66.390625-98.890625h-66.113281v-20.484375h66.183594v-21.109375h-66.183594v-20.625h152.78125v20.484375h-66.113281v21.109375h66.113281v20.488281h-66.113281l66.390625 98.886719c29.441406-22.777344 48.332031-58.46875 48.332031-98.609375 0-69.027344-55.972656-125-125-125zm0 0" fill="#e23"/></svg>