<?xml version="1.0" encoding="utf-8"?>
<!-- Generator: Adobe Illustrator 22.1.0, SVG Export Plug-In . SVG Version: 6.00 Build 0)  -->
<svg version="1.1" xmlns="http://www.w3.org/2000/svg" xmlns:xlink="http://www.w3.org/1999/xlink" x="0px" y="0px"
	 viewBox="0 0 300 300" style="enable-background:new 0 0 300 300;" xml:space="preserve">
<style type="text/css">
	.st0{fill:#D1DADF;}
	.st1{fill:#B1CDEA;stroke:#41423F;stroke-width:3;stroke-linecap:round;stroke-linejoin:round;stroke-miterlimit:10;}
	.st2{fill:none;stroke:#3F403F;stroke-width:4;stroke-linecap:round;stroke-miterlimit:10;}
	.st3{fill:#FFFFFF;stroke:#40413F;stroke-width:3;stroke-miterlimit:10;}
	.st4{fill:#7064AC;}
	.st5{fill:#40413F;}
	.st6{fill:#FFFFFF;}
	.st7{display:none;fill:#BCBEC0;}
	.st8{display:none;}
	.st9{display:inline;fill:#BCBEC0;}
	.st10{display:inline;fill:#B1CDEA;}
	.st11{display:inline;fill:#FFFFFF;}
	.st12{display:none;fill:#BEBEBE;}
	.st13{display:inline;fill:#BEBEBE;}
	.st14{display:none;fill:#BEBEBE;stroke:#FFFFFF;stroke-width:6;stroke-linecap:round;stroke-linejoin:round;stroke-miterlimit:10;}
	.st15{display:none;fill:#BEBEBE;stroke:#FFFFFF;stroke-width:4;stroke-linecap:round;stroke-linejoin:round;stroke-miterlimit:10;}
	.st16{display:none;fill:#FFFFFF;}
	.st17{display:inline;}
	.st18{fill:#B1CDEA;}
	.st19{fill:#41423F;}
	.st20{display:inline;fill:none;stroke:#3F403F;stroke-width:0.8936;stroke-linecap:round;stroke-miterlimit:10;}
	.st21{display:inline;fill:#FFFFFF;stroke:#40413F;stroke-width:0.6702;stroke-miterlimit:10;}
	.st22{display:inline;fill:#40413F;}
</style>
<g id="Layer_15">
	<path id="XMLID_515_" class="st0" d="M230.1,77.3c2.6-8.1,0.4-13-9.7-9.6l-39.5,15.9c10.5-14.2-8.5-13.7-21.9-9.5
		c-25.6,8.1-53.2,21-67.9,35.4c-13.7,12.8-22.2,31.2-21.8,51.5c0.6,37.7,31.8,68.1,69.5,67.7c16.3-0.1,31.3-6,43.1-15.6l0,0
		c19.7-14.5,32.1-37,40.3-59.1c6-16,5.3-34.6-8.5-24.2L230.1,77.3z"/>
	<path id="XMLID_514_" class="st1" d="M212,93.3c2-6.3,0.3-10.1-7.5-7.5l-40,16.1c8.6-9.3,2.9-14.4-7.4-11.2
		c-19.8,6.3-41.2,16.2-52.5,27.4C94,128,87.4,142.2,87.7,157.9c0.5,29.1,24.6,52.6,53.8,52.4c12.6-0.1,24.2-4.6,33.3-12.1l0,0
		c15.2-11.2,24-29,31.2-45.7c3.8-8.9,1-16.9-9.6-8.9l-3.8,2.4C193.3,143.9,212,93.3,212,93.3z"/>
	<path id="XMLID_510_" class="st2" d="M127.3,173c3,7,19,9.4,24.7,0"/>
	<path id="XMLID_508_" class="st3" d="M108,169.5h12.5c6.7-2.5,11.5-9,11.5-16.7c0-9.8-8-17.8-17.8-17.8c-9.8,0-17.8,8-17.8,17.8
		C96.5,160.5,101.3,166.9,108,169.5z"/>
	<circle id="XMLID_505_" class="st4" cx="114.3" cy="152.8" r="14"/>
	<circle id="XMLID_501_" class="st5" cx="114.3" cy="152.8" r="11.7"/>
	<circle id="XMLID_500_" class="st6" cx="114.3" cy="147" r="5.9"/>
	<path id="XMLID_499_" class="st3" d="M161.2,169.5h12.5c6.7-2.5,11.5-9,11.5-16.7c0-9.8-8-17.8-17.8-17.8c-9.8,0-17.8,8-17.8,17.8
		C149.6,160.5,154.4,166.9,161.2,169.5z"/>
	<circle id="XMLID_496_" class="st4" cx="167.4" cy="152.8" r="14"/>
	<circle id="XMLID_493_" class="st5" cx="167.4" cy="152.8" r="11.7"/>
	<circle id="XMLID_492_" class="st6" cx="167.4" cy="147" r="5.9"/>
	<path class="st7" d="M522.9,93.3c1.6-4.9,0.9-8.3-3.2-8.3c-1.2,0-2.6,0.3-4.3,0.8l-35.1,14.1c-1.3,0.5-2.6-0.9-1.9-2.2
		c2.7-5,0.3-8-4.8-8c-1.6,0-3.6,0.3-5.7,1c-19.8,6.3-41.2,16.2-52.5,27.4c-10.6,9.9-17.1,24.1-16.9,39.8c0.5,29,24.3,52.4,53.3,52.4
		c0.2,0,0.3,0,0.5,0c12.6-0.1,24.2-4.6,33.3-12.1h0c15.2-11.2,24-29,31.2-45.7c2.7-6.3,2.1-12.2-2.3-12.2c-1.8,0-4.2,1-7.3,3.3v0
		c-1.2,0.8-2.7-0.5-2.2-1.8C509.6,129.3,522.9,93.3,522.9,93.3z M431.9,172h-13.4l-0.4-0.2c-7.9-3-13.2-10.6-13.2-19
		c0-11.2,9.1-20.3,20.3-20.3s20.3,9.1,20.3,20.3c0,8.4-5.3,16-13.2,19L431.9,172z M466.1,175.4c-2.8,4.7-8.1,7.4-14.3,7.4
		c-0.5,0-1,0-1.5,0c-6.3-0.4-11.5-3.4-13.3-7.7c-0.5-1.3,0-2.7,1.3-3.3c1.3-0.5,2.7,0,3.3,1.3c1.1,2.5,4.8,4.4,9.1,4.7
		c4.9,0.3,9.1-1.5,11.2-5c0.7-1.2,2.2-1.6,3.4-0.9C466.4,172.6,466.8,174.2,466.1,175.4z M485.5,171.8L485,172h-13.4l-0.4-0.2
		c-7.9-3-13.2-10.6-13.2-19c0-11.2,9.1-20.3,20.3-20.3c11.2,0,20.3,9.1,20.3,20.3C498.6,161.2,493.3,168.9,485.5,171.8z"/>
	<path class="st7" d="M425.2,138.8c-7.7,0-14,6.3-14,14c0,7.7,6.3,14,14,14s14-6.3,14-14C439.2,145.1,432.9,138.8,425.2,138.8z
		 M425.2,152.8c-3.2,0-5.9-2.6-5.9-5.9c0-3.2,2.6-5.9,5.9-5.9s5.9,2.6,5.9,5.9C431,150.2,428.4,152.8,425.2,152.8z"/>
	<path class="st7" d="M478.3,138.8c-7.7,0-14,6.3-14,14c0,7.7,6.3,14,14,14c7.7,0,14-6.3,14-14C492.3,145.1,486.1,138.8,478.3,138.8
		z M478.3,152.8c-3.2,0-5.9-2.6-5.9-5.9c0-3.2,2.6-5.9,5.9-5.9c3.2,0,5.9,2.6,5.9,5.9C484.2,150.2,481.6,152.8,478.3,152.8z"/>
	<g class="st8">
		<path class="st9" d="M531.2,67.7l-39.5,15.9c10.5-14.2-8.5-13.7-21.9-9.5c-25.6,8.1-53.2,21-67.9,35.4
			c-13.7,12.8-22.2,31.2-21.8,51.5c0.6,37.7,31.8,68.1,69.5,67.7c16.3-0.1,31.3-6,43.1-15.6l0,0c19.7-14.5,32.1-37,40.3-59.1
			c6-16,5.3-34.6-8.5-24.2L541,77.3C543.6,69.2,541.4,64.3,531.2,67.7z M527.6,94.8c0,0.1,0,0.1-0.1,0.2c-0.1,0.4-9.2,25-15,40.5
			c0.6-0.1,1.3-0.2,1.9-0.2c3,0,5.6,1.4,7.2,3.8c2.4,3.6,2.3,9.4-0.3,15.3c-7.2,16.7-16.3,35.5-32.7,47.7
			c-10.2,8.3-23.1,13-36.3,13.1l-0.5,0c-31.6,0-57.8-25.7-58.3-57.3c-0.3-16.4,6.4-32.3,18.4-43.5c10.6-10.4,30.9-21.1,54.4-28.6
			c2.6-0.8,5-1.2,7.2-1.2c4.9,0,8.6,2.1,10.1,5.6c0.3,0.7,0.6,1.5,0.7,2.5l29.1-11.7c0.1,0,0.2-0.1,0.3-0.1c2.2-0.7,4.1-1.1,5.9-1.1
			c4.2,0,6.4,2.1,7.3,3.4C528.9,86.1,529.2,89.9,527.6,94.8z"/>
	</g>
	<g id="XMLID_2_" class="st8">
		<path class="st10" d="M139.4,555.6c-1.2,0-2.4,0-3.7-0.1c-37.4-1.8-68-32.5-69.8-69.9c-1-21.6,7.4-42.5,23.2-57.3
			c13.5-13.3,39.8-27.1,70.3-36.8c3.1-1,6-1.5,8.6-1.5c4.7,0,8.3,1.7,10.1,4.7c1,1.6,1.7,4.1,0.7,7.6l42.8-17.2
			c0.1,0,0.1-0.1,0.2-0.1c2.6-0.9,4.8-1.3,6.8-1.3c3.9,0,6,1.8,7.1,3.2c2,2.8,2.2,6.9,0.5,12.2c-0.1,0.2-8.7,29.3-14.8,46.4
			c0.7-0.1,1.3-0.2,2-0.2c2.6,0,4.8,1,6.3,3c3.9,5,2.2,15.1-1.5,28.6c-6.7,24.5-22.1,47-42.2,61.9
			C172.8,549.7,156.3,555.6,139.4,555.6z"/>
		<path class="st11" d="M228.5,387.3c5.4,0,6.3,4.4,4.3,10.9c0,0-9.6,32.5-15.7,49c-0.5,1.4-0.3,2.7,1.3,2.7c0.4,0,1-0.1,1.7-0.3
			c1.3-0.4,2.4-0.6,3.3-0.6c8,0,4.9,14.7,1.5,27.2c-6.3,23.1-21,45.3-41,60.1l0,0c-12.1,9.9-27.5,15.9-44.4,15.9
			c-1.2,0-2.3,0-3.5-0.1c-35.4-1.7-64.8-31.2-66.5-66.6c-1-21.5,7.7-41,22.1-54.5c14.9-14.7,43-27.8,69-36c2.8-0.9,5.3-1.3,7.5-1.3
			c6.7,0,9.8,4,6.3,10.6c-0.8,1.4,0.3,3,1.7,3c0.2,0,0.5,0,0.8-0.2l46.1-18.5C225.2,387.6,227,387.3,228.5,387.3 M228.5,380.3
			c-2.3,0-4.9,0.5-7.9,1.5c-0.1,0-0.3,0.1-0.4,0.1L182.6,397c-0.3-1.8-0.9-3.2-1.5-4.1c-1.4-2.4-5-6.4-13.1-6.4
			c-3,0-6.2,0.6-9.6,1.6c-31,9.8-57.8,23.9-71.7,37.6c-16.5,15.5-25.3,37.3-24.3,59.9c0.9,18.9,8.9,36.8,22.6,50.5
			c13.7,13.7,31.6,21.8,50.5,22.7c1.3,0.1,2.6,0.1,3.8,0.1c17.7,0,35-6.2,48.7-17.3c20.7-15.3,36.6-38.6,43.5-63.8
			c4.1-14.9,5.7-25.4,0.9-31.6c-1.6-2.1-3.7-3.5-6.2-4.1c5.8-16.9,12.8-40.3,13.3-42c2-6.5,1.7-11.6-1-15.3
			C237.2,383.2,234.2,380.3,228.5,380.3L228.5,380.3z"/>
	</g>
	<path id="XMLID_21_" class="st12" d="M231.1,402.7c2.6-8.1-3.6-16-13.7-12.6l-37.5,14.9c1.6-9.7-7.3-13-20.9-9.5
		c-26.9,7-53.2,21-67.9,35.4C77.5,443.7,69,464,69.3,484.3c0.6,37.7,31.8,68.1,69.5,67.7c16.3-0.1,29.5-3.2,46.1-15.6
		c19.8-14.8,30-30.8,39.3-57.1c5.7-16.1,4.4-32.7-7.5-30.2L231.1,402.7z"/>
	<g id="XMLID_20_" class="st8">
		<path class="st13" d="M140.9,537.2c-1.2,0-2.4,0-3.6-0.1c-13.9-0.8-26.9-6.8-36.8-16.8c-9.9-10-15.7-23.1-16.3-37
			c-0.8-16.7,5.7-32.9,17.9-44.3c10.3-10.2,30.5-20.8,53.8-28.2c2.4-0.8,4.7-1.2,6.8-1.2c3.9,0,6.9,1.4,8.4,4
			c0.6,0.9,1.2,2.6,0.9,4.9l31.1-12.5c0.1,0,0.1-0.1,0.2-0.1c2.1-0.7,3.8-1,5.4-1c3.3,0,5.2,1.5,6.1,2.8c1.7,2.3,1.9,5.7,0.5,10.1
			c0,0.1,0,0.1-0.1,0.2l-16,43.3c1.5-0.6,3-1,4.3-1c2.5,0,4.6,1.1,6,3.2c2.1,3.2,1.9,8.4-0.4,13.9c-7.1,16.5-16.1,35.1-32.2,47.1
			C166.8,532.7,154,537.2,140.9,537.2z"/>
		<path class="st11" d="M208.8,408.4c4.1,0,4.8,3.4,3.2,8.3c0,0-13.3,36-17.9,48.6c-0.4,1.1,0.5,2.1,1.4,2.1c0.3,0,0.5-0.1,0.8-0.2
			c3.1-2.3,5.5-3.3,7.3-3.3c4.4,0,5,5.9,2.3,12.2c-7.2,16.7-15.9,34.4-31.2,45.7l0,0c-9.2,7.5-20.9,12.1-33.8,12.1
			c-1.1,0-2.2,0-3.3-0.1c-26.9-1.6-48.6-23.6-49.9-50.5c-0.8-16.4,5.8-31.3,16.8-41.5c11.3-11.2,32.7-21.1,52.5-27.4
			c2.1-0.7,4.1-1,5.7-1c5.1,0,7.5,3,4.8,8c-0.6,1.1,0.2,2.3,1.3,2.3c0.2,0,0.4,0,0.6-0.1l35.1-14.1
			C206.2,408.6,207.6,408.4,208.8,408.4 M208.8,401.4c-2,0-4.1,0.4-6.5,1.2c-0.1,0-0.3,0.1-0.4,0.1l-26.9,10.8
			c-0.3-0.7-0.6-1.3-0.8-1.7c-2.1-3.6-6.3-5.7-11.4-5.7c-2.4,0-5.1,0.4-7.8,1.3c-11.4,3.6-39.7,13.7-55.2,29
			c-12.9,12.1-19.8,29.2-19,46.9c0.7,14.7,6.9,28.7,17.3,39.3c10.5,10.6,24.4,17,39.1,17.9c1.3,0.1,2.5,0.1,3.8,0.1
			c13.8,0,27.4-4.8,38.1-13.5c16.8-12.4,26-31.5,33.3-48.4c2.9-6.7,3-13,0.2-17.2c-1.8-2.7-4.6-4.4-7.9-4.7
			c5.8-15.6,13.9-37.7,13.9-37.7c0-0.1,0.1-0.2,0.1-0.3c1.7-5.5,1.4-9.9-1-13.2C216.5,404,213.8,401.4,208.8,401.4L208.8,401.4z"/>
	</g>
	<path id="XMLID_17_" class="st14" d="M128.3,496.4c3,7,19,9.4,24.7,0"/>
	<path id="XMLID_16_" class="st15" d="M108,492.9h12.5c6.7-2.5,11.5-9,11.5-16.7c0-9.8-8-17.8-17.8-17.8c-9.8,0-17.8,8-17.8,17.8
		C96.5,483.9,101.3,490.3,108,492.9z"/>
	<circle id="XMLID_13_" class="st12" cx="114.3" cy="476.2" r="14"/>
	<circle id="XMLID_9_" class="st16" cx="111.3" cy="471.3" r="8.9"/>
	<path id="XMLID_8_" class="st15" d="M161.2,492.9h12.5c6.7-2.5,11.5-9,11.5-16.7c0-9.8-8-17.8-17.8-17.8c-9.8,0-17.8,8-17.8,17.8
		C149.6,483.9,154.4,490.3,161.2,492.9z"/>
	<circle id="XMLID_5_" class="st12" cx="167.4" cy="476.2" r="14"/>
	<circle id="XMLID_1_" class="st16" cx="164.4" cy="471.3" r="8.9"/>
</g>
<g id="Layer_2" class="st8">
	<g id="XMLID_33_" class="st17">
		<path class="st18" d="M681.3,40.7c-6.3,0-11.5-5.1-11.6-11.4c-0.1-3.3,1.3-6.4,3.7-8.6c2.2-2.2,6.5-4.4,11.6-6
			c0.4-0.1,0.8-0.2,1.2-0.2c0.5,0,0.8,0.1,0.9,0.4c0.2,0.4-0.1,1-0.8,1.8c-0.1,0.1-0.1,0.3,0,0.4c0.1,0.1,0.2,0.1,0.3,0.1
			c0,0,0.1,0,0.1,0l8.9-3.6c0.3-0.1,0.6-0.2,0.8-0.2c0.3,0,0.4,0.1,0.5,0.2c0.2,0.2,0.1,0.7-0.1,1.3c0,0-4.2,11.3-4.3,11.8
			c0,0.1,0,0.3,0.1,0.4c0.1,0,0.1,0.1,0.2,0.1c0.1,0,0.1,0,0.2-0.1l0.8-0.5c0.8-0.6,1.2-0.7,1.5-0.7c0.2,0,0.3,0.1,0.4,0.2
			c0.2,0.3,0.2,1.1-0.2,2.1c-1.5,3.6-3.5,7.6-6.9,10.1c-2,1.7-4.6,2.6-7.2,2.6L681.3,40.7z"/>
		<path class="st19" d="M696.5,13.7c0.1,0,0.2,0,0.2,0c0,0,0.1,0.3-0.1,0.9c0,0-4.2,11.3-4.4,11.8c-0.1,0.3,0,0.6,0.2,0.8
			c0.1,0.1,0.3,0.1,0.4,0.1c0.1,0,0.2,0,0.4-0.1l0.8-0.5c0,0,0,0,0,0c0.7-0.5,1.1-0.6,1.2-0.6c0.1,0,0.1,0,0.1,0.1
			c0.1,0.2,0.2,0.8-0.2,1.7c-1.5,3.5-3.4,7.5-6.8,10c-2,1.6-4.5,2.5-7,2.5l-0.1,0c-6.1,0-11.1-5-11.2-11c-0.1-3.2,1.2-6.2,3.6-8.4
			c2.2-2.1,6.4-4.4,11.5-6c0.4-0.1,0.8-0.2,1.1-0.2c0.4,0,0.6,0.1,0.6,0.2c0,0.1,0,0.6-0.7,1.4c-0.2,0.2-0.2,0.6-0.1,0.8
			c0.1,0.2,0.3,0.3,0.6,0.3c0.1,0,0.2,0,0.2,0l8.9-3.6C696.1,13.7,696.3,13.7,696.5,13.7 M696.5,13c-0.3,0-0.6,0.1-1,0.2l-8.9,3.6
			c1.5-1.7,1-2.7-0.4-2.7c-0.4,0-0.8,0.1-1.3,0.2c-4.4,1.4-9.2,3.6-11.7,6.1c-2.4,2.2-3.8,5.4-3.8,8.9c0.1,6.5,5.4,11.7,11.9,11.7
			c0,0,0.1,0,0.1,0c2.8,0,5.4-1,7.4-2.7v0c3.4-2.5,5.4-6.5,7-10.2c0.6-1.4,0.5-2.7-0.5-2.7c-0.4,0-0.9,0.2-1.6,0.7l-0.8,0.5
			c0.2-0.5,4.4-11.8,4.4-11.8C697.5,13.8,697.4,13,696.5,13L696.5,13z"/>
	</g>
	<path id="XMLID_30_" class="st20" d="M678.3,32.7c0.7,1.6,4.3,2.1,5.5,0"/>
	<path id="XMLID_29_" class="st21" d="M674,31.9h2.8c1.5-0.6,2.6-2,2.6-3.7c0-2.2-1.8-4-4-4s-4,1.8-4,4
		C671.4,29.9,672.5,31.3,674,31.9z"/>
	<circle id="XMLID_23_" class="st22" cx="675.4" cy="28.2" r="2.6"/>
	<circle id="XMLID_22_" class="st11" cx="675.2" cy="26.7" r="1.4"/>
	<path id="XMLID_19_" class="st21" d="M685.8,31.9h2.8c1.5-0.6,2.6-2,2.6-3.7c0-2.2-1.8-4-4-4c-2.2,0-4,1.8-4,4
		C683.2,29.9,684.3,31.3,685.8,31.9z"/>
	<circle id="XMLID_10_" class="st22" cx="687.2" cy="28.2" r="2.6"/>
	<circle id="XMLID_3_" class="st11" cx="687.2" cy="26.8" r="1.3"/>
</g>
</svg>
