<svg height="250" viewBox="0 0 250 250" width="250" xmlns="http://www.w3.org/2000/svg"><path d="m250 125c0 69.035156-55.964844 125-125 125s-125-55.964844-125-125 55.964844-125 125-125 125 55.964844 125 125zm0 0" fill="#ff3b81" fill-rule="evenodd"/><path d="m66.085938 172.976562v1.101563h-11.539063v-20.835937l-.359375 1.15625-11.023438-3.328126 6.226563-20.078124-.765625 1.125-9.5625-6.351563 11.953125-17.453125-1.140625.90625-7.265625-8.828125 17.195313-13.71875-2.1875.835937-4.140626-10.609374 20.539063-7.765626-2.40625.15625-.796875-11.328124 21.5-1.484376-1.945312-.4375 2.59375-11.070312 20.546874 4.671875-1.296874-.734375 5.757812-9.84375 17.914062 10.1875-.703124-.734375 8.4375-7.75 13.953124 14.734375-.296874-.59375 10.367187-4.984375 8.953125 18.078125-.078125-.507812 11.382813-1.78125 3.359374 20.882812.234376-1.484375 11.398437 1.773437-3.40625 21.1875.835937-1.703124 10.367188 4.984374-9.59375 19.382813 1.40625-1.484375 8.429688 7.757812-14.914063 15.75 1.804687-1.023437 5.765626 9.84375-18.742188 10.65625 1.882812-.429687 2.601563 11.070312-20.71875 4.710938 1.601563.109374-.804688 11.335938-20.734375-1.429688 1.054687.398438-4.140624 10.609375-19.84375-7.5 1.257812 1-7.257812 8.828125-16.382813-13.070312.8125 1.179687-9.5625 6.359375-11.71875-17.109375.351563 1.125-11.03125 3.328125zm0-13.5 7.203124-2.171874 5.59375 18.046874 6.234376-4.140624 10.640624 15.546874 4.757813-5.78125 14.75 11.765626 2.640625-6.773438 17.78125 6.71875.515625-7.335938 19.03125 1.3125-1.71875-7.304687 18.65625-4.242187-3.867187-6.59375 16.648437-9.46875-5.703125-5.234376 13.148438-13.890624-7.015626-3.375 8.460938-17.078126-7.671875-1.203124 3.015625-18.75-7.34375 1.140624-3.007812-18.75-6.609376 3.171876-8.398437-16.953126-5.390625 4.945313-12.984375-13.726563-3.71875 6.34375-16.445313-9.351562-1.703124 7.25-18.5-4.210938.539062 7.570313-18.992188 1.304687 2.804688 7.210938-17.890625 6.765625 4.820313 5.851563-15.015626 11.976562 6.335938 4.210938-10.8125 15.804687 7.289062 2.203125-5.648437 18.210938h7.578125zm56.640624-21.289062c0-2.875-1.015624-5.070312-3.039062-6.59375-2.03125-1.554688-5.664062-3.179688-10.929688-4.867188-5.265624-1.71875-9.429687-3.414062-12.5-5.078124-8.359374-4.53125-12.546874-10.625-12.546874-18.304688 0-3.992188 1.109374-7.546875 3.335937-10.65625 2.265625-3.148438 5.484375-5.601562 9.664063-7.359375 4.21875-1.757813 8.945312-2.632813 14.171874-2.632813 5.265626 0 9.953126.960938 14.0625 2.890626 4.117188 1.890624 7.304688 4.578124 9.570313 8.0625 2.304687 3.527343 3.503906 7.664062 3.4375 11.875h-15.179687c0-3.382813-1.0625-6.007813-3.1875-7.867188-2.125-1.890625-5.109376-2.835938-8.953126-2.835938-3.710937 0-6.601562.789063-8.65625 2.382813-1.992187 1.421875-3.144531 3.742187-3.085937 6.1875 0 2.398437 1.195313 4.414063 3.59375 6.039063 2.421875 1.617187 5.984375 3.140624 10.671875 4.5625 8.640625 2.601562 14.929688 5.835937 18.875 9.6875 3.953125 3.859374 5.921875 8.664062 5.921875 14.40625 0 6.398437-2.414063 11.414062-7.234375 15.070312-4.828125 3.617188-11.320312 5.429688-19.484375 5.429688-5.320313.070312-10.597656-.984376-15.484375-3.09375-4.648438-2.101563-8.210938-4.960938-10.671875-8.578126-2.429687-3.617187-3.648437-7.8125-3.648437-12.578124h15.234374c0 8.148437 4.859376 12.226562 14.570313 12.226562 3.609375 0 6.429687-.726562 8.453125-2.1875 1.992188-1.417969 3.132812-3.746094 3.039062-6.1875zm46.328126-45.296875-14.632813 53.53125-12.054687-.84375 9.117187-55.1875zm-12.765626 59.109375-3.804687 18.914062-16.03125-4.679687 3.679687-18.140625zm0 0" fill="#fff"/></svg>