
<svg xmlns="http://www.w3.org/2000/svg" xmlns:xlink="http://www.w3.org/1999/xlink" width="250px" height="250px" viewBox="0 0 250 250" version="1.1">
<g id="surface1">
<path style=" stroke:none;fill-rule:evenodd;fill:rgb(100%,23.137255%,50.588238%);fill-opacity:1;" d="M 250 125 C 250 194.035156 194.035156 250 125 250 C 55.964844 250 0 194.035156 0 125 C 0 55.964844 55.964844 0 125 0 C 194.035156 0 250 55.964844 250 125 Z M 250 125 "/>
<path style=" stroke:none;fill-rule:nonzero;fill:rgb(100%,100%,100%);fill-opacity:1;" d="M 66.085938 172.976562 L 66.085938 174.078125 L 54.546875 174.078125 L 54.546875 153.242188 L 54.1875 154.398438 L 43.164062 151.070312 L 49.390625 130.992188 L 48.625 132.117188 L 39.0625 125.765625 L 51.015625 108.3125 L 49.875 109.21875 L 42.609375 100.390625 L 59.804688 86.671875 L 57.617188 87.507812 L 53.476562 76.898438 L 74.015625 69.132812 L 71.609375 69.289062 L 70.8125 57.960938 L 92.3125 56.476562 L 90.367188 56.039062 L 92.960938 44.96875 L 113.507812 49.640625 L 112.210938 48.90625 L 117.96875 39.0625 L 135.882812 49.25 L 135.179688 48.515625 L 143.617188 40.765625 L 157.570312 55.5 L 157.273438 54.90625 L 167.640625 49.921875 L 176.59375 68 L 176.515625 67.492188 L 187.898438 65.710938 L 191.257812 86.59375 L 191.492188 85.109375 L 202.890625 86.882812 L 199.484375 108.070312 L 200.320312 106.367188 L 210.6875 111.351562 L 201.09375 130.734375 L 202.5 129.25 L 210.929688 137.007812 L 196.015625 152.757812 L 197.820312 151.734375 L 203.585938 161.578125 L 184.84375 172.234375 L 186.726562 171.804688 L 189.328125 182.875 L 168.609375 187.585938 L 170.210938 187.695312 L 169.40625 199.03125 L 148.671875 197.601562 L 149.726562 198 L 145.585938 208.609375 L 125.742188 201.109375 L 127 202.109375 L 119.742188 210.9375 L 103.359375 197.867188 L 104.171875 199.046875 L 94.609375 205.40625 L 82.890625 188.296875 L 83.242188 189.421875 L 72.210938 192.75 Z M 66.085938 159.476562 L 73.289062 157.304688 L 78.882812 175.351562 L 85.117188 171.210938 L 95.757812 186.757812 L 100.515625 180.976562 L 115.265625 192.742188 L 117.90625 185.96875 L 135.6875 192.6875 L 136.203125 185.351562 L 155.234375 186.664062 L 153.515625 179.359375 L 172.171875 175.117188 L 168.304688 168.523438 L 184.953125 159.054688 L 179.25 153.820312 L 192.398438 139.929688 L 185.382812 136.554688 L 193.84375 119.476562 L 186.171875 118.273438 L 189.1875 99.523438 L 181.84375 100.664062 L 178.835938 81.914062 L 172.226562 85.085938 L 163.828125 68.132812 L 158.4375 73.078125 L 145.453125 59.351562 L 141.734375 65.695312 L 125.289062 56.34375 L 123.585938 63.59375 L 105.085938 59.382812 L 105.625 66.953125 L 86.632812 68.257812 L 89.4375 75.46875 L 71.546875 82.234375 L 76.367188 88.085938 L 61.351562 100.0625 L 67.6875 104.273438 L 56.875 120.078125 L 64.164062 122.28125 L 58.515625 140.492188 L 66.09375 140.492188 Z M 122.726562 138.1875 C 122.726562 135.3125 121.710938 133.117188 119.6875 131.59375 C 117.65625 130.039062 114.023438 128.414062 108.757812 126.726562 C 103.492188 125.007812 99.328125 123.3125 96.257812 121.648438 C 87.898438 117.117188 83.710938 111.023438 83.710938 103.34375 C 83.710938 99.351562 84.820312 95.796875 87.046875 92.6875 C 89.3125 89.539062 92.53125 87.085938 96.710938 85.328125 C 100.929688 83.570312 105.65625 82.695312 110.882812 82.695312 C 116.148438 82.695312 120.835938 83.65625 124.945312 85.585938 C 129.0625 87.476562 132.25 90.164062 134.515625 93.648438 C 136.820312 97.175781 138.019531 101.3125 137.953125 105.523438 L 122.773438 105.523438 C 122.773438 102.140625 121.710938 99.515625 119.585938 97.65625 C 117.460938 95.765625 114.476562 94.820312 110.632812 94.820312 C 106.921875 94.820312 104.03125 95.609375 101.976562 97.203125 C 99.984375 98.625 98.832031 100.945312 98.890625 103.390625 C 98.890625 105.789062 100.085938 107.804688 102.484375 109.429688 C 104.90625 111.046875 108.46875 112.570312 113.15625 113.992188 C 121.796875 116.59375 128.085938 119.828125 132.03125 123.679688 C 135.984375 127.539062 137.953125 132.34375 137.953125 138.085938 C 137.953125 144.484375 135.539062 149.5 130.71875 153.15625 C 125.890625 156.773438 119.398438 158.585938 111.234375 158.585938 C 105.914062 158.65625 100.636719 157.601562 95.75 155.492188 C 91.101562 153.390625 87.539062 150.53125 85.078125 146.914062 C 82.648438 143.296875 81.429688 139.101562 81.429688 134.335938 L 96.664062 134.335938 C 96.664062 142.484375 101.523438 146.5625 111.234375 146.5625 C 114.84375 146.5625 117.664062 145.835938 119.6875 144.375 C 121.679688 142.957031 122.820312 140.628906 122.726562 138.1875 Z M 169.054688 92.890625 L 154.421875 146.421875 L 142.367188 145.578125 L 151.484375 90.390625 Z M 156.289062 152 L 152.484375 170.914062 L 136.453125 166.234375 L 140.132812 148.09375 Z M 156.289062 152 "/>
</g>
</svg>
