<svg height="250" viewBox="0 0 250 250" width="250" xmlns="http://www.w3.org/2000/svg" xmlns:xlink="http://www.w3.org/1999/xlink"><filter id="a" height="100%" width="100%" x="0%" y="0%"><feColorMatrix in="SourceGraphic" type="matrix" values="0 0 0 0 1 0 0 0 0 1 0 0 0 0 1 0 0 0 1 0"/></filter><mask id="b"><g filter="url(#a)"><path d="m0 0h250v250h-250z" fill-opacity=".94"/></g></mask><clipPath id="c"><path d="m0 0h250v250h-250z"/></clipPath><path d="m249.894531 124.945312c0 69.007813-55.941406 124.949219-124.949219 124.949219-69.003906 0-124.945312-55.941406-124.945312-124.949219 0-69.003906 55.941406-124.945312 124.945312-124.945312 69.007813 0 124.949219 55.941406 124.949219 124.945312zm0 0" fill="#383838"/><path d="m6.324219 126.230469c0-69.007813 49.613281-124.945313 118.621093-124.945313 103.625 0-35.46875 55.9375-35.46875 124.945313 0 69.011719 104.480469 123.664062 35.46875 123.664062-77.472656-18.003906-118.621093-54.546875-118.621093-123.664062zm0 0" fill="#898989"/><path d="m123.769531 164.488281c-33.113281 0-57.222656-13.179687-82.726562-39.863281 25.714843-25.183594 49.828125-44.042969 82.726562-44.042969 30.753907 0 58.183594 12.859375 83.472657 38.578125-26.039063 25.71875-48.753907 45.328125-83.472657 45.328125zm0 0" fill="#4ebd94"/><path d="m211.957031 115.839844-60.113281-39.972656-49.9375-6.429688-18.859375 98.585938s97.40625 20.683593 128.910156-52.183594zm0 0" fill="#368866"/><path d="m157.414062 121.195312c0 20.789063-9.75 39.328126-24.859374 51.328126-11.144532 8.894531-24.644532 3.539062-38.792969-2.464844-35.253907-14.785156-52.292969-27.324219-57.863281-42.324219-2.035157-5.46875 25.609374-54.007813 61.722656-54.007813 17.679687 0 28.074218-11.039062 39.753906.425782 12.433594 12.003906 20.039062 28.613281 20.039062 47.042968zm0 0" fill="#4ebd94"/><path d="m124.945312 0c-68.902343 0-124.945312 56.042969-124.945312 124.945312 0 68.902344 56.042969 124.949219 124.945312 124.949219 68.902344 0 124.949219-56.046875 124.949219-124.949219 0-68.902343-56.046875-124.945312-124.949219-124.945312zm111.875 134.484375c-30.003906-39.757813-54.972656-54.4375-92.800781-66.117187 20.683594-3.214844 45.328125-3.964844 76.191407-2.679688 10.714843 17.253906 17.039062 37.503906 17.039062 59.257812 0 3.214844-.214844 6.429688-.429688 9.539063zm-113.050781 30.003906c-33.113281 0-57.222656-13.179687-82.726562-39.863281 25.714843-25.183594 49.828125-44.042969 82.726562-44.042969 30.753907 0 58.183594 12.859375 83.472657 38.578125-26.039063 25.71875-48.753907 45.328125-83.472657 45.328125zm1.175781-151.738281c34.398438 0 65.152344 15.539062 85.726563 39.972656-92.261719-2.574218-129.554687 15-178.097656 62.363282-5.035157-6-10.179688-12.75-15.644531-20.359376 13.289062-47.253906 56.6875-81.976562 108.015624-81.976562zm-111.335937 98.910156c29.574219 39.003906 54.113281 53.578125 91.191406 65.152344-21.003906 3.425781-45.972656 4.285156-77.582031 3-9.109375-16.183594-14.359375-34.933594-14.359375-54.867188-.109375-4.5.214844-8.894531.75-13.285156zm111.335937 125.589844c-36.433593 0-68.6875-17.46875-89.261718-44.472656 5.785156.105468 11.359375.214844 16.714844.214844 81.441406 0 116.910156-18.753907 163.3125-64.507813 5.785156 6.75 11.785156 14.570313 18 23.464844-12 48.972656-56.148438 85.300781-108.765626 85.300781zm23.683594-115.625c0 13.074219-10.609375 23.679688-23.683594 23.679688-13.070312 0-23.679687-10.605469-23.679687-23.679688 0-2.679688.535156-5.25 1.390625-7.609375 2.359375 2.359375 5.679688 3.859375 9.324219 3.859375 7.394531 0 13.394531-6 13.394531-13.394531 0-2.359375-.644531-4.5-1.714844-6.324219.429688 0 .859375-.105469 1.285156-.105469 13.074219-.109375 23.683594 10.5 23.683594 23.574219zm0 0" fill="#222323"/><g clip-path="url(#c)" mask="url(#b)"><path d="m119.695312 104.480469c0 4.140625-3.359374 7.5-7.5 7.5-4.144531 0-7.5-3.359375-7.5-7.5 0-4.144531 3.355469-7.503907 7.5-7.503907 4.140626 0 7.5 3.359376 7.5 7.503907zm0 0" fill="#fff"/></g></svg>