<!-- Generator: Adobe Illustrator 21.0.2, SVG Export Plug-In . SVG Version: 6.00 Build 0)  -->
<svg xmlns="http://www.w3.org/2000/svg" xmlns:xlink="http://www.w3.org/1999/xlink" width="250px" height="250px" viewBox="0 0 250 250" version="1.1">
<defs>
<filter id="alpha" filterUnits="objectBoundingBox" x="0%" y="0%" width="100%" height="100%">
  <feColorMatrix type="matrix" in="SourceGraphic" values="0 0 0 0 1 0 0 0 0 1 0 0 0 0 1 0 0 0 1 0"/>
</filter>
<mask id="mask0">
  <g filter="url(#alpha)">
<rect x="0" y="0" width="250" height="250" style="fill:rgb(0%,0%,0%);fill-opacity:0.94;stroke:none;"/>
  </g>
</mask>
<clipPath id="clip1">
  <rect x="0" y="0" width="250" height="250"/>
</clipPath>
<g id="surface5" clip-path="url(#clip1)">
<path style=" stroke:none;fill-rule:nonzero;fill:rgb(100%,100%,100%);fill-opacity:1;" d="M 119.695312 104.480469 C 119.695312 108.621094 116.335938 111.980469 112.195312 111.980469 C 108.050781 111.980469 104.695312 108.621094 104.695312 104.480469 C 104.695312 100.335938 108.050781 96.976562 112.195312 96.976562 C 116.335938 96.976562 119.695312 100.335938 119.695312 104.480469 Z M 119.695312 104.480469 "/>
</g>
</defs>
<g id="surface1">
<path style=" stroke:none;fill-rule:nonzero;fill:rgb(21.960784%,21.960784%,21.960784%);fill-opacity:1;" d="M 249.894531 124.945312 C 249.894531 193.953125 193.953125 249.894531 124.945312 249.894531 C 55.941406 249.894531 0 193.953125 0 124.945312 C 0 55.941406 55.941406 0 124.945312 0 C 193.953125 0 249.894531 55.941406 249.894531 124.945312 Z M 249.894531 124.945312 "/>
<path style=" stroke:none;fill-rule:nonzero;fill:rgb(53.725493%,53.725493%,53.725493%);fill-opacity:1;" d="M 6.324219 126.230469 C 6.324219 57.222656 55.9375 1.285156 124.945312 1.285156 C 228.570312 1.285156 89.476562 57.222656 89.476562 126.230469 C 89.476562 195.242188 193.957031 249.894531 124.945312 249.894531 C 47.472656 231.890625 6.324219 195.347656 6.324219 126.230469 Z M 6.324219 126.230469 "/>
<path style=" stroke:none;fill-rule:nonzero;fill:rgb(30.588236%,74.117649%,58.039218%);fill-opacity:1;" d="M 123.769531 164.488281 C 90.65625 164.488281 66.546875 151.308594 41.042969 124.625 C 66.757812 99.441406 90.871094 80.582031 123.769531 80.582031 C 154.523438 80.582031 181.953125 93.441406 207.242188 119.160156 C 181.203125 144.878906 158.488281 164.488281 123.769531 164.488281 Z M 123.769531 164.488281 "/>
<path style=" stroke:none;fill-rule:nonzero;fill:rgb(21.176471%,53.333336%,40.000001%);fill-opacity:1;" d="M 211.957031 115.839844 L 151.84375 75.867188 L 101.90625 69.4375 L 83.046875 168.023438 C 83.046875 168.023438 180.453125 188.707031 211.957031 115.839844 Z M 211.957031 115.839844 "/>
<path style=" stroke:none;fill-rule:nonzero;fill:rgb(30.588236%,74.117649%,58.039218%);fill-opacity:1;" d="M 157.414062 121.195312 C 157.414062 141.984375 147.664062 160.523438 132.554688 172.523438 C 121.410156 181.417969 107.910156 176.0625 93.761719 170.058594 C 58.507812 155.273438 41.46875 142.734375 35.898438 127.734375 C 33.863281 122.265625 61.507812 73.726562 97.621094 73.726562 C 115.300781 73.726562 125.695312 62.6875 137.375 74.152344 C 149.808594 86.15625 157.414062 102.765625 157.414062 121.195312 Z M 157.414062 121.195312 "/>
<path style=" stroke:none;fill-rule:nonzero;fill:rgb(13.333334%,13.725491%,13.725491%);fill-opacity:1;" d="M 124.945312 0 C 56.042969 0 0 56.042969 0 124.945312 C 0 193.847656 56.042969 249.894531 124.945312 249.894531 C 193.847656 249.894531 249.894531 193.847656 249.894531 124.945312 C 249.894531 56.042969 193.847656 0 124.945312 0 Z M 236.820312 134.484375 C 206.816406 94.726562 181.847656 80.046875 144.019531 68.367188 C 164.703125 65.152344 189.347656 64.402344 220.210938 65.6875 C 230.925781 82.941406 237.25 103.191406 237.25 124.945312 C 237.25 128.160156 237.035156 131.375 236.820312 134.484375 Z M 123.769531 164.488281 C 90.65625 164.488281 66.546875 151.308594 41.042969 124.625 C 66.757812 99.441406 90.871094 80.582031 123.769531 80.582031 C 154.523438 80.582031 181.953125 93.441406 207.242188 119.160156 C 181.203125 144.878906 158.488281 164.488281 123.769531 164.488281 Z M 124.945312 12.75 C 159.34375 12.75 190.097656 28.289062 210.671875 52.722656 C 118.410156 50.148438 81.117188 67.722656 32.574219 115.085938 C 27.539062 109.085938 22.394531 102.335938 16.929688 94.726562 C 30.21875 47.472656 73.617188 12.75 124.945312 12.75 Z M 13.609375 111.660156 C 43.183594 150.664062 67.722656 165.238281 104.800781 176.8125 C 83.796875 180.238281 58.828125 181.097656 27.21875 179.8125 C 18.109375 163.628906 12.859375 144.878906 12.859375 124.945312 C 12.75 120.445312 13.074219 116.050781 13.609375 111.660156 Z M 124.945312 237.25 C 88.511719 237.25 56.257812 219.78125 35.683594 192.777344 C 41.46875 192.882812 47.042969 192.992188 52.398438 192.992188 C 133.839844 192.992188 169.308594 174.238281 215.710938 128.484375 C 221.496094 135.234375 227.496094 143.054688 233.710938 151.949219 C 221.710938 200.921875 177.5625 237.25 124.945312 237.25 Z M 148.628906 121.625 C 148.628906 134.699219 138.019531 145.304688 124.945312 145.304688 C 111.875 145.304688 101.265625 134.699219 101.265625 121.625 C 101.265625 118.945312 101.800781 116.375 102.65625 114.015625 C 105.015625 116.375 108.335938 117.875 111.980469 117.875 C 119.375 117.875 125.375 111.875 125.375 104.480469 C 125.375 102.121094 124.730469 99.980469 123.660156 98.15625 C 124.089844 98.15625 124.519531 98.050781 124.945312 98.050781 C 138.019531 97.941406 148.628906 108.550781 148.628906 121.625 Z M 148.628906 121.625 "/>
<use xlink:href="#surface5" mask="url(#mask0)"/>
</g>
</svg>
