<svg height="250" viewBox="0 0 250 250" width="250" xmlns="http://www.w3.org/2000/svg"><path d="m362.501719 185c0 98.032656-79.469063 177.501719-177.501719 177.501719s-177.501719-79.469063-177.501719-177.501719 79.469063-177.501719 177.501719-177.501719 177.501719 79.469063 177.501719 177.501719zm0 0" fill="none" stroke="#6200ea" stroke-width="15" transform="scale(.675676)"/><path d="m182.183594 144.386719c.566406 1.007812 6.9375 12.863281.871094 35.402343-.710938-.152343-1.40625-.371093-2.078126-.648437h-.039062c-2.101562-.730469-4.019531-1.917969-5.617188-3.476563 0 0 .605469 14.007813-8.292968 25.730469-.050782.097657-.109375.1875-.183594.265625l-.042969-.039062c-2.257812-2.332032-3.96875-5.144532-5-8.230469 0 0-4.828125 11.035156-18.289062 21.648437-1.128907.910157-2.292969 1.78125-3.539063 2.652344-6.824218 4.777344-10.628906 7.96875-12.738281 10.066406-.117187.148438-.246094.285157-.382813.414063-.113281.136719-.242187.261719-.375.382813-1.660156 1.816406-1.808593 2.617187-1.808593 2.84375 0-.226563-.152344-1.007813-1.8125-2.84375-.132813-.121094-.257813-.246094-.375-.382813-.136719-.128906-.261719-.265625-.378907-.414063-2.113281-2.089843-5.917968-5.28125-12.742187-10.066406-1.242187-.871094-2.410156-1.742187-3.539063-2.652344-2.433593-1.90625-4.746093-3.957031-6.929687-6.148437-8.746094-8.699219-11.277344-15.261719-11.367187-15.460937-1.03125 3.085937-2.742188 5.902343-5.003907 8.230468l-.039062.042969c-.074219-.082031-.136719-.171875-.1875-.269531-8.90625-11.742188-8.320313-25.769532-8.320313-25.769532-1.589844 1.558594-3.503906 2.746094-5.601562 3.476563h-.035156c-.671876.277344-1.367188.496094-2.074219.648437-6.070313-22.539062.304687-34.414062.867187-35.402343.019532-.019531.035156-.042969.035156-.074219-.019531-.023438-.042968-.050781-.070312-.070312-1.667969-1.210938-27.195312-20.789063-10.476562-71.574219 0 0 4.851562 1.203125 7.652343 5.433593 0 0-.269531-15.078124 19.207031-34.992187 3.441407 2.785156 5.722657 6.761719 6.402344 11.152344 0 0 5.902344-8.980469 17.632813-16.53125 12.648437-8.113281 17.144531-13.589844 17.144531-19.128907 0 0 28.214844 16.890626 34.777344 35.660157 1-7.183594 6.402344-11.152344 6.402344-11.152344 19.476562 19.914063 19.207031 34.992187 19.207031 34.992187 2.800781-4.230468 7.65625-5.433593 7.65625-5.433593 16.714843 50.785156-8.808594 70.363281-10.480469 71.574219-.027344.019531-.050781.046874-.070312.070312.003906.03125.015624.054688.035156.074219zm-57.523438-40.59375c-50.257812-29.445313-61.492187 26.566406-19.832031 28.644531 0 0-5.089844 3.1875-10.816406 3.796875 1.945312.972656 4.164062 1.253906 6.289062.792969-16.550781 17.621094-10.101562 54.101562 24.355469 54.101562s40.902344-36.496094 24.34375-54.101562c2.128906.460937 4.34375.179687 6.292969-.792969-5.726563-.609375-10.820313-3.796875-10.820313-3.796875 41.671875-2.078125 30.4375-58.089844-19.816406-28.644531zm21.074219 11.859375c0 3.371094-1.761719 6.09375-3.929687 6.09375-2.171876 0-3.933594-2.722656-3.933594-6.09375 0-3.367188 1.761718-6.089844 3.933594-6.089844 2.167968 0 3.925781 2.730469 3.925781 6.089844zm-38.214844-6.089844c2.171875 0 3.933594 2.730469 3.933594 6.089844 0 3.363281-1.761719 6.09375-3.933594 6.09375s-3.929687-2.722656-3.929687-6.09375c0-3.367188 1.753906-6.089844 3.925781-6.089844zm23.800781 30.019531c-3.773437-1.199219-4.503906 5.035157-4.503906 5.035157 7.445313.84375 7.820313-3.984376 4.496094-5.035157zm-8.839843 5.035157s-.703125-6.214844-4.476563-5.035157c-3.324218 1.050781-2.949218 5.878907 4.488282 5.011719zm2.175781 23.15625c11.734375.042968 20.367188-5.832032 19.847656-6.761719-.441406-1.0625-9.09375 1.882812-19.847656 1.800781-10.757812.082031-19.410156-2.863281-19.851562-1.800781-.527344.890625 8.109374 6.769531 19.847656 6.71875zm0 0" fill="#6200ea"/></svg>