
<svg xmlns="http://www.w3.org/2000/svg" xmlns:xlink="http://www.w3.org/1999/xlink" width="250px" height="250px" viewBox="0 0 250 250" version="1.1">
<g id="surface1">
<path style="fill:none;stroke-width:15;stroke-linecap:butt;stroke-linejoin:miter;stroke:rgb(38.431373%,0%,91.764706%);stroke-opacity:1;stroke-miterlimit:4;" d="M 362.501719 185 C 362.501719 283.032656 283.032656 362.501719 185 362.501719 C 86.967344 362.501719 7.498281 283.032656 7.498281 185 C 7.498281 86.967344 86.967344 7.498281 185 7.498281 C 283.032656 7.498281 362.501719 86.967344 362.501719 185 Z M 362.501719 185 " transform="matrix(0.675676,0,0,0.675676,0,0)"/>
<path style=" stroke:none;fill-rule:nonzero;fill:rgb(38.431373%,0%,91.764706%);fill-opacity:1;" d="M 182.183594 144.386719 C 182.75 145.394531 189.121094 157.25 183.054688 179.789062 C 182.34375 179.636719 181.648438 179.417969 180.976562 179.140625 L 180.9375 179.140625 C 178.835938 178.410156 176.917969 177.222656 175.320312 175.664062 C 175.320312 175.664062 175.925781 189.671875 167.027344 201.394531 C 166.976562 201.492188 166.917969 201.582031 166.84375 201.660156 L 166.800781 201.621094 C 164.542969 199.289062 162.832031 196.476562 161.800781 193.390625 C 161.800781 193.390625 156.972656 204.425781 143.511719 215.039062 C 142.382812 215.949219 141.21875 216.820312 139.972656 217.691406 C 133.148438 222.46875 129.34375 225.660156 127.234375 227.757812 C 127.117188 227.90625 126.988281 228.042969 126.851562 228.171875 C 126.738281 228.308594 126.609375 228.433594 126.476562 228.554688 C 124.816406 230.371094 124.667969 231.171875 124.667969 231.398438 C 124.667969 231.171875 124.515625 230.390625 122.855469 228.554688 C 122.722656 228.433594 122.597656 228.308594 122.480469 228.171875 C 122.34375 228.042969 122.21875 227.90625 122.101562 227.757812 C 119.988281 225.667969 116.183594 222.476562 109.359375 217.691406 C 108.117188 216.820312 106.949219 215.949219 105.820312 215.039062 C 103.386719 213.132812 101.074219 211.082031 98.890625 208.890625 C 90.144531 200.191406 87.613281 193.628906 87.523438 193.429688 C 86.492188 196.515625 84.78125 199.332031 82.519531 201.660156 L 82.480469 201.703125 C 82.40625 201.621094 82.34375 201.53125 82.292969 201.433594 C 73.386719 189.691406 73.972656 175.664062 73.972656 175.664062 C 72.382812 177.222656 70.46875 178.410156 68.371094 179.140625 L 68.335938 179.140625 C 67.664062 179.417969 66.96875 179.636719 66.261719 179.789062 C 60.191406 157.25 66.566406 145.375 67.128906 144.386719 C 67.148438 144.367188 67.164062 144.34375 67.164062 144.3125 C 67.144531 144.289062 67.121094 144.261719 67.09375 144.242188 C 65.425781 143.03125 39.898438 123.453125 56.617188 72.667969 C 56.617188 72.667969 61.46875 73.871094 64.269531 78.101562 C 64.269531 78.101562 64 63.023438 83.476562 43.109375 C 86.917969 45.894531 89.199219 49.871094 89.878906 54.261719 C 89.878906 54.261719 95.78125 45.28125 107.511719 37.730469 C 120.160156 29.617188 124.65625 24.140625 124.65625 18.601562 C 124.65625 18.601562 152.871094 35.492188 159.433594 54.261719 C 160.433594 47.078125 165.835938 43.109375 165.835938 43.109375 C 185.3125 63.023438 185.042969 78.101562 185.042969 78.101562 C 187.84375 73.871094 192.699219 72.667969 192.699219 72.667969 C 209.414062 123.453125 183.890625 143.03125 182.21875 144.242188 C 182.191406 144.261719 182.167969 144.289062 182.148438 144.3125 C 182.152344 144.34375 182.164062 144.367188 182.183594 144.386719 Z M 124.660156 103.792969 C 74.402344 74.347656 63.167969 130.359375 104.828125 132.4375 C 104.828125 132.4375 99.738281 135.625 94.011719 136.234375 C 95.957031 137.207031 98.175781 137.488281 100.300781 137.027344 C 83.75 154.648438 90.199219 191.128906 124.65625 191.128906 C 159.113281 191.128906 165.558594 154.632812 149 137.027344 C 151.128906 137.488281 153.34375 137.207031 155.292969 136.234375 C 149.566406 135.625 144.472656 132.4375 144.472656 132.4375 C 186.144531 130.359375 174.910156 74.347656 124.65625 103.792969 Z M 145.734375 115.652344 C 145.734375 119.023438 143.972656 121.746094 141.804688 121.746094 C 139.632812 121.746094 137.871094 119.023438 137.871094 115.652344 C 137.871094 112.285156 139.632812 109.5625 141.804688 109.5625 C 143.972656 109.5625 145.730469 112.292969 145.730469 115.652344 Z M 107.519531 109.5625 C 109.691406 109.5625 111.453125 112.292969 111.453125 115.652344 C 111.453125 119.015625 109.691406 121.746094 107.519531 121.746094 C 105.347656 121.746094 103.589844 119.023438 103.589844 115.652344 C 103.589844 112.285156 105.34375 109.5625 107.515625 109.5625 Z M 131.320312 139.582031 C 127.546875 138.382812 126.816406 144.617188 126.816406 144.617188 C 134.261719 145.460938 134.636719 140.632812 131.3125 139.582031 Z M 122.480469 144.617188 C 122.480469 144.617188 121.777344 138.402344 118.003906 139.582031 C 114.679688 140.632812 115.054688 145.460938 122.492188 144.59375 Z M 124.65625 167.773438 C 136.390625 167.816406 145.023438 161.941406 144.503906 161.011719 C 144.0625 159.949219 135.410156 162.894531 124.65625 162.8125 C 113.898438 162.894531 105.246094 159.949219 104.804688 161.011719 C 104.277344 161.902344 112.914062 167.78125 124.652344 167.730469 Z M 124.65625 167.773438 "/>
</g>
</svg>
