<svg height="250" viewBox="0 0 250 250" width="250" xmlns="http://www.w3.org/2000/svg" xmlns:xlink="http://www.w3.org/1999/xlink"><linearGradient id="a" gradientTransform="matrix(23.282625 0 0 18.23175 5.051113 -.448262)" gradientUnits="userSpaceOnUse" x1=".5" x2=".060596" y1=".29908" y2=".761425"><stop offset="0" stop-color="#c578f3"/><stop offset=".865157" stop-color="#54feb0"/><stop offset=".866678" stop-color="#53ffb0"/><stop offset="1" stop-color="#53ffb0"/></linearGradient><linearGradient id="b" gradientUnits="userSpaceOnUse" x1="14.06287734" x2="5.6839657605" y1="5.865524484" y2="26.7122316345"><stop offset="0" stop-color="#c578f3"/><stop offset=".865157" stop-color="#54feb0"/><stop offset=".92842" stop-color="#53ffb0"/><stop offset="1" stop-color="#53ffb0"/></linearGradient><path d="m250 125c0 69.035156-55.964844 125-125 125s-125-55.964844-125-125 55.964844-125 125-125 125 55.964844 125 125zm0 0" fill="#0b0e1c" fill-rule="evenodd"/><path d="m231.632812 106.476562c0 58.804688-47.671874 106.476563-106.476562 106.476563s-106.476562-47.671875-106.476562-106.476563c0-58.804687 47.671874-106.476562 106.476562-106.476562s106.476562 47.671875 106.476562 106.476562zm0 0" fill="#0b0e1c" fill-rule="evenodd"/><path d="m28.327738-.448262s-9.2025 2.747625-9.232125 2.747625c-.014625 0-1.40925-.8115-2.905875-1.23375-1.558125-.43875-3.338625-.50775-3.338625-.50775-1.614-.815625-3.202875-.56662496-4.78275.048375l.7605.693c-3.663 1.810125-3.49125 8.863875-3.77775 12.009375 0 .064125 1.224-3.878625 1.224-3.878625l3.6675-1.0005s-.280875 1.483875-.65475 1.66425c-.40425.195-1.05825.351375-1.5525.467625l-2.35875 7.222125.81525-.27525 2.142375-6.346125s1.102875-.300375 1.476375-.514125c.2505-.143625.436875-.6495.493125-.84075.167625-.572625.507-1.61625.516-2.397l-4.549125 1.249125c.254625-3.186375 1.512-6.2025 3.2895-6.807 1.596375 1.246875 2.98875 2.7285 4.128375 4.3935l-.827625.447375c-.28425.154875-.504375.340125-.594375.778125l-.089625.561c-.0465.365625.117375.750375.29925 1.0725l1.2045 2.004-.328875 1.785375-4.945125 1.73325c-.427875.177375-.583125.225-.799875.82125l-.56175 1.771875.740625-.24975s.29325-1.038.385125-1.30125c.091875-.262875.455625-.411375.77625-.522375 2.049-.707625 2.557875-.884625 2.557875-.884625s-.098625 1.162125-.780375 1.716375c1.061625-.3585 1.337625-.899625 1.6755-2.005875l1.6785-.675.46875-2.17725 3.17325-1.88475c.195-.115875.364875-.26925.49875-.451125s.229125-.3885.2805-.6075l1.26975-5.37675 7.794375-2.2035s-.07575.731625-.411375 1.439625c-.157125.331875-.32025.703125-.693375 1.15425-.363375.439125-.880875 1.003125-1.215 1.13625l-4.8435 1.63425-.1635.807375 4.98825-1.68375c.012375.718875-.58725 1.830375-1.213125 2.49675-.684375.727875-2.33475 1.350375-3.490125 1.7475-.682875.23475-1.213875.421875-1.213875.421875l-.257625.805125 2.2905-.73275c-.004125.208125-.195.697125-.282.89325-.322875.733125-.69525 1.185-1.686375 1.57275-.991125.388125-6.290625 2.20425-6.290625 2.20425l-.304875.855s4.780875-1.551375 7.010625-2.3655c1.6005-.584625 2.215875-1.855125 2.461125-3.4815 2.6265-1.357875 3.65475-2.436 3.819-4.85025 1.8825-1.3965 2.325375-3.2865 2.25975-5.1zm-19.087875 1.2075c2.2365-.6555 4.16475.44325 6.78075 4.375875l-1.6185.766125c-1.316625-1.807875-3.034125-3.591375-5.16225-5.142zm7.75875 8.019375-2.775 1.60725-1.136625-1.797c-.0975-.157875-.13575-.344625-.108-.527625l.049125-.3315c.015-.100875.031875-.210375.10125-.286125.213-.232125.706875-.471375.706875-.471375l2.52525-1.235625 1.073625 1.5825c.124875.182625.189.399375.183375.6195 0 .02475-.002625.049125-.007875.073125-.0945.3255-.292125.5625-.612.766875zm.979875-2.069625c-1.003875-1.42425-1.6905-2.620875-2.55375-3.666375-.5115-.619875-1.138125-1.291125-1.972125-1.785375 1.692375.087375 3.78675.693375 5.3775 1.79925zm0 0" fill="url(#a)" stroke="url(#a)" stroke-linejoin="round" stroke-width=".5" transform="matrix(10.416667 0 0 10.416667 18.368614 18.368614)"/><path d="m22.20675 11.985c0 5.64525-4.5765 10.22175-10.22175 10.22175s-10.22175-4.5765-10.22175-10.22175 4.5765-10.22175 10.22175-10.22175 10.22175 4.5765 10.22175 10.22175zm0 0" fill="none" stroke="url(#b)" stroke-width=".657534" transform="scale(10.416667)"/></svg>