<?xml version="1.0" encoding="UTF-8"?>
<!DOCTYPE svg PUBLIC "-//W3C//DTD SVG 1.1//EN" "http://www.w3.org/Graphics/SVG/1.1/DTD/svg11.dtd">
<svg xmlns="http://www.w3.org/2000/svg" version="1.1" width="3192px" height="3135px" style="shape-rendering:geometricPrecision; text-rendering:geometricPrecision; image-rendering:optimizeQuality; fill-rule:evenodd; clip-rule:evenodd" xmlns:xlink="http://www.w3.org/1999/xlink">
<g><path style="opacity:1" fill="#384078" d="M 1517.5,-0.5 C 1517.83,-0.5 1518.17,-0.5 1518.5,-0.5C 1518.83,0.833333 1519.17,0.833333 1519.5,-0.5C 1519.83,-0.5 1520.17,-0.5 1520.5,-0.5C 1520.83,0.833333 1521.17,0.833333 1521.5,-0.5C 1521.83,-0.5 1522.17,-0.5 1522.5,-0.5C 1522.83,0.833333 1523.17,0.833333 1523.5,-0.5C 1523.83,-0.5 1524.17,-0.5 1524.5,-0.5C 1524.83,0.833333 1525.17,0.833333 1525.5,-0.5C 1552.83,-0.5 1580.17,-0.5 1607.5,-0.5C 1607.83,0.833333 1608.17,0.833333 1608.5,-0.5C 1608.83,-0.5 1609.17,-0.5 1609.5,-0.5C 1609.83,0.833333 1610.17,0.833333 1610.5,-0.5C 1610.83,-0.5 1611.17,-0.5 1611.5,-0.5C 1611.83,0.833333 1612.17,0.833333 1612.5,-0.5C 1612.83,-0.5 1613.17,-0.5 1613.5,-0.5C 1613.83,0.833333 1614.17,0.833333 1614.5,-0.5C 1614.83,-0.5 1615.17,-0.5 1615.5,-0.5C 1743.53,3.47103 1872.2,23.6377 2001.5,60C 2298.49,148.019 2548.66,308.186 2752,540.5C 2967.98,792.831 3093.15,1084 3127.5,1414C 3127.17,1414.33 3126.83,1414.67 3126.5,1415C 3145.27,1597.56 3130.44,1783.06 3082,1971.5C 2996.85,2281.76 2833.68,2542.26 2592.5,2753C 2345,2964.64 2061.5,3088.47 1742,3124.5C 1735.94,3125.94 1729.94,3126.94 1724,3127.5C 1723.67,3127.17 1723.33,3126.83 1723,3126.5C 1707.62,3128.27 1691.96,3129.93 1676,3131.5C 1675,3131.17 1674,3130.83 1673,3130.5C 1668.67,3131.17 1664.33,3131.83 1660,3132.5C 1659,3132.17 1658,3131.83 1657,3131.5C 1643.63,3132.57 1629.8,3133.57 1615.5,3134.5C 1615.17,3134.5 1614.83,3134.5 1614.5,3134.5C 1614.17,3133.17 1613.83,3133.17 1613.5,3134.5C 1613.17,3134.5 1612.83,3134.5 1612.5,3134.5C 1612.17,3133.17 1611.83,3133.17 1611.5,3134.5C 1611.17,3134.5 1610.83,3134.5 1610.5,3134.5C 1610.17,3133.17 1609.83,3133.17 1609.5,3134.5C 1609.17,3134.5 1608.83,3134.5 1608.5,3134.5C 1608.17,3133.17 1607.83,3133.17 1607.5,3134.5C 1580.17,3134.5 1552.83,3134.5 1525.5,3134.5C 1525.17,3133.17 1524.83,3133.17 1524.5,3134.5C 1524.17,3134.5 1523.83,3134.5 1523.5,3134.5C 1523.17,3133.17 1522.83,3133.17 1522.5,3134.5C 1522.17,3134.5 1521.83,3134.5 1521.5,3134.5C 1521.17,3133.17 1520.83,3133.17 1520.5,3134.5C 1520.17,3134.5 1519.83,3134.5 1519.5,3134.5C 1519.17,3133.17 1518.83,3133.17 1518.5,3134.5C 1518.17,3134.5 1517.83,3134.5 1517.5,3134.5C 1397.79,3130.62 1276.46,3112.45 1153.5,3080C 857.464,2997.08 606.631,2842.25 401,2615.5C 162.164,2345.74 29.3303,2032.24 2.5,1675C 2.83333,1674.67 3.16667,1674.33 3.5,1674C 1.81611,1654.15 0.482779,1634.65 -0.5,1615.5C -0.5,1615.17 -0.5,1614.83 -0.5,1614.5C 0.833333,1614.17 0.833333,1613.83 -0.5,1613.5C -0.5,1613.17 -0.5,1612.83 -0.5,1612.5C 0.833333,1612.17 0.833333,1611.83 -0.5,1611.5C -0.5,1611.17 -0.5,1610.83 -0.5,1610.5C 0.833333,1610.17 0.833333,1609.83 -0.5,1609.5C -0.5,1609.17 -0.5,1608.83 -0.5,1608.5C 0.833333,1608.17 0.833333,1607.83 -0.5,1607.5C -0.5,1580.5 -0.5,1553.5 -0.5,1526.5C 0.833333,1526.17 0.833333,1525.83 -0.5,1525.5C -0.5,1525.17 -0.5,1524.83 -0.5,1524.5C 0.833333,1524.17 0.833333,1523.83 -0.5,1523.5C -0.5,1523.17 -0.5,1522.83 -0.5,1522.5C 0.833333,1522.17 0.833333,1521.83 -0.5,1521.5C -0.5,1521.17 -0.5,1520.83 -0.5,1520.5C 0.833333,1520.17 0.833333,1519.83 -0.5,1519.5C -0.5,1519.17 -0.5,1518.83 -0.5,1518.5C 6.87328,1277.58 68.0399,1047.58 183,828.5C 332.193,554.641 543.026,341.807 815.5,190C 1025.76,77.0244 1245.93,14.5244 1476,2.5C 1489.44,1.06304 1503.28,0.0630355 1517.5,-0.5 Z M 1530.5,151.5 C 1554.94,151.53 1579.11,151.53 1603,151.5C 1722.34,154.79 1841.84,173.29 1961.5,207C 2259.52,296.364 2503.35,463.864 2693,709.5C 2866.55,941.918 2962.38,1201.75 2980.5,1489C 2980.17,1490 2979.83,1491 2979.5,1492C 2989.35,1647.05 2970.85,1806.55 2924,1970.5C 2841.44,2240.93 2692.94,2467.43 2478.5,2650C 2252.82,2837.32 1997.32,2945.49 1712,2974.5C 1696.97,2976.33 1681.63,2977.99 1666,2979.5C 1665.67,2979.17 1665.33,2978.83 1665,2978.5C 1660,2979.17 1655,2979.83 1650,2980.5C 1649,2980.17 1648,2979.83 1647,2979.5C 1632.9,2980.63 1618.23,2981.63 1603,2982.5C 1579.61,2982.46 1555.94,2982.46 1532,2982.5C 1477.03,2981.27 1440.37,2954.27 1422,2901.5C 1395.36,2819.85 1402.02,2738.85 1442,2658.5C 1449.5,2645.5 1457.5,2632.83 1466,2620.5C 1595.31,2461.16 1731.31,2307.16 1874,2158.5C 1898.69,2133.47 1923.69,2108.8 1949,2084.5C 1958.67,2069 1956.51,2054.84 1942.5,2042C 1930.65,2035.73 1918.98,2036.06 1907.5,2043C 1815.22,2136.29 1720.22,2226.29 1622.5,2313C 1564.21,2363.81 1505.54,2414.14 1446.5,2464C 1382.98,2511.39 1314.65,2520.06 1241.5,2490C 1192.76,2465.4 1156.92,2428.23 1134,2378.5C 1100.4,2299.3 1105.73,2222.63 1150,2148.5C 1157.42,2137.99 1165.09,2127.66 1173,2117.5C 1321.14,1935.67 1474.14,1757.67 1632,1583.5C 1719.98,1487.51 1810.15,1393.35 1902.5,1301C 1914.33,1289.83 1926.17,1278.67 1938,1267.5C 1951.53,1249.75 1952.86,1231.08 1942,1211.5C 1928.31,1193.25 1910.48,1187.41 1888.5,1194C 1882.55,1195.97 1877.22,1198.97 1872.5,1203C 1843.17,1233 1813.83,1263 1784.5,1293C 1671.91,1402.94 1556.91,1509.94 1439.5,1614C 1300.39,1736.52 1159.06,1856.18 1015.5,1973C 948.556,2018.62 876.89,2031.62 800.5,2012C 747.271,1996.5 703.771,1967 670,1923.5C 631.556,1865.7 622.89,1805.03 644,1741.5C 650.581,1723.67 659.247,1707 670,1691.5C 775.876,1563.6 886.21,1439.27 1001,1318.5C 1033.33,1286.17 1065.67,1253.83 1098,1221.5C 1106.81,1205.54 1104.31,1191.71 1090.5,1180C 1080.48,1174.35 1070.48,1173.68 1060.5,1178C 1056.5,1180.67 1052.5,1183.33 1048.5,1186C 976.889,1260.08 902.889,1331.41 826.5,1400C 728.268,1488.24 628.268,1574.24 526.5,1658C 453.026,1713.2 373.193,1731.37 287,1712.5C 254.27,1706.89 224.77,1693.72 198.5,1673C 170.981,1646.96 155.314,1615.3 151.5,1578C 149.746,1442.85 168.913,1305.35 209,1165.5C 296.259,879.006 456.425,642.506 689.5,456C 908.327,286.34 1152.83,187.507 1423,159.5C 1433.65,158.02 1444.32,156.687 1455,155.5C 1455.33,155.833 1455.67,156.167 1456,156.5C 1460.33,155.833 1464.67,155.167 1469,154.5C 1469.33,154.833 1469.67,155.167 1470,155.5C 1474.67,154.833 1479.33,154.167 1484,153.5C 1485,153.833 1486,154.167 1487,154.5C 1501.04,153.436 1515.54,152.436 1530.5,151.5 Z"/></g>
<g><path style="opacity:1" fill="#384078" d="M 2046.5,704.5 C 2053.11,703.898 2059.44,705.398 2065.5,709C 2088.68,726.09 2111.68,743.424 2134.5,761C 2171.15,785.409 2209.98,793.909 2251,786.5C 2285.37,775.375 2319.71,764.042 2354,752.5C 2371.18,753.68 2380.35,762.847 2381.5,780C 2370.47,812.743 2359.64,845.577 2349,878.5C 2339.85,921.739 2347.85,962.073 2373,999.5C 2390.09,1022.68 2407.42,1045.68 2425,1068.5C 2432.47,1081.39 2430.64,1092.89 2419.5,1103C 2415.11,1106.02 2410.27,1107.85 2405,1108.5C 2384.16,1107.91 2362.49,1107.24 2340,1106.5C 2331.14,1107.45 2322.14,1107.45 2313,1106.5C 2271.78,1109.43 2236.45,1126.43 2207,1157.5C 2187.61,1183.89 2168.61,1210.56 2150,1237.5C 2138.06,1250.27 2125.56,1251.77 2112.5,1242C 2110.64,1240.44 2109.14,1238.61 2108,1236.5C 2096.87,1202.1 2085.53,1167.77 2074,1133.5C 2056.91,1097.74 2030.07,1072.24 1993.5,1057C 1961.42,1046.86 1929.42,1036.53 1897.5,1026C 1886.67,1017.07 1883.5,1006.57 1888,994.5C 1890.08,990.421 1892.91,986.921 1896.5,984C 1923.44,965.388 1950.11,946.388 1976.5,927C 2006.66,898.911 2023.66,864.244 2027.5,823C 2027.21,794.579 2026.54,763.246 2025.5,729C 2027.33,716.339 2034.33,708.172 2046.5,704.5 Z"/></g>
<g><path style="opacity:1" fill="#384078" d="M 1190.5,767.5 C 1194.94,767.273 1199.61,768.44 1204.5,771C 1223.99,785.578 1243.66,799.911 1263.5,814C 1297.94,832.303 1332.44,837.803 1367,830.5C 1391.24,822.308 1415.58,814.308 1440,806.5C 1449.6,807.049 1456.27,812.049 1460,821.5C 1460.42,828.288 1460.92,834.455 1461.5,840C 1453.61,862.336 1446.11,884.836 1439,907.5C 1431.51,941.442 1436.51,973.775 1454,1004.5C 1467.18,1023.52 1480.84,1042.19 1495,1060.5C 1497.8,1064.27 1499.63,1068.43 1500.5,1073C 1499.43,1077.94 1499.43,1082.6 1500.5,1087C 1498.33,1097.17 1492.17,1103.33 1482,1105.5C 1455.94,1104.21 1428.94,1104.21 1401,1105.5C 1368.09,1111.8 1339.76,1127.13 1316,1151.5C 1300.95,1171.55 1286.28,1191.89 1272,1212.5C 1260.46,1221.26 1249.8,1220.26 1240,1209.5C 1232.6,1187.98 1225.6,1166.31 1219,1144.5C 1204.18,1107.35 1178.68,1080.18 1142.5,1063C 1119.08,1054.56 1095.42,1046.9 1071.5,1040C 1066.53,1037.03 1063.03,1032.86 1061,1027.5C 1060.58,1020.71 1060.08,1014.55 1059.5,1009C 1060.44,1002.78 1063.44,997.783 1068.5,994C 1087.01,981.246 1105.34,968.246 1123.5,955C 1154.55,926.577 1171.55,891.577 1174.5,850C 1173.67,830.056 1173.5,807.556 1174,782.5C 1177.18,774.813 1182.68,769.813 1190.5,767.5 Z"/></g>
<g><path style="opacity:1" fill="#384078" d="M 2046.5,1633.5 C 2050.84,1633.49 2055.51,1634.66 2060.5,1637C 2079.63,1652.07 2099.3,1666.4 2119.5,1680C 2155.78,1699.57 2192.78,1704.24 2230.5,1694C 2252.31,1686.62 2274.15,1679.45 2296,1672.5C 2310.67,1674.55 2317.34,1683.21 2316,1698.5C 2308.46,1720.78 2301.13,1743.12 2294,1765.5C 2285.43,1806.35 2292.77,1844.69 2316,1880.5C 2327.09,1895.68 2338.42,1910.68 2350,1925.5C 2357.95,1936.69 2357.12,1947.19 2347.5,1957C 2345.28,1958.28 2342.95,1959.28 2340.5,1960C 2314.56,1960.4 2291.73,1960.23 2272,1959.5C 2226.35,1963.23 2189.35,1983.57 2161,2020.5C 2149.53,2037.26 2137.7,2053.76 2125.5,2070C 2114,2077.1 2103.83,2075.26 2095,2064.5C 2087.46,2040.01 2079.46,2015.68 2071,1991.5C 2055.11,1957.94 2030.28,1933.44 1996.5,1918C 1972.49,1910 1948.49,1902 1924.5,1894C 1914.91,1886.08 1913.08,1876.58 1919,1865.5C 1921.87,1862.3 1925.04,1859.46 1928.5,1857C 1946.45,1844.72 1964.11,1832.05 1981.5,1819C 2008.59,1793.83 2024.59,1762.83 2029.5,1726C 2029.77,1700.97 2029.44,1676.64 2028.5,1653C 2030.23,1642.44 2036.23,1635.94 2046.5,1633.5 Z"/></g>
</svg>
