
<svg xmlns="http://www.w3.org/2000/svg" xmlns:xlink="http://www.w3.org/1999/xlink" width="250px" height="250px" viewBox="0 0 250 250" version="1.1">
<defs>
<linearGradient id="linear0" gradientUnits="userSpaceOnUse" x1="339.067993" y1="156.473007" x2="-15.9791" y2="0.682844" gradientTransform="matrix(2.083333,0,0,2.083333,0,0)">
<stop offset="0" style="stop-color:rgb(10.196079%,10.196079%,10.196079%);stop-opacity:1;"/>
<stop offset="1" style="stop-color:rgb(10.196079%,10.196079%,10.196079%);stop-opacity:0;"/>
</linearGradient>
<filter id="alpha" filterUnits="objectBoundingBox" x="0%" y="0%" width="100%" height="100%">
  <feColorMatrix type="matrix" in="SourceGraphic" values="0 0 0 0 1 0 0 0 0 1 0 0 0 0 1 0 0 0 1 0"/>
</filter>
<mask id="mask0">
  <g filter="url(#alpha)">
<rect x="0" y="0" width="250" height="250" style="fill:rgb(0%,0%,0%);fill-opacity:0.5;stroke:none;"/>
  </g>
</mask>
<clipPath id="clip1">
  <rect x="0" y="0" width="251" height="251"/>
</clipPath>
<g id="surface5" clip-path="url(#clip1)">
<path style="fill-rule:nonzero;fill:rgb(100%,100%,100%);fill-opacity:1;stroke-width:0.5;stroke-linecap:butt;stroke-linejoin:miter;stroke:rgb(0%,0%,0%);stroke-opacity:1;stroke-miterlimit:4;" d="M 114.999375 60 C 114.999375 90.375 90.376875 114.999375 60 114.999375 C 29.625 114.999375 5.000625 90.375 5.000625 60 C 5.000625 29.625 29.625 5.000625 60 5.000625 C 90.375 5.000625 114.999375 29.625 114.999375 60 Z M 114.999375 60 " transform="matrix(2.083333,0,0,2.083333,0,0)"/>
</g>
<linearGradient id="linear1" gradientUnits="userSpaceOnUse" x1="32.164799" y1="63.2141" x2="90.460403" y2="10.5629" gradientTransform="matrix(2.083333,0,0,2.083333,0,0)">
<stop offset="0" style="stop-color:rgb(8.235294%,73.725492%,100%);stop-opacity:1;"/>
<stop offset="0.485357" style="stop-color:rgb(18.82353%,45.09804%,92.54902%);stop-opacity:1;"/>
<stop offset="1" style="stop-color:rgb(69.01961%,18.82353%,92.54902%);stop-opacity:1;"/>
</linearGradient>
</defs>
<g id="surface1">
<path style=" stroke:none;fill-rule:nonzero;fill:url(#linear0);" d="M 13.878906 100.152344 C 29.324219 38.210938 92.066406 0.515625 154.023438 15.960938 C 215.953125 31.40625 253.652344 94.144531 238.203125 156.082031 C 222.765625 218.035156 160.019531 255.734375 98.082031 240.289062 C 36.128906 224.847656 -1.566406 162.097656 13.878906 100.152344 Z M 13.878906 100.152344 "/>
<path style=" stroke:none;fill-rule:nonzero;fill:rgb(100%,100%,100%);fill-opacity:1;" d="M 236.152344 152.71875 C 220.847656 214.101562 158.667969 251.460938 97.269531 236.152344 C 35.898438 220.851562 -1.464844 158.671875 13.847656 97.292969 C 29.148438 35.902344 91.328125 -1.457031 152.707031 13.84375 C 214.101562 29.148438 251.457031 91.332031 236.152344 152.71875 Z M 236.152344 152.71875 "/>
<path style=" stroke:none;fill-rule:nonzero;fill:rgb(100%,100%,100%);fill-opacity:1;" d="M 118.304688 155.609375 L 125.746094 127.585938 L 143.367188 121.148438 L 147.75 104.679688 L 147.597656 104.269531 L 130.253906 110.605469 L 142.75 63.550781 L 107.308594 63.550781 L 90.964844 124.960938 L 77.320312 129.945312 L 72.8125 146.921875 L 86.449219 141.941406 L 76.816406 178.132812 L 171.140625 178.132812 L 177.1875 155.609375 L 118.304688 155.609375 "/>
<path style=" stroke:none;fill-rule:nonzero;fill:rgb(100%,100%,100%);fill-opacity:1;" d="M 162.289062 85.855469 C 156.734375 71.734375 142.796875 70.457031 126.566406 73.609375 L 120.789062 53.464844 L 108.527344 56.980469 L 114.15625 76.601562 C 110.933594 77.519531 107.65625 78.535156 104.394531 79.539062 L 98.738281 59.789062 L 86.484375 63.296875 L 92.25 83.441406 C 89.613281 84.257812 87.023438 85.058594 84.480469 85.789062 L 84.457031 85.71875 L 67.542969 90.566406 L 71.304688 103.671875 C 71.304688 103.671875 80.3125 100.894531 80.207031 101.109375 C 85.175781 99.683594 87.617188 102.105469 88.800781 104.460938 L 95.386719 127.40625 C 95.722656 127.3125 96.175781 127.199219 96.707031 127.121094 L 95.410156 127.492188 L 104.625 159.648438 C 104.855469 161.273438 104.65625 164.03125 101.1875 165.03125 C 101.382812 165.125 92.265625 167.582031 92.265625 167.582031 L 94.035156 182.929688 L 109.988281 178.34375 C 112.960938 177.507812 115.898438 176.71875 118.769531 175.910156 L 124.621094 196.285156 L 136.867188 192.777344 L 131.085938 172.617188 C 134.371094 171.746094 137.648438 170.835938 140.914062 169.894531 L 146.65625 189.96875 L 158.925781 186.453125 L 153.09375 166.113281 C 173.367188 159.015625 186.308594 149.683594 182.550781 129.804688 C 179.527344 113.804688 170.203125 108.949219 157.691406 109.496094 C 163.765625 103.835938 166.378906 96.1875 162.289062 85.863281 Z M 157.636719 134.339844 C 162.003906 149.570312 135.433594 155.3125 127.128906 157.707031 L 119.386719 130.707031 C 127.691406 128.324219 153.074219 118.460938 157.628906 134.34375 Z M 141.003906 97.886719 C 144.972656 111.742188 122.765625 116.363281 115.839844 118.347656 L 108.824219 93.863281 C 115.738281 91.878906 136.859375 83.441406 141.003906 97.894531 Z M 141.003906 97.886719 "/>
<use xlink:href="#surface5" mask="url(#mask0)"/>
<path style=" stroke:none;fill-rule:evenodd;fill:url(#linear1);" d="M 197.078125 214.078125 C 223.007812 193.070312 239.582031 160.972656 239.582031 125 C 239.582031 83.175781 217.175781 46.585938 183.710938 26.582031 C 150.726562 33.453125 120.246094 49.199219 107.890625 77.628906 L 223.664062 77.628906 L 210.804688 107.394531 L 100.53125 107.394531 C 100.011719 111.804688 99.75 117.1875 99.75 123.542969 C 99.75 129.898438 100.269531 135.542969 101.308594 140.46875 L 195.609375 140.46875 L 182.75 170.429688 L 113.195312 170.429688 C 127.183594 193.492188 160.378906 209.390625 197.078125 214.078125 Z M 152.992188 236.140625 C 141.15625 233.300781 130.226562 229.230469 120.207031 223.933594 C 97.21875 211.742188 81.046875 193.90625 71.695312 170.429688 L 30 170.429688 L 42.664062 140.46875 L 64.289062 140.46875 C 63.511719 134.242188 63.121094 128.34375 63.121094 122.765625 C 63.121094 117.058594 63.316406 111.933594 63.707031 107.394531 L 30 107.394531 L 42.664062 77.628906 L 69.746094 77.628906 C 78.320312 52.464844 94.230469 33.074219 117.480469 19.457031 C 123.050781 16.164062 128.847656 13.292969 134.875 10.835938 C 131.621094 10.558594 128.328125 10.417969 125 10.417969 C 61.71875 10.417969 10.417969 61.71875 10.417969 125 C 10.417969 188.28125 61.71875 239.582031 125 239.582031 C 134.65625 239.582031 144.035156 238.390625 152.992188 236.140625 Z M 152.992188 236.140625 "/>
</g>
</svg>
