<svg height="250" viewBox="0 0 250 250" width="250" xmlns="http://www.w3.org/2000/svg"><path d="m0 0h250v250h-250z" fill="#00f"/><g fill="#fff"><path d="m185.660156 53.746094c.246094 4.882812-1.292968 9.007812-4.21875 12.515625-4.773437 5.714843-9.726562 11.277343-14.558594 16.949219-3.523437 4.128906-6.984374 8.308593-10.445312 12.488281-4.210938 5.089843-8.285156 10.304687-12.625 15.277343-3.804688 4.359376-7.816406 8.550782-11.894531 12.648438-5.675781 5.714844-11.367188 11.429688-17.300781 16.863281-5.539063 5.074219-11.320313 9.875-17.132813 14.621094-3.871094 3.160156-7.976563 6.019531-11.984375 9.003906-3.035156 2.253907-6.53125 2.878907-10.078125 2.199219-5.144531-.984375-8.796875-4.191406-10.492187-9.222656-1.335938-3.964844-.828126-7.917969 1.324218-11.597656 1.972656-3.378907 3.835938-6.828126 5.828125-10.195313 2.742188-4.648437 5.488281-9.296875 8.371094-13.855469 2.660156-4.207031 5.417969-8.355468 8.296875-12.410156 3.269531-4.609375 6.644531-9.144531 10.121094-13.601562 3.273437-4.203126 6.609375-8.371094 10.136718-12.355469 5.691407-6.441407 11.535157-12.738281 17.363282-19.054688 2.808594-3.046875 5.734375-5.980469 8.585937-8.988281.222657-.234375.402344-.667969.359375-.96875-.125-.847656.296875-1.351562.808594-1.929688 3.515625-3.988281 6.957031-8.039062 10.503906-12.003906 1.558594-1.742187 3.207032-3.421875 4.980469-4.933594 1.792969-1.523437 3.910156-2.527343 6.199219-3.148437 1.988281-.542969 3.984375-.875 6.042968-.78125 4.597657.214844 8.714844 1.75 12.492188 4.421875 3.648438 2.578125 6.210938 6.027344 7.90625 10.109375 1.066406 2.558594 1.691406 5.296875 1.414062 7.953125zm-19.441406 14.851562c.121094-.179687.21875-.347656.335938-.496094 1.273437-1.609374 1.292968-1.632812-.070313-2.992187-.40625-.40625-.484375-.664063-.027344-1.046875.277344-.230469.519531-.507812.738281-.796875.394532-.511719.453126-.9375-.125-1.449219-2.953124-2.621094-5.851562-5.296875-8.804687-7.914062-.613281-.539063-.636719-.921875-.109375-1.511719 1.195312-1.335937 1.199219-1.378906-.125-2.523437-.535156-.464844-.5625-.804688-.085938-1.3125.886719-.957032 1.738282-1.953126 2.59375-2.949219.371094-.433594.6875-.441407 1.089844-.027344.457032.457031.96875.851563 1.488282 1.304687.621093-.675781 1.207031-1.316406 1.832031-1.996093.15625.128906.253906.203125.34375.292969 2.351562 2.179687 4.664062 4.410156 7.085937 6.5.722656.625.648438.921874.066406 1.429687-.148437.128906-.234374.320313-.390624.429687-.804688.589844-.75 1.023438.054687 1.65625 1.253906.988282 1.203125 1.054688.144531 2.269532-.042968.050781-.0625.128906-.109375.171875-.574219.472656-.546875.871093.039063 1.363281.980468.820312 1.886718 1.742188 2.875 2.550781.183594.152344.753906.097657.9375-.078125.925781-.914062 1.757812-1.933594 2.683594-2.851562.507812-.511719.445312-.832032-.054688-1.289063-1.324219-1.222656-1.332031-1.261719-.207031-2.628906.445312-.542969.464843-.910156-.089844-1.328125-.484375-.367188-.941406-.769531-1.347656-1.105469.707031-.894531 1.234375-1.5625 1.792969-2.269531-1.269532-1.144531-2.464844-2.222656-3.65625-3.300781-2.667969-2.425781-5.339844-4.839844-7.984376-7.285157-.457031-.425781-.722656-.460937-1.097656.070313-.351562.5-.792968.941406-1.242187 1.460937-.789063-.671874-1.433594-1.21875-2.074219-1.765624-.183594.136718-.378906.253906-.539062.40625-1.375 1.371093-1.363282 1.359374-2.921876.164062-.171874-.132812-.691406-.09375-.835937.066406-2.328125 2.542969-4.621094 5.113282-6.964844 7.730469.199219.152344.308594.21875.394531.308594.457032.496093 1.230469.96875 1.273438 1.5s-.695312 1.101562-.992188 1.707031c-.113281.230469-.039062.6875.125.898438.398438.5.898438.914062 1.433594 1.433593-.613281.726563-1.171875 1.390625-1.773437 2.101563 3.417969 3.136718 6.789062 6.226562 10.160156 9.320312-.101563.128906-.140625.179688-.179687.226563-.46875.546875-1.292969 1.089843-1.292969 1.636719 0 .5625.832031 1.105468 1.234375 1.703124.136718.195313.175781.648438.050781.804688-1.046875 1.261719-2.136719 2.484375-3.238281 3.738281-.484375-.425781-.917969-.78125-1.316406-1.171875-.566407-.558594-.878907-.523437-1.476563.144532-1.136719 1.265624-.722656 1.476562-2.191406.148437-2.328125-2.117187-4.644531-4.25-7.003907-6.414063.308594-.378906.582032-.710937.851563-1.050781.261719-.324219.511719-.652343.753906-.964843-.167969-.210938-.300781-.410157-.460937-.570313-1.394532-1.363281-1.382813-1.351563-.230469-2.828125.171875-.222656.308594-.761719.195313-.878906-1.183594-1.167969-2.421876-2.28125-3.695313-3.457032-1.492187 1.769532-2.800781 3.46875-4.269531 5.015626-3.59375 3.773437-7.378906 7.363281-10.875 11.230468-6.058594 6.695313-12.015625 13.492188-17.902344 20.339844-2.890625 3.363281-5.601562 6.890625-8.273438 10.433594-3.605468 4.78125-7.199218 9.578125-10.609374 14.5-3.363282 4.867187-6.511719 9.886718-9.710938 14.875-1.324219 2.066406-2.527344 4.214844-3.800781 6.34375 1.453125.503906 2.78125.988281 4.121093 1.417968 2.082032.667969 3.992188 1.648438 5.183594 3.570313 1.179688 1.898437 2.191406 3.910156 3.21875 5.902344.261719.511719.453125.605469.886719.261719.460937-.367188.957031-.679688 1.40625-1.058594 5.433594-4.605469 10.953125-9.101563 16.25-13.855469 4.546875-4.078125 8.902344-8.390625 13.21875-12.722656 3.957031-3.964844 7.835937-8.015625 11.585937-12.179688 4.226563-4.679687 8.316407-9.488281 12.375-14.320312 2.96875-3.523438 5.742188-7.214844 8.703126-10.742188 1.875-2.230469 3.328124-4.753906 5.617187-6.722656 2.585937-2.21875 4.648437-5.066406 6.988281-7.695313-.679687-.648437-1.316406-1.253906-1.957031-1.863281zm-81.9375 84.117188c.160156-3.367188-2.722656-6.566406-6.316406-6.574219-3.710938-.007813-6.671875 3.140625-6.617188 6.546875.066406 3.859375 2.851563 6.558594 6.441406 6.628906 3.375.0625 6.535157-2.550781 6.492188-6.597656zm0 0"/><path d="m72.121094 185.367188v2.03125h1.996094v2.03125c.675781.039062 1.273437.070312 1.945312.105468v9.421875c-.578125.03125-1.171875.058594-1.890625.09375v1.984375h-2.03125v2.023438h-13.390625v-1.964844h-1.980469c-.046875-.71875-.085937-1.347656-.128906-2.042969-.640625-.03125-1.238281-.058593-1.886719-.089843v-5.371094c1.683594 0 3.328125-.023438 4.972656.03125.195313.007812.546876.496094.53125.742187-.054687.9375.25 1.328125 1.210938 1.25 1.34375-.105469.640625 1.054688.960938 1.710938h6.023437c.03125-.25.09375-.507813.085937-.769531-.023437-.699219.285157-1.03125.976563-.953126 1.148437.128907 1.023437-.664062 1.023437-1.402343 0-.707031.09375-1.441407-.988281-1.328125-1.339843.144531-.878906-.972656-1.101562-1.753906-.324219-.015626-.675781-.046876-1.03125-.046876-2.433594-.003906-4.867188 0-7.296875 0-.917969 0-1.390625-.460937-1.410156-1.378906-.003907-.164062-.019532-.332031-.042969-.585937-.621094-.03125-1.214844-.066407-1.898438-.105469-.039062-.636719-.074219-1.238281-.117187-1.9375-.59375-.03125-1.183594-.058594-1.910156-.089844-.019532-.363281-.054688-.722656-.054688-1.085937-.003906-2.402344 0-4.808594 0-7.210938 0-1.339843.019531-1.355469 1.351562-1.4375.195313-.011719.390626-.042969.636719-.070312v-1.683594c.667969-.15625 1.304688-.296875 1.996094-.449219.027344-.492187.050781-1 .074219-1.585937h13.320312c.03125.527343.066406 1.0625.101563 1.574219 1.1875.28125 1.878906.996093 2.074219 2.140624 1.265624.160157 1.902343.917969 1.902343 2.277344 0 1-.003906 1.992188-.011719 2.988282 0 .097656-.035156.199218-.078124.449218-1.6875 0-3.394532.011719-5.09375-.023437-.144532 0-.367188-.355469-.398438-.570313-.0625-.425781-.019531-.871094-.019531-1.289062-1.175781-.199219-1.886719-.902344-2.136719-2.105469h-6.003906c-.042969.613281-.089844 1.210937-.136719 1.894531-.625.046875-1.21875.085938-1.890625.132813v2.304687c1.210938.214844 1.890625.929688 2.046875 2.144532h9.703125zm0 0"/><path d="m193.257812 201.054688h-1.929687v1.980468h-13.421875v-1.953125h-1.972656c-.042969-.71875-.082032-1.347656-.125-2.03125-.648438-.03125-1.242188-.058593-1.945313-.09375v-1.152343c0-6.34375 0-12.695313 0-19.046876 0-.964843.488281-1.46875 1.464844-1.519531.136719-.007812.269531-.027343.539063-.0625-.320313-1.558593.28125-2.335937 1.964843-1.996093.03125-.613282.058594-1.117188.09375-1.710938h13.316407v1.550781c.746093.160157 1.386718.300781 2.089843.453125v1.683594c1.320313.160156 1.980469.921875 1.980469 2.285156v18.328125 1.1875c-.679688.035157-1.273438.058594-1.957031.09375-.027344.632813-.058594 1.234375-.09375 2.011719zm-11.730468-3.710938h6.082031c.03125-.195312.082031-.328125.0625-.453125-.125-.949219.1875-1.425781 1.207031-1.296875.789063.097656.84375-.449219.839844-1.0625-.007812-4.25 0-8.507812-.007812-12.765625 0-.292969-.054688-.578125-.082032-.851563-.695312-.050781-1.289062-.09375-1.878906-.136718-.058594-.699219-.105469-1.296875-.164062-1.953125-1.820313 0-3.535157.027343-5.25-.011719-.667969-.015625-.960938.210938-.878907.875.128907.984375-.324219 1.308594-1.230469 1.1875-.21875-.027344-.449218.039062-.664062.0625-.039062.160156-.082031.257812-.082031.355469-.007813 4.496093-.007813 8.988281-.023438 13.484375 0 .71875.378907.886718.96875.828125.738281-.070313 1.070313.25 1.027344 1.003906-.011719.230469.042969.460937.070313.742187zm0 0"/><path d="m147.472656 173.433594v5.347656h-15.679687v6.570312h11.71875c0 1.78125.011719 3.421876-.003907 5.054688-.007812.710938-.535156.664062-1.019531.664062-3.144531 0-6.285156 0-9.425781 0-.402344 0-.804688 0-1.285156 0v6.28125c.40625.019532.800781.058594 1.191406.058594 4.492188.003906 8.988281.023438 13.476562-.015625.859376-.011719 1.125.277344 1.09375 1.125-.050781 1.472657-.015624 2.949219-.015624 4.523438-.324219.019531-.613282.0625-.902344.0625-6.453125 0-12.902344-.011719-19.355469.019531-.894531.003906-1.171875-.292969-1.167969-1.183594.023438-9.136718.019532-18.265625.007813-27.402344 0-.6875.074219-1.1875.972656-1.183593 6.617187.027343 13.234375.011719 19.859375.015625.160156 0 .320312.035156.53125.058594zm0 0"/><path d="m102.554688 173.371094h1.035156c6.351562 0 12.699218.027344 19.050781-.023438 1.027344-.007812 1.304687.371094 1.261719 1.320313-.050782 1.023437-.035156 2.058593 0 3.089843.023437.785157-.261719 1.082032-1.070313 1.074219-4.59375-.03125-9.1875.011719-13.78125-.035156-.984375-.015625-1.292969.296875-1.253906 1.285156.070313 1.710938.023437 3.417969.023437 5.234375.460938.023438.855469.0625 1.246094.0625 3.210938.003906 6.417969.03125 9.628906-.015625.882813-.011719 1.300782.175781 1.207032 1.179688-.09375 1.023437-.019532 2.058593-.019532 3.089843 0 1.363282-.074218 1.433594-1.46875 1.433594-3.109374 0-6.214843.039063-9.320312-.019531-1.003906-.015625-1.382812.238281-1.296875 1.324219.101563 1.328125.074219 2.675781 0 4.011718-.046875.867188.304687 1.039063 1.054687 1.035157 4.527344-.019531 9.050782-.011719 13.578126-.007813 1.25 0 1.453124.199219 1.460937 1.492188.007813 1.097656 0 2.195312 0 3.296875 0 .546875-.140625.910156-.796875.910156-6.820312-.011719-13.640625-.007813-20.535156-.007813v-29.738281zm0 0"/><path d="m155.566406 197.414062h1.3125c4.488282 0 8.980469.019532 13.464844-.015624.859375-.007813 1.117188.28125 1.082031 1.125-.050781 1.46875-.015625 2.945312-.015625 4.503906h-21.4375v-1.144532c0-9.089843.015625-18.183593-.023437-27.273437-.003907-1.015625.296875-1.304687 1.253906-1.253906 1.410156.074219 2.824219.019531 4.359375.019531v24.042969zm0 0"/><path d="m91.996094 178.761719v24.285156h-5.359375v-1.207031c0-7.207032 0-14.414063 0-21.621094 0-1.367188-.03125-1.398438-1.359375-1.398438-2.1875 0-4.375 0-6.625 0v-5.398437c.34375-.015625.695312-.046875 1.054687-.046875 6.347657 0 12.691407.019531 19.035157-.019531.992187-.003907 1.394531.214843 1.3125 1.3125-.105469 1.320312-.027344 2.65625-.027344 4.097656h-8.027344zm0 0"/></g></svg>