
<svg xmlns="http://www.w3.org/2000/svg" xmlns:xlink="http://www.w3.org/1999/xlink" width="250px" height="250px" viewBox="0 0 250 250" version="1.1">
<g id="surface1">
<rect x="0" y="0" width="250" height="250" style="fill:rgb(0%,0%,100%);fill-opacity:1;stroke:none;"/>
<path style=" stroke:none;fill-rule:nonzero;fill:rgb(100%,100%,100%);fill-opacity:1;" d="M 185.660156 53.746094 C 185.90625 58.628906 184.367188 62.753906 181.441406 66.261719 C 176.667969 71.976562 171.714844 77.539062 166.882812 83.210938 C 163.359375 87.339844 159.898438 91.519531 156.4375 95.699219 C 152.226562 100.789062 148.152344 106.003906 143.8125 110.976562 C 140.007812 115.335938 135.996094 119.527344 131.917969 123.625 C 126.242188 129.339844 120.550781 135.054688 114.617188 140.488281 C 109.078125 145.5625 103.296875 150.363281 97.484375 155.109375 C 93.613281 158.269531 89.507812 161.128906 85.5 164.113281 C 82.464844 166.367188 78.96875 166.992188 75.421875 166.3125 C 70.277344 165.328125 66.625 162.121094 64.929688 157.089844 C 63.59375 153.125 64.101562 149.171875 66.253906 145.492188 C 68.226562 142.113281 70.089844 138.664062 72.082031 135.296875 C 74.824219 130.648438 77.570312 126 80.453125 121.441406 C 83.113281 117.234375 85.871094 113.085938 88.75 109.03125 C 92.019531 104.421875 95.394531 99.886719 98.871094 95.429688 C 102.144531 91.226562 105.480469 87.058594 109.007812 83.074219 C 114.699219 76.632812 120.542969 70.335938 126.371094 64.019531 C 129.179688 60.972656 132.105469 58.039062 134.957031 55.03125 C 135.179688 54.796875 135.359375 54.363281 135.316406 54.0625 C 135.191406 53.214844 135.613281 52.710938 136.125 52.132812 C 139.640625 48.144531 143.082031 44.09375 146.628906 40.128906 C 148.1875 38.386719 149.835938 36.707031 151.609375 35.195312 C 153.402344 33.671875 155.519531 32.667969 157.808594 32.046875 C 159.796875 31.503906 161.792969 31.171875 163.851562 31.265625 C 168.449219 31.480469 172.566406 33.015625 176.34375 35.6875 C 179.992188 38.265625 182.554688 41.714844 184.25 45.796875 C 185.316406 48.355469 185.941406 51.09375 185.664062 53.75 Z M 166.21875 68.597656 C 166.339844 68.417969 166.4375 68.25 166.554688 68.101562 C 167.828125 66.492188 167.847656 66.46875 166.484375 65.109375 C 166.078125 64.703125 166 64.445312 166.457031 64.0625 C 166.734375 63.832031 166.976562 63.554688 167.195312 63.265625 C 167.589844 62.753906 167.648438 62.328125 167.070312 61.816406 C 164.117188 59.195312 161.21875 56.519531 158.265625 53.902344 C 157.652344 53.363281 157.628906 52.980469 158.15625 52.390625 C 159.351562 51.054688 159.355469 51.011719 158.03125 49.867188 C 157.496094 49.402344 157.46875 49.0625 157.945312 48.554688 C 158.832031 47.597656 159.683594 46.601562 160.539062 45.605469 C 160.910156 45.171875 161.226562 45.164062 161.628906 45.578125 C 162.085938 46.035156 162.597656 46.429688 163.117188 46.882812 C 163.738281 46.207031 164.324219 45.566406 164.949219 44.886719 C 165.105469 45.015625 165.203125 45.089844 165.292969 45.179688 C 167.644531 47.359375 169.957031 49.589844 172.378906 51.679688 C 173.101562 52.304688 173.027344 52.601562 172.445312 53.109375 C 172.296875 53.238281 172.210938 53.429688 172.054688 53.539062 C 171.25 54.128906 171.304688 54.5625 172.109375 55.195312 C 173.363281 56.183594 173.3125 56.25 172.253906 57.464844 C 172.210938 57.515625 172.191406 57.59375 172.144531 57.636719 C 171.570312 58.109375 171.597656 58.507812 172.183594 59 C 173.164062 59.820312 174.070312 60.742188 175.058594 61.550781 C 175.242188 61.703125 175.8125 61.648438 175.996094 61.472656 C 176.921875 60.558594 177.753906 59.539062 178.679688 58.621094 C 179.1875 58.109375 179.125 57.789062 178.625 57.332031 C 177.300781 56.109375 177.292969 56.070312 178.417969 54.703125 C 178.863281 54.160156 178.882812 53.792969 178.328125 53.375 C 177.84375 53.007812 177.386719 52.605469 176.980469 52.269531 C 177.6875 51.375 178.214844 50.707031 178.773438 50 C 177.503906 48.855469 176.308594 47.777344 175.117188 46.699219 C 172.449219 44.273438 169.777344 41.859375 167.132812 39.414062 C 166.675781 38.988281 166.410156 38.953125 166.035156 39.484375 C 165.683594 39.984375 165.242188 40.425781 164.792969 40.945312 C 164.003906 40.273438 163.359375 39.726562 162.71875 39.179688 C 162.535156 39.316406 162.339844 39.433594 162.179688 39.585938 C 160.804688 40.957031 160.816406 40.945312 159.257812 39.75 C 159.085938 39.617188 158.566406 39.65625 158.421875 39.816406 C 156.09375 42.359375 153.800781 44.929688 151.457031 47.546875 C 151.65625 47.699219 151.765625 47.765625 151.851562 47.855469 C 152.308594 48.351562 153.082031 48.824219 153.125 49.355469 C 153.167969 49.886719 152.429688 50.457031 152.132812 51.0625 C 152.019531 51.292969 152.09375 51.75 152.257812 51.960938 C 152.65625 52.460938 153.15625 52.875 153.691406 53.394531 C 153.078125 54.121094 152.519531 54.785156 151.917969 55.496094 C 155.335938 58.632812 158.707031 61.722656 162.078125 64.816406 C 161.976562 64.945312 161.9375 64.996094 161.898438 65.042969 C 161.429688 65.589844 160.605469 66.132812 160.605469 66.679688 C 160.605469 67.242188 161.4375 67.785156 161.839844 68.382812 C 161.976562 68.578125 162.015625 69.03125 161.890625 69.1875 C 160.84375 70.449219 159.753906 71.671875 158.652344 72.925781 C 158.167969 72.5 157.734375 72.144531 157.335938 71.753906 C 156.769531 71.195312 156.457031 71.230469 155.859375 71.898438 C 154.722656 73.164062 155.136719 73.375 153.667969 72.046875 C 151.339844 69.929688 149.023438 67.796875 146.664062 65.632812 C 146.972656 65.253906 147.246094 64.921875 147.515625 64.582031 C 147.777344 64.257812 148.027344 63.929688 148.269531 63.617188 C 148.101562 63.40625 147.96875 63.207031 147.808594 63.046875 C 146.414062 61.683594 146.425781 61.695312 147.578125 60.21875 C 147.75 59.996094 147.886719 59.457031 147.773438 59.339844 C 146.589844 58.171875 145.351562 57.058594 144.078125 55.882812 C 142.585938 57.652344 141.277344 59.351562 139.808594 60.898438 C 136.214844 64.671875 132.429688 68.261719 128.933594 72.128906 C 122.875 78.824219 116.917969 85.621094 111.03125 92.46875 C 108.140625 95.832031 105.429688 99.359375 102.757812 102.902344 C 99.152344 107.683594 95.558594 112.480469 92.148438 117.402344 C 88.785156 122.269531 85.636719 127.289062 82.4375 132.277344 C 81.113281 134.34375 79.910156 136.492188 78.636719 138.621094 C 80.089844 139.125 81.417969 139.609375 82.757812 140.039062 C 84.839844 140.707031 86.75 141.6875 87.941406 143.609375 C 89.121094 145.507812 90.132812 147.519531 91.160156 149.511719 C 91.421875 150.023438 91.613281 150.117188 92.046875 149.773438 C 92.507812 149.40625 93.003906 149.09375 93.453125 148.714844 C 98.886719 144.109375 104.40625 139.613281 109.703125 134.859375 C 114.25 130.78125 118.605469 126.46875 122.921875 122.136719 C 126.878906 118.171875 130.757812 114.121094 134.507812 109.957031 C 138.734375 105.277344 142.824219 100.46875 146.882812 95.636719 C 149.851562 92.113281 152.625 88.421875 155.585938 84.894531 C 157.460938 82.664062 158.914062 80.140625 161.203125 78.171875 C 163.789062 75.953125 165.851562 73.105469 168.191406 70.476562 C 167.511719 69.828125 166.875 69.222656 166.234375 68.613281 Z M 84.28125 152.714844 C 84.441406 149.347656 81.558594 146.148438 77.964844 146.140625 C 74.253906 146.132812 71.292969 149.28125 71.347656 152.6875 C 71.414062 156.546875 74.199219 159.246094 77.789062 159.316406 C 81.164062 159.378906 84.324219 156.765625 84.28125 152.71875 Z M 84.28125 152.714844 "/>
<path style=" stroke:none;fill-rule:nonzero;fill:rgb(100%,100%,100%);fill-opacity:1;" d="M 72.121094 185.367188 L 72.121094 187.398438 L 74.117188 187.398438 L 74.117188 189.429688 C 74.792969 189.46875 75.390625 189.5 76.0625 189.535156 L 76.0625 198.957031 C 75.484375 198.988281 74.890625 199.015625 74.171875 199.050781 L 74.171875 201.035156 L 72.140625 201.035156 L 72.140625 203.058594 L 58.75 203.058594 L 58.75 201.09375 L 56.769531 201.09375 C 56.722656 200.375 56.683594 199.746094 56.640625 199.050781 C 56 199.019531 55.402344 198.992188 54.753906 198.960938 L 54.753906 193.589844 C 56.4375 193.589844 58.082031 193.566406 59.726562 193.621094 C 59.921875 193.628906 60.273438 194.117188 60.257812 194.363281 C 60.203125 195.300781 60.507812 195.691406 61.46875 195.613281 C 62.8125 195.507812 62.109375 196.667969 62.429688 197.324219 L 68.453125 197.324219 C 68.484375 197.074219 68.546875 196.816406 68.539062 196.554688 C 68.515625 195.855469 68.824219 195.523438 69.515625 195.601562 C 70.664062 195.730469 70.539062 194.9375 70.539062 194.199219 C 70.539062 193.492188 70.632812 192.757812 69.550781 192.871094 C 68.210938 193.015625 68.671875 191.898438 68.449219 191.117188 C 68.125 191.101562 67.773438 191.070312 67.417969 191.070312 C 64.984375 191.066406 62.550781 191.070312 60.121094 191.070312 C 59.203125 191.070312 58.730469 190.609375 58.710938 189.691406 C 58.707031 189.527344 58.691406 189.359375 58.667969 189.105469 C 58.046875 189.074219 57.453125 189.039062 56.769531 189 C 56.730469 188.363281 56.695312 187.761719 56.652344 187.0625 C 56.058594 187.03125 55.46875 187.003906 54.742188 186.972656 C 54.722656 186.609375 54.6875 186.25 54.6875 185.886719 C 54.683594 183.484375 54.6875 181.078125 54.6875 178.675781 C 54.6875 177.335938 54.707031 177.320312 56.039062 177.238281 C 56.234375 177.226562 56.429688 177.195312 56.675781 177.167969 L 56.675781 175.484375 C 57.34375 175.328125 57.980469 175.1875 58.671875 175.035156 C 58.699219 174.542969 58.722656 174.035156 58.746094 173.449219 L 72.066406 173.449219 C 72.097656 173.976562 72.132812 174.511719 72.167969 175.023438 C 73.355469 175.304688 74.046875 176.019531 74.242188 177.164062 C 75.507812 177.324219 76.144531 178.082031 76.144531 179.441406 C 76.144531 180.441406 76.140625 181.433594 76.132812 182.429688 C 76.132812 182.527344 76.097656 182.628906 76.054688 182.878906 C 74.367188 182.878906 72.660156 182.890625 70.960938 182.855469 C 70.816406 182.855469 70.59375 182.5 70.5625 182.285156 C 70.5 181.859375 70.542969 181.414062 70.542969 180.996094 C 69.367188 180.796875 68.65625 180.09375 68.40625 178.890625 L 62.402344 178.890625 C 62.359375 179.503906 62.3125 180.101562 62.265625 180.785156 C 61.640625 180.832031 61.046875 180.871094 60.375 180.917969 L 60.375 183.222656 C 61.585938 183.4375 62.265625 184.152344 62.421875 185.367188 L 72.125 185.367188 Z M 72.121094 185.367188 "/>
<path style=" stroke:none;fill-rule:nonzero;fill:rgb(100%,100%,100%);fill-opacity:1;" d="M 193.257812 201.054688 L 191.328125 201.054688 L 191.328125 203.035156 L 177.90625 203.035156 L 177.90625 201.082031 L 175.933594 201.082031 C 175.890625 200.363281 175.851562 199.734375 175.808594 199.050781 C 175.160156 199.019531 174.566406 198.992188 173.863281 198.957031 L 173.863281 197.804688 C 173.863281 191.460938 173.863281 185.109375 173.863281 178.757812 C 173.863281 177.792969 174.351562 177.289062 175.328125 177.238281 C 175.464844 177.230469 175.597656 177.210938 175.867188 177.175781 C 175.546875 175.617188 176.148438 174.839844 177.832031 175.179688 C 177.863281 174.566406 177.890625 174.0625 177.925781 173.46875 L 191.242188 173.46875 L 191.242188 175.019531 C 191.988281 175.179688 192.628906 175.320312 193.332031 175.472656 L 193.332031 177.15625 C 194.652344 177.316406 195.3125 178.078125 195.3125 179.441406 C 195.3125 185.550781 195.3125 191.65625 195.3125 197.769531 C 195.3125 198.140625 195.3125 198.503906 195.3125 198.957031 C 194.632812 198.992188 194.039062 199.015625 193.355469 199.050781 C 193.328125 199.683594 193.296875 200.285156 193.261719 201.0625 Z M 181.527344 197.34375 L 187.609375 197.34375 C 187.640625 197.148438 187.691406 197.015625 187.671875 196.890625 C 187.546875 195.941406 187.859375 195.464844 188.878906 195.59375 C 189.667969 195.691406 189.722656 195.144531 189.71875 194.53125 C 189.710938 190.28125 189.71875 186.023438 189.710938 181.765625 C 189.710938 181.472656 189.65625 181.1875 189.628906 180.914062 C 188.933594 180.863281 188.339844 180.820312 187.75 180.777344 C 187.691406 180.078125 187.644531 179.480469 187.585938 178.824219 C 185.765625 178.824219 184.050781 178.851562 182.335938 178.8125 C 181.667969 178.796875 181.375 179.023438 181.457031 179.6875 C 181.585938 180.671875 181.132812 180.996094 180.226562 180.875 C 180.007812 180.847656 179.777344 180.914062 179.5625 180.9375 C 179.523438 181.097656 179.480469 181.195312 179.480469 181.292969 C 179.472656 185.789062 179.472656 190.28125 179.457031 194.777344 C 179.457031 195.496094 179.835938 195.664062 180.425781 195.605469 C 181.164062 195.535156 181.496094 195.855469 181.453125 196.609375 C 181.441406 196.839844 181.496094 197.070312 181.523438 197.351562 Z M 181.527344 197.34375 "/>
<path style=" stroke:none;fill-rule:nonzero;fill:rgb(100%,100%,100%);fill-opacity:1;" d="M 147.472656 173.433594 L 147.472656 178.78125 L 131.792969 178.78125 L 131.792969 185.351562 L 143.511719 185.351562 C 143.511719 187.132812 143.523438 188.773438 143.507812 190.40625 C 143.5 191.117188 142.972656 191.070312 142.488281 191.070312 C 139.34375 191.070312 136.203125 191.070312 133.0625 191.070312 C 132.660156 191.070312 132.257812 191.070312 131.777344 191.070312 L 131.777344 197.351562 C 132.183594 197.371094 132.578125 197.410156 132.96875 197.410156 C 137.460938 197.414062 141.957031 197.433594 146.445312 197.394531 C 147.304688 197.382812 147.570312 197.671875 147.539062 198.519531 C 147.488281 199.992188 147.523438 201.46875 147.523438 203.042969 C 147.199219 203.0625 146.910156 203.105469 146.621094 203.105469 C 140.167969 203.105469 133.71875 203.09375 127.265625 203.125 C 126.371094 203.128906 126.09375 202.832031 126.097656 201.941406 C 126.121094 192.804688 126.117188 183.675781 126.105469 174.539062 C 126.105469 173.851562 126.179688 173.351562 127.078125 173.355469 C 133.695312 173.382812 140.3125 173.367188 146.9375 173.371094 C 147.097656 173.371094 147.257812 173.40625 147.46875 173.429688 Z M 147.472656 173.433594 "/>
<path style=" stroke:none;fill-rule:nonzero;fill:rgb(100%,100%,100%);fill-opacity:1;" d="M 102.554688 173.371094 L 103.589844 173.371094 C 109.941406 173.371094 116.289062 173.398438 122.640625 173.347656 C 123.667969 173.339844 123.945312 173.71875 123.902344 174.667969 C 123.851562 175.691406 123.867188 176.726562 123.902344 177.757812 C 123.925781 178.542969 123.640625 178.839844 122.832031 178.832031 C 118.238281 178.800781 113.644531 178.84375 109.050781 178.796875 C 108.066406 178.78125 107.757812 179.09375 107.796875 180.082031 C 107.867188 181.792969 107.820312 183.5 107.820312 185.316406 C 108.28125 185.339844 108.675781 185.378906 109.066406 185.378906 C 112.277344 185.382812 115.484375 185.410156 118.695312 185.363281 C 119.578125 185.351562 119.996094 185.539062 119.902344 186.542969 C 119.808594 187.566406 119.882812 188.601562 119.882812 189.632812 C 119.882812 190.996094 119.808594 191.066406 118.414062 191.066406 C 115.304688 191.066406 112.199219 191.105469 109.09375 191.046875 C 108.089844 191.03125 107.710938 191.285156 107.796875 192.371094 C 107.898438 193.699219 107.871094 195.046875 107.796875 196.382812 C 107.75 197.25 108.101562 197.421875 108.851562 197.417969 C 113.378906 197.398438 117.902344 197.40625 122.429688 197.410156 C 123.679688 197.410156 123.882812 197.609375 123.890625 198.902344 C 123.898438 200 123.890625 201.097656 123.890625 202.199219 C 123.890625 202.746094 123.75 203.109375 123.09375 203.109375 C 116.273438 203.097656 109.453125 203.101562 102.558594 203.101562 L 102.558594 173.363281 Z M 102.554688 173.371094 "/>
<path style=" stroke:none;fill-rule:nonzero;fill:rgb(100%,100%,100%);fill-opacity:1;" d="M 155.566406 197.414062 C 156.089844 197.414062 156.484375 197.414062 156.878906 197.414062 C 161.367188 197.414062 165.859375 197.433594 170.34375 197.398438 C 171.203125 197.390625 171.460938 197.679688 171.425781 198.523438 C 171.375 199.992188 171.410156 201.46875 171.410156 203.027344 L 149.972656 203.027344 L 149.972656 201.882812 C 149.972656 192.792969 149.988281 183.699219 149.949219 174.609375 C 149.945312 173.59375 150.246094 173.304688 151.203125 173.355469 C 152.613281 173.429688 154.027344 173.375 155.5625 173.375 L 155.5625 197.417969 Z M 155.566406 197.414062 "/>
<path style=" stroke:none;fill-rule:nonzero;fill:rgb(100%,100%,100%);fill-opacity:1;" d="M 91.996094 178.761719 L 91.996094 203.046875 L 86.636719 203.046875 L 86.636719 201.839844 C 86.636719 194.632812 86.636719 187.425781 86.636719 180.21875 C 86.636719 178.851562 86.605469 178.820312 85.277344 178.820312 C 83.089844 178.820312 80.902344 178.820312 78.652344 178.820312 L 78.652344 173.421875 C 78.996094 173.40625 79.347656 173.375 79.707031 173.375 C 86.054688 173.375 92.398438 173.394531 98.742188 173.355469 C 99.734375 173.351562 100.136719 173.570312 100.054688 174.667969 C 99.949219 175.988281 100.027344 177.324219 100.027344 178.765625 L 92 178.765625 Z M 91.996094 178.761719 "/>
</g>
</svg>
