<svg height="250" viewBox="0 0 250 250" width="250" xmlns="http://www.w3.org/2000/svg" xmlns:xlink="http://www.w3.org/1999/xlink"><filter id="a" height="100%" width="100%" x="0%" y="0%"><feColorMatrix in="SourceGraphic" type="matrix" values="0 0 0 0 1 0 0 0 0 1 0 0 0 0 1 0 0 0 1 0"/></filter><mask id="b"><g filter="url(#a)"><path d="m0 0h250v250h-250z" fill-opacity=".6"/></g></mask><clipPath id="c"><path d="m0 0h250v250h-250z"/></clipPath><mask id="d"><g filter="url(#a)"><path d="m0 0h250v250h-250z" fill-opacity=".6"/></g></mask><clipPath id="e"><path d="m0 0h250v250h-250z"/></clipPath><mask id="f"><g filter="url(#a)"><path d="m0 0h250v250h-250z" fill-opacity=".2"/></g></mask><clipPath id="g"><path d="m0 0h250v250h-250z"/></clipPath><mask id="h"><g filter="url(#a)"><path d="m0 0h250v250h-250z" fill-opacity=".2"/></g></mask><clipPath id="i"><path d="m0 0h250v250h-250z"/></clipPath><mask id="j"><g filter="url(#a)"><path d="m0 0h250v250h-250z" fill-opacity=".6"/></g></mask><clipPath id="k"><path d="m0 0h250v250h-250z"/></clipPath><mask id="l"><g filter="url(#a)"><path d="m0 0h250v250h-250z" fill-opacity=".6"/></g></mask><clipPath id="m"><path d="m0 0h250v250h-250z"/></clipPath><path d="m82.898438 117.425781-1.144532 1.753907c-12.890625 19.773437-10.011718 45.667968 6.921875 62.257812 9.960938 9.761719 23.015625 14.640625 36.070313 14.640625 0 0 0 0-41.847656-78.652344zm0 0" fill="#00a3ff"/><g clip-path="url(#c)" mask="url(#b)"><path d="m124.746094 141.332031-41.847656-23.90625c41.847656 78.652344 41.847656 78.652344 41.847656 78.652344 0-17.128906 0-36.757813 0-54.746094zm0 0" fill="#00a3ff"/></g><g clip-path="url(#e)" mask="url(#d)"><path d="m166.636719 117.425781 1.144531 1.753907c12.890625 19.773437 10.011719 45.667968-6.921875 62.257812-9.960937 9.761719-23.015625 14.640625-36.070313 14.640625 0 0 0 0 41.847657-78.652344zm0 0" fill="#00a3ff"/></g><g clip-path="url(#g)" mask="url(#f)"><path d="m124.789062 141.332031 41.847657-23.90625c-41.847657 78.652344-41.847657 78.652344-41.847657 78.652344 0-17.128906 0-36.757813 0-54.746094zm0 0" fill="#00a3ff"/></g><g clip-path="url(#i)" mask="url(#h)"><path d="m124.796875 87.933594v41.230468l36.046875-20.601562zm0 0" fill="#00a3ff"/></g><g clip-path="url(#k)" mask="url(#j)"><path d="m124.796875 87.933594-36.074219 20.628906 36.074219 20.601562zm0 0" fill="#00a3ff"/></g><path d="m124.796875 53.25-36.074219 55.3125 36.074219-20.683594zm0 0" fill="#00a3ff"/><g clip-path="url(#m)" mask="url(#l)"><path d="m124.796875 87.878906 36.078125 20.6875-36.078125-55.34375zm0 0" fill="#00a3ff"/></g></svg>