<svg width="501" height="501" viewBox="0 0 501 501" fill="none" xmlns="http://www.w3.org/2000/svg">
<g clip-path="url(#clip0_9167_1755)">
<path d="M499.176 249.175C499.176 387.031 387.422 498.785 249.566 498.785C111.71 498.785 -0.0447388 387.031 -0.0447388 249.175C-0.0447388 111.319 111.71 -0.435547 249.566 -0.435547C387.422 -0.435547 499.176 111.319 499.176 249.175Z" fill="url(#paint0_linear_9167_1755)"/>
<path d="M249.652 498.425C111.946 498.425 0.313456 387.058 0.313462 249.68C0.313462 249.68 111.946 198.494 249.652 198.494C387.357 198.494 498.99 249.68 498.99 249.68C498.99 387.058 387.357 498.425 249.652 498.425Z" fill="url(#paint1_linear_9167_1755)"/>
<path d="M385.913 214.8L249.572 75.5762L113.218 214.8L181.389 284.405L249.572 214.8L317.743 284.405L385.913 214.8Z" fill="white"/>
<path d="M243.646 410.15C236.869 410.15 231.038 408.928 226.152 406.485C221.345 403.964 217.641 400.417 215.04 395.847C212.518 391.197 211.258 385.72 211.258 379.416V325.75H226.861V379.889C226.861 384.932 228.279 388.912 231.116 391.828C234.032 394.743 238.209 396.201 243.646 396.201C249.084 396.201 253.221 394.743 256.058 391.828C258.974 388.912 260.432 384.932 260.432 379.889V325.75H276.035V379.416C276.035 385.72 274.735 391.197 272.134 395.847C269.613 400.417 265.909 403.964 261.023 406.485C256.216 408.928 250.424 410.15 243.646 410.15Z" fill="#1F2333"/>
<path d="M311.709 408.495V325.75H347.644C352.845 325.75 357.376 326.656 361.238 328.468C365.099 330.281 368.094 332.842 370.222 336.152C372.349 339.462 373.413 343.363 373.413 347.854V349.273C373.413 354.238 372.231 358.257 369.867 361.33C367.503 364.403 364.587 366.649 361.12 368.068V370.196C364.272 370.353 366.715 371.457 368.449 373.505C370.182 375.476 371.049 378.116 371.049 381.425V408.495H355.446V383.671C355.446 381.78 354.933 380.243 353.909 379.061C352.963 377.879 351.348 377.288 349.063 377.288H327.312V408.495H311.709ZM327.312 363.103H345.989C349.693 363.103 352.569 362.118 354.618 360.148C356.746 358.099 357.81 355.42 357.81 352.11V350.928C357.81 347.618 356.785 344.978 354.736 343.008C352.688 340.959 349.772 339.935 345.989 339.935H327.312V363.103Z" fill="#1F2333"/>
<path fill-rule="evenodd" clip-rule="evenodd" d="M123.771 410.443V323.802H180.86V341.883H143.27V357.727H177.551V375.808H143.27V392.362H181.57V410.443H123.771ZM225.263 408.219L225.246 408.21C220.12 405.521 216.138 401.716 213.346 396.81L213.337 396.793L213.327 396.775C210.624 391.791 209.309 385.983 209.309 379.416V323.802H228.808V379.889C228.808 384.547 230.106 387.991 232.503 390.46C234.948 392.899 238.561 394.253 243.646 394.253C248.741 394.253 252.302 392.894 254.661 390.469L254.68 390.45C257.152 387.978 258.483 384.538 258.483 379.889V323.802H277.983V379.416C277.983 385.989 276.625 391.804 273.837 396.792C271.119 401.717 267.124 405.528 261.916 408.216L261.905 408.222C256.763 410.835 250.653 412.098 243.646 412.098C236.637 412.098 230.493 410.835 225.28 408.228L225.263 408.219ZM272.134 395.847C274.735 391.197 276.035 385.72 276.035 379.416V325.75H260.432V379.889C260.432 384.932 258.974 388.912 256.058 391.828C253.221 394.743 249.084 396.201 243.646 396.201C238.209 396.201 234.032 394.743 231.116 391.828C228.279 388.912 226.861 384.932 226.861 379.889V325.75H211.258V379.416C211.258 385.72 212.518 391.197 215.04 395.847C217.641 400.417 221.345 403.964 226.152 406.485C231.038 408.928 236.869 410.15 243.646 410.15C250.424 410.15 256.216 408.928 261.023 406.485C265.909 403.964 269.613 400.417 272.134 395.847ZM309.76 410.443V323.802H347.643C353.069 323.802 357.894 324.747 362.065 326.705C366.229 328.66 369.517 331.455 371.86 335.099C374.217 338.765 375.361 343.043 375.361 347.854V349.273C375.361 354.546 374.102 359.019 371.41 362.518C369.409 365.12 367.028 367.191 364.275 368.714C366.513 369.311 368.424 370.467 369.923 372.233C372.036 374.642 372.996 377.777 372.996 381.425V410.443H353.497V383.671C353.497 382.146 353.093 381.095 352.436 380.337L352.411 380.308L352.387 380.278C351.968 379.755 351.064 379.236 349.062 379.236H329.26V410.443H309.76ZM327.312 377.288H349.063C351.348 377.288 352.963 377.879 353.909 379.061C354.933 380.243 355.446 381.78 355.446 383.671V408.495H371.049V381.425C371.049 378.116 370.182 375.476 368.449 373.505C366.715 371.457 364.272 370.353 361.12 370.196V368.068C364.587 366.649 367.503 364.403 369.867 361.33C372.231 358.257 373.413 354.238 373.413 349.273V347.854C373.413 343.363 372.349 339.462 370.222 336.152C368.094 332.842 365.099 330.281 361.238 328.468C357.376 326.656 352.845 325.75 347.644 325.75H311.709V408.495H327.312V377.288ZM353.372 344.399L353.358 344.385C351.776 342.803 349.419 341.883 345.988 341.883H329.26V361.155H345.988C349.346 361.155 351.681 360.269 353.267 358.744C354.965 357.109 355.861 354.96 355.861 352.11V350.928C355.861 348.053 354.989 345.954 353.386 344.412L353.372 344.399ZM354.618 360.148C352.569 362.118 349.693 363.103 345.989 363.103H327.312V339.935H345.989C349.772 339.935 352.688 340.959 354.736 343.008C356.785 344.978 357.81 347.618 357.81 350.928V352.11C357.81 355.42 356.746 358.099 354.618 360.148Z" fill="#1F2333"/>
<path d="M319.903 56.5469C320.144 54.5573 323.09 54.5573 323.331 56.5469L325.352 73.238C327.962 94.7908 345.301 111.783 367.294 114.341L384.325 116.321C386.356 116.558 386.356 119.445 384.325 119.681L367.294 121.661C345.301 124.219 327.962 141.211 325.352 162.764L323.331 179.455C323.09 181.445 320.144 181.445 319.903 179.455L317.882 162.764C315.273 141.211 297.933 124.219 275.941 121.661L258.909 119.681C256.879 119.445 256.879 116.558 258.909 116.321L275.941 114.341C297.933 111.783 315.273 94.7908 317.882 73.238L319.903 56.5469Z" fill="url(#paint2_linear_9167_1755)"/>
</g>
<defs>
<linearGradient id="paint0_linear_9167_1755" x1="51.4264" y1="171.472" x2="473.913" y2="234.273" gradientUnits="userSpaceOnUse">
<stop stop-color="#FAF1E7"/>
<stop offset="1" stop-color="#6092FF"/>
</linearGradient>
<linearGradient id="paint1_linear_9167_1755" x1="98.5492" y1="247.127" x2="223.333" y2="480.395" gradientUnits="userSpaceOnUse">
<stop offset="0.0729167" stop-color="#AAC4FD"/>
<stop offset="1" stop-color="#76A0FC"/>
</linearGradient>
<linearGradient id="paint2_linear_9167_1755" x1="313.315" y1="130.071" x2="363.403" y2="85.7752" gradientUnits="userSpaceOnUse">
<stop stop-color="#FDCEAA"/>
<stop offset="1" stop-color="#FAF1E7"/>
</linearGradient>
<clipPath id="clip0_9167_1755">
<rect width="500" height="500" fill="white" transform="translate(0.5 0.103516)"/>
</clipPath>
</defs>
</svg>
