<svg height="250" viewBox="0 0 250 250" width="250" xmlns="http://www.w3.org/2000/svg" xmlns:xlink="http://www.w3.org/1999/xlink"><linearGradient id="a" gradientUnits="userSpaceOnUse" x1="207.0968816271" x2="30.69229264882" y1="52.07739749981" y2="182.80520376643"><stop offset="0" stop-color="#00a3ff"/><stop offset="1" stop-color="#3adcff"/></linearGradient><path d="m125 0c69.03125 0 125 55.96875 125 125s-55.96875 125-125 125-125-55.953125-125-125 55.960938-125 125-125zm0 0" fill="#fff"/><path d="m166.503906 96.636719c-1.578125-.910157-3.371094-1.390625-5.191406-1.390625s-3.609375.480468-5.1875 1.390625l-23.808594 14.179687-16.175781 9.25-23.808594 14.183594c-1.578125.910156-3.367187 1.386719-5.1875 1.386719-1.820312 0-3.609375-.476563-5.1875-1.386719l-18.921875-11.101562c-1.554687-.925782-2.847656-2.234376-3.753906-3.796876-.90625-1.566406-1.402344-3.335937-1.4375-5.140624v-21.890626c-.03125-1.824218.4375-3.617187 1.351562-5.195312.914063-1.574219 2.242188-2.871094 3.839844-3.746094l18.617188-10.792968c1.578125-.910157 3.367187-1.386719 5.1875-1.386719 1.820312 0 3.609375.476562 5.1875 1.386719l18.621094 10.792968c1.550781.925782 2.84375 2.234375 3.75 3.796875.90625 1.566407 1.402343 3.335938 1.4375 5.144531v14.179688l16.175781-9.554688v-14.183593c.03125-1.820313-.4375-3.617188-1.351563-5.191407-.914062-1.578124-2.242187-2.871093-3.835937-3.75l-34.492188-20.347656c-1.578125-.910156-3.367187-1.390625-5.1875-1.390625-1.820312 0-3.609375.480469-5.1875 1.390625l-35.101562 20.347656c-1.59375.878907-2.921875 2.171876-3.835938 3.75-.914062 1.574219-1.382812 3.371094-1.351562 5.191407v41.003906c-.03125 1.820313.4375 3.617187 1.351562 5.191406.914063 1.578125 2.242188 2.875 3.835938 3.75l35.101562 20.347657c1.578125.910156 3.367188 1.390624 5.1875 1.390624 1.820313 0 3.613281-.480468 5.1875-1.390624l23.808594-13.871094 16.175781-9.558594 23.808594-13.875c1.578125-.910156 3.367188-1.386719 5.1875-1.386719s3.613281.476563 5.191406 1.386719l18.617188 10.792969c1.550781.925781 2.84375 2.234375 3.75 3.796875s1.402344 3.335937 1.4375 5.140625v21.890625c.03125 1.824218-.4375 3.617187-1.351563 5.195312-.914062 1.574219-2.242187 2.871094-3.835937 3.746094l-18.617188 11.101562c-1.578125.910157-3.371094 1.386719-5.191406 1.386719s-3.609375-.476562-5.1875-1.386719l-18.617188-10.792968c-1.554687-.925782-2.84375-2.234375-3.753906-3.796875-.90625-1.566407-1.402344-3.335938-1.4375-5.144531v-14.179688l-16.175781 9.554688v14.183593c-.03125 1.820313.4375 3.617188 1.351563 5.191407.914062 1.578124 2.242187 2.871093 3.835937 3.75l35.101563 20.347656c1.578124.910156 3.367187 1.390625 5.1875 1.390625 1.824218 0 3.613281-.480469 5.191406-1.390625l35.097656-20.347656c1.554688-.925782 2.84375-2.234376 3.753906-3.796876.90625-1.566406 1.402344-3.335937 1.4375-5.144531v-41.003906c.027344-1.824219-.4375-3.617187-1.351562-5.191406-.914063-1.578125-2.242188-2.875-3.839844-3.75zm0 0" fill="url(#a)"/></svg>