<svg height="250" viewBox="0 0 250 250" width="250" xmlns="http://www.w3.org/2000/svg"><g fill="#2683ff"><path d="m35.558594 170.011719c-3.777344 0-6.835938 3.0625-6.835938 6.835937 0 3.777344 3.058594 6.835938 6.835938 6.835938s6.835937-3.058594 6.835937-6.835938c0-1.210937-.332031-2.3125-.882812-3.417968-1.242188-2.109376-3.503907-3.40625-5.953125-3.414063m96.582031-148.738281c0-3.773438-3.058594-6.835938-6.835937-6.835938-3.773438 0-6.835938 3.0625-6.835938 6.835938 0 3.777344 3.0625 6.835937 6.835938 6.835937 3.765624-.019531 6.816406-3.066406 6.835937-6.835937m83.359375 59.320312c3.777344 0 6.835938-3.0625 6.835938-6.835937 0-3.777344-3.058594-6.839844-6.835938-6.839844s-6.835938 3.0625-6.835938 6.839844c.003907 1.160156.308594 2.296875.882813 3.304687 1.195313 2.171875 3.476563 3.523438 5.953125 3.53125m-176.75-13.121094c-3.308594-1.875-7.386719-.773437-9.261719 2.535157-1.875 3.308593-.769531 7.386719 2.535157 9.261719 3.308593 1.871093 7.390624.769531 9.261718-2.539063 1.875-3.195313.773438-7.386719-2.535156-9.257813m179.5 103.859376c-.992188-.664063-2.203125-.882813-3.417969-.992188-2.464843-.035156-4.753906 1.261719-5.996093 3.390625-1.242188 2.128906-1.242188 4.761719 0 6.886719 1.242187 2.128906 3.53125 3.425781 5.996093 3.394531 2.425781 0 4.625-1.324219 5.953125-3.417969 1.875-3.199218.773438-7.390625-2.535156-9.261718m-99.78125 57c-.332031 3.085937 1.542969 6.0625 4.410156 7.164062.660156.222656 1.433594.441406 2.09375.441406 3.449219-.003906 6.410156-2.457031 7.058594-5.84375.507812-3.695312-2.054688-7.109375-5.742188-7.65625-3.691406-.542968-7.132812 1.988282-7.710937 5.671875-.058594.058594-.097656.136719-.109375.21875"/><path d="m224.976562 158.765625c-.8125-.46875-1.660156-.875-2.535156-1.210937v-63.839844c.992188-.328125 1.984375-.882813 2.976563-1.320313 10.25-5.734375 14-18.746093 8.269531-29-5.734375-10.257812-18.746094-14-29-8.269531-.882812.441406-1.65625.992188-2.425781 1.542969l-56.230469-32.523438c.109375-.992187.21875-1.875.21875-2.867187 0-11.796875-9.585938-21.277344-21.273438-21.277344s-21.5 9.703125-21.5 21.390625c0 .992187.109376 1.875.21875 2.863281l-55.789062 32.304688c-6.039062-4.730469-14.15625-5.851563-21.25-2.933594-7.097656 2.917969-12.078125 9.425781-13.039062 17.035156-.964844 7.613282 2.238281 15.15625 8.382812 19.75.769531.550782 1.542969 1.101563 2.425781 1.652344.898438.550781 1.863281.996094 2.867188 1.324219v63.726562c-10.917969 4.410157-16.210938 16.761719-11.800781 27.671875 4.410156 10.914063 16.757812 16.207032 27.675781 11.796875.992187-.328125 1.875-.878906 2.753906-1.320312.882813-.550781 1.765625-1.101563 2.648437-1.765625l55.234376 31.863281c-1.875 11.578125 6.066406 22.492187 17.644531 24.367187 11.574219 1.875 22.492187-6.0625 24.363281-17.640624.222656-1.210938.222656-2.316407.222656-3.527344-.015625-1.035156-.089844-2.066406-.222656-3.089844l54.910156-31.640625c.882813.660156 1.761719 1.320313 2.753906 1.875 10.25 5.734375 23.265626 2.09375 29-8.160156 5.507813-10.253907 2.203126-22.824219-7.5-28.777344zm3.859376 26.683594c-4.519532 7.714843-14.554688 10.363281-22.273438 5.84375-6.171875-3.640625-9.261719-10.808594-7.605469-17.75l-25.800781-15.105469c-8.140625 8.253906-20.441406 10.816406-31.203125 6.5-3.859375 1.210938-12.125 1.984375-12.125 1.984375v45.425781c9.042969 2.753906 14 12.347656 11.25 21.386719s-12.347656 14-21.390625 11.25c-.109375 0-.21875-.109375-.328125-.109375-.773437-.21875-1.4375-.550781-2.097656-.882812-8.488281-4.191407-11.796875-14.554688-7.605469-22.933594 2.09375-4.1875 5.84375-7.273438 10.25-8.707032v-46.308593c-3.238281-1-6.40625-2.21875-9.484375-3.640625-9.972656 1.996094-20.316406-.550782-28.222656-6.945313l-30.761719 17.75c2.097656 8.796875-3.332031 17.628907-12.125 19.730469-8.796875 2.097656-17.628906-3.328125-19.730469-12.125-2.101562-8.792969 3.324219-17.625 12.117188-19.730469 5.292969-1.320312 10.914062.21875 15 3.96875l28.777343-16.648437c-9.703124-13.671875-8.160156-32.414063 3.75-44.324219l-32.75-18.742187c-6.5 6.175781-16.757812 5.84375-22.933593-.769532-2.964844-3.152344-4.554688-7.359375-4.410157-11.683594.148438-4.324218 2.011719-8.414062 5.183594-11.363281 6.613282-6.171875 16.757813-5.84375 22.929688.773438 3.75 3.96875 5.183594 9.480469 3.96875 14.773437l36.273437 20.835938c4.753907-2.554688 10.042969-3.953125 15.4375-4.078125 5.074219-4.1875 18.074219-8.488281 18.074219-8.488281v-49.613282c-8.046875-2.425781-12.570312-10.914062-10.144531-18.964844 2.425781-8.046874 10.921875-12.457031 18.972656-10.03125 8.046875 2.421876 12.566406 10.914063 10.140625 18.960938-1.453125 4.875-5.269531 8.6875-10.140625 10.144531v48.625s23.8125 5.953125 31.3125 14.882813l38.585937-21.9375c-1.984374-8.820313 3.417969-17.640625 12.238282-19.625 8.824218-1.984375 17.644531 3.417968 19.625 12.238281 1.984375 8.820313-3.417969 17.640625-12.238282 19.625-5.332031 1.199219-10.910156-.328125-14.882812-4.082031l-38.148438 21.609375c1.101563 2.316406 2.09375 4.625 2.757813 7.054687 11.796875 8.050782 15.984375 23.484375 9.699219 36.386719l25.25 14.660156c5.226562-4.867187 13.03125-5.722656 19.183594-2.09375 7.609374 4.519531 10.25 14.445313 5.625 22.273438zm0 0"/><path d="m157.722656 122.824219c-.113281-.882813-.222656-1.652344-.332031-2.535157-.109375-.597656-.257813-1.1875-.441406-1.765624 0-.21875-.109375-.441407-.109375-.660157-.222656-.660156-.441406-1.433593-.664063-2.097656v-.109375c-1.398437-3.699219-3.539062-7.074219-6.285156-9.921875-.660156-.660156-1.210937-1.210937-1.984375-1.875l-.109375-.109375c-.660156-.550781-1.320313-1.101562-2.09375-1.542969l-.109375-.109375c-.664062-.441406-1.433594-.992187-2.097656-1.324218l-.109375-.109376c-.710938-.410156-1.449219-.78125-2.203125-1.101562l-.222656-.109375c-.769532-.332031-1.542969-.664063-2.421876-.996094l-.113281-.109375c-.878906-.21875-1.652343-.550781-2.535156-.660156h-.109375c-.871094-.199219-1.757812-.347656-2.644531-.441406h-.113281c-4.695313-.667969-9.484376-.097656-13.890626 1.652344l-.550781.441406c-.660156.222656-1.765625.773437-2.425781 1.105468-.34375.226563-.714844.410157-1.101562.550782-.332032.109375-.882813.550781-1.214844.769531-.328125.21875-1.101563.773437-1.542969 1.101563l-.332031.222656c-.660156.441406-1.210938.992187-1.875 1.542968l-.550782.550782c-.660156.660156-1.210937 1.210937-1.761718 1.875-1.3125-.21875-2.640625-.332032-3.96875-.332032-.441406 0-.773438 0-1.105469.109376-5.070313.222656-9.921875 2.316406-13.667969 5.734374-1.875 1.65625-3.417968 3.75-4.625 5.953126l-.117187.226562c-.339844.640625-.636719 1.304688-.882813 1.984375-.113281.21875-.113281.332031-.222656.550781-.230469.570313-.417969 1.164063-.550781 1.765625-.109375.21875-.109375.550781-.21875.769531-.109375.550782-.21875 1.101563-.332031 1.765626 0 .21875-.109376.441406-.109376.769531-.09375.84375-.128906 1.691406-.109374 2.535156-.019532.703125.015624 1.402344.109374 2.097656 0 .21875.109376.441407.109376.769531.109374.441407.109374.882813.21875 1.324219.113281.4375.113281.550781.222656.882813.125.316406.199218.652344.21875.992187 0 .332031.21875.660157.332031.992188.089844.265625.199219.523437.332031.769531.164063.359375.3125.730469.441406 1.105469.109376.21875.21875.328125.21875.550781 1.550782 3.628906 4.164063 6.707031 7.5 8.820312 1.652344.992188 3.308594 1.875 5.070313 2.421876.683594.238281 1.382813.421874 2.09375.554687l.222656.109375 1.984375.328125.441406.113281c.769532.109375 1.542969.109375 2.425782.109375 2.976562 0 5.84375-.550781 8.488281-1.765625.660156.441406 1.214844.882813 1.875 1.324219l.21875.109375c.554687.332031 1.214844.660156 1.875.992188h.109375c6.300781 3.210937 13.574219 3.957031 20.398438 2.09375h.109374c.992188-.210938 1.953126-.546876 2.867188-.992188l2.976562-1.320312c2.835938 2.210937 6.328126 3.414062 9.921876 3.417968.773437 0 1.433593-.113281 2.207031-.113281l.550781-.109375c.707031-.105469 1.40625-.25 2.09375-.441406.679688-.207032 1.34375-.464844 1.984375-.769532l.332031-.109374c.660156-.332032 1.210938-.664063 1.875-.992188 2.757813-1.765625 4.851563-4.410156 6.0625-7.390625.441406-.992187.664063-1.984375.882813-2.972656v-.332031c.109375-.441407.109375-.882813.222656-1.324219 0-.550781.109375-1.101563.109375-1.652344 0-7.277344-4.519531-13.5625-11.25-15.65625"/></g></svg>