<svg height="250" viewBox="0 0 250 250" width="250" xmlns="http://www.w3.org/2000/svg"><path d="m245.917969 125c0 66.78125-54.136719 120.917969-120.917969 120.917969s-120.917969-54.136719-120.917969-120.917969 54.136719-120.917969 120.917969-120.917969 120.917969 54.136719 120.917969 120.917969zm0 0" fill="#00847b"/><g fill="#fff" fill-rule="evenodd"><path d="m154.640625 170.832031c0 15.640625-12.695313 28.277344-28.363281 28.277344-15.636719 0-28.359375-12.636719-28.359375-28.277344 0-4.472656 1.027343-8.691406 2.886719-12.441406l-11.945313-9.722656-.277344-.167969c-3.914062 6.527344-6.136719 14.195312-6.136719 22.332031 0 24.113281 19.609376 43.695313 43.832032 43.695313s43.863281-19.554688 43.863281-43.695313c0-24.109375-19.613281-43.691406-43.835937-43.691406h-106.609376l28.222657 22.277344v-6.863281h78.359375c15.640625.027343 28.363281 12.667968 28.363281 28.277343zm0 0"/><path d="m95.359375 79.167969c0-15.640625 12.695313-28.277344 28.363281-28.277344 15.667969 0 28.332032 12.636719 28.332032 28.277344 0 4.472656-1.027344 8.691406-2.886719 12.441406l11.941406 9.722656.28125.167969c3.914063-6.527344 6.136719-14.195312 6.136719-22.332031 0-24.113281-19.609375-43.695313-43.832032-43.695313-24.222656 0-43.835937 19.554688-43.835937 43.695313 0 24.109375 19.613281 43.691406 43.835937 43.691406h106.582032l-28.222656-22.277344v6.863281h-78.332032c-15.640625-.027343-28.363281-12.667968-28.363281-28.277343zm0 0"/></g></svg>