<!-- Generator: Adobe Illustrator 24.3.0, SVG Export Plug-In . SVG Version: 6.00 Build 0)  -->
<svg xmlns="http://www.w3.org/2000/svg" xmlns:xlink="http://www.w3.org/1999/xlink" width="250px" height="250px" viewBox="0 0 250 250" version="1.1">
<g id="surface1">
<path style=" stroke:none;fill-rule:nonzero;fill:rgb(0%,51.764709%,48.235294%);fill-opacity:1;" d="M 245.917969 125 C 245.917969 191.78125 191.78125 245.917969 125 245.917969 C 58.21875 245.917969 4.082031 191.78125 4.082031 125 C 4.082031 58.21875 58.21875 4.082031 125 4.082031 C 191.78125 4.082031 245.917969 58.21875 245.917969 125 Z M 245.917969 125 "/>
<path style=" stroke:none;fill-rule:evenodd;fill:rgb(100%,100%,100%);fill-opacity:1;" d="M 154.640625 170.832031 C 154.640625 186.472656 141.945312 199.109375 126.277344 199.109375 C 110.640625 199.109375 97.917969 186.472656 97.917969 170.832031 C 97.917969 166.359375 98.945312 162.140625 100.804688 158.390625 L 88.859375 148.667969 L 88.582031 148.5 C 84.667969 155.027344 82.445312 162.695312 82.445312 170.832031 C 82.445312 194.945312 102.054688 214.527344 126.277344 214.527344 C 150.5 214.527344 170.140625 194.972656 170.140625 170.832031 C 170.140625 146.722656 150.527344 127.140625 126.304688 127.140625 L 19.695312 127.140625 L 47.917969 149.417969 L 47.917969 142.554688 L 126.277344 142.554688 C 141.917969 142.582031 154.640625 155.222656 154.640625 170.832031 Z M 154.640625 170.832031 "/>
<path style=" stroke:none;fill-rule:evenodd;fill:rgb(100%,100%,100%);fill-opacity:1;" d="M 95.359375 79.167969 C 95.359375 63.527344 108.054688 50.890625 123.722656 50.890625 C 139.390625 50.890625 152.054688 63.527344 152.054688 79.167969 C 152.054688 83.640625 151.027344 87.859375 149.167969 91.609375 L 161.109375 101.332031 L 161.390625 101.5 C 165.304688 94.972656 167.527344 87.304688 167.527344 79.167969 C 167.527344 55.054688 147.917969 35.472656 123.695312 35.472656 C 99.472656 35.472656 79.859375 55.027344 79.859375 79.167969 C 79.859375 103.277344 99.472656 122.859375 123.695312 122.859375 L 230.277344 122.859375 L 202.054688 100.582031 L 202.054688 107.445312 L 123.722656 107.445312 C 108.082031 107.417969 95.359375 94.777344 95.359375 79.167969 Z M 95.359375 79.167969 "/>
</g>
</svg>
