<svg height="250" viewBox="0 0 250 250" width="250" xmlns="http://www.w3.org/2000/svg"><path d="m156.308594 11.554688v-7.207032c0-2.472656-2.058594-4.460937-4.527344-4.34374975-48.460938 2.30078175-87.292969 41.35156275-89.246094 89.89062475.105469 3.042969 2.566406 3.839844 4.015625 3.839844h7.320313c2.316406 0 4.214844-1.820313 4.335937-4.132813 2.078125-39.933593 34.121094-71.9375 74.074219-73.960937 3.050781-.394531 4.027344-2.058594 4.027344-4.085937m-65.902344 82.179687h7.007812c2.273438 0 4.128907-1.773437 4.296876-4.042969 1.976562-27.128906 23.734374-48.769531 50.917968-50.574218 1.214844-.082032 3.679688-.992188 3.679688-4.140626v-7.132812c0-2.519531-2.136719-4.5-4.652344-4.335938-35.167969 2.292969-63.289062 30.414063-65.585938 65.574219-.164062 2.511719 1.816407 4.652344 4.339844 4.652344m65.898438-42.355469v7.167969c0 2.929687-2.546875 3.984375-3.789063 4.136719-14.222656 1.714844-25.503906 12.972656-27.257812 27.179687-.269531 2.199219-2.101563 3.871094-4.320313 3.871094h-6.996094c-2.550781 0-4.582031-2.191406-4.328124-4.730469 2.21875-22.136718 19.820312-39.738281 41.960937-41.953125 2.539063-.253906 4.730469 1.777344 4.730469 4.328125zm82.136718 104.707032c-2.027343 0-3.695312-.976563-4.085937-4.023438-2.027344-39.949219-34.035156-71.984375-73.972656-74.066406-2.316407-.121094-4.132813-2.019532-4.132813-4.335938v-7.320312c0-1.445313.796875-3.910156 3.839844-4.011719 48.546875 1.953125 87.597656 40.78125 89.902344 89.230469.117187 2.46875-1.871094 4.527344-4.34375 4.527344zm-82.191406-65.890626c0-2.519531 2.136719-4.5 4.652344-4.335937 35.167969 2.296875 63.289062 30.414063 65.582031 65.574219.164063 2.515625-1.816406 4.652344-4.335937 4.652344h-7.136719c-3.148437 0-4.058594-2.460938-4.140625-3.675782-1.800781-27.179687-23.445312-48.933594-50.582031-50.914062-2.265625-.167969-4.039063-2.019532-4.039063-4.292969zm42.359375 65.890626h-7.167969c-2.929687 0-3.988281-2.546876-4.136718-3.785157-1.714844-14.222656-12.976563-25.503906-27.183594-27.253906-2.199219-.273437-3.871094-2.105469-3.871094-4.320313v-6.996093c0-2.550781 2.191406-4.582031 4.730469-4.328125 22.136719 2.214844 39.742187 19.820312 41.957031 41.957031.253906 2.535156-1.777344 4.726563-4.328125 4.726563zm-187.058593-62.371094c2.027343 0 3.695312.976562 4.085937 4.023437 2.027344 39.949219 34.035156 71.988281 73.972656 74.066407 2.316407.121093 4.132813 2.019531 4.132813 4.335937v7.320313c0 1.445312-.796875 3.910156-3.839844 4.011718-48.546875-1.953125-87.597656-40.78125-89.90234375-89.230468-.11718725-2.46875 1.87109375-4.527344 4.34374975-4.527344zm82.191406 65.890625c0 2.519531-2.136719 4.5-4.652344 4.335937-35.167969-2.296875-63.289062-30.414062-65.582031-65.574218-.164063-2.515626 1.816406-4.652344 4.335937-4.652344h7.136719c3.148437 0 4.058594 2.460937 4.140625 3.675781 1.800781 27.179687 23.445312 48.933594 50.582031 50.914063 2.265625.164062 4.039063 2.019531 4.039063 4.292968zm-42.359375-65.890625h7.167969c2.929687 0 3.988281 2.546875 4.136718 3.785156 1.714844 14.21875 12.976563 25.5 27.183594 27.257812 2.199219.269532 3.871094 2.101563 3.871094 4.316407v6.996093c0 2.550782-2.191406 4.582032-4.730469 4.328126-22.136719-2.21875-39.742187-19.820313-41.957031-41.957032-.253906-2.535156 1.777344-4.726562 4.328125-4.726562zm42.378906 144.730468c0-2.027343.976563-3.691406 4.023437-4.085937 39.953126-2.023437 71.996094-34.027344 74.074219-73.960937.121094-2.3125 2.019531-4.132813 4.339844-4.132813h7.320313c1.445312 0 3.910156.796875 4.011718 3.839844-1.953125 48.539062-40.785156 87.585937-89.242187 89.890625-2.46875.117187-4.527344-1.871094-4.527344-4.34375zm65.898437-82.179687c2.519532 0 4.5 2.136719 4.335938 4.652344-2.292969 35.160156-30.417969 63.28125-65.582031 65.574219-2.515625.164062-4.652344-1.816407-4.652344-4.335938v-7.132812c0-3.152344 2.460937-4.058594 3.675781-4.140626 27.183594-1.804687 48.941406-23.445312 50.921875-50.574218.164063-2.269532 2.019531-4.042969 4.292969-4.042969zm-65.898437 42.355469v-7.167969c0-2.929687 2.546875-3.984375 3.785156-4.136719 14.222657-1.714844 25.507813-12.972656 27.257813-27.179687.273437-2.199219 2.105468-3.871094 4.320312-3.871094h6.996094c2.550781 0 4.582031 2.191406 4.328125 4.730469-2.214844 22.136718-19.820313 39.738281-41.960937 41.953125-2.539063.253906-4.726563-1.777344-4.726563-4.328125zm0 0" fill="#ff5c00" fill-rule="evenodd"/></svg>