<?xml version="1.0" encoding="utf-8"?>
<!-- Generator: Adobe Illustrator 23.0.5, SVG Export Plug-In . SVG Version: 6.00 Build 0)  -->
<svg version="1.1" id="Layer_1" xmlns="http://www.w3.org/2000/svg" xmlns:xlink="http://www.w3.org/1999/xlink" x="0px" y="0px"
	 viewBox="0 0 1080 1080" style="enable-background:new 0 0 1080 1080;" xml:space="preserve">
<g>
	<path d="M540.04,71.08c249.98-4.87,470.42,205.33,469.37,470.53c-1.03,259.45-216.27,467.64-469.89,467.39
		c-253.52-0.25-467.96-208.71-468.92-467.46C69.61,276.45,289.95,66.19,540.04,71.08z M539.36,996.46
		c252.44,0.37,457.15-203.24,457.6-455.14C997.41,287.57,794.48,83.37,541.1,82.6c-253.01-0.77-457.46,203-458.05,456.53
		C82.46,791.58,286.52,996.09,539.36,996.46z"/>
	<path d="M540.23,137.05c80.45,0.71,154.14,23.04,221.44,66.89c3.92,2.55,8.59,4.91,13.11,5.36c10.07,1.01,17.94,5.44,25.53,11.78
		c29.84,24.94,56.07,53.13,78.2,85.13c2.47,3.58,5.79,6.79,1.23,11.79c-1.27,1.4,0.4,6.66,2.04,9.35
		c27.77,45.55,46.66,94.38,54.85,147.19c15.6,100.58-2.35,194.77-57.44,280.43c-65.47,101.8-159.02,162.96-278.6,181.89
		c-85.91,13.6-168.19-0.49-245.85-40.21c-3.93-2.01-8.32-4.26-12.54-4.36c-20.51-0.51-34.88-13.32-49.83-24.53
		c-32.07-24.06-59.93-52.44-83.71-84.76c-2.84-3.86-7.46-7.52-1.66-13.09c1.01-0.97-0.82-5.98-2.42-8.42
		c-31.47-48.03-52.91-100.11-61.17-156.99c-19.64-135.25,17.57-252.74,113.69-350.18c64.75-65.64,144.32-102.61,235.66-114.1
		C508.47,138.25,524.4,138.06,540.23,137.05z M939.32,539.07c-2.68-24.06-4.25-48.31-8.29-72.14
		c-8.24-48.67-26.15-93.91-52.22-135.84c-1.85-2.98-6.1-7.49-7.9-6.94c-6.62,2.03-8.57-2.21-11.28-6.09
		c-22.12-31.66-48.3-59.46-78.47-83.6c-4.26-3.41-6.9-8.79-10.53-13.06c-4.54-5.34-8.43-11.87-14.12-15.51
		c-92.52-59.22-193.18-77.85-300.29-55.26c-217.1,45.78-354.2,262.9-303.89,479.08c10.7,45.98,28.96,88.73,55.08,128.06
		c1.8,2.71,5.94,6.79,7.54,6.21c7.01-2.55,9.15,2.38,12.09,6.31c23.48,31.4,50.71,59.02,82.4,82.22
		c13.91,10.19,29.44,18.5,38.66,34.21c1.75,2.98,6.13,4.63,9.56,6.4c77.63,40.23,159.98,52.66,245.91,39.23
		C795.86,902.28,937.72,734.86,939.32,539.07z"/>
	<path d="M525.28,887.38c-104.25-3.65-199.74-51.74-269.97-148.29c-3.07-4.23-7.11-8.11-1.91-14.1c1.17-1.34-1.2-6.6-2.92-9.47
		c-21.96-36.62-37.48-75.71-44.01-117.96C188.39,480.78,220.87,380,304.47,296.5c44.49-44.44,98.46-72.52,159.61-87.25
		c16.83-4.05,32.82-11.96,49.76-15.04c15.39-2.8,31.62-2.71,47.34-1.71c65.79,4.2,125.91,25.27,179.84,63.32
		c36.66,25.86,66.89,58,91.35,95.58c2.4,3.69,5.63,7.15,0.56,11.71c-1.15,1.03-0.21,5.69,1.07,7.93
		c21.92,38.47,36.07,79.56,41.61,123.49c11.61,92.02-10.54,175.32-65.81,249.66c-15.35,20.65-31.14,41.09-48.17,60.35
		c-22.1,24.99-51.59,39.75-81.43,53.16C635.61,877.73,588.62,887.23,525.28,887.38z M874.48,533.72c-0.54-7.88-0.9-21.67-2.51-35.32
		c-5.23-44.27-19.12-85.77-41.36-124.41c-1.39-2.41-5.32-5.74-6.94-5.21c-5.74,1.89-7.28-1.88-9.95-5.14
		c-16.09-19.66-30.69-40.9-48.85-58.45c-58.98-57-130.1-87.18-212.28-90.59c-15.54-0.65-31.09-1.36-46.64-1.48
		c-14.33-0.11-29.2-1.85-42.9,1.26c-69.64,15.8-128.26,51.21-174.83,105.19c-68.44,79.33-93.62,171.71-78.19,274.98
		c6.44,43.12,22.07,83.24,45.16,120.3c1.48,2.37,5.66,5.7,6.92,5.1c6.25-2.98,8,1.49,10.52,5.1c15.86,22.71,33.83,43.63,55.36,61.09
		c100.36,81.36,211.38,99.95,332.75,55.49c31.25-11.45,58.35-30.35,85.67-48.79c20.86-14.07,42.16-27.54,57.77-47.98
		C850.48,684.25,874.12,615.96,874.48,533.72z"/>
	<path d="M528.67,824.06c-89.97-3.45-169.87-45.52-226.98-129.42c-2.91-4.27-7.02-8.31-1.53-14.19c1.27-1.36-0.74-6.69-2.3-9.62
		c-15.5-29.1-25.6-59.87-30.4-92.54c-6.17-42-2.76-83.21,10.69-123.23c7.9-23.51,17.9-46.37,27.94-69.09
		c18.26-41.34,51.39-68.86,89.11-90.97c132.19-77.48,297.84-38.79,382.9,88.89c2.82,4.23,5.34,8.67,7.94,13.05
		c2.32,3.9,4.73,7.37,0,11.89c-1.38,1.32,0.01,6.65,1.4,9.54c12.23,25.59,20.5,52.32,24.85,80.38c4.83,31.13,3.92,62.06-1.98,92.91
		c-3.14,16.45-6.28,32.91-9.84,49.28c-9.95,45.75-37.73,80.29-71.2,110.82C678.57,797.99,608.41,824.4,528.67,824.06z
		 M268.35,539.33c0.83,11.04,1.3,22.11,2.57,33.1c3.99,34.63,14.56,67.22,31.51,97.68c1.23,2.21,4.05,5.81,5.15,5.48
		c10.34-3.08,11.91,5.98,15.69,11.19c60.27,82.92,141.2,121.49,243.63,113.06c52.96-4.36,99.31-25.41,140.49-58.63
		c31.16-25.14,52.54-58.03,73.34-91.38c11.76-18.85,22.25-38.31,26.07-60.7c4.87-28.56,5.88-57.18,2.04-85.89
		c-3.84-28.71-12.19-56.14-24.9-82.19c-1.36-2.79-4.52-7.44-5.75-7.11c-8.99,2.41-10.55-4.72-13.73-9.71
		c-48.85-76.88-118.78-119.88-209.45-126.11c-64.48-4.43-124.04,13.26-174.39,54.34c-25.6,20.88-48.33,45.6-70.45,70.29
		c-10.28,11.48-17.52,26.41-23.51,40.87C274.04,474.07,268.75,506.26,268.35,539.33z"/>
	<path d="M322.73,513.62c1.82-42.46,17.44-75.91,40.11-105.92c40.67-53.84,95.04-84.28,162.78-87.94
		c20.39-1.1,41.15,1.41,61.51,4.07c21.45,2.8,40.83,11.84,57.27,26.16c24.34,21.19,51.17,40.08,68.77,67.89
		c9.24,14.6,18.88,29.65,24.22,45.85c9.05,27.46,15.92,55.78,21.61,84.16c4.09,20.4-2.05,40.71-8.92,59.81
		c-31.47,87.49-93.58,138.66-185.7,151.29c-45.69,6.26-87.85-2.84-126.07-32.01c-26.08-19.9-52.73-38.34-71.73-65.66
		c-21.86-31.43-34.33-66.13-37.77-104.3C327.38,541.29,324.46,525.7,322.73,513.62z M538.82,741.12c0.18-0.74,0.36-1.48,0.54-2.22
		c6.85-0.63,13.71-1.17,20.55-1.89c55.19-5.83,99.84-30.86,135.22-73.43c36.32-43.69,43.95-96.67,48.99-150.29
		c2.14-22.73-6.97-43.69-16.96-63.49c-23.21-46.03-54.75-83-108.5-94.16c-5.55-1.15-10.96-3.02-16.38-4.71
		c-26.87-8.39-54.09-12.25-82.35-8.97c-54.74,6.36-99.39,30.67-134.65,72.95c-28.89,34.64-38.99,76.97-49.54,119.11
		c-1.93,7.71-2.83,16.05-2.24,23.95c3.69,49.14,23.69,91.15,57.72,126.4c15.01,15.55,30.96,31.75,51.99,37.41
		C474.55,730.21,506.9,734.86,538.82,741.12z"/>
	<path d="M382.69,539.34c1.28-55.96,24.83-100,71.2-131.76c9.31-6.37,19.24-10.57,30.74-11.35c18.78-1.27,37.52-4.67,56.26-4.55
		c57.72,0.38,100.33,27.37,129.47,76.63c2.27,3.84,4.39,8.03,7.55,11.03c12.24,11.62,17.55,26.09,18.84,42.46
		c4.31,54.65-12.97,100.79-54.23,137.44c-2.2,1.96-4.68,4.06-7.41,4.91c-23.92,7.46-47.47,17.53-71.98,21.34
		c-61.23,9.49-110.3-12.9-146.51-63.22c-2.8-3.89-4.8-8.58-8.25-11.72C387.26,591.29,381.83,566.59,382.69,539.34z M404.57,542.29
		c2.21,16.66,4.14,36.31,7.67,55.66c1.55,8.5,4.88,17.51,9.96,24.41c34.39,46.71,80.98,67,138.48,59.91
		c24.98-3.08,49.02-9.99,62.23-35.15c1.31-2.5,4.24-4.17,6.46-6.17c28.75-26.05,45.11-58.21,45.21-97.21
		c0.06-21.45-2.56-42.91-4.25-64.35c-0.22-2.83-1.83-5.7-3.3-8.26c-28.18-49.03-70.85-74.34-127.09-76.04
		c-19.99-0.6-39.47,2.69-54.64,18.17c-3.5,3.57-8,6.28-12.33,8.9C428.9,448.82,406.5,487.97,404.57,542.29z"/>
	<path d="M539.97,445.62c51.41-0.02,93.99,42.53,93.95,93.89c-0.04,51.5-42.44,93.95-93.88,93.97
		c-51.42,0.02-93.87-42.4-93.94-93.91C446.01,488.2,488.54,445.64,539.97,445.62z"/>
</g>
</svg>
