<svg height="250" viewBox="0 0 250 250" width="250" xmlns="http://www.w3.org/2000/svg"><path d="m0 0h250v250h-250z" fill="#eee"/><g fill-opacity=".2"><path d="m7.359375 130.15625c.167969 1.1875.488281 2.078125.972656 2.664062.882813 1.074219 2.394531 1.609376 4.539063 1.609376 1.28125 0 2.324218-.140626 3.125-.425782 1.519531-.539062 2.277344-1.546875 2.277344-3.019531 0-.859375-.375-1.523437-1.128907-1.996094-.753906-.457031-1.9375-.863281-3.550781-1.214843l-2.753906-.621094c-2.707032-.609375-4.578125-1.277344-5.617188-1.992188-1.753906-1.203125-2.628906-3.082031-2.628906-5.632812 0-2.332032.847656-4.269532 2.542969-5.8125 1.695312-1.539063 4.183593-2.3125 7.46875-2.3125 2.742187 0 5.078125.730468 7.007812 2.191406 1.945313 1.445312 2.960938 3.554688 3.054688 6.320312h-5.226563c-.09375-1.566406-.773437-2.679687-2.046875-3.335937-.847656-.4375-1.902343-.65625-3.160156-.65625-1.402344 0-2.519531.285156-3.355469.847656-.835937.566407-1.253906 1.355469-1.253906 2.367188 0 .929687.414062 1.625 1.238281 2.085937.527344.304688 1.660157.664063 3.390625 1.074219l4.484375 1.078125c1.964844.472656 3.449219 1.101562 4.449219 1.890625 1.554688 1.222656 2.328125 2.996094 2.328125 5.3125 0 2.378906-.910156 4.355469-2.734375 5.933594-1.8125 1.566406-4.378906 2.347656-7.699219 2.347656-3.390625 0-6.054687-.769531-8-2.3125-1.941406-1.554687-2.914062-3.683594-2.914062-6.390625zm0 0"/><path d="m25.375 112.164062h5.527344v15.996094c0 1.789063.210937 3.097656.632812 3.917969.660156 1.460937 2.097656 2.191406 4.308594 2.191406 2.203125 0 3.632812-.730469 4.292969-2.191406.421875-.820313.632812-2.128906.632812-3.917969v-15.996094h5.527344v15.996094c0 2.765625-.429687 4.921875-1.289063 6.460938-1.601562 2.828125-4.65625 4.238281-9.164062 4.238281s-7.566406-1.410156-9.179688-4.238281c-.859374-1.539063-1.289062-3.695313-1.289062-6.460938zm0 0"/><path d="m61.132812 130.15625c.167969 1.1875.488282 2.078125.972657 2.664062.882812 1.074219 2.394531 1.609376 4.539062 1.609376 1.28125 0 2.324219-.140626 3.125-.425782 1.515625-.539062 2.277344-1.546875 2.277344-3.019531 0-.859375-.378906-1.523437-1.128906-1.996094-.753907-.457031-1.9375-.863281-3.550781-1.214843l-2.753907-.621094c-2.707031-.609375-4.578125-1.277344-5.617187-1.992188-1.753906-1.203125-2.628906-3.082031-2.628906-5.632812 0-2.332032.847656-4.269532 2.542968-5.8125 1.695313-1.539063 4.183594-2.3125 7.46875-2.3125 2.742188 0 5.078125.730468 7.007813 2.191406 1.945312 1.445312 2.960937 3.554688 3.054687 6.320312h-5.226562c-.09375-1.566406-.773438-2.679687-2.046875-3.335937-.847657-.4375-1.902344-.65625-3.160157-.65625-1.402343 0-2.519531.285156-3.355468.847656-.835938.566407-1.253906 1.355469-1.253906 2.367188 0 .929687.414062 1.625 1.238281 2.085937.527343.304688 1.65625.664063 3.386719 1.074219l4.488281 1.078125c1.964843.472656 3.449219 1.101562 4.449219 1.890625 1.550781 1.222656 2.328124 2.996094 2.328124 5.3125 0 2.378906-.910156 4.355469-2.734374 5.933594-1.8125 1.566406-4.378907 2.347656-7.699219 2.347656-3.390625 0-6.058594-.769531-8-2.3125-1.941407-1.554687-2.914063-3.683594-2.914063-6.390625zm0 0"/><path d="m90.605469 134.304688c.625 0 1.226562-.078126 1.800781-.230469.320312-.082031.726562-.226563 1.21875-.441407l-2.628906-2.507812 2.804687-2.929688 2.632813 2.507813c.410156-.847656.699218-1.589844.863281-2.226563.261719-.953124.390625-2.066406.390625-3.335937 0-2.917969-.601562-5.171875-1.800781-6.761719-1.191407-1.601562-2.933594-2.402344-5.226563-2.402344-2.15625 0-3.875.765626-5.15625 2.296876-1.285156 1.527343-1.925781 3.820312-1.925781 6.867187 0 3.566406.917969 6.121094 2.753906 7.664063 1.191407 1 2.613281 1.5 4.273438 1.5zm12.519531-9.550782c0 2.316406-.28125 4.257813-.847656 5.824219-.457032 1.496094-1.136719 2.738281-2.03125 3.726563l3.003906 2.808593-2.84375 2.964844-3.144531-2.964844c-.953125.574219-1.777344.980469-2.46875 1.21875-1.167969.386719-2.5625.582031-4.1875.582031-3.390625 0-6.191407-1.011718-8.402344-3.039062-2.683594-2.433594-4.027344-6.015625-4.027344-10.734375 0-4.753906 1.378907-8.351563 4.132813-10.789063 2.246094-1.988281 5.042968-2.984374 8.386718-2.984374 3.367188 0 6.191407 1.054687 8.476563 3.160156 2.636719 2.4375 3.953125 5.847656 3.953125 10.226562zm0 0"/><path d="m105.113281 112.164062h5.523438v15.996094c0 1.789063.214843 3.097656.636719 3.917969.660156 1.460937 2.09375 2.191406 4.308593 2.191406 2.203125 0 3.632813-.730469 4.289063-2.191406.425781-.820313.636718-2.128906.636718-3.917969v-15.996094h5.527344v15.996094c0 2.765625-.429687 4.921875-1.289062 6.460938-1.601563 2.828125-4.65625 4.238281-9.164063 4.238281-4.507812 0-7.570312-1.410156-9.183593-4.238281-.859376-1.539063-1.285157-3.695313-1.285157-6.460938zm0 0"/><path d="m136.167969 128.355469h6.601562l-3.25-10.242188zm.335937-16.191407h6.144532l9.214843 26.023438h-5.898437l-1.675782-5.347656h-9.589843l-1.800781 5.347656h-5.683594zm0 0"/><path d="m158.429688 116.683594v6.992187h6.160156c1.226562 0 2.144531-.140625 2.753906-.425781 1.085938-.492188 1.625-1.46875 1.625-2.929688 0-1.578124-.523438-2.636718-1.570312-3.179687-.589844-.304687-1.472657-.457031-2.648438-.457031zm7.449218-4.519532c1.824219.035157 3.226563.257813 4.203125.667969.988281.414063 1.824219 1.019531 2.507813 1.820313.566406.660156 1.011718 1.390625 1.339844 2.1875.332031.800781.496093 1.714844.496093 2.738281 0 1.238281-.3125 2.453125-.9375 3.65625-.621093 1.1875-1.652343 2.03125-3.089843 2.523437 1.203124.484376 2.050781 1.171876 2.542968 2.066407.507813.882812.761719 2.238281.761719 4.0625v1.746093c0 1.191407.046875 1.996094.140625 2.421876.140625.667968.46875 1.164062.988281 1.480468v.652344h-5.984375c-.167968-.574219-.285156-1.039062-.355468-1.394531-.140626-.726563-.21875-1.476563-.230469-2.242188l-.035157-2.417969c-.023437-1.660156-.328124-2.765624-.917968-3.320312-.574219-.550781-1.664063-.828125-3.265625-.828125h-5.613281v10.203125h-5.316407v-26.023438zm0 0"/><path d="m196.175781 116.769531h-13.773437v5.527344h12.644531v4.519531h-12.644531v6.695313h14.410156v4.675781h-19.722656v-26.023438h19.085937zm0 0"/><path d="m202.816406 130.15625c.164063 1.1875.488282 2.078125.972656 2.664062.882813 1.074219 2.394532 1.609376 4.539063 1.609376 1.28125 0 2.324219-.140626 3.125-.425782 1.515625-.539062 2.277344-1.546875 2.277344-3.019531 0-.859375-.378907-1.523437-1.132813-1.996094-.75-.457031-1.933594-.863281-3.546875-1.214843l-2.753906-.621094c-2.707031-.609375-4.582031-1.277344-5.617187-1.992188-1.753907-1.203125-2.628907-3.082031-2.628907-5.632812 0-2.332032.847657-4.269532 2.542969-5.8125 1.695312-1.539063 4.183594-2.3125 7.46875-2.3125 2.742188 0 5.078125.730468 7.007812 2.191406 1.945313 1.445312 2.960938 3.554688 3.054688 6.320312h-5.226562c-.09375-1.566406-.777344-2.679687-2.046876-3.335937-.847656-.4375-1.902343-.65625-3.160156-.65625-1.402344 0-2.519531.285156-3.355468.847656-.835938.566407-1.253907 1.355469-1.253907 2.367188 0 .929687.414063 1.625 1.234375 2.085937.53125.304688 1.660156.664063 3.390625 1.074219l4.484375 1.078125c1.96875.472656 3.449219 1.101562 4.453125 1.890625 1.550781 1.222656 2.328125 2.996094 2.328125 5.3125 0 2.378906-.910156 4.355469-2.734375 5.933594-1.8125 1.566406-4.378906 2.347656-7.699219 2.347656-3.390624 0-6.058593-.769531-8-2.3125-1.941406-1.554687-2.914062-3.683594-2.914062-6.390625zm0 0"/><path d="m221.660156 115.304688v-3.140626h11.566406v3.140626h-3.902343v9.960937h-3.816407v-9.960937zm18.167969-3.140626 2.386719 7.539063 2.347656-7.539063h5.4375v13.101563h-3.476562v-9.5l-2.84375 9.5h-2.96875l-2.839844-9.5v9.5h-3.480469v-13.101563zm0 0"/></g><path d="m5.191406 128.707031c.164063 1.191407.488282 2.078125.972656 2.667969.882813 1.070312 2.394532 1.605469 4.535157 1.605469 1.285156 0 2.324219-.140625 3.125-.421875 1.519531-.542969 2.277343-1.546875 2.277343-3.019532 0-.859374-.375-1.523437-1.128906-1.996093-.753906-.457031-1.9375-.863281-3.546875-1.21875l-2.757812-.617188c-2.707031-.613281-4.578125-1.277343-5.613281-1.996093-1.753907-1.199219-2.632813-3.078126-2.632813-5.632813 0-2.328125.847656-4.265625 2.542969-5.808594 1.695312-1.542969 4.1875-2.3125 7.46875-2.3125 2.746094 0 5.082031.730469 7.011718 2.1875 1.941407 1.449219 2.960938 3.558594 3.054688 6.324219h-5.226562c-.09375-1.566406-.777344-2.679688-2.046876-3.339844-.847656-.433594-1.902343-.652344-3.160156-.652344-1.402344 0-2.519531.28125-3.355468.847657-.835938.566406-1.253907 1.355469-1.253907 2.367187 0 .929688.410157 1.625 1.234375 2.082032.53125.308593 1.660156.664062 3.390625 1.078124l4.484375 1.078126c1.964844.46875 3.449219 1.097656 4.449219 1.886718 1.554687 1.226563 2.332031 2.996094 2.332031 5.316406 0 2.378907-.914062 4.355469-2.738281 5.933594-1.8125 1.566406-4.378906 2.347656-7.695313 2.347656-3.390624 0-6.058593-.769531-8-2.3125-1.941406-1.554687-2.914062-3.683593-2.914062-6.394531zm0 0" fill="#ffd700"/><path d="m23.203125 110.714844h5.527344v16c0 1.789062.210937 3.09375.636719 3.917968.660156 1.460938 2.09375 2.191407 4.308593 2.191407 2.199219 0 3.628907-.730469 4.289063-2.191407.425781-.824218.636718-2.128906.636718-3.917968v-16h5.527344v16c0 2.765625-.429687 4.917968-1.289062 6.460937-1.601563 2.824219-4.65625 4.238281-9.164063 4.238281-4.507812 0-7.570312-1.414062-9.183593-4.238281-.859376-1.542969-1.289063-3.695312-1.289063-6.460937zm0 0" fill="#ffd700"/><path d="m58.964844 128.707031c.164062 1.191407.488281 2.078125.96875 2.667969.882812 1.070312 2.398437 1.605469 4.539062 1.605469 1.285156 0 2.324219-.140625 3.125-.421875 1.519532-.542969 2.277344-1.546875 2.277344-3.019532 0-.859374-.375-1.523437-1.128906-1.996093-.753906-.457031-1.9375-.863281-3.546875-1.21875l-2.757813-.617188c-2.707031-.613281-4.578125-1.277343-5.613281-1.996093-1.753906-1.199219-2.632813-3.078126-2.632813-5.632813 0-2.328125.847657-4.265625 2.542969-5.808594 1.695313-1.542969 4.1875-2.3125 7.46875-2.3125 2.746094 0 5.082031.730469 7.011719 2.1875 1.941406 1.449219 2.960938 3.558594 3.054688 6.324219h-5.226563c-.09375-1.566406-.777344-2.679688-2.046875-3.339844-.847656-.433594-1.902344-.652344-3.164062-.652344-1.398438 0-2.515626.28125-3.351563.847657-.835937.566406-1.253906 1.355469-1.253906 2.367187 0 .929688.410156 1.625 1.234375 2.082032.53125.308593 1.660156.664062 3.390625 1.078124l4.484375 1.078126c1.964844.46875 3.449218 1.097656 4.449218 1.886718 1.554688 1.226563 2.332032 2.996094 2.332032 5.316406 0 2.378907-.914063 4.355469-2.738282 5.933594-1.8125 1.566406-4.378906 2.347656-7.699218 2.347656-3.386719 0-6.054688-.769531-7.996094-2.3125-1.941406-1.554687-2.914062-3.683593-2.914062-6.394531zm0 0" fill="#ffd700"/><path d="m88.4375 132.859375c.625 0 1.222656-.078125 1.800781-.230469.316407-.082031.722657-.230468 1.21875-.441406l-2.632812-2.507812 2.808593-2.929688 2.628907 2.507812c.414062-.847656.703125-1.589843.867187-2.226562.257813-.953125.386719-2.066406.386719-3.335938 0-2.921874-.597656-5.175781-1.800781-6.765624-1.1875-1.597657-2.929688-2.398438-5.226563-2.398438-2.152343 0-3.871093.765625-5.15625 2.292969-1.28125 1.53125-1.921875 3.820312-1.921875 6.871093 0 3.566407.917969 6.121094 2.753906 7.664063 1.1875 1 2.613282 1.5 4.273438 1.5zm12.519531-9.554687c0 2.320312-.285156 4.261718-.847656 5.828124-.460937 1.496094-1.136719 2.738282-2.03125 3.726563l3 2.804687-2.839844 2.96875-3.144531-2.96875c-.953125.578126-1.777344.984376-2.472656 1.21875-1.164063.390626-2.558594.585938-4.183594.585938-3.390625 0-6.191406-1.015625-8.40625-3.039062-2.683594-2.4375-4.023438-6.015626-4.023438-10.734376 0-4.757812 1.375-8.351562 4.128907-10.789062 2.25-1.988281 5.046875-2.984375 8.386719-2.984375 3.367187 0 6.195312 1.054687 8.476562 3.160156 2.636719 2.4375 3.957031 5.84375 3.957031 10.222657zm0 0" fill="#ffd700"/><path d="m102.941406 110.714844h5.527344v16c0 1.789062.210938 3.09375.636719 3.917968.65625 1.460938 2.09375 2.191407 4.308593 2.191407 2.199219 0 3.628907-.730469 4.289063-2.191407.421875-.824218.636719-2.128906.636719-3.917968v-16h5.527344v16c0 2.765625-.429688 4.917968-1.289063 6.460937-1.601563 2.824219-4.65625 4.238281-9.164063 4.238281-4.511718 0-7.570312-1.414062-9.183593-4.238281-.859375-1.542969-1.289063-3.695312-1.289063-6.460937zm0 0" fill="#ffd700"/><path d="m133.996094 126.90625h6.605468l-3.25-10.238281zm.335937-16.191406h6.144531l9.21875 26.027344h-5.898437l-1.675781-5.347657h-9.589844l-1.800781 5.347657h-5.6875zm0 0" fill="#ffd700"/><path d="m156.257812 115.238281v6.992188h6.164063c1.222656 0 2.140625-.144531 2.753906-.425781 1.082031-.496094 1.625-1.472657 1.625-2.929688 0-1.578125-.523437-2.636719-1.570312-3.179688-.589844-.304687-1.472657-.457031-2.652344-.457031zm7.453126-4.523437c1.824218.035156 3.222656.261718 4.203124.671875.988282.414062 1.824219 1.019531 2.503907 1.820312.566406.65625 1.015625 1.386719 1.34375 2.1875s.496093 1.714844.496093 2.738281c0 1.234376-.3125 2.453126-.9375 3.65625-.625 1.1875-1.652343 2.027344-3.089843 2.523438 1.199219.480469 2.046875 1.171875 2.542969 2.066406.503906.882813.757812 2.234375.757812 4.058594v1.75c0 1.1875.046875 1.996094.140625 2.417969.144531.671875.472656 1.167969.992187 1.484375v.652344h-5.988281c-.164062-.574219-.28125-1.042969-.351562-1.394532-.140625-.730468-.21875-1.476562-.230469-2.242187l-.035156-2.417969c-.023438-1.660156-.328125-2.765625-.917969-3.320312-.578125-.554688-1.664063-.832032-3.265625-.832032h-5.617188v10.207032h-5.3125v-26.027344zm0 0" fill="#ffd700"/><path d="m194.007812 115.324219h-13.773437v5.527343h12.640625v4.519532h-12.640625v6.691406h14.40625v4.679688h-19.722656v-26.027344h19.089843zm0 0" fill="#ffd700"/><path d="m200.648438 128.707031c.164062 1.191407.488281 2.078125.96875 2.667969.882812 1.070312 2.398437 1.605469 4.539062 1.605469 1.285156 0 2.324219-.140625 3.125-.421875 1.519531-.542969 2.277344-1.546875 2.277344-3.019532 0-.859374-.375-1.523437-1.128906-1.996093-.753907-.457031-1.9375-.863281-3.550782-1.21875l-2.753906-.617188c-2.707031-.613281-4.578125-1.277343-5.613281-1.996093-1.753907-1.199219-2.632813-3.078126-2.632813-5.632813 0-2.328125.847656-4.265625 2.542969-5.808594s4.1875-2.3125 7.46875-2.3125c2.742187 0 5.082031.730469 7.011719 2.1875 1.941406 1.449219 2.960937 3.558594 3.054687 6.324219h-5.226562c-.09375-1.566406-.777344-2.679688-2.046875-3.339844-.847656-.433594-1.902344-.652344-3.164063-.652344-1.398437 0-2.519531.28125-3.351562.847657-.835938.566406-1.253907 1.355469-1.253907 2.367187 0 .929688.410157 1.625 1.234376 2.082032.53125.308593 1.660156.664062 3.390624 1.078124l4.484376 1.078126c1.964843.46875 3.449218 1.097656 4.449218 1.886718 1.554688 1.226563 2.332032 2.996094 2.332032 5.316406 0 2.378907-.914063 4.355469-2.738282 5.933594-1.8125 1.566406-4.378906 2.347656-7.699218 2.347656-3.390626 0-6.054688-.769531-7.996094-2.3125-1.945313-1.554687-2.914063-3.683593-2.914063-6.394531zm0 0" fill="#ffd700"/><path d="m219.492188 113.859375v-3.144531h11.5625v3.144531h-3.902344v9.957031h-3.8125v-9.957031zm18.167968-3.144531 2.382813 7.539062 2.347656-7.539062h5.441406v13.101562h-3.480469v-9.5l-2.84375 9.5h-2.964843l-2.84375-9.5v9.5h-3.476563v-13.101562zm0 0" fill="#ffd700"/></svg>