
<svg xmlns="http://www.w3.org/2000/svg" xmlns:xlink="http://www.w3.org/1999/xlink" width="250px" height="250px" viewBox="0 0 250 250" version="1.1">
<g id="surface1">
<rect x="0" y="0" width="250" height="250" style="fill:rgb(93.333334%,93.333334%,93.333334%);fill-opacity:1;stroke:none;"/>
<path style=" stroke:none;fill-rule:nonzero;fill:rgb(0%,0%,0%);fill-opacity:0.2;" d="M 7.359375 130.15625 C 7.527344 131.34375 7.847656 132.234375 8.332031 132.820312 C 9.214844 133.894531 10.726562 134.429688 12.871094 134.429688 C 14.152344 134.429688 15.195312 134.289062 15.996094 134.003906 C 17.515625 133.464844 18.273438 132.457031 18.273438 130.984375 C 18.273438 130.125 17.898438 129.460938 17.144531 128.988281 C 16.390625 128.53125 15.207031 128.125 13.59375 127.773438 L 10.839844 127.152344 C 8.132812 126.542969 6.261719 125.875 5.222656 125.160156 C 3.46875 123.957031 2.59375 122.078125 2.59375 119.527344 C 2.59375 117.195312 3.441406 115.257812 5.136719 113.714844 C 6.832031 112.175781 9.320312 111.402344 12.605469 111.402344 C 15.347656 111.402344 17.683594 112.132812 19.613281 113.59375 C 21.558594 115.039062 22.574219 117.148438 22.667969 119.914062 L 17.441406 119.914062 C 17.347656 118.347656 16.667969 117.234375 15.394531 116.578125 C 14.546875 116.140625 13.492188 115.921875 12.234375 115.921875 C 10.832031 115.921875 9.714844 116.207031 8.878906 116.769531 C 8.042969 117.335938 7.625 118.125 7.625 119.136719 C 7.625 120.066406 8.039062 120.761719 8.863281 121.222656 C 9.390625 121.527344 10.523438 121.886719 12.253906 122.296875 L 16.738281 123.375 C 18.703125 123.847656 20.1875 124.476562 21.1875 125.265625 C 22.742188 126.488281 23.515625 128.261719 23.515625 130.578125 C 23.515625 132.957031 22.605469 134.933594 20.78125 136.511719 C 18.96875 138.078125 16.402344 138.859375 13.082031 138.859375 C 9.691406 138.859375 7.027344 138.089844 5.082031 136.546875 C 3.140625 134.992188 2.167969 132.863281 2.167969 130.15625 Z M 7.359375 130.15625 "/>
<path style=" stroke:none;fill-rule:nonzero;fill:rgb(0%,0%,0%);fill-opacity:0.2;" d="M 25.375 112.164062 L 30.902344 112.164062 L 30.902344 128.160156 C 30.902344 129.949219 31.113281 131.257812 31.535156 132.078125 C 32.195312 133.539062 33.632812 134.269531 35.84375 134.269531 C 38.046875 134.269531 39.476562 133.539062 40.136719 132.078125 C 40.558594 131.257812 40.769531 129.949219 40.769531 128.160156 L 40.769531 112.164062 L 46.296875 112.164062 L 46.296875 128.160156 C 46.296875 130.925781 45.867188 133.082031 45.007812 134.621094 C 43.40625 137.449219 40.351562 138.859375 35.84375 138.859375 C 31.335938 138.859375 28.277344 137.449219 26.664062 134.621094 C 25.804688 133.082031 25.375 130.925781 25.375 128.160156 Z M 25.375 112.164062 "/>
<path style=" stroke:none;fill-rule:nonzero;fill:rgb(0%,0%,0%);fill-opacity:0.2;" d="M 61.132812 130.15625 C 61.300781 131.34375 61.621094 132.234375 62.105469 132.820312 C 62.988281 133.894531 64.5 134.429688 66.644531 134.429688 C 67.925781 134.429688 68.96875 134.289062 69.769531 134.003906 C 71.285156 133.464844 72.046875 132.457031 72.046875 130.984375 C 72.046875 130.125 71.667969 129.460938 70.917969 128.988281 C 70.164062 128.53125 68.980469 128.125 67.367188 127.773438 L 64.613281 127.152344 C 61.90625 126.542969 60.035156 125.875 58.996094 125.160156 C 57.242188 123.957031 56.367188 122.078125 56.367188 119.527344 C 56.367188 117.195312 57.214844 115.257812 58.910156 113.714844 C 60.605469 112.175781 63.09375 111.402344 66.378906 111.402344 C 69.121094 111.402344 71.457031 112.132812 73.386719 113.59375 C 75.332031 115.039062 76.347656 117.148438 76.441406 119.914062 L 71.214844 119.914062 C 71.121094 118.347656 70.441406 117.234375 69.167969 116.578125 C 68.320312 116.140625 67.265625 115.921875 66.007812 115.921875 C 64.605469 115.921875 63.488281 116.207031 62.652344 116.769531 C 61.816406 117.335938 61.398438 118.125 61.398438 119.136719 C 61.398438 120.066406 61.8125 120.761719 62.636719 121.222656 C 63.164062 121.527344 64.292969 121.886719 66.023438 122.296875 L 70.511719 123.375 C 72.476562 123.847656 73.960938 124.476562 74.960938 125.265625 C 76.511719 126.488281 77.289062 128.261719 77.289062 130.578125 C 77.289062 132.957031 76.378906 134.933594 74.554688 136.511719 C 72.742188 138.078125 70.175781 138.859375 66.855469 138.859375 C 63.464844 138.859375 60.796875 138.089844 58.855469 136.546875 C 56.914062 134.992188 55.941406 132.863281 55.941406 130.15625 Z M 61.132812 130.15625 "/>
<path style=" stroke:none;fill-rule:nonzero;fill:rgb(0%,0%,0%);fill-opacity:0.2;" d="M 90.605469 134.304688 C 91.230469 134.304688 91.832031 134.226562 92.40625 134.074219 C 92.726562 133.992188 93.132812 133.847656 93.625 133.632812 L 90.996094 131.125 L 93.800781 128.195312 L 96.433594 130.703125 C 96.84375 129.855469 97.132812 129.113281 97.296875 128.476562 C 97.558594 127.523438 97.6875 126.410156 97.6875 125.140625 C 97.6875 122.222656 97.085938 119.96875 95.886719 118.378906 C 94.695312 116.777344 92.953125 115.976562 90.660156 115.976562 C 88.503906 115.976562 86.785156 116.742188 85.503906 118.273438 C 84.21875 119.800781 83.578125 122.09375 83.578125 125.140625 C 83.578125 128.707031 84.496094 131.261719 86.332031 132.804688 C 87.523438 133.804688 88.945312 134.304688 90.605469 134.304688 Z M 103.125 124.753906 C 103.125 127.070312 102.84375 129.011719 102.277344 130.578125 C 101.820312 132.074219 101.140625 133.316406 100.246094 134.304688 L 103.25 137.113281 L 100.40625 140.078125 L 97.261719 137.113281 C 96.308594 137.6875 95.484375 138.09375 94.792969 138.332031 C 93.625 138.71875 92.230469 138.914062 90.605469 138.914062 C 87.214844 138.914062 84.414062 137.902344 82.203125 135.875 C 79.519531 133.441406 78.175781 129.859375 78.175781 125.140625 C 78.175781 120.386719 79.554688 116.789062 82.308594 114.351562 C 84.554688 112.363281 87.351562 111.367188 90.695312 111.367188 C 94.0625 111.367188 96.886719 112.421875 99.171875 114.527344 C 101.808594 116.964844 103.125 120.375 103.125 124.753906 Z M 103.125 124.753906 "/>
<path style=" stroke:none;fill-rule:nonzero;fill:rgb(0%,0%,0%);fill-opacity:0.2;" d="M 105.113281 112.164062 L 110.636719 112.164062 L 110.636719 128.160156 C 110.636719 129.949219 110.851562 131.257812 111.273438 132.078125 C 111.933594 133.539062 113.367188 134.269531 115.582031 134.269531 C 117.785156 134.269531 119.214844 133.539062 119.871094 132.078125 C 120.296875 131.257812 120.507812 129.949219 120.507812 128.160156 L 120.507812 112.164062 L 126.035156 112.164062 L 126.035156 128.160156 C 126.035156 130.925781 125.605469 133.082031 124.746094 134.621094 C 123.144531 137.449219 120.089844 138.859375 115.582031 138.859375 C 111.074219 138.859375 108.011719 137.449219 106.398438 134.621094 C 105.539062 133.082031 105.113281 130.925781 105.113281 128.160156 Z M 105.113281 112.164062 "/>
<path style=" stroke:none;fill-rule:nonzero;fill:rgb(0%,0%,0%);fill-opacity:0.2;" d="M 136.167969 128.355469 L 142.769531 128.355469 L 139.519531 118.113281 Z M 136.503906 112.164062 L 142.648438 112.164062 L 151.863281 138.1875 L 145.964844 138.1875 L 144.289062 132.839844 L 134.699219 132.839844 L 132.898438 138.1875 L 127.214844 138.1875 Z M 136.503906 112.164062 "/>
<path style=" stroke:none;fill-rule:nonzero;fill:rgb(0%,0%,0%);fill-opacity:0.2;" d="M 158.429688 116.683594 L 158.429688 123.675781 L 164.589844 123.675781 C 165.816406 123.675781 166.734375 123.535156 167.34375 123.25 C 168.429688 122.757812 168.96875 121.78125 168.96875 120.320312 C 168.96875 118.742188 168.445312 117.683594 167.398438 117.140625 C 166.808594 116.835938 165.925781 116.683594 164.75 116.683594 Z M 165.878906 112.164062 C 167.703125 112.199219 169.105469 112.421875 170.082031 112.832031 C 171.070312 113.246094 171.90625 113.851562 172.589844 114.652344 C 173.15625 115.3125 173.601562 116.042969 173.929688 116.839844 C 174.261719 117.640625 174.425781 118.554688 174.425781 119.578125 C 174.425781 120.816406 174.113281 122.03125 173.488281 123.234375 C 172.867188 124.421875 171.835938 125.265625 170.398438 125.757812 C 171.601562 126.242188 172.449219 126.929688 172.941406 127.824219 C 173.449219 128.707031 173.703125 130.0625 173.703125 131.886719 L 173.703125 133.632812 C 173.703125 134.824219 173.75 135.628906 173.84375 136.054688 C 173.984375 136.722656 174.3125 137.21875 174.832031 137.535156 L 174.832031 138.1875 L 168.847656 138.1875 C 168.679688 137.613281 168.5625 137.148438 168.492188 136.792969 C 168.351562 136.066406 168.273438 135.316406 168.261719 134.550781 L 168.226562 132.132812 C 168.203125 130.472656 167.898438 129.367188 167.308594 128.8125 C 166.734375 128.261719 165.644531 127.984375 164.042969 127.984375 L 158.429688 127.984375 L 158.429688 138.1875 L 153.113281 138.1875 L 153.113281 112.164062 Z M 165.878906 112.164062 "/>
<path style=" stroke:none;fill-rule:nonzero;fill:rgb(0%,0%,0%);fill-opacity:0.2;" d="M 196.175781 116.769531 L 182.402344 116.769531 L 182.402344 122.296875 L 195.046875 122.296875 L 195.046875 126.816406 L 182.402344 126.816406 L 182.402344 133.511719 L 196.8125 133.511719 L 196.8125 138.1875 L 177.089844 138.1875 L 177.089844 112.164062 L 196.175781 112.164062 Z M 196.175781 116.769531 "/>
<path style=" stroke:none;fill-rule:nonzero;fill:rgb(0%,0%,0%);fill-opacity:0.2;" d="M 202.816406 130.15625 C 202.980469 131.34375 203.304688 132.234375 203.789062 132.820312 C 204.671875 133.894531 206.183594 134.429688 208.328125 134.429688 C 209.609375 134.429688 210.652344 134.289062 211.453125 134.003906 C 212.96875 133.464844 213.730469 132.457031 213.730469 130.984375 C 213.730469 130.125 213.351562 129.460938 212.597656 128.988281 C 211.847656 128.53125 210.664062 128.125 209.050781 127.773438 L 206.296875 127.152344 C 203.589844 126.542969 201.714844 125.875 200.679688 125.160156 C 198.925781 123.957031 198.050781 122.078125 198.050781 119.527344 C 198.050781 117.195312 198.898438 115.257812 200.59375 113.714844 C 202.289062 112.175781 204.777344 111.402344 208.0625 111.402344 C 210.804688 111.402344 213.140625 112.132812 215.070312 113.59375 C 217.015625 115.039062 218.03125 117.148438 218.125 119.914062 L 212.898438 119.914062 C 212.804688 118.347656 212.121094 117.234375 210.851562 116.578125 C 210.003906 116.140625 208.949219 115.921875 207.691406 115.921875 C 206.289062 115.921875 205.171875 116.207031 204.335938 116.769531 C 203.5 117.335938 203.082031 118.125 203.082031 119.136719 C 203.082031 120.066406 203.496094 120.761719 204.316406 121.222656 C 204.847656 121.527344 205.976562 121.886719 207.707031 122.296875 L 212.191406 123.375 C 214.160156 123.847656 215.640625 124.476562 216.644531 125.265625 C 218.195312 126.488281 218.972656 128.261719 218.972656 130.578125 C 218.972656 132.957031 218.0625 134.933594 216.238281 136.511719 C 214.425781 138.078125 211.859375 138.859375 208.539062 138.859375 C 205.148438 138.859375 202.480469 138.089844 200.539062 136.546875 C 198.597656 134.992188 197.625 132.863281 197.625 130.15625 Z M 202.816406 130.15625 "/>
<path style=" stroke:none;fill-rule:nonzero;fill:rgb(0%,0%,0%);fill-opacity:0.2;" d="M 221.660156 115.304688 L 221.660156 112.164062 L 233.226562 112.164062 L 233.226562 115.304688 L 229.324219 115.304688 L 229.324219 125.265625 L 225.507812 125.265625 L 225.507812 115.304688 Z M 239.828125 112.164062 L 242.214844 119.703125 L 244.5625 112.164062 L 250 112.164062 L 250 125.265625 L 246.523438 125.265625 L 246.523438 115.765625 L 243.679688 125.265625 L 240.710938 125.265625 L 237.871094 115.765625 L 237.871094 125.265625 L 234.390625 125.265625 L 234.390625 112.164062 Z M 239.828125 112.164062 "/>
<path style=" stroke:none;fill-rule:nonzero;fill:rgb(100%,84.313726%,0%);fill-opacity:1;" d="M 5.191406 128.707031 C 5.355469 129.898438 5.679688 130.785156 6.164062 131.375 C 7.046875 132.445312 8.558594 132.980469 10.699219 132.980469 C 11.984375 132.980469 13.023438 132.839844 13.824219 132.558594 C 15.34375 132.015625 16.101562 131.011719 16.101562 129.539062 C 16.101562 128.679688 15.726562 128.015625 14.972656 127.542969 C 14.21875 127.085938 13.035156 126.679688 11.425781 126.324219 L 8.667969 125.707031 C 5.960938 125.09375 4.089844 124.429688 3.054688 123.710938 C 1.300781 122.511719 0.421875 120.632812 0.421875 118.078125 C 0.421875 115.75 1.269531 113.8125 2.964844 112.269531 C 4.660156 110.726562 7.152344 109.957031 10.433594 109.957031 C 13.179688 109.957031 15.515625 110.6875 17.445312 112.144531 C 19.386719 113.59375 20.40625 115.703125 20.5 118.46875 L 15.273438 118.46875 C 15.179688 116.902344 14.496094 115.789062 13.226562 115.128906 C 12.378906 114.695312 11.324219 114.476562 10.066406 114.476562 C 8.664062 114.476562 7.546875 114.757812 6.710938 115.324219 C 5.875 115.890625 5.457031 116.679688 5.457031 117.691406 C 5.457031 118.621094 5.867188 119.316406 6.691406 119.773438 C 7.222656 120.082031 8.351562 120.4375 10.082031 120.851562 L 14.566406 121.929688 C 16.53125 122.398438 18.015625 123.027344 19.015625 123.816406 C 20.570312 125.042969 21.347656 126.8125 21.347656 129.132812 C 21.347656 131.511719 20.433594 133.488281 18.609375 135.066406 C 16.796875 136.632812 14.230469 137.414062 10.914062 137.414062 C 7.523438 137.414062 4.855469 136.644531 2.914062 135.101562 C 0.972656 133.546875 0 131.417969 0 128.707031 Z M 5.191406 128.707031 "/>
<path style=" stroke:none;fill-rule:nonzero;fill:rgb(100%,84.313726%,0%);fill-opacity:1;" d="M 23.203125 110.714844 L 28.730469 110.714844 L 28.730469 126.714844 C 28.730469 128.503906 28.941406 129.808594 29.367188 130.632812 C 30.027344 132.09375 31.460938 132.824219 33.675781 132.824219 C 35.875 132.824219 37.304688 132.09375 37.964844 130.632812 C 38.390625 129.808594 38.601562 128.503906 38.601562 126.714844 L 38.601562 110.714844 L 44.128906 110.714844 L 44.128906 126.714844 C 44.128906 129.480469 43.699219 131.632812 42.839844 133.175781 C 41.238281 136 38.183594 137.414062 33.675781 137.414062 C 29.167969 137.414062 26.105469 136 24.492188 133.175781 C 23.632812 131.632812 23.203125 129.480469 23.203125 126.714844 Z M 23.203125 110.714844 "/>
<path style=" stroke:none;fill-rule:nonzero;fill:rgb(100%,84.313726%,0%);fill-opacity:1;" d="M 58.964844 128.707031 C 59.128906 129.898438 59.453125 130.785156 59.933594 131.375 C 60.816406 132.445312 62.332031 132.980469 64.472656 132.980469 C 65.757812 132.980469 66.796875 132.839844 67.597656 132.558594 C 69.117188 132.015625 69.875 131.011719 69.875 129.539062 C 69.875 128.679688 69.5 128.015625 68.746094 127.542969 C 67.992188 127.085938 66.808594 126.679688 65.199219 126.324219 L 62.441406 125.707031 C 59.734375 125.09375 57.863281 124.429688 56.828125 123.710938 C 55.074219 122.511719 54.195312 120.632812 54.195312 118.078125 C 54.195312 115.75 55.042969 113.8125 56.738281 112.269531 C 58.433594 110.726562 60.925781 109.957031 64.207031 109.957031 C 66.953125 109.957031 69.289062 110.6875 71.21875 112.144531 C 73.160156 113.59375 74.179688 115.703125 74.273438 118.46875 L 69.046875 118.46875 C 68.953125 116.902344 68.269531 115.789062 67 115.128906 C 66.152344 114.695312 65.097656 114.476562 63.835938 114.476562 C 62.4375 114.476562 61.320312 114.757812 60.484375 115.324219 C 59.648438 115.890625 59.230469 116.679688 59.230469 117.691406 C 59.230469 118.621094 59.640625 119.316406 60.464844 119.773438 C 60.996094 120.082031 62.125 120.4375 63.855469 120.851562 L 68.339844 121.929688 C 70.304688 122.398438 71.789062 123.027344 72.789062 123.816406 C 74.34375 125.042969 75.121094 126.8125 75.121094 129.132812 C 75.121094 131.511719 74.207031 133.488281 72.382812 135.066406 C 70.570312 136.632812 68.003906 137.414062 64.683594 137.414062 C 61.296875 137.414062 58.628906 136.644531 56.6875 135.101562 C 54.746094 133.546875 53.773438 131.417969 53.773438 128.707031 Z M 58.964844 128.707031 "/>
<path style=" stroke:none;fill-rule:nonzero;fill:rgb(100%,84.313726%,0%);fill-opacity:1;" d="M 88.4375 132.859375 C 89.0625 132.859375 89.660156 132.78125 90.238281 132.628906 C 90.554688 132.546875 90.960938 132.398438 91.457031 132.1875 L 88.824219 129.679688 L 91.632812 126.75 L 94.261719 129.257812 C 94.675781 128.410156 94.964844 127.667969 95.128906 127.03125 C 95.386719 126.078125 95.515625 124.964844 95.515625 123.695312 C 95.515625 120.773438 94.917969 118.519531 93.714844 116.929688 C 92.527344 115.332031 90.785156 114.53125 88.488281 114.53125 C 86.335938 114.53125 84.617188 115.296875 83.332031 116.824219 C 82.050781 118.355469 81.410156 120.644531 81.410156 123.695312 C 81.410156 127.261719 82.328125 129.816406 84.164062 131.359375 C 85.351562 132.359375 86.777344 132.859375 88.4375 132.859375 Z M 100.957031 123.304688 C 100.957031 125.625 100.671875 127.566406 100.109375 129.132812 C 99.648438 130.628906 98.972656 131.871094 98.078125 132.859375 L 101.078125 135.664062 L 98.238281 138.632812 L 95.09375 135.664062 C 94.140625 136.242188 93.316406 136.648438 92.621094 136.882812 C 91.457031 137.273438 90.0625 137.46875 88.4375 137.46875 C 85.046875 137.46875 82.246094 136.453125 80.03125 134.429688 C 77.347656 131.992188 76.007812 128.414062 76.007812 123.695312 C 76.007812 118.9375 77.382812 115.34375 80.136719 112.90625 C 82.386719 110.917969 85.183594 109.921875 88.523438 109.921875 C 91.890625 109.921875 94.71875 110.976562 97 113.082031 C 99.636719 115.519531 100.957031 118.925781 100.957031 123.304688 Z M 100.957031 123.304688 "/>
<path style=" stroke:none;fill-rule:nonzero;fill:rgb(100%,84.313726%,0%);fill-opacity:1;" d="M 102.941406 110.714844 L 108.46875 110.714844 L 108.46875 126.714844 C 108.46875 128.503906 108.679688 129.808594 109.105469 130.632812 C 109.761719 132.09375 111.199219 132.824219 113.414062 132.824219 C 115.613281 132.824219 117.042969 132.09375 117.703125 130.632812 C 118.125 129.808594 118.339844 128.503906 118.339844 126.714844 L 118.339844 110.714844 L 123.867188 110.714844 L 123.867188 126.714844 C 123.867188 129.480469 123.4375 131.632812 122.578125 133.175781 C 120.976562 136 117.921875 137.414062 113.414062 137.414062 C 108.902344 137.414062 105.84375 136 104.230469 133.175781 C 103.371094 131.632812 102.941406 129.480469 102.941406 126.714844 Z M 102.941406 110.714844 "/>
<path style=" stroke:none;fill-rule:nonzero;fill:rgb(100%,84.313726%,0%);fill-opacity:1;" d="M 133.996094 126.90625 L 140.601562 126.90625 L 137.351562 116.667969 Z M 134.332031 110.714844 L 140.476562 110.714844 L 149.695312 136.742188 L 143.796875 136.742188 L 142.121094 131.394531 L 132.53125 131.394531 L 130.730469 136.742188 L 125.042969 136.742188 Z M 134.332031 110.714844 "/>
<path style=" stroke:none;fill-rule:nonzero;fill:rgb(100%,84.313726%,0%);fill-opacity:1;" d="M 156.257812 115.238281 L 156.257812 122.230469 L 162.421875 122.230469 C 163.644531 122.230469 164.5625 122.085938 165.175781 121.804688 C 166.257812 121.308594 166.800781 120.332031 166.800781 118.875 C 166.800781 117.296875 166.277344 116.238281 165.230469 115.695312 C 164.640625 115.390625 163.757812 115.238281 162.578125 115.238281 Z M 163.710938 110.714844 C 165.535156 110.75 166.933594 110.976562 167.914062 111.386719 C 168.902344 111.800781 169.738281 112.40625 170.417969 113.207031 C 170.984375 113.863281 171.433594 114.59375 171.761719 115.394531 C 172.089844 116.195312 172.257812 117.109375 172.257812 118.132812 C 172.257812 119.367188 171.945312 120.585938 171.320312 121.789062 C 170.695312 122.976562 169.667969 123.816406 168.230469 124.3125 C 169.429688 124.792969 170.277344 125.484375 170.773438 126.378906 C 171.277344 127.261719 171.53125 128.613281 171.53125 130.4375 L 171.53125 132.1875 C 171.53125 133.375 171.578125 134.183594 171.671875 134.605469 C 171.816406 135.277344 172.144531 135.773438 172.664062 136.089844 L 172.664062 136.742188 L 166.675781 136.742188 C 166.511719 136.167969 166.394531 135.699219 166.324219 135.347656 C 166.183594 134.617188 166.105469 133.871094 166.09375 133.105469 L 166.058594 130.6875 C 166.035156 129.027344 165.730469 127.921875 165.140625 127.367188 C 164.5625 126.8125 163.476562 126.535156 161.875 126.535156 L 156.257812 126.535156 L 156.257812 136.742188 L 150.945312 136.742188 L 150.945312 110.714844 Z M 163.710938 110.714844 "/>
<path style=" stroke:none;fill-rule:nonzero;fill:rgb(100%,84.313726%,0%);fill-opacity:1;" d="M 194.007812 115.324219 L 180.234375 115.324219 L 180.234375 120.851562 L 192.875 120.851562 L 192.875 125.371094 L 180.234375 125.371094 L 180.234375 132.0625 L 194.640625 132.0625 L 194.640625 136.742188 L 174.917969 136.742188 L 174.917969 110.714844 L 194.007812 110.714844 Z M 194.007812 115.324219 "/>
<path style=" stroke:none;fill-rule:nonzero;fill:rgb(100%,84.313726%,0%);fill-opacity:1;" d="M 200.648438 128.707031 C 200.8125 129.898438 201.136719 130.785156 201.617188 131.375 C 202.5 132.445312 204.015625 132.980469 206.15625 132.980469 C 207.441406 132.980469 208.480469 132.839844 209.28125 132.558594 C 210.800781 132.015625 211.558594 131.011719 211.558594 129.539062 C 211.558594 128.679688 211.183594 128.015625 210.429688 127.542969 C 209.675781 127.085938 208.492188 126.679688 206.878906 126.324219 L 204.125 125.707031 C 201.417969 125.09375 199.546875 124.429688 198.511719 123.710938 C 196.757812 122.511719 195.878906 120.632812 195.878906 118.078125 C 195.878906 115.75 196.726562 113.8125 198.421875 112.269531 C 200.117188 110.726562 202.609375 109.957031 205.890625 109.957031 C 208.632812 109.957031 210.972656 110.6875 212.902344 112.144531 C 214.84375 113.59375 215.863281 115.703125 215.957031 118.46875 L 210.730469 118.46875 C 210.636719 116.902344 209.953125 115.789062 208.683594 115.128906 C 207.835938 114.695312 206.78125 114.476562 205.519531 114.476562 C 204.121094 114.476562 203 114.757812 202.167969 115.324219 C 201.332031 115.890625 200.914062 116.679688 200.914062 117.691406 C 200.914062 118.621094 201.324219 119.316406 202.148438 119.773438 C 202.679688 120.082031 203.808594 120.4375 205.539062 120.851562 L 210.023438 121.929688 C 211.988281 122.398438 213.472656 123.027344 214.472656 123.816406 C 216.027344 125.042969 216.804688 126.8125 216.804688 129.132812 C 216.804688 131.511719 215.890625 133.488281 214.066406 135.066406 C 212.253906 136.632812 209.6875 137.414062 206.367188 137.414062 C 202.976562 137.414062 200.3125 136.644531 198.371094 135.101562 C 196.425781 133.546875 195.457031 131.417969 195.457031 128.707031 Z M 200.648438 128.707031 "/>
<path style=" stroke:none;fill-rule:nonzero;fill:rgb(100%,84.313726%,0%);fill-opacity:1;" d="M 219.492188 113.859375 L 219.492188 110.714844 L 231.054688 110.714844 L 231.054688 113.859375 L 227.152344 113.859375 L 227.152344 123.816406 L 223.339844 123.816406 L 223.339844 113.859375 Z M 237.660156 110.714844 L 240.042969 118.253906 L 242.390625 110.714844 L 247.832031 110.714844 L 247.832031 123.816406 L 244.351562 123.816406 L 244.351562 114.316406 L 241.507812 123.816406 L 238.542969 123.816406 L 235.699219 114.316406 L 235.699219 123.816406 L 232.222656 123.816406 L 232.222656 110.714844 Z M 237.660156 110.714844 "/>
</g>
</svg>
