<svg id="svg" version="1.1" xmlns="http://www.w3.org/2000/svg" xmlns:xlink="http://www.w3.org/1999/xlink" width="400" height="400" viewBox="0, 0, 400,400"><g id="svgg"><path id="path0" d="M125.334 101.048 C 125.432 101.154,128.034 101.256,131.116 101.274 C 134.197 101.291,137.281 101.417,137.969 101.554 C 138.988 101.757,139.131 101.903,138.278 101.869 C 137.552 101.840,136.158 102.961,136.797 103.060 C 137.833 103.220,137.653 103.750,136.563 103.750 C 136.047 103.750,135.625 103.891,135.625 104.063 C 135.625 104.236,136.458 104.375,137.500 104.375 C 139.328 104.375,140.005 104.762,138.750 105.091 C 138.194 105.236,138.125 105.517,138.125 107.627 C 138.125 109.797,138.071 110.000,137.496 110.000 C 136.876 110.000,136.868 110.158,136.949 119.922 L 137.031 129.844 138.281 130.034 C 139.653 130.242,139.667 130.335,138.344 130.452 C 137.460 130.531,136.361 131.250,137.125 131.250 C 137.331 131.250,137.500 131.391,137.500 131.563 C 137.500 131.734,137.210 131.875,136.857 131.875 C 136.503 131.875,136.290 132.000,136.385 132.153 C 136.622 132.537,139.046 132.921,142.578 133.133 C 144.121 133.226,143.744 133.290,140.781 133.438 C 138.719 133.540,157.914 133.619,183.438 133.614 C 208.961 133.608,225.309 133.564,219.766 133.516 C 211.096 133.441,209.688 133.364,209.688 132.964 C 209.688 132.601,210.165 132.491,211.875 132.461 C 215.943 132.388,216.510 132.344,216.771 132.081 C 216.914 131.937,215.203 131.846,212.969 131.878 C 208.189 131.949,201.760 131.832,202.656 131.692 C 203.000 131.638,204.793 131.503,206.641 131.392 C 210.359 131.168,211.198 130.638,207.891 130.602 C 206.730 130.589,205.148 130.466,204.375 130.328 L 202.969 130.078 204.453 130.000 C 205.270 129.957,206.078 129.887,206.250 129.844 C 206.422 129.801,206.914 129.748,207.344 129.727 L 208.125 129.688 208.125 117.522 L 208.125 105.357 206.328 105.124 C 203.310 104.732,205.476 104.443,211.875 104.384 C 215.263 104.353,217.398 104.224,217.031 104.073 C 216.688 103.931,213.950 103.798,210.948 103.777 C 207.842 103.756,205.357 103.607,205.182 103.432 C 205.013 103.263,204.973 103.107,205.094 103.086 C 205.214 103.064,205.453 103.012,205.625 102.969 C 205.797 102.926,206.676 102.854,207.578 102.809 C 208.480 102.764,208.902 102.666,208.516 102.592 C 208.129 102.517,207.813 102.334,207.813 102.185 C 207.813 102.035,207.285 101.858,206.641 101.790 C 205.996 101.723,209.535 101.644,214.505 101.615 C 219.475 101.586,223.477 101.498,223.399 101.420 C 223.179 101.199,125.132 100.827,125.334 101.048 M121.764 101.760 C 120.929 102.016,120.323 102.302,120.416 102.395 C 120.508 102.488,121.262 102.347,122.089 102.083 C 122.917 101.819,123.875 101.540,124.219 101.463 C 124.710 101.352,124.677 101.319,124.063 101.308 C 123.633 101.300,122.598 101.503,121.764 101.760 M142.135 101.589 L 142.969 101.616 142.031 101.903 C 140.856 102.262,138.855 101.930,139.844 101.540 C 140.188 101.405,140.656 101.354,140.885 101.428 C 141.114 101.502,141.676 101.575,142.135 101.589 M225.707 101.474 C 226.182 101.546,226.886 101.544,227.270 101.470 C 227.654 101.396,227.266 101.337,226.406 101.339 C 225.547 101.342,225.232 101.402,225.707 101.474 M118.281 103.433 C 116.582 104.440,114.687 105.933,115.104 105.936 C 115.247 105.937,115.950 105.463,116.666 104.883 C 117.383 104.303,118.426 103.596,118.984 103.312 C 119.543 103.029,120.000 102.730,120.000 102.648 C 120.000 102.420,119.949 102.444,118.281 103.433 M113.610 107.444 L 112.690 108.594 113.845 107.517 C 115.039 106.404,115.164 106.234,114.766 106.273 C 114.637 106.285,114.117 106.812,113.610 107.444 M110.943 110.547 C 108.022 113.730,107.650 114.163,108.010 113.959 C 108.433 113.720,112.941 108.750,112.735 108.750 C 112.657 108.750,111.850 109.559,110.943 110.547 M106.379 115.707 C 104.122 118.167,100.855 122.049,102.389 120.448 C 104.469 118.278,107.907 114.375,107.739 114.375 C 107.664 114.375,107.051 114.975,106.379 115.707 M99.517 123.516 L 98.281 124.844 99.609 123.608 C 100.340 122.929,100.938 122.331,100.938 122.280 C 100.938 122.044,100.665 122.280,99.517 123.516 M94.707 128.882 L 93.633 130.156 94.848 128.995 C 95.516 128.356,95.999 127.783,95.922 127.721 C 95.845 127.659,95.298 128.182,94.707 128.882 M141.563 130.250 C 141.563 130.387,141.211 130.500,140.781 130.500 C 140.352 130.500,140.000 130.387,140.000 130.250 C 140.000 130.113,140.352 130.000,140.781 130.000 C 141.211 130.000,141.563 130.113,141.563 130.250 M92.366 131.533 L 91.452 132.656 92.507 131.651 C 93.087 131.098,93.499 130.592,93.421 130.527 C 93.344 130.463,92.870 130.915,92.366 131.533 M132.459 135.234 C 131.693 136.051,130.240 137.703,129.230 138.906 C 128.221 140.109,126.587 142.008,125.599 143.125 C 118.883 150.721,114.781 155.485,114.870 155.586 C 114.928 155.651,115.367 155.232,115.847 154.655 C 116.326 154.078,117.352 152.893,118.125 152.021 C 119.833 150.095,123.408 146.086,124.419 144.962 C 126.752 142.368,129.254 139.515,130.211 138.357 C 130.814 137.628,132.012 136.293,132.874 135.391 C 133.735 134.488,134.308 133.750,134.147 133.750 C 133.985 133.750,133.226 134.418,132.459 135.234 M84.824 140.078 L 83.906 141.094 84.922 140.176 C 85.869 139.320,86.081 139.063,85.840 139.063 C 85.786 139.063,85.329 139.520,84.824 140.078 M113.165 157.337 C 112.455 158.106,111.875 158.836,111.875 158.958 C 111.875 159.080,112.179 158.837,112.551 158.418 C 112.923 157.999,113.582 157.270,114.016 156.797 C 114.450 156.324,114.726 155.938,114.630 155.938 C 114.533 155.938,113.874 156.567,113.165 157.337 M73.534 159.219 C 73.536 160.250,73.594 160.634,73.664 160.073 C 73.734 159.511,73.732 158.667,73.661 158.198 C 73.589 157.728,73.533 158.188,73.534 159.219 M112.242 159.922 C 112.667 160.422,118.029 166.510,125.676 175.173 C 127.337 177.054,129.022 179.016,129.420 179.531 C 129.819 180.047,130.254 180.516,130.387 180.574 C 130.520 180.631,130.536 180.829,130.422 181.012 C 130.309 181.196,130.359 181.258,130.533 181.151 C 130.707 181.043,131.186 181.338,131.597 181.807 C 134.278 184.863,135.277 186.185,135.075 186.408 C 134.948 186.548,135.043 186.547,135.287 186.405 C 135.615 186.215,135.681 186.280,135.538 186.652 C 135.397 187.018,135.478 187.104,135.833 186.968 C 136.218 186.820,136.276 186.925,136.106 187.461 C 135.962 187.916,136.014 188.112,136.266 188.055 C 136.870 187.916,136.979 188.730,136.387 188.957 C 136.042 189.089,135.694 188.955,135.424 188.585 C 135.039 188.058,135.000 188.055,135.000 188.544 C 135.000 188.840,135.211 189.163,135.469 189.262 C 135.727 189.361,135.938 189.582,135.938 189.754 C 135.938 189.926,135.727 189.986,135.469 189.887 C 135.082 189.739,135.000 190.056,135.000 191.695 C 135.000 193.174,135.120 193.729,135.469 193.863 C 135.727 193.962,135.938 194.258,135.938 194.521 C 135.938 194.785,136.144 195.000,136.395 195.000 C 136.792 195.000,136.869 197.705,136.970 215.078 C 137.034 226.121,137.168 235.544,137.266 236.017 C 137.365 236.491,137.323 236.803,137.174 236.710 C 137.024 236.618,136.990 236.313,137.098 236.032 C 137.220 235.716,137.168 235.600,136.962 235.727 C 136.452 236.043,131.390 230.337,131.485 229.554 C 131.541 229.099,131.485 229.028,131.298 229.317 C 131.106 229.613,129.639 228.172,126.063 224.175 C 118.876 216.142,117.813 214.984,117.813 215.190 C 117.813 215.398,118.328 215.986,130.490 229.650 C 135.291 235.044,139.781 240.106,140.469 240.899 C 141.156 241.691,145.148 246.208,149.339 250.936 C 153.530 255.663,157.889 260.584,159.026 261.870 C 161.718 264.916,164.938 268.527,171.261 275.592 C 174.091 278.754,177.883 283.043,179.688 285.125 C 181.492 287.206,183.250 289.199,183.594 289.552 C 183.938 289.906,185.266 291.355,186.546 292.773 C 192.854 299.761,200.683 301.320,208.145 297.073 C 209.688 296.195,215.718 290.094,215.299 289.835 C 215.158 289.748,214.966 289.802,214.872 289.955 C 214.777 290.107,214.306 290.186,213.823 290.130 C 213.143 290.051,212.946 290.157,212.946 290.603 C 212.946 290.990,213.104 291.120,213.426 291.000 C 213.840 290.845,213.847 290.894,213.477 291.348 C 213.008 291.924,212.188 292.061,212.188 291.563 C 212.188 291.391,211.977 291.250,211.719 291.250 C 211.162 291.250,211.102 291.914,211.612 292.424 C 211.886 292.698,211.876 292.904,211.571 293.271 C 211.209 293.708,211.127 293.701,210.761 293.207 C 210.440 292.771,210.273 292.736,209.966 293.039 C 209.656 293.345,209.686 293.542,210.109 294.010 C 210.607 294.560,210.607 294.626,210.116 295.033 C 209.610 295.453,208.151 295.675,208.183 295.327 C 208.575 291.078,208.024 255.313,207.567 255.313 C 207.261 255.313,206.761 254.891,206.456 254.375 C 205.972 253.555,205.963 253.438,206.389 253.438 C 206.656 253.438,206.875 253.322,206.875 253.181 C 206.875 253.040,207.293 252.457,207.803 251.886 C 208.313 251.314,208.673 250.753,208.602 250.638 C 208.422 250.348,209.536 248.703,209.761 248.927 C 209.861 249.028,210.036 248.816,210.150 248.458 C 210.264 248.099,210.753 247.601,211.238 247.350 C 211.733 247.094,212.274 246.453,212.470 245.889 C 212.940 244.541,213.698 243.750,214.299 243.980 C 214.630 244.107,214.714 244.046,214.557 243.791 C 214.417 243.564,214.779 242.909,215.467 242.148 C 216.096 241.452,216.526 240.797,216.423 240.693 C 216.226 240.497,214.803 241.938,211.094 246.086 C 209.891 247.431,208.344 249.140,207.656 249.883 C 206.969 250.626,204.930 252.841,203.125 254.805 L 199.844 258.377 198.125 256.457 C 197.180 255.401,195.070 253.047,193.438 251.227 C 190.352 247.789,190.027 247.416,187.188 244.065 C 186.242 242.950,185.309 241.895,185.113 241.722 C 184.917 241.548,184.090 240.633,183.274 239.688 C 180.929 236.970,177.796 233.436,176.072 231.564 C 175.201 230.618,172.467 227.523,169.997 224.688 C 167.527 221.852,165.427 219.461,165.331 219.375 C 165.235 219.289,164.102 218.023,162.813 216.563 C 161.523 215.102,160.396 213.836,160.306 213.750 C 160.217 213.664,158.600 211.836,156.713 209.688 C 154.825 207.539,153.067 205.570,152.805 205.313 C 152.542 205.055,150.296 202.523,147.812 199.688 C 143.648 194.933,136.192 186.531,130.756 180.469 C 129.523 179.094,126.219 175.367,123.413 172.188 C 120.607 169.008,118.233 166.336,118.135 166.250 C 118.038 166.164,116.636 164.582,115.018 162.734 C 113.401 160.887,112.010 159.375,111.928 159.375 C 111.845 159.375,111.987 159.621,112.242 159.922 M83.594 176.873 C 84.110 177.474,84.566 178.025,84.609 178.097 C 84.652 178.170,84.756 178.161,84.839 178.078 C 84.922 177.994,84.466 177.443,83.824 176.854 L 82.658 175.781 83.594 176.873 M88.594 182.498 C 89.110 183.099,89.566 183.650,89.609 183.722 C 89.652 183.795,89.756 183.786,89.839 183.703 C 89.922 183.619,89.466 183.068,88.824 182.479 L 87.658 181.406 88.594 182.498 M90.000 184.160 C 90.000 184.214,90.457 184.671,91.016 185.176 L 92.031 186.094 91.113 185.078 C 90.258 184.131,90.000 183.919,90.000 184.160 M93.594 188.125 C 94.265 188.813,94.885 189.375,94.971 189.375 C 95.057 189.375,94.578 188.813,93.906 188.125 C 93.235 187.438,92.615 186.875,92.529 186.875 C 92.443 186.875,92.922 187.438,93.594 188.125 M138.477 189.922 C 138.866 190.418,138.855 190.429,138.359 190.040 C 137.719 189.538,137.744 189.501,137.657 191.054 C 137.608 191.918,137.670 192.119,137.872 191.757 C 138.230 191.117,138.792 191.088,138.549 191.722 C 138.414 192.073,138.510 192.140,138.923 191.982 C 139.278 191.845,139.403 191.889,139.272 192.102 C 139.159 192.285,139.284 192.518,139.549 192.620 C 139.815 192.722,139.953 192.676,139.855 192.518 C 139.521 191.978,140.240 191.880,140.668 192.407 C 140.961 192.768,140.972 192.859,140.703 192.698 C 140.488 192.569,140.313 192.584,140.313 192.732 C 140.313 192.879,140.488 193.181,140.703 193.401 C 141.018 193.725,140.973 193.782,140.469 193.698 C 140.019 193.623,139.816 193.790,139.744 194.297 C 139.616 195.197,139.491 195.182,138.475 194.141 C 138.014 193.668,137.410 193.141,137.133 192.969 C 136.151 192.361,136.137 190.538,137.110 189.950 C 137.582 189.665,137.987 189.419,138.009 189.404 C 138.031 189.388,138.241 189.621,138.477 189.922 M95.313 190.098 C 95.313 190.152,95.770 190.609,96.328 191.113 L 97.344 192.031 96.426 191.016 C 95.570 190.069,95.313 189.856,95.313 190.098 M142.544 194.540 C 142.619 194.464,142.703 194.688,142.729 195.037 C 142.769 195.557,142.695 195.604,142.326 195.298 C 142.078 195.092,141.873 194.695,141.870 194.415 C 141.866 193.972,141.826 193.967,141.563 194.375 C 141.396 194.633,141.257 194.691,141.255 194.505 C 141.246 193.884,141.697 193.709,142.054 194.196 C 142.247 194.461,142.468 194.616,142.544 194.540 M102.217 197.813 C 103.477 199.273,104.549 200.527,104.598 200.599 C 104.647 200.671,104.745 200.671,104.815 200.599 C 104.885 200.527,103.814 199.273,102.435 197.813 L 99.927 195.156 102.217 197.813 M107.217 203.438 C 108.477 204.898,109.549 206.152,109.598 206.224 C 109.647 206.296,109.745 206.296,109.815 206.224 C 109.885 206.152,108.814 204.898,107.435 203.438 L 104.927 200.781 107.217 203.438 M112.230 209.063 C 113.495 210.523,115.057 212.281,115.699 212.969 C 116.342 213.656,116.870 214.324,116.872 214.453 C 116.873 214.582,117.031 214.688,117.221 214.688 C 117.411 214.688,116.532 213.537,115.267 212.131 C 111.666 208.125,109.684 206.123,112.230 209.063 M231.953 229.278 C 232.254 229.357,232.746 229.357,233.047 229.278 C 233.348 229.199,233.102 229.135,232.500 229.135 C 231.898 229.135,231.652 229.199,231.953 229.278 M133.912 230.512 C 134.253 230.761,134.508 231.064,134.479 231.185 C 134.353 231.720,134.624 231.526,134.767 230.979 C 134.889 230.514,134.734 230.335,134.110 230.215 C 133.329 230.066,133.320 230.079,133.912 230.512 M226.673 230.640 C 225.686 231.013,225.346 231.690,226.289 231.405 C 227.095 231.160,227.695 230.710,227.479 230.510 C 227.405 230.442,227.042 230.500,226.673 230.640 M223.807 232.567 C 222.510 233.564,221.998 234.374,223.047 233.770 C 223.638 233.429,225.514 231.563,225.265 231.563 C 225.182 231.563,224.526 232.014,223.807 232.567 M140.000 235.293 C 140.000 235.454,139.719 235.565,139.375 235.539 C 139.031 235.513,138.750 235.381,138.750 235.246 C 138.750 235.111,139.031 235.000,139.375 235.000 C 139.719 235.000,140.000 235.132,140.000 235.293 M219.713 236.875 C 218.816 237.906,218.139 238.750,218.209 238.750 C 218.485 238.750,221.563 235.587,221.563 235.303 C 221.563 234.796,221.404 234.931,219.713 236.875 M138.917 237.749 C 138.837 237.829,138.913 238.157,139.084 238.479 C 139.527 239.306,139.227 239.204,138.657 238.333 C 138.256 237.722,138.250 237.604,138.621 237.604 C 138.864 237.604,138.997 237.670,138.917 237.749 M208.684 253.927 C 208.434 254.475,208.139 254.682,207.753 254.581 C 207.442 254.500,207.188 254.561,207.188 254.717 C 207.188 254.873,207.504 255.002,207.891 255.004 C 208.277 255.007,208.910 255.093,209.297 255.197 C 209.931 255.367,210.000 255.275,210.000 254.255 C 210.000 252.892,209.242 252.703,208.684 253.927 M204.079 257.613 C 203.854 258.204,203.542 258.438,202.976 258.438 C 201.666 258.438,202.066 257.030,203.438 256.816 C 204.452 256.657,204.445 256.650,204.079 257.613 M225.671 278.128 C 224.675 279.080,224.498 279.375,224.922 279.375 C 225.051 279.375,225.549 278.883,226.029 278.281 C 227.100 276.939,226.972 276.884,225.671 278.128 M221.821 282.025 C 221.627 282.452,221.232 282.875,220.945 282.966 C 220.657 283.058,220.222 283.588,219.977 284.144 C 219.732 284.701,219.004 285.496,218.359 285.912 C 217.715 286.327,217.188 286.855,217.188 287.084 C 217.188 287.753,217.715 287.566,218.443 286.641 C 218.814 286.168,219.844 285.002,220.731 284.049 C 223.188 281.409,223.299 281.250,222.688 281.250 C 222.405 281.250,222.015 281.599,221.821 282.025 M216.250 285.469 C 216.250 285.755,216.401 285.939,216.586 285.878 C 216.771 285.816,216.922 285.632,216.922 285.469 C 216.922 285.305,216.771 285.121,216.586 285.060 C 216.401 284.998,216.250 285.182,216.250 285.469 M216.000 288.500 C 215.489 289.011,215.527 289.393,216.070 289.185 C 216.554 288.999,217.004 288.125,216.615 288.125 C 216.483 288.125,216.206 288.294,216.000 288.500 M209.765 290.391 C 209.962 290.982,210.938 291.066,210.938 290.492 C 210.938 290.202,210.670 290.000,210.286 290.000 C 209.905 290.000,209.689 290.162,209.765 290.391 M207.904 296.038 C 208.132 296.632,207.003 297.232,206.090 297.002 C 205.168 296.771,205.130 296.614,205.859 296.060 C 206.568 295.522,207.702 295.510,207.904 296.038 M204.436 297.877 C 204.221 298.092,203.715 298.099,202.916 297.900 L 201.719 297.600 203.125 297.299 C 204.525 297.000,205.072 297.241,204.436 297.877 " stroke="none" fill="#6184cb" fill-rule="evenodd"></path><path id="path1" d="M282.404 105.738 C 282.078 106.586,282.537 107.500,283.288 107.500 C 284.130 107.500,284.049 106.618,283.132 105.788 C 282.659 105.359,282.552 105.352,282.404 105.738 M284.921 111.672 C 284.742 113.350,285.091 114.124,285.598 113.175 C 285.797 112.804,286.165 112.500,286.417 112.500 C 287.211 112.500,286.910 111.428,285.965 110.891 L 285.060 110.376 284.921 111.672 M288.125 111.979 C 288.125 112.229,287.914 112.514,287.656 112.613 C 287.398 112.712,287.188 112.991,287.188 113.233 C 287.188 113.476,286.871 113.888,286.484 114.151 C 285.956 114.509,285.869 114.719,286.135 114.996 C 286.550 115.428,288.125 113.937,288.125 113.113 C 288.125 112.844,288.278 112.472,288.465 112.285 C 288.709 112.041,288.709 111.887,288.465 111.736 C 288.278 111.620,288.125 111.730,288.125 111.979 M289.375 113.583 C 289.375 114.167,289.211 114.375,288.750 114.375 C 288.406 114.375,288.125 114.529,288.125 114.717 C 288.125 114.905,288.406 115.132,288.750 115.222 C 289.363 115.382,289.375 115.648,289.375 128.943 C 289.375 142.292,289.365 142.500,288.750 142.500 C 288.177 142.500,288.125 142.708,288.125 145.000 C 288.125 147.292,288.177 147.500,288.750 147.500 C 289.339 147.500,289.375 147.708,289.375 151.094 C 289.375 154.080,289.454 154.688,289.844 154.688 C 290.551 154.688,290.406 155.659,289.671 155.851 C 288.810 156.076,288.901 158.022,289.766 157.877 C 290.226 157.800,290.313 158.034,290.313 159.361 C 290.313 160.904,290.293 160.938,289.375 160.938 C 288.169 160.938,288.085 161.977,289.219 162.868 C 290.044 163.518,290.267 164.375,289.609 164.375 C 289.130 164.374,289.227 179.465,289.707 179.635 C 290.107 179.778,290.088 185.313,289.688 185.313 C 289.112 185.313,289.284 194.586,289.864 194.808 C 291.056 195.266,289.735 195.625,286.857 195.625 C 284.001 195.625,282.945 195.924,284.297 196.349 C 284.598 196.444,285.472 196.751,286.240 197.033 C 287.819 197.611,289.688 197.433,289.688 196.705 C 289.688 196.081,291.132 196.117,291.374 196.747 C 291.654 197.477,291.291 197.863,290.521 197.656 C 289.932 197.498,289.946 197.536,290.625 197.945 C 291.533 198.492,292.382 198.569,292.654 198.129 C 292.766 197.947,292.612 197.895,292.282 198.002 C 291.811 198.154,291.796 198.129,292.188 197.847 C 292.445 197.661,293.078 197.505,293.594 197.500 C 294.634 197.489,295.921 196.889,294.922 196.880 C 294.621 196.877,294.375 196.723,294.375 196.538 C 294.375 196.329,294.716 196.275,295.268 196.397 C 296.198 196.601,298.425 195.491,298.384 194.844 C 298.314 193.767,298.491 193.437,299.141 193.433 C 299.602 193.430,300.435 192.773,301.563 191.522 C 302.508 190.473,304.135 188.752,305.178 187.698 C 306.221 186.644,307.534 185.183,308.096 184.452 C 308.658 183.720,309.246 183.201,309.402 183.298 C 309.559 183.395,309.688 183.313,309.688 183.117 C 309.688 182.615,311.615 180.625,312.100 180.625 C 312.320 180.625,312.465 180.449,312.422 180.234 C 312.379 180.020,312.530 179.882,312.758 179.930 C 312.985 179.977,313.084 179.874,312.977 179.700 C 312.765 179.358,314.774 177.188,315.302 177.188 C 315.480 177.188,315.625 176.916,315.625 176.584 C 315.625 176.251,315.906 175.890,316.250 175.781 C 316.594 175.672,316.875 175.477,316.875 175.347 C 316.875 174.929,321.299 169.847,321.755 169.742 C 321.997 169.686,322.121 169.520,322.030 169.373 C 321.939 169.226,322.120 168.920,322.432 168.693 C 322.745 168.467,323.191 167.812,323.424 167.239 C 323.657 166.666,324.064 165.980,324.329 165.716 C 324.593 165.452,324.835 165.007,324.868 164.727 C 324.900 164.448,325.088 162.953,325.287 161.406 C 325.841 157.091,325.282 154.343,323.105 150.681 C 322.766 150.110,322.666 149.748,322.885 149.877 C 323.103 150.005,322.527 149.426,321.606 148.589 C 319.825 146.972,316.563 143.055,316.563 142.535 C 316.563 142.364,316.400 142.124,316.202 142.001 C 315.959 141.851,315.924 141.922,316.096 142.217 C 316.236 142.459,315.972 142.311,315.510 141.890 C 315.047 141.469,314.737 140.946,314.821 140.728 C 314.904 140.511,314.850 140.257,314.701 140.164 C 314.551 140.072,314.362 140.173,314.282 140.389 C 314.186 140.646,314.050 140.574,313.888 140.180 C 313.753 139.850,313.420 139.331,313.149 139.029 C 311.529 137.221,310.541 136.250,310.320 136.250 C 310.181 136.250,309.975 135.882,309.862 135.432 C 309.749 134.982,309.571 134.700,309.465 134.806 C 309.254 135.017,307.963 133.110,308.063 132.734 C 308.097 132.605,308.001 132.535,307.850 132.578 C 307.699 132.621,307.183 132.236,306.703 131.723 C 306.155 131.137,305.783 130.934,305.702 131.176 C 305.631 131.389,305.427 131.563,305.248 131.563 C 305.056 131.563,305.086 131.367,305.322 131.082 C 305.660 130.675,305.479 130.370,304.140 129.079 C 303.271 128.241,302.466 127.260,302.351 126.898 C 302.236 126.537,302.028 126.312,301.887 126.399 C 301.747 126.485,301.237 126.030,300.753 125.388 C 299.545 123.781,298.647 122.776,296.040 120.117 C 294.808 118.860,293.752 117.581,293.694 117.275 C 293.628 116.929,293.252 116.680,292.698 116.617 C 292.204 116.560,291.888 116.644,291.989 116.806 C 292.088 116.968,291.841 117.035,291.433 116.957 C 290.848 116.845,290.630 116.998,290.373 117.705 L 290.049 118.594 289.969 117.500 C 289.925 116.898,289.890 116.160,289.891 115.859 C 289.892 115.559,289.777 115.313,289.634 115.313 C 289.089 115.313,289.406 114.308,290.000 114.153 C 290.344 114.063,290.625 113.870,290.625 113.725 C 290.625 113.579,290.344 113.309,290.000 113.125 C 289.451 112.831,289.375 112.887,289.375 113.583 M290.938 115.000 C 291.121 115.344,291.413 115.625,291.584 115.625 C 291.785 115.625,291.778 115.402,291.563 115.000 C 291.379 114.656,291.087 114.375,290.916 114.375 C 290.715 114.375,290.722 114.598,290.938 115.000 M293.882 118.614 C 294.565 119.298,294.499 120.000,293.750 120.000 C 293.406 120.000,293.125 119.849,293.125 119.665 C 293.125 119.481,292.914 119.119,292.656 118.862 C 292.398 118.604,292.188 118.187,292.188 117.935 C 292.188 117.415,293.014 117.746,293.882 118.614 M291.507 119.792 C 291.566 120.093,291.409 120.313,291.135 120.313 C 290.555 120.313,290.204 119.803,290.479 119.359 C 290.762 118.901,291.386 119.164,291.507 119.792 M296.832 122.509 C 297.217 123.029,297.650 123.381,297.796 123.292 C 297.941 123.202,298.140 123.339,298.239 123.596 C 298.572 124.464,297.579 124.078,296.595 122.958 C 295.581 121.803,295.457 121.563,295.879 121.563 C 296.018 121.563,296.447 121.988,296.832 122.509 M284.375 150.313 C 284.375 150.715,284.533 150.937,284.766 150.859 C 284.980 150.788,285.156 150.542,285.156 150.313 C 285.156 150.083,284.980 149.837,284.766 149.766 C 284.533 149.688,284.375 149.910,284.375 150.313 M282.001 150.264 C 282.124 150.463,282.075 150.625,281.893 150.625 C 281.711 150.625,281.563 150.766,281.563 150.938 C 281.563 151.416,282.098 151.309,282.297 150.791 C 282.393 150.539,282.316 150.236,282.126 150.118 C 281.915 149.988,281.866 150.046,282.001 150.264 M284.375 152.813 C 284.375 153.005,284.234 153.075,284.063 152.969 C 283.891 152.863,283.750 152.916,283.750 153.088 C 283.750 153.615,284.198 153.707,284.606 153.265 C 284.850 153.001,284.879 152.775,284.684 152.654 C 284.514 152.549,284.375 152.620,284.375 152.813 M287.500 155.156 C 287.500 155.414,287.297 155.625,287.050 155.625 C 286.430 155.625,286.233 156.034,286.589 156.577 C 286.839 156.957,286.984 156.917,287.478 156.328 C 287.803 155.941,288.222 155.625,288.409 155.625 C 288.597 155.625,288.750 155.414,288.750 155.156 C 288.750 154.896,288.472 154.688,288.125 154.688 C 287.778 154.688,287.500 154.896,287.500 155.156 M288.447 158.828 C 288.442 159.473,288.297 160.000,288.125 160.000 C 287.953 160.000,287.817 160.246,287.822 160.547 C 287.831 161.035,287.884 161.027,288.313 160.469 C 288.578 160.125,288.935 159.882,289.108 159.930 C 289.432 160.019,289.213 158.993,288.722 158.125 C 288.539 157.803,288.454 158.023,288.447 158.828 M286.457 162.010 C 286.343 162.309,286.482 162.444,286.877 162.414 C 287.323 162.380,287.386 162.270,287.133 161.966 C 286.713 161.459,286.668 161.462,286.457 162.010 M284.865 163.414 C 284.347 163.987,284.348 164.011,284.895 163.931 C 285.211 163.885,285.514 163.614,285.570 163.330 C 285.701 162.657,285.532 162.677,284.865 163.414 M287.278 163.438 C 287.188 163.783,286.852 164.063,286.526 164.063 C 286.146 164.063,285.938 164.284,285.938 164.688 C 285.938 165.097,286.146 165.313,286.541 165.313 C 286.874 165.313,287.235 165.031,287.344 164.688 C 287.453 164.344,287.673 164.063,287.834 164.063 C 287.994 164.063,288.125 163.781,288.125 163.438 C 288.125 163.094,287.971 162.813,287.783 162.813 C 287.595 162.813,287.368 163.094,287.278 163.438 M283.336 165.125 C 283.235 165.389,283.277 165.682,283.430 165.776 C 283.838 166.029,284.185 165.310,283.827 164.952 C 283.627 164.752,283.457 164.812,283.336 165.125 M281.938 166.625 C 281.427 167.135,281.466 167.500,282.031 167.500 C 282.292 167.500,282.500 167.222,282.500 166.875 C 282.500 166.147,282.442 166.121,281.938 166.625 M283.623 168.127 C 282.358 169.786,282.272 170.527,283.476 169.406 C 283.863 169.045,284.290 168.750,284.423 168.750 C 284.846 168.750,285.242 167.678,285.032 167.101 C 284.866 166.644,284.614 166.828,283.623 168.127 M293.281 195.938 C 293.175 196.109,292.823 196.250,292.500 196.250 C 292.177 196.250,291.825 196.109,291.719 195.938 C 291.606 195.755,291.930 195.625,292.500 195.625 C 293.070 195.625,293.394 195.755,293.281 195.938 M282.024 197.176 C 282.247 197.536,284.428 198.176,284.656 197.948 C 284.744 197.860,284.506 197.707,284.127 197.607 C 283.748 197.508,283.438 197.303,283.438 197.151 C 283.438 196.999,283.078 196.875,282.638 196.875 C 282.198 196.875,281.922 197.010,282.024 197.176 " stroke="none" fill="#19d1cf" fill-rule="evenodd"></path><path id="path2" d="M124.219 101.460 C 120.609 102.281,116.367 104.497,115.000 106.276 C 114.749 106.602,106.442 115.985,102.188 120.748 C 100.039 123.153,97.103 126.465,95.662 128.107 C 93.446 130.634,89.707 134.842,88.594 136.064 C 88.422 136.253,86.594 138.305,84.532 140.625 C 82.470 142.946,80.698 144.914,80.594 145.000 C 76.643 148.280,73.750 154.265,73.750 159.157 C 73.750 164.577,75.270 167.683,80.739 173.438 C 82.237 175.014,86.676 179.976,90.938 184.837 C 93.702 187.992,116.869 213.983,117.662 214.820 C 117.837 215.005,119.801 217.195,122.025 219.688 C 130.392 229.062,131.033 229.726,131.304 229.307 C 131.482 229.034,131.539 229.112,131.485 229.554 C 131.390 230.337,136.452 236.043,136.962 235.727 C 137.168 235.600,137.220 235.716,137.098 236.032 C 136.990 236.313,137.024 236.618,137.174 236.710 C 137.323 236.803,137.365 236.491,137.266 236.017 C 137.168 235.544,137.034 226.121,136.970 215.078 C 136.869 197.705,136.792 195.000,136.395 195.000 C 136.144 195.000,135.938 194.785,135.938 194.521 C 135.938 194.258,135.727 193.962,135.469 193.863 C 135.120 193.729,135.000 193.174,135.000 191.695 C 135.000 190.056,135.082 189.739,135.469 189.887 C 135.727 189.986,135.938 189.926,135.938 189.754 C 135.938 189.582,135.727 189.361,135.469 189.262 C 135.211 189.163,135.000 188.840,135.000 188.544 C 135.000 188.055,135.039 188.058,135.424 188.585 C 135.694 188.955,136.042 189.089,136.387 188.957 C 136.979 188.730,136.870 187.916,136.266 188.055 C 136.014 188.112,135.962 187.916,136.106 187.461 C 136.281 186.911,136.222 186.819,135.801 186.980 C 135.487 187.101,135.358 187.054,135.476 186.863 C 135.647 186.587,134.784 185.464,131.597 181.811 C 131.186 181.340,130.694 181.044,130.503 181.153 C 130.312 181.261,130.250 181.245,130.365 181.117 C 130.480 180.989,130.317 180.580,130.003 180.208 C 127.407 177.135,126.932 176.592,115.044 163.130 C 113.301 161.156,111.875 159.376,111.875 159.175 C 111.875 158.866,117.981 151.723,125.461 143.281 C 126.527 142.078,128.222 140.109,129.229 138.906 C 130.235 137.703,131.699 136.049,132.482 135.230 L 133.906 133.740 139.219 133.479 C 142.372 133.324,143.737 133.177,142.578 133.117 C 139.162 132.940,136.627 132.545,136.385 132.153 C 136.290 132.000,136.503 131.875,136.857 131.875 C 137.210 131.875,137.500 131.734,137.500 131.563 C 137.500 131.391,137.331 131.250,137.125 131.250 C 136.361 131.250,137.460 130.531,138.344 130.452 C 139.667 130.335,139.653 130.242,138.281 130.034 L 137.031 129.844 136.949 119.922 C 136.868 110.158,136.876 110.000,137.496 110.000 C 138.071 110.000,138.125 109.797,138.125 107.627 C 138.125 105.517,138.194 105.236,138.750 105.091 C 140.005 104.762,139.328 104.375,137.500 104.375 C 136.458 104.375,135.625 104.236,135.625 104.063 C 135.625 103.891,136.047 103.750,136.563 103.750 C 137.653 103.750,137.833 103.220,136.797 103.060 C 136.158 102.961,137.552 101.840,138.278 101.869 C 139.131 101.903,138.988 101.757,137.969 101.554 C 136.657 101.292,125.298 101.215,124.219 101.460 M139.844 101.540 C 138.855 101.930,140.856 102.262,142.031 101.903 L 142.969 101.616 142.135 101.589 C 141.676 101.575,141.114 101.502,140.885 101.428 C 140.656 101.354,140.188 101.405,139.844 101.540 M140.000 130.250 C 140.000 130.387,140.352 130.500,140.781 130.500 C 141.211 130.500,141.563 130.387,141.563 130.250 C 141.563 130.113,141.211 130.000,140.781 130.000 C 140.352 130.000,140.000 130.113,140.000 130.250 M137.110 189.950 C 136.137 190.538,136.151 192.361,137.133 192.969 C 137.410 193.141,138.014 193.668,138.475 194.141 C 139.491 195.182,139.616 195.197,139.744 194.297 C 139.816 193.790,140.019 193.623,140.469 193.698 C 140.973 193.782,141.018 193.725,140.703 193.401 C 140.488 193.181,140.313 192.879,140.313 192.732 C 140.313 192.584,140.488 192.569,140.703 192.698 C 140.972 192.859,140.961 192.768,140.668 192.407 C 140.240 191.880,139.521 191.978,139.855 192.518 C 139.953 192.676,139.815 192.722,139.549 192.620 C 139.284 192.518,139.159 192.285,139.272 192.102 C 139.403 191.889,139.278 191.845,138.923 191.982 C 138.510 192.140,138.414 192.073,138.549 191.722 C 138.792 191.088,138.230 191.117,137.872 191.757 C 137.670 192.119,137.608 191.918,137.657 191.054 C 137.744 189.501,137.719 189.538,138.359 190.040 C 138.855 190.429,138.866 190.418,138.477 189.922 C 138.241 189.621,138.031 189.388,138.009 189.404 C 137.987 189.419,137.582 189.665,137.110 189.950 M141.476 193.941 C 141.352 194.065,141.252 194.319,141.255 194.505 C 141.257 194.691,141.396 194.633,141.563 194.375 C 141.826 193.967,141.866 193.972,141.870 194.415 C 141.873 194.695,142.078 195.092,142.326 195.298 C 142.695 195.604,142.769 195.557,142.729 195.037 C 142.703 194.688,142.619 194.464,142.544 194.540 C 142.468 194.616,142.247 194.461,142.054 194.196 C 141.860 193.932,141.600 193.817,141.476 193.941 M134.767 230.979 C 134.624 231.526,134.353 231.720,134.479 231.185 C 134.508 231.064,134.253 230.761,133.912 230.512 C 133.320 230.079,133.329 230.066,134.110 230.215 C 134.734 230.335,134.889 230.514,134.767 230.979 M138.750 235.246 C 138.750 235.381,139.031 235.513,139.375 235.539 C 139.719 235.565,140.000 235.454,140.000 235.293 C 140.000 235.132,139.719 235.000,139.375 235.000 C 139.031 235.000,138.750 235.111,138.750 235.246 M138.657 238.333 C 139.227 239.204,139.527 239.306,139.084 238.479 C 138.913 238.157,138.837 237.829,138.917 237.749 C 138.997 237.670,138.864 237.604,138.621 237.604 C 138.250 237.604,138.256 237.722,138.657 238.333 " stroke="none" fill="#8661cb" fill-rule="evenodd"></path><path id="path3" d="M262.578 101.795 C 259.175 101.934,259.238 102.500,262.656 102.500 C 264.219 102.500,265.313 102.629,265.313 102.813 C 265.313 102.984,265.828 103.125,266.458 103.125 C 267.759 103.125,267.754 103.323,266.448 103.559 C 265.964 103.647,265.333 103.573,265.046 103.394 C 264.692 103.173,263.821 103.165,262.340 103.369 C 261.131 103.536,260.618 103.688,261.190 103.710 C 261.792 103.733,262.144 103.881,262.031 104.063 C 261.787 104.457,260.088 104.474,259.948 104.084 C 259.891 103.924,259.380 103.888,258.814 104.006 C 257.815 104.212,257.846 104.237,259.829 104.804 L 261.875 105.390 261.875 117.689 L 261.875 129.988 261.152 130.170 C 260.754 130.269,260.297 130.316,260.136 130.273 C 259.975 130.230,259.211 130.318,258.438 130.468 C 256.622 130.820,257.713 131.139,261.094 131.244 C 263.831 131.329,265.610 131.796,263.378 131.844 C 261.738 131.879,261.114 132.376,262.329 132.680 C 262.764 132.790,263.043 133.005,262.948 133.158 C 262.853 133.312,263.206 133.438,263.732 133.438 C 264.257 133.438,264.688 133.301,264.688 133.135 C 264.688 132.290,267.376 134.309,268.091 135.689 C 268.588 136.650,269.375 137.084,269.375 136.396 C 269.375 136.144,269.507 135.938,269.669 135.938 C 270.212 135.938,270.337 136.531,269.932 137.184 C 269.598 137.724,269.609 137.883,270.000 138.143 C 270.258 138.315,270.612 138.557,270.787 138.681 C 271.217 138.985,275.313 143.953,275.313 144.170 C 275.313 144.264,276.368 145.435,277.657 146.771 C 278.947 148.107,280.082 149.453,280.180 149.761 C 280.277 150.069,280.489 150.240,280.650 150.141 C 280.811 150.041,281.047 150.239,281.175 150.581 C 281.378 151.127,284.557 154.769,286.924 157.167 C 287.677 157.930,287.948 158.630,287.848 159.553 C 287.829 159.737,287.395 160.370,286.885 160.959 C 286.374 161.549,285.820 162.193,285.652 162.390 C 285.485 162.587,285.209 162.798,285.041 162.859 C 284.872 162.919,284.689 163.180,284.633 163.438 C 284.577 163.695,284.391 164.007,284.219 164.131 C 284.047 164.255,283.906 164.639,283.906 164.984 C 283.906 165.330,283.766 165.580,283.594 165.541 C 283.422 165.501,283.318 165.328,283.364 165.156 C 283.409 164.984,283.234 165.117,282.973 165.450 C 282.713 165.784,282.500 166.398,282.500 166.815 C 282.500 167.419,282.373 167.540,281.875 167.409 C 281.531 167.320,281.250 167.373,281.250 167.529 C 281.250 167.685,281.055 167.813,280.817 167.813 C 280.191 167.813,279.274 169.281,279.774 169.483 C 280.020 169.583,279.985 169.647,279.676 169.663 C 279.114 169.692,276.429 172.395,276.140 173.223 C 276.026 173.549,275.789 173.695,275.582 173.567 C 275.327 173.410,275.282 173.587,275.429 174.172 C 275.595 174.832,275.525 175.003,275.084 175.013 C 274.352 175.030,273.030 177.845,272.890 179.688 C 272.831 180.461,272.705 181.835,272.611 182.742 C 272.516 183.648,272.545 184.632,272.675 184.929 C 272.805 185.226,272.884 185.638,272.851 185.845 C 272.819 186.051,273.007 186.737,273.271 187.367 C 273.534 187.998,273.750 188.817,273.750 189.187 C 273.750 189.557,274.488 190.793,275.391 191.933 C 276.293 193.073,277.238 194.300,277.492 194.660 C 277.745 195.020,278.177 195.386,278.452 195.473 C 278.727 195.561,279.223 195.877,279.554 196.175 C 281.756 198.163,286.169 199.263,290.309 198.855 L 292.023 198.686 290.934 198.083 C 290.334 197.750,290.148 197.559,290.521 197.658 C 291.292 197.863,291.654 197.476,291.374 196.747 C 291.132 196.117,289.688 196.081,289.688 196.705 C 289.688 197.433,287.819 197.611,286.240 197.033 C 285.472 196.751,284.598 196.444,284.297 196.349 C 282.945 195.924,284.001 195.625,286.857 195.625 C 289.735 195.625,291.056 195.266,289.864 194.808 C 289.284 194.586,289.112 185.313,289.688 185.313 C 290.088 185.313,290.107 179.778,289.707 179.635 C 289.227 179.465,289.130 164.374,289.609 164.375 C 290.267 164.375,290.044 163.518,289.219 162.868 C 288.085 161.977,288.169 160.938,289.375 160.938 C 290.293 160.938,290.313 160.904,290.313 159.361 C 290.313 158.034,290.226 157.800,289.766 157.877 C 288.901 158.022,288.810 156.076,289.671 155.851 C 290.406 155.659,290.551 154.688,289.844 154.688 C 289.454 154.688,289.375 154.080,289.375 151.094 C 289.375 147.708,289.339 147.500,288.750 147.500 C 288.177 147.500,288.125 147.292,288.125 145.000 C 288.125 142.708,288.177 142.500,288.750 142.500 C 289.365 142.500,289.375 142.292,289.375 128.943 C 289.375 115.648,289.363 115.382,288.750 115.222 C 288.406 115.132,288.125 114.905,288.125 114.717 C 288.125 114.529,288.406 114.375,288.750 114.375 C 289.211 114.375,289.375 114.167,289.375 113.583 C 289.375 112.865,289.441 112.824,290.078 113.143 C 290.465 113.337,290.148 112.937,289.375 112.253 C 288.602 111.570,287.959 110.889,287.946 110.740 C 287.915 110.362,284.279 106.560,283.951 106.561 C 283.804 106.562,283.764 106.773,283.863 107.031 C 283.991 107.366,283.833 107.500,283.308 107.500 C 282.510 107.500,282.028 106.480,282.460 105.707 C 282.660 105.350,282.783 105.371,283.148 105.820 C 283.550 106.313,283.532 106.344,282.969 106.134 C 282.467 105.947,282.421 105.978,282.734 106.294 C 282.998 106.560,283.228 106.585,283.442 106.371 C 283.902 105.911,282.769 104.966,279.918 103.433 C 276.656 101.679,273.262 101.359,262.578 101.795 M266.801 102.090 C 266.502 102.168,265.939 102.171,265.551 102.096 C 265.162 102.021,265.406 101.957,266.094 101.954 C 266.781 101.950,267.099 102.011,266.801 102.090 M275.794 102.833 C 276.081 103.297,275.811 103.489,275.203 103.256 C 274.921 103.148,274.769 102.934,274.864 102.780 C 275.098 102.401,275.543 102.427,275.794 102.833 M277.969 103.750 L 278.594 104.019 277.969 104.036 C 277.625 104.045,277.133 103.917,276.875 103.750 C 276.254 103.349,277.034 103.349,277.969 103.750 M286.873 111.953 C 286.874 112.254,286.669 112.500,286.417 112.500 C 286.165 112.500,285.797 112.804,285.598 113.175 C 285.091 114.124,284.742 113.350,284.921 111.672 L 285.060 110.376 285.965 110.891 C 286.463 111.174,286.872 111.652,286.873 111.953 M288.465 112.285 C 288.278 112.472,288.125 112.844,288.125 113.113 C 288.125 113.937,286.550 115.428,286.135 114.996 C 285.869 114.719,285.956 114.509,286.484 114.151 C 286.871 113.888,287.188 113.476,287.188 113.233 C 287.188 112.991,287.398 112.712,287.656 112.613 C 287.914 112.514,288.125 112.229,288.125 111.979 C 288.125 111.730,288.278 111.620,288.465 111.736 C 288.709 111.887,288.709 112.041,288.465 112.285 M290.078 114.071 C 289.418 114.338,289.069 115.313,289.634 115.313 C 289.777 115.313,289.892 115.559,289.891 115.859 C 289.890 116.160,289.925 116.898,289.969 117.500 L 290.049 118.594 290.373 117.705 C 290.630 116.998,290.848 116.845,291.433 116.957 C 291.837 117.034,292.100 116.987,292.017 116.852 C 291.934 116.717,292.150 116.562,292.497 116.507 C 293.067 116.416,293.014 116.279,291.955 115.097 C 290.956 113.983,290.676 113.830,290.078 114.071 M291.563 115.000 C 291.778 115.402,291.785 115.625,291.584 115.625 C 291.413 115.625,291.121 115.344,290.938 115.000 C 290.722 114.598,290.715 114.375,290.916 114.375 C 291.087 114.375,291.379 114.656,291.563 115.000 M293.831 117.734 C 294.037 118.572,293.961 118.590,292.958 117.933 C 292.041 117.332,291.817 118.023,292.656 118.862 C 292.914 119.119,293.125 119.481,293.125 119.665 C 293.125 119.849,293.421 120.000,293.784 120.000 C 294.331 120.000,294.409 119.867,294.247 119.219 C 293.995 118.216,294.270 118.233,295.452 119.295 C 296.094 119.872,295.997 119.695,295.156 118.753 C 294.469 117.983,293.850 117.281,293.782 117.192 C 293.714 117.104,293.736 117.348,293.831 117.734 M290.479 119.359 C 290.204 119.803,290.555 120.313,291.135 120.313 C 291.409 120.313,291.566 120.093,291.507 119.792 C 291.386 119.164,290.762 118.901,290.479 119.359 M295.625 121.708 C 295.625 121.788,296.061 122.350,296.595 122.958 C 297.579 124.078,298.572 124.464,298.239 123.596 C 298.140 123.339,297.941 123.202,297.796 123.292 C 297.650 123.381,297.217 123.029,296.832 122.509 C 296.216 121.676,295.625 121.283,295.625 121.708 M300.762 125.415 C 301.243 126.046,301.700 126.563,301.777 126.563 C 301.994 126.563,300.641 124.734,300.241 124.487 C 300.046 124.367,300.280 124.784,300.762 125.415 M267.500 131.530 C 267.500 131.672,267.148 131.721,266.719 131.639 C 265.946 131.491,265.752 131.227,266.135 130.844 C 266.375 130.604,267.500 131.169,267.500 131.530 M268.750 133.750 C 268.750 134.266,268.607 134.688,268.433 134.688 C 268.258 134.688,268.147 134.266,268.187 133.750 C 268.226 133.234,268.369 132.813,268.504 132.813 C 268.639 132.813,268.750 133.234,268.750 133.750 M272.962 136.906 C 273.130 137.070,272.778 137.039,272.180 136.837 C 270.781 136.364,270.509 136.098,271.719 136.384 C 272.234 136.507,272.794 136.741,272.962 136.906 M314.688 140.831 C 314.688 141.002,315.074 141.482,315.547 141.899 L 316.406 142.656 315.625 141.719 C 315.195 141.203,314.809 140.723,314.766 140.651 C 314.723 140.579,314.688 140.660,314.688 140.831 M320.156 147.188 C 321.003 148.047,321.766 148.750,321.852 148.750 C 321.937 148.750,321.315 148.047,320.469 147.188 C 319.622 146.328,318.859 145.625,318.773 145.625 C 318.688 145.625,319.310 146.328,320.156 147.188 M285.156 150.313 C 285.156 150.542,284.980 150.788,284.766 150.859 C 284.533 150.937,284.375 150.715,284.375 150.313 C 284.375 149.910,284.533 149.688,284.766 149.766 C 284.980 149.837,285.156 150.083,285.156 150.313 M282.297 150.791 C 282.098 151.309,281.563 151.416,281.563 150.938 C 281.563 150.766,281.711 150.625,281.893 150.625 C 282.075 150.625,282.124 150.463,282.001 150.264 C 281.866 150.046,281.915 149.988,282.126 150.118 C 282.316 150.236,282.393 150.539,282.297 150.791 M284.606 153.265 C 284.198 153.707,283.750 153.615,283.750 153.088 C 283.750 152.916,283.891 152.863,284.063 152.969 C 284.234 153.075,284.375 153.005,284.375 152.813 C 284.375 152.620,284.514 152.549,284.684 152.654 C 284.879 152.775,284.850 153.001,284.606 153.265 M288.750 155.156 C 288.750 155.414,288.597 155.625,288.409 155.625 C 288.222 155.625,287.803 155.941,287.478 156.328 C 286.984 156.917,286.839 156.957,286.589 156.577 C 286.233 156.034,286.430 155.625,287.050 155.625 C 287.297 155.625,287.500 155.414,287.500 155.156 C 287.500 154.896,287.778 154.688,288.125 154.688 C 288.472 154.688,288.750 154.896,288.750 155.156 M289.204 159.305 C 289.335 159.730,289.296 159.981,289.108 159.930 C 288.935 159.882,288.578 160.125,288.313 160.469 C 287.884 161.027,287.831 161.035,287.822 160.547 C 287.817 160.246,287.953 160.000,288.125 160.000 C 288.297 160.000,288.442 159.473,288.447 158.828 C 288.457 157.627,288.747 157.810,289.204 159.305 M325.391 161.094 C 325.395 161.781,325.459 162.026,325.534 161.637 C 325.608 161.248,325.605 160.686,325.527 160.387 C 325.449 160.088,325.388 160.406,325.391 161.094 M287.133 161.966 C 287.386 162.270,287.323 162.380,286.877 162.414 C 286.482 162.444,286.343 162.309,286.457 162.010 C 286.668 161.462,286.713 161.459,287.133 161.966 M285.510 163.600 C 285.404 163.876,285.168 164.010,284.987 163.898 C 284.760 163.758,284.774 163.554,285.029 163.246 C 285.483 162.699,285.773 162.913,285.510 163.600 M288.125 163.438 C 288.125 163.781,287.994 164.063,287.834 164.063 C 287.673 164.063,287.453 164.344,287.344 164.688 C 287.235 165.031,286.874 165.313,286.541 165.313 C 286.146 165.313,285.938 165.097,285.938 164.688 C 285.938 164.284,286.146 164.063,286.526 164.063 C 286.852 164.063,287.188 163.783,287.278 163.438 C 287.368 163.094,287.595 162.813,287.783 162.813 C 287.971 162.813,288.125 163.094,288.125 163.438 M284.950 168.203 C 284.793 168.504,284.556 168.750,284.423 168.750 C 284.290 168.750,283.863 169.045,283.476 169.406 C 282.272 170.527,282.358 169.786,283.623 168.127 C 284.804 166.578,285.766 166.633,284.950 168.203 M308.125 184.375 C 307.580 185.063,307.205 185.625,307.291 185.625 C 307.377 185.625,307.893 185.063,308.438 184.375 C 308.982 183.688,309.357 183.125,309.271 183.125 C 309.185 183.125,308.670 183.688,308.125 184.375 M300.625 192.500 C 300.212 193.080,299.681 193.438,299.234 193.438 C 298.560 193.438,297.944 194.402,298.356 194.814 C 298.553 195.011,300.867 192.875,301.286 192.109 C 301.764 191.235,301.353 191.477,300.625 192.500 M291.719 195.938 C 291.825 196.109,292.177 196.250,292.500 196.250 C 292.823 196.250,293.175 196.109,293.281 195.938 C 293.394 195.755,293.070 195.625,292.500 195.625 C 291.930 195.625,291.606 195.755,291.719 195.938 M296.855 196.118 C 296.562 196.471,296.154 196.555,295.411 196.416 C 294.775 196.297,294.375 196.348,294.375 196.548 C 294.375 196.869,295.013 197.008,295.938 196.888 C 296.389 196.830,297.833 195.625,297.451 195.625 C 297.348 195.625,297.080 195.847,296.855 196.118 M283.438 197.151 C 283.438 197.303,283.748 197.508,284.127 197.607 C 284.506 197.707,284.744 197.860,284.656 197.948 C 284.428 198.176,282.247 197.536,282.024 197.176 C 281.922 197.010,282.198 196.875,282.638 196.875 C 283.078 196.875,283.438 196.999,283.438 197.151 M293.521 197.481 C 292.794 197.600,292.104 197.792,291.987 197.909 C 291.666 198.229,294.487 197.793,294.828 197.469 C 294.991 197.314,295.062 197.205,294.984 197.227 C 294.907 197.248,294.249 197.363,293.521 197.481 " stroke="none" fill="#20c3cf" fill-rule="evenodd"></path><path id="path4" d="M205.625 101.246 C 220.524 101.385,222.045 101.436,214.531 101.541 C 209.547 101.610,205.996 101.723,206.641 101.790 C 207.285 101.858,207.813 102.035,207.813 102.185 C 207.813 102.334,208.129 102.517,208.516 102.592 C 208.902 102.666,208.480 102.764,207.578 102.809 C 206.676 102.854,205.797 102.926,205.625 102.969 C 205.453 103.012,205.214 103.064,205.094 103.086 C 204.973 103.107,205.013 103.263,205.182 103.432 C 205.357 103.607,207.842 103.756,210.948 103.777 C 213.950 103.798,216.688 103.931,217.031 104.073 C 217.398 104.224,215.263 104.353,211.875 104.384 C 205.476 104.443,203.310 104.732,206.328 105.124 L 208.125 105.357 208.125 117.522 L 208.125 129.688 207.344 129.727 C 206.914 129.748,206.422 129.801,206.250 129.844 C 206.078 129.887,205.270 129.957,204.453 130.000 L 202.969 130.078 204.375 130.328 C 205.148 130.466,206.730 130.589,207.891 130.602 C 211.198 130.638,210.359 131.168,206.641 131.392 C 204.793 131.503,203.000 131.638,202.656 131.692 C 201.760 131.832,208.189 131.949,212.969 131.878 C 215.203 131.846,216.914 131.937,216.771 132.081 C 216.510 132.344,215.943 132.388,211.875 132.461 C 210.242 132.490,209.688 132.609,209.688 132.931 C 209.688 133.291,213.024 133.395,229.922 133.562 C 262.391 133.882,265.341 133.953,265.779 134.427 C 267.155 135.918,271.774 141.158,273.699 143.411 C 274.960 144.886,276.501 146.656,277.124 147.344 C 282.155 152.895,287.188 158.822,287.187 159.197 C 287.187 159.647,286.286 160.682,280.613 166.744 C 273.181 174.686,271.778 177.347,271.821 183.413 C 271.898 194.193,282.277 201.886,292.697 198.886 C 296.696 197.735,298.690 196.267,303.125 191.205 C 305.236 188.796,307.944 185.810,310.613 182.947 C 311.724 181.756,313.413 179.867,314.367 178.750 C 316.379 176.393,318.716 173.804,320.404 172.061 C 322.408 169.992,325.000 166.292,325.000 165.501 C 325.000 164.964,324.305 165.782,323.616 167.131 C 323.205 167.936,322.188 169.308,321.356 170.180 C 320.524 171.052,319.211 172.516,318.438 173.433 C 317.664 174.350,316.715 175.384,316.328 175.731 C 315.941 176.079,315.625 176.478,315.625 176.620 C 315.625 176.761,315.063 177.385,314.375 178.006 C 313.688 178.627,313.125 179.299,313.125 179.499 C 313.125 179.698,312.827 180.069,312.462 180.322 C 311.576 180.935,311.438 181.076,308.906 183.935 C 307.703 185.294,305.945 187.186,305.000 188.141 C 302.689 190.474,298.619 194.970,298.490 195.333 C 298.432 195.494,298.203 195.625,297.981 195.625 C 297.759 195.625,297.407 195.829,297.200 196.078 C 296.119 197.381,290.937 199.048,287.969 199.047 C 284.739 199.047,279.338 196.782,277.574 194.688 C 275.380 192.083,273.750 189.738,273.750 189.187 C 273.750 188.817,273.534 187.998,273.271 187.367 C 273.007 186.737,272.819 186.051,272.851 185.845 C 272.884 185.638,272.805 185.226,272.675 184.929 C 272.545 184.632,272.516 183.648,272.611 182.742 C 272.705 181.835,272.831 180.461,272.890 179.688 C 273.030 177.845,274.352 175.030,275.084 175.013 C 275.525 175.003,275.595 174.832,275.429 174.172 C 275.283 173.589,275.327 173.410,275.580 173.566 C 275.793 173.698,276.053 173.494,276.221 173.066 C 276.377 172.669,277.088 171.781,277.803 171.094 C 278.517 170.406,279.386 169.387,279.733 168.828 C 280.080 168.270,280.563 167.813,280.807 167.813 C 281.051 167.813,281.250 167.683,281.250 167.524 C 281.250 167.366,281.953 166.487,282.812 165.571 C 283.671 164.656,284.452 163.667,284.547 163.375 C 284.642 163.083,284.994 162.757,285.328 162.651 C 285.663 162.545,285.938 162.352,285.938 162.223 C 285.938 162.093,286.339 161.538,286.830 160.988 C 287.958 159.724,287.975 158.307,286.875 157.139 C 283.492 153.546,281.370 151.106,281.175 150.581 C 281.047 150.239,280.811 150.041,280.650 150.141 C 280.489 150.240,280.277 150.069,280.180 149.761 C 280.082 149.453,278.947 148.107,277.657 146.771 C 276.368 145.435,275.313 144.264,275.313 144.170 C 275.313 143.953,271.217 138.985,270.787 138.681 C 270.612 138.557,270.258 138.315,270.000 138.143 C 269.609 137.883,269.598 137.724,269.932 137.184 C 270.337 136.531,270.212 135.938,269.669 135.938 C 269.507 135.938,269.375 136.144,269.375 136.396 C 269.375 137.084,268.588 136.650,268.091 135.689 C 267.376 134.309,264.688 132.290,264.688 133.135 C 264.688 133.301,264.257 133.438,263.732 133.438 C 263.206 133.438,262.853 133.312,262.948 133.158 C 263.043 133.005,262.764 132.790,262.329 132.680 C 261.114 132.376,261.738 131.879,263.378 131.844 C 265.610 131.796,263.831 131.329,261.094 131.244 C 257.713 131.139,256.622 130.820,258.438 130.468 C 259.211 130.318,259.975 130.230,260.136 130.273 C 260.297 130.316,260.754 130.269,261.152 130.170 L 261.875 129.988 261.875 117.689 L 261.875 105.390 259.829 104.804 C 257.846 104.237,257.815 104.212,258.814 104.006 C 259.380 103.888,259.891 103.924,259.948 104.084 C 260.088 104.474,261.787 104.457,262.031 104.063 C 262.144 103.881,261.792 103.733,261.190 103.710 C 260.618 103.688,261.131 103.536,262.340 103.369 C 263.821 103.165,264.692 103.173,265.046 103.394 C 265.333 103.573,265.964 103.647,266.448 103.559 C 267.754 103.323,267.759 103.125,266.458 103.125 C 265.828 103.125,265.313 102.984,265.313 102.813 C 265.313 102.629,264.219 102.500,262.656 102.500 C 258.065 102.500,259.769 101.952,265.078 101.721 C 276.610 101.219,279.871 102.174,285.141 107.592 C 286.679 109.174,287.914 110.563,287.884 110.678 C 287.854 110.793,288.353 111.346,288.993 111.906 C 289.633 112.466,291.611 114.622,293.390 116.697 C 295.168 118.771,297.418 121.323,298.390 122.368 C 299.361 123.413,300.930 125.157,301.875 126.244 C 302.820 127.331,303.945 128.599,304.375 129.063 C 304.805 129.527,305.648 130.487,306.250 131.196 C 306.852 131.906,307.520 132.489,307.734 132.493 C 307.949 132.497,308.125 132.645,308.125 132.822 C 308.125 133.229,311.060 136.699,313.296 138.934 C 314.233 139.872,315.000 140.736,315.000 140.854 C 315.000 140.973,315.363 141.427,315.806 141.863 C 316.249 142.299,317.034 143.219,317.549 143.906 C 318.064 144.594,319.530 146.238,320.805 147.560 C 322.081 148.882,323.125 150.137,323.125 150.348 C 323.125 150.559,323.339 150.969,323.602 151.259 C 325.186 153.009,325.973 159.143,325.204 163.750 L 324.969 165.156 325.529 164.063 C 325.981 163.179,326.087 162.208,326.081 159.006 L 326.074 155.043 324.686 152.287 C 323.922 150.771,322.645 148.828,321.847 147.969 C 321.050 147.109,319.569 145.412,318.558 144.196 C 316.755 142.030,312.542 137.289,310.877 135.553 C 310.414 135.070,309.735 134.291,309.367 133.822 C 309.000 133.353,308.141 132.372,307.459 131.642 C 306.776 130.912,305.233 129.155,304.029 127.736 C 302.825 126.317,301.238 124.523,300.502 123.750 C 299.426 122.620,295.718 118.422,291.529 113.594 C 283.725 104.597,282.780 103.752,278.578 101.999 L 276.406 101.094 232.031 101.086 C 206.438 101.081,195.262 101.149,205.625 101.246 M227.270 101.470 C 226.886 101.544,226.182 101.546,225.707 101.474 C 225.232 101.402,225.547 101.342,226.406 101.339 C 227.266 101.337,227.654 101.396,227.270 101.470 M265.551 102.096 C 265.939 102.171,266.502 102.168,266.801 102.090 C 267.099 102.011,266.781 101.950,266.094 101.954 C 265.406 101.957,265.162 102.021,265.551 102.096 M274.864 102.780 C 274.769 102.934,274.921 103.148,275.203 103.256 C 275.811 103.489,276.081 103.297,275.794 102.833 C 275.543 102.427,275.098 102.401,274.864 102.780 M276.875 103.750 C 277.133 103.917,277.625 104.045,277.969 104.036 L 278.594 104.019 277.969 103.750 C 277.034 103.349,276.254 103.349,276.875 103.750 M266.135 130.844 C 265.752 131.227,265.946 131.491,266.719 131.639 C 267.148 131.721,267.500 131.672,267.500 131.530 C 267.500 131.169,266.375 130.604,266.135 130.844 M268.187 133.750 C 268.147 134.266,268.258 134.688,268.433 134.688 C 268.607 134.688,268.750 134.266,268.750 133.750 C 268.750 133.234,268.639 132.813,268.504 132.813 C 268.369 132.813,268.226 133.234,268.187 133.750 M270.938 136.316 C 271.023 136.400,271.583 136.635,272.180 136.837 C 272.778 137.039,273.130 137.070,272.962 136.906 C 272.794 136.741,272.234 136.507,271.719 136.384 C 271.203 136.262,270.852 136.231,270.938 136.316 M232.969 229.063 C 233.450 229.312,233.245 229.350,232.079 229.226 C 230.151 229.022,228.610 229.337,229.543 229.744 C 230.014 229.950,229.938 229.980,229.219 229.877 C 228.703 229.802,227.859 229.942,227.344 230.188 C 226.828 230.433,226.652 230.566,226.953 230.483 C 227.813 230.246,227.592 230.918,226.698 231.258 C 225.593 231.678,225.482 231.644,225.977 231.036 C 226.339 230.591,226.236 230.603,225.320 231.114 C 224.076 231.807,217.483 238.395,217.538 238.891 C 217.618 239.614,217.483 240.000,217.149 240.000 C 216.914 240.000,216.935 239.820,217.213 239.453 C 217.440 239.152,217.036 239.462,216.313 240.142 C 215.012 241.366,214.422 242.183,215.627 241.092 C 216.756 240.070,216.638 240.852,215.467 242.148 C 214.779 242.909,214.417 243.564,214.557 243.791 C 214.714 244.046,214.630 244.107,214.299 243.980 C 213.698 243.750,212.940 244.541,212.470 245.889 C 212.274 246.453,211.733 247.094,211.238 247.350 C 210.753 247.601,210.264 248.099,210.150 248.458 C 210.036 248.816,209.861 249.028,209.761 248.927 C 209.536 248.703,208.422 250.348,208.602 250.638 C 208.673 250.753,208.313 251.314,207.803 251.886 C 207.293 252.457,206.875 253.040,206.875 253.181 C 206.875 253.322,206.656 253.438,206.389 253.438 C 205.963 253.438,205.972 253.555,206.456 254.375 C 206.761 254.891,207.261 255.313,207.567 255.313 C 208.024 255.313,208.575 291.078,208.183 295.327 C 208.151 295.675,209.610 295.453,210.116 295.033 C 210.607 294.626,210.607 294.560,210.109 294.010 C 209.686 293.542,209.656 293.345,209.966 293.039 C 210.273 292.736,210.440 292.771,210.761 293.207 C 211.127 293.701,211.209 293.708,211.571 293.271 C 211.876 292.904,211.886 292.698,211.612 292.424 C 211.102 291.914,211.162 291.250,211.719 291.250 C 211.977 291.250,212.188 291.391,212.188 291.563 C 212.188 292.061,213.008 291.924,213.477 291.348 C 213.847 290.894,213.840 290.845,213.426 291.000 C 213.104 291.120,212.946 290.990,212.946 290.603 C 212.946 290.157,213.143 290.051,213.823 290.130 C 214.306 290.186,214.772 290.116,214.860 289.973 C 214.948 289.831,215.204 289.785,215.429 289.872 C 215.653 289.958,216.036 289.785,216.278 289.487 C 216.668 289.008,216.656 288.969,216.172 289.150 C 215.542 289.387,215.452 289.048,216.000 288.500 C 216.453 288.047,216.989 288.000,216.719 288.438 C 216.444 288.882,216.849 288.825,217.288 288.358 C 217.978 287.624,218.617 286.671,218.126 287.109 C 217.543 287.629,217.188 287.603,217.188 287.042 C 217.188 286.790,217.504 286.421,217.891 286.222 C 218.277 286.023,218.945 285.561,219.375 285.195 L 220.156 284.531 219.453 285.333 C 218.010 286.977,218.813 286.544,220.391 284.827 C 222.007 283.067,222.607 282.204,221.916 282.631 C 221.476 282.903,221.466 282.639,221.886 281.854 C 222.064 281.522,222.433 281.250,222.706 281.250 C 223.111 281.250,223.131 281.336,222.813 281.719 C 222.599 281.977,222.515 282.188,222.628 282.188 C 222.921 282.188,224.836 279.956,224.886 279.556 C 224.909 279.370,224.944 279.028,224.964 278.795 C 224.984 278.561,225.194 278.445,225.431 278.536 C 225.672 278.629,226.326 278.209,226.915 277.585 C 227.495 276.971,227.775 276.580,227.538 276.715 C 227.251 276.879,227.152 276.826,227.242 276.555 C 227.317 276.331,227.637 276.110,227.954 276.064 C 228.621 275.966,229.105 275.322,228.837 274.889 C 228.736 274.725,228.802 274.683,228.983 274.795 C 229.434 275.074,232.992 271.033,232.878 270.372 C 232.814 270.003,232.865 269.960,233.048 270.228 C 233.242 270.512,233.462 270.431,233.894 269.915 C 234.215 269.532,235.231 268.400,236.150 267.399 C 237.069 266.399,237.727 265.428,237.612 265.242 C 237.497 265.055,237.547 264.992,237.724 265.101 C 237.900 265.210,238.959 264.283,240.078 263.040 C 241.197 261.798,242.727 260.096,243.478 259.258 C 244.229 258.421,245.226 257.311,245.693 256.791 C 246.161 256.272,246.455 255.705,246.348 255.531 C 246.240 255.356,246.308 255.312,246.502 255.431 C 246.884 255.668,248.821 252.556,248.557 252.129 C 248.471 251.989,248.536 251.875,248.702 251.875 C 249.724 251.875,250.601 245.590,250.045 242.252 C 249.436 238.591,245.520 232.261,244.323 233.001 C 244.112 233.131,244.051 233.084,244.174 232.885 C 244.289 232.699,243.959 232.246,243.441 231.878 C 242.924 231.509,242.500 231.287,242.500 231.385 C 242.500 231.483,242.227 231.289,241.893 230.956 C 241.018 230.080,237.408 229.040,234.688 228.879 C 232.948 228.776,232.505 228.824,232.969 229.063 M224.505 232.509 C 223.483 233.570,222.500 234.216,222.500 233.828 C 222.500 233.579,224.961 231.563,225.265 231.563 C 225.348 231.563,225.007 231.988,224.505 232.509 M221.563 235.303 C 221.563 235.587,218.485 238.750,218.209 238.750 C 218.139 238.750,218.816 237.906,219.713 236.875 C 221.404 234.931,221.563 234.796,221.563 235.303 M212.347 244.372 C 211.855 244.886,211.512 245.356,211.585 245.417 C 211.659 245.478,212.119 245.057,212.609 244.483 C 213.714 243.185,213.550 243.115,212.347 244.372 M209.375 247.656 C 208.616 248.430,208.130 249.049,208.294 249.033 C 208.585 249.004,211.151 246.250,210.887 246.250 C 210.814 246.250,210.134 246.883,209.375 247.656 M206.233 251.172 L 205.156 252.344 206.328 251.267 C 207.419 250.264,207.644 250.000,207.405 250.000 C 207.353 250.000,206.825 250.527,206.233 251.172 M210.000 254.255 C 210.000 255.275,209.931 255.367,209.297 255.197 C 208.910 255.093,208.277 255.007,207.891 255.004 C 207.504 255.002,207.188 254.873,207.188 254.717 C 207.188 254.561,207.442 254.500,207.753 254.581 C 208.139 254.682,208.434 254.475,208.684 253.927 C 209.242 252.703,210.000 252.892,210.000 254.255 M202.954 254.766 L 201.719 256.094 203.047 254.858 C 203.777 254.179,204.375 253.581,204.375 253.530 C 204.375 253.294,204.103 253.530,202.954 254.766 M203.438 256.816 C 202.066 257.030,201.666 258.438,202.976 258.438 C 203.542 258.438,203.854 258.204,204.079 257.613 C 204.445 256.650,204.452 256.657,203.438 256.816 M221.563 283.071 C 221.563 283.212,221.211 283.659,220.781 284.063 C 219.882 284.908,219.606 284.188,220.491 283.304 C 221.022 282.773,221.563 282.655,221.563 283.071 M216.922 285.469 C 216.922 285.632,216.771 285.816,216.586 285.878 C 216.401 285.939,216.250 285.755,216.250 285.469 C 216.250 285.182,216.401 284.998,216.586 285.060 C 216.771 285.121,216.922 285.305,216.922 285.469 M210.938 290.492 C 210.938 290.783,210.725 290.942,210.417 290.882 C 209.633 290.730,209.525 290.000,210.286 290.000 C 210.670 290.000,210.938 290.202,210.938 290.492 M213.887 291.641 L 212.969 292.656 213.984 291.738 C 214.543 291.234,215.000 290.777,215.000 290.723 C 215.000 290.481,214.742 290.694,213.887 291.641 M211.395 294.453 L 209.844 296.094 211.484 294.543 C 212.387 293.690,213.125 292.952,213.125 292.902 C 213.125 292.669,212.835 292.929,211.395 294.453 M205.859 296.060 C 205.130 296.614,205.168 296.771,206.090 297.002 C 207.003 297.232,208.132 296.632,207.904 296.038 C 207.702 295.510,206.568 295.522,205.859 296.060 M203.125 297.299 L 201.719 297.600 202.916 297.900 C 203.715 298.099,204.221 298.092,204.436 297.877 C 205.072 297.241,204.525 297.000,203.125 297.299 " stroke="none" fill="#37b2cb" fill-rule="evenodd"></path></g></svg>