
<svg xmlns="http://www.w3.org/2000/svg" xmlns:xlink="http://www.w3.org/1999/xlink" width="250px" height="250px" viewBox="0 0 250 250" version="1.1">
<defs>
<linearGradient id="linear0" gradientUnits="userSpaceOnUse" x1="159.192001" y1="-9.98489" x2="239.042007" y2="241.983002" gradientTransform="matrix(0.563063,0,0,0.561798,0,0)">
<stop offset="0" style="stop-color:rgb(1.176471%,72.156864%,100%);stop-opacity:1;"/>
<stop offset="1" style="stop-color:rgb(98.039216%,32.156864%,62.7451%);stop-opacity:1;"/>
</linearGradient>
<linearGradient id="linear1" gradientUnits="userSpaceOnUse" x1="215.518997" y1="-27.8377" x2="295.372009" y2="224.132004" gradientTransform="matrix(0.563063,0,0,0.561798,0,0)">
<stop offset="0" style="stop-color:rgb(1.176471%,72.156864%,100%);stop-opacity:1;"/>
<stop offset="1" style="stop-color:rgb(98.039216%,32.156864%,62.7451%);stop-opacity:1;"/>
</linearGradient>
</defs>
<g id="surface1">
<path style=" stroke:none;fill-rule:nonzero;fill:url(#linear0);" d="M 51.585938 14.863281 L 245.789062 158.839844 L 197.761719 235.929688 L 3.554688 90.816406 Z M 51.585938 14.863281 "/>
<path style=" stroke:none;fill-rule:nonzero;fill:url(#linear1);" d="M 245.789062 158.839844 C 229.085938 184.914062 172.703125 174.710938 119.453125 133.898438 C 65.160156 94.21875 35.921875 40.9375 51.585938 14.863281 C 68.292969 -11.214844 124.671875 -1.011719 177.921875 39.800781 C 232.21875 78.347656 261.453125 132.765625 245.789062 158.839844 Z M 245.789062 158.839844 "/>
<path style=" stroke:none;fill-rule:nonzero;fill:rgb(5.490196%,5.882353%,13.725491%);fill-opacity:1;" d="M 197.761719 234.796875 C 181.054688 260.871094 124.671875 250.667969 71.421875 209.855469 C 18.171875 169.042969 -12.105469 116.890625 4.601562 89.683594 C 21.304688 63.609375 77.6875 73.8125 130.9375 114.625 C 184.1875 155.4375 213.421875 208.71875 197.761719 234.796875 Z M 197.761719 234.796875 "/>
<path style=" stroke:none;fill-rule:nonzero;fill:rgb(5.490196%,5.882353%,13.725491%);fill-opacity:1;" d="M 245.789062 158.839844 L 197.761719 235.929688 C 181.054688 262.003906 124.671875 250.667969 71.421875 210.988281 C 60.984375 203.050781 51.585938 195.117188 42.1875 186.046875 C 49.496094 184.914062 58.894531 180.378906 68.292969 169.042969 C 84.996094 149.769531 93.351562 145.234375 100.660156 146.367188 C 107.96875 146.367188 116.320312 154.304688 129.894531 173.578125 C 143.46875 192.847656 162.261719 198.515625 173.746094 188.3125 C 174.792969 187.179688 175.835938 187.179688 176.878906 186.046875 C 186.277344 178.109375 189.410156 174.710938 207.160156 138.433594 C 211.335938 129.363281 225.953125 114.625 245.789062 121.425781 C 251.011719 136.164062 251.011719 148.636719 245.789062 158.839844 Z M 245.789062 158.839844 "/>
<path style=" stroke:none;fill-rule:evenodd;fill:rgb(100%,100%,100%);fill-opacity:1;" d="M 238.480469 154.304688 C 223.863281 176.976562 172.703125 165.640625 123.628906 128.230469 C 73.511719 90.816406 44.277344 43.203125 58.894531 20.53125 C 73.511719 -2.144531 124.671875 9.191406 173.746094 46.605469 C 222.820312 84.015625 252.054688 131.628906 238.480469 154.304688 Z M 192.542969 120.292969 C 185.230469 131.628906 160.171875 125.960938 135.113281 107.824219 C 111.101562 89.683594 96.480469 65.878906 103.792969 54.539062 C 111.101562 43.203125 136.160156 48.871094 161.21875 67.011719 C 185.230469 85.148438 199.851562 108.957031 192.542969 120.292969 Z M 192.542969 120.292969 "/>
<path style=" stroke:none;fill-rule:nonzero;fill:rgb(100%,100%,100%);fill-opacity:1;" d="M 47.410156 40.9375 C 47.410156 39.800781 46.363281 38.667969 45.320312 39.800781 C 44.277344 40.9375 43.230469 40.9375 43.230469 42.070312 C 44.277344 45.46875 45.320312 47.738281 45.320312 50.003906 C 45.320312 51.140625 46.363281 52.273438 47.410156 51.140625 C 48.453125 51.140625 49.496094 50.003906 48.453125 48.871094 C 48.453125 46.605469 48.453125 44.335938 47.410156 40.9375 Z M 47.410156 40.9375 "/>
<path style=" stroke:none;fill-rule:nonzero;fill:rgb(100%,100%,100%);fill-opacity:1;" d="M 52.628906 59.074219 C 52.628906 57.941406 51.585938 56.808594 50.542969 57.941406 C 49.496094 59.074219 49.496094 59.074219 49.496094 60.207031 C 60.984375 88.550781 84.996094 119.160156 116.320312 141.832031 C 117.363281 142.96875 118.410156 141.832031 119.453125 141.832031 C 120.496094 140.699219 119.453125 139.566406 119.453125 138.433594 C 87.085938 115.757812 64.113281 86.28125 52.628906 59.074219 Z M 52.628906 59.074219 "/>
<path style=" stroke:none;fill-rule:nonzero;fill:rgb(100%,100%,100%);fill-opacity:1;" d="M 178.96875 170.175781 C 177.921875 170.175781 176.878906 170.175781 176.878906 171.308594 C 176.878906 172.441406 176.878906 173.578125 177.921875 173.578125 C 181.054688 174.710938 185.230469 175.84375 188.363281 176.976562 C 189.410156 176.976562 190.453125 176.976562 190.453125 175.84375 C 190.453125 174.710938 190.453125 173.578125 189.410156 173.578125 C 186.277344 172.441406 182.101562 171.308594 178.96875 170.175781 Z M 178.96875 170.175781 "/>
<path style=" stroke:none;fill-rule:nonzero;fill:rgb(100%,100%,100%);fill-opacity:1;" d="M 197.761719 174.710938 C 196.71875 174.710938 195.671875 175.84375 195.671875 176.976562 C 195.671875 178.109375 196.71875 179.246094 197.761719 179.246094 C 206.113281 180.378906 215.511719 181.511719 222.820312 180.378906 C 223.863281 180.378906 224.910156 179.246094 224.910156 178.109375 C 224.910156 176.976562 223.863281 175.84375 222.820312 175.84375 C 214.46875 176.976562 206.113281 175.84375 197.761719 174.710938 Z M 197.761719 174.710938 "/>
</g>
</svg>
