<svg width="256" height="256" viewBox="0 0 256 256" fill="none" xmlns="http://www.w3.org/2000/svg">
<circle cx="128" cy="128" r="128" fill="#495669"/>
<path d="M141.417 110.68C131.764 108.161 124.629 106.063 119.173 104.384L111.199 120.333L83.0794 66.6118L143.095 56.9589L135.121 73.3269C144.355 74.586 153.588 78.3633 162.821 84.239C165.759 85.9177 168.697 86.7571 172.474 86.7571C182.127 86.7571 190.101 79.2026 190.101 69.13C190.101 61.5755 185.904 56.5392 181.707 54.0211C166.179 44.3681 148.132 38.9121 127.147 38.9121C91.4733 38.9121 66.7114 59.4771 66.7114 90.954V91.3737C66.7114 125.789 88.9551 135.442 123.79 144.255C133.862 146.773 140.997 149.291 146.033 151.39L153.588 136.281L181.707 190.002L121.691 199.655L130.085 182.867C114.556 182.027 101.126 176.571 88.9551 167.338C86.4369 165.659 83.0794 163.981 78.0431 163.981C68.3902 163.981 60.416 171.535 60.416 181.608C60.416 187.483 63.3539 192.939 67.5508 195.877C86.8566 209.727 109.52 216.442 132.183 216.442C169.536 216.442 195.557 197.136 195.557 163.141V162.722C195.977 132.504 176.251 119.913 141.417 110.68Z" fill="#F8DB14"/>
</svg>
