<svg height="250" viewBox="0 0 250 250" width="250" xmlns="http://www.w3.org/2000/svg"><path d="m247.5625 16.242188c-34.960938.246093-113.582031-1.460938-115.941406-.246094l-37.488282 47.03125-46.027343-61.089844s-.375-2.0117188-3.976563-1.9375c-.992187 0-1.957031.429688-2.75 1.226562l-40.003906 53.804688c-.902344 1.332031-1.359375 3.105469-1.265625 4.90625.421875 3.679688 3.265625 4.90625 3.265625 4.90625l36.050781.246094s-.84375 67.332031.183594 70.054687c1.027344 2.722657 88.785156 112.121094 88.785156 112.121094.941407 1.296875 2.132813 2.21875 3.4375 2.660156 3.667969.722657 4.53125-4.367187 4.53125-4.367187l.367188-95.507813s78.390625-86.054687 110.832031-121.921875c.914062-1.054687 2.050781.230469 2.355469-5.816406.164062-3.640625-.523438-6.082031-2.355469-6.070312zm-208.394531 36.199218-21.851563.160156 22.101563-29.5625zm10.679687-29.316406 36.484375 48.636719-36.410156 46zm50.617188 168.140625 26.8125-30.054687-.183594 66.425781zm-7.863282-9.410156-40.726562-49.25 83.761719-103.949219 96.660156-.441406zm0 0" fill="#f7941d"/></svg>