
<svg xmlns="http://www.w3.org/2000/svg" xmlns:xlink="http://www.w3.org/1999/xlink" width="250px" height="250px" viewBox="0 0 250 250" version="1.1">
<g id="surface1">
<path style=" stroke:none;fill-rule:nonzero;fill:rgb(96.862745%,58.039218%,11.372549%);fill-opacity:1;" d="M 247.5625 16.242188 C 212.601562 16.488281 133.980469 14.78125 131.621094 15.996094 L 94.132812 63.027344 L 48.105469 1.9375 C 48.105469 1.9375 47.730469 -0.0742188 44.128906 0 C 43.136719 0 42.171875 0.429688 41.378906 1.226562 L 1.375 55.03125 C 0.472656 56.363281 0.015625 58.136719 0.109375 59.9375 C 0.53125 63.617188 3.375 64.84375 3.375 64.84375 L 39.425781 65.089844 C 39.425781 65.089844 38.582031 132.421875 39.609375 135.144531 C 40.636719 137.867188 128.394531 247.265625 128.394531 247.265625 C 129.335938 248.5625 130.527344 249.484375 131.832031 249.925781 C 135.5 250.648438 136.363281 245.558594 136.363281 245.558594 L 136.730469 150.050781 C 136.730469 150.050781 215.121094 63.996094 247.5625 28.128906 C 248.476562 27.074219 249.613281 28.359375 249.917969 22.3125 C 250.082031 18.671875 249.394531 16.230469 247.5625 16.242188 Z M 39.167969 52.441406 L 17.316406 52.601562 L 39.417969 23.039062 Z M 49.847656 23.125 L 86.332031 71.761719 L 49.921875 117.761719 Z M 100.464844 191.265625 L 127.277344 161.210938 L 127.09375 227.636719 Z M 92.601562 181.855469 L 51.875 132.605469 L 135.636719 28.65625 L 232.296875 28.214844 Z M 92.601562 181.855469 "/>
</g>
</svg>
