<svg height="250" viewBox="0 0 250 250" width="250" xmlns="http://www.w3.org/2000/svg"><path d="m125 0c69.035156 0 125 55.964844 125 125s-55.964844 125-125 125-125-55.964844-125-125 55.964844-125 125-125zm0 0" fill="#3ce35f"/><path d="m143.484375 74.195312c2.613281 8.371094 10.445313 14.472657 19.667969 14.472657 11.347656 0 20.597656-9.242188 20.597656-20.582031 0-11.34375-9.25-20.585938-20.597656-20.585938-9.648438 0-17.777344 6.679688-19.996094 15.648438h-41.71875c-18.683594 0-33.902344 15.210937-33.902344 33.878906 0 18.671875 15.21875 33.878906 33.902344 33.878906h3.765625c2.339844 8.796875 10.382813 15.304688 19.90625 15.304688 9.527344 0 17.570313-6.507813 19.910156-15.304688h4.464844c12.601563 0 22.84375 10.238281 22.84375 22.832031s-10.242187 22.832031-22.84375 22.832031h-41.875c-2.761719-8.121093-10.46875-13.988281-19.511719-13.988281-11.347656 0-20.597656 9.242188-20.597656 20.585938 0 11.339843 9.25 20.582031 20.597656 20.582031 9.820313 0 18.070313-6.921875 20.113282-16.136719h41.273437c18.683594 0 33.898437-15.207031 33.898437-33.875 0-18.671875-15.214843-33.878906-33.898437-33.878906h-4.597656c-2.503907-8.550781-10.429688-14.820313-19.777344-14.820313-9.34375 0-17.269531 6.269532-19.773437 14.820313h-3.898438c-12.601562 0-22.847656-10.238281-22.847656-22.832031s10.246094-22.832032 22.847656-22.832032zm19.667969-15.613281c-5.269532 0-9.542969 4.273438-9.542969 9.539063s4.273437 9.539062 9.542969 9.539062c5.269531 0 9.542968-4.273437 9.542968-9.539062s-4.273437-9.539063-9.542968-9.539063zm-47.585938 67.078125c0-5.265625 4.277344-9.535156 9.542969-9.535156 5.269531 0 9.546875 4.269531 9.546875 9.535156s-4.277344 9.539063-9.546875 9.539063c-5.265625 0-9.542969-4.273438-9.542969-9.539063zm-37.011718 57.542969c0-5.265625 4.273437-9.539063 9.542968-9.539063 5.269532 0 9.542969 4.273438 9.542969 9.539063s-4.273437 9.535156-9.542969 9.535156c-5.269531 0-9.542968-4.269531-9.542968-9.535156zm0 0" fill="#fff" fill-rule="evenodd"/></svg>