
<svg xmlns="http://www.w3.org/2000/svg" xmlns:xlink="http://www.w3.org/1999/xlink" width="250px" height="250px" viewBox="0 0 250 250" version="1.1">
<g id="surface1">
<path style=" stroke:none;fill-rule:nonzero;fill:rgb(23.529412%,89.019608%,37.254903%);fill-opacity:1;" d="M 125 0 C 194.035156 0 250 55.964844 250 125 C 250 194.035156 194.035156 250 125 250 C 55.964844 250 0 194.035156 0 125 C 0 55.964844 55.964844 0 125 0 Z M 125 0 "/>
<path style=" stroke:none;fill-rule:evenodd;fill:rgb(100%,100%,100%);fill-opacity:1;" d="M 143.484375 74.195312 C 146.097656 82.566406 153.929688 88.667969 163.152344 88.667969 C 174.5 88.667969 183.75 79.425781 183.75 68.085938 C 183.75 56.742188 174.5 47.5 163.152344 47.5 C 153.503906 47.5 145.375 54.179688 143.15625 63.148438 L 101.4375 63.148438 C 82.753906 63.148438 67.535156 78.359375 67.535156 97.027344 C 67.535156 115.699219 82.753906 130.90625 101.4375 130.90625 L 105.203125 130.90625 C 107.542969 139.703125 115.585938 146.210938 125.109375 146.210938 C 134.636719 146.210938 142.679688 139.703125 145.019531 130.90625 L 149.484375 130.90625 C 162.085938 130.90625 172.328125 141.144531 172.328125 153.738281 C 172.328125 166.332031 162.085938 176.570312 149.484375 176.570312 L 107.609375 176.570312 C 104.847656 168.449219 97.140625 162.582031 88.097656 162.582031 C 76.75 162.582031 67.5 171.824219 67.5 183.167969 C 67.5 194.507812 76.75 203.75 88.097656 203.75 C 97.917969 203.75 106.167969 196.828125 108.210938 187.613281 L 149.484375 187.613281 C 168.167969 187.613281 183.382812 172.40625 183.382812 153.738281 C 183.382812 135.066406 168.167969 119.859375 149.484375 119.859375 L 144.886719 119.859375 C 142.382812 111.308594 134.457031 105.039062 125.109375 105.039062 C 115.765625 105.039062 107.839844 111.308594 105.335938 119.859375 L 101.4375 119.859375 C 88.835938 119.859375 78.589844 109.621094 78.589844 97.027344 C 78.589844 84.433594 88.835938 74.195312 101.4375 74.195312 Z M 163.152344 58.582031 C 157.882812 58.582031 153.609375 62.855469 153.609375 68.121094 C 153.609375 73.386719 157.882812 77.660156 163.152344 77.660156 C 168.421875 77.660156 172.695312 73.386719 172.695312 68.121094 C 172.695312 62.855469 168.421875 58.582031 163.152344 58.582031 Z M 115.566406 125.660156 C 115.566406 120.394531 119.84375 116.125 125.109375 116.125 C 130.378906 116.125 134.65625 120.394531 134.65625 125.660156 C 134.65625 130.925781 130.378906 135.199219 125.109375 135.199219 C 119.84375 135.199219 115.566406 130.925781 115.566406 125.660156 Z M 78.554688 183.203125 C 78.554688 177.9375 82.828125 173.664062 88.097656 173.664062 C 93.367188 173.664062 97.640625 177.9375 97.640625 183.203125 C 97.640625 188.46875 93.367188 192.738281 88.097656 192.738281 C 82.828125 192.738281 78.554688 188.46875 78.554688 183.203125 Z M 78.554688 183.203125 "/>
</g>
</svg>
