<?xml version="1.0" encoding="UTF-8"?>
<svg xmlns="http://www.w3.org/2000/svg" xmlns:xlink="http://www.w3.org/1999/xlink" width="250px" height="250px" viewBox="0 0 250 250" version="1.1">
<g id="surface1">
<path style=" stroke:none;fill-rule:evenodd;fill:rgb(11.764706%,10.196079%,19.215687%);fill-opacity:1;" d="M 249.972656 125.226562 C 249.972656 194.066406 194.164062 249.871094 125.324219 249.871094 C 56.484375 249.871094 0.679688 194.066406 0.679688 125.226562 C 0.679688 56.386719 56.484375 0.578125 125.324219 0.578125 C 194.164062 0.578125 249.972656 56.386719 249.972656 125.226562 Z M 249.972656 125.226562 "/>
<path style=" stroke:none;fill-rule:evenodd;fill:rgb(100%,100%,100%);fill-opacity:1;" d="M 105.429688 117.308594 C 108.808594 117.308594 111.546875 120.046875 111.546875 123.425781 C 111.546875 126.800781 108.808594 129.539062 105.429688 129.539062 L 89.558594 129.539062 C 74.183594 129.539062 61.722656 117.078125 61.722656 101.703125 C 61.722656 86.332031 74.183594 73.867188 89.558594 73.867188 L 130.492188 73.867188 C 133.871094 73.867188 136.609375 76.605469 136.609375 79.984375 C 136.609375 83.359375 133.871094 86.097656 130.492188 86.097656 L 89.558594 86.097656 C 80.9375 86.097656 73.953125 93.085938 73.953125 101.703125 C 73.953125 110.324219 80.9375 117.308594 89.558594 117.308594 Z M 105.429688 117.308594 "/>
<path style=" stroke:none;fill-rule:evenodd;fill:rgb(100%,100%,100%);fill-opacity:1;" d="M 92.898438 129.539062 C 89.523438 129.539062 86.785156 126.800781 86.785156 123.425781 C 86.785156 120.046875 89.523438 117.308594 92.898438 117.308594 L 108.773438 117.308594 C 124.144531 117.308594 136.609375 129.773438 136.609375 145.144531 C 136.609375 160.519531 124.144531 172.980469 108.773438 172.980469 L 67.835938 172.980469 C 64.460938 172.980469 61.722656 170.242188 61.722656 166.867188 C 61.722656 163.488281 64.460938 160.75 67.835938 160.75 L 108.773438 160.75 C 117.390625 160.75 124.378906 153.765625 124.378906 145.144531 C 124.378906 136.527344 117.390625 129.539062 108.773438 129.539062 Z M 92.898438 129.539062 "/>
<path style=" stroke:none;fill-rule:evenodd;fill:rgb(100%,100%,100%);fill-opacity:0.5;" d="M 72.667969 170.515625 L 62.726562 163.390625 L 125.253906 76.132812 L 135.195312 83.253906 Z M 72.667969 170.515625 "/>
<path style=" stroke:none;fill-rule:evenodd;fill:rgb(0%,0%,0%);fill-opacity:1;" d="M 146.660156 161.875 L 166.210938 161.875 C 168.941406 161.875 170.996094 161.34375 172.375 160.285156 C 173.757812 159.226562 174.449219 157.558594 174.449219 155.277344 C 174.449219 152.996094 173.757812 151.320312 172.375 150.246094 C 170.996094 149.167969 168.941406 148.632812 166.210938 148.632812 L 146.660156 148.632812 L 146.660156 141.40625 L 165.828125 141.40625 C 170.644531 141.40625 174.320312 142.585938 176.855469 144.949219 C 179.390625 147.308594 180.660156 150.75 180.660156 155.277344 C 180.660156 159.804688 179.390625 163.238281 176.855469 165.582031 C 174.320312 167.925781 170.644531 169.097656 165.828125 169.097656 L 146.660156 169.097656 Z M 169.390625 130.140625 C 171.058594 130.011719 172.402344 129.328125 173.414062 128.09375 C 174.421875 126.855469 174.929688 125.210938 174.929688 123.15625 C 174.929688 121.453125 174.566406 120.066406 173.84375 118.988281 C 173.125 117.914062 172.121094 117.375 170.835938 117.375 C 169.9375 117.375 169.222656 117.671875 168.691406 118.269531 C 168.164062 118.863281 167.746094 119.695312 167.441406 120.773438 C 167.136719 121.847656 166.757812 123.507812 166.308594 125.757812 C 165.890625 127.972656 165.355469 129.832031 164.695312 131.34375 C 164.039062 132.851562 163.058594 134.078125 161.757812 135.027344 C 160.457031 135.972656 158.730469 136.449219 156.582031 136.449219 C 154.621094 136.449219 152.871094 135.910156 151.332031 134.835938 C 149.789062 133.757812 148.578125 132.265625 147.695312 130.355469 C 146.8125 128.445312 146.371094 126.285156 146.371094 123.878906 C 146.371094 121.40625 146.828125 119.183594 147.742188 117.207031 C 148.660156 115.234375 149.917969 113.675781 151.523438 112.535156 C 153.128906 111.398438 154.945312 110.8125 156.964844 110.777344 L 156.964844 117.859375 C 155.519531 118.019531 154.359375 118.628906 153.476562 119.6875 C 152.589844 120.746094 152.148438 122.144531 152.148438 123.878906 C 152.148438 125.484375 152.488281 126.769531 153.160156 127.730469 C 153.835938 128.695312 154.800781 129.175781 156.050781 129.175781 C 156.949219 129.175781 157.648438 128.886719 158.144531 128.308594 C 158.644531 127.730469 159.046875 126.914062 159.351562 125.851562 C 159.65625 124.792969 160.015625 123.15625 160.433594 120.941406 C 160.851562 118.691406 161.371094 116.800781 162 115.257812 C 162.625 113.714844 163.570312 112.472656 164.839844 111.527344 C 166.109375 110.578125 167.800781 110.105469 169.921875 110.105469 C 171.976562 110.105469 173.8125 110.667969 175.433594 111.789062 C 177.054688 112.914062 178.332031 114.480469 179.261719 116.484375 C 180.195312 118.492188 180.660156 120.746094 180.660156 123.253906 C 180.660156 125.949219 180.171875 128.347656 179.191406 130.453125 C 178.210938 132.554688 176.855469 134.199219 175.121094 135.386719 C 173.386719 136.574219 171.445312 137.1875 169.292969 137.21875 Z M 146.660156 105.769531 L 146.660156 94.066406 C 146.660156 90.695312 147.375 87.71875 148.804688 85.136719 C 150.230469 82.550781 152.222656 80.558594 154.773438 79.164062 C 157.328125 77.765625 160.242188 77.066406 163.515625 77.066406 C 166.789062 77.066406 169.703125 77.765625 172.257812 79.164062 C 174.808594 80.558594 176.800781 82.550781 178.226562 85.136719 C 179.65625 87.71875 180.371094 90.695312 180.371094 94.066406 L 180.371094 105.769531 Z M 174.351562 94.066406 C 174.351562 91.019531 173.363281 88.648438 171.390625 86.964844 C 169.414062 85.277344 166.789062 84.4375 163.515625 84.4375 C 160.242188 84.4375 157.617188 85.277344 155.640625 86.964844 C 153.667969 88.648438 152.679688 91.019531 152.679688 94.066406 L 152.679688 98.546875 L 174.351562 98.546875 Z M 174.351562 94.066406 "/>
<path style=" stroke:none;fill-rule:evenodd;fill:rgb(100%,100%,100%);fill-opacity:1;" d="M 146.660156 161.875 L 166.210938 161.875 C 168.941406 161.875 170.996094 161.34375 172.375 160.285156 C 173.757812 159.226562 174.449219 157.558594 174.449219 155.277344 C 174.449219 152.996094 173.757812 151.320312 172.375 150.246094 C 170.996094 149.167969 168.941406 148.632812 166.210938 148.632812 L 146.660156 148.632812 L 146.660156 141.40625 L 165.828125 141.40625 C 170.644531 141.40625 174.320312 142.585938 176.855469 144.949219 C 179.390625 147.308594 180.660156 150.75 180.660156 155.277344 C 180.660156 159.804688 179.390625 163.238281 176.855469 165.582031 C 174.320312 167.925781 170.644531 169.097656 165.828125 169.097656 L 146.660156 169.097656 Z M 169.390625 130.140625 C 171.058594 130.011719 172.402344 129.328125 173.414062 128.09375 C 174.421875 126.855469 174.929688 125.210938 174.929688 123.15625 C 174.929688 121.453125 174.566406 120.066406 173.84375 118.988281 C 173.125 117.914062 172.121094 117.375 170.835938 117.375 C 169.9375 117.375 169.222656 117.671875 168.691406 118.269531 C 168.164062 118.863281 167.746094 119.695312 167.441406 120.773438 C 167.136719 121.847656 166.757812 123.507812 166.308594 125.757812 C 165.890625 127.972656 165.355469 129.832031 164.695312 131.34375 C 164.039062 132.851562 163.058594 134.078125 161.757812 135.027344 C 160.457031 135.972656 158.730469 136.449219 156.582031 136.449219 C 154.621094 136.449219 152.871094 135.910156 151.332031 134.835938 C 149.789062 133.757812 148.578125 132.265625 147.695312 130.355469 C 146.8125 128.445312 146.371094 126.285156 146.371094 123.878906 C 146.371094 121.40625 146.828125 119.183594 147.742188 117.207031 C 148.660156 115.234375 149.917969 113.675781 151.523438 112.535156 C 153.128906 111.398438 154.945312 110.8125 156.964844 110.777344 L 156.964844 117.859375 C 155.519531 118.019531 154.359375 118.628906 153.476562 119.6875 C 152.589844 120.746094 152.148438 122.144531 152.148438 123.878906 C 152.148438 125.484375 152.488281 126.769531 153.160156 127.730469 C 153.835938 128.695312 154.800781 129.175781 156.050781 129.175781 C 156.949219 129.175781 157.648438 128.886719 158.144531 128.308594 C 158.644531 127.730469 159.046875 126.914062 159.351562 125.851562 C 159.65625 124.792969 160.015625 123.15625 160.433594 120.941406 C 160.851562 118.691406 161.371094 116.800781 162 115.257812 C 162.625 113.714844 163.570312 112.472656 164.839844 111.527344 C 166.109375 110.578125 167.800781 110.105469 169.921875 110.105469 C 171.976562 110.105469 173.8125 110.667969 175.433594 111.789062 C 177.054688 112.914062 178.332031 114.480469 179.261719 116.484375 C 180.195312 118.492188 180.660156 120.746094 180.660156 123.253906 C 180.660156 125.949219 180.171875 128.347656 179.191406 130.453125 C 178.210938 132.554688 176.855469 134.199219 175.121094 135.386719 C 173.386719 136.574219 171.445312 137.1875 169.292969 137.21875 Z M 146.660156 105.769531 L 146.660156 94.066406 C 146.660156 90.695312 147.375 87.71875 148.804688 85.136719 C 150.230469 82.550781 152.222656 80.558594 154.773438 79.164062 C 157.328125 77.765625 160.242188 77.066406 163.515625 77.066406 C 166.789062 77.066406 169.703125 77.765625 172.257812 79.164062 C 174.808594 80.558594 176.800781 82.550781 178.226562 85.136719 C 179.65625 87.71875 180.371094 90.695312 180.371094 94.066406 L 180.371094 105.769531 Z M 174.351562 94.066406 C 174.351562 91.019531 173.363281 88.648438 171.390625 86.964844 C 169.414062 85.277344 166.789062 84.4375 163.515625 84.4375 C 160.242188 84.4375 157.617188 85.277344 155.640625 86.964844 C 153.667969 88.648438 152.679688 91.019531 152.679688 94.066406 L 152.679688 98.546875 L 174.351562 98.546875 Z M 174.351562 94.066406 "/>
</g>
</svg>
