<svg height="250" viewBox="0 0 250 250" width="250" xmlns="http://www.w3.org/2000/svg" xmlns:xlink="http://www.w3.org/1999/xlink"><filter id="a" height="100%" width="100%" x="0%" y="0%"><feColorMatrix in="SourceGraphic" type="matrix" values="0 0 0 0 1 0 0 0 0 1 0 0 0 0 1 0 0 0 1 0"/></filter><mask id="b"><g filter="url(#a)"><path d="m0 0h250v250h-250z" fill-opacity=".5"/></g></mask><clipPath id="c"><path d="m0 0h250v250h-250z"/></clipPath><path d="m125 250c69.035156 0 125-55.964844 125-125s-55.964844-125-125-125-125 55.964844-125 125 55.964844 125 125 125zm0 0" fill="#6e97ff"/><g fill="#1e1a31"><path d="m149.167969 168.363281v-23.5h6.449219v16h7.847656v-13h6.152344v13h8.097656v-16.550781h6.453125v24.050781zm0 0"/><path d="m149.167969 142.285156v-27.703125h6.449219v10.101563h28.550781v7.5h-28.550781v10.101562zm0 0"/><path d="m149.167969 110.5v-7.5h14.046875v-13.898438h-14.046875v-7.5h35v7.5h-14.453125v13.898438h14.453125v7.5zm0 0"/></g><g clip-path="url(#c)" mask="url(#b)"><path d="m67.851562 173.773438-10.402343-7.421876 65.429687-90.910156 10.40625 7.421875zm0 0" fill="#1e1a31" fill-rule="evenodd"/></g><path d="m101.558594 118.625h3.492187c16.078125 0 29.117188 12.992188 29.117188 29.019531 0 16.027344-13.039063 29.023438-29.117188 29.023438h-42.820312c-3.535157 0-6.398438-2.855469-6.398438-6.378907 0-3.519531 2.863281-6.375 6.398438-6.375h42.820312c9.015625 0 16.324219-7.28125 16.324219-16.269531 0-8.984375-7.308594-16.269531-16.324219-16.269531h-20.101562c-16.078125 0-29.117188-12.992188-29.117188-29.019531 0-16.027344 13.039063-29.023438 29.117188-29.023438h42.820312c3.53125 0 6.398438 2.855469 6.398438 6.375 0 3.523438-2.867188 6.378907-6.398438 6.378907h-42.820312c-9.015625 0-16.324219 7.28125-16.324219 16.269531 0 8.984375 7.308594 16.269531 16.324219 16.269531h16.605469zm0 0" fill="#1e1a31" fill-rule="evenodd"/></svg>