
<svg xmlns="http://www.w3.org/2000/svg" xmlns:xlink="http://www.w3.org/1999/xlink" width="250px" height="250px" viewBox="0 0 250 250" version="1.1">
<g id="surface1">
<path style=" stroke:none;fill-rule:nonzero;fill:rgb(43.137255%,29.019609%,100%);fill-opacity:1;" d="M 0 23.4375 C 0 10.492188 10.492188 0 23.4375 0 L 226.5625 0 C 239.507812 0 250 10.492188 250 23.4375 L 250 226.5625 C 250 239.507812 239.507812 250 226.5625 250 L 23.4375 250 C 10.492188 250 0 239.507812 0 226.5625 Z M 0 23.4375 "/>
<path style=" stroke:none;fill-rule:nonzero;fill:rgb(100%,100%,100%);fill-opacity:1;" d="M 85.578125 209.554688 L 100.339844 209.554688 L 92.863281 191.25 Z M 85.578125 209.554688 "/>
<path style=" stroke:none;fill-rule:nonzero;fill:rgb(100%,100%,100%);fill-opacity:1;" d="M 206.132812 203.820312 C 206.132812 194.023438 201.167969 189.703125 191.628906 189.703125 L 183.121094 189.703125 L 183.121094 219.351562 L 192.015625 219.351562 C 201.363281 219.351562 206.132812 215.164062 206.132812 205.367188 Z M 206.132812 203.820312 "/>
<path style=" stroke:none;fill-rule:evenodd;fill:rgb(100%,100%,100%);fill-opacity:1;" d="M 23.4375 166.015625 C 14.808594 166.015625 7.8125 173.011719 7.8125 181.640625 L 7.8125 226.5625 C 7.8125 235.191406 14.808594 242.1875 23.4375 242.1875 L 226.5625 242.1875 C 235.191406 242.1875 242.1875 235.191406 242.1875 226.5625 L 242.1875 181.640625 C 242.1875 173.011719 235.191406 166.015625 226.5625 166.015625 Z M 72.96875 181.585938 L 72.96875 189.769531 L 58.144531 189.769531 L 58.144531 227.539062 L 48.605469 227.539062 L 48.605469 189.769531 L 34.425781 189.769531 L 34.425781 181.585938 Z M 117.484375 227.539062 L 107.75 227.539062 L 103.5625 217.355469 L 82.484375 217.355469 L 78.488281 227.539062 L 68.628906 227.539062 L 87.964844 181.585938 L 97.761719 181.585938 Z M 141.835938 228.632812 C 155.046875 228.632812 162.523438 221.738281 162.523438 205.433594 L 162.523438 181.585938 L 152.664062 181.585938 L 152.664062 205.109375 C 152.664062 215.679688 149.4375 219.546875 141.960938 219.546875 C 134.488281 219.546875 130.941406 215.550781 130.941406 205.109375 L 130.941406 181.585938 L 121.144531 181.585938 L 121.144531 205.433594 C 121.144531 221.738281 128.105469 228.632812 141.835938 228.632812 Z M 215.605469 205.882812 C 215.605469 220.773438 206.582031 227.539062 192.46875 227.539062 L 173.777344 227.539062 L 173.777344 181.585938 L 192.015625 181.585938 C 206.261719 181.585938 215.605469 188.417969 215.605469 203.433594 Z M 215.605469 205.882812 "/>
<path style=" stroke:none;fill-rule:nonzero;fill:rgb(100%,100%,100%);fill-opacity:1;" d="M 74.21875 28.320312 L 108.398438 28.320312 C 108.398438 47.195312 93.09375 62.5 74.21875 62.5 Z M 74.21875 28.320312 "/>
<path style=" stroke:none;fill-rule:nonzero;fill:rgb(100%,100%,100%);fill-opacity:1;" d="M 142.578125 28.320312 C 123.703125 28.320312 108.398438 43.625 108.398438 62.5 L 108.398438 137.695312 L 142.578125 137.695312 L 142.578125 62.5 L 176.757812 62.5 L 176.757812 28.320312 Z M 142.578125 28.320312 "/>
</g>
</svg>
