<svg height="250" viewBox="0 0 250 250" width="250" xmlns="http://www.w3.org/2000/svg"><path d="m0 23.4375c0-12.945312 10.492188-23.4375 23.4375-23.4375h203.125c12.945312 0 23.4375 10.492188 23.4375 23.4375v203.125c0 12.945312-10.492188 23.4375-23.4375 23.4375h-203.125c-12.945312 0-23.4375-10.492188-23.4375-23.4375zm0 0" fill="#6e4aff"/><g fill="#fff"><path d="m85.578125 209.554688h14.761719l-7.476563-18.304688zm0 0"/><path d="m206.132812 203.820312c0-9.796874-4.964843-14.117187-14.503906-14.117187h-8.507812v29.648437h8.894531c9.347656 0 14.117187-4.1875 14.117187-13.984374zm0 0"/><path d="m23.4375 166.015625c-8.628906 0-15.625 6.996094-15.625 15.625v44.921875c0 8.628906 6.996094 15.625 15.625 15.625h203.125c8.628906 0 15.625-6.996094 15.625-15.625v-44.921875c0-8.628906-6.996094-15.625-15.625-15.625zm49.53125 15.570313v8.183593h-14.824219v37.769531h-9.539062v-37.769531h-14.179688v-8.183593zm44.515625 45.953124h-9.734375l-4.1875-10.183593h-21.078125l-3.996094 10.183593h-9.859375l19.335938-45.953124h9.796875zm24.351563 1.09375c13.210937 0 20.6875-6.894531 20.6875-23.199218v-23.847656h-9.859376v23.523437c0 10.570313-3.226562 14.4375-10.703124 14.4375-7.472657 0-11.019532-3.996094-11.019532-14.4375v-23.523437h-9.796875v23.847656c0 16.304687 6.960938 23.199218 20.691407 23.199218zm73.769531-22.75c0 14.890626-9.023438 21.65625-23.136719 21.65625h-18.691406v-45.953124h18.238281c14.246094 0 23.589844 6.832031 23.589844 21.847656zm0 0" fill-rule="evenodd"/><path d="m74.21875 28.320312h34.179688c0 18.875-15.304688 34.179688-34.179688 34.179688zm0 0"/><path d="m142.578125 28.320312c-18.875 0-34.179687 15.304688-34.179687 34.179688v75.195312h34.179687v-75.195312h34.179687v-34.179688zm0 0"/></g></svg>