<svg id="Layer_1" data-name="Layer 1" xmlns="http://www.w3.org/2000/svg" viewBox="0 0 256 256">
  <defs>
    <style>
      .cls-1 {
        fill: #6e4aff;
      }

      .cls-2, .cls-3 {
        fill: #fff;
      }

      .cls-3 {
        fill-rule: evenodd;
      }
    </style>
  </defs>
  <path class="cls-1" d="M0,24A24,24,0,0,1,24,0H232a23.99992,23.99992,0,0,1,24,24V232a23.99979,23.99979,0,0,1-24,24H24A23.99992,23.99992,0,0,1,0,232Z"/>
  <path class="cls-2" d="M87.6332,214.586H102.747l-7.6558-18.744Z"/>
  <path class="cls-2" d="M211.079,208.712c0-10.032-5.082-14.454-14.85-14.454h-8.712v30.36h9.108c9.57,0,14.454-4.29,14.454-14.322Z"/>
  <path class="cls-3" d="M24,170A15.99968,15.99968,0,0,0,8,186v46a15.99968,15.99968,0,0,0,16,16H232a15.99942,15.99942,0,0,0,16-16V186a15.99942,15.99942,0,0,0-16-16Zm50.7219,15.942v8.382h-15.18V233h-9.768V194.324h-14.52v-8.382ZM120.303,233h-9.966l-4.29-10.428H84.4652L80.3732,233H70.2752l19.8-47.058H100.107Zm24.935,1.122c13.53,0,21.186-7.062,21.186-23.76v-24.42H156.326v24.09c0,10.824-3.3,14.784-10.956,14.784s-11.286-4.092-11.286-14.784v-24.09H124.052v24.42C124.052,227.06,131.18,234.122,145.238,234.122Zm75.543-23.298c0,15.246-9.24,22.176-23.694,22.176h-19.14V185.942h18.678c14.586,0,24.156,6.996,24.156,22.374Z"/>
  <path class="cls-2" d="M76,29h35A35,35,0,0,1,76,64Z"/>
  <path class="cls-2" d="M146,29a35,35,0,0,0-35,35v77h35V64h35V29Z"/>
</svg>
