<svg height="250" viewBox="0 0 250 250" width="250" xmlns="http://www.w3.org/2000/svg"><path d="m0 23.4375c0-12.945312 10.492188-23.4375 23.4375-23.4375h203.125c12.945312 0 23.4375 10.492188 23.4375 23.4375v203.125c0 12.945312-10.492188 23.4375-23.4375 23.4375h-203.125c-12.945312 0-23.4375-10.492188-23.4375-23.4375zm0 0" fill="#11975f"/><g fill="#fff"><path d="m153.414062 209.554688h-14.761718l7.285156-18.304688zm0 0"/><path d="m210.175781 203.820312c0-9.796874-4.964843-14.117187-14.503906-14.117187h-8.503906v29.648437h8.894531c9.34375 0 14.113281-4.1875 14.113281-13.984374zm0 0"/><path d="m23.4375 166.015625c-8.628906 0-15.625 6.996094-15.625 15.625v44.921875c0 8.628906 6.996094 15.625 15.625 15.625h203.125c8.628906 0 15.625-6.996094 15.625-15.625v-44.921875c0-8.628906-6.996094-15.625-15.625-15.625zm84.8125 43.347656h10.117188c-1.480469 11.988281-8.3125 19.269531-23.203126 19.269531-14.113281 0-22.621093-7.34375-22.621093-22.492187v-2.640625c0-14.632812 9.152343-22.882812 23.265625-22.882812 12.441406 0 20.5625 5.996093 22.300781 18.113281h-9.988281c-.839844-6.125-4.707032-9.667969-12.3125-9.667969-8.699219 0-13.597656 4.769531-13.597656 14.824219v1.933593c0 9.28125 4.769531 14.050782 13.46875 14.050782 8.1875-.003906 11.730468-3.804688 12.570312-10.507813zm-40.300781-27.777343v8.183593h-14.824219v37.769531h-9.539062v-37.769531h-14.179688v-8.183593zm92.875 45.953124h9.730469l-19.71875-45.953124h-9.796876l-19.335937 45.953124h9.859375l3.996094-10.183593h21.074218zm58.824219-21.65625c0 14.890626-9.023438 21.65625-23.136719 21.65625h-18.691407v-45.953124h18.242188c14.242188 0 23.589844 6.832031 23.589844 21.847656zm0 0" fill-rule="evenodd"/><path d="m74.21875 28.320312h34.179688c0 18.875-15.304688 34.179688-34.179688 34.179688zm0 0"/><path d="m142.578125 28.320312c-18.875 0-34.179687 15.304688-34.179687 34.179688v75.195312h34.179687v-75.195312h34.179687v-34.179688zm0 0"/></g></svg>