<svg id="Layer_1" data-name="Layer 1" xmlns="http://www.w3.org/2000/svg" viewBox="0 0 256 256">
  <defs>
    <style>
      .cls-1 {
        fill: #11975f;
      }

      .cls-2, .cls-3 {
        fill: #fff;
      }

      .cls-3 {
        fill-rule: evenodd;
      }
    </style>
  </defs>
  <path class="cls-1" d="M0,24A24,24,0,0,1,24,0H232a23.99992,23.99992,0,0,1,24,24V232a23.99979,23.99979,0,0,1-24,24H24A23.99992,23.99992,0,0,1,0,232Z"/>
  <path class="cls-2" d="M157.094,214.586H141.98l7.458-18.744Z"/>
  <path class="cls-2" d="M215.22,208.712c0-10.032-5.082-14.454-14.85-14.454h-8.712v30.36h9.108c9.57,0,14.454-4.29,14.454-14.322Z"/>
  <path class="cls-3" d="M24,170A15.99968,15.99968,0,0,0,8,186v46a15.99968,15.99968,0,0,0,16,16H232a15.99942,15.99942,0,0,0,16-16V186a15.99942,15.99942,0,0,0-16-16Zm86.847,44.388h10.362c-1.518,12.276-8.514,19.734-23.7603,19.734-14.454,0-23.166-7.524-23.166-23.034v-2.706c0-14.982,9.372-23.43,23.826-23.43,12.7383,0,21.0543,6.138,22.8363,18.546h-10.23c-.858-6.27-4.818-9.9-12.6063-9.9-8.91,0-13.9259,4.884-13.9259,15.18v1.98c0,9.504,4.8839,14.388,13.7939,14.388C106.359,225.146,109.989,221.252,110.847,214.388ZM69.5813,185.942v8.382h-15.18V233h-9.768V194.324h-14.52v-8.382ZM164.684,233h9.966l-20.196-47.058H144.422L124.622,233H134.72l4.092-10.428h21.582Zm60.238-22.176c0,15.246-9.24,22.176-23.694,22.176h-19.14V185.942h18.678c14.586,0,24.156,6.996,24.156,22.374Z"/>
  <path class="cls-2" d="M76,29h35A35,35,0,0,1,76,64Z"/>
  <path class="cls-2" d="M146,29a35,35,0,0,0-35,35v77h35V64h35V29Z"/>
</svg>
