<svg height="250" viewBox="0 0 250 250" width="250" xmlns="http://www.w3.org/2000/svg" xmlns:xlink="http://www.w3.org/1999/xlink"><linearGradient id="a" gradientUnits="userSpaceOnUse" x1="87.19722195656" x2="162.80265736765" y1="21.14256681172" y2="228.85731055937"><stop offset="0" stop-color="#a440f2"/><stop offset=".13" stop-color="#9f47ef"/><stop offset=".31" stop-color="#915ae7"/><stop offset=".53" stop-color="#7a7ad9"/><stop offset=".77" stop-color="#5ba5c7"/><stop offset="1" stop-color="#38d6b2"/></linearGradient><path d="m250 125c0 69.035156-55.964844 125-125 125s-125-55.964844-125-125 55.964844-125 125-125 125 55.964844 125 125zm0 0" fill="#1d1d3c"/><path d="m235.492188 125c0 61.023438-49.46875 110.492188-110.492188 110.492188s-110.492188-49.46875-110.492188-110.492188 49.46875-110.492188 110.492188-110.492188 110.492188 49.46875 110.492188 110.492188zm0 0" fill="url(#a)"/><path d="m227.65625 125c0 56.695312-45.960938 102.65625-102.65625 102.65625s-102.65625-45.960938-102.65625-102.65625 45.960938-102.65625 102.65625-102.65625 102.65625 45.960938 102.65625 102.65625zm0 0" fill="#1d1d3c"/><path d="m177.132812 57.128906h-121.644531v69.492188h34.753907v69.511718h69.515624v-69.511718h34.753907v-69.492188zm0 0" fill="#1d1d3c"/><path d="m156.902344 76.796875h-79.757813v15.953125h31.902344v63.808594h31.90625v-63.808594h31.902344v-15.953125zm0 0" fill="#fff"/><path d="m107.621094 176.605469h34.757812v4.292969h-34.757812zm0 0" fill="#38d6b2"/></svg>