
<svg xmlns="http://www.w3.org/2000/svg" xmlns:xlink="http://www.w3.org/1999/xlink" width="250px" height="250px" viewBox="0 0 250 250" version="1.1">
<g id="surface1">
<path style=" stroke:none;fill-rule:nonzero;fill:rgb(95.686275%,23.529412%,23.529412%);fill-opacity:1;" d="M 0 23.4375 C 0 10.492188 10.492188 0 23.4375 0 L 226.5625 0 C 239.507812 0 250 10.492188 250 23.4375 L 250 226.5625 C 250 239.507812 239.507812 250 226.5625 250 L 23.4375 250 C 10.492188 250 0 239.507812 0 226.5625 Z M 0 23.4375 "/>
<path style=" stroke:none;fill-rule:nonzero;fill:rgb(100%,100%,100%);fill-opacity:1;" d="M 150.988281 189.0625 C 157.949219 189.0625 160.785156 190.414062 160.785156 194.539062 L 160.785156 194.667969 C 160.785156 198.988281 157.175781 200.277344 151.179688 200.277344 L 138.933594 200.277344 L 138.933594 189.0625 Z M 150.988281 189.0625 "/>
<path style=" stroke:none;fill-rule:nonzero;fill:rgb(100%,100%,100%);fill-opacity:1;" d="M 150.40625 207.6875 C 158.398438 207.6875 161.429688 209.105469 161.429688 213.554688 L 161.429688 213.617188 C 161.429688 217.804688 158.851562 219.609375 150.019531 219.609375 L 138.933594 219.609375 L 138.933594 207.6875 Z M 150.40625 207.6875 "/>
<path style=" stroke:none;fill-rule:nonzero;fill:rgb(100%,100%,100%);fill-opacity:1;" d="M 211.007812 197.375 C 211.007812 191.894531 207.460938 189.578125 199.984375 189.578125 L 189.414062 189.578125 L 189.414062 205.171875 L 200.242188 205.171875 C 207.65625 205.171875 211.007812 202.726562 211.007812 197.375 Z M 211.007812 197.375 "/>
<path style=" stroke:none;fill-rule:evenodd;fill:rgb(100%,100%,100%);fill-opacity:1;" d="M 23.4375 166.015625 C 14.808594 166.015625 7.8125 173.011719 7.8125 181.640625 L 7.8125 226.5625 C 7.8125 235.191406 14.808594 242.1875 23.4375 242.1875 L 226.5625 242.1875 C 235.191406 242.1875 242.1875 235.191406 242.1875 226.5625 L 242.1875 181.640625 C 242.1875 173.011719 235.191406 166.015625 226.5625 166.015625 Z M 118.714844 227.539062 L 111.300781 227.539062 L 110.839844 221.191406 C 108.886719 225.097656 104.019531 228.632812 94.160156 228.632812 C 81.398438 228.632812 73.535156 221.738281 73.535156 206.335938 L 73.535156 203.5625 C 73.535156 188.609375 82.75 180.617188 96.671875 180.617188 C 109.433594 180.617188 117.296875 186.417969 118.457031 197.570312 L 108.210938 197.570312 C 107.5625 192.605469 104.40625 189.0625 96.738281 189.0625 C 87.84375 189.0625 83.203125 193.703125 83.203125 203.820312 L 83.203125 206.140625 C 83.136719 215.875 87.519531 220.386719 96.351562 220.386719 C 104.726562 220.386719 108.660156 216.519531 109.175781 211.105469 L 95.191406 211.105469 L 95.191406 203.175781 L 118.714844 203.175781 Z M 68.941406 181.585938 L 68.941406 189.769531 L 54.117188 189.769531 L 54.117188 227.539062 L 44.578125 227.539062 L 44.578125 189.769531 L 30.398438 189.769531 L 30.398438 181.585938 Z M 151.179688 227.539062 C 164.394531 227.539062 171.03125 223.414062 171.03125 214.328125 L 171.03125 214.261719 C 171.03125 208.332031 168.132812 205.304688 162.523438 203.949219 C 167.550781 202.402344 170 199.308594 170 193.703125 L 170 193.507812 C 170 185.320312 163.878906 181.582031 150.535156 181.582031 L 129.78125 181.582031 L 129.78125 227.539062 Z M 220.480469 197.4375 C 220.480469 207.363281 213.90625 213.230469 200.566406 213.164062 L 189.414062 213.164062 L 189.414062 227.539062 L 180.132812 227.539062 L 180.132812 181.585938 L 199.921875 181.585938 C 214.292969 181.585938 220.480469 187.382812 220.480469 197.4375 Z M 220.480469 197.4375 "/>
<path style=" stroke:none;fill-rule:nonzero;fill:rgb(100%,100%,100%);fill-opacity:1;" d="M 74.21875 28.320312 L 108.398438 28.320312 C 108.398438 47.195312 93.09375 62.5 74.21875 62.5 Z M 74.21875 28.320312 "/>
<path style=" stroke:none;fill-rule:nonzero;fill:rgb(100%,100%,100%);fill-opacity:1;" d="M 142.578125 28.320312 C 123.703125 28.320312 108.398438 43.625 108.398438 62.5 L 108.398438 137.695312 L 142.578125 137.695312 L 142.578125 62.5 L 176.757812 62.5 L 176.757812 28.320312 Z M 142.578125 28.320312 "/>
</g>
</svg>
