<svg height="250" viewBox="0 0 250 250" width="250" xmlns="http://www.w3.org/2000/svg"><path d="m0 23.4375c0-12.945312 10.492188-23.4375 23.4375-23.4375h203.125c12.945312 0 23.4375 10.492188 23.4375 23.4375v203.125c0 12.945312-10.492188 23.4375-23.4375 23.4375h-203.125c-12.945312 0-23.4375-10.492188-23.4375-23.4375zm0 0" fill="#f43c3c"/><g fill="#fff"><path d="m150.988281 189.0625c6.960938 0 9.796875 1.351562 9.796875 5.476562v.128907c0 4.320312-3.609375 5.609375-9.605468 5.609375h-12.246094v-11.214844zm0 0"/><path d="m150.40625 207.6875c7.992188 0 11.023438 1.417969 11.023438 5.867188v.0625c0 4.1875-2.578126 5.992187-11.410157 5.992187h-11.085937v-11.921875zm0 0"/><path d="m211.007812 197.375c0-5.480469-3.546874-7.796875-11.023437-7.796875h-10.570313v15.59375h10.828126c7.414062 0 10.765624-2.445313 10.765624-7.796875zm0 0"/><path d="m23.4375 166.015625c-8.628906 0-15.625 6.996094-15.625 15.625v44.921875c0 8.628906 6.996094 15.625 15.625 15.625h203.125c8.628906 0 15.625-6.996094 15.625-15.625v-44.921875c0-8.628906-6.996094-15.625-15.625-15.625zm95.277344 61.523437h-7.414063l-.460937-6.347656c-1.953125 3.90625-6.820313 7.441406-16.679688 7.441406-12.761718 0-20.625-6.894531-20.625-22.296874v-2.773438c0-14.953125 9.214844-22.945312 23.136719-22.945312 12.761719 0 20.625 5.800781 21.785156 16.953124h-10.246093c-.648438-4.964843-3.804688-8.507812-11.472657-8.507812-8.894531 0-13.535156 4.640625-13.535156 14.757812v2.320313c-.066406 9.734375 4.316406 14.246094 13.148437 14.246094 8.375 0 12.308594-3.867188 12.824219-9.28125h-13.984375v-7.929688h23.523438zm-49.773438-45.953124v8.183593h-14.824218v37.769531h-9.539063v-37.769531h-14.179687v-8.183593zm82.238282 45.953124c13.214843 0 19.851562-4.125 19.851562-13.210937v-.066406c0-5.929688-2.898438-8.957031-8.507812-10.3125 5.027343-1.546875 7.476562-4.640625 7.476562-10.246094v-.195313c0-8.1875-6.121094-11.925781-19.464844-11.925781h-20.753906v45.957031zm69.300781-30.101562c0 9.925781-6.574219 15.792969-19.914063 15.726562h-11.152344v14.375h-9.28125v-45.953124h19.789063c14.371094 0 20.558594 5.796874 20.558594 15.851562zm0 0" fill-rule="evenodd"/><path d="m74.21875 28.320312h34.179688c0 18.875-15.304688 34.179688-34.179688 34.179688zm0 0"/><path d="m142.578125 28.320312c-18.875 0-34.179687 15.304688-34.179687 34.179688v75.195312h34.179687v-75.195312h34.179687v-34.179688zm0 0"/></g></svg>