<svg height="250" viewBox="0 0 250 250" width="250" xmlns="http://www.w3.org/2000/svg"><path d="m0 23.4375c0-12.945312 10.492188-23.4375 23.4375-23.4375h203.125c12.945312 0 23.4375 10.492188 23.4375 23.4375v203.125c0 12.945312-10.492188 23.4375-23.4375 23.4375h-203.125c-12.945312 0-23.4375-10.492188-23.4375-23.4375zm0 0" fill="#f57a21"/><g fill="#fff"><path d="m212.175781 203.820312c0-9.796874-4.964843-14.117187-14.503906-14.117187h-8.507813v29.648437h8.894532c9.347656 0 14.117187-4.1875 14.117187-13.984374zm0 0"/><path d="m23.4375 166.015625c-8.628906 0-15.625 6.996094-15.625 15.625v44.921875c0 8.628906 6.996094 15.625 15.625 15.625h203.125c8.628906 0 15.625-6.996094 15.625-15.625v-44.921875c0-8.628906-6.996094-15.625-15.625-15.625zm43.492188 15.570313v8.183593h-14.824219v37.769531h-9.539063v-37.769531h-14.179687v-8.183593zm50.351562 45.953124h-9.28125v-18.5h-22.496094v18.5h-9.410156v-45.953124h9.410156v18.496093h22.496094v-18.496093h9.28125zm44.933594 0h10.894531l-18.179687-28.875 17.148437-17.082031h-12.054687l-21.335938 21.527344v-21.523437h-9.40625v45.953124h9.40625v-13.984374l9.476562-9.347657zm59.433594-21.65625c0 14.890626-9.023438 21.65625-23.136719 21.65625h-18.691407v-45.953124h18.238282c14.246094 0 23.589844 6.832031 23.589844 21.847656zm0 0" fill-rule="evenodd"/><path d="m74.21875 28.320312h34.179688c0 18.875-15.304688 34.179688-34.179688 34.179688zm0 0"/><path d="m142.578125 28.320312c-18.875 0-34.179687 15.304688-34.179687 34.179688v75.195312h34.179687v-75.195312h34.179687v-34.179688zm0 0"/></g></svg>