<svg id="Layer_1" data-name="Layer 1" xmlns="http://www.w3.org/2000/svg" viewBox="0 0 256 256">
  <defs>
    <style>
      .cls-1 {
        fill: #f57a21;
      }

      .cls-2, .cls-3 {
        fill: #fff;
      }

      .cls-3 {
        fill-rule: evenodd;
      }
    </style>
  </defs>
  <path class="cls-1" d="M0,24A24,24,0,0,1,24,0H232a23.99992,23.99992,0,0,1,24,24V232a23.99979,23.99979,0,0,1-24,24H24A23.99992,23.99992,0,0,1,0,232Z"/>
  <path class="cls-2" d="M217.267,208.712c0-10.032-5.082-14.454-14.85-14.454h-8.712v30.36h9.108c9.57,0,14.454-4.29,14.454-14.322Z"/>
  <path class="cls-3" d="M24,170A15.99968,15.99968,0,0,0,8,186v46a15.99968,15.99968,0,0,0,16,16H232a15.99942,15.99942,0,0,0,16-16V186a15.99942,15.99942,0,0,0-16-16Zm44.5344,15.942v8.382h-15.18V233h-9.768V194.324h-14.52v-8.382ZM120.095,233h-9.504V214.058H87.5574V233h-9.636V185.942h9.636v18.942H110.591V185.942h9.504Zm46.013,0h11.154L158.65,203.432l17.556-17.49H163.864l-21.846,22.044V185.942h-9.636V233h9.636V218.678l9.702-9.57Zm60.861-22.176c0,15.246-9.24,22.176-23.694,22.176h-19.14V185.942h18.678c14.586,0,24.156,6.996,24.156,22.374Z"/>
  <path class="cls-2" d="M76,29h35A35,35,0,0,1,76,64Z"/>
  <path class="cls-2" d="M146,29a35,35,0,0,0-35,35v77h35V64h35V29Z"/>
</svg>
