
<svg xmlns="http://www.w3.org/2000/svg" xmlns:xlink="http://www.w3.org/1999/xlink" width="250px" height="250px" viewBox="0 0 250 250" version="1.1">
<g id="surface1">
<path style=" stroke:none;fill-rule:nonzero;fill:rgb(96.078432%,47.843137%,12.941177%);fill-opacity:1;" d="M 0 23.4375 C 0 10.492188 10.492188 0 23.4375 0 L 226.5625 0 C 239.507812 0 250 10.492188 250 23.4375 L 250 226.5625 C 250 239.507812 239.507812 250 226.5625 250 L 23.4375 250 C 10.492188 250 0 239.507812 0 226.5625 Z M 0 23.4375 "/>
<path style=" stroke:none;fill-rule:nonzero;fill:rgb(100%,100%,100%);fill-opacity:1;" d="M 212.175781 203.820312 C 212.175781 194.023438 207.210938 189.703125 197.671875 189.703125 L 189.164062 189.703125 L 189.164062 219.351562 L 198.058594 219.351562 C 207.40625 219.351562 212.175781 215.164062 212.175781 205.367188 Z M 212.175781 203.820312 "/>
<path style=" stroke:none;fill-rule:evenodd;fill:rgb(100%,100%,100%);fill-opacity:1;" d="M 23.4375 166.015625 C 14.808594 166.015625 7.8125 173.011719 7.8125 181.640625 L 7.8125 226.5625 C 7.8125 235.191406 14.808594 242.1875 23.4375 242.1875 L 226.5625 242.1875 C 235.191406 242.1875 242.1875 235.191406 242.1875 226.5625 L 242.1875 181.640625 C 242.1875 173.011719 235.191406 166.015625 226.5625 166.015625 Z M 66.929688 181.585938 L 66.929688 189.769531 L 52.105469 189.769531 L 52.105469 227.539062 L 42.566406 227.539062 L 42.566406 189.769531 L 28.386719 189.769531 L 28.386719 181.585938 Z M 117.28125 227.539062 L 108 227.539062 L 108 209.039062 L 85.503906 209.039062 L 85.503906 227.539062 L 76.09375 227.539062 L 76.09375 181.585938 L 85.503906 181.585938 L 85.503906 200.082031 L 108 200.082031 L 108 181.585938 L 117.28125 181.585938 Z M 162.214844 227.539062 L 173.109375 227.539062 L 154.929688 198.664062 L 172.078125 181.582031 L 160.023438 181.582031 L 138.6875 203.109375 L 138.6875 181.585938 L 129.28125 181.585938 L 129.28125 227.539062 L 138.6875 227.539062 L 138.6875 213.554688 L 148.164062 204.207031 Z M 221.648438 205.882812 C 221.648438 220.773438 212.625 227.539062 198.511719 227.539062 L 179.820312 227.539062 L 179.820312 181.585938 L 198.058594 181.585938 C 212.304688 181.585938 221.648438 188.417969 221.648438 203.433594 Z M 221.648438 205.882812 "/>
<path style=" stroke:none;fill-rule:nonzero;fill:rgb(100%,100%,100%);fill-opacity:1;" d="M 74.21875 28.320312 L 108.398438 28.320312 C 108.398438 47.195312 93.09375 62.5 74.21875 62.5 Z M 74.21875 28.320312 "/>
<path style=" stroke:none;fill-rule:nonzero;fill:rgb(100%,100%,100%);fill-opacity:1;" d="M 142.578125 28.320312 C 123.703125 28.320312 108.398438 43.625 108.398438 62.5 L 108.398438 137.695312 L 142.578125 137.695312 L 142.578125 62.5 L 176.757812 62.5 L 176.757812 28.320312 Z M 142.578125 28.320312 "/>
</g>
</svg>
