<svg viewBox="0 0 64 64" fill="none" xmlns="http://www.w3.org/2000/svg">
<rect width="64" height="64" fill="#211E32"/>
<path fill-rule="evenodd" clip-rule="evenodd" d="M29.9109 28.1373C32.6638 28.1373 34.8056 30.1411 34.8056 32.5037C34.8056 34.8663 32.6677 36.8692 29.9109 36.8692V36.8701H22.5833C22.0164 36.8701 21.5571 37.2946 21.5571 37.8195V39.9779C21.5571 40.5019 22.0164 40.9282 22.5833 40.9282H29.9119V40.9273C34.9882 40.9273 39.192 37.2005 39.192 32.5037C39.192 27.8051 34.9824 24.0791 29.9109 24.0791H22.5824C22.0154 24.0791 21.5562 24.5045 21.5562 25.0295V27.1878C21.5562 27.7118 22.0154 28.1382 22.5824 28.1382H29.9109V28.1373Z" fill="white"/>
<path fill-rule="evenodd" clip-rule="evenodd" d="M18.4635 25.0142C18.4628 24.763 18.3543 24.5223 18.162 24.3449C17.9697 24.1674 17.7091 24.0676 17.4373 24.0674H5.38801C5.11567 24.0676 4.85455 24.1677 4.66197 24.3457C4.4694 24.5238 4.36109 24.7651 4.36084 25.0169V27.1752C4.36084 27.7001 4.8211 28.1256 5.38801 28.1256H9.219V39.9786C9.219 40.5026 9.67925 40.9272 10.2462 40.9272H12.582C13.149 40.9272 13.6092 40.5026 13.6092 39.9786V28.1256H17.4421C18.009 28.1256 18.4703 27.6992 18.4683 27.1743L18.4635 25.0142V25.0142Z" fill="white"/>
<path d="M50.1191 29.3438L47.0078 32.2064L55.8286 40.3601C56.0212 40.5377 56.2821 40.6374 56.5541 40.6374C56.8261 40.6374 57.0869 40.5377 57.2795 40.3601L58.9322 38.8324C59.1243 38.6544 59.2322 38.4132 59.2322 38.1618C59.2322 37.9104 59.1243 37.6692 58.9322 37.4912L50.1181 29.3438H50.1191Z" fill="white"/>
<path d="M47.0151 32.1986L50.113 35.0737L58.9338 26.9201C59.1261 26.7422 59.2342 26.501 59.2342 26.2495C59.2342 25.998 59.1261 25.7568 58.9338 25.5789L57.2801 24.0512C57.0875 23.8733 56.8264 23.7734 56.5542 23.7734C56.2819 23.7734 56.0208 23.8733 55.8282 24.0512L47.0151 32.1986Z" fill="white"/>
<path d="M50.1096 29.3438L53.2199 32.2064L44.4001 40.3601C44.2075 40.5377 43.9466 40.6374 43.6746 40.6374C43.4026 40.6374 43.1417 40.5377 42.9492 40.3601L41.2965 38.8324C41.1041 38.6545 40.9961 38.4133 40.9961 38.1618C40.9961 37.9103 41.1041 37.6691 41.2965 37.4912L50.1096 29.3438Z" fill="#E3163B"/>
<path d="M53.2155 32.1982L50.1176 35.0733L41.2978 26.9196C41.1057 26.7416 40.9978 26.5005 40.9978 26.249C40.9978 25.9976 41.1057 25.7564 41.2978 25.5784L42.9505 24.0507C43.1431 23.8732 43.4039 23.7734 43.6759 23.7734C43.9479 23.7734 44.2088 23.8732 44.4014 24.0507L53.2155 32.1982Z" fill="#E3163B"/>
</svg>
