
<svg xmlns="http://www.w3.org/2000/svg" xmlns:xlink="http://www.w3.org/1999/xlink" width="250px" height="250px" viewBox="0 0 250 250" version="1.1">
<g id="surface1">
<path style=" stroke:none;fill-rule:nonzero;fill:rgb(14.117648%,86.666667%,48.235294%);fill-opacity:1;" d="M 101.546875 23.910156 L 155.667969 0 L 155.214844 63.15625 L 223.3125 63.15625 L 223.3125 106.914062 L 154.765625 106.914062 L 154.765625 182.703125 C 154.765625 205.710938 193.097656 208.417969 207.527344 200.746094 L 220.605469 240.445312 C 188.585938 259.390625 101.097656 254.875 101.097656 183.152344 L 101.097656 23.902344 L 101.550781 23.902344 Z M 101.546875 23.910156 "/>
<path style=" stroke:none;fill-rule:nonzero;fill:rgb(14.117648%,86.666667%,48.235294%);fill-opacity:1;" d="M 75.390625 88.871094 C 75.390625 105.3125 64.488281 118.644531 51.039062 118.644531 C 37.589844 118.644531 26.6875 105.3125 26.6875 88.871094 C 26.6875 72.425781 37.589844 59.097656 51.039062 59.097656 C 64.488281 59.097656 75.390625 72.425781 75.390625 88.871094 Z M 75.390625 88.871094 "/>
</g>
</svg>
