<svg height="250" viewBox="0 0 250 250" width="250" xmlns="http://www.w3.org/2000/svg"><path d="m250 125c0 69.035156-55.964844 125-125 125s-125-55.964844-125-125 55.964844-125 125-125 125 55.964844 125 125zm0 0" fill="#f8cf03"/><path d="m193.890625 77c-2.914063-2.914062-6.757813-4.371094-11.527344-4.375h-57.222656c-4.765625 0-8.609375 1.457031-11.527344 4.375-2.914062 2.917969-4.375 6.757812-4.375 11.523438v95.375c0 4.769531 1.460938 8.609374 4.375 11.527343 2.917969 2.914063 6.761719 4.375 11.527344 4.375s8.609375-1.460937 11.523437-4.375c2.917969-2.917969 4.375-6.757812 4.375-11.527343v-71.523438c0-5.296875 2.652344-7.949219 7.949219-7.949219h33.382813c4.765625 0 8.609375-1.460937 11.527344-4.375 2.914062-2.917969 4.371093-6.757812 4.375-11.527343-.015626-4.773438-1.476563-8.613282-4.382813-11.523438zm-104.910156 0c-2.914063-2.914062-6.753907-4.371094-11.523438-4.375h-9.535156c-4.765625 0-8.609375 1.457031-11.527344 4.375-2.914062 2.917969-4.375 6.757812-4.375 11.523438 0 4.769531 1.460938 8.609374 4.375 11.527343 2.917969 2.914063 6.761719 4.375 11.527344 4.375h9.53125c4.769531 0 8.609375-1.460937 11.527344-4.375 2.914062-2.917969 4.375-6.757812 4.375-11.527343-.007813-4.773438-1.46875-8.613282-4.375-11.523438zm0 0" fill="#fff"/></svg>