
<svg xmlns="http://www.w3.org/2000/svg" xmlns:xlink="http://www.w3.org/1999/xlink" width="250px" height="250px" viewBox="0 0 250 250" version="1.1">
<g id="surface1">
<path style=" stroke:none;fill-rule:nonzero;fill:rgb(97.254902%,81.176472%,1.176471%);fill-opacity:1;" d="M 250 125 C 250 194.035156 194.035156 250 125 250 C 55.964844 250 0 194.035156 0 125 C 0 55.964844 55.964844 0 125 0 C 194.035156 0 250 55.964844 250 125 Z M 250 125 "/>
<path style=" stroke:none;fill-rule:nonzero;fill:rgb(100%,100%,100%);fill-opacity:1;" d="M 193.890625 77 C 190.976562 74.085938 187.132812 72.628906 182.363281 72.625 L 125.140625 72.625 C 120.375 72.625 116.53125 74.082031 113.613281 77 C 110.699219 79.917969 109.238281 83.757812 109.238281 88.523438 L 109.238281 183.898438 C 109.238281 188.667969 110.699219 192.507812 113.613281 195.425781 C 116.53125 198.339844 120.375 199.800781 125.140625 199.800781 C 129.90625 199.800781 133.75 198.339844 136.664062 195.425781 C 139.582031 192.507812 141.039062 188.667969 141.039062 183.898438 L 141.039062 112.375 C 141.039062 107.078125 143.691406 104.425781 148.988281 104.425781 L 182.371094 104.425781 C 187.136719 104.425781 190.980469 102.964844 193.898438 100.050781 C 196.8125 97.132812 198.269531 93.292969 198.273438 88.523438 C 198.257812 83.75 196.796875 79.910156 193.890625 77 Z M 88.980469 77 C 86.066406 74.085938 82.226562 72.628906 77.457031 72.625 L 67.921875 72.625 C 63.15625 72.625 59.3125 74.082031 56.394531 77 C 53.480469 79.917969 52.019531 83.757812 52.019531 88.523438 C 52.019531 93.292969 53.480469 97.132812 56.394531 100.050781 C 59.3125 102.964844 63.15625 104.425781 67.921875 104.425781 L 77.453125 104.425781 C 82.222656 104.425781 86.0625 102.964844 88.980469 100.050781 C 91.894531 97.132812 93.355469 93.292969 93.355469 88.523438 C 93.347656 83.75 91.886719 79.910156 88.980469 77 Z M 88.980469 77 "/>
</g>
</svg>
