<svg height="250" viewBox="0 0 250 250" width="250" xmlns="http://www.w3.org/2000/svg" xmlns:xlink="http://www.w3.org/1999/xlink"><linearGradient id="a" gradientTransform="matrix(249.808594 0 0 240.464844 .117188 .96875)" gradientUnits="userSpaceOnUse" x1=".193" x2=".8" y1=".895" y2=".102"><stop offset="0" stop-color="#b400ff"/><stop offset="1" stop-color="#ff3a52"/></linearGradient><path d="m246.457031 89.484375v71.011719c.015625 18.949218-11.007812 36.460937-28.914062 45.929687l-63.613281 35.507813c-1.820313.960937-3.695313 1.839844-5.609376 2.628906l-.300781.117188c-14.773437 5.867187-31.546875 5.824218-46.28125-.117188l-.300781-.136719c-1.804688-.734375-3.578125-1.550781-5.328125-2.480469l-1.550781-.820312-62.070313-34.730469c-17.898437-9.472656-28.917969-26.984375-28.902343-45.929687v-70.980469c0-18.949219 7.535156-33.277344 25.429687-42.757813l67.101563-35.472656c15.953124-8.441406 35.339843-9.417968 52.207031-2.625 1.917969.78125 3.792969 1.660156 5.609375 2.625l67.101562 35.507813c17.890625 9.460937 25.445313 23.777343 25.445313 42.714843zm0 0" fill="#fff"/><path d="m249.925781 89.476562v71.007813c.015625 18.949219-11.011719 36.464844-28.917969 45.929687l-62.21875 33.082032-2.632812 1.3125c-1.699219.859375-3.769531.832031-5.441406-.074219s-2.695313-2.554687-2.6875-4.335937v-50.550782c-14.820313-6.070312-31.734375-6.160156-46.628906-.246094v50.601563c.003906 1.769531-1.007813 3.410156-2.664063 4.320313-1.652344.90625-3.707031.953124-5.410156.113281l-2.160157-1.058594-62.140624-33.199219c-17.898438-9.472656-28.917969-26.980468-28.90625-45.921875v-70.980469c-.011719-18.945312 11.007812-36.457031 28.90625-45.929687l67.097656-35.472656c15.957031-8.441407 35.34375-9.414063 52.210937-2.625 1.917969.785156 3.789063 1.660156 5.609375 2.625l67.097656 35.511719c17.882813 9.464843 28.894532 26.960937 28.886719 45.890624zm0 0" fill="url(#a)"/><path d="m204.765625 121.222656c-.253906 7.574219-4.878906 14.449219-12.144531 18.058594-7.269532 3.605469-16.078125 3.398438-23.136719-.546875l-18.632813-10.609375c-.570312-.355469-1.308593-.386719-1.914062-.085938-.601562.300782-.972656.886719-.957031 1.515626v115.082031c-14.792969 5.875-31.585938 5.832031-46.34375-.117188l-.300781-.132812v-114.832031c.015624-.628907-.351563-1.214844-.957032-1.515626-.605468-.300781-1.34375-.269531-1.910156.085938l-18.636719 10.609375c-7.105469 4.453125-16.3125 4.9375-23.925781 1.257813-7.613281-3.683594-12.378906-10.921876-12.382812-18.8125 0-7.886719 4.757812-15.128907 12.367187-18.816407l56.769531-32.367187c7.417969-4.132813 16.734375-4.132813 24.15625 0l56.769532 32.367187c7.175781 3.96875 11.449218 11.183594 11.179687 18.859375zm0 0" fill="#fff"/><path d="m244.308594 163.210938c-3.144532 0-5.691406-2.339844-5.691406-5.222657v-68.625c-.085938-15.085937-8.882813-29.003906-23.121094-36.574219l-67.695313-35.902343c-14.550781-7.519531-32.375-7.347657-46.746093.457031l-59.070313 31.1875c-2.722656 1.40625-6.171875.535156-7.730469-1.945312-1.558594-2.484376-.640625-5.65625 2.054688-7.105469l59.007812-31.121094c17.886719-9.6875 40.054688-9.886719 58.144532-.515625l67.738281 35.925781c17.738281 9.441407 28.695312 26.789063 28.796875 45.59375v68.625c0 2.878907-2.542969 5.214844-5.6875 5.222657zm0 0" fill="#ff7db7"/><path d="m218.339844 53.484375c-.992188-.007813-1.964844-.25-2.820313-.703125l-67.320312-35.71875c-1.808594-.894531-2.953125-2.617188-2.988281-4.5-.035157-1.886719 1.039062-3.644531 2.816406-4.597656 1.773437-.953125 3.972656-.953125 5.75-.003906l.128906.066406 67.320312 35.71875c2.230469 1.183594 3.3125 3.589844 2.644532 5.871094-.667969 2.28125-2.925782 3.867187-5.503906 3.867187zm0 0" fill="#ffd6e6"/><path d="m96.035156 241.339844c-1.003906 0-1.992187-.246094-2.855468-.710938l-64.644532-34.523437c-17.882812-9.597657-28.773437-27.253907-28.53124975-46.25v-54.21875c0-2.882813 2.55078175-5.222657 5.69531275-5.222657 3.148437 0 5.695312 2.339844 5.695312 5.222657v54.269531c-.214843 15.257812 8.523438 29.449219 22.882813 37.164062l64.636718 34.515626c2.222657 1.1875 3.304688 3.597656 2.632813 5.875-.671875 2.28125-2.929687 3.863281-5.503906 3.859374zm0 0" fill="#811585"/><path d="m95.953125 241.339844c-1.003906 0-1.988281-.242188-2.855469-.703125l-45.167968-24.027344c-2.71875-1.449219-3.640626-4.640625-2.0625-7.132813 1.578124-2.488281 5.0625-3.335937 7.777343-1.886718l45.171875 24.011718c2.230469 1.1875 3.316406 3.597657 2.644532 5.878907-.671876 2.28125-2.929688 3.863281-5.507813 3.859375zm0 0" fill="#5b115c"/><path d="m207.027344 138.441406c-1.953125 0-3.765625-.917968-4.8125-2.429687-1.042969-1.515625-1.167969-3.410157-.328125-5.027344 1.507812-2.90625 2.460937-6.027344 2.816406-9.226563.195313-7.074218-3.296875-13.808593-9.402344-18.136718l-59.816406-33.945313c-3.34375-1.601562-7.054687-2.453125-10.824219-2.484375-4.59375-.003906-9.085937 1.242188-12.90625 3.582032-2.621094 1.597656-6.15625.945312-7.898437-1.457032-1.742188-2.398437-1.03125-5.640625 1.585937-7.238281 5.714844-3.492187 12.429688-5.347656 19.296875-5.328125 5.753907.058594 11.40625 1.398438 16.46875 3.902344l60.796875 34.574218c9.140625 6.4375 14.371094 16.5 14.0625 27.0625-.429687 4.566407-1.742187 9.023438-3.875 13.167969-.945312 1.828125-2.957031 2.992188-5.164062 2.984375zm0 0" fill="#ff7db7"/><path d="m167.5625 86.945312c-1.0625 0-2.105469-.277343-3.003906-.796874l-19.390625-11.007813c-1.765625-.972656-2.816407-2.742187-2.757813-4.625.058594-1.886719 1.222656-3.59375 3.046875-4.472656 1.820313-.875 4.015625-.78125 5.742188.242187l19.390625 11.011719c2.160156 1.230469 3.164062 3.628906 2.460937 5.867187-.699219 2.242188-2.9375 3.785157-5.480469 3.78125zm0 0" fill="#ffd6e6"/></svg>