
<svg xmlns="http://www.w3.org/2000/svg" xmlns:xlink="http://www.w3.org/1999/xlink" width="250px" height="250px" viewBox="0 0 250 250" version="1.1">
<defs>
<linearGradient id="linear0" gradientUnits="userSpaceOnUse" x1="0" y1="0" x2="1" y2="0" gradientTransform="matrix(17.314424,67.029757,-67.029757,17.314424,110.018706,89.345167)">
<stop offset="0" style="stop-color:rgb(0%,100%,56.078434%);stop-opacity:1;"/>
<stop offset="0.43" style="stop-color:rgb(32.549021%,99.215686%,69.803923%);stop-opacity:1;"/>
<stop offset="1" style="stop-color:rgb(40.784314%,98.823529%,73.333335%);stop-opacity:1;"/>
</linearGradient>
</defs>
<g id="surface1">
<path style=" stroke:none;fill-rule:evenodd;fill:rgb(14.901961%,14.901961%,14.901961%);fill-opacity:1;" d="M 250 125 C 250 194.035156 194.035156 250 125 250 C 55.964844 250 0 194.035156 0 125 C 0 55.964844 55.964844 0 125 0 C 194.035156 0 250 55.964844 250 125 Z M 250 125 "/>
<path style=" stroke:none;fill-rule:nonzero;fill:url(#linear0);" d="M 191.011719 98.367188 C 195.75 116.625 103.554688 161.765625 61.765625 172.550781 C 19.976562 183.332031 142.484375 130.351562 137.746094 112.089844 C 133.007812 93.832031 35.335938 108.824219 77.082031 98.039062 C 118.832031 87.253906 186.316406 80.105469 191.011719 98.367188 Z M 191.011719 98.367188 "/>
</g>
</svg>
