<svg height="250" viewBox="0 0 250 250" width="250" xmlns="http://www.w3.org/2000/svg"><path d="m250 125c0 69.035156-55.964844 125-125 125s-125-55.964844-125-125 55.964844-125 125-125 125 55.964844 125 125zm0 0" fill="#ecfaf6"/><path d="m125 249.21875c68.605469 0 124.21875-55.613281 124.21875-124.21875s-55.613281-124.21875-124.21875-124.21875-124.21875 55.613281-124.21875 124.21875 55.613281 124.21875 124.21875 124.21875zm0 .78125c69.035156 0 125-55.964844 125-125s-55.964844-125-125-125-125 55.964844-125 125 55.964844 125 125 125zm0 0" fill="#00d9a1" fill-rule="evenodd"/><path d="m242.1875 125c0 64.722656-52.464844 117.1875-117.1875 117.1875s-117.1875-52.464844-117.1875-117.1875 52.464844-117.1875 117.1875-117.1875 117.1875 52.464844 117.1875 117.1875zm0 0" fill="#00d9a1"/><g fill="#fff"><path d="m125 239.84375c63.425781 0 114.84375-51.417969 114.84375-114.84375s-51.417969-114.84375-114.84375-114.84375-114.84375 51.417969-114.84375 114.84375 51.417969 114.84375 114.84375 114.84375zm0 2.34375c64.722656 0 117.1875-52.464844 117.1875-117.1875s-52.464844-117.1875-117.1875-117.1875-117.1875 52.464844-117.1875 117.1875 52.464844 117.1875 117.1875 117.1875zm0 0" fill-rule="evenodd"/><path d="m59.015625 58.347656c9.480469 0 17.164063 7.6875 17.164063 17.167969v58.753906c0 27.023438 21.90625 48.929688 48.929687 48.929688s48.929687-21.90625 48.929687-48.929688v-58.753906c0-9.480469 7.6875-17.167969 17.167969-17.167969v75.921875c0 36.503907-29.59375 66.097657-66.097656 66.097657s-66.09375-29.59375-66.09375-66.097657zm0 0" fill-rule="evenodd"/><path d="m88.527344 86.214844c7.816406 0 14.152344 6.335937 14.152344 14.152344v2.335937c6.191406-4.808594 13.964843-7.667969 22.40625-7.667969 20.191406 0 36.5625 16.367188 36.5625 36.558594s-16.371094 36.558594-36.5625 36.558594c-20.191407 0-36.558594-16.367188-36.558594-36.558594 0-.386719.003906-.769531.019531-1.15625h-.019531zm14.152344 45.378906c0 12.375 10.03125 22.40625 22.40625 22.40625 12.378906 0 22.410156-10.03125 22.410156-22.40625s-10.035156-22.40625-22.410156-22.40625-22.40625 10.03125-22.40625 22.40625zm0 0" fill-rule="evenodd"/><path d="m162.34375 81.386719c0 4.652343-3.769531 8.421875-8.421875 8.421875s-8.425781-3.769532-8.425781-8.421875c0-4.652344 3.773437-8.425781 8.425781-8.425781s8.421875 3.773437 8.421875 8.425781zm0 0"/></g></svg>