<?xml version="1.0" encoding="UTF-8"?>
<!DOCTYPE svg PUBLIC "-//W3C//DTD SVG 1.1//EN" "http://www.w3.org/Graphics/SVG/1.1/DTD/svg11.dtd">
<svg xmlns="http://www.w3.org/2000/svg" version="1.1" width="512px" height="512px" style="shape-rendering:geometricPrecision; text-rendering:geometricPrecision; image-rendering:optimizeQuality; fill-rule:evenodd; clip-rule:evenodd" xmlns:xlink="http://www.w3.org/1999/xlink">
<g><path style="opacity:0.993" fill="#02f0cd" d="M 368.5,64.5 C 367.188,65.1451 366.188,66.1451 365.5,67.5C 366.393,70.0841 366.726,72.7508 366.5,75.5C 371.493,75.9157 376.493,76.2491 381.5,76.5C 381.833,81.8333 382.167,87.1667 382.5,92.5C 384.924,92.1924 387.257,92.5258 389.5,93.5C 391.005,94.8415 391.672,96.5082 391.5,98.5C 396.43,99.5946 401.43,100.261 406.5,100.5C 406.5,103.167 406.5,105.833 406.5,108.5C 409.167,108.5 411.833,108.5 414.5,108.5C 414.5,111.167 414.5,113.833 414.5,116.5C 417.167,116.5 419.833,116.5 422.5,116.5C 422.5,119.5 422.5,122.5 422.5,125.5C 425.167,125.5 427.833,125.5 430.5,125.5C 430.5,126.5 430.5,127.5 430.5,128.5C 431.833,128.5 433.167,128.5 434.5,128.5C 434.5,129.833 434.5,131.167 434.5,132.5C 435.833,132.5 437.167,132.5 438.5,132.5C 438.5,135.167 438.5,137.833 438.5,140.5C 440.833,140.5 443.167,140.5 445.5,140.5C 446.293,145.625 449.293,148.292 454.5,148.5C 454.5,151.167 454.5,153.833 454.5,156.5C 457.572,156.183 460.572,156.516 463.5,157.5C 465.126,160.128 467.126,162.461 469.5,164.5C 470.495,170.128 470.829,175.794 470.5,181.5C 473.211,181.815 475.544,181.148 477.5,179.5C 477.5,198.833 477.5,218.167 477.5,237.5C 475.167,237.5 472.833,237.5 470.5,237.5C 470.5,234.833 470.5,232.167 470.5,229.5C 467.833,229.5 465.167,229.5 462.5,229.5C 462.619,225.653 461.953,221.986 460.5,218.5C 459.167,218.5 457.833,218.5 456.5,218.5C 456.5,217.167 456.5,215.833 456.5,214.5C 451.673,212.569 447.34,213.236 443.5,216.5C 442.676,213.337 440.676,211.67 437.5,211.5C 437.666,201.161 437.5,190.828 437,180.5C 434.182,174.892 429.682,172.725 423.5,174C 417.14,177.512 410.806,181.012 404.5,184.5C 403.548,183.548 402.548,182.548 401.5,181.5C 402.651,180.269 403.817,180.269 405,181.5C 408.354,179.928 411.521,178.262 414.5,176.5C 414.5,175.5 414.5,174.5 414.5,173.5C 406.833,173.5 399.167,173.5 391.5,173.5C 391.666,169.486 391.499,165.486 391,161.5C 389.351,167.528 387.185,168.194 384.5,163.5C 383.675,162.614 382.675,162.281 381.5,162.5C 381.5,160.833 381.5,159.167 381.5,157.5C 389.761,152.423 397.928,147.09 406,141.5C 408.159,137.808 407.993,134.308 405.5,131C 359.998,103.748 314.332,76.748 268.5,50C 266.146,49.1529 263.812,48.3195 261.5,47.5C 261.5,46.5 261.5,45.5 261.5,44.5C 260.167,44.5 258.833,44.5 257.5,44.5C 257.437,41.0922 255.77,38.7589 252.5,37.5C 249.914,36.52 247.247,36.1866 244.5,36.5C 244.5,33.8333 244.5,31.1667 244.5,28.5C 241.833,28.5 239.167,28.5 236.5,28.5C 236.666,24.1539 236.499,19.8206 236,15.5C 234.989,16.3366 233.822,16.67 232.5,16.5C 232.502,18.8309 231.669,20.8309 230,22.5C 229.5,21.3333 228.667,20.5 227.5,20C 228.167,19.6667 228.833,19.3333 229.5,19C 228.619,18.2917 227.953,17.4584 227.5,16.5C 233.77,12.6924 240.103,8.85904 246.5,5C 252.08,3.48257 257.747,3.14924 263.5,4C 298.927,23.6307 333.927,43.7974 368.5,64.5 Z"/></g>
<g><path style="opacity:0.99" fill="#05ead1" d="M 261.5,47.5 C 255.587,46.2221 249.92,47.0555 244.5,50C 225.275,61.4428 205.942,72.6094 186.5,83.5C 188.258,78.7284 188.925,73.7284 188.5,68.5C 185.833,68.5 183.167,68.5 180.5,68.5C 180.5,65.8333 180.5,63.1667 180.5,60.5C 174.973,59.98 169.639,59.6467 164.5,59.5C 165.126,55.8046 164.126,54.9712 161.5,57C 162.258,58.3639 161.758,59.5305 160,60.5C 158.372,59.0383 158.205,57.3717 159.5,55.5C 181.668,41.6728 204.335,28.6728 227.5,16.5C 227.953,17.4584 228.619,18.2917 229.5,19C 228.833,19.3333 228.167,19.6667 227.5,20C 228.667,20.5 229.5,21.3333 230,22.5C 231.669,20.8309 232.502,18.8309 232.5,16.5C 233.822,16.67 234.989,16.3366 236,15.5C 236.499,19.8206 236.666,24.1539 236.5,28.5C 239.167,28.5 241.833,28.5 244.5,28.5C 244.5,31.1667 244.5,33.8333 244.5,36.5C 247.247,36.1866 249.914,36.52 252.5,37.5C 255.77,38.7589 257.437,41.0922 257.5,44.5C 258.833,44.5 260.167,44.5 261.5,44.5C 261.5,45.5 261.5,46.5 261.5,47.5 Z"/></g>
<g><path style="opacity:0.994" fill="#03f3c9" d="M 368.5,64.5 C 403.354,83.8459 437.854,103.846 472,124.5C 474.442,127.048 476.108,130.048 477,133.5C 477.5,148.83 477.667,164.163 477.5,179.5C 475.544,181.148 473.211,181.815 470.5,181.5C 470.829,175.794 470.495,170.128 469.5,164.5C 467.126,162.461 465.126,160.128 463.5,157.5C 460.572,156.516 457.572,156.183 454.5,156.5C 454.5,153.833 454.5,151.167 454.5,148.5C 449.293,148.292 446.293,145.625 445.5,140.5C 443.167,140.5 440.833,140.5 438.5,140.5C 438.5,137.833 438.5,135.167 438.5,132.5C 437.167,132.5 435.833,132.5 434.5,132.5C 434.5,131.167 434.5,129.833 434.5,128.5C 433.167,128.5 431.833,128.5 430.5,128.5C 430.5,127.5 430.5,126.5 430.5,125.5C 427.833,125.5 425.167,125.5 422.5,125.5C 422.5,122.5 422.5,119.5 422.5,116.5C 419.833,116.5 417.167,116.5 414.5,116.5C 414.5,113.833 414.5,111.167 414.5,108.5C 411.833,108.5 409.167,108.5 406.5,108.5C 406.5,105.833 406.5,103.167 406.5,100.5C 401.43,100.261 396.43,99.5946 391.5,98.5C 391.672,96.5082 391.005,94.8415 389.5,93.5C 387.257,92.5258 384.924,92.1924 382.5,92.5C 382.167,87.1667 381.833,81.8333 381.5,76.5C 376.493,76.2491 371.493,75.9157 366.5,75.5C 366.726,72.7508 366.393,70.0841 365.5,67.5C 366.188,66.1451 367.188,65.1451 368.5,64.5 Z"/></g>
<g><path style="opacity:0.996" fill="#02e3da" d="M 159.5,55.5 C 158.205,57.3717 158.372,59.0383 160,60.5C 161.758,59.5305 162.258,58.3639 161.5,57C 164.126,54.9712 165.126,55.8046 164.5,59.5C 169.639,59.6467 174.973,59.98 180.5,60.5C 180.5,63.1667 180.5,65.8333 180.5,68.5C 183.167,68.5 185.833,68.5 188.5,68.5C 188.925,73.7284 188.258,78.7284 186.5,83.5C 167.621,96.3536 147.955,108.02 127.5,118.5C 125.712,118.785 124.045,118.452 122.5,117.5C 123.5,115.409 122.833,113.743 120.5,112.5C 119.571,111.311 119.238,109.978 119.5,108.5C 114.833,107.833 112.167,105.167 111.5,100.5C 109.549,100.773 108.049,100.107 107,98.5C 104.196,100.344 101.03,101.011 97.5,100.5C 97.5,99.1667 97.5,97.8333 97.5,96.5C 99.5,96.5 101.5,96.5 103.5,96.5C 103.5,95.1667 103.5,93.8333 103.5,92.5C 104.833,92.5 106.167,92.5 107.5,92.5C 107.5,91.1667 107.5,89.8333 107.5,88.5C 105.901,88.7678 104.568,88.4345 103.5,87.5C 122.131,76.8486 140.798,66.1819 159.5,55.5 Z"/></g>
<g><path style="opacity:0.994" fill="#02dce1" d="M 103.5,87.5 C 104.568,88.4345 105.901,88.7678 107.5,88.5C 107.5,89.8333 107.5,91.1667 107.5,92.5C 106.167,92.5 104.833,92.5 103.5,92.5C 103.5,93.8333 103.5,95.1667 103.5,96.5C 101.5,96.5 99.5,96.5 97.5,96.5C 97.5,97.8333 97.5,99.1667 97.5,100.5C 101.03,101.011 104.196,100.344 107,98.5C 108.049,100.107 109.549,100.773 111.5,100.5C 112.167,105.167 114.833,107.833 119.5,108.5C 119.238,109.978 119.571,111.311 120.5,112.5C 122.833,113.743 123.5,115.409 122.5,117.5C 124.045,118.452 125.712,118.785 127.5,118.5C 121.563,122.81 115.23,126.643 108.5,130C 105.651,132.559 104.817,135.726 106,139.5C 108.205,142.04 110.705,144.207 113.5,146C 122.665,151.081 131.665,156.415 140.5,162C 148.927,170.353 155.76,179.853 161,190.5C 173.15,213.118 182.65,236.785 189.5,261.5C 186.518,261.963 183.518,262.296 180.5,262.5C 180.5,261.5 180.5,260.5 180.5,259.5C 176.5,259.167 176.5,258.833 180.5,258.5C 180.292,253.293 177.625,250.293 172.5,249.5C 172.5,248.167 172.5,246.833 172.5,245.5C 169.833,245.5 167.167,245.5 164.5,245.5C 164.5,242.833 164.5,240.167 164.5,237.5C 161.5,237.5 158.5,237.5 155.5,237.5C 155.5,234.833 155.5,232.167 155.5,229.5C 152.753,229.187 150.086,229.52 147.5,230.5C 147.024,232.921 146.691,235.254 146.5,237.5C 140.574,222.719 133.074,208.719 124,195.5C 113.256,187.207 101.756,180.04 89.5,174C 87.5273,173.505 85.5273,173.338 83.5,173.5C 83.7923,171.043 83.7923,168.376 83.5,165.5C 80.8806,165.768 78.3806,165.435 76,164.5C 75.5026,161.854 75.3359,159.187 75.5,156.5C 68.9345,157.055 62.6012,156.221 56.5,154C 57.448,153.517 58.448,153.351 59.5,153.5C 59.5,151.833 59.5,150.167 59.5,148.5C 56.0922,148.437 53.7589,146.77 52.5,143.5C 49.5729,142.199 46.5729,141.199 43.5,140.5C 42.6426,137.451 42.6426,134.451 43.5,131.5C 42.4513,129.784 41.118,128.451 39.5,127.5C 40.5914,124.572 42.5914,122.406 45.5,121C 65.0517,110.062 84.385,98.8958 103.5,87.5 Z"/></g>
<g><path style="opacity:0.991" fill="#01d8e5" d="M 39.5,127.5 C 41.118,128.451 42.4513,129.784 43.5,131.5C 42.6426,134.451 42.6426,137.451 43.5,140.5C 46.5729,141.199 49.5729,142.199 52.5,143.5C 53.7589,146.77 56.0922,148.437 59.5,148.5C 59.5,150.167 59.5,151.833 59.5,153.5C 58.448,153.351 57.448,153.517 56.5,154C 62.6012,156.221 68.9345,157.055 75.5,156.5C 75.3359,159.187 75.5026,161.854 76,164.5C 78.3806,165.435 80.8806,165.768 83.5,165.5C 83.7923,168.376 83.7923,171.043 83.5,173.5C 79.4227,175.086 76.9227,178.086 76,182.5C 75.5001,194.829 75.3335,207.162 75.5,219.5C 74.0689,219.119 73.2355,218.119 73,216.5C 72.6667,216.833 72.3333,217.167 72,217.5C 71.5065,215.866 71.3398,214.199 71.5,212.5C 69.8002,212.374 68.3002,211.707 67,210.5C 64.405,212.146 61.5716,212.813 58.5,212.5C 58.5,211.5 58.5,210.5 58.5,209.5C 62.909,210.101 64.2424,208.434 62.5,204.5C 60.5,207.167 58.5,207.167 56.5,204.5C 55.7864,201.973 55.1197,199.473 54.5,197C 51.5,196.667 48.5,196.333 45.5,196C 44.1498,194.282 42.9832,192.448 42,190.5C 40.5587,191.87 38.892,192.87 37,193.5C 36.79,195.058 36.29,196.391 35.5,197.5C 35.3334,175.831 35.5,154.164 36,132.5C 36.6972,130.416 37.8639,128.749 39.5,127.5 Z"/></g>
<g><path style="opacity:0.991" fill="#02ead2" d="M 381.5,157.5 C 381.5,159.167 381.5,160.833 381.5,162.5C 382.675,162.281 383.675,162.614 384.5,163.5C 387.185,168.194 389.351,167.528 391,161.5C 391.499,165.486 391.666,169.486 391.5,173.5C 399.167,173.5 406.833,173.5 414.5,173.5C 414.5,174.5 414.5,175.5 414.5,176.5C 411.521,178.262 408.354,179.928 405,181.5C 403.817,180.269 402.651,180.269 401.5,181.5C 402.548,182.548 403.548,183.548 404.5,184.5C 399.472,187.44 394.639,190.774 390,194.5C 382.473,205.206 375.973,216.539 370.5,228.5C 369.883,228.389 369.383,228.056 369,227.5C 367.493,229.008 365.827,230.341 364,231.5C 362.969,230.3 362.135,228.966 361.5,227.5C 363.452,225.874 364.786,223.874 365.5,221.5C 360.125,221.172 354.792,221.505 349.5,222.5C 348.478,223.354 347.645,224.354 347,225.5C 346.421,223.351 345.921,221.185 345.5,219C 345.707,215.556 346.707,215.056 348.5,217.5C 348.833,217 349.167,216.5 349.5,216C 348.697,211.594 348.364,207.261 348.5,203C 349.126,202.25 349.626,201.416 350,200.5C 351.011,201.337 352.178,201.67 353.5,201.5C 353.756,199.208 353.423,197.041 352.5,195C 355.125,193.607 355.125,192.441 352.5,191.5C 357.021,179.285 364.355,169.118 374.5,161C 376.886,159.807 379.22,158.64 381.5,157.5 Z"/></g>
<g><path style="opacity:0.981" fill="#00ebd2" d="M 437.5,211.5 C 440.676,211.67 442.676,213.337 443.5,216.5C 447.34,213.236 451.673,212.569 456.5,214.5C 456.5,215.833 456.5,217.167 456.5,218.5C 457.833,218.5 459.167,218.5 460.5,218.5C 461.953,221.986 462.619,225.653 462.5,229.5C 465.167,229.5 467.833,229.5 470.5,229.5C 470.5,232.167 470.5,234.833 470.5,237.5C 472.833,237.5 475.167,237.5 477.5,237.5C 477.5,267.167 477.5,296.833 477.5,326.5C 475.167,326.5 472.833,326.5 470.5,326.5C 470.5,323.833 470.5,321.167 470.5,318.5C 463.5,320.167 460.833,317.5 462.5,310.5C 459.833,310.5 457.167,310.5 454.5,310.5C 454.5,307.833 454.5,305.167 454.5,302.5C 451.813,302.664 449.146,302.497 446.5,302C 445.565,299.619 445.232,297.119 445.5,294.5C 442.833,294.5 440.167,294.5 437.5,294.5C 437.5,266.833 437.5,239.167 437.5,211.5 Z"/></g>
<g><path style="opacity:0.991" fill="#00d3ea" d="M 75.5,219.5 C 75.5,244.167 75.5,268.833 75.5,293.5C 70.1667,293.5 64.8333,293.5 59.5,293.5C 59.8134,290.753 59.48,288.086 58.5,285.5C 56.2534,286.374 53.9201,286.708 51.5,286.5C 51.5,283.833 51.5,281.167 51.5,278.5C 47.5,278.5 43.5,278.5 39.5,278.5C 39.5,277.167 39.5,275.833 39.5,274.5C 41.6547,274.628 43.6547,274.128 45.5,273C 43.8446,271.556 43.178,269.722 43.5,267.5C 42.5,267.5 41.5,267.5 40.5,267.5C 40.5,268.5 40.5,269.5 40.5,270.5C 38.8762,270.36 37.7096,271.027 37,272.5C 36.6174,271.944 36.1174,271.611 35.5,271.5C 35.5,246.833 35.5,222.167 35.5,197.5C 36.29,196.391 36.79,195.058 37,193.5C 38.892,192.87 40.5587,191.87 42,190.5C 42.9832,192.448 44.1498,194.282 45.5,196C 48.5,196.333 51.5,196.667 54.5,197C 55.1197,199.473 55.7864,201.973 56.5,204.5C 58.5,207.167 60.5,207.167 62.5,204.5C 64.2424,208.434 62.909,210.101 58.5,209.5C 58.5,210.5 58.5,211.5 58.5,212.5C 61.5716,212.813 64.405,212.146 67,210.5C 68.3002,211.707 69.8002,212.374 71.5,212.5C 71.3398,214.199 71.5065,215.866 72,217.5C 72.3333,217.167 72.6667,216.833 73,216.5C 73.2355,218.119 74.0689,219.119 75.5,219.5 Z"/></g>
<g><path style="opacity:0.986" fill="#04d7e5" d="M 189.5,261.5 C 192.55,276.032 196.383,290.365 201,304.5C 208.403,324.235 222.57,335.402 243.5,338C 250.506,339.393 257.506,339.559 264.5,338.5C 264.5,339.5 264.5,340.5 264.5,341.5C 254.113,342.755 256.447,342.421 271.5,340.5C 273.858,343.044 276.525,343.711 279.5,342.5C 280.994,342.709 282.161,343.376 283,344.5C 283.333,343.833 283.667,343.167 284,342.5C 284.226,345.095 284.726,347.595 285.5,350C 287.81,350.497 290.143,350.663 292.5,350.5C 292.5,353.167 292.5,355.833 292.5,358.5C 295.572,358.183 298.572,358.516 301.5,359.5C 302.863,360.893 303.696,362.559 304,364.5C 305.59,361.609 307.756,360.942 310.5,362.5C 276.124,382.831 241.124,383.664 205.5,365C 198.501,360.904 192.334,355.738 187,349.5C 181.604,341.766 176.604,333.766 172,325.5C 170,320.167 168,314.833 166,309.5C 159.807,285.394 153.307,261.394 146.5,237.5C 146.691,235.254 147.024,232.921 147.5,230.5C 150.086,229.52 152.753,229.187 155.5,229.5C 155.5,232.167 155.5,234.833 155.5,237.5C 158.5,237.5 161.5,237.5 164.5,237.5C 164.5,240.167 164.5,242.833 164.5,245.5C 167.167,245.5 169.833,245.5 172.5,245.5C 172.5,246.833 172.5,248.167 172.5,249.5C 177.625,250.293 180.292,253.293 180.5,258.5C 176.5,258.833 176.5,259.167 180.5,259.5C 180.5,260.5 180.5,261.5 180.5,262.5C 183.518,262.296 186.518,261.963 189.5,261.5 Z"/></g>
<g><path style="opacity:0.988" fill="#03e3da" d="M 352.5,191.5 C 355.125,192.441 355.125,193.607 352.5,195C 353.423,197.041 353.756,199.208 353.5,201.5C 352.178,201.67 351.011,201.337 350,200.5C 349.626,201.416 349.126,202.25 348.5,203C 348.364,207.261 348.697,211.594 349.5,216C 349.167,216.5 348.833,217 348.5,217.5C 346.707,215.056 345.707,215.556 345.5,219C 345.921,221.185 346.421,223.351 347,225.5C 347.645,224.354 348.478,223.354 349.5,222.5C 354.792,221.505 360.125,221.172 365.5,221.5C 364.786,223.874 363.452,225.874 361.5,227.5C 362.135,228.966 362.969,230.3 364,231.5C 365.827,230.341 367.493,229.008 369,227.5C 369.383,228.056 369.883,228.389 370.5,228.5C 366.512,238.63 363.012,248.964 360,259.5C 355.959,276.664 351.459,293.664 346.5,310.5C 344.94,310.481 343.44,310.148 342,309.5C 341.05,310.022 340.216,310.689 339.5,311.5C 337.821,309.896 335.821,309.229 333.5,309.5C 333.5,304.167 333.5,298.833 333.5,293.5C 331.508,293.328 329.842,293.995 328.5,295.5C 327.167,294.833 325.833,294.167 324.5,293.5C 323.672,289.204 323.172,284.871 323,280.5C 322.184,279.177 321.017,278.511 319.5,278.5C 326.385,247.831 337.385,218.831 352.5,191.5 Z"/></g>
<g><path style="opacity:0.991" fill="#01ccf0" d="M 75.5,293.5 C 75.3334,313.503 75.5,333.503 76,353.5C 76.63,359.95 79.7967,365.45 85.5,370C 125.172,393.838 165.172,417.171 205.5,440C 210.566,443.522 215.566,447.022 220.5,450.5C 220.881,451.931 221.881,452.764 223.5,453C 222.376,453.249 221.376,453.749 220.5,454.5C 220.781,459.714 221.114,465.048 221.5,470.5C 223.833,470.5 226.167,470.5 228.5,470.5C 228.5,467.833 228.5,465.167 228.5,462.5C 231.308,462.693 233.975,463.36 236.5,464.5C 236.5,466.833 236.5,469.167 236.5,471.5C 239.167,471.5 241.833,471.5 244.5,471.5C 244.5,474.167 244.5,476.833 244.5,479.5C 247.167,479.5 249.833,479.5 252.5,479.5C 252.5,482.167 252.5,484.833 252.5,487.5C 255.5,487.5 258.5,487.5 261.5,487.5C 261.5,490.167 261.5,492.833 261.5,495.5C 268.424,495.068 275.091,495.734 281.5,497.5C 276,500.803 270.333,503.97 264.5,507C 258.083,507.87 251.749,507.536 245.5,506C 214.934,487.888 184.268,470.054 153.5,452.5C 154.263,451.732 155.263,451.232 156.5,451C 155.54,447.27 155.207,443.437 155.5,439.5C 148.5,441.167 145.833,438.5 147.5,431.5C 144.833,431.5 142.167,431.5 139.5,431.5C 139.5,428.833 139.5,426.167 139.5,423.5C 134.167,423.5 128.833,423.5 123.5,423.5C 123.5,420.833 123.5,418.167 123.5,415.5C 120.881,415.768 118.381,415.435 116,414.5C 115.503,411.854 115.336,409.187 115.5,406.5C 112.833,406.5 110.167,406.5 107.5,406.5C 107.503,402.476 107.836,398.476 108.5,394.5C 107.801,389.234 107.134,389.234 106.5,394.5C 103.5,394.5 100.5,394.5 97.5,394.5C 97.5,393.167 97.5,391.833 97.5,390.5C 95.5,390.5 93.5,390.5 91.5,390.5C 91.5,387.833 91.5,385.167 91.5,382.5C 88.8333,382.5 86.1667,382.5 83.5,382.5C 83.7564,380.208 83.4231,378.041 82.5,376C 77.5821,375.805 72.7488,375.305 68,374.5C 67.5006,369.177 67.334,363.844 67.5,358.5C 61.8236,358.666 56.1569,358.499 50.5,358C 51.435,355.619 51.7683,353.119 51.5,350.5C 47.5,350.5 43.5,350.5 39.5,350.5C 39.646,347.446 38.3126,345.446 35.5,344.5C 35.5,320.167 35.5,295.833 35.5,271.5C 36.1174,271.611 36.6174,271.944 37,272.5C 37.7096,271.027 38.8762,270.36 40.5,270.5C 40.5,269.5 40.5,268.5 40.5,267.5C 41.5,267.5 42.5,267.5 43.5,267.5C 43.178,269.722 43.8446,271.556 45.5,273C 43.6547,274.128 41.6547,274.628 39.5,274.5C 39.5,275.833 39.5,277.167 39.5,278.5C 43.5,278.5 47.5,278.5 51.5,278.5C 51.5,281.167 51.5,283.833 51.5,286.5C 53.9201,286.708 56.2534,286.374 58.5,285.5C 59.48,288.086 59.8134,290.753 59.5,293.5C 64.8333,293.5 70.1667,293.5 75.5,293.5 Z"/></g>
<g><path style="opacity:0.985" fill="#02e4d9" d="M 437.5,294.5 C 440.167,294.5 442.833,294.5 445.5,294.5C 445.232,297.119 445.565,299.619 446.5,302C 449.146,302.497 451.813,302.664 454.5,302.5C 454.5,305.167 454.5,307.833 454.5,310.5C 457.167,310.5 459.833,310.5 462.5,310.5C 460.833,317.5 463.5,320.167 470.5,318.5C 470.5,321.167 470.5,323.833 470.5,326.5C 472.833,326.5 475.167,326.5 477.5,326.5C 477.96,344.569 477.46,362.569 476,380.5C 473.968,384.408 471.134,387.575 467.5,390C 460.928,394.089 454.261,397.922 447.5,401.5C 446.942,400.21 445.942,399.377 444.5,399C 445.61,396.263 445.777,393.429 445,390.5C 444.51,391.793 444.343,393.127 444.5,394.5C 441.833,394.5 439.167,394.5 436.5,394.5C 436.5,393.167 436.5,391.833 436.5,390.5C 428.439,390.568 424.605,386.568 425,378.5C 423.333,379.833 421.667,381.167 420,382.5C 419.598,381.128 419.098,379.795 418.5,378.5C 419.764,378.36 420.931,378.36 422,378.5C 421.207,376.5 421.374,374.5 422.5,372.5C 429.672,369.489 434.172,364.156 436,356.5C 437.415,335.869 437.915,315.203 437.5,294.5 Z"/></g>
<g><path style="opacity:0.995" fill="#02dce0" d="M 319.5,278.5 C 321.017,278.511 322.184,279.177 323,280.5C 323.172,284.871 323.672,289.204 324.5,293.5C 325.833,294.167 327.167,294.833 328.5,295.5C 329.842,293.995 331.508,293.328 333.5,293.5C 333.5,298.833 333.5,304.167 333.5,309.5C 335.821,309.229 337.821,309.896 339.5,311.5C 340.216,310.689 341.05,310.022 342,309.5C 343.44,310.148 344.94,310.481 346.5,310.5C 341.149,329.007 331.483,344.84 317.5,358C 315.283,359.723 312.95,361.223 310.5,362.5C 307.756,360.942 305.59,361.609 304,364.5C 303.696,362.559 302.863,360.893 301.5,359.5C 298.572,358.516 295.572,358.183 292.5,358.5C 292.5,355.833 292.5,353.167 292.5,350.5C 290.143,350.663 287.81,350.497 285.5,350C 284.726,347.595 284.226,345.095 284,342.5C 283.667,343.167 283.333,343.833 283,344.5C 282.161,343.376 280.994,342.709 279.5,342.5C 276.525,343.711 273.858,343.044 271.5,340.5C 256.447,342.421 254.113,342.755 264.5,341.5C 264.5,340.5 264.5,339.5 264.5,338.5C 287.803,337.599 303.637,326.265 312,304.5C 315.126,295.994 317.626,287.328 319.5,278.5 Z"/></g>
<g><path style="opacity:0.996" fill="#02c9f3" d="M 35.5,344.5 C 38.3126,345.446 39.646,347.446 39.5,350.5C 43.5,350.5 47.5,350.5 51.5,350.5C 51.7683,353.119 51.435,355.619 50.5,358C 56.1569,358.499 61.8236,358.666 67.5,358.5C 67.334,363.844 67.5006,369.177 68,374.5C 72.7488,375.305 77.5821,375.805 82.5,376C 83.4231,378.041 83.7564,380.208 83.5,382.5C 86.1667,382.5 88.8333,382.5 91.5,382.5C 91.5,385.167 91.5,387.833 91.5,390.5C 93.5,390.5 95.5,390.5 97.5,390.5C 97.5,391.833 97.5,393.167 97.5,394.5C 100.5,394.5 103.5,394.5 106.5,394.5C 107.134,389.234 107.801,389.234 108.5,394.5C 107.836,398.476 107.503,402.476 107.5,406.5C 110.167,406.5 112.833,406.5 115.5,406.5C 115.336,409.187 115.503,411.854 116,414.5C 118.381,415.435 120.881,415.768 123.5,415.5C 123.5,418.167 123.5,420.833 123.5,423.5C 128.833,423.5 134.167,423.5 139.5,423.5C 139.5,426.167 139.5,428.833 139.5,431.5C 142.167,431.5 144.833,431.5 147.5,431.5C 145.833,438.5 148.5,441.167 155.5,439.5C 155.207,443.437 155.54,447.27 156.5,451C 155.263,451.232 154.263,451.732 153.5,452.5C 116.527,431.012 79.5275,409.512 42.5,388C 39.9426,385.108 37.776,381.941 36,378.5C 35.5001,367.172 35.3335,355.838 35.5,344.5 Z"/></g>
<g><path style="opacity:0.995" fill="#03dde0" d="M 422.5,372.5 C 421.374,374.5 421.207,376.5 422,378.5C 420.931,378.36 419.764,378.36 418.5,378.5C 419.098,379.795 419.598,381.128 420,382.5C 421.667,381.167 423.333,379.833 425,378.5C 424.605,386.568 428.439,390.568 436.5,390.5C 436.5,391.833 436.5,393.167 436.5,394.5C 439.167,394.5 441.833,394.5 444.5,394.5C 444.343,393.127 444.51,391.793 445,390.5C 445.777,393.429 445.61,396.263 444.5,399C 445.942,399.377 446.942,400.21 447.5,401.5C 428.527,412.991 409.194,423.991 389.5,434.5C 389.586,433.504 389.252,432.671 388.5,432C 382.464,431.216 376.464,430.216 370.5,429C 371.448,428.517 372.448,428.351 373.5,428.5C 373.5,426.5 373.5,424.5 373.5,422.5C 370.833,422.5 368.167,422.5 365.5,422.5C 365.228,418.098 365.561,413.765 366.5,409.5C 365.675,408.614 364.675,408.281 363.5,408.5C 363.167,412.5 362.833,412.5 362.5,408.5C 382.133,396.011 402.133,384.011 422.5,372.5 Z"/></g>
<g><path style="opacity:0.995" fill="#02d6e7" d="M 362.5,408.5 C 362.833,412.5 363.167,412.5 363.5,408.5C 364.675,408.281 365.675,408.614 366.5,409.5C 365.561,413.765 365.228,418.098 365.5,422.5C 368.167,422.5 370.833,422.5 373.5,422.5C 373.5,424.5 373.5,426.5 373.5,428.5C 372.448,428.351 371.448,428.517 370.5,429C 376.464,430.216 382.464,431.216 388.5,432C 389.252,432.671 389.586,433.504 389.5,434.5C 365.864,448.99 341.864,462.99 317.5,476.5C 317.383,474.516 318.05,472.85 319.5,471.5C 316.748,469.664 313.748,468.664 310.5,468.5C 310.5,466.5 310.5,464.5 310.5,462.5C 307.5,462.5 304.5,462.5 301.5,462.5C 301.5,459.167 301.5,455.833 301.5,452.5C 298.318,451.969 295.318,450.969 292.5,449.5C 315.505,435.329 338.838,421.662 362.5,408.5 Z"/></g>
<g><path style="opacity:0.997" fill="#02cfed" d="M 292.5,449.5 C 295.318,450.969 298.318,451.969 301.5,452.5C 301.5,455.833 301.5,459.167 301.5,462.5C 304.5,462.5 307.5,462.5 310.5,462.5C 310.5,464.5 310.5,466.5 310.5,468.5C 313.748,468.664 316.748,469.664 319.5,471.5C 318.05,472.85 317.383,474.516 317.5,476.5C 305.172,482.995 293.172,489.995 281.5,497.5C 275.091,495.734 268.424,495.068 261.5,495.5C 261.5,492.833 261.5,490.167 261.5,487.5C 258.5,487.5 255.5,487.5 252.5,487.5C 252.5,484.833 252.5,482.167 252.5,479.5C 249.833,479.5 247.167,479.5 244.5,479.5C 244.5,476.833 244.5,474.167 244.5,471.5C 241.833,471.5 239.167,471.5 236.5,471.5C 236.5,469.167 236.5,466.833 236.5,464.5C 233.975,463.36 231.308,462.693 228.5,462.5C 228.5,465.167 228.5,467.833 228.5,470.5C 226.167,470.5 223.833,470.5 221.5,470.5C 221.114,465.048 220.781,459.714 220.5,454.5C 221.376,453.749 222.376,453.249 223.5,453C 221.881,452.764 220.881,451.931 220.5,450.5C 229.274,455.056 237.94,459.889 246.5,465C 252.833,467 259.167,467 265.5,465C 274.646,460.005 283.646,454.839 292.5,449.5 Z"/></g>
</svg>
