<svg height="250" viewBox="0 0 250 250" width="250" xmlns="http://www.w3.org/2000/svg" xmlns:xlink="http://www.w3.org/1999/xlink"><linearGradient id="a" gradientUnits="userSpaceOnUse" x1="7.6650400377" x2="245.872791" y1="243.81558809828" y2="5.6077864284"><stop offset="0" stop-color="#e71d73"/><stop offset=".3" stop-color="#2d2e83"/><stop offset=".64" stop-color="#00a19a"/><stop offset=".9" stop-color="#95c11f"/><stop offset="1" stop-color="#fcea10"/></linearGradient><path d="m245.871094 124.710938c0 65.78125-53.324219 119.105468-119.101563 119.105468-65.78125 0-119.105469-53.324218-119.105469-119.105468 0-65.777344 53.324219-119.105469 119.105469-119.105469 65.777344 0 119.101563 53.328125 119.101563 119.105469zm0 0" fill="url(#a)"/><g fill="#fff"><path d="m175.117188 65.792969-13.523438-13.605469h-43.660156v87.839844h-21.828125v-74.6875h-17.6875v78.851562l13.527343 13.539063h30.148438l13.136719-13.148438h26.363281l13.523438-13.539062v-27.804688l-4.796876-4.6875 4.796876-4.804687zm-39.5 4.097656h21.820312v19.6875h-21.820312zm21.898437 56.988281h-21.898437v-19.691406h21.898437zm0 0"/><path d="m61.371094 195.347656c-1.210938-1.25-1.820313-3.195312-1.820313-5.832031v-11.738281h2.734375v12.011718c0 1.78125.375 3.078126 1.125 3.890626.746094.816406 1.925782 1.222656 3.539063 1.222656 1.605469 0 2.785156-.40625 3.535156-1.222656.753906-.8125 1.128906-2.109376 1.125-3.890626v-12.011718h2.683594v11.738281c0 2.644531-.59375 4.59375-1.773438 5.839844-1.183593 1.25-3.039062 1.875-5.5625 1.878906-2.542969-.007813-4.40625-.636719-5.585937-1.886719zm0 0"/><path d="m90.546875 177.777344h2.613281v19.457031h-2.804687l-9.917969-15.210937v15.210937h-2.605469v-19.457031h2.808594l9.914063 15.210937zm0 0"/><path d="m97.289062 197.234375v-19.457031h2.945313v19.457031zm0 0"/><path d="m116.359375 188.761719c.675781.871093 1.019531 1.957031.972656 3.058593.039063 1.0625-.269531 2.113282-.871093 2.988282-.710938.882812-1.6875 1.515625-2.785157 1.808594-1.625.453124-3.3125.65625-5.003906.609374-1.636719-.003906-3.273437-.113281-4.898437-.320312v-18.578125c1.8125-.367187 3.65625-.554687 5.503906-.550781 2.605468 0 4.511718.417968 5.722656 1.261718 1.207031.839844 1.808594 2.128907 1.804688 3.875.027343.972657-.257813 1.929688-.8125 2.730469-.601563.796875-1.46875 1.347657-2.445313 1.550781 1.09375.167969 2.09375.722657 2.8125 1.566407zm-9.929687-8.621094v6.085937h3.4375c1.539062 0 2.648437-.261718 3.328124-.773437.347657-.289063.621094-.65625.792969-1.074219.175781-.417968.246094-.871094.210938-1.320312.03125-.644532-.128907-1.28125-.460938-1.832032-.371093-.5-.902343-.855468-1.503906-1.003906-.878906-.246094-1.796875-.359375-2.710937-.332031-1.035157-.007813-2.070313.074219-3.09375.25zm6.121093 14.628906c.679688-.167969 1.285157-.5625 1.710938-1.121093.363281-.574219.535156-1.25.5-1.929688.042969-.480469-.039063-.964844-.226563-1.40625-.191406-.445312-.488281-.835938-.863281-1.136719-.726563-.542969-1.875-.816406-3.449219-.816406h-3.808594v6.613281c.953126.121094 1.914063.175782 2.875.171875 1.097657.035157 2.199219-.089843 3.261719-.375zm0 0"/><path d="m131.972656 197.234375-5.652344-7.6875c-.171874 0-.4375 0-.792968 0-.710938 0-1.542969-.03125-2.5-.09375v7.765625h-2.746094v-18.882812c1.78125-.363282 3.589844-.550782 5.40625-.558594 2.632812 0 4.589844.476562 5.871094 1.425781 1.277344.949219 1.917968 2.421875 1.917968 4.414063.054688 1.28125-.34375 2.539062-1.132812 3.554687-.875.996094-2.050781 1.6875-3.347656 1.96875l6.027344 8.09375zm-8.945312-9.9375c.929687.078125 1.773437.117187 2.542968.117187 1.84375 0 3.203126-.304687 4.066407-.90625.863281-.605468 1.28125-1.566406 1.28125-2.863281.035156-.75-.140625-1.496093-.511719-2.152343-.378906-.578126-.949219-1.003907-1.609375-1.207032-.910156-.285156-1.867187-.417968-2.820313-.386718-.507812-.003907-1.019531.019531-1.527343.066406-.441407.039062-.917969.105468-1.421875.191406zm0 0"/><path d="m137.382812 197.234375v-19.457031h2.949219v19.457031zm0 0"/><path d="m158.019531 187.8125v9.035156c-1.480469.25-2.980469.378906-4.484375.386719-3.429687 0-5.996094-.785156-7.707031-2.351563-1.707031-1.570312-2.554687-4.007812-2.550781-7.308593 0-3.320313.851562-5.78125 2.550781-7.386719 1.703125-1.605469 4.152344-2.410156 7.351563-2.410156 1.46875 0 2.933593.179687 4.355468.535156v2.332031c-1.351562-.359375-2.746094-.542969-4.144531-.542969-1.367187-.046874-2.722656.210938-3.980469.742188-1.066406.5-1.925781 1.347656-2.433594 2.398438-.605468 1.371093-.890624 2.859374-.832031 4.355468-.054687 1.445313.21875 2.882813.800781 4.207032.496094 1.046874 1.34375 1.890624 2.398438 2.390624 1.257812.542969 2.625.804688 4 .753907.699219.003906 1.398438-.03125 2.09375-.105469v-7.023438zm0 0"/><path d="m161.554688 197.234375v-19.457031h2.824218v8.242187h9.691406v-8.242187h2.816407v19.457031h-2.816407v-8.722656h-9.691406v8.722656zm0 0"/><path d="m184.941406 197.234375v-17.078125h-6.285156v-2.378906h15.328125v2.378906h-6.296875v17.078125zm0 0"/></g></svg>