
<svg xmlns="http://www.w3.org/2000/svg" xmlns:xlink="http://www.w3.org/1999/xlink" width="250px" height="250px" viewBox="0 0 250 250" version="1.1">
<defs>
<linearGradient id="linear0" gradientUnits="userSpaceOnUse" x1="12.9999" y1="413.510986" x2="417" y2="9.5108" gradientTransform="matrix(0.589623,0,0,0.589623,0,0)">
<stop offset="0" style="stop-color:rgb(90.588236%,11.372549%,45.09804%);stop-opacity:1;"/>
<stop offset="0.3" style="stop-color:rgb(17.647059%,18.039216%,51.372552%);stop-opacity:1;"/>
<stop offset="0.64" style="stop-color:rgb(0%,63.137257%,60.392159%);stop-opacity:1;"/>
<stop offset="0.9" style="stop-color:rgb(58.431375%,75.686276%,12.156863%);stop-opacity:1;"/>
<stop offset="1" style="stop-color:rgb(98.823529%,91.764706%,6.27451%);stop-opacity:1;"/>
</linearGradient>
</defs>
<g id="surface1">
<path style=" stroke:none;fill-rule:nonzero;fill:url(#linear0);" d="M 245.871094 124.710938 C 245.871094 190.492188 192.546875 243.816406 126.769531 243.816406 C 60.988281 243.816406 7.664062 190.492188 7.664062 124.710938 C 7.664062 58.933594 60.988281 5.605469 126.769531 5.605469 C 192.546875 5.605469 245.871094 58.933594 245.871094 124.710938 Z M 245.871094 124.710938 "/>
<path style=" stroke:none;fill-rule:nonzero;fill:rgb(100%,100%,100%);fill-opacity:1;" d="M 175.117188 65.792969 L 161.59375 52.1875 L 117.933594 52.1875 L 117.933594 140.027344 L 96.105469 140.027344 L 96.105469 65.339844 L 78.417969 65.339844 L 78.417969 144.191406 L 91.945312 157.730469 L 122.09375 157.730469 L 135.230469 144.582031 L 161.59375 144.582031 L 175.117188 131.042969 L 175.117188 103.238281 L 170.320312 98.550781 L 175.117188 93.746094 Z M 135.617188 69.890625 L 157.4375 69.890625 L 157.4375 89.578125 L 135.617188 89.578125 Z M 157.515625 126.878906 L 135.617188 126.878906 L 135.617188 107.1875 L 157.515625 107.1875 Z M 157.515625 126.878906 "/>
<path style=" stroke:none;fill-rule:nonzero;fill:rgb(100%,100%,100%);fill-opacity:1;" d="M 61.371094 195.347656 C 60.160156 194.097656 59.550781 192.152344 59.550781 189.515625 L 59.550781 177.777344 L 62.285156 177.777344 L 62.285156 189.789062 C 62.285156 191.570312 62.660156 192.867188 63.410156 193.679688 C 64.15625 194.496094 65.335938 194.902344 66.949219 194.902344 C 68.554688 194.902344 69.734375 194.496094 70.484375 193.679688 C 71.238281 192.867188 71.613281 191.570312 71.609375 189.789062 L 71.609375 177.777344 L 74.292969 177.777344 L 74.292969 189.515625 C 74.292969 192.160156 73.699219 194.109375 72.519531 195.355469 C 71.335938 196.605469 69.480469 197.230469 66.957031 197.234375 C 64.414062 197.226562 62.550781 196.597656 61.371094 195.347656 Z M 61.371094 195.347656 "/>
<path style=" stroke:none;fill-rule:nonzero;fill:rgb(100%,100%,100%);fill-opacity:1;" d="M 90.546875 177.777344 L 93.160156 177.777344 L 93.160156 197.234375 L 90.355469 197.234375 L 80.4375 182.023438 L 80.4375 197.234375 L 77.832031 197.234375 L 77.832031 177.777344 L 80.640625 177.777344 L 90.554688 192.988281 Z M 90.546875 177.777344 "/>
<path style=" stroke:none;fill-rule:nonzero;fill:rgb(100%,100%,100%);fill-opacity:1;" d="M 97.289062 197.234375 L 97.289062 177.777344 L 100.234375 177.777344 L 100.234375 197.234375 Z M 97.289062 197.234375 "/>
<path style=" stroke:none;fill-rule:nonzero;fill:rgb(100%,100%,100%);fill-opacity:1;" d="M 116.359375 188.761719 C 117.035156 189.632812 117.378906 190.71875 117.332031 191.820312 C 117.371094 192.882812 117.0625 193.933594 116.460938 194.808594 C 115.75 195.691406 114.773438 196.324219 113.675781 196.617188 C 112.050781 197.070312 110.363281 197.273438 108.671875 197.226562 C 107.035156 197.222656 105.398438 197.113281 103.773438 196.90625 L 103.773438 178.328125 C 105.585938 177.960938 107.429688 177.773438 109.277344 177.777344 C 111.882812 177.777344 113.789062 178.195312 115 179.039062 C 116.207031 179.878906 116.808594 181.167969 116.804688 182.914062 C 116.832031 183.886719 116.546875 184.84375 115.992188 185.644531 C 115.390625 186.441406 114.523438 186.992188 113.546875 187.195312 C 114.640625 187.363281 115.640625 187.917969 116.359375 188.761719 Z M 106.429688 180.140625 L 106.429688 186.226562 L 109.867188 186.226562 C 111.40625 186.226562 112.515625 185.964844 113.195312 185.453125 C 113.542969 185.164062 113.816406 184.796875 113.988281 184.378906 C 114.164062 183.960938 114.234375 183.507812 114.199219 183.058594 C 114.230469 182.414062 114.070312 181.777344 113.738281 181.226562 C 113.367188 180.726562 112.835938 180.371094 112.234375 180.222656 C 111.355469 179.976562 110.4375 179.863281 109.523438 179.890625 C 108.488281 179.882812 107.453125 179.964844 106.429688 180.140625 Z M 112.550781 194.769531 C 113.230469 194.601562 113.835938 194.207031 114.261719 193.648438 C 114.625 193.074219 114.796875 192.398438 114.761719 191.71875 C 114.804688 191.238281 114.722656 190.753906 114.535156 190.3125 C 114.34375 189.867188 114.046875 189.476562 113.671875 189.175781 C 112.945312 188.632812 111.796875 188.359375 110.222656 188.359375 L 106.414062 188.359375 L 106.414062 194.972656 C 107.367188 195.09375 108.328125 195.148438 109.289062 195.144531 C 110.386719 195.179688 111.488281 195.054688 112.550781 194.769531 Z M 112.550781 194.769531 "/>
<path style=" stroke:none;fill-rule:nonzero;fill:rgb(100%,100%,100%);fill-opacity:1;" d="M 131.972656 197.234375 L 126.320312 189.546875 C 126.148438 189.546875 125.882812 189.546875 125.527344 189.546875 C 124.816406 189.546875 123.984375 189.515625 123.027344 189.453125 L 123.027344 197.21875 L 120.28125 197.21875 L 120.28125 178.335938 C 122.0625 177.972656 123.871094 177.785156 125.6875 177.777344 C 128.320312 177.777344 130.277344 178.253906 131.558594 179.203125 C 132.835938 180.152344 133.476562 181.625 133.476562 183.617188 C 133.53125 184.898438 133.132812 186.15625 132.34375 187.171875 C 131.46875 188.167969 130.292969 188.859375 128.996094 189.140625 L 135.023438 197.234375 Z M 123.027344 187.296875 C 123.957031 187.375 124.800781 187.414062 125.570312 187.414062 C 127.414062 187.414062 128.773438 187.109375 129.636719 186.507812 C 130.5 185.902344 130.917969 184.941406 130.917969 183.644531 C 130.953125 182.894531 130.777344 182.148438 130.40625 181.492188 C 130.027344 180.914062 129.457031 180.488281 128.796875 180.285156 C 127.886719 180 126.929688 179.867188 125.976562 179.898438 C 125.46875 179.894531 124.957031 179.917969 124.449219 179.964844 C 124.007812 180.003906 123.53125 180.070312 123.027344 180.15625 Z M 123.027344 187.296875 "/>
<path style=" stroke:none;fill-rule:nonzero;fill:rgb(100%,100%,100%);fill-opacity:1;" d="M 137.382812 197.234375 L 137.382812 177.777344 L 140.332031 177.777344 L 140.332031 197.234375 Z M 137.382812 197.234375 "/>
<path style=" stroke:none;fill-rule:nonzero;fill:rgb(100%,100%,100%);fill-opacity:1;" d="M 158.019531 187.8125 L 158.019531 196.847656 C 156.539062 197.097656 155.039062 197.226562 153.535156 197.234375 C 150.105469 197.234375 147.539062 196.449219 145.828125 194.882812 C 144.121094 193.3125 143.273438 190.875 143.277344 187.574219 C 143.277344 184.253906 144.128906 181.792969 145.828125 180.1875 C 147.53125 178.582031 149.980469 177.777344 153.179688 177.777344 C 154.648438 177.777344 156.113281 177.957031 157.535156 178.3125 L 157.535156 180.644531 C 156.183594 180.285156 154.789062 180.101562 153.390625 180.101562 C 152.023438 180.054688 150.667969 180.3125 149.410156 180.84375 C 148.34375 181.34375 147.484375 182.191406 146.976562 183.242188 C 146.371094 184.613281 146.085938 186.101562 146.144531 187.597656 C 146.089844 189.042969 146.363281 190.480469 146.945312 191.804688 C 147.441406 192.851562 148.289062 193.695312 149.34375 194.195312 C 150.601562 194.738281 151.96875 195 153.34375 194.949219 C 154.042969 194.953125 154.742188 194.917969 155.4375 194.84375 L 155.4375 187.820312 Z M 158.019531 187.8125 "/>
<path style=" stroke:none;fill-rule:nonzero;fill:rgb(100%,100%,100%);fill-opacity:1;" d="M 161.554688 197.234375 L 161.554688 177.777344 L 164.378906 177.777344 L 164.378906 186.019531 L 174.070312 186.019531 L 174.070312 177.777344 L 176.886719 177.777344 L 176.886719 197.234375 L 174.070312 197.234375 L 174.070312 188.511719 L 164.378906 188.511719 L 164.378906 197.234375 Z M 161.554688 197.234375 "/>
<path style=" stroke:none;fill-rule:nonzero;fill:rgb(100%,100%,100%);fill-opacity:1;" d="M 184.941406 197.234375 L 184.941406 180.15625 L 178.65625 180.15625 L 178.65625 177.777344 L 193.984375 177.777344 L 193.984375 180.15625 L 187.6875 180.15625 L 187.6875 197.234375 Z M 184.941406 197.234375 "/>
</g>
</svg>
