<svg xmlns="http://www.w3.org/2000/svg" width="250" height="250"><g fill="#ff4a4a"><path d="M160.195 249.61H149.61c-1.96 0-3.629-6.25-3.629-14.454V124.22l-18.53 46.094c-1.567 3.906-3.528 3.906-5.098 0l-18.43-46.094v110.937c0 7.813-1.57 14.453-3.629 14.453H89.805c-1.961 0-3.63-6.25-3.63-14.453V21.094c0-10.547 2.157-19.14 4.805-19.14.98 0 1.864 1.171 2.649 3.515l29.215 80.078c1.176 3.516 2.844 3.516 4.02 0l29.214-80.078c2.156-5.86 5.195-3.516 6.668 5.078.586 3.125.785 7.031.883 10.547v214.062c.098 7.813-1.473 14.453-3.434 14.453zM70.39 249.219H4.708c-2.648 0-4.805-8.594-4.805-19.14V14.843C0 6.64 1.57.39 3.63.39h10.586c1.96 0 3.629 6.25 3.629 14.453v163.672h39.804V14.844C57.648 7.03 59.215.39 61.273.39H71.57c1.961 0 3.625 6.25 3.625 14.453v215.234c0 10.547-2.156 19.14-4.804 19.14zM179.61.39h65.683c2.648 0 4.805 8.594 4.805 19.141v215.235c0 7.812-1.567 14.453-3.528 14.453h-10.59c-1.96 0-3.628-6.25-3.628-14.453V80.469c0-5.078-1.079-9.375-2.352-9.375h-35c-1.273 0-2.352 4.297-2.352 9.375v154.297c0 7.812-1.57 14.453-3.628 14.453h-10.59c-1.961 0-3.625-6.25-3.625-14.453V19.53c0-10.547 2.156-19.14 4.804-19.14zm0 0"/><path d="M207.156 116.406h10.492c1.961 0 3.625 6.25 3.625 14.453v42.578c0 7.813-1.566 14.454-3.625 14.454h-10.492c-1.96 0-3.625-6.25-3.625-14.453v-42.97c0-7.812 1.664-14.062 3.625-14.062zm0 0"/></g></svg>