<svg height="250" viewBox="0 0 250 250" width="250" xmlns="http://www.w3.org/2000/svg"><g fill="#ff4a4a"><path d="m160.195312 249.609375h-10.585937c-1.960937 0-3.628906-6.25-3.628906-14.453125v-110.9375l-18.53125 46.09375c-1.566407 3.90625-3.527344 3.90625-5.097657 0l-18.429687-46.09375v110.9375c0 7.8125-1.570313 14.453125-3.628906 14.453125h-10.488281c-1.960938 0-3.628907-6.25-3.628907-14.453125v-214.0625c0-10.546875 2.15625-19.140625 4.804688-19.140625.980469 0 1.863281 1.171875 2.648437 3.515625l29.214844 80.078125c1.175781 3.515625 2.84375 3.515625 4.019531 0l29.214844-80.078125c2.15625-5.859375 5.195313-3.515625 6.667969 5.078125.585937 3.125.785156 7.03125.882812 10.546875v214.0625c.097656 7.8125-1.472656 14.453125-3.433594 14.453125zm0 0"/><path d="m70.390625 249.21875h-65.683594c-2.648437 0-4.8046872-8.59375-4.8046872-19.140625v-215.234375c.0976562-8.203125 1.6679682-14.453125 3.7265622-14.453125h10.585938c1.960937 0 3.628906 6.25 3.628906 14.453125v163.671875h39.804688v-163.671875c0-7.8125 1.566406-14.453125 3.625-14.453125h10.296874c1.960938 0 3.625 6.25 3.625 14.453125v215.234375c0 10.546875-2.15625 19.140625-4.804687 19.140625zm0 0"/><path d="m179.609375.390625h65.683594c2.648437 0 4.804687 8.59375 4.804687 19.140625v215.234375c0 7.8125-1.566406 14.453125-3.527344 14.453125h-10.589843c-1.960938 0-3.628907-6.25-3.628907-14.453125v-154.296875c0-5.078125-1.078124-9.375-2.351562-9.375h-35c-1.273438 0-2.351562 4.296875-2.351562 9.375v154.296875c0 7.8125-1.570313 14.453125-3.628907 14.453125h-10.589843c-1.960938 0-3.625-6.25-3.625-14.453125v-215.234375c0-10.546875 2.15625-19.140625 4.804687-19.140625zm0 0"/><path d="m207.15625 116.40625h10.492188c1.960937 0 3.625 6.25 3.625 14.453125v42.578125c0 7.8125-1.566407 14.453125-3.625 14.453125h-10.492188c-1.960938 0-3.625-6.25-3.625-14.453125v-42.96875c0-7.8125 1.664062-14.0625 3.625-14.0625zm0 0"/></g></svg>