<svg height="250" viewBox="0 0 250 250" width="250" xmlns="http://www.w3.org/2000/svg" xmlns:xlink="http://www.w3.org/1999/xlink"><linearGradient id="a" gradientUnits="userSpaceOnUse" x1="60.19816791278" x2="249.16055933273" y1="-.00000229358" y2="43.7715599832"><stop offset="0" stop-color="#2e73ff"/><stop offset=".894147" stop-color="#184ce8"/></linearGradient><path d="m248.820312 124.410156c0 68.710938-55.699218 124.410156-124.410156 124.410156-68.710937 0-124.410156-55.699218-124.410156-124.410156 0-68.710937 55.699219-124.410156 124.410156-124.410156 68.710938 0 124.410156 55.699219 124.410156 124.410156zm0 0" fill="url(#a)"/><path d="m153.121094 187.890625c-2.632813-2.9375-6.191406-4.40625-10.675782-4.40625-2.636718 0-4.972656.539063-7.007812 1.609375-2 1.050781-3.59375 2.417969-4.789062 4.105469v-5.371094h-13.664063v20.550781c0 2.1875-.578125 3.90625-1.730469 5.160156-1.160156 1.25-2.730468 1.875-4.71875 1.875-1.941406 0-3.5-.625-4.679687-1.875-1.179688-1.253906-1.769531-2.972656-1.769531-5.160156v-20.550781h-13.523438v22.261719c0 5.050781 1.308594 9.046875 3.917969 11.984375 2.613281 2.933593 6.183593 4.402343 10.714843 4.402343 2.636719 0 4.972657-.535156 7.007813-1.605468 2.03125-1.066406 3.628906-2.46875 4.78125-4.199219v5.464844h13.664063v-21.765625c.179687-1.621094.738281-2.933594 1.671874-3.945313 1.152344-1.25 2.746094-1.878906 4.78125-1.878906 1.941407 0 3.492188.628906 4.648438 1.878906 1.15625 1.253907 1.734375 2.96875 1.734375 5.15625v20.554688h13.59375v-22.328125c0-5.007813-1.320313-8.980469-3.957031-11.917969zm0 0" fill="#fff"/><path d="m210.792969 179.753906c10.25-15.964844 16.195312-34.960937 16.195312-55.34375 0-56.65625-45.925781-102.582031-102.582031-102.582031s-102.582031 45.925781-102.582031 102.582031c0 20.5625 6.046875 39.710938 16.464843 55.761719 21.398438-10.644531 52.308594-17.328125 86.675782-17.328125 33.917968 0 64.464844 6.511719 85.828125 16.910156zm0 0" fill="#fff" fill-rule="evenodd"/><path d="m172.355469 80.648438c-4.363281-4.835938-10.253907-7.253907-17.675781-7.253907-4.363282 0-8.230469.882813-11.597657 2.644531-3.308593 1.730469-5.945312 3.984376-7.925781 6.765626v-8.847657h-22.617188v33.851563c0 3.601562-.957031 6.429687-2.867187 8.492187-1.914063 2.066407-4.515625 3.09375-7.804687 3.09375-3.210938 0-5.796876-1.027343-7.75-3.09375-1.949219-2.0625-2.925782-4.890625-2.925782-8.492187v-33.851563h-22.382812v36.667969c0 8.316406 2.160156 14.898438 6.480468 19.734375 4.328126 4.835937 10.238282 7.253906 17.738282 7.253906 4.359375 0 8.226562-.882812 11.597656-2.644531 3.363281-1.757812 6.003906-4.0625 7.914062-6.914062v8.996093h22.617188v-35.847656c.296875-2.667969 1.21875-4.832031 2.765625-6.496094 1.910156-2.058593 4.550781-3.09375 7.917969-3.09375 3.210937 0 5.777344 1.035157 7.691406 3.09375 1.910156 2.0625 2.867188 4.890625 2.867188 8.492188v33.851562h22.5v-36.773437c0-8.246094-2.179688-14.792969-6.542969-19.628906zm0 0" fill="#042751"/></svg>