<svg height="250" viewBox="0 0 250 250" width="250" xmlns="http://www.w3.org/2000/svg" xmlns:xlink="http://www.w3.org/1999/xlink"><linearGradient id="a" gradientUnits="userSpaceOnUse" x1="60.19816791278" x2="249.16055933273" y1="-.00000229358" y2="43.7715599832"><stop offset="0" stop-color="#2e73ff"/><stop offset=".894147" stop-color="#184ce8"/></linearGradient><path d="m248.820312 124.410156c0 68.710938-55.699218 124.410156-124.410156 124.410156-68.710937 0-124.410156-55.699218-124.410156-124.410156 0-68.710937 55.699219-124.410156 124.410156-124.410156 68.710938 0 124.410156 55.699219 124.410156 124.410156zm0 0" fill="url(#a)"/><path d="m153.121094 187.890625c-2.632813-2.9375-6.191406-4.40625-10.675782-4.40625-2.636718 0-4.972656.539063-7.007812 1.609375-2 1.050781-3.59375 2.417969-4.789062 4.105469v-5.371094h-13.664063v20.550781c0 2.1875-.578125 3.90625-1.730469 5.160156-1.160156 1.25-2.730468 1.875-4.71875 1.875-1.941406 0-3.5-.625-4.679687-1.875-1.179688-1.253906-1.769531-2.972656-1.769531-5.160156v-20.550781h-13.523438v22.261719c0 5.050781 1.308594 9.046875 3.917969 11.984375 2.613281 2.933593 6.183593 4.402343 10.714843 4.402343 2.636719 0 4.972657-.535156 7.007813-1.605468 2.03125-1.066406 3.628906-2.46875 4.78125-4.199219v5.464844h13.664063v-21.765625c.179687-1.621094.738281-2.933594 1.671874-3.945313 1.152344-1.25 2.746094-1.878906 4.78125-1.878906 1.941407 0 3.492188.628906 4.648438 1.878906 1.15625 1.253907 1.734375 2.96875 1.734375 5.15625v20.554688h13.59375v-22.328125c0-5.007813-1.320313-8.980469-3.957031-11.917969zm0 0" fill="#fff"/><path d="m210.792969 179.753906c10.25-15.964844 16.195312-34.960937 16.195312-55.34375 0-56.65625-45.925781-102.582031-102.582031-102.582031s-102.582031 45.925781-102.582031 102.582031c0 20.5625 6.046875 39.710938 16.464843 55.761719 21.398438-10.644531 52.308594-17.328125 86.675782-17.328125 33.917968 0 64.464844 6.511719 85.828125 16.910156zm0 0" fill="#fff" fill-rule="evenodd"/><g fill="#2c2c2c"><path d="m141.691406 108.132812c0-9.625-5.5-12.871093-16.132812-14.425781-7.863282-1.207031-9.371094-3.175781-9.371094-7.082031 0-3.902344 2.65625-6.335938 7.742188-6.335938 4.632812 0 7.304687 1.71875 8.402343 5.691407.117188.433593.363281.820312.699219 1.09375.335938.273437.75.425781 1.171875.433593h4.066406c.265625.003907.53125-.050781.773438-.167968.242187-.113282.457031-.285156.632812-.5.171875-.210938.300781-.464844.371094-.738282.070313-.269531.085937-.558593.042969-.835937-1.289063-6.285156-5.265625-10.066406-11.5-11.25v-6.628906c0-.546875-.203125-1.070313-.566406-1.457031-.363282-.386719-.855469-.605469-1.371094-.605469h-3.871094c-.511719 0-1.003906.21875-1.367188.605469-.363281.386718-.566406.910156-.566406 1.457031v6.394531c-7.746094 1.15625-12.636718 6.601562-12.636718 13.589844 0 9.03125 5.160156 12.539062 15.953124 14.09375 7.34375 1.277344 9.433594 2.96875 9.433594 7.414062 0 4.441406-3.550781 7.425782-8.558594 7.425782-6.75 0-9.03125-3.152344-9.792968-7.234376-.089844-.46875-.328125-.890624-.671875-1.195312-.34375-.308594-.777344-.476562-1.226563-.484375h-4.414062c-.265625 0-.523438.058594-.765625.175781-.238281.117188-.449219.289063-.621094.5-.171875.214844-.296875.464844-.367187.738282-.070313.269531-.085938.550781-.039063.828124 1.121094 6.875 5.265625 11.910157 13.707031 13.121094v6.515625c0 .546875.203125 1.074219.566406 1.460938.363282.386719.855469.601562 1.367188.601562h3.871094c.515625 0 1.007812-.214843 1.371094-.601562.363281-.386719.566406-.914063.566406-1.460938v-6.515625c8.003906-1.347656 13.101562-7.234375 13.101562-14.621094zm0 0"/><path d="m111.601562 135.636719c-8.050781-2.792969-15.003906-7.871094-19.914062-14.542969-4.910156-6.675781-7.546875-14.621094-7.546875-22.765625 0-8.140625 2.636719-16.089844 7.546875-22.761719s11.863281-11.75 19.914062-14.542968c.515626-.214844.957032-.566407 1.273438-1.007813.320312-.441406.5-.960937.523438-1.496094v-3.707031c.03125-.328125-.023438-.65625-.167969-.957031s-.367188-.558594-.652344-.753907c-.28125-.191406-.613281-.308593-.957031-.339843s-.695313.023437-1.007813.160156c-10.140625 3.070313-18.984375 9.121094-25.265625 17.285156-6.277344 8.164063-9.660156 18.011719-9.660156 28.121094 0 10.113281 3.382812 19.960937 9.660156 28.125 6.28125 8.160156 15.125 14.214844 25.265625 17.285156.3125.136719.664063.191407 1.007813.160157s.675781-.152344.957031-.34375c.285156-.191407.507813-.449219.652344-.75.144531-.300782.199219-.632813.167969-.960938v-3.707031c-.023438-.535157-.203126-1.050781-.523438-1.492188-.316406-.445312-.757812-.792969-1.273438-1.007812zm0 0"/><path d="m138.195312 52.921875c-.316406-.136719-.664062-.191406-1.011718-.160156-.34375.03125-.675782.148437-.957032.339843-.28125.195313-.507812.453126-.648437.753907-.144531.296875-.203125.628906-.167969.957031v3.707031c.019532.535157.203125 1.054688.519532 1.496094.316406.441406.757812.792969 1.277343 1.007813 8.046875 2.792968 15 7.871093 19.910157 14.542968 4.914062 6.671875 7.546874 14.621094 7.546874 22.761719 0 8.144531-2.632812 16.089844-7.546874 22.765625-4.910157 6.671875-11.863282 11.75-19.910157 14.542969-.535156.191406-.992187.535156-1.3125.980469-.324219.449218-.492187.980468-.484375 1.519531v3.707031c-.035156.328125.023438.660156.167969.960938.140625.300781.367187.558593.648437.75.28125.191406.613282.3125.957032.34375.347656.03125.695312-.023438 1.011718-.160157 10.136719-3.070312 18.984376-9.125 25.261719-17.289062 6.277344-8.160157 9.660157-18.007813 9.660157-28.121094 0-10.109375-3.382813-19.957031-9.660157-28.121094-6.277343-8.164062-15.125-14.214843-25.261719-17.285156zm0 0"/></g></svg>