<svg height="250" viewBox="0 0 250 250" width="250" xmlns="http://www.w3.org/2000/svg" xmlns:xlink="http://www.w3.org/1999/xlink"><linearGradient id="a" gradientUnits="userSpaceOnUse" x1="60.19816791278" x2="249.16055933273" y1="-.00000229358" y2="43.7715599832"><stop offset="0" stop-color="#2e73ff"/><stop offset=".894147" stop-color="#184ce8"/></linearGradient><path d="m248.820312 124.410156c0 68.710938-55.699218 124.410156-124.410156 124.410156-68.710937 0-124.410156-55.699218-124.410156-124.410156 0-68.710937 55.699219-124.410156 124.410156-124.410156 68.710938 0 124.410156 55.699219 124.410156 124.410156zm0 0" fill="url(#a)"/><path d="m153.121094 187.890625c-2.632813-2.9375-6.191406-4.40625-10.675782-4.40625-2.636718 0-4.972656.539063-7.007812 1.609375-2 1.050781-3.59375 2.417969-4.789062 4.105469v-5.371094h-13.664063v20.550781c0 2.1875-.578125 3.90625-1.730469 5.160156-1.160156 1.25-2.730468 1.875-4.71875 1.875-1.941406 0-3.5-.625-4.679687-1.875-1.179688-1.253906-1.769531-2.972656-1.769531-5.160156v-20.550781h-13.523438v22.261719c0 5.050781 1.308594 9.046875 3.917969 11.984375 2.613281 2.933593 6.183593 4.402343 10.714843 4.402343 2.636719 0 4.972657-.535156 7.007813-1.605468 2.03125-1.066406 3.628906-2.46875 4.78125-4.199219v5.464844h13.664063v-21.765625c.179687-1.621094.738281-2.933594 1.671874-3.945313 1.152344-1.25 2.746094-1.878906 4.78125-1.878906 1.941407 0 3.492188.628906 4.648438 1.878906 1.15625 1.253907 1.734375 2.96875 1.734375 5.15625v20.554688h13.59375v-22.328125c0-5.007813-1.320313-8.980469-3.957031-11.917969zm0 0" fill="#fff"/><path d="m210.792969 179.753906c10.25-15.964844 16.195312-34.960937 16.195312-55.34375 0-56.65625-45.925781-102.582031-102.582031-102.582031s-102.582031 45.925781-102.582031 102.582031c0 20.5625 6.046875 39.710938 16.464843 55.761719 21.398438-10.644531 52.308594-17.328125 86.675782-17.328125 33.917968 0 64.464844 6.511719 85.828125 16.910156zm0 0" fill="#fff" fill-rule="evenodd"/><g fill="#2c2c2c"><path d="m155.894531 66.796875-2.738281 2.738281c6.535156 7.144532 10.15625 16.472656 10.15625 26.152344 0 9.683594-3.621094 19.011719-10.15625 26.15625l2.738281 2.738281c7.265625-7.882812 11.296875-18.207031 11.296875-28.925781s-4.03125-21.042969-11.296875-28.921875zm0 0"/><path d="m98.320312 67.035156c7.144532-6.535156 16.472657-10.15625 26.152344-10.15625 9.679688 0 19.011719 3.621094 26.15625 10.15625l2.738282-2.738281c-7.882813-7.265625-18.207032-11.300781-28.925782-11.300781s-21.042968 4.035156-28.921875 11.300781zm0 0"/><path d="m95.761719 121.871094c-6.523438-7.144532-10.144531-16.46875-10.144531-26.140625 0-9.675781 3.621093-19 10.144531-26.140625l-2.738281-2.738282c-7.265626 7.878907-11.296876 18.207032-11.296876 28.925782 0 10.714844 4.03125 21.042968 11.296876 28.921875zm0 0"/><path d="m150.601562 124.398438c-7.144531 6.53125-16.476562 10.15625-26.15625 10.15625-9.679687 0-19.011718-3.625-26.152343-10.15625l-2.738281 2.738281c7.878906 7.265625 18.203124 11.296875 28.921874 11.296875s21.042969-4.03125 28.925782-11.296875zm0 0"/><path d="m141.726562 86.589844c-.546874-5.710938-5.472656-7.628906-11.707031-8.210938v-7.867187h-4.816406v7.71875c-1.269531 0-2.566406 0-3.851563 0v-7.71875h-4.785156v7.921875h-9.773437v5.15625s3.5625-.066406 3.507812 0c.640625-.070313 1.285157.109375 1.792969.503906.511719.394531.851562.972656.941406 1.613281v21.679688c-.011718.226562-.070312.445312-.171875.648437-.097656.203125-.238281.382813-.410156.53125-.167969.148438-.363281.261719-.578125.335938-.214844.070312-.4375.101562-.664062.082031.066406.054687-3.503907 0-3.503907 0l-.914062 5.757813h9.683593v8.050781h4.820313v-7.929688h3.851563v7.894531h4.824218v-7.960937c8.140625-.492187 13.816406-2.5 14.53125-10.117187.574219-6.132813-2.308594-8.871094-6.917968-9.976563 2.800781-1.378906 4.535156-3.933594 4.140624-8.113281zm-6.75 17.140625c0 5.984375-10.257812 5.300781-13.527343 5.300781v-10.621094c3.269531.007813 13.527343-.933594 13.527343 5.320313zm-2.238281-14.96875c0 5.476562-8.558593 4.808593-11.277343 4.808593v-9.652343c2.71875 0 11.277343-.859375 11.277343 4.84375zm0 0"/><path d="m124.449219 145.578125c-9.859375 0-19.496094-2.925781-27.695313-8.40625-8.195312-5.476563-14.585937-13.261719-18.355468-22.371094-3.773438-9.109375-4.761719-19.132812-2.835938-28.804687 1.921875-9.667969 6.671875-18.550782 13.644531-25.523438 6.96875-6.972656 15.851563-11.71875 25.523438-13.644531 9.667969-1.921875 19.691406-.9375 28.800781 2.835937 9.109375 3.773438 16.894531 10.160157 22.375 18.359376 5.480469 8.195312 8.402344 17.832031 8.40625 27.691406 0 6.550781-1.289062 13.035156-3.792969 19.085937-2.507812 6.050781-6.179687 11.546875-10.808593 16.175781-4.632813 4.632813-10.128907 8.304688-16.179688 10.808594-6.050781 2.507813-12.535156 3.796875-19.082031 3.792969zm0-95.820313c-9.085938.007813-17.960938 2.707032-25.511719 7.761719-7.546875 5.050781-13.429688 12.226563-16.902344 20.621094-3.472656 8.390625-4.378906 17.628906-2.601562 26.535156 1.773437 8.910157 6.148437 17.089844 12.574218 23.511719 6.425782 6.421875 14.609376 10.796875 23.515626 12.566406 8.910156 1.773438 18.144531.863282 26.539062-2.613281 8.390625-3.472656 15.566406-9.359375 20.613281-16.910156s7.746094-16.429688 7.75-25.515625c0-6.035156-1.1875-12.015625-3.496093-17.59375-2.308594-5.578125-5.695313-10.644532-9.96875-14.914063-4.269532-4.265625-9.335938-7.652343-14.917969-9.960937-5.578125-2.304688-11.558594-3.492188-17.59375-3.488282zm0 0"/></g></svg>