
<svg xmlns="http://www.w3.org/2000/svg" xmlns:xlink="http://www.w3.org/1999/xlink" width="250px" height="250px" viewBox="0 0 250 250" version="1.1">
<g id="surface1">
<path style=" stroke:none;fill-rule:nonzero;fill:rgb(15.294118%,45.882353%,79.215688%);fill-opacity:1;" d="M 125 250 C 194.269531 250 250 194.269531 250 125 C 250 55.730469 194.269531 0 125 0 C 55.730469 0 0 55.730469 0 125 C 0 194.269531 55.730469 250 125 250 Z M 125 250 "/>
<path style=" stroke:none;fill-rule:nonzero;fill:rgb(100%,100%,100%);fill-opacity:1;" d="M 159.375 144.792969 C 159.375 126.5625 148.4375 120.3125 126.5625 117.707031 C 110.9375 115.625 107.8125 111.457031 107.8125 104.167969 C 107.8125 96.875 113.019531 92.1875 123.4375 92.1875 C 132.8125 92.1875 138.019531 95.3125 140.625 103.125 C 141.144531 104.6875 142.707031 105.730469 144.269531 105.730469 L 152.605469 105.730469 C 154.6875 105.730469 156.25 104.167969 156.25 102.082031 L 156.25 101.5625 C 154.167969 90.105469 144.792969 81.25 132.8125 80.207031 L 132.8125 67.707031 C 132.8125 65.625 131.25 64.0625 128.644531 63.542969 L 120.832031 63.542969 C 118.75 63.542969 117.1875 65.105469 116.667969 67.707031 L 116.667969 79.6875 C 101.042969 81.769531 91.144531 92.1875 91.144531 105.207031 C 91.144531 122.394531 101.5625 129.167969 123.4375 131.769531 C 138.019531 134.375 142.707031 137.5 142.707031 145.832031 C 142.707031 154.167969 135.417969 159.894531 125.519531 159.894531 C 111.980469 159.894531 107.292969 154.167969 105.730469 146.355469 C 105.207031 144.269531 103.644531 143.230469 102.082031 143.230469 L 93.230469 143.230469 C 91.144531 143.230469 89.582031 144.792969 89.582031 146.875 L 89.582031 147.394531 C 91.667969 160.417969 100 169.792969 117.1875 172.394531 L 117.1875 184.894531 C 117.1875 186.980469 118.75 188.542969 121.355469 189.0625 L 129.167969 189.0625 C 131.25 189.0625 132.8125 187.5 133.332031 184.894531 L 133.332031 172.394531 C 148.957031 169.792969 159.375 158.855469 159.375 144.792969 Z M 159.375 144.792969 "/>
<path style=" stroke:none;fill-rule:nonzero;fill:rgb(100%,100%,100%);fill-opacity:1;" d="M 98.4375 199.480469 C 57.8125 184.894531 36.980469 139.582031 52.082031 99.480469 C 59.894531 77.605469 77.082031 60.9375 98.4375 53.125 C 100.519531 52.082031 101.5625 50.519531 101.5625 47.917969 L 101.5625 40.625 C 101.5625 38.542969 100.519531 36.980469 98.4375 36.457031 C 97.917969 36.457031 96.875 36.457031 96.355469 36.980469 C 46.875 52.605469 19.792969 105.207031 35.417969 154.6875 C 44.792969 183.855469 67.1875 206.25 96.355469 215.625 C 98.4375 216.667969 100.519531 215.625 101.042969 213.542969 C 101.5625 213.019531 101.5625 212.5 101.5625 211.457031 L 101.5625 204.167969 C 101.5625 202.605469 100 200.519531 98.4375 199.480469 Z M 153.644531 36.980469 C 151.5625 35.9375 149.480469 36.980469 148.957031 39.0625 C 148.4375 39.582031 148.4375 40.105469 148.4375 41.144531 L 148.4375 48.4375 C 148.4375 50.519531 150 52.605469 151.5625 53.644531 C 192.1875 68.230469 213.019531 113.542969 197.917969 153.644531 C 190.105469 175.519531 172.917969 192.1875 151.5625 200 C 149.480469 201.042969 148.4375 202.605469 148.4375 205.207031 L 148.4375 212.5 C 148.4375 214.582031 149.480469 216.144531 151.5625 216.667969 C 152.082031 216.667969 153.125 216.667969 153.644531 216.144531 C 203.125 200.519531 230.207031 147.917969 214.582031 98.4375 C 205.207031 68.75 182.292969 46.355469 153.644531 36.980469 Z M 153.644531 36.980469 "/>
</g>
</svg>
