<svg width="120" height="120" viewBox="0 0 120 120" fill="none" xmlns="http://www.w3.org/2000/svg">
<circle cx="60" cy="60" r="56" fill="#216C58" stroke="#216C58" stroke-width="2"/>
<path d="M112 60C112 88.7188 88.7188 112 60 112C31.2812 112 8 88.7188 8 60C8 31.2812 31.2812 8 60 8C88.7188 8 112 31.2812 112 60Z" fill="#216C58"/>
<rect x="53" y="85" width="6" height="6" fill="#216C58"/>
<rect x="63" y="85" width="6" height="6" fill="#216C58"/>
<rect x="41" y="23" width="42" height="5" rx="2" fill="white"/>
<path d="M60 30L60 98C60 99.1046 59.1046 100 58 100L57 100C55.8954 100 55 99.1046 55 98L55 30L60 30Z" fill="white"/>
<path d="M68 30L68 98C68 99.1046 67.1046 100 66 100L65 100C63.8954 100 63 99.1046 63 98L63 30L68 30Z" fill="white"/>
<path d="M55.7334 46.9299L55.7335 46.93L55.7436 46.9263C57.1336 46.4177 58.888 46.1463 61.0352 46.1463C64.195 46.1463 66.5722 46.7523 68.2629 47.8606C69.4841 48.6611 70.2856 49.6677 70.7187 50.8864C71.153 52.1085 72.2724 53.2936 73.8433 53.2936H83.0814C84.7204 53.2936 86.202 51.9181 85.9514 50.1251C85.5652 47.3615 84.5216 44.8676 82.8266 42.6595C80.7064 39.8975 77.7595 37.7723 74.0368 36.2602C70.3238 34.7436 66.0139 34 61.1296 34C56.3254 34 52.0001 34.7448 48.17 36.256C44.3465 37.7647 41.2882 39.8837 39.0419 42.6361L39.0419 42.6361L39.0389 42.6399C36.7898 45.4231 35.6788 48.6843 35.7 52.3782C35.679 56.9045 37.3669 60.5733 40.7683 63.2786C44.0729 65.9069 48.5216 67.7962 54.0518 68.9942C54.0529 68.9945 54.0539 68.9947 54.055 68.9949L61.0688 70.5631L61.0688 70.5631L61.0772 70.5649C63.3956 71.0625 65.3266 71.6102 66.8805 72.2032L66.8845 72.2047C68.4385 72.79 69.5283 73.4691 70.229 74.2022L70.2289 74.2022L70.2376 74.211C70.9053 74.8925 71.2426 75.7207 71.2426 76.7625C71.2426 77.8929 70.8652 78.8827 70.0777 79.7707C69.2744 80.6767 68.1031 81.427 66.4996 81.9841L66.496 81.9854C64.9278 82.537 63.0407 82.8257 60.8148 82.8257C58.5559 82.8257 56.56 82.5207 54.8148 81.9279C53.1095 81.3231 51.7869 80.4513 50.8061 79.3334C50.1822 78.5944 49.733 77.731 49.4621 76.7289C49.1026 75.3994 47.9446 74.1648 46.3376 74.1648H37.0515C35.3931 74.1648 33.9435 75.5534 34.1481 77.3258C34.5405 80.7251 35.675 83.6844 37.5738 86.1704L37.5738 86.1704L37.5787 86.1767C39.8724 89.1308 43.0384 91.3336 47.0254 92.8078L47.0271 92.8084C51.0243 94.2783 55.6794 95 60.9722 95C66.3031 95 70.9104 94.2887 74.7678 92.8335L74.7701 92.8326C78.6374 91.3625 81.6593 89.2762 83.7689 86.5395C85.9076 83.7735 86.9778 80.5106 87 76.7965L87 76.7891L87 76.7817C86.9778 74.2567 86.4562 71.9776 85.4089 69.9692C84.3957 67.9861 82.9689 66.2704 81.1434 64.8234C79.3354 63.3905 77.2119 62.1953 74.7842 61.2303C72.3722 60.2717 69.7338 59.5087 66.8723 58.9379L61.086 57.706L61.086 57.7059L61.0733 57.7034C59.702 57.4301 58.4178 57.1032 57.2198 56.7239C56.0386 56.3313 55.0146 55.8824 54.1412 55.382C53.3031 54.8836 52.6729 54.3138 52.2219 53.6831C51.8355 53.1156 51.6429 52.4387 51.6769 51.6057L51.6778 51.5853V51.5648C51.6778 50.5698 51.9919 49.6921 52.643 48.8969C53.319 48.0965 54.326 47.4277 55.7334 46.9299Z" fill="white" stroke="#216C58" stroke-width="2"/>
<rect x="55" y="43" width="5" height="7" fill="white"/>
<rect x="55" y="68" width="5" height="7" fill="white"/>
<rect x="55" y="89" width="5" height="7" fill="white"/>
<rect x="63" y="43" width="5" height="7" fill="white"/>
<rect x="63" y="68" width="5" height="7" fill="white"/>
<rect x="63" y="89" width="5" height="7" fill="white"/>
<path fill-rule="evenodd" clip-rule="evenodd" d="M110.324 63C109.53 63 108.875 63.622 108.804 64.4135C106.573 89.4075 85.5745 109 60.0001 109C34.4258 109 13.4275 89.4075 11.1962 64.4136C11.1255 63.622 10.4705 63 9.67579 63V63C8.81234 63 8.12464 63.7292 8.19986 64.5894C10.5233 91.1587 32.8278 112 60.0001 112C87.1724 112 109.477 91.1587 111.8 64.5894C111.876 63.7292 111.188 63 110.324 63V63ZM9.67579 57C10.4705 57 11.1255 56.378 11.1962 55.5865C13.4275 30.5925 34.4258 11 60.0001 11C85.5745 11 106.573 30.5925 108.804 55.5864C108.875 56.378 109.53 57 110.324 57V57C111.188 57 111.876 56.2708 111.8 55.4106C109.477 28.8413 87.1724 8 60.0001 8C32.8278 8 10.5233 28.8413 8.19986 55.4106C8.12464 56.2708 8.81234 57 9.67579 57V57Z" fill="white"/>
</svg>
