
<svg xmlns="http://www.w3.org/2000/svg" xmlns:xlink="http://www.w3.org/1999/xlink" width="250px" height="250px" viewBox="0 0 250 250" version="1.1">
<defs>
<linearGradient id="linear0" gradientUnits="userSpaceOnUse" x1="137.460007" y1="50.68" x2="374.540009" y2="461.320007" gradientTransform="matrix(0.488281,0,0,0.488281,0,0)">
<stop offset="0" style="stop-color:rgb(0%,58.431375%,84.313726%);stop-opacity:1;"/>
<stop offset="1" style="stop-color:rgb(0%,44.705883%,66.666669%);stop-opacity:1;"/>
</linearGradient>
</defs>
<g id="surface1">
<path style=" stroke:none;fill-rule:nonzero;fill:rgb(100%,100%,100%);fill-opacity:1;" d="M 249.511719 125 C 249.511719 193.765625 193.765625 249.511719 125 249.511719 C 56.234375 249.511719 0.488281 193.765625 0.488281 125 C 0.488281 56.234375 56.234375 0.488281 125 0.488281 C 193.765625 0.488281 249.511719 56.234375 249.511719 125 Z M 249.511719 125 "/>
<path style=" stroke:none;fill-rule:nonzero;fill:url(#linear0);" d="M 240.746094 125 C 240.746094 188.925781 188.925781 240.746094 125 240.746094 C 61.074219 240.746094 9.253906 188.925781 9.253906 125 C 9.253906 61.074219 61.074219 9.253906 125 9.253906 C 188.925781 9.253906 240.746094 61.074219 240.746094 125 Z M 240.746094 125 "/>
<path style=" stroke:none;fill-rule:nonzero;fill:rgb(100%,100%,100%);fill-opacity:1;" d="M 172.320312 139.289062 C 170.464844 135.421875 167.773438 132.015625 164.433594 129.328125 C 160.535156 126.261719 156.167969 123.839844 151.503906 122.15625 C 146.210938 120.171875 140.234375 118.25 133.734375 116.519531 C 128.671875 115.253906 124.105469 114.023438 120.167969 112.859375 C 116.613281 111.871094 113.175781 110.507812 109.914062 108.789062 C 107.234375 107.40625 104.898438 105.445312 103.078125 103.046875 C 101.367188 100.6875 100.5 97.753906 100.5 94.316406 C 100.5 88.5 102.707031 83.902344 107.050781 80.644531 C 111.1875 77.542969 117.089844 76.035156 125.09375 76.035156 C 129.410156 76.035156 133.707031 76.582031 137.886719 77.65625 C 141.800781 78.652344 145.636719 79.953125 149.351562 81.542969 C 152.488281 82.871094 155.511719 84.453125 158.394531 86.269531 C 158.988281 86.65625 159.539062 87.027344 160.054688 87.378906 C 160.226562 87.496094 160.4375 87.535156 160.640625 87.484375 C 160.847656 87.445312 161.027344 87.3125 161.128906 87.125 L 169.039062 72.597656 C 169.230469 72.253906 169.113281 71.824219 168.777344 71.621094 C 163.222656 68.246094 157.347656 65.421875 151.242188 63.1875 C 145.632812 61.136719 139.785156 59.824219 133.835938 59.28125 L 133.324219 59.234375 L 133.324219 36.089844 C 133.324219 35.683594 132.996094 35.355469 132.59375 35.355469 L 115.757812 35.355469 C 115.351562 35.355469 115.023438 35.683594 115.023438 36.089844 L 115.023438 59.757812 C 112.464844 60.175781 109.941406 60.765625 107.460938 61.523438 C 102.101562 63.125 97.082031 65.710938 92.660156 69.140625 C 88.496094 72.4375 85.15625 76.652344 82.894531 81.460938 C 80.550781 86.375 79.367188 92.117188 79.367188 98.550781 C 79.367188 103.355469 80.085938 107.496094 81.519531 110.859375 C 82.976562 114.257812 85.164062 117.292969 87.933594 119.746094 C 91.261719 122.636719 95.023438 124.980469 99.085938 126.6875 C 104.441406 128.964844 109.957031 130.847656 115.585938 132.324219 C 120.683594 133.789062 125.597656 135.203125 130.171875 136.546875 C 134.152344 137.671875 138.03125 139.144531 141.757812 140.941406 C 145.175781 142.65625 147.890625 144.722656 149.8125 147.085938 C 151.929688 149.734375 153.046875 153.042969 152.96875 156.429688 C 152.96875 167.519531 144.398438 173.378906 128.183594 173.378906 C 122.773438 173.390625 117.386719 172.722656 112.144531 171.386719 C 107.324219 170.179688 102.617188 168.550781 98.078125 166.527344 C 94.308594 164.851562 90.652344 162.941406 87.128906 160.804688 C 86.023438 160.121094 85.023438 159.476562 84.160156 158.882812 C 83.984375 158.765625 83.769531 158.726562 83.566406 158.78125 C 83.351562 158.824219 83.175781 158.964844 83.078125 159.15625 L 74.976562 174.957031 C 74.800781 175.289062 74.914062 175.699219 75.230469 175.902344 C 82.433594 180.550781 90.25 184.164062 98.457031 186.644531 C 103.863281 188.304688 109.402344 189.511719 115.011719 190.25 L 115.007812 211.792969 C 115.007812 212.195312 115.335938 212.523438 115.742188 212.523438 L 132.5625 212.523438 C 132.96875 212.523438 133.296875 212.195312 133.296875 211.792969 L 133.296875 190.917969 L 133.875 190.875 C 137.992188 190.582031 142.074219 189.949219 146.082031 188.988281 C 151.464844 187.746094 156.570312 185.527344 161.15625 182.453125 C 165.417969 179.515625 168.898438 175.582031 171.292969 170.996094 C 173.789062 166.292969 175.054688 160.492188 175.054688 153.761719 C 175.085938 148.011719 174.160156 143.140625 172.320312 139.289062 Z M 172.320312 139.289062 "/>
</g>
</svg>
