<svg xmlns="http://www.w3.org/2000/svg" viewBox="0 0 283.46 283.46"><defs><style>.cls-1{fill:#fff;}.cls-2{fill:none;}.cls-3{fill:#ec5665;}.cls-4{fill:#3a59a8;}.cls-5{fill:#333132;}.cls-6{fill:#1d84c5;}</style></defs><g id="Layer_2" data-name="Layer 2"><g id="Layer_1-2" data-name="Layer 1"><circle class="cls-1" cx="141.73" cy="141.73" r="141.73"/><path class="cls-2" d="M105.25,224.2h73l.1,0H105.14Z"/><path class="cls-3" d="M141.73,231.91a89.92,89.92,0,0,0,36.49-7.71h-73A89.87,89.87,0,0,0,141.73,231.91Z"/><path class="cls-1" d="M105.14,224.15h73.18"/><path class="cls-3" d="M82.29,209.51H201.18a90.45,90.45,0,0,0,13.4-14.65H68.88A90.06,90.06,0,0,0,82.29,209.51Z"/><path class="cls-3" d="M60.17,180.22H223.3a89.11,89.11,0,0,0,5.4-14.65H54.76A90.07,90.07,0,0,0,60.17,180.22Z"/><path class="cls-3" d="M145.15,121.62h84.48A89.92,89.92,0,0,0,225,107H145.15Z"/><path class="cls-3" d="M145.15,92.28h72a90.69,90.69,0,0,0-12-14.65h-60Z"/><path class="cls-3" d="M185.6,62.94a89.75,89.75,0,0,0-40.45-11.3v11.3Z"/><path class="cls-4" d="M141.73,51.55A89.83,89.83,0,0,0,97.86,62.94l-.07.05a88.79,88.79,0,0,0-7.6,4.76l-1,.71A92,92,0,0,0,80,76.06L79,77l-.67.63a92.15,92.15,0,0,0-7.86,8.89l-.12.16c-1.4,1.82-2.74,3.68-4,5.6a90.8,90.8,0,0,0-7.78,14.57l0,.08,0,0c-.56,1.34-1.08,2.69-1.58,4.06a92,92,0,0,0-3.09,10.59c-.21.92-.41,1.84-.59,2.76,0,.08,0,.16-.05.24-.52,2.75-.94,5.53-1.21,8.36v.08c-.11,1.06-.18,2.13-.25,3.21h0c-.11,1.81-.18,3.63-.18,5.46,0,3.1.16,6.16.46,9.18h93.14V136.27h0V51.64C144,51.6,142.88,51.55,141.73,51.55Z"/><path id="Shape-23" class="cls-1" d="M60.24,127.13l-1.13-3.37L58,127.13H54.43l2.88,2.11-1.1,3.41,2.88-2.11L62,132.65l-1.1-3.41,2.88-2.11Z"/><path id="Shape-26" class="cls-1" d="M69.25,97.91l-1.1,3.41H64.58l2.88,2.1-1.11,3.41,2.89-2.11,2.88,2.11L71,103.42l2.89-2.1H70.33Z"/><path id="Shape-27" class="cls-1" d="M69.25,115.16l-1.1,3.36H64.58l2.88,2.11L66.35,124l2.89-2.11L72.12,124,71,120.63l2.89-2.11H70.33Z"/><path id="Shape-28" class="cls-1" d="M70.35,135.73l-1.11-3.37-1.1,3.37H64.57l2.88,2.11-1.1,3.41,2.88-2.11,2.88,2.11L71,137.84l2.88-2.11Z"/><path id="Shape-30" class="cls-1" d="M79.36,89.31l-1.11,3.41H74.68l2.88,2.11-1.1,3.36,2.88-2.06,2.92,2.06-1.13-3.36,2.92-2.11H80.48Z"/><path id="Shape-31" class="cls-1" d="M79.36,106.55l-1.11,3.37H74.68L77.56,112l-1.1,3.41,2.88-2.11,2.92,2.11L81.13,112l2.92-2.11H80.48Z"/><path id="Shape-32" class="cls-1" d="M80.49,127.13l-1.13-3.37-1.11,3.37H74.68l2.88,2.11-1.1,3.41,2.88-2.11,2.92,2.11-1.13-3.41,2.92-2.11Z"/><path id="Shape-34" class="cls-1" d="M89.5,80.7l-1.1,3.41H84.82l2.89,2.11L86.6,89.59l2.88-2.07,2.89,2.07-1.11-3.37,2.88-2.11H90.57Z"/><path id="Shape-35" class="cls-1" d="M89.5,97.91l-1.1,3.41H84.82l2.89,2.1-1.11,3.41,2.88-2.11,2.89,2.11-1.11-3.41,2.88-2.1H90.57Z"/><path id="Shape-36" class="cls-1" d="M89.5,115.16l-1.1,3.36H84.82l2.89,2.11L86.6,124l2.88-2.11L92.37,124l-1.11-3.41,2.88-2.11H90.57Z"/><path id="Shape-37" class="cls-1" d="M90.59,135.73l-1.1-3.37-1.11,3.37H84.81l2.89,2.11-1.11,3.41,2.88-2.11,2.89,2.11-1.11-3.41,2.88-2.11Z"/><path id="Shape-38" class="cls-1" d="M99.6,72.1l-1.1,3.41H94.93l2.88,2.11L96.71,81l2.88-2.11L102.51,81l-1.14-3.37,2.93-2.11h-3.57Z"/><path id="Shape-39" class="cls-1" d="M99.6,89.31l-1.1,3.41H94.93l2.88,2.11-1.1,3.36,2.88-2.06,2.92,2.06-1.14-3.36,2.93-2.11h-3.57Z"/><path id="Shape-40" class="cls-1" d="M99.6,106.55l-1.1,3.37H94.93L97.81,112l-1.1,3.41,2.88-2.11,2.92,2.11L101.37,112l2.93-2.11h-3.57Z"/><path id="Shape-41" class="cls-1" d="M100.74,127.13l-1.14-3.37-1.1,3.37H94.93l2.88,2.11-1.1,3.41,2.88-2.11,2.92,2.11-1.14-3.41,2.93-2.11Z"/><path id="Shape-42" class="cls-1" d="M109.75,63.5l-1.11,3.41h-3.57L108,69l-1.11,3.4,2.88-2.1,2.89,2.1L111.51,69l2.88-2.07h-3.57Z"/><path id="Shape-43" class="cls-1" d="M109.75,80.7l-1.11,3.41h-3.57L108,86.22l-1.11,3.37,2.88-2.07,2.89,2.07-1.11-3.37,2.88-2.11h-3.57Z"/><path id="Shape-44" class="cls-1" d="M109.75,97.91l-1.11,3.41h-3.57l2.89,2.1-1.11,3.41,2.88-2.11,2.89,2.11-1.11-3.41,2.88-2.1h-3.57Z"/><path id="Shape-45" class="cls-1" d="M109.75,115.16l-1.11,3.36h-3.57l2.89,2.11L106.85,124l2.88-2.11,2.89,2.11-1.11-3.41,2.88-2.11h-3.57Z"/><path id="Shape-46" class="cls-1" d="M110.84,135.73l-1.1-3.37-1.11,3.37h-3.57l2.88,2.11-1.1,3.41,2.88-2.11,2.88,2.11-1.1-3.41,2.88-2.11Z"/><path id="Shape-47" class="cls-1" d="M119.85,72.1l-1.1,3.41h-3.57l2.88,2.11L117,81l2.89-2.11L122.76,81l-1.14-3.37,2.92-2.11H121Z"/><path id="Shape-48" class="cls-1" d="M119.85,89.31l-1.1,3.41h-3.57l2.88,2.11L117,98.19l2.89-2.06,2.92,2.06-1.14-3.36,2.92-2.11H121Z"/><path id="Shape-49" class="cls-1" d="M119.85,106.55l-1.1,3.37h-3.57l2.88,2.11L117,115.44l2.89-2.11,2.92,2.11L121.62,112l2.92-2.11H121Z"/><path id="Shape-50" class="cls-1" d="M121,127.13l-1.14-3.37-1.1,3.37h-3.57l2.88,2.11L117,132.65l2.89-2.11,2.92,2.11-1.14-3.41,2.92-2.11Z"/><path id="Shape-51" class="cls-1" d="M128.21,69l-1.1,3.41L130,70.28l2.88,2.11L131.77,69l2.88-2.07h-3.57L130,63.5l-1.1,3.41h-3.54Z"/><path id="Shape-52" class="cls-1" d="M130,80.7l-1.11,3.41h-3.56l2.88,2.11-1.1,3.37L130,87.52l2.88,2.07-1.1-3.37,2.88-2.11h-3.57Z"/><path id="Shape-53" class="cls-1" d="M130,97.91l-1.11,3.41h-3.56l2.88,2.1-1.1,3.41,2.88-2.11,2.88,2.11-1.1-3.41,2.88-2.1h-3.57Z"/><path id="Shape-54" class="cls-1" d="M130,115.16l-1.11,3.36h-3.56l2.88,2.11-1.1,3.41,2.88-2.11,2.88,2.11-1.1-3.41,2.88-2.11h-3.57Z"/><path id="Shape-55" class="cls-1" d="M131.09,135.73,130,132.36l-1.1,3.37h-3.55l2.88,2.11-1.1,3.41,2.88-2.11,2.88,2.11-1.1-3.41,2.88-2.11Z"/><path class="cls-5" d="M207.55,226.36l-3,2.16A107.16,107.16,0,0,1,55,78.89l2.15-3L44.82,63.63l-3,4a124.31,124.31,0,0,0,91.27,198.11q4.3.28,8.61.29a124.35,124.35,0,0,0,74.11-24.42l4-3Z"/><path class="cls-6" d="M265.75,133.11A124.39,124.39,0,0,0,67.64,41.84l-4,3L75.92,57.1l3-2.15A107.16,107.16,0,0,1,228.52,204.57l-2.16,3,12.29,12.29,3-4A124.44,124.44,0,0,0,265.75,133.11Z"/><path class="cls-3" d="M231.73,136.27H145.15v14.64h86.3c.3-3,.46-6.09.46-9.19C231.91,139.9,231.84,138.08,231.73,136.27Z"/></g></g></svg>