<svg height="250" viewBox="0 0 250 250" width="250" xmlns="http://www.w3.org/2000/svg" xmlns:xlink="http://www.w3.org/1999/xlink"><linearGradient id="a" gradientUnits="userSpaceOnUse" x1="67.11910967797" x2="182.88077013453" y1="24.74608108" y2="225.25379433797"><stop offset="0" stop-color="#0095d7"/><stop offset="1" stop-color="#0072aa"/></linearGradient><path d="m249.511719 125c0 68.765625-55.746094 124.511719-124.511719 124.511719s-124.511719-55.746094-124.511719-124.511719 55.746094-124.511719 124.511719-124.511719 124.511719 55.746094 124.511719 124.511719zm0 0" fill="#fff"/><path d="m240.746094 125c0 63.925781-51.820313 115.746094-115.746094 115.746094s-115.746094-51.820313-115.746094-115.746094 51.820313-115.746094 115.746094-115.746094 115.746094 51.820313 115.746094 115.746094zm0 0" fill="url(#a)"/><path d="m172.320312 139.289062c-1.855468-3.867187-4.546874-7.273437-7.886718-9.960937-3.898438-3.066406-8.265625-5.488281-12.929688-7.171875-5.292968-1.984375-11.269531-3.90625-17.769531-5.636719-5.0625-1.265625-9.628906-2.496093-13.566406-3.660156-3.554688-.988281-6.992188-2.351563-10.253907-4.070313-2.679687-1.382812-5.015624-3.34375-6.835937-5.742187-1.710937-2.359375-2.578125-5.292969-2.578125-8.730469 0-5.816406 2.207031-10.414062 6.550781-13.671875 4.136719-3.101562 10.039063-4.609375 18.042969-4.609375 4.316406 0 8.613281.546875 12.792969 1.621094 3.914062.996094 7.75 2.296875 11.464843 3.886719 3.136719 1.328125 6.160157 2.910156 9.042969 4.726562.59375.386719 1.144531.757813 1.660157 1.109375.171874.117188.382812.15625.585937.105469.207031-.039063.386719-.171875.488281-.359375l7.910156-14.527344c.191407-.34375.074219-.773437-.261718-.976562-5.554688-3.375-11.429688-6.199219-17.535156-8.433594-5.609376-2.050781-11.457032-3.363281-17.40625-3.90625l-.511719-.046875v-23.144531c0-.40625-.328125-.734375-.730469-.734375h-16.835938c-.40625 0-.734374.328125-.734374.734375v23.667968c-2.558594.417969-5.082032 1.007813-7.5625 1.765626-5.359376 1.601562-10.378907 4.1875-14.800782 7.617187-4.164062 3.296875-7.503906 7.511719-9.765625 12.320313-2.34375 4.914062-3.527343 10.65625-3.527343 17.089843 0 4.804688.71875 8.945313 2.152343 12.308594 1.457031 3.398437 3.644531 6.433594 6.414063 8.886719 3.328125 2.890625 7.089844 5.234375 11.152344 6.941406 5.355468 2.277344 10.871093 4.160156 16.5 5.636719 5.097656 1.464843 10.011718 2.878906 14.585937 4.222656 3.980469 1.125 7.859375 2.597656 11.585937 4.394531 3.417969 1.714844 6.132813 3.78125 8.054688 6.144532 2.117188 2.648437 3.234375 5.957031 3.15625 9.34375 0 11.089843-8.570312 16.949218-24.785156 16.949218-5.410156.011719-10.796875-.65625-16.039063-1.992187-4.820312-1.207031-9.527343-2.835938-14.066406-4.859375-3.769531-1.675782-7.425781-3.585938-10.949219-5.722656-1.105468-.683594-2.105468-1.328126-2.96875-1.921876-.175781-.117187-.390625-.15625-.59375-.101562-.214844.042969-.390625.183594-.488281.375l-8.101563 15.800781c-.175781.332031-.0625.742188.253907.945313 7.203125 4.648437 15.019531 8.261718 23.226562 10.742187 5.40625 1.660157 10.945313 2.867188 16.554688 3.605469l-.003907 21.542969c0 .402343.328126.730469.734376.730469h16.820312c.40625 0 .734375-.328126.734375-.730469v-20.875l.578125-.042969c4.117188-.292969 8.199219-.925781 12.207031-1.886719 5.382813-1.242187 10.488281-3.460937 15.074219-6.535156 4.261719-2.9375 7.742188-6.871094 10.136719-11.457031 2.496093-4.703125 3.761719-10.503906 3.761719-17.234375.03125-5.75-.894532-10.621094-2.734376-14.472657zm0 0" fill="#fff"/></svg>