<svg height="250" viewBox="0 0 250 250" width="250" xmlns="http://www.w3.org/2000/svg"><g fill-rule="evenodd"><path d="m250 125c0 69.035156-55.964844 125-125 125s-125-55.964844-125-125 55.964844-125 125-125 125 55.964844 125 125zm0 0" fill="#26a17b"/><path d="m140.015625 135.804688v-.015626c-.859375.0625-5.289063.328126-15.171875.328126-7.890625 0-13.445312-.234376-15.398438-.328126v.023438c-30.375-1.335938-53.046874-6.625-53.046874-12.953125 0-6.320313 22.671874-11.609375 53.046874-12.96875v20.65625c1.984376.140625 7.671876.476563 15.53125.476563 9.429688 0 14.15625-.390626 15.039063-.46875v-20.648438c30.3125 1.351562 52.929687 6.640625 52.929687 12.953125 0 6.328125-22.617187 11.601563-52.929687 12.945313m0-28.046876v-18.484374h42.296875v-28.1875h-115.164062v28.1875h42.296874v18.476562c-34.375 1.578125-60.226562 8.390625-60.226562 16.546875s25.851562 14.960937 60.226562 16.546875v59.234375h30.570313v-59.25c34.320313-1.578125 60.109375-8.382813 60.109375-16.53125s-25.789062-14.953125-60.109375-16.539063" fill="#fff"/></g></svg>