<svg height="250" viewBox="0 0 250 250" width="250" xmlns="http://www.w3.org/2000/svg" xmlns:xlink="http://www.w3.org/1999/xlink"><filter id="a" height="100%" width="100%" x="0%" y="0%"><feColorMatrix in="SourceGraphic" type="matrix" values="0 0 0 0 1 0 0 0 0 1 0 0 0 0 1 0 0 0 1 0"/></filter><mask id="b"><g filter="url(#a)"><path d="m0 0h250v250h-250z" fill-opacity=".3"/></g></mask><mask id="c"><g filter="url(#a)"><path d="m0 0h250v250h-250z" fill-opacity=".0625"/></g></mask><linearGradient id="d" gradientTransform="matrix(3.125 0 0 -3.125 0 256.25)" gradientUnits="userSpaceOnUse" x1="20.959999" x2="79.110001" y1="23.832701" y2="23.832701"><stop offset=".375" stop-opacity=".0625"/><stop offset="1" stop-opacity="0"/></linearGradient><clipPath id="e"><path d="m0 0h250v250h-250z"/></clipPath><mask id="f"><g filter="url(#a)"><path d="m0 0h250v250h-250z" fill-opacity=".125"/></g></mask><linearGradient id="g" gradientTransform="matrix(3.125 0 0 -3.125 0 256.25)" gradientUnits="userSpaceOnUse" x1="20.950001" x2="78.699997" y1="23.9785" y2="23.9785"><stop offset=".375" stop-opacity=".125"/><stop offset="1" stop-opacity="0"/></linearGradient><clipPath id="h"><path d="m0 0h250v250h-250z"/></clipPath><mask id="i"><g filter="url(#a)"><path d="m0 0h250v250h-250z" fill-opacity=".1875"/></g></mask><linearGradient id="j" gradientTransform="matrix(3.125 0 0 -3.125 0 256.25)" gradientUnits="userSpaceOnUse" x1="20.950001" x2="78.309998" y1="24.124599" y2="24.124599"><stop offset=".375" stop-opacity=".1875"/><stop offset="1" stop-opacity="0"/></linearGradient><clipPath id="k"><path d="m0 0h250v250h-250z"/></clipPath><mask id="l"><g filter="url(#a)"><path d="m0 0h250v250h-250z" fill-opacity=".25"/></g></mask><linearGradient id="m" gradientTransform="matrix(3.125 0 0 -3.125 0 256.25)" gradientUnits="userSpaceOnUse" x1="20.950001" x2="77.910004" y1="24.268499" y2="24.268499"><stop offset=".375" stop-opacity=".25"/><stop offset="1" stop-opacity="0"/></linearGradient><clipPath id="n"><path d="m0 0h250v250h-250z"/></clipPath><mask id="o"><g filter="url(#a)"><path d="m0 0h250v250h-250z" fill-opacity=".3125"/></g></mask><linearGradient id="p" gradientTransform="matrix(3.125 0 0 -3.125 0 256.25)" gradientUnits="userSpaceOnUse" x1="20.950001" x2="77.519997" y1="24.414101" y2="24.414101"><stop offset=".375" stop-opacity=".3125"/><stop offset="1" stop-opacity="0"/></linearGradient><clipPath id="q"><path d="m0 0h250v250h-250z"/></clipPath><mask id="r"><g filter="url(#a)"><path d="m0 0h250v250h-250z" fill-opacity=".375"/></g></mask><linearGradient id="s" gradientTransform="matrix(3.125 0 0 -3.125 0 256.25)" gradientUnits="userSpaceOnUse" x1="20.950001" x2="77.120003" y1="24.5571" y2="24.5571"><stop offset=".375" stop-opacity=".375"/><stop offset="1" stop-opacity="0"/></linearGradient><clipPath id="t"><path d="m0 0h250v250h-250z"/></clipPath><mask id="u"><g filter="url(#a)"><path d="m0 0h250v250h-250z" fill-opacity=".4375"/></g></mask><linearGradient id="v" gradientTransform="matrix(3.125 0 0 -3.125 0 256.25)" gradientUnits="userSpaceOnUse" x1="20.950001" x2="76.730003" y1="24.7015" y2="24.7015"><stop offset=".375" stop-opacity=".4375"/><stop offset="1" stop-opacity="0"/></linearGradient><clipPath id="w"><path d="m0 0h250v250h-250z"/></clipPath><mask id="x"><g filter="url(#a)"><path d="m0 0h250v250h-250z" fill-opacity=".5"/></g></mask><linearGradient id="y" gradientTransform="matrix(3.125 0 0 -3.125 0 256.25)" gradientUnits="userSpaceOnUse" x1="20.950001" x2="76.330002" y1="24.836" y2="24.836"><stop offset=".375" stop-opacity=".5"/><stop offset="1" stop-opacity="0"/></linearGradient><clipPath id="z"><path d="m0 0h250v250h-250z"/></clipPath><mask id="A"><g filter="url(#a)"><path d="m0 0h250v250h-250z" fill-opacity=".5625"/></g></mask><linearGradient id="B" gradientTransform="matrix(3.125 0 0 -3.125 0 256.25)" gradientUnits="userSpaceOnUse" x1="20.950001" x2="75.940002" y1="24.98" y2="24.98"><stop offset=".375" stop-opacity=".5625"/><stop offset="1" stop-opacity="0"/></linearGradient><clipPath id="C"><path d="m0 0h250v250h-250z"/></clipPath><mask id="D"><g filter="url(#a)"><path d="m0 0h250v250h-250z" fill-opacity=".625"/></g></mask><linearGradient id="E" gradientTransform="matrix(3.125 0 0 -3.125 0 256.25)" gradientUnits="userSpaceOnUse" x1="20.950001" x2="75.540001" y1="25.1234" y2="25.1234"><stop offset=".375" stop-opacity=".625"/><stop offset="1" stop-opacity="0"/></linearGradient><clipPath id="F"><path d="m0 0h250v250h-250z"/></clipPath><mask id="G"><g filter="url(#a)"><path d="m0 0h250v250h-250z" fill-opacity=".6875"/></g></mask><linearGradient id="H" gradientTransform="matrix(3.125 0 0 -3.125 0 256.25)" gradientUnits="userSpaceOnUse" x1="20.950001" x2="75.139999" y1="25.264" y2="25.264"><stop offset=".375" stop-opacity=".6875"/><stop offset="1" stop-opacity="0"/></linearGradient><clipPath id="I"><path d="m0 0h250v250h-250z"/></clipPath><mask id="J"><g filter="url(#a)"><path d="m0 0h250v250h-250z" fill-opacity=".75"/></g></mask><linearGradient id="K" gradientTransform="matrix(3.125 0 0 -3.125 0 256.25)" gradientUnits="userSpaceOnUse" x1="20.950001" x2="74.75" y1="25.4086" y2="25.4086"><stop offset=".375" stop-opacity=".75"/><stop offset="1" stop-opacity="0"/></linearGradient><clipPath id="L"><path d="m0 0h250v250h-250z"/></clipPath><mask id="M"><g filter="url(#a)"><path d="m0 0h250v250h-250z" fill-opacity=".8125"/></g></mask><linearGradient id="N" gradientTransform="matrix(3.125 0 0 -3.125 0 256.25)" gradientUnits="userSpaceOnUse" x1="20.950001" x2="74.349998" y1="25.5532" y2="25.5532"><stop offset=".375" stop-opacity=".8125"/><stop offset="1" stop-opacity="0"/></linearGradient><clipPath id="O"><path d="m0 0h250v250h-250z"/></clipPath><mask id="P"><g filter="url(#a)"><path d="m0 0h250v250h-250z" fill-opacity=".875"/></g></mask><linearGradient id="Q" gradientTransform="matrix(3.125 0 0 -3.125 0 256.25)" gradientUnits="userSpaceOnUse" x1="20.950001" x2="73.959999" y1="25.691999" y2="25.691999"><stop offset=".375" stop-opacity=".875"/><stop offset="1" stop-opacity="0"/></linearGradient><clipPath id="R"><path d="m0 0h250v250h-250z"/></clipPath><mask id="S"><g filter="url(#a)"><path d="m0 0h250v250h-250z" fill-opacity=".9375"/></g></mask><linearGradient id="T" gradientTransform="matrix(3.125 0 0 -3.125 0 256.25)" gradientUnits="userSpaceOnUse" x1="20.950001" x2="73.559998" y1="25.828501" y2="25.828501"><stop offset=".375" stop-opacity=".9375"/><stop offset="1" stop-opacity="0"/></linearGradient><clipPath id="U"><path d="m0 0h250v250h-250z"/></clipPath><linearGradient id="V" gradientTransform="matrix(3.125 0 0 -3.125 0 256.25)" gradientUnits="userSpaceOnUse" x1="20.950001" x2="73.169998" y1="25.955099" y2="25.955099"><stop offset=".375"/><stop offset="1" stop-opacity="0"/></linearGradient><clipPath id="W"><path d="m0 0h250v250h-250z"/></clipPath><linearGradient id="X" gradientTransform="matrix(3.125 0 0 -3.125 0 256.25)" gradientUnits="userSpaceOnUse" x1="20.950001" x2="73.169998" y1="13.7406" y2="13.7406"><stop offset="0" stop-color="#600000"/><stop offset=".3275" stop-color="#630000"/><stop offset=".5905" stop-color="#6d0000"/><stop offset=".8302" stop-color="#7e0000"/><stop offset="1" stop-color="#8f0000"/></linearGradient><linearGradient id="Y" gradientTransform="matrix(3.125 0 0 -3.125 0 256.25)" gradientUnits="userSpaceOnUse" x1="47.060001" x2="47.060001" y1="18.4487" y2="9.0245"><stop offset=".35" stop-color="#bf1010"/><stop offset=".6454" stop-color="#bd1010"/><stop offset=".7517" stop-color="#b60f0f"/><stop offset=".8276" stop-color="#ab0d0d"/><stop offset=".8889" stop-color="#9a0a0a"/><stop offset=".9414" stop-color="#840606"/><stop offset=".987" stop-color="#690202"/><stop offset="1" stop-color="#600000"/></linearGradient><linearGradient id="Z" gradientTransform="matrix(3.125 0 0 -3.125 0 256.25)" gradientUnits="userSpaceOnUse" x1="20.950001" x2="73.169998" y1="29.5942" y2="29.5942"><stop offset="0" stop-color="#bf1010"/><stop offset=".021" stop-color="#c11212"/><stop offset=".2435" stop-color="#d22323"/><stop offset=".4872" stop-color="#dc2d2d"/><stop offset=".7911" stop-color="#df3030"/><stop offset=".8415" stop-color="#dc2e2e"/><stop offset=".8819" stop-color="#d22626"/><stop offset=".919" stop-color="#c11919"/><stop offset=".9537" stop-color="#a90808"/><stop offset=".966" stop-color="#9f0000"/><stop offset="1" stop-color="#df3030"/></linearGradient><linearGradient id="aa"><stop offset="0" stop-color="#dfdfdf"/><stop offset=".021" stop-color="#e1e1e1"/><stop offset=".2435" stop-color="#f2f2f2"/><stop offset=".4872" stop-color="#fcfcfc"/><stop offset=".7911" stop-color="#fff"/><stop offset=".8415" stop-color="#fcfcfc"/><stop offset=".8819" stop-color="#f2f2f2"/><stop offset=".919" stop-color="#e1e1e1"/><stop offset=".9537" stop-color="#c9c9c9"/><stop offset=".966" stop-color="#bfbfbf"/><stop offset="1" stop-color="#fff"/></linearGradient><linearGradient id="ab" gradientTransform="matrix(3.125 0 0 -3.125 0 256.25)" gradientUnits="userSpaceOnUse" x1="20.99" x2="73.209999" xlink:href="#aa" y1="34.9394" y2="34.9394"/><linearGradient id="ac" gradientTransform="matrix(3.125 0 0 -3.125 0 256.25)" gradientUnits="userSpaceOnUse" x1="20.93" x2="73.160004" xlink:href="#aa" y1="21.5417" y2="21.5417"/><linearGradient id="ad" gradientTransform="matrix(3.125 0 0 -3.125 0 256.25)" gradientUnits="userSpaceOnUse" x1="20.940001" x2="73.160103" xlink:href="#aa" y1="16.1898" y2="16.1898"/><linearGradient id="ae" gradientTransform="matrix(3.125 0 0 -3.125 0 256.25)" gradientUnits="userSpaceOnUse" x1="20.959999" x2="73.180397" y1="35.785" y2="35.785"><stop offset="0" stop-color="#00209f"/><stop offset=".021" stop-color="#0222a1"/><stop offset=".2435" stop-color="#1333b2"/><stop offset=".4872" stop-color="#1d3dbc"/><stop offset=".7911" stop-color="#2040bf"/><stop offset=".8415" stop-color="#1e3dbc"/><stop offset=".8819" stop-color="#1933b2"/><stop offset=".919" stop-color="#1122a1"/><stop offset=".9537" stop-color="#050a89"/><stop offset=".966" stop-color="#00007f"/><stop offset="1" stop-color="#2040bf"/></linearGradient><linearGradient id="af" gradientTransform="matrix(3.125 0 0 -3.125 0 256.25)" gradientUnits="userSpaceOnUse" x1="20.9527" x2="73.169601" xlink:href="#aa" y1="42.395" y2="42.395"/><linearGradient id="ag" gradientTransform="matrix(3.125 0 0 -3.125 0 256.25)" gradientUnits="userSpaceOnUse" x1="20.953199" x2="73.167297" xlink:href="#aa" y1="33.154999" y2="33.154999"/><linearGradient id="ah" gradientTransform="matrix(3.125 0 0 -3.125 0 256.25)" gradientUnits="userSpaceOnUse" x1="20.953199" x2="73.167297" xlink:href="#aa" y1="29.424999" y2="29.424999"/><linearGradient id="ai" gradientTransform="matrix(3.125 0 0 -3.125 0 256.25)" gradientUnits="userSpaceOnUse" x1="20.9527" x2="73.169601" xlink:href="#aa" y1="34.93" y2="34.93"/><linearGradient id="aj" gradientTransform="matrix(3.125 0 0 -3.125 0 256.25)" gradientUnits="userSpaceOnUse" x1="20.9527" x2="73.169701" xlink:href="#aa" y1="31.184999" y2="31.184999"/><linearGradient id="ak" gradientTransform="matrix(3.125 0 0 -3.125 0 256.25)" gradientUnits="userSpaceOnUse" x1="20.9527" x2="73.169601" xlink:href="#aa" y1="38.654999" y2="38.654999"/><linearGradient id="al" gradientTransform="matrix(3.125 0 0 -3.125 0 256.25)" gradientUnits="userSpaceOnUse" x1="20.9498" x2="73.179298" xlink:href="#aa" y1="29.725" y2="29.725"/><linearGradient id="am" gradientTransform="matrix(3.125 0 0 -3.125 0 256.25)" gradientUnits="userSpaceOnUse" x1="20.953199" x2="73.167297" xlink:href="#aa" y1="36.895" y2="36.895"/><linearGradient id="an" gradientTransform="matrix(3.125 0 0 -3.125 0 256.25)" gradientUnits="userSpaceOnUse" x1="20.9534" x2="73.167503" xlink:href="#aa" y1="31.415001" y2="31.415001"/><linearGradient id="ao" gradientTransform="matrix(3.125 0 0 -3.125 0 256.25)" gradientUnits="userSpaceOnUse" x1="20.9534" x2="73.167503" xlink:href="#aa" y1="27.674999" y2="27.674999"/><linearGradient id="ap" gradientTransform="matrix(3.125 0 0 -3.125 0 256.25)" gradientUnits="userSpaceOnUse" x1="20.953199" x2="73.167297" xlink:href="#aa" y1="40.634998" y2="40.634998"/><linearGradient id="aq" gradientTransform="matrix(3.125 0 0 -3.125 0 256.25)" gradientUnits="userSpaceOnUse" x1="20.952999" x2="73.168602" xlink:href="#aa" y1="35.154999" y2="35.154999"/><linearGradient id="ar" gradientTransform="matrix(3.125 0 0 -3.125 0 256.25)" gradientUnits="userSpaceOnUse" x1="20.9527" x2="73.169701" xlink:href="#aa" y1="27.450001" y2="27.450001"/><linearGradient id="as" gradientTransform="matrix(3.125 0 0 -3.125 0 256.25)" gradientUnits="userSpaceOnUse" x1="20.952101" x2="73.178802" xlink:href="#aa" y1="34.814999" y2="34.814999"/><linearGradient id="at" gradientTransform="matrix(3.125 0 0 -3.125 0 256.25)" gradientUnits="userSpaceOnUse" x1="20.952101" x2="73.178802" xlink:href="#aa" y1="38.549999" y2="38.549999"/><linearGradient id="au" gradientTransform="matrix(3.125 0 0 -3.125 0 256.25)" gradientUnits="userSpaceOnUse" x1="20.952299" x2="73.164902" xlink:href="#aa" y1="27.34" y2="27.34"/><linearGradient id="av" gradientTransform="matrix(3.125 0 0 -3.125 0 256.25)" gradientUnits="userSpaceOnUse" x1="20.9534" x2="73.167503" xlink:href="#aa" y1="38.889999" y2="38.889999"/><linearGradient id="aw" gradientTransform="matrix(3.125 0 0 -3.125 0 256.25)" gradientUnits="userSpaceOnUse" x1="20.9534" x2="73.167503" xlink:href="#aa" y1="42.630001" y2="42.630001"/><linearGradient id="ax" gradientTransform="matrix(3.125 0 0 -3.125 0 256.25)" gradientUnits="userSpaceOnUse" x1="20.952299" x2="73.1651" xlink:href="#aa" y1="31.08" y2="31.08"/><linearGradient id="ay" gradientTransform="matrix(3.125 0 0 -3.125 0 256.25)" gradientUnits="userSpaceOnUse" x1="20.9526" x2="73.166702" xlink:href="#aa" y1="40.459999" y2="40.459999"/><linearGradient id="az" gradientTransform="matrix(3.125 0 0 -3.125 0 256.25)" gradientUnits="userSpaceOnUse" x1="20.9526" x2="73.166603" xlink:href="#aa" y1="36.720001" y2="36.720001"/><linearGradient id="aA" gradientTransform="matrix(3.125 0 0 -3.125 0 256.25)" gradientUnits="userSpaceOnUse" x1="20.9526" x2="73.166603" xlink:href="#aa" y1="29.24" y2="29.24"/><linearGradient id="aB" gradientTransform="matrix(3.125 0 0 -3.125 0 256.25)" gradientUnits="userSpaceOnUse" x1="20.9526" x2="73.166702" xlink:href="#aa" y1="32.98" y2="32.98"/><linearGradient id="aC" gradientTransform="matrix(3.125 0 0 -3.125 0 256.25)" gradientUnits="userSpaceOnUse" x1="20.952101" x2="73.177498" xlink:href="#aa" y1="42.290001" y2="42.290001"/><linearGradient id="aD" gradientTransform="matrix(3.125 0 0 -3.125 0 256.25)" gradientUnits="userSpaceOnUse" x1="20.9498" x2="73.179298" xlink:href="#aa" y1="33.455002" y2="33.455002"/><linearGradient id="aE" gradientTransform="matrix(3.125 0 0 -3.125 0 256.25)" gradientUnits="userSpaceOnUse" x1="20.955099" x2="73.167801" xlink:href="#aa" y1="34.400002" y2="34.400002"/><linearGradient id="aF" gradientTransform="matrix(3.125 0 0 -3.125 0 256.25)" gradientUnits="userSpaceOnUse" x1="20.955" x2="73.167702" xlink:href="#aa" y1="38.139999" y2="38.139999"/><linearGradient id="aG" gradientTransform="matrix(3.125 0 0 -3.125 0 256.25)" gradientUnits="userSpaceOnUse" x1="20.955099" x2="73.167801" xlink:href="#aa" y1="30.66" y2="30.66"/><linearGradient id="aH" gradientTransform="matrix(3.125 0 0 -3.125 0 256.25)" gradientUnits="userSpaceOnUse" x1="20.945101" x2="73.184402" xlink:href="#aa" y1="39.73" y2="39.73"/><linearGradient id="aI" gradientTransform="matrix(3.125 0 0 -3.125 0 256.25)" gradientUnits="userSpaceOnUse" x1="20.955601" x2="73.166901" xlink:href="#aa" y1="41.880001" y2="41.880001"/><linearGradient id="aJ" gradientTransform="matrix(3.125 0 0 -3.125 0 256.25)" gradientUnits="userSpaceOnUse" x1="20.945101" x2="73.184402" xlink:href="#aa" y1="43.470001" y2="43.470001"/><linearGradient id="aK" gradientTransform="matrix(3.125 0 0 -3.125 0 256.25)" gradientUnits="userSpaceOnUse" x1="20.953699" x2="73.170601" xlink:href="#aa" y1="36.564999" y2="36.564999"/><linearGradient id="aL" gradientTransform="matrix(3.125 0 0 -3.125 0 256.25)" gradientUnits="userSpaceOnUse" x1="20.953699" x2="73.170601" xlink:href="#aa" y1="40.305" y2="40.305"/><linearGradient id="aM" gradientTransform="matrix(3.125 0 0 -3.125 0 256.25)" gradientUnits="userSpaceOnUse" x1="20.954399" x2="73.169899" xlink:href="#aa" y1="29.094999" y2="29.094999"/><linearGradient id="aN" gradientTransform="matrix(3.125 0 0 -3.125 0 256.25)" gradientUnits="userSpaceOnUse" x1="20.9536" x2="73.170502" xlink:href="#aa" y1="44.044998" y2="44.044998"/><linearGradient id="aO" gradientTransform="matrix(3.125 0 0 -3.125 0 256.25)" gradientUnits="userSpaceOnUse" x1="20.9538" x2="73.1707" xlink:href="#aa" y1="32.834999" y2="32.834999"/><linearGradient id="aP" gradientTransform="matrix(3.125 0 0 -3.125 0 256.25)" gradientUnits="userSpaceOnUse" x1="20.945101" x2="73.184303" xlink:href="#aa" y1="35.990002" y2="35.990002"/><linearGradient id="aQ" gradientTransform="matrix(3.125 0 0 -3.125 0 256.25)" gradientUnits="userSpaceOnUse" x1="20.9498" x2="73.179298" xlink:href="#aa" y1="40.935001" y2="40.935001"/><linearGradient id="aR" gradientTransform="matrix(3.125 0 0 -3.125 0 256.25)" gradientUnits="userSpaceOnUse" x1="20.953699" x2="73.167801" xlink:href="#aa" y1="31.795" y2="31.795"/><linearGradient id="aS" gradientTransform="matrix(3.125 0 0 -3.125 0 256.25)" gradientUnits="userSpaceOnUse" x1="20.945101" x2="73.184303" xlink:href="#aa" y1="32.259998" y2="32.259998"/><linearGradient id="aT" gradientTransform="matrix(3.125 0 0 -3.125 0 256.25)" gradientUnits="userSpaceOnUse" x1="20.953699" x2="73.167702" xlink:href="#aa" y1="39.275002" y2="39.275002"/><linearGradient id="aU" gradientTransform="matrix(3.125 0 0 -3.125 0 256.25)" gradientUnits="userSpaceOnUse" x1="20.953699" x2="73.167801" xlink:href="#aa" y1="28.055" y2="28.055"/><linearGradient id="aV" gradientTransform="matrix(3.125 0 0 -3.125 0 256.25)" gradientUnits="userSpaceOnUse" x1="20.9498" x2="73.179298" xlink:href="#aa" y1="37.195" y2="37.195"/><linearGradient id="aW" gradientTransform="matrix(3.125 0 0 -3.125 0 256.25)" gradientUnits="userSpaceOnUse" x1="20.950399" x2="73.177101" xlink:href="#aa" y1="43.005001" y2="43.005001"/><linearGradient id="aX" gradientTransform="matrix(3.125 0 0 -3.125 0 256.25)" gradientUnits="userSpaceOnUse" x1="20.953699" x2="73.167702" xlink:href="#aa" y1="35.535" y2="35.535"/><linearGradient id="aY" gradientTransform="matrix(3.125 0 0 -3.125 0 256.25)" gradientUnits="userSpaceOnUse" x1="20.945101" x2="73.184303" xlink:href="#aa" y1="28.51" y2="28.51"/><linearGradient id="aZ" gradientTransform="matrix(3.125 0 0 -3.125 0 256.25)" gradientUnits="userSpaceOnUse" x1="20.9536" x2="73.169197" xlink:href="#aa" y1="30.145" y2="30.145"/><linearGradient id="a0" gradientTransform="matrix(3.125 0 0 -3.125 0 256.25)" gradientUnits="userSpaceOnUse" x1="20.9536" x2="73.169197" xlink:href="#aa" y1="41.355" y2="41.355"/><linearGradient id="a1" gradientTransform="matrix(3.125 0 0 -3.125 0 256.25)" gradientUnits="userSpaceOnUse" x1="20.9536" x2="73.169197" xlink:href="#aa" y1="33.875" y2="33.875"/><linearGradient id="a2" gradientTransform="matrix(3.125 0 0 -3.125 0 256.25)" gradientUnits="userSpaceOnUse" x1="20.9536" x2="73.169197" xlink:href="#aa" y1="37.615002" y2="37.615002"/><path d="m105.1875 174.03125c5.21875 19.28125 23.90625 33.96875 33.34375 33.375.34375-.03125 35.78125-6.625 55.21875-39.0625 15.09375-25.25 9.96875-49.625-10.59375-50.15625-7.40625.5625-87.90625 19.15625-77.96875 55.84375" fill="#0e3ca5"/><path d="m181.21875 50.28125v-.03125c-15.75-13.40625-36.15625-21.5-58.4375-21.5-13.03125 0-25.40625 2.78125-36.59375 7.78125-2 .84375-3.90625 1.78125-5.71875 2.8125-1.25.6875-2.53125 1.34375-3.75 2.0625l.3125.09375c-3.71875 2.5625-6.90625 5.5625-9.53125 9-25.875 34.1875 60.875 59.0625 107.25 59.125 21.34375 15.34375 27.3125-43.125 6.46875-59.34375zm0 0" fill="#0e3ca5"/><g fill="#5493f7"><path d="m91.40625 50.96875c-11.90625 17.90625-51.625 30.53125-58.15625 28.5625 0-.03125-.03125-.0625-.03125-.09375.28125-.53125.53125-1.0625.8125-1.625 2.25-4.375 4.84375-8.53125 7.71875-12.46875s6.0625-7.625 9.5-11.0625 7.15625-6.625 11.0625-9.5c2.4375-1.78125 4.96875-3.46875 7.59375-5.03125 5.5625-3.21875 11.25-3.4375 13.125-3.5 17.71875.40625 8.46875 14.59375 8.375 14.71875"/><path d="m81.65625 177.5625c.84375 5.625-.03125 27.875-1.1875 29.71875-1 .0625-3.0625.1875-9.03125-3.15625-3.15625-1.78125-6.1875-3.75-9.0625-5.90625-3.9375-2.875-7.625-6.0625-11.0625-9.5s-6.625-7.15625-9.5-11.0625c-2.875-3.9375-5.46875-8.09375-7.71875-12.46875s-4.1875-8.90625-5.75-13.625-2.78125-9.59375-3.59375-14.625-1.25-10.15625-1.25-15.40625.4375-10.40625 1.25-15.40625c.8125-5.03125 2.03125-9.90625 3.59375-14.625.3125-.96875.65625-1.90625 1-2.84375 6.84375 9.125 14.78125 17.34375 21.53125 26.5625 6.40625 8.75 15.25 23.0625 17.03125 26.09375 11.09375 18.9375 12.875 30.625 13.75 36.25"/><path d="m213.53125 121.53125c0 12.3125-2.34375 24.09375-6.625 34.90625-11.1875 12.03125-86.6875-17.59375-87.40625-17.90625-10.3125-4.53125-41.75-18.28125-44.59375-39.90625-4.0625-31.09375 59.03125-52.78125 86.78125-53.59375 3.3125.03125 13.4375.15625 19.34375 4.9375 19.90625 17.40625 32.5 43.03125 32.5 71.5625"/><path d="m162.4375 205.84375c-8.21875 3.84375-17.28125 1.03125-14.9375-6.96875 4.53125-15.375 43.96875-31.15625 52.6875-32.03125 1.0625-.09375 1.53125.625 1.0625 1.46875-9.09375 15.90625-22.53125 29.03125-38.8125 37.53125"/></g><g clip-path="url(#W)" mask="url(#b)"><g clip-path="url(#e)" mask="url(#c)"><path d="m71.59375 119.125c-3.375 0-6.09375 2.3125-6.09375 5.1875v96.5625c0 3.90625 2.71875 7.03125 6.09375 7.0625 89.1875.53125 175.65625 25.5 175.625 12.96875-.125-31.84375-.125-75.625 0-107.4375.03125-12.8125-86.46875-14.28125-175.625-14.34375zm0 0" fill="url(#d)"/></g><g clip-path="url(#h)" mask="url(#f)"><path d="m71.5625 119.125c-3.375 0-6.09375 2.3125-6.09375 5.1875v96.5625c0 3.90625 2.71875 7.03125 6.09375 7.0625 88.5625.53125 174.4375 24.25 174.375 12.125-.125-31.375-.125-74.71875 0-106.09375.0625-12.40625-85.8125-14.71875-174.375-14.84375zm0 0" fill="url(#g)"/></g><g clip-path="url(#k)" mask="url(#i)"><path d="m71.5625 119.125c-3.375 0-6.09375 2.3125-6.09375 5.1875v96.5625c0 3.90625 2.71875 7.03125 6.09375 7.0625 87.9375.5 173.1875 23 173.15625 11.28125-.125-30.9375-.125-73.8125 0-104.75.0625-11.96875-85.21875-15.1875-173.15625-15.34375zm0 0" fill="url(#j)"/></g><g clip-path="url(#n)" mask="url(#l)"><path d="m71.5625 119.125c-3.375 0-6.09375 2.3125-6.09375 5.1875v96.5625c0 3.90625 2.71875 7.03125 6.09375 7.0625 87.3125.46875 171.96875 21.78125 171.90625 10.4375-.125-30.5-.125-72.9375 0-103.40625.0625-11.5625-84.59375-15.625-171.90625-15.84375zm0 0" fill="url(#m)"/></g><g clip-path="url(#q)" mask="url(#o)"><path d="m71.5625 119.125c-3.375 0-6.09375 2.3125-6.09375 5.1875v96.5625c0 3.90625 2.71875 7.03125 6.09375 7.0625 86.65625.4375 170.71875 20.53125 170.6875 9.59375-.125-30.03125-.125-72.03125 0-102.0625.0625-11.15625-83.96875-16.09375-170.6875-16.34375zm0 0" fill="url(#p)"/></g><g clip-path="url(#t)" mask="url(#r)"><path d="m71.5625 119.125c-3.375 0-6.09375 2.3125-6.09375 5.1875v96.5625c0 3.90625 2.71875 7.03125 6.09375 7.0625 86.03125.40625 169.46875 19.28125 169.4375 8.78125-.125-29.59375-.125-71.125 0-100.71875.0625-10.75-83.34375-16.59375-169.4375-16.875zm0 0" fill="url(#s)"/></g><g clip-path="url(#w)" mask="url(#u)"><path d="m71.5625 119.125c-3.375 0-6.09375 2.3125-6.09375 5.1875v96.5625c0 3.90625 2.71875 7.03125 6.09375 7.0625 85.40625.40625 168.25 18.03125 168.21875 7.9375-.125-29.15625-.125-70.21875 0-99.375.03125-10.34375-82.75-17.21875-168.21875-17.375zm0 0" fill="url(#v)"/></g><g clip-path="url(#z)" mask="url(#x)"><path d="m71.5625 119.15625c-3.375 0-6.09375 2.3125-6.09375 5.1875v96.5625c0 3.90625 2.71875 7.03125 6.09375 7.0625 84.78125.375 167 16.78125 166.96875 7.09375-.125-28.6875-.125-69.34375 0-98.03125.0625-9.9375-82.125-17.75-166.96875-17.875zm0 0" fill="url(#y)"/></g><g clip-path="url(#C)" mask="url(#A)"><path d="m71.5625 119.15625c-3.375 0-6.09375 2.3125-6.09375 5.1875v96.5625c0 3.90625 2.71875 7.03125 6.09375 7.0625 84.15625.34375 165.78125 15.53125 165.75 6.25-.125-28.25-.125-68.4375 0-96.6875.03125-9.53125-81.53125-18.21875-165.75-18.375zm0 0" fill="url(#B)"/></g><g clip-path="url(#F)" mask="url(#D)"><path d="m71.5625 119.15625c-3.375 0-6.09375 2.3125-6.09375 5.1875v96.5625c0 3.90625 2.71875 7.03125 6.09375 7.0625 83.53125.3125 164.53125 14.28125 164.5 5.40625-.125-27.8125-.125-67.53125 0-95.34375.0625-9.125-80.90625-18.71875-164.5-18.875zm0 0" fill="url(#E)"/></g><g clip-path="url(#I)" mask="url(#G)"><path d="m71.5625 119.15625c-3.375 0-6.09375 2.3125-6.09375 5.1875v96.5625c0 3.90625 2.71875 7.03125 6.09375 7.0625 82.90625.28125 163.3125 13.03125 163.25 4.59375-.125-27.34375-.125-66.65625 0-94 .0625-8.71875-80.28125-19.21875-163.25-19.40625zm0 0" fill="url(#H)"/></g><g clip-path="url(#L)" mask="url(#J)"><path d="m71.5625 119.15625c-3.375 0-6.09375 2.3125-6.09375 5.1875v96.5625c0 3.90625 2.71875 7.03125 6.09375 7.03125 82.28125.25 162.0625 11.8125 162.03125 3.75-.125-26.90625-.125-65.75 0-92.65625.0625-8.28125-79.6875-19.65625-162.03125-19.875zm0 0" fill="url(#K)"/></g><g clip-path="url(#O)" mask="url(#M)"><path d="m71.5625 119.15625c-3.375 0-6.09375 2.3125-6.09375 5.15625v96.5625c0 3.90625 2.71875 7.03125 6.09375 7.03125 81.65625.25 160.8125 10.5625 160.78125 2.90625-.125-26.4375-.125-64.84375 0-91.3125.0625-7.84375-79.03125-20.125-160.78125-20.34375zm0 0" fill="url(#N)"/></g><g clip-path="url(#R)" mask="url(#P)"><path d="m71.5625 119.15625c-3.375 0-6.09375 2.3125-6.09375 5.15625v96.5625c0 3.875 2.71875 7.03125 6.09375 7.03125 81.03125.21875 159.59375 9.3125 159.5625 2.0625-.125-26-.125-63.96875 0-89.96875.03125-7.40625-78.4375-20.59375-159.5625-20.84375zm0 0" fill="url(#Q)"/></g><g clip-path="url(#U)" mask="url(#S)"><path d="m71.5625 119.15625c-3.375 0-6.09375 2.3125-6.09375 5.15625v96.5625c0 3.875 2.71875 7.03125 6.09375 7.03125 80.40625.1875 158.34375 8.0625 158.3125 1.21875-.125-25.5625-.125-63.0625 0-88.625.0625-7-77.8125-21.09375-158.3125-21.34375zm0 0" fill="url(#T)"/></g><path d="m71.5625 119.15625c-3.375 0-6.09375 2.3125-6.09375 5.15625v96.5625c0 3.875 2.71875 7.03125 6.09375 7.03125 79.78125.3125 157.15625 6.8125 157.09375.40625 0-25.09375 0-62.15625 0-87.28125.0625-6.59375-77.21875-21.15625-157.09375-21.875zm0 0" fill="url(#V)"/></g><path d="m65.46875 220.90625c0 3.875 2.71875 7.03125 6.0625 7.0625 79.9375.5625 157.125-3.125 157.125-15.09375 0-36.28125-163.1875 8.03125-163.1875 8.03125zm0 0" fill="url(#X)"/><path d="m65.46875 220.90625c0 3.90625 2.71875 7.0625 6.09375 7.0625 79.9375.59375 157-1.90625 157.09375-15.09375 0-36.28125-163.1875 8.03125-163.1875 8.03125zm6.09375 6.59375c-.21875 0-.4375 0-.625-.03125-2.4375-.28125-4.46875-2.125-5.1875-4.59375.78125 2.65625 3.09375 4.59375 5.8125 4.59375 79.875-.5 155.84375-25.09375 155.84375-14.28125 0 11.0625-75.96875 14.875-155.84375 14.3125zm0 0" fill="url(#Y)"/><path d="m71.5625 118.21875c-3.375 0-6.09375 2.71875-6.09375 6.09375v96.59375c0 3.34375 2.71875 6.0625 6.0625 6.09375 79.9375-.59375 157.21875-27.0625 157.125-14.125 0-36.25 0-72.53125 0-108.78125.09375-12.9375-77.15625 13.53125-157.09375 14.125zm0 0" fill="url(#Z)"/><path d="m83.375 184.875c2.84375-.125 5.625-.21875 8.375-.375s5.4375-.34375 8.0625-.53125 5.21875-.40625 7.78125-.65625c2.5625-.21875 5.0625-.46875 7.5625-.71875s4.9375-.5 7.34375-.78125c2.4375-.28125 4.8125-.5625 7.1875-.84375s4.75-.59375 7.09375-.90625 4.6875-.625 7.03125-.96875 4.65625-.71875 7-1.0625c2.34375-.375 4.6875-.71875 7.03125-1.09375s4.71875-.75 7.09375-1.15625 4.75-.8125 7.15625-1.21875 4.84375-.84375 7.34375-1.25c2.46875-.4375 4.96875-.875 7.5-1.3125s5.09375-.90625 7.71875-1.34375 5.28125-.875 8-1.28125 5.1875-.78125 8.59375-1.21875c3.40625-.40625 7.65625-.8125 11.15625-.59375 3.5.25 6.28125 1.125 6.28125 3.5625 0-2.78125 0-5.5625 0-8.375 0-2.40625-2.65625-3.28125-5.90625-3.53125-3.25-.28125-7.15625.0625-10.40625.4375s-5.59375.71875-8.03125 1.09375-4.84375.75-7.1875 1.125-4.65625.78125-6.96875 1.1875-4.59375.8125-6.875 1.21875c-2.3125.40625-4.625.8125-6.96875 1.21875s-4.75.8125-7.21875 1.25-4.9375.84375-7.5625 1.28125c-2.625.40625-5.3125.84375-8.15625 1.28125-2.8125.4375-5.75.90625-8.8125 1.34375 0-3.34375 0-5.03125 0-8.375 3.0625-.4375 5.96875-.90625 8.8125-1.34375 2.8125-.4375 5.53125-.875 8.15625-1.28125 2.625-.4375 5.09375-.84375 7.5625-1.28125s4.84375-.84375 7.21875-1.25c2.34375-.40625 4.6875-.8125 6.96875-1.21875 2.3125-.40625 4.59375-.8125 6.875-1.21875 2.3125-.40625 4.59375-.78125 6.96875-1.1875 2.34375-.375 4.75-.75 7.1875-1.125s4.78125-.71875 8.03125-1.09375 7.15625-.71875 10.40625-.4375 5.9375 1.125 5.9375 3.53125c0-2.78125 0-5.59375 0-8.375 0-2.40625-2.65625-3.28125-5.90625-3.53125-3.25-.28125-7.15625.0625-10.40625.4375s-5.59375.71875-8.03125 1.09375-4.84375.75-7.1875 1.125-4.65625.78125-6.96875 1.1875-4.59375.8125-6.875 1.21875c-2.3125.40625-4.625.8125-6.96875 1.21875s-4.75.8125-7.21875 1.25-4.9375.84375-7.5625 1.28125c-2.625.40625-5.3125.84375-8.15625 1.28125-2.8125.4375-5.75.90625-8.8125 1.34375 0-3.34375 0-5.03125 0-8.375 3.0625-.46875 5.96875-.90625 8.8125-1.34375 2.8125-.4375 5.53125-.875 8.15625-1.28125 2.625-.4375 5.09375-.84375 7.5625-1.28125s4.84375-.84375 7.21875-1.25c2.34375-.40625 4.6875-.8125 6.96875-1.21875 2.3125-.40625 4.59375-.8125 6.875-1.21875 2.3125-.40625 4.59375-.8125 6.96875-1.1875 2.34375-.375 4.75-.75 7.1875-1.125s4.78125-.71875 8.03125-1.09375 7.15625-.71875 10.40625-.4375 5.9375 1.125 5.9375 3.53125c0-2.78125 0-5.59375 0-8.375 0-2.40625-2.65625-3.28125-5.90625-3.53125-3.25-.28125-7.15625.0625-10.40625.4375s-5.59375.71875-8.03125 1.09375-4.84375.75-7.1875 1.125-4.65625.78125-6.96875 1.1875-4.59375.8125-6.875 1.21875c-2.3125.40625-4.625.8125-6.96875 1.21875s-4.75.8125-7.21875 1.25-4.9375.84375-7.5625 1.28125-5.3125.84375-8.15625 1.28125c-2.8125.4375-5.75.90625-8.8125 1.34375 0-3.34375 0-5.03125 0-8.375 3.0625-.4375 5.96875-.90625 8.8125-1.34375 2.8125-.4375 5.53125-.875 8.15625-1.28125 2.625-.4375 5.09375-.84375 7.5625-1.28125 2.46875-.40625 4.84375-.84375 7.21875-1.25 2.34375-.40625 4.6875-.8125 6.96875-1.21875 2.3125-.40625 4.59375-.8125 6.875-1.21875 2.3125-.40625 4.59375-.8125 6.96875-1.1875 2.34375-.375 4.71875-.75 7.1875-1.125 2.4375-.375 4.78125-.71875 8.03125-1.09375s7.15625-.71875 10.40625-.4375 5.9375 1.125 5.9375 3.53125c0-2.78125 0-5.59375 0-8.375 0-2.40625-2.65625-3.28125-5.90625-3.53125s-7.15625.0625-10.40625.4375-5.59375.71875-8.03125 1.09375-4.84375.75-7.1875 1.125-4.65625.78125-6.96875 1.1875-4.59375.8125-6.875 1.21875c-2.3125.40625-4.625.8125-6.96875 1.21875s-4.75.8125-7.21875 1.25-4.9375.84375-7.5625 1.28125-5.3125.84375-8.15625 1.28125c-2.8125.4375-5.75.90625-8.8125 1.34375 0-1.59375 0-5 0-8.5-22.46875 3.3125-47.59375 6.125-73 6.3125-3.375 0-6.09375 2.71875-6.09375 6.09375v60.9375c3.125 0 6.15625-.03125 9.15625-.09375 2.84375-.0625 5.75-.15625 8.625-.28125zm0 0" fill="url(#ab)"/><path d="m83.34375 201.625c2.84375-.09375 5.625-.21875 8.375-.375s5.4375-.34375 8.0625-.53125 5.21875-.40625 7.78125-.65625c2.5625-.21875 5.0625-.46875 7.5625-.71875 2.46875-.25 4.9375-.5 7.34375-.78125 2.4375-.28125 4.8125-.5625 7.1875-.84375 2.375-.3125 4.75-.59375 7.09375-.90625s4.6875-.65625 7.03125-.96875c2.34375-.34375 4.65625-.71875 7-1.0625 2.34375-.375 4.6875-.71875 7.03125-1.09375s4.71875-.75 7.09375-1.15625 4.75-.8125 7.15625-1.21875 4.84375-.84375 7.3125-1.25 4.96875-.84375 7.5-1.3125c2.53125-.4375 5.125-.90625 7.71875-1.34375 2.625-.4375 5.28125-.875 8-1.28125s5.1875-.78125 8.59375-1.21875c3.40625-.40625 7.65625-.84375 11.15625-.59375s6.28125 1.125 6.28125 3.5625c0-2.78125 0-5.59375 0-8.375 0-2.4375-2.78125-3.34375-6.28125-3.5625-3.5-.25-7.75.1875-11.15625.59375s-5.875.8125-8.59375 1.21875-5.375.84375-8 1.28125-5.1875.90625-7.71875 1.34375-5.03125.875-7.5 1.3125-4.90625.84375-7.34375 1.25c-2.40625.40625-4.78125.84375-7.15625 1.21875-2.375.40625-4.71875.78125-7.09375 1.15625-2.34375.375-4.6875.71875-7.03125 1.09375s-4.65625.71875-7 1.0625-4.6875.65625-7.03125.96875-4.71875.625-7.09375.90625-4.78125.59375-7.1875.84375c-2.40625.28125-4.875.53125-7.34375.78125-2.5.25-5 .5-7.5625.71875s-5.15625.4375-7.78125.65625c-2.625.1875-5.3125.375-8.0625.53125s-5.53125.28125-8.375.375-5.75.1875-8.75.28125c-2.96875.0625-6.03125.09375-9.15625.09375v8.375c3.125 0 6.15625-.03125 9.15625-.09375 3.03125-.09375 5.9375-.1875 8.78125-.28125zm0 0" fill="url(#ac)"/><path d="m222.375 192.65625c-3.5-.21875-7.75.1875-11.15625.59375s-5.875.78125-8.59375 1.21875c-2.71875.40625-5.375.84375-8 1.28125s-5.1875.90625-7.71875 1.34375-5.03125.875-7.5 1.3125-4.90625.84375-7.34375 1.25c-2.40625.40625-4.8125.84375-7.15625 1.21875-2.375.40625-4.71875.78125-7.09375 1.15625-2.34375.375-4.6875.75-7.03125 1.09375-2.34375.375-4.65625.71875-7 1.0625s-4.6875.65625-7.03125.96875-4.71875.625-7.09375.90625-4.78125.59375-7.1875.84375c-2.40625.28125-4.875.53125-7.34375.78125s-5 .5-7.5625.71875-5.125.4375-7.78125.65625c-2.625.1875-5.3125.375-8.0625.53125s-5.53125.28125-8.375.375-5.75.1875-8.75.28125c-2.96875.0625-6.03125.09375-9.15625.09375v8.375c3.125 0 6.15625-.03125 9.15625-.09375 2.96875-.0625 5.90625-.15625 8.75-.28125 2.84375-.09375 5.625-.25 8.375-.375 2.75-.15625 5.4375-.34375 8.0625-.53125s5.21875-.40625 7.78125-.65625c2.5625-.21875 5.0625-.46875 7.5625-.71875s4.9375-.5 7.34375-.78125c2.4375-.28125 4.8125-.5625 7.1875-.84375s4.75-.59375 7.09375-.90625 4.6875-.625 7.03125-.96875 4.65625-.71875 7-1.0625c2.34375-.375 4.6875-.71875 7.03125-1.09375s4.71875-.75 7.09375-1.15625 4.75-.8125 7.15625-1.21875 4.84375-.84375 7.3125-1.25c2.46875-.4375 4.96875-.875 7.5-1.3125s5.125-.90625 7.71875-1.34375c2.625-.4375 5.28125-.875 8-1.28125s5.1875-.78125 8.59375-1.21875c3.40625-.40625 7.65625-.8125 11.15625-.59375s6.28125 1.125 6.28125 3.5625c0-2.78125 0-5.59375 0-8.375.03125-2.4375-2.75-3.3125-6.25-3.5625zm0 0" fill="url(#ad)"/><path d="m82.8125 176.53125c2.65625-.09375 5.21875-.21875 7.71875-.34375s4.9375-.28125 7.34375-.4375 4.78125-.34375 7.15625-.5625c2.375-.1875 4.75-.4375 7.15625-.65625s4.84375-.46875 7.34375-.75 5.0625-.5625 7.71875-.875 5.40625-.65625 8.28125-1.03125 5.875-.78125 9.03125-1.25c0-2.59375 0-40.53125 0-58.6875-22.46875 3.3125-47.59375 6.125-72.96875 6.3125-3.375 0-6.09375 2.71875-6.09375 6.09375v52.5625c3.15625 0 6.1875-.03125 9.0625-.09375 2.84375-.09375 5.59375-.1875 8.25-.28125zm0 0" fill="url(#ae)"/><path d="m84.3125 120.6875c-.3125.9375-.4375 1.40625-.75 2.34375-.96875.03125-1.4375.0625-2.40625.09375.78125.53125 1.15625.8125 1.9375 1.375-.3125.9375-.4375 1.40625-.75 2.34375.78125-.59375 1.15625-.90625 1.9375-1.5.78125.53125 1.15625.8125 1.9375 1.34375-.3125-.90625-.4375-1.375-.75-2.28125.78125-.59375 1.15625-.90625 1.9375-1.53125-.96875.03125-1.4375.0625-2.40625.09375-.25-.90625-.40625-1.375-.6875-2.28125zm0 0" fill="url(#af)"/><path d="m91.25 149.5625c-.3125.9375-.4375 1.40625-.75 2.34375-.96875.0625-1.4375.0625-2.40625.125.78125.53125 1.15625.8125 1.9375 1.34375-.3125.9375-.4375 1.40625-.75 2.34375.78125-.59375 1.15625-.90625 1.9375-1.53125.78125.53125 1.1875.78125 1.9375 1.3125-.3125-.90625-.4375-1.375-.75-2.28125.78125-.625 1.15625-.9375 1.9375-1.5625-.96875.0625-1.4375.09375-2.40625.15625-.21875-.875-.375-1.34375-.6875-2.25zm0 0" fill="url(#ag)"/><path d="m92 163.5c-.3125-.90625-.4375-1.375-.75-2.28125-.3125.9375-.4375 1.40625-.75 2.34375-.96875.0625-1.4375.0625-2.40625.125.78125.53125 1.15625.8125 1.9375 1.34375-.3125.9375-.4375 1.40625-.75 2.34375.78125-.625 1.15625-.90625 1.9375-1.53125.78125.53125 1.1875.78125 1.9375 1.3125-.3125-.90625-.4375-1.375-.75-2.28125.78125-.625 1.15625-.9375 1.9375-1.5625-.90625.125-1.375.15625-2.34375.1875zm0 0" fill="url(#ah)"/><path d="m84.3125 144.03125c-.3125.9375-.4375 1.40625-.75 2.34375-.96875.03125-1.4375.0625-2.40625.09375.78125.53125 1.15625.8125 1.9375 1.34375-.3125.9375-.4375 1.40625-.75 2.34375.78125-.59375 1.15625-.90625 1.9375-1.5.78125.53125 1.15625.8125 1.9375 1.34375-.3125-.90625-.4375-1.375-.75-2.28125.78125-.59375 1.15625-.90625 1.9375-1.53125-.96875.03125-1.4375.0625-2.40625.09375-.25-.875-.40625-1.3125-.6875-2.25zm0 0" fill="url(#ai)"/><path d="m84.3125 155.71875c-.3125.9375-.4375 1.40625-.75 2.34375-.96875.03125-1.4375.0625-2.40625.09375.78125.53125 1.15625.8125 1.9375 1.375-.3125.9375-.4375 1.40625-.75 2.34375.78125-.59375 1.15625-.90625 1.9375-1.5.78125.53125 1.15625.8125 1.9375 1.34375-.3125-.90625-.4375-1.375-.75-2.28125.78125-.59375 1.15625-.90625 1.9375-1.53125-.96875.03125-1.4375.0625-2.40625.09375-.25-.90625-.40625-1.375-.6875-2.28125zm0 0" fill="url(#aj)"/><path d="m84.3125 132.375c-.3125.9375-.4375 1.40625-.75 2.34375-.96875.03125-1.4375.0625-2.40625.09375.78125.53125 1.15625.8125 1.9375 1.375-.3125.9375-.4375 1.40625-.75 2.34375.78125-.59375 1.15625-.90625 1.9375-1.5.78125.53125 1.15625.8125 1.9375 1.34375-.3125-.90625-.4375-1.375-.75-2.28125.78125-.59375 1.15625-.90625 1.9375-1.53125-.96875.03125-1.4375.0625-2.40625.09375-.25-.90625-.40625-1.375-.6875-2.28125zm0 0" fill="url(#ak)"/><path d="m105.1875 160.25c-.3125.9375-.4375 1.4375-.75 2.375-.96875.09375-1.4375.125-2.40625.1875.78125.5 1.15625.78125 1.9375 1.28125-.3125.9375-.4375 1.4375-.75 2.375.78125-.625 1.15625-.96875 1.9375-1.59375.78125.5 1.15625.75 1.9375 1.25-.3125-.90625-.4375-1.34375-.75-2.25.78125-.65625 1.15625-.96875 1.9375-1.625-.96875.09375-1.4375.125-2.40625.21875-.25-.875-.40625-1.3125-.6875-2.21875zm0 0" fill="url(#al)"/><path d="m91.25 137.875c-.3125.9375-.4375 1.40625-.75 2.34375-.96875.0625-1.4375.0625-2.40625.125.78125.53125 1.15625.8125 1.9375 1.34375-.3125.9375-.4375 1.40625-.75 2.34375.78125-.625 1.15625-.90625 1.9375-1.53125.78125.53125 1.1875.78125 1.9375 1.3125-.3125-.90625-.4375-1.375-.75-2.28125.78125-.625 1.15625-.9375 1.9375-1.53125-.96875.0625-1.4375.09375-2.40625.15625-.21875-.90625-.375-1.375-.6875-2.28125zm0 0" fill="url(#am)"/><path d="m98.21875 154.96875c-.3125.9375-.4375 1.40625-.75 2.375-.96875.0625-1.4375.09375-2.40625.15625.78125.53125 1.1875.78125 1.9375 1.3125-.3125.9375-.4375 1.40625-.75 2.375.78125-.625 1.15625-.9375 1.9375-1.5625.78125.53125 1.15625.78125 1.9375 1.28125-.3125-.90625-.4375-1.34375-.75-2.25.78125-.625 1.15625-.9375 1.9375-1.59375-.96875.0625-1.4375.125-2.40625.1875-.25-.9375-.375-1.375-.6875-2.28125zm0 0" fill="url(#an)"/><path d="m98.96875 168.90625c-.3125-.90625-.4375-1.34375-.75-2.25-.3125.9375-.4375 1.40625-.75 2.375-.96875.0625-1.4375.09375-2.40625.15625.78125.53125 1.1875.78125 1.9375 1.3125-.3125.9375-.4375 1.4375-.75 2.375.78125-.625 1.15625-.9375 1.9375-1.5625.78125.5 1.15625.78125 1.9375 1.28125-.3125-.90625-.4375-1.34375-.75-2.25.78125-.625 1.15625-.9375 1.9375-1.59375-.90625.0625-1.375.09375-2.34375.15625zm0 0" fill="url(#ao)"/><path d="m91.25 126.1875c-.3125.9375-.4375 1.40625-.75 2.34375-.96875.0625-1.4375.0625-2.40625.125.78125.53125 1.15625.8125 1.9375 1.34375-.3125.9375-.4375 1.40625-.75 2.34375.78125-.625 1.15625-.90625 1.9375-1.53125.78125.53125 1.1875.78125 1.9375 1.3125-.3125-.90625-.4375-1.375-.75-2.28125.78125-.625 1.15625-.9375 1.9375-1.5625-.96875.0625-1.4375.09375-2.40625.15625-.21875-.875-.375-1.3125-.6875-2.25zm0 0" fill="url(#ap)"/><path d="m98.21875 143.28125c-.3125.9375-.4375 1.40625-.75 2.375-.96875.0625-1.4375.09375-2.40625.15625.78125.53125 1.15625.78125 1.9375 1.3125-.3125.9375-.4375 1.40625-.75 2.375.78125-.625 1.1875-.9375 1.9375-1.5625.78125.53125 1.15625.78125 1.9375 1.28125-.3125-.90625-.4375-1.34375-.75-2.25.78125-.625 1.15625-.9375 1.9375-1.5625-.96875.0625-1.4375.125-2.40625.1875-.25-.9375-.375-1.40625-.6875-2.3125zm0 0" fill="url(#aq)"/><path d="m85.03125 169.6875c-.28125-.90625-.4375-1.375-.75-2.28125-.3125.9375-.4375 1.40625-.75 2.34375-.96875.03125-1.4375.0625-2.40625.09375.78125.53125 1.15625.8125 1.9375 1.34375-.3125.9375-.4375 1.40625-.75 2.34375.78125-.59375 1.15625-.90625 1.9375-1.5.78125.53125 1.15625.8125 1.9375 1.34375-.3125-.90625-.4375-1.375-.75-2.28125.78125-.59375 1.15625-.90625 1.9375-1.53125-.875.0625-1.375.09375-2.34375.125zm0 0" fill="url(#ar)"/><path d="m70.375 144.4375c-.3125.9375-.4375 1.40625-.75 2.3125-.96875 0-1.4375 0-2.40625 0 .78125.5625 1.1875.84375 1.9375 1.40625-.3125.9375-.4375 1.40625-.75 2.3125.78125-.59375 1.15625-.875 1.9375-1.46875.78125.5625 1.15625.84375 1.9375 1.40625-.3125-.9375-.4375-1.375-.75-2.3125.78125-.59375 1.15625-.875 1.9375-1.46875-.96875.03125-1.4375.03125-2.40625.03125-.25-.84375-.375-1.3125-.6875-2.21875zm0 0" fill="url(#as)"/><path d="m70.375 132.75c-.3125.9375-.4375 1.40625-.75 2.3125-.96875 0-1.4375 0-2.40625.03125.78125.5625 1.1875.84375 1.96875 1.40625-.3125.9375-.4375 1.40625-.75 2.3125.78125-.5625 1.15625-.875 1.9375-1.4375.78125.5625 1.15625.84375 1.9375 1.40625-.3125-.90625-.4375-1.375-.75-2.3125.78125-.59375 1.15625-.875 1.9375-1.46875-.96875.03125-1.4375.03125-2.40625.03125-.28125-.90625-.40625-1.375-.71875-2.28125zm0 0" fill="url(#at)"/><path d="m71.125 170.09375c-.3125-.90625-.4375-1.375-.75-2.3125-.3125.9375-.4375 1.40625-.75 2.3125-.96875 0-1.4375 0-2.40625.03125.78125.5625 1.1875.84375 1.9375 1.40625-.3125.9375-.4375 1.40625-.75 2.3125.78125-.59375 1.15625-.875 1.9375-1.4375.78125.5625 1.1875.84375 1.9375 1.40625-.3125-.9375-.4375-1.375-.75-2.3125.78125-.59375 1.15625-.875 1.9375-1.46875-.90625.03125-1.375.03125-2.34375.0625zm0 0" fill="url(#au)"/><path d="m96.28125 137.8125c.78125-.625 1.15625-.9375 1.9375-1.5625.78125.53125 1.1875.78125 1.9375 1.28125-.3125-.90625-.4375-1.34375-.75-2.25.78125-.625 1.15625-.9375 1.9375-1.59375-.96875.0625-1.4375.125-2.40625.1875-.3125-.90625-.4375-1.34375-.75-2.25-.3125.9375-.4375 1.40625-.75 2.375-.96875.0625-1.4375.09375-2.40625.15625.78125.53125 1.15625.78125 1.9375 1.3125-.25.90625-.40625 1.375-.6875 2.34375zm0 0" fill="url(#av)"/><path d="m96.28125 126.125c.78125-.625 1.15625-.9375 1.9375-1.5625.78125.53125 1.15625.78125 1.9375 1.28125-.3125-.90625-.4375-1.34375-.75-2.25.78125-.625 1.15625-.9375 1.9375-1.59375-.96875.09375-1.4375.125-2.40625.1875-.3125-.90625-.4375-1.34375-.75-2.25-.3125.9375-.4375 1.40625-.75 2.375-.96875.0625-1.4375.09375-2.40625.15625.78125.53125 1.15625.78125 1.9375 1.3125-.25.90625-.40625 1.40625-.6875 2.34375zm0 0" fill="url(#aw)"/><path d="m70.375 156.09375c-.3125.9375-.4375 1.40625-.75 2.3125-.96875 0-1.4375 0-2.40625 0 .78125.5625 1.1875.84375 1.9375 1.4375-.3125.9375-.4375 1.40625-.75 2.3125.78125-.59375 1.15625-.875 1.9375-1.4375.78125.5625 1.15625.84375 1.9375 1.40625-.3125-.9375-.4375-1.375-.75-2.3125.78125-.59375 1.15625-.875 1.9375-1.46875-.96875.03125-1.4375.03125-2.40625.03125-.25-.875-.375-1.34375-.6875-2.28125zm0 0" fill="url(#ax)"/><path d="m77.34375 126.75c-.3125.9375-.4375 1.40625-.75 2.34375-.96875.03125-1.4375.03125-2.40625.0625.78125.5625 1.15625.84375 1.9375 1.375-.3125.9375-.4375 1.40625-.75 2.34375.78125-.59375 1.15625-.875 1.9375-1.46875.78125.5625 1.1875.8125 1.9375 1.375-.3125-.90625-.4375-1.375-.75-2.28125.78125-.59375 1.1875-.90625 1.9375-1.5-.96875.03125-1.4375.03125-2.40625.0625-.25-.9375-.375-1.375-.6875-2.3125zm0 0" fill="url(#ay)"/><path d="m77.34375 138.4375c-.3125.9375-.4375 1.40625-.75 2.34375-.96875.03125-1.4375.03125-2.40625.0625.78125.5625 1.1875.84375 1.9375 1.375-.3125.9375-.4375 1.40625-.75 2.34375.78125-.59375 1.15625-.875 1.9375-1.46875.78125.5625 1.1875.8125 1.96875 1.375-.3125-.90625-.4375-1.375-.75-2.28125.78125-.59375 1.1875-.90625 1.9375-1.5-.96875.03125-1.4375.03125-2.40625.0625-.28125-.9375-.40625-1.375-.71875-2.3125zm0 0" fill="url(#az)"/><path d="m78.09375 164.09375c-.3125-.90625-.4375-1.375-.75-2.28125-.3125.9375-.4375 1.40625-.75 2.34375-.96875.03125-1.4375.03125-2.40625.0625.78125.5625 1.1875.84375 1.96875 1.375-.3125.9375-.4375 1.40625-.75 2.34375.78125-.59375 1.1875-.875 1.9375-1.46875.78125.5625 1.1875.8125 1.96875 1.375-.3125-.90625-.4375-1.375-.75-2.28125.78125-.59375 1.1875-.90625 1.9375-1.5-.96875 0-1.4375 0-2.40625.03125zm0 0" fill="url(#aA)"/><path d="m77.34375 150.125c-.3125.9375-.4375 1.40625-.75 2.34375-.96875.03125-1.4375.03125-2.40625.0625.78125.5625 1.15625.84375 1.9375 1.375-.3125.9375-.4375 1.40625-.75 2.34375.78125-.59375 1.1875-.875 1.9375-1.46875.78125.5625 1.15625.8125 1.9375 1.375-.3125-.90625-.4375-1.375-.75-2.28125.78125-.59375 1.1875-.90625 1.9375-1.5-.96875.03125-1.4375.0625-2.40625.09375-.25-.96875-.375-1.4375-.6875-2.34375zm0 0" fill="url(#aB)"/><path d="m70.375 121.0625c-.3125.9375-.4375 1.40625-.75 2.3125-.96875 0-1.4375.03125-2.40625.03125.78125.5625 1.1875.84375 1.96875 1.40625-.3125.9375-.4375 1.40625-.75 2.3125.78125-.5625 1.15625-.875 1.9375-1.4375.78125.5625 1.15625.84375 1.9375 1.40625-.3125-.90625-.4375-1.375-.75-2.3125.78125-.59375 1.15625-.875 1.9375-1.46875-.96875.03125-1.4375.03125-2.40625.03125-.28125-.90625-.40625-1.34375-.71875-2.28125zm0 0" fill="url(#aC)"/><path d="m105.1875 148.59375c-.3125.9375-.4375 1.4375-.75 2.375-.96875.09375-1.4375.125-2.40625.1875.78125.5 1.15625.75 1.9375 1.28125-.3125.9375-.4375 1.4375-.75 2.375.78125-.625 1.15625-.96875 1.9375-1.59375.78125.5 1.15625.75 1.9375 1.25-.3125-.90625-.4375-1.34375-.75-2.25.78125-.65625 1.15625-.96875 1.9375-1.59375-.96875.09375-1.4375.125-2.40625.21875-.25-.90625-.40625-1.375-.6875-2.25zm0 0" fill="url(#aD)"/><path d="m133 145.59375c-.3125.96875-.4375 1.4375-.75 2.40625-.96875.125-1.4375.1875-2.40625.3125.78125.46875 1.15625.71875 1.9375 1.1875-.3125.96875-.4375 1.4375-.75 2.40625.78125-.65625 1.1875-1 1.96875-1.6875.78125.46875 1.15625.71875 1.9375 1.1875-.3125-.875-.4375-1.34375-.75-2.21875.78125-.6875 1.1875-1 1.96875-1.6875-.96875.125-1.4375.1875-2.40625.3125-.3125-.875-.4375-1.34375-.75-2.21875zm0 0" fill="url(#aE)"/><path d="m133 133.90625c-.3125.96875-.4375 1.4375-.75 2.40625-.96875.125-1.4375.1875-2.40625.3125.78125.46875 1.15625.71875 1.9375 1.1875-.3125.96875-.4375 1.4375-.75 2.40625.78125-.6875 1.1875-1 1.9375-1.6875.78125.46875 1.1875.71875 1.96875 1.1875-.3125-.875-.4375-1.34375-.75-2.21875.78125-.6875 1.1875-1 1.96875-1.6875-.96875.125-1.4375.1875-2.40625.3125-.28125-.875-.4375-1.3125-.75-2.21875zm0 0" fill="url(#aF)"/><path d="m133.75 159.5c-.3125-.875-.4375-1.34375-.75-2.21875-.3125.96875-.4375 1.4375-.75 2.40625-.96875.125-1.4375.1875-2.40625.3125.78125.46875 1.15625.71875 1.9375 1.1875-.3125.96875-.4375 1.4375-.75 2.40625.78125-.6875 1.1875-1 1.9375-1.6875.78125.46875 1.1875.71875 1.9375 1.1875-.3125-.875-.4375-1.34375-.75-2.21875.78125-.6875 1.15625-1 1.9375-1.6875-.90625.125-1.375.1875-2.34375.3125zm0 0" fill="url(#aG)"/><path d="m126.03125 128.9375c-.28125.96875-.4375 1.4375-.75 2.40625-.96875.125-1.4375.15625-2.40625.28125.78125.5 1.15625.71875 1.9375 1.21875-.28125.96875-.4375 1.4375-.75 2.40625.78125-.65625 1.15625-1 1.9375-1.65625.78125.46875 1.15625.71875 1.9375 1.1875-.3125-.875-.4375-1.34375-.75-2.21875.78125-.65625 1.15625-1 1.9375-1.65625-.96875.125-1.4375.1875-2.40625.28125-.21875-.90625-.375-1.375-.6875-2.25zm0 0" fill="url(#aH)"/><path d="m133 122.21875c-.3125.96875-.4375 1.4375-.75 2.40625-.96875.125-1.4375.1875-2.40625.3125.78125.46875 1.1875.71875 1.96875 1.1875-.3125.96875-.4375 1.4375-.75 2.40625.78125-.65625 1.1875-1 1.96875-1.6875.78125.46875 1.1875.71875 1.96875 1.1875-.3125-.875-.4375-1.34375-.75-2.21875.78125-.65625 1.1875-1.03125 1.96875-1.6875-.96875.125-1.4375.1875-2.40625.3125-.34375-.875-.5-1.3125-.8125-2.21875zm0 0" fill="url(#aI)"/><path d="m126.03125 117.25c-.28125.96875-.4375 1.4375-.75 2.40625-.96875.125-1.4375.15625-2.40625.28125.78125.46875 1.15625.71875 1.9375 1.21875-.28125.96875-.4375 1.4375-.75 2.40625.78125-.65625 1.15625-1 1.9375-1.65625.78125.46875 1.15625.71875 1.9375 1.1875-.3125-.90625-.4375-1.34375-.75-2.21875.78125-.65625 1.15625-1 1.9375-1.65625-.96875.125-1.4375.1875-2.40625.28125-.21875-.90625-.375-1.34375-.6875-2.25zm0 0" fill="url(#aJ)"/><path d="m139.96875 138.84375c-.3125.96875-.4375 1.4375-.75 2.40625-.96875.125-1.4375.1875-2.40625.3125.78125.46875 1.15625.6875 1.9375 1.15625-.3125.96875-.4375 1.4375-.75 2.40625.78125-.6875 1.15625-1.03125 1.9375-1.6875.78125.46875 1.15625.6875 1.9375 1.15625-.3125-.875-.4375-1.3125-.75-2.21875.78125-.6875 1.15625-1.03125 1.9375-1.71875-.96875.125-1.4375.21875-2.40625.34375-.21875-.84375-.375-1.28125-.6875-2.15625zm0 0" fill="url(#aK)"/><path d="m139.96875 127.15625c-.3125.96875-.4375 1.4375-.75 2.40625-.96875.125-1.4375.1875-2.40625.3125.78125.46875 1.15625.6875 1.9375 1.15625-.3125.96875-.4375 1.4375-.75 2.40625.78125-.6875 1.1875-1.03125 1.9375-1.6875.78125.46875 1.15625.6875 1.9375 1.15625-.3125-.875-.4375-1.3125-.75-2.21875.78125-.6875 1.15625-1.03125 1.9375-1.71875-.96875.125-1.4375.21875-2.40625.34375-.21875-.84375-.375-1.28125-.6875-2.15625zm0 0" fill="url(#aL)"/><path d="m140.71875 164.40625c-.3125-.875-.4375-1.3125-.75-2.21875-.3125.96875-.4375 1.4375-.75 2.40625-.96875.125-1.4375.1875-2.40625.3125.78125.46875 1.15625.6875 1.9375 1.15625-.3125.96875-.4375 1.4375-.75 2.40625.78125-.6875 1.1875-1.03125 1.9375-1.71875.78125.46875 1.15625.6875 1.9375 1.15625-.3125-.875-.4375-1.3125-.75-2.21875.78125-.6875 1.15625-1.03125 1.9375-1.71875-.90625.25-1.375.3125-2.34375.4375zm0 0" fill="url(#aM)"/><path d="m139.96875 115.46875c-.3125.96875-.4375 1.4375-.75 2.40625-.96875.125-1.4375.1875-2.40625.3125.78125.46875 1.1875.6875 1.96875 1.15625-.3125.96875-.4375 1.4375-.75 2.40625.78125-.6875 1.1875-1 1.96875-1.6875.78125.46875 1.15625.6875 1.9375 1.15625-.3125-.875-.4375-1.3125-.75-2.21875.78125-.6875 1.15625-1.03125 1.9375-1.71875-.96875.125-1.4375.21875-2.40625.34375-.28125-.84375-.4375-1.28125-.75-2.15625zm0 0" fill="url(#aN)"/><path d="m139.96875 150.5c-.3125.96875-.4375 1.4375-.75 2.40625-.96875.125-1.4375.1875-2.40625.3125.78125.46875 1.15625.71875 1.9375 1.15625-.3125.96875-.4375 1.4375-.75 2.40625.78125-.6875 1.15625-1 1.9375-1.6875.78125.46875 1.15625.6875 1.9375 1.15625-.3125-.875-.4375-1.3125-.75-2.21875.78125-.6875 1.15625-1.03125 1.9375-1.71875-.96875.15625-1.4375.21875-2.40625.34375-.25-.8125-.375-1.25-.6875-2.15625zm0 0" fill="url(#aO)"/><path d="m126.03125 140.625c-.28125.96875-.4375 1.4375-.75 2.40625-.96875.125-1.4375.15625-2.40625.28125.78125.46875 1.15625.71875 1.9375 1.21875-.28125.96875-.4375 1.4375-.75 2.40625.78125-.65625 1.15625-1 1.9375-1.65625.78125.46875 1.15625.71875 1.9375 1.1875-.3125-.875-.4375-1.34375-.75-2.21875.78125-.65625 1.15625-1 1.9375-1.65625-.96875.125-1.4375.1875-2.40625.28125-.21875-.9375-.375-1.375-.6875-2.25zm0 0" fill="url(#aP)"/><path d="m105.1875 125.21875c-.3125.96875-.4375 1.4375-.75 2.375-.96875.09375-1.4375.125-2.40625.1875.78125.5 1.15625.78125 1.9375 1.28125-.3125.9375-.4375 1.4375-.75 2.375.78125-.625 1.15625-.96875 1.9375-1.59375.78125.5 1.15625.75 1.9375 1.25-.3125-.90625-.4375-1.34375-.75-2.25.78125-.65625 1.15625-.96875 1.9375-1.625-.96875.09375-1.4375.125-2.40625.21875-.25-.875-.40625-1.3125-.6875-2.21875zm0 0" fill="url(#aQ)"/><path d="m112.125 153.78125c-.3125.96875-.4375 1.4375-.75 2.375-.96875.09375-1.4375.125-2.40625.21875.78125.5 1.1875.75 1.9375 1.25-.28125.96875-.4375 1.4375-.75 2.375.78125-.65625 1.15625-.96875 1.9375-1.625.78125.5 1.1875.75 1.9375 1.25-.3125-.90625-.4375-1.34375-.75-2.25.78125-.65625 1.15625-.96875 1.9375-1.625-.96875.09375-1.4375.15625-2.40625.25-.21875-.875-.375-1.3125-.6875-2.21875zm0 0" fill="url(#aR)"/><path d="m126.03125 152.28125c-.28125.96875-.4375 1.4375-.75 2.40625-.96875.125-1.4375.15625-2.40625.28125.78125.5 1.15625.71875 1.9375 1.21875-.28125.96875-.4375 1.4375-.75 2.40625.78125-.65625 1.15625-1 1.9375-1.65625.78125.46875 1.15625.71875 1.9375 1.1875-.3125-.90625-.4375-1.34375-.75-2.21875.78125-.65625 1.15625-1 1.9375-1.6875-.96875.125-1.4375.1875-2.40625.28125-.21875-.875-.375-1.3125-.6875-2.21875zm0 0" fill="url(#aS)"/><path d="m112.125 130.40625c-.3125.96875-.4375 1.4375-.75 2.375-.96875.09375-1.4375.125-2.40625.21875.78125.5 1.15625.75 1.9375 1.25-.28125.96875-.4375 1.4375-.75 2.375.78125-.65625 1.1875-.96875 1.9375-1.625.78125.5 1.15625.75 1.9375 1.25-.3125-.90625-.4375-1.34375-.75-2.25.78125-.65625 1.15625-.96875 1.9375-1.625-.96875.09375-1.4375.15625-2.40625.25-.21875-.875-.375-1.3125-.6875-2.21875zm0 0" fill="url(#aT)"/><path d="m112.125 165.46875c-.3125.96875-.4375 1.4375-.75 2.375-.96875.09375-1.4375.125-2.40625.21875.78125.5 1.1875.75 1.9375 1.25-.28125.96875-.4375 1.4375-.75 2.375.78125-.65625 1.15625-.96875 1.9375-1.625.78125.5 1.1875.75 1.9375 1.25-.3125-.90625-.4375-1.34375-.75-2.25.78125-.65625 1.15625-.96875 1.9375-1.625-.96875.09375-1.4375.15625-2.40625.25-.21875-.875-.375-1.34375-.6875-2.21875zm0 0" fill="url(#aU)"/><path d="m105.1875 136.90625c-.3125.9375-.4375 1.4375-.75 2.375-.96875.09375-1.4375.125-2.40625.1875.78125.5 1.15625.78125 1.9375 1.28125-.3125.9375-.4375 1.4375-.75 2.375.78125-.625 1.15625-.96875 1.9375-1.59375.78125.5 1.15625.75 1.9375 1.25-.3125-.90625-.4375-1.34375-.75-2.25.78125-.65625 1.15625-.96875 1.9375-1.625-.96875.09375-1.4375.125-2.40625.21875-.25-.875-.40625-1.34375-.6875-2.21875zm0 0" fill="url(#aV)"/><path d="m112.125 118.75c-.3125.96875-.4375 1.4375-.75 2.375-.96875.09375-1.4375.125-2.40625.21875.78125.5 1.15625.75 1.9375 1.25-.3125.96875-.4375 1.4375-.75 2.375.78125-.65625 1.1875-.96875 1.96875-1.625.78125.5 1.15625.75 1.9375 1.25-.3125-.90625-.4375-1.34375-.75-2.25.78125-.65625 1.15625-.96875 1.9375-1.625-.96875.09375-1.4375.15625-2.40625.25-.25-.875-.40625-1.34375-.71875-2.21875zm0 0" fill="url(#aW)"/><path d="m112.125 142.09375c-.3125.96875-.4375 1.4375-.75 2.375-.96875.09375-1.4375.125-2.40625.21875.78125.5 1.1875.75 1.9375 1.25-.3125.96875-.4375 1.4375-.75 2.375.78125-.65625 1.15625-.96875 1.9375-1.625.78125.5 1.1875.75 1.96875 1.25-.3125-.90625-.4375-1.34375-.75-2.25.78125-.65625 1.15625-.96875 1.9375-1.625-.96875.09375-1.4375.15625-2.40625.25-.25-.875-.40625-1.3125-.71875-2.21875zm0 0" fill="url(#aX)"/><path d="m126.78125 166.21875c-.28125-.875-.4375-1.34375-.75-2.21875-.28125.96875-.4375 1.4375-.75 2.40625-.96875.125-1.4375.15625-2.40625.28125.78125.5 1.15625.71875 1.9375 1.21875-.28125.96875-.4375 1.4375-.75 2.40625.78125-.65625 1.15625-1 1.9375-1.65625.78125.46875 1.15625.71875 1.9375 1.1875-.3125-.875-.4375-1.34375-.75-2.21875.78125-.65625 1.15625-1 1.9375-1.65625-.875.0625-1.375.125-2.34375.25zm0 0" fill="url(#aY)"/><path d="m119.84375 161.15625c-.3125-.90625-.4375-1.34375-.75-2.25-.3125.96875-.4375 1.4375-.75 2.40625-.96875.09375-1.4375.15625-2.40625.25.78125.5 1.15625.75 1.9375 1.21875-.3125.96875-.4375 1.4375-.75 2.40625.78125-.65625 1.1875-.96875 1.9375-1.625.78125.5 1.15625.75 1.9375 1.21875-.3125-.90625-.4375-1.34375-.75-2.25.78125-.65625 1.15625-1 1.9375-1.65625-.90625.125-1.375.1875-2.34375.28125zm0 0" fill="url(#aZ)"/><path d="m119.09375 123.875c-.3125.96875-.4375 1.4375-.75 2.40625-.96875.09375-1.4375.15625-2.40625.25.78125.5 1.15625.75 1.9375 1.21875-.3125.96875-.4375 1.4375-.75 2.40625.78125-.65625 1.1875-.96875 1.9375-1.625.78125.5 1.15625.71875 1.9375 1.21875-.3125-.90625-.4375-1.34375-.75-2.21875.78125-.65625 1.15625-1 1.9375-1.65625-.96875.09375-1.4375.15625-2.40625.25-.21875-.90625-.375-1.34375-.6875-2.25zm0 0" fill="url(#a0)"/><path d="m119.09375 147.25c-.3125.96875-.4375 1.4375-.75 2.40625-.96875.09375-1.4375.15625-2.40625.25.78125.5 1.1875.75 1.9375 1.21875-.3125.96875-.4375 1.4375-.75 2.40625.78125-.65625 1.15625-.96875 1.9375-1.625.78125.5 1.15625.71875 1.9375 1.21875-.3125-.90625-.4375-1.34375-.75-2.21875.78125-.65625 1.15625-1 1.9375-1.65625-.96875.09375-1.4375.15625-2.40625.25-.21875-.9375-.375-1.375-.6875-2.25zm0 0" fill="url(#a1)"/><path d="m119.09375 135.5625c-.3125.96875-.4375 1.4375-.75 2.40625-.96875.09375-1.4375.15625-2.40625.25.78125.5 1.1875.75 1.9375 1.21875-.3125.96875-.4375 1.4375-.75 2.40625.78125-.65625 1.15625-.96875 1.9375-1.625.78125.5 1.1875.71875 1.9375 1.21875-.3125-.90625-.4375-1.34375-.75-2.21875.78125-.65625 1.15625-1 1.9375-1.65625-.96875.09375-1.4375.15625-2.40625.28125-.21875-.9375-.375-1.40625-.6875-2.28125zm0 0" fill="url(#a2)"/></svg>