<?xml version="1.0" encoding="UTF-8"?>
<!DOCTYPE svg PUBLIC "-//W3C//DTD SVG 1.1//EN" "http://www.w3.org/Graphics/SVG/1.1/DTD/svg11.dtd">
<svg xmlns="http://www.w3.org/2000/svg" version="1.1" width="512px" height="512px" style="shape-rendering:geometricPrecision; text-rendering:geometricPrecision; image-rendering:optimizeQuality; fill-rule:evenodd; clip-rule:evenodd" xmlns:xlink="http://www.w3.org/1999/xlink">
<g><path style="opacity:0.994" fill="#02f0cd" d="M 352.5,57.5 C 351.218,58.7082 351.218,60.0416 352.5,61.5C 353.167,61.1667 353.833,60.8333 354.5,60.5C 355.48,63.0865 355.813,65.7531 355.5,68.5C 358.167,68.5 360.833,68.5 363.5,68.5C 363.5,71.1667 363.5,73.8333 363.5,76.5C 368.833,76.5 374.167,76.5 379.5,76.5C 379.5,81.8333 379.5,87.1667 379.5,92.5C 382.247,92.1866 384.914,92.52 387.5,93.5C 389.005,94.8415 389.672,96.5082 389.5,98.5C 391.5,98.5 393.5,98.5 395.5,98.5C 396.051,101.807 396.384,105.14 396.5,108.5C 401.5,108.5 406.5,108.5 411.5,108.5C 411.5,111.167 411.5,113.833 411.5,116.5C 414.167,116.5 416.833,116.5 419.5,116.5C 419.5,119.167 419.5,121.833 419.5,124.5C 422.167,124.5 424.833,124.5 427.5,124.5C 427.5,126.167 427.5,127.833 427.5,129.5C 428.833,129.5 430.167,129.5 431.5,129.5C 431.5,130.5 431.5,131.5 431.5,132.5C 433.144,132.286 434.644,132.62 436,133.5C 436.497,136.146 436.664,138.813 436.5,141.5C 439.167,141.5 441.833,141.5 444.5,141.5C 445.058,145.894 447.558,148.561 452,149.5C 452.497,151.81 452.663,154.143 452.5,156.5C 454.857,156.337 457.19,156.503 459.5,157C 462,160.167 464.833,163 468,165.5C 468.499,170.489 468.666,175.489 468.5,180.5C 470.95,180.702 473.283,180.369 475.5,179.5C 475.5,196.167 475.5,212.833 475.5,229.5C 470.5,229.5 465.5,229.5 460.5,229.5C 460.5,226.833 460.5,224.167 460.5,221.5C 459.022,221.762 457.689,221.429 456.5,220.5C 455.167,218.5 453.833,216.5 452.5,214.5C 449.914,213.52 447.247,213.187 444.5,213.5C 444.5,210.833 444.5,208.167 444.5,205.5C 442.167,205.5 439.833,205.5 437.5,205.5C 436.833,202.833 436.167,200.167 435.5,197.5C 431.889,197.044 428.556,197.711 425.5,199.5C 421.465,196.155 416.798,194.822 411.5,195.5C 411.649,194.448 411.483,193.448 411,192.5C 409.951,193.517 408.784,193.684 407.5,193C 408.756,192.583 409.423,191.75 409.5,190.5C 417.624,187.522 425.457,183.856 433,179.5C 433.667,172.167 433.667,164.833 433,157.5C 431.93,154.758 430.43,152.258 428.5,150C 372.5,117.667 316.5,85.3333 260.5,53C 257.937,51.9207 255.271,51.4207 252.5,51.5C 251.909,50.8485 251.243,50.1818 250.5,49.5C 253.086,48.52 255.753,48.1866 258.5,48.5C 258.5,47.1667 258.5,45.8333 258.5,44.5C 257.5,44.5 256.5,44.5 255.5,44.5C 253.972,37.6686 249.638,35.0019 242.5,36.5C 242.5,33.8333 242.5,31.1667 242.5,28.5C 239.306,28.2695 236.306,28.9362 233.5,30.5C 232.833,30.1667 232.167,29.8333 231.5,29.5C 232.325,28.6143 233.325,28.281 234.5,28.5C 234.813,25.7531 234.48,23.0865 233.5,20.5C 230.851,23.0392 228.184,23.0392 225.5,20.5C 226.025,19.8076 226.692,19.3076 227.5,19C 227.167,18.6667 226.833,18.3333 226.5,18C 231.169,17.1504 234.503,14.6504 236.5,10.5C 244.198,4.79104 252.865,2.95771 262.5,5C 292.727,22.2742 322.727,39.7742 352.5,57.5 Z"/></g>
<g><path style="opacity:0.997" fill="#06ead1" d="M 236.5,10.5 C 234.503,14.6504 231.169,17.1504 226.5,18C 226.833,18.3333 227.167,18.6667 227.5,19C 226.692,19.3076 226.025,19.8076 225.5,20.5C 228.184,23.0392 230.851,23.0392 233.5,20.5C 234.48,23.0865 234.813,25.7531 234.5,28.5C 233.325,28.281 232.325,28.6143 231.5,29.5C 232.167,29.8333 232.833,30.1667 233.5,30.5C 236.306,28.9362 239.306,28.2695 242.5,28.5C 242.5,31.1667 242.5,33.8333 242.5,36.5C 249.638,35.0019 253.972,37.6686 255.5,44.5C 256.5,44.5 257.5,44.5 258.5,44.5C 258.5,45.8333 258.5,47.1667 258.5,48.5C 255.753,48.1866 253.086,48.52 250.5,49.5C 251.243,50.1818 251.909,50.8485 252.5,51.5C 249.393,51.3512 246.393,51.8512 243.5,53C 227.139,62.5117 210.806,72.0117 194.5,81.5C 194.714,79.8561 194.38,78.3561 193.5,77C 191.19,76.5034 188.857,76.3367 186.5,76.5C 186.5,73.8333 186.5,71.1667 186.5,68.5C 183.833,68.5 181.167,68.5 178.5,68.5C 178.5,66.5 178.5,64.5 178.5,62.5C 173.343,60.8363 168.01,60.1696 162.5,60.5C 162.795,58.2646 162.461,56.2646 161.5,54.5C 186.3,39.596 211.3,24.9294 236.5,10.5 Z"/></g>
<g><path style="opacity:0.988" fill="#01f3ca" d="M 352.5,57.5 C 391.519,79.0116 430.186,101.178 468.5,124C 471.567,127.297 473.733,131.131 475,135.5C 475.5,150.163 475.667,164.83 475.5,179.5C 473.283,180.369 470.95,180.702 468.5,180.5C 468.666,175.489 468.499,170.489 468,165.5C 464.833,163 462,160.167 459.5,157C 457.19,156.503 454.857,156.337 452.5,156.5C 452.663,154.143 452.497,151.81 452,149.5C 447.558,148.561 445.058,145.894 444.5,141.5C 441.833,141.5 439.167,141.5 436.5,141.5C 436.664,138.813 436.497,136.146 436,133.5C 434.644,132.62 433.144,132.286 431.5,132.5C 431.5,131.5 431.5,130.5 431.5,129.5C 430.167,129.5 428.833,129.5 427.5,129.5C 427.5,127.833 427.5,126.167 427.5,124.5C 424.833,124.5 422.167,124.5 419.5,124.5C 419.5,121.833 419.5,119.167 419.5,116.5C 416.833,116.5 414.167,116.5 411.5,116.5C 411.5,113.833 411.5,111.167 411.5,108.5C 406.5,108.5 401.5,108.5 396.5,108.5C 396.384,105.14 396.051,101.807 395.5,98.5C 393.5,98.5 391.5,98.5 389.5,98.5C 389.672,96.5082 389.005,94.8415 387.5,93.5C 384.914,92.52 382.247,92.1866 379.5,92.5C 379.5,87.1667 379.5,81.8333 379.5,76.5C 374.167,76.5 368.833,76.5 363.5,76.5C 363.5,73.8333 363.5,71.1667 363.5,68.5C 360.833,68.5 358.167,68.5 355.5,68.5C 355.813,65.7531 355.48,63.0865 354.5,60.5C 353.833,60.8333 353.167,61.1667 352.5,61.5C 351.218,60.0416 351.218,58.7082 352.5,57.5 Z"/></g>
<g><path style="opacity:0.998" fill="#01e2db" d="M 161.5,54.5 C 162.461,56.2646 162.795,58.2646 162.5,60.5C 168.01,60.1696 173.343,60.8363 178.5,62.5C 178.5,64.5 178.5,66.5 178.5,68.5C 181.167,68.5 183.833,68.5 186.5,68.5C 186.5,71.1667 186.5,73.8333 186.5,76.5C 188.857,76.3367 191.19,76.5034 193.5,77C 194.38,78.3561 194.714,79.8561 194.5,81.5C 180.363,89.4027 166.363,97.5693 152.5,106C 168.336,115.03 184.003,124.197 199.5,133.5C 198.986,134.625 198.653,135.791 198.5,137C 199.793,137.49 201.127,137.657 202.5,137.5C 202.5,141.5 202.5,145.5 202.5,149.5C 205.167,149.5 207.833,149.5 210.5,149.5C 210.5,152.167 210.5,154.833 210.5,157.5C 215.167,157.5 219.833,157.5 224.5,157.5C 224.5,158.833 224.5,160.167 224.5,161.5C 226.167,161.5 227.833,161.5 229.5,161.5C 229.377,165.04 231.043,167.04 234.5,167.5C 234.5,169.5 234.5,171.5 234.5,173.5C 237.167,173.5 239.833,173.5 242.5,173.5C 242.5,176.167 242.5,178.833 242.5,181.5C 245.167,181.5 247.833,181.5 250.5,181.5C 250.5,184.167 250.5,186.833 250.5,189.5C 253.167,189.5 255.833,189.5 258.5,189.5C 258.5,192.167 258.5,194.833 258.5,197.5C 264.167,197.5 269.833,197.5 275.5,197.5C 274.718,208.382 279.718,213.716 290.5,213.5C 290.232,216.119 290.565,218.619 291.5,221C 291,221.5 290.5,222 290,222.5C 288.599,220.808 286.766,220.141 284.5,220.5C 284.5,221.5 284.5,222.5 284.5,223.5C 275.071,219.286 265.738,214.786 256.5,210C 213.303,184.569 169.97,159.403 126.5,134.5C 127.287,132.896 128.62,132.229 130.5,132.5C 130.5,129.167 130.5,125.833 130.5,122.5C 127.5,122.167 125.833,120.5 125.5,117.5C 124.5,117.5 123.5,117.5 122.5,117.5C 122.5,114.833 122.5,112.167 122.5,109.5C 119.813,109.336 117.146,109.503 114.5,110C 112.831,111.669 110.831,112.502 108.5,112.5C 108.762,113.978 108.429,115.311 107.5,116.5C 106.833,110.5 106.167,104.5 105.5,98.5C 102.788,100.26 99.7877,100.927 96.5,100.5C 96.7458,97.5299 98.4124,96.1966 101.5,96.5C 101.343,95.1266 101.51,93.7932 102,92.5C 102.741,93.6405 103.575,93.6405 104.5,92.5C 105.429,91.3112 105.762,89.9778 105.5,88.5C 104.167,88.5 102.833,88.5 101.5,88.5C 121.135,76.6778 141.135,65.3445 161.5,54.5 Z"/></g>
<g><path style="opacity:0.997" fill="#02dde0" d="M 101.5,88.5 C 102.833,88.5 104.167,88.5 105.5,88.5C 105.762,89.9778 105.429,91.3112 104.5,92.5C 103.575,93.6405 102.741,93.6405 102,92.5C 101.51,93.7932 101.343,95.1266 101.5,96.5C 98.4124,96.1966 96.7458,97.5299 96.5,100.5C 99.7877,100.927 102.788,100.26 105.5,98.5C 106.167,104.5 106.833,110.5 107.5,116.5C 108.429,115.311 108.762,113.978 108.5,112.5C 110.831,112.502 112.831,111.669 114.5,110C 117.146,109.503 119.813,109.336 122.5,109.5C 122.5,112.167 122.5,114.833 122.5,117.5C 123.5,117.5 124.5,117.5 125.5,117.5C 125.833,120.5 127.5,122.167 130.5,122.5C 130.5,125.833 130.5,129.167 130.5,132.5C 128.62,132.229 127.287,132.896 126.5,134.5C 122.528,132.178 118.528,129.845 114.5,127.5C 102.629,134.533 90.6286,141.367 78.5,148C 75.9334,150.396 73.6,152.896 71.5,155.5C 66.1588,158.239 60.8255,158.072 55.5,155C 57.6709,153.826 58.6709,151.993 58.5,149.5C 56.1727,149.753 54.1727,149.086 52.5,147.5C 51.5703,142.576 48.5703,140.242 43.5,140.5C 41.9385,137.037 41.1051,133.37 41,129.5C 39.9887,128.663 38.8221,128.33 37.5,128.5C 38.9274,125.236 41.2608,122.736 44.5,121C 63.5274,110.155 82.5274,99.3215 101.5,88.5 Z"/></g>
<g><path style="opacity:1" fill="#00d8e5" d="M 37.5,128.5 C 38.8221,128.33 39.9887,128.663 41,129.5C 41.1051,133.37 41.9385,137.037 43.5,140.5C 48.5703,140.242 51.5703,142.576 52.5,147.5C 54.1727,149.086 56.1727,149.753 58.5,149.5C 58.6709,151.993 57.6709,153.826 55.5,155C 60.8255,158.072 66.1588,158.239 71.5,155.5C 70.5618,167.462 70.2285,179.462 70.5,191.5C 69.8037,199.037 69.137,206.704 68.5,214.5C 67.8333,214.833 67.1667,215.167 66.5,215.5C 64.0276,214.008 61.3609,213.342 58.5,213.5C 58.5,210.833 58.5,208.167 58.5,205.5C 55.8333,205.5 53.1667,205.5 50.5,205.5C 50.5,202.833 50.5,200.167 50.5,197.5C 45.5548,198.324 42.8882,196.324 42.5,191.5C 40.2627,192.449 37.9294,193.116 35.5,193.5C 35.8432,195.483 35.1765,196.817 33.5,197.5C 33.3334,176.497 33.5,155.497 34,134.5C 34.4238,131.975 35.5905,129.975 37.5,128.5 Z"/></g>
<g><path style="opacity:0.994" fill="#04e4d8" d="M 199.5,133.5 C 226.969,149.069 254.303,164.902 281.5,181C 293.781,187.144 306.447,191.978 319.5,195.5C 318.624,195.369 317.957,195.702 317.5,196.5C 321.622,199.659 326.288,201.326 331.5,201.5C 331.5,202.833 331.5,204.167 331.5,205.5C 332.833,205.5 334.167,205.5 335.5,205.5C 335.343,204.127 335.51,202.793 336,201.5C 336.906,205.626 338.072,209.626 339.5,213.5C 341.5,213.5 343.5,213.5 345.5,213.5C 345.5,214.833 345.5,216.167 345.5,217.5C 348.788,217.927 351.788,217.26 354.5,215.5C 354.833,216.5 355.167,217.5 355.5,218.5C 354.522,220.777 353.855,223.11 353.5,225.5C 356.167,225.5 358.833,225.5 361.5,225.5C 361.238,224.022 361.571,222.689 362.5,221.5C 363.48,224.086 363.813,226.753 363.5,229.5C 366.167,229.5 368.833,229.5 371.5,229.5C 371.5,230.833 371.5,232.167 371.5,233.5C 367.858,234.08 364.191,234.58 360.5,235C 359.944,235.383 359.611,235.883 359.5,236.5C 333.606,237.187 308.606,232.854 284.5,223.5C 284.5,222.5 284.5,221.5 284.5,220.5C 286.766,220.141 288.599,220.808 290,222.5C 290.5,222 291,221.5 291.5,221C 290.565,218.619 290.232,216.119 290.5,213.5C 279.718,213.716 274.718,208.382 275.5,197.5C 269.833,197.5 264.167,197.5 258.5,197.5C 258.5,194.833 258.5,192.167 258.5,189.5C 255.833,189.5 253.167,189.5 250.5,189.5C 250.5,186.833 250.5,184.167 250.5,181.5C 247.833,181.5 245.167,181.5 242.5,181.5C 242.5,178.833 242.5,176.167 242.5,173.5C 239.833,173.5 237.167,173.5 234.5,173.5C 234.5,171.5 234.5,169.5 234.5,167.5C 231.043,167.04 229.377,165.04 229.5,161.5C 227.833,161.5 226.167,161.5 224.5,161.5C 224.5,160.167 224.5,158.833 224.5,157.5C 219.833,157.5 215.167,157.5 210.5,157.5C 210.5,154.833 210.5,152.167 210.5,149.5C 207.833,149.5 205.167,149.5 202.5,149.5C 202.5,145.5 202.5,141.5 202.5,137.5C 201.127,137.657 199.793,137.49 198.5,137C 198.653,135.791 198.986,134.625 199.5,133.5 Z"/></g>
<g><path style="opacity:0.989" fill="#02ead2" d="M 409.5,190.5 C 409.423,191.75 408.756,192.583 407.5,193C 408.784,193.684 409.951,193.517 411,192.5C 411.483,193.448 411.649,194.448 411.5,195.5C 416.798,194.822 421.465,196.155 425.5,199.5C 428.556,197.711 431.889,197.044 435.5,197.5C 436.167,200.167 436.833,202.833 437.5,205.5C 439.833,205.5 442.167,205.5 444.5,205.5C 444.5,208.167 444.5,210.833 444.5,213.5C 447.247,213.187 449.914,213.52 452.5,214.5C 453.833,216.5 455.167,218.5 456.5,220.5C 457.689,221.429 459.022,221.762 460.5,221.5C 460.5,224.167 460.5,226.833 460.5,229.5C 465.5,229.5 470.5,229.5 475.5,229.5C 475.5,261.833 475.5,294.167 475.5,326.5C 468.5,328.167 465.833,325.5 467.5,318.5C 460.5,320.167 457.833,317.5 459.5,310.5C 452.5,312.167 449.833,309.5 451.5,302.5C 447.599,301.857 444.266,302.857 441.5,305.5C 440.669,302.663 439.002,300.496 436.5,299C 437.973,298.29 438.64,297.124 438.5,295.5C 437.5,295.5 436.5,295.5 435.5,295.5C 435.833,270.491 435.5,245.491 434.5,220.5C 433.893,220.624 433.56,220.957 433.5,221.5C 409.889,231.568 385.222,236.568 359.5,236.5C 359.611,235.883 359.944,235.383 360.5,235C 364.191,234.58 367.858,234.08 371.5,233.5C 371.5,232.167 371.5,230.833 371.5,229.5C 368.833,229.5 366.167,229.5 363.5,229.5C 363.813,226.753 363.48,224.086 362.5,221.5C 361.571,222.689 361.238,224.022 361.5,225.5C 358.833,225.5 356.167,225.5 353.5,225.5C 353.855,223.11 354.522,220.777 355.5,218.5C 355.167,217.5 354.833,216.5 354.5,215.5C 351.788,217.26 348.788,217.927 345.5,217.5C 345.5,216.167 345.5,214.833 345.5,213.5C 343.5,213.5 341.5,213.5 339.5,213.5C 338.072,209.626 336.906,205.626 336,201.5C 335.51,202.793 335.343,204.127 335.5,205.5C 334.167,205.5 332.833,205.5 331.5,205.5C 331.5,204.167 331.5,202.833 331.5,201.5C 326.288,201.326 321.622,199.659 317.5,196.5C 317.957,195.702 318.624,195.369 319.5,195.5C 349.966,201.938 379.966,200.272 409.5,190.5 Z"/></g>
<g><path style="opacity:0.997" fill="#01d3ea" d="M 70.5,191.5 C 70.3334,222.168 70.5,252.835 71,283.5C 94.2477,274.984 118.081,271.318 142.5,272.5C 139.66,273.12 136.826,273.787 134,274.5C 133.177,278.166 134.677,279.833 138.5,279.5C 138.5,281.5 138.5,283.5 138.5,285.5C 143.167,285.5 147.833,285.5 152.5,285.5C 152.5,286.833 152.5,288.167 152.5,289.5C 156.151,289.162 157.817,290.828 157.5,294.5C 155.833,294.5 154.167,294.5 152.5,294.5C 152.5,295.5 152.5,296.5 152.5,297.5C 157.302,297.929 161.469,296.595 165,293.5C 165.494,295.134 165.66,296.801 165.5,298.5C 163.833,298.5 162.167,298.5 160.5,298.5C 160.5,299.5 160.5,300.5 160.5,301.5C 163.788,301.927 166.788,301.26 169.5,299.5C 170.487,302.768 170.82,306.102 170.5,309.5C 167.001,309.259 166.668,310.092 169.5,312C 169.272,312.399 168.938,312.565 168.5,312.5C 146.077,309.412 123.744,309.912 101.5,314C 95.3725,315.53 89.3725,317.363 83.5,319.5C 82.0298,317.841 81.3631,315.841 81.5,313.5C 82.1638,309.524 82.4971,305.524 82.5,301.5C 79.8333,301.5 77.1667,301.5 74.5,301.5C 74.5,298.833 74.5,296.167 74.5,293.5C 69.1667,293.5 63.8333,293.5 58.5,293.5C 58.8134,290.753 58.48,288.086 57.5,285.5C 50.1667,288.167 47.8333,285.833 50.5,278.5C 46.5705,277.722 42.7372,277.389 39,277.5C 38.2195,276.056 38.3861,274.723 39.5,273.5C 41.3289,274.288 42.9956,273.788 44.5,272C 41.8532,271.685 41.1865,270.518 42.5,268.5C 42,268.167 41.5,267.833 41,267.5C 38.7173,269.362 36.2173,270.695 33.5,271.5C 33.5,246.833 33.5,222.167 33.5,197.5C 35.1765,196.817 35.8432,195.483 35.5,193.5C 37.9294,193.116 40.2627,192.449 42.5,191.5C 42.8882,196.324 45.5548,198.324 50.5,197.5C 50.5,200.167 50.5,202.833 50.5,205.5C 53.1667,205.5 55.8333,205.5 58.5,205.5C 58.5,208.167 58.5,210.833 58.5,213.5C 61.3609,213.342 64.0276,214.008 66.5,215.5C 67.1667,215.167 67.8333,214.833 68.5,214.5C 69.137,206.704 69.8037,199.037 70.5,191.5 Z"/></g>
<g><path style="opacity:0.994" fill="#02d8e4" d="M 142.5,272.5 C 181.743,273.027 217.409,284.361 249.5,306.5C 249.9,310.437 250.567,314.603 251.5,319C 249.398,321.806 248.398,324.973 248.5,328.5C 254.328,326.791 260.328,326.124 266.5,326.5C 266.833,331.833 267.167,337.167 267.5,342.5C 269.912,342.331 272.079,342.997 274,344.5C 276.595,342.854 279.428,342.187 282.5,342.5C 280.833,349.5 283.5,352.167 290.5,350.5C 289.164,357.158 291.83,359.825 298.5,358.5C 297.52,365.38 300.52,368.047 307.5,366.5C 307.5,369.167 307.5,371.833 307.5,374.5C 311.63,374.534 315.63,375.201 319.5,376.5C 319.5,377.833 319.5,379.167 319.5,380.5C 320.833,380.5 322.167,380.5 323.5,380.5C 322.981,384.85 323.981,388.684 326.5,392C 326.43,392.765 326.097,393.265 325.5,393.5C 288.725,372.609 252.058,351.443 215.5,330C 200.497,322.059 184.83,316.225 168.5,312.5C 168.938,312.565 169.272,312.399 169.5,312C 166.668,310.092 167.001,309.259 170.5,309.5C 170.82,306.102 170.487,302.768 169.5,299.5C 166.788,301.26 163.788,301.927 160.5,301.5C 160.5,300.5 160.5,299.5 160.5,298.5C 162.167,298.5 163.833,298.5 165.5,298.5C 165.66,296.801 165.494,295.134 165,293.5C 161.469,296.595 157.302,297.929 152.5,297.5C 152.5,296.5 152.5,295.5 152.5,294.5C 154.167,294.5 155.833,294.5 157.5,294.5C 157.817,290.828 156.151,289.162 152.5,289.5C 152.5,288.167 152.5,286.833 152.5,285.5C 147.833,285.5 143.167,285.5 138.5,285.5C 138.5,283.5 138.5,281.5 138.5,279.5C 134.677,279.833 133.177,278.166 134,274.5C 136.826,273.787 139.66,273.12 142.5,272.5 Z"/></g>
<g><path style="opacity:0.994" fill="#04ccf0" d="M 83.5,319.5 C 79.3619,320.77 75.3619,322.437 71.5,324.5C 70.3344,334.483 70.1678,344.483 71,354.5C 71.834,359.668 74.334,363.835 78.5,367C 134.16,398.495 189.494,430.495 244.5,463C 250.241,465.038 255.908,464.871 261.5,462.5C 261.783,463.289 262.283,463.956 263,464.5C 265.228,462.887 267.728,462.22 270.5,462.5C 270.5,463.833 270.5,465.167 270.5,466.5C 268.396,466.201 266.396,466.534 264.5,467.5C 267.769,469.901 271.435,470.901 275.5,470.5C 275.5,473.167 275.5,475.833 275.5,478.5C 278.167,478.5 280.833,478.5 283.5,478.5C 283.5,481.167 283.5,483.833 283.5,486.5C 284.822,486.33 285.989,486.663 287,487.5C 287.308,486.692 287.808,486.025 288.5,485.5C 289.934,486.588 290.934,487.922 291.5,489.5C 281.861,494.988 272.194,500.488 262.5,506C 257.167,506.667 251.833,506.667 246.5,506C 210.171,485.169 173.838,464.335 137.5,443.5C 138.212,436.754 138.545,429.754 138.5,422.5C 133.167,422.5 127.833,422.5 122.5,422.5C 122.5,419.833 122.5,417.167 122.5,414.5C 119.833,414.5 117.167,414.5 114.5,414.5C 114.5,411.833 114.5,409.167 114.5,406.5C 111.833,406.5 109.167,406.5 106.5,406.5C 106.5,403.833 106.5,401.167 106.5,398.5C 103.5,398.5 100.5,398.5 97.5,398.5C 97.5,395.833 97.5,393.167 97.5,390.5C 94.8333,390.5 92.1667,390.5 89.5,390.5C 89.5,388.5 89.5,386.5 89.5,384.5C 86.0432,384.04 84.3765,382.04 84.5,378.5C 82.8333,378.5 81.1667,378.5 79.5,378.5C 79.5,377.167 79.5,375.833 79.5,374.5C 74.8333,374.5 70.1667,374.5 65.5,374.5C 65.7854,370.975 65.1187,367.642 63.5,364.5C 63.5904,362.575 64.5904,361.408 66.5,361C 66.0426,360.586 65.7093,360.086 65.5,359.5C 60.2079,358.505 54.8746,358.172 49.5,358.5C 49.5,355.833 49.5,353.167 49.5,350.5C 45.8333,350.5 42.1667,350.5 38.5,350.5C 38.6235,346.96 36.9568,344.96 33.5,344.5C 33.5,320.167 33.5,295.833 33.5,271.5C 36.2173,270.695 38.7173,269.362 41,267.5C 41.5,267.833 42,268.167 42.5,268.5C 41.1865,270.518 41.8532,271.685 44.5,272C 42.9956,273.788 41.3289,274.288 39.5,273.5C 38.3861,274.723 38.2195,276.056 39,277.5C 42.7372,277.389 46.5705,277.722 50.5,278.5C 47.8333,285.833 50.1667,288.167 57.5,285.5C 58.48,288.086 58.8134,290.753 58.5,293.5C 63.8333,293.5 69.1667,293.5 74.5,293.5C 74.5,296.167 74.5,298.833 74.5,301.5C 77.1667,301.5 79.8333,301.5 82.5,301.5C 82.4971,305.524 82.1638,309.524 81.5,313.5C 81.3631,315.841 82.0298,317.841 83.5,319.5 Z"/></g>
<g><path style="opacity:0.986" fill="#02e5d7" d="M 433.5,221.5 C 433.56,220.957 433.893,220.624 434.5,220.5C 435.5,245.491 435.833,270.491 435.5,295.5C 436.5,295.5 437.5,295.5 438.5,295.5C 438.64,297.124 437.973,298.29 436.5,299C 439.002,300.496 440.669,302.663 441.5,305.5C 444.266,302.857 447.599,301.857 451.5,302.5C 449.833,309.5 452.5,312.167 459.5,310.5C 457.833,317.5 460.5,320.167 467.5,318.5C 465.833,325.5 468.5,328.167 475.5,326.5C 475.667,342.837 475.5,359.17 475,375.5C 473.914,379.346 472.081,382.68 469.5,385.5C 468.351,385.209 467.684,384.376 467.5,383C 467.67,380.473 468.67,379.973 470.5,381.5C 471.244,380.009 471.91,378.509 472.5,377C 470.699,376.683 470.366,376.016 471.5,375C 466.5,374.079 463.5,371.246 462.5,366.5C 458.833,366.5 455.167,366.5 451.5,366.5C 451.5,363.833 451.5,361.167 451.5,358.5C 448.833,358.5 446.167,358.5 443.5,358.5C 443.5,355.833 443.5,353.167 443.5,350.5C 441.167,350.5 438.833,350.5 436.5,350.5C 436.666,343.492 436.5,336.492 436,329.5C 435.768,328.263 435.268,327.263 434.5,326.5C 434.832,291.329 434.498,256.329 433.5,221.5 Z"/></g>
<g><path style="opacity:0.995" fill="#02dbe2" d="M 249.5,306.5 C 296.523,333.097 343.357,360.097 390,387.5C 392.448,386.027 394.948,384.693 397.5,383.5C 396.135,385.591 395.468,387.924 395.5,390.5C 398.167,390.5 400.833,390.5 403.5,390.5C 403.5,393.167 403.5,395.833 403.5,398.5C 406.167,398.5 408.833,398.5 411.5,398.5C 411.5,401.167 411.5,403.833 411.5,406.5C 414.167,406.5 416.833,406.5 419.5,406.5C 420.415,409.965 420.415,412.965 419.5,415.5C 394.33,430.922 368.663,445.589 342.5,459.5C 341.5,459.5 340.5,459.5 339.5,459.5C 339.5,457.167 339.5,454.833 339.5,452.5C 336.043,452.04 334.377,450.04 334.5,446.5C 330.833,446.5 327.167,446.5 323.5,446.5C 323.5,441.167 323.5,435.833 323.5,430.5C 326.178,429.999 328.178,428.499 329.5,426C 328.207,425.51 326.873,425.343 325.5,425.5C 334.103,420.192 342.769,414.859 351.5,409.5C 342.769,404.141 334.103,398.808 325.5,393.5C 326.097,393.265 326.43,392.765 326.5,392C 323.981,388.684 322.981,384.85 323.5,380.5C 322.167,380.5 320.833,380.5 319.5,380.5C 319.5,379.167 319.5,377.833 319.5,376.5C 315.63,375.201 311.63,374.534 307.5,374.5C 307.5,371.833 307.5,369.167 307.5,366.5C 300.52,368.047 297.52,365.38 298.5,358.5C 291.83,359.825 289.164,357.158 290.5,350.5C 283.5,352.167 280.833,349.5 282.5,342.5C 279.428,342.187 276.595,342.854 274,344.5C 272.079,342.997 269.912,342.331 267.5,342.5C 267.167,337.167 266.833,331.833 266.5,326.5C 260.328,326.124 254.328,326.791 248.5,328.5C 248.398,324.973 249.398,321.806 251.5,319C 250.567,314.603 249.9,310.437 249.5,306.5 Z"/></g>
<g><path style="opacity:0.997" fill="#03c9f3" d="M 33.5,344.5 C 36.9568,344.96 38.6235,346.96 38.5,350.5C 42.1667,350.5 45.8333,350.5 49.5,350.5C 49.5,353.167 49.5,355.833 49.5,358.5C 54.8746,358.172 60.2079,358.505 65.5,359.5C 65.7093,360.086 66.0426,360.586 66.5,361C 64.5904,361.408 63.5904,362.575 63.5,364.5C 65.1187,367.642 65.7854,370.975 65.5,374.5C 70.1667,374.5 74.8333,374.5 79.5,374.5C 79.5,375.833 79.5,377.167 79.5,378.5C 81.1667,378.5 82.8333,378.5 84.5,378.5C 84.3765,382.04 86.0432,384.04 89.5,384.5C 89.5,386.5 89.5,388.5 89.5,390.5C 92.1667,390.5 94.8333,390.5 97.5,390.5C 97.5,393.167 97.5,395.833 97.5,398.5C 100.5,398.5 103.5,398.5 106.5,398.5C 106.5,401.167 106.5,403.833 106.5,406.5C 109.167,406.5 111.833,406.5 114.5,406.5C 114.5,409.167 114.5,411.833 114.5,414.5C 117.167,414.5 119.833,414.5 122.5,414.5C 122.5,417.167 122.5,419.833 122.5,422.5C 127.833,422.5 133.167,422.5 138.5,422.5C 138.545,429.754 138.212,436.754 137.5,443.5C 105.364,425.264 73.3639,406.764 41.5,388C 38.1166,384.731 35.6166,380.897 34,376.5C 33.5002,365.839 33.3335,355.172 33.5,344.5 Z"/></g>
<g><path style="opacity:0.998" fill="#02e1dc" d="M 434.5,326.5 C 435.268,327.263 435.768,328.263 436,329.5C 436.5,336.492 436.666,343.492 436.5,350.5C 438.833,350.5 441.167,350.5 443.5,350.5C 443.5,353.167 443.5,355.833 443.5,358.5C 446.167,358.5 448.833,358.5 451.5,358.5C 451.5,361.167 451.5,363.833 451.5,366.5C 455.167,366.5 458.833,366.5 462.5,366.5C 463.5,371.246 466.5,374.079 471.5,375C 470.366,376.016 470.699,376.683 472.5,377C 471.91,378.509 471.244,380.009 470.5,381.5C 468.67,379.973 467.67,380.473 467.5,383C 467.684,384.376 468.351,385.209 469.5,385.5C 468.284,387.451 466.618,388.951 464.5,390C 449.473,398.512 434.473,407.012 419.5,415.5C 420.415,412.965 420.415,409.965 419.5,406.5C 416.833,406.5 414.167,406.5 411.5,406.5C 411.5,403.833 411.5,401.167 411.5,398.5C 408.833,398.5 406.167,398.5 403.5,398.5C 403.5,395.833 403.5,393.167 403.5,390.5C 400.833,390.5 398.167,390.5 395.5,390.5C 395.468,387.924 396.135,385.591 397.5,383.5C 407.104,378.027 416.771,372.527 426.5,367C 430.666,363.835 433.166,359.668 434,354.5C 434.5,345.173 434.666,335.839 434.5,326.5 Z"/></g>
<g><path style="opacity:0.993" fill="#02d2ea" d="M 325.5,425.5 C 326.873,425.343 328.207,425.51 329.5,426C 328.178,428.499 326.178,429.999 323.5,430.5C 323.5,435.833 323.5,441.167 323.5,446.5C 327.167,446.5 330.833,446.5 334.5,446.5C 334.377,450.04 336.043,452.04 339.5,452.5C 339.5,454.833 339.5,457.167 339.5,459.5C 340.5,459.5 341.5,459.5 342.5,459.5C 325.7,469.737 308.7,479.737 291.5,489.5C 290.934,487.922 289.934,486.588 288.5,485.5C 287.808,486.025 287.308,486.692 287,487.5C 285.989,486.663 284.822,486.33 283.5,486.5C 283.5,483.833 283.5,481.167 283.5,478.5C 280.833,478.5 278.167,478.5 275.5,478.5C 275.5,475.833 275.5,473.167 275.5,470.5C 271.435,470.901 267.769,469.901 264.5,467.5C 266.396,466.534 268.396,466.201 270.5,466.5C 270.5,465.167 270.5,463.833 270.5,462.5C 267.728,462.22 265.228,462.887 263,464.5C 262.283,463.956 261.783,463.289 261.5,462.5C 282.534,449.65 303.867,437.316 325.5,425.5 Z"/></g>
</svg>
