<svg height="250" viewBox="0 0 250 250" width="250" xmlns="http://www.w3.org/2000/svg" xmlns:xlink="http://www.w3.org/1999/xlink"><linearGradient id="a" gradientUnits="userSpaceOnUse" x1="53.75" x2="140.174999375" y1="62.408938125" y2="208.91687375"><stop offset="0" stop-color="#03001e" stop-opacity=".15"/><stop offset=".28941" stop-color="#7303c0" stop-opacity=".15"/><stop offset=".680035" stop-color="#ec38bc" stop-opacity=".15"/><stop offset="1" stop-color="#fdeff9" stop-opacity=".15"/></linearGradient><linearGradient id="b" gradientUnits="userSpaceOnUse" x1="53.75" x2="140.174999375" y1="62.408938125" y2="208.91687375"><stop offset="0" stop-color="#03001e"/><stop offset=".28941" stop-color="#7303c0"/><stop offset=".680035" stop-color="#ec38bc"/><stop offset="1" stop-color="#fdeff9"/></linearGradient><path d="m250 125c0 69.035156-55.964844 125-125 125s-125-55.964844-125-125 55.964844-125 125-125 125 55.964844 125 125zm0 0" fill="#0c0e11"/><path d="m134.425781 198.640625c-2.996093 5.195313-10.496093 5.195313-13.496093.003906l-66.121094-114.453125c-3.003906-5.195312.746094-11.691406 6.746094-11.691406h118.460937c12.0625 0 19.554687 13.117188 13.421875 23.507812l-14.382812 24.367188c-5.605469 9.5-15.816407 15.328125-26.84375 15.328125h-45.019532c-2.636718 0-4.253906 2.886719-2.875 5.136719.613282 1 1.703125 1.609375 2.875 1.609375h32.667969c11.996094 0 19.496094 12.984375 13.5 23.371093zm0 0" fill="url(#a)"/><path d="m56.972656 82.941406 66.121094 114.449219c2.039062 3.53125 7.132812 3.527344 9.167969 0l18.933593-32.816406c5.03125-8.726563-1.261718-19.625-11.335937-19.625h-32.667969c-2.042968 0-3.9375-1.0625-5.007812-2.804688-2.398438-3.914062.417968-8.941406 5.007812-8.941406h45.019532c10.144531 0 19.535156-5.359375 24.691406-14.097656l14.382812-24.371094c5.148438-8.722656-1.140625-19.734375-11.269531-19.734375h-118.460937c-4.074219 0-6.621094 4.410156-4.582032 7.941406zm63.957032 115.703125c3 5.191407 10.5 5.191407 13.496093-.003906l18.933594-32.820313c5.996094-10.386718-1.503906-23.371093-13.5-23.371093h-32.667969c-1.171875 0-2.261718-.609375-2.875-1.609375-1.378906-2.25.238282-5.136719 2.875-5.136719h45.019532c11.027343 0 21.238281-5.828125 26.84375-15.328125l14.382812-24.367188c6.132812-10.390624-1.359375-23.507812-13.421875-23.507812h-118.460937c-6 0-9.75 6.496094-6.746094 11.691406zm0 0" fill="url(#b)" fill-rule="evenodd"/></svg>