<svg height="250" viewBox="0 0 250 250" width="250" xmlns="http://www.w3.org/2000/svg"><path d="m0 0h250v250h-250z" fill="#fff"/><path d="m150 46.667969.417969.414062zm0 0" fill="#565a55"/><path d="m150.417969 46.667969-2.5 7.5c-4.292969-2.417969-7.976563-1.351563-12.5-.417969l-2.917969-5.417969c-.0625 7.441407-5.734375 24.132813 5.832031 24.167969.144531 3.335938-.339843 8.097656.691407 11.242188.453124 1.382812 2.667968 3.101562 3.640624 1.125.816407-1.65625.230469-4.273438.667969-6.117188h.835938c.875 3.6875-.730469 7.039062 4.164062 7.082031-.035156-1.800781-.988281-4.484375.011719-6.105469 1.847656-2.992187 11.496094-3.210937 14.023438-1.085937 1.777343 1.496094-.214844 6.257813 2.632812 6.582031 2.378906.269532 2.023438-4.355468 3.332031-5.640625 0 .996094 1.09375 8.882813 3.082031 4.867188 1.292969-2.605469-.601562-6.945313-1.414062-9.449219 7.175781.394531 5.902344 10.792969 5.238281 15.832031-.1875 1.4375-.023437 3.246094-.730469 4.546875-.917968 1.6875-2.84375 2.28125-4.507812 2.953125l-.832031-2.914062c-3.351563.109375-4.113281 4.796875-.808594 5.699219 11.851563 3.238281 10.082031-10.652344 9.59375-17.785157-.21875-3.234375.648437-7.800781-2.28125-10.164062-2.035156-1.640625-4.707031.097656-6.921875-.273438-3.863281-.648437-6.011719-3.363281-10.417969-3.308593-1.617187.019531-6.089843 1.53125-7.089843-.140626-.710938-1.191406.40625-3.886718.421874-5.277343.054688-4.335938 1.179688-13.949219-1.246093-17.5zm0 0" fill="#1f1b1d"/><path d="m150.832031 47.082031.417969.417969zm0 0" fill="#565a55"/><path d="m149.582031 47.5.417969.417969zm0 0" fill="#d2c934"/><path d="m149.582031 47.917969.417969.414062zm-16.664062.414062.414062.417969zm.414062.417969.417969.417969zm0 0" fill="#565a55"/><path d="m149.167969 48.75.414062.417969zm-16.945313.695312.136719.277344zm0 0" fill="#d2c934"/><path d="m149.167969 49.167969.414062.414062zm-15.417969.414062.417969.417969zm-1.667969.417969v1.667969h.417969zm0 0" fill="#565a55"/><path d="m134.167969 50 .414062.417969zm0 0" fill="#d2c934"/><path d="m148.75 50 .417969.417969zm-14.582031.417969.414062.414062zm0 0" fill="#565a55"/><path d="m148.332031 50.832031.417969.417969zm0 0" fill="#d2c934"/><path d="m134.722656 51.527344.136719.277344zm13.609375-.277344.417969.417969zm0 0" fill="#565a55"/><path d="m147.917969 52.082031.414062.417969zm3.332031 0v1.667969h.417969zm0 0" fill="#d2c934"/><path d="m135 52.5.417969.417969zm0 0" fill="#565a55"/><path d="m138.75 52.5.417969.417969zm0 0" fill="#d2c934"/><path d="m139.445312 52.640625.277344.136719zm5 0 .277344.136719zm3.472657-.140625.414062.417969zm0 0" fill="#565a55"/><path d="m137.082031 52.917969.417969.414062zm0 0" fill="#d2c934"/><path d="m137.777344 53.054688.277344.140624zm8.054687-.136719.417969.414062zm0 0" fill="#565a55"/><path d="m135.695312 53.472656.277344.136719zm0 0" fill="#d2c934"/><path d="m136.25 53.332031.417969.417969zm10.417969 0 .414062.417969zm0 0" fill="#565a55"/><path d="m147.5 53.332031.417969.417969zm-15.832031.417969v1.25h.414062zm0 0" fill="#d2c934"/><path d="m147.5 53.75.417969.417969zm3.75 0v3.75h.417969zm-19.582031 1.25v2.917969h.414062zm0 0" fill="#565a55"/><path d="m139.175781 59.121094c-2.414062.613281-2.457031 4.941406.371094 4.402344 2.304687-.4375 2.15625-5.042969-.371094-4.402344zm0 0" fill="#d2c934"/><path d="m140.417969 58.75.414062.417969zm5 0 .414062.417969zm0 0" fill="#565a55"/><path d="m145.832031 58.75v.832031h.835938zm0 0" fill="#fff"/><path d="m146.25 58.75.417969.417969zm-5.417969.417969.417969.414062zm0 0" fill="#565a55"/><path d="m145 59.167969c-1.855469 3.886719 1.972656 5.144531 2.917969.832031zm0 0" fill="#d2c934"/><path d="m146.667969 59.167969.414062.414062zm0 0" fill="#565a55"/><path d="m131.390625 59.859375.136719.28125zm0 0" fill="#d2c934"/><path d="m144.167969 60 .414062.417969zm0 0" fill="#565a55"/><path d="m151.667969 60v1.667969h.414062zm0 0" fill="#d2c934"/><path d="m131.25 60.417969v1.664062h.417969zm5.832031 0 .417969.414062zm0 0" fill="#565a55"/><path d="m145.972656 60.695312.136719.277344zm0 0" fill="#fff"/><path d="m147.640625 61.109375.136719.28125zm4.027344.558594v3.75h.414062zm-14.585938.414062.417969.417969zm3.75.417969.417969.417969zm0 0" fill="#565a55"/><path d="m130.832031 62.917969v5.414062h.417969zm0 0" fill="#d2c934"/><path d="m137.917969 63.332031.414062.417969zm2.082031 0 .417969.417969zm0 0" fill="#565a55"/><path d="m151.804688 65.695312.140624.277344zm0 0" fill="#d2c934"/><path d="m151.25 66.667969.417969.414062zm0 0" fill="#565a55"/><path d="m151.25 67.082031.417969.417969zm0 0" fill="#d2c934"/><path d="m150.832031 67.917969.417969.414062zm-19.441406 1.109375.136719.277344zm19.027344-.277344.414062.417969zm0 0" fill="#565a55"/><path d="m150.417969 69.167969.414062.414062zm6.664062 0 .417969.414062zm0 0" fill="#d2c934"/><path d="m157.5 69.167969v.414062h2.082031zm0 0" fill="#565a55"/><path d="m159.582031 69.167969v.414062h2.5zm-8.75.414062.417969.417969zm3.75 0 .417969.417969zm0 0" fill="#d2c934"/><path d="m155.277344 69.722656.277344.136719zm7.222656-.140625.417969.417969zm0 0" fill="#565a55"/><path d="m162.917969 69.582031.414062.417969zm-31.25.417969.414062.417969zm20.832031 0 .417969.417969zm0 0" fill="#d2c934"/><path d="m152.917969 70 .414062.417969zm10.832031 0 .417969.417969zm0 0" fill="#565a55"/><path d="m132.082031 70.417969.417969.414062zm32.5 0 .417969.414062zm-32.082031.414062.417969.417969zm32.917969 0 .414062.417969zm-32.5.417969.414062.417969zm0 0" fill="#d2c934"/><path d="m165.832031 71.25.417969.417969zm-32.082031.417969.417969.414062zm.832031.414062.417969.417969zm0 0" fill="#565a55"/><path d="m167.082031 72.082031.417969.417969zm0 0" fill="#d2c934"/><path d="m172.5 72.082031v.417969h2.082031zm0 0" fill="#565a55"/><path d="m174.582031 72.082031.417969.417969zm-38.75.417969v.417969h2.085938zm0 0" fill="#d2c934"/><path d="m137.917969 72.5.414062.417969zm0 0" fill="#565a55"/><path d="m167.5 72.5.417969.417969zm2.082031 0 .417969.417969zm0 0" fill="#d2c934"/><path d="m170.277344 72.640625.277344.136719zm0 0" fill="#565a55"/><path d="m175.417969 72.5.414062.417969zm0 0" fill="#d2c934"/><path d="m167.917969 72.917969.414062.414062zm.832031 0 .417969.414062zm0 0" fill="#565a55"/><path d="m175.832031 72.917969.417969.414062zm0 0" fill="#d2c934"/><path d="m176.25 73.75.417969.417969zm0 0" fill="#565a55"/><path d="m176.667969 74.167969.414062.414062zm0 0" fill="#d2c934"/><path d="m138.332031 74.582031v3.75h.417969zm38.335938 0 .414062.417969zm0 0" fill="#565a55"/><path d="m170 75 .417969.417969zm0 0" fill="#d2c934"/><path d="m170.417969 75 1.664062 10h3.335938c0-4.59375-.007813-8.691406-5-10zm0 0" fill="#fff"/><path d="m170.832031 75v.417969h1.25zm0 0" fill="#d2c934"/><path d="m172.082031 75 .417969.417969zm0 0" fill="#565a55"/><path d="m177.082031 75 .417969.417969zm0 0" fill="#d2c934"/><path d="m170 75.417969.417969.414062zm0 0" fill="#565a55"/><path d="m172.917969 75.417969.414062.414062zm0 0" fill="#d2c934"/><path d="m177.082031 75.417969.417969.414062zm-6.527343 1.109375.140624.277344zm7.085937 0 .136719.277344zm-3.472656.140625.414062.414062zm0 0" fill="#565a55"/><path d="m174.167969 77.082031.414062.417969zm0 0" fill="#d2c934"/><path d="m153.609375 77.640625.28125.136719zm0 0" fill="#565a55"/><path d="m154.167969 77.5v.417969h2.082031zm0 0" fill="#d2c934"/><path d="m148.332031 85h15l-.414062-6.667969c-3.417969-.269531-12.246094-2.257812-14.570313 1.414063-.859375 1.351562-.046875 3.730468-.015625 5.253906zm0 0" fill="#fff"/><path d="m158.609375 77.640625.28125.136719zm0 0" fill="#d2c934"/><path d="m159.445312 77.640625.277344.136719zm0 0" fill="#565a55"/><path d="m170.832031 77.5.417969.417969zm0 0" fill="#d2c934"/><path d="m174.582031 77.5.417969.417969zm0 0" fill="#565a55"/><path d="m178.054688 77.777344.140624.277344zm0 0" fill="#d2c934"/><path d="m150.695312 78.054688.277344.140624zm0 0" fill="#565a55"/><path d="m151.25 77.917969v.414062h1.25zm9.582031 0 .417969.414062zm0 0" fill="#d2c934"/><path d="m161.527344 78.054688.277344.140624zm9.304687-.136719.417969.414062zm0 0" fill="#565a55"/><path d="m174.582031 77.917969.417969.414062zm-36.25.414062v3.75h.417969zm0 0" fill="#d2c934"/><path d="m149.167969 78.332031.414062.417969zm0 0" fill="#565a55"/><path d="m149.582031 78.332031.417969.417969zm0 0" fill="#d2c934"/><path d="m177.917969 78.332031v6.667969h.414062zm-34.585938.417969-.414062 5.417969h.414062v-5h.835938v3.332031h.414062l-.414062-3.75zm0 0" fill="#565a55"/><path d="m148.75 78.75.417969.417969zm0 0" fill="#d2c934"/><path d="m163.054688 79.027344.140624.277344zm0 0" fill="#565a55"/><path d="m143.332031 79.167969-.414062 5.832031h1.664062l-.414062-5.832031zm0 0" fill="#fff"/><path d="m147.917969 79.167969.414062.414062zm0 0" fill="#565a55"/><path d="m171.25 79.167969.417969.414062zm0 0" fill="#d2c934"/><path d="m175 79.167969v1.25h.417969zm0 0" fill="#565a55"/><path d="m162.917969 79.582031v1.25h.414062zm0 0" fill="#d2c934"/><path d="m167.777344 79.722656.277344.136719zm3.613281.136719.136719.28125zm0 0" fill="#565a55"/><path d="m167.082031 80-.414062 5h1.664062v-5zm0 0" fill="#fff"/><path d="m175 80.417969.417969.414062zm-3.195312 1.527343.140624.277344zm-23.886719.136719.414062.417969zm-3.75.417969v2.082031h.414062zm0 0" fill="#d2c934"/><path d="m148.054688 82.777344.140624.277344zm23.613281-.277344v2.082031h.414062zm3.75.417969v2.082031h.414062zm-36.667969.832031.417969.417969zm27.917969 0 .414062.417969zm0 0" fill="#565a55"/><path d="m138.75 84.167969.417969.414062zm4.167969 0 .414062.414062zm23.75 0 .414062.414062zm0 0" fill="#d2c934"/><path d="m139.167969 84.582031.414062.417969zm24.164062 0 .835938.835938zm5 0 .835938.835938zm0 0" fill="#565a55"/><path d="m171.667969 84.582031.414062.417969zm0 0" fill="#d2c934"/><path d="m36.667969 85.832031c9.515625-2.265625 21.460937-.414062 31.25-.414062-2.175781-.914063-5.160157-.417969-7.5-.417969h-16.25c-2.042969 0-6.082031-.792969-7.5.832031m64.164062 0c9.273438-2.207031 20.882813-.414062 30.417969-.414062-2.171875-.914063-5.160156-.417969-7.5-.417969h-15.417969c-2.039062 0-6.078125-.792969-7.5.832031zm0 0" fill="#565a55"/><path d="m134.582031 85 1.644531 69.582031-1.644531 30h30.835938l-1.25-34.164062c6.207031 0 12.554687-.386719 18.75.035156 2.480469.171875 6.652343 1.3125 8.984375.128906 1.523437-.773437 1.003906-3.753906 1.191406-5.164062.59375-4.523438.875-9.195313 1.089844-13.75.085937-1.835938.636718-3.890625-1.3125-4.988281-2.570313-1.449219-7.574219-.351563-10.371094-.082032-5.875.558594-12.015625.070313-17.917969.070313l.417969-17.917969 35.417969.832031c1.351562-5.675781 1.292969-12.09375 1.703125-17.914062.140625-2.027344 1.027344-4.535157-.933594-6-1.644531-1.230469-4.667969-.667969-6.605469-.667969h-16.25c0 3.886719 1.246094 10.410156-1.125 13.726562-3.921875 5.480469-10.953125 2.894532-10.957031-3.308593 1.96875.0625 3.007812.449219 3.332031 2.5 6.761719-.351563 5.835938-7.835938 5.835938-12.917969h-27.085938v1.25zm0 0" fill="#24b54c"/><path d="m171.25 85 .417969.417969zm0 0" fill="#565a55"/><path d="m200.832031 85 .417969.417969zm0 0" fill="#d2c934"/><path d="m37.082031 85.417969 7.324219 27.5 19.34375 71.25h26.667969l10.203125-.429688 2.652344-7.070312 5.652343-18.75 21.90625-72.5h-21.25c-1.976562 0-6.460937-.835938-8.082031.425781-1.027344.800781-.992188 2.980469-1.1875 4.15625l-1.734375 10.832031c-2.238281 13.351563-6.804687 26.457031-10.089844 39.585938l-3.132812 12.082031c-.3125 1.144531-.585938 3.492188-1.765625 4.09375-1.675782.851562-2.066406-2.324219-2.257813-3.261719l-2.671875-12.914062c-3.867187-18.207031-8.394531-36.523438-10.742187-55zm0 0" fill="#1f1b1d"/><path d="m68.054688 85.695312.140624.277344zm62.777343-.277343.417969.414062zm0 0" fill="#d2c934"/><path d="m142.5 85.417969.417969.414062zm2.5 0 .417969.414062zm0 0" fill="#565a55"/><path d="m201.25 85.417969.417969.414062zm-164.582031.414062.414062.417969zm0 0" fill="#d2c934"/><path d="m141.25 85.832031v.417969h1.25zm5.417969 0v.417969h1.664062zm-78.613281.695313.140624.277344zm62.363281-.277344.414062.417969zm-93.195313.695312.136719.277344zm0 0" fill="#565a55"/><path d="m100.554688 86.945312.140624.277344zm29.863281-.277343.414062.414062zm72.082031.414062.417969.417969zm-165.417969.417969.417969.417969zm0 0" fill="#d2c934"/><path d="m100.554688 87.777344.140624.277344zm29.445312-.277344.417969.417969zm0 0" fill="#565a55"/><path d="m68.472656 88.195312.136719.277344zm61.527344-.277343.417969.414062zm0 0" fill="#d2c934"/><path d="m37.5 88.332031.417969.417969zm0 0" fill="#565a55"/><path d="m37.5 88.75.417969.417969zm0 0" fill="#d2c934"/><path d="m68.472656 89.027344.136719.277344zm61.25 0 .136719.277344zm0 0" fill="#565a55"/><path d="m100.140625 89.445312.136719.277344zm0 0" fill="#d2c934"/><path d="m38.054688 89.859375.140624.28125zm0 0" fill="#565a55"/><path d="m129.582031 89.582031.417969.417969zm0 0" fill="#d2c934"/><path d="m100.140625 90.277344.136719.277344zm0 0" fill="#565a55"/><path d="m202.082031 90v2.082031h.417969zm-164.164062.417969.414062.414062zm30.972656.277343.136719.277344zm0 0" fill="#d2c934"/><path d="m129.167969 90.417969.414062.414062zm45.972656.277343.136719.277344zm0 0" fill="#565a55"/><path d="m129.167969 90.832031.414062.417969zm0 0" fill="#d2c934"/><path d="m38.472656 91.527344.136719.277344zm30.417969 0 .136719.277344zm0 0" fill="#565a55"/><path d="m99.722656 91.945312.136719.277344zm0 0" fill="#d2c934"/><path d="m128.75 91.667969.417969.414062zm0 0" fill="#565a55"/><path d="m38.332031 92.082031.417969.417969zm90.417969 0 .417969.417969zm0 0" fill="#d2c934"/><path d="m99.582031 92.5v1.25h.417969zm-60.832031.417969.417969.414062zm0 0" fill="#565a55"/><path d="m69.304688 93.195312.140624.277344zm0 0" fill="#d2c934"/><path d="m128.472656 93.195312.136719.277344zm0 0" fill="#565a55"/><path d="m38.75 93.332031.417969.417969zm0 0" fill="#d2c934"/><path d="m69.304688 94.027344.140624.277344zm0 0" fill="#565a55"/><path d="m128.332031 93.75.417969.417969zm0 0" fill="#d2c934"/><path d="m39.304688 94.445312.140624.277344zm0 0" fill="#565a55"/><path d="m99.167969 94.582031.414062.417969zm0 0" fill="#d2c934"/><path d="m127.917969 94.582031.414062.417969zm0 0" fill="#565a55"/><path d="m39.167969 95 .414062.417969zm0 0" fill="#d2c934"/><path d="m99.167969 95v1.25h.414062zm0 0" fill="#565a55"/><path d="m127.917969 95 .414062.417969zm73.75 0v2.082031h.414062zm-131.945313.695312.136719.277344zm0 0" fill="#d2c934"/><path d="m166.25 95.417969.417969.414062zm-126.527344.691406.136719.28125zm87.777344-.277344.417969.417969zm41.804688.277344.140624.28125zm4.863281-.277344.414062.417969zm-104.445313.695313.136719.277344zm0 0" fill="#565a55"/><path d="m127.5 96.25.417969.417969zm0 0" fill="#d2c934"/><path d="m173.75 96.25.417969.417969zm4.304688.277344.140624.277344zm0 0" fill="#565a55"/><path d="m39.582031 96.667969.417969.414062zm95 0v4.164062h.417969zm-35.691406.691406.136719.28125zm0 0" fill="#d2c934"/><path d="m127.222656 97.359375.136719.28125zm45.277344-.277344.417969.417969zm-132.5.417969.417969.417969zm131.667969 0 .414062.417969zm0 0" fill="#565a55"/><path d="m40 97.917969.417969.414062zm30.140625.277343.136719.277344zm0 0" fill="#d2c934"/><path d="m98.890625 98.195312.136719.277344zm0 0" fill="#565a55"/><path d="m127.082031 97.917969.417969.414062zm0 0" fill="#d2c934"/><path d="m170 97.917969.417969.414062zm7.5 0 .417969.414062zm-50.695312.691406.140624.28125zm-86.25.417969.140624.277344zm29.585937 0 .136719.277344zm96.25 0 .136719.277344zm10.691406-.277344.417969.417969zm0 0" fill="#565a55"/><path d="m126.667969 99.167969.414062.414062zm-86.25.414062.414062.417969zm58.054687.277344.136719.28125zm102.777344-.277344v2.085938h.417969zm0 0" fill="#d2c934"/><path d="m126.25 100 .417969.417969zm49.582031 0 .417969.417969zm-134.859375.695312.136719.277344zm0 0" fill="#565a55"/><path d="m70.554688 100.695312.140624.277344zm0 0" fill="#d2c934"/><path d="m98.472656 100.695312.136719.277344zm0 0" fill="#565a55"/><path d="m126.25 100.417969.417969.414062zm0 0" fill="#d2c934"/><path d="m174.582031 100.417969.417969.414062zm-1.25.414062.417969.417969zm0 0" fill="#565a55"/><path d="m40.832031 101.25.417969.417969zm0 0" fill="#d2c934"/><path d="m70.554688 101.527344.140624.277344zm55.277343-.277344.417969.417969zm42.917969 0v.417969h3.332031zm0 0" fill="#565a55"/><path d="m125.832031 101.667969.417969.414062zm0 0" fill="#d2c934"/><path d="m41.25 102.082031.417969.417969zm0 0" fill="#565a55"/><path d="m98.054688 102.359375.140624.28125zm-56.804688.140625.417969.417969zm0 0" fill="#d2c934"/><path d="m125.554688 102.777344.140624.277344zm0 0" fill="#565a55"/><path d="m70.832031 102.917969.417969.414062zm0 0" fill="#d2c934"/><path d="m98.054688 103.195312.140624.277344zm-56.25.414063.140624.28125zm29.167968 0 .136719.28125zm0 0" fill="#565a55"/><path d="m125.417969 103.332031.414062.417969zm-83.75.835938.414062.414062zm55.832031 0 .417969.414062zm0 0" fill="#d2c934"/><path d="m125 104.167969.417969.414062zm0 0" fill="#565a55"/><path d="m200.832031 104.167969v2.082031h.417969zm-129.441406.691406.136719.28125zm0 0" fill="#d2c934"/><path d="m97.640625 104.859375.136719.28125zm0 0" fill="#565a55"/><path d="m125 104.582031.417969.417969zm0 0" fill="#d2c934"/><path d="m42.222656 105.277344.136719.277344zm29.167969.417968.136719.277344zm53.191406-.277343.417969.414062zm0 0" fill="#565a55"/><path d="m42.082031 105.832031.417969.417969zm55 0 .417969.417969zm27.5 0 .417969.417969zm0 0" fill="#d2c934"/><path d="m97.222656 106.527344.136719.277344zm-54.722656.140625.417969.414062zm0 0" fill="#565a55"/><path d="m71.667969 106.667969.414062.414062zm0 0" fill="#d2c934"/><path d="m124.304688 106.945312.140624.277344zm0 0" fill="#565a55"/><path d="m42.5 107.082031.417969.417969zm0 0" fill="#d2c934"/><path d="m71.804688 107.359375.140624.28125zm0 0" fill="#565a55"/><path d="m96.667969 107.5.414062.417969zm27.5 0 .414062.417969zm0 0" fill="#d2c934"/><path d="m43.054688 108.195312.140624.277344zm53.75 0 .140624.277344zm26.945312.136719.417969.417969zm0 0" fill="#565a55"/><path d="m42.917969 108.75.414062.417969zm29.164062 0 .417969.417969zm51.667969 0 .417969.417969zm58.75 0v.417969h4.167969zm18.054688.277344.140624.277344zm0 0" fill="#d2c934"/><path d="m72.222656 109.445312.136719.277344zm0 0" fill="#565a55"/><path d="m96.25 109.167969.417969.414062zm97.5 0v.414062h5.417969zm0 0" fill="#d2c934"/><path d="m43.472656 109.859375.136719.28125zm52.917969 0 .136719.28125zm26.941406-.277344.417969.417969zm0 0" fill="#565a55"/><path d="m123.332031 110 .417969.417969zm-80 .417969.417969.414062zm29.167969.414062.417969.417969zm23.332031 0 .417969.417969zm0 0" fill="#d2c934"/><path d="m123.054688 111.109375.140624.28125zm-79.304688.140625.417969.417969zm28.890625.277344.136719.277344zm23.191406-.277344.417969.417969zm0 0" fill="#565a55"/><path d="m43.75 111.667969.417969.414062zm79.167969 0 .414062.414062zm-27.363281.691406.140624.28125zm0 0" fill="#d2c934"/><path d="m122.640625 112.359375.136719.28125zm-78.335937.417969.140624.277344zm0 0" fill="#565a55"/><path d="m72.917969 112.917969.414062.414062zm0 0" fill="#d2c934"/><path d="m95.417969 112.917969.414062.414062zm0 0" fill="#565a55"/><path d="m122.5 112.917969.417969.414062zm-78.332031.414062.414062.417969zm0 0" fill="#d2c934"/><path d="m73.054688 113.609375.140624.28125zm0 0" fill="#565a55"/><path d="m95 113.75.417969.417969zm0 0" fill="#d2c934"/><path d="m122.082031 113.75.417969.417969zm-77.359375.695312.136719.277344zm50.417969 0 .136719.277344zm0 0" fill="#565a55"/><path d="m122.082031 114.167969.417969.414062zm-48.609375.691406.136719.28125zm-28.890625.140625.417969.417969zm0 0" fill="#d2c934"/><path d="m121.804688 115.277344.140624.277344zm0 0" fill="#565a55"/><path d="m135 115v4.582031h.417969zm0 0" fill="#d2c934"/><path d="m73.472656 115.695312.136719.277344zm0 0" fill="#565a55"/><path d="m94.582031 115.417969.417969.414062zm0 0" fill="#d2c934"/><path d="m45 115.832031.417969.417969zm49.722656.277344.136719.28125zm0 0" fill="#565a55"/><path d="m45 116.25.417969.417969zm0 0" fill="#d2c934"/><path d="m121.390625 116.527344.136719.277344zm0 0" fill="#565a55"/><path d="m73.890625 116.945312.136719.277344zm0 0" fill="#d2c934"/><path d="m45.554688 117.359375.140624.28125zm0 0" fill="#565a55"/><path d="m94.167969 117.082031.414062.417969zm27.082031 0 .417969.417969zm0 0" fill="#d2c934"/><path d="m73.75 117.5.417969.417969zm20.554688.277344.140624.277344zm0 0" fill="#565a55"/><path d="m45.417969 117.917969.414062.414062zm0 0" fill="#d2c934"/><path d="m120.832031 117.917969.417969.414062zm0 0" fill="#565a55"/><path d="m120.832031 118.332031.417969.417969zm0 0" fill="#d2c934"/><path d="m45.832031 118.75.417969.417969zm0 0" fill="#565a55"/><path d="m74.167969 118.75.414062.417969zm19.582031 0 .417969.417969zm-47.777344.695312.136719.277344zm0 0" fill="#d2c934"/><path d="m74.304688 119.445312.140624.277344zm19.445312-.277343.417969.414062zm26.667969 0 .414062.414062zm0 0" fill="#565a55"/><path d="m120.417969 119.582031.414062.417969zm44.164062 0v4.167969h.417969zm0 0" fill="#d2c934"/><path d="m46.25 120.417969.417969.414062zm0 0" fill="#565a55"/><path d="m93.332031 120.417969.417969.414062zm0 0" fill="#d2c934"/><path d="m120.140625 120.695312.136719.277344zm0 0" fill="#565a55"/><path d="m46.25 120.832031.417969.417969zm28.332031 0 .417969.417969zm0 0" fill="#d2c934"/><path d="m93.332031 120.832031.417969.417969zm-18.609375.695313.136719.277344zm0 0" fill="#565a55"/><path d="m120 121.25.417969.417969zm0 0" fill="#d2c934"/><path d="m46.804688 121.945312.140624.277344zm0 0" fill="#565a55"/><path d="m92.917969 121.667969.414062.414062zm0 0" fill="#d2c934"/><path d="m93.054688 122.359375.140624.28125zm26.527343-.277344.417969.417969zm0 0" fill="#565a55"/><path d="m46.667969 122.5.414062.417969zm72.914062 0 .417969.417969zm-44.582031.417969.417969.414062zm0 0" fill="#d2c934"/><path d="m47.082031 123.332031.417969.417969zm28.058594.277344.136719.28125zm0 0" fill="#565a55"/><path d="m92.5 123.332031.417969.417969zm0 0" fill="#d2c934"/><path d="m119.167969 123.332031.414062.417969zm0 0" fill="#565a55"/><path d="m47.222656 124.027344.136719.277344zm0 0" fill="#d2c934"/><path d="m92.640625 124.027344.136719.277344zm0 0" fill="#565a55"/><path d="m119.167969 123.75.414062.417969zm-43.613281 1.109375.140624.28125zm0 0" fill="#d2c934"/><path d="m118.890625 124.859375.136719.28125zm-71.390625.140625.417969.417969zm0 0" fill="#565a55"/><path d="m92.082031 125 .417969.417969zm-44.582031.417969.417969.414062zm0 0" fill="#d2c934"/><path d="m75.554688 125.695312.140624.277344zm16.667968 0 .136719.277344zm0 0" fill="#565a55"/><path d="m118.75 125.417969.417969.414062zm0 0" fill="#d2c934"/><path d="m118.472656 126.109375.136719.28125zm-70.417968.417969.140624.277344zm0 0" fill="#565a55"/><path d="m177.5 126.25v.417969h6.25zm15.417969 0 .414062.417969zm-116.945313.695312.136719.277344zm15.695313-.277343.414062.414062zm26.664062 0 .417969.414062zm-70.414062.414062.414062.417969zm0 0" fill="#d2c934"/><path d="m91.804688 127.359375.140624.28125zm-15.832032.417969.136719.277344zm41.945313-.277344.414062.417969zm-69.585938.417969.417969.414062zm0 0" fill="#565a55"/><path d="m117.917969 127.917969.414062.414062zm76.25 0 .414062.414062zm-145.835938.414062.417969.417969zm42.917969 0 .417969.417969zm-15 .417969.417969.417969zm0 0" fill="#d2c934"/><path d="m91.25 128.75.417969.417969zm26.390625.277344.136719.277344zm-41.25.417968.136719.277344zm-27.640625.136719.417969.417969zm0 0" fill="#565a55"/><path d="m90.832031 129.582031.417969.417969zm103.335938 0v1.667969h.414062zm-145.417969.417969.417969.417969zm0 0" fill="#d2c934"/><path d="m90.972656 130.277344.136719.277344zm26.25 0 .136719.277344zm-67.917968.832031.140624.28125zm0 0" fill="#565a55"/><path d="m76.667969 130.832031.414062.417969zm40.414062 0 .417969.417969zm0 0" fill="#d2c934"/><path d="m76.804688 131.527344.140624.277344zm0 0" fill="#565a55"/><path d="m90.417969 131.25.414062.417969zm-41.25.417969.414062.414062zm0 0" fill="#d2c934"/><path d="m90.554688 131.945312.140624.277344zm26.113281-.277343.414062.414062zm0 0" fill="#565a55"/><path d="m116.667969 132.082031.414062.417969zm0 0" fill="#d2c934"/><path d="m49.582031 132.5.417969.417969zm0 0" fill="#565a55"/><path d="m49.582031 132.917969.417969.414062zm27.5 0 .417969.414062zm12.917969 0 .417969.414062zm0 0" fill="#d2c934"/><path d="m116.25 132.917969.417969.414062zm-39.027344.691406.136719.28125zm12.917969 0 .136719.28125zm0 0" fill="#565a55"/><path d="m116.25 133.332031.417969.417969zm19.167969 0v4.585938h.414062zm0 0" fill="#d2c934"/><path d="m50 134.167969.417969.414062zm65.972656.277343.136719.277344zm0 0" fill="#565a55"/><path d="m50 134.582031.417969.417969zm39.582031 0 .417969.417969zm104.167969 0v2.085938h.417969zm-116.25.417969.417969.417969zm0 0" fill="#d2c934"/><path d="m89.722656 135.277344.136719.277344zm0 0" fill="#565a55"/><path d="m115.832031 135 .417969.417969zm0 0" fill="#d2c934"/><path d="m50.554688 135.695312.140624.277344zm27.085937 0 .136719.277344zm37.777344.136719.414062.417969zm0 0" fill="#565a55"/><path d="m50.417969 136.25.414062.417969zm38.75 0 .414062.417969zm26.25 0 .414062.417969zm-37.363281.695312.140624.277344zm0 0" fill="#d2c934"/><path d="m89.167969 136.667969.414062.414062zm-38.335938.414062.417969.417969zm64.167969 0 .417969.417969zm0 0" fill="#565a55"/><path d="m50.832031 137.5.417969.417969zm0 0" fill="#d2c934"/><path d="m78.054688 137.777344.140624.277344zm0 0" fill="#565a55"/><path d="m88.890625 137.777344.136719.277344zm26.109375-.277344.417969.417969zm0 0" fill="#d2c934"/><path d="m88.75 138.332031.417969.417969zm25.972656.277344.136719.28125zm-63.472656.140625.417969.417969zm0 0" fill="#565a55"/><path d="m78.472656 139.027344.136719.277344zm-27.222656.140625.417969.414062zm37.082031 0 .417969.414062zm26.25 0 .417969.414062zm0 0" fill="#d2c934"/><path d="m78.332031 139.582031.417969.417969zm10.140625.277344.136719.28125zm25.832032 0 .140624.28125zm-62.5.417969.140624.277344zm0 0" fill="#565a55"/><path d="m193.332031 140v1.667969h.417969zm-79.164062.417969.414062.414062zm-62.5.414062.414062.417969zm27.082031 0 .417969.417969zm9.167969 0 .414062.417969zm0 0" fill="#d2c934"/><path d="m78.890625 141.527344.136719.277344zm9.164063 0 .140624.277344zm25.695312-.277344.417969.417969zm-61.667969.417969.417969.414062zm0 0" fill="#565a55"/><path d="m113.75 141.667969.417969.414062zm-61.667969.414062.417969.417969zm35.417969.417969.417969.417969zm0 0" fill="#d2c934"/><path d="m113.472656 142.777344.136719.277344zm0 0" fill="#565a55"/><path d="m79.167969 142.917969.414062.414062zm0 0" fill="#d2c934"/><path d="m87.640625 143.195312.136719.277344zm-35.140625.136719.417969.417969zm26.804688.277344.140624.28125zm0 0" fill="#565a55"/><path d="m52.5 143.75.417969.417969zm0 0" fill="#d2c934"/><path d="m113.054688 144.027344.140624.277344zm0 0" fill="#565a55"/><path d="m87.082031 144.167969.417969.414062zm0 0" fill="#d2c934"/><path d="m53.054688 144.859375.140624.28125zm34.027343-.277344.417969.417969zm0 0" fill="#565a55"/><path d="m112.917969 144.582031.414062.417969zm-33.335938.417969.417969.417969zm113.335938 0v1.667969h.414062zm-140 .417969.414062.414062zm0 0" fill="#d2c934"/><path d="m79.722656 145.695312.136719.277344zm32.777344-.277343.417969.414062zm0 0" fill="#565a55"/><path d="m86.667969 145.832031.414062.417969zm25.832031 0 .417969.417969zm0 0" fill="#d2c934"/><path d="m53.332031 146.25.417969.417969zm33.335938 0 .414062.417969zm0 0" fill="#565a55"/><path d="m53.332031 146.667969.417969.414062zm26.808594.277343.136719.277344zm0 0" fill="#d2c934"/><path d="m112.082031 146.667969.417969.414062zm0 0" fill="#565a55"/><path d="m86.25 147.082031.417969.417969zm25.832031 0 .417969.417969zm0 0" fill="#d2c934"/><path d="m80.140625 147.777344.136719.277344zm6.25 0 .136719.277344zm-32.640625.140625.417969.414062zm58.054688.277343.140624.277344zm0 0" fill="#565a55"/><path d="m53.75 148.332031.417969.417969zm26.804688.695313.140624.277344zm5.277343-.277344.417969.417969zm25.835938 0 .414062.417969zm0 0" fill="#d2c934"/><path d="m54.304688 149.445312.140624.277344zm31.667968 0 .136719.277344zm-5.417968.414063.140624.28125zm30.695312-.277344.417969.417969zm0 0" fill="#565a55"/><path d="m54.167969 150 .414062.417969zm57.082031 0 .417969.417969zm81.390625.277344.136719.277344zm-107.222656.140625.414062.414062zm92.5 0v.414062h6.664062zm0 0" fill="#d2c934"/><path d="m54.582031 150.832031.417969.417969zm0 0" fill="#565a55"/><path d="m80.832031 150.832031.417969.417969zm0 0" fill="#d2c934"/><path d="m85.554688 151.109375.140624.28125zm25.277343-.277344.417969.417969zm0 0" fill="#565a55"/><path d="m54.582031 151.25.417969.417969zm0 0" fill="#d2c934"/><path d="m80.972656 151.527344.136719.277344zm0 0" fill="#565a55"/><path d="m110.832031 151.25.417969.417969zm0 0" fill="#d2c934"/><path d="m55.140625 152.359375.136719.28125zm0 0" fill="#565a55"/><path d="m85 152.082031.417969.417969zm0 0" fill="#d2c934"/><path d="m110.554688 152.359375.140624.28125zm0 0" fill="#565a55"/><path d="m135.832031 152.082031v4.585938h.417969zm0 0" fill="#d2c934"/><path d="m85.140625 152.777344.136719.277344zm0 0" fill="#565a55"/><path d="m55 152.917969.417969.414062zm26.25 0 .417969.414062zm29.167969 0 .414062.414062zm0 0" fill="#d2c934"/><path d="m81.390625 153.609375.136719.28125zm28.75 0 .136719.28125zm-54.585937.417969.140624.277344zm0 0" fill="#565a55"/><path d="m84.582031 153.75.417969.417969zm0 0" fill="#d2c934"/><path d="m84.582031 154.167969.417969.414062zm0 0" fill="#565a55"/><path d="m110 154.167969.417969.414062zm-54.582031.414062.414062.417969zm26.25.417969.414062.417969zm2.636719.277344.140624.277344zm0 0" fill="#d2c934"/><path d="m109.582031 155 .417969.417969zm-53.75.417969.417969.414062zm25.972657.277343.140624.277344zm0 0" fill="#565a55"/><path d="m109.582031 155.417969.417969.414062zm54.585938 0v3.332031h.414062zm-108.335938.414062.417969.417969zm0 0" fill="#d2c934"/><path d="m84.167969 155.832031.414062.417969zm25.136719.695313.140624.277344zm-52.914063.417968.136719.277344zm0 0" fill="#565a55"/><path d="m82.082031 156.667969.417969.414062zm1.667969 0 .417969.414062zm-27.5.832031.417969.417969zm0 0" fill="#d2c934"/><path d="m108.890625 157.777344.136719.277344zm-52.085937.832031.140624.28125zm0 0" fill="#565a55"/><path d="m108.75 158.332031.417969.417969zm-52.082031.835938.414062.414062zm0 0" fill="#d2c934"/><path d="m108.332031 159.167969.417969.414062zm0 0" fill="#565a55"/><path d="m108.332031 159.582031.417969.417969zm0 0" fill="#d2c934"/><path d="m57.082031 160 .417969.417969zm0 0" fill="#565a55"/><path d="m57.082031 160.417969.417969.414062zm0 0" fill="#d2c934"/><path d="m107.917969 160.417969.414062.414062zm0 0" fill="#565a55"/><path d="m107.917969 160.832031.414062.417969zm0 0" fill="#d2c934"/><path d="m57.640625 161.527344.136719.277344zm50 .417968.136719.277344zm0 0" fill="#565a55"/><path d="m57.5 162.082031.417969.417969zm50 .417969.417969.417969zm0 0" fill="#d2c934"/><path d="m58.054688 163.195312.140624.277344zm0 0" fill="#565a55"/><path d="m135.417969 162.917969v1.664062h.414062zm0 0" fill="#d2c934"/><path d="m107.082031 163.332031.417969.417969zm0 0" fill="#565a55"/><path d="m57.917969 163.75.414062.417969zm49.164062 0 .417969.417969zm0 0" fill="#d2c934"/><path d="m58.332031 164.582031.417969.417969zm48.335938 0 .414062.417969zm0 0" fill="#565a55"/><path d="m58.332031 165 .417969.417969zm48.335938 0 .414062.417969zm0 0" fill="#d2c934"/><path d="m58.890625 166.109375.136719.28125zm47.5 0 .136719.28125zm0 0" fill="#565a55"/><path d="m58.75 166.667969.417969.414062zm47.5 0 .417969.414062zm0 0" fill="#d2c934"/><path d="m105.972656 167.359375.136719.28125zm-46.667968.417969.140624.277344zm0 0" fill="#565a55"/><path d="m164.582031 167.5v2.917969h.417969zm-58.75.417969.417969.414062zm-46.664062.414062.414062.417969zm0 0" fill="#d2c934"/><path d="m105.417969 168.75.414062.417969zm-45.835938.417969.417969.414062zm0 0" fill="#565a55"/><path d="m105.417969 169.167969.414062.414062zm-45.835938.414062.417969.417969zm0 0" fill="#d2c934"/><path d="m105.140625 170.277344.136719.277344zm-45 .417968.136719.277344zm0 0" fill="#565a55"/><path d="m135 170.417969v1.664062h.417969zm-75 .832031.417969.417969zm0 0" fill="#d2c934"/><path d="m104.722656 171.527344.136719.277344zm-44.167968.832031.140624.28125zm0 0" fill="#565a55"/><path d="m104.582031 172.082031.417969.417969zm-44.164062.835938.414062.414062zm0 0" fill="#d2c934"/><path d="m104.167969 172.917969.414062.414062zm0 0" fill="#565a55"/><path d="m104.167969 173.332031.414062.417969zm0 0" fill="#d2c934"/><path d="m60.832031 173.75.417969.417969zm0 0" fill="#565a55"/><path d="m60.832031 174.167969.417969.414062zm0 0" fill="#d2c934"/><path d="m103.75 174.167969.417969.414062zm0 0" fill="#565a55"/><path d="m103.75 174.582031.417969.417969zm0 0" fill="#d2c934"/><path d="m61.390625 175.277344.136719.277344zm42.082031.417968.136719.277344zm0 0" fill="#565a55"/><path d="m61.25 175.832031.417969.417969zm42.082031.417969.417969.417969zm0 0" fill="#d2c934"/><path d="m61.804688 176.945312.140624.277344zm41.113281.136719.414062.417969zm0 0" fill="#565a55"/><path d="m61.667969 177.5.414062.417969zm41.25 0 .414062.417969zm0 0" fill="#d2c934"/><path d="m62.082031 178.332031.417969.417969zm40.417969 0 .417969.417969zm0 0" fill="#565a55"/><path d="m134.582031 178.332031v1.667969h.417969zm-72.5.417969.417969.417969zm40.417969 0 .417969.417969zm62.5.417969v3.332031h.417969zm0 0" fill="#d2c934"/><path d="m62.640625 179.859375.136719.28125zm39.582031 0 .136719.28125zm0 0" fill="#565a55"/><path d="m62.5 180.417969.417969.414062zm39.582031 0 .417969.414062zm0 0" fill="#d2c934"/><path d="m101.804688 181.109375.140624.28125zm-38.886719.140625.414062.417969zm0 0" fill="#565a55"/><path d="m63.054688 181.945312.140624.277344zm38.613281-.277343.414062.414062zm0 0" fill="#d2c934"/><path d="m101.25 182.5.417969.417969zm-37.917969.417969.417969.414062zm0 0" fill="#565a55"/><path d="m101.25 182.917969.417969.414062zm-37.917969.414062.417969.417969zm0 0" fill="#d2c934"/><path d="m100.832031 183.75-12.5.417969h-24.582031v.414062h25l12.5-.414062zm0 0" fill="#565a55"/><path d="m100.832031 184.167969.417969.414062zm33.75.414062v.417969h30.417969l-9.582031-.417969zm0 0" fill="#d2c934"/></svg>