<?xml version="1.0" standalone="yes"?>
<svg xmlns="http://www.w3.org/2000/svg" width="600" height="600">
<path style="fill:#ffffff; stroke:none;" d="M0 0L0 600L600 600L600 0L0 0z"/>
<path style="fill:#565a55; stroke:none;" d="M360 112L361 113L360 112z"/>
<path style="fill:#1f1b1d; stroke:none;" d="M361 112L355 130C344.701 124.202 335.864 126.758 325 129L318 116C317.852 133.853 304.236 173.92 332 174C332.344 182.002 331.181 193.437 333.653 200.981C334.741 204.3 340.057 208.428 342.397 203.682C344.356 199.708 342.945 193.429 344 189L346 189C348.107 197.851 344.251 205.894 356 206C355.911 201.679 353.623 195.234 356.028 191.34C360.46 184.164 383.617 183.64 389.682 188.738C393.951 192.327 389.166 203.757 396.004 204.534C401.707 205.182 400.856 194.079 404 191C404 193.389 406.618 212.317 411.397 202.681C414.499 196.426 409.954 186.008 408 180C425.225 180.943 422.165 205.902 420.576 218C420.123 221.449 420.519 225.791 418.821 228.907C416.614 232.956 411.991 234.387 408 236L406 229C397.959 229.264 396.133 240.517 404.058 242.682C432.508 250.454 428.262 217.114 427.09 200C426.558 192.237 428.644 181.278 421.61 175.603C416.73 171.667 410.313 175.837 405 174.948C395.728 173.395 390.571 166.879 380 167.004C376.118 167.05 365.381 170.683 362.982 166.667C361.273 163.807 363.955 157.343 363.996 154C364.124 143.6 366.824 120.524 361 112z"/>
<path style="fill:#565a55; stroke:none;" d="M362 113L363 114L362 113z"/>
<path style="fill:#d2c934; stroke:none;" d="M359 114L360 115L359 114z"/>
<path style="fill:#565a55; stroke:none;" d="M359 115L360 116L359 115M319 116L320 117L319 116M320 117L321 118L320 117z"/>
<path style="fill:#d2c934; stroke:none;" d="M358 117L359 118L358 117M317.333 118.667L317.667 119.333L317.333 118.667z"/>
<path style="fill:#565a55; stroke:none;" d="M358 118L359 119L358 118M321 119L322 120L321 119M317 120L317 124L318 124L317 120z"/>
<path style="fill:#d2c934; stroke:none;" d="M322 120L323 121L322 120z"/>
<path style="fill:#565a55; stroke:none;" d="M357 120L358 121L357 120M322 121L323 122L322 121z"/>
<path style="fill:#d2c934; stroke:none;" d="M356 122L357 123L356 122z"/>
<path style="fill:#565a55; stroke:none;" d="M323.333 123.667L323.667 124.333L323.333 123.667M356 123L357 124L356 123z"/>
<path style="fill:#d2c934; stroke:none;" d="M355 125L356 126L355 125M363 125L363 129L364 129L363 125z"/>
<path style="fill:#565a55; stroke:none;" d="M324 126L325 127L324 126z"/>
<path style="fill:#d2c934; stroke:none;" d="M333 126L334 127L333 126z"/>
<path style="fill:#565a55; stroke:none;" d="M334.667 126.333L335.333 126.667L334.667 126.333M346.667 126.333L347.333 126.667L346.667 126.333M355 126L356 127L355 126z"/>
<path style="fill:#d2c934; stroke:none;" d="M329 127L330 128L329 127z"/>
<path style="fill:#565a55; stroke:none;" d="M330.667 127.333L331.333 127.667L330.667 127.333M350 127L351 128L350 127z"/>
<path style="fill:#d2c934; stroke:none;" d="M325.667 128.333L326.333 128.667L325.667 128.333z"/>
<path style="fill:#565a55; stroke:none;" d="M327 128L328 129L327 128M352 128L353 129L352 128z"/>
<path style="fill:#d2c934; stroke:none;" d="M354 128L355 129L354 128M316 129L316 132L317 132L316 129z"/>
<path style="fill:#565a55; stroke:none;" d="M354 129L355 130L354 129M363 129L363 138L364 138L363 129M316 132L316 139L317 139L316 132z"/>
<path style="fill:#d2c934; stroke:none;" d="M334.025 141.89C328.228 143.359 328.129 153.748 334.91 152.458C340.447 151.403 340.086 140.355 334.025 141.89z"/>
<path style="fill:#565a55; stroke:none;" d="M337 141L338 142L337 141M349 141L350 142L349 141z"/>
<path style="fill:#ffffff; stroke:none;" d="M350 141L350 143L352 143L350 141z"/>
<path style="fill:#565a55; stroke:none;" d="M351 141L352 142L351 141M338 142L339 143L338 142z"/>
<path style="fill:#d2c934; stroke:none;" d="M348 142C343.544 151.328 352.734 154.353 355 144L348 142z"/>
<path style="fill:#565a55; stroke:none;" d="M352 142L353 143L352 142z"/>
<path style="fill:#d2c934; stroke:none;" d="M315.333 143.667L315.667 144.333L315.333 143.667z"/>
<path style="fill:#565a55; stroke:none;" d="M346 144L347 145L346 144z"/>
<path style="fill:#d2c934; stroke:none;" d="M364 144L364 148L365 148L364 144z"/>
<path style="fill:#565a55; stroke:none;" d="M315 145L315 149L316 149L315 145M329 145L330 146L329 145z"/>
<path style="fill:#ffffff; stroke:none;" d="M350.333 145.667L350.667 146.333L350.333 145.667z"/>
<path style="fill:#565a55; stroke:none;" d="M354.333 146.667L354.667 147.333L354.333 146.667M364 148L364 157L365 157L364 148M329 149L330 150L329 149M338 150L339 151L338 150z"/>
<path style="fill:#d2c934; stroke:none;" d="M314 151L314 164L315 164L314 151z"/>
<path style="fill:#565a55; stroke:none;" d="M331 152L332 153L331 152M336 152L337 153L336 152z"/>
<path style="fill:#d2c934; stroke:none;" d="M364.333 157.667L364.667 158.333L364.333 157.667z"/>
<path style="fill:#565a55; stroke:none;" d="M363 160L364 161L363 160z"/>
<path style="fill:#d2c934; stroke:none;" d="M363 161L364 162L363 161z"/>
<path style="fill:#565a55; stroke:none;" d="M362 163L363 164L362 163M315.333 165.667L315.667 166.333L315.333 165.667M361 165L362 166L361 165z"/>
<path style="fill:#d2c934; stroke:none;" d="M361 166L362 167L361 166M377 166L378 167L377 166z"/>
<path style="fill:#565a55; stroke:none;" d="M378 166L378 167L383 167L378 166z"/>
<path style="fill:#d2c934; stroke:none;" d="M383 166L383 167L389 167L383 166M362 167L363 168L362 167M371 167L372 168L371 167z"/>
<path style="fill:#565a55; stroke:none;" d="M372.667 167.333L373.333 167.667L372.667 167.333M390 167L391 168L390 167z"/>
<path style="fill:#d2c934; stroke:none;" d="M391 167L392 168L391 167M316 168L317 169L316 168M366 168L367 169L366 168z"/>
<path style="fill:#565a55; stroke:none;" d="M367 168L368 169L367 168M393 168L394 169L393 168z"/>
<path style="fill:#d2c934; stroke:none;" d="M317 169L318 170L317 169M395 169L396 170L395 169M318 170L319 171L318 170M397 170L398 171L397 170M319 171L320 172L319 171z"/>
<path style="fill:#565a55; stroke:none;" d="M398 171L399 172L398 171M321 172L322 173L321 172M323 173L324 174L323 173z"/>
<path style="fill:#d2c934; stroke:none;" d="M401 173L402 174L401 173z"/>
<path style="fill:#565a55; stroke:none;" d="M414 173L414 174L419 174L414 173z"/>
<path style="fill:#d2c934; stroke:none;" d="M419 173L420 174L419 173M326 174L326 175L331 175L326 174z"/>
<path style="fill:#565a55; stroke:none;" d="M331 174L332 175L331 174z"/>
<path style="fill:#d2c934; stroke:none;" d="M402 174L403 175L402 174M407 174L408 175L407 174z"/>
<path style="fill:#565a55; stroke:none;" d="M408.667 174.333L409.333 174.667L408.667 174.333z"/>
<path style="fill:#d2c934; stroke:none;" d="M421 174L422 175L421 174z"/>
<path style="fill:#565a55; stroke:none;" d="M403 175L404 176L403 175M405 175L406 176L405 175z"/>
<path style="fill:#d2c934; stroke:none;" d="M422 175L423 176L422 175z"/>
<path style="fill:#565a55; stroke:none;" d="M423 177L424 178L423 177z"/>
<path style="fill:#d2c934; stroke:none;" d="M424 178L425 179L424 178z"/>
<path style="fill:#565a55; stroke:none;" d="M332 179L332 188L333 188L332 179M424 179L425 180L424 179z"/>
<path style="fill:#d2c934; stroke:none;" d="M408 180L409 181L408 180z"/>
<path style="fill:#ffffff; stroke:none;" d="M409 180L413 204L421 204C420.999 192.973 420.981 183.144 409 180z"/>
<path style="fill:#d2c934; stroke:none;" d="M410 180L410 181L413 181L410 180z"/>
<path style="fill:#565a55; stroke:none;" d="M413 180L414 181L413 180z"/>
<path style="fill:#d2c934; stroke:none;" d="M425 180L426 181L425 180z"/>
<path style="fill:#565a55; stroke:none;" d="M408 181L409 182L408 181z"/>
<path style="fill:#d2c934; stroke:none;" d="M415 181L416 182L415 181z"/>
<path style="fill:#565a55; stroke:none;" d="M425 181L426 182L425 181M409.333 183.667L409.667 184.333L409.333 183.667M426.333 183.667L426.667 184.333L426.333 183.667M418 184L419 185L418 184z"/>
<path style="fill:#d2c934; stroke:none;" d="M418 185L419 186L418 185z"/>
<path style="fill:#565a55; stroke:none;" d="M368.667 186.333L369.333 186.667L368.667 186.333z"/>
<path style="fill:#d2c934; stroke:none;" d="M370 186L370 187L375 187L370 186z"/>
<path style="fill:#ffffff; stroke:none;" d="M356 204L392 204L391 188C382.799 187.352 361.617 182.58 356.032 191.394C353.976 194.639 355.925 200.345 356 204z"/>
<path style="fill:#d2c934; stroke:none;" d="M380.667 186.333L381.333 186.667L380.667 186.333z"/>
<path style="fill:#565a55; stroke:none;" d="M382.667 186.333L383.333 186.667L382.667 186.333z"/>
<path style="fill:#d2c934; stroke:none;" d="M410 186L411 187L410 186z"/>
<path style="fill:#565a55; stroke:none;" d="M419 186L420 187L419 186z"/>
<path style="fill:#d2c934; stroke:none;" d="M427.333 186.667L427.667 187.333L427.333 186.667z"/>
<path style="fill:#565a55; stroke:none;" d="M361.667 187.333L362.333 187.667L361.667 187.333z"/>
<path style="fill:#d2c934; stroke:none;" d="M363 187L363 188L366 188L363 187M386 187L387 188L386 187z"/>
<path style="fill:#565a55; stroke:none;" d="M387.667 187.333L388.333 187.667L387.667 187.333M410 187L411 188L410 187z"/>
<path style="fill:#d2c934; stroke:none;" d="M419 187L420 188L419 187M332 188L332 197L333 197L332 188z"/>
<path style="fill:#565a55; stroke:none;" d="M358 188L359 189L358 188z"/>
<path style="fill:#d2c934; stroke:none;" d="M359 188L360 189L359 188z"/>
<path style="fill:#565a55; stroke:none;" d="M427 188L427 204L428 204L427 188M344 189L343 202L344 202L344 190L346 190L346 198L347 198L346 189L344 189z"/>
<path style="fill:#d2c934; stroke:none;" d="M357 189L358 190L357 189z"/>
<path style="fill:#565a55; stroke:none;" d="M391.333 189.667L391.667 190.333L391.333 189.667z"/>
<path style="fill:#ffffff; stroke:none;" d="M344 190L343 204L347 204L346 190L344 190z"/>
<path style="fill:#565a55; stroke:none;" d="M355 190L356 191L355 190z"/>
<path style="fill:#d2c934; stroke:none;" d="M411 190L412 191L411 190z"/>
<path style="fill:#565a55; stroke:none;" d="M420 190L420 193L421 193L420 190z"/>
<path style="fill:#d2c934; stroke:none;" d="M391 191L391 194L392 194L391 191z"/>
<path style="fill:#565a55; stroke:none;" d="M402.667 191.333L403.333 191.667L402.667 191.333M411.333 191.667L411.667 192.333L411.333 191.667z"/>
<path style="fill:#ffffff; stroke:none;" d="M401 192L400 204L404 204L404 192L401 192z"/>
<path style="fill:#d2c934; stroke:none;" d="M420 193L421 194L420 193M412.333 196.667L412.667 197.333L412.333 196.667M355 197L356 198L355 197M346 198L346 203L347 203L346 198z"/>
<path style="fill:#565a55; stroke:none;" d="M355.333 198.667L355.667 199.333L355.333 198.667M412 198L412 203L413 203L412 198M421 199L421 204L422 204L421 199M333 201L334 202L333 201M400 201L401 202L400 201z"/>
<path style="fill:#d2c934; stroke:none;" d="M333 202L334 203L333 202M343 202L344 203L343 202M400 202L401 203L400 202z"/>
<path style="fill:#565a55; stroke:none;" d="M334 203L335 204L334 203M392 203L394 205L392 203M404 203L406 205L404 203z"/>
<path style="fill:#d2c934; stroke:none;" d="M412 203L413 204L412 203z"/>
<path style="fill:#565a55; stroke:none;" d="M88 206C110.845 200.561 139.507 205 163 205C157.784 202.811 150.619 204 145 204L106 204C101.099 204 91.4072 202.101 88 206M242 206C264.254 200.702 292.116 205 315 205C309.784 202.811 302.619 204 297 204L260 204C255.099 204 245.407 202.101 242 206z"/>
<path style="fill:#24b54c; stroke:none;" d="M323 204L326.946 371L323 443L397 443L394 361C408.9 361 424.137 360.072 439 361.09C444.958 361.497 454.971 364.236 460.566 361.397C464.222 359.541 462.979 352.392 463.424 349C464.849 338.147 465.525 326.932 466.039 316C466.245 311.6 467.569 306.666 462.891 304.028C456.726 300.551 444.716 303.191 438 303.83C423.9 305.172 409.164 304 395 304L396 261L481 263C484.244 249.373 484.11 233.97 485.09 220C485.43 215.141 487.553 209.118 482.852 205.603C478.907 202.654 471.644 204 467 204L428 204C428 213.331 430.989 228.988 425.297 236.945C415.889 250.098 399.01 243.892 399 229C403.725 229.154 406.215 230.077 407 235C423.224 234.157 421 216.2 421 204L356 204L356 207L323 204z"/>
<path style="fill:#565a55; stroke:none;" d="M411 204L412 205L411 204z"/>
<path style="fill:#d2c934; stroke:none;" d="M482 204L483 205L482 204z"/>
<path style="fill:#1f1b1d; stroke:none;" d="M89 205L106.576 271L153 442L217 442L241.487 440.972L247.859 424L261.424 379L314 205L263 205C258.25 205 247.495 203 243.6 206.028C241.134 207.944 241.215 213.179 240.754 216C239.338 224.662 238.039 233.342 236.586 242C231.211 274.044 220.253 305.49 212.373 337C209.954 346.677 207.454 356.37 204.849 366C204.106 368.744 203.449 374.38 200.614 375.824C196.597 377.87 195.66 370.246 195.199 368C193.078 357.668 190.983 347.318 188.789 337C179.499 293.309 168.634 249.349 163 205L89 205z"/>
<path style="fill:#d2c934; stroke:none;" d="M163.333 205.667L163.667 206.333L163.333 205.667M314 205L315 206L314 205z"/>
<path style="fill:#565a55; stroke:none;" d="M342 205L343 206L342 205M348 205L349 206L348 205z"/>
<path style="fill:#d2c934; stroke:none;" d="M483 205L484 206L483 205M88 206L89 207L88 206z"/>
<path style="fill:#565a55; stroke:none;" d="M339 206L339 207L342 207L339 206M352 206L352 207L356 207L352 206M163.333 207.667L163.667 208.333L163.333 207.667M313 207L314 208L313 207M89.3333 208.667L89.6667 209.333L89.3333 208.667z"/>
<path style="fill:#d2c934; stroke:none;" d="M241.333 208.667L241.667 209.333L241.333 208.667M313 208L314 209L313 208M486 209L487 210L486 209M89 210L90 211L89 210z"/>
<path style="fill:#565a55; stroke:none;" d="M241.333 210.667L241.667 211.333L241.333 210.667M312 210L313 211L312 210z"/>
<path style="fill:#d2c934; stroke:none;" d="M164.333 211.667L164.667 212.333L164.333 211.667M312 211L313 212L312 211z"/>
<path style="fill:#565a55; stroke:none;" d="M90 212L91 213L90 212z"/>
<path style="fill:#d2c934; stroke:none;" d="M90 213L91 214L90 213z"/>
<path style="fill:#565a55; stroke:none;" d="M164.333 213.667L164.667 214.333L164.333 213.667M311.333 213.667L311.667 214.333L311.333 213.667z"/>
<path style="fill:#d2c934; stroke:none;" d="M240.333 214.667L240.667 215.333L240.333 214.667z"/>
<path style="fill:#565a55; stroke:none;" d="M91.3333 215.667L91.6667 216.333L91.3333 215.667z"/>
<path style="fill:#d2c934; stroke:none;" d="M311 215L312 216L311 215z"/>
<path style="fill:#565a55; stroke:none;" d="M240.333 216.667L240.667 217.333L240.333 216.667z"/>
<path style="fill:#d2c934; stroke:none;" d="M485 216L485 221L486 221L485 216M91 217L92 218L91 217M165.333 217.667L165.667 218.333L165.333 217.667z"/>
<path style="fill:#565a55; stroke:none;" d="M310 217L311 218L310 217M420.333 217.667L420.667 218.333L420.333 217.667z"/>
<path style="fill:#d2c934; stroke:none;" d="M310 218L311 219L310 218z"/>
<path style="fill:#565a55; stroke:none;" d="M92.3333 219.667L92.6667 220.333L92.3333 219.667M165.333 219.667L165.667 220.333L165.333 219.667z"/>
<path style="fill:#d2c934; stroke:none;" d="M239.333 220.667L239.667 221.333L239.333 220.667z"/>
<path style="fill:#565a55; stroke:none;" d="M309 220L310 221L309 220z"/>
<path style="fill:#d2c934; stroke:none;" d="M92 221L93 222L92 221M309 221L310 222L309 221z"/>
<path style="fill:#565a55; stroke:none;" d="M239 222L239 225L240 225L239 222M93 223L94 224L93 223z"/>
<path style="fill:#d2c934; stroke:none;" d="M166.333 223.667L166.667 224.333L166.333 223.667z"/>
<path style="fill:#565a55; stroke:none;" d="M308.333 223.667L308.667 224.333L308.333 223.667z"/>
<path style="fill:#d2c934; stroke:none;" d="M93 224L94 225L93 224z"/>
<path style="fill:#565a55; stroke:none;" d="M166.333 225.667L166.667 226.333L166.333 225.667z"/>
<path style="fill:#d2c934; stroke:none;" d="M308 225L309 226L308 225z"/>
<path style="fill:#565a55; stroke:none;" d="M94.3333 226.667L94.6667 227.333L94.3333 226.667z"/>
<path style="fill:#d2c934; stroke:none;" d="M238 227L239 228L238 227z"/>
<path style="fill:#565a55; stroke:none;" d="M307 227L308 228L307 227z"/>
<path style="fill:#d2c934; stroke:none;" d="M94 228L95 229L94 228z"/>
<path style="fill:#565a55; stroke:none;" d="M238 228L238 231L239 231L238 228z"/>
<path style="fill:#d2c934; stroke:none;" d="M307 228L308 229L307 228M484 228L484 233L485 233L484 228M167.333 229.667L167.667 230.333L167.333 229.667z"/>
<path style="fill:#565a55; stroke:none;" d="M399 229L400 230L399 229M95.3333 230.667L95.6667 231.333L95.3333 230.667M306 230L307 231L306 230M406.333 230.667L406.667 231.333L406.333 230.667M418 230L419 231L418 230M167.333 231.667L167.667 232.333L167.333 231.667z"/>
<path style="fill:#d2c934; stroke:none;" d="M306 231L307 232L306 231z"/>
<path style="fill:#565a55; stroke:none;" d="M417 231L418 232L417 231M427.333 231.667L427.667 232.333L427.333 231.667z"/>
<path style="fill:#d2c934; stroke:none;" d="M95 232L96 233L95 232M323 232L323 242L324 242L323 232M237.333 233.667L237.667 234.333L237.333 233.667z"/>
<path style="fill:#565a55; stroke:none;" d="M305.333 233.667L305.667 234.333L305.333 233.667M414 233L415 234L414 233M96 234L97 235L96 234M412 234L413 235L412 234z"/>
<path style="fill:#d2c934; stroke:none;" d="M96 235L97 236L96 235M168.333 235.667L168.667 236.333L168.333 235.667z"/>
<path style="fill:#565a55; stroke:none;" d="M237.333 235.667L237.667 236.333L237.333 235.667z"/>
<path style="fill:#d2c934; stroke:none;" d="M305 235L306 236L305 235z"/>
<path style="fill:#565a55; stroke:none;" d="M408 235L409 236L408 235M426 235L427 236L426 235M304.333 236.667L304.667 237.333L304.333 236.667M97.3333 237.667L97.6667 238.333L97.3333 237.667M168.333 237.667L168.667 238.333L168.333 237.667M399.333 237.667L399.667 238.333L399.333 237.667M425 237L426 238L425 237z"/>
<path style="fill:#d2c934; stroke:none;" d="M304 238L305 239L304 238M97 239L98 240L97 239M236.333 239.667L236.667 240.333L236.333 239.667M483 239L483 244L484 244L483 239z"/>
<path style="fill:#565a55; stroke:none;" d="M303 240L304 241L303 240M422 240L423 241L422 240M98.3333 241.667L98.6667 242.333L98.3333 241.667z"/>
<path style="fill:#d2c934; stroke:none;" d="M169.333 241.667L169.667 242.333L169.333 241.667z"/>
<path style="fill:#565a55; stroke:none;" d="M236.333 241.667L236.667 242.333L236.333 241.667z"/>
<path style="fill:#d2c934; stroke:none;" d="M303 241L304 242L303 241z"/>
<path style="fill:#565a55; stroke:none;" d="M419 241L420 242L419 241M416 242L417 243L416 242z"/>
<path style="fill:#d2c934; stroke:none;" d="M98 243L99 244L98 243z"/>
<path style="fill:#565a55; stroke:none;" d="M169.333 243.667L169.667 244.333L169.333 243.667M302 243L303 244L302 243M405 243L405 244L413 244L405 243z"/>
<path style="fill:#d2c934; stroke:none;" d="M302 244L303 245L302 244z"/>
<path style="fill:#565a55; stroke:none;" d="M99 245L100 246L99 245z"/>
<path style="fill:#d2c934; stroke:none;" d="M235.333 245.667L235.667 246.333L235.333 245.667M99 246L100 247L99 246z"/>
<path style="fill:#565a55; stroke:none;" d="M301.333 246.667L301.667 247.333L301.333 246.667z"/>
<path style="fill:#d2c934; stroke:none;" d="M170 247L171 248L170 247z"/>
<path style="fill:#565a55; stroke:none;" d="M235.333 247.667L235.667 248.333L235.333 247.667M100.333 248.667L100.667 249.333L100.333 248.667M170.333 248.667L170.667 249.333L170.333 248.667z"/>
<path style="fill:#d2c934; stroke:none;" d="M301 248L302 249L301 248M100 250L101 251L100 250M234 250L235 251L234 250z"/>
<path style="fill:#565a55; stroke:none;" d="M300 250L301 251L300 250z"/>
<path style="fill:#d2c934; stroke:none;" d="M482 250L482 255L483 255L482 250M171.333 251.667L171.667 252.333L171.333 251.667z"/>
<path style="fill:#565a55; stroke:none;" d="M234.333 251.667L234.667 252.333L234.333 251.667z"/>
<path style="fill:#d2c934; stroke:none;" d="M300 251L301 252L300 251z"/>
<path style="fill:#565a55; stroke:none;" d="M101.333 252.667L101.667 253.333L101.333 252.667M171.333 253.667L171.667 254.333L171.333 253.667M299 253L300 254L299 253z"/>
<path style="fill:#d2c934; stroke:none;" d="M101 254L102 255L101 254M233 254L234 255L233 254M299 254L300 255L299 254z"/>
<path style="fill:#565a55; stroke:none;" d="M233.333 255.667L233.667 256.333L233.333 255.667M102 256L103 257L102 256z"/>
<path style="fill:#d2c934; stroke:none;" d="M172 256L173 257L172 256z"/>
<path style="fill:#565a55; stroke:none;" d="M298.333 256.667L298.667 257.333L298.333 256.667z"/>
<path style="fill:#d2c934; stroke:none;" d="M102 257L103 258L102 257z"/>
<path style="fill:#565a55; stroke:none;" d="M172.333 257.667L172.667 258.333L172.333 257.667z"/>
<path style="fill:#d2c934; stroke:none;" d="M232 258L233 259L232 258M298 258L299 259L298 258z"/>
<path style="fill:#565a55; stroke:none;" d="M103.333 259.667L103.667 260.333L103.333 259.667M232.333 259.667L232.667 260.333L232.333 259.667M297 260L298 261L297 260z"/>
<path style="fill:#d2c934; stroke:none;" d="M103 261L104 262L103 261M173 261L174 262L173 261M297 261L298 262L297 261M438 261L438 262L448 262L438 261M481.333 261.667L481.667 262.333L481.333 261.667z"/>
<path style="fill:#565a55; stroke:none;" d="M173.333 262.667L173.667 263.333L173.333 262.667z"/>
<path style="fill:#d2c934; stroke:none;" d="M231 262L232 263L231 262M465 262L465 263L478 263L465 262z"/>
<path style="fill:#565a55; stroke:none;" d="M104.333 263.667L104.667 264.333L104.333 263.667M231.333 263.667L231.667 264.333L231.333 263.667M296 263L297 264L296 263z"/>
<path style="fill:#d2c934; stroke:none;" d="M296 264L297 265L296 264M104 265L105 266L104 265M174 266L175 267L174 266M230 266L231 267L230 266z"/>
<path style="fill:#565a55; stroke:none;" d="M295.333 266.667L295.667 267.333L295.333 266.667M105 267L106 268L105 267M174.333 267.667L174.667 268.333L174.333 267.667M230 267L231 268L230 267z"/>
<path style="fill:#d2c934; stroke:none;" d="M105 268L106 269L105 268M295 268L296 269L295 268M229.333 269.667L229.667 270.333L229.333 269.667z"/>
<path style="fill:#565a55; stroke:none;" d="M294.333 269.667L294.667 270.333L294.333 269.667M106.333 270.667L106.667 271.333L106.333 270.667z"/>
<path style="fill:#d2c934; stroke:none;" d="M175 271L176 272L175 271z"/>
<path style="fill:#565a55; stroke:none;" d="M229 271L230 272L229 271z"/>
<path style="fill:#d2c934; stroke:none;" d="M294 271L295 272L294 271M106 272L107 273L106 272z"/>
<path style="fill:#565a55; stroke:none;" d="M175.333 272.667L175.667 273.333L175.333 272.667z"/>
<path style="fill:#d2c934; stroke:none;" d="M228 273L229 274L228 273z"/>
<path style="fill:#565a55; stroke:none;" d="M293 273L294 274L293 273M107.333 274.667L107.667 275.333L107.333 274.667M228.333 274.667L228.667 275.333L228.333 274.667z"/>
<path style="fill:#d2c934; stroke:none;" d="M293 274L294 275L293 274M176.333 275.667L176.667 276.333L176.333 275.667M107 276L108 277L107 276z"/>
<path style="fill:#565a55; stroke:none;" d="M292.333 276.667L292.667 277.333L292.333 276.667z"/>
<path style="fill:#d2c934; stroke:none;" d="M324 276L324 287L325 287L324 276z"/>
<path style="fill:#565a55; stroke:none;" d="M176.333 277.667L176.667 278.333L176.333 277.667z"/>
<path style="fill:#d2c934; stroke:none;" d="M227 277L228 278L227 277z"/>
<path style="fill:#565a55; stroke:none;" d="M108 278L109 279L108 278M227.333 278.667L227.667 279.333L227.333 278.667z"/>
<path style="fill:#d2c934; stroke:none;" d="M108 279L109 280L108 279z"/>
<path style="fill:#565a55; stroke:none;" d="M291.333 279.667L291.667 280.333L291.333 279.667z"/>
<path style="fill:#d2c934; stroke:none;" d="M177.333 280.667L177.667 281.333L177.333 280.667z"/>
<path style="fill:#565a55; stroke:none;" d="M109.333 281.667L109.667 282.333L109.333 281.667z"/>
<path style="fill:#d2c934; stroke:none;" d="M226 281L227 282L226 281M291 281L292 282L291 281z"/>
<path style="fill:#565a55; stroke:none;" d="M177 282L178 283L177 282M226.333 282.667L226.667 283.333L226.333 282.667z"/>
<path style="fill:#d2c934; stroke:none;" d="M109 283L110 284L109 283z"/>
<path style="fill:#565a55; stroke:none;" d="M290 283L291 284L290 283z"/>
<path style="fill:#d2c934; stroke:none;" d="M290 284L291 285L290 284z"/>
<path style="fill:#565a55; stroke:none;" d="M110 285L111 286L110 285z"/>
<path style="fill:#d2c934; stroke:none;" d="M178 285L179 286L178 285M225 285L226 286L225 285M110.333 286.667L110.667 287.333L110.333 286.667z"/>
<path style="fill:#565a55; stroke:none;" d="M178.333 286.667L178.667 287.333L178.333 286.667M225 286L226 287L225 286M289 286L290 287L289 286z"/>
<path style="fill:#d2c934; stroke:none;" d="M289 287L290 288L289 287M395 287L395 297L396 297L395 287z"/>
<path style="fill:#565a55; stroke:none;" d="M111 289L112 290L111 289z"/>
<path style="fill:#d2c934; stroke:none;" d="M224 289L225 290L224 289z"/>
<path style="fill:#565a55; stroke:none;" d="M288.333 289.667L288.667 290.333L288.333 289.667z"/>
<path style="fill:#d2c934; stroke:none;" d="M111 290L112 291L111 290M179 290L180 291L179 290z"/>
<path style="fill:#565a55; stroke:none;" d="M224 290L225 291L224 290M179.333 291.667L179.667 292.333L179.333 291.667z"/>
<path style="fill:#d2c934; stroke:none;" d="M288 291L289 292L288 291z"/>
<path style="fill:#565a55; stroke:none;" d="M112.333 292.667L112.667 293.333L112.333 292.667z"/>
<path style="fill:#d2c934; stroke:none;" d="M223 292L224 293L223 292z"/>
<path style="fill:#565a55; stroke:none;" d="M223.333 293.667L223.667 294.333L223.333 293.667M287 293L288 294L287 293z"/>
<path style="fill:#d2c934; stroke:none;" d="M112 294L113 295L112 294M287 294L288 295L287 294M180 295L181 296L180 295z"/>
<path style="fill:#565a55; stroke:none;" d="M113 296L114 297L113 296M180.333 296.667L180.667 297.333L180.333 296.667z"/>
<path style="fill:#d2c934; stroke:none;" d="M222 296L223 297L222 296z"/>
<path style="fill:#565a55; stroke:none;" d="M286 296L287 297L286 296z"/>
<path style="fill:#d2c934; stroke:none;" d="M113.333 297.667L113.667 298.333L113.333 297.667z"/>
<path style="fill:#565a55; stroke:none;" d="M222.333 297.667L222.667 298.333L222.333 297.667z"/>
<path style="fill:#d2c934; stroke:none;" d="M286 297L287 298L286 297M181.333 299.667L181.667 300.333L181.333 299.667z"/>
<path style="fill:#565a55; stroke:none;" d="M285.333 299.667L285.667 300.333L285.333 299.667M114 300L115 301L114 300z"/>
<path style="fill:#d2c934; stroke:none;" d="M221 300L222 301L221 300M114 301L115 302L114 301z"/>
<path style="fill:#565a55; stroke:none;" d="M181.333 301.667L181.667 302.333L181.333 301.667M221.333 301.667L221.667 302.333L221.333 301.667z"/>
<path style="fill:#d2c934; stroke:none;" d="M285 301L286 302L285 301z"/>
<path style="fill:#565a55; stroke:none;" d="M284.333 302.667L284.667 303.333L284.333 302.667M115.333 303.667L115.667 304.333L115.333 303.667z"/>
<path style="fill:#d2c934; stroke:none;" d="M426 303L426 304L441 304L426 303M463 303L464 304L463 303M182.333 304.667L182.667 305.333L182.333 304.667M220 304L221 305L220 304M284 304L285 305L284 304M115 305L116 306L115 305z"/>
<path style="fill:#565a55; stroke:none;" d="M220.333 305.667L220.667 306.333L220.333 305.667M182.333 306.667L182.667 307.333L182.333 306.667M283 306L284 307L283 306M116 307L117 308L116 307z"/>
<path style="fill:#d2c934; stroke:none;" d="M283 307L284 308L283 307M466 307L467 308L466 307M116 308L117 309L116 308M219 308L220 309L219 308M183 309L184 310L183 309z"/>
<path style="fill:#565a55; stroke:none;" d="M219 309L220 310L219 309M282.333 309.667L282.667 310.333L282.333 309.667M183.333 310.667L183.667 311.333L183.333 310.667M117 311L118 312L117 311z"/>
<path style="fill:#d2c934; stroke:none;" d="M218 311L219 312L218 311M466 311L466 315L467 315L466 311M117 312L118 313L117 312z"/>
<path style="fill:#565a55; stroke:none;" d="M218.333 312.667L218.667 313.333L218.333 312.667M281.333 312.667L281.667 313.333L281.333 312.667M118.333 314.667L118.667 315.333L118.333 314.667z"/>
<path style="fill:#d2c934; stroke:none;" d="M184 314L185 315L184 314M281 314L282 315L281 314z"/>
<path style="fill:#565a55; stroke:none;" d="M184.333 315.667L184.667 316.333L184.333 315.667z"/>
<path style="fill:#d2c934; stroke:none;" d="M217 315L218 316L217 315M118 316L119 317L118 316z"/>
<path style="fill:#565a55; stroke:none;" d="M217.333 316.667L217.667 317.333L217.333 316.667M280 316L281 317L280 316z"/>
<path style="fill:#d2c934; stroke:none;" d="M280 317L281 318L280 317z"/>
<path style="fill:#565a55; stroke:none;" d="M119 318L120 319L119 318z"/>
<path style="fill:#d2c934; stroke:none;" d="M119 319L120 320L119 319M185 319L186 320L185 319M216 319L217 320L216 319z"/>
<path style="fill:#565a55; stroke:none;" d="M279 319L280 320L279 319M185.333 320.667L185.667 321.333L185.333 320.667M216.333 320.667L216.667 321.333L216.333 320.667z"/>
<path style="fill:#d2c934; stroke:none;" d="M279 320L280 321L279 320M325 320L325 331L326 331L325 320z"/>
<path style="fill:#565a55; stroke:none;" d="M120 322L121 323L120 322M278.333 322.667L278.667 323.333L278.333 322.667z"/>
<path style="fill:#d2c934; stroke:none;" d="M120 323L121 324L120 323M215 323L216 324L215 323M465 323L465 328L466 328L465 323M186 324L187 325L186 324z"/>
<path style="fill:#565a55; stroke:none;" d="M215.333 324.667L215.667 325.333L215.333 324.667z"/>
<path style="fill:#d2c934; stroke:none;" d="M278 324L279 325L278 324z"/>
<path style="fill:#565a55; stroke:none;" d="M121.333 325.667L121.667 326.333L121.333 325.667M186.333 325.667L186.667 326.333L186.333 325.667M277 326L278 327L277 326z"/>
<path style="fill:#d2c934; stroke:none;" d="M121 327L122 328L121 327M214 327L215 328L214 327M277 327L278 328L277 327M187.333 328.667L187.667 329.333L187.333 328.667z"/>
<path style="fill:#565a55; stroke:none;" d="M214 328L215 329L214 328M122 329L123 330L122 329M276 329L277 330L276 329z"/>
<path style="fill:#d2c934; stroke:none;" d="M122 330L123 331L122 330z"/>
<path style="fill:#565a55; stroke:none;" d="M187.333 330.667L187.667 331.333L187.333 330.667z"/>
<path style="fill:#d2c934; stroke:none;" d="M213.333 330.667L213.667 331.333L213.333 330.667M276 330L277 331L276 330z"/>
<path style="fill:#565a55; stroke:none;" d="M213 332L214 333L213 332M275.333 332.667L275.667 333.333L275.333 332.667M123 333L124 334L123 333z"/>
<path style="fill:#d2c934; stroke:none;" d="M188.333 333.667L188.667 334.333L188.333 333.667M123 334L124 335L123 334M212 334L213 335L212 334M275 334L276 335L275 334z"/>
<path style="fill:#565a55; stroke:none;" d="M188 335L189 336L188 335M212.333 335.667L212.667 336.333L212.333 335.667M274.333 335.667L274.667 336.333L274.333 335.667M124.333 336.667L124.667 337.333L124.333 336.667z"/>
<path style="fill:#d2c934; stroke:none;" d="M464 336L464 340L465 340L464 336M274 337L275 338L274 337M124 338L125 339L124 338M189 338L190 339L189 338M211 338L212 339L211 338z"/>
<path style="fill:#565a55; stroke:none;" d="M189.333 339.667L189.667 340.333L189.333 339.667M211.333 339.667L211.667 340.333L211.333 339.667M273 339L274 340L273 339M125 340L126 341L125 340z"/>
<path style="fill:#d2c934; stroke:none;" d="M273 340L274 341L273 340M125 341L126 342L125 341M210 342L211 343L210 342z"/>
<path style="fill:#565a55; stroke:none;" d="M272.333 342.667L272.667 343.333L272.333 342.667z"/>
<path style="fill:#d2c934; stroke:none;" d="M190 343L191 344L190 343z"/>
<path style="fill:#565a55; stroke:none;" d="M210.333 343.667L210.667 344.333L210.333 343.667M126 344L127 345L126 344M190.333 344.667L190.667 345.333L190.333 344.667z"/>
<path style="fill:#d2c934; stroke:none;" d="M126 345L127 346L126 345z"/>
<path style="fill:#565a55; stroke:none;" d="M271.333 345.667L271.667 346.333L271.333 345.667z"/>
<path style="fill:#d2c934; stroke:none;" d="M209 346L210 347L209 346z"/>
<path style="fill:#565a55; stroke:none;" d="M127.333 347.667L127.667 348.333L127.333 347.667M209 347L210 348L209 347z"/>
<path style="fill:#d2c934; stroke:none;" d="M271 347L272 348L271 347M191 348L192 349L191 348M463 348L463 352L464 352L463 348M127 349L128 350L127 349z"/>
<path style="fill:#565a55; stroke:none;" d="M191.333 349.667L191.667 350.333L191.333 349.667M270 349L271 350L270 349z"/>
<path style="fill:#d2c934; stroke:none;" d="M208 350L209 351L208 350M270 350L271 351L270 350z"/>
<path style="fill:#565a55; stroke:none;" d="M128 351L129 352L128 351M208 351L209 352L208 351z"/>
<path style="fill:#d2c934; stroke:none;" d="M128 352L129 353L128 352M192.333 352.667L192.667 353.333L192.333 352.667z"/>
<path style="fill:#565a55; stroke:none;" d="M269 352L270 353L269 352z"/>
<path style="fill:#d2c934; stroke:none;" d="M207 353L208 354L207 353M269 353L270 354L269 353z"/>
<path style="fill:#565a55; stroke:none;" d="M192.333 354.667L192.667 355.333L192.333 354.667M207.333 354.667L207.667 355.333L207.333 354.667M129 355L130 356L129 355M268.333 355.667L268.667 356.333L268.333 355.667z"/>
<path style="fill:#d2c934; stroke:none;" d="M129 356L130 357L129 356M193.333 357.667L193.667 358.333L193.333 357.667M206 357L207 358L206 357M268 357L269 358L268 357z"/>
<path style="fill:#565a55; stroke:none;" d="M130.333 358.667L130.667 359.333L130.333 358.667M206.333 358.667L206.667 359.333L206.333 358.667M193.333 359.667L193.667 360.333L193.333 359.667M267 359L268 360L267 359z"/>
<path style="fill:#d2c934; stroke:none;" d="M130 360L131 361L130 360M267 360L268 361L267 360M462.333 360.667L462.667 361.333L462.333 360.667M205 361L206 362L205 361M427 361L427 362L443 362L427 361z"/>
<path style="fill:#565a55; stroke:none;" d="M131 362L132 363L131 362z"/>
<path style="fill:#d2c934; stroke:none;" d="M194 362L195 363L194 362z"/>
<path style="fill:#565a55; stroke:none;" d="M205.333 362.667L205.667 363.333L205.333 362.667M266 362L267 363L266 362z"/>
<path style="fill:#d2c934; stroke:none;" d="M131 363L132 364L131 363z"/>
<path style="fill:#565a55; stroke:none;" d="M194.333 363.667L194.667 364.333L194.333 363.667z"/>
<path style="fill:#d2c934; stroke:none;" d="M266 363L267 364L266 363z"/>
<path style="fill:#565a55; stroke:none;" d="M132.333 365.667L132.667 366.333L132.333 365.667z"/>
<path style="fill:#d2c934; stroke:none;" d="M204 365L205 366L204 365z"/>
<path style="fill:#565a55; stroke:none;" d="M265.333 365.667L265.667 366.333L265.333 365.667z"/>
<path style="fill:#d2c934; stroke:none;" d="M326 365L326 376L327 376L326 365z"/>
<path style="fill:#565a55; stroke:none;" d="M204.333 366.667L204.667 367.333L204.333 366.667z"/>
<path style="fill:#d2c934; stroke:none;" d="M132 367L133 368L132 367M195 367L196 368L195 367M265 367L266 368L265 367z"/>
<path style="fill:#565a55; stroke:none;" d="M195.333 368.667L195.667 369.333L195.333 368.667M264.333 368.667L264.667 369.333L264.333 368.667M133.333 369.667L133.667 370.333L133.333 369.667z"/>
<path style="fill:#d2c934; stroke:none;" d="M203 369L204 370L203 369z"/>
<path style="fill:#565a55; stroke:none;" d="M203 370L204 371L203 370z"/>
<path style="fill:#d2c934; stroke:none;" d="M264 370L265 371L264 370M133 371L134 372L133 371M196 372L197 373L196 372M202.333 372.667L202.667 373.333L202.333 372.667z"/>
<path style="fill:#565a55; stroke:none;" d="M263 372L264 373L263 372M134 373L135 374L134 373M196.333 373.667L196.667 374.333L196.333 373.667z"/>
<path style="fill:#d2c934; stroke:none;" d="M263 373L264 374L263 373M394 373L394 381L395 381L394 373M134 374L135 375L134 374z"/>
<path style="fill:#565a55; stroke:none;" d="M202 374L203 375L202 374M262.333 375.667L262.667 376.333L262.333 375.667M135.333 376.667L135.667 377.333L135.333 376.667z"/>
<path style="fill:#d2c934; stroke:none;" d="M197 376L198 377L197 376M201 376L202 377L201 376M135 378L136 379L135 378z"/>
<path style="fill:#565a55; stroke:none;" d="M261.333 378.667L261.667 379.333L261.333 378.667M136.333 380.667L136.667 381.333L136.333 380.667z"/>
<path style="fill:#d2c934; stroke:none;" d="M261 380L262 381L261 380M136 382L137 383L136 382z"/>
<path style="fill:#565a55; stroke:none;" d="M260 382L261 383L260 382z"/>
<path style="fill:#d2c934; stroke:none;" d="M260 383L261 384L260 383z"/>
<path style="fill:#565a55; stroke:none;" d="M137 384L138 385L137 384z"/>
<path style="fill:#d2c934; stroke:none;" d="M137 385L138 386L137 385z"/>
<path style="fill:#565a55; stroke:none;" d="M259 385L260 386L259 385z"/>
<path style="fill:#d2c934; stroke:none;" d="M259 386L260 387L259 386z"/>
<path style="fill:#565a55; stroke:none;" d="M138.333 387.667L138.667 388.333L138.333 387.667M258.333 388.667L258.667 389.333L258.333 388.667z"/>
<path style="fill:#d2c934; stroke:none;" d="M138 389L139 390L138 389M258 390L259 391L258 390z"/>
<path style="fill:#565a55; stroke:none;" d="M139.333 391.667L139.667 392.333L139.333 391.667z"/>
<path style="fill:#d2c934; stroke:none;" d="M325 391L325 395L326 395L325 391z"/>
<path style="fill:#565a55; stroke:none;" d="M257 392L258 393L257 392z"/>
<path style="fill:#d2c934; stroke:none;" d="M139 393L140 394L139 393M257 393L258 394L257 393z"/>
<path style="fill:#565a55; stroke:none;" d="M140 395L141 396L140 395M256 395L257 396L256 395z"/>
<path style="fill:#d2c934; stroke:none;" d="M140 396L141 397L140 396M256 396L257 397L256 396z"/>
<path style="fill:#565a55; stroke:none;" d="M141.333 398.667L141.667 399.333L141.333 398.667M255.333 398.667L255.667 399.333L255.333 398.667z"/>
<path style="fill:#d2c934; stroke:none;" d="M141 400L142 401L141 400M255 400L256 401L255 400z"/>
<path style="fill:#565a55; stroke:none;" d="M254.333 401.667L254.667 402.333L254.333 401.667M142.333 402.667L142.667 403.333L142.333 402.667z"/>
<path style="fill:#d2c934; stroke:none;" d="M395 402L395 409L396 409L395 402M254 403L255 404L254 403M142 404L143 405L142 404z"/>
<path style="fill:#565a55; stroke:none;" d="M253 405L254 406L253 405M143 406L144 407L143 406z"/>
<path style="fill:#d2c934; stroke:none;" d="M253 406L254 407L253 406M143 407L144 408L143 407z"/>
<path style="fill:#565a55; stroke:none;" d="M252.333 408.667L252.667 409.333L252.333 408.667M144.333 409.667L144.667 410.333L144.333 409.667z"/>
<path style="fill:#d2c934; stroke:none;" d="M324 409L324 413L325 413L324 409M144 411L145 412L144 411z"/>
<path style="fill:#565a55; stroke:none;" d="M251.333 411.667L251.667 412.333L251.333 411.667M145.333 413.667L145.667 414.333L145.333 413.667z"/>
<path style="fill:#d2c934; stroke:none;" d="M251 413L252 414L251 413M145 415L146 416L145 415z"/>
<path style="fill:#565a55; stroke:none;" d="M250 415L251 416L250 415z"/>
<path style="fill:#d2c934; stroke:none;" d="M250 416L251 417L250 416z"/>
<path style="fill:#565a55; stroke:none;" d="M146 417L147 418L146 417z"/>
<path style="fill:#d2c934; stroke:none;" d="M146 418L147 419L146 418z"/>
<path style="fill:#565a55; stroke:none;" d="M249 418L250 419L249 418z"/>
<path style="fill:#d2c934; stroke:none;" d="M249 419L250 420L249 419z"/>
<path style="fill:#565a55; stroke:none;" d="M147.333 420.667L147.667 421.333L147.333 420.667M248.333 421.667L248.667 422.333L248.333 421.667z"/>
<path style="fill:#d2c934; stroke:none;" d="M147 422L148 423L147 422M248 423L249 424L248 423z"/>
<path style="fill:#565a55; stroke:none;" d="M148.333 424.667L148.667 425.333L148.333 424.667M247 425L248 426L247 425z"/>
<path style="fill:#d2c934; stroke:none;" d="M148 426L149 427L148 426M247 426L248 427L247 426z"/>
<path style="fill:#565a55; stroke:none;" d="M149 428L150 429L149 428M246 428L247 429L246 428z"/>
<path style="fill:#d2c934; stroke:none;" d="M323 428L323 432L324 432L323 428M149 429L150 430L149 429M246 429L247 430L246 429M396 430L396 438L397 438L396 430z"/>
<path style="fill:#565a55; stroke:none;" d="M150.333 431.667L150.667 432.333L150.333 431.667M245.333 431.667L245.667 432.333L245.333 431.667z"/>
<path style="fill:#d2c934; stroke:none;" d="M150 433L151 434L150 433M245 433L246 434L245 433z"/>
<path style="fill:#565a55; stroke:none;" d="M244.333 434.667L244.667 435.333L244.333 434.667M151 435L152 436L151 435z"/>
<path style="fill:#d2c934; stroke:none;" d="M151.333 436.667L151.667 437.333L151.333 436.667M244 436L245 437L244 436z"/>
<path style="fill:#565a55; stroke:none;" d="M243 438L244 439L243 438M152 439L153 440L152 439z"/>
<path style="fill:#d2c934; stroke:none;" d="M243 439L244 440L243 439M152 440L153 441L152 440z"/>
<path style="fill:#565a55; stroke:none;" d="M242 441L212 442L153 442L153 443L213 443L243 442L242 441z"/>
<path style="fill:#d2c934; stroke:none;" d="M242 442L243 443L242 442M323 443L323 444L396 444L373 443L323 443z"/>
</svg>
