<svg height="250" viewBox="0 0 250 250" width="250" xmlns="http://www.w3.org/2000/svg" xmlns:xlink="http://www.w3.org/1999/xlink"><linearGradient id="a" gradientTransform="matrix(.124997 0 0 .132413 0 168.698147)" gradientUnits="userSpaceOnUse" x1="0" x2="2000.040039" y1="-330.01001" y2="-330.01001"><stop offset="0" stop-color="#9d4abe"/><stop offset=".03" stop-color="#9055c4"/><stop offset=".15" stop-color="#6b74d6"/><stop offset=".26" stop-color="#4c8fe5"/><stop offset=".39" stop-color="#34a3f0"/><stop offset=".52" stop-color="#22b2f9"/><stop offset=".66" stop-color="#18bafd"/><stop offset=".83" stop-color="#15bdff"/><stop offset="1" stop-color="#28bad5"/></linearGradient><filter id="b" height="100%" width="100%" x="0%" y="0%"><feColorMatrix in="SourceGraphic" type="matrix" values="0 0 0 0 1 0 0 0 0 1 0 0 0 0 1 0 0 0 1 0"/></filter><mask id="c"><g filter="url(#b)"><path d="m0 0h250v250h-250z" fill-opacity=".1"/></g></mask><clipPath id="d"><path d="m0 0h250v251h-250z"/></clipPath><mask id="e"><g filter="url(#b)"><path d="m0 0h250v250h-250z" fill-opacity=".1"/></g></mask><clipPath id="f"><path d="m0 0h250v251h-250z"/></clipPath><path d="m107.472656 238.746094-106.925781-230.703125c-1.734375-3.683594.875-8.03906275 4.726563-8.03906275h37.050781c1.984375 0 3.847656 1.19140575 4.722656 3.03124975l78.085937 167.371094c6.964844 15.015625 27.101563 15.015625 34.0625 0l77.835938-167.238281c.875-1.839844 2.738281-3.03125 4.726562-3.03125h4.597657c2.738281 0 4.476562 3.03125 3.238281 5.535156l-108.046875 233.074219c-6.964844 15-27.113281 15-34.074219 0zm0 0" fill="url(#a)"/><g clip-path="url(#d)" mask="url(#c)"><path d="m107.472656 238.746094-60.425781-235.578125c-.875-1.972657-2.863281-3.03125-4.472656-3.03125h-37.175781c-4.101563 0-6.460938 4.34375-4.851563 8.039062zm0 0" fill="#fff"/></g><g clip-path="url(#f)" mask="url(#e)"><path d="m125.132812 170.527344-124.585937-162.484375c-1.484375-3.816407.75-7.640625 4.226563-8.03906275h37.675781c2.109375.13281275 3.722656 1.57812475 4.472656 3.03124975zm0 0" fill="#fff"/></g></svg>