<!-- Generator: Adobe Illustrator 21.1.0, SVG Export Plug-In . SVG Version: 6.00 Build 0)  -->
<svg xmlns="http://www.w3.org/2000/svg" xmlns:xlink="http://www.w3.org/1999/xlink" width="250px" height="250px" viewBox="0 0 250 250" version="1.1">
<defs>
<filter id="alpha" filterUnits="objectBoundingBox" x="0%" y="0%" width="100%" height="100%">
  <feColorMatrix type="matrix" in="SourceGraphic" values="0 0 0 0 1 0 0 0 0 1 0 0 0 0 1 0 0 0 1 0"/>
</filter>
<mask id="mask0">
  <g filter="url(#alpha)">
<rect x="0" y="0" width="250" height="250" style="fill:rgb(0%,0%,0%);fill-opacity:0.2;stroke:none;"/>
  </g>
</mask>
<clipPath id="clip1">
  <rect x="0" y="0" width="250" height="250"/>
</clipPath>
<g id="surface5" clip-path="url(#clip1)">
<path style=" stroke:none;fill-rule:nonzero;fill:rgb(100%,100%,100%);fill-opacity:1;" d="M 187.914062 186.15625 C 221.996094 151.832031 221.828125 96.386719 187.5 62.304688 C 153.171875 28.222656 97.730469 28.394531 63.648438 62.71875 Z M 187.914062 186.15625 "/>
</g>
<linearGradient id="linear0" gradientUnits="userSpaceOnUse" x1="379.91391" y1="435.47229" x2="477.987091" y2="523.434814" gradientTransform="matrix(0.244141,0,0,0.244141,0,0)">
<stop offset="0" style="stop-color:rgb(11.372549%,19.215687%,24.705882%);stop-opacity:1;"/>
<stop offset="1" style="stop-color:rgb(100%,100%,100%);stop-opacity:1;"/>
</linearGradient>
</defs>
<g id="surface1">
<path style=" stroke:none;fill-rule:nonzero;fill:rgb(11.764706%,19.215687%,24.705882%);fill-opacity:1;" d="M 125.464844 25.023438 C 70.554688 25.195312 26.195312 69.847656 26.367188 124.757812 C 26.390625 135.082031 28.003906 145.019531 30.957031 154.371094 C 37.257812 151.367188 44.3125 149.65625 51.757812 149.65625 C 78.417969 149.65625 100.097656 171.335938 100.097656 198 C 100.097656 205.542969 98.363281 212.695312 95.265625 219.066406 C 104.980469 222.191406 115.355469 223.875 126.125 223.828125 C 181.03125 223.632812 225.390625 178.980469 225.195312 124.070312 C 225 69.164062 180.347656 24.828125 125.464844 25.023438 Z M 125.464844 25.023438 "/>
<use xlink:href="#surface5" mask="url(#mask0)"/>
<path style=" stroke:none;fill-rule:nonzero;fill:rgb(100%,100%,100%);fill-opacity:1;" d="M 179.515625 94.824219 L 168.210938 83.421875 L 162.0625 89.671875 C 162.035156 89.648438 162.011719 89.625 161.988281 89.601562 L 156.984375 94.652344 L 126.195312 125.855469 L 106.714844 106.101562 C 102.683594 110.304688 100.023438 115.820312 99.4375 121.925781 L 126.195312 149.046875 L 156.46875 118.359375 C 156.859375 120.3125 157.054688 122.339844 157.054688 124.414062 C 157.054688 141.648438 143.015625 155.6875 125.78125 155.6875 C 108.542969 155.6875 94.507812 141.648438 94.507812 124.414062 C 94.507812 107.179688 108.542969 93.140625 125.78125 93.140625 C 132.859375 93.140625 139.402344 95.507812 144.652344 99.488281 L 158.054688 85.890625 C 149.316406 78.5625 138.0625 74.121094 125.78125 74.121094 C 98.070312 74.121094 75.511719 96.679688 75.511719 124.390625 C 75.511719 152.125 98.070312 174.65625 125.78125 174.65625 C 153.492188 174.65625 176.050781 152.101562 176.050781 124.390625 C 176.050781 116.773438 174.339844 109.570312 171.3125 103.101562 Z M 179.515625 94.824219 "/>
<path style=" stroke:none;fill-rule:nonzero;fill:url(#linear0);" d="M 126.195312 149.046875 L 99.460938 121.921875 C 100.046875 115.796875 102.710938 110.300781 106.738281 106.101562 L 126.21875 125.855469 L 126.21875 149.046875 Z M 126.195312 149.046875 "/>
<path style=" stroke:none;fill-rule:nonzero;fill:rgb(0%,76.862746%,51.372552%);fill-opacity:1;" d="M 51.757812 156.101562 C 28.664062 156.101562 9.863281 174.902344 9.863281 198 C 9.863281 221.09375 28.664062 239.890625 51.757812 239.890625 C 74.851562 239.890625 93.652344 221.09375 93.652344 198 C 93.652344 174.902344 74.878906 156.101562 51.757812 156.101562 Z M 51.757812 156.101562 "/>
<path style=" stroke:none;fill-rule:nonzero;fill:rgb(100%,100%,100%);fill-opacity:1;" d="M 32.03125 183.277344 L 38.746094 205.664062 L 45.410156 183.277344 L 56.25 183.277344 L 45.289062 215.820312 L 32.105469 215.820312 L 21.167969 183.277344 Z M 32.03125 183.277344 "/>
<path style=" stroke:none;fill-rule:nonzero;fill:rgb(100%,100%,100%);fill-opacity:1;" d="M 68.726562 191.359375 L 68.726562 195.410156 L 78.859375 195.410156 L 78.859375 203.078125 L 68.75 203.078125 L 68.75 207.664062 L 80.25 207.664062 L 80.25 215.820312 L 58.570312 215.820312 L 58.570312 183.277344 L 80.25 183.277344 L 80.25 191.359375 Z M 68.726562 191.359375 "/>
</g>
</svg>
