<svg height="250" viewBox="0 0 250 250" width="250" xmlns="http://www.w3.org/2000/svg"><path d="m219.777344 120.914062c0 50.378907-41.632813 91.21875-92.984375 91.21875-51.351563 0-92.980469-40.839843-92.980469-91.21875 0-50.378906 41.628906-91.214843 92.980469-91.214843 51.351562 0 92.984375 40.835937 92.984375 91.214843zm0 0" fill="#fff"/><path d="m124.578125 250c68.796875 0 124.574219-55.964844 124.574219-125s-55.777344-125-124.574219-125c-68.804687 0-124.578125 55.964844-124.578125 125s55.773438 125 124.578125 125zm-.054687-43.996094c-29.8125-51.644531-76.335938-132.25-76.335938-132.25h66.277344l13.300781 23.035156h-39.363281l49.652344 85.769532s-8.246094 14.292968-13.53125 23.445312zm19.683593-34.101562 56.652344-98.148438h-27.035156l-29.65625 51.476563-10.425781-18.023438h-26.949219zm0 0" fill="#0085ff" fill-rule="evenodd"/></svg>