
<svg xmlns="http://www.w3.org/2000/svg" xmlns:xlink="http://www.w3.org/1999/xlink" width="250px" height="250px" viewBox="0 0 250 250" version="1.1">
<g id="surface1">
<path style=" stroke:none;fill-rule:evenodd;fill:rgb(5.098039%,4.705882%,10.196079%);fill-opacity:1;" d="M 142.125 50.882812 C 141.574219 51.082031 140.878906 51.246094 140.574219 51.246094 C 140.273438 51.25 139.496094 51.53125 138.851562 51.875 C 138.203125 52.21875 137.53125 52.5 137.359375 52.5 C 137.183594 52.5 137.003906 52.589844 136.957031 52.699219 C 136.914062 52.808594 136.363281 53.285156 135.734375 53.761719 C 132.957031 55.863281 132.910156 55.941406 123.8125 73.765625 C 121.28125 78.71875 120.867188 79.347656 120.59375 78.625 C 120.488281 78.347656 120.0625 77.558594 119.640625 76.867188 C 119.21875 76.179688 118.742188 75.390625 118.578125 75.117188 C 117.9375 74.050781 113.859375 67.113281 113.625 66.6875 C 111.828125 63.460938 109.785156 60.453125 107.996094 58.414062 C 107.246094 57.554688 103.46875 55 102.953125 55 C 102.75 55 102.503906 54.921875 102.40625 54.824219 C 101.484375 53.902344 93.34375 53.296875 91.140625 53.992188 C 90.71875 54.125 89.699219 54.417969 88.875 54.644531 C 88.050781 54.871094 87.019531 55.214844 86.585938 55.402344 C 86.152344 55.59375 85.734375 55.75 85.65625 55.75 C 85.3125 55.75 82.507812 57.140625 81.308594 57.910156 C 80.582031 58.371094 79.890625 58.75 79.765625 58.75 C 79.640625 58.75 79.503906 58.839844 79.457031 58.945312 C 79.414062 59.054688 78.699219 59.660156 77.875 60.292969 C 76.167969 61.601562 72.5 65.410156 72.5 65.875 C 72.5 65.953125 72.292969 66.246094 72.035156 66.519531 C 69.824219 68.894531 67.871094 75.628906 68.476562 78.796875 C 69.277344 82.992188 70.5625 85.632812 75.746094 93.75 C 75.878906 93.957031 76.167969 94.484375 76.390625 94.925781 C 76.613281 95.367188 76.953125 95.859375 77.148438 96.019531 C 77.34375 96.179688 77.5 96.421875 77.5 96.554688 C 77.5 96.6875 77.753906 97.152344 78.0625 97.582031 C 78.371094 98.015625 78.757812 98.617188 78.917969 98.925781 C 79.523438 100.078125 80.128906 101.128906 80.253906 101.25 C 80.703125 101.675781 81.246094 102.804688 81.109375 103.023438 C 81 103.199219 76.859375 103.265625 68.285156 103.226562 C 59.070312 103.183594 55.433594 103.246094 54.921875 103.457031 C 54.535156 103.617188 53.984375 103.75 53.703125 103.75 C 51.859375 103.75 47.601562 106.835938 45.648438 109.585938 C 41.25 115.78125 39.765625 124.507812 41.660156 133 C 41.992188 134.484375 42.203125 135.191406 42.738281 136.625 C 44.691406 141.878906 47.902344 145.324219 52.625 147.234375 C 54.558594 148.019531 60.851562 148.386719 77 148.652344 C 86.605469 148.8125 85.738281 148.597656 84.703125 150.5625 C 84.023438 151.851562 80.25 159.25 77.65625 164.375 C 76.128906 167.398438 74.820312 169.929688 74.75 170 C 74.679688 170.070312 74.414062 170.574219 74.160156 171.125 C 73.902344 171.675781 73.515625 172.460938 73.300781 172.875 C 72.59375 174.238281 72.632812 174.152344 71.511719 176.875 C 68.757812 183.5625 71.59375 190.828125 79.519531 197.390625 C 80.453125 198.160156 84.453125 200.574219 85.875 201.226562 C 88.359375 202.363281 88.644531 202.476562 90 202.882812 C 90.757812 203.109375 91.601562 203.390625 91.875 203.507812 C 93.25 204.09375 102.167969 204.335938 104.125 203.835938 C 107.292969 203.03125 110.609375 200.558594 112.578125 197.539062 C 113.695312 195.820312 120 183.289062 120 182.785156 C 120 182.628906 120.113281 182.5 120.25 182.5 C 120.386719 182.5 120.5 182.289062 120.5 182.03125 C 120.5 181.773438 120.667969 181.421875 120.875 181.25 C 121.082031 181.078125 121.25 180.828125 121.25 180.695312 C 121.25 180.289062 123.984375 174.824219 124.335938 174.535156 C 124.617188 174.296875 126.25 176.085938 126.25 176.636719 C 126.25 176.703125 126.8125 177.652344 127.5 178.75 C 128.1875 179.847656 128.75 180.859375 128.75 180.996094 C 128.75 181.136719 128.859375 181.25 128.996094 181.25 C 129.128906 181.25 129.3125 181.53125 129.398438 181.875 C 129.484375 182.21875 129.65625 182.5 129.777344 182.5 C 129.898438 182.5 130 182.625 130 182.773438 C 130 182.925781 130.253906 183.402344 130.5625 183.835938 C 130.871094 184.269531 131.335938 185.015625 131.59375 185.5 C 131.851562 185.980469 132.722656 187.367188 133.53125 188.578125 C 134.339844 189.792969 135 190.828125 135 190.878906 C 135 191.851562 140.320312 195.839844 142.632812 196.601562 C 143.316406 196.828125 144.101562 197.125 144.378906 197.265625 C 145.660156 197.917969 155.855469 197.226562 156.644531 196.4375 C 156.75 196.335938 157.042969 196.25 157.296875 196.25 C 157.546875 196.25 157.953125 196.140625 158.191406 196.011719 C 158.429688 195.878906 159.355469 195.445312 160.25 195.046875 C 166.726562 192.160156 172.855469 185.523438 174.578125 179.527344 C 174.96875 178.164062 175.085938 172.070312 174.738281 171.148438 C 173.832031 168.746094 173.085938 167.023438 172.617188 166.25 C 172.328125 165.769531 172.011719 165.207031 171.917969 165 C 171.824219 164.792969 171.464844 164.175781 171.117188 163.625 C 170.773438 163.074219 170.351562 162.34375 170.1875 162 C 170.019531 161.65625 169.816406 161.320312 169.730469 161.25 C 169.644531 161.179688 169.203125 160.449219 168.75 159.625 C 168.300781 158.800781 167.738281 157.84375 167.503906 157.5 C 167.273438 157.15625 167.003906 156.707031 166.90625 156.5 C 166.714844 156.089844 166.660156 155.996094 164.9375 153.175781 C 164.285156 152.109375 163.75 151.078125 163.75 150.886719 C 163.75 150.695312 163.609375 150.476562 163.4375 150.394531 C 163.265625 150.3125 164.757812 150.300781 166.75 150.371094 C 179.070312 150.789062 190.882812 150.808594 192 150.410156 C 192.617188 150.1875 193.304688 150.003906 193.527344 150.003906 C 194.011719 150 196.300781 148.855469 197.503906 148.019531 C 200.027344 146.257812 203.003906 141.785156 204.085938 138.117188 C 204.332031 137.296875 204.636719 136.429688 204.765625 136.191406 C 204.894531 135.953125 205 135.480469 205 135.140625 C 205 134.800781 205.167969 133.875 205.375 133.085938 C 205.820312 131.371094 205.890625 123.453125 205.472656 121.875 C 205.328125 121.324219 205.117188 120.367188 205.003906 119.75 C 204.757812 118.414062 204.191406 116.605469 203.933594 116.351562 C 203.832031 116.25 203.75 115.988281 203.75 115.769531 C 203.742188 113.585938 199.046875 107.765625 196.128906 106.324219 C 192.5 104.53125 192.015625 104.488281 174.8125 104.328125 C 166.390625 104.253906 159.5 104.109375 159.5 104.007812 C 159.5 103.90625 160.328125 102.148438 161.339844 100.101562 C 162.355469 98.050781 163.371094 95.980469 163.597656 95.5 C 163.828125 95.019531 164.121094 94.457031 164.25 94.25 C 164.382812 94.042969 165.792969 91.230469 167.386719 88 C 168.980469 84.769531 170.382812 81.957031 170.496094 81.75 C 172.199219 78.71875 173.25 75.109375 173.25 72.289062 C 173.25 69.210938 172.785156 67.601562 170.894531 64.132812 C 169.863281 62.242188 167.304688 59.355469 165.125 57.621094 C 164.4375 57.074219 163.835938 56.539062 163.792969 56.4375 C 163.746094 56.335938 163.617188 56.25 163.503906 56.25 C 163.390625 56.25 162.699219 55.84375 161.960938 55.34375 C 160.644531 54.453125 156.753906 52.5 156.292969 52.5 C 156.164062 52.5 155.734375 52.332031 155.339844 52.125 C 154.949219 51.921875 154.394531 51.753906 154.113281 51.75 C 153.832031 51.75 153.492188 51.648438 153.363281 51.527344 C 153.230469 51.402344 152.675781 51.246094 152.125 51.175781 C 151.574219 51.109375 150.675781 50.929688 150.125 50.78125 C 148.636719 50.378906 143.332031 50.445312 142.125 50.882812 "/>
<path style=" stroke:none;fill-rule:evenodd;fill:rgb(86.666667%,98.431373%,44.313726%);fill-opacity:1;" d="M 0 125 L 0 250 L 250 250 L 250 0 L 0 0 L 0 125 M 150.125 50.78125 C 150.675781 50.929688 151.574219 51.109375 152.125 51.175781 C 152.675781 51.246094 153.230469 51.402344 153.363281 51.527344 C 153.492188 51.648438 153.832031 51.75 154.113281 51.75 C 154.394531 51.753906 154.949219 51.921875 155.339844 52.125 C 155.734375 52.332031 156.164062 52.5 156.292969 52.5 C 156.753906 52.5 160.644531 54.453125 161.960938 55.34375 C 162.699219 55.84375 163.390625 56.25 163.503906 56.25 C 163.617188 56.25 163.746094 56.335938 163.792969 56.4375 C 163.835938 56.539062 164.4375 57.074219 165.125 57.621094 C 167.304688 59.355469 169.863281 62.242188 170.894531 64.132812 C 172.785156 67.601562 173.25 69.210938 173.25 72.289062 C 173.25 75.109375 172.199219 78.71875 170.496094 81.75 C 170.382812 81.957031 168.980469 84.769531 167.386719 88 C 165.792969 91.230469 164.382812 94.042969 164.25 94.25 C 164.121094 94.457031 163.828125 95.019531 163.597656 95.5 C 163.371094 95.980469 162.355469 98.050781 161.339844 100.101562 C 160.328125 102.148438 159.5 103.90625 159.5 104.007812 C 159.5 104.109375 166.390625 104.253906 174.8125 104.328125 C 192.015625 104.488281 192.5 104.53125 196.128906 106.324219 C 199.046875 107.765625 203.742188 113.585938 203.75 115.769531 C 203.75 115.988281 203.832031 116.25 203.933594 116.351562 C 204.191406 116.605469 204.757812 118.414062 205.003906 119.75 C 205.117188 120.367188 205.328125 121.324219 205.472656 121.875 C 205.890625 123.453125 205.820312 131.371094 205.375 133.085938 C 205.167969 133.875 205 134.800781 205 135.140625 C 205 135.480469 204.894531 135.953125 204.765625 136.191406 C 204.636719 136.429688 204.332031 137.296875 204.085938 138.117188 C 203.003906 141.785156 200.027344 146.257812 197.503906 148.019531 C 196.300781 148.855469 194.011719 150 193.527344 150.003906 C 193.304688 150.003906 192.617188 150.1875 192 150.410156 C 190.882812 150.808594 179.070312 150.789062 166.75 150.371094 C 164.757812 150.300781 163.265625 150.3125 163.4375 150.394531 C 163.609375 150.476562 163.75 150.695312 163.75 150.886719 C 163.75 151.078125 164.285156 152.109375 164.9375 153.175781 C 166.660156 155.996094 166.714844 156.089844 166.90625 156.5 C 167.003906 156.707031 167.273438 157.15625 167.503906 157.5 C 167.738281 157.84375 168.300781 158.800781 168.75 159.625 C 169.203125 160.449219 169.644531 161.179688 169.730469 161.25 C 169.816406 161.320312 170.019531 161.65625 170.1875 162 C 170.351562 162.34375 170.773438 163.074219 171.117188 163.625 C 171.464844 164.175781 171.824219 164.792969 171.917969 165 C 172.011719 165.207031 172.328125 165.769531 172.617188 166.25 C 173.085938 167.023438 173.832031 168.746094 174.738281 171.148438 C 175.085938 172.070312 174.96875 178.164062 174.578125 179.527344 C 172.855469 185.523438 166.726562 192.160156 160.25 195.046875 C 159.355469 195.445312 158.429688 195.878906 158.191406 196.011719 C 157.953125 196.140625 157.546875 196.25 157.296875 196.25 C 157.042969 196.25 156.75 196.335938 156.644531 196.4375 C 155.855469 197.226562 145.660156 197.917969 144.378906 197.265625 C 144.101562 197.125 143.316406 196.828125 142.632812 196.601562 C 140.320312 195.839844 135 191.851562 135 190.878906 C 135 190.828125 134.339844 189.792969 133.53125 188.578125 C 132.722656 187.367188 131.851562 185.980469 131.59375 185.5 C 131.335938 185.015625 130.871094 184.269531 130.5625 183.835938 C 130.253906 183.402344 130 182.925781 130 182.773438 C 130 182.625 129.898438 182.5 129.777344 182.5 C 129.65625 182.5 129.484375 182.21875 129.398438 181.875 C 129.3125 181.53125 129.128906 181.25 128.996094 181.25 C 128.859375 181.25 128.75 181.136719 128.75 180.996094 C 128.75 180.859375 128.1875 179.847656 127.5 178.75 C 126.8125 177.652344 126.25 176.703125 126.25 176.636719 C 126.25 176.085938 124.617188 174.296875 124.335938 174.535156 C 123.984375 174.824219 121.25 180.289062 121.25 180.695312 C 121.25 180.828125 121.082031 181.078125 120.875 181.25 C 120.667969 181.421875 120.5 181.773438 120.5 182.03125 C 120.5 182.289062 120.386719 182.5 120.25 182.5 C 120.113281 182.5 120 182.628906 120 182.785156 C 120 183.289062 113.695312 195.820312 112.578125 197.539062 C 110.609375 200.558594 107.292969 203.03125 104.125 203.835938 C 102.167969 204.335938 93.25 204.09375 91.875 203.507812 C 91.601562 203.390625 90.757812 203.109375 90 202.882812 C 88.644531 202.476562 88.359375 202.363281 85.875 201.226562 C 84.453125 200.574219 80.453125 198.160156 79.519531 197.390625 C 71.59375 190.828125 68.757812 183.5625 71.511719 176.875 C 72.632812 174.152344 72.59375 174.238281 73.300781 172.875 C 73.515625 172.460938 73.902344 171.675781 74.160156 171.125 C 74.414062 170.574219 74.679688 170.070312 74.75 170 C 74.820312 169.929688 76.128906 167.398438 77.65625 164.375 C 80.25 159.25 84.023438 151.851562 84.703125 150.5625 C 85.738281 148.597656 86.605469 148.8125 77 148.652344 C 60.851562 148.386719 54.558594 148.019531 52.625 147.234375 C 47.902344 145.324219 44.691406 141.878906 42.738281 136.625 C 40.605469 130.898438 40.265625 125.40625 41.648438 118.875 C 42.335938 115.628906 43.839844 112.132812 45.648438 109.585938 C 47.601562 106.835938 51.859375 103.75 53.703125 103.75 C 53.984375 103.75 54.535156 103.617188 54.921875 103.457031 C 55.433594 103.246094 59.070312 103.183594 68.285156 103.226562 C 76.859375 103.265625 81 103.199219 81.109375 103.023438 C 81.246094 102.804688 80.703125 101.675781 80.253906 101.25 C 80.128906 101.128906 79.523438 100.078125 78.917969 98.925781 C 78.757812 98.617188 78.371094 98.015625 78.0625 97.582031 C 77.753906 97.152344 77.5 96.6875 77.5 96.554688 C 77.5 96.421875 77.34375 96.179688 77.148438 96.019531 C 76.953125 95.859375 76.613281 95.367188 76.390625 94.925781 C 76.167969 94.484375 75.878906 93.957031 75.746094 93.75 C 68.292969 82.082031 67.296875 78.8125 69.183594 72.25 C 69.632812 70.695312 71.335938 67.269531 72.035156 66.519531 C 72.292969 66.246094 72.5 65.953125 72.5 65.875 C 72.5 65.410156 76.167969 61.601562 77.875 60.292969 C 78.699219 59.660156 79.414062 59.054688 79.457031 58.945312 C 79.503906 58.839844 79.640625 58.75 79.765625 58.75 C 79.890625 58.75 80.582031 58.371094 81.308594 57.910156 C 82.507812 57.140625 85.3125 55.75 85.65625 55.75 C 85.734375 55.75 86.152344 55.59375 86.585938 55.402344 C 87.019531 55.214844 88.050781 54.871094 88.875 54.644531 C 89.699219 54.417969 90.71875 54.125 91.140625 53.992188 C 93.34375 53.296875 101.484375 53.902344 102.40625 54.824219 C 102.503906 54.921875 102.75 55 102.953125 55 C 103.46875 55 107.246094 57.554688 107.996094 58.414062 C 109.785156 60.453125 111.828125 63.460938 113.625 66.6875 C 113.859375 67.113281 117.9375 74.050781 118.578125 75.117188 C 118.742188 75.390625 119.21875 76.179688 119.640625 76.867188 C 120.0625 77.558594 120.488281 78.347656 120.59375 78.625 C 120.867188 79.347656 121.28125 78.71875 123.8125 73.765625 C 132.910156 55.941406 132.957031 55.863281 135.734375 53.761719 C 136.363281 53.285156 136.914062 52.808594 136.957031 52.699219 C 137.003906 52.589844 137.183594 52.5 137.359375 52.5 C 137.53125 52.5 138.203125 52.21875 138.851562 51.875 C 139.496094 51.53125 140.273438 51.25 140.574219 51.246094 C 140.878906 51.246094 141.574219 51.082031 142.125 50.882812 C 143.332031 50.445312 148.636719 50.378906 150.125 50.78125 "/>
</g>
</svg>
