<?xml version="1.0" encoding="utf-8"?>
<!-- Generator: Adobe Illustrator 24.1.2, SVG Export Plug-In . SVG Version: 6.00 Build 0)  -->
<svg version="1.1" id="图层_1" xmlns="http://www.w3.org/2000/svg" xmlns:xlink="http://www.w3.org/1999/xlink" x="0px" y="0px"
	 viewBox="0 0 72 75" style="enable-background:new 0 0 72 75;" xml:space="preserve">
<style type="text/css">
	.st0{fill:#224DA5;}
	.st1{fill:#4E78CE;}
</style>
<g>
	<path class="st0" d="M12,37.5C12,18,26.9,1.9,45.9,0.2C44.8,0.1,43.6,0,42.4,0C21.7,0,5,16.8,5,37.5S21.7,75,42.4,75
		c1.2,0,2.4-0.1,3.5-0.2C26.9,73.1,12,57,12,37.5z"/>
	<path class="st1" d="M46,13.2l21.6,48.2h-6.8L46.1,28.3L31.5,61.4h-6.7L46,13.2z"/>
	<path class="st0" d="M46,61.8l21.6-48.2h-6.8L46.1,46.7L31.5,13.6h-6.7L46,61.8z"/>
</g>
</svg>
