<svg height="250" viewBox="0 0 250 250" width="250" xmlns="http://www.w3.org/2000/svg" xmlns:xlink="http://www.w3.org/1999/xlink"><clipPath id="a"><path d="m0 63.152344h250v186.847656h-250zm0 0"/></clipPath><clipPath id="b"><path d="m0 0h251v251h-251z"/></clipPath><path d="m250 125c0 69.035156-55.964844 125-125 125s-125-55.964844-125-125 55.964844-125 125-125 125 55.964844 125 125zm0 0" fill="#8600ce"/><path d="m240.742188 125c0 63.921875-51.820313 115.742188-115.742188 115.742188s-115.742188-51.820313-115.742188-115.742188 51.820313-115.742188 115.742188-115.742188 115.742188 51.820313 115.742188 115.742188zm0 0" fill="#fff"/><path d="m233.1875 125c0 59.75-48.4375 108.1875-108.1875 108.1875s-108.1875-48.4375-108.1875-108.1875 48.4375-108.1875 108.1875-108.1875 108.1875 48.4375 108.1875 108.1875zm0 0" fill="#8600ce"/><g clip-path="url(#a)"><g clip-path="url(#b)"><path d="m54.214844 78.628906c.035156 7.375.066406 15.03125 0 22.40625 29.644531.269532 62.667968.105469 92.3125 0 12.820312-22.164062.144531-.238281 13-22.40625-32.480469.011719-72.851563-.128906-105.3125 0zm85.996094 50.453125c-12.292969-19.480469-.3125-.414062-12.488282-19.746093-5.515625.019531-18.394531.039062-27.226562.039062-.164063 0 25.269531 42.402344 25.191406 42.546875-4.488281 7.726563-.050781.042969-4.554688 7.855469l-30.210937-50.378906c-12.035156-.109376-24.671875.15625-36.707031.046874-.097656 6.257813-.21875 16.109376-.019532 22.359376l21.367188-.0625c47.09375 77.519531-1.566406-2.34375 45.546875 75.589843 63.769531-105.839843.316406-.429687 64.023437-106.28125 13.125-.015625 13.121094-.027343 13.121094-.027343l10.089844-22.394532c-37.847656.019532 0 0-37.851562 0-48.539063 80.9375 0 0-30.28125 50.453125zm0 0" fill="#fff"/></g></g></svg>