<!-- Generator: Adobe Illustrator 25.1.0, SVG Export Plug-In . SVG Version: 6.00 Build 0)  -->
<svg xmlns="http://www.w3.org/2000/svg" xmlns:xlink="http://www.w3.org/1999/xlink" width="250px" height="250px" viewBox="0 0 250 250" version="1.1">
<g id="surface1">
<path style=" stroke:none;fill-rule:nonzero;fill:rgb(25.490198%,21.960784%,67.450982%);fill-opacity:1;" d="M 125 0.207031 C 56.082031 0.207031 0.207031 56.082031 0.207031 125 C 0.207031 193.917969 56.082031 249.792969 125 249.792969 C 193.894531 249.707031 249.707031 193.875 249.792969 125 C 249.792969 56.082031 193.917969 0.207031 125 0.207031 Z M 125 0.207031 "/>
<path style=" stroke:none;fill-rule:nonzero;fill:rgb(25.490198%,21.960784%,67.450982%);fill-opacity:1;" d="M 249.792969 125 C 249.792969 193.921875 193.921875 249.792969 125 249.792969 C 56.078125 249.792969 0.207031 193.921875 0.207031 125 C 0.207031 56.078125 56.078125 0.207031 125 0.207031 C 193.921875 0.207031 249.792969 56.078125 249.792969 125 Z M 249.792969 125 "/>
<path style=" stroke:none;fill-rule:nonzero;fill:rgb(100%,100%,100%);fill-opacity:1;" d="M 163.0625 70.105469 L 133.75 160.644531 L 104.417969 70.105469 L 48.875 70.105469 L 57.519531 94.605469 L 83.269531 94.605469 L 120.4375 199.832031 L 147.0625 199.832031 L 192.875 70.105469 Z M 163.0625 70.105469 "/>
</g>
</svg>
