<svg width="1024" height="1024" viewBox="0 0 1024 1024" fill="none" xmlns="http://www.w3.org/2000/svg">
<rect width="1024" height="1024" fill="black"/>
<path fill-rule="evenodd" clip-rule="evenodd" d="M216.003 680.843L217.823 340.009L514.32 171.149L808.997 343.157L807.177 683.991L510.68 852.851L216.003 680.843ZM505.203 225.724C510.085 222.94 516.081 222.972 520.933 225.808L756.294 363.372C761.146 366.208 764.117 371.417 764.087 377.037L763.694 450.785C763.629 462.99 750.293 470.475 739.84 464.173L505.095 322.632C500.353 319.772 494.456 319.617 489.569 322.223L413.592 362.747C402.816 368.495 402.414 383.793 412.872 390.099L755.237 596.53C759.984 599.392 762.874 604.542 762.845 610.085L762.634 649.648C762.604 655.268 759.578 660.445 754.696 663.229L713.372 686.795C708.423 689.617 702.335 689.543 697.456 686.601L357.637 481.705C347.179 475.4 333.837 482.896 333.784 495.108L333.408 581.217C333.383 586.755 336.273 591.897 341.016 594.757L577.485 737.338C587.773 743.541 587.591 758.523 577.155 764.474L517.881 798.276C512.999 801.06 507.003 801.028 502.151 798.192L266.79 660.628C261.937 657.792 258.967 652.583 258.997 646.963L260.45 374.352C260.48 368.732 263.506 363.555 268.388 360.771L505.203 225.724Z" fill="white"/>
<path fill-rule="evenodd" clip-rule="evenodd" d="M505.798 114.066C510.68 111.282 516.677 111.314 521.529 114.15L853.291 308.059C858.143 310.895 861.114 316.104 861.084 321.724L859.035 705.993C859.005 711.613 855.979 716.79 851.097 719.574L517.286 909.934C512.404 912.718 506.407 912.686 501.555 909.85L169.793 715.942C164.941 713.106 161.97 707.896 162 702.276L164.049 318.007C164.079 312.387 167.105 307.21 171.987 304.426L505.798 114.066ZM521.4 157.913C517.076 155.389 511.732 155.361 507.381 157.839L209.9 327.259C205.549 329.737 202.853 334.345 202.826 339.347L201 681.346C200.973 686.348 203.621 690.984 207.945 693.508L503.6 866.087C507.924 868.611 513.268 868.639 517.619 866.161L815.1 696.741C819.451 694.263 822.147 689.655 822.174 684.654L824 342.654C824.026 337.652 821.379 333.016 817.055 330.492L521.4 157.913Z" fill="white"/>
</svg>
