<?xml version="1.0" encoding="utf-8"?>
<!-- Generator: Adobe Illustrator 27.5.0, SVG Export Plug-In . SVG Version: 6.00 Build 0)  -->
<svg version="1.1" id="Layer_1" xmlns="http://www.w3.org/2000/svg" xmlns:xlink="http://www.w3.org/1999/xlink" x="0px" y="0px"
	 viewBox="0 0 250 250" style="enable-background:new 0 0 250 250;" xml:space="preserve">
<style type="text/css">
	.st0{fill:#40CE62;stroke:#000000;stroke-width:0.25;stroke-miterlimit:10;}
	.st1{fill:none;stroke:#000000;stroke-width:0.5;stroke-miterlimit:10;}
	.st2{fill:#FFFFFF;}
	.st3{fill:#3C4E3F;stroke:#000000;stroke-width:0.5;stroke-miterlimit:10;}
	.st4{fill:#40CE62;stroke:#000000;stroke-width:0.25;stroke-linecap:round;stroke-miterlimit:10;}
	.st5{fill:#25B042;}
	.st6{fill:#F9FAD0;stroke:#000000;stroke-width:0.25;stroke-miterlimit:10;}
	.st7{fill:#2CB54B;stroke:#000000;stroke-width:0.25;stroke-miterlimit:10;}
	.st8{fill:#F9FAD0;stroke:#000000;stroke-width:0.25;stroke-linecap:round;stroke-miterlimit:10;}
	.st9{fill:#FFFFFF;stroke:#000000;stroke-width:0.25;stroke-miterlimit:10;}
	.st10{fill:none;stroke:#000000;stroke-width:0.25;stroke-linecap:round;stroke-miterlimit:10;}
	.st11{fill:none;stroke:#000000;stroke-width:0.25;stroke-miterlimit:10;}
	.st12{fill:#50D86D;}
	.st13{fill:#48C162;}
	.st14{fill:#020202;}
	.st15{fill:#86211F;stroke:#000000;stroke-width:0.25;stroke-miterlimit:10;}
	.st16{fill:#40CE62;}
	.st17{fill:#6BE288;}
</style>
<g>
	<path class="st0" d="M142.1,68.2c-4.6-18.9-18-14.7-18-14.7c-13.4-1.3-10.5,6.7-10.5,6.7S118.7,77,142.1,68.2z"/>
	<path class="st0" d="M103.6,88.7c0,0-9.6-7.1,6.3-5l10.9,4.2l-3.8,5L103.6,88.7z"/>
	<path class="st1" d="M104,87.4c0,0,0.4-20.1,13.4-30.6c0,0,6.7-4.2,18,14.2C135.8,71.5,117.4,89.5,104,87.4z"/>
	<path class="st2" d="M104,87.4c0,0,0.4-20.1,13.4-30.6c0,0,6.7-4.2,18,14.2C135.8,71.5,117.4,89.5,104,87.4z"/>
	<g>
		<ellipse class="st3" cx="122" cy="78.6" rx="8.4" ry="12.1"/>
		<ellipse cx="122" cy="79.9" rx="3.4" ry="6.3"/>
		<circle class="st2" cx="119.1" cy="74.4" r="2.1"/>
	</g>
	<path class="st0" d="M120.3,159.1c0,0-10.5,53.6,46.1,49.4c0,0,34.4-2.9,56.6-32.3c0,0,3.4-3.4,0-11.3l-5-24.3"/>
	<path class="st4" d="M148.8,114.7c0,0,35.6-27.6,60.3-20.1c0,0,8,0.8,14.2,10.9c7.1,10.9,6.7,25.1,0,36.4
		c-6.3,10.9-19.3,23.9-46.1,30.6c0,0-7.5,3.8-21.4-6.7c0,0-12.1-11.3-27.2-8c0,0-29.7,3.4-35.2,10.5c0,0-5,9.6-18.4,10.1
		c0,0-20.9,5.9-26.4,0c0,0-17.6-10.9-4.2-36.4"/>
	<path class="st5" d="M88.1,158.7c0,0-49.4,26-47.8-8"/>
	<path class="st6" d="M40.3,149c0,0,6.7,20.5,44.8,10.1c0,0,23.9-7.5,44-8.4c0,0,15.5-3.8,26.4,2.9c0,0,26.4,15.1,42.7-18.9
		c0,0,6.7-3.4,2.9-21.8l-160,23.9C41.2,136.9,38.2,144.4,40.3,149z"/>
	<path class="st7" d="M36.1,110.5c0,0,0-20.5,16.8-10.1"/>
	<path class="st8" d="M147.2,135.2c0.4-0.4,0.8-0.4,1.3,0l6.7,13c0.8,2.1,4.2,1.3,4.2-0.8l0.4-5.9c0.4-2.5,3.4-2.9,4.2-0.8l6.3,11.7
		c0.8,1.3,3.4,1.3,3.8-0.4l3.4-10.9c0.4-1.3,2.1-2.1,2.9-0.8l7.1,4.6c1.3,0.8,2.9,0,2.9-1.3v-11.7l6.3,4.6
		c2.9-8.4-2.5-15.5-2.5-15.5"/>
	<path class="st8" d="M143.8,136.4c0,0-5.9,10.9-8.4,13.4c-1.3,1.3-3.8,0.8-5.9,0l-5-3.4"/>
	<path class="st8" d="M26.5,130.6v19.3c0,2.5,3.4,2.9,4.2,0.8l4.6-11.3c0.8-1.3,3.4-1.3,3.8,0.4l0.8,8.4c0.4,2.1,2.9,2.5,3.8,0.8
		l2.5-2.9c1.3-2.1,2.5-2.5,2.9-0.8l4.6,9.6c0.4,1.3,2.5,1.3,3.4,0.4l6.3-8.4c0.8-0.8,2.5-0.8,3.4,0l6.7,11.3
		c0.4,0.8,2.1,1.3,2.9,0.4l10.9-9.6c0.4-0.4,1.3-0.4,2.1,0.4l3.8,9.2c0.4,1.3,2.9,1.3,3.4,0l3.8-7.1c0.4-0.8,2.1-1.3,2.9-0.8l10.5,5
		c0.8,0.4,2.5,0,2.9-1.3l2.9-11.3c0.4-1.3,2.5-2.1,3.4-0.4l4.6,7.1"/>
	<path class="st0" d="M25.2,128.9c0,0,19.3,18.9,35.6,15.5c0,0,5.9-2.5,28.1,3.4s39.4-4.6,43.2-7.5c0,0,8.4-5.9,20.9-4.6
		c0,0,29.3,1.3,46.9-23.5c0,0,8.4-13.4-2.9-25.1c0,0-9.2-11.7-24.7-22.6c0,0-13.4-16.8-24.7,0.8c0,0-18.9,5.9-31.8,27.6
		c0,0-11.7-8.4-19.3-0.8l-8,5.4c-1.3,0.8-3.8,1.3-5.9,0.8c-2.1-0.4-5-0.8-10.1,0c0,0-16.8-0.4-22.2,2.5c0,0-15.1,7.5-18.9,13.4
		C31.9,115.1,24.4,125.6,25.2,128.9z"/>
	<path class="st9" d="M166.4,103.4c0,0-9.6,3.8-21.8-3.8c0,0-2.9-15.1,4.2-27.6c0,0,11.7-6.3,24.7-2.9c0,0,6.7,19.3,4.2,28.5
		L166.4,103.4z"/>
	<path class="st10" d="M143.8,67.3c0,0-3.4,9.6,2.5,9.2"/>
	<path class="st11" d="M165.6,64.8c0,0,13.8-2.1,14.2,5.9c0,0-0.8,4.2-4.2,5.9"/>
	<path class="st10" d="M91.4,119.7c0,0-10.1-34.4-29.7-3.8"/>
	<path class="st12" d="M128.7,171.6c0,0,0,18.9,12.1,33.1c0,0,19.3,9.2,47.3-3.4c0,0,18.9-6.7,33.5-26c0,0,0-4.6-5.9-13.8
		c0,0-1.3,9.2-10.1,10.9c0,0-26.4,0.4-36.9,12.1c0,0-4.2,5-14.2,0C155.5,185,135.8,176.2,128.7,171.6z"/>
	<path class="st13" d="M61.7,122.6c0,0,2.1-6.3,6.3-10.9c5.9-6.7,16.3-4.6,18.9,3.8c0.8,2.5,1.3,5,1.3,9.2c0,0-2.9,2.5-8-3.8
		c0,0-6.7-4.6-13,2.5C67.1,122.6,62.5,127.6,61.7,122.6z"/>
	<path class="st14" d="M64.6,119.7c0,0,4.6-11.7,13.4-10.5c0,0,6.7,0.4,7.1,11.7c0,0-2.1,1.3-6.3-2.5c0,0-6.3-2.9-10.1,1.3
		C68.4,119.7,65.5,123,64.6,119.7z"/>
	<path class="st10" d="M106.9,110.5c0,0-17.6-7.1-19.3-11.3"/>
	<path class="st10" d="M192.4,177.9c0,0-46.1,18.4-70.4-18.9"/>
	<path class="st10" d="M174.4,199.7c0,0-36,9.6-51.1-11.3"/>
	<path class="st10" d="M179.8,113.8c0,0,27.2-11.3,31,10.5"/>
	<g>
		<ellipse transform="matrix(0.1685 -0.9857 0.9857 0.1685 49.5445 232.6704)" class="st3" cx="162.7" cy="87" rx="13.4" ry="8.4"/>
		<ellipse transform="matrix(0.1685 -0.9857 0.9857 0.1685 47.5862 234.5714)" cx="162.8" cy="89.1" rx="6.7" ry="3.8"/>
		<circle class="st2" cx="161" cy="82.4" r="2.5"/>
	</g>
	<path class="st8" d="M117.8,148.2c0,0,1.3-10.1,6.7-2.1"/>
	<path class="st8" d="M143.8,136.4c0,0,3.4-4.2,5-0.4"/>
</g>
<path class="st11" d="M121.9,142.6l0.4-5.9l0.8-17.2c0-0.4,0.4-0.4,0.8-0.4l8,10.1"/>
<line class="st10" x1="128.1" y1="134.1" x2="125.6" y2="127.8"/>
<path class="st8" d="M120.6,140.5v-19.3c0,0,0.8-3.8,3.4,0.4c2.9,4.2,9.2,20.5,9.2,20.5S123.9,142.2,120.6,140.5z"/>
<line class="st10" x1="126.3" y1="126.9" x2="127.5" y2="134.9"/>
<path class="st15" d="M129.5,120c0,0,4.6,16.8-2.9,21.8c0,0,0.4-9.2-3.8-13.8C122.8,128,125.8,126.3,129.5,120z"/>
<path class="st0" d="M102.6,138.7l10.9,0.4c0,0,4.6-17.2,37.7-16.3"/>
<line class="st11" x1="124.4" y1="133.2" x2="129.4" y2="128.6"/>
<path class="st16" d="M121.4,130.7c0,0,8,0.4,11.7,6.3l0.4-2.9c0,0-6.7-9.2-13.4-9.2L121.4,130.7z"/>
<path class="st17" d="M102.1,112.4c0,0-9.2,6.7-1.3,8c0,0,5.9,1.3,13.8-0.4c2.1-0.4,3.4-0.8,5-0.8c8.4,0,29.7,5,29.3,34.8
	c0,0.8,1.3,1.3,2.1,0.4c3.4-5.9,9.6-20.5-0.8-36.4C149.5,118.3,138.6,97.7,102.1,112.4z"/>
<path d="M119.5,136.6c0,0,2.9-9.6,14.7-11.3v5.9C134.6,130.7,126.2,129,119.5,136.6z"/>
<path d="M133.6,140.8c0,0,0.4-9.2-13.4-13.4l2.1-6.3C122.3,121.1,134.4,122.8,133.6,140.8z"/>
<line class="st11" x1="128.6" y1="132" x2="125.2" y2="129.9"/>
<path class="st16" d="M120.2,128.7c0,0,14.2-3.4,13.4,5"/>
<line class="st11" x1="128.6" y1="131.3" x2="125.2" y2="130.5"/>
</svg>
