
<svg xmlns="http://www.w3.org/2000/svg" xmlns:xlink="http://www.w3.org/1999/xlink" width="250px" height="250px" viewBox="0 0 250 250" version="1.1">
<g id="surface1">
<path style=" stroke:none;fill-rule:evenodd;fill:rgb(97.254902%,56.470591%,13.333334%);fill-opacity:1;" d="M 250 125 C 250 194.035156 194.035156 250 125 250 C 55.964844 250 0 194.035156 0 125 C 0 55.964844 55.964844 0 125 0 C 194.035156 0 250 55.964844 250 125 Z M 250 125 "/>
<path style=" stroke:none;fill-rule:evenodd;fill:rgb(100%,100%,100%);fill-opacity:1;" d="M 218.75 148.140625 L 200.28125 148.140625 L 187.179688 136.921875 L 174.125 148.09375 L 158.515625 148.09375 L 151.054688 139.03125 L 125.335938 139.03125 L 131.84375 130.992188 L 144.492188 130.992188 L 134.859375 119.210938 L 101.226562 160.15625 L 85.625 160.15625 L 95.359375 148.265625 L 79.101562 148.265625 L 70.3125 123.625 L 61.59375 148.078125 L 45.101562 148.078125 L 31.25 109.695312 L 43.90625 109.695312 L 53.21875 135.835938 L 62.5 109.8125 L 78.125 109.8125 L 87.382812 135.78125 L 96.632812 109.804688 L 109.328125 109.804688 L 95.359375 148.265625 L 98.46875 144.46875 L 127 109.742188 L 142.703125 109.742188 L 166.445312 138.710938 L 177.867188 128.890625 L 141.71875 97.65625 L 160.273438 97.65625 Z M 200.429688 124.921875 L 191.71875 117.453125 L 200.414062 110.046875 L 217.992188 110.0625 Z M 200.429688 124.921875 "/>
</g>
</svg>
