
<svg xmlns="http://www.w3.org/2000/svg" xmlns:xlink="http://www.w3.org/1999/xlink" width="250px" height="250px" viewBox="0 0 250 250" version="1.1">
<g id="surface1">
<path style=" stroke:none;fill-rule:nonzero;fill:rgb(35.294119%,33.333334%,39.215687%);fill-opacity:1;" d="M 203.847656 52.464844 L 196.984375 59.332031 C 230.933594 96.457031 230.933594 153.359375 196.984375 190.484375 L 203.847656 197.351562 C 241.621094 156.378906 241.621094 93.277344 203.847656 52.304688 Z M 203.847656 52.464844 "/>
<path style=" stroke:none;fill-rule:nonzero;fill:rgb(35.294119%,33.333334%,39.215687%);fill-opacity:1;" d="M 59.492188 53.0625 C 96.617188 19.109375 153.519531 19.109375 190.644531 53.0625 L 197.511719 46.195312 C 156.539062 8.425781 93.4375 8.425781 52.464844 46.195312 Z M 59.492188 53.0625 "/>
<path style=" stroke:none;fill-rule:nonzero;fill:rgb(35.294119%,33.333334%,39.215687%);fill-opacity:1;" d="M 53.0625 190.554688 C 19.152344 153.4375 19.152344 96.585938 53.0625 59.46875 L 46.195312 52.605469 C 8.425781 93.574219 8.425781 156.675781 46.195312 197.648438 Z M 53.0625 190.554688 "/>
<path style=" stroke:none;fill-rule:nonzero;fill:rgb(35.294119%,33.333334%,39.215687%);fill-opacity:1;" d="M 190.554688 196.894531 C 153.425781 230.84375 96.527344 230.84375 59.398438 196.894531 L 52.535156 203.757812 C 93.507812 241.527344 156.609375 241.527344 197.578125 203.757812 Z M 190.554688 196.894531 "/>
<path style=" stroke:none;fill-rule:nonzero;fill:rgb(94.117647%,57.254905%,25.882354%);fill-opacity:1;" d="M 168.335938 102.097656 C 166.964844 87.773438 154.609375 82.96875 138.980469 81.503906 L 138.980469 61.777344 L 126.898438 61.777344 L 126.898438 81.136719 C 123.71875 81.136719 120.46875 81.136719 117.242188 81.136719 L 117.242188 61.777344 L 105.253906 61.777344 L 105.253906 81.640625 L 80.746094 81.640625 L 80.746094 94.566406 C 80.746094 94.566406 89.671875 94.40625 89.535156 94.566406 C 92.878906 94.199219 95.914062 96.546875 96.398438 99.875 L 96.398438 154.242188 C 96.328125 155.382812 95.800781 156.449219 94.933594 157.195312 C 94.082031 157.953125 92.960938 158.335938 91.820312 158.246094 C 91.984375 158.382812 83.035156 158.246094 83.035156 158.246094 L 80.746094 172.683594 L 105.023438 172.683594 L 105.023438 192.867188 L 117.105469 192.867188 L 117.105469 172.980469 L 126.761719 172.980469 L 126.761719 192.773438 L 138.867188 192.773438 L 138.867188 172.820312 C 159.277344 171.585938 173.507812 166.550781 175.292969 147.445312 C 176.734375 132.070312 169.503906 125.207031 157.949219 122.4375 C 164.972656 118.980469 169.320312 112.574219 168.335938 102.097656 Z M 151.40625 145.066406 C 151.40625 160.078125 125.6875 158.359375 117.496094 158.359375 L 117.496094 131.726562 C 125.6875 131.75 151.40625 129.394531 151.40625 145.066406 Z M 145.800781 107.542969 C 145.800781 121.269531 124.335938 119.601562 117.519531 119.601562 L 117.519531 95.390625 C 124.335938 95.390625 145.800781 93.242188 145.800781 107.542969 Z M 145.800781 107.542969 "/>
<path style=" stroke:none;fill-rule:nonzero;fill:rgb(15.686275%,12.941177%,21.960784%);fill-opacity:1;" d="M 124.976562 250 C 55.949219 249.988281 -0.00390625 194.023438 0 124.992188 C 0.00390625 55.960938 55.960938 0.00390625 124.992188 0 C 194.023438 -0.00390625 249.988281 55.949219 250 124.976562 C 250.011719 194.03125 194.03125 250.011719 124.976562 250 Z M 124.976562 9.746094 C 61.378906 9.796875 9.859375 61.378906 9.882812 124.976562 C 9.910156 188.574219 61.472656 240.117188 125.070312 240.117188 C 188.664062 240.117188 240.226562 188.574219 240.253906 124.976562 C 240.265625 94.40625 228.121094 65.082031 206.5 43.46875 C 184.878906 21.855469 155.550781 9.722656 124.976562 9.746094 Z M 124.976562 9.746094 "/>
</g>
</svg>
