<svg height="250" viewBox="0 0 250 250" width="250" xmlns="http://www.w3.org/2000/svg"><g fill="#5a5564"><path d="m203.847656 52.464844-6.863281 6.867187c33.949219 37.125 33.949219 94.027344 0 131.152344l6.863281 6.867187c37.773438-40.972656 37.773438-104.074218 0-145.046874zm0 0"/><path d="m59.492188 53.0625c37.125-33.953125 94.027343-33.953125 131.152343 0l6.867188-6.867188c-40.972657-37.769531-104.074219-37.769531-145.046875 0zm0 0"/><path d="m53.0625 190.554688c-33.910156-37.117188-33.910156-93.96875 0-131.085938l-6.867188-6.863281c-37.769531 40.96875-37.769531 104.070312 0 145.042969zm0 0"/><path d="m190.554688 196.894531c-37.128907 33.949219-94.027344 33.949219-131.15625 0l-6.863282 6.863281c40.972656 37.769532 104.074219 37.769532 145.042969 0zm0 0"/></g><path d="m168.335938 102.097656c-1.371094-14.324218-13.726563-19.128906-29.355469-20.59375v-19.726562h-12.082031v19.359375c-3.179688 0-6.429688 0-9.65625 0v-19.359375h-11.988282v19.863281h-24.507812v12.925781s8.925781-.160156 8.789062 0c3.34375-.367187 6.378906 1.980469 6.863282 5.308594v54.367188c-.070313 1.140624-.597657 2.207031-1.464844 2.953124-.851563.757813-1.972656 1.140626-3.113282 1.050782.164063.136718-8.785156 0-8.785156 0l-2.289062 14.4375h24.277344v20.183594h12.082031v-19.886719h9.65625v19.792969h12.105469v-19.953126c20.410156-1.234374 34.640624-6.269531 36.425781-25.375 1.441406-15.375-5.789063-22.238281-17.34375-25.007812 7.023437-3.457031 11.371093-9.863281 10.386719-20.339844zm-16.929688 42.96875c0 15.011719-25.71875 13.292969-33.910156 13.292969v-26.632813c8.191406.023438 33.910156-2.332031 33.910156 13.339844zm-5.605469-37.523437c0 13.726562-21.464843 12.058593-28.28125 12.058593v-24.210937c6.816407 0 28.28125-2.148437 28.28125 12.152344zm0 0" fill="#f09242"/><path d="m124.976562 250c-69.027343-.011719-124.98046825-55.976562-124.976562-125.007812s55.960938-124.98828175 124.992188-124.992188 124.996093 55.949219 125.007812 124.976562c.011719 69.054688-55.96875 125.035157-125.023438 125.023438zm0-240.253906c-63.597656.050781-115.117187 51.632812-115.09375 115.230468.027344 63.597657 51.589844 115.140626 115.1875 115.140626 63.59375 0 115.15625-51.542969 115.183594-115.140626.011719-30.570312-12.132812-59.894531-33.753906-81.507812s-50.949219-33.746094-81.523438-33.722656zm0 0" fill="#282138"/></svg>