<svg height="250" viewBox="0 0 250 250" width="250" xmlns="http://www.w3.org/2000/svg"><path d="m70.085938 247.949219c62.835937 0 62.835937-.933594 73.492187-4.097657 13.921875-4.132812-39.3125-40.984374-73.492187-40.984374-34.179688 0-61.890626 10.09375-61.890626 22.542968 0 12.449219 27.710938 22.539063 61.890626 22.539063zm0 0"/><path d="m212.773438 56.269531 2.886718 3.113281-2.523437 3.414063c-81.953125 110.808594-129.164063 160.976563-149.195313 154.25-12.199218-4.101563-24.433594-16.425781-36.671875-34.324219-4.300781-6.292968-8.339843-12.917968-12.011719-19.507812-2.445312-4.390625-4.515624-8.394532-5.589843-10.648438-1.371094-2.878906-1.953125-4.652344-2.410157-6.976562-.027343-.144532-.027343-.144532-.054687-.28125-.191406-.988282-.257813-1.300782-.402344-1.839844-2.464843-9.292969-3.726562-18.921875-3.726562-28.714844 0-61.679687 50-111.679687 111.679687-111.679687 19.324219 0 37.945313 4.917969 54.449219 14.148437l.425781.265625c13.511719 9.410157 27.882813 22.335938 43.144532 38.78125zm-48.792969-30.226562c-14.929688-8.304688-31.75-12.722657-49.226563-12.722657-56.019531 0-101.433594 45.414063-101.433594 101.433594 0 8.902344 1.144532 17.648438 3.382813 26.085938.222656.835937.324219 1.308594.558594 2.515625.023437.128906.023437.128906.046875.25.296875 1.5.609375 2.457031 1.605468 4.550781.980469 2.058594 2.953126 5.867188 5.292969 10.070312 3.53125 6.335938 7.410157 12.699219 11.523438 18.714844 11.054687 16.167969 22.015625 27.214844 31.476562 30.390625 12.613281 4.238281 60.101563-46.03125 135.148438-147.195312-13.625-14.378907-26.425781-25.746094-38.375-34.09375zm0 0"/><path d="m163.980469 26.042969c-14.929688-8.304688-31.75-12.722657-49.226563-12.722657-56.019531 0-101.433594 45.414063-101.433594 101.433594 0 8.902344 1.144532 17.648438 3.382813 26.085938.222656.835937.324219 1.308594.558594 2.515625.023437.128906.023437.128906.046875.25.296875 1.5.609375 2.457031 1.605468 4.550781.980469 2.058594 2.953126 5.867188 5.292969 10.070312 3.53125 6.335938 7.410157 12.699219 11.523438 18.714844 11.054687 16.167969 22.015625 27.214844 31.476562 30.390625 12.613281 4.238281 60.101563-46.03125 135.148438-147.195312-13.625-14.378907-26.425781-25.746094-38.375-34.09375zm0 0" fill="#ec1c79"/><path d="m135.246094 246.925781c-61.679688 0-111.679688-50-111.679688-111.679687 0-61.679688 50-111.679688 111.679688-111.679688 61.679687 0 111.679687 50 111.679687 111.679688 0 61.679687-50 111.679687-111.679687 111.679687zm0-10.246093c56.019531 0 101.433594-45.414063 101.433594-101.433594 0-56.019532-45.414063-101.433594-101.433594-101.433594-56.019532 0-101.433594 45.414062-101.433594 101.433594 0 56.019531 45.414062 101.433594 101.433594 101.433594zm0 0"/><path d="m135.246094 236.679688c56.019531 0 101.433594-45.414063 101.433594-101.433594 0-56.019532-45.414063-101.433594-101.433594-101.433594-56.019532 0-101.433594 45.414062-101.433594 101.433594 0 56.019531 45.414062 101.433594 101.433594 101.433594zm0 0" fill="#fff"/><path d="m59.367188 156.023438-13.425782-40.449219h11.761719l7 23.238281 7.746094-23.351562h9.582031l7.746094 23.351562 7-23.238281h11.535156l-13.425781 40.449219h-9.699219l-8.089844-23.121094-8.03125 23.121094zm53.363281-.285157v-40.164062h32.300781v9.464843h-21.285156v6.082032h19.277344v8.78125h-19.277344v6.367187h21.574218v9.46875zm48.082031 0v-30.410156h-12.050781v-9.753906h35.230469v9.753906h-12.050782v30.410156zm28.054688 0v-40.164062h11.132812v15.03125h14.285156v-15.03125h11.132813v40.164062h-11.132813v-15.261719h-14.285156v15.261719zm0 0" fill-rule="evenodd"/><path d="m9.730469 103.492188c-2.835938-1.417969-3.984375-4.863282-2.566407-7.699219 1.417969-2.832031 4.863282-3.980469 7.695313-2.5625l16.394531 8.195312c2.835938 1.417969 3.984375 4.863281 2.566406 7.699219-1.417968 2.832031-4.863281 3.980469-7.699218 2.5625zm0 0"/><path d="m7.839844 130.675781c-2.875-1.328125-4.132813-4.738281-2.804688-7.613281 1.328125-2.878906 4.738282-4.136719 7.613282-2.808594l16.394531 7.566406c2.878906 1.328126 4.132812 4.738282 2.804687 7.613282-1.328125 2.878906-4.734375 4.132812-7.613281 2.808594zm0 0"/></svg>