<svg height="250" viewBox="0 0 250 250" width="250" xmlns="http://www.w3.org/2000/svg"><g fill="#393c4c"><path d="m126.820312 160.253906.574219 9.265625.890625-8.359375 6.121094-49.152344h3.460938l5.988281 49.152344.84375 8.5625.667969-9.46875 4.835937-48.148437h4.125l-7.542969 70.410156h-3.726562l-6.390625-51.371094-.488281-5.339843-.488282 5.339843-6.609375 51.371094h-3.726562l-7.5-70.410156h4.082031zm0 0"/><path d="m162.800781 182.414062h-4.082031v-70.40625h4.082031zm0 0"/><path d="m193.417969 182.414062h-4.128907l-15.617187-54.292968v54.292968h-4.125v-70.40625h4.125l15.664063 54.492188v-54.492188h4.082031zm0 0"/><path d="m222.878906 173.246094c-1.066406 3.425781-2.53125 5.945312-4.394531 7.65625-1.863281 1.710937-4.082031 2.519531-6.566406 2.519531-2.527344 0-4.789063-1.3125-6.742188-4.03125s-3.460937-6.546875-4.570312-11.480469c-1.066407-4.9375-1.640625-10.679687-1.640625-17.226562v-6.144532c0-10.574218 1.109375-18.835937 3.28125-24.675781 2.175781-5.84375 5.234375-8.761719 9.183594-8.761719 3.242187 0 5.859374 1.914063 7.808593 5.640626 1.953125 3.726562 3.195313 9.0625 3.640625 16.011718h-4.082031c-.753906-9.367187-3.195313-14-7.320313-14-2.75 0-4.835937 2.21875-6.210937 6.546875-1.421875 4.332031-2.132813 10.679688-2.132813 19.039063v5.742187c0 7.957031.800782 14.199219 2.398438 18.835938 1.597656 4.632812 3.726562 6.949219 6.476562 6.949219 1.554688 0 2.882813-.402344 4.039063-1.109376 1.152344-.804687 2.085937-2.113281 2.839844-3.929687v-15.8125h-7.1875v-7.554687h11.269531zm0 0"/><path d="m238.140625 151.085938c-3.503906-2.316407-6.078125-5.136719-7.675781-8.460938-1.597656-3.320312-2.394532-7.453125-2.394532-12.386719 0-5.539062.976563-10.171875 2.925782-13.800781 1.953125-3.625 4.484375-5.4375 7.632812-5.4375 2.128906 0 4.039063.90625 5.679688 2.820312 1.6875 1.914063 2.972656 4.429688 3.859375 7.753907.933593 3.324219 1.375 6.851562 1.375 10.777343h-4.125c0-4.230468-.578125-7.652343-1.773438-10.070312-1.199219-2.417969-2.886719-3.625-5.058593-3.625-1.996094 0-3.59375 1.003906-4.703126 3.019531-1.109374 2.015625-1.6875 4.835938-1.6875 8.359375 0 2.921875.53125 5.339844 1.597657 7.253906 1.066406 2.015626 2.882812 3.828126 5.457031 5.4375 2.574219 1.613282 4.613281 3.425782 6.035156 5.441407 1.464844 2.011719 2.527344 4.328125 3.238282 6.949219.710937 2.617187 1.066406 5.742187 1.066406 9.367187 0 5.742187-.976563 10.273437-2.929688 13.699219-1.953125 3.425781-4.570312 5.136718-7.851562 5.136718-2.132813 0-4.128906-.90625-5.945313-2.820312-1.867187-1.8125-3.285156-4.433594-4.261719-7.65625-1.019531-3.222656-1.507812-6.847656-1.507812-10.976562h4.125c0 4.230468.710938 7.652343 2.085938 10.070312s3.238281 3.726562 5.546874 3.726562c2.175782 0 3.816407-1.007812 4.96875-3.019531 1.152344-2.015625 1.730469-4.734375 1.730469-8.160156s-.53125-6.144531-1.597656-7.957031c-1.0625-1.8125-3.015625-3.625-5.8125-5.441406zm0 0"/><path d="m7.867188 48.246094 59.761718 6.648437 13.933594 64.667969-20.941406 44.015625-8.785156-82.496094zm0 0"/></g><path d="m13.855469 250.503906 98.855469-211.121094 8.738281 53.386719-11.179688-8.867187v53.890625zm0 0" fill="#a9d6e6"/><path d="m-.253906.605469 73.34375 10.171875 28.394531 137.289062-29.636719 34.648438-16.109375-140.511719zm0 0" fill="#5ab9e1"/></svg>