
<svg xmlns="http://www.w3.org/2000/svg" xmlns:xlink="http://www.w3.org/1999/xlink" width="250px" height="250px" viewBox="0 0 250 250" version="1.1">
<g id="surface1">
<path style=" stroke:none;fill-rule:nonzero;fill:rgb(24.705882%,45.09804%,69.803923%);fill-opacity:1;" d="M 44.484375 182.089844 L 44.484375 216.40625 L 89.078125 191.160156 C 99.550781 185.226562 111.421875 182.089844 123.410156 182.089844 L 123.410156 160.640625 C 107.851562 160.640625 92.445312 164.710938 78.851562 172.40625 L 65.53125 179.949219 L 65.53125 160.640625 L 44.484375 160.640625 L 44.484375 90.921875 L 44.503906 90.921875 C 70.933594 90.921875 82.640625 101.953125 108.289062 126.117188 L 108.296875 126.121094 L 108.546875 126.359375 C 111.035156 128.703125 113.632812 131.148438 116.359375 133.695312 C 119.15625 136.300781 121.753906 138.800781 124.292969 141.195312 C 151.363281 166.695312 167.703125 182.089844 202.371094 182.089844 L 223.4375 182.089844 L 223.4375 69.472656 L 202.390625 69.472656 L 202.390625 35.15625 L 157.800781 60.402344 C 147.324219 66.335938 135.457031 69.472656 123.46875 69.472656 L 123.46875 90.921875 C 139.023438 90.921875 154.429688 86.851562 168.023438 79.15625 L 181.34375 71.613281 L 181.34375 90.921875 L 202.390625 90.921875 L 202.390625 160.640625 L 202.371094 160.640625 C 175.945312 160.640625 164.234375 149.609375 138.585938 125.445312 L 138.582031 125.441406 C 136.015625 123.023438 133.390625 120.5 130.570312 117.867188 C 127.777344 115.261719 125.121094 112.761719 122.582031 110.371094 C 95.511719 84.867188 79.171875 69.472656 44.503906 69.472656 L 23.4375 69.472656 L 23.4375 182.089844 Z M 44.484375 182.089844 "/>
</g>
</svg>
