<svg height="250" viewBox="0 0 250 250" width="250" xmlns="http://www.w3.org/2000/svg"><path d="m44.484375 182.089844v34.316406l44.59375-25.246094c10.472656-5.933594 22.34375-9.070312 34.332031-9.070312v-21.449219c-15.558594 0-30.964844 4.070313-44.558594 11.765625l-13.320312 7.542969v-19.308594h-21.046875v-69.71875h.019531c26.429688 0 38.136719 11.03125 63.785156 35.195313l.007813.003906.25.238281c2.488281 2.34375 5.085937 4.789063 7.8125 7.335937 2.796875 2.605469 5.394531 5.105469 7.933594 7.5 27.070312 25.5 43.410156 40.894532 78.078125 40.894532h21.066406v-112.617188h-21.046875v-34.316406l-44.589844 25.246094c-10.476562 5.933594-22.34375 9.070312-34.332031 9.070312v21.449219c15.554688 0 30.960938-4.070313 44.554688-11.765625l13.320312-7.542969v19.308594h21.046875v69.71875h-.019531c-26.425782 0-38.136719-11.03125-63.785156-35.195313l-.003907-.003906c-2.566406-2.417968-5.191406-4.941406-8.011719-7.574218-2.792968-2.605469-5.449218-5.105469-7.988281-7.496094-27.070312-25.503906-43.410156-40.898438-78.078125-40.898438h-21.066406v112.617188zm0 0" fill="#3f73b2"/></svg>