<svg height="250" viewBox="0 0 250 250" width="250" xmlns="http://www.w3.org/2000/svg"><path d="m250 125c0 69.035156-55.964844 125-125 125s-125-55.964844-125-125 55.964844-125 125-125 125 55.964844 125 125zm0 0" fill="#212630"/><path d="m210.714844 64.09375h-28.644532l-13.210937 45.378906h28.265625zm-51.425782 78.230469-14.125-35.089844c-3.21875-8.871094-11.3125-14.730469-20.339843-14.730469-8.941407 0-16.972657 5.742188-20.253907 14.488282l-14.691406 35.332031-22.390625-78.230469h-28.203125l33.496094 114.574219c1.269531 4.304687 5.058594 7.238281 9.347656 7.238281h16.1875c4.003906 0 7.605469-2.5625 9.089844-6.472656l17.339844-45.011719 17.652344 45.066406c1.5 3.882813 5.085937 6.417969 9.070312 6.417969h15.933594c4.273437 0 8.050781-2.910156 9.335937-7.195312l15.902344-54.285157h-28.136719zm0 0" fill="#fff"/></svg>