
<svg xmlns="http://www.w3.org/2000/svg" xmlns:xlink="http://www.w3.org/1999/xlink" width="250px" height="250px" viewBox="0 0 250 250" version="1.1">
<g id="surface1">
<path style=" stroke:none;fill-rule:nonzero;fill:rgb(12.941177%,14.901961%,18.82353%);fill-opacity:1;" d="M 250 125 C 250 194.035156 194.035156 250 125 250 C 55.964844 250 0 194.035156 0 125 C 0 55.964844 55.964844 0 125 0 C 194.035156 0 250 55.964844 250 125 Z M 250 125 "/>
<path style=" stroke:none;fill-rule:nonzero;fill:rgb(100%,100%,100%);fill-opacity:1;" d="M 210.714844 64.09375 L 182.070312 64.09375 L 168.859375 109.472656 L 197.125 109.472656 Z M 159.289062 142.324219 L 145.164062 107.234375 C 141.945312 98.363281 133.851562 92.503906 124.824219 92.503906 C 115.882812 92.503906 107.851562 98.246094 104.570312 106.992188 L 89.878906 142.324219 L 67.488281 64.09375 L 39.285156 64.09375 L 72.78125 178.667969 C 74.050781 182.972656 77.839844 185.90625 82.128906 185.90625 L 98.316406 185.90625 C 102.320312 185.90625 105.921875 183.34375 107.40625 179.433594 L 124.746094 134.421875 L 142.398438 179.488281 C 143.898438 183.371094 147.484375 185.90625 151.46875 185.90625 L 167.402344 185.90625 C 171.675781 185.90625 175.453125 182.996094 176.738281 178.710938 L 192.640625 124.425781 L 164.503906 124.425781 Z M 159.289062 142.324219 "/>
</g>
</svg>
