<?xml version="1.0" encoding="utf-8"?>
<!-- Generator: Adobe Illustrator 21.1.0, SVG Export Plug-In . SVG Version: 6.00 Build 0)  -->
<svg version="1.1" id="Layer_1" xmlns="http://www.w3.org/2000/svg" xmlns:xlink="http://www.w3.org/1999/xlink" x="0px" y="0px"
	 viewBox="0 0 1024 1024" style="enable-background:new 0 0 1024 1024;" xml:space="preserve">
<style type="text/css">
	.st0{display:none;}
	.st1{display:inline;fill:#1E313F;}
	.st2{display:inline;opacity:0.2;fill:#FFFFFF;enable-background:new    ;}
	.st3{display:inline;fill:#FFFFFF;}
	.st4{display:inline;fill:url(#SVGID_1_);}
	.st5{display:inline;fill:url(#SVGID_2_);}
	.st6{display:inline;}
	.st7{fill:#FFFFFF;}
	.st8{fill:#00C483;}
	.st9{fill:#1E313F;}
	.st10{opacity:0.2;fill:#FFFFFF;enable-background:new    ;}
	.st11{fill:#F9FBFD;}
	.st12{fill:url(#SVGID_3_);}
	.st13{fill:url(#SVGID_4_);}
	.st14{fill:#1A82FF;}
</style>
<g id="OGV" class="st0">
	
		<ellipse transform="matrix(1 -3.350981e-03 3.350981e-03 1 -1.7051 1.7293)" class="st1" cx="515.2" cy="509.7" rx="407.2" ry="407.2"/>
	<path class="st2" d="M769.7,762.5c139.6-140.6,138.9-367.7-1.7-507.3s-367.7-138.9-507.3,1.7L769.7,762.5z"/>
	<path class="st3" d="M735.3,388.4L689,341.7l-25.2,25.6c-0.1-0.1-0.2-0.2-0.3-0.3L643,387.7L516.9,515.5l-79.8-80.9
		c-16.5,17.2-27.4,39.8-29.8,64.8l109.6,111.1l124-125.7c1.6,8,2.4,16.3,2.4,24.8c0,70.6-57.5,128.1-128.1,128.1
		s-128.1-57.5-128.1-128.1s57.5-128.1,128.1-128.1c29,0,55.8,9.7,77.3,26l54.9-55.7c-35.8-30-81.9-48.2-132.2-48.2
		c-113.5,0-205.9,92.4-205.9,205.9c0,113.6,92.4,205.9,205.9,205.9S721.1,623,721.1,509.5c0-31.2-7-60.7-19.4-87.2L735.3,388.4z"/>
	
		<linearGradient id="SVGID_1_" gradientUnits="userSpaceOnUse" x1="379.9359" y1="588.5523" x2="478.0091" y2="500.5898" gradientTransform="matrix(1 0 0 -1 0 1024)">
		<stop  offset="0" style="stop-color:#1D313F"/>
		<stop  offset="1" style="stop-color:#FFFFFF"/>
	</linearGradient>
	<path class="st4" d="M516.9,610.5L407.4,499.4c2.4-25.1,13.3-47.6,29.8-64.8l79.8,80.9L516.9,610.5L516.9,610.5z"/>
</g>
<g id="veOGV" class="st0">
	
		<ellipse transform="matrix(1 -3.350981e-03 3.350981e-03 1 -1.7051 1.7293)" class="st1" cx="515.2" cy="509.7" rx="407.2" ry="407.2"/>
	<path class="st2" d="M769.7,762.5c139.6-140.6,138.9-367.7-1.7-507.3s-367.7-138.9-507.3,1.7L769.7,762.5z"/>
	<path class="st3" d="M663.5,366.9L643,387.7l0,0L516.9,515.5l-79.8-80.9c-16.5,17.2-27.4,39.8-29.8,64.8l109.6,111.1l124-125.7
		c1.6,8,2.4,16.3,2.4,24.8c0,70.6-57.5,128.1-128.1,128.1s-128.1-57.5-128.1-128.1s57.5-128.1,128.1-128.1c29,0,55.8,9.7,77.3,26
		l54.9-55.7c-35.8-30-81.9-48.2-132.2-48.2c-113.5,0-205.9,92.4-205.9,205.9c0,113.6,92.4,205.9,205.9,205.9S721.1,623,721.1,509.5
		C721.1,454.3,699.2,403.9,663.5,366.9z"/>
	<polygon class="st3" points="562.9,469.5 689,341.7 735.3,388.4 611.4,514.1 	"/>
	
		<linearGradient id="SVGID_2_" gradientUnits="userSpaceOnUse" x1="379.9359" y1="588.5523" x2="478.0091" y2="500.5898" gradientTransform="matrix(1 0 0 -1 0 1024)">
		<stop  offset="0" style="stop-color:#1D313F"/>
		<stop  offset="1" style="stop-color:#FFFFFF"/>
	</linearGradient>
	<path class="st5" d="M516.9,610.5L407.4,499.4c2.4-25.1,13.3-47.6,29.8-64.8l79.8,80.9L516.9,610.5L516.9,610.5z"/>
	<g class="st6">
		<path class="st7" d="M212,1009.1c-109.2,0-198-88.8-198-198s88.8-198,198-198s198,88.8,198,198S321.2,1009.1,212,1009.1z"/>
		<path class="st8" d="M212,639.4c-94.6,0-171.6,77-171.6,171.6s77,171.6,171.6,171.6s171.6-77,171.6-171.6S306.7,639.4,212,639.4z"
			/>
		<g>
			<path class="st7" d="M131.2,750.7l27.5,91.7l27.3-91.7h44.4L185.5,884h-54L86.7,750.7H131.2z"/>
			<path class="st7" d="M281.5,783.8v16.6H323v31.4h-41.4v18.8h47.1V884h-88.8V750.7h88.8v33.1H281.5z"/>
		</g>
	</g>
</g>
<g id="wOUSD">
	<g>
		<g>
			<path class="st9" d="M513.8,102.5C288.9,103.3,107.2,286.2,108,511.1c0.1,42.3,6.7,83,18.8,121.3c25.8-12.4,54.7-19.3,85.2-19.3
				c109.2,0,198,88.8,198,198c0,30.9-7.1,60.2-19.8,86.3c39.8,12.8,82.3,19.7,126.4,19.5c224.9-0.8,406.6-183.7,405.8-408.6
				S738.7,101.7,513.8,102.5z"/>
			<path class="st10" d="M769.7,762.5c139.6-140.6,138.9-367.7-1.7-507.3s-367.7-138.9-507.3,1.7L769.7,762.5z"/>
		</g>
		<g>
			<path class="st11" d="M549.6,476.9c-3.5-0.7-7-1.4-10.4-2.1c-45.1-9.1-77.7-15.6-77.7-46.9c0-19.5,19.2-35,53.7-35
				c30.6,0,55.2,12.4,71,35.9l2.4,0.7l49-50.2l-0.2-1.9c-19.6-23.2-44.2-39.4-72.4-47.9l0,0c-3.8-1.2-7.7-2.2-11.7-3.1
				c-0.1,0-0.2,0-0.3-0.1c-1.4-0.3-2.8-0.6-4.2-0.8v-44.6h-67v44.6c-2.1,0.4-4.3,0.8-6.4,1.3c-0.1,0-0.2,0-0.4,0.1
				c-31.8,7.5-59.3,24.2-81,49.3c-9,15.2-13.6,33.4-13.6,54.4c0,71.9,54.2,94.7,107.2,107.5c9.8,2.4,19.4,4.1,28.8,5.8
				c33.1,6,61.8,11.1,61.8,41.1c0,18.5-20.4,41.7-63.1,41.7c-25.2,0-45.9-8.4-61.2-24c-0.9-0.9-2.1-1.8-2.9-2.8L393.3,640l-0.1,2
				c8.3,9.7,17.4,18.2,27.2,25.5c3.3,2.4,6.7,4.7,10.1,6.8c0.1,0,0.1,0.1,0.2,0.1c3.4,2.1,6.9,4,10.5,5.8c0.1,0.1,0.2,0.1,0.3,0.2
				c3.5,1.8,7.1,3.4,10.8,4.9c0.2,0.1,0.3,0.1,0.5,0.2c3.6,1.5,7.3,2.8,11.1,4c0.2,0.1,0.5,0.1,0.7,0.2c1.7,0.5,3.4,1,5.2,1.5
				c0.2,0,0.4,0.1,0.5,0.2c1.9,0.5,3.8,1,5.7,1.4c0.3,0.1,0.5,0.1,0.8,0.2c1.6,0.4,3.2,0.7,4.9,1v44.5h67v-44.6
				c1.2-0.2,2.4-0.4,3.6-0.7c0.2,0,0.4-0.1,0.7-0.1c4.6-1,9.2-2.2,13.6-3.6l0,0c2.2-0.7,4.4-1.5,6.6-2.3c24.7-9.1,46.2-24.2,64-45.1
				c6.6-7.8,12.5-16.3,17.7-25.3c2.6-9.9,4-20.7,4-32.4C658.8,507.9,600.5,486.7,549.6,476.9z"/>
			
				<linearGradient id="SVGID_3_" gradientUnits="userSpaceOnUse" x1="406.6811" y1="432.1428" x2="350.8633" y2="655.4139" gradientTransform="matrix(1 0 0 -1 0 1024)">
				<stop  offset="5.809295e-04" style="stop-color:#FFFFFF"/>
				<stop  offset="1" style="stop-color:#1E313F"/>
			</linearGradient>
			<path class="st12" d="M393.3,641.9c-3.3-3.8-6.3-7.9-9.3-12.1c-1.2-1.7-2.4-3.5-3.5-5.3c-0.3-0.4-0.6-0.8-0.8-1.3
				c-1.1-1.7-2.1-3.3-3.1-5c-0.3-0.6-0.7-1.1-1-1.7c-0.9-1.6-1.9-3.3-2.8-5c-0.3-0.7-0.7-1.3-1-2c-0.9-1.7-1.7-3.3-2.5-5.1
				c-0.3-0.7-0.7-1.4-1-2.1c-0.8-1.7-1.6-3.4-2.3-5.2c-0.3-0.7-0.6-1.4-0.8-2c-0.8-1.8-1.5-3.6-2.2-5.5c-0.1-0.4-0.3-0.8-0.4-1.2
				c-1.6-4.2-3-8.4-4.3-12.7c-0.1-0.4-0.2-0.7-0.3-1.1c-0.5-1.5-0.9-3.1-1.3-4.7c-0.3-1.2-0.7-2.4-1-3.6c-0.4-1.4-0.7-2.9-1-4.3
				c-0.3-1.4-0.6-2.7-0.9-4.1c-0.3-1.4-0.6-2.8-0.8-4.2c-0.3-1.5-0.6-3-0.8-4.5c-0.2-1.3-0.4-2.7-0.6-4c-0.2-1.6-0.5-3.2-0.7-4.8
				c-0.2-1.3-0.3-2.6-0.5-3.9c-0.2-1.7-0.4-3.5-0.5-5.2c-0.1-1.2-0.2-2.4-0.3-3.6c-0.1-2-0.3-4-0.3-6c0-1-0.1-2-0.2-3
				c-0.1-3-0.2-6-0.2-9.1c0-3,0.1-5.9,0.2-8.8c0-0.9,0.1-1.8,0.1-2.7c0.1-2,0.2-4.1,0.4-6.1c0.1-1,0.2-2,0.2-3.1
				c0.2-1.9,0.4-3.9,0.6-5.8c0.1-1,0.2-1.9,0.3-2.9c0.3-2.3,0.6-4.6,0.9-6.8c0.1-0.5,0.1-1.1,0.2-1.6c0.4-2.8,0.9-5.5,1.5-8.2
				c0.2-0.8,0.4-1.7,0.5-2.5c0.4-1.9,0.8-3.8,1.2-5.6c0.2-1,0.5-2,0.8-3.1c0.4-1.7,0.9-3.4,1.3-5.1c0.3-1,0.6-2,0.9-3
				c0.5-1.8,1.1-3.6,1.7-5.3c0.3-0.8,0.5-1.6,0.8-2.5c0.8-2.5,1.7-4.9,2.6-7.4c0.3-0.8,0.6-1.6,0.9-2.3c0.7-1.7,1.4-3.4,2.1-5
				c0.4-1,0.9-2,1.3-2.9c0.7-1.4,1.3-2.9,2-4.3c0.5-1,1-2,1.4-3c0.7-1.5,1.5-2.9,2.2-4.3c0.5-0.9,0.9-1.8,1.4-2.6
				c1.2-2.2,2.5-4.3,3.8-6.4c-2.7,10-4,20.9-4,32.4c0,39.5,16.8,69.7,49.8,90c1.8,35.7,12.1,63.5,29.9,81.6L393.3,641.9z"/>
			
				<linearGradient id="SVGID_4_" gradientUnits="userSpaceOnUse" x1="624.6263" y1="608.2323" x2="674.8623" y2="400.5901" gradientTransform="matrix(1 0 0 -1 0 1024)">
				<stop  offset="5.809295e-04" style="stop-color:#FFFFFF"/>
				<stop  offset="0.9967" style="stop-color:#4E5A64"/>
			</linearGradient>
			<path class="st13" d="M586.2,428.7c10.4,15.4,16.9,34.9,19.4,58.5c8.4,4.1,16,8.7,22.5,13.7c24.6,19.2,37,47.1,37,82.8
				c0,4.4-0.2,8.6-0.5,12.7c0-0.1,0.1-0.2,0.1-0.3c1.2-2.9,2.4-5.8,3.5-8.7c0.3-0.8,0.6-1.6,0.9-2.5c0.8-2.1,1.5-4.3,2.2-6.5
				c0.3-1,0.7-2.1,1-3.1c0.4-1.3,0.8-2.6,1.1-3.9c0.5-1.7,0.9-3.4,1.4-5.2c0.3-1.3,0.6-2.6,1-4c0.3-1.5,0.7-3,1-4.5
				c0.2-1,0.4-2,0.6-3c0.4-2.3,0.8-4.5,1.2-6.8c0.2-0.9,0.3-1.8,0.4-2.7c0.4-2.4,0.7-4.9,1-7.4c0.1-0.5,0.1-1,0.2-1.6
				c0.3-2.3,0.5-4.6,0.7-7c0.1-0.6,0.1-1.2,0.2-1.8c0.2-2.7,0.4-5.4,0.5-8.1c0-0.6,0-1.2,0.1-1.7c0.1-2.8,0.2-5.7,0.2-8.6
				c0-3.1-0.1-6.2-0.2-9.3c0-1-0.1-2-0.2-3c-0.1-2.1-0.2-4.2-0.4-6.2c-0.1-1.2-0.2-2.4-0.3-3.6c-0.2-1.8-0.3-3.6-0.5-5.5
				c-0.1-1.3-0.3-2.6-0.5-3.8c-0.2-1.7-0.4-3.4-0.7-5.1c-0.2-1.3-0.4-2.6-0.7-3.9c-0.3-1.6-0.6-3.2-0.9-4.8c-0.3-1.3-0.5-2.7-0.8-4
				c-0.3-1.5-0.7-3.1-1-4.6c-0.3-1.3-0.6-2.7-1-4c-0.4-1.5-0.8-3-1.2-4.4c-0.4-1.3-0.8-2.7-1.2-4c-0.4-1.4-0.9-2.8-1.3-4.3
				c-0.4-1.3-0.9-2.7-1.3-4c-0.5-1.4-1-2.7-1.5-4.1c-0.5-1.3-1-2.6-1.5-3.9s-1.1-2.6-1.6-3.9s-1.1-2.6-1.7-3.9
				c-0.6-1.3-1.2-2.5-1.7-3.8c-0.6-1.3-1.2-2.6-1.8-3.8c-0.6-1.2-1.2-2.4-1.9-3.6s-1.3-2.5-2-3.7c-0.6-1.2-1.3-2.3-2-3.4
				c-0.7-1.2-1.4-2.4-2.2-3.6c-0.7-1.1-1.4-2.2-2.1-3.3c-2.2-3.4-4.5-6.7-6.9-9.9l0,0c-1.7-2.3-3.5-4.5-5.4-6.7L586.2,428.7z"/>
		</g>
	</g>
	<path class="st14" d="M212,639.4c-94.6,0-171.6,77-171.6,171.6s77,171.6,171.6,171.6s171.6-77,171.6-171.6S306.7,639.4,212,639.4z"
		/>
	<g>
		<path class="st7" d="M315.7,749.6L284.3,887h-53.6l-15.9-78l-15.9,78h-53.6l-31.4-137.4h46.4l12.4,86.6l18.6-86.6h47l18.6,86.6
			l12.4-86.6H315.7z"/>
	</g>
</g>
</svg>
