<svg height="250" viewBox="0 0 250 250" width="250" xmlns="http://www.w3.org/2000/svg"><path d="m67.527344 165.796875-59.453125 26.132813-1.984375-165.507813 59.457031-20.324219zm0 0" fill="#8400fd"/><path d="m12.035156 197.734375c-2.574218 0-4.953125-1.160156-7.132812-3.191406-2.972656-2.90625-4.757813-7.550781-4.757813-12.488281v-150.40625c0-7.257813 3.765625-13.355469 8.917969-15.097657l48.554688-15.96875c3.765624-1.164062 7.730468-.292969 10.902343 2.902344 3.167969 3.195313 4.953125 8.128906 4.953125 13.355469v146.050781c0 7.261719-3.765625 13.9375-9.117187 15.972656l-48.949219 18.292969c-1.191406.289062-2.179688.578125-3.371094.578125zm43.402344-179.441406c-.59375 0-1.386719 0-1.980469.289062l-37.65625 13.9375c-3.367187 1.164063-5.945312 5.808594-5.945312 11.035157v130.660156c0 3.484375 1.191406 6.96875 3.171875 9.003906 1.980468 2.03125 4.359375 2.902344 6.738281 1.742188l38.050781-15.972657c3.566406-1.449219 6.144532-6.386719 6.144532-11.902343v-126.597657c0-3.773437-1.191407-7.257812-3.171876-9.582031-1.785156-1.742188-3.566406-2.613281-5.351562-2.613281zm0 0" fill="#fff"/><path d="m109.144531 220.964844-59.453125 26.132812-1.984375-165.507812 59.457031-20.324219zm0 0" fill="#02ffdb"/><path d="m55.042969 249.710938c-2.378907 0-4.757813-1.164063-6.738281-3.195313-2.777344-2.902344-4.558594-7.257813-4.558594-12.195313v-145.46875c0-6.96875 3.566406-13.066406 8.519531-14.519531l45.980469-15.390625c3.566406-1.160156 7.332031 0 10.304687 2.90625 2.972657 3.191406 4.558594 7.839844 4.558594 12.773438v141.40625c0 7.257812-3.566406 13.648437-8.71875 15.390625l-46.375 17.710937c-.992187.289063-1.984375.582032-2.972656.582032zm42.011719-179.152344c-.59375 0-1.386719 0-1.980469.289062l-37.65625 13.9375c-3.367188 1.160156-5.945313 5.808594-5.945313 11.035156v130.660157c0 3.484375 1.191406 6.96875 3.171875 9 1.984375 2.035156 4.359375 2.90625 6.738281 1.742187l38.050782-15.96875c3.566406-1.453125 6.144531-6.386718 6.144531-11.90625v-126.59375c0-3.777344-1.1875-7.261718-3.171875-9.582031-1.78125-1.742187-3.566406-2.613281-5.351562-2.613281zm0 0" fill="#fff"/><path d="m154.726562 168.699219-59.453124 26.132812-1.984376-165.503906 59.457032-20.328125zm0 0" fill="#8400fd"/><path d="m100.625 197.734375c-2.378906 0-4.757812-1.160156-6.738281-3.191406-2.777344-2.90625-4.558594-7.261719-4.558594-12.195313v-146.050781c0-6.96875 3.566406-13.066406 8.519531-14.519531l45.78125-15.390625c3.566406-1.160157 7.332032 0 10.304688 2.90625 2.972656 3.191406 4.558594 7.839843 4.558594 12.773437v141.695313c0 7.261719-3.566407 13.648437-8.71875 15.390625l-46.175782 17.710937c-.992187.582031-1.984375.871094-2.972656.871094zm42.011719-179.441406c-.59375 0-1.386719 0-1.980469.289062l-37.851562 13.9375c-3.371094 1.164063-5.945313 5.808594-5.945313 11.035157v130.660156c0 3.484375 1.1875 6.96875 3.167969 9.003906 1.984375 2.03125 4.558594 2.902344 6.9375 1.742188l37.851562-15.972657c3.570313-1.449219 6.144532-6.386719 6.144532-11.902343v-126.597657c0-3.773437-1.1875-7.257812-3.171876-9.582031-1.582031-1.742188-3.367187-2.613281-5.152343-2.613281zm0 0" fill="#fff"/><path d="m200.308594 220.964844-59.453125 26.132812-1.984375-165.507812 59.457031-20.324219zm0 0" fill="#02ffdb"/><path d="m144.816406 250c-2.574218 0-4.953125-1.160156-7.132812-3.195312-2.972656-2.902344-4.757813-7.546876-4.757813-12.484376v-150.40625c0-7.257812 3.765625-13.355468 8.917969-15.097656l48.554688-15.972656c3.765624-1.160156 7.730468-.289062 10.902343 2.90625 3.171875 3.191406 4.953125 8.128906 4.953125 13.066406v146.050782c0 7.257812-3.765625 13.9375-9.117187 15.96875l-48.949219 18.292968c-1.1875.582032-2.179688.871094-3.371094.871094zm43.402344-179.441406c-.59375 0-1.386719 0-1.980469.289062l-37.65625 13.9375c-3.367187 1.160156-5.945312 5.808594-5.945312 11.035156v130.660157c0 3.484375 1.191406 6.96875 3.171875 9 1.980468 2.035156 4.359375 2.90625 6.738281 1.742187l38.050781-15.96875c3.566406-1.453125 6.144532-6.386718 6.144532-11.90625v-126.59375c0-3.777344-1.1875-7.261718-3.171876-9.582031-1.78125-1.742187-3.566406-2.613281-5.351562-2.613281zm0 0" fill="#fff"/><path d="m245.890625 165.796875-59.453125 26.132813-1.984375-165.507813 59.457031-20.324219zm0 0" fill="#8400fd"/><path d="m188.417969 197.734375c-2.574219 0-4.953125-1.160156-7.132813-3.191406-2.972656-2.90625-4.757812-7.550781-4.757812-12.488281v-150.40625c0-7.257813 3.765625-13.355469 8.917968-15.097657l48.554688-15.96875c3.765625-1.164062 7.730469-.292969 10.898438 2.902344 3.171874 3.195313 4.957031 8.128906 4.957031 13.066406v146.050781c0 7.257813-3.765625 13.9375-9.117188 15.96875l-48.949219 18.292969c-1.191406.582031-2.183593.871094-3.371093.871094zm43.402343-179.441406c-.59375 0-1.386718 0-1.980468.289062l-37.65625 13.9375c-3.367188 1.164063-5.945313 5.808594-5.945313 11.035157v130.660156c0 3.484375 1.1875 6.96875 3.171875 9.003906 1.980469 2.03125 4.359375 2.902344 6.738282 1.742188l38.050781-15.972657c3.566406-1.449219 6.144531-6.386719 6.144531-11.902343v-126.597657c0-3.773437-1.191406-7.257812-3.171875-9.582031-1.785156-1.742188-3.566406-2.613281-5.351563-2.613281zm0 0" fill="#fff"/></svg>