
<svg xmlns="http://www.w3.org/2000/svg" xmlns:xlink="http://www.w3.org/1999/xlink" width="250px" height="250px" viewBox="0 0 250 250" version="1.1">
<g id="surface1">
<path style=" stroke:none;fill-rule:nonzero;fill:rgb(0.392157%,45.882353%,66.274512%);fill-opacity:1;" d="M 242.597656 124.863281 C 242.597656 189.808594 189.949219 242.460938 125 242.460938 C 60.050781 242.460938 7.402344 189.808594 7.402344 124.863281 C 7.402344 59.914062 60.050781 7.265625 125 7.265625 C 189.949219 7.265625 242.597656 59.914062 242.597656 124.863281 Z M 242.597656 124.863281 "/>
<path style=" stroke:none;fill-rule:nonzero;fill:rgb(0%,0%,0%);fill-opacity:1;" d="M 125 250 C 55.964844 250 0 194.035156 0 125 C 0 55.964844 55.964844 0 125 0 C 194.035156 0 250 55.964844 250 125 C 249.917969 194 194 249.917969 125 250 Z M 125 7.402344 C 60.046875 7.402344 7.390625 60.058594 7.390625 125.011719 C 7.394531 189.96875 60.050781 242.621094 125.007812 242.617188 C 189.960938 242.613281 242.613281 189.953125 242.609375 125 C 242.53125 60.078125 189.921875 7.472656 125 7.402344 Z M 125 7.402344 "/>
<path style=" stroke:none;fill-rule:nonzero;fill:rgb(0%,0%,0%);fill-opacity:1;" d="M 58.296875 128.402344 L 56.960938 135.027344 L 55.652344 128.136719 L 50.523438 103.414062 L 41 103.414062 L 36.121094 128.28125 L 34.875 135.027344 L 33.636719 128.136719 L 27.933594 103.414062 L 18.351562 103.414062 L 30.597656 146.59375 L 38.972656 146.59375 L 44.191406 121.34375 L 45.714844 112.988281 L 47.238281 121.34375 L 52.449219 146.59375 L 61.089844 146.59375 L 73.238281 103.414062 L 64.058594 103.414062 Z M 58.296875 128.402344 "/>
<path style=" stroke:none;fill-rule:nonzero;fill:rgb(0%,0%,0%);fill-opacity:1;" d="M 225.003906 125 C 225.023438 101.347656 216.636719 78.457031 201.335938 60.421875 L 213.964844 47.78125 L 201.964844 35.777344 L 189.324219 48.429688 C 151.890625 16.828125 97.066406 17.023438 59.859375 48.890625 L 47.179688 36.152344 L 35.128906 48.164062 L 47.910156 60.941406 C 41.511719 68.617188 36.296875 77.203125 32.4375 86.417969 L 49.71875 86.417969 C 67.550781 51.65625 106.882812 33.644531 144.851562 42.851562 C 182.820312 52.054688 209.535156 86.082031 209.464844 125.152344 C 209.394531 164.222656 182.558594 198.15625 144.554688 207.226562 C 106.554688 216.296875 67.285156 198.140625 49.578125 163.316406 L 32.367188 163.316406 C 36.304688 172.792969 41.675781 181.613281 48.292969 189.460938 L 35.601562 202.152344 L 47.605469 214.152344 L 60.285156 201.5 C 97.34375 232.898438 151.613281 233.09375 188.902344 201.964844 L 201.589844 214.652344 L 213.59375 202.652344 L 200.980469 190 C 216.503906 171.902344 225.027344 148.84375 225.003906 125 Z M 225.003906 125 "/>
<path style=" stroke:none;fill-rule:nonzero;fill:rgb(0%,0%,0%);fill-opacity:1;" d="M 90.695312 84.691406 L 95.550781 89.507812 C 101.253906 95.160156 106.957031 100.808594 112.664062 106.453125 C 115.121094 108.972656 118.296875 110.667969 121.757812 111.308594 C 126.894531 112.351562 132.226562 110.9375 136.175781 107.484375 C 137.542969 106.335938 138.761719 105.015625 140.027344 103.769531 L 159.175781 84.835938 L 159.304688 84.691406 L 173.332031 84.691406 L 159.5 98.382812 L 144.226562 113.5 C 134.777344 122.878906 119.9375 124.078125 109.105469 116.332031 C 107.601562 115.214844 106.191406 113.980469 104.890625 112.632812 L 76.835938 84.867188 L 76.667969 84.691406 Z M 90.695312 84.691406 "/>
<path style=" stroke:none;fill-rule:nonzero;fill:rgb(0%,0%,0%);fill-opacity:1;" d="M 173.5 165.035156 L 159.738281 165.035156 C 159.578125 165.042969 159.421875 164.976562 159.3125 164.859375 L 137.21875 142.988281 C 130.496094 136.296875 119.636719 136.269531 112.878906 142.929688 C 105.460938 150.203125 98.136719 157.535156 90.707031 164.839844 C 90.589844 164.96875 90.417969 165.042969 90.242188 165.035156 L 76.480469 165.035156 L 76.679688 164.820312 L 105.804688 136 C 116.457031 125.476562 133.605469 125.511719 144.214844 136.078125 L 173.253906 164.808594 Z M 173.5 165.035156 "/>
</g>
</svg>
