<svg height="250" viewBox="0 0 250 250" width="250" xmlns="http://www.w3.org/2000/svg"><g fill="#876c3c"><path d="m59 194.5h-2.5l-9.5 12.25-9.5-12.25h-2.5l10.75 13.75-11.25 14.25h2.5l10-12.75 10 12.75h2.5l-11.25-14.25zm0 0"/><path d="m76.25 194.25-13 28.25h2.25l3.5-7.75h16.5l3.5 7.75h2.25l-13-28.25zm-6.5 18.5 7.5-16.25 7.5 16.25zm0 0"/><path d="m117.75 211c0 1.75-.25 3.25-.75 4.5s-1 2.25-2 3.25c-.75.75-1.75 1.5-3 2s-2.5.75-3.75.75c-3 0-5.25-1-7-2.75s-2.5-4.5-2.5-7.75v-16.25h-2v16.5c0 2 .25 3.75.75 5.25s1.25 2.75 2.5 3.75c1 1 2.25 1.75 3.75 2.25s3 .75 4.75.75 3.25-.25 4.75-.75 2.5-1.25 3.75-2.25c1-1 1.75-2.25 2.25-3.75s.75-3.25.75-5.25v-16.25h-2v16zm0 0"/><path d="m144.75 209.75c1-.5 1.75-1 2.5-1.5.75-.75 1.25-1.5 1.75-2.5s.5-2 .5-3.25c0-1-.25-2-.5-2.75-.25-1-1-1.75-1.5-2.25-.75-.75-2-1.5-3.25-2s-3-.75-4.5-.75h-11.75v27.75h2v-11.75h9l9 11.75h2.75l-9.25-12c1 0 2.25-.25 3.25-.75zm-14.75-.75v-12.75h9.5c2.5 0 4.5.5 6 1.75 1.5 1 2 2.5 2 4.5 0 1-.25 2-.5 2.75-.5.75-1 1.5-1.75 2s-1.5 1-2.5 1.25-2 .5-3.25.5zm0 0"/><path d="m177.25 211c0 1.75-.25 3.25-.75 4.5s-1 2.25-2 3.25c-.75.75-1.75 1.5-3 2s-2.5.75-3.75.75c-3 0-5.25-1-7-2.75s-2.5-4.5-2.5-7.75v-16.25h-2v16.5c0 2 .25 3.75.75 5.25s1.25 2.75 2.5 3.75c1 1 2.25 1.75 3.75 2.25s3 .75 4.75.75 3.25-.25 4.75-.75 2.5-1.25 3.75-2.25c1-1 1.75-2.25 2.25-3.75s.75-3.25.75-5.25v-16.25h-2v16zm0 0"/><path d="m200.5 211-11.25-16.5h-2v28h2v-24.25l11.25 16 11.25-16v24.25h2v-28h-2zm0 0"/><path d="m171 93.25v-9.75h18v-10.75h12.75v-40.5h13.5v-5.25h-54.5v5.25h23.25v32.75h-12.75v9.75h-18v5h-18.5c.25-.25.25-.5.5-1 1.5-3 3.75-4.25 5.25-4.5-.75.5-1 1.25-1 2 0 1.5 1.25 2.75 3 2.75 1 0 2-.5 2.5-1.25.75-1 1-2 .5-3-.75-1.5-2.75-2.5-4.75-2.5s-5.25 1.5-7.5 5.75c-.25.75-.75 1.25-1 2l-7-18-7 17.75c-.25-.5-.5-1-.75-1.5-2.25-4.25-5.5-5.75-7.5-5.75s-4 1-4.75 2.5c-.5 1-.25 2 .5 3 .5.75 1.5 1.25 2.5 1.25 1.75 0 3-1.25 3-2.75 0-.75-.5-1.5-1-2 1.5.25 3.75 1.5 5.25 4.5.25.25.25.5.5 1h-18.75v-5h-18v-9.75h-12.75v-33h23.25v-5.25h-54.75v5.25h13.5v40.75h12.75v10.75h18v9.75h17.25v4.5l-13 5 13 5v3.75h-17.25v9.75h-18v10.75h-12.75v40.75h-13.5v5.25h54.75v-5.25h-23.25v-33.25h12.75v-9.75h18v-4.75h18.75c-.25.25-.25.75-.5 1-1.5 3-3.75 4.25-5.25 4.5.75-.5 1-1.25 1-2 0-1.5-1.25-2.75-3-2.75-1 0-2 .5-2.5 1.25-.75 1-1 2-.5 3 .75 1.5 2.75 2.5 4.75 2.5s5.25-1.5 7.5-5.75c.25-.25.25-.75.5-1l7.25 18.5 7.25-18.75c.25.5.5 1 .75 1.25 2.25 4.25 5.5 5.75 7.5 5.75s4-1 4.75-2.5c.5-1 .25-2-.5-3-.5-.75-1.5-1.25-2.5-1.25-1.75 0-3 1.25-3 2.75 0 .75.5 1.5 1 2-1.5-.25-3.75-1.5-5.25-4.5-.25-.25-.25-.75-.5-1h18.5v4.75h18v9.75h12.75v32.75h-23.25v5.25h54.75v-5.25h-13.5v-40.5h-12.75v-10.75h-18v-9.75h-17.5v-3.75l13.25-5.25-13.25-5.25v-4.25h17.25zm-20.5 9.75c-.5 0-.75.25-1.25.5 0 0-.25 0-.25.25 0 0-.25.25-.5.25s-.25.25-.25.25h-.25s-.25 0-.25.25c-.25 0-.25.25-.25.25s0 0-.25 0c0 0-.25-.25-.25-.25s-.25-.25-.25-.25-.25 0-.25-.25c-.25-.25-.75-.5-1-.75-.5-.25-.75-.25-1.25-.25h-4.75c.25 0 .5.25.75.25s.5 0 .75.25l3 1.5c1 .5 1.75 1.25 2.5 2.25l-.25.25-2.75 2.25h-.25c-.25-.75-.5-1.5-1-2.25s-1-1.25-1.75-1.75-1.25-1-2-1.5c-.25-.25-.75-.5-1-.5l-4.75 3.75 2.5 5.5-5.5-2.5-4.75 4.75-4.75-4.75-5.5 2.5 2.5-5.5-3.5-3.5c-.5.25-1.25.5-1.75 1-.75.5-1.25 1-1.75 1.5s-1 1-1.5 1.75-.75 1.25-1 2l-3-2.5-.25-.25c.75-1 1.5-1.75 2.5-2.25l3-1.5c.25 0 .5 0 .75-.25.25 0 .5-.25.75-.25h-4.5c-.25 0-.5 0-1 .25-.25 0-.75.25-1 .5s-.5.25-1 .5c-.25.25-.5.5-.75.5 0 0-.25 0-.5-.25s-.25-.25-.5-.25c-.5-.25-1-.5-1.25-.75-.5-.25-1-.25-1.5-.5-.25 0-.25 0-.5 0s-.25 0-.5 0c.5-.25.75-.25 1.25-.25s.75-.25 1.25-.5c0 0 .25 0 .25-.25 0 0 .25-.25.5-.25s.25-.25.25-.25h.25s.25 0 .25-.25c.25 0 .25-.25.25-.25h.25s.25.25.25.25.25.25.25.25.25 0 .25.25c.25.25.75.5 1 .75.5.25.75.25 1.25.25h4.75c-.25 0-.5-.25-.75-.25s-.5 0-.75-.25c-1-.5-2-1-3-1.5s-1.75-1.25-2.5-2.25l.25-.25 2.75-2.25h.25c.25.75.5 1.5 1 2.25s1 1.25 1.75 1.75 1.25 1 2 1.5c.25.25.5.25 1 .5l4-4-2.5-5.5 5.5 2.5 4.5-4.5 4.75 4.75 5.5-2.25-2.25 5.5 3.75 3.75c.75-.25 1.5-.75 2-1 .75-.5 1.25-1 1.75-1.5s1-1 1.5-1.75.75-1.25 1-2l3 2.5.25.25c-.75 1-1.5 1.75-2.5 2.25s-2 1-3 1.5c-.25 0-.5 0-.75.25-.25 0-.5.25-.75.25h4.5c.25 0 .5 0 1-.25.25 0 .75-.25 1-.5s.5-.25 1-.5c.25-.25.5-.5.75-.5 0 0 .25 0 .5.25s.25.25.5.25c.5.25 1 .5 1.25.75.5.25 1 .25 1.5.5h.5.5c-.25-.5-.75-.5-1-.25zm0 0"/></g></svg>