<svg version="1.1" id="Layer_1" xmlns="http://www.w3.org/2000/svg" xmlns:xlink="http://www.w3.org/1999/xlink" x="0px" y="0px"
	 width="100%" viewBox="0 0 500 500" enable-background="new 0 0 500 500" xml:space="preserve">
<path fill="#8EE423" opacity="1.000000" stroke="none" 
	d="
M234.000000,501.000000 
	C156.000015,501.000000 78.500038,501.000000 1.000041,501.000000 
	C1.000028,334.333405 1.000028,167.666779 1.000014,1.000131 
	C167.666565,1.000087 334.333130,1.000087 500.999756,1.000044 
	C500.999847,167.666519 500.999847,334.333038 500.999939,500.999786 
	C412.166656,501.000000 323.333344,501.000000 234.000000,501.000000 
M317.333466,328.166687 
	C308.034454,318.966370 298.735443,309.766052 289.105164,300.237976 
	C343.037659,245.976791 396.304077,192.385757 449.655853,138.708878 
	C448.462708,138.641464 447.027252,138.490784 445.591675,138.489731 
	C425.425049,138.474838 405.257874,138.569000 385.092133,138.433914 
	C377.804138,138.385117 371.880920,140.905502 366.765381,146.028824 
	C321.074097,191.789734 275.318329,237.486252 229.618225,283.238373 
	C219.435974,293.432190 219.192047,306.739807 229.220993,316.999298 
	C242.152100,330.227692 255.363266,343.182007 268.420868,356.287170 
	C273.394318,361.278717 279.287354,363.617218 286.380188,363.571564 
	C306.379303,363.442810 326.379822,363.532654 346.379761,363.515686 
	C347.986725,363.514343 349.593567,363.354736 352.419128,363.203400 
	C340.366455,351.167816 329.099945,339.917267 317.333466,328.166687 
M188.166443,177.333405 
	C196.169937,185.327209 204.173416,193.321014 212.791702,201.928879 
	C159.005280,255.696289 105.474686,309.207977 51.566387,363.097229 
	C52.717178,363.298553 53.328720,363.498596 53.940434,363.499115 
	C75.601959,363.517517 97.263557,363.547333 118.924988,363.500488 
	C125.072510,363.487183 130.216476,360.939087 134.515381,356.641113 
	C180.707397,310.459625 226.929749,264.308350 273.047333,218.052628 
	C282.706390,208.364594 282.398224,194.826965 272.698853,185.092178 
	C259.644318,171.990005 246.486008,158.990616 233.501053,145.820114 
	C228.515060,140.762848 222.716431,138.396133 215.630920,138.436890 
	C195.469666,138.552902 175.307327,138.472427 155.145432,138.490677 
	C153.701645,138.491974 152.258026,138.666290 149.646347,138.836090 
	C162.805557,151.987442 175.235977,164.410461 188.166443,177.333405 
z"/>
<path fill="#942CA7" opacity="1.000000" stroke="none" 
	d="
M317.583435,328.416718 
	C329.099945,339.917267 340.366455,351.167816 352.419128,363.203400 
	C349.593567,363.354736 347.986725,363.514343 346.379761,363.515686 
	C326.379822,363.532654 306.379303,363.442810 286.380188,363.571564 
	C279.287354,363.617218 273.394318,361.278717 268.420868,356.287170 
	C255.363266,343.182007 242.152100,330.227692 229.220993,316.999298 
	C219.192047,306.739807 219.435974,293.432190 229.618225,283.238373 
	C275.318329,237.486252 321.074097,191.789734 366.765381,146.028824 
	C371.880920,140.905502 377.804138,138.385117 385.092133,138.433914 
	C405.257874,138.569000 425.425049,138.474838 445.591675,138.489731 
	C447.027252,138.490784 448.462708,138.641464 449.655853,138.708878 
	C396.304077,192.385757 343.037659,245.976791 289.105164,300.237976 
	C298.735443,309.766052 308.034454,318.966370 317.583435,328.416718 
z"/>
<path fill="#942CA7" opacity="1.000000" stroke="none" 
	d="
M187.916412,177.083435 
	C175.235977,164.410461 162.805557,151.987442 149.646347,138.836090 
	C152.258026,138.666290 153.701645,138.491974 155.145432,138.490677 
	C175.307327,138.472427 195.469666,138.552902 215.630920,138.436890 
	C222.716431,138.396133 228.515060,140.762848 233.501053,145.820114 
	C246.486008,158.990616 259.644318,171.990005 272.698853,185.092178 
	C282.398224,194.826965 282.706390,208.364594 273.047333,218.052628 
	C226.929749,264.308350 180.707397,310.459625 134.515381,356.641113 
	C130.216476,360.939087 125.072510,363.487183 118.924988,363.500488 
	C97.263557,363.547333 75.601959,363.517517 53.940434,363.499115 
	C53.328720,363.498596 52.717178,363.298553 51.566387,363.097229 
	C105.474686,309.207977 159.005280,255.696289 212.791702,201.928879 
	C204.173416,193.321014 196.169937,185.327209 187.916412,177.083435 
z"/>
</svg>