<svg height="250" viewBox="0 0 250 250" width="250" xmlns="http://www.w3.org/2000/svg"><path d="m125 250c69.035156 0 125-55.964844 125-125s-55.964844-125-125-125-125 55.964844-125 125 55.964844 125 125 125zm0 0"/><path d="m124.273438 63.160156c-2.390626 0-4.324219 1.9375-4.324219 4.328125v115.332031c0 2.386719 1.933593 4.324219 4.324219 4.324219 2.390624 0 4.324218-1.9375 4.324218-4.324219v-115.332031c0-2.390625-1.933594-4.328125-4.324218-4.328125zm0 0" fill="#fff"/><path d="m248.546875 126.320312c4.78125 0 8.648437 3.875 8.648437 8.65625v230.664063c0 4.773437-3.867187 8.648437-8.648437 8.648437s-8.648437-3.875-8.648437-8.648437v-230.664063c0-4.78125 3.867187-8.65625 8.648437-8.65625zm0 0" fill="none" stroke="#fff" transform="scale(.5)"/><path d="m187.253906 124.953125c0-2.386719-1.9375-4.324219-4.328125-4.324219h-115.332031c-2.386719 0-4.324219 1.9375-4.324219 4.324219 0 2.390625 1.9375 4.328125 4.324219 4.328125h115.332031c2.390625 0 4.328125-1.9375 4.328125-4.328125zm0 0" fill="#fff"/><path d="m374.507812 249.90625c0 4.78125-3.875 8.65625-8.65625 8.65625h-230.664062c-4.773438 0-8.648438-3.875-8.648438-8.65625 0-4.773438 3.875-8.648438 8.648438-8.648438h230.664062c4.78125 0 8.65625 3.875 8.65625 8.648438zm0 0" fill="none" stroke="#fff" transform="scale(.5)"/><path d="m169.152344 169.210938c1.6875-1.691407 1.6875-4.429688 0-6.121094l-81.550782-81.550782c-1.691406-1.6875-4.429687-1.6875-6.117187 0-1.691406 1.691407-1.691406 4.429688 0 6.117188l81.550781 81.554688c1.6875 1.6875 4.425782 1.6875 6.117188 0zm0 0" fill="#fff"/><path d="m338.304688 338.421875c-3.382813 3.375-8.859376 3.375-12.234376 0l-163.101562-163.109375c-3.382812-3.375-3.382812-8.851562 0-12.234375 3.375-3.375 8.851562-3.375 12.234375 0l163.101563 163.101563c3.375 3.382812 3.375 8.859374 0 12.242187zm0 0" fill="none" stroke="#fff" transform="scale(.5)"/><path d="m63.367188 185.558594c1.691406 1.6875 4.429687 1.6875 6.117187 0l115.667969-115.667969c1.691406-1.691406 1.691406-4.429687 0-6.117187-1.6875-1.691407-4.425782-1.691407-6.117188 0l-115.667968 115.667968c-1.6875 1.6875-1.6875 4.425782 0 6.117188zm0 0" fill="#fff"/><path d="m126.734375 371.117188c-3.375-3.382813-3.375-8.859376 0-12.234376l231.335937-231.335937c3.382813-3.382813 8.859376-3.382813 12.234376 0 3.382812 3.375 3.382812 8.851563 0 12.234375l-231.335938 231.335938c-3.375 3.375-8.851562 3.375-12.234375 0zm0 0" fill="none" stroke="#fff" transform="scale(.5)"/></svg>