<svg height="250" viewBox="0 0 250 250" width="250" xmlns="http://www.w3.org/2000/svg"><path d="m46.527344 179.199219h156.125v-38.714844" fill="#e51838"/><path d="m148.0625 81.125h30.945312l11.398438 21.71875 11.632812-21.71875h30.042969l-20.503906 41.375 22.71875 41.902344h-31.640625l-16.910156-30.8125-2.453125.003906 5.734375 10.191406-11 20.617188h-31.347656l21.792968-41.636719" fill-rule="evenodd"/><path d="m59.386719 81.125v83.140625h-26.226563v-49.746094l10.671875-.027343.003907-2.199219-25.414063-.035157 14.746094-31.132812"/><path d="m125.199219 86.769531-14.0625 26.257813c.191406.164062.367187.324218.53125.484375 2.480469 2.429687 3.847656 5.769531 3.847656 9.40625 0 3.640625-1.367187 6.980469-3.847656 9.40625-1.425781 1.398437-3.824219 3.058593-7.148438 3.058593-1.859375 0-3.425781-.519531-4.699219-1.222656l-13.519531 25.238282c5.625 3.191406 12.0625 5.003906 18.90625 5.003906 21.953125 0 39.746094-18.640625 39.746094-41.636719 0-15.363281-7.9375-28.777344-19.753906-35.996094zm0 0"/><path d="m97.375 132.324219c-2.480469-2.425781-3.847656-5.769531-3.847656-9.40625s1.367187-6.976563 3.847656-9.40625c1.425781-1.394531 3.824219-3.058594 7.148438-3.058594 1.863281 0 3.4375.523437 4.710937 1.230469l13.902344-26.089844c-5.386719-2.855469-11.476563-4.46875-17.929688-4.46875-21.949219 0-39.746093 18.640625-39.746093 41.640625 0 15.011719 7.585937 28.164063 18.957031 35.492187l13.535156-25.402343c-.207031-.179688-.398437-.355469-.578125-.53125zm0 0"/></svg>