<svg height="250" viewBox="0 0 250 250" width="250" xmlns="http://www.w3.org/2000/svg"><path d="m250 125c0 69.035156-55.964844 125-125 125s-125-55.964844-125-125 55.964844-125 125-125 125 55.964844 125 125zm0 0"/><path d="m159.375 37.5h-68.75l-71.09375 86.71875 71.875 87.5h68.75l71.09375-87.5zm0 0"/><path d="m152.34375 53.90625 58.59375 71.09375-58.59375 70.3125h-53.90625l-58.59375-70.3125 58.59375-71.09375zm4.6875-10.15625h-63.28125l-67.1875 80.46875 66.40625 80.46875h63.28125l66.40625-80.46875zm0 0" fill="#fff"/><g fill="#00d9ff"><path d="m146.09375 178.90625h-42.96875l-44.53125-53.90625 45.3125-54.6875h42.96875l44.53125 53.90625zm-40.625-3.125h39.84375l42.1875-50.78125-42.1875-50.78125h-39.84375l-42.1875 50.78125zm0 0"/><path d="m135.15625 150h-20.3125v-.78125l-21.09375-25 21.09375-25.78125h20.3125l21.09375 25zm-19.53125-1.5625h18.75l19.53125-24.21875-19.53125-24.21875h-18.75l-19.53125 24.21875zm0 0"/></g></svg>