<svg id="Layer_1" data-name="Layer 1" xmlns="http://www.w3.org/2000/svg" viewBox="0 0 211.5 176.5"><defs><style>.cls-1{fill:#06a5dd;}.cls-2{fill:#fcc048;}.cls-3{fill:#70a800;}.cls-4{fill:#ea0070;}.cls-5{fill:#01a4a4;}</style></defs><title>logo_icon</title><path class="cls-1" d="M212,93.5H177a6.55,6.55,0,0,1-4.6-1.9L117.12,36.32,66.72,89.47a6.5,6.5,0,0,1-9.44-8.94l55-58a6.51,6.51,0,0,1,9.32-.13l58.09,58.1H212a6.5,6.5,0,0,1,0,13Z" transform="translate(-12 -15.5)"/><path class="cls-1" d="M212,98.5H177a11.43,11.43,0,0,1-8.13-3.37L117.22,43.48,70.34,92.91A11.5,11.5,0,1,1,53.65,77.09l55-58a11.54,11.54,0,0,1,8.19-3.59,11.42,11.42,0,0,1,8.28,3.37L181.76,75.5H212a11.5,11.5,0,0,1,0,23ZM117,29.15l58.91,58.91a1.5,1.5,0,0,0,1.06.44h35a1.5,1.5,0,0,0,0-3H177.62L118.06,25.94a1.37,1.37,0,0,0-1-.44,1.58,1.58,0,0,0-1.13.47l-55,58A1.5,1.5,0,1,0,63.09,86Z" transform="translate(-12 -15.5)"/><path class="cls-1" d="M118.5,187a6.51,6.51,0,0,1-4.6-1.9L55.81,127H23.5a6.5,6.5,0,0,1,0-13h35a6.55,6.55,0,0,1,4.6,1.9l55.28,55.28L168.78,118a6.5,6.5,0,0,1,9.44,8.94l-55,58a6.47,6.47,0,0,1-4.63,2Z" transform="translate(-12 -15.5)"/><path class="cls-1" d="M118.62,192h-.12a11.43,11.43,0,0,1-8.13-3.37L53.74,132H23.5a11.5,11.5,0,0,1,0-23h35a11.43,11.43,0,0,1,8.13,3.37L118.28,164l46.88-49.43a11.5,11.5,0,1,1,16.69,15.82l-55,58a11.54,11.54,0,0,1-8.19,3.59ZM23.5,119a1.5,1.5,0,0,0,0,3H57.88l59.56,59.56a1.5,1.5,0,0,0,1.06.44h.09a1.48,1.48,0,0,0,1-.47l55-58a1.5,1.5,0,0,0-2.18-2.06l-53.94,56.88L59.56,119.44A1.52,1.52,0,0,0,58.5,119Z" transform="translate(-12 -15.5)"/><rect class="cls-2" x="79.19" y="89.36" width="28.05" height="28.05" transform="translate(-57.9 82.86) rotate(-45.89)"/><rect class="cls-3" x="103.59" y="64.19" width="28.05" height="28.05" transform="translate(-32.41 92.73) rotate(-45.89)"/><rect class="cls-4" x="104.36" y="113.76" width="28.05" height="28.05" transform="translate(-67.77 108.35) rotate(-45.89)"/><rect class="cls-5" x="128.76" y="88.59" width="28.05" height="28.05" transform="translate(-42.27 118.22) rotate(-45.89)"/></svg>
