<svg width="256" height="256" viewBox="0 0 256 256" fill="none" xmlns="http://www.w3.org/2000/svg"><path cx="61.5" cy="61.5" r="61.5" fill="#000" d="M256 128a128 128 0 0 1 -128 128A128 128 0 0 1 0 128a128 128 0 0 1 256 0"/><path d="M172.872 132.064q0 9.746 -4.528 17.898 -4.528 7.99 -13.912 12.946t-23.294 4.954h-17.146v40.268h-27.66V95.948h44.806q13.588 0 22.97 4.636 9.384 4.636 14.074 12.784 4.692 8.148 4.692 18.698m-43.836 14.062q7.928 0 11.808 -3.676 3.884 -3.674 3.884 -10.386t-3.884 -10.388q-3.88 -3.676 -11.808 -3.676h-15.046v28.124z" fill="#fff"/><path d="M172.872 67.102h-86.54v19.232h86.54z" fill="#E50913"/></svg>