
<svg xmlns="http://www.w3.org/2000/svg" xmlns:xlink="http://www.w3.org/1999/xlink" width="250px" height="250px" viewBox="0 0 250 250" version="1.1">
<defs>
<linearGradient id="linear0" gradientUnits="userSpaceOnUse" x1="286.5" y1="-7.49998" x2="150" y2="230.5" gradientTransform="matrix(0.833333,0,0,0.833333,0,0)">
<stop offset="0" style="stop-color:rgb(62.352943%,86.274511%,100%);stop-opacity:0.5;"/>
<stop offset="1" style="stop-color:rgb(100%,100%,100%);stop-opacity:0;"/>
<stop offset="1" style="stop-color:rgb(52.549022%,82.745099%,100%);stop-opacity:0;"/>
</linearGradient>
<linearGradient id="linear1" gradientUnits="userSpaceOnUse" x1="97" y1="306" x2="244" y2="34.5" >
<stop offset="0" style="stop-color:rgb(0%,0%,0%);stop-opacity:0.4;"/>
<stop offset="1" style="stop-color:rgb(0%,0%,0%);stop-opacity:0;"/>
</linearGradient>
</defs>
<g id="surface1">
<path style=" stroke:none;fill-rule:nonzero;fill:rgb(0.392157%,43.137255%,67.450982%);fill-opacity:1;" d="M 250 125 C 250 194.035156 194.035156 250 125 250 C 55.964844 250 0 194.035156 0 125 C 0 55.964844 55.964844 0 125 0 C 194.035156 0 250 55.964844 250 125 Z M 250 125 "/>
<path style=" stroke:none;fill-rule:nonzero;fill:url(#linear0);" d="M 250 125 C 250 194.035156 194.035156 250 125 250 C 55.964844 250 0 194.035156 0 125 C 0 55.964844 55.964844 0 125 0 C 194.035156 0 250 55.964844 250 125 Z M 250 125 "/>
<path style="fill:none;stroke-width:16;stroke-linecap:butt;stroke-linejoin:miter;stroke:url(#linear1);stroke-miterlimit:4;" d="M 291.998437 150 C 291.998437 228.426562 228.426562 291.998437 150 291.998437 C 71.573437 291.998437 8.001563 228.426562 8.001563 150 C 8.001563 71.573437 71.573437 8.001563 150 8.001563 C 228.426562 8.001563 291.998437 71.573437 291.998437 150 Z M 291.998437 150 " transform="matrix(0.833333,0,0,0.833333,0,0)"/>
<path style=" stroke:none;fill-rule:evenodd;fill:rgb(100%,100%,100%);fill-opacity:1;" d="M 93.566406 196.171875 L 163.714844 74.671875 L 187.324219 88.304688 L 125.03125 196.199219 L 93.617188 196.199219 Z M 93.566406 196.171875 "/>
<path style=" stroke:none;fill-rule:evenodd;fill:rgb(100%,100%,100%);fill-opacity:1;" d="M 55.402344 73.90625 L 94.078125 140.898438 L 125.558594 140.898438 L 86.882812 73.90625 Z M 55.402344 73.90625 "/>
<path style=" stroke:none;fill-rule:nonzero;fill:rgb(100%,100%,100%);fill-opacity:1;" d="M 187.625 60.417969 L 195.15625 112.371094 L 138.863281 79.867188 Z M 187.625 60.417969 "/>
</g>
</svg>
