<svg height="250" viewBox="0 0 250 250" width="250" xmlns="http://www.w3.org/2000/svg" xmlns:xlink="http://www.w3.org/1999/xlink"><linearGradient id="a" gradientUnits="userSpaceOnUse" x1="238.7499045" x2="124.99995" y1="-6.24998083334" y2="192.0832565"><stop offset="0" stop-color="#9fdcff" stop-opacity=".5"/><stop offset="1" stop-color="#fff" stop-opacity="0"/><stop offset="1" stop-color="#86d3ff" stop-opacity="0"/></linearGradient><linearGradient id="b" gradientUnits="userSpaceOnUse" x1="97" x2="244" y1="306" y2="34.5"><stop offset="0" stop-opacity=".4"/><stop offset="1" stop-opacity="0"/></linearGradient><path d="m250 125c0 69.035156-55.964844 125-125 125s-125-55.964844-125-125 55.964844-125 125-125 125 55.964844 125 125zm0 0" fill="#016eac"/><path d="m250 125c0 69.035156-55.964844 125-125 125s-125-55.964844-125-125 55.964844-125 125-125 125 55.964844 125 125zm0 0" fill="url(#a)"/><path d="m291.998437 150c0 78.426562-63.571875 141.998437-141.998437 141.998437-78.426563 0-141.998437-63.571875-141.998437-141.998437 0-78.426563 63.571874-141.998437 141.998437-141.998437 78.426562 0 141.998437 63.571874 141.998437 141.998437zm0 0" fill="none" stroke="url(#b)" stroke-width="16" transform="scale(.833333)"/><g fill="#fff"><path d="m93.566406 196.171875 70.148438-121.5 23.609375 13.632813-62.292969 107.894531h-31.414062zm0 0" fill-rule="evenodd"/><path d="m55.402344 73.90625 38.675781 66.992188h31.480469l-38.675782-66.992188zm0 0" fill-rule="evenodd"/><path d="m187.625 60.417969 7.53125 51.953125-56.292969-32.503906zm0 0"/></g></svg>