<svg width="248" height="248" viewBox="0 0 248 248" fill="none" xmlns="http://www.w3.org/2000/svg">
<path d="M247.881 247.88H0V4.60227e-06H247.881V247.88Z" fill="#0065D0"/>
<path d="M129.936 176.316H117.944V71.564H129.936V176.316Z" fill="white"/>
<path d="M87.8376 148.235C84.4923 154.14 83.2936 159.652 83.2936 166.923C83.2936 189.372 101.492 207.569 123.94 207.569C146.39 207.569 164.587 189.372 164.587 166.923C164.587 147.901 151.519 131.936 133.874 127.503V139.635C145.015 143.692 152.974 154.376 152.974 166.923C152.974 182.957 139.975 195.956 123.94 195.956C107.906 195.956 94.9069 182.957 94.9069 166.923C94.9069 160.997 96.7336 155.969 99.7816 151.375L101.891 170.604L113.488 169.108L107.876 132.447L71.4029 139.743L73.4603 151.9L87.8376 148.235Z" fill="white"/>
<path d="M161.73 97.3009C164.116 92.1289 164.588 88.3249 164.588 82.2556C164.588 59.8076 146.389 41.6089 123.941 41.6089C101.492 41.6089 83.2929 59.8076 83.2929 82.2556C83.2929 101.276 96.3609 117.241 114.008 121.674V109.545C102.865 105.488 94.9063 94.8009 94.9063 82.2556C94.9063 66.2209 107.905 53.2222 123.941 53.2222C139.976 53.2222 152.974 66.2209 152.974 82.2556C152.974 86.2956 152.148 90.1436 150.656 93.6396L144.206 76.5889L133.54 79.9222L143.873 115.922L179.206 102.922L174.909 92.7916L161.73 97.3009Z" fill="white"/>
</svg>
