<svg width="256" height="256" viewBox="0 0 256 256" fill="none" xmlns="http://www.w3.org/2000/svg">
<rect width="256" height="256" rx="128" fill="#FDDA16"/>
<path d="M205.773 53.1303C207.317 53.1305 208.3 54.636 207.738 56.0046L147.049 186.602C139.257 205.08 118.201 220.127 97.0711 220.127H79.7746C78.5812 219.99 77.5983 219.1 77.5983 217.937V189.171C77.5983 188.008 78.5105 187.117 79.7038 187.117H97.001C104.372 187.117 111.145 184.032 114.411 174.999C114.411 174.931 114.481 174.863 114.481 174.794L115.238 172.538L167.791 59.5019L170.15 54.7725C170.571 53.746 171.624 53.1303 172.747 53.1303H205.773Z" fill="black"/>
<path d="M96.7884 52.9932C97.9116 52.9932 98.8947 53.6095 99.3159 54.6361L128.938 112.704L109.752 153.972L62.1483 55.8675C61.5165 54.4987 62.5692 52.9932 64.1136 52.9932H96.7884Z" fill="black"/>
</svg>
