<svg height="250" viewBox="0 0 250 250" width="250" xmlns="http://www.w3.org/2000/svg" xmlns:xlink="http://www.w3.org/1999/xlink"><linearGradient id="a" gradientUnits="userSpaceOnUse" x1="250" x2="0" y1="131.75" y2="132.5"><stop offset="0" stop-color="#075eb6"/><stop offset="1" stop-color="#0377fc"/></linearGradient><path d="m250 125c0 69.035156-55.964844 125-125 125s-125-55.964844-125-125 55.964844-125 125-125 125 55.964844 125 125zm0 0" fill="url(#a)"/><g fill="#fff"><path d="m135.824219 126.847656c3.421875 2.304688 6.347656 3.921875 8.847656 6.042969 3.515625 3.03125 6.878906 6.238281 10.070313 9.605469 4.882812 5.066406 6.980468 11.410156 7.996093 18.238281 1.710938 11.476563-1.46875 21.351563-8.441406 30.613281-9.820313 13.042969-31.511719 18.097656-44.457031 12.15625-7.164063-3.285156-13.632813-7.375-17.8125-13.601562-6.378906-9.5-10.410156-20.0625-5.695313-31.851563 1.21875-3.050781 2.363281-6.128906 3.652344-9.472656-4.875.976563-9.691406 1.929687-14.535156 2.898437-.835938-3.339843-1.660157-6.230468-2.195313-9.179687.089844-.871094.625-1.628906 1.414063-2.007813 10.703125-2.265624 21.449219-4.34375 32.152343-6.609374 1.902344-.40625 2.441407.15625 2.648438 1.855468.75 6.09375 1.511719 12.191406 2.359375 18.273438.628906 4.535156 1.304687 9.074218 2.136719 13.574218.347656 1.890626-.074219 2.757813-2.039063 2.929688-2.875.246094-5.734375.621094-8.703125.957031l-2.699218-17.917969c-4.003907 7.199219-6.6875 13.585938-3.949219 21.09375 2.1875 5.988282 5.230469 11.488282 10.519531 15.066407 8.515625 5.769531 17.757812 7.367187 27.597656 3.207031 5.464844-2.164062 10.082032-6.035156 13.167969-11.035156 4.226563-6.597656 5.449219-14.675782 3.363281-22.226563-1.917968-7.09375-5.695312-12.730469-12.207031-16.503906-2.015625-1.171875-3.597656-2.945313-3.269531-5.886719.347656-3.082031.078125-6.238281.078125-10.21875zm0 0"/><path d="m160.746094 98.75c4.792968-1.628906 9.191406-3.117188 14.050781-4.765625 1.003906 2.890625 2.113281 5.570313 2.792969 8.359375-.054688 1.070312-.648438 2.042969-1.582032 2.570312-9.421874 3.625-18.882812 7.140626-28.382812 10.546876-4.023438 1.457031-4.003906 1.121093-5.078125-2.992188-2.09375-8.054688-4.558594-16.015625-6.855469-24.023438-.628906-2.1875-1.214844-4.394531-1.90625-6.898437 3.070313-1.097656 6.210938-2 9.394532-2.703125.640624-.113281 2.039062 1.960938 2.460937 3.234375.910156 2.761719 1.351563 5.664063 2.105469 8.484375.367187 1.390625 1.003906 2.703125 1.710937 4.558594 3.101563-5.679688 3.335938-11.261719 2.398438-16.929688-1.3125-8.753906-6.828125-16.3125-14.761719-20.238281-4.304688-2.140625-9.058594-3.21875-13.867188-3.140625-10.261718.179688-18.347656 5.136719-23.800781 13.921875-6.121093 10.042969-5.074219 22.890625 2.589844 31.816406 3.058594 3.21875 6.429687 6.125 10.066406 8.675781 1.796875 1.34375 2.683594 2.667969 2.605469 4.882813-.117188 3.332031-.03125 6.667969-.03125 10.769531-2.964844-2.058594-5.5-3.605468-7.789062-5.453125-4.261719-3.441406-8.53125-6.894531-12.519532-10.636719-5.625-5.28125-8.203125-12.265624-9.34375-19.648437-2.050781-13.28125 2.011719-24.894531 11.5625-34.136719 10.238282-9.902344 22.703125-12.988281 36.6875-9.960937 10.375 2.246093 18.316406 8.203125 23.917969 16.824219 5.835937 8.984374 7.414063 19.125 5.1875 29.722656-.46875 2.238281-1 4.449218-1.613281 7.160156zm0 0"/><path d="m130.550781 73.65625v102.28125c-3.265625 0-6.367187.050781-9.46875-.019531-2.246093-.046875-1.5625-1.863281-1.5625-3.058594-.035156-16.214844-.039062-32.429687-.011719-48.644531 0-15.691406.066407-31.386719-.054687-47.070313-.023437-2.726562.648437-3.816406 3.492187-3.535156 2.375.234375 4.796876.046875 7.605469.046875zm0 0"/></g></svg>