
<svg xmlns="http://www.w3.org/2000/svg" xmlns:xlink="http://www.w3.org/1999/xlink" width="250px" height="250px" viewBox="0 0 250 250" version="1.1">
<defs>
<linearGradient id="linear0" gradientUnits="userSpaceOnUse" x1="1" y1="0.527" x2="0" y2="0.53" gradientTransform="matrix(250,0,0,250,0,0)">
<stop offset="0" style="stop-color:rgb(2.745098%,36.862746%,71.372551%);stop-opacity:1;"/>
<stop offset="1" style="stop-color:rgb(1.176471%,46.666667%,98.823529%);stop-opacity:1;"/>
</linearGradient>
</defs>
<g id="surface1">
<path style=" stroke:none;fill-rule:nonzero;fill:url(#linear0);" d="M 250 125 C 250 194.035156 194.035156 250 125 250 C 55.964844 250 0 194.035156 0 125 C 0 55.964844 55.964844 0 125 0 C 194.035156 0 250 55.964844 250 125 Z M 250 125 "/>
<path style=" stroke:none;fill-rule:nonzero;fill:rgb(100%,100%,100%);fill-opacity:1;" d="M 135.824219 126.847656 C 139.246094 129.152344 142.171875 130.769531 144.671875 132.890625 C 148.1875 135.921875 151.550781 139.128906 154.742188 142.496094 C 159.625 147.5625 161.722656 153.90625 162.738281 160.734375 C 164.449219 172.210938 161.269531 182.085938 154.296875 191.347656 C 144.476562 204.390625 122.785156 209.445312 109.839844 203.503906 C 102.675781 200.21875 96.207031 196.128906 92.027344 189.902344 C 85.648438 180.402344 81.617188 169.839844 86.332031 158.050781 C 87.550781 155 88.695312 151.921875 89.984375 148.578125 C 85.109375 149.554688 80.292969 150.507812 75.449219 151.476562 C 74.613281 148.136719 73.789062 145.246094 73.253906 142.296875 C 73.34375 141.425781 73.878906 140.667969 74.667969 140.289062 C 85.371094 138.023438 96.117188 135.945312 106.820312 133.679688 C 108.722656 133.273438 109.261719 133.835938 109.46875 135.535156 C 110.21875 141.628906 110.980469 147.726562 111.828125 153.808594 C 112.457031 158.34375 113.132812 162.882812 113.964844 167.382812 C 114.3125 169.273438 113.890625 170.140625 111.925781 170.3125 C 109.050781 170.558594 106.191406 170.933594 103.222656 171.269531 L 100.523438 153.351562 C 96.519531 160.550781 93.835938 166.9375 96.574219 174.445312 C 98.761719 180.433594 101.804688 185.933594 107.09375 189.511719 C 115.609375 195.28125 124.851562 196.878906 134.691406 192.71875 C 140.15625 190.554688 144.773438 186.683594 147.859375 181.683594 C 152.085938 175.085938 153.308594 167.007812 151.222656 159.457031 C 149.304688 152.363281 145.527344 146.726562 139.015625 142.953125 C 137 141.78125 135.417969 140.007812 135.746094 137.066406 C 136.09375 133.984375 135.824219 130.828125 135.824219 126.847656 Z M 135.824219 126.847656 "/>
<path style=" stroke:none;fill-rule:nonzero;fill:rgb(100%,100%,100%);fill-opacity:1;" d="M 160.746094 98.75 C 165.539062 97.121094 169.9375 95.632812 174.796875 93.984375 C 175.800781 96.875 176.910156 99.554688 177.589844 102.34375 C 177.535156 103.414062 176.941406 104.386719 176.007812 104.914062 C 166.585938 108.539062 157.125 112.054688 147.625 115.460938 C 143.601562 116.917969 143.621094 116.582031 142.546875 112.46875 C 140.453125 104.414062 137.988281 96.453125 135.691406 88.445312 C 135.0625 86.257812 134.476562 84.050781 133.785156 81.546875 C 136.855469 80.449219 139.996094 79.546875 143.179688 78.84375 C 143.820312 78.730469 145.21875 80.804688 145.640625 82.078125 C 146.550781 84.839844 146.992188 87.742188 147.746094 90.5625 C 148.113281 91.953125 148.75 93.265625 149.457031 95.121094 C 152.558594 89.441406 152.792969 83.859375 151.855469 78.191406 C 150.542969 69.4375 145.027344 61.878906 137.09375 57.953125 C 132.789062 55.8125 128.035156 54.734375 123.226562 54.8125 C 112.964844 54.992188 104.878906 59.949219 99.425781 68.734375 C 93.304688 78.777344 94.351562 91.625 102.015625 100.550781 C 105.074219 103.769531 108.445312 106.675781 112.082031 109.226562 C 113.878906 110.570312 114.765625 111.894531 114.6875 114.109375 C 114.570312 117.441406 114.65625 120.777344 114.65625 124.878906 C 111.691406 122.820312 109.15625 121.273438 106.867188 119.425781 C 102.605469 115.984375 98.335938 112.53125 94.347656 108.789062 C 88.722656 103.507812 86.144531 96.523438 85.003906 89.140625 C 82.953125 75.859375 87.015625 64.246094 96.566406 55.003906 C 106.804688 45.101562 119.269531 42.015625 133.253906 45.042969 C 143.628906 47.289062 151.570312 53.246094 157.171875 61.867188 C 163.007812 70.851562 164.585938 80.992188 162.359375 91.589844 C 161.890625 93.828125 161.359375 96.039062 160.746094 98.75 Z M 160.746094 98.75 "/>
<path style=" stroke:none;fill-rule:nonzero;fill:rgb(100%,100%,100%);fill-opacity:1;" d="M 130.550781 73.65625 L 130.550781 175.9375 C 127.285156 175.9375 124.183594 175.988281 121.082031 175.917969 C 118.835938 175.871094 119.519531 174.054688 119.519531 172.859375 C 119.484375 156.644531 119.480469 140.429688 119.507812 124.214844 C 119.507812 108.523438 119.574219 92.828125 119.453125 77.144531 C 119.429688 74.417969 120.101562 73.328125 122.945312 73.609375 C 125.320312 73.84375 127.742188 73.65625 130.550781 73.65625 Z M 130.550781 73.65625 "/>
</g>
</svg>
