<svg height="250" viewBox="0 0 250 250" width="250" xmlns="http://www.w3.org/2000/svg"><path d="m249.414062 124.609375c0 69.035156-55.964843 125-125 125-69.035156 0-125-55.964844-125-125s55.964844-125 125-125c69.035157 0 125 55.964844 125 125zm0 0" fill="#2a5bdb"/><g fill="#fff"><path d="m153.515625 85.546875-7.8125 2.734375 2.734375 8.984375-23.4375-12.304687-31.640625 17.578124v23.4375l12.695313-4.492187v-11.71875l18.945312-10.15625 18.359375 8.789063-9.179687 3.515624 2.929687 8.007813 25.195313-8.789063zm0 0"/><path d="m96.679688 163.867188 7.8125-2.734376-2.734376-8.984374 23.242188 12.109374 31.835938-17.382812v-23.4375l-12.695313 4.296875v11.71875l-19.140625 10.351563-18.164062-8.984376 9.179687-3.320312-2.929687-8.203125-25.195313 8.984375zm0 0"/><path d="m64.84375 89.84375h14.648438v43.945312c0 8.59375-2.539063 15.234376-7.617188 19.921876s-12.304688 7.03125-21.679688 7.03125-16.40625-2.34375-21.484374-7.03125c-5.078126-4.6875-7.617188-11.328126-7.617188-19.921876v-43.945312h14.648438v43.75c0 4.296875 1.367187 7.8125 3.90625 10.351562 2.539062 2.539063 6.25 3.90625 10.742187 3.90625 4.6875 0 8.203125-1.367187 10.742187-3.90625 2.539063-2.539062 3.90625-6.054687 3.90625-10.351562v-43.75zm0 0"/><path d="m170.3125 87.695312h29.101562c10.546876 0 18.554688 3.125 24.023438 9.375s8.203125 14.84375 8.203125 25.585938-2.734375 19.140625-8.203125 25.390625-13.476562 9.375-24.023438 9.375h-29.101562zm14.648438 56.640626h12.695312c6.640625 0 11.523438-1.953126 14.648438-6.054688s4.6875-9.375 4.6875-15.820312c0-6.445313-1.5625-11.914063-4.6875-15.820313-3.125-4.101563-8.007813-6.054687-14.648438-6.054687h-12.695312zm0 0"/></g></svg>