<!-- Generator: Adobe Illustrator 25.1.0, SVG Export Plug-In . SVG Version: 6.00 Build 0)  -->
<svg xmlns="http://www.w3.org/2000/svg" xmlns:xlink="http://www.w3.org/1999/xlink" width="250px" height="250px" viewBox="0 0 250 250" version="1.1">
<g id="surface1">
<path style=" stroke:none;fill-rule:nonzero;fill:rgb(16.470589%,35.686275%,85.882354%);fill-opacity:1;" d="M 249.414062 124.609375 C 249.414062 193.644531 193.449219 249.609375 124.414062 249.609375 C 55.378906 249.609375 -0.585938 193.644531 -0.585938 124.609375 C -0.585938 55.574219 55.378906 -0.390625 124.414062 -0.390625 C 193.449219 -0.390625 249.414062 55.574219 249.414062 124.609375 Z M 249.414062 124.609375 "/>
<path style=" stroke:none;fill-rule:nonzero;fill:rgb(100%,100%,100%);fill-opacity:1;" d="M 153.515625 85.546875 L 145.703125 88.28125 L 148.4375 97.265625 L 125 84.960938 L 93.359375 102.539062 L 93.359375 125.976562 L 106.054688 121.484375 L 106.054688 109.765625 L 125 99.609375 L 143.359375 108.398438 L 134.179688 111.914062 L 137.109375 119.921875 L 162.304688 111.132812 Z M 153.515625 85.546875 "/>
<path style=" stroke:none;fill-rule:nonzero;fill:rgb(100%,100%,100%);fill-opacity:1;" d="M 96.679688 163.867188 L 104.492188 161.132812 L 101.757812 152.148438 L 125 164.257812 L 156.835938 146.875 L 156.835938 123.4375 L 144.140625 127.734375 L 144.140625 139.453125 L 125 149.804688 L 106.835938 140.820312 L 116.015625 137.5 L 113.085938 129.296875 L 87.890625 138.28125 Z M 96.679688 163.867188 "/>
<path style=" stroke:none;fill-rule:nonzero;fill:rgb(100%,100%,100%);fill-opacity:1;" d="M 64.84375 89.84375 L 79.492188 89.84375 L 79.492188 133.789062 C 79.492188 142.382812 76.953125 149.023438 71.875 153.710938 C 66.796875 158.398438 59.570312 160.742188 50.195312 160.742188 C 40.820312 160.742188 33.789062 158.398438 28.710938 153.710938 C 23.632812 149.023438 21.09375 142.382812 21.09375 133.789062 L 21.09375 89.84375 L 35.742188 89.84375 L 35.742188 133.59375 C 35.742188 137.890625 37.109375 141.40625 39.648438 143.945312 C 42.1875 146.484375 45.898438 147.851562 50.390625 147.851562 C 55.078125 147.851562 58.59375 146.484375 61.132812 143.945312 C 63.671875 141.40625 65.039062 137.890625 65.039062 133.59375 L 65.039062 89.84375 Z M 64.84375 89.84375 "/>
<path style=" stroke:none;fill-rule:nonzero;fill:rgb(100%,100%,100%);fill-opacity:1;" d="M 170.3125 87.695312 L 199.414062 87.695312 C 209.960938 87.695312 217.96875 90.820312 223.4375 97.070312 C 228.90625 103.320312 231.640625 111.914062 231.640625 122.65625 C 231.640625 133.398438 228.90625 141.796875 223.4375 148.046875 C 217.96875 154.296875 209.960938 157.421875 199.414062 157.421875 L 170.3125 157.421875 Z M 184.960938 144.335938 L 197.65625 144.335938 C 204.296875 144.335938 209.179688 142.382812 212.304688 138.28125 C 215.429688 134.179688 216.992188 128.90625 216.992188 122.460938 C 216.992188 116.015625 215.429688 110.546875 212.304688 106.640625 C 209.179688 102.539062 204.296875 100.585938 197.65625 100.585938 L 184.960938 100.585938 Z M 184.960938 144.335938 "/>
</g>
</svg>
