<svg id="Layer_1" data-name="Layer 1" xmlns="http://www.w3.org/2000/svg" xmlns:xlink="http://www.w3.org/1999/xlink" viewBox="0 0 996 1000"><defs><style>.cls-1{fill:url(#linear-gradient);}.cls-2{fill:#fff;}</style><linearGradient id="linear-gradient" x1="-755.16" y1="4.46" x2="-735.04" y2="4.46" gradientTransform="translate(37564.45 277) scale(49.78 50)" gradientUnits="userSpaceOnUse"><stop offset="0" stop-color="#2f67b2"/><stop offset="1" stop-color="#243b7b"/></linearGradient></defs><path class="cls-1" d="M1000,500c0,276-222,500-498,500S4,776,4,500,226,0,502,0C776,0,1000,224,1000,500Z" transform="translate(-4)"/><path class="cls-2" d="M438,516,648,328c8-6,14-12,22-18l70-58c-34-12-88-20-146,26L404,452c-12,10-32,20-48,20a71.7,71.7,0,0,1-72-72h0a71.7,71.7,0,0,1,72-72c34,0,54,16,68,50l58-48c-18-34-54-74-126-74-80,0-144,64-144,146s64,146,144,146C384,544,414,534,438,516Zm124-32L352,672c-8,6-14,12-22,18l-70,58c34,12,88,20,146-26L598,550c12-10,32-20,48-20a71.7,71.7,0,0,1,72,72h0a71.7,71.7,0,0,1-72,72c-34,0-54-16-68-50l-58,48c18,34,54,74,126,74,80,0,144-64,144-146S726,454,646,454C616,456,586,466,562,484Z" transform="translate(-4)"/></svg>