<svg xmlns="http://www.w3.org/2000/svg" viewBox="0 0 221.25 221.25"><defs><style>.cls-1{fill:#f6f6f6;stroke:#ccc;stroke-miterlimit:10;stroke-width:0.25px;}</style></defs><g id="Layer_2" data-name="Layer 2"><g id="Layer_1-2" data-name="Layer 1"><circle class="cls-1" cx="110.63" cy="110.63" r="110.5"/><circle cx="79.32" cy="56.48" r="10.38"/><path d="M149.22,49.69l-6.85-3.45a2.64,2.64,0,0,0-3.16.58,3.35,3.35,0,0,0-.42.55L111.57,94.31l-9.83,16.62c0,.11-.09.21-.14.32l-.06.13a2.79,2.79,0,0,0-.1.39,1.55,1.55,0,0,0,0,.21h0l-.06.77v58.58a3.39,3.39,0,0,0,3.38,3.28h10.45a3.4,3.4,0,0,0,3-3.5V114.57a8.07,8.07,0,0,1,.81-3.52l32.76-56C153,52.64,152.06,51.17,149.22,49.69Z"/></g></g></svg>