<?xml version="1.0" encoding="UTF-8"?>
<!DOCTYPE svg PUBLIC "-//W3C//DTD SVG 1.1//EN" "http://www.w3.org/Graphics/SVG/1.1/DTD/svg11.dtd">
<svg xmlns="http://www.w3.org/2000/svg" version="1.1" width="250px" height="250px" style="shape-rendering:geometricPrecision; text-rendering:geometricPrecision; image-rendering:optimizeQuality; fill-rule:evenodd; clip-rule:evenodd" xmlns:xlink="http://www.w3.org/1999/xlink">
<g><path style="opacity:1" fill="#025592" d="M 36.5,36.5 C 46.1667,36.5 55.8333,36.5 65.5,36.5C 61.778,41.1888 57.4447,45.1888 52.5,48.5C 46.3425,45.6861 41.0092,41.6861 36.5,36.5 Z"/></g>
<g><path style="opacity:1" fill="#027fc8" d="M 65.5,36.5 C 81.8333,36.5 98.1667,36.5 114.5,36.5C 114.5,36.8333 114.5,37.1667 114.5,37.5C 105.109,37.5298 97.1089,40.8632 90.5,47.5C 86.8985,45.744 83.3985,43.744 80,41.5C 76.845,42.4095 74.1784,44.0762 72,46.5C 71.1779,44.2115 70.5112,41.8782 70,39.5C 66.9547,43.7565 63.788,47.9232 60.5,52C 57.3545,52.5888 54.6878,51.7555 52.5,49.5C 52.5,49.1667 52.5,48.8333 52.5,48.5C 57.4447,45.1888 61.778,41.1888 65.5,36.5 Z"/></g>
<g><path style="opacity:1" fill="#1699e1" d="M 114.5,37.5 C 119.511,37.3341 124.511,37.5007 129.5,38C 132.727,40.1118 136.06,41.9451 139.5,43.5C 139.063,45.0744 138.063,46.2411 136.5,47C 128.495,51.3357 120.495,55.6691 112.5,60C 114.058,60.21 115.391,60.71 116.5,61.5C 114.393,62.4682 112.059,62.8016 109.5,62.5C 103.642,62.8222 97.9753,62.4889 92.5,61.5C 97.8333,61.5 103.167,61.5 108.5,61.5C 109.586,61.38 110.253,60.7133 110.5,59.5C 111.837,52.1444 113.17,44.8111 114.5,37.5 Z"/></g>
<g><path style="opacity:1" fill="#1491d9" d="M 114.5,37.5 C 114.5,37.1667 114.5,36.8333 114.5,36.5C 141.005,36.1688 167.339,36.5022 193.5,37.5C 191.5,37.5 189.5,37.5 187.5,37.5C 177.81,37.1682 168.144,37.5016 158.5,38.5C 159.337,43.8605 160.337,49.1938 161.5,54.5C 154.116,51.6576 146.783,47.991 139.5,43.5C 136.06,41.9451 132.727,40.1118 129.5,38C 124.511,37.5007 119.511,37.3341 114.5,37.5 Z"/></g>
<g><path style="opacity:1" fill="#0288cf" d="M 90.5,47.5 C 96.5,52.1667 102.5,56.8333 108.5,61.5C 103.167,61.5 97.8333,61.5 92.5,61.5C 85.8333,61.5 79.1667,61.5 72.5,61.5C 62.6999,66.808 53.0332,72.308 43.5,78C 42.2986,78.9025 41.4652,80.0692 41,81.5C 40.0138,80.8288 38.8471,80.8288 37.5,81.5C 42.0042,70.4969 47.0042,59.8302 52.5,49.5C 54.6878,51.7555 57.3545,52.5888 60.5,52C 63.788,47.9232 66.9547,43.7565 70,39.5C 70.5112,41.8782 71.1779,44.2115 72,46.5C 74.1784,44.0762 76.845,42.4095 80,41.5C 83.3985,43.744 86.8985,45.744 90.5,47.5 Z"/></g>
<g><path style="opacity:1" fill="#0485d1" d="M 114.5,37.5 C 113.17,44.8111 111.837,52.1444 110.5,59.5C 110.253,60.7133 109.586,61.38 108.5,61.5C 102.5,56.8333 96.5,52.1667 90.5,47.5C 97.1089,40.8632 105.109,37.5298 114.5,37.5 Z"/></g>
<g><path style="opacity:0.999" fill="#1c9ad7" d="M 187.5,37.5 C 189.5,37.5 191.5,37.5 193.5,37.5C 208.264,40.9367 216.264,50.27 217.5,65.5C 217.489,67.0451 217.156,68.3784 216.5,69.5C 217.125,66.0295 216.125,63.1962 213.5,61C 204.538,54.1922 195.205,48.0256 185.5,42.5C 185.167,41.5 184.5,40.8333 183.5,40.5C 184.833,39.5 186.167,38.5 187.5,37.5 Z"/></g>
<g><path style="opacity:0.992" fill="#0b5f9a" d="M 36.5,36.5 C 41.0092,41.6861 46.3425,45.6861 52.5,48.5C 52.5,48.8333 52.5,49.1667 52.5,49.5C 47.0042,59.8302 42.0042,70.4969 37.5,81.5C 37.5,82.1667 37.5,82.8333 37.5,83.5C 35.1667,83.5 32.8333,83.5 30.5,83.5C 30.5,67.8333 30.5,52.1667 30.5,36.5C 32.5,36.5 34.5,36.5 36.5,36.5 Z"/></g>
<g><path style="opacity:1" fill="#1a9ae1" d="M 187.5,37.5 C 186.167,38.5 184.833,39.5 183.5,40.5C 176.47,46.1883 169.137,51.5216 161.5,56.5C 159.139,56.6741 156.806,57.0074 154.5,57.5C 141.833,58.8333 129.167,60.1667 116.5,61.5C 115.391,60.71 114.058,60.21 112.5,60C 120.495,55.6691 128.495,51.3357 136.5,47C 138.063,46.2411 139.063,45.0744 139.5,43.5C 146.783,47.991 154.116,51.6576 161.5,54.5C 160.337,49.1938 159.337,43.8605 158.5,38.5C 168.144,37.5016 177.81,37.1682 187.5,37.5 Z"/></g>
<g><path style="opacity:1" fill="#48b9ed" d="M 185.5,42.5 C 190.311,55.9997 195.644,69.333 201.5,82.5C 200.296,85.4147 198.296,87.5814 195.5,89C 196.056,89.3826 196.389,89.8826 196.5,90.5C 188.557,88.6201 180.557,86.9534 172.5,85.5C 168.233,85.203 164.066,85.5363 160,86.5C 158.698,85.9152 157.531,85.2485 156.5,84.5C 162.167,84.5 167.833,84.5 173.5,84.5C 176.346,71.1132 179.513,57.7799 183,44.5C 183.417,43.244 184.25,42.5774 185.5,42.5 Z"/></g>
<g><path style="opacity:1" fill="#42b2ea" d="M 183.5,40.5 C 184.5,40.8333 185.167,41.5 185.5,42.5C 184.25,42.5774 183.417,43.244 183,44.5C 179.513,57.7799 176.346,71.1132 173.5,84.5C 167.833,84.5 162.167,84.5 156.5,84.5C 153.223,84.7839 150.057,84.4505 147,83.5C 146.148,84.5707 145.315,85.5707 144.5,86.5C 144.443,85.391 144.11,84.391 143.5,83.5C 143.5,82.8333 143.167,82.5 142.5,82.5C 148.833,73.8333 155.167,65.1667 161.5,56.5C 169.137,51.5216 176.47,46.1883 183.5,40.5 Z"/></g>
<g><path style="opacity:1" fill="#38aee4" d="M 185.5,42.5 C 195.205,48.0256 204.538,54.1922 213.5,61C 216.125,63.1962 217.125,66.0295 216.5,69.5C 215.767,79.9692 210.767,87.6359 201.5,92.5C 200.22,91.0687 198.553,90.4021 196.5,90.5C 196.389,89.8826 196.056,89.3826 195.5,89C 198.296,87.5814 200.296,85.4147 201.5,82.5C 195.644,69.333 190.311,55.9997 185.5,42.5 Z"/></g>
<g><path style="opacity:1" fill="#27a6e6" d="M 154.5,57.5 C 146.097,62.7129 137.097,67.5463 127.5,72C 128.634,73.016 128.301,73.6827 126.5,74C 127.308,74.3076 127.975,74.8076 128.5,75.5C 125.991,76.9213 123.657,78.5879 121.5,80.5C 121.863,81.1835 122.196,81.8501 122.5,82.5C 116.833,82.5 111.167,82.5 105.5,82.5C 106.211,75.7032 107.544,69.0365 109.5,62.5C 112.059,62.8016 114.393,62.4682 116.5,61.5C 129.167,60.1667 141.833,58.8333 154.5,57.5 Z"/></g>
<g><path style="opacity:1" fill="#0690d1" d="M 72.5,61.5 C 73.3544,68.481 74.021,75.481 74.5,82.5C 84.8333,82.5 95.1667,82.5 105.5,82.5C 111.167,82.5 116.833,82.5 122.5,82.5C 129.167,82.5 135.833,82.5 142.5,82.5C 143.167,82.5 143.5,82.8333 143.5,83.5C 108.167,83.5 72.8333,83.5 37.5,83.5C 37.5,82.8333 37.5,82.1667 37.5,81.5C 38.8471,80.8288 40.0138,80.8288 41,81.5C 41.4652,80.0692 42.2986,78.9025 43.5,78C 53.0332,72.308 62.6999,66.808 72.5,61.5 Z"/></g>
<g><path style="opacity:1" fill="#0da4e6" d="M 72.5,61.5 C 79.1667,61.5 85.8333,61.5 92.5,61.5C 97.9753,62.4889 103.642,62.8222 109.5,62.5C 107.544,69.0365 106.211,75.7032 105.5,82.5C 95.1667,82.5 84.8333,82.5 74.5,82.5C 74.021,75.481 73.3544,68.481 72.5,61.5 Z"/></g>
<g><path style="opacity:1" fill="#2da9e6" d="M 161.5,56.5 C 155.167,65.1667 148.833,73.8333 142.5,82.5C 135.833,82.5 129.167,82.5 122.5,82.5C 122.196,81.8501 121.863,81.1835 121.5,80.5C 123.657,78.5879 125.991,76.9213 128.5,75.5C 127.975,74.8076 127.308,74.3076 126.5,74C 128.301,73.6827 128.634,73.016 127.5,72C 137.097,67.5463 146.097,62.7129 154.5,57.5C 156.806,57.0074 159.139,56.6741 161.5,56.5 Z"/></g>
<g><path style="opacity:0.999" fill="#5fc0e9" d="M 172.5,85.5 C 180.557,86.9534 188.557,88.6201 196.5,90.5C 198.553,90.4021 200.22,91.0687 201.5,92.5C 197.386,96.0642 193.052,99.3975 188.5,102.5C 188.265,101.903 187.765,101.57 187,101.5C 181.443,104.028 175.943,106.695 170.5,109.5C 171.072,101.488 171.739,93.4876 172.5,85.5 Z"/></g>
<g><path style="opacity:1" fill="#53bae9" d="M 156.5,84.5 C 157.531,85.2485 158.698,85.9152 160,86.5C 164.066,85.5363 168.233,85.203 172.5,85.5C 171.739,93.4876 171.072,101.488 170.5,109.5C 157.974,105.53 145.308,102.864 132.5,101.5C 137.193,110.886 141.86,120.22 146.5,129.5C 138.528,126.54 129.861,124.207 120.5,122.5C 124.875,112.749 129.542,103.082 134.5,93.5C 137.475,90.6771 140.808,88.3437 144.5,86.5C 145.315,85.5707 146.148,84.5707 147,83.5C 150.057,84.4505 153.223,84.7839 156.5,84.5 Z"/></g>
<g><path style="opacity:1" fill="#5bbfeb" d="M 170.5,109.5 C 162.183,115.82 154.183,122.486 146.5,129.5C 141.86,120.22 137.193,110.886 132.5,101.5C 145.308,102.864 157.974,105.53 170.5,109.5 Z"/></g>
<g><path style="opacity:1" fill="#389bcf" d="M 110.5,110.5 C 113.275,114.45 116.275,118.283 119.5,122C 115.414,129.752 110.914,137.252 106,144.5C 105,136.167 104,127.833 103,119.5C 102.768,118.263 102.268,117.263 101.5,116.5C 103.975,113.759 106.975,111.759 110.5,110.5 Z"/></g>
<g><path style="opacity:1" fill="#5aa9cd" d="M 188.5,102.5 C 170.782,116.219 152.782,129.552 134.5,142.5C 133.833,142.5 133.167,142.5 132.5,142.5C 128.925,135.589 124.925,128.922 120.5,122.5C 129.861,124.207 138.528,126.54 146.5,129.5C 154.183,122.486 162.183,115.82 170.5,109.5C 175.943,106.695 181.443,104.028 187,101.5C 187.765,101.57 188.265,101.903 188.5,102.5 Z"/></g>
<g><path style="opacity:0.999" fill="#1496d3" d="M 87.5,126.5 C 87.3893,127.117 87.056,127.617 86.5,128C 93.0038,133.337 99.0038,139.171 104.5,145.5C 92.5,145.5 80.5,145.5 68.5,145.5C 65.6907,145.957 63.024,145.957 60.5,145.5C 69.2178,138.785 78.2178,132.452 87.5,126.5 Z"/></g>
<g><path style="opacity:1" fill="#3aa3da" d="M 134.5,93.5 C 129.542,103.082 124.875,112.749 120.5,122.5C 124.925,128.922 128.925,135.589 132.5,142.5C 131.883,142.389 131.383,142.056 131,141.5C 130.097,142.701 128.931,143.535 127.5,144C 127.833,144.333 128.167,144.667 128.5,145C 126.913,145.862 125.246,146.529 123.5,147C 125.932,148.087 125.598,148.587 122.5,148.5C 117.303,146.913 111.969,146.246 106.5,146.5C 106.167,146.5 105.833,146.5 105.5,146.5C 105.5,145.833 105.167,145.5 104.5,145.5C 99.0038,139.171 93.0038,133.337 86.5,128C 87.056,127.617 87.3893,127.117 87.5,126.5C 91.8648,122.811 96.5315,119.478 101.5,116.5C 102.268,117.263 102.768,118.263 103,119.5C 104,127.833 105,136.167 106,144.5C 110.914,137.252 115.414,129.752 119.5,122C 116.275,118.283 113.275,114.45 110.5,110.5C 117.939,104.063 125.939,98.3968 134.5,93.5 Z"/></g>
<g><path style="opacity:0.995" fill="#3580a9" d="M 132.5,142.5 C 133.167,142.5 133.833,142.5 134.5,142.5C 130.538,145.488 126.538,148.488 122.5,151.5C 122.5,150.5 122.5,149.5 122.5,148.5C 125.598,148.587 125.932,148.087 123.5,147C 125.246,146.529 126.913,145.862 128.5,145C 128.167,144.667 127.833,144.333 127.5,144C 128.931,143.535 130.097,142.701 131,141.5C 131.383,142.056 131.883,142.389 132.5,142.5 Z"/></g>
<g><path style="opacity:1" fill="#0690d7" d="M 68.5,145.5 C 80.5,145.5 92.5,145.5 104.5,145.5C 105.167,145.5 105.5,145.833 105.5,146.5C 95.1275,152.692 85.1275,159.525 75.5,167C 72.89,168.481 70.2234,169.648 67.5,170.5C 67.1981,162.082 67.5314,153.748 68.5,145.5 Z"/></g>
<g><path style="opacity:1" fill="#0e8ed2" d="M 105.5,146.5 C 105.833,146.5 106.167,146.5 106.5,146.5C 107.46,150.195 107.46,153.861 106.5,157.5C 98.5924,162.609 90.9258,167.943 83.5,173.5C 78.4246,173.351 73.4246,172.685 68.5,171.5C 67.8333,171.5 67.5,171.167 67.5,170.5C 70.2234,169.648 72.89,168.481 75.5,167C 85.1275,159.525 95.1275,152.692 105.5,146.5 Z"/></g>
<g><path style="opacity:0.999" fill="#076fab" d="M 48.5,153.5 C 48.3778,158.567 47.7111,163.567 46.5,168.5C 43.2976,175.072 39.9643,181.572 36.5,188C 38.1184,190.484 40.4517,191.984 43.5,192.5C 43.6107,193.117 43.944,193.617 44.5,194C 42.3442,195.99 40.3442,198.157 38.5,200.5C 39.5543,202.201 40.5543,203.868 41.5,205.5C 38.5722,204.409 36.4055,202.409 35,199.5C 25.2395,179.95 29.7395,164.617 48.5,153.5 Z"/></g>
<g><path style="opacity:1" fill="#047bc0" d="M 60.5,145.5 C 63.024,145.957 65.6907,145.957 68.5,145.5C 67.5314,153.748 67.1981,162.082 67.5,170.5C 67.5,171.167 67.8333,171.5 68.5,171.5C 68.5,171.833 68.5,172.167 68.5,172.5C 66.9217,173.066 65.5884,174.066 64.5,175.5C 59.8088,181.852 55.1421,188.185 50.5,194.5C 48.079,194.122 45.7457,193.455 43.5,192.5C 40.4517,191.984 38.1184,190.484 36.5,188C 39.9643,181.572 43.2976,175.072 46.5,168.5C 47.7111,163.567 48.3778,158.567 48.5,153.5C 52.2229,150.449 56.2229,147.782 60.5,145.5 Z"/></g>
<g><path style="opacity:0.999" fill="#1e92d2" d="M 106.5,146.5 C 111.969,146.246 117.303,146.913 122.5,148.5C 122.5,149.5 122.5,150.5 122.5,151.5C 116.903,155.981 111.236,160.481 105.5,165C 106.044,165.717 106.711,166.217 107.5,166.5C 122.324,167.496 137.324,167.829 152.5,167.5C 155.42,172.427 158.754,177.094 162.5,181.5C 162.167,181.5 161.833,181.5 161.5,181.5C 151.471,179.2 141.637,176.2 132,172.5C 125.772,174.078 119.605,175.745 113.5,177.5C 113.167,177.5 112.833,177.5 112.5,177.5C 102.78,176.457 93.1129,175.124 83.5,173.5C 90.9258,167.943 98.5924,162.609 106.5,157.5C 107.46,153.861 107.46,150.195 106.5,146.5 Z"/></g>
<g><path style="opacity:0.196" fill="#0c2535" d="M 107.5,166.5 C 144.833,166.5 182.167,166.5 219.5,166.5C 219.83,182.009 219.496,197.342 218.5,212.5C 218.5,212.167 218.5,211.833 218.5,211.5C 218.5,202.5 218.5,193.5 218.5,184.5C 218.5,178.833 218.5,173.167 218.5,167.5C 208.167,167.5 197.833,167.5 187.5,167.5C 185.167,167.5 182.833,167.5 180.5,167.5C 171.167,167.5 161.833,167.5 152.5,167.5C 137.324,167.829 122.324,167.496 107.5,166.5 Z"/></g>
<g><path style="opacity:1" fill="#3b9ed4" d="M 152.5,167.5 C 161.833,167.5 171.167,167.5 180.5,167.5C 175.488,172.51 170.155,177.177 164.5,181.5C 163.833,181.5 163.167,181.5 162.5,181.5C 158.754,177.094 155.42,172.427 152.5,167.5 Z"/></g>
<g><path style="opacity:1" fill="#3fb4e9" d="M 187.5,167.5 C 197.833,167.5 208.167,167.5 218.5,167.5C 218.5,173.167 218.5,178.833 218.5,184.5C 203.85,186.166 189.183,187.832 174.5,189.5C 178.861,182.149 183.194,174.816 187.5,167.5 Z"/></g>
<g><path style="opacity:1" fill="#2890cd" d="M 180.5,167.5 C 182.833,167.5 185.167,167.5 187.5,167.5C 183.194,174.816 178.861,182.149 174.5,189.5C 171.556,187.689 168.556,185.856 165.5,184C 164.748,183.329 164.414,182.496 164.5,181.5C 170.155,177.177 175.488,172.51 180.5,167.5 Z"/></g>
<g><path style="opacity:1" fill="#037cc8" d="M 68.5,172.5 C 68.5,172.167 68.5,171.833 68.5,171.5C 73.4246,172.685 78.4246,173.351 83.5,173.5C 93.1129,175.124 102.78,176.457 112.5,177.5C 112.203,186.313 108.87,193.813 102.5,200C 100.833,200.667 99.1667,200.667 97.5,200C 96.0001,198.885 94.3334,198.052 92.5,197.5C 90.0217,200.152 87.855,203.819 86,208.5C 85.0656,207.142 84.2323,205.808 83.5,204.5C 83.8168,200.298 83.4834,196.298 82.5,192.5C 78.1901,185.534 73.5235,178.867 68.5,172.5 Z"/></g>
<g><path style="opacity:1" fill="#1c8bcd" d="M 161.5,181.5 C 161.631,182.376 161.298,183.043 160.5,183.5C 152.464,187.233 144.464,190.899 136.5,194.5C 129.011,188.589 121.345,182.923 113.5,177.5C 119.605,175.745 125.772,174.078 132,172.5C 141.637,176.2 151.471,179.2 161.5,181.5 Z"/></g>
<g><path style="opacity:1" fill="#0e85cf" d="M 112.5,177.5 C 112.833,177.5 113.167,177.5 113.5,177.5C 121.345,182.923 129.011,188.589 136.5,194.5C 135.508,194.328 134.842,194.662 134.5,195.5C 125.86,198.545 117.36,201.878 109,205.5C 105.853,203.118 102.353,201.951 98.5,202C 95.8539,204.802 93.8539,207.968 92.5,211.5C 89.5,211.5 86.5,211.5 83.5,211.5C 83.5,209.167 83.5,206.833 83.5,204.5C 84.2323,205.808 85.0656,207.142 86,208.5C 87.855,203.819 90.0217,200.152 92.5,197.5C 94.3334,198.052 96.0001,198.885 97.5,200C 99.1667,200.667 100.833,200.667 102.5,200C 108.87,193.813 112.203,186.313 112.5,177.5 Z"/></g>
<g><path style="opacity:1" fill="#0671b9" d="M 68.5,172.5 C 73.5235,178.867 78.1901,185.534 82.5,192.5C 81.8333,192.833 81.1667,193.167 80.5,193.5C 71.4644,193.67 62.4644,194.336 53.5,195.5C 52.2739,195.48 51.2739,195.147 50.5,194.5C 55.1421,188.185 59.8088,181.852 64.5,175.5C 65.5884,174.066 66.9217,173.066 68.5,172.5 Z"/></g>
<g><path style="opacity:1" fill="#1d92d8" d="M 161.5,181.5 C 161.833,181.5 162.167,181.5 162.5,181.5C 165.141,191.398 167.474,201.398 169.5,211.5C 156.5,211.5 143.5,211.5 130.5,211.5C 132.364,206.274 134.364,201.107 136.5,196C 135.906,195.536 135.239,195.369 134.5,195.5C 134.842,194.662 135.508,194.328 136.5,194.5C 144.464,190.899 152.464,187.233 160.5,183.5C 161.298,183.043 161.631,182.376 161.5,181.5 Z"/></g>
<g><path style="opacity:1" fill="#27a2e4" d="M 162.5,181.5 C 163.167,181.5 163.833,181.5 164.5,181.5C 164.414,182.496 164.748,183.329 165.5,184C 168.556,185.856 171.556,187.689 174.5,189.5C 189.183,187.832 203.85,186.166 218.5,184.5C 218.5,193.5 218.5,202.5 218.5,211.5C 211.833,211.5 205.167,211.5 198.5,211.5C 194.355,207.165 189.855,203.165 185,199.5C 182.576,202.949 179.409,205.449 175.5,207C 176.654,207.914 176.487,208.747 175,209.5C 173.375,208.588 172.541,209.255 172.5,211.5C 171.5,211.5 170.5,211.5 169.5,211.5C 167.474,201.398 165.141,191.398 162.5,181.5 Z"/></g>
<g><path style="opacity:1" fill="#0473b5" d="M 43.5,192.5 C 45.7457,193.455 48.079,194.122 50.5,194.5C 51.2739,195.147 52.2739,195.48 53.5,195.5C 62.4644,194.336 71.4644,193.67 80.5,193.5C 69.8944,199.636 58.8944,204.969 47.5,209.5C 44.8021,209.155 42.8021,207.822 41.5,205.5C 40.5543,203.868 39.5543,202.201 38.5,200.5C 40.3442,198.157 42.3442,195.99 44.5,194C 43.944,193.617 43.6107,193.117 43.5,192.5 Z"/></g>
<g><path style="opacity:1" fill="#2178b0" d="M 82.5,192.5 C 83.4834,196.298 83.8168,200.298 83.5,204.5C 83.5,206.833 83.5,209.167 83.5,211.5C 86.5,211.5 89.5,211.5 92.5,211.5C 105.167,211.5 117.833,211.5 130.5,211.5C 143.5,211.5 156.5,211.5 169.5,211.5C 170.5,211.5 171.5,211.5 172.5,211.5C 181.167,211.5 189.833,211.5 198.5,211.5C 205.167,211.5 211.833,211.5 218.5,211.5C 218.5,211.833 218.5,212.167 218.5,212.5C 163.832,212.667 109.166,212.5 54.5,212C 51.8958,211.61 49.5625,210.776 47.5,209.5C 58.8944,204.969 69.8944,199.636 80.5,193.5C 81.1667,193.167 81.8333,192.833 82.5,192.5 Z"/></g>
<g><path style="opacity:1" fill="#1a98df" d="M 134.5,195.5 C 135.239,195.369 135.906,195.536 136.5,196C 134.364,201.107 132.364,206.274 130.5,211.5C 117.833,211.5 105.167,211.5 92.5,211.5C 93.8539,207.968 95.8539,204.802 98.5,202C 102.353,201.951 105.853,203.118 109,205.5C 117.36,201.878 125.86,198.545 134.5,195.5 Z"/></g>
<g><path style="opacity:1" fill="#2197dd" d="M 198.5,211.5 C 189.833,211.5 181.167,211.5 172.5,211.5C 172.541,209.255 173.375,208.588 175,209.5C 176.487,208.747 176.654,207.914 175.5,207C 179.409,205.449 182.576,202.949 185,199.5C 189.855,203.165 194.355,207.165 198.5,211.5 Z"/></g>
</svg>
