<svg width="940" height="940" viewBox="0 0 940 940" fill="none" xmlns="http://www.w3.org/2000/svg">
<g clip-path="url(#clip0_1_13)">
<path fill-rule="evenodd" clip-rule="evenodd" d="M469.855 -0.0286865C729.35 -0.0286865 939.71 210.41 939.71 470C939.71 729.589 729.35 940.031 469.855 940.031C210.361 940.031 0 729.589 0 470C0 210.41 210.361 -0.0286865 469.855 -0.0286865Z" fill="#07F7BD"/>
<path d="M494.182 596.967C504.258 596.967 513.326 594.147 521.386 588.507L397.455 386.676V548.624C397.455 561.919 402.089 573.4 411.359 583.069C421.032 592.334 432.518 596.967 445.818 596.967H494.182ZM337 343.771C337 324.031 341.836 305.903 351.509 289.386C361.585 272.466 374.885 259.171 391.409 249.503C407.933 239.834 426.07 235 445.818 235H494.182C513.93 235 532.067 239.834 548.591 249.503C565.518 259.171 578.818 272.466 588.491 289.386C598.164 305.903 603 324.031 603 343.771V548.624C603 568.364 598.164 586.694 588.491 603.614C578.818 620.131 565.518 633.426 548.591 643.497C532.067 653.166 513.93 658 494.182 658H445.818C426.07 658 407.933 653.166 391.409 643.497C374.885 633.426 361.585 620.131 351.509 603.614C341.836 586.694 337 568.364 337 548.624V343.771ZM542.545 506.324V343.771C542.545 330.074 537.911 318.593 528.641 309.327C519.371 300.061 507.885 295.429 494.182 295.429H445.818C435.339 295.429 426.07 298.249 418.009 303.889L542.545 506.324Z" fill="black"/>
</g>
<defs>
<clipPath id="clip0_1_13">
<rect width="940" height="940" fill="white"/>
</clipPath>
</defs>
</svg>
