<svg width="940" height="940" viewBox="0 0 940 940" fill="none" xmlns="http://www.w3.org/2000/svg">
<path fill-rule="evenodd" clip-rule="evenodd" d="M470 940C729.574 940 940 729.574 940 470C940 210.426 729.574 0 470 0C210.426 0 0 210.426 0 470C0 729.574 210.426 940 470 940Z" fill="black"/>
<path d="M495.067 626.04C505.512 626.04 514.912 623.115 523.267 617.267L394.8 407.96V575.907C394.8 589.693 399.605 601.6 409.214 611.627C419.24 621.235 431.147 626.04 444.934 626.04H495.067ZM332.134 363.466C332.134 342.995 337.147 324.195 347.174 307.067C357.618 289.52 371.405 275.733 388.534 265.706C405.663 255.68 424.463 250.667 444.934 250.667H495.067C515.538 250.667 534.338 255.68 551.467 265.706C569.014 275.733 582.8 289.52 592.827 307.067C602.854 324.195 607.867 342.995 607.867 363.466V575.907C607.867 596.378 602.854 615.387 592.827 632.933C582.8 650.062 569.014 663.849 551.467 674.293C534.338 684.32 515.538 689.333 495.067 689.333H444.934C424.463 689.333 405.663 684.32 388.534 674.293C371.405 663.849 357.618 650.062 347.174 632.933C337.147 615.387 332.134 596.378 332.134 575.907V363.466ZM545.2 532.04V363.466C545.2 349.262 540.396 337.355 530.787 327.747C521.178 318.138 509.272 313.333 495.067 313.333H444.934C434.072 313.333 424.463 316.258 416.107 322.107L545.2 532.04Z" fill="white"/>
</svg>
