<svg height="250" viewBox="0 0 250 250" width="250" xmlns="http://www.w3.org/2000/svg" xmlns:xlink="http://www.w3.org/1999/xlink"><symbol id="a" overflow="visible"><path d="m2.203125 0v-5.359375l13.703125-18.296875h-12.59375v-5.46875h20.9375v5.40625l-13.625 18.203125h14.953125v5.515625zm0 0"/></symbol><symbol id="b" overflow="visible"><path d="m3.84375-34.375v-5.5625h7.5625v5.5625zm0 34.375v-29.125h7.5625v29.125zm0 0"/></symbol><symbol id="c" overflow="visible"><path d="m3.84375 0v-39.9375h7.5625v39.9375zm0 0"/></symbol><symbol id="d" overflow="visible"><path d="m2.265625-14.53125c0-4.8125.976563-8.539062 2.9375-11.1875 1.96875-2.644531 4.738281-3.96875 8.3125-3.96875 4.226563 0 7.160156 1.75 8.796875 5.25 0-.820312.046875-1.738281.140625-2.75.101563-1.019531.191406-1.664062.265625-1.9375h7.265625c-.105469 1.9375-.15625 4.171875-.15625 6.703125v33.859375h-7.515625v-12.109375l.140625-4.171875h-.0625c-1.667969 3.585938-4.835937 5.375-9.5 5.375-3.386719 0-6.007813-1.320312-7.859375-3.96875-1.84375-2.644531-2.765625-6.34375-2.765625-11.09375zm20.109375-.171875c0-3.101563-.523438-5.507813-1.5625-7.21875-1.042969-1.71875-2.578125-2.578125-4.609375-2.578125-4.042969 0-6.0625 3.324219-6.0625 9.96875 0 6.605469 2.003906 9.90625 6.015625 9.90625 1.96875 0 3.492188-.875 4.578125-2.625 1.09375-1.75 1.640625-4.234375 1.640625-7.453125zm0 0"/></symbol><symbol id="e" overflow="visible"><path d="m10.578125.53125c-2.8125 0-5.011719-.765625-6.59375-2.296875-1.585937-1.53125-2.375-3.6875-2.375-6.46875 0-3.019531.984375-5.316406 2.953125-6.890625 1.96875-1.582031 4.816406-2.390625 8.546875-2.421875l6.265625-.109375v-1.484375c0-1.894531-.335938-3.304687-1-4.234375-.65625-.925781-1.742188-1.390625-3.25-1.390625-1.398438 0-2.421875.320313-3.078125.953125-.65625.636719-1.0625 1.695312-1.21875 3.171875l-7.890625-.375c.476562-2.84375 1.769531-4.992187 3.875-6.453125 2.113281-1.457031 4.992188-2.1875 8.640625-2.1875 3.675781 0 6.507813.90625 8.5 2.71875 1.988281 1.8125 2.984375 4.386719 2.984375 7.71875v10.609375c0 1.636719.179688 2.761719.546875 3.375.375.617187.992187.921875 1.859375.921875.570312 0 1.128906-.050781 1.671875-.15625v4.09375c-.460937.105469-.867187.203125-1.21875.296875-.355469.08203125-.714844.1484375-1.078125.203125-.355469.0625-.734375.109375-1.140625.140625-.40625.039063-.882813.0625-1.421875.0625-1.898438 0-3.296875-.460937-4.203125-1.390625-.90625-.9375-1.449219-2.3125-1.625-4.125h-.171875c-2.117188 3.8125-5.308594 5.71875-9.578125 5.71875zm8.796875-14.015625-3.875.046875c-1.761719.074219-3.011719.273438-3.75.59375-.730469.3125-1.289062.792969-1.671875 1.4375-.386719.648438-.578125 1.507812-.578125 2.578125 0 1.386719.316406 2.417969.953125 3.09375.632813.667969 1.484375 1 2.546875 1 1.1875 0 2.269531-.320313 3.25-.96875.976562-.644531 1.742188-1.535156 2.296875-2.671875.550781-1.144531.828125-2.351562.828125-3.625zm0 0"/></symbol><path d="m159.5 64.777344-99.964844-47.957032v26.277344l68.769532 32.992188-68.769532 33.496094v26.277343l99.964844 47.957031v-26.277343l-67.503906-32.382813 67.503906-34.105468zm0 0" fill="#49c1bf"/><path d="m159.5 64.886719 25.964844-11.554688v26.007813l-25.964844 11.554687zm0 0" fill="#298e97"/><path d="m159.5 183.816406 25.964844-11.503906v-80.320312l-25.964844 11.503906zm0 0" fill="#298e97"/><g fill="#077a8f"><path d="m85.671875 5.460938-26.136719 11.359374.386719.1875 99.578125 47.878907 25.964844-11.554688zm0 0"/><g><use x="49.273438" xlink:href="#a" y="230.407864"/><use x="76.8342" xlink:href="#b" y="230.407864"/><use x="92.268227" xlink:href="#c" y="230.407864"/><use x="107.702253" xlink:href="#c" y="230.407864"/><use x="123.13628" xlink:href="#b" y="230.407864"/><use x="138.570307" xlink:href="#d" y="230.407864"/><use x="172.745652" xlink:href="#e" y="230.407864"/></g></g></svg>