<svg height="250" viewBox="0 0 250 250" width="250" xmlns="http://www.w3.org/2000/svg"><g fill-rule="evenodd"><path d="m179.824219 39.050781c-.542969.765625-5.25 5.933594-10.460938 11.480469-5.210937 5.546875-19.078125 20.421875-30.8125 33.054688-11.734375 12.628906-23.566406 25.339843-26.292969 28.242187-8.339843 8.886719-53.78125 57.75-57.214843 61.527344-1.777344 1.953125-3.113281 3.867187-2.96875 4.257812.296875.800781 13.847656 13.652344 14.398437 13.652344.199219 0 6.40625-6.523437 13.792969-14.496094 7.386719-7.972656 15.832031-17.035156 18.773437-20.144531 2.9375-3.105469 7.523438-8.015625 10.191407-10.910156 2.667969-2.894532 7.246093-7.808594 10.175781-10.917969 2.925781-3.109375 7.988281-8.535156 11.242188-12.054687 14.195312-15.34375 33.617187-36.210938 39.949218-42.921876 4.832032-5.121093 12.519532-13.398437 15.394532-16.578124.621093-.683594 3.277343-3.5 5.902343-6.253907 2.625-2.757812 4.660157-5.320312 4.519531-5.703125-.429687-1.164062-13.984374-13.632812-14.820312-13.632812-.433594 0-1.230469.628906-1.769531 1.398437m-89.589844 6.03125c-.136719.359375-9.925781 10.777344-21.757813 23.15625-11.828124 12.375-23.007812 24.152344-24.84375 26.175781l-3.34375 3.671876 7.523438 7.050781 7.523438 7.046875 2.339843-2.4375c1.285157-1.34375 10.242188-10.742188 19.902344-20.890625 9.660156-10.148438 20.125-21.074219 23.253906-24.285157l5.6875-5.839843-7.125-7.152344c-6.703125-6.730469-8.5625-8.050781-9.160156-6.496094m93.484375 94.789063c-2.640625 2.796875-8.207031 8.648437-12.371094 13.007812-4.160156 4.355469-11.113281 11.640625-15.445312 16.1875-4.332032 4.546875-10.25 10.722656-13.15625 13.722656l-5.277344 5.457032 4.121094 4.203125c2.265625 2.3125 5.6875 5.53125 7.601562 7.152343l3.484375 2.945313 15.667969-16.371094c23.625-24.691406 30.609375-32.015625 33.054688-34.683593l2.230468-2.429688-7.109375-7.136719c-3.910156-3.925781-7.308593-7.136719-7.554687-7.136719s-2.605469 2.285157-5.246094 5.082032" fill="#f6f6f6"/><path d="m0 125.003906v125l125.1875-.191406 125.1875-.1875.382812-249.625h-250.757812zm.367188.371094c0 68.75.089843 96.988281.199218 62.75.105469-34.238281.105469-90.488281 0-125-.109375-34.511719-.199218-6.5-.199218 62.25m179.457031-86.324219c-.542969.765625-5.25 5.933594-10.460938 11.480469-5.210937 5.546875-19.078125 20.421875-30.8125 33.054688-11.734375 12.628906-23.566406 25.339843-26.292969 28.242187-8.339843 8.886719-53.78125 57.75-57.214843 61.527344-1.777344 1.953125-3.113281 3.867187-2.96875 4.257812.296875.800781 13.847656 13.652344 14.398437 13.652344.199219 0 6.40625-6.523437 13.792969-14.496094 7.386719-7.972656 15.832031-17.035156 18.773437-20.144531 2.9375-3.105469 7.523438-8.015625 10.191407-10.910156 2.667969-2.894532 7.246093-7.808594 10.175781-10.917969 2.925781-3.109375 7.988281-8.535156 11.242188-12.054687 14.195312-15.34375 33.617187-36.210938 39.949218-42.921876 4.832032-5.121093 12.519532-13.398437 15.394532-16.578124.621093-.683594 3.277343-3.5 5.902343-6.253907 2.625-2.757812 4.660157-5.320312 4.519531-5.703125-.429687-1.164062-13.984374-13.632812-14.820312-13.632812-.433594 0-1.230469.628906-1.769531 1.398437m-89.589844 6.03125c-.136719.359375-9.925781 10.777344-21.757813 23.15625-11.828124 12.375-23.007812 24.152344-24.84375 26.175781l-3.34375 3.671876 7.523438 7.050781 7.523438 7.046875 2.339843-2.4375c1.285157-1.34375 10.242188-10.742188 19.902344-20.890625 9.660156-10.148438 20.125-21.074219 23.253906-24.285157l5.6875-5.839843-7.125-7.152344c-6.703125-6.730469-8.5625-8.050781-9.160156-6.496094m93.484375 94.789063c-2.640625 2.796875-8.207031 8.648437-12.371094 13.007812-4.160156 4.355469-11.113281 11.640625-15.445312 16.1875-4.332032 4.546875-10.25 10.722656-13.15625 13.722656l-5.277344 5.457032 4.121094 4.203125c2.265625 2.3125 5.6875 5.53125 7.601562 7.152343l3.484375 2.945313 15.667969-16.371094c23.625-24.691406 30.609375-32.015625 33.054688-34.683593l2.230468-2.429688-7.109375-7.136719c-3.910156-3.925781-7.308593-7.136719-7.554687-7.136719s-2.605469 2.285157-5.246094 5.082032" fill="#040404"/></g></svg>