<svg id="svg" version="1.1" xmlns="http://www.w3.org/2000/svg" xmlns:xlink="http://www.w3.org/1999/xlink" width="400" height="400" viewBox="0, 0, 400,400"><g id="svgg"><path id="path0" d="M191.400 28.019 C 92.408 33.095,18.345 120.312,29.306 218.901 C 39.557 311.114,122.714 379.091,215.000 370.699 C 312.245 361.857,382.521 274.707,370.389 178.000 C 359.247 89.192,280.774 23.436,191.400 28.019 M212.600 38.694 C 312.216 46.742,380.750 141.948,356.575 238.700 C 331.780 337.931,221.749 389.388,129.583 344.854 C 38.499 300.843,10.053 183.787,70.777 102.860 C 100.157 63.705,143.061 41.123,193.400 38.319 C 196.367 38.154,208.959 38.400,212.600 38.694 M194.500 48.413 C 181.116 48.867,168.058 51.079,155.000 55.104 C 149.611 56.765,141.207 59.929,141.199 60.300 C 141.196 60.410,142.015 62.446,143.018 64.825 L 144.842 69.150 147.071 68.251 C 192.763 49.823,245.469 56.744,284.900 86.348 C 359.525 142.374,361.003 253.219,287.900 311.234 C 263.785 330.372,231.999 341.800,202.884 341.800 L 200.000 341.800 200.000 346.732 L 200.000 351.663 204.850 351.536 C 278.610 349.609,339.536 295.249,350.093 221.946 C 362.501 135.784,300.068 56.745,213.406 48.904 C 210.521 48.643,199.801 48.143,199.100 48.237 C 198.990 48.252,196.920 48.331,194.500 48.413 M124.800 114.100 L 124.800 119.199 179.294 119.250 L 233.788 119.300 176.702 206.500 L 119.617 293.700 125.839 293.753 C 129.261 293.782,132.084 293.782,132.112 293.753 C 132.170 293.693,250.462 113.229,252.133 110.650 L 253.202 109.000 189.001 109.000 L 124.800 109.000 124.800 114.100 M207.150 201.282 C 174.067 252.032,147.000 293.610,147.000 293.678 C 147.000 293.745,176.475 293.800,212.500 293.800 L 278.000 293.800 278.000 288.400 L 278.000 283.001 222.134 282.950 L 166.269 282.900 223.142 196.300 C 254.422 148.670,280.105 109.543,280.215 109.350 C 280.403 109.020,280.045 109.000,273.857 109.005 L 267.300 109.010 207.150 201.282 " stroke="none" fill="#fcfcfc" fill-rule="evenodd"></path><path id="path1" d="M196.200 5.144 C 100.263 6.590,18.731 79.628,6.702 174.900 C -9.356 302.092,97.908 409.356,225.100 393.298 C 312.425 382.272,382.272 312.425,393.298 225.100 C 408.279 106.439,315.895 3.340,196.200 5.144 M208.021 28.006 C 307.717 33.051,381.739 120.165,370.600 219.342 C 361.839 297.348,299.635 360.239,221.600 369.987 C 111.441 383.748,17.344 291.312,29.218 181.000 C 38.899 91.061,117.918 23.447,208.021 28.006 M193.400 38.319 C 158.936 40.239,129.804 50.568,103.500 70.194 C 28.617 126.065,16.664 233.866,77.498 304.700 C 138.708 375.970,247.668 380.109,314.088 313.688 C 389.931 237.846,371.885 110.219,277.969 58.244 C 252.641 44.227,221.034 36.780,193.400 38.319 M204.606 48.399 C 297.950 51.717,365.954 136.317,349.091 228.146 C 336.198 298.356,276.210 349.672,204.850 351.536 L 200.000 351.663 200.000 346.732 L 200.000 341.800 202.884 341.800 C 231.999 341.800,263.785 330.372,287.900 311.234 C 361.003 253.219,359.525 142.374,284.900 86.348 C 245.469 56.744,192.763 49.823,147.071 68.251 L 144.842 69.150 143.018 64.825 C 142.015 62.446,141.196 60.410,141.199 60.300 C 141.207 59.929,149.611 56.765,155.000 55.104 C 168.058 51.079,181.116 48.867,194.500 48.413 C 196.920 48.331,198.990 48.252,199.100 48.237 C 199.210 48.222,201.688 48.295,204.606 48.399 M252.133 110.650 C 250.462 113.229,132.170 293.693,132.112 293.753 C 132.084 293.782,129.261 293.782,125.839 293.753 L 119.617 293.700 176.702 206.500 L 233.788 119.300 179.294 119.250 L 124.800 119.199 124.800 114.100 L 124.800 109.000 189.001 109.000 L 253.202 109.000 252.133 110.650 M280.215 109.350 C 280.105 109.543,254.422 148.670,223.142 196.300 L 166.269 282.900 222.134 282.950 L 278.000 283.001 278.000 288.400 L 278.000 293.800 212.500 293.800 C 176.475 293.800,147.000 293.745,147.000 293.678 C 147.000 293.610,174.067 252.032,207.150 201.282 L 267.300 109.010 273.857 109.005 C 280.045 109.000,280.403 109.020,280.215 109.350 " stroke="none" fill="#141414" fill-rule="evenodd"></path></g></svg>