<svg height="250" viewBox="0 0 250 250" width="250" xmlns="http://www.w3.org/2000/svg"><path d="m250 125c0 69.035156-55.964844 125-125 125s-125-55.964844-125-125 55.964844-125 125-125 125 55.964844 125 125zm0 0" fill="#302c2c"/><path d="m121.0625 210.9375c-2.109375-.21875-4.21875-.414062-6.328125-.664062-11.339844-1.351563-22.292969-4.976563-32.203125-10.65625-.148438-.078126-.28125-.195313-.570312-.390626 17.234374-12.890624 34.390624-25.703124 51.640624-38.59375l5.195313 5.054688c2.890625 2.828125 5.796875 5.625 8.632813 8.492188.703124.703124 1.210937.695312 2.03125.273437 8.589843-4.289063 15.929687-10.71875 21.3125-18.671875l.835937-1.234375c.242187.28125.46875.507813.65625.757813 5.992187 7.984374 11.976563 15.96875 17.992187 23.929687.523438.6875.460938 1.09375-.09375 1.71875-13.929687 15.828125-31.242187 25.578125-52.109374 28.914063-2.625.421874-5.289063.578124-7.9375.867187-.351563.039063-.703126.132813-1.046876.203125zm7.578125-171.875c1.453125.148438 2.914063.304688 4.375.4375 12.3125 1.171875 23.828125 4.820312 34.554687 10.9375.15625.09375.289063.203125.546876.390625l-52.484376 37.648437c-.695312-.65625-1.367187-1.28125-2.03125-1.929687-3.6875-3.59375-7.390624-7.179687-11.054687-10.804687-.585937-.578126-1.03125-.640626-1.765625-.273438-8.742188 4.316406-16.203125 10.84375-21.640625 18.9375l-.78125 1.171875-19.28125-25.6875c1.945313-2.0625 3.742187-4.117187 5.6875-6.015625 12.679687-12.367188 27.734375-20.234375 45.179687-23.398438 3.359376-.609374 6.789063-.8125 10.1875-1.210937.382813-.039063.765626-.132813 1.140626-.203125zm-78.1875 43.234375 39.023437 51.15625-7.875 8.078125c-1.960937 2.007812-3.90625 4.039062-5.90625 6.015625-.5625.5625-.585937.992187-.242187 1.679687 4.308594 8.746094 10.835937 16.207032 18.929687 21.640626.273438.171874.546876.351562.804688.546874.046875.03125.070312.109376.210938.375l-25.476563 19.109376c-15.234375-13.117188-25.117187-29.28125-29.085937-48.882813-4.25-20.984375-.804688-40.8125 9.625-59.71875zm110.742187 34.140625 7.171876-7.445312c2-2.078126 3.96875-4.179688 6.015624-6.203126.640626-.632812.632813-1.109374.257813-1.859374-4.335937-8.851563-10.941406-16.390626-19.140625-21.859376-.289062-.195312-.570312-.40625-1.0625-.757812l25.617188-19.21875c14.507812 12.421875 24.140624 27.734375 28.5625 46.210938 5.523437 23.0625.601562 45.875-8.960938 61.9375zm0 0" fill="#fff" fill-rule="evenodd"/></svg>