<svg width="1024" height="1024" viewBox="0 0 1024 1024" fill="none" xmlns="http://www.w3.org/2000/svg">
<g clip-path="url(#clip0_766_630)">
<rect width="1024" height="1024" rx="102.4" fill="#EADDD0"/>
<g style="mix-blend-mode:plus-darker">
<rect x="-14" width="1038" height="1184" fill="url(#paint0_linear_766_630)"/>
</g>
<path fill-rule="evenodd" clip-rule="evenodd" d="M420.897 464.191C431.391 486.677 415.401 513.66 389.417 513.66C374.426 513.66 354.938 501.667 354.938 478.682C354.938 429.712 340.447 406.227 323.958 399.731C323.958 498.669 256 535.146 256 647.576C256 760.006 322.958 846.952 417.399 884.429C387.418 858.445 368.43 819.969 368.43 776.996C368.43 646.077 536.825 613.098 474.864 475.684C499.348 508.163 543.321 664.566 491.853 767.502C523.333 751.012 575.301 694.047 594.789 664.566C569.804 801.48 599.286 790.987 625.769 780.993C635.763 776.996 645.757 772.998 651.753 777.495C663.246 784.991 632.765 858.945 602.784 884.928C697.225 847.951 764.183 756.009 764.183 648.076C764.183 408.226 464.87 396.233 547.318 137.395C467.368 173.872 343.945 296.295 420.897 464.191Z" fill="white"/>
</g>
<defs>
<linearGradient id="paint0_linear_766_630" x1="1024" y1="164.444" x2="571.993" y2="1124.08" gradientUnits="userSpaceOnUse">
<stop offset="0.24" stop-color="#D0A44B"/>
<stop offset="0.48" stop-color="#F2E5CC"/>
<stop offset="0.765" stop-color="#D6B063"/>
</linearGradient>
<clipPath id="clip0_766_630">
<rect width="1024" height="1024" rx="102.4" fill="white"/>
</clipPath>
</defs>
</svg>
