<svg width="512" height="512" viewBox="0 0 512 512" fill="none" xmlns="http://www.w3.org/2000/svg">
<path d="M149.922 273.098C149.922 273.098 132.962 211.128 97.172 233.528C53.982 260.568 90.0819 405.268 202.682 416.188C350.562 430.528 426.452 278.198 432.162 234.928C439.742 177.478 395.892 181.218 359.622 228.908C359.622 228.908 434.472 150.438 411.022 116.808C379.572 71.6884 315.112 172.198 315.112 172.198C315.112 172.198 369.512 83.8984 330.612 62.7984C291.702 41.6984 249.272 99.1084 233.342 196.268C233.342 196.268 263.282 81.6484 203.172 91.7484C144.322 101.638 149.922 273.088 149.922 273.088V273.098Z" fill="#7DDA17"/>
<path d="M222.262 421.629C215.732 421.629 209.072 421.309 202.242 420.649C133.872 414.019 90.8617 358.379 78.5717 306.189C70.3017 271.089 76.6718 241.079 94.7918 229.739C104.142 223.889 113.272 222.629 121.922 226.009C132.342 230.079 140.072 240.349 145.362 250.149C146.172 202.029 153.522 95.5585 202.432 87.3385C215.432 85.1585 225.752 88.1185 233.092 96.1485C240.772 104.539 244.062 117.699 244.972 131.789C258.272 94.6385 276.462 68.1385 296.562 58.2885C308.622 52.3785 321.132 52.5785 332.732 58.8785C340.272 62.9685 345.272 69.4585 347.602 78.1785C351.832 94.0485 346.382 115.259 339.122 133.759C354.222 117.159 373.262 101.029 390.432 100.699C400.062 100.439 408.282 105.069 414.682 114.259C428.452 134.009 412.722 166.249 395.072 192.029C404.732 187.619 413.782 186.709 421.302 189.809C428.852 192.919 440.882 202.999 436.582 235.529C431.312 275.439 362.002 421.629 222.252 421.649L222.262 421.629ZM112.262 233.119C108.232 233.119 104.022 234.519 99.5418 237.319C84.9518 246.449 80.0218 273.299 87.2918 304.129C98.8518 353.219 139.152 405.529 203.112 411.729C280.852 419.239 335.392 379.139 367.432 344.139C404.342 303.809 424.912 255.659 427.722 234.339C430.282 214.909 426.712 201.689 417.902 198.069C409.462 194.589 394.182 199.219 377.152 215.719C369.522 224.969 363.692 231.129 362.852 232.009C361.212 233.729 358.512 233.859 356.702 232.329C354.892 230.789 354.602 228.099 356.042 226.209C360.812 219.939 365.742 214.349 370.712 209.509C392.882 182.499 421.422 139.569 407.342 119.369C402.692 112.699 397.202 109.479 390.612 109.639C365.642 110.119 330.362 156.709 318.872 174.619C317.542 176.679 314.802 177.309 312.722 175.989C310.642 174.679 310.002 171.939 311.292 169.849C311.652 169.269 347.132 111.129 338.942 80.4685C337.252 74.1285 333.822 69.6385 328.462 66.7285C319.382 61.8085 309.972 61.6685 300.492 66.3085C276.482 78.0785 255.222 117.239 242.822 171.079C240.712 185.479 237.952 196.249 237.652 197.389C237.052 199.709 234.722 201.149 232.392 200.639C230.052 200.139 228.512 197.899 228.902 195.539C230.352 186.669 232.042 178.079 233.942 169.819C237.382 145.869 238.402 115.229 226.462 102.179C221.222 96.4585 213.852 94.4885 203.892 96.1585C158.802 103.739 152.862 226.339 154.382 272.939C154.452 275.209 152.822 277.169 150.572 277.509C148.332 277.859 146.182 276.459 145.582 274.269C145.492 273.939 136.312 241.219 118.632 234.329C116.542 233.519 114.422 233.109 112.242 233.109L112.262 233.119Z" fill="black"/>
<path d="M263.451 458.189C245.231 458.189 229.261 452.339 215.861 440.739C173.971 404.489 171.581 325.019 171.501 321.649C171.441 319.179 173.391 317.129 175.871 317.059C175.911 317.059 175.941 317.059 175.981 317.059C178.401 317.059 180.401 318.989 180.451 321.429C180.471 322.219 182.851 400.339 221.741 433.979C235.781 446.129 253.151 451.049 273.361 448.619C293.671 446.169 309.391 437.249 320.101 422.099C349.511 380.479 333.011 304.939 332.841 304.189C332.301 301.779 333.821 299.379 336.231 298.839C338.621 298.289 341.041 299.809 341.581 302.229C342.311 305.479 359.131 382.369 327.431 427.259C315.201 444.579 297.371 454.759 274.441 457.519C270.701 457.969 267.031 458.199 263.461 458.199L263.451 458.189Z" fill="black"/>
<path d="M177.432 339.319C177.432 339.319 179.432 464.439 273.902 453.069C368.362 441.689 339.742 318.039 339.742 318.039" fill="#FC5E8B"/>
<path d="M262.092 458.278C242.582 458.278 225.792 452.238 212.042 440.238C174.462 407.448 172.992 342.148 172.942 339.388C172.902 336.918 174.872 334.878 177.342 334.838C179.732 334.808 181.852 336.768 181.892 339.238C181.902 339.878 183.372 403.358 217.942 433.508C232.502 446.208 251.142 451.298 273.342 448.618C295.322 445.968 312.052 436.668 323.082 420.958C349.702 383.048 335.492 319.678 335.352 319.048C334.792 316.638 336.292 314.238 338.702 313.678C341.092 313.108 343.512 314.618 344.072 317.028C344.712 319.778 359.332 384.868 330.432 426.078C317.882 443.968 299.032 454.548 274.412 457.508C270.192 458.018 266.072 458.268 262.072 458.268L262.092 458.278Z" fill="black"/>
<path d="M203.755 298.001C210.625 297.165 215.123 287.696 213.804 276.852C212.484 266.008 205.845 257.894 198.975 258.731C192.106 259.567 187.607 269.036 188.927 279.88C190.247 290.724 196.886 298.837 203.755 298.001Z" fill="black"/>
<path d="M302.479 285.979C309.348 285.143 313.847 275.674 312.527 264.83C311.207 253.986 304.568 245.873 297.699 246.709C290.83 247.545 286.331 257.014 287.651 267.858C288.971 278.702 295.61 286.815 302.479 285.979Z" fill="black"/>
<path d="M275.381 258.949C273.521 258.949 271.781 257.779 271.141 255.919C270.341 253.579 271.581 251.029 273.921 250.229L330.801 230.689C333.141 229.879 335.691 231.129 336.491 233.469C337.291 235.809 336.051 238.359 333.711 239.159L276.831 258.699C276.351 258.869 275.861 258.939 275.381 258.939V258.949Z" fill="black"/>
<path d="M223.581 268.718C223.101 268.718 222.611 268.638 222.131 268.478L165.251 248.938C162.911 248.138 161.671 245.588 162.471 243.248C163.271 240.908 165.831 239.658 168.161 240.468L225.041 260.008C227.381 260.808 228.621 263.358 227.821 265.698C227.181 267.558 225.451 268.728 223.581 268.728V268.718Z" fill="black"/>
<path d="M218.092 334.168C218.092 334.168 218.852 363.248 242.342 363.248C265.832 363.248 257.672 330.358 257.672 330.358" fill="white"/>
<path d="M242.342 367.728C220.312 367.728 213.912 345.848 213.612 334.288C213.542 331.818 215.502 329.758 217.972 329.698C218.012 329.698 218.052 329.698 218.092 329.698C220.512 329.698 222.502 331.618 222.562 334.048C222.592 335.098 223.552 358.778 242.342 358.778C246.452 358.778 249.392 357.578 251.332 355.088C256.202 348.878 254.422 335.908 253.322 331.438C252.732 329.038 254.202 326.608 256.602 326.018C258.982 325.418 261.422 326.888 262.022 329.288C262.532 331.358 266.802 349.858 258.402 360.598C255.852 363.858 251.002 367.738 242.342 367.738V367.728Z" fill="black"/>
<path d="M259.052 328.989C259.052 328.989 259.812 358.069 283.302 358.069C306.792 358.069 298.632 325.179 298.632 325.179" fill="white"/>
<path d="M283.302 362.549C261.272 362.549 254.872 340.679 254.572 329.109C254.502 326.639 256.462 324.579 258.932 324.519C261.502 324.399 263.462 326.399 263.522 328.869C263.552 329.919 264.512 353.589 283.302 353.589C287.412 353.589 290.352 352.389 292.292 349.899C297.162 343.689 295.382 330.719 294.282 326.249C293.692 323.849 295.152 321.419 297.562 320.829C299.942 320.239 302.382 321.699 302.982 324.099C303.492 326.169 307.762 344.659 299.362 355.409C296.812 358.669 291.962 362.549 283.302 362.549Z" fill="black"/>
<path d="M338.191 278.369C338.191 278.369 320.391 329.149 369.841 320.569L338.191 278.369Z" fill="#7DDA17"/>
<path d="M359.481 326.019C349.461 326.019 341.891 323.059 336.911 317.179C324.971 303.079 333.591 277.949 333.961 276.889C334.781 274.559 337.331 273.329 339.671 274.149C342.001 274.969 343.231 277.519 342.411 279.859C340.351 285.779 336.581 302.969 343.751 311.409C348.241 316.699 356.771 318.309 369.071 316.169C371.511 315.759 373.821 317.379 374.251 319.819C374.671 322.259 373.041 324.579 370.601 324.999C366.611 325.689 362.901 326.039 359.471 326.039L359.481 326.019Z" fill="black"/>
<path d="M159.852 346.099C157.642 346.099 155.712 344.459 155.422 342.199C155.102 339.749 156.832 337.499 159.282 337.179L339.152 313.599C341.592 313.299 343.852 315.009 344.172 317.459C344.492 319.909 342.762 322.159 340.312 322.479L160.442 346.059C160.242 346.079 160.052 346.099 159.852 346.099Z" fill="black"/>
</svg>
