<svg width="512" height="512" viewBox="0 0 512 512" fill="none" xmlns="http://www.w3.org/2000/svg">
<g clip-path="url(#clip0_7628_40804)">
<path d="M512 0V512H0V0H512ZM416.179 338.202C416.319 337.942 416.387 337.649 416.376 337.354C416.365 337.06 416.275 336.773 416.115 336.525C401.766 314.099 377.114 301.44 350.387 302.682C350.098 302.693 349.815 302.779 349.567 302.931C349.318 303.083 349.112 303.297 348.966 303.552C337.532 323.725 321.66 338.462 301.35 347.763C241.062 375.373 169.626 339.418 157.606 274.214C154.782 258.88 155.55 243.494 159.91 228.058C168.013 199.386 190.208 174.694 217.395 163.418C243.029 152.785 268.634 152.119 294.208 161.421C314.79 168.909 331.661 182.579 344.115 200.576C344.342 200.907 344.642 201.18 344.993 201.376C345.344 201.571 345.736 201.683 346.138 201.702C371.827 203.072 397.286 192.845 413.734 172.595C414.085 172.162 414.296 171.633 414.339 171.078C414.383 170.522 414.257 169.967 413.978 169.485C368.038 90.2656 269.619 58.1376 185.562 95.3728C146.97 112.461 115.43 142.694 97.152 180.723C67.9168 241.6 76.5952 313.92 119.309 366.144C182.131 442.944 295.462 454.054 372.16 391.526C390.464 376.602 405.137 358.827 416.179 338.202ZM422.656 277.389C437.811 260.454 433.869 235.046 415.859 222.451C407.113 216.341 396.736 214.515 384.73 216.973C378.637 218.227 374.31 221.798 368.333 225.6C348.723 238.067 327.654 239.987 308.109 225.92C302.946 222.199 298.918 218.889 296.026 215.987C291.307 211.26 287.842 208.252 285.632 206.963C268.966 197.248 249.6 196.224 232.499 204.39C218.816 210.944 207.834 223.616 203.93 237.952C189.594 290.483 251.443 328.96 292.71 292.992C293.342 292.446 297.152 288.909 304.141 282.381C310.182 276.74 317.303 272.849 325.504 270.707C338.829 267.238 351.59 271.398 363.366 277.594C369.306 280.717 375.296 285.427 381.53 287.706C396.019 292.966 412.083 289.19 422.656 277.389Z" fill="#FCCF00"/>
<path d="M416.179 338.202C405.137 358.827 390.464 376.602 372.16 391.526C295.463 454.054 182.131 442.944 119.309 366.144C76.5954 313.92 67.917 241.6 97.1522 180.723C115.431 142.694 146.97 112.461 185.562 95.3729C269.619 58.1377 368.039 90.2657 413.978 169.485C414.257 169.967 414.383 170.523 414.34 171.078C414.296 171.633 414.085 172.162 413.735 172.595C397.287 192.845 371.827 203.072 346.138 201.702C345.736 201.683 345.344 201.571 344.993 201.376C344.643 201.18 344.342 200.907 344.115 200.576C331.661 182.579 314.791 168.909 294.208 161.421C268.634 152.12 243.03 152.785 217.395 163.418C190.208 174.694 168.013 199.386 159.911 228.058C155.55 243.494 154.782 258.88 157.607 274.214C169.626 339.418 241.063 375.373 301.351 347.763C321.66 338.462 337.532 323.725 348.967 303.552C349.112 303.297 349.318 303.083 349.567 302.931C349.816 302.779 350.098 302.693 350.387 302.682C377.114 301.44 401.767 314.099 416.115 336.525C416.275 336.773 416.365 337.06 416.376 337.355C416.388 337.649 416.32 337.942 416.179 338.202Z" fill="black"/>
<path d="M422.657 277.389C412.084 289.191 396.02 292.967 381.53 287.706C375.297 285.428 369.306 280.717 363.367 277.594C351.591 271.399 338.83 267.239 325.505 270.708C317.304 272.849 310.183 276.741 304.142 282.381C297.153 288.909 293.343 292.446 292.711 292.992C251.444 328.96 189.594 290.484 203.93 237.952C207.834 223.616 218.817 210.944 232.5 204.391C249.601 196.224 268.967 197.248 285.633 206.964C287.843 208.252 291.307 211.26 296.026 215.988C298.919 218.889 302.947 222.2 308.11 225.92C327.655 239.988 348.724 238.068 368.334 225.6C374.311 221.799 378.638 218.228 384.73 216.973C396.737 214.516 407.113 216.342 415.86 222.452C433.87 235.047 437.812 260.455 422.657 277.389Z" fill="black"/>
</g>
<defs>
<clipPath id="clip0_7628_40804">
<rect width="512" height="512" fill="white"/>
</clipPath>
</defs>
</svg>
