<svg width="256" height="256" viewBox="0 0 256 256" fill="none" xmlns="http://www.w3.org/2000/svg">
  <mask id="mask0_15_2" style="mask-type:alpha" maskUnits="userSpaceOnUse" x="0" y="0" width="256" height="256">
    <path d="M128 256C198.692 256 256 198.692 256 128C256 57.3076 198.692 0 128 0C57.3076 0 0 57.3076 0 128C0 198.692 57.3076 256 128 256Z" fill="#162E2F" />
  </mask>
  <g mask="url(#mask0_15_2)">
    <path d="M128 256C198.692 256 256 198.692 256 128C256 57.3076 198.692 0 128 0C57.3076 0 0 57.3076 0 128C0 198.692 57.3076 256 128 256Z" fill="#162E2F" />
    <path d="M-48 40H150.4V79.68L170.24 104.48L150.4 129.28L185.12 151.6L150.4 173.92V218.56H-48V40Z" fill="url(#paint0_linear_15_2)" />
    <path d="M0 80H96V104H0V80Z" fill="url(#paint1_linear_15_2)" />
    <path d="M96 176H-5.36442e-07V152H96V176Z" fill="url(#paint2_linear_15_2)" />
    <path d="M190.168 94.8599C188.261 75.3701 171.438 68.864 150.207 67.0382L150.161 40L133.715 40.0302L133.761 66.3561C129.437 66.3634 125.019 66.4567 120.627 66.5518L120.586 40.0503L104.149 40.0777L104.189 67.1086C100.63 67.1881 97.1328 67.2613 93.7234 67.2686L93.7216 67.1835L71.0391 67.2137L71.0729 84.7918C71.0729 84.7918 83.2164 84.5403 83.0153 84.7634C89.6759 84.7543 91.851 88.6217 92.4891 91.9598C92.5312 116.667 92.5723 141.32 92.6107 166.032C92.3227 168.131 91.0967 171.48 86.442 171.494C86.6532 171.681 74.4878 171.512 74.4878 171.512L71.253 191.173L92.6546 191.137C96.6382 191.136 100.557 191.196 104.405 191.213L104.458 218.56L120.886 218.534L120.839 191.476C125.35 191.563 129.714 191.591 133.978 191.58L134.015 218.512L150.462 218.482L150.42 191.184C178.066 189.551 197.406 182.548 199.764 156.559C201.669 135.632 191.819 126.314 176.119 122.568C185.647 117.692 191.593 109.122 190.174 94.8608L190.169 94.8581L190.168 94.8599ZM167.258 153.372C167.301 173.808 132.332 171.544 121.186 171.573L121.13 135.34C132.278 135.324 167.223 132.057 167.258 153.372ZM159.523 102.265C159.549 120.858 130.385 118.737 121.102 118.754L121.048 85.8926C130.331 85.877 159.489 82.8736 159.524 102.265H159.523Z" fill="#C4FDF2" />
  </g>
  <defs>
    <linearGradient id="paint0_linear_15_2" x1="185.12" y1="129.28" x2="-48" y2="129.28" gradientUnits="userSpaceOnUse">
      <stop stop-color="#4E988D" />
      <stop offset="1" stop-color="#264C4A" />
    </linearGradient>
    <linearGradient id="paint1_linear_15_2" x1="48" y1="80" x2="48" y2="104" gradientUnits="userSpaceOnUse">
      <stop stop-opacity="0.1" />
      <stop offset="1" stop-opacity="0" />
    </linearGradient>
    <linearGradient id="paint2_linear_15_2" x1="48" y1="176" x2="48" y2="152" gradientUnits="userSpaceOnUse">
      <stop stop-opacity="0.1" />
      <stop offset="1" stop-opacity="0" />
    </linearGradient>
  </defs>
</svg>
