<?xml version="1.0" encoding="UTF-8" standalone="no"?>
<svg
   width="256"
   height="256"
   viewBox="0 0 256 256"
   fill="none"
   version="1.1"
   id="svg6"
   sodipodi:docname="erc20:0xFD44B35139Ae53FFF7d8F2A9869c503D987f00d1.svg"
   inkscape:version="1.4 (e7c3feb1, 2024-10-09)"
   xmlns:inkscape="http://www.inkscape.org/namespaces/inkscape"
   xmlns:sodipodi="http://sodipodi.sourceforge.net/DTD/sodipodi-0.dtd"
   xmlns="http://www.w3.org/2000/svg"
   xmlns:svg="http://www.w3.org/2000/svg">
  <defs
     id="defs6" />
  <sodipodi:namedview
     id="namedview6"
     pagecolor="#ffffff"
     bordercolor="#000000"
     borderopacity="0.25"
     inkscape:showpageshadow="2"
     inkscape:pageopacity="0.0"
     inkscape:pagecheckerboard="0"
     inkscape:deskcolor="#d1d1d1"
     inkscape:zoom="1.4056383"
     inkscape:cx="109.91448"
     inkscape:cy="214.4933"
     inkscape:window-width="1920"
     inkscape:window-height="1050"
     inkscape:window-x="0"
     inkscape:window-y="30"
     inkscape:window-maximized="0"
     inkscape:current-layer="g6" />
  <mask
     id="mask0_19_2"
     style="mask-type:luminance"
     maskUnits="userSpaceOnUse"
     x="0"
     y="0"
     width="256"
     height="256">
    <path
       d="M256 0H0V256H256V0Z"
       fill="white"
       id="path1" />
  </mask>
  <g
     mask="url(#mask0_19_2)"
     id="g6">
    <mask
       id="mask1_19_2"
       maskUnits="userSpaceOnUse"
       x="51"
       y="41"
       width="154"
       height="155"
       style="mask-type:luminance">
      <path
         d="M204.8 41.6H51.2V195.2H204.8V41.6Z"
         fill="white"
         id="path4" />
    </mask>
    <g
       id="g8"
       transform="matrix(0.84782497,0,0,0.84782497,19.465252,22.752828)">
      <path
         d="m 128,220.8 c 58.52,0 105.6,-47.08 105.6,-105.6 C 233.6,56.6797 186.52,9.59998 128,9.59998 69.4797,9.59998 22.4,56.6797 22.4,115.2 c 0,58.52 47.0797,105.6 105.6,105.6 z"
         fill="#23a061"
         id="path2" />
      <g
         id="g7">
        <path
           d="m 104.269,32 c 9.575,0 17.764,5.921 21.115,14.3002 0.643,0.182 1.103,0.5331 1.354,0.7747 0.609,0.5875 0.809,1.272 0.809,1.272 0.059,0.1741 0.09,0.3155 0.103,0.375 0.027,0.1303 0.04,0.2346 0.044,0.2688 0.006,0.0477 0.01,0.0883 0.012,0.1123 0.004,0.0477 0.008,0.0893 0.009,0.1127 0.004,0.0486 0.005,0.096 0.007,0.1344 0.003,0.0813 0.007,0.1821 0.009,0.2937 0.005,0.2173 0.009,0.5133 0.009,0.8749 0.003,0.08 0.007,0.1645 0.01,0.2531 0.136,-0.2112 0.383,-0.534 0.765,-0.8313 C 130.718,39.687 139.832,32.0003 150.744,32 h 92.084 c 8.28,0 13.389,9.0419 9.116,16.1344 L 142.381,229.963 c -6.202,10.291 -21.111,10.328 -27.365,0.068 L 4.10622,48.0845 C -0.190472,41.0355 4.88245,32.0003 13.1375,32 Z"
           fill="#ffffff"
           stroke="#23a061"
           stroke-width="2"
           id="path3" />
        <g
           mask="url(#mask1_19_2)"
           id="g5">
          <path
             d="m 179.2,142.019 c 0,-11.824 -3.176,-17.308 -8.393,-21.592 -2.496,-2.056 -5.671,-4.113 -12.023,-7.54 -7.032,-3.771 -14.064,-7.198 -21.324,-10.796 -9.754,-4.6276 -17.466,-8.226 -19.508,-11.4824 -0.681,-1.1993 -1.134,-3.0844 -1.134,-6.1689 0,-5.6557 -0.227,-11.9959 9.981,-11.9959 4.763,0 10.208,0.5136 11.342,4.7981 0.454,1.7139 0.454,2.2275 0.454,4.9696 v 8.9114 h 36.749 c 0.226,-9.2538 1.134,-22.4496 -7.033,-30.1613 -7.485,-7.369 -19.962,-8.2256 -31.077,-8.911 V 32 h -18.829 v 20.0502 c -11.115,0.6855 -23.1375,2.0567 -30.8504,9.0826 -7.7127,6.8547 -8.6199,16.1088 -8.6199,24.6771 0,12.3392 3.1757,17.6511 8.6199,22.1071 4.7638,3.941 12.4764,7.883 13.8374,8.568 6.579,3.428 13.157,7.027 19.963,10.454 9.527,4.97 15.879,7.883 17.92,11.825 1.135,2.227 1.135,5.655 1.135,6.169 0,4.284 0.68,10.625 -12.931,10.625 -7.939,0 -10.661,-2.742 -11.569,-5.484 -0.907,-2.228 -0.68,-4.798 -0.68,-5.484 v -8.569 H 76.8931 c -0.4537,17.48 0.4538,25.363 9.5277,32.046 8.6198,6.17 19.5082,7.198 23.3652,7.541 2.722,0.342 5.671,0.685 8.619,0.857 V 198.4 h 18.829 v -21.935 c 11.569,-1.029 22.004,-2.228 30.85,-8.397 9.982,-6.855 11.116,-16.452 11.116,-26.049 z"
             fill="#23a061"
             id="path5" />
        </g>
      </g>
    </g>
  </g>
</svg>
