<svg width="256" height="256" viewBox="0 0 256 256" fill="none" xmlns="http://www.w3.org/2000/svg">
  <path d="M252.157 158.966C235.061 227.538 165.609 269.27 97.0292 252.17C28.4772 235.074 -13.2548 165.618 3.84922 97.0504C20.9372 28.4704 90.3892 -13.2656 158.949 3.83038C227.525 20.9264 269.253 90.3904 252.157 158.966Z" fill="#00E676"/>
  <path d="M184.437 109.766C186.985 92.7344 174.017 83.5784 156.285 77.4704L162.037 54.3984L147.993 50.8984L142.393 73.3624C138.701 72.4424 134.909 71.5744 131.141 70.7144L136.781 48.1024L122.745 44.6024L116.989 67.6664C113.933 66.9704 110.933 66.2824 108.021 65.5584L108.037 65.4864L88.6692 60.6504L84.9332 75.6504C84.9332 75.6504 95.3532 78.0384 95.1332 78.1864C100.821 79.6064 101.849 83.3704 101.677 86.3544L95.1252 112.638C95.5172 112.738 96.0252 112.882 96.5852 113.106C96.1172 112.99 95.6172 112.862 95.1012 112.738L85.9172 149.558C85.2212 151.286 83.4572 153.878 79.4812 152.894C79.6212 153.098 69.2732 150.346 69.2732 150.346L62.3012 166.422L80.5772 170.978C83.9772 171.83 87.3092 172.722 90.5892 173.562L84.7772 196.898L98.8052 200.398L104.561 177.31C108.393 178.35 112.113 179.31 115.753 180.214L110.017 203.194L124.061 206.694L129.873 183.402C153.821 187.934 171.829 186.106 179.409 164.446C185.517 147.006 179.105 136.946 166.505 130.386C175.681 128.27 182.593 122.234 184.437 109.766ZM152.349 154.762C148.009 172.202 118.645 162.774 109.125 160.41L116.837 129.494C126.357 131.87 156.885 136.574 152.349 154.762ZM156.693 109.514C152.733 125.378 128.293 117.318 120.365 115.342L127.357 87.3024C135.285 89.2784 160.817 92.9664 156.693 109.514Z" fill="#121514"/>
</svg>
