<?xml version="1.0" encoding="UTF-8"?>
<svg id="Layer_2" data-name="Layer 2" xmlns="http://www.w3.org/2000/svg" viewBox="0 0 202.57 202.57">
  <defs>
    <style>
      .cls-1 {
        fill: #eb7b13;
      }

      .cls-1, .cls-2, .cls-3 {
        stroke-width: 0px;
      }

      .cls-2 {
        fill: #eb7c10;
      }

      .cls-3 {
        fill: #102231;
      }
    </style>
  </defs>
  <g id="Layer_1-2" data-name="Layer 1">
    <circle class="cls-1" cx="101.28" cy="101.28" r="101.28"/>
    <circle class="cls-3" cx="101.28" cy="101.28" r="93.79"/>
    <path class="cls-2" d="M101.2,38.86c3.46.05,6.61,1.27,9.66,2.75,6.09,2.95,11.51,6.9,16.73,11.15,4.56,3.71,8.89,7.69,12.98,11.91,6.86,7.09,13.25,14.56,18.27,23.1,2.16,3.68,4.04,7.49,4.7,11.78.51,3.34-.47,6.41-1.72,9.4-2.42,5.81-5.93,10.97-9.8,15.89-10.02,12.72-21.48,23.91-35.09,32.79-2.71,1.77-5.59,3.22-8.55,4.53-5.19,2.3-10.23,1.93-15.31-.39-5.66-2.58-10.78-5.99-15.64-9.8-10.64-8.33-20.07-17.85-28.22-28.63-2.93-3.87-5.46-7.98-7.74-12.28-3.56-6.7-3.38-13.2.16-19.85,3.33-6.26,7.4-11.99,11.93-17.41,7.52-8.99,15.88-17.11,25.24-24.18,5.11-3.86,10.42-7.4,16.5-9.6,1.9-.69,3.85-1.21,5.91-1.17ZM109.91,65.51c-2.62.09-4.66.7-6.66,1.41-8.23,2.94-15.85,7.12-23.2,11.8-4.37,2.78-8.6,5.76-12.27,9.46-2.1,2.12-2.9,4.47-2.08,7.4.51,1.8.99,3.61,1.69,5.35,3.97,9.98,9.25,19.23,15.58,27.89,1.95,2.67,4.04,5.23,6.72,7.24,1.06.8,2.25,1.23,3.6,1.09,2.16-.23,4.25-.79,6.28-1.55,9.44-3.52,18.15-8.43,26.45-14.1,3.28-2.24,6.43-4.64,9.11-7.6,1.33-1.48,2.19-3.11,1.86-5.19-.34-2.11-.91-4.15-1.65-6.15-2.77-7.42-6.51-14.36-10.69-21.07-2.99-4.8-6.14-9.51-10.23-13.47-1.37-1.33-2.81-2.64-4.49-2.51Z"/>
  </g>
</svg>