<?xml version="1.0" encoding="UTF-8" standalone="no"?>
<svg
   width="256"
   height="256"
   viewBox="0 0 256 256"
   fill="none"
   version="1.1"
   id="svg6"
   sodipodi:docname="erc20:0x00000000eFE302BEAA2b3e6e1b18d08D69a9012a.svg"
   inkscape:version="1.4 (e7c3feb1, 2024-10-09)"
   xmlns:inkscape="http://www.inkscape.org/namespaces/inkscape"
   xmlns:sodipodi="http://sodipodi.sourceforge.net/DTD/sodipodi-0.dtd"
   xmlns="http://www.w3.org/2000/svg"
   xmlns:svg="http://www.w3.org/2000/svg">
  <defs
     id="defs6" />
  <sodipodi:namedview
     id="namedview6"
     pagecolor="#ffffff"
     bordercolor="#000000"
     borderopacity="0.25"
     inkscape:showpageshadow="2"
     inkscape:pageopacity="0.0"
     inkscape:pagecheckerboard="0"
     inkscape:deskcolor="#d1d1d1"
     inkscape:zoom="1.5177396"
     inkscape:cx="50.403902"
     inkscape:cy="123.53898"
     inkscape:window-width="1920"
     inkscape:window-height="1050"
     inkscape:window-x="0"
     inkscape:window-y="30"
     inkscape:window-maximized="0"
     inkscape:current-layer="svg6" />
  <rect
     style="fill:#9a9350;fill-opacity:1;stroke-width:4.34946"
     id="rect6"
     width="256"
     height="256"
     x="0"
     y="0" />
  <path
     d="M124.22 38.98V101.232C124.22 103.847 121.111 105.119 119.274 103.281L89.9493 74.6638L102.244 42.725C103.092 40.4639 105.283 38.98 107.685 38.98H124.22Z"
     fill="white"
     id="path1" />
  <path
     d="M124.22 123.773V158.75C124.22 161.082 121.464 162.213 119.768 160.658L74.3333 117.838L87.6882 83.2137L120.828 115.647C123.019 117.767 124.22 120.664 124.22 123.773Z"
     fill="white"
     id="path2" />
  <path
     d="M124.22 180.161V195.847H53.7709C49.7432 195.847 46.9168 191.749 48.4007 188.004L72.0014 126.529L120.969 172.741C123.089 174.649 124.22 177.334 124.22 180.161Z"
     fill="white"
     id="path3" />
  <path
     d="M131.781 38.98V101.232C131.781 103.847 134.89 105.119 136.727 103.281L165.98 74.6638L153.756 42.725C152.838 40.4639 150.718 38.98 148.315 38.98H131.781Z"
     fill="white"
     id="path4" />
  <path
     d="M131.781 123.773V158.75C131.781 161.082 134.536 162.213 136.232 160.658L181.667 117.838L168.312 83.2137L135.172 115.647C132.982 117.767 131.71 120.664 131.71 123.773H131.781Z"
     fill="white"
     id="path5" />
  <path
     d="M131.781 180.161V195.847H202.159C206.257 195.847 209.084 191.749 207.6 188.004L183.928 126.529L134.96 172.741C132.911 174.649 131.781 177.334 131.781 180.161Z"
     fill="white"
     id="path6" />
</svg>
