<svg width="256" height="256" viewBox="0 0 256 256" fill="none" xmlns="http://www.w3.org/2000/svg">
  <g clip-path="url(#clip0_19_25)">
    <mask id="mask0_19_25" style="mask-type:luminance" maskUnits="userSpaceOnUse" x="0" y="0" width="256" height="256">
      <path d="M256 0H0V256H256V0Z" fill="white" />
    </mask>
    <g mask="url(#mask0_19_25)">
      <path d="M128 256C198.693 256 256 198.693 256 128C256 57.3075 198.693 0 128 0C57.3075 0 0 57.3075 0 128C0 198.693 57.3075 256 128 256Z" fill="#001C5C" />
      <path d="M128 4C196.483 4 252 59.5167 252 128C252 196.483 196.483 252 128 252C59.5167 252 4 196.483 4 128C4 59.5167 59.5167 4 128 4Z" stroke="white" stroke-opacity="0.25" />
      <path d="M150.695 193.873H175.035L197.41 138.412L149.369 121.385L126.27 112.464H126.291C111.447 106.025 92.3903 96.2512 90.8935 87.804C87.7935 59.8687 140.282 50.2656 140.282 50.2656C140.282 50.2656 64.5232 53.1526 71.0262 94.9464C73.4867 110.541 97.1407 120.847 121.933 130.366C148.478 140.548 173.778 149.593 173.778 149.593L162.827 179.195L107.11 178.982C107.11 178.982 69.9132 177.336 70.5145 144.416C52.5066 180.006 81.5079 193.89 107.579 193.89L150.695 193.873Z" fill="white" />
      <path d="M166.872 95.5832C151.214 108.866 135.218 108.18 135.218 108.18C161.636 134.832 202.295 93.208 163.815 77.1875C168.586 79.9038 175.729 88.7608 166.872 95.5832Z" fill="white" />
    </g>
  </g>
  <defs>
    <clipPath id="clip0_19_25">
      <rect width="256" height="256" fill="white" />
    </clipPath>
  </defs>
</svg>
