<svg width="256" height="256" viewBox="0 0 256 256" fill="none" xmlns="http://www.w3.org/2000/svg">
  <rect width="256" height="256" fill="black"/>
  <path d="M191.971 71H64V185.745H191.971V71Z" fill="black"/>
  <path d="M191.312 161.468L170.187 184.182C169.728 184.676 169.172 185.069 168.555 185.338C167.937 185.607 167.271 185.745 166.598 185.745H66.4525C65.9747 185.745 65.5072 185.605 65.1076 185.342C64.7081 185.08 64.3937 184.706 64.2033 184.266C64.0128 183.827 63.9545 183.342 64.0355 182.869C64.1166 182.397 64.3334 181.959 64.6594 181.609L85.8009 158.895C86.2589 158.402 86.8127 158.01 87.4282 157.741C88.0437 157.472 88.7076 157.333 89.379 157.332H189.519C189.997 157.332 190.464 157.472 190.864 157.735C191.263 157.997 191.578 158.371 191.768 158.811C191.959 159.25 192.017 159.736 191.936 160.208C191.855 160.68 191.638 161.118 191.312 161.468ZM170.187 115.729C169.728 115.235 169.172 114.842 168.555 114.573C167.937 114.304 167.271 114.166 166.598 114.166H66.4525C65.9747 114.166 65.5072 114.306 65.1076 114.569C64.7081 114.831 64.3937 115.205 64.2033 115.645C64.0128 116.084 63.9545 116.569 64.0355 117.042C64.1166 117.514 64.3334 117.952 64.6594 118.302L85.8009 141.016C86.2589 141.509 86.8127 141.901 87.4282 142.17C88.0437 142.439 88.7076 142.578 89.379 142.579H189.519C189.997 142.579 190.464 142.439 190.864 142.176C191.263 141.914 191.578 141.54 191.768 141.1C191.959 140.661 192.017 140.175 191.936 139.703C191.855 139.231 191.638 138.793 191.312 138.443L170.187 115.729ZM66.4525 99.4131H166.598C167.271 99.4134 167.937 99.2749 168.555 99.006C169.172 98.7371 169.728 98.3438 170.187 97.8503L191.312 75.1363C191.638 74.786 191.855 74.3479 191.936 73.8758C192.017 73.4037 191.959 72.9181 191.768 72.4788C191.578 72.0394 191.263 71.6654 190.864 71.4027C190.464 71.14 189.997 71 189.519 71H89.379C88.7076 71.0011 88.0437 71.1404 87.4282 71.4092C86.8127 71.678 86.2589 72.0706 85.8009 72.5627L64.6648 95.2767C64.3392 95.6267 64.1224 96.0643 64.0412 96.5359C63.96 97.0075 64.0178 97.4926 64.2076 97.9318C64.3974 98.3709 64.7109 98.745 65.1097 99.0081C65.5084 99.2713 65.9751 99.412 66.4525 99.4131Z" fill="url(#a)"/>
  <defs>
    <linearGradient id="a" x1="74.8023" y1="188.48" x2="180.12" y2="70.0571" gradientUnits="userSpaceOnUse">
      <stop offset="0.08" stop-color="#9945FF"/>
      <stop offset="0.3" stop-color="#8752F3"/>
      <stop offset="0.5" stop-color="#5497D5"/>
      <stop offset="0.6" stop-color="#43B4CA"/>
      <stop offset="0.72" stop-color="#28E0B9"/>
      <stop offset="0.97" stop-color="#19FB9B"/>
    </linearGradient>
  </defs>
</svg>
