<?xml version="1.0" encoding="utf-8"?>
<!-- Generator: Adobe Illustrator 28.2.0, SVG Export Plug-In . SVG Version: 6.00 Build 0)  -->
<svg version="1.1" id="Layer_1" xmlns="http://www.w3.org/2000/svg" xmlns:xlink="http://www.w3.org/1999/xlink" x="0px" y="0px"
	 viewBox="0 0 283.46 283.46" style="enable-background:new 0 0 283.46 283.46;" xml:space="preserve">
<style type="text/css">
	.st0{fill:#FFFFFF;}
	.st1{fill:#555555;}
</style>
<g>
	<g>
		<path class="st0" d="M141.73,283.46c-19.13,0-37.69-3.75-55.17-11.14c-16.88-7.14-32.03-17.36-45.05-30.37
			c-13.01-13.01-23.23-28.17-30.37-45.05C3.75,179.42,0,160.86,0,141.73s3.75-37.69,11.14-55.17c7.14-16.88,17.36-32.03,30.37-45.05
			C54.53,28.5,69.68,18.28,86.56,11.14C104.04,3.75,122.6,0,141.73,0s37.69,3.75,55.17,11.14c16.88,7.14,32.03,17.36,45.05,30.37
			c13.01,13.01,23.23,28.17,30.37,45.05c7.39,17.48,11.14,36.04,11.14,55.17s-3.75,37.69-11.14,55.17
			c-7.14,16.88-17.36,32.03-30.37,45.05c-13.01,13.01-28.17,23.23-45.05,30.37C179.42,279.72,160.86,283.46,141.73,283.46z"/>
	</g>
	<g>
		<circle class="st1" cx="141.73" cy="141.73" r="134.22"/>
	</g>
	<g>
		<g>
			<g>
				<path class="st0" d="M35.77,102.72h16.72v45.25c0,12.37,4.57,19.06,15.27,19.06c10.81,0,15.38-6.69,15.38-19.06v-45.25h16.72
					v44.35c0,22.18-11.03,34.32-32.1,34.32c-20.95,0-31.98-12.15-31.98-34.32V102.72z"/>
			</g>
			<g>
				<path class="st0" d="M184.22,180.73v-78.01h28.42c24.29,0,40.45,15.94,40.45,38.89c0,22.85-16.16,39.12-40.45,39.12H184.22z
					 M200.93,166.8h11.7c14.93,0,23.29-10.36,23.29-25.19c0-14.93-8.36-24.96-23.29-24.96h-11.7V166.8z"/>
			</g>
			<path class="st0" d="M173.05,156.78c0.11-15.71-11.7-19.73-25.07-22.18c-12.93-2.45-19.06-3.79-19.06-10.14
				c0-6.02,5.13-9.03,12.26-9.03c8.14,0,13.15,4.57,13.93,11.14h16.38c-0.19-12.61-8.56-21.41-22.24-23.84V92.49h-15.03v10.13
				c-13.61,2.25-22.13,11.17-22.13,23.07c0,15.82,11.59,20.06,24.74,22.51c13.04,2.56,19.39,3.9,19.39,10.48
				c0,6.13-5.68,9.47-13.37,9.47c-9.58,0-15.6-5.24-16.16-12.82l-16.38-0.22c0.09,13.45,9.05,23.03,23.91,25.6v10.26h15.03v-10.04
				C163.75,178.79,172.95,169.53,173.05,156.78z"/>
		</g>
		<path class="st0" d="M141.73,201.5c-17.79,0-32.21,14.42-32.21,32.21c0,17.79,14.42,32.21,32.21,32.21
			c17.79,0,32.21-14.42,32.21-32.21C173.94,215.93,159.52,201.5,141.73,201.5z M154.52,250.13H134.5v-33.52h6.44v27.08h13.57V250.13
			z"/>
	</g>
</g>
</svg>
