<svg xmlns="http://www.w3.org/2000/svg" width="40" height="40" viewBox="0 0 40 40"><circle cx="20" cy="20" r="20" fill="#d9ebf6"/><rect x="6" y="6" width="28" height="28" rx="7.9799999999999995" ry="7.9799999999999995" fill="#007cc6"/><g transform="translate(11.32, 14.602160737812913)"><svg width="17.36" height="10.795678524374177" viewBox="0 0 1518 944" xmlns="http://www.w3.org/2000/svg"><clipPath xmlns="http://www.w3.org/2000/svg" id="a"><path d="M-3434.78-483.93h8391.56v10860.09h-8391.56z"/></clipPath><g xmlns="http://www.w3.org/2000/svg" fill="#ffffff" fill-rule="evenodd" clip-path="url(#a)"><path d="M0 633.6h146.7l17.8-150.8h94l17.8 150.8H423L328.4 6.3H94.6zm246.1-257.8h-69.2l33.6-282.5h2zm234.5 131c0 81.6 38.4 134.4 144.7 134.4h54.1c121.4 0 163.9-34.3 163.9-145.4v-92.6H704.1V502c0 19.2-13 26.7-37 26.7-24.7 0-37-7.5-37-26.7V139.3c0-19.2 12.3-26.8 37.7-26.8 23.3 0 36.3 7.6 36.3 26.8v82.3h139.2V107.1c0-72.7-38.4-107-163.9-107h-54.1C519 .1 480.6 51.5 480.6 152.3zm652 127.5h164.5l92.6-528.6h2.1l-5.5 528.6h130.9V7H1291l-70 494.3h-2L1149.1 7H922.8v627.3H1051V103.7h2.1zM6.9 694.6h1511v248.9H6.9zm134.3 131c6.2 0 13.1-.7 18.5.7 8.3 2 7.6 9.6 8.3 15.7 0 6.2-.7 17.2 2 23.3h24.7v-2c-5.5-2.8-4.8-25.4-4.8-28.8 0-8.9-4.1-15.8-17.1-17.2 15.1-2 18.5-12.3 18.5-22.6 0-17.1-15.1-21.9-34.3-21.9h-42.5v92.5h22.6v-39.7zm-4.1-39.1h16.5c8.2 0 13.7 1.4 13.7 11.6 0 9.6-5.5 13.1-13.1 13.8h-17.1zm222.8 78.8v-13.7h-40.4v-28.8h37.7v-13.7h-37.7v-23.3h40.4v-13.1h-63.1v92.6zm170.8-64.4c-.7-9.6.6-30.9-35-30.9-24 0-35.7 8.9-35.7 24.7 0 4.8 2.1 10.3 6.2 14.4 8.9 8.9 23.3 14.4 35 21.2 6.1 2.8 8.9 6.9 8.9 12.4 0 6.8-4.1 10.3-13.7 10.3-11 0-14.4-6.2-14.4-15.1v-5.5h-22v6.8c0 16.5 9.6 28.2 36.4 28.2 21.9 0 37-9.6 37-26.8 0-8.2-2.1-13.7-10.3-19.2-6.2-4.8-19.9-11.6-26.7-15.1-7.6-4.1-13-6.1-13-13.7 0-6.1 4.7-8.2 12.3-8.2 12.3 0 13 8.2 13 16.5zm168.7 64.4v-13.7h-40.5v-28.8h37v-13.7h-37v-23.3h40.5v-13.1h-63.1v92.6zm117.2 0 6.2-24h26.1l6.1 24h24l-27.4-92.6h-30.2l-28.8 92.6zm16.5-63.8c.7-4.1 1.4-8.2 2-13q0-2.7.7-6.2h.7q0 3.5.7 6.2c.7 4.8.7 8.9 2.1 13l6.1 26.8h-19.2zm169.4 24c6.1 0 13 0 19.2 1.3 7.5 1.4 7.5 9.6 7.5 15.1 0 6.2-.7 17.9 2.1 23.3h24.7v-1.3c-5.5-2.8-4.8-25.4-4.8-29.5 0-8.9-4.2-15.1-17.2-16.5v-.7c15.1-1.3 18.5-12.3 18.5-21.9 0-17.1-15.1-22.6-34.3-22.6h-42.5v92.5h22.7v-39.7zm-4.2-39.1h16.5c8.2 0 14.4 2.1 14.4 12.3 0 8.9-6.2 13.1-13.7 13.1h-17.2zm209.2 45.9c-.7 6.2 1.3 21.3-11 21.3-15.8 0-16.5-12.4-16.5-19.9v-26.1c0-6.8-1.3-23.3 16.5-23.3 11 0 9.6 11 11 17.1h21.9c0-2.7 0-4.8-.7-6.8-1.4-15.8-12.3-24-32.2-24-36.4 0-38.4 17.1-39.8 41.1v13.1c0 24.6 2.8 42.5 39.8 42.5 24.7 0 32.2-13.1 32.9-29.5q.7-2.8.7-5.5zm148.1 32.9v-42.5h31.5v42.5h22.6v-92.6h-22.6V809h-31.5v-36.4h-22.7v92.6z"/></g></svg></g></svg>