<svg width="24" height="24" viewBox="0 0 24 24" fill="none" xmlns="http://www.w3.org/2000/svg">
<g clip-path="url(#clip0_19871_22438)">
<g clip-path="url(#clip1_19871_22438)">
<circle cx="12.0004" cy="12.0048" r="11.6" fill="#FBF9F2"/>
<path d="M11.9998 0.00488281C5.38316 0.00488281 0 5.38804 0 12.0051C0 18.6217 5.38316 24.0049 11.9998 24.0049C18.6164 24.0049 23.9996 18.6217 23.9996 12.0051C23.9996 5.38804 18.6164 0.00488281 11.9998 0.00488281ZM11.9998 23.2051C5.82381 23.2051 0.799822 18.1811 0.799822 12.0051C0.799822 5.82951 5.82381 0.805116 11.9998 0.805116C18.1758 0.805116 23.1998 5.82951 23.1998 12.0051C23.1998 18.1811 18.1758 23.2051 11.9998 23.2051Z" fill="#89775C"/>
<path d="M10.8914 15.5061C10.7898 15.4793 10.6989 15.4553 10.6214 15.436L11.3827 12.3843C11.4772 12.4079 11.5927 12.4338 11.7235 12.4632C12.8935 12.7257 15.2907 13.2637 14.888 14.8785C14.495 16.4579 12.0225 15.8049 10.8914 15.5061Z" fill="#89775C"/>
<path d="M11.9582 11.0468C11.8726 11.024 11.7961 11.0035 11.731 10.9873L12.4211 8.21957C12.5003 8.2393 12.5972 8.26075 12.707 8.28507C13.6834 8.50125 15.6826 8.94388 15.3168 10.412C14.9585 11.8475 12.9013 11.2985 11.9582 11.0468Z" fill="#89775C"/>
<path fill-rule="evenodd" clip-rule="evenodd" d="M1.46582 12.0051C1.46582 6.18742 6.18246 1.47119 11.9997 1.47119C17.8169 1.47119 22.5336 6.18742 22.5336 12.0051C22.5336 17.8223 17.8169 22.5389 11.9997 22.5389C6.18246 22.5389 1.46582 17.8223 1.46582 12.0051ZM15.2766 7.24916C17.0269 7.85203 18.3069 8.75575 18.0554 10.437L18.0559 10.4372C17.874 11.6679 17.1917 12.2636 16.2859 12.4725C17.5295 13.1201 18.1624 14.113 17.5596 15.8345C16.8114 17.9727 15.0339 18.1531 12.6699 17.7057L12.0963 20.0048L10.71 19.6594L11.2762 17.3911C10.9168 17.3018 10.5497 17.2071 10.1714 17.1044L9.60327 19.3834L8.21857 19.038L8.79224 16.7345C8.65901 16.7004 8.52494 16.6655 8.38989 16.6303C8.19665 16.5799 8.00142 16.529 7.80385 16.4795L5.9998 16.0298L6.68808 14.4429C6.68808 14.4429 7.70956 14.7145 7.69567 14.6943C8.08815 14.7915 8.26229 14.5356 8.3309 14.365L9.23746 10.7305L9.23987 10.7205L9.88665 8.12608C9.90351 7.83153 9.80199 7.45991 9.24061 7.3198C9.26228 7.30529 8.23376 7.06953 8.23376 7.06953L8.60254 5.58887L10.5143 6.06626L10.5127 6.07342C10.8001 6.14493 11.0963 6.2128 11.3979 6.28146L11.966 4.00483L13.3514 4.35027L12.7947 6.58231C13.1667 6.66722 13.5409 6.75287 13.9054 6.84376L14.4581 4.62636L15.8444 4.97179L15.2766 7.24916Z" fill="#89775C"/>
</g>
</g>
<defs>
<clipPath id="clip0_19871_22438">
<rect width="24" height="24" rx="12" fill="white"/>
</clipPath>
<clipPath id="clip1_19871_22438">
<rect width="23.9996" height="24" fill="white" transform="translate(0 0.00488281)"/>
</clipPath>
</defs>
</svg>
