<svg width="480" height="480" viewBox="0 0 480 480" fill="none" xmlns="http://www.w3.org/2000/svg">
<g clip-path="url(#clip0_14830_1678)">
<path d="M239.999 480C372.547 480 479.999 372.548 479.999 240C479.999 107.452 372.547 0 239.999 0C107.451 0 0 107.452 0 240C0 372.548 107.451 480 239.999 480Z" fill="#49C4C9"/>
<path d="M368.093 94.3134C372.952 89.4535 380.83 89.4535 385.69 94.3134C390.55 99.1733 390.55 107.051 385.69 111.911L111.909 385.688C107.049 390.548 99.1712 390.548 94.3113 385.688C89.4513 380.828 89.4513 372.951 94.3113 368.091L217.853 244.551C223.184 239.22 225.849 236.555 226.03 234.266C226.186 232.281 225.382 230.34 223.867 229.047C222.122 227.556 218.352 227.556 210.813 227.556H110.576C103.607 227.556 100.122 227.556 97.4597 226.199C95.1181 225.006 93.2143 223.103 92.0212 220.761C90.6648 218.099 90.6648 214.614 90.6648 207.645V110.578C90.6648 103.609 90.6648 100.124 92.0212 97.4618C93.2143 95.1202 95.1181 93.2164 97.4597 92.0234C100.122 90.667 103.607 90.667 110.576 90.667H207.644C214.614 90.667 218.099 90.667 220.761 92.0234C223.102 93.2164 225.006 95.1202 226.199 97.4618C227.555 100.124 227.555 103.609 227.555 110.578V159.111C227.555 187.06 261.347 201.057 281.11 181.294L368.093 94.3134Z" fill="#061314"/>
<path d="M115.554 376.889C115.554 383.762 109.982 389.334 103.109 389.334C96.2364 389.334 90.6648 383.762 90.6648 376.889C90.6648 370.016 96.2364 364.445 103.109 364.445C109.982 364.445 115.554 370.016 115.554 376.889Z" fill="#061314"/>
<path d="M389.335 103.111C389.335 109.984 383.764 115.556 376.891 115.556C370.018 115.556 364.446 109.984 364.446 103.111C364.446 96.2386 370.018 90.667 376.891 90.667C383.764 90.667 389.335 96.2386 389.335 103.111Z" fill="#061314"/>
<path d="M111.909 385.688C107.049 390.548 99.1712 390.548 94.3113 385.688C89.4513 380.828 89.4513 372.951 94.3113 368.091L368.093 94.3134C372.952 89.4535 380.83 89.4535 385.69 94.3134C390.55 99.1733 390.55 107.051 385.69 111.911L262.142 235.448C256.811 240.779 254.146 243.445 253.966 245.733C253.81 247.719 254.613 249.659 256.128 250.953C257.873 252.444 261.643 252.444 269.182 252.444L369.419 252.444C376.389 252.444 379.874 252.444 382.536 253.8C384.877 254.993 386.781 256.897 387.974 259.238C389.331 261.9 389.331 265.385 389.331 272.355V369.421C389.331 376.391 389.331 379.876 387.974 382.538C386.781 384.879 384.877 386.783 382.536 387.976C379.874 389.332 376.389 389.332 369.419 389.332H272.351C265.382 389.332 261.897 389.332 259.235 387.976C256.893 386.783 254.989 384.879 253.796 382.538C252.44 379.876 252.44 376.391 252.44 369.421V320.888C252.44 292.939 218.648 278.942 198.885 298.705L111.909 385.688Z" fill="#061314"/>
<path d="M364.446 103.111C364.446 96.2386 370.018 90.667 376.891 90.667C383.764 90.667 389.335 96.2386 389.335 103.111C389.335 109.984 383.764 115.556 376.891 115.556C370.018 115.556 364.446 109.984 364.446 103.111Z" fill="#061314"/>
<path d="M90.6648 376.889C90.6648 370.016 96.2364 364.445 103.109 364.445C109.982 364.445 115.554 370.016 115.554 376.889C115.554 383.762 109.982 389.334 103.109 389.334C96.2364 389.334 90.6648 383.762 90.6648 376.889Z" fill="#061314"/>
</g>
<defs>
<clipPath id="clip0_14830_1678">
<path d="M0 240C0 107.452 107.452 0 240 0C372.548 0 480 107.452 480 240C480 372.548 372.548 480 240 480C107.452 480 0 372.548 0 240Z" fill="white"/>
</clipPath>
</defs>
</svg>
