<?xml version="1.0" encoding="UTF-8"?>
<!DOCTYPE svg PUBLIC "-//W3C//DTD SVG 1.1//EN" "http://www.w3.org/Graphics/SVG/1.1/DTD/svg11.dtd">
<svg xmlns="http://www.w3.org/2000/svg" version="1.1" width="256px" height="256px" style="shape-rendering:geometricPrecision; text-rendering:geometricPrecision; image-rendering:optimizeQuality; fill-rule:evenodd; clip-rule:evenodd" xmlns:xlink="http://www.w3.org/1999/xlink">
<g><path style="opacity:0.947" fill="#00c1de" d="M 163.5,30.5 C 185.167,30.5 206.833,30.5 228.5,30.5C 228.5,75.8333 228.5,121.167 228.5,166.5C 208.497,166.667 188.497,166.5 168.5,166C 158.884,164.524 150.217,160.857 142.5,155C 128.289,140.288 113.622,126.121 98.5,112.5C 93.6073,109.369 88.274,107.536 82.5,107C 69.8377,106.5 57.1711,106.333 44.5,106.5C 44.5,140.167 44.5,173.833 44.5,207.5C 58.1707,207.667 71.8374,207.5 85.5,207C 91.822,205.672 97.4887,203.005 102.5,199C 112.708,188.457 123.208,178.291 134,168.5C 137.954,171.451 141.621,174.784 145,178.5C 145.667,179.5 145.667,180.5 145,181.5C 135.167,191.333 125.333,201.167 115.5,211C 108.055,217.057 99.7219,221.557 90.5,224.5C 69.1771,225.5 47.8437,225.833 26.5,225.5C 26.5,180.167 26.5,134.833 26.5,89.5C 48.5449,89.0552 70.5449,89.5552 92.5,91C 99.7245,93.2789 106.391,96.6122 112.5,101C 125.167,113.667 137.833,126.333 150.5,139C 154.331,142.419 158.665,145.086 163.5,147C 179.109,148.437 194.776,148.937 210.5,148.5C 210.5,115.167 210.5,81.8333 210.5,48.5C 196.496,48.3334 182.496,48.5001 168.5,49C 163.349,49.91 158.682,51.91 154.5,55C 143.899,66.623 132.565,76.9564 120.5,86C 116.651,82.3182 112.984,78.4849 109.5,74.5C 120.653,63.8476 131.653,53.0143 142.5,42C 149.372,37.571 156.372,33.7377 163.5,30.5 Z"/></g>
</svg>
