<?xml version="1.0" encoding="utf-8"?>
<!-- Generator: Adobe Illustrator 27.8.1, SVG Export Plug-In . SVG Version: 6.00 Build 0)  -->
<svg version="1.1" id="Layer_1" xmlns="http://www.w3.org/2000/svg" xmlns:xlink="http://www.w3.org/1999/xlink" x="0px" y="0px"
	 viewBox="0 0 300 300" style="enable-background:new 0 0 300 300;" xml:space="preserve">
<style type="text/css">
	.st0{fill:#FFFFFF;}
	.st1{fill:#2A72E5;}
</style>
<circle class="st0" cx="150" cy="150" r="150"/>
<g>
	<g>
		<path class="st1" d="M43.39,129.12c-0.68,2.16-1.52,5.07-2.06,7.28c0.55-1.89,1.3-4.47,5.64-7.14
			c5.56-6.99,13.93-11.4,23.22-11.31c0-0.03,0-0.06,0-0.08c-16.68-4.79-21.85,0.69-23.31,3.27
			C44.62,125.84,44.21,126.69,43.39,129.12"/>
		<path class="st1" d="M60.67,103.5l-2.45,2.35c2.82-2.31,7.48-1.77,14.64,1.7c1.42-2.62,3.39-5.13,5.84-7.49
			c-3.4-2.48-6.84-4.64-9.02-3.62C64.72,100.02,63.38,100.98,60.67,103.5"/>
		<path class="st1" d="M94.96,84.19c-2.55,0.93-5.94,2.18-8.46,3.21c0.48,0.27,2.2,2.62,3.54,4.54c3.56-1.95,7.52-3.71,11.83-5.27
			c-0.68-2.85-0.85-4.27,0.02-4.63C99.81,82.69,97.02,83.47,94.96,84.19"/>
		<path class="st1" d="M136.31,76.41c-3.87,0.31-9.04,0.8-12.9,1.25c-2.02,0.5-2.91,1.22-3.91,4.26c5.07-0.97,10.4-1.69,15.93-2.13
			c1.5-1.73,2.93-3.36,6.92-3.66L136.31,76.41"/>
		<path class="st1" d="M179.35,78.73c-3.62-0.55-8.46-1.24-12.1-1.67c-3.52-0.17-6.14-0.1-10.37,2.46
			c5.71,0.3,11.26,0.89,16.58,1.74c2.67-1.01,6.69-2.52,13.01-1.14C184.34,79.71,181.5,79.09,179.35,78.73"/>
		<path class="st1" d="M218.19,91.02c-2.69-1.25-6.28-2.88-9-4.02c-6.54-2.32-10.82-2.67-16.96-1.38c4.65,1.45,8.99,3.12,12.96,4.99
			c3.97-0.36,11.37-1.03,21.19,4.95C223.94,94.15,220.69,92.25,218.19,91.02"/>
		<path class="st1" d="M256.73,131.38c-2.52-6.49-3.44-8.46-7.44-14.64l-1.92-2.64c-8.64-10.59-17.36-15.28-29.15-15.69
			c2.95,2.29,5.44,4.72,7.43,7.27c19.59,2.77,33.08,20,34.36,43.88C259.74,145,259.37,138.76,256.73,131.38"/>
		<path class="st1" d="M228.72,204.56c5.19-3.57,6.27-4.31,10.62-8.13c1.25-1.22,2.93-2.82,4.13-4.1
			c24.44-28.32,13.33-69.18-12.91-76.59c0.28,1.29,0.43,2.6,0.45,3.92c0,0.23,0,0.47,0,0.7c-0.03,1.3-0.18,2.59-0.46,3.86
			c28.07,12.67,25.31,63.23-4.47,81.96L228.72,204.56"/>
		<path class="st1" d="M192.02,219.46c3.65-0.94,8.51-2.3,12.13-3.41c35.93-13.5,41.67-68.65,21.49-81.91
			c-1.98,2.49-4.48,4.85-7.42,7.05c17.06,18.82-0.42,71.97-32.45,79.6L192.02,219.46"/>
		<path class="st1" d="M150.21,223.86c3.39-0.03,7.91-0.08,11.29-0.21c29.85-3.09,51.09-57.89,43.7-75.04
			c-3.97,1.75-8.31,3.29-12.97,4.61c-0.07,21.92-29.58,70.92-50.74,70.35C144.1,223.66,147.59,223.85,150.21,223.86"/>
		<path class="st1" d="M106.92,218.21c3.33,0.8,7.79,1.84,11.14,2.52c12.45,0.91,43.81-41.36,55.39-63.71
			c-5.33,0.7-10.89,1.13-16.63,1.26c-9.04,8.77-32.89,36.37-37.58,41.82c-12.07,14.02-16.56,16.68-18.19,16.44L106.92,218.21"/>
		<path class="st1" d="M70.54,202.38c6.16,3.88,6.66,4.19,11.29,6.54l0.32,0.16c0.67-3.57,30.35-39.02,53.26-51.7
			c-5.52-0.6-10.84-1.47-15.9-2.59c-27.37,10.5-55.31,42.59-50.5,46.53L70.54,202.38"/>
		<path class="st1" d="M50.73,183.2c1.3,1.74,3.04,4.06,4.42,5.71c-6.17-9.4,19.83-33.72,46.73-39.4
			c-4.31-1.68-8.27-3.56-11.83-5.61c-24.75,2.69-48.31,20.23-43.46,32.36C47.77,178.39,49.36,181.23,50.73,183.2"/>
		<path class="st1" d="M40.01,148.79c-0.01,0.4-0.01,0.79,0,1.19c0.11,2.06,0.28,4.8,0.5,6.84c-0.67-13.34,19.6-21.96,38.2-21.36
			c-2.45-2.44-4.42-5-5.85-7.67c-15.73-2.02-24.33,2.04-28.77,5.79C41.59,138.06,40.11,143.25,40.01,148.79"/>
	</g>
</g>
</svg>
