<svg xmlns="http://www.w3.org/2000/svg" width="40" height="40" viewBox="0 0 40 40"><circle cx="20" cy="20" r="20" fill="#dbe9fe"/><rect x="6" y="6" width="28" height="28" rx="7.9799999999999995" ry="7.9799999999999995" fill="#116cf8"/><g transform="translate(11.32, 15.925945241199479)"><svg width="17.36" height="8.148109517601043" viewBox="0 0 1534 720" xmlns="http://www.w3.org/2000/svg"><path xmlns="http://www.w3.org/2000/svg" fill="#ffffff" d="M0 573.8C0 671.3 76.7 720 153.4 720s153.4-48.7 153.4-146.2V.1H0zm407.2 0c0 97.4 76.7 146.1 153.4 146.1S714 671.2 714 573.8V0H407.2zM954.9 307h573.5V0H954.9c-97.4 0-146.1 76.7-146.1 153.5 0 76.7 48.7 153.5 146.1 153.5m433 100.4H814.4v307h573.5c97.3 0 146-76.8 146-153.5s-48.7-153.5-146-153.5"/></svg></g></svg>