<?xml version="1.0" encoding="UTF-8" standalone="no"?>
<!DOCTYPE svg PUBLIC "-//W3C//DTD SVG 1.1//EN" "http://www.w3.org/Graphics/SVG/1.1/DTD/svg11.dtd">
<svg width="100%" height="100%" viewBox="0 0 64 64" version="1.1" xmlns="http://www.w3.org/2000/svg" xmlns:xlink="http://www.w3.org/1999/xlink" xml:space="preserve" xmlns:serif="http://www.serif.com/" style="fill-rule:evenodd;clip-rule:evenodd;stroke-linejoin:round;stroke-miterlimit:2;">
    <rect id="bMSTR" x="0" y="0" width="64" height="64" style="fill:none;"/>
    <circle cx="32" cy="32" r="32" style="fill:rgb(255,109,56);"/>
    <g>
        <clipPath id="_clip1">
            <path d="M32,4C47.454,4 60,16.546 60,32C60,47.454 47.454,60 32,60C16.546,60 4,47.454 4,32C4,16.546 16.546,4 32,4ZM32,8C18.754,8 8,18.754 8,32C8,45.246 18.754,56 32,56C45.246,56 56,45.246 56,32C56,18.754 45.246,8 32,8Z"/>
        </clipPath>
        <g clip-path="url(#_clip1)">
            <path d="M0.049,30.18C0.317,25.385 1.671,20.58 4.211,16.133C4.236,16.089 4.261,16.045 4.287,16C4.313,15.956 4.338,15.912 4.364,15.868C7.698,10.156 12.537,5.857 18.089,3.185C24.064,0.309 30.864,-0.684 37.502,0.471C41.102,1.098 44.653,2.356 48,4.288C48.525,4.591 49.039,4.907 49.541,5.236C43.029,2.175 35.136,4.568 31.474,10.912L12.969,42.963C6.113,42.463 0.621,37.016 0.049,30.18Z" style="fill:url(#_Linear2);"/>
            <path d="M49.551,5.24C53.57,7.869 57.054,11.445 59.635,15.868C59.661,15.912 59.687,15.956 59.712,16C59.738,16.044 59.763,16.089 59.789,16.133C63.069,21.876 64.372,28.216 63.91,34.361C63.413,40.973 60.873,47.359 56.554,52.53C54.211,55.334 51.346,57.781 48,59.713C47.474,60.016 46.943,60.303 46.408,60.574C52.315,56.464 54.188,48.432 50.525,42.088L32.021,10.038C35.882,4.35 43.345,2.317 49.551,5.24Z" style="fill:url(#_Linear3);"/>
            <path d="M46.399,60.58C42.113,62.746 37.274,63.976 32.153,64C32.102,64 32.051,64 32,64C31.949,64 31.898,64 31.847,64C25.233,63.969 19.091,61.927 14,58.455C8.522,54.718 4.262,49.326 1.944,43C0.686,39.569 0,35.864 0,32C0,31.393 0.017,30.79 0.05,30.191C0.656,37.361 6.675,43 14,43L51.009,43C54.004,49.187 52.034,56.667 46.399,60.58Z" style="fill:url(#_Linear4);"/>
        </g>
    </g>
    <path d="M39.085,31.026C40.7,29.917 41.808,28.67 41.808,26.317C41.808,22.579 38.09,20.827 35.828,20.604C35.644,20.584 35.129,20.575 35.129,20.575L35.129,17L31.44,17L31.448,20.575L28.983,20.575L28.983,17.013L25.233,17.013L25.233,20.558C24.573,20.574 20.605,20.57 20.605,20.57L20.605,23.734L21.895,23.734C23.137,23.734 23.697,24.519 23.697,25.066L23.697,38.909C23.682,39.371 23.32,39.753 22.859,39.793C22.295,39.818 21.457,39.793 21.457,39.793L20.734,43.38L25.243,43.38L25.243,46.993L28.995,46.993L28.995,43.4L31.46,43.4L31.46,47L35.127,47L35.127,43.413L35.397,43.413C39.64,43.413 43.339,40.898 43.394,36.835C43.445,33.497 40.594,31.566 39.085,31.026ZM28.993,30.103L28.993,23.984L32.461,23.984C32.566,23.984 32.65,24.003 32.751,24.008C34.26,24.08 35.196,24.679 35.701,25.4C36.011,25.832 36.183,26.348 36.195,26.88C36.188,27.249 36.125,27.614 36.007,27.964C35.903,28.268 35.747,28.552 35.545,28.802C35.384,29.013 35.189,29.196 34.969,29.344C34.408,29.738 33.618,30.048 32.483,30.103C32.468,30.103 29.048,30.113 28.993,30.103ZM37.299,37.46C37.185,37.788 37.015,38.094 36.796,38.364C36.622,38.592 36.412,38.79 36.174,38.949C35.566,39.377 34.713,39.712 33.49,39.771C33.475,39.771 29.053,39.781 28.995,39.779L28.995,33.16C29.54,33.16 32.271,33.169 33.469,33.169C33.581,33.169 33.673,33.189 33.781,33.194C35.411,33.273 36.425,33.92 36.967,34.703C37.303,35.171 37.489,35.729 37.502,36.305C37.491,36.701 37.421,37.093 37.292,37.468L37.299,37.46Z" style="fill:white;fill-rule:nonzero;"/>
    <defs>
        <linearGradient id="_Linear2" x1="0" y1="0" x2="1" y2="0" gradientUnits="userSpaceOnUse" gradientTransform="matrix(19.0519,-32.924,32.924,19.0519,12.9694,42.9626)"><stop offset="0" style="stop-color:white;stop-opacity:0.25"/><stop offset="1" style="stop-color:white;stop-opacity:0.75"/></linearGradient>
        <linearGradient id="_Linear3" x1="0" y1="0" x2="1" y2="0" gradientUnits="userSpaceOnUse" gradientTransform="matrix(18.9869,32.9611,-32.9611,18.9869,32.0214,10.0386)"><stop offset="0" style="stop-color:white;stop-opacity:0.25"/><stop offset="1" style="stop-color:white;stop-opacity:0.75"/></linearGradient>
        <linearGradient id="_Linear4" x1="0" y1="0" x2="1" y2="0" gradientUnits="userSpaceOnUse" gradientTransform="matrix(38.0386,0.0374306,-0.0374306,38.0386,12.9697,42.9623)"><stop offset="0" style="stop-color:white;stop-opacity:0.75"/><stop offset="1" style="stop-color:white;stop-opacity:0.25"/></linearGradient>
    </defs>
</svg>
