<svg xmlns="http://www.w3.org/2000/svg" width="40" height="40" viewBox="0 0 40 40"><circle cx="20" cy="20" r="20" fill="#d9deeb"/><rect x="6" y="6" width="28" height="28" rx="7.9799999999999995" ry="7.9799999999999995" fill="#002677"/><g transform="translate(11.325603615235636, 11.32)"><svg width="17.34879276952873" height="17.36" viewBox="0 0 1548 1549" xmlns="http://www.w3.org/2000/svg"><g xmlns="http://www.w3.org/2000/svg" fill-rule="evenodd"><path fill="#ffffff" d="M609.5 1045.6c23.6 24 23.6 64-.4 88.1-25 24.1-64.5 24.1-89-.9-24.5-24.9-24.1-65.7.4-89 25.4-24 64.5-23.6 89 1.8m-104.1-15.5c-25.3 24.9-65.3 24.9-90.7-.4-24.5-25-24.5-66.7.5-91.2 24.5-24.5 66.2-24.5 90.7.4 25.3 25.4 25.3 65.8-.5 91.2m-.4-419.2c-24.9 25-64.9 25-89.4-.4-24.1-24.1-23.7-64.9.4-89 23.7-23.6 64.9-23.6 89 0 24.5 24.9 24.5 64.5 0 89.4m104.1-192.2c24.5 25 24 63.2 0 88.2-24.1 24.5-65.8 24.1-89.5-.9-23.2-24.9-24-64 0-88.1 26.7-25.8 67.5-23.2 89.5.8m15.4 730c24.5-24.5 64.1-24 88.6.5 24.1 24.1 24.5 64.5 0 87.7-30.5 29.2-69.2 19.3-88.6-.4-23.6-24.6-23.6-63.7.5-87.8zm-313-312.5c24.5-24.9 65.3-24.9 89-.4 23.6 24 23.6 64.5.4 88.5-23.6 24.1-65.3 24.1-89.4 0-23.7-24-23.7-64 0-88.1m88.1-120.8c-24.1 24.1-63.2 24.1-87.3 0-24.9-24.9-24.9-64.9-.4-89s64.5-23.6 88.6 1.3c24 24.5 23.6 63.2-.9 87.7m224.9-313.8c-24.5-23.7-24.1-64.1 0-87.8 23.6-24 63.6-24.5 87.7 0 28.8 29.3 20.6 68.4 0 88.6-20.7 20.2-58.9 27.5-87.7-.8m189.6 855.1c22.3 22.7 22.3 59.3 0 81.6-22.4 22-58.9 22-81.3-.4-22.4-21.9-22.4-59.3 0-81.2 21.9-22.4 58.9-22.4 81.3 0M419.4 1233c-22.4-22.8-21.9-57.6.4-80.4 22.8-22.3 57.6-22.3 80 0 22.8 22.8 23.2 59.8.8 81.7-22.3 21.9-58.9 21.5-81.2-1.3m-104.1-184.9c21.5-22.3 58.5-21.9 80.4 0 22.8 22.8 23.7 57.7 1.3 80.4-22.3 23.3-57.6 22.8-81.2.5-20.7-19.4-23.7-56.3-.5-80.9M211.7 735.6c27.1-25.8 63.2-17.6 78.7.9 22.4 22.3 22.8 56.3.4 78.6-22.3 22.4-56.3 22-78.6-.4-22.4-22.4-22.8-57.6-.5-79.1m314.7 599.3c-20.6-19.8-20.2-55 .5-75.2 19.3-18.5 52.4-22.4 75.2.8 21.1 20.7 20.6 55.5-.4 75.3-21.1 19.7-52 21-75.3-.9M315.8 502.2c-25.4-25-19.8-60.7 0-80.4 19.8-19.4 55-24.5 80.4.4 22.3 21.9 22.3 58.9 0 80.4-22 21.5-55.5 24.1-80.4-.4m184-102.8c-22.4 21.5-58.5 21.5-80.4-.4-21.9-22.4-21.9-59.4 0-81.7 22.3-21.9 59.3-21.5 81.7.8 21.9 22.4 21.5 58.5-1.3 81.3m312.5-107c-20.6 21.9-55.4 21.4-76.5 0-21.9-21.5-22.8-55.1-1.3-76.6 21.5-22.3 55-21.9 77.4-.4 19.8 18.9 23.2 53.7.4 77.4zm-598 729.1c-21-21.5-20.6-54.6.4-75.2 21.1-20.6 54.2-20.2 75.3 1.3 20.6 20.6 20.6 55-.4 75.2-21.5 20.6-54.2 19.8-75.3-1.3m0-492.7c22.4-22.3 58.5-18.9 75.7.9 20.6 20.6 20.6 54.6.4 75.2-21.1 20.7-55 20.2-76.1-1.3-21-21-20.6-53.7 0-74.8m384.8-235.1c-21.1 18.9-54.2 17.2-74-3.9-19.7-21.9-18.9-55.5 2.2-75.2 21.5-20.2 55.9-19.4 75.7 2.5 20.6 22.8 18.9 55.5-3.9 76.6m34.8 1142.7c-18.9-19.4-18.9-50.3 0-69.2 16.8-17.7 46.9-21.5 69.7 0 18.9 18 18 51.1-.5 69.2-18.9 18.5-51.1 18.5-69.2 0m278.2-69.2c19.3 19.3 19.3 49.4.4 68.3-19.3 19.8-49.9 19.4-69.6-.4-19-19.3-18.5-50.3.4-68.8 19.3-18.9 49.4-18.5 68.8.9m-730-452.7c-18.9 18.5-50.3 18.5-69.2-.5-19-18.9-19.4-49.8-.9-69.2 18.9-19.3 50.3-18.9 69.6.5 19 18.9 19 50.3.5 69.2m-69.7-209.8c-18.9-20.2-19.3-49.5 0-68.8 19.8-19.4 48.6-18.9 68.8 0 20.7 18.9 18.5 52 .9 69.6-17.7 17.7-50.3 19.4-69.7-.8m277.3 558.4c18.9 19.4 18.9 49.5-.4 68-18.9 18.4-48.6 18.4-67.1-.5-18.9-18.9-19.3-49.8-.8-68.3 18.9-18.5 49.4-18.1 68.3.8m-171.9-104.9c18.4-18.5 49.8-18.5 68.3.5 18.5 18.9 18.1 49.4 0 67.9-18.5 18.5-49.4 18.5-67.9.4-18.9-18.9-19.4-50.3-.4-68.8m625.5-974.6c-19.4-19.3-19.4-49.9 0-69.2 19.3-19.3 49.9-19.3 69.2-.4 18.9 18.5 18.9 50.7.4 69.6-18.5 18.5-51.1 18.5-69.6 0m-141-70.1c19.8 19 20.2 49 1.7 68.8-19.4 19.4-49.4 20.2-68.8 1.3-19.8-19.3-20.6-49.4-2.1-69.2 18-19.3 49.4-19.8 69.2-.9m-273 1256.3c17.6-17.2 43.8-17.2 61.5.4 15.4 13.3 20.2 42.1.4 62.8-17.2 16.7-44.7 16.3-61.9-.9-17.6-18.1-17.6-44.7 0-62.3M285.7 391.3c-18.5 18.9-49.9 18.5-68.4-.5-18-18-18-49.4 0-67.9 18.5-18.5 50.8-18.5 68.8 0 18.5 18.9 18.5 49.9-.4 68.4m-170.3 727.4c-16.7-17.6-16.3-44.7 1.3-62.4 17.7-17.2 45.2-16.7 62.4.9 16.7 17.2 16.7 45.6-.5 62.3-17.2 17.2-46 16.8-63.2-.8m207.7-900.3c18.9-18.4 48.6-18.4 67.5.9 18 18.5 18 49.4-.4 67.9-19 18.5-49.9 18.1-68.8-1.3-18.5-18.9-17.7-48.5 1.7-67.5m420 1317.7c-16.8-16.7-16.8-45.1-.4-61.4 16.3-16.4 44.3-16.4 61 0 17.2 16.7 17.2 43.8-.4 61-16.8 17.2-43.4 17.2-60.2.4M116.7 429.5c21.1-19.3 49-13.7 61.9 1.3 17.7 17.6 17.2 44.7-.4 62.4-17.6 17.2-44.3 16.3-61.9-1.3-17.2-17.7-17.6-46 .4-62.4m374.9-249.8c-16.8 16.8-46 16.8-62.8 0-16.7-17.2-17.1-45.5-.4-62.7 16.8-17.2 46.4-17.2 63.6 0 16.8 16.7 16.4 46-.4 62.7M72.9 744.2c17.2 17.2 17.6 43.4.8 60.2-17.2 17.6-43.8 17.2-61-.4-16.8-16.8-16.8-44.3 0-60.6 16.8-16.4 43.4-16.4 60.2.8M804.2 74c-16.8 16.8-43.9 17.2-60.7.8-16.7-15.9-17.6-44.7-1.2-61.4 16.3-16.8 45.1-16.8 61.9 0 16.3 16.3 16.3 43.8 0 60.6M633.9 1436.4l.4.4z"/><path fill="#ffffff" d="M1030.4 720.6c-27.1 27-71.4 27-98.1-.5-27-27.1-26.6-71.8 0-98.4 27.1-26.7 71.8-26.7 98.5.4 27.1 27.1 26.7 71.4-.4 98.5m-416.2-98.9c27.1 27.1 27.1 71.3 0 98.4-26.6 27.5-70.9 27.5-98 .9-27.1-27.1-27.1-71.8-.4-98.9 26.2-27.1 71.3-27.1 98.4-.4m5.6-104.9c27.5-26.3 70.9-25.8 98 1.3 27.1 27.5 27.1 71.3 0 98-27.1 27.5-70.9 26.6-98.4-.9-26.7-27.1-26.7-72.2.4-98.4m208.9 1.3c27.1-27.6 72.3-28 98.5 0 26.6 27.9 27.5 70-.4 97.6-28.4 28.3-70.5 26.2-97.6 0-27.5-26.3-26.7-71-.5-97.6M727.3 1043c20.2-22.8 62.7-29.2 92.4-.9 25.8 25 25.8 67.5.9 92.9-25.4 25.8-69.2 26.2-93.8 0-28.8-30.5-21.4-72.2.5-92m312.5-221.8c-30.1-30.1-21.5-70.6-1.3-91.6 25-25.4 67.1-26.7 92.9-.9s27.1 65.4.9 92.5c-25.4 25.7-65.8 27-92.5 0m-624.6-92.5c25.3-24.9 67-24.9 92 0 25.8 25.8 26.2 67.5.8 93.3-25.3 25.4-67.5 25.4-93.3 0-25.3-25.8-25.3-67.9.5-93.3m311.6-312.5c25.4-25.8 67.5-25.8 92.9-.5 25.8 25.8 25.8 67.5.9 93.3-25 25.4-67.5 25.4-92.9 0-25.8-25.8-26.2-67.5-.9-92.8m211.6 628.5c21.5-21.5 60.2-27.9 87.7 0 26.2 25.8 24.9 63.2.4 87.7-24.1 24.5-61.5 26.2-87.7 0-27.5-26.6-22.4-65.8-.4-87.7m193-14.6c-25.4 24.9-65.3 24.5-90.7-.9-24.5-24.5-24.1-66.2.4-90.7s66.2-24.5 90.7 0c25.8 25.8 25.4 65.8-.4 91.6m-.4-508.6c24.9 24.9 24.9 64.5 0 89.4-25 25-64.9 24.5-89.5-.4-23.6-24.1-23.6-64.9.5-89 24.1-23.6 64.9-23.6 89 0M937.5 506c-23.6-24.5-23.2-64 1.3-88.5 21.5-22.4 61.5-25.8 88.6.4 24 24.1 23.6 64.9 0 89-24.1 24.1-65.8 24.1-89.9-.9m-104 642.7c24.5-24.5 64-24.5 88.5 0 24.1 24.1 25 64.1.9 87.8-29.7 29.2-68.8 20.2-88.6.4-24-24.5-24.5-63.6-.8-87.7zm312.9-313.9c24.6-24 63.7-23.6 88.2.9s24.5 63.2.4 87.7c-24.9 24.5-63.6 24.5-88.6-.9-24-24-24-64 0-87.7m.5-208c24.9-25 64-24.5 88.5.4 23.7 23.6 23.7 64.5-.4 88.1-23.6 23.7-64 23.7-88.1 0-24.5-24.5-24.5-64 0-88.5m-313-225.7c-24.5-25-23.2-66.3 1.3-89 26.2-22.8 62.8-23.3 88.1 2.5 24.5 24.5 22.8 65.4-2.1 88.6-22 19.8-59.8 25.4-87.3-2.1m213.2 750.6c22.4-22.4 57.6-21.9 80 .8 22.4 22.4 22.4 59.8 0 81.3-22.8 21.9-59.3 21.1-81.7-2.1-21.9-22.8-21-57.7 1.7-80m103.2-104.1c22.4-21.9 58.5-22.3 80.8-.4 22.4 21.9 22.4 60.2 0 82.1-21.9 21.5-59.3 21.5-81.2-.8-21.5-22.4-21.5-58.5.4-80.9m106.6-312.9c22-22 57.2-21.5 79.1.8 21.5 22 21.1 58.1-.4 79.6-21.9 21.5-58.9 21-80.4-1.3-21.5-22.4-21-57.2 1.7-79.1m-312.5 598.8c-20.6-21-19.8-55.8 1.3-75.6 21.5-20.2 55-19.4 75.6 2.1 20.2 21.1 19.4 55.5-1.7 75.7-20.6 20.2-55 19.3-75.2-2.2m206.3-912.7c22.4-21.9 58.5-21.9 80.9.5 21.9 22.3 21.9 59.3 0 81.2-22.4 21.9-58.9 21.9-81.3-.4-21.9-22.4-21.9-59.3 0-81.3zm-23.2-23.2c-22.4 22.8-58.9 22.8-80.8.4-22.4-22.7-21.9-59.7 0-81.6 22.3-22 59.3-21.5 81.2.8 22 22.4 21.5 58.1-.4 80.4m129.4 549c21.1-21 54.2-21.5 75.2-.8 21.5 21 22 54.1 1.8 75.6-20.2 21.1-54.6 21.1-75.7.5-21.1-21.1-21.9-54.2-.9-75.3zm0-343.9c-20.6-20.7-20.2-53.8.5-74.4 22.3-22.3 57.6-18.9 75.6.9 19.8 21 20.7 55.4-.4 74.8-23.6 22.8-57.6 18.9-75.7-1.3M944.8 216.2c21.1-21.5 54.2-21.9 74.8-1.3 21.1 20.6 21.5 55.5 1.3 76.1-20.6 20.6-55.4 20.6-76.1 0-20.6-21.1-20.6-54.2 0-74.8m420 628.1c19.4-18.5 50.3-18.1 69.3.9 18.9 18.9 18.9 50.3 0 69.2-18.5 18.9-49.9 18.5-68.8-.5-19.4-19.3-19.8-50.7 0-69.6zm0-208.5c19.3-19.4 48.6-18.5 68.3 0 20.7 19.3 18.5 52 .9 70.1-17.6 17.6-50.7 19.3-69.7-1.3-18.9-20.2-18.9-49.5.5-68.8M1156.3 1331c-18.1-18.1-18.1-49.5 0-67.5 16.3-17.2 46-21.5 68.3-.5 18.9 17.7 18.5 50.3 0 68.4-18 18.5-50.3 18-68.8-.4zm104.9-173.3c19-18.1 50.3-17.6 68.8 1.7 17.6 18.9 17.2 49.9-1.3 68-19.3 18.4-50.3 18-68.8-1.8-17.6-18.5-17.2-49.8 1.3-67.9m-142.7 275.2c-16.8 17.1-44.7 16.7-61.9-.5-18.5-15.9-18.5-45.1-.9-62.3 17.7-17.2 43.9-17.2 61.9 0 15.1 14.6 20.2 42.5.5 62.8zm210.6-1109.2c18.9 18.5 18.9 49.8.5 68.3-18.5 18.9-49.9 18.9-68.4 0-18.5-18-18.5-50.7.4-68.8 18.5-17.6 49.5-17.6 67.5 0zM1226 220.6c18 18.4 18 49.4-.9 67.9s-49.9 18-67.9-.4c-18.5-19-18.5-49.9 0-68.4s49.8-18.5 68.8.4zm205 900.3c-16.7 17.2-45.1 17.2-62.3.4-17.2-17.2-17.6-45.6-.9-62.8 16.8-17.6 46-17.6 63.2-.4 17.2 16.8 17.2 45.1 0 62.3zM1368.7 495c-17.2-17.6-17.2-45.2 0-62.8 17.6-17.6 46-17.6 63.2.4 16.3 16.8 16.3 46-.9 62.8-16.7 16.4-46 16.4-62.3-.4m-249.8-376.2c16.8 17.2 16.3 46.4-.4 63.2-17.2 16.8-46.5 16.3-62.8-.4-16.8-17.2-17.2-45.6-.4-62.8 16.7-17.2 46.8-17.2 63.6.4zM1474 806.7c-16.8-16.8-16.8-44.3 0-61 16.8-16.8 45.2-16.8 61.5.4 15.9 16.3 15.5 45.6-.4 61-16.4 16.4-45.6 15.9-61.5-.4zm-748.5 24.9c27.1-27.5 71.4-27.5 98.5 0 27 27.1 27 71 0 98.1-27.6 27-71.4 27-98.5 0-27.1-27.1-27.1-71 0-98.1m208.1 0c27.1-27.5 70.9-27.5 98 0 27.1 27.1 27.1 71 0 98.1-27.1 27-70.9 27-98 0-27.1-27.1-27.1-71 0-98.1m-416.2 0c27.1-27.5 71-27.5 98 0 27.1 27.1 27.1 71 0 98.1-27 27-70.9 27-98 0-27.1-27.1-27.5-71 0-98.1M621 936.1c27.1-27.1 71-27.1 98.1 0 27 27.1 27 70.9 0 98-27.1 27.1-71 27.1-98.1 0s-27.1-70.9 0-98m209-209.4c27.5-27 71.3-27 98.4 0 27.1 27.6 27.1 71.4 0 98.5s-71.3 27.1-98.4 0c-26.7-27.1-26.7-71.4 0-98.5m0 209.4c27.5-27.1 71.3-27.1 98.4 0s27.1 70.9 0 98-71.3 27.1-98.4 0c-26.7-27.1-26.7-70.9 0-98M621 726.7c27.1-27 71-27 98.1 0 27 27.6 27 71.4 0 98.5-27.1 27.1-71 27.1-98.1 0s-27.1-71.4 0-98.5m104.5-104c27.1-27.1 71.4-27.1 98.5 0 27 27.1 27 70.9 0 98-27.6 27.1-71.4 27.1-98.5 0s-27.1-70.9 0-98"/></g></svg></g></svg>