<svg xmlns="http://www.w3.org/2000/svg" width="40" height="40" viewBox="0 0 40 40"><circle cx="20" cy="20" r="20" fill="#E9D4FC"/><rect x="6" y="6" width="28" height="28" rx="7.9799999999999995" ry="7.9799999999999995" fill="#450E78"/><g transform="translate(11.32, 18.08022684310019)"><svg width="17.36" height="3.8395463137996217" viewBox="0 0 1587 351" xmlns="http://www.w3.org/2000/svg">
	<title xmlns="http://www.w3.org/2000/svg">logo-ishares-svg</title>
	
	<g xmlns="http://www.w3.org/2000/svg" id="logo-ishares">
		<g id="Shape">
			<path id="Layer" fill-rule="evenodd" class="s0" d="m0 6h75.7v61h-75.7zm0 337.8v-250h75.7v249.9zm1346.9-105.1h-169.9c3.1 26.5 22.4 46.9 59.7 46.9 22.8 0.6 44.8-8.6 60.6-25.4l45.3 47.3c-23.3 26.8-60.1 43-105.7 43-86.8 0-137.8-51-137.8-133.4 0-76 49.2-131.3 127.3-131.3 78 0 123.3 48.5 123.3 120.9 0.2 10.7-0.7 21.4-2.8 32zm-72.6-47.9c-1.7-25.9-18.6-44.4-47.7-44.4-29.1 0-45.9 18.3-49.5 44.4zm201.5 159.5c-37.4 0-83.1-10-116.9-42.8l43.2-47.4c19.9 19.1 46.2 29.8 73.5 30 26.4 0 37.9-7 37.9-17.7 0-8.1-5.8-12.7-20.2-17.1-12.6-3.8-32.4-7.2-49.2-12.2-36.3-10.9-72.4-26.3-72.4-78.7-0.1-48.5 38.7-78.3 103.4-78.3 35.8 0 76.3 7.5 110.3 38.3l-43.7 46.2c-19-18.8-45.6-25.5-67.2-25.5-19.5 0-30.3 6.9-30.3 16.7 0 8 5.8 12.8 20.5 17.6 12.8 4.2 33.9 8.3 50.5 13.1 34.9 10.1 71 25.2 71 75.1 0.2 55.8-46 82.8-110.4 82.8zm-1165.8-246.7c-19.2-22.8-47.5-35.5-76.9-34.5-31.9 0-48.6 11.7-48.6 28.4 0 22.6 25.2 30.4 73.5 44.3 53 15.2 113.2 32.4 113.2 103.8 0 71.3-58 104.3-131.5 104.3-62 0-112.5-18-145.1-62.9l56.5-47.8c21.6 29.6 54.3 41.6 87.7 41.6 39.6 0 54.1-14.1 54.1-29.3 0-22.1-23-27.5-78.6-43.3-57.2-16.3-106.9-38.8-106.9-108 0-60.6 48.6-100.1 128.2-100.1 50.5 0 96.9 13.7 130.3 56.3zm760.4-14.6c14.5-0.6 28.5 5.4 38.2 16.3l-30.4 65.2c-7.5-5.7-16.7-8.8-26.1-8.6-19.3 0-35.9 17-35.9 47.9v133.8h-76.3v-249.8h75v35c13.4-23.9 30.6-39.8 55.5-39.8zm-441 86.2v168.4h-75.4v-141.2c0-27.1-14.2-43.7-39.4-43.7-25.2 0-42.3 16-42.3 44.7v140.2h-75.5v-337.7h75.5v121.5c17.7-24.6 45.8-38.9 75.6-38.6 46.1 0 81.5 30.8 81.5 86.4zm285.9 110.5q0 0-0.1 0zm-0.1 53c-14.2 5.5-29.2 8.3-44.3 8.2-20.8 0-41.7-6.6-51.5-31.3-16.4 18.8-46.9 33.2-81.6 33.2-50.5 0-83-26.4-83-76.6 0-49.1 39-78.4 99.2-78.4 19.9 0 39.8 2.5 59.2 7.5v-8.2c0-28.2-15.9-44.8-48.8-44.8-22.2 0.7-43.5 9.4-60.1 24.5l-41.3-47.9c24.7-22.8 64.7-39.8 110.9-39.8 71.2 0 114.2 35 114.2 100.6v87.5c0 9.4 4.6 14.1 14.6 14.1 4.2 0 8.4-0.5 12.5-1.6zm-101.9-95.8c-13.9-3.5-28.1-5.3-42.3-5.5-26 0-38.9 13-38.9 30.9 0 16.9 11.4 29.2 34.8 29.2 24.7 0 46.4-15.2 46.4-38z" fill="#ffffff"/>
		</g>
	</g>
</svg></g></svg>