<svg xmlns="http://www.w3.org/2000/svg" width="40" height="40" viewBox="0 0 40 40"><circle cx="20" cy="20" r="20" fill="#d9eaf5"/><rect x="6" y="6" width="28" height="28" rx="7.9799999999999995" ry="7.9799999999999995" fill="#0072bd"/><g transform="translate(11.32, 12.815469879518073)"><svg width="17.36" height="14.369060240963854" viewBox="0 0 1660 1374" xmlns="http://www.w3.org/2000/svg"><g xmlns="http://www.w3.org/2000/svg" fill="#ffffff"><path d="M254.3 367.4 39.4.7h1620.5l-217.2 366.7zM1221 742.7l-375.9 630.6-369-630.6z"/><g fill-rule="evenodd"><path d="M193.1 700.6h-83.3L.6 409.8h76.3l74.8 204.4h.9l75.8-204.4h76.2zm123.8-290.9h73.8v290.9h-73.8zM489.5 604c0 38.7 34.8 53.8 74.4 53.8 25.8 0 65.3-6.6 65.3-36.3 0-31.4-50.3-36.7-99.7-48.1-49.9-11.4-100.2-28.1-100.2-82.6 0-59.5 64.9-88.1 125.6-88.1 70.1 0 134.6 26.6 134.6 93.8H618c-2.4-35.1-31.1-44.1-66.4-44.1-23.5 0-50.8 8.6-50.8 33 0 22.5 16 25.3 100.2 44.1 24.5 5.2 99.8 18.7 99.8 84.6 0 53.4-48.5 93.4-139.8 93.4-74.3 0-143.9-31.8-143-103.5zm237.6-194.3H801v111.6h135.9V409.7h73.9v290.8h-73.9V575.1H801v125.4h-73.9zm418.8 0h75.7l125.7 290.9h-76.7l-25.4-64.8h-125.6l-26.4 64.8h-74.8zm-7.1 178.4h87.1l-42.4-106.7h-.9zm270-.8-123.6-177.6h83.2l78.6 114.8 78.1-114.8h82.3l-124.7 179.2v111.6h-73.9zM1585.1 610.5c25.9 0 49 18.6 49 47.5 0 29.1-23.1 47.8-49 47.8-25.8 0-48.9-18.7-48.9-47.8 0-28.9 23.1-47.5 48.9-47.5m36 47.7c0-20.8-16.1-37.5-36-37.5s-36 16.7-36 37.5c0 20.7 16.1 37.4 36 37.4s36-16.7 36-37.4m-55-26.9h20.2c13.3 0 20.9 4.2 20.9 15.8 0 9.8-6.2 13.6-14 14.2l14.2 23.4h-11.1l-13-22.8h-6.6v22.8h-10.6zm10.6 22.3h9.4c6 0 10.5-.9 10.5-7.4 0-5.7-6.1-6.6-11-6.6h-8.9z"/></g></g></svg></g></svg>