<?xml version="1.0" encoding="UTF-8"?>
<!DOCTYPE svg PUBLIC "-//W3C//DTD SVG 1.1//EN" "http://www.w3.org/Graphics/SVG/1.1/DTD/svg11.dtd">
<svg xmlns="http://www.w3.org/2000/svg" version="1.1" width="320px" height="320px" style="shape-rendering:geometricPrecision; text-rendering:geometricPrecision; image-rendering:optimizeQuality; fill-rule:evenodd; clip-rule:evenodd" xmlns:xlink="http://www.w3.org/1999/xlink">
<g><path style="opacity:1" fill="#070d5c" d="M 319.5,139.5 C 319.5,153.5 319.5,167.5 319.5,181.5C 304.499,258.501 258.499,304.501 181.5,319.5C 167.5,319.5 153.5,319.5 139.5,319.5C 78.2218,308.72 35.3884,274.72 11,217.5C -9.70745,155.383 1.29255,99.7159 44,50.5C 95.557,1.07496 155.057,-11.425 222.5,13C 277.271,37.9402 309.604,80.1068 319.5,139.5 Z"/></g>
<g><path style="opacity:1" fill="#fefefe" d="M 199.5,109.5 C 223.33,106.981 237.83,117.314 243,140.5C 243.5,163.164 243.667,185.831 243.5,208.5C 232.5,208.5 221.5,208.5 210.5,208.5C 210.667,189.497 210.5,170.497 210,151.5C 205.878,138.23 197.378,134.396 184.5,140C 181.131,142.365 178.964,145.532 178,149.5C 177.5,169.164 177.333,188.831 177.5,208.5C 166.167,208.5 154.833,208.5 143.5,208.5C 143.666,204.154 143.499,199.821 143,195.5C 131.688,208.71 117.521,212.877 100.5,208C 87.3365,202.501 79.8365,192.668 78,178.5C 77.5,155.836 77.3334,133.169 77.5,110.5C 88.5,110.5 99.5,110.5 110.5,110.5C 110.333,129.503 110.5,148.503 111,167.5C 115.081,180.76 123.581,184.593 136.5,179C 140.325,176.512 142.492,173.012 143,168.5C 143.5,149.17 143.667,129.836 143.5,110.5C 154.833,110.5 166.167,110.5 177.5,110.5C 177.334,114.846 177.501,119.179 178,123.5C 183.495,116.175 190.662,111.508 199.5,109.5 Z"/></g>
</svg>
