<svg width="1024" height="1024" viewBox="0 0 1024 1024" fill="none" xmlns="http://www.w3.org/2000/svg">
<g clip-path="url(#clip0_3828_847)">
<path d="M1024 0H0.999023V1024H1024V0Z" fill="white"/>
<path fill-rule="evenodd" clip-rule="evenodd" d="M520.746 140.984C516.213 138.352 510.621 138.338 506.075 140.947L195.268 319.351C190.722 321.961 187.914 326.797 187.901 332.038L187 690.407C186.987 695.648 189.771 700.498 194.303 703.13L504.209 883.095C508.742 885.727 514.334 885.741 518.88 883.132L829.687 704.728C834.233 702.118 837.041 697.282 837.054 692.041L837.955 333.672C837.968 328.431 835.184 323.581 830.652 320.949L520.746 140.984ZM520.484 245.117C515.951 242.485 510.359 242.471 505.813 245.08L285.319 371.644C280.773 374.254 277.965 379.09 277.951 384.331L277.312 638.567C277.299 643.809 280.083 648.659 284.616 651.291L504.471 778.962C509.004 781.594 514.596 781.609 519.142 778.999L574.33 747.321C584.048 741.743 584.178 727.771 574.567 722.013L353.664 589.666C349.234 587.011 346.526 582.223 346.534 577.058L346.658 496.754C346.676 485.365 359.099 478.338 368.869 484.192L686.317 674.381C690.875 677.112 696.552 677.165 701.16 674.52L739.636 652.435C744.182 649.825 746.99 644.989 747.004 639.748L747.096 602.852C747.109 597.682 744.4 592.887 739.966 590.23L420.139 398.616C410.369 392.762 410.704 378.494 420.738 373.106L491.487 335.114C496.038 332.671 501.537 332.8 505.968 335.454L725.26 466.837C735.024 472.687 747.441 465.671 747.47 454.289L747.643 385.512C747.656 380.27 744.872 375.42 740.339 372.788L520.484 245.117Z" fill="black"/>
</g>
<defs>
<clipPath id="clip0_3828_847">
<rect width="1024" height="1024" fill="white"/>
</clipPath>
</defs>
</svg>
