<?xml version="1.0" encoding="UTF-8"?>
<!DOCTYPE svg PUBLIC "-//W3C//DTD SVG 1.1//EN" "http://www.w3.org/Graphics/SVG/1.1/DTD/svg11.dtd">
<svg xmlns="http://www.w3.org/2000/svg" version="1.1" width="257px" height="257px" style="shape-rendering:geometricPrecision; text-rendering:geometricPrecision; image-rendering:optimizeQuality; fill-rule:evenodd; clip-rule:evenodd" xmlns:xlink="http://www.w3.org/1999/xlink">
<g><path style="opacity:1" fill="#fdfdfe" d="M -0.5,-0.5 C 85.1667,-0.5 170.833,-0.5 256.5,-0.5C 256.5,85.1667 256.5,170.833 256.5,256.5C 170.833,256.5 85.1667,256.5 -0.5,256.5C -0.5,170.833 -0.5,85.1667 -0.5,-0.5 Z"/></g>
<g><path style="opacity:1" fill="#223ea0" d="M 161.5,12.5 C 162.93,13.5375 164.597,14.2041 166.5,14.5C 201.731,28.0644 225.398,52.731 237.5,88.5C 237.41,91.1522 238.076,93.4855 239.5,95.5C 239.5,95.8333 239.5,96.1667 239.5,96.5C 239.41,99.1522 240.076,101.485 241.5,103.5C 244.293,120.213 243.96,136.88 240.5,153.5C 239.076,155.515 238.41,157.848 238.5,160.5C 235.194,170.121 231.027,179.454 226,188.5C 220.334,196.327 214.501,203.994 208.5,211.5C 205.236,213.094 202.569,215.427 200.5,218.5C 190.918,225.791 180.585,231.791 169.5,236.5C 165.851,237.267 162.518,238.6 159.5,240.5C 157.585,240.216 155.919,240.549 154.5,241.5C 148.335,242.305 142.335,243.305 136.5,244.5C 77.328,245.827 37.1613,218.827 16,163.5C 14.5153,158.895 13.3487,154.228 12.5,149.5C 12.2474,145.96 11.5808,142.627 10.5,139.5C 10.5,138.5 10.5,137.5 10.5,136.5C 10.4216,126.815 10.7549,117.148 11.5,107.5C 19.1195,65.0392 42.4528,34.5392 81.5,16C 87.3229,13.5449 93.3229,11.7116 99.5,10.5C 102.152,10.5905 104.485,9.92381 106.5,8.5C 125.128,6.21014 143.462,7.54348 161.5,12.5 Z"/></g>
<g><path style="opacity:1" fill="#7c8dc7" d="M 106.5,8.5 C 104.485,9.92381 102.152,10.5905 99.5,10.5C 101.515,9.07619 103.848,8.40953 106.5,8.5 Z"/></g>
<g><path style="opacity:1" fill="#a8b3da" d="M 161.5,12.5 C 163.698,12.1201 165.365,12.7868 166.5,14.5C 164.597,14.2041 162.93,13.5375 161.5,12.5 Z"/></g>
<g><path style="opacity:1" fill="#9eabd6" d="M 134.5,15.5 C 126.149,15.4815 117.816,15.8148 109.5,16.5C 114.423,15.046 119.589,14.3793 125,14.5C 128.352,14.5018 131.518,14.8351 134.5,15.5 Z"/></g>
<g><path style="opacity:1" fill="#fdfdfe" d="M 134.5,15.5 C 177.591,20.4508 208.424,42.4508 227,81.5C 228.971,86.3881 230.471,91.3881 231.5,96.5C 231.41,99.1522 232.076,101.485 233.5,103.5C 236.355,120.234 236.021,136.901 232.5,153.5C 230.723,156.505 229.723,159.838 229.5,163.5C 208.726,212.906 171.393,237.239 117.5,236.5C 113.433,234.946 109.1,234.28 104.5,234.5C 104.167,234.5 103.833,234.5 103.5,234.5C 101.485,233.076 99.1522,232.41 96.5,232.5C 73.4824,225.663 54.6491,212.663 40,193.5C 34.03,184.555 28.8633,175.222 24.5,165.5C 23.9431,160.835 22.6098,156.502 20.5,152.5C 17.585,137.95 16.9183,123.284 18.5,108.5C 19.9238,106.485 20.5905,104.152 20.5,101.5C 29.5539,63.7884 51.8873,37.4551 87.5,22.5C 90.855,22.3104 93.855,21.3104 96.5,19.5C 97.7079,18.7659 99.0413,18.4326 100.5,18.5C 103.152,18.5905 105.485,17.9238 107.5,16.5C 108.167,16.5 108.833,16.5 109.5,16.5C 117.816,15.8148 126.149,15.4815 134.5,15.5 Z"/></g>
<g><path style="opacity:1" fill="#acb7dc" d="M 107.5,16.5 C 105.485,17.9238 103.152,18.5905 100.5,18.5C 102.515,17.0762 104.848,16.4095 107.5,16.5 Z"/></g>
<g><path style="opacity:1" fill="#b0b9dd" d="M 96.5,19.5 C 93.855,21.3104 90.855,22.3104 87.5,22.5C 90.0836,20.5275 93.0836,19.5275 96.5,19.5 Z"/></g>
<g><path style="opacity:1" fill="#92a2d1" d="M 54.5,156.5 C 53.5025,133.673 53.1692,110.673 53.5,87.5C 57.1667,87.5 60.8333,87.5 64.5,87.5C 64.5,110.833 64.5,134.167 64.5,157.5C 60.9581,157.813 57.6248,157.479 54.5,156.5 Z"/></g>
<g><path style="opacity:1" fill="#13369c" d="M 55.5,88.5 C 58.1667,88.5 60.8333,88.5 63.5,88.5C 63.5,110.833 63.5,133.167 63.5,155.5C 60.8333,155.5 58.1667,155.5 55.5,155.5C 55.5,133.167 55.5,110.833 55.5,88.5 Z"/></g>
<g><path style="opacity:1" fill="#2344a2" d="M 55.5,88.5 C 55.5,110.833 55.5,133.167 55.5,155.5C 58.1667,155.5 60.8333,155.5 63.5,155.5C 60.7131,156.477 57.7131,156.81 54.5,156.5C 54.1692,133.661 54.5025,110.994 55.5,88.5 Z"/></g>
<g><path style="opacity:1" fill="#7287c3" d="M 75.5,89.5 C 74.503,108.326 74.1697,127.326 74.5,146.5C 76.8333,146.5 79.1667,146.5 81.5,146.5C 81.5,146.833 81.5,147.167 81.5,147.5C 78.8333,147.5 76.1667,147.5 73.5,147.5C 73.167,127.822 73.5004,108.155 74.5,88.5C 75.1067,88.6236 75.44,88.9569 75.5,89.5 Z"/></g>
<g><path style="opacity:1" fill="#223fa0" d="M 179.5,122.5 C 177.618,123.221 177.285,124.221 178.5,125.5C 187.46,135.63 196.627,145.63 206,155.5C 206.688,156.332 206.521,156.998 205.5,157.5C 204.354,158.145 203.354,158.978 202.5,160C 201.5,160.667 200.5,160.667 199.5,160C 194.667,154.5 189.833,149 185,143.5C 180.955,139.119 176.622,135.119 172,131.5C 162.537,140.631 153.37,150.131 144.5,160C 138.727,159.573 137.56,157.073 141,152.5C 149.513,143.321 158.013,134.155 166.5,125C 157.167,114.333 147.833,103.667 138.5,93C 140.061,90.7329 142.061,89.3995 144.5,89C 153.678,99.011 163.012,108.844 172.5,118.5C 181.988,108.844 191.322,99.011 200.5,89C 203.101,89.4007 205.101,90.9007 206.5,93.5C 197.139,102.86 188.139,112.526 179.5,122.5 Z"/></g>
<g><path style="opacity:1" fill="#1a3a9e" d="M 75.5,89.5 C 91.5,106.5 107.5,123.5 123.5,140.5C 123.56,141.043 123.893,141.376 124.5,141.5C 125.499,129.518 125.832,117.518 125.5,105.5C 127.833,105.5 130.167,105.5 132.5,105.5C 132.83,124.008 132.497,142.341 131.5,160.5C 115.472,143.474 99.4721,126.474 83.5,109.5C 83.44,108.957 83.1067,108.624 82.5,108.5C 81.5009,121.149 81.1676,133.816 81.5,146.5C 79.1667,146.5 76.8333,146.5 74.5,146.5C 74.1697,127.326 74.503,108.326 75.5,89.5 Z"/></g>
<g><path style="opacity:1" fill="#7283c3" d="M 237.5,88.5 C 238.924,90.5145 239.59,92.8478 239.5,95.5C 238.076,93.4855 237.41,91.1522 237.5,88.5 Z"/></g>
<g><path style="opacity:1" fill="#a6b2d9" d="M 231.5,96.5 C 232.924,98.5145 233.59,100.848 233.5,103.5C 232.076,101.485 231.41,99.1522 231.5,96.5 Z"/></g>
<g><path style="opacity:1" fill="#7587c4" d="M 239.5,96.5 C 240.924,98.5145 241.59,100.848 241.5,103.5C 240.076,101.485 239.41,99.1522 239.5,96.5 Z"/></g>
<g><path style="opacity:1" fill="#7d8fc8" d="M 132.5,105.5 C 130.167,105.5 127.833,105.5 125.5,105.5C 125.832,117.518 125.499,129.518 124.5,141.5C 123.893,141.376 123.56,141.043 123.5,140.5C 124.495,128.678 124.828,116.678 124.5,104.5C 127.385,104.194 130.052,104.527 132.5,105.5 Z"/></g>
<g><path style="opacity:1" fill="#98a7d4" d="M 132.5,105.5 C 133.828,124.004 133.828,142.671 132.5,161.5C 131.893,161.376 131.56,161.043 131.5,160.5C 132.497,142.341 132.83,124.008 132.5,105.5 Z"/></g>
<g><path style="opacity:1" fill="#7688c5" d="M 20.5,101.5 C 20.5905,104.152 19.9238,106.485 18.5,108.5C 18.4095,105.848 19.0762,103.515 20.5,101.5 Z"/></g>
<g><path style="opacity:1" fill="#97a6d3" d="M 83.5,109.5 C 82.8333,122.167 82.1667,134.833 81.5,147.5C 81.5,147.167 81.5,146.833 81.5,146.5C 81.1676,133.816 81.5009,121.149 82.5,108.5C 83.1067,108.624 83.44,108.957 83.5,109.5 Z"/></g>
<g><path style="opacity:1" fill="#9aa8d4" d="M 179.5,122.5 C 179.443,123.609 179.11,124.609 178.5,125.5C 177.285,124.221 177.618,123.221 179.5,122.5 Z"/></g>
<g><path style="opacity:1" fill="#8c9bce" d="M 11.5,107.5 C 10.7549,117.148 10.4216,126.815 10.5,136.5C 9.83453,132.849 9.5012,129.015 9.5,125C 9.34079,118.926 10.0075,113.092 11.5,107.5 Z"/></g>
<g><path style="opacity:1" fill="#aeb9dd" d="M 10.5,139.5 C 11.5808,142.627 12.2474,145.96 12.5,149.5C 11.7784,149.082 11.2784,148.416 11,147.5C 10.5026,144.854 10.3359,142.187 10.5,139.5 Z"/></g>
<g><path style="opacity:1" fill="#6778bd" d="M 20.5,152.5 C 22.6098,156.502 23.9431,160.835 24.5,165.5C 22.3902,161.498 21.0569,157.165 20.5,152.5 Z"/></g>
<g><path style="opacity:1" fill="#6a7bbf" d="M 232.5,153.5 C 232.277,157.162 231.277,160.495 229.5,163.5C 229.723,159.838 230.723,156.505 232.5,153.5 Z"/></g>
<g><path style="opacity:1" fill="#a9b4db" d="M 240.5,153.5 C 240.59,156.152 239.924,158.485 238.5,160.5C 238.41,157.848 239.076,155.515 240.5,153.5 Z"/></g>
<g><path style="opacity:1" fill="#c9d0e8" d="M 208.5,211.5 C 206.431,214.573 203.764,216.906 200.5,218.5C 202.569,215.427 205.236,213.094 208.5,211.5 Z"/></g>
<g><path style="opacity:1" fill="#a2aed7" d="M 96.5,232.5 C 99.1522,232.41 101.485,233.076 103.5,234.5C 100.848,234.59 98.5145,233.924 96.5,232.5 Z"/></g>
<g><path style="opacity:1" fill="#bdc5e3" d="M 104.5,234.5 C 109.1,234.28 113.433,234.946 117.5,236.5C 112.9,236.72 108.567,236.054 104.5,234.5 Z"/></g>
<g><path style="opacity:1" fill="#c4cbe6" d="M 169.5,236.5 C 166.691,238.897 163.358,240.23 159.5,240.5C 162.518,238.6 165.851,237.267 169.5,236.5 Z"/></g>
<g><path style="opacity:1" fill="#b1bbde" d="M 154.5,241.5 C 154.082,242.222 153.416,242.722 152.5,243C 147.207,243.977 141.874,244.477 136.5,244.5C 142.335,243.305 148.335,242.305 154.5,241.5 Z"/></g>
</svg>
