<?xml version="1.0" encoding="UTF-8"?>
<!DOCTYPE svg PUBLIC "-//W3C//DTD SVG 1.1//EN" "http://www.w3.org/Graphics/SVG/1.1/DTD/svg11.dtd">
<svg xmlns="http://www.w3.org/2000/svg" version="1.1" width="250px" height="250px" style="shape-rendering:geometricPrecision; text-rendering:geometricPrecision; image-rendering:optimizeQuality; fill-rule:evenodd; clip-rule:evenodd" xmlns:xlink="http://www.w3.org/1999/xlink">
<g><path style="opacity:1" fill="#fdfdfd" d="M -0.5,-0.5 C 82.8333,-0.5 166.167,-0.5 249.5,-0.5C 249.5,82.8333 249.5,166.167 249.5,249.5C 248.833,249.5 248.167,249.5 247.5,249.5C 247.346,247.03 246.346,245.03 244.5,243.5C 243.567,240.63 241.9,238.296 239.5,236.5C 237.883,233.216 235.55,230.549 232.5,228.5C 231.609,227.89 230.609,227.557 229.5,227.5C 227.497,225.018 224.831,224.018 221.5,224.5C 221.768,222.901 221.434,221.568 220.5,220.5C 219.99,217.326 218.323,214.992 215.5,213.5C 215.262,211.596 214.262,210.262 212.5,209.5C 212.5,208.833 212.5,208.167 212.5,207.5C 214.904,202.514 215.738,197.181 215,191.5C 212.677,187.023 210.177,182.69 207.5,178.5C 207.5,178.167 207.5,177.833 207.5,177.5C 209.25,176.341 210.25,174.674 210.5,172.5C 211.525,171.626 212.192,170.459 212.5,169C 211.5,166 210.5,163 209.5,160C 211.279,157.896 212.612,155.562 213.5,153C 213.561,151.289 212.894,149.956 211.5,149C 214.189,146.452 216.523,143.618 218.5,140.5C 223.995,133.877 223.661,127.377 217.5,121C 215.35,119.589 213.016,118.755 210.5,118.5C 210.196,117.85 209.863,117.183 209.5,116.5C 210.77,115.712 211.77,114.712 212.5,113.5C 214.392,112.298 216.226,110.965 218,109.5C 218.195,108.181 218.028,106.847 217.5,105.5C 218.338,105.158 218.672,104.492 218.5,103.5C 220.954,99.9795 220.954,96.3129 218.5,92.5C 218.682,90.4086 218.348,88.4086 217.5,86.5C 216.675,85.6143 215.675,85.281 214.5,85.5C 213.222,83.1774 212.222,80.6774 211.5,78C 218.03,73.0721 220.196,66.5721 218,58.5C 217.392,56.9336 216.558,55.6002 215.5,54.5C 214.611,52.264 213.278,50.264 211.5,48.5C 215.66,42.7665 215.326,37.2665 210.5,32C 207.978,29.9098 205.312,28.0765 202.5,26.5C 195.247,21.868 187.58,17.7013 179.5,14C 175.246,12.6859 170.913,11.8526 166.5,11.5C 156.724,8.10843 148.057,10.1084 140.5,17.5C 134.003,15.0203 127.337,13.0203 120.5,11.5C 114.042,8.92787 107.209,7.59453 100,7.5C 92.4676,8.04064 84.9676,8.87397 77.5,10C 76.2625,10.2321 75.2625,10.7321 74.5,11.5C 67.4704,12.018 61.4704,14.6847 56.5,19.5C 51.3559,21.4674 46.8559,24.4674 43,28.5C 39.4756,34.8876 35.9756,41.221 32.5,47.5C 30.9172,49.6626 29.5839,51.9959 28.5,54.5C 26.8828,56.1209 25.7162,58.1209 25,60.5C 21.4688,70.7606 18.1355,81.0939 15,91.5C 13.8054,95.7514 13.3054,100.085 13.5,104.5C 10.9342,112.822 10.9342,121.155 13.5,129.5C 13.5,130.167 13.5,130.833 13.5,131.5C 14.6905,137.252 15.3572,143.085 15.5,149C 15.0183,154.511 14.8517,160.011 15,165.5C 15.7845,167.286 16.9512,168.786 18.5,170C 16.0038,171.331 14.0038,173.164 12.5,175.5C 8.86032,181.246 7.69365,187.579 9,194.5C 11.3557,198.34 13.8557,202.006 16.5,205.5C 16.5,205.833 16.5,206.167 16.5,206.5C 14.2512,207.08 12.5846,208.413 11.5,210.5C 3.82156,214.251 2.48822,219.584 7.5,226.5C 7.5,226.833 7.5,227.167 7.5,227.5C 7.42082,228.93 7.75415,230.264 8.5,231.5C 5.50232,232.643 2.50232,232.643 -0.5,231.5C -0.5,154.167 -0.5,76.8333 -0.5,-0.5 Z"/></g>
<g><path style="opacity:1" fill="#4c653b" d="M 120.5,11.5 C 113.415,10.101 106.249,9.10097 99,8.5C 90.8449,9.69868 82.6782,10.6987 74.5,11.5C 75.2625,10.7321 76.2625,10.2321 77.5,10C 84.9676,8.87397 92.4676,8.04064 100,7.5C 107.209,7.59453 114.042,8.92787 120.5,11.5 Z"/></g>
<g><path style="opacity:1" fill="#5c8d37" d="M 120.5,11.5 C 123.208,15.0169 126.874,16.6835 131.5,16.5C 131.721,17.7348 132.388,18.7348 133.5,19.5C 131.597,21.5623 129.263,22.8956 126.5,23.5C 126.709,24.086 127.043,24.586 127.5,25C 130.5,25.3333 133.5,25.6667 136.5,26C 139.858,27.8351 140.191,30.0018 137.5,32.5C 139.554,34.2563 141.721,34.5897 144,33.5C 144.495,36.5314 144.329,39.5314 143.5,42.5C 139.403,42.531 136.903,40.531 136,36.5C 135.667,37.1667 135.333,37.8333 135,38.5C 133.738,36.6972 132.071,35.3639 130,34.5C 129.195,36.9011 128.362,36.7344 127.5,34C 122.81,33.4849 118.143,32.6515 113.5,31.5C 112.459,33.9913 111.626,33.9913 111,31.5C 106.601,31.6926 102.101,31.8593 97.5,32C 91.3287,34.109 85.3287,36.2756 79.5,38.5C 79.5743,42.1611 78.5743,42.8277 76.5,40.5C 72.8407,41.765 71.5074,44.0983 72.5,47.5C 75.5688,49.0299 77.9021,48.3632 79.5,45.5C 83.455,45.852 86.7884,44.6854 89.5,42C 91.6982,41.6271 93.8649,41.1271 96,40.5C 100.81,40.4133 105.476,40.7466 110,41.5C 110.689,40.6433 111.522,39.9767 112.5,39.5C 116.573,40.7972 120.573,41.2972 124.5,41C 128.498,42.1528 131.498,44.4861 133.5,48C 137.387,51.5207 141.554,54.6874 146,57.5C 146.953,60.4318 147.453,63.4318 147.5,66.5C 138.208,65.5379 128.874,64.5379 119.5,63.5C 116.505,63.7062 113.838,63.0395 111.5,61.5C 105.964,60.793 100.298,60.1263 94.5,59.5C 93.2997,60.5312 91.9663,61.3645 90.5,62C 86.7125,62.1596 83.0458,62.8263 79.5,64C 80.2598,65.4411 80.9264,66.9411 81.5,68.5C 84.0028,68.8121 86.1694,70.1455 88,72.5C 89.714,71.9226 91.214,70.4226 92.5,68C 92.1667,67.6667 91.8333,67.3333 91.5,67C 97.8772,64.6785 104.544,63.8451 111.5,64.5C 111.67,65.8221 111.337,66.9887 110.5,68C 120.667,70.4506 131,71.784 141.5,72C 144.295,74.6864 146.961,77.5197 149.5,80.5C 149.5,81.1667 149.5,81.8333 149.5,82.5C 149.209,83.6491 148.376,84.3158 147,84.5C 143.178,84.0305 142.678,82.5305 145.5,80C 142.491,77.9268 139.158,76.5934 135.5,76C 128.167,75.3333 120.833,75.3333 113.5,76C 112.244,76.4169 111.577,77.2502 111.5,78.5C 111.369,79.3764 111.702,80.0431 112.5,80.5C 113.736,79.7542 115.07,79.4208 116.5,79.5C 123.093,80.0772 129.76,80.9105 136.5,82C 124.157,82.3813 111.824,82.8813 99.5,83.5C 99.4729,85.1993 98.8062,86.5326 97.5,87.5C 97.1667,87.5 96.8333,87.5 96.5,87.5C 94.1432,87.3367 91.8098,87.5034 89.5,88C 88.4519,89.7562 88.4519,91.5896 89.5,93.5C 83.3181,102.422 82.4848,111.422 87,120.5C 90.3873,122.318 92.3873,121.318 93,117.5C 94.2419,116.128 95.7419,115.128 97.5,114.5C 99.0009,115.752 100.668,116.752 102.5,117.5C 103.967,116.305 105.467,116.305 107,117.5C 108.225,117.138 109.391,116.638 110.5,116C 110.833,115 111.167,114 111.5,113C 115.154,111.999 118.154,112.999 120.5,116C 120.167,116.333 119.833,116.667 119.5,117C 122.471,117.794 125.471,118.461 128.5,119C 128.277,122.05 127.443,125.217 126,128.5C 124.095,129.158 122.595,130.325 121.5,132C 124.101,132.92 126.768,133.587 129.5,134C 130.76,136.301 132.093,138.468 133.5,140.5C 136.614,143.565 140.28,145.899 144.5,147.5C 148.224,150.695 152.557,152.862 157.5,154C 163.833,154.667 170.167,154.667 176.5,154C 177.416,153.722 178.082,153.222 178.5,152.5C 184.101,148.865 189.101,144.532 193.5,139.5C 195.097,134.552 194.431,129.886 191.5,125.5C 191.954,121.564 194.288,119.397 198.5,119C 201.627,118.608 204.627,117.775 207.5,116.5C 208.141,117.993 209.141,118.993 210.5,119.5C 219.064,122.297 222.064,127.963 219.5,136.5C 217.983,136.511 216.816,137.177 216,138.5C 215.088,140.659 214.255,142.825 213.5,145C 212.207,145.49 210.873,145.657 209.5,145.5C 210.192,148.897 210.192,152.23 209.5,155.5C 206.217,158.482 202.551,160.982 198.5,163C 201.521,162.582 204.355,161.415 207,159.5C 209.862,163.343 211.029,167.676 210.5,172.5C 210.25,174.674 209.25,176.341 207.5,177.5C 205.833,177.5 204.167,177.5 202.5,177.5C 202.719,178.675 202.386,179.675 201.5,180.5C 197.56,182.596 193.726,184.93 190,187.5C 182.22,189.589 174.387,191.422 166.5,193C 179.945,192.296 192.778,189.129 205,183.5C 206.895,185.53 209.062,187.196 211.5,188.5C 212.222,188.918 212.722,189.584 213,190.5C 213.751,195.572 213.418,200.572 212,205.5C 210.698,206.085 209.531,206.751 208.5,207.5C 208.167,207.5 207.833,207.5 207.5,207.5C 199.258,209.427 190.925,210.927 182.5,212C 180.485,212.424 178.651,213.258 177,214.5C 169.975,210.765 162.809,210.598 155.5,214C 157.125,214.853 157.458,215.853 156.5,217C 150.186,217.847 143.853,218.513 137.5,219C 136.944,219.383 136.611,219.883 136.5,220.5C 117.488,220.833 98.4883,220.5 79.5,219.5C 70.0352,218.663 60.7019,217.663 51.5,216.5C 49.9582,215.699 48.2915,215.366 46.5,215.5C 40.3338,212.997 34.0004,210.664 27.5,208.5C 27.5858,207.504 27.2524,206.671 26.5,206C 23.624,205.562 20.9573,204.562 18.5,203C 17.3595,202.259 17.3595,201.425 18.5,200.5C 17.3112,199.571 15.9778,199.238 14.5,199.5C 13.1938,195.609 12.1938,191.609 11.5,187.5C 12.2739,183.535 12.6073,179.535 12.5,175.5C 14.7991,174.222 17.1324,172.889 19.5,171.5C 23.6597,173.412 27.6597,175.579 31.5,178C 32.5,178.667 33.5,178.667 34.5,178C 29.9789,175.332 25.3122,172.832 20.5,170.5C 19.0798,168.156 17.7465,165.822 16.5,163.5C 19.3444,152.426 18.3444,141.759 13.5,131.5C 13.5,130.833 13.5,130.167 13.5,129.5C 13.5,121.167 13.5,112.833 13.5,104.5C 17.2771,87.5733 22.2771,70.9066 28.5,54.5C 29.5839,51.9959 30.9172,49.6626 32.5,47.5C 33.7206,46.9717 34.8873,46.305 36,45.5C 37.2187,41.9537 39.2187,38.9537 42,36.5C 42.4828,37.448 42.6495,38.448 42.5,39.5C 43.5,39.5 44.5,39.5 45.5,39.5C 45.5456,36.5683 45.0456,33.9016 44,31.5C 45.9605,28.8647 48.4605,27.0314 51.5,26C 52.7412,23.3774 54.4078,21.2107 56.5,19.5C 59.2776,19.9783 61.2776,18.9783 62.5,16.5C 66.5992,14.775 70.5992,13.1083 74.5,11.5C 82.6782,10.6987 90.8449,9.69868 99,8.5C 106.249,9.10097 113.415,10.101 120.5,11.5 Z"/></g>
<g><path style="opacity:1" fill="#5b8e36" d="M 205.5,30.5 C 206.5,31.5 207.5,32.5 208.5,33.5C 206.167,33.5 203.833,33.5 201.5,33.5C 201.808,37.0091 203.808,38.6757 207.5,38.5C 207.657,39.8734 207.49,41.2068 207,42.5C 205.396,41.3507 203.73,41.3507 202,42.5C 199.942,41.279 197.776,40.279 195.5,39.5C 188.159,40.795 180.826,40.795 173.5,39.5C 171.878,41.854 170.378,41.854 169,39.5C 165.971,41.029 163.805,43.3623 162.5,46.5C 158.907,46.7423 156.241,48.409 154.5,51.5C 152.422,49.6096 151.089,47.2762 150.5,44.5C 153.506,37.6893 152.673,31.356 148,25.5C 147.667,26.1667 147.333,26.8333 147,27.5C 146.355,26.354 145.522,25.354 144.5,24.5C 141.065,23.6327 137.732,22.4661 134.5,21C 139.98,21.7405 145.146,20.5739 150,17.5C 150.333,18.5 150.667,19.5 151,20.5C 151.318,18.9391 152.151,17.7724 153.5,17C 152.552,16.5172 151.552,16.3505 150.5,16.5C 150.5,15.5 150.5,14.5 150.5,13.5C 154.215,13.6797 157.882,13.3464 161.5,12.5C 162.167,12.6667 162.833,12.8333 163.5,13C 162.5,14 161.5,15 160.5,16C 162.635,16.6347 164.635,16.3014 166.5,15C 169.5,14.3333 172.5,14.3333 175.5,15C 177.884,17.3847 180.55,19.3847 183.5,21C 187.925,21.4173 192.258,22.2506 196.5,23.5C 198.114,27.7976 201.114,30.1309 205.5,30.5 Z"/></g>
<g><path style="opacity:1" fill="#597544" d="M 74.5,11.5 C 70.5992,13.1083 66.5992,14.775 62.5,16.5C 61.2776,18.9783 59.2776,19.9783 56.5,19.5C 61.4704,14.6847 67.4704,12.018 74.5,11.5 Z"/></g>
<g><path style="opacity:1" fill="#5d8540" d="M 166.5,11.5 C 170.913,11.8526 175.246,12.6859 179.5,14C 187.58,17.7013 195.247,21.868 202.5,26.5C 202.062,26.4346 201.728,26.6012 201.5,27C 202.731,28.4048 204.064,29.5714 205.5,30.5C 201.114,30.1309 198.114,27.7976 196.5,23.5C 192.258,22.2506 187.925,21.4173 183.5,21C 180.55,19.3847 177.884,17.3847 175.5,15C 172.5,14.3333 169.5,14.3333 166.5,15C 164.635,16.3014 162.635,16.6347 160.5,16C 161.5,15 162.5,14 163.5,13C 162.833,12.8333 162.167,12.6667 161.5,12.5C 157.882,13.3464 154.215,13.6797 150.5,13.5C 151.263,12.7321 152.263,12.2321 153.5,12C 157.821,11.501 162.154,11.3343 166.5,11.5 Z"/></g>
<g><path style="opacity:1" fill="#577542" d="M 166.5,11.5 C 162.154,11.3343 157.821,11.501 153.5,12C 152.263,12.2321 151.263,12.7321 150.5,13.5C 147.075,15.2958 143.575,16.9625 140,18.5C 137.13,17.9073 134.297,17.2407 131.5,16.5C 126.874,16.6835 123.208,15.0169 120.5,11.5C 127.337,13.0203 134.003,15.0203 140.5,17.5C 148.057,10.1084 156.724,8.10843 166.5,11.5 Z"/></g>
<g><path style="opacity:1" fill="#5b7f41" d="M 56.5,19.5 C 54.4078,21.2107 52.7412,23.3774 51.5,26C 48.4605,27.0314 45.9605,28.8647 44,31.5C 45.0456,33.9016 45.5456,36.5683 45.5,39.5C 44.5,39.5 43.5,39.5 42.5,39.5C 42.6495,38.448 42.4828,37.448 42,36.5C 39.2187,38.9537 37.2187,41.9537 36,45.5C 34.8873,46.305 33.7206,46.9717 32.5,47.5C 35.9756,41.221 39.4756,34.8876 43,28.5C 46.8559,24.4674 51.3559,21.4674 56.5,19.5 Z"/></g>
<g><path style="opacity:1" fill="#5b7744" d="M 202.5,26.5 C 205.312,28.0765 207.978,29.9098 210.5,32C 215.326,37.2665 215.66,42.7665 211.5,48.5C 213.278,50.264 214.611,52.264 215.5,54.5C 213.711,53.1228 211.711,52.1228 209.5,51.5C 209.426,49.5891 208.426,48.4224 206.5,48C 207.793,47.51 209.127,47.3433 210.5,47.5C 210.998,44.9897 211.664,42.4897 212.5,40C 212.566,36.9125 211.232,34.7459 208.5,33.5C 207.5,32.5 206.5,31.5 205.5,30.5C 204.064,29.5714 202.731,28.4048 201.5,27C 201.728,26.6012 202.062,26.4346 202.5,26.5 Z"/></g>
<g><path style="opacity:1" fill="#5c8d36" d="M 174.5,44.5 C 180.167,43.1667 185.833,43.1667 191.5,44.5C 191.414,45.4959 191.748,46.3292 192.5,47C 198.488,47.5384 204.155,49.0384 209.5,51.5C 211.711,52.1228 213.711,53.1228 215.5,54.5C 215.614,57.85 215.947,61.1833 216.5,64.5C 216.276,66.4547 215.609,68.1213 214.5,69.5C 213.18,70.9418 211.514,71.6085 209.5,71.5C 209.827,66.7863 209.493,62.1196 208.5,57.5C 207.513,60.7683 207.18,64.1016 207.5,67.5C 202.762,67.9132 198.262,67.2465 194,65.5C 183.069,68.8231 171.902,69.9898 160.5,69C 152.064,66.9636 151.397,63.4636 158.5,58.5C 159.452,56.9547 159.785,55.288 159.5,53.5C 162.487,53.0022 165.487,52.5022 168.5,52C 169.337,50.9887 169.67,49.8221 169.5,48.5C 171.308,48.5086 172.975,48.0086 174.5,47C 175.774,46.0228 175.774,45.1894 174.5,44.5 Z"/></g>
<g><path style="opacity:1" fill="#5c8a3b" d="M 150.5,13.5 C 150.5,14.5 150.5,15.5 150.5,16.5C 151.552,16.3505 152.552,16.5172 153.5,17C 152.151,17.7724 151.318,18.9391 151,20.5C 150.667,19.5 150.333,18.5 150,17.5C 145.146,20.5739 139.98,21.7405 134.5,21C 137.732,22.4661 141.065,23.6327 144.5,24.5C 145.522,25.354 146.355,26.354 147,27.5C 147.333,26.8333 147.667,26.1667 148,25.5C 152.673,31.356 153.506,37.6893 150.5,44.5C 151.089,47.2762 152.422,49.6096 154.5,51.5C 156.241,48.409 158.907,46.7423 162.5,46.5C 163.805,43.3623 165.971,41.029 169,39.5C 170.378,41.854 171.878,41.854 173.5,39.5C 180.826,40.795 188.159,40.795 195.5,39.5C 197.776,40.279 199.942,41.279 202,42.5C 203.73,41.3507 205.396,41.3507 207,42.5C 207.49,41.2068 207.657,39.8734 207.5,38.5C 203.808,38.6757 201.808,37.0091 201.5,33.5C 203.833,33.5 206.167,33.5 208.5,33.5C 211.232,34.7459 212.566,36.9125 212.5,40C 211.664,42.4897 210.998,44.9897 210.5,47.5C 209.127,47.3433 207.793,47.51 206.5,48C 208.426,48.4224 209.426,49.5891 209.5,51.5C 204.155,49.0384 198.488,47.5384 192.5,47C 191.748,46.3292 191.414,45.4959 191.5,44.5C 195.163,45.1125 198.83,45.2792 202.5,45C 192.623,41.8265 182.623,41.1599 172.5,43C 171.167,43.6667 169.833,44.3333 168.5,45C 170.545,45.4901 172.545,45.3235 174.5,44.5C 175.774,45.1894 175.774,46.0228 174.5,47C 172.975,48.0086 171.308,48.5086 169.5,48.5C 169.67,49.8221 169.337,50.9887 168.5,52C 165.487,52.5022 162.487,53.0022 159.5,53.5C 159.785,55.288 159.452,56.9547 158.5,58.5C 151.397,63.4636 152.064,66.9636 160.5,69C 171.902,69.9898 183.069,68.8231 194,65.5C 198.262,67.2465 202.762,67.9132 207.5,67.5C 207.18,64.1016 207.513,60.7683 208.5,57.5C 209.493,62.1196 209.827,66.7863 209.5,71.5C 211.514,71.6085 213.18,70.9418 214.5,69.5C 214.67,70.8221 214.337,71.9887 213.5,73C 211.527,73.4955 209.527,73.6621 207.5,73.5C 201.914,70.0946 195.747,68.7612 189,69.5C 176.218,70.9977 163.385,71.6644 150.5,71.5C 150.665,68.1501 150.498,64.8168 150,61.5C 149.821,64.5535 149.321,67.5535 148.5,70.5C 143.951,68.848 139.285,68.348 134.5,69C 139.22,69.7863 143.886,70.7863 148.5,72C 149.444,74.7191 149.777,77.5525 149.5,80.5C 146.961,77.5197 144.295,74.6864 141.5,72C 131,71.784 120.667,70.4506 110.5,68C 111.337,66.9887 111.67,65.8221 111.5,64.5C 104.544,63.8451 97.8772,64.6785 91.5,67C 91.8333,67.3333 92.1667,67.6667 92.5,68C 91.214,70.4226 89.714,71.9226 88,72.5C 86.1694,70.1455 84.0028,68.8121 81.5,68.5C 80.9264,66.9411 80.2598,65.4411 79.5,64C 83.0458,62.8263 86.7125,62.1596 90.5,62C 91.9663,61.3645 93.2997,60.5312 94.5,59.5C 100.298,60.1263 105.964,60.793 111.5,61.5C 102.509,60.6437 93.8423,61.8104 85.5,65C 91.1029,64.2231 96.7696,63.3898 102.5,62.5C 112.261,64.0235 121.928,66.0235 131.5,68.5C 132.167,68.3333 132.833,68.1667 133.5,68C 128.541,67.0541 123.875,65.5541 119.5,63.5C 128.874,64.5379 138.208,65.5379 147.5,66.5C 147.453,63.4318 146.953,60.4318 146,57.5C 141.554,54.6874 137.387,51.5207 133.5,48C 131.498,44.4861 128.498,42.1528 124.5,41C 120.573,41.2972 116.573,40.7972 112.5,39.5C 111.522,39.9767 110.689,40.6433 110,41.5C 105.476,40.7466 100.81,40.4133 96,40.5C 93.8649,41.1271 91.6982,41.6271 89.5,42C 86.7884,44.6854 83.455,45.852 79.5,45.5C 77.9021,48.3632 75.5688,49.0299 72.5,47.5C 71.5074,44.0983 72.8407,41.765 76.5,40.5C 78.5743,42.8277 79.5743,42.1611 79.5,38.5C 85.3287,36.2756 91.3287,34.109 97.5,32C 102.101,31.8593 106.601,31.6926 111,31.5C 111.626,33.9913 112.459,33.9913 113.5,31.5C 118.143,32.6515 122.81,33.4849 127.5,34C 128.362,36.7344 129.195,36.9011 130,34.5C 132.071,35.3639 133.738,36.6972 135,38.5C 135.333,37.8333 135.667,37.1667 136,36.5C 136.903,40.531 139.403,42.531 143.5,42.5C 144.329,39.5314 144.495,36.5314 144,33.5C 141.721,34.5897 139.554,34.2563 137.5,32.5C 140.191,30.0018 139.858,27.8351 136.5,26C 133.5,25.6667 130.5,25.3333 127.5,25C 127.043,24.586 126.709,24.086 126.5,23.5C 129.263,22.8956 131.597,21.5623 133.5,19.5C 132.388,18.7348 131.721,17.7348 131.5,16.5C 134.297,17.2407 137.13,17.9073 140,18.5C 143.575,16.9625 147.075,15.2958 150.5,13.5 Z"/></g>
<g><path style="opacity:1" fill="#38611f" d="M 191.5,44.5 C 185.833,43.1667 180.167,43.1667 174.5,44.5C 172.545,45.3235 170.545,45.4901 168.5,45C 169.833,44.3333 171.167,43.6667 172.5,43C 182.623,41.1599 192.623,41.8265 202.5,45C 198.83,45.2792 195.163,45.1125 191.5,44.5 Z"/></g>
<g><path style="opacity:1" fill="#315d13" d="M 79.5,45.5 C 77.1582,45.2252 77.1582,44.3919 79.5,43C 96.1332,33.4544 113.133,32.4544 130.5,40C 115.795,35.0433 101.129,35.3766 86.5,41C 83.7613,42.0259 81.428,43.5259 79.5,45.5 Z"/></g>
<g><path style="opacity:1" fill="#2e5a14" d="M 144.5,29.5 C 148.686,38.2303 150.852,47.5637 151,57.5C 152.264,57.6399 153.431,57.6399 154.5,57.5C 153.564,58.9744 152.23,59.9744 150.5,60.5C 149.928,58.0829 148.928,55.9162 147.5,54C 148.167,53.6667 148.833,53.3333 149.5,53C 148.286,45.0971 146.619,37.2638 144.5,29.5 Z"/></g>
<g><path style="opacity:1" fill="#4e6e3a" d="M 215.5,54.5 C 216.558,55.6002 217.392,56.9336 218,58.5C 220.196,66.5721 218.03,73.0721 211.5,78C 212.222,80.6774 213.222,83.1774 214.5,85.5C 209.305,85.8205 204.305,85.4872 199.5,84.5C 203.167,84.5 206.833,84.5 210.5,84.5C 211.193,80.2473 210.193,76.5807 207.5,73.5C 209.527,73.6621 211.527,73.4955 213.5,73C 214.337,71.9887 214.67,70.8221 214.5,69.5C 215.609,68.1213 216.276,66.4547 216.5,64.5C 215.947,61.1833 215.614,57.85 215.5,54.5 Z"/></g>
<g><path style="opacity:1" fill="#325c16" d="M 111.5,61.5 C 113.838,63.0395 116.505,63.7062 119.5,63.5C 123.875,65.5541 128.541,67.0541 133.5,68C 132.833,68.1667 132.167,68.3333 131.5,68.5C 121.928,66.0235 112.261,64.0235 102.5,62.5C 96.7696,63.3898 91.1029,64.2231 85.5,65C 93.8423,61.8104 102.509,60.6437 111.5,61.5 Z"/></g>
<g><path style="opacity:1" fill="#2b5713" d="M 207.5,73.5 C 201.285,71.8577 194.952,70.8577 188.5,70.5C 175.893,72.1511 163.226,72.8177 150.5,72.5C 149.448,78.2572 151.115,82.9238 155.5,86.5C 156.167,87.5 156.833,88.5 157.5,89.5C 156.391,89.4431 155.391,89.1098 154.5,88.5C 153.299,86.0905 151.633,84.0905 149.5,82.5C 149.5,81.8333 149.5,81.1667 149.5,80.5C 149.777,77.5525 149.444,74.7191 148.5,72C 143.886,70.7863 139.22,69.7863 134.5,69C 139.285,68.348 143.951,68.848 148.5,70.5C 149.321,67.5535 149.821,64.5535 150,61.5C 150.498,64.8168 150.665,68.1501 150.5,71.5C 163.385,71.6644 176.218,70.9977 189,69.5C 195.747,68.7612 201.914,70.0946 207.5,73.5 Z"/></g>
<g><path style="opacity:1" fill="#5c8d38" d="M 207.5,73.5 C 210.193,76.5807 211.193,80.2473 210.5,84.5C 206.833,84.5 203.167,84.5 199.5,84.5C 194.113,84.4054 188.78,84.9054 183.5,86C 175.482,88.1616 167.482,89.995 159.5,91.5C 159.297,89.6096 159.963,88.1096 161.5,87C 159.527,86.5045 157.527,86.3379 155.5,86.5C 151.115,82.9238 149.448,78.2572 150.5,72.5C 163.226,72.8177 175.893,72.1511 188.5,70.5C 194.952,70.8577 201.285,71.8577 207.5,73.5 Z"/></g>
<g><path style="opacity:1" fill="#5b7346" d="M 28.5,54.5 C 22.2771,70.9066 17.2771,87.5733 13.5,104.5C 13.3054,100.085 13.8054,95.7514 15,91.5C 18.1355,81.0939 21.4688,70.7606 25,60.5C 25.7162,58.1209 26.8828,56.1209 28.5,54.5 Z"/></g>
<g><path style="opacity:1" fill="#2c5611" d="M 116.5,79.5 C 115.07,79.4208 113.736,79.7542 112.5,80.5C 111.702,80.0431 111.369,79.3764 111.5,78.5C 119.477,77.5101 127.477,77.3435 135.5,78C 138.121,78.9056 137.954,79.4056 135,79.5C 128.779,78.2262 122.613,78.2262 116.5,79.5 Z"/></g>
<g><path style="opacity:1" fill="#608a3f" d="M 149.5,82.5 C 151.633,84.0905 153.299,86.0905 154.5,88.5C 140.002,83.789 125.336,82.4556 110.5,84.5C 110.5,85.1667 110.167,85.5 109.5,85.5C 109.44,84.9569 109.107,84.6236 108.5,84.5C 104.952,85.9702 101.285,86.9702 97.5,87.5C 98.8062,86.5326 99.4729,85.1993 99.5,83.5C 111.824,82.8813 124.157,82.3813 136.5,82C 129.76,80.9105 123.093,80.0772 116.5,79.5C 122.613,78.2262 128.779,78.2262 135,79.5C 137.954,79.4056 138.121,78.9056 135.5,78C 127.477,77.3435 119.477,77.5101 111.5,78.5C 111.577,77.2502 112.244,76.4169 113.5,76C 120.833,75.3333 128.167,75.3333 135.5,76C 139.158,76.5934 142.491,77.9268 145.5,80C 142.678,82.5305 143.178,84.0305 147,84.5C 148.376,84.3158 149.209,83.6491 149.5,82.5 Z"/></g>
<g><path style="opacity:1" fill="#485d3a" d="M 110.5,84.5 C 125.336,82.4556 140.002,83.789 154.5,88.5C 155.391,89.1098 156.391,89.4431 157.5,89.5C 156.777,93.4515 158.11,94.7848 161.5,93.5C 164.063,93.737 164.063,94.237 161.5,95C 165.486,95.4988 169.486,95.6655 173.5,95.5C 169.084,97.7275 164.417,98.0608 159.5,96.5C 158.71,95.5987 157.71,94.9321 156.5,94.5C 156.67,93.1779 156.337,92.0113 155.5,91C 153.283,89.7246 150.949,88.7246 148.5,88C 135.963,85.4104 123.297,84.2438 110.5,84.5 Z"/></g>
<g><path style="opacity:1" fill="#0a0a0a" d="M 147.5,106.5 C 146.662,106.842 146.328,107.508 146.5,108.5C 140.158,108.666 133.825,108.5 127.5,108C 124.278,107.801 121.278,106.968 118.5,105.5C 118.5,105.167 118.5,104.833 118.5,104.5C 117.618,100.091 118.952,96.5907 122.5,94C 128.612,91.586 134.946,90.9193 141.5,92C 146.947,95.269 148.947,100.102 147.5,106.5 Z"/></g>
<g><path style="opacity:1" fill="#5a8539" d="M 199.5,84.5 C 204.305,85.4872 209.305,85.8205 214.5,85.5C 215.968,86.7791 216.635,88.4458 216.5,90.5C 205.826,89.121 195.159,89.2877 184.5,91C 182.509,91.3736 180.842,92.207 179.5,93.5C 177.898,95.0739 175.898,95.7406 173.5,95.5C 169.486,95.6655 165.486,95.4988 161.5,95C 164.063,94.237 164.063,93.737 161.5,93.5C 158.11,94.7848 156.777,93.4515 157.5,89.5C 156.833,88.5 156.167,87.5 155.5,86.5C 157.527,86.3379 159.527,86.5045 161.5,87C 159.963,88.1096 159.297,89.6096 159.5,91.5C 167.482,89.995 175.482,88.1616 183.5,86C 188.78,84.9054 194.113,84.4054 199.5,84.5 Z"/></g>
<g><path style="opacity:1" fill="#536b44" d="M 214.5,85.5 C 215.675,85.281 216.675,85.6143 217.5,86.5C 218.348,88.4086 218.682,90.4086 218.5,92.5C 217.833,92.5 217.167,92.5 216.5,92.5C 204.141,91.0841 191.808,91.4174 179.5,93.5C 180.842,92.207 182.509,91.3736 184.5,91C 195.159,89.2877 205.826,89.121 216.5,90.5C 216.635,88.4458 215.968,86.7791 214.5,85.5 Z"/></g>
<g><path style="opacity:1" fill="#f6f8f6" d="M 110.5,84.5 C 123.297,84.2438 135.963,85.4104 148.5,88C 150.949,88.7246 153.283,89.7246 155.5,91C 156.337,92.0113 156.67,93.1779 156.5,94.5C 156.427,97.6823 155.927,100.682 155,103.5C 156.419,101.007 157.919,98.6737 159.5,96.5C 164.417,98.0608 169.084,97.7275 173.5,95.5C 175.898,95.7406 177.898,95.0739 179.5,93.5C 191.808,91.4174 204.141,91.0841 216.5,92.5C 219.263,95.7884 219.93,99.4551 218.5,103.5C 218.672,104.492 218.338,105.158 217.5,105.5C 215.079,107.238 212.412,108.571 209.5,109.5C 210.946,97.778 205.946,93.278 194.5,96C 188.904,100.619 185.238,106.453 183.5,113.5C 175.152,114.077 167.152,112.744 159.5,109.5C 157.093,108.206 154.926,106.539 153,104.5C 151.363,106.606 149.53,107.272 147.5,106.5C 148.947,100.102 146.947,95.269 141.5,92C 134.946,90.9193 128.612,91.586 122.5,94C 118.952,96.5907 117.618,100.091 118.5,104.5C 109.5,101.673 101.833,96.8394 95.5,90C 100.225,88.5593 104.892,87.0593 109.5,85.5C 110.167,85.5 110.5,85.1667 110.5,84.5 Z"/></g>
<g><path style="opacity:1" fill="#e4e3e5" d="M 126.5,95.5 C 128.912,95.244 130.579,96.244 131.5,98.5C 128.516,99.8384 126.849,98.8384 126.5,95.5 Z"/></g>
<g><path style="opacity:1" fill="#0c0d0c" d="M 209.5,109.5 C 208.833,110.167 208.167,110.833 207.5,111.5C 201.855,112.328 196.188,112.994 190.5,113.5C 188.167,113.5 185.833,113.5 183.5,113.5C 185.238,106.453 188.904,100.619 194.5,96C 205.946,93.278 210.946,97.778 209.5,109.5 Z"/></g>
<g><path style="opacity:1" fill="#929291" d="M 216.5,92.5 C 217.167,92.5 217.833,92.5 218.5,92.5C 220.954,96.3129 220.954,99.9795 218.5,103.5C 219.93,99.4551 219.263,95.7884 216.5,92.5 Z"/></g>
<g><path style="opacity:1" fill="#4c673a" d="M 109.5,85.5 C 104.892,87.0593 100.225,88.5593 95.5,90C 101.833,96.8394 109.5,101.673 118.5,104.5C 118.5,104.833 118.5,105.167 118.5,105.5C 117.833,105.5 117.167,105.5 116.5,105.5C 114.95,104.559 113.284,103.893 111.5,103.5C 108.335,101.753 105.001,100.253 101.5,99C 99.4835,93.9822 95.8168,90.8156 90.5,89.5C 92.6309,88.8313 94.6309,88.1646 96.5,87.5C 96.8333,87.5 97.1667,87.5 97.5,87.5C 101.285,86.9702 104.952,85.9702 108.5,84.5C 109.107,84.6236 109.44,84.9569 109.5,85.5 Z"/></g>
<g><path style="opacity:1" fill="#ebebeb" d="M 195.5,98.5 C 197.337,98.6395 197.67,99.3061 196.5,100.5C 195.702,100.043 195.369,99.3764 195.5,98.5 Z"/></g>
<g><path style="opacity:1" fill="#959696" d="M 156.5,94.5 C 157.71,94.9321 158.71,95.5987 159.5,96.5C 157.919,98.6737 156.419,101.007 155,103.5C 155.927,100.682 156.427,97.6823 156.5,94.5 Z"/></g>
<g><path style="opacity:1" fill="#5c8d37" d="M 111.5,103.5 C 113.284,103.893 114.95,104.559 116.5,105.5C 117.806,106.467 118.473,107.801 118.5,109.5C 113.106,109.733 107.773,110.399 102.5,111.5C 99.4469,112.454 96.6136,112.454 94,111.5C 93.6633,108.139 93.1633,104.806 92.5,101.5C 94.8472,99.4677 96.1805,97.1343 96.5,94.5C 97.9347,95.8237 98.9347,97.4904 99.5,99.5C 102.243,99.928 104.576,101.095 106.5,103C 108.134,103.494 109.801,103.66 111.5,103.5 Z"/></g>
<g><path style="opacity:1" fill="#d5d3d2" d="M 139.5,101.5 C 140.5,101.5 141.5,101.5 142.5,101.5C 142.5,102.5 142.5,103.5 142.5,104.5C 141.5,104.5 140.5,104.5 139.5,104.5C 139.5,103.5 139.5,102.5 139.5,101.5 Z"/></g>
<g><path style="opacity:1" fill="#dad6d8" d="M 127.5,103.5 C 128.675,103.281 129.675,103.614 130.5,104.5C 128.948,105.798 127.948,105.465 127.5,103.5 Z"/></g>
<g><path style="opacity:1" fill="#f1f1f1" d="M 202.5,105.5 C 203.5,105.5 204.5,105.5 205.5,105.5C 205.5,106.5 205.5,107.5 205.5,108.5C 202.433,108.879 201.433,107.879 202.5,105.5 Z"/></g>
<g><path style="opacity:1" fill="#4c7231" d="M 116.5,105.5 C 117.167,105.5 117.833,105.5 118.5,105.5C 121.278,106.968 124.278,107.801 127.5,108C 133.825,108.5 140.158,108.666 146.5,108.5C 138.657,109.167 130.657,109.833 122.5,110.5C 124.113,111.427 125.779,112.261 127.5,113C 127,113.167 126.5,113.333 126,113.5C 122.45,112.196 118.783,111.529 115,111.5C 110.656,112.36 106.489,112.36 102.5,111.5C 107.773,110.399 113.106,109.733 118.5,109.5C 118.473,107.801 117.806,106.467 116.5,105.5 Z"/></g>
<g><path style="opacity:1" fill="#5c7547" d="M 217.5,105.5 C 218.028,106.847 218.195,108.181 218,109.5C 216.226,110.965 214.392,112.298 212.5,113.5C 211.448,111.744 209.781,111.077 207.5,111.5C 208.167,110.833 208.833,110.167 209.5,109.5C 212.412,108.571 215.079,107.238 217.5,105.5 Z"/></g>
<g><path style="opacity:1" fill="#385d1f" d="M 159.5,109.5 C 158.07,109.579 156.736,109.246 155.5,108.5C 149.959,114.053 143.292,116.22 135.5,115C 140.727,114.409 145.727,113.076 150.5,111C 151.167,110.333 151.833,109.667 152.5,109C 150.527,108.505 148.527,108.338 146.5,108.5C 146.328,107.508 146.662,106.842 147.5,106.5C 149.53,107.272 151.363,106.606 153,104.5C 154.926,106.539 157.093,108.206 159.5,109.5 Z"/></g>
<g><path style="opacity:1" fill="#405d2b" d="M 159.5,109.5 C 167.152,112.744 175.152,114.077 183.5,113.5C 185.833,113.5 188.167,113.5 190.5,113.5C 183.679,114.655 176.679,114.821 169.5,114C 165.771,113.156 162.437,111.656 159.5,109.5 Z"/></g>
<g><path style="opacity:1" fill="#567245" d="M 13.5,104.5 C 13.5,112.833 13.5,121.167 13.5,129.5C 10.9342,121.155 10.9342,112.822 13.5,104.5 Z"/></g>
<g><path style="opacity:1" fill="#5c873a" d="M 96.5,87.5 C 94.6309,88.1646 92.6309,88.8313 90.5,89.5C 95.8168,90.8156 99.4835,93.9822 101.5,99C 105.001,100.253 108.335,101.753 111.5,103.5C 109.801,103.66 108.134,103.494 106.5,103C 104.576,101.095 102.243,99.928 99.5,99.5C 98.9347,97.4904 97.9347,95.8237 96.5,94.5C 96.1805,97.1343 94.8472,99.4677 92.5,101.5C 93.1633,104.806 93.6633,108.139 94,111.5C 96.6136,112.454 99.4469,112.454 102.5,111.5C 106.489,112.36 110.656,112.36 115,111.5C 118.783,111.529 122.45,112.196 126,113.5C 126.5,113.333 127,113.167 127.5,113C 125.779,112.261 124.113,111.427 122.5,110.5C 130.657,109.833 138.657,109.167 146.5,108.5C 148.527,108.338 150.527,108.505 152.5,109C 151.833,109.667 151.167,110.333 150.5,111C 145.727,113.076 140.727,114.409 135.5,115C 143.292,116.22 149.959,114.053 155.5,108.5C 156.736,109.246 158.07,109.579 159.5,109.5C 162.437,111.656 165.771,113.156 169.5,114C 176.679,114.821 183.679,114.655 190.5,113.5C 196.188,112.994 201.855,112.328 207.5,111.5C 209.781,111.077 211.448,111.744 212.5,113.5C 205.717,115.911 198.717,117.578 191.5,118.5C 189.506,117.511 187.506,116.511 185.5,115.5C 178.492,115.666 171.492,115.5 164.5,115C 161.958,113.23 159.291,111.73 156.5,110.5C 155.558,110.608 154.725,110.941 154,111.5C 153.505,113.473 153.338,115.473 153.5,117.5C 147.742,118.552 142.076,119.885 136.5,121.5C 136.227,123.451 136.893,124.951 138.5,126C 143.65,126.088 148.65,126.921 153.5,128.5C 157.564,127.92 161.564,127.087 165.5,126C 164.833,125.667 164.167,125.333 163.5,125C 164.191,123.933 164.691,122.766 165,121.5C 165.483,122.448 165.649,123.448 165.5,124.5C 174.692,124.88 175.359,123.38 167.5,120C 170.537,116.902 173.871,116.736 177.5,119.5C 179.972,118.008 182.639,117.342 185.5,117.5C 187.606,118.783 189.94,119.616 192.5,120C 190.893,121.049 190.227,122.549 190.5,124.5C 182.969,122.573 175.969,123.573 169.5,127.5C 165.246,128.582 160.913,129.249 156.5,129.5C 152.169,129.071 147.835,128.738 143.5,128.5C 139.582,127.689 135.582,126.689 131.5,125.5C 132.326,124.549 132.492,123.549 132,122.5C 130.88,124.03 130.046,125.697 129.5,127.5C 128.588,128.738 128.421,130.072 129,131.5C 130.376,132.705 131.542,134.038 132.5,135.5C 132.263,136.791 132.596,137.791 133.5,138.5C 133.5,139.167 133.5,139.833 133.5,140.5C 132.093,138.468 130.76,136.301 129.5,134C 126.768,133.587 124.101,132.92 121.5,132C 122.595,130.325 124.095,129.158 126,128.5C 127.443,125.217 128.277,122.05 128.5,119C 125.471,118.461 122.471,117.794 119.5,117C 119.833,116.667 120.167,116.333 120.5,116C 118.154,112.999 115.154,111.999 111.5,113C 111.167,114 110.833,115 110.5,116C 109.391,116.638 108.225,117.138 107,117.5C 105.467,116.305 103.967,116.305 102.5,117.5C 100.668,116.752 99.0009,115.752 97.5,114.5C 95.7419,115.128 94.2419,116.128 93,117.5C 92.3873,121.318 90.3873,122.318 87,120.5C 82.4848,111.422 83.3181,102.422 89.5,93.5C 88.4519,91.5896 88.4519,89.7562 89.5,88C 91.8098,87.5034 94.1432,87.3367 96.5,87.5 Z"/></g>
<g><path style="opacity:1" fill="#84a66a" d="M 87.5,107.5 C 90.026,107.687 91.6927,109.02 92.5,111.5C 92,113.5 91.5,115.5 91,117.5C 87.882,114.93 86.7153,111.596 87.5,107.5 Z"/></g>
<g><path style="opacity:1" fill="#5b8e37" d="M 185.5,115.5 C 185.5,116.167 185.5,116.833 185.5,117.5C 182.639,117.342 179.972,118.008 177.5,119.5C 173.871,116.736 170.537,116.902 167.5,120C 175.359,123.38 174.692,124.88 165.5,124.5C 165.649,123.448 165.483,122.448 165,121.5C 164.691,122.766 164.191,123.933 163.5,125C 164.167,125.333 164.833,125.667 165.5,126C 161.564,127.087 157.564,127.92 153.5,128.5C 148.65,126.921 143.65,126.088 138.5,126C 136.893,124.951 136.227,123.451 136.5,121.5C 142.076,119.885 147.742,118.552 153.5,117.5C 153.338,115.473 153.505,113.473 154,111.5C 154.725,110.941 155.558,110.608 156.5,110.5C 159.291,111.73 161.958,113.23 164.5,115C 171.492,115.5 178.492,115.666 185.5,115.5 Z"/></g>
<g><path style="opacity:1" fill="#3f6725" d="M 212.5,113.5 C 211.77,114.712 210.77,115.712 209.5,116.5C 209.863,117.183 210.196,117.85 210.5,118.5C 210.5,118.833 210.5,119.167 210.5,119.5C 209.141,118.993 208.141,117.993 207.5,116.5C 204.627,117.775 201.627,118.608 198.5,119C 194.288,119.397 191.954,121.564 191.5,125.5C 190.833,125.5 190.5,125.167 190.5,124.5C 190.227,122.549 190.893,121.049 192.5,120C 189.94,119.616 187.606,118.783 185.5,117.5C 185.5,116.833 185.5,116.167 185.5,115.5C 187.506,116.511 189.506,117.511 191.5,118.5C 198.717,117.578 205.717,115.911 212.5,113.5 Z"/></g>
<g><path style="opacity:1" fill="#586e48" d="M 210.5,119.5 C 210.5,119.167 210.5,118.833 210.5,118.5C 213.016,118.755 215.35,119.589 217.5,121C 223.661,127.377 223.995,133.877 218.5,140.5C 218.433,139.041 218.766,137.708 219.5,136.5C 222.064,127.963 219.064,122.297 210.5,119.5 Z"/></g>
<g><path style="opacity:1" fill="#325f14" d="M 77.5,119.5 C 78.0431,119.56 78.3764,119.893 78.5,120.5C 76.9956,124.182 75.9956,128.015 75.5,132C 76.4785,135.901 77.3119,139.734 78,143.5C 73.6392,135.571 73.4726,127.571 77.5,119.5 Z"/></g>
<g><path style="opacity:1" fill="#635333" d="M 190.5,124.5 C 190.5,125.167 190.833,125.5 191.5,125.5C 194.431,129.886 195.097,134.552 193.5,139.5C 194.077,134.919 193.077,130.752 190.5,127C 188.634,126.015 186.634,125.515 184.5,125.5C 179.561,126.652 174.561,127.319 169.5,127.5C 175.969,123.573 182.969,122.573 190.5,124.5 Z"/></g>
<g><path style="opacity:1" fill="#4a421d" d="M 143.5,128.5 C 138.807,128.46 134.141,128.127 129.5,127.5C 130.046,125.697 130.88,124.03 132,122.5C 132.492,123.549 132.326,124.549 131.5,125.5C 135.582,126.689 139.582,127.689 143.5,128.5 Z"/></g>
<g><path style="opacity:1" fill="#633625" d="M 133.5,138.5 C 132.596,137.791 132.263,136.791 132.5,135.5C 152.167,139.81 171.5,138.977 190.5,133C 184.898,136.201 178.898,138.201 172.5,139C 162.833,139.667 153.167,139.667 143.5,139C 140.15,138.75 136.983,137.917 134,136.5C 133.536,137.094 133.369,137.761 133.5,138.5 Z"/></g>
<g><path style="opacity:1" fill="#9e6852" d="M 193.5,139.5 C 189.101,144.532 184.101,148.865 178.5,152.5C 171.87,153.546 165.203,153.713 158.5,153C 153.66,151.406 148.993,149.572 144.5,147.5C 140.28,145.899 136.614,143.565 133.5,140.5C 133.5,139.833 133.5,139.167 133.5,138.5C 133.369,137.761 133.536,137.094 134,136.5C 136.983,137.917 140.15,138.75 143.5,139C 153.167,139.667 162.833,139.667 172.5,139C 178.898,138.201 184.898,136.201 190.5,133C 171.5,138.977 152.167,139.81 132.5,135.5C 131.542,134.038 130.376,132.705 129,131.5C 128.421,130.072 128.588,128.738 129.5,127.5C 134.141,128.127 138.807,128.46 143.5,128.5C 150.939,130.726 158.606,131.06 166.5,129.5C 168.03,129.36 169.03,128.693 169.5,127.5C 174.561,127.319 179.561,126.652 184.5,125.5C 186.634,125.515 188.634,126.015 190.5,127C 193.077,130.752 194.077,134.919 193.5,139.5 Z"/></g>
<g><path style="opacity:1" fill="#5a4625" d="M 169.5,127.5 C 169.03,128.693 168.03,129.36 166.5,129.5C 158.606,131.06 150.939,130.726 143.5,128.5C 147.835,128.738 152.169,129.071 156.5,129.5C 160.913,129.249 165.246,128.582 169.5,127.5 Z"/></g>
<g><path style="opacity:1" fill="#53763b" d="M 13.5,131.5 C 18.3444,141.759 19.3444,152.426 16.5,163.5C 17.7465,165.822 19.0798,168.156 20.5,170.5C 25.3122,172.832 29.9789,175.332 34.5,178C 33.5,178.667 32.5,178.667 31.5,178C 27.6597,175.579 23.6597,173.412 19.5,171.5C 17.1324,172.889 14.7991,174.222 12.5,175.5C 14.0038,173.164 16.0038,171.331 18.5,170C 16.9512,168.786 15.7845,167.286 15,165.5C 14.8517,160.011 15.0183,154.511 15.5,149C 15.3572,143.085 14.6905,137.252 13.5,131.5 Z"/></g>
<g><path style="opacity:1" fill="#424715" d="M 144.5,147.5 C 148.993,149.572 153.66,151.406 158.5,153C 165.203,153.713 171.87,153.546 178.5,152.5C 178.082,153.222 177.416,153.722 176.5,154C 170.167,154.667 163.833,154.667 157.5,154C 152.557,152.862 148.224,150.695 144.5,147.5 Z"/></g>
<g><path style="opacity:1" fill="#55753f" d="M 219.5,136.5 C 218.766,137.708 218.433,139.041 218.5,140.5C 216.523,143.618 214.189,146.452 211.5,149C 212.894,149.956 213.561,151.289 213.5,153C 212.612,155.562 211.279,157.896 209.5,160C 210.5,163 211.5,166 212.5,169C 212.192,170.459 211.525,171.626 210.5,172.5C 211.029,167.676 209.862,163.343 207,159.5C 204.355,161.415 201.521,162.582 198.5,163C 202.551,160.982 206.217,158.482 209.5,155.5C 210.192,152.23 210.192,148.897 209.5,145.5C 210.873,145.657 212.207,145.49 213.5,145C 214.255,142.825 215.088,140.659 216,138.5C 216.816,137.177 217.983,136.511 219.5,136.5 Z"/></g>
<g><path style="opacity:1" fill="#336216" d="M 63.5,165.5 C 64.0968,164.861 64.9302,164.528 66,164.5C 74.1207,165.962 82.2873,167.129 90.5,168C 93.7536,168.25 96.7536,169.25 99.5,171C 87.5094,169.437 75.5094,167.604 63.5,165.5 Z"/></g>
<g><path style="opacity:1" fill="#4e7831" d="M 207.5,177.5 C 207.5,177.833 207.5,178.167 207.5,178.5C 206.609,179.261 205.942,180.261 205.5,181.5C 207.662,183.86 209.662,186.193 211.5,188.5C 209.062,187.196 206.895,185.53 205,183.5C 192.778,189.129 179.945,192.296 166.5,193C 174.387,191.422 182.22,189.589 190,187.5C 193.726,184.93 197.56,182.596 201.5,180.5C 202.386,179.675 202.719,178.675 202.5,177.5C 204.167,177.5 205.833,177.5 207.5,177.5 Z"/></g>
<g><path style="opacity:1" fill="#5d8346" d="M 12.5,175.5 C 12.6073,179.535 12.2739,183.535 11.5,187.5C 12.1938,191.609 13.1938,195.609 14.5,199.5C 15.9778,199.238 17.3112,199.571 18.5,200.5C 17.3595,201.425 17.3595,202.259 18.5,203C 20.9573,204.562 23.624,205.562 26.5,206C 27.2524,206.671 27.5858,207.504 27.5,208.5C 27.1667,208.5 26.8333,208.5 26.5,208.5C 25.609,207.89 24.609,207.557 23.5,207.5C 21.4006,206.388 19.0673,205.721 16.5,205.5C 13.8557,202.006 11.3557,198.34 9,194.5C 7.69365,187.579 8.86032,181.246 12.5,175.5 Z"/></g>
<g><path style="opacity:1" fill="#546e48" d="M 207.5,178.5 C 210.177,182.69 212.677,187.023 215,191.5C 215.738,197.181 214.904,202.514 212.5,207.5C 211.167,207.5 209.833,207.5 208.5,207.5C 209.531,206.751 210.698,206.085 212,205.5C 213.418,200.572 213.751,195.572 213,190.5C 212.722,189.584 212.222,188.918 211.5,188.5C 209.662,186.193 207.662,183.86 205.5,181.5C 205.942,180.261 206.609,179.261 207.5,178.5 Z"/></g>
<g><path style="opacity:1" fill="#365f1f" d="M 58.5,200.5 C 58.9169,199.876 59.5836,199.543 60.5,199.5C 73.9461,200.99 87.4461,201.657 101,201.5C 115.879,201.44 130.712,200.94 145.5,200C 116.506,204.329 87.5061,204.496 58.5,200.5 Z"/></g>
<g><path style="opacity:1" fill="#153575" d="M 16.5,206.5 C 16.5,206.167 16.5,205.833 16.5,205.5C 19.0673,205.721 21.4006,206.388 23.5,207.5C 21.0971,207.552 18.7638,207.219 16.5,206.5 Z"/></g>
<g><path style="opacity:1" fill="#093564" d="M 23.5,207.5 C 24.609,207.557 25.609,207.89 26.5,208.5C 26.5,208.833 26.5,209.167 26.5,209.5C 24.9731,209.573 23.9731,208.906 23.5,207.5 Z"/></g>
<g><path style="opacity:1" fill="#4b755f" d="M 26.5,209.5 C 26.5,209.167 26.5,208.833 26.5,208.5C 26.8333,208.5 27.1667,208.5 27.5,208.5C 34.0004,210.664 40.3338,212.997 46.5,215.5C 42.9206,215.684 39.5873,215.017 36.5,213.5C 33.5428,212.177 30.5428,210.843 27.5,209.5C 27.1667,209.5 26.8333,209.5 26.5,209.5 Z"/></g>
<g><path style="opacity:1" fill="#1d3d88" d="M 207.5,207.5 C 207.833,207.5 208.167,207.5 208.5,207.5C 209.833,207.5 211.167,207.5 212.5,207.5C 212.5,208.167 212.5,208.833 212.5,209.5C 210.549,208.359 208.549,208.359 206.5,209.5C 206.833,208.833 207.167,208.167 207.5,207.5 Z"/></g>
<g><path style="opacity:1" fill="#103b64" d="M 203.5,209.5 C 203.167,210.167 202.833,210.833 202.5,211.5C 201.167,211.5 199.833,211.5 198.5,211.5C 199.93,210.463 201.597,209.796 203.5,209.5 Z"/></g>
<g><path style="opacity:1" fill="#1945d4" d="M 212.5,209.5 C 214.262,210.262 215.262,211.596 215.5,213.5C 212.319,212.666 209.152,211.666 206,210.5C 204.862,210.989 203.695,211.322 202.5,211.5C 202.833,210.833 203.167,210.167 203.5,209.5C 204.5,209.5 205.5,209.5 206.5,209.5C 208.549,208.359 210.549,208.359 212.5,209.5 Z"/></g>
<g><path style="opacity:1" fill="#0f3a7c" d="M 27.5,209.5 C 30.5428,210.843 33.5428,212.177 36.5,213.5C 32.5843,214.039 29.5843,212.706 27.5,209.5 Z"/></g>
<g><path style="opacity:1" fill="#5b8a42" d="M 207.5,207.5 C 207.167,208.167 206.833,208.833 206.5,209.5C 205.5,209.5 204.5,209.5 203.5,209.5C 201.597,209.796 199.93,210.463 198.5,211.5C 196.102,211.259 194.102,211.926 192.5,213.5C 192.167,213.5 191.833,213.5 191.5,213.5C 188.848,213.41 186.515,214.076 184.5,215.5C 182.833,215.5 181.167,215.5 179.5,215.5C 175.316,215.851 171.316,216.518 167.5,217.5C 166.833,217.5 166.167,217.5 165.5,217.5C 161.64,217.808 157.974,218.475 154.5,219.5C 150.629,219.185 146.962,219.518 143.5,220.5C 141.167,220.5 138.833,220.5 136.5,220.5C 136.611,219.883 136.944,219.383 137.5,219C 143.853,218.513 150.186,217.847 156.5,217C 157.458,215.853 157.125,214.853 155.5,214C 162.809,210.598 169.975,210.765 177,214.5C 178.651,213.258 180.485,212.424 182.5,212C 190.925,210.927 199.258,209.427 207.5,207.5 Z"/></g>
<g><path style="opacity:1" fill="#1e39aa" d="M 11.5,210.5 C 6.49141,214.786 5.15808,220.119 7.5,226.5C 2.48822,219.584 3.82156,214.251 11.5,210.5 Z"/></g>
<g><path style="opacity:1" fill="#0344fb" d="M 16.5,206.5 C 18.7638,207.219 21.0971,207.552 23.5,207.5C 23.9731,208.906 24.9731,209.573 26.5,209.5C 26.8333,209.5 27.1667,209.5 27.5,209.5C 29.5843,212.706 32.5843,214.039 36.5,213.5C 36.8039,214.15 37.1373,214.817 37.5,215.5C 43.1873,217.94 49.1873,218.94 55.5,218.5C 57.4352,219.15 59.4352,219.483 61.5,219.5C 67.5353,219.908 73.5353,220.574 79.5,221.5C 80.6085,222.29 81.9419,222.79 83.5,223C 108.912,224.152 134.245,223.319 159.5,220.5C 165.535,220.463 171.535,219.963 177.5,219C 184.805,217.038 192.138,215.371 199.5,214C 200.571,213.148 201.571,212.315 202.5,211.5C 203.695,211.322 204.862,210.989 206,210.5C 209.152,211.666 212.319,212.666 215.5,213.5C 216.398,216.396 218.065,218.729 220.5,220.5C 220.162,223.011 220.162,225.345 220.5,227.5C 223.474,226.423 226.474,226.423 229.5,227.5C 230.609,227.557 231.609,227.89 232.5,228.5C 233.75,230.932 235.25,233.266 237,235.5C 237.671,236.252 238.504,236.586 239.5,236.5C 239.213,240.215 240.88,242.548 244.5,243.5C 246.346,245.03 247.346,247.03 247.5,249.5C 229.167,249.5 210.833,249.5 192.5,249.5C 193.6,248.442 194.934,247.608 196.5,247C 201.637,246.133 206.637,244.799 211.5,243C 202.287,244.653 192.953,245.986 183.5,247C 182.619,247.708 181.953,248.542 181.5,249.5C 120.833,249.5 60.1667,249.5 -0.5,249.5C -0.5,244.167 -0.5,238.833 -0.5,233.5C 2.83333,233.5 6.16667,233.5 9.5,233.5C 9.74061,231.102 9.07394,229.102 7.5,227.5C 7.5,227.167 7.5,226.833 7.5,226.5C 5.15808,220.119 6.49141,214.786 11.5,210.5C 12.5846,208.413 14.2512,207.08 16.5,206.5 Z"/></g>
<g><path style="opacity:1" fill="#1e435e" d="M 179.5,215.5 C 178.329,216.345 176.995,217.011 175.5,217.5C 172.833,217.5 170.167,217.5 167.5,217.5C 171.316,216.518 175.316,215.851 179.5,215.5 Z"/></g>
<g><path style="opacity:1" fill="#4b7258" d="M 51.5,217.5 C 51.5,217.167 51.5,216.833 51.5,216.5C 60.7019,217.663 70.0352,218.663 79.5,219.5C 98.4883,220.5 117.488,220.833 136.5,220.5C 138.833,220.5 141.167,220.5 143.5,220.5C 122.34,221.497 101.007,221.831 79.5,221.5C 73.5353,220.574 67.5353,219.908 61.5,219.5C 59.8984,217.926 57.8984,217.259 55.5,217.5C 54.1667,217.5 52.8333,217.5 51.5,217.5 Z"/></g>
<g><path style="opacity:1" fill="#2a475e" d="M 46.5,215.5 C 48.2915,215.366 49.9582,215.699 51.5,216.5C 51.5,216.833 51.5,217.167 51.5,217.5C 49.302,217.88 47.6354,217.213 46.5,215.5 Z"/></g>
<g><path style="opacity:1" fill="#0d347f" d="M 191.5,213.5 C 189.485,214.924 187.152,215.59 184.5,215.5C 186.515,214.076 188.848,213.41 191.5,213.5 Z"/></g>
<g><path style="opacity:1" fill="#143a6d" d="M 198.5,211.5 C 196.898,213.074 194.898,213.741 192.5,213.5C 194.102,211.926 196.102,211.259 198.5,211.5 Z"/></g>
<g><path style="opacity:1" fill="#0b40b8" d="M 36.5,213.5 C 39.5873,215.017 42.9206,215.684 46.5,215.5C 47.6354,217.213 49.302,217.88 51.5,217.5C 52.8333,217.5 54.1667,217.5 55.5,217.5C 55.5,217.833 55.5,218.167 55.5,218.5C 49.1873,218.94 43.1873,217.94 37.5,215.5C 37.1373,214.817 36.8039,214.15 36.5,213.5 Z"/></g>
<g><path style="opacity:1" fill="#1c3f67" d="M 55.5,218.5 C 55.5,218.167 55.5,217.833 55.5,217.5C 57.8984,217.259 59.8984,217.926 61.5,219.5C 59.4352,219.483 57.4352,219.15 55.5,218.5 Z"/></g>
<g><path style="opacity:1" fill="#1b405b" d="M 165.5,217.5 C 164.5,218.167 163.5,218.833 162.5,219.5C 161.5,219.5 160.5,219.5 159.5,219.5C 157.833,219.5 156.167,219.5 154.5,219.5C 157.974,218.475 161.64,217.808 165.5,217.5 Z"/></g>
<g><path style="opacity:1" fill="#0c41ae" d="M 165.5,217.5 C 166.167,217.5 166.833,217.5 167.5,217.5C 170.167,217.5 172.833,217.5 175.5,217.5C 171.343,218.449 167.01,219.116 162.5,219.5C 163.5,218.833 164.5,218.167 165.5,217.5 Z"/></g>
<g><path style="opacity:1" fill="#0a46e3" d="M 198.5,211.5 C 199.833,211.5 201.167,211.5 202.5,211.5C 201.571,212.315 200.571,213.148 199.5,214C 192.138,215.371 184.805,217.038 177.5,219C 171.535,219.963 165.535,220.463 159.5,220.5C 159.5,220.167 159.5,219.833 159.5,219.5C 160.5,219.5 161.5,219.5 162.5,219.5C 167.01,219.116 171.343,218.449 175.5,217.5C 176.995,217.011 178.329,216.345 179.5,215.5C 181.167,215.5 182.833,215.5 184.5,215.5C 187.152,215.59 189.485,214.924 191.5,213.5C 191.833,213.5 192.167,213.5 192.5,213.5C 194.898,213.741 196.898,213.074 198.5,211.5 Z"/></g>
<g><path style="opacity:1" fill="#2c41a9" d="M 215.5,213.5 C 218.323,214.992 219.99,217.326 220.5,220.5C 218.065,218.729 216.398,216.396 215.5,213.5 Z"/></g>
<g><path style="opacity:1" fill="#133a99" d="M 154.5,219.5 C 156.167,219.5 157.833,219.5 159.5,219.5C 159.5,219.833 159.5,220.167 159.5,220.5C 134.245,223.319 108.912,224.152 83.5,223C 81.9419,222.79 80.6085,222.29 79.5,221.5C 101.007,221.831 122.34,221.497 143.5,220.5C 146.962,219.518 150.629,219.185 154.5,219.5 Z"/></g>
<g><path style="opacity:1" fill="#273ba0" d="M 220.5,220.5 C 221.434,221.568 221.768,222.901 221.5,224.5C 224.831,224.018 227.497,225.018 229.5,227.5C 226.474,226.423 223.474,226.423 220.5,227.5C 220.162,225.345 220.162,223.011 220.5,220.5 Z"/></g>
<g><path style="opacity:1" fill="#354ba8" d="M 232.5,228.5 C 235.55,230.549 237.883,233.216 239.5,236.5C 238.504,236.586 237.671,236.252 237,235.5C 235.25,233.266 233.75,230.932 232.5,228.5 Z"/></g>
<g><path style="opacity:1" fill="#1c3799" d="M 7.5,227.5 C 9.07394,229.102 9.74061,231.102 9.5,233.5C 6.16667,233.5 2.83333,233.5 -0.5,233.5C -0.5,232.833 -0.5,232.167 -0.5,231.5C 2.50232,232.643 5.50232,232.643 8.5,231.5C 7.75415,230.264 7.42082,228.93 7.5,227.5 Z"/></g>
<g><path style="opacity:1" fill="#2c45c2" d="M 239.5,236.5 C 241.9,238.296 243.567,240.63 244.5,243.5C 240.88,242.548 239.213,240.215 239.5,236.5 Z"/></g>
<g><path style="opacity:1" fill="#0634cb" d="M 192.5,249.5 C 188.833,249.5 185.167,249.5 181.5,249.5C 181.953,248.542 182.619,247.708 183.5,247C 192.953,245.986 202.287,244.653 211.5,243C 206.637,244.799 201.637,246.133 196.5,247C 194.934,247.608 193.6,248.442 192.5,249.5 Z"/></g>
</svg>
