<svg viewBox="0 0 24 24" fill="none" xmlns="http://www.w3.org/2000/svg">
  <circle cx="12" cy="12" r="12" fill="url(#paint0_radial_531_21444)" />
  <path opacity="0.6"
    d="M16.5723 10.9111L16.6971 11.1026C18.1046 13.2618 17.7903 16.0895 15.9413 17.9012C14.8536 18.9669 13.428 19.4999 12.0023 19.5001C12.0023 19.5001 12.0023 19.5001 16.5723 10.9111Z"
    fill="white" />
  <path opacity="0.2"
    d="M12.0018 13.5215L16.5718 10.9111C12.0018 19.5001 12.0018 19.5001 12.0018 19.5001C12.0018 17.6294 12.0018 15.486 12.0018 13.5215Z"
    fill="white" />
  <path
    d="M7.42723 10.9111L7.30243 11.1026C5.8949 13.2618 6.20925 16.0895 8.0582 17.9012C9.14593 18.9669 10.5715 19.4999 11.9972 19.5001C11.9972 19.5001 11.9972 19.5001 7.42723 10.9111Z"
    fill="white" />
  <path opacity="0.6"
    d="M11.996 13.5215L7.42603 10.9111C11.996 19.5001 11.996 19.5001 11.996 19.5001C11.996 17.6294 11.996 15.486 11.996 13.5215Z"
    fill="white" />
  <path opacity="0.2" d="M12.0032 7.68994V12.1921L15.9397 9.9425L12.0032 7.68994Z" fill="white" />
  <path opacity="0.6" d="M12.0021 7.68994L8.06274 9.94245L12.0021 12.1921V7.68994Z" fill="white" />
  <path d="M12.0021 3.90356L8.06274 9.94387L12.0021 7.68502V3.90356Z" fill="white" />
  <path opacity="0.6" d="M12.0032 7.68442L15.9427 9.94333L12.0032 3.90002V7.68442Z" fill="white" />
  <defs>
    <radialGradient id="paint0_radial_531_21444" cx="0" cy="0" r="1" gradientUnits="userSpaceOnUse"
      gradientTransform="translate(12 12) rotate(90) scale(20.1)">
      <stop stop-color="#3186E2" />
      <stop offset="1" stop-color="#133A64" />
    </radialGradient>
  </defs>
</svg>
