<svg width="24" height="24" viewBox="0 0 24 24" fill="none" xmlns="http://www.w3.org/2000/svg">
<path d="M11.9989 23.9977C18.6256 23.9977 23.9977 18.6256 23.9977 11.9989C23.9977 5.37207 18.6256 0 11.9989 0C5.37207 0 0 5.37207 0 11.9989C0 18.6256 5.37207 23.9977 11.9989 23.9977Z" fill="black"/>
<g clip-path="url(#clip0_3298_178)">
<path d="M6.08993 9.46167C6.69175 9.46167 7.18084 9.94449 7.18084 10.5386V14.1283C7.18084 14.7224 6.69175 15.2053 6.08993 15.2053C5.48811 15.2053 4.99902 14.7224 4.99902 14.1283V10.5386C4.99902 9.94449 5.48811 9.46167 6.08993 9.46167Z" fill="white"/>
<path d="M8.99911 6.23096C9.60093 6.23096 10.09 6.71378 10.09 7.30788V17.3592C10.09 17.9533 9.60093 18.4361 8.99911 18.4361C8.39729 18.4361 7.9082 17.9533 7.9082 17.3592V7.30788C7.9082 6.71378 8.39729 6.23096 8.99911 6.23096Z" fill="white"/>
<path d="M14.8165 6.23096C15.4183 6.23096 15.9074 6.71378 15.9074 7.30788V17.3592C15.9074 17.9533 15.4183 18.4361 14.8165 18.4361C14.2147 18.4361 13.7256 17.9533 13.7256 17.3592V7.30788C13.7256 6.71378 14.2147 6.23096 14.8165 6.23096Z" fill="white"/>
<path d="M11.9083 3.00024C12.5101 3.00024 12.9992 3.48306 12.9992 4.07717V9.46178C12.9992 10.0559 12.5101 10.5387 11.9083 10.5387C11.3065 10.5387 10.8174 10.0559 10.8174 9.46178V4.07717C10.8174 3.48306 11.3065 3.00024 11.9083 3.00024Z" fill="white"/>
<path d="M11.9083 14.1284C12.5101 14.1284 12.9992 14.6112 12.9992 15.2053V20.59C12.9992 21.1841 12.5101 21.6669 11.9083 21.6669C11.3065 21.6669 10.8174 21.1841 10.8174 20.59V15.2053C10.8174 14.6112 11.3065 14.1284 11.9083 14.1284Z" fill="white"/>
<path d="M17.9083 15.175C17.3065 15.175 16.8174 14.6922 16.8174 14.0981V10.5083C16.8174 9.91422 17.3065 9.4314 17.9083 9.4314C18.5101 9.4314 18.9992 9.91422 18.9992 10.5083V14.0981C18.9992 14.6922 18.5101 15.175 17.9083 15.175Z" fill="white"/>
<path d="M11.9083 13.4107C12.5108 13.4107 12.9992 12.9285 12.9992 12.3338C12.9992 11.739 12.5108 11.2568 11.9083 11.2568C11.3058 11.2568 10.8174 11.739 10.8174 12.3338C10.8174 12.9285 11.3058 13.4107 11.9083 13.4107Z" fill="white"/>
</g>
<defs>
<clipPath id="clip0_3298_178">
<rect width="14" height="18.6667" fill="white" transform="translate(5 3)"/>
</clipPath>
</defs>
</svg>
