<?xml version="1.0" encoding="utf-8"?>
<!-- Generator: Adobe Illustrator 24.0.0, SVG Export Plug-In . SVG Version: 6.00 Build 0)  -->
<svg version="1.1" id="Layer_1" xmlns="http://www.w3.org/2000/svg" xmlns:xlink="http://www.w3.org/1999/xlink" x="0px" y="0px"
	 viewBox="0 0 990 990" style="enable-background:new 0 0 990 990;" xml:space="preserve">
<style type="text/css">
	.st0{fill:#F7941C;}
</style>
<g>
	<path class="st0" d="M654.8,438.1c-34.3,16.4-68.6,32.5-102.7,49.3c-11.1,5.5-16.6,4.5-16.1-9.5c0.4-14,0-28,0-42
		c0-15.1-0.3-30.2,0-45.4c0.3-11.3-2.9-14.2-13.5-8c-27.8,16.5-56,32.3-84.1,48.4c-13.1,7.5-26.2,14.9-39.2,22.6
		c-6.1,3.6-9,9.6-5.3,15.6c3.7,6.1,8.8,1.2,13.2-0.6c18.4-7.9,37.1-15.5,55.3-24c12.1-5.7,18.3-5.8,17.3,10.5c-1,17.3-1,34.7,0,52.1
		c0.6,11.8-4,17.7-14.3,23.3c-29.5,16-58.7,32.8-81.2,58.6c-32.9,37.9-26.2,91.7,14.2,116.4c49.8,30.5,114.2,3.3,131-54.5
		c10.1-34.7,6.7-70.1,6.7-105.2c0-15,3.9-24.5,18-31.8c36.6-19.1,72.5-39.8,108.5-60c6.5-3.6,13.9-8.7,9.2-17
		C666.9,428,660.4,435.5,654.8,438.1z M462.5,652.7c-10.1,14.5-26,20.6-39,15s-19.8-23.3-14.9-40.4c9.2-32.7,36.3-48.2,62.5-64.4
		c5.7-3.4,8.1,0.4,8.1,6c0.2,6.5,0.2,13.2,0.2,19.9C479.6,611.5,476,633.3,462.5,652.7z"/>
	<path class="st0" d="M695.5,293.2c-26.3-26.3-57.5-47.1-91.8-61.3s-71.1-21.5-108.3-21.5c-75.1,0-147.1,29.8-200.2,82.9
		s-82.9,125.1-82.9,200.1c0,37.2,7.3,74,21.6,108.3c14.2,34.3,35.1,65.5,61.4,91.8s57.5,47.1,91.8,61.4
		c34.3,14.2,71.2,21.5,108.3,21.5c75.1,0,147.1-29.8,200.1-82.9c53.1-53.1,82.9-125.1,82.9-200.1c0-37.2-7.3-74-21.5-108.3
		C742.6,350.6,721.8,319.4,695.5,293.2z M678.9,676.6c-48.7,48.7-114.7,76-183.5,76s-134.8-27.3-183.5-75.9
		c-48.7-48.6-76-114.6-76.1-183.4c0-34.1,6.7-67.8,19.8-99.3c13-31.5,32.2-60.1,56.3-84.2c24.1-24.1,52.7-43.2,84.2-56.2
		s65.2-19.7,99.3-19.7c68.8,0,134.8,27.3,183.4,76c48.7,48.6,76,114.6,76.1,183.4C754.9,562,727.6,628,678.9,676.6z"/>
	<path class="st0" d="M471.4,341.3c3.5,3.5,7.7,6.3,12.4,8.3c4.6,1.9,9.6,2.9,14.6,2.9s10-1,14.6-2.9s8.9-4.7,12.4-8.3
		c3.6-3.5,6.4-7.7,8.3-12.4c1.9-4.6,2.9-9.6,2.9-14.6c0-10.1-4-19.8-11.2-27c-7.2-7.1-16.8-11.2-27-11.2h-0.1c-5,0-10,1-14.6,2.9
		s-8.8,4.7-12.4,8.3c-3.5,3.5-6.3,7.7-8.3,12.4c-1.9,4.6-2.9,9.6-2.9,14.6s1,10,2.9,14.6C465,333.5,467.8,337.7,471.4,341.3z"/>
	<path class="st0" d="M495.5,0C218.6,0,0,224.5,0,494.5C0,768.5,221.5,990,494.5,990C771.4,990,990,765.5,990,494.5
		C990,218.6,765.5,0,495.5,0z M831,535.9c0,8.1-3.1,11.5-11.2,12.5c-6.3,0.8-12.5,1.5-18.8,2.3c-3.2,16.5-7.7,32.6-13.5,48.4
		c4.8,3.8,10,7.5,14.9,11.3c7.2,5.5,8.1,9.5,3.6,17.4c-13.5,23.3-26.9,46.5-40.4,69.8c-4.6,7.9-8.5,9.1-16.8,5.8
		c-6-2.5-12.1-5-18.1-7.6c-10.7,12.5-22.5,24.1-35.1,34.7c2.6,6.1,5.2,12.2,7.7,18.4c3.4,8.4,2.1,12.2-5.8,16.8
		c-23.2,13.5-46.5,26.9-69.8,40.4c-7.8,4.7-11.8,3.8-17.4-3.4c-4.1-5.3-8.1-10.7-12.1-16c-15.4,5.5-31.3,9.7-47.3,12.6
		c-0.8,6.5-1.6,13.2-2.4,19.9c-1.1,8.8-4.3,11.8-13.2,11.8c-27.1,0-54.2,0-81.4,0c-8.4,0-11.7-3.1-12.8-11.6
		c-0.9-6.7-1.7-13.5-2.5-20.2c-16.1-2.9-32-7.1-47.5-12.6c-4.1,5.4-8.1,10.8-12.2,16.1c-5.2,6.7-9.3,7.7-16.8,3.4
		c-23.5-13.5-46.9-27.1-70.3-40.7c-7.6-4.4-8.9-8.3-5.5-16.3c2.5-6.1,5-12.1,7.6-18.1c-12.7-10.7-24.6-22.4-35.4-35l-17.3,7.3
		c-8.4,3.5-12.3,2.3-16.8-5.5c-13.7-23.4-27.2-46.9-40.7-70.4c-4.3-7.4-3.4-11.5,3.6-16.8c4.8-3.7,9.7-7.3,14.5-11
		c-5.8-15.9-10.3-32.2-13.5-48.8c-5.8-0.7-11.4-1.5-17.1-2.5c-4.3-0.8-8.1-4.1-12.2-6.3v-94.5c4-2.2,7.9-5.5,12.2-6.3
		c5.4-1,10.7-1.8,16.2-2.4c3-17,7.3-33.7,13-49.9c-4.4-3.4-8.8-6.8-13.2-10.1c-6.7-5.2-7.7-9.3-3.4-16.8
		c13.5-23.5,27.1-46.9,40.7-70.4c4.4-7.7,8.3-9,16.8-5.4l14.2,6c11.3-13.4,23.7-25.9,37-37.2c-1.9-4.5-3.8-9-5.6-13.5
		c-3.9-9.2-2.7-13,5.7-17.9c23-13.4,46.1-26.7,69.2-40c8.2-4.7,12.1-3.9,17.9,3.7c3,3.8,5.9,7.7,8.8,11.6
		c16.7-6,33.8-10.6,51.3-13.8c0.5-4.1,1-8.3,1.4-12.5c0-2.7,0.7-5.4,1.8-7.8c1.2-2.4,2.8-4.6,4.9-6.3h94.7c2.1,1.7,3.7,3.9,4.9,6.3
		c1.2,2.4,1.8,5.1,1.8,7.8c0.4,4.2,0.9,8.4,1.4,12.7c17.4,3.1,34.5,7.7,51.1,13.8c3-3.9,5.9-7.9,8.9-11.8c5.8-7.6,9.7-8.4,17.9-3.7
		c23.3,13.5,46.5,26.9,69.8,40.4c7.8,4.5,8.9,8.4,5.5,16.8c-2,4.8-4.1,9.7-6.1,14.5c13.2,11.3,25.4,23.7,36.5,37l14.7-6.2
		c8.7-3.6,12.5-2.4,17.3,5.9c13.4,23.1,26.7,46.1,40,69.2c4.7,8.2,3.9,12.1-3.6,17.9c-4.6,3.4-9,6.7-13.5,10.1
		c5.6,16.1,9.9,32.6,12.8,49.4l17.5,2.2c8.6,1.1,11.6,4.4,11.5,12.8C831,481.3,831,508.6,831,535.9z"/>
</g>
</svg>
