<svg xmlns="http://www.w3.org/2000/svg" width="40" height="40" viewBox="0 0 40 40"><circle cx="20" cy="20" r="20" fill="#dbe0e1"/><rect x="6" y="6" width="28" height="28" rx="7.9799999999999995" ry="7.9799999999999995" fill="#122f36"/><g transform="translate(12.233385620915033, 11.32)"><svg width="15.533228758169935" height="17.36" viewBox="0 0 1369 1530" xmlns="http://www.w3.org/2000/svg">
<path xmlns="http://www.w3.org/2000/svg" d="M1051 0C1226.38 0 1368.6 142.07 1368.6 317.4V1212.3C1368.6 1387.63 1226.38 1529.7 1051 1529.7H317.6C142.218 1529.7 0 1387.63 0 1212.3V317.4C0 142.07 142.218 0.000214256 317.6 0H1051ZM317.6 71C181.381 71.0002 71 181.331 71 317.4V1212.3C71 1348.37 181.381 1458.7 317.6 1458.7H1051C1187.22 1458.7 1297.6 1348.37 1297.6 1212.3V317.4C1297.6 181.331 1187.22 71 1051 71H317.6ZM1083.5 1295.6H301.898V1135.9H1083.5V1295.6Z" fill="#ffffff"/>
</svg></g></svg>