<?xml version="1.0" encoding="utf-8"?>
<!-- Generator: Adobe Illustrator 26.0.0, SVG Export Plug-In . SVG Version: 6.00 Build 0)  -->
<svg version="1.1" id="_1" xmlns="http://www.w3.org/2000/svg" xmlns:xlink="http://www.w3.org/1999/xlink" x="0px" y="0px"
	 viewBox="0 0 32 32" style="enable-background:new 0 0 32 32;" xml:space="preserve">
<style type="text/css">
	.st0{fill-rule:evenodd;clip-rule:evenodd;fill:#1A1885;}
</style>
<g id="_x0020_1">
	<path class="st0" d="M17.9,13.4h4v1.4h-0.4l-0.3-1.1h-1.4l0,2.3h1l0.1-0.8h0.4V17h-0.4l-0.1-0.8h-1l0,2.2h1.6l0.3-1.2H22v1.5h-4.1
		l0-0.3l0.7,0v-4.7h-0.7L17.9,13.4z M16,0c4.4,0,8.4,1.8,11.3,4.7C30.2,7.6,32,11.6,32,16c0,4.4-1.8,8.4-4.7,11.3
		C24.4,30.3,20.4,32,16,32c-4.4,0-8.4-1.8-11.3-4.7C1.8,24.5,0,20.5,0,16c0-4.4,1.8-8.4,4.7-11.3C7.6,1.8,11.6,0,16,0z M26.9,5.1
		C24.1,2.3,20.3,0.6,16,0.6S7.9,2.3,5.1,5.1C2.3,7.9,0.5,11.8,0.5,16S2.3,24.2,5.1,27c2.8,2.8,6.7,4.5,10.9,4.5s8.1-1.7,10.9-4.5
		c2.8-2.8,4.5-6.7,4.5-10.9S29.7,7.9,26.9,5.1z M11.7,19.1c-0.1,0.2,0,0.4,0.1,0.6C11.9,19.3,12,19.3,11.7,19.1z M14.3,20.9
		c0.2-0.2,0.3-0.6,0.5-0.9c0.2-0.3,0.5-0.5,0.6-0.8l-0.5,0C14.5,19.7,14.2,20.3,14.3,20.9z M13.9,21c0.2-0.6,0.2-1,0.6-1.7l-0.5,0
		C13.8,19.7,13.6,20.5,13.9,21z M12.8,19.6c-0.1-0.4-0.1-0.6-0.6-0.4c-0.3,0.4,0.4,1.5,0.7,1.7C12.9,20.5,12.8,20,12.8,19.6z
		 M13.2,20.8c0.2,0.4,0,0.2,0.3,0.4l0.2-1.9l-0.6,0C13,19.7,13,20.3,13.2,20.8z M23.8,12.7c-0.2,0.4-0.4,0.8-0.8,0.9l0,0.3
		c1.6,1.1,2.2-1,2.1-2.1C24.6,11.8,23.9,12.2,23.8,12.7z M6.6,13.4C6.3,13,6,12.9,5.5,13c-0.6,0.1-0.6,0.4-0.6,1l1.6,0.1L6.6,13.4z
		 M27,12.1c0.3,0.2,0.7,0.2,1.1,0.6c0.4,0.3,0.6,0.6,0.6,1c0,0.4,0,0.6-0.5,0.4c-0.4-0.2-0.6-0.6-0.9-1c-0.4-0.4-0.7-0.9-1-1.3
		l-0.8,0.4c-0.1,0.1-0.1,0.1-0.1,0.2l0,0.3c0.1,0.8,0.7,1.4,1.3,1.8l0-0.4c0.5,0.6,1.4,0.9,2,1.7c0.3,0.4,0.6,0.6,0.7,1.4
		c0,0.5-0.2,1.2-0.8,1l0-0.6c-1,0-1.1,1.5-0.2,1.9c0.8,0.4,1.8,0,2.2-0.7c0.1-0.2,0.1-0.2,0-0.4c-0.3-0.7,0.8-0.3,0.2-2.4
		c-0.3-1.3-0.9-1.4-1.3-2.3c-0.1-0.3,0-0.6-0.1-1c-0.2-0.7-0.4-1.4-1.1-1.8c-0.6-0.3-1.7-0.2-2.3,0.2c-0.1,0.1,0.2,0.3,0.4,0.6
		C26.6,11.7,26.8,12,27,12.1z M23.5,12.3c0.3-0.3,0.8-0.6,1.3-0.9c-0.1-0.3-0.8-0.7-1.1-0.7c-0.7,0-0.7,0-1.1,0.4l-0.8,0.9
		C21,13,22.8,13.9,23.5,12.3z M4.5,24.1c0.1-0.3,0.4-1.2,0.4-1.5c0.1-0.5-0.1-1-0.3-1.4c-0.5-0.2-0.5-0.1-1,0.1
		C3.7,21.8,4.2,23.9,4.5,24.1z M26.2,15.6c0,0.3,0.1,0.3-0.2,0.6c-0.3-0.1-0.1-0.2-0.3-0.5c-0.7,0.2-0.3,1,0.4,1
		c0.6-0.1,1-0.5,1-1.1c0-0.6-0.6-0.8-1-1.1c-0.4-0.3-0.6-0.8-1-1.1C24.3,14.5,26.1,15.4,26.2,15.6z M25.5,9.9c0,0.3,0.1,0.6,0.3,0.8
		c0.8-0.3,1.2-0.5,2.1-0.4c1.2,0.2,0.5,0.6,1.7,0.1c0.5-0.2,0.1-1-0.4-0.8c-0.4,0.1-0.4,0.1-1,0c-0.6-0.1-0.8,0.1-1.3,0.2L27,9
		c0.1-1.2,0.5-1.7-0.2-2.8c-0.2,0-0.4-0.1-0.6-0.1c-0.4,0-0.3,0.3-0.5-0.1c0-1.8-2.4-2.4-3.7-1.6c-0.7,0.4-1,1.5-0.4,2.2
		c0.5,0.6,1.9,0.1,1.5-0.7c-0.5-0.2-0.4,0-0.9,0c0.1-0.8,0.9-0.4,1.2,0c0.7,0.7,0.6,0.8,0.5,1.8c-0.1,2.1,0.2,1.8,1,3.5
		c0.2,0.3,0.4,0.3,0.8,0.3L25.2,10c-0.1-0.4-0.2-2.1-0.1-2.3C26,7.7,25.3,9.4,25.5,9.9z M22.5,16.4c-0.3,0.7,0.4,0.5,0.3,1.8
		c0.7,0,1.9-0.2,1.9,0.2l-1.3,0l-0.7,0l-0.1,0.4c0.7,0,3,0.1,3.4,0.5c-0.2,0.1-2.2-0.4-3.6-0.3c-0.5,0-0.9,0.2-1.2,0.2
		c-0.7,0-0.7-0.4-2.2,0.4c-0.6,0.3-1.4,0.6-1.9,0.9c0.2-0.5,1.7-0.8,2.2-1.3c-1.5-0.2-3.2,1.6-3.9,1.8c0.2-0.1,0.9-0.7,1.1-0.9
		c0.3-0.2,1-0.6,1.2-0.9c-0.8,0-0.8,0.2-1.4,0.7c-0.3,0.2-1,0.8-1.2,0.9c0.2-0.5,1.4-1.2,1.6-1.6l-0.8,0c-0.4,0.4-1.3,1.2-1.4,1.8
		c0.1,0.3,0.3,0.6,0.5,0.7c0-0.4,1.2-0.5,1.6-0.7c1.5-0.6,3.1-1.8,5.5-1.4c1.3,0.2,2.5,0.3,3.5,1.1c1.1,0.8,1.6,1.5,1.6,3l0,0.3
		c-0.2-0.3-0.2-0.9-0.3-1.3c-0.4-1-1.5-2-2.6-2.4C23.7,20.2,22,20,21.4,20c-0.7,0-2.3,0.3-2.8,0.7c0.8,0.2,2.1-0.2,2.5,0.6
		c0.4,0.7,0.3,1.9,1.1,2c0.2-0.3,0.1-0.4,0.5-0.4c0.6,0.4,0,1.6,1,1.5l0.3-0.5c0.4,0.2,0.2,0.5,0.6,0.9c0.5,0,0.5-0.2,0.9-0.3
		c0.3,0.6,0,0.9,0.7,1.4c0.6-0.1,0.7-0.5,1.2-0.8l-0.1,0.5c1.2-0.1,1.5-2.7,0.9-3.4c-0.6,0.4-0.3-0.3-0.1-0.6
		c0.4-0.9,0.3-1.6-0.8-1.8c0-0.4,0.1-0.9-0.2-1.3c-0.2-0.3-0.9-0.6-1-0.3c-0.4,0.2-0.1,0.3-0.6,0.4c0-0.6,0.3-1.7-0.6-1.8
		c-1.2-0.2-0.9,0.9-1.4,1c-0.1-0.6,0.5-1.5-0.7-1.5L22.5,16.4z M15.9,16.8c0.5,0.5,0.4,1.1,0,1.4c-0.3,0.3-0.9,0.3-1.4,0.1
		C14,18,14.5,17,13.7,17.2l0,1.2c0.6,0.4,1.7,0.5,2.3,0.4c1.4-0.3,1.8-2.1,0.5-2.8c-0.5-0.3-1.5-0.5-1.7-1.1
		c-0.3-0.8,0.4-1.4,1.3-1.1c0.3,0.1,0.3,1.1,0.4,1.1l0.4,0l0-1.1c-0.8-0.5-2.6-0.6-3.1,0.5c-0.2,0.4-0.2,0.9,0,1.4
		C14.3,16.2,15.2,16.5,15.9,16.8z M13.3,4.6l0.5,0.6c0.1-0.5,0-1.5,0.4-1.7c0.3,0.6-0.1,1.6,0,2.3c1-1.1,1-2.6,0.8-4.1
		C13.3,1.3,12.4,3.6,13.3,4.6z M20.9,9.1c0.6-0.2,0.9-1.3,0.8-1.8c-0.1-0.5-0.8-1.1-1.2-1.4c-2.5-1.9-0.2-2.1-0.2-3.1
		c-1-0.3-1.8,0.4-1.8,1.3c0,0.2,0.2,0.3,0.3,0.6c0.1,0.4-0.1,0.6,0.1,0.8c0.5,0.5,1.1,1,1.5,1.5C21.2,7.8,20.8,8,20.9,9.1z
		 M14.7,6.2c0.1-0.3,0.8-0.8,1.2-0.9c0,0.3-0.1,0.4-0.4,0.5C15.1,6,15,6.1,14.7,6.2z M14.5,6.7c0.6,0.3,1.1,0,1.7-0.3
		c0.5-0.3,1-0.7,1.5-1c0.2-0.1,0.3-0.2,0.5-0.3c0.2-0.1,0.2-0.2,0.2-0.4c-0.3-0.9-1.7-0.6-2.4-0.3c-0.8,0.3-1.2,1-1.5,1.7
		C14.2,6.3,14.2,6.5,14.5,6.7z M9.2,8.3c0.5,0.1,0.7-0.1,1.3,0c0.4,0.1,0.9,0.3,1.2,0.3c0.6,0.1,1.7-0.5,1.8-1.1
		c-0.4-0.2-0.9,0.1-1.3,0c-0.3,0-0.2-0.4,0-0.4L13.6,7C12.5,5.7,8.6,6.9,9.2,8.3z M21.9,26.4c1.7-0.4,2.2,1.6,1.3,1.7
		c-0.2,0-0.4,0-0.3-0.2c0-0.2,0.1-0.2,0.2-0.2c0.1-0.1,0.2-0.3,0-0.4c-0.5-0.2-1.2,0.9-0.3,1.4c0.6,0.3,1.1,0.1,1.7-0.3
		c0.5-0.5,0.8-0.9,0.5-1.8c-0.2-0.9-1.3-1.8-2.1-2c-0.6-0.2-0.8-0.1-1.2,0.3c-1.4,1.5-1.7,2.8-3.9,3.1c-1,0.2-2.1-0.2-2.2-1.3
		c0.6,0.3,0.3,0.9,1.5,0.9c0.8,0,1.3,0,1.9-0.5c2.6-1.7,0.2-6-2.1-3.9c-1.5,1.6,1,2.6,1.3,1.4c-0.4,0-0.9,0-0.8-0.6
		c0.1-1,2.3-0.5,1.9,1.3c-0.2,0.9-0.9,1.2-1.8,1.2c-1,0-1.5-0.5-2.3-0.6c-0.9-0.2-1.7,0.1-2.6,0.3c-1.1,0.2-3.1-0.1-4-1.1
		c-0.3-0.3-1.2-1.7-2.2-1.2c0.9,0.7,1.1,1,1.6,2c0.1,0.3,0.4,0.6,0.4,0.9c0,0.3-0.2,0.4-0.2,0.7c0,0.2,0,0.3,0.2,0.3
		c0.4,0.1,0.8-0.2,1-0.6c0.2-0.5-0.3-0.8-0.4-1.1c1.1,0.3,2.2,0.7,3.3,1c2.3,0.6,1.6,2,0.6,1.8c-0.1,0-0.3-0.1-0.1-0.2
		c0.2-0.1,0.5-0.2,0.6-0.3c0.1-0.2,0-0.4-0.2-0.5c-0.5-0.1-1.4,0.2-1.3,0.8c0,0.6,0.3,0.9,1,1c0.9,0.2,1.2-0.1,1.7-0.6
		c0.4-0.4,0.4-1.3,0.2-1.8c-0.3-0.5-0.8-0.7-1.3-1c0.7-0.1,1.5,0.6,1.7,1.2c0.2,0.5,0,1.1,0.2,1.5c0.2,0.6,1.5,0.6,1.5-0.4
		c0-0.3,0-0.4,0.3-0.4c0.6,0,0.7,0.5,1.7,0.2c0.7-0.2,1-0.5,1.5-0.8L21.9,26.4z M12.3,13.6l0.7,0l0-0.2l-2.5,0l0,0.3l0.7,0l0,4.8
		l-0.6,0l0,0.3l2.5,0l0-0.3l-0.7,0L12.3,13.6z M8.5,6.3C8.9,5.8,9.8,5.7,10.3,6c-0.3,0.1-0.7,0.1-1.1,0.2C9,6.3,8.8,6.4,8.5,6.3z
		 M8.9,7.9C9,6.7,10.4,6.4,11.3,6c-0.2-0.1-1.1-0.3-1.4-0.4C9.3,5.4,9.1,5.2,8.4,5.2C7.9,5.3,7.2,5.6,7,6C6.8,6.2,6.8,6.5,6.6,6.7
		C6.4,7.1,6.2,7,5.8,7.1c0,0.6,0.6,0.8,1.2,0.8c1,0,1-0.2,1.7-0.5l0,0.3C8,8,8.8,8.2,6.6,8.3c-1.4,0-2.8,0.6-3.4,1.8
		c-0.2,0.6-0.5,1.7-0.1,2.2c0.3-0.2,0.4-0.5,0.9-0.8c0.4-0.2,1-0.2,1.4-0.3c0.5-0.2,0.5-0.6,0.7-1c0.2-0.7,0.5-0.4,0.7-0.9L5.9,9.3
		c0.2-0.6,1.6-0.8,2.2-0.8L8.1,8.8L8.5,9c-0.7,0.4-1,0.2-1.7,0.9c-0.5,0.5-0.7,1.2-0.3,1.8c0.4,0,0.4-0.1,0.7-0.4
		c0.6,0,0.9,0.5,1.8,0.4c0.7-0.1,0.7-0.8,1.1-1.1c0.1-0.2,0.4-0.8,0.5-1c0.3-0.4,0.6-0.4,0.8-0.7C10.4,8.1,8.5,9.5,8.9,7.9z
		 M8.9,4.3c0.2,0.9,1.4,1.1,2.2,1.3c1.1,0.3,2.2,0.9,2.5,0.9c-0.3-0.6-1.6-1.3-1.7-1.7c0.7,0.1,1.3,0.9,1.9,1.2
		c-0.1-0.6-0.4-0.8-0.6-1.3l-0.5-0.4c-0.1,0-2-0.7-2-0.7c-0.5-0.2-1-0.6-1.6-0.5C8.9,3.3,8.7,4,8.9,4.3z M12.9,9.9
		c0-0.6,0.6-1.4,1-1.8C13.9,8.6,13.4,9.7,12.9,9.9z M10.5,11.5c0.1,0.5,0.4,0.9,0.8,1.1c0.9-0.9,0.7-0.6,0.8-1.3
		c0.6-0.1,0.7,0,1.1-0.4c0.3-0.2,0.4-0.6,0.6-0.8c0.1-0.7,0.7-1.9,0.2-2.6c-0.3,0.2-0.5,0.6-1,0.9C11.7,9.4,10.5,9,10.5,11.5z
		 M16.9,7.1c1.8-0.8,4.3,1.2,2.3,2.9c-0.3,0.2-0.4,0.4-0.7,0.5c-0.4,0.3-0.8,1-1,1.5c-0.1,0.3,0.2,0.5,0.5,0.2
		c0.4-0.4,0.5-1.1,1.8-1.8c0.5-0.3,1-0.4,1.5-0.5c2-0.3,1.3,0.6,3,0.6c-0.4-0.6-1-1.1-1.7-1.2c-1.1-0.2-1.5,0.1-2.5,0.3
		c0.1-1,1-1.6-0.3-2.6c-0.7-0.6-3.1-1.1-3.9-0.3C15.5,7.2,16.5,7.2,16.9,7.1z M8.6,20.7c1-0.2,1.5,1.6-0.1,1.5
		c-0.6,0-1.3-0.2-1.9-0.1c-0.4,0.1-1.2,0.3-1.2,0.7c0.7,0,2.1-0.5,3.3,1c0.7,0.9,3,0.4,2.8-0.9c-0.7,0-2.2,0.4-2.9,0.1
		c0.5-0.2,1.1-0.2,1.5-0.7c0.3-0.4,0.3-1.3,0-1.7C9.7,20,7.5,19.6,7.5,21c0,0.4,0.3,0.6,0.7,0.6c0.3,0,0.3-0.2,0.3-0.4
		C8.4,21,8.4,20.8,8.6,20.7z M16.1,8.3c-0.4,0-1.2-0.4-1.3-0.8C15.2,7.6,16,7.8,16.1,8.3z M15.8,9.8l-0.8-1l-0.1,1.6l-0.3-0.3l0-1.9
		c0.9-0.1-0.1,1.5,2.9,1.2c0.6-0.1,0.7,0,0.9-0.6l-1.2-1c-1-0.4-1.8-1-2.9-0.7c0.2,1.4,0.3,1.6-0.1,3.1c-0.3,1.3,1.2,2.1,1.6,1.7
		c0.2-0.4-0.1-0.5,0-1.1C15.7,10.4,16,10.4,15.8,9.8z M13.4,21.8c0,0.8,0.9,2.6-1.4,3.5C10.6,26,9.6,25,8.7,24.1
		c-0.8-0.8-2.6-1.7-3.6-0.5c-1.2,1.6,1,3.5,1.5,1.5c0-0.3,0-0.5-0.4-0.5c-0.3,0-0.2,0.2-0.3,0.5c0,0.1-0.3,0.1-0.4,0
		c-0.3-0.4,0.1-1.3,0.5-1.4c1-0.2,2.1,0.5,2.6,1.1C9.3,25.4,10,25.9,11,26c2.3,0.2,3.9-0.7,4.7-2.8c0.2-0.5,0.4-1.9-0.5-1.6
		c-0.1,0.7,0.1,0.8-0.3,1.5c-0.2,0.4-0.6,1-0.9,1.1c0.1-0.4,0.2-0.4,0.3-0.8C14.7,21.4,13.4,21.4,13.4,21.8z M8.8,10.2
		c0.1-0.3,0.6-0.4,1-0.6C10,9.4,10.5,9,10.6,8.9C10.6,9.7,9.3,10.4,8.8,10.2z M24.8,20.1c0.8-0.3,2.5,0.8,2.4,1.7
		c-0.2-0.3-0.7-0.8-0.9-1C25.9,20.5,25.2,20.4,24.8,20.1z M24.9,21.2c0.5,0.1,1.2,1.6,0.9,2.3c-0.2-0.2-0.3-0.9-0.5-1.2
		C25.3,21.9,24.9,21.4,24.9,21.2z M23.2,20.6c0.5,0,1.7,1.7,1.4,2.4c-0.2-0.1-0.1,0.2-0.3-0.6C24.1,21.5,23.3,21.1,23.2,20.6z
		 M22.2,20.3c0.3,0.2,0.8,0.6,1,1.1c0.3,0.6,0.3,1.2,0.1,0.8c-0.4-0.7-0.8-1.3-1.3-1.8C21.9,20.3,22,20.2,22.2,20.3z M21.6,21.2
		c-0.3-0.4-0.8-0.7-0.8-1c0.6-0.1,1.6,1.3,1.5,2C22,22.2,21.8,21.5,21.6,21.2z M3.8,18.1c0.5-1,2.2-1.5,3.3-1.4
		c-0.1,0.1,0,0.1-0.2,0.1L6.1,17c-0.3,0-0.6,0.1-0.9,0.3C4.7,17.6,4.5,17.9,3.8,18.1z M10.2,17.2c-0.9-1.2-1.3-3.1-3-3.2
		c0.1-0.6,0.8-0.2,1.1,0.1C8.8,14.6,10,16.5,10.2,17.2z M6.5,18.2c-0.5,0.2-0.6,0.5-0.8,0.6c0-1,1.8-1.1,2.5-1.2
		c-0.9-0.9-2.4,0.4-3.2,0.7c-0.3,0.1-0.3,0-0.1-0.2c0.3-0.2,0.8-0.4,0.8-0.4c2-1.2,2.5-0.1,3.8,0c-0.6-1-2.6-1.2-3.7-1.1
		c-1.9,0.3-2.8,1.3-3.5,1.4c0.3-0.5,2-1.4,2.9-1.7c0.3-0.1,1-0.2,1.2-0.3c-0.4-0.3-1.9,0-2.4,0.2c-0.5,0.2-1.5,0.9-1.8,1
		c0.6-1.3,3.2-1.7,4.5-1.4C7,15.9,6.5,16,7.1,16.1c0.6,0.1,1.2,0.3,1.8,0.5c1.2,0.5,1.2,1.3,1.5,1.5c0-0.2,0-0.5,0.1-0.8
		c0-0.1,0.1-0.2,0.1-0.4c0-0.1,0-0.2,0-0.2c-0.1-1-0.7-2.9-1.5-3.2c-0.4,0.2-0.2,0.3-0.6,0.3c-0.2-0.3-0.2-1.4-1.1-1
		C7,13.1,6.8,14,6.8,14.4c0.6,0.2,1.7,0.9,2,1.5c0.1,0.2,0.2,0.4-0.1,0.2c-0.3-0.2-0.4-0.7-1.5-1.3c-1-0.6-1.7-0.5-2.8-0.4
		c-0.5-1.2-1.1-0.2-0.9,0.7c0.3,0,0.5,0,0.8,0c0.4,0,1.3-0.1,1.9,0c0.7,0.1,1.2,0.4,1.7,0.8c0.4,0.4-0.7-0.3-0.8-0.3
		C6,15,4.4,15.3,3.3,15.3l-0.5-0.6c-0.9,0.2-0.1,1-0.9,1.4c-0.8,0.4-0.8,0.6-0.7,1.5c0,0.6,0,1.3,0.7,1.5c0.8,0.2,1.1-0.2,1.5-0.6
		c0.4,0.5,0.1,1,1,1.1c0.3-0.2,0.4-0.4,0.6-0.6c0.6,0.4,0.5,0.7,1.5,0.7c0.6-0.5,0.8-1.4,1.7-1.5c0.8-0.1,1.5,0.5,2.1,0.9
		C10.7,17.4,7.3,17.7,6.5,18.2z"/>
</g>
</svg>
