<svg width="32" height="32" viewBox="0 0 32 32" fill="none" xmlns="http://www.w3.org/2000/svg">
<rect width="32" height="32" rx="16" fill="#003399"/>
<path d="M17.6325 29.0753C23.6034 28.3367 28.3353 23.6032 29.0753 17.6323C29.0986 17.4449 28.9506 17.2814 28.7618 17.2813L26.9743 17.2801C26.8122 17.28 26.676 17.4017 26.6526 17.5622C25.9668 22.2553 22.2569 25.9667 17.5638 26.651C17.4034 26.6744 17.2816 26.8104 17.2816 26.9725V28.7616C17.2816 28.9505 17.445 29.0985 17.6325 29.0753Z" fill="white"/>
<path d="M17.6325 29.0753C23.6034 28.3367 28.3353 23.6032 29.0753 17.6323C29.0986 17.4449 28.9506 17.2814 28.7618 17.2813L26.9743 17.2801C26.8122 17.28 26.676 17.4017 26.6526 17.5622C25.9668 22.2553 22.2569 25.9667 17.5638 26.651C17.4034 26.6744 17.2816 26.8104 17.2816 26.9725V28.7616C17.2816 28.9505 17.445 29.0985 17.6325 29.0753Z" fill="white"/>
<path d="M14.3632 29.0753C8.39227 28.3367 3.66034 23.6032 2.92033 17.6323C2.89711 17.4449 3.04505 17.2814 3.23389 17.2813L5.02135 17.2801C5.18351 17.28 5.31964 17.4017 5.34309 17.5622C6.02885 22.2553 9.73881 25.9667 14.4319 26.651C14.5923 26.6744 14.714 26.8104 14.714 26.9725V28.7616C14.714 28.9505 14.5506 29.0985 14.3632 29.0753Z" fill="white"/>
<path d="M14.3632 29.0753C8.39227 28.3367 3.66034 23.6032 2.92033 17.6323C2.89711 17.4449 3.04505 17.2814 3.23389 17.2813L5.02135 17.2801C5.18351 17.28 5.31964 17.4017 5.34309 17.5622C6.02885 22.2553 9.73881 25.9667 14.4319 26.651C14.5923 26.6744 14.714 26.8104 14.714 26.9725V28.7616C14.714 28.9505 14.5506 29.0985 14.3632 29.0753Z" fill="white"/>
<path d="M29.0754 14.3615C28.3367 8.3906 23.6033 3.65867 17.6323 2.91867C17.4449 2.89544 17.2815 3.04338 17.2814 3.23222L17.2802 5.01968C17.2801 5.18184 17.4018 5.31798 17.5622 5.34142C22.2553 6.02718 25.9667 9.73714 26.651 14.4302C26.6744 14.5906 26.8105 14.7124 26.9726 14.7124H28.7616C28.9505 14.7124 29.0986 14.549 29.0754 14.3615Z" fill="white"/>
<path d="M29.0754 14.3615C28.3367 8.3906 23.6033 3.65867 17.6323 2.91867C17.4449 2.89544 17.2815 3.04338 17.2814 3.23222L17.2802 5.01968C17.2801 5.18184 17.4018 5.31798 17.5622 5.34142C22.2553 6.02718 25.9667 9.73714 26.651 14.4302C26.6744 14.5906 26.8105 14.7124 26.9726 14.7124H28.7616C28.9505 14.7124 29.0986 14.549 29.0754 14.3615Z" fill="white"/>
<path d="M2.91866 14.3615C3.6573 8.3906 8.39074 3.65867 14.3617 2.91867C14.5491 2.89544 14.7125 3.04338 14.7127 3.23222L14.7139 5.01968C14.714 5.18184 14.5923 5.31798 14.4318 5.34142C9.73868 6.02718 6.02728 9.73714 5.34299 14.4302C5.3196 14.5906 5.18356 14.7124 5.02145 14.7124H3.23243C3.04353 14.7124 2.89547 14.549 2.91866 14.3615Z" fill="white"/>
<path d="M2.91866 14.3615C3.6573 8.3906 8.39074 3.65867 14.3617 2.91867C14.5491 2.89544 14.7125 3.04338 14.7127 3.23222L14.7139 5.01968C14.714 5.18184 14.5923 5.31798 14.4318 5.34142C9.73868 6.02718 6.02728 9.73714 5.34299 14.4302C5.3196 14.5906 5.18356 14.7124 5.02145 14.7124H3.23243C3.04353 14.7124 2.89547 14.549 2.91866 14.3615Z" fill="white"/>
<path d="M13.0834 9.43457C13.2004 9.43457 13.3062 9.50405 13.3529 9.61133L15.9613 15.5957L18.5668 9.61133C18.6135 9.50408 18.7193 9.43461 18.8363 9.43457H21.8246C22.0477 9.43457 22.1899 9.67319 22.0834 9.86914L18.7162 16.0518H21.4379C21.6001 16.0519 21.7317 16.1835 21.7318 16.3457V17.5225C21.7318 17.6848 21.6002 17.8163 21.4379 17.8164H17.7611V18.8457H21.4379C21.6001 18.8458 21.7316 18.9774 21.7318 19.1396V20.3164C21.7318 20.4788 21.6002 20.6103 21.4379 20.6104H17.7611V23.5518C17.761 23.7141 17.6295 23.8457 17.4672 23.8457H14.2318C14.0696 23.8455 13.938 23.714 13.9379 23.5518V20.6104H10.556C10.3936 20.6104 10.2621 20.4788 10.2621 20.3164V19.1396C10.2623 18.9774 10.3937 18.8457 10.556 18.8457H13.9379V17.8164H10.556C10.3936 17.8164 10.2621 17.6849 10.2621 17.5225V16.3457C10.2622 16.1834 10.3937 16.0518 10.556 16.0518H13.2035L9.83631 9.86914C9.72991 9.67322 9.87206 9.43457 10.0951 9.43457H13.0834Z" fill="white"/>
</svg>
