<svg xmlns="http://www.w3.org/2000/svg" width="40" height="40" viewBox="0 0 40 40"><circle cx="20" cy="20" r="20" fill="#fff4dd"/><rect x="6" y="6" width="28" height="28" rx="7.9799999999999995" ry="7.9799999999999995" fill="#ffb81c"/><g transform="translate(11.32, 12.158148148148147)"><svg width="17.36" height="15.683703703703705" viewBox="0 0 1512 1366" xmlns="http://www.w3.org/2000/svg"><path xmlns="http://www.w3.org/2000/svg" fill="#ffffff" fill-rule="evenodd" d="M1511.5 300.5c0 213.3-167.2 473.9-403.4 683.7l-39.2 33.5c-239.8 200.6-542.9 348.1-817.3 348.1-161.3 0-251.2-83-251.2-201.7 0-94.6 49.5-189.1 123.3-273.3-43.8-88.7 10.4-205.2 104.9-296.3 156.8-153.3 423-269.8 555.6-269.8 35.7 0 55.3 17.3 55.3 40.4 0 30-32.3 65.7-54.2 65.7H783c-8.1 1.2-15-5.8-15-13.8 0-15 16.2-20.8 16.2-32.3 0-8.1-4.6-13.8-17.3-13.8-126.8 0-365.4 123.3-491 255.9-60 64.6-93.4 138.4-73.8 184.5 160.2-143 381.5-244.4 507.1-244.4 76.1 0 110.7 41.5 110.7 80.7 1.1 133.7-276.6 329.7-526.8 329.7-58.7 0-104.8-18.4-129.1-39.2-32.2 46.1-51.8 93.4-51.8 138.4 0 79.5 66.8 126.8 167.1 126.8 386.1 0 1131.9-546.5 1131.9-915.5 0-127.9-87.6-232.8-291.6-232.8C838.3 55 431.5 207.1 156 465.4c-39.2 36.9-56.5 61.1-70.3 61.1h-2.3c-8.1 0-13.9-6.9-12.7-15C70.7 437.7 599.7.8 1144.9.8c267.4 0 366.6 146.4 366.6 299.7M233.2 858.6c9.2 11.5 42.7 26.5 84.1 26.5 194.8 0 425.4-154.5 425.4-231.8 0-17.3-12.7-36.9-49.6-36.9-113 0-325 108.4-459.9 242.2"/></svg></g></svg>