<svg xmlns="http://www.w3.org/2000/svg" width="40" height="40" viewBox="0 0 40 40"><circle cx="20" cy="20" r="20" fill="#dae6ea"/><rect x="6" y="6" width="28" height="28" rx="7.9799999999999995" ry="7.9799999999999995" fill="#0b5875"/><g transform="translate(11.32, 11.32)"><svg width="17.36" height="17.36" viewBox="0 0 447 447" xmlns="http://www.w3.org/2000/svg">
<g xmlns="http://www.w3.org/2000/svg" fill="#ffffff">
<path d="M 216 124 L 215 125 L 209 125 L 208 126 L 203 126 L 202 127 L 198 127 L 197 128 L 195 128 L 194 129 L 192 129 L 191 130 L 189 130 L 188 131 L 186 131 L 185 132 L 184 132 L 183 133 L 182 133 L 181 134 L 180 134 L 179 135 L 178 135 L 177 136 L 176 136 L 175 137 L 174 137 L 173 138 L 172 138 L 170 140 L 169 140 L 166 143 L 165 143 L 162 146 L 161 146 L 156 151 L 155 151 L 154 152 L 154 153 L 153 154 L 152 154 L 151 155 L 151 156 L 146 161 L 146 162 L 143 165 L 143 166 L 141 168 L 141 169 L 139 171 L 139 172 L 138 173 L 138 174 L 136 176 L 136 177 L 135 178 L 135 179 L 134 180 L 134 182 L 133 183 L 133 184 L 132 185 L 132 186 L 131 187 L 131 189 L 130 190 L 130 192 L 129 193 L 129 195 L 128 196 L 128 198 L 127 199 L 127 203 L 126 204 L 126 210 L 125 211 L 125 236 L 126 237 L 126 243 L 127 244 L 127 247 L 128 248 L 128 251 L 129 252 L 129 254 L 130 255 L 130 257 L 131 258 L 131 260 L 132 261 L 132 262 L 133 263 L 133 264 L 134 265 L 134 266 L 135 267 L 135 268 L 136 269 L 136 270 L 137 271 L 137 272 L 138 273 L 138 274 L 140 276 L 140 277 L 142 279 L 142 280 L 144 282 L 144 283 L 148 287 L 148 288 L 158 298 L 159 298 L 163 302 L 164 302 L 167 305 L 168 305 L 170 307 L 171 307 L 172 308 L 173 308 L 175 310 L 176 310 L 177 311 L 178 311 L 179 312 L 180 312 L 181 313 L 183 313 L 184 314 L 185 314 L 186 315 L 187 315 L 188 316 L 190 316 L 191 317 L 193 317 L 194 318 L 197 318 L 198 319 L 200 319 L 201 320 L 207 320 L 208 321 L 214 321 L 215 322 L 219 322 L 220 321 L 231 321 L 232 320 L 237 320 L 238 319 L 242 319 L 243 318 L 246 318 L 247 317 L 249 317 L 250 316 L 252 316 L 253 315 L 255 315 L 256 314 L 258 314 L 259 313 L 260 313 L 261 312 L 262 312 L 263 311 L 265 311 L 266 310 L 267 310 L 268 309 L 269 309 L 270 308 L 271 308 L 272 307 L 273 307 L 275 305 L 276 305 L 278 303 L 279 303 L 281 301 L 282 301 L 285 298 L 286 298 L 301 283 L 301 282 L 304 279 L 304 278 L 305 277 L 305 276 L 307 274 L 307 271 L 306 270 L 306 269 L 305 269 L 304 268 L 303 268 L 302 267 L 301 267 L 300 268 L 299 268 L 296 271 L 296 272 L 294 274 L 294 275 L 289 280 L 289 281 L 285 285 L 284 285 L 278 291 L 277 291 L 275 293 L 274 293 L 271 296 L 270 296 L 269 297 L 268 297 L 266 299 L 265 299 L 264 300 L 263 300 L 262 301 L 261 301 L 260 302 L 259 302 L 258 303 L 256 303 L 255 304 L 254 304 L 253 305 L 251 305 L 250 306 L 248 306 L 247 307 L 245 307 L 244 308 L 241 308 L 240 309 L 236 309 L 235 310 L 231 310 L 230 311 L 215 311 L 214 310 L 207 310 L 206 309 L 202 309 L 201 308 L 199 308 L 198 307 L 196 307 L 195 306 L 192 306 L 191 305 L 190 305 L 189 304 L 188 304 L 187 303 L 186 303 L 185 302 L 183 302 L 181 300 L 180 300 L 179 299 L 178 299 L 176 297 L 175 297 L 173 295 L 172 295 L 169 292 L 168 292 L 154 278 L 154 277 L 151 274 L 151 273 L 149 271 L 149 270 L 148 269 L 148 268 L 146 266 L 146 265 L 145 264 L 145 263 L 144 262 L 144 261 L 143 260 L 143 259 L 142 258 L 142 257 L 141 256 L 141 254 L 140 253 L 140 251 L 139 250 L 139 248 L 138 247 L 138 245 L 137 244 L 137 239 L 136 238 L 136 231 L 135 230 L 135 216 L 136 215 L 136 208 L 137 207 L 137 203 L 138 202 L 138 199 L 139 198 L 139 196 L 140 195 L 140 193 L 141 192 L 141 190 L 142 189 L 142 188 L 143 187 L 143 186 L 144 185 L 144 184 L 145 183 L 145 182 L 146 181 L 146 180 L 147 179 L 147 178 L 149 176 L 149 175 L 151 173 L 151 172 L 154 169 L 154 168 L 168 154 L 169 154 L 171 152 L 172 152 L 175 149 L 176 149 L 177 148 L 178 148 L 180 146 L 181 146 L 182 145 L 183 145 L 184 144 L 185 144 L 186 143 L 187 143 L 188 142 L 189 142 L 190 141 L 192 141 L 193 140 L 195 140 L 196 139 L 199 139 L 200 138 L 202 138 L 203 137 L 207 137 L 208 136 L 215 136 L 216 135 L 230 135 L 231 136 L 242 136 L 245 133 L 245 130 L 244 129 L 244 128 L 242 126 L 238 126 L 237 125 L 230 125 L 229 124 Z"/>
<path d="M 214 102 L 213 103 L 206 103 L 205 104 L 200 104 L 199 105 L 196 105 L 195 106 L 191 106 L 190 107 L 188 107 L 187 108 L 185 108 L 184 109 L 182 109 L 181 110 L 179 110 L 178 111 L 177 111 L 176 112 L 175 112 L 174 113 L 173 113 L 172 114 L 170 114 L 169 115 L 168 115 L 166 117 L 165 117 L 164 118 L 163 118 L 162 119 L 161 119 L 159 121 L 158 121 L 157 122 L 156 122 L 153 125 L 152 125 L 149 128 L 148 128 L 141 135 L 140 135 L 135 140 L 135 141 L 129 147 L 129 148 L 126 151 L 126 152 L 123 155 L 123 156 L 122 157 L 122 158 L 120 160 L 120 161 L 118 163 L 118 164 L 117 165 L 117 166 L 116 167 L 116 168 L 115 169 L 115 170 L 114 171 L 114 172 L 113 173 L 113 175 L 112 176 L 112 177 L 111 178 L 111 179 L 110 180 L 110 182 L 109 183 L 109 185 L 108 186 L 108 188 L 107 189 L 107 192 L 106 193 L 106 196 L 105 197 L 105 201 L 104 202 L 104 208 L 103 209 L 103 236 L 104 237 L 104 243 L 105 244 L 105 248 L 106 249 L 106 253 L 107 254 L 107 256 L 108 257 L 108 259 L 109 260 L 109 262 L 110 263 L 110 265 L 111 266 L 111 268 L 112 269 L 112 270 L 113 271 L 113 272 L 114 273 L 114 275 L 116 277 L 116 278 L 117 279 L 117 280 L 118 281 L 118 282 L 119 283 L 119 284 L 121 286 L 121 287 L 122 288 L 122 289 L 124 291 L 124 292 L 127 295 L 127 296 L 130 299 L 130 300 L 145 315 L 146 315 L 150 319 L 151 319 L 154 322 L 155 322 L 157 324 L 158 324 L 159 325 L 160 325 L 162 327 L 163 327 L 164 328 L 165 328 L 166 329 L 167 329 L 169 331 L 170 331 L 171 332 L 173 332 L 174 333 L 175 333 L 176 334 L 177 334 L 178 335 L 179 335 L 180 336 L 182 336 L 183 337 L 186 337 L 187 338 L 189 338 L 190 339 L 192 339 L 193 340 L 196 340 L 197 341 L 201 341 L 202 342 L 209 342 L 210 343 L 220 343 L 221 344 L 227 344 L 228 343 L 237 343 L 238 342 L 244 342 L 245 341 L 249 341 L 250 340 L 254 340 L 255 339 L 257 339 L 258 338 L 260 338 L 261 337 L 263 337 L 264 336 L 266 336 L 267 335 L 268 335 L 269 334 L 271 334 L 272 333 L 273 333 L 274 332 L 275 332 L 276 331 L 277 331 L 278 330 L 279 330 L 280 329 L 281 329 L 282 328 L 283 328 L 285 326 L 286 326 L 288 324 L 289 324 L 290 323 L 291 323 L 294 320 L 295 320 L 298 317 L 299 317 L 317 299 L 317 298 L 320 295 L 320 294 L 323 291 L 323 290 L 324 289 L 324 288 L 326 286 L 326 285 L 328 283 L 328 282 L 329 281 L 329 280 L 330 279 L 330 278 L 331 277 L 331 276 L 332 275 L 332 274 L 333 273 L 333 271 L 334 270 L 334 269 L 335 268 L 335 267 L 336 266 L 336 264 L 337 263 L 337 260 L 336 259 L 336 258 L 335 257 L 334 257 L 333 256 L 331 256 L 330 257 L 329 257 L 327 259 L 327 261 L 326 262 L 326 263 L 325 264 L 325 266 L 324 267 L 324 268 L 323 269 L 323 270 L 322 271 L 322 272 L 321 273 L 321 274 L 319 276 L 319 277 L 318 278 L 318 279 L 317 280 L 317 281 L 315 283 L 315 284 L 313 286 L 313 287 L 310 290 L 310 291 L 305 296 L 305 297 L 304 298 L 303 298 L 303 299 L 299 303 L 298 303 L 291 310 L 290 310 L 287 313 L 286 313 L 284 315 L 283 315 L 281 317 L 280 317 L 279 318 L 278 318 L 277 319 L 276 319 L 274 321 L 273 321 L 272 322 L 270 322 L 269 323 L 268 323 L 267 324 L 266 324 L 265 325 L 263 325 L 262 326 L 261 326 L 260 327 L 258 327 L 257 328 L 255 328 L 254 329 L 251 329 L 250 330 L 247 330 L 246 331 L 240 331 L 239 332 L 230 332 L 229 333 L 216 333 L 215 332 L 206 332 L 205 331 L 200 331 L 199 330 L 196 330 L 195 329 L 193 329 L 192 328 L 190 328 L 189 327 L 186 327 L 185 326 L 183 326 L 182 325 L 181 325 L 180 324 L 179 324 L 178 323 L 177 323 L 176 322 L 174 322 L 172 320 L 171 320 L 170 319 L 169 319 L 168 318 L 167 318 L 165 316 L 164 316 L 162 314 L 161 314 L 159 312 L 158 312 L 155 309 L 154 309 L 136 291 L 136 290 L 133 287 L 133 286 L 131 284 L 131 283 L 129 281 L 129 280 L 128 279 L 128 278 L 127 277 L 127 276 L 125 274 L 125 273 L 124 272 L 124 271 L 123 270 L 123 268 L 122 267 L 122 266 L 121 265 L 121 264 L 120 263 L 120 261 L 119 260 L 119 258 L 118 257 L 118 255 L 117 254 L 117 252 L 116 251 L 116 248 L 115 247 L 115 242 L 114 241 L 114 235 L 113 234 L 113 212 L 114 211 L 114 205 L 115 204 L 115 199 L 116 198 L 116 195 L 117 194 L 117 192 L 118 191 L 118 189 L 119 188 L 119 186 L 120 185 L 120 183 L 121 182 L 121 180 L 122 179 L 122 178 L 123 177 L 123 176 L 124 175 L 124 174 L 125 173 L 125 172 L 126 171 L 126 170 L 128 168 L 128 167 L 129 166 L 129 165 L 131 163 L 131 162 L 133 160 L 133 159 L 136 156 L 136 155 L 141 150 L 141 149 L 142 148 L 143 148 L 143 147 L 147 143 L 148 143 L 148 142 L 149 141 L 150 141 L 155 136 L 156 136 L 159 133 L 160 133 L 162 131 L 163 131 L 165 129 L 166 129 L 167 128 L 168 128 L 169 127 L 170 127 L 172 125 L 173 125 L 174 124 L 176 124 L 177 123 L 178 123 L 179 122 L 180 122 L 181 121 L 182 121 L 183 120 L 185 120 L 186 119 L 188 119 L 189 118 L 191 118 L 192 117 L 195 117 L 196 116 L 198 116 L 199 115 L 204 115 L 205 114 L 213 114 L 214 113 L 229 113 L 230 114 L 237 114 L 238 115 L 244 115 L 245 116 L 248 116 L 249 117 L 252 117 L 253 118 L 255 118 L 256 119 L 258 119 L 259 120 L 261 120 L 262 121 L 263 121 L 264 122 L 266 122 L 267 123 L 269 123 L 270 124 L 272 124 L 273 123 L 274 123 L 276 121 L 276 116 L 274 114 L 273 114 L 272 113 L 271 113 L 270 112 L 268 112 L 267 111 L 266 111 L 265 110 L 263 110 L 262 109 L 260 109 L 259 108 L 257 108 L 256 107 L 254 107 L 253 106 L 249 106 L 248 105 L 245 105 L 244 104 L 239 104 L 238 103 L 231 103 L 230 102 Z"/>
<path d="M 218 80 L 217 81 L 205 81 L 204 82 L 199 82 L 198 83 L 194 83 L 193 84 L 190 84 L 189 85 L 185 85 L 184 86 L 182 86 L 181 87 L 179 87 L 178 88 L 176 88 L 175 89 L 173 89 L 172 90 L 171 90 L 170 91 L 168 91 L 167 92 L 166 92 L 165 93 L 164 93 L 163 94 L 162 94 L 161 95 L 160 95 L 159 96 L 158 96 L 157 97 L 155 97 L 153 99 L 152 99 L 151 100 L 150 100 L 148 102 L 147 102 L 145 104 L 144 104 L 142 106 L 141 106 L 138 109 L 137 109 L 134 112 L 133 112 L 128 117 L 127 117 L 117 127 L 117 128 L 111 134 L 111 135 L 108 138 L 108 139 L 106 141 L 106 142 L 104 144 L 104 145 L 102 147 L 102 148 L 100 150 L 100 151 L 99 152 L 99 153 L 98 154 L 98 155 L 97 156 L 97 157 L 96 158 L 96 159 L 95 160 L 95 161 L 93 163 L 93 165 L 92 166 L 92 167 L 91 168 L 91 170 L 90 171 L 90 172 L 89 173 L 89 175 L 88 176 L 88 178 L 87 179 L 87 181 L 86 182 L 86 184 L 85 185 L 85 188 L 84 189 L 84 193 L 83 194 L 83 198 L 82 199 L 82 204 L 81 205 L 81 215 L 80 216 L 80 227 L 81 228 L 81 241 L 82 242 L 82 247 L 83 248 L 83 251 L 84 252 L 84 256 L 85 257 L 85 261 L 86 262 L 86 264 L 87 265 L 87 266 L 88 267 L 88 270 L 89 271 L 89 273 L 90 274 L 90 275 L 91 276 L 91 278 L 92 279 L 92 280 L 93 281 L 93 282 L 94 283 L 94 284 L 95 285 L 95 286 L 96 287 L 96 288 L 97 289 L 97 290 L 98 291 L 98 292 L 99 293 L 99 294 L 100 295 L 100 296 L 102 298 L 102 299 L 104 301 L 104 302 L 106 304 L 106 305 L 108 307 L 108 308 L 111 311 L 111 312 L 117 318 L 117 319 L 127 329 L 128 329 L 134 335 L 135 335 L 137 337 L 138 337 L 141 340 L 142 340 L 144 342 L 145 342 L 147 344 L 148 344 L 150 346 L 151 346 L 152 347 L 153 347 L 155 349 L 157 349 L 158 350 L 159 350 L 161 352 L 162 352 L 163 353 L 165 353 L 166 354 L 167 354 L 168 355 L 169 355 L 170 356 L 172 356 L 173 357 L 175 357 L 176 358 L 178 358 L 179 359 L 181 359 L 182 360 L 184 360 L 185 361 L 188 361 L 189 362 L 193 362 L 194 363 L 198 363 L 199 364 L 204 364 L 205 365 L 217 365 L 218 366 L 226 366 L 227 365 L 240 365 L 241 364 L 246 364 L 247 363 L 250 363 L 251 362 L 255 362 L 256 361 L 259 361 L 260 360 L 263 360 L 264 359 L 265 359 L 266 358 L 268 358 L 269 357 L 271 357 L 272 356 L 274 356 L 275 355 L 276 355 L 277 354 L 278 354 L 279 353 L 281 353 L 282 352 L 283 352 L 285 350 L 286 350 L 287 349 L 288 349 L 289 348 L 290 348 L 292 346 L 293 346 L 294 345 L 295 345 L 297 343 L 298 343 L 301 340 L 302 340 L 304 338 L 305 338 L 309 334 L 310 334 L 315 329 L 316 329 L 329 316 L 329 315 L 334 310 L 334 309 L 337 306 L 337 305 L 340 302 L 340 301 L 342 299 L 342 298 L 344 296 L 344 295 L 346 293 L 346 292 L 347 291 L 347 290 L 348 289 L 348 288 L 350 286 L 350 284 L 352 282 L 352 280 L 353 279 L 353 278 L 354 277 L 354 276 L 355 275 L 355 274 L 356 273 L 356 271 L 357 270 L 357 269 L 358 268 L 358 266 L 359 265 L 359 263 L 360 262 L 360 260 L 361 259 L 361 256 L 362 255 L 362 251 L 363 250 L 363 247 L 364 246 L 364 241 L 365 240 L 365 226 L 363 224 L 362 224 L 361 223 L 359 223 L 357 225 L 356 225 L 356 226 L 355 227 L 355 236 L 354 237 L 354 242 L 353 243 L 353 248 L 352 249 L 352 252 L 351 253 L 351 256 L 350 257 L 350 259 L 349 260 L 349 262 L 348 263 L 348 265 L 347 266 L 347 267 L 346 268 L 346 270 L 345 271 L 345 272 L 344 273 L 344 274 L 343 275 L 343 276 L 342 277 L 342 278 L 341 279 L 341 280 L 340 281 L 340 282 L 339 283 L 339 284 L 338 285 L 338 286 L 336 288 L 336 289 L 335 290 L 335 291 L 332 294 L 332 295 L 330 297 L 330 298 L 327 301 L 327 302 L 322 307 L 322 308 L 307 323 L 306 323 L 302 327 L 301 327 L 297 331 L 296 331 L 294 333 L 293 333 L 291 335 L 290 335 L 288 337 L 287 337 L 286 338 L 285 338 L 283 340 L 282 340 L 281 341 L 280 341 L 279 342 L 278 342 L 277 343 L 276 343 L 275 344 L 274 344 L 273 345 L 271 345 L 270 346 L 269 346 L 268 347 L 266 347 L 265 348 L 263 348 L 262 349 L 260 349 L 259 350 L 257 350 L 256 351 L 253 351 L 252 352 L 247 352 L 246 353 L 241 353 L 240 354 L 235 354 L 234 355 L 213 355 L 212 354 L 205 354 L 204 353 L 199 353 L 198 352 L 194 352 L 193 351 L 189 351 L 188 350 L 187 350 L 186 349 L 183 349 L 182 348 L 180 348 L 179 347 L 177 347 L 176 346 L 175 346 L 174 345 L 172 345 L 171 344 L 170 344 L 169 343 L 168 343 L 167 342 L 166 342 L 165 341 L 164 341 L 163 340 L 162 340 L 161 339 L 160 339 L 159 338 L 158 338 L 156 336 L 155 336 L 154 335 L 153 335 L 151 333 L 150 333 L 148 331 L 147 331 L 144 328 L 143 328 L 140 325 L 139 325 L 121 307 L 121 306 L 118 303 L 118 302 L 115 299 L 115 298 L 113 296 L 113 295 L 111 293 L 111 292 L 110 291 L 110 290 L 108 288 L 108 287 L 107 286 L 107 285 L 106 284 L 106 283 L 105 282 L 105 281 L 104 280 L 104 279 L 103 278 L 103 277 L 102 276 L 102 275 L 101 274 L 101 272 L 100 271 L 100 270 L 99 269 L 99 267 L 98 266 L 98 264 L 97 263 L 97 260 L 96 259 L 96 258 L 95 257 L 95 253 L 94 252 L 94 248 L 93 247 L 93 242 L 92 241 L 92 234 L 91 233 L 91 211 L 92 210 L 92 205 L 93 204 L 93 199 L 94 198 L 94 194 L 95 193 L 95 189 L 96 188 L 96 186 L 97 185 L 97 183 L 98 182 L 98 180 L 99 179 L 99 177 L 100 176 L 100 175 L 101 174 L 101 172 L 102 171 L 102 170 L 103 169 L 103 168 L 104 167 L 104 166 L 105 165 L 105 164 L 106 163 L 106 162 L 107 161 L 107 160 L 108 159 L 108 158 L 110 156 L 110 155 L 111 154 L 111 153 L 112 152 L 112 151 L 115 148 L 115 147 L 118 144 L 118 143 L 121 140 L 121 139 L 138 122 L 139 122 L 143 118 L 144 118 L 147 115 L 148 115 L 151 112 L 152 112 L 153 111 L 154 111 L 156 109 L 157 109 L 158 108 L 159 108 L 160 107 L 161 107 L 163 105 L 164 105 L 165 104 L 167 104 L 168 103 L 169 103 L 170 102 L 171 102 L 172 101 L 174 101 L 175 100 L 176 100 L 177 99 L 179 99 L 180 98 L 182 98 L 183 97 L 185 97 L 186 96 L 188 96 L 189 95 L 193 95 L 194 94 L 198 94 L 199 93 L 204 93 L 205 92 L 212 92 L 213 91 L 233 91 L 234 92 L 240 92 L 241 93 L 246 93 L 247 94 L 251 94 L 252 95 L 255 95 L 256 96 L 258 96 L 259 97 L 261 97 L 262 98 L 265 98 L 266 99 L 268 99 L 269 100 L 270 100 L 271 101 L 272 101 L 273 102 L 275 102 L 276 103 L 277 103 L 278 104 L 279 104 L 280 105 L 281 105 L 282 106 L 283 106 L 284 107 L 285 107 L 287 109 L 288 109 L 289 110 L 290 110 L 292 112 L 293 112 L 294 113 L 299 113 L 301 111 L 301 110 L 302 109 L 302 106 L 298 102 L 297 102 L 296 101 L 295 101 L 294 100 L 293 100 L 291 98 L 290 98 L 289 97 L 288 97 L 287 96 L 286 96 L 285 95 L 284 95 L 283 94 L 282 94 L 281 93 L 279 93 L 278 92 L 277 92 L 276 91 L 275 91 L 274 90 L 273 90 L 272 89 L 270 89 L 269 88 L 267 88 L 266 87 L 264 87 L 263 86 L 261 86 L 260 85 L 257 85 L 256 84 L 251 84 L 250 83 L 247 83 L 246 82 L 241 82 L 240 81 L 228 81 L 227 80 Z"/>
<path d="M 218 58 L 217 59 L 205 59 L 204 60 L 197 60 L 196 61 L 192 61 L 191 62 L 187 62 L 186 63 L 183 63 L 182 64 L 179 64 L 178 65 L 175 65 L 174 66 L 173 66 L 172 67 L 170 67 L 169 68 L 167 68 L 166 69 L 164 69 L 163 70 L 162 70 L 161 71 L 159 71 L 158 72 L 157 72 L 156 73 L 155 73 L 154 74 L 153 74 L 152 75 L 151 75 L 150 76 L 149 76 L 148 77 L 147 77 L 146 78 L 145 78 L 144 79 L 143 79 L 141 81 L 140 81 L 139 82 L 138 82 L 136 84 L 135 84 L 134 85 L 133 85 L 131 87 L 130 87 L 128 89 L 127 89 L 124 92 L 123 92 L 119 96 L 118 96 L 110 104 L 109 104 L 109 105 L 108 106 L 107 106 L 106 107 L 106 108 L 105 109 L 104 109 L 104 110 L 96 118 L 96 119 L 93 122 L 93 123 L 89 127 L 89 128 L 87 130 L 87 131 L 85 133 L 85 134 L 84 135 L 84 136 L 82 138 L 82 139 L 81 140 L 81 141 L 80 142 L 80 143 L 78 145 L 78 146 L 77 147 L 77 148 L 76 149 L 76 150 L 75 151 L 75 152 L 74 153 L 74 154 L 73 155 L 73 156 L 72 157 L 72 159 L 71 160 L 71 162 L 70 163 L 70 164 L 69 165 L 69 166 L 68 167 L 68 169 L 67 170 L 67 173 L 66 174 L 66 176 L 65 177 L 65 179 L 64 180 L 64 183 L 63 184 L 63 187 L 62 188 L 62 192 L 61 193 L 61 198 L 60 199 L 60 207 L 59 208 L 59 237 L 60 238 L 60 246 L 61 247 L 61 252 L 62 253 L 62 257 L 63 258 L 63 261 L 64 262 L 64 266 L 65 267 L 65 269 L 66 270 L 66 272 L 67 273 L 67 275 L 68 276 L 68 279 L 69 280 L 69 281 L 70 282 L 70 283 L 71 284 L 71 286 L 72 287 L 72 288 L 73 289 L 73 291 L 75 293 L 75 295 L 76 296 L 76 297 L 77 298 L 77 299 L 78 300 L 78 301 L 80 303 L 80 304 L 81 305 L 81 306 L 82 307 L 82 308 L 84 310 L 84 311 L 86 313 L 86 314 L 88 316 L 88 317 L 90 319 L 90 320 L 93 323 L 93 324 L 97 328 L 97 329 L 118 350 L 119 350 L 122 353 L 123 353 L 126 356 L 127 356 L 129 358 L 130 358 L 133 361 L 134 361 L 135 362 L 136 362 L 138 364 L 139 364 L 140 365 L 141 365 L 143 367 L 144 367 L 145 368 L 146 368 L 147 369 L 148 369 L 149 370 L 150 370 L 151 371 L 152 371 L 153 372 L 154 372 L 155 373 L 156 373 L 157 374 L 158 374 L 159 375 L 161 375 L 162 376 L 163 376 L 164 377 L 166 377 L 167 378 L 169 378 L 170 379 L 172 379 L 173 380 L 175 380 L 176 381 L 178 381 L 179 382 L 183 382 L 184 383 L 187 383 L 188 384 L 191 384 L 192 385 L 196 385 L 197 386 L 205 386 L 206 387 L 237 387 L 238 386 L 245 386 L 246 385 L 250 385 L 251 384 L 255 384 L 256 383 L 259 383 L 260 382 L 264 382 L 265 381 L 267 381 L 268 380 L 271 380 L 272 379 L 274 379 L 275 378 L 277 378 L 278 377 L 280 377 L 281 376 L 282 376 L 283 375 L 285 375 L 286 374 L 287 374 L 288 373 L 289 373 L 290 372 L 291 372 L 292 371 L 294 371 L 295 370 L 296 370 L 297 369 L 298 369 L 299 368 L 300 368 L 301 367 L 302 367 L 303 366 L 304 366 L 306 364 L 307 364 L 308 363 L 309 363 L 311 361 L 312 361 L 314 359 L 315 359 L 316 358 L 317 358 L 319 356 L 320 356 L 323 353 L 324 353 L 327 350 L 328 350 L 348 330 L 348 329 L 353 324 L 353 323 L 356 320 L 356 319 L 358 317 L 358 316 L 360 314 L 360 313 L 362 311 L 362 310 L 364 308 L 364 307 L 365 306 L 365 305 L 366 304 L 366 303 L 368 301 L 368 300 L 369 299 L 369 298 L 370 297 L 370 296 L 371 295 L 371 294 L 372 293 L 372 292 L 373 291 L 373 289 L 374 288 L 374 287 L 375 286 L 375 285 L 376 284 L 376 282 L 377 281 L 377 279 L 378 278 L 378 276 L 379 275 L 379 273 L 380 272 L 380 271 L 381 270 L 381 267 L 382 266 L 382 263 L 383 262 L 383 258 L 384 257 L 384 254 L 385 253 L 385 248 L 386 247 L 386 239 L 387 238 L 387 211 L 386 210 L 386 204 L 384 202 L 383 202 L 382 201 L 381 201 L 380 202 L 379 202 L 376 205 L 376 210 L 377 211 L 377 237 L 376 238 L 376 245 L 375 246 L 375 250 L 374 251 L 374 256 L 373 257 L 373 260 L 372 261 L 372 264 L 371 265 L 371 267 L 370 268 L 370 270 L 369 271 L 369 273 L 368 274 L 368 276 L 367 277 L 367 279 L 366 280 L 366 281 L 365 282 L 365 284 L 364 285 L 364 286 L 363 287 L 363 288 L 362 289 L 362 290 L 361 291 L 361 292 L 360 293 L 360 294 L 359 295 L 359 296 L 358 297 L 358 298 L 356 300 L 356 301 L 355 302 L 355 303 L 353 305 L 353 306 L 351 308 L 351 309 L 349 311 L 349 312 L 347 314 L 347 315 L 343 319 L 343 320 L 334 329 L 334 330 L 333 331 L 332 331 L 322 341 L 321 341 L 317 345 L 316 345 L 314 347 L 313 347 L 311 349 L 310 349 L 308 351 L 307 351 L 306 352 L 305 352 L 303 354 L 302 354 L 301 355 L 300 355 L 298 357 L 297 357 L 296 358 L 295 358 L 294 359 L 293 359 L 292 360 L 291 360 L 290 361 L 289 361 L 288 362 L 287 362 L 286 363 L 284 363 L 283 364 L 282 364 L 281 365 L 280 365 L 279 366 L 277 366 L 276 367 L 275 367 L 274 368 L 272 368 L 271 369 L 268 369 L 267 370 L 265 370 L 264 371 L 262 371 L 261 372 L 259 372 L 258 373 L 254 373 L 253 374 L 249 374 L 248 375 L 243 375 L 242 376 L 233 376 L 232 377 L 212 377 L 211 376 L 203 376 L 202 375 L 196 375 L 195 374 L 192 374 L 191 373 L 187 373 L 186 372 L 183 372 L 182 371 L 179 371 L 178 370 L 176 370 L 175 369 L 173 369 L 172 368 L 170 368 L 169 367 L 168 367 L 167 366 L 165 366 L 164 365 L 163 365 L 162 364 L 160 364 L 159 363 L 158 363 L 156 361 L 154 361 L 153 360 L 152 360 L 151 359 L 150 359 L 148 357 L 147 357 L 146 356 L 145 356 L 143 354 L 142 354 L 140 352 L 139 352 L 138 351 L 137 351 L 135 349 L 134 349 L 131 346 L 130 346 L 126 342 L 125 342 L 118 335 L 117 335 L 115 333 L 115 332 L 114 331 L 113 331 L 111 329 L 111 328 L 103 320 L 103 319 L 100 316 L 100 315 L 97 312 L 97 311 L 95 309 L 95 308 L 93 306 L 93 305 L 91 303 L 91 302 L 90 301 L 90 300 L 89 299 L 89 298 L 87 296 L 87 295 L 86 294 L 86 293 L 85 292 L 85 290 L 83 288 L 83 287 L 82 286 L 82 284 L 81 283 L 81 282 L 80 281 L 80 279 L 79 278 L 79 277 L 78 276 L 78 274 L 77 273 L 77 271 L 76 270 L 76 267 L 75 266 L 75 264 L 74 263 L 74 261 L 73 260 L 73 255 L 72 254 L 72 251 L 71 250 L 71 245 L 70 244 L 70 234 L 69 233 L 69 211 L 70 210 L 70 202 L 71 201 L 71 196 L 72 195 L 72 191 L 73 190 L 73 186 L 74 185 L 74 183 L 75 182 L 75 179 L 76 178 L 76 176 L 77 175 L 77 173 L 78 172 L 78 170 L 79 169 L 79 168 L 80 167 L 80 165 L 81 164 L 81 163 L 82 162 L 82 160 L 83 159 L 83 158 L 84 157 L 84 156 L 85 155 L 85 154 L 86 153 L 86 152 L 87 151 L 87 150 L 89 148 L 89 147 L 90 146 L 90 145 L 91 144 L 91 143 L 93 141 L 93 140 L 95 138 L 95 137 L 97 135 L 97 134 L 100 131 L 100 130 L 103 127 L 103 126 L 112 117 L 112 116 L 113 115 L 114 115 L 115 114 L 115 113 L 117 111 L 118 111 L 125 104 L 126 104 L 130 100 L 131 100 L 133 98 L 134 98 L 137 95 L 138 95 L 140 93 L 141 93 L 143 91 L 144 91 L 145 90 L 146 90 L 147 89 L 148 89 L 150 87 L 151 87 L 152 86 L 153 86 L 154 85 L 155 85 L 156 84 L 157 84 L 158 83 L 159 83 L 160 82 L 162 82 L 163 81 L 164 81 L 165 80 L 167 80 L 168 79 L 169 79 L 170 78 L 172 78 L 173 77 L 175 77 L 176 76 L 178 76 L 179 75 L 182 75 L 183 74 L 185 74 L 186 73 L 190 73 L 191 72 L 195 72 L 196 71 L 201 71 L 202 70 L 212 70 L 213 69 L 232 69 L 233 70 L 243 70 L 244 71 L 249 71 L 250 72 L 254 72 L 255 73 L 259 73 L 260 74 L 263 74 L 264 75 L 266 75 L 267 76 L 269 76 L 270 77 L 272 77 L 273 78 L 275 78 L 276 79 L 278 79 L 279 80 L 280 80 L 281 81 L 283 81 L 284 82 L 285 82 L 286 83 L 287 83 L 288 84 L 289 84 L 290 85 L 291 85 L 292 86 L 294 86 L 295 87 L 296 87 L 298 89 L 299 89 L 300 90 L 301 90 L 302 91 L 303 91 L 305 93 L 306 93 L 308 95 L 309 95 L 311 97 L 312 97 L 314 99 L 315 99 L 319 103 L 320 103 L 327 110 L 328 110 L 330 112 L 331 112 L 332 113 L 335 113 L 336 112 L 337 112 L 338 111 L 338 110 L 339 109 L 339 107 L 338 106 L 338 105 L 331 98 L 330 98 L 325 93 L 324 93 L 321 90 L 320 90 L 318 88 L 317 88 L 315 86 L 314 86 L 312 84 L 311 84 L 309 82 L 308 82 L 307 81 L 306 81 L 305 80 L 304 80 L 302 78 L 301 78 L 300 77 L 299 77 L 298 76 L 297 76 L 296 75 L 295 75 L 294 74 L 293 74 L 292 73 L 291 73 L 290 72 L 288 72 L 287 71 L 286 71 L 285 70 L 283 70 L 282 69 L 281 69 L 280 68 L 278 68 L 277 67 L 275 67 L 274 66 L 272 66 L 271 65 L 269 65 L 268 64 L 264 64 L 263 63 L 260 63 L 259 62 L 256 62 L 255 61 L 251 61 L 250 60 L 242 60 L 241 59 L 229 59 L 228 58 L 227 59 L 226 58 L 220 58 L 219 59 Z"/>
<path d="M 207 37 L 206 38 L 198 38 L 197 39 L 190 39 L 189 40 L 186 40 L 185 41 L 181 41 L 180 42 L 177 42 L 176 43 L 173 43 L 172 44 L 170 44 L 169 45 L 167 45 L 166 46 L 164 46 L 163 47 L 161 47 L 160 48 L 158 48 L 157 49 L 156 49 L 155 50 L 153 50 L 152 51 L 151 51 L 150 52 L 148 52 L 147 53 L 146 53 L 145 54 L 144 54 L 143 55 L 142 55 L 141 56 L 139 56 L 137 58 L 136 58 L 135 59 L 134 59 L 133 60 L 132 60 L 131 61 L 130 61 L 128 63 L 127 63 L 126 64 L 125 64 L 123 66 L 122 66 L 120 68 L 119 68 L 117 70 L 116 70 L 114 72 L 113 72 L 110 75 L 109 75 L 105 79 L 104 79 L 98 85 L 97 85 L 84 98 L 84 99 L 80 103 L 80 104 L 75 109 L 75 110 L 72 113 L 72 114 L 69 117 L 69 118 L 68 119 L 68 120 L 65 123 L 65 124 L 64 125 L 64 126 L 63 127 L 63 128 L 61 130 L 61 131 L 60 132 L 60 133 L 59 134 L 59 135 L 57 137 L 57 138 L 56 139 L 56 140 L 55 141 L 55 143 L 54 144 L 54 145 L 53 146 L 53 147 L 52 148 L 52 149 L 51 150 L 51 152 L 50 153 L 50 154 L 49 155 L 49 156 L 48 157 L 48 159 L 47 160 L 47 162 L 46 163 L 46 165 L 45 166 L 45 168 L 44 169 L 44 171 L 43 172 L 43 175 L 42 176 L 42 180 L 41 181 L 41 184 L 40 185 L 40 188 L 39 189 L 39 194 L 38 195 L 38 203 L 37 204 L 37 217 L 36 218 L 36 225 L 37 226 L 37 242 L 38 243 L 38 251 L 39 252 L 39 257 L 40 258 L 40 262 L 41 263 L 41 266 L 42 267 L 42 270 L 43 271 L 43 274 L 44 275 L 44 277 L 45 278 L 45 280 L 46 281 L 46 283 L 47 284 L 47 286 L 48 287 L 48 289 L 49 290 L 49 291 L 50 292 L 50 294 L 51 295 L 51 296 L 52 297 L 52 299 L 53 300 L 53 301 L 54 302 L 54 303 L 55 304 L 55 305 L 56 306 L 56 307 L 57 308 L 57 309 L 58 310 L 58 311 L 59 312 L 59 313 L 60 314 L 60 315 L 62 317 L 62 318 L 63 319 L 63 320 L 65 322 L 65 323 L 67 325 L 67 326 L 68 327 L 68 328 L 71 331 L 71 332 L 74 335 L 74 336 L 77 339 L 77 340 L 81 344 L 81 345 L 99 363 L 100 363 L 105 368 L 106 368 L 110 372 L 111 372 L 114 375 L 115 375 L 117 377 L 118 377 L 120 379 L 121 379 L 123 381 L 124 381 L 126 383 L 127 383 L 128 384 L 129 384 L 131 386 L 132 386 L 133 387 L 134 387 L 135 388 L 136 388 L 137 389 L 138 389 L 139 390 L 140 390 L 141 391 L 142 391 L 143 392 L 144 392 L 145 393 L 146 393 L 147 394 L 149 394 L 150 395 L 151 395 L 152 396 L 154 396 L 155 397 L 156 397 L 157 398 L 159 398 L 160 399 L 162 399 L 163 400 L 165 400 L 166 401 L 168 401 L 169 402 L 171 402 L 172 403 L 175 403 L 176 404 L 179 404 L 180 405 L 184 405 L 185 406 L 188 406 L 189 407 L 194 407 L 195 408 L 202 408 L 203 409 L 219 409 L 220 410 L 226 410 L 227 409 L 243 409 L 244 408 L 251 408 L 252 407 L 257 407 L 258 406 L 261 406 L 262 405 L 265 405 L 266 404 L 270 404 L 271 403 L 274 403 L 275 402 L 277 402 L 278 401 L 280 401 L 281 400 L 283 400 L 284 399 L 286 399 L 287 398 L 289 398 L 290 397 L 291 397 L 292 396 L 293 396 L 294 395 L 296 395 L 297 394 L 298 394 L 299 393 L 300 393 L 301 392 L 302 392 L 303 391 L 305 391 L 306 390 L 307 390 L 308 389 L 309 389 L 310 388 L 311 388 L 313 386 L 314 386 L 315 385 L 316 385 L 317 384 L 318 384 L 320 382 L 321 382 L 322 381 L 323 381 L 325 379 L 326 379 L 328 377 L 329 377 L 331 375 L 332 375 L 335 372 L 336 372 L 340 368 L 341 368 L 347 362 L 348 362 L 362 348 L 362 347 L 367 342 L 367 341 L 369 339 L 369 338 L 372 335 L 372 334 L 374 332 L 374 331 L 376 329 L 376 328 L 378 326 L 378 325 L 379 324 L 379 323 L 381 321 L 381 320 L 382 319 L 382 318 L 383 317 L 383 316 L 385 314 L 385 313 L 386 312 L 386 311 L 387 310 L 387 309 L 388 308 L 388 307 L 389 306 L 389 305 L 390 304 L 390 303 L 391 302 L 391 301 L 392 300 L 392 298 L 393 297 L 393 296 L 394 295 L 394 294 L 395 293 L 395 291 L 396 290 L 396 288 L 397 287 L 397 286 L 398 285 L 398 283 L 399 282 L 399 280 L 400 279 L 400 277 L 401 276 L 401 274 L 402 273 L 402 271 L 403 270 L 403 267 L 404 266 L 404 263 L 405 262 L 405 259 L 406 258 L 406 254 L 407 253 L 407 248 L 408 247 L 408 240 L 409 239 L 409 224 L 410 223 L 410 222 L 409 221 L 409 206 L 408 205 L 408 198 L 407 197 L 407 191 L 406 190 L 406 186 L 405 185 L 405 182 L 404 181 L 404 178 L 403 177 L 403 174 L 402 173 L 402 170 L 401 169 L 401 167 L 400 166 L 400 164 L 399 163 L 399 162 L 398 161 L 398 160 L 396 158 L 391 158 L 390 159 L 390 160 L 389 161 L 389 165 L 390 166 L 390 168 L 391 169 L 391 171 L 392 172 L 392 174 L 393 175 L 393 177 L 394 178 L 394 181 L 395 182 L 395 186 L 396 187 L 396 191 L 397 192 L 397 197 L 398 198 L 398 208 L 399 209 L 399 231 L 398 232 L 398 241 L 397 242 L 397 248 L 396 249 L 396 253 L 395 254 L 395 258 L 394 259 L 394 263 L 393 264 L 393 267 L 392 268 L 392 270 L 391 271 L 391 273 L 390 274 L 390 277 L 389 278 L 389 280 L 388 281 L 388 283 L 387 284 L 387 285 L 386 286 L 386 288 L 385 289 L 385 291 L 384 292 L 384 293 L 383 294 L 383 295 L 382 296 L 382 297 L 381 298 L 381 299 L 380 300 L 380 302 L 379 303 L 379 304 L 377 306 L 377 307 L 376 308 L 376 309 L 375 310 L 375 311 L 374 312 L 374 313 L 373 314 L 373 315 L 371 317 L 371 318 L 369 320 L 369 321 L 368 322 L 368 323 L 365 326 L 365 327 L 364 328 L 364 329 L 361 332 L 361 333 L 359 335 L 358 335 L 358 336 L 349 345 L 349 346 L 348 347 L 347 347 L 347 348 L 346 349 L 345 349 L 345 350 L 344 351 L 343 351 L 336 358 L 335 358 L 330 363 L 329 363 L 327 365 L 326 365 L 323 368 L 322 368 L 320 370 L 319 370 L 317 372 L 316 372 L 315 373 L 314 373 L 312 375 L 311 375 L 310 376 L 309 376 L 308 377 L 307 377 L 305 379 L 304 379 L 303 380 L 302 380 L 301 381 L 300 381 L 299 382 L 298 382 L 297 383 L 296 383 L 295 384 L 293 384 L 292 385 L 291 385 L 290 386 L 288 386 L 287 387 L 286 387 L 285 388 L 283 388 L 282 389 L 280 389 L 279 390 L 277 390 L 276 391 L 274 391 L 273 392 L 271 392 L 270 393 L 267 393 L 266 394 L 262 394 L 261 395 L 257 395 L 256 396 L 252 396 L 251 397 L 245 397 L 244 398 L 233 398 L 232 399 L 214 399 L 213 398 L 201 398 L 200 397 L 194 397 L 193 396 L 190 396 L 189 395 L 185 395 L 184 394 L 180 394 L 179 393 L 176 393 L 175 392 L 173 392 L 172 391 L 170 391 L 169 390 L 167 390 L 166 389 L 164 389 L 163 388 L 161 388 L 160 387 L 159 387 L 158 386 L 156 386 L 155 385 L 154 385 L 153 384 L 152 384 L 151 383 L 150 383 L 149 382 L 147 382 L 146 381 L 145 381 L 144 380 L 143 380 L 141 378 L 140 378 L 139 377 L 138 377 L 137 376 L 136 376 L 135 375 L 134 375 L 132 373 L 131 373 L 130 372 L 129 372 L 127 370 L 126 370 L 124 368 L 123 368 L 120 365 L 119 365 L 116 362 L 115 362 L 111 358 L 110 358 L 88 336 L 88 335 L 84 331 L 84 330 L 81 327 L 81 326 L 78 323 L 78 322 L 76 320 L 76 319 L 74 317 L 74 316 L 73 315 L 73 314 L 71 312 L 71 311 L 70 310 L 70 309 L 69 308 L 69 307 L 68 306 L 68 305 L 66 303 L 66 302 L 65 301 L 65 300 L 64 299 L 64 297 L 63 296 L 63 295 L 62 294 L 62 293 L 61 292 L 61 291 L 60 290 L 60 288 L 59 287 L 59 286 L 58 285 L 58 283 L 57 282 L 57 280 L 56 279 L 56 277 L 55 276 L 55 274 L 54 273 L 54 271 L 53 270 L 53 267 L 52 266 L 52 262 L 51 261 L 51 258 L 50 257 L 50 253 L 49 252 L 49 246 L 48 245 L 48 234 L 47 233 L 47 212 L 48 211 L 48 201 L 49 200 L 49 194 L 50 193 L 50 189 L 51 188 L 51 185 L 52 184 L 52 180 L 53 179 L 53 176 L 54 175 L 54 173 L 55 172 L 55 170 L 56 169 L 56 167 L 57 166 L 57 164 L 58 163 L 58 161 L 59 160 L 59 159 L 60 158 L 60 156 L 61 155 L 61 154 L 62 153 L 62 152 L 63 151 L 63 150 L 64 149 L 64 147 L 65 146 L 65 145 L 66 144 L 66 143 L 68 141 L 68 140 L 69 139 L 69 138 L 70 137 L 70 136 L 71 135 L 71 134 L 73 132 L 73 131 L 74 130 L 74 129 L 76 127 L 76 126 L 78 124 L 78 123 L 81 120 L 81 119 L 84 116 L 84 115 L 88 111 L 88 110 L 97 101 L 97 100 L 98 99 L 99 99 L 99 98 L 100 97 L 101 97 L 110 88 L 111 88 L 115 84 L 116 84 L 119 81 L 120 81 L 122 79 L 123 79 L 126 76 L 127 76 L 129 74 L 130 74 L 131 73 L 132 73 L 134 71 L 135 71 L 136 70 L 137 70 L 138 69 L 139 69 L 140 68 L 141 68 L 143 66 L 144 66 L 145 65 L 146 65 L 147 64 L 148 64 L 149 63 L 150 63 L 151 62 L 153 62 L 154 61 L 155 61 L 156 60 L 158 60 L 159 59 L 160 59 L 161 58 L 163 58 L 164 57 L 166 57 L 167 56 L 169 56 L 170 55 L 172 55 L 173 54 L 175 54 L 176 53 L 179 53 L 180 52 L 184 52 L 185 51 L 188 51 L 189 50 L 193 50 L 194 49 L 200 49 L 201 48 L 211 48 L 212 47 L 233 47 L 234 48 L 245 48 L 246 49 L 251 49 L 252 50 L 256 50 L 257 51 L 260 51 L 261 52 L 265 52 L 266 53 L 269 53 L 270 54 L 272 54 L 273 55 L 275 55 L 276 56 L 278 56 L 279 57 L 281 57 L 282 58 L 283 58 L 284 59 L 286 59 L 287 60 L 288 60 L 289 61 L 291 61 L 292 62 L 293 62 L 294 63 L 295 63 L 296 64 L 297 64 L 298 65 L 299 65 L 300 66 L 302 66 L 304 68 L 305 68 L 306 69 L 307 69 L 308 70 L 309 70 L 311 72 L 312 72 L 313 73 L 314 73 L 316 75 L 317 75 L 319 77 L 320 77 L 322 79 L 323 79 L 325 81 L 326 81 L 328 83 L 329 83 L 334 88 L 335 88 L 342 95 L 343 95 L 355 107 L 355 108 L 360 113 L 360 114 L 364 118 L 364 119 L 369 124 L 373 124 L 376 121 L 376 120 L 377 119 L 377 118 L 376 117 L 376 116 L 374 114 L 374 113 L 371 110 L 371 109 L 366 104 L 366 103 L 346 83 L 345 83 L 340 78 L 339 78 L 335 74 L 334 74 L 332 72 L 331 72 L 328 69 L 327 69 L 326 68 L 325 68 L 323 66 L 322 66 L 320 64 L 319 64 L 317 62 L 316 62 L 315 61 L 314 61 L 313 60 L 312 60 L 311 59 L 310 59 L 309 58 L 308 58 L 306 56 L 305 56 L 304 55 L 302 55 L 301 54 L 300 54 L 299 53 L 298 53 L 297 52 L 296 52 L 295 51 L 293 51 L 292 50 L 291 50 L 290 49 L 288 49 L 287 48 L 286 48 L 285 47 L 282 47 L 281 46 L 279 46 L 278 45 L 276 45 L 275 44 L 273 44 L 272 43 L 269 43 L 268 42 L 264 42 L 263 41 L 260 41 L 259 40 L 256 40 L 255 39 L 250 39 L 249 38 L 240 38 L 239 37 Z"/>
</g></svg></g></svg>