<svg width="32" height="32" viewBox="0 0 32 32" fill="none" xmlns="http://www.w3.org/2000/svg">
<rect width="32" height="32" rx="16" fill="#010304"/>
<path d="M24.8311 18.3555C24.3102 20.2995 23.1621 22.017 21.5654 23.2422C20.3346 24.1866 18.8903 24.7979 17.3711 25.0283V27.8857H14.6279V25.0283C13.1091 24.7978 11.6651 24.1864 10.4346 23.2422C8.8379 22.017 7.68984 20.2995 7.16895 18.3555L9.81836 17.6455C10.183 19.0063 10.9868 20.2088 12.1045 21.0664C13.2221 21.9239 14.5913 22.3887 16 22.3887C17.4087 22.3887 18.7779 21.9239 19.8955 21.0664C21.0132 20.2088 21.817 19.0063 22.1816 17.6455L24.8311 18.3555Z" fill="#FF7733"/>
<path fill-rule="evenodd" clip-rule="evenodd" d="M16 10.5C19.0376 10.5 21.5 12.9624 21.5 16C21.5 19.0376 19.0376 21.5 16 21.5C12.9624 21.5 10.5 19.0376 10.5 16C10.5 12.9624 12.9624 10.5 16 10.5ZM15.9521 12.2061C15.4193 12.2061 14.9399 12.3131 14.5137 12.5049C14.0874 12.6967 13.7569 12.9627 13.5225 13.3037C13.288 13.6447 13.1709 14.0395 13.1709 14.4658C13.171 14.9451 13.2665 15.3286 13.4795 15.6162C13.6926 15.9039 13.9589 16.1174 14.2998 16.2666C14.6301 16.4158 15.046 16.5329 15.5361 16.6182C16.0262 16.7247 16.3993 16.8101 16.6338 16.874C16.8682 16.938 17.0606 17.0341 17.1885 17.1514C17.3162 17.2686 17.3906 17.4284 17.3906 17.6201C17.3906 17.9077 17.2627 18.1312 17.0283 18.291C16.7939 18.4508 16.4851 18.5253 16.1123 18.5254C15.6542 18.5254 15.2917 18.419 15.0146 18.1953C14.7376 17.9715 14.5877 17.6728 14.5664 17.2998L13 17.2793C13.0001 17.7587 13.1389 18.1848 13.4053 18.5684C13.661 18.952 14.0233 19.2615 14.4922 19.4746C14.961 19.6877 15.4941 19.7939 16.0908 19.7939C16.6449 19.7939 17.1355 19.6985 17.583 19.4854C18.0305 19.2829 18.3712 19.0049 18.627 18.6426C18.872 18.2803 19 17.8751 19 17.417C18.9999 16.9485 18.8935 16.5758 18.6807 16.2988C18.4675 16.0217 18.2004 15.8085 17.8594 15.6699C17.5185 15.5315 17.0925 15.4142 16.6025 15.3184C16.1123 15.2331 15.7491 15.147 15.5146 15.083C15.2806 15.0191 15.0995 14.9238 14.9717 14.8174C14.8438 14.7108 14.7793 14.5501 14.7793 14.3477C14.7794 14.0708 14.8866 13.8581 15.0996 13.709C15.3128 13.5598 15.5898 13.4854 15.9521 13.4854C16.3356 13.4854 16.6445 13.5915 16.8789 13.7832C17.1134 13.975 17.2416 14.2311 17.2842 14.5508H18.8506C18.8399 14.1032 18.7118 13.709 18.4561 13.3467C18.2003 12.995 17.8598 12.7171 17.4229 12.5146C16.986 12.3122 16.4956 12.2061 15.9521 12.2061Z" fill="#FF7733"/>
<path d="M17.3711 6.96094C18.8903 7.1914 20.3347 7.80266 21.5654 8.74707C23.1621 9.97226 24.3102 11.6898 24.8311 13.6338L22.1816 14.3438C21.817 12.9829 21.0132 11.7805 19.8955 10.9229C18.7779 10.0653 17.4087 9.60059 16 9.60059C14.5913 9.60059 13.2221 10.0653 12.1045 10.9229C10.9868 11.7805 10.183 12.9829 9.81836 14.3438L7.16895 13.6338C7.68984 11.6898 8.83789 9.97226 10.4346 8.74707C11.6651 7.80284 13.109 7.1915 14.6279 6.96094V4.11426H17.3711V6.96094Z" fill="#FF7733"/>
</svg>
