<?xml version="1.0" encoding="UTF-8"?>
<!DOCTYPE svg PUBLIC "-//W3C//DTD SVG 1.1//EN" "http://www.w3.org/Graphics/SVG/1.1/DTD/svg11.dtd">
<svg xmlns="http://www.w3.org/2000/svg" version="1.1" width="101px" height="101px" style="shape-rendering:geometricPrecision; text-rendering:geometricPrecision; image-rendering:optimizeQuality; fill-rule:evenodd; clip-rule:evenodd" xmlns:xlink="http://www.w3.org/1999/xlink">
<g><path style="opacity:0.959" fill="#7f7afb" d="M 67.5,-0.5 C 68.5,-0.5 69.5,-0.5 70.5,-0.5C 82.5437,7.8767 92.5437,18.21 100.5,30.5C 100.5,31.1667 100.5,31.8333 100.5,32.5C 96.0355,36.4632 91.7022,40.6298 87.5,45C 86.8333,45.6667 86.1667,45.6667 85.5,45C 82.1163,38.2868 77.9496,32.1201 73,26.5C 67.2487,21.5831 61.082,17.2497 54.5,13.5C 58.8551,8.81309 63.1885,4.14642 67.5,-0.5 Z"/></g>
<g><path style="opacity:0.976" fill="#7e00c1" d="M -0.5,33.5 C -0.5,32.8333 -0.5,32.1667 -0.5,31.5C 7.26177,19.2373 17.2618,9.07068 29.5,1C 30.5,0.333333 31.5,0.333333 32.5,1C 37.0153,5.34821 41.3487,9.84821 45.5,14.5C 39.0863,18.082 33.0863,22.2486 27.5,27C 22.2197,33.1052 17.553,39.6052 13.5,46.5C 8.81309,42.1449 4.14642,37.8115 -0.5,33.5 Z"/></g>
<g><path style="opacity:0.939" fill="#7f00c1" d="M 40.5,36.5 C 48.048,39.6073 55.3813,43.274 62.5,47.5C 63.7219,49.9086 63.0553,51.742 60.5,53C 54.2521,56.3735 48.0855,59.8735 42,63.5C 40.5301,54.6684 40.0301,45.6684 40.5,36.5 Z"/></g>
<g><path style="opacity:0.954" fill="#7e7afb" d="M 69.5,100.5 C 68.5,100.5 67.5,100.5 66.5,100.5C 62.1885,95.8536 57.8551,91.1869 53.5,86.5C 67.8055,79.5278 78.4722,68.8612 85.5,54.5C 90.1518,58.6513 94.6518,62.9847 99,67.5C 99.6667,68.5 99.6667,69.5 99,70.5C 90.9725,82.3602 81.1391,92.3602 69.5,100.5 Z"/></g>
<g><path style="opacity:0.961" fill="#7f00c0" d="M 32.5,100.5 C 31.8333,100.5 31.1667,100.5 30.5,100.5C 18.21,92.5437 7.8767,82.5437 -0.5,70.5C -0.5,69.5 -0.5,68.5 -0.5,67.5C 4.14642,63.1885 8.81309,58.8551 13.5,54.5C 17.2497,61.082 21.5831,67.2487 26.5,73C 31.956,77.7845 37.956,81.7845 44.5,85C 45.4506,85.7175 45.6172,86.5509 45,87.5C 40.6298,91.7022 36.4632,96.0355 32.5,100.5 Z"/></g>
</svg>
