<svg xmlns="http://www.w3.org/2000/svg" width="40" height="40" viewBox="0 0 40 40"><circle cx="20" cy="20" r="20" fill="#d9e6ef"/><rect x="6" y="6" width="28" height="28" rx="7.9799999999999995" ry="7.9799999999999995" fill="#005696"/><g transform="translate(11.717600000000001, 11.32)"><svg width="16.564799999999998" height="17.36" viewBox="0 0 1479 1550" xmlns="http://www.w3.org/2000/svg"><path xmlns="http://www.w3.org/2000/svg" fill="#ffffff" d="M1202.3 1051.6c-152.6 0-275.9-123.2-275.9-275.7 0-152.6 123.3-275.8 275.9-275.8 152.5 0 275.8 123.2 275.8 275.8 0 152.5-123.3 275.7-275.8 275.7M790.9 775.8c-.5-192.1 148.5-388.1 411.3-379.4L1045.3 248C743 345.3 611.6 562.9 619.9 776v-2.4c-8.3 213.1 123.1 430.7 425.4 528l156.9-148.5c-262.7 8.8-411.8-187.3-411.3-379.4zm-460.1-2.1c0-38.2-27.6-407 464.3-773.7l150.6 142C506.9 326.5 506.9 676.3 500.5 775.8v-2.1c6.4 99.6 6.4 449.4 445.2 633.8l-150.6 142C303.2 1182.8 330.8 814 330.8 775.8zM0 775.8l288.4-273.4c-93.3 148.4-89.1 390.1-8.5 542.6z"/></svg></g></svg>