<?xml version="1.0" encoding="UTF-8"?>
<!DOCTYPE svg PUBLIC "-//W3C//DTD SVG 1.1//EN" "http://www.w3.org/Graphics/SVG/1.1/DTD/svg11.dtd">
<svg xmlns="http://www.w3.org/2000/svg" version="1.1" width="250px" height="250px" style="shape-rendering:geometricPrecision; text-rendering:geometricPrecision; image-rendering:optimizeQuality; fill-rule:evenodd; clip-rule:evenodd" xmlns:xlink="http://www.w3.org/1999/xlink">
<g><path style="opacity:0.993" fill="#fd2e53" d="M 108.5,-0.5 C 119.167,-0.5 129.833,-0.5 140.5,-0.5C 189.983,8.14049 224.15,35.8072 243,82.5C 245.827,91.1404 247.993,99.8071 249.5,108.5C 249.5,119.167 249.5,129.833 249.5,140.5C 240.86,189.983 213.193,224.15 166.5,243C 157.817,245.63 149.151,247.797 140.5,249.5C 129.833,249.5 119.167,249.5 108.5,249.5C 59.0172,240.86 24.8505,213.193 6,166.5C 3.17319,157.86 1.00652,149.193 -0.5,140.5C -0.5,129.833 -0.5,119.167 -0.5,108.5C 8.13923,59.0182 35.8059,24.8516 82.5,6C 91.1389,3.17356 99.8056,1.00689 108.5,-0.5 Z"/></g>
<g><path style="opacity:1" fill="#fec4cf" d="M 88.5,56.5 C 74.9895,56.1711 61.6562,56.5044 48.5,57.5C 47.9569,57.44 47.6236,57.1067 47.5,56.5C 61.3276,55.1745 74.9942,55.1745 88.5,56.5 Z"/></g>
<g><path style="opacity:1" fill="#fffdfd" d="M 88.5,56.5 C 103.802,73.9747 118.968,91.6414 134,109.5C 139.995,119.462 139.995,129.462 134,139.5C 118.968,157.359 103.802,175.025 88.5,192.5C 74.9895,192.829 61.6562,192.496 48.5,191.5C 65.4983,171.666 82.3317,151.666 99,131.5C 101.638,124.568 100.638,118.234 96,112.5C 80.1589,94.1353 64.3256,75.802 48.5,57.5C 61.6562,56.5044 74.9895,56.1711 88.5,56.5 Z"/></g>
<g><path style="opacity:1" fill="#fffbfb" d="M 151.5,55.5 C 168.503,55.3334 185.503,55.5001 202.5,56C 189.744,67.4266 176.411,78.0932 162.5,88C 160.091,88.9347 157.591,89.4347 155,89.5C 146.355,88.0714 137.855,86.0714 129.5,83.5C 137.238,74.4349 144.572,65.1015 151.5,55.5 Z"/></g>
<g><path style="opacity:1" fill="#fffbfb" d="M 150.5,159.5 C 155.412,159.063 160.078,159.896 164.5,162C 177.457,171.955 190.124,182.288 202.5,193C 185.5,193.667 168.5,193.667 151.5,193C 144.357,183.689 137.023,174.522 129.5,165.5C 136.614,163.487 143.614,161.487 150.5,159.5 Z"/></g>
<g><path style="opacity:1" fill="#fec4cf" d="M 48.5,191.5 C 61.6562,192.496 74.9895,192.829 88.5,192.5C 74.9942,193.826 61.3276,193.826 47.5,192.5C 47.6236,191.893 47.9569,191.56 48.5,191.5 Z"/></g>
</svg>
