<?xml version="1.0" encoding="UTF-8"?>
<!DOCTYPE svg PUBLIC "-//W3C//DTD SVG 1.1//EN" "http://www.w3.org/Graphics/SVG/1.1/DTD/svg11.dtd">
<svg xmlns="http://www.w3.org/2000/svg" version="1.1" width="300px" height="300px" style="shape-rendering:geometricPrecision; text-rendering:geometricPrecision; image-rendering:optimizeQuality; fill-rule:evenodd; clip-rule:evenodd" xmlns:xlink="http://www.w3.org/1999/xlink">
<g><path style="opacity:1" fill="#2b2b2b" d="M 150.5,8.5 C 155.346,23.5482 160.346,38.5482 165.5,53.5C 166.057,58.1646 167.39,62.4979 169.5,66.5C 170.057,71.1646 171.39,75.4979 173.5,79.5C 176.676,91.2044 180.01,102.871 183.5,114.5C 173.586,128.661 163.919,142.994 154.5,157.5C 153.728,158.694 152.728,159.694 151.5,160.5C 150.509,109.875 150.176,59.2087 150.5,8.5 Z"/></g>
<g><path style="opacity:0.997" fill="#0e0e0f" d="M 148.5,9.5 C 149.499,60.3306 149.832,111.331 149.5,162.5C 138.167,146.833 126.833,131.167 115.5,115.5C 126.13,79.9496 137.13,44.6162 148.5,9.5 Z"/></g>
<g><path style="opacity:0.012" fill="#2e2f33" d="M 166.5,53.5 C 166.167,53.5 165.833,53.5 165.5,53.5C 165.833,49.5 166.167,49.5 166.5,53.5 Z"/></g>
<g><path style="opacity:0.012" fill="#313138" d="M 166.5,53.5 C 167.573,54.2506 167.74,55.2506 167,56.5C 166.517,55.552 166.351,54.552 166.5,53.5 Z"/></g>
<g><path style="opacity:1" fill="#454545" d="M 150.5,8.5 C 150.176,59.2087 150.509,109.875 151.5,160.5C 151.167,161.5 150.5,162.167 149.5,162.5C 149.832,111.331 149.499,60.3306 148.5,9.5C 149.102,2.51668 149.769,2.18335 150.5,8.5 Z"/></g>
<g><path style="opacity:0.012" fill="#2e2f33" d="M 170.5,66.5 C 170.167,66.5 169.833,66.5 169.5,66.5C 169.833,62.5 170.167,62.5 170.5,66.5 Z"/></g>
<g><path style="opacity:0.012" fill="#313137" d="M 170.5,66.5 C 171.573,67.2506 171.74,68.2506 171,69.5C 170.517,68.552 170.351,67.552 170.5,66.5 Z"/></g>
<g><path style="opacity:0.012" fill="#2f2f33" d="M 174.5,79.5 C 174.167,79.5 173.833,79.5 173.5,79.5C 173.833,75.5 174.167,75.5 174.5,79.5 Z"/></g>
<g><path style="opacity:0.012" fill="#313137" d="M 174.5,79.5 C 175.573,80.2506 175.74,81.2506 175,82.5C 174.517,81.552 174.351,80.552 174.5,79.5 Z"/></g>
<g><path style="opacity:0.008" fill="#5a5a65" d="M 5.5,113.5 C 34.9972,112.336 64.6638,112.169 94.5,113C 64.8352,113.5 35.1685,113.667 5.5,113.5 Z"/></g>
<g><path style="opacity:0.999" fill="#454546" d="M 115.5,115.5 C 126.833,131.167 138.167,146.833 149.5,162.5C 149.672,163.492 149.338,164.158 148.5,164.5C 148.062,163.494 147.396,163.494 146.5,164.5C 144.879,162.883 142.879,161.716 140.5,161C 96.0954,146.254 51.7621,131.421 7.5,116.5C 6.16667,116.833 6.16667,117.167 7.5,117.5C 7.44001,118.043 7.10667,118.376 6.5,118.5C 5.57131,117.311 5.23798,115.978 5.5,114.5C 41.5103,114.467 77.5103,114.634 113.5,115C 108.167,114.667 102.833,114.333 97.5,114C 103.785,112.95 109.785,113.45 115.5,115.5 Z"/></g>
<g><path style="opacity:0.961" fill="#6f6f6f" d="M 293.5,116.5 C 293.167,116.5 292.833,116.5 292.5,116.5C 290.801,116.34 289.134,116.506 287.5,117C 244.847,131.273 202.18,145.44 159.5,159.5C 157.219,159.923 155.552,159.256 154.5,157.5C 163.919,142.994 173.586,128.661 183.5,114.5C 201.782,113.179 220.282,112.513 239,112.5C 257.167,112.667 275.333,112.833 293.5,113C 257.5,113.333 221.5,113.667 185.5,114C 221.847,113.838 257.847,114.672 293.5,116.5 Z"/></g>
<g><path style="opacity:0.004" fill="#515156" d="M 3.5,114.5 C 4.52502,114.897 4.69169,115.563 4,116.5C 3.53566,115.906 3.36899,115.239 3.5,114.5 Z"/></g>
<g><path style="opacity:0.004" fill="#292a2c" d="M 294.5,115.5 C 295.833,116.167 295.833,116.167 294.5,115.5 Z"/></g>
<g><path style="opacity:0.004" fill="#20212b" d="M 293.5,116.5 C 293.833,116.5 294.167,116.5 294.5,116.5C 294.315,117.17 293.981,117.17 293.5,116.5 Z"/></g>
<g><path style="opacity:0.999" fill="#6c6c6c" d="M 7.5,117.5 C 7.5,117.167 7.5,116.833 7.5,116.5C 51.7621,131.421 96.0954,146.254 140.5,161C 142.879,161.716 144.879,162.883 146.5,164.5C 129.008,170.441 111.675,176.775 94.5,183.5C 93.4929,183.452 93.1596,184.452 93.5,186.5C 92.802,184.333 91.4687,182.5 89.5,181C 85.2171,178.385 81.2171,175.385 77.5,172C 78.6537,171.086 78.487,170.253 77,169.5C 76.2825,170.451 75.4491,170.617 74.5,170C 74.6192,168.719 74.1192,167.552 73,166.5C 72.2825,167.451 71.4491,167.617 70.5,167C 70.6192,165.719 70.1192,164.552 69,163.5C 68.2825,164.451 67.4491,164.617 66.5,164C 66.6192,162.719 66.1192,161.552 65,160.5C 64.2825,161.451 63.4491,161.617 62.5,161C 62.6192,159.719 62.1192,158.552 61,157.5C 60.2825,158.451 59.4491,158.617 58.5,158C 58.6192,156.719 58.1192,155.552 57,154.5C 56.2825,155.451 55.4491,155.617 54.5,155C 54.6192,153.719 54.1192,152.552 53,151.5C 52.2825,152.451 51.4491,152.617 50.5,152C 50.6192,150.719 50.1192,149.552 49,148.5C 48.2825,149.451 47.4491,149.617 46.5,149C 46.6192,147.719 46.1192,146.552 45,145.5C 44.2825,146.451 43.4491,146.617 42.5,146C 42.6192,144.719 42.1192,143.552 41,142.5C 40.2825,143.451 39.4491,143.617 38.5,143C 34.7829,139.615 30.7829,136.615 26.5,134C 25.0753,132.638 24.242,131.138 24,129.5C 23.2825,130.451 22.4491,130.617 21.5,130C 20.1667,129.333 20.1667,128.667 21.5,128C 20.4281,126.716 19.0948,126.383 17.5,127C 17.6192,125.719 17.1192,124.552 16,123.5C 15.2825,124.451 14.4491,124.617 13.5,124C 13.6192,122.719 13.1192,121.552 12,120.5C 11.2825,121.451 10.4491,121.617 9.5,121C 9.98892,119.448 9.32226,118.281 7.5,117.5 Z"/></g>
<g><path style="opacity:0.016" fill="#2f3034" d="M 289.5,119.5 C 289.833,119.5 290.167,119.5 290.5,119.5C 290.315,120.17 289.981,120.17 289.5,119.5 Z"/></g>
<g><path style="opacity:1" fill="#2b2b2b" d="M 292.5,116.5 C 292.5,117.167 292.833,117.5 293.5,117.5C 293.027,118.906 292.027,119.573 290.5,119.5C 290.167,118.167 289.833,118.167 289.5,119.5C 288.167,119.833 288.167,120.167 289.5,120.5C 289.027,121.906 288.027,122.573 286.5,122.5C 286.167,121.167 285.833,121.167 285.5,122.5C 284.167,122.833 284.167,123.167 285.5,123.5C 283.2,125.984 280.533,127.984 277.5,129.5C 277.167,128.167 276.833,128.167 276.5,129.5C 275.167,129.833 275.167,130.167 276.5,130.5C 276.027,131.906 275.027,132.573 273.5,132.5C 273.167,131.167 272.833,131.167 272.5,132.5C 271.167,132.833 271.167,133.167 272.5,133.5C 272.027,134.906 271.027,135.573 269.5,135.5C 269.167,134.167 268.833,134.167 268.5,135.5C 267.167,135.833 267.167,136.167 268.5,136.5C 268.027,137.906 267.027,138.573 265.5,138.5C 265.167,137.167 264.833,137.167 264.5,138.5C 263.167,138.833 263.167,139.167 264.5,139.5C 263.738,141.262 262.404,142.262 260.5,142.5C 260.167,141.167 259.833,141.167 259.5,142.5C 258.167,142.833 258.167,143.167 259.5,143.5C 259.027,144.906 258.027,145.573 256.5,145.5C 256.167,144.167 255.833,144.167 255.5,145.5C 254.167,145.833 254.167,146.167 255.5,146.5C 255.027,147.906 254.027,148.573 252.5,148.5C 252.167,147.167 251.833,147.167 251.5,148.5C 250.167,148.833 250.167,149.167 251.5,149.5C 251.027,150.906 250.027,151.573 248.5,151.5C 248.167,150.167 247.833,150.167 247.5,151.5C 246.167,151.833 246.167,152.167 247.5,152.5C 245.2,154.984 242.533,156.984 239.5,158.5C 239.167,157.167 238.833,157.167 238.5,158.5C 237.167,158.833 237.167,159.167 238.5,159.5C 238.027,160.906 237.027,161.573 235.5,161.5C 235.167,160.167 234.833,160.167 234.5,161.5C 233.167,161.833 233.167,162.167 234.5,162.5C 234.027,163.906 233.027,164.573 231.5,164.5C 231.167,163.167 230.833,163.167 230.5,164.5C 229.167,164.833 229.167,165.167 230.5,165.5C 228.2,167.984 225.533,169.984 222.5,171.5C 222.167,170.167 221.833,170.167 221.5,171.5C 220.167,171.833 220.167,172.167 221.5,172.5C 221.027,173.906 220.027,174.573 218.5,174.5C 218.167,173.167 217.833,173.167 217.5,174.5C 216.167,174.833 216.167,175.167 217.5,175.5C 217.027,176.906 216.027,177.573 214.5,177.5C 214.167,176.167 213.833,176.167 213.5,177.5C 212.167,177.833 212.167,178.167 213.5,178.5C 213.027,179.906 212.027,180.573 210.5,180.5C 210.167,179.167 209.833,179.167 209.5,180.5C 208.167,180.833 208.167,181.167 209.5,181.5C 208.878,182.627 208.045,183.627 207,184.5C 216.908,220.138 227.742,255.471 239.5,290.5C 239.573,292.027 238.906,293.027 237.5,293.5C 236.847,288.997 235.013,284.997 232,281.5C 204.71,242.421 177.543,203.254 150.5,164C 153.437,162.199 156.437,160.699 159.5,159.5C 202.18,145.44 244.847,131.273 287.5,117C 289.134,116.506 290.801,116.34 292.5,116.5 Z"/></g>
<g><path style="opacity:0.016" fill="#2e2f33" d="M 285.5,122.5 C 285.833,122.5 286.167,122.5 286.5,122.5C 286.315,123.17 285.981,123.17 285.5,122.5 Z"/></g>
<g><path style="opacity:0.012" fill="#2f3034" d="M 276.5,129.5 C 276.833,129.5 277.167,129.5 277.5,129.5C 277.315,130.17 276.981,130.17 276.5,129.5 Z"/></g>
<g><path style="opacity:0.016" fill="#2e3034" d="M 272.5,132.5 C 272.833,132.5 273.167,132.5 273.5,132.5C 273.315,133.17 272.981,133.17 272.5,132.5 Z"/></g>
<g><path style="opacity:0.016" fill="#2e2f33" d="M 268.5,135.5 C 268.833,135.5 269.167,135.5 269.5,135.5C 269.315,136.17 268.981,136.17 268.5,135.5 Z"/></g>
<g><path style="opacity:0.016" fill="#2d2e32" d="M 264.5,138.5 C 264.833,138.5 265.167,138.5 265.5,138.5C 265.315,139.17 264.981,139.17 264.5,138.5 Z"/></g>
<g><path style="opacity:0.012" fill="#2f3135" d="M 259.5,142.5 C 259.833,142.5 260.167,142.5 260.5,142.5C 260.315,143.17 259.981,143.17 259.5,142.5 Z"/></g>
<g><path style="opacity:0.016" fill="#2f3034" d="M 255.5,145.5 C 255.833,145.5 256.167,145.5 256.5,145.5C 256.315,146.17 255.981,146.17 255.5,145.5 Z"/></g>
<g><path style="opacity:0.016" fill="#2f3033" d="M 251.5,148.5 C 251.833,148.5 252.167,148.5 252.5,148.5C 252.315,149.17 251.981,149.17 251.5,148.5 Z"/></g>
<g><path style="opacity:0.016" fill="#2e3032" d="M 247.5,151.5 C 247.833,151.5 248.167,151.5 248.5,151.5C 248.315,152.17 247.981,152.17 247.5,151.5 Z"/></g>
<g><path style="opacity:0.016" fill="#2f3034" d="M 238.5,158.5 C 238.833,158.5 239.167,158.5 239.5,158.5C 239.315,159.17 238.981,159.17 238.5,158.5 Z"/></g>
<g><path style="opacity:0.016" fill="#2e3034" d="M 234.5,161.5 C 234.833,161.5 235.167,161.5 235.5,161.5C 235.315,162.17 234.981,162.17 234.5,161.5 Z"/></g>
<g><path style="opacity:0.016" fill="#2e2f33" d="M 230.5,164.5 C 230.833,164.5 231.167,164.5 231.5,164.5C 231.315,165.17 230.981,165.17 230.5,164.5 Z"/></g>
<g><path style="opacity:0.996" fill="#0f0f0f" d="M 148.5,164.5 C 148.5,164.833 148.5,165.167 148.5,165.5C 119.863,206.989 91.363,248.655 63,290.5C 62.5172,291.448 62.3505,292.448 62.5,293.5C 61.1667,293.5 60.5,292.833 60.5,291.5C 62.6098,287.498 63.9431,283.165 64.5,278.5C 66.943,273.5 68.6096,268.166 69.5,262.5C 71.943,257.5 73.6096,252.166 74.5,246.5C 81.434,226.787 87.7674,206.787 93.5,186.5C 94.404,185.791 94.7373,184.791 94.5,183.5C 111.675,176.775 129.008,170.441 146.5,164.5C 147.396,163.494 148.062,163.494 148.5,164.5 Z"/></g>
<g><path style="opacity:0.999" fill="#6e6e6e" d="M 154.5,157.5 C 155.552,159.256 157.219,159.923 159.5,159.5C 156.437,160.699 153.437,162.199 150.5,164C 177.543,203.254 204.71,242.421 232,281.5C 235.013,284.997 236.847,288.997 237.5,293.5C 236.123,292.444 235.29,291.111 235,289.5C 234.282,290.451 233.449,290.617 232.5,290C 228.783,286.615 224.783,283.615 220.5,281C 220.619,279.719 220.119,278.552 219,277.5C 218.282,278.451 217.449,278.617 216.5,278C 216.619,276.719 216.119,275.552 215,274.5C 214.282,275.451 213.449,275.617 212.5,275C 212.619,273.719 212.119,272.552 211,271.5C 210.282,272.451 209.449,272.617 208.5,272C 208.619,270.719 208.119,269.552 207,268.5C 206.282,269.451 205.449,269.617 204.5,269C 204.619,267.719 204.119,266.552 203,265.5C 202.282,266.451 201.449,266.617 200.5,266C 200.619,264.719 200.119,263.552 199,262.5C 198.282,263.451 197.449,263.617 196.5,263C 196.619,261.719 196.119,260.552 195,259.5C 194.282,260.451 193.449,260.617 192.5,260C 192.619,258.719 192.119,257.552 191,256.5C 190.282,257.451 189.449,257.617 188.5,257C 188.619,255.719 188.119,254.552 187,253.5C 186.282,254.451 185.449,254.617 184.5,254C 184.619,252.719 184.119,251.552 183,250.5C 182.282,251.451 181.449,251.617 180.5,251C 180.619,249.719 180.119,248.552 179,247.5C 178.282,248.451 177.449,248.617 176.5,248C 176.619,246.719 176.119,245.552 175,244.5C 174.282,245.451 173.449,245.617 172.5,245C 172.619,243.719 172.119,242.552 171,241.5C 170.282,242.451 169.449,242.617 168.5,242C 168.619,240.719 168.119,239.552 167,238.5C 166.282,239.451 165.449,239.617 164.5,239C 164.619,237.719 164.119,236.552 163,235.5C 162.282,236.451 161.449,236.617 160.5,236C 157.31,233.636 154.31,231.136 151.5,228.5C 152.833,228.167 152.833,227.833 151.5,227.5C 151.5,226.833 151.167,226.5 150.5,226.5C 150.5,225.833 150.167,225.5 149.5,225.5C 149.83,205.326 149.497,185.326 148.5,165.5C 148.5,165.167 148.5,164.833 148.5,164.5C 149.338,164.158 149.672,163.492 149.5,162.5C 150.5,162.167 151.167,161.5 151.5,160.5C 152.728,159.694 153.728,158.694 154.5,157.5 Z"/></g>
<g><path style="opacity:0.999" fill="#2e2e2f" d="M 148.5,165.5 C 149.497,185.326 149.83,205.326 149.5,225.5C 149.5,225.833 149.5,226.167 149.5,226.5C 148.833,226.5 148.5,226.833 148.5,227.5C 147.167,227.833 147.167,228.167 148.5,228.5C 147.738,230.262 146.404,231.262 144.5,231.5C 144.167,230.167 143.833,230.167 143.5,231.5C 142.167,231.833 142.167,232.167 143.5,232.5C 143.027,233.906 142.027,234.573 140.5,234.5C 140.167,233.167 139.833,233.167 139.5,234.5C 138.167,234.833 138.167,235.167 139.5,235.5C 139.027,236.906 138.027,237.573 136.5,237.5C 136.167,236.167 135.833,236.167 135.5,237.5C 134.167,237.833 134.167,238.167 135.5,238.5C 133.2,240.984 130.533,242.984 127.5,244.5C 127.167,243.167 126.833,243.167 126.5,244.5C 125.167,244.833 125.167,245.167 126.5,245.5C 126.027,246.906 125.027,247.573 123.5,247.5C 123.167,246.167 122.833,246.167 122.5,247.5C 121.167,247.833 121.167,248.167 122.5,248.5C 122.027,249.906 121.027,250.573 119.5,250.5C 119.167,249.167 118.833,249.167 118.5,250.5C 117.167,250.833 117.167,251.167 118.5,251.5C 116.2,253.984 113.533,255.984 110.5,257.5C 110.167,256.167 109.833,256.167 109.5,257.5C 108.167,257.833 108.167,258.167 109.5,258.5C 109.027,259.906 108.027,260.573 106.5,260.5C 106.167,259.167 105.833,259.167 105.5,260.5C 104.167,260.833 104.167,261.167 105.5,261.5C 105.027,262.906 104.027,263.573 102.5,263.5C 102.167,262.167 101.833,262.167 101.5,263.5C 100.167,263.833 100.167,264.167 101.5,264.5C 99.1997,266.984 96.5331,268.984 93.5,270.5C 93.1667,269.167 92.8333,269.167 92.5,270.5C 91.1667,270.833 91.1667,271.167 92.5,271.5C 92.0269,272.906 91.0269,273.573 89.5,273.5C 89.1667,272.167 88.8333,272.167 88.5,273.5C 87.1667,273.833 87.1667,274.167 88.5,274.5C 88.0269,275.906 87.0269,276.573 85.5,276.5C 85.1667,275.167 84.8333,275.167 84.5,276.5C 83.1667,276.833 83.1667,277.167 84.5,277.5C 82.1997,279.984 79.5331,281.984 76.5,283.5C 76.1667,282.167 75.8333,282.167 75.5,283.5C 74.1667,283.833 74.1667,284.167 75.5,284.5C 75.0269,285.906 74.0269,286.573 72.5,286.5C 72.1667,285.167 71.8333,285.167 71.5,286.5C 70.1667,286.833 70.1667,287.167 71.5,287.5C 71.0269,288.906 70.0269,289.573 68.5,289.5C 68.1667,288.167 67.8333,288.167 67.5,289.5C 66.1667,289.833 66.1667,290.167 67.5,290.5C 66.3832,293.279 65.2166,293.612 64,291.5C 63.51,292.793 63.3433,294.127 63.5,295.5C 60.075,295.633 59.7417,294.967 62.5,293.5C 62.3505,292.448 62.5172,291.448 63,290.5C 91.363,248.655 119.863,206.989 148.5,165.5 Z"/></g>
<g><path style="opacity:0.012" fill="#2f3135" d="M 221.5,171.5 C 221.833,171.5 222.167,171.5 222.5,171.5C 222.315,172.17 221.981,172.17 221.5,171.5 Z"/></g>
<g><path style="opacity:0.016" fill="#2f3034" d="M 217.5,174.5 C 217.833,174.5 218.167,174.5 218.5,174.5C 218.315,175.17 217.981,175.17 217.5,174.5 Z"/></g>
<g><path style="opacity:0.016" fill="#2e3033" d="M 213.5,177.5 C 213.833,177.5 214.167,177.5 214.5,177.5C 214.315,178.17 213.981,178.17 213.5,177.5 Z"/></g>
<g><path style="opacity:0.016" fill="#2e2f31" d="M 209.5,180.5 C 209.833,180.5 210.167,180.5 210.5,180.5C 210.315,181.17 209.981,181.17 209.5,180.5 Z"/></g>
<g><path style="opacity:0.004" fill="#55555a" d="M 149.5,226.5 C 149.833,226.5 150.167,226.5 150.5,226.5C 151.167,226.5 151.5,226.833 151.5,227.5C 151.5,227.833 151.5,228.167 151.5,228.5C 150.5,228.5 149.5,228.5 148.5,228.5C 148.5,228.167 148.5,227.833 148.5,227.5C 149.167,227.5 149.5,227.167 149.5,226.5 Z"/></g>
<g><path style="opacity:0.016" fill="#303235" d="M 143.5,231.5 C 143.833,231.5 144.167,231.5 144.5,231.5C 144.315,232.17 143.981,232.17 143.5,231.5 Z"/></g>
<g><path style="opacity:0.016" fill="#303135" d="M 139.5,234.5 C 139.833,234.5 140.167,234.5 140.5,234.5C 140.315,235.17 139.981,235.17 139.5,234.5 Z"/></g>
<g><path style="opacity:0.016" fill="#2f3134" d="M 135.5,237.5 C 135.833,237.5 136.167,237.5 136.5,237.5C 136.315,238.17 135.981,238.17 135.5,237.5 Z"/></g>
<g><path style="opacity:0.012" fill="#131416" d="M 74.5,246.5 C 74.1667,246.5 73.8333,246.5 73.5,246.5C 73.8333,242.5 74.1667,242.5 74.5,246.5 Z"/></g>
<g><path style="opacity:0.016" fill="#2f3034" d="M 126.5,244.5 C 126.833,244.5 127.167,244.5 127.5,244.5C 127.315,245.17 126.981,245.17 126.5,244.5 Z"/></g>
<g><path style="opacity:0.008" fill="#131317" d="M 73.5,246.5 C 73.6495,247.552 73.4828,248.552 73,249.5C 72.2599,248.251 72.4265,247.251 73.5,246.5 Z"/></g>
<g><path style="opacity:0.016" fill="#2f3033" d="M 122.5,247.5 C 122.833,247.5 123.167,247.5 123.5,247.5C 123.315,248.17 122.981,248.17 122.5,247.5 Z"/></g>
<g><path style="opacity:0.016" fill="#2e2f32" d="M 118.5,250.5 C 118.833,250.5 119.167,250.5 119.5,250.5C 119.315,251.17 118.981,251.17 118.5,250.5 Z"/></g>
<g><path style="opacity:0.016" fill="#2f3135" d="M 109.5,257.5 C 109.833,257.5 110.167,257.5 110.5,257.5C 110.315,258.17 109.981,258.17 109.5,257.5 Z"/></g>
<g><path style="opacity:0.012" fill="#131316" d="M 69.5,262.5 C 69.1667,262.5 68.8333,262.5 68.5,262.5C 68.8333,258.5 69.1667,258.5 69.5,262.5 Z"/></g>
<g><path style="opacity:0.016" fill="#2f3034" d="M 105.5,260.5 C 105.833,260.5 106.167,260.5 106.5,260.5C 106.315,261.17 105.981,261.17 105.5,260.5 Z"/></g>
<g><path style="opacity:0.008" fill="#131316" d="M 68.5,262.5 C 68.6495,263.552 68.4828,264.552 68,265.5C 67.2599,264.251 67.4265,263.251 68.5,262.5 Z"/></g>
<g><path style="opacity:0.016" fill="#2e3033" d="M 101.5,263.5 C 101.833,263.5 102.167,263.5 102.5,263.5C 102.315,264.17 101.981,264.17 101.5,263.5 Z"/></g>
<g><path style="opacity:0.016" fill="#303135" d="M 92.5,270.5 C 92.8333,270.5 93.1667,270.5 93.5,270.5C 93.3147,271.17 92.9813,271.17 92.5,270.5 Z"/></g>
<g><path style="opacity:0.016" fill="#303135" d="M 88.5,273.5 C 88.8333,273.5 89.1667,273.5 89.5,273.5C 89.3147,274.17 88.9813,274.17 88.5,273.5 Z"/></g>
<g><path style="opacity:0.012" fill="#121315" d="M 64.5,278.5 C 64.1667,278.5 63.8333,278.5 63.5,278.5C 63.8333,274.5 64.1667,274.5 64.5,278.5 Z"/></g>
<g><path style="opacity:0.016" fill="#303134" d="M 84.5,276.5 C 84.8333,276.5 85.1667,276.5 85.5,276.5C 85.3147,277.17 84.9813,277.17 84.5,276.5 Z"/></g>
<g><path style="opacity:0.008" fill="#131316" d="M 63.5,278.5 C 63.6495,279.552 63.4828,280.552 63,281.5C 62.2599,280.251 62.4265,279.251 63.5,278.5 Z"/></g>
<g><path style="opacity:0.016" fill="#2f3134" d="M 75.5,283.5 C 75.8333,283.5 76.1667,283.5 76.5,283.5C 76.3147,284.17 75.9813,284.17 75.5,283.5 Z"/></g>
<g><path style="opacity:0.016" fill="#2f3033" d="M 71.5,286.5 C 71.8333,286.5 72.1667,286.5 72.5,286.5C 72.3147,287.17 71.9813,287.17 71.5,286.5 Z"/></g>
<g><path style="opacity:0.016" fill="#3b3b3b" d="M 240.5,290.5 C 240.167,290.5 239.833,290.5 239.5,290.5C 239.833,286.5 240.167,286.5 240.5,290.5 Z"/></g>
<g><path style="opacity:0.012" fill="#101114" d="M 60.5,291.5 C 60.1667,291.5 59.8333,291.5 59.5,291.5C 59.8333,287.5 60.1667,287.5 60.5,291.5 Z"/></g>
<g><path style="opacity:0.016" fill="#2e3033" d="M 67.5,289.5 C 67.8333,289.5 68.1667,289.5 68.5,289.5C 68.3147,290.17 67.9813,290.17 67.5,289.5 Z"/></g>
<g><path style="opacity:0.004" fill="#383b4a" d="M 240.5,290.5 C 241.833,291.167 241.833,291.167 240.5,290.5 Z"/></g>
<g><path style="opacity:0.004" fill="#20212b" d="M 59.5,291.5 C 59.631,292.239 59.4643,292.906 59,293.5C 58.3083,292.563 58.475,291.897 59.5,291.5 Z"/></g>
</svg>
