<svg width="81" height="81" viewBox="0 0 81 81" fill="none" xmlns="http://www.w3.org/2000/svg">
<path fill-rule="evenodd" clip-rule="evenodd" d="M80.5 40.5103C80.5 62.6016 62.5914 80.5103 40.5 80.5103C18.4086 80.5103 0.5 62.6016 0.5 40.5103C0.5 18.4189 18.4086 0.510254 40.5 0.510254C62.5914 0.510254 80.5 18.4189 80.5 40.5103ZM45.0382 53.0433C44.327 53.541 43.527 53.7899 42.6382 53.7899H38.3715C37.1982 53.7899 36.1848 53.3811 35.3315 52.5633C34.5137 51.7099 34.1048 50.6966 34.1048 49.5233V35.2299L45.0382 53.0433ZM30.0515 26.6433C29.1982 28.101 28.7715 29.701 28.7715 31.4433V49.5233C28.7715 51.2655 29.1982 52.8833 30.0515 54.3766C30.9404 55.8344 32.1137 57.0077 33.5715 57.8966C35.0293 58.7499 36.6293 59.1766 38.3715 59.1766H42.6382C44.3804 59.1766 45.9804 58.7499 47.4382 57.8966C48.9315 57.0077 50.1048 55.8344 50.9582 54.3766C51.8115 52.8833 52.2382 51.2655 52.2382 49.5233V31.4433C52.2382 29.701 51.8115 28.101 50.9582 26.6433C50.1048 25.1499 48.9315 23.9766 47.4382 23.1233C45.9804 22.2699 44.3804 21.8433 42.6382 21.8433H38.3715C36.6293 21.8433 35.0293 22.2699 33.5715 23.1233C32.1137 23.9766 30.9404 25.1499 30.0515 26.6433ZM46.9048 31.4433V45.7899L35.9182 27.9233C36.6293 27.4255 37.447 27.1766 38.3715 27.1766H42.6382C43.847 27.1766 44.8604 27.5855 45.6782 28.4033C46.4959 29.221 46.9048 30.2344 46.9048 31.4433Z" fill="#232323"/>
</svg>
