<svg xmlns="http://www.w3.org/2000/svg" width="40" height="40" viewBox="0 0 40 40"><circle cx="20" cy="20" r="20" fill="#e3efe6"/><rect x="6" y="6" width="28" height="28" rx="7.9799999999999995" ry="7.9799999999999995" fill="#419659"/><g transform="translate(12.568760436737316, 11.32)"><svg width="14.862479126525368" height="17.36" viewBox="0 0 1333 1557" xmlns="http://www.w3.org/2000/svg">
<path xmlns="http://www.w3.org/2000/svg" d="M1123.96 2.29492C1155.96 -2.80505 1188.86 0.595238 1219.06 12.4951C1248.96 24.3951 1275.46 44.4949 1295.16 70.2949C1314.86 95.6949 1327.46 126.295 1331.16 158.595C1335.26 190.795 1330.16 223.395 1316.96 252.995L783.958 1449.59C776.858 1465.59 767.258 1480.19 756.058 1493.39C744.858 1506.69 731.658 1518.2 716.658 1527.7C702.058 1537.2 686.158 1544.39 669.458 1549.09C652.858 1553.89 635.158 1556.2 617.858 1556.2C600.558 1555.9 583.158 1553.19 566.558 1548.09C549.858 1542.99 533.958 1535.5 519.658 1525.7C505.058 1516.2 492.158 1504.3 480.958 1491C469.758 1477.4 460.858 1462.5 454.158 1446.5L14.1582 407.195C9.15822 394.995 5.05821 381.695 2.6582 368.495C0.258222 354.895 -0.44216 341.295 0.257812 327.695C0.957812 314.095 3.35762 300.895 7.05762 287.595C10.7576 274.695 15.8584 262.195 22.3584 250.295C29.1584 238.395 36.9583 227.195 46.1582 216.995C55.2582 207.095 65.4584 197.995 76.3584 190.195C87.4916 182.262 99.3911 175.795 112.058 170.795C124.558 165.695 137.859 161.995 151.059 159.595L1123.96 2.29492ZM468.359 306.995V343.295L515.26 366.396V1128.29L468.359 1151.4V1188.09H692.56V1151.4L645.659 1128.29V849.396H805.06C815.16 850.395 825.36 849.095 835.26 845.695C845.06 842.295 853.96 836.895 861.06 829.695C868.56 822.595 874.36 813.795 877.76 804.295C881.46 794.695 883.159 784.595 882.159 774.396V380.995C882.159 337.195 854.66 306.995 799.26 306.995H468.359ZM750.96 367.795V783.495H645.659V367.795H750.96Z" fill="#ffffff"/>
</svg></g></svg>