<svg xmlns="http://www.w3.org/2000/svg" width="40" height="40" viewBox="0 0 40 40"><circle cx="20" cy="20" r="20" fill="#d9d9d9"/><rect x="6" y="6" width="28" height="28" rx="7.9799999999999995" ry="7.9799999999999995" fill="#000000"/><g transform="translate(11.32, 14.431272727272727)"><svg width="17.36" height="11.137454545454545" viewBox="0 0 1540 988" xmlns="http://www.w3.org/2000/svg"><g xmlns="http://www.w3.org/2000/svg" fill="#ffffff" fill-rule="evenodd"><path d="m1204.8 508.2-8.1 10.5c-110.2 0-138.3-2.4-138.3-43.2s2.2-68.8 2.2-131.7c0-54.8-18.6-84.5-68.3-84.5-40 0-76.7 31.5-76.7 63v59.4c0 93.3 3.4 111.3 7.3 119.5 9.1 5.2 24.9 7 44.1 7v10.5c-19.2 0-44.1-.3-69.5-.3s-49.1.3-71.7.3v-10.5c19.3 0 35.1-1.8 44.1-7 3.9-8.2 7.3-26.2 7.3-117.2v-40.2c0-54.8-18.6-84.5-68.3-84.5-40.1 0-76.7 31.5-76.7 63v71.1c0 88 2.2 109 3.9 128.2-24.8-2.3-72.8-.9-107.2-.9v-12.5h13.6c19.1 0 34.9-1.8 44-7 3.9-8.2 7.3-26.2 7.3-107.8v-63.6c0-37.9-1.1-57.7-11.9-67l-34.6.1-84.9 182.7c-38.8 84.1-65.7 116.3-103.1 143.1-29.3 21.1-66 29-91.8 21.5-28.1-8.1-47.3-38.5-45.4-45.2 1.3-4.4 21.2-17.9 36.7-13.4 14.8 4.3 32.4 31.8 51.6 37.4 35.5 10.3 50.6-36.6 116.5-178.5L595.4 263l-178.2.4 6.1-14h178.4l22.9-49.3 8.2-17.6c33.9-72.7 77.4-153.7 125-174.4 53.2-18.3 96.1.8 96.1.8l17.6 18.7s77.7-1.4 93.5 43.8c14 40.2-51.8 49.3-51.8 49.3l4.6-20.9s-10.5-9.2-26.1-3.8c-27.9 9.8-39-.3-39-.3s61.3-17.6 74.2-12c13 5.6 5.5 21.1 5.5 21.1s28.9-4.5 19.7-30.8-71.3-30.4-88.9-30.6l-15.1-16.9S834.6 13 795 17.8l2.5.2c-24.1 4.1-49.7 21.6-69.8 61.9l1.4-4.6-58.8 138.1-16.7 36h54.9c17 0 22 18 22.6 33.2l.5.6c21.4-27.4 61-46.7 95.4-46.7 36.7 0 69.4 14.6 83.5 53.7h1.1c19.2-32.1 53.1-53.7 99.4-53.7 50.8 0 89.1 25.7 89.1 93.3 0 43.7-1.1 72.9-1.1 129.4 0 37.3 14.4 49 105.8 49M769 45.9l69.1-2.2 2 6.1-29.9 15.9-39-13.7zM18.5 734.8c0-32.8 0-38.7-.4-45.4-.5-7.1-2.1-10.5-9.1-11.9-1.6-.5-5.2-.7-7.1-.7-.8 0-1.7-.4-1.7-1.2 0-1.3 1.1-1.7 3.4-1.7 4.8 0 10.5 0 15.1.2l8.6.4c4.2.2 46.8 0 51.6-.2 4-.2 7.4-.2 9.3-.8 1.2-.5 2.1-1.3 2.9-1.3s1.3.8 1.3 1.9c0 1.5-1.1 4-1.7 9.9-.2 2.1-.6 11.3-1.1 13.8-.2 1.1-.6 2.3-1.6 2.3-1.1 0-1.5-1-1.5-2.5 0-1.7-.6-5.2-1.9-8-1.3-2.7-6.1-6.5-14.3-6.7l-32.3-.6c-1.2 0-1.9.6-1.9 2.3v57.9c0 1.3.2 1.9 1.5 1.9l26.9-.2c3.5 0 6.5 0 9.4-.2 5-.4 7.8-1 9.7-3.7.8-1.1 1.4-2.2 2.3-2.2.8 0 1 .7 1 1.7 0 1.3-1 4.8-1.7 11.8-.4 4.2-.8 12.6-.8 14.1 0 1.8 0 3.9-1.5 3.9-1 0-1.4-.8-1.4-1.9-.3-2-.5-5-1.3-7.5-1-2.9-4.4-6.7-10.9-7.6-5.3-.6-28.2-.6-31.7-.6-1.1 0-1.5.4-1.5 1.9v17.8c0 20.2 0 36.8 1.1 45.6.6 6.1 1.9 10.7 8.1 11.6 3 .4 7.6.8 9.5.8 1.3 0 1.7.6 1.7 1.3 0 1-1.1 1.6-3.4 1.6-11.5 0-24.8-.6-25.8-.6-1.1 0-14.3.6-20.6.6-2.3 0-3.3-.4-3.3-1.6 0-.7.4-1.3 1.7-1.3 1.8 0 4.4-.4 6.2-.8 4.2-.9 5.3-5.5 6.1-11.6 1.1-8.8 1.1-25.4 1.1-45.6zM191 749.3c0-27.8 0-32.8-.4-38.5-.4-6-1.5-9-7.6-9.8-1.4-.2-4.6-.4-6.3-.4-.6 0-1.4-.9-1.4-1.5 0-1.1.8-1.5 2.9-1.5 8.4 0 20.8.4 21.8.4 1.9 0 17.5-.4 23.1-.4 11.8 0 24.8 1.1 34.5 7.8 4.6 3.3 12.8 12 12.8 24.3 0 13.3-5.5 26.1-22.7 40.8 15.1 18.9 27.9 35 38.6 46.2 9.9 10.1 16 11.7 20.6 12.4 3.6.6 5.4.6 6.5.6 1 0 1.7.8 1.7 1.5 0 1-1.1 1.4-4.4 1.4h-11.6c-10.5 0-15.1-1-19.7-3.5-8-4.2-14.7-12.8-25.2-26.3-7.8-9.6-16-21.2-19.9-26-.9-.9-1.3-1.1-2.6-1.1l-23.5-.4c-.8 0-1.2.4-1.2 1.5v4.2c0 17.2 0 31.1.8 38.4.6 5.3 1.7 8.6 7.4 9.4 2.5.5 6.5.9 8.1.9 1.3 0 1.5.8 1.5 1.5 0 .8-.8 1.4-2.9 1.4-10.1 0-21.9-.6-22.7-.6-.2 0-12.6.6-18.3.6-1.9 0-2.9-.4-2.9-1.4 0-.7.4-1.5 1.5-1.5 1.6 0 4-.4 5.6-.9 3.6-.8 4-4.1 4.9-9.4 1-7.3 1-21.4 1-38.6zm16 15.1c0 1 .4 1.7 1.2 2.3 2.8 1.5 12.2 2.7 20.4 2.7 4.4 0 9.4-.2 13.8-3.1 6.3-4.2 11.2-13.7 11.2-27.3 0-22.3-12.2-35.1-31.9-35.1-5.5 0-11.4.6-13.3 1-.8.5-1.4 1.1-1.4 2.2zm-60.5 16.3c0 17.3 0 31.3.9 38.7.6 5.2 1.2 8.6 6.7 9.4 2.7.4 6.7.9 8.4.9 1 0 1.4.8 1.4 1.4 0 .9-.8 1.5-2.9 1.5-10.3 0-22.2-.6-23.1-.6-1 0-12.6.6-18.2.6-1.9 0-3-.4-3-1.5 0-.6.4-1.4 1.5-1.4 1.7 0 4-.5 5.6-.9 3.6-.8 4.2-4.2 4.9-9.4.8-7.4 1-21.4 1-38.7v-31.5c0-27.7 0-32.7-.4-38.4-.4-6.1-1.9-8.8-5.9-9.6-2.1-.5-4.4-.7-5.6-.7-.9 0-1.5-.8-1.5-1.4 0-1.1.8-1.5 2.9-1.5 6.1 0 17.7.4 18.7.4.9 0 12.8-.4 18.5-.4 2.1 0 2.9.4 2.9 1.5 0 .6-.8 1.4-1.4 1.4-1.3 0-2.6 0-4.7.4-5 1.1-6.1 3.6-6.5 9.9-.2 5.7-.2 10.7-.2 38.4zm175.1 49.4c-2.6-1.3-2.8-1.9-2.8-6.7 0-8.8.9-16 1.1-18.9 0-1.9.4-3 1.5-3 1 0 1.6.7 1.6 2.1 0 1.5 0 4 .7 6.6 2.9 13 16.8 17.6 29.1 17.6 18.3 0 27.8-10.3 27.8-23.8 0-12.7-7-18.8-23.4-31l-8.3-6.3c-20-14.9-26.5-25.8-26.5-38.2 0-21 16.6-33.6 40.9-33.6 7.4 0 14.7 1 19.1 2.1 3.6.8 5.1.8 6.5.8 1.5 0 1.9.2 1.9 1.3 0 .8-.8 6.7-.8 18.9 0 2.7-.2 3.9-1.5 3.9-1.2 0-1.4-.8-1.7-2.3-.2-2.1-1.6-6.9-2.7-8.8-1.2-2.1-7.3-8.8-23.9-8.8-13.4 0-24.6 6.7-24.6 19.3 0 11.4 5.7 17.9 24 30.3l5.2 3.5c22.5 15.4 30.2 27.8 30.2 43.1 0 10.5-3.9 21.8-17.2 30.4-7.7 5.1-19.3 6.3-29.4 6.3-8.6 0-19.3-1.2-26.8-4.8M487 780.7c0 17.3 0 31.3.8 38.7.6 5.2 1.5 8.6 7.1 9.4 2.6.5 6.7.9 8.4.9 1.3 0 1.5.8 1.5 1.5 0 .8-.8 1.4-2.9 1.4-10.1 0-21.9-.6-22.9-.6-.9 0-13.7.6-19.1.6-2.1 0-3-.4-3-1.4 0-.7.5-1.3 1.5-1.3 1.7 0 3.8-.4 5.5-.9 3.7-.8 4.8-4.4 5.4-9.6.9-7.4.9-21.4.9-38.7v-74.9l-26.7.4c-11.5.2-15.9 1.5-18.7 5.7-2.1 3.1-2.3 4.4-2.9 5.6-.4 1.5-1.1 1.7-1.9 1.7-.4 0-1.3-.4-1.3-1.4 0-1.9 3.8-17.9 4-19.4.4-1 1.3-3.3 1.9-3.3 1.3 0 3.2 1.4 8.2 2.1 5.2.6 12.4.8 14.5.8H517c6.1 0 10.3-.4 13.2-.8 2.7-.5 4.4-.9 5.2-.9.9 0 .9 1.1.9 2.1 0 5.5-.6 18.3-.6 20.4 0 1.5-.9 2.3-1.7 2.3-.9 0-1.3-.6-1.5-3.1l-.2-1.9c-.6-5.5-4.6-9.5-22.3-9.9l-23-.4zM297.7 985.6c-1-.4-1.1-.7-1.1-2.5 0-3.4.4-6.1.4-7.2q0-1.2.6-1.2c.6 0 .6.3.6.8 0 .6 0 1.6.3 2.5 1.1 5 6.4 6.8 11.1 6.8 7 0 10.6-4 10.6-9.1 0-4.9-2.6-7.2-8.9-11.9l-3.2-2.4c-7.6-5.7-10.1-9.8-10.1-14.6 0-8 6.3-12.8 15.6-12.8 2.8 0 5.6.4 7.3.8 1.4.3 2 .3 2.5.3.6 0 .7.1.7.5 0 .3-.3 2.5-.3 7.2 0 1-.1 1.5-.5 1.5-.5 0-.6-.3-.7-.9-.1-.8-.6-2.6-1-3.3-.5-.8-2.8-3.4-9.2-3.4-5.1 0-9.4 2.6-9.4 7.4 0 4.3 2.2 6.8 9.2 11.5l2 1.4c8.6 5.9 11.5 10.6 11.5 16.5 0 4-1.5 8.3-6.5 11.6-3 1.9-7.4 2.4-11.3 2.4-3.2 0-7.3-.5-10.2-1.9m247.9-7.9c4.1-9.1 13.3-32.4 14.8-37.3.3-1.1.6-2 .6-2.6 0-.5-.2-1.2-.9-1.4-.8-.3-1.6-.3-2.4-.3-.4 0-.8-.2-.8-.5 0-.4.5-.6 1.6-.6 2.8 0 6 .2 6.9.2.4 0 3.4-.2 5.5-.2.7 0 1.1.2 1.1.5s-.2.6-.8.6c-.5 0-2.1 0-3.3.8-1 .7-2.1 1.6-4 6.3-.8 1.9-4.2 10.1-7.8 18.4-4.4 10-7.5 17.4-9.1 20.8-1.9 4-2.3 5.1-3.1 5.1-.7 0-1.2-.9-2.6-4.2L524 941.5c-1.6-3.8-2.6-4.6-4.9-5.1-1.1-.3-2.3-.3-2.7-.3s-.6-.4-.6-.6c0-.4.7-.5 1.8-.5 3.4 0 7.4.2 8.3.2.7 0 3.9-.2 6.6-.2q1.9 0 1.9.5c0 .3-.2.6-.7.6-.8 0-1.9.1-2.6.4s-.8.7-.8 1.2c0 .8.9 2.9 1.9 5.7zm227.7-172.2c.8 7.6 2.3 19.4 11.3 22.3 4.5 1.4 8.7 1.7 11.4 1.8 1.4 0 3.2-.2 4.3-.3 8.4-1.1 12-7.4 15.5-16.4l43.5-111.7c2.3-5.9 3.1-7 4.4-7 1.9 0 2.5 2.5 4.4 6.5 3.3 7.6 33 81.3 44.3 108.4 6.7 16 11.8 18.3 15.7 19.5 2.8.9 5.5 1.1 7.4 1.1 1 0 2.3.4 2.3 1.5 0 1-2.1 1.4-4.2 1.4-2.7 0-16.4 0-29.2-.4-3.5-.2-6.5-.2-6.5-1.3 0-.8.5-.8 1.3-1.2 1-.4 2.9-1.9 1.7-4.8l-16.6-41c-.5-.8-.7-1.1-1.7-1.1H840c-.9 0-1.5.5-1.9 1.5l-10.5 28.6c-1.7 4.4-2.7 8.8-2.7 12 0 3.5 3.1 4.8 6.3 4.8h1.6c1.5 0 1.9.6 1.9 1.5 0 1-1 1.4-2.7 1.4-4.4 0-14.5-.6-16.6-.6-1.9 0-11.1.6-18.7.6h-1.2c-4.6 0-27.3-.6-35.1-1.2-4.8-.5-5.8-1.1-5.8-2.2 0-.8.4-1.2 1.4-1.4 1.1-.2 1.3-3.8.9-7.6l-10.1-108.3h-.6l-51.5 109.2c-4.4 9.2-5 11.1-6.9 11.1-1.4 0-2.5-2.1-6.5-9.7-5.4-10.3-23.5-46.6-24.6-48.7-1.8-3.8-25.3-54.2-27.7-59.8h-.8l-8.4 97.4c-.2 3.4-.2 7.1-.2 10.7 0 3.2 2.3 5.9 5.5 6.5 3.5.9 6.7 1.1 7.9 1.1.9 0 1.7.4 1.7 1 0 1.5-1.2 1.9-3.8 1.9-7.7 0-17.8-.6-19.5-.6-1.9 0-12 .6-17.6.6-2.1 0-3.6-.4-3.6-1.9 0-.6 1.1-1 2.1-1 1.7 0 3.2 0 6.3-.7 6.9-1.2 7.6-9.4 8.4-17.4l15.1-136.9c.2-2.3 1.1-3.8 2.3-3.8 1.3 0 2.1.9 3.2 3.2l64.2 132.1 61.7-131.9c.9-1.9 1.7-3.4 3.2-3.4 1.4 0 2.1 1.7 2.5 5.7zM389.4 966.8c0 6.6 0 11.9.3 14.8.3 2 .5 3.3 2.6 3.6 1 .1 2.6.3 3.2.3.4 0 .6.3.6.5q0 .6-1.2.6c-3.9 0-8.5-.2-8.8-.2-.4 0-4.8.2-7 .2-.7 0-1.1-.2-1.1-.6 0-.2.2-.5.6-.5.6 0 1.5-.2 2.1-.3 1.4-.3 1.6-1.6 1.9-3.6.3-2.9.4-8.2.4-14.8v-12c0-10.6 0-12.6-.2-14.7-.2-2.3-.7-3.4-2.2-3.7-.8-.2-1.7-.3-2.2-.3-.3 0-.6-.3-.6-.5q0-.6 1.2-.6c2.3 0 6.7.2 7.1.2.3 0 4.9-.2 7.1-.2.8 0 1.1.2 1.1.6 0 .2-.3.5-.6.5-.5 0-.9 0-1.7.2-2 .4-2.4 1.4-2.5 3.8-.1 2.1-.1 4.1-.1 14.7zm68.5.2c0 10 .2 14.1 1.5 15.3 1.1 1.1 3.8 1.6 9.4 1.6 3.6 0 6.8-.1 8.5-2.1.8-1 1.4-2.5 1.6-3.8.1-.5.4-.9.8-.9.3 0 .4.3.4 1s-.4 4.8-1 6.8c-.5 1.6-.7 1.9-4.5 1.9-5 0-9-.1-12.3-.3-3.2-.1-5.6-.1-7.7-.1h-2.8c-1.5.1-3 .2-4.1.2q-1.2 0-1.2-.6c0-.2.2-.5.6-.5.6 0 1.5-.2 2.2-.3 1.3-.3 1.5-1.6 1.8-3.6.4-2.9.4-8.2.4-14.8v-12.1c0-10.5 0-12.5-.2-14.6-.1-2.4-.5-3.5-2.8-3.8-.6-.1-1.8-.2-2.4-.2-.3 0-.6-.3-.6-.5 0-.4.3-.6 1.1-.6 3.2 0 7.6.2 8 .2s5.6-.2 7.8-.2c.7 0 1.1.2 1.1.6 0 .2-.3.5-.5.5-.5 0-1.5 0-2.4.1-2 .4-2.4 1.5-2.6 3.9-.1 2.1-.1 4.1-.1 14.6zm422-191.5c.8 0 .8-.4.6-1.3l-18.3-48.9q-1.5-4.1-3.1 0l-17.2 48.9c-.3.9 0 1.3.6 1.3zm145.8-26.2c0-27.8 0-32.8-.4-38.5-.4-6.1-1.5-9-7.5-9.9-1.5-.2-4.7-.4-6.4-.4-.6 0-1.4-.8-1.4-1.4 0-1.1.8-1.5 2.9-1.5 8.4 0 20.4.4 21.4.4 1.3 0 39.9.2 44.1 0 3.6-.2 7-.8 8.4-1.1.9-.2 1.7-.8 2.5-.8.7 0 .9.8.9 1.7 0 1.3-1.1 3.4-1.5 8.4-.2 1.7-.6 9.7-1 11.8-.3.8-.9 1.8-1.7 1.8-1.1 0-1.5-.8-1.5-2.3 0-1.2-.2-4.2-1.1-6.3-1.2-2.9-3.1-4.2-13.2-5.4-3.1-.4-24.5-.6-26.6-.6-.9 0-1.1.6-1.1 1.8v48.5c0 1.3 0 1.9 1.1 1.9 2.3 0 26.6 0 30.8-.4 4.4-.4 7.2-.6 9-2.5 1.3-1.3 2.2-2.3 2.8-2.3s1 .4 1 1.5c0 1-1 4-1.4 9.8-.4 3.6-.9 10.3-.9 11.6 0 1.4-.4 3.3-1.7 3.3-.8 0-1.2-.6-1.2-1.6 0-1.7 0-3.6-.9-5.9-.6-2.5-2.3-4.6-9.4-5.5-5.1-.6-24.8-.8-27.9-.8-1.1 0-1.3.6-1.3 1.2v14.9c0 6.1-.2 26.9 0 30.5.4 12 3.8 14.3 22.1 14.3 4.8 0 13.6 0 18.4-1.9 4.9-2.1 7.4-5.3 8.4-12.4.5-2.1.9-2.7 1.9-2.7 1.1 0 1.3 1.4 1.3 2.7s-1.5 13.4-2.5 17.2c-1.3 4.6-3.2 4.6-10.3 4.6-13.9 0-24.6-.4-32.1-.6-7.8-.4-12.6-.4-15.4-.4-.4 0-4 0-7.9.2-3.6.2-7.8.4-10.8.4-1.8 0-2.9-.4-2.9-1.4 0-.7.4-1.5 1.5-1.5 1.7 0 4-.7 5.6-.9 3.6-.6 4-4.2 4.9-9.4 1-7.4 1-21.4 1-38.7zM704.6 954.8c0-10.6 0-12.6-.2-14.7-.2-2.3-.6-3.5-2.9-3.8-.6-.1-1.8-.2-2.4-.2-.3 0-.6-.3-.6-.5 0-.4.3-.6 1.1-.6 3.3 0 8 .2 8.4.2.7 0 6.6-.2 8.8-.2 4.5 0 9.5.4 13.2 3 1.8 1.3 4.9 4.6 4.9 9.3 0 5.1-2.1 9.9-8.7 15.6 5.8 7.2 10.7 13.4 14.8 17.6 3.7 3.9 6.1 4.5 7.8 4.8 1.4.2 2.1.2 2.5.2s.7.3.7.5c0 .4-.4.6-1.7.6h-4.4c-4.1 0-5.8-.4-7.6-1.3-3-1.7-5.6-4.9-9.6-10.1-3-3.7-6.1-8.1-7.6-9.9-.3-.4-.5-.4-1-.4l-9-.2c-.3 0-.5.2-.5.6v1.6c0 6.6 0 11.8.4 14.7.2 2 .6 3.3 2.8 3.6.9.1 2.5.3 3.1.3.5 0 .6.3.6.5q0 .6-1.2.6c-3.8 0-8.3-.2-8.6-.2-.1 0-4.8.2-7 .2-.7 0-1.1-.2-1.1-.6 0-.2.1-.5.5-.5.7 0 1.6-.2 2.2-.3 1.4-.3 1.5-1.6 1.8-3.6.5-2.9.5-8.2.5-14.8zm6 5.7c0 .4.2.7.5.9 1.1.6 4.7 1 7.8 1 1.7 0 3.6 0 5.3-1.1 2.4-1.6 4.3-5.3 4.3-10.5 0-8.5-4.7-13.4-12.2-13.4-2.1 0-4.4.3-5.1.4-.3.2-.6.4-.6.8zm-89.2-5.8c0-10.5 0-12.5-.2-14.6-.1-2.4-.5-3.5-2.9-3.8-.5-.1-1.7-.2-2.4-.2-.2 0-.5-.3-.5-.5 0-.4.3-.6 1.1-.6 3.2 0 7.8.2 8.2.2h16.8c1.4-.1 2.7-.4 3.3-.4.3-.1.6-.3.9-.3.2 0 .3.3.3.6 0 .5-.4 1.3-.5 3.2-.1.6-.3 3.7-.4 4.5-.1.3-.3.7-.7.7s-.5-.3-.5-.9c0-.4-.1-1.6-.4-2.4-.5-1.1-1.2-1.6-5.1-2.1-1.2-.1-9.4-.2-10.2-.2-.3 0-.4.2-.4.7v18.6c0 .4 0 .7.4.7.9 0 10.2 0 11.8-.2 1.7-.1 2.7-.2 3.5-.9.4-.5.8-.9 1-.9.3 0 .4.1.4.5s-.4 1.5-.6 3.8c-.1 1.4-.3 3.9-.3 4.4 0 .6-.1 1.3-.6 1.3q-.5 0-.5-.6c0-.7 0-1.4-.3-2.3-.3-1-.9-1.8-3.6-2.1-1.9-.2-9.5-.3-10.7-.3-.4 0-.5.2-.5.5v5.7c0 2.3-.1 10.3 0 11.6.2 4.6 1.5 5.5 8.4 5.5 1.9 0 5.3 0 7.1-.7 1.8-.9 2.8-2 3.2-4.8.2-.8.3-1 .7-1s.5.5.5 1-.6 5.2-.9 6.6c-.5 1.8-1.3 1.8-4 1.8-5.3 0-9.4-.2-12.2-.3-3-.1-4.9-.1-5.9-.1h-3.1c-1.3.1-2.9.2-4 .2-.8 0-1.2-.2-1.2-.5s.2-.6.6-.6c.6 0 1.5-.2 2.2-.3 1.3-.3 1.5-1.6 1.8-3.6.4-2.9.4-8.2.4-14.8zM863 980.2c-6.9-5.9-8.6-13.7-8.6-20.2 0-4.6 1.7-12.5 7.9-18.6 4.3-4.1 10.7-7.3 21.5-7.3 2.8 0 6.9.2 10.3.7 2.6.5 4.9 1 7.2 1.1.7 0 .9.3.9.7 0 .6-.2 1.4-.3 3.9-.1 2.2-.1 6-.2 7s-.4 1.4-.8 1.4c-.5 0-.5-.5-.5-1.4 0-2.7-1.2-5.4-3-6.9-2.5-2-7.7-3.7-13.9-3.7-9.1 0-13.4 2.4-15.9 4.7-5.2 4.8-6.3 10.9-6.3 17.8 0 13.1 10.3 24.7 25.4 24.7 5.3 0 8.8-.4 11.6-3.2 1.6-1.5 2.5-4.4 2.8-5.7.1-.7.2-.9.7-.9.3 0 .6.4.6.9s-.9 6.4-1.7 8.8c-.3 1.3-.5 1.5-1.7 2-2.9 1.1-8.2 1.5-12.8 1.5-10.6 0-17.7-2.5-23.2-7.3M977.4 934c15.9 0 27.9 9.8 27.9 25.7 0 15.2-11.3 27.8-28.3 27.8-19.4 0-27.6-14.5-27.6-26.8 0-11 8.5-26.7 28-26.7m1.6 50.7c6.4 0 19.1-3.4 19.1-23.1 0-16.4-10-25-21.1-25-11.8 0-20.3 7.4-20.3 22.2 0 15.9 9.6 25.9 22.3 25.9m3.3-192.6c0 29-.6 40.1-6.1 52.7-4 9-12.2 17.4-27.1 27.3-2.5 1.7-5.6 3.6-7.5 4.6-.3 0-.7.2-1.3.2-.4 0-1.2-.2-1.2-1 0-1.1.6-1.9 2.2-3 2.4-1.2 4.9-3.3 6.6-4.8 11.9-12 17.6-21.2 17.6-67.2v-51.6c0-27.8 0-32.8-.4-38.5-.4-6.1-1.5-9-7.6-9.8-1.4-.2-4.6-.5-6.3-.5-.6 0-1.4-.8-1.4-1.4 0-1.1.8-1.5 2.9-1.5 8.4 0 20.4.4 21.4.4.9 0 12.4-.4 18-.4 2.2 0 3 .4 3 1.5 0 .6-.8 1.4-1.5 1.4-1.2 0-2.5 0-4.6.5-5 1-6.1 3.5-6.5 9.8-.2 5.7-.2 10.7-.2 38.5zm76.7 162.7c0-10.6 0-12.6-.2-14.7-.1-2.3-.5-3.5-2.8-3.8-.6-.1-1.8-.2-2.4-.2-.3 0-.6-.3-.6-.5 0-.4.3-.6 1.1-.6 3.2 0 7.9.2 8.4.2.7 0 6.6-.2 8.8-.2 4.5 0 9.5.4 13.1 3 1.8 1.3 5 4.6 5 9.3 0 5.1-2.1 9.9-8.7 15.6 5.8 7.2 10.6 13.4 14.7 17.6 3.8 3.9 6.1 4.5 7.9 4.8 1.3.2 2.1.2 2.5.2s.6.3.6.5c0 .4-.4.6-1.7.6h-4.4c-4 0-5.8-.4-7.5-1.3-3.1-1.7-5.6-4.9-9.6-10.1-3-3.7-6.1-8.1-7.7-9.9-.3-.4-.4-.4-.9-.4l-9-.2c-.3 0-.5.2-.5.6v1.6c0 6.6 0 11.8.3 14.7.3 2 .7 3.3 2.8 3.6 1 .1 2.5.3 3.2.3.5 0 .5.3.5.5 0 .4-.3.6-1.1.6-3.9 0-8.3-.2-8.6-.2-.2 0-4.9.2-7 .2-.7 0-1.2-.2-1.2-.6 0-.2.2-.5.6-.5.7 0 1.5-.2 2.2-.3 1.3-.3 1.5-1.6 1.8-3.6.4-2.9.4-8.2.4-14.8zm6.1 5.7c0 .4.2.7.5.9 1 .6 4.6 1 7.8 1 1.7 0 3.6 0 5.3-1.1 2.4-1.6 4.2-5.3 4.2-10.5 0-8.5-4.6-13.4-12.2-13.4-2.1 0-4.3.3-5 .4-.3.2-.6.4-.6.8zm214.4-179.8c0 17.3 0 31.3.8 38.7.6 5.2 1.5 8.6 7.2 9.4 2.5.5 6.7.9 8.4.9 1.2 0 1.4.8 1.4 1.5 0 .8-.8 1.4-2.9 1.4-10.1 0-21.8-.6-22.9-.6-.8 0-13.6.6-19.1.6-2.1 0-2.9-.4-2.9-1.4 0-.7.4-1.3 1.4-1.3 1.7 0 3.8-.4 5.5-.9 3.8-.8 4.8-4.4 5.4-9.6.9-7.4.9-21.4.9-38.7v-74.9l-26.7.4c-11.5.2-15.9 1.5-18.6 5.7-2.1 3.1-2.4 4.4-3 5.6-.4 1.5-1 1.7-1.9 1.7-.4 0-1.2-.4-1.2-1.4 0-1.9 3.7-17.9 4-19.4.4-1 1.2-3.3 1.8-3.3 1.3 0 3.2 1.4 8.2 2.1 5.3.6 12.4.8 14.5.8h69.7c6.1 0 10.3-.4 13.2-.8 2.8-.5 4.5-.9 5.3-.9s.8 1.1.8 2.1c0 5.5-.6 18.3-.6 20.4 0 1.5-.9 2.3-1.7 2.3s-1.3-.6-1.5-3.1l-.2-1.9c-.6-5.5-4.6-9.5-22.2-9.9l-23.1-.4zm-160 49.3c-2.5-1.2-2.7-1.9-2.7-6.7 0-8.8.9-15.9 1.1-18.9 0-1.9.4-2.9 1.4-2.9 1.1 0 1.7.6 1.7 2.1 0 1.4 0 4 .6 6.5 3 13 16.8 17.6 29.2 17.6 18.3 0 27.7-10.3 27.7-23.7 0-12.8-6.9-18.9-23.3-31.1l-8.4-6.3c-19.9-14.9-26.4-25.8-26.4-38.2 0-21 16.6-33.6 40.9-33.6 7.4 0 14.7 1 19.1 2.1 3.6.8 5.1.8 6.5.8 1.5 0 1.9.2 1.9 1.3 0 .8-.8 6.7-.8 18.9 0 2.7-.2 4-1.5 4s-1.5-.9-1.7-2.3c-.2-2.1-1.7-7-2.7-8.8-1.3-2.1-7.3-8.9-23.9-8.9-13.5 0-24.6 6.8-24.6 19.4 0 11.3 5.7 17.8 24 30.2l5.2 3.6c22.4 15.3 30.2 27.7 30.2 43 0 10.5-4 21.9-17.2 30.5-7.8 5-19.3 6.3-29.4 6.3-8.6 0-19.3-1.3-26.9-4.9m32.4 124.7c0-10.6 0-12.5-.2-14.7-.2-2.3-.5-3.4-2.9-3.8-.5 0-1.7-.1-2.4-.1-.2 0-.6-.4-.6-.6q0-.6 1.2-.6c3.2 0 7.6.2 8.2.2 1.5 0 6.8-.2 10-.2 9 0 12.3 2.9 13.5 3.9 1.6 1.5 3.5 4.5 3.5 8.2 0 9.8-7.4 16.3-18.2 16.3-.4 0-1.6 0-2-.1-.3 0-.7-.3-.7-.6 0-.6.4-.8 1.8-.8 7.6 0 13.1-4.8 13.1-11 0-2.2-.3-6.6-4-10.3s-8-3.3-9.6-3.3c-1.2 0-3.2.3-3.9.5-.4.1-.6.5-.6 1.3v27.7c0 6.6 0 12 .3 14.8.3 2 .7 3.3 2.9 3.6.9.2 2.4.3 3.1.3.4 0 .5.3.5.6s-.3.6-1.1.6c-3.8 0-8.5-.3-8.8-.3s-4.8.3-7 .3c-.7 0-1.1-.2-1.1-.6 0-.3.2-.6.6-.6.6 0 1.5-.1 2.1-.3 1.4-.3 1.6-1.6 1.8-3.6.5-2.8.5-8.2.5-14.8zm226.2-174c0 17.2 0 31.3.9 38.6.6 5.3 1.2 8.6 6.7 9.5 2.7.4 6.7.8 8.4.8 1 0 1.5.9 1.5 1.5 0 .8-.9 1.5-3 1.5-10.3 0-22.2-.7-23.1-.7-1 0-12.6.7-18.2.7-1.9 0-3-.5-3-1.5 0-.6.4-1.5 1.5-1.5 1.7 0 4-.4 5.6-.8 3.6-.9 4.3-4.2 4.9-9.5.8-7.3 1-21.4 1-38.6v-31.5c0-27.7 0-32.8-.4-38.4-.4-6.1-1.9-8.9-5.9-9.7-2.1-.4-4.3-.6-5.6-.6-.9 0-1.5-.9-1.5-1.5 0-1.1.8-1.5 2.9-1.5 6.1 0 17.7.4 18.7.4.9 0 12.8-.4 18.5-.4 2.1 0 2.9.4 2.9 1.5 0 .6-.8 1.5-1.4 1.5-1.3 0-2.6 0-4.7.4-5 1-6.1 3.6-6.5 9.9-.2 5.6-.2 10.7-.2 38.4zm58.2 35.1c-18.1-15.6-22.5-35.9-22.5-53 0-11.9 4.4-32.7 20.8-48.7 11.1-10.7 27.9-19.1 56.2-19.1 7.4 0 17.9.6 26.9 2.1 6.9 1.3 12.8 2.5 18.9 2.7 1.9 0 2.3.9 2.3 1.9 0 1.5-.4 3.6-.8 10.1-.2 5.9-.2 15.7-.4 18.3-.3 2.7-1.1 3.8-2.1 3.8-1.3 0-1.5-1.3-1.5-3.8 0-6.9-2.9-14.1-7.8-17.9-6.5-5.4-19.9-9.8-36.3-9.8-23.7 0-35.1 6.3-41.5 12.4-13.7 12.6-16.6 28.5-16.6 46.6 0 34.2 27 64.6 66.5 64.6 13.8 0 23.1-1 30.5-8.4 3.9-4 6.5-11.5 7.1-14.9.4-1.9.6-2.5 1.9-2.5.8 0 1.6 1.3 1.6 2.5 0 1.3-2.5 16.8-4.4 22.9-1 3.4-1.4 4-4.6 5.3-7.5 2.9-21.4 4-33.4 4-27.7 0-46.3-6.5-60.8-19.1"/></g></svg></g></svg>