<svg xmlns="http://www.w3.org/2000/svg" width="40" height="40" viewBox="0 0 40 40"><circle cx="20" cy="20" r="20" fill="#e4dfe9"/><rect x="6" y="6" width="28" height="28" rx="7.9799999999999995" ry="7.9799999999999995" fill="#4b2b6d"/><g transform="translate(11.32, 17.492778740612362)"><svg width="17.36" height="5.014442518775274" viewBox="0 0 1731 500" xmlns="http://www.w3.org/2000/svg"><g xmlns="http://www.w3.org/2000/svg" fill="#ffffff" fill-rule="evenodd"><path d="M1728.36 366.82 953.06 5.64c-6.68-3.12-13.58 3.9-10.37 10.54l112.49 232.98c2.09 4.33-.98 9.4-5.79 9.57L3.49 295.92c-3.45.12-3.49 5.25-.03 5.42l1221.55 59.48c2.86.12 4.87-2.81 3.72-5.44l-59.67-134.87c-2.16-4.87 2.37-10.03 7.49-8.53L1725.8 373.6c4.3 1.27 6.62-4.89 2.56-6.78M1254.89 116.71l217.84 100.8c3.52 1.64 6.43-3.16 3.34-5.51L1200.88 1.35c-2.77-2.11-6.5.93-4.97 4.06l49.04 101.53c2.09 4.3 5.59 7.76 9.94 9.77M1622.96 440.44c-1.6.83-3.38 1.22-5.18 1.11l-737.35-40.54-278.69-15.76c-3.38 1.05-2.81 6 .72 6.27l318.77 38.66s-.43-.4-1.17-1.05c.86.66 1.31 1.05 1.17 1.05l715.7 69.46c2.56.26 5.09-.79 6.73-2.79l86.08-105.16c2.13-2.6-.81-6.23-3.78-4.7z"/></g></svg></g></svg>