<svg xmlns="http://www.w3.org/2000/svg" width="40" height="40" viewBox="0 0 40 40"><circle cx="20" cy="20" r="20" fill="#E9D4FC"/><rect x="6" y="6" width="28" height="28" rx="7.9799999999999995" ry="7.9799999999999995" fill="#450E78"/><g transform="translate(11.32, 11.562181357006976)"><svg width="17.36" height="16.87563728598605" viewBox="0 0 1577 1533" xmlns="http://www.w3.org/2000/svg">
	<title xmlns="http://www.w3.org/2000/svg">download (10)-svg</title>
	
	<g xmlns="http://www.w3.org/2000/svg" id="Layer">
		<g id="Layer">
			<path id="Layer" class="s0" d="m1538.2 24.2c8.1 6.4 15.1 13.9 20.9 22.3 5.7 8.5 10.2 17.8 13.1 27.6 3 9.8 4.4 20 4.2 30.2-0.6 55.5-45.4 99.9-100 99.3-54.6-0.7-98.3-46.1-97.7-101.6v-0.4c-204.3 54.3-423 419.3-510.7 579.3l147.7 295.3c67.2 140.1 96.2 152.8 197.5 151.5l-0.3 20.9h-274.7l-155.1-320.3c-31.1 56.5-309.5 552.2-563.4 679.9-44.8 22.6-95.3 30.6-137 20.1-5-1-9.7-2.6-14.3-4.3-0.3-0.1-0.6-0.2-0.8-0.3-9.9-3.7-19.1-8.9-27.4-15.4-8.3-6.6-15.6-14.3-21.5-23.1-6-8.7-10.6-18.3-13.6-28.4-3-10.1-4.5-20.6-4.4-31.2 0.7-57.2 46.9-103.1 103.3-102.4 56.4 0.6 101.5 47.6 100.8 104.8v0.4c236.5-62.7 493.7-527.1 556.2-645.5l-126.6-261.5c-74.3-146.3-111.6-143.1-202.2-144.8l-1.4-20.8 266.1-17.2 148.8 297.6c65.8-114.5 299.6-500.6 521.1-611.9 43.4-21.9 90.4-29.5 130.5-19.5 3.8 0.8 7.4 2.2 11 3.4 1.1 0.3 2.3 0.6 3.4 1l-0.1 0.1c9.6 3.6 18.6 8.6 26.6 14.9z" fill="#ffffff"/>
		</g>
	</g>
</svg></g></svg>