<svg xmlns="http://www.w3.org/2000/svg" width="40" height="40" viewBox="0 0 40 40"><circle cx="20" cy="20" r="20" fill="#d9e0ed"/><rect x="6" y="6" width="28" height="28" rx="7.9799999999999995" ry="7.9799999999999995" fill="#003087"/><g transform="translate(11.32, 16.721131363922062)"><svg width="17.36" height="6.557737272155877" viewBox="0 0 1591 601" xmlns="http://www.w3.org/2000/svg"><g xmlns="http://www.w3.org/2000/svg" fill="#ffffff" fill-rule="evenodd"><path d="M274.3.6h497.6v160.3H271.8c-82.9 0-99.5 48.1-99.5 136.7 0 35.6-18.2 156.6 107 156.6h333.3v-72H358.9V228h413v372.8H244.5C28.9 600.8.7 434.3.7 295.1.7 116.2 77.9.6 274.3.6M1590.1 295.1c0 178.9-41.4 305.7-243.8 305.7H819V.6h497.4c196.6 0 273.7 115.6 273.7 294.5m-171.7 2.5c0-78.7-6.6-136.7-99.5-136.7H978.1v293.2h333.3c108.7 0 107-84.5 107-156.5"/></g></svg></g></svg>