<svg xmlns="http://www.w3.org/2000/svg" width="40" height="40" viewBox="0 0 40 40"><circle cx="20" cy="20" r="20" fill="#dcdae4"/><rect x="6" y="6" width="28" height="28" rx="7.9799999999999995" ry="7.9799999999999995" fill="#140B4E"/><g transform="translate(11.32, 12.241340782122904)"><svg width="17.36" height="15.517318435754191" viewBox="0 0 537 480" xmlns="http://www.w3.org/2000/svg">
<path xmlns="http://www.w3.org/2000/svg" d="M74.83 44.0205C142.65 41.3705 207.43 19.7705 271.93 0.730481C273.3 1.63048 275.99 3.50046 277.35 4.40046C270.18 30.3005 261.41 55.8005 252.25 81.0305C288.34 60.6805 322.25 36.5405 357.99 15.5104C387.61 -0.86955 423.04 -1.99954 455.98 1.83046C485.79 5.96046 518.3 20.2705 530.07 50.1105C543.17 84.7005 532.64 122.18 523.09 156.34C498.15 234.58 471.61 312.3 446.23 390.42C443 401.89 439.02 413.51 439.33 425.6C440.66 434.02 449.58 436.991 456.83 438.391C470.16 440.501 483.77 440.03 497.17 441.75C492.46 454.11 488.56 466.71 484.59 479.3C422.03 478.09 359.4 477.82 296.84 479.38C323.42 396.27 351.48 313.59 378.69 230.64C388.71 198.62 402.78 166.37 400.32 132.12C399.15 113.68 385.9 97.1805 368.09 92.1505C344.78 86.1005 318.9 84.4305 296.25 93.9005C264.49 107.59 233.5 131.73 224.42 166.64C200.45 239.88 175.98 312.93 152.01 386.17C143.51 417.33 132.17 447.56 122.15 478.25C81.46 478.09 40.73 478.37 0 479.22C40.54 360.74 79.82 241.75 118.41 122.61C120.9 110.71 130.34 90.7105 114.43 84.7005C97.56 81.6205 80.21 81.8105 63.1 80.2905C66.96 68.1605 71.09 56.1505 74.83 44.0205Z" fill="#ffffff"/>
</svg></g></svg>