<svg xmlns="http://www.w3.org/2000/svg" width="40" height="40" viewBox="0 0 40 40"><circle cx="20" cy="20" r="20" fill="#e2f3df"/><rect x="6" y="6" width="28" height="28" rx="7.9799999999999995" ry="7.9799999999999995" fill="#3dae2b"/><g transform="translate(11.572162685603615, 11.32)"><svg width="16.85567462879277" height="17.36" viewBox="0 0 1504 1549" xmlns="http://www.w3.org/2000/svg"><g xmlns="http://www.w3.org/2000/svg" fill-rule="evenodd"><path fill="#ffffff" d="M995.7 1073.7c40.6 60.8 50.2 123.8 48.1 192.1 0 0-1.1 25.6-1.1 37.4H674.3c-1.1 41.6 13.9 82.1 40.6 107.8 18.1 17 43.8 33 81.1 33 37.4 0 60.9-7.4 80.1-26.6 11.8-11.8 21.4-26.7 26.7-47H1031c-3.2 32-25.7 75.8-47 101.4-47 54.4-115.3 76.8-185.8 76.8-75.8 0-130.3-25.6-174.1-67.2-55.5-53.4-85.4-132.3-85.4-220.9s26.7-166.5 80.1-221c41.6-41.6 100.4-69.3 176.2-69.3 81.1 0 155.9 33.1 200.7 103.5M910.3 1205c-1.1-40.6-12.8-72.6-34.2-96.1-17.1-19.2-43.8-32-83.3-32s-72.6 17.1-91.8 42.7c-19.2 24.5-27.8 49.1-28.8 85.4z"/><path fill="#ffffff" d="M1504 233.8v1268.9h-405.8v-129.1h276.6V233.8c0-58.7-47-105.7-105.7-105.7H128.7v643.6h124.9c134.5 0 237.1 83.2 237.1 211.3 0 67.2-39.6 135.5-106.8 159 76.9 21.3 121.7 97.1 121.7 174 0 148.3-116.4 226.2-253.1 226.2-136.6 0-247.7-88.6-252-227.3V0h1268.6C1399.3 0 1504 104.6 1504 233.8M134 1084.4h106.8c72.6 0 114.2-29.9 114.2-99.3 0-53.3-42.7-97.1-101.4-97.1H134zm119.6 340.5c66.2 0 117.5-40.6 117.5-111 0-76.9-60.9-112.1-130.3-112.1H134v113.1c5.4 71.5 53.4 110 119.6 110"/></g></svg></g></svg>