<svg width="40" height="40" viewBox="0 0 40 40" fill="none" xmlns="http://www.w3.org/2000/svg">
<g clip-path="url(#clip0_2399_3)">
<path d="M20 0C31.0457 0 40 8.9543 40 20C40 31.0457 31.0457 40 20 40C8.95431 40 7.90517e-06 31.0457 0 20C6.58765e-07 8.95431 8.95431 1.97595e-06 20 0Z" fill="#D9D9D9"/>
<path d="M26 6C30.4183 6 34 9.58172 34 14V26C34 30.4183 30.4183 34 26 34H14C9.58172 34 6 30.4183 6 26V14C6 9.58172 9.58172 6 14 6H26Z" fill="black"/>
<g clip-path="url(#clip1_2399_3)">
<path d="M14.7074 16.3685H10.3084L15.4902 20.3279C16.2442 19.7941 17.1177 19.2275 17.9018 18.7567L14.7074 16.3685ZM21.095 21.301C20.3424 21.8361 19.5884 22.4328 18.866 22.998L22.7829 25.983H27.2121L21.095 21.301Z" fill="white"/>
<path d="M48.2769 10.7449C24.1687 12.1902 13.0195 22.9351 10.5186 25.4807L10.0063 25.9829H14.4657C26.5198 13.3849 43.8464 11.1541 48.2769 10.7449Z" fill="white"/>
</g>
</g>
<defs>
<clipPath id="clip0_2399_3">
<rect width="40" height="40" fill="white"/>
</clipPath>
<clipPath id="clip1_2399_3">
<rect width="20" height="12" fill="white" transform="translate(10 14)"/>
</clipPath>
</defs>
</svg>
