<svg xmlns="http://www.w3.org/2000/svg" width="40" height="40" viewBox="0 0 40 40"><circle cx="20" cy="20" r="20" fill="#fde6df"/><rect x="6" y="6" width="28" height="28" rx="7.9799999999999995" ry="7.9799999999999995" fill="#F15A29"/><g transform="translate(13.374266666666667, 11.32)"><svg width="13.251466666666666" height="17.36" viewBox="0 0 458 600" xmlns="http://www.w3.org/2000/svg">
<path xmlns="http://www.w3.org/2000/svg" d="M299.571 39.3144C155.837 39.3145 39.2925 155.976 39.2925 299.922C39.2926 443.866 155.838 560.536 299.571 560.536V599.85C134.112 599.85 0.000123238 465.554 0 299.922C0 134.286 134.113 7.19802e-05 299.571 0V39.3144Z" fill="#ffffff"/>
<path xmlns="http://www.w3.org/2000/svg" d="M112.504 142.503C199.511 38.6768 354.124 25.1379 457.818 112.254L432.551 142.362C345.486 69.2168 215.671 80.5814 142.612 167.764L142.612 167.764C69.5461 254.949 80.9099 384.94 167.982 458.092L142.716 488.2C39.2314 401.261 25.5562 246.919 111.995 143.112L112.504 142.503Z" fill="#ffffff"/>
<path xmlns="http://www.w3.org/2000/svg" d="M130.204 210.926C179.34 117.717 294.659 82.029 387.771 131.231L369.42 165.996C295.516 126.943 203.972 155.261 164.958 229.267L164.958 229.267C125.937 303.291 154.241 394.955 228.151 434.021L209.797 468.783C116.697 419.574 81.0688 304.135 130.204 210.926L130.204 210.926Z" fill="#ffffff"/>
<path xmlns="http://www.w3.org/2000/svg" d="M299.571 202.931C246.09 202.931 202.709 246.349 202.709 299.922C202.709 353.502 246.09 396.919 299.571 396.919V436.234C224.364 436.234 163.417 375.189 163.416 299.922C163.416 224.661 224.364 163.617 299.571 163.617V202.931Z" fill="#ffffff"/>
<path xmlns="http://www.w3.org/2000/svg" d="M306.035 216.199C315.979 216.199 325.98 218.109 336.037 221.928C346.091 225.754 354.905 231.815 362.477 240.112L335.554 267.305C331.011 262.501 326.254 258.681 321.285 255.844C316.309 253.001 311.226 251.579 306.035 251.579C298.901 251.579 292.522 252.89 286.899 255.511C281.274 258.132 276.462 261.627 272.462 265.997C268.464 270.366 265.439 275.391 263.386 281.071C261.329 286.752 260.3 292.649 260.3 298.763C260.3 304.881 261.329 310.778 263.386 316.452C265.439 322.134 268.464 327.157 272.462 331.52C276.462 335.896 281.274 339.391 286.899 342.006C292.522 344.627 298.901 345.937 306.035 345.937C312.092 345.937 317.716 344.682 322.907 342.171C328.092 339.662 332.524 336.004 336.202 331.196L362.153 359.37C358.259 363.308 353.771 366.696 348.69 369.532C343.609 372.369 338.473 374.662 333.281 376.411C328.09 378.156 323.118 379.411 318.364 380.177C313.605 380.944 309.495 381.327 306.035 381.327C294.359 381.327 283.332 379.361 272.954 375.43C262.571 371.498 253.597 365.926 246.031 358.713C238.459 351.507 232.457 342.825 228.025 332.67C223.594 322.514 221.378 311.212 221.378 298.763C221.378 286.308 223.594 275.003 228.025 264.847C232.457 254.691 238.459 246.01 246.031 238.804C253.597 231.597 262.571 226.028 272.954 222.096C283.332 218.165 294.359 216.199 306.035 216.199Z" fill="#ffffff"/>
</svg></g></svg>