<?xml version="1.0" encoding="UTF-8"?>
<svg id="_레이어_1" data-name="레이어_1" xmlns="http://www.w3.org/2000/svg" xmlns:xlink="http://www.w3.org/1999/xlink" version="1.1" viewBox="0 0 512 512">
  <defs>
    <linearGradient id="_무제_그라디언트_2" data-name="무제 그라디언트 2" x1="256" y1="-.3" x2="256" y2="511.7" gradientUnits="userSpaceOnUse">
      <stop offset="0" stop-color="#dc143c"/>
      <stop offset="1" stop-color="#1e1e1e"/>
    </linearGradient>
    <linearGradient id="_무제_그라디언트_6" data-name="무제 그라디언트 6" x1="256" y1="22.7" x2="256" y2="488.8" gradientUnits="userSpaceOnUse">
      <stop offset="0" stop-color="#dc143c"/>
      <stop offset=".5" stop-color="#1e1e1e"/>
      <stop offset="1" stop-color="#969696"/>
    </linearGradient>
  </defs>
  <g>
    <circle cx="256" cy="255.7" r="256"/>
    <path fill="url(#_무제_그라디언트_2)" d="M256,8.4c33.4,0,65.8,6.5,96.3,19.4,29.5,12.5,55.9,30.3,78.6,53,22.7,22.7,40.6,49.2,53,78.6,12.9,30.5,19.4,62.9,19.4,96.3s-6.5,65.8-19.4,96.3c-12.5,29.5-30.3,55.9-53,78.6-22.7,22.7-49.2,40.6-78.6,53-30.5,12.9-62.9,19.4-96.3,19.4s-65.8-6.5-96.3-19.4c-29.5-12.5-55.9-30.3-78.6-53-22.7-22.7-40.6-49.2-53-78.6-12.9-30.5-19.4-62.9-19.4-96.3s6.5-65.8,19.4-96.3c12.5-29.5,30.3-55.9,53-78.6,22.7-22.7,49.2-40.6,78.6-53,30.5-12.9,62.9-19.4,96.3-19.4M256-.3C114.6-.3,0,114.4,0,255.7s114.6,256,256,256,256-114.6,256-256S397.4-.3,256-.3h0Z"/>
  </g>
  <path fill="url(#_무제_그라디언트_6)" d="M256,29.6c30.5,0,60.1,6,88,17.8,26.9,11.4,51.1,27.7,71.9,48.5,20.8,20.8,37.1,45,48.5,71.9,11.8,27.9,17.8,57.5,17.8,88s-6,60.1-17.8,88c-11.4,26.9-27.7,51.1-48.5,71.9-20.8,20.8-45,37.1-71.9,48.5-27.9,11.8-57.5,17.8-88,17.8s-60.1-6-88-17.8c-26.9-11.4-51.1-27.7-71.9-48.5-20.8-20.8-37.1-45-48.5-71.9-11.8-27.9-17.8-57.5-17.8-88s6-60.1,17.8-88c11.4-26.9,27.7-51.1,48.5-71.9,20.8-20.8,45-37.1,71.9-48.5,27.9-11.8,57.5-17.8,88-17.8M256,22.7C127.3,22.7,23,127,23,255.7s104.3,233,233,233,233-104.3,233-233S384.7,22.7,256,22.7h0Z"/>
  <path fill="#fff" d="M127.1,173.7v-29.7h59.4l59.4,59.4-44.5,44.5-74.2-74.2h0ZM216.1,262.7l118.7-118.7h59.4v29.7l-118.7,118.7v89h-59.4v-118.7Z"/>
</svg>
