<svg xmlns="http://www.w3.org/2000/svg" width="40" height="40" viewBox="0 0 40 40"><circle cx="20" cy="20" r="20" fill="#e5f3ef"/><rect x="6" y="6" width="28" height="28" rx="7.9799999999999995" ry="7.9799999999999995" fill="#51AD95"/><g transform="translate(13.59093023255814, 11.32)"><svg width="12.81813953488372" height="17.36" viewBox="0 0 381 516" xmlns="http://www.w3.org/2000/svg">
<path xmlns="http://www.w3.org/2000/svg" d="M195.894 212.803C182.259 201.64 156.895 183.873 139.084 172.089C136.871 170.622 134.625 169.143 132.379 167.665C106.203 150.429 73.6275 128.982 76.1898 114.579C79.0568 98.4272 126.95 75.9086 198.434 75.9086C261.519 75.9086 303.667 99.4542 304.965 115.674C305.371 120.754 300.755 135.382 280.889 158.025C269.455 171.051 257.591 181.514 251.53 186.594L246.405 190.894L302.222 243.201L306.263 239.645C314.006 232.827 325.666 221.969 337.168 208.977C368.457 173.613 383.075 140.191 380.636 109.635C375.467 45.0824 300.552 0 198.434 0C153.758 0 111.079 7.3031 78.2554 20.5546C22.6531 42.9942 5.80088 76.8454 1.45518 101.294C-3.77098 130.732 5.01068 157.359 28.3081 182.711C47.892 204.01 74.6321 221.043 98.257 236.089C116.148 247.49 133.056 258.247 144.942 268.959L146.748 270.482L146.895 270.595C147.211 270.855 179.459 296.387 209.969 329.911C246.981 370.569 264.443 399.792 263.371 419.274V419.5C263.179 422.909 262.874 428.598 254.228 432.142C246.281 435.404 230.784 439.287 202.102 439.321H201.718C181.976 439.298 163.329 439.276 150.778 435.122C143.102 432.582 141.646 429.919 141.274 424.884C140.495 414.094 150.495 404.398 167.066 388.324L167.54 387.861C171.897 383.64 175.813 379.802 179.674 375.75L183.794 371.427L128.417 319.527L124.365 323.771C121.588 326.672 118.473 329.719 114.691 333.388C93.764 353.694 62.1368 384.373 65.5795 431.589C68.2772 468.646 89.2268 495.499 124.568 507.182C148.689 515.162 175.599 515.196 201.639 515.218H202.486C235.592 515.218 261.937 511.019 283.022 502.373C317.37 488.298 337.304 461.953 339.166 428.192C341.559 384.757 316.76 334.257 265.459 278.102C235.615 245.436 206.888 221.585 195.883 212.815" fill="#ffffff"/>
</svg></g></svg>