<?xml version="1.0" encoding="UTF-8"?>
<svg id="_레이어_1" data-name="레이어_1" xmlns="http://www.w3.org/2000/svg" xmlns:xlink="http://www.w3.org/1999/xlink" version="1.1" viewBox="0 0 512 512">
  <defs>
    <linearGradient id="_무제_그라디언트_6" data-name="무제 그라디언트 6" x1="256" y1="-.3" x2="256" y2="514" gradientUnits="userSpaceOnUse">
      <stop offset="0" stop-color="#dc143c"/>
      <stop offset=".5" stop-color="#1e1e1e"/>
      <stop offset="1" stop-color="#969696"/>
    </linearGradient>
    <linearGradient id="_무제_그라디언트_61" data-name="무제 그라디언트 6" x1="256" y1="22.8" x2="256" y2="490.9" xlink:href="#_무제_그라디언트_6"/>
  </defs>
  <g>
    <circle cx="256" cy="256.9" r="257.1"/>
    <path fill="url(#_무제_그라디언트_6)" d="M256,8.4c33.5,0,66.1,6.6,96.7,19.5,29.6,12.5,56.2,30.4,79,53.3,22.8,22.8,40.7,49.4,53.3,79,13,30.6,19.5,63.2,19.5,96.7s-6.6,66.1-19.5,96.7c-12.5,29.6-30.4,56.2-53.3,79-22.8,22.8-49.4,40.7-79,53.3-30.6,13-63.2,19.5-96.7,19.5s-66.1-6.6-96.7-19.5c-29.6-12.5-56.2-30.4-79-53.3-22.8-22.8-40.7-49.4-53.3-79-13-30.6-19.5-63.2-19.5-96.7s6.6-66.1,19.5-96.7c12.5-29.6,30.4-56.2,53.3-79,22.8-22.8,49.4-40.7,79-53.3,30.6-13,63.2-19.5,96.7-19.5M256-.3C114-.3-1.1,114.9-1.1,256.9s115.1,257.1,257.1,257.1,257.1-115.1,257.1-257.1S398-.3,256-.3h0Z"/>
  </g>
  <g>
    <circle cx="256" cy="256.9" r="234"/>
    <path fill="url(#_무제_그라디언트_61)" d="M256,29.7c30.7,0,60.4,6,88.4,17.8,27,11.4,51.3,27.8,72.2,48.7,20.9,20.9,37.2,45.1,48.7,72.2,11.8,28,17.8,57.7,17.8,88.4s-6,60.4-17.8,88.4c-11.4,27-27.8,51.3-48.7,72.2-20.9,20.9-45.1,37.2-72.2,48.7-28,11.8-57.7,17.8-88.4,17.8s-60.4-6-88.4-17.8c-27-11.4-51.3-27.8-72.2-48.7-20.9-20.9-37.2-45.1-48.7-72.2-11.8-28-17.8-57.7-17.8-88.4s6-60.4,17.8-88.4c11.4-27,27.8-51.3,48.7-72.2s45.1-37.2,72.2-48.7c28-11.8,57.7-17.8,88.4-17.8M256,22.8C126.7,22.8,22,127.6,22,256.9s104.8,234,234,234,234-104.8,234-234S385.3,22.8,256,22.8h0Z"/>
  </g>
  <path fill="#fff" d="M121.8,355.1v-8.8l208.7-208.7h59.6v29.8l-208.7,208.7h-59.6v-21ZM121.8,167.4v-29.8h59.6l59.6,59.6-44.7,44.7-74.5-74.5h0ZM270.9,316.5l44.7-44.7,74.5,74.5v29.8h-59.6l-59.6-59.6h0Z"/>
</svg>
