<svg xmlns="http://www.w3.org/2000/svg" width="40" height="40" viewBox="0 0 40 40"><circle cx="20" cy="20" r="20" fill="#e2e2e9"/><rect x="6" y="6" width="28" height="28" rx="7.9799999999999995" ry="7.9799999999999995" fill="#3c3b6e"/><g transform="translate(11.32, 15.622666666666667)"><svg width="17.36" height="8.754666666666667" viewBox="0 0 930 469" xmlns="http://www.w3.org/2000/svg">
  <title xmlns="http://www.w3.org/2000/svg">USA Rare Earth logo vector trace</title>
  <g xmlns="http://www.w3.org/2000/svg" fill="#ffffff" fill-rule="evenodd" stroke="none">
    <path d="M 426 400 L 427 399 L 428 400 L 427 401 Z M 470 390 L 469 390 L 467 392 L 466 392 L 466 393 L 463 396 L 463 397 L 461 399 L 461 400 L 456 405 L 456 406 L 453 409 L 453 410 L 448 415 L 448 416 L 445 419 L 445 420 L 442 423 L 442 424 L 438 428 L 438 429 L 435 432 L 435 433 L 430 438 L 430 439 L 428 441 L 428 442 L 424 446 L 424 447 L 423 448 L 422 448 L 422 449 L 420 451 L 420 452 L 416 456 L 416 457 L 415 458 L 415 460 L 413 462 L 414 461 L 417 461 L 424 454 L 425 454 L 425 453 L 429 449 L 429 448 L 436 441 L 436 440 L 442 434 L 442 433 L 446 429 L 446 428 L 452 422 L 452 421 L 457 416 L 457 415 L 464 408 L 464 407 L 466 405 L 466 404 L 469 399 L 469 397 L 470 396 Z M 182 385 L 183 384 L 184 385 L 183 386 Z M 183 384 L 183 383 L 185 381 L 186 381 L 187 382 L 184 385 Z M 186 381 L 186 380 L 187 379 L 188 379 L 189 380 L 187 382 Z M 574 379 L 575 378 L 576 379 L 575 380 Z M 576 377 L 577 376 L 578 377 L 577 378 Z M 57 369 L 58 368 L 59 369 L 58 370 Z M 485 361 L 477 361 L 476 362 L 475 362 L 472 365 L 472 366 L 466 372 L 466 373 L 463 376 L 463 377 L 461 379 L 461 380 L 457 384 L 456 387 L 451 392 L 451 393 L 445 400 L 445 401 L 443 403 L 443 404 L 439 408 L 438 411 L 434 415 L 433 418 L 429 422 L 429 423 L 427 425 L 427 426 L 425 428 L 425 429 L 422 432 L 422 433 L 420 435 L 419 438 L 422 435 L 423 435 L 423 434 L 438 419 L 438 418 L 444 412 L 444 411 L 451 404 L 451 403 L 452 402 L 453 402 L 453 401 L 457 397 L 457 396 L 464 389 L 464 388 L 470 382 L 470 381 L 478 373 L 478 372 L 482 368 L 482 367 L 485 364 L 485 363 L 486 362 Z M 911 356 L 910 357 L 909 357 L 899 367 L 899 368 L 895 372 L 895 373 L 889 379 L 889 380 L 885 384 L 885 385 L 878 392 L 878 393 L 876 395 L 876 396 L 876 395 L 877 394 L 878 394 L 894 378 L 895 378 L 895 377 L 897 375 L 898 375 L 904 369 L 904 368 L 909 363 L 910 363 L 910 362 L 912 360 L 912 357 Z M 469 352 L 467 352 L 466 351 L 461 351 L 460 352 L 455 352 L 454 353 L 452 353 L 446 359 L 446 360 L 438 369 L 438 370 L 435 373 L 435 374 L 432 377 L 432 378 L 431 379 L 430 379 L 430 380 L 427 383 L 427 384 L 425 386 L 425 387 L 420 392 L 420 393 L 416 397 L 416 398 L 413 401 L 413 402 L 407 408 L 407 409 L 404 412 L 404 413 L 401 416 L 401 417 L 396 422 L 396 423 L 393 426 L 393 427 L 385 436 L 385 437 L 382 440 L 382 441 L 380 443 L 380 445 L 379 446 L 381 446 L 382 445 L 384 445 L 395 434 L 395 433 L 407 421 L 407 420 L 410 417 L 410 416 L 411 415 L 412 415 L 414 413 L 414 412 L 415 411 L 416 411 L 416 410 L 423 403 L 423 402 L 426 400 L 427 401 L 427 402 L 426 403 L 425 406 L 422 409 L 422 410 L 421 411 L 420 414 L 418 416 L 418 417 L 425 411 L 425 410 L 437 398 L 437 397 L 443 391 L 443 390 L 448 385 L 448 384 L 456 376 L 456 375 L 464 367 L 464 366 L 465 365 L 466 365 L 466 364 L 468 362 L 468 361 L 472 357 L 472 355 L 471 355 Z M 912 337 L 911 338 L 910 338 L 903 345 L 903 346 L 895 354 L 895 355 L 887 363 L 887 364 L 886 365 L 885 365 L 885 366 L 880 371 L 880 372 L 879 373 L 878 373 L 878 374 L 875 377 L 875 378 L 873 380 L 872 380 L 872 381 L 868 385 L 868 386 L 865 389 L 865 390 L 864 391 L 865 391 L 866 390 L 867 390 L 869 388 L 872 387 L 877 382 L 878 382 L 878 381 L 881 378 L 882 378 L 894 366 L 895 366 L 895 365 L 897 363 L 898 363 L 901 360 L 901 359 L 902 358 L 903 358 L 904 357 L 904 356 L 909 351 L 909 350 L 912 347 L 912 346 L 914 343 L 914 339 Z M 172 333 L 170 335 L 167 336 L 158 344 L 157 344 L 151 350 L 151 351 L 148 354 L 148 356 L 150 356 L 152 354 L 153 354 L 153 353 L 155 351 L 156 351 L 168 339 L 168 338 L 172 334 Z M 144 326 L 142 324 L 141 325 L 140 325 L 138 327 L 137 327 L 119 345 L 118 345 L 118 346 L 111 353 L 110 353 L 96 367 L 96 368 L 92 372 L 91 372 L 86 377 L 86 378 L 81 383 L 81 384 L 87 382 L 91 378 L 92 378 L 97 373 L 98 373 L 106 365 L 107 365 L 111 361 L 111 360 L 112 359 L 113 359 L 119 353 L 120 353 L 130 343 L 131 343 L 135 339 L 135 338 L 136 337 L 137 337 L 143 331 L 143 330 L 144 329 Z M 900 324 L 899 324 L 898 323 L 895 323 L 893 325 L 893 326 L 886 333 L 886 334 L 881 339 L 881 340 L 876 345 L 876 346 L 869 353 L 869 354 L 863 360 L 863 361 L 862 362 L 861 362 L 861 363 L 858 366 L 858 367 L 852 373 L 852 374 L 845 381 L 845 382 L 840 387 L 840 388 L 836 392 L 836 393 L 835 394 L 834 394 L 834 395 L 828 401 L 828 402 L 826 404 L 826 405 L 825 406 L 825 409 L 826 409 L 827 408 L 830 408 L 831 407 L 832 407 L 846 393 L 847 393 L 847 392 L 849 390 L 850 390 L 853 387 L 853 386 L 856 383 L 857 383 L 859 381 L 859 380 L 860 379 L 861 379 L 886 354 L 886 353 L 889 350 L 890 350 L 891 349 L 891 348 L 902 337 L 902 336 L 904 334 L 904 333 L 905 332 L 905 329 Z M 172 318 L 166 320 L 161 325 L 160 325 L 152 333 L 151 333 L 145 339 L 144 339 L 136 347 L 135 347 L 126 356 L 125 356 L 125 357 L 122 360 L 121 360 L 117 364 L 117 365 L 115 367 L 115 369 L 117 369 L 118 368 L 119 368 L 120 367 L 123 366 L 128 361 L 129 361 L 139 351 L 140 351 L 143 348 L 143 347 L 144 346 L 145 346 L 152 339 L 153 339 L 155 337 L 155 336 L 156 335 L 157 335 L 168 324 L 169 324 L 169 323 L 171 321 Z M 438 315 L 435 312 L 434 312 L 433 311 L 432 312 L 431 312 L 428 315 L 428 316 L 427 317 L 427 318 L 425 320 L 424 323 L 418 330 L 418 331 L 416 333 L 416 334 L 405 345 L 404 345 L 399 349 L 398 349 L 397 350 L 395 350 L 394 351 L 391 352 L 388 355 L 387 355 L 382 360 L 381 360 L 377 364 L 376 364 L 361 379 L 360 379 L 358 381 L 358 382 L 357 383 L 356 383 L 345 394 L 344 394 L 332 406 L 331 406 L 317 420 L 316 420 L 313 423 L 313 424 L 311 426 L 310 426 L 302 434 L 301 434 L 299 436 L 298 436 L 295 439 L 294 439 L 291 442 L 290 442 L 288 444 L 287 444 L 285 446 L 284 446 L 282 448 L 281 448 L 278 451 L 277 451 L 275 453 L 272 454 L 270 456 L 269 456 L 267 458 L 266 458 L 269 458 L 270 457 L 273 457 L 274 456 L 275 456 L 280 453 L 282 453 L 283 452 L 284 452 L 289 449 L 291 449 L 293 447 L 294 447 L 295 446 L 297 446 L 300 443 L 301 443 L 302 442 L 305 441 L 307 439 L 308 439 L 310 437 L 311 437 L 313 435 L 314 435 L 316 433 L 317 433 L 320 430 L 321 430 L 325 426 L 326 426 L 331 421 L 332 421 L 343 410 L 344 410 L 362 392 L 363 392 L 364 391 L 366 391 L 367 392 L 365 394 L 364 397 L 361 400 L 361 401 L 359 403 L 359 404 L 352 411 L 352 412 L 351 413 L 350 413 L 347 416 L 347 417 L 344 420 L 343 420 L 339 424 L 339 425 L 338 426 L 337 426 L 337 427 L 331 433 L 331 434 L 328 437 L 328 438 L 326 440 L 326 443 L 325 444 L 325 446 L 326 446 L 326 445 L 327 444 L 328 444 L 338 434 L 339 434 L 339 433 L 345 427 L 346 427 L 346 426 L 347 425 L 348 425 L 348 424 L 363 409 L 363 408 L 372 399 L 372 398 L 376 394 L 376 393 L 383 386 L 383 385 L 386 382 L 386 381 L 390 377 L 391 374 L 395 370 L 396 370 L 397 369 L 400 369 L 401 370 L 401 371 L 400 372 L 399 372 L 398 375 L 396 377 L 396 378 L 393 381 L 392 384 L 388 388 L 388 389 L 386 391 L 385 394 L 379 401 L 379 402 L 377 404 L 377 405 L 373 409 L 373 410 L 372 411 L 372 413 L 368 417 L 368 418 L 367 419 L 366 422 L 364 424 L 364 425 L 365 424 L 366 424 L 367 423 L 367 422 L 369 420 L 370 420 L 371 419 L 371 418 L 384 405 L 384 404 L 389 399 L 389 398 L 390 397 L 391 397 L 391 396 L 397 390 L 397 389 L 398 388 L 399 388 L 399 387 L 403 383 L 403 382 L 410 375 L 410 374 L 411 373 L 412 373 L 412 372 L 413 371 L 414 371 L 414 370 L 421 363 L 422 363 L 423 364 L 417 371 L 417 372 L 415 374 L 414 377 L 413 378 L 412 378 L 412 379 L 410 381 L 410 382 L 408 384 L 408 385 L 406 387 L 406 388 L 402 392 L 401 395 L 398 398 L 398 399 L 395 402 L 394 405 L 388 412 L 388 413 L 386 415 L 386 416 L 384 418 L 384 419 L 380 424 L 380 425 L 379 426 L 379 427 L 377 429 L 377 430 L 380 427 L 381 427 L 388 420 L 388 419 L 389 418 L 390 418 L 392 415 L 393 415 L 393 414 L 399 408 L 399 407 L 401 405 L 402 405 L 402 404 L 403 403 L 404 403 L 404 402 L 409 397 L 409 396 L 419 386 L 419 385 L 431 373 L 431 372 L 441 362 L 441 361 L 442 360 L 443 360 L 443 359 L 453 349 L 453 348 L 455 346 L 455 345 L 456 344 L 456 341 L 452 337 L 450 337 L 449 336 L 447 336 L 445 334 L 445 333 L 443 330 L 443 328 L 441 326 L 441 323 L 440 322 L 440 320 L 439 319 L 439 317 L 438 316 Z M 296 310 L 297 309 L 298 310 L 297 311 Z M 793 309 L 794 308 L 795 309 L 794 310 Z M 794 308 L 795 307 L 796 308 L 795 309 Z M 892 315 L 890 313 L 887 312 L 878 303 L 878 302 L 877 302 L 876 301 L 874 301 L 873 302 L 872 302 L 870 304 L 869 304 L 865 308 L 864 308 L 861 311 L 860 311 L 854 317 L 853 317 L 844 326 L 844 327 L 838 334 L 838 335 L 836 337 L 836 338 L 833 341 L 833 342 L 830 345 L 830 346 L 826 350 L 826 351 L 821 356 L 821 357 L 820 358 L 819 358 L 818 359 L 818 360 L 809 369 L 809 370 L 807 372 L 807 378 L 806 379 L 806 381 L 805 382 L 804 385 L 800 389 L 800 390 L 798 392 L 797 392 L 790 399 L 789 399 L 758 430 L 758 431 L 757 432 L 756 432 L 756 433 L 753 436 L 752 436 L 751 439 L 750 440 L 749 440 L 746 443 L 746 444 L 744 446 L 744 447 L 745 447 L 747 445 L 750 444 L 752 442 L 753 442 L 756 439 L 759 438 L 762 435 L 763 435 L 837 361 L 838 362 L 838 364 L 837 365 L 836 368 L 833 371 L 833 372 L 830 375 L 830 376 L 827 379 L 827 380 L 824 383 L 824 384 L 821 387 L 821 388 L 815 395 L 815 396 L 813 398 L 813 399 L 809 403 L 809 404 L 807 406 L 807 407 L 804 410 L 803 413 L 800 416 L 800 417 L 799 418 L 799 419 L 800 419 L 803 416 L 803 415 L 804 414 L 805 414 L 827 391 L 827 390 L 831 386 L 831 385 L 833 383 L 834 383 L 835 382 L 835 381 L 841 375 L 841 374 L 850 365 L 850 364 L 853 361 L 853 360 L 857 356 L 858 356 L 858 355 L 860 353 L 860 352 L 865 347 L 865 346 L 866 345 L 867 345 L 867 344 L 875 336 L 875 335 L 879 331 L 879 330 L 882 327 L 883 327 L 883 326 L 891 318 Z M 839 295 L 837 295 L 835 297 L 835 298 L 831 303 L 830 306 L 828 308 L 827 311 L 825 313 L 825 315 L 824 316 L 823 319 L 825 319 L 835 309 L 835 308 L 837 306 L 837 305 L 839 303 L 839 302 L 840 301 L 840 297 L 839 296 Z M 387 288 L 386 289 L 385 289 L 385 290 L 376 299 L 376 300 L 372 304 L 372 305 L 368 309 L 368 310 L 363 315 L 363 316 L 361 318 L 361 319 L 360 320 L 359 323 L 361 323 L 371 313 L 371 312 L 374 309 L 374 308 L 378 304 L 378 303 L 381 300 L 381 299 L 383 297 L 383 296 L 384 295 L 385 292 L 387 290 Z M 834 273 L 831 273 L 829 275 L 828 278 L 825 281 L 825 282 L 824 283 L 824 284 L 822 286 L 822 287 L 821 288 L 820 291 L 817 294 L 816 297 L 813 300 L 812 303 L 808 308 L 808 309 L 807 310 L 806 313 L 804 315 L 804 316 L 800 321 L 800 323 L 799 324 L 798 327 L 796 329 L 796 330 L 795 331 L 795 333 L 795 332 L 796 331 L 797 331 L 799 329 L 799 328 L 805 322 L 805 321 L 810 316 L 810 315 L 813 312 L 813 311 L 814 310 L 815 310 L 816 307 L 820 303 L 820 302 L 823 299 L 823 298 L 825 296 L 825 295 L 828 292 L 828 291 L 829 290 L 829 289 L 830 288 L 830 287 L 833 282 L 833 275 L 834 274 Z M 238 269 L 237 269 L 236 268 L 233 268 L 232 269 L 231 269 L 230 270 L 230 271 L 225 276 L 225 277 L 220 282 L 220 283 L 218 285 L 218 286 L 216 288 L 216 289 L 212 293 L 211 296 L 210 297 L 209 297 L 209 298 L 207 300 L 207 301 L 204 304 L 204 305 L 202 307 L 202 308 L 199 311 L 199 312 L 193 319 L 193 320 L 191 322 L 191 323 L 188 326 L 188 327 L 187 328 L 186 328 L 186 329 L 183 334 L 183 336 L 185 336 L 186 335 L 189 334 L 199 324 L 199 323 L 200 322 L 201 322 L 201 321 L 207 315 L 207 314 L 212 309 L 212 308 L 214 306 L 214 305 L 220 299 L 220 298 L 223 295 L 223 294 L 227 290 L 227 289 L 231 285 L 231 284 L 235 280 L 235 279 L 238 276 L 238 275 L 239 274 L 239 271 L 238 270 Z M 828 255 L 827 255 L 826 254 L 823 254 L 822 255 L 821 255 L 817 259 L 817 260 L 814 263 L 814 264 L 811 267 L 811 268 L 809 270 L 809 271 L 805 276 L 805 277 L 804 278 L 804 279 L 802 281 L 802 282 L 799 285 L 799 286 L 797 288 L 797 289 L 796 290 L 796 291 L 794 293 L 794 294 L 791 297 L 791 298 L 789 300 L 789 301 L 786 304 L 786 305 L 784 307 L 783 310 L 781 312 L 781 313 L 777 318 L 776 321 L 773 324 L 773 325 L 770 328 L 770 329 L 768 331 L 768 332 L 767 333 L 767 334 L 765 336 L 765 337 L 764 338 L 763 341 L 766 341 L 767 340 L 768 340 L 772 336 L 772 335 L 774 333 L 774 332 L 777 329 L 777 328 L 781 324 L 781 323 L 786 318 L 786 317 L 790 313 L 790 312 L 793 309 L 794 310 L 794 313 L 793 314 L 793 317 L 795 315 L 795 314 L 798 311 L 798 310 L 800 308 L 800 307 L 803 304 L 803 303 L 807 298 L 808 295 L 811 292 L 811 291 L 815 286 L 816 283 L 818 281 L 818 280 L 820 278 L 820 277 L 824 272 L 825 269 L 827 267 L 828 264 L 830 262 L 831 259 L 830 258 L 830 257 Z M 581 252 L 582 251 L 583 252 L 582 253 Z M 445 250 L 446 249 L 447 250 L 446 251 Z M 815 247 L 813 247 L 810 250 L 810 251 L 806 256 L 805 259 L 802 262 L 802 263 L 798 268 L 798 269 L 797 270 L 796 273 L 792 277 L 792 278 L 789 281 L 789 282 L 787 284 L 786 287 L 784 289 L 784 290 L 782 292 L 782 293 L 780 295 L 780 296 L 778 298 L 778 299 L 776 301 L 776 302 L 774 304 L 774 305 L 772 307 L 772 308 L 770 310 L 770 311 L 768 313 L 768 314 L 766 316 L 766 317 L 764 319 L 764 320 L 760 325 L 760 326 L 758 329 L 758 330 L 759 331 L 763 331 L 764 330 L 764 329 L 766 327 L 766 326 L 768 324 L 768 323 L 771 320 L 771 319 L 772 318 L 772 317 L 774 315 L 774 314 L 777 311 L 777 310 L 779 308 L 779 307 L 782 304 L 782 303 L 784 301 L 784 300 L 787 297 L 787 296 L 789 294 L 789 293 L 792 290 L 792 289 L 795 286 L 795 285 L 797 283 L 797 282 L 800 279 L 800 278 L 802 276 L 802 275 L 805 272 L 805 271 L 807 269 L 807 268 L 810 265 L 810 264 L 811 263 L 811 262 L 813 260 L 813 258 L 815 255 L 815 250 L 816 249 L 816 248 Z M 737 247 L 732 252 L 732 253 L 730 255 L 730 256 L 727 259 L 727 260 L 724 263 L 724 264 L 722 266 L 722 267 L 720 269 L 720 270 L 716 274 L 716 275 L 714 277 L 714 278 L 711 281 L 711 282 L 708 285 L 708 286 L 706 288 L 706 289 L 704 291 L 704 292 L 698 299 L 698 300 L 696 302 L 696 303 L 694 305 L 694 306 L 692 308 L 692 309 L 688 313 L 688 314 L 687 315 L 687 316 L 685 318 L 684 321 L 680 325 L 680 326 L 679 327 L 678 330 L 674 334 L 674 335 L 672 337 L 672 338 L 670 340 L 670 341 L 670 340 L 673 337 L 673 336 L 677 332 L 677 331 L 679 329 L 680 329 L 681 328 L 681 327 L 683 325 L 683 324 L 689 318 L 689 317 L 693 313 L 694 310 L 699 305 L 699 304 L 703 300 L 703 299 L 706 296 L 706 295 L 711 290 L 711 289 L 715 285 L 715 284 L 723 275 L 723 274 L 725 272 L 725 271 L 727 269 L 727 268 L 730 265 L 730 264 L 732 262 L 732 261 L 735 258 L 735 256 L 736 255 L 736 254 L 738 252 L 738 248 Z M 343 235 L 344 236 L 344 237 L 341 240 L 340 239 L 340 238 Z M 411 226 L 409 226 L 408 227 L 405 228 L 403 230 L 403 231 L 400 234 L 400 235 L 395 240 L 395 241 L 393 243 L 393 244 L 388 249 L 388 250 L 386 252 L 386 253 L 382 257 L 381 260 L 376 265 L 376 266 L 372 270 L 372 271 L 370 273 L 370 274 L 367 277 L 367 278 L 366 279 L 365 279 L 365 280 L 363 282 L 363 283 L 359 287 L 359 288 L 357 290 L 357 291 L 354 294 L 353 297 L 345 305 L 345 306 L 344 307 L 345 307 L 350 302 L 351 299 L 352 298 L 353 298 L 353 297 L 363 287 L 363 286 L 366 283 L 366 282 L 375 273 L 375 272 L 380 267 L 380 266 L 382 264 L 382 263 L 388 257 L 388 256 L 398 245 L 398 244 L 402 240 L 402 239 L 404 237 L 404 236 L 407 234 L 407 233 L 409 231 L 409 230 L 410 229 Z M 569 217 L 570 218 L 570 219 L 567 222 L 566 221 L 566 220 Z M 421 218 L 422 217 L 423 218 L 422 219 Z M 793 216 L 790 219 L 790 220 L 789 221 L 789 222 L 788 223 L 787 226 L 785 228 L 785 230 L 784 231 L 783 234 L 781 236 L 781 237 L 780 238 L 780 239 L 779 240 L 779 241 L 778 242 L 778 243 L 777 244 L 776 247 L 773 250 L 773 252 L 771 254 L 771 255 L 770 256 L 769 259 L 765 264 L 765 265 L 764 266 L 763 269 L 758 274 L 758 275 L 755 278 L 755 279 L 749 286 L 749 287 L 747 289 L 747 290 L 745 292 L 745 293 L 739 300 L 739 301 L 737 303 L 736 306 L 732 310 L 731 313 L 729 315 L 729 316 L 727 318 L 727 319 L 725 321 L 725 322 L 721 327 L 721 331 L 722 331 L 723 332 L 725 332 L 727 330 L 727 329 L 729 327 L 730 324 L 732 322 L 732 321 L 734 319 L 734 318 L 737 315 L 737 314 L 739 312 L 739 311 L 741 309 L 741 308 L 743 306 L 743 305 L 745 303 L 745 302 L 747 300 L 747 299 L 751 295 L 751 294 L 753 292 L 753 291 L 755 289 L 755 288 L 758 285 L 758 284 L 760 282 L 760 281 L 763 278 L 763 277 L 765 275 L 765 274 L 767 272 L 767 271 L 771 267 L 771 266 L 774 263 L 775 263 L 776 262 L 777 262 L 782 259 L 783 260 L 783 261 L 782 262 L 781 265 L 778 268 L 778 270 L 775 273 L 775 274 L 773 276 L 773 277 L 769 282 L 768 285 L 765 288 L 764 291 L 762 293 L 762 294 L 758 299 L 758 300 L 757 301 L 756 304 L 754 306 L 754 307 L 750 312 L 749 315 L 745 320 L 744 323 L 742 325 L 742 326 L 738 331 L 738 332 L 737 333 L 736 336 L 732 341 L 732 342 L 731 343 L 731 345 L 732 346 L 737 346 L 739 344 L 739 343 L 740 342 L 740 341 L 742 339 L 743 336 L 744 335 L 745 335 L 745 333 L 748 330 L 748 329 L 750 327 L 751 324 L 754 321 L 754 320 L 756 318 L 756 317 L 759 314 L 759 313 L 761 311 L 761 310 L 763 308 L 763 307 L 765 305 L 765 304 L 767 302 L 767 301 L 771 297 L 772 294 L 774 292 L 774 291 L 777 288 L 777 287 L 779 285 L 779 284 L 780 283 L 780 282 L 782 280 L 782 279 L 786 275 L 786 274 L 788 272 L 788 271 L 790 269 L 790 268 L 794 263 L 795 260 L 798 257 L 798 256 L 800 254 L 800 252 L 802 250 L 803 247 L 805 245 L 805 244 L 807 242 L 807 241 L 808 240 L 808 235 L 802 228 L 802 227 L 800 225 L 800 224 L 798 222 L 798 221 L 795 218 L 795 217 L 794 217 Z M 682 208 L 679 208 L 678 209 L 678 210 L 676 212 L 676 213 L 672 218 L 672 219 L 671 220 L 671 222 L 668 225 L 668 226 L 666 229 L 666 231 L 665 232 L 666 232 L 668 230 L 669 230 L 669 229 L 672 226 L 672 225 L 674 223 L 675 223 L 677 221 L 677 220 L 682 215 L 682 214 L 683 213 L 683 209 Z M 576 208 L 577 207 L 578 208 L 577 209 Z M 674 206 L 669 206 L 668 207 L 667 207 L 667 208 L 664 211 L 664 212 L 663 213 L 663 214 L 661 216 L 661 217 L 660 218 L 659 218 L 659 219 L 658 220 L 658 221 L 656 223 L 656 224 L 650 231 L 650 232 L 648 234 L 648 235 L 644 239 L 643 242 L 640 245 L 640 246 L 638 248 L 638 250 L 635 253 L 635 254 L 633 256 L 632 259 L 630 261 L 630 262 L 628 265 L 636 257 L 636 256 L 642 250 L 642 249 L 647 244 L 647 243 L 657 232 L 657 231 L 660 228 L 660 227 L 661 226 L 662 226 L 662 225 L 665 222 L 665 221 L 670 216 L 670 215 L 674 211 L 674 210 L 675 209 L 675 207 Z M 536 206 L 537 205 L 538 206 L 537 207 Z M 537 205 L 538 204 L 539 205 L 538 206 Z M 663 203 L 659 203 L 658 202 L 657 202 L 656 203 L 652 203 L 651 204 L 650 204 L 648 206 L 648 207 L 644 211 L 644 212 L 640 216 L 640 217 L 634 224 L 634 225 L 632 227 L 632 228 L 628 232 L 628 233 L 622 240 L 622 241 L 620 243 L 620 244 L 616 248 L 616 249 L 614 251 L 614 252 L 610 256 L 610 257 L 604 264 L 603 267 L 599 271 L 599 272 L 597 274 L 597 275 L 592 280 L 592 281 L 590 283 L 590 284 L 587 287 L 587 288 L 585 290 L 585 291 L 582 294 L 582 295 L 578 299 L 578 300 L 575 303 L 575 304 L 569 311 L 568 314 L 565 317 L 565 318 L 562 321 L 562 322 L 558 326 L 558 327 L 555 330 L 554 333 L 552 335 L 552 336 L 551 337 L 551 339 L 552 338 L 553 338 L 557 334 L 558 334 L 559 333 L 559 332 L 563 328 L 563 327 L 570 320 L 570 319 L 572 317 L 572 316 L 580 307 L 581 304 L 582 303 L 583 303 L 584 302 L 584 301 L 586 299 L 591 299 L 593 297 L 594 297 L 599 292 L 599 291 L 602 288 L 602 287 L 605 284 L 605 283 L 610 278 L 610 277 L 613 274 L 613 273 L 616 270 L 616 269 L 620 265 L 620 264 L 623 261 L 623 260 L 626 257 L 626 256 L 630 252 L 630 251 L 632 249 L 632 248 L 636 244 L 636 243 L 638 241 L 638 240 L 641 237 L 641 236 L 645 232 L 645 231 L 647 229 L 647 228 L 652 223 L 652 222 L 654 220 L 654 219 L 657 216 L 657 215 L 659 213 L 659 212 L 662 209 L 662 208 L 664 205 L 664 204 Z M 645 198 L 640 198 L 639 199 L 637 199 L 636 200 L 635 200 L 630 205 L 630 206 L 627 209 L 627 210 L 625 212 L 625 213 L 623 215 L 623 216 L 620 219 L 620 220 L 618 222 L 618 223 L 616 225 L 616 226 L 612 230 L 611 233 L 607 237 L 607 238 L 604 241 L 604 242 L 602 244 L 602 245 L 600 247 L 600 248 L 597 251 L 597 252 L 595 254 L 595 255 L 592 258 L 592 259 L 586 266 L 586 267 L 584 269 L 584 270 L 582 272 L 582 273 L 579 276 L 578 279 L 575 282 L 575 283 L 572 286 L 572 287 L 570 289 L 570 290 L 568 292 L 568 293 L 565 296 L 565 297 L 563 299 L 562 302 L 560 304 L 559 307 L 557 309 L 557 311 L 556 312 L 568 300 L 568 299 L 570 297 L 570 296 L 576 290 L 576 289 L 581 284 L 581 283 L 585 279 L 585 278 L 590 273 L 590 272 L 594 268 L 594 267 L 597 264 L 598 261 L 601 258 L 602 258 L 602 257 L 605 254 L 605 253 L 607 251 L 607 250 L 613 244 L 613 243 L 615 241 L 615 240 L 616 239 L 617 239 L 617 238 L 621 234 L 621 233 L 623 231 L 623 230 L 624 229 L 625 229 L 625 228 L 627 226 L 627 225 L 630 222 L 630 221 L 634 217 L 634 216 L 637 213 L 637 212 L 639 210 L 639 209 L 644 204 L 644 203 L 645 202 Z M 785 197 L 782 196 L 780 198 L 780 199 L 776 204 L 775 207 L 771 212 L 771 213 L 770 214 L 770 215 L 769 216 L 768 219 L 766 221 L 766 222 L 764 225 L 764 227 L 763 228 L 763 229 L 761 231 L 761 232 L 760 233 L 760 235 L 758 237 L 757 240 L 755 242 L 755 243 L 747 251 L 747 252 L 745 254 L 745 255 L 741 260 L 740 263 L 737 266 L 736 269 L 734 271 L 734 272 L 732 274 L 732 275 L 730 277 L 730 278 L 727 281 L 727 282 L 726 283 L 725 286 L 723 288 L 723 289 L 721 291 L 721 292 L 719 294 L 719 295 L 716 298 L 716 299 L 715 300 L 714 303 L 711 306 L 710 309 L 708 311 L 708 312 L 706 314 L 706 315 L 702 320 L 702 321 L 701 322 L 700 325 L 697 328 L 697 329 L 695 331 L 695 332 L 694 333 L 694 334 L 693 335 L 693 336 L 692 337 L 691 340 L 689 342 L 689 343 L 688 344 L 688 345 L 686 347 L 686 348 L 686 347 L 688 345 L 688 344 L 700 331 L 700 330 L 703 327 L 703 326 L 707 322 L 707 321 L 709 319 L 709 318 L 714 313 L 714 312 L 717 309 L 717 308 L 719 306 L 719 305 L 727 296 L 727 295 L 729 293 L 729 292 L 732 289 L 732 288 L 735 285 L 735 284 L 739 280 L 739 279 L 741 277 L 742 277 L 745 279 L 748 278 L 751 275 L 751 274 L 754 271 L 754 270 L 756 268 L 757 265 L 759 263 L 759 262 L 761 260 L 761 259 L 765 254 L 765 253 L 766 252 L 767 249 L 769 247 L 769 246 L 771 244 L 772 241 L 774 239 L 775 236 L 777 234 L 777 233 L 778 232 L 779 229 L 781 227 L 782 224 L 784 222 L 784 220 L 786 218 L 786 217 L 789 212 L 789 210 L 790 209 L 790 206 L 789 205 L 789 203 L 788 202 L 787 199 Z M 403 194 L 404 195 L 404 196 L 401 199 L 400 198 L 400 197 Z M 403 194 L 404 193 L 405 194 L 404 195 Z M 406 190 L 407 191 L 407 192 L 405 194 L 404 193 L 404 192 Z M 406 190 L 407 189 L 408 190 L 407 191 Z M 407 188 L 408 187 L 409 188 L 409 189 L 408 190 L 407 189 Z M 408 187 L 409 186 L 410 187 L 409 188 Z M 409 186 L 410 185 L 411 186 L 410 187 Z M 410 184 L 411 183 L 412 184 L 412 185 L 411 186 L 410 185 Z M 411 183 L 412 182 L 413 183 L 412 184 Z M 412 182 L 413 181 L 414 182 L 413 183 Z M 634 181 L 628 181 L 627 182 L 624 183 L 618 189 L 618 190 L 615 193 L 614 196 L 611 199 L 611 200 L 607 204 L 607 205 L 604 208 L 604 209 L 602 211 L 602 212 L 599 215 L 599 216 L 596 219 L 596 220 L 592 224 L 592 225 L 590 227 L 590 228 L 587 231 L 587 232 L 585 234 L 585 235 L 581 239 L 581 240 L 578 243 L 578 244 L 572 251 L 572 252 L 570 254 L 570 255 L 569 256 L 568 256 L 567 259 L 563 263 L 562 266 L 559 269 L 559 270 L 555 274 L 555 275 L 549 282 L 549 283 L 547 285 L 547 286 L 541 293 L 541 294 L 539 296 L 539 297 L 535 301 L 535 302 L 533 304 L 533 305 L 529 309 L 529 310 L 527 313 L 527 315 L 530 315 L 531 314 L 532 314 L 535 311 L 535 310 L 539 306 L 540 303 L 550 292 L 551 289 L 555 285 L 555 284 L 560 279 L 560 278 L 563 275 L 563 274 L 566 271 L 566 270 L 567 269 L 568 269 L 568 268 L 570 266 L 570 265 L 573 262 L 573 261 L 578 256 L 578 255 L 581 252 L 582 253 L 581 256 L 582 257 L 582 258 L 583 258 L 589 252 L 589 251 L 594 246 L 594 245 L 597 242 L 597 241 L 599 239 L 599 238 L 602 235 L 602 234 L 603 233 L 604 233 L 604 232 L 612 223 L 612 222 L 615 219 L 615 218 L 619 214 L 619 213 L 621 211 L 621 210 L 625 206 L 625 205 L 628 202 L 628 201 L 632 197 L 632 196 L 634 194 L 634 193 L 636 190 L 636 184 Z M 413 180 L 415 178 L 416 179 L 416 180 L 415 181 L 414 181 Z M 415 178 L 416 177 L 417 178 L 416 179 Z M 417 175 L 418 174 L 419 175 L 418 176 Z M 760 170 L 753 170 L 752 171 L 747 171 L 746 172 L 742 172 L 741 173 L 737 173 L 735 175 L 733 175 L 730 178 L 730 179 L 728 181 L 728 182 L 727 183 L 727 185 L 724 190 L 724 192 L 721 197 L 721 199 L 719 201 L 718 204 L 716 206 L 716 207 L 714 209 L 714 210 L 708 216 L 707 216 L 706 217 L 705 217 L 703 219 L 700 220 L 698 222 L 697 222 L 693 226 L 693 227 L 692 228 L 692 230 L 691 231 L 691 233 L 690 234 L 690 236 L 688 239 L 688 241 L 687 242 L 687 244 L 685 247 L 685 249 L 684 250 L 684 251 L 682 253 L 681 256 L 679 258 L 679 259 L 677 261 L 677 262 L 675 264 L 675 265 L 669 271 L 669 272 L 664 277 L 663 277 L 663 278 L 662 279 L 661 279 L 655 285 L 654 285 L 651 288 L 650 288 L 648 290 L 647 290 L 644 293 L 643 293 L 641 295 L 640 295 L 637 298 L 636 298 L 634 300 L 633 300 L 624 308 L 623 308 L 621 310 L 620 310 L 615 315 L 614 315 L 612 317 L 611 317 L 605 323 L 604 323 L 597 330 L 596 333 L 594 335 L 594 336 L 591 339 L 591 340 L 587 345 L 586 348 L 583 351 L 583 352 L 581 354 L 581 355 L 578 358 L 578 359 L 577 360 L 576 360 L 576 361 L 574 363 L 574 364 L 571 367 L 571 368 L 568 371 L 568 372 L 564 376 L 564 377 L 563 378 L 562 378 L 562 379 L 560 381 L 560 382 L 558 384 L 557 384 L 557 385 L 540 402 L 539 402 L 539 403 L 538 404 L 537 404 L 534 407 L 533 407 L 530 410 L 529 410 L 526 413 L 525 413 L 523 415 L 523 416 L 524 417 L 529 417 L 530 416 L 532 416 L 534 414 L 535 414 L 538 411 L 539 411 L 546 404 L 547 404 L 548 403 L 548 402 L 551 399 L 552 399 L 561 390 L 562 390 L 564 387 L 565 387 L 573 379 L 574 379 L 575 380 L 575 381 L 573 383 L 573 384 L 570 387 L 570 388 L 568 390 L 568 391 L 560 400 L 560 401 L 558 403 L 558 404 L 555 407 L 555 408 L 554 409 L 554 411 L 556 413 L 560 413 L 562 411 L 562 410 L 570 402 L 570 401 L 573 398 L 573 397 L 577 393 L 578 393 L 578 392 L 584 386 L 584 385 L 599 370 L 599 369 L 608 360 L 608 359 L 619 348 L 619 347 L 629 337 L 629 336 L 639 326 L 639 325 L 644 321 L 644 320 L 653 311 L 653 310 L 668 295 L 669 296 L 669 298 L 665 302 L 665 303 L 661 307 L 661 308 L 653 317 L 652 320 L 646 326 L 646 327 L 645 328 L 645 329 L 643 331 L 643 332 L 642 333 L 641 333 L 641 334 L 638 337 L 638 338 L 634 342 L 634 343 L 631 346 L 631 347 L 629 349 L 629 350 L 625 354 L 625 355 L 622 358 L 622 359 L 616 366 L 616 367 L 614 369 L 614 370 L 609 375 L 609 376 L 606 379 L 606 380 L 604 382 L 604 383 L 598 390 L 598 392 L 597 393 L 599 395 L 601 395 L 602 394 L 605 393 L 608 390 L 608 389 L 612 385 L 612 384 L 615 381 L 615 380 L 619 376 L 619 375 L 623 371 L 623 370 L 627 366 L 627 365 L 631 361 L 631 360 L 634 357 L 634 356 L 639 351 L 640 348 L 643 346 L 643 345 L 647 341 L 647 340 L 651 336 L 651 335 L 659 326 L 659 325 L 662 322 L 662 321 L 667 316 L 667 315 L 670 312 L 670 311 L 675 306 L 675 305 L 679 301 L 679 300 L 681 298 L 681 297 L 684 295 L 684 294 L 688 290 L 688 289 L 691 286 L 691 285 L 692 284 L 693 284 L 693 283 L 695 281 L 695 280 L 705 269 L 706 270 L 706 271 L 704 273 L 704 274 L 701 277 L 700 280 L 696 284 L 696 285 L 693 288 L 693 289 L 691 291 L 691 292 L 689 294 L 689 295 L 685 299 L 685 300 L 683 302 L 683 303 L 677 310 L 677 311 L 675 313 L 675 314 L 672 317 L 671 320 L 669 322 L 669 323 L 667 325 L 667 326 L 665 329 L 666 329 L 668 327 L 669 327 L 682 314 L 682 313 L 685 310 L 685 309 L 688 306 L 688 305 L 691 302 L 691 301 L 696 296 L 696 295 L 698 293 L 698 292 L 700 290 L 700 289 L 703 286 L 703 285 L 711 276 L 711 275 L 713 273 L 714 270 L 719 265 L 720 262 L 724 258 L 724 257 L 730 250 L 730 249 L 732 247 L 732 246 L 735 243 L 735 242 L 737 240 L 737 239 L 741 235 L 745 235 L 746 236 L 750 236 L 756 230 L 756 229 L 758 227 L 758 224 L 760 222 L 760 220 L 762 218 L 762 217 L 763 216 L 764 213 L 766 211 L 766 209 L 768 207 L 768 206 L 771 203 L 771 201 L 775 196 L 775 195 L 777 192 L 776 189 L 767 180 L 767 179 L 765 177 L 765 176 L 763 174 L 763 173 Z M 466 161 L 462 161 L 461 162 L 458 163 L 448 173 L 448 174 L 442 180 L 442 181 L 437 186 L 437 187 L 435 189 L 435 190 L 430 195 L 430 196 L 426 200 L 426 201 L 422 205 L 422 206 L 419 209 L 419 210 L 417 212 L 417 213 L 415 216 L 415 218 L 416 219 L 417 219 L 418 218 L 421 218 L 422 219 L 420 221 L 420 222 L 418 224 L 418 225 L 416 227 L 416 228 L 408 237 L 408 238 L 406 240 L 406 241 L 403 244 L 403 245 L 400 248 L 400 249 L 396 253 L 396 254 L 394 256 L 394 257 L 391 260 L 391 261 L 388 264 L 388 265 L 385 268 L 385 269 L 381 273 L 380 276 L 375 281 L 375 282 L 372 285 L 372 286 L 369 289 L 369 290 L 365 294 L 364 297 L 361 300 L 361 301 L 357 305 L 357 306 L 354 309 L 354 310 L 351 313 L 351 314 L 348 317 L 348 318 L 344 322 L 344 323 L 342 325 L 342 326 L 339 329 L 339 330 L 333 337 L 333 338 L 332 339 L 332 344 L 333 345 L 334 345 L 340 339 L 340 338 L 345 333 L 345 332 L 347 330 L 347 329 L 350 326 L 350 325 L 355 320 L 355 319 L 358 316 L 358 315 L 360 313 L 360 312 L 365 307 L 365 306 L 367 304 L 367 303 L 375 294 L 376 291 L 386 280 L 386 279 L 388 277 L 388 276 L 391 273 L 391 272 L 396 267 L 397 264 L 402 259 L 402 258 L 408 251 L 408 250 L 410 248 L 410 247 L 415 242 L 415 241 L 419 237 L 419 236 L 425 229 L 425 228 L 427 226 L 427 225 L 430 222 L 430 221 L 432 219 L 432 218 L 435 215 L 435 214 L 437 211 L 437 209 L 438 208 L 438 203 L 439 202 L 439 201 L 440 200 L 440 199 L 441 198 L 441 197 L 442 196 L 443 193 L 449 187 L 449 186 L 452 183 L 453 180 L 458 175 L 459 172 L 462 169 L 462 168 L 464 166 L 464 164 Z M 327 186 L 323 182 L 322 182 L 321 181 L 319 181 L 318 180 L 317 180 L 315 178 L 314 178 L 309 173 L 308 173 L 306 171 L 305 171 L 304 170 L 302 170 L 301 171 L 300 171 L 294 177 L 294 178 L 290 182 L 290 183 L 289 184 L 288 184 L 288 185 L 285 188 L 284 187 L 284 178 L 285 177 L 285 176 L 286 175 L 286 174 L 287 173 L 288 170 L 290 168 L 290 166 L 289 165 L 289 164 L 288 163 L 288 162 L 287 161 L 286 158 L 277 150 L 276 150 L 273 148 L 266 148 L 265 147 L 260 147 L 259 148 L 252 148 L 251 149 L 249 149 L 248 150 L 248 151 L 245 154 L 245 155 L 242 158 L 242 159 L 240 161 L 240 162 L 235 167 L 235 168 L 232 171 L 232 172 L 228 176 L 227 179 L 222 184 L 222 185 L 219 188 L 219 189 L 214 194 L 214 195 L 207 202 L 207 203 L 206 204 L 205 204 L 205 205 L 203 207 L 202 207 L 202 208 L 201 209 L 199 209 L 198 210 L 197 210 L 196 211 L 193 212 L 186 219 L 186 220 L 183 223 L 183 224 L 179 228 L 179 229 L 178 230 L 177 230 L 177 231 L 168 240 L 167 240 L 164 243 L 163 243 L 162 244 L 159 245 L 157 247 L 156 250 L 152 254 L 152 255 L 150 257 L 150 258 L 148 260 L 148 261 L 136 273 L 135 273 L 134 274 L 131 274 L 130 275 L 128 275 L 127 276 L 126 276 L 124 278 L 124 279 L 121 282 L 121 283 L 120 284 L 120 285 L 118 287 L 118 288 L 112 295 L 112 296 L 110 298 L 110 299 L 107 302 L 107 303 L 104 306 L 104 307 L 97 314 L 96 314 L 95 315 L 92 315 L 91 316 L 90 316 L 78 329 L 78 330 L 74 334 L 74 335 L 73 336 L 72 336 L 72 337 L 68 341 L 68 342 L 63 347 L 63 348 L 62 349 L 61 349 L 61 350 L 58 353 L 58 354 L 54 358 L 53 358 L 48 363 L 47 363 L 44 366 L 43 366 L 39 370 L 36 371 L 31 375 L 30 375 L 29 376 L 28 376 L 26 378 L 23 379 L 22 380 L 22 384 L 23 385 L 28 385 L 29 384 L 31 384 L 32 383 L 33 383 L 34 382 L 37 381 L 39 379 L 41 379 L 42 378 L 43 378 L 45 376 L 46 376 L 48 374 L 51 373 L 56 369 L 57 369 L 58 370 L 52 376 L 52 377 L 50 379 L 49 379 L 45 383 L 45 384 L 46 384 L 47 383 L 50 383 L 53 380 L 54 380 L 56 378 L 57 378 L 61 374 L 62 374 L 73 363 L 74 363 L 79 358 L 80 358 L 83 355 L 84 355 L 88 351 L 89 351 L 92 348 L 93 348 L 104 337 L 104 336 L 107 333 L 107 332 L 109 330 L 109 329 L 111 327 L 111 326 L 116 321 L 116 320 L 119 317 L 119 316 L 124 311 L 124 310 L 129 305 L 129 304 L 133 300 L 134 301 L 133 304 L 131 306 L 131 307 L 128 310 L 128 311 L 126 313 L 126 314 L 123 317 L 123 318 L 121 320 L 120 323 L 117 326 L 117 327 L 113 331 L 112 334 L 107 339 L 107 340 L 104 343 L 104 344 L 98 350 L 98 351 L 96 353 L 96 354 L 95 355 L 96 356 L 98 356 L 99 355 L 102 354 L 122 334 L 122 333 L 137 318 L 137 317 L 143 311 L 143 310 L 145 308 L 146 308 L 146 307 L 147 306 L 148 306 L 150 304 L 151 304 L 152 303 L 154 303 L 155 302 L 158 301 L 160 299 L 163 298 L 165 296 L 166 296 L 168 294 L 169 294 L 181 282 L 181 281 L 190 272 L 190 271 L 204 256 L 204 255 L 210 249 L 210 248 L 215 243 L 215 242 L 223 234 L 223 233 L 230 226 L 230 225 L 237 218 L 238 218 L 239 219 L 239 221 L 238 222 L 238 223 L 228 234 L 228 235 L 225 238 L 225 239 L 220 244 L 220 245 L 216 249 L 216 250 L 213 253 L 213 254 L 209 258 L 209 259 L 205 263 L 205 264 L 201 268 L 201 269 L 197 273 L 197 274 L 195 276 L 194 276 L 194 277 L 192 279 L 192 280 L 179 293 L 178 293 L 173 298 L 172 298 L 166 304 L 165 304 L 158 311 L 156 311 L 156 312 L 155 313 L 154 313 L 151 316 L 150 316 L 148 318 L 148 321 L 151 322 L 152 321 L 154 321 L 156 319 L 157 319 L 160 316 L 161 316 L 163 314 L 164 314 L 167 311 L 168 311 L 168 310 L 169 309 L 170 309 L 173 306 L 174 306 L 176 303 L 177 303 L 185 295 L 186 295 L 194 287 L 194 286 L 200 280 L 200 279 L 207 272 L 207 271 L 208 270 L 209 270 L 209 269 L 214 264 L 214 263 L 220 257 L 220 256 L 225 251 L 225 250 L 233 242 L 234 243 L 233 246 L 231 248 L 231 249 L 227 253 L 227 254 L 224 257 L 224 258 L 220 262 L 220 263 L 214 269 L 214 270 L 211 273 L 211 274 L 210 275 L 209 275 L 209 276 L 205 280 L 205 281 L 201 285 L 201 286 L 195 292 L 195 293 L 188 300 L 188 301 L 186 303 L 185 303 L 182 306 L 182 307 L 180 310 L 184 310 L 185 309 L 186 309 L 197 298 L 197 297 L 204 290 L 204 289 L 206 287 L 207 287 L 207 286 L 215 278 L 215 277 L 222 270 L 222 269 L 230 261 L 230 260 L 235 255 L 235 254 L 238 251 L 238 250 L 242 245 L 242 244 L 243 243 L 244 240 L 248 235 L 249 232 L 253 227 L 254 224 L 258 219 L 259 219 L 262 216 L 263 216 L 264 215 L 266 215 L 269 213 L 270 213 L 271 214 L 265 220 L 265 221 L 261 225 L 261 226 L 258 229 L 258 230 L 256 232 L 256 234 L 254 236 L 254 237 L 253 238 L 253 239 L 252 240 L 251 243 L 249 245 L 248 248 L 245 251 L 244 254 L 241 257 L 241 258 L 239 261 L 239 263 L 242 265 L 245 265 L 251 259 L 251 258 L 255 254 L 255 253 L 265 243 L 265 242 L 271 236 L 272 236 L 275 234 L 277 234 L 278 233 L 279 233 L 284 230 L 286 230 L 293 223 L 293 222 L 296 219 L 296 218 L 299 215 L 299 214 L 304 209 L 304 208 L 305 207 L 306 207 L 308 205 L 309 205 L 310 206 L 314 206 L 315 205 L 316 205 L 325 196 L 325 195 L 327 193 L 327 192 L 328 191 L 328 188 L 327 187 Z M 613 144 L 610 144 L 609 145 L 609 146 L 605 150 L 604 153 L 601 156 L 601 157 L 599 159 L 599 160 L 596 163 L 596 164 L 594 166 L 594 167 L 592 169 L 592 170 L 589 173 L 589 174 L 587 176 L 586 179 L 580 186 L 580 187 L 576 192 L 575 195 L 574 196 L 573 196 L 573 197 L 571 199 L 571 200 L 568 203 L 567 206 L 561 213 L 561 214 L 559 216 L 559 217 L 557 219 L 557 220 L 555 222 L 555 223 L 553 225 L 553 226 L 551 228 L 551 229 L 549 231 L 549 232 L 546 235 L 546 236 L 544 238 L 544 239 L 543 240 L 543 244 L 546 244 L 547 243 L 548 243 L 551 240 L 551 239 L 555 235 L 555 234 L 559 230 L 559 229 L 562 226 L 562 225 L 566 221 L 567 222 L 567 223 L 564 226 L 564 227 L 562 229 L 562 230 L 558 234 L 558 235 L 557 236 L 557 237 L 555 239 L 555 240 L 549 247 L 548 250 L 544 254 L 543 257 L 540 260 L 540 261 L 538 263 L 538 264 L 536 267 L 536 270 L 537 270 L 538 271 L 538 273 L 536 275 L 536 276 L 534 278 L 534 279 L 531 282 L 531 283 L 529 285 L 529 286 L 526 289 L 526 290 L 524 292 L 524 293 L 521 296 L 521 297 L 519 299 L 519 300 L 516 303 L 516 304 L 514 306 L 514 307 L 511 310 L 510 313 L 504 320 L 503 323 L 500 326 L 500 327 L 496 332 L 496 333 L 494 336 L 494 338 L 497 337 L 503 331 L 503 330 L 506 327 L 506 326 L 508 324 L 508 323 L 513 318 L 513 317 L 516 314 L 516 313 L 519 310 L 519 309 L 522 306 L 522 305 L 526 301 L 526 300 L 528 298 L 528 297 L 532 293 L 532 292 L 534 290 L 534 289 L 538 285 L 538 284 L 541 281 L 541 280 L 543 278 L 543 277 L 548 272 L 549 269 L 557 260 L 557 259 L 559 257 L 559 256 L 563 252 L 563 251 L 566 248 L 566 247 L 568 245 L 568 244 L 571 241 L 571 240 L 575 236 L 575 235 L 578 232 L 578 231 L 581 228 L 581 227 L 584 224 L 584 223 L 587 220 L 587 219 L 591 215 L 591 214 L 597 207 L 597 206 L 599 204 L 599 203 L 602 200 L 602 199 L 605 196 L 605 195 L 610 190 L 610 189 L 612 187 L 612 186 L 615 183 L 615 182 L 617 180 L 617 179 L 620 176 L 620 175 L 621 174 L 621 169 L 622 168 L 622 167 L 621 166 L 621 158 L 620 157 L 620 156 L 615 151 L 615 147 Z M 562 92 L 557 92 L 556 93 L 552 93 L 549 95 L 547 95 L 544 98 L 544 99 L 543 100 L 543 101 L 542 102 L 542 103 L 541 104 L 541 105 L 540 106 L 539 109 L 537 111 L 537 112 L 533 117 L 532 120 L 529 123 L 529 124 L 527 126 L 527 127 L 524 130 L 524 131 L 523 132 L 523 133 L 521 135 L 521 136 L 518 139 L 518 140 L 516 142 L 516 143 L 514 145 L 514 146 L 511 149 L 511 150 L 509 152 L 509 153 L 507 156 L 507 159 L 505 161 L 502 162 L 498 166 L 498 167 L 497 168 L 497 172 L 496 173 L 496 178 L 495 179 L 495 180 L 494 181 L 490 181 L 489 182 L 488 181 L 486 181 L 485 182 L 482 182 L 481 183 L 480 183 L 475 188 L 475 189 L 472 192 L 472 193 L 469 196 L 469 197 L 466 200 L 466 201 L 461 206 L 461 207 L 455 214 L 455 215 L 453 218 L 453 221 L 451 224 L 451 226 L 450 227 L 450 228 L 448 230 L 448 232 L 442 239 L 442 240 L 440 242 L 440 243 L 436 247 L 436 248 L 433 251 L 433 252 L 431 254 L 431 255 L 428 258 L 428 259 L 424 263 L 424 264 L 422 266 L 422 267 L 418 271 L 418 272 L 416 274 L 416 276 L 418 278 L 421 277 L 429 269 L 429 268 L 433 264 L 433 263 L 441 255 L 441 254 L 445 250 L 446 251 L 446 253 L 440 259 L 440 260 L 436 264 L 436 265 L 432 269 L 432 270 L 428 274 L 428 275 L 426 277 L 425 277 L 425 278 L 423 280 L 423 281 L 416 288 L 416 289 L 413 292 L 413 293 L 407 299 L 407 300 L 403 304 L 403 305 L 402 306 L 401 306 L 401 307 L 399 309 L 399 310 L 392 317 L 392 318 L 390 320 L 390 321 L 386 325 L 386 326 L 385 327 L 384 330 L 386 330 L 387 329 L 390 328 L 395 323 L 395 322 L 400 317 L 400 316 L 401 315 L 402 315 L 402 314 L 404 312 L 404 311 L 410 305 L 410 304 L 414 300 L 414 299 L 419 294 L 419 293 L 422 290 L 422 289 L 425 286 L 425 285 L 430 280 L 430 279 L 435 274 L 435 273 L 439 269 L 439 268 L 444 263 L 444 262 L 447 259 L 447 258 L 451 254 L 451 253 L 455 249 L 455 248 L 461 242 L 461 241 L 464 238 L 464 237 L 465 236 L 466 236 L 466 235 L 470 231 L 471 231 L 472 230 L 474 232 L 472 234 L 472 235 L 470 237 L 470 238 L 467 241 L 467 242 L 466 243 L 466 244 L 464 246 L 464 247 L 458 254 L 458 255 L 456 257 L 456 258 L 453 261 L 453 262 L 451 264 L 451 265 L 448 268 L 448 269 L 447 270 L 447 281 L 449 284 L 450 284 L 457 277 L 457 276 L 459 274 L 459 273 L 463 269 L 463 268 L 468 263 L 468 262 L 472 258 L 472 257 L 475 254 L 475 253 L 478 250 L 478 249 L 482 245 L 482 244 L 485 241 L 485 240 L 487 238 L 487 237 L 491 233 L 491 232 L 493 230 L 493 229 L 494 228 L 495 228 L 496 225 L 500 221 L 500 220 L 504 216 L 507 216 L 508 217 L 508 219 L 506 221 L 506 222 L 503 225 L 503 226 L 501 228 L 500 231 L 497 234 L 497 235 L 495 237 L 495 238 L 492 241 L 492 242 L 490 244 L 489 247 L 486 250 L 486 251 L 484 253 L 484 254 L 482 256 L 482 257 L 479 260 L 479 261 L 477 263 L 477 264 L 474 267 L 473 270 L 470 273 L 469 276 L 463 283 L 462 286 L 460 288 L 460 289 L 456 294 L 456 295 L 455 296 L 455 300 L 456 301 L 456 303 L 458 305 L 461 304 L 462 303 L 462 302 L 464 300 L 464 299 L 469 294 L 469 293 L 471 291 L 471 290 L 474 287 L 474 286 L 477 283 L 477 282 L 479 280 L 479 279 L 483 275 L 483 274 L 485 272 L 485 271 L 490 266 L 491 263 L 495 259 L 495 258 L 498 255 L 498 254 L 501 251 L 501 250 L 505 246 L 505 245 L 508 242 L 508 241 L 514 234 L 515 231 L 519 227 L 519 226 L 527 217 L 527 216 L 530 213 L 530 212 L 536 206 L 537 207 L 537 208 L 534 211 L 534 212 L 532 214 L 532 215 L 531 216 L 531 218 L 528 221 L 528 222 L 524 226 L 523 229 L 521 231 L 521 232 L 518 235 L 518 236 L 517 237 L 516 237 L 516 238 L 515 239 L 515 240 L 514 241 L 513 244 L 516 244 L 517 243 L 517 242 L 519 240 L 519 239 L 523 235 L 524 232 L 527 229 L 527 228 L 528 227 L 529 227 L 530 224 L 531 223 L 532 223 L 532 222 L 534 220 L 534 219 L 538 215 L 538 214 L 540 212 L 540 211 L 545 206 L 545 205 L 547 203 L 548 204 L 548 205 L 545 210 L 545 212 L 544 213 L 544 215 L 543 216 L 542 216 L 542 217 L 540 219 L 539 222 L 536 225 L 535 228 L 531 232 L 531 233 L 529 235 L 528 238 L 526 240 L 526 241 L 524 243 L 524 244 L 521 247 L 520 250 L 516 254 L 515 257 L 513 259 L 513 260 L 511 262 L 511 263 L 509 265 L 509 266 L 507 268 L 507 269 L 505 271 L 505 272 L 503 274 L 503 275 L 501 277 L 501 278 L 499 280 L 499 281 L 497 283 L 497 284 L 493 289 L 492 292 L 488 296 L 488 297 L 487 298 L 486 301 L 484 303 L 484 304 L 480 309 L 480 314 L 481 314 L 485 310 L 485 309 L 490 304 L 490 303 L 493 300 L 493 299 L 495 297 L 495 296 L 498 293 L 498 292 L 500 290 L 500 289 L 503 286 L 503 285 L 506 282 L 506 281 L 508 279 L 508 278 L 514 271 L 514 270 L 516 268 L 516 267 L 518 265 L 518 264 L 521 261 L 521 260 L 523 258 L 523 257 L 526 254 L 526 253 L 529 250 L 529 249 L 531 247 L 531 246 L 534 243 L 534 242 L 536 240 L 536 239 L 538 237 L 538 236 L 542 232 L 543 229 L 546 226 L 546 225 L 549 222 L 549 221 L 552 218 L 552 217 L 558 210 L 558 209 L 560 207 L 560 206 L 563 203 L 563 202 L 566 199 L 566 198 L 570 194 L 570 193 L 573 190 L 573 189 L 575 187 L 576 184 L 581 179 L 581 178 L 583 176 L 583 175 L 585 173 L 585 172 L 587 170 L 587 169 L 591 165 L 591 164 L 594 161 L 594 160 L 598 155 L 598 151 L 594 145 L 594 139 L 593 138 L 593 135 L 592 134 L 592 130 L 591 129 L 591 128 L 588 126 L 581 126 L 580 125 L 578 125 L 577 124 L 576 124 L 573 121 L 573 120 L 571 118 L 571 115 L 570 114 L 570 112 L 569 111 L 569 109 L 568 108 L 568 105 L 566 102 L 566 99 L 565 98 L 565 96 L 564 95 L 564 94 Z M 492 17 L 491 17 L 489 15 L 485 15 L 482 17 L 482 18 L 480 20 L 479 23 L 477 25 L 477 26 L 476 27 L 475 30 L 471 35 L 470 38 L 468 40 L 468 41 L 464 46 L 463 49 L 461 51 L 461 52 L 459 54 L 459 55 L 455 59 L 455 60 L 453 62 L 453 63 L 452 64 L 451 64 L 451 65 L 445 71 L 443 71 L 442 72 L 440 72 L 438 74 L 437 74 L 433 78 L 433 79 L 430 82 L 430 83 L 428 85 L 428 86 L 427 87 L 427 88 L 426 89 L 426 90 L 425 91 L 424 94 L 422 96 L 422 97 L 420 99 L 420 100 L 416 104 L 416 105 L 407 114 L 407 115 L 403 120 L 402 123 L 400 125 L 400 126 L 397 129 L 396 132 L 394 134 L 394 135 L 392 137 L 392 138 L 390 140 L 390 141 L 388 143 L 388 144 L 386 146 L 386 147 L 384 149 L 384 150 L 381 153 L 381 154 L 380 155 L 380 156 L 378 158 L 378 159 L 375 162 L 375 163 L 373 165 L 372 168 L 371 169 L 370 169 L 370 170 L 368 172 L 368 173 L 365 176 L 365 177 L 363 179 L 363 180 L 360 183 L 360 184 L 357 187 L 357 188 L 353 192 L 352 195 L 346 201 L 346 202 L 342 206 L 342 207 L 341 208 L 340 208 L 339 209 L 339 210 L 338 211 L 337 211 L 337 212 L 336 213 L 332 213 L 331 214 L 328 215 L 326 217 L 325 217 L 322 220 L 322 221 L 318 225 L 317 225 L 312 228 L 310 228 L 305 233 L 305 234 L 301 238 L 301 239 L 298 242 L 298 243 L 294 247 L 294 248 L 287 255 L 287 256 L 286 257 L 285 257 L 274 268 L 273 268 L 270 271 L 269 271 L 268 272 L 267 272 L 266 273 L 263 274 L 261 276 L 260 276 L 259 277 L 256 278 L 251 283 L 251 284 L 249 286 L 249 287 L 241 296 L 241 297 L 238 300 L 238 301 L 235 304 L 235 305 L 230 310 L 230 311 L 227 314 L 227 315 L 222 320 L 222 321 L 217 326 L 217 327 L 211 333 L 211 334 L 207 338 L 207 339 L 206 340 L 205 340 L 205 341 L 199 347 L 199 348 L 192 355 L 192 356 L 180 368 L 180 369 L 150 399 L 149 399 L 142 406 L 141 406 L 135 412 L 134 412 L 129 417 L 128 417 L 125 420 L 122 421 L 119 424 L 118 424 L 116 426 L 115 426 L 110 430 L 107 431 L 104 434 L 104 435 L 106 438 L 107 438 L 108 439 L 112 439 L 113 438 L 114 438 L 115 437 L 118 436 L 120 434 L 122 434 L 124 432 L 127 431 L 129 429 L 130 429 L 131 428 L 132 428 L 134 426 L 135 426 L 138 423 L 139 423 L 141 421 L 142 421 L 146 417 L 147 417 L 151 413 L 152 413 L 155 410 L 156 410 L 156 409 L 157 408 L 158 408 L 167 399 L 168 399 L 168 398 L 169 397 L 170 397 L 170 396 L 171 395 L 172 395 L 182 385 L 183 386 L 183 387 L 178 392 L 178 393 L 171 400 L 170 400 L 170 401 L 152 419 L 151 419 L 151 420 L 150 421 L 149 421 L 149 422 L 148 423 L 148 425 L 150 425 L 151 424 L 152 424 L 155 421 L 156 421 L 162 415 L 163 415 L 166 412 L 167 412 L 177 402 L 178 402 L 178 401 L 179 400 L 180 400 L 181 399 L 181 398 L 187 392 L 188 392 L 189 391 L 189 390 L 192 387 L 193 387 L 196 384 L 196 383 L 206 373 L 206 372 L 217 361 L 217 360 L 222 355 L 222 354 L 225 351 L 226 351 L 228 349 L 229 349 L 230 348 L 232 348 L 233 347 L 235 347 L 236 346 L 238 346 L 238 345 L 243 340 L 243 339 L 246 336 L 246 335 L 247 334 L 248 334 L 248 333 L 253 328 L 253 327 L 256 324 L 256 323 L 261 318 L 261 317 L 265 313 L 266 314 L 266 315 L 264 317 L 264 318 L 261 321 L 261 322 L 258 325 L 258 326 L 255 329 L 255 330 L 252 333 L 252 334 L 248 338 L 248 339 L 243 344 L 243 345 L 240 348 L 240 349 L 235 354 L 235 355 L 230 360 L 230 361 L 224 367 L 224 368 L 220 372 L 220 373 L 217 376 L 216 376 L 216 377 L 214 379 L 214 380 L 210 384 L 210 385 L 209 386 L 210 386 L 211 387 L 212 386 L 213 386 L 228 371 L 228 370 L 231 368 L 231 367 L 236 362 L 236 361 L 239 359 L 239 358 L 250 347 L 250 346 L 255 341 L 255 340 L 271 323 L 272 320 L 273 319 L 274 319 L 277 316 L 278 313 L 290 300 L 290 299 L 293 296 L 293 295 L 303 284 L 303 283 L 307 279 L 307 278 L 311 274 L 311 273 L 316 268 L 316 267 L 319 264 L 319 263 L 320 262 L 321 262 L 321 261 L 326 256 L 326 255 L 330 251 L 330 250 L 340 239 L 341 240 L 341 241 L 337 245 L 337 246 L 334 249 L 334 250 L 331 253 L 331 254 L 328 257 L 328 258 L 327 259 L 326 259 L 326 260 L 324 262 L 324 263 L 321 266 L 321 267 L 318 270 L 318 271 L 317 272 L 316 272 L 316 273 L 313 276 L 313 277 L 311 279 L 311 280 L 310 281 L 309 281 L 309 282 L 307 284 L 307 285 L 303 289 L 303 290 L 300 293 L 300 294 L 296 298 L 296 299 L 294 301 L 294 302 L 290 306 L 290 307 L 287 310 L 287 311 L 284 314 L 284 315 L 279 320 L 279 321 L 273 328 L 273 331 L 276 331 L 277 330 L 278 330 L 282 326 L 282 325 L 292 315 L 292 314 L 296 310 L 297 311 L 297 313 L 295 315 L 295 318 L 296 319 L 296 320 L 299 320 L 300 319 L 301 319 L 303 317 L 303 316 L 306 313 L 306 312 L 308 310 L 308 309 L 314 303 L 314 302 L 318 298 L 319 295 L 321 293 L 322 293 L 323 292 L 324 289 L 330 283 L 330 282 L 332 280 L 332 279 L 337 274 L 337 273 L 339 271 L 339 270 L 341 268 L 341 267 L 346 262 L 346 261 L 350 257 L 350 256 L 352 254 L 352 253 L 358 247 L 358 246 L 361 243 L 361 242 L 364 239 L 365 239 L 375 229 L 375 228 L 377 226 L 378 226 L 378 225 L 383 220 L 383 219 L 387 215 L 387 214 L 391 210 L 391 209 L 394 206 L 394 205 L 400 198 L 401 199 L 401 200 L 399 202 L 399 203 L 396 206 L 396 207 L 393 210 L 393 211 L 390 214 L 390 215 L 388 217 L 388 218 L 386 220 L 386 221 L 380 228 L 379 231 L 374 236 L 374 237 L 371 240 L 371 241 L 367 245 L 367 246 L 362 251 L 362 252 L 360 254 L 360 255 L 356 259 L 356 260 L 352 264 L 352 265 L 347 270 L 347 271 L 343 275 L 343 276 L 340 279 L 340 280 L 335 285 L 335 286 L 332 289 L 332 290 L 328 294 L 328 295 L 320 304 L 320 305 L 318 307 L 318 308 L 316 310 L 316 311 L 315 312 L 315 313 L 316 313 L 317 314 L 321 314 L 322 313 L 323 313 L 323 312 L 324 311 L 325 311 L 325 310 L 329 306 L 329 305 L 334 300 L 334 299 L 338 295 L 338 294 L 346 285 L 346 284 L 349 281 L 349 280 L 355 274 L 355 273 L 359 269 L 359 268 L 361 266 L 361 265 L 367 259 L 367 258 L 372 253 L 372 252 L 384 239 L 384 238 L 394 227 L 394 226 L 398 222 L 398 221 L 402 217 L 402 216 L 403 215 L 404 215 L 404 214 L 407 211 L 407 210 L 410 207 L 410 206 L 415 201 L 415 200 L 419 196 L 419 195 L 421 193 L 421 192 L 433 179 L 433 178 L 437 174 L 437 173 L 441 169 L 441 168 L 446 163 L 446 162 L 452 156 L 452 155 L 462 145 L 463 145 L 463 144 L 465 142 L 466 142 L 468 140 L 469 140 L 473 136 L 476 135 L 482 129 L 482 128 L 484 126 L 486 126 L 487 127 L 484 130 L 484 131 L 483 132 L 482 135 L 480 137 L 479 140 L 477 142 L 477 143 L 476 144 L 476 145 L 475 146 L 474 149 L 472 151 L 472 153 L 469 158 L 469 162 L 470 162 L 471 163 L 474 162 L 485 151 L 485 150 L 488 147 L 488 146 L 490 144 L 490 143 L 491 142 L 491 141 L 492 140 L 493 137 L 495 135 L 495 134 L 497 132 L 498 132 L 499 131 L 499 130 L 502 127 L 507 127 L 508 126 L 510 126 L 514 122 L 514 121 L 515 120 L 515 119 L 516 118 L 516 117 L 517 116 L 517 115 L 518 114 L 519 111 L 523 106 L 523 105 L 524 104 L 525 101 L 527 99 L 527 98 L 529 96 L 529 95 L 534 90 L 534 89 L 535 88 L 535 86 L 536 85 L 536 82 L 537 81 L 537 75 L 536 74 L 535 71 L 534 71 L 530 67 L 529 67 L 516 54 L 516 53 L 512 49 L 512 48 L 510 46 L 510 45 L 509 44 L 508 41 L 506 39 L 506 37 L 504 35 L 503 32 L 501 30 L 500 27 Z"/>
  </g>
</svg></g></svg>