<svg xmlns="http://www.w3.org/2000/svg" width="40" height="40" viewBox="0 0 40 40"><circle cx="20" cy="20" r="20" fill="#dce1e4"/><rect x="6" y="6" width="28" height="28" rx="7.9799999999999995" ry="7.9799999999999995" fill="#15394b"/><g transform="translate(11.32, 11.448220937700706)"><svg width="17.36" height="17.10355812459859" viewBox="0 0 1557 1534" xmlns="http://www.w3.org/2000/svg"><path xmlns="http://www.w3.org/2000/svg" fill="#ffffff" fill-rule="evenodd" d="M0 0h1557v1534H0zm285.4 218c.1 365.7 0 731.5 0 1097.2h203.7V905.9h129.1c0-95.3.1-190.5-.1-285.8h-129V218zm377.6 0v1097.2h231V218zm404.8 0v402.1h-129v285.8h129v409.3h203.7c.2-365.7-.1-731.4.1-1097.2-67.9-.1-135.9 0-203.8 0"/></svg></g></svg>