<svg xmlns="http://www.w3.org/2000/svg" width="40" height="40" viewBox="0 0 40 40"><circle cx="20" cy="20" r="20" fill="#e6ece5"/><rect x="6" y="6" width="28" height="28" rx="7.9799999999999995" ry="7.9799999999999995" fill="#598051"/><g transform="translate(15.657251424952502, 11.32)"><svg width="8.685497150094996" height="17.36" viewBox="0 0 790 1579" xmlns="http://www.w3.org/2000/svg"><path xmlns="http://www.w3.org/2000/svg" fill="#ffffff" d="M181.4 165.5C205.6 90.2 265.5 22.4 344.7 4.7 378.9 0 413.5 1.3 447.9.9c113.7.3 227.4-.8 341.2.6-2 78.3 4.6 157.1-3.9 235.1-72.2-.2-144.3-.1-216.5-.3-20.2 1.1-44.2-1.7-59.8 14.1-19.8 20.2-34.3 47.3-34.3 76.3-2 48.2-2.9 96.7.6 145 104.5-.7 209-.6 313.4 0 .6 77.8 1 155.7-.1 233.6-104.4.3-208.7.2-313.1.1-4.4 291.1 1.1 582.3-2.7 873.5-104.4-.9-208.8 0-313.2-.5-2-288.6-.4-577.3-.7-865.8-51.9-11.4-105.1-6.3-157.6-7-.5-78-.4-155.9-.1-233.9 52.4-.9 104.7.1 157.1-1 5.3-101.6-13.1-207.5 23.2-305.2"/></svg></g></svg>