<svg xmlns="http://www.w3.org/2000/svg" width="40" height="40" viewBox="0 0 40 40"><circle cx="20" cy="20" r="20" fill="#dae3e9"/><rect x="6" y="6" width="28" height="28" rx="7.9799999999999995" ry="7.9799999999999995" fill="#09426a"/><g transform="translate(11.32, 11.32)"><svg width="17.36" height="17.36" viewBox="0 0 93 93" xmlns="http://www.w3.org/2000/svg">
<title xmlns="http://www.w3.org/2000/svg">Innodata symbol - exact vector trace</title>
<path xmlns="http://www.w3.org/2000/svg" fill="#ffffff" d="M33 0h1v1h-1zM41 0h2v1h-2zM51 0h1v1h-1zM60 0h1v1h-1zM32 1h2v1h-2zM41 1h2v1h-2zM50 1h3v1h-3zM59 1h3v1h-3zM32 2h3v1h-3zM41 2h2v1h-2zM50 2h3v1h-3zM59 2h3v1h-3zM32 3h3v1h-3zM41 3h2v1h-2zM50 3h3v1h-3zM59 3h3v1h-3zM32 4h3v1h-3zM41 4h2v1h-2zM50 4h3v1h-3zM59 4h3v1h-3zM32 5h3v1h-3zM41 5h2v1h-2zM50 5h3v1h-3zM59 5h3v1h-3zM32 6h3v1h-3zM41 6h2v1h-2zM50 6h3v1h-3zM59 6h3v1h-3zM32 7h3v1h-3zM41 7h2v1h-2zM50 7h3v1h-3zM59 7h3v1h-3zM32 8h3v1h-3zM41 8h2v1h-2zM50 8h3v1h-3zM59 8h3v1h-3zM32 9h3v1h-3zM41 9h2v1h-2zM50 9h3v1h-3zM59 9h3v1h-3zM32 10h3v1h-3zM41 10h2v1h-2zM50 10h3v1h-3zM59 10h3v1h-3zM32 11h3v1h-3zM41 11h2v1h-2zM50 11h3v1h-3zM59 11h3v1h-3zM32 12h3v1h-3zM41 12h2v1h-2zM50 12h3v1h-3zM59 12h3v1h-3zM15 13h63v1h-63zM14 14h65v1h-65zM13 15h67v1h-67zM13 16h67v1h-67zM13 17h67v1h-67zM13 18h67v1h-67zM13 19h67v1h-67zM13 20h67v1h-67zM13 21h19v1h-19zM43 21h8v1h-8zM61 21h19v1h-19zM13 22h18v1h-18zM44 22h6v1h-6zM62 22h18v1h-18zM13 23h17v1h-17zM44 23h5v1h-5zM63 23h17v1h-17zM13 24h17v1h-17zM44 24h5v1h-5zM63 24h17v1h-17zM13 25h18v1h-18zM44 25h6v1h-6zM63 25h17v1h-17zM13 26h19v1h-19zM43 26h7v1h-7zM62 26h18v1h-18zM13 27h67v1h-67zM13 28h67v1h-67zM13 29h67v1h-67zM13 30h13v1h-13zM43 30h7v1h-7zM68 30h12v1h-12zM13 31h12v1h-12zM44 31h6v1h-6zM68 31h13v1h-13zM1 32h23v1h-23zM44 32h5v1h-5zM69 32h24v1h-24zM1 33h23v1h-23zM44 33h5v1h-5zM69 33h24v1h-24zM13 34h12v1h-12zM44 34h6v1h-6zM68 34h13v1h-13zM13 35h13v1h-13zM43 35h8v1h-8zM67 35h13v1h-13zM13 36h67v1h-67zM13 37h67v1h-67zM13 38h67v1h-67zM13 39h7v1h-7zM43 39h7v1h-7zM74 39h6v1h-6zM2 40h17v1h-17zM44 40h6v1h-6zM75 40h17v1h-17zM1 41h17v1h-17zM44 41h5v1h-5zM75 41h18v1h-18zM1 42h17v1h-17zM44 42h5v1h-5zM75 42h18v1h-18zM13 43h6v1h-6zM44 43h6v1h-6zM74 43h7v1h-7zM13 44h7v1h-7zM42 44h9v1h-9zM73 44h7v1h-7zM13 45h67v1h-67zM13 46h67v1h-67zM13 47h67v1h-67zM13 48h7v1h-7zM42 48h9v1h-9zM73 48h7v1h-7zM13 49h6v1h-6zM44 49h6v1h-6zM74 49h7v1h-7zM1 50h17v1h-17zM44 50h5v1h-5zM75 50h18v1h-18zM1 51h17v1h-17zM44 51h5v1h-5zM75 51h18v1h-18zM2 52h17v1h-17zM44 52h6v1h-6zM75 52h17v1h-17zM13 53h7v1h-7zM43 53h7v1h-7zM74 53h6v1h-6zM13 54h67v1h-67zM13 55h67v1h-67zM13 56h67v1h-67zM13 57h13v1h-13zM43 57h8v1h-8zM68 57h12v1h-12zM13 58h12v1h-12zM44 58h6v1h-6zM68 58h13v1h-13zM1 59h23v1h-23zM44 59h5v1h-5zM69 59h24v1h-24zM1 60h23v1h-23zM44 60h5v1h-5zM69 60h24v1h-24zM13 61h12v1h-12zM44 61h6v1h-6zM68 61h13v1h-13zM13 62h13v1h-13zM43 62h8v1h-8zM68 62h12v1h-12zM13 63h67v1h-67zM13 64h67v1h-67zM13 65h67v1h-67zM13 66h19v1h-19zM43 66h7v1h-7zM62 66h18v1h-18zM13 67h18v1h-18zM44 67h6v1h-6zM63 67h17v1h-17zM13 68h17v1h-17zM44 68h5v1h-5zM63 68h17v1h-17zM13 69h17v1h-17zM44 69h5v1h-5zM63 69h17v1h-17zM13 70h18v1h-18zM44 70h6v1h-6zM62 70h18v1h-18zM13 71h19v1h-19zM42 71h9v1h-9zM61 71h19v1h-19zM13 72h67v1h-67zM13 73h67v1h-67zM13 74h67v1h-67zM13 75h67v1h-67zM13 76h67v1h-67zM13 77h67v1h-67zM14 78h66v1h-66zM15 79h64v1h-64zM31 80h4v1h-4zM40 80h4v1h-4zM50 80h3v1h-3zM59 80h3v1h-3zM32 81h3v1h-3zM41 81h2v1h-2zM50 81h3v1h-3zM59 81h3v1h-3zM32 82h3v1h-3zM41 82h2v1h-2zM50 82h3v1h-3zM59 82h3v1h-3zM32 83h3v1h-3zM41 83h2v1h-2zM50 83h3v1h-3zM59 83h3v1h-3zM32 84h3v1h-3zM41 84h2v1h-2zM50 84h3v1h-3zM59 84h3v1h-3zM32 85h3v1h-3zM41 85h2v1h-2zM50 85h3v1h-3zM59 85h3v1h-3zM32 86h3v1h-3zM41 86h2v1h-2zM50 86h3v1h-3zM59 86h3v1h-3zM32 87h3v1h-3zM41 87h2v1h-2zM50 87h3v1h-3zM59 87h3v1h-3zM32 88h3v1h-3zM41 88h2v1h-2zM50 88h3v1h-3zM59 88h3v1h-3zM32 89h3v1h-3zM41 89h2v1h-2zM50 89h3v1h-3zM59 89h3v1h-3zM32 90h3v1h-3zM41 90h2v1h-2zM50 90h3v1h-3zM59 90h3v1h-3zM32 91h2v1h-2zM41 91h2v1h-2zM50 91h3v1h-3zM59 91h3v1h-3zM33 92h1v1h-1zM41 92h2v1h-2zM51 92h1v1h-1zM60 92h1v1h-1z"/>
<path xmlns="http://www.w3.org/2000/svg" fill="#ffffff" fill-opacity="0.796078" d="M32 0h1v1h-1zM50 0h1v1h-1zM59 0h1v1h-1zM31 1h1v1h-1zM34 1h1v1h-1zM40 1h1v1h-1zM43 1h1v1h-1zM31 2h1v1h-1zM40 2h1v1h-1zM43 2h1v1h-1zM31 3h1v1h-1zM40 3h1v1h-1zM43 3h1v1h-1zM31 4h1v1h-1zM40 4h1v1h-1zM43 4h1v1h-1zM31 5h1v1h-1zM40 5h1v1h-1zM43 5h1v1h-1zM31 6h1v1h-1zM40 6h1v1h-1zM43 6h1v1h-1zM31 7h1v1h-1zM40 7h1v1h-1zM43 7h1v1h-1zM31 8h1v1h-1zM40 8h1v1h-1zM43 8h1v1h-1zM31 9h1v1h-1zM40 9h1v1h-1zM43 9h1v1h-1zM31 10h1v1h-1zM40 10h1v1h-1zM43 10h1v1h-1zM31 11h1v1h-1zM40 11h1v1h-1zM43 11h1v1h-1zM31 12h1v1h-1zM40 12h1v1h-1zM43 12h1v1h-1zM49 12h1v1h-1zM58 12h1v1h-1zM78 13h1v1h-1zM79 14h1v1h-1zM80 17h1v1h-1zM80 18h1v1h-1zM80 19h1v1h-1zM80 20h1v1h-1zM42 21h1v1h-1zM80 21h1v1h-1zM43 22h1v1h-1zM80 22h1v1h-1zM30 23h1v1h-1zM80 23h1v1h-1zM30 24h1v1h-1zM80 24h1v1h-1zM43 25h1v1h-1zM62 25h1v1h-1zM80 25h1v1h-1zM42 26h1v1h-1zM50 26h1v1h-1zM61 26h1v1h-1zM80 26h1v1h-1zM80 27h1v1h-1zM80 28h1v1h-1zM80 29h1v1h-1zM42 30h1v1h-1zM50 30h1v1h-1zM67 30h1v1h-1zM80 30h1v1h-1zM1 31h12v1h-12zM43 31h1v1h-1zM81 31h11v1h-11zM0 32h1v1h-1zM24 32h1v1h-1zM0 33h1v1h-1zM24 33h1v1h-1zM2 34h11v1h-11zM43 34h1v1h-1zM81 34h11v1h-11zM42 35h1v1h-1zM80 35h1v1h-1zM80 36h1v1h-1zM80 37h1v1h-1zM80 38h1v1h-1zM42 39h1v1h-1zM50 39h1v1h-1zM73 39h1v1h-1zM80 39h1v1h-1zM1 40h1v1h-1zM43 40h1v1h-1zM74 40h1v1h-1zM0 41h1v1h-1zM18 41h1v1h-1zM0 42h1v1h-1zM18 42h1v1h-1zM2 43h11v1h-11zM43 43h1v1h-1zM81 43h10v1h-10zM20 44h1v1h-1zM80 44h1v1h-1zM80 45h1v1h-1zM80 46h1v1h-1zM80 47h1v1h-1zM80 48h1v1h-1zM2 49h11v1h-11zM43 49h1v1h-1zM81 49h10v1h-10zM0 50h1v1h-1zM18 50h1v1h-1zM0 51h1v1h-1zM18 51h1v1h-1zM1 52h1v1h-1zM43 52h1v1h-1zM74 52h1v1h-1zM42 53h1v1h-1zM50 53h1v1h-1zM73 53h1v1h-1zM80 53h1v1h-1zM80 54h1v1h-1zM80 55h1v1h-1zM80 56h1v1h-1zM42 57h1v1h-1zM67 57h1v1h-1zM80 57h1v1h-1zM1 58h12v1h-12zM43 58h1v1h-1zM81 58h11v1h-11zM0 59h1v1h-1zM24 59h1v1h-1zM0 60h1v1h-1zM24 60h1v1h-1zM1 61h12v1h-12zM43 61h1v1h-1zM81 61h11v1h-11zM42 62h1v1h-1zM67 62h1v1h-1zM80 62h1v1h-1zM80 63h1v1h-1zM80 64h1v1h-1zM80 65h1v1h-1zM42 66h1v1h-1zM50 66h1v1h-1zM61 66h1v1h-1zM80 66h1v1h-1zM43 67h1v1h-1zM62 67h1v1h-1zM80 67h1v1h-1zM30 68h1v1h-1zM80 68h1v1h-1zM30 69h1v1h-1zM80 69h1v1h-1zM43 70h1v1h-1zM80 70h1v1h-1zM80 71h1v1h-1zM80 72h1v1h-1zM80 73h1v1h-1zM80 74h1v1h-1zM80 75h1v1h-1zM80 76h1v1h-1zM13 78h1v1h-1zM14 79h1v1h-1zM17 80h14v1h-14zM35 80h5v1h-5zM44 80h6v1h-6zM53 80h6v1h-6zM62 80h15v1h-15zM31 81h1v1h-1zM40 81h1v1h-1zM43 81h1v1h-1zM31 82h1v1h-1zM40 82h1v1h-1zM43 82h1v1h-1zM31 83h1v1h-1zM40 83h1v1h-1zM43 83h1v1h-1zM31 84h1v1h-1zM40 84h1v1h-1zM43 84h1v1h-1zM31 85h1v1h-1zM40 85h1v1h-1zM43 85h1v1h-1zM31 86h1v1h-1zM40 86h1v1h-1zM43 86h1v1h-1zM31 87h1v1h-1zM40 87h1v1h-1zM43 87h1v1h-1zM31 88h1v1h-1zM40 88h1v1h-1zM43 88h1v1h-1zM31 89h1v1h-1zM40 89h1v1h-1zM43 89h1v1h-1zM31 90h1v1h-1zM40 90h1v1h-1zM43 90h1v1h-1zM34 91h1v1h-1zM40 91h1v1h-1zM43 91h1v1h-1zM32 92h1v1h-1zM50 92h1v1h-1zM59 92h1v1h-1z"/>
<path xmlns="http://www.w3.org/2000/svg" fill="#ffffff" fill-opacity="0.545098" d="M52 0h1v1h-1zM49 1h1v1h-1zM58 1h1v1h-1zM49 2h1v1h-1zM58 2h1v1h-1zM49 3h1v1h-1zM58 3h1v1h-1zM49 4h1v1h-1zM58 4h1v1h-1zM49 5h1v1h-1zM58 5h1v1h-1zM49 6h1v1h-1zM58 6h1v1h-1zM49 7h1v1h-1zM58 7h1v1h-1zM49 8h1v1h-1zM58 8h1v1h-1zM49 9h1v1h-1zM58 9h1v1h-1zM49 10h1v1h-1zM58 10h1v1h-1zM49 11h1v1h-1zM58 11h1v1h-1zM17 12h14v1h-14zM35 12h5v1h-5zM44 12h5v1h-5zM53 12h5v1h-5zM62 12h15v1h-15zM14 13h1v1h-1zM13 14h1v1h-1zM80 16h1v1h-1zM12 17h1v1h-1zM12 18h1v1h-1zM12 19h1v1h-1zM12 20h1v1h-1zM12 21h1v1h-1zM32 21h10v1h-10zM51 21h10v1h-10zM12 22h1v1h-1zM12 23h1v1h-1zM49 23h1v1h-1zM62 23h1v1h-1zM12 24h1v1h-1zM49 24h1v1h-1zM62 24h1v1h-1zM12 25h1v1h-1zM12 26h1v1h-1zM32 26h1v1h-1zM12 27h1v1h-1zM12 28h1v1h-1zM12 29h1v1h-1zM12 30h1v1h-1zM26 30h1v1h-1zM49 32h1v1h-1zM68 32h1v1h-1zM49 33h1v1h-1zM68 33h1v1h-1zM1 34h1v1h-1zM12 35h1v1h-1zM26 35h1v1h-1zM41 35h1v1h-1zM51 35h1v1h-1zM66 35h1v1h-1zM12 36h1v1h-1zM12 37h1v1h-1zM12 38h1v1h-1zM12 39h1v1h-1zM92 40h1v1h-1zM49 41h1v1h-1zM74 41h1v1h-1zM43 42h1v1h-1zM49 42h1v1h-1zM74 42h1v1h-1zM1 43h1v1h-1zM91 43h1v1h-1zM12 44h1v1h-1zM21 44h21v1h-21zM51 44h22v1h-22zM12 45h1v1h-1zM12 46h1v1h-1zM12 47h1v1h-1zM12 48h1v1h-1zM20 48h22v1h-22zM51 48h22v1h-22zM1 49h1v1h-1zM91 49h1v1h-1zM49 50h1v1h-1zM74 50h1v1h-1zM49 51h1v1h-1zM74 51h1v1h-1zM92 52h1v1h-1zM12 53h1v1h-1zM12 54h1v1h-1zM12 55h1v1h-1zM12 56h1v1h-1zM12 57h1v1h-1zM26 57h1v1h-1zM51 57h1v1h-1zM66 57h1v1h-1zM49 59h1v1h-1zM68 59h1v1h-1zM49 60h1v1h-1zM68 60h1v1h-1zM12 62h1v1h-1zM26 62h1v1h-1zM51 62h1v1h-1zM66 62h1v1h-1zM12 63h1v1h-1zM12 64h1v1h-1zM12 65h1v1h-1zM12 66h1v1h-1zM12 67h1v1h-1zM12 68h1v1h-1zM49 68h1v1h-1zM62 68h1v1h-1zM12 69h1v1h-1zM43 69h1v1h-1zM49 69h1v1h-1zM62 69h1v1h-1zM12 70h1v1h-1zM12 71h1v1h-1zM32 71h10v1h-10zM51 71h10v1h-10zM12 72h1v1h-1zM12 73h1v1h-1zM12 74h1v1h-1zM12 75h1v1h-1zM12 76h1v1h-1zM80 77h1v1h-1zM16 80h1v1h-1zM77 80h1v1h-1zM49 81h1v1h-1zM58 81h1v1h-1zM49 82h1v1h-1zM58 82h1v1h-1zM49 83h1v1h-1zM58 83h1v1h-1zM49 84h1v1h-1zM58 84h1v1h-1zM49 85h1v1h-1zM58 85h1v1h-1zM49 86h1v1h-1zM58 86h1v1h-1zM49 87h1v1h-1zM58 87h1v1h-1zM49 88h1v1h-1zM58 88h1v1h-1zM49 89h1v1h-1zM58 89h1v1h-1zM49 90h1v1h-1zM58 90h1v1h-1zM31 91h1v1h-1zM49 91h1v1h-1zM58 91h1v1h-1zM52 92h1v1h-1z"/>
<path xmlns="http://www.w3.org/2000/svg" fill="#ffffff" fill-opacity="0.262745" d="M31 0h1v1h-1zM34 0h1v1h-1zM40 0h1v1h-1zM43 0h1v1h-1zM58 0h1v1h-1zM61 0h1v1h-1zM16 12h1v1h-1zM77 12h1v1h-1zM80 15h1v1h-1zM12 16h1v1h-1zM31 22h1v1h-1zM50 22h1v1h-1zM61 22h1v1h-1zM43 23h1v1h-1zM43 24h1v1h-1zM31 25h1v1h-1zM33 26h9v1h-9zM51 26h10v1h-10zM27 30h15v1h-15zM51 30h16v1h-16zM0 31h1v1h-1zM25 31h1v1h-1zM92 31h1v1h-1zM43 32h1v1h-1zM43 33h1v1h-1zM0 34h1v1h-1zM25 34h1v1h-1zM50 34h1v1h-1zM92 34h1v1h-1zM27 35h14v1h-14zM52 35h14v1h-14zM20 39h22v1h-22zM51 39h22v1h-22zM0 40h1v1h-1zM19 40h1v1h-1zM43 41h1v1h-1zM19 43h1v1h-1zM50 43h1v1h-1zM73 43h1v1h-1zM92 43h1v1h-1zM19 49h1v1h-1zM50 49h1v1h-1zM73 49h1v1h-1zM92 49h1v1h-1zM43 50h1v1h-1zM43 51h1v1h-1zM0 52h1v1h-1zM19 52h1v1h-1zM20 53h22v1h-22zM51 53h22v1h-22zM27 57h15v1h-15zM52 57h14v1h-14zM0 58h1v1h-1zM25 58h1v1h-1zM92 58h1v1h-1zM43 59h1v1h-1zM43 60h1v1h-1zM0 61h1v1h-1zM25 61h1v1h-1zM50 61h1v1h-1zM92 61h1v1h-1zM27 62h15v1h-15zM52 62h14v1h-14zM32 66h10v1h-10zM51 66h10v1h-10zM31 67h1v1h-1zM43 68h1v1h-1zM31 70h1v1h-1zM50 70h1v1h-1zM61 70h1v1h-1zM12 77h1v1h-1zM79 79h1v1h-1zM15 80h1v1h-1zM31 92h1v1h-1zM34 92h1v1h-1zM40 92h1v1h-1zM43 92h1v1h-1zM58 92h1v1h-1zM61 92h1v1h-1z"/>
</svg></g></svg>