<?xml version="1.0" encoding="UTF-8"?>
<!DOCTYPE svg PUBLIC "-//W3C//DTD SVG 1.1//EN" "http://www.w3.org/Graphics/SVG/1.1/DTD/svg11.dtd">
<svg xmlns="http://www.w3.org/2000/svg" version="1.1" width="64px" height="64px" style="shape-rendering:geometricPrecision; text-rendering:geometricPrecision; image-rendering:optimizeQuality; fill-rule:evenodd; clip-rule:evenodd" xmlns:xlink="http://www.w3.org/1999/xlink">
<g><path style="opacity:0.016" fill="#fb007c" d="M 6.5,-0.5 C 6.83333,-0.5 7.16667,-0.5 7.5,-0.5C 7.16667,11.5 6.83333,11.5 6.5,-0.5 Z"/></g>
<g><path style="opacity:1" fill="#fa0882" d="M 8.5,-0.5 C 14.1667,-0.5 19.8333,-0.5 25.5,-0.5C 27.2479,9.91358 24.5813,18.9136 17.5,26.5C 19.0761,28.9793 20.0761,31.646 20.5,34.5C 19.5,34.8333 18.8333,35.5 18.5,36.5C 17.8333,36.5 17.5,36.8333 17.5,37.5C 16.8333,37.5 16.5,37.8333 16.5,38.5C 15.1667,38.8333 15.1667,39.1667 16.5,39.5C 16.1583,40.3382 15.4916,40.6716 14.5,40.5C 14.1667,39.1667 13.8333,39.1667 13.5,40.5C 12.8333,40.5 12.5,40.8333 12.5,41.5C 11.5084,41.3284 10.8417,41.6618 10.5,42.5C 6.47909,42.7563 5.14575,41.0896 6.5,37.5C 6.05758,36.2613 5.39092,35.2613 4.5,34.5C 4.16667,33.1667 3.83333,33.1667 3.5,34.5C 2.16667,32.8333 0.833333,31.1667 -0.5,29.5C -0.5,28.5 -0.5,27.5 -0.5,26.5C 0.833333,26.1667 0.833333,25.8333 -0.5,25.5C -0.5,24.5 -0.5,23.5 -0.5,22.5C 1.14349,19.8823 2.97683,16.8823 5,13.5C 5.66667,14.8333 6.33333,14.8333 7,13.5C 8.22522,8.91471 8.72522,4.24805 8.5,-0.5 Z"/></g>
<g><path style="opacity:1" fill="#e1e54d" d="M 25.5,-0.5 C 32.5,-0.5 39.5,-0.5 46.5,-0.5C 47.4097,12.8594 44.4097,25.1927 37.5,36.5C 36.8333,36.5 36.5,36.8333 36.5,37.5C 35.8333,37.5 35.5,37.8333 35.5,38.5C 34.8333,38.5 34.5,38.8333 34.5,39.5C 33.8333,39.5 33.5,39.8333 33.5,40.5C 32.8333,40.5 32.5,40.8333 32.5,41.5C 31.8333,41.5 31.5,41.8333 31.5,42.5C 30.5084,42.3284 29.8417,42.6618 29.5,43.5C 28.8333,43.5 28.5,43.8333 28.5,44.5C 25.1124,45.0306 23.1124,43.6973 22.5,40.5C 23.8333,39.8333 23.8333,39.1667 22.5,38.5C 22.1667,37.1667 21.8333,37.1667 21.5,38.5C 21.1254,37.2069 20.7921,35.8736 20.5,34.5C 20.0761,31.646 19.0761,28.9793 17.5,26.5C 24.5813,18.9136 27.2479,9.91358 25.5,-0.5 Z"/></g>
<g><path style="opacity:0.016" fill="#0bfd90" d="M 53.5,-0.5 C 53.8333,-0.5 54.1667,-0.5 54.5,-0.5C 54.1667,16.8333 53.8333,16.8333 53.5,-0.5 Z"/></g>
<g><path style="opacity:0.988" fill="#1afa98" d="M 46.5,-0.5 C 48.5,-0.5 50.5,-0.5 52.5,-0.5C 51.8752,8.10819 53.0419,16.4415 56,24.5C 56.3333,23.8333 56.6667,23.1667 57,22.5C 58.6747,24.5912 59.1747,26.7579 58.5,29C 59.7051,30.3756 61.0384,31.5423 62.5,32.5C 62.5,33.1667 62.8333,33.5 63.5,33.5C 63.5,34.5 63.5,35.5 63.5,36.5C 62.1667,36.8333 62.1667,37.1667 63.5,37.5C 63.5,38.5 63.5,39.5 63.5,40.5C 62.8333,40.8333 62.1667,41.1667 61.5,41.5C 61.1667,40.1667 60.8333,40.1667 60.5,41.5C 59.6618,41.8417 59.3284,42.5084 59.5,43.5C 58.1667,44.1667 58.1667,44.8333 59.5,45.5C 58.9824,49.9282 56.6491,52.5949 52.5,53.5C 50.5824,50.9901 48.2491,49.8234 45.5,50C 44.1667,49.3333 44.1667,48.6667 45.5,48C 44.5305,46.2417 43.3639,45.7417 42,46.5C 40.0879,44.3428 38.4213,42.0094 37,39.5C 36.3292,40.2524 35.4959,40.5858 34.5,40.5C 34.5,40.1667 34.5,39.8333 34.5,39.5C 35.1667,39.5 35.5,39.1667 35.5,38.5C 36.1667,38.5 36.5,38.1667 36.5,37.5C 37.1667,37.5 37.5,37.1667 37.5,36.5C 44.4097,25.1927 47.4097,12.8594 46.5,-0.5 Z"/></g>
<g><path style="opacity:0.008" fill="#00ff86" d="M 63.5,31.5 C 63.5,31.8333 63.5,32.1667 63.5,32.5C 62.8299,32.0187 62.8299,31.6853 63.5,31.5 Z"/></g>
<g><path style="opacity:0.012" fill="#fc0089" d="M 3.5,34.5 C 3.83333,34.5 4.16667,34.5 4.5,34.5C 4.16667,37.1667 3.83333,37.1667 3.5,34.5 Z"/></g>
<g><path style="opacity:0.016" fill="#fb007c" d="M 18.5,36.5 C 19.8333,37.1667 19.8333,37.1667 18.5,36.5 Z"/></g>
<g><path style="opacity:0.016" fill="#fb007c" d="M 17.5,37.5 C 17.8333,37.5 18.1667,37.5 18.5,37.5C 18.3147,38.1701 17.9813,38.1701 17.5,37.5 Z"/></g>
<g><path style="opacity:0.012" fill="#fe0090" d="M 16.5,38.5 C 16.8333,38.5 17.1667,38.5 17.5,38.5C 17.3147,39.1701 16.9813,39.1701 16.5,38.5 Z"/></g>
<g><path style="opacity:0.012" fill="#e5e552" d="M 21.5,38.5 C 21.8333,38.5 22.1667,38.5 22.5,38.5C 22.5,39.1667 22.5,39.8333 22.5,40.5C 21.6618,40.1583 21.3284,39.4916 21.5,38.5 Z"/></g>
<g><path style="opacity:0.016" fill="#fb007c" d="M 13.5,40.5 C 13.8333,40.5 14.1667,40.5 14.5,40.5C 14.3147,41.1701 13.9813,41.1701 13.5,40.5 Z"/></g>
<g><path style="opacity:0.012" fill="#b3b44a" d="M 33.5,40.5 C 33.8333,40.5 34.1667,40.5 34.5,40.5C 34.3147,41.1701 33.9813,41.1701 33.5,40.5 Z"/></g>
<g><path style="opacity:0.008" fill="#f50079" d="M 12.5,41.5 C 12.8333,41.5 13.1667,41.5 13.5,41.5C 13.3147,42.1701 12.9813,42.1701 12.5,41.5 Z"/></g>
<g><path style="opacity:0.012" fill="#b3b44a" d="M 32.5,41.5 C 32.8333,41.5 33.1667,41.5 33.5,41.5C 33.3147,42.1701 32.9813,42.1701 32.5,41.5 Z"/></g>
<g><path style="opacity:0.012" fill="#fe0090" d="M 10.5,42.5 C 11.8333,43.1667 11.8333,43.1667 10.5,42.5 Z"/></g>
<g><path style="opacity:0.012" fill="#feff54" d="M 31.5,42.5 C 31.8333,42.5 32.1667,42.5 32.5,42.5C 32.3147,43.1701 31.9813,43.1701 31.5,42.5 Z"/></g>
<g><path style="opacity:0.012" fill="#04fe9c" d="M 60.5,41.5 C 60.8333,41.5 61.1667,41.5 61.5,41.5C 61.6716,42.4916 61.3382,43.1583 60.5,43.5C 60.5,42.8333 60.5,42.1667 60.5,41.5 Z"/></g>
<g><path style="opacity:0.008" fill="#fcfaa4" d="M 10.5,43.5 C 10.1034,44.525 9.43677,44.6917 8.5,44C 9.09442,43.5357 9.76109,43.369 10.5,43.5 Z"/></g>
<g><path style="opacity:0.004" fill="#e5e540" d="M 29.5,44.5 C 29.5,44.1667 29.5,43.8333 29.5,43.5C 30.1667,43.5 30.8333,43.5 31.5,43.5C 31.1583,44.3382 30.4916,44.6716 29.5,44.5 Z"/></g>
<g><path style="opacity:0.012" fill="#00ffa6" d="M 59.5,43.5 C 59.8333,43.5 60.1667,43.5 60.5,43.5C 60.6716,44.4916 60.3382,45.1583 59.5,45.5C 59.5,44.8333 59.5,44.1667 59.5,43.5 Z"/></g>
<g><path style="opacity:0.012" fill="#feff54" d="M 28.5,44.5 C 28.8333,44.5 29.1667,44.5 29.5,44.5C 29.3147,45.1701 28.9813,45.1701 28.5,44.5 Z"/></g>
<g><path style="opacity:0.016" fill="#e0ff3b" d="M 28.5,45.5 C 27.7494,46.5735 26.7494,46.7401 25.5,46C 26.448,45.5172 27.448,45.3505 28.5,45.5 Z"/></g>
<g><path style="opacity:0.012" fill="#00ffa6" d="M 52.5,53.5 C 52.5,53.8333 52.5,54.1667 52.5,54.5C 51.8299,54.0187 51.8299,53.6853 52.5,53.5 Z"/></g>
<g><path style="opacity:0.004" fill="#00ff9c" d="M 52.5,54.5 C 53.2389,54.369 53.9056,54.5357 54.5,55C 53.5632,55.6917 52.8966,55.525 52.5,54.5 Z"/></g>
</svg>
