<?xml version="1.0" encoding="UTF-8"?>
<!DOCTYPE svg PUBLIC "-//W3C//DTD SVG 1.1//EN" "http://www.w3.org/Graphics/SVG/1.1/DTD/svg11.dtd">
<svg xmlns="http://www.w3.org/2000/svg" version="1.1" width="134px" height="120px" style="shape-rendering:geometricPrecision; text-rendering:geometricPrecision; image-rendering:optimizeQuality; fill-rule:evenodd; clip-rule:evenodd" xmlns:xlink="http://www.w3.org/1999/xlink">
<g><path style="opacity:0.978" fill="#0058da" d="M 65.5,-0.5 C 66.1667,-0.5 66.8333,-0.5 67.5,-0.5C 73.3878,10.9391 79.5545,22.2725 86,33.5C 86.8328,47.5119 86.6661,61.5119 85.5,75.5C 71.8442,70.9979 59.1775,72.9979 47.5,81.5C 46.3338,65.5104 46.1671,49.5104 47,33.5C 53.4455,22.2725 59.6122,10.9391 65.5,-0.5 Z"/></g>
<g><path style="opacity:0.963" fill="#0058da" d="M 33.5,119.5 C 22.1667,119.5 10.8333,119.5 -0.5,119.5C -0.5,118.833 -0.5,118.167 -0.5,117.5C 10.4037,98.0767 21.5704,78.7434 33,59.5C 33.5,79.4972 33.6666,99.4972 33.5,119.5 Z"/></g>
<g><path style="opacity:0.966" fill="#0058da" d="M 133.5,117.5 C 133.5,118.167 133.5,118.833 133.5,119.5C 122.167,119.5 110.833,119.5 99.5,119.5C 99.3334,99.4972 99.5,79.4972 100,59.5C 111.43,78.7434 122.596,98.0767 133.5,117.5 Z"/></g>
<g><path style="opacity:0.974" fill="#0058da" d="M 86.5,119.5 C 73.5,119.5 60.5,119.5 47.5,119.5C 44.6852,100.447 52.6852,89.1132 71.5,85.5C 76.4371,85.9008 81.1038,87.2341 85.5,89.5C 86.4985,99.4778 86.8319,109.478 86.5,119.5 Z"/></g>
</svg>
