<svg xmlns="http://www.w3.org/2000/svg" width="40" height="40" viewBox="0 0 40 40"><circle cx="20" cy="20" r="20" fill="#d9d9d9"/><rect x="6" y="6" width="28" height="28" rx="7.9799999999999995" ry="7.9799999999999995" fill="#000000"/><g transform="translate(12.066336866902237, 11.32)"><svg width="15.867326266195525" height="17.36" viewBox="0 0 1552 1698" xmlns="http://www.w3.org/2000/svg">
	
	<path xmlns="http://www.w3.org/2000/svg" class="s0" d="m1166.65 1697.15l-521.62-521.77v521.77h-268.47v-562c0-89.99 47.99-173.15 125.9-218.14 98.71-57 223.38-40.59 303.97 40.02l739.89 740.12z" fill="#ffffff"/>
	<path xmlns="http://www.w3.org/2000/svg" class="s0" d="m1166.67 0l-521.62 521.77v-521.77h-268.47v562c0 89.99 47.99 173.14 125.9 218.14 98.7 57 223.38 40.59 303.97-40.03l739.87-740.11z" fill="#ffffff"/>
	<path xmlns="http://www.w3.org/2000/svg" class="s0" d="m268.45 0.85v1691.89h-268.47v-1691.89z" fill="#ffffff"/>
</svg></g></svg>