<svg xmlns="http://www.w3.org/2000/svg" width="40" height="40" viewBox="0 0 40 40"><circle cx="20" cy="20" r="20" fill="#dae2e9"/><rect x="6" y="6" width="28" height="28" rx="7.9799999999999995" ry="7.9799999999999995" fill="#053c6d"/><g transform="translate(11.32, 15.144845528455285)"><svg width="17.36" height="9.71030894308943" viewBox="0 0 615 344" xmlns="http://www.w3.org/2000/svg">
<path xmlns="http://www.w3.org/2000/svg" fill-rule="evenodd" clip-rule="evenodd" d="M8.9884 0H33.4384L65.1884 56.32H65.4484V0H87.8584V91.39H63.3984L31.6484 34.43H31.3884V91.39H8.9884V0ZM136.248 23.04C156.858 23.04 171.328 38.27 171.328 58.24C171.328 78.21 156.858 93.31 136.248 93.31C115.638 93.31 101.298 78.21 101.298 58.24C101.298 38.27 115.638 23.04 136.248 23.04ZM136.248 76.67C146.488 76.67 149.568 66.81 149.568 58.24C149.568 49.79 146.488 39.68 136.248 39.68C126.138 39.68 123.058 49.79 123.058 58.24C123.058 66.82 126.138 76.67 136.248 76.67ZM184.778 24.96H205.898V36.61H206.158C209.358 28.03 216.778 23.68 226.128 23.68C227.788 23.68 229.588 23.81 231.248 24.19V44.03C228.308 43.13 225.868 42.75 222.928 42.75C212.178 42.75 206.538 50.17 206.538 58.49V91.39H184.778V24.96ZM282.598 91.39V83.71H282.338C277.978 90.11 271.838 93.31 264.028 93.31C243.158 93.31 234.328 75.52 234.328 56.7C234.328 39.42 243.548 23.04 262.368 23.04C270.428 23.04 276.828 26.11 281.318 32.13H281.568V0H303.328V91.39H282.598ZM256.088 57.47C256.088 66.56 259.548 76.67 269.408 76.67C280.028 76.67 282.338 66.56 282.338 58.11C282.338 48.51 278.878 39.68 269.408 39.68C259.548 39.68 256.088 49.02 256.088 57.47ZM341.998 16.64H320.238V0H341.998V16.64ZM320.238 24.96H341.998V91.39H320.238V24.96ZM401.918 49.28C401.918 43.65 396.798 39.68 391.288 39.68C379.128 39.68 377.208 50.05 377.208 59.26C377.208 67.84 380.918 76.67 390.138 76.67C397.818 76.67 401.538 72.45 402.558 65.28H423.688C421.638 83.2 408.068 93.31 390.268 93.31C370.298 93.31 355.448 79.74 355.448 59.26C355.448 38.14 368.888 23.04 390.268 23.04C406.908 23.04 421.378 31.87 423.038 49.28H401.918ZM34.0784 122.56H58.2784L92.4584 213.95H67.6284L61.9884 197.57H30.1084L24.3584 213.95H-0.101562L34.0784 122.56ZM35.6184 179.9H56.3584L46.2384 147.9H45.9884L35.6184 179.9ZM120.888 147.52V156.6H121.138C125.108 149.95 132.028 145.6 140.218 145.6C148.538 145.6 155.968 148.28 159.548 156.35C164.798 149.18 171.198 145.6 180.288 145.6C201.418 145.6 203.718 161.6 203.718 174.27V213.95H181.958V174.91C181.958 167.74 178.498 163.51 172.868 163.51C163.518 163.51 162.628 170.68 162.628 181.44V213.95H140.858V176.19C140.858 168.38 138.678 163.51 132.668 163.51C124.858 163.51 121.528 168.12 121.528 181.56V213.95H99.7584V147.52H120.888ZM238.168 186.04C238.548 195.26 243.798 201.15 253.018 201.15C258.268 201.15 263.388 198.84 265.438 193.85H285.788C281.698 209.21 267.618 215.87 252.758 215.87C231.128 215.87 216.398 202.81 216.398 180.54C216.398 160.19 232.658 145.6 252.248 145.6C276.058 145.6 287.968 163.51 286.948 186.04H238.168ZM265.178 173.89C264.798 166.33 259.548 160.32 252.248 160.32C244.568 160.32 239.578 165.69 238.168 173.89H265.178ZM320.998 147.52V159.16H321.258C324.458 150.59 331.888 146.24 341.228 146.24C342.898 146.24 344.688 146.36 346.348 146.75V166.59C343.408 165.69 340.978 165.31 338.028 165.31C327.278 165.31 321.638 172.73 321.638 181.05V213.95H299.878V147.52H320.998ZM377.468 139.2H355.698V122.56H377.468V139.2ZM355.698 147.52H377.468V213.95H355.698V147.52ZM437.378 171.84C437.378 166.21 432.258 162.24 426.758 162.24C414.598 162.24 412.678 172.61 412.678 181.82C412.678 190.39 416.388 199.23 425.608 199.23C433.288 199.23 436.998 195 438.028 187.84H459.148C457.098 205.76 443.528 215.87 425.738 215.87C405.758 215.87 390.908 202.3 390.908 181.82C390.908 160.7 404.358 145.6 425.738 145.6C442.378 145.6 456.838 154.43 458.508 171.83H437.378V171.84ZM470.418 167.99C470.418 168 470.418 168 470.418 168V167.99ZM480.788 150.2C486.808 146.75 494.228 145.6 501.918 145.6C517.658 145.6 532.898 149.06 532.898 167.87V196.92C532.898 202.55 532.898 208.7 535.458 213.95H513.558C512.668 211.9 512.668 209.85 512.278 207.67C506.648 213.69 498.458 215.87 490.388 215.87C477.588 215.87 467.728 209.47 467.728 195.77C467.728 174.27 491.288 175.8 506.388 172.73C510.108 171.83 512.158 170.68 512.158 166.59C512.158 161.59 506.138 159.67 501.658 159.67C495.378 159.67 491.798 162.49 490.778 167.99H470.418C470.798 159.29 474.768 153.66 480.788 150.2ZM498.578 202.43C508.958 202.43 512.408 196.67 511.898 182.85C508.818 184.77 503.188 185.02 498.448 186.43C493.458 187.58 489.488 189.63 489.488 194.88C489.498 200.38 493.588 202.43 498.578 202.43ZM569.638 147.52V156.6H569.898C573.998 149.82 582.828 145.6 590.768 145.6C612.918 145.6 614.708 161.72 614.708 171.32V213.95H592.948V175.16C592.948 168.76 590.768 163.51 582.058 163.51C573.868 163.51 570.288 170.55 570.288 177.72V213.95H548.518V147.52H569.638ZM54.4384 271.04V341.95H30.6184V271.04H3.34839V250.56H81.7084V271.04H54.4384ZM77.4784 296C77.8684 287.3 81.8384 281.67 87.8584 278.21C93.8684 274.75 101.298 273.6 108.978 273.6C124.728 273.6 139.958 277.06 139.958 295.88V324.93C139.958 330.56 139.958 336.71 142.518 341.96H120.628C119.738 339.91 119.738 337.86 119.348 335.68C113.718 341.7 105.518 343.87 97.4584 343.87C84.6484 343.87 74.7985 337.47 74.7985 323.78C74.7985 302.28 98.3484 303.81 113.458 300.74C117.168 299.84 119.218 298.69 119.218 294.6C119.218 289.6 113.198 287.68 108.718 287.68C102.448 287.68 98.8584 290.5 97.8384 296.01H77.4784V296ZM105.648 330.43C116.018 330.43 119.478 324.68 118.968 310.85C115.888 312.77 110.258 313.03 105.518 314.44C100.528 315.59 96.5585 317.64 96.5585 322.88C96.5585 328.39 100.658 330.43 105.648 330.43ZM176.708 275.52V284.61H176.968C181.058 277.83 189.898 273.6 197.828 273.6C219.978 273.6 221.768 289.73 221.768 299.33V341.95H200.008V303.17C200.008 296.77 197.828 291.52 189.128 291.52C180.938 291.52 177.348 298.56 177.348 305.73V341.96H155.588V275.52H176.708ZM259.288 250.56V297.67L279.128 275.52H304.348L280.028 300.61L307.428 341.96H281.178L264.918 315.2L259.288 320.71V341.96H237.518V250.56H259.288ZM348.138 329.15C353.398 329.15 358.518 326.85 360.568 321.86H380.918C376.818 337.22 362.738 343.87 347.888 343.87C326.258 343.87 311.528 330.82 311.528 308.55C311.528 288.19 327.788 273.6 347.378 273.6C371.188 273.6 383.098 291.52 382.068 314.05H333.288C333.678 323.27 338.928 329.15 348.138 329.15ZM360.308 301.89C359.918 294.34 354.678 288.33 347.378 288.33C339.698 288.33 334.698 293.7 333.288 301.89H360.308ZM416.128 275.52V287.17H416.388C419.588 278.6 427.008 274.24 436.358 274.24C438.018 274.24 439.818 274.37 441.478 274.75V294.59C438.538 293.7 436.098 293.31 433.158 293.31C422.398 293.31 416.768 300.74 416.768 309.05V341.95H395.008V275.52H416.128ZM466.958 320.07C466.958 323.52 468.368 325.83 470.538 327.49C472.588 329.03 475.538 329.8 478.608 329.8C482.708 329.8 488.848 327.88 488.848 322.76C488.848 317.51 481.938 316.74 478.228 315.72C464.528 312.26 447.368 311.88 447.368 293.96C447.368 278.09 464.658 273.6 477.708 273.6C492.188 273.6 507.668 277.83 508.308 295.11H488.208C488.208 292.42 487.318 290.5 485.398 289.35C483.728 288.2 481.428 287.69 478.478 287.69C474.898 287.69 469.138 288.07 469.138 292.68C469.138 298.82 483.728 300.23 493.718 302.28C507.028 304.96 510.618 314.69 510.618 320.2C510.618 337.99 493.718 343.87 478.738 343.87C462.858 343.87 446.858 338.63 446.218 320.07H466.958Z" fill="#ffffff"/>
</svg></g></svg>