<svg xmlns="http://www.w3.org/2000/svg" width="40" height="40" viewBox="0 0 40 40"><circle cx="20" cy="20" r="20" fill="#d9ebe8"/><rect x="6" y="6" width="28" height="28" rx="7.9799999999999995" ry="7.9799999999999995" fill="#017768"/><g transform="translate(11.32, 17.933333333333334)"><svg width="17.36" height="4.133333333333333" viewBox="0 0 126 30" xmlns="http://www.w3.org/2000/svg">
<path xmlns="http://www.w3.org/2000/svg" fill-rule="evenodd" clip-rule="evenodd" d="M30.7605 7.92514C32.7612 7.99813 34.6968 8.6968 36.2898 9.93296C37.8197 11.233 38.5896 13.3428 38.5896 16.2328V28.0228C37.6697 28.3028 36.5596 28.5822 35.2498 28.8421C33.9689 29.0818 32.6702 29.2118 31.3679 29.2308C31.1821 29.2335 30.9962 29.2346 30.8103 29.2328C30.6557 29.2338 30.5009 29.2327 30.3464 29.2298C29.2664 29.2099 28.1896 29.0934 27.1296 28.8822C26.0974 28.6736 25.1177 28.2588 24.2498 27.6624C23.4619 27.1258 22.8252 26.3956 22.4002 25.5423C21.9387 24.5441 21.7158 23.4521 21.7498 22.3529C21.718 21.2444 21.9992 20.1492 22.5603 19.1927C23.0889 18.3701 23.8051 17.6847 24.6502 17.1927C25.5288 16.6629 26.493 16.29 27.4998 16.0921C28.4026 15.8977 29.3213 15.7865 30.2439 15.7591C30.3759 15.7552 30.5083 15.7528 30.6404 15.7523L31.2234 15.7601C31.8211 15.7751 32.4624 15.8124 33.1599 15.8724V15.4027C33.1805 14.8741 33.0703 14.3484 32.8396 13.8724C32.641 13.4915 32.3445 13.1704 31.9802 12.9427C31.5589 12.703 31.0922 12.5528 30.6101 12.5023C30.0214 12.4094 29.4258 12.3661 28.8298 12.3724H24.3103V8.7728C24.8896 8.60795 25.4757 8.46834 26.0671 8.35581L26.6697 8.21225C27.737 8.03192 28.8177 7.93899 29.9002 7.93296C30.1877 7.91762 30.4748 7.91472 30.7605 7.92514ZM30.3503 19.2718C29.5753 19.3434 28.8194 19.5707 28.1296 19.9427C27.7614 20.1759 27.4625 20.5041 27.2654 20.8929C27.0682 21.2819 26.9797 21.7176 27.0095 22.1527C26.9673 22.657 27.0888 23.1618 27.3552 23.5921C27.6217 24.0224 28.0197 24.3554 28.49 24.5423C28.8011 24.6697 29.1255 24.7605 29.4568 24.8128L29.7595 24.8529C30.2127 24.8929 30.6131 24.9124 30.9597 24.9124C31.3515 24.9085 31.7428 24.8754 32.1296 24.8128L33.1296 24.6322V19.4525C32.8397 19.4025 32.5095 19.3128 32.1296 19.3128C31.7978 19.2747 31.4637 19.2541 31.1296 19.2523C30.8689 19.2412 30.6085 19.248 30.3503 19.2718Z" fill="#ffffff"/>
<path xmlns="http://www.w3.org/2000/svg" d="M13.4002 0.00229129C14.5618 0.00606325 15.7216 0.0968542 16.8699 0.272799C17.5849 0.38548 18.2907 0.552633 18.9802 0.772799V5.00229H14.03C13.7589 4.98487 13.4876 4.98283 13.2175 4.99643C12.4078 5.03723 11.6089 5.2167 10.8562 5.52866C9.85238 5.94475 8.95709 6.58624 8.24 7.40268C6.90678 9.04268 6.24 11.4729 6.24 14.6927C6.24672 21.0859 8.96067 24.2826 14.3806 24.2826H19.3806V28.4623C18.6115 28.6992 17.8255 28.8797 17.03 29.0023C15.8663 29.1525 14.6936 29.2226 13.5203 29.2123C13.2694 29.2175 13.0186 29.2168 12.7683 29.2093C11.0172 29.1567 9.28703 28.7922 7.65992 28.1322C6.04485 27.4638 4.60207 26.438 3.44019 25.1322C2.27005 23.7872 1.39133 22.2138 0.860114 20.5121C0.273129 18.6287 -0.0164866 16.6654 0.000738868 14.6927C-0.0170466 12.7135 0.286357 10.7444 0.900153 8.86264C1.45137 7.1511 2.33906 5.56665 3.5105 4.20249C4.59471 2.96443 5.92301 1.96555 7.4109 1.26792L7.7107 1.09214C9.286 0.431871 10.9666 0.065417 12.6697 0.00815066C12.9128 -2.41203e-05 13.1564 -0.00219086 13.4002 0.00229129Z" fill="#ffffff"/>
<path xmlns="http://www.w3.org/2000/svg" fill-rule="evenodd" clip-rule="evenodd" d="M96.1306 8.00229C97.4137 7.98683 98.6854 8.24581 99.8601 8.76206C100.921 9.22904 101.874 9.91018 102.66 10.7621C103.453 11.6582 104.049 12.7118 104.41 13.8529C104.813 15.0891 105.013 16.3828 105.001 17.683C105.001 18.1528 105 18.6628 104.95 19.1527C104.9 19.6426 104.81 20.0229 104.81 20.3128H91.7605C91.7547 20.9712 91.9002 21.6222 92.1863 22.2152C92.4724 22.8082 92.891 23.3276 93.4099 23.7328C94.5766 24.4888 95.9519 24.8591 97.3406 24.7923H102.72V28.3929C100.833 28.9429 98.8753 29.2123 96.9099 29.1927C95.2592 29.2328 93.6152 28.9681 92.0603 28.4124C90.8023 27.9538 89.669 27.2073 88.7507 26.2328C87.884 25.2765 87.2409 24.1388 86.8699 22.9027C86.0435 20.1637 86.0435 17.2413 86.8699 14.5023C87.2579 13.2507 87.8904 12.0883 88.7302 11.0824C89.4673 10.2228 90.3618 9.5139 91.364 8.9935L91.8699 8.85288C93.2104 8.26082 94.6655 7.97005 96.1306 8.00229ZM96.0203 12.2123C95.4711 12.174 94.92 12.2523 94.4031 12.4417C93.9508 12.6076 93.5331 12.8555 93.1716 13.1722L93.0007 13.2728C92.2605 14.1454 91.8307 15.239 91.78 16.3822H99.7205C99.7285 15.2991 99.3768 14.2437 98.7205 13.3822C98.3911 12.9922 97.9759 12.6838 97.5076 12.4808C97.0392 12.2778 96.5301 12.1859 96.0203 12.2123Z" fill="#ffffff"/>
<path xmlns="http://www.w3.org/2000/svg" d="M80.6394 8.44272H85.3992V12.6029H80.6394V20.6029C80.6218 21.2752 80.6891 21.9474 80.8396 22.6029C80.9368 23.0344 81.1313 23.4382 81.4089 23.7826C81.6475 24.0693 81.9697 24.2752 82.3298 24.3724C82.7532 24.4877 83.191 24.5418 83.6296 24.5326C83.8228 24.5425 84.0166 24.5425 84.2097 24.5326V28.9027C83.639 28.9711 83.0639 29.0041 82.489 29.0023C82.3662 29.0108 82.2435 29.017 82.1209 29.0199C81.8755 29.0255 81.6308 29.02 81.3875 29.0033C79.8059 28.8946 78.2829 28.3168 77.0193 27.3324C75.7594 26.219 75.1296 24.4021 75.1296 21.8822V12.683H72.5798L72.3796 11.9027L79.7293 2.51206H80.6394V8.44272Z" fill="#ffffff"/>
<path xmlns="http://www.w3.org/2000/svg" d="M113.03 0.0423303V28.7728H107.48V0.0423303H113.03Z" fill="#ffffff"/>
<path xmlns="http://www.w3.org/2000/svg" d="M119.67 17.8324L125.72 28.7621H125.715L125.72 28.7728H119.7L113.81 18.1126L118.84 8.44272H124.86L119.67 17.8324Z" fill="#ffffff"/>
<path xmlns="http://www.w3.org/2000/svg" d="M65.4334 7.98569C66.0168 8.02509 66.5937 8.14522 67.1472 8.34409C68.0328 8.66235 68.8369 9.17422 69.4998 9.84214C70.5797 11.1621 71.1296 13.1323 71.1296 15.8421V28.7621H65.5095V17.2621C65.5615 16.1505 65.3817 15.0401 64.9802 14.0023C64.7841 13.6118 64.4723 13.2908 64.0877 13.0833C63.7031 12.8759 63.2639 12.7916 62.8298 12.8421C62.3824 12.8434 61.9373 12.911 61.5095 13.0423C61.0613 13.1828 60.6556 13.4344 60.3298 13.7728C59.9346 14.2021 59.6403 14.7148 59.4695 15.2728C59.2172 16.0775 59.1024 16.9191 59.1296 17.7621V28.7621H53.5701V17.2621C53.6188 16.1498 53.4349 15.0394 53.03 14.0023C52.8287 13.621 52.5156 13.3097 52.1336 13.1097C51.8948 12.9848 51.6359 12.9074 51.3709 12.8792C51.2648 12.868 51.1577 12.8647 51.0505 12.8695C50.997 12.8719 50.9429 12.8757 50.8894 12.8822C50.4356 12.8842 49.9842 12.9518 49.5496 13.0824C49.0853 13.2212 48.67 13.4887 48.3503 13.8529C47.9533 14.3123 47.6652 14.8558 47.5095 15.4427C47.2776 16.313 47.1736 17.2124 47.2 18.1126V28.7621H41.6101V8.41245H46.1697C46.2642 8.59358 46.3377 8.7851 46.3894 8.98276C46.4494 9.23273 46.5103 9.49284 46.5603 9.7728C46.6103 10.0527 46.6198 10.3027 46.7097 10.5726C46.7772 10.7751 46.7944 10.9495 46.7986 11.0999C46.8 11.1501 46.7996 11.1976 46.7996 11.2425C46.8577 11.1376 46.9193 11.0344 46.9832 10.933C47.1744 10.629 47.3904 10.341 47.6296 10.0726C47.9829 9.66305 48.3899 9.30278 48.8396 9.00229C49.771 8.39747 50.8418 8.04758 51.9451 7.98276C52.1027 7.9735 52.261 7.97052 52.4197 7.97299L53.0007 7.98667C55.84 8.12836 57.6844 9.33298 58.5095 11.5921C58.9869 10.7182 59.63 9.94729 60.4011 9.32163L60.74 9.09214C61.6641 8.42508 62.7616 8.04835 63.8933 8.00229C64.0549 7.99572 64.2171 7.99525 64.3796 8.00229C64.4967 7.99065 64.6141 7.98298 64.7312 7.97788C64.9656 7.96766 65.2 7.96993 65.4334 7.98569Z" fill="#ffffff"/>
</svg></g></svg>