<?xml version="1.0" encoding="UTF-8"?>
<!DOCTYPE svg PUBLIC "-//W3C//DTD SVG 1.1//EN" "http://www.w3.org/Graphics/SVG/1.1/DTD/svg11.dtd">
<svg xmlns="http://www.w3.org/2000/svg" version="1.1" width="200px" height="200px" style="shape-rendering:geometricPrecision; text-rendering:geometricPrecision; image-rendering:optimizeQuality; fill-rule:evenodd; clip-rule:evenodd" xmlns:xlink="http://www.w3.org/1999/xlink">
<g><path style="opacity:0.92" fill="#40acd4" d="M 89.5,-0.5 C 90.8333,-0.5 92.1667,-0.5 93.5,-0.5C 97.1938,3.86043 101.194,7.86043 105.5,11.5C 95.9943,12.1913 86.6609,12.1913 77.5,11.5C 81.5,7.5 85.5,3.5 89.5,-0.5 Z"/></g>
<g><path style="opacity:0.964" fill="#42b0d5" d="M 77.5,11.5 C 86.6609,12.1913 95.9943,12.1913 105.5,11.5C 110.821,15.489 115.821,19.8223 120.5,24.5C 110.833,24.5 101.167,24.5 91.5,24.5C 91.5,25.8333 91.5,27.1667 91.5,28.5C 80.1667,28.5 68.8333,28.5 57.5,28.5C 63.5736,22.0897 70.2402,16.423 77.5,11.5 Z"/></g>
<g><path style="opacity:0.982" fill="#46b3d6" d="M 120.5,24.5 C 124.817,27.4864 128.817,30.8197 132.5,34.5C 118.833,34.5 105.167,34.5 91.5,34.5C 91.5,38.1667 91.5,41.8333 91.5,45.5C 91.5,46.1667 91.5,46.8333 91.5,47.5C 74.1667,47.5 56.8333,47.5 39.5,47.5C 39.3433,46.1266 39.51,44.7932 40,43.5C 45.7056,38.2901 51.539,33.2901 57.5,28.5C 68.8333,28.5 80.1667,28.5 91.5,28.5C 91.5,27.1667 91.5,25.8333 91.5,24.5C 101.167,24.5 110.833,24.5 120.5,24.5 Z"/></g>
<g><path style="opacity:0.98" fill="#48b7d9" d="M 132.5,34.5 C 137.188,37.188 140.855,40.8547 143.5,45.5C 126.167,45.5 108.833,45.5 91.5,45.5C 91.5,41.8333 91.5,38.1667 91.5,34.5C 105.167,34.5 118.833,34.5 132.5,34.5 Z"/></g>
<g><path style="opacity:0.988" fill="#4ab9db" d="M 91.5,45.5 C 108.833,45.5 126.167,45.5 143.5,45.5C 143.443,46.609 143.11,47.609 142.5,48.5C 125.5,48.5 108.5,48.5 91.5,48.5C 91.5,48.1667 91.5,47.8333 91.5,47.5C 91.5,46.8333 91.5,46.1667 91.5,45.5 Z"/></g>
<g><path style="opacity:0.994" fill="#49b6d6" d="M 39.5,47.5 C 56.8333,47.5 74.1667,47.5 91.5,47.5C 91.5,47.8333 91.5,48.1667 91.5,48.5C 91.5,50.1667 91.5,51.8333 91.5,53.5C 91.5,54.5 91.5,55.5 91.5,56.5C 75.5,56.5 59.5,56.5 43.5,56.5C 41.9278,53.682 40.5945,50.682 39.5,47.5 Z"/></g>
<g><path style="opacity:0.922" fill="#4bbadb" d="M 91.5,48.5 C 108.5,48.5 125.5,48.5 142.5,48.5C 142.372,50.0898 141.705,51.4231 140.5,52.5C 133.422,51.0769 126.422,51.4102 119.5,53.5C 110.167,53.5 100.833,53.5 91.5,53.5C 91.5,51.8333 91.5,50.1667 91.5,48.5 Z"/></g>
<g><path style="opacity:0.943" fill="#4dbddc" d="M 91.5,53.5 C 100.833,53.5 110.167,53.5 119.5,53.5C 110.107,57.8928 103.441,64.8928 99.5,74.5C 96.8333,74.5 94.1667,74.5 91.5,74.5C 91.5,73.1667 91.5,71.8333 91.5,70.5C 91.5,65.8333 91.5,61.1667 91.5,56.5C 91.5,55.5 91.5,54.5 91.5,53.5 Z"/></g>
<g><path style="opacity:0.991" fill="#4db9d6" d="M 43.5,56.5 C 59.5,56.5 75.5,56.5 91.5,56.5C 91.5,61.1667 91.5,65.8333 91.5,70.5C 90.5206,73.6248 90.1872,76.9581 90.5,80.5C 77.5,80.5 64.5,80.5 51.5,80.5C 48.2613,72.7839 45.5946,64.7839 43.5,56.5 Z"/></g>
<g><path style="opacity:0.957" fill="#54c5e0" d="M 125.5,60.5 C 150.872,59.5662 161.039,71.5662 156,96.5C 146.453,111.763 133.62,115.263 117.5,107C 103.924,93.9469 103.257,80.2802 115.5,66C 118.767,63.8703 122.1,62.037 125.5,60.5 Z"/></g>
<g><path style="opacity:0.994" fill="#50bcd6" d="M 91.5,70.5 C 91.5,71.8333 91.5,73.1667 91.5,74.5C 91.5,78.1667 91.5,81.8333 91.5,85.5C 91.5,85.8333 91.5,86.1667 91.5,86.5C 90.5655,87.5676 90.2322,88.901 90.5,90.5C 78.5,90.5 66.5,90.5 54.5,90.5C 53.1009,87.3012 52.1009,83.9679 51.5,80.5C 64.5,80.5 77.5,80.5 90.5,80.5C 90.1872,76.9581 90.5206,73.6248 91.5,70.5 Z"/></g>
<g><path style="opacity:0.922" fill="#52c3df" d="M 91.5,74.5 C 94.1667,74.5 96.8333,74.5 99.5,74.5C 99.0157,78.232 98.349,81.8987 97.5,85.5C 95.5,85.5 93.5,85.5 91.5,85.5C 91.5,81.8333 91.5,78.1667 91.5,74.5 Z"/></g>
<g><path style="opacity:0.925" fill="#55c7e1" d="M 91.5,85.5 C 93.5,85.5 95.5,85.5 97.5,85.5C 98.181,89.9268 99.181,94.2602 100.5,98.5C 97.5,98.5 94.5,98.5 91.5,98.5C 91.5,94.5 91.5,90.5 91.5,86.5C 91.5,86.1667 91.5,85.8333 91.5,85.5 Z"/></g>
<g><path style="opacity:0.986" fill="#53bfd6" d="M 91.5,86.5 C 91.5,90.5 91.5,94.5 91.5,98.5C 91.5,101.167 91.5,103.833 91.5,106.5C 90.5655,107.568 90.2322,108.901 90.5,110.5C 80.8333,110.5 71.1667,110.5 61.5,110.5C 58.7958,104.059 56.4625,97.3918 54.5,90.5C 66.5,90.5 78.5,90.5 90.5,90.5C 90.2322,88.901 90.5655,87.5676 91.5,86.5 Z"/></g>
<g><path style="opacity:0.94" fill="#5acce3" d="M 91.5,98.5 C 94.5,98.5 97.5,98.5 100.5,98.5C 104.113,105.769 109.113,111.769 115.5,116.5C 107.5,116.5 99.5,116.5 91.5,116.5C 91.5,115.5 91.5,114.5 91.5,113.5C 91.5,111.167 91.5,108.833 91.5,106.5C 91.5,103.833 91.5,101.167 91.5,98.5 Z"/></g>
<g><path style="opacity:0.991" fill="#56c2d7" d="M 91.5,106.5 C 91.5,108.833 91.5,111.167 91.5,113.5C 90.5655,114.568 90.2322,115.901 90.5,117.5C 81.5,117.5 72.5,117.5 63.5,117.5C 62.4336,115.299 61.767,112.965 61.5,110.5C 71.1667,110.5 80.8333,110.5 90.5,110.5C 90.2322,108.901 90.5655,107.568 91.5,106.5 Z"/></g>
<g><path style="opacity:0.989" fill="#59c5d8" d="M 91.5,113.5 C 91.5,114.5 91.5,115.5 91.5,116.5C 91.5,118.167 91.5,119.833 91.5,121.5C 91.5,125.167 91.5,128.833 91.5,132.5C 90.5206,135.625 90.1872,138.958 90.5,142.5C 84.077,142.791 77.7436,142.458 71.5,141.5C 68.6373,133.579 65.9706,125.579 63.5,117.5C 72.5,117.5 81.5,117.5 90.5,117.5C 90.2322,115.901 90.5655,114.568 91.5,113.5 Z"/></g>
<g><path style="opacity:0.965" fill="#5ccfe5" d="M 91.5,116.5 C 99.5,116.5 107.5,116.5 115.5,116.5C 119.13,116.771 120.13,118.438 118.5,121.5C 109.5,121.5 100.5,121.5 91.5,121.5C 91.5,119.833 91.5,118.167 91.5,116.5 Z"/></g>
<g><path style="opacity:0.969" fill="#5fd2e6" d="M 91.5,121.5 C 100.5,121.5 109.5,121.5 118.5,121.5C 116.637,126.421 114.971,131.421 113.5,136.5C 106.167,136.5 98.8333,136.5 91.5,136.5C 91.5,135.167 91.5,133.833 91.5,132.5C 91.5,128.833 91.5,125.167 91.5,121.5 Z"/></g>
<g><path style="opacity:0.961" fill="#62d5e8" d="M 91.5,136.5 C 98.8333,136.5 106.167,136.5 113.5,136.5C 112.677,138.987 111.677,141.321 110.5,143.5C 104.167,143.5 97.8333,143.5 91.5,143.5C 91.5,141.167 91.5,138.833 91.5,136.5 Z"/></g>
<g><path style="opacity:0.96" fill="#64d8e9" d="M 91.5,143.5 C 97.8333,143.5 104.167,143.5 110.5,143.5C 109.762,147.715 108.428,151.715 106.5,155.5C 101.5,155.5 96.5,155.5 91.5,155.5C 91.5,154.833 91.5,154.167 91.5,153.5C 91.5,150.167 91.5,146.833 91.5,143.5 Z"/></g>
<g><path style="opacity:0.996" fill="#5dc8d8" d="M 91.5,132.5 C 91.5,133.833 91.5,135.167 91.5,136.5C 91.5,138.833 91.5,141.167 91.5,143.5C 91.5,146.833 91.5,150.167 91.5,153.5C 88.9384,152.278 86.1051,151.611 83,151.5C 80.3097,151.503 77.8097,151.836 75.5,152.5C 73.7957,149.061 72.4624,145.395 71.5,141.5C 77.7436,142.458 84.077,142.791 90.5,142.5C 90.1872,138.958 90.5206,135.625 91.5,132.5 Z"/></g>
<g><path style="opacity:0.952" fill="#60cbd9" d="M 91.5,153.5 C 91.5,154.167 91.5,154.833 91.5,155.5C 91.5,160.833 91.5,166.167 91.5,171.5C 91.5,172.833 91.5,174.167 91.5,175.5C 90.5318,177.607 90.1984,179.941 90.5,182.5C 88.8333,182.5 87.1667,182.5 85.5,182.5C 81.5946,172.784 78.2613,162.784 75.5,152.5C 77.8097,151.836 80.3097,151.503 83,151.5C 86.1051,151.611 88.9384,152.278 91.5,153.5 Z"/></g>
<g><path style="opacity:0.962" fill="#68dceb" d="M 91.5,155.5 C 96.5,155.5 101.5,155.5 106.5,155.5C 104.833,160.833 103.167,166.167 101.5,171.5C 98.1667,171.5 94.8333,171.5 91.5,171.5C 91.5,166.167 91.5,160.833 91.5,155.5 Z"/></g>
<g><path style="opacity:0.938" fill="#6bdfed" d="M 91.5,171.5 C 94.8333,171.5 98.1667,171.5 101.5,171.5C 101.011,172.995 100.345,174.329 99.5,175.5C 96.8333,175.5 94.1667,175.5 91.5,175.5C 91.5,174.167 91.5,172.833 91.5,171.5 Z"/></g>
<g><path style="opacity:0.901" fill="#6de3ee" d="M 91.5,175.5 C 94.1667,175.5 96.8333,175.5 99.5,175.5C 97.1667,183.5 94.8333,191.5 92.5,199.5C 92.1667,199.5 91.8333,199.5 91.5,199.5C 91.5,191.5 91.5,183.5 91.5,175.5 Z"/></g>
<g><path style="opacity:0.858" fill="#64cfd9" d="M 91.5,175.5 C 91.5,183.5 91.5,191.5 91.5,199.5C 91.1667,199.5 90.8333,199.5 90.5,199.5C 88.6306,193.892 86.9639,188.225 85.5,182.5C 87.1667,182.5 88.8333,182.5 90.5,182.5C 90.1984,179.941 90.5318,177.607 91.5,175.5 Z"/></g>
</svg>
