<svg xmlns="http://www.w3.org/2000/svg" width="40" height="40" viewBox="0 0 40 40"><circle cx="20" cy="20" r="20" fill="#d9f0f3"/><rect x="6" y="6" width="28" height="28" rx="7.9799999999999995" ry="7.9799999999999995" fill="#019DB0"/><g transform="translate(11.32, 11.330782608695653)"><svg width="17.36" height="17.338434782608694" viewBox="0 0 1610 1608" xmlns="http://www.w3.org/2000/svg"><g xmlns="http://www.w3.org/2000/svg" fill-rule="evenodd"><path fill="#ffffff" d="M750 1.7C783.7.1 817.3.6 851 1.1c83.6 5.2 166.6 22.5 244.7 53.2 90.6 35 174.8 86.7 247 151.9 12.7 12.1 26.3 23.5 38.3 36.4 31.8 33.6 62 68.9 87.9 107.3 91.9 133.2 142.4 294.9 140.2 456.9 1.1 153.8-46 307-130 435.6-50 75.7-112.3 143.6-184.5 198.7-69 53.2-146.9 94.7-229.2 123.1-167.6 57.3-354.4 57.6-521.8-.6-166.9-56.8-313.1-170.9-410.1-317.8-58-87.5-98.8-186.4-118.4-289.6-30.9-160.3-12.4-330.3 55-479.3 45.8-103.1 114.1-196 198.1-271.2 90.5-81.5 199.9-142.2 317.2-175.2C639.1 15.3 694.4 5.9 750 1.7m-4.8 77.9c-114.4 9.3-226.5 46.3-323.8 107.2-97 60.3-179.6 143.7-238.7 241.4C114.2 541.5 75.6 674 78.9 806.8c-2 94.5 18.8 188.8 54.6 276 35.6 84.2 86.6 162.1 150.8 227.2 124.6 129.2 299 209.4 478.3 218.7 40.8.2 81.8 2.1 122.4-3.1 82.5-8.7 163.3-32.4 238-68.6 160.4-77.9 290.7-216.5 356.8-382.3 48.6-119.1 64-251.4 44.8-378.5-20.9-141.5-85.4-276-181.9-381.3-108-118.9-256.4-200.8-414.8-227.3-60.2-11-121.8-12.2-182.7-8"/><path fill="#ffffff" d="M821.6 443.7c56.4-7.5 115.1-1.4 168 20.2 73.1 29.3 131.2 90.7 161.3 162.9 15.8 36.9 24.8 76.5 27.7 116.5 0 23.5 1.7 47.2-2.7 70.4-11.8 81.4-55.8 158.5-122.3 207.3-43.8 32.7-97.2 51.9-151.5 56.4-36.3 1.8-73.3 1.6-108.6-8.1-41.7-10.3-80.9-31.5-110.9-62.5-9.2-9.6-16.9-20.5-25.1-30.9-.7 104.8 0 209.7-.3 314.5-31.5.7-63.1-12.3-85.1-34.8-22.9-22.2-36.3-54.3-34.9-86.2.1-242.2-.1-484.4.1-726.5 32.5-.2 64.9 13.8 85.6 39 8.7 10.5 14.9 22.7 19.5 35.5 3.6 10.4 4 21.5 5.9 32.3 14.1-18.3 28.9-36.2 47-50.6 35.8-30 80.3-48.6 126.3-55.4M838.1 546c-46.3 4.2-90.5 26-122.2 59.9-40.9 42.2-62.8 101.7-60.7 160.2.9 49.8 19 99.5 51.6 137.4 29.6 35 71.6 59.1 116.7 67.3 33.2 5.1 68 4.1 100-6.9 43.4-14.4 82.1-43.6 106.7-82.3 23.3-35.4 34.4-78 34.8-120.1-.6-71.6-37-142.8-96.9-182.6-37.6-25.9-84.7-37.2-130-32.9"/></g></svg></g></svg>