<svg xmlns="http://www.w3.org/2000/svg" width="40" height="40" viewBox="0 0 40 40"><circle cx="20" cy="20" r="20" fill="#E9D4FC"/><rect x="6" y="6" width="28" height="28" rx="7.9799999999999995" ry="7.9799999999999995" fill="#450E78"/><g transform="translate(11.32, 11.32)"><svg width="17.36" height="17.36" viewBox="0 0 746 746" xmlns="http://www.w3.org/2000/svg">
<g xmlns="http://www.w3.org/2000/svg" opacity="1">
<circle cx="373" cy="373" r="365.229" stroke="#ffffff" stroke-width="15.5417"/>
<path fill-rule="evenodd" clip-rule="evenodd" d="M404.397 345.408C394.202 342.785 383.711 341.485 373.184 341.54H372.015C367.266 341.538 362.52 341.809 357.802 342.35C343.085 344.028 328.792 348.355 315.615 355.123V256.267H247.702V571.096H315.615V465.403C315.656 457.994 317.164 450.666 320.051 443.842C322.938 437.018 327.147 430.834 332.436 425.645C340.567 417.495 350.981 412.006 362.3 409.903C365.598 409.332 368.937 409.031 372.285 409.004H373.094C386.706 409.217 399.779 414.363 409.884 423.486C410.646 424.13 411.367 424.821 412.043 425.555C417.296 430.761 421.469 436.953 424.325 443.776C427.18 450.598 428.662 457.917 428.684 465.313V571.186H496.507V465.403C496.504 434.773 485.161 405.229 464.664 382.468V382.468L460.167 377.701L453.6 371.674C441.102 360.787 426.541 352.528 410.784 347.387C408.355 346.578 406.196 345.948 404.397 345.408Z" fill="#ffffff"/>
<path fill-rule="evenodd" clip-rule="evenodd" d="M416.361 334.433C423.171 326.19 427.503 316.183 428.851 305.576C430.2 294.969 428.51 284.197 423.978 274.512C419.447 264.827 412.26 256.627 403.252 250.865C394.245 245.103 383.787 242.017 373.094 241.963H247.702V174.14H373.094C396.004 174.121 418.473 180.442 438.012 192.403C457.551 204.365 473.399 221.5 483.801 241.913C494.203 262.325 498.752 285.218 496.947 308.057C495.141 330.896 487.05 352.789 473.57 371.313L469.882 367.535C467.543 365.197 465.114 362.948 462.596 360.789C449.101 349.006 433.422 339.99 416.451 334.253L416.361 334.433Z" fill="#ffffff"/>
</g>
</svg></g></svg>