<?xml version="1.0" encoding="UTF-8"?>
<!DOCTYPE svg PUBLIC "-//W3C//DTD SVG 1.1//EN" "http://www.w3.org/Graphics/SVG/1.1/DTD/svg11.dtd">
<svg xmlns="http://www.w3.org/2000/svg" version="1.1" width="117px" height="117px" style="shape-rendering:geometricPrecision; text-rendering:geometricPrecision; image-rendering:optimizeQuality; fill-rule:evenodd; clip-rule:evenodd" xmlns:xlink="http://www.w3.org/1999/xlink">
<g><path style="opacity:1" fill="#4448cf" d="M -0.5,-0.5 C 38.1667,-0.5 76.8333,-0.5 115.5,-0.5C 115.5,38.1667 115.5,76.8333 115.5,115.5C 76.8333,115.5 38.1667,115.5 -0.5,115.5C -0.5,76.8333 -0.5,38.1667 -0.5,-0.5 Z"/></g>
<g><path style="opacity:1" fill="#fcfcfe" d="M 43.5,23.5 C 58.3732,22.2027 71.5399,26.2027 83,35.5C 87.2538,32.7865 91.7538,30.7865 96.5,29.5C 96.6621,31.5273 96.4955,33.5273 96,35.5C 92.8071,37.699 89.9738,40.199 87.5,43C 87.6135,44.2798 88.2801,45.1131 89.5,45.5C 95.2296,40.784 97.3963,42.1174 96,49.5C 94.6218,51.2134 92.9552,52.5467 91,53.5C 92.2848,67.1949 89.1182,79.6949 81.5,91C 79.3646,91.6347 77.3646,91.3014 75.5,90C 72.4746,87.968 69.808,85.6347 67.5,83C 73.1078,72.8834 73.9412,62.3834 70,51.5C 64.8937,42.1468 57.227,38.8135 47,41.5C 46.6667,57.8333 46.3333,74.1667 46,90.5C 40.918,91.637 35.7513,91.8037 30.5,91C 29.8747,88.1997 29.208,85.3664 28.5,82.5C 25.8515,84.6582 22.8515,85.9916 19.5,86.5C 19.2475,83.6802 19.7475,81.0135 21,78.5C 23.4206,77.0394 25.9206,75.7061 28.5,74.5C 29.641,72.5787 29.8077,70.5787 29,68.5C 26.1651,69.9164 23.4985,71.583 21,73.5C 19.1964,70.986 19.0297,68.3193 20.5,65.5C 23.1667,63.8333 25.8333,62.1667 28.5,60.5C 29.3324,49.5151 29.8324,38.5151 30,27.5C 34.3599,25.326 38.8599,23.9926 43.5,23.5 Z"/></g>
<g><path style="opacity:1" fill="#7175db" d="M 115.5,-0.5 C 115.833,-0.5 116.167,-0.5 116.5,-0.5C 116.5,38.5 116.5,77.5 116.5,116.5C 77.5,116.5 38.5,116.5 -0.5,116.5C -0.5,116.167 -0.5,115.833 -0.5,115.5C 38.1667,115.5 76.8333,115.5 115.5,115.5C 115.5,76.8333 115.5,38.1667 115.5,-0.5 Z"/></g>
</svg>
