<?xml version="1.0" standalone="no"?>
<!DOCTYPE svg PUBLIC "-//W3C//DTD SVG 20010904//EN"
 "http://www.w3.org/TR/2001/REC-SVG-20010904/DTD/svg10.dtd">
<svg version="1.0" xmlns="http://www.w3.org/2000/svg"
 width="1563.000000pt" height="1563.000000pt" viewBox="0 0 1563.000000 1563.000000"
 preserveAspectRatio="xMidYMid meet">

<g transform="translate(0.000000,1563.000000) scale(0.100000,-0.100000)"
fill="#000000" stroke="none">
<path d="M7500 14869 c-323 -13 -674 -56 -1055 -130 -834 -161 -1630 -478
-2380 -946 -460 -288 -872 -621 -1275 -1030 -351 -355 -605 -667 -871 -1068
-265 -400 -490 -830 -659 -1260 -28 -71 -56 -141 -61 -155 -21 -48 -117 -336
-158 -470 -324 -1080 -378 -2290 -152 -3411 185 -917 527 -1743 1046 -2524
301 -452 576 -782 975 -1171 538 -523 1183 -974 1835 -1282 121 -57 242 -113
270 -124 27 -11 72 -30 100 -42 128 -59 450 -175 459 -165 8 10 -40 849 -54
929 -25 145 -65 284 -110 385 -32 69 -83 226 -76 232 3 4 43 -10 89 -29 45
-20 100 -41 122 -47 22 -7 49 -16 60 -21 11 -5 36 -11 55 -15 19 -4 53 -11 75
-17 22 -5 58 -13 80 -17 22 -5 94 -21 160 -36 66 -15 140 -30 165 -35 120 -22
179 -33 225 -40 28 -4 77 -13 110 -19 33 -6 92 -16 130 -22 39 -6 95 -14 125
-19 379 -57 864 -110 1011 -110 46 0 46 0 53 -37 3 -21 6 -114 6 -206 0 -151
-2 -168 -17 -174 -105 -36 -133 -152 -81 -323 11 -36 24 -72 29 -80 5 -8 13
-25 19 -37 5 -13 18 -23 30 -23 15 0 20 -7 20 -24 0 -14 -5 -28 -10 -31 -13
-8 -13 -132 -1 -140 15 -8 1 -78 -20 -101 -18 -20 -67 -49 -139 -84 -71 -34
-199 -59 -505 -99 -44 -6 -116 -15 -160 -21 -44 -5 -117 -10 -162 -10 -49 0
-83 -4 -83 -10 0 -5 3 -10 6 -10 3 0 87 -11 187 -24 320 -43 466 -51 927 -51
456 1 665 12 943 54 114 17 167 30 126 31 -23 1 -264 35 -359 51 -225 38 -215
35 -305 82 -106 56 -129 89 -120 172 7 61 9 70 46 187 16 54 21 93 20 188 0
66 -5 129 -11 139 -5 11 -10 33 -10 48 0 31 -54 93 -81 93 -8 0 -19 4 -25 9
-5 5 -47 16 -93 23 -67 10 -85 17 -91 33 -8 23 -20 343 -13 363 8 20 54 15 60
-8 5 -17 14 -20 60 -20 33 0 52 4 48 10 -3 6 -17 10 -31 10 -13 0 -24 5 -24
10 0 6 29 10 66 10 62 0 65 -1 62 -22 -4 -33 29 -37 41 -5 11 27 24 30 211 42
47 3 121 10 165 15 44 5 123 14 175 19 302 33 554 65 680 86 47 7 121 19 165
25 44 6 100 15 125 20 25 5 77 14 115 20 338 56 611 127 743 194 41 21 54 24
58 13 6 -16 -39 -149 -81 -242 -32 -71 -58 -149 -80 -242 -9 -37 -18 -77 -21
-88 -10 -33 -23 -215 -34 -455 -6 -124 -14 -265 -18 -314 -5 -59 -3 -90 3 -93
18 -6 337 130 581 248 1594 771 2889 2185 3507 3829 241 642 383 1258 442
1910 23 247 30 729 16 995 -53 976 -297 1910 -721 2757 -379 756 -895 1458
-1459 1985 -236 221 -241 225 -361 324 -533 439 -1083 781 -1680 1044 -817
360 -1683 561 -2570 595 -269 11 -337 11 -610 -1z m665 -1129 c61 -6 148 -15
195 -20 131 -16 504 -108 605 -150 11 -4 63 -25 115 -46 128 -51 303 -133 392
-185 353 -205 673 -481 919 -791 49 -62 102 -129 119 -149 39 -49 174 -257
223 -344 48 -85 88 -165 193 -390 32 -67 110 -292 135 -385 62 -232 89 -352
89 -392 0 -15 4 -29 9 -32 5 -3 11 -29 15 -58 3 -29 11 -84 16 -123 6 -38 14
-107 18 -151 6 -69 5 -81 -8 -79 -11 1 -17 21 -21 79 -4 43 -12 83 -18 89 -6
6 -11 37 -11 69 0 34 -7 72 -16 89 -8 17 -13 38 -9 46 3 9 -2 24 -10 33 -12
14 -14 26 -7 57 7 29 6 45 -4 57 -9 13 -13 14 -17 4 -2 -7 -3 -4 -1 7 2 10 -4
27 -13 37 -11 12 -14 29 -10 57 3 27 1 44 -8 51 -9 7 -12 23 -8 45 9 54 -31
184 -64 210 -7 6 -16 28 -22 50 -13 58 -46 144 -60 158 -6 6 -11 24 -11 41 0
32 -44 116 -62 116 -6 0 -8 11 -5 29 4 20 1 33 -10 43 -9 7 -22 28 -30 46 -7
17 -19 32 -27 32 -17 0 -29 27 -27 60 2 29 -47 82 -91 99 -26 10 -40 41 -18
41 16 0 11 48 -6 62 -40 31 -81 78 -99 114 -11 21 -29 49 -40 62 -11 13 -22
33 -25 45 -4 14 -15 23 -30 25 -14 2 -29 11 -33 19 -6 10 -17 13 -33 9 -26 -7
-33 11 -13 31 14 14 2 37 -48 90 -21 23 -51 57 -66 77 -16 20 -34 36 -40 36
-18 1 -57 37 -57 53 0 10 -8 13 -24 10 -34 -7 -66 13 -66 42 0 13 -4 27 -10
30 -5 3 -10 1 -10 -4 0 -6 -11 -11 -25 -11 -14 0 -25 5 -25 10 0 6 10 10 21
10 21 0 21 1 -5 25 -15 14 -37 25 -49 25 -41 0 -97 13 -97 21 0 5 14 9 30 9
43 0 37 16 -14 35 -43 17 -62 37 -50 56 3 5 1 9 -5 9 -5 0 -11 -5 -13 -11 -7
-21 -87 1 -124 33 -27 24 -33 35 -28 55 7 25 6 25 -52 22 -49 -3 -59 -1 -62
13 -2 13 3 16 24 15 19 -1 29 3 32 14 3 16 -32 27 -111 33 -34 3 -46 14 -27
26 13 8 12 13 -7 32 -24 24 -44 18 -23 -7 27 -32 1 -25 -34 9 -19 20 -41 33
-49 31 -7 -3 -49 18 -94 48 -74 49 -82 52 -101 39 -27 -18 -52 -9 -52 18 0 19
-14 25 -47 21 -6 -1 -24 12 -40 28 -19 18 -45 31 -74 36 -24 4 -57 14 -73 22
-16 8 -57 17 -90 20 -71 5 -89 10 -82 22 3 5 -12 11 -32 15 -21 3 -47 15 -57
26 -11 12 -25 18 -36 15 -10 -4 -27 -1 -38 4 -14 8 -21 8 -24 -2 -4 -9 -7 -9
-17 0 -11 10 -11 15 0 28 7 8 8 15 3 15 -5 0 -16 -9 -26 -20 -20 -24 -40 -26
-57 -5 -7 8 -27 15 -44 15 -18 0 -37 5 -44 12 -6 6 -34 11 -62 9 -40 -2 -50 1
-50 14 0 13 -14 15 -92 11 -51 -2 -97 -1 -103 3 -5 4 -75 4 -155 1 -80 -4
-152 -3 -162 2 -10 5 -31 2 -54 -8 -20 -9 -46 -13 -57 -10 -30 8 -79 -5 -73
-19 6 -17 -72 -41 -87 -26 -16 16 -42 14 -57 -4 -9 -11 -32 -15 -81 -15 -53 0
-78 -5 -115 -25 -26 -14 -55 -25 -65 -25 -10 0 -20 -4 -23 -9 -3 -5 -18 -11
-33 -14 -29 -5 -75 -21 -130 -44 -17 -7 -37 -13 -45 -13 -36 -1 -93 -29 -96
-49 -2 -11 -19 -30 -38 -42 -30 -18 -40 -20 -60 -10 -33 15 -44 14 -44 -3 0
-17 -22 -26 -65 -26 -41 0 -64 -24 -38 -39 16 -9 15 -10 -9 -11 -16 0 -28 5
-28 11 0 5 -4 7 -10 4 -5 -3 -10 -15 -10 -26 0 -20 -66 -58 -102 -59 -9 0 -39
-22 -68 -49 -35 -33 -57 -47 -70 -44 -12 3 -24 -4 -35 -21 -10 -14 -26 -26
-36 -26 -22 0 -24 -11 -7 -28 7 -7 8 -12 2 -12 -5 0 -15 5 -20 10 -8 8 -15 6
-24 -5 -7 -8 -18 -15 -25 -15 -21 0 -65 -41 -65 -61 0 -10 -3 -18 -7 -17 -14
5 -103 -57 -103 -70 0 -7 -13 -18 -30 -23 -16 -6 -32 -19 -35 -30 -4 -11 -21
-27 -38 -36 -38 -19 -107 -91 -127 -130 -17 -34 -49 -62 -70 -63 -9 0 -27 -21
-40 -47 -27 -51 -39 -65 -52 -57 -4 3 -8 -11 -8 -30 0 -30 -3 -35 -27 -38 -24
-3 -28 -8 -31 -38 -3 -31 -8 -38 -45 -54 -49 -21 -87 -53 -87 -75 0 -8 -17
-35 -38 -60 -48 -57 -52 -65 -58 -99 -3 -15 -13 -34 -24 -44 -11 -9 -20 -27
-20 -40 0 -14 -11 -35 -25 -48 -14 -13 -25 -32 -25 -42 0 -10 -8 -22 -17 -25
-24 -9 -33 -23 -33 -54 0 -15 -7 -32 -15 -39 -8 -7 -15 -25 -15 -40 0 -16 -11
-41 -24 -57 -17 -20 -23 -37 -19 -55 4 -20 0 -29 -16 -37 -12 -7 -21 -20 -21
-31 0 -10 -4 -21 -9 -24 -5 -3 -12 -26 -15 -51 -5 -28 -17 -55 -32 -70 -15
-15 -24 -36 -24 -55 0 -17 -4 -38 -9 -48 -34 -67 -54 -127 -65 -193 -1 -8 -7
-28 -13 -45 -11 -28 -23 -83 -28 -134 -2 -14 -8 -45 -15 -70 -6 -25 -13 -62
-15 -83 -1 -20 -7 -43 -13 -50 -6 -6 -12 -37 -15 -67 -3 -30 -10 -80 -15 -110
-6 -30 -13 -79 -17 -108 -4 -29 -11 -54 -14 -56 -8 -5 5 190 19 284 6 41 13
102 16 135 3 33 10 64 15 70 5 5 9 28 9 52 0 24 5 43 10 43 6 0 10 13 10 30 0
16 7 55 16 87 8 32 22 85 30 118 18 72 80 270 96 305 6 14 14 34 18 45 4 11
17 40 29 63 11 24 21 52 21 62 0 11 5 22 10 25 6 3 10 15 10 26 0 10 5 19 10
19 6 0 10 8 10 18 0 9 15 46 34 82 62 122 113 215 144 268 18 29 32 57 32 62
0 4 3 10 8 12 4 2 30 37 57 78 127 195 306 406 496 585 40 39 76 72 79 75 3 3
44 37 91 77 48 39 93 78 100 86 29 28 198 146 299 207 118 71 463 240 491 240
5 0 28 9 52 19 62 28 145 55 297 94 195 50 196 51 470 86 94 12 397 13 525 1z
m-545 -136 c39 -8 21 -24 -27 -24 -23 0 -33 5 -33 15 0 17 12 18 60 9z m1264
-189 c3 -8 1 -15 -3 -15 -5 0 -11 7 -15 15 -3 8 -1 15 3 15 5 0 11 -7 15 -15z
m151 -115 c3 -5 1 -10 -4 -10 -6 0 -11 5 -11 10 0 6 2 10 4 10 3 0 8 -4 11
-10z m1385 -1004 c0 -11 -19 -15 -25 -6 -3 5 1 10 9 10 9 0 16 -2 16 -4z
m-3762 -295 c3 -8 -1 -12 -9 -9 -7 2 -15 10 -17 17 -3 8 1 12 9 9 7 -2 15 -10
17 -17z m167 0 c7 -12 -12 -24 -25 -16 -11 7 -4 25 10 25 5 0 11 -4 15 -9z
m-95 -17 c0 -10 -7 -14 -22 -12 -32 5 -35 28 -4 28 17 0 26 -5 26 -16z m3983
-47 c-9 -16 -26 12 -18 30 7 17 8 17 15 -2 4 -11 5 -24 3 -28z m-4195 -9 c-2
-6 -10 -14 -16 -16 -7 -2 -10 2 -6 12 7 18 28 22 22 4z m135 -9 c-6 -6 -18 -6
-28 -3 -18 7 -18 8 1 14 23 9 39 1 27 -11z m122 -9 c8 -13 -5 -13 -25 0 -13 8
-13 10 2 10 9 0 20 -4 23 -10z m-75 -29 c0 -6 -5 -13 -11 -16 -6 -4 -8 -13 -5
-21 8 -21 -12 -17 -24 5 -8 16 -6 22 7 30 23 13 33 14 33 2z m-138 -16 c10 4
17 -2 21 -16 4 -13 5 -24 4 -25 -6 -7 -77 23 -77 32 0 18 12 24 25 14 7 -6 19
-8 27 -5z m-272 -9 c0 -3 -4 -8 -10 -11 -5 -3 -10 -1 -10 4 0 6 5 11 10 11 6
0 10 -2 10 -4z m680 -6 c0 -5 -2 -10 -4 -10 -3 0 -8 5 -11 10 -3 6 -1 10 4 10
6 0 11 -4 11 -10z m-210 -20 c-6 -11 -16 -17 -25 -14 -27 11 -13 31 23 33 10
1 10 -4 2 -19z m162 -15 c6 -14 8 -28 5 -31 -8 -9 -47 38 -40 48 9 15 24 8 35
-17z m-452 -5 c0 -5 -4 -10 -10 -10 -5 0 -10 5 -10 10 0 6 5 10 10 10 6 0 10
-4 10 -10z m60 -5 c-19 -22 -6 -29 48 -26 55 3 69 10 51 23 -9 6 -5 6 11 1 14
-4 44 -7 68 -7 36 1 42 -1 42 -18 0 -17 -5 -19 -33 -14 -24 4 -34 3 -34 -6 0
-7 -4 -21 -8 -30 -4 -11 -3 -18 3 -18 21 0 67 25 84 45 15 19 17 19 36 2 10
-9 29 -16 42 -15 13 2 25 -3 28 -11 3 -10 0 -12 -12 -8 -22 9 -69 -10 -60 -24
4 -6 20 -8 39 -5 37 7 54 -7 35 -29 -17 -20 -8 -59 14 -63 17 -4 18 0 13 42
-4 25 -5 46 -3 46 14 0 36 -14 36 -22 0 -18 42 -48 67 -48 23 0 73 -43 73 -62
0 -4 -10 -6 -22 -4 -60 12 -95 16 -101 9 -11 -11 24 -43 48 -43 31 0 47 -23
39 -54 -6 -24 -4 -26 25 -26 17 0 31 -4 31 -10 0 -5 7 -10 15 -10 9 0 29 -10
44 -21 16 -12 34 -18 40 -15 22 14 27 -120 5 -142 -15 -14 -20 -54 -6 -50 10
4 47 -24 58 -43 5 -9 33 -35 62 -58 48 -39 67 -71 41 -71 -27 0 -119 63 -125
85 -3 13 -14 31 -23 40 -17 14 -19 14 -32 -1 -11 -14 -10 -19 14 -36 15 -11
27 -26 27 -34 0 -8 6 -14 14 -14 23 0 76 -71 76 -102 0 -39 -40 -38 -73 2 -21
25 -47 40 -47 27 0 -17 43 -86 51 -81 5 3 17 3 26 0 12 -5 13 -9 3 -22 -7 -8
-19 -13 -27 -10 -7 3 -13 1 -13 -4 0 -6 6 -10 14 -10 8 0 17 -6 20 -12 3 -9 8
-8 16 5 10 16 14 15 40 -13 29 -31 53 -84 43 -94 -11 -11 -23 -6 -23 9 0 8 -7
15 -15 15 -10 0 -15 -10 -15 -29 0 -17 -5 -33 -11 -36 -5 -4 -59 -7 -120 -7
-60 0 -109 -4 -109 -7 0 -4 5 -12 12 -19 13 -13 -4 -16 -102 -14 -62 2 -80 4
-96 14 -12 8 -54 -1 -54 -11 0 -4 14 -6 30 -3 18 3 30 0 30 -7 0 -10 -23 -16
-45 -11 -5 1 -40 2 -77 2 -53 0 -68 3 -68 14 0 8 -7 17 -15 20 -8 4 -15 13
-15 22 0 12 -3 13 -11 5 -8 -8 -9 -20 -1 -42 13 -37 2 -47 -21 -20 -22 25 -43
24 -50 -3 l-6 -22 -25 23 c-18 17 -37 24 -65 24 -29 0 -41 4 -44 18 -8 29 7
84 23 84 15 0 27 24 29 58 1 9 -3 17 -9 17 -5 0 -10 -7 -10 -15 0 -9 -9 -25
-19 -36 -16 -17 -23 -19 -40 -10 -28 16 -29 61 -1 54 14 -4 21 1 26 21 9 37
-4 45 -25 17 -18 -24 -19 -24 -25 -4 -7 23 2 73 13 73 15 -1 50 -39 55 -61 3
-13 2 3 -1 36 -3 33 -5 74 -5 92 1 18 -3 35 -8 38 -6 3 -10 -5 -10 -19 0 -16
-6 -26 -14 -26 -22 0 -30 19 -15 36 9 11 9 21 1 39 -11 24 -7 55 8 55 11 0 60
-62 60 -77 0 -7 9 -13 19 -13 19 0 19 1 0 39 -10 22 -23 43 -29 46 -5 3 -10
22 -10 41 0 32 -2 34 -20 24 -11 -6 -20 -20 -20 -30 0 -11 -4 -20 -10 -20 -5
0 -10 5 -10 10 0 23 -21 7 -27 -20 -4 -24 -8 -28 -19 -19 -22 18 -17 49 10 59
13 5 27 19 31 32 4 13 15 42 26 65 22 50 23 59 7 69 -8 5 -9 2 -5 -9 8 -21 -2
-49 -14 -41 -12 7 -11 51 1 59 6 3 10 17 10 31 0 19 5 24 25 24 14 0 25 5 25
10 0 6 -16 10 -35 10 l-35 0 25 40 c14 22 25 44 25 50 0 5 7 10 15 10 8 0 15
8 15 18 0 10 5 23 12 30 9 9 9 15 0 24 -16 16 -15 43 3 58 14 11 13 14 -1 25
-21 15 -10 35 20 35 28 0 63 35 46 45 -7 4 -16 1 -21 -6 -7 -11 -11 -12 -17
-1 -5 7 -15 12 -22 10 -28 -7 -20 23 12 42 40 24 44 25 28 5z m338 -3 c3 -10
-6 -12 -34 -10 -20 2 -39 9 -42 16 -3 10 6 12 34 10 20 -2 39 -9 42 -16z
m-433 -52 c3 -5 1 -10 -4 -10 -6 0 -11 5 -11 10 0 6 2 10 4 10 3 0 8 -4 11
-10z m509 -6 c9 -8 14 -19 11 -24 -6 -9 48 -30 76 -30 11 0 19 -7 19 -16 0
-10 -6 -14 -17 -10 -10 3 -35 8 -55 12 -28 4 -38 11 -38 25 0 11 -7 19 -15 19
-8 0 -15 9 -15 20 0 24 13 26 34 4z m-498 -25 c3 -6 -3 -21 -15 -32 l-21 -21
0 25 c0 37 20 53 36 28z m-727 -19 c53 -26 94 -69 122 -127 21 -43 23 -61 23
-183 0 -124 -3 -143 -32 -237 -40 -126 -88 -210 -167 -289 -62 -62 -150 -114
-194 -114 -63 0 -101 20 -146 78 -25 31 -51 72 -57 90 -7 17 -18 32 -25 32 -7
0 -13 9 -13 19 0 11 -5 23 -11 27 -6 3 -9 17 -6 30 2 14 0 27 -4 30 -21 12 11
221 41 276 6 10 10 24 10 31 0 33 71 139 140 209 59 60 94 86 151 113 86 40
115 42 168 15z m4405 -42 c66 -19 152 -79 209 -146 105 -121 140 -215 141
-387 1 -91 -3 -123 -23 -185 -48 -148 -136 -233 -223 -216 -101 19 -243 132
-302 239 -159 291 -133 591 59 686 47 24 82 26 139 9z m-3022 -40 c-9 -9 -12
-7 -12 12 0 19 3 21 12 12 9 -9 9 -15 0 -24z m-712 6 c0 -8 -5 -12 -10 -9 -6
4 -8 11 -5 16 9 14 15 11 15 -7z m670 -14 c0 -5 -2 -10 -4 -10 -3 0 -8 5 -11
10 -3 6 -1 10 4 10 6 0 11 -4 11 -10z m71 -56 c11 -14 11 -18 -4 -28 -15 -12
-15 -15 2 -49 l19 -37 -23 0 c-15 0 -32 11 -45 31 -20 28 -21 31 -6 48 9 10
13 20 10 24 -9 8 5 27 20 27 8 0 20 -7 27 -16z m-780 -57 c-8 -8 -11 -7 -11 4
0 20 13 34 18 19 3 -7 -1 -17 -7 -23z m67 16 c-5 -25 -28 -28 -28 -4 0 12 6
21 16 21 9 0 14 -7 12 -17z m772 -14 c0 -5 -4 -9 -10 -9 -5 0 -10 7 -10 16 0
8 5 12 10 9 6 -3 10 -10 10 -16z m105 -38 c5 -16 4 -21 -4 -17 -6 4 -11 14
-11 22 0 8 -4 14 -10 14 -5 0 -10 10 -10 22 0 22 0 22 14 3 7 -11 17 -31 21
-44z m-84 -11 c20 -11 26 -40 8 -40 -20 0 -49 21 -49 35 0 18 14 19 41 5z
m-831 -21 c0 -5 -10 -9 -21 -9 -18 0 -19 2 -9 15 12 15 30 12 30 -6z m890 -25
c0 -8 -5 -12 -10 -9 -6 4 -8 11 -5 16 9 14 15 11 15 -7z m-900 -55 c0 -12 -5
-19 -11 -17 -6 2 -10 7 -10 11 1 4 1 14 1 23 0 8 5 12 10 9 6 -3 10 -15 10
-26z m960 1 c0 -5 -4 -10 -10 -10 -5 0 -10 5 -10 10 0 6 5 10 10 10 6 0 10 -4
10 -10z m-1110 -24 c0 -3 -4 -8 -10 -11 -5 -3 -10 -1 -10 4 0 6 5 11 10 11 6
0 10 -2 10 -4z m100 -71 c0 -31 -4 -45 -13 -45 -9 0 -12 10 -10 33 9 71 23 78
23 12z m958 29 c30 -21 17 -38 -14 -18 -23 16 -32 34 -16 34 4 0 18 -7 30 -16z
m142 0 c0 -2 -7 -4 -15 -4 -8 0 -15 4 -15 10 0 5 7 7 15 4 8 -4 15 -8 15 -10z
m-63 0 c-3 -3 -12 -4 -19 -1 -8 3 -5 6 6 6 11 1 17 -2 13 -5z m-977 -24 c0 -5
-5 -10 -11 -10 -5 0 -7 5 -4 10 3 6 8 10 11 10 2 0 4 -4 4 -10z m893 -69 c-4
-18 -6 -17 -29 4 -34 32 -31 49 5 30 21 -10 28 -20 24 -34z m90 19 c3 -13 10
-18 21 -14 12 5 16 0 16 -20 l0 -27 -30 23 c-16 12 -30 30 -30 40 0 24 16 23
23 -2z m17 -80 c0 -5 -2 -10 -4 -10 -3 0 -8 5 -11 10 -3 6 -1 10 4 10 6 0 11
-4 11 -10z m130 0 c0 -5 -4 -10 -9 -10 -6 0 -13 5 -16 10 -3 6 1 10 9 10 9 0
16 -4 16 -10z m-62 -48 c2 -7 -3 -12 -12 -12 -9 0 -16 7 -16 16 0 17 22 14 28
-4z m-1078 -27 c0 -27 -9 -32 -27 -14 -14 14 -6 39 13 39 8 0 14 -10 14 -25z
m1217 -12 c-3 -10 -5 -4 -5 12 0 17 2 24 5 18 2 -7 2 -21 0 -30z m-158 -45 c1
-10 -3 -18 -9 -18 -13 0 -24 46 -15 67 7 16 9 15 15 -7 5 -14 8 -33 9 -42z
m-1079 -3 c0 -8 -4 -15 -10 -15 -5 0 -10 7 -10 15 0 8 5 15 10 15 6 0 10 -7
10 -15z m990 -55 c0 -5 -5 -10 -10 -10 -6 0 -8 -11 -4 -25 5 -20 3 -24 -10
-19 -19 7 -21 35 -4 52 15 15 28 16 28 2z m210 -10 c0 -11 -4 -20 -10 -20 -5
0 -10 9 -10 20 0 11 5 20 10 20 6 0 10 -9 10 -20z m-150 -70 c0 -41 -7 -49
-28 -28 -21 21 -7 68 20 68 4 0 8 -18 8 -40z m-1038 -12 c6 -17 -1 -38 -13
-38 -5 0 -9 11 -9 25 0 26 14 34 22 13z m1128 2 c0 -5 -2 -10 -4 -10 -3 0 -8
5 -11 10 -3 6 -1 10 4 10 6 0 11 -4 11 -10z m-30 -67 c0 -7 -7 -10 -15 -8 -51
16 -49 14 -29 36 17 19 19 19 31 3 7 -10 13 -24 13 -31z m-1070 -50 c0 -16 4
-34 9 -42 12 -18 3 -41 -15 -41 -10 0 -14 15 -14 55 0 30 5 55 10 55 6 0 10
-12 10 -27z m1010 -27 c0 -16 -18 -31 -27 -22 -8 8 5 36 17 36 5 0 10 -6 10
-14z m-246 -52 c4 -10 -2 -14 -19 -14 -23 0 -33 18 -19 33 9 9 32 -3 38 -19z
m131 16 c3 -5 -1 -10 -10 -10 -9 0 -13 5 -10 10 3 6 8 10 10 10 2 0 7 -4 10
-10z m-135 -236 c0 -27 -4 -43 -10 -39 -5 3 -10 24 -10 46 0 21 5 39 10 39 6
0 10 -21 10 -46z m1387 24 c-3 -8 -6 -5 -6 6 -1 11 2 17 5 13 3 -3 4 -12 1
-19z m-1567 -33 c0 -8 -4 -17 -10 -20 -6 -4 -10 5 -10 20 0 15 4 24 10 20 6
-3 10 -12 10 -20z m230 15 c0 -5 -4 -10 -10 -10 -5 0 -10 5 -10 10 0 6 5 10
10 10 6 0 10 -4 10 -10z m-346 -46 c11 -24 14 -40 7 -47 -17 -17 -38 0 -44 35
-9 59 11 66 37 12z m1765 -26 c1 -10 -6 -18 -15 -18 -11 0 -14 5 -10 16 3 9 6
25 7 37 0 21 1 21 9 2 5 -11 9 -28 9 -37z m2605 43 c3 -4 6 -48 7 -97 1 -49 5
-96 10 -105 4 -8 11 -83 14 -167 4 -83 10 -193 13 -244 4 -51 5 -167 2 -258
-7 -207 -14 -121 -20 243 -1 53 -5 97 -8 97 -4 0 -8 19 -8 43 -5 123 -16 232
-25 243 -7 9 -7 19 0 33 8 14 8 46 1 108 -5 48 -10 94 -10 101 0 14 16 16 24
3z m-2755 -44 c1 -5 -3 -5 -9 -2 -5 3 -10 16 -9 28 0 21 1 21 9 2 5 -11 9 -24
9 -28z m-2029 23 c0 -5 -4 -10 -9 -10 -6 0 -13 5 -16 10 -3 6 1 10 9 10 9 0
16 -4 16 -10z m2647 2 c-3 -4 5 -20 18 -36 19 -24 25 -27 44 -17 11 7 21 16
21 21 0 6 22 10 49 10 37 0 50 -4 56 -17 6 -17 7 -17 21 1 13 19 14 19 14 -6
0 -23 -5 -26 -47 -33 -27 -4 -70 -8 -97 -10 -26 -2 -55 -6 -63 -9 -8 -4 -20
-3 -26 1 -6 4 -25 7 -42 7 -27 1 -30 5 -33 36 -3 31 -2 33 10 17 13 -17 15
-17 37 12 13 17 28 31 33 31 5 0 7 -3 5 -8z m-233 -18 c10 -27 7 -54 -8 -54
-21 0 -38 27 -31 50 8 24 30 27 39 4z m84 -9 c17 -37 15 -55 -7 -55 -15 0 -20
9 -23 40 -4 46 12 54 30 15z m-2549 2 c6 -8 8 -17 5 -20 -8 -7 -54 14 -54 25
0 13 36 9 49 -5z m2161 3 c0 -5 -4 -10 -10 -10 -5 0 -10 5 -10 10 0 6 5 10 10
10 6 0 10 -4 10 -10z m843 -27 c-33 -17 -63 -17 -63 2 0 23 29 34 60 22 l28
-11 -25 -13z m-4738 -80 l-8 -48 -8 35 c-4 19 -5 55 -1 80 l6 45 9 -32 c5 -17
6 -53 2 -80z m2645 32 c0 -15 -18 -30 -27 -22 -2 3 -2 15 2 26 7 23 25 19 25
-4z m-110 -10 c7 -9 19 -14 27 -11 10 4 11 1 3 -14 -5 -10 -15 -22 -21 -26
-15 -9 -52 34 -45 52 7 18 20 18 36 -1z m-82 -27 c-2 -25 -8 -33 -23 -33 -20
0 -31 25 -21 51 3 8 15 14 26 14 18 0 21 -5 18 -32z m-60 -2 c2 -10 -7 -29
-19 -42 -21 -22 -31 -25 -85 -22 -36 1 -67 -2 -76 -9 -9 -8 -36 -10 -75 -7
-55 4 -61 2 -66 -17 -6 -23 -14 -23 -84 -1 -18 6 -35 7 -38 2 -3 -5 4 -11 15
-15 29 -9 24 -25 -7 -24 -47 2 -87 13 -84 24 5 19 -18 16 -29 -5 -8 -14 -17
-19 -30 -15 -10 3 -21 2 -24 -3 -3 -6 -23 -4 -47 4 -28 10 -45 11 -54 4 -6 -5
-15 -7 -18 -3 -14 14 -6 34 18 45 21 10 27 8 39 -7 13 -18 15 -17 57 2 46 22
126 41 169 41 14 -1 50 7 82 15 31 9 86 19 122 23 36 4 73 12 81 18 9 6 46 11
83 10 55 -1 68 -4 70 -18z m-1630 -32 c7 -2 12 -14 10 -26 -3 -24 -30 -35 -90
-37 -37 -1 -38 0 -38 32 0 19 2 36 5 39 6 6 89 0 113 -8z m806 -52 c-1 -17
-16 -61 -33 -96 -33 -70 -50 -164 -51 -281 0 -163 8 -343 18 -380 6 -22 16
-74 22 -115 6 -41 14 -95 19 -120 5 -25 16 -92 25 -150 9 -58 21 -127 26 -155
15 -87 29 -177 40 -270 6 -49 16 -117 21 -151 5 -33 9 -81 9 -105 0 -24 4 -60
9 -79 12 -43 30 -382 37 -665 4 -212 17 -372 34 -455 5 -25 14 -81 20 -125 6
-44 15 -91 19 -105 10 -28 24 -98 41 -205 6 -38 20 -110 31 -159 11 -49 18
-100 15 -112 -4 -14 -26 -35 -54 -51 -103 -60 -448 -301 -455 -318 -2 -5 -1
-41 3 -80 5 -38 13 -430 20 -870 6 -440 16 -824 21 -854 5 -30 9 -107 9 -170
0 -64 4 -141 9 -171 5 -31 11 -146 12 -258 4 -230 10 -213 -91 -275 -30 -18
-98 -60 -150 -91 -52 -32 -122 -78 -155 -103 -242 -178 -265 -197 -265 -224 0
-54 -52 -95 -89 -72 -39 24 -61 74 -61 139 0 74 20 104 69 104 16 0 35 7 42
17 36 43 286 220 477 338 45 28 85 58 88 69 6 18 -7 326 -26 606 -6 80 -12
336 -15 570 -7 729 -18 1220 -25 1225 -10 6 -39 -17 -205 -161 -187 -162 -248
-228 -264 -284 -22 -77 -59 -99 -109 -64 -37 26 -52 67 -52 146 0 88 16 118
62 118 26 0 50 18 142 108 201 193 402 357 691 560 88 62 171 121 184 130 23
17 23 20 13 67 -6 28 -16 82 -22 120 -6 39 -20 113 -30 165 -10 52 -23 127
-29 165 -6 39 -13 86 -16 105 -42 272 -53 421 -61 835 -3 182 -9 344 -13 360
-5 17 -9 66 -10 109 -1 44 -5 84 -8 89 -3 4 -9 50 -14 100 -13 126 -36 281
-78 522 -5 28 -14 81 -20 119 -6 37 -21 114 -32 169 -25 122 -30 347 -9 487
18 129 58 200 140 249 50 30 75 25 74 -17z m3207 28 c18 0 89 -72 112 -115 14
-24 30 -65 36 -92 6 -26 15 -68 20 -93 28 -127 23 -330 -12 -530 -8 -47 -20
-121 -26 -165 -7 -44 -18 -114 -26 -155 -14 -72 -22 -136 -45 -335 -5 -49 -15
-175 -21 -280 -11 -197 -12 -186 33 -595 25 -239 30 -539 9 -655 -5 -27 -14
-90 -21 -140 -6 -49 -20 -139 -31 -200 -11 -60 -25 -137 -30 -170 -6 -33 -15
-80 -20 -104 -8 -34 -7 -47 3 -56 7 -7 85 -61 173 -120 88 -60 192 -131 230
-160 39 -28 115 -84 170 -124 131 -95 285 -225 399 -333 81 -78 95 -88 129
-88 31 0 41 -5 58 -32 17 -27 19 -45 16 -98 -8 -104 -40 -150 -106 -150 -25 0
-36 7 -51 33 -11 17 -20 43 -20 56 0 17 -28 50 -97 116 -107 101 -381 325
-399 325 -18 0 -25 -179 -35 -955 -5 -401 -14 -797 -19 -880 -5 -82 -13 -244
-16 -360 l-6 -210 63 -41 c35 -23 84 -53 109 -68 139 -82 323 -209 412 -283
24 -20 51 -33 68 -33 63 0 94 -69 71 -157 -17 -61 -42 -87 -85 -87 -39 0 -61
20 -70 65 -6 31 -74 101 -119 122 -17 9 -72 46 -122 82 -49 37 -110 78 -135
92 -25 14 -72 43 -105 63 -33 21 -93 56 -133 79 -40 23 -80 53 -89 67 -17 27
-15 95 22 754 8 140 15 381 15 535 0 154 5 420 10 590 5 171 10 406 11 523 l3
214 -50 38 c-74 56 -411 280 -422 280 -5 0 -21 11 -36 25 -28 26 -33 57 -17
109 10 30 19 80 40 201 6 33 18 94 27 135 8 41 19 107 24 145 4 39 14 106 20
150 7 44 13 136 14 205 1 123 -11 337 -20 351 -4 7 -16 147 -30 354 -6 97 5
337 27 575 12 136 31 273 69 500 5 30 14 91 20 135 6 44 16 98 21 120 6 22 12
106 14 185 2 80 4 154 5 165 3 26 -17 198 -28 250 -5 22 -25 76 -45 120 -33
74 -35 81 -20 98 9 10 23 15 31 12 7 -3 18 -5 23 -5z m-3845 -15 c9 -23 -15
-45 -50 -45 l-31 0 30 29 c34 34 43 37 51 16z m181 9 c-3 -3 -12 -4 -19 -1 -8
3 -5 6 6 6 11 1 17 -2 13 -5z m503 -63 c0 -14 -18 -23 -30 -16 -6 4 -8 11 -5
16 8 12 35 12 35 0z m-1643 -263 c-1 -46 -3 -11 -3 77 0 88 2 125 3 83 2 -42
2 -114 0 -160z m736 52 c-8 -201 -7 -317 4 -415 24 -211 61 -403 101 -525 7
-19 18 -55 26 -80 21 -64 55 -160 70 -195 31 -72 36 -87 36 -110 0 -13 -14
-44 -30 -67 -17 -24 -47 -68 -67 -98 -51 -75 -142 -188 -230 -286 -67 -75 -73
-86 -73 -125 -2 -169 -201 -40 -226 145 -12 83 22 114 86 81 28 -15 31 -14 47
6 40 49 105 126 128 151 52 57 215 288 215 306 0 10 -4 22 -8 27 -4 6 -14 28
-21 50 -7 22 -16 49 -21 60 -4 11 -13 40 -20 65 -7 25 -16 56 -21 70 -63 187
-114 519 -114 745 0 136 2 154 23 196 22 45 53 70 82 66 12 -2 14 -16 13 -67z
m5016 51 c48 -48 80 -153 81 -261 0 -143 -52 -538 -90 -675 -19 -69 -31 -119
-37 -153 -3 -18 -9 -35 -14 -38 -5 -3 -9 -15 -9 -28 0 -12 -3 -26 -7 -29 -7
-7 -43 -106 -43 -119 0 -24 276 -323 412 -446 l38 -34 41 16 c34 14 44 14 58
4 27 -21 31 -31 31 -75 0 -98 -101 -233 -174 -233 -42 0 -66 29 -66 79 0 32
-13 48 -148 181 -162 158 -326 343 -342 384 -9 25 2 70 40 161 4 11 13 36 20
55 7 19 16 44 21 55 5 11 18 56 30 100 60 231 68 266 92 445 12 94 14 424 2
539 -6 57 -4 75 6 82 22 14 37 11 58 -10z m901 -693 c0 -18 -2 -20 -9 -8 -6 8
-7 18 -5 22 9 14 14 9 14 -14z m-13 -250 c-3 -7 -5 -2 -5 12 0 14 2 19 5 13 2
-7 2 -19 0 -25z m-6634 -131 c2 -44 0 -73 -4 -65 -5 7 -8 47 -8 88 1 92 6 82
12 -23z m6634 21 c-3 -7 -5 -2 -5 12 0 14 2 19 5 13 2 -7 2 -19 0 -25z m2
-150 l-2 -83 -8 70 c-5 39 -6 76 -4 83 10 29 15 7 14 -70z m-6617 -84 l-9 -69
-1 90 c0 68 2 85 9 69 7 -14 7 -44 1 -90z m27 -211 c1 -7 -3 -13 -9 -13 -5 0
-10 17 -9 38 1 33 2 34 9 12 4 -14 8 -31 9 -37z m8 -190 c-2 -16 -4 -5 -4 22
0 28 2 40 4 28 2 -13 2 -35 0 -50z m6542 -120 c-1 -38 6 -88 15 -112 19 -51
15 -60 -19 -53 -23 4 -25 9 -25 53 0 43 20 179 27 179 1 0 2 -30 2 -67z
m-6516 -74 c2 -80 1 -84 -20 -87 -12 -2 -24 -11 -26 -20 -3 -12 -5 -10 -6 6 0
12 3 22 8 22 5 0 11 21 15 48 11 85 18 123 22 119 3 -2 5 -42 7 -88z m6576
-184 c0 -29 -1 -28 -14 10 -8 22 -14 49 -14 60 1 33 28 -35 28 -70z m31 -75
c0 -10 5 -22 10 -25 6 -3 10 -21 9 -38 0 -26 -2 -28 -8 -12 -5 11 -7 23 -5 26
2 4 -3 20 -11 35 -17 34 -19 48 -5 39 6 -3 10 -15 10 -25z m-6498 -111 c38
-76 19 -118 -147 -324 -169 -210 -255 -360 -255 -444 0 -19 -22 -96 -62 -220
-6 -19 -23 -56 -39 -83 -16 -27 -29 -56 -29 -65 0 -13 -3 -14 -12 -5 -15 15 4
104 42 197 8 20 18 59 41 165 49 224 102 382 138 410 3 3 23 30 43 61 20 31
56 80 80 110 51 63 74 98 106 159 30 56 52 82 66 77 6 -2 19 -19 28 -38z
m6538 -14 c0 -14 -2 -25 -4 -25 -2 0 -6 11 -8 25 -3 14 -1 25 3 25 5 0 9 -11
9 -25z m-185 -103 c38 -56 118 -164 178 -242 59 -77 107 -142 107 -145 0 -3
10 -16 23 -31 12 -14 26 -37 30 -52 11 -35 46 -192 58 -257 14 -82 26 -127 46
-180 28 -74 45 -155 41 -195 l-3 -35 -27 58 c-15 32 -40 77 -56 100 -16 23
-35 69 -42 102 -7 33 -17 74 -22 90 -6 17 -14 50 -19 75 -4 25 -11 61 -15 80
-4 19 -14 46 -23 60 -33 51 -42 66 -59 94 -9 15 -73 94 -140 175 -209 248
-246 305 -212 326 6 3 10 16 10 27 0 25 29 60 44 55 6 -2 42 -49 81 -105z
m199 53 c3 -8 1 -15 -4 -15 -6 0 -10 7 -10 15 0 8 2 15 4 15 2 0 6 -7 10 -15z
m43 -157 c-3 -7 -5 -2 -5 12 0 14 2 19 5 13 2 -7 2 -19 0 -25z m20 -90 c-3 -7
-5 -2 -5 12 0 14 2 19 5 13 2 -7 2 -19 0 -25z m20 -80 c-3 -8 -6 -5 -6 6 -1
11 2 17 5 13 3 -3 4 -12 1 -19z m20 -70 c-3 -7 -5 -2 -5 12 0 14 2 19 5 13 2
-7 2 -19 0 -25z m-6477 -1382 c0 -47 -3 -54 -22 -59 -12 -4 -23 -5 -24 -4 -6
7 -6 65 1 82 25 62 45 53 45 -19z m6921 -718 c7 -29 16 -84 20 -123 4 -38 19
-131 32 -205 19 -105 26 -187 31 -370 4 -151 3 -240 -4 -250 -5 -8 -11 -13
-12 -10 -1 3 -5 111 -9 240 -7 252 -20 351 -61 485 -10 34 -24 285 -15 285 3
0 11 -24 18 -52z m-7721 -714 c0 -8 -5 -12 -10 -9 -6 4 -8 11 -5 16 9 14 15
11 15 -7z m30 -54 c13 -8 12 -11 -4 -23 -16 -11 -17 -17 -7 -36 7 -12 10 -34
7 -49 -17 -82 -24 -525 -9 -609 5 -31 -8 -46 -21 -24 -18 28 -34 578 -21 681
10 74 19 83 55 60z m-6 -797 c3 -10 2 -43 -3 -73 -8 -60 -15 -49 -25 43 -4 36
-2 47 9 47 7 0 16 -8 19 -17z m19 -205 c-6 -75 -10 -83 -28 -68 -11 9 -15 30
-14 69 2 67 5 74 28 61 15 -7 17 -19 14 -62z"/>
<path d="M8700 13510 c0 -5 9 -10 20 -10 11 0 20 5 20 10 0 6 -9 10 -20 10
-11 0 -20 -4 -20 -10z"/>
<path d="M9715 13020 c3 -5 11 -10 16 -10 6 0 7 5 4 10 -3 6 -11 10 -16 10 -6
0 -7 -4 -4 -10z"/>
<path d="M11071 11044 c0 -11 3 -14 6 -6 3 7 2 16 -1 19 -3 4 -6 -2 -5 -13z"/>
<path d="M6593 11740 c-23 -10 -32 -30 -12 -30 17 0 49 20 49 30 0 12 -8 12
-37 0z"/>
<path d="M6582 11677 c-15 -18 -5 -27 30 -27 23 0 29 4 26 18 -4 21 -41 28
-56 9z"/>
<path d="M6660 11654 c0 -9 7 -14 17 -12 25 5 28 28 4 28 -12 0 -21 -6 -21
-16z"/>
<path d="M6790 11630 c11 -20 30 -28 30 -12 0 11 -22 32 -32 32 -5 0 -4 -9 2
-20z"/>
<path d="M6585 11600 c-3 -5 -3 -14 0 -20 3 -5 -5 -15 -19 -22 -15 -6 -26 -19
-26 -31 0 -19 1 -19 27 -1 42 27 63 57 51 72 -13 15 -25 16 -33 2z"/>
<path d="M6815 11550 c3 -5 15 -10 26 -10 10 0 19 -4 19 -10 0 -15 33 -12 56
5 17 13 16 14 -17 8 -22 -3 -39 -1 -43 6 -4 6 -16 11 -27 11 -11 0 -17 -4 -14
-10z"/>
<path d="M6430 11455 c0 -8 4 -15 9 -15 5 0 11 7 15 15 3 9 0 15 -9 15 -8 0
-15 -7 -15 -15z"/>
<path d="M6910 11450 c0 -5 9 -10 19 -10 12 0 24 -12 32 -29 13 -30 34 -41 77
-41 29 0 24 24 -5 28 -11 2 -33 16 -48 33 -27 28 -75 40 -75 19z"/>
<path d="M7119 11340 c-10 -96 -2 -130 31 -130 17 0 17 3 3 48 -8 26 -19 61
-23 77 -8 29 -8 29 -11 5z"/>
<path d="M7010 11345 c0 -17 35 -55 51 -55 24 0 24 9 2 27 -27 20 -53 34 -53
28z"/>
<path d="M7175 11320 c3 -5 8 -10 11 -10 2 0 4 5 4 10 0 6 -5 10 -11 10 -5 0
-7 -4 -4 -10z"/>
<path d="M7110 11172 c0 -5 7 -15 15 -22 8 -7 15 -8 15 -2 0 5 -7 15 -15 22
-8 7 -15 8 -15 2z"/>
<path d="M7110 11102 c0 -10 22 -32 32 -32 15 0 8 28 -8 34 -21 8 -24 8 -24
-2z"/>
<path d="M7135 10980 c3 -5 8 -10 11 -10 2 0 4 5 4 10 0 6 -5 10 -11 10 -5 0
-7 -4 -4 -10z"/>
<path d="M6540 10864 c0 -8 5 -12 10 -9 6 4 8 11 5 16 -9 14 -15 11 -15 -7z"/>
<path d="M6950 10852 c0 -12 19 -26 26 -19 2 2 -2 10 -11 17 -9 8 -15 8 -15 2z"/>
<path d="M6625 10830 c-3 -5 -2 -10 4 -10 5 0 13 5 16 10 3 6 2 10 -4 10 -5 0
-13 -4 -16 -10z"/>
<path d="M7270 10790 c0 -5 7 -10 15 -10 8 0 15 5 15 10 0 6 -7 10 -15 10 -8
0 -15 -4 -15 -10z"/>
<path d="M6483 10717 c4 -10 7 -25 7 -33 0 -8 5 -14 10 -14 16 0 11 36 -7 51
-15 12 -16 12 -10 -4z"/>
<path d="M5474 11466 c-79 -29 -135 -91 -168 -186 -18 -53 -21 -187 -5 -227
30 -74 41 -94 66 -124 47 -56 121 -79 202 -63 52 11 132 92 159 161 29 78 31
199 2 276 -22 58 -83 137 -106 137 -8 0 -14 4 -14 8 0 7 -82 33 -98 31 -4 -1
-21 -6 -38 -13z m170 -83 c16 -27 37 -62 48 -79 l18 -31 -67 -66 c-36 -37 -71
-67 -76 -67 -16 0 -91 66 -106 93 -12 22 -10 29 13 70 29 49 108 127 128 127
7 0 26 -21 42 -47z"/>
<path d="M10124 11440 c-66 -21 -140 -122 -163 -222 -27 -115 6 -248 79 -325
54 -58 93 -76 167 -77 53 -1 67 3 104 29 91 64 133 164 127 305 -2 69 -8 96
-31 143 -36 71 -68 111 -110 132 -39 20 -131 28 -173 15z"/>
</g>
</svg>
