<svg width="512" height="512" viewBox="0 0 512 512" fill="none" xmlns="http://www.w3.org/2000/svg">
<rect width="512" height="512" fill="#C3218F"/>
<rect x="6.74237" y="6.74237" width="498.355" height="498.355" rx="249.178" fill="#001A1A"/>
<path d="M376.249 223.541C376.735 215.829 376.186 208.086 374.617 200.52C370.376 179.859 358.415 161.6 341.179 149.476C327.881 139.661 311.826 134.302 295.306 134.162C267.645 133.958 239.967 133.958 212.273 134.162C206.269 134.29 200.3 135.112 194.484 136.612C176.64 141.047 160.815 151.39 149.578 165.963C138.096 179.961 131.731 197.464 131.534 215.578C131.534 242.938 131.534 270.246 131.534 297.606C131.564 301.303 131.905 304.991 132.554 308.632C135.753 329.589 146.888 348.507 163.646 361.463C177.612 372.839 195.035 379.105 213.038 379.226C240.256 379.226 267.475 379.226 294.592 379.226C298.711 379.211 302.822 378.835 306.876 378.103C318.971 376.128 330.475 371.475 340.545 364.481C350.615 357.487 359 348.329 365.086 337.676C371.617 326.725 375.445 314.37 376.249 301.639C376.503 297.759 376.249 293.829 376.249 289.797H374.006C368.246 289.797 362.486 289.797 356.726 289.797C353.667 289.797 352.19 288.419 352.19 285.457V227.931C352.19 224.919 353.667 223.541 356.675 223.541H376.249Z" stroke="#C3218F" stroke-width="6.44241" stroke-miterlimit="10"/>
<path d="M362.555 257.102C362.555 253.568 363.602 250.115 365.562 247.176C367.522 244.239 370.309 241.948 373.569 240.596C376.828 239.245 380.416 238.891 383.875 239.58C387.337 240.27 390.516 241.97 393.01 244.47C395.505 246.968 397.204 250.152 397.893 253.616C398.582 257.083 398.228 260.675 396.878 263.94C395.527 267.204 393.24 269.994 390.306 271.956C387.374 273.92 383.925 274.967 380.395 274.967C375.665 274.967 371.126 273.086 367.781 269.735C364.435 266.384 362.555 261.84 362.555 257.102ZM366.48 250.467C365.486 252.537 364.97 254.805 364.97 257.102C364.97 259.4 365.486 261.668 366.48 263.738L373.616 259.655C373.174 258.429 373.051 257.111 373.259 255.827C373.259 255.367 373.616 254.856 373.259 254.55C372.903 254.244 372.495 254.04 372.138 253.836L366.48 250.467ZM387.226 259.655L390.743 261.696L394.26 263.738C395.279 261.684 395.809 259.422 395.809 257.128C395.809 254.834 395.279 252.572 394.26 250.518L387.226 254.601C387.786 256.239 387.786 258.016 387.226 259.655ZM379.172 249.905V241.739C376.886 241.913 374.668 242.6 372.684 243.747C370.699 244.896 368.997 246.477 367.704 248.373L374.788 252.458C375.928 251.144 377.469 250.246 379.172 249.905ZM379.172 272.466V264.248C377.466 263.948 375.918 263.063 374.788 261.747L367.704 265.83C368.997 267.727 370.699 269.309 372.684 270.456C374.668 271.605 376.886 272.292 379.172 272.466ZM385.951 252.458L393.087 248.373C391.795 246.477 390.093 244.896 388.108 243.747C386.122 242.6 383.906 241.913 381.619 241.739V249.956C383.302 250.281 384.828 251.161 385.951 252.458ZM385.951 261.798C384.856 263.128 383.317 264.016 381.619 264.3V272.517C383.906 272.343 386.122 271.656 388.108 270.509C390.093 269.36 391.795 267.779 393.087 265.882L385.951 261.798ZM380.344 261.798C381.291 261.788 382.212 261.499 382.992 260.966C383.774 260.432 384.379 259.679 384.735 258.801C385.09 257.923 385.178 256.961 384.987 256.034C384.796 255.105 384.336 254.255 383.663 253.59C382.991 252.924 382.138 252.472 381.21 252.291C380.281 252.11 379.322 252.208 378.448 252.573C377.576 252.936 376.831 253.552 376.307 254.34C375.782 255.127 375.503 256.053 375.502 257C375.577 258.266 376.121 259.457 377.024 260.344C377.929 261.232 379.131 261.75 380.395 261.798H380.344Z" stroke="#C3218F" stroke-width="1.56502" stroke-miterlimit="10"/>
<path d="M69.9446 206.894C69.9323 180.036 77.2514 153.736 91.0403 131.003C104.828 108.272 124.516 90.0409 147.821 78.3555L147.86 78.3359C165.779 69.2497 185.405 64.3786 205.329 64.0488L207.258 64.0312H305.18C337.02 64.3649 367.81 76.0415 392.321 97.1455C416.853 118.268 433.585 147.542 439.606 180.023L439.607 180.026C441.298 189.133 442.145 198.388 442.135 207.662V207.697L442.261 256.262V304.603C442.449 335.542 432.908 365.669 415.134 390.483L414.282 391.661C395.964 416.69 370.208 434.759 341.022 443.144L340.965 443.159C328.766 446.743 316.139 448.522 303.46 448.443H207.416C170.948 448.253 135.978 433.17 110.186 406.4C84.3842 379.621 69.882 343.328 69.9446 305.464V206.894Z" stroke="#C3218F" stroke-width="19.3272" stroke-miterlimit="10"/>
<mask id="mask0_6827_594" style="mask-type:luminance" maskUnits="userSpaceOnUse" x="131" y="134" width="246" height="246">
<path d="M212.3 134.96C239.987 134.756 267.657 134.756 295.31 134.96V134.961C311.662 135.099 327.553 140.404 340.716 150.119L340.723 150.124L340.731 150.129C357.8 162.137 369.646 180.22 373.845 200.681V200.682C375.349 207.933 375.904 215.348 375.503 222.742H356.686C355.076 222.742 353.714 223.11 352.76 224.033C351.801 224.961 351.402 226.306 351.402 227.931V285.457C351.402 287.061 351.803 288.396 352.772 289.317C353.732 290.23 355.105 290.596 356.737 290.596H375.466C375.494 294.402 375.698 297.988 375.462 301.586V301.588C374.667 314.192 370.876 326.424 364.411 337.266L364.403 337.28C358.376 347.83 350.073 356.899 340.101 363.825C330.129 370.751 318.737 375.359 306.759 377.314L306.745 377.317C302.737 378.041 298.673 378.412 294.601 378.427H213.054C195.234 378.308 177.986 372.104 164.161 360.843L164.146 360.831L163.372 360.225C147.207 347.415 136.474 328.941 133.355 308.511L133.351 308.492L133.125 307.141C132.702 304.435 132.449 301.706 132.37 298.969L132.344 297.6V215.586C132.539 197.654 138.841 180.327 150.207 166.47L150.214 166.46L150.222 166.451C161.349 152.02 177.019 141.779 194.688 137.388L194.695 137.386C200.45 135.901 206.358 135.086 212.3 134.96Z" fill="white" stroke="url(#paint0_linear_6827_594)" stroke-width="1.59804"/>
</mask>
<g mask="url(#mask0_6827_594)">
<path d="M129.001 325.864V323.312C128.951 322.462 128.951 321.609 129.001 320.76L171.002 321.168C170.839 322.06 170.754 322.966 170.747 323.873V328.977C170.754 329.784 170.839 330.587 171.002 331.377L129.001 330.968C128.949 330.118 128.949 329.267 129.001 328.417V325.864ZM176.558 305.446C175.531 307.07 174.645 308.777 173.907 310.551C173.15 312.424 172.537 314.352 172.072 316.319L129.562 315.911C129.562 314.073 130.072 312.184 130.48 310.296L131.652 304.783L176.558 305.446ZM171.919 336.379C172.739 339.591 173.901 342.706 175.386 345.669L131.142 345.261C130.735 343.628 130.48 342.147 130.225 340.667C129.97 339.187 129.817 337.604 129.562 336.124L171.919 336.379ZM197.711 290.44C194.084 291.247 190.632 292.699 187.517 294.727C184.379 296.707 181.604 299.211 179.31 302.128L132.569 301.72C133.232 299.526 133.997 297.535 134.812 295.492C135.628 293.451 136.545 291.613 137.463 289.725L197.711 290.44ZM285.79 288.807L138.839 287.326C140.073 284.974 141.488 282.722 143.07 280.588C144.522 278.453 146.123 276.423 147.861 274.514L286.045 275.994L285.79 288.807ZM284.872 376.194L144.854 374.968L142.203 371.191C141.322 369.941 140.505 368.646 139.756 367.312L285.025 368.793L284.872 376.194ZM235.889 260.119C238.853 262.451 241.63 265.011 244.197 267.775L245.777 263.591C245.993 263.113 246.164 262.618 246.286 262.11C246.477 261.52 246.698 260.94 246.949 260.374L286.045 260.783V274.462L149.339 272.88C151.789 270.205 154.448 267.73 157.291 265.479C160.196 263.334 163.101 261.191 166.109 259.302L235.889 260.119ZM159.431 389.465C156.649 387.441 154.04 385.187 151.633 382.728L284.77 384.106V390.691L246.949 390.282L245.114 384.668C244.197 385.586 243.229 386.556 242.464 387.474C241.58 388.477 240.626 389.414 239.609 390.282L159.431 389.465ZM204.286 249.4C209.73 249.409 215.135 250.306 220.291 252.054C225.322 253.845 230.114 256.246 234.564 259.2L168.25 258.537C179.262 252.4 191.684 249.249 204.286 249.4ZM202.859 404.268C198.073 404.246 193.305 403.697 188.638 402.635C184.086 401.668 179.633 400.285 175.334 398.501L227.122 399.011C219.552 402.629 211.245 404.429 202.859 404.268ZM285.484 303.506L232.525 302.996C230.226 300.011 227.453 297.425 224.318 295.34C221.2 293.261 217.753 291.724 214.124 290.796L285.841 291.613L285.484 303.506ZM236.552 352.662C239.712 356.134 220.546 358.685 224.777 360.83L136.137 359.911C135.475 358.379 134.812 357.052 134.303 355.725C133.793 354.398 133.232 352.918 132.671 351.539L236.552 352.662ZM284.974 361.493L220.036 360.83C224.2 358.821 227.951 356.051 231.097 352.662L284.974 353.173V361.493ZM233.34 337.196C236.552 341.075 217.386 343.883 221.617 346.333L132.977 345.363C132.315 343.883 131.652 342.3 131.142 340.82C130.633 339.34 130.072 337.706 129.511 336.226L233.34 337.196ZM281.712 346.996L216.723 346.333C220.973 344.043 224.731 340.939 227.784 337.196L281.712 337.706V346.996ZM285.484 317.952L239.609 317.39C239.091 315.421 238.427 313.493 237.622 311.623C236.847 309.767 235.927 307.973 234.869 306.264L285.33 306.774L285.484 317.952ZM285.484 346.996L235.94 346.434C236.808 345.019 237.558 343.533 238.182 341.995C238.844 340.46 239.421 338.893 239.916 337.299L285.79 337.859L285.484 346.996ZM241.393 327.243C241.393 325.456 241.393 323.618 241.088 321.831L285.484 322.393V332.603L240.73 332.194C240.73 330.458 241.138 328.825 241.138 327.089L241.393 327.243ZM280.897 252.463C284.362 252.463 285.993 254.198 285.993 257.567V259.302L247.306 258.895C248.08 257.205 249.019 255.598 250.11 254.096C250.647 253.507 251.314 253.054 252.057 252.77C252.801 252.486 253.6 252.382 254.392 252.463H280.897ZM254.901 403.043C254.364 403.099 253.821 403.047 253.305 402.89C252.787 402.732 252.308 402.471 251.894 402.125C251.156 401.258 250.6 400.25 250.262 399.164L284.77 399.572C284.57 400.734 283.926 401.772 282.974 402.469C282.024 403.164 280.84 403.461 279.673 403.298L254.901 403.043ZM248.937 332.04L170.339 331.275V321.066L248.937 321.883V332.04ZM248.937 317.544L170.339 316.728V305.701L248.886 306.519L248.937 317.544ZM249.804 302.895L171.308 302.078V290.132L249.804 290.899V302.895Z" fill="#C3218F"/>
<path d="M235.706 214.287C236.788 215.257 237.447 216.613 237.541 218.064C237.557 218.831 237.401 219.592 237.084 220.29C236.766 220.988 236.295 221.606 235.706 222.096L225.512 232.05C224.649 233.014 223.454 233.611 222.167 233.725C220.88 233.839 219.598 233.459 218.58 232.663L218.121 232.05L202.269 215.92L186.723 232.305C185.872 233.297 184.673 233.925 183.374 234.058C182.074 234.191 180.774 233.82 179.74 233.02C179.485 233.02 179.383 232.612 179.077 232.305L168.883 222.096C168.294 221.606 167.823 220.988 167.506 220.29C167.188 219.592 167.032 218.831 167.048 218.064C167.156 216.631 167.814 215.296 168.883 214.338L198.803 184.068C199.244 183.56 199.781 183.143 200.383 182.843C201.11 182.426 201.943 182.23 202.779 182.282C203.544 182.289 204.303 182.427 205.022 182.69C205.637 183.059 206.202 183.505 206.704 184.017L235.706 214.287Z" fill="#C3218F"/>
</g>
<rect x="96.0106" y="91.4105" width="318.9" height="328.563" rx="117.574" stroke="#C3218F" stroke-width="3.22121" stroke-linecap="square"/>
<rect x="86.4755" y="81.8757" width="337.969" height="347.633" rx="125.82" stroke="#C3218F" stroke-width="3.4789" stroke-linecap="square"/>
<defs>
<linearGradient id="paint0_linear_6827_594" x1="131.545" y1="256.617" x2="376.431" y2="256.617" gradientUnits="userSpaceOnUse">
<stop offset="0.715" stop-color="#C3218F"/>
<stop offset="1" stop-color="#C42290"/>
</linearGradient>
</defs>
</svg>
