<svg xmlns="http://www.w3.org/2000/svg" width="40" height="40" viewBox="0 0 40 40"><circle cx="20" cy="20" r="20" fill="#fde8e1"/><rect x="6" y="6" width="28" height="28" rx="7.9799999999999995" ry="7.9799999999999995" fill="#F4633A"/><g transform="translate(11.32, 14.29296636085627)"><svg width="17.36" height="11.414067278287462" viewBox="-549.1 424.2 196.2 129" xmlns="http://www.w3.org/2000/svg">
 
 <g xmlns="http://www.w3.org/2000/svg">
  <path class="st0" d="M-426.4,458.6h-49.1c-2.7,0-4.9,2.2-4.9,4.9v79.3c9.5-0.5,19.3-0.8,29.4-0.8c10.1,0,20,0.3,29.4,0.9v-79.4   C-421.5,460.8-423.7,458.6-426.4,458.6z M-455.9,527.3h-14.7v-24.5h14.7V527.3z M-455.9,492.9h-14.7v-24.5h14.7V492.9z    M-431.4,527.3h-14.7v-24.5h14.7V527.3z M-431.4,492.9h-14.7v-24.5h14.7V492.9z" fill="#ffffff">
  </path>
  <path class="st0" d="M-357.8,424.2h-49c-2.7,0-4.9,2.2-4.9,4.9v114.4c22.9,1.8,43.1,5.3,58.8,9.7V429.2   C-352.9,426.4-355.1,424.2-357.8,424.2z M-387.2,527.3h-14.7v-24.5h14.7V527.3z M-387.2,492.9h-14.7v-24.5h14.7V492.9z    M-387.2,458.6h-14.7v-24.5h14.7V458.6z M-362.7,527.3h-14.7v-24.5h14.7V527.3z M-362.7,492.9h-14.7v-24.5h14.7V492.9z    M-362.7,458.6h-14.7v-24.5h14.7V458.6z" fill="#ffffff">
  </path>
  <path class="st0" d="M-495.1,492.9h-49.1c-2.7,0-4.9,2.2-4.9,4.9v55.4c15.7-4.5,36-7.9,58.9-9.7v-45.7   C-490.2,495.1-492.4,492.9-495.1,492.9z M-524.6,527.3h-14.7v-24.5h14.7V527.3z M-500,527.3h-14.7v-24.5h14.7V527.3z" fill="#ffffff">
  </path>
 </g>
</svg></g></svg>