<svg width="512" height="512" viewBox="0 0 512 512" fill="none" xmlns="http://www.w3.org/2000/svg">
<g clip-path="url(#clip0_452_2)">
<circle cx="256" cy="256" r="256" fill="black"/>
<path d="M398.65 204.988H267.677V238.996H393.117C398.334 238.996 402.583 243.225 402.583 248.461V263.539C402.583 268.755 398.354 273.004 393.117 273.004H267.677V307.012H436.571V171L405.349 202.222C403.571 204 401.18 204.988 398.67 204.988H398.65Z" fill="#00F260"/>
<path d="M113.921 306.992H244.894V272.984H119.453C114.237 272.984 109.988 268.755 109.988 263.519V248.441C109.988 243.225 114.217 238.976 119.453 238.976H244.894V204.968H110.008L76 204.988V238.996V273.004V307.012V341L107.222 309.778C109 308 111.391 307.012 113.901 307.012L113.921 306.992Z" fill="#00F260"/>
</g>
<defs>
<clipPath id="clip0_452_2">
<rect width="512" height="512" fill="white"/>
</clipPath>
</defs>
</svg>
