<svg xmlns="http://www.w3.org/2000/svg" viewBox="0 0 100 100">
  <path fill="#344952" fill-rule="evenodd" d="
M 0.00 46.43 L 0.51 40.14 L 2.88 31.97 L 6.61 24.15 L 11.02 18.03 L 17.63 11.39 L 23.73 6.97 L 32.88 2.55 L 38.64 0.85 L 42.88 0.34 L 0.00 0.17 Z
M 99.66 0.17 L 56.78 0.34 L 63.39 1.53 L 73.56 5.61 L 81.69 11.05 L 87.97 17.35 L 91.69 22.11 L 96.44 31.29 L 99.15 40.14 L 99.66 46.43 Z
M 54.07 84.01 L 56.95 82.82 L 62.88 76.53 L 67.29 70.75 L 68.31 61.22 L 70.68 58.84 L 70.68 57.82 L 72.03 55.78 L 71.69 55.10 L 72.37 54.76 L 72.71 47.62 L 71.86 46.77 L 70.34 46.94 L 70.68 36.39 L 69.66 29.59 L 65.59 24.83 L 64.24 22.11 L 61.36 19.22 L 57.29 17.18 L 52.20 15.82 L 46.78 15.48 L 43.05 16.16 L 38.64 18.54 L 30.34 28.57 L 28.98 33.67 L 28.98 46.60 L 28.47 47.11 L 27.46 46.77 L 26.61 47.96 L 26.61 52.72 L 27.29 53.40 L 27.29 55.44 L 27.97 55.78 L 27.63 56.46 L 29.32 58.84 L 28.98 59.18 L 31.02 61.22 L 32.03 70.75 L 39.15 79.59 L 42.37 82.82 L 45.42 84.18 L 54.07 84.01 Z
M 45.08 40.99 L 45.08 40.65 L 39.83 40.99 L 45.08 40.99 Z
M 59.66 41.16 L 60.17 40.82 L 55.76 40.82 L 55.76 41.16 L 59.66 41.16 Z
M 48.98 48.64 L 49.49 50.34 L 49.66 49.15 L 48.98 48.64 Z
M 30.34 56.46 L 30.68 55.78 L 29.83 55.78 L 30.34 56.46 Z
M 40.17 66.84 L 40.51 66.50 L 39.66 66.84 L 40.17 66.84 Z
M 59.49 66.84 L 59.83 66.50 L 58.98 66.84 L 59.49 66.84 Z
M 44.41 74.49 L 44.41 73.98 L 43.90 74.15 L 44.41 74.49 Z
M 55.93 74.49 L 56.27 74.15 L 55.59 73.98 L 55.93 74.49 Z
  "/>
  <path fill="#4f6971" fill-rule="evenodd" d="
M 43.22 0.00 L 38.81 0.68 L 37.29 1.19 L 43.73 1.19 L 43.22 0.00 Z
M 56.27 0.00 L 55.59 1.19 L 61.86 1.19 L 60.34 0.68 L 56.27 0.00 Z
M 31.19 2.04 L 25.08 4.76 L 20.51 7.82 L 28.98 4.42 L 31.19 2.04 Z
M 68.64 2.21 L 70.51 4.42 L 79.49 8.16 L 74.24 4.76 L 68.64 2.21 Z
M 15.08 11.22 L 9.83 16.33 L 5.76 21.77 L 12.20 15.14 L 15.08 11.22 Z
M 84.92 11.39 L 87.29 14.80 L 93.56 21.43 L 89.49 16.16 L 84.92 11.39 Z
M 4.92 22.96 L 2.20 28.06 L 0.68 31.97 L 5.42 24.32 L 4.92 22.96 Z
M 95.08 23.47 L 94.58 24.32 L 99.15 32.14 L 97.80 28.57 L 95.08 23.47 Z
M 0.17 33.84 L 0.00 36.39 L 1.19 34.52 L 0.17 33.84 Z
M 98.81 34.01 L 99.83 34.69 L 99.66 32.99 L 98.81 34.01 Z
M 41.86 15.99 L 37.97 17.35 L 33.56 20.41 L 29.49 25.51 L 31.86 24.83 L 35.08 21.26 L 42.37 17.18 L 46.27 16.50 L 51.19 16.50 L 54.58 17.01 L 57.97 18.20 L 60.00 19.39 L 61.53 18.88 L 57.97 16.84 L 53.22 15.82 L 49.15 15.65 L 41.86 15.99 Z
M 28.47 26.36 L 25.59 33.33 L 25.25 36.90 L 26.27 37.41 L 28.64 33.50 L 29.66 28.57 L 29.15 26.19 L 28.47 26.36 Z
M 70.68 26.36 L 69.83 26.70 L 69.32 29.08 L 70.17 33.50 L 72.20 37.41 L 73.39 36.73 L 72.71 33.33 L 70.68 26.36 Z
M 25.42 37.92 L 25.42 45.24 L 26.10 46.77 L 26.27 38.26 L 25.42 37.92 Z
M 73.73 38.09 L 73.22 46.77 L 73.73 45.92 L 73.73 38.09 Z
M 27.63 46.94 L 27.46 48.47 L 29.49 52.38 L 30.00 51.70 L 28.47 47.28 L 27.63 46.94 Z
M 72.20 46.94 L 71.02 47.79 L 69.66 51.70 L 70.17 52.38 L 72.20 48.47 L 72.20 46.94 Z
M 27.46 52.89 L 27.46 54.76 L 28.47 54.42 L 27.46 52.89 Z
M 71.53 52.72 L 70.68 54.25 L 71.53 54.93 L 71.53 52.72 Z
M 28.98 55.95 L 29.49 58.84 L 31.86 60.37 L 30.51 57.82 L 28.98 55.95 Z
M 70.85 56.12 L 69.15 57.82 L 67.80 60.37 L 70.17 59.01 L 70.85 56.12 Z
M 32.54 60.88 L 34.41 68.37 L 36.95 72.28 L 35.93 68.20 L 35.25 62.58 L 32.54 60.88 Z
M 67.46 60.88 L 64.75 62.58 L 64.07 68.20 L 63.22 72.45 L 65.76 68.37 L 67.46 60.88 Z
M 37.63 73.13 L 40.00 77.04 L 41.53 78.40 L 39.66 75.51 L 37.63 73.13 Z
M 62.37 73.13 L 60.34 75.51 L 58.47 78.40 L 60.17 77.04 L 62.37 73.13 Z
M 42.54 78.91 L 45.25 80.95 L 47.12 81.63 L 44.24 79.59 L 42.54 78.91 Z
M 57.46 78.91 L 55.59 79.59 L 52.71 81.63 L 54.75 80.95 L 57.46 78.91 Z
M 48.47 82.14 L 50.00 82.31 L 51.53 82.14 L 48.47 82.14 Z
  "/>
  <path fill="#eeceb2" fill-rule="evenodd" d="
M 42.37 17.18 L 35.08 21.26 L 31.86 24.83 L 29.49 25.51 L 29.15 28.57 L 29.66 33.50 L 27.29 37.41 L 26.27 47.11 L 27.63 46.94 L 28.47 47.28 L 30.00 51.70 L 27.97 55.10 L 29.83 55.78 L 29.49 58.84 L 31.86 60.37 L 32.54 60.88 L 35.25 62.58 L 35.93 68.20 L 37.63 73.13 L 39.66 75.51 L 42.54 78.91 L 44.24 79.59 L 47.12 81.63 L 50.00 82.31 L 52.71 81.63 L 55.59 79.59 L 57.46 78.91 L 60.34 75.51 L 62.37 73.13 L 64.07 68.20 L 64.75 62.58 L 67.46 60.88 L 68.14 60.37 L 70.17 59.01 L 70.68 54.93 L 72.37 54.76 L 70.17 51.70 L 71.02 47.79 L 72.20 46.94 L 73.73 45.92 L 72.20 37.41 L 70.17 33.50 L 69.32 29.08 L 70.68 26.36 L 68.47 24.49 L 64.92 19.39 L 61.53 18.88 L 57.97 18.20 L 54.58 17.01 L 51.19 16.50 L 46.27 16.50 Z
M 34.07 40.99 L 44.92 40.99 L 45.08 44.05 L 35.25 44.22 L 33.39 45.07 L 31.69 45.41 L 31.69 44.39 L 34.07 40.99 Z
M 54.92 41.16 L 66.61 41.16 L 68.14 43.20 L 68.31 45.58 L 66.27 45.07 L 63.90 44.22 L 54.75 44.22 L 54.92 41.16 Z
M 46.44 45.75 L 47.97 48.13 L 48.98 50.34 L 49.49 51.02 L 49.66 49.15 L 49.32 46.94 L 47.97 45.24 Z
M 42.20 57.31 L 44.58 58.50 L 46.10 59.69 L 47.80 59.86 L 49.66 60.37 L 51.69 60.03 L 53.56 59.69 L 55.42 58.67 L 57.80 57.82 L 59.15 58.33 L 60.85 59.35 L 62.03 60.88 L 62.20 63.77 L 61.53 62.24 L 60.34 61.05 L 58.47 60.03 L 55.08 60.20 L 52.88 61.05 L 50.00 61.56 L 46.44 60.88 L 43.39 60.03 L 40.68 60.20 L 38.81 61.05 L 37.46 62.58 L 37.12 63.94 L 37.12 61.56 L 38.31 59.52 L 40.17 58.16 Z
M 40.68 65.14 L 44.58 65.65 L 48.81 66.16 L 53.05 66.16 L 57.80 65.48 L 60.34 65.14 L 59.49 66.84 L 56.61 67.35 L 50.00 67.86 L 44.58 67.35 L 40.17 66.84 Z
M 43.90 68.71 L 46.95 69.22 L 50.00 69.39 L 53.22 69.22 L 56.10 68.71 L 55.59 70.24 L 52.88 71.26 L 50.00 71.43 L 46.95 71.26 L 44.41 70.41 Z
  "/>
  <path fill="#835c43" fill-rule="evenodd" d="
M 38.98 13.78 L 44.24 12.92 L 54.75 12.92 L 60.17 13.61 L 65.25 15.14 L 68.98 17.52 L 71.69 20.58 L 73.39 24.15 L 70.68 26.36 L 69.32 29.08 L 70.17 33.50 L 72.20 37.41 L 73.73 45.92 L 72.20 46.94 L 71.02 47.79 L 70.17 51.70 L 72.37 54.76 L 70.68 54.93 L 70.17 59.01 L 68.14 60.37 L 67.46 60.88 L 64.75 62.58 L 64.07 68.20 L 62.37 73.13 L 60.34 75.51 L 57.46 78.91 L 55.59 79.59 L 52.71 81.63 L 50.00 82.31 L 47.12 81.63 L 44.24 79.59 L 42.54 78.91 L 39.66 75.51 L 37.63 73.13 L 35.93 68.20 L 35.25 62.58 L 32.54 60.88 L 31.86 60.37 L 29.49 58.84 L 29.83 55.78 L 27.97 55.10 L 30.00 51.70 L 28.47 47.28 L 27.63 46.94 L 26.27 47.11 L 26.27 37.41 L 27.29 37.41 L 29.66 33.50 L 29.15 28.57 L 29.49 25.51 L 31.86 24.83 L 33.56 20.41 L 37.29 16.33 Z
M 40.51 41.16 L 47.12 41.16 L 47.12 43.71 L 36.10 43.88 L 34.58 44.73 L 33.22 45.07 L 33.90 42.86 L 36.10 41.33 Z
M 52.88 41.16 L 59.49 41.16 L 63.56 41.67 L 65.76 43.20 L 66.44 45.24 L 64.92 44.73 L 63.22 43.88 L 52.88 43.88 Z
M 38.47 62.75 L 41.69 62.24 L 44.58 62.24 L 48.14 62.92 L 50.00 63.09 L 52.37 62.92 L 55.08 62.41 L 58.31 62.24 L 60.85 62.58 L 61.86 63.94 L 61.86 67.35 L 61.19 68.88 L 59.49 68.88 L 57.63 73.13 L 57.12 74.49 L 55.93 74.49 L 54.75 74.15 L 54.24 73.30 L 54.58 69.73 L 45.08 69.90 L 45.59 73.64 L 45.08 74.49 L 44.41 74.49 L 43.39 74.15 L 42.37 72.28 L 40.17 68.88 L 38.98 68.88 L 38.14 67.18 L 38.14 63.77 Z
  "/>
  <path fill="#d8b599" fill-rule="evenodd" d="
M 26.78 46.60 L 27.12 48.81 L 27.80 52.04 L 27.80 54.59 L 26.95 54.08 L 26.61 48.13 Z
M 71.36 46.77 L 72.20 48.13 L 72.03 52.72 L 71.69 54.59 L 70.85 54.76 L 71.53 52.72 L 71.53 47.96 Z
M 46.95 60.88 L 48.98 61.22 L 50.85 61.22 L 53.56 60.88 L 55.42 60.20 L 57.12 59.86 L 58.14 60.03 L 55.25 61.39 L 52.54 61.73 L 50.17 62.07 L 46.78 61.56 L 43.39 61.22 L 42.03 61.39 L 43.39 60.71 L 44.92 60.54 Z
M 37.46 62.75 L 37.29 64.45 L 37.63 65.82 L 38.31 63.94 Z
M 61.69 62.75 L 60.85 63.94 L 61.53 65.65 L 61.69 64.28 Z
M 40.00 65.31 L 43.05 65.82 L 46.27 66.16 L 49.83 66.33 L 53.56 66.16 L 56.95 65.82 L 59.83 65.31 L 58.47 66.16 L 55.59 66.67 L 50.00 67.01 L 44.58 66.67 L 41.69 66.16 Z
M 44.41 68.88 L 47.29 69.39 L 50.17 69.56 L 53.22 69.39 L 55.93 68.88 L 54.92 69.73 L 52.54 70.41 L 50.00 70.58 L 47.46 70.41 L 45.08 69.90 Z
M 30.17 46.94 L 31.02 48.81 L 31.69 52.38 L 31.19 52.55 L 30.00 49.49 L 29.49 47.45 Z
M 69.83 46.94 L 69.66 47.96 L 68.81 50.68 L 68.14 52.21 L 68.81 48.64 Z
  "/>
  <path fill="#7c543b" fill-rule="evenodd" d="
M 31.02 24.83 L 33.56 20.41 L 37.29 16.33 L 36.10 18.54 L 30.68 24.83 Z
M 63.73 17.52 L 68.64 23.64 L 69.66 25.17 L 68.47 24.49 L 64.92 19.39 Z
M 29.15 28.57 L 28.98 33.67 L 27.29 37.41 L 27.29 34.01 L 28.47 30.27 Z
M 70.68 26.36 L 71.69 30.10 L 72.20 37.07 L 70.68 33.50 L 69.32 29.08 Z
M 44.92 40.99 L 45.08 43.71 L 35.93 43.88 L 36.10 41.33 Z
M 54.92 41.16 L 54.75 43.88 L 63.90 43.88 L 63.73 41.33 Z
M 49.15 45.41 L 49.83 46.60 L 49.66 49.15 L 48.98 47.45 Z
M 37.29 62.58 L 38.14 63.77 L 38.14 67.18 L 37.29 65.48 Z
M 61.86 63.94 L 61.19 68.88 L 61.86 67.35 Z
  "/>
</svg>
