<?xml version="1.0" encoding="UTF-8"?>
<!DOCTYPE svg PUBLIC "-//W3C//DTD SVG 1.1//EN" "http://www.w3.org/Graphics/SVG/1.1/DTD/svg11.dtd">
<svg xmlns="http://www.w3.org/2000/svg" version="1.1" width="1080px" height="1080px" style="shape-rendering:geometricPrecision; text-rendering:geometricPrecision; image-rendering:optimizeQuality; fill-rule:evenodd; clip-rule:evenodd" xmlns:xlink="http://www.w3.org/1999/xlink">
<g><path style="opacity:1" fill="#071629" d="M -0.5,-0.5 C 359.5,-0.5 719.5,-0.5 1079.5,-0.5C 1079.5,359.5 1079.5,719.5 1079.5,1079.5C 719.5,1079.5 359.5,1079.5 -0.5,1079.5C -0.5,719.5 -0.5,359.5 -0.5,-0.5 Z"/></g>
<g><path style="opacity:1" fill="#9ea4ab" d="M 391.5,327.5 C 325.832,327.333 260.166,327.5 194.5,328C 189.882,328.994 185.215,329.494 180.5,329.5C 183.628,328.368 186.962,327.535 190.5,327C 257.668,326.168 324.668,326.335 391.5,327.5 Z"/></g>
<g><path style="opacity:1" fill="#fefefe" d="M 391.5,327.5 C 395.371,327.185 399.038,327.518 402.5,328.5C 405.974,329.525 409.64,330.192 413.5,330.5C 415.515,331.924 417.848,332.59 420.5,332.5C 424.94,334.538 429.607,336.204 434.5,337.5C 472.71,353.716 498.043,381.716 510.5,421.5C 511.057,426.165 512.39,430.498 514.5,434.5C 514.49,440.285 515.323,445.951 517,451.5C 517.772,479.514 517.606,507.514 516.5,535.5C 515.705,539.476 515.038,543.476 514.5,547.5C 512.603,549.698 511.603,552.364 511.5,555.5C 497.606,597.23 469.939,625.73 428.5,641C 415.931,645.8 402.931,648.634 389.5,649.5C 328.167,649.5 266.833,649.5 205.5,649.5C 205.5,623.833 205.5,598.167 205.5,572.5C 265.859,572.969 326.192,572.469 386.5,571C 418.019,565.981 436.352,547.814 441.5,516.5C 442.662,500.339 442.828,484.005 442,467.5C 441.817,464.635 441.317,461.969 440.5,459.5C 440.768,457.901 440.434,456.568 439.5,455.5C 439.139,451.085 437.806,447.085 435.5,443.5C 429.721,427.108 418.721,415.775 402.5,409.5C 400.383,407.345 397.716,406.345 394.5,406.5C 393.833,406.5 393.167,406.5 392.5,406.5C 391.737,405.732 390.737,405.232 389.5,405C 324.833,404.333 260.167,404.333 195.5,405C 192.826,405.67 190.493,406.837 188.5,408.5C 183.444,411.223 179.777,415.223 177.5,420.5C 176.076,422.515 175.41,424.848 175.5,427.5C 174.501,536.332 174.167,645.332 174.5,754.5C 149.167,754.5 123.833,754.5 98.5,754.5C 98.5,644.167 98.5,533.833 98.5,423.5C 99.9715,419.081 100.638,414.414 100.5,409.5C 100.5,409.167 100.5,408.833 100.5,408.5C 102.31,405.855 103.31,402.855 103.5,399.5C 103.698,395.908 104.698,392.574 106.5,389.5C 107.906,389.027 108.573,388.027 108.5,386.5C 118.108,364.559 133.775,348.559 155.5,338.5C 163.955,335.683 172.289,332.683 180.5,329.5C 185.215,329.494 189.882,328.994 194.5,328C 260.166,327.5 325.832,327.333 391.5,327.5 Z"/></g>
<g><path style="opacity:1" fill="#a0444b" d="M 593.5,327.5 C 592.502,355.662 592.169,383.995 592.5,412.5C 591.17,383.997 591.17,355.331 592.5,326.5C 593.107,326.624 593.44,326.957 593.5,327.5 Z"/></g>
<g><path style="opacity:1" fill="#ce5255" d="M 980.5,413.5 C 981.158,384.814 980.492,356.48 978.5,328.5C 978.811,327.522 979.478,326.855 980.5,326.5C 981.83,355.664 981.83,384.664 980.5,413.5 Z"/></g>
<g><path style="opacity:1" fill="#4e5866" d="M 402.5,328.5 C 405.518,328.335 408.518,328.502 411.5,329C 412.416,329.278 413.082,329.778 413.5,330.5C 409.64,330.192 405.974,329.525 402.5,328.5 Z"/></g>
<g><path style="opacity:1" fill="#fd6161" d="M 593.5,327.5 C 658.482,372.808 723.482,418.141 788.5,463.5C 851.851,418.475 915.185,373.475 978.5,328.5C 980.492,356.48 981.158,384.814 980.5,413.5C 928.069,450.749 875.736,488.249 823.5,526C 800.583,538.474 777.583,538.474 754.5,526C 700.597,487.914 646.597,450.081 592.5,412.5C 592.169,383.995 592.502,355.662 593.5,327.5 Z"/></g>
<g><path style="opacity:1" fill="#7e8690" d="M 413.5,330.5 C 416.152,330.41 418.485,331.076 420.5,332.5C 417.848,332.59 415.515,331.924 413.5,330.5 Z"/></g>
<g><path style="opacity:1" fill="#a1a7ae" d="M 180.5,329.5 C 172.289,332.683 163.955,335.683 155.5,338.5C 163.254,334.136 171.587,331.136 180.5,329.5 Z"/></g>
<g><path style="opacity:1" fill="#7b838d" d="M 420.5,332.5 C 425.703,333.009 430.37,334.676 434.5,337.5C 429.607,336.204 424.94,334.538 420.5,332.5 Z"/></g>
<g><path style="opacity:1" fill="#7b838d" d="M 108.5,386.5 C 108.573,388.027 107.906,389.027 106.5,389.5C 106.427,387.973 107.094,386.973 108.5,386.5 Z"/></g>
<g><path style="opacity:1" fill="#9298a1" d="M 103.5,399.5 C 103.31,402.855 102.31,405.855 100.5,408.5C 100.528,405.084 101.528,402.084 103.5,399.5 Z"/></g>
<g><path style="opacity:1" fill="#4e5866" d="M 392.5,406.5 C 327.184,405.351 261.851,405.184 196.5,406C 194.091,407.707 191.425,408.54 188.5,408.5C 190.493,406.837 192.826,405.67 195.5,405C 260.167,404.333 324.833,404.333 389.5,405C 390.737,405.232 391.737,405.732 392.5,406.5 Z"/></g>
<g><path style="opacity:1" fill="#818992" d="M 394.5,406.5 C 397.716,406.345 400.383,407.345 402.5,409.5C 399.603,408.871 396.936,407.871 394.5,406.5 Z"/></g>
<g><path style="opacity:1" fill="#899099" d="M 100.5,409.5 C 100.638,414.414 99.9715,419.081 98.5,423.5C 98.3618,418.586 99.0285,413.919 100.5,409.5 Z"/></g>
<g><path style="opacity:1" fill="#5b6572" d="M 177.5,420.5 C 177.59,423.152 176.924,425.485 175.5,427.5C 175.41,424.848 176.076,422.515 177.5,420.5 Z"/></g>
<g><path style="opacity:1" fill="#a9aeb5" d="M 510.5,421.5 C 512.61,425.502 513.943,429.835 514.5,434.5C 512.39,430.498 511.057,426.165 510.5,421.5 Z"/></g>
<g><path style="opacity:1" fill="#404b5a" d="M 435.5,443.5 C 437.806,447.085 439.139,451.085 439.5,455.5C 437.589,451.767 436.256,447.767 435.5,443.5 Z"/></g>
<g><path style="opacity:1" fill="#b1b6bc" d="M 514.5,434.5 C 516.843,441.869 518.343,449.536 519,457.5C 519.667,477.833 519.667,498.167 519,518.5C 518.877,524.414 518.044,530.081 516.5,535.5C 517.606,507.514 517.772,479.514 517,451.5C 515.323,445.951 514.49,440.285 514.5,434.5 Z"/></g>
<g><path style="opacity:1" fill="#3b4656" d="M 440.5,459.5 C 441.317,461.969 441.817,464.635 442,467.5C 442.828,484.005 442.662,500.339 441.5,516.5C 441.691,497.486 441.358,478.486 440.5,459.5 Z"/></g>
<g><path style="opacity:1" fill="#16cfbb" d="M 980.5,667.5 C 981.158,696.186 980.492,724.52 978.5,752.5C 915.203,707.55 851.87,662.55 788.5,617.5C 723.482,662.859 658.482,708.192 593.5,753.5C 592.502,725.338 592.169,697.005 592.5,668.5C 647.471,630.01 702.471,591.51 757.5,553C 767.201,547.825 777.534,545.658 788.5,546.5C 800.952,546.03 812.619,548.863 823.5,555C 875.712,592.719 928.045,630.219 980.5,667.5 Z"/></g>
<g><path style="opacity:1" fill="#9fa5ad" d="M 514.5,547.5 C 514.097,550.486 513.097,553.152 511.5,555.5C 511.603,552.364 512.603,549.698 514.5,547.5 Z"/></g>
<g><path style="opacity:1" fill="#a9aeb5" d="M 205.5,572.5 C 205.5,598.167 205.5,623.833 205.5,649.5C 266.833,649.5 328.167,649.5 389.5,649.5C 328.002,650.499 266.336,650.832 204.5,650.5C 204.169,624.328 204.502,598.328 205.5,572.5 Z"/></g>
<g><path style="opacity:1" fill="#12ab9e" d="M 980.5,667.5 C 981.83,696.336 981.83,725.336 980.5,754.5C 979.478,754.145 978.811,753.478 978.5,752.5C 980.492,724.52 981.158,696.186 980.5,667.5 Z"/></g>
<g><path style="opacity:1" fill="#0f8983" d="M 592.5,668.5 C 592.169,697.005 592.502,725.338 593.5,753.5C 593.44,754.043 593.107,754.376 592.5,754.5C 591.17,725.669 591.17,697.003 592.5,668.5 Z"/></g>
<g><path style="opacity:1" fill="#9a9fa7" d="M 98.5,423.5 C 98.5,533.833 98.5,644.167 98.5,754.5C 123.833,754.5 149.167,754.5 174.5,754.5C 149.005,755.498 123.339,755.831 97.5,755.5C 97.1672,644.665 97.5005,533.999 98.5,423.5 Z"/></g>
</svg>
