<svg width="152" height="183" viewBox="0 0 152 183" fill="none" xmlns="http://www.w3.org/2000/svg">
<path d="M110.059 179H76.5586H42.0586C35.0586 179 26.0586 174 17.0586 167.5C8.05864 161 5.05864 150.5 4.05864 133.5C3.05864 116.5 15.0586 92 24.0586 80C33.0586 68 42.0586 68.5 46.5586 54.5C51.0586 40.5 30.0586 26 30.0586 22.5C30.0586 19 34.5586 13 40.0586 13C44.4586 13 50.892 15 53.5586 16C57.892 12.1667 68.2586 4.5 75.0586 4.5C81.8586 4.5 88.892 10.1667 91.5586 13C94.7253 11 102.059 7 106.059 7C111.059 7 119.559 15.5 119.559 18C119.559 20.5 118.059 23.5 115.559 26C113.059 28.5 106.059 37 108.559 36C111.059 35 118.559 38 121.559 41.5C124.559 45 125.559 51 127.559 54.5C129.559 58 134.559 61 134.559 63C134.559 65 132.059 66.5 132.059 68.5C132.059 70.5 136.059 72.5 136.059 77C136.059 80.6 132.059 83.8333 130.059 85C135.725 91.3333 147.059 110.6 147.059 137C147.059 163.4 122.392 176 110.059 179Z" fill="url(#paint0_linear_16_690)"/>
<path d="M124.5 47L105.5 43.5L99.5 51L117.5 79.5L125.5 84.5L136.5 76.5L124.5 47Z" fill="black" stroke="black"/>
<path d="M49 36.5714C49 39.7714 52.0301 47.0476 53.5452 50.2857L49 52H105.247C105.815 45.7143 106.611 33.0286 105.247 32.5714C103.543 32 96.7248 44.5714 92.1796 44.5714C87.6344 44.5714 96.1567 24 93.3159 24C90.4751 24 81.9528 46.2857 73.4306 46.2857C64.9083 46.2857 56.386 23.4286 55.2497 29.1429C54.1134 34.8571 60.9312 46.2857 59.2267 46.2857C57.5223 46.2857 49 32.5714 49 36.5714Z" fill="#474BA8" stroke="#5370BF"/>
<line x1="76.5" y1="88" x2="76.5" y2="145" stroke="#FEF4D0"/>
<path fill-rule="evenodd" clip-rule="evenodd" d="M106.917 74.5519C104.836 71.4057 103.581 68.0014 103.034 65.7038L111.387 63.7149C111.735 65.1742 112.627 67.6198 114.079 69.8136C115.554 72.0432 117.256 73.4995 119.051 73.978C123.459 75.1537 127.503 72.6935 128.862 71.3338C130.539 69.6571 133.258 69.6571 134.934 71.3338C136.611 73.0105 136.611 75.729 134.934 77.4057C132.358 79.9817 125.31 84.5343 116.838 82.2751C112.192 81.0362 108.975 77.6623 106.917 74.5519Z" fill="url(#paint1_linear_16_690)"/>
<path d="M42.8082 53.287C42.8082 51.5431 44.1963 50.1161 45.9395 50.068L98.7851 48.6111C98.8426 48.6095 98.9 48.6125 98.957 48.6202L108.045 49.8354C108.966 49.9585 109.306 51.1134 108.599 51.7161L97.4384 61.2326C97.2442 61.3983 96.9973 61.4892 96.742 61.4892H46.0283C44.2499 61.4892 42.8082 60.0475 42.8082 58.2691V53.287Z" fill="url(#paint2_linear_16_690)"/>
<path d="M43.8815 52.1948C43.8815 50.6345 45.1344 49.3634 46.6944 49.3408L97.2751 48.6087L104.01 49.0815C105.125 49.1597 105.393 50.6757 104.374 51.132L95.833 54.9553C95.6951 55.017 95.5456 55.049 95.3945 55.049H46.7358C45.1594 55.049 43.8815 53.7711 43.8815 52.1948V52.1948Z" fill="url(#paint3_linear_16_690)"/>
<rect x="107.394" y="50.7555" width="11.8071" height="16.1006" rx="2.14675" transform="rotate(48.1346 107.394 50.7555)" fill="url(#paint4_linear_16_690)"/>
<path fill-rule="evenodd" clip-rule="evenodd" d="M95.0046 55.7521C94.6265 56.0992 94.0737 56.6053 93.5722 56.9563L88.6479 49.9215C88.6277 49.9357 88.6314 49.9325 88.6691 49.8999C88.7325 49.8449 88.8923 49.7066 89.1967 49.4271C89.3275 49.307 89.5067 49.1408 89.7101 48.9521C90.0348 48.651 90.4213 48.2924 90.7721 47.972C92.0344 46.819 93.7054 45.3495 95.6249 43.9503C99.2019 41.3426 104.753 38.1388 110.662 39.2132C114.03 39.8255 116.601 40.8201 118.642 42.3507C120.684 43.8822 121.84 45.6997 122.7 47.1321C123.421 48.3341 123.811 49.6141 124.072 50.5912C124.192 51.0428 124.304 51.5083 124.404 51.9224C124.415 51.9701 124.426 52.0171 124.438 52.0634C124.551 52.533 124.653 52.9538 124.767 53.3649C125.215 54.99 125.72 56.0248 126.642 56.8149C128.095 58.0603 129.144 58.897 129.845 59.4267C130.196 59.6922 130.446 59.8701 130.606 59.9787C130.663 60.0174 130.702 60.0426 130.724 60.0569C132.753 61.1548 133.558 63.6733 132.518 65.7517C131.458 67.8726 128.879 68.7323 126.758 67.6719C126.181 67.3833 125.436 66.8581 124.667 66.2776C123.794 65.6177 122.606 64.6654 121.054 63.3347C118.219 60.9047 117.114 57.9143 116.489 55.6484C116.334 55.0868 116.202 54.5432 116.089 54.0716C116.078 54.026 116.067 53.9812 116.056 53.9371C115.952 53.5046 115.866 53.1458 115.775 52.8037C115.566 52.0198 115.42 51.6898 115.336 51.55C114.586 50.2989 114.131 49.7013 113.49 49.2203C112.847 48.7383 111.662 48.1228 109.126 47.6617C106.985 47.2725 104.039 48.4432 100.683 50.8892C99.1367 52.0167 97.733 53.2438 96.5634 54.3121C96.1942 54.6494 95.9085 54.9148 95.6336 55.1701C95.428 55.3611 95.2285 55.5464 95.0046 55.7521Z" fill="url(#paint5_linear_16_690)"/>
<rect x="76.201" y="77" width="54.0244" height="54.0244" transform="rotate(45 76.201 77)" fill="url(#paint6_linear_16_690)"/>
<rect x="76.201" y="82.6569" width="46.0244" height="46.0244" transform="rotate(45 76.201 82.6569)" stroke="black" stroke-width="8"/>
<path d="M110.059 179H76.5586H42.0586C35.0586 179 26.0586 174 17.0586 167.5C8.05864 161 5.05864 150.5 4.05864 133.5C3.05864 116.5 15.0586 92 24.0586 80C33.0586 68 42.0586 68.5 46.5586 54.5C51.0586 40.5 30.0586 26 30.0586 22.5C30.0586 19 34.5586 13 40.0586 13C44.4586 13 50.892 15 53.5586 16C57.892 12.1667 68.2586 4.5 75.0586 4.5C81.8586 4.5 88.892 10.1667 91.5586 13C94.7253 11 102.059 7 106.059 7C111.059 7 119.559 15.5 119.559 18C119.559 20.5 118.059 23.5 115.559 26C113.059 28.5 106.059 37 108.559 36C111.059 35 118.559 38 121.559 41.5C124.559 45 125.559 51 127.559 54.5C129.559 58 134.559 61 134.559 63C134.559 65 132.059 66.5 132.059 68.5C132.059 70.5 136.059 72.5 136.059 77C136.059 80.6 132.059 83.8333 130.059 85C135.725 91.3333 147.059 110.6 147.059 137C147.059 163.4 122.392 176 110.059 179Z" stroke="black" stroke-width="8"/>
<defs>
<linearGradient id="paint0_linear_16_690" x1="64.5" y1="10" x2="110.5" y2="174.5" gradientUnits="userSpaceOnUse">
<stop offset="0.027427" stop-color="#C2EBEE"/>
<stop offset="0.131276" stop-color="#68CEF5"/>
<stop offset="0.413951" stop-color="#68CEF5"/>
<stop offset="0.57" stop-color="#68A7DF"/>
<stop offset="0.774994" stop-color="#5276C3"/>
<stop offset="0.876938" stop-color="#525EB4"/>
<stop offset="1" stop-color="#474BA8"/>
</linearGradient>
<linearGradient id="paint1_linear_16_690" x1="123.311" y1="67.3928" x2="119.613" y2="82.8854" gradientUnits="userSpaceOnUse">
<stop stop-color="#FAB848"/>
<stop offset="1" stop-color="#9A2A3A"/>
</linearGradient>
<linearGradient id="paint2_linear_16_690" x1="76.3305" y1="51.1848" x2="76.3305" y2="63.0349" gradientUnits="userSpaceOnUse">
<stop stop-color="#FAB848"/>
<stop offset="1" stop-color="#E65341"/>
</linearGradient>
<linearGradient id="paint3_linear_16_690" x1="73.2077" y1="49.1454" x2="73.2077" y2="55.049" gradientUnits="userSpaceOnUse">
<stop stop-color="#E9EB4E"/>
<stop offset="1" stop-color="#FAB848"/>
</linearGradient>
<linearGradient id="paint4_linear_16_690" x1="88.0916" y1="54.6028" x2="131.855" y2="55.6267" gradientUnits="userSpaceOnUse">
<stop stop-color="#E65341"/>
<stop offset="0.52" stop-color="#F5C84B"/>
<stop offset="1" stop-color="#E65341"/>
</linearGradient>
<linearGradient id="paint5_linear_16_690" x1="115.75" y1="44.5879" x2="109.464" y2="67.7624" gradientUnits="userSpaceOnUse">
<stop stop-color="#FAB848"/>
<stop offset="1" stop-color="#9A2A3A"/>
</linearGradient>
<linearGradient id="paint6_linear_16_690" x1="79.948" y1="100.83" x2="126.263" y2="102.598" gradientUnits="userSpaceOnUse">
<stop stop-color="#E9EB4E"/>
<stop offset="0.45" stop-color="#FAB848"/>
<stop offset="1" stop-color="#E65341"/>
</linearGradient>
</defs>
</svg>
