<!DOCTYPE svg PUBLIC "-//W3C//DTD SVG 20010904//EN" "http://www.w3.org/TR/2001/REC-SVG-20010904/DTD/svg10.dtd"> <svg version="1.0" xmlns="http://www.w3.org/2000/svg" width="512.000000pt" height="512.000000pt" viewBox="0 0 512.000000 512.000000" preserveAspectRatio="xMidYMid meet"> <g transform="translate(0.000000,512.000000) scale(0.100000,-0.100000)" fill="#000000" stroke="none"> <path d="M2293 4804 c-761 -92 -1420 -558 -1758 -1243 -550 -1115 -99 -2462 1012 -3019 54 -28 127 -62 161 -75 l62 -26 0 805 c0 442 3 804 8 803 4 0 33 -34 65 -75 31 -41 94 -103 140 -139 506 -401 1252 -179 1457 434 46 135 58 276 37 416 -9 61 -19 120 -23 133 l-6 22 280 0 280 0 13 -72 c7 -40 12 -136 12 -213 -3 -769 -586 -1399 -1355 -1465 -83 -7 -156 -7 -223 0 -55 5 -103 10 -107 10 -5 0 -8 -177 -8 -394 l0 -394 88 -8 c110 -9 328 1 459 21 661 99 1244 482 1594 1046 68 108 169 319 209 434 44 127 85 291 106 425 25 160 25 500 0 660 -72 464 -278 887 -596 1223 -215 227 -494 419 -778 536 l-72 30 0 -800 c0 -439 -4 -799 -8 -799 -4 0 -15 13 -24 28 -33 55 -148 169 -223 221 -94 66 -197 113 -306 143 -117 31 -325 32 -449 1 -354 -89 -615 -364 -691 -728 -18 -85 -16 -285 5 -368 9 -38 16 -72 16 -78 0 -5 -112 -9 -279 -9 l-280 0 -8 48 c-4 26 -8 135 -8 242 0 214 11 289 66 455 159 475 549 840 1033 965 179 46 443 61 564 33 l22 -5 0 390 0 389 -52 7 c-86 10 -314 5 -435 -10z"/> </g> <g transform="translate(0.000000,512.000000) scale(0.100000,-0.100000)" fill="#ffffff" stroke="none"> <path d="M2415 5094 c-461 -35 -864 -168 -1233 -406 -505 -327 -890 -843 -1057 -1419 -71 -243 -99 -448 -99 -714 0 -266 28 -471 99 -714 198 -679 684 -1257 1320 -1566 258 -126 475 -193 756 -236 204 -31 524 -31 728 0 281 43 498 110 756 236 503 245 914 655 1160 1160 126 257 193 475 236 756 26 171 31 505 10 659 -58 429 -187 776 -416 1120 -402 604 -1042 1003 -1776 1105 -106 15 -392 26 -484 19z m328 -290 l37 -7 0 -386 0 -386 -223 0 c-208 0 -229 -2 -329 -27 -199 -51 -325 -107 -493 -219 -198 -132 -363 -322 -478 -547 -98 -192 -140 -341 -157 -555 -8 -109 1 -322 16 -369 5 -17 27 -18 280 -18 213 0 274 3 274 13 0 6 -5 28 -10 47 -22 75 -31 214 -20 310 14 122 33 195 81 298 52 112 110 192 211 288 100 93 213 161 348 206 93 32 99 32 280 32 177 1 189 -1 270 -28 194 -65 324 -154 461 -319 l49 -58 2 793 c3 787 3 793 23 790 35 -6 296 -136 385 -192 468 -293 819 -755 970 -1274 175 -606 95 -1248 -224 -1790 -290 -492 -809 -884 -1358 -1025 -215 -55 -302 -66 -558 -66 l-235 0 -3 391 -2 390 197 0 c218 0 318 15 495 74 427 143 776 496 917 928 61 187 74 278 69 504 -3 106 -8 200 -12 209 -10 23 -75 29 -333 29 -187 0 -223 -2 -223 -14 0 -8 7 -45 16 -83 12 -53 15 -102 11 -218 -6 -174 -18 -228 -86 -370 -176 -370 -582 -580 -984 -510 -232 40 -434 162 -590 355 l-37 45 0 -799 0 -798 -27 7 c-57 13 -332 154 -433 222 -340 226 -613 538 -790 905 -154 320 -219 612 -220 977 0 276 34 485 122 741 276 804 1006 1392 1855 1495 114 14 392 19 456 9z"/> </g> </svg>