<svg width="174" height="57" viewBox="0 0 174 57" fill="none" xmlns="http://www.w3.org/2000/svg">
<path d="M108.272 36.8243V31.6176H118.695C119.293 31.6176 119.839 31.9585 120.102 32.4961L122.216 36.8243H108.272ZM100.641 42.8838L114.662 14.7552C114.927 14.2238 115.47 13.8879 116.063 13.8879H121.401C121.993 13.8879 122.534 14.2215 122.8 14.75L136.954 42.8838H130.62C130.019 42.8838 129.471 42.5399 129.21 41.9988L117.025 16.7606H120.436L108.339 41.9948C108.079 42.5381 107.53 42.8838 106.927 42.8838H100.641Z" fill="white"/>
<path d="M91.6794 15.055C89.4352 14.2769 86.6224 13.8879 83.241 13.8879H67.4265C65.7739 13.8879 64.4341 15.2277 64.4341 16.8803V32.7397H69.5563C70.421 32.7397 71.122 32.0387 71.122 31.1739V19.5435H83.0615C85.1561 19.5435 86.8917 19.7829 88.2682 20.2616C89.6446 20.7105 90.7368 21.3389 91.5448 22.1468C92.3826 22.9547 92.9811 23.8824 93.3402 24.9297C93.6992 25.977 93.8788 27.0991 93.8788 28.2961C93.8788 29.4631 93.6992 30.5852 93.3402 31.6625C92.9811 32.7397 92.3826 33.6972 91.5448 34.5351C90.7368 35.373 89.6446 36.0313 88.2682 36.5101C86.8917 36.9888 85.1561 37.2282 83.0615 37.2282L64.4341 37.2282V41.318C64.4341 42.1827 65.1352 42.8837 65.9999 42.8837H83.241C86.4428 42.8837 89.1509 42.4947 91.3652 41.7167C93.6095 40.9088 95.4198 39.8316 96.7963 38.485C98.1728 37.1085 99.1603 35.5525 99.7587 33.8169C100.387 32.0515 100.701 30.2112 100.701 28.2961C100.701 26.381 100.417 24.5556 99.8485 22.8201C99.3099 21.0845 98.3673 19.5584 97.0207 18.2418C95.7041 16.8952 93.9237 15.833 91.6794 15.055Z" fill="white"/>
<path d="M146.008 15.055C148.252 14.2769 151.065 13.8879 154.447 13.8879H170.261C171.914 13.8879 173.253 15.2277 173.253 16.8803V19.5873L166.566 19.5435H154.626C152.531 19.5435 150.796 19.7829 149.419 20.2616C148.043 20.7105 146.951 21.3389 146.143 22.1468C145.305 22.9547 144.706 23.8824 144.347 24.9297C143.988 25.977 143.809 27.0991 143.809 28.2961C143.809 29.4631 143.988 30.5852 144.347 31.6625C144.706 32.7397 145.305 33.6972 146.143 34.5351C146.951 35.373 148.043 36.0313 149.419 36.5101C150.796 36.9888 152.531 37.2282 154.626 37.2282L173.253 37.2282V39.7917C173.253 41.4994 171.869 42.8837 170.161 42.8837H154.447C151.245 42.8837 148.537 42.4947 146.322 41.7167C144.078 40.9088 142.268 39.8316 140.891 38.485C139.515 37.1085 138.527 35.5525 137.929 33.8169C137.3 32.0515 136.986 30.2112 136.986 28.2961C136.986 26.381 137.271 24.5556 137.839 22.8201C138.378 21.0845 139.32 19.5584 140.667 18.2418C141.983 16.8952 143.764 15.833 146.008 15.055Z" fill="white"/>
<mask id="path-2-outside-1_6894_27" maskUnits="userSpaceOnUse" x="0" y="0" width="57" height="57" fill="black">
<rect fill="white" width="57" height="57"/>
<path fill-rule="evenodd" clip-rule="evenodd" d="M28.4008 1C27.3401 1 26.3804 1.63315 25.9632 2.60897L18.9541 18.9542L2.60897 25.9632C1.63315 26.3804 1 27.3401 1 28.4008C1 29.4615 1.63315 30.4212 2.60897 30.8384L18.9541 37.8475L25.9632 54.1926C26.3804 55.1685 27.3401 55.8016 28.4008 55.8016C29.4615 55.8016 30.4212 55.1685 30.8384 54.1926L37.8474 37.8475L54.1926 30.8384C55.1684 30.4212 55.8016 29.4615 55.8016 28.4008C55.8016 27.3401 55.1684 26.3804 54.1926 25.9632L37.8474 18.9542L30.8384 2.60897C30.4212 1.63315 29.4615 1 28.4008 1ZM11.1303 8.25762C10.3628 8.19133 9.58628 8.46197 9.02412 9.02413C8.27458 9.77367 8.04117 10.8966 8.43716 11.883L11.0819 18.4846L16.261 16.261L18.4846 11.0819L11.883 8.43716C11.6364 8.33817 11.3861 8.27972 11.1303 8.25762ZM45.6713 8.25762C45.4155 8.27972 45.1652 8.33817 44.9186 8.43716L38.317 11.0819L40.5406 16.261L45.7196 18.4846L48.3644 11.883C48.7604 10.8966 48.527 9.77367 47.7775 9.02413C47.2153 8.46197 46.4388 8.19133 45.6713 8.25762ZM11.0819 38.317L8.43716 44.9186C8.04117 45.9051 8.27458 47.0279 9.02412 47.7775C9.77367 48.527 10.8965 48.7604 11.883 48.3644L18.4846 45.7197L16.261 40.5406L11.0819 38.317ZM45.7196 38.317L40.5406 40.5406L38.317 45.7197L44.9186 48.3644C45.905 48.7604 47.0279 48.527 47.7775 47.7775C48.527 47.0279 48.7604 45.9051 48.3644 44.9186L45.7196 38.317Z"/>
<path fill-rule="evenodd" clip-rule="evenodd" d="M33.3922 31.3747C33.2103 31.41 33.0607 31.5153 33.1749 31.7551C33.2571 31.9279 33.3586 32.0454 33.3799 32.0662C33.533 32.2156 33.8693 32.6085 33.8284 32.8556C33.7917 33.0771 33.4491 33.1973 33.2202 33.2647C31.8233 33.6759 30.4503 33.358 30.3055 33.3229C29.7509 33.1882 29.1373 33.0393 28.4505 32.5902C27.5214 31.9827 26.6018 30.9197 26.8355 30.4926C26.8911 30.391 26.9923 30.3615 28.336 30.2385C29.3467 30.1458 29.9108 30.107 29.944 29.9063C29.9522 29.8566 29.9296 29.799 29.8673 29.7328C29.5283 29.3721 29.2204 29.0552 28.8706 28.6766C28.5434 28.3224 28.1969 27.876 27.913 27.4657C27.8735 27.4087 27.8186 27.3633 27.7431 27.356C26.4755 27.2327 26.0363 27.0464 25.2719 26.0689C24.0106 24.4558 24.4033 21.7806 26.3199 20.9761C26.4829 20.9077 26.5971 20.8805 26.7481 20.8147C26.7993 20.7925 26.8275 20.7699 26.8382 20.7136C27.0528 19.5899 27.5302 18.7182 28.447 18.022C28.5987 17.9067 28.7536 17.7955 28.9086 17.6846C29.0383 17.5918 29.231 17.5327 29.3331 17.4066C29.3781 17.351 29.3896 17.3123 29.3792 17.2846C29.3508 17.2093 29.1791 17.2065 29.1186 17.2057C26.4218 17.1738 24.0987 18.9242 24.0968 18.9256C22.3954 20.2079 21.1463 22.0827 20.6345 24.1658C19.5222 28.6932 22.3161 33.6221 26.3533 35.608C30.2538 37.5264 35.0929 36.6055 37.8845 33.2036C38.3695 32.6127 38.7628 31.9522 39.082 31.2562C39.1123 31.19 39.171 31.0504 39.1237 30.9923C39.0602 30.9146 38.9302 31.0073 38.8573 31.034C37.7138 31.4519 36.4703 31.4672 35.2693 31.4288C34.8216 31.4144 34.3742 31.3908 33.9264 31.3728C33.8118 31.3681 33.6972 31.3639 33.5825 31.3603C33.5216 31.3584 33.4549 31.3623 33.3922 31.3744V31.3747Z"/>
<path d="M29.7063 23.1968C30.2343 24.6713 29.6571 26.2631 28.3171 26.6704C27.1968 27.0099 25.9442 26.3218 25.363 25.1178C25.0861 24.5464 24.99 23.945 25.0437 23.3964C25.0813 23.0133 25.4002 22.7796 25.7205 22.9045L26.4836 23.201C26.5444 23.2243 26.5882 23.2896 26.591 23.3628C26.6016 23.6227 26.6748 23.8928 26.821 24.1507C27.1511 24.7275 27.7848 25.0389 28.347 24.8815C28.976 24.7048 29.3042 24.0545 29.2071 23.3745C29.1967 23.3054 29.231 23.2436 29.2862 23.2179L29.5274 23.1058C29.5943 23.0747 29.6786 23.1172 29.7065 23.1969L29.7063 23.1968Z"/>
<path d="M33.8183 26.7079C34.9466 27.9595 37.2417 28.3088 38.2182 27.1715C39.1947 26.0342 38.7582 24.1808 37.6299 22.9288C36.5016 21.6772 34.7951 21.5845 33.8181 22.722C32.8415 23.8593 32.69 25.4563 33.8182 26.708L33.8183 26.7079ZM34.6388 24.9002L35.7544 23.6011C35.8097 23.5362 35.91 23.5518 35.9631 23.6337C36.1199 23.8737 36.3068 24.2127 36.4507 24.6431C36.538 24.9048 36.5918 25.1472 36.6244 25.3601C36.6693 25.6516 36.4629 25.8822 36.2057 25.8274C36.0291 25.7896 35.8341 25.7348 35.6254 25.6544C35.2385 25.5053 34.9205 25.314 34.6794 25.1422C34.6011 25.0865 34.5808 24.9677 34.6389 24.9003L34.6388 24.9002Z"/>
</mask>
<path fill-rule="evenodd" clip-rule="evenodd" d="M28.4008 1C27.3401 1 26.3804 1.63315 25.9632 2.60897L18.9541 18.9542L2.60897 25.9632C1.63315 26.3804 1 27.3401 1 28.4008C1 29.4615 1.63315 30.4212 2.60897 30.8384L18.9541 37.8475L25.9632 54.1926C26.3804 55.1685 27.3401 55.8016 28.4008 55.8016C29.4615 55.8016 30.4212 55.1685 30.8384 54.1926L37.8474 37.8475L54.1926 30.8384C55.1684 30.4212 55.8016 29.4615 55.8016 28.4008C55.8016 27.3401 55.1684 26.3804 54.1926 25.9632L37.8474 18.9542L30.8384 2.60897C30.4212 1.63315 29.4615 1 28.4008 1ZM11.1303 8.25762C10.3628 8.19133 9.58628 8.46197 9.02412 9.02413C8.27458 9.77367 8.04117 10.8966 8.43716 11.883L11.0819 18.4846L16.261 16.261L18.4846 11.0819L11.883 8.43716C11.6364 8.33817 11.3861 8.27972 11.1303 8.25762ZM45.6713 8.25762C45.4155 8.27972 45.1652 8.33817 44.9186 8.43716L38.317 11.0819L40.5406 16.261L45.7196 18.4846L48.3644 11.883C48.7604 10.8966 48.527 9.77367 47.7775 9.02413C47.2153 8.46197 46.4388 8.19133 45.6713 8.25762ZM11.0819 38.317L8.43716 44.9186C8.04117 45.9051 8.27458 47.0279 9.02412 47.7775C9.77367 48.527 10.8965 48.7604 11.883 48.3644L18.4846 45.7197L16.261 40.5406L11.0819 38.317ZM45.7196 38.317L40.5406 40.5406L38.317 45.7197L44.9186 48.3644C45.905 48.7604 47.0279 48.527 47.7775 47.7775C48.527 47.0279 48.7604 45.9051 48.3644 44.9186L45.7196 38.317Z" fill="url(#paint0_radial_6894_27)"/>
<path fill-rule="evenodd" clip-rule="evenodd" d="M33.3922 31.3747C33.2103 31.41 33.0607 31.5153 33.1749 31.7551C33.2571 31.9279 33.3586 32.0454 33.3799 32.0662C33.533 32.2156 33.8693 32.6085 33.8284 32.8556C33.7917 33.0771 33.4491 33.1973 33.2202 33.2647C31.8233 33.6759 30.4503 33.358 30.3055 33.3229C29.7509 33.1882 29.1373 33.0393 28.4505 32.5902C27.5214 31.9827 26.6018 30.9197 26.8355 30.4926C26.8911 30.391 26.9923 30.3615 28.336 30.2385C29.3467 30.1458 29.9108 30.107 29.944 29.9063C29.9522 29.8566 29.9296 29.799 29.8673 29.7328C29.5283 29.3721 29.2204 29.0552 28.8706 28.6766C28.5434 28.3224 28.1969 27.876 27.913 27.4657C27.8735 27.4087 27.8186 27.3633 27.7431 27.356C26.4755 27.2327 26.0363 27.0464 25.2719 26.0689C24.0106 24.4558 24.4033 21.7806 26.3199 20.9761C26.4829 20.9077 26.5971 20.8805 26.7481 20.8147C26.7993 20.7925 26.8275 20.7699 26.8382 20.7136C27.0528 19.5899 27.5302 18.7182 28.447 18.022C28.5987 17.9067 28.7536 17.7955 28.9086 17.6846C29.0383 17.5918 29.231 17.5327 29.3331 17.4066C29.3781 17.351 29.3896 17.3123 29.3792 17.2846C29.3508 17.2093 29.1791 17.2065 29.1186 17.2057C26.4218 17.1738 24.0987 18.9242 24.0968 18.9256C22.3954 20.2079 21.1463 22.0827 20.6345 24.1658C19.5222 28.6932 22.3161 33.6221 26.3533 35.608C30.2538 37.5264 35.0929 36.6055 37.8845 33.2036C38.3695 32.6127 38.7628 31.9522 39.082 31.2562C39.1123 31.19 39.171 31.0504 39.1237 30.9923C39.0602 30.9146 38.9302 31.0073 38.8573 31.034C37.7138 31.4519 36.4703 31.4672 35.2693 31.4288C34.8216 31.4144 34.3742 31.3908 33.9264 31.3728C33.8118 31.3681 33.6972 31.3639 33.5825 31.3603C33.5216 31.3584 33.4549 31.3623 33.3922 31.3744V31.3747Z" fill="white"/>
<path d="M29.7063 23.1968C30.2343 24.6713 29.6571 26.2631 28.3171 26.6704C27.1968 27.0099 25.9442 26.3218 25.363 25.1178C25.0861 24.5464 24.99 23.945 25.0437 23.3964C25.0813 23.0133 25.4002 22.7796 25.7205 22.9045L26.4836 23.201C26.5444 23.2243 26.5882 23.2896 26.591 23.3628C26.6016 23.6227 26.6748 23.8928 26.821 24.1507C27.1511 24.7275 27.7848 25.0389 28.347 24.8815C28.976 24.7048 29.3042 24.0545 29.2071 23.3745C29.1967 23.3054 29.231 23.2436 29.2862 23.2179L29.5274 23.1058C29.5943 23.0747 29.6786 23.1172 29.7065 23.1969L29.7063 23.1968Z" fill="white"/>
<path d="M33.8183 26.7079C34.9466 27.9595 37.2417 28.3088 38.2182 27.1715C39.1947 26.0342 38.7582 24.1808 37.6299 22.9288C36.5016 21.6772 34.7951 21.5845 33.8181 22.722C32.8415 23.8593 32.69 25.4563 33.8182 26.708L33.8183 26.7079ZM34.6388 24.9002L35.7544 23.6011C35.8097 23.5362 35.91 23.5518 35.9631 23.6337C36.1199 23.8737 36.3068 24.2127 36.4507 24.6431C36.538 24.9048 36.5918 25.1472 36.6244 25.3601C36.6693 25.6516 36.4629 25.8822 36.2057 25.8274C36.0291 25.7896 35.8341 25.7348 35.6254 25.6544C35.2385 25.5053 34.9205 25.314 34.6794 25.1422C34.6011 25.0865 34.5808 24.9677 34.6389 24.9003L34.6388 24.9002Z" fill="white"/>
<path fill-rule="evenodd" clip-rule="evenodd" d="M28.4008 1C27.3401 1 26.3804 1.63315 25.9632 2.60897L18.9541 18.9542L2.60897 25.9632C1.63315 26.3804 1 27.3401 1 28.4008C1 29.4615 1.63315 30.4212 2.60897 30.8384L18.9541 37.8475L25.9632 54.1926C26.3804 55.1685 27.3401 55.8016 28.4008 55.8016C29.4615 55.8016 30.4212 55.1685 30.8384 54.1926L37.8474 37.8475L54.1926 30.8384C55.1684 30.4212 55.8016 29.4615 55.8016 28.4008C55.8016 27.3401 55.1684 26.3804 54.1926 25.9632L37.8474 18.9542L30.8384 2.60897C30.4212 1.63315 29.4615 1 28.4008 1ZM11.1303 8.25762C10.3628 8.19133 9.58628 8.46197 9.02412 9.02413C8.27458 9.77367 8.04117 10.8966 8.43716 11.883L11.0819 18.4846L16.261 16.261L18.4846 11.0819L11.883 8.43716C11.6364 8.33817 11.3861 8.27972 11.1303 8.25762ZM45.6713 8.25762C45.4155 8.27972 45.1652 8.33817 44.9186 8.43716L38.317 11.0819L40.5406 16.261L45.7196 18.4846L48.3644 11.883C48.7604 10.8966 48.527 9.77367 47.7775 9.02413C47.2153 8.46197 46.4388 8.19133 45.6713 8.25762ZM11.0819 38.317L8.43716 44.9186C8.04117 45.9051 8.27458 47.0279 9.02412 47.7775C9.77367 48.527 10.8965 48.7604 11.883 48.3644L18.4846 45.7197L16.261 40.5406L11.0819 38.317ZM45.7196 38.317L40.5406 40.5406L38.317 45.7197L44.9186 48.3644C45.905 48.7604 47.0279 48.527 47.7775 47.7775C48.527 47.0279 48.7604 45.9051 48.3644 44.9186L45.7196 38.317Z" stroke="white" stroke-opacity="0.5" stroke-width="2" mask="url(#path-2-outside-1_6894_27)"/>
<path fill-rule="evenodd" clip-rule="evenodd" d="M33.3922 31.3747C33.2103 31.41 33.0607 31.5153 33.1749 31.7551C33.2571 31.9279 33.3586 32.0454 33.3799 32.0662C33.533 32.2156 33.8693 32.6085 33.8284 32.8556C33.7917 33.0771 33.4491 33.1973 33.2202 33.2647C31.8233 33.6759 30.4503 33.358 30.3055 33.3229C29.7509 33.1882 29.1373 33.0393 28.4505 32.5902C27.5214 31.9827 26.6018 30.9197 26.8355 30.4926C26.8911 30.391 26.9923 30.3615 28.336 30.2385C29.3467 30.1458 29.9108 30.107 29.944 29.9063C29.9522 29.8566 29.9296 29.799 29.8673 29.7328C29.5283 29.3721 29.2204 29.0552 28.8706 28.6766C28.5434 28.3224 28.1969 27.876 27.913 27.4657C27.8735 27.4087 27.8186 27.3633 27.7431 27.356C26.4755 27.2327 26.0363 27.0464 25.2719 26.0689C24.0106 24.4558 24.4033 21.7806 26.3199 20.9761C26.4829 20.9077 26.5971 20.8805 26.7481 20.8147C26.7993 20.7925 26.8275 20.7699 26.8382 20.7136C27.0528 19.5899 27.5302 18.7182 28.447 18.022C28.5987 17.9067 28.7536 17.7955 28.9086 17.6846C29.0383 17.5918 29.231 17.5327 29.3331 17.4066C29.3781 17.351 29.3896 17.3123 29.3792 17.2846C29.3508 17.2093 29.1791 17.2065 29.1186 17.2057C26.4218 17.1738 24.0987 18.9242 24.0968 18.9256C22.3954 20.2079 21.1463 22.0827 20.6345 24.1658C19.5222 28.6932 22.3161 33.6221 26.3533 35.608C30.2538 37.5264 35.0929 36.6055 37.8845 33.2036C38.3695 32.6127 38.7628 31.9522 39.082 31.2562C39.1123 31.19 39.171 31.0504 39.1237 30.9923C39.0602 30.9146 38.9302 31.0073 38.8573 31.034C37.7138 31.4519 36.4703 31.4672 35.2693 31.4288C34.8216 31.4144 34.3742 31.3908 33.9264 31.3728C33.8118 31.3681 33.6972 31.3639 33.5825 31.3603C33.5216 31.3584 33.4549 31.3623 33.3922 31.3744V31.3747Z" stroke="white" stroke-opacity="0.5" stroke-width="2" mask="url(#path-2-outside-1_6894_27)"/>
<path d="M29.7063 23.1968C30.2343 24.6713 29.6571 26.2631 28.3171 26.6704C27.1968 27.0099 25.9442 26.3218 25.363 25.1178C25.0861 24.5464 24.99 23.945 25.0437 23.3964C25.0813 23.0133 25.4002 22.7796 25.7205 22.9045L26.4836 23.201C26.5444 23.2243 26.5882 23.2896 26.591 23.3628C26.6016 23.6227 26.6748 23.8928 26.821 24.1507C27.1511 24.7275 27.7848 25.0389 28.347 24.8815C28.976 24.7048 29.3042 24.0545 29.2071 23.3745C29.1967 23.3054 29.231 23.2436 29.2862 23.2179L29.5274 23.1058C29.5943 23.0747 29.6786 23.1172 29.7065 23.1969L29.7063 23.1968Z" stroke="white" stroke-opacity="0.5" stroke-width="2" mask="url(#path-2-outside-1_6894_27)"/>
<path d="M33.8183 26.7079C34.9466 27.9595 37.2417 28.3088 38.2182 27.1715C39.1947 26.0342 38.7582 24.1808 37.6299 22.9288C36.5016 21.6772 34.7951 21.5845 33.8181 22.722C32.8415 23.8593 32.69 25.4563 33.8182 26.708L33.8183 26.7079ZM34.6388 24.9002L35.7544 23.6011C35.8097 23.5362 35.91 23.5518 35.9631 23.6337C36.1199 23.8737 36.3068 24.2127 36.4507 24.6431C36.538 24.9048 36.5918 25.1472 36.6244 25.3601C36.6693 25.6516 36.4629 25.8822 36.2057 25.8274C36.0291 25.7896 35.8341 25.7348 35.6254 25.6544C35.2385 25.5053 34.9205 25.314 34.6794 25.1422C34.6011 25.0865 34.5808 24.9677 34.6389 24.9003L34.6388 24.9002Z" stroke="white" stroke-opacity="0.5" stroke-width="2" mask="url(#path-2-outside-1_6894_27)"/>
<defs>
<radialGradient id="paint0_radial_6894_27" cx="0" cy="0" r="1" gradientUnits="userSpaceOnUse" gradientTransform="translate(28.4008 28.4008) rotate(-90) scale(27.4008 27.4008)">
<stop stop-color="#BF88F5"/>
<stop offset="0.45" stop-color="#5365BD"/>
<stop offset="0.9" stop-color="#34B9AC"/>
<stop offset="1" stop-color="#2CDEA3"/>
</radialGradient>
</defs>
</svg>
