<svg width="512" height="512" viewBox="-1.6 -1.6 35.2 35.2" fill="none" xmlns="http://www.w3.org/2000/svg">
<circle cx="16" cy="16" r="15" transform="rotate(-90 16 16)" stroke="url(#paint0_linear_446_30)" stroke-width="2"/>
<circle cx="15.9538" cy="15.9172" r="15.1467" fill="#111111"/>
<path d="M13.7329 4.97852C8.60656 6.0276 4.75049 10.5635 4.75049 16C4.75056 21.4364 8.60658 25.9724 13.7329 27.0215V27.7842C8.18983 26.724 4.00056 21.8521 4.00049 16C4.00049 10.1478 8.18971 5.27498 13.7329 4.21484V4.97852ZM18.2671 4.21484C23.8106 5.27472 28.0005 10.1476 28.0005 16C28.0004 21.8523 23.8105 26.7243 18.2671 27.7842V27.0215C23.3937 25.9727 27.2504 21.4367 27.2505 16C27.2505 10.5632 23.3939 6.02631 18.2671 4.97754V4.21484Z" fill="url(#paint1_linear_446_30)"/>
<path d="M19.1913 16.2991C20.0229 16.0848 20.68 15.4752 20.9294 14.2164C21.2722 12.4969 20.1798 11.5731 18.6424 10.9574L19.3118 8.62799L18.0849 8.27522L17.4325 10.5432C17.1096 10.4504 16.7785 10.3631 16.4487 10.2765L17.1048 7.99373L15.879 7.64115L15.2092 9.96986C14.9417 9.89975 14.6791 9.8307 14.4244 9.75745L14.4264 9.75056L12.7343 9.26319L12.2992 10.7773C12.2992 10.7773 13.2109 11.0182 13.1905 11.033C13.6871 11.1762 13.7535 11.5563 13.7174 11.8576L12.9548 14.5113L11.883 18.2387C11.8092 18.4131 11.6342 18.6753 11.2867 18.5759C11.2978 18.5965 10.3942 18.3191 10.3942 18.3191L9.66405 19.9422L11.2604 20.4012C11.5578 20.4872 11.8485 20.5765 12.1345 20.6616L11.4582 23.0177L12.6836 23.3704L13.3535 21.0393C13.6883 21.1442 14.0128 21.2412 14.3308 21.3321L13.6634 23.6521L14.8902 24.0049L15.5671 21.6533C17.6688 22.1094 19.2852 21.924 20.1084 19.7369C20.7713 17.9761 20.2687 16.9606 19.1913 16.2991ZM15.9988 11.9517C16.6907 12.1507 18.9402 12.5217 18.4601 14.1926C17.9992 15.7944 15.8775 14.9817 15.1848 14.7826L15.9988 11.9517ZM13.8759 19.3328L14.7739 16.2117C15.6054 16.4505 18.2924 16.924 17.7647 18.7605C17.2587 20.5218 14.708 19.5713 13.8759 19.3328Z" fill="url(#paint2_linear_446_30)"/>
<defs>
<linearGradient id="paint0_linear_446_30" x1="-4.26667" y1="16.2133" x2="36.0533" y2="15.5733" gradientUnits="userSpaceOnUse">
<stop stop-color="#707070"/>
<stop offset="0.5" stop-color="white"/>
<stop offset="1" stop-color="#707070"/>
</linearGradient>
<linearGradient id="paint1_linear_446_30" x1="16.0005" y1="3.98134" x2="16.0005" y2="28.0188" gradientUnits="userSpaceOnUse">
<stop stop-color="white"/>
<stop offset="1" stop-color="#707070"/>
</linearGradient>
<linearGradient id="paint2_linear_446_30" x1="23.0988" y1="17.4464" x2="9.31247" y2="11.7719" gradientUnits="userSpaceOnUse">
<stop stop-color="#707070"/>
<stop offset="0.5" stop-color="white"/>
<stop offset="1" stop-color="#707070"/>
</linearGradient>
</defs>
</svg>