<svg xmlns="http://www.w3.org/2000/svg" width="40" height="40" viewBox="0 0 40 40"><circle cx="20" cy="20" r="20" fill="#d9e4ee"/><rect x="6" y="6" width="28" height="28" rx="7.9799999999999995" ry="7.9799999999999995" fill="#004890"/><g transform="translate(11.32, 13.0448)"><svg width="17.36" height="13.9104" viewBox="0 0 1550 1242" xmlns="http://www.w3.org/2000/svg">
	<title xmlns="http://www.w3.org/2000/svg">AOSL_BIG</title>
	
	<path xmlns="http://www.w3.org/2000/svg" class="s0" d="m926.1 529.8l108.3-331.8-91.1 5.5c-28.6 3.3-42.1 9.5-57.5 22.7-126.3 118.7-496 449-631.8 567.6h130c33.6-43.2 141.3-154.5 171.3-188.6 0 0 42.8-18.7 86.4-23.1 40.2-10.6 197.6-9.1 197.6-9.1l-249.6 668.3h124.1l199.1-667.2c0 0 229.9-14.3 269 2.6l29.7-67.8c-36.3 20.5-285.5 20.9-285.5 20.9zm-66.6 0l-169.2 8.8c-24.1 0-47.5-9.9-40.2-18 57.5-61.1 156.6-151.2 241.9-234.3 7.4-7.3 51.3-43.2 78.7-44z" fill="#ffffff"/>
	<path xmlns="http://www.w3.org/2000/svg" class="s0" d="m0 0.7v793.5h254c-66.6-60.8-72.1-158.2 1.1-256.4 136.2-181.9 488.7-328.8 788.1-328.1 299.4 0.8 431.6 149.1 295.8 330.7-73.6 98.1-210.1 193-367.5 253.4h577.9v-793.1z" fill="#ffffff"/>
</svg></g></svg>