<svg width="32" height="32" viewBox="0 0 32 32" fill="none" xmlns="http://www.w3.org/2000/svg">
<rect width="32" height="32" rx="16" fill="#010304"/>
<path d="M24.8306 18.3555C24.3097 20.2993 23.1624 22.017 21.5659 23.2422C20.3354 24.1864 18.8905 24.7958 17.3716 25.0264V27.8857H14.6284V25.0264C13.1094 24.7958 11.6647 24.1865 10.4341 23.2422C8.8375 22.017 7.68933 20.2994 7.16846 18.3555L9.81787 17.6455C10.1825 19.0063 10.9863 20.2088 12.104 21.0664C13.2216 21.924 14.5908 22.3886 15.9995 22.3887C17.4083 22.3887 18.7783 21.924 19.896 21.0664C21.0136 20.2088 21.8165 19.0062 22.1812 17.6455L24.8306 18.3555Z" fill="#26DDF9"/>
<path d="M16.8198 12.0654C17.219 12.1098 17.5781 12.2311 17.896 12.4307C18.214 12.6303 18.4694 12.8934 18.6616 13.2188C18.8537 13.544 18.954 13.932 18.9614 14.3828H17.4194C17.3898 14.1611 17.3117 13.9836 17.186 13.8506C17.0604 13.7102 16.8939 13.6066 16.687 13.54C16.4801 13.4662 16.2474 13.4297 15.9888 13.4297C15.7744 13.4223 15.5672 13.4444 15.3677 13.4961C15.1754 13.5479 15.0158 13.6327 14.8901 13.751C14.7646 13.8618 14.7017 14.0207 14.7017 14.2275C14.7017 14.3754 14.739 14.5053 14.813 14.6162C14.8868 14.7195 14.9864 14.808 15.1118 14.8818C15.2449 14.9484 15.3935 15.0112 15.5562 15.0703C15.7853 15.1516 16.0442 15.2221 16.3325 15.2812C16.6207 15.333 16.8831 15.3958 17.1196 15.4697C17.5337 15.5732 17.8926 15.7031 18.1958 15.8584C18.4988 16.0063 18.7314 16.2134 18.894 16.4795C19.0641 16.7383 19.1499 17.0895 19.1499 17.5332C19.1499 18.0433 19.042 18.4719 18.8276 18.8193C18.6206 19.1594 18.3364 19.4226 17.9741 19.6074C17.6193 19.7922 17.2161 19.9101 16.7651 19.9619V21.5039H15.312V19.9287C14.898 19.8548 14.5136 19.7215 14.1587 19.5293C13.8112 19.337 13.5184 19.0749 13.2817 18.7422C13.0526 18.4095 12.9083 18.0029 12.8491 17.5225H14.4575C14.5314 17.7736 14.6573 17.9767 14.8345 18.1318C15.0119 18.2871 15.2233 18.3983 15.4673 18.4648C15.7186 18.524 15.9742 18.5537 16.2329 18.5537C16.4767 18.5537 16.6984 18.524 16.8979 18.4648C17.0975 18.4057 17.2562 18.3131 17.3745 18.1875C17.4928 18.0619 17.5522 17.903 17.5522 17.7109C17.5522 17.5409 17.5082 17.4033 17.4194 17.2998C17.3382 17.1964 17.2233 17.1158 17.0757 17.0566C16.9353 16.9901 16.7798 16.934 16.6099 16.8896C16.2994 16.8083 16.0108 16.7422 15.7446 16.6904C15.4858 16.6313 15.2414 16.5719 15.0122 16.5127C14.7904 16.4462 14.5833 16.3647 14.3911 16.2686C13.9993 16.0911 13.6853 15.8543 13.4487 15.5586C13.2195 15.2555 13.105 14.8269 13.105 14.2725C13.105 13.7992 13.2085 13.4072 13.4155 13.0967C13.63 12.7787 13.9108 12.5343 14.2583 12.3643C14.6057 12.1869 14.9716 12.08 15.356 12.043V10.4902H16.8198V12.0654Z" fill="#26DDF9"/>
<path d="M17.3716 6.96191C18.8906 7.19242 20.3353 7.80275 21.5659 8.74707C23.1625 9.97225 24.3107 11.6899 24.8315 13.6338L22.1821 14.3438C21.8175 12.983 21.0137 11.7805 19.896 10.9229C18.7784 10.0653 17.4092 9.60066 16.0005 9.60059C14.5917 9.60059 13.2217 10.0652 12.104 10.9229C10.9864 11.7805 10.1835 12.983 9.81885 14.3438L7.16943 13.6338C7.69028 11.69 8.83763 9.97224 10.4341 8.74707C11.6647 7.80281 13.1095 7.19245 14.6284 6.96191V4.11426H17.3716V6.96191Z" fill="#26DDF9"/>
</svg>
