<svg width="24" height="24" viewBox="0 0 24 24" fill="none" xmlns="http://www.w3.org/2000/svg">
<g clip-path="url(#clip0_19871_22392)">
<g clip-path="url(#clip1_19871_22392)">
<circle cx="12" cy="12" r="12" fill="#89775C"/>
<circle cx="12.0004" cy="11.9999" r="11.6" fill="#FBF9F2"/>
<path d="M11.9998 0C5.38316 0 0 5.38316 0 12.0002C0 18.6168 5.38316 24 11.9998 24C18.6164 24 23.9996 18.6168 23.9996 12.0002C23.9996 5.38316 18.6164 0 11.9998 0ZM11.9998 23.2002C5.82381 23.2002 0.799822 18.1762 0.799822 12.0002C0.799822 5.82463 5.82381 0.800233 11.9998 0.800233C18.1758 0.800233 23.1998 5.82463 23.1998 12.0002C23.1998 18.1762 18.1758 23.2002 11.9998 23.2002Z" fill="#89775C"/>
<path d="M11.9997 1.46631C6.18246 1.46631 1.46582 6.18254 1.46582 12.0002C1.46582 17.8174 6.18246 22.534 11.9997 22.534C17.8169 22.534 22.5336 17.8174 22.5336 12.0002C22.5336 6.18254 17.8169 1.46631 11.9997 1.46631ZM12.8781 17.9737V19.9647H10.9653V18.1099C9.65741 18.0519 8.38856 17.701 7.64716 17.271L8.23262 14.9872C9.05261 15.436 10.2042 15.8454 11.4731 15.8454C12.5856 15.8454 13.3471 15.4167 13.3471 14.6358C13.3471 13.894 12.7226 13.4262 11.278 12.937C9.18961 12.2347 7.76442 11.2588 7.76442 9.36537C7.76442 7.64765 8.97485 6.30062 11.0641 5.89084V4.03652H12.9764V5.75465C14.284 5.81308 15.1624 6.08627 15.8071 6.39854L15.2405 8.60422C14.7336 8.38946 13.8351 7.94059 12.43 7.94059C11.1612 7.94059 10.751 8.48697 10.751 9.03335C10.751 9.67765 11.434 10.0874 13.0933 10.7124C15.4162 11.5324 16.3534 12.6058 16.3534 14.3626C16.3526 16.0993 15.1229 17.5825 12.8781 17.9737Z" fill="#89775C"/>
</g>
</g>
<defs>
<clipPath id="clip0_19871_22392">
<rect width="24" height="24" rx="12" fill="white"/>
</clipPath>
<clipPath id="clip1_19871_22392">
<rect width="24" height="24" fill="white"/>
</clipPath>
</defs>
</svg>
