<svg xmlns="http://www.w3.org/2000/svg" width="40" height="40" viewBox="0 0 40 40"><circle cx="20" cy="20" r="20" fill="#ffd9ea"/><rect x="6" y="6" width="28" height="28" rx="7.9799999999999995" ry="7.9799999999999995" fill="#ff0074"/><g transform="translate(11.32, 14.219664478482859)"><svg width="17.36" height="11.560671043034281" viewBox="0 0 1371 913" xmlns="http://www.w3.org/2000/svg"><clipPath xmlns="http://www.w3.org/2000/svg" id="a"><path d="M-1113.7-1649.78h39603.32V20608.8H-1113.7z"/></clipPath><g xmlns="http://www.w3.org/2000/svg" clip-path="url(#a)"><path fill="#ffffff" d="M685.22 456.54v456.44h456.82l47.3-4.4 43.18-12.92 38.78-21.43 34.37-30.23 25.86-29.95 21.45-38.75 12.92-43.14 4.41-47.27-4.41-47.54-12.92-42.86-21.45-38.75-25.86-34.62-34.37-25.84-38.78-21.43-43.18-12.92-47.3-4.39z"/><path fill="#ffffff" d="M.14.37v568.28l4.4 38.75 4.13 29.95 8.8 34.63 12.92 29.95 12.93 30.23 17.05 30.23 21.73 25.83 21.45 25.83L125 835.48l25.85 17.32 30.26 17.03 30.25 17.32 29.98 8.51 34.65 8.8 34.38 8.52h69.03l34.37-8.52 34.38-8.8 30.26-8.51 30.25-17.32 25.85-17.03 25.85-17.32 25.85-21.43 21.46-25.83 21.45-25.83 17.32-30.23 12.93-30.23 12.93-29.95 8.52-34.63 4.4-29.95V.37z"/><path fill="#ffffff" d="m913.49.37-42.9 4.4-43.18 12.92-38.78 21.43-34.38 25.83L724 99.3l-17.33 38.75-17.05 43.14-4.4 47.27 4.4 47.54 17.05 42.86L724 357.61l30.25 30.23 34.38 29.95 38.78 21.71 43.18 12.92 42.9 4.12h452.41V.37z"/></g></svg></g></svg>