<svg xmlns="http://www.w3.org/2000/svg" width="40" height="40" viewBox="0 0 40 40"><circle cx="20" cy="20" r="20" fill="#d9eaf5"/><rect x="6" y="6" width="28" height="28" rx="7.9799999999999995" ry="7.9799999999999995" fill="#0072bd"/><g transform="translate(11.32, 15.945231958762886)"><svg width="17.36" height="8.109536082474227" viewBox="0 0 1552 725" xmlns="http://www.w3.org/2000/svg"><g xmlns="http://www.w3.org/2000/svg" fill="#ffffff"><path d="M387.9 15C532-1 677.5-3.2 822 7.5c117.4 9 234.5 26.7 348.3 58 68.8 19.1 136.8 43 200.3 76.2 40.5 21.4 79.3 46.7 112.4 78.6 28 27.4 51.9 60.4 62.5 98.6 8.8 30.6 8.1 63.7-1.7 94-11.6 36.1-34.7 67.4-61.7 93.6-34.6 33.3-75.6 59.3-118.2 81.2-46.2 23.6-94.8 42.4-144.2 58.1-73.7 23.5-149.3 40.2-225.6 52.5-105.3 17-211.9 25-318.5 26.7h-61.5c-153.9-2.5-308.2-18-457.9-54.8-52.9-13.3-105.5-29-156.2-49.4 52.6 15.4 106 28.2 159.9 38.3C282 682 406.2 693 530.4 695.1c105.2 1.7 210.5-3.1 315-15.4 95.2-11.3 190-28.6 282.3-55.1 57.8-16.7 114.7-36.9 168.9-63.3 44-21.6 86.6-47.1 122.8-80.5 27.5-25.6 51.7-56.9 61.4-93.8 7-25.6 5.7-53.3-3.2-78.3-8.3-23.8-22.5-45.1-39.1-63.8-32.3-35.9-72.9-63.1-114.9-86.1-71.2-38.2-148.1-64.6-226-85.4-116.5-30.6-236.2-48-356.2-56.6C603.7 7.2 465.2 9.2 327.9 23c19.9-3.5 40-5.5 60-8"/><path d="M1.5 176.6h95.1c40.9 72.9 81.5 146 122.3 218.9 36.8-72.5 73.8-144.8 110.6-217.3q160.6-.1 321.3 0c21.9.1 43.8-.3 65.6.3 16.9-.2 34.7 2.4 48.9 12 10.9 7.2 17.9 19.1 21.3 31.5 3.8 13.2 4 27.1 4 40.7v69.5c-.2 19.8-2.4 41.3-15.7 57-12.7 15-33.2 19.9-52 20.7-65.2.1-130.5 0-195.8 0 0 47 .1 94 0 141h-81.8V336.5c39.2 1.5 78.4 0 117.5.3 37.2 0 74.5 0 111.7-.1 8.6-.7 17.4.8 25.7-2.1 4.2-1.4 7.3-5.1 8.4-9.3 1.9-7.1 1.3-14.4 1.4-21.6-.1-10.4.1-20.8-.1-31.2-.3-5.5-.8-11.6-4.8-15.7-4.2-4-10.3-4.6-15.7-4.9H388.8q-85.1 149.8-170.2 299.7c-72.5-124.9-144.7-250-217.1-375m977.7 4.8c27.5-4.9 55.5-6.5 83.3-4.7 38.1 2.6 75.3 12.4 111 25.4-9.9 21.5-19.8 42.9-29.8 64.3-26.1-10.1-53.3-18-81.1-21.2-25.3-3-51.3-2.2-75.8 5.3-21 6.4-40.7 18.5-54.3 35.9-14.7 18.5-21.6 42.1-22.5 65.5-.8 24.7 3.1 50 14.7 72.1 10.3 20.1 27.5 36.6 47.9 46.4 19.7 9.8 41.9 13.8 63.8 14.5 21.7.2 43.7-1.1 64.7-7-1.7-11.8-.7-23.7-.9-35.5-.9-35.6.2-71.2-.7-106.9h85.3v79.6c.6 36 .1 72.1.3 108.1-39.1 17.1-81.3 27.3-124 29.4-49.9 2.4-101.5-5-146.2-28.6-34.4-18-63.7-46.7-79.9-82.3-10.9-23.8-16.2-50-15.9-76.1-.4-25.9 3.8-52 13.4-76.1 8.7-21.7 22.1-41.6 39.1-57.6 29.5-27.7 68.3-43.4 107.6-50.5"/></g></svg></g></svg>