<svg xmlns="http://www.w3.org/2000/svg" width="40" height="40" viewBox="0 0 40 40"><circle cx="20" cy="20" r="20" fill="#FFD6BF"/><rect x="6" y="6" width="28" height="28" rx="7.9799999999999995" ry="7.9799999999999995" fill="#964D22"/><g transform="translate(11.32, 11.32)"><svg width="17.36" height="17.36" viewBox="0 0 24 24" xmlns="http://www.w3.org/2000/svg">
<path xmlns="http://www.w3.org/2000/svg" d="M0.92178 13.4333C0.92178 14.6373 1.66973 15.1413 2.80897 15.1414C3.94824 15.1414 4.69617 14.6373 4.69617 13.4333V9.16799H5.61807V13.312C5.61807 15.0947 4.69615 16 2.80897 16C0.921831 16 0 15.0947 0 13.312V9.16799H0.92178V13.4333Z" fill="#ffffff"/>
<path xmlns="http://www.w3.org/2000/svg" d="M8.87029 9C10.1139 9 11.4271 9.48539 11.514 11.0908H10.5922C10.514 10.5681 10.2357 9.85865 8.74857 9.85864C8.07026 9.85864 7.30488 10.1667 7.30486 10.9506C7.30486 11.3613 7.55711 11.688 8.32237 11.828L9.84429 12.108C10.3313 12.2014 11.7141 12.4534 11.7141 13.8161C11.714 15.5148 10.2966 16 9.04422 16C7.64407 16 6.19174 15.4774 6.19174 13.6386H7.11351C7.13091 14.8333 8.17449 15.1413 9.11373 15.1414C10.0964 15.1414 10.7923 14.74 10.7923 14.012C10.7923 13.4053 10.3487 13.1534 9.63554 13.0227L8.22676 12.7707C7.48756 12.64 6.38309 12.3227 6.38308 11.0254C6.38308 9.81203 7.27882 9 8.87029 9Z" fill="#ffffff"/>
<path xmlns="http://www.w3.org/2000/svg" d="M15.234 9C16.4777 9 18.1909 9.56936 18.3475 11.5667H17.4256C17.2865 10.6427 16.6082 9.85864 15.3036 9.85864C13.834 9.85864 12.9035 10.764 12.9035 12.584C12.9035 13.844 13.5383 15.1414 15.2516 15.1414C16.3386 15.1414 17.1647 14.5814 17.4256 13.2841H18.3475C18.1996 14.7587 17.0169 16 15.2428 16C13.6775 16 11.9816 15.0761 11.9816 12.4814C11.9816 10.5401 13.1121 9.00002 15.234 9Z" fill="#ffffff"/>
<path xmlns="http://www.w3.org/2000/svg" d="M24 10.0266H20.1126V11.996H23.8174V12.8547H20.1126V15.832H19.1908V9.16799H24V10.0266Z" fill="#ffffff"/>
</svg></g></svg>