<?xml version="1.0" encoding="UTF-8"?>
<!DOCTYPE svg PUBLIC "-//W3C//DTD SVG 1.1//EN" "http://www.w3.org/Graphics/SVG/1.1/DTD/svg11.dtd">
<svg xmlns="http://www.w3.org/2000/svg" version="1.1" width="400px" height="400px" style="shape-rendering:geometricPrecision; text-rendering:geometricPrecision; image-rendering:optimizeQuality; fill-rule:evenodd; clip-rule:evenodd" xmlns:xlink="http://www.w3.org/1999/xlink">
<g><path style="opacity:0.963" fill="#fcdcba" d="M 197.5,-0.5 C 198.5,-0.5 199.5,-0.5 200.5,-0.5C 274.77,2.54309 331.936,35.2098 372,97.5C 373.86,101.22 375.693,104.886 377.5,108.5C 373.833,108.5 370.167,108.5 366.5,108.5C 320.659,34.9188 254.326,3.0855 167.5,13C 108.024,24.7079 63.0239,56.5413 32.5,108.5C 28.8333,108.5 25.1667,108.5 21.5,108.5C 53.987,48.722 103.987,13.222 171.5,2C 180.315,1.1275 188.982,0.294168 197.5,-0.5 Z"/></g>
<g><path style="opacity:1" fill="#020717" d="M 366.5,108.5 C 374.275,123.825 380.275,139.825 384.5,156.5C 386.809,166.716 388.476,177.049 389.5,187.5C 389.5,195.5 389.5,203.5 389.5,211.5C 387.177,233.795 381.843,255.461 373.5,276.5C 336.84,348.909 277.674,386.242 196,388.5C 117.474,383.748 60.6408,346.415 25.5,276.5C 16.8348,254.844 11.5015,232.511 9.5,209.5C 9.5,202.167 9.5,194.833 9.5,187.5C 10.524,177.049 12.1907,166.716 14.5,156.5C 18.7246,139.825 24.7246,123.825 32.5,108.5C 63.0239,56.5413 108.024,24.7079 167.5,13C 254.326,3.0855 320.659,34.9188 366.5,108.5 Z"/></g>
<g><path style="opacity:1" fill="#73839e" d="M 281.5,61.5 C 281.141,63.371 280.141,64.871 278.5,66C 257.558,79.9434 236.891,94.2768 216.5,109C 210.151,109.406 203.817,109.906 197.5,110.5C 191.369,104.87 185.369,99.0362 179.5,93C 176.872,90.5345 173.872,88.7012 170.5,87.5C 168.67,87.7763 167.003,88.443 165.5,89.5C 163.932,96.212 161.932,102.712 159.5,109C 125.375,108.314 91.8748,112.48 59,121.5C 67.9888,103.476 80.4888,87.9758 96.5,75C 147.991,35.6084 203.991,27.9418 264.5,52C 270.552,54.6874 276.219,57.8541 281.5,61.5 Z"/></g>
<g><path style="opacity:1" fill="#6e7d98" d="M 281.5,61.5 C 290.955,65.9572 299.289,71.9572 306.5,79.5C 306.383,81.4835 307.05,83.1502 308.5,84.5C 289.695,97.4723 271.028,110.639 252.5,124C 250.783,125.559 248.783,126.392 246.5,126.5C 237.341,121.755 228.008,117.255 218.5,113C 211.833,112.667 205.167,112.333 198.5,112C 197.944,111.617 197.611,111.117 197.5,110.5C 203.817,109.906 210.151,109.406 216.5,109C 236.891,94.2768 257.558,79.9434 278.5,66C 280.141,64.871 281.141,63.371 281.5,61.5 Z"/></g>
<g><path style="opacity:1" fill="#697792" d="M 306.5,79.5 C 323.048,93.2841 335.715,109.951 344.5,129.5C 344.433,131.401 344.767,133.234 345.5,135C 345.241,136.261 344.574,137.261 343.5,138C 325.925,149.943 308.592,162.109 291.5,174.5C 290.822,161.294 284.822,151.128 273.5,144C 264.435,138.143 255.435,132.309 246.5,126.5C 248.783,126.392 250.783,125.559 252.5,124C 271.028,110.639 289.695,97.4723 308.5,84.5C 307.05,83.1502 306.383,81.4835 306.5,79.5 Z"/></g>
<g><path style="opacity:0.969" fill="#f8d3b5" d="M 21.5,108.5 C 25.1667,108.5 28.8333,108.5 32.5,108.5C 24.7246,123.825 18.7246,139.825 14.5,156.5C 10.9581,156.813 7.62482,156.479 4.5,155.5C 7.61434,138.817 13.281,123.15 21.5,108.5 Z"/></g>
<g><path style="opacity:0.96" fill="#f8d3b5" d="M 366.5,108.5 C 370.167,108.5 373.833,108.5 377.5,108.5C 385.719,123.15 391.386,138.817 394.5,155.5C 391.375,156.479 388.042,156.813 384.5,156.5C 380.275,139.825 374.275,123.825 366.5,108.5 Z"/></g>
<g><path style="opacity:1" fill="#64728c" d="M 344.5,129.5 C 351.204,141.277 355.537,153.944 357.5,167.5C 358.002,173.505 358.168,179.505 358,185.5C 343.667,195.833 329.333,206.167 315,216.5C 313.503,220.165 311.503,223.498 309,226.5C 308.329,225.748 307.496,225.414 306.5,225.5C 310.56,221.888 313.227,217.388 314.5,212C 307.205,199.238 299.538,186.738 291.5,174.5C 308.592,162.109 325.925,149.943 343.5,138C 344.574,137.261 345.241,136.261 345.5,135C 344.767,133.234 344.433,131.401 344.5,129.5 Z"/></g>
<g><path style="opacity:0.96" fill="#ecc5b1" d="M 4.5,155.5 C 7.62482,156.479 10.9581,156.813 14.5,156.5C 12.1907,166.716 10.524,177.049 9.5,187.5C 6.16667,187.5 2.83333,187.5 -0.5,187.5C -0.5,184.833 -0.5,182.167 -0.5,179.5C 0.735973,171.42 2.40264,163.42 4.5,155.5 Z"/></g>
<g><path style="opacity:0.96" fill="#ecc5b1" d="M 394.5,155.5 C 396.597,163.42 398.264,171.42 399.5,179.5C 399.5,182.167 399.5,184.833 399.5,187.5C 396.167,187.5 392.833,187.5 389.5,187.5C 388.476,177.049 386.809,166.716 384.5,156.5C 388.042,156.813 391.375,156.479 394.5,155.5 Z"/></g>
<g><path style="opacity:1" fill="#5f6c85" d="M 357.5,167.5 C 369.069,232.955 349.403,287.122 298.5,330C 264.651,355.281 226.651,365.947 184.5,362C 168.567,357.553 156.233,348.386 147.5,334.5C 148.198,332.333 149.531,330.5 151.5,329C 181.667,308.167 211.833,287.333 242,266.5C 241.956,264.721 241.289,263.055 240,261.5C 235.896,257.905 232.396,253.905 229.5,249.5C 238.912,257.408 247.912,265.908 256.5,275C 266.24,277.144 275.906,276.811 285.5,274C 286.893,272.829 287.727,271.329 288,269.5C 289.186,263.915 289.852,258.249 290,252.5C 294.967,248.534 299.634,244.201 304,239.5C 304.983,234.728 305.817,230.062 306.5,225.5C 307.496,225.414 308.329,225.748 309,226.5C 311.503,223.498 313.503,220.165 315,216.5C 329.333,206.167 343.667,195.833 358,185.5C 358.168,179.505 358.002,173.505 357.5,167.5 Z"/></g>
<g><path style="opacity:0.96" fill="#e1baad" d="M -0.5,187.5 C 2.83333,187.5 6.16667,187.5 9.5,187.5C 9.5,194.833 9.5,202.167 9.5,209.5C 9.5,212.5 9.5,215.5 9.5,218.5C 6.16667,218.5 2.83333,218.5 -0.5,218.5C -0.5,208.167 -0.5,197.833 -0.5,187.5 Z"/></g>
<g><path style="opacity:0.952" fill="#e1baad" d="M 389.5,187.5 C 392.833,187.5 396.167,187.5 399.5,187.5C 399.5,197.833 399.5,208.167 399.5,218.5C 396.167,218.5 392.833,218.5 389.5,218.5C 389.5,216.167 389.5,213.833 389.5,211.5C 389.5,203.5 389.5,195.5 389.5,187.5 Z"/></g>
<g><path style="opacity:1" fill="#64728c" d="M 229.5,249.5 C 232.396,253.905 235.896,257.905 240,261.5C 241.289,263.055 241.956,264.721 242,266.5C 211.833,287.333 181.667,308.167 151.5,329C 149.531,330.5 148.198,332.333 147.5,334.5C 139.23,320.982 136.397,306.315 139,290.5C 146.127,263.017 163.627,246.517 191.5,241C 205.257,239.457 217.923,242.29 229.5,249.5 Z"/></g>
<g><path style="opacity:0.976" fill="#d1a9a7" d="M 9.5,209.5 C 11.5015,232.511 16.8348,254.844 25.5,276.5C 21.9581,276.187 18.6248,276.521 15.5,277.5C 7.35781,258.93 2.02447,239.597 -0.5,219.5C -0.5,219.167 -0.5,218.833 -0.5,218.5C 2.83333,218.5 6.16667,218.5 9.5,218.5C 9.5,215.5 9.5,212.5 9.5,209.5 Z"/></g>
<g><path style="opacity:0.974" fill="#d1a9a7" d="M 389.5,211.5 C 389.5,213.833 389.5,216.167 389.5,218.5C 392.833,218.5 396.167,218.5 399.5,218.5C 399.5,218.833 399.5,219.167 399.5,219.5C 396.976,239.597 391.642,258.93 383.5,277.5C 380.375,276.521 377.042,276.187 373.5,276.5C 381.843,255.461 387.177,233.795 389.5,211.5 Z"/></g>
<g><path style="opacity:0.962" fill="#c89ea4" d="M 25.5,276.5 C 60.6408,346.415 117.474,383.748 196,388.5C 277.674,386.242 336.84,348.909 373.5,276.5C 377.042,276.187 380.375,276.521 383.5,277.5C 352.872,344.932 300.872,384.765 227.5,397C 218.685,397.872 210.018,398.706 201.5,399.5C 200.167,399.5 198.833,399.5 197.5,399.5C 123.624,396.155 66.7904,363.488 27,301.5C 22.3534,293.874 18.5201,285.874 15.5,277.5C 18.6248,276.521 21.9581,276.187 25.5,276.5 Z"/></g>
</svg>
