<svg xmlns="http://www.w3.org/2000/svg" width="40" height="40" viewBox="0 0 40 40"><circle cx="20" cy="20" r="20" fill="#d9d9d9"/><rect x="6" y="6" width="28" height="28" rx="7.9799999999999995" ry="7.9799999999999995" fill="#000000"/><g transform="translate(17.089942196531794, 11.32)"><svg width="5.820115606936416" height="17.36" viewBox="0 0 522 1557" xmlns="http://www.w3.org/2000/svg">
<path xmlns="http://www.w3.org/2000/svg" fill-rule="evenodd" clip-rule="evenodd" d="M39.2998 99.7256L264.595 247.718L39.2998 391.653V555.6H521.4V933.1H39.2998V1112.6H521.4V1445.4H39.2998V2575.1H0V0H39.2998V99.7256ZM77.3008 1250.2L280.301 1386.5L482.101 1250.2L280.301 1112.6L77.3008 1250.2ZM271.801 635.6C164.201 635.6 77.3009 694.7 77.3008 767.899C77.3008 841.099 164.201 900.3 271.801 900.3C379.401 900.3 466.4 841.099 466.4 767.899C466.4 694.7 379.401 635.6 271.801 635.6Z" fill="#ffffff"/>
<path xmlns="http://www.w3.org/2000/svg" d="M513.928 411.5H59.3867L290.333 264.625L513.928 411.5Z" fill="#ffffff"/>
<path xmlns="http://www.w3.org/2000/svg" d="M521.4 379.755L318.662 246.608L521.4 117.674V379.755Z" fill="#ffffff"/>
<path xmlns="http://www.w3.org/2000/svg" d="M521.4 83.6533L292.857 229.662L62.8398 78.5996H521.4V83.6533Z" fill="#ffffff"/>
</svg></g></svg>