<?xml version="1.0" encoding="UTF-8"?>
<!DOCTYPE svg PUBLIC "-//W3C//DTD SVG 1.1//EN" "http://www.w3.org/Graphics/SVG/1.1/DTD/svg11.dtd">
<svg xmlns="http://www.w3.org/2000/svg" version="1.1" width="1000px" height="1000px" style="shape-rendering:geometricPrecision; text-rendering:geometricPrecision; image-rendering:optimizeQuality; fill-rule:evenodd; clip-rule:evenodd" xmlns:xlink="http://www.w3.org/1999/xlink">
<g><path style="opacity:0.958" fill="#7fc662" d="M 999.5,105.5 C 999.5,118.5 999.5,131.5 999.5,144.5C 988.056,134.267 977.056,123.6 966.5,112.5C 970.947,108.227 975.613,104.061 980.5,100C 984.833,99.3333 989.167,99.3333 993.5,100C 995.37,102.04 997.37,103.873 999.5,105.5 Z"/></g>
<g><path style="opacity:0.985" fill="#7dc564" d="M 966.5,112.5 C 977.056,123.6 988.056,134.267 999.5,144.5C 999.5,163.5 999.5,182.5 999.5,201.5C 997.99,200.164 996.323,198.997 994.5,198C 975.633,177.967 956.3,158.467 936.5,139.5C 946.474,130.529 956.474,121.529 966.5,112.5 Z"/></g>
<g><path style="opacity:0.991" fill="#7ac468" d="M 936.5,139.5 C 956.3,158.467 975.633,177.967 994.5,198C 996.323,198.997 997.99,200.164 999.5,201.5C 999.5,235.167 999.5,268.833 999.5,302.5C 997.99,301.164 996.323,299.997 994.5,299C 957.966,261.299 920.966,224.133 883.5,187.5C 900.936,171.276 918.603,155.276 936.5,139.5 Z"/></g>
<g><path style="opacity:0.994" fill="#77c46c" d="M 883.5,187.5 C 920.966,224.133 957.966,261.299 994.5,299C 996.323,299.997 997.99,301.164 999.5,302.5C 999.5,321.5 999.5,340.5 999.5,359.5C 989.617,350.269 979.617,341.102 969.5,332C 930.973,293.561 892.639,254.894 854.5,216C 853.906,215.536 853.239,215.369 852.5,215.5C 862.535,205.797 872.868,196.463 883.5,187.5 Z"/></g>
<g><path style="opacity:0.996" fill="#75c36e" d="M 852.5,215.5 C 853.239,215.369 853.906,215.536 854.5,216C 892.639,254.894 930.973,293.561 969.5,332C 979.617,341.102 989.617,350.269 999.5,359.5C 999.5,383.167 999.5,406.833 999.5,430.5C 938.167,369.833 877.167,308.833 816.5,247.5C 828.177,236.491 840.177,225.824 852.5,215.5 Z"/></g>
<g><path style="opacity:0.996" fill="#72c372" d="M 816.5,247.5 C 877.167,308.833 938.167,369.833 999.5,430.5C 999.5,459.833 999.5,489.167 999.5,518.5C 997.99,517.164 996.323,515.997 994.5,515C 919.966,439.299 844.966,364.132 769.5,289.5C 785.167,275.5 800.833,261.5 816.5,247.5 Z"/></g>
<g><path style="opacity:0.997" fill="#6fc275" d="M 769.5,289.5 C 844.966,364.132 919.966,439.299 994.5,515C 996.323,515.997 997.99,517.164 999.5,518.5C 999.5,533.5 999.5,548.5 999.5,563.5C 915.868,480.368 832.368,397.035 749,313.5C 748.209,312.255 747.709,310.922 747.5,309.5C 755.158,303.174 762.492,296.508 769.5,289.5 Z"/></g>
<g><path style="opacity:0.997" fill="#6cc279" d="M 747.5,309.5 C 747.709,310.922 748.209,312.255 749,313.5C 832.368,397.035 915.868,480.368 999.5,563.5C 999.5,595.833 999.5,628.167 999.5,660.5C 997.352,664.263 995.019,667.93 992.5,671.5C 892.201,571.701 792.035,471.701 692,371.5C 690.279,368.961 688.446,366.628 686.5,364.5C 706.981,346.41 727.314,328.077 747.5,309.5 Z"/></g>
<g><path style="opacity:0.995" fill="#6ac27b" d="M 686.5,364.5 C 688.446,366.628 690.279,368.961 692,371.5C 792.035,471.701 892.201,571.701 992.5,671.5C 990.234,675.436 987.234,678.769 983.5,681.5C 982.496,680.317 981.662,678.984 981,677.5C 952.833,649.333 924.667,621.167 896.5,593C 892.826,589.954 889.159,586.954 885.5,584C 815.946,514.446 746.446,444.946 677,375.5C 676.536,374.906 676.369,374.239 676.5,373.5C 679.808,370.529 683.141,367.529 686.5,364.5 Z"/></g>
<g><path style="opacity:0.995" fill="#68c17d" d="M 676.5,373.5 C 676.369,374.239 676.536,374.906 677,375.5C 746.446,444.946 815.946,514.446 885.5,584C 889.159,586.954 892.826,589.954 896.5,593C 924.667,621.167 952.833,649.333 981,677.5C 981.662,678.984 982.496,680.317 983.5,681.5C 976.98,686.253 969.646,689.087 961.5,690C 948.504,690.5 935.504,690.667 922.5,690.5C 828.527,595.86 734.194,501.527 639.5,407.5C 651.602,395.943 663.936,384.61 676.5,373.5 Z"/></g>
<g><path style="opacity:0.993" fill="#65c081" d="M 639.5,407.5 C 734.194,501.527 828.527,595.86 922.5,690.5C 892.833,690.5 863.167,690.5 833.5,690.5C 832.164,688.99 830.997,687.323 830,685.5C 752.07,607.781 674.236,529.947 596.5,452C 595.016,451.338 593.683,450.504 592.5,449.5C 607.937,435.275 623.604,421.275 639.5,407.5 Z"/></g>
<g><path style="opacity:0.992" fill="#61c086" d="M 592.5,449.5 C 593.683,450.504 595.016,451.338 596.5,452C 674.236,529.947 752.07,607.781 830,685.5C 830.997,687.323 832.164,688.99 833.5,690.5C 789.167,690.5 744.833,690.5 700.5,690.5C 699.496,689.317 698.662,687.984 698,686.5C 638.712,629.379 580.212,571.379 522.5,512.5C 545.669,491.538 569.003,470.538 592.5,449.5 Z"/></g>
<g><path style="opacity:0.99" fill="#5ebf8a" d="M 522.5,512.5 C 580.212,571.379 638.712,629.379 698,686.5C 698.662,687.984 699.496,689.317 700.5,690.5C 691.833,690.5 683.167,690.5 674.5,690.5C 619.5,635.167 564.5,579.833 509.5,524.5C 513.807,520.528 518.141,516.528 522.5,512.5 Z"/></g>
<g><path style="opacity:0.988" fill="#5bbf8c" d="M 509.5,524.5 C 564.5,579.833 619.5,635.167 674.5,690.5C 638.5,690.5 602.5,690.5 566.5,690.5C 565.496,689.317 564.662,687.984 564,686.5C 526.272,649.939 489.106,612.939 452.5,575.5C 471.176,558.158 490.176,541.158 509.5,524.5 Z"/></g>
<g><path style="opacity:0.97" fill="#59bf8f" d="M 452.5,575.5 C 489.106,612.939 526.272,649.939 564,686.5C 564.662,687.984 565.496,689.317 566.5,690.5C 486.499,690.667 406.499,690.5 326.5,690C 368.045,651.286 410.045,613.119 452.5,575.5 Z"/></g>
<g><path style="opacity:0.974" fill="#284c84" d="M 164.5,767.5 C 163.527,767.013 162.527,766.513 161.5,766C 116,720.5 70.5,675 25,629.5C 23.5787,627.595 22.412,625.595 21.5,623.5C 27.1937,620.882 33.1937,619.382 39.5,619C 135.499,618.5 231.499,618.333 327.5,618.5C 326.909,621.614 325.242,624.114 322.5,626C 269.937,673.403 217.27,720.569 164.5,767.5 Z"/></g>
<g><path style="opacity:0.99" fill="#234f85" d="M 21.5,623.5 C 22.412,625.595 23.5787,627.595 25,629.5C 70.5,675 116,720.5 161.5,766C 162.527,766.513 163.527,767.013 164.5,767.5C 159.801,772.2 154.801,776.534 149.5,780.5C 149.013,779.527 148.513,778.527 148,777.5C 101.14,731.395 54.4733,685.062 8,638.5C 7.53566,637.906 7.36899,637.239 7.5,636.5C 10.9005,630.8 15.5671,626.467 21.5,623.5 Z"/></g>
<g><path style="opacity:0.99" fill="#205285" d="M 7.5,636.5 C 7.36899,637.239 7.53566,637.906 8,638.5C 54.4733,685.062 101.14,731.395 148,777.5C 148.513,778.527 149.013,779.527 149.5,780.5C 148.167,782.5 146.5,784.167 144.5,785.5C 142.913,782.732 141.08,780.065 139,777.5C 94.7725,734.027 50.7725,690.361 7,646.5C 5.97022,644.654 4.80355,642.987 3.5,641.5C 4.1237,639.246 5.45703,637.579 7.5,636.5 Z"/></g>
<g><path style="opacity:0.992" fill="#1c5486" d="M 3.5,641.5 C 4.80355,642.987 5.97022,644.654 7,646.5C 50.7725,690.361 94.7725,734.027 139,777.5C 141.08,780.065 142.913,782.732 144.5,785.5C 137.825,792.175 130.825,798.508 123.5,804.5C 123.631,803.761 123.464,803.094 123,802.5C 97.2792,777.611 71.7792,752.611 46.5,727.5C 31.7513,714.586 17.7513,700.752 4.5,686C 2.67694,685.003 1.01027,683.836 -0.5,682.5C -0.5,671.5 -0.5,660.5 -0.5,649.5C 1.341,647.151 2.67433,644.485 3.5,641.5 Z"/></g>
<g><path style="opacity:0.993" fill="#155987" d="M -0.5,682.5 C 1.01027,683.836 2.67694,685.003 4.5,686C 17.7513,700.752 31.7513,714.586 46.5,727.5C 46.369,728.239 46.5357,728.906 47,729.5C 72.3954,754.728 97.562,780.062 122.5,805.5C 116.849,811.147 110.849,816.48 104.5,821.5C 69.8814,786.215 34.8814,751.215 -0.5,716.5C -0.5,705.167 -0.5,693.833 -0.5,682.5 Z"/></g>
<g><path style="opacity:0.992" fill="#115c88" d="M -0.5,716.5 C 34.8814,751.215 69.8814,786.215 104.5,821.5C 102.105,824.861 99.1051,827.528 95.5,829.5C 63.8333,797.167 31.8333,765.167 -0.5,733.5C -0.5,727.833 -0.5,722.167 -0.5,716.5 Z"/></g>
<g><path style="opacity:0.99" fill="#185787" d="M 46.5,727.5 C 71.7792,752.611 97.2792,777.611 123,802.5C 123.464,803.094 123.631,803.761 123.5,804.5C 123.5,805.167 123.167,805.5 122.5,805.5C 97.562,780.062 72.3954,754.728 47,729.5C 46.5357,728.906 46.369,728.239 46.5,727.5 Z"/></g>
<g><path style="opacity:0.991" fill="#0e5e88" d="M -0.5,733.5 C 31.8333,765.167 63.8333,797.167 95.5,829.5C 92.7891,833.212 89.4558,836.212 85.5,838.5C 85.0133,837.527 84.5133,836.527 84,835.5C 55.9653,807.298 27.7987,779.298 -0.5,751.5C -0.5,745.5 -0.5,739.5 -0.5,733.5 Z"/></g>
<g><path style="opacity:0.984" fill="#0c6089" d="M -0.5,751.5 C 27.7987,779.298 55.9653,807.298 84,835.5C 84.5133,836.527 85.0133,837.527 85.5,838.5C 63.6347,859.199 41.3013,879.366 18.5,899C 14.1667,899.667 9.83333,899.667 5.5,899C 3.62976,896.96 1.62976,895.127 -0.5,893.5C -0.5,846.167 -0.5,798.833 -0.5,751.5 Z"/></g>
</svg>
