<?xml version="1.0" encoding="UTF-8" standalone="no"?>
<!DOCTYPE svg PUBLIC "-//W3C//DTD SVG 1.1//EN" "http://www.w3.org/Graphics/SVG/1.1/DTD/svg11.dtd">
<svg width="100%" height="100%" viewBox="0 0 64 64" version="1.1" xmlns="http://www.w3.org/2000/svg" xmlns:xlink="http://www.w3.org/1999/xlink" xml:space="preserve" xmlns:serif="http://www.serif.com/" style="fill-rule:evenodd;clip-rule:evenodd;stroke-linejoin:round;stroke-miterlimit:2;">
    <rect id="bIB01" x="0" y="0" width="64" height="64" style="fill:none;"/>
    <circle cx="32" cy="32" r="32" style="fill:rgb(0,162,128);"/>
    <g>
        <clipPath id="_clip1">
            <path d="M32,4C47.454,4 60,16.546 60,32C60,47.454 47.454,60 32,60C16.546,60 4,47.454 4,32C4,16.546 16.546,4 32,4ZM32,8C18.754,8 8,18.754 8,32C8,45.246 18.754,56 32,56C45.246,56 56,45.246 56,32C56,18.754 45.246,8 32,8Z"/>
        </clipPath>
        <g clip-path="url(#_clip1)">
            <path d="M0.049,30.18C0.317,25.385 1.671,20.58 4.211,16.133C4.236,16.089 4.261,16.045 4.287,16C4.313,15.956 4.338,15.912 4.364,15.868C7.698,10.156 12.537,5.857 18.089,3.185C24.064,0.309 30.864,-0.684 37.502,0.471C41.102,1.098 44.653,2.356 48,4.288C48.525,4.591 49.039,4.907 49.541,5.236C43.029,2.175 35.136,4.568 31.474,10.912L12.969,42.963C6.113,42.463 0.621,37.016 0.049,30.18Z" style="fill:url(#_Linear2);"/>
            <path d="M49.551,5.24C53.57,7.869 57.054,11.445 59.635,15.868C59.661,15.912 59.687,15.956 59.712,16C59.738,16.044 59.763,16.089 59.789,16.133C63.069,21.876 64.372,28.216 63.91,34.361C63.413,40.973 60.873,47.359 56.554,52.53C54.211,55.334 51.346,57.781 48,59.713C47.474,60.016 46.943,60.303 46.408,60.574C52.315,56.464 54.188,48.432 50.525,42.088L32.021,10.038C35.882,4.35 43.345,2.317 49.551,5.24Z" style="fill:url(#_Linear3);"/>
            <path d="M46.399,60.58C42.113,62.746 37.274,63.976 32.153,64C32.102,64 32.051,64 32,64C31.949,64 31.898,64 31.847,64C25.233,63.969 19.091,61.927 14,58.455C8.522,54.718 4.262,49.326 1.944,43C0.686,39.569 0,35.864 0,32C0,31.393 0.017,30.79 0.05,30.191C0.656,37.361 6.675,43 14,43L51.009,43C54.004,49.187 52.034,56.667 46.399,60.58Z" style="fill:url(#_Linear4);"/>
        </g>
    </g>
    <path d="M47.985,22.65C48.306,22.854 48.5,23.21 48.497,23.59L48.497,40.08C48.496,40.499 48.256,40.883 47.879,41.067C44.967,42.489 42.404,43 40.055,43C37.008,43 34.313,42.138 31.667,41.292C27.204,39.865 22.988,38.512 17.086,41.4C16.935,41.473 16.77,41.511 16.603,41.511C16,41.511 15.503,41.014 15.503,40.411L15.503,23.921C15.504,23.502 15.744,23.118 16.12,22.934C22.818,19.664 27.658,21.211 32.345,22.703C36.801,24.13 41.017,25.483 46.92,22.595C47.26,22.429 47.664,22.45 47.985,22.65ZM21.003,35.3L21.003,26.5C21.003,25.897 20.506,25.4 19.903,25.4C19.3,25.4 18.803,25.897 18.803,26.5L18.803,35.3C18.803,35.904 19.3,36.4 19.903,36.4C20.506,36.4 21.003,35.904 21.003,35.3ZM32,24.667C27.953,24.667 24.667,27.953 24.667,32C24.667,36.047 27.953,39.333 32,39.333C36.047,39.333 39.333,36.047 39.333,32C39.333,27.953 36.047,24.667 32,24.667ZM45.202,37.5L45.202,28.7C45.202,28.097 44.706,27.6 44.102,27.6C43.499,27.6 43.002,28.097 43.002,28.7L43.002,37.5C43.002,38.104 43.499,38.6 44.102,38.6C44.706,38.6 45.202,38.104 45.202,37.5Z" style="fill:white;"/>
    <path d="M31.826,36.9L31.826,28.416L31.574,28.416L30.258,31.524L28.382,31.524L30.384,27.1L33.618,27.1L33.618,36.9L31.826,36.9Z" style="fill:white;fill-rule:nonzero;"/>
    <defs>
        <linearGradient id="_Linear2" x1="0" y1="0" x2="1" y2="0" gradientUnits="userSpaceOnUse" gradientTransform="matrix(19.0519,-32.924,32.924,19.0519,12.9694,42.9626)"><stop offset="0" style="stop-color:white;stop-opacity:0.25"/><stop offset="1" style="stop-color:white;stop-opacity:0.75"/></linearGradient>
        <linearGradient id="_Linear3" x1="0" y1="0" x2="1" y2="0" gradientUnits="userSpaceOnUse" gradientTransform="matrix(18.9869,32.9611,-32.9611,18.9869,32.0214,10.0386)"><stop offset="0" style="stop-color:white;stop-opacity:0.25"/><stop offset="1" style="stop-color:white;stop-opacity:0.75"/></linearGradient>
        <linearGradient id="_Linear4" x1="0" y1="0" x2="1" y2="0" gradientUnits="userSpaceOnUse" gradientTransform="matrix(38.0386,0.0374306,-0.0374306,38.0386,12.9697,42.9623)"><stop offset="0" style="stop-color:white;stop-opacity:0.75"/><stop offset="1" style="stop-color:white;stop-opacity:0.25"/></linearGradient>
    </defs>
</svg>
