<svg xmlns="http://www.w3.org/2000/svg" width="40" height="40" viewBox="0 0 40 40"><circle cx="20" cy="20" r="20" fill="#d9dee4"/><rect x="6" y="6" width="28" height="28" rx="7.9799999999999995" ry="7.9799999999999995" fill="#03234b"/><g transform="translate(11.32, 15.379445910290237)"><svg width="17.36" height="9.241108179419525" viewBox="0 0 1516 807" xmlns="http://www.w3.org/2000/svg"><g xmlns="http://www.w3.org/2000/svg" fill="#ffffff"><path d="M1508.8.8c1.3.6 2.6 1.4 3.7 2.5 1 1 1.9 2.2 2.5 3.6s.9 2.8.9 4.3v1.1q-.1.6-.2 1.1-.1.6-.2 1.1-.2.6-.4 1.1l-38.5 93q-.6 1.6-1.7 3.1-1 1.4-2.5 2.4t-3.2 1.6q-1.7.5-3.5.5H493.3c-199.1 0-240.2 217.9-144.3 311.9l182.4 170.8c27.5 27.1 11.9 61.1-23.2 61.1H11.5c-1.9 0-3.7-.4-5.4-1.3S3 656.5 1.9 655c-1-1.6-1.7-3.4-1.8-5.3-.2-1.9.1-3.8.8-5.5l217.2-523c7.9-18 18.4-34.7 31.1-49.6 12.8-15 27.6-28 44-38.7 16.5-10.7 34.4-19 53.2-24.5 18.8-5.6 38.4-8.4 58-8.4h1100c1.5 0 3 .3 4.4.8"/><path d="M1398.9 267.1c1.3.5 2.5 1.3 3.5 2.3s1.9 2.2 2.4 3.5c.6 1.3.9 2.7 1 4.1q0 .5-.1 1.1 0 .5-.1 1t-.3 1.1q-.1.5-.3 1l-166.3 401.3c-7.8 18.4-18.2 35.5-31 50.8s-27.7 28.7-44.4 39.6c-16.6 11-34.8 19.5-53.9 25.1-19.1 5.7-38.9 8.6-58.9 8.5h-69.7c-1.5 0-2.9-.3-4.3-.8-1.4-.6-2.7-1.4-3.7-2.5-1.1-1-1.9-2.3-2.5-3.6-.6-1.4-.9-2.9-.9-4.4q0-.7.1-1.4.1-.6.2-1.3.2-.7.5-1.3.2-.6.5-1.3L1180 284.7c1.1-2.7 2.7-5.3 4.6-7.6s4.1-4.3 6.6-5.9 5.2-2.9 8-3.7c2.9-.9 5.9-1.3 8.8-1.3h186.8c1.4.1 2.8.4 4.1.9M1027.7 278.6l-.2 1q-.1.5-.3 1t-.4.9L817 788.5c-1.2 2.7-2.7 5.3-4.6 7.6-2 2.3-4.2 4.2-6.7 5.9-2.5 1.6-5.2 2.9-8 3.7-2.9.8-5.8 1.3-8.8 1.2H585c-.7.1-1.3-.1-1.9-.5-.5-.4-.9-1-1.1-1.6-.1-.7 0-1.4.3-2s.8-1 1.4-1.3c40.9-18.1 97.1-68.4 110.2-150.6 15.1-93.4-55.7-158.7-55.7-158.7L463.3 329.3c-30.4-28-5.3-63.1 23.4-63.1h529.5c1.5 0 3 .2 4.4.8s2.7 1.4 3.7 2.5c1.1 1 1.9 2.3 2.5 3.7s.9 2.8.9 4.3z"/></g></svg></g></svg>