<svg xmlns="http://www.w3.org/2000/svg" width="40" height="40" viewBox="0 0 40 40"><circle cx="20" cy="20" r="20" fill="#ffe7db"/><rect x="6" y="6" width="28" height="28" rx="7.9799999999999995" ry="7.9799999999999995" fill="#ff6012"/><g transform="translate(11.32, 11.628796895213455)"><svg width="17.36" height="16.74240620957309" viewBox="0 0 1546 1491" xmlns="http://www.w3.org/2000/svg"><g xmlns="http://www.w3.org/2000/svg" fill="#ffffff"><path d="M454.6 0h25.97v958.63c-157.35 2-311.67-81.16-398.44-212.06C19.02 653.42-8.94 537.56 3.84 425.82c11.8-110.89 64.4-216.68 145.36-293.36C230.82 53.52 341.38 6.39 454.6 0M992.49 0h20.68v1073.96c-1.2 104.11-43.4 206.79-114.82 282.49-74.52 80.37-181.08 129.54-290.58 134.55h-21.26c0-350.56.04-701.17 0-1051.73-.04-30.93 1.69-61.95 7.55-92.39 18.15-98.69 73.01-189.97 151.3-252.76C814.95 37.5 902.92 4.35 992.49 0M1119.12 0h426.66v425.96c-142.21.04-284.46.04-426.66.04.04-142 0-284 0-426M1119.12 532.5c142.25 0 284.45-.04 426.71.04-.05 141.96-.05 283.96 0 425.92-142.26.08-284.51.04-426.71 0zM53.9 1065c142.25.04 284.46-.04 426.71.04-.04 141.96-.04 283.96-.04 425.96h-19.98c-113.04-4.84-222.94-57.07-297.95-141.73C92.92 1272.14 53.9 1168.84 53.9 1065"/></g></svg></g></svg>