<svg xmlns="http://www.w3.org/2000/svg" width="40" height="40" viewBox="0 0 40 40"><circle cx="20" cy="20" r="20" fill="#d9e3ed"/><rect x="6" y="6" width="28" height="28" rx="7.9799999999999995" ry="7.9799999999999995" fill="#004786"/><g transform="translate(14.18575389948007, 11.32)"><svg width="11.628492201039862" height="17.36" viewBox="0 0 1546 2308" xmlns="http://www.w3.org/2000/svg">
<path xmlns="http://www.w3.org/2000/svg" fill-rule="evenodd" clip-rule="evenodd" d="M1542.58 978.8L1520.58 1016.5L1429.38 1171.7C1428.28 1173.3 1425.18 1177.5 1423.58 1178C1410.48 1185.9 1377.98 1175.9 1363.78 1170.7L1298.28 1143.4L1346.98 1203.7C1361.18 1221 1372.18 1236.2 1376.38 1246.7C1377.98 1253 1377.38 1258.2 1375.88 1260.3C1375.28 1261.4 1375.28 1262.4 1375.28 1262.4L1356.98 1292.3L1260.98 1454.8C1260.48 1456.4 1256.88 1460.6 1255.78 1461.1C1242.18 1469 1210.18 1459 1195.98 1454.3L1130.98 1427L1179.78 1486.3C1193.88 1503.6 1205.48 1519.3 1208.58 1529.8C1211.78 1539.2 1207.58 1545 1207.58 1545L1174.48 1599.5L1093.28 1737.4C1092.68 1739 1089.08 1743.7 1087.48 1744.7C1074.38 1751.6 1042.38 1741.6 1028.18 1736.9L963.175 1709.6L1011.98 1769.4C1026.08 1786.7 1037.18 1801.9 1041.38 1812.4C1043.48 1822.3 1039.28 1828.1 1039.28 1828.1L923.375 2022.6C928.075 2013.7 924.375 1996.9 867.275 1928.8L546.875 1536.6L359.675 1459L844.175 2052.5C858.875 2070.3 869.375 2085 873.575 2096C876.175 2104.9 871.975 2110.7 871.975 2110.7L755.075 2307.3C760.275 2298.4 759.275 2283.7 699.475 2212.4L28.3752 1388.8C7.37519 1363.6 -3.62481 1341.6 1.07519 1332.2C1.07519 1332.2 2.67519 1329.5 1.57519 1329.5L116.375 1135.6C116.975 1134 118.475 1132.9 120.075 1131.9C132.675 1124.5 164.175 1134 178.775 1139.2L245.375 1167L195.575 1106.2C175.175 1081 164.675 1058.5 168.875 1047.5L198.175 997.7L284.175 852.5C285.275 851.4 286.275 849.8 287.875 848.3C300.975 841.4 331.875 851.4 346.575 856.1L413.175 884.4L363.375 823.1C342.375 797.9 331.375 774.3 336.075 765.4L362.875 720.3L452.475 569.9C452.475 568.3 453.575 566.2 455.675 565.7C468.275 558.9 499.675 568.3 513.875 573.5L580.475 600.8L531.175 540.5C510.175 515.4 497.575 493.3 502.875 483.9L621.875 283.6C618.675 291.5 613.475 306.2 675.375 380.6L996.775 773.8L1183.98 851.9L698.375 257.4C678.475 231.7 664.875 210.8 670.075 200.8L789.675 0C785.975 7.9 781.275 22.5 843.675 98L1515.28 920.6C1528.98 937.9 1540.48 952.6 1544.68 964.1C1546.78 973 1542.58 978.8 1542.58 978.8ZM922.275 2024.2C922.675 2023.47 923.042 2022.93 923.375 2022.6L922.275 2024.2ZM1265.68 1129.8L898.675 977.3L1056.98 1151.3L1271.98 1241C1291.88 1249.3 1308.18 1255.1 1320.78 1259.3C1330.68 1261.4 1340.68 1263 1347.98 1261.9H1349.08C1350.81 1261.57 1352.54 1260.87 1354.28 1259.8C1355.38 1259.8 1355.88 1259.3 1355.88 1259.3L1356.38 1258.8C1362.68 1253 1356.38 1244.1 1356.38 1244.1L1351.18 1235.7C1345.38 1226.8 1338.58 1218.4 1334.88 1214.2L1265.68 1129.8ZM1097.88 1412.9L742.975 1265.1L901.775 1440.2L1104.18 1524.1C1123.58 1532.5 1139.88 1538.2 1152.98 1542.4C1161.38 1544.5 1170.28 1546.1 1177.58 1545C1179.71 1545 1181.81 1544.67 1183.88 1544H1184.48C1196.98 1539.8 1188.08 1526.2 1188.08 1526.2L1181.78 1516.7C1176.08 1508.9 1169.78 1501 1167.18 1496.8L1097.88 1412.9ZM929.475 1696.5L579.775 1550.8L880.275 1919.3C903.275 1946.6 917.975 1966.5 927.375 1982.8C1010.28 1844.4 1022.88 1823.4 1024.98 1819.7V1819.2L1024.38 1817.6C1020.78 1807.7 1004.48 1788.3 998.175 1780.4L929.475 1696.5ZM646.375 1334.8L487.475 1159.7L270.475 1070C249.475 1061.1 232.675 1054.8 219.575 1050.6C211.675 1048.5 203.875 1047.5 196.975 1047.5C195.242 1047.5 193.875 1047.83 192.875 1048.5C191.075 1048.83 189.475 1049.2 188.075 1049.6C187.409 1049.6 187.075 1049.93 187.075 1050.6C186.742 1050.6 186.375 1050.97 185.975 1051.7C180.775 1056.9 186.575 1064.3 186.575 1064.3L192.275 1074.2C195.475 1080 200.675 1086.8 208.075 1096.2L278.275 1181.2L646.375 1334.8ZM326.075 1446.4L102.675 1353.1C81.6752 1344.2 64.8752 1337.9 50.7752 1334.2C42.3752 1332.1 33.9752 1330.6 27.1752 1331.6H25.0752C22.6085 1331.93 20.6752 1332.63 19.2752 1333.7C18.7752 1333.7 17.7752 1334.2 16.6752 1335.8C16.6752 1336.3 15.6752 1336.9 15.6752 1336.9C15.0752 1340 15.6752 1342.6 16.6752 1344.7C17.0085 1346.1 17.7085 1347.5 18.7752 1348.9L22.9752 1355.7C26.0752 1361.5 31.8752 1369.9 40.2752 1379.8L711.975 2202.4C734.475 2230.2 749.675 2250.6 759.675 2265.9C841.975 2127.4 854.575 2106.5 856.675 2102.8L856.075 2101.8C852.475 2091.8 836.675 2071.4 830.475 2064.5L326.075 1446.4ZM524.775 1175.4L682.575 1350.5L863.975 1426L705.675 1250.9L524.775 1175.4ZM446.075 899.1L802.075 1046.9L643.775 872.4L438.775 786.9C417.775 778 400.975 772.2 387.875 768C380.075 765.9 371.675 765.4 365.375 765.4C363.642 765.4 362.242 765.567 361.175 765.9C359.775 765.9 358.375 766.1 356.975 766.5C356.475 767.5 355.375 767.5 354.875 768C348.575 772.8 354.875 782.7 354.875 782.7L360.675 792.7C364.775 798.4 369.575 805.3 376.375 813.6L446.075 899.1ZM680.975 888.1L838.775 1062.2L1020.68 1137.7L862.375 963.6L680.975 888.1ZM613.875 616.6L964.075 761.8L663.175 393.2C641.075 366.5 625.875 345.5 615.975 327.7C601.275 353.4 521.575 487.1 518.975 491.3C519.475 493.9 523.175 504.4 544.675 531.6L613.875 616.6ZM1524.08 962.6L1517.78 952.7C1512.58 944.8 1506.28 937.5 1502.58 933.3L830.875 110.7C808.375 84 793.175 63 784.275 45.2C768.475 70.3 689.375 203.5 686.775 208.8C687.275 211.4 690.875 221.9 712.375 248.6L1217.38 867.2L1439.68 959.5C1460.08 968.9 1475.88 974.2 1489.48 978.4C1502.08 981.5 1514.68 982.6 1521.98 979.4C1523.08 978.4 1523.58 978.4 1524.08 977.8H1525.08C1530.38 972.1 1524.08 962.6 1524.08 962.6Z" fill="#ffffff"/>
</svg></g></svg>