<svg xmlns="http://www.w3.org/2000/svg" width="40" height="40" viewBox="0 0 40 40"><circle cx="20" cy="20" r="20" fill="#dfd9ea"/><rect x="6" y="6" width="28" height="28" rx="7.9799999999999995" ry="7.9799999999999995" fill="#280070"/><g transform="translate(11.79764705882353, 11.32)"><svg width="16.40470588235294" height="17.36" viewBox="0 0 1494 1581" xmlns="http://www.w3.org/2000/svg"><linearGradient xmlns="http://www.w3.org/2000/svg" id="a" x1="0" x2="0" y1=".2" y2="1580.5" gradientUnits="userSpaceOnUse"><stop offset="0" stop-color="#ffffff"/><stop offset="1" stop-color="#ffffff"/></linearGradient><path xmlns="http://www.w3.org/2000/svg" fill="#ffffff" fill-rule="evenodd" d="M1493.8 26.5v263.4c0 14.6-11.9 26.3-26.6 26.3H346.8c-14.7 0-26.7 11.8-26.7 26.4v540.2c0 42-16.8 82.2-46.9 111.9L0 1264.4V26.5C0 12 11.9.2 26.7.2h1440.5c14.7 0 26.6 11.8 26.6 26.3M640.2 657.3c0-13.8 11.2-25 25-25h594.2c13.8 0 25 11.2 25 25v266.1c0 13.8-11.2 25-25 25H665.2c-13.8 0-25-11.2-25-25zm-367 876.8L0 1264.4h1467.2c14.7 0 26.6 11.8 26.6 26.3v263.4c0 14.5-11.9 26.3-26.6 26.3H386.5c-42.5.1-83.3-16.6-113.3-46.3"/></svg></g></svg>