<svg
  width="20"
  height="20"
  viewBox="0 0 20 20"
  fill="none"
  xmlns="http://www.w3.org/2000/svg"
>
  <g id="Frame 2147224536">
    <rect
      width="20"
      height="20"
      rx="10"
      fill="url(#paint0_linear_8023_141128)"
    />
    <path
      id="Vector"
      d="M14.0495 8.91584C14.2327 7.78416 13.4317 7.2604 12.9822 6.97129C12.5347 6.68218 11.8505 6.47426 11.8505 6.47426L12.2881 4.71188L11.2782 4.45842L10.8406 6.22079L10.0337 6.01683L10.4713 4.25446L9.44951 4L9.01188 5.76238L6.87624 5.22574L6.61683 6.27129C6.61683 6.27129 7.67129 6.53465 7.78713 6.56535C7.90594 6.59406 7.8901 6.65446 7.8802 6.69406C7.8703 6.73366 6.55347 12.0455 6.53366 12.1158C6.51782 12.1871 6.50594 12.2277 6.40792 12.205L5.28812 11.9238L5 13.0851L7.06733 13.603L6.64851 15.2881L7.7505 15.5644L8.16931 13.8782L8.85545 14.0505L8.43663 15.7366L9.48614 16L9.90594 14.3149L10.696 14.5129C11.2208 14.6446 13.2149 14.6693 13.6485 12.9178C14.0832 11.1653 12.6465 10.4238 12.6465 10.4238C12.6465 10.4238 13.8644 10.0475 14.0495 8.91584ZM11.6564 12.1653C11.4485 13.004 10.5129 13.0683 10.3 13.0139L8.42376 12.5446L8.97822 10.305L10.9238 10.7921C11.297 10.8871 11.8653 11.3267 11.6564 12.1653ZM12.003 8.75446C11.7812 9.64752 10.8901 9.60693 10.6089 9.53762L9.23762 9.19406L9.76634 7.06238L11.0178 7.37525C11.2317 7.42871 12.2257 7.86238 12.003 8.75446Z"
      fill="white"
    />
  </g>
  <defs>
    <linearGradient
      id="paint0_linear_8023_141128"
      x1="1.19048"
      y1="1.42857"
      x2="20"
      y2="15.2381"
      gradientUnits="userSpaceOnUse"
    >
      <stop stop-color="#2A2CBF" />
      <stop offset="1" stop-color="#AA68FF" />
    </linearGradient>
  </defs>
</svg>
