<svg
  xmlns="http://www.w3.org/2000/svg"
  width="32"
  height="32"
  viewBox="0 0 32 32"
  fill="none"
>
  <path
    d="M16 0C24.8374 0 32 7.16407 32 16C32 24.8374 24.8374 32 16 32C7.16407 32 0 24.8366 0 16C0 7.16407 7.16407 0 16 0Z"
    fill="#F5AC37"
  />
  <path
    d="M16.5896 17.1298H22.6694C22.799 17.1298 22.8602 17.1298 22.8695 16.9599C22.9192 16.3414 22.9192 15.7193 22.8695 15.1001C22.8695 14.9799 22.8098 14.9302 22.6795 14.9302H10.5797C10.43 14.9302 10.3897 14.9799 10.3897 15.1203V16.9001C10.3897 17.1298 10.3897 17.1298 10.6294 17.1298H16.5896ZM22.1906 12.8501C22.2079 12.8047 22.2079 12.7551 22.1906 12.7104C22.0891 12.4894 21.9688 12.2784 21.8291 12.0804C21.6189 11.742 21.3712 11.4302 21.089 11.1502C20.9558 10.981 20.8017 10.829 20.6289 10.7002C19.7634 9.96359 18.7345 9.44231 17.6286 9.18022C17.0706 9.05494 16.5004 8.99518 15.9287 9.00022H10.5589C10.4091 9.00022 10.3889 9.05998 10.3889 9.1903V12.7399C10.3889 12.8897 10.3889 12.93 10.579 12.93H22.1186C22.1186 12.93 22.2187 12.9099 22.2388 12.8501H22.1899H22.1906ZM22.1906 19.2099C22.0207 19.1912 21.8493 19.1912 21.6794 19.2099H10.5898C10.4401 19.2099 10.3897 19.2099 10.3897 19.4101V22.8805C10.3897 23.0404 10.3897 23.0807 10.5898 23.0807H15.7098C15.9546 23.0994 16.1994 23.0821 16.4392 23.031C17.1822 22.9777 17.913 22.8164 18.61 22.5508C18.8634 22.4629 19.1082 22.3484 19.3393 22.2109H19.4092C20.6094 21.5867 21.5843 20.606 22.1992 19.4022C22.1992 19.4022 22.2691 19.251 22.1906 19.2114V19.2099ZM8.38011 24.88V24.8202V22.4903V21.7004V19.3503C8.38011 19.22 8.38011 19.2006 8.22027 19.2006H6.05017C5.92993 19.2006 5.88025 19.2006 5.88025 19.0407V17.1406H8.20011C8.32971 17.1406 8.38011 17.1406 8.38011 16.9707V15.0908C8.38011 14.9705 8.38011 14.941 8.22027 14.941H6.05017C5.92993 14.941 5.88025 14.941 5.88025 14.7812V13.0215C5.88025 12.9113 5.88025 12.8818 6.04009 12.8818H8.19003C8.33979 12.8818 8.38011 12.8818 8.38011 12.6917V7.30172C8.38011 7.14188 8.38011 7.10156 8.58028 7.10156H16.0799C16.6242 7.12316 17.1649 7.18292 17.6999 7.28156C18.8022 7.48533 19.8613 7.87917 20.8298 8.4415C21.472 8.8195 22.0631 9.27598 22.5895 9.80159C22.9855 10.2127 23.3426 10.6577 23.6594 11.1314C23.974 11.6117 24.2354 12.1251 24.4406 12.6615C24.4658 12.8011 24.5997 12.8955 24.7394 12.8717H26.5293C26.759 12.8717 26.759 12.8717 26.7691 13.092V14.7322C26.7691 14.892 26.7093 14.9324 26.5488 14.9324H25.1685C25.0288 14.9324 24.9885 14.9324 24.9986 15.1124C25.0533 15.7215 25.0533 16.3328 24.9986 16.9419C24.9986 17.1118 24.9986 17.132 25.1894 17.132H26.7684C26.8382 17.222 26.7684 17.312 26.7684 17.4027C26.7785 17.5186 26.7785 17.636 26.7684 17.7519V18.9622C26.7684 19.1322 26.7187 19.1826 26.5682 19.1826H24.6782C24.5464 19.1574 24.4183 19.2416 24.388 19.3726C23.938 20.5427 23.218 21.5917 22.2878 22.4327C21.9479 22.7387 21.5908 23.0267 21.2178 23.2924C20.8175 23.5228 20.428 23.7625 20.0176 23.9526C19.2623 24.2925 18.4703 24.543 17.6574 24.7021C16.8856 24.8404 16.1029 24.903 15.3174 24.8922H8.37723V24.8821L8.38011 24.88Z"
    fill="#FEFEFD"
  />
</svg>
