<svg
  fill="none"
  height="20"
  viewBox="0 0 20 20"
  width="20"
  xmlns="http://www.w3.org/2000/svg"
>
  <rect fill="#FF6C15" height="20" rx="10" width="20" />
  <path
    d="M11.2016 3.7519C11.1372 3.74034 11.0767 3.78272 11.0653 3.84823L10.2895 8.3296H9.71049L8.93468 3.84823C8.92333 3.78272 8.86277 3.74034 8.79844 3.7519C6.04337 4.29521 3.93165 6.68425 3.75757 9.60504C3.75757 9.60889 3.75 9.7322 3.75 9.79385C3.75 9.80156 3.75 9.80926 3.75 9.81312C3.75 9.83624 3.75 9.85935 3.75 9.88247C3.75 9.89018 3.75 9.89789 3.75 9.90945C3.75 9.94027 3.75 9.96725 3.75 9.99807C3.75 13.0961 5.92227 15.674 8.80222 16.2442C8.86656 16.2558 8.92711 16.2134 8.93846 16.1479L9.71427 11.6665H10.2933L11.0653 16.1518C11.0767 16.2173 11.1372 16.2597 11.2016 16.2481C13.9566 15.7009 16.0646 13.3119 16.2424 10.3911C16.2424 10.3873 16.25 10.2639 16.25 10.2023C16.25 10.1946 16.25 10.1869 16.25 10.183C16.25 10.1599 16.25 10.1368 16.25 10.1137C16.25 10.106 16.25 10.0983 16.25 10.0867C16.25 10.0559 16.25 10.0289 16.25 9.99807C16.2538 6.90003 14.0815 4.32218 11.2016 3.7519Z"
    fill="white"
  />
</svg>
