<svg
  width="32"
  height="32"
  viewBox="0 0 32 32"
  fill="none"
  xmlns="http://www.w3.org/2000/svg"
>
  <mask
    id="mask0_6939_8584"
    style="mask-type: luminance"
    maskUnits="userSpaceOnUse"
    x="2"
    y="2"
    width="28"
    height="28"
  >
    <path d="M29.8825 2H2V30H29.8825V2Z" fill="white" />
  </mask>
  <g mask="url(#mask0_6939_8584)">
    <path
      d="M9.6625 30.0005C16.8471 30.0005 16.8471 29.8933 18.0658 29.532C19.6576 29.0595 13.5705 24.8457 9.6625 24.8457C5.75448 24.8457 2.58606 25.9999 2.58606 27.4233C2.58606 28.8467 5.75322 30.0005 9.6625 30.0005Z"
      fill="black"
    />
    <path
      d="M25.9768 8.08322L26.3073 8.43928L26.0188 8.82958C16.6482 21.4997 11.25 27.236 8.95956 26.467C7.56489 25.9981 6.16579 24.5889 4.76648 22.5423C4.27475 21.8228 3.81282 21.0652 3.39294 20.3117C3.11338 19.8096 2.87671 19.3519 2.75372 19.0941C2.62546 18.8423 2.533 18.5738 2.47902 18.2964L2.47268 18.2643C2.45155 18.1512 2.44309 18.1163 2.42661 18.053C1.78342 15.6291 1.86783 13.0696 2.66933 10.6934C3.47082 8.3172 4.95395 6.22945 6.93384 4.69038C8.91373 3.15132 11.3028 2.22901 13.8033 2.03842C16.3038 1.84783 18.805 2.39739 20.9953 3.6186L21.0439 3.64903C22.5889 4.72504 24.2332 6.20296 25.9768 8.08322ZM20.3981 4.6272C18.4079 3.52564 16.1378 3.03322 13.87 3.21114C11.6022 3.38905 9.43665 4.22946 7.64252 5.62792C5.84839 7.02638 4.50477 8.92122 3.77862 11.077C3.05247 13.2327 2.97582 15.5544 3.55819 17.7533C3.58355 17.8488 3.59517 17.9025 3.62158 18.0409L3.62687 18.0694C3.66268 18.2506 3.72468 18.4256 3.81092 18.5888C3.92313 18.8242 4.14902 19.2598 4.41612 19.7403C4.81994 20.4647 5.26349 21.1924 5.73323 21.8803C6.99773 23.729 8.25103 24.992 9.33231 25.3553C10.7749 25.8398 16.2048 20.0919 24.786 8.52465C23.4567 7.08275 21.9868 5.77713 20.3981 4.6272Z"
      fill="black"
    />
    <path
      d="M20.3984 4.62758C18.4082 3.52592 16.138 3.03344 13.8701 3.21133C11.6023 3.38922 9.43668 4.22964 7.6425 5.62814C5.84833 7.02663 4.50468 8.92155 3.77855 11.0774C3.05242 13.2332 2.97583 15.5549 3.55829 17.7539C3.58365 17.8494 3.59527 17.9031 3.62168 18.0415L3.62697 18.07C3.66256 18.2514 3.72442 18.4267 3.8106 18.5903C3.9228 18.8257 4.1487 19.2612 4.4158 19.7417C4.81962 20.4661 5.26316 21.1939 5.73291 21.8817C6.99741 23.7305 8.2507 24.9935 9.33199 25.3567C10.7755 25.8419 16.2047 20.0942 24.7864 8.52608C23.4571 7.08382 21.9871 5.77784 20.3984 4.62758Z"
      fill="#EC1C79"
    />
    <path
      d="M17.113 29.8844C14.5874 29.8844 12.1184 29.1355 10.0184 27.7323C7.91845 26.3291 6.28171 24.3348 5.31519 22.0014C4.34867 19.668 4.09579 17.1004 4.58851 14.6233C5.08124 12.1462 6.29745 9.87083 8.08335 8.08493C9.86924 6.29904 12.1446 5.08283 14.6217 4.5901C17.0988 4.09737 19.6664 4.35026 21.9998 5.31678C24.3332 6.2833 26.3276 7.92004 27.7307 10.02C29.1339 12.12 29.8828 14.5889 29.8828 17.1146C29.8829 18.7915 29.5526 20.4521 28.9108 22.0014C28.2691 23.5507 27.3285 24.9585 26.1427 26.1443C24.9569 27.3301 23.5491 28.2707 21.9998 28.9124C20.4505 29.5542 18.79 29.8844 17.113 29.8844ZM17.113 28.7129C19.4069 28.7129 21.6492 28.0326 23.5565 26.7582C25.4638 25.4837 26.9503 23.6723 27.8281 21.553C28.7059 19.4338 28.9355 17.1018 28.488 14.852C28.0405 12.6022 26.9358 10.5356 25.3138 8.91361C23.6918 7.2916 21.6252 6.18701 19.3754 5.73951C17.1256 5.29201 14.7936 5.52171 12.6743 6.39955C10.5551 7.27739 8.74369 8.76395 7.46928 10.6712C6.19488 12.5785 5.51466 14.8209 5.51466 17.1148C5.51472 20.1908 6.73668 23.1408 8.91173 25.3158C11.0868 27.4909 14.037 28.7128 17.113 28.7129Z"
      fill="black"
    />
    <path
      d="M17.1129 28.7123C19.4068 28.7123 21.6491 28.0321 23.5564 26.7577C25.4637 25.4833 26.9503 23.672 27.8281 21.5527C28.706 19.4334 28.9357 17.1014 28.4882 14.8516C28.0407 12.6018 26.9361 10.5352 25.3141 8.9132C23.6921 7.29117 21.6255 6.18654 19.3757 5.739C17.1259 5.29146 14.7939 5.52111 12.6746 6.39891C10.5553 7.27671 8.74395 8.76324 7.46951 10.6705C6.19507 12.5778 5.51481 14.8201 5.51477 17.114C5.51483 20.19 6.73679 23.14 8.91184 25.3151C11.0869 27.4901 14.0369 28.7123 17.1129 28.7123Z"
      fill="white"
    />
    <path
      fill-rule="evenodd"
      clip-rule="evenodd"
      d="M8.43692 19.4899L6.90173 14.8647H8.24695L9.0474 17.5217L9.93259 14.8516H11.0278L11.9134 17.5217L12.7139 14.8647H14.0329L12.4977 19.4899H11.3892L10.4643 16.8461L9.54547 19.4899H8.43692ZM14.5382 19.4573V14.8647H18.2319V15.9474H15.7982V16.6429H18.0024V17.6472H15.7982V18.3752H18.2644V19.458L14.5382 19.4573ZM20.0365 19.4573V15.98H18.659V14.8647H22.6864V15.98H21.3088V19.4571L20.0365 19.4573ZM23.2445 19.4573V14.8647H24.5174V16.5833H26.1508V14.8647H27.4242V19.4571H26.1508V17.7121H24.5174V19.4571L23.2445 19.4573Z"
      fill="black"
    />
    <path
      d="M2.76108 13.4833C2.60542 13.4055 2.48705 13.269 2.432 13.104C2.37696 12.9389 2.38975 12.7587 2.46757 12.603C2.54539 12.4473 2.68185 12.329 2.84694 12.2739C3.01204 12.2189 3.19224 12.2317 3.3479 12.3095L5.22203 13.2471C5.29908 13.2856 5.36779 13.3389 5.42424 13.4039C5.48069 13.469 5.52377 13.5445 5.55102 13.6262C5.57828 13.708 5.58917 13.7942 5.58309 13.8801C5.577 13.9661 5.55405 14.0499 5.51554 14.127C5.47704 14.204 5.42374 14.2727 5.35868 14.3292C5.29363 14.3856 5.21809 14.4287 5.13638 14.456C5.05467 14.4832 4.9684 14.4941 4.88248 14.488C4.79656 14.482 4.71269 14.459 4.63564 14.4205L2.76108 13.4833Z"
      fill="black"
    />
    <path
      d="M2.54536 16.5918C2.46715 16.5557 2.39681 16.5046 2.33835 16.4413C2.2799 16.3781 2.23448 16.3039 2.20468 16.2231C2.17488 16.1423 2.1613 16.0564 2.1647 15.9703C2.16809 15.8843 2.18841 15.7997 2.22448 15.7215C2.26056 15.6433 2.31169 15.573 2.37495 15.5145C2.43821 15.456 2.51236 15.4106 2.59317 15.3808C2.67399 15.351 2.75988 15.3374 2.84594 15.3408C2.93201 15.3442 3.01656 15.3646 3.09478 15.4006L4.96933 16.2653C5.1252 16.3395 5.24555 16.4721 5.30429 16.6345C5.36304 16.7968 5.35545 16.9757 5.28317 17.1325C5.21089 17.2892 5.07975 17.4112 4.91816 17.4719C4.75657 17.5327 4.57756 17.5273 4.41992 17.4569L2.54536 16.5918Z"
      fill="black"
    />
  </g>
</svg>
