<svg
  width="20"
  height="20"
  viewBox="0 0 20 20"
  fill="none"
  xmlns="http://www.w3.org/2000/svg"
>
  <g clip-path="url(#clip0_13489_8730)">
    <mask
      id="mask0_13489_8730"
      style="mask-type: luminance"
      maskUnits="userSpaceOnUse"
      x="1"
      y="1"
      width="18"
      height="18"
    >
      <path d="M18.6766 1.25H1.25V18.75H18.6766V1.25Z" fill="white" />
    </mask>
    <g mask="url(#mask0_13489_8730)">
      <path
        d="M6.03923 18.7501C10.5296 18.7501 10.5296 18.6831 11.2913 18.4573C12.2862 18.1619 8.48173 15.5283 6.03923 15.5283C3.59672 15.5283 1.61646 16.2497 1.61646 17.1393C1.61646 18.0289 3.59593 18.7501 6.03923 18.7501Z"
        fill="black"
      />
      <path
        d="M16.2355 5.05207L16.442 5.27461L16.2617 5.51855C10.4051 13.4374 7.03122 17.0226 5.59969 16.5419C4.72803 16.2489 3.85359 15.3681 2.97902 14.089C2.67169 13.6393 2.38298 13.1658 2.12056 12.6949C1.94583 12.3811 1.79791 12.095 1.72104 11.9339C1.64088 11.7765 1.58309 11.6087 1.54936 11.4353L1.54539 11.4152C1.53219 11.3446 1.5269 11.3227 1.5166 11.2832C1.11461 9.76825 1.16736 8.16856 1.6683 6.68344C2.16923 5.19831 3.09619 3.89347 4.33362 2.93155C5.57105 1.96964 7.06422 1.39319 8.62703 1.27407C10.1898 1.15495 11.7531 1.49843 13.122 2.26169L13.1524 2.2807C14.118 2.95321 15.1457 3.87691 16.2355 5.05207ZM12.7488 2.89206C11.5049 2.20359 10.0861 1.89582 8.66872 2.00702C7.25134 2.11822 5.89788 2.64347 4.77654 3.51751C3.65521 4.39155 2.81545 5.57582 2.36161 6.92319C1.90776 8.2705 1.85986 9.72156 2.22384 11.0959C2.23969 11.1556 2.24695 11.1891 2.26346 11.2756L2.26676 11.2934C2.28914 11.4067 2.32789 11.5161 2.38179 11.6181C2.45193 11.7652 2.59311 12.0374 2.76004 12.3377C3.01243 12.7905 3.28965 13.2453 3.58324 13.6752C4.37355 14.8307 5.15686 15.6201 5.83266 15.8471C6.73428 16.1499 10.128 12.5575 15.4912 5.32797C14.6604 4.42678 13.7417 3.61077 12.7488 2.89206Z"
        fill="black"
      />
      <path
        d="M12.7491 2.89224C11.5052 2.2037 10.0863 1.8959 8.66887 2.00708C7.2515 2.11826 5.89799 2.64352 4.77662 3.51759C3.65527 4.39164 2.81549 5.57597 2.36165 6.92337C1.90782 8.27075 1.85995 9.72181 2.22399 11.0962C2.23984 11.1559 2.2471 11.1894 2.26361 11.2759L2.26692 11.2937C2.28916 11.4071 2.32782 11.5167 2.38169 11.6189C2.45181 11.7661 2.593 12.0382 2.75994 12.3386C3.01232 12.7913 3.28954 13.2462 3.58313 13.6761C4.37344 14.8316 5.15675 15.6209 5.83255 15.8479C6.73475 16.1512 10.128 12.5589 15.4916 5.3288C14.6607 4.42739 13.742 3.61115 12.7491 2.89224Z"
        fill="#EC1C79"
      />
      <path
        d="M10.6955 18.6776C9.11702 18.6776 7.57389 18.2096 6.26139 17.3326C4.94892 16.4556 3.92596 15.2091 3.32189 13.7508C2.71781 12.2924 2.55976 10.6876 2.86771 9.13944C3.17567 7.59125 3.9358 6.16915 5.05199 5.05296C6.16817 3.93678 7.59027 3.17665 9.13846 2.86869C10.6866 2.56074 12.2914 2.71879 13.7498 3.32287C15.2081 3.92694 16.4546 4.9499 17.3316 6.26238C18.2086 7.57488 18.6766 9.11794 18.6766 10.6965C18.6767 11.7446 18.4703 12.7824 18.0691 13.7508C17.6681 14.7191 17.0802 15.5989 16.3391 16.3401C15.598 17.0812 14.7181 17.6691 13.7498 18.0701C12.7815 18.4713 11.7436 18.6776 10.6955 18.6776ZM10.6955 17.9454C12.1292 17.9454 13.5306 17.5203 14.7227 16.7238C15.9148 15.9272 16.8438 14.7951 17.3925 13.4705C17.9411 12.146 18.0846 10.6885 17.8049 9.28238C17.5252 7.87625 16.8348 6.58463 15.821 5.57089C14.8073 4.55713 13.5156 3.86676 12.1095 3.58707C10.7034 3.30739 9.24589 3.45095 7.92133 3.9996C6.59683 4.54825 5.4647 5.47735 4.66819 6.66938C3.87169 7.86144 3.44656 9.26294 3.44656 10.6966C3.44659 12.6191 4.21032 14.4629 5.56972 15.8223C6.92914 17.1817 8.77302 17.9454 10.6955 17.9454Z"
        fill="black"
      />
      <path
        d="M10.6956 17.9454C12.1293 17.9454 13.5307 17.5202 14.7228 16.7237C15.9149 15.9272 16.844 14.7952 17.3926 13.4706C17.9413 12.1461 18.0849 10.6886 17.8052 9.28243C17.5255 7.87631 16.8351 6.58468 15.8214 5.57093C14.8076 4.55716 13.516 3.86677 12.1099 3.58706C10.7037 3.30735 9.24623 3.45088 7.92167 3.9995C6.59711 4.54813 5.46501 5.47721 4.66849 6.66925C3.87196 7.86131 3.4468 9.26275 3.44678 10.6964C3.44681 12.6189 4.21054 14.4627 5.56995 15.8221C6.92936 17.1815 8.77311 17.9454 10.6956 17.9454Z"
        fill="white"
      />
      <path
        fill-rule="evenodd"
        clip-rule="evenodd"
        d="M5.27297 12.1812L4.31348 9.29041H5.15424L5.65452 10.951L6.20776 9.28223H6.89227L7.44577 10.951L7.94608 9.29041H8.77046L7.81096 12.1812H7.11815L6.54008 10.5288L5.96581 12.1812H5.27297ZM9.08627 12.1608V9.29041H11.3948V9.9671H9.87377V10.4018H11.2514V11.0295H9.87377V11.4845H11.4151V12.1612L9.08627 12.1608ZM12.5227 12.1608V9.98748H11.6618V9.29041H14.1789V9.98748H13.3179V12.1607L12.5227 12.1608ZM14.5277 12.1608V9.29041H15.3233V10.3645H16.3441V9.29041H17.14V12.1607H16.3441V11.07H15.3233V12.1607L14.5277 12.1608Z"
        fill="black"
      />
      <path
        d="M1.72575 8.4273C1.62846 8.37867 1.55448 8.29336 1.52008 8.19024C1.48568 8.08705 1.49367 7.97442 1.54231 7.87711C1.59095 7.7798 1.67623 7.70586 1.77941 7.67142C1.8826 7.63705 1.99523 7.64505 2.09251 7.69367L3.26385 8.27967C3.312 8.30374 3.35495 8.33705 3.39023 8.37767C3.42551 8.41836 3.45243 8.46555 3.46946 8.51661C3.4865 8.56774 3.49331 8.62161 3.48951 8.6753C3.4857 8.72905 3.47136 8.78142 3.44729 8.82961C3.42323 8.87774 3.38991 8.92067 3.34925 8.95599C3.3086 8.99124 3.26138 9.01817 3.21031 9.03524C3.15925 9.05224 3.10533 9.05905 3.05163 9.05524C2.99793 9.05149 2.94551 9.03711 2.89735 9.01305L1.72575 8.4273Z"
        fill="black"
      />
      <path
        d="M1.59102 10.3696C1.54213 10.347 1.49817 10.3151 1.46163 10.2755C1.4251 10.236 1.39672 10.1897 1.37809 10.1392C1.35947 10.0887 1.35098 10.035 1.3531 9.98116C1.35522 9.92741 1.36792 9.87453 1.39047 9.82566C1.41302 9.77678 1.44497 9.73285 1.48451 9.69628C1.52405 9.65972 1.57039 9.63135 1.6209 9.61272C1.67141 9.5941 1.72509 9.5856 1.77888 9.58772C1.83267 9.58985 1.88552 9.6026 1.9344 9.6251L3.106 10.1655C3.20342 10.2119 3.27863 10.2948 3.31535 10.3963C3.35207 10.4977 3.34732 10.6095 3.30215 10.7075C3.25697 10.8055 3.17501 10.8817 3.07402 10.9197C2.97302 10.9577 2.86114 10.9543 2.76262 10.9103L1.59102 10.3696Z"
        fill="black"
      />
    </g>
  </g>
  <rect x="10.5" y="10.5" width="9" height="9" rx="2.5" fill="#FFEBD4" />
  <rect x="10.5" y="10.5" width="9" height="9" rx="2.5" stroke="white" />
  <path
    d="M15.5767 12.0009C15.5459 11.9954 15.5168 12.0157 15.5114 12.0472L15.139 14.1982H14.861L14.4886 12.0472C14.4832 12.0157 14.4541 11.9954 14.4233 12.0009C13.1008 12.2617 12.0872 13.4084 12.0036 14.8104C12.0036 14.8123 12 14.8715 12 14.901C12 14.9047 12 14.9084 12 14.9103C12 14.9214 12 14.9325 12 14.9436C12 14.9473 12 14.951 12 14.9565C12 14.9713 12 14.9843 12 14.9991C12 16.4861 13.0427 17.7235 14.4251 17.9972C14.4559 18.0028 14.485 17.9824 14.4905 17.951L14.8629 15.7999H15.1408L15.5114 17.9529C15.5168 17.9843 15.5459 18.0046 15.5767 17.9991C16.8992 17.7364 17.911 16.5897 17.9964 15.1877C17.9964 15.1859 18 15.1267 18 15.0971C18 15.0934 18 15.0897 18 15.0879C18 15.0768 18 15.0657 18 15.0546C18 15.0509 18 15.0472 18 15.0416C18 15.0268 18 15.0139 18 14.9991C18.0018 13.512 16.9591 12.2746 15.5767 12.0009Z"
    fill="#FF6C15"
  />
  <defs>
    <clipPath id="clip0_13489_8730">
      <rect width="20" height="20" fill="white" />
    </clipPath>
  </defs>
</svg>
