<svg width="512" height="512" viewBox="0 0 512 512" fill="none" xmlns="http://www.w3.org/2000/svg">
<rect width="512" height="512" fill="#EFECE6"/>
<path d="M225.876 308.938C208.459 308.938 192.876 305.156 179.126 297.594C165.605 290.031 154.949 279.719 147.157 266.656C139.595 253.365 135.813 238.583 135.813 222.313C135.813 206.042 139.595 191.375 147.157 178.313C154.949 165.021 165.605 154.594 179.126 147.031C192.876 139.469 208.459 135.687 225.876 135.687H235.845V96.5H276.407V135.687H376.439V174.188H224.157C209.72 174.188 197.803 178.771 188.407 187.938C179.011 197.104 174.313 208.563 174.313 222.313C174.313 236.063 179.011 247.521 188.407 256.688C197.803 265.854 209.72 270.438 224.157 270.438H288.782C294.97 270.438 299.897 272.271 303.564 275.938C307.23 279.604 309.064 284.188 309.064 289.688C309.064 295.188 307.23 299.771 303.564 303.438C299.897 307.104 294.97 308.938 288.782 308.938H225.876ZM135.813 337.813H288.095C302.532 337.813 314.449 333.229 323.845 324.063C333.241 314.896 337.939 303.438 337.939 289.688C337.939 275.938 333.241 264.479 323.845 255.313C314.449 246.146 302.532 241.563 288.095 241.563H223.47C217.282 241.563 212.355 239.729 208.689 236.063C205.022 232.396 203.188 227.813 203.188 222.313C203.188 216.813 205.022 212.229 208.689 208.562C212.355 204.896 217.282 203.063 223.47 203.063H286.376C303.793 203.063 319.261 206.844 332.782 214.406C346.532 221.969 357.189 232.396 364.751 245.688C372.543 258.75 376.439 273.417 376.439 289.688C376.439 305.958 372.543 320.74 364.751 334.031C357.189 347.094 346.532 357.406 332.782 364.969C319.261 372.531 303.793 376.313 286.376 376.313H276.407V415.5H235.845V376.313H135.813V337.813Z" fill="#1C1A17"/>
</svg>
