<svg width="170" height="170" viewBox="0 0 170 170" fill="none" xmlns="http://www.w3.org/2000/svg">
<rect width="170" height="170" fill="#FFF533"/>
<circle cx="85" cy="85" r="85" fill="#FFF533"/>
<path d="M99.436 56.1185L98.6956 58.1486L94.3343 70.1361L86.3114 92.1765L80.5852 107.909C80.5852 107.909 80.5771 107.905 80.573 107.905C80.4815 108.181 80.3859 108.458 80.2842 108.733C78.6914 113.08 76.0815 116.937 72.7414 120.012C72.7414 120.012 72.7414 120.014 72.7394 120.014C67.6132 124.736 60.7702 127.614 53.2559 127.614C50.1782 127.614 47.2103 127.132 44.4296 126.237C41.5308 125.303 38.8335 123.924 36.4169 122.177C35.4873 121.505 34.5983 120.781 33.7582 120.006C33.7602 120.006 33.7602 120.004 33.7602 120.004H33.7623C34.1589 120.035 34.5637 120.049 34.9686 120.049C35.7415 120.049 36.5003 119.996 37.2448 119.894C43.4348 119.052 48.5468 114.819 50.6542 109.123C50.6725 109.079 50.6888 109.032 50.705 108.985L63.6547 73.405C63.8072 72.9961 63.9679 72.5893 64.1388 72.1906C64.45 71.4623 64.7938 70.7524 65.1681 70.0608C69.6413 61.7613 78.4147 56.1185 88.5063 56.1185H99.432H99.436Z" fill="black"/>
<path d="M143.479 42.1783L142.731 44.2329L138.406 56.1186L124.627 93.985L119.378 108.399L119.258 108.731C115.225 119.75 104.645 127.614 92.2302 127.614C89.1097 127.614 86.1052 127.118 83.2919 126.2C80.4359 125.269 77.7793 123.902 75.3932 122.177H75.3912C74.4656 121.51 73.5828 120.79 72.7447 120.017C73.0986 120.039 73.4546 120.051 73.8147 120.051C74.6344 120.051 75.44 119.992 76.2272 119.876H76.2292C82.3684 118.989 87.4274 114.762 89.5125 109.093C89.5145 109.095 89.5166 109.093 89.5166 109.093L102.969 72.1318L106.299 62.98L107.438 59.8534L107.659 59.2431C108.068 58.1671 108.546 57.1235 109.087 56.1186C113.418 48.0755 121.783 42.5242 131.47 42.1783H143.479Z" fill="black"/>
<path d="M55.3584 70.1339L47.3763 92.0665L39.4633 113.802C38.4584 116.548 36.3937 118.781 33.7635 120.002H33.7594C28.3281 115 24.8273 107.927 24.5038 100.036C24.4876 99.6398 24.4794 99.237 24.4794 98.8363C24.4794 95.4005 25.0816 92.1051 26.1861 89.0518C30.1914 77.9757 40.7997 70.0586 53.2571 70.0586C53.965 70.0586 54.6647 70.085 55.3584 70.1339Z" fill="black"/>
</svg>
