<?xml version="1.0" encoding="utf-8"?>
<!-- Generator: Adobe Illustrator 25.0.1, SVG Export Plug-In . SVG Version: 6.00 Build 0)  -->
<!-- Modified manually Nov 19th by NE team to comply with guidelines -->
<svg version="1.1" id="Layer_1" xmlns="http://www.w3.org/2000/svg" xmlns:xlink="http://www.w3.org/1999/xlink" x="512" y="512" viewBox="0 0 512 512" xml:space="preserve" >
<rect width="100%" height="100%" fill="#E6ECEA" />
<g id="Layer_x0020_1" transform="scale(4) translate(9.5,9.5)">
	<g id="_443267776">
    	<linearGradient id="_443267680_1_" gradientUnits="userSpaceOnUse" x1="-22.8218" y1="120.6972" x2="19.048" y2="84.4609" gradientTransform="matrix(2.7414 0 0 -2.7414 59.3225 335.6769)">
			<stop  offset="0" style="stop-color:#F7E887"/>
			<stop  offset="0.1412" style="stop-color:#F7E887"/>
			<stop  offset="0.302" style="stop-color:#B1823A"/>
			<stop  offset="0.502" style="stop-color:#E6B963"/>
			<stop  offset="0.7294" style="stop-color:#B08239"/>
			<stop  offset="0.8" style="stop-color:#C19F56"/>
			<stop  offset="0.8314" style="stop-color:#F5E588"/>
			<stop  offset="0.8784" style="stop-color:#B0823A"/>
			<stop  offset="0.9098" style="stop-color:#8E5C24"/>
			<stop  offset="0.9412" style="stop-color:#864C23"/>
			<stop  offset="1" style="stop-color:#27190E"/>
		</linearGradient>
		<path id="_443267680" style="fill:url(#_443267680_1_);" d="M102.6,39.3c-4.2-4.2-9.8-6.5-15.7-6.5c-5.9,0-11.5,2.3-15.7,6.5l-5.9,5.9l-0.7-0.7l5.9-5.9
			c8.7-8.7,8.7-22.8,0-31.4C66.3,3,60.7,0.7,54.8,0.7c-5.9,0-11.5,2.3-15.7,6.5c-8.7,8.7-8.7,22.8,0,31.4l5.9,5.9l-0.7,0.7l-5.9-5.9
			c-4.2-4.2-9.8-6.5-15.7-6.5c-5.9,0-11.5,2.3-15.7,6.5C-1.7,48-1.7,62,6.9,70.7c4.2,4.2,9.8,6.5,15.7,6.5c5.9,0,11.5-2.3,15.7-6.5
			l5.9-5.9l0.7,0.7l-5.9,5.9c-8.7,8.7-8.7,22.8,0,31.4c4.2,4.2,9.8,6.5,15.7,6.5c5.9,0,11.5-2.3,15.7-6.5c8.7-8.7,8.7-22.8,0-31.4
			l-5.9-5.9l0.7-0.7l5.9,5.9c4.2,4.2,9.8,6.5,15.7,6.5c5.9,0,11.5-2.3,15.7-6.5c4.2-4.2,6.5-9.8,6.5-15.7S106.8,43.5,102.6,39.3
			L102.6,39.3z M63.9,46.6L63.9,46.6L62.5,48l-0.7-0.7l1.4-1.4L63.9,46.6z M62.5,53.6L62.5,53.6l-1.4-1.4l1.4-1.4l1.4,1.4L62.5,53.6
			z M65.3,53.6L65.3,53.6l1.4,1.4l-1.4,1.4L63.9,55L65.3,53.6z M54.8,75.4L54.8,75.4l5.9,5.9c1.6,1.6,2.4,3.6,2.4,5.9
			c0,2.2-0.9,4.3-2.4,5.9c-1.6,1.6-3.6,2.4-5.9,2.4c-2.2,0-4.3-0.9-5.9-2.4c-1.6-1.6-2.4-3.6-2.4-5.9c0-2.2,0.9-4.3,2.4-5.9
			L54.8,75.4L54.8,75.4z M47.5,79.8L47.5,79.8c-1.9,1.9-3,4.5-3,7.3c0,2.7,1.1,5.3,3,7.3c1.9,1.9,4.5,3,7.3,3c2.7,0,5.3-1.1,7.3-3
			c1.9-1.9,3-4.5,3-7.3c0-2.7-1.1-5.3-3-7.3L56.2,74l1.4-1.4l5.9,5.9c2.3,2.3,3.6,5.4,3.6,8.7c0,3.3-1.3,6.4-3.6,8.7
			c-2.3,2.3-5.4,3.6-8.7,3.6c-3.3,0-6.4-1.3-8.7-3.6c-2.3-2.3-3.6-5.4-3.6-8.7c0-3.3,1.3-6.4,3.6-8.7l5.9-5.9l1.4,1.4L47.5,79.8z
			 M54.8,72.6L54.8,72.6l-1.4-1.4l1.4-1.4l1.4,1.4L54.8,72.6z M54.8,67L54.8,67l-1.4-1.4l1.4-1.4l1.4,1.4L54.8,67z M54.8,61.3
			L54.8,61.3l-1.4-1.4l1.4-1.4l1.4,1.4L54.8,61.3z M54.8,34.6L54.8,34.6l-5.9-5.9c-1.6-1.6-2.4-3.6-2.4-5.9c0-2.2,0.9-4.3,2.4-5.9
			c1.6-1.6,3.6-2.4,5.9-2.4c2.2,0,4.3,0.9,5.9,2.4c1.6,1.6,2.4,3.6,2.4,5.9c0,2.2-0.9,4.3-2.4,5.9L54.8,34.6L54.8,34.6z M62,30.2
			L62,30.2c1.9-1.9,3-4.5,3-7.3c0-2.7-1.1-5.3-3-7.3c-1.9-1.9-4.5-3-7.3-3c-2.7,0-5.3,1.1-7.3,3c-1.9,1.9-3,4.5-3,7.3
			c0,2.7,1.1,5.3,3,7.3l5.9,5.9L52,37.4l-5.9-5.9c-4.8-4.8-4.8-12.6,0-17.3c2.3-2.3,5.4-3.6,8.7-3.6c3.3,0,6.4,1.3,8.7,3.6
			c2.3,2.3,3.6,5.4,3.6,8.7c0,3.3-1.3,6.4-3.6,8.7l-5.9,5.9L56.2,36L62,30.2z M54.8,37.4L54.8,37.4l1.4,1.4l-1.4,1.4l-1.4-1.4
			L54.8,37.4z M54.8,43L54.8,43l1.4,1.4l-1.4,1.4l-1.4-1.4L54.8,43z M54.8,48.7L54.8,48.7l1.4,1.4l-1.4,1.4l-1.4-1.4L54.8,48.7z
			 M55.5,55L55.5,55l-0.7,0.7L54.1,55l0.7-0.7L55.5,55z M56.9,53.6L56.9,53.6l-0.7-0.7l1.4-1.4l0.7,0.7L56.9,53.6z M53.4,52.9
			L53.4,52.9l-0.7,0.7l-1.4-1.4l0.7-0.7L53.4,52.9z M51.2,55L51.2,55l-1.4,1.4L48.4,55l1.4-1.4L51.2,55z M52.7,56.4L52.7,56.4
			l0.7,0.7L52,58.5l-0.7-0.7L52.7,56.4z M56.2,57.1L56.2,57.1l0.7-0.7l1.4,1.4l-0.7,0.7L56.2,57.1z M58.3,55L58.3,55l1.4-1.4
			l1.4,1.4l-1.4,1.4L58.3,55z M59.7,50.8L59.7,50.8L59,50.1l1.4-1.4l0.7,0.7L59.7,50.8z M57.6,48.7L57.6,48.7l-1.4-1.4l1.4-1.4
			l1.4,1.4L57.6,48.7z M59,44.5L59,44.5l1.4-1.4l1.4,1.4l-1.4,1.4L59,44.5z M57.6,43L57.6,43l-1.4-1.4l1.4-1.4l1.4,1.4L57.6,43z
			 M59,38.8L59,38.8l5.9-5.9c5.6-5.6,5.6-14.6,0-20.2c-2.7-2.7-6.3-4.2-10.1-4.2c-3.8,0-7.4,1.5-10.1,4.2c-5.6,5.6-5.6,14.6,0,20.2
			l5.9,5.9l-1.4,1.4l-5.9-5.9c-6.3-6.3-6.3-16.6,0-23c3.2-3.2,7.3-4.7,11.5-4.7c4.2,0,8.3,1.6,11.5,4.8c3.1,3.1,4.8,7.1,4.8,11.5
			c0,4.3-1.7,8.4-4.8,11.5l-5.9,5.9L59,38.8L59,38.8z M52,40.2L52,40.2l1.4,1.4L52,43l-1.4-1.4L52,40.2z M50.5,44.5L50.5,44.5
			l-1.4,1.4l-1.4-1.4l1.4-1.4L50.5,44.5z M52,45.9L52,45.9l1.4,1.4L52,48.7l-1.4-1.4L52,45.9z M50.5,50.1L50.5,50.1l-0.7,0.7
			l-1.4-1.4l0.7-0.7L50.5,50.1z M48.4,52.2L48.4,52.2L47,53.6l-1.4-1.4l1.4-1.4L48.4,52.2z M45.6,55L45.6,55l-1.4,1.4L42.8,55
			l1.4-1.4L45.6,55z M44.2,50.8L44.2,50.8l-1.4-1.4l1.4-1.4l1.4,1.4L44.2,50.8z M42.8,52.2L42.8,52.2l-1.4,1.4L40,52.2l1.4-1.4
			L42.8,52.2z M35.8,53.6L35.8,53.6l-5.9-5.9c-1.9-1.9-4.5-3-7.3-3c-2.7,0-5.3,1.1-7.3,3c-1.9,1.9-3,4.5-3,7.3c0,2.7,1.1,5.3,3,7.3
			c1.9,1.9,4.5,3,7.3,3c2.7,0,5.3-1.1,7.3-3l5.9-5.9l1.4,1.4l-5.9,5.9c-2.3,2.3-5.4,3.6-8.7,3.6c-3.3,0-6.4-1.3-8.7-3.6
			c-2.3-2.3-3.6-5.4-3.6-8.7c0-3.3,1.3-6.4,3.6-8.7c2.3-2.3,5.4-3.6,8.7-3.6s6.4,1.3,8.7,3.6l5.9,5.9L35.8,53.6L35.8,53.6z M34.4,55
			L34.4,55l-5.9,5.9c-1.6,1.6-3.6,2.4-5.9,2.4c-2.2,0-4.3-0.9-5.9-2.4c-1.6-1.6-2.4-3.6-2.4-5.9c0-2.2,0.9-4.3,2.4-5.9
			c1.6-1.6,3.6-2.4,5.9-2.4c2.2,0,4.3,0.9,5.9,2.4L34.4,55L34.4,55z M37.2,55L37.2,55l1.4-1.4L40,55l-1.4,1.4L37.2,55z M38.6,50.8
			L38.6,50.8l-5.9-5.9c-2.7-2.7-6.3-4.2-10.1-4.2c-3.8,0-7.4,1.5-10.1,4.2C9.9,47.6,8.4,51.2,8.4,55c0,3.8,1.5,7.4,4.2,10.1
			c2.7,2.7,6.3,4.2,10.1,4.2c3.8,0,7.4-1.5,10.1-4.2l5.9-5.9l1.4,1.4l-5.9,5.9c-3.1,3.1-7.1,4.8-11.5,4.8c-4.3,0-8.4-1.7-11.5-4.8
			c-6.3-6.3-6.3-16.6,0-23c3.1-3.1,7.1-4.8,11.5-4.8c4.3,0,8.4,1.7,11.5,4.8l5.9,5.9L38.6,50.8L38.6,50.8z M40,57.8L40,57.8l1.4-1.4
			l1.4,1.4l-1.4,1.4L40,57.8z M44.2,59.2L44.2,59.2l1.4,1.4L44.2,62l-1.4-1.4L44.2,59.2z M45.6,57.8L45.6,57.8l1.4-1.4l1.4,1.4
			L47,59.2L45.6,57.8z M49.8,59.2L49.8,59.2l0.7,0.7l-1.4,1.4l-0.7-0.7L49.8,59.2z M52,61.3L52,61.3l1.4,1.4L52,64.1l-1.4-1.4
			L52,61.3z M50.5,65.5L50.5,65.5L49.1,67l-1.4-1.4l1.4-1.4L50.5,65.5z M52,67L52,67l1.4,1.4L52,69.8l-1.4-1.4L52,67z M50.5,71.2
			L50.5,71.2L44.7,77c-2.7,2.7-4.2,6.3-4.2,10.1c0,3.8,1.5,7.4,4.2,10.1c2.7,2.7,6.3,4.2,10.1,4.2c3.8,0,7.4-1.5,10.1-4.2
			c2.7-2.7,4.2-6.3,4.2-10.1c0-3.8-1.5-7.4-4.2-10.1L59,71.2l1.4-1.4l5.9,5.9c3.1,3.1,4.8,7.1,4.8,11.5c0,4.3-1.7,8.4-4.8,11.5
			c-6.3,6.3-16.6,6.3-23,0c-6.3-6.3-6.3-16.6,0-23l5.9-5.9L50.5,71.2L50.5,71.2z M57.6,69.8L57.6,69.8l-1.4-1.4l1.4-1.4l1.4,1.4
			L57.6,69.8z M59,65.5L59,65.5l1.4-1.4l1.4,1.4L60.4,67L59,65.5z M57.6,64.1L57.6,64.1l-1.4-1.4l1.4-1.4l1.4,1.4L57.6,64.1z
			 M59,59.9L59,59.9l0.7-0.7l1.4,1.4l-0.7,0.7L59,59.9z M61.1,57.8L61.1,57.8l1.4-1.4l1.4,1.4l-1.4,1.4L61.1,57.8z M65.3,59.2
			L65.3,59.2l1.4,1.4L65.3,62l-1.4-1.4L65.3,59.2z M66.7,57.8L66.7,57.8l1.4-1.4l1.4,1.4l-1.4,1.4L66.7,57.8z M73.8,56.4L73.8,56.4
			l5.9,5.9c1.9,1.9,4.5,3,7.3,3c2.7,0,5.3-1.1,7.3-3c1.9-1.9,3-4.5,3-7.3c0-2.7-1.1-5.3-3-7.3c-1.9-1.9-4.5-3-7.3-3
			c-2.7,0-5.3,1.1-7.3,3l-5.9,5.9l-1.4-1.4l5.9-5.9c2.3-2.3,5.4-3.6,8.7-3.6s6.4,1.3,8.7,3.6c2.3,2.3,3.6,5.4,3.6,8.7
			s-1.3,6.4-3.6,8.7c-2.3,2.3-5.4,3.6-8.7,3.6c-3.3,0-6.4-1.3-8.7-3.6l-5.9-5.9L73.8,56.4L73.8,56.4z M75.2,55L75.2,55l5.9-5.9
			c1.6-1.6,3.6-2.4,5.9-2.4c2.2,0,4.3,0.9,5.9,2.4c1.6,1.6,2.4,3.6,2.4,5.9c0,2.2-0.9,4.3-2.4,5.9c-1.6,1.6-3.6,2.4-5.9,2.4
			c-2.2,0-4.3-0.9-5.9-2.4L75.2,55L75.2,55z M72.3,55L72.3,55l-1.4,1.4L69.5,55l1.4-1.4L72.3,55z M70.9,59.2L70.9,59.2l5.9,5.9
			c2.7,2.7,6.3,4.2,10.1,4.2c3.8,0,7.4-1.5,10.1-4.2c2.7-2.7,4.2-6.3,4.2-10.1c0-3.8-1.5-7.4-4.2-10.1c-2.7-2.7-6.3-4.2-10.1-4.2
			c-3.8,0-7.4,1.5-10.1,4.2l-5.9,5.9l-1.4-1.4l5.9-5.9c6.3-6.3,16.6-6.3,23,0c6.3,6.3,6.3,16.6,0,23c-6.3,6.3-16.6,6.3-23,0
			l-5.9-5.9L70.9,59.2L70.9,59.2z M69.5,52.2L69.5,52.2l-1.4,1.4l-1.4-1.4l1.4-1.4L69.5,52.2z M65.3,50.8L65.3,50.8l-1.4-1.4
			l1.4-1.4l1.4,1.4L65.3,50.8z M40.5,37.2L40.5,37.2c-7.9-7.9-7.9-20.7,0-28.6c3.8-3.8,8.9-5.9,14.3-5.9c5.4,0,10.5,2.1,14.3,5.9
			c7.9,7.9,7.9,20.7,0,28.6L63.2,43l-1.4-1.4l5.9-5.9c7.1-7.1,7.1-18.7,0-25.8C60.5,2.9,49,2.9,41.9,10c-7.1,7.1-7.1,18.7,0,25.8
			l5.9,5.9L46.3,43L40.5,37.2L40.5,37.2z M46.3,45.9L46.3,45.9l1.4,1.4L47,48l-1.4-1.4L46.3,45.9z M36.9,69.3L36.9,69.3
			c-3.8,3.8-8.9,5.9-14.3,5.9c-5.4,0-10.5-2.1-14.3-5.9c-7.9-7.9-7.9-20.7,0-28.6c3.8-3.8,8.9-5.9,14.3-5.9c5.4,0,10.5,2.1,14.3,5.9
			l5.9,5.9L41.4,48l-5.9-5.9c-3.4-3.4-8-5.3-12.9-5.3c-4.9,0-9.4,1.9-12.9,5.3c-7.1,7.1-7.1,18.7,0,25.8c3.4,3.4,8,5.3,12.9,5.3
			c4.9,0,9.4-1.9,12.9-5.3l5.9-5.9l1.4,1.4L36.9,69.3L36.9,69.3z M45.6,63.4L45.6,63.4L47,62l0.7,0.7l-1.4,1.4L45.6,63.4z
			 M69.1,72.8L69.1,72.8c7.9,7.9,7.9,20.7,0,28.6c-3.8,3.8-8.9,5.9-14.3,5.9s-10.5-2.1-14.3-5.9c-7.9-7.9-7.9-20.7,0-28.6l5.9-5.9
			l1.4,1.4l-5.9,5.9c-7.1,7.1-7.1,18.7,0,25.8c3.6,3.6,8.2,5.3,12.9,5.3c4.7,0,9.3-1.8,12.9-5.3c3.4-3.4,5.3-8,5.3-12.9
			c0-4.9-1.9-9.5-5.3-12.9l-5.9-5.9l1.4-1.4L69.1,72.8L69.1,72.8z M63.2,64.1L63.2,64.1l-1.4-1.4l0.7-0.7l1.4,1.4L63.2,64.1z
			 M101.2,69.3L101.2,69.3c-3.8,3.8-8.9,5.9-14.3,5.9s-10.5-2.1-14.3-5.9l-5.9-5.9l1.4-1.4l5.9,5.9c3.6,3.6,8.2,5.3,12.9,5.3
			c4.7,0,9.3-1.8,12.9-5.3c7.1-7.1,7.1-18.7,0-25.8C92.7,35,81.1,35,74,42.1L68.1,48l-1.4-1.4l5.9-5.9c3.8-3.8,8.9-5.9,14.3-5.9
			s10.5,2.1,14.3,5.9c3.8,3.8,5.9,8.9,5.9,14.3C107.1,60.4,105,65.5,101.2,69.3L101.2,69.3z"/>
		</g>
	</g>
</svg>
