<svg width="40" height="40" viewBox="0 0 40 40" fill="none" xmlns="http://www.w3.org/2000/svg">
<rect width="40" height="40" rx="20" fill="black"/>
<g clip-path="url(#clip0_10_7818)">
<path d="M12.9725 35.7373C21.0158 35.7373 21.0158 35.6175 22.3796 35.2127C24.1618 34.6836 17.3476 29.9668 12.9725 29.9668C8.59746 29.9668 5.05078 31.2586 5.05078 32.852C5.05078 34.4455 8.59764 35.7373 12.9725 35.7373Z" fill="black"/>
<path d="M31.2359 11.2014L31.6058 11.6001L31.2824 12.0374C20.7925 26.2205 14.7496 32.6423 12.1857 31.781C10.624 31.2564 9.05788 29.6786 7.49169 27.3876C6.94118 26.5823 6.42423 25.7344 5.95407 24.8905C5.64098 24.3286 5.37599 23.8161 5.23839 23.5274C5.06288 23.1592 4.98877 22.9324 4.92998 22.6344C4.9264 22.6162 4.9264 22.6162 4.92299 22.5986C4.89845 22.4722 4.88996 22.4322 4.87162 22.3631C4.55597 21.1734 4.39453 19.9409 4.39453 18.6877C4.39453 10.7927 10.7947 4.39258 18.6896 4.39258C21.163 4.39258 23.5465 5.02206 25.6589 6.20372L25.7134 6.23784C27.4429 7.44192 29.2825 9.09642 31.2359 11.2014ZM24.9906 7.33266C23.0796 6.26983 20.9264 5.70405 18.6896 5.70405C11.519 5.70405 5.70601 11.517 5.70601 18.6877C5.70601 19.8271 5.85264 20.9466 6.13923 22.0267C6.16757 22.1336 6.18039 22.1939 6.21046 22.3489C6.21361 22.3651 6.21361 22.3651 6.21664 22.3805C6.25459 22.5728 6.29462 22.6953 6.42226 22.9631C6.54778 23.2265 6.80002 23.7143 7.09972 24.2522C7.55161 25.0632 8.04819 25.8778 8.57435 26.6475C9.98938 28.7174 11.3927 30.1311 12.6033 30.5378C14.218 31.0802 20.2965 24.6457 29.9026 11.6968C28.1586 9.85596 26.5203 8.40123 24.9906 7.33266Z" fill="black"/>
<path d="M24.9916 7.33271C23.0806 6.26988 20.9275 5.7041 18.6906 5.7041C11.52 5.7041 5.70703 11.5171 5.70703 18.6877C5.70703 19.8272 5.85367 20.9466 6.14026 22.0268C6.1686 22.1336 6.18141 22.1939 6.21148 22.3489C6.21464 22.3651 6.21464 22.3651 6.21767 22.3806C6.25561 22.5728 6.29564 22.6954 6.42328 22.9632C6.5488 23.2265 6.80104 23.7143 7.10075 24.2522C7.55263 25.0633 8.04922 25.8779 8.57538 26.6475C9.99041 28.7174 11.3937 30.1311 12.6044 30.5378C14.219 31.0802 20.2975 24.6457 29.9036 11.6969C28.1596 9.85601 26.5213 8.40128 24.9916 7.33271Z" fill="#EC1C79"/>
<path d="M21.3107 35.6058C13.4158 35.6058 7.01562 29.2057 7.01562 21.3107C7.01562 13.4158 13.4158 7.01562 21.3107 7.01562C29.2057 7.01562 35.6058 13.4158 35.6058 21.3107C35.6058 29.2057 29.2057 35.6058 21.3107 35.6058ZM21.3107 34.2943C28.4814 34.2943 34.2943 28.4814 34.2943 21.3107C34.2943 14.1401 28.4814 8.3271 21.3107 8.3271C14.1401 8.3271 8.3271 14.1401 8.3271 21.3107C8.3271 28.4814 14.1401 34.2943 21.3107 34.2943Z" fill="black"/>
<path d="M21.3117 34.2934C28.4824 34.2934 34.2953 28.4804 34.2953 21.3098C34.2953 14.1391 28.4824 8.32617 21.3117 8.32617C14.1411 8.32617 8.32812 14.1391 8.32812 21.3098C8.32812 28.4804 14.1411 34.2934 21.3117 34.2934Z" fill="white"/>
<path fill-rule="evenodd" clip-rule="evenodd" d="M11.6014 23.9697L9.88281 18.792H11.3884L12.2844 21.7665L13.2759 18.7773H14.5024L15.4938 21.7665L16.3898 18.792H17.866L16.1475 23.9697H14.9063L13.8707 21.01L12.8425 23.9697H11.6014ZM18.4315 23.933V18.792H22.5664V20.0038H19.8416V20.7823H22.3093V21.906H19.8416V22.7212H22.6031V23.933H18.4315ZM24.586 23.933V20.0406H23.0437V18.792H27.5531V20.0406H26.0108V23.933H24.586ZM28.1774 23.933V18.792H29.6022V20.7162H31.4309V18.792H32.8557V23.933H31.4309V21.9794H29.6022V23.933H28.1774Z" fill="black"/>
<path d="M5.24599 17.246C4.88319 17.0646 4.73614 16.6234 4.91754 16.2606C5.09894 15.8978 5.54009 15.7508 5.90288 15.9322L8.00124 16.9814C8.36403 17.1628 8.51108 17.6039 8.32968 17.9667C8.14829 18.3295 7.70714 18.4765 7.34435 18.2952L5.24599 17.246Z" fill="black"/>
<path d="M5.00498 20.7257C4.63669 20.5557 4.47593 20.1194 4.64589 19.7511C4.81586 19.3828 5.2522 19.222 5.62048 19.392L7.71884 20.3604C8.08712 20.5304 8.24789 20.9667 8.07792 21.335C7.90796 21.7033 7.47162 21.864 7.10334 21.6941L5.00498 20.7257Z" fill="black"/>
</g>
<defs>
<clipPath id="clip0_10_7818">
<rect width="32" height="32" fill="white" transform="translate(4 4)"/>
</clipPath>
</defs>
</svg>
