<svg xmlns="http://www.w3.org/2000/svg" viewBox="0 0 32 32" fill="none">
  <rect width="100%" height="100%" fill="#43FFF1"/>
  <path fill-rule="evenodd" clip-rule="evenodd" d="M16 30.5455C24.0332 30.5455 30.5455 24.0332 30.5455 16C30.5455 7.96677 24.0332 1.45455 16 1.45455C7.96677 1.45455 1.45455 7.96677 1.45455 16C1.45455 24.0332 7.96677 30.5455 16 30.5455ZM16 32C24.8366 32 32 24.8366 32 16C32 7.16344 24.8366 0 16 0C7.16344 0 0 7.16344 0 16C0 24.8366 7.16344 32 16 32Z" fill="#43FFF1"/>
  <path d="M25.2855 10.8881L19.0434 6.66699L17.0263 9.5436L19.0117 10.8881H6.6665V14.3901H25.3332V10.8881H25.2855Z" fill="#091433"/>
  <path d="M6.68239 17.4699V20.9718C6.68239 20.9718 6.73004 20.9875 6.74592 21.0031L6.68239 21.0813L12.9562 25.3337L14.9734 22.457L13.3215 21.3314C16.4982 20.5966 21.9977 19.3147 25.3332 20.9562V17.4542C19.7105 14.6714 12.2891 20.237 6.66651 17.4542L6.68239 17.4699Z" fill="#000C24"/>
</svg>