<svg width="500" height="500" viewBox="-5 -5 210 210" xmlns="http://www.w3.org/2000/svg"><path d="m142 11.26h-84c-5.72 0-11 3.05-13.86 8l-41.99 72.74c-2.86 4.95-2.86 11.05 0 16l42 72.74c2.86 4.95 8.14 8 13.86 8h84c5.72 0 11-3.05 13.86-8l42-72.74c2.86-4.95 2.86-11.05 0-16l-42-72.74c-2.86-4.95-8.14-8-13.86-8z" fill="#0046fd"/><g fill="#fff"><path d="m115.45 61.08h-53.63c-5.71 0-10.34 4.63-10.34 10.34v80.02c0 .89 1.07 1.34 1.7.71l12.34-12.21c.97-.96 1.51-2.26 1.51-3.62v-28.76c0-.55.45-1 1-1h16.68c1.36 0 2.66-.54 3.62-1.51l12.39-12.52c.56-.56.16-1.52-.64-1.52h-32.05c-.55 0-1-.45-1-1v-12.38c0-.55.45-1 1-1h32.05c1.36 0 2.66-.54 3.62-1.51l12.39-12.52c.56-.56.16-1.52-.64-1.52z"/><path d="m84.12 139.37h53.63c5.71 0 10.34-4.63 10.34-10.34v-80.02c0-.89-1.07-1.34-1.7-.71l-12.34 12.21c-.97.96-1.51 2.26-1.51 3.62v28.76c0 .55-.45 1-1 1h-16.68c-1.36 0-2.66.54-3.62 1.51l-12.39 12.52c-.56.56-.16 1.52.64 1.52h32.05c.55 0 1 .45 1 1v12.38c0 .55-.45 1-1 1h-32.05c-1.36 0-2.66.54-3.62 1.51l-12.39 12.52c-.56.56-.16 1.52.64 1.52z"/></g></svg>