<svg xmlns="http://www.w3.org/2000/svg" viewBox="0 0 120 120">
  <defs>
    <linearGradient id="b-logo-gradient" x1="21.73" y1="104.05" x2="98.96" y2="15.16" gradientUnits="userSpaceOnUse">
      <stop offset="0" stop-color="#a87dff"/>
      <stop offset="1" stop-color="#199dea"/>
    </linearGradient>
  </defs>
  <rect width="120" height="120" fill="url(#b-logo-gradient)"/>
  <path fill="#fff" d="M70.8,16.31v7.73c15.41,4.65,26.7,18.97,26.7,35.96s-11.29,31.31-26.7,35.96v7.73c19.65-4.8,34.2-22.54,34.2-43.69s-14.55-38.89-34.2-43.69Z"/>
  <path fill="#fff" d="M22.5,60c0-16.99,11.29-31.31,26.7-35.96v-7.73C29.55,21.11,15,38.85,15,60s14.55,38.89,34.2,43.69v-7.73c-15.41-4.61-26.7-18.97-26.7-35.96Z"/>
  <path fill="#fff" d="M78.95,64.68c-.29-2-1.3-3.57-2.9-4.77-.87-.65-1.8-1.19-2.75-1.7-.06-.03-.12-.07-.18-.1.35-.3.7-.58,1.03-.88.81-.74,1.5-1.57,2.01-2.54.53-1.02.64-2.1.46-3.22-.35-2.22-1.3-4.13-2.99-5.64-1.29-1.16-2.81-1.85-4.48-2.25-1.1-.26-2.23-.37-3.36-.39h-.2s.01-7.13,0-7.21h-4.1c0,.06,0,7.2,0,7.2h-4.01c0-.05,0-7.17,0-7.2h-4.08c0,.08,0,7.2,0,7.2h-9.14s0,4.79,0,4.79h3.43c1.28,0,2.32,1.04,2.31,2.32l-.02,18.93c0,1.28-1.04,2.32-2.32,2.31h-2.23s-.81,3.54-1.19,5.23c0,.01,0,.02,0,.06h9.12s0,7.21,0,7.21h4.09s0-7.18,0-7.18h4.02s0,7.18,0,7.18h4.09s0-7.23,0-7.23c.42,0,.82.02,1.22,0,2.13-.11,4.19-.55,6.13-1.48,2.25-1.08,4.05-2.65,5.22-4.89.53-1.01.85-2.09.95-3.23,0-.05.02-.1.03-.15v-1.22c-.05-.38-.08-.77-.14-1.15ZM57.49,47.99c.07,0,.12,0,.18,0,1.76,0,3.52,0,5.28,0,1.32.01,2.56.33,3.63,1.13,1.34,1,1.87,2.37,1.67,4.01-.23,1.85-1.37,2.95-3.04,3.59-.74.28-1.52.4-2.32.4h-5.26s-.09,0-.15-.02v-9.11ZM69.56,69.68c-.73.82-1.66,1.28-2.7,1.56-.88.24-1.77.32-2.68.32-2.18,0-4.35,0-6.52-.01-.06,0-.12,0-.2,0v-10.07c.07,0,.12-.01.18-.01,2.26,0,4.53,0,6.79.01,1.19,0,2.34.18,3.44.67,1.86.82,2.84,2.39,2.81,4.44-.02,1.17-.33,2.22-1.12,3.1Z"/>
</svg>